<?xml version="1.0" standalone="no"?>
 <!DOCTYPE svg PUBLIC "-//W3C//DTD SVG 1.1//EN" 
 "http://www.w3.org/Graphics/SVG/1.1/DTD/svg11.dtd"> 
<svg
  xmlns:svg="http://www.w3.org/2000/svg"
  xmlns="http://www.w3.org/2000/svg"
  xmlns:xlink="http://www.w3.org/1999/xlink"
  version="1.1"
  width="8.6614mm" height="8.2296mm" viewBox="0.0000 0.0000 8.6614 8.2296">
<title>SVG Image created as outline.svg date 2025/06/16 09:18:16 </title>
  <desc>Image generated by PCBNEW </desc>
<g style="fill:#000000; fill-opacity:1.0000;stroke:#000000; stroke-opacity:1.0000;
stroke-linecap:round; stroke-linejoin:round;"
 transform="translate(0 0) scale(1 1)">
</g>
<g style="fill:none; 
stroke:#000000; stroke-width:0.0200; stroke-opacity:1; 
stroke-linecap:round; stroke-linejoin:round;">
<path d="M0.5250 2.0960
L0.5250 6.1590
" />
<path d="M1.0330 1.5880
L0.5250 2.0960
" />
<path d="M1.0330 1.5880
L1.0330 6.6670
" />
<path d="M1.0330 6.6670
L0.5250 6.1590
" />
<path d="M1.4760 0.8890
L1.4760 1.5880
" />
<path d="M1.4760 0.8890
L1.6040 0.6350
" />
<path d="M1.4760 2.5390
L1.6040 2.6660
" />
<path d="M1.4760 3.1740
L1.4760 2.5390
" />
<path d="M1.4760 3.1740
L1.6040 3.0470
" />
<path d="M1.4760 5.7140
L1.4760 5.0800
" />
<path d="M1.4760 5.7140
L1.6040 5.5870
" />
<path d="M1.4760 6.6670
L1.4760 7.3650
" />
<path d="M1.4760 7.3650
L1.6040 7.6190
" />
<path d="M1.6040 3.0470
L1.6040 2.6660
" />
<path d="M1.6040 5.2060
L1.4760 5.0800
" />
<path d="M1.6040 5.5870
L1.6040 5.2060
" />
<path d="M1.9840 0.6350
L1.6040 0.6350
" />
<path d="M1.9840 0.6350
L2.1120 0.8890
" />
<path d="M1.9840 2.6660
L1.6040 2.6660
" />
<path d="M1.9840 2.6660
L1.9840 3.0470
" />
<path d="M1.9840 3.0470
L1.6040 3.0470
" />
<path d="M1.9840 5.2060
L1.6040 5.2060
" />
<path d="M1.9840 5.2060
L1.9840 5.5870
" />
<path d="M1.9840 5.5870
L1.6040 5.5870
" />
<path d="M1.9840 5.5870
L2.1120 5.7140
" />
<path d="M1.9840 7.6190
L1.6040 7.6190
" />
<path d="M2.1120 0.8890
L1.4760 0.8890
" />
<path d="M2.1120 0.8890
L2.1120 1.5880
" />
<path d="M2.1120 2.5390
L1.4760 2.5390
" />
<path d="M2.1120 2.5390
L1.9840 2.6660
" />
<path d="M2.1120 2.5390
L2.1120 3.1740
" />
<path d="M2.1120 3.1740
L1.4760 3.1740
" />
<path d="M2.1120 3.1740
L1.9840 3.0470
" />
<path d="M2.1120 5.0800
L1.4760 5.0800
" />
<path d="M2.1120 5.0800
L1.9840 5.2060
" />
<path d="M2.1120 5.0800
L2.1120 5.7140
" />
<path d="M2.1120 5.7140
L1.4760 5.7140
" />
<path d="M2.1120 6.6670
L2.1120 7.3650
" />
<path d="M2.1120 7.3650
L1.4760 7.3650
" />
<path d="M2.1120 7.3650
L1.9840 7.6190
" />
<path d="M2.5570 1.5880
L1.0330 1.5880
" />
<path d="M2.5570 1.5880
L2.5570 6.6670
" />
<path d="M2.5570 1.5880
L3.0650 2.0960
" />
<path d="M2.5570 6.6670
L1.0330 6.6670
" />
<path d="M3.0650 2.0960
L3.0650 6.1590
" />
<path d="M3.0650 2.0960
L3.5730 1.5880
" />
<path d="M3.0650 6.1590
L2.5570 6.6670
" />
<path d="M3.5730 1.5880
L3.5730 6.6670
" />
<path d="M3.5730 6.6670
L3.0650 6.1590
" />
<path d="M4.0170 0.8890
L4.0170 1.5880
" />
<path d="M4.0170 0.8890
L4.1440 0.6350
" />
<path d="M4.0170 2.5390
L4.1440 2.6660
" />
<path d="M4.0170 3.1740
L4.0170 2.5390
" />
<path d="M4.0170 3.1740
L4.1440 3.0470
" />
<path d="M4.0170 5.7140
L4.0170 5.0800
" />
<path d="M4.0170 5.7140
L4.1440 5.5870
" />
<path d="M4.0170 6.6670
L4.0170 7.3650
" />
<path d="M4.0170 7.3650
L4.1440 7.6190
" />
<path d="M4.1440 3.0470
L4.1440 2.6660
" />
<path d="M4.1440 5.2060
L4.0170 5.0800
" />
<path d="M4.1440 5.5870
L4.1440 5.2060
" />
<path d="M4.5240 0.6350
L4.1440 0.6350
" />
<path d="M4.5240 0.6350
L4.6510 0.8890
" />
<path d="M4.5240 2.6660
L4.1440 2.6660
" />
<path d="M4.5240 2.6660
L4.5240 3.0470
" />
<path d="M4.5240 3.0470
L4.1440 3.0470
" />
<path d="M4.5240 5.2060
L4.1440 5.2060
" />
<path d="M4.5240 5.2060
L4.5240 5.5870
" />
<path d="M4.5240 5.5870
L4.1440 5.5870
" />
<path d="M4.5240 5.5870
L4.6510 5.7140
" />
<path d="M4.5240 7.6190
L4.1440 7.6190
" />
<path d="M4.6510 0.8890
L4.0170 0.8890
" />
<path d="M4.6510 0.8890
L4.6510 1.5880
" />
<path d="M4.6510 2.5390
L4.0170 2.5390
" />
<path d="M4.6510 2.5390
L4.5240 2.6660
" />
<path d="M4.6510 2.5390
L4.6510 3.1740
" />
<path d="M4.6510 3.1740
L4.0170 3.1740
" />
<path d="M4.6510 3.1740
L4.5240 3.0470
" />
<path d="M4.6510 5.0800
L4.0170 5.0800
" />
<path d="M4.6510 5.0800
L4.5240 5.2060
" />
<path d="M4.6510 5.0800
L4.6510 5.7140
" />
<path d="M4.6510 5.7140
L4.0170 5.7140
" />
<path d="M4.6510 6.6670
L4.6510 7.3650
" />
<path d="M4.6510 7.3650
L4.0170 7.3650
" />
<path d="M4.6510 7.3650
L4.5240 7.6190
" />
<path d="M5.0950 1.5880
L3.5730 1.5880
" />
<path d="M5.0950 1.5880
L5.0950 6.6670
" />
<path d="M5.0950 1.5880
L5.6040 2.0960
" />
<path d="M5.0950 6.6670
L3.5730 6.6670
" />
<path d="M5.6040 2.0960
L5.6040 6.1590
" />
<path d="M5.6040 2.0960
L6.1120 1.5880
" />
<path d="M5.6040 6.1590
L5.0950 6.6670
" />
<path d="M6.1120 1.5880
L6.1120 6.6670
" />
<path d="M6.1120 6.6670
L5.6040 6.1590
" />
<path d="M6.5560 0.8890
L6.5560 1.5880
" />
<path d="M6.5560 0.8890
L6.6840 0.6350
" />
<path d="M6.5560 2.5390
L6.6840 2.6660
" />
<path d="M6.5560 3.1740
L6.5560 2.5390
" />
<path d="M6.5560 3.1740
L6.6840 3.0470
" />
<path d="M6.5560 5.7140
L6.5560 5.0800
" />
<path d="M6.5560 5.7140
L6.6840 5.5870
" />
<path d="M6.5560 6.6670
L6.5560 7.3650
" />
<path d="M6.5560 7.3650
L6.6840 7.6190
" />
<path d="M6.6840 3.0470
L6.6840 2.6660
" />
<path d="M6.6840 5.2060
L6.5560 5.0800
" />
<path d="M6.6840 5.5870
L6.6840 5.2060
" />
<path d="M7.0640 0.6350
L6.6840 0.6350
" />
<path d="M7.0640 0.6350
L7.1920 0.8890
" />
<path d="M7.0640 2.6660
L6.6840 2.6660
" />
<path d="M7.0640 2.6660
L7.0640 3.0470
" />
<path d="M7.0640 3.0470
L6.6840 3.0470
" />
<path d="M7.0640 5.2060
L6.6840 5.2060
" />
<path d="M7.0640 5.2060
L7.0640 5.5870
" />
<path d="M7.0640 5.5870
L6.6840 5.5870
" />
<path d="M7.0640 5.5870
L7.1920 5.7140
" />
<path d="M7.0640 7.6190
L6.6840 7.6190
" />
<path d="M7.1920 0.8890
L6.5560 0.8890
" />
<path d="M7.1920 0.8890
L7.1920 1.5880
" />
<path d="M7.1920 2.5390
L6.5560 2.5390
" />
<path d="M7.1920 2.5390
L7.0640 2.6660
" />
<path d="M7.1920 2.5390
L7.1920 3.1740
" />
<path d="M7.1920 3.1740
L6.5560 3.1740
" />
<path d="M7.1920 3.1740
L7.0640 3.0470
" />
<path d="M7.1920 5.0800
L6.5560 5.0800
" />
<path d="M7.1920 5.0800
L7.0640 5.2060
" />
<path d="M7.1920 5.0800
L7.1920 5.7140
" />
<path d="M7.1920 5.7140
L6.5560 5.7140
" />
<path d="M7.1920 6.6670
L7.1920 7.3650
" />
<path d="M7.1920 7.3650
L6.5560 7.3650
" />
<path d="M7.1920 7.3650
L7.0640 7.6190
" />
<path d="M7.6360 1.5880
L6.1120 1.5880
" />
<path d="M7.6360 1.5880
L7.6360 6.6670
" />
<path d="M7.6360 6.6670
L6.1120 6.6670
" />
<path d="M8.1440 2.0960
L7.6360 1.5880
" />
<path d="M8.1440 2.0960
L8.1440 6.1590
" />
<path d="M8.1440 6.1590
L7.6360 6.6670
" />
</g> 
</svg>
