<?xml version="1.0" standalone="no"?>
 <!DOCTYPE svg PUBLIC "-//W3C//DTD SVG 1.1//EN" 
 "http://www.w3.org/Graphics/SVG/1.1/DTD/svg11.dtd"> 
<svg
  xmlns:svg="http://www.w3.org/2000/svg"
  xmlns="http://www.w3.org/2000/svg"
  xmlns:xlink="http://www.w3.org/1999/xlink"
  version="1.1"
  width="33.0454mm" height="33.0454mm" viewBox="0.0000 0.0000 33.0454 33.0454">
<title>SVG Image created as outline.svg date 2025/06/16 09:17:44 </title>
  <desc>Image generated by PCBNEW </desc>
<g style="fill:#000000; fill-opacity:1.0000;stroke:#000000; stroke-opacity:1.0000;
stroke-linecap:round; stroke-linejoin:round;"
 transform="translate(0 0) scale(1 1)">
</g>
<g style="fill:none; 
stroke:#000000; stroke-width:0.0200; stroke-opacity:1; 
stroke-linecap:round; stroke-linejoin:round;">
<path d="M1.0250 1.0250
L2.5250 1.0250
" />
<path d="M1.0250 2.5250
L1.0250 1.0250
" />
<path d="M1.0250 32.0240
L1.0250 2.5250
" />
<path d="M2.3240 2.3240
L2.8240 2.8240
" />
<path d="M2.3240 2.3240
L2.8900 2.3240
" />
<path d="M2.3240 2.9540
L2.3240 2.3240
" />
<path d="M2.3240 3.4930
L2.3240 2.9540
" />
<path d="M2.3240 30.7230
L2.3240 3.4930
" />
<path d="M2.3240 30.7230
L2.8240 30.2230
" />
<path d="M2.5250 1.0250
L32.0240 1.0250
" />
<path d="M2.8240 2.8240
L2.8900 2.8240
" />
<path d="M2.8240 2.9540
L2.8240 2.8240
" />
<path d="M2.8240 3.4930
L2.8240 2.9540
" />
<path d="M2.8240 30.2230
L2.8240 3.4930
" />
<path d="M2.8900 2.3240
L4.1590 2.3240
" />
<path d="M2.8900 2.8240
L4.1590 2.8240
" />
<path d="M4.1590 2.3240
L30.7230 2.3240
" />
<path d="M4.1590 2.8240
L30.2230 2.8240
" />
<path d="M4.4350 4.9930
L4.4350 5.0250
" />
</g>
<g style="fill:#000000; fill-opacity:1.0000; stroke:none;">
<circle cx="4.4350" cy="5.0250" r="0.0100" /> 
</g>
<g style="fill:none; 
stroke:#000000; stroke-width:0.0200; stroke-opacity:1; 
stroke-linecap:round; stroke-linejoin:round;">
<path d="M4.4350 5.0250
L4.4350 5.0540
" />
<path d="M4.4350 5.0540
L4.4380 5.0850
" />
<path d="M4.4380 4.9640
L4.4350 4.9930
" />
<path d="M4.4380 5.0850
L4.4410 5.1140
" />
<path d="M4.4410 4.9350
L4.4380 4.9640
" />
<path d="M4.4410 5.1140
L4.4450 5.1430
" />
<path d="M4.4450 4.9060
L4.4410 4.9350
" />
<path d="M4.4450 5.1430
L4.4520 5.1720
" />
<path d="M4.4520 4.8770
L4.4450 4.9060
" />
<path d="M4.4520 5.1720
L4.4610 5.1990
" />
<path d="M4.4610 4.8490
L4.4520 4.8770
" />
<path d="M4.4610 5.1990
L4.4700 5.2270
" />
<path d="M4.4700 4.8220
L4.4610 4.8490
" />
<path d="M4.4700 5.2270
L4.4800 5.2530
" />
<path d="M4.4800 4.7940
L4.4700 4.8220
" />
<path d="M4.4800 5.2530
L4.4930 5.2790
" />
<path d="M4.4930 4.7690
L4.4800 4.7940
" />
<path d="M4.4930 5.2790
L4.5060 5.3060
" />
<path d="M4.5060 4.7430
L4.4930 4.7690
" />
<path d="M4.5060 5.3060
L4.5190 5.3290
" />
<path d="M4.5190 4.7180
L4.5060 4.7430
" />
<path d="M4.5190 5.3290
L4.5350 5.3540
" />
<path d="M4.5250 4.9990
L4.5250 5.0250
" />
</g>
<g style="fill:#000000; fill-opacity:1.0000; stroke:none;">
<circle cx="4.5250" cy="5.0250" r="0.0100" /> 
</g>
<g style="fill:none; 
stroke:#000000; stroke-width:0.0200; stroke-opacity:1; 
stroke-linecap:round; stroke-linejoin:round;">
<path d="M4.5250 5.0250
L4.5250 5.0500
" />
<path d="M4.5250 5.0500
L4.5260 5.0760
" />
<path d="M4.5260 4.9730
L4.5250 4.9990
" />
<path d="M4.5260 5.0760
L4.5290 5.1010
" />
<path d="M4.5290 4.9480
L4.5260 4.9730
" />
<path d="M4.5290 5.1010
L4.5350 5.1240
" />
<path d="M4.5350 4.6950
L4.5190 4.7180
" />
<path d="M4.5350 4.9230
L4.5290 4.9480
" />
<path d="M4.5350 5.1240
L4.5400 5.1490
" />
<path d="M4.5350 5.3540
L4.5510 5.3770
" />
<path d="M4.5400 4.9000
L4.5350 4.9230
" />
<path d="M4.5400 5.1490
L4.5470 5.1720
" />
<path d="M4.5470 4.8750
L4.5400 4.9000
" />
<path d="M4.5470 5.1720
L4.5540 5.1950
" />
<path d="M4.5510 4.6700
L4.5350 4.6950
" />
<path d="M4.5510 5.3770
L4.5690 5.4000
" />
<path d="M4.5540 4.8520
L4.5470 4.8750
" />
<path d="M4.5540 5.1950
L4.5630 5.2180
" />
<path d="M4.5630 4.8290
L4.5540 4.8520
" />
<path d="M4.5630 5.2180
L4.5730 5.2400
" />
<path d="M4.5690 4.6490
L4.5510 4.6700
" />
<path d="M4.5690 5.4000
L4.5880 5.4200
" />
<path d="M4.5730 4.8070
L4.5630 4.8290
" />
<path d="M4.5730 5.2400
L4.5850 5.2620
" />
<path d="M4.5850 4.7850
L4.5730 4.8070
" />
<path d="M4.5850 5.2620
L4.5960 5.2840
" />
<path d="M4.5880 4.6280
L4.5690 4.6490
" />
<path d="M4.5880 5.4200
L4.6060 5.4420
" />
<path d="M4.5960 4.7650
L4.5850 4.7850
" />
<path d="M4.5960 5.2840
L4.6090 5.3040
" />
<path d="M4.6060 4.6060
L4.5880 4.6280
" />
<path d="M4.6060 5.4420
L4.6280 5.4610
" />
<path d="M4.6090 4.7450
L4.5960 4.7650
" />
<path d="M4.6090 5.3040
L4.6240 5.3230
" />
<path d="M4.6240 4.7240
L4.6090 4.7450
" />
<path d="M4.6240 5.3230
L4.6380 5.3420
" />
<path d="M4.6280 4.5880
L4.6060 4.6060
" />
<path d="M4.6280 5.4610
L4.6490 5.4800
" />
<path d="M4.6380 4.7050
L4.6240 4.7240
" />
<path d="M4.6380 5.3420
L4.6530 5.3610
" />
<path d="M4.6490 4.5690
L4.6280 4.5880
" />
<path d="M4.6490 5.4800
L4.6700 5.4960
" />
<path d="M4.6530 4.6880
L4.6380 4.7050
" />
<path d="M4.6530 5.3610
L4.6700 5.3770
" />
<path d="M4.6700 4.5510
L4.6490 4.5690
" />
<path d="M4.6700 4.6700
L4.6530 4.6880
" />
<path d="M4.6700 5.3770
L4.6880 5.3940
" />
<path d="M4.6700 5.4960
L4.6950 5.5130
" />
<path d="M4.6880 4.6530
L4.6700 4.6700
" />
<path d="M4.6880 5.3940
L4.7050 5.4100
" />
<path d="M4.6950 4.5350
L4.6700 4.5510
" />
<path d="M4.6950 5.5130
L4.7180 5.5280
" />
<path d="M4.7050 4.6380
L4.6880 4.6530
" />
<path d="M4.7050 5.4100
L4.7240 5.4250
" />
<path d="M4.7180 4.5190
L4.6950 4.5350
" />
<path d="M4.7180 5.5280
L4.7430 5.5420
" />
<path d="M4.7240 4.6240
L4.7050 4.6380
" />
<path d="M4.7240 5.4250
L4.7450 5.4380
" />
<path d="M4.7430 4.5060
L4.7180 4.5190
" />
<path d="M4.7430 5.5420
L4.7690 5.5560
" />
<path d="M4.7450 4.6090
L4.7240 4.6240
" />
<path d="M4.7450 5.4380
L4.7650 5.4510
" />
<path d="M4.7650 4.5960
L4.7450 4.6090
" />
<path d="M4.7650 5.4510
L4.7850 5.4640
" />
<path d="M4.7690 4.4930
L4.7430 4.5060
" />
<path d="M4.7690 5.5560
L4.7940 5.5670
" />
<path d="M4.7850 4.5850
L4.7650 4.5960
" />
<path d="M4.7850 5.4640
L4.8070 5.4740
" />
<path d="M4.7940 4.4800
L4.7690 4.4930
" />
<path d="M4.7940 5.5670
L4.8220 5.5790
" />
<path d="M4.8070 4.5730
L4.7850 4.5850
" />
<path d="M4.8070 5.4740
L4.8290 5.4840
" />
<path d="M4.8220 4.4700
L4.7940 4.4800
" />
<path d="M4.8220 5.5790
L4.8490 5.5880
" />
<path d="M4.8290 4.5630
L4.8070 4.5730
" />
<path d="M4.8290 5.4840
L4.8520 5.4930
" />
<path d="M4.8490 4.4610
L4.8220 4.4700
" />
<path d="M4.8490 5.5880
L4.8770 5.5950
" />
<path d="M4.8520 4.5540
L4.8290 4.5630
" />
<path d="M4.8520 5.4930
L4.8750 5.5020
" />
<path d="M4.8750 4.5470
L4.8520 4.5540
" />
<path d="M4.8750 5.5020
L4.9000 5.5090
" />
<path d="M4.8770 4.4520
L4.8490 4.4610
" />
<path d="M4.8770 5.5950
L4.9060 5.6020
" />
<path d="M4.9000 4.5400
L4.8750 4.5470
" />
<path d="M4.9000 5.5090
L4.9230 5.5130
" />
<path d="M4.9060 4.4450
L4.8770 4.4520
" />
<path d="M4.9060 5.6020
L4.9350 5.6080
" />
<path d="M4.9230 4.5350
L4.9000 4.5400
" />
<path d="M4.9230 5.5130
L4.9480 5.5190
" />
<path d="M4.9350 4.4410
L4.9060 4.4450
" />
<path d="M4.9350 5.6080
L4.9640 5.6110
" />
<path d="M4.9480 4.5290
L4.9230 4.5350
" />
<path d="M4.9480 5.5190
L4.9730 5.5220
" />
<path d="M4.9640 4.4380
L4.9350 4.4410
" />
<path d="M4.9640 5.6110
L4.9930 5.6140
" />
<path d="M4.9730 4.5260
L4.9480 4.5290
" />
<path d="M4.9730 5.5220
L4.9990 5.5240
" />
<path d="M4.9930 4.4350
L4.9640 4.4380
" />
<path d="M4.9930 5.6140
L5.0250 5.6150
" />
<path d="M4.9990 4.5250
L4.9730 4.5260
" />
<path d="M4.9990 5.5240
L5.0250 5.5250
" />
<path d="M5.0250 4.4350
L4.9930 4.4350
" />
</g>
<g style="fill:#000000; fill-opacity:1.0000; stroke:none;">
<circle cx="5.0250" cy="4.4350" r="0.0100" /> 
</g>
<g style="fill:none; 
stroke:#000000; stroke-width:0.0200; stroke-opacity:1; 
stroke-linecap:round; stroke-linejoin:round;">
<path d="M5.0250 4.5250
L4.9990 4.5250
" />
</g>
<g style="fill:#000000; fill-opacity:1.0000; stroke:none;">
<circle cx="5.0250" cy="4.5250" r="0.0100" /> 
<circle cx="5.0250" cy="5.5250" r="0.0100" /> 
</g>
<g style="fill:none; 
stroke:#000000; stroke-width:0.0200; stroke-opacity:1; 
stroke-linecap:round; stroke-linejoin:round;">
<path d="M5.0250 5.5250
L5.0500 5.5240
" />
</g>
<g style="fill:#000000; fill-opacity:1.0000; stroke:none;">
<circle cx="5.0250" cy="5.6150" r="0.0100" /> 
</g>
<g style="fill:none; 
stroke:#000000; stroke-width:0.0200; stroke-opacity:1; 
stroke-linecap:round; stroke-linejoin:round;">
<path d="M5.0250 5.6150
L5.0540 5.6140
" />
<path d="M5.0500 4.5250
L5.0250 4.5250
" />
<path d="M5.0500 5.5240
L5.0760 5.5220
" />
<path d="M5.0540 4.4350
L5.0250 4.4350
" />
<path d="M5.0540 5.6140
L5.0850 5.6110
" />
<path d="M5.0760 4.5260
L5.0500 4.5250
" />
<path d="M5.0760 5.5220
L5.1010 5.5190
" />
<path d="M5.0850 4.4380
L5.0540 4.4350
" />
<path d="M5.0850 5.6110
L5.1140 5.6080
" />
<path d="M5.1010 4.5290
L5.0760 4.5260
" />
<path d="M5.1010 5.5190
L5.1240 5.5130
" />
<path d="M5.1140 4.4410
L5.0850 4.4380
" />
<path d="M5.1140 5.6080
L5.1430 5.6020
" />
<path d="M5.1240 4.5350
L5.1010 4.5290
" />
<path d="M5.1240 5.5130
L5.1490 5.5090
" />
<path d="M5.1430 4.4450
L5.1140 4.4410
" />
<path d="M5.1430 5.6020
L5.1720 5.5950
" />
<path d="M5.1490 4.5400
L5.1240 4.5350
" />
<path d="M5.1490 5.5090
L5.1720 5.5020
" />
<path d="M5.1720 4.4520
L5.1430 4.4450
" />
<path d="M5.1720 4.5470
L5.1490 4.5400
" />
<path d="M5.1720 5.5020
L5.1950 5.4930
" />
<path d="M5.1720 5.5950
L5.1990 5.5880
" />
<path d="M5.1950 4.5540
L5.1720 4.5470
" />
<path d="M5.1950 5.4930
L5.2180 5.4840
" />
<path d="M5.1990 4.4610
L5.1720 4.4520
" />
<path d="M5.1990 5.5880
L5.2270 5.5790
" />
<path d="M5.2180 4.5630
L5.1950 4.5540
" />
<path d="M5.2180 5.4840
L5.2400 5.4740
" />
<path d="M5.2270 4.4700
L5.1990 4.4610
" />
<path d="M5.2270 5.5790
L5.2530 5.5670
" />
<path d="M5.2400 4.5730
L5.2180 4.5630
" />
<path d="M5.2400 5.4740
L5.2620 5.4640
" />
<path d="M5.2530 4.4800
L5.2270 4.4700
" />
<path d="M5.2530 5.5670
L5.2790 5.5560
" />
<path d="M5.2620 4.5850
L5.2400 4.5730
" />
<path d="M5.2620 5.4640
L5.2840 5.4510
" />
<path d="M5.2790 4.4930
L5.2530 4.4800
" />
<path d="M5.2790 5.5560
L5.3060 5.5420
" />
<path d="M5.2840 4.5960
L5.2620 4.5850
" />
<path d="M5.2840 5.4510
L5.3040 5.4380
" />
<path d="M5.3040 4.6090
L5.2840 4.5960
" />
<path d="M5.3040 5.4380
L5.3230 5.4250
" />
<path d="M5.3060 4.5060
L5.2790 4.4930
" />
<path d="M5.3060 5.5420
L5.3290 5.5280
" />
<path d="M5.3230 4.6240
L5.3040 4.6090
" />
<path d="M5.3230 5.4250
L5.3420 5.4100
" />
<path d="M5.3290 4.5190
L5.3060 4.5060
" />
<path d="M5.3290 5.5280
L5.3540 5.5130
" />
<path d="M5.3420 4.6380
L5.3230 4.6240
" />
<path d="M5.3420 5.4100
L5.3610 5.3940
" />
<path d="M5.3540 4.5350
L5.3290 4.5190
" />
<path d="M5.3540 5.5130
L5.3770 5.4960
" />
<path d="M5.3610 4.6530
L5.3420 4.6380
" />
<path d="M5.3610 5.3940
L5.3770 5.3770
" />
<path d="M5.3770 4.5510
L5.3540 4.5350
" />
<path d="M5.3770 4.6700
L5.3610 4.6530
" />
<path d="M5.3770 5.3770
L5.3940 5.3610
" />
<path d="M5.3770 5.4960
L5.4000 5.4800
" />
<path d="M5.3940 4.6880
L5.3770 4.6700
" />
<path d="M5.3940 5.3610
L5.4100 5.3420
" />
<path d="M5.4000 4.5690
L5.3770 4.5510
" />
<path d="M5.4000 5.4800
L5.4200 5.4610
" />
<path d="M5.4100 4.7050
L5.3940 4.6880
" />
<path d="M5.4100 5.3420
L5.4250 5.3230
" />
<path d="M5.4200 4.5880
L5.4000 4.5690
" />
<path d="M5.4200 5.4610
L5.4420 5.4420
" />
<path d="M5.4250 4.7240
L5.4100 4.7050
" />
<path d="M5.4250 5.3230
L5.4380 5.3040
" />
<path d="M5.4380 4.7450
L5.4250 4.7240
" />
<path d="M5.4380 5.3040
L5.4510 5.2840
" />
<path d="M5.4420 4.6060
L5.4200 4.5880
" />
<path d="M5.4420 5.4420
L5.4610 5.4200
" />
<path d="M5.4510 4.7650
L5.4380 4.7450
" />
<path d="M5.4510 5.2840
L5.4640 5.2620
" />
<path d="M5.4610 4.6280
L5.4420 4.6060
" />
<path d="M5.4610 5.4200
L5.4800 5.4000
" />
<path d="M5.4640 4.7850
L5.4510 4.7650
" />
<path d="M5.4640 5.2620
L5.4740 5.2400
" />
<path d="M5.4740 4.8070
L5.4640 4.7850
" />
<path d="M5.4740 5.2400
L5.4840 5.2180
" />
<path d="M5.4800 4.6490
L5.4610 4.6280
" />
<path d="M5.4800 5.4000
L5.4960 5.3770
" />
<path d="M5.4840 4.8290
L5.4740 4.8070
" />
<path d="M5.4840 5.2180
L5.4930 5.1950
" />
<path d="M5.4930 4.8520
L5.4840 4.8290
" />
<path d="M5.4930 5.1950
L5.5020 5.1720
" />
<path d="M5.4960 4.6700
L5.4800 4.6490
" />
<path d="M5.4960 5.3770
L5.5130 5.3540
" />
<path d="M5.5020 4.8750
L5.4930 4.8520
" />
<path d="M5.5020 5.1720
L5.5090 5.1490
" />
<path d="M5.5090 4.9000
L5.5020 4.8750
" />
<path d="M5.5090 5.1490
L5.5130 5.1240
" />
<path d="M5.5130 4.6950
L5.4960 4.6700
" />
<path d="M5.5130 4.9230
L5.5090 4.9000
" />
<path d="M5.5130 5.1240
L5.5190 5.1010
" />
<path d="M5.5130 5.3540
L5.5280 5.3290
" />
<path d="M5.5190 4.9480
L5.5130 4.9230
" />
<path d="M5.5190 5.1010
L5.5220 5.0760
" />
<path d="M5.5220 4.9730
L5.5190 4.9480
" />
<path d="M5.5220 5.0760
L5.5240 5.0500
" />
<path d="M5.5240 4.9990
L5.5220 4.9730
" />
<path d="M5.5240 5.0500
L5.5250 5.0250
" />
<path d="M5.5250 5.0250
L5.5240 4.9990
" />
</g>
<g style="fill:#000000; fill-opacity:1.0000; stroke:none;">
<circle cx="5.5250" cy="5.0250" r="0.0100" /> 
<circle cx="5.5250" cy="5.0250" r="0.0100" /> 
</g>
<g style="fill:none; 
stroke:#000000; stroke-width:0.0200; stroke-opacity:1; 
stroke-linecap:round; stroke-linejoin:round;">
<path d="M5.5280 4.7180
L5.5130 4.6950
" />
<path d="M5.5280 5.3290
L5.5420 5.3060
" />
<path d="M5.5420 4.7430
L5.5280 4.7180
" />
<path d="M5.5420 5.3060
L5.5560 5.2790
" />
<path d="M5.5560 4.7690
L5.5420 4.7430
" />
<path d="M5.5560 5.2790
L5.5670 5.2530
" />
<path d="M5.5670 4.7940
L5.5560 4.7690
" />
<path d="M5.5670 5.2530
L5.5790 5.2270
" />
<path d="M5.5790 4.8220
L5.5670 4.7940
" />
<path d="M5.5790 5.2270
L5.5880 5.1990
" />
<path d="M5.5880 4.8490
L5.5790 4.8220
" />
<path d="M5.5880 5.1990
L5.5950 5.1720
" />
<path d="M5.5950 4.8770
L5.5880 4.8490
" />
<path d="M5.5950 5.1720
L5.6020 5.1430
" />
<path d="M5.6020 4.9060
L5.5950 4.8770
" />
<path d="M5.6020 5.1430
L5.6080 5.1140
" />
<path d="M5.6080 4.9350
L5.6020 4.9060
" />
<path d="M5.6080 5.1140
L5.6110 5.0850
" />
<path d="M5.6110 4.9640
L5.6080 4.9350
" />
<path d="M5.6110 5.0850
L5.6140 5.0540
" />
<path d="M5.6140 4.9930
L5.6110 4.9640
" />
<path d="M5.6140 5.0540
L5.6150 5.0250
" />
<path d="M5.6150 5.0250
L5.6140 4.9930
" />
</g>
<g style="fill:#000000; fill-opacity:1.0000; stroke:none;">
<circle cx="5.6150" cy="5.0250" r="0.0100" /> 
<circle cx="5.6150" cy="5.0250" r="0.0100" /> 
</g>
<g style="fill:none; 
stroke:#000000; stroke-width:0.0200; stroke-opacity:1; 
stroke-linecap:round; stroke-linejoin:round;">
<path d="M6.5570 16.5250
L6.8100 16.5250
" />
<path d="M6.5860 10.5250
L7.0600 10.5250
" />
<path d="M6.5930 14.8940
L7.1340 15.6890
" />
<path d="M6.6530 7.4700
L7.6660 8.9570
" />
<path d="M6.7020 11.8950
L6.7020 13.5250
" />
<path d="M6.7020 13.5250
L6.9100 13.5250
" />
<path d="M6.8100 16.5250
L7.2560 15.8450
" />
<path d="M6.8450 14.8940
L6.5930 14.8940
" />
<path d="M6.9100 11.8950
L6.7020 11.8950
" />
<path d="M6.9100 12.7190
L6.9100 11.8950
" />
<path d="M6.9100 12.9540
L7.1760 12.6880
" />
<path d="M6.9100 13.5250
L6.9100 12.9540
" />
<path d="M7.0600 10.5250
L7.8970 9.2510
" />
<path d="M7.1270 7.4700
L6.6530 7.4700
" />
<path d="M7.1340 15.6890
L6.5570 16.5250
" />
<path d="M7.1760 12.6880
L7.7500 13.5250
" />
<path d="M7.2560 15.8450
L7.7010 16.5250
" />
<path d="M7.2620 15.5350
L6.8450 14.8940
" />
<path d="M7.3260 12.5580
L7.9900 11.8950
" />
<path d="M7.3810 15.6890
L7.9320 14.8940
" />
<path d="M7.6660 8.9570
L6.5860 10.5250
" />
<path d="M7.6840 14.8940
L7.2620 15.5350
" />
<path d="M7.7010 16.5250
L7.9580 16.5250
" />
<path d="M7.7210 11.8950
L6.9100 12.7190
" />
<path d="M7.7500 13.5250
L7.9960 13.5250
" />
<path d="M7.8970 9.2510
L8.7320 10.5250
" />
<path d="M7.9090 8.6690
L7.1270 7.4700
" />
<path d="M7.9320 14.8940
L7.6840 14.8940
" />
<path d="M7.9580 16.5250
L7.3810 15.6890
" />
<path d="M7.9900 11.8950
L7.7210 11.8950
" />
<path d="M7.9960 13.5250
L7.3260 12.5580
" />
<path d="M8.1020 15.7160
L8.1040 15.7820
" />
<path d="M8.1040 15.7820
L8.1090 15.8500
" />
<path d="M8.1050 15.6510
L8.1020 15.7160
" />
<path d="M8.1090 15.5800
L8.1050 15.6510
" />
<path d="M8.1090 15.8500
L8.1200 15.9210
" />
<path d="M8.1200 15.5090
L8.1090 15.5800
" />
<path d="M8.1200 15.9210
L8.1340 15.9920
" />
<path d="M8.1310 8.9570
L9.1630 7.4700
" />
<path d="M8.1340 15.4360
L8.1200 15.5090
" />
<path d="M8.1340 15.9920
L8.1540 16.0630
" />
<path d="M8.1540 16.0630
L8.1790 16.1340
" />
<path d="M8.1560 15.3630
L8.1340 15.4360
" />
<path d="M8.1680 15.3270
L8.1560 15.3630
" />
<path d="M8.1790 16.1340
L8.2110 16.2030
" />
<path d="M8.1810 15.2910
L8.1680 15.3270
" />
<path d="M8.1970 15.2550
L8.1810 15.2910
" />
<path d="M8.2110 16.2030
L8.2300 16.2370
" />
<path d="M8.2130 15.2200
L8.1970 15.2550
" />
<path d="M8.2300 16.2370
L8.2490 16.2700
" />
<path d="M8.2310 15.1860
L8.2130 15.2200
" />
<path d="M8.2360 11.8950
L8.2360 13.5250
" />
<path d="M8.2360 13.5250
L8.4470 13.5250
" />
<path d="M8.2490 16.2700
L8.2720 16.3020
" />
<path d="M8.2520 15.1540
L8.2310 15.1860
" />
<path d="M8.2720 16.3020
L8.2940 16.3330
" />
<path d="M8.2740 15.1220
L8.2520 15.1540
" />
<path d="M8.2940 16.3330
L8.3200 16.3610
" />
<path d="M8.2970 15.0910
L8.2740 15.1220
" />
<path d="M8.3100 15.7140
L8.3130 15.6380
" />
<path d="M8.3100 15.7520
L8.3100 15.7140
" />
<path d="M8.3130 15.6380
L8.3200 15.5640
" />
<path d="M8.3130 15.7900
L8.3100 15.7520
" />
<path d="M8.3160 15.8260
L8.3130 15.7900
" />
<path d="M8.3200 15.5640
L8.3300 15.4940
" />
<path d="M8.3200 15.8610
L8.3160 15.8260
" />
<path d="M8.3200 16.3610
L8.3460 16.3890
" />
<path d="M8.3230 15.0610
L8.2970 15.0910
" />
<path d="M8.3250 15.8960
L8.3200 15.8610
" />
<path d="M8.3300 15.4940
L8.3450 15.4300
" />
<path d="M8.3320 15.9300
L8.3250 15.8960
" />
<path d="M8.3390 15.9610
L8.3320 15.9300
" />
<path d="M8.3450 15.4300
L8.3650 15.3690
" />
<path d="M8.3460 16.3890
L8.3750 16.4160
" />
<path d="M8.3480 15.9930
L8.3390 15.9610
" />
<path d="M8.3490 15.0330
L8.3230 15.0610
" />
<path d="M8.3580 16.0240
L8.3480 15.9930
" />
<path d="M8.3650 15.3690
L8.3880 15.3130
" />
<path d="M8.3680 16.0520
L8.3580 16.0240
" />
<path d="M8.3750 16.4160
L8.4060 16.4400
" />
<path d="M8.3780 15.0050
L8.3490 15.0330
" />
<path d="M8.3800 16.0820
L8.3680 16.0520
" />
<path d="M8.3880 15.3130
L8.4030 15.2870
" />
<path d="M8.3930 16.1080
L8.3800 16.0820
" />
<path d="M8.4030 15.2870
L8.4160 15.2610
" />
<path d="M8.4060 16.1340
L8.3930 16.1080
" />
<path d="M8.4060 16.4400
L8.4390 16.4640
" />
<path d="M8.4100 14.9800
L8.3780 15.0050
" />
<path d="M8.4160 15.2610
L8.4320 15.2380
" />
<path d="M8.4200 16.1600
L8.4060 16.1340
" />
<path d="M8.4320 15.2380
L8.4480 15.2140
" />
<path d="M8.4360 16.1820
L8.4200 16.1600
" />
<path d="M8.4390 16.4640
L8.4740 16.4850
" />
<path d="M8.4440 14.9580
L8.4100 14.9800
" />
<path d="M8.4470 11.8950
L8.2360 11.8950
" />
<path d="M8.4470 13.5250
L8.4470 11.8950
" />
<path d="M8.4480 15.2140
L8.4640 15.1940
" />
<path d="M8.4540 16.2060
L8.4360 16.1820
" />
<path d="M8.4640 15.1940
L8.4830 15.1720
" />
<path d="M8.4710 16.2270
L8.4540 16.2060
" />
<path d="M8.4740 16.4850
L8.5120 16.5030
" />
<path d="M8.4800 14.9360
L8.4440 14.9580
" />
<path d="M8.4830 15.1720
L8.5020 15.1540
" />
<path d="M8.4900 16.2460
L8.4710 16.2270
" />
<path d="M8.5020 15.1540
L8.5220 15.1360
" />
<path d="M8.5090 16.2650
L8.4900 16.2460
" />
<path d="M8.5120 16.5030
L8.5520 16.5210
" />
<path d="M8.5160 14.9160
L8.4800 14.9360
" />
<path d="M8.5220 15.1360
L8.5420 15.1200
" />
<path d="M8.5300 16.2840
L8.5090 16.2650
" />
<path d="M8.5420 15.1200
L8.5630 15.1050
" />
<path d="M8.5520 16.2990
L8.5300 16.2840
" />
<path d="M8.5520 16.5210
L8.5940 16.5350
" />
<path d="M8.5570 14.9000
L8.5160 14.9160
" />
<path d="M8.5630 15.1050
L8.5860 15.0910
" />
<path d="M8.5730 16.3150
L8.5520 16.2990
" />
<path d="M8.5860 15.0910
L8.6100 15.0790
" />
<path d="M8.5940 16.5350
L8.6370 16.5470
" />
<path d="M8.5970 16.3280
L8.5730 16.3150
" />
<path d="M8.6000 14.8840
L8.5570 14.9000
" />
<path d="M8.6100 15.0790
L8.6320 15.0670
" />
<path d="M8.6210 16.3410
L8.5970 16.3280
" />
<path d="M8.6320 15.0670
L8.6580 15.0590
" />
<path d="M8.6370 16.5470
L8.6830 16.5580
" />
<path d="M8.6430 14.8720
L8.6000 14.8840
" />
<path d="M8.6450 16.3510
L8.6210 16.3410
" />
<path d="M8.6580 15.0590
L8.6830 15.0510
" />
<path d="M8.6710 16.3610
L8.6450 16.3510
" />
<path d="M8.6830 15.0510
L8.7090 15.0430
" />
<path d="M8.6830 16.5580
L8.7330 16.5650
" />
<path d="M8.6900 14.8620
L8.6430 14.8720
" />
<path d="M8.6960 16.3700
L8.6710 16.3610
" />
<path d="M8.6980 7.4700
L7.9090 8.6690
" />
<path d="M8.7090 15.0430
L8.7360 15.0390
" />
<path d="M8.7240 16.3760
L8.6960 16.3700
" />
<path d="M8.7320 10.5250
L9.2140 10.5250
" />
<path d="M8.7330 16.5650
L8.7830 16.5690
" />
<path d="M8.7360 15.0390
L8.7650 15.0350
" />
<path d="M8.7400 14.8550
L8.6900 14.8620
" />
<path d="M8.7510 16.3810
L8.7240 16.3760
" />
<path d="M8.7650 15.0350
L8.7920 15.0330
" />
<path d="M8.7810 16.3840
L8.7510 16.3810
" />
<path d="M8.7830 16.5690
L8.8370 16.5700
" />
<path d="M8.7910 14.8490
L8.7400 14.8550
" />
<path d="M8.7920 15.0330
L8.8230 15.0310
" />
<path d="M8.7970 11.8950
L8.7970 13.5250
" />
<path d="M8.7970 13.5250
L8.9930 13.5250
" />
<path d="M8.8100 16.3870
L8.7810 16.3840
" />
<path d="M8.8230 15.0310
L8.8690 15.0330
" />
<path d="M8.8370 16.5700
L8.8740 16.5700
" />
<path d="M8.8390 16.3870
L8.8100 16.3870
" />
<path d="M8.8470 14.8490
L8.7910 14.8490
" />
<path d="M8.8650 16.3870
L8.8390 16.3870
" />
<path d="M8.8690 15.0330
L8.9140 15.0370
" />
<path d="M8.8740 16.5700
L8.9090 16.5680
" />
<path d="M8.8790 14.8490
L8.8470 14.8490
" />
<path d="M8.8900 16.3860
L8.8650 16.3870
" />
<path d="M8.9090 16.5680
L8.9450 16.5660
" />
<path d="M8.9110 14.8510
L8.8790 14.8490
" />
<path d="M8.9130 16.3830
L8.8900 16.3860
" />
<path d="M8.9140 15.0370
L8.9350 15.0410
" />
<path d="M8.9350 15.0410
L8.9560 15.0450
" />
<path d="M8.9350 16.3800
L8.9130 16.3830
" />
<path d="M8.9430 14.8530
L8.9110 14.8510
" />
<path d="M8.9450 16.5660
L8.9780 16.5610
" />
<path d="M8.9560 15.0450
L8.9770 15.0490
" />
<path d="M8.9570 16.3770
L8.9350 16.3800
" />
<path d="M8.9720 14.8570
L8.9430 14.8530
" />
<path d="M8.9770 15.0490
L8.9960 15.0550
" />
<path d="M8.9780 16.3720
L8.9570 16.3770
" />
<path d="M8.9780 16.5610
L9.0120 16.5550
" />
<path d="M8.9930 12.2040
L9.8370 13.5250
" />
<path d="M8.9930 13.5250
L8.9930 12.2040
" />
<path d="M8.9960 15.0550
L9.0140 15.0610
" />
<path d="M8.9990 16.3660
L8.9780 16.3720
" />
<path d="M9.0020 14.8600
L8.9720 14.8570
" />
<path d="M9.0120 16.5550
L9.0420 16.5490
" />
<path d="M9.0140 15.0610
L9.0310 15.0670
" />
<path d="M9.0180 16.3580
L8.9990 16.3660
" />
<path d="M9.0230 11.8950
L8.7970 11.8950
" />
<path d="M9.0310 14.8660
L9.0020 14.8600
" />
<path d="M9.0310 15.0670
L9.0490 15.0750
" />
<path d="M9.0380 16.3500
L9.0180 16.3580
" />
<path d="M9.0420 16.5490
L9.0730 16.5390
" />
<path d="M9.0490 15.0750
L9.0650 15.0830
" />
<path d="M9.0550 16.3430
L9.0380 16.3500
" />
<path d="M9.0580 14.8720
L9.0310 14.8660
" />
<path d="M9.0650 15.0830
L9.0810 15.0910
" />
<path d="M9.0730 16.3330
L9.0550 16.3430
" />
<path d="M9.0730 16.5390
L9.1030 16.5310
" />
<path d="M9.0810 15.0910
L9.0950 15.1010
" />
<path d="M9.0860 14.8800
L9.0580 14.8720
" />
<path d="M9.0900 16.3220
L9.0730 16.3330
" />
<path d="M9.0950 15.1010
L9.1100 15.1110
" />
<path d="M9.1030 16.5310
L9.1320 16.5200
" />
<path d="M9.1070 16.3110
L9.0900 16.3220
" />
<path d="M9.1100 15.1110
L9.1240 15.1220
" />
<path d="M9.1110 14.8900
L9.0860 14.8800
" />
<path d="M9.1210 16.2980
L9.1070 16.3110
" />
<path d="M9.1240 15.1220
L9.1370 15.1340
" />
<path d="M9.1320 16.5200
L9.1590 16.5070
" />
<path d="M9.1370 14.9000
L9.1110 14.8900
" />
<path d="M9.1370 15.1340
L9.1480 15.1460
" />
<path d="M9.1370 16.2850
L9.1210 16.2980
" />
<path d="M9.1480 15.1460
L9.1610 15.1580
" />
<path d="M9.1500 16.2710
L9.1370 16.2850
" />
<path d="M9.1590 16.5070
L9.1850 16.4950
" />
<path d="M9.1610 14.9100
L9.1370 14.9000
" />
<path d="M9.1610 15.1580
L9.1720 15.1720
" />
<path d="M9.1630 7.4700
L8.6980 7.4700
" />
<path d="M9.1640 16.2550
L9.1500 16.2710
" />
<path d="M9.1720 15.1720
L9.1820 15.1860
" />
<path d="M9.1770 16.2390
L9.1640 16.2550
" />
<path d="M9.1820 15.1860
L9.1930 15.2000
" />
<path d="M9.1850 14.9220
L9.1610 14.9100
" />
<path d="M9.1850 16.4950
L9.2120 16.4800
" />
<path d="M9.1880 16.2230
L9.1770 16.2390
" />
<path d="M9.1930 15.2000
L9.2010 15.2160
" />
<path d="M9.2010 15.2160
L9.2110 15.2320
" />
<path d="M9.2010 16.2060
L9.1880 16.2230
" />
<path d="M9.2070 14.9360
L9.1850 14.9220
" />
<path d="M9.2110 15.2320
L9.2270 15.2670
" />
<path d="M9.2110 16.1860
L9.2010 16.2060
" />
<path d="M9.2120 16.4800
L9.2350 16.4650
" />
<path d="M9.2140 10.5250
L8.1310 8.9570
" />
<path d="M9.2220 16.1670
L9.2110 16.1860
" />
<path d="M9.2270 15.2670
L9.2410 15.3030
" />
<path d="M9.2300 14.9500
L9.2070 14.9360
" />
<path d="M9.2350 16.4650
L9.2590 16.4470
" />
<path d="M9.2410 15.3030
L9.2520 15.3430
" />
<path d="M9.2410 16.1240
L9.2220 16.1670
" />
<path d="M9.2510 14.9640
L9.2300 14.9500
" />
<path d="M9.2520 15.3430
L9.2620 15.3840
" />
<path d="M9.2570 16.0800
L9.2410 16.1240
" />
<path d="M9.2590 16.4470
L9.2810 16.4290
" />
<path d="M9.2620 15.3840
L9.4750 15.3840
" />
<path d="M9.2700 14.9800
L9.2510 14.9640
" />
<path d="M9.2700 16.0300
L9.2570 16.0800
" />
<path d="M9.2810 16.4290
L9.3040 16.4080
" />
<path d="M9.2830 15.9760
L9.2700 16.0300
" />
<path d="M9.2890 14.9990
L9.2700 14.9800
" />
<path d="M9.2940 15.9210
L9.2830 15.9760
" />
<path d="M9.3040 16.4080
L9.3230 16.3870
" />
<path d="M9.3070 15.0170
L9.2890 14.9990
" />
<path d="M9.3230 16.3870
L9.3440 16.3660
" />
<path d="M9.3260 15.0350
L9.3070 15.0170
" />
<path d="M9.3420 15.0570
L9.3260 15.0350
" />
<path d="M9.3440 16.3660
L9.3610 16.3430
" />
<path d="M9.3580 15.0770
L9.3420 15.0570
" />
<path d="M9.3610 16.3430
L9.3790 16.3170
" />
<path d="M9.3730 15.1010
L9.3580 15.0770
" />
<path d="M9.3790 16.3170
L9.3950 16.2910
" />
<path d="M9.3870 15.1240
L9.3730 15.1010
" />
<path d="M9.3950 16.2910
L9.4110 16.2630
" />
<path d="M9.4000 15.1480
L9.3870 15.1240
" />
<path d="M9.4110 16.2630
L9.4250 16.2360
" />
<path d="M9.4130 15.1740
L9.4000 15.1480
" />
<path d="M9.4240 15.2020
L9.4130 15.1740
" />
<path d="M9.4250 16.2360
L9.4380 16.2060
" />
<path d="M9.4350 15.2300
L9.4240 15.2020
" />
<path d="M9.4380 16.2060
L9.4510 16.1740
" />
<path d="M9.4450 15.2590
L9.4350 15.2300
" />
<path d="M9.4510 16.1740
L9.4620 16.1420
" />
<path d="M9.4530 15.2890
L9.4450 15.2590
" />
<path d="M9.4620 15.3190
L9.4530 15.2890
" />
<path d="M9.4620 16.1420
L9.4720 16.1080
" />
<path d="M9.4720 16.1080
L9.4810 16.0730
" />
<path d="M9.4750 15.3840
L9.4620 15.3190
" />
<path d="M9.4810 16.0730
L9.4900 16.0370
" />
<path d="M9.4900 16.0370
L9.4960 15.9990
" />
<path d="M9.4960 15.9990
L9.5090 15.9210
" />
<path d="M9.5090 15.9210
L9.2940 15.9210
" />
<path d="M9.6980 14.8940
L9.6980 15.0890
" />
<path d="M9.6980 15.0890
L10.5550 15.0890
" />
<path d="M9.7360 7.4700
L9.7360 10.5250
" />
<path d="M9.7360 10.5250
L10.1290 10.5250
" />
<path d="M9.8370 13.5250
L10.0710 13.5250
" />
<path d="M9.8740 11.8950
L9.8740 13.2270
" />
<path d="M9.8740 13.2270
L9.0230 11.8950
" />
<path d="M9.9030 16.5250
L10.1130 16.5250
" />
<path d="M9.9270 16.4250
L9.9030 16.5250
" />
<path d="M9.9510 16.3300
L9.9270 16.4250
" />
<path d="M9.9750 16.2390
L9.9510 16.3300
" />
<path d="M10.0020 16.1520
L9.9750 16.2390
" />
<path d="M10.0310 16.0650
L10.0020 16.1520
" />
<path d="M10.0620 15.9800
L10.0310 16.0650
" />
<path d="M10.0710 11.8950
L9.8740 11.8950
" />
<path d="M10.0710 13.5250
L10.0710 11.8950
" />
<path d="M10.0950 15.8970
L10.0620 15.9800
" />
<path d="M10.1130 16.5250
L10.1320 16.4260
" />
<path d="M10.1290 7.4700
L9.7360 7.4700
" />
<path d="M10.1290 10.5250
L10.1290 7.4700
" />
<path d="M10.1320 15.8140
L10.0950 15.8970
" />
<path d="M10.1320 16.4260
L10.1510 16.3300
" />
<path d="M10.1510 16.3300
L10.1750 16.2360
" />
<path d="M10.1720 15.7300
L10.1320 15.8140
" />
<path d="M10.1750 16.2360
L10.2010 16.1440
" />
<path d="M10.2010 16.1440
L10.2300 16.0510
" />
<path d="M10.2140 15.6470
L10.1720 15.7300
" />
<path d="M10.2300 16.0510
L10.2620 15.9600
" />
<path d="M10.2590 15.5610
L10.2140 15.6470
" />
<path d="M10.2620 15.9600
L10.2970 15.8690
" />
<path d="M10.2970 15.8690
L10.3340 15.7800
" />
<path d="M10.3100 15.4720
L10.2590 15.5610
" />
<path d="M10.3150 11.8950
L10.3150 12.0790
" />
<path d="M10.3150 12.0790
L10.8500 12.0790
" />
<path d="M10.3340 15.7800
L10.3760 15.6910
" />
<path d="M10.3640 15.3820
L10.3100 15.4720
" />
<path d="M10.3760 15.6910
L10.4190 15.6010
" />
<path d="M10.4190 15.6010
L10.4670 15.5110
" />
<path d="M10.4220 15.2890
L10.3640 15.3820
" />
<path d="M10.4670 15.5110
L10.5180 15.4220
" />
<path d="M10.5180 15.4220
L10.5730 15.3330
" />
<path d="M10.5550 15.0890
L10.4220 15.2890
" />
<path d="M10.5730 15.3330
L10.6300 15.2420
" />
<path d="M10.6300 15.2420
L10.6930 15.1520
" />
<path d="M10.6930 15.1520
L10.7570 15.0610
" />
<path d="M10.7570 14.8940
L9.6980 14.8940
" />
<path d="M10.7570 15.0610
L10.7570 14.8940
" />
<path d="M10.7860 7.4700
L10.7860 10.5250
" />
<path d="M10.7860 10.5250
L12.6830 10.5250
" />
<path d="M10.8500 12.0790
L10.8500 13.5250
" />
<path d="M10.8500 13.5250
L11.0580 13.5250
" />
<path d="M11.0310 14.8940
L11.0310 16.5250
" />
<path d="M11.0310 16.5250
L11.2380 16.5250
" />
<path d="M11.0580 12.0790
L11.5920 12.0790
" />
<path d="M11.0580 13.5250
L11.0580 12.0790
" />
<path d="M11.1750 7.4700
L10.7860 7.4700
" />
<path d="M11.1750 10.1820
L11.1750 7.4700
" />
<path d="M11.2380 14.8940
L11.0310 14.8940
" />
<path d="M11.2380 15.7190
L11.2380 14.8940
" />
<path d="M11.2380 15.9540
L11.5050 15.6890
" />
<path d="M11.2380 16.5250
L11.2380 15.9540
" />
<path d="M11.5050 15.6890
L12.0790 16.5250
" />
<path d="M11.5920 11.8950
L10.3150 11.8950
" />
<path d="M11.5920 12.0790
L11.5920 11.8950
" />
<path d="M11.6540 15.5590
L12.3180 14.8940
" />
<path d="M11.8230 11.8950
L11.8230 13.5250
" />
<path d="M11.8230 13.5250
L12.9900 13.5250
" />
<path d="M12.0310 12.0790
L12.9500 12.0790
" />
<path d="M12.0310 12.5970
L12.0310 12.0790
" />
<path d="M12.0310 12.7790
L12.9170 12.7790
" />
<path d="M12.0310 13.3410
L12.0310 12.7790
" />
<path d="M12.0490 14.8940
L11.2380 15.7190
" />
<path d="M12.0790 16.5250
L12.3240 16.5250
" />
<path d="M12.3180 14.8940
L12.0490 14.8940
" />
<path d="M12.3240 16.5250
L11.6540 15.5590
" />
<path d="M12.4040 15.9340
L12.4040 16.1430
" />
<path d="M12.4040 16.1430
L13.0730 16.1430
" />
<path d="M12.5770 15.9650
L13.0730 15.2450
" />
<path d="M12.6830 10.1820
L11.1750 10.1820
" />
<path d="M12.6830 10.5250
L12.6830 10.1820
" />
<path d="M12.9170 12.5970
L12.0310 12.5970
" />
<path d="M12.9170 12.7790
L12.9170 12.5970
" />
<path d="M12.9500 11.8950
L11.8230 11.8950
" />
<path d="M12.9500 12.0790
L12.9500 11.8950
" />
<path d="M12.9900 13.3410
L12.0310 13.3410
" />
<path d="M12.9900 13.5250
L12.9900 13.3410
" />
<path d="M13.0730 15.2450
L13.0730 15.9650
" />
<path d="M13.0730 15.9650
L12.5770 15.9650
" />
<path d="M13.0730 16.1430
L13.0730 16.5250
" />
<path d="M13.0730 16.5250
L13.2680 16.5250
" />
<path d="M13.0740 13.5250
L13.3270 13.5250
" />
<path d="M13.1100 11.8950
L13.6500 12.6880
" />
<path d="M13.1250 14.8940
L12.4040 15.9340
" />
<path d="M13.2270 7.4700
L13.2270 10.5250
" />
<path d="M13.2270 10.5250
L13.6210 10.5250
" />
<path d="M13.2680 14.8940
L13.1250 14.8940
" />
<path d="M13.2680 15.9650
L13.2680 14.8940
" />
<path d="M13.2680 16.1430
L13.5040 16.1430
" />
<path d="M13.2680 16.5250
L13.2680 16.1430
" />
<path d="M13.3270 13.5250
L13.7720 12.8450
" />
<path d="M13.3610 11.8950
L13.1100 11.8950
" />
<path d="M13.5040 15.9650
L13.2680 15.9650
" />
<path d="M13.5040 16.1430
L13.5040 15.9650
" />
<path d="M13.6210 7.4700
L13.2270 7.4700
" />
<path d="M13.6210 10.5250
L13.6210 7.4700
" />
<path d="M13.6500 12.6880
L13.0740 13.5250
" />
<path d="M13.7720 12.8450
L14.2180 13.5250
" />
<path d="M13.7790 12.5340
L13.3610 11.8950
" />
<path d="M13.8270 15.2200
L13.8270 15.3610
" />
<path d="M13.8270 15.3610
L14.1780 15.3610
" />
<path d="M13.8800 15.2140
L13.8270 15.2200
" />
<path d="M13.8970 12.6880
L14.4480 11.8950
" />
<path d="M13.9280 15.2060
L13.8800 15.2140
" />
<path d="M13.9730 15.1980
L13.9280 15.2060
" />
<path d="M14.0100 15.1880
L13.9730 15.1980
" />
<path d="M14.0280 15.1840
L14.0100 15.1880
" />
<path d="M14.0450 15.1780
L14.0280 15.1840
" />
<path d="M14.0600 15.1720
L14.0450 15.1780
" />
<path d="M14.0740 15.1660
L14.0600 15.1720
" />
<path d="M14.0880 15.1600
L14.0740 15.1660
" />
<path d="M14.1010 15.1540
L14.0880 15.1600
" />
<path d="M14.1130 15.1460
L14.1010 15.1540
" />
<path d="M14.1230 15.1380
L14.1130 15.1460
" />
<path d="M14.1340 15.1280
L14.1230 15.1380
" />
<path d="M14.1430 15.1200
L14.1340 15.1280
" />
<path d="M14.1530 15.1090
L14.1430 15.1200
" />
<path d="M14.1620 15.0990
L14.1530 15.1090
" />
<path d="M14.1700 15.0870
L14.1620 15.0990
" />
<path d="M14.1780 15.0750
L14.1700 15.0870
" />
<path d="M14.1780 15.3610
L14.1780 16.5250
" />
<path d="M14.1780 16.5250
L14.3750 16.5250
" />
<path d="M14.1860 15.0610
L14.1780 15.0750
" />
<path d="M14.1930 15.0470
L14.1860 15.0610
" />
<path d="M14.1990 11.8950
L13.7790 12.5340
" />
<path d="M14.1990 15.0310
L14.1930 15.0470
" />
<path d="M14.2060 15.0150
L14.1990 15.0310
" />
<path d="M14.2180 13.5250
L14.4750 13.5250
" />
<path d="M14.2180 14.9800
L14.2060 15.0150
" />
<path d="M14.2310 14.9400
L14.2180 14.9800
" />
<path d="M14.2440 14.8940
L14.2310 14.9400
" />
<path d="M14.2760 7.4700
L14.2760 10.5250
" />
<path d="M14.2760 10.5250
L14.6460 10.5250
" />
<path d="M14.3750 14.8940
L14.2440 14.8940
" />
<path d="M14.3750 16.5250
L14.3750 14.8940
" />
<path d="M14.4480 11.8950
L14.1990 11.8950
" />
<path d="M14.4750 13.5250
L13.8970 12.6880
" />
<path d="M14.6320 12.8250
L14.6320 12.9880
" />
<path d="M14.6320 12.9880
L15.1700 12.9880
" />
<path d="M14.6460 8.0500
L16.2250 10.5250
" />
<path d="M14.6460 10.5250
L14.6460 8.0500
" />
<path d="M14.7000 7.4700
L14.2760 7.4700
" />
<path d="M14.9520 15.6680
L14.9520 15.7320
" />
<path d="M14.9520 15.7320
L14.9540 15.8320
" />
<path d="M14.9540 15.8320
L14.9600 15.9270
" />
<path d="M14.9560 15.6050
L14.9520 15.6680
" />
<path d="M14.9600 15.5470
L14.9560 15.6050
" />
<path d="M14.9600 15.9270
L14.9700 16.0150
" />
<path d="M14.9640 15.4920
L14.9600 15.5470
" />
<path d="M14.9700 16.0150
L14.9840 16.0960
" />
<path d="M14.9720 15.4400
L14.9640 15.4920
" />
<path d="M14.9800 15.3900
L14.9720 15.4400
" />
<path d="M14.9840 16.0960
L15.0030 16.1720
" />
<path d="M14.9910 15.3430
L14.9800 15.3900
" />
<path d="M15.0010 15.3010
L14.9910 15.3430
" />
<path d="M15.0030 16.1720
L15.0250 16.2390
" />
<path d="M15.0130 15.2590
L15.0010 15.3010
" />
<path d="M15.0250 16.2390
L15.0530 16.3030
" />
<path d="M15.0270 15.2220
L15.0130 15.2590
" />
<path d="M15.0410 15.1860
L15.0270 15.2220
" />
<path d="M15.0530 16.3030
L15.0830 16.3580
" />
<path d="M15.0570 15.1540
L15.0410 15.1860
" />
<path d="M15.0730 15.1240
L15.0570 15.1540
" />
<path d="M15.0830 16.3580
L15.0990 16.3830
" />
<path d="M15.0910 15.0950
L15.0730 15.1240
" />
<path d="M15.0990 16.3830
L15.1180 16.4070
" />
<path d="M15.1090 15.0690
L15.0910 15.0950
" />
<path d="M15.1180 16.4070
L15.1360 16.4300
" />
<path d="M15.1280 15.0450
L15.1090 15.0690
" />
<path d="M15.1360 16.4300
L15.1560 16.4510
" />
<path d="M15.1480 15.0250
L15.1280 15.0450
" />
<path d="M15.1520 15.7340
L15.1540 15.6550
" />
<path d="M15.1520 15.7770
L15.1520 15.7340
" />
<path d="M15.1540 15.6550
L15.1580 15.5780
" />
<path d="M15.1540 15.8170
L15.1520 15.7770
" />
<path d="M15.1560 15.8540
L15.1540 15.8170
" />
<path d="M15.1560 16.4510
L15.1780 16.4700
" />
<path d="M15.1580 15.5780
L15.1640 15.5090
" />
<path d="M15.1580 15.8930
L15.1560 15.8540
" />
<path d="M15.1600 15.9290
L15.1580 15.8930
" />
<path d="M15.1640 15.5090
L15.1720 15.4420
" />
<path d="M15.1640 15.9630
L15.1600 15.9290
" />
<path d="M15.1680 15.0050
L15.1480 15.0250
" />
<path d="M15.1680 15.9960
L15.1640 15.9630
" />
<path d="M15.1700 12.8250
L14.6320 12.8250
" />
<path d="M15.1700 12.9880
L15.1700 12.8250
" />
<path d="M15.1720 15.4420
L15.1840 15.3840
" />
<path d="M15.1720 16.0290
L15.1680 15.9960
" />
<path d="M15.1780 16.0590
L15.1720 16.0290
" />
<path d="M15.1780 16.4700
L15.1980 16.4880
" />
<path d="M15.1840 15.3840
L15.1960 15.3290
" />
<path d="M15.1840 16.0900
L15.1780 16.0590
" />
<path d="M15.1880 14.9880
L15.1680 15.0050
" />
<path d="M15.1900 16.1170
L15.1840 16.0900
" />
<path d="M15.1960 15.3290
L15.2120 15.2790
" />
<path d="M15.1960 16.1450
L15.1900 16.1170
" />
<path d="M15.1980 16.4880
L15.2220 16.5030
" />
<path d="M15.2040 16.1710
L15.1960 16.1450
" />
<path d="M15.2080 14.9720
L15.1880 14.9880
" />
<path d="M15.2120 15.2790
L15.2320 15.2340
" />
<path d="M15.2120 16.1940
L15.2040 16.1710
" />
<path d="M15.2220 16.2180
L15.2120 16.1940
" />
<path d="M15.2220 16.5030
L15.2450 16.5180
" />
<path d="M15.2300 14.9580
L15.2080 14.9720
" />
<path d="M15.2300 16.2390
L15.2220 16.2180
" />
<path d="M15.2320 15.2340
L15.2530 15.1960
" />
<path d="M15.2420 16.2590
L15.2300 16.2390
" />
<path d="M15.2450 16.5180
L15.2690 16.5300
" />
<path d="M15.2510 14.9460
L15.2300 14.9580
" />
<path d="M15.2510 16.2790
L15.2420 16.2590
" />
<path d="M15.2530 15.1960
L15.2770 15.1620
" />
<path d="M15.2630 16.2960
L15.2510 16.2790
" />
<path d="M15.2690 16.5300
L15.2950 16.5410
" />
<path d="M15.2730 14.9340
L15.2510 14.9460
" />
<path d="M15.2750 16.3130
L15.2630 16.2960
" />
<path d="M15.2770 15.1620
L15.2890 15.1480
" />
<path d="M15.2870 16.3270
L15.2750 16.3130
" />
<path d="M15.2890 15.1480
L15.3030 15.1340
" />
<path d="M15.2950 14.9260
L15.2730 14.9340
" />
<path d="M15.2950 16.5410
L15.3230 16.5500
" />
<path d="M15.3010 16.3420
L15.2870 16.3270
" />
<path d="M15.3030 15.1340
L15.3170 15.1220
" />
<path d="M15.3150 16.3540
L15.3010 16.3420
" />
<path d="M15.3170 14.9180
L15.2950 14.9260
" />
<path d="M15.3170 15.1220
L15.3310 15.1110
" />
<path d="M15.3230 16.5500
L15.3490 16.5580
" />
<path d="M15.3290 16.3660
L15.3150 16.3540
" />
<path d="M15.3310 15.1110
L15.3450 15.1010
" />
<path d="M15.3390 14.9100
L15.3170 14.9180
" />
<path d="M15.3430 16.3760
L15.3290 16.3660
" />
<path d="M15.3450 15.1010
L15.3610 15.0930
" />
<path d="M15.3490 16.5580
L15.3780 16.5620
" />
<path d="M15.3590 16.3830
L15.3430 16.3760
" />
<path d="M15.3610 14.9060
L15.3390 14.9100
" />
<path d="M15.3610 15.0930
L15.3780 15.0850
" />
<path d="M15.3760 16.3900
L15.3590 16.3830
" />
<path d="M15.3780 11.8950
L15.3780 12.0890
" />
<path d="M15.3780 12.0890
L16.2340 12.0890
" />
<path d="M15.3780 15.0850
L15.3960 15.0790
" />
<path d="M15.3780 16.5620
L15.4080 16.5680
" />
<path d="M15.3840 14.9020
L15.3610 14.9060
" />
<path d="M15.3920 16.3970
L15.3760 16.3900
" />
<path d="M15.3960 15.0790
L15.4120 15.0750
" />
<path d="M15.4080 16.5680
L15.4380 16.5690
" />
<path d="M15.4100 16.4020
L15.3920 16.3970
" />
<path d="M15.4120 15.0750
L15.4320 15.0710
" />
<path d="M15.4280 14.8960
L15.3840 14.9020
" />
<path d="M15.4280 16.4050
L15.4100 16.4020
" />
<path d="M15.4320 15.0710
L15.4500 15.0690
" />
<path d="M15.4380 16.5690
L15.4700 16.5700
" />
<path d="M15.4460 16.4060
L15.4280 16.4050
" />
<path d="M15.4500 15.0690
L15.4700 15.0690
" />
<path d="M15.4660 16.4070
L15.4460 16.4060
" />
<path d="M15.4700 14.8940
L15.4280 14.8960
" />
<path d="M15.4700 15.0690
L15.4900 15.0710
" />
<path d="M15.4700 16.5700
L15.5010 16.5690
" />
<path d="M15.4900 15.0710
L15.5070 15.0730
" />
<path d="M15.5010 16.5690
L15.5310 16.5680
" />
<path d="M15.5050 14.8960
L15.4700 14.8940
" />
<path d="M15.5050 16.4050
L15.4660 16.4070
" />
<path d="M15.5070 15.0730
L15.5270 15.0750
" />
<path d="M15.5230 16.4020
L15.5050 16.4050
" />
<path d="M15.5270 15.0750
L15.5450 15.0790
" />
<path d="M15.5310 16.5680
L15.5600 16.5630
" />
<path d="M15.5410 14.9000
L15.5050 14.8960
" />
<path d="M15.5420 16.3980
L15.5230 16.4020
" />
<path d="M15.5450 15.0790
L15.5620 15.0850
" />
<path d="M15.5600 16.3910
L15.5420 16.3980
" />
<path d="M15.5600 16.5630
L15.5870 16.5580
" />
<path d="M15.5620 15.0850
L15.5770 15.0930
" />
<path d="M15.5730 14.9040
L15.5410 14.9000
" />
<path d="M15.5760 16.3840
L15.5600 16.3910
" />
<path d="M15.5770 15.0930
L15.5930 15.1010
" />
<path d="M15.5820 13.5250
L15.7930 13.5250
" />
<path d="M15.5870 16.5580
L15.6150 16.5500
" />
<path d="M15.5920 16.3770
L15.5760 16.3840
" />
<path d="M15.5930 15.1010
L15.6080 15.1110
" />
<path d="M15.6040 13.4250
L15.5820 13.5250
" />
<path d="M15.6040 14.9120
L15.5730 14.9040
" />
<path d="M15.6070 16.3670
L15.5920 16.3770
" />
<path d="M15.6080 15.1110
L15.6230 15.1220
" />
<path d="M15.6150 16.5500
L15.6420 16.5410
" />
<path d="M15.6220 16.3550
L15.6070 16.3670
" />
<path d="M15.6230 15.1220
L15.6380 15.1340
" />
<path d="M15.6290 13.3310
L15.6040 13.4250
" />
<path d="M15.6350 14.9220
L15.6040 14.9120
" />
<path d="M15.6370 16.3440
L15.6220 16.3550
" />
<path d="M15.6380 15.1340
L15.6510 15.1480
" />
<path d="M15.6420 16.5410
L15.6680 16.5300
" />
<path d="M15.6510 15.1480
L15.6640 15.1620
" />
<path d="M15.6510 16.3290
L15.6370 16.3440
" />
<path d="M15.6540 13.2390
L15.6290 13.3310
" />
<path d="M15.6640 14.9320
L15.6350 14.9220
" />
<path d="M15.6640 15.1620
L15.6760 15.1780
" />
<path d="M15.6640 16.3150
L15.6510 16.3290
" />
<path d="M15.6680 16.5300
L15.6920 16.5180
" />
<path d="M15.6760 15.1780
L15.6870 15.1960
" />
<path d="M15.6810 13.1510
L15.6540 13.2390
" />
<path d="M15.6870 15.1960
L15.6970 15.2140
" />
<path d="M15.6880 16.2810
L15.6640 16.3150
" />
<path d="M15.6910 14.9460
L15.6640 14.9320
" />
<path d="M15.6920 16.5180
L15.7150 16.5030
" />
<path d="M15.6970 15.2140
L15.7070 15.2340
" />
<path d="M15.7070 15.2340
L15.7170 15.2550
" />
<path d="M15.7080 16.2410
L15.6880 16.2810
" />
<path d="M15.7090 13.0650
L15.6810 13.1510
" />
<path d="M15.7150 16.5030
L15.7380 16.4880
" />
<path d="M15.7160 14.9620
L15.6910 14.9460
" />
<path d="M15.7170 15.2550
L15.7260 15.2790
" />
<path d="M15.7260 15.2790
L15.7340 15.3030
" />
<path d="M15.7260 16.1970
L15.7080 16.2410
" />
<path d="M15.7340 15.3030
L15.7420 15.3270
" />
<path d="M15.7380 16.4880
L15.7610 16.4710
" />
<path d="M15.7400 12.9810
L15.7090 13.0650
" />
<path d="M15.7400 14.9780
L15.7160 14.9620
" />
<path d="M15.7420 15.3270
L15.7490 15.3530
" />
<path d="M15.7430 16.1470
L15.7260 16.1970
" />
<path d="M15.7490 15.3530
L15.7570 15.3820
" />
<path d="M15.7570 15.3820
L15.7630 15.4100
" />
<path d="M15.7570 16.0920
L15.7430 16.1470
" />
<path d="M15.7610 16.4710
L15.7810 16.4520
" />
<path d="M15.7630 15.4100
L15.7680 15.4400
" />
<path d="M15.7650 14.9970
L15.7400 14.9780
" />
<path d="M15.7680 15.4400
L15.7730 15.4720
" />
<path d="M15.7680 16.0300
L15.7570 16.0920
" />
<path d="M15.7730 15.4720
L15.7770 15.5050
" />
<path d="M15.7750 12.8960
L15.7400 12.9810
" />
<path d="M15.7770 15.5050
L15.7800 15.5390
" />
<path d="M15.7770 15.9630
L15.7680 16.0300
" />
<path d="M15.7800 15.5390
L15.7830 15.5740
" />
<path d="M15.7810 16.4520
L15.8010 16.4310
" />
<path d="M15.7830 15.5740
L15.7850 15.6100
" />
<path d="M15.7830 15.8910
L15.7770 15.9630
" />
<path d="M15.7850 15.6100
L15.7870 15.6490
" />
<path d="M15.7860 15.0170
L15.7650 14.9970
" />
<path d="M15.7870 15.6490
L15.7870 15.6880
" />
<path d="M15.7870 15.6880
L15.7880 15.7280
" />
<path d="M15.7870 15.8130
L15.7830 15.8910
" />
<path d="M15.7880 15.7280
L15.7870 15.8130
" />
<path d="M15.7930 13.5250
L15.8110 13.4270
" />
<path d="M15.8010 16.4310
L15.8200 16.4080
" />
<path d="M15.8070 15.0390
L15.7860 15.0170
" />
<path d="M15.8110 12.8130
L15.7750 12.8960
" />
<path d="M15.8110 13.4270
L15.8300 13.3310
" />
<path d="M15.8200 16.4080
L15.8370 16.3850
" />
<path d="M15.8250 15.0630
L15.8070 15.0390
" />
<path d="M15.8300 13.3310
L15.8530 13.2360
" />
<path d="M15.8370 16.3850
L15.8540 16.3590
" />
<path d="M15.8430 15.0890
L15.8250 15.0630
" />
<path d="M15.8490 12.7310
L15.8110 12.8130
" />
<path d="M15.8530 13.2360
L15.8790 13.1430
" />
<path d="M15.8540 16.3590
L15.8700 16.3330
" />
<path d="M15.8600 15.1150
L15.8430 15.0890
" />
<path d="M15.8700 16.3330
L15.8860 16.3050
" />
<path d="M15.8760 15.1420
L15.8600 15.1150
" />
<path d="M15.8790 13.1430
L15.9090 13.0520
" />
<path d="M15.8860 16.3050
L15.9000 16.2750
" />
<path d="M15.8930 12.6460
L15.8490 12.7310
" />
<path d="M15.9000 16.2750
L15.9130 16.2430
" />
<path d="M15.9050 15.2040
L15.8760 15.1420
" />
<path d="M15.9090 13.0520
L15.9410 12.9610
" />
<path d="M15.9130 16.2430
L15.9250 16.2110
" />
<path d="M15.9250 16.2110
L15.9360 16.1750
" />
<path d="M15.9280 15.2690
L15.9050 15.2040
" />
<path d="M15.9360 16.1750
L15.9460 16.1390
" />
<path d="M15.9390 12.5610
L15.8930 12.6460
" />
<path d="M15.9410 12.9610
L15.9750 12.8690
" />
<path d="M15.9460 16.1390
L15.9540 16.1020
" />
<path d="M15.9470 15.3390
L15.9280 15.2690
" />
<path d="M15.9540 16.1020
L15.9620 16.0620
" />
<path d="M15.9620 15.4140
L15.9470 15.3390
" />
<path d="M15.9620 16.0620
L15.9680 16.0220
" />
<path d="M15.9680 16.0220
L15.9740 15.9790
" />
<path d="M15.9730 15.4920
L15.9620 15.4140
" />
<path d="M15.9740 15.9790
L15.9790 15.9370
" />
<path d="M15.9750 12.8690
L16.0140 12.7790
" />
<path d="M15.9790 15.9370
L15.9830 15.8910
" />
<path d="M15.9810 15.5730
L15.9730 15.4920
" />
<path d="M15.9830 15.8910
L15.9850 15.8440
" />
<path d="M15.9850 15.8440
L15.9870 15.7970
" />
<path d="M15.9860 15.6590
L15.9810 15.5730
" />
<path d="M15.9870 15.7460
L15.9860 15.6590
" />
<path d="M15.9870 15.7970
L15.9870 15.7460
" />
<path d="M15.9880 12.4720
L15.9390 12.5610
" />
<path d="M16.0140 12.7790
L16.0540 12.6910
" />
<path d="M16.0430 12.3820
L15.9880 12.4720
" />
<path d="M16.0540 12.6910
L16.0990 12.6020
" />
<path d="M16.0990 12.6020
L16.1470 12.5120
" />
<path d="M16.1020 12.2890
L16.0430 12.3820
" />
<path d="M16.1470 12.5120
L16.1970 12.4220
" />
<path d="M16.1790 14.8940
L16.1790 15.0790
" />
<path d="M16.1790 15.0790
L16.7150 15.0790
" />
<path d="M16.1970 12.4220
L16.2510 12.3320
" />
<path d="M16.2250 10.5250
L16.6650 10.5250
" />
<path d="M16.2340 12.0890
L16.1020 12.2890
" />
<path d="M16.2510 12.3320
L16.3100 12.2430
" />
<path d="M16.2950 7.4700
L16.2950 9.9670
" />
<path d="M16.2950 9.9670
L14.7000 7.4700
" />
<path d="M16.3100 12.2430
L16.3710 12.1530
" />
<path d="M16.3710 12.1530
L16.4370 12.0600
" />
<path d="M16.4370 11.8950
L15.3780 11.8950
" />
<path d="M16.4370 12.0600
L16.4370 11.8950
" />
<path d="M16.6650 7.4700
L16.2950 7.4700
" />
<path d="M16.6650 10.5250
L16.6650 7.4700
" />
<path d="M16.7150 15.0790
L16.7150 16.5250
" />
<path d="M16.7150 16.5250
L16.9240 16.5250
" />
<path d="M16.9240 15.0790
L17.4580 15.0790
" />
<path d="M16.9240 16.5250
L16.9240 15.0790
" />
<path d="M17.0600 10.5250
L17.5320 10.5250
" />
<path d="M17.1260 7.4700
L18.1390 8.9570
" />
<path d="M17.4580 14.8940
L16.1790 14.8940
" />
<path d="M17.4580 15.0790
L17.4580 14.8940
" />
<path d="M17.5320 10.5250
L18.3690 9.2510
" />
<path d="M17.5990 7.4700
L17.1260 7.4700
" />
<path d="M18.1390 8.9570
L17.0600 10.5250
" />
<path d="M18.3690 9.2510
L19.2050 10.5250
" />
<path d="M18.3830 8.6690
L17.5990 7.4700
" />
<path d="M18.6050 8.9570
L19.6360 7.4700
" />
<path d="M19.1700 7.4700
L18.3830 8.6690
" />
<path d="M19.2050 10.5250
L19.6850 10.5250
" />
<path d="M19.6360 7.4700
L19.1700 7.4700
" />
<path d="M19.6850 10.5250
L18.6050 8.9570
" />
<path d="M30.2230 2.8240
L30.2230 30.2230
" />
<path d="M30.2230 30.2230
L2.8240 30.2230
" />
<path d="M30.7230 2.3240
L30.2230 2.8240
" />
<path d="M30.7230 2.3240
L30.7230 30.7230
" />
<path d="M30.7230 30.7230
L2.3240 30.7230
" />
<path d="M30.7230 30.7230
L30.2230 30.2230
" />
<path d="M32.0240 1.0250
L32.0240 32.0240
" />
<path d="M32.0240 32.0240
L1.0250 32.0240
" />
</g> 
</svg>
