{
  "accessors": [
    {
      "bufferView": 0,
      "byteOffset": 0,
      "componentType": 5126,
      "normalized": false,
      "count": 660,
      "type": "VEC3",
      "max": [
        0.7682411670684814,
        0.7887833118438721,
        1.0549975633621216
      ],
      "min": [
        -0.756736159324646,
        -0.036193933337926865,
        -1.0450025796890259
      ]
    },
    {
      "bufferView": 0,
      "byteOffset": 12,
      "componentType": 5126,
      "normalized": false,
      "count": 660,
      "type": "VEC3"
    },
    {
      "bufferView": 0,
      "byteOffset": 24,
      "componentType": 5126,
      "normalized": false,
      "count": 660,
      "type": "VEC2"
    },
    {
      "bufferView": 0,
      "byteOffset": 32,
      "componentType": 5126,
      "normalized": false,
      "count": 660,
      "type": "VEC2"
    },
    {
      "bufferView": 1,
      "byteOffset": 0,
      "componentType": 5123,
      "normalized": false,
      "count": 1680,
      "type": "SCALAR"
    },
    {
      "bufferView": 1,
      "byteOffset": 3360,
      "componentType": 5123,
      "normalized": false,
      "count": 450,
      "type": "SCALAR"
    },
    {
      "bufferView": 1,
      "byteOffset": 4260,
      "componentType": 5123,
      "normalized": false,
      "count": 42,
      "type": "SCALAR"
    },
    {
      "bufferView": 2,
      "byteOffset": 0,
      "componentType": 5126,
      "normalized": false,
      "count": 226,
      "type": "VEC3",
      "max": [
        1.0057638883590698,
        0.9137634634971619,
        0.6299517154693604
      ],
      "min": [
        -0.9942361116409302,
        0.013806137256324291,
        -0.6200025081634521
      ]
    },
    {
      "bufferView": 2,
      "byteOffset": 12,
      "componentType": 5126,
      "normalized": false,
      "count": 226,
      "type": "VEC3"
    },
    {
      "bufferView": 2,
      "byteOffset": 24,
      "componentType": 5126,
      "normalized": false,
      "count": 226,
      "type": "VEC2"
    },
    {
      "bufferView": 2,
      "byteOffset": 32,
      "componentType": 5126,
      "normalized": false,
      "count": 226,
      "type": "VEC2"
    },
    {
      "bufferView": 3,
      "byteOffset": 0,
      "componentType": 5126,
      "normalized": false,
      "count": 16,
      "type": "VEC3",
      "max": [
        -0.6538364291191101,
        0.8977736830711365,
        0.46331003308296204
      ],
      "min": [
        -0.8087462186813354,
        0.8977736830711365,
        0.3084002435207367
      ]
    },
    {
      "bufferView": 3,
      "byteOffset": 12,
      "componentType": 5126,
      "normalized": false,
      "count": 16,
      "type": "VEC3"
    },
    {
      "bufferView": 3,
      "byteOffset": 24,
      "componentType": 5126,
      "normalized": false,
      "count": 16,
      "type": "VEC2"
    },
    {
      "bufferView": 3,
      "byteOffset": 32,
      "componentType": 5126,
      "normalized": false,
      "count": 16,
      "type": "VEC2"
    }
  ],
  "asset": {
    "generator": "pygltflib@v1.16.5",
    "version": "2.0"
  },
  "bufferViews": [
    {
      "buffer": 0,
      "byteOffset": 0,
      "byteLength": 26400,
      "byteStride": 40,
      "target": 34962
    },
    {
      "buffer": 0,
      "byteOffset": 26400,
      "byteLength": 4344,
      "target": 34963
    },
    {
      "buffer": 0,
      "byteOffset": 30744,
      "byteLength": 9040,
      "byteStride": 40,
      "target": 34962
    },
    {
      "buffer": 0,
      "byteOffset": 39784,
      "byteLength": 640,
      "byteStride": 40,
      "target": 34962
    }
  ],
  "buffers": [
    {
      "uri": "SOT-353.bin",
      "byteLength": 40424
    }
  ],
  "extensionsUsed": [
    "KHR_materials_clearcoat",
    "KHR_materials_ior",
    "KHR_materials_sheen",
    "KHR_materials_specular",
    "KHR_materials_transmission",
    "KHR_texture_basisu"
  ],
  "extensionsRequired": [
    "KHR_texture_basisu"
  ],
  "images": [
    {
      "uri": "../../shared_textures/metal_pins_normal256.ktx2",
      "mimeType": "image/ktx2",
      "name": "metal_pins_normal256"
    },
    {
      "uri": "../../shared_textures/metal_pins_color256.ktx2",
      "mimeType": "image/ktx2",
      "name": "metal_pins_color256"
    },
    {
      "uri": "../../shared_textures/plastic_chip_normal256.ktx2",
      "mimeType": "image/ktx2",
      "name": "plastic_chip_normal256"
    },
    {
      "uri": "../../shared_textures/white_markings_normal256.ktx2",
      "mimeType": "image/ktx2",
      "name": "white_markings_normal256"
    },
    {
      "uri": "../../shared_textures/white_markings_color256.ktx2",
      "mimeType": "image/ktx2",
      "name": "white_markings_color256"
    }
  ],
  "materials": [
    {
      "extensions": {
        "KHR_materials_ior": {
          "ior": 1.4500000476837158
        },
        "KHR_materials_specular": {
          "specularFactor": 0
        }
      },
      "pbrMetallicRoughness": {
        "baseColorFactor": [
          1.0,
          1.0,
          1.0,
          1.0
        ],
        "metallicFactor": 0.7818182110786438,
        "roughnessFactor": 0.28863638639450073,
        "baseColorTexture": {
          "index": 0,
          "texCoord": 0
        }
      },
      "normalTexture": {
        "index": 1,
        "scale": 1.0
      },
      "emissiveFactor": [
        0.0,
        0.0,
        0.0
      ],
      "alphaMode": "OPAQUE",
      "doubleSided": true,
      "name": "gltf_metal_pins"
    },
    {
      "pbrMetallicRoughness": {
        "baseColorFactor": [
          0.009133999235928059,
          0.009134066291153431,
          0.009134061634540558,
          1.0
        ],
        "metallicFactor": 0.13699999451637268,
        "roughnessFactor": 0.37063413858413696
      },
      "normalTexture": {
        "index": 2,
        "scale": 1.0
      },
      "emissiveFactor": [
        0.0,
        0.0,
        0.0
      ],
      "alphaMode": "OPAQUE",
      "doubleSided": true,
      "name": "gltf_plastic_chip"
    },
    {
      "extensions": {
        "KHR_materials_clearcoat": {
          "clearcoatFactor": 0,
          "clearcoatRoughnessFactor": 0.67090904712677
        },
        "KHR_materials_ior": {
          "ior": 1.4500000476837158
        },
        "KHR_materials_sheen": {
          "sheenColorFactor": [
            1,
            1,
            1
          ],
          "sheenRoughnessFactor": 0.5
        },
        "KHR_materials_specular": {
          "specularColorFactor": [
            1.3181817531585693,
            1.3181817531585693,
            1.3181817531585693
          ]
        },
        "KHR_materials_transmission": {
          "transmissionFactor": 0.23181819915771484
        }
      },
      "pbrMetallicRoughness": {
        "baseColorFactor": [
          1.0,
          1.0,
          1.0,
          1.0
        ],
        "metallicFactor": 0.019999999552965164,
        "roughnessFactor": 0.4636361598968506,
        "baseColorTexture": {
          "index": 3,
          "texCoord": 0
        }
      },
      "normalTexture": {
        "index": 4,
        "scale": 1.0
      },
      "emissiveFactor": [
        0.0,
        0.0,
        0.0
      ],
      "alphaMode": "OPAQUE",
      "doubleSided": true,
      "name": "gltf_white_markings"
    }
  ],
  "meshes": [
    {
      "primitives": [
        {
          "attributes": {
            "POSITION": 0,
            "NORMAL": 1,
            "TEXCOORD_0": 2,
            "TEXCOORD_1": 3
          },
          "indices": 4,
          "mode": 4,
          "material": 0
        },
        {
          "attributes": {
            "POSITION": 7,
            "NORMAL": 8,
            "TEXCOORD_0": 9,
            "TEXCOORD_1": 10
          },
          "indices": 5,
          "mode": 4,
          "material": 1
        },
        {
          "attributes": {
            "POSITION": 11,
            "NORMAL": 12,
            "TEXCOORD_0": 13,
            "TEXCOORD_1": 14
          },
          "indices": 6,
          "mode": 4,
          "material": 2
        }
      ],
      "name": "SOT-353"
    }
  ],
  "nodes": [
    {
      "extras": {
        "model_diagonal": 3.051638998663681
      },
      "mesh": 0,
      "name": "SOT-353"
    }
  ],
  "samplers": [
    {
      "magFilter": 9729,
      "minFilter": 9987,
      "wrapS": 10497,
      "wrapT": 10497
    }
  ],
  "scene": 0,
  "scenes": [
    {
      "extras": {
        "sketcher": {
          "version": [
            0,
            24,
            0
          ]
        }
      },
      "name": "Scene",
      "nodes": [
        0
      ]
    }
  ],
  "textures": [
    {
      "extensions": {
        "KHR_texture_basisu": {
          "source": 1
        }
      },
      "sampler": 0
    },
    {
      "extensions": {
        "KHR_texture_basisu": {
          "source": 0
        }
      },
      "sampler": 0
    },
    {
      "extensions": {
        "KHR_texture_basisu": {
          "source": 2
        }
      },
      "sampler": 0
    },
    {
      "extensions": {
        "KHR_texture_basisu": {
          "source": 4
        }
      },
      "sampler": 0
    },
    {
      "extensions": {
        "KHR_texture_basisu": {
          "source": 3
        }
      },
      "sampler": 0
    }
  ]
}