{
  "accessors": [
    {
      "bufferView": 0,
      "byteOffset": 0,
      "componentType": 5126,
      "normalized": false,
      "count": 155,
      "type": "VEC3",
      "max": [
        10.249717712402344,
        2.299826145172119,
        10.253000259399414
      ],
      "min": [
        -10.251276016235352,
        1.4900000095367432,
        -10.253000259399414
      ]
    },
    {
      "bufferView": 0,
      "byteOffset": 12,
      "componentType": 5126,
      "normalized": false,
      "count": 155,
      "type": "VEC3"
    },
    {
      "bufferView": 0,
      "byteOffset": 24,
      "componentType": 5126,
      "normalized": false,
      "count": 155,
      "type": "VEC2"
    },
    {
      "bufferView": 0,
      "byteOffset": 32,
      "componentType": 5126,
      "normalized": false,
      "count": 155,
      "type": "VEC2"
    },
    {
      "bufferView": 1,
      "byteOffset": 0,
      "componentType": 5123,
      "normalized": false,
      "count": 267,
      "type": "SCALAR"
    },
    {
      "bufferView": 1,
      "byteOffset": 536,
      "componentType": 5123,
      "normalized": false,
      "count": 18744,
      "type": "SCALAR"
    },
    {
      "bufferView": 1,
      "byteOffset": 38024,
      "componentType": 5125,
      "normalized": false,
      "count": 363144,
      "type": "SCALAR"
    },
    {
      "bufferView": 1,
      "byteOffset": 1490600,
      "componentType": 5123,
      "normalized": false,
      "count": 81,
      "type": "SCALAR"
    },
    {
      "bufferView": 1,
      "byteOffset": 1490764,
      "componentType": 5123,
      "normalized": false,
      "count": 120,
      "type": "SCALAR"
    },
    {
      "bufferView": 2,
      "byteOffset": 0,
      "componentType": 5126,
      "normalized": false,
      "count": 4893,
      "type": "VEC3",
      "max": [
        10.999999046325684,
        1.4924027919769287,
        10.999999046325684
      ],
      "min": [
        -10.999999046325684,
        0.49734702706336975,
        -10.999999046325684
      ]
    },
    {
      "bufferView": 2,
      "byteOffset": 12,
      "componentType": 5126,
      "normalized": false,
      "count": 4893,
      "type": "VEC3"
    },
    {
      "bufferView": 2,
      "byteOffset": 24,
      "componentType": 5126,
      "normalized": false,
      "count": 4893,
      "type": "VEC2"
    },
    {
      "bufferView": 2,
      "byteOffset": 32,
      "componentType": 5126,
      "normalized": false,
      "count": 4893,
      "type": "VEC2"
    },
    {
      "bufferView": 3,
      "byteOffset": 0,
      "componentType": 5126,
      "normalized": false,
      "count": 72295,
      "type": "VEC3",
      "max": [
        10.814714431762695,
        0.49989211559295654,
        10.809812545776367
      ],
      "min": [
        -10.814714431762695,
        -0.014999999664723873,
        -10.814334869384766
      ]
    },
    {
      "bufferView": 3,
      "byteOffset": 12,
      "componentType": 5126,
      "normalized": false,
      "count": 72295,
      "type": "VEC3"
    },
    {
      "bufferView": 3,
      "byteOffset": 24,
      "componentType": 5126,
      "normalized": false,
      "count": 72295,
      "type": "VEC2"
    },
    {
      "bufferView": 3,
      "byteOffset": 32,
      "componentType": 5126,
      "normalized": false,
      "count": 72295,
      "type": "VEC2"
    },
    {
      "bufferView": 4,
      "byteOffset": 0,
      "componentType": 5126,
      "normalized": false,
      "count": 35,
      "type": "VEC3",
      "max": [
        9.895037651062012,
        2.299675226211548,
        9.895037651062012
      ],
      "min": [
        -9.895037651062012,
        2.2972593307495117,
        -9.895037651062012
      ]
    },
    {
      "bufferView": 4,
      "byteOffset": 12,
      "componentType": 5126,
      "normalized": false,
      "count": 35,
      "type": "VEC3"
    },
    {
      "bufferView": 4,
      "byteOffset": 24,
      "componentType": 5126,
      "normalized": false,
      "count": 35,
      "type": "VEC2"
    },
    {
      "bufferView": 4,
      "byteOffset": 32,
      "componentType": 5126,
      "normalized": false,
      "count": 35,
      "type": "VEC2"
    },
    {
      "bufferView": 5,
      "byteOffset": 0,
      "componentType": 5126,
      "normalized": false,
      "count": 72,
      "type": "VEC3",
      "max": [
        10.999999046325684,
        1.4896843433380127,
        10.999999046325684
      ],
      "min": [
        -10.999999046325684,
        0.4999999701976776,
        -10.999999046325684
      ]
    },
    {
      "bufferView": 5,
      "byteOffset": 12,
      "componentType": 5126,
      "normalized": false,
      "count": 72,
      "type": "VEC3"
    },
    {
      "bufferView": 5,
      "byteOffset": 24,
      "componentType": 5126,
      "normalized": false,
      "count": 72,
      "type": "VEC2"
    },
    {
      "bufferView": 5,
      "byteOffset": 32,
      "componentType": 5126,
      "normalized": false,
      "count": 72,
      "type": "VEC2"
    }
  ],
  "asset": {
    "generator": "pygltflib@v1.16.5",
    "version": "2.0"
  },
  "bufferViews": [
    {
      "buffer": 0,
      "byteOffset": 0,
      "byteLength": 6200,
      "byteStride": 40,
      "target": 34962
    },
    {
      "buffer": 0,
      "byteOffset": 6200,
      "byteLength": 1491004,
      "target": 34963
    },
    {
      "buffer": 0,
      "byteOffset": 1497204,
      "byteLength": 195720,
      "byteStride": 40,
      "target": 34962
    },
    {
      "buffer": 0,
      "byteOffset": 1692924,
      "byteLength": 2891800,
      "byteStride": 40,
      "target": 34962
    },
    {
      "buffer": 0,
      "byteOffset": 4584724,
      "byteLength": 1400,
      "byteStride": 40,
      "target": 34962
    },
    {
      "buffer": 0,
      "byteOffset": 4586124,
      "byteLength": 2880,
      "byteStride": 40,
      "target": 34962
    }
  ],
  "buffers": [
    {
      "uri": "BGA-484_23x23mm_Layout22x22_P1mm_FGG484-amd-xilinx-xc7a35t-fgg484.bin",
      "byteLength": 4589004
    }
  ],
  "extensionsUsed": [
    "KHR_materials_clearcoat",
    "KHR_materials_ior",
    "KHR_materials_specular",
    "KHR_texture_basisu",
    "KHR_texture_transform"
  ],
  "extensionsRequired": [
    "KHR_texture_basisu",
    "KHR_texture_transform"
  ],
  "images": [
    {
      "uri": "../shared_textures/plastic_chip_normal512.ktx2",
      "mimeType": "image/ktx2",
      "name": "plastic_chip_normal512"
    },
    {
      "uri": "../shared_textures/composite_darkgreen_2_normal512.ktx2",
      "mimeType": "image/ktx2",
      "name": "composite_darkgreen_2_normal512"
    },
    {
      "uri": "../shared_textures/composite_darkgreen_2_roughness512.ktx2",
      "mimeType": "image/ktx2",
      "name": "composite_darkgreen_2_roughness512"
    },
    {
      "uri": "../shared_textures/metal_pins_normal512.ktx2",
      "mimeType": "image/ktx2",
      "name": "metal_pins_normal512"
    },
    {
      "uri": "../shared_textures/metal_pins_color512.ktx2",
      "mimeType": "image/ktx2",
      "name": "metal_pins_color512"
    },
    {
      "uri": "amd-xilinx-xc7a35t-fgg484-marking_normal.ktx2",
      "mimeType": "image/ktx2",
      "name": "amd-xilinx-xc7a35t-fgg484-marking_normal"
    },
    {
      "uri": "amd-xilinx-xc7a35t-fgg484-marking_color.ktx2",
      "mimeType": "image/ktx2",
      "name": "amd-xilinx-xc7a35t-fgg484-marking_color"
    },
    {
      "uri": "amd-xilinx-xc7a35t-fgg484-marking_metallic_roughness.ktx2",
      "mimeType": "image/ktx2",
      "name": "amd-xilinx-xc7a35t-fgg484-marking_metallic_roughness"
    },
    {
      "uri": "../shared_textures/pcb_edge_normal512.ktx2",
      "mimeType": "image/ktx2",
      "name": "pcb_edge_normal512"
    },
    {
      "uri": "../shared_textures/pcb_edge_color512.ktx2",
      "mimeType": "image/ktx2",
      "name": "pcb_edge_color512"
    }
  ],
  "materials": [
    {
      "pbrMetallicRoughness": {
        "baseColorFactor": [
          0.009133999235928059,
          0.009134066291153431,
          0.009134061634540558,
          1.0
        ],
        "metallicFactor": 0.13699999451637268,
        "roughnessFactor": 0.37063413858413696
      },
      "normalTexture": {
        "index": 0,
        "scale": 1.0
      },
      "emissiveFactor": [
        0.0,
        0.0,
        0.0
      ],
      "alphaMode": "OPAQUE",
      "doubleSided": true,
      "name": "gltf_plastic_chip"
    },
    {
      "extensions": {
        "KHR_materials_clearcoat": {
          "clearcoatFactor": 0.14230769872665405,
          "clearcoatRoughnessFactor": 0
        }
      },
      "extras": {
        "blenderkit": {
          "name": "Matte plastic",
          "description": "very simple roughness variated plastic",
          "tags": "plastic, touched, green",
          "is_generating_thumbnail": 0,
          "thumbnail": "//matte plastic _0000.png",
          "shaders": "principled, ",
          "upload_state": "uploaded metadata",
          "has_thumbnail": 1,
          "asset_base_id": "cb48a41d-6fc7-47b3-bd08-45275cfed0c2",
          "id": "62a6d8a0-393f-4bdd-9d1d-896fea3ca0be",
          "uploading": 0,
          "rating_quality": -1,
          "thumbnail_scale": 0.20000000298023224,
          "name_changed": 0,
          "name_old": "Matte plastic",
          "category": 24,
          "texture_resolution_max": 0,
          "texture_resolution_min": 0
        },
        "asset_data": {
          "thumbnail": "thumbnail_0f84bee4-0378-4bcd-8e2e-16a60a09613d.png.1024x1024_q85_crop-%2C.png",
          "thumbnail_small": "thumbnail_0f84bee4-0378-4bcd-8e2e-16a60a09613d.png.96x96_q85_crop-%2C.png",
          "download_url": "https://www.blenderkit.com/api/v1/downloads/5399/",
          "tooltip": "Matte plastic\n\nvery simple roughness variated plastic\n\nfiles size: 852KB\ntexture size: 1.0m\nlicense: royalty_free\n",
          "downloaded": 0,
          "texture_size_meters": 1,
          "thumbnail_%i": "thumbnail_0f84bee4-0378-4bcd-8e2e-16a60a09613d.png.1024x1024_q85_crop-%2C.png",
          "url": "https://public.blenderkit.com/public-assets/assets/62a6d8a0393f4bdd9d1d896fea3ca0be/files/blend_225be883-9a22-46c5-9b57-8786c2a32418.blend",
          "id": "62a6d8a0-393f-4bdd-9d1d-896fea3ca0be",
          "assetBaseId": "cb48a41d-6fc7-47b3-bd08-45275cfed0c2",
          "versionNumber": 1,
          "author": {
            "id": "2",
            "firstName": "Vil\u00e9m",
            "lastName": "Duha",
            "gravatarHash": "7d60f17cdce549f0f0159215cd006ae9",
            "avatar128": "/avatar-redirect/95cf3d26-35ba-41b0-84f1-55ee67cbeae4/128/",
            "aboutMe": "On this account we store assets created by BlenderKit team.",
            "aboutMeUrl": "https://www.blenderkit.com/about"
          },
          "name": "Matte plastic",
          "displayName": "Matte plastic",
          "description": "very simple roughness variated plastic",
          "assetType": "material",
          "category": "plastic",
          "adult": 0,
          "isFree": 1,
          "tags": [
            "plastic",
            "touched",
            "green",
            "non-manifold",
            "non-manifold",
            "non-manifold"
          ],
          "license": "royalty_free",
          "parameters": [
            {
              "parameterType": "textureSizeMeters",
              "value": 1
            },
            {
              "parameterType": "material_style",
              "value": "realistic"
            },
            {
              "parameterType": "purePbr",
              "value": 0
            },
            {
              "parameterType": "engine",
              "value": "cycles"
            },
            {
              "parameterType": "shaders",
              "value": [
                "principled"
              ]
            },
            {
              "parameterType": "animated",
              "value": 0
            },
            {
              "parameterType": "uv",
              "value": 0
            }
          ],
          "sourceAppName": "blender",
          "sourceAppVersion": "2.80.74",
          "addonVersion": "1.0.24",
          "created": "2019-06-11T10:47:32.996203+02:00",
          "verificationStatus": "validated",
          "isPrivate": 0,
          "files": [
            {
              "fileType": "blend",
              "downloadUrl": "https://www.blenderkit.com/api/v1/downloads/5399/"
            },
            {
              "fileType": "thumbnail",
              "downloadUrl": "https://www.blenderkit.com/api/v1/downloads/5398/",
              "fileThumbnail": "https://public.blenderkit.com/thumbnails/assets/62a6d8a0393f4bdd9d1d896fea3ca0be/files/thumbnail_0f84bee4-0378-4bcd-8e2e-16a60a09613d.png.96x96_q85_crop-%2C.png",
              "fileThumbnailLarge": "https://public.blenderkit.com/thumbnails/assets/62a6d8a0393f4bdd9d1d896fea3ca0be/files/thumbnail_0f84bee4-0378-4bcd-8e2e-16a60a09613d.png.1024x1024_q85_crop-%2C.png"
            }
          ],
          "filesSize": 58196,
          "thumbnailSmallUrl": "https://public.blenderkit.com/thumbnails/assets/62a6d8a0393f4bdd9d1d896fea3ca0be/files/thumbnail_0f84bee4-0378-4bcd-8e2e-16a60a09613d.png.256x256_q85_crop-%2C.png",
          "thumbnailMiddleUrl": "https://public.blenderkit.com/thumbnails/assets/62a6d8a0393f4bdd9d1d896fea3ca0be/files/thumbnail_0f84bee4-0378-4bcd-8e2e-16a60a09613d.png.512x512_q85_crop-%2C.png",
          "thumbnailLargeUrl": "https://public.blenderkit.com/thumbnails/assets/62a6d8a0393f4bdd9d1d896fea3ca0be/files/thumbnail_0f84bee4-0378-4bcd-8e2e-16a60a09613d.png.1024x1024_q85_crop-%2C.png",
          "thumbnailXlargeUrl": "https://public.blenderkit.com/thumbnails/assets/62a6d8a0393f4bdd9d1d896fea3ca0be/files/thumbnail_0f84bee4-0378-4bcd-8e2e-16a60a09613d.png.1024x1024_q85_crop-%2C.png",
          "thumbnailSmallUrlNonsquared": "https://public.blenderkit.com/thumbnails/assets/62a6d8a0393f4bdd9d1d896fea3ca0be/files/thumbnail_0f84bee4-0378-4bcd-8e2e-16a60a09613d.png.256x256_q85.png",
          "thumbnailMiddleUrlNonsquared": "https://public.blenderkit.com/thumbnails/assets/62a6d8a0393f4bdd9d1d896fea3ca0be/files/thumbnail_0f84bee4-0378-4bcd-8e2e-16a60a09613d.png.512x512_q85.png",
          "thumbnailLargeUrlNonsquared": "https://public.blenderkit.com/thumbnails/assets/62a6d8a0393f4bdd9d1d896fea3ca0be/files/thumbnail_0f84bee4-0378-4bcd-8e2e-16a60a09613d.png.1024x1024_q85.png",
          "thumbnailXlargeUrlNonsquared": "https://public.blenderkit.com/thumbnails/assets/62a6d8a0393f4bdd9d1d896fea3ca0be/files/thumbnail_0f84bee4-0378-4bcd-8e2e-16a60a09613d.png.2048x2048_q85.png",
          "showMarketingLabels": 1,
          "score": 192,
          "ratingsMedian": {
            "quality": 8.5,
            "workingHours": 2.4
          },
          "ratingsAverage": {
            "quality": 8,
            "workingHours": 2.4
          },
          "ratingsCount": {
            "competition-2022-votes": 0,
            "complexity": 0,
            "virtualPriceAdmin": 0,
            "virtualPrice": 0,
            "quality": 8,
            "workingHours": 8,
            "complexityAdmin": 0
          },
          "ratingsSum": {
            "quality": 64,
            "workingHours": 17.7
          },
          "canDownload": 1,
          "canDownloadError": 1,
          "file_name": "blend_225be883-9a22-46c5-9b57-8786c2a32418.blend"
        }
      },
      "pbrMetallicRoughness": {
        "baseColorFactor": [
          0.009721336886286736,
          0.019382169470191002,
          0.014443810097873211,
          1.0
        ],
        "metallicFactor": 0.0,
        "roughnessFactor": 1.0,
        "metallicRoughnessTexture": {
          "index": 2,
          "texCoord": 0
        }
      },
      "normalTexture": {
        "index": 1,
        "scale": 1.0
      },
      "emissiveFactor": [
        0.0,
        0.0,
        0.0
      ],
      "alphaMode": "OPAQUE",
      "doubleSided": true,
      "name": "gltf_composite_darkgreen_2"
    },
    {
      "extensions": {
        "KHR_materials_ior": {
          "ior": 1.4500000476837158
        },
        "KHR_materials_specular": {
          "specularFactor": 0
        }
      },
      "pbrMetallicRoughness": {
        "baseColorFactor": [
          1.0,
          1.0,
          1.0,
          1.0
        ],
        "metallicFactor": 0.7818182110786438,
        "roughnessFactor": 0.28863638639450073,
        "baseColorTexture": {
          "index": 3,
          "texCoord": 0
        }
      },
      "normalTexture": {
        "index": 4,
        "scale": 1.0
      },
      "emissiveFactor": [
        0.0,
        0.0,
        0.0
      ],
      "alphaMode": "OPAQUE",
      "doubleSided": true,
      "name": "gltf_metal_pins"
    },
    {
      "pbrMetallicRoughness": {
        "baseColorFactor": [
          1.0,
          1.0,
          1.0,
          1.0
        ],
        "metallicFactor": 1.0,
        "roughnessFactor": 1.0,
        "baseColorTexture": {
          "index": 5,
          "texCoord": 1
        },
        "metallicRoughnessTexture": {
          "index": 7,
          "texCoord": 1
        }
      },
      "normalTexture": {
        "index": 6,
        "texCoord": 1,
        "scale": 1.0
      },
      "emissiveFactor": [
        0.0,
        0.0,
        0.0
      ],
      "alphaMode": "OPAQUE",
      "doubleSided": true,
      "name": "gltf_amd-xilinx-xc7a35t-fgg484-marking"
    },
    {
      "extensions": {
        "KHR_materials_clearcoat": {
          "clearcoatFactor": 0,
          "clearcoatRoughnessFactor": 0
        },
        "KHR_materials_ior": {
          "ior": 1.4500000476837158
        },
        "KHR_materials_specular": {
          "specularFactor": 0
        }
      },
      "pbrMetallicRoughness": {
        "baseColorFactor": [
          1.0,
          1.0,
          1.0,
          1.0
        ],
        "metallicFactor": 0.10000000149011612,
        "roughnessFactor": 0.5,
        "baseColorTexture": {
          "extensions": {
            "KHR_texture_transform": {
              "offset": [
                0,
                -3
              ],
              "scale": [
                4,
                4
              ]
            }
          },
          "index": 8,
          "texCoord": 0
        }
      },
      "normalTexture": {
        "index": 9,
        "scale": 1.0
      },
      "emissiveFactor": [
        0.0,
        0.0,
        0.0
      ],
      "alphaMode": "OPAQUE",
      "doubleSided": true,
      "name": "gltf_pcb_edge"
    }
  ],
  "meshes": [
    {
      "primitives": [
        {
          "attributes": {
            "POSITION": 0,
            "NORMAL": 1,
            "TEXCOORD_0": 2,
            "TEXCOORD_1": 3
          },
          "indices": 4,
          "mode": 4,
          "material": 0
        },
        {
          "attributes": {
            "POSITION": 9,
            "NORMAL": 10,
            "TEXCOORD_0": 11,
            "TEXCOORD_1": 12
          },
          "indices": 5,
          "mode": 4,
          "material": 1
        },
        {
          "attributes": {
            "POSITION": 13,
            "NORMAL": 14,
            "TEXCOORD_0": 15,
            "TEXCOORD_1": 16
          },
          "indices": 6,
          "mode": 4,
          "material": 2
        },
        {
          "attributes": {
            "POSITION": 17,
            "NORMAL": 18,
            "TEXCOORD_0": 19,
            "TEXCOORD_1": 20
          },
          "indices": 7,
          "mode": 4,
          "material": 3
        },
        {
          "attributes": {
            "POSITION": 21,
            "NORMAL": 22,
            "TEXCOORD_0": 23,
            "TEXCOORD_1": 24
          },
          "indices": 8,
          "mode": 4,
          "material": 4
        }
      ],
      "name": "SHAPE_9_IndexedFaceSet.004"
    }
  ],
  "nodes": [
    {
      "extras": {
        "REF": "REF**",
        "model_diagonal": 31.1987028162752
      },
      "mesh": 0,
      "name": "BGA-484_23x23mm_Layout22x22_P1mm_FGG484-amd-xilinx-xc7a35t-fgg4"
    }
  ],
  "samplers": [
    {
      "magFilter": 9729,
      "minFilter": 9987,
      "wrapS": 10497,
      "wrapT": 10497
    }
  ],
  "scene": 0,
  "scenes": [
    {
      "extras": {
        "matlib": {
          "lib_index": 0,
          "filter": 0,
          "cat_index": -1,
          "all_materials": [
            {
              "name": "Metal"
            },
            {
              "name": "bga_balls"
            },
            {
              "name": "chip_enclosure"
            },
            {
              "name": "chip_enclosure_detailed"
            },
            {
              "name": "composite"
            },
            {
              "name": "enclosure_alu"
            },
            {
              "name": "enclosure_alu_polished"
            },
            {
              "name": "enclosure_gold"
            },
            {
              "name": "metal_pins_simple"
            },
            {
              "name": "pin1_marking_dark"
            },
            {
              "name": "pin_tht_gold"
            },
            {
              "name": "pin_tht_silver"
            },
            {
              "name": "plastic yellow"
            },
            {
              "name": "plastic_black"
            },
            {
              "name": "plastic_black_detailed"
            },
            {
              "name": "plastic_green_lightning"
            },
            {
              "name": "plastic_white"
            },
            {
              "name": "plastic_yellow_lightning"
            },
            {
              "name": "smd_cap_case"
            },
            {
              "name": "smd_cap_pins"
            },
            {
              "name": "smd_res_case"
            }
          ],
          "materials": [
            {
              "name": "Metal"
            },
            {
              "name": "bga_balls"
            },
            {
              "name": "chip_enclosure"
            },
            {
              "name": "chip_enclosure_detailed"
            },
            {
              "name": "composite"
            },
            {
              "name": "enclosure_alu"
            },
            {
              "name": "enclosure_alu_polished"
            },
            {
              "name": "enclosure_gold"
            },
            {
              "name": "metal_pins_simple"
            },
            {
              "name": "pin1_marking_dark"
            },
            {
              "name": "pin_tht_gold"
            },
            {
              "name": "pin_tht_silver"
            },
            {
              "name": "plastic yellow"
            },
            {
              "name": "plastic_black"
            },
            {
              "name": "plastic_black_detailed"
            },
            {
              "name": "plastic_green_lightning"
            },
            {
              "name": "plastic_white"
            },
            {
              "name": "plastic_yellow_lightning"
            },
            {
              "name": "smd_cap_case"
            },
            {
              "name": "smd_cap_pins"
            },
            {
              "name": "smd_res_case"
            }
          ],
          "mat_index": 2
        },
        "sketcher": {
          "version": [
            0,
            24,
            0
          ]
        }
      },
      "name": "Scene",
      "nodes": [
        0
      ]
    }
  ],
  "textures": [
    {
      "extensions": {
        "KHR_texture_basisu": {
          "source": 0
        }
      },
      "sampler": 0
    },
    {
      "extensions": {
        "KHR_texture_basisu": {
          "source": 1
        }
      },
      "sampler": 0
    },
    {
      "extensions": {
        "KHR_texture_basisu": {
          "source": 2
        }
      },
      "sampler": 0
    },
    {
      "extensions": {
        "KHR_texture_basisu": {
          "source": 4
        }
      },
      "sampler": 0
    },
    {
      "extensions": {
        "KHR_texture_basisu": {
          "source": 3
        }
      },
      "sampler": 0
    },
    {
      "extensions": {
        "KHR_texture_basisu": {
          "source": 6
        }
      },
      "sampler": 0
    },
    {
      "extensions": {
        "KHR_texture_basisu": {
          "source": 5
        }
      },
      "sampler": 0
    },
    {
      "extensions": {
        "KHR_texture_basisu": {
          "source": 7
        }
      },
      "sampler": 0
    },
    {
      "extensions": {
        "KHR_texture_basisu": {
          "source": 9
        }
      },
      "sampler": 0
    },
    {
      "extensions": {
        "KHR_texture_basisu": {
          "source": 8
        }
      },
      "sampler": 0
    }
  ]
}