<?xml version="1.0" standalone="no"?>
 <!DOCTYPE svg PUBLIC "-//W3C//DTD SVG 1.1//EN" 
 "http://www.w3.org/Graphics/SVG/1.1/DTD/svg11.dtd"> 
<svg
  xmlns:svg="http://www.w3.org/2000/svg"
  xmlns="http://www.w3.org/2000/svg"
  xmlns:xlink="http://www.w3.org/1999/xlink"
  version="1.1"
  width="21.7932mm" height="6.6294mm" viewBox="0.0000 0.0000 21.7932 6.6294">
<title>SVG Image created as outline.svg date 2025/04/04 10:06:07 </title>
  <desc>Image generated by PCBNEW </desc>
<g style="fill:#000000; fill-opacity:1.0000;stroke:#000000; stroke-opacity:1.0000;
stroke-linecap:round; stroke-linejoin:round;"
 transform="translate(0 0) scale(1 1)">
</g>
<g style="fill:none; 
stroke:#000000; stroke-width:0.0200; stroke-opacity:1; 
stroke-linecap:round; stroke-linejoin:round;">
<path d="M0.8300 5.0250
L0.8300 3.2250
" />
<path d="M0.8300 5.0250
L1.0300 5.2250
" />
<path d="M1.0300 3.0250
L0.8300 3.2250
" />
<path d="M1.0300 3.0250
L1.2300 3.0250
" />
<path d="M1.0300 5.8250
L1.0300 3.0250
" />
<path d="M1.0300 5.8250
L1.2300 5.8250
" />
<path d="M1.2300 3.0250
L2.0300 3.0250
" />
<path d="M1.2300 5.8250
L1.2300 3.0250
" />
<path d="M1.2300 5.8250
L2.0300 5.8250
" />
<path d="M2.0300 3.0250
L2.5300 3.0250
" />
<path d="M2.0300 5.8250
L2.0300 3.0250
" />
<path d="M2.0300 5.8250
L2.5300 5.8250
" />
<path d="M2.5300 2.0250
L2.5300 5.2250
" />
<path d="M2.5300 5.2250
L2.5300 6.2250
" />
<path d="M2.5300 6.2250
L2.8300 6.2250
" />
<path d="M2.8300 6.2250
L3.1300 6.0250
" />
<path d="M3.1300 6.0250
L3.1300 5.2250
" />
<path d="M3.1300 6.0250
L4.5050 6.0250
" />
<path d="M3.4800 4.6250
L3.4800 5.2250
" />
<path d="M3.4800 5.2250
L2.5300 5.2250
" />
<path d="M3.8700 1.0250
L3.8700 1.3250
" />
<path d="M3.8700 1.3250
L3.8700 2.0250
" />
<path d="M3.8700 4.6250
L3.8700 5.5250
" />
<path d="M4.1900 1.0250
L3.8700 1.0250
" />
<path d="M4.1900 1.0250
L4.1900 1.3250
" />
<path d="M4.1900 1.3250
L3.8700 1.3250
" />
<path d="M4.1900 1.3250
L4.1900 2.0250
" />
<path d="M4.1900 4.6250
L4.1900 5.5250
" />
<path d="M4.1900 4.7750
L4.5050 4.7750
" />
<path d="M4.1900 5.5250
L3.8700 5.5250
" />
<path d="M4.5050 4.7750
L4.5050 6.0250
" />
<path d="M4.5050 6.0250
L4.5050 6.2250
" />
<path d="M4.5050 6.2250
L2.8300 6.2250
" />
<path d="M4.8050 4.7750
L5.1200 4.7750
" />
<path d="M4.8050 6.0250
L4.8050 4.7750
" />
<path d="M4.8050 6.0250
L17.0050 6.0250
" />
<path d="M4.8050 6.2250
L4.8050 6.0250
" />
<path d="M5.1200 1.0250
L5.1200 1.3250
" />
<path d="M5.1200 1.3250
L5.1200 2.0250
" />
<path d="M5.1200 4.6250
L5.1200 5.5250
" />
<path d="M5.4400 1.0250
L5.1200 1.0250
" />
<path d="M5.4400 1.0250
L5.4400 1.3250
" />
<path d="M5.4400 1.3250
L5.1200 1.3250
" />
<path d="M5.4400 1.3250
L5.4400 2.0250
" />
<path d="M5.4400 4.6250
L5.4400 5.5250
" />
<path d="M5.4400 5.5250
L5.1200 5.5250
" />
<path d="M6.3700 1.0250
L6.3700 1.3250
" />
<path d="M6.3700 1.3250
L6.3700 2.0250
" />
<path d="M6.3700 4.6250
L6.3700 5.5250
" />
<path d="M6.6900 1.0250
L6.3700 1.0250
" />
<path d="M6.6900 1.0250
L6.6900 1.3250
" />
<path d="M6.6900 1.3250
L6.3700 1.3250
" />
<path d="M6.6900 1.3250
L6.6900 2.0250
" />
<path d="M6.6900 4.6250
L6.6900 5.5250
" />
<path d="M6.6900 5.5250
L6.3700 5.5250
" />
<path d="M7.6200 1.0250
L7.6200 1.3250
" />
<path d="M7.6200 1.3250
L7.6200 2.0250
" />
<path d="M7.6200 4.6250
L7.6200 5.5250
" />
<path d="M7.9400 1.0250
L7.6200 1.0250
" />
<path d="M7.9400 1.0250
L7.9400 1.3250
" />
<path d="M7.9400 1.3250
L7.6200 1.3250
" />
<path d="M7.9400 1.3250
L7.9400 2.0250
" />
<path d="M7.9400 4.6250
L7.9400 5.5250
" />
<path d="M7.9400 5.5250
L7.6200 5.5250
" />
<path d="M8.8700 1.0250
L8.8700 1.3250
" />
<path d="M8.8700 1.3250
L8.8700 2.0250
" />
<path d="M8.8700 4.6250
L8.8700 5.5250
" />
<path d="M9.1900 1.0250
L8.8700 1.0250
" />
<path d="M9.1900 1.0250
L9.1900 1.3250
" />
<path d="M9.1900 1.3250
L8.8700 1.3250
" />
<path d="M9.1900 1.3250
L9.1900 2.0250
" />
<path d="M9.1900 4.6250
L9.1900 5.5250
" />
<path d="M9.1900 5.5250
L8.8700 5.5250
" />
<path d="M10.1200 1.0250
L10.1200 1.3250
" />
<path d="M10.1200 1.3250
L10.1200 2.0250
" />
<path d="M10.1200 4.6250
L10.1200 5.5250
" />
<path d="M10.4400 1.0250
L10.1200 1.0250
" />
<path d="M10.4400 1.0250
L10.4400 1.3250
" />
<path d="M10.4400 1.3250
L10.1200 1.3250
" />
<path d="M10.4400 1.3250
L10.4400 2.0250
" />
<path d="M10.4400 4.6250
L10.4400 5.5250
" />
<path d="M10.4400 5.5250
L10.1200 5.5250
" />
<path d="M11.3700 1.0250
L11.3700 1.3250
" />
<path d="M11.3700 1.3250
L11.3700 2.0250
" />
<path d="M11.3700 4.6250
L11.3700 5.5250
" />
<path d="M11.6900 1.0250
L11.3700 1.0250
" />
<path d="M11.6900 1.0250
L11.6900 1.3250
" />
<path d="M11.6900 1.3250
L11.3700 1.3250
" />
<path d="M11.6900 1.3250
L11.6900 2.0250
" />
<path d="M11.6900 4.6250
L11.6900 5.5250
" />
<path d="M11.6900 5.5250
L11.3700 5.5250
" />
<path d="M12.6200 1.0250
L12.6200 1.3250
" />
<path d="M12.6200 1.3250
L12.6200 2.0250
" />
<path d="M12.6200 4.6250
L12.6200 5.5250
" />
<path d="M12.9400 1.0250
L12.6200 1.0250
" />
<path d="M12.9400 1.0250
L12.9400 1.3250
" />
<path d="M12.9400 1.3250
L12.6200 1.3250
" />
<path d="M12.9400 1.3250
L12.9400 2.0250
" />
<path d="M12.9400 4.6250
L12.9400 5.5250
" />
<path d="M12.9400 5.5250
L12.6200 5.5250
" />
<path d="M13.8700 1.0250
L13.8700 1.3250
" />
<path d="M13.8700 1.3250
L13.8700 2.0250
" />
<path d="M13.8700 4.6250
L13.8700 5.5250
" />
<path d="M14.1900 1.0250
L13.8700 1.0250
" />
<path d="M14.1900 1.0250
L14.1900 1.3250
" />
<path d="M14.1900 1.3250
L13.8700 1.3250
" />
<path d="M14.1900 1.3250
L14.1900 2.0250
" />
<path d="M14.1900 4.6250
L14.1900 5.5250
" />
<path d="M14.1900 5.5250
L13.8700 5.5250
" />
<path d="M15.1200 1.0250
L15.1200 1.3250
" />
<path d="M15.1200 1.3250
L15.1200 2.0250
" />
<path d="M15.1200 4.6250
L15.1200 5.5250
" />
<path d="M15.4400 1.0250
L15.1200 1.0250
" />
<path d="M15.4400 1.0250
L15.4400 1.3250
" />
<path d="M15.4400 1.3250
L15.1200 1.3250
" />
<path d="M15.4400 1.3250
L15.4400 2.0250
" />
<path d="M15.4400 4.6250
L15.4400 5.5250
" />
<path d="M15.4400 5.5250
L15.1200 5.5250
" />
<path d="M16.3700 1.0250
L16.3700 1.3250
" />
<path d="M16.3700 1.3250
L16.3700 2.0250
" />
<path d="M16.3700 4.6250
L16.3700 5.5250
" />
<path d="M16.6900 1.0250
L16.3700 1.0250
" />
<path d="M16.6900 1.0250
L16.6900 1.3250
" />
<path d="M16.6900 1.3250
L16.3700 1.3250
" />
<path d="M16.6900 1.3250
L16.6900 2.0250
" />
<path d="M16.6900 4.6250
L16.6900 5.5250
" />
<path d="M16.6900 5.5250
L16.3700 5.5250
" />
<path d="M17.0050 4.7750
L16.6900 4.7750
" />
<path d="M17.0050 6.0250
L17.0050 4.7750
" />
<path d="M17.0050 6.2250
L4.8050 6.2250
" />
<path d="M17.0050 6.2250
L17.0050 6.0250
" />
<path d="M17.3050 4.7750
L17.3050 6.0250
" />
<path d="M17.3050 6.0250
L17.3050 6.2250
" />
<path d="M17.3050 6.0250
L18.6800 6.0250
" />
<path d="M17.6200 1.0250
L17.6200 1.3250
" />
<path d="M17.6200 1.3250
L17.6200 2.0250
" />
<path d="M17.6200 4.6250
L17.6200 5.5250
" />
<path d="M17.6200 4.7750
L17.3050 4.7750
" />
<path d="M17.9400 1.0250
L17.6200 1.0250
" />
<path d="M17.9400 1.0250
L17.9400 1.3250
" />
<path d="M17.9400 1.3250
L17.6200 1.3250
" />
<path d="M17.9400 1.3250
L17.9400 2.0250
" />
<path d="M17.9400 4.6250
L17.9400 5.5250
" />
<path d="M17.9400 5.5250
L17.6200 5.5250
" />
<path d="M18.3300 4.6250
L3.4800 4.6250
" />
<path d="M18.3300 5.2250
L18.3300 4.6250
" />
<path d="M18.6800 6.0250
L18.6800 5.2250
" />
<path d="M18.6800 6.0250
L18.9800 6.2250
" />
<path d="M18.9800 6.2250
L17.3050 6.2250
" />
<path d="M18.9800 6.2250
L19.2800 6.2250
" />
<path d="M19.2800 2.0250
L2.5300 2.0250
" />
<path d="M19.2800 2.0250
L19.2800 5.2250
" />
<path d="M19.2800 3.0250
L19.7800 3.0250
" />
<path d="M19.2800 5.2250
L18.3300 5.2250
" />
<path d="M19.2800 5.8250
L19.7800 5.8250
" />
<path d="M19.2800 6.2250
L19.2800 5.2250
" />
<path d="M19.7800 3.0250
L20.5800 3.0250
" />
<path d="M19.7800 5.8250
L19.7800 3.0250
" />
<path d="M19.7800 5.8250
L20.5800 5.8250
" />
<path d="M20.5800 3.0250
L20.7800 3.0250
" />
<path d="M20.5800 5.8250
L20.5800 3.0250
" />
<path d="M20.5800 5.8250
L20.7800 5.8250
" />
<path d="M20.7800 5.2250
L20.9800 5.0250
" />
<path d="M20.7800 5.8250
L20.7800 3.0250
" />
<path d="M20.9800 3.2250
L20.7800 3.0250
" />
<path d="M20.9800 5.0250
L20.9800 3.2250
" />
</g> 
</svg>
