<?xml version="1.0" standalone="no"?>
 <!DOCTYPE svg PUBLIC "-//W3C//DTD SVG 1.1//EN" 
 "http://www.w3.org/Graphics/SVG/1.1/DTD/svg11.dtd"> 
<svg
  xmlns:svg="http://www.w3.org/2000/svg"
  xmlns="http://www.w3.org/2000/svg"
  xmlns:xlink="http://www.w3.org/1999/xlink"
  version="1.1"
  width="3.1496mm" height="1.9304mm" viewBox="0.0000 0.0000 3.1496 1.9304">
<title>SVG Image created as outline.svg date 2025/06/16 09:17:45 </title>
  <desc>Image generated by PCBNEW </desc>
<g style="fill:#000000; fill-opacity:1.0000;stroke:#000000; stroke-opacity:1.0000;
stroke-linecap:round; stroke-linejoin:round;"
 transform="translate(0 0) scale(1 1)">
</g>
<g style="fill:none; 
stroke:#000000; stroke-width:0.0200; stroke-opacity:1; 
stroke-linecap:round; stroke-linejoin:round;">
<path d="M0.3250 0.7740
L0.3250 1.1760
" />
<path d="M0.3250 1.1760
L0.6730 1.1760
" />
<path d="M0.6730 0.2990
L2.4750 0.2990
" />
<path d="M0.6730 0.7740
L0.3250 0.7740
" />
<path d="M0.6730 0.7740
L0.6730 0.2990
" />
<path d="M0.6730 1.1760
L0.6730 0.7740
" />
<path d="M0.6730 1.6510
L0.6730 1.1760
" />
<path d="M0.7520 0.3750
L0.6730 0.2990
" />
<path d="M0.7520 0.3750
L0.7970 0.4230
" />
<path d="M0.7520 1.5750
L0.6730 1.6510
" />
<path d="M0.7520 1.5750
L0.7970 1.5270
" />
<path d="M0.8250 0.5370
L0.8250 1.4130
" />
<path d="M0.8250 1.4130
L0.9750 1.4130
" />
<path d="M0.9750 0.5370
L0.8250 0.5370
" />
<path d="M0.9750 1.4130
L0.9750 0.5370
" />
<path d="M2.3510 0.4230
L2.3960 0.3750
" />
<path d="M2.3510 1.5270
L2.3960 1.5750
" />
<path d="M2.4750 0.2990
L2.3960 0.3750
" />
<path d="M2.4750 0.2990
L2.4750 0.7740
" />
<path d="M2.4750 0.7740
L2.4750 1.1760
" />
<path d="M2.4750 1.1760
L2.4750 1.6510
" />
<path d="M2.4750 1.1760
L2.8240 1.1760
" />
<path d="M2.4750 1.6510
L0.6730 1.6510
" />
<path d="M2.4750 1.6510
L2.3960 1.5750
" />
<path d="M2.8240 0.7740
L2.4750 0.7740
" />
<path d="M2.8240 1.1760
L2.8240 0.7740
" />
</g> 
</svg>
