{
  "accessors": [
    {
      "bufferView": 0,
      "byteOffset": 0,
      "componentType": 5126,
      "normalized": false,
      "count": 106,
      "type": "VEC3",
      "max": [
        6.5500006675720215,
        1.6898176670074463,
        6.550000190734863
      ],
      "min": [
        -6.549999713897705,
        0.49999886751174927,
        -6.550000190734863
      ]
    },
    {
      "bufferView": 0,
      "byteOffset": 12,
      "componentType": 5126,
      "normalized": false,
      "count": 106,
      "type": "VEC3"
    },
    {
      "bufferView": 0,
      "byteOffset": 24,
      "componentType": 5126,
      "normalized": false,
      "count": 106,
      "type": "VEC2"
    },
    {
      "bufferView": 0,
      "byteOffset": 32,
      "componentType": 5126,
      "normalized": false,
      "count": 106,
      "type": "VEC2"
    },
    {
      "bufferView": 1,
      "byteOffset": 0,
      "componentType": 5123,
      "normalized": false,
      "count": 180,
      "type": "SCALAR"
    },
    {
      "bufferView": 1,
      "byteOffset": 360,
      "componentType": 5123,
      "normalized": false,
      "count": 84,
      "type": "SCALAR"
    },
    {
      "bufferView": 1,
      "byteOffset": 528,
      "componentType": 5123,
      "normalized": false,
      "count": 3312,
      "type": "SCALAR"
    },
    {
      "bufferView": 1,
      "byteOffset": 7152,
      "componentType": 5123,
      "normalized": false,
      "count": 142560,
      "type": "SCALAR"
    },
    {
      "bufferView": 2,
      "byteOffset": 0,
      "componentType": 5126,
      "normalized": false,
      "count": 48,
      "type": "VEC3",
      "max": [
        6.5500006675720215,
        1.6852221488952637,
        6.550000190734863
      ],
      "min": [
        -6.549999713897705,
        0.5049988627433777,
        -6.550000190734863
      ]
    },
    {
      "bufferView": 2,
      "byteOffset": 12,
      "componentType": 5126,
      "normalized": false,
      "count": 48,
      "type": "VEC3"
    },
    {
      "bufferView": 2,
      "byteOffset": 24,
      "componentType": 5126,
      "normalized": false,
      "count": 48,
      "type": "VEC2"
    },
    {
      "bufferView": 2,
      "byteOffset": 32,
      "componentType": 5126,
      "normalized": false,
      "count": 48,
      "type": "VEC2"
    },
    {
      "bufferView": 3,
      "byteOffset": 0,
      "componentType": 5126,
      "normalized": false,
      "count": 1174,
      "type": "VEC3",
      "max": [
        6.399999618530273,
        3.2546229362487793,
        6.399999618530273
      ],
      "min": [
        -6.40000057220459,
        1.7349988222122192,
        -6.40000057220459
      ]
    },
    {
      "bufferView": 3,
      "byteOffset": 12,
      "componentType": 5126,
      "normalized": false,
      "count": 1174,
      "type": "VEC3"
    },
    {
      "bufferView": 3,
      "byteOffset": 24,
      "componentType": 5126,
      "normalized": false,
      "count": 1174,
      "type": "VEC2"
    },
    {
      "bufferView": 3,
      "byteOffset": 32,
      "componentType": 5126,
      "normalized": false,
      "count": 1174,
      "type": "VEC2"
    },
    {
      "bufferView": 4,
      "byteOffset": 0,
      "componentType": 5126,
      "normalized": false,
      "count": 47240,
      "type": "VEC3",
      "max": [
        5.799792766571045,
        0.49986618757247925,
        5.798957347869873
      ],
      "min": [
        -5.799793720245361,
        0.0,
        -5.79921293258667
      ]
    },
    {
      "bufferView": 4,
      "byteOffset": 12,
      "componentType": 5126,
      "normalized": false,
      "count": 47240,
      "type": "VEC3"
    },
    {
      "bufferView": 4,
      "byteOffset": 24,
      "componentType": 5126,
      "normalized": false,
      "count": 47240,
      "type": "VEC2"
    },
    {
      "bufferView": 4,
      "byteOffset": 32,
      "componentType": 5126,
      "normalized": false,
      "count": 47240,
      "type": "VEC2"
    }
  ],
  "asset": {
    "generator": "pygltflib@v1.16.5",
    "version": "2.0"
  },
  "bufferViews": [
    {
      "buffer": 0,
      "byteOffset": 0,
      "byteLength": 4240,
      "byteStride": 40,
      "target": 34962
    },
    {
      "buffer": 0,
      "byteOffset": 4240,
      "byteLength": 292272,
      "target": 34963
    },
    {
      "buffer": 0,
      "byteOffset": 296512,
      "byteLength": 1920,
      "byteStride": 40,
      "target": 34962
    },
    {
      "buffer": 0,
      "byteOffset": 298432,
      "byteLength": 46960,
      "byteStride": 40,
      "target": 34962
    },
    {
      "buffer": 0,
      "byteOffset": 345392,
      "byteLength": 1889600,
      "byteStride": 40,
      "target": 34962
    }
  ],
  "buffers": [
    {
      "uri": "BGA-144_12x12_13.05x13.05mm_P1.0mm.bin",
      "byteLength": 2234992
    }
  ],
  "extensionsUsed": [
    "KHR_materials_anisotropy",
    "KHR_materials_clearcoat",
    "KHR_materials_ior",
    "KHR_materials_specular",
    "KHR_texture_basisu",
    "KHR_texture_transform"
  ],
  "extensionsRequired": [
    "KHR_texture_basisu",
    "KHR_texture_transform"
  ],
  "images": [
    {
      "uri": "../shared_textures/pcb_edge_normal512.ktx2",
      "mimeType": "image/ktx2",
      "name": "pcb_edge_normal512"
    },
    {
      "uri": "../shared_textures/pcb_edge_color512.ktx2",
      "mimeType": "image/ktx2",
      "name": "pcb_edge_color512"
    },
    {
      "uri": "../shared_textures/aluminum_lathed_normal512.ktx2",
      "mimeType": "image/ktx2",
      "name": "aluminum_lathed_normal512"
    },
    {
      "uri": "../shared_textures/aluminum_lathed_color512.ktx2",
      "mimeType": "image/ktx2",
      "name": "aluminum_lathed_color512"
    },
    {
      "uri": "../shared_textures/metal_pins_normal512.ktx2",
      "mimeType": "image/ktx2",
      "name": "metal_pins_normal512"
    },
    {
      "uri": "../shared_textures/metal_pins_color512.ktx2",
      "mimeType": "image/ktx2",
      "name": "metal_pins_color512"
    }
  ],
  "materials": [
    {
      "extensions": {
        "KHR_materials_clearcoat": {
          "clearcoatFactor": 0.14230769872665405,
          "clearcoatRoughnessFactor": 0
        }
      },
      "extras": {
        "blenderkit": {
          "name": "Matte plastic",
          "description": "very simple roughness variated plastic",
          "tags": "plastic, touched, green",
          "is_generating_thumbnail": 0,
          "thumbnail": "//matte plastic _0000.png",
          "shaders": "principled, ",
          "upload_state": "uploaded metadata",
          "has_thumbnail": 1,
          "asset_base_id": "cb48a41d-6fc7-47b3-bd08-45275cfed0c2",
          "id": "62a6d8a0-393f-4bdd-9d1d-896fea3ca0be",
          "uploading": 0,
          "rating_quality": -1,
          "thumbnail_scale": 0.20000000298023224,
          "name_changed": 0,
          "name_old": "Matte plastic",
          "category": 24,
          "texture_resolution_max": 0,
          "texture_resolution_min": 0
        },
        "asset_data": {
          "thumbnail": "thumbnail_0f84bee4-0378-4bcd-8e2e-16a60a09613d.png.1024x1024_q85_crop-%2C.png",
          "thumbnail_small": "thumbnail_0f84bee4-0378-4bcd-8e2e-16a60a09613d.png.96x96_q85_crop-%2C.png",
          "download_url": "https://www.blenderkit.com/api/v1/downloads/5399/",
          "tooltip": "Matte plastic\n\nvery simple roughness variated plastic\n\nfiles size: 852KB\ntexture size: 1.0m\nlicense: royalty_free\n",
          "downloaded": 0,
          "texture_size_meters": 1,
          "thumbnail_%i": "thumbnail_0f84bee4-0378-4bcd-8e2e-16a60a09613d.png.1024x1024_q85_crop-%2C.png",
          "url": "https://public.blenderkit.com/public-assets/assets/62a6d8a0393f4bdd9d1d896fea3ca0be/files/blend_225be883-9a22-46c5-9b57-8786c2a32418.blend",
          "id": "62a6d8a0-393f-4bdd-9d1d-896fea3ca0be",
          "assetBaseId": "cb48a41d-6fc7-47b3-bd08-45275cfed0c2",
          "versionNumber": 1,
          "author": {
            "id": "2",
            "firstName": "Vil\u00e9m",
            "lastName": "Duha",
            "gravatarHash": "7d60f17cdce549f0f0159215cd006ae9",
            "avatar128": "/avatar-redirect/95cf3d26-35ba-41b0-84f1-55ee67cbeae4/128/",
            "aboutMe": "On this account we store assets created by BlenderKit team.",
            "aboutMeUrl": "https://www.blenderkit.com/about"
          },
          "name": "Matte plastic",
          "displayName": "Matte plastic",
          "description": "very simple roughness variated plastic",
          "assetType": "material",
          "category": "plastic",
          "adult": 0,
          "isFree": 1,
          "tags": [
            "plastic",
            "touched",
            "green",
            "non-manifold",
            "non-manifold",
            "non-manifold"
          ],
          "license": "royalty_free",
          "parameters": [
            {
              "parameterType": "textureSizeMeters",
              "value": 1
            },
            {
              "parameterType": "material_style",
              "value": "realistic"
            },
            {
              "parameterType": "purePbr",
              "value": 0
            },
            {
              "parameterType": "engine",
              "value": "cycles"
            },
            {
              "parameterType": "shaders",
              "value": [
                "principled"
              ]
            },
            {
              "parameterType": "animated",
              "value": 0
            },
            {
              "parameterType": "uv",
              "value": 0
            }
          ],
          "sourceAppName": "blender",
          "sourceAppVersion": "2.80.74",
          "addonVersion": "1.0.24",
          "created": "2019-06-11T10:47:32.996203+02:00",
          "verificationStatus": "validated",
          "isPrivate": 0,
          "files": [
            {
              "fileType": "blend",
              "downloadUrl": "https://www.blenderkit.com/api/v1/downloads/5399/"
            },
            {
              "fileType": "thumbnail",
              "downloadUrl": "https://www.blenderkit.com/api/v1/downloads/5398/",
              "fileThumbnail": "https://public.blenderkit.com/thumbnails/assets/62a6d8a0393f4bdd9d1d896fea3ca0be/files/thumbnail_0f84bee4-0378-4bcd-8e2e-16a60a09613d.png.96x96_q85_crop-%2C.png",
              "fileThumbnailLarge": "https://public.blenderkit.com/thumbnails/assets/62a6d8a0393f4bdd9d1d896fea3ca0be/files/thumbnail_0f84bee4-0378-4bcd-8e2e-16a60a09613d.png.1024x1024_q85_crop-%2C.png"
            }
          ],
          "filesSize": 58196,
          "thumbnailSmallUrl": "https://public.blenderkit.com/thumbnails/assets/62a6d8a0393f4bdd9d1d896fea3ca0be/files/thumbnail_0f84bee4-0378-4bcd-8e2e-16a60a09613d.png.256x256_q85_crop-%2C.png",
          "thumbnailMiddleUrl": "https://public.blenderkit.com/thumbnails/assets/62a6d8a0393f4bdd9d1d896fea3ca0be/files/thumbnail_0f84bee4-0378-4bcd-8e2e-16a60a09613d.png.512x512_q85_crop-%2C.png",
          "thumbnailLargeUrl": "https://public.blenderkit.com/thumbnails/assets/62a6d8a0393f4bdd9d1d896fea3ca0be/files/thumbnail_0f84bee4-0378-4bcd-8e2e-16a60a09613d.png.1024x1024_q85_crop-%2C.png",
          "thumbnailXlargeUrl": "https://public.blenderkit.com/thumbnails/assets/62a6d8a0393f4bdd9d1d896fea3ca0be/files/thumbnail_0f84bee4-0378-4bcd-8e2e-16a60a09613d.png.1024x1024_q85_crop-%2C.png",
          "thumbnailSmallUrlNonsquared": "https://public.blenderkit.com/thumbnails/assets/62a6d8a0393f4bdd9d1d896fea3ca0be/files/thumbnail_0f84bee4-0378-4bcd-8e2e-16a60a09613d.png.256x256_q85.png",
          "thumbnailMiddleUrlNonsquared": "https://public.blenderkit.com/thumbnails/assets/62a6d8a0393f4bdd9d1d896fea3ca0be/files/thumbnail_0f84bee4-0378-4bcd-8e2e-16a60a09613d.png.512x512_q85.png",
          "thumbnailLargeUrlNonsquared": "https://public.blenderkit.com/thumbnails/assets/62a6d8a0393f4bdd9d1d896fea3ca0be/files/thumbnail_0f84bee4-0378-4bcd-8e2e-16a60a09613d.png.1024x1024_q85.png",
          "thumbnailXlargeUrlNonsquared": "https://public.blenderkit.com/thumbnails/assets/62a6d8a0393f4bdd9d1d896fea3ca0be/files/thumbnail_0f84bee4-0378-4bcd-8e2e-16a60a09613d.png.2048x2048_q85.png",
          "showMarketingLabels": 1,
          "score": 192,
          "ratingsMedian": {
            "quality": 8.5,
            "workingHours": 2.4
          },
          "ratingsAverage": {
            "quality": 8,
            "workingHours": 2.4
          },
          "ratingsCount": {
            "competition-2022-votes": 0,
            "complexity": 0,
            "virtualPriceAdmin": 0,
            "virtualPrice": 0,
            "quality": 8,
            "workingHours": 8,
            "complexityAdmin": 0
          },
          "ratingsSum": {
            "quality": 64,
            "workingHours": 17.7
          },
          "canDownload": 1,
          "canDownloadError": 1,
          "file_name": "blend_225be883-9a22-46c5-9b57-8786c2a32418.blend"
        }
      },
      "pbrMetallicRoughness": {
        "baseColorFactor": [
          0.00345463864505291,
          0.029073704034090042,
          0.004590462893247604,
          1.0
        ],
        "metallicFactor": 0.0,
        "roughnessFactor": 0.0
      },
      "emissiveFactor": [
        0.0,
        0.0,
        0.0
      ],
      "alphaMode": "OPAQUE",
      "doubleSided": true,
      "name": "gltf_composite_darkgreen_1"
    },
    {
      "extensions": {
        "KHR_materials_clearcoat": {
          "clearcoatFactor": 0,
          "clearcoatRoughnessFactor": 0
        },
        "KHR_materials_ior": {
          "ior": 1.4500000476837158
        },
        "KHR_materials_specular": {
          "specularFactor": 0
        }
      },
      "pbrMetallicRoughness": {
        "baseColorFactor": [
          1.0,
          1.0,
          1.0,
          1.0
        ],
        "metallicFactor": 0.10000000149011612,
        "roughnessFactor": 0.5,
        "baseColorTexture": {
          "extensions": {
            "KHR_texture_transform": {
              "offset": [
                0,
                -3
              ],
              "scale": [
                4,
                4
              ]
            }
          },
          "index": 0,
          "texCoord": 0
        }
      },
      "normalTexture": {
        "index": 1,
        "scale": 1.0
      },
      "emissiveFactor": [
        0.0,
        0.0,
        0.0
      ],
      "alphaMode": "OPAQUE",
      "doubleSided": true,
      "name": "gltf_pcb_edge"
    },
    {
      "extensions": {
        "KHR_materials_anisotropy": {
          "anisotropyStrength": 0.01590868830680847,
          "anisotropyRotation": 0.7568381637931133
        },
        "KHR_materials_clearcoat": {
          "clearcoatFactor": 0,
          "clearcoatRoughnessFactor": 0
        },
        "KHR_materials_ior": {
          "ior": 1.4500000476837158
        },
        "KHR_materials_specular": {
          "specularColorFactor": [
            1.5681818723678589,
            1.5681818723678589,
            1.5681818723678589
          ]
        }
      },
      "pbrMetallicRoughness": {
        "baseColorFactor": [
          1.0,
          1.0,
          1.0,
          1.0
        ],
        "metallicFactor": 0.6954545974731445,
        "roughnessFactor": 0.2840908467769623,
        "baseColorTexture": {
          "index": 2,
          "texCoord": 0
        }
      },
      "normalTexture": {
        "index": 3,
        "scale": 0.5
      },
      "emissiveFactor": [
        0.0,
        0.0,
        0.0
      ],
      "alphaMode": "OPAQUE",
      "doubleSided": true,
      "name": "gltf_aluminum_lathed"
    },
    {
      "extensions": {
        "KHR_materials_ior": {
          "ior": 1.4500000476837158
        },
        "KHR_materials_specular": {
          "specularFactor": 0
        }
      },
      "pbrMetallicRoughness": {
        "baseColorFactor": [
          1.0,
          1.0,
          1.0,
          1.0
        ],
        "metallicFactor": 0.7818182110786438,
        "roughnessFactor": 0.28863638639450073,
        "baseColorTexture": {
          "index": 4,
          "texCoord": 0
        }
      },
      "normalTexture": {
        "index": 5,
        "scale": 1.0
      },
      "emissiveFactor": [
        0.0,
        0.0,
        0.0
      ],
      "alphaMode": "OPAQUE",
      "doubleSided": true,
      "name": "gltf_metal_pins"
    }
  ],
  "meshes": [
    {
      "primitives": [
        {
          "attributes": {
            "POSITION": 0,
            "NORMAL": 1,
            "TEXCOORD_0": 2,
            "TEXCOORD_1": 3
          },
          "indices": 4,
          "mode": 4,
          "material": 0
        },
        {
          "attributes": {
            "POSITION": 8,
            "NORMAL": 9,
            "TEXCOORD_0": 10,
            "TEXCOORD_1": 11
          },
          "indices": 5,
          "mode": 4,
          "material": 1
        },
        {
          "attributes": {
            "POSITION": 12,
            "NORMAL": 13,
            "TEXCOORD_0": 14,
            "TEXCOORD_1": 15
          },
          "indices": 6,
          "mode": 4,
          "material": 2
        },
        {
          "attributes": {
            "POSITION": 16,
            "NORMAL": 17,
            "TEXCOORD_0": 18,
            "TEXCOORD_1": 19
          },
          "indices": 7,
          "mode": 4,
          "material": 3
        }
      ],
      "name": "SHAPE_9_IndexedFaceSet"
    }
  ],
  "nodes": [
    {
      "extras": {
        "REF": "U",
        "PRIO": 0,
        "model_diagonal": 18.80997139423576
      },
      "mesh": 0,
      "name": "SHAPE_9_IndexedFaceSet"
    }
  ],
  "samplers": [
    {
      "magFilter": 9729,
      "minFilter": 9987,
      "wrapS": 10497,
      "wrapT": 10497
    }
  ],
  "scene": 0,
  "scenes": [
    {
      "extras": {},
      "name": "Scene",
      "nodes": [
        0
      ]
    }
  ],
  "textures": [
    {
      "extensions": {
        "KHR_texture_basisu": {
          "source": 1
        }
      },
      "sampler": 0
    },
    {
      "extensions": {
        "KHR_texture_basisu": {
          "source": 0
        }
      },
      "sampler": 0
    },
    {
      "extensions": {
        "KHR_texture_basisu": {
          "source": 3
        }
      },
      "sampler": 0
    },
    {
      "extensions": {
        "KHR_texture_basisu": {
          "source": 2
        }
      },
      "sampler": 0
    },
    {
      "extensions": {
        "KHR_texture_basisu": {
          "source": 5
        }
      },
      "sampler": 0
    },
    {
      "extensions": {
        "KHR_texture_basisu": {
          "source": 4
        }
      },
      "sampler": 0
    }
  ]
}