<?xml version="1.0" standalone="no"?>
 <!DOCTYPE svg PUBLIC "-//W3C//DTD SVG 1.1//EN" 
 "http://www.w3.org/Graphics/SVG/1.1/DTD/svg11.dtd"> 
<svg
  xmlns:svg="http://www.w3.org/2000/svg"
  xmlns="http://www.w3.org/2000/svg"
  xmlns:xlink="http://www.w3.org/1999/xlink"
  version="1.1"
  width="13.0302mm" height="12.8270mm" viewBox="0.0000 0.0000 13.0302 12.8270">
<title>SVG Image created as outline.svg date 2025/04/04 10:06:11 </title>
  <desc>Image generated by PCBNEW </desc>
<g style="fill:#000000; fill-opacity:1.0000;stroke:#000000; stroke-opacity:1.0000;
stroke-linecap:round; stroke-linejoin:round;"
 transform="translate(0 0) scale(1 1)">
</g>
<g style="fill:none; 
stroke:#000000; stroke-width:0.0200; stroke-opacity:1; 
stroke-linecap:round; stroke-linejoin:round;">
<path d="M0.3750 2.7750
L0.3750 10.0750
" />
<path d="M0.3750 10.0750
L0.3790 10.1980
" />
<path d="M0.3790 2.6520
L0.3750 2.7750
" />
<path d="M0.3790 10.1980
L0.3890 10.3210
" />
<path d="M0.3890 2.5290
L0.3790 2.6520
" />
<path d="M0.3890 10.3210
L0.4030 10.4440
" />
<path d="M0.4030 2.4060
L0.3890 2.5290
" />
<path d="M0.4030 10.4440
L0.4240 10.5650
" />
<path d="M0.4240 2.2850
L0.4030 2.4060
" />
<path d="M0.4240 10.5650
L0.4510 10.6840
" />
<path d="M0.4510 2.1660
L0.4240 2.2850
" />
<path d="M0.4510 10.6840
L0.4840 10.8020
" />
<path d="M0.4840 2.0480
L0.4510 2.1660
" />
<path d="M0.4840 10.8020
L0.5220 10.9170
" />
<path d="M0.5220 1.9330
L0.4840 2.0480
" />
<path d="M0.5220 10.9170
L0.5670 11.0310
" />
<path d="M0.5670 1.8190
L0.5220 1.9330
" />
<path d="M0.5670 11.0310
L0.6150 11.1430
" />
<path d="M0.6150 1.7070
L0.5670 1.8190
" />
<path d="M0.6150 11.1430
L0.6700 11.2520
" />
<path d="M0.6700 1.5980
L0.6150 1.7070
" />
<path d="M0.6700 11.2520
L0.7300 11.3580
" />
<path d="M0.7300 1.4920
L0.6700 1.5980
" />
<path d="M0.7300 11.3580
L0.7960 11.4620
" />
<path d="M0.7960 1.3880
L0.7300 1.4920
" />
<path d="M0.7960 11.4620
L0.8660 11.5610
" />
<path d="M0.8660 1.2890
L0.7960 1.3880
" />
<path d="M0.8660 11.5610
L0.9420 11.6590
" />
<path d="M0.9420 1.1910
L0.8660 1.2890
" />
<path d="M0.9420 11.6590
L1.0220 11.7520
" />
<path d="M1.0220 1.0980
L0.9420 1.1910
" />
<path d="M1.0220 11.7520
L1.1080 11.8420
" />
<path d="M1.1080 1.0080
L1.0220 1.0980
" />
</g>
<g style="fill:#000000; fill-opacity:1.0000; stroke:none;">
<circle cx="1.1080" cy="1.0080" r="0.0100" /> 
<circle cx="1.1080" cy="11.8420" r="0.0100" /> 
</g>
<g style="fill:none; 
stroke:#000000; stroke-width:0.0200; stroke-opacity:1; 
stroke-linecap:round; stroke-linejoin:round;">
<path d="M1.1080 11.8420
L1.1980 11.9280
" />
<path d="M1.1980 0.9220
L1.1080 1.0080
" />
<path d="M1.1980 11.9280
L1.2910 12.0080
" />
<path d="M1.2910 0.8420
L1.1980 0.9220
" />
<path d="M1.2910 12.0080
L1.3890 12.0840
" />
<path d="M1.3890 0.7660
L1.2910 0.8420
" />
<path d="M1.3890 12.0840
L1.4880 12.1540
" />
<path d="M1.4750 6.4250
L1.4870 6.0890
" />
<path d="M1.4780 6.5930
L1.4750 6.4250
" />
<path d="M1.4870 6.0890
L1.5200 5.7570
" />
<path d="M1.4870 6.7610
L1.4780 6.5930
" />
<path d="M1.4880 0.6960
L1.3890 0.7660
" />
<path d="M1.4880 12.1540
L1.5920 12.2200
" />
<path d="M1.5010 6.9280
L1.4870 6.7610
" />
<path d="M1.5200 5.7570
L1.5750 5.4290
" />
<path d="M1.5200 7.0930
L1.5010 6.9280
" />
<path d="M1.5250 6.4250
L1.5370 6.0920
" />
<path d="M1.5280 6.5920
L1.5250 6.4250
" />
<path d="M1.5370 6.0920
L1.5690 5.7630
" />
<path d="M1.5370 6.7580
L1.5280 6.5920
" />
<path d="M1.5450 7.2580
L1.5200 7.0930
" />
<path d="M1.5510 6.9230
L1.5370 6.7580
" />
<path d="M1.5690 5.7630
L1.6240 5.4390
" />
<path d="M1.5690 7.0870
L1.5510 6.9230
" />
<path d="M1.5750 5.4290
L1.6500 5.1080
" />
<path d="M1.5750 7.4210
L1.5450 7.2580
" />
<path d="M1.5920 0.6300
L1.4880 0.6960
" />
<path d="M1.5920 12.2200
L1.6980 12.2800
" />
<path d="M1.5940 7.2490
L1.5690 7.0870
" />
<path d="M1.6100 7.5820
L1.5750 7.4210
" />
<path d="M1.6240 5.4390
L1.7000 5.1210
" />
<path d="M1.6240 7.4110
L1.5940 7.2490
" />
<path d="M1.6500 5.1080
L1.7460 4.7940
" />
<path d="M1.6500 7.7420
L1.6100 7.5820
" />
<path d="M1.6590 7.5700
L1.6240 7.4110
" />
<path d="M1.6960 7.9000
L1.6500 7.7420
" />
<path d="M1.6980 0.5700
L1.5920 0.6300
" />
<path d="M1.6980 12.2800
L1.8070 12.3350
" />
<path d="M1.7000 5.1210
L1.7940 4.8100
" />
<path d="M1.7000 7.7290
L1.6590 7.5700
" />
<path d="M1.7440 7.8860
L1.7000 7.7290
" />
<path d="M1.7460 4.7940
L1.8620 4.4870
" />
<path d="M1.7460 8.0560
L1.6960 7.9000
" />
<path d="M1.7940 4.8100
L1.9090 4.5060
" />
<path d="M1.7940 8.0400
L1.7440 7.8860
" />
<path d="M1.8020 8.2110
L1.7460 8.0560
" />
<path d="M1.8070 0.5150
L1.6980 0.5700
" />
<path d="M1.8070 12.3350
L1.9190 12.3830
" />
<path d="M1.8490 8.1930
L1.7940 8.0400
" />
<path d="M1.8620 4.4870
L1.9980 4.1890
" />
<path d="M1.8620 8.3630
L1.8020 8.2110
" />
<path d="M1.9090 4.5060
L2.0430 4.2110
" />
<path d="M1.9090 8.3440
L1.8490 8.1930
" />
<path d="M1.9190 0.4670
L1.8070 0.5150
" />
<path d="M1.9190 12.3830
L2.0330 12.4280
" />
<path d="M1.9280 8.5130
L1.8620 8.3630
" />
<path d="M1.9740 8.4930
L1.9090 8.3440
" />
<path d="M1.9980 4.1890
L2.1520 3.9000
" />
<path d="M1.9980 8.6610
L1.9280 8.5130
" />
<path d="M2.0330 0.4220
L1.9190 0.4670
" />
<path d="M2.0330 12.4280
L2.1480 12.4660
" />
<path d="M2.0430 4.2110
L2.1950 3.9250
" />
<path d="M2.0430 8.6390
L1.9740 8.4930
" />
<path d="M2.0730 8.8070
L1.9980 8.6610
" />
<path d="M2.1170 8.7830
L2.0430 8.6390
" />
<path d="M2.1480 0.3840
L2.0330 0.4220
" />
<path d="M2.1480 12.4660
L2.2660 12.4990
" />
<path d="M2.1520 3.9000
L2.3250 3.6230
" />
<path d="M2.1520 8.9500
L2.0730 8.8070
" />
<path d="M2.1950 3.9250
L2.3660 3.6510
" />
<path d="M2.1950 8.9250
L2.1170 8.7830
" />
<path d="M2.2360 9.0900
L2.1520 8.9500
" />
<path d="M2.2660 0.3510
L2.1480 0.3840
" />
<path d="M2.2660 12.4990
L2.3850 12.5260
" />
<path d="M2.2790 9.0630
L2.1950 8.9250
" />
<path d="M2.3250 3.6230
L2.5160 3.3570
" />
<path d="M2.3250 9.2270
L2.2360 9.0900
" />
<path d="M2.3660 3.6510
L2.5550 3.3880
" />
<path d="M2.3660 9.1990
L2.2790 9.0630
" />
<path d="M2.3850 0.3240
L2.2660 0.3510
" />
<path d="M2.3850 12.5260
L2.5060 12.5470
" />
<path d="M2.4180 9.3610
L2.3250 9.2270
" />
<path d="M2.4580 9.3330
L2.3660 9.1990
" />
<path d="M2.5060 0.3030
L2.3850 0.3240
" />
<path d="M2.5060 12.5470
L2.6290 12.5610
" />
<path d="M2.5160 3.3570
L2.7230 3.1030
" />
<path d="M2.5160 9.4930
L2.4180 9.3610
" />
<path d="M2.5550 3.3880
L2.7600 3.1360
" />
<path d="M2.5550 9.4620
L2.4580 9.3330
" />
<path d="M2.6170 9.6220
L2.5160 9.4930
" />
<path d="M2.6290 0.2890
L2.5060 0.3030
" />
<path d="M2.6290 12.5610
L2.7520 12.5710
" />
<path d="M2.6550 9.5900
L2.5550 9.4620
" />
<path d="M2.7230 3.1030
L2.9470 2.8620
" />
<path d="M2.7230 9.7470
L2.6170 9.6220
" />
<path d="M2.7520 0.2790
L2.6290 0.2890
" />
<path d="M2.7520 12.5710
L2.8750 12.5750
" />
<path d="M2.7600 3.1360
L2.9820 2.8980
" />
<path d="M2.7600 9.7140
L2.6550 9.5900
" />
<path d="M2.8330 9.8690
L2.7230 9.7470
" />
<path d="M2.8690 9.8350
L2.7600 9.7140
" />
<path d="M2.8750 0.2750
L2.7520 0.2790
" />
<path d="M2.8750 12.5750
L10.1750 12.5750
" />
<path d="M2.9470 2.8620
L3.1870 2.6360
" />
<path d="M2.9470 9.9880
L2.8330 9.8690
" />
<path d="M2.9820 2.8980
L3.2200 2.6740
" />
<path d="M2.9820 9.9520
L2.8690 9.8350
" />
<path d="M3.0650 10.1030
L2.9470 9.9880
" />
<path d="M3.0990 10.0660
L2.9820 9.9520
" />
<path d="M3.1870 2.6360
L3.4430 2.4250
" />
<path d="M3.1870 10.2140
L3.0650 10.1030
" />
<path d="M3.2200 2.6740
L3.4740 2.4650
" />
<path d="M3.2200 10.1760
L3.0990 10.0660
" />
<path d="M3.3130 10.3210
L3.1870 10.2140
" />
<path d="M3.3450 10.2830
L3.2200 10.1760
" />
<path d="M3.4430 2.4250
L3.7150 2.2300
" />
<path d="M3.4430 10.4250
L3.3130 10.3210
" />
<path d="M3.4740 2.4650
L3.7420 2.2730
" />
<path d="M3.4740 10.3850
L3.3450 10.2830
" />
<path d="M3.5770 10.5250
L3.4430 10.4250
" />
<path d="M3.6060 10.4840
L3.4740 10.3850
" />
<path d="M3.7150 2.2300
L4.0000 2.0520
" />
<path d="M3.7150 10.6200
L3.5770 10.5250
" />
<path d="M3.7420 2.2730
L4.0250 2.0950
" />
<path d="M3.7420 10.5770
L3.6060 10.4840
" />
<path d="M3.8560 10.7100
L3.7150 10.6200
" />
<path d="M3.8830 10.6690
L3.7420 10.5770
" />
</g>
<g style="fill:#000000; fill-opacity:1.0000; stroke:none;">
<circle cx="4.0000" cy="2.0520" r="0.0100" /> 
</g>
<g style="fill:none; 
stroke:#000000; stroke-width:0.0200; stroke-opacity:1; 
stroke-linecap:round; stroke-linejoin:round;">
<path d="M4.0000 2.0520
L4.2980 1.8930
" />
<path d="M4.0000 10.7980
L3.8560 10.7100
" />
</g>
<g style="fill:#000000; fill-opacity:1.0000; stroke:none;">
<circle cx="4.0000" cy="10.7980" r="0.0100" /> 
<circle cx="4.0250" cy="2.0950" r="0.0100" /> 
</g>
<g style="fill:none; 
stroke:#000000; stroke-width:0.0200; stroke-opacity:1; 
stroke-linecap:round; stroke-linejoin:round;">
<path d="M4.0250 2.0950
L4.3200 1.9380
" />
<path d="M4.0250 10.7550
L3.8830 10.6690
" />
</g>
<g style="fill:#000000; fill-opacity:1.0000; stroke:none;">
<circle cx="4.0250" cy="10.7550" r="0.0100" /> 
</g>
<g style="fill:none; 
stroke:#000000; stroke-width:0.0200; stroke-opacity:1; 
stroke-linecap:round; stroke-linejoin:round;">
<path d="M4.2980 1.8930
L4.6020 1.7570
" />
<path d="M4.2980 10.9570
L4.0000 10.7980
" />
<path d="M4.3200 1.9380
L4.6220 1.8020
" />
<path d="M4.3200 10.9120
L4.0250 10.7550
" />
<path d="M4.6020 1.7570
L4.9130 1.6400
" />
<path d="M4.6020 11.0930
L4.2980 10.9570
" />
<path d="M4.6220 1.8020
L4.9290 1.6870
" />
<path d="M4.6220 11.0480
L4.3200 10.9120
" />
<path d="M4.9130 1.6400
L5.2290 1.5450
" />
<path d="M4.9130 11.2100
L4.6020 11.0930
" />
<path d="M4.9290 1.6870
L5.2420 1.5930
" />
<path d="M4.9290 11.1630
L4.6220 11.0480
" />
<path d="M5.2290 1.5450
L5.5490 1.4710
" />
<path d="M5.2290 11.3050
L4.9130 11.2100
" />
<path d="M5.2420 1.5930
L5.5590 1.5200
" />
<path d="M5.2420 11.2570
L4.9290 11.1630
" />
<path d="M5.5490 1.4710
L5.8730 1.4180
" />
<path d="M5.5490 11.3790
L5.2290 11.3050
" />
<path d="M5.5590 1.5200
L5.8790 1.4670
" />
<path d="M5.5590 11.3300
L5.2420 11.2570
" />
<path d="M5.8730 1.4180
L6.1990 1.3860
" />
<path d="M5.8730 11.4320
L5.5490 11.3790
" />
<path d="M5.8790 1.4670
L6.2020 1.4360
" />
<path d="M5.8790 11.3830
L5.5590 11.3300
" />
<path d="M6.1990 1.3860
L6.5250 1.3750
" />
<path d="M6.1990 11.4640
L5.8730 11.4320
" />
<path d="M6.2020 1.4360
L6.5250 1.4250
" />
<path d="M6.2020 11.4140
L5.8790 11.3830
" />
<path d="M6.5250 1.3750
L6.8510 1.3860
" />
<path d="M6.5250 1.4250
L6.8480 1.4360
" />
<path d="M6.5250 11.4250
L6.2020 11.4140
" />
<path d="M6.5250 11.4750
L6.1990 11.4640
" />
<path d="M6.8480 1.4360
L7.1710 1.4670
" />
<path d="M6.8480 11.4140
L6.5250 11.4250
" />
<path d="M6.8510 1.3860
L7.1770 1.4180
" />
<path d="M6.8510 11.4640
L6.5250 11.4750
" />
<path d="M7.1710 1.4670
L7.4910 1.5200
" />
<path d="M7.1710 11.3830
L6.8480 11.4140
" />
<path d="M7.1770 1.4180
L7.5010 1.4710
" />
<path d="M7.1770 11.4320
L6.8510 11.4640
" />
<path d="M7.4910 1.5200
L7.8080 1.5930
" />
<path d="M7.4910 11.3300
L7.1710 11.3830
" />
<path d="M7.5010 1.4710
L7.8210 1.5450
" />
<path d="M7.5010 11.3790
L7.1770 11.4320
" />
<path d="M7.8080 1.5930
L8.1210 1.6870
" />
<path d="M7.8080 11.2570
L7.4910 11.3300
" />
<path d="M7.8210 1.5450
L8.1370 1.6400
" />
<path d="M7.8210 11.3050
L7.5010 11.3790
" />
<path d="M8.1210 1.6870
L8.4280 1.8020
" />
<path d="M8.1210 11.1630
L7.8080 11.2570
" />
<path d="M8.1370 1.6400
L8.4480 1.7570
" />
<path d="M8.1370 11.2100
L7.8210 11.3050
" />
<path d="M8.4280 1.8020
L8.7300 1.9380
" />
<path d="M8.4280 11.0480
L8.1210 11.1630
" />
<path d="M8.4480 1.7570
L8.7520 1.8930
" />
<path d="M8.4480 11.0930
L8.1370 11.2100
" />
<path d="M8.7300 1.9380
L9.0250 2.0950
" />
<path d="M8.7300 10.9120
L8.4280 11.0480
" />
<path d="M8.7520 1.8930
L9.0500 2.0520
" />
<path d="M8.7520 10.9570
L8.4480 11.0930
" />
</g>
<g style="fill:#000000; fill-opacity:1.0000; stroke:none;">
<circle cx="9.0250" cy="2.0950" r="0.0100" /> 
</g>
<g style="fill:none; 
stroke:#000000; stroke-width:0.0200; stroke-opacity:1; 
stroke-linecap:round; stroke-linejoin:round;">
<path d="M9.0250 2.0950
L9.1670 2.1810
" />
<path d="M9.0250 10.7550
L8.7300 10.9120
" />
</g>
<g style="fill:#000000; fill-opacity:1.0000; stroke:none;">
<circle cx="9.0250" cy="10.7550" r="0.0100" /> 
<circle cx="9.0500" cy="2.0520" r="0.0100" /> 
</g>
<g style="fill:none; 
stroke:#000000; stroke-width:0.0200; stroke-opacity:1; 
stroke-linecap:round; stroke-linejoin:round;">
<path d="M9.0500 2.0520
L9.1940 2.1400
" />
<path d="M9.0500 10.7980
L8.7520 10.9570
" />
</g>
<g style="fill:#000000; fill-opacity:1.0000; stroke:none;">
<circle cx="9.0500" cy="10.7980" r="0.0100" /> 
</g>
<g style="fill:none; 
stroke:#000000; stroke-width:0.0200; stroke-opacity:1; 
stroke-linecap:round; stroke-linejoin:round;">
<path d="M9.1670 2.1810
L9.3080 2.2730
" />
<path d="M9.1940 2.1400
L9.3350 2.2300
" />
<path d="M9.3080 2.2730
L9.4440 2.3660
" />
<path d="M9.3080 10.5770
L9.0250 10.7550
" />
<path d="M9.3350 2.2300
L9.4730 2.3250
" />
<path d="M9.3350 10.6200
L9.0500 10.7980
" />
<path d="M9.4440 2.3660
L9.5760 2.4650
" />
<path d="M9.4730 2.3250
L9.6070 2.4250
" />
<path d="M9.5760 2.4650
L9.7050 2.5670
" />
<path d="M9.5760 10.3850
L9.3080 10.5770
" />
<path d="M9.6070 2.4250
L9.7370 2.5290
" />
<path d="M9.6070 10.4250
L9.3350 10.6200
" />
<path d="M9.7050 2.5670
L9.8300 2.6740
" />
<path d="M9.7370 2.5290
L9.8630 2.6360
" />
<path d="M9.8300 2.6740
L9.9510 2.7840
" />
<path d="M9.8300 10.1760
L9.5760 10.3850
" />
<path d="M9.8630 2.6360
L9.9850 2.7470
" />
<path d="M9.8630 10.2140
L9.6070 10.4250
" />
<path d="M9.9510 2.7840
L10.0680 2.8980
" />
<path d="M9.9850 2.7470
L10.1030 2.8620
" />
<path d="M10.0680 2.8980
L10.1810 3.0150
" />
<path d="M10.0680 9.9520
L9.8300 10.1760
" />
<path d="M10.1030 2.8620
L10.2170 2.9810
" />
<path d="M10.1030 9.9880
L9.8630 10.2140
" />
<path d="M10.1750 0.2750
L2.8750 0.2750
" />
<path d="M10.1750 12.5750
L10.2980 12.5710
" />
<path d="M10.1810 3.0150
L10.2900 3.1360
" />
<path d="M10.2170 2.9810
L10.3270 3.1030
" />
<path d="M10.2900 3.1360
L10.3950 3.2600
" />
<path d="M10.2900 9.7140
L10.0680 9.9520
" />
<path d="M10.2980 0.2790
L10.1750 0.2750
" />
<path d="M10.2980 12.5710
L10.4210 12.5610
" />
<path d="M10.3270 3.1030
L10.4330 3.2280
" />
<path d="M10.3270 9.7470
L10.1030 9.9880
" />
<path d="M10.3950 3.2600
L10.4950 3.3880
" />
<path d="M10.4210 0.2890
L10.2980 0.2790
" />
<path d="M10.4210 12.5610
L10.5440 12.5470
" />
<path d="M10.4330 3.2280
L10.5340 3.3570
" />
<path d="M10.4950 3.3880
L10.5920 3.5170
" />
<path d="M10.4950 9.4620
L10.2900 9.7140
" />
<path d="M10.5340 3.3570
L10.6320 3.4890
" />
<path d="M10.5340 9.4930
L10.3270 9.7470
" />
<path d="M10.5440 0.3030
L10.4210 0.2890
" />
<path d="M10.5440 12.5470
L10.6650 12.5260
" />
<path d="M10.5920 3.5170
L10.6840 3.6510
" />
<path d="M10.6320 3.4890
L10.7250 3.6230
" />
<path d="M10.6650 0.3240
L10.5440 0.3030
" />
<path d="M10.6650 12.5260
L10.7840 12.4990
" />
<path d="M10.6840 3.6510
L10.7710 3.7870
" />
<path d="M10.6840 9.1990
L10.4950 9.4620
" />
<path d="M10.7250 3.6230
L10.8140 3.7600
" />
<path d="M10.7250 9.2270
L10.5340 9.4930
" />
<path d="M10.7710 3.7870
L10.8550 3.9250
" />
<path d="M10.7840 0.3510
L10.6650 0.3240
" />
<path d="M10.7840 12.4990
L10.9020 12.4660
" />
<path d="M10.8140 3.7600
L10.8980 3.9000
" />
<path d="M10.8550 3.9250
L10.9330 4.0670
" />
<path d="M10.8550 8.9250
L10.6840 9.1990
" />
<path d="M10.8980 3.9000
L10.9770 4.0430
" />
<path d="M10.8980 8.9500
L10.7250 9.2270
" />
<path d="M10.9020 0.3840
L10.7840 0.3510
" />
<path d="M10.9020 12.4660
L11.0170 12.4280
" />
<path d="M10.9330 4.0670
L11.0070 4.2110
" />
<path d="M10.9770 4.0430
L11.0520 4.1890
" />
<path d="M11.0070 4.2110
L11.0760 4.3570
" />
<path d="M11.0070 8.6390
L10.8550 8.9250
" />
<path d="M11.0170 0.4220
L10.9020 0.3840
" />
<path d="M11.0170 12.4280
L11.1310 12.3830
" />
<path d="M11.0520 4.1890
L11.1220 4.3370
" />
<path d="M11.0520 8.6610
L10.8980 8.9500
" />
<path d="M11.0760 4.3570
L11.1410 4.5060
" />
<path d="M11.1220 4.3370
L11.1880 4.4870
" />
<path d="M11.1310 0.4670
L11.0170 0.4220
" />
<path d="M11.1310 12.3830
L11.2430 12.3350
" />
<path d="M11.1410 4.5060
L11.2010 4.6570
" />
<path d="M11.1410 8.3440
L11.0070 8.6390
" />
<path d="M11.1880 4.4870
L11.2480 4.6390
" />
<path d="M11.1880 8.3630
L11.0520 8.6610
" />
<path d="M11.2010 4.6570
L11.2560 4.8100
" />
<path d="M11.2430 0.5150
L11.1310 0.4670
" />
<path d="M11.2430 12.3350
L11.3520 12.2800
" />
<path d="M11.2480 4.6390
L11.3040 4.7940
" />
<path d="M11.2560 4.8100
L11.3060 4.9640
" />
<path d="M11.2560 8.0400
L11.1410 8.3440
" />
<path d="M11.3040 4.7940
L11.3540 4.9500
" />
<path d="M11.3040 8.0560
L11.1880 8.3630
" />
<path d="M11.3060 4.9640
L11.3500 5.1210
" />
<path d="M11.3500 5.1210
L11.3910 5.2800
" />
<path d="M11.3500 7.7290
L11.2560 8.0400
" />
<path d="M11.3520 0.5700
L11.2430 0.5150
" />
<path d="M11.3520 12.2800
L11.4580 12.2200
" />
<path d="M11.3540 4.9500
L11.4000 5.1080
" />
<path d="M11.3910 5.2800
L11.4260 5.4390
" />
<path d="M11.4000 5.1080
L11.4400 5.2680
" />
<path d="M11.4000 7.7420
L11.3040 8.0560
" />
<path d="M11.4260 5.4390
L11.4560 5.6010
" />
<path d="M11.4260 7.4110
L11.3500 7.7290
" />
<path d="M11.4400 5.2680
L11.4750 5.4290
" />
<path d="M11.4560 5.6010
L11.4810 5.7630
" />
<path d="M11.4580 0.6300
L11.3520 0.5700
" />
<path d="M11.4580 12.2200
L11.5620 12.1540
" />
<path d="M11.4750 5.4290
L11.5050 5.5920
" />
<path d="M11.4750 7.4210
L11.4000 7.7420
" />
<path d="M11.4810 5.7630
L11.4990 5.9270
" />
<path d="M11.4810 7.0870
L11.4260 7.4110
" />
<path d="M11.4990 5.9270
L11.5130 6.0920
" />
<path d="M11.5050 5.5920
L11.5300 5.7570
" />
<path d="M11.5130 6.0920
L11.5220 6.2580
" />
<path d="M11.5130 6.7580
L11.4810 7.0870
" />
<path d="M11.5220 6.2580
L11.5250 6.4250
" />
<path d="M11.5250 6.4250
L11.5130 6.7580
" />
<path d="M11.5300 5.7570
L11.5490 5.9220
" />
<path d="M11.5300 7.0930
L11.4750 7.4210
" />
<path d="M11.5490 5.9220
L11.5630 6.0890
" />
<path d="M11.5620 0.6960
L11.4580 0.6300
" />
<path d="M11.5620 12.1540
L11.6610 12.0840
" />
<path d="M11.5630 6.0890
L11.5720 6.2570
" />
<path d="M11.5630 6.7610
L11.5300 7.0930
" />
<path d="M11.5720 6.2570
L11.5750 6.4250
" />
<path d="M11.5750 6.4250
L11.5630 6.7610
" />
<path d="M11.6610 0.7660
L11.5620 0.6960
" />
<path d="M11.6610 12.0840
L11.7590 12.0080
" />
<path d="M11.7590 0.8420
L11.6610 0.7660
" />
<path d="M11.7590 12.0080
L11.8520 11.9280
" />
<path d="M11.8520 0.9220
L11.7590 0.8420
" />
<path d="M11.8520 11.9280
L11.9420 11.8420
" />
<path d="M11.9420 1.0080
L11.8520 0.9220
" />
</g>
<g style="fill:#000000; fill-opacity:1.0000; stroke:none;">
<circle cx="11.9420" cy="1.0080" r="0.0100" /> 
<circle cx="11.9420" cy="11.8420" r="0.0100" /> 
</g>
<g style="fill:none; 
stroke:#000000; stroke-width:0.0200; stroke-opacity:1; 
stroke-linecap:round; stroke-linejoin:round;">
<path d="M11.9420 11.8420
L12.0280 11.7520
" />
<path d="M12.0280 1.0980
L11.9420 1.0080
" />
<path d="M12.0280 11.7520
L12.1080 11.6590
" />
<path d="M12.1080 1.1910
L12.0280 1.0980
" />
<path d="M12.1080 11.6590
L12.1840 11.5610
" />
<path d="M12.1840 1.2890
L12.1080 1.1910
" />
<path d="M12.1840 11.5610
L12.2540 11.4620
" />
<path d="M12.2540 1.3880
L12.1840 1.2890
" />
<path d="M12.2540 11.4620
L12.3200 11.3580
" />
<path d="M12.3200 1.4920
L12.2540 1.3880
" />
<path d="M12.3200 11.3580
L12.3800 11.2520
" />
<path d="M12.3800 1.5980
L12.3200 1.4920
" />
<path d="M12.3800 11.2520
L12.4350 11.1430
" />
<path d="M12.4350 1.7070
L12.3800 1.5980
" />
<path d="M12.4350 11.1430
L12.4830 11.0310
" />
<path d="M12.4830 1.8190
L12.4350 1.7070
" />
<path d="M12.4830 11.0310
L12.5280 10.9170
" />
<path d="M12.5280 1.9330
L12.4830 1.8190
" />
<path d="M12.5280 10.9170
L12.5660 10.8020
" />
<path d="M12.5660 2.0480
L12.5280 1.9330
" />
<path d="M12.5660 10.8020
L12.5990 10.6840
" />
<path d="M12.5990 2.1660
L12.5660 2.0480
" />
<path d="M12.5990 10.6840
L12.6260 10.5650
" />
<path d="M12.6260 2.2850
L12.5990 2.1660
" />
<path d="M12.6260 10.5650
L12.6470 10.4440
" />
<path d="M12.6470 2.4060
L12.6260 2.2850
" />
<path d="M12.6470 10.4440
L12.6610 10.3210
" />
<path d="M12.6610 2.5290
L12.6470 2.4060
" />
<path d="M12.6610 10.3210
L12.6710 10.1980
" />
<path d="M12.6710 2.6520
L12.6610 2.5290
" />
<path d="M12.6710 10.1980
L12.6750 10.0750
" />
<path d="M12.6750 2.7750
L12.6710 2.6520
" />
<path d="M12.6750 10.0750
L12.6750 2.7750
" />
</g> 
</svg>
