<?xml version="1.0" standalone="no"?>
 <!DOCTYPE svg PUBLIC "-//W3C//DTD SVG 1.1//EN" 
 "http://www.w3.org/Graphics/SVG/1.1/DTD/svg11.dtd"> 
<svg
  xmlns:svg="http://www.w3.org/2000/svg"
  xmlns="http://www.w3.org/2000/svg"
  xmlns:xlink="http://www.w3.org/1999/xlink"
  version="1.1"
  width="13.1318mm" height="4.9276mm" viewBox="0.0000 0.0000 13.1318 4.9276">
<title>SVG Image created as outline.svg date 2025/06/16 09:17:47 </title>
  <desc>Image generated by PCBNEW </desc>
<g style="fill:#000000; fill-opacity:1.0000;stroke:#000000; stroke-opacity:1.0000;
stroke-linecap:round; stroke-linejoin:round;"
 transform="translate(0 0) scale(1 1)">
</g>
<g style="fill:none; 
stroke:#000000; stroke-width:0.0200; stroke-opacity:1; 
stroke-linecap:round; stroke-linejoin:round;">
<path d="M0.4250 1.0660
L0.4250 3.8640
" />
<path d="M0.4250 3.8640
L0.5750 4.0150
" />
<path d="M0.5750 0.9150
L0.4250 1.0660
" />
<path d="M1.0250 0.9150
L0.5750 0.9150
" />
<path d="M1.0250 0.9150
L1.1750 1.0660
" />
<path d="M1.0250 0.9150
L6.3250 0.9150
" />
<path d="M1.0250 4.0150
L0.5750 4.0150
" />
<path d="M1.0250 4.0150
L1.0250 0.9150
" />
<path d="M1.1750 1.0660
L11.9750 1.0660
" />
<path d="M1.1750 3.8640
L1.0250 4.0150
" />
<path d="M1.1750 3.8640
L1.1750 1.0660
" />
<path d="M1.3060 1.3800
L1.3890 1.4640
" />
<path d="M1.3060 3.5500
L1.3890 3.4660
" />
</g>
<g style="fill:#000000; fill-opacity:1.0000; stroke:none;">
<circle cx="1.3890" cy="1.4640" r="0.0100" /> 
</g>
<g style="fill:none; 
stroke:#000000; stroke-width:0.0200; stroke-opacity:1; 
stroke-linecap:round; stroke-linejoin:round;">
<path d="M1.3890 1.4640
L1.4550 1.5300
" />
</g>
<g style="fill:#000000; fill-opacity:1.0000; stroke:none;">
<circle cx="1.3890" cy="3.4660" r="0.0100" /> 
</g>
<g style="fill:none; 
stroke:#000000; stroke-width:0.0200; stroke-opacity:1; 
stroke-linecap:round; stroke-linejoin:round;">
<path d="M1.3890 3.4660
L1.4550 3.4000
" />
<path d="M1.4550 1.5300
L1.7260 1.5300
" />
<path d="M1.4550 3.4000
L1.4550 1.5300
" />
<path d="M1.7260 1.3800
L1.7260 1.3000
" />
<path d="M1.7260 1.3800
L1.7260 1.5300
" />
<path d="M1.7260 1.3800
L1.9250 1.3800
" />
<path d="M1.7260 1.5300
L1.7400 1.5300
" />
<path d="M1.7260 3.4000
L1.4550 3.4000
" />
<path d="M1.7260 3.4000
L1.7400 3.4000
" />
<path d="M1.7260 3.5500
L1.7260 3.4000
" />
<path d="M1.7260 3.5500
L1.9250 3.5500
" />
<path d="M1.7260 3.6300
L1.7260 3.5500
" />
<path d="M1.7400 0.4150
L1.7400 0.9150
" />
<path d="M1.7400 0.4150
L1.9100 0.4150
" />
<path d="M1.7400 1.3800
L1.7400 1.4800
" />
<path d="M1.7400 1.4800
L1.7400 1.5300
" />
<path d="M1.7400 1.4800
L1.9100 1.4800
" />
<path d="M1.7400 1.5300
L1.9100 1.5300
" />
<path d="M1.7400 3.4000
L1.7400 3.4500
" />
<path d="M1.7400 3.4000
L1.9100 3.4000
" />
<path d="M1.7400 3.4500
L1.7400 3.5500
" />
<path d="M1.7400 3.4500
L1.9100 3.4500
" />
<path d="M1.7400 4.0150
L1.7400 4.5150
" />
<path d="M1.7400 4.5150
L1.9100 4.5150
" />
<path d="M1.9100 0.4150
L1.9100 0.9150
" />
<path d="M1.9100 1.3800
L1.9100 1.4800
" />
<path d="M1.9100 1.4800
L1.9100 1.5300
" />
<path d="M1.9100 1.5300
L1.9250 1.5300
" />
<path d="M1.9100 3.4000
L1.9100 3.4500
" />
<path d="M1.9100 3.4000
L1.9250 3.4000
" />
<path d="M1.9100 3.4500
L1.9100 3.5500
" />
<path d="M1.9100 4.0150
L1.9100 4.5150
" />
<path d="M1.9250 1.3800
L1.9250 1.3000
" />
<path d="M1.9250 1.3800
L1.9250 1.5300
" />
<path d="M1.9250 1.5300
L2.2260 1.5300
" />
<path d="M1.9250 3.5500
L1.9250 3.4000
" />
<path d="M1.9250 3.6300
L1.9250 3.5500
" />
<path d="M2.2260 1.3800
L2.2260 1.3000
" />
<path d="M2.2260 1.3800
L2.2260 1.5300
" />
<path d="M2.2260 1.3800
L2.4250 1.3800
" />
<path d="M2.2260 1.5300
L2.2400 1.5300
" />
<path d="M2.2260 3.4000
L1.9250 3.4000
" />
<path d="M2.2260 3.4000
L2.2400 3.4000
" />
<path d="M2.2260 3.5500
L2.2260 3.4000
" />
<path d="M2.2260 3.5500
L2.4250 3.5500
" />
<path d="M2.2260 3.6300
L2.2260 3.5500
" />
<path d="M2.2400 0.4150
L2.2400 0.9150
" />
<path d="M2.2400 0.4150
L2.4100 0.4150
" />
<path d="M2.2400 1.3800
L2.2400 1.4800
" />
<path d="M2.2400 1.4800
L2.2400 1.5300
" />
<path d="M2.2400 1.4800
L2.4100 1.4800
" />
<path d="M2.2400 1.5300
L2.4100 1.5300
" />
<path d="M2.2400 3.4000
L2.2400 3.4500
" />
<path d="M2.2400 3.4000
L2.4100 3.4000
" />
<path d="M2.2400 3.4500
L2.2400 3.5500
" />
<path d="M2.2400 3.4500
L2.4100 3.4500
" />
<path d="M2.2400 4.0150
L2.2400 4.5150
" />
<path d="M2.2400 4.5150
L2.4100 4.5150
" />
<path d="M2.4100 0.4150
L2.4100 0.9150
" />
<path d="M2.4100 1.3800
L2.4100 1.4800
" />
<path d="M2.4100 1.4800
L2.4100 1.5300
" />
<path d="M2.4100 1.5300
L2.4250 1.5300
" />
<path d="M2.4100 3.4000
L2.4100 3.4500
" />
<path d="M2.4100 3.4000
L2.4250 3.4000
" />
<path d="M2.4100 3.4500
L2.4100 3.5500
" />
<path d="M2.4100 4.0150
L2.4100 4.5150
" />
<path d="M2.4250 1.3800
L2.4250 1.3000
" />
<path d="M2.4250 1.3800
L2.4250 1.5300
" />
<path d="M2.4250 1.5300
L2.7260 1.5300
" />
<path d="M2.4250 3.5500
L2.4250 3.4000
" />
<path d="M2.4250 3.6300
L2.4250 3.5500
" />
<path d="M2.7260 1.3800
L2.7260 1.3000
" />
<path d="M2.7260 1.3800
L2.7260 1.5300
" />
<path d="M2.7260 1.3800
L2.9250 1.3800
" />
<path d="M2.7260 1.5300
L2.7400 1.5300
" />
<path d="M2.7260 3.4000
L2.4250 3.4000
" />
<path d="M2.7260 3.4000
L2.7400 3.4000
" />
<path d="M2.7260 3.5500
L2.7260 3.4000
" />
<path d="M2.7260 3.5500
L2.9250 3.5500
" />
<path d="M2.7260 3.6300
L2.7260 3.5500
" />
<path d="M2.7400 0.4150
L2.7400 0.9150
" />
<path d="M2.7400 0.4150
L2.9100 0.4150
" />
<path d="M2.7400 1.3800
L2.7400 1.4800
" />
<path d="M2.7400 1.4800
L2.7400 1.5300
" />
<path d="M2.7400 1.4800
L2.9100 1.4800
" />
<path d="M2.7400 1.5300
L2.9100 1.5300
" />
<path d="M2.7400 3.4000
L2.7400 3.4500
" />
<path d="M2.7400 3.4000
L2.9100 3.4000
" />
<path d="M2.7400 3.4500
L2.7400 3.5500
" />
<path d="M2.7400 3.4500
L2.9100 3.4500
" />
<path d="M2.7400 4.0150
L2.7400 4.5150
" />
<path d="M2.7400 4.5150
L2.9100 4.5150
" />
<path d="M2.9100 0.4150
L2.9100 0.9150
" />
<path d="M2.9100 1.3800
L2.9100 1.4800
" />
<path d="M2.9100 1.4800
L2.9100 1.5300
" />
<path d="M2.9100 1.5300
L2.9250 1.5300
" />
<path d="M2.9100 3.4000
L2.9100 3.4500
" />
<path d="M2.9100 3.4000
L2.9250 3.4000
" />
<path d="M2.9100 3.4500
L2.9100 3.5500
" />
<path d="M2.9100 4.0150
L2.9100 4.5150
" />
<path d="M2.9250 1.3800
L2.9250 1.3000
" />
<path d="M2.9250 1.3800
L2.9250 1.5300
" />
<path d="M2.9250 1.5300
L3.2250 1.5300
" />
<path d="M2.9250 3.5500
L2.9250 3.4000
" />
<path d="M2.9250 3.6300
L2.9250 3.5500
" />
<path d="M3.2250 1.3800
L3.2250 1.3000
" />
<path d="M3.2250 1.3800
L3.2250 1.5300
" />
<path d="M3.2250 1.3800
L3.4250 1.3800
" />
<path d="M3.2250 1.5300
L3.2400 1.5300
" />
<path d="M3.2250 3.4000
L2.9250 3.4000
" />
<path d="M3.2250 3.4000
L3.2400 3.4000
" />
<path d="M3.2250 3.5500
L3.2250 3.4000
" />
<path d="M3.2250 3.5500
L3.4250 3.5500
" />
<path d="M3.2250 3.6300
L3.2250 3.5500
" />
<path d="M3.2400 0.4150
L3.2400 0.9150
" />
<path d="M3.2400 0.4150
L3.4100 0.4150
" />
<path d="M3.2400 1.3800
L3.2400 1.4800
" />
<path d="M3.2400 1.4800
L3.2400 1.5300
" />
<path d="M3.2400 1.4800
L3.4100 1.4800
" />
<path d="M3.2400 1.5300
L3.4100 1.5300
" />
<path d="M3.2400 3.4000
L3.2400 3.4500
" />
<path d="M3.2400 3.4000
L3.4100 3.4000
" />
<path d="M3.2400 3.4500
L3.2400 3.5500
" />
<path d="M3.2400 3.4500
L3.4100 3.4500
" />
<path d="M3.2400 4.0150
L3.2400 4.5150
" />
<path d="M3.2400 4.5150
L3.4100 4.5150
" />
<path d="M3.4100 0.4150
L3.4100 0.9150
" />
<path d="M3.4100 1.3800
L3.4100 1.4800
" />
<path d="M3.4100 1.4800
L3.4100 1.5300
" />
<path d="M3.4100 1.5300
L3.4250 1.5300
" />
<path d="M3.4100 3.4000
L3.4100 3.4500
" />
<path d="M3.4100 3.4000
L3.4250 3.4000
" />
<path d="M3.4100 3.4500
L3.4100 3.5500
" />
<path d="M3.4100 4.0150
L3.4100 4.5150
" />
<path d="M3.4250 1.3800
L3.4250 1.3000
" />
<path d="M3.4250 1.3800
L3.4250 1.5300
" />
<path d="M3.4250 1.5300
L3.7250 1.5300
" />
<path d="M3.4250 3.5500
L3.4250 3.4000
" />
<path d="M3.4250 3.6300
L3.4250 3.5500
" />
<path d="M3.7250 1.3800
L3.7250 1.3000
" />
<path d="M3.7250 1.3800
L3.7250 1.5300
" />
<path d="M3.7250 1.3800
L3.9250 1.3800
" />
<path d="M3.7250 1.5300
L3.7400 1.5300
" />
<path d="M3.7250 3.4000
L3.4250 3.4000
" />
<path d="M3.7250 3.4000
L3.7400 3.4000
" />
<path d="M3.7250 3.5500
L3.7250 3.4000
" />
<path d="M3.7250 3.5500
L3.9250 3.5500
" />
<path d="M3.7250 3.6300
L3.7250 3.5500
" />
<path d="M3.7400 0.4150
L3.7400 0.9150
" />
<path d="M3.7400 0.4150
L3.9100 0.4150
" />
<path d="M3.7400 1.3800
L3.7400 1.4800
" />
<path d="M3.7400 1.4800
L3.7400 1.5300
" />
<path d="M3.7400 1.4800
L3.9100 1.4800
" />
<path d="M3.7400 1.5300
L3.9100 1.5300
" />
<path d="M3.7400 3.4000
L3.7400 3.4500
" />
<path d="M3.7400 3.4000
L3.9100 3.4000
" />
<path d="M3.7400 3.4500
L3.7400 3.5500
" />
<path d="M3.7400 3.4500
L3.9100 3.4500
" />
<path d="M3.7400 4.0150
L3.7400 4.5150
" />
<path d="M3.7400 4.5150
L3.9100 4.5150
" />
<path d="M3.9100 0.4150
L3.9100 0.9150
" />
<path d="M3.9100 1.3800
L3.9100 1.4800
" />
<path d="M3.9100 1.4800
L3.9100 1.5300
" />
<path d="M3.9100 1.5300
L3.9250 1.5300
" />
<path d="M3.9100 3.4000
L3.9100 3.4500
" />
<path d="M3.9100 3.4000
L3.9250 3.4000
" />
<path d="M3.9100 3.4500
L3.9100 3.5500
" />
<path d="M3.9100 4.0150
L3.9100 4.5150
" />
<path d="M3.9250 1.3800
L3.9250 1.3000
" />
<path d="M3.9250 1.3800
L3.9250 1.5300
" />
<path d="M3.9250 1.5300
L4.2250 1.5300
" />
<path d="M3.9250 3.5500
L3.9250 3.4000
" />
<path d="M3.9250 3.6300
L3.9250 3.5500
" />
<path d="M4.2250 1.3800
L4.2250 1.3000
" />
<path d="M4.2250 1.3800
L4.2250 1.5300
" />
<path d="M4.2250 1.3800
L4.4250 1.3800
" />
<path d="M4.2250 1.5300
L4.2400 1.5300
" />
<path d="M4.2250 3.4000
L3.9250 3.4000
" />
<path d="M4.2250 3.4000
L4.2400 3.4000
" />
<path d="M4.2250 3.5500
L4.2250 3.4000
" />
<path d="M4.2250 3.5500
L4.4250 3.5500
" />
<path d="M4.2250 3.6300
L4.2250 3.5500
" />
<path d="M4.2400 0.4150
L4.2400 0.9150
" />
<path d="M4.2400 0.4150
L4.4100 0.4150
" />
<path d="M4.2400 1.3800
L4.2400 1.4800
" />
<path d="M4.2400 1.4800
L4.2400 1.5300
" />
<path d="M4.2400 1.4800
L4.4100 1.4800
" />
<path d="M4.2400 1.5300
L4.4100 1.5300
" />
<path d="M4.2400 3.4000
L4.2400 3.4500
" />
<path d="M4.2400 3.4000
L4.4100 3.4000
" />
<path d="M4.2400 3.4500
L4.2400 3.5500
" />
<path d="M4.2400 3.4500
L4.4100 3.4500
" />
<path d="M4.2400 4.0150
L4.2400 4.5150
" />
<path d="M4.2400 4.5150
L4.4100 4.5150
" />
<path d="M4.4100 0.4150
L4.4100 0.9150
" />
<path d="M4.4100 1.3800
L4.4100 1.4800
" />
<path d="M4.4100 1.4800
L4.4100 1.5300
" />
<path d="M4.4100 1.5300
L4.4250 1.5300
" />
<path d="M4.4100 3.4000
L4.4100 3.4500
" />
<path d="M4.4100 3.4000
L4.4250 3.4000
" />
<path d="M4.4100 3.4500
L4.4100 3.5500
" />
<path d="M4.4100 4.0150
L4.4100 4.5150
" />
<path d="M4.4250 1.3800
L4.4250 1.3000
" />
<path d="M4.4250 1.3800
L4.4250 1.5300
" />
<path d="M4.4250 1.5300
L4.7250 1.5300
" />
<path d="M4.4250 3.5500
L4.4250 3.4000
" />
<path d="M4.4250 3.6300
L4.4250 3.5500
" />
<path d="M4.7250 1.3800
L4.7250 1.3000
" />
<path d="M4.7250 1.3800
L4.7250 1.5300
" />
<path d="M4.7250 1.3800
L4.9250 1.3800
" />
<path d="M4.7250 1.5300
L4.7400 1.5300
" />
<path d="M4.7250 3.4000
L4.4250 3.4000
" />
<path d="M4.7250 3.4000
L4.7400 3.4000
" />
<path d="M4.7250 3.5500
L4.7250 3.4000
" />
<path d="M4.7250 3.5500
L4.9250 3.5500
" />
<path d="M4.7250 3.6300
L4.7250 3.5500
" />
<path d="M4.7400 0.4150
L4.7400 0.9150
" />
<path d="M4.7400 0.4150
L4.9100 0.4150
" />
<path d="M4.7400 1.3800
L4.7400 1.4800
" />
<path d="M4.7400 1.4800
L4.7400 1.5300
" />
<path d="M4.7400 1.4800
L4.9100 1.4800
" />
<path d="M4.7400 1.5300
L4.9100 1.5300
" />
<path d="M4.7400 3.4000
L4.7400 3.4500
" />
<path d="M4.7400 3.4000
L4.9100 3.4000
" />
<path d="M4.7400 3.4500
L4.7400 3.5500
" />
<path d="M4.7400 3.4500
L4.9100 3.4500
" />
<path d="M4.7400 4.0150
L4.7400 4.5150
" />
<path d="M4.7400 4.5150
L4.9100 4.5150
" />
<path d="M4.9100 0.4150
L4.9100 0.9150
" />
<path d="M4.9100 1.3800
L4.9100 1.4800
" />
<path d="M4.9100 1.4800
L4.9100 1.5300
" />
<path d="M4.9100 1.5300
L4.9250 1.5300
" />
<path d="M4.9100 3.4000
L4.9100 3.4500
" />
<path d="M4.9100 3.4000
L4.9250 3.4000
" />
<path d="M4.9100 3.4500
L4.9100 3.5500
" />
<path d="M4.9100 4.0150
L4.9100 4.5150
" />
<path d="M4.9250 1.3800
L4.9250 1.3000
" />
<path d="M4.9250 1.3800
L4.9250 1.5300
" />
<path d="M4.9250 1.5300
L5.2250 1.5300
" />
<path d="M4.9250 3.5500
L4.9250 3.4000
" />
<path d="M4.9250 3.6300
L4.9250 3.5500
" />
<path d="M5.2250 1.3800
L5.2250 1.3000
" />
<path d="M5.2250 1.3800
L5.2250 1.5300
" />
<path d="M5.2250 1.3800
L5.4250 1.3800
" />
<path d="M5.2250 1.5300
L5.2400 1.5300
" />
<path d="M5.2250 3.4000
L4.9250 3.4000
" />
<path d="M5.2250 3.4000
L5.2400 3.4000
" />
<path d="M5.2250 3.5500
L5.2250 3.4000
" />
<path d="M5.2250 3.5500
L5.4250 3.5500
" />
<path d="M5.2250 3.6300
L5.2250 3.5500
" />
<path d="M5.2400 0.4150
L5.2400 0.9150
" />
<path d="M5.2400 0.4150
L5.4100 0.4150
" />
<path d="M5.2400 1.3800
L5.2400 1.4800
" />
<path d="M5.2400 1.4800
L5.2400 1.5300
" />
<path d="M5.2400 1.4800
L5.4100 1.4800
" />
<path d="M5.2400 1.5300
L5.4100 1.5300
" />
<path d="M5.2400 3.4000
L5.2400 3.4500
" />
<path d="M5.2400 3.4000
L5.4100 3.4000
" />
<path d="M5.2400 3.4500
L5.2400 3.5500
" />
<path d="M5.2400 3.4500
L5.4100 3.4500
" />
<path d="M5.2400 4.0150
L5.2400 4.5150
" />
<path d="M5.2400 4.5150
L5.4100 4.5150
" />
<path d="M5.4100 0.4150
L5.4100 0.9150
" />
<path d="M5.4100 1.3800
L5.4100 1.4800
" />
<path d="M5.4100 1.4800
L5.4100 1.5300
" />
<path d="M5.4100 1.5300
L5.4250 1.5300
" />
<path d="M5.4100 3.4000
L5.4100 3.4500
" />
<path d="M5.4100 3.4000
L5.4250 3.4000
" />
<path d="M5.4100 3.4500
L5.4100 3.5500
" />
<path d="M5.4100 4.0150
L5.4100 4.5150
" />
<path d="M5.4250 1.3800
L5.4250 1.3000
" />
<path d="M5.4250 1.3800
L5.4250 1.5300
" />
<path d="M5.4250 1.5300
L5.7250 1.5300
" />
<path d="M5.4250 3.5500
L5.4250 3.4000
" />
<path d="M5.4250 3.6300
L5.4250 3.5500
" />
<path d="M5.7250 1.3800
L5.7250 1.3000
" />
<path d="M5.7250 1.3800
L5.7250 1.5300
" />
<path d="M5.7250 1.3800
L5.9260 1.3800
" />
<path d="M5.7250 1.5300
L5.7400 1.5300
" />
<path d="M5.7250 3.4000
L5.4250 3.4000
" />
<path d="M5.7250 3.4000
L5.7400 3.4000
" />
<path d="M5.7250 3.5500
L5.7250 3.4000
" />
<path d="M5.7250 3.5500
L5.9260 3.5500
" />
<path d="M5.7250 3.6300
L5.7250 3.5500
" />
<path d="M5.7400 0.4150
L5.7400 0.9150
" />
<path d="M5.7400 0.4150
L5.9100 0.4150
" />
<path d="M5.7400 1.3800
L5.7400 1.4800
" />
<path d="M5.7400 1.4800
L5.7400 1.5300
" />
<path d="M5.7400 1.4800
L5.9100 1.4800
" />
<path d="M5.7400 1.5300
L5.9100 1.5300
" />
<path d="M5.7400 3.4000
L5.7400 3.4500
" />
<path d="M5.7400 3.4000
L5.9100 3.4000
" />
<path d="M5.7400 3.4500
L5.7400 3.5500
" />
<path d="M5.7400 3.4500
L5.9100 3.4500
" />
<path d="M5.7400 4.0150
L5.7400 4.5150
" />
<path d="M5.7400 4.5150
L5.9100 4.5150
" />
<path d="M5.9100 0.4150
L5.9100 0.9150
" />
<path d="M5.9100 1.3800
L5.9100 1.4800
" />
<path d="M5.9100 1.4800
L5.9100 1.5300
" />
<path d="M5.9100 1.5300
L5.9260 1.5300
" />
<path d="M5.9100 3.4000
L5.9100 3.4500
" />
<path d="M5.9100 3.4000
L5.9260 3.4000
" />
<path d="M5.9100 3.4500
L5.9100 3.5500
" />
<path d="M5.9100 4.0150
L5.9100 4.5150
" />
<path d="M5.9260 1.3800
L5.9260 1.3000
" />
<path d="M5.9260 1.3800
L5.9260 1.5300
" />
<path d="M5.9260 1.5300
L6.2250 1.5300
" />
<path d="M5.9260 3.5500
L5.9260 3.4000
" />
<path d="M5.9260 3.6300
L5.9260 3.5500
" />
<path d="M6.2250 1.3800
L6.2250 1.3000
" />
<path d="M6.2250 1.3800
L6.2250 1.5300
" />
<path d="M6.2250 1.3800
L6.4260 1.3800
" />
<path d="M6.2250 1.5300
L6.2400 1.5300
" />
<path d="M6.2250 3.4000
L5.9260 3.4000
" />
<path d="M6.2250 3.4000
L6.2400 3.4000
" />
<path d="M6.2250 3.5500
L6.2250 3.4000
" />
<path d="M6.2250 3.5500
L6.4260 3.5500
" />
<path d="M6.2250 3.6300
L6.2250 3.5500
" />
<path d="M6.2400 0.4150
L6.2400 0.9150
" />
<path d="M6.2400 0.4150
L6.4100 0.4150
" />
<path d="M6.2400 1.3800
L6.2400 1.4800
" />
<path d="M6.2400 1.4800
L6.2400 1.5300
" />
<path d="M6.2400 1.4800
L6.4100 1.4800
" />
<path d="M6.2400 1.5300
L6.4100 1.5300
" />
<path d="M6.2400 3.4000
L6.2400 3.4500
" />
<path d="M6.2400 3.4000
L6.4100 3.4000
" />
<path d="M6.2400 3.4500
L6.2400 3.5500
" />
<path d="M6.2400 3.4500
L6.4100 3.4500
" />
<path d="M6.2400 4.0150
L6.2400 4.5150
" />
<path d="M6.2400 4.5150
L6.4100 4.5150
" />
<path d="M6.3250 0.8160
L6.3250 0.9150
" />
<path d="M6.3250 4.0150
L1.0250 4.0150
" />
<path d="M6.3250 4.0150
L6.3250 4.1140
" />
<path d="M6.4100 0.4150
L6.4100 0.8160
" />
<path d="M6.4100 1.3800
L6.4100 1.4800
" />
<path d="M6.4100 1.4800
L6.4100 1.5300
" />
<path d="M6.4100 1.5300
L6.4260 1.5300
" />
<path d="M6.4100 3.4000
L6.4100 3.4500
" />
<path d="M6.4100 3.4000
L6.4260 3.4000
" />
<path d="M6.4100 3.4500
L6.4100 3.5500
" />
<path d="M6.4100 4.1140
L6.4100 4.5150
" />
<path d="M6.4260 1.3800
L6.4260 1.3000
" />
<path d="M6.4260 1.3800
L6.4260 1.5300
" />
<path d="M6.4260 1.5300
L6.7250 1.5300
" />
<path d="M6.4260 3.5500
L6.4260 3.4000
" />
<path d="M6.4260 3.6300
L6.4260 3.5500
" />
<path d="M6.7250 1.3800
L6.7250 1.3000
" />
<path d="M6.7250 1.3800
L6.7250 1.5300
" />
<path d="M6.7250 1.3800
L6.9250 1.3800
" />
<path d="M6.7250 1.5300
L6.7400 1.5300
" />
<path d="M6.7250 3.4000
L6.4260 3.4000
" />
<path d="M6.7250 3.4000
L6.7400 3.4000
" />
<path d="M6.7250 3.5500
L6.7250 3.4000
" />
<path d="M6.7250 3.5500
L6.9250 3.5500
" />
<path d="M6.7250 3.6300
L6.7250 3.5500
" />
<path d="M6.7400 0.4150
L6.7400 0.8160
" />
<path d="M6.7400 0.4150
L6.9100 0.4150
" />
<path d="M6.7400 1.3800
L6.7400 1.4800
" />
<path d="M6.7400 1.4800
L6.7400 1.5300
" />
<path d="M6.7400 1.4800
L6.9100 1.4800
" />
<path d="M6.7400 1.5300
L6.9100 1.5300
" />
<path d="M6.7400 3.4000
L6.7400 3.4500
" />
<path d="M6.7400 3.4000
L6.9100 3.4000
" />
<path d="M6.7400 3.4500
L6.7400 3.5500
" />
<path d="M6.7400 3.4500
L6.9100 3.4500
" />
<path d="M6.7400 4.1140
L6.7400 4.5150
" />
<path d="M6.7400 4.5150
L6.9100 4.5150
" />
<path d="M6.8250 0.8160
L6.3250 0.8160
" />
<path d="M6.8250 0.8160
L6.8250 0.9150
" />
<path d="M6.8250 0.9150
L6.3250 0.9150
" />
<path d="M6.8250 0.9150
L8.8250 0.9150
" />
<path d="M6.8250 4.0150
L6.3250 4.0150
" />
<path d="M6.8250 4.0150
L6.8250 4.1140
" />
<path d="M6.8250 4.1140
L6.3250 4.1140
" />
<path d="M6.9100 0.4150
L6.9100 0.9150
" />
<path d="M6.9100 1.3800
L6.9100 1.4800
" />
<path d="M6.9100 1.4800
L6.9100 1.5300
" />
<path d="M6.9100 1.5300
L6.9250 1.5300
" />
<path d="M6.9100 3.4000
L6.9100 3.4500
" />
<path d="M6.9100 3.4000
L6.9250 3.4000
" />
<path d="M6.9100 3.4500
L6.9100 3.5500
" />
<path d="M6.9100 4.0150
L6.9100 4.5150
" />
<path d="M6.9250 1.3800
L6.9250 1.3000
" />
<path d="M6.9250 1.3800
L6.9250 1.5300
" />
<path d="M6.9250 1.5300
L7.2250 1.5300
" />
<path d="M6.9250 3.5500
L6.9250 3.4000
" />
<path d="M6.9250 3.6300
L6.9250 3.5500
" />
<path d="M7.2250 1.3800
L7.2250 1.3000
" />
<path d="M7.2250 1.3800
L7.2250 1.5300
" />
<path d="M7.2250 1.3800
L7.4250 1.3800
" />
<path d="M7.2250 1.5300
L7.2400 1.5300
" />
<path d="M7.2250 3.4000
L6.9250 3.4000
" />
<path d="M7.2250 3.4000
L7.2400 3.4000
" />
<path d="M7.2250 3.5500
L7.2250 3.4000
" />
<path d="M7.2250 3.5500
L7.4250 3.5500
" />
<path d="M7.2250 3.6300
L7.2250 3.5500
" />
<path d="M7.2400 0.4150
L7.2400 0.9150
" />
<path d="M7.2400 0.4150
L7.4110 0.4150
" />
<path d="M7.2400 1.3800
L7.2400 1.4800
" />
<path d="M7.2400 1.4800
L7.2400 1.5300
" />
<path d="M7.2400 1.4800
L7.4110 1.4800
" />
<path d="M7.2400 1.5300
L7.4110 1.5300
" />
<path d="M7.2400 3.4000
L7.2400 3.4500
" />
<path d="M7.2400 3.4000
L7.4110 3.4000
" />
<path d="M7.2400 3.4500
L7.2400 3.5500
" />
<path d="M7.2400 3.4500
L7.4110 3.4500
" />
<path d="M7.2400 4.0150
L7.2400 4.5150
" />
<path d="M7.2400 4.5150
L7.4110 4.5150
" />
<path d="M7.4110 0.4150
L7.4110 0.9150
" />
<path d="M7.4110 1.3800
L7.4110 1.4800
" />
<path d="M7.4110 1.4800
L7.4110 1.5300
" />
<path d="M7.4110 1.5300
L7.4250 1.5300
" />
<path d="M7.4110 3.4000
L7.4110 3.4500
" />
<path d="M7.4110 3.4000
L7.4250 3.4000
" />
<path d="M7.4110 3.4500
L7.4110 3.5500
" />
<path d="M7.4110 4.0150
L7.4110 4.5150
" />
<path d="M7.4250 1.3800
L7.4250 1.3000
" />
<path d="M7.4250 1.3800
L7.4250 1.5300
" />
<path d="M7.4250 1.5300
L7.7250 1.5300
" />
<path d="M7.4250 3.5500
L7.4250 3.4000
" />
<path d="M7.4250 3.6300
L7.4250 3.5500
" />
<path d="M7.7250 1.3800
L7.7250 1.3000
" />
<path d="M7.7250 1.3800
L7.7250 1.5300
" />
<path d="M7.7250 1.3800
L7.9250 1.3800
" />
<path d="M7.7250 1.5300
L7.7400 1.5300
" />
<path d="M7.7250 3.4000
L7.4250 3.4000
" />
<path d="M7.7250 3.4000
L7.7400 3.4000
" />
<path d="M7.7250 3.5500
L7.7250 3.4000
" />
<path d="M7.7250 3.5500
L7.9250 3.5500
" />
<path d="M7.7250 3.6300
L7.7250 3.5500
" />
<path d="M7.7400 0.4150
L7.7400 0.9150
" />
<path d="M7.7400 0.4150
L7.9100 0.4150
" />
<path d="M7.7400 1.3800
L7.7400 1.4800
" />
<path d="M7.7400 1.4800
L7.7400 1.5300
" />
<path d="M7.7400 1.4800
L7.9100 1.4800
" />
<path d="M7.7400 1.5300
L7.9100 1.5300
" />
<path d="M7.7400 3.4000
L7.7400 3.4500
" />
<path d="M7.7400 3.4000
L7.9100 3.4000
" />
<path d="M7.7400 3.4500
L7.7400 3.5500
" />
<path d="M7.7400 3.4500
L7.9100 3.4500
" />
<path d="M7.7400 4.0150
L7.7400 4.5150
" />
<path d="M7.7400 4.5150
L7.9100 4.5150
" />
<path d="M7.9100 0.4150
L7.9100 0.9150
" />
<path d="M7.9100 1.3800
L7.9100 1.4800
" />
<path d="M7.9100 1.4800
L7.9100 1.5300
" />
<path d="M7.9100 1.5300
L7.9250 1.5300
" />
<path d="M7.9100 3.4000
L7.9100 3.4500
" />
<path d="M7.9100 3.4000
L7.9250 3.4000
" />
<path d="M7.9100 3.4500
L7.9100 3.5500
" />
<path d="M7.9100 4.0150
L7.9100 4.5150
" />
<path d="M7.9250 1.3800
L7.9250 1.3000
" />
<path d="M7.9250 1.3800
L7.9250 1.5300
" />
<path d="M7.9250 1.5300
L8.2250 1.5300
" />
<path d="M7.9250 3.5500
L7.9250 3.4000
" />
<path d="M7.9250 3.6300
L7.9250 3.5500
" />
<path d="M8.2250 1.3800
L8.2250 1.3000
" />
<path d="M8.2250 1.3800
L8.2250 1.5300
" />
<path d="M8.2250 1.3800
L8.4250 1.3800
" />
<path d="M8.2250 1.5300
L8.2390 1.5300
" />
<path d="M8.2250 3.4000
L7.9250 3.4000
" />
<path d="M8.2250 3.4000
L8.2390 3.4000
" />
<path d="M8.2250 3.5500
L8.2250 3.4000
" />
<path d="M8.2250 3.5500
L8.4250 3.5500
" />
<path d="M8.2250 3.6300
L8.2250 3.5500
" />
<path d="M8.2390 0.4150
L8.2390 0.9150
" />
<path d="M8.2390 0.4150
L8.4100 0.4150
" />
<path d="M8.2390 1.3800
L8.2390 1.4800
" />
<path d="M8.2390 1.4800
L8.2390 1.5300
" />
<path d="M8.2390 1.4800
L8.4100 1.4800
" />
<path d="M8.2390 1.5300
L8.4100 1.5300
" />
<path d="M8.2390 3.4000
L8.2390 3.4500
" />
<path d="M8.2390 3.4000
L8.4100 3.4000
" />
<path d="M8.2390 3.4500
L8.2390 3.5500
" />
<path d="M8.2390 3.4500
L8.4100 3.4500
" />
<path d="M8.2390 4.0150
L8.2390 4.5150
" />
<path d="M8.2390 4.5150
L8.4100 4.5150
" />
<path d="M8.4100 0.4150
L8.4100 0.9150
" />
<path d="M8.4100 1.3800
L8.4100 1.4800
" />
<path d="M8.4100 1.4800
L8.4100 1.5300
" />
<path d="M8.4100 1.5300
L8.4250 1.5300
" />
<path d="M8.4100 3.4000
L8.4100 3.4500
" />
<path d="M8.4100 3.4000
L8.4250 3.4000
" />
<path d="M8.4100 3.4500
L8.4100 3.5500
" />
<path d="M8.4100 4.0150
L8.4100 4.5150
" />
<path d="M8.4250 1.3800
L8.4250 1.3000
" />
<path d="M8.4250 1.3800
L8.4250 1.5300
" />
<path d="M8.4250 1.5300
L8.7250 1.5300
" />
<path d="M8.4250 3.5500
L8.4250 3.4000
" />
<path d="M8.4250 3.6300
L8.4250 3.5500
" />
<path d="M8.7250 1.3800
L8.7250 1.3000
" />
<path d="M8.7250 1.3800
L8.7250 1.5300
" />
<path d="M8.7250 1.3800
L8.9250 1.3800
" />
<path d="M8.7250 1.5300
L8.7400 1.5300
" />
<path d="M8.7250 3.4000
L8.4250 3.4000
" />
<path d="M8.7250 3.4000
L8.7400 3.4000
" />
<path d="M8.7250 3.5500
L8.7250 3.4000
" />
<path d="M8.7250 3.5500
L8.9250 3.5500
" />
<path d="M8.7250 3.6300
L8.7250 3.5500
" />
<path d="M8.7400 0.4150
L8.7400 0.9150
" />
<path d="M8.7400 0.4150
L8.9100 0.4150
" />
<path d="M8.7400 1.3800
L8.7400 1.4800
" />
<path d="M8.7400 1.4800
L8.7400 1.5300
" />
<path d="M8.7400 1.4800
L8.9100 1.4800
" />
<path d="M8.7400 1.5300
L8.9100 1.5300
" />
<path d="M8.7400 3.4000
L8.7400 3.4500
" />
<path d="M8.7400 3.4000
L8.9100 3.4000
" />
<path d="M8.7400 3.4500
L8.7400 3.5500
" />
<path d="M8.7400 3.4500
L8.9100 3.4500
" />
<path d="M8.7400 4.0150
L8.7400 4.5150
" />
<path d="M8.7400 4.5150
L8.9100 4.5150
" />
<path d="M8.8250 0.8160
L8.8250 0.9150
" />
<path d="M8.8250 0.8160
L9.3250 0.8160
" />
<path d="M8.8250 0.9150
L9.3250 0.9150
" />
<path d="M8.8250 4.0150
L6.8250 4.0150
" />
<path d="M8.8250 4.0150
L8.8250 4.1140
" />
<path d="M8.8250 4.0150
L9.3250 4.0150
" />
<path d="M8.8250 4.1140
L9.3250 4.1140
" />
<path d="M8.9100 0.4150
L8.9100 0.8160
" />
<path d="M8.9100 1.3800
L8.9100 1.4800
" />
<path d="M8.9100 1.4800
L8.9100 1.5300
" />
<path d="M8.9100 1.5300
L8.9250 1.5300
" />
<path d="M8.9100 3.4000
L8.9100 3.4500
" />
<path d="M8.9100 3.4000
L8.9250 3.4000
" />
<path d="M8.9100 3.4500
L8.9100 3.5500
" />
<path d="M8.9100 4.1140
L8.9100 4.5150
" />
<path d="M8.9250 1.3800
L8.9250 1.3000
" />
<path d="M8.9250 1.3800
L8.9250 1.5300
" />
<path d="M8.9250 1.5300
L9.2240 1.5300
" />
<path d="M8.9250 3.5500
L8.9250 3.4000
" />
<path d="M8.9250 3.6300
L8.9250 3.5500
" />
<path d="M9.2240 1.3800
L9.2240 1.3000
" />
<path d="M9.2240 1.3800
L9.2240 1.5300
" />
<path d="M9.2240 1.3800
L9.4250 1.3800
" />
<path d="M9.2240 1.5300
L9.2400 1.5300
" />
<path d="M9.2240 3.4000
L8.9250 3.4000
" />
<path d="M9.2240 3.4000
L9.2400 3.4000
" />
<path d="M9.2240 3.5500
L9.2240 3.4000
" />
<path d="M9.2240 3.5500
L9.4250 3.5500
" />
<path d="M9.2240 3.6300
L9.2240 3.5500
" />
<path d="M9.2400 0.4150
L9.2400 0.8160
" />
<path d="M9.2400 0.4150
L9.4100 0.4150
" />
<path d="M9.2400 1.3800
L9.2400 1.4800
" />
<path d="M9.2400 1.4800
L9.2400 1.5300
" />
<path d="M9.2400 1.4800
L9.4100 1.4800
" />
<path d="M9.2400 1.5300
L9.4100 1.5300
" />
<path d="M9.2400 3.4000
L9.2400 3.4500
" />
<path d="M9.2400 3.4000
L9.4100 3.4000
" />
<path d="M9.2400 3.4500
L9.2400 3.5500
" />
<path d="M9.2400 3.4500
L9.4100 3.4500
" />
<path d="M9.2400 4.1140
L9.2400 4.5150
" />
<path d="M9.2400 4.5150
L9.4100 4.5150
" />
<path d="M9.3250 0.8160
L9.3250 0.9150
" />
<path d="M9.3250 0.9150
L12.1250 0.9150
" />
<path d="M9.3250 4.0150
L9.3250 4.1140
" />
<path d="M9.4100 0.4150
L9.4100 0.9150
" />
<path d="M9.4100 1.3800
L9.4100 1.4800
" />
<path d="M9.4100 1.4800
L9.4100 1.5300
" />
<path d="M9.4100 1.5300
L9.4250 1.5300
" />
<path d="M9.4100 3.4000
L9.4100 3.4500
" />
<path d="M9.4100 3.4000
L9.4250 3.4000
" />
<path d="M9.4100 3.4500
L9.4100 3.5500
" />
<path d="M9.4100 4.0150
L9.4100 4.5150
" />
<path d="M9.4250 1.3800
L9.4250 1.3000
" />
<path d="M9.4250 1.3800
L9.4250 1.5300
" />
<path d="M9.4250 1.5300
L9.7240 1.5300
" />
<path d="M9.4250 3.5500
L9.4250 3.4000
" />
<path d="M9.4250 3.6300
L9.4250 3.5500
" />
<path d="M9.7240 1.3800
L9.7240 1.3000
" />
<path d="M9.7240 1.3800
L9.7240 1.5300
" />
<path d="M9.7240 1.3800
L9.9250 1.3800
" />
<path d="M9.7240 1.5300
L9.7400 1.5300
" />
<path d="M9.7240 3.4000
L9.4250 3.4000
" />
<path d="M9.7240 3.4000
L9.7400 3.4000
" />
<path d="M9.7240 3.5500
L9.7240 3.4000
" />
<path d="M9.7240 3.5500
L9.9250 3.5500
" />
<path d="M9.7240 3.6300
L9.7240 3.5500
" />
<path d="M9.7400 0.4150
L9.7400 0.9150
" />
<path d="M9.7400 0.4150
L9.9100 0.4150
" />
<path d="M9.7400 1.3800
L9.7400 1.4800
" />
<path d="M9.7400 1.4800
L9.7400 1.5300
" />
<path d="M9.7400 1.4800
L9.9100 1.4800
" />
<path d="M9.7400 1.5300
L9.9100 1.5300
" />
<path d="M9.7400 3.4000
L9.7400 3.4500
" />
<path d="M9.7400 3.4000
L9.9100 3.4000
" />
<path d="M9.7400 3.4500
L9.7400 3.5500
" />
<path d="M9.7400 3.4500
L9.9100 3.4500
" />
<path d="M9.7400 4.0150
L9.7400 4.5150
" />
<path d="M9.7400 4.5150
L9.9100 4.5150
" />
<path d="M9.9100 0.4150
L9.9100 0.9150
" />
<path d="M9.9100 1.3800
L9.9100 1.4800
" />
<path d="M9.9100 1.4800
L9.9100 1.5300
" />
<path d="M9.9100 1.5300
L9.9250 1.5300
" />
<path d="M9.9100 3.4000
L9.9100 3.4500
" />
<path d="M9.9100 3.4000
L9.9250 3.4000
" />
<path d="M9.9100 3.4500
L9.9100 3.5500
" />
<path d="M9.9100 4.0150
L9.9100 4.5150
" />
<path d="M9.9250 1.3800
L9.9250 1.3000
" />
<path d="M9.9250 1.3800
L9.9250 1.5300
" />
<path d="M9.9250 1.5300
L10.2250 1.5300
" />
<path d="M9.9250 3.5500
L9.9250 3.4000
" />
<path d="M9.9250 3.6300
L9.9250 3.5500
" />
<path d="M10.2250 1.3800
L10.2250 1.3000
" />
<path d="M10.2250 1.3800
L10.2250 1.5300
" />
<path d="M10.2250 1.3800
L10.4250 1.3800
" />
<path d="M10.2250 1.5300
L10.2400 1.5300
" />
<path d="M10.2250 3.4000
L9.9250 3.4000
" />
<path d="M10.2250 3.4000
L10.2400 3.4000
" />
<path d="M10.2250 3.5500
L10.2250 3.4000
" />
<path d="M10.2250 3.5500
L10.4250 3.5500
" />
<path d="M10.2250 3.6300
L10.2250 3.5500
" />
<path d="M10.2400 0.4150
L10.2400 0.9150
" />
<path d="M10.2400 0.4150
L10.4100 0.4150
" />
<path d="M10.2400 1.3800
L10.2400 1.4800
" />
<path d="M10.2400 1.4800
L10.2400 1.5300
" />
<path d="M10.2400 1.4800
L10.4100 1.4800
" />
<path d="M10.2400 1.5300
L10.4100 1.5300
" />
<path d="M10.2400 3.4000
L10.2400 3.4500
" />
<path d="M10.2400 3.4000
L10.4100 3.4000
" />
<path d="M10.2400 3.4500
L10.2400 3.5500
" />
<path d="M10.2400 3.4500
L10.4100 3.4500
" />
<path d="M10.2400 4.0150
L10.2400 4.5150
" />
<path d="M10.2400 4.5150
L10.4100 4.5150
" />
<path d="M10.4100 0.4150
L10.4100 0.9150
" />
<path d="M10.4100 1.3800
L10.4100 1.4800
" />
<path d="M10.4100 1.4800
L10.4100 1.5300
" />
<path d="M10.4100 1.5300
L10.4250 1.5300
" />
<path d="M10.4100 3.4000
L10.4100 3.4500
" />
<path d="M10.4100 3.4000
L10.4250 3.4000
" />
<path d="M10.4100 3.4500
L10.4100 3.5500
" />
<path d="M10.4100 4.0150
L10.4100 4.5150
" />
<path d="M10.4250 1.3800
L10.4250 1.3000
" />
<path d="M10.4250 1.3800
L10.4250 1.5300
" />
<path d="M10.4250 1.5300
L10.7250 1.5300
" />
<path d="M10.4250 3.5500
L10.4250 3.4000
" />
<path d="M10.4250 3.6300
L10.4250 3.5500
" />
<path d="M10.7250 1.3800
L10.7250 1.3000
" />
<path d="M10.7250 1.3800
L10.7250 1.5300
" />
<path d="M10.7250 1.3800
L10.9250 1.3800
" />
<path d="M10.7250 1.5300
L10.7400 1.5300
" />
<path d="M10.7250 3.4000
L10.4250 3.4000
" />
<path d="M10.7250 3.4000
L10.7400 3.4000
" />
<path d="M10.7250 3.5500
L10.7250 3.4000
" />
<path d="M10.7250 3.5500
L10.9250 3.5500
" />
<path d="M10.7250 3.6300
L10.7250 3.5500
" />
<path d="M10.7400 0.4150
L10.7400 0.9150
" />
<path d="M10.7400 0.4150
L10.9100 0.4150
" />
<path d="M10.7400 1.3800
L10.7400 1.4800
" />
<path d="M10.7400 1.4800
L10.7400 1.5300
" />
<path d="M10.7400 1.4800
L10.9100 1.4800
" />
<path d="M10.7400 1.5300
L10.9100 1.5300
" />
<path d="M10.7400 3.4000
L10.7400 3.4500
" />
<path d="M10.7400 3.4000
L10.9100 3.4000
" />
<path d="M10.7400 3.4500
L10.7400 3.5500
" />
<path d="M10.7400 3.4500
L10.9100 3.4500
" />
<path d="M10.7400 4.0150
L10.7400 4.5150
" />
<path d="M10.7400 4.5150
L10.9100 4.5150
" />
<path d="M10.9100 0.4150
L10.9100 0.9150
" />
<path d="M10.9100 1.3800
L10.9100 1.4800
" />
<path d="M10.9100 1.4800
L10.9100 1.5300
" />
<path d="M10.9100 1.5300
L10.9250 1.5300
" />
<path d="M10.9100 3.4000
L10.9100 3.4500
" />
<path d="M10.9100 3.4000
L10.9250 3.4000
" />
<path d="M10.9100 3.4500
L10.9100 3.5500
" />
<path d="M10.9100 4.0150
L10.9100 4.5150
" />
<path d="M10.9250 1.3800
L10.9250 1.3000
" />
<path d="M10.9250 1.3800
L10.9250 1.5300
" />
<path d="M10.9250 1.5300
L11.2250 1.5300
" />
<path d="M10.9250 3.5500
L10.9250 3.4000
" />
<path d="M10.9250 3.6300
L10.9250 3.5500
" />
<path d="M11.2250 1.3800
L11.2250 1.3000
" />
<path d="M11.2250 1.3800
L11.2250 1.5300
" />
<path d="M11.2250 1.3800
L11.4250 1.3800
" />
<path d="M11.2250 1.5300
L11.2400 1.5300
" />
<path d="M11.2250 3.4000
L10.9250 3.4000
" />
<path d="M11.2250 3.4000
L11.2400 3.4000
" />
<path d="M11.2250 3.5500
L11.2250 3.4000
" />
<path d="M11.2250 3.5500
L11.4250 3.5500
" />
<path d="M11.2250 3.6300
L11.2250 3.5500
" />
<path d="M11.2400 0.4150
L11.2400 0.9150
" />
<path d="M11.2400 0.4150
L11.4100 0.4150
" />
<path d="M11.2400 1.3800
L11.2400 1.4800
" />
<path d="M11.2400 1.4800
L11.2400 1.5300
" />
<path d="M11.2400 1.4800
L11.4100 1.4800
" />
<path d="M11.2400 1.5300
L11.4100 1.5300
" />
<path d="M11.2400 3.4000
L11.2400 3.4500
" />
<path d="M11.2400 3.4000
L11.4100 3.4000
" />
<path d="M11.2400 3.4500
L11.2400 3.5500
" />
<path d="M11.2400 3.4500
L11.4100 3.4500
" />
<path d="M11.2400 4.0150
L11.2400 4.5150
" />
<path d="M11.2400 4.5150
L11.4100 4.5150
" />
<path d="M11.4100 0.4150
L11.4100 0.9150
" />
<path d="M11.4100 1.3800
L11.4100 1.4800
" />
<path d="M11.4100 1.4800
L11.4100 1.5300
" />
<path d="M11.4100 1.5300
L11.4250 1.5300
" />
<path d="M11.4100 3.4000
L11.4100 3.4500
" />
<path d="M11.4100 3.4000
L11.4250 3.4000
" />
<path d="M11.4100 3.4500
L11.4100 3.5500
" />
<path d="M11.4100 4.0150
L11.4100 4.5150
" />
<path d="M11.4240 1.5300
L11.6950 1.5300
" />
<path d="M11.4250 1.3800
L11.4250 1.3000
" />
<path d="M11.4250 1.3800
L11.4250 1.5300
" />
<path d="M11.4250 3.5500
L11.4250 3.4000
" />
<path d="M11.4250 3.6300
L11.4250 3.5500
" />
<path d="M11.6950 1.5300
L11.6950 3.4000
" />
<path d="M11.6950 3.4000
L11.4240 3.4000
" />
<path d="M11.7610 1.4640
L11.6950 1.5300
" />
</g>
<g style="fill:#000000; fill-opacity:1.0000; stroke:none;">
<circle cx="11.7610" cy="1.4640" r="0.0100" /> 
</g>
<g style="fill:none; 
stroke:#000000; stroke-width:0.0200; stroke-opacity:1; 
stroke-linecap:round; stroke-linejoin:round;">
<path d="M11.7610 3.4660
L11.6950 3.4000
" />
</g>
<g style="fill:#000000; fill-opacity:1.0000; stroke:none;">
<circle cx="11.7610" cy="3.4660" r="0.0100" /> 
</g>
<g style="fill:none; 
stroke:#000000; stroke-width:0.0200; stroke-opacity:1; 
stroke-linecap:round; stroke-linejoin:round;">
<path d="M11.8440 1.3800
L11.7610 1.4640
" />
<path d="M11.8440 3.5500
L11.7610 3.4660
" />
<path d="M11.9750 3.8640
L1.1750 3.8640
" />
<path d="M11.9750 3.8640
L11.9750 1.0660
" />
<path d="M12.1250 0.9150
L11.9750 1.0660
" />
<path d="M12.1250 4.0150
L9.3250 4.0150
" />
<path d="M12.1250 4.0150
L11.9750 3.8640
" />
<path d="M12.1250 4.0150
L12.1250 0.9150
" />
<path d="M12.5750 0.9150
L12.1250 0.9150
" />
<path d="M12.5750 4.0150
L12.1250 4.0150
" />
<path d="M12.5750 4.0150
L12.7250 3.8640
" />
<path d="M12.7250 1.0660
L12.5750 0.9150
" />
<path d="M12.7250 1.0660
L12.7250 3.8640
" />
</g> 
</svg>
