<?xml version="1.0" standalone="no"?>
 <!DOCTYPE svg PUBLIC "-//W3C//DTD SVG 1.1//EN" 
 "http://www.w3.org/Graphics/SVG/1.1/DTD/svg11.dtd"> 
<svg
  xmlns:svg="http://www.w3.org/2000/svg"
  xmlns="http://www.w3.org/2000/svg"
  xmlns:xlink="http://www.w3.org/1999/xlink"
  version="1.1"
  width="8.8646mm" height="5.8166mm" viewBox="0.0000 0.0000 8.8646 5.8166">
<title>SVG Image created as outline.svg date 2025/04/04 10:06:05 </title>
  <desc>Image generated by PCBNEW </desc>
<g style="fill:#000000; fill-opacity:1.0000;stroke:#000000; stroke-opacity:1.0000;
stroke-linecap:round; stroke-linejoin:round;"
 transform="translate(0 0) scale(1 1)">
</g>
<g style="fill:none; 
stroke:#000000; stroke-width:0.0200; stroke-opacity:1; 
stroke-linecap:round; stroke-linejoin:round;">
<path d="M0.5840 2.1390
L0.5840 1.4790
" />
<path d="M0.5840 3.4080
L0.5840 4.0690
" />
<path d="M1.0920 1.4790
L0.5840 1.4790
" />
<path d="M1.0920 2.0110
L1.0920 1.4790
" />
<path d="M1.0920 2.0110
L1.1420 2.0110
" />
<path d="M1.0920 2.1390
L0.5840 2.1390
" />
<path d="M1.0920 3.4080
L0.5840 3.4080
" />
<path d="M1.0920 4.0690
L0.5840 4.0690
" />
<path d="M1.0920 4.0690
L1.0920 3.5360
" />
<path d="M1.1420 2.0110
L1.2940 2.0110
" />
<path d="M1.1420 2.1390
L1.0920 2.1390
" />
<path d="M1.1420 2.1390
L1.1420 2.0110
" />
<path d="M1.1420 3.4080
L1.0920 3.4080
" />
<path d="M1.1420 3.5360
L1.0920 3.5360
" />
<path d="M1.1420 3.5360
L1.1420 2.0110
" />
<path d="M1.2940 1.4790
L1.0920 1.4790
" />
<path d="M1.2940 2.0110
L1.2940 1.4790
" />
<path d="M1.2940 3.5360
L1.1420 3.5360
" />
<path d="M1.2940 3.5360
L1.6000 3.5360
" />
<path d="M1.2940 4.0690
L1.0920 4.0690
" />
<path d="M1.2940 4.0690
L1.2940 3.5360
" />
<path d="M1.6000 1.4790
L1.2940 1.4790
" />
<path d="M1.6000 2.0110
L1.2940 2.0110
" />
<path d="M1.6000 2.0110
L1.6000 1.4790
" />
<path d="M1.6000 4.0690
L1.2940 4.0690
" />
<path d="M1.6000 4.0690
L1.6000 3.5360
" />
<path d="M1.6000 4.0690
L7.2890 4.0690
" />
<path d="M2.0060 0.5900
L2.4110 0.5900
" />
<path d="M2.0060 1.4790
L2.0060 0.5900
" />
<path d="M2.4110 0.5900
L2.4110 1.4790
" />
<path d="M4.5450 5.3130
L4.5450 4.0690
" />
<path d="M4.5450 5.3130
L4.7990 5.5690
" />
<path d="M5.0030 0.5900
L5.4090 0.5900
" />
<path d="M5.0030 1.4790
L5.0030 0.5900
" />
<path d="M5.4090 0.5900
L5.4090 1.4790
" />
<path d="M5.5860 5.5690
L4.7990 5.5690
" />
<path d="M5.5860 5.5690
L5.8420 5.3130
" />
<path d="M5.8420 5.3130
L5.8420 4.0690
" />
<path d="M6.5020 0.5900
L6.9070 0.5900
" />
<path d="M6.5020 1.4790
L6.5020 0.5900
" />
<path d="M6.9070 0.5900
L6.9070 1.4790
" />
<path d="M7.2890 1.4790
L1.6000 1.4790
" />
<path d="M7.2890 2.0110
L7.2890 1.4790
" />
<path d="M7.2890 3.5360
L7.5930 3.5360
" />
<path d="M7.2890 4.0690
L7.2890 3.5360
" />
<path d="M7.5930 1.4790
L7.2890 1.4790
" />
<path d="M7.5930 2.0110
L7.2890 2.0110
" />
<path d="M7.5930 2.0110
L7.5930 1.4790
" />
<path d="M7.5930 2.0110
L7.7460 2.0110
" />
<path d="M7.5930 4.0690
L7.2890 4.0690
" />
<path d="M7.5930 4.0690
L7.5930 3.5360
" />
<path d="M7.7460 2.0110
L7.7460 2.1390
" />
<path d="M7.7460 2.0110
L7.7460 3.5360
" />
<path d="M7.7460 2.0110
L7.7970 2.0110
" />
<path d="M7.7460 2.1390
L7.7970 2.1390
" />
<path d="M7.7460 3.4080
L7.7460 3.5360
" />
<path d="M7.7460 3.4080
L7.7970 3.4080
" />
<path d="M7.7460 3.5360
L7.5930 3.5360
" />
<path d="M7.7970 1.4790
L7.5930 1.4790
" />
<path d="M7.7970 1.4790
L8.3050 1.4790
" />
<path d="M7.7970 2.0110
L7.7970 1.4790
" />
<path d="M7.7970 2.1390
L8.3050 2.1390
" />
<path d="M7.7970 3.4080
L8.3050 3.4080
" />
<path d="M7.7970 3.5360
L7.7460 3.5360
" />
<path d="M7.7970 4.0690
L7.5930 4.0690
" />
<path d="M7.7970 4.0690
L7.7970 3.5360
" />
<path d="M7.7970 4.0690
L8.3050 4.0690
" />
<path d="M8.3050 2.1390
L8.3050 1.4790
" />
<path d="M8.3050 3.4080
L8.3050 4.0690
" />
</g> 
</svg>
