{
  "accessors": [
    {
      "bufferView": 0,
      "byteOffset": 0,
      "componentType": 5126,
      "normalized": false,
      "count": 20,
      "type": "VEC3",
      "max": [
        0.4921259880065918,
        0.3936767578125,
        1.1086463928222656e-05
      ],
      "min": [
        -0.4921259880065918,
        -0.3937007784843445,
        -0.3464566767215729
      ]
    },
    {
      "bufferView": 0,
      "byteOffset": 12,
      "componentType": 5126,
      "normalized": false,
      "count": 20,
      "type": "VEC3"
    },
    {
      "bufferView": 0,
      "byteOffset": 24,
      "componentType": 5126,
      "normalized": false,
      "count": 20,
      "type": "VEC2"
    },
    {
      "bufferView": 1,
      "byteOffset": 0,
      "componentType": 5123,
      "normalized": false,
      "count": 30,
      "type": "SCALAR"
    },
    {
      "bufferView": 1,
      "byteOffset": 60,
      "componentType": 5123,
      "normalized": false,
      "count": 228,
      "type": "SCALAR"
    },
    {
      "bufferView": 1,
      "byteOffset": 516,
      "componentType": 5123,
      "normalized": false,
      "count": 6,
      "type": "SCALAR"
    },
    {
      "bufferView": 2,
      "byteOffset": 0,
      "componentType": 5126,
      "normalized": false,
      "count": 150,
      "type": "VEC3",
      "max": [
        0.4527558982372284,
        0.3936959505081177,
        0.007848542183637619
      ],
      "min": [
        -0.4527558982372284,
        -0.3937007784843445,
        0.0
      ]
    },
    {
      "bufferView": 2,
      "byteOffset": 12,
      "componentType": 5126,
      "normalized": false,
      "count": 150,
      "type": "VEC3"
    },
    {
      "bufferView": 2,
      "byteOffset": 24,
      "componentType": 5126,
      "normalized": false,
      "count": 150,
      "type": "VEC2"
    },
    {
      "bufferView": 3,
      "byteOffset": 0,
      "componentType": 5126,
      "normalized": false,
      "count": 4,
      "type": "VEC3",
      "max": [
        0.4921259880065918,
        0.3936767578125,
        -0.3464566767215729
      ],
      "min": [
        -0.4921259880065918,
        -0.3937007784843445,
        -0.3464566767215729
      ]
    },
    {
      "bufferView": 3,
      "byteOffset": 12,
      "componentType": 5126,
      "normalized": false,
      "count": 4,
      "type": "VEC3"
    },
    {
      "bufferView": 3,
      "byteOffset": 24,
      "componentType": 5126,
      "normalized": false,
      "count": 4,
      "type": "VEC2"
    }
  ],
  "asset": {
    "generator": "pygltflib@v1.16.4",
    "version": "2.0"
  },
  "bufferViews": [
    {
      "buffer": 0,
      "byteOffset": 0,
      "byteLength": 640,
      "byteStride": 32,
      "target": 34962
    },
    {
      "buffer": 0,
      "byteOffset": 640,
      "byteLength": 528,
      "target": 34963
    },
    {
      "buffer": 0,
      "byteOffset": 1168,
      "byteLength": 4800,
      "byteStride": 32,
      "target": 34962
    },
    {
      "buffer": 0,
      "byteOffset": 5968,
      "byteLength": 128,
      "byteStride": 32,
      "target": 34962
    }
  ],
  "buffers": [
    {
      "uri": "Oscillator_SMD_Microchip_DSC1103DI2_2.5x2x0.85mm-microchip-technology-dsc1103di2-125-0000.bin",
      "byteLength": 6096
    }
  ],
  "extensionsUsed": [
    "KHR_materials_ior",
    "KHR_materials_specular",
    "KHR_texture_basisu"
  ],
  "extensionsRequired": [
    "KHR_texture_basisu"
  ],
  "images": [
    {
      "uri": "../shared_textures/plastic_chip_normal.ktx2",
      "mimeType": "image/ktx2",
      "name": "plastic_chip_normal"
    },
    {
      "uri": "../shared_textures/plastic_chip_color.ktx2",
      "mimeType": "image/ktx2",
      "name": "plastic_chip_color"
    },
    {
      "uri": "../shared_textures/metal_pins_normal.ktx2",
      "mimeType": "image/ktx2",
      "name": "metal_pins_normal"
    },
    {
      "uri": "../shared_textures/metal_pins_color.ktx2",
      "mimeType": "image/ktx2",
      "name": "metal_pins_color"
    },
    {
      "uri": "microchip-technology-dsc1103di2-marking_normal.ktx2",
      "mimeType": "image/ktx2",
      "name": "microchip-technology-dsc1103di2-marking_normal"
    },
    {
      "uri": "microchip-technology-dsc1103di2-marking_color.ktx2",
      "mimeType": "image/ktx2",
      "name": "microchip-technology-dsc1103di2-marking_color"
    },
    {
      "uri": "microchip-technology-dsc1103di2-marking_metallic_roughness.ktx2",
      "mimeType": "image/ktx2",
      "name": "microchip-technology-dsc1103di2-marking_metallic_roughness"
    }
  ],
  "materials": [
    {
      "pbrMetallicRoughness": {
        "baseColorFactor": [
          1.0,
          1.0,
          1.0,
          1.0
        ],
        "metallicFactor": 0.13699999451637268,
        "roughnessFactor": 0.37063413858413696,
        "baseColorTexture": {
          "index": 0,
          "texCoord": 0
        }
      },
      "normalTexture": {
        "index": 1,
        "scale": 1.0
      },
      "emissiveFactor": [
        0.0,
        0.0,
        0.0
      ],
      "alphaMode": "OPAQUE",
      "alphaCutoff": 0.5,
      "doubleSided": true,
      "name": "gltf_plastic_chip"
    },
    {
      "extensions": {
        "KHR_materials_ior": {
          "ior": 1.4500000476837158
        },
        "KHR_materials_specular": {
          "specularFactor": 0
        }
      },
      "pbrMetallicRoughness": {
        "baseColorFactor": [
          1.0,
          1.0,
          1.0,
          1.0
        ],
        "metallicFactor": 0.7818182110786438,
        "roughnessFactor": 0.28863638639450073,
        "baseColorTexture": {
          "index": 2,
          "texCoord": 0
        }
      },
      "normalTexture": {
        "index": 3,
        "scale": 1.0
      },
      "emissiveFactor": [
        0.0,
        0.0,
        0.0
      ],
      "alphaMode": "OPAQUE",
      "alphaCutoff": 0.5,
      "doubleSided": true,
      "name": "gltf_metal_pins"
    },
    {
      "pbrMetallicRoughness": {
        "baseColorFactor": [
          1.0,
          1.0,
          1.0,
          1.0
        ],
        "metallicFactor": 1.0,
        "roughnessFactor": 1.0,
        "baseColorTexture": {
          "index": 4,
          "texCoord": 0
        },
        "metallicRoughnessTexture": {
          "index": 6,
          "texCoord": 0
        }
      },
      "normalTexture": {
        "index": 5,
        "scale": 1.0
      },
      "emissiveFactor": [
        0.0,
        0.0,
        0.0
      ],
      "alphaMode": "OPAQUE",
      "alphaCutoff": 0.5,
      "doubleSided": true,
      "name": "gltf_microchip-technology-dsc1103di2-marking"
    }
  ],
  "meshes": [
    {
      "primitives": [
        {
          "attributes": {
            "POSITION": 0,
            "NORMAL": 1,
            "TEXCOORD_0": 2
          },
          "indices": 3,
          "mode": 4,
          "material": 0
        },
        {
          "attributes": {
            "POSITION": 6,
            "NORMAL": 7,
            "TEXCOORD_0": 8
          },
          "indices": 4,
          "mode": 4,
          "material": 1
        },
        {
          "attributes": {
            "POSITION": 9,
            "NORMAL": 10,
            "TEXCOORD_0": 11
          },
          "indices": 5,
          "mode": 4,
          "material": 2
        }
      ],
      "name": "SHAPE_9_IndexedFaceSet"
    }
  ],
  "nodes": [
    {
      "extras": {
        "REF": "REF**",
        "PRIO": 0,
        "DISPLAY_ROT": "90",
        "model_diagonal": 3.325657735389972
      },
      "mesh": 0,
      "rotation": [
        0.5,
        -0.5,
        0.5,
        0.4999999701976776
      ],
      "scale": [
        2.5399999618530273,
        2.5399999618530273,
        2.5399999618530273
      ],
      "name": "Oscillator_SMD_Microchip_DSC1103DI2_2.5x2x0.85mm-microchip-tech"
    }
  ],
  "samplers": [
    {
      "magFilter": 9729,
      "minFilter": 9987,
      "wrapS": 10497,
      "wrapT": 10497
    }
  ],
  "scene": 0,
  "scenes": [
    {
      "name": "Scene",
      "nodes": [
        0
      ]
    }
  ],
  "textures": [
    {
      "extensions": {
        "KHR_texture_basisu": {
          "source": 1
        }
      },
      "sampler": 0
    },
    {
      "extensions": {
        "KHR_texture_basisu": {
          "source": 0
        }
      },
      "sampler": 0
    },
    {
      "extensions": {
        "KHR_texture_basisu": {
          "source": 3
        }
      },
      "sampler": 0
    },
    {
      "extensions": {
        "KHR_texture_basisu": {
          "source": 2
        }
      },
      "sampler": 0
    },
    {
      "extensions": {
        "KHR_texture_basisu": {
          "source": 5
        }
      },
      "sampler": 0
    },
    {
      "extensions": {
        "KHR_texture_basisu": {
          "source": 4
        }
      },
      "sampler": 0
    },
    {
      "extensions": {
        "KHR_texture_basisu": {
          "source": 6
        }
      },
      "sampler": 0
    }
  ]
}