<?xml version="1.0" standalone="no"?>
 <!DOCTYPE svg PUBLIC "-//W3C//DTD SVG 1.1//EN" 
 "http://www.w3.org/Graphics/SVG/1.1/DTD/svg11.dtd"> 
<svg
  xmlns:svg="http://www.w3.org/2000/svg"
  xmlns="http://www.w3.org/2000/svg"
  xmlns:xlink="http://www.w3.org/1999/xlink"
  version="1.1"
  width="4.7498mm" height="3.7338mm" viewBox="0.0000 0.0000 4.7498 3.7338">
<title>SVG Image created as outline.svg date 2025/04/04 10:06:10 </title>
  <desc>Image generated by PCBNEW </desc>
<g style="fill:#000000; fill-opacity:1.0000;stroke:#000000; stroke-opacity:1.0000;
stroke-linecap:round; stroke-linejoin:round;"
 transform="translate(0 0) scale(1 1)">
</g>
<g style="fill:none; 
stroke:#000000; stroke-width:0.0200; stroke-opacity:1; 
stroke-linecap:round; stroke-linejoin:round;">
<path d="M0.5720 1.5200
L0.5720 2.2290
" />
<path d="M0.5720 1.5200
L0.7300 1.5200
" />
<path d="M0.5720 2.2290
L0.5720 1.5200
" />
<path d="M0.5720 2.2290
L0.7300 2.2290
" />
<path d="M0.7300 0.2740
L0.7300 3.4760
" />
<path d="M0.7300 0.2740
L4.0190 0.2740
" />
<path d="M0.7300 1.5200
L0.5720 1.5200
" />
<path d="M0.7300 2.2290
L0.5720 2.2290
" />
<path d="M0.7300 3.4760
L0.7300 0.2740
" />
<path d="M0.7300 3.4760
L4.0190 3.4760
" />
<path d="M0.7960 0.3410
L0.7960 3.4090
" />
<path d="M0.7960 0.3410
L1.4540 0.3410
" />
<path d="M0.7960 3.4090
L0.7960 0.3410
" />
<path d="M0.7960 3.4090
L1.4540 3.4090
" />
<path d="M1.4540 0.3410
L0.7960 0.3410
" />
<path d="M1.4540 0.3410
L1.4540 3.4090
" />
<path d="M1.4540 3.4090
L0.7960 3.4090
" />
<path d="M1.4540 3.4090
L1.4540 0.3410
" />
<path d="M4.0190 0.2740
L0.7300 0.2740
" />
<path d="M4.0190 0.2740
L4.0190 3.4760
" />
<path d="M4.0190 1.5200
L4.1780 1.5200
" />
<path d="M4.0190 2.2290
L4.1780 2.2290
" />
<path d="M4.0190 3.4760
L0.7300 3.4760
" />
<path d="M4.0190 3.4760
L4.0190 0.2740
" />
<path d="M4.1780 1.5200
L4.0190 1.5200
" />
<path d="M4.1780 1.5200
L4.1780 2.2290
" />
<path d="M4.1780 2.2290
L4.0190 2.2290
" />
<path d="M4.1780 2.2290
L4.1780 1.5200
" />
</g> 
</svg>
