<?xml version="1.0" standalone="no"?>
 <!DOCTYPE svg PUBLIC "-//W3C//DTD SVG 1.1//EN" 
 "http://www.w3.org/Graphics/SVG/1.1/DTD/svg11.dtd"> 
<svg
  xmlns:svg="http://www.w3.org/2000/svg"
  xmlns="http://www.w3.org/2000/svg"
  xmlns:xlink="http://www.w3.org/1999/xlink"
  xmlns:inkscape="http://www.inkscape.org/namespaces/inkscape"
  version="1.1"
  width="4.241800mm" height="2.667000mm" viewBox="0.000000 0.000000 4.241800 2.667000">
<title>SVG Image created as outline.svg date 2026-07-09T08:34:06 </title>
  <desc>Image generated by PCBNEW </desc>
<g style="fill:#000000; fill-opacity:1.000000;stroke:#000000; stroke-opacity:1.000000;
stroke-linecap:round; stroke-linejoin:round;"
 transform="translate(0 0) scale(1 1)">
</g>
<g style="fill:none; 
stroke:#000000; stroke-width:0.020000; stroke-opacity:1; 
stroke-linecap:round; stroke-linejoin:round;">
<path d="M0.525000 0.549000
L0.525000 0.752000
" />
<path d="M0.525000 0.549000
L0.755000 0.549000
" />
<path d="M0.525000 1.049000
L0.525000 0.752000
" />
<path d="M0.525000 1.049000
L0.525000 1.847000
" />
<path d="M0.525000 1.847000
L0.825000 2.099000
" />
<path d="M0.525000 1.949000
L0.525000 1.847000
" />
<path d="M0.525000 2.151000
L0.525000 1.949000
" />
<path d="M0.525000 2.151000
L0.755000 2.151000
" />
<path d="M0.575000 0.752000
L0.525000 0.752000
" />
<path d="M0.575000 1.949000
L0.525000 1.949000
" />
<path d="M0.646000 1.949000
L0.575000 1.949000
" />
<path d="M0.755000 0.549000
L0.755000 0.752000
" />
<path d="M0.755000 2.151000
L0.755000 2.042000
" />
<path d="M0.825000 0.525000
L0.825000 0.752000
" />
<path d="M0.825000 0.525000
L3.426000 0.525000
" />
<path d="M0.825000 0.549000
L0.755000 0.549000
" />
<path d="M0.825000 0.752000
L0.575000 0.752000
" />
<path d="M0.825000 0.752000
L0.825000 0.874000
" />
<path d="M0.825000 0.874000
L0.525000 1.049000
" />
<path d="M0.825000 2.099000
L0.825000 2.151000
" />
<path d="M0.825000 2.151000
L0.755000 2.151000
" />
<path d="M0.825000 2.151000
L1.323000 2.151000
" />
<path d="M1.323000 2.099000
L1.774000 2.099000
" />
<path d="M1.323000 2.151000
L1.323000 2.099000
" />
<path d="M1.774000 2.049000
L2.475000 2.049000
" />
<path d="M1.774000 2.099000
L1.774000 2.049000
" />
<path d="M2.475000 2.049000
L2.475000 2.099000
" />
<path d="M2.475000 2.099000
L2.926000 2.099000
" />
<path d="M2.926000 2.099000
L2.926000 2.151000
" />
<path d="M2.926000 2.151000
L1.323000 2.151000
" />
<path d="M2.926000 2.151000
L3.426000 2.151000
" />
<path d="M3.426000 0.525000
L3.426000 0.752000
" />
<path d="M3.426000 0.874000
L3.426000 0.752000
" />
<path d="M3.426000 2.099000
L3.726000 1.847000
" />
<path d="M3.426000 2.151000
L3.426000 2.099000
" />
<path d="M3.496000 0.549000
L3.426000 0.549000
" />
<path d="M3.496000 0.549000
L3.496000 0.752000
" />
<path d="M3.496000 0.549000
L3.726000 0.549000
" />
<path d="M3.496000 2.151000
L3.426000 2.151000
" />
<path d="M3.496000 2.151000
L3.496000 2.042000
" />
<path d="M3.496000 2.151000
L3.726000 2.151000
" />
<path d="M3.676000 0.752000
L3.426000 0.752000
" />
<path d="M3.676000 1.949000
L3.603000 1.949000
" />
<path d="M3.726000 0.549000
L3.726000 0.752000
" />
<path d="M3.726000 0.752000
L3.676000 0.752000
" />
<path d="M3.726000 1.049000
L3.426000 0.874000
" />
<path d="M3.726000 1.049000
L3.726000 0.752000
" />
<path d="M3.726000 1.847000
L3.726000 1.049000
" />
<path d="M3.726000 1.949000
L3.676000 1.949000
" />
<path d="M3.726000 1.949000
L3.726000 1.847000
" />
<path d="M3.726000 2.151000
L3.726000 1.949000
" />
</g> 
</svg>
