<?xml version="1.0" standalone="no"?>
 <!DOCTYPE svg PUBLIC "-//W3C//DTD SVG 1.1//EN" 
 "http://www.w3.org/Graphics/SVG/1.1/DTD/svg11.dtd"> 
<svg
  xmlns:svg="http://www.w3.org/2000/svg"
  xmlns="http://www.w3.org/2000/svg"
  xmlns:xlink="http://www.w3.org/1999/xlink"
  version="1.1"
  width="4.2418mm" height="2.6670mm" viewBox="0.0000 0.0000 4.2418 2.6670">
<title>SVG Image created as outline.svg date 2025/06/16 09:17:58 </title>
  <desc>Image generated by PCBNEW </desc>
<g style="fill:#000000; fill-opacity:1.0000;stroke:#000000; stroke-opacity:1.0000;
stroke-linecap:round; stroke-linejoin:round;"
 transform="translate(0 0) scale(1 1)">
</g>
<g style="fill:none; 
stroke:#000000; stroke-width:0.0200; stroke-opacity:1; 
stroke-linecap:round; stroke-linejoin:round;">
<path d="M0.5250 0.5490
L0.5250 0.7520
" />
<path d="M0.5250 0.5490
L0.7550 0.5490
" />
<path d="M0.5250 1.0490
L0.5250 0.7520
" />
<path d="M0.5250 1.0490
L0.5250 1.8470
" />
<path d="M0.5250 1.8470
L0.8250 2.0990
" />
<path d="M0.5250 1.9490
L0.5250 1.8470
" />
<path d="M0.5250 2.1510
L0.5250 1.9490
" />
<path d="M0.5250 2.1510
L0.7550 2.1510
" />
<path d="M0.5750 0.7520
L0.5250 0.7520
" />
<path d="M0.5750 1.9490
L0.5250 1.9490
" />
<path d="M0.6460 1.9490
L0.5750 1.9490
" />
<path d="M0.7550 0.5490
L0.7550 0.7520
" />
<path d="M0.7550 2.1510
L0.7550 2.0420
" />
<path d="M0.8250 0.5250
L0.8250 0.7520
" />
<path d="M0.8250 0.5250
L3.4260 0.5250
" />
<path d="M0.8250 0.5490
L0.7550 0.5490
" />
<path d="M0.8250 0.7520
L0.5750 0.7520
" />
<path d="M0.8250 0.7520
L0.8250 0.8740
" />
<path d="M0.8250 0.8740
L0.5250 1.0490
" />
<path d="M0.8250 2.0990
L0.8250 2.1510
" />
<path d="M0.8250 2.1510
L0.7550 2.1510
" />
<path d="M0.8250 2.1510
L1.3230 2.1510
" />
<path d="M1.3230 2.0990
L1.7740 2.0990
" />
<path d="M1.3230 2.1510
L1.3230 2.0990
" />
<path d="M1.7740 2.0490
L2.4750 2.0490
" />
<path d="M1.7740 2.0990
L1.7740 2.0490
" />
<path d="M2.4750 2.0490
L2.4750 2.0990
" />
<path d="M2.4750 2.0990
L2.9260 2.0990
" />
<path d="M2.9260 2.0990
L2.9260 2.1510
" />
<path d="M2.9260 2.1510
L1.3230 2.1510
" />
<path d="M2.9260 2.1510
L3.4260 2.1510
" />
<path d="M3.4260 0.5250
L3.4260 0.7520
" />
<path d="M3.4260 0.8740
L3.4260 0.7520
" />
<path d="M3.4260 2.0990
L3.7260 1.8470
" />
<path d="M3.4260 2.1510
L3.4260 2.0990
" />
<path d="M3.4960 0.5490
L3.4260 0.5490
" />
<path d="M3.4960 0.5490
L3.4960 0.7520
" />
<path d="M3.4960 0.5490
L3.7260 0.5490
" />
<path d="M3.4960 2.1510
L3.4260 2.1510
" />
<path d="M3.4960 2.1510
L3.4960 2.0420
" />
<path d="M3.4960 2.1510
L3.7260 2.1510
" />
<path d="M3.6760 0.7520
L3.4260 0.7520
" />
<path d="M3.6760 1.9490
L3.6030 1.9490
" />
<path d="M3.7260 0.5490
L3.7260 0.7520
" />
<path d="M3.7260 0.7520
L3.6760 0.7520
" />
<path d="M3.7260 1.0490
L3.4260 0.8740
" />
<path d="M3.7260 1.0490
L3.7260 0.7520
" />
<path d="M3.7260 1.8470
L3.7260 1.0490
" />
<path d="M3.7260 1.9490
L3.6760 1.9490
" />
<path d="M3.7260 1.9490
L3.7260 1.8470
" />
<path d="M3.7260 2.1510
L3.7260 1.9490
" />
</g> 
</svg>
