<?xml version="1.0" standalone="no"?>
 <!DOCTYPE svg PUBLIC "-//W3C//DTD SVG 1.1//EN" 
 "http://www.w3.org/Graphics/SVG/1.1/DTD/svg11.dtd"> 
<svg
  xmlns:svg="http://www.w3.org/2000/svg"
  xmlns="http://www.w3.org/2000/svg"
  xmlns:xlink="http://www.w3.org/1999/xlink"
  version="1.1"
  width="17.2466mm" height="22.0472mm" viewBox="0.0000 0.0000 17.2466 22.0472">
<title>SVG Image created as outline.svg date 2025/04/04 10:06:32 </title>
  <desc>Image generated by PCBNEW </desc>
<g style="fill:#000000; fill-opacity:1.0000;stroke:#000000; stroke-opacity:1.0000;
stroke-linecap:round; stroke-linejoin:round;"
 transform="translate(0 0) scale(1 1)">
</g>
<g style="fill:none; 
stroke:#000000; stroke-width:0.0200; stroke-opacity:1; 
stroke-linecap:round; stroke-linejoin:round;">
<path d="M0.5740 4.2740
L0.5740 18.1760
" />
<path d="M0.5740 4.2740
L0.8750 4.2740
" />
<path d="M0.5740 18.1760
L0.8750 18.1760
" />
<path d="M0.8750 3.9740
L0.8750 4.2740
" />
<path d="M0.8750 18.4740
L0.8750 18.1760
" />
<path d="M1.8700 9.5400
L2.3700 9.5400
" />
<path d="M1.8700 10.0400
L1.8700 9.5400
" />
<path d="M1.8700 12.5390
L1.8700 12.0390
" />
<path d="M2.3700 7.3250
L14.8790 7.3250
" />
<path d="M2.3700 9.5400
L2.3700 7.3250
" />
<path d="M2.3700 12.5390
L1.8700 12.5390
" />
<path d="M2.3700 14.7550
L2.3700 12.5390
" />
<path d="M2.6700 7.6240
L14.5780 7.6240
" />
<path d="M2.6700 10.0400
L2.6700 7.6240
" />
<path d="M2.6700 14.4550
L2.6700 12.0390
" />
<path d="M3.0700 10.0400
L1.8700 10.0400
" />
<path d="M3.0700 10.0400
L3.4080 10.0400
" />
<path d="M3.0700 12.0390
L1.8700 12.0390
" />
<path d="M3.0700 12.0390
L3.4080 12.0390
" />
</g>
<g style="fill:#000000; fill-opacity:1.0000; stroke:none;">
<circle cx="3.4080" cy="10.0400" r="0.0100" /> 
</g>
<g style="fill:none; 
stroke:#000000; stroke-width:0.0200; stroke-opacity:1; 
stroke-linecap:round; stroke-linejoin:round;">
<path d="M3.4080 10.0400
L3.5700 10.0400
" />
</g>
<g style="fill:#000000; fill-opacity:1.0000; stroke:none;">
<circle cx="3.4080" cy="12.0390" r="0.0100" /> 
</g>
<g style="fill:none; 
stroke:#000000; stroke-width:0.0200; stroke-opacity:1; 
stroke-linecap:round; stroke-linejoin:round;">
<path d="M3.4080 12.0390
L3.5700 12.0390
" />
<path d="M3.5700 10.0400
L3.8090 10.0400
" />
<path d="M3.5700 12.0390
L3.8090 12.0390
" />
<path d="M3.8090 10.0400
L3.8220 10.0400
" />
<path d="M3.8090 12.0390
L3.8220 12.0390
" />
<path d="M3.8220 12.0390
L3.8220 10.0400
" />
<path d="M3.9500 3.9740
L3.9500 0.9750
" />
<path d="M4.4100 0.9750
L3.9500 0.9750
" />
<path d="M4.4100 0.9750
L4.4100 3.9740
" />
<path d="M4.6250 20.6760
L4.6250 18.4740
" />
<path d="M4.6250 20.6760
L4.6250 20.6950
" />
<path d="M4.6250 20.6950
L4.6260 20.7150
" />
<path d="M4.6260 20.7150
L4.6290 20.7360
" />
<path d="M4.6290 20.7360
L4.6330 20.7560
" />
<path d="M4.6330 20.7560
L4.6370 20.7750
" />
<path d="M4.6370 20.7750
L4.6410 20.7940
" />
<path d="M4.6410 20.7940
L4.6490 20.8130
" />
<path d="M4.6490 20.8130
L4.6560 20.8300
" />
<path d="M4.6560 20.8300
L4.6630 20.8490
" />
<path d="M4.6630 20.8490
L4.6730 20.8650
" />
<path d="M4.6730 20.8650
L4.6820 20.8820
" />
<path d="M4.6820 20.8820
L4.6930 20.8980
" />
<path d="M4.6930 20.8980
L4.7030 20.9140
" />
<path d="M4.7030 20.9140
L4.7150 20.9290
" />
<path d="M4.7150 20.9290
L4.7270 20.9440
" />
<path d="M4.7270 20.9440
L4.7420 20.9580
" />
<path d="M4.7420 20.9580
L4.7550 20.9710
" />
<path d="M4.7550 20.9710
L4.7700 20.9830
" />
<path d="M4.7700 20.9830
L4.7850 20.9960
" />
<path d="M4.7850 20.9960
L4.8000 21.0060
" />
<path d="M4.8000 21.0060
L4.8160 21.0180
" />
<path d="M4.8160 21.0180
L4.8340 21.0260
" />
<path d="M4.8240 7.6970
L4.8240 7.6240
" />
<path d="M4.8240 9.8480
L4.8240 7.6970
" />
<path d="M4.8340 21.0260
L4.8510 21.0350
" />
<path d="M4.8510 21.0350
L4.8680 21.0440
" />
<path d="M4.8680 21.0440
L4.8870 21.0510
" />
<path d="M4.8870 21.0510
L4.9060 21.0570
" />
<path d="M4.9060 21.0570
L4.9240 21.0630
" />
<path d="M4.9240 21.0630
L4.9440 21.0670
" />
<path d="M4.9440 21.0670
L4.9640 21.0700
" />
<path d="M4.9640 21.0700
L4.9840 21.0730
" />
<path d="M4.9840 21.0730
L5.0040 21.0740
" />
<path d="M5.0040 21.0740
L5.0240 21.0760
" />
<path d="M5.1740 14.7550
L2.3700 14.7550
" />
<path d="M5.1740 16.4450
L5.1740 14.7550
" />
<path d="M5.2190 3.9740
L5.2190 0.9750
" />
<path d="M5.2850 7.6970
L5.2850 7.6240
" />
<path d="M5.2850 9.8480
L4.8240 9.8480
" />
<path d="M5.2850 9.8480
L5.2850 7.6970
" />
<path d="M5.4750 11.2250
L11.7740 11.2250
" />
<path d="M5.4750 13.1540
L2.6700 13.1540
" />
<path d="M5.4750 13.1540
L5.4750 11.2250
" />
<path d="M5.4750 14.4550
L2.6700 14.4550
" />
<path d="M5.4750 14.4550
L5.4750 13.1540
" />
<path d="M5.4750 16.0940
L11.7740 16.0940
" />
<path d="M5.4750 16.1440
L5.4750 14.4550
" />
<path d="M5.6800 0.9750
L5.2190 0.9750
" />
<path d="M5.6800 0.9750
L5.6800 3.9740
" />
<path d="M5.8240 19.2550
L5.8270 19.2340
" />
<path d="M5.8240 19.2750
L5.8240 19.2550
" />
<path d="M5.8240 19.2750
L5.8240 19.9740
" />
<path d="M5.8240 19.9960
L5.8240 19.9740
" />
<path d="M5.8270 19.2340
L5.8280 19.2140
" />
<path d="M5.8270 20.0160
L5.8240 19.9960
" />
<path d="M5.8280 19.2140
L5.8320 19.1950
" />
<path d="M5.8280 20.0350
L5.8270 20.0160
" />
<path d="M5.8320 19.1950
L5.8360 19.1760
" />
<path d="M5.8320 20.0550
L5.8280 20.0350
" />
<path d="M5.8360 19.1760
L5.8430 19.1570
" />
<path d="M5.8360 20.0740
L5.8320 20.0550
" />
<path d="M5.8430 19.1570
L5.8480 19.1370
" />
<path d="M5.8430 20.0930
L5.8360 20.0740
" />
<path d="M5.8440 7.6970
L5.8440 7.6240
" />
<path d="M5.8440 9.8480
L5.8440 7.6970
" />
<path d="M5.8480 19.1370
L5.8550 19.1190
" />
<path d="M5.8480 20.1120
L5.8430 20.0930
" />
<path d="M5.8550 19.1190
L5.8630 19.1020
" />
<path d="M5.8550 20.1310
L5.8480 20.1120
" />
<path d="M5.8630 19.1020
L5.8720 19.0850
" />
<path d="M5.8630 20.1480
L5.8550 20.1310
" />
<path d="M5.8720 19.0850
L5.8820 19.0670
" />
<path d="M5.8720 20.1660
L5.8630 20.1480
" />
<path d="M5.8820 19.0670
L5.8920 19.0510
" />
<path d="M5.8820 20.1820
L5.8720 20.1660
" />
<path d="M5.8920 19.0510
L5.9030 19.0350
" />
<path d="M5.8920 20.1980
L5.8820 20.1820
" />
<path d="M5.9030 19.0350
L5.9150 19.0200
" />
<path d="M5.9030 20.2140
L5.8920 20.1980
" />
<path d="M5.9150 19.0200
L5.9270 19.0060
" />
<path d="M5.9150 20.2300
L5.9030 20.2140
" />
<path d="M5.9270 19.0060
L5.9410 18.9930
" />
<path d="M5.9270 20.2430
L5.9150 20.2300
" />
<path d="M5.9410 18.9930
L5.9560 18.9790
" />
<path d="M5.9410 20.2570
L5.9270 20.2430
" />
<path d="M5.9560 18.9790
L5.9690 18.9660
" />
<path d="M5.9560 20.2710
L5.9410 20.2570
" />
<path d="M5.9690 18.9660
L5.9840 18.9550
" />
<path d="M5.9690 20.2840
L5.9560 20.2710
" />
<path d="M5.9840 18.9550
L6.0000 18.9430
" />
<path d="M5.9840 20.2950
L5.9690 20.2840
" />
<path d="M6.0000 18.9430
L6.0160 18.9340
" />
<path d="M6.0000 20.3070
L5.9840 20.2950
" />
<path d="M6.0160 18.9340
L6.0330 18.9240
" />
<path d="M6.0160 20.3170
L6.0000 20.3070
" />
<path d="M6.0330 18.9240
L6.0510 18.9150
" />
<path d="M6.0330 20.3260
L6.0160 20.3170
" />
<path d="M6.0510 18.9150
L6.0690 18.9070
" />
<path d="M6.0510 20.3360
L6.0330 20.3260
" />
<path d="M6.0690 18.9070
L6.0860 18.9000
" />
<path d="M6.0690 20.3430
L6.0510 20.3360
" />
<path d="M6.0860 18.9000
L6.1050 18.8940
" />
<path d="M6.0860 20.3510
L6.0690 20.3430
" />
<path d="M6.1050 18.8940
L6.1250 18.8870
" />
<path d="M6.1050 20.3560
L6.0860 20.3510
" />
<path d="M6.1250 18.8870
L6.1440 18.8840
" />
<path d="M6.1250 20.3620
L6.1050 20.3560
" />
<path d="M6.1440 18.8840
L6.1640 18.8790
" />
<path d="M6.1440 20.3670
L6.1250 20.3620
" />
<path d="M6.1640 18.8790
L6.1840 18.8780
" />
<path d="M6.1640 20.3710
L6.1440 20.3670
" />
<path d="M6.1840 18.8780
L6.2030 18.8760
" />
<path d="M6.1840 20.3720
L6.1640 20.3710
" />
<path d="M6.2030 18.8760
L6.2250 18.8760
" />
<path d="M6.2030 20.3750
L6.1840 20.3720
" />
</g>
<g style="fill:#000000; fill-opacity:1.0000; stroke:none;">
<circle cx="6.2250" cy="18.8760" r="0.0100" /> 
</g>
<g style="fill:none; 
stroke:#000000; stroke-width:0.0200; stroke-opacity:1; 
stroke-linecap:round; stroke-linejoin:round;">
<path d="M6.2250 18.8760
L6.2450 18.8760
" />
<path d="M6.2250 20.3750
L6.2030 20.3750
" />
</g>
<g style="fill:#000000; fill-opacity:1.0000; stroke:none;">
<circle cx="6.2250" cy="20.3750" r="0.0100" /> 
</g>
<g style="fill:none; 
stroke:#000000; stroke-width:0.0200; stroke-opacity:1; 
stroke-linecap:round; stroke-linejoin:round;">
<path d="M6.2450 18.8760
L6.2650 18.8780
" />
<path d="M6.2450 20.3750
L6.2250 20.3750
" />
<path d="M6.2650 18.8780
L6.2850 18.8790
" />
<path d="M6.2650 20.3720
L6.2450 20.3750
" />
<path d="M6.2850 18.8790
L6.3050 18.8840
" />
<path d="M6.2850 20.3710
L6.2650 20.3720
" />
<path d="M6.2940 16.4450
L5.1740 16.4450
" />
<path d="M6.2940 18.2240
L10.9550 18.2240
" />
<path d="M6.2940 18.4740
L0.8750 18.4740
" />
<path d="M6.2940 18.4740
L6.2940 16.4450
" />
<path d="M6.2940 18.4740
L10.9550 18.4740
" />
<path d="M6.3050 7.6970
L6.3050 7.6240
" />
<path d="M6.3050 9.8480
L5.8440 9.8480
" />
<path d="M6.3050 9.8480
L6.3050 7.6970
" />
<path d="M6.3050 18.8840
L6.3230 18.8870
" />
<path d="M6.3050 20.3670
L6.2850 20.3710
" />
<path d="M6.3230 18.8870
L6.3430 18.8940
" />
<path d="M6.3230 20.3620
L6.3050 20.3670
" />
<path d="M6.3430 18.8940
L6.3620 18.9000
" />
<path d="M6.3430 20.3560
L6.3230 20.3620
" />
<path d="M6.3620 18.9000
L6.3790 18.9070
" />
<path d="M6.3620 20.3510
L6.3430 20.3560
" />
<path d="M6.3790 18.9070
L6.3980 18.9150
" />
<path d="M6.3790 20.3430
L6.3620 20.3510
" />
<path d="M6.3980 18.9150
L6.4150 18.9240
" />
<path d="M6.3980 20.3360
L6.3790 20.3430
" />
<path d="M6.4150 18.9240
L6.4310 18.9340
" />
<path d="M6.4150 20.3260
L6.3980 20.3360
" />
<path d="M6.4310 18.9340
L6.4470 18.9430
" />
<path d="M6.4310 20.3170
L6.4150 20.3260
" />
<path d="M6.4470 18.9430
L6.4640 18.9550
" />
<path d="M6.4470 20.3070
L6.4310 20.3170
" />
<path d="M6.4640 18.9550
L6.4790 18.9660
" />
<path d="M6.4640 20.2950
L6.4470 20.3070
" />
<path d="M6.4790 18.9660
L6.4920 18.9790
" />
<path d="M6.4790 20.2840
L6.4640 20.2950
" />
<path d="M6.4890 3.9740
L6.4890 0.9750
" />
<path d="M6.4920 18.9790
L6.5070 18.9930
" />
<path d="M6.4920 20.2710
L6.4790 20.2840
" />
<path d="M6.5070 18.9930
L6.5200 19.0060
" />
<path d="M6.5070 20.2570
L6.4920 20.2710
" />
<path d="M6.5200 19.0060
L6.5320 19.0200
" />
<path d="M6.5200 20.2430
L6.5070 20.2570
" />
<path d="M6.5320 19.0200
L6.5440 19.0350
" />
<path d="M6.5320 20.2300
L6.5200 20.2430
" />
<path d="M6.5440 19.0350
L6.5560 19.0510
" />
<path d="M6.5440 20.2140
L6.5320 20.2300
" />
<path d="M6.5560 19.0510
L6.5670 19.0670
" />
<path d="M6.5560 20.1980
L6.5440 20.2140
" />
<path d="M6.5670 19.0670
L6.5760 19.0850
" />
<path d="M6.5670 20.1820
L6.5560 20.1980
" />
<path d="M6.5760 19.0850
L6.5850 19.1020
" />
<path d="M6.5760 20.1660
L6.5670 20.1820
" />
<path d="M6.5850 19.1020
L6.5930 19.1190
" />
<path d="M6.5850 20.1480
L6.5760 20.1660
" />
<path d="M6.5930 19.1190
L6.6000 19.1370
" />
<path d="M6.5930 20.1310
L6.5850 20.1480
" />
<path d="M6.5940 16.1440
L5.4750 16.1440
" />
<path d="M6.5940 18.0330
L6.5940 16.1440
" />
<path d="M6.5940 18.0330
L10.6550 18.0330
" />
<path d="M6.6000 19.1370
L6.6050 19.1570
" />
<path d="M6.6000 20.1120
L6.5930 20.1310
" />
<path d="M6.6050 19.1570
L6.6120 19.1760
" />
<path d="M6.6050 20.0930
L6.6000 20.1120
" />
<path d="M6.6120 19.1760
L6.6160 19.1950
" />
<path d="M6.6120 20.0740
L6.6050 20.0930
" />
<path d="M6.6160 19.1950
L6.6200 19.2140
" />
<path d="M6.6160 20.0550
L6.6120 20.0740
" />
<path d="M6.6200 19.2140
L6.6210 19.2340
" />
<path d="M6.6200 20.0350
L6.6160 20.0550
" />
<path d="M6.6210 19.2340
L6.6240 19.2550
" />
<path d="M6.6210 20.0160
L6.6200 20.0350
" />
<path d="M6.6240 19.2550
L6.6250 19.2750
" />
<path d="M6.6240 19.9960
L6.6210 20.0160
" />
<path d="M6.6250 19.9740
L6.6240 19.9960
" />
<path d="M6.6250 19.9740
L6.6250 19.2750
" />
<path d="M6.8650 7.6970
L6.8650 7.6240
" />
<path d="M6.8650 9.8480
L6.8650 7.6970
" />
<path d="M6.9490 0.9750
L6.4890 0.9750
" />
<path d="M6.9490 0.9750
L6.9490 3.9740
" />
<path d="M7.3240 7.6970
L7.3240 7.6240
" />
<path d="M7.3240 9.8480
L6.8650 9.8480
" />
<path d="M7.3240 9.8480
L7.3240 7.6970
" />
<path d="M7.3750 18.4740
L7.3750 20.2140
" />
<path d="M7.3750 20.2140
L7.3750 20.2660
" />
<path d="M7.3750 20.2660
L7.3750 20.8550
" />
<path d="M7.3750 20.8550
L7.3750 20.9770
" />
<path d="M7.7600 3.9740
L7.7600 0.9750
" />
<path d="M7.8850 7.6970
L7.8850 7.6240
" />
<path d="M7.8850 9.8480
L7.8850 7.6970
" />
<path d="M8.2190 0.9750
L7.7600 0.9750
" />
<path d="M8.2190 0.9750
L8.2190 3.9740
" />
<path d="M8.3440 7.6970
L8.3440 7.6240
" />
<path d="M8.3440 9.8480
L7.8850 9.8480
" />
<path d="M8.3440 9.8480
L8.3440 7.6970
" />
<path d="M8.9050 7.6970
L8.9050 7.6240
" />
<path d="M8.9050 9.8480
L8.9050 7.6970
" />
<path d="M9.0300 3.9740
L9.0300 0.9750
" />
<path d="M9.3640 7.6970
L9.3640 7.6240
" />
<path d="M9.3640 9.8480
L8.9050 9.8480
" />
<path d="M9.3640 9.8480
L9.3640 7.6970
" />
<path d="M9.4890 0.9750
L9.0300 0.9750
" />
<path d="M9.4890 0.9750
L9.4890 3.9740
" />
<path d="M9.8740 18.4740
L9.8740 20.2140
" />
<path d="M9.8740 20.2140
L9.8740 20.2660
" />
<path d="M9.8740 20.2660
L9.8740 20.8550
" />
<path d="M9.8740 20.8550
L7.3750 20.8550
" />
<path d="M9.8740 20.8550
L9.8740 20.9770
" />
<path d="M9.8740 20.9770
L7.3750 20.9770
" />
<path d="M9.9250 7.6970
L9.9250 7.6240
" />
<path d="M9.9250 9.8480
L9.9250 7.6970
" />
<path d="M10.3000 3.9740
L10.3000 0.9750
" />
<path d="M10.3840 7.6970
L10.3840 7.6240
" />
<path d="M10.3840 9.8480
L9.9250 9.8480
" />
<path d="M10.3840 9.8480
L10.3840 7.6970
" />
<path d="M10.6240 19.2550
L10.6270 19.2340
" />
<path d="M10.6240 19.2750
L10.6240 19.2550
" />
<path d="M10.6240 19.2750
L10.6240 19.9740
" />
<path d="M10.6240 19.9960
L10.6240 19.9740
" />
<path d="M10.6270 19.2340
L10.6280 19.2140
" />
<path d="M10.6270 20.0160
L10.6240 19.9960
" />
<path d="M10.6280 19.2140
L10.6320 19.1950
" />
<path d="M10.6280 20.0350
L10.6270 20.0160
" />
<path d="M10.6320 19.1950
L10.6360 19.1760
" />
<path d="M10.6320 20.0550
L10.6280 20.0350
" />
<path d="M10.6360 19.1760
L10.6430 19.1570
" />
<path d="M10.6360 20.0740
L10.6320 20.0550
" />
<path d="M10.6430 19.1570
L10.6480 19.1370
" />
<path d="M10.6430 20.0930
L10.6360 20.0740
" />
<path d="M10.6480 19.1370
L10.6560 19.1190
" />
<path d="M10.6480 20.1120
L10.6430 20.0930
" />
<path d="M10.6550 16.1440
L10.6550 18.0330
" />
<path d="M10.6550 17.1250
L6.5940 17.1250
" />
<path d="M10.6550 17.4240
L6.5940 17.4240
" />
<path d="M10.6560 19.1190
L10.6640 19.1020
" />
<path d="M10.6560 20.1310
L10.6480 20.1120
" />
<path d="M10.6640 19.1020
L10.6730 19.0850
" />
<path d="M10.6640 20.1480
L10.6560 20.1310
" />
<path d="M10.6730 19.0850
L10.6810 19.0670
" />
<path d="M10.6730 20.1660
L10.6640 20.1480
" />
<path d="M10.6810 19.0670
L10.6930 19.0510
" />
<path d="M10.6810 20.1820
L10.6730 20.1660
" />
<path d="M10.6930 19.0510
L10.7040 19.0350
" />
<path d="M10.6930 20.1980
L10.6810 20.1820
" />
<path d="M10.7040 19.0350
L10.7160 19.0200
" />
<path d="M10.7040 20.2140
L10.6930 20.1980
" />
<path d="M10.7160 19.0200
L10.7280 19.0060
" />
<path d="M10.7160 20.2300
L10.7040 20.2140
" />
<path d="M10.7280 19.0060
L10.7410 18.9930
" />
<path d="M10.7280 20.2430
L10.7160 20.2300
" />
<path d="M10.7410 18.9930
L10.7560 18.9790
" />
<path d="M10.7410 20.2570
L10.7280 20.2430
" />
<path d="M10.7560 18.9790
L10.7690 18.9660
" />
<path d="M10.7560 20.2710
L10.7410 20.2570
" />
<path d="M10.7600 0.9750
L10.3000 0.9750
" />
<path d="M10.7600 0.9750
L10.7600 3.9740
" />
<path d="M10.7690 18.9660
L10.7850 18.9550
" />
<path d="M10.7690 20.2840
L10.7560 20.2710
" />
<path d="M10.7850 18.9550
L10.8010 18.9430
" />
<path d="M10.7850 20.2950
L10.7690 20.2840
" />
<path d="M10.8010 18.9430
L10.8170 18.9340
" />
<path d="M10.8010 20.3070
L10.7850 20.2950
" />
<path d="M10.8170 18.9340
L10.8340 18.9240
" />
<path d="M10.8170 20.3170
L10.8010 20.3070
" />
<path d="M10.8340 18.9240
L10.8500 18.9150
" />
<path d="M10.8340 20.3260
L10.8170 20.3170
" />
<path d="M10.8500 18.9150
L10.8690 18.9070
" />
<path d="M10.8500 20.3360
L10.8340 20.3260
" />
<path d="M10.8690 18.9070
L10.8860 18.9000
" />
<path d="M10.8690 20.3430
L10.8500 20.3360
" />
<path d="M10.8860 18.9000
L10.9060 18.8940
" />
<path d="M10.8860 20.3510
L10.8690 20.3430
" />
<path d="M10.9060 18.8940
L10.9250 18.8870
" />
<path d="M10.9060 20.3560
L10.8860 20.3510
" />
<path d="M10.9250 18.8870
L10.9430 18.8840
" />
<path d="M10.9250 20.3620
L10.9060 20.3560
" />
<path d="M10.9430 18.8840
L10.9630 18.8790
" />
<path d="M10.9430 20.3670
L10.9250 20.3620
" />
<path d="M10.9440 7.6970
L10.9440 7.6240
" />
<path d="M10.9440 9.8480
L10.9440 7.6970
" />
<path d="M10.9550 16.4450
L10.9550 18.4740
" />
<path d="M10.9630 18.8790
L10.9830 18.8780
" />
<path d="M10.9630 20.3710
L10.9430 20.3670
" />
<path d="M10.9830 18.8780
L11.0030 18.8760
" />
<path d="M10.9830 20.3720
L10.9630 20.3710
" />
<path d="M11.0030 18.8760
L11.0240 18.8760
" />
<path d="M11.0030 20.3750
L10.9830 20.3720
" />
</g>
<g style="fill:#000000; fill-opacity:1.0000; stroke:none;">
<circle cx="11.0240" cy="18.8760" r="0.0100" /> 
</g>
<g style="fill:none; 
stroke:#000000; stroke-width:0.0200; stroke-opacity:1; 
stroke-linecap:round; stroke-linejoin:round;">
<path d="M11.0240 18.8760
L11.0440 18.8760
" />
<path d="M11.0240 20.3750
L11.0030 20.3750
" />
</g>
<g style="fill:#000000; fill-opacity:1.0000; stroke:none;">
<circle cx="11.0240" cy="20.3750" r="0.0100" /> 
</g>
<g style="fill:none; 
stroke:#000000; stroke-width:0.0200; stroke-opacity:1; 
stroke-linecap:round; stroke-linejoin:round;">
<path d="M11.0440 18.8760
L11.0640 18.8780
" />
<path d="M11.0440 20.3750
L11.0240 20.3750
" />
<path d="M11.0640 18.8780
L11.0840 18.8790
" />
<path d="M11.0640 20.3720
L11.0440 20.3750
" />
<path d="M11.0840 18.8790
L11.1040 18.8840
" />
<path d="M11.0840 20.3710
L11.0640 20.3720
" />
<path d="M11.1040 18.8840
L11.1240 18.8870
" />
<path d="M11.1040 20.3670
L11.0840 20.3710
" />
<path d="M11.1240 18.8870
L11.1430 18.8940
" />
<path d="M11.1240 20.3620
L11.1040 20.3670
" />
<path d="M11.1430 18.8940
L11.1610 18.9000
" />
<path d="M11.1430 20.3560
L11.1240 20.3620
" />
<path d="M11.1610 18.9000
L11.1800 18.9070
" />
<path d="M11.1610 20.3510
L11.1430 20.3560
" />
<path d="M11.1800 18.9070
L11.1970 18.9150
" />
<path d="M11.1800 20.3430
L11.1610 20.3510
" />
<path d="M11.1970 18.9150
L11.2140 18.9240
" />
<path d="M11.1970 20.3360
L11.1800 20.3430
" />
<path d="M11.2140 18.9240
L11.2320 18.9340
" />
<path d="M11.2140 20.3260
L11.1970 20.3360
" />
<path d="M11.2320 18.9340
L11.2480 18.9430
" />
<path d="M11.2320 20.3170
L11.2140 20.3260
" />
<path d="M11.2480 18.9430
L11.2640 18.9550
" />
<path d="M11.2480 20.3070
L11.2320 20.3170
" />
<path d="M11.2640 18.9550
L11.2780 18.9660
" />
<path d="M11.2640 20.2950
L11.2480 20.3070
" />
<path d="M11.2780 18.9660
L11.2930 18.9790
" />
<path d="M11.2780 20.2840
L11.2640 20.2950
" />
<path d="M11.2930 18.9790
L11.3060 18.9930
" />
<path d="M11.2930 20.2710
L11.2780 20.2840
" />
<path d="M11.3060 18.9930
L11.3210 19.0060
" />
<path d="M11.3060 20.2570
L11.2930 20.2710
" />
<path d="M11.3210 19.0060
L11.3330 19.0200
" />
<path d="M11.3210 20.2430
L11.3060 20.2570
" />
<path d="M11.3330 19.0200
L11.3450 19.0350
" />
<path d="M11.3330 20.2300
L11.3210 20.2430
" />
<path d="M11.3450 19.0350
L11.3550 19.0510
" />
<path d="M11.3450 20.2140
L11.3330 20.2300
" />
<path d="M11.3550 19.0510
L11.3660 19.0670
" />
<path d="M11.3550 20.1980
L11.3450 20.2140
" />
<path d="M11.3660 19.0670
L11.3750 19.0850
" />
<path d="M11.3660 20.1820
L11.3550 20.1980
" />
<path d="M11.3750 19.0850
L11.3850 19.1020
" />
<path d="M11.3750 20.1660
L11.3660 20.1820
" />
<path d="M11.3850 19.1020
L11.3930 19.1190
" />
<path d="M11.3850 20.1480
L11.3750 20.1660
" />
<path d="M11.3930 19.1190
L11.3990 19.1370
" />
<path d="M11.3930 20.1310
L11.3850 20.1480
" />
<path d="M11.3990 19.1370
L11.4060 19.1570
" />
<path d="M11.3990 20.1120
L11.3930 20.1310
" />
<path d="M11.4050 7.6970
L11.4050 7.6240
" />
<path d="M11.4050 9.8480
L10.9440 9.8480
" />
<path d="M11.4050 9.8480
L11.4050 7.6970
" />
<path d="M11.4060 19.1570
L11.4110 19.1760
" />
<path d="M11.4060 20.0930
L11.3990 20.1120
" />
<path d="M11.4110 19.1760
L11.4150 19.1950
" />
<path d="M11.4110 20.0740
L11.4060 20.0930
" />
<path d="M11.4150 19.1950
L11.4190 19.2140
" />
<path d="M11.4150 20.0550
L11.4110 20.0740
" />
<path d="M11.4190 19.2140
L11.4220 19.2340
" />
<path d="M11.4190 20.0350
L11.4150 20.0550
" />
<path d="M11.4220 19.2340
L11.4230 19.2550
" />
<path d="M11.4220 20.0160
L11.4190 20.0350
" />
<path d="M11.4230 19.2550
L11.4250 19.2750
" />
<path d="M11.4230 19.9960
L11.4220 20.0160
" />
<path d="M11.4250 19.9740
L11.4230 19.9960
" />
<path d="M11.4250 19.9740
L11.4250 19.2750
" />
<path d="M11.5690 3.9740
L11.5690 0.9750
" />
<path d="M11.7740 11.2250
L11.7740 13.1540
" />
<path d="M11.7740 13.1540
L11.7740 14.4550
" />
<path d="M11.7740 14.4550
L11.7740 16.1440
" />
<path d="M11.7740 16.1440
L10.6550 16.1440
" />
<path d="M11.9640 7.6970
L11.9640 7.6240
" />
<path d="M11.9640 9.8480
L11.9640 7.6970
" />
<path d="M12.0300 0.9750
L11.5690 0.9750
" />
<path d="M12.0300 0.9750
L12.0300 3.9740
" />
<path d="M12.0750 14.7550
L12.0750 16.4450
" />
<path d="M12.0750 16.4450
L10.9550 16.4450
" />
<path d="M12.2250 21.0760
L5.0240 21.0760
" />
<path d="M12.2250 21.0760
L12.2450 21.0740
" />
<path d="M12.2450 21.0740
L12.2650 21.0730
" />
<path d="M12.2650 21.0730
L12.2850 21.0700
" />
<path d="M12.2850 21.0700
L12.3050 21.0670
" />
<path d="M12.3050 21.0670
L12.3240 21.0630
" />
<path d="M12.3240 21.0630
L12.3420 21.0570
" />
<path d="M12.3420 21.0570
L12.3620 21.0510
" />
<path d="M12.3620 21.0510
L12.3790 21.0440
" />
<path d="M12.3790 21.0440
L12.3980 21.0350
" />
<path d="M12.3980 21.0350
L12.4140 21.0260
" />
<path d="M12.4140 21.0260
L12.4310 21.0180
" />
<path d="M12.4250 7.6970
L12.4250 7.6240
" />
<path d="M12.4250 9.8480
L11.9640 9.8480
" />
<path d="M12.4250 9.8480
L12.4250 7.6970
" />
<path d="M12.4310 21.0180
L12.4470 21.0060
" />
<path d="M12.4470 21.0060
L12.4630 20.9960
" />
<path d="M12.4630 20.9960
L12.4790 20.9830
" />
<path d="M12.4790 20.9830
L12.4920 20.9710
" />
<path d="M12.4920 20.9710
L12.5070 20.9580
" />
<path d="M12.5070 20.9580
L12.5200 20.9440
" />
<path d="M12.5200 20.9440
L12.5320 20.9290
" />
<path d="M12.5320 20.9290
L12.5440 20.9140
" />
<path d="M12.5440 20.9140
L12.5550 20.8980
" />
<path d="M12.5550 20.8980
L12.5670 20.8820
" />
<path d="M12.5670 20.8820
L12.5750 20.8650
" />
<path d="M12.5750 20.8650
L12.5840 20.8490
" />
<path d="M12.5840 20.8490
L12.5920 20.8300
" />
<path d="M12.5920 20.8300
L12.6000 20.8130
" />
<path d="M12.6000 20.8130
L12.6070 20.7940
" />
<path d="M12.6070 20.7940
L12.6120 20.7750
" />
<path d="M12.6120 20.7750
L12.6160 20.7560
" />
<path d="M12.6160 20.7560
L12.6200 20.7360
" />
<path d="M12.6200 20.7360
L12.6210 20.7150
" />
<path d="M12.6210 20.7150
L12.6240 20.6950
" />
<path d="M12.6240 20.6760
L12.6240 18.4740
" />
<path d="M12.6240 20.6950
L12.6240 20.6760
" />
<path d="M12.8390 3.9740
L12.8390 0.9750
" />
<path d="M13.2990 0.9750
L12.8390 0.9750
" />
<path d="M13.2990 3.9740
L13.2990 0.9750
" />
<path d="M13.4270 10.0400
L13.4270 12.0390
" />
<path d="M13.4380 10.0400
L13.4270 10.0400
" />
<path d="M13.4380 12.0390
L13.4270 12.0390
" />
<path d="M13.6790 10.0400
L13.4380 10.0400
" />
<path d="M13.6790 12.0390
L13.4380 12.0390
" />
<path d="M13.8390 10.0400
L13.6790 10.0400
" />
</g>
<g style="fill:#000000; fill-opacity:1.0000; stroke:none;">
<circle cx="13.8390" cy="10.0400" r="0.0100" /> 
</g>
<g style="fill:none; 
stroke:#000000; stroke-width:0.0200; stroke-opacity:1; 
stroke-linecap:round; stroke-linejoin:round;">
<path d="M13.8390 12.0390
L13.6790 12.0390
" />
</g>
<g style="fill:#000000; fill-opacity:1.0000; stroke:none;">
<circle cx="13.8390" cy="12.0390" r="0.0100" /> 
</g>
<g style="fill:none; 
stroke:#000000; stroke-width:0.0200; stroke-opacity:1; 
stroke-linecap:round; stroke-linejoin:round;">
<path d="M14.1770 10.0400
L13.8390 10.0400
" />
<path d="M14.1770 10.0400
L15.3790 10.0400
" />
<path d="M14.1770 12.0390
L13.8390 12.0390
" />
<path d="M14.1770 12.0390
L15.3790 12.0390
" />
<path d="M14.5780 7.6240
L14.5780 10.0400
" />
<path d="M14.5780 12.0390
L14.5780 14.4550
" />
<path d="M14.5780 13.1540
L11.7740 13.1540
" />
<path d="M14.5780 14.4550
L11.7740 14.4550
" />
<path d="M14.8790 7.3250
L14.8790 9.5400
" />
<path d="M14.8790 9.5400
L15.3790 9.5400
" />
<path d="M14.8790 12.5390
L14.8790 14.7550
" />
<path d="M14.8790 14.7550
L12.0750 14.7550
" />
<path d="M15.3790 9.5400
L15.3790 10.0400
" />
<path d="M15.3790 12.0390
L15.3790 12.5390
" />
<path d="M15.3790 12.5390
L14.8790 12.5390
" />
<path d="M16.3740 3.9740
L0.8750 3.9740
" />
<path d="M16.3740 3.9740
L16.3740 4.2740
" />
<path d="M16.3740 18.4740
L10.9550 18.4740
" />
<path d="M16.3740 18.4740
L16.3740 18.1760
" />
<path d="M16.6750 4.2740
L16.3740 4.2740
" />
<path d="M16.6750 18.1760
L16.3740 18.1760
" />
<path d="M16.6750 18.1760
L16.6750 4.2740
" />
</g> 
</svg>
