<?xml version="1.0" standalone="no"?>
 <!DOCTYPE svg PUBLIC "-//W3C//DTD SVG 1.1//EN" 
 "http://www.w3.org/Graphics/SVG/1.1/DTD/svg11.dtd"> 
<svg
  xmlns:svg="http://www.w3.org/2000/svg"
  xmlns="http://www.w3.org/2000/svg"
  xmlns:xlink="http://www.w3.org/1999/xlink"
  version="1.1"
  width="2.7432mm" height="2.7432mm" viewBox="0.0000 0.0000 2.7432 2.7432">
<title>SVG Image created as outline.svg date 2025/04/04 10:06:30 </title>
  <desc>Image generated by PCBNEW </desc>
<g style="fill:#000000; fill-opacity:1.0000;stroke:#000000; stroke-opacity:1.0000;
stroke-linecap:round; stroke-linejoin:round;"
 transform="translate(0 0) scale(1 1)">
</g>
<g style="fill:none; 
stroke:#000000; stroke-width:0.0200; stroke-opacity:1; 
stroke-linecap:round; stroke-linejoin:round;">
<path d="M0.2270 0.5750
L0.2270 0.8770
" />
<path d="M0.2270 0.5750
L0.4500 0.5750
" />
<path d="M0.2270 0.8770
L0.4500 0.8770
" />
<path d="M0.2270 1.8750
L0.2270 2.1770
" />
<path d="M0.2270 1.8750
L0.4500 1.8750
" />
<path d="M0.2270 2.1770
L0.4500 2.1770
" />
<path d="M0.5000 0.5750
L0.4500 0.5750
" />
<path d="M0.5000 0.8770
L0.4500 0.8770
" />
<path d="M0.5000 1.8750
L0.4500 1.8750
" />
<path d="M0.5000 2.1770
L0.4500 2.1770
" />
<path d="M0.5490 0.5750
L0.5000 0.5750
" />
<path d="M0.5490 0.5750
L0.7480 0.5750
" />
<path d="M0.5490 0.8770
L0.5000 0.8770
" />
<path d="M0.5490 0.8770
L0.7480 0.8770
" />
<path d="M0.5490 1.8750
L0.5000 1.8750
" />
<path d="M0.5490 1.8750
L0.7480 1.8750
" />
<path d="M0.5490 2.1770
L0.5000 2.1770
" />
<path d="M0.5490 2.1770
L0.7480 2.1770
" />
<path d="M0.7510 0.4140
L0.7520 0.4090
" />
<path d="M0.7510 0.4170
L0.7510 0.4140
" />
<path d="M0.7510 2.3350
L0.7520 2.3300
" />
<path d="M0.7510 2.3380
L0.7510 2.3350
" />
<path d="M0.7520 0.4050
L0.7530 0.4000
" />
<path d="M0.7520 0.4090
L0.7520 0.4050
" />
<path d="M0.7520 0.4220
L0.7510 0.4170
" />
<path d="M0.7520 0.4220
L0.7520 0.5750
" />
<path d="M0.7520 0.8770
L0.7520 1.8750
" />
<path d="M0.7520 2.1770
L0.7520 2.3300
" />
<path d="M0.7520 2.3430
L0.7510 2.3380
" />
<path d="M0.7520 2.3470
L0.7520 2.3430
" />
<path d="M0.7530 0.4000
L0.7550 0.3960
" />
<path d="M0.7530 2.3520
L0.7520 2.3470
" />
<path d="M0.7550 0.3960
L0.7560 0.3910
" />
<path d="M0.7550 2.3560
L0.7530 2.3520
" />
<path d="M0.7560 0.3910
L0.7580 0.3870
" />
<path d="M0.7560 2.3610
L0.7550 2.3560
" />
<path d="M0.7580 0.3870
L0.7600 0.3820
" />
<path d="M0.7580 2.3650
L0.7560 2.3610
" />
<path d="M0.7600 0.3820
L0.7620 0.3780
" />
<path d="M0.7600 2.3700
L0.7580 2.3650
" />
<path d="M0.7620 0.3780
L0.7650 0.3740
" />
<path d="M0.7620 2.3740
L0.7600 2.3700
" />
<path d="M0.7650 0.3740
L0.7670 0.3700
" />
<path d="M0.7650 2.3790
L0.7620 2.3740
" />
<path d="M0.7670 0.3700
L0.7700 0.3660
" />
<path d="M0.7670 2.3830
L0.7650 2.3790
" />
<path d="M0.7700 0.3660
L0.7730 0.3620
" />
<path d="M0.7700 2.3870
L0.7670 2.3830
" />
<path d="M0.7730 0.3620
L0.7760 0.3580
" />
<path d="M0.7730 2.3910
L0.7700 2.3870
" />
<path d="M0.7760 0.3580
L0.7800 0.3540
" />
<path d="M0.7760 2.3950
L0.7730 2.3910
" />
<path d="M0.7800 0.3540
L0.7830 0.3510
" />
<path d="M0.7800 2.3970
L0.7760 2.3950
" />
<path d="M0.7830 0.3510
L0.7870 0.3470
" />
<path d="M0.7830 2.4020
L0.7800 2.3970
" />
<path d="M0.7870 0.3470
L0.7910 0.3450
" />
<path d="M0.7870 2.4040
L0.7830 2.4020
" />
<path d="M0.7910 0.3450
L0.7950 0.3410
" />
<path d="M0.7910 2.4080
L0.7870 2.4040
" />
<path d="M0.7920 0.5750
L0.7480 0.5750
" />
<path d="M0.7920 0.5750
L0.7920 0.8770
" />
<path d="M0.7920 0.8770
L0.7480 0.8770
" />
<path d="M0.7920 1.8750
L0.7480 1.8750
" />
<path d="M0.7920 1.8750
L0.7920 2.1770
" />
<path d="M0.7920 2.1770
L0.7480 2.1770
" />
<path d="M0.7950 0.3410
L0.7990 0.3390
" />
<path d="M0.7950 2.4100
L0.7910 2.4080
" />
<path d="M0.7990 0.3390
L0.8020 0.3370
" />
<path d="M0.7990 2.4120
L0.7950 2.4100
" />
<path d="M0.8020 0.3370
L0.8060 0.3350
" />
<path d="M0.8020 2.4160
L0.7990 2.4120
" />
<path d="M0.8060 0.3350
L0.8110 0.3330
" />
<path d="M0.8060 2.4180
L0.8020 2.4160
" />
<path d="M0.8110 0.3330
L0.8150 0.3310
" />
<path d="M0.8110 2.4200
L0.8060 2.4180
" />
<path d="M0.8150 0.3310
L0.8200 0.3290
" />
<path d="M0.8150 2.4220
L0.8110 2.4200
" />
<path d="M0.8200 0.3290
L0.8240 0.3270
" />
<path d="M0.8200 2.4220
L0.8150 2.4220
" />
<path d="M0.8240 0.3270
L0.8290 0.3270
" />
<path d="M0.8240 2.4240
L0.8200 2.4220
" />
<path d="M0.8290 0.3270
L0.8330 0.3270
" />
<path d="M0.8290 2.4260
L0.8240 2.4240
" />
<path d="M0.8330 0.3270
L0.8380 0.3250
" />
<path d="M0.8330 2.4260
L0.8290 2.4260
" />
<path d="M0.8380 0.3250
L0.8420 0.3250
" />
<path d="M0.8380 2.4260
L0.8330 2.4260
" />
<path d="M0.8420 0.3250
L0.8470 0.3250
" />
<path d="M0.8420 2.4260
L0.8380 2.4260
" />
<path d="M0.8470 2.4260
L0.8420 2.4260
" />
<path d="M0.8470 2.4260
L1.9050 2.4260
" />
<path d="M0.8570 0.5260
L0.8580 0.5300
" />
<path d="M0.8570 2.2260
L0.8580 2.2310
" />
<path d="M0.8580 0.5160
L0.8580 0.5210
" />
<path d="M0.8580 0.5210
L0.8570 0.5260
" />
<path d="M0.8580 0.5300
L0.8580 2.2220
" />
<path d="M0.8580 2.2220
L0.8570 2.2260
" />
<path d="M0.8580 2.2310
L0.8580 2.2360
" />
<path d="M0.8580 2.2360
L0.8590 2.2400
" />
<path d="M0.8590 0.5120
L0.8580 0.5160
" />
<path d="M0.8590 2.2400
L0.8600 2.2450
" />
<path d="M0.8600 0.5070
L0.8590 0.5120
" />
<path d="M0.8600 2.2450
L0.8610 2.2490
" />
<path d="M0.8610 0.5030
L0.8600 0.5070
" />
<path d="M0.8610 2.2490
L0.8620 2.2540
" />
<path d="M0.8620 0.4980
L0.8610 0.5030
" />
<path d="M0.8620 2.2540
L0.8650 2.2580
" />
<path d="M0.8650 0.4940
L0.8620 0.4980
" />
<path d="M0.8650 2.2580
L0.8670 2.2620
" />
<path d="M0.8670 0.4900
L0.8650 0.4940
" />
<path d="M0.8670 2.2620
L0.8690 2.2670
" />
<path d="M0.8690 0.4850
L0.8670 0.4900
" />
<path d="M0.8690 2.2670
L0.8720 2.2710
" />
<path d="M0.8720 0.4810
L0.8690 0.4850
" />
<path d="M0.8720 2.2710
L0.8750 2.2760
" />
<path d="M0.8750 0.4760
L0.8720 0.4810
" />
<path d="M0.8750 2.2760
L0.8770 2.2800
" />
<path d="M0.8770 0.4720
L0.8750 0.4760
" />
<path d="M0.8770 2.2800
L0.8800 2.2840
" />
<path d="M0.8800 0.4680
L0.8770 0.4720
" />
<path d="M0.8800 2.2840
L0.8840 2.2870
" />
<path d="M0.8840 0.4650
L0.8800 0.4680
" />
<path d="M0.8840 2.2870
L0.8870 2.2910
" />
<path d="M0.8870 0.4610
L0.8840 0.4650
" />
<path d="M0.8870 2.2910
L0.8910 2.2940
" />
<path d="M0.8910 0.4580
L0.8870 0.4610
" />
<path d="M0.8910 2.2940
L0.8940 2.2980
" />
<path d="M0.8940 0.4540
L0.8910 0.4580
" />
<path d="M0.8940 2.2980
L0.8970 2.3010
" />
<path d="M0.8970 0.4510
L0.8940 0.4540
" />
<path d="M0.8970 2.3010
L0.9010 2.3030
" />
<path d="M0.9010 0.4490
L0.8970 0.4510
" />
<path d="M0.9010 2.3030
L0.9050 2.3060
" />
<path d="M0.9050 0.4460
L0.9010 0.4490
" />
<path d="M0.9050 2.3060
L0.9090 2.3090
" />
<path d="M0.9090 0.4430
L0.9050 0.4460
" />
<path d="M0.9090 2.3090
L0.9140 2.3110
" />
<path d="M0.9140 0.4410
L0.9090 0.4430
" />
<path d="M0.9140 2.3110
L0.9180 2.3130
" />
<path d="M0.9180 0.4390
L0.9140 0.4410
" />
<path d="M0.9180 2.3130
L0.9220 2.3150
" />
<path d="M0.9220 0.4370
L0.9180 0.4390
" />
<path d="M0.9220 2.3150
L0.9270 2.3160
" />
<path d="M0.9270 0.4360
L0.9220 0.4370
" />
<path d="M0.9270 2.3160
L0.9320 2.3170
" />
<path d="M0.9320 0.4350
L0.9270 0.4360
" />
<path d="M0.9320 2.3170
L0.9370 2.3180
" />
<path d="M0.9370 0.4340
L0.9320 0.4350
" />
<path d="M0.9370 2.3180
L0.9410 2.3190
" />
<path d="M0.9410 0.4330
L0.9370 0.4340
" />
<path d="M0.9410 2.3190
L0.9460 2.3190
" />
<path d="M0.9460 0.4330
L0.9410 0.4330
" />
<path d="M0.9460 2.3190
L0.9510 2.3200
" />
<path d="M0.9510 0.4320
L0.9460 0.4330
" />
<path d="M0.9510 2.3200
L0.9550 2.3190
" />
<path d="M0.9550 0.4330
L0.9510 0.4320
" />
<path d="M0.9550 2.3190
L1.7970 2.3190
" />
<path d="M1.7970 0.4330
L0.9550 0.4330
" />
<path d="M1.7970 2.3190
L1.8010 2.3200
" />
<path d="M1.8010 0.4320
L1.7970 0.4330
" />
<path d="M1.8010 2.3200
L1.8060 2.3190
" />
<path d="M1.8060 0.4330
L1.8010 0.4320
" />
<path d="M1.8060 2.3190
L1.8110 2.3190
" />
<path d="M1.8110 0.4330
L1.8060 0.4330
" />
<path d="M1.8110 2.3190
L1.8150 2.3180
" />
<path d="M1.8150 0.4340
L1.8110 0.4330
" />
<path d="M1.8150 2.3180
L1.8200 2.3170
" />
<path d="M1.8200 0.4350
L1.8150 0.4340
" />
<path d="M1.8200 2.3170
L1.8250 2.3160
" />
<path d="M1.8250 0.4360
L1.8200 0.4350
" />
<path d="M1.8250 2.3160
L1.8300 2.3150
" />
<path d="M1.8300 0.4370
L1.8250 0.4360
" />
<path d="M1.8300 2.3150
L1.8340 2.3130
" />
<path d="M1.8340 0.4390
L1.8300 0.4370
" />
<path d="M1.8340 2.3130
L1.8380 2.3110
" />
<path d="M1.8380 0.4410
L1.8340 0.4390
" />
<path d="M1.8380 2.3110
L1.8430 2.3090
" />
<path d="M1.8430 0.4430
L1.8380 0.4410
" />
<path d="M1.8430 2.3090
L1.8470 2.3060
" />
<path d="M1.8470 0.4460
L1.8430 0.4430
" />
<path d="M1.8470 2.3060
L1.8510 2.3030
" />
<path d="M1.8510 0.4490
L1.8470 0.4460
" />
<path d="M1.8510 2.3030
L1.8550 2.3010
" />
<path d="M1.8550 0.4510
L1.8510 0.4490
" />
<path d="M1.8550 2.3010
L1.8580 2.2980
" />
<path d="M1.8580 0.4540
L1.8550 0.4510
" />
<path d="M1.8580 2.2980
L1.8610 2.2940
" />
<path d="M1.8610 0.4580
L1.8580 0.4540
" />
<path d="M1.8610 2.2940
L1.8650 2.2910
" />
<path d="M1.8650 0.4610
L1.8610 0.4580
" />
<path d="M1.8650 2.2910
L1.8680 2.2870
" />
<path d="M1.8680 0.4650
L1.8650 0.4610
" />
<path d="M1.8680 2.2870
L1.8720 2.2840
" />
<path d="M1.8720 0.4680
L1.8680 0.4650
" />
<path d="M1.8720 2.2840
L1.8750 2.2800
" />
<path d="M1.8750 0.4720
L1.8720 0.4680
" />
<path d="M1.8750 2.2800
L1.8770 2.2760
" />
<path d="M1.8770 0.4760
L1.8750 0.4720
" />
<path d="M1.8770 2.2760
L1.8800 2.2710
" />
<path d="M1.8800 0.4810
L1.8770 0.4760
" />
<path d="M1.8800 2.2710
L1.8830 2.2670
" />
<path d="M1.8830 0.4850
L1.8800 0.4810
" />
<path d="M1.8830 2.2670
L1.8850 2.2620
" />
<path d="M1.8850 0.4900
L1.8830 0.4850
" />
<path d="M1.8850 2.2620
L1.8870 2.2580
" />
<path d="M1.8870 0.4940
L1.8850 0.4900
" />
<path d="M1.8870 2.2580
L1.8900 2.2540
" />
<path d="M1.8900 0.4980
L1.8870 0.4940
" />
<path d="M1.8900 2.2540
L1.8910 2.2490
" />
<path d="M1.8910 0.5030
L1.8900 0.4980
" />
<path d="M1.8910 2.2490
L1.8920 2.2450
" />
<path d="M1.8920 0.5070
L1.8910 0.5030
" />
<path d="M1.8920 2.2450
L1.8930 2.2400
" />
<path d="M1.8930 0.5120
L1.8920 0.5070
" />
<path d="M1.8930 2.2400
L1.8940 2.2360
" />
<path d="M1.8940 0.5160
L1.8930 0.5120
" />
<path d="M1.8940 0.5210
L1.8940 0.5160
" />
<path d="M1.8940 0.5300
L1.8950 0.5260
" />
<path d="M1.8940 2.2220
L1.8940 0.5300
" />
<path d="M1.8940 2.2310
L1.8950 2.2260
" />
<path d="M1.8940 2.2360
L1.8940 2.2310
" />
<path d="M1.8950 0.5260
L1.8940 0.5210
" />
<path d="M1.8950 2.2260
L1.8940 2.2220
" />
<path d="M1.9050 0.3250
L0.8470 0.3250
" />
<path d="M1.9050 0.3250
L1.9100 0.3250
" />
<path d="M1.9100 0.3250
L1.9140 0.3250
" />
<path d="M1.9100 2.4260
L1.9050 2.4260
" />
<path d="M1.9140 0.3250
L1.9190 0.3270
" />
<path d="M1.9140 2.4260
L1.9100 2.4260
" />
<path d="M1.9190 0.3270
L1.9230 0.3270
" />
<path d="M1.9190 2.4260
L1.9140 2.4260
" />
<path d="M1.9230 0.3270
L1.9280 0.3270
" />
<path d="M1.9230 2.4260
L1.9190 2.4260
" />
<path d="M1.9280 0.3270
L1.9320 0.3290
" />
<path d="M1.9280 2.4240
L1.9230 2.4260
" />
<path d="M1.9320 0.3290
L1.9370 0.3310
" />
<path d="M1.9320 2.4220
L1.9280 2.4240
" />
<path d="M1.9370 0.3310
L1.9410 0.3330
" />
<path d="M1.9370 2.4220
L1.9320 2.4220
" />
<path d="M1.9410 0.3330
L1.9460 0.3350
" />
<path d="M1.9410 2.4200
L1.9370 2.4220
" />
<path d="M1.9460 0.3350
L1.9500 0.3370
" />
<path d="M1.9460 2.4180
L1.9410 2.4200
" />
<path d="M1.9500 0.3370
L1.9530 0.3390
" />
<path d="M1.9500 2.4160
L1.9460 2.4180
" />
<path d="M1.9530 0.3390
L1.9570 0.3410
" />
<path d="M1.9530 2.4120
L1.9500 2.4160
" />
<path d="M1.9570 0.3410
L1.9610 0.3450
" />
<path d="M1.9570 2.4100
L1.9530 2.4120
" />
<path d="M1.9600 1.2270
L2.0040 1.2270
" />
<path d="M1.9600 1.5250
L1.9600 1.2270
" />
<path d="M1.9600 1.5250
L2.0040 1.5250
" />
<path d="M1.9610 0.3450
L1.9650 0.3470
" />
<path d="M1.9610 2.4080
L1.9570 2.4100
" />
<path d="M1.9650 0.3470
L1.9690 0.3510
" />
<path d="M1.9650 2.4040
L1.9610 2.4080
" />
<path d="M1.9690 0.3510
L1.9720 0.3540
" />
<path d="M1.9690 2.4020
L1.9650 2.4040
" />
<path d="M1.9720 0.3540
L1.9760 0.3580
" />
<path d="M1.9720 2.3970
L1.9690 2.4020
" />
<path d="M1.9760 0.3580
L1.9790 0.3620
" />
<path d="M1.9760 2.3950
L1.9720 2.3970
" />
<path d="M1.9790 0.3620
L1.9820 0.3660
" />
<path d="M1.9790 2.3910
L1.9760 2.3950
" />
<path d="M1.9820 0.3660
L1.9850 0.3700
" />
<path d="M1.9820 2.3870
L1.9790 2.3910
" />
<path d="M1.9850 0.3700
L1.9870 0.3740
" />
<path d="M1.9850 2.3830
L1.9820 2.3870
" />
<path d="M1.9870 0.3740
L1.9900 0.3780
" />
<path d="M1.9870 2.3790
L1.9850 2.3830
" />
<path d="M1.9900 0.3780
L1.9920 0.3820
" />
<path d="M1.9900 2.3740
L1.9870 2.3790
" />
<path d="M1.9920 0.3820
L1.9940 0.3870
" />
<path d="M1.9920 2.3700
L1.9900 2.3740
" />
<path d="M1.9940 0.3870
L1.9960 0.3910
" />
<path d="M1.9940 2.3650
L1.9920 2.3700
" />
<path d="M1.9960 0.3910
L1.9970 0.3960
" />
<path d="M1.9960 2.3610
L1.9940 2.3650
" />
<path d="M1.9970 0.3960
L1.9990 0.4000
" />
<path d="M1.9970 2.3560
L1.9960 2.3610
" />
<path d="M1.9990 0.4000
L2.0000 0.4050
" />
<path d="M1.9990 2.3520
L1.9970 2.3560
" />
<path d="M2.0000 0.4050
L2.0000 0.4090
" />
<path d="M2.0000 0.4090
L2.0010 0.4140
" />
<path d="M2.0000 1.2270
L2.0000 0.4220
" />
<path d="M2.0000 2.3300
L2.0000 1.5250
" />
<path d="M2.0000 2.3300
L2.0010 2.3350
" />
<path d="M2.0000 2.3430
L2.0000 2.3470
" />
<path d="M2.0000 2.3470
L1.9990 2.3520
" />
<path d="M2.0010 0.4140
L2.0010 0.4170
" />
<path d="M2.0010 0.4170
L2.0000 0.4220
" />
<path d="M2.0010 2.3350
L2.0010 2.3380
" />
<path d="M2.0010 2.3380
L2.0000 2.3430
" />
<path d="M2.2030 1.2270
L2.0040 1.2270
" />
<path d="M2.2030 1.2270
L2.2520 1.2270
" />
<path d="M2.2030 1.5250
L2.0040 1.5250
" />
<path d="M2.2030 1.5250
L2.2520 1.5250
" />
<path d="M2.2520 1.2270
L2.3020 1.2270
" />
<path d="M2.2520 1.5250
L2.3020 1.5250
" />
<path d="M2.5260 1.2270
L2.3020 1.2270
" />
<path d="M2.5260 1.5250
L2.3020 1.5250
" />
<path d="M2.5260 1.5250
L2.5260 1.2270
" />
</g> 
</svg>
