<?xml version="1.0" standalone="no"?>
 <!DOCTYPE svg PUBLIC "-//W3C//DTD SVG 1.1//EN" 
 "http://www.w3.org/Graphics/SVG/1.1/DTD/svg11.dtd"> 
<svg
  xmlns:svg="http://www.w3.org/2000/svg"
  xmlns="http://www.w3.org/2000/svg"
  xmlns:xlink="http://www.w3.org/1999/xlink"
  version="1.1"
  width="17.8308mm" height="16.0274mm" viewBox="0.0000 0.0000 17.8308 16.0274">
<title>SVG Image created as outline.svg date 2025/04/04 10:06:06 </title>
  <desc>Image generated by PCBNEW </desc>
<g style="fill:#000000; fill-opacity:1.0000;stroke:#000000; stroke-opacity:1.0000;
stroke-linecap:round; stroke-linejoin:round;"
 transform="translate(0 0) scale(1 1)">
</g>
<g style="fill:none; 
stroke:#000000; stroke-width:0.0200; stroke-opacity:1; 
stroke-linecap:round; stroke-linejoin:round;">
<path d="M0.9950 2.1050
L0.9950 3.1050
" />
<path d="M0.9950 3.1050
L1.4950 3.1050
" />
<path d="M0.9950 5.1050
L0.9950 6.1050
" />
<path d="M1.4950 3.1050
L1.4950 5.1050
" />
<path d="M1.4950 5.1050
L0.9950 5.1050
" />
<path d="M1.6950 15.2850
L1.6950 15.5850
" />
<path d="M1.6950 15.2850
L2.0950 15.2850
" />
<path d="M2.0950 15.5850
L1.6950 15.5850
" />
<path d="M2.1420 15.2810
L2.0950 15.2850
" />
<path d="M2.1450 2.1050
L0.9950 2.1050
" />
<path d="M2.1450 6.1050
L0.9950 6.1050
" />
<path d="M2.1450 6.1050
L2.1450 2.1050
" />
<path d="M2.1620 15.5810
L2.0950 15.5850
" />
<path d="M2.1730 2.1050
L2.1450 2.1050
" />
<path d="M2.1730 6.1050
L2.1450 6.1050
" />
<path d="M2.1880 15.2700
L2.1420 15.2810
" />
<path d="M2.2010 2.1050
L2.1730 2.1050
" />
<path d="M2.2010 6.1050
L2.1730 6.1050
" />
<path d="M2.2280 2.1050
L2.2010 2.1050
" />
<path d="M2.2280 6.1050
L2.2010 6.1050
" />
<path d="M2.2290 15.5700
L2.1620 15.5810
" />
<path d="M2.2310 15.2520
L2.1880 15.2700
" />
<path d="M2.2530 2.1050
L2.2280 2.1050
" />
<path d="M2.2530 6.1050
L2.2280 6.1050
" />
<path d="M2.2710 15.2280
L2.2310 15.2520
" />
<path d="M2.2780 2.1050
L2.2530 2.1050
" />
<path d="M2.2780 6.1050
L2.2530 6.1050
" />
<path d="M2.2930 15.5510
L2.2290 15.5700
" />
<path d="M2.3010 2.1050
L2.2780 2.1050
" />
<path d="M2.3010 6.1050
L2.2780 6.1050
" />
<path d="M2.3070 15.1970
L2.2710 15.2280
" />
<path d="M2.3220 2.1050
L2.3010 2.1050
" />
<path d="M2.3220 6.1050
L2.3010 6.1050
" />
<path d="M2.3380 15.1610
L2.3070 15.1970
" />
<path d="M2.3400 2.1050
L2.3220 2.1050
" />
<path d="M2.3400 6.1050
L2.3220 6.1050
" />
<path d="M2.3550 15.5260
L2.2930 15.5510
" />
<path d="M2.3570 2.1050
L2.3400 2.1050
" />
<path d="M2.3570 6.1050
L2.3400 6.1050
" />
<path d="M2.3620 15.1210
L2.3380 15.1610
" />
<path d="M2.3700 2.1050
L2.3570 2.1050
" />
<path d="M2.3700 6.1050
L2.3570 6.1050
" />
<path d="M2.3800 15.0780
L2.3620 15.1210
" />
<path d="M2.3810 2.1050
L2.3700 2.1050
" />
<path d="M2.3810 6.1050
L2.3700 6.1050
" />
<path d="M2.3890 2.1050
L2.3810 2.1050
" />
<path d="M2.3890 6.1050
L2.3810 6.1050
" />
<path d="M2.3910 15.0320
L2.3800 15.0780
" />
<path d="M2.3930 2.1050
L2.3890 2.1050
" />
<path d="M2.3930 6.1050
L2.3890 6.1050
" />
<path d="M2.3950 1.6050
L2.3950 14.9850
" />
<path d="M2.3950 1.6050
L2.3990 1.6050
" />
<path d="M2.3950 2.1050
L2.3930 2.1050
" />
<path d="M2.3950 6.1050
L2.3930 6.1050
" />
<path d="M2.3950 14.9850
L2.3910 15.0320
" />
<path d="M2.3990 1.6050
L2.4100 1.6050
" />
<path d="M2.3990 14.9850
L2.3950 14.9850
" />
<path d="M2.4100 1.6050
L2.4290 1.6050
" />
<path d="M2.4100 14.9850
L2.3990 14.9850
" />
<path d="M2.4140 15.4930
L2.3550 15.5260
" />
<path d="M2.4290 1.6050
L2.4540 1.6050
" />
<path d="M2.4290 14.9850
L2.4100 14.9850
" />
<path d="M2.4540 1.6050
L2.4870 1.6050
" />
<path d="M2.4540 14.9850
L2.4290 14.9850
" />
<path d="M2.4690 15.4540
L2.4140 15.4930
" />
<path d="M2.4870 1.6050
L2.5260 1.6050
" />
<path d="M2.4870 14.9850
L2.4540 14.9850
" />
<path d="M2.5190 15.4090
L2.4690 15.4540
" />
<path d="M2.5260 1.6050
L2.5710 1.6050
" />
<path d="M2.5260 14.9850
L2.4870 14.9850
" />
<path d="M2.5640 15.3590
L2.5190 15.4090
" />
<path d="M2.5710 1.6050
L2.6210 1.6050
" />
<path d="M2.5710 14.9850
L2.5260 14.9850
" />
<path d="M2.6030 15.3040
L2.5640 15.3590
" />
<path d="M2.6210 1.6050
L2.6760 1.6050
" />
<path d="M2.6210 14.9850
L2.5710 14.9850
" />
<path d="M2.6360 15.2450
L2.6030 15.3040
" />
<path d="M2.6610 15.1830
L2.6360 15.2450
" />
<path d="M2.6760 1.6050
L2.7350 1.6050
" />
<path d="M2.6760 14.9850
L2.6210 14.9850
" />
<path d="M2.6800 15.1190
L2.6610 15.1830
" />
<path d="M2.6910 15.0520
L2.6800 15.1190
" />
<path d="M2.6950 14.9850
L2.6910 15.0520
" />
<path d="M2.7350 1.6050
L2.7970 1.6050
" />
<path d="M2.7350 14.9850
L2.6760 14.9850
" />
<path d="M2.7970 1.6050
L2.8610 1.6050
" />
<path d="M2.7970 14.9850
L2.7350 14.9850
" />
<path d="M2.8610 1.6050
L2.9280 1.6050
" />
<path d="M2.8610 14.9850
L2.7970 14.9850
" />
<path d="M2.9280 1.6050
L2.9950 1.6050
" />
<path d="M2.9280 14.9850
L2.8610 14.9850
" />
<path d="M2.9950 1.6050
L14.8950 1.6050
" />
<path d="M2.9950 14.9850
L2.9280 14.9850
" />
<path d="M2.9950 14.9850
L2.9950 1.6050
" />
<path d="M2.9950 15.0210
L2.9950 14.9850
" />
<path d="M2.9950 15.0560
L2.9950 15.0210
" />
<path d="M2.9950 15.0910
L2.9950 15.0560
" />
<path d="M2.9950 15.1240
L2.9950 15.0910
" />
<path d="M2.9950 15.1550
L2.9950 15.1240
" />
<path d="M2.9950 15.1850
L2.9950 15.1550
" />
<path d="M2.9950 15.2110
L2.9950 15.1850
" />
<path d="M2.9950 15.2350
L2.9950 15.2110
" />
<path d="M2.9950 15.2560
L2.9950 15.2350
" />
<path d="M2.9950 15.2730
L2.9950 15.2560
" />
<path d="M2.9950 15.2870
L2.9950 15.2730
" />
<path d="M2.9950 15.2970
L2.9950 15.2870
" />
<path d="M2.9950 15.3030
L2.9950 15.2970
" />
<path d="M2.9950 15.3050
L2.9950 15.3030
" />
<path d="M2.9950 15.3050
L2.9950 15.6050
" />
<path d="M2.9950 15.3050
L14.8950 15.3050
" />
<path d="M2.9950 15.6050
L14.8950 15.6050
" />
<path d="M4.6120 7.8960
L4.6140 7.8560
" />
<path d="M4.6120 7.8960
L4.8920 14.2980
" />
<path d="M4.6140 7.8560
L4.6220 7.8160
" />
<path d="M4.6220 7.8160
L4.6360 7.7780
" />
<path d="M4.6360 7.7780
L4.6560 7.7430
" />
<path d="M4.6560 7.7430
L4.6810 7.7120
" />
<path d="M4.6810 7.7120
L4.7110 7.6850
" />
<path d="M4.7110 7.6850
L4.7450 7.6640
" />
<path d="M4.7450 7.6640
L4.7830 7.6480
" />
<path d="M4.7830 7.6480
L4.8220 7.6380
" />
<path d="M4.8220 7.6380
L4.8620 7.6350
" />
<path d="M4.8620 7.6350
L4.9020 7.6380
" />
<path d="M4.8970 14.3440
L4.8920 14.2980
" />
<path d="M4.9020 7.6380
L4.9410 7.6480
" />
<path d="M4.9090 14.3880
L4.8970 14.3440
" />
<path d="M4.9280 14.4290
L4.9090 14.3880
" />
<path d="M4.9410 7.6480
L4.9780 7.6640
" />
<path d="M4.9530 14.4680
L4.9280 14.4290
" />
<path d="M4.9780 7.6640
L5.0120 7.6850
" />
<path d="M4.9840 14.5020
L4.9530 14.4680
" />
<path d="M5.0120 7.6850
L5.0420 7.7110
" />
<path d="M5.0190 14.5310
L4.9840 14.5020
" />
<path d="M5.0420 7.7110
L5.0670 7.7430
" />
<path d="M5.0590 14.5540
L5.0190 14.5310
" />
<path d="M5.0670 7.7430
L5.0870 7.7770
" />
<path d="M5.0870 7.7770
L5.1020 7.8150
" />
<path d="M5.1010 14.5710
L5.0590 14.5540
" />
<path d="M5.1020 7.8150
L5.1100 7.8540
" />
<path d="M5.1120 7.8550
L5.1100 7.8540
" />
<path d="M5.1240 7.8750
L5.1120 7.8550
" />
<path d="M5.1240 7.8750
L7.6660 7.8750
" />
<path d="M5.1450 0.9650
L5.1880 0.8050
" />
<path d="M5.1450 1.6050
L5.1450 0.9650
" />
<path d="M5.1460 14.5820
L5.1010 14.5710
" />
<path d="M5.1910 14.5850
L5.1460 14.5820
" />
<path d="M5.1910 14.5850
L7.5990 14.5850
" />
<path d="M5.2970 11.8330
L5.1240 7.8750
" />
<path d="M5.3030 12.0240
L5.2970 11.8330
" />
<path d="M5.3100 12.1650
L5.3030 12.0240
" />
<path d="M5.3100 12.1650
L7.4800 12.1650
" />
<path d="M5.3280 12.3750
L5.3100 12.1650
" />
<path d="M5.3280 12.3750
L5.3360 12.4620
" />
<path d="M5.3360 12.4620
L5.3410 12.5260
" />
<path d="M5.3410 12.5260
L5.3410 12.7190
" />
<path d="M5.3410 12.7190
L5.3360 12.4620
" />
<path d="M5.3700 13.0350
L5.3410 12.5260
" />
<path d="M5.3700 13.2270
L5.3410 12.7190
" />
<path d="M5.3700 13.2270
L5.3700 13.0350
" />
<path d="M5.3730 13.0560
L5.3700 13.0350
" />
<path d="M5.3730 13.2490
L5.3700 13.2270
" />
<path d="M5.3780 13.0780
L5.3730 13.0560
" />
<path d="M5.3780 13.2710
L5.3730 13.2490
" />
<path d="M5.3860 13.0990
L5.3780 13.0780
" />
<path d="M5.3860 13.2920
L5.3780 13.2710
" />
<path d="M5.3970 13.1190
L5.3860 13.0990
" />
<path d="M5.3970 13.3120
L5.3860 13.2920
" />
<path d="M5.4100 13.1390
L5.3970 13.1190
" />
<path d="M5.4100 13.3320
L5.3970 13.3120
" />
<path d="M5.4250 13.1570
L5.4100 13.1390
" />
<path d="M5.4250 13.3500
L5.4100 13.3320
" />
<path d="M5.4430 13.1750
L5.4250 13.1570
" />
<path d="M5.4430 13.3670
L5.4250 13.3500
" />
<path d="M5.4630 13.1910
L5.4430 13.1750
" />
<path d="M5.4630 13.3830
L5.4430 13.3670
" />
<path d="M5.4840 13.2050
L5.4630 13.1910
" />
<path d="M5.4840 13.3980
L5.4630 13.3830
" />
<path d="M5.5070 13.2180
L5.4840 13.2050
" />
<path d="M5.5070 13.4110
L5.4840 13.3980
" />
<path d="M5.5320 13.2290
L5.5070 13.2180
" />
<path d="M5.5320 13.4220
L5.5070 13.4110
" />
<path d="M5.5580 13.2380
L5.5320 13.2290
" />
<path d="M5.5580 13.4310
L5.5320 13.4220
" />
<path d="M5.5850 13.2450
L5.5580 13.2380
" />
<path d="M5.5850 13.4380
L5.5580 13.4310
" />
<path d="M5.6130 13.2500
L5.5850 13.2450
" />
<path d="M5.6130 13.4430
L5.5850 13.4380
" />
<path d="M5.6410 13.2530
L5.6130 13.2500
" />
<path d="M5.6410 13.4460
L5.6130 13.4430
" />
<path d="M5.6700 13.2540
L5.6410 13.2530
" />
<path d="M5.6700 13.4470
L5.6410 13.4460
" />
<path d="M5.6700 13.4470
L5.6700 13.2540
" />
<path d="M5.7020 0.8050
L5.1880 0.8050
" />
<path d="M5.7020 0.8050
L5.7450 0.9650
" />
<path d="M5.7450 0.9650
L5.7450 1.6050
" />
<path d="M7.1200 13.2540
L5.6700 13.2540
" />
<path d="M7.1200 13.4470
L5.6700 13.4470
" />
<path d="M7.1200 13.4470
L7.1200 13.2540
" />
<path d="M7.1490 13.2530
L7.1200 13.2540
" />
<path d="M7.1490 13.4460
L7.1200 13.4470
" />
<path d="M7.1770 13.2500
L7.1490 13.2530
" />
<path d="M7.1770 13.4430
L7.1490 13.4460
" />
<path d="M7.2050 13.2450
L7.1770 13.2500
" />
<path d="M7.2050 13.4380
L7.1770 13.4430
" />
<path d="M7.2320 13.2380
L7.2050 13.2450
" />
<path d="M7.2320 13.4310
L7.2050 13.4380
" />
<path d="M7.2580 13.2290
L7.2320 13.2380
" />
<path d="M7.2580 13.4220
L7.2320 13.4310
" />
<path d="M7.2830 13.2180
L7.2580 13.2290
" />
<path d="M7.2830 13.4110
L7.2580 13.4220
" />
<path d="M7.3060 13.2050
L7.2830 13.2180
" />
<path d="M7.3060 13.3980
L7.2830 13.4110
" />
<path d="M7.3270 13.1910
L7.3060 13.2050
" />
<path d="M7.3270 13.3830
L7.3060 13.3980
" />
<path d="M7.3470 13.1750
L7.3270 13.1910
" />
<path d="M7.3470 13.3670
L7.3270 13.3830
" />
<path d="M7.3650 13.1570
L7.3470 13.1750
" />
<path d="M7.3650 13.3500
L7.3470 13.3670
" />
<path d="M7.3800 13.1390
L7.3650 13.1570
" />
<path d="M7.3800 13.3320
L7.3650 13.3500
" />
<path d="M7.3930 13.1190
L7.3800 13.1390
" />
<path d="M7.3930 13.3120
L7.3800 13.3320
" />
<path d="M7.4040 13.0990
L7.3930 13.1190
" />
<path d="M7.4040 13.2920
L7.3930 13.3120
" />
<path d="M7.4120 13.0780
L7.4040 13.0990
" />
<path d="M7.4120 13.2710
L7.4040 13.2920
" />
<path d="M7.4170 13.0560
L7.4120 13.0780
" />
<path d="M7.4170 13.2490
L7.4120 13.2710
" />
<path d="M7.4200 13.0350
L7.4170 13.0560
" />
<path d="M7.4200 13.0350
L7.4200 13.2270
" />
<path d="M7.4200 13.2270
L7.4170 13.2490
" />
<path d="M7.4490 12.5260
L5.3410 12.5260
" />
<path d="M7.4490 12.5260
L7.4200 13.0350
" />
<path d="M7.4490 12.5260
L7.4540 12.4620
" />
<path d="M7.4490 12.7190
L7.4200 13.2270
" />
<path d="M7.4490 12.7190
L7.4490 12.5260
" />
<path d="M7.4540 12.4620
L7.4490 12.7190
" />
<path d="M7.4540 12.4620
L7.4620 12.3750
" />
<path d="M7.4620 12.3750
L5.3280 12.3750
" />
<path d="M7.4800 12.1650
L7.4620 12.3750
" />
<path d="M7.4870 12.0240
L7.4800 12.1650
" />
<path d="M7.4930 11.8330
L5.2970 11.8330
" />
<path d="M7.4930 11.8330
L7.4870 12.0240
" />
<path d="M7.6440 14.5820
L7.5990 14.5850
" />
<path d="M7.6450 0.9650
L7.6880 0.8050
" />
<path d="M7.6450 1.6050
L7.6450 0.9650
" />
<path d="M7.6660 7.8750
L7.4930 11.8330
" />
<path d="M7.6780 7.8550
L7.6660 7.8750
" />
<path d="M7.6800 7.8540
L5.1100 7.8540
" />
<path d="M7.6800 7.8540
L7.6780 7.8550
" />
<path d="M7.6800 7.8540
L7.6880 7.8150
" />
<path d="M7.6880 7.8150
L7.7030 7.7770
" />
<path d="M7.6890 14.5710
L7.6440 14.5820
" />
<path d="M7.7030 7.7770
L7.7230 7.7430
" />
<path d="M7.7230 7.7430
L7.7480 7.7110
" />
<path d="M7.7310 14.5540
L7.6890 14.5710
" />
<path d="M7.7480 7.7110
L7.7780 7.6850
" />
<path d="M7.7710 14.5310
L7.7310 14.5540
" />
<path d="M7.7780 7.6850
L7.8120 7.6640
" />
<path d="M7.8060 14.5020
L7.7710 14.5310
" />
<path d="M7.8120 7.6640
L7.8490 7.6480
" />
<path d="M7.8370 14.4680
L7.8060 14.5020
" />
<path d="M7.8490 7.6480
L7.8880 7.6380
" />
<path d="M7.8620 14.4290
L7.8370 14.4680
" />
<path d="M7.8810 14.3880
L7.8620 14.4290
" />
<path d="M7.8880 7.6380
L7.9280 7.6350
" />
<path d="M7.8930 14.3440
L7.8810 14.3880
" />
<path d="M7.8980 14.2980
L7.8930 14.3440
" />
<path d="M7.8980 14.2980
L8.1780 7.8960
" />
<path d="M7.9120 13.9890
L4.8780 13.9890
" />
<path d="M7.9280 7.6350
L7.9680 7.6380
" />
<path d="M7.9680 7.6380
L8.0070 7.6480
" />
<path d="M8.0070 7.6480
L8.0450 7.6640
" />
<path d="M8.0450 7.6640
L8.0790 7.6850
" />
<path d="M8.0790 7.6850
L8.1090 7.7120
" />
<path d="M8.1090 7.7120
L8.1340 7.7430
" />
<path d="M8.1340 7.7430
L8.1540 7.7780
" />
<path d="M8.1540 7.7780
L8.1680 7.8160
" />
<path d="M8.1680 7.8160
L8.1760 7.8560
" />
<path d="M8.1760 7.8560
L8.1780 7.8960
" />
<path d="M8.2020 0.8050
L7.6880 0.8050
" />
<path d="M8.2020 0.8050
L8.2450 0.9650
" />
<path d="M8.2450 0.9650
L8.2450 1.6050
" />
<path d="M9.6450 0.9650
L9.6880 0.8050
" />
<path d="M9.6450 1.6050
L9.6450 0.9650
" />
<path d="M9.7120 7.8960
L9.7140 7.8560
" />
<path d="M9.7120 7.8960
L9.9920 14.2980
" />
<path d="M9.7140 7.8560
L9.7220 7.8160
" />
<path d="M9.7220 7.8160
L9.7360 7.7780
" />
<path d="M9.7360 7.7780
L9.7560 7.7430
" />
<path d="M9.7560 7.7430
L9.7810 7.7120
" />
<path d="M9.7810 7.7120
L9.8110 7.6850
" />
<path d="M9.8110 7.6850
L9.8450 7.6640
" />
<path d="M9.8450 7.6640
L9.8830 7.6480
" />
<path d="M9.8830 7.6480
L9.9220 7.6380
" />
<path d="M9.9220 7.6380
L9.9620 7.6350
" />
<path d="M9.9620 7.6350
L10.0020 7.6380
" />
<path d="M9.9970 14.3440
L9.9920 14.2980
" />
<path d="M10.0020 7.6380
L10.0410 7.6480
" />
<path d="M10.0090 14.3880
L9.9970 14.3440
" />
<path d="M10.0280 14.4290
L10.0090 14.3880
" />
<path d="M10.0410 7.6480
L10.0780 7.6640
" />
<path d="M10.0530 14.4680
L10.0280 14.4290
" />
<path d="M10.0780 7.6640
L10.1120 7.6850
" />
<path d="M10.0840 14.5020
L10.0530 14.4680
" />
<path d="M10.1120 7.6850
L10.1420 7.7110
" />
<path d="M10.1190 14.5310
L10.0840 14.5020
" />
<path d="M10.1420 7.7110
L10.1670 7.7430
" />
<path d="M10.1590 14.5540
L10.1190 14.5310
" />
<path d="M10.1670 7.7430
L10.1870 7.7770
" />
<path d="M10.1870 7.7770
L10.2020 7.8150
" />
<path d="M10.2010 14.5710
L10.1590 14.5540
" />
<path d="M10.2020 0.8050
L9.6880 0.8050
" />
<path d="M10.2020 0.8050
L10.2450 0.9650
" />
<path d="M10.2020 7.8150
L10.2100 7.8540
" />
<path d="M10.2120 7.8550
L10.2100 7.8540
" />
<path d="M10.2240 7.8750
L10.2120 7.8550
" />
<path d="M10.2240 7.8750
L12.7660 7.8750
" />
<path d="M10.2450 0.9650
L10.2450 1.6050
" />
<path d="M10.2460 14.5820
L10.2010 14.5710
" />
<path d="M10.2910 14.5850
L10.2460 14.5820
" />
<path d="M10.2910 14.5850
L12.6990 14.5850
" />
<path d="M10.3970 11.8330
L10.2240 7.8750
" />
<path d="M10.4030 12.0240
L10.3970 11.8330
" />
<path d="M10.4100 12.1650
L10.4030 12.0240
" />
<path d="M10.4100 12.1650
L12.5800 12.1650
" />
<path d="M10.4280 12.3750
L10.4100 12.1650
" />
<path d="M10.4280 12.3750
L10.4360 12.4620
" />
<path d="M10.4360 12.4620
L10.4410 12.5260
" />
<path d="M10.4410 12.5260
L10.4410 12.7190
" />
<path d="M10.4410 12.7190
L10.4360 12.4620
" />
<path d="M10.4700 13.0350
L10.4410 12.5260
" />
<path d="M10.4700 13.2270
L10.4410 12.7190
" />
<path d="M10.4700 13.2270
L10.4700 13.0350
" />
<path d="M10.4730 13.0560
L10.4700 13.0350
" />
<path d="M10.4730 13.2490
L10.4700 13.2270
" />
<path d="M10.4780 13.0780
L10.4730 13.0560
" />
<path d="M10.4780 13.2710
L10.4730 13.2490
" />
<path d="M10.4860 13.0990
L10.4780 13.0780
" />
<path d="M10.4860 13.2920
L10.4780 13.2710
" />
<path d="M10.4970 13.1190
L10.4860 13.0990
" />
<path d="M10.4970 13.3120
L10.4860 13.2920
" />
<path d="M10.5100 13.1390
L10.4970 13.1190
" />
<path d="M10.5100 13.3320
L10.4970 13.3120
" />
<path d="M10.5250 13.1570
L10.5100 13.1390
" />
<path d="M10.5250 13.3500
L10.5100 13.3320
" />
<path d="M10.5430 13.1750
L10.5250 13.1570
" />
<path d="M10.5430 13.3670
L10.5250 13.3500
" />
<path d="M10.5630 13.1910
L10.5430 13.1750
" />
<path d="M10.5630 13.3830
L10.5430 13.3670
" />
<path d="M10.5840 13.2050
L10.5630 13.1910
" />
<path d="M10.5840 13.3980
L10.5630 13.3830
" />
<path d="M10.6070 13.2180
L10.5840 13.2050
" />
<path d="M10.6070 13.4110
L10.5840 13.3980
" />
<path d="M10.6320 13.2290
L10.6070 13.2180
" />
<path d="M10.6320 13.4220
L10.6070 13.4110
" />
<path d="M10.6580 13.2380
L10.6320 13.2290
" />
<path d="M10.6580 13.4310
L10.6320 13.4220
" />
<path d="M10.6850 13.2450
L10.6580 13.2380
" />
<path d="M10.6850 13.4380
L10.6580 13.4310
" />
<path d="M10.7130 13.2500
L10.6850 13.2450
" />
<path d="M10.7130 13.4430
L10.6850 13.4380
" />
<path d="M10.7410 13.2530
L10.7130 13.2500
" />
<path d="M10.7410 13.4460
L10.7130 13.4430
" />
<path d="M10.7700 13.2540
L10.7410 13.2530
" />
<path d="M10.7700 13.4470
L10.7410 13.4460
" />
<path d="M10.7700 13.4470
L10.7700 13.2540
" />
<path d="M12.1450 0.9650
L12.1880 0.8050
" />
<path d="M12.1450 1.6050
L12.1450 0.9650
" />
<path d="M12.2200 13.2540
L10.7700 13.2540
" />
<path d="M12.2200 13.4470
L10.7700 13.4470
" />
<path d="M12.2200 13.4470
L12.2200 13.2540
" />
<path d="M12.2490 13.2530
L12.2200 13.2540
" />
<path d="M12.2490 13.4460
L12.2200 13.4470
" />
<path d="M12.2770 13.2500
L12.2490 13.2530
" />
<path d="M12.2770 13.4430
L12.2490 13.4460
" />
<path d="M12.3050 13.2450
L12.2770 13.2500
" />
<path d="M12.3050 13.4380
L12.2770 13.4430
" />
<path d="M12.3320 13.2380
L12.3050 13.2450
" />
<path d="M12.3320 13.4310
L12.3050 13.4380
" />
<path d="M12.3580 13.2290
L12.3320 13.2380
" />
<path d="M12.3580 13.4220
L12.3320 13.4310
" />
<path d="M12.3830 13.2180
L12.3580 13.2290
" />
<path d="M12.3830 13.4110
L12.3580 13.4220
" />
<path d="M12.4060 13.2050
L12.3830 13.2180
" />
<path d="M12.4060 13.3980
L12.3830 13.4110
" />
<path d="M12.4270 13.1910
L12.4060 13.2050
" />
<path d="M12.4270 13.3830
L12.4060 13.3980
" />
<path d="M12.4470 13.1750
L12.4270 13.1910
" />
<path d="M12.4470 13.3670
L12.4270 13.3830
" />
<path d="M12.4650 13.1570
L12.4470 13.1750
" />
<path d="M12.4650 13.3500
L12.4470 13.3670
" />
<path d="M12.4800 13.1390
L12.4650 13.1570
" />
<path d="M12.4800 13.3320
L12.4650 13.3500
" />
<path d="M12.4930 13.1190
L12.4800 13.1390
" />
<path d="M12.4930 13.3120
L12.4800 13.3320
" />
<path d="M12.5040 13.0990
L12.4930 13.1190
" />
<path d="M12.5040 13.2920
L12.4930 13.3120
" />
<path d="M12.5120 13.0780
L12.5040 13.0990
" />
<path d="M12.5120 13.2710
L12.5040 13.2920
" />
<path d="M12.5170 13.0560
L12.5120 13.0780
" />
<path d="M12.5170 13.2490
L12.5120 13.2710
" />
<path d="M12.5200 13.0350
L12.5170 13.0560
" />
<path d="M12.5200 13.0350
L12.5200 13.2270
" />
<path d="M12.5200 13.2270
L12.5170 13.2490
" />
<path d="M12.5490 12.5260
L10.4410 12.5260
" />
<path d="M12.5490 12.5260
L12.5200 13.0350
" />
<path d="M12.5490 12.5260
L12.5540 12.4620
" />
<path d="M12.5490 12.7190
L12.5200 13.2270
" />
<path d="M12.5490 12.7190
L12.5490 12.5260
" />
<path d="M12.5540 12.4620
L12.5490 12.7190
" />
<path d="M12.5540 12.4620
L12.5620 12.3750
" />
<path d="M12.5620 12.3750
L10.4280 12.3750
" />
<path d="M12.5800 12.1650
L12.5620 12.3750
" />
<path d="M12.5870 12.0240
L12.5800 12.1650
" />
<path d="M12.5930 11.8330
L10.3970 11.8330
" />
<path d="M12.5930 11.8330
L12.5870 12.0240
" />
<path d="M12.7020 0.8050
L12.1880 0.8050
" />
<path d="M12.7020 0.8050
L12.7450 0.9650
" />
<path d="M12.7440 14.5820
L12.6990 14.5850
" />
<path d="M12.7450 0.9650
L12.7450 1.6050
" />
<path d="M12.7660 7.8750
L12.5930 11.8330
" />
<path d="M12.7780 7.8550
L12.7660 7.8750
" />
<path d="M12.7800 7.8540
L10.2100 7.8540
" />
<path d="M12.7800 7.8540
L12.7780 7.8550
" />
<path d="M12.7800 7.8540
L12.7880 7.8150
" />
<path d="M12.7880 7.8150
L12.8030 7.7770
" />
<path d="M12.7890 14.5710
L12.7440 14.5820
" />
<path d="M12.8030 7.7770
L12.8230 7.7430
" />
<path d="M12.8230 7.7430
L12.8480 7.7110
" />
<path d="M12.8310 14.5540
L12.7890 14.5710
" />
<path d="M12.8480 7.7110
L12.8780 7.6850
" />
<path d="M12.8710 14.5310
L12.8310 14.5540
" />
<path d="M12.8780 7.6850
L12.9120 7.6640
" />
<path d="M12.9060 14.5020
L12.8710 14.5310
" />
<path d="M12.9120 7.6640
L12.9490 7.6480
" />
<path d="M12.9370 14.4680
L12.9060 14.5020
" />
<path d="M12.9490 7.6480
L12.9880 7.6380
" />
<path d="M12.9620 14.4290
L12.9370 14.4680
" />
<path d="M12.9810 14.3880
L12.9620 14.4290
" />
<path d="M12.9880 7.6380
L13.0280 7.6350
" />
<path d="M12.9930 14.3440
L12.9810 14.3880
" />
<path d="M12.9980 14.2980
L12.9930 14.3440
" />
<path d="M12.9980 14.2980
L13.2780 7.8960
" />
<path d="M13.0120 13.9890
L9.9780 13.9890
" />
<path d="M13.0280 7.6350
L13.0680 7.6380
" />
<path d="M13.0680 7.6380
L13.1070 7.6480
" />
<path d="M13.1070 7.6480
L13.1450 7.6640
" />
<path d="M13.1450 7.6640
L13.1790 7.6850
" />
<path d="M13.1790 7.6850
L13.2090 7.7120
" />
<path d="M13.2090 7.7120
L13.2340 7.7430
" />
<path d="M13.2340 7.7430
L13.2540 7.7780
" />
<path d="M13.2540 7.7780
L13.2680 7.8160
" />
<path d="M13.2680 7.8160
L13.2760 7.8560
" />
<path d="M13.2760 7.8560
L13.2780 7.8960
" />
<path d="M14.8950 1.6050
L14.8950 14.9850
" />
<path d="M14.8950 1.6050
L14.9620 1.6050
" />
<path d="M14.8950 14.9850
L2.9950 14.9850
" />
<path d="M14.8950 15.0210
L14.8950 14.9850
" />
<path d="M14.8950 15.0560
L14.8950 15.0210
" />
<path d="M14.8950 15.0910
L14.8950 15.0560
" />
<path d="M14.8950 15.1240
L14.8950 15.0910
" />
<path d="M14.8950 15.1550
L14.8950 15.1240
" />
<path d="M14.8950 15.1850
L14.8950 15.1550
" />
<path d="M14.8950 15.2110
L14.8950 15.1850
" />
<path d="M14.8950 15.2350
L14.8950 15.2110
" />
<path d="M14.8950 15.2560
L14.8950 15.2350
" />
<path d="M14.8950 15.2730
L14.8950 15.2560
" />
<path d="M14.8950 15.2870
L14.8950 15.2730
" />
<path d="M14.8950 15.2970
L14.8950 15.2870
" />
<path d="M14.8950 15.3030
L14.8950 15.2970
" />
<path d="M14.8950 15.3050
L14.8950 15.3030
" />
<path d="M14.8950 15.6050
L14.8950 15.3050
" />
<path d="M14.9620 1.6050
L15.0290 1.6050
" />
<path d="M14.9620 14.9850
L14.8950 14.9850
" />
<path d="M15.0290 1.6050
L15.0930 1.6050
" />
<path d="M15.0290 14.9850
L14.9620 14.9850
" />
<path d="M15.0930 1.6050
L15.1550 1.6050
" />
<path d="M15.0930 14.9850
L15.0290 14.9850
" />
<path d="M15.1550 1.6050
L15.2140 1.6050
" />
<path d="M15.1550 14.9850
L15.0930 14.9850
" />
<path d="M15.1990 15.0520
L15.1950 14.9850
" />
<path d="M15.2100 15.1190
L15.1990 15.0520
" />
<path d="M15.2140 1.6050
L15.2690 1.6050
" />
<path d="M15.2140 14.9850
L15.1550 14.9850
" />
<path d="M15.2290 15.1830
L15.2100 15.1190
" />
<path d="M15.2540 15.2450
L15.2290 15.1830
" />
<path d="M15.2690 1.6050
L15.3190 1.6050
" />
<path d="M15.2690 14.9850
L15.2140 14.9850
" />
<path d="M15.2870 15.3040
L15.2540 15.2450
" />
<path d="M15.3190 1.6050
L15.3640 1.6050
" />
<path d="M15.3190 14.9850
L15.2690 14.9850
" />
<path d="M15.3260 15.3590
L15.2870 15.3040
" />
<path d="M15.3640 1.6050
L15.4030 1.6050
" />
<path d="M15.3640 14.9850
L15.3190 14.9850
" />
<path d="M15.3710 15.4090
L15.3260 15.3590
" />
<path d="M15.4030 1.6050
L15.4360 1.6050
" />
<path d="M15.4030 14.9850
L15.3640 14.9850
" />
<path d="M15.4210 15.4540
L15.3710 15.4090
" />
<path d="M15.4360 1.6050
L15.4610 1.6050
" />
<path d="M15.4360 14.9850
L15.4030 14.9850
" />
<path d="M15.4610 1.6050
L15.4800 1.6050
" />
<path d="M15.4610 14.9850
L15.4360 14.9850
" />
<path d="M15.4760 15.4930
L15.4210 15.4540
" />
<path d="M15.4800 1.6050
L15.4910 1.6050
" />
<path d="M15.4800 14.9850
L15.4610 14.9850
" />
<path d="M15.4910 1.6050
L15.4950 1.6050
" />
<path d="M15.4910 14.9850
L15.4800 14.9850
" />
<path d="M15.4950 6.1050
L15.4970 6.1050
" />
<path d="M15.4950 14.9850
L15.4910 14.9850
" />
<path d="M15.4950 14.9850
L15.4950 1.6050
" />
<path d="M15.4970 2.1050
L15.4950 2.1050
" />
<path d="M15.4970 6.1050
L15.5010 6.1050
" />
<path d="M15.4990 15.0320
L15.4950 14.9850
" />
<path d="M15.5010 2.1050
L15.4970 2.1050
" />
<path d="M15.5010 6.1050
L15.5090 6.1050
" />
<path d="M15.5090 2.1050
L15.5010 2.1050
" />
<path d="M15.5090 6.1050
L15.5200 6.1050
" />
<path d="M15.5100 15.0780
L15.4990 15.0320
" />
<path d="M15.5200 2.1050
L15.5090 2.1050
" />
<path d="M15.5200 6.1050
L15.5330 6.1050
" />
<path d="M15.5280 15.1210
L15.5100 15.0780
" />
<path d="M15.5330 2.1050
L15.5200 2.1050
" />
<path d="M15.5330 6.1050
L15.5500 6.1050
" />
<path d="M15.5350 15.5260
L15.4760 15.4930
" />
<path d="M15.5500 2.1050
L15.5330 2.1050
" />
<path d="M15.5500 6.1050
L15.5680 6.1050
" />
<path d="M15.5520 15.1610
L15.5280 15.1210
" />
<path d="M15.5680 2.1050
L15.5500 2.1050
" />
<path d="M15.5680 6.1050
L15.5890 6.1050
" />
<path d="M15.5830 15.1970
L15.5520 15.1610
" />
<path d="M15.5890 2.1050
L15.5680 2.1050
" />
<path d="M15.5890 6.1050
L15.6120 6.1050
" />
<path d="M15.5970 15.5510
L15.5350 15.5260
" />
<path d="M15.6120 2.1050
L15.5890 2.1050
" />
<path d="M15.6120 6.1050
L15.6370 6.1050
" />
<path d="M15.6190 15.2280
L15.5830 15.1970
" />
<path d="M15.6370 2.1050
L15.6120 2.1050
" />
<path d="M15.6370 6.1050
L15.6620 6.1050
" />
<path d="M15.6590 15.2520
L15.6190 15.2280
" />
<path d="M15.6610 15.5700
L15.5970 15.5510
" />
<path d="M15.6620 2.1050
L15.6370 2.1050
" />
<path d="M15.6620 6.1050
L15.6890 6.1050
" />
<path d="M15.6890 2.1050
L15.6620 2.1050
" />
<path d="M15.6890 6.1050
L15.7170 6.1050
" />
<path d="M15.7020 15.2700
L15.6590 15.2520
" />
<path d="M15.7170 2.1050
L15.6890 2.1050
" />
<path d="M15.7170 6.1050
L15.7450 6.1050
" />
<path d="M15.7280 15.5810
L15.6610 15.5700
" />
<path d="M15.7450 2.1050
L15.7170 2.1050
" />
<path d="M15.7450 2.1050
L15.7450 6.1050
" />
<path d="M15.7450 6.1050
L16.8950 6.1050
" />
<path d="M15.7480 15.2810
L15.7020 15.2700
" />
<path d="M15.7950 15.2850
L15.7480 15.2810
" />
<path d="M15.7950 15.2850
L16.1950 15.2850
" />
<path d="M15.7950 15.5850
L15.7280 15.5810
" />
<path d="M15.7950 15.5850
L16.1950 15.5850
" />
<path d="M16.1950 15.2850
L16.1950 15.5850
" />
<path d="M16.3950 3.1050
L16.3950 5.1050
" />
<path d="M16.3950 5.1050
L16.8950 5.1050
" />
<path d="M16.8950 2.1050
L15.7450 2.1050
" />
<path d="M16.8950 2.1050
L16.8950 3.1050
" />
<path d="M16.8950 3.1050
L16.3950 3.1050
" />
<path d="M16.8950 5.1050
L16.8950 6.1050
" />
</g> 
</svg>
