<?xml version="1.0" standalone="no"?>
 <!DOCTYPE svg PUBLIC "-//W3C//DTD SVG 1.1//EN" 
 "http://www.w3.org/Graphics/SVG/1.1/DTD/svg11.dtd"> 
<svg
  xmlns:svg="http://www.w3.org/2000/svg"
  xmlns="http://www.w3.org/2000/svg"
  xmlns:xlink="http://www.w3.org/1999/xlink"
  version="1.1"
  width="26.2382mm" height="17.0688mm" viewBox="0.0000 0.0000 26.2382 17.0688">
<title>SVG Image created as outline.svg date 2025/06/16 09:17:47 </title>
  <desc>Image generated by PCBNEW </desc>
<g style="fill:#000000; fill-opacity:1.0000;stroke:#000000; stroke-opacity:1.0000;
stroke-linecap:round; stroke-linejoin:round;"
 transform="translate(0 0) scale(1 1)">
</g>
<g style="fill:none; 
stroke:#000000; stroke-width:0.0200; stroke-opacity:1; 
stroke-linecap:round; stroke-linejoin:round;">
<path d="M0.4250 12.9390
L0.4250 10.3990
" />
<path d="M1.4920 0.6450
L1.4920 12.9390
" />
<path d="M1.4920 0.6450
L24.7580 0.6450
" />
<path d="M1.4920 10.3990
L0.4250 10.3990
" />
<path d="M1.4920 12.9390
L0.4250 12.9390
" />
<path d="M1.4920 12.9390
L2.7620 12.9390
" />
<path d="M2.7620 7.7250
L6.5720 7.7250
" />
<path d="M2.7620 12.9390
L2.7620 7.7250
" />
<path d="M2.7620 12.9390
L6.5720 12.9390
" />
<path d="M3.8540 13.6780
L3.8540 12.9390
" />
<path d="M4.3910 14.2150
L3.8540 13.6780
" />
<path d="M4.4180 14.2360
L4.3910 14.2150
" />
<path d="M4.4490 14.2510
L4.4180 14.2360
" />
<path d="M4.4820 14.2580
L4.4490 14.2510
" />
<path d="M4.5170 14.2580
L4.4820 14.2580
" />
<path d="M4.5500 14.2510
L4.5170 14.2580
" />
<path d="M4.5810 14.2360
L4.5500 14.2510
" />
<path d="M4.6070 14.2140
L4.5810 14.2360
" />
<path d="M4.6290 14.1870
L4.6070 14.2140
" />
<path d="M4.6430 14.1560
L4.6290 14.1870
" />
<path d="M4.6510 14.1230
L4.6430 14.1560
" />
<path d="M4.6800 12.9390
L4.6800 13.2430
" />
<path d="M4.7430 13.2430
L4.6510 14.1230
" />
<path d="M4.8450 13.2430
L4.6800 13.2430
" />
<path d="M4.8450 13.2430
L4.8450 12.9390
" />
<path d="M4.8450 13.2700
L4.8450 13.2430
" />
<path d="M4.8450 13.2960
L4.8450 13.2700
" />
<path d="M4.8450 13.3220
L4.8450 13.2960
" />
<path d="M4.8450 13.3460
L4.8450 13.3220
" />
<path d="M4.8450 13.3700
L4.8450 13.3460
" />
<path d="M4.8450 13.3920
L4.8450 13.3700
" />
<path d="M4.8450 13.4120
L4.8450 13.3920
" />
<path d="M4.8450 13.4310
L4.8450 13.4120
" />
<path d="M4.8450 13.4480
L4.8450 13.4310
" />
<path d="M4.8450 13.4620
L4.8450 13.4480
" />
<path d="M4.8450 13.4740
L4.8450 13.4620
" />
<path d="M4.8450 13.4830
L4.8450 13.4740
" />
<path d="M4.8450 13.4900
L4.8450 13.4830
" />
<path d="M4.8450 13.4940
L4.8450 13.4900
" />
<path d="M4.8450 13.7760
L4.8450 13.4940
" />
<path d="M4.8450 13.7810
L4.8450 13.7760
" />
<path d="M4.8450 13.7890
L4.8450 13.7810
" />
<path d="M4.8450 13.7990
L4.8450 13.7890
" />
<path d="M4.8450 13.8130
L4.8450 13.7990
" />
<path d="M4.8450 13.8290
L4.8450 13.8130
" />
<path d="M4.8450 13.8480
L4.8450 13.8290
" />
<path d="M4.8450 13.8700
L4.8450 13.8480
" />
<path d="M4.8450 13.8940
L4.8450 13.8700
" />
<path d="M4.8450 13.9190
L4.8450 13.8940
" />
<path d="M4.8450 13.9460
L4.8450 13.9190
" />
<path d="M4.8450 13.9750
L4.8450 13.9460
" />
<path d="M4.8450 14.0050
L4.8450 13.9750
" />
<path d="M4.8450 14.0360
L4.8450 14.0050
" />
<path d="M4.8450 14.0670
L4.8450 14.0360
" />
<path d="M4.8450 15.9870
L4.8450 14.0670
" />
<path d="M6.1650 13.2430
L4.8450 13.2430
" />
<path d="M6.1650 13.2430
L6.1650 12.9390
" />
<path d="M6.1650 13.2700
L6.1650 13.2430
" />
<path d="M6.1650 13.2960
L6.1650 13.2700
" />
<path d="M6.1650 13.3220
L6.1650 13.2960
" />
<path d="M6.1650 13.3460
L6.1650 13.3220
" />
<path d="M6.1650 13.3700
L6.1650 13.3460
" />
<path d="M6.1650 13.3920
L6.1650 13.3700
" />
<path d="M6.1650 13.4120
L6.1650 13.3920
" />
<path d="M6.1650 13.4310
L6.1650 13.4120
" />
<path d="M6.1650 13.4480
L6.1650 13.4310
" />
<path d="M6.1650 13.4620
L6.1650 13.4480
" />
<path d="M6.1650 13.4740
L6.1650 13.4620
" />
<path d="M6.1650 13.4830
L6.1650 13.4740
" />
<path d="M6.1650 13.4900
L6.1650 13.4830
" />
<path d="M6.1650 13.4940
L4.8450 13.4940
" />
<path d="M6.1650 13.4940
L6.1650 13.4900
" />
<path d="M6.1650 13.7760
L4.8450 13.7760
" />
<path d="M6.1650 13.7760
L6.1650 13.4940
" />
<path d="M6.1650 13.7810
L6.1650 13.7760
" />
<path d="M6.1650 13.7890
L6.1650 13.7810
" />
<path d="M6.1650 13.7990
L6.1650 13.7890
" />
<path d="M6.1650 13.8130
L6.1650 13.7990
" />
<path d="M6.1650 13.8290
L6.1650 13.8130
" />
<path d="M6.1650 13.8480
L6.1650 13.8290
" />
<path d="M6.1650 13.8700
L6.1650 13.8480
" />
<path d="M6.1650 13.8940
L6.1650 13.8700
" />
<path d="M6.1650 13.9190
L6.1650 13.8940
" />
<path d="M6.1650 13.9460
L6.1650 13.9190
" />
<path d="M6.1650 13.9750
L6.1650 13.9460
" />
<path d="M6.1650 14.0050
L6.1650 13.9750
" />
<path d="M6.1650 14.0360
L6.1650 14.0050
" />
<path d="M6.1650 14.0670
L4.8450 14.0670
" />
<path d="M6.1650 14.0670
L6.1650 14.0360
" />
<path d="M6.1650 15.9870
L4.8450 15.9870
" />
<path d="M6.1650 15.9870
L6.1650 14.0670
" />
<path d="M6.3310 12.9390
L6.3310 13.2430
" />
<path d="M6.3310 13.2430
L6.1650 13.2430
" />
<path d="M6.3590 14.1230
L6.2670 13.2430
" />
<path d="M6.3670 14.1560
L6.3590 14.1230
" />
<path d="M6.3810 14.1870
L6.3670 14.1560
" />
<path d="M6.4030 14.2140
L6.3810 14.1870
" />
<path d="M6.4290 14.2360
L6.4030 14.2140
" />
<path d="M6.4600 14.2510
L6.4290 14.2360
" />
<path d="M6.4930 14.2580
L6.4600 14.2510
" />
<path d="M6.5280 14.2580
L6.4930 14.2580
" />
<path d="M6.5610 14.2510
L6.5280 14.2580
" />
<path d="M6.5720 12.9390
L6.5720 7.7250
" />
<path d="M6.5720 12.9390
L7.8420 12.9390
" />
<path d="M6.5920 14.2360
L6.5610 14.2510
" />
<path d="M6.6190 14.2150
L6.5920 14.2360
" />
<path d="M7.1560 12.9390
L7.1560 13.6780
" />
<path d="M7.1560 13.6780
L6.6190 14.2150
" />
<path d="M7.8420 7.7250
L11.6520 7.7250
" />
<path d="M7.8420 12.9390
L7.8420 7.7250
" />
<path d="M7.8420 12.9390
L11.6520 12.9390
" />
<path d="M8.9340 13.6780
L8.9340 12.9390
" />
<path d="M9.4710 14.2150
L8.9340 13.6780
" />
<path d="M9.4980 14.2360
L9.4710 14.2150
" />
<path d="M9.5290 14.2510
L9.4980 14.2360
" />
<path d="M9.5620 14.2580
L9.5290 14.2510
" />
<path d="M9.5970 14.2580
L9.5620 14.2580
" />
<path d="M9.6300 14.2510
L9.5970 14.2580
" />
<path d="M9.6610 14.2360
L9.6300 14.2510
" />
<path d="M9.6870 14.2140
L9.6610 14.2360
" />
<path d="M9.7090 14.1870
L9.6870 14.2140
" />
<path d="M9.7230 14.1560
L9.7090 14.1870
" />
<path d="M9.7310 14.1230
L9.7230 14.1560
" />
<path d="M9.7590 12.9390
L9.7590 13.2430
" />
<path d="M9.8230 13.2430
L9.7310 14.1230
" />
<path d="M9.9250 13.2430
L9.7590 13.2430
" />
<path d="M9.9250 13.2430
L9.9250 12.9390
" />
<path d="M9.9250 13.2700
L9.9250 13.2430
" />
<path d="M9.9250 13.2960
L9.9250 13.2700
" />
<path d="M9.9250 13.3220
L9.9250 13.2960
" />
<path d="M9.9250 13.3460
L9.9250 13.3220
" />
<path d="M9.9250 13.3700
L9.9250 13.3460
" />
<path d="M9.9250 13.3920
L9.9250 13.3700
" />
<path d="M9.9250 13.4120
L9.9250 13.3920
" />
<path d="M9.9250 13.4310
L9.9250 13.4120
" />
<path d="M9.9250 13.4480
L9.9250 13.4310
" />
<path d="M9.9250 13.4620
L9.9250 13.4480
" />
<path d="M9.9250 13.4740
L9.9250 13.4620
" />
<path d="M9.9250 13.4830
L9.9250 13.4740
" />
<path d="M9.9250 13.4900
L9.9250 13.4830
" />
<path d="M9.9250 13.4940
L9.9250 13.4900
" />
<path d="M9.9250 13.7760
L9.9250 13.4940
" />
<path d="M9.9250 13.7810
L9.9250 13.7760
" />
<path d="M9.9250 13.7890
L9.9250 13.7810
" />
<path d="M9.9250 13.7990
L9.9250 13.7890
" />
<path d="M9.9250 13.8130
L9.9250 13.7990
" />
<path d="M9.9250 13.8290
L9.9250 13.8130
" />
<path d="M9.9250 13.8480
L9.9250 13.8290
" />
<path d="M9.9250 13.8700
L9.9250 13.8480
" />
<path d="M9.9250 13.8940
L9.9250 13.8700
" />
<path d="M9.9250 13.9190
L9.9250 13.8940
" />
<path d="M9.9250 13.9460
L9.9250 13.9190
" />
<path d="M9.9250 13.9750
L9.9250 13.9460
" />
<path d="M9.9250 14.0050
L9.9250 13.9750
" />
<path d="M9.9250 14.0360
L9.9250 14.0050
" />
<path d="M9.9250 14.0670
L9.9250 14.0360
" />
<path d="M9.9250 15.9870
L9.9250 14.0670
" />
<path d="M11.2450 13.2430
L9.9250 13.2430
" />
<path d="M11.2450 13.2430
L11.2450 12.9390
" />
<path d="M11.2450 13.2700
L11.2450 13.2430
" />
<path d="M11.2450 13.2960
L11.2450 13.2700
" />
<path d="M11.2450 13.3220
L11.2450 13.2960
" />
<path d="M11.2450 13.3460
L11.2450 13.3220
" />
<path d="M11.2450 13.3700
L11.2450 13.3460
" />
<path d="M11.2450 13.3920
L11.2450 13.3700
" />
<path d="M11.2450 13.4120
L11.2450 13.3920
" />
<path d="M11.2450 13.4310
L11.2450 13.4120
" />
<path d="M11.2450 13.4480
L11.2450 13.4310
" />
<path d="M11.2450 13.4620
L11.2450 13.4480
" />
<path d="M11.2450 13.4740
L11.2450 13.4620
" />
<path d="M11.2450 13.4830
L11.2450 13.4740
" />
<path d="M11.2450 13.4900
L11.2450 13.4830
" />
<path d="M11.2450 13.4940
L9.9250 13.4940
" />
<path d="M11.2450 13.4940
L11.2450 13.4900
" />
<path d="M11.2450 13.7760
L9.9250 13.7760
" />
<path d="M11.2450 13.7760
L11.2450 13.4940
" />
<path d="M11.2450 13.7810
L11.2450 13.7760
" />
<path d="M11.2450 13.7890
L11.2450 13.7810
" />
<path d="M11.2450 13.7990
L11.2450 13.7890
" />
<path d="M11.2450 13.8130
L11.2450 13.7990
" />
<path d="M11.2450 13.8290
L11.2450 13.8130
" />
<path d="M11.2450 13.8480
L11.2450 13.8290
" />
<path d="M11.2450 13.8700
L11.2450 13.8480
" />
<path d="M11.2450 13.8940
L11.2450 13.8700
" />
<path d="M11.2450 13.9190
L11.2450 13.8940
" />
<path d="M11.2450 13.9460
L11.2450 13.9190
" />
<path d="M11.2450 13.9750
L11.2450 13.9460
" />
<path d="M11.2450 14.0050
L11.2450 13.9750
" />
<path d="M11.2450 14.0360
L11.2450 14.0050
" />
<path d="M11.2450 14.0670
L9.9250 14.0670
" />
<path d="M11.2450 14.0670
L11.2450 14.0360
" />
<path d="M11.2450 15.9870
L9.9250 15.9870
" />
<path d="M11.2450 15.9870
L11.2450 14.0670
" />
<path d="M11.4110 12.9390
L11.4110 13.2430
" />
<path d="M11.4110 13.2430
L11.2450 13.2430
" />
<path d="M11.4390 14.1230
L11.3470 13.2430
" />
<path d="M11.4470 14.1560
L11.4390 14.1230
" />
<path d="M11.4610 14.1870
L11.4470 14.1560
" />
<path d="M11.4830 14.2140
L11.4610 14.1870
" />
<path d="M11.5090 14.2360
L11.4830 14.2140
" />
<path d="M11.5400 14.2510
L11.5090 14.2360
" />
<path d="M11.5730 14.2580
L11.5400 14.2510
" />
<path d="M11.6080 14.2580
L11.5730 14.2580
" />
<path d="M11.6410 14.2510
L11.6080 14.2580
" />
<path d="M11.6520 12.9390
L11.6520 7.7250
" />
<path d="M11.6520 12.9390
L12.9220 12.9390
" />
<path d="M11.6720 14.2360
L11.6410 14.2510
" />
<path d="M11.6990 14.2150
L11.6720 14.2360
" />
<path d="M12.2360 12.9390
L12.2360 13.6780
" />
<path d="M12.2360 13.6780
L11.6990 14.2150
" />
<path d="M12.9220 7.7250
L16.7320 7.7250
" />
<path d="M12.9220 12.9390
L12.9220 7.7250
" />
<path d="M12.9220 12.9390
L16.7320 12.9390
" />
<path d="M14.0140 13.6780
L14.0140 12.9390
" />
<path d="M14.5510 14.2150
L14.0140 13.6780
" />
<path d="M14.5780 14.2360
L14.5510 14.2150
" />
<path d="M14.6090 14.2510
L14.5780 14.2360
" />
<path d="M14.6420 14.2580
L14.6090 14.2510
" />
<path d="M14.6770 14.2580
L14.6420 14.2580
" />
<path d="M14.7100 14.2510
L14.6770 14.2580
" />
<path d="M14.7410 14.2360
L14.7100 14.2510
" />
<path d="M14.7670 14.2140
L14.7410 14.2360
" />
<path d="M14.7890 14.1870
L14.7670 14.2140
" />
<path d="M14.8030 14.1560
L14.7890 14.1870
" />
<path d="M14.8110 14.1230
L14.8030 14.1560
" />
<path d="M14.8390 12.9390
L14.8390 13.2430
" />
<path d="M14.9030 13.2430
L14.8110 14.1230
" />
<path d="M15.0050 13.2430
L14.8390 13.2430
" />
<path d="M15.0050 13.2430
L15.0050 12.9390
" />
<path d="M15.0050 13.2700
L15.0050 13.2430
" />
<path d="M15.0050 13.2960
L15.0050 13.2700
" />
<path d="M15.0050 13.3220
L15.0050 13.2960
" />
<path d="M15.0050 13.3460
L15.0050 13.3220
" />
<path d="M15.0050 13.3700
L15.0050 13.3460
" />
<path d="M15.0050 13.3920
L15.0050 13.3700
" />
<path d="M15.0050 13.4120
L15.0050 13.3920
" />
<path d="M15.0050 13.4310
L15.0050 13.4120
" />
<path d="M15.0050 13.4480
L15.0050 13.4310
" />
<path d="M15.0050 13.4620
L15.0050 13.4480
" />
<path d="M15.0050 13.4740
L15.0050 13.4620
" />
<path d="M15.0050 13.4830
L15.0050 13.4740
" />
<path d="M15.0050 13.4900
L15.0050 13.4830
" />
<path d="M15.0050 13.4940
L15.0050 13.4900
" />
<path d="M15.0050 13.7760
L15.0050 13.4940
" />
<path d="M15.0050 13.7810
L15.0050 13.7760
" />
<path d="M15.0050 13.7890
L15.0050 13.7810
" />
<path d="M15.0050 13.7990
L15.0050 13.7890
" />
<path d="M15.0050 13.8130
L15.0050 13.7990
" />
<path d="M15.0050 13.8290
L15.0050 13.8130
" />
<path d="M15.0050 13.8480
L15.0050 13.8290
" />
<path d="M15.0050 13.8700
L15.0050 13.8480
" />
<path d="M15.0050 13.8940
L15.0050 13.8700
" />
<path d="M15.0050 13.9190
L15.0050 13.8940
" />
<path d="M15.0050 13.9460
L15.0050 13.9190
" />
<path d="M15.0050 13.9750
L15.0050 13.9460
" />
<path d="M15.0050 14.0050
L15.0050 13.9750
" />
<path d="M15.0050 14.0360
L15.0050 14.0050
" />
<path d="M15.0050 14.0670
L15.0050 14.0360
" />
<path d="M15.0050 15.9870
L15.0050 14.0670
" />
<path d="M16.3250 13.2430
L15.0050 13.2430
" />
<path d="M16.3250 13.2430
L16.3250 12.9390
" />
<path d="M16.3250 13.2700
L16.3250 13.2430
" />
<path d="M16.3250 13.2960
L16.3250 13.2700
" />
<path d="M16.3250 13.3220
L16.3250 13.2960
" />
<path d="M16.3250 13.3460
L16.3250 13.3220
" />
<path d="M16.3250 13.3700
L16.3250 13.3460
" />
<path d="M16.3250 13.3920
L16.3250 13.3700
" />
<path d="M16.3250 13.4120
L16.3250 13.3920
" />
<path d="M16.3250 13.4310
L16.3250 13.4120
" />
<path d="M16.3250 13.4480
L16.3250 13.4310
" />
<path d="M16.3250 13.4620
L16.3250 13.4480
" />
<path d="M16.3250 13.4740
L16.3250 13.4620
" />
<path d="M16.3250 13.4830
L16.3250 13.4740
" />
<path d="M16.3250 13.4900
L16.3250 13.4830
" />
<path d="M16.3250 13.4940
L15.0050 13.4940
" />
<path d="M16.3250 13.4940
L16.3250 13.4900
" />
<path d="M16.3250 13.7760
L15.0050 13.7760
" />
<path d="M16.3250 13.7760
L16.3250 13.4940
" />
<path d="M16.3250 13.7810
L16.3250 13.7760
" />
<path d="M16.3250 13.7890
L16.3250 13.7810
" />
<path d="M16.3250 13.7990
L16.3250 13.7890
" />
<path d="M16.3250 13.8130
L16.3250 13.7990
" />
<path d="M16.3250 13.8290
L16.3250 13.8130
" />
<path d="M16.3250 13.8480
L16.3250 13.8290
" />
<path d="M16.3250 13.8700
L16.3250 13.8480
" />
<path d="M16.3250 13.8940
L16.3250 13.8700
" />
<path d="M16.3250 13.9190
L16.3250 13.8940
" />
<path d="M16.3250 13.9460
L16.3250 13.9190
" />
<path d="M16.3250 13.9750
L16.3250 13.9460
" />
<path d="M16.3250 14.0050
L16.3250 13.9750
" />
<path d="M16.3250 14.0360
L16.3250 14.0050
" />
<path d="M16.3250 14.0670
L15.0050 14.0670
" />
<path d="M16.3250 14.0670
L16.3250 14.0360
" />
<path d="M16.3250 15.9870
L15.0050 15.9870
" />
<path d="M16.3250 15.9870
L16.3250 14.0670
" />
<path d="M16.4910 12.9390
L16.4910 13.2430
" />
<path d="M16.4910 13.2430
L16.3250 13.2430
" />
<path d="M16.5190 14.1230
L16.4270 13.2430
" />
<path d="M16.5270 14.1560
L16.5190 14.1230
" />
<path d="M16.5410 14.1870
L16.5270 14.1560
" />
<path d="M16.5630 14.2140
L16.5410 14.1870
" />
<path d="M16.5890 14.2360
L16.5630 14.2140
" />
<path d="M16.6200 14.2510
L16.5890 14.2360
" />
<path d="M16.6530 14.2580
L16.6200 14.2510
" />
<path d="M16.6880 14.2580
L16.6530 14.2580
" />
<path d="M16.7210 14.2510
L16.6880 14.2580
" />
<path d="M16.7320 12.9390
L16.7320 7.7250
" />
<path d="M16.7320 12.9390
L18.0020 12.9390
" />
<path d="M16.7520 14.2360
L16.7210 14.2510
" />
<path d="M16.7790 14.2150
L16.7520 14.2360
" />
<path d="M17.3160 12.9390
L17.3160 13.6780
" />
<path d="M17.3160 13.6780
L16.7790 14.2150
" />
<path d="M18.0020 7.7250
L21.8120 7.7250
" />
<path d="M18.0020 12.9390
L18.0020 7.7250
" />
<path d="M18.0020 12.9390
L21.8120 12.9390
" />
<path d="M19.0940 13.6780
L19.0940 12.9390
" />
<path d="M19.6310 14.2150
L19.0940 13.6780
" />
<path d="M19.6580 14.2360
L19.6310 14.2150
" />
<path d="M19.6890 14.2510
L19.6580 14.2360
" />
<path d="M19.7220 14.2580
L19.6890 14.2510
" />
<path d="M19.7570 14.2580
L19.7220 14.2580
" />
<path d="M19.7900 14.2510
L19.7570 14.2580
" />
<path d="M19.8210 14.2360
L19.7900 14.2510
" />
<path d="M19.8470 14.2140
L19.8210 14.2360
" />
<path d="M19.8690 14.1870
L19.8470 14.2140
" />
<path d="M19.8830 14.1560
L19.8690 14.1870
" />
<path d="M19.8910 14.1230
L19.8830 14.1560
" />
<path d="M19.9190 12.9390
L19.9190 13.2430
" />
<path d="M19.9830 13.2430
L19.8910 14.1230
" />
<path d="M20.0850 13.2430
L19.9190 13.2430
" />
<path d="M20.0850 13.2430
L20.0850 12.9390
" />
<path d="M20.0850 13.2700
L20.0850 13.2430
" />
<path d="M20.0850 13.2960
L20.0850 13.2700
" />
<path d="M20.0850 13.3220
L20.0850 13.2960
" />
<path d="M20.0850 13.3460
L20.0850 13.3220
" />
<path d="M20.0850 13.3700
L20.0850 13.3460
" />
<path d="M20.0850 13.3920
L20.0850 13.3700
" />
<path d="M20.0850 13.4120
L20.0850 13.3920
" />
<path d="M20.0850 13.4310
L20.0850 13.4120
" />
<path d="M20.0850 13.4480
L20.0850 13.4310
" />
<path d="M20.0850 13.4620
L20.0850 13.4480
" />
<path d="M20.0850 13.4740
L20.0850 13.4620
" />
<path d="M20.0850 13.4830
L20.0850 13.4740
" />
<path d="M20.0850 13.4900
L20.0850 13.4830
" />
<path d="M20.0850 13.4940
L20.0850 13.4900
" />
<path d="M20.0850 13.7760
L20.0850 13.4940
" />
<path d="M20.0850 13.7810
L20.0850 13.7760
" />
<path d="M20.0850 13.7890
L20.0850 13.7810
" />
<path d="M20.0850 13.7990
L20.0850 13.7890
" />
<path d="M20.0850 13.8130
L20.0850 13.7990
" />
<path d="M20.0850 13.8290
L20.0850 13.8130
" />
<path d="M20.0850 13.8480
L20.0850 13.8290
" />
<path d="M20.0850 13.8700
L20.0850 13.8480
" />
<path d="M20.0850 13.8940
L20.0850 13.8700
" />
<path d="M20.0850 13.9190
L20.0850 13.8940
" />
<path d="M20.0850 13.9460
L20.0850 13.9190
" />
<path d="M20.0850 13.9750
L20.0850 13.9460
" />
<path d="M20.0850 14.0050
L20.0850 13.9750
" />
<path d="M20.0850 14.0360
L20.0850 14.0050
" />
<path d="M20.0850 14.0670
L20.0850 14.0360
" />
<path d="M20.0850 15.9870
L20.0850 14.0670
" />
<path d="M21.4050 13.2430
L20.0850 13.2430
" />
<path d="M21.4050 13.2430
L21.4050 12.9390
" />
<path d="M21.4050 13.2700
L21.4050 13.2430
" />
<path d="M21.4050 13.2960
L21.4050 13.2700
" />
<path d="M21.4050 13.3220
L21.4050 13.2960
" />
<path d="M21.4050 13.3460
L21.4050 13.3220
" />
<path d="M21.4050 13.3700
L21.4050 13.3460
" />
<path d="M21.4050 13.3920
L21.4050 13.3700
" />
<path d="M21.4050 13.4120
L21.4050 13.3920
" />
<path d="M21.4050 13.4310
L21.4050 13.4120
" />
<path d="M21.4050 13.4480
L21.4050 13.4310
" />
<path d="M21.4050 13.4620
L21.4050 13.4480
" />
<path d="M21.4050 13.4740
L21.4050 13.4620
" />
<path d="M21.4050 13.4830
L21.4050 13.4740
" />
<path d="M21.4050 13.4900
L21.4050 13.4830
" />
<path d="M21.4050 13.4940
L20.0850 13.4940
" />
<path d="M21.4050 13.4940
L21.4050 13.4900
" />
<path d="M21.4050 13.7760
L20.0850 13.7760
" />
<path d="M21.4050 13.7760
L21.4050 13.4940
" />
<path d="M21.4050 13.7810
L21.4050 13.7760
" />
<path d="M21.4050 13.7890
L21.4050 13.7810
" />
<path d="M21.4050 13.7990
L21.4050 13.7890
" />
<path d="M21.4050 13.8130
L21.4050 13.7990
" />
<path d="M21.4050 13.8290
L21.4050 13.8130
" />
<path d="M21.4050 13.8480
L21.4050 13.8290
" />
<path d="M21.4050 13.8700
L21.4050 13.8480
" />
<path d="M21.4050 13.8940
L21.4050 13.8700
" />
<path d="M21.4050 13.9190
L21.4050 13.8940
" />
<path d="M21.4050 13.9460
L21.4050 13.9190
" />
<path d="M21.4050 13.9750
L21.4050 13.9460
" />
<path d="M21.4050 14.0050
L21.4050 13.9750
" />
<path d="M21.4050 14.0360
L21.4050 14.0050
" />
<path d="M21.4050 14.0670
L20.0850 14.0670
" />
<path d="M21.4050 14.0670
L21.4050 14.0360
" />
<path d="M21.4050 15.9870
L20.0850 15.9870
" />
<path d="M21.4050 15.9870
L21.4050 14.0670
" />
<path d="M21.5700 12.9390
L21.5700 13.2430
" />
<path d="M21.5700 13.2430
L21.4050 13.2430
" />
<path d="M21.5990 14.1230
L21.5070 13.2430
" />
<path d="M21.6070 14.1560
L21.5990 14.1230
" />
<path d="M21.6210 14.1870
L21.6070 14.1560
" />
<path d="M21.6430 14.2140
L21.6210 14.1870
" />
<path d="M21.6690 14.2360
L21.6430 14.2140
" />
<path d="M21.7000 14.2510
L21.6690 14.2360
" />
<path d="M21.7330 14.2580
L21.7000 14.2510
" />
<path d="M21.7680 14.2580
L21.7330 14.2580
" />
<path d="M21.8010 14.2510
L21.7680 14.2580
" />
<path d="M21.8120 12.9390
L21.8120 7.7250
" />
<path d="M21.8120 12.9390
L23.0820 12.9390
" />
<path d="M21.8320 14.2360
L21.8010 14.2510
" />
<path d="M21.8590 14.2150
L21.8320 14.2360
" />
<path d="M22.3960 12.9390
L22.3960 13.6780
" />
<path d="M22.3960 13.6780
L21.8590 14.2150
" />
<path d="M22.7260 12.9390
L22.7260 13.0280
" />
<path d="M23.0820 12.9390
L23.0820 7.7250
" />
<path d="M23.5640 12.9390
L23.5640 13.0280
" />
<path d="M23.5640 12.9390
L23.5640 13.0280
" />
<path d="M23.5640 13.0280
L22.7260 13.0280
" />
<path d="M24.7580 0.6450
L24.7580 7.7250
" />
<path d="M24.7580 7.7250
L23.0820 7.7250
" />
<path d="M24.7580 7.7250
L24.7580 12.9390
" />
<path d="M24.7580 12.9390
L23.0820 12.9390
" />
<path d="M25.8250 10.3990
L24.7580 10.3990
" />
<path d="M25.8250 12.9390
L24.7580 12.9390
" />
<path d="M25.8250 12.9390
L25.8250 10.3990
" />
</g> 
</svg>
