<?xml version="1.0" standalone="no"?>
 <!DOCTYPE svg PUBLIC "-//W3C//DTD SVG 1.1//EN" 
 "http://www.w3.org/Graphics/SVG/1.1/DTD/svg11.dtd"> 
<svg
  xmlns:svg="http://www.w3.org/2000/svg"
  xmlns="http://www.w3.org/2000/svg"
  xmlns:xlink="http://www.w3.org/1999/xlink"
  version="1.1"
  width="9.6266mm" height="7.1374mm" viewBox="0.0000 0.0000 9.6266 7.1374">
<title>SVG Image created as outline.svg date 2025/06/16 09:18:03 </title>
  <desc>Image generated by PCBNEW </desc>
<g style="fill:#000000; fill-opacity:1.0000;stroke:#000000; stroke-opacity:1.0000;
stroke-linecap:round; stroke-linejoin:round;"
 transform="translate(0 0) scale(1 1)">
</g>
<g style="fill:none; 
stroke:#000000; stroke-width:0.0200; stroke-opacity:1; 
stroke-linecap:round; stroke-linejoin:round;">
<path d="M1.1650 3.9000
L1.1650 3.2500
" />
<path d="M1.5160 2.4750
L1.5160 1.6760
" />
<path d="M1.5160 2.4750
L1.5160 4.6750
" />
<path d="M1.5160 2.4750
L1.7580 2.4750
" />
<path d="M1.5160 3.2500
L1.1650 3.2500
" />
<path d="M1.5160 3.9000
L1.1650 3.9000
" />
<path d="M1.5160 5.4740
L1.5160 4.6750
" />
<path d="M1.5160 5.4740
L2.9160 6.8740
" />
<path d="M1.6660 3.5750
L1.6700 3.4130
" />
<path d="M1.6660 3.5750
L1.6700 3.4130
" />
<path d="M1.6660 3.5750
L1.6700 3.4130
" />
<path d="M1.6700 3.4130
L1.6820 3.2540
" />
<path d="M1.6700 3.4130
L1.6820 3.2540
" />
<path d="M1.6700 3.4130
L1.6820 3.2540
" />
<path d="M1.6700 3.7370
L1.6660 3.5750
" />
<path d="M1.6820 3.2540
L1.7020 3.0960
" />
<path d="M1.6820 3.2540
L1.7020 3.0960
" />
<path d="M1.6820 3.2540
L1.7020 3.0960
" />
<path d="M1.6820 3.8970
L1.6700 3.7370
" />
<path d="M1.7020 3.0960
L1.7300 2.9410
" />
<path d="M1.7020 3.0960
L1.7300 2.9410
" />
<path d="M1.7020 3.0960
L1.7300 2.9410
" />
<path d="M1.7020 4.0540
L1.6820 3.8970
" />
<path d="M1.7300 2.9410
L1.7660 2.7890
" />
<path d="M1.7300 2.9410
L1.7660 2.7890
" />
<path d="M1.7300 2.9410
L1.7660 2.7890
" />
<path d="M1.7300 4.2090
L1.7020 4.0540
" />
<path d="M1.7580 2.4750
L1.8230 2.3070
" />
<path d="M1.7580 4.6750
L1.5160 4.6750
" />
<path d="M1.7660 2.7890
L1.8070 2.6390
" />
<path d="M1.7660 2.7890
L1.8070 2.6390
" />
<path d="M1.7660 2.7890
L1.8070 2.6390
" />
<path d="M1.7660 4.3620
L1.7300 4.2090
" />
<path d="M1.8070 2.6390
L1.8580 2.4930
" />
<path d="M1.8070 2.6390
L1.8580 2.4930
" />
<path d="M1.8070 2.6390
L1.8580 2.4930
" />
<path d="M1.8070 4.5110
L1.7660 4.3620
" />
<path d="M1.8230 2.3070
L1.8990 2.1430
" />
<path d="M1.8230 4.8430
L1.7580 4.6750
" />
<path d="M1.8580 2.4930
L1.9130 2.3500
" />
<path d="M1.8580 2.4930
L1.9130 2.3500
" />
<path d="M1.8580 2.4930
L1.9130 2.3500
" />
<path d="M1.8580 4.6570
L1.8070 4.5110
" />
<path d="M1.8990 2.1430
L1.9830 1.9840
" />
<path d="M1.8990 5.0070
L1.8230 4.8430
" />
<path d="M1.9130 2.3500
L1.9760 2.2100
" />
<path d="M1.9130 2.3500
L1.9760 2.2100
" />
<path d="M1.9130 2.3500
L1.9760 2.2100
" />
<path d="M1.9130 4.8000
L1.8580 4.6570
" />
<path d="M1.9760 2.2100
L2.0450 2.0750
" />
<path d="M1.9760 2.2100
L2.0450 2.0750
" />
<path d="M1.9760 2.2100
L2.0450 2.0750
" />
<path d="M1.9770 4.9400
L1.9130 4.8000
" />
<path d="M1.9830 1.9840
L2.0720 1.8310
" />
<path d="M1.9830 5.1660
L1.8990 5.0070
" />
<path d="M2.0450 2.0750
L2.1210 1.9430
" />
<path d="M2.0450 2.0750
L2.1210 1.9430
" />
<path d="M2.0450 2.0750
L2.1210 1.9430
" />
<path d="M2.0450 5.0760
L1.9770 4.9400
" />
<path d="M2.0720 1.8310
L2.1730 1.6830
" />
<path d="M2.0720 5.3190
L1.9830 5.1660
" />
<path d="M2.1210 1.9430
L2.2030 1.8150
" />
<path d="M2.1210 1.9430
L2.2030 1.8150
" />
<path d="M2.1210 1.9430
L2.2030 1.8150
" />
<path d="M2.1210 5.2070
L2.0450 5.0760
" />
<path d="M2.1730 1.6830
L2.2800 1.5430
" />
<path d="M2.1730 5.4670
L2.0720 5.3190
" />
<path d="M2.2030 1.8150
L2.2910 1.6920
" />
<path d="M2.2030 1.8150
L2.2910 1.6920
" />
<path d="M2.2030 1.8150
L2.2910 1.6920
" />
<path d="M2.2030 5.3350
L2.1210 5.2070
" />
<path d="M2.2800 1.5430
L2.3950 1.4060
" />
<path d="M2.2800 5.6070
L2.1730 5.4670
" />
<path d="M2.2910 1.6920
L2.3840 1.5730
" />
<path d="M2.2910 1.6920
L2.3840 1.5730
" />
<path d="M2.2910 1.6920
L2.3840 1.5730
" />
<path d="M2.2910 5.4590
L2.2030 5.3350
" />
<path d="M2.3840 1.5730
L2.4830 1.4580
" />
<path d="M2.3840 1.5730
L2.4830 1.4580
" />
<path d="M2.3840 1.5730
L2.4830 1.4580
" />
<path d="M2.3840 5.5780
L2.2910 5.4590
" />
<path d="M2.3950 1.4060
L2.5160 1.2770
" />
<path d="M2.3950 5.7440
L2.2800 5.6070
" />
<path d="M2.4830 1.4580
L2.5880 1.3490
" />
<path d="M2.4830 1.4580
L2.5880 1.3490
" />
<path d="M2.4830 1.4580
L2.5880 1.3490
" />
<path d="M2.4830 5.6920
L2.3840 5.5780
" />
<path d="M2.5160 1.2770
L2.6450 1.1550
" />
<path d="M2.5160 5.8730
L2.3950 5.7440
" />
<path d="M2.5880 1.3490
L2.6970 1.2450
" />
<path d="M2.5880 1.3490
L2.6970 1.2450
" />
<path d="M2.5880 1.3490
L2.6970 1.2450
" />
<path d="M2.5880 5.8010
L2.4830 5.6920
" />
<path d="M2.6450 1.1550
L2.7830 1.0410
" />
<path d="M2.6450 5.9950
L2.5160 5.8730
" />
<path d="M2.6970 1.2450
L2.8110 1.1460
" />
<path d="M2.6970 1.2450
L2.8110 1.1460
" />
<path d="M2.6970 1.2450
L2.8110 1.1460
" />
<path d="M2.6970 5.9050
L2.5880 5.8010
" />
<path d="M2.7830 1.0410
L2.9230 0.9330
" />
<path d="M2.7830 6.1090
L2.6450 5.9950
" />
<path d="M2.8110 1.1460
L2.9310 1.0520
" />
<path d="M2.8110 1.1460
L2.9310 1.0520
" />
<path d="M2.8110 1.1460
L2.9310 1.0520
" />
<path d="M2.8110 6.0040
L2.6970 5.9050
" />
<path d="M2.9160 0.2760
L1.5160 1.6760
" />
<path d="M2.9160 0.2760
L3.7160 0.2760
" />
<path d="M2.9230 0.9330
L3.0710 0.8330
" />
<path d="M2.9230 6.2170
L2.7830 6.1090
" />
<path d="M2.9310 1.0520
L3.0550 0.9650
" />
<path d="M2.9310 1.0520
L3.0550 0.9650
" />
<path d="M2.9310 1.0520
L3.0550 0.9650
" />
<path d="M2.9310 6.0980
L2.8110 6.0040
" />
<path d="M3.0550 0.9650
L3.1820 0.8830
" />
<path d="M3.0550 0.9650
L3.1820 0.8830
" />
<path d="M3.0550 0.9650
L3.1820 0.8830
" />
<path d="M3.0550 6.1860
L2.9310 6.0980
" />
<path d="M3.0710 0.8330
L3.2240 0.7420
" />
<path d="M3.0710 6.3170
L2.9230 6.2170
" />
<path d="M3.1820 0.8830
L3.3130 0.8070
" />
<path d="M3.1820 0.8830
L3.3130 0.8070
" />
<path d="M3.1820 0.8830
L3.3130 0.8070
" />
<path d="M3.1820 6.2680
L3.0550 6.1860
" />
<path d="M3.2240 0.7420
L3.3830 0.6580
" />
<path d="M3.2240 6.4080
L3.0710 6.3170
" />
<path d="M3.3130 0.8070
L3.4500 0.7370
" />
<path d="M3.3130 0.8070
L3.4500 0.7370
" />
<path d="M3.3130 0.8070
L3.4500 0.7370
" />
<path d="M3.3130 6.3430
L3.1820 6.2680
" />
<path d="M3.3830 0.6580
L3.5470 0.5830
" />
<path d="M3.3830 6.4920
L3.2240 6.4080
" />
<path d="M3.4500 0.7370
L3.5890 0.6740
" />
<path d="M3.4500 0.7370
L3.5890 0.6740
" />
<path d="M3.4500 0.7370
L3.5890 0.6740
" />
<path d="M3.4500 6.4130
L3.3130 6.3430
" />
<path d="M3.5470 0.5830
L3.7160 0.5170
" />
<path d="M3.5470 6.5670
L3.3830 6.4920
" />
<path d="M3.5890 0.6740
L3.7320 0.6180
" />
<path d="M3.5890 0.6740
L3.7320 0.6180
" />
<path d="M3.5890 0.6740
L3.7320 0.6180
" />
<path d="M3.5890 6.4760
L3.4500 6.4130
" />
<path d="M3.7160 0.2760
L3.7160 0.5170
" />
<path d="M3.7160 6.6330
L3.5470 6.5670
" />
<path d="M3.7160 6.6330
L3.7160 6.8740
" />
<path d="M3.7160 6.8740
L2.9160 6.8740
" />
<path d="M3.7160 6.8740
L5.9150 6.8740
" />
<path d="M3.7320 0.6180
L3.8790 0.5680
" />
<path d="M3.7320 0.6180
L3.8790 0.5680
" />
<path d="M3.7320 0.6180
L3.8790 0.5680
" />
<path d="M3.7320 6.5320
L3.5890 6.4760
" />
<path d="M3.8790 0.5680
L4.0280 0.5260
" />
<path d="M3.8790 0.5680
L4.0280 0.5260
" />
<path d="M3.8790 0.5680
L4.0280 0.5260
" />
<path d="M3.8790 6.5820
L3.7320 6.5320
" />
<path d="M4.0280 0.5260
L4.1810 0.4910
" />
<path d="M4.0280 0.5260
L4.1810 0.4910
" />
<path d="M4.0280 0.5260
L4.1810 0.4910
" />
<path d="M4.0290 6.6240
L3.8790 6.5820
" />
<path d="M4.1810 0.4910
L4.3350 0.4630
" />
<path d="M4.1810 0.4910
L4.3350 0.4630
" />
<path d="M4.1810 0.4910
L4.3350 0.4630
" />
<path d="M4.1810 6.6590
L4.0290 6.6240
" />
<path d="M4.3350 0.4630
L4.4930 0.4430
" />
<path d="M4.3350 0.4630
L4.4930 0.4430
" />
<path d="M4.3350 0.4630
L4.4930 0.4430
" />
<path d="M4.3350 6.6870
L4.1810 6.6590
" />
<path d="M4.4930 0.4430
L4.6530 0.4310
" />
<path d="M4.4930 0.4430
L4.6530 0.4310
" />
<path d="M4.4930 0.4430
L4.6530 0.4310
" />
<path d="M4.4930 6.7070
L4.3350 6.6870
" />
<path d="M4.6530 0.4310
L4.8150 0.4270
" />
<path d="M4.6530 0.4310
L4.8150 0.4270
" />
<path d="M4.6530 0.4310
L4.8150 0.4270
" />
<path d="M4.6540 6.7190
L4.4930 6.7070
" />
</g>
<g style="fill:#000000; fill-opacity:1.0000; stroke:none;">
<circle cx="4.8150" cy="0.4270" r="0.0100" /> 
<circle cx="4.8150" cy="0.4270" r="0.0100" /> 
<circle cx="4.8150" cy="0.4270" r="0.0100" /> 
</g>
<g style="fill:none; 
stroke:#000000; stroke-width:0.0200; stroke-opacity:1; 
stroke-linecap:round; stroke-linejoin:round;">
<path d="M4.8150 0.4270
L4.9760 0.4310
" />
<path d="M4.8150 0.4270
L4.9760 0.4310
" />
<path d="M4.8150 0.4270
L4.9760 0.4310
" />
<path d="M4.8150 6.7230
L4.6540 6.7190
" />
</g>
<g style="fill:#000000; fill-opacity:1.0000; stroke:none;">
<circle cx="4.8150" cy="6.7230" r="0.0100" /> 
</g>
<g style="fill:none; 
stroke:#000000; stroke-width:0.0200; stroke-opacity:1; 
stroke-linecap:round; stroke-linejoin:round;">
<path d="M4.9760 0.4310
L5.1360 0.4430
" />
<path d="M4.9760 0.4310
L5.1360 0.4430
" />
<path d="M4.9760 0.4310
L5.1360 0.4430
" />
<path d="M4.9760 6.7190
L4.8150 6.7230
" />
<path d="M5.1360 0.4430
L5.2940 0.4630
" />
<path d="M5.1360 0.4430
L5.2940 0.4630
" />
<path d="M5.1360 0.4430
L5.2940 0.4630
" />
<path d="M5.1370 6.7070
L4.9760 6.7190
" />
<path d="M5.2940 0.4630
L5.4490 0.4910
" />
<path d="M5.2940 0.4630
L5.4490 0.4910
" />
<path d="M5.2940 0.4630
L5.4490 0.4910
" />
<path d="M5.2940 6.6870
L5.1370 6.7070
" />
<path d="M5.3150 0.7760
L5.3150 6.3740
" />
<path d="M5.3150 6.3740
L5.4410 6.3490
" />
<path d="M5.4410 0.8010
L5.3150 0.7760
" />
<path d="M5.4410 6.3490
L5.5640 6.3180
" />
<path d="M5.4490 0.4910
L5.6010 0.5260
" />
<path d="M5.4490 0.4910
L5.6010 0.5260
" />
<path d="M5.4490 0.4910
L5.6010 0.5260
" />
<path d="M5.4490 6.6590
L5.2940 6.6870
" />
<path d="M5.5640 0.8320
L5.4410 0.8010
" />
<path d="M5.5640 6.3180
L5.6860 6.2820
" />
<path d="M5.6010 0.5260
L5.7500 0.5680
" />
<path d="M5.6010 0.5260
L5.7500 0.5680
" />
<path d="M5.6010 0.5260
L5.7500 0.5680
" />
<path d="M5.6010 6.6240
L5.4490 6.6590
" />
<path d="M5.6860 0.8680
L5.5640 0.8320
" />
<path d="M5.6860 6.2820
L5.8050 6.2410
" />
<path d="M5.7500 0.5680
L5.8970 0.6180
" />
<path d="M5.7500 0.5680
L5.8970 0.6180
" />
<path d="M5.7500 0.5680
L5.8970 0.6180
" />
<path d="M5.7500 6.5820
L5.6010 6.6240
" />
<path d="M5.8050 0.9090
L5.6860 0.8680
" />
<path d="M5.8050 6.2410
L5.9210 6.1950
" />
<path d="M5.8970 0.6180
L6.0400 0.6740
" />
<path d="M5.8970 0.6180
L6.0400 0.6740
" />
<path d="M5.8970 0.6180
L6.0400 0.6740
" />
<path d="M5.8970 6.5320
L5.7500 6.5820
" />
<path d="M5.9150 0.2760
L3.7160 0.2760
" />
<path d="M5.9150 0.2760
L5.9150 0.5170
" />
<path d="M5.9150 6.6330
L5.9150 6.8740
" />
<path d="M5.9150 6.6330
L6.0830 6.5670
" />
<path d="M5.9150 6.8740
L7.3150 6.8740
" />
<path d="M5.9210 0.9550
L5.8050 0.9090
" />
<path d="M5.9210 6.1950
L6.0350 6.1440
" />
<path d="M6.0350 1.0060
L5.9210 0.9550
" />
<path d="M6.0350 6.1440
L6.1450 6.0890
" />
<path d="M6.0400 0.6740
L6.1790 0.7370
" />
<path d="M6.0400 0.6740
L6.1790 0.7370
" />
<path d="M6.0400 0.6740
L6.1790 0.7370
" />
<path d="M6.0400 6.4760
L5.8970 6.5320
" />
<path d="M6.0830 0.5830
L5.9150 0.5170
" />
<path d="M6.0830 6.5670
L6.2470 6.4920
" />
<path d="M6.1450 1.0610
L6.0350 1.0060
" />
<path d="M6.1450 6.0890
L6.2530 6.0290
" />
<path d="M6.1790 0.7370
L6.3150 0.8070
" />
<path d="M6.1790 0.7370
L6.3150 0.8070
" />
<path d="M6.1790 0.7370
L6.3150 0.8070
" />
<path d="M6.1790 6.4130
L6.0400 6.4760
" />
<path d="M6.2470 0.6580
L6.0830 0.5830
" />
<path d="M6.2470 6.4920
L6.4050 6.4080
" />
<path d="M6.2530 1.1210
L6.1450 1.0610
" />
<path d="M6.2530 6.0290
L6.3580 5.9640
" />
<path d="M6.3150 0.8070
L6.4470 0.8820
" />
<path d="M6.3150 0.8070
L6.4470 0.8820
" />
<path d="M6.3150 0.8070
L6.4470 0.8820
" />
<path d="M6.3150 6.3430
L6.1790 6.4130
" />
<path d="M6.3580 1.1860
L6.2530 1.1210
" />
<path d="M6.3580 5.9640
L6.4590 5.8950
" />
<path d="M6.4050 0.7420
L6.2470 0.6580
" />
<path d="M6.4050 6.4080
L6.5590 6.3170
" />
<path d="M6.4470 0.8820
L6.5750 0.9640
" />
<path d="M6.4470 0.8820
L6.5750 0.9640
" />
<path d="M6.4470 0.8820
L6.5750 0.9640
" />
<path d="M6.4480 6.2670
L6.3150 6.3430
" />
<path d="M6.4590 1.2550
L6.3580 1.1860
" />
<path d="M6.4590 5.8950
L6.5570 5.8220
" />
<path d="M6.5570 1.3280
L6.4590 1.2550
" />
<path d="M6.5570 5.8220
L6.6520 5.7450
" />
<path d="M6.5590 0.8330
L6.4050 0.7420
" />
<path d="M6.5590 6.3170
L6.7060 6.2170
" />
<path d="M6.5750 0.9640
L6.6980 1.0520
" />
<path d="M6.5750 0.9640
L6.6980 1.0520
" />
<path d="M6.5750 0.9640
L6.6980 1.0520
" />
<path d="M6.5750 6.1850
L6.4480 6.2670
" />
<path d="M6.6520 1.4050
L6.5570 1.3280
" />
<path d="M6.6520 5.7450
L6.7430 5.6650
" />
<path d="M6.6980 1.0520
L6.8180 1.1460
" />
<path d="M6.6980 1.0520
L6.8180 1.1460
" />
<path d="M6.6980 1.0520
L6.8180 1.1460
" />
<path d="M6.6980 6.0980
L6.5750 6.1850
" />
<path d="M6.7060 0.9330
L6.5590 0.8330
" />
<path d="M6.7060 6.2170
L6.8470 6.1090
" />
<path d="M6.7430 1.4850
L6.6520 1.4050
" />
<path d="M6.7430 5.6650
L6.8310 5.5790
" />
<path d="M6.8180 1.1460
L6.9320 1.2450
" />
<path d="M6.8180 1.1460
L6.9320 1.2450
" />
<path d="M6.8180 1.1460
L6.9320 1.2450
" />
<path d="M6.8180 6.0040
L6.6980 6.0980
" />
<path d="M6.8310 1.5710
L6.7430 1.4850
" />
<path d="M6.8310 5.5790
L6.9150 5.4920
" />
<path d="M6.8470 1.0410
L6.7060 0.9330
" />
<path d="M6.8470 6.1090
L6.9840 5.9950
" />
<path d="M6.9150 1.6580
L6.8310 1.5710
" />
<path d="M6.9150 5.4920
L6.9950 5.4000
" />
<path d="M6.9320 1.2450
L7.0410 1.3490
" />
<path d="M6.9320 1.2450
L7.0410 1.3490
" />
<path d="M6.9320 1.2450
L7.0410 1.3490
" />
<path d="M6.9320 5.9050
L6.8180 6.0040
" />
<path d="M6.9840 1.1550
L6.8470 1.0410
" />
<path d="M6.9840 5.9950
L7.1130 5.8730
" />
<path d="M6.9950 1.7500
L6.9150 1.6580
" />
<path d="M6.9950 5.4000
L7.0700 5.3050
" />
<path d="M7.0410 1.3490
L7.1460 1.4580
" />
<path d="M7.0410 1.3490
L7.1460 1.4580
" />
<path d="M7.0410 1.3490
L7.1460 1.4580
" />
<path d="M7.0420 5.8010
L6.9320 5.9050
" />
<path d="M7.0700 1.8450
L6.9950 1.7500
" />
<path d="M7.0700 5.3050
L7.1430 5.2070
" />
<path d="M7.1130 1.2770
L6.9840 1.1550
" />
<path d="M7.1130 5.8730
L7.2350 5.7440
" />
<path d="M7.1430 1.9430
L7.0700 1.8450
" />
<path d="M7.1430 5.2070
L7.2110 5.1060
" />
<path d="M7.1460 1.4580
L7.2450 1.5720
" />
<path d="M7.1460 1.4580
L7.2450 1.5720
" />
<path d="M7.1460 1.4580
L7.2450 1.5720
" />
<path d="M7.1460 5.6920
L7.0420 5.8010
" />
<path d="M7.2110 2.0440
L7.1430 1.9430
" />
<path d="M7.2110 5.1060
L7.2750 5.0020
" />
<path d="M7.2350 1.4060
L7.1130 1.2770
" />
<path d="M7.2350 5.7440
L7.3490 5.6070
" />
<path d="M7.2450 1.5720
L7.3380 1.6910
" />
<path d="M7.2450 1.5720
L7.3380 1.6910
" />
<path d="M7.2450 1.5720
L7.3380 1.6910
" />
<path d="M7.2450 5.5770
L7.1460 5.6920
" />
<path d="M7.2750 2.1480
L7.2110 2.0440
" />
<path d="M7.2750 5.0020
L7.3340 4.8950
" />
<path d="M7.3150 0.2760
L5.9150 0.2760
" />
<path d="M7.3150 6.8740
L7.3540 6.8740
" />
<path d="M7.3340 2.2550
L7.2750 2.1480
" />
<path d="M7.3340 4.8950
L7.3880 4.7860
" />
<path d="M7.3380 1.6910
L7.4260 1.8150
" />
<path d="M7.3380 1.6910
L7.4260 1.8150
" />
<path d="M7.3380 1.6910
L7.4260 1.8150
" />
<path d="M7.3380 5.4580
L7.2450 5.5770
" />
<path d="M7.3490 1.5430
L7.2350 1.4060
" />
<path d="M7.3490 5.6070
L7.4570 5.4670
" />
<path d="M7.3540 0.2760
L7.3150 0.2760
" />
<path d="M7.3540 6.8740
L7.3940 6.8710
" />
<path d="M7.3880 2.3640
L7.3340 2.2550
" />
<path d="M7.3880 4.7860
L7.4370 4.6740
" />
<path d="M7.3940 0.2790
L7.3540 0.2760
" />
<path d="M7.3940 6.8710
L7.4330 6.8660
" />
<path d="M7.4260 1.8150
L7.5080 1.9430
" />
<path d="M7.4260 1.8150
L7.5080 1.9430
" />
<path d="M7.4260 1.8150
L7.5080 1.9430
" />
<path d="M7.4260 5.3350
L7.3380 5.4580
" />
<path d="M7.4330 0.2840
L7.3940 0.2790
" />
<path d="M7.4330 6.8660
L7.4710 6.8590
" />
<path d="M7.4370 2.4760
L7.3880 2.3640
" />
<path d="M7.4370 4.6740
L7.4830 4.5590
" />
<path d="M7.4570 1.6830
L7.3490 1.5430
" />
<path d="M7.4570 5.4670
L7.5570 5.3190
" />
<path d="M7.4710 0.2910
L7.4330 0.2840
" />
<path d="M7.4710 6.8590
L7.5100 6.8500
" />
<path d="M7.4830 2.5910
L7.4370 2.4760
" />
<path d="M7.4830 4.5590
L7.5220 4.4430
" />
<path d="M7.5080 1.9430
L7.5840 2.0740
" />
<path d="M7.5080 1.9430
L7.5840 2.0740
" />
<path d="M7.5080 1.9430
L7.5840 2.0740
" />
<path d="M7.5080 5.2070
L7.4260 5.3350
" />
<path d="M7.5100 0.3000
L7.4710 0.2910
" />
<path d="M7.5100 6.8500
L7.5460 6.8400
" />
<path d="M7.5220 2.7070
L7.4830 2.5910
" />
<path d="M7.5220 4.4430
L7.5590 4.3240
" />
<path d="M7.5460 0.3100
L7.5100 0.3000
" />
<path d="M7.5460 6.8400
L7.5840 6.8280
" />
<path d="M7.5570 1.8310
L7.4570 1.6830
" />
<path d="M7.5570 5.3190
L7.6470 5.1660
" />
<path d="M7.5590 2.8260
L7.5220 2.7070
" />
<path d="M7.5590 4.3240
L7.5890 4.2030
" />
<path d="M7.5840 0.3220
L7.5460 0.3100
" />
<path d="M7.5840 2.0740
L7.6530 2.2100
" />
<path d="M7.5840 2.0740
L7.6530 2.2100
" />
<path d="M7.5840 2.0740
L7.6530 2.2100
" />
<path d="M7.5840 5.0750
L7.5080 5.2070
" />
<path d="M7.5840 6.8280
L7.6210 6.8140
" />
<path d="M7.5890 2.9470
L7.5590 2.8260
" />
<path d="M7.5890 4.2030
L7.6140 4.0810
" />
<path d="M7.6140 3.0690
L7.5890 2.9470
" />
<path d="M7.6140 4.0810
L7.6330 3.9560
" />
<path d="M7.6210 0.3360
L7.5840 0.3220
" />
<path d="M7.6210 6.8140
L7.6550 6.7980
" />
<path d="M7.6330 3.1940
L7.6140 3.0690
" />
<path d="M7.6330 3.9560
L7.6470 3.8300
" />
<path d="M7.6470 1.9840
L7.5570 1.8310
" />
<path d="M7.6470 3.3200
L7.6330 3.1940
" />
<path d="M7.6470 3.8300
L7.6550 3.7030
" />
<path d="M7.6470 5.1660
L7.7320 5.0070
" />
<path d="M7.6530 2.2100
L7.7170 2.3500
" />
<path d="M7.6530 2.2100
L7.7170 2.3500
" />
<path d="M7.6530 2.2100
L7.7170 2.3500
" />
<path d="M7.6540 4.9400
L7.5840 5.0750
" />
<path d="M7.6550 0.3520
L7.6210 0.3360
" />
<path d="M7.6550 3.4470
L7.6470 3.3200
" />
<path d="M7.6550 3.7030
L7.6590 3.5750
" />
<path d="M7.6550 6.7980
L7.6910 6.7800
" />
<path d="M7.6590 3.5750
L7.6550 3.4470
" />
</g>
<g style="fill:#000000; fill-opacity:1.0000; stroke:none;">
<circle cx="7.6590" cy="3.5750" r="0.0100" /> 
</g>
<g style="fill:none; 
stroke:#000000; stroke-width:0.0200; stroke-opacity:1; 
stroke-linecap:round; stroke-linejoin:round;">
<path d="M7.6910 0.3700
L7.6550 0.3520
" />
<path d="M7.6910 6.7800
L7.7250 6.7610
" />
<path d="M7.7170 2.3500
L7.7730 2.4930
" />
<path d="M7.7170 2.3500
L7.7730 2.4930
" />
<path d="M7.7170 2.3500
L7.7730 2.4930
" />
<path d="M7.7170 4.8000
L7.6540 4.9400
" />
<path d="M7.7250 0.3890
L7.6910 0.3700
" />
<path d="M7.7250 6.7610
L7.7580 6.7400
" />
<path d="M7.7320 2.1430
L7.6470 1.9840
" />
<path d="M7.7320 5.0070
L7.8070 4.8430
" />
<path d="M7.7580 0.4100
L7.7250 0.3890
" />
<path d="M7.7580 6.7400
L7.7900 6.7180
" />
<path d="M7.7730 2.4930
L7.8230 2.6390
" />
<path d="M7.7730 2.4930
L7.8230 2.6390
" />
<path d="M7.7730 2.4930
L7.8230 2.6390
" />
<path d="M7.7730 4.6570
L7.7170 4.8000
" />
<path d="M7.7900 0.4320
L7.7580 0.4100
" />
<path d="M7.7900 6.7180
L7.8220 6.6930
" />
<path d="M7.8070 2.3070
L7.7320 2.1430
" />
<path d="M7.8070 4.8430
L7.8730 4.6750
" />
<path d="M7.8220 0.4570
L7.7900 0.4320
" />
<path d="M7.8220 6.6930
L7.8510 6.6680
" />
<path d="M7.8230 2.6390
L7.8650 2.7880
" />
<path d="M7.8230 2.6390
L7.8650 2.7880
" />
<path d="M7.8230 2.6390
L7.8650 2.7880
" />
<path d="M7.8230 4.5110
L7.7730 4.6570
" />
<path d="M7.8510 0.4820
L7.8220 0.4570
" />
<path d="M7.8510 6.6680
L7.8800 6.6400
" />
<path d="M7.8650 2.7880
L7.9000 2.9410
" />
<path d="M7.8650 2.7880
L7.9000 2.9410
" />
<path d="M7.8650 2.7880
L7.9000 2.9410
" />
<path d="M7.8650 4.3610
L7.8230 4.5110
" />
<path d="M7.8730 2.4750
L7.8070 2.3070
" />
<path d="M7.8730 4.6750
L8.1150 4.6750
" />
<path d="M7.8800 0.5100
L7.8510 0.4820
" />
</g>
<g style="fill:#000000; fill-opacity:1.0000; stroke:none;">
<circle cx="7.8800" cy="0.5100" r="0.0100" /> 
<circle cx="7.8800" cy="6.6400" r="0.0100" /> 
</g>
<g style="fill:none; 
stroke:#000000; stroke-width:0.0200; stroke-opacity:1; 
stroke-linecap:round; stroke-linejoin:round;">
<path d="M7.8800 6.6400
L7.9080 6.6110
" />
<path d="M7.9000 2.9410
L7.9280 3.0960
" />
<path d="M7.9000 2.9410
L7.9280 3.0960
" />
<path d="M7.9000 2.9410
L7.9280 3.0960
" />
<path d="M7.9000 4.2090
L7.8650 4.3610
" />
<path d="M7.9080 0.5390
L7.8800 0.5100
" />
<path d="M7.9080 6.6110
L7.9330 6.5820
" />
<path d="M7.9280 3.0960
L7.9480 3.2530
" />
<path d="M7.9280 3.0960
L7.9480 3.2530
" />
<path d="M7.9280 3.0960
L7.9480 3.2530
" />
<path d="M7.9280 4.0540
L7.9000 4.2090
" />
<path d="M7.9330 0.5680
L7.9080 0.5390
" />
<path d="M7.9330 6.5820
L7.9580 6.5500
" />
<path d="M7.9480 3.2530
L7.9600 3.4130
" />
<path d="M7.9480 3.2530
L7.9600 3.4130
" />
<path d="M7.9480 3.2530
L7.9600 3.4130
" />
<path d="M7.9480 3.8960
L7.9280 4.0540
" />
<path d="M7.9580 0.6000
L7.9330 0.5680
" />
<path d="M7.9580 6.5500
L7.9800 6.5180
" />
<path d="M7.9600 3.4130
L7.9640 3.5750
" />
<path d="M7.9600 3.4130
L7.9640 3.5750
" />
<path d="M7.9600 3.4130
L7.9640 3.5750
" />
<path d="M7.9600 3.7370
L7.9480 3.8960
" />
<path d="M7.9650 3.5750
L7.9600 3.7370
" />
<path d="M7.9800 0.6320
L7.9580 0.6000
" />
<path d="M7.9800 6.5180
L8.0010 6.4850
" />
<path d="M8.0010 0.6650
L7.9800 0.6320
" />
<path d="M8.0010 6.4850
L8.0200 6.4510
" />
<path d="M8.0200 0.6990
L8.0010 0.6650
" />
<path d="M8.0200 6.4510
L8.0380 6.4160
" />
<path d="M8.0380 0.7340
L8.0200 0.6990
" />
<path d="M8.0380 6.4160
L8.0540 6.3810
" />
<path d="M8.0540 0.7690
L8.0380 0.7340
" />
<path d="M8.0540 6.3810
L8.0680 6.3440
" />
<path d="M8.0680 0.8060
L8.0540 0.7690
" />
<path d="M8.0680 6.3440
L8.0800 6.3070
" />
<path d="M8.0800 0.8430
L8.0680 0.8060
" />
<path d="M8.0800 6.3070
L8.0900 6.2700
" />
<path d="M8.0900 0.8800
L8.0800 0.8430
" />
<path d="M8.0900 6.2700
L8.0990 6.2310
" />
<path d="M8.0990 0.9190
L8.0900 0.8800
" />
<path d="M8.0990 6.2310
L8.1060 6.1930
" />
<path d="M8.1060 0.9570
L8.0990 0.9190
" />
<path d="M8.1060 6.1930
L8.1100 6.1540
" />
<path d="M8.1100 0.9960
L8.1060 0.9570
" />
<path d="M8.1100 6.1540
L8.1140 6.1140
" />
<path d="M8.1140 1.0360
L8.1100 0.9960
" />
<path d="M8.1140 6.1140
L8.1150 6.0750
" />
<path d="M8.1150 1.0750
L8.1140 1.0360
" />
<path d="M8.1150 2.4750
L7.8730 2.4750
" />
<path d="M8.1150 2.4750
L8.1150 1.0750
" />
<path d="M8.1150 3.2500
L8.4650 3.2500
" />
<path d="M8.1150 3.9000
L8.4650 3.9000
" />
<path d="M8.1150 4.6750
L8.1150 2.4750
" />
<path d="M8.1150 6.0750
L8.1150 4.6750
" />
<path d="M8.4650 3.2500
L8.4650 3.9000
" />
</g> 
</svg>
