<?xml version="1.0" standalone="no"?>
 <!DOCTYPE svg PUBLIC "-//W3C//DTD SVG 1.1//EN" 
 "http://www.w3.org/Graphics/SVG/1.1/DTD/svg11.dtd"> 
<svg
  xmlns:svg="http://www.w3.org/2000/svg"
  xmlns="http://www.w3.org/2000/svg"
  xmlns:xlink="http://www.w3.org/1999/xlink"
  version="1.1"
  width="7.0358mm" height="13.4366mm" viewBox="0.0000 0.0000 7.0358 13.4366">
<title>SVG Image created as outline.svg date 2025/04/04 10:06:07 </title>
  <desc>Image generated by PCBNEW </desc>
<g style="fill:#000000; fill-opacity:1.0000;stroke:#000000; stroke-opacity:1.0000;
stroke-linecap:round; stroke-linejoin:round;"
 transform="translate(0 0) scale(1 1)">
</g>
<g style="fill:none; 
stroke:#000000; stroke-width:0.0200; stroke-opacity:1; 
stroke-linecap:round; stroke-linejoin:round;">
<path d="M0.6060 0.8070
L1.8120 0.8070
" />
<path d="M0.6060 1.2140
L0.6060 0.8070
" />
<path d="M0.6060 2.0770
L1.8120 2.0770
" />
<path d="M0.6060 2.4840
L0.6060 2.0770
" />
<path d="M0.6060 3.3470
L1.8120 3.3470
" />
<path d="M0.6060 3.7540
L0.6060 3.3470
" />
<path d="M0.6060 9.2640
L0.6060 4.1850
" />
<path d="M0.6060 9.6950
L1.8120 9.6950
" />
<path d="M0.6060 10.1020
L0.6060 9.6950
" />
<path d="M0.6060 10.9660
L1.8120 10.9660
" />
<path d="M0.6060 11.3730
L0.6060 10.9660
" />
<path d="M0.6060 12.2360
L1.8120 12.2360
" />
<path d="M0.6060 12.6430
L0.6060 12.2360
" />
<path d="M0.6060 12.6430
L1.8120 12.6430
" />
<path d="M1.8120 0.3760
L1.8120 4.1850
" />
<path d="M1.8120 1.2140
L0.6060 1.2140
" />
<path d="M1.8120 2.4840
L0.6060 2.4840
" />
<path d="M1.8120 3.7540
L0.6060 3.7540
" />
<path d="M1.8120 9.2640
L1.8120 13.0740
" />
<path d="M1.8120 10.1020
L0.6060 10.1020
" />
<path d="M1.8120 11.3730
L0.6060 11.3730
" />
<path d="M1.8120 13.0740
L5.2400 13.0740
" />
<path d="M2.6760 0.8070
L2.6760 1.2140
" />
<path d="M2.6760 0.8070
L2.6880 0.8070
" />
<path d="M2.6760 1.2140
L2.6880 1.2140
" />
<path d="M2.6760 2.0770
L2.6760 2.4840
" />
<path d="M2.6760 2.4840
L2.6880 2.4840
" />
<path d="M2.6760 3.3470
L2.6760 3.7540
" />
<path d="M2.6760 3.7540
L2.6880 3.7540
" />
<path d="M2.6760 9.6950
L2.6760 10.1020
" />
<path d="M2.6760 10.1020
L2.6880 10.1020
" />
<path d="M2.6760 10.9660
L2.6760 11.3730
" />
<path d="M2.6760 11.3730
L2.6880 11.3730
" />
<path d="M2.6760 12.2360
L2.6760 12.6430
" />
<path d="M2.6760 12.6430
L2.6880 12.6430
" />
<path d="M2.6760 12.6430
L2.6880 12.6430
" />
<path d="M2.6880 0.8070
L2.6760 0.8070
" />
<path d="M2.6880 0.8070
L2.8190 0.9400
" />
<path d="M2.6880 0.8070
L3.0940 0.8070
" />
<path d="M2.6880 1.2140
L2.6880 0.8070
" />
<path d="M2.6880 1.2140
L3.0940 1.2140
" />
<path d="M2.6880 2.0770
L2.6760 2.0770
" />
<path d="M2.6880 2.0770
L2.8190 2.2090
" />
<path d="M2.6880 2.0770
L3.0940 2.0770
" />
<path d="M2.6880 2.4840
L2.6880 2.0770
" />
<path d="M2.6880 2.4840
L3.0940 2.4840
" />
<path d="M2.6880 3.3470
L2.6760 3.3470
" />
<path d="M2.6880 3.3470
L2.8190 3.4790
" />
<path d="M2.6880 3.3470
L3.0940 3.3470
" />
<path d="M2.6880 3.7540
L2.6880 3.3470
" />
<path d="M2.6880 3.7540
L3.0940 3.7540
" />
<path d="M2.6880 9.6950
L2.6760 9.6950
" />
<path d="M2.6880 9.6950
L2.8190 9.8270
" />
<path d="M2.6880 9.6950
L3.0940 9.6950
" />
<path d="M2.6880 10.1020
L2.6880 9.6950
" />
<path d="M2.6880 10.1020
L3.0940 10.1020
" />
<path d="M2.6880 10.9660
L2.6760 10.9660
" />
<path d="M2.6880 10.9660
L2.8190 11.0980
" />
<path d="M2.6880 10.9660
L3.0940 10.9660
" />
<path d="M2.6880 11.3730
L2.6880 10.9660
" />
<path d="M2.6880 11.3730
L3.0940 11.3730
" />
<path d="M2.6880 12.2360
L2.6760 12.2360
" />
<path d="M2.6880 12.2360
L2.8190 12.3680
" />
<path d="M2.6880 12.2360
L3.0940 12.2360
" />
<path d="M2.6880 12.6430
L2.6880 12.2360
" />
<path d="M2.6880 12.6430
L3.0940 12.6430
" />
<path d="M2.8190 0.9400
L2.9620 0.9400
" />
<path d="M2.8190 1.0820
L2.6880 1.2140
" />
<path d="M2.8190 1.0820
L2.8190 0.9400
" />
<path d="M2.8190 1.0820
L2.9620 1.0820
" />
<path d="M2.8190 2.2090
L2.9620 2.2090
" />
<path d="M2.8190 2.3530
L2.6880 2.4840
" />
<path d="M2.8190 2.3530
L2.8190 2.2090
" />
<path d="M2.8190 2.3530
L2.9620 2.3530
" />
<path d="M2.8190 3.4790
L2.9620 3.4790
" />
<path d="M2.8190 3.6220
L2.6880 3.7540
" />
<path d="M2.8190 3.6220
L2.8190 3.4790
" />
<path d="M2.8190 3.6220
L2.9620 3.6220
" />
<path d="M2.8190 9.8270
L2.9620 9.8270
" />
<path d="M2.8190 9.9710
L2.6880 10.1020
" />
<path d="M2.8190 9.9710
L2.8190 9.8270
" />
<path d="M2.8190 9.9710
L2.9620 9.9710
" />
<path d="M2.8190 11.0980
L2.9620 11.0980
" />
<path d="M2.8190 11.2410
L2.6880 11.3730
" />
<path d="M2.8190 11.2410
L2.8190 11.0980
" />
<path d="M2.8190 11.2410
L2.9620 11.2410
" />
<path d="M2.8190 12.3680
L2.9620 12.3680
" />
<path d="M2.8190 12.5110
L2.6880 12.6430
" />
<path d="M2.8190 12.5110
L2.8190 12.3680
" />
<path d="M2.8190 12.5110
L2.9620 12.5110
" />
<path d="M2.9620 0.9400
L3.0940 0.8070
" />
<path d="M2.9620 1.0820
L2.9620 0.9400
" />
<path d="M2.9620 2.2090
L3.0940 2.0770
" />
<path d="M2.9620 2.3530
L2.9620 2.2090
" />
<path d="M2.9620 3.4790
L3.0940 3.3470
" />
<path d="M2.9620 3.6220
L2.9620 3.4790
" />
<path d="M2.9620 9.8270
L3.0940 9.6950
" />
<path d="M2.9620 9.9710
L2.9620 9.8270
" />
<path d="M2.9620 11.0980
L3.0940 10.9660
" />
<path d="M2.9620 11.2410
L2.9620 11.0980
" />
<path d="M2.9620 12.3680
L3.0940 12.2360
" />
<path d="M2.9620 12.5110
L2.9620 12.3680
" />
<path d="M3.0940 1.2140
L2.9620 1.0820
" />
<path d="M3.0940 1.2140
L3.0940 0.8070
" />
<path d="M3.0940 2.4840
L2.9620 2.3530
" />
<path d="M3.0940 2.4840
L3.0940 2.0770
" />
<path d="M3.0940 3.7540
L2.9620 3.6220
" />
<path d="M3.0940 3.7540
L3.0940 3.3470
" />
<path d="M3.0940 10.1020
L2.9620 9.9710
" />
<path d="M3.0940 10.1020
L3.0940 9.6950
" />
<path d="M3.0940 11.3730
L2.9620 11.2410
" />
<path d="M3.0940 11.3730
L3.0940 10.9660
" />
<path d="M3.0940 12.6430
L2.9620 12.5110
" />
<path d="M3.0940 12.6430
L3.0940 12.2360
" />
<path d="M3.9450 0.8070
L3.9450 1.2140
" />
<path d="M3.9450 0.8070
L3.9570 0.8070
" />
<path d="M3.9450 1.2140
L3.9570 1.2140
" />
<path d="M3.9450 2.0770
L3.9450 2.4840
" />
<path d="M3.9450 2.4840
L3.9570 2.4840
" />
<path d="M3.9450 3.3470
L3.9450 3.7540
" />
<path d="M3.9450 3.7540
L3.9570 3.7540
" />
<path d="M3.9450 9.6950
L3.9450 10.1020
" />
<path d="M3.9450 10.1020
L3.9570 10.1020
" />
<path d="M3.9450 10.9660
L3.9450 11.3730
" />
<path d="M3.9450 11.3730
L3.9570 11.3730
" />
<path d="M3.9450 12.2360
L3.9450 12.6430
" />
<path d="M3.9450 12.6430
L3.9570 12.6430
" />
<path d="M3.9450 12.6430
L3.9570 12.6430
" />
<path d="M3.9570 0.8070
L3.9450 0.8070
" />
<path d="M3.9570 0.8070
L4.0880 0.9400
" />
<path d="M3.9570 0.8070
L4.3640 0.8070
" />
<path d="M3.9570 1.2140
L3.9570 0.8070
" />
<path d="M3.9570 1.2140
L4.3640 1.2140
" />
<path d="M3.9570 2.0770
L3.9450 2.0770
" />
<path d="M3.9570 2.0770
L4.0880 2.2090
" />
<path d="M3.9570 2.0770
L4.3640 2.0770
" />
<path d="M3.9570 2.4840
L3.9570 2.0770
" />
<path d="M3.9570 2.4840
L4.3640 2.4840
" />
<path d="M3.9570 3.3470
L3.9450 3.3470
" />
<path d="M3.9570 3.3470
L4.0880 3.4790
" />
<path d="M3.9570 3.3470
L4.3640 3.3470
" />
<path d="M3.9570 3.7540
L3.9570 3.3470
" />
<path d="M3.9570 3.7540
L4.3640 3.7540
" />
<path d="M3.9570 9.6950
L3.9450 9.6950
" />
<path d="M3.9570 9.6950
L4.0880 9.8270
" />
<path d="M3.9570 9.6950
L4.3640 9.6950
" />
<path d="M3.9570 10.1020
L3.9570 9.6950
" />
<path d="M3.9570 10.1020
L4.3640 10.1020
" />
<path d="M3.9570 10.9660
L3.9450 10.9660
" />
<path d="M3.9570 10.9660
L4.0880 11.0980
" />
<path d="M3.9570 10.9660
L4.3640 10.9660
" />
<path d="M3.9570 11.3730
L3.9570 10.9660
" />
<path d="M3.9570 11.3730
L4.3640 11.3730
" />
<path d="M3.9570 12.2360
L3.9450 12.2360
" />
<path d="M3.9570 12.2360
L4.0880 12.3680
" />
<path d="M3.9570 12.2360
L4.3640 12.2360
" />
<path d="M3.9570 12.6430
L3.9570 12.2360
" />
<path d="M3.9570 12.6430
L4.3640 12.6430
" />
<path d="M4.0880 0.9400
L4.2320 0.9400
" />
<path d="M4.0880 1.0820
L3.9570 1.2140
" />
<path d="M4.0880 1.0820
L4.0880 0.9400
" />
<path d="M4.0880 1.0820
L4.2320 1.0820
" />
<path d="M4.0880 2.2090
L4.2320 2.2090
" />
<path d="M4.0880 2.3530
L3.9570 2.4840
" />
<path d="M4.0880 2.3530
L4.0880 2.2090
" />
<path d="M4.0880 2.3530
L4.2320 2.3530
" />
<path d="M4.0880 3.4790
L4.2320 3.4790
" />
<path d="M4.0880 3.6220
L3.9570 3.7540
" />
<path d="M4.0880 3.6220
L4.0880 3.4790
" />
<path d="M4.0880 3.6220
L4.2320 3.6220
" />
<path d="M4.0880 9.8270
L4.2320 9.8270
" />
<path d="M4.0880 9.9710
L3.9570 10.1020
" />
<path d="M4.0880 9.9710
L4.0880 9.8270
" />
<path d="M4.0880 9.9710
L4.2320 9.9710
" />
<path d="M4.0880 11.0980
L4.2320 11.0980
" />
<path d="M4.0880 11.2410
L3.9570 11.3730
" />
<path d="M4.0880 11.2410
L4.0880 11.0980
" />
<path d="M4.0880 11.2410
L4.2320 11.2410
" />
<path d="M4.0880 12.3680
L4.2320 12.3680
" />
<path d="M4.0880 12.5110
L3.9570 12.6430
" />
<path d="M4.0880 12.5110
L4.0880 12.3680
" />
<path d="M4.0880 12.5110
L4.2320 12.5110
" />
<path d="M4.2320 0.9400
L4.3640 0.8070
" />
<path d="M4.2320 1.0820
L4.2320 0.9400
" />
<path d="M4.2320 2.2090
L4.3640 2.0770
" />
<path d="M4.2320 2.3530
L4.2320 2.2090
" />
<path d="M4.2320 3.4790
L4.3640 3.3470
" />
<path d="M4.2320 3.6220
L4.2320 3.4790
" />
<path d="M4.2320 9.8270
L4.3640 9.6950
" />
<path d="M4.2320 9.9710
L4.2320 9.8270
" />
<path d="M4.2320 11.0980
L4.3640 10.9660
" />
<path d="M4.2320 11.2410
L4.2320 11.0980
" />
<path d="M4.2320 12.3680
L4.3640 12.2360
" />
<path d="M4.2320 12.5110
L4.2320 12.3680
" />
<path d="M4.3640 1.2140
L4.2320 1.0820
" />
<path d="M4.3640 1.2140
L4.3640 0.8070
" />
<path d="M4.3640 2.4840
L4.2320 2.3530
" />
<path d="M4.3640 2.4840
L4.3640 2.0770
" />
<path d="M4.3640 3.7540
L4.2320 3.6220
" />
<path d="M4.3640 3.7540
L4.3640 3.3470
" />
<path d="M4.3640 10.1020
L4.2320 9.9710
" />
<path d="M4.3640 10.1020
L4.3640 9.6950
" />
<path d="M4.3640 11.3730
L4.2320 11.2410
" />
<path d="M4.3640 11.3730
L4.3640 10.9660
" />
<path d="M4.3640 12.6430
L4.2320 12.5110
" />
<path d="M4.3640 12.6430
L4.3640 12.2360
" />
<path d="M5.2400 0.3760
L1.8120 0.3760
" />
<path d="M5.2400 0.8070
L6.4450 0.8070
" />
<path d="M5.2400 2.0770
L6.4450 2.0770
" />
<path d="M5.2400 3.3470
L6.4450 3.3470
" />
<path d="M5.2400 4.1850
L5.2400 0.3760
" />
<path d="M5.2400 9.6950
L6.4450 9.6950
" />
<path d="M5.2400 10.9660
L6.4450 10.9660
" />
<path d="M5.2400 12.2360
L6.4450 12.2360
" />
<path d="M5.2400 12.6430
L6.4450 12.6430
" />
<path d="M5.2400 13.0740
L5.2400 9.2640
" />
<path d="M6.4450 1.2140
L5.2400 1.2140
" />
<path d="M6.4450 1.2140
L6.4450 0.8070
" />
<path d="M6.4450 2.4840
L5.2400 2.4840
" />
<path d="M6.4450 2.4840
L6.4450 2.0770
" />
<path d="M6.4450 3.7540
L5.2400 3.7540
" />
<path d="M6.4450 3.7540
L6.4450 3.3470
" />
<path d="M6.4450 4.1850
L0.6060 4.1850
" />
<path d="M6.4450 9.2640
L0.6060 9.2640
" />
<path d="M6.4450 9.2640
L6.4450 4.1850
" />
<path d="M6.4450 10.1020
L5.2400 10.1020
" />
<path d="M6.4450 10.1020
L6.4450 9.6950
" />
<path d="M6.4450 11.3730
L5.2400 11.3730
" />
<path d="M6.4450 11.3730
L6.4450 10.9660
" />
<path d="M6.4450 12.6430
L6.4450 12.2360
" />
</g> 
</svg>
