<?xml version="1.0" standalone="no"?>
 <!DOCTYPE svg PUBLIC "-//W3C//DTD SVG 1.1//EN" 
 "http://www.w3.org/Graphics/SVG/1.1/DTD/svg11.dtd"> 
<svg
  xmlns:svg="http://www.w3.org/2000/svg"
  xmlns="http://www.w3.org/2000/svg"
  xmlns:xlink="http://www.w3.org/1999/xlink"
  version="1.1"
  width="17.3482mm" height="6.8326mm" viewBox="0.0000 0.0000 17.3482 6.8326">
<title>SVG Image created as outline.svg date 2025/04/04 10:06:34 </title>
  <desc>Image generated by PCBNEW </desc>
<g style="fill:#000000; fill-opacity:1.0000;stroke:#000000; stroke-opacity:1.0000;
stroke-linecap:round; stroke-linejoin:round;"
 transform="translate(0 0) scale(1 1)">
</g>
<g style="fill:none; 
stroke:#000000; stroke-width:0.0200; stroke-opacity:1; 
stroke-linecap:round; stroke-linejoin:round;">
<path d="M0.5240 0.9060
L0.5240 0.9170
" />
<path d="M0.5240 0.9170
L0.5240 0.9260
" />
<path d="M0.5240 1.7060
L0.5240 1.7160
" />
<path d="M0.5240 1.7160
L0.5240 1.7260
" />
<path d="M0.5240 1.7260
L0.5240 0.9260
" />
<path d="M0.5240 2.2260
L0.5240 1.7260
" />
<path d="M0.5240 2.2260
L0.5240 2.7260
" />
<path d="M0.5240 2.2260
L1.0740 2.2260
" />
<path d="M0.5240 2.7260
L0.7740 2.7260
" />
<path d="M0.5240 4.1260
L0.5240 4.6250
" />
<path d="M0.5240 4.1260
L0.7740 4.1260
" />
<path d="M0.5240 4.6250
L1.0740 4.6250
" />
<path d="M0.5240 5.1250
L0.5240 4.6250
" />
<path d="M0.5240 5.1250
L0.5240 5.1350
" />
<path d="M0.5240 5.1350
L0.5240 5.1450
" />
<path d="M0.5240 5.1450
L0.5270 5.1550
" />
<path d="M0.5240 5.9250
L0.5240 5.1250
" />
<path d="M0.5240 5.9250
L0.5240 5.9360
" />
<path d="M0.5240 5.9360
L0.5240 5.9450
" />
<path d="M0.5240 5.9450
L0.5270 5.9560
" />
<path d="M0.5270 0.8860
L0.5270 0.8970
" />
<path d="M0.5270 0.8970
L0.5240 0.9060
" />
<path d="M0.5270 1.6860
L0.5270 1.6960
" />
<path d="M0.5270 1.6960
L0.5240 1.7060
" />
<path d="M0.5270 5.1550
L0.5270 5.1650
" />
<path d="M0.5270 5.1650
L0.5310 5.1750
" />
<path d="M0.5270 5.9560
L0.5270 5.9650
" />
<path d="M0.5270 5.9650
L0.5310 5.9740
" />
<path d="M0.5310 0.8780
L0.5270 0.8860
" />
<path d="M0.5310 1.6780
L0.5270 1.6860
" />
<path d="M0.5310 5.1750
L0.5330 5.1850
" />
<path d="M0.5310 5.9740
L0.5330 5.9850
" />
<path d="M0.5330 0.8670
L0.5310 0.8780
" />
<path d="M0.5330 1.6680
L0.5310 1.6780
" />
<path d="M0.5330 5.1850
L0.5360 5.1930
" />
<path d="M0.5330 5.9850
L0.5360 5.9940
" />
<path d="M0.5360 0.8580
L0.5330 0.8670
" />
<path d="M0.5360 1.6580
L0.5330 1.6680
" />
<path d="M0.5360 5.1930
L0.5400 5.2030
" />
<path d="M0.5360 5.9940
L0.5400 6.0020
" />
<path d="M0.5400 0.8490
L0.5360 0.8580
" />
<path d="M0.5400 1.6500
L0.5360 1.6580
" />
<path d="M0.5400 5.2030
L0.5430 5.2110
" />
<path d="M0.5400 6.0020
L0.5430 6.0110
" />
<path d="M0.5430 0.8410
L0.5400 0.8490
" />
<path d="M0.5430 1.6400
L0.5400 1.6500
" />
<path d="M0.5430 5.2110
L0.5470 5.2200
" />
<path d="M0.5430 6.0110
L0.5470 6.0210
" />
<path d="M0.5470 0.8320
L0.5430 0.8410
" />
<path d="M0.5470 1.6310
L0.5430 1.6400
" />
<path d="M0.5470 5.2200
L0.5530 5.2280
" />
<path d="M0.5470 6.0210
L0.5530 6.0290
" />
<path d="M0.5530 0.8240
L0.5470 0.8320
" />
<path d="M0.5530 1.6230
L0.5470 1.6310
" />
<path d="M0.5530 5.2280
L0.5570 5.2360
" />
<path d="M0.5530 6.0290
L0.5570 6.0370
" />
<path d="M0.5570 0.8160
L0.5530 0.8240
" />
<path d="M0.5570 1.6150
L0.5530 1.6230
" />
<path d="M0.5570 5.2360
L0.5630 5.2440
" />
<path d="M0.5570 6.0370
L0.5630 6.0450
" />
<path d="M0.5630 0.8080
L0.5570 0.8160
" />
<path d="M0.5630 1.6070
L0.5570 1.6150
" />
<path d="M0.5630 5.2440
L0.5690 5.2520
" />
<path d="M0.5630 6.0450
L0.5690 6.0530
" />
<path d="M0.5690 0.8000
L0.5630 0.8080
" />
<path d="M0.5690 1.5990
L0.5630 1.6070
" />
<path d="M0.5690 5.2520
L0.5750 5.2600
" />
<path d="M0.5690 6.0530
L0.5750 6.0610
" />
<path d="M0.5750 0.7920
L0.5690 0.8000
" />
<path d="M0.5750 1.5910
L0.5690 1.5990
" />
<path d="M0.5750 5.2600
L0.5820 5.2680
" />
<path d="M0.5750 6.0610
L0.5820 6.0670
" />
<path d="M0.5820 0.7850
L0.5750 0.7920
" />
</g>
<g style="fill:#000000; fill-opacity:1.0000; stroke:none;">
<circle cx="0.5820" cy="0.7850" r="0.0100" /> 
</g>
<g style="fill:none; 
stroke:#000000; stroke-width:0.0200; stroke-opacity:1; 
stroke-linecap:round; stroke-linejoin:round;">
<path d="M0.5820 1.5850
L0.5750 1.5910
" />
</g>
<g style="fill:#000000; fill-opacity:1.0000; stroke:none;">
<circle cx="0.5820" cy="1.5850" r="0.0100" /> 
<circle cx="0.5820" cy="5.2680" r="0.0100" /> 
</g>
<g style="fill:none; 
stroke:#000000; stroke-width:0.0200; stroke-opacity:1; 
stroke-linecap:round; stroke-linejoin:round;">
<path d="M0.5820 5.2680
L0.5890 5.2740
" />
</g>
<g style="fill:#000000; fill-opacity:1.0000; stroke:none;">
<circle cx="0.5820" cy="6.0670" r="0.0100" /> 
</g>
<g style="fill:none; 
stroke:#000000; stroke-width:0.0200; stroke-opacity:1; 
stroke-linecap:round; stroke-linejoin:round;">
<path d="M0.5820 6.0670
L0.5890 6.0740
" />
<path d="M0.5890 0.7770
L0.5820 0.7850
" />
<path d="M0.5890 1.5770
L0.5820 1.5850
" />
<path d="M0.5890 5.2740
L0.5980 5.2800
" />
<path d="M0.5890 6.0740
L0.5980 6.0810
" />
<path d="M0.5980 0.7720
L0.5890 0.7770
" />
<path d="M0.5980 1.5710
L0.5890 1.5770
" />
<path d="M0.5980 5.2800
L0.6050 5.2860
" />
<path d="M0.5980 6.0810
L0.6050 6.0860
" />
<path d="M0.6050 0.7650
L0.5980 0.7720
" />
<path d="M0.6050 1.5650
L0.5980 1.5710
" />
<path d="M0.6050 5.2860
L0.6140 5.2920
" />
<path d="M0.6050 6.0860
L0.6140 6.0930
" />
<path d="M0.6140 0.7600
L0.6050 0.7650
" />
<path d="M0.6140 1.5590
L0.6050 1.5650
" />
<path d="M0.6140 5.2920
L0.6210 5.2980
" />
<path d="M0.6140 6.0930
L0.6210 6.0980
" />
<path d="M0.6210 0.7540
L0.6140 0.7600
" />
<path d="M0.6210 1.5550
L0.6140 1.5590
" />
<path d="M0.6210 5.2980
L0.6300 5.3020
" />
<path d="M0.6210 6.0980
L0.6300 6.1020
" />
<path d="M0.6300 0.7490
L0.6210 0.7540
" />
<path d="M0.6300 1.5490
L0.6210 1.5550
" />
<path d="M0.6300 5.3020
L0.6390 5.3060
" />
<path d="M0.6300 6.1020
L0.6390 6.1060
" />
<path d="M0.6390 0.7450
L0.6300 0.7490
" />
<path d="M0.6390 1.5450
L0.6300 1.5490
" />
<path d="M0.6390 5.3060
L0.6470 5.3100
" />
<path d="M0.6390 6.1060
L0.6470 6.1100
" />
<path d="M0.6470 0.7410
L0.6390 0.7450
" />
<path d="M0.6470 1.5410
L0.6390 1.5450
" />
<path d="M0.6470 5.3100
L0.6560 5.3140
" />
<path d="M0.6470 6.1100
L0.6560 6.1150
" />
<path d="M0.6560 0.7370
L0.6470 0.7410
" />
<path d="M0.6560 1.5370
L0.6470 1.5410
" />
<path d="M0.6560 5.3140
L0.6650 5.3180
" />
<path d="M0.6560 6.1150
L0.6650 6.1180
" />
<path d="M0.6650 0.7350
L0.6560 0.7370
" />
<path d="M0.6650 1.5350
L0.6560 1.5370
" />
<path d="M0.6650 5.3180
L0.6750 5.3200
" />
<path d="M0.6650 6.1180
L0.6750 6.1190
" />
<path d="M0.6750 0.7320
L0.6650 0.7350
" />
<path d="M0.6750 1.5330
L0.6650 1.5350
" />
<path d="M0.6750 5.3200
L0.6840 5.3220
" />
<path d="M0.6750 6.1190
L0.6840 6.1230
" />
<path d="M0.6840 0.7290
L0.6750 0.7320
" />
<path d="M0.6840 1.5290
L0.6750 1.5330
" />
<path d="M0.6840 5.3220
L0.6940 5.3240
" />
<path d="M0.6840 6.1230
L0.6940 6.1230
" />
<path d="M0.6940 0.7280
L0.6840 0.7290
" />
<path d="M0.6940 1.5290
L0.6840 1.5290
" />
<path d="M0.6940 5.3240
L0.7050 5.3260
" />
<path d="M0.6940 6.1230
L0.7050 6.1260
" />
<path d="M0.7050 0.7270
L0.6940 0.7280
" />
<path d="M0.7050 1.5270
L0.6940 1.5290
" />
<path d="M0.7050 5.3260
L0.7150 5.3260
" />
<path d="M0.7050 6.1260
L0.7150 6.1260
" />
<path d="M0.7150 0.7270
L0.7050 0.7270
" />
<path d="M0.7150 1.5270
L0.7050 1.5270
" />
<path d="M0.7150 5.3260
L0.7230 5.3260
" />
<path d="M0.7150 6.1260
L0.7230 6.1270
" />
<path d="M0.7230 0.7250
L0.7150 0.7270
" />
<path d="M0.7230 0.7250
L1.6750 0.7250
" />
<path d="M0.7230 1.2770
L0.7230 1.5270
" />
<path d="M0.7230 1.2770
L2.3240 1.2770
" />
<path d="M0.7230 1.5270
L0.7150 1.5270
" />
<path d="M0.7230 5.5750
L0.7230 5.3260
" />
<path d="M0.7230 5.5750
L2.3240 5.5750
" />
<path d="M0.7230 6.1270
L1.6750 6.1270
" />
<path d="M0.7740 2.3250
L1.0740 2.3250
" />
<path d="M0.7740 2.7260
L0.7740 2.3250
" />
<path d="M0.7740 4.1260
L0.8750 4.1260
" />
<path d="M0.7740 4.5260
L0.7740 4.1260
" />
<path d="M0.8750 2.4270
L0.7740 2.3250
" />
<path d="M0.8750 2.4270
L1.0740 2.4270
" />
<path d="M0.8750 2.7260
L0.7740 2.7260
" />
<path d="M0.8750 2.7260
L0.8750 2.4270
" />
<path d="M0.8750 4.4250
L0.7740 4.5260
" />
<path d="M0.8750 4.4250
L0.8750 4.1260
" />
<path d="M1.0740 2.7260
L0.8750 2.7260
" />
<path d="M1.0740 4.1260
L0.8750 4.1260
" />
<path d="M1.0740 4.4250
L0.8750 4.4250
" />
<path d="M1.0740 4.5260
L0.7740 4.5260
" />
<path d="M1.0740 4.6250
L1.0740 2.2260
" />
<path d="M1.6750 0.7250
L1.6750 1.2770
" />
<path d="M1.6750 6.1270
L1.6750 5.5750
" />
<path d="M1.8000 2.0310
L1.8010 2.0210
" />
<path d="M1.8000 2.0410
L1.8000 2.0310
" />
<path d="M1.8000 2.0510
L1.8000 2.0410
" />
<path d="M1.8000 4.8000
L1.8000 2.0510
" />
<path d="M1.8000 4.8120
L1.8000 4.8000
" />
<path d="M1.8000 4.8220
L1.8000 4.8120
" />
<path d="M1.8010 2.0210
L1.8030 2.0100
" />
<path d="M1.8010 4.8320
L1.8000 4.8220
" />
<path d="M1.8030 2.0100
L1.8060 2.0020
" />
<path d="M1.8030 4.8410
L1.8010 4.8320
" />
<path d="M1.8060 2.0020
L1.8080 1.9920
" />
<path d="M1.8060 4.8510
L1.8030 4.8410
" />
<path d="M1.8080 1.9900
L15.5400 1.9900
" />
<path d="M1.8080 1.9920
L1.8110 1.9820
" />
<path d="M1.8080 4.8610
L1.8060 4.8510
" />
<path d="M1.8110 1.9820
L1.8140 1.9740
" />
<path d="M1.8110 4.8690
L1.8080 4.8610
" />
<path d="M1.8140 1.9740
L1.8190 1.9640
" />
<path d="M1.8140 4.8790
L1.8110 4.8690
" />
<path d="M1.8190 1.9620
L1.8290 1.9460
" />
<path d="M1.8190 1.9640
L1.8240 1.9560
" />
<path d="M1.8190 4.8870
L1.8140 4.8790
" />
<path d="M1.8240 1.9560
L1.8270 1.9480
" />
<path d="M1.8240 4.8970
L1.8190 4.8870
" />
<path d="M1.8270 1.9480
L1.8330 1.9400
" />
<path d="M1.8270 4.9050
L1.8240 4.8970
" />
<path d="M1.8290 4.9050
L1.8190 4.8890
" />
<path d="M1.8330 1.9400
L1.8380 1.9320
" />
<path d="M1.8330 4.9130
L1.8270 4.9050
" />
<path d="M1.8380 1.9320
L1.8450 1.9240
" />
<path d="M1.8380 4.9210
L1.8330 4.9130
" />
<path d="M1.8450 1.9240
L1.8510 1.9160
" />
<path d="M1.8450 4.9290
L1.8380 4.9210
" />
<path d="M1.8510 1.9160
L1.8570 1.9100
" />
<path d="M1.8510 4.9350
L1.8450 4.9290
" />
<path d="M1.8570 1.9100
L1.8640 1.9020
" />
<path d="M1.8570 4.9430
L1.8510 4.9350
" />
<path d="M1.8620 1.9060
L1.8830 1.8870
" />
<path d="M1.8640 1.9020
L1.8720 1.8960
" />
<path d="M1.8640 4.9490
L1.8570 4.9430
" />
<path d="M1.8720 1.8960
L1.8800 1.8900
" />
<path d="M1.8720 4.9550
L1.8640 4.9490
" />
<path d="M1.8800 1.8900
L1.8880 1.8850
" />
<path d="M1.8800 4.9610
L1.8720 4.9550
" />
<path d="M1.8830 4.9640
L1.8620 4.9470
" />
<path d="M1.8880 1.8850
L1.8960 1.8790
" />
<path d="M1.8880 4.9660
L1.8800 4.9610
" />
<path d="M1.8960 1.8790
L1.9040 1.8750
" />
<path d="M1.8960 4.9720
L1.8880 4.9660
" />
<path d="M1.9040 1.8750
L1.9120 1.8710
" />
<path d="M1.9040 4.9760
L1.8960 4.9720
" />
<path d="M1.9120 1.8710
L1.9150 1.8690
" />
<path d="M1.9120 1.8710
L1.9220 1.8670
" />
<path d="M1.9120 4.9820
L1.9040 4.9760
" />
<path d="M1.9150 1.8690
L1.9200 1.8670
" />
<path d="M1.9150 4.9820
L1.9120 4.9800
" />
<path d="M1.9200 1.8670
L1.9230 1.8650
" />
<path d="M1.9200 4.9840
L1.9150 4.9820
" />
<path d="M1.9220 1.8670
L1.9310 1.8630
" />
<path d="M1.9220 4.9860
L1.9120 4.9820
" />
<path d="M1.9230 1.8650
L1.9280 1.8650
" />
<path d="M1.9230 4.9860
L1.9200 4.9840
" />
<path d="M1.9280 1.8650
L1.9330 1.8630
" />
<path d="M1.9280 4.9880
L1.9230 4.9860
" />
<path d="M1.9310 1.8630
L1.9390 1.8590
" />
<path d="M1.9310 4.9880
L1.9220 4.9860
" />
<path d="M1.9330 1.8630
L1.9360 1.8610
" />
<path d="M1.9330 4.9900
L1.9280 4.9880
" />
<path d="M1.9360 1.8610
L1.9410 1.8590
" />
<path d="M1.9360 4.9900
L1.9330 4.9900
" />
<path d="M1.9390 1.8590
L1.9490 1.8570
" />
<path d="M1.9390 4.9920
L1.9310 4.9880
" />
<path d="M1.9410 1.8590
L1.9470 1.8590
" />
<path d="M1.9410 4.9920
L1.9360 4.9900
" />
<path d="M1.9470 4.9940
L1.9410 4.9920
" />
<path d="M1.9490 1.8570
L1.9580 1.8550
" />
<path d="M1.9490 4.9940
L1.9390 4.9920
" />
<path d="M1.9580 1.8550
L1.9680 1.8530
" />
<path d="M1.9580 4.9960
L1.9490 4.9940
" />
<path d="M1.9680 1.8530
L1.9790 1.8530
" />
<path d="M1.9680 4.9980
L1.9580 4.9960
" />
<path d="M1.9790 1.8530
L1.9890 1.8510
" />
<path d="M1.9790 5.0000
L1.9680 4.9980
" />
<path d="M1.9890 1.8510
L2.0000 1.8510
" />
<path d="M1.9890 5.0000
L1.9790 5.0000
" />
<path d="M2.0000 1.8510
L2.3240 1.8510
" />
<path d="M2.0000 5.0000
L1.9890 5.0000
" />
<path d="M2.3240 1.2770
L2.3240 1.5810
" />
<path d="M2.3240 1.8510
L2.3240 1.5810
" />
<path d="M2.3240 2.6150
L2.3240 2.6200
" />
<path d="M2.3240 2.6200
L2.3240 2.6250
" />
<path d="M2.3240 2.6250
L2.3240 4.2270
" />
<path d="M2.3240 4.2270
L2.3240 4.2320
" />
<path d="M2.3240 4.2320
L2.3240 4.2370
" />
<path d="M2.3240 4.2370
L2.3250 4.2420
" />
<path d="M2.3240 5.0000
L2.0000 5.0000
" />
<path d="M2.3240 5.2700
L2.3240 5.0000
" />
<path d="M2.3240 5.2700
L2.3240 5.5750
" />
<path d="M2.3250 2.6100
L2.3240 2.6150
" />
<path d="M2.3250 4.2420
L2.3270 4.2470
" />
<path d="M2.3270 2.6010
L2.3270 2.6050
" />
<path d="M2.3270 2.6050
L2.3250 2.6100
" />
<path d="M2.3270 4.2470
L2.3270 4.2510
" />
<path d="M2.3270 4.2510
L2.3290 4.2560
" />
<path d="M2.3290 2.5960
L2.3270 2.6010
" />
<path d="M2.3290 4.2560
L2.3300 4.2600
" />
<path d="M2.3300 2.5920
L2.3290 2.5960
" />
<path d="M2.3300 4.2600
L2.3320 4.2640
" />
<path d="M2.3320 2.5880
L2.3300 2.5920
" />
<path d="M2.3320 4.2640
L2.3330 4.2690
" />
<path d="M2.3330 2.5830
L2.3320 2.5880
" />
<path d="M2.3330 4.2690
L2.3370 4.2730
" />
<path d="M2.3370 2.5790
L2.3330 2.5830
" />
<path d="M2.3370 4.2730
L2.3380 4.2770
" />
<path d="M2.3380 2.5750
L2.3370 2.5790
" />
<path d="M2.3380 4.2770
L2.3410 4.2810
" />
<path d="M2.3410 2.5710
L2.3380 2.5750
" />
<path d="M2.3410 4.2810
L2.3430 4.2850
" />
<path d="M2.3430 2.5670
L2.3410 2.5710
" />
<path d="M2.3430 4.2850
L2.3460 4.2890
" />
<path d="M2.3460 2.5630
L2.3430 2.5670
" />
<path d="M2.3460 4.2890
L2.3490 4.2930
" />
<path d="M2.3490 2.5590
L2.3460 2.5630
" />
<path d="M2.3490 4.2930
L2.3540 4.2960
" />
<path d="M2.3540 2.5560
L2.3490 2.5590
" />
<path d="M2.3540 4.2960
L2.3560 4.3000
" />
<path d="M2.3560 2.5520
L2.3540 2.5560
" />
<path d="M2.3560 4.3000
L2.3610 4.3030
" />
<path d="M2.3610 2.5490
L2.3560 2.5520
" />
<path d="M2.3610 4.3030
L2.3640 4.3060
" />
<path d="M2.3640 2.5460
L2.3610 2.5490
" />
<path d="M2.3640 4.3060
L2.3690 4.3080
" />
<path d="M2.3690 2.5440
L2.3640 2.5460
" />
<path d="M2.3690 4.3080
L2.3720 4.3110
" />
<path d="M2.3720 2.5410
L2.3690 2.5440
" />
<path d="M2.3720 4.3110
L2.3770 4.3130
" />
<path d="M2.3770 2.5390
L2.3720 2.5410
" />
<path d="M2.3770 4.3130
L2.3800 4.3160
" />
<path d="M2.3800 2.5360
L2.3770 2.5390
" />
<path d="M2.3800 4.3160
L2.3860 4.3180
" />
<path d="M2.3860 2.5340
L2.3800 2.5360
" />
<path d="M2.3860 4.3180
L2.3890 4.3190
" />
<path d="M2.3890 2.5330
L2.3860 2.5340
" />
<path d="M2.3890 4.3190
L2.3940 4.3210
" />
<path d="M2.3940 2.5310
L2.3890 2.5330
" />
<path d="M2.3940 4.3210
L2.3990 4.3230
" />
<path d="M2.3990 2.5290
L2.3940 2.5310
" />
<path d="M2.3990 4.3230
L2.4040 4.3240
" />
<path d="M2.4040 2.5280
L2.3990 2.5290
" />
<path d="M2.4040 4.3240
L2.4090 4.3250
" />
<path d="M2.4090 2.5270
L2.4040 2.5280
" />
<path d="M2.4090 4.3250
L2.4140 4.3260
" />
<path d="M2.4140 2.5260
L2.4090 2.5270
" />
<path d="M2.4140 4.3260
L2.4180 4.3260
" />
<path d="M2.4180 2.5260
L2.4140 2.5260
" />
<path d="M2.4180 4.3260
L2.4250 4.3270
" />
<path d="M2.4250 2.5250
L2.4180 2.5260
" />
<path d="M2.4250 2.6250
L2.3240 2.6250
" />
<path d="M2.4250 2.6250
L2.4250 2.5250
" />
<path d="M2.4250 4.2270
L2.3240 4.2270
" />
<path d="M2.4250 4.2270
L2.4250 4.3270
" />
<path d="M2.4250 4.3270
L14.9240 4.3270
" />
<path d="M2.5740 0.7770
L2.5740 1.2770
" />
<path d="M2.5740 2.3410
L2.5740 2.3890
" />
<path d="M2.5740 2.3410
L2.7740 2.3410
" />
<path d="M2.5740 2.3890
L2.5740 2.5250
" />
<path d="M2.5740 4.3270
L2.5740 4.4640
" />
<path d="M2.5740 4.4640
L2.5740 4.5100
" />
<path d="M2.5740 4.5100
L2.7740 4.5100
" />
<path d="M2.5740 5.5750
L2.5740 6.0750
" />
<path d="M2.7740 0.7770
L2.5740 0.7770
" />
<path d="M2.7740 0.7770
L2.7740 1.2770
" />
<path d="M2.7740 2.3410
L2.7740 2.3890
" />
<path d="M2.7740 2.3890
L2.7740 2.5250
" />
<path d="M2.7740 4.3270
L2.7740 4.4640
" />
<path d="M2.7740 4.4640
L2.7740 4.5100
" />
<path d="M2.7740 5.5750
L2.7740 6.0750
" />
<path d="M2.7740 6.0750
L2.5740 6.0750
" />
<path d="M3.0740 0.7770
L3.0740 1.2770
" />
<path d="M3.0740 2.3410
L3.0740 2.3890
" />
<path d="M3.0740 2.3410
L3.2740 2.3410
" />
<path d="M3.0740 2.3890
L3.0740 2.5250
" />
<path d="M3.0740 4.3270
L3.0740 4.4640
" />
<path d="M3.0740 4.4640
L3.0740 4.5100
" />
<path d="M3.0740 4.5100
L3.2740 4.5100
" />
<path d="M3.0740 5.5750
L3.0740 6.0750
" />
<path d="M3.1750 1.6800
L14.1740 1.6800
" />
<path d="M3.1750 1.8510
L2.3240 1.8510
" />
<path d="M3.1750 1.8510
L3.1750 1.6800
" />
<path d="M3.1750 1.8510
L7.0740 1.8510
" />
<path d="M3.1750 5.0000
L2.3240 5.0000
" />
<path d="M3.1750 5.0000
L3.1750 5.1710
" />
<path d="M3.1750 5.0000
L7.0740 5.0000
" />
<path d="M3.1750 5.1710
L14.1740 5.1710
" />
<path d="M3.2740 0.7770
L3.0740 0.7770
" />
<path d="M3.2740 0.7770
L3.2740 1.2770
" />
<path d="M3.2740 2.3410
L3.2740 2.3890
" />
<path d="M3.2740 2.3890
L3.2740 2.5250
" />
<path d="M3.2740 4.3270
L3.2740 4.4640
" />
<path d="M3.2740 4.4640
L3.2740 4.5100
" />
<path d="M3.2740 5.5750
L3.2740 6.0750
" />
<path d="M3.2740 6.0750
L3.0740 6.0750
" />
<path d="M3.5740 0.7770
L3.5740 1.2770
" />
<path d="M3.5740 2.3410
L3.5740 2.3890
" />
<path d="M3.5740 2.3410
L3.7740 2.3410
" />
<path d="M3.5740 2.3890
L3.5740 2.5250
" />
<path d="M3.5740 4.3270
L3.5740 4.4640
" />
<path d="M3.5740 4.4640
L3.5740 4.5100
" />
<path d="M3.5740 4.5100
L3.7740 4.5100
" />
<path d="M3.5740 5.5750
L3.5740 6.0750
" />
<path d="M3.7740 0.7770
L3.5740 0.7770
" />
<path d="M3.7740 0.7770
L3.7740 1.2770
" />
<path d="M3.7740 2.3410
L3.7740 2.3890
" />
<path d="M3.7740 2.3890
L3.7740 2.5250
" />
<path d="M3.7740 4.3270
L3.7740 4.4640
" />
<path d="M3.7740 4.4640
L3.7740 4.5100
" />
<path d="M3.7740 5.5750
L3.7740 6.0750
" />
<path d="M3.7740 6.0750
L3.5740 6.0750
" />
<path d="M4.0740 0.7770
L4.0740 1.2770
" />
<path d="M4.0740 2.3410
L4.0740 2.3890
" />
<path d="M4.0740 2.3410
L4.2740 2.3410
" />
<path d="M4.0740 2.3890
L4.0740 2.5250
" />
<path d="M4.0740 4.3270
L4.0740 4.4640
" />
<path d="M4.0740 4.4640
L4.0740 4.5100
" />
<path d="M4.0740 4.5100
L4.2740 4.5100
" />
<path d="M4.0740 5.5750
L4.0740 6.0750
" />
<path d="M4.2740 0.7770
L4.0740 0.7770
" />
<path d="M4.2740 0.7770
L4.2740 1.2770
" />
<path d="M4.2740 2.3410
L4.2740 2.3890
" />
<path d="M4.2740 2.3890
L4.2740 2.5250
" />
<path d="M4.2740 4.3270
L4.2740 4.4640
" />
<path d="M4.2740 4.4640
L4.2740 4.5100
" />
<path d="M4.2740 5.5750
L4.2740 6.0750
" />
<path d="M4.2740 6.0750
L4.0740 6.0750
" />
<path d="M4.5750 0.7770
L4.5750 1.2770
" />
<path d="M4.5750 2.3410
L4.5750 2.3890
" />
<path d="M4.5750 2.3410
L4.7750 2.3410
" />
<path d="M4.5750 2.3890
L4.5750 2.5250
" />
<path d="M4.5750 4.3270
L4.5750 4.4640
" />
<path d="M4.5750 4.4640
L4.5750 4.5100
" />
<path d="M4.5750 4.5100
L4.7750 4.5100
" />
<path d="M4.5750 5.5750
L4.5750 6.0750
" />
<path d="M4.7750 0.7770
L4.5750 0.7770
" />
<path d="M4.7750 0.7770
L4.7750 1.2770
" />
<path d="M4.7750 2.3410
L4.7750 2.3890
" />
<path d="M4.7750 2.3890
L4.7750 2.5250
" />
<path d="M4.7750 4.3270
L4.7750 4.4640
" />
<path d="M4.7750 4.4640
L4.7750 4.5100
" />
<path d="M4.7750 5.5750
L4.7750 6.0750
" />
<path d="M4.7750 6.0750
L4.5750 6.0750
" />
<path d="M5.0740 0.7770
L5.0740 1.2770
" />
<path d="M5.0740 2.3410
L5.0740 2.3890
" />
<path d="M5.0740 2.3410
L5.2750 2.3410
" />
<path d="M5.0740 2.3890
L5.0740 2.5250
" />
<path d="M5.0740 4.3270
L5.0740 4.4640
" />
<path d="M5.0740 4.4640
L5.0740 4.5100
" />
<path d="M5.0740 4.5100
L5.2750 4.5100
" />
<path d="M5.0740 5.5750
L5.0740 6.0750
" />
<path d="M5.2750 0.7770
L5.0740 0.7770
" />
<path d="M5.2750 0.7770
L5.2750 1.2770
" />
<path d="M5.2750 2.3410
L5.2750 2.3890
" />
<path d="M5.2750 2.3890
L5.2750 2.5250
" />
<path d="M5.2750 4.3270
L5.2750 4.4640
" />
<path d="M5.2750 4.4640
L5.2750 4.5100
" />
<path d="M5.2750 5.5750
L5.2750 6.0750
" />
<path d="M5.2750 6.0750
L5.0740 6.0750
" />
<path d="M5.5740 0.7770
L5.5740 1.2770
" />
<path d="M5.5740 2.3410
L5.5740 2.3890
" />
<path d="M5.5740 2.3410
L5.7750 2.3410
" />
<path d="M5.5740 2.3890
L5.5740 2.5250
" />
<path d="M5.5740 4.3270
L5.5740 4.4640
" />
<path d="M5.5740 4.4640
L5.5740 4.5100
" />
<path d="M5.5740 4.5100
L5.7750 4.5100
" />
<path d="M5.5740 5.5750
L5.5740 6.0750
" />
<path d="M5.7750 0.7770
L5.5740 0.7770
" />
<path d="M5.7750 0.7770
L5.7750 1.2770
" />
<path d="M5.7750 2.3410
L5.7750 2.3890
" />
<path d="M5.7750 2.3890
L5.7750 2.5250
" />
<path d="M5.7750 4.3270
L5.7750 4.4640
" />
<path d="M5.7750 4.4640
L5.7750 4.5100
" />
<path d="M5.7750 5.5750
L5.7750 6.0750
" />
<path d="M5.7750 6.0750
L5.5740 6.0750
" />
<path d="M6.0740 0.7770
L6.0740 1.2770
" />
<path d="M6.0740 2.3410
L6.0740 2.3890
" />
<path d="M6.0740 2.3410
L6.2750 2.3410
" />
<path d="M6.0740 2.3890
L6.0740 2.5250
" />
<path d="M6.0740 4.3270
L6.0740 4.4640
" />
<path d="M6.0740 4.4640
L6.0740 4.5100
" />
<path d="M6.0740 4.5100
L6.2750 4.5100
" />
<path d="M6.0740 5.5750
L6.0740 6.0750
" />
<path d="M6.2750 0.7770
L6.0740 0.7770
" />
<path d="M6.2750 0.7770
L6.2750 1.2770
" />
<path d="M6.2750 2.3410
L6.2750 2.3890
" />
<path d="M6.2750 2.3890
L6.2750 2.5250
" />
<path d="M6.2750 4.3270
L6.2750 4.4640
" />
<path d="M6.2750 4.4640
L6.2750 4.5100
" />
<path d="M6.2750 5.5750
L6.2750 6.0750
" />
<path d="M6.2750 6.0750
L6.0740 6.0750
" />
<path d="M6.5740 0.7770
L6.5740 1.2770
" />
<path d="M6.5740 2.3410
L6.5740 2.3890
" />
<path d="M6.5740 2.3410
L6.7740 2.3410
" />
<path d="M6.5740 2.3890
L6.5740 2.5250
" />
<path d="M6.5740 4.3270
L6.5740 4.4640
" />
<path d="M6.5740 4.4640
L6.5740 4.5100
" />
<path d="M6.5740 4.5100
L6.7740 4.5100
" />
<path d="M6.5740 5.5750
L6.5740 6.0750
" />
<path d="M6.7740 0.7770
L6.5740 0.7770
" />
<path d="M6.7740 0.7770
L6.7740 1.2770
" />
<path d="M6.7740 2.3410
L6.7740 2.3890
" />
<path d="M6.7740 2.3890
L6.7740 2.5250
" />
<path d="M6.7740 4.3270
L6.7740 4.4640
" />
<path d="M6.7740 4.4640
L6.7740 4.5100
" />
<path d="M6.7740 5.5750
L6.7740 6.0750
" />
<path d="M6.7740 6.0750
L6.5740 6.0750
" />
<path d="M7.0740 0.7770
L7.0740 1.2770
" />
<path d="M7.0740 1.7850
L7.0740 1.8510
" />
<path d="M7.0740 1.7850
L7.7730 1.7850
" />
<path d="M7.0740 1.8510
L7.0740 1.8850
" />
<path d="M7.0740 1.8850
L7.7730 1.8850
" />
<path d="M7.0740 2.3410
L7.0740 2.3890
" />
<path d="M7.0740 2.3410
L7.2740 2.3410
" />
<path d="M7.0740 2.3890
L7.0740 2.5250
" />
<path d="M7.0740 4.3270
L7.0740 4.4640
" />
<path d="M7.0740 4.4640
L7.0740 4.5100
" />
<path d="M7.0740 4.5100
L7.2740 4.5100
" />
<path d="M7.0740 4.9660
L7.7730 4.9660
" />
<path d="M7.0740 5.0000
L7.0740 4.9660
" />
<path d="M7.0740 5.0680
L7.0740 5.0000
" />
<path d="M7.0740 5.0680
L7.7730 5.0680
" />
<path d="M7.0740 5.5750
L7.0740 6.0750
" />
<path d="M7.2740 0.7770
L7.0740 0.7770
" />
<path d="M7.2740 0.7770
L7.2740 1.2770
" />
<path d="M7.2740 2.3410
L7.2740 2.3890
" />
<path d="M7.2740 2.3890
L7.2740 2.5250
" />
<path d="M7.2740 4.3270
L7.2740 4.4640
" />
<path d="M7.2740 4.4640
L7.2740 4.5100
" />
<path d="M7.2740 5.5750
L7.2740 6.0750
" />
<path d="M7.2740 6.0750
L7.0740 6.0750
" />
<path d="M7.5740 0.7770
L7.5740 1.2770
" />
<path d="M7.5740 2.3410
L7.5740 2.3890
" />
<path d="M7.5740 2.3410
L7.7730 2.3410
" />
<path d="M7.5740 2.3890
L7.5740 2.5250
" />
<path d="M7.5740 4.3270
L7.5740 4.4640
" />
<path d="M7.5740 4.4640
L7.5740 4.5100
" />
<path d="M7.5740 4.5100
L7.7730 4.5100
" />
<path d="M7.5740 5.5750
L7.5740 6.0750
" />
<path d="M7.7730 0.7770
L7.5740 0.7770
" />
<path d="M7.7730 0.7770
L7.7730 1.2770
" />
<path d="M7.7730 1.7850
L7.7730 1.8510
" />
<path d="M7.7730 1.8510
L7.7730 1.8850
" />
<path d="M7.7730 1.8510
L9.5740 1.8510
" />
<path d="M7.7730 2.3410
L7.7730 2.3890
" />
<path d="M7.7730 2.3890
L7.7730 2.5250
" />
<path d="M7.7730 4.3270
L7.7730 4.4640
" />
<path d="M7.7730 4.4640
L7.7730 4.5100
" />
<path d="M7.7730 5.0000
L7.7730 4.9660
" />
<path d="M7.7730 5.0000
L9.5740 5.0000
" />
<path d="M7.7730 5.0680
L7.7730 5.0000
" />
<path d="M7.7730 5.5750
L7.7730 6.0750
" />
<path d="M7.7730 6.0750
L7.5740 6.0750
" />
<path d="M8.0750 0.7770
L8.0750 1.2770
" />
<path d="M8.0750 2.3410
L8.0750 2.3890
" />
<path d="M8.0750 2.3410
L8.2730 2.3410
" />
<path d="M8.0750 2.3890
L8.0750 2.5250
" />
<path d="M8.0750 4.3270
L8.0750 4.4640
" />
<path d="M8.0750 4.4640
L8.0750 4.5100
" />
<path d="M8.0750 4.5100
L8.2730 4.5100
" />
<path d="M8.0750 5.5750
L8.0750 6.0750
" />
<path d="M8.2730 0.7770
L8.0750 0.7770
" />
<path d="M8.2730 0.7770
L8.2730 1.2770
" />
<path d="M8.2730 2.3410
L8.2730 2.3890
" />
<path d="M8.2730 2.3890
L8.2730 2.5250
" />
<path d="M8.2730 4.3270
L8.2730 4.4640
" />
<path d="M8.2730 4.4640
L8.2730 4.5100
" />
<path d="M8.2730 5.5750
L8.2730 6.0750
" />
<path d="M8.2730 6.0750
L8.0750 6.0750
" />
<path d="M8.5730 0.7770
L8.5730 1.2770
" />
<path d="M8.5730 2.3410
L8.5730 2.3890
" />
<path d="M8.5730 2.3410
L8.7750 2.3410
" />
<path d="M8.5730 2.3890
L8.5730 2.5250
" />
<path d="M8.5730 4.3270
L8.5730 4.4640
" />
<path d="M8.5730 4.4640
L8.5730 4.5100
" />
<path d="M8.5730 4.5100
L8.7750 4.5100
" />
<path d="M8.5730 5.5750
L8.5730 6.0750
" />
<path d="M8.7750 0.7770
L8.5730 0.7770
" />
<path d="M8.7750 0.7770
L8.7750 1.2770
" />
<path d="M8.7750 2.3410
L8.7750 2.3890
" />
<path d="M8.7750 2.3890
L8.7750 2.5250
" />
<path d="M8.7750 4.3270
L8.7750 4.4640
" />
<path d="M8.7750 4.4640
L8.7750 4.5100
" />
<path d="M8.7750 5.5750
L8.7750 6.0750
" />
<path d="M8.7750 6.0750
L8.5730 6.0750
" />
<path d="M9.0740 0.7770
L9.0740 1.2770
" />
<path d="M9.0740 2.3410
L9.0740 2.3890
" />
<path d="M9.0740 2.3410
L9.2740 2.3410
" />
<path d="M9.0740 2.3890
L9.0740 2.5250
" />
<path d="M9.0740 4.3270
L9.0740 4.4640
" />
<path d="M9.0740 4.4640
L9.0740 4.5100
" />
<path d="M9.0740 4.5100
L9.2740 4.5100
" />
<path d="M9.0740 5.5750
L9.0740 6.0750
" />
<path d="M9.2740 0.7770
L9.0740 0.7770
" />
<path d="M9.2740 0.7770
L9.2740 1.2770
" />
<path d="M9.2740 2.3410
L9.2740 2.3890
" />
<path d="M9.2740 2.3890
L9.2740 2.5250
" />
<path d="M9.2740 4.3270
L9.2740 4.4640
" />
<path d="M9.2740 4.4640
L9.2740 4.5100
" />
<path d="M9.2740 5.5750
L9.2740 6.0750
" />
<path d="M9.2740 6.0750
L9.0740 6.0750
" />
<path d="M9.5740 0.7770
L9.5740 1.2770
" />
<path d="M9.5740 1.7850
L9.5740 1.8510
" />
<path d="M9.5740 1.7850
L10.2750 1.7850
" />
<path d="M9.5740 1.8510
L9.5740 1.8850
" />
<path d="M9.5740 1.8850
L10.2750 1.8850
" />
<path d="M9.5740 2.3410
L9.5740 2.3890
" />
<path d="M9.5740 2.3410
L9.7750 2.3410
" />
<path d="M9.5740 2.3890
L9.5740 2.5250
" />
<path d="M9.5740 4.3270
L9.5740 4.4640
" />
<path d="M9.5740 4.4640
L9.5740 4.5100
" />
<path d="M9.5740 4.5100
L9.7750 4.5100
" />
<path d="M9.5740 4.9660
L10.2750 4.9660
" />
<path d="M9.5740 5.0000
L9.5740 4.9660
" />
<path d="M9.5740 5.0680
L9.5740 5.0000
" />
<path d="M9.5740 5.0680
L10.2750 5.0680
" />
<path d="M9.5740 5.5750
L9.5740 6.0750
" />
<path d="M9.7750 0.7770
L9.5740 0.7770
" />
<path d="M9.7750 0.7770
L9.7750 1.2770
" />
<path d="M9.7750 2.3410
L9.7750 2.3890
" />
<path d="M9.7750 2.3890
L9.7750 2.5250
" />
<path d="M9.7750 4.3270
L9.7750 4.4640
" />
<path d="M9.7750 4.4640
L9.7750 4.5100
" />
<path d="M9.7750 5.5750
L9.7750 6.0750
" />
<path d="M9.7750 6.0750
L9.5740 6.0750
" />
<path d="M10.0730 0.7770
L10.0730 1.2770
" />
<path d="M10.0730 2.3410
L10.0730 2.3890
" />
<path d="M10.0730 2.3410
L10.2750 2.3410
" />
<path d="M10.0730 2.3890
L10.0730 2.5250
" />
<path d="M10.0730 4.3270
L10.0730 4.4640
" />
<path d="M10.0730 4.4640
L10.0730 4.5100
" />
<path d="M10.0730 4.5100
L10.2750 4.5100
" />
<path d="M10.0730 5.5750
L10.0730 6.0750
" />
<path d="M10.2750 0.7770
L10.0730 0.7770
" />
<path d="M10.2750 0.7770
L10.2750 1.2770
" />
<path d="M10.2750 1.7850
L10.2750 1.8510
" />
<path d="M10.2750 1.8510
L10.2750 1.8850
" />
<path d="M10.2750 1.8510
L14.1740 1.8510
" />
<path d="M10.2750 2.3410
L10.2750 2.3890
" />
<path d="M10.2750 2.3890
L10.2750 2.5250
" />
<path d="M10.2750 4.3270
L10.2750 4.4640
" />
<path d="M10.2750 4.4640
L10.2750 4.5100
" />
<path d="M10.2750 5.0000
L10.2750 4.9660
" />
<path d="M10.2750 5.0000
L14.1740 5.0000
" />
<path d="M10.2750 5.0680
L10.2750 5.0000
" />
<path d="M10.2750 5.5750
L10.2750 6.0750
" />
<path d="M10.2750 6.0750
L10.0730 6.0750
" />
<path d="M10.5730 0.7770
L10.5730 1.2770
" />
<path d="M10.5730 2.3410
L10.5730 2.3890
" />
<path d="M10.5730 2.3410
L10.7750 2.3410
" />
<path d="M10.5730 2.3890
L10.5730 2.5250
" />
<path d="M10.5730 4.3270
L10.5730 4.4640
" />
<path d="M10.5730 4.4640
L10.5730 4.5100
" />
<path d="M10.5730 4.5100
L10.7750 4.5100
" />
<path d="M10.5730 5.5750
L10.5730 6.0750
" />
<path d="M10.7750 0.7770
L10.5730 0.7770
" />
<path d="M10.7750 0.7770
L10.7750 1.2770
" />
<path d="M10.7750 2.3410
L10.7750 2.3890
" />
<path d="M10.7750 2.3890
L10.7750 2.5250
" />
<path d="M10.7750 4.3270
L10.7750 4.4640
" />
<path d="M10.7750 4.4640
L10.7750 4.5100
" />
<path d="M10.7750 5.5750
L10.7750 6.0750
" />
<path d="M10.7750 6.0750
L10.5730 6.0750
" />
<path d="M11.0730 0.7770
L11.0730 1.2770
" />
<path d="M11.0730 2.3410
L11.0730 2.3890
" />
<path d="M11.0730 2.3410
L11.2750 2.3410
" />
<path d="M11.0730 2.3890
L11.0730 2.5250
" />
<path d="M11.0730 4.3270
L11.0730 4.4640
" />
<path d="M11.0730 4.4640
L11.0730 4.5100
" />
<path d="M11.0730 4.5100
L11.2750 4.5100
" />
<path d="M11.0730 5.5750
L11.0730 6.0750
" />
<path d="M11.2750 0.7770
L11.0730 0.7770
" />
<path d="M11.2750 0.7770
L11.2750 1.2770
" />
<path d="M11.2750 2.3410
L11.2750 2.3890
" />
<path d="M11.2750 2.3890
L11.2750 2.5250
" />
<path d="M11.2750 4.3270
L11.2750 4.4640
" />
<path d="M11.2750 4.4640
L11.2750 4.5100
" />
<path d="M11.2750 5.5750
L11.2750 6.0750
" />
<path d="M11.2750 6.0750
L11.0730 6.0750
" />
<path d="M11.5740 0.7770
L11.5740 1.2770
" />
<path d="M11.5740 2.3410
L11.5740 2.3890
" />
<path d="M11.5740 2.3410
L11.7740 2.3410
" />
<path d="M11.5740 2.3890
L11.5740 2.5250
" />
<path d="M11.5740 4.3270
L11.5740 4.4640
" />
<path d="M11.5740 4.4640
L11.5740 4.5100
" />
<path d="M11.5740 4.5100
L11.7740 4.5100
" />
<path d="M11.5740 5.5750
L11.5740 6.0750
" />
<path d="M11.7740 0.7770
L11.5740 0.7770
" />
<path d="M11.7740 0.7770
L11.7740 1.2770
" />
<path d="M11.7740 2.3410
L11.7740 2.3890
" />
<path d="M11.7740 2.3890
L11.7740 2.5250
" />
<path d="M11.7740 4.3270
L11.7740 4.4640
" />
<path d="M11.7740 4.4640
L11.7740 4.5100
" />
<path d="M11.7740 5.5750
L11.7740 6.0750
" />
<path d="M11.7740 6.0750
L11.5740 6.0750
" />
<path d="M12.0740 0.7770
L12.0740 1.2770
" />
<path d="M12.0740 2.3410
L12.0740 2.3890
" />
<path d="M12.0740 2.3410
L12.2740 2.3410
" />
<path d="M12.0740 2.3890
L12.0740 2.5250
" />
<path d="M12.0740 4.3270
L12.0740 4.4640
" />
<path d="M12.0740 4.4640
L12.0740 4.5100
" />
<path d="M12.0740 4.5100
L12.2740 4.5100
" />
<path d="M12.0740 5.5750
L12.0740 6.0750
" />
<path d="M12.2740 0.7770
L12.0740 0.7770
" />
<path d="M12.2740 0.7770
L12.2740 1.2770
" />
<path d="M12.2740 2.3410
L12.2740 2.3890
" />
<path d="M12.2740 2.3890
L12.2740 2.5250
" />
<path d="M12.2740 4.3270
L12.2740 4.4640
" />
<path d="M12.2740 4.4640
L12.2740 4.5100
" />
<path d="M12.2740 5.5750
L12.2740 6.0750
" />
<path d="M12.2740 6.0750
L12.0740 6.0750
" />
<path d="M12.5740 0.7770
L12.5740 1.2770
" />
<path d="M12.5740 2.3410
L12.5740 2.3890
" />
<path d="M12.5740 2.3410
L12.7740 2.3410
" />
<path d="M12.5740 2.3890
L12.5740 2.5250
" />
<path d="M12.5740 4.3270
L12.5740 4.4640
" />
<path d="M12.5740 4.4640
L12.5740 4.5100
" />
<path d="M12.5740 4.5100
L12.7740 4.5100
" />
<path d="M12.5740 5.5750
L12.5740 6.0750
" />
<path d="M12.7740 0.7770
L12.5740 0.7770
" />
<path d="M12.7740 0.7770
L12.7740 1.2770
" />
<path d="M12.7740 2.3410
L12.7740 2.3890
" />
<path d="M12.7740 2.3890
L12.7740 2.5250
" />
<path d="M12.7740 4.3270
L12.7740 4.4640
" />
<path d="M12.7740 4.4640
L12.7740 4.5100
" />
<path d="M12.7740 5.5750
L12.7740 6.0750
" />
<path d="M12.7740 6.0750
L12.5740 6.0750
" />
<path d="M13.0750 0.7770
L13.0750 1.2770
" />
<path d="M13.0750 2.3410
L13.0750 2.3890
" />
<path d="M13.0750 2.3410
L13.2740 2.3410
" />
<path d="M13.0750 2.3890
L13.0750 2.5250
" />
<path d="M13.0750 4.3270
L13.0750 4.4640
" />
<path d="M13.0750 4.4640
L13.0750 4.5100
" />
<path d="M13.0750 4.5100
L13.2740 4.5100
" />
<path d="M13.0750 5.5750
L13.0750 6.0750
" />
<path d="M13.2740 0.7770
L13.0750 0.7770
" />
<path d="M13.2740 0.7770
L13.2740 1.2770
" />
<path d="M13.2740 2.3410
L13.2740 2.3890
" />
<path d="M13.2740 2.3890
L13.2740 2.5250
" />
<path d="M13.2740 4.3270
L13.2740 4.4640
" />
<path d="M13.2740 4.4640
L13.2740 4.5100
" />
<path d="M13.2740 5.5750
L13.2740 6.0750
" />
<path d="M13.2740 6.0750
L13.0750 6.0750
" />
<path d="M13.5750 0.7770
L13.5750 1.2770
" />
<path d="M13.5750 2.3410
L13.5750 2.3890
" />
<path d="M13.5750 2.3410
L13.7740 2.3410
" />
<path d="M13.5750 2.3890
L13.5750 2.5250
" />
<path d="M13.5750 4.3270
L13.5750 4.4640
" />
<path d="M13.5750 4.4640
L13.5750 4.5100
" />
<path d="M13.5750 4.5100
L13.7740 4.5100
" />
<path d="M13.5750 5.5750
L13.5750 6.0750
" />
<path d="M13.7740 0.7770
L13.5750 0.7770
" />
<path d="M13.7740 0.7770
L13.7740 1.2770
" />
<path d="M13.7740 2.3410
L13.7740 2.3890
" />
<path d="M13.7740 2.3890
L13.7740 2.5250
" />
<path d="M13.7740 4.3270
L13.7740 4.4640
" />
<path d="M13.7740 4.4640
L13.7740 4.5100
" />
<path d="M13.7740 5.5750
L13.7740 6.0750
" />
<path d="M13.7740 6.0750
L13.5750 6.0750
" />
<path d="M14.0750 0.7770
L14.0750 1.2770
" />
<path d="M14.0750 2.3410
L14.0750 2.3890
" />
<path d="M14.0750 2.3410
L14.2740 2.3410
" />
<path d="M14.0750 2.3890
L14.0750 2.5250
" />
<path d="M14.0750 4.3270
L14.0750 4.4640
" />
<path d="M14.0750 4.4640
L14.0750 4.5100
" />
<path d="M14.0750 4.5100
L14.2740 4.5100
" />
<path d="M14.0750 5.5750
L14.0750 6.0750
" />
<path d="M14.1740 1.8510
L14.1740 1.6800
" />
<path d="M14.1740 5.0000
L14.1740 5.1710
" />
<path d="M14.2740 0.7770
L14.0750 0.7770
" />
<path d="M14.2740 0.7770
L14.2740 1.2770
" />
<path d="M14.2740 2.3410
L14.2740 2.3890
" />
<path d="M14.2740 2.3890
L14.2740 2.5250
" />
<path d="M14.2740 4.3270
L14.2740 4.4640
" />
<path d="M14.2740 4.4640
L14.2740 4.5100
" />
<path d="M14.2740 5.5750
L14.2740 6.0750
" />
<path d="M14.2740 6.0750
L14.0750 6.0750
" />
<path d="M14.5750 0.7770
L14.5750 1.2770
" />
<path d="M14.5750 2.3410
L14.5750 2.3890
" />
<path d="M14.5750 2.3410
L14.7740 2.3410
" />
<path d="M14.5750 2.3890
L14.5750 2.5250
" />
<path d="M14.5750 4.3270
L14.5750 4.4640
" />
<path d="M14.5750 4.4640
L14.5750 4.5100
" />
<path d="M14.5750 4.5100
L14.7740 4.5100
" />
<path d="M14.5750 5.5750
L14.5750 6.0750
" />
<path d="M14.7740 0.7770
L14.5750 0.7770
" />
<path d="M14.7740 0.7770
L14.7740 1.2770
" />
<path d="M14.7740 2.3410
L14.7740 2.3890
" />
<path d="M14.7740 2.3890
L14.7740 2.5250
" />
<path d="M14.7740 4.3270
L14.7740 4.4640
" />
<path d="M14.7740 4.4640
L14.7740 4.5100
" />
<path d="M14.7740 5.5750
L14.7740 6.0750
" />
<path d="M14.7740 6.0750
L14.5750 6.0750
" />
<path d="M14.9240 2.5250
L2.4250 2.5250
" />
<path d="M14.9240 2.6250
L14.9240 2.5250
" />
<path d="M14.9240 2.6250
L15.0240 2.6250
" />
<path d="M14.9240 4.2270
L14.9240 4.3270
" />
<path d="M14.9240 4.2270
L15.0240 4.2270
" />
<path d="M14.9240 4.3270
L14.9290 4.3260
" />
<path d="M14.9290 2.5260
L14.9240 2.5250
" />
<path d="M14.9290 2.5260
L14.9240 2.5250
" />
<path d="M14.9290 4.3260
L14.9340 4.3260
" />
<path d="M14.9340 2.5260
L14.9290 2.5260
" />
<path d="M14.9340 2.5260
L14.9290 2.5260
" />
<path d="M14.9340 4.3260
L14.9400 4.3250
" />
<path d="M14.9400 2.5270
L14.9340 2.5260
" />
<path d="M14.9400 2.5270
L14.9340 2.5260
" />
<path d="M14.9400 4.3250
L14.9450 4.3240
" />
<path d="M14.9450 2.5280
L14.9400 2.5270
" />
<path d="M14.9450 2.5280
L14.9400 2.5270
" />
<path d="M14.9450 4.3240
L14.9480 4.3230
" />
<path d="M14.9480 2.5290
L14.9450 2.5280
" />
<path d="M14.9480 2.5290
L14.9450 2.5280
" />
<path d="M14.9480 4.3230
L14.9530 4.3210
" />
<path d="M14.9530 2.5310
L14.9480 2.5290
" />
<path d="M14.9530 2.5310
L14.9480 2.5290
" />
<path d="M14.9530 4.3210
L14.9580 4.3190
" />
<path d="M14.9580 2.5330
L14.9530 2.5310
" />
<path d="M14.9580 2.5330
L14.9530 2.5310
" />
<path d="M14.9580 4.3190
L14.9630 4.3180
" />
<path d="M14.9630 2.5340
L14.9580 2.5330
" />
<path d="M14.9630 2.5340
L14.9580 2.5330
" />
<path d="M14.9630 4.3180
L14.9680 4.3160
" />
<path d="M14.9680 2.5360
L14.9630 2.5340
" />
<path d="M14.9680 2.5360
L14.9630 2.5340
" />
<path d="M14.9680 4.3160
L14.9710 4.3130
" />
<path d="M14.9710 2.5390
L14.9680 2.5360
" />
<path d="M14.9710 2.5390
L14.9680 2.5360
" />
<path d="M14.9710 4.3130
L14.9760 4.3110
" />
<path d="M14.9760 2.5410
L14.9710 2.5390
" />
<path d="M14.9760 2.5410
L14.9710 2.5390
" />
<path d="M14.9760 4.3110
L14.9790 4.3080
" />
<path d="M14.9790 2.5440
L14.9760 2.5410
" />
<path d="M14.9790 2.5440
L14.9760 2.5410
" />
<path d="M14.9790 4.3080
L14.9840 4.3060
" />
<path d="M14.9840 2.5460
L14.9790 2.5440
" />
<path d="M14.9840 2.5460
L14.9790 2.5440
" />
<path d="M14.9840 4.3060
L14.9870 4.3030
" />
<path d="M14.9870 2.5490
L14.9840 2.5460
" />
<path d="M14.9870 2.5490
L14.9840 2.5460
" />
<path d="M14.9870 4.3030
L14.9920 4.3000
" />
<path d="M14.9920 2.5520
L14.9870 2.5490
" />
<path d="M14.9920 2.5520
L14.9870 2.5490
" />
<path d="M14.9920 4.3000
L14.9950 4.2960
" />
<path d="M14.9950 2.5560
L14.9920 2.5520
" />
<path d="M14.9950 2.5560
L14.9920 2.5520
" />
<path d="M14.9950 4.2960
L14.9980 4.2930
" />
<path d="M14.9980 2.5590
L14.9950 2.5560
" />
<path d="M14.9980 2.5590
L14.9950 2.5560
" />
<path d="M14.9980 4.2930
L15.0010 4.2890
" />
<path d="M15.0010 2.5630
L14.9980 2.5590
" />
<path d="M15.0010 2.5630
L14.9980 2.5590
" />
<path d="M15.0010 4.2890
L15.0040 4.2850
" />
<path d="M15.0040 2.5670
L15.0010 2.5630
" />
<path d="M15.0040 2.5670
L15.0010 2.5630
" />
<path d="M15.0040 4.2850
L15.0060 4.2810
" />
<path d="M15.0060 2.5710
L15.0040 2.5670
" />
<path d="M15.0060 2.5710
L15.0040 2.5670
" />
<path d="M15.0060 4.2810
L15.0090 4.2770
" />
<path d="M15.0090 2.5750
L15.0060 2.5710
" />
<path d="M15.0090 2.5750
L15.0060 2.5710
" />
<path d="M15.0090 4.2770
L15.0110 4.2730
" />
<path d="M15.0110 2.5790
L15.0090 2.5750
" />
<path d="M15.0110 2.5790
L15.0090 2.5750
" />
<path d="M15.0110 4.2730
L15.0140 4.2690
" />
<path d="M15.0140 2.5830
L15.0110 2.5790
" />
<path d="M15.0140 2.5830
L15.0110 2.5790
" />
<path d="M15.0140 4.2690
L15.0170 4.2640
" />
<path d="M15.0170 2.5880
L15.0140 2.5830
" />
<path d="M15.0170 2.5880
L15.0140 2.5830
" />
<path d="M15.0170 2.5920
L15.0170 2.5880
" />
<path d="M15.0170 2.5920
L15.0170 2.5880
" />
<path d="M15.0170 4.2600
L15.0190 4.2560
" />
<path d="M15.0170 4.2640
L15.0170 4.2600
" />
<path d="M15.0190 2.5960
L15.0170 2.5920
" />
<path d="M15.0190 2.5960
L15.0170 2.5920
" />
<path d="M15.0190 4.2560
L15.0200 4.2510
" />
<path d="M15.0200 2.6010
L15.0190 2.5960
" />
<path d="M15.0200 2.6010
L15.0190 2.5960
" />
<path d="M15.0200 4.2510
L15.0220 4.2470
" />
<path d="M15.0220 2.6050
L15.0200 2.6010
" />
<path d="M15.0220 2.6050
L15.0200 2.6010
" />
<path d="M15.0220 2.6100
L15.0220 2.6050
" />
<path d="M15.0220 2.6100
L15.0220 2.6050
" />
<path d="M15.0220 4.2420
L15.0240 4.2370
" />
<path d="M15.0220 4.2470
L15.0220 4.2420
" />
<path d="M15.0240 1.2770
L2.3240 1.2770
" />
<path d="M15.0240 1.2770
L15.0240 1.5810
" />
<path d="M15.0240 1.2770
L16.6230 1.2770
" />
<path d="M15.0240 1.5810
L2.3240 1.5810
" />
<path d="M15.0240 1.8510
L14.1740 1.8510
" />
<path d="M15.0240 1.8510
L15.0240 1.5810
" />
<path d="M15.0240 1.8510
L15.3490 1.8510
" />
<path d="M15.0240 2.6150
L15.0220 2.6100
" />
<path d="M15.0240 2.6150
L15.0220 2.6100
" />
<path d="M15.0240 2.6200
L15.0240 2.6150
" />
<path d="M15.0240 2.6200
L15.0240 2.6150
" />
<path d="M15.0240 2.6250
L15.0240 2.6200
" />
<path d="M15.0240 2.6250
L15.0240 2.6200
" />
<path d="M15.0240 4.2270
L15.0240 2.6250
" />
<path d="M15.0240 4.2320
L15.0240 4.2270
" />
<path d="M15.0240 4.2370
L15.0240 4.2320
" />
<path d="M15.0240 5.0000
L14.1740 5.0000
" />
<path d="M15.0240 5.2700
L2.3240 5.2700
" />
<path d="M15.0240 5.2700
L15.0240 5.0000
" />
<path d="M15.0240 5.2700
L15.0240 5.5750
" />
<path d="M15.0240 5.5750
L2.3240 5.5750
" />
<path d="M15.0240 5.5750
L16.6230 5.5750
" />
<path d="M15.3490 1.8510
L15.3600 1.8510
" />
<path d="M15.3490 5.0000
L15.0240 5.0000
" />
<path d="M15.3600 1.8510
L15.3700 1.8530
" />
<path d="M15.3600 5.0000
L15.3490 5.0000
" />
<path d="M15.3700 1.8530
L15.3790 1.8530
" />
<path d="M15.3700 5.0000
L15.3600 5.0000
" />
<path d="M15.3790 1.8530
L15.3890 1.8550
" />
<path d="M15.3790 4.9980
L15.3700 5.0000
" />
<path d="M15.3890 1.8550
L15.3990 1.8570
" />
<path d="M15.3890 4.9960
L15.3790 4.9980
" />
<path d="M15.3990 1.8570
L15.4080 1.8590
" />
<path d="M15.3990 4.9940
L15.3890 4.9960
" />
<path d="M15.4020 1.8590
L15.4070 1.8590
" />
<path d="M15.4070 1.8590
L15.4110 1.8610
" />
<path d="M15.4070 4.9920
L15.4020 4.9940
" />
<path d="M15.4080 1.8590
L15.4180 1.8630
" />
<path d="M15.4080 4.9920
L15.3990 4.9940
" />
<path d="M15.4110 1.8610
L15.4160 1.8630
" />
<path d="M15.4110 4.9900
L15.4070 4.9920
" />
<path d="M15.4160 1.8630
L15.4210 1.8650
" />
<path d="M15.4160 4.9900
L15.4110 4.9900
" />
<path d="M15.4180 1.8630
L15.4260 1.8670
" />
<path d="M15.4180 4.9880
L15.4080 4.9920
" />
<path d="M15.4210 1.8650
L15.4240 1.8650
" />
<path d="M15.4210 4.9880
L15.4160 4.9900
" />
<path d="M15.4240 1.8650
L15.4290 1.8670
" />
<path d="M15.4240 4.9860
L15.4210 4.9880
" />
<path d="M15.4260 1.8670
L15.4350 1.8710
" />
<path d="M15.4260 4.9860
L15.4180 4.9880
" />
<path d="M15.4290 1.8670
L15.4320 1.8690
" />
<path d="M15.4290 4.9840
L15.4240 4.9860
" />
<path d="M15.4320 1.8690
L15.4370 1.8710
" />
<path d="M15.4320 4.9820
L15.4290 4.9840
" />
<path d="M15.4350 1.8710
L15.4450 1.8750
" />
<path d="M15.4350 4.9820
L15.4260 4.9860
" />
<path d="M15.4370 4.9800
L15.4320 4.9820
" />
<path d="M15.4450 1.8750
L15.4530 1.8790
" />
<path d="M15.4450 4.9760
L15.4350 4.9820
" />
<path d="M15.4530 1.8790
L15.4610 1.8850
" />
<path d="M15.4530 4.9720
L15.4450 4.9760
" />
<path d="M15.4610 1.8850
L15.4690 1.8900
" />
<path d="M15.4610 4.9660
L15.4530 4.9720
" />
<path d="M15.4640 1.8870
L15.4870 1.9060
" />
<path d="M15.4690 1.8900
L15.4770 1.8960
" />
<path d="M15.4690 4.9610
L15.4610 4.9660
" />
<path d="M15.4770 1.8960
L15.4840 1.9020
" />
<path d="M15.4770 4.9550
L15.4690 4.9610
" />
<path d="M15.4840 1.9020
L15.4900 1.9100
" />
<path d="M15.4840 4.9490
L15.4770 4.9550
" />
<path d="M15.4870 4.9470
L15.4640 4.9640
" />
<path d="M15.4900 1.9100
L15.4980 1.9160
" />
<path d="M15.4900 4.9430
L15.4840 4.9490
" />
<path d="M15.4980 1.9160
L15.5030 1.9240
" />
<path d="M15.4980 4.9350
L15.4900 4.9430
" />
<path d="M15.5030 1.9240
L15.5090 1.9320
" />
<path d="M15.5030 4.9290
L15.4980 4.9350
" />
<path d="M15.5090 1.9320
L15.5140 1.9400
" />
<path d="M15.5090 4.9210
L15.5030 4.9290
" />
<path d="M15.5140 1.9400
L15.5200 1.9480
" />
<path d="M15.5140 4.9130
L15.5090 4.9210
" />
<path d="M15.5190 1.9460
L15.5280 1.9620
" />
<path d="M15.5200 1.9480
L15.5250 1.9560
" />
<path d="M15.5200 4.9050
L15.5140 4.9130
" />
<path d="M15.5250 1.9560
L15.5300 1.9640
" />
<path d="M15.5250 4.8970
L15.5200 4.9050
" />
<path d="M15.5280 4.8890
L15.5190 4.9050
" />
<path d="M15.5300 1.9640
L15.5330 1.9740
" />
<path d="M15.5300 4.8870
L15.5250 4.8970
" />
<path d="M15.5330 1.9740
L15.5360 1.9820
" />
<path d="M15.5330 4.8790
L15.5300 4.8870
" />
<path d="M15.5360 1.9820
L15.5410 1.9920
" />
<path d="M15.5360 4.8690
L15.5330 4.8790
" />
<path d="M15.5400 4.8610
L1.8080 4.8610
" />
<path d="M15.5410 1.9920
L15.5430 2.0020
" />
<path d="M15.5410 4.8610
L15.5360 4.8690
" />
<path d="M15.5430 2.0020
L15.5440 2.0100
" />
<path d="M15.5430 4.8510
L15.5410 4.8610
" />
<path d="M15.5440 2.0100
L15.5460 2.0210
" />
<path d="M15.5440 4.8410
L15.5430 4.8510
" />
<path d="M15.5460 2.0210
L15.5480 2.0310
" />
<path d="M15.5460 4.8320
L15.5440 4.8410
" />
<path d="M15.5480 2.0310
L15.5490 2.0410
" />
<path d="M15.5480 4.8220
L15.5460 4.8320
" />
<path d="M15.5490 2.0410
L15.5490 2.0510
" />
<path d="M15.5490 2.0510
L15.5490 4.8000
" />
<path d="M15.5490 4.8000
L15.5490 4.8120
" />
<path d="M15.5490 4.8120
L15.5480 4.8220
" />
<path d="M15.6740 0.7250
L15.6740 1.2770
" />
<path d="M15.6740 0.7250
L16.3250 0.7250
" />
<path d="M15.6740 6.1270
L15.6740 5.5750
" />
<path d="M15.6740 6.1270
L16.6230 6.1270
" />
<path d="M16.2740 2.2260
L16.2740 4.6250
" />
<path d="M16.2740 2.3250
L16.5750 2.3250
" />
<path d="M16.2740 2.4270
L16.4740 2.4270
" />
<path d="M16.2740 2.7260
L16.4740 2.7260
" />
<path d="M16.2740 4.1260
L16.4740 4.1260
" />
<path d="M16.3250 0.7250
L16.8250 1.2250
" />
<path d="M16.4740 2.4270
L16.4740 2.7260
" />
<path d="M16.4740 2.4270
L16.5750 2.3250
" />
<path d="M16.4740 4.1260
L16.4740 4.4250
" />
<path d="M16.4740 4.1260
L16.5750 4.1260
" />
<path d="M16.4740 4.4250
L16.2740 4.4250
" />
<path d="M16.4740 4.4250
L16.5750 4.5260
" />
<path d="M16.5750 2.3250
L16.5750 2.7260
" />
<path d="M16.5750 2.7260
L16.4740 2.7260
" />
<path d="M16.5750 4.1260
L16.5750 4.5260
" />
<path d="M16.5750 4.5260
L16.2740 4.5260
" />
<path d="M16.6230 1.2770
L16.6230 1.5270
" />
<path d="M16.6230 5.3260
L16.6340 5.3260
" />
<path d="M16.6230 5.5750
L16.6230 5.3260
" />
<path d="M16.6230 6.1270
L16.6340 6.1260
" />
<path d="M16.6340 1.5270
L16.6230 1.5270
" />
<path d="M16.6340 5.3260
L16.6440 5.3240
" />
<path d="M16.6340 6.1260
L16.6440 6.1240
" />
<path d="M16.6440 1.5270
L16.6340 1.5270
" />
<path d="M16.6440 5.3240
L16.6550 5.3240
" />
<path d="M16.6440 6.1240
L16.6550 6.1230
" />
<path d="M16.6550 1.5290
L16.6440 1.5270
" />
<path d="M16.6550 5.3240
L16.6650 5.3220
" />
<path d="M16.6550 6.1230
L16.6650 6.1220
" />
<path d="M16.6650 1.5310
L16.6550 1.5290
" />
<path d="M16.6650 5.3220
L16.6740 5.3200
" />
<path d="M16.6650 6.1220
L16.6740 6.1190
" />
<path d="M16.6740 1.5330
L16.6650 1.5310
" />
<path d="M16.6740 5.3200
L16.6840 5.3180
" />
<path d="M16.6740 6.1190
L16.6840 6.1180
" />
<path d="M16.6840 1.5350
L16.6740 1.5330
" />
<path d="M16.6840 5.3180
L16.6930 5.3140
" />
<path d="M16.6840 6.1180
L16.6930 6.1140
" />
<path d="M16.6930 1.5390
L16.6840 1.5350
" />
<path d="M16.6930 5.3140
L16.7020 5.3100
" />
<path d="M16.6930 6.1140
L16.7020 6.1100
" />
<path d="M16.7020 1.5410
L16.6930 1.5390
" />
<path d="M16.7020 5.3100
L16.7100 5.3060
" />
<path d="M16.7020 6.1100
L16.7100 6.1060
" />
<path d="M16.7100 1.5450
L16.7020 1.5410
" />
<path d="M16.7100 5.3060
L16.7190 5.3020
" />
<path d="M16.7100 6.1060
L16.7190 6.1020
" />
<path d="M16.7190 1.5510
L16.7100 1.5450
" />
<path d="M16.7190 5.3020
L16.7280 5.2980
" />
<path d="M16.7190 6.1020
L16.7280 6.0980
" />
<path d="M16.7280 1.5550
L16.7190 1.5510
" />
<path d="M16.7280 5.2980
L16.7350 5.2920
" />
<path d="M16.7280 6.0980
L16.7350 6.0910
" />
<path d="M16.7350 1.5610
L16.7280 1.5550
" />
<path d="M16.7350 5.2920
L16.7440 5.2860
" />
<path d="M16.7350 6.0910
L16.7440 6.0860
" />
<path d="M16.7440 1.5650
L16.7350 1.5610
" />
<path d="M16.7440 5.2860
L16.7510 5.2800
" />
<path d="M16.7440 6.0860
L16.7510 6.0810
" />
<path d="M16.7510 1.5710
L16.7440 1.5650
" />
<path d="M16.7510 5.2800
L16.7580 5.2740
" />
<path d="M16.7510 6.0810
L16.7580 6.0740
" />
<path d="M16.7580 1.5770
L16.7510 1.5710
" />
<path d="M16.7580 5.2740
L16.7650 5.2680
" />
<path d="M16.7580 6.0740
L16.7650 6.0670
" />
<path d="M16.7650 1.5850
L16.7580 1.5770
" />
<path d="M16.7650 5.2680
L16.7730 5.2600
" />
<path d="M16.7650 6.0670
L16.7730 6.0610
" />
<path d="M16.7730 1.5910
L16.7650 1.5850
" />
<path d="M16.7730 5.2600
L16.7790 5.2540
" />
<path d="M16.7730 6.0610
L16.7790 6.0540
" />
<path d="M16.7790 1.5990
L16.7730 1.5910
" />
<path d="M16.7790 5.2540
L16.7840 5.2460
" />
<path d="M16.7790 6.0540
L16.7840 6.0460
" />
<path d="M16.7840 1.6070
L16.7790 1.5990
" />
<path d="M16.7840 5.2460
L16.7900 5.2380
" />
<path d="M16.7840 6.0460
L16.7900 6.0380
" />
<path d="M16.7900 1.6150
L16.7840 1.6070
" />
<path d="M16.7900 5.2380
L16.7960 5.2300
" />
<path d="M16.7900 6.0380
L16.7960 6.0300
" />
<path d="M16.7960 1.6230
L16.7900 1.6150
" />
<path d="M16.7960 5.2300
L16.7990 5.2220
" />
<path d="M16.7960 6.0300
L16.7990 6.0220
" />
<path d="M16.7990 1.6310
L16.7960 1.6230
" />
<path d="M16.7990 5.2220
L16.8050 5.2130
" />
<path d="M16.7990 6.0220
L16.8050 6.0130
" />
<path d="M16.8050 1.6400
L16.7990 1.6310
" />
<path d="M16.8050 5.2130
L16.8090 5.2030
" />
<path d="M16.8050 6.0130
L16.8090 6.0030
" />
<path d="M16.8090 1.6480
L16.8050 1.6400
" />
<path d="M16.8090 5.2030
L16.8120 5.1950
" />
<path d="M16.8090 6.0030
L16.8120 5.9940
" />
<path d="M16.8120 1.6580
L16.8090 1.6480
" />
<path d="M16.8120 5.1950
L16.8150 5.1850
" />
<path d="M16.8120 5.9940
L16.8150 5.9850
" />
<path d="M16.8150 1.6660
L16.8120 1.6580
" />
<path d="M16.8150 5.1850
L16.8180 5.1750
" />
<path d="M16.8150 5.9850
L16.8180 5.9760
" />
<path d="M16.8180 1.6760
L16.8150 1.6660
" />
<path d="M16.8180 5.1750
L16.8190 5.1670
" />
<path d="M16.8180 5.9760
L16.8190 5.9660
" />
<path d="M16.8190 1.6860
L16.8180 1.6760
" />
<path d="M16.8190 5.1670
L16.8220 5.1570
" />
<path d="M16.8190 5.9660
L16.8220 5.9570
" />
<path d="M16.8220 1.6960
L16.8190 1.6860
" />
<path d="M16.8220 1.7060
L16.8220 1.6960
" />
<path d="M16.8220 5.1470
L16.8240 5.1370
" />
<path d="M16.8220 5.1570
L16.8220 5.1470
" />
<path d="M16.8220 5.9460
L16.8240 5.9370
" />
<path d="M16.8220 5.9570
L16.8220 5.9460
" />
<path d="M16.8240 1.7160
L16.8220 1.7060
" />
<path d="M16.8240 5.1370
L16.8240 5.1250
" />
<path d="M16.8240 5.9370
L16.8240 5.9250
" />
<path d="M16.8250 1.2250
L16.8250 1.7260
" />
<path d="M16.8250 1.7260
L16.8240 1.7160
" />
<path d="M16.8250 1.7260
L16.8250 2.2260
" />
<path d="M16.8250 2.2260
L16.2740 2.2260
" />
<path d="M16.8250 2.2260
L16.8250 2.7260
" />
<path d="M16.8250 2.7260
L16.5750 2.7260
" />
<path d="M16.8250 4.1260
L16.5750 4.1260
" />
<path d="M16.8250 4.1260
L16.8250 4.6250
" />
<path d="M16.8250 4.6250
L16.2740 4.6250
" />
<path d="M16.8250 4.6250
L16.8250 5.1250
" />
<path d="M16.8250 5.1250
L16.8250 5.9250
" />
</g> 
</svg>
