<?xml version="1.0" standalone="no"?>
 <!DOCTYPE svg PUBLIC "-//W3C//DTD SVG 1.1//EN" 
 "http://www.w3.org/Graphics/SVG/1.1/DTD/svg11.dtd"> 
<svg
  xmlns:svg="http://www.w3.org/2000/svg"
  xmlns="http://www.w3.org/2000/svg"
  xmlns:xlink="http://www.w3.org/1999/xlink"
  version="1.1"
  width="8.9662mm" height="5.4356mm" viewBox="0.0000 0.0000 8.9662 5.4356">
<title>SVG Image created as outline.svg date 2025/06/16 09:18:08 </title>
  <desc>Image generated by PCBNEW </desc>
<g style="fill:#000000; fill-opacity:1.0000;stroke:#000000; stroke-opacity:1.0000;
stroke-linecap:round; stroke-linejoin:round;"
 transform="translate(0 0) scale(1 1)">
</g>
<g style="fill:none; 
stroke:#000000; stroke-width:0.0200; stroke-opacity:1; 
stroke-linecap:round; stroke-linejoin:round;">
<path d="M0.6700 4.5750
L0.6700 2.7750
" />
<path d="M0.8700 2.5750
L0.6700 2.7750
" />
<path d="M0.8700 4.7750
L0.6700 4.5750
" />
<path d="M0.8700 4.7750
L0.8700 1.9750
" />
<path d="M2.1700 1.9750
L0.8700 1.9750
" />
<path d="M2.1700 4.7750
L0.8700 4.7750
" />
<path d="M2.1700 4.7750
L2.1700 1.9750
" />
<path d="M2.3700 1.0750
L2.3700 1.3750
" />
<path d="M2.3700 1.9750
L2.1700 1.9750
" />
<path d="M2.3700 1.9750
L2.3700 1.3750
" />
<path d="M2.3700 1.9750
L2.3700 4.7750
" />
<path d="M2.3700 4.7750
L2.1700 4.7750
" />
<path d="M2.3700 4.7750
L4.2950 4.7750
" />
<path d="M2.6700 1.9750
L2.3700 1.9750
" />
<path d="M2.6700 1.9750
L2.6700 2.8250
" />
<path d="M2.6700 1.9750
L2.9700 1.9750
" />
<path d="M2.6700 2.8250
L2.6700 3.5750
" />
<path d="M2.6700 2.8250
L2.9700 2.8250
" />
<path d="M2.6700 3.5750
L2.6700 4.6750
" />
<path d="M2.6700 3.5750
L2.9700 3.5750
" />
<path d="M2.6700 4.6750
L2.9700 4.3750
" />
<path d="M2.6700 4.6750
L4.2950 4.6750
" />
<path d="M2.9700 1.9750
L2.9700 1.6750
" />
<path d="M2.9700 1.9750
L2.9700 2.8250
" />
<path d="M2.9700 3.5750
L2.9700 4.3750
" />
<path d="M2.9700 4.3750
L4.2950 4.3750
" />
<path d="M3.3200 1.3750
L2.3700 1.3750
" />
<path d="M3.3200 1.3750
L3.3200 1.6750
" />
<path d="M3.3200 1.6750
L2.9700 1.6750
" />
<path d="M3.3200 1.9750
L2.9700 1.9750
" />
<path d="M3.3200 1.9750
L3.3200 1.6750
" />
<path d="M3.7100 0.5750
L4.0300 0.5750
" />
<path d="M3.7100 0.6750
L3.7100 0.5750
" />
<path d="M3.7100 0.6750
L4.0300 0.6750
" />
<path d="M3.7100 1.0750
L3.7100 0.6750
" />
<path d="M3.7100 3.2500
L3.7100 4.0500
" />
<path d="M3.7100 3.2500
L3.8100 3.3250
" />
<path d="M3.7100 4.0500
L3.8100 3.9250
" />
<path d="M3.7100 4.0500
L4.0300 4.0500
" />
<path d="M3.8100 3.3250
L3.8100 3.9250
" />
<path d="M3.8100 3.9250
L3.9300 3.9250
" />
<path d="M3.9300 3.3250
L3.8100 3.3250
" />
<path d="M3.9300 3.9250
L3.9300 3.3250
" />
<path d="M4.0300 0.6750
L4.0300 0.5750
" />
<path d="M4.0300 1.0750
L4.0300 0.6750
" />
<path d="M4.0300 3.2500
L3.7100 3.2500
" />
<path d="M4.0300 3.2500
L3.9300 3.3250
" />
<path d="M4.0300 4.0500
L3.9300 3.9250
" />
<path d="M4.0300 4.0500
L4.0300 3.2500
" />
<path d="M4.2950 4.6750
L4.2950 4.3750
" />
<path d="M4.2950 4.7750
L4.2950 4.6750
" />
<path d="M4.6950 4.3750
L4.2950 4.3750
" />
<path d="M4.6950 4.3750
L6.0200 4.3750
" />
<path d="M4.6950 4.6750
L4.6950 4.3750
" />
<path d="M4.6950 4.6750
L6.3200 4.6750
" />
<path d="M4.6950 4.7750
L4.2950 4.7750
" />
<path d="M4.6950 4.7750
L4.6950 4.6750
" />
<path d="M4.6950 4.7750
L6.6200 4.7750
" />
<path d="M4.9600 0.5750
L5.2800 0.5750
" />
<path d="M4.9600 0.6750
L4.9600 0.5750
" />
<path d="M4.9600 0.6750
L5.2800 0.6750
" />
<path d="M4.9600 1.0750
L4.9600 0.6750
" />
<path d="M4.9600 3.2500
L4.9600 4.0500
" />
<path d="M4.9600 3.2500
L5.0600 3.3250
" />
<path d="M4.9600 4.0500
L5.0600 3.9250
" />
<path d="M4.9600 4.0500
L5.2800 4.0500
" />
<path d="M5.0600 3.3250
L5.0600 3.9250
" />
<path d="M5.0600 3.9250
L5.1800 3.9250
" />
<path d="M5.1800 3.3250
L5.0600 3.3250
" />
<path d="M5.1800 3.9250
L5.1800 3.3250
" />
<path d="M5.2800 0.6750
L5.2800 0.5750
" />
<path d="M5.2800 1.0750
L5.2800 0.6750
" />
<path d="M5.2800 3.2500
L4.9600 3.2500
" />
<path d="M5.2800 3.2500
L5.1800 3.3250
" />
<path d="M5.2800 4.0500
L5.1800 3.9250
" />
<path d="M5.2800 4.0500
L5.2800 3.2500
" />
<path d="M5.6700 1.3750
L6.6200 1.3750
" />
<path d="M5.6700 1.6750
L5.6700 1.3750
" />
<path d="M5.6700 1.6750
L6.0200 1.6750
" />
<path d="M5.6700 1.9750
L5.6700 1.6750
" />
<path d="M5.6700 1.9750
L6.0200 1.9750
" />
<path d="M6.0200 1.9750
L6.0200 1.6750
" />
<path d="M6.0200 2.8250
L6.0200 1.9750
" />
<path d="M6.0200 4.3750
L6.0200 3.5750
" />
<path d="M6.3200 1.9750
L6.0200 1.9750
" />
<path d="M6.3200 2.8250
L6.0200 2.8250
" />
<path d="M6.3200 2.8250
L6.3200 1.9750
" />
<path d="M6.3200 3.5750
L6.0200 3.5750
" />
<path d="M6.3200 3.5750
L6.3200 2.8250
" />
<path d="M6.3200 4.6750
L6.0200 4.3750
" />
<path d="M6.3200 4.6750
L6.3200 3.5750
" />
<path d="M6.6200 1.0750
L2.3700 1.0750
" />
<path d="M6.6200 1.0750
L6.6200 1.3750
" />
<path d="M6.6200 1.9750
L6.3200 1.9750
" />
<path d="M6.6200 1.9750
L6.6200 1.3750
" />
<path d="M6.6200 4.7750
L6.6200 1.9750
" />
<path d="M6.8200 1.9750
L6.6200 1.9750
" />
<path d="M6.8200 4.7750
L6.6200 4.7750
" />
<path d="M6.8200 4.7750
L6.8200 1.9750
" />
<path d="M8.1200 1.9750
L6.8200 1.9750
" />
<path d="M8.1200 2.5750
L8.3200 2.7750
" />
<path d="M8.1200 4.7750
L6.8200 4.7750
" />
<path d="M8.1200 4.7750
L8.1200 1.9750
" />
<path d="M8.1200 4.7750
L8.3200 4.5750
" />
<path d="M8.3200 4.5750
L8.3200 2.7750
" />
</g> 
</svg>
