{
  "accessors": [
    {
      "bufferView": 0,
      "byteOffset": 0,
      "componentType": 5126,
      "normalized": false,
      "count": 1200,
      "type": "VEC3",
      "max": [
        3.75,
        0.09979857504367828,
        2.749908208847046
      ],
      "min": [
        -3.75,
        0.0,
        -2.750000238418579
      ]
    },
    {
      "bufferView": 0,
      "byteOffset": 12,
      "componentType": 5126,
      "normalized": false,
      "count": 1200,
      "type": "VEC3"
    },
    {
      "bufferView": 0,
      "byteOffset": 24,
      "componentType": 5126,
      "normalized": false,
      "count": 1200,
      "type": "VEC2"
    },
    {
      "bufferView": 0,
      "byteOffset": 32,
      "componentType": 5126,
      "normalized": false,
      "count": 1200,
      "type": "VEC2"
    },
    {
      "bufferView": 1,
      "byteOffset": 0,
      "componentType": 5123,
      "normalized": false,
      "count": 2256,
      "type": "SCALAR"
    },
    {
      "bufferView": 1,
      "byteOffset": 4512,
      "componentType": 5123,
      "normalized": false,
      "count": 105,
      "type": "SCALAR"
    },
    {
      "bufferView": 1,
      "byteOffset": 4724,
      "componentType": 5123,
      "normalized": false,
      "count": 171,
      "type": "SCALAR"
    },
    {
      "bufferView": 2,
      "byteOffset": 0,
      "componentType": 5126,
      "normalized": false,
      "count": 77,
      "type": "VEC3",
      "max": [
        4.804271697998047,
        4.4000349044799805,
        3.701204538345337
      ],
      "min": [
        -4.801342010498047,
        0.5303499102592468,
        -3.7010343074798584
      ]
    },
    {
      "bufferView": 2,
      "byteOffset": 12,
      "componentType": 5126,
      "normalized": false,
      "count": 77,
      "type": "VEC3"
    },
    {
      "bufferView": 2,
      "byteOffset": 24,
      "componentType": 5126,
      "normalized": false,
      "count": 77,
      "type": "VEC2"
    },
    {
      "bufferView": 2,
      "byteOffset": 32,
      "componentType": 5126,
      "normalized": false,
      "count": 77,
      "type": "VEC2"
    },
    {
      "bufferView": 3,
      "byteOffset": 0,
      "componentType": 5126,
      "normalized": false,
      "count": 123,
      "type": "VEC3",
      "max": [
        4.999704360961914,
        0.5334511995315552,
        3.7405409812927246
      ],
      "min": [
        -4.852750778198242,
        0.09684726595878601,
        -3.740662097930908
      ]
    },
    {
      "bufferView": 3,
      "byteOffset": 12,
      "componentType": 5126,
      "normalized": false,
      "count": 123,
      "type": "VEC3"
    },
    {
      "bufferView": 3,
      "byteOffset": 24,
      "componentType": 5126,
      "normalized": false,
      "count": 123,
      "type": "VEC2"
    },
    {
      "bufferView": 3,
      "byteOffset": 32,
      "componentType": 5126,
      "normalized": false,
      "count": 123,
      "type": "VEC2"
    }
  ],
  "asset": {
    "generator": "pygltflib@v1.16.5",
    "version": "2.0"
  },
  "bufferViews": [
    {
      "buffer": 0,
      "byteOffset": 0,
      "byteLength": 48000,
      "byteStride": 40,
      "target": 34962
    },
    {
      "buffer": 0,
      "byteOffset": 48000,
      "byteLength": 5068,
      "target": 34963
    },
    {
      "buffer": 0,
      "byteOffset": 53068,
      "byteLength": 3080,
      "byteStride": 40,
      "target": 34962
    },
    {
      "buffer": 0,
      "byteOffset": 56148,
      "byteLength": 4920,
      "byteStride": 40,
      "target": 34962
    }
  ],
  "buffers": [
    {
      "uri": "Oscillator_SMD_Microchip_OX-601_9.6x7.4x4.1mm.bin",
      "byteLength": 61068
    }
  ],
  "extensionsUsed": [
    "KHR_materials_clearcoat",
    "KHR_materials_ior",
    "KHR_materials_specular",
    "KHR_texture_basisu"
  ],
  "extensionsRequired": [
    "KHR_texture_basisu"
  ],
  "images": [
    {
      "uri": "../shared_textures/metal_pins_normal512.ktx2",
      "mimeType": "image/ktx2",
      "name": "metal_pins_normal512"
    },
    {
      "uri": "../shared_textures/metal_pins_color512.ktx2",
      "mimeType": "image/ktx2",
      "name": "metal_pins_color512"
    },
    {
      "uri": "../shared_textures/plastic_chip_normal512.ktx2",
      "mimeType": "image/ktx2",
      "name": "plastic_chip_normal512"
    }
  ],
  "materials": [
    {
      "extensions": {
        "KHR_materials_ior": {
          "ior": 1.4500000476837158
        },
        "KHR_materials_specular": {
          "specularFactor": 0
        }
      },
      "pbrMetallicRoughness": {
        "baseColorFactor": [
          1.0,
          1.0,
          1.0,
          1.0
        ],
        "metallicFactor": 0.7818182110786438,
        "roughnessFactor": 0.28863638639450073,
        "baseColorTexture": {
          "index": 0,
          "texCoord": 0
        }
      },
      "normalTexture": {
        "index": 1,
        "scale": 1.0
      },
      "emissiveFactor": [
        0.0,
        0.0,
        0.0
      ],
      "alphaMode": "OPAQUE",
      "doubleSided": true,
      "name": "gltf_metal_pins"
    },
    {
      "pbrMetallicRoughness": {
        "baseColorFactor": [
          0.009133999235928059,
          0.009134066291153431,
          0.009134061634540558,
          1.0
        ],
        "metallicFactor": 0.13699999451637268,
        "roughnessFactor": 0.37063413858413696
      },
      "normalTexture": {
        "index": 2,
        "scale": 1.0
      },
      "emissiveFactor": [
        0.0,
        0.0,
        0.0
      ],
      "alphaMode": "OPAQUE",
      "doubleSided": true,
      "name": "gltf_plastic_chip"
    },
    {
      "extensions": {
        "KHR_materials_clearcoat": {
          "clearcoatFactor": 0.14230769872665405,
          "clearcoatRoughnessFactor": 0
        }
      },
      "extras": {
        "blenderkit": {
          "name": "Matte plastic",
          "description": "very simple roughness variated plastic",
          "tags": "plastic, touched, green",
          "is_generating_thumbnail": 0,
          "thumbnail": "//matte plastic _0000.png",
          "shaders": "principled, ",
          "upload_state": "uploaded metadata",
          "has_thumbnail": 1,
          "asset_base_id": "cb48a41d-6fc7-47b3-bd08-45275cfed0c2",
          "id": "62a6d8a0-393f-4bdd-9d1d-896fea3ca0be",
          "uploading": 0,
          "rating_quality": -1,
          "thumbnail_scale": 0.20000000298023224,
          "name_changed": 0,
          "name_old": "Matte plastic",
          "category": 24,
          "texture_resolution_max": 0,
          "texture_resolution_min": 0
        },
        "asset_data": {
          "thumbnail": "thumbnail_0f84bee4-0378-4bcd-8e2e-16a60a09613d.png.1024x1024_q85_crop-%2C.png",
          "thumbnail_small": "thumbnail_0f84bee4-0378-4bcd-8e2e-16a60a09613d.png.96x96_q85_crop-%2C.png",
          "download_url": "https://www.blenderkit.com/api/v1/downloads/5399/",
          "tooltip": "Matte plastic\n\nvery simple roughness variated plastic\n\nfiles size: 852KB\ntexture size: 1.0m\nlicense: royalty_free\n",
          "downloaded": 0,
          "texture_size_meters": 1,
          "thumbnail_%i": "thumbnail_0f84bee4-0378-4bcd-8e2e-16a60a09613d.png.1024x1024_q85_crop-%2C.png",
          "url": "https://public.blenderkit.com/public-assets/assets/62a6d8a0393f4bdd9d1d896fea3ca0be/files/blend_225be883-9a22-46c5-9b57-8786c2a32418.blend",
          "id": "62a6d8a0-393f-4bdd-9d1d-896fea3ca0be",
          "assetBaseId": "cb48a41d-6fc7-47b3-bd08-45275cfed0c2",
          "versionNumber": 1,
          "author": {
            "id": "2",
            "firstName": "Vil\u00e9m",
            "lastName": "Duha",
            "gravatarHash": "7d60f17cdce549f0f0159215cd006ae9",
            "avatar128": "/avatar-redirect/95cf3d26-35ba-41b0-84f1-55ee67cbeae4/128/",
            "aboutMe": "On this account we store assets created by BlenderKit team.",
            "aboutMeUrl": "https://www.blenderkit.com/about"
          },
          "name": "Matte plastic",
          "displayName": "Matte plastic",
          "description": "very simple roughness variated plastic",
          "assetType": "material",
          "category": "plastic",
          "adult": 0,
          "isFree": 1,
          "tags": [
            "plastic",
            "touched",
            "green",
            "non-manifold",
            "non-manifold",
            "non-manifold"
          ],
          "license": "royalty_free",
          "parameters": [
            {
              "parameterType": "textureSizeMeters",
              "value": 1
            },
            {
              "parameterType": "material_style",
              "value": "realistic"
            },
            {
              "parameterType": "purePbr",
              "value": 0
            },
            {
              "parameterType": "engine",
              "value": "cycles"
            },
            {
              "parameterType": "shaders",
              "value": [
                "principled"
              ]
            },
            {
              "parameterType": "animated",
              "value": 0
            },
            {
              "parameterType": "uv",
              "value": 0
            }
          ],
          "sourceAppName": "blender",
          "sourceAppVersion": "2.80.74",
          "addonVersion": "1.0.24",
          "created": "2019-06-11T10:47:32.996203+02:00",
          "verificationStatus": "validated",
          "isPrivate": 0,
          "files": [
            {
              "fileType": "blend",
              "downloadUrl": "https://www.blenderkit.com/api/v1/downloads/5399/"
            },
            {
              "fileType": "thumbnail",
              "downloadUrl": "https://www.blenderkit.com/api/v1/downloads/5398/",
              "fileThumbnail": "https://public.blenderkit.com/thumbnails/assets/62a6d8a0393f4bdd9d1d896fea3ca0be/files/thumbnail_0f84bee4-0378-4bcd-8e2e-16a60a09613d.png.96x96_q85_crop-%2C.png",
              "fileThumbnailLarge": "https://public.blenderkit.com/thumbnails/assets/62a6d8a0393f4bdd9d1d896fea3ca0be/files/thumbnail_0f84bee4-0378-4bcd-8e2e-16a60a09613d.png.1024x1024_q85_crop-%2C.png"
            }
          ],
          "filesSize": 58196,
          "thumbnailSmallUrl": "https://public.blenderkit.com/thumbnails/assets/62a6d8a0393f4bdd9d1d896fea3ca0be/files/thumbnail_0f84bee4-0378-4bcd-8e2e-16a60a09613d.png.256x256_q85_crop-%2C.png",
          "thumbnailMiddleUrl": "https://public.blenderkit.com/thumbnails/assets/62a6d8a0393f4bdd9d1d896fea3ca0be/files/thumbnail_0f84bee4-0378-4bcd-8e2e-16a60a09613d.png.512x512_q85_crop-%2C.png",
          "thumbnailLargeUrl": "https://public.blenderkit.com/thumbnails/assets/62a6d8a0393f4bdd9d1d896fea3ca0be/files/thumbnail_0f84bee4-0378-4bcd-8e2e-16a60a09613d.png.1024x1024_q85_crop-%2C.png",
          "thumbnailXlargeUrl": "https://public.blenderkit.com/thumbnails/assets/62a6d8a0393f4bdd9d1d896fea3ca0be/files/thumbnail_0f84bee4-0378-4bcd-8e2e-16a60a09613d.png.1024x1024_q85_crop-%2C.png",
          "thumbnailSmallUrlNonsquared": "https://public.blenderkit.com/thumbnails/assets/62a6d8a0393f4bdd9d1d896fea3ca0be/files/thumbnail_0f84bee4-0378-4bcd-8e2e-16a60a09613d.png.256x256_q85.png",
          "thumbnailMiddleUrlNonsquared": "https://public.blenderkit.com/thumbnails/assets/62a6d8a0393f4bdd9d1d896fea3ca0be/files/thumbnail_0f84bee4-0378-4bcd-8e2e-16a60a09613d.png.512x512_q85.png",
          "thumbnailLargeUrlNonsquared": "https://public.blenderkit.com/thumbnails/assets/62a6d8a0393f4bdd9d1d896fea3ca0be/files/thumbnail_0f84bee4-0378-4bcd-8e2e-16a60a09613d.png.1024x1024_q85.png",
          "thumbnailXlargeUrlNonsquared": "https://public.blenderkit.com/thumbnails/assets/62a6d8a0393f4bdd9d1d896fea3ca0be/files/thumbnail_0f84bee4-0378-4bcd-8e2e-16a60a09613d.png.2048x2048_q85.png",
          "showMarketingLabels": 1,
          "score": 192,
          "ratingsMedian": {
            "quality": 8.5,
            "workingHours": 2.4
          },
          "ratingsAverage": {
            "quality": 8,
            "workingHours": 2.4
          },
          "ratingsCount": {
            "competition-2022-votes": 0,
            "complexity": 0,
            "virtualPriceAdmin": 0,
            "virtualPrice": 0,
            "quality": 8,
            "workingHours": 8,
            "complexityAdmin": 0
          },
          "ratingsSum": {
            "quality": 64,
            "workingHours": 17.7
          },
          "canDownload": 1,
          "canDownloadError": 1,
          "file_name": "blend_225be883-9a22-46c5-9b57-8786c2a32418.blend"
        }
      },
      "pbrMetallicRoughness": {
        "baseColorFactor": [
          0.00345463864505291,
          0.029073704034090042,
          0.004590462893247604,
          1.0
        ],
        "metallicFactor": 0.0,
        "roughnessFactor": 0.6819999814033508
      },
      "emissiveFactor": [
        0.0,
        0.0,
        0.0
      ],
      "alphaMode": "OPAQUE",
      "doubleSided": true,
      "name": "gltf_composite_darkgreen_1"
    }
  ],
  "meshes": [
    {
      "primitives": [
        {
          "attributes": {
            "POSITION": 0,
            "NORMAL": 1,
            "TEXCOORD_0": 2,
            "TEXCOORD_1": 3
          },
          "indices": 4,
          "mode": 4,
          "material": 0
        },
        {
          "attributes": {
            "POSITION": 7,
            "NORMAL": 8,
            "TEXCOORD_0": 9,
            "TEXCOORD_1": 10
          },
          "indices": 5,
          "mode": 4,
          "material": 1
        },
        {
          "attributes": {
            "POSITION": 11,
            "NORMAL": 12,
            "TEXCOORD_0": 13,
            "TEXCOORD_1": 14
          },
          "indices": 6,
          "mode": 4,
          "material": 2
        }
      ],
      "name": "SHAPE_9_IndexedFaceSet.001"
    }
  ],
  "nodes": [
    {
      "extras": {
        "PRIO": 0,
        "model_diagonal": 13.130159360494611
      },
      "mesh": 0,
      "name": "SHAPE_9_IndexedFaceSet"
    }
  ],
  "samplers": [
    {
      "magFilter": 9729,
      "minFilter": 9987,
      "wrapS": 10497,
      "wrapT": 10497
    }
  ],
  "scene": 0,
  "scenes": [
    {
      "name": "Scene",
      "nodes": [
        0
      ]
    }
  ],
  "textures": [
    {
      "extensions": {
        "KHR_texture_basisu": {
          "source": 1
        }
      },
      "sampler": 0
    },
    {
      "extensions": {
        "KHR_texture_basisu": {
          "source": 0
        }
      },
      "sampler": 0
    },
    {
      "extensions": {
        "KHR_texture_basisu": {
          "source": 2
        }
      },
      "sampler": 0
    }
  ]
}