<?xml version="1.0" standalone="no"?>
 <!DOCTYPE svg PUBLIC "-//W3C//DTD SVG 1.1//EN" 
 "http://www.w3.org/Graphics/SVG/1.1/DTD/svg11.dtd"> 
<svg
  xmlns:svg="http://www.w3.org/2000/svg"
  xmlns="http://www.w3.org/2000/svg"
  xmlns:xlink="http://www.w3.org/1999/xlink"
  version="1.1"
  width="28.0416mm" height="28.9306mm" viewBox="0.0000 0.0000 28.0416 28.9306">
<title>SVG Image created as outline.svg date 2025/04/04 10:06:12 </title>
  <desc>Image generated by PCBNEW </desc>
<g style="fill:#000000; fill-opacity:1.0000;stroke:#000000; stroke-opacity:1.0000;
stroke-linecap:round; stroke-linejoin:round;"
 transform="translate(0 0) scale(1 1)">
</g>
<g style="fill:none; 
stroke:#000000; stroke-width:0.0200; stroke-opacity:1; 
stroke-linecap:round; stroke-linejoin:round;">
<path d="M1.0250 3.6150
L2.0250 3.6150
" />
<path d="M1.0250 3.8350
L1.0250 3.6150
" />
<path d="M1.0250 3.8350
L2.0250 3.8350
" />
<path d="M1.0250 4.1150
L2.0250 4.1150
" />
<path d="M1.0250 4.3350
L1.0250 4.1150
" />
<path d="M1.0250 4.3350
L2.0250 4.3350
" />
<path d="M1.0250 4.6150
L2.0250 4.6150
" />
<path d="M1.0250 4.8350
L1.0250 4.6150
" />
<path d="M1.0250 4.8350
L2.0250 4.8350
" />
<path d="M1.0250 5.1150
L2.0250 5.1150
" />
<path d="M1.0250 5.3350
L1.0250 5.1150
" />
<path d="M1.0250 5.3350
L2.0250 5.3350
" />
<path d="M1.0250 5.6150
L2.0250 5.6150
" />
<path d="M1.0250 5.8350
L1.0250 5.6150
" />
<path d="M1.0250 5.8350
L2.0250 5.8350
" />
<path d="M1.0250 6.1150
L2.0250 6.1150
" />
<path d="M1.0250 6.3350
L1.0250 6.1150
" />
<path d="M1.0250 6.3350
L2.0250 6.3350
" />
<path d="M1.0250 6.6150
L2.0250 6.6150
" />
<path d="M1.0250 6.8350
L1.0250 6.6150
" />
<path d="M1.0250 6.8350
L2.0250 6.8350
" />
<path d="M1.0250 7.1150
L2.0250 7.1150
" />
<path d="M1.0250 7.3350
L1.0250 7.1150
" />
<path d="M1.0250 7.3350
L2.0250 7.3350
" />
<path d="M1.0250 7.6150
L2.0250 7.6150
" />
<path d="M1.0250 7.8350
L1.0250 7.6150
" />
<path d="M1.0250 7.8350
L2.0250 7.8350
" />
<path d="M1.0250 8.1150
L2.0250 8.1150
" />
<path d="M1.0250 8.3350
L1.0250 8.1150
" />
<path d="M1.0250 8.3350
L2.0250 8.3350
" />
<path d="M1.0250 8.6150
L2.0250 8.6150
" />
<path d="M1.0250 8.8350
L1.0250 8.6150
" />
<path d="M1.0250 8.8350
L2.0250 8.8350
" />
<path d="M1.0250 9.1150
L2.0250 9.1150
" />
<path d="M1.0250 9.3350
L1.0250 9.1150
" />
<path d="M1.0250 9.3350
L2.0250 9.3350
" />
<path d="M1.0250 9.6150
L2.0250 9.6150
" />
<path d="M1.0250 9.8350
L1.0250 9.6150
" />
<path d="M1.0250 9.8350
L2.0250 9.8350
" />
<path d="M1.0250 10.1150
L2.0250 10.1150
" />
<path d="M1.0250 10.3350
L1.0250 10.1150
" />
<path d="M1.0250 10.3350
L2.0250 10.3350
" />
<path d="M1.0250 10.6150
L2.0250 10.6150
" />
<path d="M1.0250 10.8350
L1.0250 10.6150
" />
<path d="M1.0250 10.8350
L2.0250 10.8350
" />
<path d="M1.0250 11.1150
L2.0250 11.1150
" />
<path d="M1.0250 11.3350
L1.0250 11.1150
" />
<path d="M1.0250 11.3350
L2.0250 11.3350
" />
<path d="M1.0250 11.6150
L2.0250 11.6150
" />
<path d="M1.0250 11.8350
L1.0250 11.6150
" />
<path d="M1.0250 11.8350
L2.0250 11.8350
" />
<path d="M1.0250 12.1150
L2.0250 12.1150
" />
<path d="M1.0250 12.3350
L1.0250 12.1150
" />
<path d="M1.0250 12.3350
L2.0250 12.3350
" />
<path d="M1.0250 12.6150
L2.0250 12.6150
" />
<path d="M1.0250 12.8350
L1.0250 12.6150
" />
<path d="M1.0250 12.8350
L2.0250 12.8350
" />
<path d="M1.0250 13.1150
L2.0250 13.1150
" />
<path d="M1.0250 13.3350
L1.0250 13.1150
" />
<path d="M1.0250 13.3350
L2.0250 13.3350
" />
<path d="M1.0250 13.6150
L2.0250 13.6150
" />
<path d="M1.0250 13.8350
L1.0250 13.6150
" />
<path d="M1.0250 13.8350
L2.0250 13.8350
" />
<path d="M1.0250 14.1150
L2.0250 14.1150
" />
<path d="M1.0250 14.3350
L1.0250 14.1150
" />
<path d="M1.0250 14.3350
L2.0250 14.3350
" />
<path d="M1.0250 14.6150
L2.0250 14.6150
" />
<path d="M1.0250 14.8350
L1.0250 14.6150
" />
<path d="M1.0250 14.8350
L2.0250 14.8350
" />
<path d="M1.0250 15.1150
L2.0250 15.1150
" />
<path d="M1.0250 15.3350
L1.0250 15.1150
" />
<path d="M1.0250 15.3350
L2.0250 15.3350
" />
<path d="M1.0250 15.6150
L2.0250 15.6150
" />
<path d="M1.0250 15.8350
L1.0250 15.6150
" />
<path d="M1.0250 15.8350
L2.0250 15.8350
" />
<path d="M1.0250 16.1150
L2.0250 16.1150
" />
<path d="M1.0250 16.3350
L1.0250 16.1150
" />
<path d="M1.0250 16.3350
L2.0250 16.3350
" />
<path d="M1.0250 16.6150
L2.0250 16.6150
" />
<path d="M1.0250 16.8350
L1.0250 16.6150
" />
<path d="M1.0250 16.8350
L2.0250 16.8350
" />
<path d="M1.0250 17.1150
L2.0250 17.1150
" />
<path d="M1.0250 17.3350
L1.0250 17.1150
" />
<path d="M1.0250 17.3350
L2.0250 17.3350
" />
<path d="M1.0250 17.6150
L2.0250 17.6150
" />
<path d="M1.0250 17.8350
L1.0250 17.6150
" />
<path d="M1.0250 17.8350
L2.0250 17.8350
" />
<path d="M1.0250 18.1150
L2.0250 18.1150
" />
<path d="M1.0250 18.3350
L1.0250 18.1150
" />
<path d="M1.0250 18.3350
L2.0250 18.3350
" />
<path d="M1.0250 18.6150
L2.0250 18.6150
" />
<path d="M1.0250 18.8350
L1.0250 18.6150
" />
<path d="M1.0250 18.8350
L2.0250 18.8350
" />
<path d="M1.0250 19.1150
L2.0250 19.1150
" />
<path d="M1.0250 19.3350
L1.0250 19.1150
" />
<path d="M1.0250 19.3350
L2.0250 19.3350
" />
<path d="M1.0250 19.6150
L2.0250 19.6150
" />
<path d="M1.0250 19.8350
L1.0250 19.6150
" />
<path d="M1.0250 19.8350
L2.0250 19.8350
" />
<path d="M1.0250 20.1150
L2.0250 20.1150
" />
<path d="M1.0250 20.3350
L1.0250 20.1150
" />
<path d="M1.0250 20.3350
L2.0250 20.3350
" />
<path d="M1.0250 20.6150
L2.0250 20.6150
" />
<path d="M1.0250 20.8350
L1.0250 20.6150
" />
<path d="M1.0250 20.8350
L2.0250 20.8350
" />
<path d="M1.0250 21.1150
L2.0250 21.1150
" />
<path d="M1.0250 21.3350
L1.0250 21.1150
" />
<path d="M1.0250 21.3350
L2.0250 21.3350
" />
<path d="M1.0250 21.6150
L2.0250 21.6150
" />
<path d="M1.0250 21.8350
L1.0250 21.6150
" />
<path d="M1.0250 21.8350
L2.0250 21.8350
" />
<path d="M1.0250 22.1150
L2.0250 22.1150
" />
<path d="M1.0250 22.3350
L1.0250 22.1150
" />
<path d="M1.0250 22.3350
L2.0250 22.3350
" />
<path d="M1.0250 22.6150
L2.0250 22.6150
" />
<path d="M1.0250 22.8350
L1.0250 22.6150
" />
<path d="M1.0250 22.8350
L2.0250 22.8350
" />
<path d="M1.0250 23.1150
L2.0250 23.1150
" />
<path d="M1.0250 23.3350
L1.0250 23.1150
" />
<path d="M1.0250 23.3350
L2.0250 23.3350
" />
<path d="M1.0250 23.6150
L2.0250 23.6150
" />
<path d="M1.0250 23.8350
L1.0250 23.6150
" />
<path d="M1.0250 23.8350
L2.0250 23.8350
" />
<path d="M1.0250 24.1150
L2.0250 24.1150
" />
<path d="M1.0250 24.3350
L1.0250 24.1150
" />
<path d="M1.0250 24.3350
L2.0250 24.3350
" />
<path d="M1.0250 24.6150
L2.0250 24.6150
" />
<path d="M1.0250 24.8350
L1.0250 24.6150
" />
<path d="M1.0250 24.8350
L2.0250 24.8350
" />
<path d="M1.0250 25.1150
L2.0250 25.1150
" />
<path d="M1.0250 25.3350
L1.0250 25.1150
" />
<path d="M1.0250 25.3350
L2.0250 25.3350
" />
<path d="M2.0250 2.4750
L2.2760 2.7260
" />
<path d="M2.0250 2.4750
L26.0250 2.4750
" />
<path d="M2.0250 26.4750
L2.0250 2.4750
" />
<path d="M2.0250 26.4750
L2.2760 26.2240
" />
<path d="M2.0250 26.4750
L26.0250 26.4750
" />
<path d="M2.2760 2.7260
L2.3790 2.8290
" />
<path d="M2.2760 2.7260
L25.7740 2.7260
" />
<path d="M2.2760 26.2240
L2.2760 2.7260
" />
<path d="M2.2760 26.2240
L2.3790 26.1210
" />
<path d="M2.2760 26.2240
L25.7740 26.2240
" />
<path d="M2.3790 2.8290
L25.6710 2.8290
" />
<path d="M2.3790 26.1210
L2.3790 2.8290
" />
<path d="M2.3790 26.1210
L25.6710 26.1210
" />
<path d="M3.1650 1.4750
L3.1650 2.4750
" />
<path d="M3.1650 1.4750
L3.3850 1.4750
" />
<path d="M3.1650 27.4750
L3.1650 26.4750
" />
<path d="M3.3850 1.4750
L3.3850 2.4750
" />
<path d="M3.3850 27.4750
L3.1650 27.4750
" />
<path d="M3.3850 27.4750
L3.3850 26.4750
" />
<path d="M3.6650 1.4750
L3.6650 2.4750
" />
<path d="M3.6650 1.4750
L3.8850 1.4750
" />
<path d="M3.6650 27.4750
L3.6650 26.4750
" />
<path d="M3.8850 1.4750
L3.8850 2.4750
" />
<path d="M3.8850 27.4750
L3.6650 27.4750
" />
<path d="M3.8850 27.4750
L3.8850 26.4750
" />
<path d="M4.1650 1.4750
L4.1650 2.4750
" />
<path d="M4.1650 1.4750
L4.3850 1.4750
" />
<path d="M4.1650 27.4750
L4.1650 26.4750
" />
<path d="M4.3850 1.4750
L4.3850 2.4750
" />
<path d="M4.3850 27.4750
L4.1650 27.4750
" />
<path d="M4.3850 27.4750
L4.3850 26.4750
" />
<path d="M4.6650 1.4750
L4.6650 2.4750
" />
<path d="M4.6650 1.4750
L4.8850 1.4750
" />
<path d="M4.6650 27.4750
L4.6650 26.4750
" />
<path d="M4.8850 1.4750
L4.8850 2.4750
" />
<path d="M4.8850 27.4750
L4.6650 27.4750
" />
<path d="M4.8850 27.4750
L4.8850 26.4750
" />
<path d="M5.1650 1.4750
L5.1650 2.4750
" />
<path d="M5.1650 1.4750
L5.3850 1.4750
" />
<path d="M5.1650 27.4750
L5.1650 26.4750
" />
<path d="M5.3850 1.4750
L5.3850 2.4750
" />
<path d="M5.3850 27.4750
L5.1650 27.4750
" />
<path d="M5.3850 27.4750
L5.3850 26.4750
" />
<path d="M5.6650 1.4750
L5.6650 2.4750
" />
<path d="M5.6650 1.4750
L5.8850 1.4750
" />
<path d="M5.6650 27.4750
L5.6650 26.4750
" />
<path d="M5.8850 1.4750
L5.8850 2.4750
" />
<path d="M5.8850 27.4750
L5.6650 27.4750
" />
<path d="M5.8850 27.4750
L5.8850 26.4750
" />
<path d="M6.1650 1.4750
L6.1650 2.4750
" />
<path d="M6.1650 1.4750
L6.3850 1.4750
" />
<path d="M6.1650 27.4750
L6.1650 26.4750
" />
<path d="M6.3850 1.4750
L6.3850 2.4750
" />
<path d="M6.3850 27.4750
L6.1650 27.4750
" />
<path d="M6.3850 27.4750
L6.3850 26.4750
" />
<path d="M6.6650 1.4750
L6.6650 2.4750
" />
<path d="M6.6650 1.4750
L6.8850 1.4750
" />
<path d="M6.6650 27.4750
L6.6650 26.4750
" />
<path d="M6.8850 1.4750
L6.8850 2.4750
" />
<path d="M6.8850 27.4750
L6.6650 27.4750
" />
<path d="M6.8850 27.4750
L6.8850 26.4750
" />
<path d="M7.1650 1.4750
L7.1650 2.4750
" />
<path d="M7.1650 1.4750
L7.3850 1.4750
" />
<path d="M7.1650 27.4750
L7.1650 26.4750
" />
<path d="M7.3850 1.4750
L7.3850 2.4750
" />
<path d="M7.3850 27.4750
L7.1650 27.4750
" />
<path d="M7.3850 27.4750
L7.3850 26.4750
" />
<path d="M7.6650 1.4750
L7.6650 2.4750
" />
<path d="M7.6650 1.4750
L7.8850 1.4750
" />
<path d="M7.6650 27.4750
L7.6650 26.4750
" />
<path d="M7.8850 1.4750
L7.8850 2.4750
" />
<path d="M7.8850 27.4750
L7.6650 27.4750
" />
<path d="M7.8850 27.4750
L7.8850 26.4750
" />
<path d="M8.1650 1.4750
L8.1650 2.4750
" />
<path d="M8.1650 1.4750
L8.3850 1.4750
" />
<path d="M8.1650 27.4750
L8.1650 26.4750
" />
<path d="M8.3850 1.4750
L8.3850 2.4750
" />
<path d="M8.3850 27.4750
L8.1650 27.4750
" />
<path d="M8.3850 27.4750
L8.3850 26.4750
" />
<path d="M8.6650 1.4750
L8.6650 2.4750
" />
<path d="M8.6650 1.4750
L8.8850 1.4750
" />
<path d="M8.6650 27.4750
L8.6650 26.4750
" />
<path d="M8.8850 1.4750
L8.8850 2.4750
" />
<path d="M8.8850 27.4750
L8.6650 27.4750
" />
<path d="M8.8850 27.4750
L8.8850 26.4750
" />
<path d="M9.1650 1.4750
L9.1650 2.4750
" />
<path d="M9.1650 1.4750
L9.3850 1.4750
" />
<path d="M9.1650 27.4750
L9.1650 26.4750
" />
<path d="M9.3850 1.4750
L9.3850 2.4750
" />
<path d="M9.3850 27.4750
L9.1650 27.4750
" />
<path d="M9.3850 27.4750
L9.3850 26.4750
" />
<path d="M9.6650 1.4750
L9.6650 2.4750
" />
<path d="M9.6650 1.4750
L9.8850 1.4750
" />
<path d="M9.6650 27.4750
L9.6650 26.4750
" />
<path d="M9.8850 1.4750
L9.8850 2.4750
" />
<path d="M9.8850 27.4750
L9.6650 27.4750
" />
<path d="M9.8850 27.4750
L9.8850 26.4750
" />
<path d="M10.1650 1.4750
L10.1650 2.4750
" />
<path d="M10.1650 1.4750
L10.3850 1.4750
" />
<path d="M10.1650 27.4750
L10.1650 26.4750
" />
<path d="M10.3850 1.4750
L10.3850 2.4750
" />
<path d="M10.3850 27.4750
L10.1650 27.4750
" />
<path d="M10.3850 27.4750
L10.3850 26.4750
" />
<path d="M10.6650 1.4750
L10.6650 2.4750
" />
<path d="M10.6650 1.4750
L10.8850 1.4750
" />
<path d="M10.6650 27.4750
L10.6650 26.4750
" />
<path d="M10.8850 1.4750
L10.8850 2.4750
" />
<path d="M10.8850 27.4750
L10.6650 27.4750
" />
<path d="M10.8850 27.4750
L10.8850 26.4750
" />
<path d="M11.1650 1.4750
L11.1650 2.4750
" />
<path d="M11.1650 1.4750
L11.3850 1.4750
" />
<path d="M11.1650 27.4750
L11.1650 26.4750
" />
<path d="M11.3850 1.4750
L11.3850 2.4750
" />
<path d="M11.3850 27.4750
L11.1650 27.4750
" />
<path d="M11.3850 27.4750
L11.3850 26.4750
" />
<path d="M11.6650 1.4750
L11.6650 2.4750
" />
<path d="M11.6650 1.4750
L11.8850 1.4750
" />
<path d="M11.6650 27.4750
L11.6650 26.4750
" />
<path d="M11.8850 1.4750
L11.8850 2.4750
" />
<path d="M11.8850 27.4750
L11.6650 27.4750
" />
<path d="M11.8850 27.4750
L11.8850 26.4750
" />
<path d="M12.1650 1.4750
L12.1650 2.4750
" />
<path d="M12.1650 1.4750
L12.3850 1.4750
" />
<path d="M12.1650 27.4750
L12.1650 26.4750
" />
<path d="M12.3850 1.4750
L12.3850 2.4750
" />
<path d="M12.3850 27.4750
L12.1650 27.4750
" />
<path d="M12.3850 27.4750
L12.3850 26.4750
" />
<path d="M12.6650 1.4750
L12.6650 2.4750
" />
<path d="M12.6650 1.4750
L12.8850 1.4750
" />
<path d="M12.6650 27.4750
L12.6650 26.4750
" />
<path d="M12.8850 1.4750
L12.8850 2.4750
" />
<path d="M12.8850 27.4750
L12.6650 27.4750
" />
<path d="M12.8850 27.4750
L12.8850 26.4750
" />
<path d="M13.1650 1.4750
L13.1650 2.4750
" />
<path d="M13.1650 1.4750
L13.3850 1.4750
" />
<path d="M13.1650 27.4750
L13.1650 26.4750
" />
<path d="M13.3850 1.4750
L13.3850 2.4750
" />
<path d="M13.3850 27.4750
L13.1650 27.4750
" />
<path d="M13.3850 27.4750
L13.3850 26.4750
" />
<path d="M13.6650 1.4750
L13.6650 2.4750
" />
<path d="M13.6650 1.4750
L13.8850 1.4750
" />
<path d="M13.6650 27.4750
L13.6650 26.4750
" />
<path d="M13.8850 1.4750
L13.8850 2.4750
" />
<path d="M13.8850 27.4750
L13.6650 27.4750
" />
<path d="M13.8850 27.4750
L13.8850 26.4750
" />
<path d="M14.1650 1.4750
L14.1650 2.4750
" />
<path d="M14.1650 1.4750
L14.3850 1.4750
" />
<path d="M14.1650 27.4750
L14.1650 26.4750
" />
<path d="M14.3850 1.4750
L14.3850 2.4750
" />
<path d="M14.3850 27.4750
L14.1650 27.4750
" />
<path d="M14.3850 27.4750
L14.3850 26.4750
" />
<path d="M14.6650 1.4750
L14.6650 2.4750
" />
<path d="M14.6650 1.4750
L14.8850 1.4750
" />
<path d="M14.6650 27.4750
L14.6650 26.4750
" />
<path d="M14.8850 1.4750
L14.8850 2.4750
" />
<path d="M14.8850 27.4750
L14.6650 27.4750
" />
<path d="M14.8850 27.4750
L14.8850 26.4750
" />
<path d="M15.1650 1.4750
L15.1650 2.4750
" />
<path d="M15.1650 1.4750
L15.3850 1.4750
" />
<path d="M15.1650 27.4750
L15.1650 26.4750
" />
<path d="M15.3850 1.4750
L15.3850 2.4750
" />
<path d="M15.3850 27.4750
L15.1650 27.4750
" />
<path d="M15.3850 27.4750
L15.3850 26.4750
" />
<path d="M15.6650 1.4750
L15.6650 2.4750
" />
<path d="M15.6650 1.4750
L15.8850 1.4750
" />
<path d="M15.6650 27.4750
L15.6650 26.4750
" />
<path d="M15.8850 1.4750
L15.8850 2.4750
" />
<path d="M15.8850 27.4750
L15.6650 27.4750
" />
<path d="M15.8850 27.4750
L15.8850 26.4750
" />
<path d="M16.1650 1.4750
L16.1650 2.4750
" />
<path d="M16.1650 1.4750
L16.3850 1.4750
" />
<path d="M16.1650 27.4750
L16.1650 26.4750
" />
<path d="M16.3850 1.4750
L16.3850 2.4750
" />
<path d="M16.3850 27.4750
L16.1650 27.4750
" />
<path d="M16.3850 27.4750
L16.3850 26.4750
" />
<path d="M16.6650 1.4750
L16.6650 2.4750
" />
<path d="M16.6650 1.4750
L16.8850 1.4750
" />
<path d="M16.6650 27.4750
L16.6650 26.4750
" />
<path d="M16.8850 1.4750
L16.8850 2.4750
" />
<path d="M16.8850 27.4750
L16.6650 27.4750
" />
<path d="M16.8850 27.4750
L16.8850 26.4750
" />
<path d="M17.1650 1.4750
L17.1650 2.4750
" />
<path d="M17.1650 1.4750
L17.3850 1.4750
" />
<path d="M17.1650 27.4750
L17.1650 26.4750
" />
<path d="M17.3850 1.4750
L17.3850 2.4750
" />
<path d="M17.3850 27.4750
L17.1650 27.4750
" />
<path d="M17.3850 27.4750
L17.3850 26.4750
" />
<path d="M17.6650 1.4750
L17.6650 2.4750
" />
<path d="M17.6650 1.4750
L17.8850 1.4750
" />
<path d="M17.6650 27.4750
L17.6650 26.4750
" />
<path d="M17.8850 1.4750
L17.8850 2.4750
" />
<path d="M17.8850 27.4750
L17.6650 27.4750
" />
<path d="M17.8850 27.4750
L17.8850 26.4750
" />
<path d="M18.1650 1.4750
L18.1650 2.4750
" />
<path d="M18.1650 1.4750
L18.3850 1.4750
" />
<path d="M18.1650 27.4750
L18.1650 26.4750
" />
<path d="M18.3850 1.4750
L18.3850 2.4750
" />
<path d="M18.3850 27.4750
L18.1650 27.4750
" />
<path d="M18.3850 27.4750
L18.3850 26.4750
" />
<path d="M18.6650 1.4750
L18.6650 2.4750
" />
<path d="M18.6650 1.4750
L18.8850 1.4750
" />
<path d="M18.6650 27.4750
L18.6650 26.4750
" />
<path d="M18.8850 1.4750
L18.8850 2.4750
" />
<path d="M18.8850 27.4750
L18.6650 27.4750
" />
<path d="M18.8850 27.4750
L18.8850 26.4750
" />
<path d="M19.1650 1.4750
L19.1650 2.4750
" />
<path d="M19.1650 1.4750
L19.3850 1.4750
" />
<path d="M19.1650 27.4750
L19.1650 26.4750
" />
<path d="M19.3850 1.4750
L19.3850 2.4750
" />
<path d="M19.3850 27.4750
L19.1650 27.4750
" />
<path d="M19.3850 27.4750
L19.3850 26.4750
" />
<path d="M19.6650 1.4750
L19.6650 2.4750
" />
<path d="M19.6650 1.4750
L19.8850 1.4750
" />
<path d="M19.6650 27.4750
L19.6650 26.4750
" />
<path d="M19.8850 1.4750
L19.8850 2.4750
" />
<path d="M19.8850 27.4750
L19.6650 27.4750
" />
<path d="M19.8850 27.4750
L19.8850 26.4750
" />
<path d="M20.1650 1.4750
L20.1650 2.4750
" />
<path d="M20.1650 1.4750
L20.3850 1.4750
" />
<path d="M20.1650 27.4750
L20.1650 26.4750
" />
<path d="M20.3850 1.4750
L20.3850 2.4750
" />
<path d="M20.3850 27.4750
L20.1650 27.4750
" />
<path d="M20.3850 27.4750
L20.3850 26.4750
" />
<path d="M20.6650 1.4750
L20.6650 2.4750
" />
<path d="M20.6650 1.4750
L20.8850 1.4750
" />
<path d="M20.6650 27.4750
L20.6650 26.4750
" />
<path d="M20.8850 1.4750
L20.8850 2.4750
" />
<path d="M20.8850 27.4750
L20.6650 27.4750
" />
<path d="M20.8850 27.4750
L20.8850 26.4750
" />
<path d="M21.1650 1.4750
L21.1650 2.4750
" />
<path d="M21.1650 1.4750
L21.3850 1.4750
" />
<path d="M21.1650 27.4750
L21.1650 26.4750
" />
<path d="M21.3850 1.4750
L21.3850 2.4750
" />
<path d="M21.3850 27.4750
L21.1650 27.4750
" />
<path d="M21.3850 27.4750
L21.3850 26.4750
" />
<path d="M21.6650 1.4750
L21.6650 2.4750
" />
<path d="M21.6650 1.4750
L21.8850 1.4750
" />
<path d="M21.6650 27.4750
L21.6650 26.4750
" />
<path d="M21.8850 1.4750
L21.8850 2.4750
" />
<path d="M21.8850 27.4750
L21.6650 27.4750
" />
<path d="M21.8850 27.4750
L21.8850 26.4750
" />
<path d="M22.1650 1.4750
L22.1650 2.4750
" />
<path d="M22.1650 1.4750
L22.3850 1.4750
" />
<path d="M22.1650 27.4750
L22.1650 26.4750
" />
<path d="M22.3850 1.4750
L22.3850 2.4750
" />
<path d="M22.3850 27.4750
L22.1650 27.4750
" />
<path d="M22.3850 27.4750
L22.3850 26.4750
" />
<path d="M22.6650 1.4750
L22.6650 2.4750
" />
<path d="M22.6650 1.4750
L22.8850 1.4750
" />
<path d="M22.6650 27.4750
L22.6650 26.4750
" />
<path d="M22.8850 1.4750
L22.8850 2.4750
" />
<path d="M22.8850 27.4750
L22.6650 27.4750
" />
<path d="M22.8850 27.4750
L22.8850 26.4750
" />
<path d="M23.1650 1.4750
L23.1650 2.4750
" />
<path d="M23.1650 1.4750
L23.3850 1.4750
" />
<path d="M23.1650 27.4750
L23.1650 26.4750
" />
<path d="M23.3850 1.4750
L23.3850 2.4750
" />
<path d="M23.3850 27.4750
L23.1650 27.4750
" />
<path d="M23.3850 27.4750
L23.3850 26.4750
" />
<path d="M23.6650 1.4750
L23.6650 2.4750
" />
<path d="M23.6650 1.4750
L23.8850 1.4750
" />
<path d="M23.6650 27.4750
L23.6650 26.4750
" />
<path d="M23.8850 1.4750
L23.8850 2.4750
" />
<path d="M23.8850 27.4750
L23.6650 27.4750
" />
<path d="M23.8850 27.4750
L23.8850 26.4750
" />
<path d="M24.1650 1.4750
L24.1650 2.4750
" />
<path d="M24.1650 1.4750
L24.3850 1.4750
" />
<path d="M24.1650 27.4750
L24.1650 26.4750
" />
<path d="M24.3850 1.4750
L24.3850 2.4750
" />
<path d="M24.3850 27.4750
L24.1650 27.4750
" />
<path d="M24.3850 27.4750
L24.3850 26.4750
" />
<path d="M24.6650 1.4750
L24.6650 2.4750
" />
<path d="M24.6650 1.4750
L24.8850 1.4750
" />
<path d="M24.6650 27.4750
L24.6650 26.4750
" />
<path d="M24.8850 1.4750
L24.8850 2.4750
" />
<path d="M24.8850 27.4750
L24.6650 27.4750
" />
<path d="M24.8850 27.4750
L24.8850 26.4750
" />
<path d="M25.6710 26.1210
L25.6710 2.8290
" />
<path d="M25.6710 26.1210
L25.7740 26.2240
" />
<path d="M25.7740 2.7260
L25.6710 2.8290
" />
<path d="M25.7740 26.2240
L25.7740 2.7260
" />
<path d="M26.0250 2.4750
L25.7740 2.7260
" />
<path d="M26.0250 26.4750
L26.0250 2.4750
" />
<path d="M27.0250 3.6150
L26.0250 3.6150
" />
<path d="M27.0250 3.6150
L27.0250 3.8350
" />
<path d="M27.0250 3.8350
L26.0250 3.8350
" />
<path d="M27.0250 4.1150
L26.0250 4.1150
" />
<path d="M27.0250 4.1150
L27.0250 4.3350
" />
<path d="M27.0250 4.3350
L26.0250 4.3350
" />
<path d="M27.0250 4.6150
L26.0250 4.6150
" />
<path d="M27.0250 4.6150
L27.0250 4.8350
" />
<path d="M27.0250 4.8350
L26.0250 4.8350
" />
<path d="M27.0250 5.1150
L26.0250 5.1150
" />
<path d="M27.0250 5.1150
L27.0250 5.3350
" />
<path d="M27.0250 5.3350
L26.0250 5.3350
" />
<path d="M27.0250 5.6150
L26.0250 5.6150
" />
<path d="M27.0250 5.6150
L27.0250 5.8350
" />
<path d="M27.0250 5.8350
L26.0250 5.8350
" />
<path d="M27.0250 6.1150
L26.0250 6.1150
" />
<path d="M27.0250 6.1150
L27.0250 6.3350
" />
<path d="M27.0250 6.3350
L26.0250 6.3350
" />
<path d="M27.0250 6.6150
L26.0250 6.6150
" />
<path d="M27.0250 6.6150
L27.0250 6.8350
" />
<path d="M27.0250 6.8350
L26.0250 6.8350
" />
<path d="M27.0250 7.1150
L26.0250 7.1150
" />
<path d="M27.0250 7.1150
L27.0250 7.3350
" />
<path d="M27.0250 7.3350
L26.0250 7.3350
" />
<path d="M27.0250 7.6150
L26.0250 7.6150
" />
<path d="M27.0250 7.6150
L27.0250 7.8350
" />
<path d="M27.0250 7.8350
L26.0250 7.8350
" />
<path d="M27.0250 8.1150
L26.0250 8.1150
" />
<path d="M27.0250 8.1150
L27.0250 8.3350
" />
<path d="M27.0250 8.3350
L26.0250 8.3350
" />
<path d="M27.0250 8.6150
L26.0250 8.6150
" />
<path d="M27.0250 8.6150
L27.0250 8.8350
" />
<path d="M27.0250 8.8350
L26.0250 8.8350
" />
<path d="M27.0250 9.1150
L26.0250 9.1150
" />
<path d="M27.0250 9.1150
L27.0250 9.3350
" />
<path d="M27.0250 9.3350
L26.0250 9.3350
" />
<path d="M27.0250 9.6150
L26.0250 9.6150
" />
<path d="M27.0250 9.6150
L27.0250 9.8350
" />
<path d="M27.0250 9.8350
L26.0250 9.8350
" />
<path d="M27.0250 10.1150
L26.0250 10.1150
" />
<path d="M27.0250 10.1150
L27.0250 10.3350
" />
<path d="M27.0250 10.3350
L26.0250 10.3350
" />
<path d="M27.0250 10.6150
L26.0250 10.6150
" />
<path d="M27.0250 10.6150
L27.0250 10.8350
" />
<path d="M27.0250 10.8350
L26.0250 10.8350
" />
<path d="M27.0250 11.1150
L26.0250 11.1150
" />
<path d="M27.0250 11.1150
L27.0250 11.3350
" />
<path d="M27.0250 11.3350
L26.0250 11.3350
" />
<path d="M27.0250 11.6150
L26.0250 11.6150
" />
<path d="M27.0250 11.6150
L27.0250 11.8350
" />
<path d="M27.0250 11.8350
L26.0250 11.8350
" />
<path d="M27.0250 12.1150
L26.0250 12.1150
" />
<path d="M27.0250 12.1150
L27.0250 12.3350
" />
<path d="M27.0250 12.3350
L26.0250 12.3350
" />
<path d="M27.0250 12.6150
L26.0250 12.6150
" />
<path d="M27.0250 12.6150
L27.0250 12.8350
" />
<path d="M27.0250 12.8350
L26.0250 12.8350
" />
<path d="M27.0250 13.1150
L26.0250 13.1150
" />
<path d="M27.0250 13.1150
L27.0250 13.3350
" />
<path d="M27.0250 13.3350
L26.0250 13.3350
" />
<path d="M27.0250 13.6150
L26.0250 13.6150
" />
<path d="M27.0250 13.6150
L27.0250 13.8350
" />
<path d="M27.0250 13.8350
L26.0250 13.8350
" />
<path d="M27.0250 14.1150
L26.0250 14.1150
" />
<path d="M27.0250 14.1150
L27.0250 14.3350
" />
<path d="M27.0250 14.3350
L26.0250 14.3350
" />
<path d="M27.0250 14.6150
L26.0250 14.6150
" />
<path d="M27.0250 14.6150
L27.0250 14.8350
" />
<path d="M27.0250 14.8350
L26.0250 14.8350
" />
<path d="M27.0250 15.1150
L26.0250 15.1150
" />
<path d="M27.0250 15.1150
L27.0250 15.3350
" />
<path d="M27.0250 15.3350
L26.0250 15.3350
" />
<path d="M27.0250 15.6150
L26.0250 15.6150
" />
<path d="M27.0250 15.6150
L27.0250 15.8350
" />
<path d="M27.0250 15.8350
L26.0250 15.8350
" />
<path d="M27.0250 16.1150
L26.0250 16.1150
" />
<path d="M27.0250 16.1150
L27.0250 16.3350
" />
<path d="M27.0250 16.3350
L26.0250 16.3350
" />
<path d="M27.0250 16.6150
L26.0250 16.6150
" />
<path d="M27.0250 16.6150
L27.0250 16.8350
" />
<path d="M27.0250 16.8350
L26.0250 16.8350
" />
<path d="M27.0250 17.1150
L26.0250 17.1150
" />
<path d="M27.0250 17.1150
L27.0250 17.3350
" />
<path d="M27.0250 17.3350
L26.0250 17.3350
" />
<path d="M27.0250 17.6150
L26.0250 17.6150
" />
<path d="M27.0250 17.6150
L27.0250 17.8350
" />
<path d="M27.0250 17.8350
L26.0250 17.8350
" />
<path d="M27.0250 18.1150
L26.0250 18.1150
" />
<path d="M27.0250 18.1150
L27.0250 18.3350
" />
<path d="M27.0250 18.3350
L26.0250 18.3350
" />
<path d="M27.0250 18.6150
L26.0250 18.6150
" />
<path d="M27.0250 18.6150
L27.0250 18.8350
" />
<path d="M27.0250 18.8350
L26.0250 18.8350
" />
<path d="M27.0250 19.1150
L26.0250 19.1150
" />
<path d="M27.0250 19.1150
L27.0250 19.3350
" />
<path d="M27.0250 19.3350
L26.0250 19.3350
" />
<path d="M27.0250 19.6150
L26.0250 19.6150
" />
<path d="M27.0250 19.6150
L27.0250 19.8350
" />
<path d="M27.0250 19.8350
L26.0250 19.8350
" />
<path d="M27.0250 20.1150
L26.0250 20.1150
" />
<path d="M27.0250 20.1150
L27.0250 20.3350
" />
<path d="M27.0250 20.3350
L26.0250 20.3350
" />
<path d="M27.0250 20.6150
L26.0250 20.6150
" />
<path d="M27.0250 20.6150
L27.0250 20.8350
" />
<path d="M27.0250 20.8350
L26.0250 20.8350
" />
<path d="M27.0250 21.1150
L26.0250 21.1150
" />
<path d="M27.0250 21.1150
L27.0250 21.3350
" />
<path d="M27.0250 21.3350
L26.0250 21.3350
" />
<path d="M27.0250 21.6150
L26.0250 21.6150
" />
<path d="M27.0250 21.6150
L27.0250 21.8350
" />
<path d="M27.0250 21.8350
L26.0250 21.8350
" />
<path d="M27.0250 22.1150
L26.0250 22.1150
" />
<path d="M27.0250 22.1150
L27.0250 22.3350
" />
<path d="M27.0250 22.3350
L26.0250 22.3350
" />
<path d="M27.0250 22.6150
L26.0250 22.6150
" />
<path d="M27.0250 22.6150
L27.0250 22.8350
" />
<path d="M27.0250 22.8350
L26.0250 22.8350
" />
<path d="M27.0250 23.1150
L26.0250 23.1150
" />
<path d="M27.0250 23.1150
L27.0250 23.3350
" />
<path d="M27.0250 23.3350
L26.0250 23.3350
" />
<path d="M27.0250 23.6150
L26.0250 23.6150
" />
<path d="M27.0250 23.6150
L27.0250 23.8350
" />
<path d="M27.0250 23.8350
L26.0250 23.8350
" />
<path d="M27.0250 24.1150
L26.0250 24.1150
" />
<path d="M27.0250 24.1150
L27.0250 24.3350
" />
<path d="M27.0250 24.3350
L26.0250 24.3350
" />
<path d="M27.0250 24.6150
L26.0250 24.6150
" />
<path d="M27.0250 24.6150
L27.0250 24.8350
" />
<path d="M27.0250 24.8350
L26.0250 24.8350
" />
<path d="M27.0250 25.1150
L26.0250 25.1150
" />
<path d="M27.0250 25.1150
L27.0250 25.3350
" />
<path d="M27.0250 25.3350
L26.0250 25.3350
" />
<circle cx="5.4140" cy="5.8630" r="1.5000" /> 
</g> 
</svg>
