<?xml version="1.0" standalone="no"?>
 <!DOCTYPE svg PUBLIC "-//W3C//DTD SVG 1.1//EN" 
 "http://www.w3.org/Graphics/SVG/1.1/DTD/svg11.dtd"> 
<svg
  xmlns:svg="http://www.w3.org/2000/svg"
  xmlns="http://www.w3.org/2000/svg"
  xmlns:xlink="http://www.w3.org/1999/xlink"
  version="1.1"
  width="2.5400mm" height="3.0480mm" viewBox="0.0000 0.0000 2.5400 3.0480">
<title>SVG Image created as outline.svg date 2025/04/04 10:06:37 </title>
  <desc>Image generated by PCBNEW </desc>
<g style="fill:#000000; fill-opacity:1.0000;stroke:#000000; stroke-opacity:1.0000;
stroke-linecap:round; stroke-linejoin:round;"
 transform="translate(0 0) scale(1 1)">
</g>
<g style="fill:none; 
stroke:#000000; stroke-width:0.0200; stroke-opacity:1; 
stroke-linecap:round; stroke-linejoin:round;">
<path d="M0.5250 0.5250
L0.5250 2.5230
" />
<path d="M0.5250 2.5230
L2.0230 2.5230
" />
<path d="M0.5870 0.7110
L0.5870 0.7140
" />
<path d="M0.5870 0.7110
L0.5870 0.7140
" />
<path d="M0.5870 0.7140
L0.5870 0.7170
" />
<path d="M0.5870 0.7140
L0.5870 0.7170
" />
<path d="M0.5870 0.7170
L0.5870 0.7200
" />
<path d="M0.5870 0.7170
L0.5870 0.7200
" />
<path d="M0.5870 0.7200
L0.5870 0.7230
" />
<path d="M0.5870 0.7200
L0.5870 0.7230
" />
<path d="M0.5870 0.7230
L0.5870 0.7300
" />
<path d="M0.5870 0.7230
L0.5870 0.7300
" />
<path d="M0.5870 0.7300
L0.5870 0.7360
" />
<path d="M0.5870 0.7300
L0.5870 0.7360
" />
<path d="M0.5870 0.7360
L0.5890 0.7420
" />
<path d="M0.5870 0.7360
L0.5890 0.7420
" />
<path d="M0.5880 0.7080
L0.5870 0.7110
" />
<path d="M0.5880 0.7080
L0.5870 0.7110
" />
<path d="M0.5890 0.7010
L0.5890 0.7040
" />
<path d="M0.5890 0.7010
L0.5890 0.7040
" />
<path d="M0.5890 0.7040
L0.5880 0.7080
" />
<path d="M0.5890 0.7040
L0.5880 0.7080
" />
<path d="M0.5890 0.7420
L0.5900 0.7480
" />
<path d="M0.5890 0.7420
L0.5900 0.7480
" />
<path d="M0.5900 0.6980
L0.5890 0.7010
" />
<path d="M0.5900 0.6980
L0.5890 0.7010
" />
<path d="M0.5900 0.7480
L0.5920 0.7540
" />
<path d="M0.5900 0.7480
L0.5920 0.7540
" />
<path d="M0.5910 0.6950
L0.5900 0.6980
" />
<path d="M0.5910 0.6950
L0.5900 0.6980
" />
<path d="M0.5920 0.6920
L0.5910 0.6950
" />
<path d="M0.5920 0.6920
L0.5910 0.6950
" />
<path d="M0.5920 0.7540
L0.5940 0.7610
" />
<path d="M0.5920 0.7540
L0.5940 0.7610
" />
<path d="M0.5930 0.6900
L0.5920 0.6920
" />
<path d="M0.5930 0.6900
L0.5920 0.6920
" />
<path d="M0.5940 0.6880
L0.5930 0.6900
" />
<path d="M0.5940 0.6880
L0.5930 0.6900
" />
<path d="M0.5940 0.7610
L0.5970 0.7670
" />
<path d="M0.5940 0.7610
L0.5970 0.7670
" />
<path d="M0.5950 0.6850
L0.5940 0.6880
" />
<path d="M0.5950 0.6850
L0.5940 0.6880
" />
<path d="M0.5970 0.6820
L0.5950 0.6850
" />
<path d="M0.5970 0.6820
L0.5950 0.6850
" />
<path d="M0.5970 0.7670
L0.5990 0.7720
" />
<path d="M0.5970 0.7670
L0.5990 0.7720
" />
<path d="M0.5980 0.6790
L0.5970 0.6820
" />
<path d="M0.5980 0.6790
L0.5970 0.6820
" />
<path d="M0.5990 0.6770
L0.5980 0.6790
" />
<path d="M0.5990 0.6770
L0.5980 0.6790
" />
<path d="M0.5990 0.7720
L0.6030 0.7770
" />
<path d="M0.5990 0.7720
L0.6030 0.7770
" />
<path d="M0.6010 0.6740
L0.5990 0.6770
" />
<path d="M0.6010 0.6740
L0.5990 0.6770
" />
<path d="M0.6030 0.6710
L0.6010 0.6740
" />
<path d="M0.6030 0.6710
L0.6010 0.6740
" />
<path d="M0.6030 0.7770
L0.6060 0.7820
" />
<path d="M0.6030 0.7770
L0.6060 0.7820
" />
<path d="M0.6040 0.6690
L0.6030 0.6710
" />
<path d="M0.6040 0.6690
L0.6030 0.6710
" />
<path d="M0.6060 0.6660
L0.6040 0.6690
" />
<path d="M0.6060 0.6660
L0.6040 0.6690
" />
<path d="M0.6060 0.7820
L0.6100 0.7870
" />
<path d="M0.6060 0.7820
L0.6100 0.7870
" />
<path d="M0.6080 0.6640
L0.6060 0.6660
" />
<path d="M0.6080 0.6640
L0.6060 0.6660
" />
<path d="M0.6100 0.6610
L0.6080 0.6640
" />
<path d="M0.6100 0.6610
L0.6080 0.6640
" />
<path d="M0.6100 0.7870
L0.6140 0.7920
" />
<path d="M0.6100 0.7870
L0.6140 0.7920
" />
<path d="M0.6120 0.6590
L0.6100 0.6610
" />
<path d="M0.6120 0.6590
L0.6100 0.6610
" />
<path d="M0.6140 0.6570
L0.6120 0.6590
" />
<path d="M0.6140 0.6570
L0.6120 0.6590
" />
<path d="M0.6140 0.7920
L0.6190 0.7960
" />
<path d="M0.6140 0.7920
L0.6190 0.7960
" />
<path d="M0.6170 0.6550
L0.6140 0.6570
" />
<path d="M0.6170 0.6550
L0.6140 0.6570
" />
<path d="M0.6190 0.6530
L0.6170 0.6550
" />
<path d="M0.6190 0.6530
L0.6170 0.6550
" />
<path d="M0.6190 0.7960
L0.6240 0.8000
" />
<path d="M0.6190 0.7960
L0.6240 0.8000
" />
<path d="M0.6210 0.6510
L0.6190 0.6530
" />
<path d="M0.6210 0.6510
L0.6190 0.6530
" />
<path d="M0.6240 0.6490
L0.6210 0.6510
" />
<path d="M0.6240 0.6490
L0.6210 0.6510
" />
<path d="M0.6240 0.8000
L0.6290 0.8040
" />
<path d="M0.6240 0.8000
L0.6290 0.8040
" />
<path d="M0.6260 0.6470
L0.6240 0.6490
" />
<path d="M0.6260 0.6470
L0.6240 0.6490
" />
<path d="M0.6290 0.6450
L0.6260 0.6470
" />
<path d="M0.6290 0.6450
L0.6260 0.6470
" />
<path d="M0.6290 0.8040
L0.6350 0.8070
" />
<path d="M0.6290 0.8040
L0.6350 0.8070
" />
<path d="M0.6320 0.6430
L0.6290 0.6450
" />
<path d="M0.6320 0.6430
L0.6290 0.6450
" />
<path d="M0.6350 0.6420
L0.6320 0.6430
" />
<path d="M0.6350 0.6420
L0.6320 0.6430
" />
</g>
<g style="fill:#000000; fill-opacity:1.0000; stroke:none;">
<circle cx="0.6350" cy="0.6420" r="0.0100" /> 
<circle cx="0.6350" cy="0.6420" r="0.0100" /> 
<circle cx="0.6350" cy="0.8070" r="0.0100" /> 
<circle cx="0.6350" cy="0.8070" r="0.0100" /> 
</g>
<g style="fill:none; 
stroke:#000000; stroke-width:0.0200; stroke-opacity:1; 
stroke-linecap:round; stroke-linejoin:round;">
<path d="M0.6350 0.8070
L0.6410 0.8100
" />
<path d="M0.6350 0.8070
L0.6410 0.8100
" />
<path d="M0.6410 0.6390
L0.6350 0.6420
" />
<path d="M0.6410 0.6390
L0.6350 0.6420
" />
<path d="M0.6410 0.8100
L0.6470 0.8130
" />
<path d="M0.6410 0.8100
L0.6470 0.8130
" />
<path d="M0.6470 0.6360
L0.6410 0.6390
" />
<path d="M0.6470 0.6360
L0.6410 0.6390
" />
<path d="M0.6470 0.8130
L0.6530 0.8150
" />
<path d="M0.6470 0.8130
L0.6530 0.8150
" />
<path d="M0.6530 0.6340
L0.6470 0.6360
" />
<path d="M0.6530 0.6340
L0.6470 0.6360
" />
<path d="M0.6530 0.8150
L0.6590 0.8170
" />
<path d="M0.6530 0.8150
L0.6590 0.8170
" />
<path d="M0.6590 0.6320
L0.6530 0.6340
" />
<path d="M0.6590 0.6320
L0.6530 0.6340
" />
<path d="M0.6590 0.8170
L0.6650 0.8180
" />
<path d="M0.6590 0.8170
L0.6650 0.8180
" />
<path d="M0.6650 0.6310
L0.6590 0.6320
" />
<path d="M0.6650 0.6310
L0.6590 0.6320
" />
<path d="M0.6650 0.8180
L0.6710 0.8190
" />
<path d="M0.6650 0.8180
L0.6710 0.8190
" />
<path d="M0.6710 0.6300
L0.6650 0.6310
" />
<path d="M0.6710 0.6300
L0.6650 0.6310
" />
<path d="M0.6710 0.8190
L0.6770 0.8200
" />
<path d="M0.6710 0.8190
L0.6770 0.8200
" />
<path d="M0.6770 0.6290
L0.6710 0.6300
" />
<path d="M0.6770 0.6290
L0.6710 0.6300
" />
<path d="M0.6770 0.8200
L0.6830 0.8200
" />
<path d="M0.6770 0.8200
L0.6830 0.8200
" />
<path d="M0.6830 0.6290
L0.6770 0.6290
" />
<path d="M0.6830 0.6290
L0.6770 0.6290
" />
<path d="M0.6830 0.8200
L0.6890 0.8200
" />
<path d="M0.6830 0.8200
L0.6890 0.8200
" />
<path d="M0.6890 0.6290
L0.6830 0.6290
" />
<path d="M0.6890 0.6290
L0.6830 0.6290
" />
<path d="M0.6890 0.8200
L0.6960 0.8190
" />
<path d="M0.6890 0.8200
L0.6960 0.8190
" />
<path d="M0.6960 0.6300
L0.6890 0.6290
" />
<path d="M0.6960 0.6300
L0.6890 0.6290
" />
<path d="M0.6960 0.8190
L0.7010 0.8180
" />
<path d="M0.6960 0.8190
L0.7010 0.8180
" />
<path d="M0.7010 0.6310
L0.6960 0.6300
" />
<path d="M0.7010 0.6310
L0.6960 0.6300
" />
<path d="M0.7010 0.8180
L0.7070 0.8170
" />
<path d="M0.7010 0.8180
L0.7070 0.8170
" />
<path d="M0.7070 0.6320
L0.7010 0.6310
" />
<path d="M0.7070 0.6320
L0.7010 0.6310
" />
<path d="M0.7070 0.8170
L0.7130 0.8150
" />
<path d="M0.7070 0.8170
L0.7130 0.8150
" />
<path d="M0.7130 0.6340
L0.7070 0.6320
" />
<path d="M0.7130 0.6340
L0.7070 0.6320
" />
<path d="M0.7130 0.8150
L0.7190 0.8130
" />
<path d="M0.7130 0.8150
L0.7190 0.8130
" />
<path d="M0.7190 0.6360
L0.7130 0.6340
" />
<path d="M0.7190 0.6360
L0.7130 0.6340
" />
<path d="M0.7190 0.8130
L0.7240 0.8100
" />
<path d="M0.7190 0.8130
L0.7240 0.8100
" />
<path d="M0.7240 0.6390
L0.7190 0.6360
" />
<path d="M0.7240 0.6390
L0.7190 0.6360
" />
<path d="M0.7240 0.8100
L0.7300 0.8070
" />
<path d="M0.7240 0.8100
L0.7300 0.8070
" />
<path d="M0.7300 0.6420
L0.7240 0.6390
" />
<path d="M0.7300 0.6420
L0.7240 0.6390
" />
</g>
<g style="fill:#000000; fill-opacity:1.0000; stroke:none;">
<circle cx="0.7300" cy="0.6420" r="0.0100" /> 
<circle cx="0.7300" cy="0.6420" r="0.0100" /> 
<circle cx="0.7300" cy="0.8070" r="0.0100" /> 
<circle cx="0.7300" cy="0.8070" r="0.0100" /> 
</g>
<g style="fill:none; 
stroke:#000000; stroke-width:0.0200; stroke-opacity:1; 
stroke-linecap:round; stroke-linejoin:round;">
<path d="M0.7300 0.8070
L0.7330 0.8050
" />
<path d="M0.7300 0.8070
L0.7330 0.8050
" />
<path d="M0.7330 0.8050
L0.7350 0.8040
" />
<path d="M0.7330 0.8050
L0.7350 0.8040
" />
<path d="M0.7350 0.6450
L0.7300 0.6420
" />
<path d="M0.7350 0.6450
L0.7300 0.6420
" />
<path d="M0.7350 0.8040
L0.7380 0.8020
" />
<path d="M0.7350 0.8040
L0.7380 0.8020
" />
<path d="M0.7380 0.8020
L0.7410 0.8000
" />
<path d="M0.7380 0.8020
L0.7410 0.8000
" />
<path d="M0.7410 0.6490
L0.7350 0.6450
" />
<path d="M0.7410 0.6490
L0.7350 0.6450
" />
<path d="M0.7410 0.8000
L0.7430 0.7980
" />
<path d="M0.7410 0.8000
L0.7430 0.7980
" />
<path d="M0.7430 0.7980
L0.7450 0.7960
" />
<path d="M0.7430 0.7980
L0.7450 0.7960
" />
<path d="M0.7450 0.6530
L0.7410 0.6490
" />
<path d="M0.7450 0.6530
L0.7410 0.6490
" />
<path d="M0.7450 0.7960
L0.7480 0.7940
" />
<path d="M0.7450 0.7960
L0.7480 0.7940
" />
<path d="M0.7480 0.7940
L0.7500 0.7920
" />
<path d="M0.7480 0.7940
L0.7500 0.7920
" />
<path d="M0.7500 0.6570
L0.7450 0.6530
" />
<path d="M0.7500 0.6570
L0.7450 0.6530
" />
<path d="M0.7500 0.7920
L0.7520 0.7900
" />
<path d="M0.7500 0.7920
L0.7520 0.7900
" />
<path d="M0.7520 0.7900
L0.7540 0.7870
" />
<path d="M0.7520 0.7900
L0.7540 0.7870
" />
<path d="M0.7540 0.6610
L0.7500 0.6570
" />
<path d="M0.7540 0.6610
L0.7500 0.6570
" />
<path d="M0.7540 0.7870
L0.7560 0.7850
" />
<path d="M0.7540 0.7870
L0.7560 0.7850
" />
<path d="M0.7560 0.7850
L0.7580 0.7820
" />
<path d="M0.7560 0.7850
L0.7580 0.7820
" />
<path d="M0.7580 0.6660
L0.7540 0.6610
" />
<path d="M0.7580 0.6660
L0.7540 0.6610
" />
<path d="M0.7580 0.7820
L0.7600 0.7800
" />
<path d="M0.7580 0.7820
L0.7600 0.7800
" />
<path d="M0.7600 0.7800
L0.7630 0.7770
" />
<path d="M0.7600 0.7800
L0.7630 0.7770
" />
<path d="M0.7630 0.6710
L0.7580 0.6660
" />
<path d="M0.7630 0.6710
L0.7580 0.6660
" />
<path d="M0.7630 0.7770
L0.7640 0.7750
" />
<path d="M0.7630 0.7770
L0.7640 0.7750
" />
<path d="M0.7640 0.7750
L0.7660 0.7720
" />
<path d="M0.7640 0.7750
L0.7660 0.7720
" />
<path d="M0.7660 0.6770
L0.7630 0.6710
" />
<path d="M0.7660 0.6770
L0.7630 0.6710
" />
<path d="M0.7660 0.7720
L0.7680 0.7690
" />
<path d="M0.7660 0.7720
L0.7680 0.7690
" />
<path d="M0.7680 0.7690
L0.7690 0.7670
" />
<path d="M0.7680 0.7690
L0.7690 0.7670
" />
<path d="M0.7690 0.6820
L0.7660 0.6770
" />
<path d="M0.7690 0.6820
L0.7660 0.6770
" />
<path d="M0.7690 0.7670
L0.7700 0.7640
" />
<path d="M0.7690 0.7670
L0.7700 0.7640
" />
<path d="M0.7700 0.7640
L0.7710 0.7610
" />
<path d="M0.7700 0.7640
L0.7710 0.7610
" />
<path d="M0.7710 0.6880
L0.7690 0.6820
" />
<path d="M0.7710 0.6880
L0.7690 0.6820
" />
<path d="M0.7710 0.7610
L0.7730 0.7580
" />
<path d="M0.7710 0.7610
L0.7730 0.7580
" />
<path d="M0.7730 0.7580
L0.7740 0.7540
" />
<path d="M0.7730 0.7580
L0.7740 0.7540
" />
<path d="M0.7740 0.6920
L0.7710 0.6880
" />
<path d="M0.7740 0.6920
L0.7710 0.6880
" />
<path d="M0.7740 0.7540
L0.7750 0.7510
" />
<path d="M0.7740 0.7540
L0.7750 0.7510
" />
<path d="M0.7750 0.7510
L0.7760 0.7480
" />
<path d="M0.7750 0.7510
L0.7760 0.7480
" />
<path d="M0.7760 0.6980
L0.7740 0.6920
" />
<path d="M0.7760 0.6980
L0.7740 0.6920
" />
<path d="M0.7760 0.7450
L0.7770 0.7420
" />
<path d="M0.7760 0.7450
L0.7770 0.7420
" />
<path d="M0.7760 0.7480
L0.7760 0.7450
" />
<path d="M0.7760 0.7480
L0.7760 0.7450
" />
<path d="M0.7770 0.7040
L0.7760 0.6980
" />
<path d="M0.7770 0.7040
L0.7760 0.6980
" />
<path d="M0.7770 0.7420
L0.7780 0.7390
" />
<path d="M0.7770 0.7420
L0.7780 0.7390
" />
<path d="M0.7780 0.7110
L0.7770 0.7040
" />
<path d="M0.7780 0.7110
L0.7770 0.7040
" />
<path d="M0.7780 0.7330
L0.7790 0.7300
" />
<path d="M0.7780 0.7330
L0.7790 0.7300
" />
<path d="M0.7780 0.7360
L0.7780 0.7330
" />
<path d="M0.7780 0.7360
L0.7780 0.7330
" />
<path d="M0.7780 0.7390
L0.7780 0.7360
" />
<path d="M0.7780 0.7390
L0.7780 0.7360
" />
<path d="M0.7790 0.7170
L0.7780 0.7110
" />
<path d="M0.7790 0.7170
L0.7780 0.7110
" />
<path d="M0.7790 0.7230
L0.7790 0.7170
" />
<path d="M0.7790 0.7230
L0.7790 0.7170
" />
<path d="M0.7790 0.7270
L0.7790 0.7230
" />
<path d="M0.7790 0.7270
L0.7790 0.7230
" />
<path d="M0.7790 0.7300
L0.7790 0.7270
" />
<path d="M0.7790 0.7300
L0.7790 0.7270
" />
<path d="M2.0230 0.5250
L0.5250 0.5250
" />
<path d="M2.0230 2.5230
L2.0230 0.5250
" />
</g> 
</svg>
