<?xml version="1.0" standalone="no"?>
 <!DOCTYPE svg PUBLIC "-//W3C//DTD SVG 1.1//EN" 
 "http://www.w3.org/Graphics/SVG/1.1/DTD/svg11.dtd"> 
<svg
  xmlns:svg="http://www.w3.org/2000/svg"
  xmlns="http://www.w3.org/2000/svg"
  xmlns:xlink="http://www.w3.org/1999/xlink"
  version="1.1"
  width="8.3312mm" height="2.7432mm" viewBox="0.0000 0.0000 8.3312 2.7432">
<title>SVG Image created as outline.svg date 2025/04/04 10:06:29 </title>
  <desc>Image generated by PCBNEW </desc>
<g style="fill:#000000; fill-opacity:1.0000;stroke:#000000; stroke-opacity:1.0000;
stroke-linecap:round; stroke-linejoin:round;"
 transform="translate(0 0) scale(1 1)">
</g>
<g style="fill:none; 
stroke:#000000; stroke-width:0.0200; stroke-opacity:1; 
stroke-linecap:round; stroke-linejoin:round;">
<path d="M0.2750 0.9750
L0.2950 0.9750
" />
<path d="M0.2750 1.1250
L0.2750 0.9750
" />
<path d="M0.2750 1.6250
L0.2950 1.6250
" />
<path d="M0.2750 1.7750
L0.2750 1.6250
" />
<path d="M0.2950 0.8130
L0.2970 0.8080
" />
<path d="M0.2950 0.8180
L0.2950 0.8130
" />
<path d="M0.2950 0.8180
L0.2950 0.9750
" />
<path d="M0.2950 0.8180
L0.3420 0.8270
" />
<path d="M0.2950 0.9750
L0.2950 1.1250
" />
<path d="M0.2950 1.1250
L0.2750 1.1250
" />
<path d="M0.2950 1.6250
L0.2950 1.7750
" />
<path d="M0.2950 1.6250
L0.3420 1.6250
" />
<path d="M0.2950 1.7750
L0.2750 1.7750
" />
<path d="M0.2950 1.7750
L0.2950 1.9320
" />
<path d="M0.2950 1.9320
L0.2950 1.9370
" />
<path d="M0.2950 1.9320
L0.3070 1.9300
" />
<path d="M0.2950 1.9370
L0.2970 1.9420
" />
<path d="M0.2970 0.7990
L0.2980 0.7940
" />
<path d="M0.2970 0.8040
L0.2970 0.7990
" />
<path d="M0.2970 0.8080
L0.2970 0.8040
" />
<path d="M0.2970 1.9420
L0.2970 1.9460
" />
<path d="M0.2970 1.9460
L0.2970 1.9510
" />
<path d="M0.2970 1.9510
L0.2980 1.9560
" />
<path d="M0.2980 0.7940
L0.3000 0.7890
" />
<path d="M0.2980 1.9560
L0.3000 1.9610
" />
<path d="M0.3000 0.7890
L0.3010 0.7850
" />
<path d="M0.3000 1.9610
L0.3010 1.9650
" />
<path d="M0.3010 0.7850
L0.3030 0.7800
" />
<path d="M0.3010 1.9650
L0.3030 1.9700
" />
<path d="M0.3030 0.7800
L0.3050 0.7760
" />
<path d="M0.3030 1.9700
L0.3050 1.9740
" />
<path d="M0.3050 0.7760
L0.3070 0.7710
" />
<path d="M0.3050 1.9740
L0.3070 1.9790
" />
<path d="M0.3070 0.7710
L0.3100 0.7670
" />
<path d="M0.3070 1.9300
L0.3420 1.9230
" />
<path d="M0.3070 1.9790
L0.3100 1.9830
" />
<path d="M0.3100 0.7670
L0.3130 0.7630
" />
<path d="M0.3100 1.9830
L0.3130 1.9870
" />
<path d="M0.3130 0.7630
L0.3160 0.7590
" />
<path d="M0.3130 1.9870
L0.3160 1.9910
" />
<path d="M0.3160 0.7590
L0.3190 0.7550
" />
<path d="M0.3160 1.9910
L0.3190 1.9950
" />
<path d="M0.3190 0.7550
L0.3230 0.7510
" />
<path d="M0.3190 1.9950
L0.3230 1.9990
" />
<path d="M0.3230 0.7510
L0.3260 0.7480
" />
<path d="M0.3230 1.9990
L0.3260 2.0020
" />
<path d="M0.3260 0.7480
L0.3290 0.7440
" />
<path d="M0.3260 2.0020
L0.3290 2.0060
" />
<path d="M0.3290 0.7440
L0.3330 0.7410
" />
<path d="M0.3290 2.0060
L0.3330 2.0090
" />
<path d="M0.3330 0.7410
L0.3360 0.7380
" />
<path d="M0.3330 2.0090
L0.3360 2.0120
" />
<path d="M0.3360 0.7380
L0.3400 0.7350
" />
<path d="M0.3360 2.0120
L0.3400 2.0150
" />
<path d="M0.3400 0.7350
L0.3450 0.7320
" />
<path d="M0.3400 2.0150
L0.3450 2.0180
" />
<path d="M0.3420 0.8270
L0.3450 0.8220
" />
<path d="M0.3420 1.1250
L0.2950 1.1250
" />
<path d="M0.3420 1.6250
L0.3650 1.6250
" />
<path d="M0.3450 0.7320
L0.3490 0.7300
" />
<path d="M0.3450 0.8220
L0.3480 0.8180
" />
<path d="M0.3450 1.9280
L0.3420 1.9230
" />
<path d="M0.3450 2.0180
L0.3490 2.0200
" />
<path d="M0.3480 0.8180
L0.3500 0.8130
" />
<path d="M0.3480 1.9320
L0.3450 1.9280
" />
<path d="M0.3490 0.7300
L0.3530 0.7270
" />
<path d="M0.3490 2.0200
L0.3530 2.0230
" />
<path d="M0.3500 0.8130
L0.3550 0.8090
" />
<path d="M0.3500 1.9370
L0.3480 1.9320
" />
<path d="M0.3530 0.7270
L0.3580 0.7250
" />
<path d="M0.3530 2.0230
L0.3580 2.0250
" />
<path d="M0.3550 0.8090
L0.3580 0.8040
" />
<path d="M0.3550 1.9410
L0.3500 1.9370
" />
<path d="M0.3580 0.7250
L0.3620 0.7230
" />
<path d="M0.3580 0.8040
L0.3610 0.8000
" />
<path d="M0.3580 1.9460
L0.3550 1.9410
" />
<path d="M0.3580 2.0250
L0.3620 2.0270
" />
<path d="M0.3610 0.8000
L0.3650 0.7960
" />
<path d="M0.3610 1.9500
L0.3580 1.9460
" />
<path d="M0.3620 0.7230
L0.3680 0.7220
" />
<path d="M0.3620 2.0270
L0.3680 2.0280
" />
<path d="M0.3650 0.7960
L0.3690 0.7920
" />
<path d="M0.3650 1.1250
L0.3420 1.1250
" />
<path d="M0.3650 1.6250
L0.3650 1.1250
" />
<path d="M0.3650 1.9540
L0.3610 1.9500
" />
<path d="M0.3680 0.7220
L0.3720 0.7200
" />
<path d="M0.3680 2.0280
L0.3720 2.0300
" />
<path d="M0.3690 0.7920
L0.3740 0.7880
" />
<path d="M0.3690 1.9580
L0.3650 1.9540
" />
<path d="M0.3720 0.7200
L0.3770 0.7190
" />
<path d="M0.3720 2.0300
L0.3770 2.0310
" />
<path d="M0.3740 0.7880
L0.3770 0.7840
" />
<path d="M0.3740 1.9620
L0.3690 1.9580
" />
<path d="M0.3770 0.7190
L0.3810 0.7190
" />
<path d="M0.3770 0.7840
L0.3820 0.7800
" />
<path d="M0.3770 1.9660
L0.3740 1.9620
" />
<path d="M0.3770 2.0310
L0.3810 2.0310
" />
<path d="M0.3810 0.7190
L0.3870 0.7180
" />
<path d="M0.3810 2.0310
L0.3870 2.0320
" />
<path d="M0.3820 0.7800
L0.3870 0.7760
" />
<path d="M0.3820 1.9700
L0.3770 1.9660
" />
<path d="M0.3870 0.7180
L0.3910 0.7180
" />
<path d="M0.3870 0.7760
L0.3910 0.7730
" />
<path d="M0.3870 1.9740
L0.3820 1.9700
" />
<path d="M0.3870 2.0320
L0.3910 2.0320
" />
<path d="M0.3910 0.7180
L0.3960 0.7180
" />
<path d="M0.3910 0.7730
L0.3960 0.7700
" />
<path d="M0.3910 1.9770
L0.3870 1.9740
" />
<path d="M0.3910 2.0320
L0.3960 2.0320
" />
<path d="M0.3960 0.7180
L0.4060 0.7640
" />
<path d="M0.3960 0.7180
L0.8260 0.7180
" />
<path d="M0.3960 0.7700
L0.4000 0.7660
" />
<path d="M0.3960 1.9800
L0.3910 1.9770
" />
<path d="M0.3960 2.0320
L0.4060 1.9860
" />
<path d="M0.4000 0.7660
L0.4060 0.7640
" />
<path d="M0.4000 1.9840
L0.3960 1.9800
" />
<path d="M0.4060 0.7640
L0.8260 0.7650
" />
<path d="M0.4060 1.9860
L0.4000 1.9840
" />
<path d="M0.4120 0.8980
L0.4140 0.8930
" />
<path d="M0.4120 1.8520
L0.4190 1.8520
" />
<path d="M0.4140 0.8930
L0.4170 0.8880
" />
<path d="M0.4140 1.8570
L0.4120 1.8520
" />
<path d="M0.4170 0.8880
L0.4220 0.8830
" />
<path d="M0.4170 1.8620
L0.4140 1.8570
" />
<path d="M0.4190 0.8980
L0.4120 0.8980
" />
<path d="M0.4190 1.8520
L0.4250 1.8530
" />
<path d="M0.4220 0.8830
L0.4250 0.8780
" />
<path d="M0.4220 1.8670
L0.4170 1.8620
" />
<path d="M0.4250 0.8780
L0.4280 0.8740
" />
<path d="M0.4250 0.8970
L0.4190 0.8980
" />
<path d="M0.4250 1.8530
L0.4330 1.8530
" />
<path d="M0.4250 1.8720
L0.4220 1.8670
" />
<path d="M0.4280 0.8740
L0.4320 0.8690
" />
<path d="M0.4280 1.8760
L0.4250 1.8720
" />
<path d="M0.4320 0.8690
L0.4350 0.8650
" />
<path d="M0.4320 1.8810
L0.4280 1.8760
" />
<path d="M0.4330 0.8970
L0.4250 0.8970
" />
<path d="M0.4330 1.8530
L0.4410 1.8540
" />
<path d="M0.4350 0.8650
L0.4390 0.8610
" />
<path d="M0.4350 1.8850
L0.4320 1.8810
" />
<path d="M0.4390 0.8610
L0.4440 0.8570
" />
<path d="M0.4390 1.8890
L0.4350 1.8850
" />
<path d="M0.4410 0.8960
L0.4330 0.8970
" />
<path d="M0.4410 1.8540
L0.4490 1.8550
" />
<path d="M0.4440 0.8570
L0.4480 0.8530
" />
<path d="M0.4440 1.8930
L0.4390 1.8890
" />
<path d="M0.4480 0.8530
L0.4510 0.8500
" />
<path d="M0.4480 1.8970
L0.4440 1.8930
" />
<path d="M0.4490 0.8950
L0.4410 0.8960
" />
<path d="M0.4490 1.8550
L0.4570 1.8560
" />
<path d="M0.4510 0.8500
L0.4570 0.8460
" />
<path d="M0.4510 1.9000
L0.4480 1.8970
" />
<path d="M0.4570 0.8460
L0.4600 0.8430
" />
<path d="M0.4570 0.8940
L0.4490 0.8950
" />
<path d="M0.4570 1.8560
L0.4670 1.8570
" />
<path d="M0.4570 1.9040
L0.4510 1.9000
" />
<path d="M0.4600 0.8430
L0.4650 0.8400
" />
<path d="M0.4600 1.9070
L0.4570 1.9040
" />
<path d="M0.4650 0.8400
L0.4700 0.8370
" />
<path d="M0.4650 1.9100
L0.4600 1.9070
" />
<path d="M0.4670 0.8930
L0.4570 0.8940
" />
<path d="M0.4670 1.8570
L0.4750 1.8590
" />
<path d="M0.4700 0.8370
L0.4750 0.8340
" />
<path d="M0.4700 1.9130
L0.4650 1.9100
" />
<path d="M0.4750 0.8340
L0.4750 0.8910
" />
<path d="M0.4750 0.8910
L0.4670 0.8930
" />
<path d="M0.4750 1.8590
L0.4750 0.8910
" />
<path d="M0.4750 1.9160
L0.4700 1.9130
" />
<path d="M0.4750 1.9160
L0.4750 1.8590
" />
<path d="M0.6750 0.9500
L0.6760 0.9560
" />
<path d="M0.6750 0.9500
L0.7040 0.9500
" />
<path d="M0.6750 1.8000
L0.6750 0.9500
" />
<path d="M0.6760 0.9560
L0.6760 0.9620
" />
<path d="M0.6760 0.9620
L0.6760 0.9680
" />
<path d="M0.6760 0.9680
L0.6780 0.9740
" />
<path d="M0.6760 1.7810
L0.6760 1.7870
" />
<path d="M0.6760 1.7870
L0.6760 1.7930
" />
<path d="M0.6760 1.7930
L0.6750 1.8000
" />
<path d="M0.6780 0.9740
L0.6780 0.9800
" />
<path d="M0.6780 0.9800
L0.6780 0.9860
" />
<path d="M0.6780 0.9860
L0.6790 0.9920
" />
<path d="M0.6780 1.7640
L0.6780 1.7690
" />
<path d="M0.6780 1.7690
L0.6780 1.7750
" />
<path d="M0.6780 1.7750
L0.6760 1.7810
" />
<path d="M0.6790 0.9920
L0.6820 0.9980
" />
<path d="M0.6790 1.7580
L0.6780 1.7640
" />
<path d="M0.6820 0.9980
L0.6820 1.0030
" />
<path d="M0.6820 1.0030
L0.6850 1.0090
" />
<path d="M0.6820 1.7470
L0.6820 1.7520
" />
<path d="M0.6820 1.7520
L0.6790 1.7580
" />
<path d="M0.6850 1.0090
L0.6850 1.0150
" />
<path d="M0.6850 1.0150
L0.6880 1.0200
" />
<path d="M0.6850 1.7360
L0.6850 1.7410
" />
<path d="M0.6850 1.7410
L0.6820 1.7470
" />
<path d="M0.6880 1.0200
L0.6890 1.0250
" />
<path d="M0.6880 1.7300
L0.6850 1.7360
" />
<path d="M0.6890 1.0250
L0.6910 1.0310
" />
<path d="M0.6890 1.7250
L0.6880 1.7300
" />
<path d="M0.6910 1.0310
L0.6940 1.0350
" />
<path d="M0.6910 1.7200
L0.6890 1.7250
" />
<path d="M0.6940 1.0350
L0.6960 1.0400
" />
<path d="M0.6940 1.7150
L0.6910 1.7200
" />
</g>
<g style="fill:#000000; fill-opacity:1.0000; stroke:none;">
<circle cx="0.6960" cy="1.0400" r="0.0100" /> 
</g>
<g style="fill:none; 
stroke:#000000; stroke-width:0.0200; stroke-opacity:1; 
stroke-linecap:round; stroke-linejoin:round;">
<path d="M0.6960 1.0400
L0.6980 1.0430
" />
<path d="M0.6960 1.7100
L0.6940 1.7150
" />
</g>
<g style="fill:#000000; fill-opacity:1.0000; stroke:none;">
<circle cx="0.6960" cy="1.7100" r="0.0100" /> 
</g>
<g style="fill:none; 
stroke:#000000; stroke-width:0.0200; stroke-opacity:1; 
stroke-linecap:round; stroke-linejoin:round;">
<path d="M0.6980 1.0430
L0.7010 1.0460
" />
<path d="M0.6980 1.7070
L0.6960 1.7100
" />
<path d="M0.7010 1.0460
L0.7020 1.0490
" />
<path d="M0.7010 1.7040
L0.6980 1.7070
" />
<path d="M0.7020 1.0490
L0.7040 1.0520
" />
<path d="M0.7020 1.7010
L0.7010 1.7040
" />
<path d="M0.7040 0.8340
L0.7070 0.8370
" />
<path d="M0.7040 1.0520
L0.7070 1.0550
" />
<path d="M0.7040 1.6980
L0.7020 1.7010
" />
<path d="M0.7040 1.8000
L0.6750 1.8000
" />
<path d="M0.7040 1.8000
L0.7460 1.8000
" />
<path d="M0.7040 1.9160
L0.8260 1.9850
" />
<path d="M0.7070 0.8370
L0.7100 0.8400
" />
<path d="M0.7070 1.0550
L0.7090 1.0580
" />
<path d="M0.7070 1.6950
L0.7040 1.6980
" />
<path d="M0.7070 1.9130
L0.7040 1.9160
" />
<path d="M0.7090 1.0580
L0.7120 1.0610
" />
<path d="M0.7090 1.6920
L0.7070 1.6950
" />
<path d="M0.7100 0.8400
L0.7140 0.8430
" />
<path d="M0.7100 1.9100
L0.7070 1.9130
" />
<path d="M0.7120 1.0610
L0.7140 1.0640
" />
<path d="M0.7120 1.6890
L0.7090 1.6920
" />
<path d="M0.7140 0.8430
L0.7170 0.8470
" />
<path d="M0.7140 1.0640
L0.7180 1.0660
" />
<path d="M0.7140 1.6870
L0.7120 1.6890
" />
<path d="M0.7140 1.9070
L0.7100 1.9100
" />
<path d="M0.7170 0.8470
L0.7180 0.8500
" />
<path d="M0.7170 1.9030
L0.7140 1.9070
" />
<path d="M0.7180 0.8500
L0.7210 0.8530
" />
<path d="M0.7180 1.0660
L0.7200 1.0670
" />
<path d="M0.7180 1.6840
L0.7140 1.6870
" />
<path d="M0.7180 1.9000
L0.7170 1.9030
" />
<path d="M0.7200 1.0670
L0.7210 1.0680
" />
<path d="M0.7210 0.8530
L0.7240 0.8570
" />
<path d="M0.7210 1.0680
L0.7230 1.0690
" />
<path d="M0.7210 1.6820
L0.7180 1.6840
" />
<path d="M0.7210 1.8970
L0.7180 1.9000
" />
<path d="M0.7230 1.0690
L0.7240 1.0700
" />
<path d="M0.7230 1.6810
L0.7210 1.6820
" />
<path d="M0.7240 0.8570
L0.7270 0.8600
" />
<path d="M0.7240 1.0700
L0.7270 1.0710
" />
<path d="M0.7240 1.6800
L0.7230 1.6810
" />
<path d="M0.7240 1.8930
L0.7210 1.8970
" />
<path d="M0.7270 0.8600
L0.7300 0.8640
" />
<path d="M0.7270 1.0710
L0.7280 1.0720
" />
<path d="M0.7270 1.6790
L0.7240 1.6800
" />
<path d="M0.7270 1.8900
L0.7240 1.8930
" />
<path d="M0.7280 1.0720
L0.7300 1.0730
" />
<path d="M0.7280 1.6780
L0.7270 1.6790
" />
<path d="M0.7300 0.8640
L0.7310 0.8680
" />
<path d="M0.7300 1.0730
L0.7310 1.0740
" />
<path d="M0.7300 1.6770
L0.7280 1.6780
" />
<path d="M0.7300 1.8860
L0.7270 1.8900
" />
<path d="M0.7310 0.8680
L0.7330 0.8710
" />
<path d="M0.7310 1.0740
L0.7330 1.0740
" />
<path d="M0.7310 1.6770
L0.7300 1.6770
" />
<path d="M0.7310 1.8820
L0.7300 1.8860
" />
<path d="M0.7330 0.8710
L0.7360 0.8750
" />
<path d="M0.7330 1.0740
L0.7360 1.0750
" />
<path d="M0.7330 1.6760
L0.7310 1.6770
" />
<path d="M0.7330 1.8790
L0.7310 1.8820
" />
<path d="M0.7360 0.8750
L0.7390 0.8790
" />
<path d="M0.7360 1.0750
L0.7370 1.0750
" />
<path d="M0.7360 1.6760
L0.7330 1.6760
" />
<path d="M0.7360 1.8750
L0.7330 1.8790
" />
<path d="M0.7370 1.0750
L0.7390 1.0750
" />
<path d="M0.7370 1.6750
L0.7360 1.6760
" />
<path d="M0.7390 0.8790
L0.7400 0.8830
" />
<path d="M0.7390 1.0750
L0.7430 1.0750
" />
<path d="M0.7390 1.6750
L0.7370 1.6750
" />
<path d="M0.7390 1.8710
L0.7360 1.8750
" />
<path d="M0.7400 0.8830
L0.7430 0.8870
" />
<path d="M0.7400 1.8670
L0.7390 1.8710
" />
<path d="M0.7430 0.8870
L0.7460 0.8910
" />
<path d="M0.7430 1.0750
L0.7440 1.0750
" />
<path d="M0.7430 1.6750
L0.7390 1.6750
" />
<path d="M0.7430 1.8630
L0.7400 1.8670
" />
<path d="M0.7440 1.0750
L7.6070 1.0750
" />
<path d="M0.7440 1.6750
L0.7430 1.6750
" />
<path d="M0.7460 0.8910
L0.8260 0.8430
" />
<path d="M0.7460 0.9500
L0.7040 0.9500
" />
<path d="M0.7460 1.8000
L0.8260 1.8000
" />
<path d="M0.7460 1.8590
L0.7430 1.8630
" />
<path d="M0.8260 0.7180
L1.0250 0.8060
" />
<path d="M0.8260 0.7650
L0.7040 0.8340
" />
<path d="M0.8260 0.7650
L0.8260 0.7180
" />
<path d="M0.8260 0.7890
L0.8260 0.7650
" />
<path d="M0.8260 0.8430
L0.8260 0.7890
" />
<path d="M0.8260 0.9500
L0.7460 0.9500
" />
<path d="M0.8260 0.9500
L0.8260 0.8430
" />
<path d="M0.8260 1.0750
L0.8260 1.6750
" />
<path d="M0.8260 1.9070
L0.7460 1.8590
" />
<path d="M0.8260 1.9070
L0.8260 1.8000
" />
<path d="M0.8260 1.9140
L0.8260 1.9070
" />
<path d="M0.8260 1.9850
L0.4060 1.9860
" />
<path d="M0.8260 1.9850
L0.8270 1.9610
" />
<path d="M0.8260 2.0320
L0.3960 2.0320
" />
<path d="M0.8260 2.0320
L0.8260 1.9850
" />
<path d="M0.8270 1.9210
L0.8260 1.9140
" />
<path d="M0.8270 1.9280
L0.8270 1.9210
" />
<path d="M0.8270 1.9350
L0.8270 1.9280
" />
<path d="M0.8270 1.9410
L0.8270 1.9350
" />
<path d="M0.8270 1.9480
L0.8270 1.9410
" />
<path d="M0.8270 1.9540
L0.8270 1.9480
" />
<path d="M0.8270 1.9610
L0.8270 1.9540
" />
<path d="M0.8350 1.6750
L0.8650 1.6450
" />
<path d="M0.8650 1.1050
L0.8350 1.0750
" />
<path d="M0.8650 1.6450
L0.8650 1.1050
" />
<path d="M0.8650 1.6450
L7.4850 1.6450
" />
<path d="M1.0250 0.8060
L1.0250 0.9300
" />
<path d="M1.0250 0.9300
L0.8260 0.8430
" />
<path d="M1.0250 1.8200
L0.8260 1.9070
" />
<path d="M1.0250 1.8200
L1.0250 1.9440
" />
<path d="M1.0250 1.9440
L0.8260 2.0320
" />
<path d="M1.0250 1.9440
L7.3250 1.9440
" />
<path d="M1.3000 0.4750
L1.3000 0.6760
" />
<path d="M1.3000 0.4750
L1.4510 0.4750
" />
<path d="M1.3000 0.6760
L1.3000 0.7120
" />
<path d="M1.3000 0.6760
L1.4510 0.6760
" />
<path d="M1.3000 0.7120
L1.3000 0.7760
" />
<path d="M1.3000 0.7760
L1.3000 0.8060
" />
<path d="M1.3000 1.9440
L1.4510 1.9440
" />
<path d="M1.3000 1.9740
L1.3000 1.9440
" />
<path d="M1.3000 2.0380
L1.3000 1.9740
" />
<path d="M1.3000 2.0740
L1.3000 2.0380
" />
<path d="M1.3000 2.0740
L1.4510 2.0740
" />
<path d="M1.3000 2.2750
L1.3000 2.0740
" />
<path d="M1.3000 2.2750
L1.4510 2.2750
" />
<path d="M1.4510 0.6760
L1.4510 0.4750
" />
<path d="M1.4510 0.7120
L1.4510 0.6760
" />
<path d="M1.4510 0.7760
L1.4510 0.7120
" />
<path d="M1.4510 0.8060
L1.4510 0.7760
" />
<path d="M1.4510 1.9440
L1.4510 1.9740
" />
<path d="M1.4510 1.9740
L1.4510 2.0380
" />
<path d="M1.4510 2.0380
L1.4510 2.0740
" />
<path d="M1.4510 2.0740
L1.4510 2.2750
" />
<path d="M1.7010 0.4750
L1.7010 0.6760
" />
<path d="M1.7010 0.4750
L1.8510 0.4750
" />
<path d="M1.7010 0.6760
L1.7010 0.7120
" />
<path d="M1.7010 0.6760
L1.8510 0.6760
" />
<path d="M1.7010 0.7120
L1.7010 0.7760
" />
<path d="M1.7010 0.7760
L1.7010 0.8060
" />
<path d="M1.7010 1.9440
L1.8510 1.9440
" />
<path d="M1.7010 1.9740
L1.7010 1.9440
" />
<path d="M1.7010 2.0380
L1.7010 1.9740
" />
<path d="M1.7010 2.0740
L1.7010 2.0380
" />
<path d="M1.7010 2.0740
L1.8510 2.0740
" />
<path d="M1.7010 2.2750
L1.7010 2.0740
" />
<path d="M1.7010 2.2750
L1.8510 2.2750
" />
<path d="M1.8510 0.6760
L1.8510 0.4750
" />
<path d="M1.8510 0.7120
L1.8510 0.6760
" />
<path d="M1.8510 0.7760
L1.8510 0.7120
" />
<path d="M1.8510 0.8060
L1.8510 0.7760
" />
<path d="M1.8510 1.9440
L1.8510 1.9740
" />
<path d="M1.8510 1.9740
L1.8510 2.0380
" />
<path d="M1.8510 2.0380
L1.8510 2.0740
" />
<path d="M1.8510 2.0740
L1.8510 2.2750
" />
<path d="M2.1010 0.4750
L2.1010 0.6760
" />
<path d="M2.1010 0.4750
L2.2510 0.4750
" />
<path d="M2.1010 0.6760
L2.1010 0.7120
" />
<path d="M2.1010 0.6760
L2.2510 0.6760
" />
<path d="M2.1010 0.7120
L2.1010 0.7760
" />
<path d="M2.1010 0.7760
L2.1010 0.8060
" />
<path d="M2.1010 1.9440
L2.2510 1.9440
" />
<path d="M2.1010 1.9740
L2.1010 1.9440
" />
<path d="M2.1010 2.0380
L2.1010 1.9740
" />
<path d="M2.1010 2.0740
L2.1010 2.0380
" />
<path d="M2.1010 2.0740
L2.2510 2.0740
" />
<path d="M2.1010 2.2750
L2.1010 2.0740
" />
<path d="M2.1010 2.2750
L2.2510 2.2750
" />
<path d="M2.2510 0.6760
L2.2510 0.4750
" />
<path d="M2.2510 0.7120
L2.2510 0.6760
" />
<path d="M2.2510 0.7760
L2.2510 0.7120
" />
<path d="M2.2510 0.8060
L2.2510 0.7760
" />
<path d="M2.2510 1.9440
L2.2510 1.9740
" />
<path d="M2.2510 1.9740
L2.2510 2.0380
" />
<path d="M2.2510 2.0380
L2.2510 2.0740
" />
<path d="M2.2510 2.0740
L2.2510 2.2750
" />
<path d="M2.5010 0.4750
L2.5010 0.6760
" />
<path d="M2.5010 0.4750
L2.6500 0.4750
" />
<path d="M2.5010 0.6760
L2.5010 0.7120
" />
<path d="M2.5010 0.6760
L2.6500 0.6760
" />
<path d="M2.5010 0.7120
L2.5010 0.7760
" />
<path d="M2.5010 0.7760
L2.5010 0.8060
" />
<path d="M2.5010 1.9440
L2.6500 1.9440
" />
<path d="M2.5010 1.9740
L2.5010 1.9440
" />
<path d="M2.5010 2.0380
L2.5010 1.9740
" />
<path d="M2.5010 2.0740
L2.5010 2.0380
" />
<path d="M2.5010 2.0740
L2.6500 2.0740
" />
<path d="M2.5010 2.2750
L2.5010 2.0740
" />
<path d="M2.5010 2.2750
L2.6500 2.2750
" />
<path d="M2.6500 0.6760
L2.6500 0.4750
" />
<path d="M2.6500 0.7120
L2.6500 0.6760
" />
<path d="M2.6500 0.7760
L2.6500 0.7120
" />
<path d="M2.6500 0.8060
L2.6500 0.7760
" />
<path d="M2.6500 1.9440
L2.6500 1.9740
" />
<path d="M2.6500 1.9740
L2.6500 2.0380
" />
<path d="M2.6500 2.0380
L2.6500 2.0740
" />
<path d="M2.6500 2.0740
L2.6500 2.2750
" />
<path d="M2.9000 0.4750
L2.9000 0.6760
" />
<path d="M2.9000 0.4750
L3.0500 0.4750
" />
<path d="M2.9000 0.6760
L2.9000 0.7120
" />
<path d="M2.9000 0.6760
L3.0500 0.6760
" />
<path d="M2.9000 0.7120
L2.9000 0.7760
" />
<path d="M2.9000 0.7760
L2.9000 0.8060
" />
<path d="M2.9000 1.9440
L3.0500 1.9440
" />
<path d="M2.9000 1.9740
L2.9000 1.9440
" />
<path d="M2.9000 2.0380
L2.9000 1.9740
" />
<path d="M2.9000 2.0740
L2.9000 2.0380
" />
<path d="M2.9000 2.0740
L3.0500 2.0740
" />
<path d="M2.9000 2.2750
L2.9000 2.0740
" />
<path d="M2.9000 2.2750
L3.0500 2.2750
" />
<path d="M3.0500 0.6760
L3.0500 0.4750
" />
<path d="M3.0500 0.7120
L3.0500 0.6760
" />
<path d="M3.0500 0.7760
L3.0500 0.7120
" />
<path d="M3.0500 0.8060
L3.0500 0.7760
" />
<path d="M3.0500 1.9440
L3.0500 1.9740
" />
<path d="M3.0500 1.9740
L3.0500 2.0380
" />
<path d="M3.0500 2.0380
L3.0500 2.0740
" />
<path d="M3.0500 2.0740
L3.0500 2.2750
" />
<path d="M3.3000 0.4750
L3.3000 0.6760
" />
<path d="M3.3000 0.4750
L3.4510 0.4750
" />
<path d="M3.3000 0.6760
L3.3000 0.7120
" />
<path d="M3.3000 0.6760
L3.4510 0.6760
" />
<path d="M3.3000 0.7120
L3.3000 0.7760
" />
<path d="M3.3000 0.7760
L3.3000 0.8060
" />
<path d="M3.3000 1.9440
L3.4510 1.9440
" />
<path d="M3.3000 1.9740
L3.3000 1.9440
" />
<path d="M3.3000 2.0380
L3.3000 1.9740
" />
<path d="M3.3000 2.0740
L3.3000 2.0380
" />
<path d="M3.3000 2.0740
L3.4510 2.0740
" />
<path d="M3.3000 2.2750
L3.3000 2.0740
" />
<path d="M3.3000 2.2750
L3.4510 2.2750
" />
<path d="M3.4510 0.6760
L3.4510 0.4750
" />
<path d="M3.4510 0.7120
L3.4510 0.6760
" />
<path d="M3.4510 0.7760
L3.4510 0.7120
" />
<path d="M3.4510 0.8060
L3.4510 0.7760
" />
<path d="M3.4510 1.9440
L3.4510 1.9740
" />
<path d="M3.4510 1.9740
L3.4510 2.0380
" />
<path d="M3.4510 2.0380
L3.4510 2.0740
" />
<path d="M3.4510 2.0740
L3.4510 2.2750
" />
<path d="M3.7010 0.4750
L3.7010 0.6760
" />
<path d="M3.7010 0.4750
L3.8500 0.4750
" />
<path d="M3.7010 0.6760
L3.7010 0.7120
" />
<path d="M3.7010 0.6760
L3.8500 0.6760
" />
<path d="M3.7010 0.7120
L3.7010 0.7760
" />
<path d="M3.7010 0.7760
L3.7010 0.8060
" />
<path d="M3.7010 1.9440
L3.8500 1.9440
" />
<path d="M3.7010 1.9740
L3.7010 1.9440
" />
<path d="M3.7010 2.0380
L3.7010 1.9740
" />
<path d="M3.7010 2.0740
L3.7010 2.0380
" />
<path d="M3.7010 2.0740
L3.8500 2.0740
" />
<path d="M3.7010 2.2750
L3.7010 2.0740
" />
<path d="M3.7010 2.2750
L3.8500 2.2750
" />
<path d="M3.8500 0.6760
L3.8500 0.4750
" />
<path d="M3.8500 0.7120
L3.8500 0.6760
" />
<path d="M3.8500 0.7760
L3.8500 0.7120
" />
<path d="M3.8500 0.8060
L3.8500 0.7760
" />
<path d="M3.8500 1.9440
L3.8500 1.9740
" />
<path d="M3.8500 1.9740
L3.8500 2.0380
" />
<path d="M3.8500 2.0380
L3.8500 2.0740
" />
<path d="M3.8500 2.0740
L3.8500 2.2750
" />
<path d="M4.1000 0.4750
L4.1000 0.6760
" />
<path d="M4.1000 0.4750
L4.2500 0.4750
" />
<path d="M4.1000 0.6760
L4.1000 0.7120
" />
<path d="M4.1000 0.6760
L4.2500 0.6760
" />
<path d="M4.1000 0.7120
L4.1000 0.7760
" />
<path d="M4.1000 0.7760
L4.1000 0.8060
" />
<path d="M4.1000 1.9440
L4.2500 1.9440
" />
<path d="M4.1000 1.9740
L4.1000 1.9440
" />
<path d="M4.1000 2.0380
L4.1000 1.9740
" />
<path d="M4.1000 2.0740
L4.1000 2.0380
" />
<path d="M4.1000 2.0740
L4.2500 2.0740
" />
<path d="M4.1000 2.2750
L4.1000 2.0740
" />
<path d="M4.1000 2.2750
L4.2500 2.2750
" />
<path d="M4.2500 0.6760
L4.2500 0.4750
" />
<path d="M4.2500 0.7120
L4.2500 0.6760
" />
<path d="M4.2500 0.7760
L4.2500 0.7120
" />
<path d="M4.2500 0.8060
L4.2500 0.7760
" />
<path d="M4.2500 1.9440
L4.2500 1.9740
" />
<path d="M4.2500 1.9740
L4.2500 2.0380
" />
<path d="M4.2500 2.0380
L4.2500 2.0740
" />
<path d="M4.2500 2.0740
L4.2500 2.2750
" />
<path d="M4.5000 0.4750
L4.5000 0.6760
" />
<path d="M4.5000 0.4750
L4.6490 0.4750
" />
<path d="M4.5000 0.6760
L4.5000 0.7120
" />
<path d="M4.5000 0.6760
L4.6490 0.6760
" />
<path d="M4.5000 0.7120
L4.5000 0.7760
" />
<path d="M4.5000 0.7760
L4.5000 0.8060
" />
<path d="M4.5000 1.9440
L4.6490 1.9440
" />
<path d="M4.5000 1.9740
L4.5000 1.9440
" />
<path d="M4.5000 2.0380
L4.5000 1.9740
" />
<path d="M4.5000 2.0740
L4.5000 2.0380
" />
<path d="M4.5000 2.0740
L4.6490 2.0740
" />
<path d="M4.5000 2.2750
L4.5000 2.0740
" />
<path d="M4.5000 2.2750
L4.6490 2.2750
" />
<path d="M4.6490 0.6760
L4.6490 0.4750
" />
<path d="M4.6490 0.7120
L4.6490 0.6760
" />
<path d="M4.6490 0.7760
L4.6490 0.7120
" />
<path d="M4.6490 0.8060
L4.6490 0.7760
" />
<path d="M4.6490 1.9440
L4.6490 1.9740
" />
<path d="M4.6490 1.9740
L4.6490 2.0380
" />
<path d="M4.6490 2.0380
L4.6490 2.0740
" />
<path d="M4.6490 2.0740
L4.6490 2.2750
" />
<path d="M4.8990 0.4750
L4.8990 0.6760
" />
<path d="M4.8990 0.4750
L5.0500 0.4750
" />
<path d="M4.8990 0.6760
L4.8990 0.7120
" />
<path d="M4.8990 0.6760
L5.0500 0.6760
" />
<path d="M4.8990 0.7120
L4.8990 0.7760
" />
<path d="M4.8990 0.7760
L4.8990 0.8060
" />
<path d="M4.8990 1.9440
L5.0500 1.9440
" />
<path d="M4.8990 1.9740
L4.8990 1.9440
" />
<path d="M4.8990 2.0380
L4.8990 1.9740
" />
<path d="M4.8990 2.0740
L4.8990 2.0380
" />
<path d="M4.8990 2.0740
L5.0500 2.0740
" />
<path d="M4.8990 2.2750
L4.8990 2.0740
" />
<path d="M4.8990 2.2750
L5.0500 2.2750
" />
<path d="M5.0500 0.6760
L5.0500 0.4750
" />
<path d="M5.0500 0.7120
L5.0500 0.6760
" />
<path d="M5.0500 0.7760
L5.0500 0.7120
" />
<path d="M5.0500 0.8060
L5.0500 0.7760
" />
<path d="M5.0500 1.9440
L5.0500 1.9740
" />
<path d="M5.0500 1.9740
L5.0500 2.0380
" />
<path d="M5.0500 2.0380
L5.0500 2.0740
" />
<path d="M5.0500 2.0740
L5.0500 2.2750
" />
<path d="M5.3000 0.4750
L5.3000 0.6760
" />
<path d="M5.3000 0.4750
L5.4490 0.4750
" />
<path d="M5.3000 0.6760
L5.3000 0.7120
" />
<path d="M5.3000 0.6760
L5.4490 0.6760
" />
<path d="M5.3000 0.7120
L5.3000 0.7760
" />
<path d="M5.3000 0.7760
L5.3000 0.8060
" />
<path d="M5.3000 1.9440
L5.4490 1.9440
" />
<path d="M5.3000 1.9740
L5.3000 1.9440
" />
<path d="M5.3000 2.0380
L5.3000 1.9740
" />
<path d="M5.3000 2.0740
L5.3000 2.0380
" />
<path d="M5.3000 2.0740
L5.4490 2.0740
" />
<path d="M5.3000 2.2750
L5.3000 2.0740
" />
<path d="M5.3000 2.2750
L5.4490 2.2750
" />
<path d="M5.4490 0.6760
L5.4490 0.4750
" />
<path d="M5.4490 0.7120
L5.4490 0.6760
" />
<path d="M5.4490 0.7760
L5.4490 0.7120
" />
<path d="M5.4490 0.8060
L5.4490 0.7760
" />
<path d="M5.4490 1.9440
L5.4490 1.9740
" />
<path d="M5.4490 1.9740
L5.4490 2.0380
" />
<path d="M5.4490 2.0380
L5.4490 2.0740
" />
<path d="M5.4490 2.0740
L5.4490 2.2750
" />
<path d="M5.6990 0.4750
L5.6990 0.6760
" />
<path d="M5.6990 0.4750
L5.8490 0.4750
" />
<path d="M5.6990 0.6760
L5.6990 0.7120
" />
<path d="M5.6990 0.6760
L5.8490 0.6760
" />
<path d="M5.6990 0.7120
L5.6990 0.7760
" />
<path d="M5.6990 0.7760
L5.6990 0.8060
" />
<path d="M5.6990 1.9440
L5.8490 1.9440
" />
<path d="M5.6990 1.9740
L5.6990 1.9440
" />
<path d="M5.6990 2.0380
L5.6990 1.9740
" />
<path d="M5.6990 2.0740
L5.6990 2.0380
" />
<path d="M5.6990 2.0740
L5.8490 2.0740
" />
<path d="M5.6990 2.2750
L5.6990 2.0740
" />
<path d="M5.6990 2.2750
L5.8490 2.2750
" />
<path d="M5.8490 0.6760
L5.8490 0.4750
" />
<path d="M5.8490 0.7120
L5.8490 0.6760
" />
<path d="M5.8490 0.7760
L5.8490 0.7120
" />
<path d="M5.8490 0.8060
L5.8490 0.7760
" />
<path d="M5.8490 1.9440
L5.8490 1.9740
" />
<path d="M5.8490 1.9740
L5.8490 2.0380
" />
<path d="M5.8490 2.0380
L5.8490 2.0740
" />
<path d="M5.8490 2.0740
L5.8490 2.2750
" />
<path d="M6.0990 0.4750
L6.0990 0.6760
" />
<path d="M6.0990 0.4750
L6.2510 0.4750
" />
<path d="M6.0990 0.6760
L6.0990 0.7120
" />
<path d="M6.0990 0.6760
L6.2510 0.6760
" />
<path d="M6.0990 0.7120
L6.0990 0.7760
" />
<path d="M6.0990 0.7760
L6.0990 0.8060
" />
<path d="M6.0990 1.9440
L6.2510 1.9440
" />
<path d="M6.0990 1.9740
L6.0990 1.9440
" />
<path d="M6.0990 2.0380
L6.0990 1.9740
" />
<path d="M6.0990 2.0740
L6.0990 2.0380
" />
<path d="M6.0990 2.0740
L6.2510 2.0740
" />
<path d="M6.0990 2.2750
L6.0990 2.0740
" />
<path d="M6.0990 2.2750
L6.2510 2.2750
" />
<path d="M6.2510 0.6760
L6.2510 0.4750
" />
<path d="M6.2510 0.7120
L6.2510 0.6760
" />
<path d="M6.2510 0.7760
L6.2510 0.7120
" />
<path d="M6.2510 0.8060
L6.2510 0.7760
" />
<path d="M6.2510 1.9440
L6.2510 1.9740
" />
<path d="M6.2510 1.9740
L6.2510 2.0380
" />
<path d="M6.2510 2.0380
L6.2510 2.0740
" />
<path d="M6.2510 2.0740
L6.2510 2.2750
" />
<path d="M6.5010 0.4750
L6.5010 0.6760
" />
<path d="M6.5010 0.4750
L6.6500 0.4750
" />
<path d="M6.5010 0.6760
L6.5010 0.7120
" />
<path d="M6.5010 0.6760
L6.6500 0.6760
" />
<path d="M6.5010 0.7120
L6.5010 0.7760
" />
<path d="M6.5010 0.7760
L6.5010 0.8060
" />
<path d="M6.5010 1.9440
L6.6500 1.9440
" />
<path d="M6.5010 1.9740
L6.5010 1.9440
" />
<path d="M6.5010 2.0380
L6.5010 1.9740
" />
<path d="M6.5010 2.0740
L6.5010 2.0380
" />
<path d="M6.5010 2.0740
L6.6500 2.0740
" />
<path d="M6.5010 2.2750
L6.5010 2.0740
" />
<path d="M6.5010 2.2750
L6.6500 2.2750
" />
<path d="M6.6500 0.6760
L6.6500 0.4750
" />
<path d="M6.6500 0.7120
L6.6500 0.6760
" />
<path d="M6.6500 0.7760
L6.6500 0.7120
" />
<path d="M6.6500 0.8060
L6.6500 0.7760
" />
<path d="M6.6500 1.9440
L6.6500 1.9740
" />
<path d="M6.6500 1.9740
L6.6500 2.0380
" />
<path d="M6.6500 2.0380
L6.6500 2.0740
" />
<path d="M6.6500 2.0740
L6.6500 2.2750
" />
<path d="M6.9000 0.4750
L6.9000 0.6760
" />
<path d="M6.9000 0.4750
L7.0500 0.4750
" />
<path d="M6.9000 0.6760
L6.9000 0.7120
" />
<path d="M6.9000 0.6760
L7.0500 0.6760
" />
<path d="M6.9000 0.7120
L6.9000 0.7760
" />
<path d="M6.9000 0.7760
L6.9000 0.8060
" />
<path d="M6.9000 1.9440
L7.0500 1.9440
" />
<path d="M6.9000 1.9740
L6.9000 1.9440
" />
<path d="M6.9000 2.0380
L6.9000 1.9740
" />
<path d="M6.9000 2.0740
L6.9000 2.0380
" />
<path d="M6.9000 2.0740
L7.0500 2.0740
" />
<path d="M6.9000 2.2750
L6.9000 2.0740
" />
<path d="M6.9000 2.2750
L7.0500 2.2750
" />
<path d="M7.0500 0.6760
L7.0500 0.4750
" />
<path d="M7.0500 0.7120
L7.0500 0.6760
" />
<path d="M7.0500 0.7760
L7.0500 0.7120
" />
<path d="M7.0500 0.8060
L7.0500 0.7760
" />
<path d="M7.0500 1.9440
L7.0500 1.9740
" />
<path d="M7.0500 1.9740
L7.0500 2.0380
" />
<path d="M7.0500 2.0380
L7.0500 2.0740
" />
<path d="M7.0500 2.0740
L7.0500 2.2750
" />
<path d="M7.3250 0.8060
L1.0250 0.8060
" />
<path d="M7.3250 0.8060
L7.3250 0.9300
" />
<path d="M7.3250 0.9300
L7.5250 0.8430
" />
<path d="M7.3250 1.8200
L7.3250 1.9440
" />
<path d="M7.3250 1.9440
L7.5250 2.0320
" />
<path d="M7.4850 1.1050
L0.8650 1.1050
" />
<path d="M7.4850 1.1050
L7.4850 1.6450
" />
<path d="M7.4850 1.1050
L7.5150 1.0750
" />
<path d="M7.5150 1.6750
L7.4850 1.6450
" />
<path d="M7.5230 1.9200
L7.5250 1.9140
" />
<path d="M7.5230 1.9270
L7.5230 1.9200
" />
<path d="M7.5230 1.9330
L7.5230 1.9270
" />
<path d="M7.5230 1.9400
L7.5230 1.9330
" />
<path d="M7.5230 1.9470
L7.5230 1.9400
" />
<path d="M7.5230 1.9540
L7.5230 1.9470
" />
<path d="M7.5230 1.9610
L7.5230 1.9540
" />
<path d="M7.5250 0.7180
L7.3250 0.8060
" />
<path d="M7.5250 0.7180
L7.5250 0.7650
" />
<path d="M7.5250 0.7180
L7.9540 0.7180
" />
<path d="M7.5250 0.7650
L7.9460 0.7640
" />
<path d="M7.5250 0.8430
L7.5250 0.9500
" />
<path d="M7.5250 0.8430
L7.5260 0.7890
" />
<path d="M7.5250 0.8430
L7.6060 0.8910
" />
<path d="M7.5250 0.9500
L7.6060 0.9500
" />
<path d="M7.5250 1.0750
L7.5250 1.6750
" />
<path d="M7.5250 1.8000
L7.5250 1.9070
" />
<path d="M7.5250 1.9070
L7.3250 1.8200
" />
<path d="M7.5250 1.9140
L7.5250 1.9070
" />
<path d="M7.5250 1.9850
L7.5230 1.9610
" />
<path d="M7.5250 1.9850
L7.6470 1.9160
" />
<path d="M7.5250 2.0320
L7.5250 1.9850
" />
<path d="M7.5260 0.7890
L7.5250 0.7650
" />
<path d="M7.6060 0.8910
L7.6090 0.8870
" />
<path d="M7.6060 1.8000
L7.5250 1.8000
" />
<path d="M7.6060 1.8590
L7.5250 1.9070
" />
<path d="M7.6070 1.0750
L7.6090 1.0750
" />
<path d="M7.6070 1.6750
L0.7440 1.6750
" />
<path d="M7.6090 0.8870
L7.6110 0.8830
" />
<path d="M7.6090 1.0750
L7.6110 1.0750
" />
<path d="M7.6090 1.6750
L7.6070 1.6750
" />
<path d="M7.6090 1.8630
L7.6060 1.8590
" />
<path d="M7.6110 0.8830
L7.6130 0.8790
" />
<path d="M7.6110 1.0750
L7.6140 1.0750
" />
<path d="M7.6110 1.6750
L7.6090 1.6750
" />
<path d="M7.6110 1.8670
L7.6090 1.8630
" />
<path d="M7.6130 0.8790
L7.6150 0.8750
" />
<path d="M7.6130 1.8710
L7.6110 1.8670
" />
<path d="M7.6140 1.0750
L7.6150 1.0740
" />
<path d="M7.6140 1.6750
L7.6110 1.6750
" />
<path d="M7.6150 0.8750
L7.6180 0.8710
" />
<path d="M7.6150 1.0740
L7.6180 1.0740
" />
<path d="M7.6150 1.6750
L7.6140 1.6750
" />
<path d="M7.6150 1.8750
L7.6130 1.8710
" />
<path d="M7.6180 0.8710
L7.6190 0.8680
" />
<path d="M7.6180 1.0740
L7.6190 1.0730
" />
<path d="M7.6180 1.6760
L7.6150 1.6750
" />
<path d="M7.6180 1.8790
L7.6150 1.8750
" />
<path d="M7.6190 0.8680
L7.6220 0.8640
" />
<path d="M7.6190 1.0730
L7.6200 1.0730
" />
<path d="M7.6190 1.6760
L7.6180 1.6760
" />
<path d="M7.6190 1.8820
L7.6180 1.8790
" />
<path d="M7.6200 1.0730
L7.6230 1.0720
" />
<path d="M7.6200 1.6770
L7.6190 1.6760
" />
<path d="M7.6220 0.8640
L7.6240 0.8600
" />
<path d="M7.6220 1.8860
L7.6190 1.8820
" />
<path d="M7.6230 1.0720
L7.6240 1.0710
" />
<path d="M7.6230 1.6780
L7.6200 1.6770
" />
<path d="M7.6240 0.8600
L7.6270 0.8570
" />
<path d="M7.6240 1.0710
L7.6270 1.0700
" />
<path d="M7.6240 1.6790
L7.6230 1.6780
" />
<path d="M7.6240 1.8900
L7.6220 1.8860
" />
<path d="M7.6270 0.8570
L7.6300 0.8530
" />
<path d="M7.6270 1.0700
L7.6280 1.0690
" />
<path d="M7.6270 1.6800
L7.6240 1.6790
" />
<path d="M7.6270 1.8930
L7.6240 1.8900
" />
<path d="M7.6280 1.0690
L7.6300 1.0680
" />
<path d="M7.6280 1.6810
L7.6270 1.6800
" />
<path d="M7.6300 0.8530
L7.6320 0.8500
" />
<path d="M7.6300 1.0680
L7.6320 1.0660
" />
<path d="M7.6300 1.6820
L7.6280 1.6810
" />
<path d="M7.6300 1.8970
L7.6270 1.8930
" />
<path d="M7.6320 0.8500
L7.6350 0.8470
" />
<path d="M7.6320 1.0660
L7.6360 1.0630
" />
<path d="M7.6320 1.6830
L7.6300 1.6820
" />
<path d="M7.6320 1.6840
L7.6320 1.6830
" />
<path d="M7.6320 1.9000
L7.6300 1.8970
" />
<path d="M7.6350 0.8470
L7.6380 0.8430
" />
<path d="M7.6350 1.9030
L7.6320 1.9000
" />
<path d="M7.6360 1.0630
L7.6390 1.0610
" />
<path d="M7.6360 1.6860
L7.6320 1.6840
" />
<path d="M7.6380 0.8430
L7.6400 0.8400
" />
<path d="M7.6380 1.9070
L7.6350 1.9030
" />
<path d="M7.6390 1.0610
L7.6420 1.0580
" />
<path d="M7.6390 1.6890
L7.6360 1.6860
" />
<path d="M7.6400 0.8400
L7.6440 0.8370
" />
<path d="M7.6400 1.9100
L7.6380 1.9070
" />
<path d="M7.6420 1.0580
L7.6440 1.0550
" />
<path d="M7.6420 1.6920
L7.6390 1.6890
" />
<path d="M7.6440 0.8370
L7.6470 0.8340
" />
<path d="M7.6440 1.0550
L7.6470 1.0520
" />
<path d="M7.6440 1.6950
L7.6420 1.6920
" />
<path d="M7.6440 1.9130
L7.6400 1.9100
" />
<path d="M7.6470 0.8340
L7.5250 0.7650
" />
<path d="M7.6470 0.9500
L7.6060 0.9500
" />
<path d="M7.6470 0.9500
L7.6750 0.9500
" />
<path d="M7.6470 1.0520
L7.6480 1.0490
" />
<path d="M7.6470 1.6980
L7.6440 1.6950
" />
<path d="M7.6470 1.8000
L7.6060 1.8000
" />
<path d="M7.6470 1.9160
L7.6440 1.9130
" />
<path d="M7.6480 1.0490
L7.6510 1.0460
" />
<path d="M7.6480 1.7010
L7.6470 1.6980
" />
<path d="M7.6510 1.0460
L7.6520 1.0430
" />
<path d="M7.6510 1.7040
L7.6480 1.7010
" />
<path d="M7.6520 1.0430
L7.6550 1.0400
" />
<path d="M7.6520 1.7070
L7.6510 1.7040
" />
</g>
<g style="fill:#000000; fill-opacity:1.0000; stroke:none;">
<circle cx="7.6550" cy="1.0400" r="0.0100" /> 
</g>
<g style="fill:none; 
stroke:#000000; stroke-width:0.0200; stroke-opacity:1; 
stroke-linecap:round; stroke-linejoin:round;">
<path d="M7.6550 1.0400
L7.6560 1.0350
" />
<path d="M7.6550 1.7100
L7.6520 1.7070
" />
</g>
<g style="fill:#000000; fill-opacity:1.0000; stroke:none;">
<circle cx="7.6550" cy="1.7100" r="0.0100" /> 
</g>
<g style="fill:none; 
stroke:#000000; stroke-width:0.0200; stroke-opacity:1; 
stroke-linecap:round; stroke-linejoin:round;">
<path d="M7.6560 1.0350
L7.6600 1.0300
" />
<path d="M7.6560 1.7150
L7.6550 1.7100
" />
<path d="M7.6600 1.0300
L7.6620 1.0250
" />
<path d="M7.6600 1.7190
L7.6560 1.7150
" />
<path d="M7.6620 1.0250
L7.6640 1.0200
" />
<path d="M7.6620 1.7250
L7.6600 1.7190
" />
<path d="M7.6640 1.0200
L7.6660 1.0140
" />
<path d="M7.6640 1.7300
L7.6620 1.7250
" />
<path d="M7.6660 1.0140
L7.6670 1.0090
" />
<path d="M7.6660 1.7350
L7.6640 1.7300
" />
<path d="M7.6670 1.0090
L7.6680 1.0030
" />
<path d="M7.6670 1.7410
L7.6660 1.7350
" />
<path d="M7.6680 1.0030
L7.6700 0.9980
" />
<path d="M7.6680 1.7470
L7.6670 1.7410
" />
<path d="M7.6700 0.9980
L7.6720 0.9920
" />
<path d="M7.6700 1.7520
L7.6680 1.7470
" />
<path d="M7.6720 0.9810
L7.6740 0.9750
" />
<path d="M7.6720 0.9860
L7.6720 0.9810
" />
<path d="M7.6720 0.9920
L7.6720 0.9860
" />
<path d="M7.6720 1.7580
L7.6700 1.7520
" />
<path d="M7.6720 1.7640
L7.6720 1.7580
" />
<path d="M7.6720 1.7700
L7.6720 1.7640
" />
<path d="M7.6740 0.9750
L7.6750 0.9690
" />
<path d="M7.6740 1.7760
L7.6720 1.7700
" />
<path d="M7.6750 0.9500
L7.6750 1.8000
" />
<path d="M7.6750 0.9570
L7.6750 0.9500
" />
<path d="M7.6750 0.9630
L7.6750 0.9570
" />
<path d="M7.6750 0.9690
L7.6750 0.9630
" />
<path d="M7.6750 1.7820
L7.6740 1.7760
" />
<path d="M7.6750 1.7880
L7.6750 1.7820
" />
<path d="M7.6750 1.7940
L7.6750 1.7880
" />
<path d="M7.6750 1.8000
L7.6470 1.8000
" />
<path d="M7.6750 1.8000
L7.6750 1.7940
" />
<path d="M7.8760 0.8340
L7.8810 0.8370
" />
<path d="M7.8760 0.8910
L7.8760 0.8340
" />
<path d="M7.8760 0.8910
L7.8760 1.8590
" />
<path d="M7.8760 1.8590
L7.8820 1.8580
" />
<path d="M7.8760 1.9160
L7.8760 1.8590
" />
<path d="M7.8810 0.8370
L7.8860 0.8400
" />
<path d="M7.8810 1.9130
L7.8760 1.9160
" />
<path d="M7.8820 0.8920
L7.8760 0.8910
" />
<path d="M7.8820 1.8580
L7.8900 1.8570
" />
<path d="M7.8860 0.8400
L7.8900 0.8430
" />
<path d="M7.8860 1.9100
L7.8810 1.9130
" />
<path d="M7.8900 0.8430
L7.8940 0.8460
" />
<path d="M7.8900 0.8930
L7.8820 0.8920
" />
<path d="M7.8900 1.8570
L7.8980 1.8550
" />
<path d="M7.8900 1.9070
L7.8860 1.9100
" />
<path d="M7.8940 0.8460
L7.9000 0.8500
" />
<path d="M7.8940 1.9040
L7.8900 1.9070
" />
<path d="M7.8980 0.8950
L7.8900 0.8930
" />
<path d="M7.8980 1.8550
L7.9060 1.8550
" />
<path d="M7.9000 0.8500
L7.9040 0.8530
" />
<path d="M7.9000 1.9000
L7.8940 1.9040
" />
<path d="M7.9040 0.8530
L7.9080 0.8570
" />
<path d="M7.9040 1.8970
L7.9000 1.9000
" />
<path d="M7.9060 0.8950
L7.8980 0.8950
" />
<path d="M7.9060 1.8550
L7.9130 1.8540
" />
<path d="M7.9080 0.8570
L7.9120 0.8610
" />
<path d="M7.9080 1.8930
L7.9040 1.8970
" />
<path d="M7.9120 0.8610
L7.9160 0.8650
" />
<path d="M7.9120 1.8890
L7.9080 1.8930
" />
<path d="M7.9130 0.8960
L7.9060 0.8950
" />
<path d="M7.9130 1.8540
L7.9200 1.8530
" />
<path d="M7.9160 0.8650
L7.9200 0.8690
" />
<path d="M7.9160 1.8850
L7.9120 1.8890
" />
<path d="M7.9200 0.8690
L7.9240 0.8740
" />
<path d="M7.9200 0.8970
L7.9130 0.8960
" />
<path d="M7.9200 1.8530
L7.9260 1.8530
" />
<path d="M7.9200 1.8810
L7.9160 1.8850
" />
<path d="M7.9240 0.8740
L7.9260 0.8780
" />
<path d="M7.9240 1.8760
L7.9200 1.8810
" />
<path d="M7.9260 0.8780
L7.9300 0.8830
" />
<path d="M7.9260 0.8970
L7.9200 0.8970
" />
<path d="M7.9260 1.8530
L7.9330 1.8520
" />
<path d="M7.9260 1.8720
L7.9240 1.8760
" />
<path d="M7.9300 0.8830
L7.9340 0.8880
" />
<path d="M7.9300 1.8670
L7.9260 1.8720
" />
<path d="M7.9330 0.8980
L7.9260 0.8970
" />
<path d="M7.9330 1.8520
L7.9380 1.8520
" />
<path d="M7.9340 0.8880
L7.9370 0.8930
" />
<path d="M7.9340 1.8620
L7.9300 1.8670
" />
<path d="M7.9370 0.8930
L7.9380 0.8980
" />
<path d="M7.9370 1.8570
L7.9340 1.8620
" />
<path d="M7.9380 0.8980
L7.9330 0.8980
" />
<path d="M7.9380 1.8520
L7.9370 1.8570
" />
<path d="M7.9460 0.7640
L7.9540 0.7180
" />
<path d="M7.9460 1.9860
L7.5250 1.9850
" />
<path d="M7.9460 1.9860
L7.9500 1.9840
" />
<path d="M7.9500 0.7660
L7.9460 0.7640
" />
<path d="M7.9500 1.9840
L7.9560 1.9800
" />
<path d="M7.9540 0.7180
L7.9600 0.7180
" />
<path d="M7.9540 2.0320
L7.5250 2.0320
" />
<path d="M7.9540 2.0320
L7.9460 1.9860
" />
<path d="M7.9560 0.7700
L7.9500 0.7660
" />
<path d="M7.9560 1.9800
L7.9600 1.9770
" />
<path d="M7.9600 0.7180
L7.9650 0.7180
" />
<path d="M7.9600 0.7730
L7.9560 0.7700
" />
<path d="M7.9600 1.9770
L7.9650 1.9740
" />
<path d="M7.9600 2.0320
L7.9540 2.0320
" />
<path d="M7.9650 0.7180
L7.9700 0.7190
" />
<path d="M7.9650 0.7760
L7.9600 0.7730
" />
<path d="M7.9650 1.9740
L7.9690 1.9700
" />
<path d="M7.9650 2.0320
L7.9600 2.0320
" />
<path d="M7.9690 0.7800
L7.9650 0.7760
" />
<path d="M7.9690 1.9700
L7.9740 1.9660
" />
<path d="M7.9700 0.7190
L7.9740 0.7190
" />
<path d="M7.9700 2.0310
L7.9650 2.0320
" />
<path d="M7.9740 0.7190
L7.9780 0.7200
" />
<path d="M7.9740 0.7840
L7.9690 0.7800
" />
<path d="M7.9740 1.9660
L7.9780 1.9620
" />
<path d="M7.9740 2.0310
L7.9700 2.0310
" />
<path d="M7.9780 0.7200
L7.9840 0.7220
" />
<path d="M7.9780 0.7880
L7.9740 0.7840
" />
<path d="M7.9780 1.9620
L7.9820 1.9580
" />
<path d="M7.9780 2.0300
L7.9740 2.0310
" />
<path d="M7.9820 0.7920
L7.9780 0.7880
" />
<path d="M7.9820 1.9580
L7.9860 1.9540
" />
<path d="M7.9840 0.7220
L7.9890 0.7230
" />
<path d="M7.9840 2.0280
L7.9780 2.0300
" />
<path d="M7.9850 1.6250
L7.9850 1.1250
" />
<path d="M7.9850 1.6250
L8.0100 1.6250
" />
<path d="M7.9860 0.7960
L7.9820 0.7920
" />
<path d="M7.9860 1.9540
L7.9900 1.9500
" />
<path d="M7.9890 0.7230
L7.9930 0.7250
" />
<path d="M7.9890 2.0270
L7.9840 2.0280
" />
<path d="M7.9900 0.8000
L7.9860 0.7960
" />
<path d="M7.9900 1.9500
L7.9940 1.9460
" />
<path d="M7.9930 0.7250
L7.9980 0.7270
" />
<path d="M7.9930 2.0250
L7.9890 2.0270
" />
<path d="M7.9940 0.8040
L7.9900 0.8000
" />
<path d="M7.9940 1.9460
L7.9970 1.9410
" />
<path d="M7.9970 0.8090
L7.9940 0.8040
" />
<path d="M7.9970 1.9410
L8.0010 1.9370
" />
<path d="M7.9980 0.7270
L8.0020 0.7300
" />
<path d="M7.9980 2.0230
L7.9930 2.0250
" />
<path d="M8.0010 0.8130
L7.9970 0.8090
" />
<path d="M8.0010 1.9370
L8.0030 1.9320
" />
<path d="M8.0020 0.7300
L8.0060 0.7320
" />
<path d="M8.0020 2.0200
L7.9980 2.0230
" />
<path d="M8.0030 0.8180
L8.0010 0.8130
" />
<path d="M8.0030 1.9320
L8.0060 1.9280
" />
<path d="M8.0060 0.7320
L8.0110 0.7350
" />
<path d="M8.0060 0.8220
L8.0030 0.8180
" />
<path d="M8.0060 1.9280
L8.0100 1.9230
" />
<path d="M8.0060 2.0180
L8.0020 2.0200
" />
<path d="M8.0100 0.8270
L8.0060 0.8220
" />
<path d="M8.0100 1.1250
L7.9850 1.1250
" />
<path d="M8.0100 1.6250
L8.0550 1.6250
" />
<path d="M8.0100 1.9230
L8.0550 1.9320
" />
<path d="M8.0110 0.7350
L8.0150 0.7380
" />
<path d="M8.0110 2.0150
L8.0060 2.0180
" />
<path d="M8.0150 0.7380
L8.0180 0.7410
" />
<path d="M8.0150 2.0120
L8.0110 2.0150
" />
<path d="M8.0180 0.7410
L8.0220 0.7440
" />
<path d="M8.0180 2.0090
L8.0150 2.0120
" />
<path d="M8.0220 0.7440
L8.0260 0.7480
" />
<path d="M8.0220 2.0060
L8.0180 2.0090
" />
<path d="M8.0260 0.7480
L8.0290 0.7510
" />
<path d="M8.0260 2.0020
L8.0220 2.0060
" />
<path d="M8.0290 0.7510
L8.0330 0.7550
" />
<path d="M8.0290 1.9990
L8.0260 2.0020
" />
<path d="M8.0330 0.7550
L8.0350 0.7590
" />
<path d="M8.0330 1.9950
L8.0290 1.9990
" />
<path d="M8.0350 0.7590
L8.0390 0.7630
" />
<path d="M8.0350 1.9910
L8.0330 1.9950
" />
<path d="M8.0390 0.7630
L8.0410 0.7670
" />
<path d="M8.0390 1.9870
L8.0350 1.9910
" />
<path d="M8.0410 0.7670
L8.0430 0.7710
" />
<path d="M8.0410 1.9830
L8.0390 1.9870
" />
<path d="M8.0430 0.7710
L8.0460 0.7760
" />
<path d="M8.0430 0.8200
L8.0100 0.8270
" />
<path d="M8.0430 1.9790
L8.0410 1.9830
" />
<path d="M8.0460 0.7760
L8.0470 0.7800
" />
<path d="M8.0460 1.9740
L8.0430 1.9790
" />
<path d="M8.0470 0.7800
L8.0500 0.7850
" />
<path d="M8.0470 1.9700
L8.0460 1.9740
" />
<path d="M8.0500 0.7850
L8.0510 0.7890
" />
<path d="M8.0500 1.9650
L8.0470 1.9700
" />
<path d="M8.0510 0.7890
L8.0530 0.7940
" />
<path d="M8.0510 1.9610
L8.0500 1.9650
" />
<path d="M8.0530 0.7940
L8.0540 0.7990
" />
<path d="M8.0530 1.9560
L8.0510 1.9610
" />
<path d="M8.0540 0.7990
L8.0550 0.8040
" />
<path d="M8.0540 1.9510
L8.0530 1.9560
" />
<path d="M8.0550 0.8040
L8.0550 0.8080
" />
<path d="M8.0550 0.8080
L8.0550 0.8130
" />
<path d="M8.0550 0.8130
L8.0550 0.8180
" />
<path d="M8.0550 0.8180
L8.0430 0.8200
" />
<path d="M8.0550 0.8180
L8.0550 0.9750
" />
<path d="M8.0550 0.9750
L8.0750 0.9750
" />
<path d="M8.0550 1.1250
L8.0100 1.1250
" />
<path d="M8.0550 1.1250
L8.0550 0.9750
" />
<path d="M8.0550 1.6250
L8.0750 1.6250
" />
<path d="M8.0550 1.7750
L8.0550 1.6250
" />
<path d="M8.0550 1.7750
L8.0550 1.9320
" />
<path d="M8.0550 1.9320
L8.0550 1.9370
" />
<path d="M8.0550 1.9370
L8.0550 1.9420
" />
<path d="M8.0550 1.9420
L8.0550 1.9460
" />
<path d="M8.0550 1.9460
L8.0540 1.9510
" />
<path d="M8.0750 1.1250
L8.0550 1.1250
" />
<path d="M8.0750 1.1250
L8.0750 0.9750
" />
<path d="M8.0750 1.7750
L8.0550 1.7750
" />
<path d="M8.0750 1.7750
L8.0750 1.6250
" />
</g> 
</svg>
