<?xml version="1.0" standalone="no"?>
 <!DOCTYPE svg PUBLIC "-//W3C//DTD SVG 1.1//EN" 
 "http://www.w3.org/Graphics/SVG/1.1/DTD/svg11.dtd"> 
<svg
  xmlns:svg="http://www.w3.org/2000/svg"
  xmlns="http://www.w3.org/2000/svg"
  xmlns:xlink="http://www.w3.org/1999/xlink"
  version="1.1"
  width="2.4384mm" height="1.8288mm" viewBox="0.0000 0.0000 2.4384 1.8288">
<title>SVG Image created as outline.svg date 2025/06/16 09:17:46 </title>
  <desc>Image generated by PCBNEW </desc>
<g style="fill:#000000; fill-opacity:1.0000;stroke:#000000; stroke-opacity:1.0000;
stroke-linecap:round; stroke-linejoin:round;"
 transform="translate(0 0) scale(1 1)">
</g>
<g style="fill:none; 
stroke:#000000; stroke-width:0.0200; stroke-opacity:1; 
stroke-linecap:round; stroke-linejoin:round;">
<path d="M0.2250 0.4250
L0.2250 0.6300
" />
<path d="M0.2250 0.6300
L0.2250 0.7230
" />
<path d="M0.2250 1.1250
L0.2250 1.2180
" />
<path d="M0.2250 1.2180
L0.2250 1.4230
" />
<path d="M0.2300 0.6300
L0.2300 1.2180
" />
<path d="M0.2300 0.7230
L0.2250 0.7230
" />
<path d="M0.2300 1.1250
L0.2250 1.1250
" />
<path d="M0.2350 0.6300
L0.2250 0.6300
" />
<path d="M0.2350 0.6300
L0.2350 1.2180
" />
<path d="M0.2350 1.2180
L0.2250 1.2180
" />
<path d="M0.2350 1.2180
L0.6250 1.2180
" />
<path d="M0.2430 0.6370
L0.2350 0.6300
" />
<path d="M0.2430 0.6370
L0.2430 1.2110
" />
<path d="M0.2430 1.2110
L0.2350 1.2180
" />
<path d="M0.2430 1.2110
L2.2050 1.2110
" />
<path d="M0.6250 0.4250
L0.2250 0.4250
" />
<path d="M0.6250 0.4250
L0.6250 0.6300
" />
<path d="M0.6250 0.6300
L0.2350 0.6300
" />
<path d="M0.6250 1.2180
L0.6250 1.4230
" />
<path d="M0.6250 1.2180
L0.8230 1.2180
" />
<path d="M0.6250 1.2230
L0.8230 1.2230
" />
<path d="M0.6250 1.4230
L0.2250 1.4230
" />
<path d="M0.8230 0.4250
L0.8230 0.6300
" />
<path d="M0.8230 0.6250
L0.6250 0.6250
" />
<path d="M0.8230 0.6300
L0.6250 0.6300
" />
<path d="M0.8230 1.2180
L0.8230 1.4230
" />
<path d="M1.1230 0.4250
L0.8230 0.4250
" />
<path d="M1.1230 0.4250
L1.1230 0.6300
" />
<path d="M1.1230 0.6300
L0.8230 0.6300
" />
<path d="M1.1230 1.2180
L0.8230 1.2180
" />
<path d="M1.1230 1.2180
L1.1230 1.4230
" />
<path d="M1.1230 1.2180
L1.3250 1.2180
" />
<path d="M1.1230 1.2230
L1.3250 1.2230
" />
<path d="M1.1230 1.4230
L0.8230 1.4230
" />
<path d="M1.3250 0.4250
L1.3250 0.6300
" />
<path d="M1.3250 0.6250
L1.1230 0.6250
" />
<path d="M1.3250 0.6300
L1.1230 0.6300
" />
<path d="M1.3250 1.2180
L1.3250 1.4230
" />
<path d="M1.6250 0.4250
L1.3250 0.4250
" />
<path d="M1.6250 0.4250
L1.6250 0.6300
" />
<path d="M1.6250 0.6300
L1.3250 0.6300
" />
<path d="M1.6250 1.2180
L1.3250 1.2180
" />
<path d="M1.6250 1.2180
L1.6250 1.4230
" />
<path d="M1.6250 1.2180
L1.8230 1.2180
" />
<path d="M1.6250 1.2230
L1.8230 1.2230
" />
<path d="M1.6250 1.4230
L1.3250 1.4230
" />
<path d="M1.8230 0.4250
L1.8230 0.6300
" />
<path d="M1.8230 0.4250
L2.2230 0.4250
" />
<path d="M1.8230 0.6250
L1.6250 0.6250
" />
<path d="M1.8230 0.6300
L1.6250 0.6300
" />
<path d="M1.8230 1.2180
L1.8230 1.4230
" />
<path d="M1.8230 1.2180
L2.2130 1.2180
" />
<path d="M1.8230 1.4230
L2.2230 1.4230
" />
<path d="M2.2050 0.6370
L0.2430 0.6370
" />
<path d="M2.2050 0.6370
L2.2130 0.6300
" />
<path d="M2.2050 1.2110
L2.2050 0.6370
" />
<path d="M2.2050 1.2110
L2.2130 1.2180
" />
<path d="M2.2130 0.6300
L1.8230 0.6300
" />
<path d="M2.2130 0.6300
L2.2230 0.6300
" />
<path d="M2.2130 1.2180
L2.2130 0.6300
" />
<path d="M2.2130 1.2180
L2.2230 1.2180
" />
<path d="M2.2180 0.7230
L2.2230 0.7230
" />
<path d="M2.2180 1.1250
L2.2230 1.1250
" />
<path d="M2.2180 1.2180
L2.2180 0.6300
" />
<path d="M2.2230 0.4250
L2.2230 0.6300
" />
<path d="M2.2230 0.6300
L2.2230 0.7230
" />
<path d="M2.2230 1.1250
L2.2230 1.2180
" />
<path d="M2.2230 1.2180
L2.2230 1.4230
" />
</g> 
</svg>
