<?xml version="1.0" standalone="no"?>
 <!DOCTYPE svg PUBLIC "-//W3C//DTD SVG 1.1//EN" 
 "http://www.w3.org/Graphics/SVG/1.1/DTD/svg11.dtd"> 
<svg
  xmlns:svg="http://www.w3.org/2000/svg"
  xmlns="http://www.w3.org/2000/svg"
  xmlns:xlink="http://www.w3.org/1999/xlink"
  version="1.1"
  width="10.1854mm" height="12.0396mm" viewBox="0.0000 0.0000 10.1854 12.0396">
<title>SVG Image created as outline.svg date 2025/12/29 15:18:40 </title>
  <desc>Image generated by PCBNEW </desc>
<g style="fill:#000000; fill-opacity:1.0000;stroke:#000000; stroke-opacity:1.0000;
stroke-linecap:round; stroke-linejoin:round;"
 transform="translate(0 0) scale(1 1)">
</g>
<g style="fill:none; 
stroke:#000000; stroke-width:0.0200; stroke-opacity:1; 
stroke-linecap:round; stroke-linejoin:round;">
<path d="M1.1000 0.5250
L9.0500 0.5250
" />
<path d="M1.1000 1.9250
L1.1000 0.5250
" />
<path d="M1.1000 10.1250
L1.1000 11.5250
" />
<path d="M1.1000 11.5250
L9.0500 11.5250
" />
<path d="M1.4000 1.9250
L1.1000 1.9250
" />
<path d="M1.4000 10.1250
L1.1000 10.1250
" />
<path d="M1.4000 11.5250
L1.4000 0.5250
" />
<path d="M1.7500 10.7250
L1.7500 1.3250
" />
<path d="M2.0000 0.5250
L2.0000 1.3250
" />
<path d="M2.0000 1.3250
L1.4000 0.7250
" />
<path d="M2.0000 1.3250
L1.4000 1.3250
" />
<path d="M2.0000 1.3250
L2.0000 0.5250
" />
<path d="M2.0000 10.7250
L1.4000 10.7250
" />
<path d="M2.0000 10.7250
L1.4000 11.3250
" />
<path d="M2.0000 11.5250
L2.0000 10.7250
" />
<path d="M5.0990 11.5250
L5.1000 11.5250
" />
<path d="M5.1000 11.5250
L5.0990 11.5250
" />
<path d="M5.1010 11.5250
L5.1000 11.5250
" />
<path d="M9.0500 0.5250
L9.0500 11.5250
" />
<path style="fill:none; 
stroke:#000000; stroke-width:0.0200; stroke-opacity:1; 
stroke-linecap:round; stroke-linejoin:round;fill:none"
d="M 0.6000,2.5250
1.4000,2.5250
1.4000,2.7250
0.6000,2.7250
Z" /> 
<path style="fill:none; 
stroke:#000000; stroke-width:0.0200; stroke-opacity:1; 
stroke-linecap:round; stroke-linejoin:round;fill:none"
d="M 0.6000,3.3250
1.4000,3.3250
1.4000,3.5250
0.6000,3.5250
Z" /> 
<path style="fill:none; 
stroke:#000000; stroke-width:0.0200; stroke-opacity:1; 
stroke-linecap:round; stroke-linejoin:round;fill:none"
d="M 0.6000,4.1250
1.4000,4.1250
1.4000,4.3250
0.6000,4.3250
Z" /> 
<path style="fill:none; 
stroke:#000000; stroke-width:0.0200; stroke-opacity:1; 
stroke-linecap:round; stroke-linejoin:round;fill:none"
d="M 0.6000,4.9250
1.4000,4.9250
1.4000,5.1250
0.6000,5.1250
Z" /> 
<path style="fill:none; 
stroke:#000000; stroke-width:0.0200; stroke-opacity:1; 
stroke-linecap:round; stroke-linejoin:round;fill:none"
d="M 0.6000,5.7250
1.4000,5.7250
1.4000,5.9250
0.6000,5.9250
Z" /> 
<path style="fill:none; 
stroke:#000000; stroke-width:0.0200; stroke-opacity:1; 
stroke-linecap:round; stroke-linejoin:round;fill:none"
d="M 0.6000,6.5250
1.4000,6.5250
1.4000,6.7250
0.6000,6.7250
Z" /> 
<path style="fill:none; 
stroke:#000000; stroke-width:0.0200; stroke-opacity:1; 
stroke-linecap:round; stroke-linejoin:round;fill:none"
d="M 0.6000,7.3250
1.4000,7.3250
1.4000,7.5250
0.6000,7.5250
Z" /> 
<path style="fill:none; 
stroke:#000000; stroke-width:0.0200; stroke-opacity:1; 
stroke-linecap:round; stroke-linejoin:round;fill:none"
d="M 0.6000,8.1250
1.4000,8.1250
1.4000,8.3250
0.6000,8.3250
Z" /> 
<path style="fill:none; 
stroke:#000000; stroke-width:0.0200; stroke-opacity:1; 
stroke-linecap:round; stroke-linejoin:round;fill:none"
d="M 0.6000,8.9250
1.4000,8.9250
1.4000,9.1250
0.6000,9.1250
Z" /> 
<path style="fill:none; 
stroke:#000000; stroke-width:0.0200; stroke-opacity:1; 
stroke-linecap:round; stroke-linejoin:round;fill:none"
d="M 0.6000,9.7250
1.4000,9.7250
1.4000,9.9250
0.6000,9.9250
Z" /> 
<path style="fill:none; 
stroke:#000000; stroke-width:0.0200; stroke-opacity:1; 
stroke-linecap:round; stroke-linejoin:round;fill:none"
d="M 9.0500,2.0650
9.6000,2.0650
9.6000,2.3850
9.0500,2.3850
Z" /> 
<path style="fill:none; 
stroke:#000000; stroke-width:0.0200; stroke-opacity:1; 
stroke-linecap:round; stroke-linejoin:round;fill:none"
d="M 9.0500,2.8650
9.6000,2.8650
9.6000,3.1850
9.0500,3.1850
Z" /> 
<path style="fill:none; 
stroke:#000000; stroke-width:0.0200; stroke-opacity:1; 
stroke-linecap:round; stroke-linejoin:round;fill:none"
d="M 9.0500,3.6650
9.6000,3.6650
9.6000,3.9850
9.0500,3.9850
Z" /> 
<path style="fill:none; 
stroke:#000000; stroke-width:0.0200; stroke-opacity:1; 
stroke-linecap:round; stroke-linejoin:round;fill:none"
d="M 9.0500,4.4650
9.6000,4.4650
9.6000,4.7850
9.0500,4.7850
Z" /> 
<path style="fill:none; 
stroke:#000000; stroke-width:0.0200; stroke-opacity:1; 
stroke-linecap:round; stroke-linejoin:round;fill:none"
d="M 9.0500,5.2650
9.6000,5.2650
9.6000,5.5850
9.0500,5.5850
Z" /> 
<path style="fill:none; 
stroke:#000000; stroke-width:0.0200; stroke-opacity:1; 
stroke-linecap:round; stroke-linejoin:round;fill:none"
d="M 9.0500,6.0650
9.6000,6.0650
9.6000,6.3850
9.0500,6.3850
Z" /> 
<path style="fill:none; 
stroke:#000000; stroke-width:0.0200; stroke-opacity:1; 
stroke-linecap:round; stroke-linejoin:round;fill:none"
d="M 9.0500,6.8650
9.6000,6.8650
9.6000,7.1850
9.0500,7.1850
Z" /> 
<path style="fill:none; 
stroke:#000000; stroke-width:0.0200; stroke-opacity:1; 
stroke-linecap:round; stroke-linejoin:round;fill:none"
d="M 9.0500,7.6650
9.6000,7.6650
9.6000,7.9850
9.0500,7.9850
Z" /> 
<path style="fill:none; 
stroke:#000000; stroke-width:0.0200; stroke-opacity:1; 
stroke-linecap:round; stroke-linejoin:round;fill:none"
d="M 9.0500,8.4650
9.6000,8.4650
9.6000,8.7850
9.0500,8.7850
Z" /> 
<path style="fill:none; 
stroke:#000000; stroke-width:0.0200; stroke-opacity:1; 
stroke-linecap:round; stroke-linejoin:round;fill:none"
d="M 9.0500,9.2650
9.6000,9.2650
9.6000,9.5850
9.0500,9.5850
Z" /> 
</g> 
</svg>
