<?xml version="1.0" standalone="no"?>
 <!DOCTYPE svg PUBLIC "-//W3C//DTD SVG 1.1//EN" 
 "http://www.w3.org/Graphics/SVG/1.1/DTD/svg11.dtd"> 
<svg
  xmlns:svg="http://www.w3.org/2000/svg"
  xmlns="http://www.w3.org/2000/svg"
  xmlns:xlink="http://www.w3.org/1999/xlink"
  version="1.1"
  width="6.5786mm" height="5.9944mm" viewBox="0.0000 0.0000 6.5786 5.9944">
<title>SVG Image created as outline.svg date 2025/06/16 09:17:51 </title>
  <desc>Image generated by PCBNEW </desc>
<g style="fill:#000000; fill-opacity:1.0000;stroke:#000000; stroke-opacity:1.0000;
stroke-linecap:round; stroke-linejoin:round;"
 transform="translate(0 0) scale(1 1)">
</g>
<g style="fill:none; 
stroke:#000000; stroke-width:0.0200; stroke-opacity:1; 
stroke-linecap:round; stroke-linejoin:round;">
<path d="M0.4440 1.6080
L0.6040 1.6080
" />
<path d="M0.4440 4.4010
L0.4440 1.6080
" />
<path d="M0.6040 0.2870
L6.0240 0.2870
" />
<path d="M0.6040 4.4010
L0.4440 4.4010
" />
<path d="M0.6040 5.7220
L0.6040 0.2870
" />
<path d="M0.7100 0.3960
L0.7100 5.6130
" />
<path d="M0.7100 5.6130
L1.7970 5.6130
" />
<path d="M1.7970 0.3960
L0.7100 0.3960
" />
<path d="M1.7970 5.6130
L1.7970 0.3960
" />
<path d="M6.0240 0.2870
L6.0240 5.7220
" />
<path d="M6.0240 1.6080
L6.1850 1.6080
" />
<path d="M6.0240 5.7220
L0.6040 5.7220
" />
<path d="M6.1850 1.6080
L6.1850 4.4010
" />
<path d="M6.1850 4.4010
L6.0240 4.4010
" />
</g> 
</svg>
