<?xml version="1.0" standalone="no"?>
 <!DOCTYPE svg PUBLIC "-//W3C//DTD SVG 1.1//EN" 
 "http://www.w3.org/Graphics/SVG/1.1/DTD/svg11.dtd"> 
<svg
  xmlns:svg="http://www.w3.org/2000/svg"
  xmlns="http://www.w3.org/2000/svg"
  xmlns:xlink="http://www.w3.org/1999/xlink"
  version="1.1"
  width="10.2362mm" height="6.5786mm" viewBox="0.0000 0.0000 10.2362 6.5786">
<title>SVG Image created as outline.svg date 2025/04/04 10:06:09 </title>
  <desc>Image generated by PCBNEW </desc>
<g style="fill:#000000; fill-opacity:1.0000;stroke:#000000; stroke-opacity:1.0000;
stroke-linecap:round; stroke-linejoin:round;"
 transform="translate(0 0) scale(1 1)">
</g>
<g style="fill:none; 
stroke:#000000; stroke-width:0.0200; stroke-opacity:1; 
stroke-linecap:round; stroke-linejoin:round;">
<path d="M0.7250 3.3250
L0.7250 3.8250
" />
<path d="M0.7250 3.8250
L0.7290 3.8640
" />
<path d="M0.7290 3.2860
L0.7250 3.3250
" />
<path d="M0.7290 3.8640
L0.7400 3.9020
" />
<path d="M0.7400 3.2480
L0.7290 3.2860
" />
<path d="M0.7400 3.9020
L0.7590 3.9360
" />
<path d="M0.7590 3.2140
L0.7400 3.2480
" />
<path d="M0.7590 3.9360
L0.7840 3.9660
" />
<path d="M0.7840 3.1840
L0.7590 3.2140
" />
<path d="M0.7840 3.9660
L0.8140 3.9910
" />
<path d="M0.8140 3.1590
L0.7840 3.1840
" />
<path d="M0.8140 3.9910
L0.8480 4.0100
" />
<path d="M0.8480 3.1400
L0.8140 3.1590
" />
<path d="M0.8480 4.0100
L0.8860 4.0210
" />
<path d="M0.8860 3.1290
L0.8480 3.1400
" />
<path d="M0.8860 4.0210
L0.9250 4.0250
" />
<path d="M0.9250 3.1250
L0.8860 3.1290
" />
<path d="M1.1250 6.1140
L1.3480 6.3150
" />
<path d="M1.3480 6.3150
L1.5980 6.0370
" />
<path d="M1.3750 0.7250
L1.3750 5.7250
" />
<path d="M1.3750 0.7250
L1.3780 0.7250
" />
<path d="M1.3750 3.1250
L0.9250 3.1250
" />
<path d="M1.3750 4.0250
L0.9250 4.0250
" />
<path d="M1.3750 5.7250
L1.3750 5.8370
" />
<path d="M1.3750 5.7250
L1.3780 5.7250
" />
<path d="M1.3750 5.8370
L1.1250 6.1140
" />
<path d="M1.3780 0.7250
L1.3880 0.7250
" />
<path d="M1.3780 5.7250
L1.3880 5.7250
" />
<path d="M1.3880 0.7250
L1.4030 0.7250
" />
<path d="M1.3880 5.7250
L1.4030 5.7250
" />
<path d="M1.4030 0.7250
L1.4250 0.7250
" />
<path d="M1.4030 5.7250
L1.4250 5.7250
" />
<path d="M1.4250 0.7250
L1.4520 0.7250
" />
<path d="M1.4250 5.7250
L1.4520 5.7250
" />
<path d="M1.4520 0.7250
L1.4840 0.7250
" />
<path d="M1.4520 5.7250
L1.4840 5.7250
" />
<path d="M1.4840 0.7250
L1.5210 0.7250
" />
<path d="M1.4840 5.7250
L1.5210 5.7250
" />
<path d="M1.5210 0.7250
L1.5630 0.7250
" />
<path d="M1.5210 5.7250
L1.5630 5.7250
" />
<path d="M1.5630 0.7250
L1.6090 0.7250
" />
<path d="M1.5630 5.7250
L1.6090 5.7250
" />
<path d="M1.5980 6.0370
L1.6250 6.0030
" />
<path d="M1.6090 0.7250
L1.6580 0.7250
" />
<path d="M1.6090 5.7250
L1.6580 5.7250
" />
<path d="M1.6250 6.0030
L1.6460 5.9640
" />
<path d="M1.6460 5.9640
L1.6620 5.9230
" />
<path d="M1.6580 0.7250
L1.7100 0.7250
" />
<path d="M1.6580 5.7250
L1.7100 5.7250
" />
<path d="M1.6620 5.9230
L1.6720 5.8800
" />
<path d="M1.6720 5.8800
L1.6750 5.8370
" />
<path d="M1.6750 5.8370
L1.6750 5.7250
" />
<path d="M1.7100 0.7250
L1.7640 0.7250
" />
<path d="M1.7100 5.7250
L1.7640 5.7250
" />
<path d="M1.7640 0.7250
L1.8190 0.7250
" />
<path d="M1.7640 5.7250
L1.8190 5.7250
" />
<path d="M1.8190 0.7250
L1.8750 0.7250
" />
<path d="M1.8190 5.7250
L1.8750 5.7250
" />
<path d="M1.8750 0.7250
L1.8750 5.7250
" />
<path d="M1.8750 0.7250
L2.2760 0.7250
" />
<path d="M1.8750 5.7250
L2.0250 5.7250
" />
<path d="M1.9750 1.5250
L1.9750 1.8250
" />
<path d="M1.9750 1.8250
L3.9500 1.8250
" />
<path d="M2.0250 5.7250
L2.0250 5.7910
" />
<path d="M2.0250 5.7910
L2.0250 6.1240
" />
<path d="M2.0250 5.7910
L8.2250 5.7910
" />
<path d="M2.0250 6.1240
L2.0250 6.3250
" />
<path d="M2.0250 6.1240
L8.2250 6.1240
" />
<path d="M2.0250 6.3250
L8.2250 6.3250
" />
<path d="M2.2760 0.7250
L2.2820 0.7250
" />
<path d="M2.2760 1.5250
L1.9750 1.5250
" />
<path d="M2.2760 1.5250
L2.2760 0.7250
" />
<path d="M2.2800 4.6750
L2.2830 4.7010
" />
<path d="M2.2820 0.7250
L2.2880 0.7250
" />
<path d="M2.2820 1.5250
L2.2760 1.5250
" />
<path d="M2.2830 4.6490
L2.2800 4.6750
" />
<path d="M2.2830 4.7010
L2.2930 4.7250
" />
<path d="M2.2880 0.7250
L2.2930 0.7250
" />
<path d="M2.2880 1.5250
L2.2820 1.5250
" />
<path d="M2.2930 0.7250
L2.2990 0.7250
" />
<path d="M2.2930 1.5250
L2.2880 1.5250
" />
<path d="M2.2930 4.6250
L2.2830 4.6490
" />
<path d="M2.2930 4.7250
L2.3090 4.7460
" />
<path d="M2.2990 0.7250
L2.3050 0.7250
" />
<path d="M2.2990 1.5250
L2.2930 1.5250
" />
<path d="M2.3050 0.7250
L2.3110 0.7250
" />
<path d="M2.3050 1.5250
L2.2990 1.5250
" />
<path d="M2.3090 4.7460
L2.3300 4.7620
" />
<path d="M2.3110 0.7250
L2.3160 0.7250
" />
<path d="M2.3110 1.5250
L2.3050 1.5250
" />
<path d="M2.3160 0.7250
L2.3220 0.7250
" />
<path d="M2.3160 1.5250
L2.3110 1.5250
" />
<path d="M2.3220 0.7250
L2.3270 0.7250
" />
<path d="M2.3220 1.5250
L2.3160 1.5250
" />
<path d="M2.3270 0.7250
L2.3320 0.7250
" />
<path d="M2.3270 1.5250
L2.3220 1.5250
" />
<path d="M2.3300 4.7620
L2.3540 4.7720
" />
<path d="M2.3320 0.7250
L2.3370 0.7250
" />
<path d="M2.3320 1.5250
L2.3270 1.5250
" />
<path d="M2.3370 0.7250
L2.3410 0.7250
" />
<path d="M2.3370 1.5250
L2.3320 1.5250
" />
<path d="M2.3410 0.7250
L2.3460 0.7250
" />
<path d="M2.3410 1.5250
L2.3370 1.5250
" />
<path d="M2.3460 0.7250
L2.3500 0.7250
" />
<path d="M2.3460 1.5250
L2.3410 1.5250
" />
<path d="M2.3500 0.7250
L3.1250 0.7250
" />
<path d="M2.3500 1.5250
L2.3460 1.5250
" />
<path d="M2.3500 1.5250
L2.3500 0.7250
" />
<path d="M2.3500 1.5250
L2.5910 1.5250
" />
<path d="M2.3540 4.7720
L2.3800 4.7750
" />
<path d="M2.3800 3.2750
L2.3800 4.4750
" />
<path d="M2.3800 4.3250
L2.4350 4.3250
" />
<path d="M2.3800 4.4750
L2.2930 4.6250
" />
<path d="M2.3800 5.1210
L2.3800 4.7750
" />
<path d="M2.3800 5.2310
L2.3800 5.1210
" />
<path d="M2.4350 4.0250
L2.3800 4.0250
" />
<path d="M2.4350 4.0250
L2.4350 4.3250
" />
<path d="M2.5910 1.4750
L2.5910 1.5250
" />
<path d="M2.5910 1.4750
L3.9500 1.4750
" />
<path d="M3.1200 3.2750
L2.3800 3.2750
" />
<path d="M3.1200 4.4750
L3.1200 3.2750
" />
<path d="M3.1200 4.7750
L2.3800 4.7750
" />
<path d="M3.1200 4.7750
L3.1460 4.7720
" />
<path d="M3.1200 5.1210
L2.3800 5.1210
" />
<path d="M3.1200 5.1210
L3.1200 4.7750
" />
<path d="M3.1200 5.2310
L2.3800 5.2310
" />
<path d="M3.1200 5.2310
L3.1200 5.1210
" />
<path d="M3.1250 0.7250
L3.1250 1.4750
" />
<path d="M3.1460 4.7720
L3.1700 4.7620
" />
<path d="M3.1700 4.7620
L3.1910 4.7460
" />
<path d="M3.1910 4.7460
L3.2070 4.7250
" />
<path d="M3.2070 4.6250
L3.1200 4.4750
" />
<path d="M3.2070 4.7250
L3.2170 4.7010
" />
<path d="M3.2170 4.6490
L3.2070 4.6250
" />
<path d="M3.2170 4.7010
L3.2200 4.6750
" />
<path d="M3.2200 4.6750
L3.2170 4.6490
" />
<path d="M3.2250 0.7250
L3.2250 1.0250
" />
<path d="M3.2250 0.7250
L3.9500 0.7250
" />
<path d="M3.2250 1.0250
L3.9500 1.0250
" />
<path d="M3.7000 1.0250
L3.7000 1.2250
" />
<path d="M3.7000 1.2250
L3.7000 1.2360
" />
<path d="M3.7000 1.2250
L3.9500 1.2250
" />
<path d="M3.7000 1.2360
L3.7000 1.2470
" />
<path d="M3.7000 1.2470
L3.7000 1.2580
" />
<path d="M3.7000 1.2580
L3.7000 1.2680
" />
<path d="M3.7000 1.2680
L3.7000 1.2780
" />
<path d="M3.7000 1.2780
L3.7000 1.2870
" />
<path d="M3.7000 1.2870
L3.7000 1.2960
" />
<path d="M3.7000 1.2960
L3.7000 1.3030
" />
<path d="M3.7000 1.3030
L3.7000 1.3100
" />
<path d="M3.7000 1.3100
L3.7000 1.3150
" />
<path d="M3.7000 1.3150
L3.7000 1.3190
" />
<path d="M3.7000 1.3190
L3.7000 1.3220
" />
<path d="M3.7000 1.3220
L3.7000 1.3240
" />
<path d="M3.7000 1.3240
L3.7000 1.3250
" />
<path d="M3.7000 1.3250
L3.7000 1.3260
" />
<path d="M3.7000 1.3250
L3.9500 1.3250
" />
<path d="M3.7000 1.3260
L3.7000 1.3280
" />
<path d="M3.7000 1.3280
L3.7000 1.3330
" />
<path d="M3.7000 1.3330
L3.7000 1.3390
" />
<path d="M3.7000 1.3390
L3.7000 1.3460
" />
<path d="M3.7000 1.3460
L3.7000 1.3550
" />
<path d="M3.7000 1.3550
L3.7000 1.3660
" />
<path d="M3.7000 1.3660
L3.7000 1.3780
" />
<path d="M3.7000 1.3780
L3.7000 1.3910
" />
<path d="M3.7000 1.3910
L3.7000 1.4060
" />
<path d="M3.7000 1.4060
L3.7000 1.4220
" />
<path d="M3.7000 1.4220
L3.7000 1.4390
" />
<path d="M3.7000 1.4390
L3.7000 1.4560
" />
<path d="M3.7000 1.4560
L3.7000 1.4750
" />
<path d="M3.9500 0.7250
L4.3500 0.7250
" />
<path d="M3.9500 0.7260
L3.9500 0.7250
" />
<path d="M3.9500 0.7280
L3.9500 0.7260
" />
<path d="M3.9500 0.7310
L3.9500 0.7280
" />
<path d="M3.9500 0.7350
L3.9500 0.7310
" />
<path d="M3.9500 0.7400
L3.9500 0.7350
" />
<path d="M3.9500 0.7470
L3.9500 0.7400
" />
<path d="M3.9500 0.7540
L3.9500 0.7470
" />
<path d="M3.9500 0.7630
L3.9500 0.7540
" />
<path d="M3.9500 0.7720
L3.9500 0.7630
" />
<path d="M3.9500 0.7820
L3.9500 0.7720
" />
<path d="M3.9500 0.7920
L3.9500 0.7820
" />
<path d="M3.9500 0.8030
L3.9500 0.7920
" />
<path d="M3.9500 0.8140
L3.9500 0.8030
" />
<path d="M3.9500 0.8250
L3.9500 0.8140
" />
<path d="M3.9500 0.8250
L3.9500 1.8250
" />
<path d="M3.9500 0.8250
L4.3500 0.8250
" />
<path d="M4.3500 0.7250
L4.3500 0.7260
" />
<path d="M4.3500 0.7250
L4.3510 0.7250
" />
<path d="M4.3500 0.7260
L4.3500 0.7280
" />
<path d="M4.3500 0.7280
L4.3500 0.7310
" />
<path d="M4.3500 0.7310
L4.3500 0.7350
" />
<path d="M4.3500 0.7350
L4.3500 0.7400
" />
<path d="M4.3500 0.7400
L4.3500 0.7470
" />
<path d="M4.3500 0.7470
L4.3500 0.7540
" />
<path d="M4.3500 0.7540
L4.3500 0.7630
" />
<path d="M4.3500 0.7630
L4.3500 0.7720
" />
<path d="M4.3500 0.7720
L4.3500 0.7820
" />
<path d="M4.3500 0.7820
L4.3500 0.7920
" />
<path d="M4.3500 0.7920
L4.3500 0.8030
" />
<path d="M4.3500 0.8030
L4.3500 0.8140
" />
<path d="M4.3500 0.8140
L4.3500 0.8250
" />
<path d="M4.3500 0.8250
L4.3500 1.8250
" />
<path d="M4.3500 1.2250
L4.6000 1.2250
" />
<path d="M4.3500 1.3250
L4.6000 1.3250
" />
<path d="M4.3500 1.8250
L5.9000 1.8250
" />
<path d="M4.3510 0.7250
L4.3530 0.7250
" />
<path d="M4.3510 1.0250
L4.3500 1.0250
" />
<path d="M4.3530 0.7250
L4.3560 0.7250
" />
<path d="M4.3530 1.0250
L4.3510 1.0250
" />
<path d="M4.3560 0.7250
L4.3600 0.7250
" />
<path d="M4.3560 1.0250
L4.3530 1.0250
" />
<path d="M4.3600 0.7250
L4.3650 0.7250
" />
<path d="M4.3600 1.0250
L4.3560 1.0250
" />
<path d="M4.3650 0.7250
L4.3720 0.7250
" />
<path d="M4.3650 1.0250
L4.3600 1.0250
" />
<path d="M4.3720 0.7250
L4.3790 0.7250
" />
<path d="M4.3720 1.0250
L4.3650 1.0250
" />
<path d="M4.3790 0.7250
L4.3880 0.7250
" />
<path d="M4.3790 1.0250
L4.3720 1.0250
" />
<path d="M4.3880 0.7250
L4.3970 0.7250
" />
<path d="M4.3880 1.0250
L4.3790 1.0250
" />
<path d="M4.3970 0.7250
L4.4070 0.7250
" />
<path d="M4.3970 1.0250
L4.3880 1.0250
" />
<path d="M4.4070 0.7250
L4.4170 0.7250
" />
<path d="M4.4070 1.0250
L4.3970 1.0250
" />
<path d="M4.4170 0.7250
L4.4280 0.7250
" />
<path d="M4.4170 1.0250
L4.4070 1.0250
" />
<path d="M4.4280 0.7250
L4.4390 0.7250
" />
<path d="M4.4280 1.0250
L4.4170 1.0250
" />
<path d="M4.4390 0.7250
L4.4500 0.7250
" />
<path d="M4.4390 1.0250
L4.4280 1.0250
" />
<path d="M4.4500 0.7250
L5.8000 0.7250
" />
<path d="M4.4500 1.0250
L4.4390 1.0250
" />
<path d="M4.4500 1.0250
L4.4500 0.7250
" />
<path d="M4.4500 1.0250
L5.8000 1.0250
" />
<path d="M4.6000 1.0250
L4.6000 1.2250
" />
<path d="M4.6000 1.2250
L4.6000 1.2360
" />
<path d="M4.6000 1.2360
L4.6000 1.2470
" />
<path d="M4.6000 1.2470
L4.6000 1.2580
" />
<path d="M4.6000 1.2580
L4.6000 1.2680
" />
<path d="M4.6000 1.2680
L4.6000 1.2780
" />
<path d="M4.6000 1.2780
L4.6000 1.2870
" />
<path d="M4.6000 1.2870
L4.6000 1.2960
" />
<path d="M4.6000 1.2960
L4.6000 1.3030
" />
<path d="M4.6000 1.3030
L4.6000 1.3100
" />
<path d="M4.6000 1.3100
L4.6000 1.3150
" />
<path d="M4.6000 1.3150
L4.6000 1.3190
" />
<path d="M4.6000 1.3190
L4.6000 1.3220
" />
<path d="M4.6000 1.3220
L4.6000 1.3240
" />
<path d="M4.6000 1.3240
L4.6000 1.3250
" />
<path d="M4.6000 1.3250
L4.6000 1.3260
" />
<path d="M4.6000 1.3260
L4.6000 1.3280
" />
<path d="M4.6000 1.3280
L4.6000 1.3330
" />
<path d="M4.6000 1.3330
L4.6000 1.3390
" />
<path d="M4.6000 1.3390
L4.6000 1.3460
" />
<path d="M4.6000 1.3460
L4.6000 1.3550
" />
<path d="M4.6000 1.3550
L4.6000 1.3660
" />
<path d="M4.6000 1.3660
L4.6000 1.3780
" />
<path d="M4.6000 1.3780
L4.6000 1.3910
" />
<path d="M4.6000 1.3910
L4.6000 1.4060
" />
<path d="M4.6000 1.4060
L4.6000 1.4220
" />
<path d="M4.6000 1.4220
L4.6000 1.4390
" />
<path d="M4.6000 1.4390
L4.6000 1.4560
" />
<path d="M4.6000 1.4560
L4.6000 1.4750
" />
<path d="M5.0000 1.0250
L5.0000 1.2250
" />
<path d="M5.0000 1.2250
L5.0000 1.2360
" />
<path d="M5.0000 1.2250
L5.2500 1.2250
" />
<path d="M5.0000 1.2360
L5.0000 1.2470
" />
<path d="M5.0000 1.2470
L5.0000 1.2580
" />
<path d="M5.0000 1.2580
L5.0000 1.2680
" />
<path d="M5.0000 1.2680
L5.0000 1.2780
" />
<path d="M5.0000 1.2780
L5.0000 1.2870
" />
<path d="M5.0000 1.2870
L5.0000 1.2960
" />
<path d="M5.0000 1.2960
L5.0000 1.3030
" />
<path d="M5.0000 1.3030
L5.0000 1.3100
" />
<path d="M5.0000 1.3100
L5.0000 1.3150
" />
<path d="M5.0000 1.3150
L5.0000 1.3190
" />
<path d="M5.0000 1.3190
L5.0000 1.3220
" />
<path d="M5.0000 1.3220
L5.0000 1.3240
" />
<path d="M5.0000 1.3240
L5.0000 1.3250
" />
<path d="M5.0000 1.3250
L5.0000 1.3260
" />
<path d="M5.0000 1.3250
L5.2500 1.3250
" />
<path d="M5.0000 1.3260
L5.0000 1.3280
" />
<path d="M5.0000 1.3280
L5.0000 1.3330
" />
<path d="M5.0000 1.3330
L5.0000 1.3390
" />
<path d="M5.0000 1.3390
L5.0000 1.3460
" />
<path d="M5.0000 1.3460
L5.0000 1.3550
" />
<path d="M5.0000 1.3550
L5.0000 1.3660
" />
<path d="M5.0000 1.3660
L5.0000 1.3780
" />
<path d="M5.0000 1.3780
L5.0000 1.3910
" />
<path d="M5.0000 1.3910
L5.0000 1.4060
" />
<path d="M5.0000 1.4060
L5.0000 1.4220
" />
<path d="M5.0000 1.4220
L5.0000 1.4390
" />
<path d="M5.0000 1.4390
L5.0000 1.4560
" />
<path d="M5.0000 1.4560
L5.0000 1.4750
" />
<path d="M5.2500 1.0250
L5.2500 1.2250
" />
<path d="M5.2500 1.2250
L5.2500 1.2360
" />
<path d="M5.2500 1.2360
L5.2500 1.2470
" />
<path d="M5.2500 1.2470
L5.2500 1.2580
" />
<path d="M5.2500 1.2580
L5.2500 1.2680
" />
<path d="M5.2500 1.2680
L5.2500 1.2780
" />
<path d="M5.2500 1.2780
L5.2500 1.2870
" />
<path d="M5.2500 1.2870
L5.2500 1.2960
" />
<path d="M5.2500 1.2960
L5.2500 1.3030
" />
<path d="M5.2500 1.3030
L5.2500 1.3100
" />
<path d="M5.2500 1.3100
L5.2500 1.3150
" />
<path d="M5.2500 1.3150
L5.2500 1.3190
" />
<path d="M5.2500 1.3190
L5.2500 1.3220
" />
<path d="M5.2500 1.3220
L5.2500 1.3240
" />
<path d="M5.2500 1.3240
L5.2500 1.3250
" />
<path d="M5.2500 1.3250
L5.2500 1.3260
" />
<path d="M5.2500 1.3260
L5.2500 1.3280
" />
<path d="M5.2500 1.3280
L5.2500 1.3330
" />
<path d="M5.2500 1.3330
L5.2500 1.3390
" />
<path d="M5.2500 1.3390
L5.2500 1.3460
" />
<path d="M5.2500 1.3460
L5.2500 1.3550
" />
<path d="M5.2500 1.3550
L5.2500 1.3660
" />
<path d="M5.2500 1.3660
L5.2500 1.3780
" />
<path d="M5.2500 1.3780
L5.2500 1.3910
" />
<path d="M5.2500 1.3910
L5.2500 1.4060
" />
<path d="M5.2500 1.4060
L5.2500 1.4220
" />
<path d="M5.2500 1.4220
L5.2500 1.4390
" />
<path d="M5.2500 1.4390
L5.2500 1.4560
" />
<path d="M5.2500 1.4560
L5.2500 1.4750
" />
<path d="M5.6500 1.0250
L5.6500 1.2250
" />
<path d="M5.6500 1.2250
L5.6500 1.2360
" />
<path d="M5.6500 1.2250
L5.9000 1.2250
" />
<path d="M5.6500 1.2360
L5.6500 1.2470
" />
<path d="M5.6500 1.2470
L5.6500 1.2580
" />
<path d="M5.6500 1.2580
L5.6500 1.2680
" />
<path d="M5.6500 1.2680
L5.6500 1.2780
" />
<path d="M5.6500 1.2780
L5.6500 1.2870
" />
<path d="M5.6500 1.2870
L5.6500 1.2960
" />
<path d="M5.6500 1.2960
L5.6500 1.3030
" />
<path d="M5.6500 1.3030
L5.6500 1.3100
" />
<path d="M5.6500 1.3100
L5.6500 1.3150
" />
<path d="M5.6500 1.3150
L5.6500 1.3190
" />
<path d="M5.6500 1.3190
L5.6500 1.3220
" />
<path d="M5.6500 1.3220
L5.6500 1.3240
" />
<path d="M5.6500 1.3240
L5.6500 1.3250
" />
<path d="M5.6500 1.3250
L5.6500 1.3260
" />
<path d="M5.6500 1.3250
L5.9000 1.3250
" />
<path d="M5.6500 1.3260
L5.6500 1.3280
" />
<path d="M5.6500 1.3280
L5.6500 1.3330
" />
<path d="M5.6500 1.3330
L5.6500 1.3390
" />
<path d="M5.6500 1.3390
L5.6500 1.3460
" />
<path d="M5.6500 1.3460
L5.6500 1.3550
" />
<path d="M5.6500 1.3550
L5.6500 1.3660
" />
<path d="M5.6500 1.3660
L5.6500 1.3780
" />
<path d="M5.6500 1.3780
L5.6500 1.3910
" />
<path d="M5.6500 1.3910
L5.6500 1.4060
" />
<path d="M5.6500 1.4060
L5.6500 1.4220
" />
<path d="M5.6500 1.4220
L5.6500 1.4390
" />
<path d="M5.6500 1.4390
L5.6500 1.4560
" />
<path d="M5.6500 1.4560
L5.6500 1.4750
" />
<path d="M5.8000 0.7250
L5.8110 0.7250
" />
<path d="M5.8000 1.0250
L5.8000 0.7250
" />
<path d="M5.8110 0.7250
L5.8220 0.7250
" />
<path d="M5.8110 1.0250
L5.8000 1.0250
" />
<path d="M5.8220 0.7250
L5.8330 0.7250
" />
<path d="M5.8220 1.0250
L5.8110 1.0250
" />
<path d="M5.8330 0.7250
L5.8430 0.7250
" />
<path d="M5.8330 1.0250
L5.8220 1.0250
" />
<path d="M5.8430 0.7250
L5.8530 0.7250
" />
<path d="M5.8430 1.0250
L5.8330 1.0250
" />
<path d="M5.8530 0.7250
L5.8620 0.7250
" />
<path d="M5.8530 1.0250
L5.8430 1.0250
" />
<path d="M5.8620 0.7250
L5.8710 0.7250
" />
<path d="M5.8620 1.0250
L5.8530 1.0250
" />
<path d="M5.8710 0.7250
L5.8780 0.7250
" />
<path d="M5.8710 1.0250
L5.8620 1.0250
" />
<path d="M5.8780 0.7250
L5.8850 0.7250
" />
<path d="M5.8780 1.0250
L5.8710 1.0250
" />
<path d="M5.8850 0.7250
L5.8900 0.7250
" />
<path d="M5.8850 1.0250
L5.8780 1.0250
" />
<path d="M5.8900 0.7250
L5.8940 0.7250
" />
<path d="M5.8900 1.0250
L5.8850 1.0250
" />
<path d="M5.8940 0.7250
L5.8970 0.7250
" />
<path d="M5.8940 1.0250
L5.8900 1.0250
" />
<path d="M5.8970 0.7250
L5.8990 0.7250
" />
<path d="M5.8970 1.0250
L5.8940 1.0250
" />
<path d="M5.8990 0.7250
L5.9000 0.7250
" />
<path d="M5.8990 1.0250
L5.8970 1.0250
" />
<path d="M5.9000 0.7250
L6.3000 0.7250
" />
<path d="M5.9000 0.7260
L5.9000 0.7250
" />
<path d="M5.9000 0.7280
L5.9000 0.7260
" />
<path d="M5.9000 0.7310
L5.9000 0.7280
" />
<path d="M5.9000 0.7350
L5.9000 0.7310
" />
<path d="M5.9000 0.7400
L5.9000 0.7350
" />
<path d="M5.9000 0.7470
L5.9000 0.7400
" />
<path d="M5.9000 0.7540
L5.9000 0.7470
" />
<path d="M5.9000 0.7630
L5.9000 0.7540
" />
<path d="M5.9000 0.7720
L5.9000 0.7630
" />
<path d="M5.9000 0.7820
L5.9000 0.7720
" />
<path d="M5.9000 0.7920
L5.9000 0.7820
" />
<path d="M5.9000 0.8030
L5.9000 0.7920
" />
<path d="M5.9000 0.8140
L5.9000 0.8030
" />
<path d="M5.9000 0.8250
L5.9000 0.8140
" />
<path d="M5.9000 0.8250
L5.9000 1.8250
" />
<path d="M5.9000 0.8250
L6.3000 0.8250
" />
<path d="M5.9000 1.0250
L5.8990 1.0250
" />
<path d="M5.9000 1.4750
L4.3500 1.4750
" />
<path d="M6.3000 0.7250
L6.3000 0.7260
" />
<path d="M6.3000 0.7250
L7.0250 0.7250
" />
<path d="M6.3000 0.7260
L6.3000 0.7280
" />
<path d="M6.3000 0.7280
L6.3000 0.7310
" />
<path d="M6.3000 0.7310
L6.3000 0.7350
" />
<path d="M6.3000 0.7350
L6.3000 0.7400
" />
<path d="M6.3000 0.7400
L6.3000 0.7470
" />
<path d="M6.3000 0.7470
L6.3000 0.7540
" />
<path d="M6.3000 0.7540
L6.3000 0.7630
" />
<path d="M6.3000 0.7630
L6.3000 0.7720
" />
<path d="M6.3000 0.7720
L6.3000 0.7820
" />
<path d="M6.3000 0.7820
L6.3000 0.7920
" />
<path d="M6.3000 0.7920
L6.3000 0.8030
" />
<path d="M6.3000 0.8030
L6.3000 0.8140
" />
<path d="M6.3000 0.8140
L6.3000 0.8250
" />
<path d="M6.3000 0.8250
L6.3000 1.8250
" />
<path d="M6.3000 1.0250
L7.0250 1.0250
" />
<path d="M6.3000 1.2250
L6.5500 1.2250
" />
<path d="M6.3000 1.3250
L6.5500 1.3250
" />
<path d="M6.3000 1.4750
L7.6590 1.4750
" />
<path d="M6.3000 1.8250
L8.2750 1.8250
" />
<path d="M6.5500 1.0250
L6.5500 1.2250
" />
<path d="M6.5500 1.2250
L6.5500 1.2360
" />
<path d="M6.5500 1.2360
L6.5500 1.2470
" />
<path d="M6.5500 1.2470
L6.5500 1.2580
" />
<path d="M6.5500 1.2580
L6.5500 1.2680
" />
<path d="M6.5500 1.2680
L6.5500 1.2780
" />
<path d="M6.5500 1.2780
L6.5500 1.2870
" />
<path d="M6.5500 1.2870
L6.5500 1.2960
" />
<path d="M6.5500 1.2960
L6.5500 1.3030
" />
<path d="M6.5500 1.3030
L6.5500 1.3100
" />
<path d="M6.5500 1.3100
L6.5500 1.3150
" />
<path d="M6.5500 1.3150
L6.5500 1.3190
" />
<path d="M6.5500 1.3190
L6.5500 1.3220
" />
<path d="M6.5500 1.3220
L6.5500 1.3240
" />
<path d="M6.5500 1.3240
L6.5500 1.3250
" />
<path d="M6.5500 1.3250
L6.5500 1.3260
" />
<path d="M6.5500 1.3260
L6.5500 1.3280
" />
<path d="M6.5500 1.3280
L6.5500 1.3330
" />
<path d="M6.5500 1.3330
L6.5500 1.3390
" />
<path d="M6.5500 1.3390
L6.5500 1.3460
" />
<path d="M6.5500 1.3460
L6.5500 1.3550
" />
<path d="M6.5500 1.3550
L6.5500 1.3660
" />
<path d="M6.5500 1.3660
L6.5500 1.3780
" />
<path d="M6.5500 1.3780
L6.5500 1.3910
" />
<path d="M6.5500 1.3910
L6.5500 1.4060
" />
<path d="M6.5500 1.4060
L6.5500 1.4220
" />
<path d="M6.5500 1.4220
L6.5500 1.4390
" />
<path d="M6.5500 1.4390
L6.5500 1.4560
" />
<path d="M6.5500 1.4560
L6.5500 1.4750
" />
<path d="M7.0250 0.7250
L7.0250 1.0250
" />
<path d="M7.0300 4.6750
L7.0330 4.7010
" />
<path d="M7.0330 4.6490
L7.0300 4.6750
" />
<path d="M7.0330 4.7010
L7.0430 4.7250
" />
<path d="M7.0430 4.6250
L7.0330 4.6490
" />
<path d="M7.0430 4.7250
L7.0590 4.7460
" />
<path d="M7.0590 4.7460
L7.0800 4.7620
" />
<path d="M7.0800 4.7620
L7.1040 4.7720
" />
<path d="M7.1040 4.7720
L7.1300 4.7750
" />
<path d="M7.1250 0.7250
L7.1250 1.4750
" />
<path d="M7.1250 0.7250
L7.9000 0.7250
" />
<path d="M7.1300 3.2750
L7.1300 4.4750
" />
<path d="M7.1300 4.4750
L7.0430 4.6250
" />
<path d="M7.1300 5.1210
L7.1300 4.7750
" />
<path d="M7.1300 5.2310
L7.1300 5.1210
" />
<path d="M7.6590 1.4750
L7.6590 1.5250
" />
<path d="M7.6590 1.5250
L7.9000 1.5250
" />
<path d="M7.8150 4.3250
L7.8150 4.0250
" />
<path d="M7.8700 3.2750
L7.1300 3.2750
" />
<path d="M7.8700 4.0250
L7.8150 4.0250
" />
<path d="M7.8700 4.3250
L7.8150 4.3250
" />
<path d="M7.8700 4.4750
L7.8700 3.2750
" />
<path d="M7.8700 4.7750
L7.1300 4.7750
" />
<path d="M7.8700 4.7750
L7.8960 4.7720
" />
<path d="M7.8700 5.1210
L7.1300 5.1210
" />
<path d="M7.8700 5.1210
L7.8700 4.7750
" />
<path d="M7.8700 5.2310
L7.1300 5.2310
" />
<path d="M7.8700 5.2310
L7.8700 5.1210
" />
<path d="M7.8960 4.7720
L7.9200 4.7620
" />
<path d="M7.9000 0.7250
L7.9000 1.5250
" />
<path d="M7.9000 0.7250
L7.9040 0.7250
" />
<path d="M7.9040 0.7250
L7.9090 0.7250
" />
<path d="M7.9040 1.5250
L7.9000 1.5250
" />
<path d="M7.9090 0.7250
L7.9130 0.7250
" />
<path d="M7.9090 1.5250
L7.9040 1.5250
" />
<path d="M7.9130 0.7250
L7.9180 0.7250
" />
<path d="M7.9130 1.5250
L7.9090 1.5250
" />
<path d="M7.9180 0.7250
L7.9230 0.7250
" />
<path d="M7.9180 1.5250
L7.9130 1.5250
" />
<path d="M7.9200 4.7620
L7.9410 4.7460
" />
<path d="M7.9230 0.7250
L7.9280 0.7250
" />
<path d="M7.9230 1.5250
L7.9180 1.5250
" />
<path d="M7.9280 0.7250
L7.9340 0.7250
" />
<path d="M7.9280 1.5250
L7.9230 1.5250
" />
<path d="M7.9340 0.7250
L7.9390 0.7250
" />
<path d="M7.9340 1.5250
L7.9280 1.5250
" />
<path d="M7.9390 0.7250
L7.9450 0.7250
" />
<path d="M7.9390 1.5250
L7.9340 1.5250
" />
<path d="M7.9410 4.7460
L7.9570 4.7250
" />
<path d="M7.9450 0.7250
L7.9510 0.7250
" />
<path d="M7.9450 1.5250
L7.9390 1.5250
" />
<path d="M7.9510 0.7250
L7.9570 0.7250
" />
<path d="M7.9510 1.5250
L7.9450 1.5250
" />
<path d="M7.9570 0.7250
L7.9620 0.7250
" />
<path d="M7.9570 1.5250
L7.9510 1.5250
" />
<path d="M7.9570 4.6250
L7.8700 4.4750
" />
<path d="M7.9570 4.7250
L7.9670 4.7010
" />
<path d="M7.9620 0.7250
L7.9680 0.7250
" />
<path d="M7.9620 1.5250
L7.9570 1.5250
" />
<path d="M7.9670 4.6490
L7.9570 4.6250
" />
<path d="M7.9670 4.7010
L7.9700 4.6750
" />
<path d="M7.9680 0.7250
L7.9740 0.7250
" />
<path d="M7.9680 1.5250
L7.9620 1.5250
" />
<path d="M7.9700 4.6750
L7.9670 4.6490
" />
<path d="M7.9740 0.7250
L7.9740 1.5250
" />
<path d="M7.9740 0.7250
L8.3750 0.7250
" />
<path d="M7.9740 1.5250
L7.9680 1.5250
" />
<path d="M8.2250 5.7250
L8.2250 5.7910
" />
<path d="M8.2250 5.7250
L8.3750 5.7250
" />
<path d="M8.2250 5.7910
L8.2250 6.1240
" />
<path d="M8.2250 6.1240
L8.2250 6.3250
" />
<path d="M8.2750 1.5250
L7.9740 1.5250
" />
<path d="M8.2750 1.8250
L8.2750 1.5250
" />
<path d="M8.3750 0.7250
L8.3750 5.7250
" />
<path d="M8.3750 0.7250
L8.4310 0.7250
" />
<path d="M8.3750 5.7250
L8.4310 5.7250
" />
<path d="M8.4310 0.7250
L8.4860 0.7250
" />
<path d="M8.4310 5.7250
L8.4860 5.7250
" />
<path d="M8.4860 0.7250
L8.5400 0.7250
" />
<path d="M8.4860 5.7250
L8.5400 5.7250
" />
<path d="M8.5400 0.7250
L8.5920 0.7250
" />
<path d="M8.5400 5.7250
L8.5920 5.7250
" />
<path d="M8.5750 5.7250
L8.5750 5.8370
" />
<path d="M8.5750 5.8370
L8.5780 5.8800
" />
<path d="M8.5780 5.8800
L8.5880 5.9230
" />
<path d="M8.5880 5.9230
L8.6040 5.9640
" />
<path d="M8.5920 0.7250
L8.6410 0.7250
" />
<path d="M8.5920 5.7250
L8.6410 5.7250
" />
<path d="M8.6040 5.9640
L8.6250 6.0030
" />
<path d="M8.6250 6.0030
L8.6520 6.0370
" />
<path d="M8.6410 0.7250
L8.6870 0.7250
" />
<path d="M8.6410 5.7250
L8.6870 5.7250
" />
<path d="M8.6520 6.0370
L8.9020 6.3150
" />
<path d="M8.6870 0.7250
L8.7290 0.7250
" />
<path d="M8.6870 5.7250
L8.7290 5.7250
" />
<path d="M8.7290 0.7250
L8.7660 0.7250
" />
<path d="M8.7290 5.7250
L8.7660 5.7250
" />
<path d="M8.7660 0.7250
L8.7980 0.7250
" />
<path d="M8.7660 5.7250
L8.7980 5.7250
" />
<path d="M8.7980 0.7250
L8.8250 0.7250
" />
<path d="M8.7980 5.7250
L8.8250 5.7250
" />
<path d="M8.8250 0.7250
L8.8470 0.7250
" />
<path d="M8.8250 5.7250
L8.8470 5.7250
" />
<path d="M8.8470 0.7250
L8.8620 0.7250
" />
<path d="M8.8470 5.7250
L8.8620 5.7250
" />
<path d="M8.8620 0.7250
L8.8720 0.7250
" />
<path d="M8.8620 5.7250
L8.8720 5.7250
" />
<path d="M8.8720 0.7250
L8.8750 0.7250
" />
<path d="M8.8720 5.7250
L8.8750 5.7250
" />
<path d="M8.8750 0.7250
L8.8750 5.7250
" />
<path d="M8.8750 5.8370
L8.8750 5.7250
" />
<path d="M8.9020 6.3150
L9.1250 6.1140
" />
<path d="M9.1250 6.1140
L8.8750 5.8370
" />
<path d="M9.3250 3.1250
L8.8750 3.1250
" />
<path d="M9.3250 4.0250
L8.8750 4.0250
" />
<path d="M9.3250 4.0250
L9.3640 4.0210
" />
<path d="M9.3640 3.1290
L9.3250 3.1250
" />
<path d="M9.3640 4.0210
L9.4020 4.0100
" />
<path d="M9.4020 3.1400
L9.3640 3.1290
" />
<path d="M9.4020 4.0100
L9.4360 3.9910
" />
<path d="M9.4360 3.1590
L9.4020 3.1400
" />
<path d="M9.4360 3.9910
L9.4660 3.9660
" />
<path d="M9.4660 3.1840
L9.4360 3.1590
" />
<path d="M9.4660 3.9660
L9.4910 3.9360
" />
<path d="M9.4910 3.2140
L9.4660 3.1840
" />
<path d="M9.4910 3.9360
L9.5100 3.9020
" />
<path d="M9.5100 3.2480
L9.4910 3.2140
" />
<path d="M9.5100 3.9020
L9.5210 3.8640
" />
<path d="M9.5210 3.2860
L9.5100 3.2480
" />
<path d="M9.5210 3.8640
L9.5250 3.8250
" />
<path d="M9.5250 3.3250
L9.5210 3.2860
" />
<path d="M9.5250 3.3250
L9.5250 3.8250
" />
</g> 
</svg>
