<?xml version="1.0" standalone="no"?>
 <!DOCTYPE svg PUBLIC "-//W3C//DTD SVG 1.1//EN" 
 "http://www.w3.org/Graphics/SVG/1.1/DTD/svg11.dtd"> 
<svg
  xmlns:svg="http://www.w3.org/2000/svg"
  xmlns="http://www.w3.org/2000/svg"
  xmlns:xlink="http://www.w3.org/1999/xlink"
  version="1.1"
  width="12.4460mm" height="4.5466mm" viewBox="0.0000 0.0000 12.4460 4.5466">
<title>SVG Image created as outline.svg date 2025/06/16 09:17:52 </title>
  <desc>Image generated by PCBNEW </desc>
<g style="fill:#000000; fill-opacity:1.0000;stroke:#000000; stroke-opacity:1.0000;
stroke-linecap:round; stroke-linejoin:round;"
 transform="translate(0 0) scale(1 1)">
</g>
<g style="fill:none; 
stroke:#000000; stroke-width:0.0200; stroke-opacity:1; 
stroke-linecap:round; stroke-linejoin:round;">
<path d="M0.5230 1.2750
L0.5230 2.9250
" />
<path d="M0.5230 2.9250
L0.6540 2.9250
" />
<path d="M0.7150 2.0400
L1.1080 2.0400
" />
<path d="M0.7150 2.0580
L0.9250 2.0580
" />
<path d="M0.7150 2.8630
L0.6540 2.9250
" />
<path d="M0.7150 2.8630
L0.7150 2.0400
" />
<path d="M0.7150 3.0230
L0.7150 2.8630
" />
<path d="M0.7150 3.0230
L1.1640 3.0230
" />
<path d="M0.7150 3.0750
L0.7150 3.0230
" />
<path d="M0.7150 3.1230
L0.7150 3.0750
" />
<path d="M0.7150 3.1230
L0.7150 3.2220
" />
<path d="M0.7150 3.2220
L0.7150 3.4440
" />
<path d="M0.7150 3.4440
L0.7150 3.4520
" />
<path d="M0.7150 3.4520
L0.7150 3.4620
" />
<path d="M0.7150 3.4620
L0.7150 3.4700
" />
<path d="M0.7150 3.4700
L0.7180 3.4800
" />
<path d="M0.7150 3.4740
L0.7150 3.4230
" />
<path d="M0.7150 3.6250
L0.7150 3.4740
" />
<path d="M0.7180 3.4800
L0.7200 3.4880
" />
<path d="M0.7200 3.4880
L0.7220 3.4960
" />
<path d="M0.7220 3.4960
L0.7250 3.5040
" />
<path d="M0.7250 3.5040
L0.7280 3.5120
" />
<path d="M0.7280 3.5120
L0.7310 3.5200
" />
<path d="M0.7310 3.5200
L0.7360 3.5280
" />
<path d="M0.7360 3.5280
L0.7390 3.5360
" />
<path d="M0.7390 3.5360
L0.7440 3.5440
" />
<path d="M0.7440 3.5440
L0.7490 3.5520
" />
<path d="M0.7490 3.5520
L0.7550 3.5590
" />
<path d="M0.7550 3.5590
L0.7600 3.5650
" />
<path d="M0.7600 3.5650
L0.7660 3.5710
" />
</g>
<g style="fill:#000000; fill-opacity:1.0000; stroke:none;">
<circle cx="0.7660" cy="3.5710" r="0.0100" /> 
</g>
<g style="fill:none; 
stroke:#000000; stroke-width:0.0200; stroke-opacity:1; 
stroke-linecap:round; stroke-linejoin:round;">
<path d="M0.7660 3.5710
L0.7730 3.5770
" />
<path d="M0.7730 3.5770
L0.7790 3.5830
" />
<path d="M0.7790 3.5830
L0.7870 3.5890
" />
<path d="M0.7870 3.5890
L0.7950 3.5930
" />
<path d="M0.7950 3.5930
L0.8020 3.5990
" />
<path d="M0.8020 3.5990
L0.8100 3.6030
" />
<path d="M0.8100 3.6030
L0.8180 3.6070
" />
<path d="M0.8180 3.6070
L0.8260 3.6110
" />
<path d="M0.8260 3.6110
L0.8340 3.6130
" />
<path d="M0.8340 3.6130
L0.8420 3.6170
" />
<path d="M0.8350 3.0230
L0.8350 3.0750
" />
<path d="M0.8350 3.0750
L0.8350 3.1230
" />
<path d="M0.8350 3.1230
L0.7150 3.1230
" />
<path d="M0.8350 3.2220
L0.8350 3.1230
" />
<path d="M0.8350 3.4440
L0.8350 3.2220
" />
<path d="M0.8350 3.4440
L0.8350 3.4460
" />
<path d="M0.8350 3.4460
L0.8350 3.4500
" />
<path d="M0.8350 3.4500
L0.8350 3.4520
" />
<path d="M0.8350 3.4520
L0.8350 3.4560
" />
<path d="M0.8350 3.4560
L0.8350 3.4580
" />
<path d="M0.8350 3.4580
L0.8370 3.4620
" />
<path d="M0.8350 3.6130
L0.8350 3.6250
" />
<path d="M0.8350 3.6250
L0.7150 3.6250
" />
<path d="M0.8370 3.4620
L0.8370 3.4640
" />
<path d="M0.8370 3.4640
L0.8380 3.4660
" />
<path d="M0.8380 3.4660
L0.8400 3.4700
" />
<path d="M0.8400 3.4700
L0.8420 3.4720
" />
<path d="M0.8420 3.4720
L0.8430 3.4740
" />
<path d="M0.8420 3.6170
L0.8500 3.6190
" />
<path d="M0.8430 3.4740
L0.8450 3.4780
" />
<path d="M0.8450 3.4780
L0.8450 3.4800
" />
<path d="M0.8450 3.4800
L0.8480 3.4820
" />
<path d="M0.8480 3.4820
L0.8500 3.4840
" />
<path d="M0.8500 3.4840
L0.8510 3.4860
" />
<path d="M0.8500 3.6190
L0.8580 3.6210
" />
</g>
<g style="fill:#000000; fill-opacity:1.0000; stroke:none;">
<circle cx="0.8510" cy="3.4860" r="0.0100" /> 
</g>
<g style="fill:none; 
stroke:#000000; stroke-width:0.0200; stroke-opacity:1; 
stroke-linecap:round; stroke-linejoin:round;">
<path d="M0.8510 3.4860
L0.8530 3.4880
" />
<path d="M0.8530 3.4880
L0.8560 3.4900
" />
<path d="M0.8560 3.4900
L0.8580 3.4920
" />
<path d="M0.8580 3.4920
L0.8610 3.4940
" />
<path d="M0.8580 3.6210
L0.8670 3.6230
" />
<path d="M0.8610 3.4940
L0.8640 3.4960
" />
<path d="M0.8640 3.4960
L0.8660 3.4960
" />
<path d="M0.8660 3.4960
L0.8690 3.4980
" />
<path d="M0.8670 3.6230
L0.8770 3.6230
" />
<path d="M0.8690 3.4980
L0.8400 3.4700
" />
<path d="M0.8690 3.4980
L0.8720 3.5000
" />
<path d="M0.8720 3.5000
L0.8740 3.5000
" />
<path d="M0.8740 3.5000
L0.8770 3.5020
" />
<path d="M0.8770 3.5020
L0.8800 3.5020
" />
<path d="M0.8770 3.6230
L0.8850 3.6230
" />
<path d="M0.8800 3.5020
L0.8820 3.5020
" />
<path d="M0.8820 3.5020
L0.8850 3.5040
" />
<path d="M0.8850 3.5040
L0.8880 3.5040
" />
<path d="M0.8850 3.6230
L0.8950 3.6250
" />
<path d="M0.8880 3.5040
L0.8910 3.5040
" />
<path d="M0.8910 3.5040
L0.8950 3.5040
" />
<path d="M0.8950 3.5040
L0.8960 3.5040
" />
<path d="M0.8950 3.6250
L0.9030 3.6230
" />
<path d="M0.8960 3.5040
L0.8990 3.5040
" />
<path d="M0.8990 3.5040
L0.9030 3.5040
" />
<path d="M0.9030 3.5040
L0.9060 3.5020
" />
<path d="M0.9030 3.6230
L0.9110 3.6230
" />
<path d="M0.9060 3.5020
L0.9070 3.5020
" />
<path d="M0.9070 3.5020
L0.9110 3.5020
" />
<path d="M0.9110 3.5020
L0.9140 3.5000
" />
<path d="M0.9110 3.6230
L0.9200 3.6230
" />
<path d="M0.9140 3.5000
L0.9150 3.5000
" />
<path d="M0.9150 3.5000
L0.9190 3.4980
" />
<path d="M0.9190 3.4980
L0.9200 3.4980
" />
<path d="M0.9200 3.4980
L0.9220 3.4960
" />
<path d="M0.9200 3.6230
L0.9280 3.6210
" />
<path d="M0.9220 3.4960
L0.9250 3.4960
" />
<path d="M0.9250 2.3240
L1.1080 2.3240
" />
<path d="M0.9250 2.5230
L0.9250 2.0580
" />
<path d="M0.9250 3.4960
L0.9280 3.4940
" />
<path d="M0.9280 3.4940
L0.9300 3.4920
" />
<path d="M0.9280 3.6210
L0.9360 3.6190
" />
<path d="M0.9300 3.4920
L0.9310 3.4900
" />
<path d="M0.9310 3.4900
L0.9330 3.4880
" />
<path d="M0.9330 3.4880
L0.9360 3.4880
" />
<path d="M0.9360 3.4880
L0.9380 3.4860
" />
<path d="M0.9360 3.6190
L0.9440 3.6170
" />
<path d="M0.9380 3.4860
L0.9390 3.4840
" />
<path d="M0.9390 3.4840
L0.9410 3.4820
" />
<path d="M0.9410 3.4820
L0.9430 3.4800
" />
<path d="M0.9430 3.4800
L0.9440 3.4760
" />
<path d="M0.9440 3.4760
L0.9460 3.4740
" />
<path d="M0.9440 3.6170
L0.9520 3.6150
" />
<path d="M0.9460 3.4740
L0.9470 3.4720
" />
<path d="M0.9470 3.4720
L0.9490 3.4700
" />
<path d="M0.9490 3.4680
L0.9510 3.4640
" />
<path d="M0.9490 3.4700
L0.9490 3.4680
" />
<path d="M0.9510 3.4640
L0.9520 3.4620
" />
<path d="M0.9520 3.4560
L0.9540 3.4540
" />
<path d="M0.9520 3.4600
L0.9520 3.4560
" />
<path d="M0.9520 3.4620
L0.9520 3.4600
" />
<path d="M0.9520 3.6150
L0.9590 3.6110
" />
<path d="M0.9540 3.4540
L0.9540 3.4520
" />
<path d="M0.9590 3.6110
L0.9670 3.6090
" />
<path d="M0.9650 2.3240
L0.9650 2.5230
" />
<path d="M0.9650 3.0230
L0.9650 3.3650
" />
<path d="M0.9650 3.6090
L0.9650 3.6250
" />
<path d="M0.9650 3.6250
L1.0390 3.6250
" />
<path d="M0.9670 3.6090
L0.9730 3.6050
" />
<path d="M0.9730 3.6050
L0.9810 3.6010
" />
<path d="M0.9810 3.2220
L0.9540 3.4520
" />
<path d="M0.9810 3.6010
L0.9880 3.5970
" />
<path d="M0.9880 3.5970
L0.9940 3.5930
" />
<path d="M0.9890 3.1530
L0.9810 3.2220
" />
<path d="M0.9890 3.1530
L1.0230 3.1270
" />
<path d="M0.9940 3.5930
L1.0000 3.5890
" />
<path d="M1.0000 3.5890
L1.0070 3.5830
" />
<path d="M1.0070 3.5830
L1.0130 3.5790
" />
<path d="M1.0130 3.5790
L1.0200 3.5730
" />
<path d="M1.0200 3.5730
L1.0240 3.5670
" />
<path d="M1.0230 0.7750
L1.0230 1.2750
" />
<path d="M1.0230 1.2750
L0.5230 1.2750
" />
<path d="M1.0230 3.1270
L1.0820 3.1340
" />
<path d="M1.0240 3.5670
L1.0310 3.5610
" />
<path d="M1.0310 3.5610
L1.0360 3.5550
" />
<path d="M1.0360 3.5550
L1.0400 3.5500
" />
<path d="M1.0390 3.6250
L1.1080 3.5550
" />
<path d="M1.0400 3.5500
L1.0450 3.5420
" />
<path d="M1.0450 3.5420
L1.0500 3.5360
" />
<path d="M1.0500 3.5360
L1.0530 3.5280
" />
<path d="M1.0530 3.5280
L1.0560 3.5220
" />
<path d="M1.0560 3.5220
L1.0600 3.5140
" />
<path d="M1.0600 3.5140
L1.0630 3.5060
" />
<path d="M1.0630 2.5230
L0.9250 2.5230
" />
<path d="M1.0630 2.5230
L1.1640 2.5230
" />
<path d="M1.0630 2.6600
L1.0630 2.5230
" />
<path d="M1.0630 2.6600
L1.3100 2.6600
" />
<path d="M1.0630 3.5060
L1.0660 3.4980
" />
<path d="M1.0660 3.4980
L1.0680 3.4900
" />
<path d="M1.0680 3.4900
L1.0690 3.4820
" />
<path d="M1.0690 3.4820
L1.0710 3.4740
" />
<path d="M1.0710 3.4740
L1.0720 3.4660
" />
<path d="M1.1010 3.2350
L1.0720 3.4660
" />
<path d="M1.1080 2.0250
L11.3380 2.0250
" />
<path d="M1.1080 2.0400
L1.1080 2.0250
" />
<path d="M1.1080 2.0400
L1.1080 2.3240
" />
<path d="M1.1080 2.1250
L1.1640 2.1250
" />
<path d="M1.1080 2.3240
L1.1080 2.5230
" />
<path d="M1.1080 3.0230
L1.1080 3.5550
" />
<path d="M1.1080 3.1680
L1.0820 3.1340
" />
<path d="M1.1080 3.1680
L1.1010 3.2350
" />
<path d="M1.1640 2.0250
L1.1640 2.2930
" />
<path d="M1.1640 2.2930
L1.1640 2.5240
" />
<path d="M1.1640 2.5240
L1.3640 2.5240
" />
<path d="M1.1640 3.0230
L0.9250 3.0230
" />
<path d="M1.1640 3.0230
L1.1640 3.7240
" />
<path d="M1.1640 3.6250
L1.0390 3.6250
" />
<path d="M1.1640 3.7240
L1.7650 3.7240
" />
<path d="M1.3100 2.6600
L1.3100 2.8730
" />
<path d="M1.3100 2.6600
L1.3500 2.6000
" />
<path d="M1.3100 2.8730
L1.5390 2.8730
" />
<path d="M1.3500 2.6000
L1.3500 2.8730
" />
<path d="M1.3640 2.0250
L1.3640 2.1240
" />
<path d="M1.3640 2.1240
L1.3640 2.1800
" />
<path d="M1.3640 2.1800
L1.3640 2.2170
" />
<path d="M1.3640 2.2170
L1.3640 2.2880
" />
<path d="M1.3640 2.2880
L1.3640 2.5950
" />
<path d="M1.3640 2.2930
L1.1640 2.2930
" />
<path d="M1.3640 2.5950
L1.3640 2.6750
" />
<path d="M1.3640 2.5950
L1.4840 2.5950
" />
<path d="M1.3640 2.6000
L1.3500 2.6000
" />
<path d="M1.3640 2.6750
L1.4840 2.6750
" />
<path d="M1.3640 3.7240
L1.3640 3.7740
" />
<path d="M1.3640 3.7740
L1.4840 3.7740
" />
<path d="M1.4840 2.0250
L1.4840 2.1240
" />
<path d="M1.4840 2.1240
L1.4840 2.1800
" />
<path d="M1.4840 2.1800
L1.4840 2.2170
" />
<path d="M1.4840 2.2170
L1.4840 2.2880
" />
<path d="M1.4840 2.2880
L1.4840 2.5950
" />
<path d="M1.4840 2.5240
L1.9650 2.5240
" />
<path d="M1.4840 2.5950
L1.4840 2.6750
" />
<path d="M1.4840 3.7240
L1.4840 3.7740
" />
<path d="M1.4990 2.6000
L1.4840 2.6000
" />
<path d="M1.4990 2.6000
L1.4990 2.8730
" />
<path d="M1.5390 2.6600
L1.4990 2.6000
" />
<path d="M1.5390 2.6600
L1.5390 2.8730
" />
<path d="M1.5390 2.6600
L1.6090 2.6600
" />
<path d="M1.6090 2.6600
L1.6090 2.8670
" />
<path d="M1.6480 2.6000
L1.6090 2.6600
" />
<path d="M1.6480 2.6000
L1.6480 2.8420
" />
<path d="M1.6480 2.8420
L1.6090 2.8670
" />
<path d="M1.6640 0.5250
L1.6640 0.7240
" />
<path d="M1.6640 0.5250
L1.7840 0.5250
" />
<path d="M1.6640 0.7240
L1.6640 0.7450
" />
<path d="M1.6640 0.7240
L1.7840 0.7240
" />
<path d="M1.6640 0.7450
L1.6640 0.7750
" />
<path d="M1.6640 2.0730
L1.6640 2.0250
" />
<path d="M1.6640 2.0730
L1.6640 2.1250
" />
<path d="M1.6640 2.1250
L1.6640 2.2930
" />
<path d="M1.6640 2.1250
L1.7840 2.1250
" />
<path d="M1.7650 4.0240
L1.7650 3.7240
" />
<path d="M1.7650 4.0240
L4.9240 4.0240
" />
<path d="M1.7840 0.5250
L1.7840 0.7240
" />
<path d="M1.7840 0.7240
L1.7840 0.7450
" />
<path d="M1.7840 0.7450
L1.7840 0.7750
" />
<path d="M1.7840 2.0250
L1.7840 2.0730
" />
<path d="M1.7840 2.0730
L1.6640 2.0730
" />
<path d="M1.7840 2.0730
L1.7840 2.1250
" />
<path d="M1.7840 2.1250
L1.7840 2.2930
" />
<path d="M1.8000 2.6000
L1.6480 2.6000
" />
<path d="M1.8000 2.6000
L1.8000 2.8420
" />
<path d="M1.8000 2.8420
L1.6480 2.8420
" />
<path d="M1.8000 2.8420
L1.8400 2.8670
" />
<path d="M1.8400 2.6600
L1.8000 2.6000
" />
<path d="M1.8400 2.6600
L1.8400 2.8670
" />
<path d="M1.8400 2.6600
L1.9090 2.6600
" />
<path d="M1.8400 2.8670
L1.6090 2.8670
" />
<path d="M1.9090 2.6600
L1.9090 2.8730
" />
<path d="M1.9090 2.6600
L1.9490 2.6000
" />
<path d="M1.9490 2.6000
L1.9490 2.8730
" />
<path d="M1.9650 2.0250
L1.9650 2.1240
" />
<path d="M1.9650 2.1240
L1.9650 2.1800
" />
<path d="M1.9650 2.1800
L1.9650 2.2170
" />
<path d="M1.9650 2.2170
L1.9650 2.2880
" />
<path d="M1.9650 2.2880
L1.9650 2.5950
" />
<path d="M1.9650 2.2930
L1.4840 2.2930
" />
<path d="M1.9650 2.5950
L1.9650 2.6750
" />
<path d="M1.9650 2.5950
L2.0850 2.5950
" />
<path d="M1.9650 2.6000
L1.9490 2.6000
" />
<path d="M1.9650 2.6750
L2.0850 2.6750
" />
<path d="M2.0850 2.0250
L2.0850 2.1240
" />
<path d="M2.0850 2.1240
L2.0850 2.1800
" />
<path d="M2.0850 2.1800
L2.0850 2.2170
" />
<path d="M2.0850 2.2170
L2.0850 2.2880
" />
<path d="M2.0850 2.2880
L2.0850 2.5950
" />
<path d="M2.0850 2.5240
L2.5640 2.5240
" />
<path d="M2.0850 2.5950
L2.0850 2.6750
" />
<path d="M2.1000 2.6000
L2.0850 2.6000
" />
<path d="M2.1000 2.6000
L2.1000 2.8730
" />
<path d="M2.1400 2.6600
L2.1000 2.6000
" />
<path d="M2.1400 2.6600
L2.1400 2.8730
" />
<path d="M2.1400 2.6600
L2.2100 2.6600
" />
<path d="M2.1400 2.8730
L1.9090 2.8730
" />
<path d="M2.2100 2.6600
L2.2100 2.8670
" />
<path d="M2.2490 2.6000
L2.2100 2.6600
" />
<path d="M2.2490 2.6000
L2.2490 2.8420
" />
<path d="M2.2490 2.8420
L2.2100 2.8670
" />
<path d="M2.2650 0.5250
L2.2650 0.7240
" />
<path d="M2.2650 0.5250
L2.3850 0.5250
" />
<path d="M2.2650 0.7240
L2.2650 0.7450
" />
<path d="M2.2650 0.7240
L2.3850 0.7240
" />
<path d="M2.2650 0.7450
L2.2650 0.7750
" />
<path d="M2.2650 2.0730
L2.2650 2.0250
" />
<path d="M2.2650 2.0730
L2.2650 2.1250
" />
<path d="M2.2650 2.1250
L2.2650 2.2930
" />
<path d="M2.2650 2.1250
L2.3850 2.1250
" />
<path d="M2.3850 0.5250
L2.3850 0.7240
" />
<path d="M2.3850 0.7240
L2.3850 0.7450
" />
<path d="M2.3850 0.7450
L2.3850 0.7750
" />
<path d="M2.3850 2.0250
L2.3850 2.0730
" />
<path d="M2.3850 2.0730
L2.2650 2.0730
" />
<path d="M2.3850 2.0730
L2.3850 2.1250
" />
<path d="M2.3850 2.1250
L2.3850 2.2930
" />
<path d="M2.3990 2.6000
L2.2490 2.6000
" />
<path d="M2.3990 2.6000
L2.3990 2.8420
" />
<path d="M2.3990 2.8420
L2.2490 2.8420
" />
<path d="M2.3990 2.8420
L2.4390 2.8670
" />
<path d="M2.4390 2.6600
L2.3990 2.6000
" />
<path d="M2.4390 2.6600
L2.4390 2.8670
" />
<path d="M2.4390 2.6600
L2.5100 2.6600
" />
<path d="M2.4390 2.8670
L2.2100 2.8670
" />
<path d="M2.5100 2.6600
L2.5100 2.8730
" />
<path d="M2.5100 2.6600
L2.5490 2.6000
" />
<path d="M2.5100 2.8730
L2.7400 2.8730
" />
<path d="M2.5490 2.6000
L2.5490 2.8730
" />
<path d="M2.5640 2.0250
L2.5640 2.1240
" />
<path d="M2.5640 2.1240
L2.5640 2.1800
" />
<path d="M2.5640 2.1800
L2.5640 2.2170
" />
<path d="M2.5640 2.2170
L2.5640 2.2880
" />
<path d="M2.5640 2.2880
L2.5640 2.5950
" />
<path d="M2.5640 2.2930
L2.0850 2.2930
" />
<path d="M2.5640 2.5950
L2.5640 2.6750
" />
<path d="M2.5640 2.5950
L2.6850 2.5950
" />
<path d="M2.5640 2.6000
L2.5490 2.6000
" />
<path d="M2.5640 2.6750
L2.6850 2.6750
" />
<path d="M2.6850 2.0250
L2.6850 2.1240
" />
<path d="M2.6850 2.1240
L2.6850 2.1800
" />
<path d="M2.6850 2.1800
L2.6850 2.2170
" />
<path d="M2.6850 2.2170
L2.6850 2.2880
" />
<path d="M2.6850 2.2880
L2.6850 2.5950
" />
<path d="M2.6850 2.5240
L3.1650 2.5240
" />
<path d="M2.6850 2.5950
L2.6850 2.6750
" />
<path d="M2.7000 2.6000
L2.6850 2.6000
" />
<path d="M2.7000 2.6000
L2.7000 2.8730
" />
<path d="M2.7400 2.6600
L2.7000 2.6000
" />
<path d="M2.7400 2.6600
L2.7400 2.8730
" />
<path d="M2.7400 2.6600
L2.8100 2.6600
" />
<path d="M2.8100 2.6600
L2.8100 2.8670
" />
<path d="M2.8500 2.6000
L2.8100 2.6600
" />
<path d="M2.8500 2.6000
L2.8500 2.8420
" />
<path d="M2.8500 2.8420
L2.8100 2.8670
" />
<path d="M2.8650 0.5250
L2.8650 0.7240
" />
<path d="M2.8650 0.5250
L2.9840 0.5250
" />
<path d="M2.8650 0.7240
L2.8650 0.7450
" />
<path d="M2.8650 0.7240
L2.9840 0.7240
" />
<path d="M2.8650 0.7450
L2.8650 0.7750
" />
<path d="M2.8650 2.0730
L2.8650 2.0250
" />
<path d="M2.8650 2.0730
L2.8650 2.1250
" />
<path d="M2.8650 2.1250
L2.8650 2.2930
" />
<path d="M2.8650 2.1250
L2.9840 2.1250
" />
<path d="M2.9840 0.5250
L2.9840 0.7240
" />
<path d="M2.9840 0.7240
L2.9840 0.7450
" />
<path d="M2.9840 0.7450
L2.9840 0.7750
" />
<path d="M2.9840 2.0250
L2.9840 2.0730
" />
<path d="M2.9840 2.0730
L2.8650 2.0730
" />
<path d="M2.9840 2.0730
L2.9840 2.1250
" />
<path d="M2.9840 2.1250
L2.9840 2.2930
" />
<path d="M2.9990 2.6000
L2.8500 2.6000
" />
<path d="M2.9990 2.6000
L2.9990 2.8420
" />
<path d="M2.9990 2.8420
L2.8500 2.8420
" />
<path d="M2.9990 2.8420
L3.0400 2.8670
" />
<path d="M3.0400 2.6600
L2.9990 2.6000
" />
<path d="M3.0400 2.6600
L3.0400 2.8670
" />
<path d="M3.0400 2.6600
L3.1090 2.6600
" />
<path d="M3.0400 2.8670
L2.8100 2.8670
" />
<path d="M3.1090 2.6600
L3.1090 2.8730
" />
<path d="M3.1090 2.6600
L3.1490 2.6000
" />
<path d="M3.1090 2.8730
L3.3380 2.8730
" />
<path d="M3.1490 2.6000
L3.1490 2.8730
" />
<path d="M3.1650 2.0250
L3.1650 2.1240
" />
<path d="M3.1650 2.1240
L3.1650 2.1800
" />
<path d="M3.1650 2.1800
L3.1650 2.2170
" />
<path d="M3.1650 2.2170
L3.1650 2.2880
" />
<path d="M3.1650 2.2880
L3.1650 2.5950
" />
<path d="M3.1650 2.2930
L2.6850 2.2930
" />
<path d="M3.1650 2.5950
L3.1650 2.6750
" />
<path d="M3.1650 2.5950
L3.2850 2.5950
" />
<path d="M3.1650 2.6000
L3.1490 2.6000
" />
<path d="M3.1650 2.6750
L3.2850 2.6750
" />
<path d="M3.2850 2.0250
L3.2850 2.1240
" />
<path d="M3.2850 2.1240
L3.2850 2.1800
" />
<path d="M3.2850 2.1800
L3.2850 2.2170
" />
<path d="M3.2850 2.2170
L3.2850 2.2880
" />
<path d="M3.2850 2.2880
L3.2850 2.5950
" />
<path d="M3.2850 2.5240
L3.7650 2.5240
" />
<path d="M3.2850 2.5950
L3.2850 2.6750
" />
<path d="M3.2990 2.6000
L3.2850 2.6000
" />
<path d="M3.2990 2.6000
L3.2990 2.8730
" />
<path d="M3.3380 2.6600
L3.2990 2.6000
" />
<path d="M3.3380 2.6600
L3.3380 2.8730
" />
<path d="M3.3380 2.6600
L3.4100 2.6600
" />
<path d="M3.4100 2.6600
L3.4100 2.8670
" />
<path d="M3.4500 2.6000
L3.4100 2.6600
" />
<path d="M3.4500 2.6000
L3.4500 2.8420
" />
<path d="M3.4500 2.8420
L3.4100 2.8670
" />
<path d="M3.4630 0.5250
L3.4630 0.7240
" />
<path d="M3.4630 0.5250
L3.5840 0.5250
" />
<path d="M3.4630 0.7240
L3.4630 0.7450
" />
<path d="M3.4630 0.7240
L3.5840 0.7240
" />
<path d="M3.4630 0.7450
L3.4630 0.7750
" />
<path d="M3.4630 2.0730
L3.4630 2.0250
" />
<path d="M3.4630 2.0730
L3.4630 2.1250
" />
<path d="M3.4630 2.1250
L3.4630 2.2930
" />
<path d="M3.4630 2.1250
L3.5840 2.1250
" />
<path d="M3.5840 0.5250
L3.5840 0.7240
" />
<path d="M3.5840 0.7240
L3.5840 0.7450
" />
<path d="M3.5840 0.7450
L3.5840 0.7750
" />
<path d="M3.5840 2.0250
L3.5840 2.0730
" />
<path d="M3.5840 2.0730
L3.4630 2.0730
" />
<path d="M3.5840 2.0730
L3.5840 2.1250
" />
<path d="M3.5840 2.1250
L3.5840 2.2930
" />
<path d="M3.5990 2.6000
L3.4500 2.6000
" />
<path d="M3.5990 2.6000
L3.5990 2.8420
" />
<path d="M3.5990 2.8420
L3.4500 2.8420
" />
<path d="M3.5990 2.8420
L3.6400 2.8670
" />
<path d="M3.6400 2.6600
L3.5990 2.6000
" />
<path d="M3.6400 2.6600
L3.6400 2.8670
" />
<path d="M3.6400 2.6600
L3.7090 2.6600
" />
<path d="M3.6400 2.8670
L3.4100 2.8670
" />
<path d="M3.7090 2.6600
L3.7090 2.8730
" />
<path d="M3.7090 2.6600
L3.7490 2.6000
" />
<path d="M3.7490 2.6000
L3.7490 2.8730
" />
<path d="M3.7650 2.0250
L3.7650 2.1240
" />
<path d="M3.7650 2.1240
L3.7650 2.1800
" />
<path d="M3.7650 2.1800
L3.7650 2.2170
" />
<path d="M3.7650 2.2170
L3.7650 2.2880
" />
<path d="M3.7650 2.2880
L3.7650 2.5950
" />
<path d="M3.7650 2.2930
L3.2850 2.2930
" />
<path d="M3.7650 2.5950
L3.7650 2.6750
" />
<path d="M3.7650 2.5950
L3.8830 2.5950
" />
<path d="M3.7650 2.6000
L3.7490 2.6000
" />
<path d="M3.7650 2.6750
L3.8830 2.6750
" />
<path d="M3.8830 2.0250
L3.8830 2.1240
" />
<path d="M3.8830 2.1240
L3.8830 2.1800
" />
<path d="M3.8830 2.1800
L3.8830 2.2170
" />
<path d="M3.8830 2.2170
L3.8830 2.2880
" />
<path d="M3.8830 2.2880
L3.8830 2.5950
" />
<path d="M3.8830 2.5240
L4.3640 2.5240
" />
<path d="M3.8830 2.5950
L3.8830 2.6750
" />
<path d="M3.8990 2.6000
L3.8830 2.6000
" />
<path d="M3.8990 2.6000
L3.8990 2.8730
" />
<path d="M3.9390 2.6600
L3.8990 2.6000
" />
<path d="M3.9390 2.6600
L3.9390 2.8730
" />
<path d="M3.9390 2.6600
L4.0080 2.6600
" />
<path d="M3.9390 2.8730
L3.7090 2.8730
" />
<path d="M4.0080 2.6600
L4.0080 2.8670
" />
<path d="M4.0490 2.6000
L4.0080 2.6600
" />
<path d="M4.0490 2.6000
L4.0490 2.8420
" />
<path d="M4.0490 2.8420
L4.0080 2.8670
" />
<path d="M4.0640 0.5250
L4.0640 0.7240
" />
<path d="M4.0640 0.5250
L4.1850 0.5250
" />
<path d="M4.0640 0.7240
L4.0640 0.7450
" />
<path d="M4.0640 0.7240
L4.1850 0.7240
" />
<path d="M4.0640 0.7450
L4.0640 0.7750
" />
<path d="M4.0640 2.0730
L4.0640 2.0250
" />
<path d="M4.0640 2.0730
L4.0640 2.1250
" />
<path d="M4.0640 2.1250
L4.0640 2.2930
" />
<path d="M4.0640 2.1250
L4.1850 2.1250
" />
<path d="M4.1850 0.5250
L4.1850 0.7240
" />
<path d="M4.1850 0.7240
L4.1850 0.7450
" />
<path d="M4.1850 0.7450
L4.1850 0.7750
" />
<path d="M4.1850 2.0250
L4.1850 2.0730
" />
<path d="M4.1850 2.0730
L4.0640 2.0730
" />
<path d="M4.1850 2.0730
L4.1850 2.1250
" />
<path d="M4.1850 2.1250
L4.1850 2.2930
" />
<path d="M4.2000 2.6000
L4.0490 2.6000
" />
<path d="M4.2000 2.6000
L4.2000 2.8420
" />
<path d="M4.2000 2.8420
L4.0490 2.8420
" />
<path d="M4.2000 2.8420
L4.2390 2.8670
" />
<path d="M4.2390 2.6600
L4.2000 2.6000
" />
<path d="M4.2390 2.6600
L4.2390 2.8670
" />
<path d="M4.2390 2.6600
L4.3100 2.6600
" />
<path d="M4.2390 2.8670
L4.0080 2.8670
" />
<path d="M4.3100 2.6600
L4.3100 2.8730
" />
<path d="M4.3100 2.6600
L4.3480 2.6000
" />
<path d="M4.3480 2.6000
L4.3480 2.8730
" />
<path d="M4.3640 2.0250
L4.3640 2.1240
" />
<path d="M4.3640 2.1240
L4.3640 2.1800
" />
<path d="M4.3640 2.1800
L4.3640 2.2170
" />
<path d="M4.3640 2.2170
L4.3640 2.2880
" />
<path d="M4.3640 2.2880
L4.3640 2.5950
" />
<path d="M4.3640 2.2930
L3.8830 2.2930
" />
<path d="M4.3640 2.5950
L4.3640 2.6750
" />
<path d="M4.3640 2.5950
L4.4850 2.5950
" />
<path d="M4.3640 2.6000
L4.3480 2.6000
" />
<path d="M4.3640 2.6750
L4.4850 2.6750
" />
<path d="M4.4850 2.0250
L4.4850 2.1240
" />
<path d="M4.4850 2.1240
L4.4850 2.1800
" />
<path d="M4.4850 2.1800
L4.4850 2.2170
" />
<path d="M4.4850 2.2170
L4.4850 2.2880
" />
<path d="M4.4850 2.2880
L4.4850 2.5950
" />
<path d="M4.4850 2.5240
L4.9630 2.5240
" />
<path d="M4.4850 2.5950
L4.4850 2.6750
" />
<path d="M4.4990 2.6000
L4.4850 2.6000
" />
<path d="M4.4990 2.6000
L4.4990 2.8730
" />
<path d="M4.5390 2.6600
L4.4990 2.6000
" />
<path d="M4.5390 2.6600
L4.5390 2.8730
" />
<path d="M4.5390 2.6600
L4.6100 2.6600
" />
<path d="M4.5390 2.8730
L4.3100 2.8730
" />
<path d="M4.6100 2.6600
L4.6100 2.8670
" />
<path d="M4.6500 2.6000
L4.6100 2.6600
" />
<path d="M4.6500 2.6000
L4.6500 2.8420
" />
<path d="M4.6500 2.8420
L4.6100 2.8670
" />
<path d="M4.6640 0.5250
L4.6640 0.7240
" />
<path d="M4.6640 0.5250
L4.7850 0.5250
" />
<path d="M4.6640 0.7240
L4.6640 0.7450
" />
<path d="M4.6640 0.7240
L4.7850 0.7240
" />
<path d="M4.6640 0.7450
L4.6640 0.7750
" />
<path d="M4.6640 2.0730
L4.6640 2.0250
" />
<path d="M4.6640 2.0730
L4.6640 2.1250
" />
<path d="M4.6640 2.1250
L4.6640 2.2930
" />
<path d="M4.6640 2.1250
L4.7850 2.1250
" />
<path d="M4.7850 0.5250
L4.7850 0.7240
" />
<path d="M4.7850 0.7240
L4.7850 0.7450
" />
<path d="M4.7850 0.7450
L4.7850 0.7750
" />
<path d="M4.7850 2.0250
L4.7850 2.0730
" />
<path d="M4.7850 2.0730
L4.6640 2.0730
" />
<path d="M4.7850 2.0730
L4.7850 2.1250
" />
<path d="M4.7850 2.1250
L4.7850 2.2930
" />
<path d="M4.7990 2.6000
L4.6500 2.6000
" />
<path d="M4.7990 2.6000
L4.7990 2.8420
" />
<path d="M4.7990 2.8420
L4.6500 2.8420
" />
<path d="M4.7990 2.8420
L4.8380 2.8670
" />
<path d="M4.8380 2.6600
L4.7990 2.6000
" />
<path d="M4.8380 2.6600
L4.8380 2.8670
" />
<path d="M4.8380 2.6600
L4.9100 2.6600
" />
<path d="M4.8380 2.8670
L4.6100 2.8670
" />
<path d="M4.9100 2.6600
L4.9100 2.8730
" />
<path d="M4.9100 2.6600
L4.9490 2.6000
" />
<path d="M4.9490 2.6000
L4.9490 2.8730
" />
<path d="M4.9630 2.0250
L4.9630 2.1240
" />
<path d="M4.9630 2.1240
L4.9630 2.1800
" />
<path d="M4.9630 2.1800
L4.9630 2.2170
" />
<path d="M4.9630 2.2170
L4.9630 2.2880
" />
<path d="M4.9630 2.2880
L4.9630 2.5950
" />
<path d="M4.9630 2.2930
L4.4850 2.2930
" />
<path d="M4.9630 2.5950
L4.9630 2.6750
" />
<path d="M4.9630 2.5950
L5.0840 2.5950
" />
<path d="M4.9630 2.6000
L4.9490 2.6000
" />
<path d="M4.9630 2.6750
L5.0840 2.6750
" />
<path d="M5.0840 2.0250
L5.0840 2.1240
" />
<path d="M5.0840 2.1240
L5.0840 2.1800
" />
<path d="M5.0840 2.1800
L5.0840 2.2170
" />
<path d="M5.0840 2.2170
L5.0840 2.2880
" />
<path d="M5.0840 2.2880
L5.0840 2.5950
" />
<path d="M5.0840 2.5240
L5.5640 2.5240
" />
<path d="M5.0840 2.5950
L5.0840 2.6750
" />
<path d="M5.0980 2.6000
L5.0840 2.6000
" />
<path d="M5.0980 2.6000
L5.0980 2.8730
" />
<path d="M5.1400 2.6600
L5.0980 2.6000
" />
<path d="M5.1400 2.6600
L5.1400 2.8730
" />
<path d="M5.1400 2.6600
L5.2090 2.6600
" />
<path d="M5.1400 2.8730
L4.9100 2.8730
" />
<path d="M5.2090 2.6600
L5.2090 2.8670
" />
<path d="M5.2230 3.8750
L4.9240 4.0240
" />
<path d="M5.2500 2.6000
L5.2090 2.6600
" />
<path d="M5.2500 2.6000
L5.2500 2.8420
" />
<path d="M5.2500 2.8420
L5.2090 2.8670
" />
<path d="M5.2650 0.5250
L5.2650 0.7240
" />
<path d="M5.2650 0.5250
L5.3840 0.5250
" />
<path d="M5.2650 0.7240
L5.2650 0.7450
" />
<path d="M5.2650 0.7240
L5.3840 0.7240
" />
<path d="M5.2650 0.7450
L5.2650 0.7750
" />
<path d="M5.2650 2.0730
L5.2650 2.0250
" />
<path d="M5.2650 2.0730
L5.2650 2.1250
" />
<path d="M5.2650 2.1250
L5.2650 2.2930
" />
<path d="M5.2650 2.1250
L5.3840 2.1250
" />
<path d="M5.3840 0.5250
L5.3840 0.7240
" />
<path d="M5.3840 0.7240
L5.3840 0.7450
" />
<path d="M5.3840 0.7450
L5.3840 0.7750
" />
<path d="M5.3840 2.0250
L5.3840 2.0730
" />
<path d="M5.3840 2.0730
L5.2650 2.0730
" />
<path d="M5.3840 2.0730
L5.3840 2.1250
" />
<path d="M5.3840 2.1250
L5.3840 2.2930
" />
<path d="M5.3990 2.6000
L5.2500 2.6000
" />
<path d="M5.3990 2.6000
L5.3990 2.8420
" />
<path d="M5.3990 2.8420
L5.2500 2.8420
" />
<path d="M5.3990 2.8420
L5.4390 2.8670
" />
<path d="M5.4390 2.6600
L5.3990 2.6000
" />
<path d="M5.4390 2.6600
L5.4390 2.8670
" />
<path d="M5.4390 2.6600
L5.5090 2.6600
" />
<path d="M5.4390 2.8670
L5.2090 2.8670
" />
<path d="M5.5090 2.6600
L5.5090 2.8730
" />
<path d="M5.5090 2.6600
L5.5490 2.6000
" />
<path d="M5.5490 2.6000
L5.5490 2.8730
" />
<path d="M5.5640 2.0250
L5.5640 2.1240
" />
<path d="M5.5640 2.1240
L5.5640 2.1800
" />
<path d="M5.5640 2.1800
L5.5640 2.2170
" />
<path d="M5.5640 2.2170
L5.5640 2.2880
" />
<path d="M5.5640 2.2880
L5.5640 2.5950
" />
<path d="M5.5640 2.2930
L5.0840 2.2930
" />
<path d="M5.5640 2.5950
L5.5640 2.6750
" />
<path d="M5.5640 2.5950
L5.6840 2.5950
" />
<path d="M5.5640 2.6000
L5.5490 2.6000
" />
<path d="M5.5640 2.6750
L5.6840 2.6750
" />
<path d="M5.6840 2.0250
L5.6840 2.1240
" />
<path d="M5.6840 2.1240
L5.6840 2.1800
" />
<path d="M5.6840 2.1800
L5.6840 2.2170
" />
<path d="M5.6840 2.2170
L5.6840 2.2880
" />
<path d="M5.6840 2.2880
L5.6840 2.5950
" />
<path d="M5.6840 2.5240
L6.1650 2.5240
" />
<path d="M5.6840 2.5950
L5.6840 2.6750
" />
<path d="M5.6990 2.6000
L5.6840 2.6000
" />
<path d="M5.6990 2.6000
L5.6990 2.8730
" />
<path d="M5.7400 2.6600
L5.6990 2.6000
" />
<path d="M5.7400 2.6600
L5.7400 2.8730
" />
<path d="M5.7400 2.6600
L5.8090 2.6600
" />
<path d="M5.7400 2.8730
L5.5090 2.8730
" />
<path d="M5.8090 2.6600
L5.8090 2.8670
" />
<path d="M5.8490 2.6000
L5.8090 2.6600
" />
<path d="M5.8490 2.6000
L5.8490 2.8420
" />
<path d="M5.8490 2.8420
L5.8090 2.8670
" />
<path d="M5.8650 0.5250
L5.8650 0.7240
" />
<path d="M5.8650 0.5250
L5.9850 0.5250
" />
<path d="M5.8650 0.7240
L5.8650 0.7450
" />
<path d="M5.8650 0.7240
L5.9850 0.7240
" />
<path d="M5.8650 0.7450
L5.8650 0.7750
" />
<path d="M5.8650 2.0730
L5.8650 2.0250
" />
<path d="M5.8650 2.0730
L5.8650 2.1250
" />
<path d="M5.8650 2.1250
L5.8650 2.2930
" />
<path d="M5.8650 2.1250
L5.9850 2.1250
" />
<path d="M5.9850 0.5250
L5.9850 0.7240
" />
<path d="M5.9850 0.7240
L5.9850 0.7450
" />
<path d="M5.9850 0.7450
L5.9850 0.7750
" />
<path d="M5.9850 2.0250
L5.9850 2.0730
" />
<path d="M5.9850 2.0730
L5.8650 2.0730
" />
<path d="M5.9850 2.0730
L5.9850 2.1250
" />
<path d="M5.9850 2.1250
L5.9850 2.2930
" />
<path d="M5.9990 2.6000
L5.8490 2.6000
" />
<path d="M5.9990 2.6000
L5.9990 2.8420
" />
<path d="M5.9990 2.8420
L5.8490 2.8420
" />
<path d="M5.9990 2.8420
L6.0400 2.8670
" />
<path d="M6.0400 2.6600
L5.9990 2.6000
" />
<path d="M6.0400 2.6600
L6.0400 2.8670
" />
<path d="M6.0400 2.6600
L6.1090 2.6600
" />
<path d="M6.0400 2.8670
L5.8090 2.8670
" />
<path d="M6.1090 2.6600
L6.1090 2.8730
" />
<path d="M6.1090 2.6600
L6.1500 2.6000
" />
<path d="M6.1500 2.6000
L6.1500 2.8730
" />
<path d="M6.1650 2.0250
L6.1650 2.1240
" />
<path d="M6.1650 2.1240
L6.1650 2.1800
" />
<path d="M6.1650 2.1800
L6.1650 2.2170
" />
<path d="M6.1650 2.2170
L6.1650 2.2880
" />
<path d="M6.1650 2.2880
L6.1650 2.5950
" />
<path d="M6.1650 2.2930
L5.6840 2.2930
" />
<path d="M6.1650 2.5950
L6.1650 2.6750
" />
<path d="M6.1650 2.5950
L6.2840 2.5950
" />
<path d="M6.1650 2.6000
L6.1500 2.6000
" />
<path d="M6.1650 2.6750
L6.2840 2.6750
" />
<path d="M6.2840 2.0250
L6.2840 2.1240
" />
<path d="M6.2840 2.1240
L6.2840 2.1800
" />
<path d="M6.2840 2.1800
L6.2840 2.2170
" />
<path d="M6.2840 2.2170
L6.2840 2.2880
" />
<path d="M6.2840 2.2880
L6.2840 2.5950
" />
<path d="M6.2840 2.5240
L6.7650 2.5240
" />
<path d="M6.2840 2.5950
L6.2840 2.6750
" />
<path d="M6.2990 2.6000
L6.2840 2.6000
" />
<path d="M6.2990 2.6000
L6.2990 2.8730
" />
<path d="M6.3390 2.6600
L6.2990 2.6000
" />
<path d="M6.3390 2.6600
L6.3390 2.8730
" />
<path d="M6.3390 2.6600
L6.4090 2.6600
" />
<path d="M6.3390 2.8730
L6.1090 2.8730
" />
<path d="M6.4090 2.6600
L6.4090 2.8670
" />
<path d="M6.4500 2.6000
L6.4090 2.6600
" />
<path d="M6.4500 2.6000
L6.4500 2.8420
" />
<path d="M6.4500 2.8420
L6.4090 2.8670
" />
<path d="M6.4640 0.5250
L6.4640 0.7240
" />
<path d="M6.4640 0.5250
L6.5840 0.5250
" />
<path d="M6.4640 0.7240
L6.4640 0.7450
" />
<path d="M6.4640 0.7240
L6.5840 0.7240
" />
<path d="M6.4640 0.7450
L6.4640 0.7750
" />
<path d="M6.4640 2.0730
L6.4640 2.0250
" />
<path d="M6.4640 2.0730
L6.4640 2.1250
" />
<path d="M6.4640 2.1250
L6.4640 2.2930
" />
<path d="M6.4640 2.1250
L6.5840 2.1250
" />
<path d="M6.5840 0.5250
L6.5840 0.7240
" />
<path d="M6.5840 0.7240
L6.5840 0.7450
" />
<path d="M6.5840 0.7450
L6.5840 0.7750
" />
<path d="M6.5840 2.0250
L6.5840 2.0730
" />
<path d="M6.5840 2.0730
L6.4640 2.0730
" />
<path d="M6.5840 2.0730
L6.5840 2.1250
" />
<path d="M6.5840 2.1250
L6.5840 2.2930
" />
<path d="M6.5980 2.6000
L6.4500 2.6000
" />
<path d="M6.5980 2.6000
L6.5980 2.8420
" />
<path d="M6.5980 2.8420
L6.4500 2.8420
" />
<path d="M6.5980 2.8420
L6.6400 2.8670
" />
<path d="M6.6400 2.6600
L6.5980 2.6000
" />
<path d="M6.6400 2.6600
L6.6400 2.8670
" />
<path d="M6.6400 2.6600
L6.7090 2.6600
" />
<path d="M6.6400 2.8670
L6.4090 2.8670
" />
<path d="M6.7090 2.6600
L6.7090 2.8730
" />
<path d="M6.7090 2.6600
L6.7500 2.6000
" />
<path d="M6.7500 2.6000
L6.7500 2.8730
" />
<path d="M6.7650 2.0250
L6.7650 2.1240
" />
<path d="M6.7650 2.1240
L6.7650 2.1800
" />
<path d="M6.7650 2.1800
L6.7650 2.2170
" />
<path d="M6.7650 2.2170
L6.7650 2.2880
" />
<path d="M6.7650 2.2880
L6.7650 2.5950
" />
<path d="M6.7650 2.2930
L6.2840 2.2930
" />
<path d="M6.7650 2.5950
L6.7650 2.6750
" />
<path d="M6.7650 2.5950
L6.8840 2.5950
" />
<path d="M6.7650 2.6000
L6.7500 2.6000
" />
<path d="M6.7650 2.6750
L6.8840 2.6750
" />
<path d="M6.8840 2.0250
L6.8840 2.1240
" />
<path d="M6.8840 2.1240
L6.8840 2.1800
" />
<path d="M6.8840 2.1800
L6.8840 2.2170
" />
<path d="M6.8840 2.2170
L6.8840 2.2880
" />
<path d="M6.8840 2.2880
L6.8840 2.5950
" />
<path d="M6.8840 2.5240
L7.3650 2.5240
" />
<path d="M6.8840 2.5950
L6.8840 2.6750
" />
<path d="M6.9000 2.6000
L6.8840 2.6000
" />
<path d="M6.9000 2.6000
L6.9000 2.8730
" />
<path d="M6.9390 2.6600
L6.9000 2.6000
" />
<path d="M6.9390 2.6600
L6.9390 2.8730
" />
<path d="M6.9390 2.6600
L7.0090 2.6600
" />
<path d="M6.9390 2.8730
L6.7090 2.8730
" />
<path d="M7.0090 2.6600
L7.0090 2.8670
" />
<path d="M7.0500 2.6000
L7.0090 2.6600
" />
<path d="M7.0500 2.6000
L7.0500 2.8420
" />
<path d="M7.0500 2.8420
L7.0090 2.8670
" />
<path d="M7.0640 0.5250
L7.0640 0.7240
" />
<path d="M7.0640 0.5250
L7.1840 0.5250
" />
<path d="M7.0640 0.7240
L7.0640 0.7450
" />
<path d="M7.0640 0.7240
L7.1840 0.7240
" />
<path d="M7.0640 0.7450
L7.0640 0.7750
" />
<path d="M7.0640 2.0730
L7.0640 2.0250
" />
<path d="M7.0640 2.0730
L7.0640 2.1250
" />
<path d="M7.0640 2.1250
L7.0640 2.2930
" />
<path d="M7.0640 2.1250
L7.1840 2.1250
" />
<path d="M7.1840 0.5250
L7.1840 0.7240
" />
<path d="M7.1840 0.7240
L7.1840 0.7450
" />
<path d="M7.1840 0.7450
L7.1840 0.7750
" />
<path d="M7.1840 2.0250
L7.1840 2.0730
" />
<path d="M7.1840 2.0730
L7.0640 2.0730
" />
<path d="M7.1840 2.0730
L7.1840 2.1250
" />
<path d="M7.1840 2.1250
L7.1840 2.2930
" />
<path d="M7.1990 2.6000
L7.0500 2.6000
" />
<path d="M7.1990 2.6000
L7.1990 2.8420
" />
<path d="M7.1990 2.8420
L7.0500 2.8420
" />
<path d="M7.1990 2.8420
L7.2400 2.8670
" />
<path d="M7.2230 3.8750
L5.2230 3.8750
" />
<path d="M7.2400 2.6600
L7.1990 2.6000
" />
<path d="M7.2400 2.6600
L7.2400 2.8670
" />
<path d="M7.2400 2.6600
L7.3090 2.6600
" />
<path d="M7.2400 2.8670
L7.0090 2.8670
" />
<path d="M7.3090 2.6600
L7.3090 2.8730
" />
<path d="M7.3090 2.6600
L7.3490 2.6000
" />
<path d="M7.3490 2.6000
L7.3490 2.8730
" />
<path d="M7.3650 2.0250
L7.3650 2.1240
" />
<path d="M7.3650 2.1240
L7.3650 2.1800
" />
<path d="M7.3650 2.1800
L7.3650 2.2170
" />
<path d="M7.3650 2.2170
L7.3650 2.2880
" />
<path d="M7.3650 2.2880
L7.3650 2.5950
" />
<path d="M7.3650 2.2930
L6.8840 2.2930
" />
<path d="M7.3650 2.5950
L7.3650 2.6750
" />
<path d="M7.3650 2.5950
L7.4840 2.5950
" />
<path d="M7.3650 2.6000
L7.3490 2.6000
" />
<path d="M7.3650 2.6750
L7.4840 2.6750
" />
<path d="M7.4840 2.0250
L7.4840 2.1240
" />
<path d="M7.4840 2.1240
L7.4840 2.1800
" />
<path d="M7.4840 2.1800
L7.4840 2.2170
" />
<path d="M7.4840 2.2170
L7.4840 2.2880
" />
<path d="M7.4840 2.2880
L7.4840 2.5950
" />
<path d="M7.4840 2.5240
L7.9640 2.5240
" />
<path d="M7.4840 2.5950
L7.4840 2.6750
" />
<path d="M7.5000 2.6000
L7.4840 2.6000
" />
<path d="M7.5000 2.6000
L7.5000 2.8730
" />
<path d="M7.5250 4.0240
L7.2230 3.8750
" />
<path d="M7.5250 4.0240
L10.6840 4.0240
" />
<path d="M7.5390 2.6600
L7.5000 2.6000
" />
<path d="M7.5390 2.6600
L7.5390 2.8730
" />
<path d="M7.5390 2.6600
L7.6090 2.6600
" />
<path d="M7.5390 2.8730
L7.3090 2.8730
" />
<path d="M7.6090 2.6600
L7.6090 2.8670
" />
<path d="M7.6500 2.6000
L7.6090 2.6600
" />
<path d="M7.6500 2.6000
L7.6500 2.8420
" />
<path d="M7.6500 2.8420
L7.6090 2.8670
" />
<path d="M7.6640 0.5250
L7.6640 0.7240
" />
<path d="M7.6640 0.5250
L7.7850 0.5250
" />
<path d="M7.6640 0.7240
L7.6640 0.7450
" />
<path d="M7.6640 0.7240
L7.7850 0.7240
" />
<path d="M7.6640 0.7450
L7.6640 0.7750
" />
<path d="M7.6640 2.0730
L7.6640 2.0250
" />
<path d="M7.6640 2.0730
L7.6640 2.1250
" />
<path d="M7.6640 2.1250
L7.6640 2.2930
" />
<path d="M7.6640 2.1250
L7.7850 2.1250
" />
<path d="M7.7850 0.5250
L7.7850 0.7240
" />
<path d="M7.7850 0.7240
L7.7850 0.7450
" />
<path d="M7.7850 0.7450
L7.7850 0.7750
" />
<path d="M7.7850 2.0250
L7.7850 2.0730
" />
<path d="M7.7850 2.0730
L7.6640 2.0730
" />
<path d="M7.7850 2.0730
L7.7850 2.1250
" />
<path d="M7.7850 2.1250
L7.7850 2.2930
" />
<path d="M7.7990 2.6000
L7.6500 2.6000
" />
<path d="M7.7990 2.6000
L7.7990 2.8420
" />
<path d="M7.7990 2.8420
L7.6500 2.8420
" />
<path d="M7.7990 2.8420
L7.8390 2.8670
" />
<path d="M7.8390 2.6600
L7.7990 2.6000
" />
<path d="M7.8390 2.6600
L7.8390 2.8670
" />
<path d="M7.8390 2.6600
L7.9100 2.6600
" />
<path d="M7.8390 2.8670
L7.6090 2.8670
" />
<path d="M7.9100 2.6600
L7.9100 2.8730
" />
<path d="M7.9100 2.6600
L7.9500 2.6000
" />
<path d="M7.9500 2.6000
L7.9500 2.8730
" />
<path d="M7.9640 2.0250
L7.9640 2.1240
" />
<path d="M7.9640 2.1240
L7.9640 2.1800
" />
<path d="M7.9640 2.1800
L7.9640 2.2170
" />
<path d="M7.9640 2.2170
L7.9640 2.2880
" />
<path d="M7.9640 2.2880
L7.9640 2.5950
" />
<path d="M7.9640 2.2930
L7.4840 2.2930
" />
<path d="M7.9640 2.5950
L7.9640 2.6750
" />
<path d="M7.9640 2.5950
L8.0850 2.5950
" />
<path d="M7.9640 2.6000
L7.9500 2.6000
" />
<path d="M7.9640 2.6750
L8.0850 2.6750
" />
<path d="M8.0850 2.0250
L8.0850 2.1240
" />
<path d="M8.0850 2.1240
L8.0850 2.1800
" />
<path d="M8.0850 2.1800
L8.0850 2.2170
" />
<path d="M8.0850 2.2170
L8.0850 2.2880
" />
<path d="M8.0850 2.2880
L8.0850 2.5950
" />
<path d="M8.0850 2.5240
L8.5640 2.5240
" />
<path d="M8.0850 2.5950
L8.0850 2.6750
" />
<path d="M8.0990 2.6000
L8.0850 2.6000
" />
<path d="M8.0990 2.6000
L8.0990 2.8730
" />
<path d="M8.1390 2.6600
L8.0990 2.6000
" />
<path d="M8.1390 2.6600
L8.1390 2.8730
" />
<path d="M8.1390 2.6600
L8.2100 2.6600
" />
<path d="M8.1390 2.8730
L7.9100 2.8730
" />
<path d="M8.2100 2.6600
L8.2100 2.8670
" />
<path d="M8.2490 2.6000
L8.2100 2.6600
" />
<path d="M8.2490 2.6000
L8.2490 2.8420
" />
<path d="M8.2490 2.8420
L8.2100 2.8670
" />
<path d="M8.2640 0.5250
L8.2640 0.7240
" />
<path d="M8.2640 0.5250
L8.3840 0.5250
" />
<path d="M8.2640 0.7240
L8.2640 0.7450
" />
<path d="M8.2640 0.7240
L8.3840 0.7240
" />
<path d="M8.2640 0.7450
L8.2640 0.7750
" />
<path d="M8.2640 2.0730
L8.2640 2.0250
" />
<path d="M8.2640 2.0730
L8.2640 2.1250
" />
<path d="M8.2640 2.1250
L8.2640 2.2930
" />
<path d="M8.2640 2.1250
L8.3840 2.1250
" />
<path d="M8.3840 0.5250
L8.3840 0.7240
" />
<path d="M8.3840 0.7240
L8.3840 0.7450
" />
<path d="M8.3840 0.7450
L8.3840 0.7750
" />
<path d="M8.3840 2.0250
L8.3840 2.0730
" />
<path d="M8.3840 2.0730
L8.2640 2.0730
" />
<path d="M8.3840 2.0730
L8.3840 2.1250
" />
<path d="M8.3840 2.1250
L8.3840 2.2930
" />
<path d="M8.4000 2.6000
L8.2490 2.6000
" />
<path d="M8.4000 2.6000
L8.4000 2.8420
" />
<path d="M8.4000 2.8420
L8.2490 2.8420
" />
<path d="M8.4000 2.8420
L8.4390 2.8670
" />
<path d="M8.4390 2.6600
L8.4000 2.6000
" />
<path d="M8.4390 2.6600
L8.4390 2.8670
" />
<path d="M8.4390 2.6600
L8.5090 2.6600
" />
<path d="M8.4390 2.8670
L8.2100 2.8670
" />
<path d="M8.5090 2.6600
L8.5090 2.8730
" />
<path d="M8.5090 2.6600
L8.5500 2.6000
" />
<path d="M8.5500 2.6000
L8.5500 2.8730
" />
<path d="M8.5640 2.0250
L8.5640 2.1240
" />
<path d="M8.5640 2.1240
L8.5640 2.1800
" />
<path d="M8.5640 2.1800
L8.5640 2.2170
" />
<path d="M8.5640 2.2170
L8.5640 2.2880
" />
<path d="M8.5640 2.2880
L8.5640 2.5950
" />
<path d="M8.5640 2.2930
L8.0850 2.2930
" />
<path d="M8.5640 2.5950
L8.5640 2.6750
" />
<path d="M8.5640 2.5950
L8.6840 2.5950
" />
<path d="M8.5640 2.6000
L8.5500 2.6000
" />
<path d="M8.5640 2.6750
L8.6840 2.6750
" />
<path d="M8.6840 2.0250
L8.6840 2.1240
" />
<path d="M8.6840 2.1240
L8.6840 2.1800
" />
<path d="M8.6840 2.1800
L8.6840 2.2170
" />
<path d="M8.6840 2.2170
L8.6840 2.2880
" />
<path d="M8.6840 2.2880
L8.6840 2.5950
" />
<path d="M8.6840 2.5240
L9.1630 2.5240
" />
<path d="M8.6840 2.5950
L8.6840 2.6750
" />
<path d="M8.7000 2.6000
L8.6840 2.6000
" />
<path d="M8.7000 2.6000
L8.7000 2.8730
" />
<path d="M8.7400 2.6600
L8.7000 2.6000
" />
<path d="M8.7400 2.6600
L8.7400 2.8730
" />
<path d="M8.7400 2.6600
L8.8090 2.6600
" />
<path d="M8.7400 2.8730
L8.5090 2.8730
" />
<path d="M8.8090 2.6600
L8.8090 2.8670
" />
<path d="M8.8490 2.6000
L8.8090 2.6600
" />
<path d="M8.8490 2.6000
L8.8490 2.8420
" />
<path d="M8.8490 2.8420
L8.8090 2.8670
" />
<path d="M8.8650 0.5250
L8.8650 0.7240
" />
<path d="M8.8650 0.5250
L8.9850 0.5250
" />
<path d="M8.8650 0.7240
L8.8650 0.7450
" />
<path d="M8.8650 0.7240
L8.9850 0.7240
" />
<path d="M8.8650 0.7450
L8.8650 0.7750
" />
<path d="M8.8650 2.0730
L8.8650 2.0250
" />
<path d="M8.8650 2.0730
L8.8650 2.1250
" />
<path d="M8.8650 2.1250
L8.8650 2.2930
" />
<path d="M8.8650 2.1250
L8.9850 2.1250
" />
<path d="M8.9850 0.5250
L8.9850 0.7240
" />
<path d="M8.9850 0.7240
L8.9850 0.7450
" />
<path d="M8.9850 0.7450
L8.9850 0.7750
" />
<path d="M8.9850 2.0250
L8.9850 2.0730
" />
<path d="M8.9850 2.0730
L8.8650 2.0730
" />
<path d="M8.9850 2.0730
L8.9850 2.1250
" />
<path d="M8.9850 2.1250
L8.9850 2.2930
" />
<path d="M8.9990 2.6000
L8.8490 2.6000
" />
<path d="M8.9990 2.6000
L8.9990 2.8420
" />
<path d="M8.9990 2.8420
L8.8490 2.8420
" />
<path d="M8.9990 2.8420
L9.0380 2.8670
" />
<path d="M9.0380 2.6600
L8.9990 2.6000
" />
<path d="M9.0380 2.6600
L9.0380 2.8670
" />
<path d="M9.0380 2.6600
L9.1100 2.6600
" />
<path d="M9.0380 2.8670
L8.8090 2.8670
" />
<path d="M9.1100 2.6600
L9.1100 2.8730
" />
<path d="M9.1100 2.6600
L9.1500 2.6000
" />
<path d="M9.1500 2.6000
L9.1500 2.8730
" />
<path d="M9.1630 2.0250
L9.1630 2.1240
" />
<path d="M9.1630 2.1240
L9.1630 2.1800
" />
<path d="M9.1630 2.1800
L9.1630 2.2170
" />
<path d="M9.1630 2.2170
L9.1630 2.2880
" />
<path d="M9.1630 2.2880
L9.1630 2.5950
" />
<path d="M9.1630 2.2930
L8.6840 2.2930
" />
<path d="M9.1630 2.5950
L9.1630 2.6750
" />
<path d="M9.1630 2.5950
L9.2840 2.5950
" />
<path d="M9.1630 2.6000
L9.1500 2.6000
" />
<path d="M9.1630 2.6750
L9.2840 2.6750
" />
<path d="M9.2840 2.0250
L9.2840 2.1240
" />
<path d="M9.2840 2.1240
L9.2840 2.1800
" />
<path d="M9.2840 2.1800
L9.2840 2.2170
" />
<path d="M9.2840 2.2170
L9.2840 2.2880
" />
<path d="M9.2840 2.2880
L9.2840 2.5950
" />
<path d="M9.2840 2.5240
L9.7640 2.5240
" />
<path d="M9.2840 2.5950
L9.2840 2.6750
" />
<path d="M9.3000 2.6000
L9.2840 2.6000
" />
<path d="M9.3000 2.6000
L9.3000 2.8730
" />
<path d="M9.3380 2.6600
L9.3000 2.6000
" />
<path d="M9.3380 2.6600
L9.3380 2.8730
" />
<path d="M9.3380 2.6600
L9.4090 2.6600
" />
<path d="M9.3380 2.8730
L9.1100 2.8730
" />
<path d="M9.4090 2.6600
L9.4090 2.8670
" />
<path d="M9.4500 2.6000
L9.4090 2.6600
" />
<path d="M9.4500 2.6000
L9.4500 2.8420
" />
<path d="M9.4500 2.8420
L9.4090 2.8670
" />
<path d="M9.4630 0.5250
L9.4630 0.7240
" />
<path d="M9.4630 0.5250
L9.5840 0.5250
" />
<path d="M9.4630 0.7240
L9.4630 0.7450
" />
<path d="M9.4630 0.7240
L9.5840 0.7240
" />
<path d="M9.4630 0.7450
L9.4630 0.7750
" />
<path d="M9.4630 2.0730
L9.4630 2.0250
" />
<path d="M9.4630 2.0730
L9.4630 2.1250
" />
<path d="M9.4630 2.1250
L9.4630 2.2930
" />
<path d="M9.4630 2.1250
L9.5840 2.1250
" />
<path d="M9.5840 0.5250
L9.5840 0.7240
" />
<path d="M9.5840 0.7240
L9.5840 0.7450
" />
<path d="M9.5840 0.7450
L9.5840 0.7750
" />
<path d="M9.5840 2.0250
L9.5840 2.0730
" />
<path d="M9.5840 2.0730
L9.4630 2.0730
" />
<path d="M9.5840 2.0730
L9.5840 2.1250
" />
<path d="M9.5840 2.1250
L9.5840 2.2930
" />
<path d="M9.5990 2.6000
L9.4500 2.6000
" />
<path d="M9.5990 2.6000
L9.5990 2.8420
" />
<path d="M9.5990 2.8420
L9.4500 2.8420
" />
<path d="M9.5990 2.8420
L9.6390 2.8670
" />
<path d="M9.6390 2.6600
L9.5990 2.6000
" />
<path d="M9.6390 2.6600
L9.6390 2.8670
" />
<path d="M9.6390 2.6600
L9.7090 2.6600
" />
<path d="M9.6390 2.8670
L9.4090 2.8670
" />
<path d="M9.7090 2.6600
L9.7090 2.8730
" />
<path d="M9.7090 2.6600
L9.7490 2.6000
" />
<path d="M9.7490 2.6000
L9.7490 2.8730
" />
<path d="M9.7640 2.0250
L9.7640 2.1240
" />
<path d="M9.7640 2.1240
L9.7640 2.1800
" />
<path d="M9.7640 2.1800
L9.7640 2.2170
" />
<path d="M9.7640 2.2170
L9.7640 2.2880
" />
<path d="M9.7640 2.2880
L9.7640 2.5950
" />
<path d="M9.7640 2.2930
L9.2840 2.2930
" />
<path d="M9.7640 2.5950
L9.7640 2.6750
" />
<path d="M9.7640 2.5950
L9.8840 2.5950
" />
<path d="M9.7640 2.6000
L9.7490 2.6000
" />
<path d="M9.7640 2.6750
L9.8840 2.6750
" />
<path d="M9.8840 2.0250
L9.8840 2.1240
" />
<path d="M9.8840 2.1240
L9.8840 2.1800
" />
<path d="M9.8840 2.1800
L9.8840 2.2170
" />
<path d="M9.8840 2.2170
L9.8840 2.2880
" />
<path d="M9.8840 2.2880
L9.8840 2.5950
" />
<path d="M9.8840 2.2930
L10.3640 2.2930
" />
<path d="M9.8840 2.5950
L9.8840 2.6750
" />
<path d="M9.8840 2.6000
L9.9000 2.6000
" />
<path d="M9.9000 2.6000
L9.9000 2.8730
" />
<path d="M9.9390 2.6600
L9.9000 2.6000
" />
<path d="M9.9390 2.6600
L10.0090 2.6600
" />
<path d="M9.9390 2.8730
L9.7090 2.8730
" />
<path d="M9.9390 2.8730
L9.9390 2.6600
" />
<path d="M10.0090 2.6600
L10.0500 2.6000
" />
<path d="M10.0090 2.8670
L10.0090 2.6600
" />
<path d="M10.0500 2.6000
L10.0500 2.8420
" />
<path d="M10.0500 2.6000
L10.2000 2.6000
" />
<path d="M10.0500 2.8420
L10.0090 2.8670
" />
<path d="M10.0500 2.8420
L10.2000 2.8420
" />
<path d="M10.0640 0.5250
L10.0640 0.7240
" />
<path d="M10.0640 0.7240
L10.0640 0.7450
" />
<path d="M10.0640 0.7240
L10.1830 0.7240
" />
<path d="M10.0640 0.7450
L10.0640 0.7750
" />
<path d="M10.0640 2.0250
L10.0640 2.0730
" />
<path d="M10.0640 2.0730
L10.0640 2.1250
" />
<path d="M10.0640 2.0730
L10.1830 2.0730
" />
<path d="M10.0640 2.1250
L10.0640 2.2930
" />
<path d="M10.1830 0.5250
L10.0640 0.5250
" />
<path d="M10.1830 0.5250
L10.1830 0.7240
" />
<path d="M10.1830 0.7240
L10.1830 0.7450
" />
<path d="M10.1830 0.7450
L10.1830 0.7750
" />
<path d="M10.1830 2.0730
L10.1830 2.0250
" />
<path d="M10.1830 2.0730
L10.1830 2.1250
" />
<path d="M10.1830 2.1250
L10.0640 2.1250
" />
<path d="M10.1830 2.1250
L10.1830 2.2930
" />
<path d="M10.2000 2.6000
L10.2000 2.8420
" />
<path d="M10.2000 2.6000
L10.2390 2.6600
" />
<path d="M10.2000 2.8420
L10.2390 2.8670
" />
<path d="M10.2390 2.6600
L10.3090 2.6600
" />
<path d="M10.2390 2.8670
L10.0090 2.8670
" />
<path d="M10.2390 2.8670
L10.2390 2.6600
" />
<path d="M10.3090 2.6600
L10.3480 2.6000
" />
<path d="M10.3090 2.8730
L10.3090 2.6600
" />
<path d="M10.3480 2.6000
L10.3480 2.8730
" />
<path d="M10.3480 2.6000
L10.3640 2.6000
" />
<path d="M10.3640 2.0250
L10.3640 2.1240
" />
<path d="M10.3640 2.1240
L10.3640 2.1800
" />
<path d="M10.3640 2.1800
L10.3640 2.2170
" />
<path d="M10.3640 2.2170
L10.3640 2.2880
" />
<path d="M10.3640 2.2880
L10.3640 2.5950
" />
<path d="M10.3640 2.5240
L9.8840 2.5240
" />
<path d="M10.3640 2.5950
L10.3640 2.6750
" />
<path d="M10.4840 2.0250
L10.4840 2.1240
" />
<path d="M10.4840 2.1240
L10.4840 2.1800
" />
<path d="M10.4840 2.1800
L10.4840 2.2170
" />
<path d="M10.4840 2.2170
L10.4840 2.2880
" />
<path d="M10.4840 2.2880
L10.4840 2.5950
" />
<path d="M10.4840 2.2930
L10.9630 2.2930
" />
<path d="M10.4840 2.5950
L10.3640 2.5950
" />
<path d="M10.4840 2.5950
L10.4840 2.6750
" />
<path d="M10.4840 2.6000
L10.5000 2.6000
" />
<path d="M10.4840 2.6750
L10.3640 2.6750
" />
<path d="M10.5000 2.6000
L10.5000 2.8730
" />
<path d="M10.5400 2.6600
L10.5000 2.6000
" />
<path d="M10.5400 2.6600
L10.6090 2.6600
" />
<path d="M10.5400 2.8730
L10.3090 2.8730
" />
<path d="M10.5400 2.8730
L10.5400 2.6600
" />
<path d="M10.6090 2.6600
L10.6490 2.6000
" />
<path d="M10.6090 2.8670
L10.6090 2.6600
" />
<path d="M10.6490 2.6000
L10.6490 2.8420
" />
<path d="M10.6490 2.6000
L10.8000 2.6000
" />
<path d="M10.6490 2.8420
L10.6090 2.8670
" />
<path d="M10.6490 2.8420
L10.8000 2.8420
" />
<path d="M10.6650 0.5250
L10.6650 0.7240
" />
<path d="M10.6650 0.7240
L10.6650 0.7450
" />
<path d="M10.6650 0.7240
L10.7850 0.7240
" />
<path d="M10.6650 0.7450
L10.6650 0.7750
" />
<path d="M10.6650 2.0250
L10.6650 2.0730
" />
<path d="M10.6650 2.0730
L10.6650 2.1250
" />
<path d="M10.6650 2.0730
L10.7850 2.0730
" />
<path d="M10.6650 2.1250
L10.6650 2.2930
" />
<path d="M10.6840 3.7240
L10.6840 4.0240
" />
<path d="M10.6840 3.7240
L11.2850 3.7240
" />
<path d="M10.7850 0.5250
L10.6650 0.5250
" />
<path d="M10.7850 0.5250
L10.7850 0.7240
" />
<path d="M10.7850 0.7240
L10.7850 0.7450
" />
<path d="M10.7850 0.7450
L10.7850 0.7750
" />
<path d="M10.7850 2.0730
L10.7850 2.0250
" />
<path d="M10.7850 2.0730
L10.7850 2.1250
" />
<path d="M10.7850 2.1250
L10.6650 2.1250
" />
<path d="M10.7850 2.1250
L10.7850 2.2930
" />
<path d="M10.8000 2.6000
L10.8000 2.8420
" />
<path d="M10.8000 2.6000
L10.8380 2.6600
" />
<path d="M10.8000 2.8420
L10.8380 2.8670
" />
<path d="M10.8380 2.6600
L10.9100 2.6600
" />
<path d="M10.8380 2.8670
L10.6090 2.8670
" />
<path d="M10.8380 2.8670
L10.8380 2.6600
" />
<path d="M10.9100 2.6600
L10.9500 2.6000
" />
<path d="M10.9100 2.8730
L10.9100 2.6600
" />
<path d="M10.9100 2.8730
L11.1380 2.8730
" />
<path d="M10.9500 2.6000
L10.9500 2.8730
" />
<path d="M10.9500 2.6000
L10.9630 2.6000
" />
<path d="M10.9630 2.0250
L10.9630 2.1240
" />
<path d="M10.9630 2.1240
L10.9630 2.1800
" />
<path d="M10.9630 2.1800
L10.9630 2.2170
" />
<path d="M10.9630 2.2170
L10.9630 2.2880
" />
<path d="M10.9630 2.2880
L10.9630 2.5950
" />
<path d="M10.9630 2.5240
L10.4840 2.5240
" />
<path d="M10.9630 2.5950
L10.9630 2.6750
" />
<path d="M10.9630 3.7240
L10.9630 3.7740
" />
<path d="M11.0850 2.0250
L11.0850 2.1240
" />
<path d="M11.0850 2.1240
L11.0850 2.1800
" />
<path d="M11.0850 2.1800
L11.0850 2.2170
" />
<path d="M11.0850 2.2170
L11.0850 2.2880
" />
<path d="M11.0850 2.2880
L11.0850 2.5950
" />
<path d="M11.0850 2.2930
L11.2850 2.2930
" />
<path d="M11.0850 2.5950
L10.9630 2.5950
" />
<path d="M11.0850 2.5950
L11.0850 2.6750
" />
<path d="M11.0850 2.6000
L11.0980 2.6000
" />
<path d="M11.0850 2.6750
L10.9630 2.6750
" />
<path d="M11.0850 3.7240
L11.0850 3.7740
" />
<path d="M11.0850 3.7740
L10.9630 3.7740
" />
<path d="M11.0980 2.6000
L11.0980 2.8730
" />
<path d="M11.1380 2.6600
L11.0980 2.6000
" />
<path d="M11.1380 2.6600
L11.3830 2.6600
" />
<path d="M11.1380 2.8730
L11.1380 2.6600
" />
<path d="M11.2850 2.0250
L11.2850 2.2930
" />
<path d="M11.2850 2.1250
L11.3380 2.1250
" />
<path d="M11.2850 2.2930
L11.2850 2.5240
" />
<path d="M11.2850 2.5240
L11.0850 2.5240
" />
<path d="M11.2850 3.0230
L11.5240 3.0230
" />
<path d="M11.2850 3.6250
L11.4100 3.6250
" />
<path d="M11.2850 3.7240
L11.2850 3.0230
" />
<path d="M11.3380 2.0400
L11.3380 2.0250
" />
<path d="M11.3380 2.0400
L11.3380 2.3240
" />
<path d="M11.3380 2.3240
L11.3380 2.5230
" />
<path d="M11.3380 3.0230
L11.3380 3.5550
" />
<path d="M11.3480 3.2370
L11.3400 3.1680
" />
<path d="M11.3650 3.1340
L11.3400 3.1680
" />
<path d="M11.3650 3.1340
L11.4260 3.1270
" />
<path d="M11.3750 3.4660
L11.3480 3.2370
" />
<path d="M11.3750 3.4660
L11.3770 3.4740
" />
<path d="M11.3770 3.4740
L11.3780 3.4820
" />
<path d="M11.3780 3.4820
L11.3800 3.4900
" />
<path d="M11.3800 3.4900
L11.3830 3.4980
" />
<path d="M11.3830 2.5230
L11.2850 2.5230
" />
<path d="M11.3830 2.5230
L11.2850 2.5230
" />
<path d="M11.3830 2.5230
L11.3830 2.6600
" />
<path d="M11.3830 3.4980
L11.3860 3.5060
" />
<path d="M11.3860 3.5060
L11.3880 3.5140
" />
<path d="M11.3880 3.5140
L11.3910 3.5220
" />
<path d="M11.3910 3.5220
L11.3960 3.5280
" />
<path d="M11.3960 3.5280
L11.3990 3.5360
" />
<path d="M11.3990 3.5360
L11.4040 3.5420
" />
<path d="M11.4040 3.5420
L11.4070 3.5500
" />
<path d="M11.4070 3.5500
L11.4120 3.5550
" />
<path d="M11.4100 3.6250
L11.3380 3.5550
" />
<path d="M11.4120 3.5550
L11.4180 3.5610
" />
<path d="M11.4180 3.5610
L11.4230 3.5670
" />
<path d="M11.4230 3.5670
L11.4280 3.5730
" />
<path d="M11.4250 0.7750
L1.0230 0.7750
" />
<path d="M11.4250 0.7750
L11.4250 1.2750
" />
<path d="M11.4250 1.2750
L11.9250 1.2750
" />
<path d="M11.4260 3.1270
L11.4580 3.1530
" />
<path d="M11.4280 3.5730
L11.4340 3.5790
" />
<path d="M11.4340 3.5790
L11.4410 3.5830
" />
<path d="M11.4410 3.5830
L11.4470 3.5890
" />
<path d="M11.4470 3.5890
L11.4530 3.5930
" />
<path d="M11.4530 3.5930
L11.4600 3.5970
" />
<path d="M11.4600 3.5970
L11.4680 3.6010
" />
<path d="M11.4660 3.2240
L11.4580 3.1530
" />
<path d="M11.4680 3.6010
L11.4740 3.6050
" />
<path d="M11.4740 3.6050
L11.4810 3.6090
" />
<path d="M11.4810 3.6090
L11.4890 3.6110
" />
<path d="M11.4840 2.3240
L11.4840 2.5230
" />
<path d="M11.4840 3.0230
L11.4840 3.3650
" />
<path d="M11.4840 3.6090
L11.4840 3.6250
" />
<path d="M11.4840 3.6250
L11.4100 3.6250
" />
<path d="M11.4890 3.6110
L11.4970 3.6150
" />
<path d="M11.4950 3.4520
L11.4660 3.2240
" />
<path d="M11.4950 3.4520
L11.4950 3.4540
" />
<path d="M11.4950 3.4540
L11.4950 3.4560
" />
<path d="M11.4950 3.4560
L11.4950 3.4600
" />
<path d="M11.4950 3.4600
L11.4970 3.4620
" />
<path d="M11.4970 3.4620
L11.4970 3.4640
" />
<path d="M11.4970 3.4640
L11.4980 3.4680
" />
<path d="M11.4970 3.6150
L11.5050 3.6170
" />
<path d="M11.4980 3.4680
L11.5000 3.4700
" />
<path d="M11.5000 3.4700
L11.5000 3.4720
" />
<path d="M11.5000 3.4720
L11.5030 3.4740
" />
<path d="M11.5030 3.4740
L11.5030 3.4760
" />
<path d="M11.5030 3.4760
L11.5050 3.4800
" />
<path d="M11.5050 3.4800
L11.5060 3.4820
" />
<path d="M11.5050 3.6170
L11.5130 3.6190
" />
<path d="M11.5060 3.4820
L11.5080 3.4840
" />
<path d="M11.5080 3.4840
L11.5110 3.4860
" />
<path d="M11.5110 3.4860
L11.5130 3.4880
" />
<path d="M11.5130 3.4880
L11.5140 3.4880
" />
<path d="M11.5130 3.6190
L11.5210 3.6210
" />
<path d="M11.5140 3.4880
L11.5160 3.4900
" />
<path d="M11.5160 3.4900
L11.5190 3.4920
" />
<path d="M11.5190 3.4920
L11.5210 3.4940
" />
<path d="M11.5210 3.4940
L11.5220 3.4960
" />
<path d="M11.5210 3.6210
L11.5290 3.6230
" />
<path d="M11.5220 3.4960
L11.5260 3.4960
" />
<path d="M11.5240 2.0580
L11.5240 2.5230
" />
<path d="M11.5240 2.3240
L11.3380 2.3240
" />
<path d="M11.5240 2.5230
L11.3830 2.5230
" />
<path d="M11.5260 3.4960
L11.5270 3.4980
" />
<path d="M11.5270 3.4980
L11.5290 3.4980
" />
<path d="M11.5290 3.4980
L11.5320 3.5000
" />
<path d="M11.5290 3.6230
L11.5370 3.6230
" />
<path d="M11.5320 3.5000
L11.5350 3.5000
" />
<path d="M11.5350 3.5000
L11.5370 3.5020
" />
<path d="M11.5370 3.5020
L11.5400 3.5020
" />
<path d="M11.5370 3.6230
L11.5450 3.6230
" />
<path d="M11.5400 3.5020
L11.5430 3.5020
" />
<path d="M11.5430 3.5020
L11.5450 3.5040
" />
<path d="M11.5450 3.5040
L11.5480 3.5040
" />
<path d="M11.5450 3.6230
L11.5530 3.6250
" />
<path d="M11.5480 3.5040
L11.5510 3.5040
" />
<path d="M11.5510 3.5040
L11.5530 3.5040
" />
<path d="M11.5530 3.5040
L11.5560 3.5040
" />
<path d="M11.5530 3.6250
L11.5620 3.6230
" />
<path d="M11.5560 3.5040
L11.5590 3.5040
" />
<path d="M11.5590 3.5040
L11.5620 3.5040
" />
<path d="M11.5620 3.5040
L11.5660 3.5020
" />
<path d="M11.5620 3.6230
L11.5720 3.6230
" />
<path d="M11.5660 3.5020
L11.5690 3.5020
" />
<path d="M11.5690 3.5020
L11.5720 3.5020
" />
<path d="M11.5720 3.5020
L11.5750 3.5000
" />
<path d="M11.5720 3.6230
L11.5800 3.6230
" />
<path d="M11.5750 3.5000
L11.5770 3.5000
" />
<path d="M11.5770 3.5000
L11.5800 3.4980
" />
<path d="M11.5800 3.4980
L11.5830 3.4960
" />
<path d="M11.5800 3.4980
L11.6090 3.4700
" />
<path d="M11.5800 3.6230
L11.5900 3.6210
" />
<path d="M11.5830 3.4960
L11.5850 3.4960
" />
<path d="M11.5850 3.4960
L11.5880 3.4940
" />
<path d="M11.5880 3.4940
L11.5900 3.4920
" />
<path d="M11.5900 3.4920
L11.5930 3.4900
" />
<path d="M11.5900 3.6210
L11.5980 3.6190
" />
<path d="M11.5930 3.4900
L11.5940 3.4880
" />
<path d="M11.5940 3.4880
L11.5960 3.4860
" />
</g>
<g style="fill:#000000; fill-opacity:1.0000; stroke:none;">
<circle cx="11.5960" cy="3.4860" r="0.0100" /> 
</g>
<g style="fill:none; 
stroke:#000000; stroke-width:0.0200; stroke-opacity:1; 
stroke-linecap:round; stroke-linejoin:round;">
<path d="M11.5960 3.4860
L11.5990 3.4840
" />
<path d="M11.5980 3.6190
L11.6060 3.6170
" />
<path d="M11.5990 3.4840
L11.6010 3.4820
" />
<path d="M11.6010 3.4820
L11.6030 3.4800
" />
<path d="M11.6030 3.4800
L11.6040 3.4780
" />
<path d="M11.6040 3.4780
L11.6060 3.4740
" />
<path d="M11.6060 3.4720
L11.6090 3.4700
" />
<path d="M11.6060 3.4740
L11.6060 3.4720
" />
<path d="M11.6060 3.6170
L11.6140 3.6130
" />
<path d="M11.6090 3.4660
L11.6110 3.4640
" />
<path d="M11.6090 3.4700
L11.6090 3.4660
" />
<path d="M11.6110 3.4640
L11.6120 3.4620
" />
<path d="M11.6120 3.4560
L11.6140 3.4520
" />
<path d="M11.6120 3.4580
L11.6120 3.4560
" />
<path d="M11.6120 3.4620
L11.6120 3.4580
" />
<path d="M11.6140 3.0230
L11.6140 3.0750
" />
<path d="M11.6140 3.0750
L11.6140 3.1230
" />
<path d="M11.6140 3.1230
L11.6140 3.2220
" />
<path d="M11.6140 3.1230
L11.7340 3.1230
" />
<path d="M11.6140 3.2220
L11.6140 3.4440
" />
<path d="M11.6140 3.4230
L11.6140 3.4440
" />
<path d="M11.6140 3.4440
L11.6140 3.4230
" />
<path d="M11.6140 3.4460
L11.6140 3.4440
" />
<path d="M11.6140 3.4500
L11.6140 3.4460
" />
<path d="M11.6140 3.4520
L11.6140 3.4500
" />
<path d="M11.6140 3.6130
L11.6140 3.6250
" />
<path d="M11.6140 3.6130
L11.6220 3.6110
" />
<path d="M11.6140 3.6250
L11.7340 3.6250
" />
<path d="M11.6220 3.6110
L11.6300 3.6070
" />
<path d="M11.6300 3.6070
L11.6380 3.6030
" />
<path d="M11.6380 3.6030
L11.6460 3.5990
" />
<path d="M11.6460 3.5990
L11.6540 3.5930
" />
<path d="M11.6540 3.5930
L11.6620 3.5890
" />
<path d="M11.6620 3.5890
L11.6680 3.5830
" />
<path d="M11.6680 3.5830
L11.6750 3.5770
" />
<path d="M11.6750 3.5770
L11.6810 3.5710
" />
</g>
<g style="fill:#000000; fill-opacity:1.0000; stroke:none;">
<circle cx="11.6810" cy="3.5710" r="0.0100" /> 
</g>
<g style="fill:none; 
stroke:#000000; stroke-width:0.0200; stroke-opacity:1; 
stroke-linecap:round; stroke-linejoin:round;">
<path d="M11.6810 3.5710
L11.6870 3.5650
" />
<path d="M11.6870 3.5650
L11.6940 3.5590
" />
<path d="M11.6940 3.5590
L11.6990 3.5520
" />
<path d="M11.6990 3.5520
L11.7030 3.5440
" />
<path d="M11.7030 3.5440
L11.7080 3.5360
" />
<path d="M11.7080 3.5360
L11.7130 3.5280
" />
<path d="M11.7130 3.5280
L11.7160 3.5200
" />
<path d="M11.7160 3.5200
L11.7210 3.5120
" />
<path d="M11.7210 3.5120
L11.7240 3.5040
" />
<path d="M11.7240 3.5040
L11.7260 3.4960
" />
<path d="M11.7260 3.4960
L11.7290 3.4880
" />
<path d="M11.7290 3.4880
L11.7310 3.4800
" />
<path d="M11.7310 3.4800
L11.7320 3.4700
" />
<path d="M11.7320 3.4700
L11.7340 3.4620
" />
<path d="M11.7340 2.0400
L11.3380 2.0400
" />
<path d="M11.7340 2.0580
L11.5240 2.0580
" />
<path d="M11.7340 2.8630
L11.7340 2.0400
" />
<path d="M11.7340 2.8630
L11.7340 3.0230
" />
<path d="M11.7340 2.8630
L11.7930 2.9250
" />
<path d="M11.7340 3.0230
L11.2850 3.0230
" />
<path d="M11.7340 3.0750
L11.7340 3.0230
" />
<path d="M11.7340 3.1230
L11.7340 3.0750
" />
<path d="M11.7340 3.2220
L11.7340 3.1230
" />
<path d="M11.7340 3.4440
L11.7340 3.2220
" />
<path d="M11.7340 3.4440
L11.7340 3.4580
" />
<path d="M11.7340 3.4520
L11.7340 3.4440
" />
<path d="M11.7340 3.4620
L11.7340 3.4520
" />
<path d="M11.7340 3.6250
L11.7340 3.4740
" />
<path d="M11.9250 1.2750
L11.9250 2.9250
" />
<path d="M11.9250 2.9250
L11.7930 2.9250
" />
</g> 
</svg>
