<?xml version="1.0" standalone="no"?>
 <!DOCTYPE svg PUBLIC "-//W3C//DTD SVG 1.1//EN" 
 "http://www.w3.org/Graphics/SVG/1.1/DTD/svg11.dtd"> 
<svg
  xmlns:svg="http://www.w3.org/2000/svg"
  xmlns="http://www.w3.org/2000/svg"
  xmlns:xlink="http://www.w3.org/1999/xlink"
  version="1.1"
  width="8.9662mm" height="7.8486mm" viewBox="0.0000 0.0000 8.9662 7.8486">
<title>SVG Image created as outline.svg date 2025/04/04 10:06:35 </title>
  <desc>Image generated by PCBNEW </desc>
<g style="fill:#000000; fill-opacity:1.0000;stroke:#000000; stroke-opacity:1.0000;
stroke-linecap:round; stroke-linejoin:round;"
 transform="translate(0 0) scale(1 1)">
</g>
<g style="fill:none; 
stroke:#000000; stroke-width:0.0200; stroke-opacity:1; 
stroke-linecap:round; stroke-linejoin:round;">
<path d="M0.8250 2.9250
L0.8250 4.9250
" />
<path d="M0.8250 4.9250
L0.8250 2.9250
" />
<path d="M0.8250 4.9250
L0.9750 4.9250
" />
<path d="M0.9750 0.7750
L0.9760 0.7510
" />
<path d="M0.9750 2.9250
L0.8250 2.9250
" />
<path d="M0.9750 2.9250
L0.9750 0.7750
" />
<path d="M0.9750 2.9250
L1.6250 2.9250
" />
<path d="M0.9750 7.0750
L0.9750 4.9250
" />
<path d="M0.9760 0.7510
L0.9780 0.7260
" />
<path d="M0.9760 7.0990
L0.9750 7.0750
" />
<path d="M0.9780 0.7260
L0.9810 0.7020
" />
<path d="M0.9780 7.1240
L0.9760 7.0990
" />
<path d="M0.9810 0.7020
L0.9850 0.6770
" />
<path d="M0.9810 7.1480
L0.9780 7.1240
" />
<path d="M0.9850 0.6770
L0.9910 0.6540
" />
<path d="M0.9850 7.1730
L0.9810 7.1480
" />
<path d="M0.9910 0.6540
L0.9970 0.6300
" />
<path d="M0.9910 7.1960
L0.9850 7.1730
" />
<path d="M0.9970 0.6300
L1.0050 0.6070
" />
<path d="M0.9970 7.2200
L0.9910 7.1960
" />
<path d="M1.0050 0.6070
L1.0140 0.5840
" />
<path d="M1.0050 7.2420
L0.9970 7.2200
" />
<path d="M1.0140 0.5840
L1.0230 0.5620
" />
<path d="M1.0140 7.2660
L1.0050 7.2420
" />
<path d="M1.0230 0.5620
L1.0340 0.5410
" />
<path d="M1.0230 7.2880
L1.0140 7.2660
" />
<path d="M1.0340 0.5410
L1.0460 0.5190
" />
<path d="M1.0340 7.3090
L1.0230 7.2880
" />
<path d="M1.0460 0.5190
L1.0600 0.4980
" />
<path d="M1.0460 7.3300
L1.0340 7.3090
" />
<path d="M1.0600 0.4980
L1.0740 0.4780
" />
<path d="M1.0600 7.3510
L1.0460 7.3300
" />
<path d="M1.0740 0.4780
L1.0890 0.4590
" />
<path d="M1.0740 7.3720
L1.0600 7.3510
" />
<path d="M1.0890 0.4590
L1.1050 0.4400
" />
<path d="M1.0890 7.3910
L1.0740 7.3720
" />
<path d="M1.1050 0.4400
L1.1220 0.4220
" />
<path d="M1.1050 7.4100
L1.0890 7.3910
" />
</g>
<g style="fill:#000000; fill-opacity:1.0000; stroke:none;">
<circle cx="1.1220" cy="0.4220" r="0.0100" /> 
</g>
<g style="fill:none; 
stroke:#000000; stroke-width:0.0200; stroke-opacity:1; 
stroke-linecap:round; stroke-linejoin:round;">
<path d="M1.1220 0.4220
L1.1400 0.4050
" />
<path d="M1.1220 7.4280
L1.1050 7.4100
" />
</g>
<g style="fill:#000000; fill-opacity:1.0000; stroke:none;">
<circle cx="1.1220" cy="7.4280" r="0.0100" /> 
</g>
<g style="fill:none; 
stroke:#000000; stroke-width:0.0200; stroke-opacity:1; 
stroke-linecap:round; stroke-linejoin:round;">
<path d="M1.1400 0.4050
L1.1590 0.3890
" />
<path d="M1.1400 7.4440
L1.1220 7.4280
" />
<path d="M1.1590 0.3890
L1.1780 0.3740
" />
<path d="M1.1590 7.4600
L1.1400 7.4440
" />
<path d="M1.1780 0.3740
L1.1980 0.3600
" />
<path d="M1.1780 7.4760
L1.1590 7.4600
" />
<path d="M1.1980 0.3600
L1.2190 0.3470
" />
<path d="M1.1980 7.4900
L1.1780 7.4760
" />
<path d="M1.2190 0.3470
L1.2400 0.3340
" />
<path d="M1.2190 7.5030
L1.1980 7.4900
" />
<path d="M1.2400 0.3340
L1.2620 0.3230
" />
<path d="M1.2400 7.5160
L1.2190 7.5030
" />
<path d="M1.2620 0.3230
L1.2840 0.3150
" />
<path d="M1.2620 7.5270
L1.2400 7.5160
" />
<path d="M1.2840 0.3150
L1.3070 0.3050
" />
<path d="M1.2840 7.5350
L1.2620 7.5270
" />
<path d="M1.3070 0.3050
L1.3300 0.2970
" />
<path d="M1.3070 7.5450
L1.2840 7.5350
" />
<path d="M1.3300 0.2970
L1.3540 0.2910
" />
<path d="M1.3300 7.5530
L1.3070 7.5450
" />
<path d="M1.3540 0.2910
L1.3770 0.2860
" />
<path d="M1.3540 7.5590
L1.3300 7.5530
" />
<path d="M1.3770 0.2860
L1.4020 0.2810
" />
<path d="M1.3770 7.5640
L1.3540 7.5590
" />
<path d="M1.4020 0.2810
L1.4260 0.2780
" />
<path d="M1.4020 7.5690
L1.3770 7.5640
" />
<path d="M1.4260 0.2780
L1.4510 0.2760
" />
<path d="M1.4260 7.5720
L1.4020 7.5690
" />
<path d="M1.4510 0.2760
L1.4750 0.2750
" />
<path d="M1.4510 7.5740
L1.4260 7.5720
" />
<path d="M1.4750 0.2750
L7.4750 0.2750
" />
<path d="M1.4750 7.5750
L1.4510 7.5740
" />
<path d="M1.6250 2.9250
L1.6360 2.9260
" />
<path d="M1.6250 4.9250
L0.9750 4.9250
" />
<path d="M1.6360 2.9260
L1.6460 2.9270
" />
<path d="M1.6360 4.9240
L1.6250 4.9250
" />
<path d="M1.6460 2.9270
L1.6560 2.9280
" />
<path d="M1.6460 4.9230
L1.6360 4.9240
" />
<path d="M1.6470 4.9230
L1.6880 5.0340
" />
<path d="M1.6560 2.9280
L1.6660 2.9300
" />
<path d="M1.6560 4.9210
L1.6460 4.9230
" />
<path d="M1.6660 2.9300
L1.6750 2.9320
" />
<path d="M1.6660 4.9200
L1.6560 4.9210
" />
<path d="M1.6750 2.9320
L1.6850 2.9340
" />
<path d="M1.6750 4.9170
L1.6660 4.9200
" />
<path d="M1.6850 2.9340
L1.6940 2.9380
" />
<path d="M1.6850 4.9160
L1.6750 4.9170
" />
<path d="M1.6880 5.0340
L1.7340 5.1430
" />
<path d="M1.6940 2.9380
L1.7030 2.9410
" />
<path d="M1.6940 4.9120
L1.6850 4.9160
" />
<path d="M1.7030 2.9410
L1.7120 2.9450
" />
<path d="M1.7030 4.9090
L1.6940 4.9120
" />
<path d="M1.7030 5.0700
L1.7160 5.1020
" />
<path d="M1.7120 2.9450
L1.7210 2.9500
" />
<path d="M1.7120 4.9050
L1.7030 4.9090
" />
<path d="M1.7160 5.1020
L1.7220 5.1150
" />
<path d="M1.7210 2.9500
L1.7290 2.9540
" />
<path d="M1.7210 4.9000
L1.7120 4.9050
" />
<path d="M1.7220 5.1150
L1.7270 5.1260
" />
<path d="M1.7290 2.9540
L1.7370 2.9600
" />
<path d="M1.7290 4.8960
L1.7210 4.9000
" />
<path d="M1.7340 2.7070
L1.6470 2.9270
" />
<path d="M1.7340 5.1430
L1.7840 5.2500
" />
<path d="M1.7370 2.9600
L1.7450 2.9650
" />
<path d="M1.7370 4.8890
L1.7290 4.8960
" />
<path d="M1.7450 2.9650
L1.7530 2.9720
" />
<path d="M1.7450 4.8850
L1.7370 4.8890
" />
<path d="M1.7530 2.9720
L1.7600 2.9780
" />
<path d="M1.7530 4.8790
L1.7450 4.8850
" />
<path d="M1.7600 2.9780
L1.7670 2.9840
" />
<path d="M1.7600 4.8720
L1.7530 4.8790
" />
<path d="M1.7670 2.9840
L1.7740 2.9920
" />
<path d="M1.7670 4.8650
L1.7600 4.8720
" />
<path d="M1.7740 2.9920
L1.7800 2.9980
" />
<path d="M1.7740 4.8590
L1.7670 4.8650
" />
<path d="M1.7800 2.9980
L1.7860 3.0060
" />
<path d="M1.7800 4.8520
L1.7740 4.8590
" />
<path d="M1.7840 5.2500
L1.8380 5.3530
" />
<path d="M1.7860 3.0060
L1.7910 3.0140
" />
<path d="M1.7860 4.8440
L1.7800 4.8520
" />
<path d="M1.7910 3.0140
L1.7970 3.0220
" />
<path d="M1.7910 4.8360
L1.7860 4.8440
" />
<path d="M1.7970 3.0220
L1.8010 3.0300
" />
<path d="M1.7970 4.8280
L1.7910 4.8360
" />
<path d="M1.8010 3.0300
L1.8060 3.0400
" />
<path d="M1.8010 4.8200
L1.7970 4.8280
" />
<path d="M1.8060 3.0400
L1.8100 3.0480
" />
<path d="M1.8060 4.8110
L1.8010 4.8200
" />
<path d="M1.8100 3.0480
L1.8130 3.0570
" />
<path d="M1.8100 4.8010
L1.8060 4.8110
" />
<path d="M1.8130 3.0570
L1.8170 3.0660
" />
<path d="M1.8130 4.7920
L1.8100 4.8010
" />
<path d="M1.8140 3.0570
L1.8510 2.9500
" />
<path d="M1.8170 3.0660
L1.8190 3.0760
" />
<path d="M1.8170 4.7840
L1.8130 4.7920
" />
<path d="M1.8190 3.0760
L1.8210 3.0850
" />
<path d="M1.8190 4.7740
L1.8170 4.7840
" />
<path d="M1.8210 3.0850
L1.8230 3.0950
" />
<path d="M1.8210 4.7640
L1.8190 4.7740
" />
<path d="M1.8230 3.0950
L1.8240 3.1050
" />
<path d="M1.8230 4.7550
L1.8210 4.7640
" />
<path d="M1.8240 3.1050
L1.8250 3.1150
" />
<path d="M1.8240 4.7440
L1.8230 4.7550
" />
<path d="M1.8250 3.1150
L1.8250 3.1250
" />
<path d="M1.8250 3.1250
L1.8250 4.7240
" />
<path d="M1.8250 3.6260
L2.0750 3.6260
" />
<path d="M1.8250 3.6260
L2.0750 3.6260
" />
<path d="M1.8250 4.2240
L2.0750 4.2240
" />
<path d="M1.8250 4.7240
L1.8250 4.7350
" />
<path d="M1.8250 4.7350
L1.8240 4.7440
" />
<path d="M1.8380 2.4960
L1.7340 2.7070
" />
<path d="M1.8380 5.3530
L1.8950 5.4550
" />
<path d="M1.8510 2.9500
L1.8920 2.8460
" />
<path d="M1.8920 2.8460
L1.8140 3.0570
" />
<path d="M1.8920 2.8460
L1.9370 2.7430
" />
<path d="M1.8920 5.0040
L1.8140 4.7920
" />
<path d="M1.8950 5.4550
L1.9560 5.5530
" />
<path d="M1.9370 2.7430
L1.9860 2.6430
" />
<path d="M1.9560 2.2970
L1.8380 2.4960
" />
<path d="M1.9560 5.5530
L2.0210 5.6490
" />
<path d="M1.9860 2.6430
L1.8920 2.8460
" />
<path d="M1.9860 2.6430
L2.0390 2.5460
" />
<path d="M1.9860 5.2070
L1.8920 5.0040
" />
<path d="M2.0210 5.6490
L2.0880 5.7420
" />
<path d="M2.0390 2.5460
L2.0950 2.4510
" />
<path d="M2.0750 3.6260
L1.8250 3.6260
" />
<path d="M2.0750 4.2240
L1.8250 4.2240
" />
<path d="M2.0750 4.2240
L2.0950 4.2230
" />
<path d="M2.0860 3.6270
L2.0750 3.6260
" />
<path d="M2.0880 2.1080
L1.9560 2.2970
" />
<path d="M2.0880 5.7420
L2.1600 5.8320
" />
<path d="M2.0950 2.4510
L1.9860 2.6430
" />
<path d="M2.0950 2.4510
L2.1550 2.3600
" />
<path d="M2.0950 3.6270
L2.0860 3.6270
" />
<path d="M2.0950 4.2230
L2.1150 4.2220
" />
<path d="M2.0950 5.3990
L1.9860 5.2070
" />
<path d="M2.1050 3.6270
L2.0950 3.6270
" />
<path d="M2.1150 3.6280
L2.1050 3.6270
" />
<path d="M2.1150 4.2220
L2.1350 4.2190
" />
<path d="M2.1250 3.6310
L2.1150 3.6280
" />
<path d="M2.1350 3.6310
L2.1250 3.6310
" />
<path d="M2.1350 4.2190
L2.1540 4.2140
" />
<path d="M2.1440 3.6340
L2.1350 3.6310
" />
<path d="M2.1540 3.6360
L2.1440 3.6340
" />
<path d="M2.1540 4.2140
L2.1720 4.2070
" />
<path d="M2.1550 2.3600
L2.2180 2.2690
" />
<path d="M2.1600 5.8320
L2.2340 5.9180
" />
<path d="M2.1630 3.6390
L2.1540 3.6360
" />
<path d="M2.1720 3.6430
L2.1630 3.6390
" />
<path d="M2.1720 4.2070
L2.1910 4.2020
" />
<path d="M2.1820 3.6460
L2.1720 3.6430
" />
<path d="M2.1910 3.6480
L2.1820 3.6460
" />
<path d="M2.1910 4.2020
L2.2080 4.1920
" />
<path d="M2.2000 3.6520
L2.1910 3.6480
" />
<path d="M2.2080 3.6580
L2.2000 3.6520
" />
<path d="M2.2080 4.1920
L2.2250 4.1830
" />
<path d="M2.2170 3.6620
L2.2080 3.6580
" />
<path d="M2.2180 2.2690
L2.0950 2.4510
" />
<path d="M2.2180 2.2690
L2.2840 2.1830
" />
<path d="M2.2180 5.5800
L2.0950 5.3990
" />
<path d="M2.2250 3.6670
L2.2170 3.6620
" />
<path d="M2.2250 4.1830
L2.2420 4.1740
" />
<path d="M2.2340 1.9310
L2.0880 2.1080
" />
<path d="M2.2340 3.6710
L2.2250 3.6670
" />
<path d="M2.2340 5.9180
L2.3120 6.0030
" />
<path d="M2.2420 3.6760
L2.2340 3.6710
" />
<path d="M2.2420 4.1740
L2.2580 4.1620
" />
<path d="M2.2500 3.6810
L2.2420 3.6760
" />
<path d="M2.2580 3.6880
L2.2500 3.6810
" />
<path d="M2.2580 4.1620
L2.2730 4.1500
" />
<path d="M2.2650 3.6930
L2.2580 3.6880
" />
<path d="M2.2730 3.7000
L2.2650 3.6930
" />
<path d="M2.2730 4.1500
L2.2870 4.1370
" />
<path d="M2.2800 3.7070
L2.2730 3.7000
" />
<path d="M2.2840 2.1830
L2.3530 2.0990
" />
<path d="M2.2870 3.7130
L2.2800 3.7070
" />
<path d="M2.2870 4.1370
L2.3010 4.1220
" />
<path d="M2.2940 3.7200
L2.2870 3.7130
" />
<path d="M2.3010 3.7280
L2.2940 3.7200
" />
<path d="M2.3010 4.1220
L2.3130 4.1070
" />
<path d="M2.3070 3.7360
L2.3010 3.7280
" />
<path d="M2.3120 6.0030
L2.3920 6.0830
" />
<path d="M2.3130 3.7430
L2.3070 3.7360
" />
<path d="M2.3130 4.1070
L2.3250 4.0900
" />
<path d="M2.3190 3.7510
L2.3130 3.7430
" />
<path d="M2.3250 3.7600
L2.3190 3.7510
" />
<path d="M2.3250 4.0900
L2.3350 4.0740
" />
<path d="M2.3300 3.7680
L2.3250 3.7600
" />
<path d="M2.3350 3.7760
L2.3300 3.7680
" />
</g>
<g style="fill:#000000; fill-opacity:1.0000; stroke:none;">
<circle cx="2.3350" cy="3.7760" r="0.0100" /> 
<circle cx="2.3350" cy="4.0740" r="0.0100" /> 
</g>
<g style="fill:none; 
stroke:#000000; stroke-width:0.0200; stroke-opacity:1; 
stroke-linecap:round; stroke-linejoin:round;">
<path d="M2.3350 4.0740
L2.3450 4.0570
" />
<path d="M2.3450 3.7930
L2.3350 3.7760
" />
<path d="M2.3450 4.0570
L2.3530 4.0380
" />
<path d="M2.3530 2.0990
L2.2180 2.2690
" />
<path d="M2.3530 2.0990
L2.4260 2.0180
" />
<path d="M2.3530 3.8120
L2.3450 3.7930
" />
<path d="M2.3530 4.0380
L2.3600 4.0200
" />
<path d="M2.3530 5.7500
L2.2180 5.5800
" />
<path d="M2.3600 3.8300
L2.3530 3.8120
" />
<path d="M2.3600 4.0200
L2.3650 4.0010
" />
<path d="M2.3650 3.8490
L2.3600 3.8300
" />
<path d="M2.3650 4.0010
L2.3700 3.9810
" />
<path d="M2.3700 3.8690
L2.3650 3.8490
" />
<path d="M2.3700 3.9810
L2.3730 3.9620
" />
<path d="M2.3730 3.8880
L2.3700 3.8690
" />
<path d="M2.3730 3.9620
L2.3750 3.9440
" />
<path d="M2.3750 3.9060
L2.3730 3.8880
" />
<path d="M2.3750 3.9250
L2.3750 3.9060
" />
<path d="M2.3750 3.9440
L2.3750 3.9250
" />
<path d="M2.3920 1.7670
L2.2340 1.9310
" />
<path d="M2.3920 6.0830
L2.4770 6.1600
" />
<path d="M2.4260 2.0180
L2.5010 1.9410
" />
<path d="M2.4770 6.1600
L2.5620 6.2340
" />
<path d="M2.5010 1.9410
L2.3530 2.0990
" />
<path d="M2.5010 1.9410
L2.5800 1.8650
" />
<path d="M2.5010 5.9100
L2.3530 5.7500
" />
<path d="M2.5620 1.6150
L2.3920 1.7670
" />
<path d="M2.5620 6.2340
L2.6510 6.3060
" />
<path d="M2.5800 1.8650
L2.6610 1.7930
" />
<path d="M2.6510 6.3060
L2.7430 6.3740
" />
<path d="M2.6610 1.7930
L2.5010 1.9410
" />
<path d="M2.6610 1.7930
L2.7450 1.7250
" />
<path d="M2.6610 6.0560
L2.5010 5.9100
" />
<path d="M2.7430 1.4760
L2.5620 1.6150
" />
<path d="M2.7430 6.3740
L2.8380 6.4380
" />
<path d="M2.7450 1.7250
L2.8320 1.6590
" />
<path d="M2.8320 1.6590
L2.6610 1.7930
" />
<path d="M2.8320 1.6590
L2.9200 1.5970
" />
<path d="M2.8320 6.1910
L2.6610 6.0560
" />
<path d="M2.8380 6.4380
L2.9340 6.4980
" />
<path d="M2.9200 1.5970
L3.0110 1.5390
" />
<path d="M2.9340 1.3520
L2.7430 1.4760
" />
<path d="M2.9340 6.4980
L3.0320 6.5550
" />
<path d="M3.0110 1.5390
L2.8320 1.6590
" />
<path d="M3.0110 1.5390
L3.1040 1.4840
" />
<path d="M3.0110 6.3110
L2.8320 6.1910
" />
<path d="M3.0320 6.5550
L3.1330 6.6080
" />
<path d="M3.1040 1.4840
L3.2010 1.4330
" />
<path d="M3.1330 1.2420
L2.9340 1.3520
" />
<path d="M3.1330 6.6080
L3.2360 6.6570
" />
<path d="M3.2010 1.4330
L3.0110 1.5390
" />
<path d="M3.2010 1.4330
L3.2970 1.3850
" />
<path d="M3.2010 6.4170
L3.0110 6.3110
" />
<path d="M3.2360 6.6570
L3.3420 6.7020
" />
<path d="M3.2970 1.3850
L3.3970 1.3410
" />
<path d="M3.3420 1.1480
L3.1330 1.2420
" />
<path d="M3.3420 6.7020
L3.4480 6.7420
" />
<path d="M3.3970 1.3410
L3.2010 1.4330
" />
<path d="M3.3970 1.3410
L3.4980 1.3010
" />
<path d="M3.3970 6.5080
L3.2010 6.4170
" />
<path d="M3.4480 6.7420
L3.5570 6.7800
" />
<path d="M3.4980 1.3010
L3.6010 1.2650
" />
<path d="M3.5570 1.0700
L3.3420 1.1480
" />
<path d="M3.5570 6.7800
L3.6680 6.8140
" />
<path d="M3.6010 1.2650
L3.3970 1.3410
" />
<path d="M3.6010 1.2650
L3.7060 1.2330
" />
<path d="M3.6010 6.5850
L3.3970 6.5080
" />
<path d="M3.6680 6.8140
L3.7790 6.8430
" />
<path d="M3.7060 1.2330
L3.8120 1.2050
" />
<path d="M3.7790 1.0070
L3.5570 1.0700
" />
<path d="M3.7790 6.8430
L3.8920 6.8670
" />
<path d="M3.8120 1.2050
L3.6010 1.2650
" />
<path d="M3.8120 1.2050
L3.9210 1.1820
" />
<path d="M3.8120 6.6440
L3.6010 6.5850
" />
<path d="M3.8920 6.8670
L4.0070 6.8880
" />
<path d="M3.9210 1.1820
L4.0290 1.1610
" />
<path d="M4.0070 0.9620
L3.7790 1.0070
" />
<path d="M4.0070 6.8880
L4.1220 6.9040
" />
<path d="M4.0290 1.1610
L3.8120 1.2050
" />
<path d="M4.0290 1.1610
L4.1400 1.1460
" />
<path d="M4.0290 6.6890
L3.8120 6.6440
" />
<path d="M4.1220 6.9040
L4.2400 6.9150
" />
<path d="M4.1400 1.1460
L4.2510 1.1350
" />
<path d="M4.2400 0.9350
L4.0070 0.9620
" />
<path d="M4.2400 6.9150
L4.3570 6.9220
" />
<path d="M4.2510 1.1350
L4.0290 1.1610
" />
<path d="M4.2510 1.1350
L4.3620 1.1280
" />
<path d="M4.2510 6.7150
L4.0290 6.6890
" />
<path d="M4.3570 6.9220
L4.4750 6.9230
" />
<path d="M4.3620 1.1280
L4.4750 1.1260
" />
<path d="M4.4750 0.9260
L4.2400 0.9350
" />
</g>
<g style="fill:#000000; fill-opacity:1.0000; stroke:none;">
<circle cx="4.4750" cy="0.9260" r="0.0100" /> 
</g>
<g style="fill:none; 
stroke:#000000; stroke-width:0.0200; stroke-opacity:1; 
stroke-linecap:round; stroke-linejoin:round;">
<path d="M4.4750 1.1260
L4.2510 1.1350
" />
</g>
<g style="fill:#000000; fill-opacity:1.0000; stroke:none;">
<circle cx="4.4750" cy="1.1260" r="0.0100" /> 
<circle cx="4.4750" cy="1.1260" r="0.0100" /> 
</g>
<g style="fill:none; 
stroke:#000000; stroke-width:0.0200; stroke-opacity:1; 
stroke-linecap:round; stroke-linejoin:round;">
<path d="M4.4750 1.1260
L4.7000 1.1350
" />
<path d="M4.4750 6.7240
L4.2510 6.7150
" />
</g>
<g style="fill:#000000; fill-opacity:1.0000; stroke:none;">
<circle cx="4.4750" cy="6.7240" r="0.0100" /> 
<circle cx="4.4750" cy="6.9230" r="0.0100" /> 
</g>
<g style="fill:none; 
stroke:#000000; stroke-width:0.0200; stroke-opacity:1; 
stroke-linecap:round; stroke-linejoin:round;">
<path d="M4.4750 6.9230
L4.7110 6.9150
" />
<path d="M4.5870 1.1280
L4.4750 1.1260
" />
<path d="M4.5870 6.7210
L4.4750 6.7240
" />
<path d="M4.5920 0.9280
L4.4750 0.9260
" />
<path d="M4.7000 1.1350
L4.5870 1.1280
" />
<path d="M4.7000 1.1350
L4.9210 1.1610
" />
<path d="M4.7000 6.7150
L4.5870 6.7210
" />
<path d="M4.7110 0.9350
L4.5920 0.9280
" />
<path d="M4.7110 6.9150
L4.9440 6.8880
" />
<path d="M4.8110 1.1460
L4.7000 1.1350
" />
<path d="M4.8110 6.7040
L4.7000 6.7150
" />
<path d="M4.8280 0.9460
L4.7110 0.9350
" />
<path d="M4.9210 1.1610
L4.8110 1.1460
" />
<path d="M4.9210 1.1610
L5.1380 1.2050
" />
<path d="M4.9210 6.6890
L4.8110 6.7040
" />
<path d="M4.9440 0.9620
L4.8280 0.9460
" />
<path d="M4.9440 6.8880
L5.1720 6.8430
" />
<path d="M5.0300 1.1820
L4.9210 1.1610
" />
<path d="M5.0300 6.6680
L4.9210 6.6890
" />
<path d="M5.0580 0.9830
L4.9440 0.9620
" />
<path d="M5.1380 1.2050
L5.0300 1.1820
" />
<path d="M5.1380 1.2050
L5.3490 1.2650
" />
<path d="M5.1380 6.6440
L5.0300 6.6680
" />
<path d="M5.1720 1.0070
L5.0580 0.9830
" />
<path d="M5.1720 6.8430
L5.3930 6.7800
" />
<path d="M5.2440 1.2330
L5.1380 1.2050
" />
<path d="M5.2440 6.6170
L5.1380 6.6440
" />
<path d="M5.2830 1.0360
L5.1720 1.0070
" />
<path d="M5.3490 1.2650
L5.2440 1.2330
" />
<path d="M5.3490 1.2650
L5.5530 1.3410
" />
<path d="M5.3490 6.5850
L5.2440 6.6170
" />
<path d="M5.3930 1.0700
L5.2830 1.0360
" />
<path d="M5.3930 6.7800
L5.6090 6.7020
" />
<path d="M5.4520 1.3010
L5.3490 1.2650
" />
<path d="M5.4520 6.5480
L5.3490 6.5850
" />
<path d="M5.5020 1.1070
L5.3930 1.0700
" />
<path d="M5.5530 1.3410
L5.4520 1.3010
" />
<path d="M5.5530 1.3410
L5.7490 1.4330
" />
<path d="M5.5530 6.5080
L5.4520 6.5480
" />
<path d="M5.6090 1.1480
L5.5020 1.1070
" />
<path d="M5.6090 6.7020
L5.8170 6.6080
" />
<path d="M5.6530 1.3850
L5.5530 1.3410
" />
<path d="M5.6530 6.4650
L5.5530 6.5080
" />
<path d="M5.7140 1.1930
L5.6090 1.1480
" />
<path d="M5.7490 1.4330
L5.6530 1.3850
" />
<path d="M5.7490 1.4330
L5.9390 1.5390
" />
<path d="M5.7490 6.4170
L5.6530 6.4650
" />
<path d="M5.8170 1.2420
L5.7140 1.1930
" />
<path d="M5.8170 6.6080
L6.0160 6.4980
" />
<path d="M5.8460 1.4840
L5.7490 1.4330
" />
<path d="M5.8460 6.3660
L5.7490 6.4170
" />
<path d="M5.9180 1.2950
L5.8170 1.2420
" />
<path d="M5.9390 1.5390
L5.8460 1.4840
" />
<path d="M5.9390 1.5390
L6.1180 1.6590
" />
<path d="M5.9390 6.3110
L5.8460 6.3660
" />
<path d="M6.0160 1.3520
L5.9180 1.2950
" />
<path d="M6.0160 6.4980
L6.2070 6.3740
" />
<path d="M6.0300 1.5970
L5.9390 1.5390
" />
<path d="M6.0300 6.2530
L5.9390 6.3110
" />
<path d="M6.1120 1.4120
L6.0160 1.3520
" />
<path d="M6.1180 1.6590
L6.0300 1.5970
" />
<path d="M6.1180 1.6590
L6.2890 1.7930
" />
<path d="M6.1180 6.1910
L6.0300 6.2530
" />
<path d="M6.2050 1.7250
L6.1180 1.6590
" />
<path d="M6.2050 6.1250
L6.1180 6.1910
" />
<path d="M6.2070 1.4760
L6.1120 1.4120
" />
<path d="M6.2070 6.3740
L6.3880 6.2340
" />
<path d="M6.2890 1.7930
L6.2050 1.7250
" />
<path d="M6.2890 1.7930
L6.4490 1.9410
" />
<path d="M6.2890 6.0560
L6.2050 6.1250
" />
<path d="M6.2990 1.5440
L6.2070 1.4760
" />
<path d="M6.3700 1.8650
L6.2890 1.7930
" />
<path d="M6.3700 5.9840
L6.2890 6.0560
" />
<path d="M6.3880 1.6150
L6.2990 1.5440
" />
<path d="M6.3880 6.2340
L6.5570 6.0830
" />
<path d="M6.4490 1.9410
L6.3700 1.8650
" />
<path d="M6.4490 1.9410
L6.5970 2.0990
" />
<path d="M6.4490 5.9100
L6.3700 5.9840
" />
<path d="M6.4740 1.6900
L6.3880 1.6150
" />
<path d="M6.5240 2.0180
L6.4490 1.9410
" />
<path d="M6.5240 5.8320
L6.4490 5.9100
" />
<path d="M6.5570 1.7670
L6.4740 1.6900
" />
<path d="M6.5570 6.0830
L6.7150 5.9180
" />
<path d="M6.5740 3.9060
L6.5740 3.9250
" />
<path d="M6.5740 3.9250
L6.5740 3.9440
" />
<path d="M6.5740 3.9440
L6.5770 3.9620
" />
<path d="M6.5770 3.8880
L6.5740 3.9060
" />
<path d="M6.5770 3.9620
L6.5800 3.9810
" />
<path d="M6.5800 3.8690
L6.5770 3.8880
" />
<path d="M6.5800 3.9810
L6.5850 4.0010
" />
<path d="M6.5850 3.8490
L6.5800 3.8690
" />
<path d="M6.5850 4.0010
L6.5890 4.0200
" />
<path d="M6.5890 3.8300
L6.5850 3.8490
" />
<path d="M6.5890 4.0200
L6.5970 4.0380
" />
<path d="M6.5970 2.0990
L6.5240 2.0180
" />
<path d="M6.5970 2.0990
L6.7310 2.2690
" />
<path d="M6.5970 3.8120
L6.5890 3.8300
" />
<path d="M6.5970 4.0380
L6.6050 4.0570
" />
<path d="M6.5970 5.7500
L6.5240 5.8320
" />
<path d="M6.6050 3.7930
L6.5970 3.8120
" />
<path d="M6.6050 4.0570
L6.6140 4.0740
" />
<path d="M6.6140 3.7760
L6.6050 3.7930
" />
</g>
<g style="fill:#000000; fill-opacity:1.0000; stroke:none;">
<circle cx="6.6140" cy="3.7760" r="0.0100" /> 
<circle cx="6.6140" cy="4.0740" r="0.0100" /> 
</g>
<g style="fill:none; 
stroke:#000000; stroke-width:0.0200; stroke-opacity:1; 
stroke-linecap:round; stroke-linejoin:round;">
<path d="M6.6140 4.0740
L6.6190 4.0820
" />
<path d="M6.6190 4.0820
L6.6250 4.0900
" />
<path d="M6.6250 3.7600
L6.6140 3.7760
" />
<path d="M6.6250 4.0900
L6.6300 4.0990
" />
<path d="M6.6300 4.0990
L6.6370 4.1070
" />
<path d="M6.6370 1.8470
L6.5570 1.7670
" />
<path d="M6.6370 3.7430
L6.6250 3.7600
" />
<path d="M6.6370 4.1070
L6.6420 4.1140
" />
<path d="M6.6420 4.1140
L6.6490 4.1220
" />
<path d="M6.6490 3.7280
L6.6370 3.7430
" />
<path d="M6.6490 4.1220
L6.6550 4.1300
" />
<path d="M6.6550 4.1300
L6.6620 4.1370
" />
<path d="M6.6620 3.7130
L6.6490 3.7280
" />
<path d="M6.6620 4.1370
L6.6700 4.1430
" />
<path d="M6.6660 2.1830
L6.5970 2.0990
" />
<path d="M6.6660 5.6670
L6.5970 5.7500
" />
<path d="M6.6700 4.1430
L6.6770 4.1500
" />
<path d="M6.6770 3.7000
L6.6620 3.7130
" />
<path d="M6.6770 4.1500
L6.6850 4.1570
" />
<path d="M6.6850 4.1570
L6.6910 4.1620
" />
<path d="M6.6910 3.6880
L6.6770 3.7000
" />
<path d="M6.6910 4.1620
L6.6990 4.1690
" />
<path d="M6.6990 4.1690
L6.7070 4.1740
" />
<path d="M6.7070 3.6760
L6.6910 3.6880
" />
<path d="M6.7070 4.1740
L6.7150 4.1790
" />
<path d="M6.7150 1.9310
L6.6370 1.8470
" />
<path d="M6.7150 4.1790
L6.7250 4.1830
" />
<path d="M6.7150 5.9180
L6.8610 5.7420
" />
<path d="M6.7250 3.6670
L6.7070 3.6760
" />
<path d="M6.7250 4.1830
L6.7330 4.1880
" />
<path d="M6.7310 2.2690
L6.6660 2.1830
" />
<path d="M6.7310 2.2690
L6.8550 2.4510
" />
<path d="M6.7310 5.5800
L6.6660 5.6670
" />
<path d="M6.7330 4.1880
L6.7420 4.1920
" />
<path d="M6.7420 3.6580
L6.7250 3.6670
" />
<path d="M6.7420 4.1920
L6.7500 4.1980
" />
<path d="M6.7500 4.1980
L6.7580 4.2020
" />
<path d="M6.7580 3.6480
L6.7420 3.6580
" />
<path d="M6.7580 4.2020
L6.7670 4.2040
" />
<path d="M6.7670 4.2040
L6.7780 4.2070
" />
<path d="M6.7780 3.6430
L6.7580 3.6480
" />
<path d="M6.7780 4.2070
L6.7870 4.2110
" />
<path d="M6.7870 4.2110
L6.7950 4.2140
" />
<path d="M6.7900 2.0180
L6.7150 1.9310
" />
<path d="M6.7950 2.3600
L6.7310 2.2690
" />
<path d="M6.7950 3.6360
L6.7780 3.6430
" />
<path d="M6.7950 4.2140
L6.8060 4.2160
" />
<path d="M6.7950 5.4900
L6.7310 5.5800
" />
<path d="M6.8060 4.2160
L6.8150 4.2190
" />
<path d="M6.8150 3.6310
L6.7950 3.6360
" />
<path d="M6.8150 4.2190
L6.8240 4.2190
" />
<path d="M6.8240 4.2190
L6.8350 4.2220
" />
<path d="M6.8350 3.6280
L6.8150 3.6310
" />
<path d="M6.8350 4.2220
L6.8440 4.2230
" />
<path d="M6.8440 4.2230
L6.8550 4.2230
" />
<path d="M6.8550 2.4510
L6.7950 2.3600
" />
<path d="M6.8550 2.4510
L6.9640 2.6430
" />
<path d="M6.8550 3.6270
L6.8350 3.6280
" />
<path d="M6.8550 4.2230
L6.8630 4.2230
" />
<path d="M6.8550 5.3990
L6.7950 5.4900
" />
<path d="M6.8610 2.1080
L6.7900 2.0180
" />
<path d="M6.8610 5.7420
L6.9930 5.5530
" />
<path d="M6.8630 4.2230
L6.8750 4.2240
" />
<path d="M6.8750 3.6260
L6.8550 3.6270
" />
<path d="M6.8750 4.2240
L7.1250 4.2240
" />
<path d="M6.9110 2.5460
L6.8550 2.4510
" />
<path d="M6.9110 5.3040
L6.8550 5.3990
" />
<path d="M6.9280 2.2010
L6.8610 2.1080
" />
<path d="M6.9640 2.6430
L6.9110 2.5460
" />
<path d="M6.9640 2.6430
L7.0570 2.8460
" />
<path d="M6.9640 5.2070
L6.9110 5.3040
" />
<path d="M6.9930 2.2970
L6.9280 2.2010
" />
<path d="M6.9930 5.5530
L7.1110 5.3530
" />
<path d="M7.0120 2.7430
L6.9640 2.6430
" />
<path d="M7.0120 5.1070
L6.9640 5.2070
" />
<path d="M7.0540 2.3950
L6.9930 2.2970
" />
<path d="M7.0570 2.8460
L7.0120 2.7430
" />
<path d="M7.0570 2.8460
L7.1350 3.0570
" />
<path d="M7.0570 5.0040
L7.0120 5.1070
" />
<path d="M7.0980 2.9500
L7.0570 2.8460
" />
<path d="M7.0980 4.9000
L7.0570 5.0040
" />
<path d="M7.1110 2.4960
L7.0540 2.3950
" />
<path d="M7.1110 5.3530
L7.2150 5.1430
" />
<path d="M7.1250 3.1050
L7.1260 3.0950
" />
<path d="M7.1250 3.1150
L7.1250 3.1050
" />
<path d="M7.1250 3.1250
L7.1250 3.1150
" />
<path d="M7.1250 3.1250
L7.1250 4.7240
" />
<path d="M7.1250 3.6260
L6.8750 3.6260
" />
<path d="M7.1250 4.7350
L7.1250 4.7240
" />
<path d="M7.1250 4.7440
L7.1250 4.7350
" />
<path d="M7.1260 3.0950
L7.1290 3.0850
" />
<path d="M7.1260 4.7550
L7.1250 4.7440
" />
<path d="M7.1290 3.0850
L7.1300 3.0760
" />
<path d="M7.1290 4.7640
L7.1260 4.7550
" />
<path d="M7.1300 3.0760
L7.1330 3.0660
" />
<path d="M7.1300 4.7740
L7.1290 4.7640
" />
<path d="M7.1330 3.0660
L7.1370 3.0570
" />
<path d="M7.1330 4.7840
L7.1300 4.7740
" />
<path d="M7.1350 3.0570
L7.0980 2.9500
" />
<path d="M7.1350 4.7920
L7.0980 4.9000
" />
<path d="M7.1370 3.0570
L7.1390 3.0480
" />
<path d="M7.1370 4.7920
L7.1330 4.7840
" />
<path d="M7.1390 3.0480
L7.1430 3.0400
" />
<path d="M7.1390 4.8010
L7.1370 4.7920
" />
<path d="M7.1430 3.0400
L7.1490 3.0300
" />
<path d="M7.1430 4.8110
L7.1390 4.8010
" />
<path d="M7.1490 3.0300
L7.1530 3.0220
" />
<path d="M7.1490 4.8200
L7.1430 4.8110
" />
<path d="M7.1530 3.0220
L7.1580 3.0140
" />
<path d="M7.1530 4.8280
L7.1490 4.8200
" />
<path d="M7.1580 3.0140
L7.1630 3.0060
" />
<path d="M7.1580 4.8360
L7.1530 4.8280
" />
<path d="M7.1630 3.0060
L7.1700 2.9980
" />
<path d="M7.1630 4.8440
L7.1580 4.8360
" />
<path d="M7.1660 2.6000
L7.1110 2.4960
" />
<path d="M7.1700 2.9980
L7.1750 2.9920
" />
<path d="M7.1700 4.8520
L7.1630 4.8440
" />
<path d="M7.1750 2.9920
L7.1820 2.9840
" />
<path d="M7.1750 4.8590
L7.1700 4.8520
" />
<path d="M7.1820 2.9840
L7.1900 2.9780
" />
<path d="M7.1820 4.8650
L7.1750 4.8590
" />
<path d="M7.1900 2.9780
L7.1970 2.9720
" />
<path d="M7.1900 4.8720
L7.1820 4.8650
" />
<path d="M7.1970 2.9720
L7.2050 2.9650
" />
<path d="M7.1970 4.8790
L7.1900 4.8720
" />
<path d="M7.2050 2.9650
L7.2130 2.9600
" />
<path d="M7.2050 4.8850
L7.1970 4.8790
" />
<path d="M7.2130 2.9600
L7.2210 2.9540
" />
<path d="M7.2130 4.8890
L7.2050 4.8850
" />
<path d="M7.2150 2.7070
L7.1660 2.6000
" />
<path d="M7.2150 5.1430
L7.3030 4.9230
" />
<path d="M7.2210 2.9540
L7.2290 2.9500
" />
<path d="M7.2210 4.8960
L7.2130 4.8890
" />
<path d="M7.2270 2.7350
L7.2220 2.7240
" />
<path d="M7.2270 5.1150
L7.2220 5.1260
" />
<path d="M7.2290 2.9500
L7.2380 2.9450
" />
<path d="M7.2290 4.9000
L7.2210 4.8960
" />
<path d="M7.2340 2.7480
L7.2270 2.7350
" />
<path d="M7.2340 5.1020
L7.2270 5.1150
" />
<path d="M7.2380 2.9450
L7.2460 2.9410
" />
<path d="M7.2380 4.9050
L7.2290 4.9000
" />
<path d="M7.2460 2.7800
L7.2340 2.7480
" />
<path d="M7.2460 2.9410
L7.2550 2.9380
" />
<path d="M7.2460 4.9090
L7.2380 4.9050
" />
<path d="M7.2460 5.0700
L7.2340 5.1020
" />
<path d="M7.2550 2.9380
L7.2640 2.9340
" />
<path d="M7.2550 4.9120
L7.2460 4.9090
" />
<path d="M7.2620 2.8150
L7.2150 2.7070
" />
<path d="M7.2640 2.9340
L7.2740 2.9320
" />
<path d="M7.2640 4.9160
L7.2550 4.9120
" />
<path d="M7.2740 2.9320
L7.2830 2.9300
" />
<path d="M7.2740 4.9170
L7.2640 4.9160
" />
<path d="M7.2830 2.9300
L7.2940 2.9280
" />
<path d="M7.2830 4.9200
L7.2740 4.9170
" />
<path d="M7.2940 2.9280
L7.3030 2.9270
" />
<path d="M7.2940 4.9210
L7.2830 4.9200
" />
<path d="M7.3030 2.9270
L7.2620 2.8150
" />
<path d="M7.3030 2.9270
L7.3140 2.9260
" />
<path d="M7.3030 4.9230
L7.2940 4.9210
" />
<path d="M7.3140 2.9260
L7.3240 2.9250
" />
<path d="M7.3140 4.9240
L7.3030 4.9230
" />
<path d="M7.3240 4.9250
L7.3140 4.9240
" />
<path d="M7.3240 4.9250
L7.9750 4.9250
" />
<path d="M7.4750 0.2750
L7.4980 0.2760
" />
<path d="M7.4750 7.5750
L1.4750 7.5750
" />
<path d="M7.4980 0.2760
L7.5240 0.2780
" />
<path d="M7.4980 7.5740
L7.4750 7.5750
" />
<path d="M7.5240 0.2780
L7.5480 0.2810
" />
<path d="M7.5240 7.5720
L7.4980 7.5740
" />
<path d="M7.5480 0.2810
L7.5730 0.2860
" />
<path d="M7.5480 7.5690
L7.5240 7.5720
" />
<path d="M7.5730 0.2860
L7.5960 0.2910
" />
<path d="M7.5730 7.5640
L7.5480 7.5690
" />
<path d="M7.5960 0.2910
L7.6190 0.2970
" />
<path d="M7.5960 7.5590
L7.5730 7.5640
" />
<path d="M7.6190 0.2970
L7.6420 0.3050
" />
<path d="M7.6190 7.5530
L7.5960 7.5590
" />
<path d="M7.6420 0.3050
L7.6650 0.3150
" />
<path d="M7.6420 7.5450
L7.6190 7.5530
" />
<path d="M7.6650 0.3150
L7.6870 0.3230
" />
<path d="M7.6650 7.5350
L7.6420 7.5450
" />
<path d="M7.6870 0.3230
L7.7100 0.3340
" />
<path d="M7.6870 7.5270
L7.6650 7.5350
" />
<path d="M7.7100 0.3340
L7.7300 0.3470
" />
<path d="M7.7100 7.5160
L7.6870 7.5270
" />
<path d="M7.7300 0.3470
L7.7510 0.3600
" />
<path d="M7.7300 7.5030
L7.7100 7.5160
" />
<path d="M7.7510 0.3600
L7.7710 0.3740
" />
<path d="M7.7510 7.4900
L7.7300 7.5030
" />
<path d="M7.7710 0.3740
L7.7900 0.3890
" />
<path d="M7.7710 7.4760
L7.7510 7.4900
" />
<path d="M7.7900 0.3890
L7.8100 0.4050
" />
<path d="M7.7900 7.4600
L7.7710 7.4760
" />
<path d="M7.8100 0.4050
L7.8270 0.4220
" />
<path d="M7.8100 7.4440
L7.7900 7.4600
" />
</g>
<g style="fill:#000000; fill-opacity:1.0000; stroke:none;">
<circle cx="7.8270" cy="0.4220" r="0.0100" /> 
</g>
<g style="fill:none; 
stroke:#000000; stroke-width:0.0200; stroke-opacity:1; 
stroke-linecap:round; stroke-linejoin:round;">
<path d="M7.8270 0.4220
L7.8440 0.4400
" />
<path d="M7.8270 7.4280
L7.8100 7.4440
" />
</g>
<g style="fill:#000000; fill-opacity:1.0000; stroke:none;">
<circle cx="7.8270" cy="7.4280" r="0.0100" /> 
</g>
<g style="fill:none; 
stroke:#000000; stroke-width:0.0200; stroke-opacity:1; 
stroke-linecap:round; stroke-linejoin:round;">
<path d="M7.8440 0.4400
L7.8600 0.4590
" />
<path d="M7.8440 7.4100
L7.8270 7.4280
" />
<path d="M7.8600 0.4590
L7.8750 0.4780
" />
<path d="M7.8600 7.3910
L7.8440 7.4100
" />
<path d="M7.8750 0.4780
L7.8890 0.4980
" />
<path d="M7.8750 7.3720
L7.8600 7.3910
" />
<path d="M7.8890 0.4980
L7.9030 0.5190
" />
<path d="M7.8890 7.3510
L7.8750 7.3720
" />
<path d="M7.9030 0.5190
L7.9150 0.5410
" />
<path d="M7.9030 7.3300
L7.8890 7.3510
" />
<path d="M7.9150 0.5410
L7.9270 0.5620
" />
<path d="M7.9150 7.3090
L7.9030 7.3300
" />
<path d="M7.9270 0.5620
L7.9360 0.5840
" />
<path d="M7.9270 7.2880
L7.9150 7.3090
" />
<path d="M7.9360 0.5840
L7.9440 0.6070
" />
<path d="M7.9360 7.2660
L7.9270 7.2880
" />
<path d="M7.9440 0.6070
L7.9520 0.6300
" />
<path d="M7.9440 7.2420
L7.9360 7.2660
" />
<path d="M7.9520 0.6300
L7.9590 0.6540
" />
<path d="M7.9520 7.2200
L7.9440 7.2420
" />
<path d="M7.9590 0.6540
L7.9640 0.6770
" />
<path d="M7.9590 7.1960
L7.9520 7.2200
" />
<path d="M7.9640 0.6770
L7.9680 0.7020
" />
<path d="M7.9640 7.1730
L7.9590 7.1960
" />
<path d="M7.9680 0.7020
L7.9720 0.7260
" />
<path d="M7.9680 7.1480
L7.9640 7.1730
" />
<path d="M7.9720 0.7260
L7.9730 0.7510
" />
<path d="M7.9720 7.1240
L7.9680 7.1480
" />
<path d="M7.9730 0.7510
L7.9750 0.7750
" />
<path d="M7.9730 7.0990
L7.9720 7.1240
" />
<path d="M7.9750 0.7750
L7.9750 2.9250
" />
<path d="M7.9750 2.9250
L7.3240 2.9250
" />
<path d="M7.9750 4.9250
L7.9750 7.0750
" />
<path d="M7.9750 4.9250
L8.1250 4.9250
" />
<path d="M7.9750 7.0750
L7.9730 7.0990
" />
<path d="M8.1250 2.9250
L7.9750 2.9250
" />
<path d="M8.1250 4.9250
L8.1250 2.9250
" />
</g> 
</svg>
