<?xml version="1.0" standalone="no"?>
 <!DOCTYPE svg PUBLIC "-//W3C//DTD SVG 1.1//EN" 
 "http://www.w3.org/Graphics/SVG/1.1/DTD/svg11.dtd"> 
<svg
  xmlns:svg="http://www.w3.org/2000/svg"
  xmlns="http://www.w3.org/2000/svg"
  xmlns:xlink="http://www.w3.org/1999/xlink"
  version="1.1"
  width="1.4478mm" height="1.6764mm" viewBox="0.0000 0.0000 1.4478 1.6764">
<title>SVG Image created as outline.svg date 2025/04/04 10:06:32 </title>
  <desc>Image generated by PCBNEW </desc>
<g style="fill:#000000; fill-opacity:1.0000;stroke:#000000; stroke-opacity:1.0000;
stroke-linecap:round; stroke-linejoin:round;"
 transform="translate(0 0) scale(1 1)">
</g>
<g style="fill:none; 
stroke:#000000; stroke-width:0.0200; stroke-opacity:1; 
stroke-linecap:round; stroke-linejoin:round;">
<path d="M0.2250 0.1250
L0.2250 1.5760
" />
<path d="M0.2250 1.5760
L1.2260 1.5760
" />
<path d="M0.3340 0.3210
L0.3340 0.3250
" />
<path d="M0.3340 0.3210
L0.3340 0.3250
" />
<path d="M0.3340 0.3250
L0.3340 0.3290
" />
<path d="M0.3340 0.3250
L0.3340 0.3290
" />
<path d="M0.3340 0.3290
L0.3340 0.3330
" />
<path d="M0.3340 0.3290
L0.3340 0.3330
" />
<path d="M0.3340 0.3330
L0.3340 0.3370
" />
<path d="M0.3340 0.3330
L0.3340 0.3370
" />
<path d="M0.3340 0.3370
L0.3350 0.3410
" />
<path d="M0.3340 0.3370
L0.3350 0.3410
" />
<path d="M0.3350 0.3170
L0.3340 0.3210
" />
<path d="M0.3350 0.3170
L0.3340 0.3210
" />
<path d="M0.3350 0.3410
L0.3360 0.3460
" />
<path d="M0.3350 0.3410
L0.3360 0.3460
" />
<path d="M0.3360 0.3140
L0.3350 0.3170
" />
<path d="M0.3360 0.3140
L0.3350 0.3170
" />
<path d="M0.3360 0.3460
L0.3370 0.3500
" />
<path d="M0.3360 0.3460
L0.3370 0.3500
" />
<path d="M0.3370 0.3090
L0.3360 0.3140
" />
<path d="M0.3370 0.3090
L0.3360 0.3140
" />
<path d="M0.3370 0.3500
L0.3380 0.3540
" />
<path d="M0.3370 0.3500
L0.3380 0.3540
" />
<path d="M0.3380 0.3070
L0.3370 0.3090
" />
<path d="M0.3380 0.3070
L0.3370 0.3090
" />
<path d="M0.3380 0.3540
L0.3410 0.3580
" />
<path d="M0.3380 0.3540
L0.3410 0.3580
" />
<path d="M0.3410 0.3030
L0.3380 0.3070
" />
<path d="M0.3410 0.3030
L0.3380 0.3070
" />
<path d="M0.3410 0.3580
L0.3430 0.3610
" />
<path d="M0.3410 0.3580
L0.3430 0.3610
" />
<path d="M0.3430 0.2980
L0.3410 0.3030
" />
<path d="M0.3430 0.2980
L0.3410 0.3030
" />
</g>
<g style="fill:#000000; fill-opacity:1.0000; stroke:none;">
<circle cx="0.3430" cy="0.2980" r="0.0100" /> 
<circle cx="0.3430" cy="0.2980" r="0.0100" /> 
<circle cx="0.3430" cy="0.3610" r="0.0100" /> 
<circle cx="0.3430" cy="0.3610" r="0.0100" /> 
</g>
<g style="fill:none; 
stroke:#000000; stroke-width:0.0200; stroke-opacity:1; 
stroke-linecap:round; stroke-linejoin:round;">
<path d="M0.3430 0.3610
L0.3440 0.3630
" />
<path d="M0.3430 0.3610
L0.3440 0.3630
" />
<path d="M0.3440 0.3630
L0.3450 0.3650
" />
<path d="M0.3440 0.3630
L0.3450 0.3650
" />
<path d="M0.3450 0.2960
L0.3430 0.2980
" />
<path d="M0.3450 0.2960
L0.3430 0.2980
" />
<path d="M0.3450 0.3650
L0.3460 0.3650
" />
<path d="M0.3450 0.3650
L0.3460 0.3650
" />
<path d="M0.3460 0.3650
L0.3470 0.3680
" />
<path d="M0.3460 0.3650
L0.3470 0.3680
" />
<path d="M0.3470 0.2910
L0.3450 0.2960
" />
<path d="M0.3470 0.2910
L0.3450 0.2960
" />
<path d="M0.3470 0.3680
L0.3480 0.3690
" />
<path d="M0.3470 0.3680
L0.3480 0.3690
" />
<path d="M0.3480 0.3690
L0.3490 0.3710
" />
<path d="M0.3480 0.3690
L0.3490 0.3710
" />
<path d="M0.3490 0.2890
L0.3470 0.2910
" />
<path d="M0.3490 0.2890
L0.3470 0.2910
" />
<path d="M0.3490 0.3710
L0.3500 0.3720
" />
<path d="M0.3490 0.3710
L0.3500 0.3720
" />
<path d="M0.3500 0.3720
L0.3520 0.3730
" />
<path d="M0.3500 0.3720
L0.3520 0.3730
" />
<path d="M0.3520 0.2850
L0.3490 0.2890
" />
<path d="M0.3520 0.2850
L0.3490 0.2890
" />
<path d="M0.3520 0.3730
L0.3530 0.3760
" />
<path d="M0.3520 0.3730
L0.3530 0.3760
" />
<path d="M0.3530 0.3760
L0.3560 0.3770
" />
<path d="M0.3530 0.3760
L0.3560 0.3770
" />
<path d="M0.3560 0.2820
L0.3520 0.2850
" />
<path d="M0.3560 0.2820
L0.3520 0.2850
" />
<path d="M0.3560 0.3770
L0.3570 0.3770
" />
<path d="M0.3560 0.3770
L0.3570 0.3770
" />
<path d="M0.3570 0.3770
L0.3590 0.3790
" />
<path d="M0.3570 0.3770
L0.3590 0.3790
" />
<path d="M0.3590 0.2800
L0.3560 0.2820
" />
<path d="M0.3590 0.2800
L0.3560 0.2820
" />
<path d="M0.3590 0.3790
L0.3610 0.3800
" />
<path d="M0.3590 0.3790
L0.3610 0.3800
" />
<path d="M0.3610 0.3800
L0.3620 0.3810
" />
<path d="M0.3610 0.3800
L0.3620 0.3810
" />
<path d="M0.3620 0.2780
L0.3590 0.2800
" />
<path d="M0.3620 0.2780
L0.3590 0.2800
" />
<path d="M0.3620 0.3810
L0.3630 0.3830
" />
<path d="M0.3620 0.3810
L0.3630 0.3830
" />
<path d="M0.3630 0.3830
L0.3650 0.3840
" />
<path d="M0.3630 0.3830
L0.3650 0.3840
" />
<path d="M0.3650 0.2760
L0.3620 0.2780
" />
<path d="M0.3650 0.2760
L0.3620 0.2780
" />
<path d="M0.3650 0.3840
L0.3660 0.3850
" />
<path d="M0.3650 0.3840
L0.3660 0.3850
" />
<path d="M0.3660 0.3850
L0.3680 0.3860
" />
<path d="M0.3660 0.3850
L0.3680 0.3860
" />
<path d="M0.3680 0.2750
L0.3650 0.2760
" />
<path d="M0.3680 0.2750
L0.3650 0.2760
" />
<path d="M0.3680 0.3860
L0.3700 0.3870
" />
<path d="M0.3680 0.3860
L0.3700 0.3870
" />
<path d="M0.3700 0.3870
L0.3730 0.3870
" />
<path d="M0.3700 0.3870
L0.3730 0.3870
" />
<path d="M0.3730 0.2730
L0.3680 0.2750
" />
<path d="M0.3730 0.2730
L0.3680 0.2750
" />
<path d="M0.3730 0.3870
L0.3750 0.3870
" />
<path d="M0.3730 0.3870
L0.3750 0.3870
" />
<path d="M0.3750 0.3870
L0.3760 0.3880
" />
<path d="M0.3750 0.3870
L0.3760 0.3880
" />
<path d="M0.3760 0.2710
L0.3730 0.2730
" />
<path d="M0.3760 0.2710
L0.3730 0.2730
" />
<path d="M0.3760 0.3880
L0.3770 0.3880
" />
<path d="M0.3760 0.3880
L0.3770 0.3880
" />
<path d="M0.3770 0.3880
L0.3800 0.3890
" />
<path d="M0.3770 0.3880
L0.3800 0.3890
" />
<path d="M0.3800 0.2690
L0.3760 0.2710
" />
<path d="M0.3800 0.2690
L0.3760 0.2710
" />
<path d="M0.3800 0.3890
L0.3820 0.3910
" />
<path d="M0.3800 0.3890
L0.3820 0.3910
" />
<path d="M0.3820 0.3910
L0.3830 0.3910
" />
<path d="M0.3820 0.3910
L0.3830 0.3910
" />
<path d="M0.3830 0.2680
L0.3800 0.2690
" />
<path d="M0.3830 0.2680
L0.3800 0.2690
" />
<path d="M0.3830 0.3910
L0.3850 0.3910
" />
<path d="M0.3830 0.3910
L0.3850 0.3910
" />
<path d="M0.3850 0.3910
L0.3880 0.3920
" />
<path d="M0.3850 0.3910
L0.3880 0.3920
" />
<path d="M0.3880 0.2680
L0.3830 0.2680
" />
<path d="M0.3880 0.2680
L0.3830 0.2680
" />
<path d="M0.3880 0.3920
L0.3900 0.3920
" />
<path d="M0.3880 0.3920
L0.3900 0.3920
" />
<path d="M0.3900 0.3920
L0.3920 0.3920
" />
<path d="M0.3900 0.3920
L0.3920 0.3920
" />
<path d="M0.3920 0.2670
L0.3880 0.2680
" />
<path d="M0.3920 0.2670
L0.3880 0.2680
" />
<path d="M0.3920 0.3920
L0.3940 0.3920
" />
<path d="M0.3920 0.3920
L0.3940 0.3920
" />
<path d="M0.3940 0.3920
L0.3970 0.3920
" />
<path d="M0.3940 0.3920
L0.3970 0.3920
" />
<path d="M0.3970 0.2670
L0.3920 0.2670
" />
<path d="M0.3970 0.2670
L0.3920 0.2670
" />
<path d="M0.3970 0.3920
L0.4000 0.3920
" />
<path d="M0.3970 0.3920
L0.4000 0.3920
" />
<path d="M0.3990 0.2670
L0.3970 0.2670
" />
<path d="M0.3990 0.2670
L0.3970 0.2670
" />
<path d="M0.4000 0.2670
L0.3990 0.2670
" />
<path d="M0.4000 0.2670
L0.3990 0.2670
" />
<path d="M0.4000 0.3920
L0.4050 0.3920
" />
<path d="M0.4000 0.3920
L0.4050 0.3920
" />
<path d="M0.4020 0.2670
L0.4000 0.2670
" />
<path d="M0.4020 0.2670
L0.4000 0.2670
" />
<path d="M0.4050 0.2680
L0.4020 0.2670
" />
<path d="M0.4050 0.2680
L0.4020 0.2670
" />
<path d="M0.4050 0.3920
L0.4090 0.3910
" />
<path d="M0.4050 0.3920
L0.4090 0.3910
" />
<path d="M0.4060 0.2680
L0.4050 0.2680
" />
<path d="M0.4060 0.2680
L0.4050 0.2680
" />
<path d="M0.4090 0.2680
L0.4060 0.2680
" />
<path d="M0.4090 0.2680
L0.4060 0.2680
" />
<path d="M0.4090 0.3910
L0.4130 0.3890
" />
<path d="M0.4090 0.3910
L0.4130 0.3890
" />
<path d="M0.4100 0.2690
L0.4090 0.2680
" />
<path d="M0.4100 0.2690
L0.4090 0.2680
" />
<path d="M0.4130 0.2690
L0.4100 0.2690
" />
<path d="M0.4130 0.2690
L0.4100 0.2690
" />
<path d="M0.4130 0.3890
L0.4170 0.3880
" />
<path d="M0.4130 0.3890
L0.4170 0.3880
" />
<path d="M0.4140 0.2710
L0.4130 0.2690
" />
<path d="M0.4140 0.2710
L0.4130 0.2690
" />
<path d="M0.4170 0.2710
L0.4140 0.2710
" />
<path d="M0.4170 0.2710
L0.4140 0.2710
" />
<path d="M0.4170 0.3880
L0.4200 0.3870
" />
<path d="M0.4170 0.3880
L0.4200 0.3870
" />
<path d="M0.4180 0.2720
L0.4170 0.2710
" />
<path d="M0.4180 0.2720
L0.4170 0.2710
" />
<path d="M0.4200 0.2730
L0.4180 0.2720
" />
<path d="M0.4200 0.2730
L0.4180 0.2720
" />
<path d="M0.4200 0.3870
L0.4240 0.3860
" />
<path d="M0.4200 0.3870
L0.4240 0.3860
" />
<path d="M0.4220 0.2740
L0.4200 0.2730
" />
<path d="M0.4220 0.2740
L0.4200 0.2730
" />
<path d="M0.4240 0.2750
L0.4220 0.2740
" />
<path d="M0.4240 0.2750
L0.4220 0.2740
" />
<path d="M0.4240 0.3860
L0.4280 0.3840
" />
<path d="M0.4240 0.3860
L0.4280 0.3840
" />
<path d="M0.4260 0.2750
L0.4240 0.2750
" />
<path d="M0.4260 0.2750
L0.4240 0.2750
" />
<path d="M0.4280 0.2760
L0.4260 0.2750
" />
<path d="M0.4280 0.2760
L0.4260 0.2750
" />
<path d="M0.4280 0.3840
L0.4310 0.3810
" />
<path d="M0.4280 0.3840
L0.4310 0.3810
" />
<path d="M0.4290 0.2770
L0.4280 0.2760
" />
<path d="M0.4290 0.2770
L0.4280 0.2760
" />
<path d="M0.4310 0.2780
L0.4290 0.2770
" />
<path d="M0.4310 0.2780
L0.4290 0.2770
" />
<path d="M0.4310 0.3810
L0.4340 0.3790
" />
<path d="M0.4310 0.3810
L0.4340 0.3790
" />
<path d="M0.4330 0.2790
L0.4310 0.2780
" />
<path d="M0.4330 0.2790
L0.4310 0.2780
" />
<path d="M0.4340 0.2800
L0.4330 0.2790
" />
<path d="M0.4340 0.2800
L0.4330 0.2790
" />
<path d="M0.4340 0.3790
L0.4370 0.3770
" />
<path d="M0.4340 0.3790
L0.4370 0.3770
" />
<path d="M0.4360 0.2810
L0.4340 0.2800
" />
<path d="M0.4360 0.2810
L0.4340 0.2800
" />
<path d="M0.4370 0.2820
L0.4360 0.2810
" />
<path d="M0.4370 0.2820
L0.4360 0.2810
" />
<path d="M0.4370 0.3770
L0.4400 0.3730
" />
<path d="M0.4370 0.3770
L0.4400 0.3730
" />
<path d="M0.4390 0.2840
L0.4370 0.2820
" />
<path d="M0.4390 0.2840
L0.4370 0.2820
" />
<path d="M0.4400 0.2850
L0.4390 0.2840
" />
<path d="M0.4400 0.2850
L0.4390 0.2840
" />
<path d="M0.4400 0.3730
L0.4430 0.3710
" />
<path d="M0.4400 0.3730
L0.4430 0.3710
" />
<path d="M0.4420 0.2880
L0.4400 0.2850
" />
<path d="M0.4420 0.2880
L0.4400 0.2850
" />
<path d="M0.4430 0.2890
L0.4420 0.2880
" />
<path d="M0.4430 0.2890
L0.4420 0.2880
" />
<path d="M0.4430 0.3710
L0.4460 0.3680
" />
<path d="M0.4430 0.3710
L0.4460 0.3680
" />
<path d="M0.4440 0.2910
L0.4430 0.2890
" />
<path d="M0.4440 0.2910
L0.4430 0.2890
" />
<path d="M0.4460 0.2910
L0.4440 0.2910
" />
<path d="M0.4460 0.2910
L0.4440 0.2910
" />
<path d="M0.4460 0.2930
L0.4460 0.2910
" />
<path d="M0.4460 0.2930
L0.4460 0.2910
" />
<path d="M0.4460 0.3680
L0.4480 0.3650
" />
<path d="M0.4460 0.3680
L0.4480 0.3650
" />
<path d="M0.4480 0.2960
L0.4460 0.2930
" />
<path d="M0.4480 0.2960
L0.4460 0.2930
" />
<path d="M0.4480 0.3650
L0.4500 0.3610
" />
<path d="M0.4480 0.3650
L0.4500 0.3610
" />
<path d="M0.4490 0.2970
L0.4480 0.2960
" />
<path d="M0.4490 0.2970
L0.4480 0.2960
" />
<path d="M0.4500 0.2980
L0.4490 0.2970
" />
<path d="M0.4500 0.2980
L0.4490 0.2970
" />
</g>
<g style="fill:#000000; fill-opacity:1.0000; stroke:none;">
<circle cx="0.4500" cy="0.2980" r="0.0100" /> 
<circle cx="0.4500" cy="0.2980" r="0.0100" /> 
<circle cx="0.4500" cy="0.3610" r="0.0100" /> 
<circle cx="0.4500" cy="0.3610" r="0.0100" /> 
</g>
<g style="fill:none; 
stroke:#000000; stroke-width:0.0200; stroke-opacity:1; 
stroke-linecap:round; stroke-linejoin:round;">
<path d="M0.4500 0.3610
L0.4520 0.3580
" />
<path d="M0.4500 0.3610
L0.4520 0.3580
" />
<path d="M0.4520 0.3030
L0.4500 0.2980
" />
<path d="M0.4520 0.3030
L0.4500 0.2980
" />
<path d="M0.4520 0.3580
L0.4540 0.3540
" />
<path d="M0.4520 0.3580
L0.4540 0.3540
" />
<path d="M0.4540 0.3070
L0.4520 0.3030
" />
<path d="M0.4540 0.3070
L0.4520 0.3030
" />
<path d="M0.4540 0.3090
L0.4540 0.3070
" />
<path d="M0.4540 0.3090
L0.4540 0.3070
" />
<path d="M0.4540 0.3500
L0.4570 0.3460
" />
<path d="M0.4540 0.3500
L0.4570 0.3460
" />
<path d="M0.4540 0.3540
L0.4540 0.3500
" />
<path d="M0.4540 0.3540
L0.4540 0.3500
" />
<path d="M0.4570 0.3140
L0.4540 0.3090
" />
<path d="M0.4570 0.3140
L0.4540 0.3090
" />
<path d="M0.4570 0.3170
L0.4570 0.3140
" />
<path d="M0.4570 0.3170
L0.4570 0.3140
" />
<path d="M0.4570 0.3210
L0.4570 0.3170
" />
<path d="M0.4570 0.3210
L0.4570 0.3170
" />
<path d="M0.4570 0.3250
L0.4570 0.3210
" />
<path d="M0.4570 0.3250
L0.4570 0.3210
" />
<path d="M0.4570 0.3330
L0.4580 0.3290
" />
<path d="M0.4570 0.3330
L0.4580 0.3290
" />
<path d="M0.4570 0.3370
L0.4570 0.3330
" />
<path d="M0.4570 0.3370
L0.4570 0.3330
" />
<path d="M0.4570 0.3410
L0.4570 0.3370
" />
<path d="M0.4570 0.3410
L0.4570 0.3370
" />
<path d="M0.4570 0.3460
L0.4570 0.3410
" />
<path d="M0.4570 0.3460
L0.4570 0.3410
" />
<path d="M0.4580 0.3290
L0.4570 0.3250
" />
<path d="M0.4580 0.3290
L0.4570 0.3250
" />
<path d="M1.2260 0.1250
L0.2250 0.1250
" />
<path d="M1.2260 1.5760
L1.2260 0.1250
" />
</g> 
</svg>
