<?xml version="1.0" standalone="no"?>
 <!DOCTYPE svg PUBLIC "-//W3C//DTD SVG 1.1//EN" 
 "http://www.w3.org/Graphics/SVG/1.1/DTD/svg11.dtd"> 
<svg
  xmlns:svg="http://www.w3.org/2000/svg"
  xmlns="http://www.w3.org/2000/svg"
  xmlns:xlink="http://www.w3.org/1999/xlink"
  version="1.1"
  width="9.8298mm" height="6.4262mm" viewBox="0.0000 0.0000 9.8298 6.4262">
<title>SVG Image created as outline.svg date 2025/06/16 09:17:55 </title>
  <desc>Image generated by PCBNEW </desc>
<g style="fill:#000000; fill-opacity:1.0000;stroke:#000000; stroke-opacity:1.0000;
stroke-linecap:round; stroke-linejoin:round;"
 transform="translate(0 0) scale(1 1)">
</g>
<g style="fill:none; 
stroke:#000000; stroke-width:0.0200; stroke-opacity:1; 
stroke-linecap:round; stroke-linejoin:round;">
<path d="M0.9250 1.7250
L1.0720 1.7250
" />
<path d="M0.9250 4.7250
L0.9250 1.7250
" />
<path d="M0.9250 4.7250
L0.9250 1.7250
" />
<path d="M0.9250 4.7250
L1.0720 4.7250
" />
<path d="M1.0720 1.7250
L1.1450 1.7250
" />
<path d="M1.1450 0.2750
L1.1450 6.1750
" />
<path d="M1.1450 0.2750
L1.2340 0.3640
" />
<path d="M1.1450 4.7250
L1.0720 4.7250
" />
<path d="M1.1450 6.1750
L1.2340 6.0860
" />
<path d="M1.1450 6.1750
L8.7050 6.1750
" />
<path d="M1.2340 0.3640
L1.2340 6.0860
" />
<path d="M1.2340 6.0860
L8.6160 6.0860
" />
<path d="M1.3240 0.4540
L1.3240 5.9960
" />
<path d="M1.3240 5.9960
L1.9240 5.9960
" />
<path d="M1.9240 0.4540
L1.3240 0.4540
" />
<path d="M1.9240 5.9960
L1.9240 0.4540
" />
<path d="M8.6160 0.3640
L1.2340 0.3640
" />
<path d="M8.6160 6.0860
L8.6160 0.3640
" />
<path d="M8.7050 0.2750
L1.1450 0.2750
" />
<path d="M8.7050 0.2750
L8.6160 0.3640
" />
<path d="M8.7050 1.7250
L8.7780 1.7250
" />
<path d="M8.7050 6.1750
L8.6160 6.0860
" />
<path d="M8.7050 6.1750
L8.7050 0.2750
" />
<path d="M8.7780 4.7250
L8.7050 4.7250
" />
<path d="M8.9250 1.7250
L8.7780 1.7250
" />
<path d="M8.9250 1.7250
L8.9250 4.7250
" />
<path d="M8.9250 1.7250
L8.9250 4.7250
" />
<path d="M8.9250 4.7250
L8.7780 4.7250
" />
</g> 
</svg>
