<?xml version="1.0" standalone="no"?>
 <!DOCTYPE svg PUBLIC "-//W3C//DTD SVG 1.1//EN" 
 "http://www.w3.org/Graphics/SVG/1.1/DTD/svg11.dtd"> 
<svg
  xmlns:svg="http://www.w3.org/2000/svg"
  xmlns="http://www.w3.org/2000/svg"
  xmlns:xlink="http://www.w3.org/1999/xlink"
  version="1.1"
  width="18.0340mm" height="7.9248mm" viewBox="0.0000 0.0000 18.0340 7.9248">
<title>SVG Image created as outline.svg date 2025/06/16 09:17:46 </title>
  <desc>Image generated by PCBNEW </desc>
<g style="fill:#000000; fill-opacity:1.0000;stroke:#000000; stroke-opacity:1.0000;
stroke-linecap:round; stroke-linejoin:round;"
 transform="translate(0 0) scale(1 1)">
</g>
<g style="fill:none; 
stroke:#000000; stroke-width:0.0200; stroke-opacity:1; 
stroke-linecap:round; stroke-linejoin:round;">
<path d="M1.3750 4.6690
L1.3760 4.6670
" />
<path d="M1.3750 4.6710
L1.3750 4.6690
" />
<path d="M1.3750 5.9230
L1.3750 4.6710
" />
<path d="M1.3760 4.6670
L1.3770 4.6650
" />
<path d="M1.3760 5.9270
L1.3750 5.9230
" />
<path d="M1.3770 4.6650
L1.3780 4.6630
" />
<path d="M1.3780 4.6630
L1.3790 4.6620
" />
<path d="M1.3780 5.9310
L1.3760 5.9270
" />
<path d="M1.3790 4.6620
L1.3800 4.6600
" />
<path d="M1.3800 4.6600
L1.3820 4.6580
" />
<path d="M1.3800 5.9340
L1.3780 5.9310
" />
<path d="M1.3820 4.6580
L1.3840 4.6570
" />
<path d="M1.3840 4.6570
L1.3860 4.6550
" />
<path d="M1.3840 5.9370
L1.3800 5.9340
" />
<path d="M1.3860 4.6550
L1.3890 4.6530
" />
<path d="M1.3890 4.6530
L1.3920 4.6510
" />
<path d="M1.3890 5.9410
L1.3840 5.9370
" />
<path d="M1.3920 4.6510
L1.3950 4.6500
" />
<path d="M1.3950 4.6500
L1.3980 4.6480
" />
<path d="M1.3950 5.9440
L1.3890 5.9410
" />
<path d="M1.3980 4.6480
L1.4010 4.6460
" />
<path d="M1.4010 4.6460
L1.4050 4.6450
" />
<path d="M1.4010 5.9480
L1.3950 5.9440
" />
<path d="M1.4050 4.6450
L1.4090 4.6430
" />
<path d="M1.4090 4.6430
L1.4140 4.6410
" />
<path d="M1.4090 5.9510
L1.4010 5.9480
" />
<path d="M1.4140 4.6410
L1.4180 4.6400
" />
<path d="M1.4180 4.6400
L1.4280 4.6370
" />
<path d="M1.4180 5.9540
L1.4090 5.9510
" />
<path d="M1.4280 4.6370
L1.4390 4.6330
" />
<path d="M1.4280 5.9570
L1.4180 5.9540
" />
<path d="M1.4390 4.6330
L1.4510 4.6300
" />
<path d="M1.4390 5.9610
L1.4280 5.9570
" />
<path d="M1.4510 4.6300
L1.4640 4.6270
" />
<path d="M1.4510 5.9640
L1.4390 5.9610
" />
<path d="M1.4640 4.6270
L1.4770 4.6240
" />
<path d="M1.4640 5.9670
L1.4510 5.9640
" />
<path d="M1.4770 4.6240
L1.4920 4.6210
" />
<path d="M1.4770 5.9700
L1.4640 5.9670
" />
<path d="M1.4920 4.6210
L1.5080 4.6180
" />
<path d="M1.5080 4.6180
L1.7750 4.5700
" />
<path d="M1.5080 5.9760
L1.4770 5.9700
" />
<path d="M1.7750 1.9220
L1.7750 5.8220
" />
<path d="M1.7750 5.8220
L2.4750 5.8220
" />
<path d="M2.3420 6.1260
L1.5080 5.9760
" />
<path d="M2.3420 6.1260
L2.3730 6.1320
" />
<path d="M2.3730 6.1320
L2.3870 6.1350
" />
<path d="M2.3750 1.0820
L2.7200 1.0820
" />
<path d="M2.3750 1.8820
L2.3750 1.0820
" />
<path d="M2.3750 1.8820
L2.4750 1.8820
" />
<path d="M2.3870 6.1350
L2.3990 6.1380
" />
<path d="M2.3990 6.1380
L2.4110 6.1410
" />
<path d="M2.4110 6.1410
L2.4220 6.1440
" />
<path d="M2.4220 6.1440
L2.4320 6.1470
" />
<path d="M2.4320 6.1470
L2.4410 6.1510
" />
<path d="M2.4410 6.1510
L2.4490 6.1540
" />
<path d="M2.4490 6.1540
L2.4550 6.1570
" />
<path d="M2.4550 6.1570
L2.4610 6.1610
" />
<path d="M2.4610 6.1610
L2.4660 6.1640
" />
<path d="M2.4660 6.1640
L2.4700 6.1680
" />
<path d="M2.4700 6.1680
L2.4730 6.1710
" />
<path d="M2.4730 6.1710
L2.4740 6.1750
" />
<path d="M2.4740 6.1750
L2.4750 6.1780
" />
<path d="M2.4750 1.5120
L2.4750 1.9220
" />
<path d="M2.4750 1.9220
L1.7750 1.9220
" />
<path d="M2.4750 5.8220
L2.4750 6.1780
" />
<path d="M2.4750 5.8220
L2.4750 6.2320
" />
<path d="M2.4750 6.2320
L2.4760 6.2570
" />
<path d="M2.4760 1.4870
L2.4750 1.5120
" />
<path d="M2.4760 6.2570
L2.4770 6.2810
" />
<path d="M2.4770 1.4630
L2.4760 1.4870
" />
<path d="M2.4770 6.2810
L2.4810 6.3060
" />
<path d="M2.4810 1.4380
L2.4770 1.4630
" />
<path d="M2.4810 6.3060
L2.4850 6.3300
" />
<path d="M2.4850 1.4140
L2.4810 1.4380
" />
<path d="M2.4850 6.3300
L2.4900 6.3540
" />
<path d="M2.4900 1.3900
L2.4850 1.4140
" />
<path d="M2.4900 6.3540
L2.4970 6.3770
" />
<path d="M2.4970 1.3670
L2.4900 1.3900
" />
<path d="M2.4970 6.3770
L2.5040 6.4010
" />
<path d="M2.5040 1.3430
L2.4970 1.3670
" />
<path d="M2.5040 6.4010
L2.5130 6.4230
" />
<path d="M2.5130 1.3210
L2.5040 1.3430
" />
<path d="M2.5130 6.4230
L2.5230 6.4460
" />
<path d="M2.5230 1.2980
L2.5130 1.3210
" />
<path d="M2.5230 6.4460
L2.5340 6.4670
" />
<path d="M2.5340 1.2770
L2.5230 1.2980
" />
<path d="M2.5340 6.4670
L2.5460 6.4890
" />
<path d="M2.5460 1.2550
L2.5340 1.2770
" />
<path d="M2.5460 6.4890
L2.5590 6.5090
" />
<path d="M2.5590 1.2350
L2.5460 1.2550
" />
<path d="M2.5590 6.5090
L2.5730 6.5290
" />
<path d="M2.5730 1.2150
L2.5590 1.2350
" />
<path d="M2.5730 6.5290
L2.5880 6.5490
" />
<path d="M2.5880 1.1950
L2.5730 1.2150
" />
<path d="M2.5880 6.5490
L2.6040 6.5680
" />
<path d="M2.6040 1.1760
L2.5880 1.1950
" />
<path d="M2.6040 6.5680
L2.6210 6.5860
" />
<path d="M2.6210 1.1580
L2.6040 1.1760
" />
</g>
<g style="fill:#000000; fill-opacity:1.0000; stroke:none;">
<circle cx="2.6210" cy="1.1580" r="0.0100" /> 
<circle cx="2.6210" cy="6.5860" r="0.0100" /> 
</g>
<g style="fill:none; 
stroke:#000000; stroke-width:0.0200; stroke-opacity:1; 
stroke-linecap:round; stroke-linejoin:round;">
<path d="M2.6210 6.5860
L2.6390 6.6030
" />
<path d="M2.6390 1.1410
L2.6210 1.1580
" />
<path d="M2.6390 6.6030
L2.6580 6.6190
" />
<path d="M2.6580 1.1250
L2.6390 1.1410
" />
<path d="M2.6580 6.6190
L2.6780 6.6340
" />
<path d="M2.6780 1.1100
L2.6580 1.1250
" />
<path d="M2.6780 6.6340
L2.6980 6.6480
" />
<path d="M2.6980 1.0960
L2.6780 1.1100
" />
<path d="M2.6980 6.6480
L2.7180 6.6610
" />
<path d="M2.7180 1.0830
L2.6980 1.0960
" />
<path d="M2.7180 6.6610
L2.7400 6.6730
" />
<path d="M2.7400 1.0710
L2.7180 1.0830
" />
<path d="M2.7400 6.6730
L2.7610 6.6840
" />
<path d="M2.7610 1.0600
L2.7400 1.0710
" />
<path d="M2.7610 6.6840
L2.7840 6.6940
" />
<path d="M2.7750 1.3120
L2.7750 1.5120
" />
<path d="M2.7750 1.5020
L2.7750 1.5120
" />
<path d="M2.7750 1.5120
L2.7750 6.2320
" />
<path d="M2.7750 3.1720
L3.0930 3.1720
" />
<path d="M2.7750 4.5720
L3.0930 4.5720
" />
<path d="M2.7750 6.2320
L2.7750 6.2420
" />
<path d="M2.7750 6.2320
L2.7750 6.4320
" />
<path d="M2.7750 6.2420
L2.7760 6.2520
" />
<path d="M2.7760 1.4920
L2.7750 1.5020
" />
<path d="M2.7760 6.2520
L2.7770 6.2620
" />
<path d="M2.7770 1.4820
L2.7760 1.4920
" />
<path d="M2.7770 6.2620
L2.7790 6.2720
" />
<path d="M2.7790 1.4720
L2.7770 1.4820
" />
<path d="M2.7790 6.2720
L2.7810 6.2820
" />
<path d="M2.7810 1.4620
L2.7790 1.4720
" />
<path d="M2.7810 6.2820
L2.7840 6.2910
" />
<path d="M2.7840 1.0500
L2.7610 1.0600
" />
<path d="M2.7840 1.4530
L2.7810 1.4620
" />
<path d="M2.7840 6.2910
L2.7870 6.3010
" />
<path d="M2.7840 6.6940
L2.8060 6.7030
" />
<path d="M2.7870 1.4430
L2.7840 1.4530
" />
<path d="M2.7870 6.3010
L2.7910 6.3100
" />
<path d="M2.7910 1.4340
L2.7870 1.4430
" />
<path d="M2.7910 6.3100
L2.7950 6.3190
" />
<path d="M2.7950 1.4250
L2.7910 1.4340
" />
<path d="M2.7950 6.3190
L2.7990 6.3270
" />
<path d="M2.7990 1.4170
L2.7950 1.4250
" />
<path d="M2.7990 6.3270
L2.8040 6.3360
" />
<path d="M2.8040 1.4080
L2.7990 1.4170
" />
<path d="M2.8040 6.3360
L2.8090 6.3440
" />
<path d="M2.8060 1.0410
L2.7840 1.0500
" />
<path d="M2.8060 6.7030
L2.8300 6.7100
" />
<path d="M2.8090 1.4000
L2.8040 1.4080
" />
<path d="M2.8090 6.3440
L2.8150 6.3520
" />
<path d="M2.8150 1.3920
L2.8090 1.4000
" />
<path d="M2.8150 6.3520
L2.8210 6.3590
" />
<path d="M2.8210 1.3850
L2.8150 1.3920
" />
<path d="M2.8210 6.3590
L2.8270 6.3660
" />
<path d="M2.8270 1.3780
L2.8210 1.3850
" />
<path d="M2.8270 6.3660
L2.8340 6.3730
" />
<path d="M2.8300 1.0340
L2.8060 1.0410
" />
<path d="M2.8300 6.7100
L2.8530 6.7170
" />
<path d="M2.8340 1.3710
L2.8270 1.3780
" />
<path d="M2.8340 6.3730
L2.8410 6.3800
" />
<path d="M2.8410 1.3640
L2.8340 1.3710
" />
<path d="M2.8410 6.3800
L2.8480 6.3860
" />
<path d="M2.8480 1.3580
L2.8410 1.3640
" />
<path d="M2.8480 6.3860
L2.8550 6.3920
" />
<path d="M2.8530 1.0270
L2.8300 1.0340
" />
<path d="M2.8530 6.7170
L2.8770 6.7220
" />
<path d="M2.8550 1.3520
L2.8480 1.3580
" />
<path d="M2.8550 6.3920
L2.8630 6.3980
" />
<path d="M2.8630 1.3460
L2.8550 1.3520
" />
<path d="M2.8630 6.3980
L2.8710 6.4030
" />
<path d="M2.8710 1.3410
L2.8630 1.3460
" />
<path d="M2.8710 6.4030
L2.8800 6.4080
" />
<path d="M2.8770 1.0220
L2.8530 1.0270
" />
<path d="M2.8770 6.7220
L2.9010 6.7270
" />
<path d="M2.8800 1.3360
L2.8710 1.3410
" />
<path d="M2.8800 6.4080
L2.8880 6.4120
" />
<path d="M2.8880 1.3320
L2.8800 1.3360
" />
<path d="M2.8880 6.4120
L2.8970 6.4160
" />
<path d="M2.8970 1.3280
L2.8880 1.3320
" />
<path d="M2.8970 6.4160
L2.9060 6.4200
" />
<path d="M2.9010 1.0170
L2.8770 1.0220
" />
<path d="M2.9010 6.7270
L2.9260 6.7300
" />
<path d="M2.9060 1.3240
L2.8970 1.3280
" />
<path d="M2.9060 6.4200
L2.9160 6.4230
" />
<path d="M2.9160 1.3210
L2.9060 1.3240
" />
<path d="M2.9160 6.4230
L2.9250 6.4260
" />
<path d="M2.9250 1.3180
L2.9160 1.3210
" />
<path d="M2.9250 6.4260
L2.9350 6.4280
" />
<path d="M2.9260 1.0140
L2.9010 1.0170
" />
<path d="M2.9260 6.7300
L2.9500 6.7310
" />
<path d="M2.9350 1.3160
L2.9250 1.3180
" />
<path d="M2.9350 6.4280
L2.9450 6.4300
" />
<path d="M2.9450 1.3140
L2.9350 1.3160
" />
<path d="M2.9450 6.4300
L2.9550 6.4310
" />
<path d="M2.9500 1.0130
L2.9260 1.0140
" />
<path d="M2.9500 6.7310
L2.9750 6.7320
" />
<path d="M2.9550 1.3130
L2.9450 1.3140
" />
<path d="M2.9550 6.4310
L2.9650 6.4320
" />
<path d="M2.9650 1.3120
L2.9550 1.3130
" />
<path d="M2.9650 6.4320
L2.9750 6.4320
" />
<path d="M2.9750 1.0120
L2.9500 1.0130
" />
<path d="M2.9750 1.3120
L2.7750 1.3120
" />
<path d="M2.9750 1.3120
L2.9650 1.3120
" />
<path d="M2.9750 6.4320
L2.7750 6.4320
" />
<path d="M2.9750 6.4320
L15.0750 6.4320
" />
<path d="M2.9750 6.7320
L3.5250 6.7320
" />
<path d="M3.0930 3.1720
L3.0930 4.5720
" />
<path d="M3.0930 3.1720
L3.1160 3.1720
" />
<path d="M3.0930 4.5720
L3.1160 4.5720
" />
<path d="M3.1160 4.5720
L3.1160 3.1720
" />
<path d="M3.4750 2.5220
L3.4750 2.0220
" />
<path d="M3.4750 3.3720
L3.4750 2.5220
" />
<path d="M3.4750 3.8720
L3.4750 3.3720
" />
<path d="M3.5250 0.3720
L3.5250 1.0120
" />
<path d="M3.5250 1.0120
L2.9750 1.0120
" />
<path d="M3.5250 6.7320
L3.5250 7.3720
" />
<path d="M3.5250 7.3720
L14.5250 7.3720
" />
<path d="M4.8500 1.3120
L4.8500 1.9200
" />
<path d="M4.8500 1.9200
L4.8500 2.0120
" />
<path d="M4.8500 2.0120
L7.2000 2.0120
" />
<path d="M4.8500 5.7320
L4.8500 5.8240
" />
<path d="M4.8500 5.7320
L7.2000 5.7320
" />
<path d="M4.8500 5.8240
L4.8500 6.4320
" />
<path d="M4.9250 3.8720
L4.9250 4.8150
" />
<path d="M5.0250 4.3970
L5.0250 3.8720
" />
<path d="M5.0250 4.6720
L5.0250 4.3970
" />
<path d="M5.0250 4.6720
L6.0250 4.6720
" />
<path d="M6.0250 3.8720
L6.0250 4.3970
" />
<path d="M6.0250 4.3970
L6.0250 4.6720
" />
<path d="M6.1250 3.8720
L6.1250 4.8150
" />
<path d="M6.1250 4.8150
L4.9250 4.8150
" />
<path d="M7.2000 1.3120
L7.2000 1.9200
" />
<path d="M7.2000 1.9200
L7.2000 2.0120
" />
<path d="M7.2000 5.7320
L7.2000 5.8240
" />
<path d="M7.2000 5.8240
L7.2000 6.4320
" />
<path d="M7.4250 3.8720
L7.4250 4.8150
" />
<path d="M7.5250 4.3970
L7.5250 3.8720
" />
<path d="M7.5250 4.6720
L7.5250 4.3970
" />
<path d="M7.5250 4.6720
L8.5250 4.6720
" />
<path d="M8.5250 3.8720
L8.5250 4.3970
" />
<path d="M8.5250 4.3970
L8.5250 4.6720
" />
<path d="M8.6250 3.8720
L8.6250 4.8150
" />
<path d="M8.6250 4.8150
L7.4250 4.8150
" />
<path d="M9.4250 3.8720
L9.4250 4.8150
" />
<path d="M9.5250 4.3970
L9.5250 3.8720
" />
<path d="M9.5250 4.6720
L9.5250 4.3970
" />
<path d="M9.5250 4.6720
L10.5250 4.6720
" />
<path d="M10.5250 3.8720
L10.5250 4.3970
" />
<path d="M10.5250 4.3970
L10.5250 4.6720
" />
<path d="M10.6250 3.8720
L10.6250 4.8150
" />
<path d="M10.6250 4.8150
L9.4250 4.8150
" />
<path d="M10.8500 1.3120
L10.8500 1.9200
" />
<path d="M10.8500 1.9200
L10.8500 2.0120
" />
<path d="M10.8500 2.0120
L13.2000 2.0120
" />
<path d="M10.8500 5.7320
L10.8500 5.8240
" />
<path d="M10.8500 5.7320
L13.2000 5.7320
" />
<path d="M10.8500 5.8240
L10.8500 6.4320
" />
<path d="M11.9250 3.8720
L11.9250 4.8150
" />
<path d="M12.0250 4.3970
L12.0250 3.8720
" />
<path d="M12.0250 4.6720
L12.0250 4.3970
" />
<path d="M12.0250 4.6720
L13.0250 4.6720
" />
<path d="M13.0250 3.8720
L13.0250 4.3970
" />
<path d="M13.0250 4.3970
L13.0250 4.6720
" />
<path d="M13.1250 3.8720
L13.1250 4.8150
" />
<path d="M13.1250 4.8150
L11.9250 4.8150
" />
<path d="M13.2000 1.3120
L13.2000 1.9200
" />
<path d="M13.2000 1.9200
L13.2000 2.0120
" />
<path d="M13.2000 5.7320
L13.2000 5.8240
" />
<path d="M13.2000 5.8240
L13.2000 6.4320
" />
<path d="M14.5250 0.3720
L3.5250 0.3720
" />
<path d="M14.5250 1.0120
L14.5250 0.3720
" />
<path d="M14.5250 6.7320
L15.0750 6.7320
" />
<path d="M14.5250 7.3720
L14.5250 6.7320
" />
<path d="M14.5750 2.0220
L3.4750 2.0220
" />
<path d="M14.5750 2.0220
L14.5750 2.5220
" />
<path d="M14.5750 2.5220
L3.4750 2.5220
" />
<path d="M14.5750 2.5220
L14.5750 3.3720
" />
<path d="M14.5750 3.3720
L3.4750 3.3720
" />
<path d="M14.5750 3.3720
L14.5750 3.8720
" />
<path d="M14.5750 3.8720
L3.4750 3.8720
" />
<path d="M14.9340 3.1720
L14.9570 3.1720
" />
<path d="M14.9340 4.5720
L14.9340 3.1720
" />
<path d="M14.9340 4.5720
L14.9570 4.5720
" />
<path d="M14.9570 3.1720
L14.9570 4.5720
" />
<path d="M14.9570 3.1720
L15.2750 3.1720
" />
<path d="M14.9570 4.5720
L15.2750 4.5720
" />
<path d="M15.0750 1.0120
L14.5250 1.0120
" />
<path d="M15.0750 1.3120
L2.9750 1.3120
" />
<path d="M15.0750 6.4320
L15.0850 6.4320
" />
<path d="M15.0750 6.7320
L15.1000 6.7310
" />
<path d="M15.0850 1.3120
L15.0750 1.3120
" />
<path d="M15.0850 6.4320
L15.0950 6.4310
" />
<path d="M15.0950 1.3130
L15.0850 1.3120
" />
<path d="M15.0950 6.4310
L15.1050 6.4300
" />
<path d="M15.1000 1.0130
L15.0750 1.0120
" />
<path d="M15.1000 6.7310
L15.1240 6.7300
" />
<path d="M15.1050 1.3140
L15.0950 1.3130
" />
<path d="M15.1050 6.4300
L15.1140 6.4280
" />
<path d="M15.1140 1.3160
L15.1050 1.3140
" />
<path d="M15.1140 6.4280
L15.1240 6.4260
" />
<path d="M15.1240 1.0140
L15.1000 1.0130
" />
<path d="M15.1240 1.3180
L15.1140 1.3160
" />
<path d="M15.1240 6.4260
L15.1330 6.4230
" />
<path d="M15.1240 6.7300
L15.1490 6.7270
" />
<path d="M15.1330 1.3210
L15.1240 1.3180
" />
<path d="M15.1330 6.4230
L15.1420 6.4200
" />
<path d="M15.1420 1.3240
L15.1330 1.3210
" />
<path d="M15.1420 6.4200
L15.1520 6.4170
" />
<path d="M15.1490 1.0170
L15.1240 1.0140
" />
<path d="M15.1490 6.7270
L15.1730 6.7220
" />
<path d="M15.1520 1.3270
L15.1420 1.3240
" />
<path d="M15.1520 6.4170
L15.1610 6.4130
" />
<path d="M15.1610 1.3310
L15.1520 1.3270
" />
<path d="M15.1610 6.4130
L15.1690 6.4080
" />
<path d="M15.1690 1.3360
L15.1610 1.3310
" />
<path d="M15.1690 6.4080
L15.1780 6.4040
" />
<path d="M15.1730 1.0220
L15.1490 1.0170
" />
<path d="M15.1730 6.7220
L15.1970 6.7170
" />
<path d="M15.1780 1.3400
L15.1690 1.3360
" />
<path d="M15.1780 6.4040
L15.1860 6.3980
" />
<path d="M15.1860 1.3460
L15.1780 1.3400
" />
<path d="M15.1860 6.3980
L15.1940 6.3930
" />
<path d="M15.1940 1.3510
L15.1860 1.3460
" />
<path d="M15.1940 6.3930
L15.2020 6.3870
" />
<path d="M15.1970 1.0270
L15.1730 1.0220
" />
<path d="M15.1970 6.7170
L15.2200 6.7100
" />
<path d="M15.2020 1.3570
L15.1940 1.3510
" />
<path d="M15.2020 6.3870
L15.2090 6.3800
" />
<path d="M15.2090 1.3640
L15.2020 1.3570
" />
<path d="M15.2090 6.3800
L15.2160 6.3730
" />
<path d="M15.2160 1.3710
L15.2090 1.3640
" />
</g>
<g style="fill:#000000; fill-opacity:1.0000; stroke:none;">
<circle cx="15.2160" cy="1.3710" r="0.0100" /> 
<circle cx="15.2160" cy="6.3730" r="0.0100" /> 
</g>
<g style="fill:none; 
stroke:#000000; stroke-width:0.0200; stroke-opacity:1; 
stroke-linecap:round; stroke-linejoin:round;">
<path d="M15.2160 6.3730
L15.2230 6.3660
" />
<path d="M15.2200 1.0340
L15.1970 1.0270
" />
<path d="M15.2200 6.7100
L15.2440 6.7030
" />
<path d="M15.2230 1.3780
L15.2160 1.3710
" />
<path d="M15.2230 6.3660
L15.2300 6.3590
" />
<path d="M15.2300 1.3850
L15.2230 1.3780
" />
<path d="M15.2300 6.3590
L15.2360 6.3510
" />
<path d="M15.2360 1.3930
L15.2300 1.3850
" />
<path d="M15.2360 6.3510
L15.2410 6.3430
" />
<path d="M15.2410 1.4010
L15.2360 1.3930
" />
<path d="M15.2410 6.3430
L15.2470 6.3350
" />
<path d="M15.2440 1.0410
L15.2200 1.0340
" />
<path d="M15.2440 6.7030
L15.2660 6.6940
" />
<path d="M15.2470 1.4090
L15.2410 1.4010
" />
<path d="M15.2470 6.3350
L15.2510 6.3260
" />
<path d="M15.2510 1.4180
L15.2470 1.4090
" />
<path d="M15.2510 6.3260
L15.2560 6.3170
" />
<path d="M15.2560 1.4270
L15.2510 1.4180
" />
<path d="M15.2560 6.3170
L15.2600 6.3090
" />
<path d="M15.2600 1.4350
L15.2560 1.4270
" />
<path d="M15.2600 6.3090
L15.2630 6.2990
" />
<path d="M15.2630 1.4450
L15.2600 1.4350
" />
<path d="M15.2630 6.2990
L15.2660 6.2900
" />
<path d="M15.2660 1.0500
L15.2440 1.0410
" />
<path d="M15.2660 1.4540
L15.2630 1.4450
" />
<path d="M15.2660 6.2900
L15.2690 6.2810
" />
<path d="M15.2660 6.6940
L15.2890 6.6840
" />
<path d="M15.2690 1.4630
L15.2660 1.4540
" />
<path d="M15.2690 6.2810
L15.2710 6.2710
" />
<path d="M15.2710 1.4730
L15.2690 1.4630
" />
<path d="M15.2710 6.2710
L15.2730 6.2620
" />
<path d="M15.2730 1.4820
L15.2710 1.4730
" />
<path d="M15.2730 6.2620
L15.2740 6.2520
" />
<path d="M15.2740 1.4920
L15.2730 1.4820
" />
<path d="M15.2740 6.2520
L15.2750 6.2420
" />
<path d="M15.2750 1.3120
L15.0750 1.3120
" />
<path d="M15.2750 1.3120
L15.2750 1.5120
" />
<path d="M15.2750 1.5020
L15.2740 1.4920
" />
<path d="M15.2750 1.5120
L15.2750 1.5020
" />
<path d="M15.2750 6.2320
L15.2750 1.5120
" />
<path d="M15.2750 6.2320
L15.2750 6.4320
" />
<path d="M15.2750 6.2420
L15.2750 6.2320
" />
<path d="M15.2750 6.4320
L15.0750 6.4320
" />
<path d="M15.2890 1.0600
L15.2660 1.0500
" />
<path d="M15.2890 6.6840
L15.3100 6.6730
" />
<path d="M15.3100 1.0710
L15.2890 1.0600
" />
<path d="M15.3100 6.6730
L15.3320 6.6610
" />
<path d="M15.3300 1.0820
L15.6750 1.0820
" />
<path d="M15.3320 1.0830
L15.3100 1.0710
" />
<path d="M15.3320 6.6610
L15.3520 6.6480
" />
<path d="M15.3520 1.0960
L15.3320 1.0830
" />
<path d="M15.3520 6.6480
L15.3730 6.6340
" />
<path d="M15.3730 1.1100
L15.3520 1.0960
" />
<path d="M15.3730 6.6340
L15.3920 6.6190
" />
<path d="M15.3920 1.1250
L15.3730 1.1100
" />
<path d="M15.3920 6.6190
L15.4110 6.6030
" />
<path d="M15.4110 1.1410
L15.3920 1.1250
" />
<path d="M15.4110 6.6030
L15.4290 6.5860
" />
<path d="M15.4290 1.1580
L15.4110 1.1410
" />
</g>
<g style="fill:#000000; fill-opacity:1.0000; stroke:none;">
<circle cx="15.4290" cy="1.1580" r="0.0100" /> 
<circle cx="15.4290" cy="6.5860" r="0.0100" /> 
</g>
<g style="fill:none; 
stroke:#000000; stroke-width:0.0200; stroke-opacity:1; 
stroke-linecap:round; stroke-linejoin:round;">
<path d="M15.4290 6.5860
L15.4460 6.5680
" />
<path d="M15.4460 1.1760
L15.4290 1.1580
" />
<path d="M15.4460 6.5680
L15.4620 6.5490
" />
<path d="M15.4620 1.1950
L15.4460 1.1760
" />
<path d="M15.4620 6.5490
L15.4770 6.5290
" />
<path d="M15.4770 1.2150
L15.4620 1.1950
" />
<path d="M15.4770 6.5290
L15.4910 6.5090
" />
<path d="M15.4910 1.2350
L15.4770 1.2150
" />
<path d="M15.4910 6.5090
L15.5040 6.4890
" />
<path d="M15.5040 1.2550
L15.4910 1.2350
" />
<path d="M15.5040 6.4890
L15.5160 6.4670
" />
<path d="M15.5160 1.2770
L15.5040 1.2550
" />
<path d="M15.5160 6.4670
L15.5270 6.4460
" />
<path d="M15.5270 1.2980
L15.5160 1.2770
" />
<path d="M15.5270 6.4460
L15.5370 6.4230
" />
<path d="M15.5370 1.3210
L15.5270 1.2980
" />
<path d="M15.5370 6.4230
L15.5460 6.4010
" />
<path d="M15.5460 1.3430
L15.5370 1.3210
" />
<path d="M15.5460 6.4010
L15.5530 6.3770
" />
<path d="M15.5530 1.3670
L15.5460 1.3430
" />
<path d="M15.5530 6.3770
L15.5600 6.3540
" />
<path d="M15.5600 1.3900
L15.5530 1.3670
" />
<path d="M15.5600 6.3540
L15.5650 6.3300
" />
<path d="M15.5650 1.4140
L15.5600 1.3900
" />
<path d="M15.5650 6.3300
L15.5700 6.3060
" />
<path d="M15.5700 1.4380
L15.5650 1.4140
" />
<path d="M15.5700 6.3060
L15.5730 6.2810
" />
<path d="M15.5730 1.4630
L15.5700 1.4380
" />
<path d="M15.5730 6.2810
L15.5740 6.2570
" />
<path d="M15.5740 1.4870
L15.5730 1.4630
" />
<path d="M15.5740 6.2570
L15.5750 6.2320
" />
<path d="M15.5750 1.5120
L15.5740 1.4870
" />
<path d="M15.5750 1.8820
L15.6750 1.8820
" />
<path d="M15.5750 1.9220
L15.5750 1.5120
" />
<path d="M15.5750 5.8220
L15.5750 6.1780
" />
<path d="M15.5750 5.8220
L16.2750 5.8220
" />
<path d="M15.5750 6.1760
L15.5760 6.1750
" />
<path d="M15.5750 6.1780
L15.5750 6.1760
" />
<path d="M15.5750 6.2320
L15.5750 5.8220
" />
<path d="M15.5760 6.1750
L15.5770 6.1730
" />
<path d="M15.5770 6.1730
L15.5780 6.1710
" />
<path d="M15.5780 6.1710
L15.5790 6.1690
" />
<path d="M15.5790 6.1690
L15.5800 6.1680
" />
<path d="M15.5800 6.1680
L15.5820 6.1660
" />
<path d="M15.5820 6.1660
L15.5840 6.1640
" />
<path d="M15.5840 6.1640
L15.5860 6.1620
" />
<path d="M15.5860 6.1620
L15.5890 6.1610
" />
<path d="M15.5890 6.1610
L15.5920 6.1590
" />
<path d="M15.5920 6.1590
L15.5950 6.1570
" />
<path d="M15.5950 6.1570
L15.5980 6.1560
" />
<path d="M15.5980 6.1560
L15.6010 6.1540
" />
<path d="M15.6010 6.1540
L15.6050 6.1520
" />
<path d="M15.6050 6.1520
L15.6090 6.1510
" />
<path d="M15.6090 6.1510
L15.6140 6.1490
" />
<path d="M15.6140 6.1490
L15.6180 6.1470
" />
<path d="M15.6180 6.1470
L15.6280 6.1440
" />
<path d="M15.6280 6.1440
L15.6390 6.1410
" />
<path d="M15.6390 6.1410
L15.6510 6.1380
" />
<path d="M15.6510 6.1380
L15.6640 6.1350
" />
<path d="M15.6640 6.1350
L15.6770 6.1320
" />
<path d="M15.6750 1.8820
L15.6750 1.0820
" />
<path d="M15.6770 6.1320
L15.6920 6.1290
" />
<path d="M15.6920 6.1290
L15.7080 6.1260
" />
<path d="M16.2750 1.9220
L15.5750 1.9220
" />
<path d="M16.2750 4.5700
L16.5420 4.6180
" />
<path d="M16.2750 5.8220
L16.2750 1.9220
" />
<path d="M16.5420 4.6180
L16.5730 4.6240
" />
<path d="M16.5420 5.9760
L15.7080 6.1260
" />
<path d="M16.5580 5.9730
L16.5420 5.9760
" />
<path d="M16.5730 4.6240
L16.5870 4.6270
" />
<path d="M16.5730 5.9700
L16.5580 5.9730
" />
<path d="M16.5870 4.6270
L16.5990 4.6300
" />
<path d="M16.5870 5.9670
L16.5730 5.9700
" />
<path d="M16.5990 4.6300
L16.6110 4.6330
" />
<path d="M16.5990 5.9640
L16.5870 5.9670
" />
<path d="M16.6110 4.6330
L16.6220 4.6370
" />
<path d="M16.6110 5.9610
L16.5990 5.9640
" />
<path d="M16.6220 4.6370
L16.6320 4.6400
" />
<path d="M16.6220 5.9570
L16.6110 5.9610
" />
<path d="M16.6320 4.6400
L16.6410 4.6430
" />
<path d="M16.6320 5.9540
L16.6220 5.9570
" />
<path d="M16.6370 5.9530
L16.6320 5.9540
" />
<path d="M16.6410 4.6430
L16.6490 4.6460
" />
<path d="M16.6410 5.9510
L16.6370 5.9530
" />
<path d="M16.6450 5.9490
L16.6410 5.9510
" />
<path d="M16.6490 4.6460
L16.6550 4.6500
" />
<path d="M16.6490 5.9480
L16.6450 5.9490
" />
<path d="M16.6520 5.9460
L16.6490 5.9480
" />
<path d="M16.6550 4.6500
L16.6610 4.6530
" />
<path d="M16.6550 5.9440
L16.6520 5.9460
" />
<path d="M16.6580 5.9430
L16.6550 5.9440
" />
<path d="M16.6610 4.6530
L16.6660 4.6570
" />
<path d="M16.6610 5.9410
L16.6580 5.9430
" />
<path d="M16.6640 5.9390
L16.6610 5.9410
" />
<path d="M16.6660 4.6570
L16.6700 4.6600
" />
<path d="M16.6660 5.9370
L16.6640 5.9390
" />
<path d="M16.6680 5.9360
L16.6660 5.9370
" />
<path d="M16.6700 4.6600
L16.6730 4.6630
" />
<path d="M16.6700 5.9340
L16.6680 5.9360
" />
<path d="M16.6710 5.9320
L16.6700 5.9340
" />
<path d="M16.6730 4.6630
L16.6740 4.6670
" />
<path d="M16.6730 5.9310
L16.6710 5.9320
" />
<path d="M16.6740 4.6670
L16.6750 4.6710
" />
<path d="M16.6740 5.9270
L16.6740 5.9290
" />
<path d="M16.6740 5.9290
L16.6730 5.9310
" />
<path d="M16.6750 5.9230
L16.6750 4.6710
" />
<path d="M16.6750 5.9230
L16.6750 5.9250
" />
<path d="M16.6750 5.9250
L16.6740 5.9270
" />
</g> 
</svg>
