<?xml version="1.0" standalone="no"?>
 <!DOCTYPE svg PUBLIC "-//W3C//DTD SVG 1.1//EN" 
 "http://www.w3.org/Graphics/SVG/1.1/DTD/svg11.dtd"> 
<svg
  xmlns:svg="http://www.w3.org/2000/svg"
  xmlns="http://www.w3.org/2000/svg"
  xmlns:xlink="http://www.w3.org/1999/xlink"
  version="1.1"
  width="59.4360mm" height="6.0452mm" viewBox="0.0000 0.0000 59.4360 6.0452">
<title>SVG Image created as outline.svg date 2025/06/16 09:18:07 </title>
  <desc>Image generated by PCBNEW </desc>
<g style="fill:#000000; fill-opacity:1.0000;stroke:#000000; stroke-opacity:1.0000;
stroke-linecap:round; stroke-linejoin:round;"
 transform="translate(0 0) scale(1 1)">
</g>
<g style="fill:none; 
stroke:#000000; stroke-width:0.0200; stroke-opacity:1; 
stroke-linecap:round; stroke-linejoin:round;">
<path d="M0.5040 0.4550
L0.5040 5.5350
" />
<path d="M0.5040 5.5350
L58.9350 5.5350
" />
<path d="M1.0740 1.0260
L2.4740 1.0260
" />
<path d="M1.0740 2.4240
L1.0740 1.0260
" />
<path d="M1.0740 2.4240
L1.2740 2.2250
" />
<path d="M1.0740 3.5650
L2.4740 3.5650
" />
<path d="M1.0740 4.9650
L1.0740 3.5650
" />
<path d="M1.2740 1.2250
L1.0740 1.0260
" />
<path d="M1.2740 1.2250
L1.2740 2.2250
" />
<path d="M1.2740 2.2250
L2.2740 2.2250
" />
<path d="M1.2740 3.7650
L1.0740 3.5650
" />
<path d="M1.2740 3.7650
L1.2740 4.7650
" />
<path d="M1.2740 4.7650
L1.0740 4.9650
" />
<path d="M1.2740 4.7650
L2.2740 4.7650
" />
<path d="M1.5240 1.4750
L2.0240 1.4750
" />
<path d="M1.5240 1.9750
L1.5240 1.4750
" />
<path d="M1.5240 4.0150
L2.0240 4.0150
" />
<path d="M1.5240 4.5150
L1.5240 4.0150
" />
<path d="M2.0240 1.4750
L2.0240 1.9750
" />
<path d="M2.0240 1.9750
L1.5240 1.9750
" />
<path d="M2.0240 4.0150
L2.0240 4.5150
" />
<path d="M2.0240 4.5150
L1.5240 4.5150
" />
<path d="M2.2740 1.2250
L1.2740 1.2250
" />
<path d="M2.2740 1.2250
L2.4740 1.0260
" />
<path d="M2.2740 2.2250
L2.2740 1.2250
" />
<path d="M2.2740 3.7650
L1.2740 3.7650
" />
<path d="M2.2740 4.7650
L2.2740 3.7650
" />
<path d="M2.4740 1.0260
L2.4740 2.4240
" />
<path d="M2.4740 2.4240
L1.0740 2.4240
" />
<path d="M2.4740 2.4240
L2.2740 2.2250
" />
<path d="M2.4740 3.5650
L2.2740 3.7650
" />
<path d="M2.4740 3.5650
L2.4740 4.9650
" />
<path d="M2.4740 4.9650
L1.0740 4.9650
" />
<path d="M2.4740 4.9650
L2.2740 4.7650
" />
<path d="M3.6140 1.0260
L3.8140 1.2250
" />
<path d="M3.6140 1.0260
L5.0140 1.0260
" />
<path d="M3.6140 2.4240
L3.6140 1.0260
" />
<path d="M3.6140 2.4240
L3.8140 2.2250
" />
<path d="M3.6140 3.5650
L3.8140 3.7650
" />
<path d="M3.6140 3.5650
L5.0140 3.5650
" />
<path d="M3.6140 4.9650
L3.6140 3.5650
" />
<path d="M3.8140 1.2250
L3.8140 2.2250
" />
<path d="M3.8140 2.2250
L4.8140 2.2250
" />
<path d="M3.8140 3.7650
L3.8140 4.7650
" />
<path d="M3.8140 4.7650
L3.6140 4.9650
" />
<path d="M3.8140 4.7650
L4.8140 4.7650
" />
<path d="M4.0640 1.4750
L4.5640 1.4750
" />
<path d="M4.0640 1.9750
L4.0640 1.4750
" />
<path d="M4.0640 4.0150
L4.5640 4.0150
" />
<path d="M4.0640 4.5150
L4.0640 4.0150
" />
<path d="M4.5640 1.4750
L4.5640 1.9750
" />
<path d="M4.5640 1.9750
L4.0640 1.9750
" />
<path d="M4.5640 4.0150
L4.5640 4.5150
" />
<path d="M4.5640 4.5150
L4.0640 4.5150
" />
<path d="M4.8140 1.2250
L3.8140 1.2250
" />
<path d="M4.8140 1.2250
L5.0140 1.0260
" />
<path d="M4.8140 2.2250
L4.8140 1.2250
" />
<path d="M4.8140 2.2250
L5.0140 2.4240
" />
<path d="M4.8140 3.7650
L3.8140 3.7650
" />
<path d="M4.8140 4.7650
L4.8140 3.7650
" />
<path d="M4.8140 4.7650
L5.0140 4.9650
" />
<path d="M5.0140 1.0260
L5.0140 2.4240
" />
<path d="M5.0140 2.4240
L3.6140 2.4240
" />
<path d="M5.0140 3.5650
L4.8140 3.7650
" />
<path d="M5.0140 3.5650
L5.0140 4.9650
" />
<path d="M5.0140 4.9650
L3.6140 4.9650
" />
<path d="M6.1540 1.0260
L6.3530 1.2250
" />
<path d="M6.1540 1.0260
L7.5540 1.0260
" />
<path d="M6.1540 2.4240
L6.1540 1.0260
" />
<path d="M6.1540 2.4240
L6.3530 2.2250
" />
<path d="M6.1540 3.5650
L6.3530 3.7650
" />
<path d="M6.1540 3.5650
L7.5540 3.5650
" />
<path d="M6.1540 4.9650
L6.1540 3.5650
" />
<path d="M6.3530 1.2250
L6.3530 2.2250
" />
<path d="M6.3530 2.2250
L7.3530 2.2250
" />
<path d="M6.3530 3.7650
L6.3530 4.7650
" />
<path d="M6.3530 4.7650
L6.1540 4.9650
" />
<path d="M6.3530 4.7650
L7.3530 4.7650
" />
<path d="M6.6030 1.4750
L7.1030 1.4750
" />
<path d="M6.6030 1.9750
L6.6030 1.4750
" />
<path d="M6.6030 4.0150
L7.1030 4.0150
" />
<path d="M6.6030 4.5150
L6.6030 4.0150
" />
<path d="M7.1030 1.4750
L7.1030 1.9750
" />
<path d="M7.1030 1.9750
L6.6030 1.9750
" />
<path d="M7.1030 4.0150
L7.1030 4.5150
" />
<path d="M7.1030 4.5150
L6.6030 4.5150
" />
<path d="M7.3530 1.2250
L6.3530 1.2250
" />
<path d="M7.3530 1.2250
L7.5540 1.0260
" />
<path d="M7.3530 2.2250
L7.3530 1.2250
" />
<path d="M7.3530 2.2250
L7.5540 2.4240
" />
<path d="M7.3530 3.7650
L6.3530 3.7650
" />
<path d="M7.3530 4.7650
L7.3530 3.7650
" />
<path d="M7.3530 4.7650
L7.5540 4.9650
" />
<path d="M7.5540 1.0260
L7.5540 2.4240
" />
<path d="M7.5540 2.4240
L6.1540 2.4240
" />
<path d="M7.5540 3.5650
L7.3530 3.7650
" />
<path d="M7.5540 3.5650
L7.5540 4.9650
" />
<path d="M7.5540 4.9650
L6.1540 4.9650
" />
<path d="M8.6940 1.0260
L8.8930 1.2250
" />
<path d="M8.6940 1.0260
L10.0940 1.0260
" />
<path d="M8.6940 2.4240
L8.6940 1.0260
" />
<path d="M8.6940 2.4240
L8.8930 2.2250
" />
<path d="M8.6940 3.5650
L8.8930 3.7650
" />
<path d="M8.6940 3.5650
L10.0940 3.5650
" />
<path d="M8.6940 4.9650
L8.6940 3.5650
" />
<path d="M8.8930 1.2250
L8.8930 2.2250
" />
<path d="M8.8930 2.2250
L9.8940 2.2250
" />
<path d="M8.8930 3.7650
L8.8930 4.7650
" />
<path d="M8.8930 4.7650
L8.6940 4.9650
" />
<path d="M8.8930 4.7650
L9.8940 4.7650
" />
<path d="M9.1430 1.4750
L9.6430 1.4750
" />
<path d="M9.1430 1.9750
L9.1430 1.4750
" />
<path d="M9.1430 4.0150
L9.6430 4.0150
" />
<path d="M9.1430 4.5150
L9.1430 4.0150
" />
<path d="M9.6430 1.4750
L9.6430 1.9750
" />
<path d="M9.6430 1.9750
L9.1430 1.9750
" />
<path d="M9.6430 4.0150
L9.6430 4.5150
" />
<path d="M9.6430 4.5150
L9.1430 4.5150
" />
<path d="M9.8940 1.2250
L8.8930 1.2250
" />
<path d="M9.8940 1.2250
L10.0940 1.0260
" />
<path d="M9.8940 2.2250
L9.8940 1.2250
" />
<path d="M9.8940 2.2250
L10.0940 2.4240
" />
<path d="M9.8940 3.7650
L8.8930 3.7650
" />
<path d="M9.8940 4.7650
L9.8940 3.7650
" />
<path d="M9.8940 4.7650
L10.0940 4.9650
" />
<path d="M10.0940 1.0260
L10.0940 2.4240
" />
<path d="M10.0940 2.4240
L8.6940 2.4240
" />
<path d="M10.0940 3.5650
L9.8940 3.7650
" />
<path d="M10.0940 3.5650
L10.0940 4.9650
" />
<path d="M10.0940 4.9650
L8.6940 4.9650
" />
<path d="M11.2340 1.0260
L11.4340 1.2250
" />
<path d="M11.2340 1.0260
L12.6340 1.0260
" />
<path d="M11.2340 2.4240
L11.2340 1.0260
" />
<path d="M11.2340 2.4240
L11.4340 2.2250
" />
<path d="M11.2340 3.5650
L11.4340 3.7650
" />
<path d="M11.2340 3.5650
L12.6340 3.5650
" />
<path d="M11.2340 4.9650
L11.2340 3.5650
" />
<path d="M11.4340 1.2250
L11.4340 2.2250
" />
<path d="M11.4340 2.2250
L12.4340 2.2250
" />
<path d="M11.4340 3.7650
L11.4340 4.7650
" />
<path d="M11.4340 4.7650
L11.2340 4.9650
" />
<path d="M11.4340 4.7650
L12.4340 4.7650
" />
<path d="M11.6840 1.4750
L12.1840 1.4750
" />
<path d="M11.6840 1.9750
L11.6840 1.4750
" />
<path d="M11.6840 4.0150
L12.1840 4.0150
" />
<path d="M11.6840 4.5150
L11.6840 4.0150
" />
<path d="M12.1840 1.4750
L12.1840 1.9750
" />
<path d="M12.1840 1.9750
L11.6840 1.9750
" />
<path d="M12.1840 4.0150
L12.1840 4.5150
" />
<path d="M12.1840 4.5150
L11.6840 4.5150
" />
<path d="M12.4340 1.2250
L11.4340 1.2250
" />
<path d="M12.4340 1.2250
L12.6340 1.0260
" />
<path d="M12.4340 2.2250
L12.4340 1.2250
" />
<path d="M12.4340 2.2250
L12.6340 2.4240
" />
<path d="M12.4340 3.7650
L11.4340 3.7650
" />
<path d="M12.4340 4.7650
L12.4340 3.7650
" />
<path d="M12.4340 4.7650
L12.6340 4.9650
" />
<path d="M12.6340 1.0260
L12.6340 2.4240
" />
<path d="M12.6340 2.4240
L11.2340 2.4240
" />
<path d="M12.6340 3.5650
L12.4340 3.7650
" />
<path d="M12.6340 3.5650
L12.6340 4.9650
" />
<path d="M12.6340 4.9650
L11.2340 4.9650
" />
<path d="M13.7740 1.0260
L15.1740 1.0260
" />
<path d="M13.7740 2.4240
L13.7740 1.0260
" />
<path d="M13.7740 2.4240
L13.9740 2.2250
" />
<path d="M13.7740 3.5650
L15.1740 3.5650
" />
<path d="M13.7740 4.9650
L13.7740 3.5650
" />
<path d="M13.9740 1.2250
L13.7740 1.0260
" />
<path d="M13.9740 1.2250
L13.9740 2.2250
" />
<path d="M13.9740 2.2250
L14.9740 2.2250
" />
<path d="M13.9740 3.7650
L13.7740 3.5650
" />
<path d="M13.9740 3.7650
L13.9740 4.7650
" />
<path d="M13.9740 4.7650
L13.7740 4.9650
" />
<path d="M13.9740 4.7650
L14.9740 4.7650
" />
<path d="M14.2240 1.4750
L14.7240 1.4750
" />
<path d="M14.2240 1.9750
L14.2240 1.4750
" />
<path d="M14.2240 4.0150
L14.7240 4.0150
" />
<path d="M14.2240 4.5150
L14.2240 4.0150
" />
<path d="M14.7240 1.4750
L14.7240 1.9750
" />
<path d="M14.7240 1.9750
L14.2240 1.9750
" />
<path d="M14.7240 4.0150
L14.7240 4.5150
" />
<path d="M14.7240 4.5150
L14.2240 4.5150
" />
<path d="M14.9740 1.2250
L13.9740 1.2250
" />
<path d="M14.9740 1.2250
L15.1740 1.0260
" />
<path d="M14.9740 2.2250
L14.9740 1.2250
" />
<path d="M14.9740 3.7650
L13.9740 3.7650
" />
<path d="M14.9740 4.7650
L14.9740 3.7650
" />
<path d="M15.1740 1.0260
L15.1740 2.4240
" />
<path d="M15.1740 2.4240
L13.7740 2.4240
" />
<path d="M15.1740 2.4240
L14.9740 2.2250
" />
<path d="M15.1740 3.5650
L14.9740 3.7650
" />
<path d="M15.1740 3.5650
L15.1740 4.9650
" />
<path d="M15.1740 4.9650
L13.7740 4.9650
" />
<path d="M15.1740 4.9650
L14.9740 4.7650
" />
<path d="M16.3140 1.0260
L16.5140 1.2250
" />
<path d="M16.3140 1.0260
L17.7140 1.0260
" />
<path d="M16.3140 2.4240
L16.3140 1.0260
" />
<path d="M16.3140 2.4240
L16.5140 2.2250
" />
<path d="M16.3140 3.5650
L16.5140 3.7650
" />
<path d="M16.3140 3.5650
L17.7140 3.5650
" />
<path d="M16.3140 4.9650
L16.3140 3.5650
" />
<path d="M16.5140 1.2250
L16.5140 2.2250
" />
<path d="M16.5140 2.2250
L17.5140 2.2250
" />
<path d="M16.5140 3.7650
L16.5140 4.7650
" />
<path d="M16.5140 4.7650
L16.3140 4.9650
" />
<path d="M16.5140 4.7650
L17.5140 4.7650
" />
<path d="M16.7640 1.4750
L17.2640 1.4750
" />
<path d="M16.7640 1.9750
L16.7640 1.4750
" />
<path d="M16.7640 4.0150
L17.2640 4.0150
" />
<path d="M16.7640 4.5150
L16.7640 4.0150
" />
<path d="M17.2640 1.4750
L17.2640 1.9750
" />
<path d="M17.2640 1.9750
L16.7640 1.9750
" />
<path d="M17.2640 4.0150
L17.2640 4.5150
" />
<path d="M17.2640 4.5150
L16.7640 4.5150
" />
<path d="M17.5140 1.2250
L16.5140 1.2250
" />
<path d="M17.5140 1.2250
L17.7140 1.0260
" />
<path d="M17.5140 2.2250
L17.5140 1.2250
" />
<path d="M17.5140 2.2250
L17.7140 2.4240
" />
<path d="M17.5140 3.7650
L16.5140 3.7650
" />
<path d="M17.5140 4.7650
L17.5140 3.7650
" />
<path d="M17.5140 4.7650
L17.7140 4.9650
" />
<path d="M17.7140 1.0260
L17.7140 2.4240
" />
<path d="M17.7140 2.4240
L16.3140 2.4240
" />
<path d="M17.7140 3.5650
L17.5140 3.7650
" />
<path d="M17.7140 3.5650
L17.7140 4.9650
" />
<path d="M17.7140 4.9650
L16.3140 4.9650
" />
<path d="M18.8540 1.0260
L19.0540 1.2250
" />
<path d="M18.8540 1.0260
L20.2530 1.0260
" />
<path d="M18.8540 2.4240
L18.8540 1.0260
" />
<path d="M18.8540 2.4240
L19.0540 2.2250
" />
<path d="M18.8540 3.5650
L19.0540 3.7650
" />
<path d="M18.8540 3.5650
L20.2530 3.5650
" />
<path d="M18.8540 4.9650
L18.8540 3.5650
" />
<path d="M19.0540 1.2250
L19.0540 2.2250
" />
<path d="M19.0540 2.2250
L20.0540 2.2250
" />
<path d="M19.0540 3.7650
L19.0540 4.7650
" />
<path d="M19.0540 4.7650
L18.8540 4.9650
" />
<path d="M19.0540 4.7650
L20.0540 4.7650
" />
<path d="M19.3040 1.4750
L19.8040 1.4750
" />
<path d="M19.3040 1.9750
L19.3040 1.4750
" />
<path d="M19.3040 4.0150
L19.8040 4.0150
" />
<path d="M19.3040 4.5150
L19.3040 4.0150
" />
<path d="M19.8040 1.4750
L19.8040 1.9750
" />
<path d="M19.8040 1.9750
L19.3040 1.9750
" />
<path d="M19.8040 4.0150
L19.8040 4.5150
" />
<path d="M19.8040 4.5150
L19.3040 4.5150
" />
<path d="M20.0540 1.2250
L19.0540 1.2250
" />
<path d="M20.0540 1.2250
L20.2530 1.0260
" />
<path d="M20.0540 2.2250
L20.0540 1.2250
" />
<path d="M20.0540 2.2250
L20.2530 2.4240
" />
<path d="M20.0540 3.7650
L19.0540 3.7650
" />
<path d="M20.0540 4.7650
L20.0540 3.7650
" />
<path d="M20.0540 4.7650
L20.2530 4.9650
" />
<path d="M20.2530 1.0260
L20.2530 2.4240
" />
<path d="M20.2530 2.4240
L18.8540 2.4240
" />
<path d="M20.2530 3.5650
L20.0540 3.7650
" />
<path d="M20.2530 3.5650
L20.2530 4.9650
" />
<path d="M20.2530 4.9650
L18.8540 4.9650
" />
<path d="M21.3940 1.0260
L21.5930 1.2250
" />
<path d="M21.3940 1.0260
L22.7940 1.0260
" />
<path d="M21.3940 2.4240
L21.3940 1.0260
" />
<path d="M21.3940 2.4240
L21.5930 2.2250
" />
<path d="M21.3940 3.5650
L21.5930 3.7650
" />
<path d="M21.3940 3.5650
L22.7940 3.5650
" />
<path d="M21.3940 4.9650
L21.3940 3.5650
" />
<path d="M21.5930 1.2250
L21.5930 2.2250
" />
<path d="M21.5930 2.2250
L22.5930 2.2250
" />
<path d="M21.5930 3.7650
L21.5930 4.7650
" />
<path d="M21.5930 4.7650
L21.3940 4.9650
" />
<path d="M21.5930 4.7650
L22.5930 4.7650
" />
<path d="M21.8430 1.4750
L22.3430 1.4750
" />
<path d="M21.8430 1.9750
L21.8430 1.4750
" />
<path d="M21.8430 4.0150
L22.3430 4.0150
" />
<path d="M21.8430 4.5150
L21.8430 4.0150
" />
<path d="M22.3430 1.4750
L22.3430 1.9750
" />
<path d="M22.3430 1.9750
L21.8430 1.9750
" />
<path d="M22.3430 4.0150
L22.3430 4.5150
" />
<path d="M22.3430 4.5150
L21.8430 4.5150
" />
<path d="M22.5930 1.2250
L21.5930 1.2250
" />
<path d="M22.5930 1.2250
L22.7940 1.0260
" />
<path d="M22.5930 2.2250
L22.5930 1.2250
" />
<path d="M22.5930 2.2250
L22.7940 2.4240
" />
<path d="M22.5930 3.7650
L21.5930 3.7650
" />
<path d="M22.5930 4.7650
L22.5930 3.7650
" />
<path d="M22.5930 4.7650
L22.7940 4.9650
" />
<path d="M22.7940 1.0260
L22.7940 2.4240
" />
<path d="M22.7940 2.4240
L21.3940 2.4240
" />
<path d="M22.7940 3.5650
L22.5930 3.7650
" />
<path d="M22.7940 3.5650
L22.7940 4.9650
" />
<path d="M22.7940 4.9650
L21.3940 4.9650
" />
<path d="M23.9340 1.0260
L24.1340 1.2250
" />
<path d="M23.9340 1.0260
L25.3330 1.0260
" />
<path d="M23.9340 2.4240
L23.9340 1.0260
" />
<path d="M23.9340 2.4240
L24.1340 2.2250
" />
<path d="M23.9340 3.5650
L24.1340 3.7650
" />
<path d="M23.9340 3.5650
L25.3330 3.5650
" />
<path d="M23.9340 4.9650
L23.9340 3.5650
" />
<path d="M24.1340 1.2250
L24.1340 2.2250
" />
<path d="M24.1340 2.2250
L25.1340 2.2250
" />
<path d="M24.1340 3.7650
L24.1340 4.7650
" />
<path d="M24.1340 4.7650
L23.9340 4.9650
" />
<path d="M24.1340 4.7650
L25.1340 4.7650
" />
<path d="M24.3840 1.4750
L24.8840 1.4750
" />
<path d="M24.3840 1.9750
L24.3840 1.4750
" />
<path d="M24.3840 4.0150
L24.8840 4.0150
" />
<path d="M24.3840 4.5150
L24.3840 4.0150
" />
<path d="M24.8840 1.4750
L24.8840 1.9750
" />
<path d="M24.8840 1.9750
L24.3840 1.9750
" />
<path d="M24.8840 4.0150
L24.8840 4.5150
" />
<path d="M24.8840 4.5150
L24.3840 4.5150
" />
<path d="M25.1340 1.2250
L24.1340 1.2250
" />
<path d="M25.1340 1.2250
L25.3330 1.0260
" />
<path d="M25.1340 2.2250
L25.1340 1.2250
" />
<path d="M25.1340 2.2250
L25.3330 2.4240
" />
<path d="M25.1340 3.7650
L24.1340 3.7650
" />
<path d="M25.1340 4.7650
L25.1340 3.7650
" />
<path d="M25.1340 4.7650
L25.3330 4.9650
" />
<path d="M25.3330 1.0260
L25.3330 2.4240
" />
<path d="M25.3330 2.4240
L23.9340 2.4240
" />
<path d="M25.3330 3.5650
L25.1340 3.7650
" />
<path d="M25.3330 3.5650
L25.3330 4.9650
" />
<path d="M25.3330 4.9650
L23.9340 4.9650
" />
<path d="M26.4740 1.0260
L27.8740 1.0260
" />
<path d="M26.4740 2.4240
L26.4740 1.0260
" />
<path d="M26.4740 2.4240
L26.6730 2.2250
" />
<path d="M26.4740 3.5650
L27.8740 3.5650
" />
<path d="M26.4740 4.9650
L26.4740 3.5650
" />
<path d="M26.6730 1.2250
L26.4740 1.0260
" />
<path d="M26.6730 1.2250
L26.6730 2.2250
" />
<path d="M26.6730 2.2250
L27.6730 2.2250
" />
<path d="M26.6730 3.7650
L26.4740 3.5650
" />
<path d="M26.6730 3.7650
L26.6730 4.7650
" />
<path d="M26.6730 4.7650
L26.4740 4.9650
" />
<path d="M26.6730 4.7650
L27.6730 4.7650
" />
<path d="M26.9230 1.4750
L27.4230 1.4750
" />
<path d="M26.9230 1.9750
L26.9230 1.4750
" />
<path d="M26.9230 4.0150
L27.4230 4.0150
" />
<path d="M26.9230 4.5150
L26.9230 4.0150
" />
<path d="M27.4230 1.4750
L27.4230 1.9750
" />
<path d="M27.4230 1.9750
L26.9230 1.9750
" />
<path d="M27.4230 4.0150
L27.4230 4.5150
" />
<path d="M27.4230 4.5150
L26.9230 4.5150
" />
<path d="M27.6730 1.2250
L26.6730 1.2250
" />
<path d="M27.6730 1.2250
L27.8740 1.0260
" />
<path d="M27.6730 2.2250
L27.6730 1.2250
" />
<path d="M27.6730 3.7650
L26.6730 3.7650
" />
<path d="M27.6730 4.7650
L27.6730 3.7650
" />
<path d="M27.8740 1.0260
L27.8740 2.4240
" />
<path d="M27.8740 2.4240
L26.4740 2.4240
" />
<path d="M27.8740 2.4240
L27.6730 2.2250
" />
<path d="M27.8740 3.5650
L27.6730 3.7650
" />
<path d="M27.8740 3.5650
L27.8740 4.9650
" />
<path d="M27.8740 4.9650
L26.4740 4.9650
" />
<path d="M27.8740 4.9650
L27.6730 4.7650
" />
<path d="M29.0140 1.0260
L29.2140 1.2250
" />
<path d="M29.0140 1.0260
L30.4130 1.0260
" />
<path d="M29.0140 2.4240
L29.0140 1.0260
" />
<path d="M29.0140 2.4240
L29.2140 2.2250
" />
<path d="M29.0140 3.5650
L29.2140 3.7650
" />
<path d="M29.0140 3.5650
L30.4130 3.5650
" />
<path d="M29.0140 4.9650
L29.0140 3.5650
" />
<path d="M29.2140 1.2250
L29.2140 2.2250
" />
<path d="M29.2140 2.2250
L30.2140 2.2250
" />
<path d="M29.2140 3.7650
L29.2140 4.7650
" />
<path d="M29.2140 4.7650
L29.0140 4.9650
" />
<path d="M29.2140 4.7650
L30.2140 4.7650
" />
<path d="M29.4640 1.4750
L29.9640 1.4750
" />
<path d="M29.4640 1.9750
L29.4640 1.4750
" />
<path d="M29.4640 4.0150
L29.9640 4.0150
" />
<path d="M29.4640 4.5150
L29.4640 4.0150
" />
<path d="M29.9640 1.4750
L29.9640 1.9750
" />
<path d="M29.9640 1.9750
L29.4640 1.9750
" />
<path d="M29.9640 4.0150
L29.9640 4.5150
" />
<path d="M29.9640 4.5150
L29.4640 4.5150
" />
<path d="M30.2140 1.2250
L29.2140 1.2250
" />
<path d="M30.2140 1.2250
L30.4130 1.0260
" />
<path d="M30.2140 2.2250
L30.2140 1.2250
" />
<path d="M30.2140 2.2250
L30.4130 2.4240
" />
<path d="M30.2140 3.7650
L29.2140 3.7650
" />
<path d="M30.2140 4.7650
L30.2140 3.7650
" />
<path d="M30.2140 4.7650
L30.4130 4.9650
" />
<path d="M30.4130 1.0260
L30.4130 2.4240
" />
<path d="M30.4130 2.4240
L29.0140 2.4240
" />
<path d="M30.4130 3.5650
L30.2140 3.7650
" />
<path d="M30.4130 3.5650
L30.4130 4.9650
" />
<path d="M30.4130 4.9650
L29.0140 4.9650
" />
<path d="M31.5540 1.0260
L31.7530 1.2250
" />
<path d="M31.5540 1.0260
L32.9540 1.0260
" />
<path d="M31.5540 2.4240
L31.5540 1.0260
" />
<path d="M31.5540 2.4240
L31.7530 2.2250
" />
<path d="M31.5540 3.5650
L31.7530 3.7650
" />
<path d="M31.5540 3.5650
L32.9540 3.5650
" />
<path d="M31.5540 4.9650
L31.5540 3.5650
" />
<path d="M31.7530 1.2250
L31.7530 2.2250
" />
<path d="M31.7530 2.2250
L32.7530 2.2250
" />
<path d="M31.7530 3.7650
L31.7530 4.7650
" />
<path d="M31.7530 4.7650
L31.5540 4.9650
" />
<path d="M31.7530 4.7650
L32.7530 4.7650
" />
<path d="M32.0030 1.4750
L32.5030 1.4750
" />
<path d="M32.0030 1.9750
L32.0030 1.4750
" />
<path d="M32.0030 4.0150
L32.5030 4.0150
" />
<path d="M32.0030 4.5150
L32.0030 4.0150
" />
<path d="M32.5030 1.4750
L32.5030 1.9750
" />
<path d="M32.5030 1.9750
L32.0030 1.9750
" />
<path d="M32.5030 4.0150
L32.5030 4.5150
" />
<path d="M32.5030 4.5150
L32.0030 4.5150
" />
<path d="M32.7530 1.2250
L31.7530 1.2250
" />
<path d="M32.7530 1.2250
L32.9540 1.0260
" />
<path d="M32.7530 2.2250
L32.7530 1.2250
" />
<path d="M32.7530 2.2250
L32.9540 2.4240
" />
<path d="M32.7530 3.7650
L31.7530 3.7650
" />
<path d="M32.7530 4.7650
L32.7530 3.7650
" />
<path d="M32.7530 4.7650
L32.9540 4.9650
" />
<path d="M32.9540 1.0260
L32.9540 2.4240
" />
<path d="M32.9540 2.4240
L31.5540 2.4240
" />
<path d="M32.9540 3.5650
L32.7530 3.7650
" />
<path d="M32.9540 3.5650
L32.9540 4.9650
" />
<path d="M32.9540 4.9650
L31.5540 4.9650
" />
<path d="M34.0930 1.0260
L34.2940 1.2250
" />
<path d="M34.0930 1.0260
L35.4940 1.0260
" />
<path d="M34.0930 2.4240
L34.0930 1.0260
" />
<path d="M34.0930 2.4240
L34.2940 2.2250
" />
<path d="M34.0930 3.5650
L34.2940 3.7650
" />
<path d="M34.0930 3.5650
L35.4940 3.5650
" />
<path d="M34.0930 4.9650
L34.0930 3.5650
" />
<path d="M34.2940 1.2250
L34.2940 2.2250
" />
<path d="M34.2940 2.2250
L35.2940 2.2250
" />
<path d="M34.2940 3.7650
L34.2940 4.7650
" />
<path d="M34.2940 4.7650
L34.0930 4.9650
" />
<path d="M34.2940 4.7650
L35.2940 4.7650
" />
<path d="M34.5440 1.4750
L35.0440 1.4750
" />
<path d="M34.5440 1.9750
L34.5440 1.4750
" />
<path d="M34.5440 4.0150
L35.0440 4.0150
" />
<path d="M34.5440 4.5150
L34.5440 4.0150
" />
<path d="M35.0440 1.4750
L35.0440 1.9750
" />
<path d="M35.0440 1.9750
L34.5440 1.9750
" />
<path d="M35.0440 4.0150
L35.0440 4.5150
" />
<path d="M35.0440 4.5150
L34.5440 4.5150
" />
<path d="M35.2940 1.2250
L34.2940 1.2250
" />
<path d="M35.2940 1.2250
L35.4940 1.0260
" />
<path d="M35.2940 2.2250
L35.2940 1.2250
" />
<path d="M35.2940 2.2250
L35.4940 2.4240
" />
<path d="M35.2940 3.7650
L34.2940 3.7650
" />
<path d="M35.2940 4.7650
L35.2940 3.7650
" />
<path d="M35.2940 4.7650
L35.4940 4.9650
" />
<path d="M35.4940 1.0260
L35.4940 2.4240
" />
<path d="M35.4940 2.4240
L34.0930 2.4240
" />
<path d="M35.4940 3.5650
L35.2940 3.7650
" />
<path d="M35.4940 3.5650
L35.4940 4.9650
" />
<path d="M35.4940 4.9650
L34.0930 4.9650
" />
<path d="M36.6340 1.0260
L36.8340 1.2250
" />
<path d="M36.6340 1.0260
L38.0330 1.0260
" />
<path d="M36.6340 2.4240
L36.6340 1.0260
" />
<path d="M36.6340 2.4240
L36.8340 2.2250
" />
<path d="M36.6340 3.5650
L36.8340 3.7650
" />
<path d="M36.6340 3.5650
L38.0330 3.5650
" />
<path d="M36.6340 4.9650
L36.6340 3.5650
" />
<path d="M36.8340 1.2250
L36.8340 2.2250
" />
<path d="M36.8340 2.2250
L37.8340 2.2250
" />
<path d="M36.8340 3.7650
L36.8340 4.7650
" />
<path d="M36.8340 4.7650
L36.6340 4.9650
" />
<path d="M36.8340 4.7650
L37.8340 4.7650
" />
<path d="M37.0840 1.4750
L37.5840 1.4750
" />
<path d="M37.0840 1.9750
L37.0840 1.4750
" />
<path d="M37.0840 4.0150
L37.5840 4.0150
" />
<path d="M37.0840 4.5150
L37.0840 4.0150
" />
<path d="M37.5840 1.4750
L37.5840 1.9750
" />
<path d="M37.5840 1.9750
L37.0840 1.9750
" />
<path d="M37.5840 4.0150
L37.5840 4.5150
" />
<path d="M37.5840 4.5150
L37.0840 4.5150
" />
<path d="M37.8340 1.2250
L36.8340 1.2250
" />
<path d="M37.8340 1.2250
L38.0330 1.0260
" />
<path d="M37.8340 2.2250
L37.8340 1.2250
" />
<path d="M37.8340 2.2250
L38.0330 2.4240
" />
<path d="M37.8340 3.7650
L36.8340 3.7650
" />
<path d="M37.8340 4.7650
L37.8340 3.7650
" />
<path d="M37.8340 4.7650
L38.0330 4.9650
" />
<path d="M38.0330 1.0260
L38.0330 2.4240
" />
<path d="M38.0330 2.4240
L36.6340 2.4240
" />
<path d="M38.0330 3.5650
L37.8340 3.7650
" />
<path d="M38.0330 3.5650
L38.0330 4.9650
" />
<path d="M38.0330 4.9650
L36.6340 4.9650
" />
<path d="M39.1740 1.0260
L40.5730 1.0260
" />
<path d="M39.1740 2.4240
L39.1740 1.0260
" />
<path d="M39.1740 2.4240
L39.3730 2.2250
" />
<path d="M39.1740 3.5650
L40.5730 3.5650
" />
<path d="M39.1740 4.9650
L39.1740 3.5650
" />
<path d="M39.3730 1.2250
L39.1740 1.0260
" />
<path d="M39.3730 1.2250
L39.3730 2.2250
" />
<path d="M39.3730 2.2250
L40.3730 2.2250
" />
<path d="M39.3730 3.7650
L39.1740 3.5650
" />
<path d="M39.3730 3.7650
L39.3730 4.7650
" />
<path d="M39.3730 4.7650
L39.1740 4.9650
" />
<path d="M39.3730 4.7650
L40.3730 4.7650
" />
<path d="M39.6230 1.4750
L40.1230 1.4750
" />
<path d="M39.6230 1.9750
L39.6230 1.4750
" />
<path d="M39.6230 4.0150
L40.1230 4.0150
" />
<path d="M39.6230 4.5150
L39.6230 4.0150
" />
<path d="M40.1230 1.4750
L40.1230 1.9750
" />
<path d="M40.1230 1.9750
L39.6230 1.9750
" />
<path d="M40.1230 4.0150
L40.1230 4.5150
" />
<path d="M40.1230 4.5150
L39.6230 4.5150
" />
<path d="M40.3730 1.2250
L39.3730 1.2250
" />
<path d="M40.3730 1.2250
L40.5730 1.0260
" />
<path d="M40.3730 2.2250
L40.3730 1.2250
" />
<path d="M40.3730 3.7650
L39.3730 3.7650
" />
<path d="M40.3730 4.7650
L40.3730 3.7650
" />
<path d="M40.5730 1.0260
L40.5730 2.4240
" />
<path d="M40.5730 2.4240
L39.1740 2.4240
" />
<path d="M40.5730 2.4240
L40.3730 2.2250
" />
<path d="M40.5730 3.5650
L40.3730 3.7650
" />
<path d="M40.5730 3.5650
L40.5730 4.9650
" />
<path d="M40.5730 4.9650
L39.1740 4.9650
" />
<path d="M40.5730 4.9650
L40.3730 4.7650
" />
<path d="M41.7130 1.0260
L41.9130 1.2250
" />
<path d="M41.7130 1.0260
L43.1140 1.0260
" />
<path d="M41.7130 2.4240
L41.7130 1.0260
" />
<path d="M41.7130 2.4240
L41.9130 2.2250
" />
<path d="M41.7130 3.5650
L41.9130 3.7650
" />
<path d="M41.7130 3.5650
L43.1140 3.5650
" />
<path d="M41.7130 4.9650
L41.7130 3.5650
" />
<path d="M41.9130 1.2250
L41.9130 2.2250
" />
<path d="M41.9130 2.2250
L42.9130 2.2250
" />
<path d="M41.9130 3.7650
L41.9130 4.7650
" />
<path d="M41.9130 4.7650
L41.7130 4.9650
" />
<path d="M41.9130 4.7650
L42.9130 4.7650
" />
<path d="M42.1630 1.4750
L42.6630 1.4750
" />
<path d="M42.1630 1.9750
L42.1630 1.4750
" />
<path d="M42.1630 4.0150
L42.6630 4.0150
" />
<path d="M42.1630 4.5150
L42.1630 4.0150
" />
<path d="M42.6630 1.4750
L42.6630 1.9750
" />
<path d="M42.6630 1.9750
L42.1630 1.9750
" />
<path d="M42.6630 4.0150
L42.6630 4.5150
" />
<path d="M42.6630 4.5150
L42.1630 4.5150
" />
<path d="M42.9130 1.2250
L41.9130 1.2250
" />
<path d="M42.9130 1.2250
L43.1140 1.0260
" />
<path d="M42.9130 2.2250
L42.9130 1.2250
" />
<path d="M42.9130 2.2250
L43.1140 2.4240
" />
<path d="M42.9130 3.7650
L41.9130 3.7650
" />
<path d="M42.9130 4.7650
L42.9130 3.7650
" />
<path d="M42.9130 4.7650
L43.1140 4.9650
" />
<path d="M43.1140 1.0260
L43.1140 2.4240
" />
<path d="M43.1140 2.4240
L41.7130 2.4240
" />
<path d="M43.1140 3.5650
L42.9130 3.7650
" />
<path d="M43.1140 3.5650
L43.1140 4.9650
" />
<path d="M43.1140 4.9650
L41.7130 4.9650
" />
<path d="M44.2530 1.0260
L44.4540 1.2250
" />
<path d="M44.2530 1.0260
L45.6540 1.0260
" />
<path d="M44.2530 2.4240
L44.2530 1.0260
" />
<path d="M44.2530 2.4240
L44.4540 2.2250
" />
<path d="M44.2530 3.5650
L44.4540 3.7650
" />
<path d="M44.2530 3.5650
L45.6540 3.5650
" />
<path d="M44.2530 4.9650
L44.2530 3.5650
" />
<path d="M44.4540 1.2250
L44.4540 2.2250
" />
<path d="M44.4540 2.2250
L45.4540 2.2250
" />
<path d="M44.4540 3.7650
L44.4540 4.7650
" />
<path d="M44.4540 4.7650
L44.2530 4.9650
" />
<path d="M44.4540 4.7650
L45.4540 4.7650
" />
<path d="M44.7040 1.4750
L45.2040 1.4750
" />
<path d="M44.7040 1.9750
L44.7040 1.4750
" />
<path d="M44.7040 4.0150
L45.2040 4.0150
" />
<path d="M44.7040 4.5150
L44.7040 4.0150
" />
<path d="M45.2040 1.4750
L45.2040 1.9750
" />
<path d="M45.2040 1.9750
L44.7040 1.9750
" />
<path d="M45.2040 4.0150
L45.2040 4.5150
" />
<path d="M45.2040 4.5150
L44.7040 4.5150
" />
<path d="M45.4540 1.2250
L44.4540 1.2250
" />
<path d="M45.4540 1.2250
L45.6540 1.0260
" />
<path d="M45.4540 2.2250
L45.4540 1.2250
" />
<path d="M45.4540 2.2250
L45.6540 2.4240
" />
<path d="M45.4540 3.7650
L44.4540 3.7650
" />
<path d="M45.4540 4.7650
L45.4540 3.7650
" />
<path d="M45.4540 4.7650
L45.6540 4.9650
" />
<path d="M45.6540 1.0260
L45.6540 2.4240
" />
<path d="M45.6540 2.4240
L44.2530 2.4240
" />
<path d="M45.6540 3.5650
L45.4540 3.7650
" />
<path d="M45.6540 3.5650
L45.6540 4.9650
" />
<path d="M45.6540 4.9650
L44.2530 4.9650
" />
<path d="M46.7940 1.0260
L46.9940 1.2250
" />
<path d="M46.7940 1.0260
L48.1940 1.0260
" />
<path d="M46.7940 2.4240
L46.7940 1.0260
" />
<path d="M46.7940 2.4240
L46.9940 2.2250
" />
<path d="M46.7940 3.5650
L46.9940 3.7650
" />
<path d="M46.7940 3.5650
L48.1940 3.5650
" />
<path d="M46.7940 4.9650
L46.7940 3.5650
" />
<path d="M46.9940 1.2250
L46.9940 2.2250
" />
<path d="M46.9940 2.2250
L47.9940 2.2250
" />
<path d="M46.9940 3.7650
L46.9940 4.7650
" />
<path d="M46.9940 4.7650
L46.7940 4.9650
" />
<path d="M46.9940 4.7650
L47.9940 4.7650
" />
<path d="M47.2440 1.4750
L47.7440 1.4750
" />
<path d="M47.2440 1.9750
L47.2440 1.4750
" />
<path d="M47.2440 4.0150
L47.7440 4.0150
" />
<path d="M47.2440 4.5150
L47.2440 4.0150
" />
<path d="M47.7440 1.4750
L47.7440 1.9750
" />
<path d="M47.7440 1.9750
L47.2440 1.9750
" />
<path d="M47.7440 4.0150
L47.7440 4.5150
" />
<path d="M47.7440 4.5150
L47.2440 4.5150
" />
<path d="M47.9940 1.2250
L46.9940 1.2250
" />
<path d="M47.9940 1.2250
L48.1940 1.0260
" />
<path d="M47.9940 2.2250
L47.9940 1.2250
" />
<path d="M47.9940 2.2250
L48.1940 2.4240
" />
<path d="M47.9940 3.7650
L46.9940 3.7650
" />
<path d="M47.9940 4.7650
L47.9940 3.7650
" />
<path d="M47.9940 4.7650
L48.1940 4.9650
" />
<path d="M48.1940 1.0260
L48.1940 2.4240
" />
<path d="M48.1940 2.4240
L46.7940 2.4240
" />
<path d="M48.1940 3.5650
L47.9940 3.7650
" />
<path d="M48.1940 3.5650
L48.1940 4.9650
" />
<path d="M48.1940 4.9650
L46.7940 4.9650
" />
<path d="M49.3340 1.0260
L49.5330 1.2250
" />
<path d="M49.3340 1.0260
L50.7330 1.0260
" />
<path d="M49.3340 2.4240
L49.3340 1.0260
" />
<path d="M49.3340 2.4240
L49.5330 2.2250
" />
<path d="M49.3340 3.5650
L49.5330 3.7650
" />
<path d="M49.3340 3.5650
L50.7330 3.5650
" />
<path d="M49.3340 4.9650
L49.3340 3.5650
" />
<path d="M49.5330 1.2250
L49.5330 2.2250
" />
<path d="M49.5330 2.2250
L50.5330 2.2250
" />
<path d="M49.5330 3.7650
L49.5330 4.7650
" />
<path d="M49.5330 4.7650
L49.3340 4.9650
" />
<path d="M49.5330 4.7650
L50.5330 4.7650
" />
<path d="M49.7830 1.4750
L50.2830 1.4750
" />
<path d="M49.7830 1.9750
L49.7830 1.4750
" />
<path d="M49.7830 4.0150
L50.2830 4.0150
" />
<path d="M49.7830 4.5150
L49.7830 4.0150
" />
<path d="M50.2830 1.4750
L50.2830 1.9750
" />
<path d="M50.2830 1.9750
L49.7830 1.9750
" />
<path d="M50.2830 4.0150
L50.2830 4.5150
" />
<path d="M50.2830 4.5150
L49.7830 4.5150
" />
<path d="M50.5330 1.2250
L49.5330 1.2250
" />
<path d="M50.5330 1.2250
L50.7330 1.0260
" />
<path d="M50.5330 2.2250
L50.5330 1.2250
" />
<path d="M50.5330 2.2250
L50.7330 2.4240
" />
<path d="M50.5330 3.7650
L49.5330 3.7650
" />
<path d="M50.5330 4.7650
L50.5330 3.7650
" />
<path d="M50.5330 4.7650
L50.7330 4.9650
" />
<path d="M50.7330 1.0260
L50.7330 2.4240
" />
<path d="M50.7330 2.4240
L49.3340 2.4240
" />
<path d="M50.7330 3.5650
L50.5330 3.7650
" />
<path d="M50.7330 3.5650
L50.7330 4.9650
" />
<path d="M50.7330 4.9650
L49.3340 4.9650
" />
<path d="M51.8850 1.0250
L52.0860 1.2240
" />
<path d="M51.8850 1.0250
L53.2860 1.0250
" />
<path d="M51.8850 2.4230
L51.8850 1.0250
" />
<path d="M51.8850 2.4230
L52.0860 2.2240
" />
<path d="M51.8850 3.5640
L52.0860 3.7640
" />
<path d="M51.8850 3.5640
L53.2860 3.5640
" />
<path d="M51.8850 4.9640
L51.8850 3.5640
" />
<path d="M52.0860 1.2240
L52.0860 2.2240
" />
<path d="M52.0860 2.2240
L53.0860 2.2240
" />
<path d="M52.0860 3.7640
L52.0860 4.7640
" />
<path d="M52.0860 4.7640
L51.8850 4.9640
" />
<path d="M52.0860 4.7640
L53.0860 4.7640
" />
<path d="M52.3360 1.4740
L52.8360 1.4740
" />
<path d="M52.3360 1.9740
L52.3360 1.4740
" />
<path d="M52.3360 4.0140
L52.8360 4.0140
" />
<path d="M52.3360 4.5140
L52.3360 4.0140
" />
<path d="M52.8360 1.4740
L52.8360 1.9740
" />
<path d="M52.8360 1.9740
L52.3360 1.9740
" />
<path d="M52.8360 4.0140
L52.8360 4.5140
" />
<path d="M52.8360 4.5140
L52.3360 4.5140
" />
<path d="M53.0860 1.2240
L52.0860 1.2240
" />
<path d="M53.0860 1.2240
L53.2860 1.0250
" />
<path d="M53.0860 2.2240
L53.0860 1.2240
" />
<path d="M53.0860 2.2240
L53.2860 2.4230
" />
<path d="M53.0860 3.7640
L52.0860 3.7640
" />
<path d="M53.0860 4.7640
L53.0860 3.7640
" />
<path d="M53.0860 4.7640
L53.2860 4.9640
" />
<path d="M53.2860 1.0250
L53.2860 2.4230
" />
<path d="M53.2860 2.4230
L51.8850 2.4230
" />
<path d="M53.2860 3.5640
L53.0860 3.7640
" />
<path d="M53.2860 3.5640
L53.2860 4.9640
" />
<path d="M53.2860 4.9640
L51.8850 4.9640
" />
<path d="M54.4260 1.0250
L54.6260 1.2240
" />
<path d="M54.4260 1.0250
L55.8260 1.0250
" />
<path d="M54.4260 2.4230
L54.4260 1.0250
" />
<path d="M54.4260 2.4230
L54.6260 2.2240
" />
<path d="M54.4260 3.5640
L54.6260 3.7640
" />
<path d="M54.4260 3.5640
L55.8260 3.5640
" />
<path d="M54.4260 4.9640
L54.4260 3.5640
" />
<path d="M54.6260 1.2240
L54.6260 2.2240
" />
<path d="M54.6260 2.2240
L55.6260 2.2240
" />
<path d="M54.6260 3.7640
L54.6260 4.7640
" />
<path d="M54.6260 4.7640
L54.4260 4.9640
" />
<path d="M54.6260 4.7640
L55.6260 4.7640
" />
<path d="M54.8760 1.4740
L55.3760 1.4740
" />
<path d="M54.8760 1.9740
L54.8760 1.4740
" />
<path d="M54.8760 4.0140
L55.3760 4.0140
" />
<path d="M54.8760 4.5140
L54.8760 4.0140
" />
<path d="M55.3760 1.4740
L55.3760 1.9740
" />
<path d="M55.3760 1.9740
L54.8760 1.9740
" />
<path d="M55.3760 4.0140
L55.3760 4.5140
" />
<path d="M55.3760 4.5140
L54.8760 4.5140
" />
<path d="M55.6260 1.2240
L54.6260 1.2240
" />
<path d="M55.6260 1.2240
L55.8260 1.0250
" />
<path d="M55.6260 2.2240
L55.6260 1.2240
" />
<path d="M55.6260 2.2240
L55.8260 2.4230
" />
<path d="M55.6260 3.7640
L54.6260 3.7640
" />
<path d="M55.6260 4.7640
L55.6260 3.7640
" />
<path d="M55.6260 4.7640
L55.8260 4.9640
" />
<path d="M55.8260 1.0250
L55.8260 2.4230
" />
<path d="M55.8260 2.4230
L54.4260 2.4230
" />
<path d="M55.8260 3.5640
L55.6260 3.7640
" />
<path d="M55.8260 3.5640
L55.8260 4.9640
" />
<path d="M55.8260 4.9640
L54.4260 4.9640
" />
<path d="M56.9660 1.0250
L57.1650 1.2240
" />
<path d="M56.9660 1.0250
L58.3650 1.0250
" />
<path d="M56.9660 2.4230
L56.9660 1.0250
" />
<path d="M56.9660 2.4230
L57.1650 2.2240
" />
<path d="M56.9660 3.5640
L57.1650 3.7640
" />
<path d="M56.9660 3.5640
L58.3650 3.5640
" />
<path d="M56.9660 4.9640
L56.9660 3.5640
" />
<path d="M57.1650 1.2240
L57.1650 2.2240
" />
<path d="M57.1650 2.2240
L58.1650 2.2240
" />
<path d="M57.1650 3.7640
L57.1650 4.7640
" />
<path d="M57.1650 4.7640
L56.9660 4.9640
" />
<path d="M57.1650 4.7640
L58.1650 4.7640
" />
<path d="M57.4150 1.4740
L57.9150 1.4740
" />
<path d="M57.4150 1.9740
L57.4150 1.4740
" />
<path d="M57.4150 4.0140
L57.9150 4.0140
" />
<path d="M57.4150 4.5140
L57.4150 4.0140
" />
<path d="M57.9150 1.4740
L57.9150 1.9740
" />
<path d="M57.9150 1.9740
L57.4150 1.9740
" />
<path d="M57.9150 4.0140
L57.9150 4.5140
" />
<path d="M57.9150 4.5140
L57.4150 4.5140
" />
<path d="M58.1650 1.2240
L57.1650 1.2240
" />
<path d="M58.1650 1.2240
L58.3650 1.0250
" />
<path d="M58.1650 2.2240
L58.1650 1.2240
" />
<path d="M58.1650 2.2240
L58.3650 2.4230
" />
<path d="M58.1650 3.7640
L57.1650 3.7640
" />
<path d="M58.1650 4.7640
L58.1650 3.7640
" />
<path d="M58.1650 4.7640
L58.3650 4.9640
" />
<path d="M58.3650 1.0250
L58.3650 2.4230
" />
<path d="M58.3650 2.4230
L56.9660 2.4230
" />
<path d="M58.3650 3.5640
L58.1650 3.7640
" />
<path d="M58.3650 3.5640
L58.3650 4.9640
" />
<path d="M58.3650 4.9640
L56.9660 4.9640
" />
<path d="M58.9350 0.4550
L0.5040 0.4550
" />
<path d="M58.9350 5.5340
L58.9350 0.4540
" />
</g> 
</svg>
