<?xml version="1.0" standalone="no"?>
 <!DOCTYPE svg PUBLIC "-//W3C//DTD SVG 1.1//EN" 
 "http://www.w3.org/Graphics/SVG/1.1/DTD/svg11.dtd"> 
<svg
  xmlns:svg="http://www.w3.org/2000/svg"
  xmlns="http://www.w3.org/2000/svg"
  xmlns:xlink="http://www.w3.org/1999/xlink"
  version="1.1"
  width="23.3426mm" height="27.3812mm" viewBox="0.0000 0.0000 23.3426 27.3812">
<title>SVG Image created as outline.svg date 2025/06/16 09:17:38 </title>
  <desc>Image generated by PCBNEW </desc>
<g style="fill:#000000; fill-opacity:1.0000;stroke:#000000; stroke-opacity:1.0000;
stroke-linecap:round; stroke-linejoin:round;"
 transform="translate(0 0) scale(1 1)">
</g>
<g style="fill:none; 
stroke:#000000; stroke-width:0.0200; stroke-opacity:1; 
stroke-linecap:round; stroke-linejoin:round;">
<path d="M1.0450 1.0350
L22.3450 1.0350
" />
<path d="M1.0450 24.0350
L1.0450 1.0350
" />
<path d="M8.7660 26.0200
L8.7660 26.0350
" />
</g>
<g style="fill:#000000; fill-opacity:1.0000; stroke:none;">
<circle cx="8.7660" cy="26.0350" r="0.0100" /> 
</g>
<g style="fill:none; 
stroke:#000000; stroke-width:0.0200; stroke-opacity:1; 
stroke-linecap:round; stroke-linejoin:round;">
<path d="M8.7660 26.0350
L8.7660 26.0500
" />
<path d="M8.7660 26.0500
L8.7670 26.0650
" />
<path d="M8.7670 26.0050
L8.7660 26.0200
" />
<path d="M8.7670 26.0650
L8.7690 26.0800
" />
<path d="M8.7690 25.9900
L8.7670 26.0050
" />
<path d="M8.7690 26.0800
L8.7720 26.0950
" />
<path d="M8.7720 25.9750
L8.7690 25.9900
" />
<path d="M8.7720 26.0950
L8.7750 26.1090
" />
<path d="M8.7750 25.9610
L8.7720 25.9750
" />
<path d="M8.7750 26.1090
L8.7790 26.1240
" />
<path d="M8.7790 25.9460
L8.7750 25.9610
" />
<path d="M8.7790 26.1240
L8.7840 26.1380
" />
<path d="M8.7840 25.9320
L8.7790 25.9460
" />
<path d="M8.7840 26.1380
L8.7890 26.1510
" />
<path d="M8.7890 25.9190
L8.7840 25.9320
" />
<path d="M8.7890 26.1510
L8.7950 26.1650
" />
<path d="M8.7950 25.9050
L8.7890 25.9190
" />
<path d="M8.7950 26.1650
L8.8030 26.1770
" />
<path d="M8.8030 25.8930
L8.7950 25.9050
" />
<path d="M8.8030 26.1770
L8.8090 26.1900
" />
<path d="M8.8090 25.8800
L8.8030 25.8930
" />
<path d="M8.8090 26.1900
L8.8170 26.2020
" />
<path d="M8.8170 25.8680
L8.8090 25.8800
" />
<path d="M8.8170 26.2020
L8.8250 26.2140
" />
<path d="M8.8250 25.8560
L8.8170 25.8680
" />
<path d="M8.8250 26.2140
L8.8350 26.2250
" />
<path d="M8.8350 25.8450
L8.8250 25.8560
" />
<path d="M8.8350 26.2250
L8.8430 26.2360
" />
<path d="M8.8430 25.8340
L8.8350 25.8450
" />
<path d="M8.8430 26.2360
L8.8530 26.2470
" />
<path d="M8.8530 25.8230
L8.8430 25.8340
" />
<path d="M8.8530 26.2470
L8.8640 26.2570
" />
<path d="M8.8640 25.8130
L8.8530 25.8230
" />
<path d="M8.8640 26.2570
L8.8750 26.2660
" />
<path d="M8.8750 25.8040
L8.8640 25.8130
" />
<path d="M8.8750 26.2660
L8.8860 26.2750
" />
<path d="M8.8860 25.7950
L8.8750 25.8040
" />
<path d="M8.8860 26.2750
L8.8980 26.2830
" />
<path d="M8.8980 25.7870
L8.8860 25.7950
" />
<path d="M8.8980 26.2830
L8.9100 26.2910
" />
<path d="M8.9100 25.7790
L8.8980 25.7870
" />
<path d="M8.9100 26.2910
L8.9230 26.2980
" />
<path d="M8.9230 25.7720
L8.9100 25.7790
" />
<path d="M8.9230 26.2980
L8.9360 26.3050
" />
<path d="M8.9360 25.7650
L8.9230 25.7720
" />
<path d="M8.9360 26.3050
L8.9490 26.3110
" />
<path d="M8.9490 25.7590
L8.9360 25.7650
" />
<path d="M8.9490 26.3110
L8.9620 26.3160
" />
<path d="M8.9620 25.7540
L8.9490 25.7590
" />
<path d="M8.9620 26.3160
L8.9760 26.3210
" />
<path d="M8.9760 25.7490
L8.9620 25.7540
" />
<path d="M8.9760 26.3210
L8.9910 26.3250
" />
<path d="M8.9910 25.7450
L8.9760 25.7490
" />
<path d="M8.9910 26.3250
L9.0050 26.3280
" />
<path d="M9.0050 25.7420
L8.9910 25.7450
" />
<path d="M9.0050 26.3280
L9.0210 26.3310
" />
<path d="M9.0210 25.7390
L9.0050 25.7420
" />
<path d="M9.0210 26.3310
L9.0350 26.3330
" />
<path d="M9.0350 25.7370
L9.0210 25.7390
" />
<path d="M9.0350 26.3330
L9.0500 26.3340
" />
<path d="M9.0500 25.7360
L9.0350 25.7370
" />
<path d="M9.0500 26.3340
L9.0650 26.3350
" />
<path d="M9.0650 25.7350
L9.0500 25.7360
" />
</g>
<g style="fill:#000000; fill-opacity:1.0000; stroke:none;">
<circle cx="9.0650" cy="25.7350" r="0.0100" /> 
<circle cx="9.0650" cy="26.3350" r="0.0100" /> 
</g>
<g style="fill:none; 
stroke:#000000; stroke-width:0.0200; stroke-opacity:1; 
stroke-linecap:round; stroke-linejoin:round;">
<path d="M9.0650 26.3350
L9.0810 26.3340
" />
<path d="M9.0810 25.7360
L9.0650 25.7350
" />
<path d="M9.0810 26.3340
L9.0950 26.3330
" />
<path d="M9.0950 25.7370
L9.0810 25.7360
" />
<path d="M9.0950 26.3330
L9.1100 26.3310
" />
<path d="M9.1100 25.7390
L9.0950 25.7370
" />
<path d="M9.1100 26.3310
L9.1250 26.3280
" />
<path d="M9.1250 25.7420
L9.1100 25.7390
" />
<path d="M9.1250 26.3280
L9.1390 26.3250
" />
<path d="M9.1390 25.7450
L9.1250 25.7420
" />
<path d="M9.1390 26.3250
L9.1540 26.3210
" />
<path d="M9.1540 25.7490
L9.1390 25.7450
" />
<path d="M9.1540 26.3210
L9.1690 26.3160
" />
<path d="M9.1690 25.7540
L9.1540 25.7490
" />
<path d="M9.1690 26.3160
L9.1810 26.3110
" />
<path d="M9.1810 25.7590
L9.1690 25.7540
" />
<path d="M9.1810 26.3110
L9.1950 26.3050
" />
<path d="M9.1950 25.7650
L9.1810 25.7590
" />
<path d="M9.1950 26.3050
L9.2070 26.2980
" />
<path d="M9.2070 25.7720
L9.1950 25.7650
" />
<path d="M9.2070 26.2980
L9.2200 26.2910
" />
<path d="M9.2200 25.7790
L9.2070 25.7720
" />
<path d="M9.2200 26.2910
L9.2330 26.2830
" />
<path d="M9.2330 25.7870
L9.2200 25.7790
" />
<path d="M9.2330 26.2830
L9.2440 26.2750
" />
<path d="M9.2440 25.7950
L9.2330 25.7870
" />
<path d="M9.2440 26.2750
L9.2550 26.2660
" />
<path d="M9.2550 25.8040
L9.2440 25.7950
" />
<path d="M9.2550 26.2660
L9.2660 26.2570
" />
<path d="M9.2660 25.8130
L9.2550 25.8040
" />
<path d="M9.2660 26.2570
L9.2780 26.2470
" />
<path d="M9.2780 25.8230
L9.2660 25.8130
" />
<path d="M9.2780 26.2470
L9.2870 26.2360
" />
<path d="M9.2870 25.8340
L9.2780 25.8230
" />
<path d="M9.2870 26.2360
L9.2960 26.2250
" />
<path d="M9.2960 25.8450
L9.2870 25.8340
" />
<path d="M9.2960 26.2250
L9.3050 26.2140
" />
<path d="M9.3050 25.8560
L9.2960 25.8450
" />
<path d="M9.3050 26.2140
L9.3130 26.2020
" />
<path d="M9.3130 25.8680
L9.3050 25.8560
" />
<path d="M9.3130 26.2020
L9.3210 26.1900
" />
<path d="M9.3210 25.8800
L9.3130 25.8680
" />
<path d="M9.3210 26.1900
L9.3280 26.1770
" />
<path d="M9.3280 25.8930
L9.3210 25.8800
" />
<path d="M9.3280 26.1770
L9.3350 26.1650
" />
<path d="M9.3350 25.9050
L9.3280 25.8930
" />
<path d="M9.3350 26.1650
L9.3420 26.1510
" />
<path d="M9.3420 25.9190
L9.3350 25.9050
" />
<path d="M9.3420 26.1510
L9.3470 26.1380
" />
<path d="M9.3470 25.9320
L9.3420 25.9190
" />
<path d="M9.3470 26.1380
L9.3510 26.1240
" />
<path d="M9.3510 25.9460
L9.3470 25.9320
" />
<path d="M9.3510 26.1240
L9.3550 26.1090
" />
<path d="M9.3550 25.9610
L9.3510 25.9460
" />
<path d="M9.3550 26.1090
L9.3580 26.0950
" />
<path d="M9.3580 25.9750
L9.3550 25.9610
" />
<path d="M9.3580 26.0950
L9.3610 26.0800
" />
<path d="M9.3610 25.9900
L9.3580 25.9750
" />
<path d="M9.3610 26.0800
L9.3630 26.0650
" />
<path d="M9.3630 26.0050
L9.3610 25.9900
" />
<path d="M9.3630 26.0650
L9.3640 26.0500
" />
<path d="M9.3640 26.0200
L9.3630 26.0050
" />
<path d="M9.3640 26.0350
L9.3640 26.0200
" />
</g>
<g style="fill:#000000; fill-opacity:1.0000; stroke:none;">
<circle cx="9.3640" cy="26.0350" r="0.0100" /> 
<circle cx="9.3640" cy="26.0350" r="0.0100" /> 
</g>
<g style="fill:none; 
stroke:#000000; stroke-width:0.0200; stroke-opacity:1; 
stroke-linecap:round; stroke-linejoin:round;">
<path d="M9.3640 26.0500
L9.3640 26.0350
" />
<path d="M14.0650 26.0200
L14.0650 26.0350
" />
</g>
<g style="fill:#000000; fill-opacity:1.0000; stroke:none;">
<circle cx="14.0650" cy="26.0350" r="0.0100" /> 
</g>
<g style="fill:none; 
stroke:#000000; stroke-width:0.0200; stroke-opacity:1; 
stroke-linecap:round; stroke-linejoin:round;">
<path d="M14.0650 26.0350
L14.0650 26.0500
" />
<path d="M14.0650 26.0500
L14.0670 26.0650
" />
<path d="M14.0670 26.0050
L14.0650 26.0200
" />
<path d="M14.0670 26.0650
L14.0680 26.0800
" />
<path d="M14.0680 25.9900
L14.0670 26.0050
" />
<path d="M14.0680 26.0800
L14.0720 26.0950
" />
<path d="M14.0720 25.9750
L14.0680 25.9900
" />
<path d="M14.0720 26.0950
L14.0750 26.1090
" />
<path d="M14.0750 25.9610
L14.0720 25.9750
" />
<path d="M14.0750 26.1090
L14.0780 26.1240
" />
<path d="M14.0780 25.9460
L14.0750 25.9610
" />
<path d="M14.0780 26.1240
L14.0840 26.1380
" />
<path d="M14.0840 25.9320
L14.0780 25.9460
" />
<path d="M14.0840 26.1380
L14.0890 26.1510
" />
<path d="M14.0890 25.9190
L14.0840 25.9320
" />
<path d="M14.0890 26.1510
L14.0940 26.1650
" />
<path d="M14.0940 25.9050
L14.0890 25.9190
" />
<path d="M14.0940 26.1650
L14.1020 26.1770
" />
<path d="M14.1020 25.8930
L14.0940 25.9050
" />
<path d="M14.1020 26.1770
L14.1080 26.1900
" />
<path d="M14.1080 25.8800
L14.1020 25.8930
" />
<path d="M14.1080 26.1900
L14.1160 26.2020
" />
<path d="M14.1160 25.8680
L14.1080 25.8800
" />
<path d="M14.1160 26.2020
L14.1240 26.2140
" />
<path d="M14.1240 25.8560
L14.1160 25.8680
" />
<path d="M14.1240 26.2140
L14.1340 26.2250
" />
<path d="M14.1340 25.8450
L14.1240 25.8560
" />
<path d="M14.1340 26.2250
L14.1420 26.2360
" />
<path d="M14.1420 25.8340
L14.1340 25.8450
" />
<path d="M14.1420 26.2360
L14.1530 26.2470
" />
<path d="M14.1530 25.8230
L14.1420 25.8340
" />
<path d="M14.1530 26.2470
L14.1640 26.2570
" />
<path d="M14.1640 25.8130
L14.1530 25.8230
" />
<path d="M14.1640 26.2570
L14.1740 26.2660
" />
<path d="M14.1740 25.8040
L14.1640 25.8130
" />
<path d="M14.1740 26.2660
L14.1850 26.2750
" />
<path d="M14.1850 25.7950
L14.1740 25.8040
" />
<path d="M14.1850 26.2750
L14.1980 26.2830
" />
<path d="M14.1980 25.7870
L14.1850 25.7950
" />
<path d="M14.1980 26.2830
L14.2090 26.2910
" />
<path d="M14.2090 25.7790
L14.1980 25.7870
" />
<path d="M14.2090 26.2910
L14.2220 26.2980
" />
<path d="M14.2220 25.7720
L14.2090 25.7790
" />
<path d="M14.2220 26.2980
L14.2350 26.3050
" />
<path d="M14.2350 25.7650
L14.2220 25.7720
" />
<path d="M14.2350 26.3050
L14.2490 26.3110
" />
<path d="M14.2490 25.7590
L14.2350 25.7650
" />
<path d="M14.2490 26.3110
L14.2620 26.3160
" />
<path d="M14.2620 25.7540
L14.2490 25.7590
" />
<path d="M14.2620 26.3160
L14.2750 26.3210
" />
<path d="M14.2750 25.7490
L14.2620 25.7540
" />
<path d="M14.2750 26.3210
L14.2910 26.3250
" />
<path d="M14.2910 25.7450
L14.2750 25.7490
" />
<path d="M14.2910 26.3250
L14.3050 26.3280
" />
<path d="M14.3050 25.7420
L14.2910 25.7450
" />
<path d="M14.3050 26.3280
L14.3200 26.3310
" />
<path d="M14.3200 25.7390
L14.3050 25.7420
" />
<path d="M14.3200 26.3310
L14.3340 26.3330
" />
<path d="M14.3340 25.7370
L14.3200 25.7390
" />
<path d="M14.3340 26.3330
L14.3500 26.3340
" />
<path d="M14.3500 25.7360
L14.3340 25.7370
" />
<path d="M14.3500 26.3340
L14.3650 26.3350
" />
<path d="M14.3650 25.7350
L14.3500 25.7360
" />
</g>
<g style="fill:#000000; fill-opacity:1.0000; stroke:none;">
<circle cx="14.3650" cy="25.7350" r="0.0100" /> 
<circle cx="14.3650" cy="26.3350" r="0.0100" /> 
</g>
<g style="fill:none; 
stroke:#000000; stroke-width:0.0200; stroke-opacity:1; 
stroke-linecap:round; stroke-linejoin:round;">
<path d="M14.3650 26.3350
L14.3790 26.3340
" />
<path d="M14.3790 25.7360
L14.3650 25.7350
" />
<path d="M14.3790 26.3340
L14.3950 26.3330
" />
<path d="M14.3950 25.7370
L14.3790 25.7360
" />
<path d="M14.3950 26.3330
L14.4100 26.3310
" />
<path d="M14.4100 25.7390
L14.3950 25.7370
" />
<path d="M14.4100 26.3310
L14.4240 26.3280
" />
<path d="M14.4240 25.7420
L14.4100 25.7390
" />
<path d="M14.4240 26.3280
L14.4390 26.3250
" />
<path d="M14.4390 25.7450
L14.4240 25.7420
" />
<path d="M14.4390 26.3250
L14.4540 26.3210
" />
<path d="M14.4540 25.7490
L14.4390 25.7450
" />
<path d="M14.4540 26.3210
L14.4670 26.3160
" />
<path d="M14.4670 25.7540
L14.4540 25.7490
" />
<path d="M14.4670 26.3160
L14.4800 26.3110
" />
<path d="M14.4800 25.7590
L14.4670 25.7540
" />
<path d="M14.4800 26.3110
L14.4950 26.3050
" />
<path d="M14.4950 25.7650
L14.4800 25.7590
" />
<path d="M14.4950 26.3050
L14.5070 26.2980
" />
<path d="M14.5070 25.7720
L14.4950 25.7650
" />
<path d="M14.5070 26.2980
L14.5200 26.2910
" />
<path d="M14.5200 25.7790
L14.5070 25.7720
" />
<path d="M14.5200 26.2910
L14.5310 26.2830
" />
<path d="M14.5310 25.7870
L14.5200 25.7790
" />
<path d="M14.5310 26.2830
L14.5440 26.2750
" />
<path d="M14.5440 25.7950
L14.5310 25.7870
" />
<path d="M14.5440 26.2750
L14.5550 26.2660
" />
<path d="M14.5550 25.8040
L14.5440 25.7950
" />
<path d="M14.5550 26.2660
L14.5650 26.2570
" />
<path d="M14.5650 25.8130
L14.5550 25.8040
" />
<path d="M14.5650 26.2570
L14.5760 26.2470
" />
<path d="M14.5760 25.8230
L14.5650 25.8130
" />
<path d="M14.5760 26.2470
L14.5870 26.2360
" />
<path d="M14.5870 25.8340
L14.5760 25.8230
" />
<path d="M14.5870 26.2360
L14.5960 26.2250
" />
<path d="M14.5960 25.8450
L14.5870 25.8340
" />
<path d="M14.5960 26.2250
L14.6050 26.2140
" />
<path d="M14.6050 25.8560
L14.5960 25.8450
" />
<path d="M14.6050 26.2140
L14.6130 26.2020
" />
<path d="M14.6130 25.8680
L14.6050 25.8560
" />
<path d="M14.6130 26.2020
L14.6210 26.1900
" />
<path d="M14.6210 25.8800
L14.6130 25.8680
" />
<path d="M14.6210 26.1900
L14.6280 26.1770
" />
<path d="M14.6280 25.8930
L14.6210 25.8800
" />
<path d="M14.6280 26.1770
L14.6350 26.1650
" />
<path d="M14.6350 25.9050
L14.6280 25.8930
" />
<path d="M14.6350 26.1650
L14.6400 26.1510
" />
<path d="M14.6400 25.9190
L14.6350 25.9050
" />
<path d="M14.6400 26.1510
L14.6450 26.1380
" />
<path d="M14.6450 25.9320
L14.6400 25.9190
" />
<path d="M14.6450 26.1380
L14.6510 26.1240
" />
<path d="M14.6510 25.9460
L14.6450 25.9320
" />
<path d="M14.6510 26.1240
L14.6550 26.1090
" />
<path d="M14.6550 25.9610
L14.6510 25.9460
" />
<path d="M14.6550 26.1090
L14.6580 26.0950
" />
<path d="M14.6580 25.9750
L14.6550 25.9610
" />
<path d="M14.6580 26.0950
L14.6610 26.0800
" />
<path d="M14.6610 25.9900
L14.6580 25.9750
" />
<path d="M14.6610 26.0800
L14.6630 26.0650
" />
<path d="M14.6630 26.0050
L14.6610 25.9900
" />
<path d="M14.6630 26.0650
L14.6640 26.0500
" />
<path d="M14.6640 26.0200
L14.6630 26.0050
" />
<path d="M14.6640 26.0350
L14.6640 26.0200
" />
</g>
<g style="fill:#000000; fill-opacity:1.0000; stroke:none;">
<circle cx="14.6640" cy="26.0350" r="0.0100" /> 
<circle cx="14.6640" cy="26.0350" r="0.0100" /> 
</g>
<g style="fill:none; 
stroke:#000000; stroke-width:0.0200; stroke-opacity:1; 
stroke-linecap:round; stroke-linejoin:round;">
<path d="M14.6640 26.0500
L14.6640 26.0350
" />
<path d="M22.3450 1.0350
L22.3450 24.0350
" />
<path d="M22.3450 24.0350
L1.0450 24.0350
" />
</g> 
</svg>
