<?xml version="1.0" standalone="no"?>
 <!DOCTYPE svg PUBLIC "-//W3C//DTD SVG 1.1//EN" 
 "http://www.w3.org/Graphics/SVG/1.1/DTD/svg11.dtd"> 
<svg
  xmlns:svg="http://www.w3.org/2000/svg"
  xmlns="http://www.w3.org/2000/svg"
  xmlns:xlink="http://www.w3.org/1999/xlink"
  version="1.1"
  width="13.8684mm" height="5.7404mm" viewBox="0.0000 0.0000 13.8684 5.7404">
<title>SVG Image created as outline.svg date 2025/04/04 10:06:28 </title>
  <desc>Image generated by PCBNEW </desc>
<g style="fill:#000000; fill-opacity:1.0000;stroke:#000000; stroke-opacity:1.0000;
stroke-linecap:round; stroke-linejoin:round;"
 transform="translate(0 0) scale(1 1)">
</g>
<g style="fill:none; 
stroke:#000000; stroke-width:0.0200; stroke-opacity:1; 
stroke-linecap:round; stroke-linejoin:round;">
<path d="M0.4200 0.8600
L1.7210 0.8600
" />
<path d="M0.4200 1.9750
L0.4200 0.8600
" />
<path d="M0.4200 3.7750
L0.5700 3.7750
" />
<path d="M0.4200 4.8900
L0.4200 3.7750
" />
<path d="M0.5700 1.6110
L0.5700 4.1390
" />
<path d="M0.5700 1.9750
L0.4200 1.9750
" />
<path d="M0.5700 4.1390
L0.5710 4.1470
" />
<path d="M0.5710 1.5960
L0.5710 1.6030
" />
<path d="M0.5710 1.6030
L0.5700 1.6110
" />
<path d="M0.5710 4.1470
L0.5710 4.1540
" />
<path d="M0.5710 4.1540
L0.5720 4.1620
" />
<path d="M0.5720 1.5880
L0.5710 1.5960
" />
<path d="M0.5720 4.1620
L0.5730 4.1690
" />
<path d="M0.5730 1.5810
L0.5720 1.5880
" />
<path d="M0.5730 4.1690
L0.5750 4.1760
" />
<path d="M0.5750 1.5740
L0.5730 1.5810
" />
<path d="M0.5750 4.1760
L0.5770 4.1830
" />
<path d="M0.5770 1.5670
L0.5750 1.5740
" />
<path d="M0.5770 4.1830
L0.5790 4.1900
" />
<path d="M0.5790 1.5600
L0.5770 1.5670
" />
<path d="M0.5790 4.1900
L0.5820 4.1970
" />
<path d="M0.5820 1.5530
L0.5790 1.5600
" />
<path d="M0.5820 4.1970
L0.5850 4.2040
" />
<path d="M0.5850 1.5460
L0.5820 1.5530
" />
<path d="M0.5850 4.2040
L0.5880 4.2100
" />
<path d="M0.5880 1.5400
L0.5850 1.5460
" />
<path d="M0.5880 4.2100
L0.5920 4.2170
" />
<path d="M0.5920 1.5330
L0.5880 1.5400
" />
<path d="M0.5920 4.2170
L0.5960 4.2230
" />
<path d="M0.5960 1.5270
L0.5920 1.5330
" />
<path d="M0.5960 4.2230
L0.6000 4.2290
" />
<path d="M0.6000 1.5210
L0.5960 1.5270
" />
<path d="M0.6000 4.2290
L0.6040 4.2350
" />
<path d="M0.6040 1.5150
L0.6000 1.5210
" />
<path d="M0.6040 4.2350
L0.6090 4.2400
" />
<path d="M0.6090 1.5100
L0.6040 1.5150
" />
<path d="M0.6090 4.2400
L0.6140 4.2460
" />
<path d="M0.6140 1.5040
L0.6090 1.5100
" />
</g>
<g style="fill:#000000; fill-opacity:1.0000; stroke:none;">
<circle cx="0.6140" cy="1.5040" r="0.0100" /> 
<circle cx="0.6140" cy="4.2460" r="0.0100" /> 
</g>
<g style="fill:none; 
stroke:#000000; stroke-width:0.0200; stroke-opacity:1; 
stroke-linecap:round; stroke-linejoin:round;">
<path d="M0.6140 4.2460
L0.6200 4.2510
" />
<path d="M0.6200 1.4990
L0.6140 1.5040
" />
<path d="M0.6200 4.2510
L0.6250 4.2560
" />
<path d="M0.6250 1.4940
L0.6200 1.4990
" />
<path d="M0.6250 4.2560
L0.6310 4.2600
" />
<path d="M0.6310 1.4900
L0.6250 1.4940
" />
<path d="M0.6310 4.2600
L0.6370 4.2640
" />
<path d="M0.6370 1.4860
L0.6310 1.4900
" />
<path d="M0.6370 4.2640
L0.6430 4.2680
" />
<path d="M0.6430 1.4820
L0.6370 1.4860
" />
<path d="M0.6430 4.2680
L0.6500 4.2720
" />
<path d="M0.6500 1.4780
L0.6430 1.4820
" />
<path d="M0.6500 4.2720
L0.6560 4.2750
" />
<path d="M0.6560 1.4750
L0.6500 1.4780
" />
<path d="M0.6560 4.2750
L0.6630 4.2780
" />
<path d="M0.6630 1.4720
L0.6560 1.4750
" />
<path d="M0.6630 4.2780
L0.6700 4.2810
" />
<path d="M0.6700 1.4690
L0.6630 1.4720
" />
<path d="M0.6700 1.6110
L0.6700 4.1390
" />
<path d="M0.6700 4.1390
L0.6710 4.1420
" />
<path d="M0.6700 4.2810
L0.6770 4.2830
" />
<path d="M0.6710 1.6010
L0.6710 1.6030
" />
<path d="M0.6710 1.6030
L0.6710 1.6060
" />
<path d="M0.6710 1.6060
L0.6710 1.6080
" />
<path d="M0.6710 1.6080
L0.6700 1.6110
" />
<path d="M0.6710 4.1420
L0.6710 4.1440
" />
<path d="M0.6710 4.1440
L0.6710 4.1470
" />
<path d="M0.6710 4.1470
L0.6710 4.1490
" />
<path d="M0.6710 4.1490
L0.6720 4.1520
" />
<path d="M0.6720 1.5980
L0.6710 1.6010
" />
<path d="M0.6720 4.1520
L0.6730 4.1540
" />
<path d="M0.6730 1.5940
L0.6730 1.5960
" />
<path d="M0.6730 1.5960
L0.6720 1.5980
" />
<path d="M0.6730 4.1540
L0.6730 4.1560
" />
<path d="M0.6730 4.1560
L0.6740 4.1590
" />
<path d="M0.6740 1.5910
L0.6730 1.5940
" />
<path d="M0.6740 4.1590
L0.6750 4.1610
" />
<path d="M0.6750 1.5890
L0.6740 1.5910
" />
<path d="M0.6750 4.1610
L0.6760 4.1630
" />
<path d="M0.6760 1.5870
L0.6750 1.5890
" />
<path d="M0.6760 4.1630
L0.6780 4.1650
" />
<path d="M0.6770 1.4670
L0.6700 1.4690
" />
<path d="M0.6770 4.2830
L0.6840 4.2850
" />
<path d="M0.6780 1.5850
L0.6760 1.5870
" />
<path d="M0.6780 4.1650
L0.6790 4.1670
" />
<path d="M0.6790 1.5830
L0.6780 1.5850
" />
<path d="M0.6790 4.1670
L0.6800 4.1690
" />
<path d="M0.6800 1.5810
L0.6790 1.5830
" />
<path d="M0.6800 4.1690
L0.6820 4.1710
" />
<path d="M0.6820 1.5790
L0.6800 1.5810
" />
<path d="M0.6820 4.1710
L0.6830 4.1730
" />
<path d="M0.6830 1.5770
L0.6820 1.5790
" />
<path d="M0.6830 4.1730
L0.6850 4.1750
" />
<path d="M0.6840 1.4650
L0.6770 1.4670
" />
<path d="M0.6840 4.2850
L0.6910 4.2870
" />
<path d="M0.6850 1.5750
L0.6830 1.5770
" />
</g>
<g style="fill:#000000; fill-opacity:1.0000; stroke:none;">
<circle cx="0.6850" cy="1.5750" r="0.0100" /> 
<circle cx="0.6850" cy="4.1750" r="0.0100" /> 
</g>
<g style="fill:none; 
stroke:#000000; stroke-width:0.0200; stroke-opacity:1; 
stroke-linecap:round; stroke-linejoin:round;">
<path d="M0.6850 4.1750
L0.6870 4.1770
" />
<path d="M0.6870 1.5730
L0.6850 1.5750
" />
<path d="M0.6870 4.1770
L0.6890 4.1780
" />
<path d="M0.6890 1.5720
L0.6870 1.5730
" />
<path d="M0.6890 4.1780
L0.6910 4.1800
" />
<path d="M0.6910 1.4630
L0.6840 1.4650
" />
<path d="M0.6910 1.5700
L0.6890 1.5720
" />
<path d="M0.6910 4.1800
L0.6930 4.1810
" />
<path d="M0.6910 4.2870
L0.6980 4.2880
" />
<path d="M0.6930 1.5690
L0.6910 1.5700
" />
<path d="M0.6930 4.1810
L0.6950 4.1820
" />
<path d="M0.6950 1.5680
L0.6930 1.5690
" />
<path d="M0.6950 4.1820
L0.6970 4.1840
" />
<path d="M0.6970 1.5660
L0.6950 1.5680
" />
<path d="M0.6970 4.1840
L0.6990 4.1850
" />
<path d="M0.6980 1.4620
L0.6910 1.4630
" />
<path d="M0.6980 4.2880
L0.7060 4.2890
" />
<path d="M0.6990 1.5650
L0.6970 1.5660
" />
<path d="M0.6990 4.1850
L0.7010 4.1860
" />
<path d="M0.7010 1.5640
L0.6990 1.5650
" />
<path d="M0.7010 4.1860
L0.7040 4.1870
" />
<path d="M0.7040 1.5630
L0.7010 1.5640
" />
<path d="M0.7040 4.1870
L0.7060 4.1870
" />
<path d="M0.7060 1.4610
L0.6980 1.4620
" />
<path d="M0.7060 1.5630
L0.7040 1.5630
" />
<path d="M0.7060 4.1870
L0.7080 4.1880
" />
<path d="M0.7060 4.2890
L0.7130 4.2890
" />
<path d="M0.7080 1.5620
L0.7060 1.5630
" />
<path d="M0.7080 4.1880
L0.7110 4.1890
" />
<path d="M0.7110 1.5610
L0.7080 1.5620
" />
<path d="M0.7110 4.1890
L0.7130 4.1890
" />
<path d="M0.7130 1.4610
L0.7060 1.4610
" />
<path d="M0.7130 1.5610
L0.7110 1.5610
" />
<path d="M0.7130 4.1890
L0.7160 4.1890
" />
<path d="M0.7130 4.2890
L0.7210 4.2900
" />
<path d="M0.7160 1.5610
L0.7130 1.5610
" />
<path d="M0.7160 4.1890
L0.7180 4.1890
" />
<path d="M0.7180 1.5610
L0.7160 1.5610
" />
<path d="M0.7180 4.1890
L0.7210 4.1900
" />
<path d="M0.7210 1.3260
L0.7210 1.3390
" />
<path d="M0.7210 1.3390
L0.7210 1.4600
" />
<path d="M0.7210 1.4600
L0.7130 1.4610
" />
<path d="M0.7210 1.4600
L1.7700 1.4600
" />
<path d="M0.7210 1.5600
L0.7180 1.5610
" />
<path d="M0.7210 1.5600
L1.7700 1.5600
" />
<path d="M0.7210 4.1900
L1.7700 4.1900
" />
<path d="M0.7210 4.2900
L0.7210 4.4110
" />
<path d="M0.7210 4.2900
L1.7700 4.2900
" />
<path d="M0.7210 4.4110
L0.7210 4.4240
" />
<path d="M0.7210 4.4240
L0.7220 4.4360
" />
<path d="M0.7220 1.3140
L0.7210 1.3260
" />
<path d="M0.7220 4.4360
L0.7230 4.4480
" />
<path d="M0.7230 1.3020
L0.7220 1.3140
" />
<path d="M0.7230 4.4480
L0.7250 4.4610
" />
<path d="M0.7250 1.2890
L0.7230 1.3020
" />
<path d="M0.7250 4.4610
L0.7280 4.4730
" />
<path d="M0.7280 1.2770
L0.7250 1.2890
" />
<path d="M0.7280 4.4730
L0.7320 4.4850
" />
<path d="M0.7320 1.2650
L0.7280 1.2770
" />
<path d="M0.7320 4.4850
L0.7360 4.4960
" />
<path d="M0.7360 1.2540
L0.7320 1.2650
" />
<path d="M0.7360 4.4960
L0.7400 4.5080
" />
<path d="M0.7400 1.2420
L0.7360 1.2540
" />
<path d="M0.7400 4.5080
L0.7450 4.5190
" />
<path d="M0.7450 1.2310
L0.7400 1.2420
" />
<path d="M0.7450 4.5190
L0.7510 4.5300
" />
<path d="M0.7510 1.2200
L0.7450 1.2310
" />
<path d="M0.7510 4.5300
L0.7570 4.5410
" />
<path d="M0.7570 1.2090
L0.7510 1.2200
" />
<path d="M0.7570 4.5410
L0.7640 4.5510
" />
<path d="M0.7640 1.1990
L0.7570 1.2090
" />
<path d="M0.7640 4.5510
L0.7710 4.5610
" />
<path d="M0.7710 1.1890
L0.7640 1.1990
" />
<path d="M0.7710 4.5610
L0.7790 4.5710
" />
<path d="M0.7790 1.1790
L0.7710 1.1890
" />
<path d="M0.7790 4.5710
L0.7870 4.5800
" />
<path d="M0.7870 1.1700
L0.7790 1.1790
" />
<path d="M0.7870 4.5800
L0.7960 4.5900
" />
<path d="M0.7950 1.1600
L0.7870 1.1700
" />
<path d="M0.7950 4.5900
L1.3460 4.5900
" />
<path d="M1.3460 1.1600
L0.7950 1.1600
" />
<path d="M1.3460 4.5900
L1.3540 4.5800
" />
<path d="M1.3540 1.1700
L1.3450 1.1600
" />
<path d="M1.3540 4.5800
L1.3620 4.5710
" />
<path d="M1.3620 1.1790
L1.3540 1.1700
" />
<path d="M1.3620 4.5710
L1.3700 4.5610
" />
<path d="M1.3700 1.1890
L1.3620 1.1790
" />
<path d="M1.3700 4.5610
L1.3770 4.5510
" />
<path d="M1.3770 1.1990
L1.3700 1.1890
" />
<path d="M1.3770 4.5510
L1.3840 4.5410
" />
<path d="M1.3840 1.2090
L1.3770 1.1990
" />
<path d="M1.3840 4.5410
L1.3900 4.5300
" />
<path d="M1.3900 1.2200
L1.3840 1.2090
" />
<path d="M1.3900 4.5300
L1.3960 4.5190
" />
<path d="M1.3960 1.2310
L1.3900 1.2200
" />
<path d="M1.3960 4.5190
L1.4010 4.5080
" />
<path d="M1.4010 1.2420
L1.3960 1.2310
" />
<path d="M1.4010 4.5080
L1.4050 4.4960
" />
<path d="M1.4050 1.2540
L1.4010 1.2420
" />
<path d="M1.4050 4.4960
L1.4090 4.4850
" />
<path d="M1.4090 1.2650
L1.4050 1.2540
" />
<path d="M1.4090 4.4850
L1.4130 4.4730
" />
<path d="M1.4130 1.2770
L1.4090 1.2650
" />
<path d="M1.4130 4.4730
L1.4160 4.4610
" />
<path d="M1.4160 1.2890
L1.4130 1.2770
" />
<path d="M1.4160 4.4610
L1.4180 4.4480
" />
<path d="M1.4180 1.3020
L1.4160 1.2890
" />
<path d="M1.4180 4.4480
L1.4190 4.4360
" />
<path d="M1.4190 1.3140
L1.4180 1.3020
" />
<path d="M1.4190 4.4360
L1.4200 4.4240
" />
<path d="M1.4200 1.3260
L1.4190 1.3140
" />
<path d="M1.4200 1.3390
L1.4200 1.3260
" />
<path d="M1.4200 1.4600
L1.4200 1.3390
" />
<path d="M1.4200 4.4110
L1.4200 4.2900
" />
<path d="M1.4200 4.4240
L1.4200 4.4110
" />
<path d="M1.5340 1.4600
L1.5450 1.4560
" />
<path d="M1.5450 1.4560
L1.5570 1.4520
" />
<path d="M1.5450 4.2940
L1.5340 4.2900
" />
<path d="M1.5570 1.4520
L1.5680 1.4490
" />
<path d="M1.5570 4.2980
L1.5450 4.2940
" />
<path d="M1.5680 1.4490
L1.5790 1.4450
" />
<path d="M1.5680 4.3010
L1.5570 4.2980
" />
<path d="M1.5700 2.1250
L1.5700 3.6250
" />
<path d="M1.5700 3.6250
L1.5710 3.6350
" />
<path d="M1.5710 2.1150
L1.5700 2.1250
" />
<path d="M1.5710 3.6350
L1.5720 3.6450
" />
<path d="M1.5720 2.1050
L1.5710 2.1150
" />
<path d="M1.5720 3.6450
L1.5730 3.6550
" />
<path d="M1.5730 2.0950
L1.5720 2.1050
" />
<path d="M1.5730 3.6550
L1.5750 3.6650
" />
<path d="M1.5750 2.0850
L1.5730 2.0950
" />
<path d="M1.5750 3.6650
L1.5770 3.6740
" />
<path d="M1.5770 2.0760
L1.5750 2.0850
" />
<path d="M1.5770 3.6740
L1.5790 3.6840
" />
<path d="M1.5790 1.4450
L1.5910 1.4420
" />
<path d="M1.5790 2.0660
L1.5770 2.0760
" />
<path d="M1.5790 3.6840
L1.5830 3.6930
" />
<path d="M1.5790 4.3050
L1.5680 4.3010
" />
<path d="M1.5830 2.0570
L1.5790 2.0660
" />
<path d="M1.5830 3.6930
L1.5860 3.7020
" />
<path d="M1.5860 2.0480
L1.5830 2.0570
" />
<path d="M1.5860 3.7020
L1.5900 3.7110
" />
<path d="M1.5900 2.0390
L1.5860 2.0480
" />
<path d="M1.5900 3.7110
L1.5950 3.7200
" />
<path d="M1.5910 1.4420
L1.6020 1.4390
" />
<path d="M1.5910 4.3080
L1.5790 4.3050
" />
<path d="M1.5950 2.0300
L1.5900 2.0390
" />
<path d="M1.5950 3.7200
L1.5990 3.7280
" />
<path d="M1.5990 2.0220
L1.5950 2.0300
" />
<path d="M1.5990 3.7280
L1.6050 3.7360
" />
<path d="M1.6020 1.4390
L1.6140 1.4360
" />
<path d="M1.6020 4.3110
L1.5910 4.3080
" />
<path d="M1.6050 2.0140
L1.5990 2.0220
" />
<path d="M1.6050 3.7360
L1.6100 3.7440
" />
<path d="M1.6100 2.0060
L1.6050 2.0140
" />
<path d="M1.6100 3.7440
L1.6160 3.7520
" />
<path d="M1.6140 1.4360
L1.6260 1.4340
" />
<path d="M1.6140 4.3140
L1.6020 4.3110
" />
<path d="M1.6160 1.9980
L1.6100 2.0060
" />
<path d="M1.6160 3.7520
L1.6220 3.7590
" />
<path d="M1.6220 1.9910
L1.6160 1.9980
" />
<path d="M1.6220 3.7590
L1.6290 3.7660
" />
<path d="M1.6260 1.4340
L1.6370 1.4320
" />
<path d="M1.6260 4.3160
L1.6140 4.3140
" />
<path d="M1.6290 1.9840
L1.6220 1.9910
" />
<path d="M1.6290 3.7660
L1.6360 3.7730
" />
<path d="M1.6360 1.9770
L1.6290 1.9840
" />
<path d="M1.6360 3.7730
L1.6430 3.7790
" />
<path d="M1.6370 1.4320
L1.6490 1.4300
" />
<path d="M1.6370 4.3180
L1.6260 4.3160
" />
<path d="M1.6430 1.9710
L1.6360 1.9770
" />
<path d="M1.6430 3.7790
L1.6510 3.7850
" />
<path d="M1.6490 1.4300
L1.6610 1.4290
" />
<path d="M1.6490 4.3200
L1.6370 4.3180
" />
<path d="M1.6510 1.9650
L1.6430 1.9710
" />
<path d="M1.6510 3.7850
L1.6590 3.7900
" />
<path d="M1.6590 1.9600
L1.6510 1.9650
" />
<path d="M1.6590 3.7900
L1.6670 3.7960
" />
<path d="M1.6610 1.4290
L1.6730 1.4280
" />
<path d="M1.6610 4.3210
L1.6490 4.3200
" />
<path d="M1.6670 1.9540
L1.6590 1.9600
" />
<path d="M1.6670 3.7960
L1.6750 3.8000
" />
<path d="M1.6700 2.1250
L1.6700 3.6250
" />
<path d="M1.6700 3.6250
L1.6710 3.6300
" />
<path d="M1.6710 2.1150
L1.6710 2.1200
" />
<path d="M1.6710 2.1200
L1.6700 2.1250
" />
<path d="M1.6710 3.6300
L1.6710 3.6350
" />
<path d="M1.6710 3.6350
L1.6720 3.6400
" />
<path d="M1.6720 2.1100
L1.6710 2.1150
" />
<path d="M1.6720 3.6400
L1.6730 3.6450
" />
<path d="M1.6730 1.4280
L1.6850 1.4270
" />
<path d="M1.6730 2.1050
L1.6720 2.1100
" />
<path d="M1.6730 3.6450
L1.6740 3.6490
" />
<path d="M1.6730 4.3220
L1.6610 4.3210
" />
<path d="M1.6740 2.1010
L1.6730 2.1050
" />
<path d="M1.6740 3.6490
L1.6750 3.6540
" />
<path d="M1.6750 1.9500
L1.6670 1.9540
" />
<path d="M1.6750 2.0960
L1.6740 2.1010
" />
<path d="M1.6750 3.6540
L1.6770 3.6590
" />
<path d="M1.6750 3.8000
L1.6840 3.8050
" />
<path d="M1.6770 2.0910
L1.6750 2.0960
" />
<path d="M1.6770 3.6590
L1.6780 3.6630
" />
<path d="M1.6780 2.0870
L1.6770 2.0910
" />
<path d="M1.6780 3.6630
L1.6800 3.6680
" />
<path d="M1.6800 2.0820
L1.6780 2.0870
" />
<path d="M1.6800 3.6680
L1.6830 3.6720
" />
<path d="M1.6830 2.0780
L1.6800 2.0820
" />
<path d="M1.6830 3.6720
L1.6850 3.6760
" />
<path d="M1.6840 1.9450
L1.6750 1.9500
" />
<path d="M1.6840 3.8050
L1.6930 3.8090
" />
<path d="M1.6850 1.4270
L1.6970 1.4260
" />
<path d="M1.6850 2.0740
L1.6830 2.0780
" />
<path d="M1.6850 3.6760
L1.6880 3.6800
" />
<path d="M1.6850 4.3230
L1.6730 4.3220
" />
<path d="M1.6880 2.0700
L1.6850 2.0740
" />
<path d="M1.6880 3.6800
L1.6900 3.6840
" />
<path d="M1.6900 2.0660
L1.6880 2.0700
" />
<path d="M1.6900 3.6840
L1.6930 3.6880
" />
<path d="M1.6930 1.9410
L1.6840 1.9450
" />
<path d="M1.6930 2.0620
L1.6900 2.0660
" />
<path d="M1.6930 3.6880
L1.6960 3.6920
" />
<path d="M1.6930 3.8090
L1.7020 3.8120
" />
<path d="M1.6960 2.0580
L1.6930 2.0620
" />
<path d="M1.6960 3.6920
L1.7000 3.6950
" />
<path d="M1.6970 1.4260
L1.7090 1.4260
" />
<path d="M1.6970 4.3240
L1.6850 4.3230
" />
<path d="M1.7000 2.0550
L1.6960 2.0580
" />
<path d="M1.7000 3.6950
L1.7030 3.6990
" />
<path d="M1.7020 1.9380
L1.6930 1.9410
" />
<path d="M1.7020 3.8120
L1.7110 3.8160
" />
<path d="M1.7030 2.0510
L1.7000 2.0550
" />
<path d="M1.7030 3.6990
L1.7070 3.7020
" />
<path d="M1.7070 2.0480
L1.7030 2.0510
" />
<path d="M1.7070 3.7020
L1.7110 3.7050
" />
<path d="M1.7090 1.4260
L1.7210 1.4250
" />
<path d="M1.7090 4.3240
L1.6970 4.3240
" />
<path d="M1.7110 1.9340
L1.7020 1.9380
" />
<path d="M1.7110 2.0450
L1.7070 2.0480
" />
<path d="M1.7110 3.7050
L1.7150 3.7070
" />
<path d="M1.7110 3.8160
L1.7210 3.8180
" />
<path d="M1.7150 2.0430
L1.7110 2.0450
" />
<path d="M1.7150 3.7070
L1.7190 3.7100
" />
<path d="M1.7190 2.0400
L1.7150 2.0430
" />
<path d="M1.7190 3.7100
L1.7230 3.7120
" />
<path d="M1.7210 0.8600
L1.7210 1.4250
" />
<path d="M1.7210 1.9320
L1.7110 1.9340
" />
<path d="M1.7210 3.8180
L1.7300 3.8200
" />
<path d="M1.7210 4.3250
L1.7090 4.3240
" />
<path d="M1.7210 4.3250
L1.7210 4.8900
" />
<path d="M1.7210 4.8900
L0.4200 4.8900
" />
<path d="M1.7230 2.0380
L1.7190 2.0400
" />
<path d="M1.7230 3.7120
L1.7270 3.7150
" />
<path d="M1.7270 2.0350
L1.7230 2.0380
" />
<path d="M1.7270 3.7150
L1.7320 3.7170
" />
<path d="M1.7300 1.9300
L1.7210 1.9320
" />
<path d="M1.7300 3.8200
L1.7400 3.8220
" />
<path d="M1.7320 2.0330
L1.7270 2.0350
" />
<path d="M1.7320 3.7170
L1.7360 3.7180
" />
<path d="M1.7360 2.0320
L1.7320 2.0330
" />
<path d="M1.7360 3.7180
L1.7410 3.7200
" />
<path d="M1.7400 1.9280
L1.7300 1.9300
" />
<path d="M1.7400 3.8220
L1.7500 3.8230
" />
<path d="M1.7410 2.0300
L1.7360 2.0320
" />
<path d="M1.7410 3.7200
L1.7460 3.7210
" />
<path d="M1.7460 2.0290
L1.7410 2.0300
" />
<path d="M1.7460 3.7210
L1.7500 3.7220
" />
<path d="M1.7500 1.9270
L1.7400 1.9280
" />
<path d="M1.7500 2.0280
L1.7460 2.0290
" />
<path d="M1.7500 3.7220
L1.7550 3.7230
" />
<path d="M1.7500 3.8230
L1.7600 3.8240
" />
<path d="M1.7550 2.0270
L1.7500 2.0280
" />
<path d="M1.7550 3.7230
L1.7600 3.7240
" />
<path d="M1.7600 1.9260
L1.7500 1.9270
" />
<path d="M1.7600 2.0260
L1.7550 2.0270
" />
<path d="M1.7600 3.7240
L1.7650 3.7240
" />
<path d="M1.7600 3.8240
L1.7700 3.8240
" />
<path d="M1.7650 2.0260
L1.7600 2.0260
" />
<path d="M1.7650 3.7240
L1.7700 3.7250
" />
<path d="M1.7700 1.4600
L12.1200 1.4600
" />
<path d="M1.7700 1.5600
L1.7700 1.4600
" />
<path d="M1.7700 1.5600
L1.7700 1.6300
" />
<path d="M1.7700 1.6300
L2.0200 1.6300
" />
<path d="M1.7700 1.9260
L1.7600 1.9260
" />
<path d="M1.7700 2.0250
L1.7650 2.0260
" />
<path d="M1.7700 3.7250
L2.0200 3.7250
" />
<path d="M1.7700 3.8240
L2.0200 3.8240
" />
<path d="M1.7700 4.1200
L1.7700 4.1900
" />
<path d="M1.7700 4.1200
L2.0200 4.1200
" />
<path d="M1.7700 4.2900
L1.7700 4.1900
" />
<path d="M1.7700 4.2900
L12.1200 4.2900
" />
<path d="M2.0200 1.5100
L1.7700 1.5100
" />
<path d="M2.0200 1.6300
L2.0200 1.5100
" />
<path d="M2.0200 1.9260
L1.7700 1.9260
" />
<path d="M2.0200 1.9260
L2.0200 1.6300
" />
<path d="M2.0200 1.9260
L2.0200 2.0250
" />
<path d="M2.0200 2.0250
L1.7700 2.0250
" />
<path d="M2.0200 2.0250
L2.0300 2.0250
" />
<path d="M2.0200 3.7250
L2.0300 3.7250
" />
<path d="M2.0200 3.8240
L2.0200 3.7250
" />
<path d="M2.0200 4.1200
L2.0200 3.8240
" />
<path d="M2.0200 4.2400
L1.7700 4.2400
" />
<path d="M2.0200 4.2400
L2.0200 4.1200
" />
<path d="M2.0300 1.6600
L2.0200 1.6600
" />
<path d="M2.0300 1.8550
L2.0200 1.8550
" />
<path d="M2.0300 1.8750
L2.0300 1.6600
" />
<path d="M2.0300 2.0250
L2.0300 1.8750
" />
<path d="M2.0300 3.8750
L2.0300 3.7250
" />
<path d="M2.0300 3.8950
L2.0200 3.8950
" />
<path d="M2.0300 4.0900
L2.0200 4.0900
" />
<path d="M2.0300 4.0900
L2.0300 3.8750
" />
<path d="M2.1100 0.7250
L2.1100 1.2260
" />
<path d="M2.1100 0.7250
L2.2800 0.7250
" />
<path d="M2.1100 1.2260
L2.1100 1.3740
" />
<path d="M2.1100 1.2260
L2.2800 1.2260
" />
<path d="M2.1100 1.3740
L2.1100 1.4600
" />
<path d="M2.1100 4.2900
L2.1100 4.3760
" />
<path d="M2.1100 4.3760
L2.1100 4.5240
" />
<path d="M2.1100 4.5240
L2.1100 5.0250
" />
<path d="M2.1100 4.5240
L2.2800 4.5240
" />
<path d="M2.1100 5.0250
L2.2800 5.0250
" />
<path d="M2.2800 0.7250
L2.2800 1.2260
" />
<path d="M2.2800 1.2260
L2.2800 1.3740
" />
<path d="M2.2800 1.3740
L2.2800 1.4600
" />
<path d="M2.2800 4.2900
L2.2800 4.3760
" />
<path d="M2.2800 4.3760
L2.2800 4.5240
" />
<path d="M2.2800 4.5240
L2.2800 5.0250
" />
<path d="M2.3600 1.6600
L2.0300 1.6600
" />
<path d="M2.3600 1.8750
L2.3600 1.6600
" />
<path d="M2.3600 2.0250
L2.0300 2.0250
" />
<path d="M2.3600 2.0250
L2.3600 1.8750
" />
<path d="M2.3600 2.0250
L2.3700 2.0250
" />
<path d="M2.3600 3.7250
L2.0300 3.7250
" />
<path d="M2.3600 3.7250
L2.3700 3.7250
" />
<path d="M2.3600 3.8750
L2.3600 3.7250
" />
<path d="M2.3600 4.0900
L2.0300 4.0900
" />
<path d="M2.3600 4.0900
L2.3600 3.8750
" />
<path d="M2.3700 1.5350
L2.0200 1.5350
" />
<path d="M2.3700 1.5600
L2.0200 1.5600
" />
<path d="M2.3700 1.6300
L2.3700 1.5100
" />
<path d="M2.3700 1.6300
L2.5200 1.6300
" />
<path d="M2.3700 1.6600
L2.3600 1.6600
" />
<path d="M2.3700 1.8550
L2.3600 1.8550
" />
<path d="M2.3700 2.0250
L2.3700 1.6300
" />
<path d="M2.3700 3.7250
L2.5200 3.7250
" />
<path d="M2.3700 3.8950
L2.3600 3.8950
" />
<path d="M2.3700 4.0900
L2.3600 4.0900
" />
<path d="M2.3700 4.1200
L2.3700 3.7250
" />
<path d="M2.3700 4.1200
L2.5200 4.1200
" />
<path d="M2.3700 4.1900
L2.0200 4.1900
" />
<path d="M2.3700 4.2150
L2.0200 4.2150
" />
<path d="M2.3700 4.2400
L2.3700 4.1200
" />
<path d="M2.5200 1.5100
L2.3700 1.5100
" />
<path d="M2.5200 1.6300
L2.5200 1.5100
" />
<path d="M2.5200 2.0250
L2.3700 2.0250
" />
<path d="M2.5200 2.0250
L2.5200 1.6300
" />
<path d="M2.5200 2.0250
L2.5300 2.0250
" />
<path d="M2.5200 3.7250
L2.5300 3.7250
" />
<path d="M2.5200 4.1200
L2.5200 3.7250
" />
<path d="M2.5200 4.2400
L2.3700 4.2400
" />
<path d="M2.5200 4.2400
L2.5200 4.1200
" />
<path d="M2.5300 1.6600
L2.5200 1.6600
" />
<path d="M2.5300 1.8550
L2.5200 1.8550
" />
<path d="M2.5300 1.8750
L2.5300 1.6600
" />
<path d="M2.5300 2.0250
L2.5300 1.8750
" />
<path d="M2.5300 3.8750
L2.5300 3.7250
" />
<path d="M2.5300 3.8950
L2.5200 3.8950
" />
<path d="M2.5300 4.0900
L2.5200 4.0900
" />
<path d="M2.5300 4.0900
L2.5300 3.8750
" />
<path d="M2.6100 0.7250
L2.6100 1.2260
" />
<path d="M2.6100 0.7250
L2.7800 0.7250
" />
<path d="M2.6100 1.2260
L2.6100 1.3740
" />
<path d="M2.6100 1.2260
L2.7800 1.2260
" />
<path d="M2.6100 1.3740
L2.6100 1.4600
" />
<path d="M2.6100 4.2900
L2.6100 4.3760
" />
<path d="M2.6100 4.3760
L2.6100 4.5240
" />
<path d="M2.6100 4.5240
L2.6100 5.0250
" />
<path d="M2.6100 4.5240
L2.7800 4.5240
" />
<path d="M2.6100 5.0250
L2.7800 5.0250
" />
<path d="M2.7800 0.7250
L2.7800 1.2260
" />
<path d="M2.7800 1.2260
L2.7800 1.3740
" />
<path d="M2.7800 1.3740
L2.7800 1.4600
" />
<path d="M2.7800 4.2900
L2.7800 4.3760
" />
<path d="M2.7800 4.3760
L2.7800 4.5240
" />
<path d="M2.7800 4.5240
L2.7800 5.0250
" />
<path d="M2.8600 1.6600
L2.5300 1.6600
" />
<path d="M2.8600 1.8750
L2.8600 1.6600
" />
<path d="M2.8600 2.0250
L2.5300 2.0250
" />
<path d="M2.8600 2.0250
L2.8600 1.8750
" />
<path d="M2.8600 2.0250
L2.8700 2.0250
" />
<path d="M2.8600 3.7250
L2.5300 3.7250
" />
<path d="M2.8600 3.7250
L2.8700 3.7250
" />
<path d="M2.8600 3.8750
L2.8600 3.7250
" />
<path d="M2.8600 4.0900
L2.5300 4.0900
" />
<path d="M2.8600 4.0900
L2.8600 3.8750
" />
<path d="M2.8700 1.5100
L2.5200 1.5100
" />
<path d="M2.8700 1.5350
L2.5200 1.5350
" />
<path d="M2.8700 1.5600
L2.5200 1.5600
" />
<path d="M2.8700 1.6300
L2.8700 1.5100
" />
<path d="M2.8700 1.6300
L3.0210 1.6300
" />
<path d="M2.8700 1.6600
L2.8600 1.6600
" />
<path d="M2.8700 1.8550
L2.8600 1.8550
" />
<path d="M2.8700 2.0250
L2.8700 1.6300
" />
<path d="M2.8700 3.7250
L3.0210 3.7250
" />
<path d="M2.8700 3.8950
L2.8600 3.8950
" />
<path d="M2.8700 4.0900
L2.8600 4.0900
" />
<path d="M2.8700 4.1200
L2.8700 3.7250
" />
<path d="M2.8700 4.1200
L3.0210 4.1200
" />
<path d="M2.8700 4.1900
L2.5200 4.1900
" />
<path d="M2.8700 4.2150
L2.5200 4.2150
" />
<path d="M2.8700 4.2400
L2.5200 4.2400
" />
<path d="M2.8700 4.2400
L2.8700 4.1200
" />
<path d="M3.0210 1.5100
L2.8700 1.5100
" />
<path d="M3.0210 1.6300
L3.0210 1.5100
" />
<path d="M3.0210 2.0250
L2.8700 2.0250
" />
<path d="M3.0210 2.0250
L3.0210 1.6300
" />
<path d="M3.0210 2.0250
L3.0300 2.0250
" />
<path d="M3.0210 3.7250
L3.0300 3.7250
" />
<path d="M3.0210 4.1200
L3.0210 3.7250
" />
<path d="M3.0210 4.2400
L2.8700 4.2400
" />
<path d="M3.0210 4.2400
L3.0210 4.1200
" />
<path d="M3.0300 1.6600
L3.0210 1.6600
" />
<path d="M3.0300 1.8550
L3.0210 1.8550
" />
<path d="M3.0300 1.8750
L3.0300 1.6600
" />
<path d="M3.0300 2.0250
L3.0300 1.8750
" />
<path d="M3.0300 3.8750
L3.0300 3.7250
" />
<path d="M3.0300 3.8950
L3.0210 3.8950
" />
<path d="M3.0300 4.0900
L3.0210 4.0900
" />
<path d="M3.0300 4.0900
L3.0300 3.8750
" />
<path d="M3.1100 0.7250
L3.1100 1.2260
" />
<path d="M3.1100 0.7250
L3.2800 0.7250
" />
<path d="M3.1100 1.2260
L3.1100 1.3740
" />
<path d="M3.1100 1.2260
L3.2800 1.2260
" />
<path d="M3.1100 1.3740
L3.1100 1.4600
" />
<path d="M3.1100 4.2900
L3.1100 4.3760
" />
<path d="M3.1100 4.3760
L3.1100 4.5240
" />
<path d="M3.1100 4.5240
L3.1100 5.0250
" />
<path d="M3.1100 4.5240
L3.2800 4.5240
" />
<path d="M3.1100 5.0250
L3.2800 5.0250
" />
<path d="M3.2800 0.7250
L3.2800 1.2260
" />
<path d="M3.2800 1.2260
L3.2800 1.3740
" />
<path d="M3.2800 1.3740
L3.2800 1.4600
" />
<path d="M3.2800 4.2900
L3.2800 4.3760
" />
<path d="M3.2800 4.3760
L3.2800 4.5240
" />
<path d="M3.2800 4.5240
L3.2800 5.0250
" />
<path d="M3.3600 1.6600
L3.0300 1.6600
" />
<path d="M3.3600 1.8750
L3.3600 1.6600
" />
<path d="M3.3600 2.0250
L3.0300 2.0250
" />
<path d="M3.3600 2.0250
L3.3600 1.8750
" />
<path d="M3.3600 2.0250
L3.3700 2.0250
" />
<path d="M3.3600 3.7250
L3.0300 3.7250
" />
<path d="M3.3600 3.7250
L3.3700 3.7250
" />
<path d="M3.3600 3.8750
L3.3600 3.7250
" />
<path d="M3.3600 4.0900
L3.0300 4.0900
" />
<path d="M3.3600 4.0900
L3.3600 3.8750
" />
<path d="M3.3700 1.5350
L3.0210 1.5350
" />
<path d="M3.3700 1.5600
L3.0210 1.5600
" />
<path d="M3.3700 1.6300
L3.3700 1.5100
" />
<path d="M3.3700 1.6300
L3.5210 1.6300
" />
<path d="M3.3700 1.6600
L3.3600 1.6600
" />
<path d="M3.3700 1.8550
L3.3600 1.8550
" />
<path d="M3.3700 2.0250
L3.3700 1.6300
" />
<path d="M3.3700 3.7250
L3.5210 3.7250
" />
<path d="M3.3700 3.8950
L3.3600 3.8950
" />
<path d="M3.3700 4.0900
L3.3600 4.0900
" />
<path d="M3.3700 4.1200
L3.3700 3.7250
" />
<path d="M3.3700 4.1200
L3.5210 4.1200
" />
<path d="M3.3700 4.1900
L3.0210 4.1900
" />
<path d="M3.3700 4.2150
L3.0210 4.2150
" />
<path d="M3.3700 4.2400
L3.3700 4.1200
" />
<path d="M3.5210 1.5100
L3.3700 1.5100
" />
<path d="M3.5210 1.6300
L3.5210 1.5100
" />
<path d="M3.5210 2.0250
L3.3700 2.0250
" />
<path d="M3.5210 2.0250
L3.5210 1.6300
" />
<path d="M3.5210 2.0250
L3.5300 2.0250
" />
<path d="M3.5210 3.7250
L3.5300 3.7250
" />
<path d="M3.5210 4.1200
L3.5210 3.7250
" />
<path d="M3.5210 4.2400
L3.3700 4.2400
" />
<path d="M3.5210 4.2400
L3.5210 4.1200
" />
<path d="M3.5300 1.6600
L3.5210 1.6600
" />
<path d="M3.5300 1.8550
L3.5210 1.8550
" />
<path d="M3.5300 1.8750
L3.5300 1.6600
" />
<path d="M3.5300 2.0250
L3.5300 1.8750
" />
<path d="M3.5300 3.8750
L3.5300 3.7250
" />
<path d="M3.5300 3.8950
L3.5210 3.8950
" />
<path d="M3.5300 4.0900
L3.5210 4.0900
" />
<path d="M3.5300 4.0900
L3.5300 3.8750
" />
<path d="M3.6100 0.7250
L3.6100 1.2260
" />
<path d="M3.6100 0.7250
L3.7800 0.7250
" />
<path d="M3.6100 1.2260
L3.6100 1.3740
" />
<path d="M3.6100 1.2260
L3.7800 1.2260
" />
<path d="M3.6100 1.3740
L3.6100 1.4600
" />
<path d="M3.6100 4.2900
L3.6100 4.3760
" />
<path d="M3.6100 4.3760
L3.6100 4.5240
" />
<path d="M3.6100 4.5240
L3.6100 5.0250
" />
<path d="M3.6100 4.5240
L3.7800 4.5240
" />
<path d="M3.6100 5.0250
L3.7800 5.0250
" />
<path d="M3.7800 0.7250
L3.7800 1.2260
" />
<path d="M3.7800 1.2260
L3.7800 1.3740
" />
<path d="M3.7800 1.3740
L3.7800 1.4600
" />
<path d="M3.7800 4.2900
L3.7800 4.3760
" />
<path d="M3.7800 4.3760
L3.7800 4.5240
" />
<path d="M3.7800 4.5240
L3.7800 5.0250
" />
<path d="M3.8600 1.6600
L3.5300 1.6600
" />
<path d="M3.8600 1.8750
L3.8600 1.6600
" />
<path d="M3.8600 2.0250
L3.5300 2.0250
" />
<path d="M3.8600 2.0250
L3.8600 1.8750
" />
<path d="M3.8600 2.0250
L3.8700 2.0250
" />
<path d="M3.8600 3.7250
L3.5300 3.7250
" />
<path d="M3.8600 3.7250
L3.8700 3.7250
" />
<path d="M3.8600 3.8750
L3.8600 3.7250
" />
<path d="M3.8600 4.0900
L3.5300 4.0900
" />
<path d="M3.8600 4.0900
L3.8600 3.8750
" />
<path d="M3.8700 1.5100
L3.5210 1.5100
" />
<path d="M3.8700 1.5350
L3.5210 1.5350
" />
<path d="M3.8700 1.5600
L3.5210 1.5600
" />
<path d="M3.8700 1.6300
L3.8700 1.5100
" />
<path d="M3.8700 1.6300
L4.0210 1.6300
" />
<path d="M3.8700 1.6600
L3.8600 1.6600
" />
<path d="M3.8700 1.8550
L3.8600 1.8550
" />
<path d="M3.8700 2.0250
L3.8700 1.6300
" />
<path d="M3.8700 3.7250
L4.0210 3.7250
" />
<path d="M3.8700 3.8950
L3.8600 3.8950
" />
<path d="M3.8700 4.0900
L3.8600 4.0900
" />
<path d="M3.8700 4.1200
L3.8700 3.7250
" />
<path d="M3.8700 4.1200
L4.0210 4.1200
" />
<path d="M3.8700 4.1900
L3.5210 4.1900
" />
<path d="M3.8700 4.2150
L3.5210 4.2150
" />
<path d="M3.8700 4.2400
L3.5210 4.2400
" />
<path d="M3.8700 4.2400
L3.8700 4.1200
" />
<path d="M4.0210 1.5100
L3.8700 1.5100
" />
<path d="M4.0210 1.6300
L4.0210 1.5100
" />
<path d="M4.0210 2.0250
L3.8700 2.0250
" />
<path d="M4.0210 2.0250
L4.0210 1.6300
" />
<path d="M4.0210 2.0250
L4.0300 2.0250
" />
<path d="M4.0210 3.7250
L4.0300 3.7250
" />
<path d="M4.0210 4.1200
L4.0210 3.7250
" />
<path d="M4.0210 4.2400
L3.8700 4.2400
" />
<path d="M4.0210 4.2400
L4.0210 4.1200
" />
<path d="M4.0300 1.6600
L4.0210 1.6600
" />
<path d="M4.0300 1.8550
L4.0210 1.8550
" />
<path d="M4.0300 1.8750
L4.0300 1.6600
" />
<path d="M4.0300 2.0250
L4.0300 1.8750
" />
<path d="M4.0300 3.8750
L4.0300 3.7250
" />
<path d="M4.0300 3.8950
L4.0210 3.8950
" />
<path d="M4.0300 4.0900
L4.0210 4.0900
" />
<path d="M4.0300 4.0900
L4.0300 3.8750
" />
<path d="M4.1100 0.7250
L4.1100 1.2260
" />
<path d="M4.1100 0.7250
L4.2800 0.7250
" />
<path d="M4.1100 1.2260
L4.1100 1.3740
" />
<path d="M4.1100 1.2260
L4.2800 1.2260
" />
<path d="M4.1100 1.3740
L4.1100 1.4600
" />
<path d="M4.1100 4.2900
L4.1100 4.3760
" />
<path d="M4.1100 4.3760
L4.1100 4.5240
" />
<path d="M4.1100 4.5240
L4.1100 5.0250
" />
<path d="M4.1100 4.5240
L4.2800 4.5240
" />
<path d="M4.1100 5.0250
L4.2800 5.0250
" />
<path d="M4.2800 0.7250
L4.2800 1.2260
" />
<path d="M4.2800 1.2260
L4.2800 1.3740
" />
<path d="M4.2800 1.3740
L4.2800 1.4600
" />
<path d="M4.2800 4.2900
L4.2800 4.3760
" />
<path d="M4.2800 4.3760
L4.2800 4.5240
" />
<path d="M4.2800 4.5240
L4.2800 5.0250
" />
<path d="M4.3600 1.6600
L4.0300 1.6600
" />
<path d="M4.3600 1.8750
L4.3600 1.6600
" />
<path d="M4.3600 2.0250
L4.0300 2.0250
" />
<path d="M4.3600 2.0250
L4.3600 1.8750
" />
<path d="M4.3600 2.0250
L4.3700 2.0250
" />
<path d="M4.3600 3.7250
L4.0300 3.7250
" />
<path d="M4.3600 3.7250
L4.3700 3.7250
" />
<path d="M4.3600 3.8750
L4.3600 3.7250
" />
<path d="M4.3600 4.0900
L4.0300 4.0900
" />
<path d="M4.3600 4.0900
L4.3600 3.8750
" />
<path d="M4.3700 1.5350
L4.0210 1.5350
" />
<path d="M4.3700 1.5600
L4.0210 1.5600
" />
<path d="M4.3700 1.6300
L4.3700 1.5100
" />
<path d="M4.3700 1.6300
L4.5210 1.6300
" />
<path d="M4.3700 1.6600
L4.3600 1.6600
" />
<path d="M4.3700 1.8550
L4.3600 1.8550
" />
<path d="M4.3700 2.0250
L4.3700 1.6300
" />
<path d="M4.3700 3.7250
L4.5210 3.7250
" />
<path d="M4.3700 3.8950
L4.3600 3.8950
" />
<path d="M4.3700 4.0900
L4.3600 4.0900
" />
<path d="M4.3700 4.1200
L4.3700 3.7250
" />
<path d="M4.3700 4.1200
L4.5210 4.1200
" />
<path d="M4.3700 4.1900
L4.0210 4.1900
" />
<path d="M4.3700 4.2150
L4.0210 4.2150
" />
<path d="M4.3700 4.2400
L4.3700 4.1200
" />
<path d="M4.5210 1.5100
L4.3700 1.5100
" />
<path d="M4.5210 1.6300
L4.5210 1.5100
" />
<path d="M4.5210 2.0250
L4.3700 2.0250
" />
<path d="M4.5210 2.0250
L4.5210 1.6300
" />
<path d="M4.5210 2.0250
L4.5300 2.0250
" />
<path d="M4.5210 3.7250
L4.5300 3.7250
" />
<path d="M4.5210 4.1200
L4.5210 3.7250
" />
<path d="M4.5210 4.2400
L4.3700 4.2400
" />
<path d="M4.5210 4.2400
L4.5210 4.1200
" />
<path d="M4.5300 1.6600
L4.5210 1.6600
" />
<path d="M4.5300 1.8550
L4.5210 1.8550
" />
<path d="M4.5300 1.8750
L4.5300 1.6600
" />
<path d="M4.5300 2.0250
L4.5300 1.8750
" />
<path d="M4.5300 3.8750
L4.5300 3.7250
" />
<path d="M4.5300 3.8950
L4.5210 3.8950
" />
<path d="M4.5300 4.0900
L4.5210 4.0900
" />
<path d="M4.5300 4.0900
L4.5300 3.8750
" />
<path d="M4.6100 0.7250
L4.6100 1.2260
" />
<path d="M4.6100 0.7250
L4.7800 0.7250
" />
<path d="M4.6100 1.2260
L4.6100 1.3740
" />
<path d="M4.6100 1.2260
L4.7800 1.2260
" />
<path d="M4.6100 1.3740
L4.6100 1.4600
" />
<path d="M4.6100 4.2900
L4.6100 4.3760
" />
<path d="M4.6100 4.3760
L4.6100 4.5240
" />
<path d="M4.6100 4.5240
L4.6100 5.0250
" />
<path d="M4.6100 4.5240
L4.7800 4.5240
" />
<path d="M4.6100 5.0250
L4.7800 5.0250
" />
<path d="M4.7800 0.7250
L4.7800 1.2260
" />
<path d="M4.7800 1.2260
L4.7800 1.3740
" />
<path d="M4.7800 1.3740
L4.7800 1.4600
" />
<path d="M4.7800 4.2900
L4.7800 4.3760
" />
<path d="M4.7800 4.3760
L4.7800 4.5240
" />
<path d="M4.7800 4.5240
L4.7800 5.0250
" />
<path d="M4.8600 1.6600
L4.5300 1.6600
" />
<path d="M4.8600 1.8750
L4.8600 1.6600
" />
<path d="M4.8600 2.0250
L4.5300 2.0250
" />
<path d="M4.8600 2.0250
L4.8600 1.8750
" />
<path d="M4.8600 2.0250
L4.8700 2.0250
" />
<path d="M4.8600 3.7250
L4.5300 3.7250
" />
<path d="M4.8600 3.7250
L4.8700 3.7250
" />
<path d="M4.8600 3.8750
L4.8600 3.7250
" />
<path d="M4.8600 4.0900
L4.5300 4.0900
" />
<path d="M4.8600 4.0900
L4.8600 3.8750
" />
<path d="M4.8700 1.5100
L4.5210 1.5100
" />
<path d="M4.8700 1.5350
L4.5210 1.5350
" />
<path d="M4.8700 1.5600
L4.5210 1.5600
" />
<path d="M4.8700 1.6300
L4.8700 1.5100
" />
<path d="M4.8700 1.6300
L5.0200 1.6300
" />
<path d="M4.8700 1.6600
L4.8600 1.6600
" />
<path d="M4.8700 1.8550
L4.8600 1.8550
" />
<path d="M4.8700 2.0250
L4.8700 1.6300
" />
<path d="M4.8700 3.7250
L5.0200 3.7250
" />
<path d="M4.8700 3.8950
L4.8600 3.8950
" />
<path d="M4.8700 4.0900
L4.8600 4.0900
" />
<path d="M4.8700 4.1200
L4.8700 3.7250
" />
<path d="M4.8700 4.1200
L5.0200 4.1200
" />
<path d="M4.8700 4.1900
L4.5210 4.1900
" />
<path d="M4.8700 4.2150
L4.5210 4.2150
" />
<path d="M4.8700 4.2400
L4.5210 4.2400
" />
<path d="M4.8700 4.2400
L4.8700 4.1200
" />
<path d="M5.0200 1.5100
L4.8700 1.5100
" />
<path d="M5.0200 1.6300
L5.0200 1.5100
" />
<path d="M5.0200 2.0250
L4.8700 2.0250
" />
<path d="M5.0200 2.0250
L5.0200 1.6300
" />
<path d="M5.0200 2.0250
L5.0300 2.0250
" />
<path d="M5.0200 3.7250
L5.0300 3.7250
" />
<path d="M5.0200 4.1200
L5.0200 3.7250
" />
<path d="M5.0200 4.2400
L4.8700 4.2400
" />
<path d="M5.0200 4.2400
L5.0200 4.1200
" />
<path d="M5.0300 1.6600
L5.0200 1.6600
" />
<path d="M5.0300 1.8550
L5.0200 1.8550
" />
<path d="M5.0300 1.8750
L5.0300 1.6600
" />
<path d="M5.0300 2.0250
L5.0300 1.8750
" />
<path d="M5.0300 3.8750
L5.0300 3.7250
" />
<path d="M5.0300 3.8950
L5.0200 3.8950
" />
<path d="M5.0300 4.0900
L5.0200 4.0900
" />
<path d="M5.0300 4.0900
L5.0300 3.8750
" />
<path d="M5.1100 0.7250
L5.1100 1.2260
" />
<path d="M5.1100 0.7250
L5.2800 0.7250
" />
<path d="M5.1100 1.2260
L5.1100 1.3740
" />
<path d="M5.1100 1.2260
L5.2800 1.2260
" />
<path d="M5.1100 1.3740
L5.1100 1.4600
" />
<path d="M5.1100 4.2900
L5.1100 4.3760
" />
<path d="M5.1100 4.3760
L5.1100 4.5240
" />
<path d="M5.1100 4.5240
L5.1100 5.0250
" />
<path d="M5.1100 4.5240
L5.2800 4.5240
" />
<path d="M5.1100 5.0250
L5.2800 5.0250
" />
<path d="M5.2800 0.7250
L5.2800 1.2260
" />
<path d="M5.2800 1.2260
L5.2800 1.3740
" />
<path d="M5.2800 1.3740
L5.2800 1.4600
" />
<path d="M5.2800 4.2900
L5.2800 4.3760
" />
<path d="M5.2800 4.3760
L5.2800 4.5240
" />
<path d="M5.2800 4.5240
L5.2800 5.0250
" />
<path d="M5.3600 1.6600
L5.0300 1.6600
" />
<path d="M5.3600 1.8750
L5.3600 1.6600
" />
<path d="M5.3600 2.0250
L5.0300 2.0250
" />
<path d="M5.3600 2.0250
L5.3600 1.8750
" />
<path d="M5.3600 2.0250
L5.3700 2.0250
" />
<path d="M5.3600 3.7250
L5.0300 3.7250
" />
<path d="M5.3600 3.7250
L5.3700 3.7250
" />
<path d="M5.3600 3.8750
L5.3600 3.7250
" />
<path d="M5.3600 4.0900
L5.0300 4.0900
" />
<path d="M5.3600 4.0900
L5.3600 3.8750
" />
<path d="M5.3700 1.5350
L5.0200 1.5350
" />
<path d="M5.3700 1.5600
L5.0200 1.5600
" />
<path d="M5.3700 1.6300
L5.3700 1.5100
" />
<path d="M5.3700 1.6300
L5.5200 1.6300
" />
<path d="M5.3700 1.6600
L5.3600 1.6600
" />
<path d="M5.3700 1.8550
L5.3600 1.8550
" />
<path d="M5.3700 2.0250
L5.3700 1.6300
" />
<path d="M5.3700 3.7250
L5.5200 3.7250
" />
<path d="M5.3700 3.8950
L5.3600 3.8950
" />
<path d="M5.3700 4.0900
L5.3600 4.0900
" />
<path d="M5.3700 4.1200
L5.3700 3.7250
" />
<path d="M5.3700 4.1200
L5.5200 4.1200
" />
<path d="M5.3700 4.1900
L5.0200 4.1900
" />
<path d="M5.3700 4.2150
L5.0200 4.2150
" />
<path d="M5.3700 4.2400
L5.3700 4.1200
" />
<path d="M5.5200 1.5100
L5.3700 1.5100
" />
<path d="M5.5200 1.6300
L5.5200 1.5100
" />
<path d="M5.5200 2.0250
L5.3700 2.0250
" />
<path d="M5.5200 2.0250
L5.5200 1.6300
" />
<path d="M5.5200 2.0250
L5.5300 2.0250
" />
<path d="M5.5200 3.7250
L5.5300 3.7250
" />
<path d="M5.5200 4.1200
L5.5200 3.7250
" />
<path d="M5.5200 4.2400
L5.3700 4.2400
" />
<path d="M5.5200 4.2400
L5.5200 4.1200
" />
<path d="M5.5300 1.6600
L5.5200 1.6600
" />
<path d="M5.5300 1.8550
L5.5200 1.8550
" />
<path d="M5.5300 1.8750
L5.5300 1.6600
" />
<path d="M5.5300 2.0250
L5.5300 1.8750
" />
<path d="M5.5300 3.8750
L5.5300 3.7250
" />
<path d="M5.5300 3.8950
L5.5200 3.8950
" />
<path d="M5.5300 4.0900
L5.5200 4.0900
" />
<path d="M5.5300 4.0900
L5.5300 3.8750
" />
<path d="M5.6100 0.7250
L5.6100 1.2260
" />
<path d="M5.6100 0.7250
L5.7800 0.7250
" />
<path d="M5.6100 1.2260
L5.6100 1.3740
" />
<path d="M5.6100 1.2260
L5.7800 1.2260
" />
<path d="M5.6100 1.3740
L5.6100 1.4600
" />
<path d="M5.6100 4.2900
L5.6100 4.3760
" />
<path d="M5.6100 4.3760
L5.6100 4.5240
" />
<path d="M5.6100 4.5240
L5.6100 5.0250
" />
<path d="M5.6100 4.5240
L5.7800 4.5240
" />
<path d="M5.6100 5.0250
L5.7800 5.0250
" />
<path d="M5.7800 0.7250
L5.7800 1.2260
" />
<path d="M5.7800 1.2260
L5.7800 1.3740
" />
<path d="M5.7800 1.3740
L5.7800 1.4600
" />
<path d="M5.7800 4.2900
L5.7800 4.3760
" />
<path d="M5.7800 4.3760
L5.7800 4.5240
" />
<path d="M5.7800 4.5240
L5.7800 5.0250
" />
<path d="M5.8600 1.6600
L5.5300 1.6600
" />
<path d="M5.8600 1.8750
L5.8600 1.6600
" />
<path d="M5.8600 2.0250
L5.5300 2.0250
" />
<path d="M5.8600 2.0250
L5.8600 1.8750
" />
<path d="M5.8600 2.0250
L5.8700 2.0250
" />
<path d="M5.8600 3.7250
L5.5300 3.7250
" />
<path d="M5.8600 3.7250
L5.8700 3.7250
" />
<path d="M5.8600 3.8750
L5.8600 3.7250
" />
<path d="M5.8600 4.0900
L5.5300 4.0900
" />
<path d="M5.8600 4.0900
L5.8600 3.8750
" />
<path d="M5.8700 1.5100
L5.5200 1.5100
" />
<path d="M5.8700 1.5350
L5.5200 1.5350
" />
<path d="M5.8700 1.5600
L5.5200 1.5600
" />
<path d="M5.8700 1.6300
L5.8700 1.5100
" />
<path d="M5.8700 1.6300
L6.0200 1.6300
" />
<path d="M5.8700 1.6600
L5.8600 1.6600
" />
<path d="M5.8700 1.8550
L5.8600 1.8550
" />
<path d="M5.8700 2.0250
L5.8700 1.6300
" />
<path d="M5.8700 3.7250
L6.0200 3.7250
" />
<path d="M5.8700 3.8950
L5.8600 3.8950
" />
<path d="M5.8700 4.0900
L5.8600 4.0900
" />
<path d="M5.8700 4.1200
L5.8700 3.7250
" />
<path d="M5.8700 4.1200
L6.0200 4.1200
" />
<path d="M5.8700 4.1900
L5.5200 4.1900
" />
<path d="M5.8700 4.2150
L5.5200 4.2150
" />
<path d="M5.8700 4.2400
L5.5200 4.2400
" />
<path d="M5.8700 4.2400
L5.8700 4.1200
" />
<path d="M6.0200 1.5100
L5.8700 1.5100
" />
<path d="M6.0200 1.6300
L6.0200 1.5100
" />
<path d="M6.0200 2.0250
L5.8700 2.0250
" />
<path d="M6.0200 2.0250
L6.0200 1.6300
" />
<path d="M6.0200 2.0250
L6.0300 2.0250
" />
<path d="M6.0200 3.7250
L6.0300 3.7250
" />
<path d="M6.0200 4.1200
L6.0200 3.7250
" />
<path d="M6.0200 4.2400
L5.8700 4.2400
" />
<path d="M6.0200 4.2400
L6.0200 4.1200
" />
<path d="M6.0300 1.6600
L6.0200 1.6600
" />
<path d="M6.0300 1.8550
L6.0200 1.8550
" />
<path d="M6.0300 1.8750
L6.0300 1.6600
" />
<path d="M6.0300 2.0250
L6.0300 1.8750
" />
<path d="M6.0300 3.8750
L6.0300 3.7250
" />
<path d="M6.0300 3.8950
L6.0200 3.8950
" />
<path d="M6.0300 4.0900
L6.0200 4.0900
" />
<path d="M6.0300 4.0900
L6.0300 3.8750
" />
<path d="M6.1100 0.7250
L6.1100 1.2260
" />
<path d="M6.1100 0.7250
L6.2800 0.7250
" />
<path d="M6.1100 1.2260
L6.1100 1.3740
" />
<path d="M6.1100 1.2260
L6.2800 1.2260
" />
<path d="M6.1100 1.3740
L6.1100 1.4600
" />
<path d="M6.1100 4.2900
L6.1100 4.3760
" />
<path d="M6.1100 4.3760
L6.1100 4.5240
" />
<path d="M6.1100 4.5240
L6.1100 5.0250
" />
<path d="M6.1100 4.5240
L6.2800 4.5240
" />
<path d="M6.1100 5.0250
L6.2800 5.0250
" />
<path d="M6.2800 0.7250
L6.2800 1.2260
" />
<path d="M6.2800 1.2260
L6.2800 1.3740
" />
<path d="M6.2800 1.3740
L6.2800 1.4600
" />
<path d="M6.2800 4.2900
L6.2800 4.3760
" />
<path d="M6.2800 4.3760
L6.2800 4.5240
" />
<path d="M6.2800 4.5240
L6.2800 5.0250
" />
<path d="M6.3600 1.6600
L6.0300 1.6600
" />
<path d="M6.3600 1.8750
L6.3600 1.6600
" />
<path d="M6.3600 2.0250
L6.0300 2.0250
" />
<path d="M6.3600 2.0250
L6.3600 1.8750
" />
<path d="M6.3600 2.0250
L6.3700 2.0250
" />
<path d="M6.3600 3.7250
L6.0300 3.7250
" />
<path d="M6.3600 3.7250
L6.3700 3.7250
" />
<path d="M6.3600 3.8750
L6.3600 3.7250
" />
<path d="M6.3600 4.0900
L6.0300 4.0900
" />
<path d="M6.3600 4.0900
L6.3600 3.8750
" />
<path d="M6.3700 1.5350
L6.0200 1.5350
" />
<path d="M6.3700 1.5600
L6.0200 1.5600
" />
<path d="M6.3700 1.6300
L6.3700 1.5100
" />
<path d="M6.3700 1.6300
L6.5200 1.6300
" />
<path d="M6.3700 1.6600
L6.3600 1.6600
" />
<path d="M6.3700 1.8550
L6.3600 1.8550
" />
<path d="M6.3700 2.0250
L6.3700 1.6300
" />
<path d="M6.3700 3.7250
L6.5200 3.7250
" />
<path d="M6.3700 3.8950
L6.3600 3.8950
" />
<path d="M6.3700 4.0900
L6.3600 4.0900
" />
<path d="M6.3700 4.1200
L6.3700 3.7250
" />
<path d="M6.3700 4.1200
L6.5200 4.1200
" />
<path d="M6.3700 4.1900
L6.0200 4.1900
" />
<path d="M6.3700 4.2150
L6.0200 4.2150
" />
<path d="M6.3700 4.2400
L6.3700 4.1200
" />
<path d="M6.5200 1.5100
L6.3700 1.5100
" />
<path d="M6.5200 1.6300
L6.5200 1.5100
" />
<path d="M6.5200 2.0250
L6.3700 2.0250
" />
<path d="M6.5200 2.0250
L6.5200 1.6300
" />
<path d="M6.5200 2.0250
L6.5310 2.0250
" />
<path d="M6.5200 3.7250
L6.5310 3.7250
" />
<path d="M6.5200 4.1200
L6.5200 3.7250
" />
<path d="M6.5200 4.2400
L6.3700 4.2400
" />
<path d="M6.5200 4.2400
L6.5200 4.1200
" />
<path d="M6.5310 1.6600
L6.5200 1.6600
" />
<path d="M6.5310 1.8550
L6.5200 1.8550
" />
<path d="M6.5310 1.8750
L6.5310 1.6600
" />
<path d="M6.5310 2.0250
L6.5310 1.8750
" />
<path d="M6.5310 3.8750
L6.5310 3.7250
" />
<path d="M6.5310 3.8950
L6.5200 3.8950
" />
<path d="M6.5310 4.0900
L6.5200 4.0900
" />
<path d="M6.5310 4.0900
L6.5310 3.8750
" />
<path d="M6.6100 0.7250
L6.6100 1.2260
" />
<path d="M6.6100 0.7250
L6.7800 0.7250
" />
<path d="M6.6100 1.2260
L6.6100 1.3740
" />
<path d="M6.6100 1.2260
L6.7800 1.2260
" />
<path d="M6.6100 1.3740
L6.6100 1.4600
" />
<path d="M6.6100 4.2900
L6.6100 4.3760
" />
<path d="M6.6100 4.3760
L6.6100 4.5240
" />
<path d="M6.6100 4.5240
L6.6100 5.0250
" />
<path d="M6.6100 4.5240
L6.7800 4.5240
" />
<path d="M6.6100 5.0250
L6.7800 5.0250
" />
<path d="M6.7800 0.7250
L6.7800 1.2260
" />
<path d="M6.7800 1.2260
L6.7800 1.3740
" />
<path d="M6.7800 1.3740
L6.7800 1.4600
" />
<path d="M6.7800 4.2900
L6.7800 4.3760
" />
<path d="M6.7800 4.3760
L6.7800 4.5240
" />
<path d="M6.7800 4.5240
L6.7800 5.0250
" />
<path d="M6.8600 1.6600
L6.5310 1.6600
" />
<path d="M6.8600 1.8750
L6.8600 1.6600
" />
<path d="M6.8600 2.0250
L6.5310 2.0250
" />
<path d="M6.8600 2.0250
L6.8600 1.8750
" />
<path d="M6.8600 2.0250
L6.8700 2.0250
" />
<path d="M6.8600 3.7250
L6.5310 3.7250
" />
<path d="M6.8600 3.7250
L6.8700 3.7250
" />
<path d="M6.8600 3.8750
L6.8600 3.7250
" />
<path d="M6.8600 4.0900
L6.5310 4.0900
" />
<path d="M6.8600 4.0900
L6.8600 3.8750
" />
<path d="M6.8700 1.5100
L6.5200 1.5100
" />
<path d="M6.8700 1.5350
L6.5200 1.5350
" />
<path d="M6.8700 1.5600
L6.5200 1.5600
" />
<path d="M6.8700 1.6300
L6.8700 1.5100
" />
<path d="M6.8700 1.6300
L7.0200 1.6300
" />
<path d="M6.8700 1.6600
L6.8600 1.6600
" />
<path d="M6.8700 1.8550
L6.8600 1.8550
" />
<path d="M6.8700 2.0250
L6.8700 1.6300
" />
<path d="M6.8700 3.7250
L7.0200 3.7250
" />
<path d="M6.8700 3.8950
L6.8600 3.8950
" />
<path d="M6.8700 4.0900
L6.8600 4.0900
" />
<path d="M6.8700 4.1200
L6.8700 3.7250
" />
<path d="M6.8700 4.1200
L7.0200 4.1200
" />
<path d="M6.8700 4.1900
L6.5200 4.1900
" />
<path d="M6.8700 4.2150
L6.5200 4.2150
" />
<path d="M6.8700 4.2400
L6.5200 4.2400
" />
<path d="M6.8700 4.2400
L6.8700 4.1200
" />
<path d="M7.0200 1.5100
L6.8700 1.5100
" />
<path d="M7.0200 1.6300
L7.0200 1.5100
" />
<path d="M7.0200 2.0250
L6.8700 2.0250
" />
<path d="M7.0200 2.0250
L7.0200 1.6300
" />
<path d="M7.0200 2.0250
L7.0300 2.0250
" />
<path d="M7.0200 3.7250
L7.0300 3.7250
" />
<path d="M7.0200 4.1200
L7.0200 3.7250
" />
<path d="M7.0200 4.2400
L6.8700 4.2400
" />
<path d="M7.0200 4.2400
L7.0200 4.1200
" />
<path d="M7.0300 1.6600
L7.0200 1.6600
" />
<path d="M7.0300 1.8550
L7.0200 1.8550
" />
<path d="M7.0300 1.8750
L7.0300 1.6600
" />
<path d="M7.0300 2.0250
L7.0300 1.8750
" />
<path d="M7.0300 3.8750
L7.0300 3.7250
" />
<path d="M7.0300 3.8950
L7.0200 3.8950
" />
<path d="M7.0300 4.0900
L7.0200 4.0900
" />
<path d="M7.0300 4.0900
L7.0300 3.8750
" />
<path d="M7.1100 0.7250
L7.1100 1.2260
" />
<path d="M7.1100 0.7250
L7.2800 0.7250
" />
<path d="M7.1100 1.2260
L7.1100 1.3740
" />
<path d="M7.1100 1.2260
L7.2800 1.2260
" />
<path d="M7.1100 1.3740
L7.1100 1.4600
" />
<path d="M7.1100 4.2900
L7.1100 4.3760
" />
<path d="M7.1100 4.3760
L7.1100 4.5240
" />
<path d="M7.1100 4.5240
L7.1100 5.0250
" />
<path d="M7.1100 4.5240
L7.2800 4.5240
" />
<path d="M7.1100 5.0250
L7.2800 5.0250
" />
<path d="M7.2800 0.7250
L7.2800 1.2260
" />
<path d="M7.2800 1.2260
L7.2800 1.3740
" />
<path d="M7.2800 1.3740
L7.2800 1.4600
" />
<path d="M7.2800 4.2900
L7.2800 4.3760
" />
<path d="M7.2800 4.3760
L7.2800 4.5240
" />
<path d="M7.2800 4.5240
L7.2800 5.0250
" />
<path d="M7.3590 1.6600
L7.0300 1.6600
" />
<path d="M7.3590 1.8750
L7.3590 1.6600
" />
<path d="M7.3590 2.0250
L7.0300 2.0250
" />
<path d="M7.3590 2.0250
L7.3590 1.8750
" />
<path d="M7.3590 2.0250
L7.3700 2.0250
" />
<path d="M7.3590 3.7250
L7.0300 3.7250
" />
<path d="M7.3590 3.7250
L7.3700 3.7250
" />
<path d="M7.3590 3.8750
L7.3590 3.7250
" />
<path d="M7.3590 4.0900
L7.0300 4.0900
" />
<path d="M7.3590 4.0900
L7.3590 3.8750
" />
<path d="M7.3700 1.5100
L7.0200 1.5100
" />
<path d="M7.3700 1.5350
L7.0200 1.5350
" />
<path d="M7.3700 1.5600
L7.0200 1.5600
" />
<path d="M7.3700 1.6300
L7.3700 1.5100
" />
<path d="M7.3700 1.6300
L7.5200 1.6300
" />
<path d="M7.3700 1.6600
L7.3590 1.6600
" />
<path d="M7.3700 1.8550
L7.3590 1.8550
" />
<path d="M7.3700 2.0250
L7.3700 1.6300
" />
<path d="M7.3700 3.7250
L7.5200 3.7250
" />
<path d="M7.3700 3.8950
L7.3590 3.8950
" />
<path d="M7.3700 4.0900
L7.3590 4.0900
" />
<path d="M7.3700 4.1200
L7.3700 3.7250
" />
<path d="M7.3700 4.1200
L7.5200 4.1200
" />
<path d="M7.3700 4.1900
L7.0200 4.1900
" />
<path d="M7.3700 4.2150
L7.0200 4.2150
" />
<path d="M7.3700 4.2400
L7.0200 4.2400
" />
<path d="M7.3700 4.2400
L7.3700 4.1200
" />
<path d="M7.5200 1.5100
L7.3700 1.5100
" />
<path d="M7.5200 1.6300
L7.5200 1.5100
" />
<path d="M7.5200 2.0250
L7.3700 2.0250
" />
<path d="M7.5200 2.0250
L7.5200 1.6300
" />
<path d="M7.5200 2.0250
L7.5300 2.0250
" />
<path d="M7.5200 3.7250
L7.5300 3.7250
" />
<path d="M7.5200 4.1200
L7.5200 3.7250
" />
<path d="M7.5200 4.2400
L7.3700 4.2400
" />
<path d="M7.5200 4.2400
L7.5200 4.1200
" />
<path d="M7.5300 1.6600
L7.5200 1.6600
" />
<path d="M7.5300 1.8550
L7.5200 1.8550
" />
<path d="M7.5300 1.8750
L7.5300 1.6600
" />
<path d="M7.5300 2.0250
L7.5300 1.8750
" />
<path d="M7.5300 3.8750
L7.5300 3.7250
" />
<path d="M7.5300 3.8950
L7.5200 3.8950
" />
<path d="M7.5300 4.0900
L7.5200 4.0900
" />
<path d="M7.5300 4.0900
L7.5300 3.8750
" />
<path d="M7.6100 0.7250
L7.6100 1.2260
" />
<path d="M7.6100 0.7250
L7.7800 0.7250
" />
<path d="M7.6100 1.2260
L7.6100 1.3740
" />
<path d="M7.6100 1.2260
L7.7800 1.2260
" />
<path d="M7.6100 1.3740
L7.6100 1.4600
" />
<path d="M7.6100 4.2900
L7.6100 4.3760
" />
<path d="M7.6100 4.3760
L7.6100 4.5240
" />
<path d="M7.6100 4.5240
L7.6100 5.0250
" />
<path d="M7.6100 4.5240
L7.7800 4.5240
" />
<path d="M7.6100 5.0250
L7.7800 5.0250
" />
<path d="M7.7800 0.7250
L7.7800 1.2260
" />
<path d="M7.7800 1.2260
L7.7800 1.3740
" />
<path d="M7.7800 1.3740
L7.7800 1.4600
" />
<path d="M7.7800 4.2900
L7.7800 4.3760
" />
<path d="M7.7800 4.3760
L7.7800 4.5240
" />
<path d="M7.7800 4.5240
L7.7800 5.0250
" />
<path d="M7.8600 1.6600
L7.5300 1.6600
" />
<path d="M7.8600 1.8750
L7.8600 1.6600
" />
<path d="M7.8600 2.0250
L7.5300 2.0250
" />
<path d="M7.8600 2.0250
L7.8600 1.8750
" />
<path d="M7.8600 2.0250
L7.8700 2.0250
" />
<path d="M7.8600 3.7250
L7.5300 3.7250
" />
<path d="M7.8600 3.7250
L7.8700 3.7250
" />
<path d="M7.8600 3.8750
L7.8600 3.7250
" />
<path d="M7.8600 4.0900
L7.5300 4.0900
" />
<path d="M7.8600 4.0900
L7.8600 3.8750
" />
<path d="M7.8700 1.5350
L7.5200 1.5350
" />
<path d="M7.8700 1.5600
L7.5200 1.5600
" />
<path d="M7.8700 1.6300
L7.8700 1.5100
" />
<path d="M7.8700 1.6300
L8.0200 1.6300
" />
<path d="M7.8700 1.6600
L7.8600 1.6600
" />
<path d="M7.8700 1.8550
L7.8600 1.8550
" />
<path d="M7.8700 2.0250
L7.8700 1.6300
" />
<path d="M7.8700 3.7250
L8.0200 3.7250
" />
<path d="M7.8700 3.8950
L7.8600 3.8950
" />
<path d="M7.8700 4.0900
L7.8600 4.0900
" />
<path d="M7.8700 4.1200
L7.8700 3.7250
" />
<path d="M7.8700 4.1200
L8.0200 4.1200
" />
<path d="M7.8700 4.1900
L7.5200 4.1900
" />
<path d="M7.8700 4.2150
L7.5200 4.2150
" />
<path d="M7.8700 4.2400
L7.8700 4.1200
" />
<path d="M8.0200 1.5100
L7.8700 1.5100
" />
<path d="M8.0200 1.6300
L8.0200 1.5100
" />
<path d="M8.0200 2.0250
L7.8700 2.0250
" />
<path d="M8.0200 2.0250
L8.0200 1.6300
" />
<path d="M8.0200 2.0250
L8.0300 2.0250
" />
<path d="M8.0200 3.7250
L8.0300 3.7250
" />
<path d="M8.0200 4.1200
L8.0200 3.7250
" />
<path d="M8.0200 4.2400
L7.8700 4.2400
" />
<path d="M8.0200 4.2400
L8.0200 4.1200
" />
<path d="M8.0300 1.6600
L8.0200 1.6600
" />
<path d="M8.0300 1.8550
L8.0200 1.8550
" />
<path d="M8.0300 1.8750
L8.0300 1.6600
" />
<path d="M8.0300 2.0250
L8.0300 1.8750
" />
<path d="M8.0300 3.8750
L8.0300 3.7250
" />
<path d="M8.0300 3.8950
L8.0200 3.8950
" />
<path d="M8.0300 4.0900
L8.0200 4.0900
" />
<path d="M8.0300 4.0900
L8.0300 3.8750
" />
<path d="M8.1100 0.7250
L8.1100 1.2260
" />
<path d="M8.1100 0.7250
L8.2800 0.7250
" />
<path d="M8.1100 1.2260
L8.1100 1.3740
" />
<path d="M8.1100 1.2260
L8.2800 1.2260
" />
<path d="M8.1100 1.3740
L8.1100 1.4600
" />
<path d="M8.1100 4.2900
L8.1100 4.3760
" />
<path d="M8.1100 4.3760
L8.1100 4.5240
" />
<path d="M8.1100 4.5240
L8.1100 5.0250
" />
<path d="M8.1100 4.5240
L8.2800 4.5240
" />
<path d="M8.1100 5.0250
L8.2800 5.0250
" />
<path d="M8.2800 0.7250
L8.2800 1.2260
" />
<path d="M8.2800 1.2260
L8.2800 1.3740
" />
<path d="M8.2800 1.3740
L8.2800 1.4600
" />
<path d="M8.2800 4.2900
L8.2800 4.3760
" />
<path d="M8.2800 4.3760
L8.2800 4.5240
" />
<path d="M8.2800 4.5240
L8.2800 5.0250
" />
<path d="M8.3600 1.6600
L8.0300 1.6600
" />
<path d="M8.3600 1.8750
L8.3600 1.6600
" />
<path d="M8.3600 2.0250
L8.0300 2.0250
" />
<path d="M8.3600 2.0250
L8.3600 1.8750
" />
<path d="M8.3600 2.0250
L8.3700 2.0250
" />
<path d="M8.3600 3.7250
L8.0300 3.7250
" />
<path d="M8.3600 3.7250
L8.3700 3.7250
" />
<path d="M8.3600 3.8750
L8.3600 3.7250
" />
<path d="M8.3600 4.0900
L8.0300 4.0900
" />
<path d="M8.3600 4.0900
L8.3600 3.8750
" />
<path d="M8.3700 1.5100
L8.0200 1.5100
" />
<path d="M8.3700 1.5350
L8.0200 1.5350
" />
<path d="M8.3700 1.5600
L8.0200 1.5600
" />
<path d="M8.3700 1.6300
L8.3700 1.5100
" />
<path d="M8.3700 1.6300
L8.5200 1.6300
" />
<path d="M8.3700 1.6600
L8.3600 1.6600
" />
<path d="M8.3700 1.8550
L8.3600 1.8550
" />
<path d="M8.3700 2.0250
L8.3700 1.6300
" />
<path d="M8.3700 3.7250
L8.5200 3.7250
" />
<path d="M8.3700 3.8950
L8.3600 3.8950
" />
<path d="M8.3700 4.0900
L8.3600 4.0900
" />
<path d="M8.3700 4.1200
L8.3700 3.7250
" />
<path d="M8.3700 4.1200
L8.5200 4.1200
" />
<path d="M8.3700 4.1900
L8.0200 4.1900
" />
<path d="M8.3700 4.2150
L8.0200 4.2150
" />
<path d="M8.3700 4.2400
L8.0200 4.2400
" />
<path d="M8.3700 4.2400
L8.3700 4.1200
" />
<path d="M8.5200 1.5100
L8.3700 1.5100
" />
<path d="M8.5200 1.6300
L8.5200 1.5100
" />
<path d="M8.5200 2.0250
L8.3700 2.0250
" />
<path d="M8.5200 2.0250
L8.5200 1.6300
" />
<path d="M8.5200 2.0250
L8.5300 2.0250
" />
<path d="M8.5200 3.7250
L8.5300 3.7250
" />
<path d="M8.5200 4.1200
L8.5200 3.7250
" />
<path d="M8.5200 4.2400
L8.3700 4.2400
" />
<path d="M8.5200 4.2400
L8.5200 4.1200
" />
<path d="M8.5300 1.6600
L8.5200 1.6600
" />
<path d="M8.5300 1.8550
L8.5200 1.8550
" />
<path d="M8.5300 1.8750
L8.5300 1.6600
" />
<path d="M8.5300 2.0250
L8.5300 1.8750
" />
<path d="M8.5300 3.8750
L8.5300 3.7250
" />
<path d="M8.5300 3.8950
L8.5200 3.8950
" />
<path d="M8.5300 4.0900
L8.5200 4.0900
" />
<path d="M8.5300 4.0900
L8.5300 3.8750
" />
<path d="M8.6100 0.7250
L8.6100 1.2260
" />
<path d="M8.6100 0.7250
L8.7800 0.7250
" />
<path d="M8.6100 1.2260
L8.6100 1.3740
" />
<path d="M8.6100 1.2260
L8.7800 1.2260
" />
<path d="M8.6100 1.3740
L8.6100 1.4600
" />
<path d="M8.6100 4.2900
L8.6100 4.3760
" />
<path d="M8.6100 4.3760
L8.6100 4.5240
" />
<path d="M8.6100 4.5240
L8.6100 5.0250
" />
<path d="M8.6100 4.5240
L8.7800 4.5240
" />
<path d="M8.6100 5.0250
L8.7800 5.0250
" />
<path d="M8.7800 0.7250
L8.7800 1.2260
" />
<path d="M8.7800 1.2260
L8.7800 1.3740
" />
<path d="M8.7800 1.3740
L8.7800 1.4600
" />
<path d="M8.7800 4.2900
L8.7800 4.3760
" />
<path d="M8.7800 4.3760
L8.7800 4.5240
" />
<path d="M8.7800 4.5240
L8.7800 5.0250
" />
<path d="M8.8600 1.6600
L8.5300 1.6600
" />
<path d="M8.8600 1.8750
L8.8600 1.6600
" />
<path d="M8.8600 2.0250
L8.5300 2.0250
" />
<path d="M8.8600 2.0250
L8.8600 1.8750
" />
<path d="M8.8600 2.0250
L8.8700 2.0250
" />
<path d="M8.8600 3.7250
L8.5300 3.7250
" />
<path d="M8.8600 3.7250
L8.8700 3.7250
" />
<path d="M8.8600 3.8750
L8.8600 3.7250
" />
<path d="M8.8600 4.0900
L8.5300 4.0900
" />
<path d="M8.8600 4.0900
L8.8600 3.8750
" />
<path d="M8.8700 1.5350
L8.5200 1.5350
" />
<path d="M8.8700 1.5600
L8.5200 1.5600
" />
<path d="M8.8700 1.6300
L8.8700 1.5100
" />
<path d="M8.8700 1.6300
L9.0200 1.6300
" />
<path d="M8.8700 1.6600
L8.8600 1.6600
" />
<path d="M8.8700 1.8550
L8.8600 1.8550
" />
<path d="M8.8700 2.0250
L8.8700 1.6300
" />
<path d="M8.8700 3.7250
L9.0200 3.7250
" />
<path d="M8.8700 3.8950
L8.8600 3.8950
" />
<path d="M8.8700 4.0900
L8.8600 4.0900
" />
<path d="M8.8700 4.1200
L8.8700 3.7250
" />
<path d="M8.8700 4.1200
L9.0200 4.1200
" />
<path d="M8.8700 4.1900
L8.5200 4.1900
" />
<path d="M8.8700 4.2150
L8.5200 4.2150
" />
<path d="M8.8700 4.2400
L8.8700 4.1200
" />
<path d="M9.0200 1.5100
L8.8700 1.5100
" />
<path d="M9.0200 1.6300
L9.0200 1.5100
" />
<path d="M9.0200 2.0250
L8.8700 2.0250
" />
<path d="M9.0200 2.0250
L9.0200 1.6300
" />
<path d="M9.0200 2.0250
L9.0300 2.0250
" />
<path d="M9.0200 3.7250
L9.0300 3.7250
" />
<path d="M9.0200 4.1200
L9.0200 3.7250
" />
<path d="M9.0200 4.2400
L8.8700 4.2400
" />
<path d="M9.0200 4.2400
L9.0200 4.1200
" />
<path d="M9.0300 1.6600
L9.0200 1.6600
" />
<path d="M9.0300 1.8550
L9.0200 1.8550
" />
<path d="M9.0300 1.8750
L9.0300 1.6600
" />
<path d="M9.0300 2.0250
L9.0300 1.8750
" />
<path d="M9.0300 3.8750
L9.0300 3.7250
" />
<path d="M9.0300 3.8950
L9.0200 3.8950
" />
<path d="M9.0300 4.0900
L9.0200 4.0900
" />
<path d="M9.0300 4.0900
L9.0300 3.8750
" />
<path d="M9.1100 0.7250
L9.1100 1.2260
" />
<path d="M9.1100 0.7250
L9.2800 0.7250
" />
<path d="M9.1100 1.2260
L9.1100 1.3740
" />
<path d="M9.1100 1.2260
L9.2800 1.2260
" />
<path d="M9.1100 1.3740
L9.1100 1.4600
" />
<path d="M9.1100 4.2900
L9.1100 4.3760
" />
<path d="M9.1100 4.3760
L9.1100 4.5240
" />
<path d="M9.1100 4.5240
L9.1100 5.0250
" />
<path d="M9.1100 4.5240
L9.2800 4.5240
" />
<path d="M9.1100 5.0250
L9.2800 5.0250
" />
<path d="M9.2800 0.7250
L9.2800 1.2260
" />
<path d="M9.2800 1.2260
L9.2800 1.3740
" />
<path d="M9.2800 1.3740
L9.2800 1.4600
" />
<path d="M9.2800 4.2900
L9.2800 4.3760
" />
<path d="M9.2800 4.3760
L9.2800 4.5240
" />
<path d="M9.2800 4.5240
L9.2800 5.0250
" />
<path d="M9.3600 1.6600
L9.0300 1.6600
" />
<path d="M9.3600 1.8750
L9.3600 1.6600
" />
<path d="M9.3600 2.0250
L9.0300 2.0250
" />
<path d="M9.3600 2.0250
L9.3600 1.8750
" />
<path d="M9.3600 2.0250
L9.3690 2.0250
" />
<path d="M9.3600 3.7250
L9.0300 3.7250
" />
<path d="M9.3600 3.7250
L9.3690 3.7250
" />
<path d="M9.3600 3.8750
L9.3600 3.7250
" />
<path d="M9.3600 4.0900
L9.0300 4.0900
" />
<path d="M9.3600 4.0900
L9.3600 3.8750
" />
<path d="M9.3690 1.5100
L9.0200 1.5100
" />
<path d="M9.3690 1.5350
L9.0200 1.5350
" />
<path d="M9.3690 1.5600
L9.0200 1.5600
" />
<path d="M9.3690 1.6300
L9.3690 1.5100
" />
<path d="M9.3690 1.6300
L9.5200 1.6300
" />
<path d="M9.3690 1.6600
L9.3600 1.6600
" />
<path d="M9.3690 1.8550
L9.3600 1.8550
" />
<path d="M9.3690 2.0250
L9.3690 1.6300
" />
<path d="M9.3690 3.7250
L9.5200 3.7250
" />
<path d="M9.3690 3.8950
L9.3600 3.8950
" />
<path d="M9.3690 4.0900
L9.3600 4.0900
" />
<path d="M9.3690 4.1200
L9.3690 3.7250
" />
<path d="M9.3690 4.1200
L9.5200 4.1200
" />
<path d="M9.3690 4.1900
L9.0200 4.1900
" />
<path d="M9.3690 4.2150
L9.0200 4.2150
" />
<path d="M9.3690 4.2400
L9.0200 4.2400
" />
<path d="M9.3690 4.2400
L9.3690 4.1200
" />
<path d="M9.5200 1.5100
L9.3690 1.5100
" />
<path d="M9.5200 1.6300
L9.5200 1.5100
" />
<path d="M9.5200 2.0250
L9.3690 2.0250
" />
<path d="M9.5200 2.0250
L9.5200 1.6300
" />
<path d="M9.5200 2.0250
L9.5300 2.0250
" />
<path d="M9.5200 3.7250
L9.5300 3.7250
" />
<path d="M9.5200 4.1200
L9.5200 3.7250
" />
<path d="M9.5200 4.2400
L9.3690 4.2400
" />
<path d="M9.5200 4.2400
L9.5200 4.1200
" />
<path d="M9.5300 1.6600
L9.5200 1.6600
" />
<path d="M9.5300 1.8550
L9.5200 1.8550
" />
<path d="M9.5300 1.8750
L9.5300 1.6600
" />
<path d="M9.5300 2.0250
L9.5300 1.8750
" />
<path d="M9.5300 3.8750
L9.5300 3.7250
" />
<path d="M9.5300 3.8950
L9.5200 3.8950
" />
<path d="M9.5300 4.0900
L9.5200 4.0900
" />
<path d="M9.5300 4.0900
L9.5300 3.8750
" />
<path d="M9.6100 0.7250
L9.6100 1.2260
" />
<path d="M9.6100 0.7250
L9.7800 0.7250
" />
<path d="M9.6100 1.2260
L9.6100 1.3740
" />
<path d="M9.6100 1.2260
L9.7800 1.2260
" />
<path d="M9.6100 1.3740
L9.6100 1.4600
" />
<path d="M9.6100 4.2900
L9.6100 4.3760
" />
<path d="M9.6100 4.3760
L9.6100 4.5240
" />
<path d="M9.6100 4.5240
L9.6100 5.0250
" />
<path d="M9.6100 4.5240
L9.7800 4.5240
" />
<path d="M9.6100 5.0250
L9.7800 5.0250
" />
<path d="M9.7800 0.7250
L9.7800 1.2260
" />
<path d="M9.7800 1.2260
L9.7800 1.3740
" />
<path d="M9.7800 1.3740
L9.7800 1.4600
" />
<path d="M9.7800 4.2900
L9.7800 4.3760
" />
<path d="M9.7800 4.3760
L9.7800 4.5240
" />
<path d="M9.7800 4.5240
L9.7800 5.0250
" />
<path d="M9.8600 1.6600
L9.5300 1.6600
" />
<path d="M9.8600 1.8750
L9.8600 1.6600
" />
<path d="M9.8600 2.0250
L9.5300 2.0250
" />
<path d="M9.8600 2.0250
L9.8600 1.8750
" />
<path d="M9.8600 2.0250
L9.8690 2.0250
" />
<path d="M9.8600 3.7250
L9.5300 3.7250
" />
<path d="M9.8600 3.7250
L9.8690 3.7250
" />
<path d="M9.8600 3.8750
L9.8600 3.7250
" />
<path d="M9.8600 4.0900
L9.5300 4.0900
" />
<path d="M9.8600 4.0900
L9.8600 3.8750
" />
<path d="M9.8690 1.5350
L9.5200 1.5350
" />
<path d="M9.8690 1.5600
L9.5200 1.5600
" />
<path d="M9.8690 1.6300
L9.8690 1.5100
" />
<path d="M9.8690 1.6300
L10.0200 1.6300
" />
<path d="M9.8690 1.6600
L9.8600 1.6600
" />
<path d="M9.8690 1.8550
L9.8600 1.8550
" />
<path d="M9.8690 2.0250
L9.8690 1.6300
" />
<path d="M9.8690 3.7250
L10.0200 3.7250
" />
<path d="M9.8690 3.8950
L9.8600 3.8950
" />
<path d="M9.8690 4.0900
L9.8600 4.0900
" />
<path d="M9.8690 4.1200
L9.8690 3.7250
" />
<path d="M9.8690 4.1200
L10.0200 4.1200
" />
<path d="M9.8690 4.1900
L9.5200 4.1900
" />
<path d="M9.8690 4.2150
L9.5200 4.2150
" />
<path d="M9.8690 4.2400
L9.8690 4.1200
" />
<path d="M10.0200 1.5100
L9.8690 1.5100
" />
<path d="M10.0200 1.6300
L10.0200 1.5100
" />
<path d="M10.0200 2.0250
L9.8690 2.0250
" />
<path d="M10.0200 2.0250
L10.0200 1.6300
" />
<path d="M10.0200 2.0250
L10.0300 2.0250
" />
<path d="M10.0200 3.7250
L10.0300 3.7250
" />
<path d="M10.0200 4.1200
L10.0200 3.7250
" />
<path d="M10.0200 4.2400
L9.8690 4.2400
" />
<path d="M10.0200 4.2400
L10.0200 4.1200
" />
<path d="M10.0300 1.6600
L10.0200 1.6600
" />
<path d="M10.0300 1.8550
L10.0200 1.8550
" />
<path d="M10.0300 1.8750
L10.0300 1.6600
" />
<path d="M10.0300 2.0250
L10.0300 1.8750
" />
<path d="M10.0300 3.8750
L10.0300 3.7250
" />
<path d="M10.0300 3.8950
L10.0200 3.8950
" />
<path d="M10.0300 4.0900
L10.0200 4.0900
" />
<path d="M10.0300 4.0900
L10.0300 3.8750
" />
<path d="M10.1100 0.7250
L10.1100 1.2260
" />
<path d="M10.1100 0.7250
L10.2800 0.7250
" />
<path d="M10.1100 1.2260
L10.1100 1.3740
" />
<path d="M10.1100 1.2260
L10.2800 1.2260
" />
<path d="M10.1100 1.3740
L10.1100 1.4600
" />
<path d="M10.1100 4.2900
L10.1100 4.3760
" />
<path d="M10.1100 4.3760
L10.1100 4.5240
" />
<path d="M10.1100 4.5240
L10.1100 5.0250
" />
<path d="M10.1100 4.5240
L10.2800 4.5240
" />
<path d="M10.1100 5.0250
L10.2800 5.0250
" />
<path d="M10.2800 0.7250
L10.2800 1.2260
" />
<path d="M10.2800 1.2260
L10.2800 1.3740
" />
<path d="M10.2800 1.3740
L10.2800 1.4600
" />
<path d="M10.2800 4.2900
L10.2800 4.3760
" />
<path d="M10.2800 4.3760
L10.2800 4.5240
" />
<path d="M10.2800 4.5240
L10.2800 5.0250
" />
<path d="M10.3600 1.6600
L10.0300 1.6600
" />
<path d="M10.3600 1.8750
L10.3600 1.6600
" />
<path d="M10.3600 2.0250
L10.0300 2.0250
" />
<path d="M10.3600 2.0250
L10.3600 1.8750
" />
<path d="M10.3600 2.0250
L10.3690 2.0250
" />
<path d="M10.3600 3.7250
L10.0300 3.7250
" />
<path d="M10.3600 3.7250
L10.3690 3.7250
" />
<path d="M10.3600 3.8750
L10.3600 3.7250
" />
<path d="M10.3600 4.0900
L10.0300 4.0900
" />
<path d="M10.3600 4.0900
L10.3600 3.8750
" />
<path d="M10.3690 1.5100
L10.0200 1.5100
" />
<path d="M10.3690 1.5350
L10.0200 1.5350
" />
<path d="M10.3690 1.5600
L10.0200 1.5600
" />
<path d="M10.3690 1.6300
L10.3690 1.5100
" />
<path d="M10.3690 1.6300
L10.5200 1.6300
" />
<path d="M10.3690 1.6600
L10.3600 1.6600
" />
<path d="M10.3690 1.8550
L10.3600 1.8550
" />
<path d="M10.3690 2.0250
L10.3690 1.6300
" />
<path d="M10.3690 3.7250
L10.5200 3.7250
" />
<path d="M10.3690 3.8950
L10.3600 3.8950
" />
<path d="M10.3690 4.0900
L10.3600 4.0900
" />
<path d="M10.3690 4.1200
L10.3690 3.7250
" />
<path d="M10.3690 4.1200
L10.5200 4.1200
" />
<path d="M10.3690 4.1900
L10.0200 4.1900
" />
<path d="M10.3690 4.2150
L10.0200 4.2150
" />
<path d="M10.3690 4.2400
L10.0200 4.2400
" />
<path d="M10.3690 4.2400
L10.3690 4.1200
" />
<path d="M10.5200 1.5100
L10.3690 1.5100
" />
<path d="M10.5200 1.6300
L10.5200 1.5100
" />
<path d="M10.5200 2.0250
L10.3690 2.0250
" />
<path d="M10.5200 2.0250
L10.5200 1.6300
" />
<path d="M10.5200 2.0250
L10.5300 2.0250
" />
<path d="M10.5200 3.7250
L10.5300 3.7250
" />
<path d="M10.5200 4.1200
L10.5200 3.7250
" />
<path d="M10.5200 4.2400
L10.3690 4.2400
" />
<path d="M10.5200 4.2400
L10.5200 4.1200
" />
<path d="M10.5300 1.6600
L10.5200 1.6600
" />
<path d="M10.5300 1.8550
L10.5200 1.8550
" />
<path d="M10.5300 1.8750
L10.5300 1.6600
" />
<path d="M10.5300 2.0250
L10.5300 1.8750
" />
<path d="M10.5300 3.8750
L10.5300 3.7250
" />
<path d="M10.5300 3.8950
L10.5200 3.8950
" />
<path d="M10.5300 4.0900
L10.5200 4.0900
" />
<path d="M10.5300 4.0900
L10.5300 3.8750
" />
<path d="M10.6100 0.7250
L10.6100 1.2260
" />
<path d="M10.6100 0.7250
L10.7800 0.7250
" />
<path d="M10.6100 1.2260
L10.6100 1.3740
" />
<path d="M10.6100 1.2260
L10.7800 1.2260
" />
<path d="M10.6100 1.3740
L10.6100 1.4600
" />
<path d="M10.6100 4.2900
L10.6100 4.3760
" />
<path d="M10.6100 4.3760
L10.6100 4.5240
" />
<path d="M10.6100 4.5240
L10.6100 5.0250
" />
<path d="M10.6100 4.5240
L10.7800 4.5240
" />
<path d="M10.6100 5.0250
L10.7800 5.0250
" />
<path d="M10.7800 0.7250
L10.7800 1.2260
" />
<path d="M10.7800 1.2260
L10.7800 1.3740
" />
<path d="M10.7800 1.3740
L10.7800 1.4600
" />
<path d="M10.7800 4.2900
L10.7800 4.3760
" />
<path d="M10.7800 4.3760
L10.7800 4.5240
" />
<path d="M10.7800 4.5240
L10.7800 5.0250
" />
<path d="M10.8600 1.6600
L10.5300 1.6600
" />
<path d="M10.8600 1.8750
L10.8600 1.6600
" />
<path d="M10.8600 2.0250
L10.5300 2.0250
" />
<path d="M10.8600 2.0250
L10.8600 1.8750
" />
<path d="M10.8600 2.0250
L10.8690 2.0250
" />
<path d="M10.8600 3.7250
L10.5300 3.7250
" />
<path d="M10.8600 3.7250
L10.8690 3.7250
" />
<path d="M10.8600 3.8750
L10.8600 3.7250
" />
<path d="M10.8600 4.0900
L10.5300 4.0900
" />
<path d="M10.8600 4.0900
L10.8600 3.8750
" />
<path d="M10.8690 1.5350
L10.5200 1.5350
" />
<path d="M10.8690 1.5600
L10.5200 1.5600
" />
<path d="M10.8690 1.6300
L10.8690 1.5100
" />
<path d="M10.8690 1.6300
L11.0200 1.6300
" />
<path d="M10.8690 1.6600
L10.8600 1.6600
" />
<path d="M10.8690 1.8550
L10.8600 1.8550
" />
<path d="M10.8690 2.0250
L10.8690 1.6300
" />
<path d="M10.8690 3.7250
L11.0200 3.7250
" />
<path d="M10.8690 3.8950
L10.8600 3.8950
" />
<path d="M10.8690 4.0900
L10.8600 4.0900
" />
<path d="M10.8690 4.1200
L10.8690 3.7250
" />
<path d="M10.8690 4.1200
L11.0200 4.1200
" />
<path d="M10.8690 4.1900
L10.5200 4.1900
" />
<path d="M10.8690 4.2150
L10.5200 4.2150
" />
<path d="M10.8690 4.2400
L10.8690 4.1200
" />
<path d="M11.0200 1.5100
L10.8690 1.5100
" />
<path d="M11.0200 1.6300
L11.0200 1.5100
" />
<path d="M11.0200 2.0250
L10.8690 2.0250
" />
<path d="M11.0200 2.0250
L11.0200 1.6300
" />
<path d="M11.0200 2.0250
L11.0300 2.0250
" />
<path d="M11.0200 3.7250
L11.0300 3.7250
" />
<path d="M11.0200 4.1200
L11.0200 3.7250
" />
<path d="M11.0200 4.2400
L10.8690 4.2400
" />
<path d="M11.0200 4.2400
L11.0200 4.1200
" />
<path d="M11.0300 1.6600
L11.0200 1.6600
" />
<path d="M11.0300 1.8550
L11.0200 1.8550
" />
<path d="M11.0300 1.8750
L11.0300 1.6600
" />
<path d="M11.0300 2.0250
L11.0300 1.8750
" />
<path d="M11.0300 3.8750
L11.0300 3.7250
" />
<path d="M11.0300 3.8950
L11.0200 3.8950
" />
<path d="M11.0300 4.0900
L11.0200 4.0900
" />
<path d="M11.0300 4.0900
L11.0300 3.8750
" />
<path d="M11.1100 0.7250
L11.1100 1.2260
" />
<path d="M11.1100 0.7250
L11.2800 0.7250
" />
<path d="M11.1100 1.2260
L11.1100 1.3740
" />
<path d="M11.1100 1.2260
L11.2800 1.2260
" />
<path d="M11.1100 1.3740
L11.1100 1.4600
" />
<path d="M11.1100 4.2900
L11.1100 4.3760
" />
<path d="M11.1100 4.3760
L11.1100 4.5240
" />
<path d="M11.1100 4.5240
L11.1100 5.0250
" />
<path d="M11.1100 4.5240
L11.2800 4.5240
" />
<path d="M11.1100 5.0250
L11.2800 5.0250
" />
<path d="M11.2800 0.7250
L11.2800 1.2260
" />
<path d="M11.2800 1.2260
L11.2800 1.3740
" />
<path d="M11.2800 1.3740
L11.2800 1.4600
" />
<path d="M11.2800 4.2900
L11.2800 4.3760
" />
<path d="M11.2800 4.3760
L11.2800 4.5240
" />
<path d="M11.2800 4.5240
L11.2800 5.0250
" />
<path d="M11.3600 1.6600
L11.0300 1.6600
" />
<path d="M11.3600 1.8750
L11.3600 1.6600
" />
<path d="M11.3600 2.0250
L11.0300 2.0250
" />
<path d="M11.3600 2.0250
L11.3600 1.8750
" />
<path d="M11.3600 2.0250
L11.3700 2.0250
" />
<path d="M11.3600 3.7250
L11.0300 3.7250
" />
<path d="M11.3600 3.7250
L11.3700 3.7250
" />
<path d="M11.3600 3.8750
L11.3600 3.7250
" />
<path d="M11.3600 4.0900
L11.0300 4.0900
" />
<path d="M11.3600 4.0900
L11.3600 3.8750
" />
<path d="M11.3700 1.5100
L11.0200 1.5100
" />
<path d="M11.3700 1.5350
L11.0200 1.5350
" />
<path d="M11.3700 1.5600
L11.0200 1.5600
" />
<path d="M11.3700 1.6300
L11.3700 1.5100
" />
<path d="M11.3700 1.6300
L11.5200 1.6300
" />
<path d="M11.3700 1.6600
L11.3600 1.6600
" />
<path d="M11.3700 1.8550
L11.3600 1.8550
" />
<path d="M11.3700 2.0250
L11.3700 1.6300
" />
<path d="M11.3700 3.7250
L11.5200 3.7250
" />
<path d="M11.3700 3.8950
L11.3600 3.8950
" />
<path d="M11.3700 4.0900
L11.3600 4.0900
" />
<path d="M11.3700 4.1200
L11.3700 3.7250
" />
<path d="M11.3700 4.1200
L11.5200 4.1200
" />
<path d="M11.3700 4.1900
L11.0200 4.1900
" />
<path d="M11.3700 4.2150
L11.0200 4.2150
" />
<path d="M11.3700 4.2400
L11.0200 4.2400
" />
<path d="M11.3700 4.2400
L11.3700 4.1200
" />
<path d="M11.5200 1.5100
L11.3700 1.5100
" />
<path d="M11.5200 1.6300
L11.5200 1.5100
" />
<path d="M11.5200 2.0250
L11.3700 2.0250
" />
<path d="M11.5200 2.0250
L11.5200 1.6300
" />
<path d="M11.5200 2.0250
L11.5300 2.0250
" />
<path d="M11.5200 3.7250
L11.5300 3.7250
" />
<path d="M11.5200 4.1200
L11.5200 3.7250
" />
<path d="M11.5200 4.2400
L11.3700 4.2400
" />
<path d="M11.5200 4.2400
L11.5200 4.1200
" />
<path d="M11.5300 1.6600
L11.5200 1.6600
" />
<path d="M11.5300 1.8550
L11.5200 1.8550
" />
<path d="M11.5300 1.8750
L11.5300 1.6600
" />
<path d="M11.5300 2.0250
L11.5300 1.8750
" />
<path d="M11.5300 3.8750
L11.5300 3.7250
" />
<path d="M11.5300 3.8950
L11.5200 3.8950
" />
<path d="M11.5300 4.0900
L11.5200 4.0900
" />
<path d="M11.5300 4.0900
L11.5300 3.8750
" />
<path d="M11.5450 0.4250
L11.8450 0.4250
" />
<path d="M11.5450 1.4250
L11.5450 0.4250
" />
<path d="M11.5450 4.3250
L11.6100 4.3250
" />
<path d="M11.5450 5.3250
L11.5450 4.3250
" />
<path d="M11.6100 0.7250
L11.6100 1.2260
" />
<path d="M11.6100 0.7250
L11.7800 0.7250
" />
<path d="M11.6100 1.2260
L11.6100 1.3740
" />
<path d="M11.6100 1.2260
L11.7800 1.2260
" />
<path d="M11.6100 1.3740
L11.6100 1.4600
" />
<path d="M11.6100 1.4250
L11.5450 1.4250
" />
<path d="M11.6100 4.2900
L11.6100 4.3760
" />
<path d="M11.6100 4.3760
L11.6100 4.5240
" />
<path d="M11.6100 4.5240
L11.6100 5.0250
" />
<path d="M11.6100 4.5240
L11.7800 4.5240
" />
<path d="M11.6100 5.0250
L11.7800 5.0250
" />
<path d="M11.7800 0.7250
L11.7800 1.2260
" />
<path d="M11.7800 1.2260
L11.7800 1.3740
" />
<path d="M11.7800 1.3740
L11.7800 1.4600
" />
<path d="M11.7800 4.2900
L11.7800 4.3760
" />
<path d="M11.7800 4.3250
L11.8450 4.3250
" />
<path d="M11.7800 4.3760
L11.7800 4.5240
" />
<path d="M11.7800 4.5240
L11.7800 5.0250
" />
<path d="M11.8450 0.4250
L11.8450 1.4250
" />
<path d="M11.8450 1.4250
L11.7800 1.4250
" />
<path d="M11.8450 4.3250
L11.8450 5.3250
" />
<path d="M11.8450 5.3250
L11.5450 5.3250
" />
<path d="M11.8600 1.6600
L11.5300 1.6600
" />
<path d="M11.8600 1.8750
L11.8600 1.6600
" />
<path d="M11.8600 2.0250
L11.5300 2.0250
" />
<path d="M11.8600 2.0250
L11.8600 1.8750
" />
<path d="M11.8600 2.0250
L11.8700 2.0250
" />
<path d="M11.8600 3.7250
L11.5300 3.7250
" />
<path d="M11.8600 3.7250
L11.8700 3.7250
" />
<path d="M11.8600 3.8750
L11.8600 3.7250
" />
<path d="M11.8600 4.0900
L11.5300 4.0900
" />
<path d="M11.8600 4.0900
L11.8600 3.8750
" />
<path d="M11.8700 1.5350
L11.5200 1.5350
" />
<path d="M11.8700 1.5600
L11.5200 1.5600
" />
<path d="M11.8700 1.6300
L11.8700 1.5100
" />
<path d="M11.8700 1.6300
L12.1200 1.6300
" />
<path d="M11.8700 1.6600
L11.8600 1.6600
" />
<path d="M11.8700 1.8550
L11.8600 1.8550
" />
<path d="M11.8700 1.9260
L11.8700 1.6300
" />
<path d="M11.8700 1.9260
L11.8700 2.0250
" />
<path d="M11.8700 3.7250
L12.1200 3.7250
" />
<path d="M11.8700 3.8240
L11.8700 3.7250
" />
<path d="M11.8700 3.8240
L12.1200 3.8240
" />
<path d="M11.8700 3.8950
L11.8600 3.8950
" />
<path d="M11.8700 4.0900
L11.8600 4.0900
" />
<path d="M11.8700 4.1200
L11.8700 3.8240
" />
<path d="M11.8700 4.1200
L12.1200 4.1200
" />
<path d="M11.8700 4.1900
L11.5200 4.1900
" />
<path d="M11.8700 4.2150
L11.5200 4.2150
" />
<path d="M11.8700 4.2400
L11.8700 4.1200
" />
<path d="M12.1200 1.4600
L13.1690 1.4600
" />
<path d="M12.1200 1.5100
L11.8700 1.5100
" />
<path d="M12.1200 1.5600
L12.1200 1.4600
" />
<path d="M12.1200 1.5600
L13.1690 1.5600
" />
<path d="M12.1200 1.6300
L12.1200 1.5600
" />
<path d="M12.1200 1.9260
L11.8700 1.9260
" />
<path d="M12.1200 2.0250
L11.8700 2.0250
" />
<path d="M12.1200 3.7250
L12.1250 3.7240
" />
<path d="M12.1200 3.8240
L12.1300 3.8240
" />
<path d="M12.1200 4.1200
L12.1200 4.1900
" />
<path d="M12.1200 4.1900
L13.1690 4.1900
" />
<path d="M12.1200 4.2400
L11.8700 4.2400
" />
<path d="M12.1200 4.2900
L12.1200 4.1900
" />
<path d="M12.1200 4.2900
L13.1690 4.2900
" />
<path d="M12.1250 2.0260
L12.1200 2.0250
" />
<path d="M12.1250 3.7240
L12.1300 3.7240
" />
<path d="M12.1300 1.9260
L12.1200 1.9260
" />
<path d="M12.1300 2.0260
L12.1250 2.0260
" />
<path d="M12.1300 3.7240
L12.1350 3.7230
" />
<path d="M12.1300 3.8240
L12.1400 3.8230
" />
<path d="M12.1350 2.0270
L12.1300 2.0260
" />
<path d="M12.1350 3.7230
L12.1400 3.7220
" />
<path d="M12.1400 1.9270
L12.1300 1.9260
" />
<path d="M12.1400 2.0280
L12.1350 2.0270
" />
<path d="M12.1400 3.7220
L12.1440 3.7210
" />
<path d="M12.1400 3.8230
L12.1500 3.8220
" />
<path d="M12.1440 2.0290
L12.1400 2.0280
" />
<path d="M12.1440 3.7210
L12.1490 3.7200
" />
<path d="M12.1490 2.0300
L12.1440 2.0290
" />
<path d="M12.1490 3.7200
L12.1540 3.7180
" />
<path d="M12.1500 1.9280
L12.1400 1.9270
" />
<path d="M12.1500 3.8220
L12.1600 3.8200
" />
<path d="M12.1540 2.0320
L12.1490 2.0300
" />
<path d="M12.1540 3.7180
L12.1580 3.7170
" />
<path d="M12.1580 2.0330
L12.1540 2.0320
" />
<path d="M12.1580 3.7170
L12.1630 3.7150
" />
<path d="M12.1600 1.9300
L12.1500 1.9280
" />
<path d="M12.1600 3.8200
L12.1690 3.8180
" />
<path d="M12.1630 2.0350
L12.1580 2.0330
" />
<path d="M12.1630 3.7150
L12.1670 3.7120
" />
<path d="M12.1670 2.0380
L12.1630 2.0350
" />
<path d="M12.1670 3.7120
L12.1710 3.7100
" />
<path d="M12.1690 0.8600
L13.4700 0.8600
" />
<path d="M12.1690 1.4250
L12.1690 0.8600
" />
<path d="M12.1690 1.4250
L12.1810 1.4260
" />
<path d="M12.1690 1.9320
L12.1600 1.9300
" />
<path d="M12.1690 3.8180
L12.1790 3.8160
" />
<path d="M12.1690 4.8900
L12.1690 4.3250
" />
<path d="M12.1710 2.0400
L12.1670 2.0380
" />
<path d="M12.1710 3.7100
L12.1750 3.7070
" />
<path d="M12.1750 2.0430
L12.1710 2.0400
" />
<path d="M12.1750 3.7070
L12.1790 3.7050
" />
<path d="M12.1790 1.9340
L12.1690 1.9320
" />
<path d="M12.1790 2.0450
L12.1750 2.0430
" />
<path d="M12.1790 3.7050
L12.1830 3.7020
" />
<path d="M12.1790 3.8160
L12.1880 3.8120
" />
<path d="M12.1810 1.4260
L12.1930 1.4260
" />
<path d="M12.1810 4.3240
L12.1690 4.3250
" />
<path d="M12.1830 2.0480
L12.1790 2.0450
" />
<path d="M12.1830 3.7020
L12.1870 3.6990
" />
<path d="M12.1870 2.0510
L12.1830 2.0480
" />
<path d="M12.1870 3.6990
L12.1900 3.6950
" />
<path d="M12.1880 1.9380
L12.1790 1.9340
" />
<path d="M12.1880 3.8120
L12.1970 3.8090
" />
<path d="M12.1900 2.0550
L12.1870 2.0510
" />
<path d="M12.1900 3.6950
L12.1940 3.6920
" />
<path d="M12.1930 1.4260
L12.2050 1.4270
" />
<path d="M12.1930 4.3240
L12.1810 4.3240
" />
<path d="M12.1940 2.0580
L12.1900 2.0550
" />
<path d="M12.1940 3.6920
L12.1970 3.6880
" />
<path d="M12.1970 1.9410
L12.1880 1.9380
" />
<path d="M12.1970 2.0620
L12.1940 2.0580
" />
<path d="M12.1970 3.6880
L12.2000 3.6840
" />
<path d="M12.1970 3.8090
L12.2060 3.8050
" />
<path d="M12.2000 2.0660
L12.1970 2.0620
" />
<path d="M12.2000 3.6840
L12.2020 3.6800
" />
<path d="M12.2020 2.0700
L12.2000 2.0660
" />
<path d="M12.2020 3.6800
L12.2050 3.6760
" />
<path d="M12.2050 1.4270
L12.2170 1.4280
" />
<path d="M12.2050 2.0740
L12.2020 2.0700
" />
<path d="M12.2050 3.6760
L12.2070 3.6720
" />
<path d="M12.2050 4.3230
L12.1930 4.3240
" />
<path d="M12.2060 1.9450
L12.1970 1.9410
" />
<path d="M12.2060 3.8050
L12.2150 3.8000
" />
<path d="M12.2070 2.0780
L12.2050 2.0740
" />
<path d="M12.2070 3.6720
L12.2100 3.6680
" />
<path d="M12.2100 2.0820
L12.2070 2.0780
" />
<path d="M12.2100 3.6680
L12.2120 3.6630
" />
<path d="M12.2120 2.0870
L12.2100 2.0820
" />
<path d="M12.2120 3.6630
L12.2130 3.6590
" />
<path d="M12.2130 2.0910
L12.2120 2.0870
" />
<path d="M12.2130 3.6590
L12.2150 3.6540
" />
<path d="M12.2150 1.9500
L12.2060 1.9450
" />
<path d="M12.2150 2.0960
L12.2130 2.0910
" />
<path d="M12.2150 3.6540
L12.2160 3.6490
" />
<path d="M12.2150 3.8000
L12.2230 3.7960
" />
<path d="M12.2160 2.1010
L12.2150 2.0960
" />
<path d="M12.2160 3.6490
L12.2170 3.6450
" />
<path d="M12.2170 1.4280
L12.2290 1.4290
" />
<path d="M12.2170 2.1050
L12.2160 2.1010
" />
<path d="M12.2170 3.6450
L12.2180 3.6400
" />
<path d="M12.2170 4.3220
L12.2050 4.3230
" />
<path d="M12.2180 2.1100
L12.2170 2.1050
" />
<path d="M12.2180 3.6400
L12.2190 3.6350
" />
<path d="M12.2190 2.1150
L12.2180 2.1100
" />
<path d="M12.2190 2.1200
L12.2190 2.1150
" />
<path d="M12.2190 3.6300
L12.2200 3.6250
" />
<path d="M12.2190 3.6350
L12.2190 3.6300
" />
<path d="M12.2200 2.1250
L12.2190 2.1200
" />
<path d="M12.2200 3.6250
L12.2200 2.1250
" />
<path d="M12.2230 1.9540
L12.2150 1.9500
" />
<path d="M12.2230 3.7960
L12.2310 3.7900
" />
<path d="M12.2290 1.4290
L12.2410 1.4300
" />
<path d="M12.2290 4.3210
L12.2170 4.3220
" />
<path d="M12.2310 1.9600
L12.2230 1.9540
" />
<path d="M12.2310 3.7900
L12.2390 3.7850
" />
<path d="M12.2390 1.9650
L12.2310 1.9600
" />
<path d="M12.2390 3.7850
L12.2470 3.7790
" />
<path d="M12.2410 1.4300
L12.2530 1.4320
" />
<path d="M12.2410 4.3200
L12.2290 4.3210
" />
<path d="M12.2470 1.9710
L12.2390 1.9650
" />
<path d="M12.2470 3.7790
L12.2540 3.7730
" />
<path d="M12.2530 1.4320
L12.2640 1.4340
" />
<path d="M12.2530 4.3180
L12.2410 4.3200
" />
<path d="M12.2540 1.9770
L12.2470 1.9710
" />
<path d="M12.2540 3.7730
L12.2610 3.7660
" />
<path d="M12.2610 1.9840
L12.2540 1.9770
" />
<path d="M12.2610 3.7660
L12.2680 3.7590
" />
<path d="M12.2640 1.4340
L12.2760 1.4360
" />
<path d="M12.2640 4.3160
L12.2530 4.3180
" />
<path d="M12.2680 1.9910
L12.2610 1.9840
" />
<path d="M12.2680 3.7590
L12.2740 3.7520
" />
<path d="M12.2740 1.9980
L12.2680 1.9910
" />
<path d="M12.2740 3.7520
L12.2800 3.7440
" />
<path d="M12.2760 1.4360
L12.2880 1.4390
" />
<path d="M12.2760 4.3140
L12.2640 4.3160
" />
<path d="M12.2800 2.0060
L12.2740 1.9980
" />
<path d="M12.2800 3.7440
L12.2850 3.7360
" />
<path d="M12.2850 2.0140
L12.2800 2.0060
" />
<path d="M12.2850 3.7360
L12.2910 3.7280
" />
<path d="M12.2880 1.4390
L12.2990 1.4420
" />
<path d="M12.2880 4.3110
L12.2760 4.3140
" />
<path d="M12.2910 2.0220
L12.2850 2.0140
" />
<path d="M12.2910 3.7280
L12.2950 3.7200
" />
<path d="M12.2950 2.0300
L12.2910 2.0220
" />
<path d="M12.2950 3.7200
L12.3000 3.7110
" />
<path d="M12.2990 1.4420
L12.3110 1.4450
" />
<path d="M12.2990 4.3080
L12.2880 4.3110
" />
<path d="M12.3000 2.0390
L12.2950 2.0300
" />
<path d="M12.3000 3.7110
L12.3040 3.7020
" />
<path d="M12.3040 2.0480
L12.3000 2.0390
" />
<path d="M12.3040 3.7020
L12.3070 3.6930
" />
<path d="M12.3070 2.0570
L12.3040 2.0480
" />
<path d="M12.3070 3.6930
L12.3110 3.6840
" />
<path d="M12.3110 1.4450
L12.3220 1.4490
" />
<path d="M12.3110 2.0660
L12.3070 2.0570
" />
<path d="M12.3110 3.6840
L12.3130 3.6740
" />
<path d="M12.3110 4.3050
L12.2990 4.3080
" />
<path d="M12.3130 2.0760
L12.3110 2.0660
" />
<path d="M12.3130 3.6740
L12.3150 3.6650
" />
<path d="M12.3150 2.0850
L12.3130 2.0760
" />
<path d="M12.3150 3.6650
L12.3170 3.6550
" />
<path d="M12.3170 2.0950
L12.3150 2.0850
" />
<path d="M12.3170 3.6550
L12.3180 3.6450
" />
<path d="M12.3180 2.1050
L12.3170 2.0950
" />
<path d="M12.3180 3.6450
L12.3190 3.6350
" />
<path d="M12.3190 2.1150
L12.3180 2.1050
" />
<path d="M12.3190 3.6350
L12.3200 3.6250
" />
<path d="M12.3200 2.1250
L12.3190 2.1150
" />
<path d="M12.3200 3.6250
L12.3200 2.1250
" />
<path d="M12.3220 1.4490
L12.3330 1.4520
" />
<path d="M12.3220 4.3010
L12.3110 4.3050
" />
<path d="M12.3330 1.4520
L12.3450 1.4560
" />
<path d="M12.3330 4.2980
L12.3220 4.3010
" />
<path d="M12.3450 1.4560
L12.3560 1.4600
" />
<path d="M12.3450 4.2940
L12.3330 4.2980
" />
<path d="M12.3560 4.2900
L12.3450 4.2940
" />
<path d="M12.4700 1.3260
L12.4700 1.3390
" />
<path d="M12.4700 1.3390
L12.4700 1.4600
" />
<path d="M12.4700 4.2900
L12.4700 4.4110
" />
<path d="M12.4700 4.4110
L12.4700 4.4240
" />
<path d="M12.4700 4.4240
L12.4710 4.4360
" />
<path d="M12.4710 1.3140
L12.4700 1.3260
" />
<path d="M12.4710 4.4360
L12.4720 4.4480
" />
<path d="M12.4720 1.3020
L12.4710 1.3140
" />
<path d="M12.4720 4.4480
L12.4740 4.4610
" />
<path d="M12.4740 1.2890
L12.4720 1.3020
" />
<path d="M12.4740 4.4610
L12.4770 4.4730
" />
<path d="M12.4770 1.2770
L12.4740 1.2890
" />
<path d="M12.4770 4.4730
L12.4810 4.4850
" />
<path d="M12.4810 1.2650
L12.4770 1.2770
" />
<path d="M12.4810 4.4850
L12.4850 4.4960
" />
<path d="M12.4850 1.2540
L12.4810 1.2650
" />
<path d="M12.4850 4.4960
L12.4890 4.5080
" />
<path d="M12.4890 1.2420
L12.4850 1.2540
" />
<path d="M12.4890 4.5080
L12.4940 4.5190
" />
<path d="M12.4940 1.2310
L12.4890 1.2420
" />
<path d="M12.4940 4.5190
L12.5000 4.5300
" />
<path d="M12.5000 1.2200
L12.4940 1.2310
" />
<path d="M12.5000 4.5300
L12.5060 4.5410
" />
<path d="M12.5060 1.2090
L12.5000 1.2200
" />
<path d="M12.5060 4.5410
L12.5130 4.5510
" />
<path d="M12.5130 1.1990
L12.5060 1.2090
" />
<path d="M12.5130 4.5510
L12.5200 4.5610
" />
<path d="M12.5200 1.1890
L12.5130 1.1990
" />
<path d="M12.5200 4.5610
L12.5280 4.5710
" />
<path d="M12.5280 1.1790
L12.5200 1.1890
" />
<path d="M12.5280 4.5710
L12.5360 4.5800
" />
<path d="M12.5360 1.1700
L12.5280 1.1790
" />
<path d="M12.5360 4.5800
L12.5450 4.5900
" />
<path d="M12.5440 1.1600
L12.5360 1.1700
" />
<path d="M12.5440 4.5900
L13.0950 4.5900
" />
<path d="M13.0950 1.1600
L12.5440 1.1600
" />
<path d="M13.0950 4.5900
L13.1030 4.5800
" />
<path d="M13.1030 1.1700
L13.0940 1.1600
" />
<path d="M13.1030 4.5800
L13.1110 4.5710
" />
<path d="M13.1110 1.1790
L13.1030 1.1700
" />
<path d="M13.1110 4.5710
L13.1190 4.5610
" />
<path d="M13.1190 1.1890
L13.1110 1.1790
" />
<path d="M13.1190 4.5610
L13.1260 4.5510
" />
<path d="M13.1260 1.1990
L13.1190 1.1890
" />
<path d="M13.1260 4.5510
L13.1330 4.5410
" />
<path d="M13.1330 1.2090
L13.1260 1.1990
" />
<path d="M13.1330 4.5410
L13.1390 4.5300
" />
<path d="M13.1390 1.2200
L13.1330 1.2090
" />
<path d="M13.1390 4.5300
L13.1450 4.5190
" />
<path d="M13.1450 1.2310
L13.1390 1.2200
" />
<path d="M13.1450 4.5190
L13.1500 4.5080
" />
<path d="M13.1500 1.2420
L13.1450 1.2310
" />
<path d="M13.1500 4.5080
L13.1540 4.4960
" />
<path d="M13.1540 1.2540
L13.1500 1.2420
" />
<path d="M13.1540 4.4960
L13.1580 4.4850
" />
<path d="M13.1580 1.2650
L13.1540 1.2540
" />
<path d="M13.1580 4.4850
L13.1620 4.4730
" />
<path d="M13.1620 1.2770
L13.1580 1.2650
" />
<path d="M13.1620 4.4730
L13.1650 4.4610
" />
<path d="M13.1650 1.2890
L13.1620 1.2770
" />
<path d="M13.1650 4.4610
L13.1670 4.4480
" />
<path d="M13.1670 1.3020
L13.1650 1.2890
" />
<path d="M13.1670 4.4480
L13.1680 4.4360
" />
<path d="M13.1680 1.3140
L13.1670 1.3020
" />
<path d="M13.1680 4.4360
L13.1690 4.4240
" />
<path d="M13.1690 1.3260
L13.1680 1.3140
" />
<path d="M13.1690 1.3390
L13.1690 1.3260
" />
<path d="M13.1690 1.4600
L13.1690 1.3390
" />
<path d="M13.1690 4.1900
L13.1720 4.1890
" />
<path d="M13.1690 4.2900
L13.1770 4.2890
" />
<path d="M13.1690 4.4110
L13.1690 4.2900
" />
<path d="M13.1690 4.4240
L13.1690 4.4110
" />
<path d="M13.1720 1.5610
L13.1690 1.5600
" />
<path d="M13.1720 4.1890
L13.1740 4.1890
" />
<path d="M13.1740 1.5610
L13.1720 1.5610
" />
<path d="M13.1740 4.1890
L13.1770 4.1890
" />
<path d="M13.1770 1.4610
L13.1690 1.4600
" />
<path d="M13.1770 1.5610
L13.1740 1.5610
" />
<path d="M13.1770 4.1890
L13.1790 4.1890
" />
<path d="M13.1770 4.2890
L13.1840 4.2890
" />
<path d="M13.1790 1.5610
L13.1770 1.5610
" />
<path d="M13.1790 4.1890
L13.1820 4.1880
" />
<path d="M13.1820 1.5620
L13.1790 1.5610
" />
<path d="M13.1820 4.1880
L13.1840 4.1870
" />
<path d="M13.1840 1.4610
L13.1770 1.4610
" />
<path d="M13.1840 1.5630
L13.1820 1.5620
" />
<path d="M13.1840 4.1870
L13.1860 4.1870
" />
<path d="M13.1840 4.2890
L13.1920 4.2880
" />
<path d="M13.1860 1.5630
L13.1840 1.5630
" />
<path d="M13.1860 4.1870
L13.1890 4.1860
" />
<path d="M13.1890 1.5640
L13.1860 1.5630
" />
<path d="M13.1890 4.1860
L13.1910 4.1850
" />
<path d="M13.1910 1.5650
L13.1890 1.5640
" />
<path d="M13.1910 4.1850
L13.1930 4.1840
" />
<path d="M13.1920 1.4620
L13.1840 1.4610
" />
<path d="M13.1920 4.2880
L13.1990 4.2870
" />
<path d="M13.1930 1.5660
L13.1910 1.5650
" />
<path d="M13.1930 4.1840
L13.1950 4.1820
" />
<path d="M13.1950 1.5680
L13.1930 1.5660
" />
<path d="M13.1950 4.1820
L13.1970 4.1810
" />
<path d="M13.1970 1.5690
L13.1950 1.5680
" />
<path d="M13.1970 4.1810
L13.1990 4.1800
" />
<path d="M13.1990 1.4630
L13.1920 1.4620
" />
<path d="M13.1990 1.5700
L13.1970 1.5690
" />
<path d="M13.1990 4.1800
L13.2010 4.1780
" />
<path d="M13.1990 4.2870
L13.2060 4.2850
" />
<path d="M13.2010 1.5720
L13.1990 1.5700
" />
<path d="M13.2010 4.1780
L13.2030 4.1770
" />
<path d="M13.2030 1.5730
L13.2010 1.5720
" />
<path d="M13.2030 4.1770
L13.2050 4.1750
" />
<path d="M13.2050 1.5750
L13.2030 1.5730
" />
</g>
<g style="fill:#000000; fill-opacity:1.0000; stroke:none;">
<circle cx="13.2050" cy="1.5750" r="0.0100" /> 
<circle cx="13.2050" cy="4.1750" r="0.0100" /> 
</g>
<g style="fill:none; 
stroke:#000000; stroke-width:0.0200; stroke-opacity:1; 
stroke-linecap:round; stroke-linejoin:round;">
<path d="M13.2050 4.1750
L13.2070 4.1730
" />
<path d="M13.2060 1.4650
L13.1990 1.4630
" />
<path d="M13.2060 4.2850
L13.2130 4.2830
" />
<path d="M13.2070 1.5770
L13.2050 1.5750
" />
<path d="M13.2070 4.1730
L13.2080 4.1710
" />
<path d="M13.2080 1.5790
L13.2070 1.5770
" />
<path d="M13.2080 4.1710
L13.2100 4.1690
" />
<path d="M13.2100 1.5810
L13.2080 1.5790
" />
<path d="M13.2100 4.1690
L13.2110 4.1670
" />
<path d="M13.2110 1.5830
L13.2100 1.5810
" />
<path d="M13.2110 4.1670
L13.2120 4.1650
" />
<path d="M13.2120 1.5850
L13.2110 1.5830
" />
<path d="M13.2120 4.1650
L13.2140 4.1630
" />
<path d="M13.2130 1.4670
L13.2060 1.4650
" />
<path d="M13.2130 4.2830
L13.2200 4.2810
" />
<path d="M13.2140 1.5870
L13.2120 1.5850
" />
<path d="M13.2140 4.1630
L13.2150 4.1610
" />
<path d="M13.2150 1.5890
L13.2140 1.5870
" />
<path d="M13.2150 4.1610
L13.2160 4.1590
" />
<path d="M13.2160 1.5910
L13.2150 1.5890
" />
<path d="M13.2160 4.1590
L13.2170 4.1560
" />
<path d="M13.2170 1.5940
L13.2160 1.5910
" />
<path d="M13.2170 1.5960
L13.2170 1.5940
" />
<path d="M13.2170 4.1540
L13.2180 4.1520
" />
<path d="M13.2170 4.1560
L13.2170 4.1540
" />
<path d="M13.2180 1.5980
L13.2170 1.5960
" />
<path d="M13.2180 4.1520
L13.2190 4.1490
" />
<path d="M13.2190 1.6010
L13.2180 1.5980
" />
<path d="M13.2190 1.6030
L13.2190 1.6010
" />
<path d="M13.2190 1.6060
L13.2190 1.6030
" />
<path d="M13.2190 1.6080
L13.2190 1.6060
" />
<path d="M13.2190 4.1420
L13.2200 4.1390
" />
<path d="M13.2190 4.1440
L13.2190 4.1420
" />
<path d="M13.2190 4.1470
L13.2190 4.1440
" />
<path d="M13.2190 4.1490
L13.2190 4.1470
" />
<path d="M13.2200 1.4690
L13.2130 1.4670
" />
<path d="M13.2200 1.6110
L13.2190 1.6080
" />
<path d="M13.2200 1.6110
L13.2200 4.1390
" />
<path d="M13.2200 4.2810
L13.2270 4.2780
" />
<path d="M13.2270 1.4720
L13.2200 1.4690
" />
<path d="M13.2270 4.2780
L13.2340 4.2750
" />
<path d="M13.2340 1.4750
L13.2270 1.4720
" />
<path d="M13.2340 4.2750
L13.2400 4.2720
" />
<path d="M13.2400 1.4780
L13.2340 1.4750
" />
<path d="M13.2400 4.2720
L13.2470 4.2680
" />
<path d="M13.2470 1.4820
L13.2400 1.4780
" />
<path d="M13.2470 4.2680
L13.2530 4.2640
" />
<path d="M13.2530 1.4860
L13.2470 1.4820
" />
<path d="M13.2530 4.2640
L13.2590 4.2600
" />
<path d="M13.2590 1.4900
L13.2530 1.4860
" />
<path d="M13.2590 4.2600
L13.2650 4.2560
" />
<path d="M13.2650 1.4940
L13.2590 1.4900
" />
<path d="M13.2650 4.2560
L13.2700 4.2510
" />
<path d="M13.2700 1.4990
L13.2650 1.4940
" />
<path d="M13.2700 4.2510
L13.2760 4.2460
" />
<path d="M13.2760 1.5040
L13.2700 1.4990
" />
</g>
<g style="fill:#000000; fill-opacity:1.0000; stroke:none;">
<circle cx="13.2760" cy="1.5040" r="0.0100" /> 
<circle cx="13.2760" cy="4.2460" r="0.0100" /> 
</g>
<g style="fill:none; 
stroke:#000000; stroke-width:0.0200; stroke-opacity:1; 
stroke-linecap:round; stroke-linejoin:round;">
<path d="M13.2760 4.2460
L13.2810 4.2400
" />
<path d="M13.2810 1.5100
L13.2760 1.5040
" />
<path d="M13.2810 4.2400
L13.2860 4.2350
" />
<path d="M13.2860 1.5150
L13.2810 1.5100
" />
<path d="M13.2860 4.2350
L13.2900 4.2290
" />
<path d="M13.2900 1.5210
L13.2860 1.5150
" />
<path d="M13.2900 4.2290
L13.2940 4.2230
" />
<path d="M13.2940 1.5270
L13.2900 1.5210
" />
<path d="M13.2940 4.2230
L13.2980 4.2170
" />
<path d="M13.2980 1.5330
L13.2940 1.5270
" />
<path d="M13.2980 4.2170
L13.3020 4.2100
" />
<path d="M13.3020 1.5400
L13.2980 1.5330
" />
<path d="M13.3020 4.2100
L13.3050 4.2040
" />
<path d="M13.3050 1.5460
L13.3020 1.5400
" />
<path d="M13.3050 4.2040
L13.3080 4.1970
" />
<path d="M13.3080 1.5530
L13.3050 1.5460
" />
<path d="M13.3080 4.1970
L13.3110 4.1900
" />
<path d="M13.3110 1.5600
L13.3080 1.5530
" />
<path d="M13.3110 4.1900
L13.3130 4.1830
" />
<path d="M13.3130 1.5670
L13.3110 1.5600
" />
<path d="M13.3130 4.1830
L13.3150 4.1760
" />
<path d="M13.3150 1.5740
L13.3130 1.5670
" />
<path d="M13.3150 4.1760
L13.3170 4.1690
" />
<path d="M13.3170 1.5810
L13.3150 1.5740
" />
<path d="M13.3170 4.1690
L13.3180 4.1620
" />
<path d="M13.3180 1.5880
L13.3170 1.5810
" />
<path d="M13.3180 4.1620
L13.3190 4.1540
" />
<path d="M13.3190 1.5960
L13.3180 1.5880
" />
<path d="M13.3190 1.6030
L13.3190 1.5960
" />
<path d="M13.3190 4.1470
L13.3200 4.1390
" />
<path d="M13.3190 4.1540
L13.3190 4.1470
" />
<path d="M13.3200 1.6110
L13.3190 1.6030
" />
<path d="M13.3200 1.6110
L13.3200 4.1390
" />
<path d="M13.3200 3.7750
L13.4700 3.7750
" />
<path d="M13.4700 0.8600
L13.4700 1.9750
" />
<path d="M13.4700 1.9750
L13.3200 1.9750
" />
<path d="M13.4700 3.7750
L13.4700 4.8900
" />
<path d="M13.4700 4.8900
L12.1690 4.8900
" />
</g> 
</svg>
