<?xml version="1.0" standalone="no"?>
 <!DOCTYPE svg PUBLIC "-//W3C//DTD SVG 1.1//EN" 
 "http://www.w3.org/Graphics/SVG/1.1/DTD/svg11.dtd"> 
<svg
  xmlns:svg="http://www.w3.org/2000/svg"
  xmlns="http://www.w3.org/2000/svg"
  xmlns:xlink="http://www.w3.org/1999/xlink"
  version="1.1"
  width="10.2616mm" height="6.7056mm" viewBox="0.0000 0.0000 10.2616 6.7056">
<title>SVG Image created as outline.svg date 2025/06/16 09:17:52 </title>
  <desc>Image generated by PCBNEW </desc>
<g style="fill:#000000; fill-opacity:1.0000;stroke:#000000; stroke-opacity:1.0000;
stroke-linecap:round; stroke-linejoin:round;"
 transform="translate(0 0) scale(1 1)">
</g>
<g style="fill:none; 
stroke:#000000; stroke-width:0.0200; stroke-opacity:1; 
stroke-linecap:round; stroke-linejoin:round;">
<path d="M0.2750 1.4570
L0.2750 0.6980
" />
<path d="M0.2750 1.4570
L1.0930 1.4570
" />
<path d="M0.2750 6.0320
L0.2750 5.2730
" />
<path d="M0.2750 6.0320
L1.0930 6.0320
" />
<path d="M1.0930 0.6980
L0.2750 0.6980
" />
<path d="M1.0930 1.4570
L1.0930 0.6980
" />
<path d="M1.0930 1.4570
L1.1030 1.4570
" />
<path d="M1.0930 5.2730
L0.2750 5.2730
" />
<path d="M1.0930 6.0320
L1.0930 5.2730
" />
<path d="M1.0930 6.0320
L1.1030 6.0320
" />
<path d="M1.1030 0.6980
L1.0930 0.6980
" />
<path d="M1.1030 1.4570
L1.1140 1.4570
" />
<path d="M1.1030 5.2730
L1.0930 5.2730
" />
<path d="M1.1030 6.0320
L1.1140 6.0320
" />
<path d="M1.1140 0.6980
L1.1030 0.6980
" />
<path d="M1.1140 1.4570
L1.1230 1.4570
" />
<path d="M1.1140 5.2730
L1.1030 5.2730
" />
<path d="M1.1140 6.0320
L1.1230 6.0320
" />
<path d="M1.1230 0.6980
L1.1140 0.6980
" />
<path d="M1.1230 1.4570
L1.1330 1.4570
" />
<path d="M1.1230 5.2730
L1.1140 5.2730
" />
<path d="M1.1230 6.0320
L1.1330 6.0320
" />
<path d="M1.1330 0.6980
L1.1230 0.6980
" />
<path d="M1.1330 1.4570
L1.1430 1.4570
" />
<path d="M1.1330 5.2730
L1.1230 5.2730
" />
<path d="M1.1330 6.0320
L1.1430 6.0320
" />
<path d="M1.1430 0.6980
L1.1330 0.6980
" />
<path d="M1.1430 1.4570
L1.1520 1.4570
" />
<path d="M1.1430 5.2730
L1.1330 5.2730
" />
<path d="M1.1430 6.0320
L1.1520 6.0320
" />
<path d="M1.1520 0.6980
L1.1430 0.6980
" />
<path d="M1.1520 1.4570
L1.1610 1.4570
" />
<path d="M1.1520 5.2730
L1.1430 5.2730
" />
<path d="M1.1520 6.0320
L1.1610 6.0320
" />
<path d="M1.1610 0.6980
L1.1520 0.6980
" />
<path d="M1.1610 1.4570
L1.1690 1.4570
" />
<path d="M1.1610 5.2730
L1.1520 5.2730
" />
<path d="M1.1610 6.0320
L1.1690 6.0320
" />
<path d="M1.1690 0.6980
L1.1610 0.6980
" />
<path d="M1.1690 1.4570
L1.1770 1.4570
" />
<path d="M1.1690 5.2730
L1.1610 5.2730
" />
<path d="M1.1690 6.0320
L1.1770 6.0320
" />
<path d="M1.1770 0.6980
L1.1690 0.6980
" />
<path d="M1.1770 1.4570
L1.1850 1.4570
" />
<path d="M1.1770 5.2730
L1.1690 5.2730
" />
<path d="M1.1770 6.0320
L1.1850 6.0320
" />
<path d="M1.1850 0.6980
L1.1770 0.6980
" />
<path d="M1.1850 1.4570
L1.1920 1.4570
" />
<path d="M1.1850 5.2730
L1.1770 5.2730
" />
<path d="M1.1850 6.0320
L1.1920 6.0320
" />
<path d="M1.1920 0.6980
L1.1850 0.6980
" />
<path d="M1.1920 1.4570
L1.1990 1.4570
" />
<path d="M1.1920 5.2730
L1.1850 5.2730
" />
<path d="M1.1920 6.0320
L1.1990 6.0320
" />
<path d="M1.1990 0.6980
L1.1920 0.6980
" />
<path d="M1.1990 1.4570
L1.2050 1.4570
" />
<path d="M1.1990 5.2730
L1.1920 5.2730
" />
<path d="M1.1990 6.0320
L1.2050 6.0320
" />
<path d="M1.2050 0.6980
L1.1990 0.6980
" />
<path d="M1.2050 1.4570
L1.2100 1.4570
" />
<path d="M1.2050 5.2730
L1.1990 5.2730
" />
<path d="M1.2050 6.0320
L1.2100 6.0320
" />
<path d="M1.2100 0.6980
L1.2050 0.6980
" />
<path d="M1.2100 1.4570
L1.2100 0.6980
" />
<path d="M1.2100 1.4570
L1.2850 1.4570
" />
<path d="M1.2100 5.2730
L1.2050 5.2730
" />
<path d="M1.2100 6.0320
L1.2100 5.2730
" />
<path d="M1.2100 6.0320
L1.2850 6.0320
" />
<path d="M1.2850 0.6980
L1.2100 0.6980
" />
<path d="M1.2850 1.4570
L1.2850 0.6980
" />
<path d="M1.2850 1.4570
L1.3030 1.4570
" />
<path d="M1.2850 5.2730
L1.2100 5.2730
" />
<path d="M1.2850 6.0320
L1.2850 5.2730
" />
<path d="M1.2850 6.0320
L1.3030 6.0320
" />
<path d="M1.3030 0.6980
L1.2850 0.6980
" />
<path d="M1.3030 1.4570
L1.3230 1.4570
" />
<path d="M1.3030 5.2730
L1.2850 5.2730
" />
<path d="M1.3030 6.0320
L1.3230 6.0320
" />
<path d="M1.3230 0.6980
L1.3030 0.6980
" />
<path d="M1.3230 1.4570
L1.3450 1.4570
" />
<path d="M1.3230 5.2730
L1.3030 5.2730
" />
<path d="M1.3230 6.0320
L1.3450 6.0320
" />
<path d="M1.3450 0.6980
L1.3230 0.6980
" />
<path d="M1.3450 1.4570
L1.3690 1.4570
" />
<path d="M1.3450 5.2730
L1.3230 5.2730
" />
<path d="M1.3450 6.0320
L1.3690 6.0320
" />
<path d="M1.3690 0.6980
L1.3450 0.6980
" />
<path d="M1.3690 1.4570
L1.3940 1.4570
" />
<path d="M1.3690 5.2730
L1.3450 5.2730
" />
<path d="M1.3690 6.0320
L1.3940 6.0320
" />
<path d="M1.3940 0.6980
L1.3690 0.6980
" />
<path d="M1.3940 1.4570
L1.4210 1.4570
" />
<path d="M1.3940 5.2730
L1.3690 5.2730
" />
<path d="M1.3940 6.0320
L1.4210 6.0320
" />
<path d="M1.4210 0.6980
L1.3940 0.6980
" />
<path d="M1.4210 1.4570
L1.4500 1.4570
" />
<path d="M1.4210 5.2730
L1.3940 5.2730
" />
<path d="M1.4210 6.0320
L1.4500 6.0320
" />
<path d="M1.4500 0.6980
L1.4210 0.6980
" />
<path d="M1.4500 1.4570
L1.4800 1.4570
" />
<path d="M1.4500 5.2730
L1.4210 5.2730
" />
<path d="M1.4500 6.0320
L1.4800 6.0320
" />
<path d="M1.4800 0.6980
L1.4500 0.6980
" />
<path d="M1.4800 1.4570
L1.5100 1.4570
" />
<path d="M1.4800 5.2730
L1.4500 5.2730
" />
<path d="M1.4800 6.0320
L1.5100 6.0320
" />
<path d="M1.5100 0.6980
L1.4800 0.6980
" />
<path d="M1.5100 1.4570
L1.5420 1.4570
" />
<path d="M1.5100 5.2730
L1.4800 5.2730
" />
<path d="M1.5100 6.0320
L1.5420 6.0320
" />
<path d="M1.5420 0.6980
L1.5100 0.6980
" />
<path d="M1.5420 1.4570
L1.5750 1.4570
" />
<path d="M1.5420 5.2730
L1.5100 5.2730
" />
<path d="M1.5420 6.0320
L1.5750 6.0320
" />
<path d="M1.5750 0.6980
L1.5420 0.6980
" />
<path d="M1.5750 1.4570
L1.6080 1.4570
" />
<path d="M1.5750 5.2730
L1.5420 5.2730
" />
<path d="M1.5750 6.0320
L1.6080 6.0320
" />
<path d="M1.6080 0.6980
L1.5750 0.6980
" />
<path d="M1.6080 1.4570
L1.6410 1.4570
" />
<path d="M1.6080 5.2730
L1.5750 5.2730
" />
<path d="M1.6080 6.0320
L1.6410 6.0320
" />
<path d="M1.6410 0.6980
L1.6080 0.6980
" />
<path d="M1.6410 1.4570
L1.6750 1.4570
" />
<path d="M1.6410 5.2730
L1.6080 5.2730
" />
<path d="M1.6410 6.0320
L1.6750 6.0320
" />
<path d="M1.6750 0.6980
L1.6410 0.6980
" />
<path d="M1.6750 1.4570
L1.6750 0.6980
" />
<path d="M1.6750 1.4570
L2.1960 1.4570
" />
<path d="M1.6750 5.2730
L1.6410 5.2730
" />
<path d="M1.6750 6.0320
L1.6750 5.2730
" />
<path d="M1.6750 6.0320
L2.1960 6.0320
" />
<path d="M1.7750 2.9840
L1.7750 3.7460
" />
<path d="M1.7750 3.7460
L2.1960 3.7460
" />
<path d="M2.1750 0.2750
L2.1750 0.6980
" />
<path d="M2.1750 0.2750
L2.1850 0.2650
" />
<path d="M2.1750 1.4570
L2.1750 2.9840
" />
<path d="M2.1750 3.7460
L2.1750 5.2730
" />
<path d="M2.1750 6.0320
L2.1750 6.4550
" />
<path d="M2.1750 6.4550
L2.2250 6.4050
" />
<path d="M2.1850 0.2650
L8.7420 0.2650
" />
<path d="M2.1850 6.4650
L2.1750 6.4550
" />
<path d="M2.1850 6.4650
L8.7420 6.4650
" />
<path d="M2.1960 0.6980
L1.6750 0.6980
" />
<path d="M2.1960 1.4570
L2.1960 0.6980
" />
<path d="M2.1960 2.9840
L1.7750 2.9840
" />
<path d="M2.1960 3.7460
L2.1960 2.9840
" />
<path d="M2.1960 5.2730
L1.6750 5.2730
" />
<path d="M2.1960 6.0320
L2.1960 5.2730
" />
<path d="M2.2250 0.3250
L2.1750 0.2750
" />
<path d="M2.2250 0.3250
L8.6460 0.3250
" />
<path d="M2.2250 6.4050
L2.2270 6.4010
" />
<path d="M2.2270 0.3290
L2.2250 0.3250
" />
<path d="M2.2270 6.4010
L2.2280 6.3910
" />
<path d="M2.2280 0.3390
L2.2270 0.3290
" />
<path d="M2.2280 6.3910
L2.2320 6.3570
" />
<path d="M2.2320 0.3730
L2.2280 0.3390
" />
<path d="M2.2320 6.3570
L2.2340 6.2550
" />
<path d="M2.2340 0.4750
L2.2320 0.3730
" />
<path d="M2.2340 0.4750
L2.2340 6.2550
" />
<path d="M2.2340 6.2550
L8.6310 6.2550
" />
<path d="M8.6310 0.4750
L2.2340 0.4750
" />
<path d="M8.6310 6.2550
L8.6310 0.4750
" />
<path d="M8.6310 6.2550
L8.6320 6.3080
" />
<path d="M8.6320 0.4220
L8.6310 0.4750
" />
<path d="M8.6320 6.3080
L8.6350 6.3570
" />
<path d="M8.6350 0.3730
L8.6320 0.4220
" />
<path d="M8.6350 6.3570
L8.6410 6.3910
" />
<path d="M8.6410 0.3390
L8.6350 0.3730
" />
<path d="M8.6410 6.3910
L8.6440 6.4010
" />
<path d="M8.6440 0.3290
L8.6410 0.3390
" />
<path d="M8.6440 6.4010
L8.6460 6.4050
" />
<path d="M8.6460 0.3250
L8.6440 0.3290
" />
<path d="M8.6460 6.4050
L2.2250 6.4050
" />
<path d="M8.6460 6.4050
L8.7420 6.4650
" />
<path d="M8.7420 0.2650
L8.6460 0.3250
" />
<path d="M8.7420 0.6150
L8.7420 6.1150
" />
<path d="M8.7420 6.1150
L9.2750 6.1150
" />
<path d="M8.7420 6.4650
L8.7650 6.4510
" />
<path d="M8.7650 0.2790
L8.7420 0.2650
" />
<path d="M8.7650 6.4510
L8.7690 6.4420
" />
<path d="M8.7690 0.2880
L8.7650 0.2790
" />
<path d="M8.7690 6.4420
L8.7720 6.4190
" />
<path d="M8.7720 0.3110
L8.7690 0.2880
" />
<path d="M8.7720 6.4190
L8.7750 6.3510
" />
<path d="M8.7750 0.3790
L8.7720 0.3110
" />
<path d="M8.7750 0.6150
L8.7750 0.3790
" />
<path d="M8.7750 6.3510
L8.7750 6.1150
" />
<path d="M9.1750 1.6100
L9.1780 1.5790
" />
<path d="M9.1750 5.1200
L9.1750 1.6100
" />
<path d="M9.1780 1.5790
L9.1870 1.5500
" />
<path d="M9.1780 5.1510
L9.1750 5.1200
" />
<path d="M9.1870 1.5500
L9.2030 1.5230
" />
<path d="M9.1870 5.1800
L9.1780 5.1510
" />
<path d="M9.2030 1.5230
L9.2230 1.5000
" />
<path d="M9.2030 5.2070
L9.1870 5.1800
" />
<path d="M9.2230 1.5000
L9.2470 1.4820
" />
<path d="M9.2230 5.2300
L9.2030 5.2070
" />
<path d="M9.2470 1.4820
L9.2750 1.4690
" />
<path d="M9.2470 5.2480
L9.2230 5.2300
" />
<path d="M9.2750 0.6150
L8.7420 0.6150
" />
<path d="M9.2750 1.4690
L9.2750 0.6150
" />
<path d="M9.2750 5.2610
L9.2470 5.2480
" />
<path d="M9.2750 6.1150
L9.2750 5.2610
" />
</g> 
</svg>
