<?xml version="1.0" standalone="no"?>
 <!DOCTYPE svg PUBLIC "-//W3C//DTD SVG 1.1//EN" 
 "http://www.w3.org/Graphics/SVG/1.1/DTD/svg11.dtd"> 
<svg
  xmlns:svg="http://www.w3.org/2000/svg"
  xmlns="http://www.w3.org/2000/svg"
  xmlns:xlink="http://www.w3.org/1999/xlink"
  version="1.1"
  width="22.3520mm" height="9.6520mm" viewBox="0.0000 0.0000 22.3520 9.6520">
<title>SVG Image created as outline.svg date 2025/06/16 09:17:44 </title>
  <desc>Image generated by PCBNEW </desc>
<g style="fill:#000000; fill-opacity:1.0000;stroke:#000000; stroke-opacity:1.0000;
stroke-linecap:round; stroke-linejoin:round;"
 transform="translate(0 0) scale(1 1)">
</g>
<g style="fill:none; 
stroke:#000000; stroke-width:0.0200; stroke-opacity:1; 
stroke-linecap:round; stroke-linejoin:round;">
<path d="M0.2340 1.1050
L0.2340 6.6040
" />
<path d="M0.2340 1.1050
L22.1330 1.1050
" />
<path d="M0.2340 7.0370
L0.2340 6.6040
" />
</g>
<g style="fill:#000000; fill-opacity:1.0000; stroke:none;">
<circle cx="0.2340" cy="7.0370" r="0.0100" /> 
</g>
<g style="fill:none; 
stroke:#000000; stroke-width:0.0200; stroke-opacity:1; 
stroke-linecap:round; stroke-linejoin:round;">
<path d="M0.2340 7.2260
L0.2340 7.0370
" />
</g>
<g style="fill:#000000; fill-opacity:1.0000; stroke:none;">
<circle cx="0.2340" cy="7.2260" r="0.0100" /> 
</g>
<g style="fill:none; 
stroke:#000000; stroke-width:0.0200; stroke-opacity:1; 
stroke-linecap:round; stroke-linejoin:round;">
<path d="M0.2340 7.3110
L0.2340 7.2260
" />
</g>
<g style="fill:#000000; fill-opacity:1.0000; stroke:none;">
<circle cx="0.2340" cy="7.3110" r="0.0100" /> 
</g>
<g style="fill:none; 
stroke:#000000; stroke-width:0.0200; stroke-opacity:1; 
stroke-linecap:round; stroke-linejoin:round;">
<path d="M0.2340 7.3850
L0.2340 7.3110
" />
</g>
<g style="fill:#000000; fill-opacity:1.0000; stroke:none;">
<circle cx="0.2340" cy="7.3850" r="0.0100" /> 
</g>
<g style="fill:none; 
stroke:#000000; stroke-width:0.0200; stroke-opacity:1; 
stroke-linecap:round; stroke-linejoin:round;">
<path d="M0.2340 7.4510
L0.2340 7.3850
" />
</g>
<g style="fill:#000000; fill-opacity:1.0000; stroke:none;">
<circle cx="0.2340" cy="7.4510" r="0.0100" /> 
</g>
<g style="fill:none; 
stroke:#000000; stroke-width:0.0200; stroke-opacity:1; 
stroke-linecap:round; stroke-linejoin:round;">
<path d="M0.2340 7.5030
L0.2340 7.4510
" />
</g>
<g style="fill:#000000; fill-opacity:1.0000; stroke:none;">
<circle cx="0.2340" cy="7.5030" r="0.0100" /> 
</g>
<g style="fill:none; 
stroke:#000000; stroke-width:0.0200; stroke-opacity:1; 
stroke-linecap:round; stroke-linejoin:round;">
<path d="M0.2340 7.5470
L0.2340 7.5030
" />
</g>
<g style="fill:#000000; fill-opacity:1.0000; stroke:none;">
<circle cx="0.2340" cy="7.5470" r="0.0100" /> 
</g>
<g style="fill:none; 
stroke:#000000; stroke-width:0.0200; stroke-opacity:1; 
stroke-linecap:round; stroke-linejoin:round;">
<path d="M0.2340 7.5790
L0.2340 7.5470
" />
</g>
<g style="fill:#000000; fill-opacity:1.0000; stroke:none;">
<circle cx="0.2340" cy="7.5790" r="0.0100" /> 
</g>
<g style="fill:none; 
stroke:#000000; stroke-width:0.0200; stroke-opacity:1; 
stroke-linecap:round; stroke-linejoin:round;">
<path d="M0.2340 7.5960
L0.2340 7.5790
" />
</g>
<g style="fill:#000000; fill-opacity:1.0000; stroke:none;">
<circle cx="0.2340" cy="7.5960" r="0.0100" /> 
</g>
<g style="fill:none; 
stroke:#000000; stroke-width:0.0200; stroke-opacity:1; 
stroke-linecap:round; stroke-linejoin:round;">
<path d="M0.2340 7.6040
L0.2340 7.5960
" />
<path d="M0.2340 7.6040
L0.6090 7.6040
" />
<path d="M0.6090 6.6040
L17.2580 6.6040
" />
<path d="M0.6090 7.6040
L0.6340 7.6030
" />
<path d="M0.6340 7.6030
L0.6590 7.6010
" />
<path d="M0.6590 7.6010
L0.6820 7.5970
" />
<path d="M0.6820 7.5970
L0.7070 7.5950
" />
<path d="M0.7070 7.5950
L0.7300 7.5880
" />
<path d="M0.7300 7.5880
L0.7550 7.5810
" />
<path d="M0.7550 7.5810
L0.7770 7.5730
" />
<path d="M0.7770 7.5730
L0.8000 7.5640
" />
<path d="M0.8000 7.5640
L0.8220 7.5560
" />
<path d="M0.8220 7.5560
L0.8430 7.5450
" />
<path d="M0.8430 7.5450
L0.8650 7.5320
" />
<path d="M0.8650 7.5320
L0.8860 7.5190
" />
<path d="M0.8860 7.5190
L0.9060 7.5060
" />
<path d="M0.9060 7.5060
L0.9250 7.4910
" />
<path d="M0.9250 7.4910
L0.9450 7.4750
" />
<path d="M0.9450 7.4750
L0.9630 7.4560
" />
</g>
<g style="fill:#000000; fill-opacity:1.0000; stroke:none;">
<circle cx="0.9630" cy="7.4560" r="0.0100" /> 
</g>
<g style="fill:none; 
stroke:#000000; stroke-width:0.0200; stroke-opacity:1; 
stroke-linecap:round; stroke-linejoin:round;">
<path d="M0.9630 7.4560
L0.9790 7.4390
" />
<path d="M0.9790 7.4390
L0.9950 7.4200
" />
<path d="M0.9950 7.4200
L1.0090 7.4010
" />
<path d="M1.0090 7.4010
L1.0240 7.3820
" />
<path d="M1.0240 7.3820
L1.0380 7.3590
" />
<path d="M1.0380 7.3590
L1.0500 7.3380
" />
<path d="M1.0500 7.3380
L1.0620 7.3180
" />
<path d="M1.0620 7.3180
L1.0700 7.2950
" />
<path d="M1.0700 7.2950
L1.0790 7.2730
" />
<path d="M1.0790 7.2730
L1.0880 7.2490
" />
<path d="M1.0880 7.2490
L1.0930 7.2250
" />
<path d="M1.0930 7.2250
L1.0990 7.2020
" />
<path d="M1.0990 7.2020
L1.1020 7.1770
" />
<path d="M1.1020 7.1770
L1.1050 7.1520
" />
<path d="M1.1050 7.1520
L1.1080 7.1280
" />
<path d="M1.1080 6.9560
L1.1080 6.6040
" />
</g>
<g style="fill:#000000; fill-opacity:1.0000; stroke:none;">
<circle cx="1.1080" cy="6.9560" r="0.0100" /> 
</g>
<g style="fill:none; 
stroke:#000000; stroke-width:0.0200; stroke-opacity:1; 
stroke-linecap:round; stroke-linejoin:round;">
<path d="M1.1080 7.1040
L1.1080 6.9560
" />
<path d="M1.1080 7.1280
L1.1080 7.1040
" />
<path d="M1.6340 1.6330
L2.2330 1.6330
" />
<path d="M1.6850 6.6040
L1.6850 8.8540
" />
<path d="M1.6850 7.6040
L0.6090 7.6040
" />
<path d="M1.6850 8.8540
L16.5270 8.8540
" />
<path d="M1.8590 0.5040
L1.8590 1.0040
" />
<path d="M1.8590 0.5040
L2.0080 0.5040
" />
<path d="M1.8590 1.0040
L1.8590 1.1050
" />
<path d="M1.9350 1.1140
L1.6340 1.6330
" />
<path d="M2.0080 0.5040
L2.0080 1.0040
" />
<path d="M2.0080 1.0040
L2.0080 1.1050
" />
<path d="M2.0890 7.1040
L2.1090 6.8340
" />
<path d="M2.0890 7.1040
L2.2780 7.1040
" />
<path d="M2.1090 6.6040
L2.1090 6.6510
" />
<path d="M2.1090 6.7570
L2.1090 6.6510
" />
<path d="M2.1090 6.7570
L2.1090 6.8340
" />
<path d="M2.1090 8.8540
L2.1090 9.2040
" />
<path d="M2.1090 9.2040
L2.2590 9.2040
" />
<path d="M2.2330 1.6330
L1.9350 1.1140
" />
<path d="M2.2590 6.6040
L2.2590 6.6510
" />
<path d="M2.2590 6.7570
L2.2590 6.6510
" />
<path d="M2.2590 6.7570
L2.2590 6.8340
" />
<path d="M2.2590 8.8540
L2.2590 9.2040
" />
<path d="M2.2780 7.1040
L2.2590 6.8340
" />
<path d="M2.3580 0.5040
L2.3580 1.0040
" />
<path d="M2.3580 0.5040
L2.5090 0.5040
" />
<path d="M2.3580 1.0040
L2.3580 1.1050
" />
<path d="M2.5090 0.5040
L2.5090 1.0040
" />
<path d="M2.5090 1.0040
L2.5090 1.1050
" />
<path d="M2.5910 7.1040
L2.6090 6.8340
" />
<path d="M2.5910 7.1040
L2.7770 7.1040
" />
<path d="M2.6090 6.6040
L2.6090 6.6510
" />
<path d="M2.6090 6.7570
L2.6090 6.6510
" />
<path d="M2.6090 6.7570
L2.6090 6.8340
" />
<path d="M2.6090 8.8540
L2.6090 9.2040
" />
<path d="M2.6090 9.2040
L2.7590 9.2040
" />
<path d="M2.7590 6.6040
L2.7590 6.6510
" />
<path d="M2.7590 6.7570
L2.7590 6.6510
" />
<path d="M2.7590 6.7570
L2.7590 6.8340
" />
<path d="M2.7590 8.8540
L2.7590 9.2040
" />
<path d="M2.7770 7.1040
L2.7590 6.8340
" />
<path d="M2.8600 0.5040
L2.8600 1.0040
" />
<path d="M2.8600 0.5040
L3.0090 0.5040
" />
<path d="M2.8600 1.0040
L2.8600 1.1050
" />
<path d="M3.0090 0.5040
L3.0090 1.0040
" />
<path d="M3.0090 1.0040
L3.0090 1.1050
" />
<path d="M3.0890 7.1040
L3.1100 6.8340
" />
<path d="M3.0890 7.1040
L3.2760 7.1040
" />
<path d="M3.1100 6.6040
L3.1100 6.6510
" />
<path d="M3.1100 6.7570
L3.1100 6.6510
" />
<path d="M3.1100 6.7570
L3.1100 6.8340
" />
<path d="M3.1100 8.8540
L3.1100 9.2040
" />
<path d="M3.1100 9.2040
L3.2590 9.2040
" />
<path d="M3.2590 6.6040
L3.2590 6.6510
" />
<path d="M3.2590 6.7570
L3.2590 6.6510
" />
<path d="M3.2590 6.7570
L3.2590 6.8340
" />
<path d="M3.2590 8.8540
L3.2590 9.2040
" />
<path d="M3.2760 7.1040
L3.2590 6.8340
" />
<path d="M3.3580 0.5040
L3.3580 1.0040
" />
<path d="M3.3580 0.5040
L3.5090 0.5040
" />
<path d="M3.3580 1.0040
L3.3580 1.1050
" />
<path d="M3.5090 0.5040
L3.5090 1.0040
" />
<path d="M3.5090 1.0040
L3.5090 1.1050
" />
<path d="M3.5900 7.1040
L3.6080 6.8340
" />
<path d="M3.5900 7.1040
L3.7760 7.1040
" />
<path d="M3.6080 6.6040
L3.6080 6.6510
" />
<path d="M3.6080 6.7570
L3.6080 6.6510
" />
<path d="M3.6080 6.7570
L3.6080 6.8340
" />
<path d="M3.6080 8.8540
L3.6080 9.2040
" />
<path d="M3.6080 9.2040
L3.7580 9.2040
" />
<path d="M3.7580 6.6040
L3.7580 6.6510
" />
<path d="M3.7580 6.7570
L3.7580 6.6510
" />
<path d="M3.7580 6.7570
L3.7580 6.8340
" />
<path d="M3.7580 8.8540
L3.7580 9.2040
" />
<path d="M3.7760 7.1040
L3.7580 6.8340
" />
<path d="M3.8580 0.5040
L3.8580 1.0040
" />
<path d="M3.8580 0.5040
L4.0100 0.5040
" />
<path d="M3.8580 1.0040
L3.8580 1.1050
" />
<path d="M4.0100 0.5040
L4.0100 1.0040
" />
<path d="M4.0100 1.0040
L4.0100 1.1050
" />
<path d="M4.0900 7.1040
L4.1080 6.8340
" />
<path d="M4.0900 7.1040
L4.2760 7.1040
" />
<path d="M4.1080 6.6040
L4.1080 6.6510
" />
<path d="M4.1080 6.7570
L4.1080 6.6510
" />
<path d="M4.1080 6.7570
L4.1080 6.8340
" />
<path d="M4.1080 8.8540
L4.1080 9.2040
" />
<path d="M4.1080 9.2040
L4.2600 9.2040
" />
<path d="M4.2600 6.6040
L4.2600 6.6510
" />
<path d="M4.2600 6.7570
L4.2600 6.6510
" />
<path d="M4.2600 6.7570
L4.2600 6.8340
" />
<path d="M4.2600 8.8540
L4.2600 9.2040
" />
<path d="M4.2760 7.1040
L4.2600 6.8340
" />
<path d="M4.3580 0.5040
L4.3580 1.0040
" />
<path d="M4.3580 0.5040
L4.5100 0.5040
" />
<path d="M4.3580 1.0040
L4.3580 1.1050
" />
<path d="M4.5100 0.5040
L4.5100 1.0040
" />
<path d="M4.5100 1.0040
L4.5100 1.1050
" />
<path d="M4.5900 7.1040
L4.6080 6.8340
" />
<path d="M4.5900 7.1040
L4.7760 7.1040
" />
<path d="M4.6080 6.6040
L4.6080 6.6510
" />
<path d="M4.6080 6.7570
L4.6080 6.6510
" />
<path d="M4.6080 6.7570
L4.6080 6.8340
" />
<path d="M4.6080 8.8540
L4.6080 9.2040
" />
<path d="M4.6080 9.2040
L4.7600 9.2040
" />
<path d="M4.7600 6.6040
L4.7600 6.6510
" />
<path d="M4.7600 6.7570
L4.7600 6.6510
" />
<path d="M4.7600 6.7570
L4.7600 6.8340
" />
<path d="M4.7600 8.8540
L4.7600 9.2040
" />
<path d="M4.7760 7.1040
L4.7600 6.8340
" />
<path d="M4.8580 0.5040
L4.8580 1.0040
" />
<path d="M4.8580 0.5040
L5.0100 0.5040
" />
<path d="M4.8580 1.0040
L4.8580 1.1050
" />
<path d="M5.0100 0.5040
L5.0100 1.0040
" />
<path d="M5.0100 1.0040
L5.0100 1.1050
" />
<path d="M5.0900 7.1040
L5.1080 6.8340
" />
<path d="M5.0900 7.1040
L5.2760 7.1040
" />
<path d="M5.1080 6.6040
L5.1080 6.6510
" />
<path d="M5.1080 6.7570
L5.1080 6.6510
" />
<path d="M5.1080 6.7570
L5.1080 6.8340
" />
<path d="M5.1080 8.8540
L5.1080 9.2040
" />
<path d="M5.1080 9.2040
L5.2600 9.2040
" />
<path d="M5.2600 6.6040
L5.2600 6.6510
" />
<path d="M5.2600 6.7570
L5.2600 6.6510
" />
<path d="M5.2600 6.7570
L5.2600 6.8340
" />
<path d="M5.2600 8.8540
L5.2600 9.2040
" />
<path d="M5.2760 7.1040
L5.2600 6.8340
" />
<path d="M5.3580 0.5040
L5.3580 1.0040
" />
<path d="M5.3580 0.5040
L5.5100 0.5040
" />
<path d="M5.3580 1.0040
L5.3580 1.1050
" />
<path d="M5.5100 0.5040
L5.5100 1.0040
" />
<path d="M5.5100 1.0040
L5.5100 1.1050
" />
<path d="M5.5900 7.1040
L5.6080 6.8340
" />
<path d="M5.5900 7.1040
L5.7760 7.1040
" />
<path d="M5.6080 6.6040
L5.6080 6.6510
" />
<path d="M5.6080 6.7570
L5.6080 6.6510
" />
<path d="M5.6080 6.7570
L5.6080 6.8340
" />
<path d="M5.6080 8.8540
L5.6080 9.2040
" />
<path d="M5.6080 9.2040
L5.7600 9.2040
" />
<path d="M5.7600 6.6040
L5.7600 6.6510
" />
<path d="M5.7600 6.7570
L5.7600 6.6510
" />
<path d="M5.7600 6.7570
L5.7600 6.8340
" />
<path d="M5.7600 8.8540
L5.7600 9.2040
" />
<path d="M5.7760 7.1040
L5.7600 6.8340
" />
<path d="M5.8580 0.5040
L5.8580 1.0040
" />
<path d="M5.8580 0.5040
L6.0100 0.5040
" />
<path d="M5.8580 1.0040
L5.8580 1.1050
" />
<path d="M6.0100 0.5040
L6.0100 1.0040
" />
<path d="M6.0100 1.0040
L6.0100 1.1050
" />
<path d="M6.0900 7.1040
L6.1080 6.8340
" />
<path d="M6.0900 7.1040
L6.2760 7.1040
" />
<path d="M6.1080 6.6040
L6.1080 6.6510
" />
<path d="M6.1080 6.7570
L6.1080 6.6510
" />
<path d="M6.1080 6.7570
L6.1080 6.8340
" />
<path d="M6.1080 8.8540
L6.1080 9.2040
" />
<path d="M6.1080 9.2040
L6.2600 9.2040
" />
<path d="M6.2600 6.6040
L6.2600 6.6510
" />
<path d="M6.2600 6.7570
L6.2600 6.6510
" />
<path d="M6.2600 6.7570
L6.2600 6.8340
" />
<path d="M6.2600 8.8540
L6.2600 9.2040
" />
<path d="M6.2760 7.1040
L6.2600 6.8340
" />
<path d="M6.3580 0.5040
L6.3580 1.0040
" />
<path d="M6.3580 0.5040
L6.5100 0.5040
" />
<path d="M6.3580 1.0040
L6.3580 1.1050
" />
<path d="M6.5100 0.5040
L6.5100 1.0040
" />
<path d="M6.5100 1.0040
L6.5100 1.1050
" />
<path d="M6.5900 7.1040
L6.6080 6.8340
" />
<path d="M6.5900 7.1040
L6.7760 7.1040
" />
<path d="M6.6080 6.6040
L6.6080 6.6510
" />
<path d="M6.6080 6.7570
L6.6080 6.6510
" />
<path d="M6.6080 6.7570
L6.6080 6.8340
" />
<path d="M6.6080 8.8540
L6.6080 9.2040
" />
<path d="M6.6080 9.2040
L6.7600 9.2040
" />
<path d="M6.7600 6.6040
L6.7600 6.6510
" />
<path d="M6.7600 6.7570
L6.7600 6.6510
" />
<path d="M6.7600 6.7570
L6.7600 6.8340
" />
<path d="M6.7600 8.8540
L6.7600 9.2040
" />
<path d="M6.7760 7.1040
L6.7600 6.8340
" />
<path d="M6.8580 0.5040
L6.8580 1.0040
" />
<path d="M6.8580 0.5040
L7.0100 0.5040
" />
<path d="M6.8580 1.0040
L6.8580 1.1050
" />
<path d="M7.0100 0.5040
L7.0100 1.0040
" />
<path d="M7.0100 1.0040
L7.0100 1.1050
" />
<path d="M7.0900 7.1040
L7.1080 6.8340
" />
<path d="M7.0900 7.1040
L7.2770 7.1040
" />
<path d="M7.1080 6.6040
L7.1080 6.6510
" />
<path d="M7.1080 6.7570
L7.1080 6.6510
" />
<path d="M7.1080 6.7570
L7.1080 6.8340
" />
<path d="M7.1080 8.8540
L7.1080 9.2040
" />
<path d="M7.1080 9.2040
L7.2590 9.2040
" />
<path d="M7.2590 6.6040
L7.2590 6.6510
" />
<path d="M7.2590 6.7570
L7.2590 6.6510
" />
<path d="M7.2590 6.7570
L7.2590 6.8340
" />
<path d="M7.2590 8.8540
L7.2590 9.2040
" />
<path d="M7.2770 7.1040
L7.2590 6.8340
" />
<path d="M7.3590 0.5040
L7.3590 1.0040
" />
<path d="M7.3590 0.5040
L7.5090 0.5040
" />
<path d="M7.3590 1.0040
L7.3590 1.1050
" />
<path d="M7.5090 0.5040
L7.5090 1.0040
" />
<path d="M7.5090 1.0040
L7.5090 1.1050
" />
<path d="M7.5890 7.1040
L7.6090 6.8340
" />
<path d="M7.5890 7.1040
L7.7770 7.1040
" />
<path d="M7.6090 6.6040
L7.6090 6.6510
" />
<path d="M7.6090 6.7570
L7.6090 6.6510
" />
<path d="M7.6090 6.7570
L7.6090 6.8340
" />
<path d="M7.6090 8.8540
L7.6090 9.2040
" />
<path d="M7.6090 9.2040
L7.7590 9.2040
" />
<path d="M7.7590 6.6040
L7.7590 6.6510
" />
<path d="M7.7590 6.7570
L7.7590 6.6510
" />
<path d="M7.7590 6.7570
L7.7590 6.8340
" />
<path d="M7.7590 8.8540
L7.7590 9.2040
" />
<path d="M7.7770 7.1040
L7.7590 6.8340
" />
<path d="M7.8590 0.5040
L7.8590 1.0040
" />
<path d="M7.8590 0.5040
L8.0090 0.5040
" />
<path d="M7.8590 1.0040
L7.8590 1.1050
" />
<path d="M8.0090 0.5040
L8.0090 1.0040
" />
<path d="M8.0090 1.0040
L8.0090 1.1050
" />
<path d="M8.0890 7.1040
L8.1080 6.8340
" />
<path d="M8.0890 7.1040
L8.2770 7.1040
" />
<path d="M8.1080 6.6040
L8.1080 6.6510
" />
<path d="M8.1080 6.7570
L8.1080 6.6510
" />
<path d="M8.1080 6.7570
L8.1080 6.8340
" />
<path d="M8.1080 8.8540
L8.1080 9.2040
" />
<path d="M8.1080 9.2040
L8.2590 9.2040
" />
<path d="M8.2590 6.6040
L8.2590 6.6510
" />
<path d="M8.2590 6.7570
L8.2590 6.6510
" />
<path d="M8.2590 6.7570
L8.2590 6.8340
" />
<path d="M8.2590 8.8540
L8.2590 9.2040
" />
<path d="M8.2770 7.1040
L8.2590 6.8340
" />
<path d="M8.3580 0.5040
L8.3580 1.0040
" />
<path d="M8.3580 0.5040
L8.5090 0.5040
" />
<path d="M8.3580 1.0040
L8.3580 1.1050
" />
<path d="M8.5090 0.5040
L8.5090 1.0040
" />
<path d="M8.5090 1.0040
L8.5090 1.1050
" />
<path d="M8.5910 7.1040
L8.6080 6.8340
" />
<path d="M8.5910 7.1040
L8.7770 7.1040
" />
<path d="M8.6080 6.6040
L8.6080 6.6510
" />
<path d="M8.6080 6.7570
L8.6080 6.6510
" />
<path d="M8.6080 6.7570
L8.6080 6.8340
" />
<path d="M8.6080 8.8540
L8.6080 9.2040
" />
<path d="M8.6080 9.2040
L8.7590 9.2040
" />
<path d="M8.7590 6.6040
L8.7590 6.6510
" />
<path d="M8.7590 6.7570
L8.7590 6.6510
" />
<path d="M8.7590 6.7570
L8.7590 6.8340
" />
<path d="M8.7590 8.8540
L8.7590 9.2040
" />
<path d="M8.7770 7.1040
L8.7590 6.8340
" />
<path d="M8.8580 0.5040
L8.8580 1.0040
" />
<path d="M8.8580 0.5040
L9.0090 0.5040
" />
<path d="M8.8580 1.0040
L8.8580 1.1050
" />
<path d="M9.0090 0.5040
L9.0090 1.0040
" />
<path d="M9.0090 1.0040
L9.0090 1.1050
" />
<path d="M9.0910 7.1040
L9.1080 6.8340
" />
<path d="M9.0910 7.1040
L9.2760 7.1040
" />
<path d="M9.1080 6.6040
L9.1080 6.6510
" />
<path d="M9.1080 6.7570
L9.1080 6.6510
" />
<path d="M9.1080 6.7570
L9.1080 6.8340
" />
<path d="M9.1080 8.8540
L9.1080 9.2040
" />
<path d="M9.1080 9.2040
L9.2590 9.2040
" />
<path d="M9.2590 6.6040
L9.2590 6.6510
" />
<path d="M9.2590 6.7570
L9.2590 6.6510
" />
<path d="M9.2590 6.7570
L9.2590 6.8340
" />
<path d="M9.2590 8.8540
L9.2590 9.2040
" />
<path d="M9.2760 7.1040
L9.2590 6.8340
" />
<path d="M9.3580 0.5040
L9.3580 1.0040
" />
<path d="M9.3580 0.5040
L9.5090 0.5040
" />
<path d="M9.3580 1.0040
L9.3580 1.1050
" />
<path d="M9.5090 0.5040
L9.5090 1.0040
" />
<path d="M9.5090 1.0040
L9.5090 1.1050
" />
<path d="M9.5900 7.1040
L9.6080 6.8340
" />
<path d="M9.5900 7.1040
L9.7770 7.1040
" />
<path d="M9.6080 6.6040
L9.6080 6.6510
" />
<path d="M9.6080 6.7570
L9.6080 6.6510
" />
<path d="M9.6080 6.7570
L9.6080 6.8340
" />
<path d="M9.6080 8.8540
L9.6080 9.2040
" />
<path d="M9.6080 9.2040
L9.7590 9.2040
" />
<path d="M9.7590 6.6040
L9.7590 6.6510
" />
<path d="M9.7590 6.7570
L9.7590 6.6510
" />
<path d="M9.7590 6.7570
L9.7590 6.8340
" />
<path d="M9.7590 8.8540
L9.7590 9.2040
" />
<path d="M9.7770 7.1040
L9.7590 6.8340
" />
<path d="M9.8580 0.5040
L9.8580 1.0040
" />
<path d="M9.8580 0.5040
L10.0070 0.5040
" />
<path d="M9.8580 1.0040
L9.8580 1.1050
" />
<path d="M10.0070 0.5040
L10.0070 1.0040
" />
<path d="M10.0070 1.0040
L10.0070 1.1050
" />
<path d="M10.0900 7.1040
L10.1100 6.8340
" />
<path d="M10.0900 7.1040
L10.2760 7.1040
" />
<path d="M10.1100 6.6040
L10.1100 6.6510
" />
<path d="M10.1100 6.7570
L10.1100 6.6510
" />
<path d="M10.1100 6.7570
L10.1100 6.8340
" />
<path d="M10.1100 8.8540
L10.1100 9.2040
" />
<path d="M10.1100 9.2040
L10.2570 9.2040
" />
<path d="M10.2570 6.6040
L10.2570 6.6510
" />
<path d="M10.2570 6.7570
L10.2570 6.6510
" />
<path d="M10.2570 6.7570
L10.2570 6.8340
" />
<path d="M10.2570 8.8540
L10.2570 9.2040
" />
<path d="M10.2760 7.1040
L10.2570 6.8340
" />
<path d="M10.3590 0.5040
L10.3590 1.0040
" />
<path d="M10.3590 0.5040
L10.5070 0.5040
" />
<path d="M10.3590 1.0040
L10.3590 1.1050
" />
<path d="M10.5070 0.5040
L10.5070 1.0040
" />
<path d="M10.5070 1.0040
L10.5070 1.1050
" />
<path d="M10.5910 7.1040
L10.6090 6.8340
" />
<path d="M10.5910 7.1040
L10.7760 7.1040
" />
<path d="M10.6090 6.6040
L10.6090 6.6510
" />
<path d="M10.6090 6.7570
L10.6090 6.6510
" />
<path d="M10.6090 6.7570
L10.6090 6.8340
" />
<path d="M10.6090 8.8540
L10.6090 9.2040
" />
<path d="M10.6090 9.2040
L10.7580 9.2040
" />
<path d="M10.7580 6.6040
L10.7580 6.6510
" />
<path d="M10.7580 6.7570
L10.7580 6.6510
" />
<path d="M10.7580 6.7570
L10.7580 6.8340
" />
<path d="M10.7580 8.8540
L10.7580 9.2040
" />
<path d="M10.7760 7.1040
L10.7580 6.8340
" />
<path d="M10.8590 0.5040
L10.8590 1.0040
" />
<path d="M10.8590 0.5040
L11.0080 0.5040
" />
<path d="M10.8590 1.0040
L10.8590 1.1050
" />
<path d="M11.0080 0.5040
L11.0080 1.0040
" />
<path d="M11.0080 1.0040
L11.0080 1.1050
" />
<path d="M11.0910 7.1040
L11.1100 6.8340
" />
<path d="M11.0910 7.1040
L11.2760 7.1040
" />
<path d="M11.1100 6.6040
L11.1100 6.6510
" />
<path d="M11.1100 6.7570
L11.1100 6.6510
" />
<path d="M11.1100 6.7570
L11.1100 6.8340
" />
<path d="M11.1100 8.8540
L11.1100 9.2040
" />
<path d="M11.1100 9.2040
L11.2570 9.2040
" />
<path d="M11.2570 6.6040
L11.2570 6.6510
" />
<path d="M11.2570 6.7570
L11.2570 6.6510
" />
<path d="M11.2570 6.7570
L11.2570 6.8340
" />
<path d="M11.2570 8.8540
L11.2570 9.2040
" />
<path d="M11.2760 7.1040
L11.2570 6.8340
" />
<path d="M11.3600 0.5040
L11.3600 1.0040
" />
<path d="M11.3600 0.5040
L11.5080 0.5040
" />
<path d="M11.3600 1.0040
L11.3600 1.1050
" />
<path d="M11.5080 0.5040
L11.5080 1.0040
" />
<path d="M11.5080 1.0040
L11.5080 1.1050
" />
<path d="M11.5910 7.1040
L11.6090 6.8340
" />
<path d="M11.5910 7.1040
L11.7760 7.1040
" />
<path d="M11.6090 6.6040
L11.6090 6.6510
" />
<path d="M11.6090 6.7570
L11.6090 6.6510
" />
<path d="M11.6090 6.7570
L11.6090 6.8340
" />
<path d="M11.6090 8.8540
L11.6090 9.2040
" />
<path d="M11.6090 9.2040
L11.7580 9.2040
" />
<path d="M11.7580 6.6040
L11.7580 6.6510
" />
<path d="M11.7580 6.7570
L11.7580 6.6510
" />
<path d="M11.7580 6.7570
L11.7580 6.8340
" />
<path d="M11.7580 8.8540
L11.7580 9.2040
" />
<path d="M11.7760 7.1040
L11.7580 6.8340
" />
<path d="M11.8600 0.5040
L11.8600 1.0040
" />
<path d="M11.8600 0.5040
L12.0080 0.5040
" />
<path d="M11.8600 1.0040
L11.8600 1.1050
" />
<path d="M12.0080 0.5040
L12.0080 1.0040
" />
<path d="M12.0080 1.0040
L12.0080 1.1050
" />
<path d="M12.0910 7.1040
L12.1100 6.8340
" />
<path d="M12.0910 7.1040
L12.2770 7.1040
" />
<path d="M12.1100 6.6040
L12.1100 6.6510
" />
<path d="M12.1100 6.7570
L12.1100 6.6510
" />
<path d="M12.1100 6.7570
L12.1100 6.8340
" />
<path d="M12.1100 8.8540
L12.1100 9.2040
" />
<path d="M12.1100 9.2040
L12.2570 9.2040
" />
<path d="M12.2570 6.6040
L12.2570 6.6510
" />
<path d="M12.2570 6.7570
L12.2570 6.6510
" />
<path d="M12.2570 6.7570
L12.2570 6.8340
" />
<path d="M12.2570 8.8540
L12.2570 9.2040
" />
<path d="M12.2770 7.1040
L12.2570 6.8340
" />
<path d="M12.3600 0.5040
L12.3600 1.0040
" />
<path d="M12.3600 0.5040
L12.5070 0.5040
" />
<path d="M12.3600 1.0040
L12.3600 1.1050
" />
<path d="M12.5070 0.5040
L12.5070 1.0040
" />
<path d="M12.5070 1.0040
L12.5070 1.1050
" />
<path d="M12.5910 7.1040
L12.6100 6.8340
" />
<path d="M12.5910 7.1040
L12.7770 7.1040
" />
<path d="M12.6100 6.6040
L12.6100 6.6510
" />
<path d="M12.6100 6.7570
L12.6100 6.6510
" />
<path d="M12.6100 6.7570
L12.6100 6.8340
" />
<path d="M12.6100 8.8540
L12.6100 9.2040
" />
<path d="M12.6100 9.2040
L12.7570 9.2040
" />
<path d="M12.7570 6.6040
L12.7570 6.6510
" />
<path d="M12.7570 6.7570
L12.7570 6.6510
" />
<path d="M12.7570 6.7570
L12.7570 6.8340
" />
<path d="M12.7570 8.8540
L12.7570 9.2040
" />
<path d="M12.7770 7.1040
L12.7570 6.8340
" />
<path d="M12.8600 0.5040
L12.8600 1.0040
" />
<path d="M12.8600 0.5040
L13.0070 0.5040
" />
<path d="M12.8600 1.0040
L12.8600 1.1050
" />
<path d="M13.0070 0.5040
L13.0070 1.0040
" />
<path d="M13.0070 1.0040
L13.0070 1.1050
" />
<path d="M13.0910 7.1040
L13.1100 6.8340
" />
<path d="M13.0910 7.1040
L13.2770 7.1040
" />
<path d="M13.1100 6.6040
L13.1100 6.6510
" />
<path d="M13.1100 6.7570
L13.1100 6.6510
" />
<path d="M13.1100 6.7570
L13.1100 6.8340
" />
<path d="M13.1100 8.8540
L13.1100 9.2040
" />
<path d="M13.1100 9.2040
L13.2570 9.2040
" />
<path d="M13.2570 6.6040
L13.2570 6.6510
" />
<path d="M13.2570 6.7570
L13.2570 6.6510
" />
<path d="M13.2570 6.7570
L13.2570 6.8340
" />
<path d="M13.2570 8.8540
L13.2570 9.2040
" />
<path d="M13.2770 7.1040
L13.2570 6.8340
" />
<path d="M13.3600 0.5040
L13.3600 1.0040
" />
<path d="M13.3600 0.5040
L13.5070 0.5040
" />
<path d="M13.3600 1.0040
L13.3600 1.1050
" />
<path d="M13.5070 0.5040
L13.5070 1.0040
" />
<path d="M13.5070 1.0040
L13.5070 1.1050
" />
<path d="M13.5910 7.1040
L13.6100 6.8340
" />
<path d="M13.5910 7.1040
L13.7770 7.1040
" />
<path d="M13.6100 6.6040
L13.6100 6.6510
" />
<path d="M13.6100 6.7570
L13.6100 6.6510
" />
<path d="M13.6100 6.7570
L13.6100 6.8340
" />
<path d="M13.6100 8.8540
L13.6100 9.2040
" />
<path d="M13.6100 9.2040
L13.7570 9.2040
" />
<path d="M13.7570 6.6040
L13.7570 6.6510
" />
<path d="M13.7570 6.7570
L13.7570 6.6510
" />
<path d="M13.7570 6.7570
L13.7570 6.8340
" />
<path d="M13.7570 8.8540
L13.7570 9.2040
" />
<path d="M13.7770 7.1040
L13.7570 6.8340
" />
<path d="M13.8600 0.5040
L13.8600 1.0040
" />
<path d="M13.8600 0.5040
L14.0070 0.5040
" />
<path d="M13.8600 1.0040
L13.8600 1.1050
" />
<path d="M14.0070 0.5040
L14.0070 1.0040
" />
<path d="M14.0070 1.0040
L14.0070 1.1050
" />
<path d="M14.0910 7.1040
L14.1100 6.8340
" />
<path d="M14.0910 7.1040
L14.2770 7.1040
" />
<path d="M14.1100 6.6040
L14.1100 6.6510
" />
<path d="M14.1100 6.7570
L14.1100 6.6510
" />
<path d="M14.1100 6.7570
L14.1100 6.8340
" />
<path d="M14.1100 8.8540
L14.1100 9.2040
" />
<path d="M14.1100 9.2040
L14.2570 9.2040
" />
<path d="M14.2570 6.6040
L14.2570 6.6510
" />
<path d="M14.2570 6.7570
L14.2570 6.6510
" />
<path d="M14.2570 6.7570
L14.2570 6.8340
" />
<path d="M14.2570 8.8540
L14.2570 9.2040
" />
<path d="M14.2770 7.1040
L14.2570 6.8340
" />
<path d="M14.3600 0.5040
L14.3600 1.0040
" />
<path d="M14.3600 0.5040
L14.5070 0.5040
" />
<path d="M14.3600 1.0040
L14.3600 1.1050
" />
<path d="M14.5070 0.5040
L14.5070 1.0040
" />
<path d="M14.5070 1.0040
L14.5070 1.1050
" />
<path d="M14.5910 7.1040
L14.6100 6.8340
" />
<path d="M14.5910 7.1040
L14.7770 7.1040
" />
<path d="M14.6100 6.6040
L14.6100 6.6510
" />
<path d="M14.6100 6.7570
L14.6100 6.6510
" />
<path d="M14.6100 6.7570
L14.6100 6.8340
" />
<path d="M14.6100 8.8540
L14.6100 9.2040
" />
<path d="M14.6100 9.2040
L14.7570 9.2040
" />
<path d="M14.7570 6.6040
L14.7570 6.6510
" />
<path d="M14.7570 6.7570
L14.7570 6.6510
" />
<path d="M14.7570 6.7570
L14.7570 6.8340
" />
<path d="M14.7570 8.8540
L14.7570 9.2040
" />
<path d="M14.7770 7.1040
L14.7570 6.8340
" />
<path d="M14.8600 0.5040
L14.8600 1.0040
" />
<path d="M14.8600 0.5040
L15.0070 0.5040
" />
<path d="M14.8600 1.0040
L14.8600 1.1050
" />
<path d="M15.0070 0.5040
L15.0070 1.0040
" />
<path d="M15.0070 1.0040
L15.0070 1.1050
" />
<path d="M15.0910 7.1040
L15.1100 6.8340
" />
<path d="M15.0910 7.1040
L15.2770 7.1040
" />
<path d="M15.1100 6.6040
L15.1100 6.6510
" />
<path d="M15.1100 6.7570
L15.1100 6.6510
" />
<path d="M15.1100 6.7570
L15.1100 6.8340
" />
<path d="M15.1100 8.8540
L15.1100 9.2040
" />
<path d="M15.1100 9.2040
L15.2580 9.2040
" />
<path d="M15.2580 6.6040
L15.2580 6.6510
" />
<path d="M15.2580 6.7570
L15.2580 6.6510
" />
<path d="M15.2580 6.7570
L15.2580 6.8340
" />
<path d="M15.2580 8.8540
L15.2580 9.2040
" />
<path d="M15.2770 7.1040
L15.2580 6.8340
" />
<path d="M15.3590 0.5040
L15.3590 1.0040
" />
<path d="M15.3590 0.5040
L15.5080 0.5040
" />
<path d="M15.3590 1.0040
L15.3590 1.1050
" />
<path d="M15.5080 0.5040
L15.5080 1.0040
" />
<path d="M15.5080 1.0040
L15.5080 1.1050
" />
<path d="M15.5900 7.1040
L15.6090 6.8340
" />
<path d="M15.5900 7.1040
L15.7770 7.1040
" />
<path d="M15.6090 6.6040
L15.6090 6.6510
" />
<path d="M15.6090 6.7570
L15.6090 6.6510
" />
<path d="M15.6090 6.7570
L15.6090 6.8340
" />
<path d="M15.6090 8.8540
L15.6090 9.2040
" />
<path d="M15.6090 9.2040
L15.7580 9.2040
" />
<path d="M15.7580 6.6040
L15.7580 6.6510
" />
<path d="M15.7580 6.7570
L15.7580 6.6510
" />
<path d="M15.7580 6.7570
L15.7580 6.8340
" />
<path d="M15.7580 8.8540
L15.7580 9.2040
" />
<path d="M15.7770 7.1040
L15.7580 6.8340
" />
<path d="M15.8590 0.5040
L15.8590 1.0040
" />
<path d="M15.8590 0.5040
L16.0080 0.5040
" />
<path d="M15.8590 1.0040
L15.8590 1.1050
" />
<path d="M16.0080 0.5040
L16.0080 1.0040
" />
<path d="M16.0080 1.0040
L16.0080 1.1050
" />
<path d="M16.0900 7.1040
L16.1090 6.8340
" />
<path d="M16.0900 7.1040
L16.2770 7.1040
" />
<path d="M16.1090 6.6040
L16.1090 6.6510
" />
<path d="M16.1090 6.7570
L16.1090 6.6510
" />
<path d="M16.1090 6.7570
L16.1090 6.8340
" />
<path d="M16.1090 8.8540
L16.1090 9.2040
" />
<path d="M16.1090 9.2040
L16.2580 9.2040
" />
<path d="M16.2580 6.6040
L16.2580 6.6510
" />
<path d="M16.2580 6.7570
L16.2580 6.6510
" />
<path d="M16.2580 6.7570
L16.2580 6.8340
" />
<path d="M16.2580 8.8540
L16.2580 9.2040
" />
<path d="M16.2770 7.1040
L16.2580 6.8340
" />
<path d="M16.5270 6.6040
L16.5270 8.8540
" />
<path d="M16.6380 8.8540
L16.5270 8.8540
" />
<path d="M16.6380 8.8540
L16.6380 8.6040
" />
<path d="M16.7580 6.9560
L16.7580 6.6040
" />
</g>
<g style="fill:#000000; fill-opacity:1.0000; stroke:none;">
<circle cx="16.7580" cy="6.9560" r="0.0100" /> 
</g>
<g style="fill:none; 
stroke:#000000; stroke-width:0.0200; stroke-opacity:1; 
stroke-linecap:round; stroke-linejoin:round;">
<path d="M16.7580 7.1040
L16.7580 6.9560
" />
<path d="M16.7580 7.1040
L16.7600 7.1280
" />
<path d="M16.7600 7.1280
L16.7610 7.1520
" />
<path d="M16.7610 7.1520
L16.7630 7.1770
" />
<path d="M16.7630 7.1770
L16.7680 7.2020
" />
<path d="M16.7680 7.2020
L16.7740 7.2250
" />
<path d="M16.7740 7.2250
L16.7790 7.2490
" />
<path d="M16.7790 7.2490
L16.7880 7.2730
" />
<path d="M16.7880 7.2730
L16.7960 7.2950
" />
<path d="M16.7960 7.2950
L16.8060 7.3180
" />
<path d="M16.8060 7.3180
L16.8170 7.3380
" />
<path d="M16.8170 7.3380
L16.8290 7.3590
" />
<path d="M16.8290 7.3590
L16.8430 7.3820
" />
<path d="M16.8430 7.3820
L16.8560 7.4010
" />
<path d="M16.8560 7.4010
L16.8720 7.4200
" />
<path d="M16.8720 7.4200
L16.8880 7.4390
" />
<path d="M16.8880 7.4390
L16.9040 7.4560
" />
</g>
<g style="fill:#000000; fill-opacity:1.0000; stroke:none;">
<circle cx="16.9040" cy="7.4560" r="0.0100" /> 
</g>
<g style="fill:none; 
stroke:#000000; stroke-width:0.0200; stroke-opacity:1; 
stroke-linecap:round; stroke-linejoin:round;">
<path d="M16.9040 7.4560
L16.9230 7.4750
" />
<path d="M16.9230 7.4750
L16.9420 7.4910
" />
<path d="M16.9420 7.4910
L16.9620 7.5060
" />
<path d="M16.9620 7.5060
L16.9810 7.5190
" />
<path d="M16.9810 7.5190
L17.0020 7.5320
" />
<path d="M17.0020 7.5320
L17.0240 7.5450
" />
<path d="M17.0240 7.5450
L17.0450 7.5560
" />
<path d="M17.0450 7.5560
L17.0670 7.5640
" />
<path d="M17.0670 7.5640
L17.0900 7.5730
" />
<path d="M17.0900 7.5730
L17.1120 7.5810
" />
<path d="M17.1120 7.5810
L17.1380 7.5880
" />
<path d="M17.1380 7.5880
L17.1600 7.5950
" />
<path d="M17.1600 7.5950
L17.1840 7.5970
" />
<path d="M17.1840 7.5970
L17.2100 7.6010
" />
<path d="M17.2100 7.6010
L17.2340 7.6030
" />
<path d="M17.2340 7.6030
L17.2580 7.6040
" />
<path d="M17.3590 6.6040
L21.7580 6.6040
" />
<path d="M17.3590 7.6040
L17.2580 7.6040
" />
<path d="M17.3830 7.6030
L17.3590 7.6040
" />
<path d="M17.4070 7.6010
L17.3830 7.6030
" />
<path d="M17.4330 7.5970
L17.4070 7.6010
" />
<path d="M17.4570 7.5950
L17.4330 7.5970
" />
<path d="M17.4810 7.5880
L17.4570 7.5950
" />
<path d="M17.5030 7.5810
L17.4810 7.5880
" />
<path d="M17.5270 7.5730
L17.5030 7.5810
" />
<path d="M17.5500 7.5640
L17.5270 7.5730
" />
<path d="M17.5720 7.5560
L17.5500 7.5640
" />
<path d="M17.5930 7.5450
L17.5720 7.5560
" />
<path d="M17.6150 7.5320
L17.5930 7.5450
" />
<path d="M17.6360 7.5190
L17.6150 7.5320
" />
<path d="M17.6550 7.5060
L17.6360 7.5190
" />
<path d="M17.6750 7.4910
L17.6550 7.5060
" />
<path d="M17.6940 7.4750
L17.6750 7.4910
" />
<path d="M17.7130 7.4560
L17.6940 7.4750
" />
</g>
<g style="fill:#000000; fill-opacity:1.0000; stroke:none;">
<circle cx="17.7130" cy="7.4560" r="0.0100" /> 
</g>
<g style="fill:none; 
stroke:#000000; stroke-width:0.0200; stroke-opacity:1; 
stroke-linecap:round; stroke-linejoin:round;">
<path d="M17.7290 7.4390
L17.7130 7.4560
" />
<path d="M17.7450 7.4200
L17.7290 7.4390
" />
<path d="M17.7610 7.4010
L17.7450 7.4200
" />
<path d="M17.7740 7.3820
L17.7610 7.4010
" />
<path d="M17.7880 7.3590
L17.7740 7.3820
" />
<path d="M17.8000 7.3380
L17.7880 7.3590
" />
<path d="M17.8110 7.3180
L17.8000 7.3380
" />
<path d="M17.8200 7.2950
L17.8110 7.3180
" />
<path d="M17.8280 7.2730
L17.8200 7.2950
" />
<path d="M17.8380 7.2490
L17.8280 7.2730
" />
<path d="M17.8430 7.2250
L17.8380 7.2490
" />
<path d="M17.8490 7.2020
L17.8430 7.2250
" />
<path d="M17.8540 7.1770
L17.8490 7.2020
" />
<path d="M17.8560 7.1520
L17.8540 7.1770
" />
<path d="M17.8570 7.1280
L17.8560 7.1520
" />
<path d="M17.8590 6.6040
L17.8590 6.9560
" />
</g>
<g style="fill:#000000; fill-opacity:1.0000; stroke:none;">
<circle cx="17.8590" cy="6.9560" r="0.0100" /> 
</g>
<g style="fill:none; 
stroke:#000000; stroke-width:0.0200; stroke-opacity:1; 
stroke-linecap:round; stroke-linejoin:round;">
<path d="M17.8590 6.9560
L17.8590 7.1040
" />
<path d="M17.8590 7.1040
L17.8570 7.1280
" />
<path d="M18.2290 8.6040
L16.6380 8.6040
" />
<path d="M18.2290 8.8540
L18.2290 8.6040
" />
<path d="M18.3400 6.6040
L18.3400 8.8540
" />
<path d="M18.3400 8.8540
L18.2290 8.8540
" />
<path d="M18.3400 8.8540
L20.6820 8.8540
" />
<path d="M18.3590 0.5040
L18.3590 1.0040
" />
<path d="M18.3590 0.5040
L18.5080 0.5040
" />
<path d="M18.3590 1.0040
L18.3590 1.1050
" />
<path d="M18.5080 0.5040
L18.5080 1.0040
" />
<path d="M18.5080 1.0040
L18.5080 1.1050
" />
<path d="M18.5900 7.1040
L18.6090 6.8340
" />
<path d="M18.5900 7.1040
L18.7770 7.1040
" />
<path d="M18.6090 6.6040
L18.6090 6.6510
" />
<path d="M18.6090 6.7570
L18.6090 6.6510
" />
<path d="M18.6090 6.7570
L18.6090 6.8340
" />
<path d="M18.6090 8.8540
L18.6090 9.2040
" />
<path d="M18.6090 9.2040
L18.7580 9.2040
" />
<path d="M18.7580 6.6040
L18.7580 6.6510
" />
<path d="M18.7580 6.7570
L18.7580 6.6510
" />
<path d="M18.7580 6.7570
L18.7580 6.8340
" />
<path d="M18.7580 8.8540
L18.7580 9.2040
" />
<path d="M18.7770 7.1040
L18.7580 6.8340
" />
<path d="M18.8590 0.5040
L18.8590 1.0040
" />
<path d="M18.8590 0.5040
L19.0080 0.5040
" />
<path d="M18.8590 1.0040
L18.8590 1.1050
" />
<path d="M19.0080 0.5040
L19.0080 1.0040
" />
<path d="M19.0080 1.0040
L19.0080 1.1050
" />
<path d="M19.0900 7.1040
L19.1090 6.8340
" />
<path d="M19.0900 7.1040
L19.2770 7.1040
" />
<path d="M19.1090 6.6040
L19.1090 6.6510
" />
<path d="M19.1090 6.7570
L19.1090 6.6510
" />
<path d="M19.1090 6.7570
L19.1090 6.8340
" />
<path d="M19.1090 8.8540
L19.1090 9.2040
" />
<path d="M19.1090 9.2040
L19.2580 9.2040
" />
<path d="M19.2580 6.6040
L19.2580 6.6510
" />
<path d="M19.2580 6.7570
L19.2580 6.6510
" />
<path d="M19.2580 6.7570
L19.2580 6.8340
" />
<path d="M19.2580 8.8540
L19.2580 9.2040
" />
<path d="M19.2770 7.1040
L19.2580 6.8340
" />
<path d="M19.3600 0.5040
L19.3600 1.0040
" />
<path d="M19.3600 0.5040
L19.5080 0.5040
" />
<path d="M19.3600 1.0040
L19.3600 1.1050
" />
<path d="M19.5080 0.5040
L19.5080 1.0040
" />
<path d="M19.5080 1.0040
L19.5080 1.1050
" />
<path d="M19.5890 7.1040
L19.6100 6.8340
" />
<path d="M19.5890 7.1040
L19.7770 7.1040
" />
<path d="M19.6100 6.6040
L19.6100 6.6510
" />
<path d="M19.6100 6.7570
L19.6100 6.6510
" />
<path d="M19.6100 6.7570
L19.6100 6.8340
" />
<path d="M19.6100 8.8540
L19.6100 9.2040
" />
<path d="M19.6100 9.2040
L19.7580 9.2040
" />
<path d="M19.7580 6.6040
L19.7580 6.6510
" />
<path d="M19.7580 6.7570
L19.7580 6.6510
" />
<path d="M19.7580 6.7570
L19.7580 6.8340
" />
<path d="M19.7580 8.8540
L19.7580 9.2040
" />
<path d="M19.7770 7.1040
L19.7580 6.8340
" />
<path d="M19.8600 0.5040
L19.8600 1.0040
" />
<path d="M19.8600 0.5040
L20.0080 0.5040
" />
<path d="M19.8600 1.0040
L19.8600 1.1050
" />
<path d="M20.0080 0.5040
L20.0080 1.0040
" />
<path d="M20.0080 1.0040
L20.0080 1.1050
" />
<path d="M20.0890 7.1040
L20.1100 6.8340
" />
<path d="M20.0890 7.1040
L20.2770 7.1040
" />
<path d="M20.1100 6.6040
L20.1100 6.6510
" />
<path d="M20.1100 6.7570
L20.1100 6.6510
" />
<path d="M20.1100 6.7570
L20.1100 6.8340
" />
<path d="M20.1100 8.8540
L20.1100 9.2040
" />
<path d="M20.1100 9.2040
L20.2580 9.2040
" />
<path d="M20.2580 6.6040
L20.2580 6.6510
" />
<path d="M20.2580 6.7570
L20.2580 6.6510
" />
<path d="M20.2580 6.7570
L20.2580 6.8340
" />
<path d="M20.2580 8.8540
L20.2580 9.2040
" />
<path d="M20.2770 7.1040
L20.2580 6.8340
" />
<path d="M20.3600 0.5040
L20.3600 1.0040
" />
<path d="M20.3600 0.5040
L20.5080 0.5040
" />
<path d="M20.3600 1.0040
L20.3600 1.1050
" />
<path d="M20.5080 0.5040
L20.5080 1.0040
" />
<path d="M20.5080 1.0040
L20.5080 1.1050
" />
<path d="M20.6820 6.6040
L20.6820 8.8540
" />
<path d="M21.2580 6.9560
L21.2580 6.6040
" />
</g>
<g style="fill:#000000; fill-opacity:1.0000; stroke:none;">
<circle cx="21.2580" cy="6.9560" r="0.0100" /> 
</g>
<g style="fill:none; 
stroke:#000000; stroke-width:0.0200; stroke-opacity:1; 
stroke-linecap:round; stroke-linejoin:round;">
<path d="M21.2580 7.1040
L21.2580 6.9560
" />
<path d="M21.2580 7.1040
L21.2580 7.1280
" />
<path d="M21.2580 7.1280
L21.2610 7.1520
" />
<path d="M21.2610 7.1520
L21.2640 7.1770
" />
<path d="M21.2640 7.1770
L21.2670 7.2020
" />
<path d="M21.2670 7.2020
L21.2740 7.2250
" />
<path d="M21.2740 7.2250
L21.2800 7.2490
" />
<path d="M21.2800 7.2490
L21.2870 7.2730
" />
<path d="M21.2870 7.2730
L21.2960 7.2950
" />
<path d="M21.2960 7.2950
L21.3060 7.3180
" />
<path d="M21.3060 7.3180
L21.3160 7.3380
" />
<path d="M21.3160 7.3380
L21.3280 7.3590
" />
<path d="M21.3280 7.3590
L21.3420 7.3820
" />
<path d="M21.3420 7.3820
L21.3570 7.4010
" />
<path d="M21.3570 7.4010
L21.3710 7.4200
" />
<path d="M21.3710 7.4200
L21.3890 7.4390
" />
<path d="M21.3890 7.4390
L21.4050 7.4560
" />
</g>
<g style="fill:#000000; fill-opacity:1.0000; stroke:none;">
<circle cx="21.4050" cy="7.4560" r="0.0100" /> 
</g>
<g style="fill:none; 
stroke:#000000; stroke-width:0.0200; stroke-opacity:1; 
stroke-linecap:round; stroke-linejoin:round;">
<path d="M21.4050 7.4560
L21.4240 7.4750
" />
<path d="M21.4240 7.4750
L21.4410 7.4910
" />
<path d="M21.4410 7.4910
L21.4620 7.5060
" />
<path d="M21.4620 7.5060
L21.4820 7.5190
" />
<path d="M21.4820 7.5190
L21.5020 7.5320
" />
<path d="M21.5020 7.5320
L21.5230 7.5450
" />
<path d="M21.5230 7.5450
L21.5460 7.5560
" />
<path d="M21.5460 7.5560
L21.5660 7.5640
" />
<path d="M21.5660 7.5640
L21.5890 7.5730
" />
<path d="M21.5890 7.5730
L21.6140 7.5810
" />
<path d="M21.6140 7.5810
L21.6360 7.5880
" />
<path d="M21.6360 7.5880
L21.6590 7.5950
" />
<path d="M21.6590 7.5950
L21.6850 7.5970
" />
<path d="M21.6850 7.5970
L21.7100 7.6010
" />
<path d="M21.7100 7.6010
L21.7350 7.6030
" />
<path d="M21.7350 7.6030
L21.7580 7.6040
" />
<path d="M21.7580 7.6040
L20.6820 7.6040
" />
<path d="M21.7580 7.6040
L22.1330 7.6040
" />
<path d="M22.1330 1.1050
L22.1330 6.6040
" />
<path d="M22.1330 6.6040
L22.1330 6.9350
" />
</g>
<g style="fill:#000000; fill-opacity:1.0000; stroke:none;">
<circle cx="22.1330" cy="6.9350" r="0.0100" /> 
</g>
<g style="fill:none; 
stroke:#000000; stroke-width:0.0200; stroke-opacity:1; 
stroke-linecap:round; stroke-linejoin:round;">
<path d="M22.1330 6.9350
L22.1330 7.1360
" />
</g>
<g style="fill:#000000; fill-opacity:1.0000; stroke:none;">
<circle cx="22.1330" cy="7.1360" r="0.0100" /> 
</g>
<g style="fill:none; 
stroke:#000000; stroke-width:0.0200; stroke-opacity:1; 
stroke-linecap:round; stroke-linejoin:round;">
<path d="M22.1330 7.1360
L22.1330 7.3110
" />
</g>
<g style="fill:#000000; fill-opacity:1.0000; stroke:none;">
<circle cx="22.1330" cy="7.3110" r="0.0100" /> 
</g>
<g style="fill:none; 
stroke:#000000; stroke-width:0.0200; stroke-opacity:1; 
stroke-linecap:round; stroke-linejoin:round;">
<path d="M22.1330 7.3110
L22.1330 7.3850
" />
</g>
<g style="fill:#000000; fill-opacity:1.0000; stroke:none;">
<circle cx="22.1330" cy="7.3850" r="0.0100" /> 
</g>
<g style="fill:none; 
stroke:#000000; stroke-width:0.0200; stroke-opacity:1; 
stroke-linecap:round; stroke-linejoin:round;">
<path d="M22.1330 7.3850
L22.1330 7.4510
" />
</g>
<g style="fill:#000000; fill-opacity:1.0000; stroke:none;">
<circle cx="22.1330" cy="7.4510" r="0.0100" /> 
</g>
<g style="fill:none; 
stroke:#000000; stroke-width:0.0200; stroke-opacity:1; 
stroke-linecap:round; stroke-linejoin:round;">
<path d="M22.1330 7.4510
L22.1330 7.5030
" />
</g>
<g style="fill:#000000; fill-opacity:1.0000; stroke:none;">
<circle cx="22.1330" cy="7.5030" r="0.0100" /> 
</g>
<g style="fill:none; 
stroke:#000000; stroke-width:0.0200; stroke-opacity:1; 
stroke-linecap:round; stroke-linejoin:round;">
<path d="M22.1330 7.5030
L22.1330 7.5470
" />
</g>
<g style="fill:#000000; fill-opacity:1.0000; stroke:none;">
<circle cx="22.1330" cy="7.5470" r="0.0100" /> 
</g>
<g style="fill:none; 
stroke:#000000; stroke-width:0.0200; stroke-opacity:1; 
stroke-linecap:round; stroke-linejoin:round;">
<path d="M22.1330 7.5470
L22.1330 7.5790
" />
</g>
<g style="fill:#000000; fill-opacity:1.0000; stroke:none;">
<circle cx="22.1330" cy="7.5790" r="0.0100" /> 
</g>
<g style="fill:none; 
stroke:#000000; stroke-width:0.0200; stroke-opacity:1; 
stroke-linecap:round; stroke-linejoin:round;">
<path d="M22.1330 7.5790
L22.1330 7.5960
" />
</g>
<g style="fill:#000000; fill-opacity:1.0000; stroke:none;">
<circle cx="22.1330" cy="7.5960" r="0.0100" /> 
</g>
<g style="fill:none; 
stroke:#000000; stroke-width:0.0200; stroke-opacity:1; 
stroke-linecap:round; stroke-linejoin:round;">
<path d="M22.1330 7.5960
L22.1330 7.6040
" />
</g> 
</svg>
