<?xml version="1.0" standalone="no"?>
 <!DOCTYPE svg PUBLIC "-//W3C//DTD SVG 1.1//EN" 
 "http://www.w3.org/Graphics/SVG/1.1/DTD/svg11.dtd"> 
<svg
  xmlns:svg="http://www.w3.org/2000/svg"
  xmlns="http://www.w3.org/2000/svg"
  xmlns:xlink="http://www.w3.org/1999/xlink"
  version="1.1"
  width="2.5400mm" height="2.7432mm" viewBox="0.0000 0.0000 2.5400 2.7432">
<title>SVG Image created as outline.svg date 2025/04/04 10:06:18 </title>
  <desc>Image generated by PCBNEW </desc>
<g style="fill:#000000; fill-opacity:1.0000;stroke:#000000; stroke-opacity:1.0000;
stroke-linecap:round; stroke-linejoin:round;"
 transform="translate(0 0) scale(1 1)">
</g>
<g style="fill:none; 
stroke:#000000; stroke-width:0.0200; stroke-opacity:1; 
stroke-linecap:round; stroke-linejoin:round;">
<path d="M0.2750 0.1250
L0.2750 2.6250
" />
<path d="M0.2750 2.6250
L2.2750 2.6250
" />
<path d="M0.4380 0.4170
L0.4390 0.4270
" />
<path d="M0.4380 0.4170
L0.4390 0.4270
" />
<path d="M0.4390 0.3960
L0.4390 0.4060
" />
<path d="M0.4390 0.3960
L0.4390 0.4060
" />
<path d="M0.4390 0.4060
L0.4380 0.4170
" />
<path d="M0.4390 0.4060
L0.4380 0.4170
" />
<path d="M0.4390 0.4270
L0.4390 0.4380
" />
<path d="M0.4390 0.4270
L0.4390 0.4380
" />
<path d="M0.4390 0.4380
L0.4410 0.4480
" />
<path d="M0.4390 0.4380
L0.4410 0.4480
" />
<path d="M0.4410 0.3860
L0.4390 0.3960
" />
<path d="M0.4410 0.3860
L0.4390 0.3960
" />
<path d="M0.4410 0.4480
L0.4430 0.4580
" />
<path d="M0.4410 0.4480
L0.4430 0.4580
" />
<path d="M0.4430 0.3750
L0.4410 0.3860
" />
<path d="M0.4430 0.3750
L0.4410 0.3860
" />
<path d="M0.4430 0.4580
L0.4450 0.4680
" />
<path d="M0.4430 0.4580
L0.4450 0.4680
" />
<path d="M0.4450 0.3660
L0.4430 0.3750
" />
<path d="M0.4450 0.3660
L0.4430 0.3750
" />
<path d="M0.4450 0.4680
L0.4480 0.4780
" />
<path d="M0.4450 0.4680
L0.4480 0.4780
" />
<path d="M0.4480 0.3560
L0.4450 0.3660
" />
<path d="M0.4480 0.3560
L0.4450 0.3660
" />
<path d="M0.4480 0.4780
L0.4510 0.4880
" />
<path d="M0.4480 0.4780
L0.4510 0.4880
" />
<path d="M0.4510 0.3460
L0.4480 0.3560
" />
<path d="M0.4510 0.3460
L0.4480 0.3560
" />
<path d="M0.4510 0.4880
L0.4550 0.4970
" />
<path d="M0.4510 0.4880
L0.4550 0.4970
" />
<path d="M0.4550 0.3370
L0.4510 0.3460
" />
<path d="M0.4550 0.3370
L0.4510 0.3460
" />
<path d="M0.4550 0.4970
L0.4590 0.5060
" />
<path d="M0.4550 0.4970
L0.4590 0.5060
" />
<path d="M0.4590 0.3280
L0.4550 0.3370
" />
<path d="M0.4590 0.3280
L0.4550 0.3370
" />
<path d="M0.4590 0.5060
L0.4630 0.5150
" />
<path d="M0.4590 0.5060
L0.4630 0.5150
" />
<path d="M0.4630 0.3190
L0.4590 0.3280
" />
<path d="M0.4630 0.3190
L0.4590 0.3280
" />
<path d="M0.4630 0.5150
L0.4680 0.5230
" />
<path d="M0.4630 0.5150
L0.4680 0.5230
" />
<path d="M0.4680 0.3100
L0.4630 0.3190
" />
<path d="M0.4680 0.3100
L0.4630 0.3190
" />
<path d="M0.4680 0.5230
L0.4740 0.5320
" />
<path d="M0.4680 0.5230
L0.4740 0.5320
" />
<path d="M0.4740 0.3020
L0.4680 0.3100
" />
<path d="M0.4740 0.3020
L0.4680 0.3100
" />
<path d="M0.4740 0.5320
L0.4790 0.5400
" />
<path d="M0.4740 0.5320
L0.4790 0.5400
" />
<path d="M0.4790 0.2940
L0.4740 0.3020
" />
<path d="M0.4790 0.2940
L0.4740 0.3020
" />
<path d="M0.4790 0.5400
L0.4850 0.5480
" />
<path d="M0.4790 0.5400
L0.4850 0.5480
" />
<path d="M0.4850 0.2860
L0.4790 0.2940
" />
<path d="M0.4850 0.2860
L0.4790 0.2940
" />
<path d="M0.4850 0.5480
L0.4920 0.5550
" />
<path d="M0.4850 0.5480
L0.4920 0.5550
" />
<path d="M0.4920 0.2790
L0.4850 0.2860
" />
<path d="M0.4920 0.2790
L0.4850 0.2860
" />
<path d="M0.4920 0.5550
L0.4990 0.5620
" />
<path d="M0.4920 0.5550
L0.4990 0.5620
" />
<path d="M0.4990 0.2720
L0.4920 0.2790
" />
<path d="M0.4990 0.2720
L0.4920 0.2790
" />
<path d="M0.4990 0.5620
L0.5060 0.5690
" />
<path d="M0.4990 0.5620
L0.5060 0.5690
" />
<path d="M0.5060 0.2650
L0.4990 0.2720
" />
<path d="M0.5060 0.2650
L0.4990 0.2720
" />
<path d="M0.5060 0.5690
L0.5130 0.5750
" />
<path d="M0.5060 0.5690
L0.5130 0.5750
" />
<path d="M0.5130 0.2580
L0.5060 0.2650
" />
<path d="M0.5130 0.2580
L0.5060 0.2650
" />
<path d="M0.5130 0.5750
L0.5210 0.5820
" />
<path d="M0.5130 0.5750
L0.5210 0.5820
" />
<path d="M0.5210 0.2520
L0.5130 0.2580
" />
<path d="M0.5210 0.2520
L0.5130 0.2580
" />
<path d="M0.5210 0.5820
L0.5290 0.5870
" />
<path d="M0.5210 0.5820
L0.5290 0.5870
" />
<path d="M0.5290 0.2470
L0.5210 0.2520
" />
<path d="M0.5290 0.2470
L0.5210 0.2520
" />
<path d="M0.5290 0.5870
L0.5380 0.5930
" />
<path d="M0.5290 0.5870
L0.5380 0.5930
" />
<path d="M0.5380 0.2410
L0.5290 0.2470
" />
<path d="M0.5380 0.2410
L0.5290 0.2470
" />
<path d="M0.5380 0.5930
L0.5460 0.5980
" />
<path d="M0.5380 0.5930
L0.5460 0.5980
" />
<path d="M0.5460 0.2360
L0.5380 0.2410
" />
<path d="M0.5460 0.2360
L0.5380 0.2410
" />
<path d="M0.5460 0.5980
L0.5550 0.6020
" />
<path d="M0.5460 0.5980
L0.5550 0.6020
" />
<path d="M0.5550 0.2320
L0.5460 0.2360
" />
<path d="M0.5550 0.2320
L0.5460 0.2360
" />
<path d="M0.5550 0.6020
L0.5640 0.6060
" />
<path d="M0.5550 0.6020
L0.5640 0.6060
" />
<path d="M0.5640 0.2280
L0.5550 0.2320
" />
<path d="M0.5640 0.2280
L0.5550 0.2320
" />
<path d="M0.5640 0.6060
L0.5730 0.6100
" />
<path d="M0.5640 0.6060
L0.5730 0.6100
" />
<path d="M0.5730 0.2240
L0.5640 0.2280
" />
<path d="M0.5730 0.2240
L0.5640 0.2280
" />
<path d="M0.5730 0.6100
L0.5830 0.6130
" />
<path d="M0.5730 0.6100
L0.5830 0.6130
" />
<path d="M0.5830 0.2210
L0.5730 0.2240
" />
<path d="M0.5830 0.2210
L0.5730 0.2240
" />
<path d="M0.5830 0.6130
L0.5930 0.6160
" />
<path d="M0.5830 0.6130
L0.5930 0.6160
" />
<path d="M0.5930 0.2180
L0.5830 0.2210
" />
<path d="M0.5930 0.2180
L0.5830 0.2210
" />
<path d="M0.5930 0.6160
L0.6030 0.6180
" />
<path d="M0.5930 0.6160
L0.6030 0.6180
" />
<path d="M0.6030 0.2160
L0.5930 0.2180
" />
<path d="M0.6030 0.2160
L0.5930 0.2180
" />
<path d="M0.6030 0.6180
L0.6130 0.6200
" />
<path d="M0.6030 0.6180
L0.6130 0.6200
" />
<path d="M0.6130 0.2140
L0.6030 0.2160
" />
<path d="M0.6130 0.2140
L0.6030 0.2160
" />
<path d="M0.6130 0.6200
L0.6230 0.6210
" />
<path d="M0.6130 0.6200
L0.6230 0.6210
" />
<path d="M0.6230 0.2130
L0.6130 0.2140
" />
<path d="M0.6230 0.2130
L0.6130 0.2140
" />
<path d="M0.6230 0.6210
L0.6340 0.6220
" />
<path d="M0.6230 0.6210
L0.6340 0.6220
" />
<path d="M0.6340 0.2120
L0.6230 0.2130
" />
<path d="M0.6340 0.2120
L0.6230 0.2130
" />
<path d="M0.6340 0.6220
L0.6440 0.6220
" />
<path d="M0.6340 0.6220
L0.6440 0.6220
" />
<path d="M0.6440 0.2110
L0.6340 0.2120
" />
<path d="M0.6440 0.2110
L0.6340 0.2120
" />
<path d="M0.6440 0.6220
L0.6550 0.6220
" />
<path d="M0.6440 0.6220
L0.6550 0.6220
" />
<path d="M0.6550 0.2120
L0.6440 0.2110
" />
<path d="M0.6550 0.2120
L0.6440 0.2110
" />
<path d="M0.6550 0.6220
L0.6650 0.6210
" />
<path d="M0.6550 0.6220
L0.6650 0.6210
" />
<path d="M0.6650 0.2130
L0.6550 0.2120
" />
<path d="M0.6650 0.2130
L0.6550 0.2120
" />
<path d="M0.6650 0.6210
L0.6750 0.6200
" />
<path d="M0.6650 0.6210
L0.6750 0.6200
" />
<path d="M0.6750 0.2140
L0.6650 0.2130
" />
<path d="M0.6750 0.2140
L0.6650 0.2130
" />
<path d="M0.6750 0.6200
L0.6860 0.6180
" />
<path d="M0.6750 0.6200
L0.6860 0.6180
" />
<path d="M0.6860 0.2160
L0.6750 0.2140
" />
<path d="M0.6860 0.2160
L0.6750 0.2140
" />
<path d="M0.6860 0.6180
L0.6960 0.6160
" />
<path d="M0.6860 0.6180
L0.6960 0.6160
" />
<path d="M0.6960 0.2180
L0.6860 0.2160
" />
<path d="M0.6960 0.2180
L0.6860 0.2160
" />
<path d="M0.6960 0.6160
L0.7050 0.6130
" />
<path d="M0.6960 0.6160
L0.7050 0.6130
" />
<path d="M0.7050 0.2210
L0.6960 0.2180
" />
<path d="M0.7050 0.2210
L0.6960 0.2180
" />
<path d="M0.7050 0.6130
L0.7150 0.6100
" />
<path d="M0.7050 0.6130
L0.7150 0.6100
" />
<path d="M0.7150 0.2240
L0.7050 0.2210
" />
<path d="M0.7150 0.2240
L0.7050 0.2210
" />
<path d="M0.7150 0.6100
L0.7240 0.6060
" />
<path d="M0.7150 0.6100
L0.7240 0.6060
" />
<path d="M0.7240 0.2280
L0.7150 0.2240
" />
<path d="M0.7240 0.2280
L0.7150 0.2240
" />
<path d="M0.7240 0.6060
L0.7330 0.6020
" />
<path d="M0.7240 0.6060
L0.7330 0.6020
" />
<path d="M0.7330 0.2320
L0.7240 0.2280
" />
<path d="M0.7330 0.2320
L0.7240 0.2280
" />
<path d="M0.7330 0.6020
L0.7420 0.5980
" />
<path d="M0.7330 0.6020
L0.7420 0.5980
" />
<path d="M0.7420 0.2360
L0.7330 0.2320
" />
<path d="M0.7420 0.2360
L0.7330 0.2320
" />
<path d="M0.7420 0.5980
L0.7510 0.5930
" />
<path d="M0.7420 0.5980
L0.7510 0.5930
" />
<path d="M0.7510 0.2410
L0.7420 0.2360
" />
<path d="M0.7510 0.2410
L0.7420 0.2360
" />
<path d="M0.7510 0.5930
L0.7590 0.5870
" />
<path d="M0.7510 0.5930
L0.7590 0.5870
" />
<path d="M0.7590 0.2470
L0.7510 0.2410
" />
<path d="M0.7590 0.2470
L0.7510 0.2410
" />
<path d="M0.7590 0.5870
L0.7670 0.5820
" />
<path d="M0.7590 0.5870
L0.7670 0.5820
" />
<path d="M0.7670 0.2520
L0.7590 0.2470
" />
<path d="M0.7670 0.2520
L0.7590 0.2470
" />
<path d="M0.7670 0.5820
L0.7750 0.5750
" />
<path d="M0.7670 0.5820
L0.7750 0.5750
" />
<path d="M0.7750 0.2580
L0.7670 0.2520
" />
<path d="M0.7750 0.2580
L0.7670 0.2520
" />
<path d="M0.7750 0.5750
L0.7820 0.5690
" />
<path d="M0.7750 0.5750
L0.7820 0.5690
" />
<path d="M0.7820 0.2650
L0.7750 0.2580
" />
<path d="M0.7820 0.2650
L0.7750 0.2580
" />
<path d="M0.7820 0.5690
L0.7900 0.5620
" />
<path d="M0.7820 0.5690
L0.7900 0.5620
" />
<path d="M0.7900 0.2720
L0.7820 0.2650
" />
<path d="M0.7900 0.2720
L0.7820 0.2650
" />
<path d="M0.7900 0.5620
L0.7960 0.5550
" />
<path d="M0.7900 0.5620
L0.7960 0.5550
" />
<path d="M0.7960 0.2790
L0.7900 0.2720
" />
<path d="M0.7960 0.2790
L0.7900 0.2720
" />
<path d="M0.7960 0.5550
L0.8030 0.5480
" />
<path d="M0.7960 0.5550
L0.8030 0.5480
" />
<path d="M0.8030 0.2860
L0.7960 0.2790
" />
<path d="M0.8030 0.2860
L0.7960 0.2790
" />
<path d="M0.8030 0.5480
L0.8090 0.5400
" />
<path d="M0.8030 0.5480
L0.8090 0.5400
" />
<path d="M0.8090 0.2940
L0.8030 0.2860
" />
<path d="M0.8090 0.2940
L0.8030 0.2860
" />
<path d="M0.8090 0.5400
L0.8150 0.5320
" />
<path d="M0.8090 0.5400
L0.8150 0.5320
" />
<path d="M0.8150 0.3020
L0.8090 0.2940
" />
<path d="M0.8150 0.3020
L0.8090 0.2940
" />
<path d="M0.8150 0.5320
L0.8200 0.5230
" />
<path d="M0.8150 0.5320
L0.8200 0.5230
" />
<path d="M0.8200 0.3100
L0.8150 0.3020
" />
<path d="M0.8200 0.3100
L0.8150 0.3020
" />
<path d="M0.8200 0.5230
L0.8250 0.5150
" />
<path d="M0.8200 0.5230
L0.8250 0.5150
" />
<path d="M0.8250 0.3190
L0.8200 0.3100
" />
<path d="M0.8250 0.3190
L0.8200 0.3100
" />
<path d="M0.8250 0.5150
L0.8300 0.5060
" />
<path d="M0.8250 0.5150
L0.8300 0.5060
" />
<path d="M0.8300 0.3280
L0.8250 0.3190
" />
<path d="M0.8300 0.3280
L0.8250 0.3190
" />
<path d="M0.8300 0.5060
L0.8340 0.4970
" />
<path d="M0.8300 0.5060
L0.8340 0.4970
" />
<path d="M0.8340 0.3370
L0.8300 0.3280
" />
<path d="M0.8340 0.3370
L0.8300 0.3280
" />
<path d="M0.8340 0.4970
L0.8370 0.4880
" />
<path d="M0.8340 0.4970
L0.8370 0.4880
" />
<path d="M0.8370 0.3460
L0.8340 0.3370
" />
<path d="M0.8370 0.3460
L0.8340 0.3370
" />
<path d="M0.8370 0.4880
L0.8410 0.4780
" />
<path d="M0.8370 0.4880
L0.8410 0.4780
" />
<path d="M0.8410 0.3560
L0.8370 0.3460
" />
<path d="M0.8410 0.3560
L0.8370 0.3460
" />
<path d="M0.8410 0.4780
L0.8430 0.4680
" />
<path d="M0.8410 0.4780
L0.8430 0.4680
" />
<path d="M0.8430 0.3660
L0.8410 0.3560
" />
<path d="M0.8430 0.3660
L0.8410 0.3560
" />
<path d="M0.8430 0.4680
L0.8460 0.4580
" />
<path d="M0.8430 0.4680
L0.8460 0.4580
" />
<path d="M0.8460 0.3750
L0.8430 0.3660
" />
<path d="M0.8460 0.3750
L0.8430 0.3660
" />
<path d="M0.8460 0.4580
L0.8480 0.4480
" />
<path d="M0.8460 0.4580
L0.8480 0.4480
" />
<path d="M0.8480 0.3860
L0.8460 0.3750
" />
<path d="M0.8480 0.3860
L0.8460 0.3750
" />
<path d="M0.8480 0.4480
L0.8490 0.4380
" />
<path d="M0.8480 0.4480
L0.8490 0.4380
" />
<path d="M0.8490 0.3960
L0.8480 0.3860
" />
<path d="M0.8490 0.3960
L0.8480 0.3860
" />
<path d="M0.8490 0.4380
L0.8500 0.4270
" />
<path d="M0.8490 0.4380
L0.8500 0.4270
" />
<path d="M0.8500 0.4060
L0.8490 0.3960
" />
<path d="M0.8500 0.4060
L0.8490 0.3960
" />
<path d="M0.8500 0.4170
L0.8500 0.4060
" />
<path d="M0.8500 0.4170
L0.8500 0.4060
" />
<path d="M0.8500 0.4270
L0.8500 0.4170
" />
<path d="M0.8500 0.4270
L0.8500 0.4170
" />
<path d="M2.2750 0.1250
L0.2750 0.1250
" />
<path d="M2.2750 2.6250
L2.2750 0.1250
" />
</g> 
</svg>
