<?xml version="1.0" standalone="no"?>
 <!DOCTYPE svg PUBLIC "-//W3C//DTD SVG 1.1//EN" 
 "http://www.w3.org/Graphics/SVG/1.1/DTD/svg11.dtd"> 
<svg
  xmlns:svg="http://www.w3.org/2000/svg"
  xmlns="http://www.w3.org/2000/svg"
  xmlns:xlink="http://www.w3.org/1999/xlink"
  version="1.1"
  width="7.6454mm" height="8.2296mm" viewBox="0.0000 0.0000 7.6454 8.2296">
<title>SVG Image created as outline.svg date 2025/06/16 09:18:09 </title>
  <desc>Image generated by PCBNEW </desc>
<g style="fill:#000000; fill-opacity:1.0000;stroke:#000000; stroke-opacity:1.0000;
stroke-linecap:round; stroke-linejoin:round;"
 transform="translate(0 0) scale(1 1)">
</g>
<g style="fill:none; 
stroke:#000000; stroke-width:0.0200; stroke-opacity:1; 
stroke-linecap:round; stroke-linejoin:round;">
<path d="M0.2790 0.6800
L0.2790 0.9340
" />
<path d="M0.2790 0.6800
L7.3910 0.6800
" />
<path d="M0.2790 0.9340
L0.2790 2.1250
" />
<path d="M0.2790 0.9340
L7.3910 0.9340
" />
<path d="M0.2790 2.1250
L0.2790 6.5250
" />
<path d="M0.2790 2.1250
L7.3910 2.1250
" />
<path d="M0.2790 6.5250
L0.2790 6.9290
" />
<path d="M0.2790 6.5250
L7.3910 6.5250
" />
<path d="M0.2790 6.9290
L0.2790 7.9700
" />
<path d="M0.2790 6.9290
L7.3910 6.9290
" />
<path d="M0.2790 7.9700
L7.3910 7.9700
" />
<path d="M0.4310 4.3250
L0.4350 4.2120
" />
<path d="M0.4350 4.2120
L0.4470 4.1000
" />
<path d="M0.4350 4.4380
L0.4310 4.3250
" />
<path d="M0.4470 4.1000
L0.4660 3.9890
" />
<path d="M0.4470 4.5500
L0.4350 4.4380
" />
<path d="M0.4660 3.9890
L0.4930 3.8800
" />
<path d="M0.4660 4.6610
L0.4470 4.5500
" />
<path d="M0.4930 3.8800
L0.5270 3.7720
" />
<path d="M0.4930 4.7700
L0.4660 4.6610
" />
<path d="M0.5270 3.7720
L0.5680 3.6670
" />
<path d="M0.5270 4.8780
L0.4930 4.7700
" />
<path d="M0.5680 3.6670
L0.6170 3.5650
" />
<path d="M0.5680 4.9830
L0.5270 4.8780
" />
<path d="M0.6170 3.5650
L0.6720 3.4670
" />
<path d="M0.6170 5.0850
L0.5680 4.9830
" />
<path d="M0.6720 3.4670
L0.7340 3.3730
" />
<path d="M0.6720 5.1830
L0.6170 5.0850
" />
<path d="M0.7340 3.3730
L0.8020 3.2830
" />
<path d="M0.7340 5.2770
L0.6720 5.1830
" />
<path d="M0.8020 3.2830
L0.8760 3.1980
" />
<path d="M0.8020 5.3670
L0.7340 5.2770
" />
<path d="M0.8120 4.3250
L0.8150 4.4100
" />
<path d="M0.8120 4.3250
L0.8160 4.2250
" />
<path d="M0.8150 4.2400
L0.8120 4.3250
" />
<path d="M0.8150 4.4100
L0.8240 4.4950
" />
<path d="M0.8160 4.2250
L0.8280 4.1260
" />
<path d="M0.8160 4.4250
L0.8120 4.3250
" />
<path d="M0.8240 4.1550
L0.8150 4.2400
" />
<path d="M0.8240 4.4950
L0.8380 4.5790
" />
<path d="M0.8280 4.1260
L0.8470 4.0290
" />
<path d="M0.8280 4.5240
L0.8160 4.4250
" />
<path d="M0.8380 4.0710
L0.8240 4.1550
" />
<path d="M0.8380 4.5790
L0.8620 4.6750
" />
<path d="M0.8380 4.5790
L3.3270 4.5790
" />
<path d="M0.8470 4.0290
L0.8750 3.9330
" />
<path d="M0.8470 4.6210
L0.8280 4.5240
" />
<path d="M0.8620 3.9750
L0.8380 4.0710
" />
<path d="M0.8620 4.6750
L0.8930 4.7700
" />
<path d="M0.8750 3.9330
L0.9090 3.8390
" />
<path d="M0.8750 4.7170
L0.8470 4.6210
" />
<path d="M0.8760 3.1980
L0.9560 3.1180
" />
<path d="M0.8760 5.4520
L0.8020 5.3670
" />
<path d="M0.8930 3.8800
L0.8620 3.9750
" />
<path d="M0.8930 4.7700
L0.9310 4.8610
" />
<path d="M0.9090 3.8390
L0.9510 3.7480
" />
<path d="M0.9090 4.8110
L0.8750 4.7170
" />
<path d="M0.9310 3.7890
L0.8930 3.8800
" />
<path d="M0.9310 4.8610
L0.9770 4.9500
" />
<path d="M0.9510 3.7480
L1.0000 3.6610
" />
<path d="M0.9510 4.9020
L0.9090 4.8110
" />
<path d="M0.9560 3.1180
L1.0400 3.0440
" />
<path d="M0.9560 5.5320
L0.8760 5.4520
" />
<path d="M0.9770 3.7000
L0.9310 3.7890
" />
<path d="M0.9770 4.9500
L1.0290 5.0340
" />
<path d="M1.0000 3.6610
L1.0550 3.5790
" />
<path d="M1.0000 4.9890
L0.9510 4.9020
" />
<path d="M1.0290 3.6160
L0.9770 3.7000
" />
<path d="M1.0290 5.0340
L1.0880 5.1150
" />
<path d="M1.0400 3.0440
L1.1300 2.9760
" />
<path d="M1.0400 5.6060
L0.9560 5.5320
" />
<path d="M1.0550 3.5790
L1.1170 3.5000
" />
<path d="M1.0550 5.0710
L1.0000 4.9890
" />
<path d="M1.0880 3.5350
L1.0290 3.6160
" />
<path d="M1.0880 5.1150
L1.1520 5.1900
" />
<path d="M1.1170 3.5000
L1.1840 3.4270
" />
<path d="M1.1170 5.1500
L1.0550 5.0710
" />
<path d="M1.1300 2.9760
L1.2250 2.9140
" />
<path d="M1.1300 5.6740
L1.0400 5.6060
" />
<path d="M1.1520 3.4600
L1.0880 3.5350
" />
<path d="M1.1520 5.1900
L1.2230 5.2600
" />
<path d="M1.1840 3.4270
L1.2580 3.3590
" />
<path d="M1.1840 5.2230
L1.1170 5.1500
" />
<path d="M1.2230 3.3900
L1.1520 3.4600
" />
<path d="M1.2230 5.2600
L1.2990 5.3240
" />
<path d="M1.2250 2.9140
L1.3230 2.8590
" />
<path d="M1.2250 5.7360
L1.1300 5.6740
" />
<path d="M1.2580 3.3590
L1.3360 3.2980
" />
<path d="M1.2580 5.2910
L1.1840 5.2230
" />
<path d="M1.2990 3.3260
L1.2230 3.3900
" />
<path d="M1.2990 5.3240
L1.3790 5.3820
" />
<path d="M1.3230 2.8590
L1.4250 2.8110
" />
<path d="M1.3230 5.7910
L1.2250 5.7360
" />
<path d="M1.3360 3.2980
L1.4190 3.2420
" />
<path d="M1.3360 5.3520
L1.2580 5.2910
" />
<path d="M1.3790 3.2680
L1.2990 3.3260
" />
<path d="M1.3790 5.3820
L1.4640 5.4340
" />
<path d="M1.4190 3.2420
L1.5060 3.1930
" />
<path d="M1.4190 5.4080
L1.3360 5.3520
" />
<path d="M1.4250 2.8110
L1.5300 2.7690
" />
<path d="M1.4250 5.8390
L1.3230 5.7910
" />
<path d="M1.4640 3.2160
L1.3790 3.2680
" />
<path d="M1.4640 5.4340
L1.5530 5.4790
" />
<path d="M1.5060 3.1930
L1.5960 3.1520
" />
<path d="M1.5060 5.4570
L1.4190 5.4080
" />
<path d="M1.5300 2.7690
L1.6370 2.7350
" />
<path d="M1.5300 5.8810
L1.4250 5.8390
" />
<path d="M1.5530 3.1710
L1.4640 3.2160
" />
<path d="M1.5530 5.4790
L1.6440 5.5170
" />
<path d="M1.5960 3.1520
L1.6900 3.1170
" />
<path d="M1.5960 5.4980
L1.5060 5.4570
" />
<path d="M1.6370 2.7350
L1.7460 2.7090
" />
<path d="M1.6370 5.9150
L1.5300 5.8810
" />
<path d="M1.6440 3.1330
L1.5530 3.1710
" />
<path d="M1.6440 5.5170
L1.7390 5.5480
" />
<path d="M1.6900 3.1170
L1.7860 3.0900
" />
<path d="M1.6900 5.5330
L1.5960 5.4980
" />
<path d="M1.7390 3.1020
L1.6440 3.1330
" />
<path d="M1.7390 5.5480
L1.8360 5.5710
" />
<path d="M1.7460 2.7090
L1.8580 2.6890
" />
<path d="M1.7460 5.9410
L1.6370 5.9150
" />
<path d="M1.7860 3.0900
L1.8840 3.0710
" />
<path d="M1.7860 5.5600
L1.6900 5.5330
" />
<path d="M1.8360 3.0790
L1.7390 3.1020
" />
<path d="M1.8360 5.5710
L1.9340 5.5860
" />
<path d="M1.8580 2.6890
L1.9700 2.6780
" />
<path d="M1.8580 5.9610
L1.7460 5.9410
" />
<path d="M1.8840 3.0710
L1.9830 3.0590
" />
<path d="M1.8840 5.5790
L1.7860 5.5600
" />
<path d="M1.9340 3.0640
L1.8360 3.0790
" />
<path d="M1.9340 5.5860
L2.0330 5.5940
" />
<path d="M1.9700 2.6780
L2.0820 2.6740
" />
<path d="M1.9700 5.9720
L1.8580 5.9610
" />
<path d="M1.9830 3.0590
L2.0820 3.0550
" />
<path d="M1.9830 5.5910
L1.8840 5.5790
" />
<path d="M2.0330 3.0560
L1.9340 3.0640
" />
<path d="M2.0330 5.5940
L2.1320 5.5940
" />
<path d="M2.0820 2.6740
L2.1950 2.6780
" />
<path d="M2.0820 3.0550
L2.1820 3.0590
" />
<path d="M2.0820 5.5950
L1.9830 5.5910
" />
<path d="M2.0820 5.9760
L1.9700 5.9720
" />
<path d="M2.1320 3.0560
L2.0330 3.0560
" />
<path d="M2.1320 5.5940
L2.2310 5.5860
" />
<path d="M2.1820 3.0590
L2.2810 3.0710
" />
<path d="M2.1820 5.5910
L2.0820 5.5950
" />
<path d="M2.1950 2.6780
L2.3070 2.6890
" />
<path d="M2.1950 5.9720
L2.0820 5.9760
" />
<path d="M2.2310 3.0640
L2.1320 3.0560
" />
<path d="M2.2310 5.5860
L2.3290 5.5710
" />
<path d="M2.2810 3.0710
L2.3790 3.0900
" />
<path d="M2.2810 5.5790
L2.1820 5.5910
" />
<path d="M2.3070 2.6890
L2.4180 2.7090
" />
<path d="M2.3070 5.9610
L2.1950 5.9720
" />
<path d="M2.3290 3.0790
L2.2310 3.0640
" />
<path d="M2.3290 5.5710
L2.4260 5.5480
" />
<path d="M2.3790 3.0900
L2.4750 3.1170
" />
<path d="M2.3790 5.5600
L2.2810 5.5790
" />
<path d="M2.4180 2.7090
L2.5280 2.7350
" />
<path d="M2.4180 5.9410
L2.3070 5.9610
" />
<path d="M2.4260 3.1020
L2.3290 3.0790
" />
<path d="M2.4260 5.5480
L2.5200 5.5170
" />
<path d="M2.4750 3.1170
L2.5680 3.1520
" />
<path d="M2.4750 5.5330
L2.3790 5.5600
" />
<path d="M2.5200 3.1330
L2.4260 3.1020
" />
<path d="M2.5200 5.5170
L2.6120 5.4790
" />
<path d="M2.5280 2.7350
L2.6350 2.7690
" />
<path d="M2.5280 5.9150
L2.4180 5.9410
" />
<path d="M2.5680 3.1520
L2.6590 3.1930
" />
<path d="M2.5680 5.4980
L2.4750 5.5330
" />
<path d="M2.6120 3.1710
L2.5200 3.1330
" />
<path d="M2.6120 5.4790
L2.7010 5.4340
" />
<path d="M2.6350 2.7690
L2.7400 2.8110
" />
<path d="M2.6350 5.8810
L2.5280 5.9150
" />
<path d="M2.6590 3.1930
L2.7460 3.2420
" />
<path d="M2.6590 5.4570
L2.5680 5.4980
" />
<path d="M2.7010 3.2160
L2.6120 3.1710
" />
<path d="M2.7010 5.4340
L2.7860 5.3820
" />
<path d="M2.7400 2.8110
L2.8420 2.8590
" />
<path d="M2.7400 5.8390
L2.6350 5.8810
" />
<path d="M2.7460 3.2420
L2.8290 3.2980
" />
<path d="M2.7460 5.4080
L2.6590 5.4570
" />
<path d="M2.7860 3.2680
L2.7010 3.2160
" />
<path d="M2.7860 5.3820
L2.8660 5.3240
" />
<path d="M2.8290 3.2980
L2.9070 3.3590
" />
<path d="M2.8290 5.3520
L2.7460 5.4080
" />
<path d="M2.8420 2.8590
L2.9400 2.9140
" />
<path d="M2.8420 5.7910
L2.7400 5.8390
" />
<path d="M2.8660 3.3260
L2.7860 3.2680
" />
<path d="M2.8660 5.3240
L2.9420 5.2600
" />
<path d="M2.9070 3.3590
L2.9800 3.4270
" />
<path d="M2.9070 5.2910
L2.8290 5.3520
" />
<path d="M2.9400 2.9140
L3.0340 2.9760
" />
<path d="M2.9400 5.7360
L2.8420 5.7910
" />
<path d="M2.9420 3.3900
L2.8660 3.3260
" />
<path d="M2.9420 5.2600
L3.0120 5.1900
" />
<path d="M2.9800 3.4270
L3.0480 3.5000
" />
<path d="M2.9800 5.2230
L2.9070 5.2910
" />
<path d="M3.0120 3.4600
L2.9420 3.3900
" />
<path d="M3.0120 5.1900
L3.0770 5.1150
" />
<path d="M3.0340 2.9760
L3.1240 3.0440
" />
<path d="M3.0340 5.6740
L2.9400 5.7360
" />
<path d="M3.0480 3.5000
L3.1100 3.5790
" />
<path d="M3.0480 5.1500
L2.9800 5.2230
" />
<path d="M3.0770 3.5350
L3.0120 3.4600
" />
<path d="M3.0770 5.1150
L3.1360 5.0340
" />
<path d="M3.1100 3.5790
L3.1650 3.6610
" />
<path d="M3.1100 5.0710
L3.0480 5.1500
" />
<path d="M3.1240 3.0440
L3.2090 3.1180
" />
<path d="M3.1240 5.6060
L3.0340 5.6740
" />
<path d="M3.1360 3.6160
L3.0770 3.5350
" />
<path d="M3.1360 5.0340
L3.1880 4.9500
" />
<path d="M3.1650 3.6610
L3.2140 3.7480
" />
<path d="M3.1650 4.9890
L3.1100 5.0710
" />
<path d="M3.1880 3.7000
L3.1360 3.6160
" />
<path d="M3.1880 4.9500
L3.2340 4.8610
" />
<path d="M3.2090 3.1180
L3.2890 3.1980
" />
<path d="M3.2090 5.5320
L3.1240 5.6060
" />
<path d="M3.2140 3.7480
L3.2560 3.8390
" />
<path d="M3.2140 4.9020
L3.1650 4.9890
" />
<path d="M3.2340 3.7890
L3.1880 3.7000
" />
<path d="M3.2340 4.8610
L3.2720 4.7700
" />
<path d="M3.2560 3.8390
L3.2900 3.9330
" />
<path d="M3.2560 4.8110
L3.2140 4.9020
" />
<path d="M3.2720 3.8800
L3.2340 3.7890
" />
<path d="M3.2720 4.7700
L3.3030 4.6750
" />
<path d="M3.2890 3.1980
L3.3630 3.2830
" />
<path d="M3.2890 5.4520
L3.2090 5.5320
" />
<path d="M3.2900 3.9330
L3.3170 4.0290
" />
<path d="M3.2900 4.7170
L3.2560 4.8110
" />
<path d="M3.3030 3.9750
L3.2720 3.8800
" />
<path d="M3.3030 4.6750
L3.3270 4.5790
" />
<path d="M3.3170 4.0290
L3.3370 4.1260
" />
<path d="M3.3170 4.6210
L3.2900 4.7170
" />
<path d="M3.3270 4.0710
L0.8380 4.0710
" />
<path d="M3.3270 4.0710
L3.3030 3.9750
" />
<path d="M3.3270 4.5790
L3.3410 4.4950
" />
<path d="M3.3370 4.1260
L3.3480 4.2250
" />
<path d="M3.3370 4.5240
L3.3170 4.6210
" />
<path d="M3.3410 4.1550
L3.3270 4.0710
" />
<path d="M3.3410 4.4950
L3.3500 4.4100
" />
<path d="M3.3480 4.2250
L3.3520 4.3250
" />
<path d="M3.3480 4.4250
L3.3370 4.5240
" />
<path d="M3.3500 4.2400
L3.3410 4.1550
" />
<path d="M3.3500 4.4100
L3.3520 4.3250
" />
<path d="M3.3520 4.3250
L3.3480 4.4250
" />
<path d="M3.3520 4.3250
L3.3500 4.2400
" />
<path d="M3.3630 3.2830
L3.4310 3.3730
" />
<path d="M3.3630 5.3670
L3.2890 5.4520
" />
<path d="M3.4310 3.3730
L3.4930 3.4670
" />
<path d="M3.4310 5.2770
L3.3630 5.3670
" />
<path d="M3.4930 3.4670
L3.5480 3.5650
" />
<path d="M3.4930 5.1830
L3.4310 5.2770
" />
<path d="M3.5480 3.5650
L3.5970 3.6670
" />
<path d="M3.5480 5.0850
L3.4930 5.1830
" />
<path d="M3.5970 3.6670
L3.6380 3.7720
" />
<path d="M3.5970 4.9830
L3.5480 5.0850
" />
<path d="M3.6380 3.7720
L3.6720 3.8800
" />
<path d="M3.6380 4.8780
L3.5970 4.9830
" />
<path d="M3.6720 3.8800
L3.6990 3.9890
" />
<path d="M3.6720 4.7700
L3.6380 4.8780
" />
<path d="M3.6990 3.9890
L3.7180 4.1000
" />
<path d="M3.6990 4.6610
L3.6720 4.7700
" />
<path d="M3.7180 4.1000
L3.7300 4.2120
" />
<path d="M3.7180 4.5500
L3.6990 4.6610
" />
<path d="M3.7300 4.2120
L3.7330 4.3250
" />
<path d="M3.7300 4.4380
L3.7180 4.5500
" />
<path d="M3.7330 4.3250
L3.7300 4.4380
" />
<path d="M3.9370 4.3250
L3.9400 4.2120
" />
<path d="M3.9400 4.2120
L3.9520 4.1000
" />
<path d="M3.9400 4.4380
L3.9370 4.3250
" />
<path d="M3.9520 4.1000
L3.9710 3.9890
" />
<path d="M3.9520 4.5500
L3.9400 4.4380
" />
<path d="M3.9710 3.9890
L3.9980 3.8800
" />
<path d="M3.9710 4.6610
L3.9520 4.5500
" />
<path d="M3.9980 3.8800
L4.0320 3.7720
" />
<path d="M3.9980 4.7700
L3.9710 4.6610
" />
<path d="M4.0320 3.7720
L4.0730 3.6670
" />
<path d="M4.0320 4.8780
L3.9980 4.7700
" />
<path d="M4.0730 3.6670
L4.1220 3.5650
" />
<path d="M4.0730 4.9830
L4.0320 4.8780
" />
<path d="M4.1220 3.5650
L4.1770 3.4670
" />
<path d="M4.1220 5.0850
L4.0730 4.9830
" />
<path d="M4.1770 3.4670
L4.2390 3.3730
" />
<path d="M4.1770 5.1830
L4.1220 5.0850
" />
<path d="M4.2390 3.3730
L4.3070 3.2830
" />
<path d="M4.2390 5.2770
L4.1770 5.1830
" />
<path d="M4.3070 3.2830
L4.3810 3.1980
" />
<path d="M4.3070 5.3670
L4.2390 5.2770
" />
<path d="M4.3180 4.3250
L4.3200 4.4100
" />
<path d="M4.3180 4.3250
L4.3220 4.2250
" />
<path d="M4.3200 4.2400
L4.3180 4.3250
" />
<path d="M4.3200 4.4100
L4.3290 4.4950
" />
<path d="M4.3220 4.2250
L4.3330 4.1260
" />
<path d="M4.3220 4.4250
L4.3180 4.3250
" />
<path d="M4.3290 4.1550
L4.3200 4.2400
" />
<path d="M4.3290 4.4950
L4.3430 4.5790
" />
<path d="M4.3330 4.1260
L4.3530 4.0290
" />
<path d="M4.3330 4.5240
L4.3220 4.4250
" />
<path d="M4.3430 4.0710
L4.3290 4.1550
" />
<path d="M4.3430 4.5790
L4.3670 4.6750
" />
<path d="M4.3430 4.5790
L6.8320 4.5790
" />
<path d="M4.3530 4.0290
L4.3800 3.9330
" />
<path d="M4.3530 4.6210
L4.3330 4.5240
" />
<path d="M4.3670 3.9750
L4.3430 4.0710
" />
<path d="M4.3670 4.6750
L4.3980 4.7700
" />
<path d="M4.3800 3.9330
L4.4140 3.8390
" />
<path d="M4.3800 4.7170
L4.3530 4.6210
" />
<path d="M4.3810 3.1980
L4.4610 3.1180
" />
<path d="M4.3810 5.4520
L4.3070 5.3670
" />
<path d="M4.3980 3.8800
L4.3670 3.9750
" />
<path d="M4.3980 4.7700
L4.4360 4.8610
" />
<path d="M4.4140 3.8390
L4.4560 3.7480
" />
<path d="M4.4140 4.8110
L4.3800 4.7170
" />
<path d="M4.4360 3.7890
L4.3980 3.8800
" />
<path d="M4.4360 4.8610
L4.4820 4.9500
" />
<path d="M4.4560 3.7480
L4.5050 3.6610
" />
<path d="M4.4560 4.9020
L4.4140 4.8110
" />
<path d="M4.4610 3.1180
L4.5460 3.0440
" />
<path d="M4.4610 5.5320
L4.3810 5.4520
" />
<path d="M4.4820 3.7000
L4.4360 3.7890
" />
<path d="M4.4820 4.9500
L4.5340 5.0340
" />
<path d="M4.5050 3.6610
L4.5600 3.5790
" />
<path d="M4.5050 4.9890
L4.4560 4.9020
" />
<path d="M4.5340 3.6160
L4.4820 3.7000
" />
<path d="M4.5340 5.0340
L4.5930 5.1150
" />
<path d="M4.5460 3.0440
L4.6360 2.9760
" />
<path d="M4.5460 5.6060
L4.4610 5.5320
" />
<path d="M4.5600 3.5790
L4.6220 3.5000
" />
<path d="M4.5600 5.0710
L4.5050 4.9890
" />
<path d="M4.5930 3.5350
L4.5340 3.6160
" />
<path d="M4.5930 5.1150
L4.6580 5.1900
" />
<path d="M4.6220 3.5000
L4.6900 3.4270
" />
<path d="M4.6220 5.1500
L4.5600 5.0710
" />
<path d="M4.6360 2.9760
L4.7300 2.9140
" />
<path d="M4.6360 5.6740
L4.5460 5.6060
" />
<path d="M4.6580 3.4600
L4.5930 3.5350
" />
<path d="M4.6580 5.1900
L4.7280 5.2600
" />
<path d="M4.6900 3.4270
L4.7630 3.3590
" />
<path d="M4.6900 5.2230
L4.6220 5.1500
" />
<path d="M4.7280 3.3900
L4.6580 3.4600
" />
<path d="M4.7280 5.2600
L4.8040 5.3240
" />
<path d="M4.7300 2.9140
L4.8280 2.8590
" />
<path d="M4.7300 5.7360
L4.6360 5.6740
" />
<path d="M4.7630 3.3590
L4.8410 3.2980
" />
<path d="M4.7630 5.2910
L4.6900 5.2230
" />
<path d="M4.8040 3.3260
L4.7280 3.3900
" />
<path d="M4.8040 5.3240
L4.8840 5.3820
" />
<path d="M4.8280 2.8590
L4.9300 2.8110
" />
<path d="M4.8280 5.7910
L4.7300 5.7360
" />
<path d="M4.8410 3.2980
L4.9240 3.2420
" />
<path d="M4.8410 5.3520
L4.7630 5.2910
" />
<path d="M4.8840 3.2680
L4.8040 3.3260
" />
<path d="M4.8840 5.3820
L4.9690 5.4340
" />
<path d="M4.9240 3.2420
L5.0110 3.1930
" />
<path d="M4.9240 5.4080
L4.8410 5.3520
" />
<path d="M4.9300 2.8110
L5.0350 2.7690
" />
<path d="M4.9300 5.8390
L4.8280 5.7910
" />
<path d="M4.9690 3.2160
L4.8840 3.2680
" />
<path d="M4.9690 5.4340
L5.0580 5.4790
" />
<path d="M5.0110 3.1930
L5.1020 3.1520
" />
<path d="M5.0110 5.4570
L4.9240 5.4080
" />
<path d="M5.0350 2.7690
L5.1420 2.7350
" />
<path d="M5.0350 5.8810
L4.9300 5.8390
" />
<path d="M5.0580 3.1710
L4.9690 3.2160
" />
<path d="M5.0580 5.4790
L5.1500 5.5170
" />
<path d="M5.1020 3.1520
L5.1950 3.1170
" />
<path d="M5.1020 5.4980
L5.0110 5.4570
" />
<path d="M5.1420 2.7350
L5.2520 2.7090
" />
<path d="M5.1420 5.9150
L5.0350 5.8810
" />
<path d="M5.1500 3.1330
L5.0580 3.1710
" />
<path d="M5.1500 5.5170
L5.2440 5.5480
" />
<path d="M5.1950 3.1170
L5.2910 3.0900
" />
<path d="M5.1950 5.5330
L5.1020 5.4980
" />
<path d="M5.2440 3.1020
L5.1500 3.1330
" />
<path d="M5.2440 5.5480
L5.3410 5.5710
" />
<path d="M5.2520 2.7090
L5.3630 2.6890
" />
<path d="M5.2520 5.9410
L5.1420 5.9150
" />
<path d="M5.2910 3.0900
L5.3890 3.0710
" />
<path d="M5.2910 5.5600
L5.1950 5.5330
" />
<path d="M5.3410 3.0790
L5.2440 3.1020
" />
<path d="M5.3410 5.5710
L5.4390 5.5860
" />
<path d="M5.3630 2.6890
L5.4750 2.6780
" />
<path d="M5.3630 5.9610
L5.2520 5.9410
" />
<path d="M5.3890 3.0710
L5.4880 3.0590
" />
<path d="M5.3890 5.5790
L5.2910 5.5600
" />
<path d="M5.4390 3.0640
L5.3410 3.0790
" />
<path d="M5.4390 5.5860
L5.5380 5.5940
" />
<path d="M5.4750 2.6780
L5.5880 2.6740
" />
<path d="M5.4750 5.9720
L5.3630 5.9610
" />
<path d="M5.4880 3.0590
L5.5880 3.0550
" />
<path d="M5.4880 5.5910
L5.3890 5.5790
" />
<path d="M5.5380 3.0560
L5.4390 3.0640
" />
<path d="M5.5380 5.5940
L5.6370 5.5940
" />
<path d="M5.5880 2.6740
L5.7000 2.6780
" />
<path d="M5.5880 3.0550
L5.6870 3.0590
" />
<path d="M5.5880 5.5950
L5.4880 5.5910
" />
<path d="M5.5880 5.9760
L5.4750 5.9720
" />
<path d="M5.6370 3.0560
L5.5380 3.0560
" />
<path d="M5.6370 5.5940
L5.7360 5.5860
" />
<path d="M5.6870 3.0590
L5.7860 3.0710
" />
<path d="M5.6870 5.5910
L5.5880 5.5950
" />
<path d="M5.7000 2.6780
L5.8120 2.6890
" />
<path d="M5.7000 5.9720
L5.5880 5.9760
" />
<path d="M5.7360 3.0640
L5.6370 3.0560
" />
<path d="M5.7360 5.5860
L5.8340 5.5710
" />
<path d="M5.7860 3.0710
L5.8840 3.0900
" />
<path d="M5.7860 5.5790
L5.6870 5.5910
" />
<path d="M5.8120 2.6890
L5.9240 2.7090
" />
<path d="M5.8120 5.9610
L5.7000 5.9720
" />
<path d="M5.8340 3.0790
L5.7360 3.0640
" />
<path d="M5.8340 5.5710
L5.9310 5.5480
" />
<path d="M5.8840 3.0900
L5.9800 3.1170
" />
<path d="M5.8840 5.5600
L5.7860 5.5790
" />
<path d="M5.9240 2.7090
L6.0330 2.7350
" />
<path d="M5.9240 5.9410
L5.8120 5.9610
" />
<path d="M5.9310 3.1020
L5.8340 3.0790
" />
<path d="M5.9310 5.5480
L6.0260 5.5170
" />
<path d="M5.9800 3.1170
L6.0740 3.1520
" />
<path d="M5.9800 5.5330
L5.8840 5.5600
" />
<path d="M6.0260 3.1330
L5.9310 3.1020
" />
<path d="M6.0260 5.5170
L6.1170 5.4790
" />
<path d="M6.0330 2.7350
L6.1400 2.7690
" />
<path d="M6.0330 5.9150
L5.9240 5.9410
" />
<path d="M6.0740 3.1520
L6.1640 3.1930
" />
<path d="M6.0740 5.4980
L5.9800 5.5330
" />
<path d="M6.1170 3.1710
L6.0260 3.1330
" />
<path d="M6.1170 5.4790
L6.2060 5.4340
" />
<path d="M6.1400 2.7690
L6.2450 2.8110
" />
<path d="M6.1400 5.8810
L6.0330 5.9150
" />
<path d="M6.1640 3.1930
L6.2510 3.2420
" />
<path d="M6.1640 5.4570
L6.0740 5.4980
" />
<path d="M6.2060 3.2160
L6.1170 3.1710
" />
<path d="M6.2060 5.4340
L6.2910 5.3820
" />
<path d="M6.2450 2.8110
L6.3470 2.8590
" />
<path d="M6.2450 5.8390
L6.1400 5.8810
" />
<path d="M6.2510 3.2420
L6.3340 3.2980
" />
<path d="M6.2510 5.4080
L6.1640 5.4570
" />
<path d="M6.2910 3.2680
L6.2060 3.2160
" />
<path d="M6.2910 5.3820
L6.3710 5.3240
" />
<path d="M6.3340 3.2980
L6.4120 3.3590
" />
<path d="M6.3340 5.3520
L6.2510 5.4080
" />
<path d="M6.3470 2.8590
L6.4450 2.9140
" />
<path d="M6.3470 5.7910
L6.2450 5.8390
" />
<path d="M6.3710 3.3260
L6.2910 3.2680
" />
<path d="M6.3710 5.3240
L6.4470 5.2600
" />
<path d="M6.4120 3.3590
L6.4860 3.4270
" />
<path d="M6.4120 5.2910
L6.3340 5.3520
" />
<path d="M6.4450 2.9140
L6.5400 2.9760
" />
<path d="M6.4450 5.7360
L6.3470 5.7910
" />
<path d="M6.4470 3.3900
L6.3710 3.3260
" />
<path d="M6.4470 5.2600
L6.5180 5.1900
" />
<path d="M6.4860 3.4270
L6.5530 3.5000
" />
<path d="M6.4860 5.2230
L6.4120 5.2910
" />
<path d="M6.5180 3.4600
L6.4470 3.3900
" />
<path d="M6.5180 5.1900
L6.5820 5.1150
" />
<path d="M6.5400 2.9760
L6.6300 3.0440
" />
<path d="M6.5400 5.6740
L6.4450 5.7360
" />
<path d="M6.5530 3.5000
L6.6150 3.5790
" />
<path d="M6.5530 5.1500
L6.4860 5.2230
" />
<path d="M6.5820 3.5350
L6.5180 3.4600
" />
<path d="M6.5820 5.1150
L6.6410 5.0340
" />
<path d="M6.6150 3.5790
L6.6700 3.6610
" />
<path d="M6.6150 5.0710
L6.5530 5.1500
" />
<path d="M6.6300 3.0440
L6.7140 3.1180
" />
<path d="M6.6300 5.6060
L6.5400 5.6740
" />
<path d="M6.6410 3.6160
L6.5820 3.5350
" />
<path d="M6.6410 5.0340
L6.6930 4.9500
" />
<path d="M6.6700 3.6610
L6.7190 3.7480
" />
<path d="M6.6700 4.9890
L6.6150 5.0710
" />
<path d="M6.6930 3.7000
L6.6410 3.6160
" />
<path d="M6.6930 4.9500
L6.7390 4.8610
" />
<path d="M6.7140 3.1180
L6.7940 3.1980
" />
<path d="M6.7140 5.5320
L6.6300 5.6060
" />
<path d="M6.7190 3.7480
L6.7610 3.8390
" />
<path d="M6.7190 4.9020
L6.6700 4.9890
" />
<path d="M6.7390 3.7890
L6.6930 3.7000
" />
<path d="M6.7390 4.8610
L6.7770 4.7700
" />
<path d="M6.7610 3.8390
L6.7950 3.9330
" />
<path d="M6.7610 4.8110
L6.7190 4.9020
" />
<path d="M6.7770 3.8800
L6.7390 3.7890
" />
<path d="M6.7770 4.7700
L6.8080 4.6750
" />
<path d="M6.7940 3.1980
L6.8680 3.2830
" />
<path d="M6.7940 5.4520
L6.7140 5.5320
" />
<path d="M6.7950 3.9330
L6.8230 4.0290
" />
<path d="M6.7950 4.7170
L6.7610 4.8110
" />
<path d="M6.8080 3.9750
L6.7770 3.8800
" />
<path d="M6.8080 4.6750
L6.8320 4.5790
" />
<path d="M6.8230 4.0290
L6.8420 4.1260
" />
<path d="M6.8230 4.6210
L6.7950 4.7170
" />
<path d="M6.8320 4.0710
L4.3430 4.0710
" />
<path d="M6.8320 4.0710
L6.8080 3.9750
" />
<path d="M6.8320 4.5790
L6.8460 4.4950
" />
<path d="M6.8420 4.1260
L6.8540 4.2250
" />
<path d="M6.8420 4.5240
L6.8230 4.6210
" />
<path d="M6.8460 4.1550
L6.8320 4.0710
" />
<path d="M6.8460 4.4950
L6.8550 4.4100
" />
<path d="M6.8540 4.2250
L6.8580 4.3250
" />
<path d="M6.8540 4.4250
L6.8420 4.5240
" />
<path d="M6.8550 4.2400
L6.8460 4.1550
" />
<path d="M6.8550 4.4100
L6.8580 4.3250
" />
<path d="M6.8580 4.3250
L6.8540 4.4250
" />
<path d="M6.8580 4.3250
L6.8550 4.2400
" />
<path d="M6.8680 3.2830
L6.9360 3.3730
" />
<path d="M6.8680 5.3670
L6.7940 5.4520
" />
<path d="M6.9360 3.3730
L6.9980 3.4670
" />
<path d="M6.9360 5.2770
L6.8680 5.3670
" />
<path d="M6.9980 3.4670
L7.0530 3.5650
" />
<path d="M6.9980 5.1830
L6.9360 5.2770
" />
<path d="M7.0530 3.5650
L7.1020 3.6670
" />
<path d="M7.0530 5.0850
L6.9980 5.1830
" />
<path d="M7.1020 3.6670
L7.1430 3.7720
" />
<path d="M7.1020 4.9830
L7.0530 5.0850
" />
<path d="M7.1430 3.7720
L7.1770 3.8800
" />
<path d="M7.1430 4.8780
L7.1020 4.9830
" />
<path d="M7.1770 3.8800
L7.2040 3.9890
" />
<path d="M7.1770 4.7700
L7.1430 4.8780
" />
<path d="M7.2040 3.9890
L7.2230 4.1000
" />
<path d="M7.2040 4.6610
L7.1770 4.7700
" />
<path d="M7.2230 4.1000
L7.2350 4.2120
" />
<path d="M7.2230 4.5500
L7.2040 4.6610
" />
<path d="M7.2350 4.2120
L7.2390 4.3250
" />
<path d="M7.2350 4.4380
L7.2230 4.5500
" />
<path d="M7.2390 4.3250
L7.2350 4.4380
" />
<path d="M7.3910 0.6800
L7.3910 0.9340
" />
<path d="M7.3910 0.9340
L7.3910 2.1250
" />
<path d="M7.3910 2.1250
L7.3910 6.5250
" />
<path d="M7.3910 6.5250
L7.3910 6.9290
" />
<path d="M7.3910 6.9290
L7.3910 7.9700
" />
</g> 
</svg>
