<?xml version="1.0" standalone="no"?>
 <!DOCTYPE svg PUBLIC "-//W3C//DTD SVG 1.1//EN" 
 "http://www.w3.org/Graphics/SVG/1.1/DTD/svg11.dtd"> 
<svg
  xmlns:svg="http://www.w3.org/2000/svg"
  xmlns="http://www.w3.org/2000/svg"
  xmlns:xlink="http://www.w3.org/1999/xlink"
  version="1.1"
  width="2.5400mm" height="1.7272mm" viewBox="0.0000 0.0000 2.5400 1.7272">
<title>SVG Image created as outline.svg date 2025/06/16 09:17:52 </title>
  <desc>Image generated by PCBNEW </desc>
<g style="fill:#000000; fill-opacity:1.0000;stroke:#000000; stroke-opacity:1.0000;
stroke-linecap:round; stroke-linejoin:round;"
 transform="translate(0 0) scale(1 1)">
</g>
<g style="fill:none; 
stroke:#000000; stroke-width:0.0200; stroke-opacity:1; 
stroke-linecap:round; stroke-linejoin:round;">
<path d="M0.2710 0.3530
L0.2750 0.3530
" />
<path d="M0.2710 1.3950
L0.2710 0.3530
" />
<path d="M0.2750 0.3530
L0.2790 0.3520
" />
<path d="M0.2750 1.3950
L0.2710 1.3950
" />
<path d="M0.2790 0.3520
L0.2830 0.3520
" />
<path d="M0.2790 1.3960
L0.2750 1.3950
" />
<path d="M0.2830 0.3520
L0.2870 0.3510
" />
<path d="M0.2830 1.3960
L0.2790 1.3960
" />
<path d="M0.2870 0.3510
L0.2900 0.3500
" />
<path d="M0.2870 1.3970
L0.2830 1.3960
" />
<path d="M0.2900 0.3500
L0.2940 0.3490
" />
<path d="M0.2900 1.3980
L0.2870 1.3970
" />
<path d="M0.2940 0.3490
L0.2970 0.3480
" />
<path d="M0.2940 1.3990
L0.2900 1.3980
" />
<path d="M0.2970 0.3480
L0.3010 0.3470
" />
<path d="M0.2970 1.4000
L0.2940 1.3990
" />
<path d="M0.3010 0.3470
L0.3040 0.3450
" />
<path d="M0.3010 1.4010
L0.2970 1.4000
" />
<path d="M0.3040 0.3450
L0.3080 0.3440
" />
<path d="M0.3040 1.4030
L0.3010 1.4010
" />
<path d="M0.3080 0.3440
L0.3110 0.3420
" />
<path d="M0.3080 1.4040
L0.3040 1.4030
" />
<path d="M0.3110 0.3420
L0.3140 0.3400
" />
<path d="M0.3110 1.4060
L0.3080 1.4040
" />
<path d="M0.3140 0.3400
L0.3160 0.3380
" />
<path d="M0.3140 1.4080
L0.3110 1.4060
" />
<path d="M0.3160 0.3380
L0.3190 0.3350
" />
<path d="M0.3160 1.4100
L0.3140 1.4080
" />
<path d="M0.3190 0.3350
L0.3210 0.3330
" />
<path d="M0.3190 1.4130
L0.3160 1.4100
" />
<path d="M0.3210 0.3330
L0.3240 0.3300
" />
<path d="M0.3210 1.4150
L0.3190 1.4130
" />
<path d="M0.3240 0.3300
L0.3270 0.3280
" />
<path d="M0.3240 1.4180
L0.3210 1.4150
" />
<path d="M0.3270 0.3280
L0.3290 0.3250
" />
<path d="M0.3270 1.4200
L0.3240 1.4180
" />
<path d="M0.3290 0.3250
L0.3310 0.3220
" />
<path d="M0.3290 1.4230
L0.3270 1.4200
" />
<path d="M0.3310 0.3220
L0.3330 0.3190
" />
<path d="M0.3310 1.4260
L0.3290 1.4230
" />
<path d="M0.3330 0.3190
L0.3350 0.3160
" />
<path d="M0.3330 1.4290
L0.3310 1.4260
" />
<path d="M0.3350 0.3160
L0.3370 0.3130
" />
<path d="M0.3350 1.4320
L0.3330 1.4290
" />
<path d="M0.3370 0.3130
L0.3390 0.3100
" />
<path d="M0.3370 1.4350
L0.3350 1.4320
" />
<path d="M0.3390 0.3100
L0.3400 0.3060
" />
<path d="M0.3390 1.4380
L0.3370 1.4350
" />
<path d="M0.3400 0.3060
L0.3420 0.3030
" />
<path d="M0.3400 1.4420
L0.3390 1.4380
" />
<path d="M0.3420 0.3030
L0.3430 0.2990
" />
<path d="M0.3420 1.4450
L0.3400 1.4420
" />
<path d="M0.3430 0.2990
L0.3440 0.2970
" />
<path d="M0.3430 1.4490
L0.3420 1.4450
" />
<path d="M0.3440 0.2970
L0.3450 0.2930
" />
<path d="M0.3440 1.4510
L0.3430 1.4490
" />
<path d="M0.3450 0.2930
L0.3460 0.2890
" />
<path d="M0.3450 1.4550
L0.3440 1.4510
" />
<path d="M0.3460 0.2780
L2.2020 0.2780
" />
<path d="M0.3460 0.2820
L0.3460 0.2780
" />
<path d="M0.3460 0.2850
L0.3460 0.2820
" />
<path d="M0.3460 0.2890
L0.3460 0.2850
" />
<path d="M0.3460 1.4590
L0.3450 1.4550
" />
<path d="M0.3460 1.4630
L0.3460 1.4590
" />
<path d="M0.3460 1.4660
L0.3460 1.4630
" />
<path d="M0.3460 1.4700
L0.3460 1.4660
" />
<path d="M0.3590 0.4350
L0.3590 0.4390
" />
<path d="M0.3590 0.4390
L0.3590 0.4430
" />
<path d="M0.3590 1.3050
L0.3590 0.4430
" />
<path d="M0.3590 1.3050
L0.3590 1.3090
" />
<path d="M0.3590 1.3090
L0.3590 1.3130
" />
<path d="M0.3590 1.3130
L0.3600 1.3170
" />
<path d="M0.3600 0.4310
L0.3590 0.4350
" />
<path d="M0.3600 1.3170
L0.3610 1.3200
" />
<path d="M0.3610 0.4230
L0.3610 0.4280
" />
<path d="M0.3610 0.4280
L0.3600 0.4310
" />
<path d="M0.3610 1.3200
L0.3610 1.3250
" />
<path d="M0.3610 1.3250
L0.3620 1.3280
" />
<path d="M0.3620 0.4200
L0.3610 0.4230
" />
<path d="M0.3620 1.3280
L0.3640 1.3320
" />
<path d="M0.3640 0.4160
L0.3620 0.4200
" />
<path d="M0.3640 1.3320
L0.3650 1.3350
" />
<path d="M0.3650 0.4130
L0.3640 0.4160
" />
<path d="M0.3650 1.3350
L0.3660 1.3390
" />
<path d="M0.3660 0.4090
L0.3650 0.4130
" />
<path d="M0.3660 1.3390
L0.3680 1.3420
" />
<path d="M0.3680 0.4060
L0.3660 0.4090
" />
<path d="M0.3680 1.3420
L0.3700 1.3450
" />
<path d="M0.3700 0.4030
L0.3680 0.4060
" />
<path d="M0.3700 1.3450
L0.3720 1.3490
" />
<path d="M0.3720 0.3990
L0.3700 0.4030
" />
<path d="M0.3720 1.3490
L0.3740 1.3520
" />
<path d="M0.3740 0.3960
L0.3720 0.3990
" />
<path d="M0.3740 1.3520
L0.3760 1.3540
" />
<path d="M0.3760 0.3940
L0.3740 0.3960
" />
<path d="M0.3760 1.3540
L0.3800 1.3560
" />
<path d="M0.3800 0.3920
L0.3760 0.3940
" />
<path d="M0.3800 1.3560
L0.3820 1.3590
" />
<path d="M0.3820 0.3890
L0.3800 0.3920
" />
</g>
<g style="fill:#000000; fill-opacity:1.0000; stroke:none;">
<circle cx="0.3820" cy="0.3890" r="0.0100" /> 
<circle cx="0.3820" cy="1.3590" r="0.0100" /> 
</g>
<g style="fill:none; 
stroke:#000000; stroke-width:0.0200; stroke-opacity:1; 
stroke-linecap:round; stroke-linejoin:round;">
<path d="M0.3820 1.3590
L0.3850 1.3620
" />
<path d="M0.3850 0.3860
L0.3820 0.3890
" />
<path d="M0.3850 1.3620
L0.3880 1.3640
" />
<path d="M0.3880 0.3840
L0.3850 0.3860
" />
<path d="M0.3880 1.3640
L0.3910 1.3670
" />
<path d="M0.3910 0.3810
L0.3880 0.3840
" />
<path d="M0.3910 1.3670
L0.3940 1.3690
" />
<path d="M0.3940 0.3790
L0.3910 0.3810
" />
<path d="M0.3940 1.3690
L0.3970 1.3710
" />
<path d="M0.3970 0.3770
L0.3940 0.3790
" />
<path d="M0.3970 1.3710
L0.4000 1.3730
" />
<path d="M0.4000 0.3750
L0.3970 0.3770
" />
<path d="M0.4000 1.3730
L0.4040 1.3740
" />
<path d="M0.4040 0.3740
L0.4000 0.3750
" />
<path d="M0.4040 1.3740
L0.4070 1.3760
" />
<path d="M0.4070 0.3720
L0.4040 0.3740
" />
<path d="M0.4070 1.3760
L0.4110 1.3770
" />
<path d="M0.4110 0.3710
L0.4070 0.3720
" />
<path d="M0.4110 1.3770
L0.4140 1.3780
" />
<path d="M0.4140 0.3700
L0.4110 0.3710
" />
<path d="M0.4140 1.3780
L0.4180 1.3790
" />
<path d="M0.4180 0.3690
L0.4140 0.3700
" />
<path d="M0.4180 1.3790
L0.4210 1.3800
" />
<path d="M0.4210 0.3680
L0.4180 0.3690
" />
<path d="M0.4210 1.3800
L0.4250 1.3810
" />
<path d="M0.4250 0.3670
L0.4210 0.3680
" />
<path d="M0.4250 1.3810
L0.4290 1.3810
" />
<path d="M0.4290 0.3670
L0.4250 0.3670
" />
<path d="M0.4290 1.3810
L0.4330 1.3810
" />
<path d="M0.4330 0.3670
L0.4290 0.3670
" />
<path d="M0.4330 1.3810
L0.4360 1.3810
" />
<path d="M0.4360 0.3670
L0.4330 0.3670
" />
<path d="M0.4360 0.3670
L2.1120 0.3670
" />
<path d="M2.1120 1.3810
L0.4360 1.3810
" />
<path d="M2.1120 1.3810
L2.1150 1.3810
" />
<path d="M2.1150 0.3670
L2.1120 0.3670
" />
<path d="M2.1150 1.3810
L2.1190 1.3810
" />
<path d="M2.1190 0.3670
L2.1150 0.3670
" />
<path d="M2.1190 1.3810
L2.1230 1.3810
" />
<path d="M2.1230 0.3670
L2.1190 0.3670
" />
<path d="M2.1230 1.3810
L2.1270 1.3800
" />
<path d="M2.1270 0.3680
L2.1230 0.3670
" />
<path d="M2.1270 1.3800
L2.1300 1.3790
" />
<path d="M2.1300 0.3690
L2.1270 0.3680
" />
<path d="M2.1300 1.3790
L2.1340 1.3780
" />
<path d="M2.1340 0.3700
L2.1300 0.3690
" />
<path d="M2.1340 1.3780
L2.1370 1.3770
" />
<path d="M2.1370 0.3710
L2.1340 0.3700
" />
<path d="M2.1370 1.3770
L2.1410 1.3760
" />
<path d="M2.1410 0.3720
L2.1370 0.3710
" />
<path d="M2.1410 1.3760
L2.1440 1.3740
" />
<path d="M2.1440 0.3740
L2.1410 0.3720
" />
<path d="M2.1440 1.3740
L2.1480 1.3730
" />
<path d="M2.1480 0.3750
L2.1440 0.3740
" />
<path d="M2.1480 1.3730
L2.1510 1.3710
" />
<path d="M2.1510 0.3770
L2.1480 0.3750
" />
<path d="M2.1510 1.3710
L2.1540 1.3690
" />
<path d="M2.1540 0.3790
L2.1510 0.3770
" />
<path d="M2.1540 1.3690
L2.1570 1.3670
" />
<path d="M2.1570 0.3810
L2.1540 0.3790
" />
<path d="M2.1570 1.3670
L2.1600 1.3640
" />
<path d="M2.1600 0.3840
L2.1570 0.3810
" />
<path d="M2.1600 1.3640
L2.1630 1.3620
" />
<path d="M2.1630 0.3860
L2.1600 0.3840
" />
<path d="M2.1630 1.3620
L2.1660 1.3590
" />
<path d="M2.1660 0.3890
L2.1630 0.3860
" />
</g>
<g style="fill:#000000; fill-opacity:1.0000; stroke:none;">
<circle cx="2.1660" cy="0.3890" r="0.0100" /> 
<circle cx="2.1660" cy="1.3590" r="0.0100" /> 
</g>
<g style="fill:none; 
stroke:#000000; stroke-width:0.0200; stroke-opacity:1; 
stroke-linecap:round; stroke-linejoin:round;">
<path d="M2.1660 1.3590
L2.1680 1.3560
" />
<path d="M2.1680 0.3920
L2.1660 0.3890
" />
<path d="M2.1680 1.3560
L2.1720 1.3540
" />
<path d="M2.1720 0.3940
L2.1680 0.3920
" />
<path d="M2.1720 1.3540
L2.1740 1.3520
" />
<path d="M2.1740 0.3960
L2.1720 0.3940
" />
<path d="M2.1740 1.3520
L2.1760 1.3490
" />
<path d="M2.1760 0.3990
L2.1740 0.3960
" />
<path d="M2.1760 1.3490
L2.1780 1.3450
" />
<path d="M2.1780 0.4030
L2.1760 0.3990
" />
<path d="M2.1780 1.3450
L2.1800 1.3420
" />
<path d="M2.1800 0.4060
L2.1780 0.4030
" />
<path d="M2.1800 1.3420
L2.1820 1.3390
" />
<path d="M2.1820 0.4090
L2.1800 0.4060
" />
<path d="M2.1820 1.3390
L2.1830 1.3350
" />
<path d="M2.1830 0.4130
L2.1820 0.4090
" />
<path d="M2.1830 1.3350
L2.1840 1.3320
" />
<path d="M2.1840 0.4160
L2.1830 0.4130
" />
<path d="M2.1840 1.3320
L2.1860 1.3280
" />
<path d="M2.1860 0.4200
L2.1840 0.4160
" />
<path d="M2.1860 1.3280
L2.1870 1.3250
" />
<path d="M2.1870 0.4230
L2.1860 0.4200
" />
<path d="M2.1870 0.4280
L2.1870 0.4230
" />
<path d="M2.1870 1.3200
L2.1880 1.3170
" />
<path d="M2.1870 1.3250
L2.1870 1.3200
" />
<path d="M2.1880 0.4310
L2.1870 0.4280
" />
<path d="M2.1880 1.3170
L2.1890 1.3130
" />
<path d="M2.1890 0.4350
L2.1880 0.4310
" />
<path d="M2.1890 0.4390
L2.1890 0.4350
" />
<path d="M2.1890 0.4430
L2.1890 0.4390
" />
<path d="M2.1890 0.4430
L2.1890 1.3050
" />
<path d="M2.1890 1.3090
L2.1890 1.3050
" />
<path d="M2.1890 1.3130
L2.1890 1.3090
" />
<path d="M2.2020 0.2780
L2.2020 0.2820
" />
<path d="M2.2020 0.2820
L2.2020 0.2850
" />
<path d="M2.2020 0.2850
L2.2020 0.2890
" />
<path d="M2.2020 0.2890
L2.2030 0.2930
" />
<path d="M2.2020 1.4590
L2.2020 1.4630
" />
<path d="M2.2020 1.4630
L2.2020 1.4660
" />
<path d="M2.2020 1.4660
L2.2020 1.4700
" />
<path d="M2.2020 1.4700
L0.3460 1.4700
" />
<path d="M2.2030 0.2930
L2.2040 0.2970
" />
<path d="M2.2030 1.4550
L2.2020 1.4590
" />
<path d="M2.2040 0.2970
L2.2050 0.2990
" />
<path d="M2.2040 1.4510
L2.2030 1.4550
" />
<path d="M2.2050 0.2990
L2.2060 0.3030
" />
<path d="M2.2050 1.4490
L2.2040 1.4510
" />
<path d="M2.2060 0.3030
L2.2080 0.3060
" />
<path d="M2.2060 1.4450
L2.2050 1.4490
" />
<path d="M2.2080 0.3060
L2.2090 0.3100
" />
<path d="M2.2080 1.4420
L2.2060 1.4450
" />
<path d="M2.2090 0.3100
L2.2110 0.3130
" />
<path d="M2.2090 1.4380
L2.2080 1.4420
" />
<path d="M2.2110 0.3130
L2.2130 0.3160
" />
<path d="M2.2110 1.4350
L2.2090 1.4380
" />
<path d="M2.2130 0.3160
L2.2150 0.3190
" />
<path d="M2.2130 1.4320
L2.2110 1.4350
" />
<path d="M2.2150 0.3190
L2.2170 0.3220
" />
<path d="M2.2150 1.4290
L2.2130 1.4320
" />
<path d="M2.2170 0.3220
L2.2190 0.3250
" />
<path d="M2.2170 1.4260
L2.2150 1.4290
" />
<path d="M2.2190 0.3250
L2.2210 0.3280
" />
<path d="M2.2190 1.4230
L2.2170 1.4260
" />
<path d="M2.2210 0.3280
L2.2240 0.3300
" />
<path d="M2.2210 1.4200
L2.2190 1.4230
" />
<path d="M2.2240 0.3300
L2.2270 0.3330
" />
<path d="M2.2240 1.4180
L2.2210 1.4200
" />
<path d="M2.2270 0.3330
L2.2290 0.3350
" />
<path d="M2.2270 1.4150
L2.2240 1.4180
" />
<path d="M2.2290 0.3350
L2.2320 0.3380
" />
<path d="M2.2290 1.4130
L2.2270 1.4150
" />
<path d="M2.2320 0.3380
L2.2340 0.3400
" />
<path d="M2.2320 1.4100
L2.2290 1.4130
" />
<path d="M2.2340 0.3400
L2.2370 0.3420
" />
<path d="M2.2340 1.4080
L2.2320 1.4100
" />
<path d="M2.2370 0.3420
L2.2400 0.3440
" />
<path d="M2.2370 1.4060
L2.2340 1.4080
" />
<path d="M2.2400 0.3440
L2.2440 0.3450
" />
<path d="M2.2400 1.4040
L2.2370 1.4060
" />
<path d="M2.2440 0.3450
L2.2470 0.3470
" />
<path d="M2.2440 1.4030
L2.2400 1.4040
" />
<path d="M2.2470 0.3470
L2.2510 0.3480
" />
<path d="M2.2470 1.4010
L2.2440 1.4030
" />
<path d="M2.2510 0.3480
L2.2540 0.3490
" />
<path d="M2.2510 1.4000
L2.2470 1.4010
" />
<path d="M2.2540 0.3490
L2.2580 0.3500
" />
<path d="M2.2540 1.3990
L2.2510 1.4000
" />
<path d="M2.2580 0.3500
L2.2610 0.3510
" />
<path d="M2.2580 1.3980
L2.2540 1.3990
" />
<path d="M2.2610 0.3510
L2.2650 0.3520
" />
<path d="M2.2610 1.3970
L2.2580 1.3980
" />
<path d="M2.2650 0.3520
L2.2690 0.3520
" />
<path d="M2.2650 1.3960
L2.2610 1.3970
" />
<path d="M2.2690 0.3520
L2.2730 0.3530
" />
<path d="M2.2690 1.3960
L2.2650 1.3960
" />
<path d="M2.2730 0.3530
L2.2780 0.3530
" />
<path d="M2.2730 1.3950
L2.2690 1.3960
" />
<path d="M2.2780 0.3530
L2.2780 1.3950
" />
<path d="M2.2780 1.3950
L2.2730 1.3950
" />
</g> 
</svg>
