<?xml version="1.0" standalone="no"?>
 <!DOCTYPE svg PUBLIC "-//W3C//DTD SVG 1.1//EN" 
 "http://www.w3.org/Graphics/SVG/1.1/DTD/svg11.dtd"> 
<svg
  xmlns:svg="http://www.w3.org/2000/svg"
  xmlns="http://www.w3.org/2000/svg"
  xmlns:xlink="http://www.w3.org/1999/xlink"
  version="1.1"
  width="1.6256mm" height="3.0480mm" viewBox="0.0000 0.0000 1.6256 3.0480">
<title>SVG Image created as outline.svg date 2025/04/04 10:06:04 </title>
  <desc>Image generated by PCBNEW </desc>
<g style="fill:#000000; fill-opacity:1.0000;stroke:#000000; stroke-opacity:1.0000;
stroke-linecap:round; stroke-linejoin:round;"
 transform="translate(0 0) scale(1 1)">
</g>
<g style="fill:none; 
stroke:#000000; stroke-width:0.0200; stroke-opacity:1; 
stroke-linecap:round; stroke-linejoin:round;">
<path d="M0.3250 0.2750
L0.3250 2.7740
" />
<path d="M0.3250 2.7740
L1.3230 2.7740
" />
<path d="M0.4030 0.4620
L0.4040 0.4560
" />
<path d="M0.4030 0.4620
L0.4040 0.4560
" />
<path d="M0.4030 0.4700
L0.4030 0.4620
" />
<path d="M0.4030 0.4700
L0.4030 0.4620
" />
<path d="M0.4030 0.4760
L0.4030 0.4700
" />
<path d="M0.4030 0.4760
L0.4030 0.4700
" />
<path d="M0.4030 0.4820
L0.4030 0.4760
" />
<path d="M0.4030 0.4820
L0.4030 0.4760
" />
<path d="M0.4030 0.4880
L0.4030 0.4820
" />
<path d="M0.4030 0.4880
L0.4030 0.4820
" />
<path d="M0.4040 0.4560
L0.4060 0.4500
" />
<path d="M0.4040 0.4560
L0.4060 0.4500
" />
<path d="M0.4040 0.4940
L0.4030 0.4880
" />
<path d="M0.4040 0.4940
L0.4030 0.4880
" />
<path d="M0.4060 0.4500
L0.4080 0.4440
" />
<path d="M0.4060 0.4500
L0.4080 0.4440
" />
<path d="M0.4060 0.5010
L0.4040 0.4940
" />
<path d="M0.4060 0.5010
L0.4040 0.4940
" />
<path d="M0.4080 0.4440
L0.4090 0.4380
" />
<path d="M0.4080 0.4440
L0.4090 0.4380
" />
<path d="M0.4080 0.5070
L0.4060 0.5010
" />
<path d="M0.4080 0.5070
L0.4060 0.5010
" />
<path d="M0.4090 0.4380
L0.4120 0.4320
" />
<path d="M0.4090 0.4380
L0.4120 0.4320
" />
<path d="M0.4090 0.5130
L0.4080 0.5070
" />
<path d="M0.4090 0.5130
L0.4080 0.5070
" />
<path d="M0.4120 0.4320
L0.4150 0.4260
" />
<path d="M0.4120 0.4320
L0.4150 0.4260
" />
<path d="M0.4120 0.5190
L0.4090 0.5130
" />
<path d="M0.4120 0.5190
L0.4090 0.5130
" />
</g>
<g style="fill:#000000; fill-opacity:1.0000; stroke:none;">
<circle cx="0.4150" cy="0.4260" r="0.0100" /> 
<circle cx="0.4150" cy="0.4260" r="0.0100" /> 
</g>
<g style="fill:none; 
stroke:#000000; stroke-width:0.0200; stroke-opacity:1; 
stroke-linecap:round; stroke-linejoin:round;">
<path d="M0.4150 0.4260
L0.4170 0.4220
" />
<path d="M0.4150 0.4260
L0.4170 0.4220
" />
<path d="M0.4150 0.5260
L0.4120 0.5190
" />
<path d="M0.4150 0.5260
L0.4120 0.5190
" />
</g>
<g style="fill:#000000; fill-opacity:1.0000; stroke:none;">
<circle cx="0.4150" cy="0.5260" r="0.0100" /> 
<circle cx="0.4150" cy="0.5260" r="0.0100" /> 
</g>
<g style="fill:none; 
stroke:#000000; stroke-width:0.0200; stroke-opacity:1; 
stroke-linecap:round; stroke-linejoin:round;">
<path d="M0.4170 0.4220
L0.4180 0.4200
" />
<path d="M0.4170 0.4220
L0.4180 0.4200
" />
<path d="M0.4180 0.4200
L0.4200 0.4180
" />
<path d="M0.4180 0.4200
L0.4200 0.4180
" />
<path d="M0.4180 0.5320
L0.4150 0.5260
" />
<path d="M0.4180 0.5320
L0.4150 0.5260
" />
<path d="M0.4200 0.4180
L0.4220 0.4140
" />
<path d="M0.4200 0.4180
L0.4220 0.4140
" />
<path d="M0.4220 0.4140
L0.4240 0.4120
" />
<path d="M0.4220 0.4140
L0.4240 0.4120
" />
<path d="M0.4220 0.5370
L0.4180 0.5320
" />
<path d="M0.4220 0.5370
L0.4180 0.5320
" />
<path d="M0.4240 0.4120
L0.4260 0.4100
" />
<path d="M0.4240 0.4120
L0.4260 0.4100
" />
<path d="M0.4260 0.4100
L0.4290 0.4080
" />
<path d="M0.4260 0.4100
L0.4290 0.4080
" />
<path d="M0.4260 0.5420
L0.4220 0.5370
" />
<path d="M0.4260 0.5420
L0.4220 0.5370
" />
<path d="M0.4290 0.4080
L0.4310 0.4060
" />
<path d="M0.4290 0.4080
L0.4310 0.4060
" />
<path d="M0.4310 0.4060
L0.4330 0.4020
" />
<path d="M0.4310 0.4060
L0.4330 0.4020
" />
<path d="M0.4310 0.5470
L0.4260 0.5420
" />
<path d="M0.4310 0.5470
L0.4260 0.5420
" />
<path d="M0.4330 0.4020
L0.4360 0.4000
" />
<path d="M0.4330 0.4020
L0.4360 0.4000
" />
<path d="M0.4360 0.4000
L0.4380 0.3980
" />
<path d="M0.4360 0.4000
L0.4380 0.3980
" />
<path d="M0.4360 0.5510
L0.4310 0.5470
" />
<path d="M0.4360 0.5510
L0.4310 0.5470
" />
<path d="M0.4380 0.3980
L0.4420 0.3960
" />
<path d="M0.4380 0.3980
L0.4420 0.3960
" />
<path d="M0.4420 0.3960
L0.4440 0.3940
" />
<path d="M0.4420 0.3960
L0.4440 0.3940
" />
<path d="M0.4420 0.5550
L0.4360 0.5510
" />
<path d="M0.4420 0.5550
L0.4360 0.5510
" />
<path d="M0.4440 0.3940
L0.4470 0.3920
" />
<path d="M0.4440 0.3940
L0.4470 0.3920
" />
<path d="M0.4470 0.3920
L0.4500 0.3920
" />
<path d="M0.4470 0.3920
L0.4500 0.3920
" />
<path d="M0.4470 0.5590
L0.4420 0.5550
" />
<path d="M0.4470 0.5590
L0.4420 0.5550
" />
<path d="M0.4500 0.3920
L0.4520 0.3900
" />
<path d="M0.4500 0.3920
L0.4520 0.3900
" />
<path d="M0.4520 0.3900
L0.4550 0.3880
" />
<path d="M0.4520 0.3900
L0.4550 0.3880
" />
<path d="M0.4520 0.5620
L0.4470 0.5590
" />
<path d="M0.4520 0.5620
L0.4470 0.5590
" />
<path d="M0.4550 0.3880
L0.4580 0.3860
" />
<path d="M0.4550 0.3880
L0.4580 0.3860
" />
<path d="M0.4580 0.3860
L0.4610 0.3840
" />
<path d="M0.4580 0.3860
L0.4610 0.3840
" />
<path d="M0.4580 0.5650
L0.4520 0.5620
" />
<path d="M0.4580 0.5650
L0.4520 0.5620
" />
<path d="M0.4610 0.3840
L0.4640 0.3840
" />
<path d="M0.4610 0.3840
L0.4640 0.3840
" />
<path d="M0.4640 0.3840
L0.4670 0.3820
" />
<path d="M0.4640 0.3840
L0.4670 0.3820
" />
<path d="M0.4640 0.5670
L0.4580 0.5650
" />
<path d="M0.4640 0.5670
L0.4580 0.5650
" />
<path d="M0.4670 0.3820
L0.4700 0.3820
" />
<path d="M0.4670 0.3820
L0.4700 0.3820
" />
<path d="M0.4700 0.3820
L0.4730 0.3800
" />
<path d="M0.4700 0.3820
L0.4730 0.3800
" />
<path d="M0.4700 0.5690
L0.4640 0.5670
" />
<path d="M0.4700 0.5690
L0.4640 0.5670
" />
<path d="M0.4730 0.3800
L0.4750 0.3800
" />
<path d="M0.4730 0.3800
L0.4750 0.3800
" />
<path d="M0.4750 0.3800
L0.4780 0.3780
" />
<path d="M0.4750 0.3800
L0.4780 0.3780
" />
<path d="M0.4750 0.5710
L0.4700 0.5690
" />
<path d="M0.4750 0.5710
L0.4700 0.5690
" />
<path d="M0.4780 0.3780
L0.4810 0.3780
" />
<path d="M0.4780 0.3780
L0.4810 0.3780
" />
<path d="M0.4810 0.3780
L0.4850 0.3780
" />
<path d="M0.4810 0.3780
L0.4850 0.3780
" />
<path d="M0.4810 0.5730
L0.4750 0.5710
" />
<path d="M0.4810 0.5730
L0.4750 0.5710
" />
<path d="M0.4850 0.3780
L0.4880 0.3760
" />
<path d="M0.4850 0.3780
L0.4880 0.3760
" />
<path d="M0.4880 0.3760
L0.4910 0.3760
" />
<path d="M0.4880 0.3760
L0.4910 0.3760
" />
<path d="M0.4880 0.5740
L0.4810 0.5730
" />
<path d="M0.4880 0.5740
L0.4810 0.5730
" />
<path d="M0.4910 0.3760
L0.4940 0.3760
" />
<path d="M0.4910 0.3760
L0.4940 0.3760
" />
<path d="M0.4940 0.3760
L0.4980 0.3760
" />
<path d="M0.4940 0.3760
L0.4980 0.3760
" />
<path d="M0.4940 0.5750
L0.4880 0.5740
" />
<path d="M0.4940 0.5750
L0.4880 0.5740
" />
<path d="M0.4980 0.3760
L0.5010 0.3760
" />
<path d="M0.4980 0.3760
L0.5010 0.3760
" />
<path d="M0.5010 0.3760
L0.5090 0.3760
" />
<path d="M0.5010 0.3760
L0.5090 0.3760
" />
<path d="M0.5010 0.5750
L0.4940 0.5750
" />
<path d="M0.5010 0.5750
L0.4940 0.5750
" />
<path d="M0.5050 0.5750
L0.5010 0.5750
" />
<path d="M0.5050 0.5750
L0.5010 0.5750
" />
<path d="M0.5090 0.3760
L0.5150 0.3760
" />
<path d="M0.5090 0.3760
L0.5150 0.3760
" />
<path d="M0.5090 0.5750
L0.5050 0.5750
" />
<path d="M0.5090 0.5750
L0.5050 0.5750
" />
<path d="M0.5120 0.5740
L0.5090 0.5750
" />
<path d="M0.5120 0.5740
L0.5090 0.5750
" />
<path d="M0.5150 0.3760
L0.5220 0.3780
" />
<path d="M0.5150 0.3760
L0.5220 0.3780
" />
<path d="M0.5150 0.5740
L0.5120 0.5740
" />
<path d="M0.5150 0.5740
L0.5120 0.5740
" />
<path d="M0.5190 0.5730
L0.5150 0.5740
" />
<path d="M0.5190 0.5730
L0.5150 0.5740
" />
<path d="M0.5220 0.3780
L0.5280 0.3800
" />
<path d="M0.5220 0.3780
L0.5280 0.3800
" />
<path d="M0.5220 0.5730
L0.5190 0.5730
" />
<path d="M0.5220 0.5730
L0.5190 0.5730
" />
<path d="M0.5250 0.5720
L0.5220 0.5730
" />
<path d="M0.5250 0.5720
L0.5220 0.5730
" />
<path d="M0.5280 0.3800
L0.5340 0.3820
" />
<path d="M0.5280 0.3800
L0.5340 0.3820
" />
<path d="M0.5280 0.5710
L0.5250 0.5720
" />
<path d="M0.5280 0.5710
L0.5250 0.5720
" />
<path d="M0.5310 0.5700
L0.5280 0.5710
" />
<path d="M0.5310 0.5700
L0.5280 0.5710
" />
<path d="M0.5340 0.3820
L0.5390 0.3840
" />
<path d="M0.5340 0.3820
L0.5390 0.3840
" />
<path d="M0.5340 0.5690
L0.5310 0.5700
" />
<path d="M0.5340 0.5690
L0.5310 0.5700
" />
<path d="M0.5360 0.5680
L0.5340 0.5690
" />
<path d="M0.5360 0.5680
L0.5340 0.5690
" />
<path d="M0.5390 0.3840
L0.5450 0.3860
" />
<path d="M0.5390 0.3840
L0.5450 0.3860
" />
<path d="M0.5390 0.5670
L0.5360 0.5680
" />
<path d="M0.5390 0.5670
L0.5360 0.5680
" />
<path d="M0.5420 0.5660
L0.5390 0.5670
" />
<path d="M0.5420 0.5660
L0.5390 0.5670
" />
<path d="M0.5450 0.3860
L0.5510 0.3900
" />
<path d="M0.5450 0.3860
L0.5510 0.3900
" />
<path d="M0.5450 0.5650
L0.5420 0.5660
" />
<path d="M0.5450 0.5650
L0.5420 0.5660
" />
<path d="M0.5480 0.5640
L0.5450 0.5650
" />
<path d="M0.5480 0.5640
L0.5450 0.5650
" />
<path d="M0.5510 0.3900
L0.5560 0.3920
" />
<path d="M0.5510 0.3900
L0.5560 0.3920
" />
<path d="M0.5510 0.5620
L0.5480 0.5640
" />
<path d="M0.5510 0.5620
L0.5480 0.5640
" />
<path d="M0.5540 0.5610
L0.5510 0.5620
" />
<path d="M0.5540 0.5610
L0.5510 0.5620
" />
<path d="M0.5560 0.3920
L0.5620 0.3960
" />
<path d="M0.5560 0.3920
L0.5620 0.3960
" />
<path d="M0.5560 0.5590
L0.5540 0.5610
" />
<path d="M0.5560 0.5590
L0.5540 0.5610
" />
<path d="M0.5590 0.5570
L0.5560 0.5590
" />
<path d="M0.5590 0.5570
L0.5560 0.5590
" />
<path d="M0.5620 0.3960
L0.5670 0.4000
" />
<path d="M0.5620 0.3960
L0.5670 0.4000
" />
<path d="M0.5620 0.5550
L0.5590 0.5570
" />
<path d="M0.5620 0.5550
L0.5590 0.5570
" />
<path d="M0.5640 0.5530
L0.5620 0.5550
" />
<path d="M0.5640 0.5530
L0.5620 0.5550
" />
<path d="M0.5670 0.4000
L0.5720 0.4060
" />
<path d="M0.5670 0.4000
L0.5720 0.4060
" />
<path d="M0.5670 0.5510
L0.5640 0.5530
" />
<path d="M0.5670 0.5510
L0.5640 0.5530
" />
<path d="M0.5700 0.5490
L0.5670 0.5510
" />
<path d="M0.5700 0.5490
L0.5670 0.5510
" />
<path d="M0.5720 0.4060
L0.5770 0.4100
" />
<path d="M0.5720 0.4060
L0.5770 0.4100
" />
<path d="M0.5720 0.5470
L0.5700 0.5490
" />
<path d="M0.5720 0.5470
L0.5700 0.5490
" />
<path d="M0.5750 0.5440
L0.5720 0.5470
" />
<path d="M0.5750 0.5440
L0.5720 0.5470
" />
<path d="M0.5770 0.4100
L0.5810 0.4140
" />
<path d="M0.5770 0.4100
L0.5810 0.4140
" />
<path d="M0.5770 0.5420
L0.5750 0.5440
" />
<path d="M0.5770 0.5420
L0.5750 0.5440
" />
<path d="M0.5790 0.5390
L0.5770 0.5420
" />
<path d="M0.5790 0.5390
L0.5770 0.5420
" />
<path d="M0.5810 0.4140
L0.5850 0.4200
" />
<path d="M0.5810 0.4140
L0.5850 0.4200
" />
<path d="M0.5810 0.5370
L0.5790 0.5390
" />
<path d="M0.5810 0.5370
L0.5790 0.5390
" />
<path d="M0.5830 0.5340
L0.5810 0.5370
" />
<path d="M0.5830 0.5340
L0.5810 0.5370
" />
<path d="M0.5850 0.4200
L0.5870 0.4260
" />
<path d="M0.5850 0.4200
L0.5870 0.4260
" />
<path d="M0.5850 0.5320
L0.5830 0.5340
" />
<path d="M0.5850 0.5320
L0.5830 0.5340
" />
<path d="M0.5860 0.5290
L0.5850 0.5320
" />
<path d="M0.5860 0.5290
L0.5850 0.5320
" />
</g>
<g style="fill:#000000; fill-opacity:1.0000; stroke:none;">
<circle cx="0.5870" cy="0.4260" r="0.0100" /> 
<circle cx="0.5870" cy="0.4260" r="0.0100" /> 
</g>
<g style="fill:none; 
stroke:#000000; stroke-width:0.0200; stroke-opacity:1; 
stroke-linecap:round; stroke-linejoin:round;">
<path d="M0.5870 0.4260
L0.5910 0.4320
" />
<path d="M0.5870 0.4260
L0.5910 0.4320
" />
<path d="M0.5870 0.5260
L0.5860 0.5290
" />
<path d="M0.5870 0.5260
L0.5860 0.5290
" />
</g>
<g style="fill:#000000; fill-opacity:1.0000; stroke:none;">
<circle cx="0.5870" cy="0.5260" r="0.0100" /> 
<circle cx="0.5870" cy="0.5260" r="0.0100" /> 
</g>
<g style="fill:none; 
stroke:#000000; stroke-width:0.0200; stroke-opacity:1; 
stroke-linecap:round; stroke-linejoin:round;">
<path d="M0.5910 0.4320
L0.5930 0.4380
" />
<path d="M0.5910 0.4320
L0.5930 0.4380
" />
<path d="M0.5910 0.5190
L0.5870 0.5260
" />
<path d="M0.5910 0.5190
L0.5870 0.5260
" />
<path d="M0.5930 0.4380
L0.5960 0.4440
" />
<path d="M0.5930 0.4380
L0.5960 0.4440
" />
<path d="M0.5930 0.5130
L0.5910 0.5190
" />
<path d="M0.5930 0.5130
L0.5910 0.5190
" />
<path d="M0.5960 0.4440
L0.5970 0.4500
" />
<path d="M0.5960 0.4440
L0.5970 0.4500
" />
<path d="M0.5960 0.5070
L0.5930 0.5130
" />
<path d="M0.5960 0.5070
L0.5930 0.5130
" />
<path d="M0.5970 0.4500
L0.5990 0.4560
" />
<path d="M0.5970 0.4500
L0.5990 0.4560
" />
<path d="M0.5970 0.5010
L0.5960 0.5070
" />
<path d="M0.5970 0.5010
L0.5960 0.5070
" />
<path d="M0.5990 0.4560
L0.6010 0.4620
" />
<path d="M0.5990 0.4560
L0.6010 0.4620
" />
<path d="M0.5990 0.4940
L0.5970 0.5010
" />
<path d="M0.5990 0.4940
L0.5970 0.5010
" />
<path d="M0.6010 0.4620
L0.6020 0.4700
" />
<path d="M0.6010 0.4620
L0.6020 0.4700
" />
<path d="M0.6010 0.4880
L0.5990 0.4940
" />
<path d="M0.6010 0.4880
L0.5990 0.4940
" />
<path d="M0.6020 0.4700
L0.6020 0.4760
" />
<path d="M0.6020 0.4700
L0.6020 0.4760
" />
<path d="M0.6020 0.4760
L0.6020 0.4820
" />
<path d="M0.6020 0.4760
L0.6020 0.4820
" />
<path d="M0.6020 0.4820
L0.6010 0.4880
" />
<path d="M0.6020 0.4820
L0.6010 0.4880
" />
<path d="M1.3230 0.2750
L0.3250 0.2750
" />
<path d="M1.3230 2.7740
L1.3230 0.2750
" />
</g> 
</svg>
