<?xml version="1.0" standalone="no"?>
 <!DOCTYPE svg PUBLIC "-//W3C//DTD SVG 1.1//EN" 
 "http://www.w3.org/Graphics/SVG/1.1/DTD/svg11.dtd"> 
<svg
  xmlns:svg="http://www.w3.org/2000/svg"
  xmlns="http://www.w3.org/2000/svg"
  xmlns:xlink="http://www.w3.org/1999/xlink"
  version="1.1"
  width="16.5354mm" height="8.4328mm" viewBox="0.0000 0.0000 16.5354 8.4328">
<title>SVG Image created as outline.svg date 2025/06/16 09:18:18 </title>
  <desc>Image generated by PCBNEW </desc>
<g style="fill:#000000; fill-opacity:1.0000;stroke:#000000; stroke-opacity:1.0000;
stroke-linecap:round; stroke-linejoin:round;"
 transform="translate(0 0) scale(1 1)">
</g>
<g style="fill:none; 
stroke:#000000; stroke-width:0.0200; stroke-opacity:1; 
stroke-linecap:round; stroke-linejoin:round;">
<path d="M1.1250 2.2270
L1.1250 6.2260
" />
<path d="M1.1250 2.2270
L1.3260 2.2270
" />
<path d="M1.1250 6.2260
L1.3260 6.2260
" />
<path d="M1.3260 2.2270
L1.8210 2.2270
" />
<path d="M1.3260 6.2260
L1.8210 6.2260
" />
<path d="M1.5560 6.4840
L1.5560 6.3870
" />
</g>
<g style="fill:#000000; fill-opacity:1.0000; stroke:none;">
<circle cx="1.5560" cy="6.4840" r="0.0100" /> 
<circle cx="1.5560" cy="6.4840" r="0.0100" /> 
</g>
<g style="fill:none; 
stroke:#000000; stroke-width:0.0200; stroke-opacity:1; 
stroke-linecap:round; stroke-linejoin:round;">
<path d="M1.5560 6.6370
L1.5560 6.2260
" />
<path d="M1.5560 6.6370
L1.6410 6.6370
" />
<path d="M1.6410 6.6370
L1.7260 6.6370
" />
<path d="M1.7260 1.6980
L1.7260 1.7170
" />
<path d="M1.7260 2.2270
L1.7260 1.7170
" />
<path d="M1.7260 6.7360
L1.7260 6.2260
" />
<path d="M1.7260 6.7360
L1.7260 6.7540
" />
<path d="M1.7260 6.7540
L1.7280 6.7710
" />
<path d="M1.7280 1.6820
L1.7260 1.6980
" />
<path d="M1.7280 6.7710
L1.7290 6.7870
" />
<path d="M1.7290 1.6640
L1.7280 1.6820
" />
<path d="M1.7290 6.7870
L1.7330 6.8050
" />
<path d="M1.7330 1.6480
L1.7290 1.6640
" />
<path d="M1.7330 6.8050
L1.7370 6.8210
" />
<path d="M1.7370 1.6300
L1.7330 1.6480
" />
<path d="M1.7370 6.8210
L1.7410 6.8370
" />
<path d="M1.7410 1.6140
L1.7370 1.6300
" />
<path d="M1.7410 6.8370
L1.7460 6.8550
" />
<path d="M1.7460 1.5980
L1.7410 1.6140
" />
<path d="M1.7460 6.8550
L1.7530 6.8690
" />
<path d="M1.7530 1.5820
L1.7460 1.5980
" />
<path d="M1.7530 6.8690
L1.7600 6.8850
" />
<path d="M1.7600 1.5670
L1.7530 1.5820
" />
<path d="M1.7600 6.8850
L1.7680 6.9010
" />
<path d="M1.7680 1.5510
L1.7600 1.5670
" />
<path d="M1.7680 6.9010
L1.7760 6.9150
" />
<path d="M1.7760 1.5370
L1.7680 1.5510
" />
<path d="M1.7760 6.9150
L1.7850 6.9300
" />
<path d="M1.7850 1.5210
L1.7760 1.5370
" />
<path d="M1.7850 6.9300
L1.7940 6.9440
" />
<path d="M1.7940 1.5070
L1.7850 1.5210
" />
<path d="M1.7940 6.9440
L1.8050 6.9570
" />
<path d="M1.8050 1.4950
L1.7940 1.5070
" />
<path d="M1.8050 6.9570
L1.8170 6.9700
" />
<path d="M1.8170 1.4810
L1.8050 1.4950
" />
<path d="M1.8170 6.9700
L1.8290 6.9830
" />
</g>
<g style="fill:#000000; fill-opacity:1.0000; stroke:none;">
<circle cx="1.8210" cy="2.2270" r="0.0100" /> 
</g>
<g style="fill:none; 
stroke:#000000; stroke-width:0.0200; stroke-opacity:1; 
stroke-linecap:round; stroke-linejoin:round;">
<path d="M1.8210 2.2270
L1.8740 2.2270
" />
</g>
<g style="fill:#000000; fill-opacity:1.0000; stroke:none;">
<circle cx="1.8210" cy="6.2260" r="0.0100" /> 
</g>
<g style="fill:none; 
stroke:#000000; stroke-width:0.0200; stroke-opacity:1; 
stroke-linecap:round; stroke-linejoin:round;">
<path d="M1.8210 6.2260
L1.8740 6.2260
" />
<path d="M1.8290 1.4690
L1.8170 1.4810
" />
</g>
<g style="fill:#000000; fill-opacity:1.0000; stroke:none;">
<circle cx="1.8290" cy="1.4690" r="0.0100" /> 
<circle cx="1.8290" cy="6.9830" r="0.0100" /> 
</g>
<g style="fill:none; 
stroke:#000000; stroke-width:0.0200; stroke-opacity:1; 
stroke-linecap:round; stroke-linejoin:round;">
<path d="M1.8290 6.9830
L1.8420 6.9960
" />
<path d="M1.8420 1.4570
L1.8290 1.4690
" />
<path d="M1.8420 6.9960
L1.8540 7.0070
" />
<path d="M1.8540 1.4460
L1.8420 1.4570
" />
<path d="M1.8540 7.0070
L1.8670 7.0180
" />
<path d="M1.8670 1.4340
L1.8540 1.4460
" />
<path d="M1.8670 7.0180
L1.8820 7.0280
" />
</g>
<g style="fill:#000000; fill-opacity:1.0000; stroke:none;">
<circle cx="1.8740" cy="2.2270" r="0.0100" /> 
</g>
<g style="fill:none; 
stroke:#000000; stroke-width:0.0200; stroke-opacity:1; 
stroke-linecap:round; stroke-linejoin:round;">
<path d="M1.8740 2.2270
L1.9570 2.2270
" />
</g>
<g style="fill:#000000; fill-opacity:1.0000; stroke:none;">
<circle cx="1.8740" cy="6.2260" r="0.0100" /> 
</g>
<g style="fill:none; 
stroke:#000000; stroke-width:0.0200; stroke-opacity:1; 
stroke-linecap:round; stroke-linejoin:round;">
<path d="M1.8740 6.2260
L1.9570 6.2260
" />
<path d="M1.8820 1.4240
L1.8670 1.4340
" />
<path d="M1.8820 7.0280
L1.8970 7.0370
" />
<path d="M1.8970 1.4160
L1.8820 1.4240
" />
<path d="M1.8970 7.0370
L1.9110 7.0450
" />
<path d="M1.9110 1.4080
L1.8970 1.4160
" />
<path d="M1.9110 7.0450
L1.9260 7.0530
" />
<path d="M1.9260 1.4000
L1.9110 1.4080
" />
<path d="M1.9260 7.0530
L1.9420 7.0600
" />
<path d="M1.9420 1.3920
L1.9260 1.4000
" />
<path d="M1.9420 7.0600
L1.9580 7.0660
" />
</g>
<g style="fill:#000000; fill-opacity:1.0000; stroke:none;">
<circle cx="1.9570" cy="2.2270" r="0.0100" /> 
</g>
<g style="fill:none; 
stroke:#000000; stroke-width:0.0200; stroke-opacity:1; 
stroke-linecap:round; stroke-linejoin:round;">
<path d="M1.9570 2.2270
L1.9870 2.2270
" />
</g>
<g style="fill:#000000; fill-opacity:1.0000; stroke:none;">
<circle cx="1.9570" cy="6.2260" r="0.0100" /> 
</g>
<g style="fill:none; 
stroke:#000000; stroke-width:0.0200; stroke-opacity:1; 
stroke-linecap:round; stroke-linejoin:round;">
<path d="M1.9570 6.2260
L1.9870 6.2260
" />
<path d="M1.9580 1.3860
L1.9420 1.3920
" />
<path d="M1.9580 7.0660
L1.9750 7.0710
" />
<path d="M1.9750 1.3820
L1.9580 1.3860
" />
<path d="M1.9750 7.0710
L1.9910 7.0760
" />
</g>
<g style="fill:#000000; fill-opacity:1.0000; stroke:none;">
<circle cx="1.9870" cy="2.2270" r="0.0100" /> 
</g>
<g style="fill:none; 
stroke:#000000; stroke-width:0.0200; stroke-opacity:1; 
stroke-linecap:round; stroke-linejoin:round;">
<path d="M1.9870 2.2270
L2.0080 2.2270
" />
</g>
<g style="fill:#000000; fill-opacity:1.0000; stroke:none;">
<circle cx="1.9870" cy="6.2260" r="0.0100" /> 
</g>
<g style="fill:none; 
stroke:#000000; stroke-width:0.0200; stroke-opacity:1; 
stroke-linecap:round; stroke-linejoin:round;">
<path d="M1.9870 6.2260
L2.0080 6.2260
" />
<path d="M1.9910 1.3760
L1.9750 1.3820
" />
<path d="M1.9910 7.0760
L2.0070 7.0790
" />
<path d="M2.0070 1.3720
L1.9910 1.3760
" />
<path d="M2.0070 7.0790
L2.0240 7.0820
" />
</g>
<g style="fill:#000000; fill-opacity:1.0000; stroke:none;">
<circle cx="2.0080" cy="2.2270" r="0.0100" /> 
</g>
<g style="fill:none; 
stroke:#000000; stroke-width:0.0200; stroke-opacity:1; 
stroke-linecap:round; stroke-linejoin:round;">
<path d="M2.0080 2.2270
L2.0220 2.2270
" />
</g>
<g style="fill:#000000; fill-opacity:1.0000; stroke:none;">
<circle cx="2.0080" cy="6.2260" r="0.0100" /> 
</g>
<g style="fill:none; 
stroke:#000000; stroke-width:0.0200; stroke-opacity:1; 
stroke-linecap:round; stroke-linejoin:round;">
<path d="M2.0080 6.2260
L2.0220 6.2260
" />
</g>
<g style="fill:#000000; fill-opacity:1.0000; stroke:none;">
<circle cx="2.0220" cy="2.2270" r="0.0100" /> 
</g>
<g style="fill:none; 
stroke:#000000; stroke-width:0.0200; stroke-opacity:1; 
stroke-linecap:round; stroke-linejoin:round;">
<path d="M2.0220 2.2270
L2.0270 2.2270
" />
</g>
<g style="fill:#000000; fill-opacity:1.0000; stroke:none;">
<circle cx="2.0220" cy="6.2260" r="0.0100" /> 
</g>
<g style="fill:none; 
stroke:#000000; stroke-width:0.0200; stroke-opacity:1; 
stroke-linecap:round; stroke-linejoin:round;">
<path d="M2.0220 6.2260
L2.0270 6.2260
" />
<path d="M2.0240 1.3700
L2.0070 1.3720
" />
<path d="M2.0240 7.0820
L2.0420 7.0840
" />
<path d="M2.0270 0.5250
L6.6750 0.5250
" />
<path d="M2.0270 1.3660
L2.0270 0.5250
" />
<path d="M2.0270 1.3700
L2.0270 1.3660
" />
<path d="M2.0270 1.7030
L2.0280 1.7020
" />
<path d="M2.0270 1.7070
L2.0270 1.7030
" />
<path d="M2.0270 1.7090
L2.0270 1.7070
" />
<path d="M2.0270 1.7110
L2.0270 1.7090
" />
<path d="M2.0270 1.7130
L2.0270 1.7110
" />
<path d="M2.0270 1.7170
L2.0270 1.7130
" />
<path d="M2.0270 1.7170
L2.0270 2.2270
" />
<path d="M2.0270 3.4260
L2.0270 3.4270
" />
</g>
<g style="fill:#000000; fill-opacity:1.0000; stroke:none;">
<circle cx="2.0270" cy="3.4270" r="0.0100" /> 
<circle cx="2.0270" cy="3.4270" r="0.0100" /> 
<circle cx="2.0270" cy="3.4270" r="0.0100" /> 
</g>
<g style="fill:none; 
stroke:#000000; stroke-width:0.0200; stroke-opacity:1; 
stroke-linecap:round; stroke-linejoin:round;">
<path d="M2.0270 3.4270
L2.0270 3.4280
" />
</g>
<g style="fill:#000000; fill-opacity:1.0000; stroke:none;">
<circle cx="2.0270" cy="3.4280" r="0.0100" /> 
<circle cx="2.0270" cy="3.4280" r="0.0100" /> 
<circle cx="2.0270" cy="3.4280" r="0.0100" /> 
</g>
<g style="fill:none; 
stroke:#000000; stroke-width:0.0200; stroke-opacity:1; 
stroke-linecap:round; stroke-linejoin:round;">
<path d="M2.0270 3.4280
L2.0280 3.4290
" />
</g>
<g style="fill:#000000; fill-opacity:1.0000; stroke:none;">
<circle cx="2.0270" cy="5.0240" r="0.0100" /> 
</g>
<g style="fill:none; 
stroke:#000000; stroke-width:0.0200; stroke-opacity:1; 
stroke-linecap:round; stroke-linejoin:round;">
<path d="M2.0270 5.0240
L2.0270 5.0250
" />
</g>
<g style="fill:#000000; fill-opacity:1.0000; stroke:none;">
<circle cx="2.0270" cy="5.0250" r="0.0100" /> 
<circle cx="2.0270" cy="5.0250" r="0.0100" /> 
</g>
<g style="fill:none; 
stroke:#000000; stroke-width:0.0200; stroke-opacity:1; 
stroke-linecap:round; stroke-linejoin:round;">
<path d="M2.0270 6.2260
L2.0270 2.2270
" />
<path d="M2.0270 6.2260
L2.0270 6.7360
" />
<path d="M2.0270 6.7390
L2.0270 6.7360
" />
<path d="M2.0270 6.7410
L2.0270 6.7390
" />
<path d="M2.0270 6.7440
L2.0270 6.7410
" />
<path d="M2.0270 6.7460
L2.0270 6.7440
" />
<path d="M2.0270 6.7490
L2.0270 6.7460
" />
<path d="M2.0270 7.0850
L2.0270 7.0820
" />
<path d="M2.0270 7.0850
L2.6200 7.0850
" />
<path d="M2.0270 7.9270
L2.0270 7.0850
" />
<path d="M2.0280 1.7000
L2.0300 1.6960
" />
<path d="M2.0280 1.7020
L2.0280 1.7000
" />
</g>
<g style="fill:#000000; fill-opacity:1.0000; stroke:none;">
<circle cx="2.0280" cy="3.4290" r="0.0100" /> 
</g>
<g style="fill:none; 
stroke:#000000; stroke-width:0.0200; stroke-opacity:1; 
stroke-linecap:round; stroke-linejoin:round;">
<path d="M2.0280 3.4290
L2.0300 3.4290
" />
<path d="M2.0280 5.0240
L2.0270 5.0240
" />
<path d="M2.0280 6.7500
L2.0270 6.7490
" />
<path d="M2.0280 6.7520
L2.0280 6.7500
" />
<path d="M2.0300 1.6960
L2.0310 1.6940
" />
</g>
<g style="fill:#000000; fill-opacity:1.0000; stroke:none;">
<circle cx="2.0300" cy="3.4290" r="0.0100" /> 
</g>
<g style="fill:none; 
stroke:#000000; stroke-width:0.0200; stroke-opacity:1; 
stroke-linecap:round; stroke-linejoin:round;">
<path d="M2.0300 3.4290
L2.0310 3.4300
" />
<path d="M2.0300 5.0240
L2.0280 5.0240
" />
<path d="M2.0300 6.7550
L2.0280 6.7520
" />
<path d="M2.0310 1.6920
L2.0340 1.6900
" />
<path d="M2.0310 1.6940
L2.0310 1.6920
" />
<path d="M2.0310 3.4300
L2.0320 3.4300
" />
<path d="M2.0310 5.0230
L2.0300 5.0240
" />
<path d="M2.0310 6.7570
L2.0300 6.7550
" />
<path d="M2.0310 6.7600
L2.0310 6.7570
" />
<path d="M2.0320 3.4300
L2.0350 3.4300
" />
<path d="M2.0320 5.0230
L2.0310 5.0230
" />
<path d="M2.0340 1.6900
L2.0350 1.6880
" />
<path d="M2.0340 6.7620
L2.0310 6.7600
" />
<path d="M2.0350 1.6860
L2.0380 1.6840
" />
<path d="M2.0350 1.6880
L2.0350 1.6860
" />
<path d="M2.0350 3.4300
L2.0360 3.4300
" />
<path d="M2.0350 6.7630
L2.0340 6.7620
" />
<path d="M2.0350 6.7650
L2.0350 6.7630
" />
<path d="M2.0360 3.4300
L2.0390 3.4310
" />
<path d="M2.0360 5.0210
L2.0320 5.0230
" />
<path d="M2.0380 1.6840
L2.0390 1.6820
" />
<path d="M2.0380 6.7680
L2.0350 6.7650
" />
<path d="M2.0390 1.6820
L2.0400 1.6800
" />
<path d="M2.0390 3.4310
L2.0400 3.4310
" />
<path d="M2.0390 6.7700
L2.0380 6.7680
" />
</g>
<g style="fill:#000000; fill-opacity:1.0000; stroke:none;">
<circle cx="2.0400" cy="1.6800" r="0.0100" /> 
</g>
<g style="fill:none; 
stroke:#000000; stroke-width:0.0200; stroke-opacity:1; 
stroke-linecap:round; stroke-linejoin:round;">
<path d="M2.0400 1.6800
L2.0430 1.6780
" />
<path d="M2.0400 3.4310
L2.0430 3.4320
" />
<path d="M2.0400 5.0200
L2.0360 5.0210
" />
<path d="M2.0400 6.7710
L2.0390 6.7700
" />
</g>
<g style="fill:#000000; fill-opacity:1.0000; stroke:none;">
<circle cx="2.0400" cy="6.7710" r="0.0100" /> 
</g>
<g style="fill:none; 
stroke:#000000; stroke-width:0.0200; stroke-opacity:1; 
stroke-linecap:round; stroke-linejoin:round;">
<path d="M2.0420 1.3680
L2.0240 1.3700
" />
<path d="M2.0420 7.0840
L2.0590 7.0850
" />
<path d="M2.0430 1.6780
L2.0440 1.6780
" />
<path d="M2.0430 3.4320
L2.0470 3.4320
" />
<path d="M2.0430 6.7730
L2.0400 6.7710
" />
<path d="M2.0440 1.6780
L2.0470 1.6760
" />
<path d="M2.0440 6.7740
L2.0430 6.7730
" />
<path d="M2.0470 1.6760
L2.0480 1.6740
" />
<path d="M2.0470 3.4320
L2.0500 3.4330
" />
<path d="M2.0470 5.0200
L2.0400 5.0200
" />
<path d="M2.0470 6.7760
L2.0440 6.7740
" />
<path d="M2.0480 1.6740
L2.0510 1.6740
" />
<path d="M2.0480 6.7780
L2.0470 6.7760
" />
<path d="M2.0500 3.4330
L2.0520 3.4330
" />
<path d="M2.0510 1.6740
L2.0520 1.6720
" />
<path d="M2.0510 6.7790
L2.0480 6.7780
" />
<path d="M2.0520 1.6720
L2.0550 1.6700
" />
<path d="M2.0520 3.4330
L2.5740 3.5110
" />
<path d="M2.0520 5.0190
L2.0470 5.0200
" />
<path d="M2.0520 6.7810
L2.0510 6.7790
" />
<path d="M2.0550 1.6700
L2.0560 1.6700
" />
<path d="M2.0550 6.7810
L2.0520 6.7810
" />
<path d="M2.0560 1.6700
L2.0590 1.6680
" />
<path d="M2.0560 6.7820
L2.0550 6.7810
" />
<path d="M2.0590 1.3660
L2.0420 1.3680
" />
<path d="M2.0590 1.6680
L2.0620 1.6680
" />
<path d="M2.0590 6.7840
L2.0560 6.7820
" />
<path d="M2.0590 7.0850
L2.0750 7.0850
" />
<path d="M2.0620 1.6680
L2.0630 1.6680
" />
<path d="M2.0620 6.7840
L2.0590 6.7840
" />
<path d="M2.0630 1.6680
L2.0670 1.6660
" />
<path d="M2.0630 6.7840
L2.0620 6.7840
" />
<path d="M2.0670 1.6660
L2.0680 1.6660
" />
<path d="M2.0670 6.7860
L2.0630 6.7840
" />
<path d="M2.0680 1.6660
L2.0710 1.6660
" />
<path d="M2.0680 6.7860
L2.0670 6.7860
" />
<path d="M2.0710 1.6660
L2.0740 1.6660
" />
<path d="M2.0710 6.7860
L2.0680 6.7860
" />
<path d="M2.0740 1.6660
L2.0750 1.6660
" />
<path d="M2.0740 6.7860
L2.0710 6.7860
" />
<path d="M2.0750 1.3660
L2.0590 1.3660
" />
<path d="M2.0750 1.3660
L2.7270 1.3660
" />
<path d="M2.0750 6.7870
L2.0740 6.7860
" />
<path d="M2.0750 6.7870
L2.6200 6.7870
" />
<path d="M2.5740 4.9410
L2.0520 5.0190
" />
<path d="M2.5740 4.9410
L2.5750 4.9410
" />
<path d="M2.5750 3.5110
L2.5740 3.5110
" />
</g>
<g style="fill:#000000; fill-opacity:1.0000; stroke:none;">
<circle cx="2.5750" cy="3.5110" r="0.0100" /> 
<circle cx="2.5750" cy="3.5110" r="0.0100" /> 
</g>
<g style="fill:none; 
stroke:#000000; stroke-width:0.0200; stroke-opacity:1; 
stroke-linecap:round; stroke-linejoin:round;">
<path d="M2.5750 4.9410
L2.5760 4.9410
" />
<path d="M2.5760 3.5110
L2.5750 3.5110
" />
<path d="M2.5760 4.9410
L2.5780 4.9400
" />
<path d="M2.5780 3.5110
L2.5760 3.5110
" />
<path d="M2.5780 3.5120
L2.5780 3.5110
" />
<path d="M2.5780 4.9400
L2.5790 4.9400
" />
<path d="M2.5790 3.5120
L2.5780 3.5120
" />
</g>
<g style="fill:#000000; fill-opacity:1.0000; stroke:none;">
<circle cx="2.5790" cy="3.5120" r="0.0100" /> 
<circle cx="2.5790" cy="3.5120" r="0.0100" /> 
<circle cx="2.5790" cy="3.5120" r="0.0100" /> 
<circle cx="2.5790" cy="3.5120" r="0.0100" /> 
<circle cx="2.5790" cy="3.5120" r="0.0100" /> 
<circle cx="2.5790" cy="4.9400" r="0.0100" /> 
<circle cx="2.5790" cy="4.9400" r="0.0100" /> 
<circle cx="2.5790" cy="4.9400" r="0.0100" /> 
</g>
<g style="fill:none; 
stroke:#000000; stroke-width:0.0200; stroke-opacity:1; 
stroke-linecap:round; stroke-linejoin:round;">
<path d="M2.5790 4.9400
L2.5800 4.9400
" />
<path d="M2.5800 3.5120
L2.5790 3.5120
" />
</g>
<g style="fill:#000000; fill-opacity:1.0000; stroke:none;">
<circle cx="2.5800" cy="3.5120" r="0.0100" /> 
<circle cx="2.5800" cy="3.5120" r="0.0100" /> 
<circle cx="2.5800" cy="3.5120" r="0.0100" /> 
</g>
<g style="fill:none; 
stroke:#000000; stroke-width:0.0200; stroke-opacity:1; 
stroke-linecap:round; stroke-linejoin:round;">
<path d="M2.5800 3.5130
L2.5800 3.5120
" />
</g>
<g style="fill:#000000; fill-opacity:1.0000; stroke:none;">
<circle cx="2.5800" cy="3.5130" r="0.0100" /> 
<circle cx="2.5800" cy="3.5130" r="0.0100" /> 
<circle cx="2.5800" cy="3.5130" r="0.0100" /> 
<circle cx="2.5800" cy="3.5130" r="0.0100" /> 
<circle cx="2.5800" cy="3.5130" r="0.0100" /> 
</g>
<g style="fill:none; 
stroke:#000000; stroke-width:0.0200; stroke-opacity:1; 
stroke-linecap:round; stroke-linejoin:round;">
<path d="M2.5800 4.9400
L2.5800 3.5130
" />
</g>
<g style="fill:#000000; fill-opacity:1.0000; stroke:none;">
<circle cx="2.5800" cy="4.9400" r="0.0100" /> 
<circle cx="2.5800" cy="4.9400" r="0.0100" /> 
<circle cx="2.5800" cy="4.9400" r="0.0100" /> 
<circle cx="2.5800" cy="4.9400" r="0.0100" /> 
</g>
<g style="fill:none; 
stroke:#000000; stroke-width:0.0200; stroke-opacity:1; 
stroke-linecap:round; stroke-linejoin:round;">
<path d="M2.6200 6.7900
L2.6200 6.7870
" />
</g>
<g style="fill:#000000; fill-opacity:1.0000; stroke:none;">
<circle cx="2.6200" cy="6.7900" r="0.0100" /> 
</g>
<g style="fill:none; 
stroke:#000000; stroke-width:0.0200; stroke-opacity:1; 
stroke-linecap:round; stroke-linejoin:round;">
<path d="M2.6200 6.8030
L2.6200 6.7900
" />
</g>
<g style="fill:#000000; fill-opacity:1.0000; stroke:none;">
<circle cx="2.6200" cy="6.8030" r="0.0100" /> 
</g>
<g style="fill:none; 
stroke:#000000; stroke-width:0.0200; stroke-opacity:1; 
stroke-linecap:round; stroke-linejoin:round;">
<path d="M2.6200 6.8260
L2.6200 6.8030
" />
</g>
<g style="fill:#000000; fill-opacity:1.0000; stroke:none;">
<circle cx="2.6200" cy="6.8260" r="0.0100" /> 
</g>
<g style="fill:none; 
stroke:#000000; stroke-width:0.0200; stroke-opacity:1; 
stroke-linecap:round; stroke-linejoin:round;">
<path d="M2.6200 6.8560
L2.6200 6.8260
" />
</g>
<g style="fill:#000000; fill-opacity:1.0000; stroke:none;">
<circle cx="2.6200" cy="6.8560" r="0.0100" /> 
</g>
<g style="fill:none; 
stroke:#000000; stroke-width:0.0200; stroke-opacity:1; 
stroke-linecap:round; stroke-linejoin:round;">
<path d="M2.6200 6.9380
L2.6200 6.8560
" />
</g>
<g style="fill:#000000; fill-opacity:1.0000; stroke:none;">
<circle cx="2.6200" cy="6.9380" r="0.0100" /> 
</g>
<g style="fill:none; 
stroke:#000000; stroke-width:0.0200; stroke-opacity:1; 
stroke-linecap:round; stroke-linejoin:round;">
<path d="M2.6200 6.9910
L2.6200 6.9380
" />
</g>
<g style="fill:#000000; fill-opacity:1.0000; stroke:none;">
<circle cx="2.6200" cy="6.9910" r="0.0100" /> 
</g>
<g style="fill:none; 
stroke:#000000; stroke-width:0.0200; stroke-opacity:1; 
stroke-linecap:round; stroke-linejoin:round;">
<path d="M2.6200 7.0850
L2.0750 7.0850
" />
<path d="M2.6200 7.4860
L2.6200 6.9910
" />
<path d="M2.6200 7.6770
L2.6200 7.4860
" />
<path d="M2.7270 0.7750
L13.8270 0.7750
" />
<path d="M2.7270 0.9670
L2.7270 0.7750
" />
<path d="M2.7270 0.9670
L2.7270 1.4610
" />
<path d="M2.7270 1.3660
L2.0270 1.3660
" />
</g>
<g style="fill:#000000; fill-opacity:1.0000; stroke:none;">
<circle cx="2.7270" cy="1.4610" r="0.0100" /> 
</g>
<g style="fill:none; 
stroke:#000000; stroke-width:0.0200; stroke-opacity:1; 
stroke-linecap:round; stroke-linejoin:round;">
<path d="M2.7270 1.4610
L2.7270 1.5130
" />
</g>
<g style="fill:#000000; fill-opacity:1.0000; stroke:none;">
<circle cx="2.7270" cy="1.5130" r="0.0100" /> 
</g>
<g style="fill:none; 
stroke:#000000; stroke-width:0.0200; stroke-opacity:1; 
stroke-linecap:round; stroke-linejoin:round;">
<path d="M2.7270 1.5130
L2.7270 1.5960
" />
</g>
<g style="fill:#000000; fill-opacity:1.0000; stroke:none;">
<circle cx="2.7270" cy="1.5960" r="0.0100" /> 
</g>
<g style="fill:none; 
stroke:#000000; stroke-width:0.0200; stroke-opacity:1; 
stroke-linecap:round; stroke-linejoin:round;">
<path d="M2.7270 1.5960
L2.7270 1.6260
" />
</g>
<g style="fill:#000000; fill-opacity:1.0000; stroke:none;">
<circle cx="2.7270" cy="1.6260" r="0.0100" /> 
</g>
<g style="fill:none; 
stroke:#000000; stroke-width:0.0200; stroke-opacity:1; 
stroke-linecap:round; stroke-linejoin:round;">
<path d="M2.7270 1.6260
L2.7270 1.6480
" />
</g>
<g style="fill:#000000; fill-opacity:1.0000; stroke:none;">
<circle cx="2.7270" cy="1.6480" r="0.0100" /> 
</g>
<g style="fill:none; 
stroke:#000000; stroke-width:0.0200; stroke-opacity:1; 
stroke-linecap:round; stroke-linejoin:round;">
<path d="M2.7270 1.6480
L2.7270 1.6620
" />
</g>
<g style="fill:#000000; fill-opacity:1.0000; stroke:none;">
<circle cx="2.7270" cy="1.6620" r="0.0100" /> 
</g>
<g style="fill:none; 
stroke:#000000; stroke-width:0.0200; stroke-opacity:1; 
stroke-linecap:round; stroke-linejoin:round;">
<path d="M2.7270 1.6620
L2.7270 1.6660
" />
<path d="M2.7270 1.6660
L2.0750 1.6660
" />
<path d="M2.7270 1.6660
L13.8270 1.6660
" />
<path d="M2.7500 2.0850
L3.0510 2.3850
" />
<path d="M2.7500 2.0850
L13.8020 2.0850
" />
<path d="M2.7500 3.8860
L2.7500 2.0850
" />
<path d="M2.7500 3.8860
L3.0510 3.5850
" />
<path d="M3.0510 2.3850
L3.0510 3.5850
" />
<path d="M3.0510 3.5850
L13.5010 3.5850
" />
<path d="M4.0240 6.7860
L4.0250 6.7860
" />
<path d="M4.0240 6.7870
L4.0240 6.7860
" />
<path d="M4.0250 1.6660
L4.0240 1.6660
" />
<path d="M4.0250 6.7860
L4.0260 6.7860
" />
<path d="M4.0260 1.6660
L4.0250 1.6660
" />
</g>
<g style="fill:#000000; fill-opacity:1.0000; stroke:none;">
<circle cx="4.0260" cy="6.7860" r="0.0100" /> 
</g>
<g style="fill:none; 
stroke:#000000; stroke-width:0.0200; stroke-opacity:1; 
stroke-linecap:round; stroke-linejoin:round;">
<path d="M4.0260 6.7860
L4.0270 6.7840
" />
<path d="M4.0270 1.6680
L4.0260 1.6660
" />
</g>
<g style="fill:#000000; fill-opacity:1.0000; stroke:none;">
<circle cx="4.0270" cy="6.7840" r="0.0100" /> 
</g>
<g style="fill:none; 
stroke:#000000; stroke-width:0.0200; stroke-opacity:1; 
stroke-linecap:round; stroke-linejoin:round;">
<path d="M4.0270 6.7840
L4.0280 6.7840
" />
<path d="M4.0280 1.6700
L4.0270 1.6680
" />
<path d="M4.0280 6.7820
L4.0290 6.7810
" />
<path d="M4.0280 6.7840
L4.0280 6.7820
" />
<path d="M4.0290 1.6720
L4.0280 1.6700
" />
</g>
<g style="fill:#000000; fill-opacity:1.0000; stroke:none;">
<circle cx="4.0290" cy="6.7810" r="0.0100" /> 
</g>
<g style="fill:none; 
stroke:#000000; stroke-width:0.0200; stroke-opacity:1; 
stroke-linecap:round; stroke-linejoin:round;">
<path d="M4.0290 6.7810
L4.0300 6.7790
" />
<path d="M4.0300 1.6740
L4.0290 1.6720
" />
</g>
<g style="fill:#000000; fill-opacity:1.0000; stroke:none;">
<circle cx="4.0300" cy="6.7790" r="0.0100" /> 
</g>
<g style="fill:none; 
stroke:#000000; stroke-width:0.0200; stroke-opacity:1; 
stroke-linecap:round; stroke-linejoin:round;">
<path d="M4.0300 6.7790
L4.0310 6.7780
" />
<path d="M4.0310 1.6760
L4.0300 1.6740
" />
<path d="M4.0310 6.7760
L4.0320 6.7730
" />
<path d="M4.0310 6.7780
L4.0310 6.7760
" />
<path d="M4.0320 1.6780
L4.0310 1.6760
" />
<path d="M4.0320 6.7730
L4.0330 6.7710
" />
<path d="M4.0330 1.6820
L4.0320 1.6780
" />
<path d="M4.0330 6.7710
L4.0340 6.7660
" />
<path d="M4.0340 1.6860
L4.0330 1.6820
" />
<path d="M4.0340 6.7660
L4.0350 6.7630
" />
<path d="M4.0350 6.7630
L4.0360 6.7580
" />
<path d="M4.0360 1.6940
L4.0340 1.6860
" />
<path d="M4.0360 6.7540
L4.0370 6.7490
" />
<path d="M4.0360 6.7580
L4.0360 6.7540
" />
<path d="M4.0370 1.7030
L4.0360 1.6940
" />
<path d="M4.0370 6.7490
L4.0380 6.7420
" />
<path d="M4.0380 6.7420
L4.0390 6.7360
" />
<path d="M4.0390 1.7150
L4.0370 1.7030
" />
<path d="M4.0390 1.7150
L4.0870 2.0850
" />
<path d="M4.0840 1.6660
L4.1190 1.9300
" />
<path d="M4.0960 6.2950
L4.0390 6.7360
" />
<path d="M4.0990 6.2770
L4.0960 6.2950
" />
<path d="M4.1020 6.2580
L4.0990 6.2770
" />
<path d="M4.1050 6.2420
L4.1020 6.2580
" />
<path d="M4.1070 6.2260
L4.1050 6.2420
" />
<path d="M4.1100 6.2130
L4.1070 6.2260
" />
<path d="M4.1130 6.1990
L4.1100 6.2130
" />
<path d="M4.1160 6.1870
L4.1130 6.1990
" />
<path d="M4.1190 1.9300
L4.1220 1.9500
" />
<path d="M4.1190 6.1770
L4.1160 6.1870
" />
<path d="M4.1190 6.5210
L4.0840 6.7870
" />
<path d="M4.1200 6.5120
L4.1190 6.5210
" />
<path d="M4.1220 1.9500
L4.1250 1.9680
" />
<path d="M4.1220 6.1680
L4.1190 6.1770
" />
<path d="M4.1220 6.5010
L4.1200 6.5120
" />
<path d="M4.1230 6.4920
L4.1220 6.5010
" />
<path d="M4.1240 6.1640
L4.1220 6.1680
" />
<path d="M4.1250 1.9680
L4.1280 1.9830
" />
<path d="M4.1250 6.1600
L4.1240 6.1640
" />
<path d="M4.1250 6.4840
L4.1230 6.4920
" />
<path d="M4.1260 6.4760
L4.1250 6.4840
" />
<path d="M4.1270 6.1560
L4.1250 6.1600
" />
<path d="M4.1280 1.9830
L4.1300 1.9890
" />
<path d="M4.1280 6.4690
L4.1260 6.4760
" />
<path d="M4.1290 6.1530
L4.1270 6.1560
" />
<path d="M4.1300 1.9890
L4.1310 1.9950
" />
<path d="M4.1300 6.1490
L4.1290 6.1530
" />
<path d="M4.1300 6.4640
L4.1280 6.4690
" />
<path d="M4.1310 1.9950
L4.1330 2.0000
" />
<path d="M4.1310 6.4570
L4.1300 6.4640
" />
<path d="M4.1320 6.1460
L4.1300 6.1490
" />
<path d="M4.1330 2.0000
L4.1350 2.0040
" />
<path d="M4.1330 6.1450
L4.1320 6.1460
" />
<path d="M4.1330 6.4520
L4.1310 6.4570
" />
<path d="M4.1340 6.4510
L4.1330 6.4520
" />
<path d="M4.1350 2.0040
L4.1370 2.0080
" />
<path d="M4.1350 6.1420
L4.1330 6.1450
" />
<path d="M4.1350 6.4470
L4.1350 6.4480
" />
<path d="M4.1350 6.4480
L4.1340 6.4510
" />
<path d="M4.1370 2.0080
L4.1390 2.0110
" />
<path d="M4.1370 6.4440
L4.1350 6.4470
" />
<path d="M4.1380 6.1410
L4.1350 6.1420
" />
<path d="M4.1380 6.4440
L4.1370 6.4440
" />
<path d="M4.1390 2.0110
L4.1410 2.0130
" />
<path d="M4.1390 6.1380
L4.1380 6.1410
" />
<path d="M4.1390 6.4410
L4.1380 6.4440
" />
<path d="M4.1400 6.4400
L4.1390 6.4410
" />
<path d="M4.1410 2.0130
L4.1430 2.0150
" />
<path d="M4.1410 6.1370
L4.1390 6.1380
" />
<path d="M4.1410 6.4400
L4.1400 6.4400
" />
<path d="M4.1420 6.4390
L4.1410 6.4400
" />
<path d="M4.1430 2.0150
L4.1440 2.0160
" />
<path d="M4.1430 6.1370
L4.1410 6.1370
" />
<path d="M4.1430 6.4380
L4.1420 6.4390
" />
<path d="M4.1440 2.0160
L4.1460 2.0170
" />
<path d="M4.1440 6.4360
L4.1430 6.4380
" />
</g>
<g style="fill:#000000; fill-opacity:1.0000; stroke:none;">
<circle cx="4.1440" cy="6.4360" r="0.0100" /> 
</g>
<g style="fill:none; 
stroke:#000000; stroke-width:0.0200; stroke-opacity:1; 
stroke-linecap:round; stroke-linejoin:round;">
<path d="M4.1450 6.1370
L4.1430 6.1370
" />
<path d="M4.1450 6.4350
L4.1440 6.4360
" />
<path d="M4.1460 2.0170
L4.1470 2.0170
" />
<path d="M4.1460 6.1360
L4.1450 6.1370
" />
<path d="M4.1460 6.4350
L4.1450 6.4350
" />
<path d="M4.1470 2.0170
L4.1480 2.0160
" />
<path d="M4.1480 2.0160
L4.1490 2.0160
" />
<path d="M4.1480 6.4360
L4.1460 6.4350
" />
<path d="M4.1490 2.0160
L4.1500 2.0160
" />
<path d="M4.1490 6.1370
L4.1460 6.1360
" />
<path d="M4.1500 2.0150
L4.1510 2.0140
" />
<path d="M4.1500 2.0160
L4.1500 2.0150
" />
<path d="M4.1500 6.4360
L4.1480 6.4360
" />
<path d="M4.1510 2.0140
L4.1520 2.0130
" />
<path d="M4.1510 6.4390
L4.1500 6.4360
" />
<path d="M4.1520 2.0130
L4.1530 2.0120
" />
<path d="M4.1520 6.1380
L4.1490 6.1370
" />
<path d="M4.1530 2.0110
L4.1540 2.0100
" />
<path d="M4.1530 2.0120
L4.1530 2.0110
" />
<path d="M4.1530 6.4400
L4.1510 6.4390
" />
<path d="M4.1540 2.0100
L4.1550 2.0080
" />
<path d="M4.1540 6.4430
L4.1530 6.4400
" />
<path d="M4.1550 2.0080
L4.1560 2.0070
" />
<path d="M4.1550 6.1410
L4.1520 6.1380
" />
<path d="M4.1560 2.0070
L4.1570 2.0050
" />
<path d="M4.1560 6.4450
L4.1540 6.4430
" />
<path d="M4.1570 2.0030
L4.1580 2.0010
" />
<path d="M4.1570 2.0050
L4.1570 2.0030
" />
<path d="M4.1570 6.4490
L4.1560 6.4450
" />
<path d="M4.1580 2.0010
L4.1590 1.9990
" />
<path d="M4.1580 6.1450
L4.1550 6.1410
" />
<path d="M4.1590 1.9990
L4.1600 1.9950
" />
<path d="M4.1590 6.4530
L4.1570 6.4490
" />
<path d="M4.1600 1.9950
L4.1620 1.9900
" />
<path d="M4.1600 6.4570
L4.1590 6.4530
" />
<path d="M4.1610 6.1490
L4.1580 6.1450
" />
<path d="M4.1620 1.9900
L4.1630 1.9840
" />
<path d="M4.1620 6.4630
L4.1600 6.4570
" />
<path d="M4.1630 1.9840
L4.1650 1.9780
" />
<path d="M4.1630 6.4680
L4.1620 6.4630
" />
<path d="M4.1640 6.1540
L4.1610 6.1490
" />
<path d="M4.1650 1.9780
L4.1660 1.9720
" />
<path d="M4.1650 6.4750
L4.1630 6.4680
" />
<path d="M4.1660 1.9720
L4.1670 1.9650
" />
<path d="M4.1670 1.9650
L4.1690 1.9560
" />
<path d="M4.1670 6.1610
L4.1640 6.1540
" />
<path d="M4.1670 6.4880
L4.1650 6.4750
" />
<path d="M4.1690 1.9560
L4.1700 1.9480
" />
<path d="M4.1690 6.1680
L4.1670 6.1610
" />
<path d="M4.1700 1.9480
L4.2130 1.6660
" />
<path d="M4.1700 6.5040
L4.1670 6.4880
" />
<path d="M4.1720 6.1770
L4.1690 6.1680
" />
<path d="M4.1750 6.1860
L4.1720 6.1770
" />
<path d="M4.1780 6.1950
L4.1750 6.1860
" />
<path d="M4.1800 6.2060
L4.1780 6.1950
" />
<path d="M4.1850 6.2330
L4.1800 6.2060
" />
<path d="M4.1900 6.2610
L4.1850 6.2330
" />
<path d="M4.2060 2.0850
L4.2560 1.7660
" />
<path d="M4.2130 6.7870
L4.1700 6.5040
" />
<path d="M4.2560 1.7660
L4.2570 1.7620
" />
<path d="M4.2560 6.6860
L4.1900 6.2610
" />
<path d="M4.2570 1.7620
L4.2580 1.7580
" />
<path d="M4.2570 6.6900
L4.2560 6.6860
" />
<path d="M4.2580 1.7580
L4.2590 1.7540
" />
<path d="M4.2580 6.6940
L4.2570 6.6900
" />
<path d="M4.2590 1.7540
L4.2610 1.7500
" />
<path d="M4.2590 6.6980
L4.2580 6.6940
" />
<path d="M4.2610 1.7500
L4.2620 1.7460
" />
<path d="M4.2610 6.7020
L4.2590 6.6980
" />
<path d="M4.2620 1.7460
L4.2650 1.7420
" />
<path d="M4.2650 1.7420
L4.2680 1.7380
" />
<path d="M4.2650 6.7100
L4.2610 6.7020
" />
<path d="M4.2680 1.7380
L4.2700 1.7340
" />
<path d="M4.2700 1.7340
L4.2730 1.7300
" />
<path d="M4.2700 6.7180
L4.2650 6.7100
" />
<path d="M4.2730 1.7300
L4.2760 1.7250
" />
<path d="M4.2760 1.7250
L4.2790 1.7230
" />
<path d="M4.2760 6.7260
L4.2700 6.7180
" />
<path d="M4.2790 1.7230
L4.2820 1.7190
" />
<path d="M4.2820 1.7190
L4.2850 1.7150
" />
<path d="M4.2820 6.7330
L4.2760 6.7260
" />
<path d="M4.2850 1.7150
L4.2890 1.7110
" />
<path d="M4.2890 1.7110
L4.2930 1.7090
" />
<path d="M4.2890 6.7410
L4.2820 6.7330
" />
<path d="M4.2930 1.7090
L4.2970 1.7050
" />
<path d="M4.2970 1.7050
L4.3000 1.7020
" />
<path d="M4.2970 6.7470
L4.2890 6.7410
" />
<path d="M4.3000 1.7020
L4.3050 1.6980
" />
<path d="M4.3000 4.6430
L4.3000 3.8860
" />
<path d="M4.3000 4.6430
L4.3000 4.8600
" />
<path d="M4.3000 4.8600
L4.3000 5.1250
" />
<path d="M4.3000 5.1250
L5.2520 5.1250
" />
<path d="M4.3050 1.6980
L4.3100 1.6960
" />
<path d="M4.3050 6.7540
L4.2970 6.7470
" />
<path d="M4.3100 1.6960
L4.3140 1.6920
" />
<path d="M4.3140 1.6920
L4.3190 1.6900
" />
<path d="M4.3140 6.7600
L4.3050 6.7540
" />
<path d="M4.3190 1.6900
L4.3250 1.6880
" />
<path d="M4.3250 1.6880
L4.3360 1.6820
" />
<path d="M4.3250 6.7650
L4.3140 6.7600
" />
<path d="M4.3360 1.6820
L4.3480 1.6780
" />
<path d="M4.3360 6.7710
L4.3250 6.7650
" />
<path d="M4.3480 1.6780
L4.3600 1.6720
" />
<path d="M4.3480 6.7740
L4.3360 6.7710
" />
<path d="M4.3600 1.6720
L4.3710 1.6700
" />
<path d="M4.3600 6.7790
L4.3480 6.7740
" />
<path d="M4.3710 1.6700
L4.3840 1.6660
" />
<path d="M4.3710 6.7820
L4.3600 6.7790
" />
<path d="M4.3840 6.7870
L4.3710 6.7820
" />
<path d="M5.2520 4.6430
L5.2520 3.8860
" />
<path d="M5.2520 4.6430
L5.2520 4.8600
" />
<path d="M5.2520 4.8600
L4.3000 4.8600
" />
<path d="M5.2520 5.1250
L5.2520 4.8600
" />
<path d="M5.9620 1.6660
L5.9760 1.6700
" />
<path d="M5.9760 1.6700
L5.9880 1.6720
" />
<path d="M5.9760 6.7820
L5.9620 6.7870
" />
<path d="M5.9880 1.6720
L6.0000 1.6780
" />
<path d="M5.9880 6.7790
L5.9760 6.7820
" />
<path d="M6.0000 1.6780
L6.0120 1.6820
" />
<path d="M6.0000 6.7740
L5.9880 6.7790
" />
<path d="M6.0120 1.6820
L6.0220 1.6880
" />
<path d="M6.0120 6.7710
L6.0000 6.7740
" />
<path d="M6.0220 1.6880
L6.0320 1.6920
" />
<path d="M6.0220 6.7650
L6.0120 6.7710
" />
<path d="M6.0280 6.7630
L6.0220 6.7650
" />
<path d="M6.0320 1.6920
L6.0420 1.6980
" />
<path d="M6.0320 6.7600
L6.0280 6.7630
" />
<path d="M6.0360 6.7570
L6.0320 6.7600
" />
<path d="M6.0420 1.6980
L6.0500 1.7050
" />
<path d="M6.0420 6.7540
L6.0360 6.7570
" />
<path d="M6.0460 6.7500
L6.0420 6.7540
" />
<path d="M6.0500 1.7050
L6.0590 1.7110
" />
<path d="M6.0500 6.7470
L6.0460 6.7500
" />
<path d="M6.0540 6.7440
L6.0500 6.7470
" />
<path d="M6.0590 1.7110
L6.0650 1.7190
" />
<path d="M6.0590 6.7410
L6.0540 6.7440
" />
<path d="M6.0630 6.7360
L6.0590 6.7410
" />
<path d="M6.0650 1.7190
L6.0710 1.7250
" />
<path d="M6.0650 6.7330
L6.0630 6.7360
" />
<path d="M6.0690 6.7300
L6.0650 6.7330
" />
<path d="M6.0710 1.7250
L6.0770 1.7340
" />
<path d="M6.0710 6.7260
L6.0690 6.7300
" />
<path d="M6.0750 6.7220
L6.0710 6.7260
" />
<path d="M6.0770 1.7340
L6.0830 1.7420
" />
<path d="M6.0770 6.7180
L6.0750 6.7220
" />
<path d="M6.0790 6.7140
L6.0770 6.7180
" />
<path d="M6.0830 1.7420
L6.0850 1.7500
" />
<path d="M6.0830 6.7100
L6.0790 6.7140
" />
<path d="M6.0850 1.7500
L6.0870 1.7540
" />
<path d="M6.0850 6.7020
L6.0850 6.7060
" />
<path d="M6.0850 6.7060
L6.0830 6.7100
" />
<path d="M6.0870 1.7540
L6.0890 1.7580
" />
<path d="M6.0870 6.6980
L6.0850 6.7020
" />
<path d="M6.0890 1.7580
L6.0890 1.7620
" />
<path d="M6.0890 1.7620
L6.0910 1.7660
" />
<path d="M6.0890 6.6900
L6.0890 6.6940
" />
<path d="M6.0890 6.6940
L6.0870 6.6980
" />
<path d="M6.0910 1.7660
L6.1410 2.0850
" />
<path d="M6.0910 6.6860
L6.0890 6.6900
" />
<path d="M6.1330 1.6660
L6.1770 1.9480
" />
<path d="M6.1570 6.2610
L6.0910 6.6860
" />
<path d="M6.1590 6.2460
L6.1570 6.2610
" />
<path d="M6.1630 6.2330
L6.1590 6.2460
" />
<path d="M6.1650 6.2180
L6.1630 6.2330
" />
<path d="M6.1670 6.2060
L6.1650 6.2180
" />
<path d="M6.1690 6.1950
L6.1670 6.2060
" />
<path d="M6.1730 6.1860
L6.1690 6.1950
" />
<path d="M6.1750 6.1770
L6.1730 6.1860
" />
<path d="M6.1770 1.9480
L6.1810 1.9650
" />
<path d="M6.1770 6.5040
L6.1330 6.7870
" />
<path d="M6.1790 6.1650
L6.1790 6.1680
" />
<path d="M6.1790 6.1680
L6.1750 6.1770
" />
<path d="M6.1790 6.4960
L6.1770 6.5040
" />
<path d="M6.1810 1.9650
L6.1830 1.9780
" />
<path d="M6.1810 6.1610
L6.1790 6.1650
" />
<path d="M6.1810 6.4800
L6.1810 6.4880
" />
<path d="M6.1810 6.4880
L6.1790 6.4960
" />
<path d="M6.1830 1.9780
L6.1840 1.9840
" />
<path d="M6.1830 6.1540
L6.1830 6.1570
" />
<path d="M6.1830 6.1570
L6.1810 6.1610
" />
<path d="M6.1830 6.4750
L6.1810 6.4800
" />
<path d="M6.1840 1.9840
L6.1860 1.9900
" />
<path d="M6.1840 6.4680
L6.1830 6.4750
" />
<path d="M6.1860 1.9900
L6.1880 1.9950
" />
<path d="M6.1860 6.1490
L6.1860 6.1520
" />
<path d="M6.1860 6.1520
L6.1830 6.1540
" />
<path d="M6.1860 6.4630
L6.1840 6.4680
" />
<path d="M6.1880 1.9950
L6.1880 1.9990
" />
<path d="M6.1880 1.9990
L6.1900 2.0030
" />
<path d="M6.1880 6.1460
L6.1860 6.1490
" />
<path d="M6.1880 6.4530
L6.1880 6.4570
" />
<path d="M6.1880 6.4570
L6.1860 6.4630
" />
<path d="M6.1900 2.0030
L6.1920 2.0070
" />
<path d="M6.1900 6.1420
L6.1900 6.1450
" />
<path d="M6.1900 6.1450
L6.1880 6.1460
" />
<path d="M6.1900 6.4480
L6.1900 6.4490
" />
<path d="M6.1900 6.4490
L6.1900 6.4520
" />
<path d="M6.1900 6.4520
L6.1880 6.4530
" />
<path d="M6.1920 2.0070
L6.1940 2.0100
" />
<path d="M6.1920 6.1410
L6.1900 6.1420
" />
<path d="M6.1920 6.4440
L6.1920 6.4450
" />
<path d="M6.1920 6.4450
L6.1900 6.4480
" />
<path d="M6.1940 2.0100
L6.1940 2.0120
" />
<path d="M6.1940 2.0120
L6.1960 2.0140
" />
<path d="M6.1940 6.1400
L6.1920 6.1410
" />
<path d="M6.1940 6.4400
L6.1940 6.4410
" />
<path d="M6.1940 6.4410
L6.1940 6.4430
" />
<path d="M6.1940 6.4430
L6.1920 6.4440
" />
<path d="M6.1960 2.0140
L6.1980 2.0160
" />
<path d="M6.1960 6.1370
L6.1960 6.1380
" />
<path d="M6.1960 6.1380
L6.1940 6.1400
" />
<path d="M6.1960 6.4390
L6.1960 6.4400
" />
<path d="M6.1960 6.4400
L6.1940 6.4400
" />
<path d="M6.1980 2.0160
L6.2000 2.0160
" />
<path d="M6.1980 6.1370
L6.1960 6.1370
" />
</g>
<g style="fill:#000000; fill-opacity:1.0000; stroke:none;">
<circle cx="6.1980" cy="6.4360" r="0.0100" /> 
</g>
<g style="fill:none; 
stroke:#000000; stroke-width:0.0200; stroke-opacity:1; 
stroke-linecap:round; stroke-linejoin:round;">
<path d="M6.1980 6.4360
L6.1980 6.4380
" />
<path d="M6.1980 6.4380
L6.1960 6.4390
" />
<path d="M6.2000 2.0160
L6.2020 2.0170
" />
<path d="M6.2000 6.1360
L6.1980 6.1370
" />
<path d="M6.2000 6.4350
L6.2000 6.4360
" />
<path d="M6.2000 6.4360
L6.1980 6.4360
" />
</g>
<g style="fill:#000000; fill-opacity:1.0000; stroke:none;">
<circle cx="6.2020" cy="2.0170" r="0.0100" /> 
</g>
<g style="fill:none; 
stroke:#000000; stroke-width:0.0200; stroke-opacity:1; 
stroke-linecap:round; stroke-linejoin:round;">
<path d="M6.2020 2.0170
L6.2040 2.0160
" />
<path d="M6.2020 6.1360
L4.1460 6.1360
" />
<path d="M6.2020 6.1360
L6.2000 6.1360
" />
<path d="M6.2020 6.4350
L6.2000 6.4350
" />
<path d="M6.2040 2.0150
L6.2060 2.0140
" />
<path d="M6.2040 2.0160
L6.2040 2.0150
" />
</g>
<g style="fill:#000000; fill-opacity:1.0000; stroke:none;">
<circle cx="6.2040" cy="2.0160" r="0.0100" /> 
</g>
<g style="fill:none; 
stroke:#000000; stroke-width:0.0200; stroke-opacity:1; 
stroke-linecap:round; stroke-linejoin:round;">
<path d="M6.2040 6.1370
L6.2020 6.1360
" />
<path d="M6.2040 6.4360
L6.2020 6.4350
" />
<path d="M6.2040 6.4380
L6.2040 6.4360
" />
<path d="M6.2060 2.0130
L6.2080 2.0120
" />
<path d="M6.2060 2.0140
L6.2060 2.0130
" />
<path d="M6.2060 6.4400
L6.2040 6.4380
" />
<path d="M6.2080 2.0110
L6.2100 2.0090
" />
<path d="M6.2080 2.0120
L6.2080 2.0110
" />
<path d="M6.2080 6.1380
L6.2040 6.1370
" />
<path d="M6.2080 6.4410
L6.2060 6.4400
" />
<path d="M6.2100 2.0080
L6.2120 2.0060
" />
<path d="M6.2100 2.0090
L6.2100 2.0080
" />
<path d="M6.2100 6.4440
L6.2080 6.4410
" />
<path d="M6.2120 2.0020
L6.2140 2.0000
" />
<path d="M6.2120 2.0040
L6.2120 2.0020
" />
<path d="M6.2120 2.0060
L6.2120 2.0040
" />
<path d="M6.2120 6.1420
L6.2080 6.1380
" />
<path d="M6.2120 6.4480
L6.2100 6.4440
" />
<path d="M6.2140 2.0000
L6.2160 1.9950
" />
<path d="M6.2140 6.1460
L6.2120 6.1420
" />
<path d="M6.2140 6.4520
L6.2120 6.4480
" />
<path d="M6.2160 1.9890
L6.2180 1.9830
" />
<path d="M6.2160 1.9950
L6.2160 1.9890
" />
<path d="M6.2160 6.4570
L6.2140 6.4520
" />
<path d="M6.2160 6.4640
L6.2160 6.4570
" />
<path d="M6.2180 1.9830
L6.2200 1.9760
" />
<path d="M6.2180 6.1530
L6.2140 6.1460
" />
<path d="M6.2180 6.4690
L6.2160 6.4640
" />
<path d="M6.2200 1.9760
L6.2220 1.9680
" />
<path d="M6.2220 1.9680
L6.2240 1.9600
" />
<path d="M6.2220 6.1600
L6.2180 6.1530
" />
<path d="M6.2220 6.4840
L6.2180 6.4690
" />
<path d="M6.2240 1.9500
L6.2260 1.9400
" />
<path d="M6.2240 1.9600
L6.2240 1.9500
" />
<path d="M6.2240 6.1680
L6.2220 6.1600
" />
<path d="M6.2240 6.5010
L6.2220 6.4840
" />
<path d="M6.2260 1.9400
L6.2280 1.9300
" />
<path d="M6.2280 1.9300
L6.2620 1.6660
" />
<path d="M6.2280 6.1770
L6.2240 6.1680
" />
<path d="M6.2280 6.5210
L6.2240 6.5010
" />
<path d="M6.2300 6.1870
L6.2280 6.1770
" />
<path d="M6.2340 6.1990
L6.2300 6.1870
" />
<path d="M6.2400 6.2260
L6.2340 6.1990
" />
<path d="M6.2440 6.2580
L6.2400 6.2260
" />
<path d="M6.2500 6.2950
L6.2440 6.2580
" />
<path d="M6.2600 2.0850
L6.3080 1.7150
" />
<path d="M6.2620 6.7870
L6.2280 6.5210
" />
<path d="M6.2760 7.6770
L6.2760 7.9270
" />
<path d="M6.2760 7.9270
L2.0270 7.9270
" />
<path d="M6.3080 6.7360
L6.2500 6.2950
" />
<path d="M6.3080 6.7360
L6.3100 6.7490
" />
<path d="M6.3100 1.7030
L6.3100 1.7090
" />
<path d="M6.3100 1.7090
L6.3080 1.7150
" />
<path d="M6.3100 6.7490
L6.3120 6.7580
" />
<path d="M6.3120 1.6940
L6.3120 1.6980
" />
<path d="M6.3120 1.6980
L6.3100 1.7030
" />
<path d="M6.3120 6.7580
L6.3130 6.7660
" />
<path d="M6.3130 1.6860
L6.3130 1.6900
" />
<path d="M6.3130 1.6900
L6.3120 1.6940
" />
<path d="M6.3130 6.7660
L6.3150 6.7710
" />
<path d="M6.3150 1.6780
L6.3150 1.6820
" />
<path d="M6.3150 1.6820
L6.3130 1.6860
" />
<path d="M6.3150 6.7710
L6.3150 6.7730
" />
<path d="M6.3150 6.7730
L6.3170 6.7760
" />
<path d="M6.3170 1.6720
L6.3170 1.6740
" />
</g>
<g style="fill:#000000; fill-opacity:1.0000; stroke:none;">
<circle cx="6.3170" cy="1.6740" r="0.0100" /> 
</g>
<g style="fill:none; 
stroke:#000000; stroke-width:0.0200; stroke-opacity:1; 
stroke-linecap:round; stroke-linejoin:round;">
<path d="M6.3170 1.6740
L6.3170 1.6760
" />
<path d="M6.3170 1.6760
L6.3150 1.6780
" />
<path d="M6.3170 6.7760
L6.3170 6.7790
" />
<path d="M6.3170 6.7790
L6.3190 6.7810
" />
<path d="M6.3190 1.6680
L6.3190 1.6700
" />
</g>
<g style="fill:#000000; fill-opacity:1.0000; stroke:none;">
<circle cx="6.3190" cy="1.6700" r="0.0100" /> 
</g>
<g style="fill:none; 
stroke:#000000; stroke-width:0.0200; stroke-opacity:1; 
stroke-linecap:round; stroke-linejoin:round;">
<path d="M6.3190 1.6700
L6.3190 1.6720
" />
<path d="M6.3190 1.6720
L6.3170 1.6720
" />
<path d="M6.3190 6.7810
L6.3190 6.7820
" />
<path d="M6.3190 6.7820
L6.3210 6.7840
" />
</g>
<g style="fill:#000000; fill-opacity:1.0000; stroke:none;">
<circle cx="6.3210" cy="1.6660" r="0.0100" /> 
</g>
<g style="fill:none; 
stroke:#000000; stroke-width:0.0200; stroke-opacity:1; 
stroke-linecap:round; stroke-linejoin:round;">
<path d="M6.3210 1.6660
L6.3210 1.6680
" />
<path d="M6.3210 1.6680
L6.3190 1.6680
" />
</g>
<g style="fill:#000000; fill-opacity:1.0000; stroke:none;">
<circle cx="6.3210" cy="1.6680" r="0.0100" /> 
</g>
<g style="fill:none; 
stroke:#000000; stroke-width:0.0200; stroke-opacity:1; 
stroke-linecap:round; stroke-linejoin:round;">
<path d="M6.3210 6.7840
L6.3210 6.7860
" />
<path d="M6.3210 6.7860
L6.3230 6.7860
" />
<path d="M6.3230 1.6660
L6.3210 1.6660
" />
</g>
<g style="fill:#000000; fill-opacity:1.0000; stroke:none;">
<circle cx="6.3230" cy="1.6660" r="0.0100" /> 
<circle cx="6.3230" cy="1.6660" r="0.0100" /> 
</g>
<g style="fill:none; 
stroke:#000000; stroke-width:0.0200; stroke-opacity:1; 
stroke-linecap:round; stroke-linejoin:round;">
<path d="M6.3230 6.7860
L6.3230 6.7870
" />
<path d="M6.6750 0.5250
L6.6750 0.7750
" />
<path d="M6.8000 4.6430
L6.8000 3.8860
" />
<path d="M6.8000 4.6430
L6.8000 4.8600
" />
<path d="M6.8000 4.8600
L6.8000 5.1250
" />
<path d="M6.8000 5.1250
L7.7520 5.1250
" />
<path d="M7.7520 4.6430
L7.7520 3.8860
" />
<path d="M7.7520 4.6430
L7.7520 4.8600
" />
<path d="M7.7520 4.8600
L6.8000 4.8600
" />
<path d="M7.7520 5.1250
L7.7520 4.8600
" />
<path d="M8.2720 6.7870
L2.6200 6.7870
" />
<path d="M8.2720 6.7900
L8.2720 6.7870
" />
</g>
<g style="fill:#000000; fill-opacity:1.0000; stroke:none;">
<circle cx="8.2720" cy="6.7900" r="0.0100" /> 
</g>
<g style="fill:none; 
stroke:#000000; stroke-width:0.0200; stroke-opacity:1; 
stroke-linecap:round; stroke-linejoin:round;">
<path d="M8.2720 6.8030
L8.2720 6.7900
" />
</g>
<g style="fill:#000000; fill-opacity:1.0000; stroke:none;">
<circle cx="8.2720" cy="6.8030" r="0.0100" /> 
</g>
<g style="fill:none; 
stroke:#000000; stroke-width:0.0200; stroke-opacity:1; 
stroke-linecap:round; stroke-linejoin:round;">
<path d="M8.2720 6.8260
L8.2720 6.8030
" />
</g>
<g style="fill:#000000; fill-opacity:1.0000; stroke:none;">
<circle cx="8.2720" cy="6.8260" r="0.0100" /> 
</g>
<g style="fill:none; 
stroke:#000000; stroke-width:0.0200; stroke-opacity:1; 
stroke-linecap:round; stroke-linejoin:round;">
<path d="M8.2720 6.8560
L8.2720 6.8260
" />
</g>
<g style="fill:#000000; fill-opacity:1.0000; stroke:none;">
<circle cx="8.2720" cy="6.8560" r="0.0100" /> 
</g>
<g style="fill:none; 
stroke:#000000; stroke-width:0.0200; stroke-opacity:1; 
stroke-linecap:round; stroke-linejoin:round;">
<path d="M8.2720 6.9380
L8.2720 6.8560
" />
</g>
<g style="fill:#000000; fill-opacity:1.0000; stroke:none;">
<circle cx="8.2720" cy="6.9380" r="0.0100" /> 
</g>
<g style="fill:none; 
stroke:#000000; stroke-width:0.0200; stroke-opacity:1; 
stroke-linecap:round; stroke-linejoin:round;">
<path d="M8.2720 6.9910
L8.2720 6.9380
" />
</g>
<g style="fill:#000000; fill-opacity:1.0000; stroke:none;">
<circle cx="8.2720" cy="6.9910" r="0.0100" /> 
</g>
<g style="fill:none; 
stroke:#000000; stroke-width:0.0200; stroke-opacity:1; 
stroke-linecap:round; stroke-linejoin:round;">
<path d="M8.2720 7.4860
L8.2720 6.9910
" />
<path d="M8.2720 7.6770
L2.6200 7.6770
" />
<path d="M8.2720 7.6770
L8.2720 7.4860
" />
<path d="M8.2800 6.7870
L8.2720 6.7870
" />
<path d="M8.2800 6.7870
L8.2800 6.7900
" />
<path d="M8.2800 6.7870
L13.9310 6.7870
" />
</g>
<g style="fill:#000000; fill-opacity:1.0000; stroke:none;">
<circle cx="8.2800" cy="6.7900" r="0.0100" /> 
</g>
<g style="fill:none; 
stroke:#000000; stroke-width:0.0200; stroke-opacity:1; 
stroke-linecap:round; stroke-linejoin:round;">
<path d="M8.2800 6.7900
L8.2800 6.8030
" />
</g>
<g style="fill:#000000; fill-opacity:1.0000; stroke:none;">
<circle cx="8.2800" cy="6.8030" r="0.0100" /> 
</g>
<g style="fill:none; 
stroke:#000000; stroke-width:0.0200; stroke-opacity:1; 
stroke-linecap:round; stroke-linejoin:round;">
<path d="M8.2800 6.8030
L8.2800 6.8260
" />
</g>
<g style="fill:#000000; fill-opacity:1.0000; stroke:none;">
<circle cx="8.2800" cy="6.8260" r="0.0100" /> 
</g>
<g style="fill:none; 
stroke:#000000; stroke-width:0.0200; stroke-opacity:1; 
stroke-linecap:round; stroke-linejoin:round;">
<path d="M8.2800 6.8260
L8.2800 6.8930
" />
</g>
<g style="fill:#000000; fill-opacity:1.0000; stroke:none;">
<circle cx="8.2800" cy="6.8930" r="0.0100" /> 
</g>
<g style="fill:none; 
stroke:#000000; stroke-width:0.0200; stroke-opacity:1; 
stroke-linecap:round; stroke-linejoin:round;">
<path d="M8.2800 6.8930
L8.2800 6.9910
" />
</g>
<g style="fill:#000000; fill-opacity:1.0000; stroke:none;">
<circle cx="8.2800" cy="6.9910" r="0.0100" /> 
</g>
<g style="fill:none; 
stroke:#000000; stroke-width:0.0200; stroke-opacity:1; 
stroke-linecap:round; stroke-linejoin:round;">
<path d="M8.2800 6.9910
L8.2800 7.4860
" />
<path d="M8.2800 7.4860
L8.2800 7.6770
" />
<path d="M8.2800 7.6770
L13.9310 7.6770
" />
<path d="M8.8020 4.6430
L8.8020 3.8860
" />
<path d="M8.8020 4.6430
L8.8020 4.8600
" />
<path d="M8.8020 4.8600
L8.8020 5.1250
" />
<path d="M8.8020 5.1250
L9.7510 5.1250
" />
<path d="M9.7510 4.6430
L9.7510 3.8860
" />
<path d="M9.7510 4.6430
L9.7510 4.8600
" />
<path d="M9.7510 4.8600
L8.8020 4.8600
" />
<path d="M9.7510 5.1250
L9.7510 4.8600
" />
<path d="M9.8760 0.5250
L14.5260 0.5250
" />
<path d="M9.8760 0.7750
L9.8760 0.5250
" />
<path d="M10.2280 6.7860
L10.2300 6.7860
" />
<path d="M10.2280 6.7870
L10.2280 6.7860
" />
<path d="M10.2300 1.6660
L10.2280 1.6660
" />
</g>
<g style="fill:#000000; fill-opacity:1.0000; stroke:none;">
<circle cx="10.2300" cy="1.6660" r="0.0100" /> 
<circle cx="10.2300" cy="6.7860" r="0.0100" /> 
<circle cx="10.2300" cy="6.7860" r="0.0100" /> 
</g>
<g style="fill:none; 
stroke:#000000; stroke-width:0.0200; stroke-opacity:1; 
stroke-linecap:round; stroke-linejoin:round;">
<path d="M10.2300 6.7860
L10.2310 6.7840
" />
<path d="M10.2310 1.6680
L10.2300 1.6660
" />
</g>
<g style="fill:#000000; fill-opacity:1.0000; stroke:none;">
<circle cx="10.2310" cy="6.7840" r="0.0100" /> 
</g>
<g style="fill:none; 
stroke:#000000; stroke-width:0.0200; stroke-opacity:1; 
stroke-linecap:round; stroke-linejoin:round;">
<path d="M10.2310 6.7840
L10.2330 6.7840
" />
<path d="M10.2330 1.6700
L10.2310 1.6680
" />
<path d="M10.2330 1.6720
L10.2330 1.6700
" />
</g>
<g style="fill:#000000; fill-opacity:1.0000; stroke:none;">
<circle cx="10.2330" cy="6.7810" r="0.0100" /> 
</g>
<g style="fill:none; 
stroke:#000000; stroke-width:0.0200; stroke-opacity:1; 
stroke-linecap:round; stroke-linejoin:round;">
<path d="M10.2330 6.7810
L10.2350 6.7790
" />
<path d="M10.2330 6.7820
L10.2330 6.7810
" />
<path d="M10.2330 6.7840
L10.2330 6.7820
" />
<path d="M10.2350 1.6740
L10.2330 1.6720
" />
</g>
<g style="fill:#000000; fill-opacity:1.0000; stroke:none;">
<circle cx="10.2350" cy="6.7790" r="0.0100" /> 
</g>
<g style="fill:none; 
stroke:#000000; stroke-width:0.0200; stroke-opacity:1; 
stroke-linecap:round; stroke-linejoin:round;">
<path d="M10.2350 6.7790
L10.2360 6.7780
" />
<path d="M10.2360 1.6760
L10.2350 1.6740
" />
<path d="M10.2360 1.6780
L10.2360 1.6760
" />
<path d="M10.2360 6.7730
L10.2380 6.7710
" />
<path d="M10.2360 6.7760
L10.2360 6.7730
" />
<path d="M10.2360 6.7780
L10.2360 6.7760
" />
<path d="M10.2380 1.6820
L10.2360 1.6780
" />
<path d="M10.2380 1.6860
L10.2380 1.6820
" />
<path d="M10.2380 6.7660
L10.2390 6.7630
" />
<path d="M10.2380 6.7710
L10.2380 6.7660
" />
<path d="M10.2390 6.7630
L10.2410 6.7580
" />
<path d="M10.2410 1.6940
L10.2380 1.6860
" />
<path d="M10.2410 1.7030
L10.2410 1.6940
" />
<path d="M10.2410 6.7490
L10.2430 6.7420
" />
<path d="M10.2410 6.7540
L10.2410 6.7490
" />
<path d="M10.2410 6.7580
L10.2410 6.7540
" />
<path d="M10.2430 6.7420
L10.2440 6.7360
" />
<path d="M10.2440 1.7150
L10.2410 1.7030
" />
<path d="M10.2440 1.7150
L10.2920 2.0850
" />
<path d="M10.2760 7.9270
L10.2760 7.6770
" />
<path d="M10.2890 1.6660
L10.3240 1.9300
" />
<path d="M10.3020 6.2950
L10.2440 6.7360
" />
<path d="M10.3050 6.2770
L10.3020 6.2950
" />
<path d="M10.3070 6.2580
L10.3050 6.2770
" />
<path d="M10.3100 6.2420
L10.3070 6.2580
" />
<path d="M10.3130 6.2260
L10.3100 6.2420
" />
<path d="M10.3150 6.2130
L10.3130 6.2260
" />
<path d="M10.3180 6.1990
L10.3150 6.2130
" />
<path d="M10.3210 6.1870
L10.3180 6.1990
" />
<path d="M10.3240 1.9300
L10.3280 1.9500
" />
<path d="M10.3240 6.1770
L10.3210 6.1870
" />
<path d="M10.3240 6.5210
L10.2890 6.7870
" />
<path d="M10.3260 6.5120
L10.3240 6.5210
" />
<path d="M10.3280 1.9500
L10.3310 1.9680
" />
<path d="M10.3280 6.1680
L10.3240 6.1770
" />
<path d="M10.3280 6.5010
L10.3260 6.5120
" />
<path d="M10.3290 6.1640
L10.3280 6.1680
" />
<path d="M10.3290 6.4920
L10.3280 6.5010
" />
<path d="M10.3310 1.9680
L10.3340 1.9830
" />
<path d="M10.3310 6.1600
L10.3290 6.1640
" />
<path d="M10.3310 6.4760
L10.3310 6.4840
" />
<path d="M10.3310 6.4840
L10.3290 6.4920
" />
<path d="M10.3320 6.1560
L10.3310 6.1600
" />
<path d="M10.3340 1.9830
L10.3360 1.9890
" />
<path d="M10.3340 6.1530
L10.3320 6.1560
" />
<path d="M10.3340 6.4690
L10.3310 6.4760
" />
<path d="M10.3360 1.9890
L10.3370 1.9950
" />
<path d="M10.3360 6.1490
L10.3340 6.1530
" />
<path d="M10.3360 6.4640
L10.3340 6.4690
" />
<path d="M10.3370 1.9950
L10.3390 2.0000
" />
<path d="M10.3370 6.1460
L10.3360 6.1490
" />
<path d="M10.3370 6.4570
L10.3360 6.4640
" />
<path d="M10.3390 2.0000
L10.3400 2.0040
" />
<path d="M10.3390 6.1450
L10.3370 6.1460
" />
<path d="M10.3390 6.4510
L10.3390 6.4520
" />
<path d="M10.3390 6.4520
L10.3370 6.4570
" />
<path d="M10.3400 2.0040
L10.3420 2.0080
" />
<path d="M10.3400 6.1420
L10.3390 6.1450
" />
<path d="M10.3400 6.4470
L10.3400 6.4480
" />
<path d="M10.3400 6.4480
L10.3390 6.4510
" />
<path d="M10.3420 2.0080
L10.3440 2.0110
" />
<path d="M10.3420 6.1410
L10.3400 6.1420
" />
<path d="M10.3420 6.4440
L10.3400 6.4470
" />
</g>
<g style="fill:#000000; fill-opacity:1.0000; stroke:none;">
<circle cx="10.3420" cy="6.4440" r="0.0100" /> 
</g>
<g style="fill:none; 
stroke:#000000; stroke-width:0.0200; stroke-opacity:1; 
stroke-linecap:round; stroke-linejoin:round;">
<path d="M10.3440 2.0110
L10.3450 2.0130
" />
<path d="M10.3440 6.1380
L10.3420 6.1410
" />
<path d="M10.3440 6.4410
L10.3420 6.4440
" />
<path d="M10.3450 2.0130
L10.3470 2.0150
" />
<path d="M10.3450 6.1370
L10.3440 6.1380
" />
<path d="M10.3450 6.4400
L10.3440 6.4410
" />
</g>
<g style="fill:#000000; fill-opacity:1.0000; stroke:none;">
<circle cx="10.3450" cy="6.4400" r="0.0100" /> 
</g>
<g style="fill:none; 
stroke:#000000; stroke-width:0.0200; stroke-opacity:1; 
stroke-linecap:round; stroke-linejoin:round;">
<path d="M10.3470 2.0150
L10.3480 2.0160
" />
<path d="M10.3470 6.1370
L10.3450 6.1370
" />
<path d="M10.3470 6.4380
L10.3470 6.4390
" />
<path d="M10.3470 6.4390
L10.3450 6.4400
" />
<path d="M10.3480 2.0160
L10.3500 2.0170
" />
<path d="M10.3480 6.4360
L10.3470 6.4380
" />
</g>
<g style="fill:#000000; fill-opacity:1.0000; stroke:none;">
<circle cx="10.3480" cy="6.4360" r="0.0100" /> 
</g>
<g style="fill:none; 
stroke:#000000; stroke-width:0.0200; stroke-opacity:1; 
stroke-linecap:round; stroke-linejoin:round;">
<path d="M10.3500 2.0170
L10.3520 2.0170
" />
<path d="M10.3500 6.1360
L10.3500 6.1370
" />
<path d="M10.3500 6.1360
L12.4060 6.1360
" />
<path d="M10.3500 6.1370
L10.3470 6.1370
" />
<path d="M10.3500 6.4350
L10.3480 6.4360
" />
</g>
<g style="fill:#000000; fill-opacity:1.0000; stroke:none;">
<circle cx="10.3500" cy="6.4350" r="0.0100" /> 
</g>
<g style="fill:none; 
stroke:#000000; stroke-width:0.0200; stroke-opacity:1; 
stroke-linecap:round; stroke-linejoin:round;">
<path d="M10.3520 2.0170
L10.3530 2.0160
" />
</g>
<g style="fill:#000000; fill-opacity:1.0000; stroke:none;">
<circle cx="10.3530" cy="2.0160" r="0.0100" /> 
</g>
<g style="fill:none; 
stroke:#000000; stroke-width:0.0200; stroke-opacity:1; 
stroke-linecap:round; stroke-linejoin:round;">
<path d="M10.3530 2.0160
L10.3550 2.0160
" />
<path d="M10.3530 6.1370
L10.3500 6.1360
" />
<path d="M10.3530 6.4360
L10.3500 6.4350
" />
<path d="M10.3550 2.0140
L10.3560 2.0130
" />
<path d="M10.3550 2.0150
L10.3550 2.0140
" />
<path d="M10.3550 2.0160
L10.3550 2.0150
" />
<path d="M10.3550 6.4360
L10.3530 6.4360
" />
<path d="M10.3550 6.4390
L10.3550 6.4360
" />
<path d="M10.3560 2.0130
L10.3580 2.0120
" />
<path d="M10.3560 6.1380
L10.3530 6.1370
" />
<path d="M10.3580 2.0100
L10.3600 2.0080
" />
<path d="M10.3580 2.0110
L10.3580 2.0100
" />
<path d="M10.3580 2.0120
L10.3580 2.0110
" />
<path d="M10.3580 6.4400
L10.3550 6.4390
" />
<path d="M10.3580 6.4430
L10.3580 6.4400
" />
<path d="M10.3600 2.0080
L10.3610 2.0070
" />
<path d="M10.3600 6.1410
L10.3560 6.1380
" />
<path d="M10.3610 2.0030
L10.3630 2.0010
" />
<path d="M10.3610 2.0050
L10.3610 2.0030
" />
<path d="M10.3610 2.0070
L10.3610 2.0050
" />
<path d="M10.3610 6.4450
L10.3580 6.4430
" />
<path d="M10.3610 6.4490
L10.3610 6.4450
" />
<path d="M10.3630 1.9990
L10.3640 1.9950
" />
<path d="M10.3630 2.0010
L10.3630 1.9990
" />
<path d="M10.3630 6.1450
L10.3600 6.1410
" />
<path d="M10.3630 6.4530
L10.3610 6.4490
" />
<path d="M10.3640 1.9950
L10.3660 1.9900
" />
<path d="M10.3640 6.4570
L10.3630 6.4530
" />
<path d="M10.3660 1.9900
L10.3680 1.9840
" />
<path d="M10.3660 6.1490
L10.3630 6.1450
" />
<path d="M10.3660 6.4630
L10.3640 6.4570
" />
<path d="M10.3680 1.9840
L10.3690 1.9780
" />
<path d="M10.3680 6.4680
L10.3660 6.4630
" />
<path d="M10.3690 1.9780
L10.3710 1.9720
" />
<path d="M10.3690 6.1540
L10.3660 6.1490
" />
<path d="M10.3690 6.4750
L10.3680 6.4680
" />
<path d="M10.3710 1.9650
L10.3740 1.9560
" />
<path d="M10.3710 1.9720
L10.3710 1.9650
" />
<path d="M10.3710 6.1610
L10.3690 6.1540
" />
<path d="M10.3710 6.4880
L10.3690 6.4750
" />
<path d="M10.3740 1.9480
L10.4190 1.6660
" />
<path d="M10.3740 1.9560
L10.3740 1.9480
" />
<path d="M10.3740 6.1680
L10.3710 6.1610
" />
<path d="M10.3740 6.5040
L10.3710 6.4880
" />
<path d="M10.3770 6.1770
L10.3740 6.1680
" />
<path d="M10.3790 6.1860
L10.3770 6.1770
" />
<path d="M10.3820 6.1950
L10.3790 6.1860
" />
<path d="M10.3850 6.2060
L10.3820 6.1950
" />
<path d="M10.3900 6.2330
L10.3850 6.2060
" />
<path d="M10.3950 6.2610
L10.3900 6.2330
" />
<path d="M10.4110 2.0850
L10.4620 1.7660
" />
<path d="M10.4190 6.7870
L10.3740 6.5040
" />
<path d="M10.4620 1.7620
L10.4640 1.7580
" />
<path d="M10.4620 1.7660
L10.4620 1.7620
" />
<path d="M10.4620 6.6860
L10.3950 6.2610
" />
<path d="M10.4620 6.6900
L10.4620 6.6860
" />
<path d="M10.4640 1.7540
L10.4670 1.7500
" />
<path d="M10.4640 1.7580
L10.4640 1.7540
" />
<path d="M10.4640 6.6940
L10.4620 6.6900
" />
<path d="M10.4640 6.6980
L10.4640 6.6940
" />
<path d="M10.4670 1.7460
L10.4700 1.7420
" />
<path d="M10.4670 1.7500
L10.4670 1.7460
" />
<path d="M10.4670 6.7020
L10.4640 6.6980
" />
<path d="M10.4700 1.7420
L10.4720 1.7380
" />
<path d="M10.4700 6.7100
L10.4670 6.7020
" />
<path d="M10.4720 1.7380
L10.4750 1.7340
" />
<path d="M10.4750 1.7340
L10.4780 1.7300
" />
<path d="M10.4750 6.7180
L10.4700 6.7100
" />
<path d="M10.4780 1.7300
L10.4800 1.7250
" />
<path d="M10.4800 1.7250
L10.4830 1.7230
" />
<path d="M10.4800 6.7260
L10.4750 6.7180
" />
<path d="M10.4830 1.7230
L10.4860 1.7190
" />
<path d="M10.4860 1.7190
L10.4890 1.7150
" />
<path d="M10.4860 6.7330
L10.4800 6.7260
" />
<path d="M10.4890 1.7150
L10.4940 1.7110
" />
<path d="M10.4940 1.7110
L10.4970 1.7090
" />
<path d="M10.4940 6.7410
L10.4860 6.7330
" />
<path d="M10.4970 1.7090
L10.5020 1.7050
" />
<path d="M10.5020 1.7050
L10.5050 1.7020
" />
<path d="M10.5020 6.7470
L10.4940 6.7410
" />
<path d="M10.5050 1.7020
L10.5100 1.6980
" />
<path d="M10.5100 1.6980
L10.5150 1.6960
" />
<path d="M10.5100 6.7540
L10.5020 6.7470
" />
<path d="M10.5150 1.6960
L10.5200 1.6920
" />
<path d="M10.5200 1.6920
L10.5250 1.6900
" />
<path d="M10.5200 6.7600
L10.5100 6.7540
" />
<path d="M10.5250 1.6900
L10.5310 1.6880
" />
<path d="M10.5310 1.6880
L10.5410 1.6820
" />
<path d="M10.5310 6.7650
L10.5200 6.7600
" />
<path d="M10.5410 1.6820
L10.5520 1.6780
" />
<path d="M10.5410 6.7710
L10.5310 6.7650
" />
<path d="M10.5520 1.6780
L10.5650 1.6720
" />
<path d="M10.5520 6.7740
L10.5410 6.7710
" />
<path d="M10.5650 1.6720
L10.5760 1.6700
" />
<path d="M10.5650 6.7790
L10.5520 6.7740
" />
<path d="M10.5760 1.6700
L10.5890 1.6660
" />
<path d="M10.5760 6.7820
L10.5650 6.7790
" />
<path d="M10.5890 6.7870
L10.5760 6.7820
" />
<path d="M11.3020 4.6430
L11.3020 3.8860
" />
<path d="M11.3020 4.6430
L11.3020 4.8600
" />
<path d="M11.3020 4.8600
L11.3020 5.1250
" />
<path d="M11.3020 5.1250
L12.2510 5.1250
" />
<path d="M12.1670 1.6660
L12.1800 1.6700
" />
<path d="M12.1800 1.6700
L12.1930 1.6720
" />
<path d="M12.1800 6.7820
L12.1670 6.7870
" />
<path d="M12.1930 1.6720
L12.2040 1.6780
" />
<path d="M12.1930 6.7790
L12.1800 6.7820
" />
<path d="M12.2040 1.6780
L12.2170 1.6820
" />
<path d="M12.2040 6.7740
L12.1930 6.7790
" />
<path d="M12.2170 1.6820
L12.2270 1.6880
" />
<path d="M12.2170 6.7710
L12.2040 6.7740
" />
<path d="M12.2270 1.6880
L12.2380 1.6920
" />
<path d="M12.2270 6.7650
L12.2170 6.7710
" />
<path d="M12.2330 6.7630
L12.2270 6.7650
" />
<path d="M12.2380 1.6920
L12.2460 1.6980
" />
<path d="M12.2380 6.7600
L12.2330 6.7630
" />
<path d="M12.2410 6.7570
L12.2380 6.7600
" />
<path d="M12.2460 1.6980
L12.2550 1.7050
" />
<path d="M12.2460 6.7540
L12.2410 6.7570
" />
<path d="M12.2510 4.6430
L12.2510 3.8860
" />
<path d="M12.2510 4.6430
L12.2510 4.8600
" />
<path d="M12.2510 4.8600
L11.3020 4.8600
" />
<path d="M12.2510 5.1250
L12.2510 4.8600
" />
<path d="M12.2520 6.7500
L12.2460 6.7540
" />
<path d="M12.2550 1.7050
L12.2630 1.7110
" />
<path d="M12.2550 6.7470
L12.2520 6.7500
" />
<path d="M12.2600 6.7440
L12.2550 6.7470
" />
<path d="M12.2630 1.7110
L12.2700 1.7190
" />
<path d="M12.2630 6.7410
L12.2600 6.7440
" />
<path d="M12.2680 6.7360
L12.2630 6.7410
" />
<path d="M12.2700 1.7190
L12.2760 1.7250
" />
<path d="M12.2700 6.7330
L12.2680 6.7360
" />
<path d="M12.2730 6.7300
L12.2700 6.7330
" />
<path d="M12.2760 1.7250
L12.2830 1.7340
" />
<path d="M12.2760 6.7260
L12.2730 6.7300
" />
<path d="M12.2790 6.7220
L12.2760 6.7260
" />
<path d="M12.2830 1.7340
L12.2870 1.7420
" />
<path d="M12.2830 6.7180
L12.2790 6.7220
" />
<path d="M12.2840 6.7140
L12.2830 6.7180
" />
<path d="M12.2870 1.7420
L12.2910 1.7500
" />
<path d="M12.2870 6.7100
L12.2840 6.7140
" />
<path d="M12.2890 6.7060
L12.2870 6.7100
" />
<path d="M12.2910 1.7500
L12.2920 1.7540
" />
<path d="M12.2910 6.7020
L12.2890 6.7060
" />
<path d="M12.2920 1.7540
L12.2940 1.7580
" />
<path d="M12.2920 6.6980
L12.2910 6.7020
" />
<path d="M12.2940 1.7580
L12.2940 1.7620
" />
<path d="M12.2940 1.7620
L12.2950 1.7660
" />
<path d="M12.2940 6.6900
L12.2940 6.6940
" />
<path d="M12.2940 6.6940
L12.2920 6.6980
" />
<path d="M12.2950 1.7660
L12.3450 2.0850
" />
<path d="M12.2950 6.6860
L12.2940 6.6900
" />
<path d="M12.3390 1.6660
L12.3820 1.9480
" />
<path d="M12.3630 6.2610
L12.2950 6.6860
" />
<path d="M12.3640 6.2460
L12.3630 6.2610
" />
<path d="M12.3680 6.2330
L12.3640 6.2460
" />
<path d="M12.3690 6.2180
L12.3680 6.2330
" />
<path d="M12.3720 6.2060
L12.3690 6.2180
" />
<path d="M12.3740 6.1950
L12.3720 6.2060
" />
<path d="M12.3770 6.1860
L12.3740 6.1950
" />
<path d="M12.3800 6.1770
L12.3770 6.1860
" />
<path d="M12.3820 1.9480
L12.3850 1.9650
" />
<path d="M12.3820 6.5040
L12.3390 6.7870
" />
<path d="M12.3840 6.1680
L12.3800 6.1770
" />
<path d="M12.3840 6.4960
L12.3820 6.5040
" />
<path d="M12.3850 1.9650
L12.3870 1.9780
" />
<path d="M12.3850 6.1610
L12.3850 6.1650
" />
<path d="M12.3850 6.1650
L12.3840 6.1680
" />
<path d="M12.3850 6.4880
L12.3840 6.4960
" />
<path d="M12.3870 1.9780
L12.3900 1.9840
" />
<path d="M12.3870 6.1570
L12.3850 6.1610
" />
<path d="M12.3870 6.4750
L12.3870 6.4800
" />
<path d="M12.3870 6.4800
L12.3850 6.4880
" />
<path d="M12.3880 6.1540
L12.3870 6.1570
" />
<path d="M12.3900 1.9840
L12.3900 1.9900
" />
<path d="M12.3900 1.9900
L12.3930 1.9950
" />
<path d="M12.3900 6.1520
L12.3880 6.1540
" />
<path d="M12.3900 6.4630
L12.3900 6.4680
" />
<path d="M12.3900 6.4680
L12.3870 6.4750
" />
<path d="M12.3920 6.1490
L12.3900 6.1520
" />
<path d="M12.3930 1.9950
L12.3930 1.9990
" />
<path d="M12.3930 1.9990
L12.3950 2.0030
" />
<path d="M12.3930 6.1460
L12.3920 6.1490
" />
<path d="M12.3930 6.4530
L12.3930 6.4570
" />
<path d="M12.3930 6.4570
L12.3900 6.4630
" />
<path d="M12.3950 2.0030
L12.3960 2.0070
" />
<path d="M12.3950 6.1420
L12.3950 6.1450
" />
<path d="M12.3950 6.1450
L12.3930 6.1460
" />
<path d="M12.3950 6.4480
L12.3950 6.4490
" />
<path d="M12.3950 6.4490
L12.3950 6.4520
" />
<path d="M12.3950 6.4520
L12.3930 6.4530
" />
<path d="M12.3960 2.0070
L12.3980 2.0100
" />
<path d="M12.3960 6.4450
L12.3950 6.4480
" />
<path d="M12.3980 2.0100
L12.4000 2.0120
" />
<path d="M12.3980 6.1400
L12.3980 6.1410
" />
<path d="M12.3980 6.1410
L12.3950 6.1420
" />
<path d="M12.3980 6.4430
L12.3980 6.4440
" />
<path d="M12.3980 6.4440
L12.3960 6.4450
" />
<path d="M12.4000 2.0120
L12.4010 2.0140
" />
<path d="M12.4000 6.4400
L12.4000 6.4410
" />
<path d="M12.4000 6.4410
L12.3980 6.4430
" />
<path d="M12.4010 2.0140
L12.4030 2.0160
" />
<path d="M12.4010 6.1370
L12.4010 6.1380
" />
<path d="M12.4010 6.1380
L12.3980 6.1400
" />
<path d="M12.4010 6.4390
L12.4010 6.4400
" />
<path d="M12.4010 6.4400
L12.4000 6.4400
" />
<path d="M12.4030 2.0160
L12.4040 2.0160
" />
<path d="M12.4030 6.1370
L12.4010 6.1370
" />
</g>
<g style="fill:#000000; fill-opacity:1.0000; stroke:none;">
<circle cx="12.4030" cy="6.4360" r="0.0100" /> 
</g>
<g style="fill:none; 
stroke:#000000; stroke-width:0.0200; stroke-opacity:1; 
stroke-linecap:round; stroke-linejoin:round;">
<path d="M12.4030 6.4360
L12.4030 6.4380
" />
<path d="M12.4030 6.4380
L12.4010 6.4390
" />
<path d="M12.4040 2.0160
L12.4060 2.0170
" />
<path d="M12.4040 6.1360
L12.4030 6.1370
" />
<path d="M12.4040 6.4360
L12.4030 6.4360
" />
<path d="M12.4060 2.0170
L12.4080 2.0170
" />
<path d="M12.4060 6.1360
L12.4040 6.1360
" />
<path d="M12.4060 6.4350
L12.4040 6.4360
" />
</g>
<g style="fill:#000000; fill-opacity:1.0000; stroke:none;">
<circle cx="12.4060" cy="6.4350" r="0.0100" /> 
</g>
<g style="fill:none; 
stroke:#000000; stroke-width:0.0200; stroke-opacity:1; 
stroke-linecap:round; stroke-linejoin:round;">
<path d="M12.4080 2.0170
L12.4090 2.0160
" />
<path d="M12.4090 2.0150
L12.4110 2.0140
" />
<path d="M12.4090 2.0160
L12.4090 2.0150
" />
</g>
<g style="fill:#000000; fill-opacity:1.0000; stroke:none;">
<circle cx="12.4090" cy="2.0160" r="0.0100" /> 
</g>
<g style="fill:none; 
stroke:#000000; stroke-width:0.0200; stroke-opacity:1; 
stroke-linecap:round; stroke-linejoin:round;">
<path d="M12.4090 6.1370
L12.4060 6.1360
" />
<path d="M12.4090 6.4360
L12.4060 6.4350
" />
<path d="M12.4090 6.4380
L12.4090 6.4360
" />
<path d="M12.4110 2.0130
L12.4120 2.0120
" />
<path d="M12.4110 2.0140
L12.4110 2.0130
" />
<path d="M12.4110 6.4400
L12.4090 6.4380
" />
<path d="M12.4120 2.0120
L12.4140 2.0110
" />
<path d="M12.4140 2.0090
L12.4160 2.0080
" />
<path d="M12.4140 2.0110
L12.4140 2.0090
" />
<path d="M12.4140 6.1380
L12.4090 6.1370
" />
<path d="M12.4140 6.4410
L12.4110 6.4400
" />
<path d="M12.4160 2.0080
L12.4170 2.0060
" />
<path d="M12.4160 6.4440
L12.4140 6.4410
" />
<path d="M12.4170 2.0020
L12.4190 2.0000
" />
<path d="M12.4170 2.0040
L12.4170 2.0020
" />
<path d="M12.4170 2.0060
L12.4170 2.0040
" />
<path d="M12.4170 6.1420
L12.4140 6.1380
" />
<path d="M12.4170 6.4480
L12.4160 6.4440
" />
<path d="M12.4190 2.0000
L12.4200 1.9950
" />
<path d="M12.4190 6.1460
L12.4170 6.1420
" />
<path d="M12.4190 6.4520
L12.4170 6.4480
" />
<path d="M12.4200 1.9950
L12.4220 1.9890
" />
<path d="M12.4200 6.4570
L12.4190 6.4520
" />
<path d="M12.4220 1.9890
L12.4240 1.9830
" />
<path d="M12.4220 6.1530
L12.4190 6.1460
" />
<path d="M12.4220 6.4640
L12.4200 6.4570
" />
<path d="M12.4240 1.9830
L12.4250 1.9760
" />
<path d="M12.4240 6.4690
L12.4220 6.4640
" />
<path d="M12.4250 1.9760
L12.4270 1.9680
" />
<path d="M12.4270 1.9680
L12.4280 1.9600
" />
<path d="M12.4270 6.1600
L12.4220 6.1530
" />
<path d="M12.4270 6.4840
L12.4240 6.4690
" />
<path d="M12.4280 1.9600
L12.4300 1.9500
" />
<path d="M12.4300 1.9500
L12.4320 1.9400
" />
<path d="M12.4300 6.1680
L12.4270 6.1600
" />
<path d="M12.4300 6.5010
L12.4270 6.4840
" />
<path d="M12.4320 1.9400
L12.4330 1.9300
" />
<path d="M12.4330 1.9300
L12.4670 1.6660
" />
<path d="M12.4330 6.1770
L12.4300 6.1680
" />
<path d="M12.4330 6.5210
L12.4300 6.5010
" />
<path d="M12.4350 6.1870
L12.4330 6.1770
" />
<path d="M12.4380 6.1990
L12.4350 6.1870
" />
<path d="M12.4440 6.2260
L12.4380 6.1990
" />
<path d="M12.4490 6.2580
L12.4440 6.2260
" />
<path d="M12.4560 6.2950
L12.4490 6.2580
" />
<path d="M12.4640 2.0850
L12.5130 1.7150
" />
<path d="M12.4670 6.7870
L12.4330 6.5210
" />
<path d="M12.5130 6.7360
L12.4560 6.2950
" />
<path d="M12.5130 6.7360
L12.5150 6.7490
" />
<path d="M12.5150 1.7030
L12.5150 1.7090
" />
<path d="M12.5150 1.7090
L12.5130 1.7150
" />
<path d="M12.5150 6.7490
L12.5170 6.7580
" />
<path d="M12.5170 1.6940
L12.5170 1.6980
" />
<path d="M12.5170 1.6980
L12.5150 1.7030
" />
<path d="M12.5170 6.7580
L12.5180 6.7660
" />
<path d="M12.5180 1.6860
L12.5180 1.6900
" />
<path d="M12.5180 1.6900
L12.5170 1.6940
" />
<path d="M12.5180 6.7660
L12.5200 6.7710
" />
<path d="M12.5200 1.6780
L12.5200 1.6820
" />
<path d="M12.5200 1.6820
L12.5180 1.6860
" />
<path d="M12.5200 6.7710
L12.5200 6.7730
" />
<path d="M12.5200 6.7730
L12.5210 6.7760
" />
<path d="M12.5210 1.6740
L12.5210 1.6760
" />
<path d="M12.5210 1.6760
L12.5200 1.6780
" />
<path d="M12.5210 6.7760
L12.5230 6.7790
" />
<path d="M12.5230 1.6700
L12.5230 1.6720
" />
</g>
<g style="fill:#000000; fill-opacity:1.0000; stroke:none;">
<circle cx="12.5230" cy="1.6720" r="0.0100" /> 
</g>
<g style="fill:none; 
stroke:#000000; stroke-width:0.0200; stroke-opacity:1; 
stroke-linecap:round; stroke-linejoin:round;">
<path d="M12.5230 1.6720
L12.5230 1.6740
" />
<path d="M12.5230 1.6740
L12.5210 1.6740
" />
<path d="M12.5230 6.7790
L12.5230 6.7810
" />
<path d="M12.5230 6.7810
L12.5250 6.7820
" />
<path d="M12.5250 1.6680
L12.5250 1.6700
" />
<path d="M12.5250 1.6700
L12.5230 1.6700
" />
<path d="M12.5250 6.7820
L12.5260 6.7840
" />
</g>
<g style="fill:#000000; fill-opacity:1.0000; stroke:none;">
<circle cx="12.5260" cy="1.6660" r="0.0100" /> 
</g>
<g style="fill:none; 
stroke:#000000; stroke-width:0.0200; stroke-opacity:1; 
stroke-linecap:round; stroke-linejoin:round;">
<path d="M12.5260 1.6660
L12.5260 1.6680
" />
<path d="M12.5260 1.6680
L12.5250 1.6680
" />
</g>
<g style="fill:#000000; fill-opacity:1.0000; stroke:none;">
<circle cx="12.5260" cy="1.6680" r="0.0100" /> 
</g>
<g style="fill:none; 
stroke:#000000; stroke-width:0.0200; stroke-opacity:1; 
stroke-linecap:round; stroke-linejoin:round;">
<path d="M12.5260 6.7840
L12.5260 6.7860
" />
<path d="M12.5260 6.7860
L12.5280 6.7860
" />
<path d="M12.5280 1.6660
L12.5260 1.6660
" />
</g>
<g style="fill:#000000; fill-opacity:1.0000; stroke:none;">
<circle cx="12.5280" cy="1.6660" r="0.0100" /> 
<circle cx="12.5280" cy="1.6660" r="0.0100" /> 
</g>
<g style="fill:none; 
stroke:#000000; stroke-width:0.0200; stroke-opacity:1; 
stroke-linecap:round; stroke-linejoin:round;">
<path d="M12.5280 6.7860
L12.5280 6.7870
" />
<path d="M13.5010 2.3850
L3.0510 2.3850
" />
<path d="M13.5010 2.3850
L13.8020 2.0850
" />
<path d="M13.5010 3.5850
L13.5010 2.3850
" />
<path d="M13.8020 2.0850
L13.8020 3.8860
" />
<path d="M13.8020 3.8860
L2.7500 3.8860
" />
<path d="M13.8020 3.8860
L13.5010 3.5850
" />
<path d="M13.8270 0.9670
L13.8270 0.7750
" />
<path d="M13.8270 0.9670
L13.8270 1.4610
" />
<path d="M13.8270 1.3660
L14.4750 1.3660
" />
</g>
<g style="fill:#000000; fill-opacity:1.0000; stroke:none;">
<circle cx="13.8270" cy="1.4610" r="0.0100" /> 
</g>
<g style="fill:none; 
stroke:#000000; stroke-width:0.0200; stroke-opacity:1; 
stroke-linecap:round; stroke-linejoin:round;">
<path d="M13.8270 1.4610
L13.8270 1.5130
" />
</g>
<g style="fill:#000000; fill-opacity:1.0000; stroke:none;">
<circle cx="13.8270" cy="1.5130" r="0.0100" /> 
</g>
<g style="fill:none; 
stroke:#000000; stroke-width:0.0200; stroke-opacity:1; 
stroke-linecap:round; stroke-linejoin:round;">
<path d="M13.8270 1.5130
L13.8270 1.5960
" />
</g>
<g style="fill:#000000; fill-opacity:1.0000; stroke:none;">
<circle cx="13.8270" cy="1.5960" r="0.0100" /> 
</g>
<g style="fill:none; 
stroke:#000000; stroke-width:0.0200; stroke-opacity:1; 
stroke-linecap:round; stroke-linejoin:round;">
<path d="M13.8270 1.5960
L13.8270 1.6260
" />
</g>
<g style="fill:#000000; fill-opacity:1.0000; stroke:none;">
<circle cx="13.8270" cy="1.6260" r="0.0100" /> 
</g>
<g style="fill:none; 
stroke:#000000; stroke-width:0.0200; stroke-opacity:1; 
stroke-linecap:round; stroke-linejoin:round;">
<path d="M13.8270 1.6260
L13.8270 1.6480
" />
</g>
<g style="fill:#000000; fill-opacity:1.0000; stroke:none;">
<circle cx="13.8270" cy="1.6480" r="0.0100" /> 
</g>
<g style="fill:none; 
stroke:#000000; stroke-width:0.0200; stroke-opacity:1; 
stroke-linecap:round; stroke-linejoin:round;">
<path d="M13.8270 1.6480
L13.8270 1.6620
" />
</g>
<g style="fill:#000000; fill-opacity:1.0000; stroke:none;">
<circle cx="13.8270" cy="1.6620" r="0.0100" /> 
</g>
<g style="fill:none; 
stroke:#000000; stroke-width:0.0200; stroke-opacity:1; 
stroke-linecap:round; stroke-linejoin:round;">
<path d="M13.8270 1.6620
L13.8270 1.6660
" />
<path d="M13.9310 6.7870
L13.9310 6.7900
" />
<path d="M13.9310 6.7870
L14.4750 6.7870
" />
</g>
<g style="fill:#000000; fill-opacity:1.0000; stroke:none;">
<circle cx="13.9310" cy="6.7900" r="0.0100" /> 
</g>
<g style="fill:none; 
stroke:#000000; stroke-width:0.0200; stroke-opacity:1; 
stroke-linecap:round; stroke-linejoin:round;">
<path d="M13.9310 6.7900
L13.9310 6.8030
" />
</g>
<g style="fill:#000000; fill-opacity:1.0000; stroke:none;">
<circle cx="13.9310" cy="6.8030" r="0.0100" /> 
</g>
<g style="fill:none; 
stroke:#000000; stroke-width:0.0200; stroke-opacity:1; 
stroke-linecap:round; stroke-linejoin:round;">
<path d="M13.9310 6.8030
L13.9310 6.8260
" />
</g>
<g style="fill:#000000; fill-opacity:1.0000; stroke:none;">
<circle cx="13.9310" cy="6.8260" r="0.0100" /> 
</g>
<g style="fill:none; 
stroke:#000000; stroke-width:0.0200; stroke-opacity:1; 
stroke-linecap:round; stroke-linejoin:round;">
<path d="M13.9310 6.8260
L13.9310 6.8930
" />
</g>
<g style="fill:#000000; fill-opacity:1.0000; stroke:none;">
<circle cx="13.9310" cy="6.8930" r="0.0100" /> 
</g>
<g style="fill:none; 
stroke:#000000; stroke-width:0.0200; stroke-opacity:1; 
stroke-linecap:round; stroke-linejoin:round;">
<path d="M13.9310 6.8930
L13.9310 6.9910
" />
</g>
<g style="fill:#000000; fill-opacity:1.0000; stroke:none;">
<circle cx="13.9310" cy="6.9910" r="0.0100" /> 
</g>
<g style="fill:none; 
stroke:#000000; stroke-width:0.0200; stroke-opacity:1; 
stroke-linecap:round; stroke-linejoin:round;">
<path d="M13.9310 6.9910
L13.9310 7.4860
" />
<path d="M13.9310 7.0850
L14.5260 7.0850
" />
<path d="M13.9310 7.4860
L13.9310 7.6770
" />
</g>
<g style="fill:#000000; fill-opacity:1.0000; stroke:none;">
<circle cx="13.9720" cy="3.5120" r="0.0100" /> 
<circle cx="13.9720" cy="3.5120" r="0.0100" /> 
<circle cx="13.9720" cy="3.5120" r="0.0100" /> 
<circle cx="13.9720" cy="3.5120" r="0.0100" /> 
</g>
<g style="fill:none; 
stroke:#000000; stroke-width:0.0200; stroke-opacity:1; 
stroke-linecap:round; stroke-linejoin:round;">
<path d="M13.9720 3.5120
L13.9720 3.5130
" />
</g>
<g style="fill:#000000; fill-opacity:1.0000; stroke:none;">
<circle cx="13.9720" cy="3.5130" r="0.0100" /> 
<circle cx="13.9720" cy="3.5130" r="0.0100" /> 
</g>
<g style="fill:none; 
stroke:#000000; stroke-width:0.0200; stroke-opacity:1; 
stroke-linecap:round; stroke-linejoin:round;">
<path d="M13.9720 4.9400
L13.9720 3.5130
" />
</g>
<g style="fill:#000000; fill-opacity:1.0000; stroke:none;">
<circle cx="13.9720" cy="4.9400" r="0.0100" /> 
<circle cx="13.9720" cy="4.9400" r="0.0100" /> 
<circle cx="13.9720" cy="4.9400" r="0.0100" /> 
<circle cx="13.9720" cy="4.9400" r="0.0100" /> 
<circle cx="13.9720" cy="4.9400" r="0.0100" /> 
<circle cx="13.9720" cy="4.9400" r="0.0100" /> 
<circle cx="13.9720" cy="4.9400" r="0.0100" /> 
<circle cx="13.9720" cy="4.9400" r="0.0100" /> 
<circle cx="13.9720" cy="4.9400" r="0.0100" /> 
<circle cx="13.9720" cy="4.9400" r="0.0100" /> 
<circle cx="13.9720" cy="4.9400" r="0.0100" /> 
<circle cx="13.9720" cy="4.9400" r="0.0100" /> 
<circle cx="13.9720" cy="4.9400" r="0.0100" /> 
</g>
<g style="fill:none; 
stroke:#000000; stroke-width:0.0200; stroke-opacity:1; 
stroke-linecap:round; stroke-linejoin:round;">
<path d="M13.9720 4.9400
L13.9740 4.9400
" />
<path d="M13.9740 3.5120
L13.9720 3.5120
" />
</g>
<g style="fill:#000000; fill-opacity:1.0000; stroke:none;">
<circle cx="13.9740" cy="4.9400" r="0.0100" /> 
</g>
<g style="fill:none; 
stroke:#000000; stroke-width:0.0200; stroke-opacity:1; 
stroke-linecap:round; stroke-linejoin:round;">
<path d="M13.9740 4.9400
L13.9750 4.9400
" />
<path d="M13.9750 3.5110
L13.9750 3.5120
" />
<path d="M13.9750 3.5120
L13.9740 3.5120
" />
<path d="M13.9750 4.9400
L13.9750 4.9410
" />
</g>
<g style="fill:#000000; fill-opacity:1.0000; stroke:none;">
<circle cx="13.9750" cy="4.9410" r="0.0100" /> 
</g>
<g style="fill:none; 
stroke:#000000; stroke-width:0.0200; stroke-opacity:1; 
stroke-linecap:round; stroke-linejoin:round;">
<path d="M13.9750 4.9410
L13.9770 4.9410
" />
<path d="M13.9770 3.5110
L13.9750 3.5110
" />
</g>
<g style="fill:#000000; fill-opacity:1.0000; stroke:none;">
<circle cx="13.9770" cy="4.9410" r="0.0100" /> 
</g>
<g style="fill:none; 
stroke:#000000; stroke-width:0.0200; stroke-opacity:1; 
stroke-linecap:round; stroke-linejoin:round;">
<path d="M13.9770 4.9410
L13.9780 4.9410
" />
<path d="M13.9780 3.5110
L13.9770 3.5110
" />
<path d="M13.9780 3.5110
L14.5000 3.4330
" />
</g>
<g style="fill:#000000; fill-opacity:1.0000; stroke:none;">
<circle cx="13.9780" cy="4.9410" r="0.0100" /> 
</g>
<g style="fill:none; 
stroke:#000000; stroke-width:0.0200; stroke-opacity:1; 
stroke-linecap:round; stroke-linejoin:round;">
<path d="M14.4750 1.6660
L13.8270 1.6660
" />
<path d="M14.4750 1.6660
L14.4780 1.6660
" />
<path d="M14.4750 7.0850
L13.9310 7.0850
" />
<path d="M14.4750 7.0850
L14.4940 7.0850
" />
<path d="M14.4780 1.6660
L14.4810 1.6660
" />
<path d="M14.4780 6.7860
L14.4750 6.7870
" />
<path d="M14.4810 1.6660
L14.4840 1.6660
" />
<path d="M14.4810 6.7860
L14.4780 6.7860
" />
<path d="M14.4840 1.6660
L14.4850 1.6660
" />
<path d="M14.4840 6.7860
L14.4810 6.7860
" />
<path d="M14.4850 1.6660
L14.4880 1.6680
" />
<path d="M14.4850 6.7860
L14.4840 6.7860
" />
<path d="M14.4880 1.6680
L14.4910 1.6680
" />
<path d="M14.4880 6.7840
L14.4850 6.7860
" />
<path d="M14.4910 1.6680
L14.4930 1.6680
" />
<path d="M14.4910 6.7840
L14.4880 6.7840
" />
<path d="M14.4930 1.6680
L14.4950 1.6700
" />
<path d="M14.4930 6.7840
L14.4910 6.7840
" />
<path d="M14.4940 1.3660
L14.4750 1.3660
" />
<path d="M14.4940 7.0850
L14.5100 7.0840
" />
<path d="M14.4950 1.6700
L14.4970 1.6700
" />
<path d="M14.4950 6.7820
L14.4930 6.7840
" />
<path d="M14.4970 1.6700
L14.5000 1.6720
" />
<path d="M14.4970 6.7810
L14.4950 6.7820
" />
<path d="M14.5000 1.6720
L14.5010 1.6740
" />
<path d="M14.5000 3.4330
L14.5060 3.4320
" />
<path d="M14.5000 5.0190
L13.9780 4.9410
" />
<path d="M14.5000 6.7810
L14.4970 6.7810
" />
<path d="M14.5010 1.6740
L14.5040 1.6740
" />
<path d="M14.5010 6.7790
L14.5000 6.7810
" />
<path d="M14.5030 5.0190
L14.5000 5.0190
" />
<path d="M14.5040 1.6740
L14.5060 1.6760
" />
<path d="M14.5040 6.7780
L14.5010 6.7790
" />
<path d="M14.5060 1.6760
L14.5070 1.6780
" />
<path d="M14.5060 3.4320
L14.5110 3.4310
" />
<path d="M14.5060 5.0200
L14.5030 5.0190
" />
<path d="M14.5060 6.7760
L14.5040 6.7780
" />
<path d="M14.5070 1.6780
L14.5100 1.6780
" />
<path d="M14.5070 6.7740
L14.5060 6.7760
" />
<path d="M14.5080 5.0200
L14.5060 5.0200
" />
<path d="M14.5100 1.3680
L14.4940 1.3660
" />
<path d="M14.5100 1.6780
L14.5110 1.6800
" />
<path d="M14.5100 6.7730
L14.5070 6.7740
" />
<path d="M14.5100 7.0840
L14.5270 7.0820
" />
</g>
<g style="fill:#000000; fill-opacity:1.0000; stroke:none;">
<circle cx="14.5110" cy="1.6800" r="0.0100" /> 
</g>
<g style="fill:none; 
stroke:#000000; stroke-width:0.0200; stroke-opacity:1; 
stroke-linecap:round; stroke-linejoin:round;">
<path d="M14.5110 1.6800
L14.5130 1.6820
" />
<path d="M14.5110 3.4310
L14.5160 3.4300
" />
<path d="M14.5110 5.0200
L14.5080 5.0200
" />
<path d="M14.5110 6.7710
L14.5100 6.7730
" />
</g>
<g style="fill:#000000; fill-opacity:1.0000; stroke:none;">
<circle cx="14.5110" cy="6.7710" r="0.0100" /> 
</g>
<g style="fill:none; 
stroke:#000000; stroke-width:0.0200; stroke-opacity:1; 
stroke-linecap:round; stroke-linejoin:round;">
<path d="M14.5130 1.6820
L14.5140 1.6840
" />
<path d="M14.5130 5.0200
L14.5110 5.0200
" />
<path d="M14.5130 6.7700
L14.5110 6.7710
" />
<path d="M14.5140 1.6840
L14.5170 1.6860
" />
<path d="M14.5140 6.7680
L14.5130 6.7700
" />
<path d="M14.5160 3.4300
L14.5200 3.4300
" />
<path d="M14.5160 5.0210
L14.5130 5.0200
" />
<path d="M14.5170 1.6860
L14.5170 1.6880
" />
<path d="M14.5170 1.6880
L14.5190 1.6900
" />
<path d="M14.5170 5.0210
L14.5160 5.0210
" />
<path d="M14.5170 6.7630
L14.5170 6.7650
" />
<path d="M14.5170 6.7650
L14.5140 6.7680
" />
<path d="M14.5190 1.6900
L14.5200 1.6920
" />
<path d="M14.5190 6.7620
L14.5170 6.7630
" />
<path d="M14.5200 1.6920
L14.5220 1.6940
" />
</g>
<g style="fill:#000000; fill-opacity:1.0000; stroke:none;">
<circle cx="14.5200" cy="3.4300" r="0.0100" /> 
</g>
<g style="fill:none; 
stroke:#000000; stroke-width:0.0200; stroke-opacity:1; 
stroke-linecap:round; stroke-linejoin:round;">
<path d="M14.5200 3.4300
L14.5230 3.4290
" />
<path d="M14.5200 5.0230
L14.5170 5.0210
" />
</g>
<g style="fill:#000000; fill-opacity:1.0000; stroke:none;">
<circle cx="14.5200" cy="5.0230" r="0.0100" /> 
</g>
<g style="fill:none; 
stroke:#000000; stroke-width:0.0200; stroke-opacity:1; 
stroke-linecap:round; stroke-linejoin:round;">
<path d="M14.5200 6.7600
L14.5190 6.7620
" />
<path d="M14.5220 1.6940
L14.5230 1.6960
" />
<path d="M14.5220 6.7570
L14.5200 6.7600
" />
<path d="M14.5230 1.6960
L14.5230 1.7000
" />
<path d="M14.5230 1.7000
L14.5230 1.7020
" />
<path d="M14.5230 1.7020
L14.5240 1.7030
" />
</g>
<g style="fill:#000000; fill-opacity:1.0000; stroke:none;">
<circle cx="14.5230" cy="3.4290" r="0.0100" /> 
</g>
<g style="fill:none; 
stroke:#000000; stroke-width:0.0200; stroke-opacity:1; 
stroke-linecap:round; stroke-linejoin:round;">
<path d="M14.5230 3.4290
L14.5240 3.4280
" />
<path d="M14.5230 5.0240
L14.5200 5.0230
" />
</g>
<g style="fill:#000000; fill-opacity:1.0000; stroke:none;">
<circle cx="14.5230" cy="5.0240" r="0.0100" /> 
<circle cx="14.5230" cy="5.0240" r="0.0100" /> 
<circle cx="14.5230" cy="5.0240" r="0.0100" /> 
</g>
<g style="fill:none; 
stroke:#000000; stroke-width:0.0200; stroke-opacity:1; 
stroke-linecap:round; stroke-linejoin:round;">
<path d="M14.5230 6.7500
L14.5230 6.7520
" />
<path d="M14.5230 6.7520
L14.5230 6.7550
" />
<path d="M14.5230 6.7550
L14.5220 6.7570
" />
<path d="M14.5240 1.7030
L14.5260 1.7070
" />
<path d="M14.5240 3.4280
L14.5260 3.4280
" />
<path d="M14.5240 5.0240
L14.5230 5.0240
" />
</g>
<g style="fill:#000000; fill-opacity:1.0000; stroke:none;">
<circle cx="14.5240" cy="5.0240" r="0.0100" /> 
</g>
<g style="fill:none; 
stroke:#000000; stroke-width:0.0200; stroke-opacity:1; 
stroke-linecap:round; stroke-linejoin:round;">
<path d="M14.5240 6.7490
L14.5230 6.7500
" />
<path d="M14.5260 0.5250
L14.5260 1.3660
" />
<path d="M14.5260 1.3660
L13.8270 1.3660
" />
<path d="M14.5260 1.3660
L14.5260 1.3700
" />
<path d="M14.5260 1.7070
L14.5260 1.7090
" />
<path d="M14.5260 1.7090
L14.5260 1.7110
" />
<path d="M14.5260 1.7110
L14.5260 1.7130
" />
<path d="M14.5260 1.7130
L14.5260 1.7170
" />
<path d="M14.5260 2.2270
L14.5260 1.7170
" />
<path d="M14.5260 2.2270
L14.5300 2.2270
" />
<path d="M14.5260 3.4270
L14.5260 3.4260
" />
</g>
<g style="fill:#000000; fill-opacity:1.0000; stroke:none;">
<circle cx="14.5260" cy="3.4270" r="0.0100" /> 
</g>
<g style="fill:none; 
stroke:#000000; stroke-width:0.0200; stroke-opacity:1; 
stroke-linecap:round; stroke-linejoin:round;">
<path d="M14.5260 3.4280
L14.5260 3.4270
" />
<path d="M14.5260 5.0240
L14.5240 5.0240
" />
</g>
<g style="fill:#000000; fill-opacity:1.0000; stroke:none;">
<circle cx="14.5260" cy="5.0240" r="0.0100" /> 
</g>
<g style="fill:none; 
stroke:#000000; stroke-width:0.0200; stroke-opacity:1; 
stroke-linecap:round; stroke-linejoin:round;">
<path d="M14.5260 5.0250
L14.5260 5.0240
" />
</g>
<g style="fill:#000000; fill-opacity:1.0000; stroke:none;">
<circle cx="14.5260" cy="5.0250" r="0.0100" /> 
<circle cx="14.5260" cy="5.0250" r="0.0100" /> 
<circle cx="14.5260" cy="5.0250" r="0.0100" /> 
<circle cx="14.5260" cy="5.0250" r="0.0100" /> 
</g>
<g style="fill:none; 
stroke:#000000; stroke-width:0.0200; stroke-opacity:1; 
stroke-linecap:round; stroke-linejoin:round;">
<path d="M14.5260 6.2260
L14.5260 2.2270
" />
<path d="M14.5260 6.2260
L14.5300 6.2260
" />
<path d="M14.5260 6.7360
L14.5260 6.2260
" />
<path d="M14.5260 6.7360
L14.5260 6.7390
" />
<path d="M14.5260 6.7390
L14.5260 6.7410
" />
<path d="M14.5260 6.7410
L14.5260 6.7440
" />
<path d="M14.5260 6.7440
L14.5260 6.7460
" />
<path d="M14.5260 6.7460
L14.5240 6.7490
" />
<path d="M14.5260 7.0820
L14.5260 7.0850
" />
<path d="M14.5260 7.0850
L14.5260 7.9270
" />
<path d="M14.5260 7.9270
L10.2760 7.9270
" />
<path d="M14.5270 1.3700
L14.5100 1.3680
" />
<path d="M14.5270 7.0820
L14.5450 7.0790
" />
</g>
<g style="fill:#000000; fill-opacity:1.0000; stroke:none;">
<circle cx="14.5300" cy="2.2270" r="0.0100" /> 
</g>
<g style="fill:none; 
stroke:#000000; stroke-width:0.0200; stroke-opacity:1; 
stroke-linecap:round; stroke-linejoin:round;">
<path d="M14.5300 2.2270
L14.5430 2.2270
" />
</g>
<g style="fill:#000000; fill-opacity:1.0000; stroke:none;">
<circle cx="14.5300" cy="6.2260" r="0.0100" /> 
</g>
<g style="fill:none; 
stroke:#000000; stroke-width:0.0200; stroke-opacity:1; 
stroke-linecap:round; stroke-linejoin:round;">
<path d="M14.5300 6.2260
L14.5430 6.2260
" />
</g>
<g style="fill:#000000; fill-opacity:1.0000; stroke:none;">
<circle cx="14.5430" cy="2.2270" r="0.0100" /> 
</g>
<g style="fill:none; 
stroke:#000000; stroke-width:0.0200; stroke-opacity:1; 
stroke-linecap:round; stroke-linejoin:round;">
<path d="M14.5430 2.2270
L14.5650 2.2270
" />
</g>
<g style="fill:#000000; fill-opacity:1.0000; stroke:none;">
<circle cx="14.5430" cy="6.2260" r="0.0100" /> 
</g>
<g style="fill:none; 
stroke:#000000; stroke-width:0.0200; stroke-opacity:1; 
stroke-linecap:round; stroke-linejoin:round;">
<path d="M14.5430 6.2260
L14.5650 6.2260
" />
<path d="M14.5450 1.3720
L14.5270 1.3700
" />
<path d="M14.5450 7.0790
L14.5610 7.0760
" />
<path d="M14.5610 1.3760
L14.5450 1.3720
" />
<path d="M14.5610 7.0760
L14.5770 7.0710
" />
</g>
<g style="fill:#000000; fill-opacity:1.0000; stroke:none;">
<circle cx="14.5650" cy="2.2270" r="0.0100" /> 
</g>
<g style="fill:none; 
stroke:#000000; stroke-width:0.0200; stroke-opacity:1; 
stroke-linecap:round; stroke-linejoin:round;">
<path d="M14.5650 2.2270
L14.6330 2.2270
" />
</g>
<g style="fill:#000000; fill-opacity:1.0000; stroke:none;">
<circle cx="14.5650" cy="6.2260" r="0.0100" /> 
</g>
<g style="fill:none; 
stroke:#000000; stroke-width:0.0200; stroke-opacity:1; 
stroke-linecap:round; stroke-linejoin:round;">
<path d="M14.5650 6.2260
L14.6330 6.2260
" />
<path d="M14.5770 1.3820
L14.5610 1.3760
" />
<path d="M14.5770 7.0710
L14.5940 7.0660
" />
<path d="M14.5940 1.3860
L14.5770 1.3820
" />
<path d="M14.5940 7.0660
L14.6090 7.0600
" />
<path d="M14.6090 1.3920
L14.5940 1.3860
" />
<path d="M14.6090 7.0600
L14.6250 7.0530
" />
<path d="M14.6250 1.4000
L14.6090 1.3920
" />
<path d="M14.6250 7.0530
L14.6410 7.0450
" />
</g>
<g style="fill:#000000; fill-opacity:1.0000; stroke:none;">
<circle cx="14.6330" cy="2.2270" r="0.0100" /> 
</g>
<g style="fill:none; 
stroke:#000000; stroke-width:0.0200; stroke-opacity:1; 
stroke-linecap:round; stroke-linejoin:round;">
<path d="M14.6330 2.2270
L14.7310 2.2270
" />
</g>
<g style="fill:#000000; fill-opacity:1.0000; stroke:none;">
<circle cx="14.6330" cy="6.2260" r="0.0100" /> 
</g>
<g style="fill:none; 
stroke:#000000; stroke-width:0.0200; stroke-opacity:1; 
stroke-linecap:round; stroke-linejoin:round;">
<path d="M14.6330 6.2260
L14.7310 6.2260
" />
<path d="M14.6410 1.4080
L14.6250 1.4000
" />
<path d="M14.6410 7.0450
L14.6550 7.0370
" />
<path d="M14.6550 1.4160
L14.6410 1.4080
" />
<path d="M14.6550 7.0370
L14.6700 7.0280
" />
<path d="M14.6700 1.4240
L14.6550 1.4160
" />
<path d="M14.6700 7.0280
L14.6840 7.0180
" />
<path d="M14.6840 1.4340
L14.6700 1.4240
" />
<path d="M14.6840 7.0180
L14.6970 7.0070
" />
<path d="M14.6970 1.4460
L14.6840 1.4340
" />
<path d="M14.6970 7.0070
L14.7110 6.9960
" />
<path d="M14.7110 1.4570
L14.6970 1.4460
" />
<path d="M14.7110 6.9960
L14.7240 6.9830
" />
<path d="M14.7240 1.4690
L14.7110 1.4570
" />
</g>
<g style="fill:#000000; fill-opacity:1.0000; stroke:none;">
<circle cx="14.7240" cy="1.4690" r="0.0100" /> 
<circle cx="14.7240" cy="6.9830" r="0.0100" /> 
</g>
<g style="fill:none; 
stroke:#000000; stroke-width:0.0200; stroke-opacity:1; 
stroke-linecap:round; stroke-linejoin:round;">
<path d="M14.7240 6.9830
L14.7350 6.9700
" />
</g>
<g style="fill:#000000; fill-opacity:1.0000; stroke:none;">
<circle cx="14.7310" cy="2.2270" r="0.0100" /> 
</g>
<g style="fill:none; 
stroke:#000000; stroke-width:0.0200; stroke-opacity:1; 
stroke-linecap:round; stroke-linejoin:round;">
<path d="M14.7310 2.2270
L15.2250 2.2270
" />
</g>
<g style="fill:#000000; fill-opacity:1.0000; stroke:none;">
<circle cx="14.7310" cy="6.2260" r="0.0100" /> 
</g>
<g style="fill:none; 
stroke:#000000; stroke-width:0.0200; stroke-opacity:1; 
stroke-linecap:round; stroke-linejoin:round;">
<path d="M14.7310 6.2260
L15.2250 6.2260
" />
<path d="M14.7350 1.4810
L14.7240 1.4690
" />
<path d="M14.7350 6.9700
L14.7470 6.9570
" />
<path d="M14.7470 1.4950
L14.7350 1.4810
" />
<path d="M14.7470 6.9570
L14.7570 6.9440
" />
<path d="M14.7570 1.5070
L14.7470 1.4950
" />
<path d="M14.7570 6.9440
L14.7670 6.9300
" />
<path d="M14.7670 1.5210
L14.7570 1.5070
" />
<path d="M14.7670 6.9300
L14.7760 6.9150
" />
<path d="M14.7760 1.5370
L14.7670 1.5210
" />
<path d="M14.7760 6.9150
L14.7850 6.9010
" />
<path d="M14.7850 1.5510
L14.7760 1.5370
" />
<path d="M14.7850 6.9010
L14.7920 6.8850
" />
<path d="M14.7920 1.5670
L14.7850 1.5510
" />
<path d="M14.7920 6.8850
L14.7990 6.8690
" />
<path d="M14.7990 1.5820
L14.7920 1.5670
" />
<path d="M14.7990 6.8690
L14.8050 6.8550
" />
<path d="M14.8050 1.5980
L14.7990 1.5820
" />
<path d="M14.8050 6.8550
L14.8110 6.8370
" />
<path d="M14.8110 1.6140
L14.8050 1.5980
" />
<path d="M14.8110 6.8370
L14.8150 6.8210
" />
<path d="M14.8150 1.6300
L14.8110 1.6140
" />
<path d="M14.8150 6.8210
L14.8200 6.8050
" />
<path d="M14.8200 1.6480
L14.8150 1.6300
" />
<path d="M14.8200 6.8050
L14.8220 6.7870
" />
<path d="M14.8220 1.6640
L14.8200 1.6480
" />
<path d="M14.8220 6.7870
L14.8240 6.7710
" />
<path d="M14.8240 1.6820
L14.8220 1.6640
" />
<path d="M14.8240 6.7710
L14.8250 6.7540
" />
<path d="M14.8250 1.6980
L14.8240 1.6820
" />
<path d="M14.8250 6.7540
L14.8270 6.7360
" />
<path d="M14.8270 1.7170
L14.8250 1.6980
" />
<path d="M14.8270 1.7170
L14.8270 2.2270
" />
<path d="M14.8270 6.2260
L14.8270 6.7360
" />
<path d="M14.8270 6.6370
L14.9110 6.6370
" />
<path d="M14.9110 6.6370
L14.9950 6.6370
" />
<path d="M14.9950 6.3870
L14.9950 6.4840
" />
</g>
<g style="fill:#000000; fill-opacity:1.0000; stroke:none;">
<circle cx="14.9950" cy="6.4840" r="0.0100" /> 
<circle cx="14.9950" cy="6.4840" r="0.0100" /> 
</g>
<g style="fill:none; 
stroke:#000000; stroke-width:0.0200; stroke-opacity:1; 
stroke-linecap:round; stroke-linejoin:round;">
<path d="M14.9950 6.6370
L14.9950 6.2260
" />
<path d="M15.2250 2.2270
L15.4270 2.2270
" />
<path d="M15.2250 6.2260
L15.4270 6.2260
" />
<path d="M15.4270 2.2270
L15.4270 6.2260
" />
</g> 
</svg>
