{
  "accessors": [
    {
      "bufferView": 0,
      "byteOffset": 0,
      "componentType": 5126,
      "normalized": false,
      "count": 31394,
      "type": "VEC3",
      "max": [
        5.845919132232666,
        0.2897947430610657,
        7.249003887176514
      ],
      "min": [
        -5.846193790435791,
        -0.012000009417533875,
        -7.250420093536377
      ]
    },
    {
      "bufferView": 0,
      "byteOffset": 12,
      "componentType": 5126,
      "normalized": false,
      "count": 31394,
      "type": "VEC3"
    },
    {
      "bufferView": 0,
      "byteOffset": 24,
      "componentType": 5126,
      "normalized": false,
      "count": 31394,
      "type": "VEC2"
    },
    {
      "bufferView": 0,
      "byteOffset": 32,
      "componentType": 5126,
      "normalized": false,
      "count": 31394,
      "type": "VEC2"
    },
    {
      "bufferView": 1,
      "byteOffset": 0,
      "componentType": 5123,
      "normalized": false,
      "count": 116409,
      "type": "SCALAR"
    },
    {
      "bufferView": 1,
      "byteOffset": 232820,
      "componentType": 5123,
      "normalized": false,
      "count": 30,
      "type": "SCALAR"
    },
    {
      "bufferView": 1,
      "byteOffset": 232880,
      "componentType": 5123,
      "normalized": false,
      "count": 6,
      "type": "SCALAR"
    },
    {
      "bufferView": 2,
      "byteOffset": 0,
      "componentType": 5126,
      "normalized": false,
      "count": 22,
      "type": "VEC3",
      "max": [
        6.19974422454834,
        0.9995770454406738,
        7.5
      ],
      "min": [
        -6.199999809265137,
        0.2900000214576721,
        -7.5
      ]
    },
    {
      "bufferView": 2,
      "byteOffset": 12,
      "componentType": 5126,
      "normalized": false,
      "count": 22,
      "type": "VEC3"
    },
    {
      "bufferView": 2,
      "byteOffset": 24,
      "componentType": 5126,
      "normalized": false,
      "count": 22,
      "type": "VEC2"
    },
    {
      "bufferView": 2,
      "byteOffset": 32,
      "componentType": 5126,
      "normalized": false,
      "count": 22,
      "type": "VEC2"
    },
    {
      "bufferView": 3,
      "byteOffset": 0,
      "componentType": 5126,
      "normalized": false,
      "count": 4,
      "type": "VEC3",
      "max": [
        6.19974422454834,
        0.9999999403953552,
        7.5
      ],
      "min": [
        -6.199999809265137,
        0.9999999403953552,
        -7.5
      ]
    },
    {
      "bufferView": 3,
      "byteOffset": 12,
      "componentType": 5126,
      "normalized": false,
      "count": 4,
      "type": "VEC3"
    },
    {
      "bufferView": 3,
      "byteOffset": 24,
      "componentType": 5126,
      "normalized": false,
      "count": 4,
      "type": "VEC2"
    },
    {
      "bufferView": 3,
      "byteOffset": 32,
      "componentType": 5126,
      "normalized": false,
      "count": 4,
      "type": "VEC2"
    }
  ],
  "asset": {
    "generator": "pygltflib@v1.16.5",
    "version": "2.0"
  },
  "bufferViews": [
    {
      "buffer": 0,
      "byteOffset": 0,
      "byteLength": 1255760,
      "byteStride": 40,
      "target": 34962
    },
    {
      "buffer": 0,
      "byteOffset": 1255760,
      "byteLength": 232892,
      "target": 34963
    },
    {
      "buffer": 0,
      "byteOffset": 1488652,
      "byteLength": 880,
      "byteStride": 40,
      "target": 34962
    },
    {
      "buffer": 0,
      "byteOffset": 1489532,
      "byteLength": 160,
      "byteStride": 40,
      "target": 34962
    }
  ],
  "buffers": [
    {
      "uri": "BGA-315_12.4x15mm_Layout15x21_P0.8x0.7mm-micron-technology-mt62f1g32d4dr-031-wt-b.bin",
      "byteLength": 1489692
    }
  ],
  "extensionsUsed": [
    "KHR_materials_ior",
    "KHR_materials_specular",
    "KHR_texture_basisu"
  ],
  "extensionsRequired": [
    "KHR_texture_basisu"
  ],
  "images": [
    {
      "uri": "micron-technology-mt62f1g32d4dr-031-wt-b-marking_normal.ktx2",
      "mimeType": "image/ktx2",
      "name": "micron-technology-mt62f1g32d4dr-031-wt-b-marking_normal"
    },
    {
      "uri": "micron-technology-mt62f1g32d4dr-031-wt-b-marking_color.ktx2",
      "mimeType": "image/ktx2",
      "name": "micron-technology-mt62f1g32d4dr-031-wt-b-marking_color"
    },
    {
      "uri": "micron-technology-mt62f1g32d4dr-031-wt-b-marking_metallic_roughness.ktx2",
      "mimeType": "image/ktx2",
      "name": "micron-technology-mt62f1g32d4dr-031-wt-b-marking_metallic_roughness"
    }
  ],
  "materials": [
    {
      "extensions": {
        "KHR_materials_ior": {
          "ior": 1.4500000476837158
        },
        "KHR_materials_specular": {
          "specularFactor": 0
        }
      },
      "pbrMetallicRoughness": {
        "baseColorFactor": [
          0.5394713282585144,
          0.5457167029380798,
          0.5775790810585022,
          1.0
        ],
        "metallicFactor": 0.7818182110786438,
        "roughnessFactor": 0.28863638639450073
      },
      "emissiveFactor": [
        0.0,
        0.0,
        0.0
      ],
      "alphaMode": "OPAQUE",
      "doubleSided": true,
      "name": "gltf_metal_pins"
    },
    {
      "pbrMetallicRoughness": {
        "baseColorFactor": [
          0.009133999235928059,
          0.009134066291153431,
          0.009134061634540558,
          1.0
        ],
        "metallicFactor": 0.13699999451637268,
        "roughnessFactor": 0.37063413858413696
      },
      "emissiveFactor": [
        0.0,
        0.0,
        0.0
      ],
      "alphaMode": "OPAQUE",
      "doubleSided": true,
      "name": "gltf_plastic_chip"
    },
    {
      "pbrMetallicRoughness": {
        "baseColorFactor": [
          1.0,
          1.0,
          1.0,
          1.0
        ],
        "metallicFactor": 1.0,
        "roughnessFactor": 1.0,
        "baseColorTexture": {
          "index": 0,
          "texCoord": 1
        },
        "metallicRoughnessTexture": {
          "index": 2,
          "texCoord": 1
        }
      },
      "normalTexture": {
        "index": 1,
        "texCoord": 1,
        "scale": 1.0
      },
      "emissiveFactor": [
        0.0,
        0.0,
        0.0
      ],
      "alphaMode": "OPAQUE",
      "doubleSided": true,
      "name": "gltf_micron-technology-mt62f1g32d4dr-031-wt-b-marking"
    }
  ],
  "meshes": [
    {
      "primitives": [
        {
          "attributes": {
            "POSITION": 0,
            "NORMAL": 1,
            "TEXCOORD_0": 2,
            "TEXCOORD_1": 3
          },
          "indices": 4,
          "mode": 4,
          "material": 0
        },
        {
          "attributes": {
            "POSITION": 7,
            "NORMAL": 8,
            "TEXCOORD_0": 9,
            "TEXCOORD_1": 10
          },
          "indices": 5,
          "mode": 4,
          "material": 1
        },
        {
          "attributes": {
            "POSITION": 11,
            "NORMAL": 12,
            "TEXCOORD_0": 13,
            "TEXCOORD_1": 14
          },
          "indices": 6,
          "mode": 4,
          "material": 2
        }
      ],
      "name": "BGA-315_12.4x15mm_Layout15x21_P0.8x0.7mm-micron-technology-mt62"
    }
  ],
  "nodes": [
    {
      "extras": {
        "PRIO": 0,
        "DISPLAY_ROT": "90",
        "model_diagonal": 19.488051069004623
      },
      "mesh": 0,
      "name": "BGA-315_12.4x15mm_Layout15x21_P0.8x0.7mm-micron-technology-mt62"
    }
  ],
  "samplers": [
    {
      "magFilter": 9729,
      "minFilter": 9987,
      "wrapS": 10497,
      "wrapT": 10497
    }
  ],
  "scene": 0,
  "scenes": [
    {
      "name": "Scene",
      "nodes": [
        0
      ]
    }
  ],
  "textures": [
    {
      "extensions": {
        "KHR_texture_basisu": {
          "source": 1
        }
      },
      "sampler": 0
    },
    {
      "extensions": {
        "KHR_texture_basisu": {
          "source": 0
        }
      },
      "sampler": 0
    },
    {
      "extensions": {
        "KHR_texture_basisu": {
          "source": 2
        }
      },
      "sampler": 0
    }
  ]
}