<?xml version="1.0" standalone="no"?>
 <!DOCTYPE svg PUBLIC "-//W3C//DTD SVG 1.1//EN" 
 "http://www.w3.org/Graphics/SVG/1.1/DTD/svg11.dtd"> 
<svg
  xmlns:svg="http://www.w3.org/2000/svg"
  xmlns="http://www.w3.org/2000/svg"
  xmlns:xlink="http://www.w3.org/1999/xlink"
  version="1.1"
  width="2.5400mm" height="3.0480mm" viewBox="0.0000 0.0000 2.5400 3.0480">
<title>SVG Image created as outline.svg date 2025/06/16 09:17:44 </title>
  <desc>Image generated by PCBNEW </desc>
<g style="fill:#000000; fill-opacity:1.0000;stroke:#000000; stroke-opacity:1.0000;
stroke-linecap:round; stroke-linejoin:round;"
 transform="translate(0 0) scale(1 1)">
</g>
<g style="fill:none; 
stroke:#000000; stroke-width:0.0200; stroke-opacity:1; 
stroke-linecap:round; stroke-linejoin:round;">
<path d="M0.2750 0.3740
L0.2750 1.3230
" />
<path d="M0.2750 0.3740
L0.2790 0.3740
" />
<path d="M0.2750 1.7250
L0.2750 2.6730
" />
<path d="M0.2750 1.7250
L0.3240 1.7250
" />
<path d="M0.2790 0.3740
L0.2840 0.3740
" />
<path d="M0.2790 2.6750
L0.2750 2.6730
" />
<path d="M0.2840 0.3740
L0.2890 0.3720
" />
<path d="M0.2840 2.6750
L0.2790 2.6750
" />
<path d="M0.2890 0.3720
L0.2940 0.3720
" />
<path d="M0.2890 2.6750
L0.2840 2.6750
" />
<path d="M0.2940 0.3720
L0.2990 0.3710
" />
<path d="M0.2940 2.6750
L0.2890 2.6750
" />
<path d="M0.2990 0.3710
L0.3040 0.3690
" />
<path d="M0.2990 2.6780
L0.2940 2.6750
" />
<path d="M0.3040 0.3690
L0.3080 0.3690
" />
<path d="M0.3040 2.6780
L0.2990 2.6780
" />
<path d="M0.3080 0.3690
L0.3130 0.3670
" />
<path d="M0.3080 2.6800
L0.3040 2.6780
" />
<path d="M0.3130 0.3670
L0.3160 0.3650
" />
<path d="M0.3130 2.6820
L0.3080 2.6800
" />
<path d="M0.3160 0.3650
L0.3210 0.3630
" />
<path d="M0.3160 2.6840
L0.3130 2.6820
" />
<path d="M0.3210 0.3630
L0.3250 0.3590
" />
<path d="M0.3210 2.6860
L0.3160 2.6840
" />
<path d="M0.3240 0.4600
L0.3250 0.4520
" />
<path d="M0.3240 0.4660
L0.3240 0.4600
" />
<path d="M0.3240 0.4740
L0.3240 0.4660
" />
<path d="M0.3240 1.3230
L0.2750 1.3230
" />
<path d="M0.3240 2.5750
L0.3240 0.4740
" />
<path d="M0.3240 2.5810
L0.3240 2.5750
" />
<path d="M0.3240 2.5890
L0.3240 2.5810
" />
<path d="M0.3250 0.3590
L0.3290 0.3570
" />
<path d="M0.3250 0.4520
L0.3260 0.4440
" />
<path d="M0.3250 2.5970
L0.3240 2.5890
" />
<path d="M0.3250 2.6880
L0.3210 2.6860
" />
<path d="M0.3260 0.4440
L0.3280 0.4380
" />
<path d="M0.3260 2.6030
L0.3250 2.5970
" />
<path d="M0.3280 0.4380
L0.3300 0.4300
" />
<path d="M0.3280 2.6110
L0.3260 2.6030
" />
<path d="M0.3290 0.3570
L0.3330 0.3550
" />
<path d="M0.3290 2.6900
L0.3250 2.6880
" />
<path d="M0.3300 0.4300
L0.3320 0.4240
" />
<path d="M0.3300 2.6170
L0.3280 2.6110
" />
<path d="M0.3320 0.4240
L0.3350 0.4160
" />
<path d="M0.3320 2.6250
L0.3300 2.6170
" />
<path d="M0.3330 0.3550
L0.3370 0.3510
" />
<path d="M0.3330 2.6940
L0.3290 2.6900
" />
<path d="M0.3350 0.4160
L0.3380 0.4100
" />
<path d="M0.3350 2.6310
L0.3320 2.6250
" />
<path d="M0.3370 0.3510
L0.3410 0.3490
" />
<path d="M0.3370 2.6960
L0.3330 2.6940
" />
<path d="M0.3380 0.4100
L0.3410 0.4040
" />
<path d="M0.3380 2.6390
L0.3350 2.6310
" />
<path d="M0.3410 0.3490
L0.3440 0.3450
" />
<path d="M0.3410 0.4040
L0.3450 0.3960
" />
<path d="M0.3410 2.6450
L0.3380 2.6390
" />
<path d="M0.3410 2.7000
L0.3370 2.6960
" />
</g>
<g style="fill:#000000; fill-opacity:1.0000; stroke:none;">
<circle cx="0.3440" cy="0.3450" r="0.0100" /> 
</g>
<g style="fill:none; 
stroke:#000000; stroke-width:0.0200; stroke-opacity:1; 
stroke-linecap:round; stroke-linejoin:round;">
<path d="M0.3440 0.3450
L0.3480 0.3410
" />
<path d="M0.3440 2.7040
L0.3410 2.7000
" />
</g>
<g style="fill:#000000; fill-opacity:1.0000; stroke:none;">
<circle cx="0.3440" cy="2.7040" r="0.0100" /> 
</g>
<g style="fill:none; 
stroke:#000000; stroke-width:0.0200; stroke-opacity:1; 
stroke-linecap:round; stroke-linejoin:round;">
<path d="M0.3450 0.3960
L0.3490 0.3900
" />
<path d="M0.3450 2.6510
L0.3410 2.6450
" />
<path d="M0.3480 0.3410
L0.3510 0.3370
" />
<path d="M0.3480 2.7060
L0.3440 2.7040
" />
<path d="M0.3490 0.3900
L0.3530 0.3840
" />
<path d="M0.3490 2.6570
L0.3450 2.6510
" />
<path d="M0.3510 0.3370
L0.3540 0.3330
" />
<path d="M0.3510 2.7100
L0.3480 2.7060
" />
<path d="M0.3530 0.3840
L0.3570 0.3780
" />
<path d="M0.3530 2.6630
L0.3490 2.6570
" />
<path d="M0.3540 0.3330
L0.3570 0.3290
" />
<path d="M0.3540 2.7140
L0.3510 2.7100
" />
<path d="M0.3570 0.3290
L0.3590 0.3250
" />
<path d="M0.3570 0.3780
L0.3620 0.3740
" />
<path d="M0.3570 2.6690
L0.3530 2.6630
" />
<path d="M0.3570 2.7180
L0.3540 2.7140
" />
<path d="M0.3590 0.3250
L0.3620 0.3210
" />
<path d="M0.3590 2.7220
L0.3570 2.7180
" />
<path d="M0.3620 0.3210
L0.3640 0.3170
" />
<path d="M0.3620 0.3740
L0.3670 0.3670
" />
<path d="M0.3620 2.6750
L0.3570 2.6690
" />
<path d="M0.3620 2.7260
L0.3590 2.7220
" />
<path d="M0.3640 0.3170
L0.3660 0.3130
" />
<path d="M0.3640 2.7320
L0.3620 2.7260
" />
<path d="M0.3660 0.3130
L0.3680 0.3070
" />
<path d="M0.3660 2.7360
L0.3640 2.7320
" />
</g>
<g style="fill:#000000; fill-opacity:1.0000; stroke:none;">
<circle cx="0.3670" cy="0.3670" r="0.0100" /> 
</g>
<g style="fill:none; 
stroke:#000000; stroke-width:0.0200; stroke-opacity:1; 
stroke-linecap:round; stroke-linejoin:round;">
<path d="M0.3670 0.3670
L0.3730 0.3630
" />
<path d="M0.3670 2.6800
L0.3620 2.6750
" />
</g>
<g style="fill:#000000; fill-opacity:1.0000; stroke:none;">
<circle cx="0.3670" cy="2.6800" r="0.0100" /> 
</g>
<g style="fill:none; 
stroke:#000000; stroke-width:0.0200; stroke-opacity:1; 
stroke-linecap:round; stroke-linejoin:round;">
<path d="M0.3680 0.3070
L0.3690 0.3030
" />
<path d="M0.3680 2.7400
L0.3660 2.7360
" />
<path d="M0.3690 0.3030
L0.3700 0.2990
" />
<path d="M0.3690 2.7440
L0.3680 2.7400
" />
<path d="M0.3700 0.2990
L0.3720 0.2930
" />
<path d="M0.3700 2.7500
L0.3690 2.7440
" />
<path d="M0.3720 0.2890
L0.3730 0.2830
" />
<path d="M0.3720 0.2930
L0.3720 0.2890
" />
<path d="M0.3720 2.7540
L0.3700 2.7500
" />
<path d="M0.3720 2.7600
L0.3720 2.7540
" />
<path d="M0.3730 0.2790
L0.3730 0.2750
" />
<path d="M0.3730 0.2830
L0.3730 0.2790
" />
<path d="M0.3730 0.3630
L0.3790 0.3570
" />
<path d="M0.3730 0.4740
L0.3730 2.5750
" />
<path d="M0.3730 2.5750
L0.3740 2.5790
" />
<path d="M0.3730 2.6860
L0.3670 2.6800
" />
<path d="M0.3730 2.7640
L0.3720 2.7600
" />
<path d="M0.3730 2.7700
L0.3730 2.7640
" />
<path d="M0.3730 2.7740
L0.3730 2.7700
" />
<path d="M0.3730 2.7740
L2.1750 2.7740
" />
<path d="M0.3740 0.4640
L0.3740 0.4680
" />
<path d="M0.3740 0.4680
L0.3730 0.4740
" />
<path d="M0.3740 2.5790
L0.3740 2.5850
" />
<path d="M0.3740 2.5850
L0.3750 2.5890
" />
<path d="M0.3750 0.4580
L0.3740 0.4640
" />
<path d="M0.3750 2.5890
L0.3760 2.5950
" />
<path d="M0.3760 0.4540
L0.3750 0.4580
" />
<path d="M0.3760 2.5950
L0.3770 2.5990
" />
<path d="M0.3770 0.4500
L0.3760 0.4540
" />
<path d="M0.3770 2.5990
L0.3790 2.6030
" />
<path d="M0.3790 0.3570
L0.3850 0.3530
" />
<path d="M0.3790 0.4440
L0.3770 0.4500
" />
<path d="M0.3790 2.6030
L0.3810 2.6090
" />
<path d="M0.3790 2.6900
L0.3730 2.6860
" />
<path d="M0.3810 0.4400
L0.3790 0.4440
" />
<path d="M0.3810 2.6090
L0.3820 2.6130
" />
<path d="M0.3820 0.4360
L0.3810 0.4400
" />
<path d="M0.3820 2.6130
L0.3840 2.6170
" />
<path d="M0.3840 0.4300
L0.3820 0.4360
" />
<path d="M0.3840 2.6170
L0.3870 2.6210
" />
<path d="M0.3850 0.3530
L0.3910 0.3490
" />
<path d="M0.3850 2.6940
L0.3790 2.6900
" />
<path d="M0.3870 0.4260
L0.3840 0.4300
" />
<path d="M0.3870 2.6210
L0.3890 2.6250
" />
<path d="M0.3890 0.4220
L0.3870 0.4260
" />
<path d="M0.3890 2.6250
L0.3920 2.6290
" />
<path d="M0.3910 0.3490
L0.3970 0.3450
" />
<path d="M0.3910 2.6980
L0.3850 2.6940
" />
<path d="M0.3920 0.4180
L0.3890 0.4220
" />
<path d="M0.3920 2.6290
L0.3940 2.6330
" />
<path d="M0.3940 0.4140
L0.3920 0.4180
" />
<path d="M0.3940 2.6330
L0.3970 2.6370
" />
<path d="M0.3970 0.3450
L0.4040 0.3410
" />
<path d="M0.3970 0.4100
L0.3940 0.4140
" />
<path d="M0.3970 2.6370
L0.4000 2.6410
" />
<path d="M0.3970 2.7020
L0.3910 2.6980
" />
<path d="M0.4000 0.4060
L0.3970 0.4100
" />
<path d="M0.4000 2.6410
L0.4040 2.6450
" />
<path d="M0.4040 0.3410
L0.4100 0.3390
" />
<path d="M0.4040 0.4040
L0.4000 0.4060
" />
<path d="M0.4040 2.6450
L0.4070 2.6490
" />
<path d="M0.4040 2.7060
L0.3970 2.7020
" />
<path d="M0.4070 0.4000
L0.4040 0.4040
" />
<path d="M0.4070 2.6490
L0.4110 2.6510
" />
<path d="M0.4100 0.3390
L0.4170 0.3350
" />
<path d="M0.4100 2.7100
L0.4040 2.7060
" />
<path d="M0.4110 0.3960
L0.4070 0.4000
" />
<path d="M0.4110 2.6510
L0.4150 2.6550
" />
<path d="M0.4150 0.3940
L0.4110 0.3960
" />
<path d="M0.4150 2.6550
L0.4190 2.6570
" />
<path d="M0.4170 0.3350
L0.4240 0.3330
" />
<path d="M0.4170 2.7120
L0.4100 2.7100
" />
<path d="M0.4190 0.3920
L0.4150 0.3940
" />
<path d="M0.4190 2.6570
L0.4230 2.6590
" />
<path d="M0.4230 0.3880
L0.4190 0.3920
" />
<path d="M0.4230 2.6590
L0.4270 2.6610
" />
<path d="M0.4240 0.3330
L0.4310 0.3310
" />
<path d="M0.4240 2.7160
L0.4170 2.7120
" />
<path d="M0.4270 0.3860
L0.4230 0.3880
" />
<path d="M0.4270 2.6610
L0.4310 2.6650
" />
<path d="M0.4310 0.3310
L0.4380 0.3290
" />
<path d="M0.4310 0.3840
L0.4270 0.3860
" />
<path d="M0.4310 2.6650
L0.4360 2.6670
" />
<path d="M0.4310 2.7180
L0.4240 2.7160
" />
<path d="M0.4360 0.3820
L0.4310 0.3840
" />
<path d="M0.4360 2.6670
L0.4400 2.6670
" />
<path d="M0.4380 0.3290
L0.4440 0.3270
" />
<path d="M0.4380 2.7200
L0.4310 2.7180
" />
<path d="M0.4400 0.3800
L0.4360 0.3820
" />
<path d="M0.4400 2.6670
L0.4440 2.6690
" />
<path d="M0.4440 0.3270
L0.4510 0.3250
" />
<path d="M0.4440 0.3780
L0.4400 0.3800
" />
<path d="M0.4440 2.6690
L0.4490 2.6710
" />
<path d="M0.4440 2.7220
L0.4380 2.7200
" />
<path d="M0.4490 0.3780
L0.4440 0.3780
" />
<path d="M0.4490 2.6710
L0.4530 2.6710
" />
<path d="M0.4510 0.3250
L0.4590 0.3250
" />
<path d="M0.4510 2.7220
L0.4440 2.7220
" />
<path d="M0.4530 0.3760
L0.4490 0.3780
" />
<path d="M0.4530 2.6710
L0.4580 2.6730
" />
<path d="M0.4580 0.3760
L0.4530 0.3760
" />
<path d="M0.4580 2.6730
L0.4630 2.6730
" />
<path d="M0.4590 0.3250
L0.4660 0.3250
" />
<path d="M0.4590 2.7240
L0.4510 2.7220
" />
<path d="M0.4630 0.3740
L0.4580 0.3760
" />
<path d="M0.4630 2.6730
L0.4680 2.6730
" />
<path d="M0.4660 0.3250
L0.4730 0.3250
" />
<path d="M0.4660 2.7240
L0.4590 2.7240
" />
<path d="M0.4680 0.3740
L0.4630 0.3740
" />
<path d="M0.4680 2.6730
L0.4730 2.6730
" />
<path d="M0.4730 0.3250
L2.0750 0.3250
" />
<path d="M0.4730 0.3740
L0.4680 0.3740
" />
<path d="M0.4730 2.6730
L2.0750 2.6730
" />
<path d="M0.4730 2.7240
L0.4660 2.7240
" />
<path d="M2.0750 0.3250
L2.0820 0.3250
" />
<path d="M2.0750 0.3740
L0.4730 0.3740
" />
<path d="M2.0750 2.6730
L2.0800 2.6730
" />
<path d="M2.0750 2.7240
L0.4730 2.7240
" />
<path d="M2.0800 0.3740
L2.0750 0.3740
" />
<path d="M2.0800 2.6730
L2.0850 2.6730
" />
<path d="M2.0820 0.3250
L2.0890 0.3250
" />
<path d="M2.0820 2.7240
L2.0750 2.7240
" />
<path d="M2.0850 0.3740
L2.0800 0.3740
" />
<path d="M2.0850 2.6730
L2.0900 2.6730
" />
<path d="M2.0890 0.3250
L2.0970 0.3250
" />
<path d="M2.0890 2.7240
L2.0820 2.7240
" />
<path d="M2.0900 0.3760
L2.0850 0.3740
" />
<path d="M2.0900 2.6730
L2.0950 2.6710
" />
<path d="M2.0950 0.3760
L2.0900 0.3760
" />
<path d="M2.0950 2.6710
L2.0990 2.6710
" />
<path d="M2.0970 0.3250
L2.1040 0.3270
" />
<path d="M2.0970 2.7220
L2.0890 2.7240
" />
<path d="M2.0990 0.3780
L2.0950 0.3760
" />
<path d="M2.0990 2.6710
L2.1040 2.6690
" />
<path d="M2.1040 0.3270
L2.1100 0.3290
" />
<path d="M2.1040 0.3780
L2.0990 0.3780
" />
<path d="M2.1040 2.6690
L2.1080 2.6670
" />
<path d="M2.1040 2.7220
L2.0970 2.7220
" />
<path d="M2.1080 0.3800
L2.1040 0.3780
" />
<path d="M2.1080 2.6670
L2.1120 2.6670
" />
<path d="M2.1100 0.3290
L2.1170 0.3310
" />
<path d="M2.1100 2.7200
L2.1040 2.7220
" />
<path d="M2.1120 0.3820
L2.1080 0.3800
" />
<path d="M2.1120 2.6670
L2.1170 2.6650
" />
<path d="M2.1170 0.3310
L2.1240 0.3330
" />
<path d="M2.1170 0.3840
L2.1120 0.3820
" />
<path d="M2.1170 2.6650
L2.1210 2.6610
" />
<path d="M2.1170 2.7180
L2.1100 2.7200
" />
<path d="M2.1210 0.3860
L2.1170 0.3840
" />
<path d="M2.1210 2.6610
L2.1250 2.6590
" />
<path d="M2.1240 0.3330
L2.1310 0.3350
" />
<path d="M2.1240 2.7160
L2.1170 2.7180
" />
<path d="M2.1250 0.3880
L2.1210 0.3860
" />
<path d="M2.1250 2.6590
L2.1290 2.6570
" />
<path d="M2.1290 0.3920
L2.1250 0.3880
" />
<path d="M2.1290 2.6570
L2.1330 2.6550
" />
<path d="M2.1310 0.3350
L2.1380 0.3390
" />
<path d="M2.1310 2.7120
L2.1240 2.7160
" />
<path d="M2.1330 0.3940
L2.1290 0.3920
" />
<path d="M2.1330 2.6550
L2.1370 2.6510
" />
<path d="M2.1370 0.3960
L2.1330 0.3940
" />
<path d="M2.1370 2.6510
L2.1410 2.6490
" />
<path d="M2.1380 0.3390
L2.1440 0.3410
" />
<path d="M2.1380 2.7100
L2.1310 2.7120
" />
<path d="M2.1410 0.4000
L2.1370 0.3960
" />
<path d="M2.1410 2.6490
L2.1440 2.6450
" />
<path d="M2.1440 0.3410
L2.1510 0.3450
" />
<path d="M2.1440 0.4040
L2.1410 0.4000
" />
<path d="M2.1440 2.6450
L2.1480 2.6410
" />
<path d="M2.1440 2.7060
L2.1380 2.7100
" />
<path d="M2.1480 0.4060
L2.1440 0.4040
" />
<path d="M2.1480 2.6410
L2.1510 2.6370
" />
<path d="M2.1510 0.3450
L2.1570 0.3490
" />
<path d="M2.1510 0.4100
L2.1480 0.4060
" />
<path d="M2.1510 2.6370
L2.1540 2.6330
" />
<path d="M2.1510 2.7020
L2.1440 2.7060
" />
<path d="M2.1540 0.4140
L2.1510 0.4100
" />
<path d="M2.1540 2.6330
L2.1560 2.6290
" />
<path d="M2.1560 0.4180
L2.1540 0.4140
" />
<path d="M2.1560 2.6290
L2.1590 2.6250
" />
<path d="M2.1570 0.3490
L2.1630 0.3530
" />
<path d="M2.1570 2.6980
L2.1510 2.7020
" />
<path d="M2.1590 0.4220
L2.1560 0.4180
" />
<path d="M2.1590 2.6250
L2.1610 2.6210
" />
<path d="M2.1610 0.4260
L2.1590 0.4220
" />
<path d="M2.1610 2.6210
L2.1640 2.6170
" />
<path d="M2.1630 0.3530
L2.1690 0.3570
" />
<path d="M2.1630 2.6940
L2.1570 2.6980
" />
<path d="M2.1640 0.4300
L2.1610 0.4260
" />
<path d="M2.1640 2.6170
L2.1660 2.6130
" />
<path d="M2.1660 0.4360
L2.1640 0.4300
" />
<path d="M2.1660 2.6130
L2.1670 2.6090
" />
<path d="M2.1670 0.4400
L2.1660 0.4360
" />
<path d="M2.1670 2.6090
L2.1690 2.6030
" />
<path d="M2.1690 0.3570
L2.1750 0.3630
" />
<path d="M2.1690 0.4440
L2.1670 0.4400
" />
<path d="M2.1690 2.6030
L2.1710 2.5990
" />
<path d="M2.1690 2.6900
L2.1630 2.6940
" />
<path d="M2.1710 0.4500
L2.1690 0.4440
" />
<path d="M2.1710 2.5990
L2.1720 2.5950
" />
<path d="M2.1720 0.4540
L2.1710 0.4500
" />
<path d="M2.1720 2.5950
L2.1730 2.5890
" />
<path d="M2.1730 0.4580
L2.1720 0.4540
" />
<path d="M2.1730 2.5890
L2.1740 2.5850
" />
<path d="M2.1740 0.4640
L2.1730 0.4580
" />
<path d="M2.1740 0.4680
L2.1740 0.4640
" />
<path d="M2.1740 2.5790
L2.1750 2.5750
" />
<path d="M2.1740 2.5850
L2.1740 2.5790
" />
<path d="M2.1750 0.2750
L0.3730 0.2750
" />
<path d="M2.1750 0.2750
L2.1750 0.2790
" />
<path d="M2.1750 0.2790
L2.1750 0.2830
" />
<path d="M2.1750 0.2830
L2.1760 0.2890
" />
<path d="M2.1750 0.3630
L2.1810 0.3670
" />
<path d="M2.1750 0.4740
L2.1740 0.4680
" />
<path d="M2.1750 2.5750
L2.1750 0.4740
" />
<path d="M2.1750 2.6860
L2.1690 2.6900
" />
<path d="M2.1750 2.7640
L2.1750 2.7700
" />
<path d="M2.1750 2.7700
L2.1750 2.7740
" />
<path d="M2.1760 0.2890
L2.1760 0.2930
" />
<path d="M2.1760 0.2930
L2.1780 0.2990
" />
<path d="M2.1760 2.7540
L2.1760 2.7600
" />
<path d="M2.1760 2.7600
L2.1750 2.7640
" />
<path d="M2.1780 0.2990
L2.1790 0.3030
" />
<path d="M2.1780 2.7500
L2.1760 2.7540
" />
<path d="M2.1790 0.3030
L2.1800 0.3070
" />
<path d="M2.1790 2.7440
L2.1780 2.7500
" />
<path d="M2.1800 0.3070
L2.1820 0.3130
" />
<path d="M2.1800 2.7400
L2.1790 2.7440
" />
</g>
<g style="fill:#000000; fill-opacity:1.0000; stroke:none;">
<circle cx="2.1810" cy="0.3670" r="0.0100" /> 
</g>
<g style="fill:none; 
stroke:#000000; stroke-width:0.0200; stroke-opacity:1; 
stroke-linecap:round; stroke-linejoin:round;">
<path d="M2.1810 0.3670
L2.1860 0.3740
" />
<path d="M2.1810 2.6800
L2.1750 2.6860
" />
</g>
<g style="fill:#000000; fill-opacity:1.0000; stroke:none;">
<circle cx="2.1810" cy="2.6800" r="0.0100" /> 
</g>
<g style="fill:none; 
stroke:#000000; stroke-width:0.0200; stroke-opacity:1; 
stroke-linecap:round; stroke-linejoin:round;">
<path d="M2.1820 0.3130
L2.1840 0.3170
" />
<path d="M2.1820 2.7360
L2.1800 2.7400
" />
<path d="M2.1840 0.3170
L2.1860 0.3210
" />
<path d="M2.1840 2.7320
L2.1820 2.7360
" />
<path d="M2.1860 0.3210
L2.1890 0.3250
" />
<path d="M2.1860 0.3740
L2.1910 0.3780
" />
<path d="M2.1860 2.6750
L2.1810 2.6800
" />
<path d="M2.1860 2.7260
L2.1840 2.7320
" />
<path d="M2.1890 0.3250
L2.1910 0.3290
" />
<path d="M2.1890 2.7220
L2.1860 2.7260
" />
<path d="M2.1910 0.3290
L2.1940 0.3330
" />
<path d="M2.1910 0.3780
L2.1950 0.3840
" />
<path d="M2.1910 2.6690
L2.1860 2.6750
" />
<path d="M2.1910 2.7180
L2.1890 2.7220
" />
<path d="M2.1940 0.3330
L2.1970 0.3370
" />
<path d="M2.1940 2.7140
L2.1910 2.7180
" />
<path d="M2.1950 0.3840
L2.1990 0.3900
" />
<path d="M2.1950 2.6630
L2.1910 2.6690
" />
<path d="M2.1970 0.3370
L2.2000 0.3410
" />
<path d="M2.1970 2.7100
L2.1940 2.7140
" />
<path d="M2.1990 0.3900
L2.2030 0.3960
" />
<path d="M2.1990 2.6570
L2.1950 2.6630
" />
<path d="M2.2000 0.3410
L2.2040 0.3450
" />
<path d="M2.2000 2.7060
L2.1970 2.7100
" />
<path d="M2.2030 0.3960
L2.2070 0.4040
" />
<path d="M2.2030 2.6510
L2.1990 2.6570
" />
</g>
<g style="fill:#000000; fill-opacity:1.0000; stroke:none;">
<circle cx="2.2040" cy="0.3450" r="0.0100" /> 
</g>
<g style="fill:none; 
stroke:#000000; stroke-width:0.0200; stroke-opacity:1; 
stroke-linecap:round; stroke-linejoin:round;">
<path d="M2.2040 0.3450
L2.2070 0.3490
" />
<path d="M2.2040 2.7040
L2.2000 2.7060
" />
</g>
<g style="fill:#000000; fill-opacity:1.0000; stroke:none;">
<circle cx="2.2040" cy="2.7040" r="0.0100" /> 
</g>
<g style="fill:none; 
stroke:#000000; stroke-width:0.0200; stroke-opacity:1; 
stroke-linecap:round; stroke-linejoin:round;">
<path d="M2.2070 0.3490
L2.2110 0.3510
" />
<path d="M2.2070 0.4040
L2.2100 0.4100
" />
<path d="M2.2070 2.6450
L2.2030 2.6510
" />
<path d="M2.2070 2.7000
L2.2040 2.7040
" />
<path d="M2.2100 0.4100
L2.2130 0.4160
" />
<path d="M2.2100 2.6390
L2.2070 2.6450
" />
<path d="M2.2110 0.3510
L2.2150 0.3550
" />
<path d="M2.2110 2.6960
L2.2070 2.7000
" />
<path d="M2.2130 0.4160
L2.2160 0.4240
" />
<path d="M2.2130 2.6310
L2.2100 2.6390
" />
<path d="M2.2150 0.3550
L2.2190 0.3570
" />
<path d="M2.2150 2.6940
L2.2110 2.6960
" />
<path d="M2.2160 0.4240
L2.2180 0.4300
" />
<path d="M2.2160 2.6250
L2.2130 2.6310
" />
<path d="M2.2180 0.4300
L2.2200 0.4380
" />
<path d="M2.2180 2.6170
L2.2160 2.6250
" />
<path d="M2.2190 0.3570
L2.2230 0.3590
" />
<path d="M2.2190 2.6900
L2.2150 2.6940
" />
<path d="M2.2200 0.4380
L2.2220 0.4440
" />
<path d="M2.2200 2.6110
L2.2180 2.6170
" />
<path d="M2.2220 0.4440
L2.2230 0.4520
" />
<path d="M2.2220 2.6030
L2.2200 2.6110
" />
<path d="M2.2230 0.3590
L2.2270 0.3630
" />
<path d="M2.2230 0.4520
L2.2240 0.4600
" />
<path d="M2.2230 2.5970
L2.2220 2.6030
" />
<path d="M2.2230 2.6880
L2.2190 2.6900
" />
<path d="M2.2240 0.4600
L2.2240 0.4660
" />
<path d="M2.2240 0.4660
L2.2240 0.4740
" />
<path d="M2.2240 0.4740
L2.2240 2.5750
" />
<path d="M2.2240 1.7250
L2.2730 1.7250
" />
<path d="M2.2240 2.5750
L2.2240 2.5810
" />
<path d="M2.2240 2.5810
L2.2240 2.5890
" />
<path d="M2.2240 2.5890
L2.2230 2.5970
" />
<path d="M2.2270 0.3630
L2.2320 0.3650
" />
<path d="M2.2270 2.6860
L2.2230 2.6880
" />
<path d="M2.2320 0.3650
L2.2350 0.3670
" />
<path d="M2.2320 2.6840
L2.2270 2.6860
" />
<path d="M2.2350 0.3670
L2.2400 0.3690
" />
<path d="M2.2350 2.6820
L2.2320 2.6840
" />
<path d="M2.2400 0.3690
L2.2440 0.3690
" />
<path d="M2.2400 2.6800
L2.2350 2.6820
" />
<path d="M2.2440 0.3690
L2.2490 0.3710
" />
<path d="M2.2440 2.6780
L2.2400 2.6800
" />
<path d="M2.2490 0.3710
L2.2540 0.3720
" />
<path d="M2.2490 2.6780
L2.2440 2.6780
" />
<path d="M2.2540 0.3720
L2.2590 0.3720
" />
<path d="M2.2540 2.6750
L2.2490 2.6780
" />
<path d="M2.2590 0.3720
L2.2640 0.3740
" />
<path d="M2.2590 2.6750
L2.2540 2.6750
" />
<path d="M2.2640 0.3740
L2.2690 0.3740
" />
<path d="M2.2640 2.6750
L2.2590 2.6750
" />
<path d="M2.2690 0.3740
L2.2730 0.3740
" />
<path d="M2.2690 2.6750
L2.2640 2.6750
" />
<path d="M2.2730 1.3230
L2.2240 1.3230
" />
<path d="M2.2730 1.3230
L2.2730 0.3740
" />
<path d="M2.2730 2.6730
L2.2690 2.6750
" />
<path d="M2.2730 2.6730
L2.2730 1.7250
" />
</g> 
</svg>
