<?xml version="1.0" standalone="no"?>
 <!DOCTYPE svg PUBLIC "-//W3C//DTD SVG 1.1//EN" 
 "http://www.w3.org/Graphics/SVG/1.1/DTD/svg11.dtd"> 
<svg
  xmlns:svg="http://www.w3.org/2000/svg"
  xmlns="http://www.w3.org/2000/svg"
  xmlns:xlink="http://www.w3.org/1999/xlink"
  version="1.1"
  width="3.1496mm" height="3.6322mm" viewBox="0.0000 0.0000 3.1496 3.6322">
<title>SVG Image created as outline.svg date 2025/04/04 10:06:27 </title>
  <desc>Image generated by PCBNEW </desc>
<g style="fill:#000000; fill-opacity:1.0000;stroke:#000000; stroke-opacity:1.0000;
stroke-linecap:round; stroke-linejoin:round;"
 transform="translate(0 0) scale(1 1)">
</g>
<g style="fill:none; 
stroke:#000000; stroke-width:0.0200; stroke-opacity:1; 
stroke-linecap:round; stroke-linejoin:round;">
<path d="M0.1780 1.1890
L0.3930 1.1890
" />
<path d="M0.1780 2.4590
L0.1780 1.1890
" />
<path d="M0.1780 2.4590
L0.3610 2.2740
" />
<path d="M0.3610 1.3740
L0.1780 1.1890
" />
<path d="M0.3610 1.3740
L0.3610 2.2740
" />
<path d="M0.3610 2.2740
L2.7860 2.2740
" />
<path d="M0.3930 0.6040
L0.8510 0.6040
" />
<path d="M0.3930 0.8080
L0.3930 0.6040
" />
<path d="M0.3930 0.8830
L0.3930 0.8080
" />
<path d="M0.3930 0.8830
L0.8510 0.8830
" />
<path d="M0.3930 1.1620
L0.3930 0.8830
" />
<path d="M0.3930 1.1980
L0.3930 1.1620
" />
<path d="M0.3930 2.4490
L0.3930 2.4720
" />
<path d="M0.3930 2.4490
L0.8510 2.4490
" />
<path d="M0.3930 2.4590
L0.1780 2.4590
" />
<path d="M0.3930 2.4720
L0.3930 2.7510
" />
<path d="M0.3930 2.7510
L0.3930 2.8270
" />
<path d="M0.3930 2.8270
L0.3930 3.0290
" />
<path d="M0.8510 0.8080
L0.8510 0.6040
" />
<path d="M0.8510 0.8830
L0.8510 0.8080
" />
<path d="M0.8510 1.1620
L0.8510 0.8830
" />
<path d="M0.8510 1.1890
L1.3450 1.1890
" />
<path d="M0.8510 1.1980
L0.3930 1.1980
" />
<path d="M0.8510 1.1980
L0.8510 1.1620
" />
<path d="M0.8510 2.4490
L0.8510 2.4720
" />
<path d="M0.8510 2.4720
L0.8510 2.7510
" />
<path d="M0.8510 2.7510
L0.3930 2.7510
" />
<path d="M0.8510 2.7510
L0.8510 2.8270
" />
<path d="M0.8510 2.8270
L0.8510 3.0290
" />
<path d="M0.8510 3.0290
L0.3930 3.0290
" />
<path d="M1.3450 0.6040
L1.8030 0.6040
" />
<path d="M1.3450 0.8080
L1.3450 0.6040
" />
<path d="M1.3450 0.8830
L1.3450 0.8080
" />
<path d="M1.3450 0.8830
L1.8030 0.8830
" />
<path d="M1.3450 1.1620
L1.3450 0.8830
" />
<path d="M1.3450 1.1980
L1.3450 1.1620
" />
<path d="M1.3450 2.4490
L1.3450 2.4720
" />
<path d="M1.3450 2.4490
L1.8030 2.4490
" />
<path d="M1.3450 2.4590
L0.8510 2.4590
" />
<path d="M1.3450 2.4720
L1.3450 2.7510
" />
<path d="M1.3450 2.7510
L1.3450 2.8270
" />
<path d="M1.3450 2.8270
L1.3450 3.0290
" />
<path d="M1.8030 0.8080
L1.8030 0.6040
" />
<path d="M1.8030 0.8830
L1.8030 0.8080
" />
<path d="M1.8030 1.1620
L1.8030 0.8830
" />
<path d="M1.8030 1.1890
L2.2970 1.1890
" />
<path d="M1.8030 1.1980
L1.3450 1.1980
" />
<path d="M1.8030 1.1980
L1.8030 1.1620
" />
<path d="M1.8030 2.4490
L1.8030 2.4720
" />
<path d="M1.8030 2.4720
L1.8030 2.7510
" />
<path d="M1.8030 2.7510
L1.3450 2.7510
" />
<path d="M1.8030 2.7510
L1.8030 2.8270
" />
<path d="M1.8030 2.8270
L1.8030 3.0290
" />
<path d="M1.8030 3.0290
L1.3450 3.0290
" />
<path d="M2.2970 0.6040
L2.7560 0.6040
" />
<path d="M2.2970 0.8080
L2.2970 0.6040
" />
<path d="M2.2970 0.8830
L2.2970 0.8080
" />
<path d="M2.2970 0.8830
L2.7560 0.8830
" />
<path d="M2.2970 1.1620
L2.2970 0.8830
" />
<path d="M2.2970 1.1980
L2.2970 1.1620
" />
<path d="M2.2970 2.4490
L2.2970 2.4720
" />
<path d="M2.2970 2.4490
L2.7560 2.4490
" />
<path d="M2.2970 2.4590
L1.8030 2.4590
" />
<path d="M2.2970 2.4720
L2.2970 2.7510
" />
<path d="M2.2970 2.7510
L2.2970 2.8270
" />
<path d="M2.2970 2.8270
L2.2970 3.0290
" />
<path d="M2.7560 0.8080
L2.7560 0.6040
" />
<path d="M2.7560 0.8830
L2.7560 0.8080
" />
<path d="M2.7560 1.1620
L2.7560 0.8830
" />
<path d="M2.7560 1.1890
L2.9710 1.1890
" />
<path d="M2.7560 1.1980
L2.2970 1.1980
" />
<path d="M2.7560 1.1980
L2.7560 1.1620
" />
<path d="M2.7560 2.4490
L2.7560 2.4720
" />
<path d="M2.7560 2.4720
L2.7560 2.7510
" />
<path d="M2.7560 2.7510
L2.2970 2.7510
" />
<path d="M2.7560 2.7510
L2.7560 2.8270
" />
<path d="M2.7560 2.8270
L2.7560 3.0290
" />
<path d="M2.7560 3.0290
L2.2970 3.0290
" />
<path d="M2.7860 1.3740
L0.3610 1.3740
" />
<path d="M2.7860 1.3740
L2.9710 1.1890
" />
<path d="M2.7860 2.2740
L2.7860 1.3740
" />
<path d="M2.9710 1.1890
L2.9710 2.4590
" />
<path d="M2.9710 2.4590
L2.7560 2.4590
" />
<path d="M2.9710 2.4590
L2.7860 2.2740
" />
</g> 
</svg>
