<?xml version="1.0" standalone="no"?>
 <!DOCTYPE svg PUBLIC "-//W3C//DTD SVG 1.1//EN" 
 "http://www.w3.org/Graphics/SVG/1.1/DTD/svg11.dtd"> 
<svg
  xmlns:svg="http://www.w3.org/2000/svg"
  xmlns="http://www.w3.org/2000/svg"
  xmlns:xlink="http://www.w3.org/1999/xlink"
  version="1.1"
  width="2.6416mm" height="3.8354mm" viewBox="0.0000 0.0000 2.6416 3.8354">
<title>SVG Image created as outline.svg date 2025/04/04 10:06:15 </title>
  <desc>Image generated by PCBNEW </desc>
<g style="fill:#000000; fill-opacity:1.0000;stroke:#000000; stroke-opacity:1.0000;
stroke-linecap:round; stroke-linejoin:round;"
 transform="translate(0 0) scale(1 1)">
</g>
<g style="fill:none; 
stroke:#000000; stroke-width:0.0200; stroke-opacity:1; 
stroke-linecap:round; stroke-linejoin:round;">
<path d="M0.5250 0.5450
L0.5250 0.5460
" />
<path d="M0.5250 0.5460
L0.5250 0.5480
" />
<path d="M0.5250 0.5480
L0.5250 0.5490
" />
<path d="M0.5250 0.5490
L0.5250 0.5500
" />
<path d="M0.5250 0.9000
L0.5250 0.5500
" />
<path d="M0.5250 0.9000
L0.5250 0.9010
" />
<path d="M0.5250 0.9000
L0.5250 0.9010
" />
<path d="M0.5250 0.9010
L0.5250 0.9020
" />
<path d="M0.5250 0.9010
L0.5250 0.9020
" />
<path d="M0.5250 0.9020
L0.5250 0.9040
" />
<path d="M0.5250 0.9020
L0.5250 0.9040
" />
<path d="M0.5250 0.9040
L0.5250 0.9050
" />
<path d="M0.5250 0.9040
L0.5250 0.9050
" />
<path d="M0.5250 0.9050
L0.5260 0.9060
" />
<path d="M0.5250 0.9050
L0.5260 0.9060
" />
<path d="M0.5250 1.3450
L0.5250 1.3460
" />
<path d="M0.5250 1.3460
L0.5250 1.3480
" />
<path d="M0.5250 1.3480
L0.5250 1.3490
" />
<path d="M0.5250 1.3490
L0.5250 1.3500
" />
<path d="M0.5250 1.7000
L0.5250 1.3500
" />
<path d="M0.5250 1.7000
L0.5250 1.7010
" />
<path d="M0.5250 1.7000
L0.5250 1.7010
" />
<path d="M0.5250 1.7010
L0.5250 1.7020
" />
<path d="M0.5250 1.7010
L0.5250 1.7020
" />
<path d="M0.5250 1.7020
L0.5250 1.7040
" />
<path d="M0.5250 1.7020
L0.5250 1.7040
" />
<path d="M0.5250 1.7040
L0.5250 1.7050
" />
<path d="M0.5250 1.7040
L0.5250 1.7050
" />
<path d="M0.5250 1.7050
L0.5260 1.7060
" />
<path d="M0.5250 1.7050
L0.5260 1.7060
" />
<path d="M0.5250 2.1450
L0.5250 2.1460
" />
<path d="M0.5250 2.1460
L0.5250 2.1480
" />
<path d="M0.5250 2.1480
L0.5250 2.1490
" />
<path d="M0.5250 2.1490
L0.5250 2.1500
" />
<path d="M0.5250 2.5000
L0.5250 2.1500
" />
<path d="M0.5250 2.5000
L0.5250 2.5010
" />
<path d="M0.5250 2.5000
L0.5250 2.5010
" />
<path d="M0.5250 2.5010
L0.5250 2.5020
" />
<path d="M0.5250 2.5010
L0.5250 2.5020
" />
<path d="M0.5250 2.5020
L0.5250 2.5040
" />
<path d="M0.5250 2.5020
L0.5250 2.5040
" />
<path d="M0.5250 2.5040
L0.5250 2.5050
" />
<path d="M0.5250 2.5040
L0.5250 2.5050
" />
<path d="M0.5250 2.5050
L0.5260 2.5060
" />
<path d="M0.5250 2.5050
L0.5260 2.5060
" />
<path d="M0.5250 2.9450
L0.5250 2.9460
" />
<path d="M0.5250 2.9460
L0.5250 2.9480
" />
<path d="M0.5250 2.9480
L0.5250 2.9490
" />
<path d="M0.5250 2.9490
L0.5250 2.9500
" />
<path d="M0.5250 3.3000
L0.5250 2.9500
" />
<path d="M0.5250 3.3000
L0.5250 3.3010
" />
<path d="M0.5250 3.3000
L0.5250 3.3010
" />
<path d="M0.5250 3.3010
L0.5250 3.3020
" />
<path d="M0.5250 3.3010
L0.5250 3.3020
" />
<path d="M0.5250 3.3020
L0.5250 3.3040
" />
<path d="M0.5250 3.3020
L0.5250 3.3040
" />
<path d="M0.5250 3.3040
L0.5250 3.3050
" />
<path d="M0.5250 3.3040
L0.5250 3.3050
" />
<path d="M0.5250 3.3050
L0.5260 3.3060
" />
<path d="M0.5250 3.3050
L0.5260 3.3060
" />
<path d="M0.5260 0.5420
L0.5260 0.5430
" />
<path d="M0.5260 0.5430
L0.5260 0.5440
" />
<path d="M0.5260 0.5440
L0.5250 0.5450
" />
<path d="M0.5260 0.9060
L0.5260 0.9070
" />
<path d="M0.5260 0.9060
L0.5260 0.9070
" />
<path d="M0.5260 0.9070
L0.5260 0.9080
" />
<path d="M0.5260 0.9070
L0.5260 0.9080
" />
<path d="M0.5260 0.9080
L0.5270 0.9100
" />
<path d="M0.5260 0.9080
L0.5270 0.9100
" />
<path d="M0.5260 1.3420
L0.5260 1.3430
" />
<path d="M0.5260 1.3430
L0.5260 1.3440
" />
<path d="M0.5260 1.3440
L0.5250 1.3450
" />
<path d="M0.5260 1.7060
L0.5260 1.7070
" />
<path d="M0.5260 1.7060
L0.5260 1.7070
" />
<path d="M0.5260 1.7070
L0.5260 1.7080
" />
<path d="M0.5260 1.7070
L0.5260 1.7080
" />
<path d="M0.5260 1.7080
L0.5270 1.7100
" />
<path d="M0.5260 1.7080
L0.5270 1.7100
" />
<path d="M0.5260 2.1420
L0.5260 2.1430
" />
<path d="M0.5260 2.1430
L0.5260 2.1440
" />
<path d="M0.5260 2.1440
L0.5250 2.1450
" />
<path d="M0.5260 2.5060
L0.5260 2.5070
" />
<path d="M0.5260 2.5060
L0.5260 2.5070
" />
<path d="M0.5260 2.5070
L0.5260 2.5080
" />
<path d="M0.5260 2.5070
L0.5260 2.5080
" />
<path d="M0.5260 2.5080
L0.5270 2.5100
" />
<path d="M0.5260 2.5080
L0.5270 2.5100
" />
<path d="M0.5260 2.9420
L0.5260 2.9430
" />
<path d="M0.5260 2.9430
L0.5260 2.9440
" />
<path d="M0.5260 2.9440
L0.5250 2.9450
" />
<path d="M0.5260 3.3060
L0.5260 3.3070
" />
<path d="M0.5260 3.3060
L0.5260 3.3070
" />
<path d="M0.5260 3.3070
L0.5260 3.3080
" />
<path d="M0.5260 3.3070
L0.5260 3.3080
" />
<path d="M0.5260 3.3080
L0.5270 3.3100
" />
<path d="M0.5260 3.3080
L0.5270 3.3100
" />
<path d="M0.5270 0.5390
L0.5270 0.5400
" />
<path d="M0.5270 0.5400
L0.5260 0.5420
" />
<path d="M0.5270 0.9100
L0.5270 0.9110
" />
<path d="M0.5270 0.9100
L0.5270 0.9110
" />
<path d="M0.5270 0.9110
L0.5280 0.9120
" />
<path d="M0.5270 0.9110
L0.5280 0.9120
" />
<path d="M0.5270 1.3390
L0.5270 1.3400
" />
<path d="M0.5270 1.3400
L0.5260 1.3420
" />
<path d="M0.5270 1.7100
L0.5270 1.7110
" />
<path d="M0.5270 1.7100
L0.5270 1.7110
" />
<path d="M0.5270 1.7110
L0.5280 1.7120
" />
<path d="M0.5270 1.7110
L0.5280 1.7120
" />
<path d="M0.5270 2.1390
L0.5270 2.1400
" />
<path d="M0.5270 2.1400
L0.5260 2.1420
" />
<path d="M0.5270 2.5100
L0.5270 2.5110
" />
<path d="M0.5270 2.5100
L0.5270 2.5110
" />
<path d="M0.5270 2.5110
L0.5280 2.5120
" />
<path d="M0.5270 2.5110
L0.5280 2.5120
" />
<path d="M0.5270 2.9390
L0.5270 2.9400
" />
<path d="M0.5270 2.9400
L0.5260 2.9420
" />
<path d="M0.5270 3.3100
L0.5270 3.3110
" />
<path d="M0.5270 3.3100
L0.5270 3.3110
" />
<path d="M0.5270 3.3110
L0.5280 3.3120
" />
<path d="M0.5270 3.3110
L0.5280 3.3120
" />
<path d="M0.5280 0.5380
L0.5270 0.5390
" />
<path d="M0.5280 0.9120
L0.5290 0.9130
" />
<path d="M0.5280 0.9120
L0.5290 0.9130
" />
<path d="M0.5280 1.3380
L0.5270 1.3390
" />
<path d="M0.5280 1.7120
L0.5290 1.7130
" />
<path d="M0.5280 1.7120
L0.5290 1.7130
" />
<path d="M0.5280 2.1380
L0.5270 2.1390
" />
<path d="M0.5280 2.5120
L0.5290 2.5130
" />
<path d="M0.5280 2.5120
L0.5290 2.5130
" />
<path d="M0.5280 2.9380
L0.5270 2.9390
" />
<path d="M0.5280 3.3120
L0.5290 3.3130
" />
<path d="M0.5280 3.3120
L0.5290 3.3130
" />
<path d="M0.5290 0.5360
L0.5290 0.5370
" />
<path d="M0.5290 0.5370
L0.5280 0.5380
" />
<path d="M0.5290 0.9130
L0.5290 0.9140
" />
<path d="M0.5290 0.9130
L0.5290 0.9140
" />
<path d="M0.5290 0.9140
L0.5300 0.9150
" />
<path d="M0.5290 0.9140
L0.5300 0.9150
" />
<path d="M0.5290 1.3360
L0.5290 1.3370
" />
<path d="M0.5290 1.3370
L0.5280 1.3380
" />
<path d="M0.5290 1.7130
L0.5290 1.7140
" />
<path d="M0.5290 1.7130
L0.5290 1.7140
" />
<path d="M0.5290 1.7140
L0.5300 1.7150
" />
<path d="M0.5290 1.7140
L0.5300 1.7150
" />
<path d="M0.5290 2.1360
L0.5290 2.1370
" />
<path d="M0.5290 2.1370
L0.5280 2.1380
" />
<path d="M0.5290 2.5130
L0.5290 2.5140
" />
<path d="M0.5290 2.5130
L0.5290 2.5140
" />
<path d="M0.5290 2.5140
L0.5300 2.5150
" />
<path d="M0.5290 2.5140
L0.5300 2.5150
" />
<path d="M0.5290 2.9360
L0.5290 2.9370
" />
<path d="M0.5290 2.9370
L0.5280 2.9380
" />
<path d="M0.5290 3.3130
L0.5290 3.3140
" />
<path d="M0.5290 3.3130
L0.5290 3.3140
" />
<path d="M0.5290 3.3140
L0.5300 3.3150
" />
<path d="M0.5290 3.3140
L0.5300 3.3150
" />
<path d="M0.5300 0.5350
L0.5290 0.5360
" />
<path d="M0.5300 0.9150
L0.5310 0.9160
" />
<path d="M0.5300 0.9150
L0.5310 0.9160
" />
<path d="M0.5300 1.3350
L0.5290 1.3360
" />
<path d="M0.5300 1.7150
L0.5310 1.7160
" />
<path d="M0.5300 1.7150
L0.5310 1.7160
" />
<path d="M0.5300 2.1350
L0.5290 2.1360
" />
<path d="M0.5300 2.5150
L0.5310 2.5160
" />
<path d="M0.5300 2.5150
L0.5310 2.5160
" />
<path d="M0.5300 2.9350
L0.5290 2.9360
" />
<path d="M0.5300 3.3150
L0.5310 3.3160
" />
<path d="M0.5300 3.3150
L0.5310 3.3160
" />
<path d="M0.5310 0.5330
L0.5310 0.5340
" />
<path d="M0.5310 0.5340
L0.5300 0.5350
" />
<path d="M0.5310 0.9160
L0.5310 0.9170
" />
<path d="M0.5310 0.9160
L0.5310 0.9170
" />
<path d="M0.5310 0.9170
L0.5320 0.9180
" />
<path d="M0.5310 0.9170
L0.5320 0.9180
" />
<path d="M0.5310 1.3330
L0.5310 1.3340
" />
<path d="M0.5310 1.3340
L0.5300 1.3350
" />
<path d="M0.5310 1.7160
L0.5310 1.7170
" />
<path d="M0.5310 1.7160
L0.5310 1.7170
" />
<path d="M0.5310 1.7170
L0.5320 1.7180
" />
<path d="M0.5310 1.7170
L0.5320 1.7180
" />
<path d="M0.5310 2.1330
L0.5310 2.1340
" />
<path d="M0.5310 2.1340
L0.5300 2.1350
" />
<path d="M0.5310 2.5160
L0.5310 2.5170
" />
<path d="M0.5310 2.5160
L0.5310 2.5170
" />
<path d="M0.5310 2.5170
L0.5320 2.5180
" />
<path d="M0.5310 2.5170
L0.5320 2.5180
" />
<path d="M0.5310 2.9330
L0.5310 2.9340
" />
<path d="M0.5310 2.9340
L0.5300 2.9350
" />
<path d="M0.5310 3.3160
L0.5310 3.3170
" />
<path d="M0.5310 3.3160
L0.5310 3.3170
" />
<path d="M0.5310 3.3170
L0.5320 3.3180
" />
<path d="M0.5310 3.3170
L0.5320 3.3180
" />
<path d="M0.5320 0.5320
L0.5310 0.5330
" />
</g>
<g style="fill:#000000; fill-opacity:1.0000; stroke:none;">
<circle cx="0.5320" cy="0.5320" r="0.0100" /> 
<circle cx="0.5320" cy="0.9180" r="0.0100" /> 
<circle cx="0.5320" cy="0.9180" r="0.0100" /> 
</g>
<g style="fill:none; 
stroke:#000000; stroke-width:0.0200; stroke-opacity:1; 
stroke-linecap:round; stroke-linejoin:round;">
<path d="M0.5320 0.9180
L0.5330 0.9190
" />
<path d="M0.5320 0.9180
L0.5330 0.9190
" />
<path d="M0.5320 1.3320
L0.5310 1.3330
" />
</g>
<g style="fill:#000000; fill-opacity:1.0000; stroke:none;">
<circle cx="0.5320" cy="1.3320" r="0.0100" /> 
<circle cx="0.5320" cy="1.7180" r="0.0100" /> 
<circle cx="0.5320" cy="1.7180" r="0.0100" /> 
</g>
<g style="fill:none; 
stroke:#000000; stroke-width:0.0200; stroke-opacity:1; 
stroke-linecap:round; stroke-linejoin:round;">
<path d="M0.5320 1.7180
L0.5330 1.7190
" />
<path d="M0.5320 1.7180
L0.5330 1.7190
" />
<path d="M0.5320 2.1320
L0.5310 2.1330
" />
</g>
<g style="fill:#000000; fill-opacity:1.0000; stroke:none;">
<circle cx="0.5320" cy="2.1320" r="0.0100" /> 
<circle cx="0.5320" cy="2.5180" r="0.0100" /> 
<circle cx="0.5320" cy="2.5180" r="0.0100" /> 
</g>
<g style="fill:none; 
stroke:#000000; stroke-width:0.0200; stroke-opacity:1; 
stroke-linecap:round; stroke-linejoin:round;">
<path d="M0.5320 2.5180
L0.5330 2.5190
" />
<path d="M0.5320 2.5180
L0.5330 2.5190
" />
<path d="M0.5320 2.9320
L0.5310 2.9330
" />
</g>
<g style="fill:#000000; fill-opacity:1.0000; stroke:none;">
<circle cx="0.5320" cy="2.9320" r="0.0100" /> 
<circle cx="0.5320" cy="3.3180" r="0.0100" /> 
<circle cx="0.5320" cy="3.3180" r="0.0100" /> 
</g>
<g style="fill:none; 
stroke:#000000; stroke-width:0.0200; stroke-opacity:1; 
stroke-linecap:round; stroke-linejoin:round;">
<path d="M0.5320 3.3180
L0.5330 3.3190
" />
<path d="M0.5320 3.3180
L0.5330 3.3190
" />
<path d="M0.5330 0.5310
L0.5320 0.5320
" />
<path d="M0.5330 0.9190
L0.5340 0.9190
" />
<path d="M0.5330 0.9190
L0.5340 0.9190
" />
<path d="M0.5330 1.3310
L0.5320 1.3320
" />
<path d="M0.5330 1.7190
L0.5340 1.7190
" />
<path d="M0.5330 1.7190
L0.5340 1.7190
" />
<path d="M0.5330 2.1310
L0.5320 2.1320
" />
<path d="M0.5330 2.5190
L0.5340 2.5190
" />
<path d="M0.5330 2.5190
L0.5340 2.5190
" />
<path d="M0.5330 2.9310
L0.5320 2.9320
" />
<path d="M0.5330 3.3190
L0.5340 3.3190
" />
<path d="M0.5330 3.3190
L0.5340 3.3190
" />
<path d="M0.5340 0.5310
L0.5330 0.5310
" />
<path d="M0.5340 0.9190
L0.5350 0.9200
" />
<path d="M0.5340 0.9190
L0.5350 0.9200
" />
<path d="M0.5340 1.3310
L0.5330 1.3310
" />
<path d="M0.5340 1.7190
L0.5350 1.7200
" />
<path d="M0.5340 1.7190
L0.5350 1.7200
" />
<path d="M0.5340 2.1310
L0.5330 2.1310
" />
<path d="M0.5340 2.5190
L0.5350 2.5200
" />
<path d="M0.5340 2.5190
L0.5350 2.5200
" />
<path d="M0.5340 2.9310
L0.5330 2.9310
" />
<path d="M0.5340 3.3190
L0.5350 3.3200
" />
<path d="M0.5340 3.3190
L0.5350 3.3200
" />
<path d="M0.5350 0.5300
L0.5340 0.5310
" />
<path d="M0.5350 0.9200
L0.5360 0.9210
" />
<path d="M0.5350 0.9200
L0.5360 0.9210
" />
<path d="M0.5350 1.3300
L0.5340 1.3310
" />
<path d="M0.5350 1.7200
L0.5360 1.7210
" />
<path d="M0.5350 1.7200
L0.5360 1.7210
" />
<path d="M0.5350 2.1300
L0.5340 2.1310
" />
<path d="M0.5350 2.5200
L0.5360 2.5210
" />
<path d="M0.5350 2.5200
L0.5360 2.5210
" />
<path d="M0.5350 2.9300
L0.5340 2.9310
" />
<path d="M0.5350 3.3200
L0.5360 3.3210
" />
<path d="M0.5350 3.3200
L0.5360 3.3210
" />
<path d="M0.5360 0.5290
L0.5350 0.5300
" />
<path d="M0.5360 0.9210
L0.5370 0.9210
" />
<path d="M0.5360 0.9210
L0.5370 0.9210
" />
<path d="M0.5360 1.3290
L0.5350 1.3300
" />
<path d="M0.5360 1.7210
L0.5370 1.7210
" />
<path d="M0.5360 1.7210
L0.5370 1.7210
" />
<path d="M0.5360 2.1290
L0.5350 2.1300
" />
<path d="M0.5360 2.5210
L0.5370 2.5210
" />
<path d="M0.5360 2.5210
L0.5370 2.5210
" />
<path d="M0.5360 2.9290
L0.5350 2.9300
" />
<path d="M0.5360 3.3210
L0.5370 3.3210
" />
<path d="M0.5360 3.3210
L0.5370 3.3210
" />
<path d="M0.5370 0.5290
L0.5360 0.5290
" />
<path d="M0.5370 0.9210
L0.5380 0.9220
" />
<path d="M0.5370 0.9210
L0.5380 0.9220
" />
<path d="M0.5370 1.3290
L0.5360 1.3290
" />
<path d="M0.5370 1.7210
L0.5380 1.7220
" />
<path d="M0.5370 1.7210
L0.5380 1.7220
" />
<path d="M0.5370 2.1290
L0.5360 2.1290
" />
<path d="M0.5370 2.5210
L0.5380 2.5220
" />
<path d="M0.5370 2.5210
L0.5380 2.5220
" />
<path d="M0.5370 2.9290
L0.5360 2.9290
" />
<path d="M0.5370 3.3210
L0.5380 3.3220
" />
<path d="M0.5370 3.3210
L0.5380 3.3220
" />
<path d="M0.5380 0.5280
L0.5370 0.5290
" />
<path d="M0.5380 0.9220
L0.5390 0.9230
" />
<path d="M0.5380 0.9220
L0.5390 0.9230
" />
<path d="M0.5380 1.3280
L0.5370 1.3290
" />
<path d="M0.5380 1.7220
L0.5390 1.7230
" />
<path d="M0.5380 1.7220
L0.5390 1.7230
" />
<path d="M0.5380 2.1280
L0.5370 2.1290
" />
<path d="M0.5380 2.5220
L0.5390 2.5230
" />
<path d="M0.5380 2.5220
L0.5390 2.5230
" />
<path d="M0.5380 2.9280
L0.5370 2.9290
" />
<path d="M0.5380 3.3220
L0.5390 3.3230
" />
<path d="M0.5380 3.3220
L0.5390 3.3230
" />
<path d="M0.5390 0.5270
L0.5380 0.5280
" />
<path d="M0.5390 0.9230
L0.5400 0.9230
" />
<path d="M0.5390 0.9230
L0.5400 0.9230
" />
<path d="M0.5390 1.3270
L0.5380 1.3280
" />
<path d="M0.5390 1.7230
L0.5400 1.7230
" />
<path d="M0.5390 1.7230
L0.5400 1.7230
" />
<path d="M0.5390 2.1270
L0.5380 2.1280
" />
<path d="M0.5390 2.5230
L0.5400 2.5230
" />
<path d="M0.5390 2.5230
L0.5400 2.5230
" />
<path d="M0.5390 2.9270
L0.5380 2.9280
" />
<path d="M0.5390 3.3230
L0.5400 3.3230
" />
<path d="M0.5390 3.3230
L0.5400 3.3230
" />
<path d="M0.5400 0.5270
L0.5390 0.5270
" />
<path d="M0.5400 0.9230
L0.5420 0.9240
" />
<path d="M0.5400 0.9230
L0.5420 0.9240
" />
<path d="M0.5400 1.3270
L0.5390 1.3270
" />
<path d="M0.5400 1.7230
L0.5420 1.7240
" />
<path d="M0.5400 1.7230
L0.5420 1.7240
" />
<path d="M0.5400 2.1270
L0.5390 2.1270
" />
<path d="M0.5400 2.5230
L0.5420 2.5240
" />
<path d="M0.5400 2.5230
L0.5420 2.5240
" />
<path d="M0.5400 2.9270
L0.5390 2.9270
" />
<path d="M0.5400 3.3230
L0.5420 3.3240
" />
<path d="M0.5400 3.3230
L0.5420 3.3240
" />
<path d="M0.5420 0.5260
L0.5400 0.5270
" />
<path d="M0.5420 0.9240
L0.5430 0.9240
" />
<path d="M0.5420 0.9240
L0.5430 0.9240
" />
<path d="M0.5420 1.3260
L0.5400 1.3270
" />
<path d="M0.5420 1.7240
L0.5430 1.7240
" />
<path d="M0.5420 1.7240
L0.5430 1.7240
" />
<path d="M0.5420 2.1260
L0.5400 2.1270
" />
<path d="M0.5420 2.5240
L0.5430 2.5240
" />
<path d="M0.5420 2.5240
L0.5430 2.5240
" />
<path d="M0.5420 2.9260
L0.5400 2.9270
" />
<path d="M0.5420 3.3240
L0.5430 3.3240
" />
<path d="M0.5420 3.3240
L0.5430 3.3240
" />
<path d="M0.5430 0.5260
L0.5420 0.5260
" />
<path d="M0.5430 0.9240
L0.5440 0.9240
" />
<path d="M0.5430 0.9240
L0.5440 0.9240
" />
<path d="M0.5430 1.3260
L0.5420 1.3260
" />
<path d="M0.5430 1.7240
L0.5440 1.7240
" />
<path d="M0.5430 1.7240
L0.5440 1.7240
" />
<path d="M0.5430 2.1260
L0.5420 2.1260
" />
<path d="M0.5430 2.5240
L0.5440 2.5240
" />
<path d="M0.5430 2.5240
L0.5440 2.5240
" />
<path d="M0.5430 2.9260
L0.5420 2.9260
" />
<path d="M0.5430 3.3240
L0.5440 3.3240
" />
<path d="M0.5430 3.3240
L0.5440 3.3240
" />
<path d="M0.5440 0.5260
L0.5430 0.5260
" />
<path d="M0.5440 0.9240
L0.5450 0.9250
" />
<path d="M0.5440 0.9240
L0.5450 0.9250
" />
<path d="M0.5440 1.3260
L0.5430 1.3260
" />
<path d="M0.5440 1.7240
L0.5450 1.7250
" />
<path d="M0.5440 1.7240
L0.5450 1.7250
" />
<path d="M0.5440 2.1260
L0.5430 2.1260
" />
<path d="M0.5440 2.5240
L0.5450 2.5250
" />
<path d="M0.5440 2.5240
L0.5450 2.5250
" />
<path d="M0.5440 2.9260
L0.5430 2.9260
" />
<path d="M0.5440 3.3240
L0.5450 3.3250
" />
<path d="M0.5440 3.3240
L0.5450 3.3250
" />
<path d="M0.5450 0.5250
L0.5440 0.5260
" />
<path d="M0.5450 0.9250
L0.5460 0.9250
" />
<path d="M0.5450 0.9250
L0.5460 0.9250
" />
<path d="M0.5450 1.3250
L0.5440 1.3260
" />
<path d="M0.5450 1.7250
L0.5460 1.7250
" />
<path d="M0.5450 1.7250
L0.5460 1.7250
" />
<path d="M0.5450 2.1250
L0.5440 2.1260
" />
<path d="M0.5450 2.5250
L0.5460 2.5250
" />
<path d="M0.5450 2.5250
L0.5460 2.5250
" />
<path d="M0.5450 2.9250
L0.5440 2.9260
" />
<path d="M0.5450 3.3250
L0.5460 3.3250
" />
<path d="M0.5450 3.3250
L0.5460 3.3250
" />
<path d="M0.5460 0.5250
L0.5450 0.5250
" />
<path d="M0.5460 0.9250
L0.5480 0.9250
" />
<path d="M0.5460 0.9250
L0.5480 0.9250
" />
<path d="M0.5460 1.3250
L0.5450 1.3250
" />
<path d="M0.5460 1.7250
L0.5480 1.7250
" />
<path d="M0.5460 1.7250
L0.5480 1.7250
" />
<path d="M0.5460 2.1250
L0.5450 2.1250
" />
<path d="M0.5460 2.5250
L0.5480 2.5250
" />
<path d="M0.5460 2.5250
L0.5480 2.5250
" />
<path d="M0.5460 2.9250
L0.5450 2.9250
" />
<path d="M0.5460 3.3250
L0.5480 3.3250
" />
<path d="M0.5460 3.3250
L0.5480 3.3250
" />
<path d="M0.5480 0.5250
L0.5460 0.5250
" />
<path d="M0.5480 0.9250
L0.5490 0.9250
" />
<path d="M0.5480 0.9250
L0.5490 0.9250
" />
<path d="M0.5480 1.3250
L0.5460 1.3250
" />
<path d="M0.5480 1.7250
L0.5490 1.7250
" />
<path d="M0.5480 1.7250
L0.5490 1.7250
" />
<path d="M0.5480 2.1250
L0.5460 2.1250
" />
<path d="M0.5480 2.5250
L0.5490 2.5250
" />
<path d="M0.5480 2.5250
L0.5490 2.5250
" />
<path d="M0.5480 2.9250
L0.5460 2.9250
" />
<path d="M0.5480 3.3250
L0.5490 3.3250
" />
<path d="M0.5480 3.3250
L0.5490 3.3250
" />
<path d="M0.5490 0.5250
L0.5480 0.5250
" />
<path d="M0.5490 0.9250
L0.5500 0.9250
" />
<path d="M0.5490 0.9250
L0.5500 0.9250
" />
<path d="M0.5490 1.3250
L0.5480 1.3250
" />
<path d="M0.5490 1.7250
L0.5500 1.7250
" />
<path d="M0.5490 1.7250
L0.5500 1.7250
" />
<path d="M0.5490 2.1250
L0.5480 2.1250
" />
<path d="M0.5490 2.5250
L0.5500 2.5250
" />
<path d="M0.5490 2.5250
L0.5500 2.5250
" />
<path d="M0.5490 2.9250
L0.5480 2.9250
" />
<path d="M0.5490 3.3250
L0.5500 3.3250
" />
<path d="M0.5490 3.3250
L0.5500 3.3250
" />
<path d="M0.5500 0.5250
L0.5490 0.5250
" />
<path d="M0.5500 0.5250
L0.6000 0.5250
" />
<path d="M0.5500 0.9250
L0.5750 0.9250
" />
<path d="M0.5500 1.3250
L0.5490 1.3250
" />
<path d="M0.5500 1.3250
L0.6000 1.3250
" />
<path d="M0.5500 1.7250
L0.5750 1.7250
" />
<path d="M0.5500 2.1250
L0.5490 2.1250
" />
<path d="M0.5500 2.1250
L0.6000 2.1250
" />
<path d="M0.5500 2.5250
L0.5750 2.5250
" />
<path d="M0.5500 2.9250
L0.5490 2.9250
" />
<path d="M0.5500 2.9250
L0.6000 2.9250
" />
<path d="M0.5500 3.3250
L0.5750 3.3250
" />
<path d="M0.5750 0.3460
L0.5750 0.3470
" />
<path d="M0.5750 0.3470
L0.5750 0.3490
" />
<path d="M0.5750 0.3490
L0.5750 0.3500
" />
<path d="M0.5750 0.5250
L0.5750 0.3500
" />
<path d="M0.5750 0.9250
L0.6000 0.9250
" />
<path d="M0.5750 1.3250
L0.5750 0.9250
" />
<path d="M0.5750 1.3250
L0.6000 1.3250
" />
<path d="M0.5750 1.7250
L0.6000 1.7250
" />
<path d="M0.5750 2.1250
L0.5750 1.7250
" />
<path d="M0.5750 2.5250
L0.6000 2.5250
" />
<path d="M0.5750 2.9250
L0.5750 2.5250
" />
<path d="M0.5750 2.9250
L0.6000 2.9250
" />
<path d="M0.5750 3.5000
L0.5750 3.3250
" />
<path d="M0.5750 3.5000
L0.5750 3.5010
" />
<path d="M0.5750 3.5010
L0.5750 3.5030
" />
<path d="M0.5750 3.5030
L0.5750 3.5040
" />
<path d="M0.5750 3.5040
L0.5760 3.5050
" />
<path d="M0.5760 0.3430
L0.5760 0.3440
" />
<path d="M0.5760 0.3440
L0.5760 0.3450
" />
<path d="M0.5760 0.3450
L0.5750 0.3460
" />
<path d="M0.5760 3.5050
L0.5760 3.5060
" />
<path d="M0.5760 3.5060
L0.5760 3.5070
" />
<path d="M0.5760 3.5070
L0.5770 3.5090
" />
<path d="M0.5770 0.3390
L0.5770 0.3400
" />
<path d="M0.5770 0.3400
L0.5770 0.3410
" />
<path d="M0.5770 0.3410
L0.5760 0.3430
" />
<path d="M0.5770 3.5090
L0.5770 3.5100
" />
<path d="M0.5770 3.5100
L0.5770 3.5110
" />
<path d="M0.5770 3.5110
L0.5780 3.5120
" />
<path d="M0.5780 0.3380
L0.5770 0.3390
" />
<path d="M0.5780 3.5120
L0.5790 3.5130
" />
<path d="M0.5790 0.3360
L0.5790 0.3370
" />
<path d="M0.5790 0.3370
L0.5780 0.3380
" />
<path d="M0.5790 3.5130
L0.5790 3.5140
" />
<path d="M0.5790 3.5140
L0.5800 3.5150
" />
<path d="M0.5800 0.3350
L0.5790 0.3360
" />
<path d="M0.5800 3.5150
L0.5810 3.5160
" />
<path d="M0.5810 0.3330
L0.5810 0.3340
" />
<path d="M0.5810 0.3340
L0.5800 0.3350
" />
<path d="M0.5810 3.5160
L0.5810 3.5170
" />
<path d="M0.5810 3.5170
L0.5820 3.5180
" />
<path d="M0.5820 0.3320
L0.5810 0.3330
" />
<path d="M0.5820 3.5180
L0.5830 3.5190
" />
<path d="M0.5830 0.3310
L0.5820 0.3320
" />
<path d="M0.5830 3.5190
L0.5840 3.5190
" />
<path d="M0.5840 0.3310
L0.5830 0.3310
" />
<path d="M0.5840 3.5190
L0.5850 3.5200
" />
<path d="M0.5850 0.3300
L0.5840 0.3310
" />
<path d="M0.5850 3.5200
L0.5860 3.5210
" />
<path d="M0.5860 0.3290
L0.5850 0.3300
" />
<path d="M0.5860 3.5210
L0.5870 3.5210
" />
<path d="M0.5870 0.3290
L0.5860 0.3290
" />
<path d="M0.5870 3.5210
L0.5880 3.5220
" />
<path d="M0.5880 0.3280
L0.5870 0.3290
" />
<path d="M0.5880 3.5220
L0.5890 3.5230
" />
<path d="M0.5890 0.3270
L0.5880 0.3280
" />
<path d="M0.5890 3.5230
L0.5900 3.5230
" />
<path d="M0.5900 0.3270
L0.5890 0.3270
" />
<path d="M0.5900 3.5230
L0.5910 3.5230
" />
<path d="M0.5910 0.3270
L0.5900 0.3270
" />
<path d="M0.5910 3.5230
L0.5930 3.5240
" />
<path d="M0.5930 0.3260
L0.5910 0.3270
" />
<path d="M0.5930 3.5240
L0.5940 3.5240
" />
<path d="M0.5940 0.3260
L0.5930 0.3260
" />
<path d="M0.5940 3.5240
L0.5950 3.5240
" />
<path d="M0.5950 0.3260
L0.5940 0.3260
" />
<path d="M0.5950 3.5240
L0.5960 3.5250
" />
<path d="M0.5960 0.3250
L0.5950 0.3260
" />
<path d="M0.5960 3.5250
L0.5970 3.5250
" />
<path d="M0.5970 0.3250
L0.5960 0.3250
" />
<path d="M0.5970 3.5250
L0.5990 3.5250
" />
<path d="M0.5990 0.3250
L0.5970 0.3250
" />
<path d="M0.5990 3.5250
L0.6000 3.5250
" />
<path d="M0.6000 0.3250
L0.5990 0.3250
" />
<path d="M0.6000 0.3250
L2.0500 0.3250
" />
<path d="M0.6000 0.5250
L0.8000 0.5250
" />
<path d="M0.6000 0.9250
L0.5500 0.9250
" />
<path d="M0.6000 1.3250
L0.8000 1.3250
" />
<path d="M0.6000 1.7250
L0.5500 1.7250
" />
<path d="M0.6000 2.1250
L0.8000 2.1250
" />
<path d="M0.6000 2.5250
L0.5500 2.5250
" />
<path d="M0.6000 2.9250
L0.8000 2.9250
" />
<path d="M0.6000 3.3250
L0.5500 3.3250
" />
<path d="M0.6000 3.5250
L2.0500 3.5250
" />
<path d="M0.8000 0.5250
L0.8010 0.5250
" />
<path d="M0.8000 0.9250
L0.6000 0.9250
" />
<path d="M0.8000 1.3250
L0.8010 1.3250
" />
<path d="M0.8000 1.7250
L0.6000 1.7250
" />
<path d="M0.8000 2.1250
L0.8010 2.1250
" />
<path d="M0.8000 2.5250
L0.6000 2.5250
" />
<path d="M0.8000 2.9250
L0.8010 2.9250
" />
<path d="M0.8000 3.3250
L0.6000 3.3250
" />
<path d="M0.8010 0.5250
L0.8030 0.5250
" />
<path d="M0.8010 0.9250
L0.8000 0.9250
" />
<path d="M0.8010 1.3250
L0.8020 1.3250
" />
<path d="M0.8010 1.7250
L0.8000 1.7250
" />
<path d="M0.8010 2.1250
L0.8030 2.1250
" />
<path d="M0.8010 2.5250
L0.8000 2.5250
" />
<path d="M0.8010 2.9250
L0.8030 2.9250
" />
<path d="M0.8010 3.3250
L0.8000 3.3250
" />
<path d="M0.8020 1.3250
L0.8040 1.3250
" />
<path d="M0.8020 2.5250
L0.8010 2.5250
" />
<path d="M0.8030 0.5250
L0.8040 0.5250
" />
<path d="M0.8030 0.9250
L0.8010 0.9250
" />
<path d="M0.8030 1.7250
L0.8010 1.7250
" />
<path d="M0.8030 2.1250
L0.8040 2.1250
" />
<path d="M0.8030 2.9250
L0.8040 2.9250
" />
<path d="M0.8030 3.3250
L0.8010 3.3250
" />
<path d="M0.8040 0.5250
L0.8050 0.5260
" />
<path d="M0.8040 0.9250
L0.8030 0.9250
" />
<path d="M0.8040 1.3250
L0.8050 1.3250
" />
<path d="M0.8040 1.7250
L0.8030 1.7250
" />
<path d="M0.8040 2.1250
L0.8050 2.1260
" />
<path d="M0.8040 2.5250
L0.8020 2.5250
" />
<path d="M0.8040 2.9250
L0.8050 2.9260
" />
<path d="M0.8040 3.3250
L0.8030 3.3250
" />
<path d="M0.8050 0.5260
L0.8060 0.5260
" />
<path d="M0.8050 0.9240
L0.8040 0.9250
" />
<path d="M0.8050 1.3250
L0.8060 1.3260
" />
<path d="M0.8050 1.7240
L0.8040 1.7250
" />
<path d="M0.8050 2.1260
L0.8060 2.1260
" />
<path d="M0.8050 2.5250
L0.8040 2.5250
" />
<path d="M0.8050 2.9260
L0.8060 2.9260
" />
<path d="M0.8050 3.3240
L0.8040 3.3250
" />
<path d="M0.8060 0.5260
L0.8070 0.5260
" />
<path d="M0.8060 0.9240
L0.8050 0.9240
" />
<path d="M0.8060 1.3260
L0.8070 1.3260
" />
<path d="M0.8060 1.7240
L0.8050 1.7240
" />
<path d="M0.8060 2.1260
L0.8070 2.1260
" />
<path d="M0.8060 2.5240
L0.8050 2.5250
" />
<path d="M0.8060 2.9260
L0.8070 2.9260
" />
<path d="M0.8060 3.3240
L0.8050 3.3240
" />
<path d="M0.8070 0.5260
L0.8090 0.5270
" />
<path d="M0.8070 0.9240
L0.8060 0.9240
" />
<path d="M0.8070 1.3260
L0.8080 1.3260
" />
<path d="M0.8070 1.7240
L0.8060 1.7240
" />
<path d="M0.8070 2.1260
L0.8090 2.1270
" />
<path d="M0.8070 2.5240
L0.8060 2.5240
" />
<path d="M0.8070 2.9260
L0.8090 2.9270
" />
<path d="M0.8070 3.3240
L0.8060 3.3240
" />
<path d="M0.8080 1.3260
L0.8100 1.3270
" />
<path d="M0.8080 2.5240
L0.8070 2.5240
" />
<path d="M0.8090 0.5270
L0.8100 0.5270
" />
<path d="M0.8090 0.9230
L0.8070 0.9240
" />
<path d="M0.8090 1.7230
L0.8070 1.7240
" />
<path d="M0.8090 2.1270
L0.8100 2.1270
" />
<path d="M0.8090 2.9270
L0.8100 2.9270
" />
<path d="M0.8090 3.3230
L0.8070 3.3240
" />
<path d="M0.8100 0.5270
L0.8110 0.5270
" />
<path d="M0.8100 0.9230
L0.8090 0.9230
" />
<path d="M0.8100 1.3270
L0.8110 1.3270
" />
<path d="M0.8100 1.7230
L0.8090 1.7230
" />
<path d="M0.8100 2.1270
L0.8110 2.1270
" />
<path d="M0.8100 2.5230
L0.8080 2.5240
" />
<path d="M0.8100 2.9270
L0.8110 2.9270
" />
<path d="M0.8100 3.3230
L0.8090 3.3230
" />
<path d="M0.8110 0.5270
L0.8120 0.5280
" />
<path d="M0.8110 0.9230
L0.8100 0.9230
" />
<path d="M0.8110 1.3270
L0.8120 1.3280
" />
<path d="M0.8110 1.7230
L0.8100 1.7230
" />
<path d="M0.8110 2.1270
L0.8120 2.1280
" />
<path d="M0.8110 2.5230
L0.8100 2.5230
" />
<path d="M0.8110 2.9270
L0.8120 2.9280
" />
<path d="M0.8110 3.3230
L0.8100 3.3230
" />
<path d="M0.8120 0.5280
L0.8130 0.5290
" />
<path d="M0.8120 0.9220
L0.8110 0.9230
" />
<path d="M0.8120 1.3280
L0.8130 1.3290
" />
<path d="M0.8120 1.7220
L0.8110 1.7230
" />
<path d="M0.8120 2.1280
L0.8130 2.1290
" />
<path d="M0.8120 2.5220
L0.8110 2.5230
" />
<path d="M0.8120 2.9280
L0.8130 2.9290
" />
<path d="M0.8120 3.3220
L0.8110 3.3230
" />
<path d="M0.8130 0.5290
L0.8140 0.5290
" />
<path d="M0.8130 0.9210
L0.8120 0.9220
" />
<path d="M0.8130 1.3290
L0.8140 1.3290
" />
<path d="M0.8130 1.7210
L0.8120 1.7220
" />
<path d="M0.8130 2.1290
L0.8140 2.1290
" />
<path d="M0.8130 2.5210
L0.8120 2.5220
" />
<path d="M0.8130 2.9290
L0.8140 2.9290
" />
<path d="M0.8130 3.3210
L0.8120 3.3220
" />
<path d="M0.8140 0.5290
L0.8150 0.5300
" />
<path d="M0.8140 0.9210
L0.8130 0.9210
" />
<path d="M0.8140 1.3290
L0.8150 1.3300
" />
<path d="M0.8140 1.7210
L0.8130 1.7210
" />
<path d="M0.8140 2.1290
L0.8150 2.1300
" />
<path d="M0.8140 2.5210
L0.8130 2.5210
" />
<path d="M0.8140 2.9290
L0.8150 2.9300
" />
<path d="M0.8140 3.3210
L0.8130 3.3210
" />
<path d="M0.8150 0.5300
L0.8160 0.5310
" />
<path d="M0.8150 0.9200
L0.8140 0.9210
" />
<path d="M0.8150 1.3300
L0.8160 1.3310
" />
<path d="M0.8150 1.7200
L0.8140 1.7210
" />
<path d="M0.8150 2.1300
L0.8160 2.1310
" />
<path d="M0.8150 2.5200
L0.8140 2.5210
" />
<path d="M0.8150 2.9300
L0.8160 2.9310
" />
<path d="M0.8150 3.3200
L0.8140 3.3210
" />
<path d="M0.8160 0.5310
L0.8170 0.5310
" />
<path d="M0.8160 0.9190
L0.8150 0.9200
" />
<path d="M0.8160 1.3310
L0.8170 1.3310
" />
<path d="M0.8160 1.7190
L0.8150 1.7200
" />
<path d="M0.8160 2.1310
L0.8170 2.1310
" />
<path d="M0.8160 2.5190
L0.8150 2.5200
" />
<path d="M0.8160 2.9310
L0.8170 2.9310
" />
<path d="M0.8160 3.3190
L0.8150 3.3200
" />
<path d="M0.8170 0.5310
L0.8180 0.5320
" />
<path d="M0.8170 0.9190
L0.8160 0.9190
" />
<path d="M0.8170 1.3310
L0.8180 1.3320
" />
<path d="M0.8170 1.7190
L0.8160 1.7190
" />
<path d="M0.8170 2.1310
L0.8180 2.1320
" />
<path d="M0.8170 2.5190
L0.8160 2.5190
" />
<path d="M0.8170 2.9310
L0.8180 2.9320
" />
<path d="M0.8170 3.3190
L0.8160 3.3190
" />
<path d="M0.8180 0.5320
L0.8190 0.5330
" />
<path d="M0.8180 0.9180
L0.8170 0.9190
" />
</g>
<g style="fill:#000000; fill-opacity:1.0000; stroke:none;">
<circle cx="0.8180" cy="1.3320" r="0.0100" /> 
</g>
<g style="fill:none; 
stroke:#000000; stroke-width:0.0200; stroke-opacity:1; 
stroke-linecap:round; stroke-linejoin:round;">
<path d="M0.8180 1.3320
L0.8190 1.3330
" />
<path d="M0.8180 1.7180
L0.8170 1.7190
" />
<path d="M0.8180 2.1320
L0.8190 2.1330
" />
<path d="M0.8180 2.5180
L0.8170 2.5190
" />
</g>
<g style="fill:#000000; fill-opacity:1.0000; stroke:none;">
<circle cx="0.8180" cy="2.5180" r="0.0100" /> 
</g>
<g style="fill:none; 
stroke:#000000; stroke-width:0.0200; stroke-opacity:1; 
stroke-linecap:round; stroke-linejoin:round;">
<path d="M0.8180 2.9320
L0.8190 2.9330
" />
<path d="M0.8180 3.3180
L0.8170 3.3190
" />
<path d="M0.8190 0.5330
L0.8190 0.5340
" />
<path d="M0.8190 0.5340
L0.8200 0.5350
" />
<path d="M0.8190 0.9160
L0.8190 0.9170
" />
<path d="M0.8190 0.9170
L0.8180 0.9180
" />
<path d="M0.8190 1.3330
L0.8190 1.3340
" />
<path d="M0.8190 1.3340
L0.8200 1.3350
" />
<path d="M0.8190 1.7160
L0.8190 1.7170
" />
<path d="M0.8190 1.7170
L0.8180 1.7180
" />
<path d="M0.8190 2.1330
L0.8190 2.1340
" />
<path d="M0.8190 2.1340
L0.8200 2.1350
" />
<path d="M0.8190 2.5160
L0.8190 2.5170
" />
<path d="M0.8190 2.5170
L0.8180 2.5180
" />
<path d="M0.8190 2.9330
L0.8190 2.9340
" />
<path d="M0.8190 2.9340
L0.8200 2.9350
" />
<path d="M0.8190 3.3160
L0.8190 3.3170
" />
<path d="M0.8190 3.3170
L0.8180 3.3180
" />
<path d="M0.8200 0.5350
L0.8210 0.5360
" />
<path d="M0.8200 0.9150
L0.8190 0.9160
" />
<path d="M0.8200 1.3350
L0.8210 1.3360
" />
<path d="M0.8200 1.7150
L0.8190 1.7160
" />
<path d="M0.8200 2.1350
L0.8210 2.1360
" />
<path d="M0.8200 2.5150
L0.8190 2.5160
" />
<path d="M0.8200 2.9350
L0.8210 2.9360
" />
<path d="M0.8200 3.3150
L0.8190 3.3160
" />
<path d="M0.8210 0.5360
L0.8210 0.5370
" />
<path d="M0.8210 0.5370
L0.8220 0.5380
" />
<path d="M0.8210 0.9130
L0.8210 0.9140
" />
<path d="M0.8210 0.9140
L0.8200 0.9150
" />
<path d="M0.8210 1.3360
L0.8210 1.3370
" />
<path d="M0.8210 1.3370
L0.8220 1.3380
" />
<path d="M0.8210 1.7130
L0.8210 1.7140
" />
<path d="M0.8210 1.7140
L0.8200 1.7150
" />
<path d="M0.8210 2.1360
L0.8210 2.1370
" />
<path d="M0.8210 2.1370
L0.8220 2.1380
" />
<path d="M0.8210 2.5130
L0.8210 2.5140
" />
<path d="M0.8210 2.5140
L0.8200 2.5150
" />
<path d="M0.8210 2.9360
L0.8210 2.9370
" />
<path d="M0.8210 2.9370
L0.8220 2.9380
" />
<path d="M0.8210 3.3130
L0.8210 3.3140
" />
<path d="M0.8210 3.3140
L0.8200 3.3150
" />
<path d="M0.8220 0.5380
L0.8230 0.5390
" />
<path d="M0.8220 0.9120
L0.8210 0.9130
" />
<path d="M0.8220 1.3380
L0.8230 1.3390
" />
<path d="M0.8220 1.7120
L0.8210 1.7130
" />
<path d="M0.8220 2.1380
L0.8230 2.1390
" />
<path d="M0.8220 2.5120
L0.8210 2.5130
" />
<path d="M0.8220 2.9380
L0.8230 2.9390
" />
<path d="M0.8220 3.3120
L0.8210 3.3130
" />
<path d="M0.8230 0.5390
L0.8230 0.5400
" />
<path d="M0.8230 0.5400
L0.8230 0.5410
" />
<path d="M0.8230 0.5410
L0.8240 0.5430
" />
<path d="M0.8230 0.9090
L0.8230 0.9100
" />
<path d="M0.8230 0.9100
L0.8230 0.9110
" />
<path d="M0.8230 0.9110
L0.8220 0.9120
" />
<path d="M0.8230 1.3390
L0.8230 1.3400
" />
<path d="M0.8230 1.3400
L0.8240 1.3420
" />
<path d="M0.8230 1.7090
L0.8230 1.7100
" />
<path d="M0.8230 1.7100
L0.8230 1.7110
" />
<path d="M0.8230 1.7110
L0.8220 1.7120
" />
<path d="M0.8230 2.1390
L0.8230 2.1400
" />
<path d="M0.8230 2.1400
L0.8230 2.1410
" />
<path d="M0.8230 2.1410
L0.8240 2.1430
" />
<path d="M0.8230 2.5100
L0.8230 2.5110
" />
<path d="M0.8230 2.5110
L0.8220 2.5120
" />
<path d="M0.8230 2.9390
L0.8230 2.9400
" />
<path d="M0.8230 2.9400
L0.8230 2.9410
" />
<path d="M0.8230 2.9410
L0.8240 2.9430
" />
<path d="M0.8230 3.3090
L0.8230 3.3100
" />
<path d="M0.8230 3.3100
L0.8230 3.3110
" />
<path d="M0.8230 3.3110
L0.8220 3.3120
" />
<path d="M0.8240 0.5430
L0.8240 0.5440
" />
<path d="M0.8240 0.5440
L0.8240 0.5450
" />
<path d="M0.8240 0.5450
L0.8250 0.5460
" />
<path d="M0.8240 0.9050
L0.8240 0.9060
" />
<path d="M0.8240 0.9060
L0.8240 0.9070
" />
<path d="M0.8240 0.9070
L0.8230 0.9090
" />
<path d="M0.8240 1.3420
L0.8240 1.3430
" />
<path d="M0.8240 1.3430
L0.8240 1.3440
" />
<path d="M0.8240 1.3440
L0.8250 1.3450
" />
<path d="M0.8240 1.7050
L0.8240 1.7060
" />
<path d="M0.8240 1.7060
L0.8240 1.7070
" />
<path d="M0.8240 1.7070
L0.8230 1.7090
" />
<path d="M0.8240 2.1430
L0.8240 2.1440
" />
<path d="M0.8240 2.1440
L0.8240 2.1450
" />
<path d="M0.8240 2.1450
L0.8250 2.1460
" />
<path d="M0.8240 2.5060
L0.8240 2.5070
" />
<path d="M0.8240 2.5070
L0.8240 2.5080
" />
<path d="M0.8240 2.5080
L0.8230 2.5100
" />
<path d="M0.8240 2.9430
L0.8240 2.9440
" />
<path d="M0.8240 2.9440
L0.8240 2.9450
" />
<path d="M0.8240 2.9450
L0.8250 2.9460
" />
<path d="M0.8240 3.3050
L0.8240 3.3060
" />
<path d="M0.8240 3.3060
L0.8240 3.3070
" />
<path d="M0.8240 3.3070
L0.8230 3.3090
" />
<path d="M0.8250 0.5460
L0.8250 0.5470
" />
<path d="M0.8250 0.5470
L0.8250 0.5490
" />
<path d="M0.8250 0.5490
L0.8250 0.5500
" />
<path d="M0.8250 0.9000
L0.8250 0.5500
" />
<path d="M0.8250 0.9000
L0.8250 0.9010
" />
<path d="M0.8250 0.9010
L0.8250 0.9030
" />
<path d="M0.8250 0.9030
L0.8250 0.9040
" />
<path d="M0.8250 0.9040
L0.8240 0.9050
" />
<path d="M0.8250 1.3450
L0.8250 1.3460
" />
<path d="M0.8250 1.3460
L0.8250 1.3480
" />
<path d="M0.8250 1.3480
L0.8250 1.3490
" />
<path d="M0.8250 1.3490
L0.8250 1.3500
" />
<path d="M0.8250 1.7000
L0.8250 1.3500
" />
<path d="M0.8250 1.7000
L0.8250 1.7010
" />
<path d="M0.8250 1.7010
L0.8250 1.7030
" />
<path d="M0.8250 1.7030
L0.8250 1.7040
" />
<path d="M0.8250 1.7040
L0.8240 1.7050
" />
<path d="M0.8250 2.1460
L0.8250 2.1470
" />
<path d="M0.8250 2.1470
L0.8250 2.1490
" />
<path d="M0.8250 2.1490
L0.8250 2.1500
" />
<path d="M0.8250 2.5000
L0.8250 2.1500
" />
<path d="M0.8250 2.5000
L0.8250 2.5010
" />
<path d="M0.8250 2.5010
L0.8250 2.5020
" />
<path d="M0.8250 2.5020
L0.8250 2.5040
" />
<path d="M0.8250 2.5040
L0.8250 2.5050
" />
<path d="M0.8250 2.5050
L0.8240 2.5060
" />
<path d="M0.8250 2.9460
L0.8250 2.9470
" />
<path d="M0.8250 2.9470
L0.8250 2.9490
" />
<path d="M0.8250 2.9490
L0.8250 2.9500
" />
<path d="M0.8250 3.3000
L0.8250 2.9500
" />
<path d="M0.8250 3.3000
L0.8250 3.3010
" />
<path d="M0.8250 3.3010
L0.8250 3.3030
" />
<path d="M0.8250 3.3030
L0.8250 3.3040
" />
<path d="M0.8250 3.3040
L0.8240 3.3050
" />
<path d="M1.8250 0.5460
L1.8250 0.5470
" />
<path d="M1.8250 0.5470
L1.8250 0.5490
" />
<path d="M1.8250 0.5490
L1.8250 0.5500
" />
<path d="M1.8250 0.9000
L1.8250 0.5500
" />
<path d="M1.8250 0.9000
L1.8250 0.9010
" />
<path d="M1.8250 0.9010
L1.8250 0.9030
" />
<path d="M1.8250 0.9030
L1.8250 0.9040
" />
<path d="M1.8250 0.9040
L1.8260 0.9050
" />
<path d="M1.8250 1.3450
L1.8250 1.3460
" />
<path d="M1.8250 1.3460
L1.8250 1.3480
" />
<path d="M1.8250 1.3480
L1.8250 1.3490
" />
<path d="M1.8250 1.3490
L1.8250 1.3500
" />
<path d="M1.8250 1.7000
L1.8250 1.3500
" />
<path d="M1.8250 1.7000
L1.8250 1.7010
" />
<path d="M1.8250 1.7010
L1.8250 1.7030
" />
<path d="M1.8250 1.7030
L1.8250 1.7040
" />
<path d="M1.8250 1.7040
L1.8260 1.7050
" />
<path d="M1.8250 2.1460
L1.8250 2.1470
" />
<path d="M1.8250 2.1470
L1.8250 2.1490
" />
<path d="M1.8250 2.1490
L1.8250 2.1500
" />
<path d="M1.8250 2.5000
L1.8250 2.1500
" />
<path d="M1.8250 2.5000
L1.8250 2.5010
" />
<path d="M1.8250 2.5010
L1.8250 2.5020
" />
<path d="M1.8250 2.5020
L1.8250 2.5040
" />
<path d="M1.8250 2.5040
L1.8250 2.5050
" />
<path d="M1.8250 2.5050
L1.8260 2.5060
" />
<path d="M1.8250 2.9460
L1.8250 2.9470
" />
<path d="M1.8250 2.9470
L1.8250 2.9490
" />
<path d="M1.8250 2.9490
L1.8250 2.9500
" />
<path d="M1.8250 3.3000
L1.8250 2.9500
" />
<path d="M1.8250 3.3000
L1.8250 3.3010
" />
<path d="M1.8250 3.3010
L1.8250 3.3030
" />
<path d="M1.8250 3.3030
L1.8250 3.3040
" />
<path d="M1.8250 3.3040
L1.8260 3.3050
" />
<path d="M1.8260 0.5430
L1.8260 0.5440
" />
<path d="M1.8260 0.5440
L1.8260 0.5450
" />
<path d="M1.8260 0.5450
L1.8250 0.5460
" />
<path d="M1.8260 0.9050
L1.8260 0.9060
" />
<path d="M1.8260 0.9060
L1.8260 0.9070
" />
<path d="M1.8260 0.9070
L1.8270 0.9090
" />
<path d="M1.8260 1.3420
L1.8260 1.3430
" />
<path d="M1.8260 1.3430
L1.8260 1.3440
" />
<path d="M1.8260 1.3440
L1.8250 1.3450
" />
<path d="M1.8260 1.7050
L1.8260 1.7060
" />
<path d="M1.8260 1.7060
L1.8260 1.7070
" />
<path d="M1.8260 1.7070
L1.8270 1.7090
" />
<path d="M1.8260 2.1430
L1.8260 2.1440
" />
<path d="M1.8260 2.1440
L1.8260 2.1450
" />
<path d="M1.8260 2.1450
L1.8250 2.1460
" />
<path d="M1.8260 2.5060
L1.8260 2.5070
" />
<path d="M1.8260 2.5070
L1.8260 2.5080
" />
<path d="M1.8260 2.5080
L1.8270 2.5100
" />
<path d="M1.8260 2.9430
L1.8260 2.9440
" />
<path d="M1.8260 2.9440
L1.8260 2.9450
" />
<path d="M1.8260 2.9450
L1.8250 2.9460
" />
<path d="M1.8260 3.3050
L1.8260 3.3060
" />
<path d="M1.8260 3.3060
L1.8260 3.3070
" />
<path d="M1.8260 3.3070
L1.8270 3.3090
" />
<path d="M1.8270 0.5390
L1.8270 0.5400
" />
<path d="M1.8270 0.5400
L1.8270 0.5410
" />
<path d="M1.8270 0.5410
L1.8260 0.5430
" />
<path d="M1.8270 0.9090
L1.8270 0.9100
" />
<path d="M1.8270 0.9100
L1.8270 0.9110
" />
<path d="M1.8270 0.9110
L1.8280 0.9120
" />
<path d="M1.8270 1.3390
L1.8270 1.3400
" />
<path d="M1.8270 1.3400
L1.8260 1.3420
" />
<path d="M1.8270 1.7090
L1.8270 1.7100
" />
<path d="M1.8270 1.7100
L1.8270 1.7110
" />
<path d="M1.8270 1.7110
L1.8280 1.7120
" />
<path d="M1.8270 2.1390
L1.8270 2.1400
" />
<path d="M1.8270 2.1400
L1.8270 2.1410
" />
<path d="M1.8270 2.1410
L1.8260 2.1430
" />
<path d="M1.8270 2.5100
L1.8270 2.5110
" />
<path d="M1.8270 2.5110
L1.8280 2.5120
" />
<path d="M1.8270 2.9390
L1.8270 2.9400
" />
<path d="M1.8270 2.9400
L1.8270 2.9410
" />
<path d="M1.8270 2.9410
L1.8260 2.9430
" />
<path d="M1.8270 3.3090
L1.8270 3.3100
" />
<path d="M1.8270 3.3100
L1.8270 3.3110
" />
<path d="M1.8270 3.3110
L1.8280 3.3120
" />
<path d="M1.8280 0.5380
L1.8270 0.5390
" />
<path d="M1.8280 0.9120
L1.8290 0.9130
" />
<path d="M1.8280 1.3380
L1.8270 1.3390
" />
<path d="M1.8280 1.7120
L1.8290 1.7130
" />
<path d="M1.8280 2.1380
L1.8270 2.1390
" />
<path d="M1.8280 2.5120
L1.8290 2.5130
" />
<path d="M1.8280 2.9380
L1.8270 2.9390
" />
<path d="M1.8280 3.3120
L1.8290 3.3130
" />
<path d="M1.8290 0.5360
L1.8290 0.5370
" />
<path d="M1.8290 0.5370
L1.8280 0.5380
" />
<path d="M1.8290 0.9130
L1.8290 0.9140
" />
<path d="M1.8290 0.9140
L1.8300 0.9150
" />
<path d="M1.8290 1.3360
L1.8290 1.3370
" />
<path d="M1.8290 1.3370
L1.8280 1.3380
" />
<path d="M1.8290 1.7130
L1.8290 1.7140
" />
<path d="M1.8290 1.7140
L1.8300 1.7150
" />
<path d="M1.8290 2.1360
L1.8290 2.1370
" />
<path d="M1.8290 2.1370
L1.8280 2.1380
" />
<path d="M1.8290 2.5130
L1.8290 2.5140
" />
<path d="M1.8290 2.5140
L1.8300 2.5150
" />
<path d="M1.8290 2.9360
L1.8290 2.9370
" />
<path d="M1.8290 2.9370
L1.8280 2.9380
" />
<path d="M1.8290 3.3130
L1.8290 3.3140
" />
<path d="M1.8290 3.3140
L1.8300 3.3150
" />
<path d="M1.8300 0.5350
L1.8290 0.5360
" />
<path d="M1.8300 0.9150
L1.8310 0.9160
" />
<path d="M1.8300 1.3350
L1.8290 1.3360
" />
<path d="M1.8300 1.7150
L1.8310 1.7160
" />
<path d="M1.8300 2.1350
L1.8290 2.1360
" />
<path d="M1.8300 2.5150
L1.8310 2.5160
" />
<path d="M1.8300 2.9350
L1.8290 2.9360
" />
<path d="M1.8300 3.3150
L1.8310 3.3160
" />
<path d="M1.8310 0.5330
L1.8310 0.5340
" />
<path d="M1.8310 0.5340
L1.8300 0.5350
" />
<path d="M1.8310 0.9160
L1.8310 0.9170
" />
<path d="M1.8310 0.9170
L1.8320 0.9180
" />
<path d="M1.8310 1.3330
L1.8310 1.3340
" />
<path d="M1.8310 1.3340
L1.8300 1.3350
" />
<path d="M1.8310 1.7160
L1.8310 1.7170
" />
<path d="M1.8310 1.7170
L1.8320 1.7180
" />
<path d="M1.8310 2.1330
L1.8310 2.1340
" />
<path d="M1.8310 2.1340
L1.8300 2.1350
" />
<path d="M1.8310 2.5160
L1.8310 2.5170
" />
<path d="M1.8310 2.5170
L1.8320 2.5180
" />
<path d="M1.8310 2.9330
L1.8310 2.9340
" />
<path d="M1.8310 2.9340
L1.8300 2.9350
" />
<path d="M1.8310 3.3160
L1.8310 3.3170
" />
<path d="M1.8310 3.3170
L1.8320 3.3180
" />
<path d="M1.8320 0.5320
L1.8310 0.5330
" />
<path d="M1.8320 0.9180
L1.8330 0.9190
" />
<path d="M1.8320 1.3320
L1.8310 1.3330
" />
</g>
<g style="fill:#000000; fill-opacity:1.0000; stroke:none;">
<circle cx="1.8320" cy="1.3320" r="0.0100" /> 
</g>
<g style="fill:none; 
stroke:#000000; stroke-width:0.0200; stroke-opacity:1; 
stroke-linecap:round; stroke-linejoin:round;">
<path d="M1.8320 1.7180
L1.8330 1.7190
" />
<path d="M1.8320 2.1320
L1.8310 2.1330
" />
</g>
<g style="fill:#000000; fill-opacity:1.0000; stroke:none;">
<circle cx="1.8320" cy="2.5180" r="0.0100" /> 
</g>
<g style="fill:none; 
stroke:#000000; stroke-width:0.0200; stroke-opacity:1; 
stroke-linecap:round; stroke-linejoin:round;">
<path d="M1.8320 2.5180
L1.8330 2.5190
" />
<path d="M1.8320 2.9320
L1.8310 2.9330
" />
<path d="M1.8320 3.3180
L1.8330 3.3190
" />
<path d="M1.8330 0.5310
L1.8320 0.5320
" />
<path d="M1.8330 0.9190
L1.8340 0.9190
" />
<path d="M1.8330 1.3310
L1.8320 1.3320
" />
<path d="M1.8330 1.7190
L1.8340 1.7190
" />
<path d="M1.8330 2.1310
L1.8320 2.1320
" />
<path d="M1.8330 2.5190
L1.8340 2.5190
" />
<path d="M1.8330 2.9310
L1.8320 2.9320
" />
<path d="M1.8330 3.3190
L1.8340 3.3190
" />
<path d="M1.8340 0.5310
L1.8330 0.5310
" />
<path d="M1.8340 0.9190
L1.8350 0.9200
" />
<path d="M1.8340 1.3310
L1.8330 1.3310
" />
<path d="M1.8340 1.7190
L1.8350 1.7200
" />
<path d="M1.8340 2.1310
L1.8330 2.1310
" />
<path d="M1.8340 2.5190
L1.8350 2.5200
" />
<path d="M1.8340 2.9310
L1.8330 2.9310
" />
<path d="M1.8340 3.3190
L1.8350 3.3200
" />
<path d="M1.8350 0.5300
L1.8340 0.5310
" />
<path d="M1.8350 0.9200
L1.8360 0.9210
" />
<path d="M1.8350 1.3300
L1.8340 1.3310
" />
<path d="M1.8350 1.7200
L1.8360 1.7210
" />
<path d="M1.8350 2.1300
L1.8340 2.1310
" />
<path d="M1.8350 2.5200
L1.8360 2.5210
" />
<path d="M1.8350 2.9300
L1.8340 2.9310
" />
<path d="M1.8350 3.3200
L1.8360 3.3210
" />
<path d="M1.8360 0.5290
L1.8350 0.5300
" />
<path d="M1.8360 0.9210
L1.8370 0.9210
" />
<path d="M1.8360 1.3290
L1.8350 1.3300
" />
<path d="M1.8360 1.7210
L1.8370 1.7210
" />
<path d="M1.8360 2.1290
L1.8350 2.1300
" />
<path d="M1.8360 2.5210
L1.8370 2.5210
" />
<path d="M1.8360 2.9290
L1.8350 2.9300
" />
<path d="M1.8360 3.3210
L1.8370 3.3210
" />
<path d="M1.8370 0.5290
L1.8360 0.5290
" />
<path d="M1.8370 0.9210
L1.8380 0.9220
" />
<path d="M1.8370 1.3290
L1.8360 1.3290
" />
<path d="M1.8370 1.7210
L1.8380 1.7220
" />
<path d="M1.8370 2.1290
L1.8360 2.1290
" />
<path d="M1.8370 2.5210
L1.8380 2.5220
" />
<path d="M1.8370 2.9290
L1.8360 2.9290
" />
<path d="M1.8370 3.3210
L1.8380 3.3220
" />
<path d="M1.8380 0.5280
L1.8370 0.5290
" />
<path d="M1.8380 0.9220
L1.8390 0.9230
" />
<path d="M1.8380 1.3280
L1.8370 1.3290
" />
<path d="M1.8380 1.7220
L1.8390 1.7230
" />
<path d="M1.8380 2.1280
L1.8370 2.1290
" />
<path d="M1.8380 2.5220
L1.8390 2.5230
" />
<path d="M1.8380 2.9280
L1.8370 2.9290
" />
<path d="M1.8380 3.3220
L1.8390 3.3230
" />
<path d="M1.8390 0.5270
L1.8380 0.5280
" />
<path d="M1.8390 0.9230
L1.8400 0.9230
" />
<path d="M1.8390 1.3270
L1.8380 1.3280
" />
<path d="M1.8390 1.7230
L1.8400 1.7230
" />
<path d="M1.8390 2.1270
L1.8380 2.1280
" />
<path d="M1.8390 2.5230
L1.8400 2.5230
" />
<path d="M1.8390 2.9270
L1.8380 2.9280
" />
<path d="M1.8390 3.3230
L1.8400 3.3230
" />
<path d="M1.8400 0.5270
L1.8390 0.5270
" />
<path d="M1.8400 0.9230
L1.8410 0.9230
" />
<path d="M1.8400 1.3270
L1.8390 1.3270
" />
<path d="M1.8400 1.7230
L1.8410 1.7230
" />
<path d="M1.8400 2.1270
L1.8390 2.1270
" />
<path d="M1.8400 2.5230
L1.8420 2.5240
" />
<path d="M1.8400 2.9270
L1.8390 2.9270
" />
<path d="M1.8400 3.3230
L1.8410 3.3230
" />
<path d="M1.8410 0.5270
L1.8400 0.5270
" />
<path d="M1.8410 0.9230
L1.8430 0.9240
" />
<path d="M1.8410 1.7230
L1.8430 1.7240
" />
<path d="M1.8410 2.1270
L1.8400 2.1270
" />
<path d="M1.8410 2.9270
L1.8400 2.9270
" />
<path d="M1.8410 3.3230
L1.8430 3.3240
" />
<path d="M1.8420 1.3260
L1.8400 1.3270
" />
<path d="M1.8420 2.5240
L1.8430 2.5240
" />
<path d="M1.8430 0.5260
L1.8410 0.5270
" />
<path d="M1.8430 0.9240
L1.8440 0.9240
" />
<path d="M1.8430 1.3260
L1.8420 1.3260
" />
<path d="M1.8430 1.7240
L1.8440 1.7240
" />
<path d="M1.8430 2.1260
L1.8410 2.1270
" />
<path d="M1.8430 2.5240
L1.8440 2.5240
" />
<path d="M1.8430 2.9260
L1.8410 2.9270
" />
<path d="M1.8430 3.3240
L1.8440 3.3240
" />
<path d="M1.8440 0.5260
L1.8430 0.5260
" />
<path d="M1.8440 0.9240
L1.8450 0.9240
" />
<path d="M1.8440 1.3260
L1.8430 1.3260
" />
<path d="M1.8440 1.7240
L1.8450 1.7240
" />
<path d="M1.8440 2.1260
L1.8430 2.1260
" />
<path d="M1.8440 2.5240
L1.8450 2.5250
" />
<path d="M1.8440 2.9260
L1.8430 2.9260
" />
<path d="M1.8440 3.3240
L1.8450 3.3240
" />
<path d="M1.8450 0.5260
L1.8440 0.5260
" />
<path d="M1.8450 0.9240
L1.8460 0.9250
" />
<path d="M1.8450 1.3250
L1.8440 1.3260
" />
<path d="M1.8450 1.7240
L1.8460 1.7250
" />
<path d="M1.8450 2.1260
L1.8440 2.1260
" />
<path d="M1.8450 2.5250
L1.8460 2.5250
" />
<path d="M1.8450 2.9260
L1.8440 2.9260
" />
<path d="M1.8450 3.3240
L1.8460 3.3250
" />
<path d="M1.8460 0.5250
L1.8450 0.5260
" />
<path d="M1.8460 0.9250
L1.8470 0.9250
" />
<path d="M1.8460 1.3250
L1.8450 1.3250
" />
<path d="M1.8460 1.7250
L1.8470 1.7250
" />
<path d="M1.8460 2.1250
L1.8450 2.1260
" />
<path d="M1.8460 2.5250
L1.8480 2.5250
" />
<path d="M1.8460 2.9250
L1.8450 2.9260
" />
<path d="M1.8460 3.3250
L1.8470 3.3250
" />
<path d="M1.8470 0.5250
L1.8460 0.5250
" />
<path d="M1.8470 0.9250
L1.8490 0.9250
" />
<path d="M1.8470 1.7250
L1.8490 1.7250
" />
<path d="M1.8470 2.1250
L1.8460 2.1250
" />
<path d="M1.8470 2.9250
L1.8460 2.9250
" />
<path d="M1.8470 3.3250
L1.8490 3.3250
" />
<path d="M1.8480 1.3250
L1.8460 1.3250
" />
<path d="M1.8480 2.5250
L1.8490 2.5250
" />
<path d="M1.8490 0.5250
L1.8470 0.5250
" />
<path d="M1.8490 0.9250
L1.8500 0.9250
" />
<path d="M1.8490 1.3250
L1.8480 1.3250
" />
<path d="M1.8490 1.7250
L1.8500 1.7250
" />
<path d="M1.8490 2.1250
L1.8470 2.1250
" />
<path d="M1.8490 2.5250
L1.8500 2.5250
" />
<path d="M1.8490 2.9250
L1.8470 2.9250
" />
<path d="M1.8490 3.3250
L1.8500 3.3250
" />
<path d="M1.8500 0.5250
L1.8490 0.5250
" />
<path d="M1.8500 0.5250
L2.0500 0.5250
" />
<path d="M1.8500 1.3250
L1.8490 1.3250
" />
<path d="M1.8500 1.3250
L2.0500 1.3250
" />
<path d="M1.8500 2.1250
L1.8490 2.1250
" />
<path d="M1.8500 2.1250
L2.0500 2.1250
" />
<path d="M1.8500 2.9250
L1.8490 2.9250
" />
<path d="M1.8500 2.9250
L2.0500 2.9250
" />
<path d="M2.0500 0.3250
L2.0510 0.3250
" />
<path d="M2.0500 0.5250
L2.1000 0.5250
" />
<path d="M2.0500 0.9250
L1.8500 0.9250
" />
<path d="M2.0500 0.9250
L2.0750 0.9250
" />
<path d="M2.0500 1.3250
L2.0750 1.3250
" />
<path d="M2.0500 1.3250
L2.1000 1.3250
" />
<path d="M2.0500 1.7250
L1.8500 1.7250
" />
<path d="M2.0500 1.7250
L2.0750 1.7250
" />
<path d="M2.0500 2.1250
L2.1000 2.1250
" />
<path d="M2.0500 2.5250
L1.8500 2.5250
" />
<path d="M2.0500 2.5250
L2.0750 2.5250
" />
<path d="M2.0500 2.9250
L2.0750 2.9250
" />
<path d="M2.0500 2.9250
L2.1000 2.9250
" />
<path d="M2.0500 3.3250
L1.8500 3.3250
" />
<path d="M2.0500 3.5250
L0.6000 3.5250
" />
<path d="M2.0500 3.5250
L2.0510 3.5250
" />
<path d="M2.0510 0.3250
L2.0530 0.3250
" />
<path d="M2.0510 3.5250
L2.0530 3.5250
" />
<path d="M2.0530 0.3250
L2.0540 0.3250
" />
<path d="M2.0530 3.5250
L2.0540 3.5250
" />
<path d="M2.0540 0.3250
L2.0550 0.3260
" />
<path d="M2.0540 3.5250
L2.0550 3.5240
" />
<path d="M2.0550 0.3260
L2.0560 0.3260
" />
<path d="M2.0550 3.5240
L2.0560 3.5240
" />
<path d="M2.0560 0.3260
L2.0570 0.3260
" />
<path d="M2.0560 3.5240
L2.0570 3.5240
" />
<path d="M2.0570 0.3260
L2.0590 0.3270
" />
<path d="M2.0570 3.5240
L2.0590 3.5230
" />
<path d="M2.0590 0.3270
L2.0600 0.3270
" />
<path d="M2.0590 3.5230
L2.0600 3.5230
" />
<path d="M2.0600 0.3270
L2.0610 0.3270
" />
<path d="M2.0600 3.5230
L2.0610 3.5230
" />
<path d="M2.0610 0.3270
L2.0620 0.3280
" />
<path d="M2.0610 3.5230
L2.0620 3.5220
" />
<path d="M2.0620 0.3280
L2.0630 0.3290
" />
<path d="M2.0620 3.5220
L2.0630 3.5210
" />
<path d="M2.0630 0.3290
L2.0640 0.3290
" />
<path d="M2.0630 3.5210
L2.0640 3.5210
" />
<path d="M2.0640 0.3290
L2.0650 0.3300
" />
<path d="M2.0640 3.5210
L2.0650 3.5200
" />
<path d="M2.0650 0.3300
L2.0660 0.3310
" />
<path d="M2.0650 3.5200
L2.0660 3.5190
" />
<path d="M2.0660 0.3310
L2.0670 0.3310
" />
<path d="M2.0660 3.5190
L2.0670 3.5190
" />
<path d="M2.0670 0.3310
L2.0680 0.3320
" />
<path d="M2.0670 3.5190
L2.0680 3.5180
" />
<path d="M2.0680 0.3320
L2.0690 0.3330
" />
<path d="M2.0680 3.5180
L2.0690 3.5170
" />
<path d="M2.0690 0.3330
L2.0690 0.3340
" />
<path d="M2.0690 0.3340
L2.0700 0.3350
" />
<path d="M2.0690 3.5160
L2.0700 3.5150
" />
<path d="M2.0690 3.5170
L2.0690 3.5160
" />
<path d="M2.0700 0.3350
L2.0710 0.3360
" />
<path d="M2.0700 3.5150
L2.0710 3.5140
" />
<path d="M2.0710 0.3360
L2.0710 0.3370
" />
<path d="M2.0710 0.3370
L2.0720 0.3380
" />
<path d="M2.0710 3.5130
L2.0720 3.5120
" />
<path d="M2.0710 3.5140
L2.0710 3.5130
" />
<path d="M2.0720 0.3380
L2.0730 0.3390
" />
<path d="M2.0720 3.5120
L2.0730 3.5110
" />
<path d="M2.0730 0.3390
L2.0730 0.3400
" />
<path d="M2.0730 0.3400
L2.0730 0.3410
" />
<path d="M2.0730 0.3410
L2.0740 0.3430
" />
<path d="M2.0730 3.5090
L2.0740 3.5070
" />
<path d="M2.0730 3.5100
L2.0730 3.5090
" />
<path d="M2.0730 3.5110
L2.0730 3.5100
" />
<path d="M2.0740 0.3430
L2.0740 0.3440
" />
<path d="M2.0740 0.3440
L2.0740 0.3450
" />
<path d="M2.0740 0.3450
L2.0750 0.3460
" />
<path d="M2.0740 3.5050
L2.0750 3.5040
" />
<path d="M2.0740 3.5060
L2.0740 3.5050
" />
<path d="M2.0740 3.5070
L2.0740 3.5060
" />
<path d="M2.0750 0.3460
L2.0750 0.3470
" />
<path d="M2.0750 0.3470
L2.0750 0.3490
" />
<path d="M2.0750 0.3490
L2.0750 0.3500
" />
<path d="M2.0750 0.3500
L2.0750 0.5250
" />
<path d="M2.0750 0.9250
L2.0750 1.3250
" />
<path d="M2.0750 0.9250
L2.1000 0.9250
" />
<path d="M2.0750 1.7250
L2.0750 2.1250
" />
<path d="M2.0750 1.7250
L2.1000 1.7250
" />
<path d="M2.0750 2.5250
L2.0750 2.9250
" />
<path d="M2.0750 2.5250
L2.1000 2.5250
" />
<path d="M2.0750 3.3250
L2.0750 3.5000
" />
<path d="M2.0750 3.3250
L2.1000 3.3250
" />
<path d="M2.0750 3.5010
L2.0750 3.5000
" />
<path d="M2.0750 3.5030
L2.0750 3.5010
" />
<path d="M2.0750 3.5040
L2.0750 3.5030
" />
<path d="M2.1000 0.5250
L2.1010 0.5250
" />
<path d="M2.1000 0.9250
L2.0500 0.9250
" />
<path d="M2.1000 1.3250
L2.0750 1.3250
" />
<path d="M2.1000 1.3250
L2.1010 1.3250
" />
<path d="M2.1000 1.7250
L2.0500 1.7250
" />
<path d="M2.1000 2.1250
L2.1010 2.1250
" />
<path d="M2.1000 2.5250
L2.0500 2.5250
" />
<path d="M2.1000 2.9250
L2.1010 2.9250
" />
<path d="M2.1000 3.3250
L2.0500 3.3250
" />
<path d="M2.1010 0.5250
L2.1020 0.5250
" />
<path d="M2.1010 0.9250
L2.1000 0.9250
" />
<path d="M2.1010 1.3250
L2.1020 1.3250
" />
<path d="M2.1010 1.7250
L2.1000 1.7250
" />
<path d="M2.1010 2.1250
L2.1020 2.1250
" />
<path d="M2.1010 2.5250
L2.1000 2.5250
" />
<path d="M2.1010 2.9250
L2.1020 2.9250
" />
<path d="M2.1010 3.3250
L2.1000 3.3250
" />
<path d="M2.1020 0.5250
L2.1040 0.5250
" />
<path d="M2.1020 0.9250
L2.1010 0.9250
" />
<path d="M2.1020 1.3250
L2.1040 1.3250
" />
<path d="M2.1020 1.7250
L2.1010 1.7250
" />
<path d="M2.1020 2.1250
L2.1040 2.1250
" />
<path d="M2.1020 2.5250
L2.1010 2.5250
" />
<path d="M2.1020 2.9250
L2.1040 2.9250
" />
<path d="M2.1020 3.3250
L2.1010 3.3250
" />
<path d="M2.1040 0.5250
L2.1050 0.5250
" />
<path d="M2.1040 0.9250
L2.1020 0.9250
" />
<path d="M2.1040 1.3250
L2.1050 1.3250
" />
<path d="M2.1040 1.7250
L2.1020 1.7250
" />
<path d="M2.1040 2.1250
L2.1050 2.1250
" />
<path d="M2.1040 2.5250
L2.1020 2.5250
" />
<path d="M2.1040 2.9250
L2.1050 2.9250
" />
<path d="M2.1040 3.3250
L2.1020 3.3250
" />
<path d="M2.1050 0.5250
L2.1060 0.5260
" />
<path d="M2.1050 0.9250
L2.1040 0.9250
" />
<path d="M2.1050 1.3250
L2.1060 1.3260
" />
<path d="M2.1050 1.7250
L2.1040 1.7250
" />
<path d="M2.1050 2.1250
L2.1060 2.1260
" />
<path d="M2.1050 2.5250
L2.1040 2.5250
" />
<path d="M2.1050 2.9250
L2.1060 2.9260
" />
<path d="M2.1050 3.3250
L2.1040 3.3250
" />
<path d="M2.1060 0.5260
L2.1070 0.5260
" />
<path d="M2.1060 0.9240
L2.1050 0.9250
" />
<path d="M2.1060 1.3260
L2.1070 1.3260
" />
<path d="M2.1060 1.7240
L2.1050 1.7250
" />
<path d="M2.1060 2.1260
L2.1070 2.1260
" />
<path d="M2.1060 2.5240
L2.1050 2.5250
" />
<path d="M2.1060 2.9260
L2.1070 2.9260
" />
<path d="M2.1060 3.3240
L2.1050 3.3250
" />
<path d="M2.1070 0.5260
L2.1080 0.5260
" />
<path d="M2.1070 0.9240
L2.1060 0.9240
" />
<path d="M2.1070 1.3260
L2.1080 1.3260
" />
<path d="M2.1070 1.7240
L2.1060 1.7240
" />
<path d="M2.1070 2.1260
L2.1080 2.1260
" />
<path d="M2.1070 2.5240
L2.1060 2.5240
" />
<path d="M2.1070 2.9260
L2.1080 2.9260
" />
<path d="M2.1070 3.3240
L2.1060 3.3240
" />
<path d="M2.1080 0.5260
L2.1100 0.5270
" />
<path d="M2.1080 0.9240
L2.1070 0.9240
" />
<path d="M2.1080 1.3260
L2.1100 1.3270
" />
<path d="M2.1080 1.7240
L2.1070 1.7240
" />
<path d="M2.1080 2.1260
L2.1100 2.1270
" />
<path d="M2.1080 2.5240
L2.1070 2.5240
" />
<path d="M2.1080 2.9260
L2.1100 2.9270
" />
<path d="M2.1080 3.3240
L2.1070 3.3240
" />
<path d="M2.1100 0.5270
L2.1110 0.5270
" />
<path d="M2.1100 0.9230
L2.1080 0.9240
" />
<path d="M2.1100 1.3270
L2.1110 1.3270
" />
<path d="M2.1100 1.7230
L2.1080 1.7240
" />
<path d="M2.1100 2.1270
L2.1110 2.1270
" />
<path d="M2.1100 2.5230
L2.1080 2.5240
" />
<path d="M2.1100 2.9270
L2.1110 2.9270
" />
<path d="M2.1100 3.3230
L2.1080 3.3240
" />
<path d="M2.1110 0.5270
L2.1120 0.5280
" />
<path d="M2.1110 0.9230
L2.1100 0.9230
" />
<path d="M2.1110 1.3270
L2.1120 1.3280
" />
<path d="M2.1110 1.7230
L2.1100 1.7230
" />
<path d="M2.1110 2.1270
L2.1120 2.1280
" />
<path d="M2.1110 2.5230
L2.1100 2.5230
" />
<path d="M2.1110 2.9270
L2.1120 2.9280
" />
<path d="M2.1110 3.3230
L2.1100 3.3230
" />
<path d="M2.1120 0.5280
L2.1130 0.5290
" />
<path d="M2.1120 0.9220
L2.1110 0.9230
" />
<path d="M2.1120 1.3280
L2.1130 1.3290
" />
<path d="M2.1120 1.7220
L2.1110 1.7230
" />
<path d="M2.1120 2.1280
L2.1130 2.1290
" />
<path d="M2.1120 2.5220
L2.1110 2.5230
" />
<path d="M2.1120 2.9280
L2.1130 2.9290
" />
<path d="M2.1120 3.3220
L2.1110 3.3230
" />
<path d="M2.1130 0.5290
L2.1140 0.5290
" />
<path d="M2.1130 0.9210
L2.1120 0.9220
" />
<path d="M2.1130 1.3290
L2.1140 1.3290
" />
<path d="M2.1130 1.7210
L2.1120 1.7220
" />
<path d="M2.1130 2.1290
L2.1140 2.1290
" />
<path d="M2.1130 2.5210
L2.1120 2.5220
" />
<path d="M2.1130 2.9290
L2.1140 2.9290
" />
<path d="M2.1130 3.3210
L2.1120 3.3220
" />
<path d="M2.1140 0.5290
L2.1150 0.5300
" />
<path d="M2.1140 0.9210
L2.1130 0.9210
" />
<path d="M2.1140 1.3290
L2.1150 1.3300
" />
<path d="M2.1140 1.7210
L2.1130 1.7210
" />
<path d="M2.1140 2.1290
L2.1150 2.1300
" />
<path d="M2.1140 2.5210
L2.1130 2.5210
" />
<path d="M2.1140 2.9290
L2.1150 2.9300
" />
<path d="M2.1140 3.3210
L2.1130 3.3210
" />
<path d="M2.1150 0.5300
L2.1160 0.5310
" />
<path d="M2.1150 0.9200
L2.1140 0.9210
" />
<path d="M2.1150 1.3300
L2.1160 1.3310
" />
<path d="M2.1150 1.7200
L2.1140 1.7210
" />
<path d="M2.1150 2.1300
L2.1160 2.1310
" />
<path d="M2.1150 2.5200
L2.1140 2.5210
" />
<path d="M2.1150 2.9300
L2.1160 2.9310
" />
<path d="M2.1150 3.3200
L2.1140 3.3210
" />
<path d="M2.1160 0.5310
L2.1170 0.5310
" />
<path d="M2.1160 0.9190
L2.1150 0.9200
" />
<path d="M2.1160 1.3310
L2.1170 1.3310
" />
<path d="M2.1160 1.7190
L2.1150 1.7200
" />
<path d="M2.1160 2.1310
L2.1170 2.1310
" />
<path d="M2.1160 2.5190
L2.1150 2.5200
" />
<path d="M2.1160 2.9310
L2.1170 2.9310
" />
<path d="M2.1160 3.3190
L2.1150 3.3200
" />
<path d="M2.1170 0.5310
L2.1180 0.5320
" />
<path d="M2.1170 0.9190
L2.1160 0.9190
" />
<path d="M2.1170 1.3310
L2.1180 1.3320
" />
<path d="M2.1170 1.7190
L2.1160 1.7190
" />
<path d="M2.1170 2.1310
L2.1180 2.1320
" />
<path d="M2.1170 2.5190
L2.1160 2.5190
" />
<path d="M2.1170 2.9310
L2.1180 2.9320
" />
<path d="M2.1170 3.3190
L2.1160 3.3190
" />
</g>
<g style="fill:#000000; fill-opacity:1.0000; stroke:none;">
<circle cx="2.1180" cy="0.5320" r="0.0100" /> 
</g>
<g style="fill:none; 
stroke:#000000; stroke-width:0.0200; stroke-opacity:1; 
stroke-linecap:round; stroke-linejoin:round;">
<path d="M2.1180 0.5320
L2.1190 0.5330
" />
<path d="M2.1180 0.9180
L2.1170 0.9190
" />
</g>
<g style="fill:#000000; fill-opacity:1.0000; stroke:none;">
<circle cx="2.1180" cy="0.9180" r="0.0100" /> 
<circle cx="2.1180" cy="1.3320" r="0.0100" /> 
</g>
<g style="fill:none; 
stroke:#000000; stroke-width:0.0200; stroke-opacity:1; 
stroke-linecap:round; stroke-linejoin:round;">
<path d="M2.1180 1.3320
L2.1190 1.3330
" />
<path d="M2.1180 1.7180
L2.1170 1.7190
" />
</g>
<g style="fill:#000000; fill-opacity:1.0000; stroke:none;">
<circle cx="2.1180" cy="1.7180" r="0.0100" /> 
<circle cx="2.1180" cy="2.1320" r="0.0100" /> 
</g>
<g style="fill:none; 
stroke:#000000; stroke-width:0.0200; stroke-opacity:1; 
stroke-linecap:round; stroke-linejoin:round;">
<path d="M2.1180 2.1320
L2.1190 2.1330
" />
<path d="M2.1180 2.5180
L2.1170 2.5190
" />
</g>
<g style="fill:#000000; fill-opacity:1.0000; stroke:none;">
<circle cx="2.1180" cy="2.5180" r="0.0100" /> 
<circle cx="2.1180" cy="2.9320" r="0.0100" /> 
</g>
<g style="fill:none; 
stroke:#000000; stroke-width:0.0200; stroke-opacity:1; 
stroke-linecap:round; stroke-linejoin:round;">
<path d="M2.1180 2.9320
L2.1190 2.9330
" />
<path d="M2.1180 3.3180
L2.1170 3.3190
" />
</g>
<g style="fill:#000000; fill-opacity:1.0000; stroke:none;">
<circle cx="2.1180" cy="3.3180" r="0.0100" /> 
</g>
<g style="fill:none; 
stroke:#000000; stroke-width:0.0200; stroke-opacity:1; 
stroke-linecap:round; stroke-linejoin:round;">
<path d="M2.1190 0.5330
L2.1190 0.5340
" />
<path d="M2.1190 0.5340
L2.1200 0.5350
" />
<path d="M2.1190 0.9160
L2.1190 0.9170
" />
<path d="M2.1190 0.9170
L2.1180 0.9180
" />
<path d="M2.1190 1.3330
L2.1190 1.3340
" />
<path d="M2.1190 1.3340
L2.1200 1.3350
" />
<path d="M2.1190 1.7160
L2.1190 1.7170
" />
<path d="M2.1190 1.7170
L2.1180 1.7180
" />
<path d="M2.1190 2.1330
L2.1190 2.1340
" />
<path d="M2.1190 2.1340
L2.1200 2.1350
" />
<path d="M2.1190 2.5160
L2.1190 2.5170
" />
<path d="M2.1190 2.5170
L2.1180 2.5180
" />
<path d="M2.1190 2.9330
L2.1190 2.9340
" />
<path d="M2.1190 2.9340
L2.1200 2.9350
" />
<path d="M2.1190 3.3160
L2.1190 3.3170
" />
<path d="M2.1190 3.3170
L2.1180 3.3180
" />
<path d="M2.1200 0.5350
L2.1210 0.5360
" />
<path d="M2.1200 0.9150
L2.1190 0.9160
" />
<path d="M2.1200 1.3350
L2.1210 1.3360
" />
<path d="M2.1200 1.7150
L2.1190 1.7160
" />
<path d="M2.1200 2.1350
L2.1210 2.1360
" />
<path d="M2.1200 2.5150
L2.1190 2.5160
" />
<path d="M2.1200 2.9350
L2.1210 2.9360
" />
<path d="M2.1200 3.3150
L2.1190 3.3160
" />
<path d="M2.1210 0.5360
L2.1210 0.5370
" />
<path d="M2.1210 0.5370
L2.1220 0.5380
" />
<path d="M2.1210 0.9130
L2.1210 0.9140
" />
<path d="M2.1210 0.9140
L2.1200 0.9150
" />
<path d="M2.1210 1.3360
L2.1210 1.3370
" />
<path d="M2.1210 1.3370
L2.1220 1.3380
" />
<path d="M2.1210 1.7130
L2.1210 1.7140
" />
<path d="M2.1210 1.7140
L2.1200 1.7150
" />
<path d="M2.1210 2.1360
L2.1210 2.1370
" />
<path d="M2.1210 2.1370
L2.1220 2.1380
" />
<path d="M2.1210 2.5130
L2.1210 2.5140
" />
<path d="M2.1210 2.5140
L2.1200 2.5150
" />
<path d="M2.1210 2.9360
L2.1210 2.9370
" />
<path d="M2.1210 2.9370
L2.1220 2.9380
" />
<path d="M2.1210 3.3130
L2.1210 3.3140
" />
<path d="M2.1210 3.3140
L2.1200 3.3150
" />
<path d="M2.1220 0.5380
L2.1230 0.5390
" />
<path d="M2.1220 0.9120
L2.1210 0.9130
" />
<path d="M2.1220 1.3380
L2.1230 1.3390
" />
<path d="M2.1220 1.7120
L2.1210 1.7130
" />
<path d="M2.1220 2.1380
L2.1230 2.1390
" />
<path d="M2.1220 2.5120
L2.1210 2.5130
" />
<path d="M2.1220 2.9380
L2.1230 2.9390
" />
<path d="M2.1220 3.3120
L2.1210 3.3130
" />
<path d="M2.1230 0.5390
L2.1230 0.5400
" />
<path d="M2.1230 0.5400
L2.1240 0.5420
" />
<path d="M2.1230 0.9100
L2.1230 0.9110
" />
<path d="M2.1230 0.9110
L2.1220 0.9120
" />
<path d="M2.1230 1.3390
L2.1230 1.3400
" />
<path d="M2.1230 1.3400
L2.1240 1.3420
" />
<path d="M2.1230 1.7100
L2.1230 1.7110
" />
<path d="M2.1230 1.7110
L2.1220 1.7120
" />
<path d="M2.1230 2.1390
L2.1230 2.1400
" />
<path d="M2.1230 2.1400
L2.1240 2.1420
" />
<path d="M2.1230 2.5100
L2.1230 2.5110
" />
<path d="M2.1230 2.5110
L2.1220 2.5120
" />
<path d="M2.1230 2.9390
L2.1230 2.9400
" />
<path d="M2.1230 2.9400
L2.1240 2.9420
" />
<path d="M2.1230 3.3100
L2.1230 3.3110
" />
<path d="M2.1230 3.3110
L2.1220 3.3120
" />
<path d="M2.1240 0.5420
L2.1240 0.5430
" />
<path d="M2.1240 0.5430
L2.1240 0.5440
" />
<path d="M2.1240 0.5440
L2.1250 0.5450
" />
<path d="M2.1240 0.9060
L2.1240 0.9070
" />
<path d="M2.1240 0.9070
L2.1240 0.9080
" />
<path d="M2.1240 0.9080
L2.1230 0.9100
" />
<path d="M2.1240 1.3420
L2.1240 1.3430
" />
<path d="M2.1240 1.3430
L2.1240 1.3440
" />
<path d="M2.1240 1.3440
L2.1250 1.3450
" />
<path d="M2.1240 1.7060
L2.1240 1.7070
" />
<path d="M2.1240 1.7070
L2.1240 1.7080
" />
<path d="M2.1240 1.7080
L2.1230 1.7100
" />
<path d="M2.1240 2.1420
L2.1240 2.1430
" />
<path d="M2.1240 2.1430
L2.1240 2.1440
" />
<path d="M2.1240 2.1440
L2.1250 2.1450
" />
<path d="M2.1240 2.5060
L2.1240 2.5070
" />
<path d="M2.1240 2.5070
L2.1240 2.5080
" />
<path d="M2.1240 2.5080
L2.1230 2.5100
" />
<path d="M2.1240 2.9420
L2.1240 2.9430
" />
<path d="M2.1240 2.9430
L2.1240 2.9440
" />
<path d="M2.1240 2.9440
L2.1250 2.9450
" />
<path d="M2.1240 3.3060
L2.1240 3.3070
" />
<path d="M2.1240 3.3070
L2.1240 3.3080
" />
<path d="M2.1240 3.3080
L2.1230 3.3100
" />
<path d="M2.1250 0.5450
L2.1250 0.5460
" />
<path d="M2.1250 0.5460
L2.1250 0.5480
" />
<path d="M2.1250 0.5480
L2.1250 0.5490
" />
<path d="M2.1250 0.5490
L2.1250 0.5500
" />
<path d="M2.1250 0.9000
L2.1250 0.5500
" />
<path d="M2.1250 0.9000
L2.1250 0.9010
" />
<path d="M2.1250 0.9010
L2.1250 0.9020
" />
<path d="M2.1250 0.9020
L2.1250 0.9040
" />
<path d="M2.1250 0.9040
L2.1250 0.9050
" />
<path d="M2.1250 0.9050
L2.1240 0.9060
" />
<path d="M2.1250 1.3450
L2.1250 1.3460
" />
<path d="M2.1250 1.3460
L2.1250 1.3480
" />
<path d="M2.1250 1.3480
L2.1250 1.3490
" />
<path d="M2.1250 1.3490
L2.1250 1.3500
" />
<path d="M2.1250 1.7000
L2.1250 1.3500
" />
<path d="M2.1250 1.7000
L2.1250 1.7010
" />
<path d="M2.1250 1.7010
L2.1250 1.7020
" />
<path d="M2.1250 1.7020
L2.1250 1.7040
" />
<path d="M2.1250 1.7040
L2.1250 1.7050
" />
<path d="M2.1250 1.7050
L2.1240 1.7060
" />
<path d="M2.1250 2.1450
L2.1250 2.1460
" />
<path d="M2.1250 2.1460
L2.1250 2.1480
" />
<path d="M2.1250 2.1480
L2.1250 2.1490
" />
<path d="M2.1250 2.1490
L2.1250 2.1500
" />
<path d="M2.1250 2.5000
L2.1250 2.1500
" />
<path d="M2.1250 2.5000
L2.1250 2.5010
" />
<path d="M2.1250 2.5010
L2.1250 2.5020
" />
<path d="M2.1250 2.5020
L2.1250 2.5040
" />
<path d="M2.1250 2.5040
L2.1250 2.5050
" />
<path d="M2.1250 2.5050
L2.1240 2.5060
" />
<path d="M2.1250 2.9450
L2.1250 2.9460
" />
<path d="M2.1250 2.9460
L2.1250 2.9480
" />
<path d="M2.1250 2.9480
L2.1250 2.9490
" />
<path d="M2.1250 2.9490
L2.1250 2.9500
" />
<path d="M2.1250 3.3000
L2.1250 2.9500
" />
<path d="M2.1250 3.3000
L2.1250 3.3010
" />
<path d="M2.1250 3.3010
L2.1250 3.3020
" />
<path d="M2.1250 3.3020
L2.1250 3.3040
" />
<path d="M2.1250 3.3040
L2.1250 3.3050
" />
<path d="M2.1250 3.3050
L2.1240 3.3060
" />
</g> 
</svg>
