<?xml version="1.0" standalone="no"?>
 <!DOCTYPE svg PUBLIC "-//W3C//DTD SVG 1.1//EN" 
 "http://www.w3.org/Graphics/SVG/1.1/DTD/svg11.dtd"> 
<svg
  xmlns:svg="http://www.w3.org/2000/svg"
  xmlns="http://www.w3.org/2000/svg"
  xmlns:xlink="http://www.w3.org/1999/xlink"
  version="1.1"
  width="1.5494mm" height="1.8796mm" viewBox="0.0000 0.0000 1.5494 1.8796">
<title>SVG Image created as outline.svg date 2025/04/04 10:06:32 </title>
  <desc>Image generated by PCBNEW </desc>
<g style="fill:#000000; fill-opacity:1.0000;stroke:#000000; stroke-opacity:1.0000;
stroke-linecap:round; stroke-linejoin:round;"
 transform="translate(0 0) scale(1 1)">
</g>
<g style="fill:none; 
stroke:#000000; stroke-width:0.0200; stroke-opacity:1; 
stroke-linecap:round; stroke-linejoin:round;">
<path d="M0.2750 0.2500
L0.2750 1.6500
" />
<path d="M0.2750 1.6500
L1.2730 1.6500
" />
<path d="M0.3930 0.3990
L0.3930 0.4010
" />
<path d="M0.3930 0.3990
L0.3930 0.4010
" />
<path d="M0.3930 0.4010
L0.3930 0.4030
" />
<path d="M0.3930 0.4010
L0.3930 0.4030
" />
<path d="M0.3930 0.4030
L0.3930 0.4050
" />
<path d="M0.3930 0.4030
L0.3930 0.4050
" />
<path d="M0.3930 0.4050
L0.3930 0.4070
" />
<path d="M0.3930 0.4050
L0.3930 0.4070
" />
<path d="M0.3930 0.4070
L0.3930 0.4110
" />
<path d="M0.3930 0.4070
L0.3930 0.4110
" />
<path d="M0.3930 0.4110
L0.3930 0.4150
" />
<path d="M0.3930 0.4110
L0.3930 0.4150
" />
<path d="M0.3930 0.4150
L0.3940 0.4190
" />
<path d="M0.3930 0.4150
L0.3940 0.4190
" />
<path d="M0.3940 0.3930
L0.3940 0.3950
" />
<path d="M0.3940 0.3930
L0.3940 0.3950
" />
<path d="M0.3940 0.3950
L0.3940 0.3970
" />
<path d="M0.3940 0.3950
L0.3940 0.3970
" />
<path d="M0.3940 0.3970
L0.3930 0.3990
" />
<path d="M0.3940 0.3970
L0.3930 0.3990
" />
<path d="M0.3940 0.4190
L0.3950 0.4230
" />
<path d="M0.3940 0.4190
L0.3950 0.4230
" />
<path d="M0.3950 0.3890
L0.3950 0.3910
" />
<path d="M0.3950 0.3890
L0.3950 0.3910
" />
<path d="M0.3950 0.3910
L0.3940 0.3930
" />
<path d="M0.3950 0.3910
L0.3940 0.3930
" />
<path d="M0.3950 0.4230
L0.3960 0.4270
" />
<path d="M0.3950 0.4230
L0.3960 0.4270
" />
<path d="M0.3960 0.3870
L0.3950 0.3890
" />
<path d="M0.3960 0.3870
L0.3950 0.3890
" />
<path d="M0.3960 0.4270
L0.3970 0.4310
" />
<path d="M0.3960 0.4270
L0.3970 0.4310
" />
<path d="M0.3970 0.3840
L0.3970 0.3860
" />
<path d="M0.3970 0.3840
L0.3970 0.3860
" />
<path d="M0.3970 0.3860
L0.3960 0.3870
" />
<path d="M0.3970 0.3860
L0.3960 0.3870
" />
<path d="M0.3970 0.4310
L0.3990 0.4340
" />
<path d="M0.3970 0.4310
L0.3990 0.4340
" />
<path d="M0.3980 0.3820
L0.3970 0.3840
" />
<path d="M0.3980 0.3820
L0.3970 0.3840
" />
<path d="M0.3990 0.3800
L0.3980 0.3820
" />
<path d="M0.3990 0.3800
L0.3980 0.3820
" />
<path d="M0.3990 0.4340
L0.4010 0.4390
" />
<path d="M0.3990 0.4340
L0.4010 0.4390
" />
<path d="M0.4000 0.3780
L0.3990 0.3800
" />
<path d="M0.4000 0.3780
L0.3990 0.3800
" />
<path d="M0.4010 0.3770
L0.4000 0.3780
" />
<path d="M0.4010 0.3770
L0.4000 0.3780
" />
<path d="M0.4010 0.4390
L0.4030 0.4420
" />
<path d="M0.4010 0.4390
L0.4030 0.4420
" />
<path d="M0.4020 0.3750
L0.4010 0.3770
" />
<path d="M0.4020 0.3750
L0.4010 0.3770
" />
<path d="M0.4030 0.3740
L0.4020 0.3750
" />
<path d="M0.4030 0.3740
L0.4020 0.3750
" />
<path d="M0.4030 0.4420
L0.4050 0.4450
" />
<path d="M0.4030 0.4420
L0.4050 0.4450
" />
<path d="M0.4040 0.3730
L0.4030 0.3740
" />
<path d="M0.4040 0.3730
L0.4030 0.3740
" />
<path d="M0.4050 0.3710
L0.4040 0.3730
" />
<path d="M0.4050 0.3710
L0.4040 0.3730
" />
<path d="M0.4050 0.4450
L0.4080 0.4480
" />
<path d="M0.4050 0.4450
L0.4080 0.4480
" />
<path d="M0.4070 0.3700
L0.4050 0.3710
" />
<path d="M0.4070 0.3700
L0.4050 0.3710
" />
<path d="M0.4080 0.3680
L0.4070 0.3700
" />
<path d="M0.4080 0.3680
L0.4070 0.3700
" />
<path d="M0.4080 0.4480
L0.4110 0.4510
" />
<path d="M0.4080 0.4480
L0.4110 0.4510
" />
<path d="M0.4090 0.3670
L0.4080 0.3680
" />
<path d="M0.4090 0.3670
L0.4080 0.3680
" />
<path d="M0.4110 0.3650
L0.4090 0.3670
" />
<path d="M0.4110 0.3650
L0.4090 0.3670
" />
<path d="M0.4110 0.4510
L0.4130 0.4540
" />
<path d="M0.4110 0.4510
L0.4130 0.4540
" />
<path d="M0.4120 0.3640
L0.4110 0.3650
" />
<path d="M0.4120 0.3640
L0.4110 0.3650
" />
<path d="M0.4130 0.3620
L0.4120 0.3640
" />
<path d="M0.4130 0.3620
L0.4120 0.3640
" />
<path d="M0.4130 0.4540
L0.4170 0.4560
" />
<path d="M0.4130 0.4540
L0.4170 0.4560
" />
<path d="M0.4150 0.3610
L0.4130 0.3620
" />
<path d="M0.4150 0.3610
L0.4130 0.3620
" />
<path d="M0.4170 0.3600
L0.4150 0.3610
" />
<path d="M0.4170 0.3600
L0.4150 0.3610
" />
<path d="M0.4170 0.4560
L0.4200 0.4590
" />
<path d="M0.4170 0.4560
L0.4200 0.4590
" />
<path d="M0.4180 0.3590
L0.4170 0.3600
" />
<path d="M0.4180 0.3590
L0.4170 0.3600
" />
<path d="M0.4200 0.3580
L0.4180 0.3590
" />
<path d="M0.4200 0.3580
L0.4180 0.3590
" />
<path d="M0.4200 0.4590
L0.4220 0.4610
" />
<path d="M0.4200 0.4590
L0.4220 0.4610
" />
<path d="M0.4210 0.3560
L0.4200 0.3580
" />
<path d="M0.4210 0.3560
L0.4200 0.3580
" />
<path d="M0.4220 0.3550
L0.4210 0.3560
" />
<path d="M0.4220 0.3550
L0.4210 0.3560
" />
</g>
<g style="fill:#000000; fill-opacity:1.0000; stroke:none;">
<circle cx="0.4220" cy="0.3550" r="0.0100" /> 
<circle cx="0.4220" cy="0.3550" r="0.0100" /> 
<circle cx="0.4220" cy="0.4610" r="0.0100" /> 
<circle cx="0.4220" cy="0.4610" r="0.0100" /> 
</g>
<g style="fill:none; 
stroke:#000000; stroke-width:0.0200; stroke-opacity:1; 
stroke-linecap:round; stroke-linejoin:round;">
<path d="M0.4220 0.4610
L0.4260 0.4630
" />
<path d="M0.4220 0.4610
L0.4260 0.4630
" />
<path d="M0.4260 0.3530
L0.4220 0.3550
" />
<path d="M0.4260 0.3530
L0.4220 0.3550
" />
<path d="M0.4260 0.4630
L0.4300 0.4650
" />
<path d="M0.4260 0.4630
L0.4300 0.4650
" />
<path d="M0.4300 0.3520
L0.4260 0.3530
" />
<path d="M0.4300 0.3520
L0.4260 0.3530
" />
<path d="M0.4300 0.4650
L0.4330 0.4660
" />
<path d="M0.4300 0.4650
L0.4330 0.4660
" />
<path d="M0.4330 0.3500
L0.4300 0.3520
" />
<path d="M0.4330 0.3500
L0.4300 0.3520
" />
<path d="M0.4330 0.4660
L0.4370 0.4670
" />
<path d="M0.4330 0.4660
L0.4370 0.4670
" />
<path d="M0.4370 0.3490
L0.4330 0.3500
" />
<path d="M0.4370 0.3490
L0.4330 0.3500
" />
<path d="M0.4370 0.4670
L0.4410 0.4680
" />
<path d="M0.4370 0.4670
L0.4410 0.4680
" />
<path d="M0.4410 0.3480
L0.4370 0.3490
" />
<path d="M0.4410 0.3480
L0.4370 0.3490
" />
<path d="M0.4410 0.4680
L0.4450 0.4690
" />
<path d="M0.4410 0.4680
L0.4450 0.4690
" />
<path d="M0.4450 0.3480
L0.4410 0.3480
" />
<path d="M0.4450 0.3480
L0.4410 0.3480
" />
<path d="M0.4450 0.4690
L0.4490 0.4690
" />
<path d="M0.4450 0.4690
L0.4490 0.4690
" />
<path d="M0.4490 0.3470
L0.4450 0.3480
" />
<path d="M0.4490 0.3470
L0.4450 0.3480
" />
<path d="M0.4490 0.4690
L0.4530 0.4690
" />
<path d="M0.4490 0.4690
L0.4530 0.4690
" />
<path d="M0.4530 0.3470
L0.4490 0.3470
" />
<path d="M0.4530 0.3470
L0.4490 0.3470
" />
<path d="M0.4530 0.4690
L0.4580 0.4690
" />
<path d="M0.4530 0.4690
L0.4580 0.4690
" />
<path d="M0.4580 0.3470
L0.4530 0.3470
" />
<path d="M0.4580 0.3470
L0.4530 0.3470
" />
<path d="M0.4580 0.4690
L0.4620 0.4690
" />
<path d="M0.4580 0.4690
L0.4620 0.4690
" />
<path d="M0.4620 0.3480
L0.4580 0.3470
" />
<path d="M0.4620 0.3480
L0.4580 0.3470
" />
<path d="M0.4620 0.4690
L0.4650 0.4680
" />
<path d="M0.4620 0.4690
L0.4650 0.4680
" />
<path d="M0.4650 0.3480
L0.4620 0.3480
" />
<path d="M0.4650 0.3480
L0.4620 0.3480
" />
<path d="M0.4650 0.4680
L0.4690 0.4670
" />
<path d="M0.4650 0.4680
L0.4690 0.4670
" />
<path d="M0.4690 0.3490
L0.4650 0.3480
" />
<path d="M0.4690 0.3490
L0.4650 0.3480
" />
<path d="M0.4690 0.4670
L0.4730 0.4660
" />
<path d="M0.4690 0.4670
L0.4730 0.4660
" />
<path d="M0.4730 0.3500
L0.4690 0.3490
" />
<path d="M0.4730 0.3500
L0.4690 0.3490
" />
<path d="M0.4730 0.4660
L0.4770 0.4650
" />
<path d="M0.4730 0.4660
L0.4770 0.4650
" />
<path d="M0.4770 0.3520
L0.4730 0.3500
" />
<path d="M0.4770 0.3520
L0.4730 0.3500
" />
<path d="M0.4770 0.4650
L0.4810 0.4630
" />
<path d="M0.4770 0.4650
L0.4810 0.4630
" />
<path d="M0.4810 0.3530
L0.4770 0.3520
" />
<path d="M0.4810 0.3530
L0.4770 0.3520
" />
<path d="M0.4810 0.4630
L0.4840 0.4610
" />
<path d="M0.4810 0.4630
L0.4840 0.4610
" />
<path d="M0.4840 0.3550
L0.4810 0.3530
" />
<path d="M0.4840 0.3550
L0.4810 0.3530
" />
</g>
<g style="fill:#000000; fill-opacity:1.0000; stroke:none;">
<circle cx="0.4840" cy="0.3550" r="0.0100" /> 
<circle cx="0.4840" cy="0.3550" r="0.0100" /> 
<circle cx="0.4840" cy="0.4610" r="0.0100" /> 
<circle cx="0.4840" cy="0.4610" r="0.0100" /> 
</g>
<g style="fill:none; 
stroke:#000000; stroke-width:0.0200; stroke-opacity:1; 
stroke-linecap:round; stroke-linejoin:round;">
<path d="M0.4840 0.4610
L0.4850 0.4600
" />
<path d="M0.4840 0.4610
L0.4850 0.4600
" />
<path d="M0.4850 0.4600
L0.4870 0.4590
" />
<path d="M0.4850 0.4600
L0.4870 0.4590
" />
<path d="M0.4870 0.3580
L0.4840 0.3550
" />
<path d="M0.4870 0.3580
L0.4840 0.3550
" />
<path d="M0.4870 0.4590
L0.4880 0.4580
" />
<path d="M0.4870 0.4590
L0.4880 0.4580
" />
<path d="M0.4880 0.4580
L0.4900 0.4560
" />
<path d="M0.4880 0.4580
L0.4900 0.4560
" />
<path d="M0.4900 0.3600
L0.4870 0.3580
" />
<path d="M0.4900 0.3600
L0.4870 0.3580
" />
<path d="M0.4900 0.4560
L0.4910 0.4550
" />
<path d="M0.4900 0.4560
L0.4910 0.4550
" />
<path d="M0.4910 0.4550
L0.4930 0.4540
" />
<path d="M0.4910 0.4550
L0.4930 0.4540
" />
<path d="M0.4930 0.3620
L0.4900 0.3600
" />
<path d="M0.4930 0.3620
L0.4900 0.3600
" />
<path d="M0.4930 0.4540
L0.4940 0.4530
" />
<path d="M0.4930 0.4540
L0.4940 0.4530
" />
<path d="M0.4940 0.4530
L0.4960 0.4510
" />
<path d="M0.4940 0.4530
L0.4960 0.4510
" />
<path d="M0.4960 0.3650
L0.4930 0.3620
" />
<path d="M0.4960 0.3650
L0.4930 0.3620
" />
<path d="M0.4960 0.4510
L0.4970 0.4500
" />
<path d="M0.4960 0.4510
L0.4970 0.4500
" />
<path d="M0.4970 0.4500
L0.4990 0.4480
" />
<path d="M0.4970 0.4500
L0.4990 0.4480
" />
<path d="M0.4990 0.3680
L0.4960 0.3650
" />
<path d="M0.4990 0.3680
L0.4960 0.3650
" />
<path d="M0.4990 0.4480
L0.5000 0.4470
" />
<path d="M0.4990 0.4480
L0.5000 0.4470
" />
<path d="M0.5000 0.4470
L0.5010 0.4450
" />
<path d="M0.5000 0.4470
L0.5010 0.4450
" />
<path d="M0.5010 0.3710
L0.4990 0.3680
" />
<path d="M0.5010 0.3710
L0.4990 0.3680
" />
<path d="M0.5010 0.4450
L0.5020 0.4440
" />
<path d="M0.5010 0.4450
L0.5020 0.4440
" />
<path d="M0.5020 0.4440
L0.5030 0.4420
" />
<path d="M0.5020 0.4440
L0.5030 0.4420
" />
<path d="M0.5030 0.3740
L0.5010 0.3710
" />
<path d="M0.5030 0.3740
L0.5010 0.3710
" />
<path d="M0.5030 0.4420
L0.5040 0.4400
" />
<path d="M0.5030 0.4420
L0.5040 0.4400
" />
<path d="M0.5040 0.4400
L0.5060 0.4390
" />
<path d="M0.5040 0.4400
L0.5060 0.4390
" />
<path d="M0.5060 0.3770
L0.5030 0.3740
" />
<path d="M0.5060 0.3770
L0.5030 0.3740
" />
<path d="M0.5060 0.4360
L0.5070 0.4340
" />
<path d="M0.5060 0.4360
L0.5070 0.4340
" />
<path d="M0.5060 0.4390
L0.5060 0.4360
" />
<path d="M0.5060 0.4390
L0.5060 0.4360
" />
<path d="M0.5070 0.3800
L0.5060 0.3770
" />
<path d="M0.5070 0.3800
L0.5060 0.3770
" />
<path d="M0.5070 0.4340
L0.5080 0.4320
" />
<path d="M0.5070 0.4340
L0.5080 0.4320
" />
<path d="M0.5080 0.4320
L0.5090 0.4310
" />
<path d="M0.5080 0.4320
L0.5090 0.4310
" />
<path d="M0.5090 0.3840
L0.5070 0.3800
" />
<path d="M0.5090 0.3840
L0.5070 0.3800
" />
<path d="M0.5090 0.4310
L0.5100 0.4290
" />
<path d="M0.5090 0.4310
L0.5100 0.4290
" />
<path d="M0.5100 0.3870
L0.5090 0.3840
" />
<path d="M0.5100 0.3870
L0.5090 0.3840
" />
<path d="M0.5100 0.4270
L0.5110 0.4250
" />
<path d="M0.5100 0.4270
L0.5110 0.4250
" />
<path d="M0.5100 0.4290
L0.5100 0.4270
" />
<path d="M0.5100 0.4290
L0.5100 0.4270
" />
<path d="M0.5110 0.4250
L0.5120 0.4230
" />
<path d="M0.5110 0.4250
L0.5120 0.4230
" />
<path d="M0.5120 0.3910
L0.5100 0.3870
" />
<path d="M0.5120 0.3910
L0.5100 0.3870
" />
<path d="M0.5120 0.3950
L0.5120 0.3910
" />
<path d="M0.5120 0.3950
L0.5120 0.3910
" />
<path d="M0.5120 0.4190
L0.5130 0.4170
" />
<path d="M0.5120 0.4190
L0.5130 0.4170
" />
<path d="M0.5120 0.4210
L0.5120 0.4190
" />
<path d="M0.5120 0.4210
L0.5120 0.4190
" />
<path d="M0.5120 0.4230
L0.5120 0.4210
" />
<path d="M0.5120 0.4230
L0.5120 0.4210
" />
<path d="M0.5130 0.3990
L0.5120 0.3950
" />
<path d="M0.5130 0.3990
L0.5120 0.3950
" />
<path d="M0.5130 0.4130
L0.5140 0.4110
" />
<path d="M0.5130 0.4130
L0.5140 0.4110
" />
<path d="M0.5130 0.4150
L0.5130 0.4130
" />
<path d="M0.5130 0.4150
L0.5130 0.4130
" />
<path d="M0.5130 0.4170
L0.5130 0.4150
" />
<path d="M0.5130 0.4170
L0.5130 0.4150
" />
<path d="M0.5140 0.4030
L0.5130 0.3990
" />
<path d="M0.5140 0.4030
L0.5130 0.3990
" />
<path d="M0.5140 0.4070
L0.5140 0.4030
" />
<path d="M0.5140 0.4070
L0.5140 0.4030
" />
<path d="M0.5140 0.4090
L0.5140 0.4070
" />
<path d="M0.5140 0.4090
L0.5140 0.4070
" />
<path d="M0.5140 0.4110
L0.5140 0.4090
" />
<path d="M0.5140 0.4110
L0.5140 0.4090
" />
<path d="M1.2730 0.2500
L0.2750 0.2500
" />
<path d="M1.2730 1.6500
L1.2730 0.2500
" />
</g> 
</svg>
