<?xml version="1.0" standalone="no"?>
 <!DOCTYPE svg PUBLIC "-//W3C//DTD SVG 1.1//EN" 
 "http://www.w3.org/Graphics/SVG/1.1/DTD/svg11.dtd"> 
<svg
  xmlns:svg="http://www.w3.org/2000/svg"
  xmlns="http://www.w3.org/2000/svg"
  xmlns:xlink="http://www.w3.org/1999/xlink"
  version="1.1"
  width="2.2860mm" height="1.6256mm" viewBox="0.0000 0.0000 2.2860 1.6256">
<title>SVG Image created as outline.svg date 2025/06/16 09:17:50 </title>
  <desc>Image generated by PCBNEW </desc>
<g style="fill:#000000; fill-opacity:1.0000;stroke:#000000; stroke-opacity:1.0000;
stroke-linecap:round; stroke-linejoin:round;"
 transform="translate(0 0) scale(1 1)">
</g>
<g style="fill:#000000; fill-opacity:1.0000; stroke:none;">
<circle cx="0.1450" cy="0.3750" r="0.0100" /> 
</g>
<g style="fill:none; 
stroke:#000000; stroke-width:0.0200; stroke-opacity:1; 
stroke-linecap:round; stroke-linejoin:round;">
<path d="M0.1450 1.2750
L0.1450 0.3750
" />
</g>
<g style="fill:#000000; fill-opacity:1.0000; stroke:none;">
<circle cx="0.1450" cy="1.2750" r="0.0100" /> 
</g>
<g style="fill:none; 
stroke:#000000; stroke-width:0.0200; stroke-opacity:1; 
stroke-linecap:round; stroke-linejoin:round;">
<path d="M0.1460 0.3750
L0.1450 0.3750
" />
<path d="M0.1460 1.2750
L0.1450 1.2750
" />
<path d="M0.1480 0.3750
L0.1460 0.3750
" />
<path d="M0.1480 1.2750
L0.1460 1.2750
" />
<path d="M0.1490 0.3560
L0.1450 0.3750
" />
<path d="M0.1490 1.2940
L0.1450 1.2750
" />
<path d="M0.1500 0.3750
L0.1480 0.3750
" />
<path d="M0.1500 1.2750
L0.1480 1.2750
" />
<path d="M0.1530 0.3750
L0.1500 0.3750
" />
<path d="M0.1530 1.2750
L0.1500 1.2750
" />
<path d="M0.1560 0.3750
L0.1530 0.3750
" />
<path d="M0.1560 1.2750
L0.1530 1.2750
" />
<path d="M0.1600 0.3400
L0.1490 0.3560
" />
<path d="M0.1600 0.3750
L0.1560 0.3750
" />
<path d="M0.1600 1.2750
L0.1560 1.2750
" />
<path d="M0.1600 1.3100
L0.1490 1.2940
" />
<path d="M0.1640 0.3750
L0.1600 0.3750
" />
<path d="M0.1640 1.2750
L0.1600 1.2750
" />
<path d="M0.1680 0.3750
L0.1640 0.3750
" />
<path d="M0.1680 1.2750
L0.1640 1.2750
" />
<path d="M0.1730 0.3750
L0.1680 0.3750
" />
<path d="M0.1730 1.2750
L0.1680 1.2750
" />
<path d="M0.1760 0.3290
L0.1600 0.3400
" />
<path d="M0.1760 1.3210
L0.1600 1.3100
" />
<path d="M0.1780 0.3750
L0.1730 0.3750
" />
<path d="M0.1780 1.2750
L0.1730 1.2750
" />
<path d="M0.1840 0.3750
L0.1780 0.3750
" />
<path d="M0.1840 1.2750
L0.1780 1.2750
" />
<path d="M0.1890 0.3750
L0.1840 0.3750
" />
<path d="M0.1890 1.2750
L0.1840 1.2750
" />
<path d="M0.1950 0.3250
L0.1760 0.3290
" />
</g>
<g style="fill:#000000; fill-opacity:1.0000; stroke:none;">
<circle cx="0.1950" cy="0.3250" r="0.0100" /> 
</g>
<g style="fill:none; 
stroke:#000000; stroke-width:0.0200; stroke-opacity:1; 
stroke-linecap:round; stroke-linejoin:round;">
<path d="M0.1950 0.3250
L0.2700 0.3250
" />
<path d="M0.1950 0.3260
L0.1950 0.3250
" />
<path d="M0.1950 0.3280
L0.1950 0.3260
" />
<path d="M0.1950 0.3300
L0.1950 0.3280
" />
<path d="M0.1950 0.3330
L0.1950 0.3300
" />
<path d="M0.1950 0.3360
L0.1950 0.3330
" />
<path d="M0.1950 0.3400
L0.1950 0.3360
" />
<path d="M0.1950 0.3440
L0.1950 0.3400
" />
<path d="M0.1950 0.3480
L0.1950 0.3440
" />
<path d="M0.1950 0.3530
L0.1950 0.3480
" />
<path d="M0.1950 0.3580
L0.1950 0.3530
" />
<path d="M0.1950 0.3640
L0.1950 0.3580
" />
<path d="M0.1950 0.3690
L0.1950 0.3640
" />
<path d="M0.1950 0.3750
L0.1890 0.3750
" />
<path d="M0.1950 0.3750
L0.1950 0.3690
" />
<path d="M0.1950 0.3750
L0.1950 1.2750
" />
<path d="M0.1950 1.2750
L0.1890 1.2750
" />
<path d="M0.1950 1.2750
L0.2700 1.2750
" />
<path d="M0.1950 1.2810
L0.1950 1.2750
" />
<path d="M0.1950 1.2860
L0.1950 1.2810
" />
<path d="M0.1950 1.2920
L0.1950 1.2860
" />
<path d="M0.1950 1.2970
L0.1950 1.2920
" />
<path d="M0.1950 1.3020
L0.1950 1.2970
" />
<path d="M0.1950 1.3060
L0.1950 1.3020
" />
<path d="M0.1950 1.3100
L0.1950 1.3060
" />
<path d="M0.1950 1.3140
L0.1950 1.3100
" />
<path d="M0.1950 1.3170
L0.1950 1.3140
" />
<path d="M0.1950 1.3200
L0.1950 1.3170
" />
<path d="M0.1950 1.3220
L0.1950 1.3200
" />
<path d="M0.1950 1.3240
L0.1950 1.3220
" />
<path d="M0.1950 1.3250
L0.1760 1.3210
" />
<path d="M0.1950 1.3250
L0.1950 1.3240
" />
</g>
<g style="fill:#000000; fill-opacity:1.0000; stroke:none;">
<circle cx="0.1950" cy="1.3250" r="0.0100" /> 
</g>
<g style="fill:none; 
stroke:#000000; stroke-width:0.0200; stroke-opacity:1; 
stroke-linecap:round; stroke-linejoin:round;">
<path d="M0.1950 1.3250
L0.2700 1.3250
" />
</g>
<g style="fill:#000000; fill-opacity:1.0000; stroke:none;">
<circle cx="0.2700" cy="0.3250" r="0.0100" /> 
<circle cx="0.2700" cy="0.3250" r="0.0100" /> 
</g>
<g style="fill:none; 
stroke:#000000; stroke-width:0.0200; stroke-opacity:1; 
stroke-linecap:round; stroke-linejoin:round;">
<path d="M0.2700 0.3250
L0.2700 0.3260
" />
<path d="M0.2700 0.3250
L0.2700 0.3260
" />
<path d="M0.2700 0.3250
L0.5200 0.3250
" />
<path d="M0.2700 0.3260
L0.2700 0.3280
" />
<path d="M0.2700 0.3260
L0.2700 0.3280
" />
<path d="M0.2700 0.3280
L0.2700 0.3300
" />
<path d="M0.2700 0.3280
L0.2700 0.3300
" />
<path d="M0.2700 0.3300
L0.2700 0.3330
" />
<path d="M0.2700 0.3300
L0.2700 0.3330
" />
<path d="M0.2700 0.3330
L0.2700 0.3360
" />
<path d="M0.2700 0.3330
L0.2700 0.3360
" />
<path d="M0.2700 0.3360
L0.2700 0.3400
" />
<path d="M0.2700 0.3360
L0.2700 0.3400
" />
<path d="M0.2700 0.3400
L0.2700 0.3440
" />
<path d="M0.2700 0.3400
L0.2700 0.3440
" />
<path d="M0.2700 0.3440
L0.2700 0.3480
" />
<path d="M0.2700 0.3440
L0.2700 0.3480
" />
<path d="M0.2700 0.3480
L0.2700 0.3530
" />
<path d="M0.2700 0.3480
L0.2700 0.3530
" />
<path d="M0.2700 0.3530
L0.2700 0.3580
" />
<path d="M0.2700 0.3530
L0.2700 0.3580
" />
<path d="M0.2700 0.3580
L0.2700 0.3640
" />
<path d="M0.2700 0.3580
L0.2700 0.3640
" />
<path d="M0.2700 0.3640
L0.2700 0.3690
" />
<path d="M0.2700 0.3640
L0.2700 0.3690
" />
<path d="M0.2700 0.3690
L0.2700 0.3750
" />
<path d="M0.2700 0.3690
L0.2700 0.3750
" />
<path d="M0.2700 0.3750
L0.1950 0.3750
" />
<path d="M0.2700 0.3750
L0.2700 0.5750
" />
<path d="M0.2700 0.3750
L0.2700 0.5750
" />
<path d="M0.2700 0.5750
L0.5200 0.5750
" />
<path d="M0.2700 0.5750
L0.5200 0.5750
" />
<path d="M0.2700 1.0750
L0.2700 1.2750
" />
<path d="M0.2700 1.0750
L0.2700 1.2750
" />
<path d="M0.2700 1.2750
L0.2700 1.2810
" />
<path d="M0.2700 1.2750
L0.2700 1.2810
" />
<path d="M0.2700 1.2750
L0.5200 1.2750
" />
<path d="M0.2700 1.2810
L0.2700 1.2860
" />
<path d="M0.2700 1.2810
L0.2700 1.2860
" />
<path d="M0.2700 1.2860
L0.2700 1.2920
" />
<path d="M0.2700 1.2860
L0.2700 1.2920
" />
<path d="M0.2700 1.2920
L0.2700 1.2970
" />
<path d="M0.2700 1.2920
L0.2700 1.2970
" />
<path d="M0.2700 1.2970
L0.2700 1.3020
" />
<path d="M0.2700 1.2970
L0.2700 1.3020
" />
<path d="M0.2700 1.3020
L0.2700 1.3060
" />
<path d="M0.2700 1.3020
L0.2700 1.3060
" />
<path d="M0.2700 1.3060
L0.2700 1.3100
" />
<path d="M0.2700 1.3060
L0.2700 1.3100
" />
<path d="M0.2700 1.3100
L0.2700 1.3140
" />
<path d="M0.2700 1.3100
L0.2700 1.3140
" />
<path d="M0.2700 1.3140
L0.2700 1.3170
" />
<path d="M0.2700 1.3140
L0.2700 1.3170
" />
<path d="M0.2700 1.3170
L0.2700 1.3200
" />
<path d="M0.2700 1.3170
L0.2700 1.3200
" />
<path d="M0.2700 1.3200
L0.2700 1.3220
" />
<path d="M0.2700 1.3200
L0.2700 1.3220
" />
<path d="M0.2700 1.3220
L0.2700 1.3240
" />
<path d="M0.2700 1.3220
L0.2700 1.3240
" />
<path d="M0.2700 1.3240
L0.2700 1.3250
" />
<path d="M0.2700 1.3240
L0.2700 1.3250
" />
<path d="M0.2700 1.3250
L0.1950 1.3250
" />
</g>
<g style="fill:#000000; fill-opacity:1.0000; stroke:none;">
<circle cx="0.2700" cy="1.3250" r="0.0100" /> 
<circle cx="0.2700" cy="1.3250" r="0.0100" /> 
</g>
<g style="fill:none; 
stroke:#000000; stroke-width:0.0200; stroke-opacity:1; 
stroke-linecap:round; stroke-linejoin:round;">
<path d="M0.2700 1.3250
L0.5200 1.3250
" />
</g>
<g style="fill:#000000; fill-opacity:1.0000; stroke:none;">
<circle cx="0.5200" cy="0.3250" r="0.0100" /> 
<circle cx="0.5200" cy="0.3250" r="0.0100" /> 
</g>
<g style="fill:none; 
stroke:#000000; stroke-width:0.0200; stroke-opacity:1; 
stroke-linecap:round; stroke-linejoin:round;">
<path d="M0.5200 0.3250
L0.7700 0.3250
" />
<path d="M0.5200 0.3260
L0.5200 0.3250
" />
<path d="M0.5200 0.3260
L0.5200 0.3250
" />
<path d="M0.5200 0.3280
L0.5200 0.3260
" />
<path d="M0.5200 0.3280
L0.5200 0.3260
" />
<path d="M0.5200 0.3300
L0.5200 0.3280
" />
<path d="M0.5200 0.3300
L0.5200 0.3280
" />
<path d="M0.5200 0.3330
L0.5200 0.3300
" />
<path d="M0.5200 0.3330
L0.5200 0.3300
" />
<path d="M0.5200 0.3360
L0.5200 0.3330
" />
<path d="M0.5200 0.3360
L0.5200 0.3330
" />
<path d="M0.5200 0.3400
L0.5200 0.3360
" />
<path d="M0.5200 0.3400
L0.5200 0.3360
" />
<path d="M0.5200 0.3440
L0.5200 0.3400
" />
<path d="M0.5200 0.3440
L0.5200 0.3400
" />
<path d="M0.5200 0.3480
L0.5200 0.3440
" />
<path d="M0.5200 0.3480
L0.5200 0.3440
" />
<path d="M0.5200 0.3530
L0.5200 0.3480
" />
<path d="M0.5200 0.3530
L0.5200 0.3480
" />
<path d="M0.5200 0.3580
L0.5200 0.3530
" />
<path d="M0.5200 0.3580
L0.5200 0.3530
" />
<path d="M0.5200 0.3640
L0.5200 0.3580
" />
<path d="M0.5200 0.3640
L0.5200 0.3580
" />
<path d="M0.5200 0.3690
L0.5200 0.3640
" />
<path d="M0.5200 0.3690
L0.5200 0.3640
" />
<path d="M0.5200 0.3750
L0.2700 0.3750
" />
<path d="M0.5200 0.3750
L0.5200 0.3690
" />
<path d="M0.5200 0.3750
L0.5200 0.3690
" />
<path d="M0.5200 0.5750
L0.5200 0.3750
" />
<path d="M0.5200 0.5750
L0.5200 0.3750
" />
<path d="M0.5200 1.0750
L0.2700 1.0750
" />
<path d="M0.5200 1.0750
L0.2700 1.0750
" />
<path d="M0.5200 1.2750
L0.5200 1.0750
" />
<path d="M0.5200 1.2750
L0.5200 1.0750
" />
<path d="M0.5200 1.2750
L0.7700 1.2750
" />
<path d="M0.5200 1.2810
L0.5200 1.2750
" />
<path d="M0.5200 1.2810
L0.5200 1.2750
" />
<path d="M0.5200 1.2860
L0.5200 1.2810
" />
<path d="M0.5200 1.2860
L0.5200 1.2810
" />
<path d="M0.5200 1.2920
L0.5200 1.2860
" />
<path d="M0.5200 1.2920
L0.5200 1.2860
" />
<path d="M0.5200 1.2970
L0.5200 1.2920
" />
<path d="M0.5200 1.2970
L0.5200 1.2920
" />
<path d="M0.5200 1.3020
L0.5200 1.2970
" />
<path d="M0.5200 1.3020
L0.5200 1.2970
" />
<path d="M0.5200 1.3060
L0.5200 1.3020
" />
<path d="M0.5200 1.3060
L0.5200 1.3020
" />
<path d="M0.5200 1.3100
L0.5200 1.3060
" />
<path d="M0.5200 1.3100
L0.5200 1.3060
" />
<path d="M0.5200 1.3140
L0.5200 1.3100
" />
<path d="M0.5200 1.3140
L0.5200 1.3100
" />
<path d="M0.5200 1.3170
L0.5200 1.3140
" />
<path d="M0.5200 1.3170
L0.5200 1.3140
" />
<path d="M0.5200 1.3200
L0.5200 1.3170
" />
<path d="M0.5200 1.3200
L0.5200 1.3170
" />
<path d="M0.5200 1.3220
L0.5200 1.3200
" />
<path d="M0.5200 1.3220
L0.5200 1.3200
" />
<path d="M0.5200 1.3240
L0.5200 1.3220
" />
<path d="M0.5200 1.3240
L0.5200 1.3220
" />
<path d="M0.5200 1.3250
L0.2700 1.3250
" />
<path d="M0.5200 1.3250
L0.5200 1.3240
" />
<path d="M0.5200 1.3250
L0.5200 1.3240
" />
</g>
<g style="fill:#000000; fill-opacity:1.0000; stroke:none;">
<circle cx="0.5200" cy="1.3250" r="0.0100" /> 
<circle cx="0.5200" cy="1.3250" r="0.0100" /> 
</g>
<g style="fill:none; 
stroke:#000000; stroke-width:0.0200; stroke-opacity:1; 
stroke-linecap:round; stroke-linejoin:round;">
<path d="M0.5200 1.3250
L0.7700 1.3250
" />
</g>
<g style="fill:#000000; fill-opacity:1.0000; stroke:none;">
<circle cx="0.7700" cy="0.3250" r="0.0100" /> 
<circle cx="0.7700" cy="0.3250" r="0.0100" /> 
</g>
<g style="fill:none; 
stroke:#000000; stroke-width:0.0200; stroke-opacity:1; 
stroke-linecap:round; stroke-linejoin:round;">
<path d="M0.7700 0.3250
L0.7700 0.3260
" />
<path d="M0.7700 0.3250
L0.7700 0.3260
" />
<path d="M0.7700 0.3250
L1.0200 0.3250
" />
<path d="M0.7700 0.3260
L0.7700 0.3280
" />
<path d="M0.7700 0.3260
L0.7700 0.3280
" />
<path d="M0.7700 0.3280
L0.7700 0.3300
" />
<path d="M0.7700 0.3280
L0.7700 0.3300
" />
<path d="M0.7700 0.3300
L0.7700 0.3330
" />
<path d="M0.7700 0.3300
L0.7700 0.3330
" />
<path d="M0.7700 0.3330
L0.7700 0.3360
" />
<path d="M0.7700 0.3330
L0.7700 0.3360
" />
<path d="M0.7700 0.3360
L0.7700 0.3400
" />
<path d="M0.7700 0.3360
L0.7700 0.3400
" />
<path d="M0.7700 0.3400
L0.7700 0.3440
" />
<path d="M0.7700 0.3400
L0.7700 0.3440
" />
<path d="M0.7700 0.3440
L0.7700 0.3480
" />
<path d="M0.7700 0.3440
L0.7700 0.3480
" />
<path d="M0.7700 0.3480
L0.7700 0.3530
" />
<path d="M0.7700 0.3480
L0.7700 0.3530
" />
<path d="M0.7700 0.3530
L0.7700 0.3580
" />
<path d="M0.7700 0.3530
L0.7700 0.3580
" />
<path d="M0.7700 0.3580
L0.7700 0.3640
" />
<path d="M0.7700 0.3580
L0.7700 0.3640
" />
<path d="M0.7700 0.3640
L0.7700 0.3690
" />
<path d="M0.7700 0.3640
L0.7700 0.3690
" />
<path d="M0.7700 0.3690
L0.7700 0.3750
" />
<path d="M0.7700 0.3690
L0.7700 0.3750
" />
<path d="M0.7700 0.3750
L0.5200 0.3750
" />
<path d="M0.7700 0.3750
L0.7700 0.5750
" />
<path d="M0.7700 0.3750
L0.7700 0.5750
" />
<path d="M0.7700 0.5750
L1.0200 0.5750
" />
<path d="M0.7700 0.5750
L1.0200 0.5750
" />
<path d="M0.7700 1.0750
L0.7700 1.2750
" />
<path d="M0.7700 1.0750
L0.7700 1.2750
" />
<path d="M0.7700 1.2750
L0.7700 1.2810
" />
<path d="M0.7700 1.2750
L0.7700 1.2810
" />
<path d="M0.7700 1.2750
L1.0200 1.2750
" />
<path d="M0.7700 1.2810
L0.7700 1.2860
" />
<path d="M0.7700 1.2810
L0.7700 1.2860
" />
<path d="M0.7700 1.2860
L0.7700 1.2920
" />
<path d="M0.7700 1.2860
L0.7700 1.2920
" />
<path d="M0.7700 1.2920
L0.7700 1.2970
" />
<path d="M0.7700 1.2920
L0.7700 1.2970
" />
<path d="M0.7700 1.2970
L0.7700 1.3020
" />
<path d="M0.7700 1.2970
L0.7700 1.3020
" />
<path d="M0.7700 1.3020
L0.7700 1.3060
" />
<path d="M0.7700 1.3020
L0.7700 1.3060
" />
<path d="M0.7700 1.3060
L0.7700 1.3100
" />
<path d="M0.7700 1.3060
L0.7700 1.3100
" />
<path d="M0.7700 1.3100
L0.7700 1.3140
" />
<path d="M0.7700 1.3100
L0.7700 1.3140
" />
<path d="M0.7700 1.3140
L0.7700 1.3170
" />
<path d="M0.7700 1.3140
L0.7700 1.3170
" />
<path d="M0.7700 1.3170
L0.7700 1.3200
" />
<path d="M0.7700 1.3170
L0.7700 1.3200
" />
<path d="M0.7700 1.3200
L0.7700 1.3220
" />
<path d="M0.7700 1.3200
L0.7700 1.3220
" />
<path d="M0.7700 1.3220
L0.7700 1.3240
" />
<path d="M0.7700 1.3220
L0.7700 1.3240
" />
<path d="M0.7700 1.3240
L0.7700 1.3250
" />
<path d="M0.7700 1.3240
L0.7700 1.3250
" />
<path d="M0.7700 1.3250
L0.5200 1.3250
" />
</g>
<g style="fill:#000000; fill-opacity:1.0000; stroke:none;">
<circle cx="0.7700" cy="1.3250" r="0.0100" /> 
<circle cx="0.7700" cy="1.3250" r="0.0100" /> 
</g>
<g style="fill:none; 
stroke:#000000; stroke-width:0.0200; stroke-opacity:1; 
stroke-linecap:round; stroke-linejoin:round;">
<path d="M0.7700 1.3250
L1.0200 1.3250
" />
</g>
<g style="fill:#000000; fill-opacity:1.0000; stroke:none;">
<circle cx="1.0200" cy="0.3250" r="0.0100" /> 
<circle cx="1.0200" cy="0.3250" r="0.0100" /> 
</g>
<g style="fill:none; 
stroke:#000000; stroke-width:0.0200; stroke-opacity:1; 
stroke-linecap:round; stroke-linejoin:round;">
<path d="M1.0200 0.3250
L1.2700 0.3250
" />
<path d="M1.0200 0.3260
L1.0200 0.3250
" />
<path d="M1.0200 0.3260
L1.0200 0.3250
" />
<path d="M1.0200 0.3280
L1.0200 0.3260
" />
<path d="M1.0200 0.3280
L1.0200 0.3260
" />
<path d="M1.0200 0.3300
L1.0200 0.3280
" />
<path d="M1.0200 0.3300
L1.0200 0.3280
" />
<path d="M1.0200 0.3330
L1.0200 0.3300
" />
<path d="M1.0200 0.3330
L1.0200 0.3300
" />
<path d="M1.0200 0.3360
L1.0200 0.3330
" />
<path d="M1.0200 0.3360
L1.0200 0.3330
" />
<path d="M1.0200 0.3400
L1.0200 0.3360
" />
<path d="M1.0200 0.3400
L1.0200 0.3360
" />
<path d="M1.0200 0.3440
L1.0200 0.3400
" />
<path d="M1.0200 0.3440
L1.0200 0.3400
" />
<path d="M1.0200 0.3480
L1.0200 0.3440
" />
<path d="M1.0200 0.3480
L1.0200 0.3440
" />
<path d="M1.0200 0.3530
L1.0200 0.3480
" />
<path d="M1.0200 0.3530
L1.0200 0.3480
" />
<path d="M1.0200 0.3580
L1.0200 0.3530
" />
<path d="M1.0200 0.3580
L1.0200 0.3530
" />
<path d="M1.0200 0.3640
L1.0200 0.3580
" />
<path d="M1.0200 0.3640
L1.0200 0.3580
" />
<path d="M1.0200 0.3690
L1.0200 0.3640
" />
<path d="M1.0200 0.3690
L1.0200 0.3640
" />
<path d="M1.0200 0.3750
L0.7700 0.3750
" />
<path d="M1.0200 0.3750
L1.0200 0.3690
" />
<path d="M1.0200 0.3750
L1.0200 0.3690
" />
<path d="M1.0200 0.5750
L1.0200 0.3750
" />
<path d="M1.0200 0.5750
L1.0200 0.3750
" />
<path d="M1.0200 1.0750
L0.7700 1.0750
" />
<path d="M1.0200 1.0750
L0.7700 1.0750
" />
<path d="M1.0200 1.2750
L1.0200 1.0750
" />
<path d="M1.0200 1.2750
L1.0200 1.0750
" />
<path d="M1.0200 1.2750
L1.2700 1.2750
" />
<path d="M1.0200 1.2810
L1.0200 1.2750
" />
<path d="M1.0200 1.2810
L1.0200 1.2750
" />
<path d="M1.0200 1.2860
L1.0200 1.2810
" />
<path d="M1.0200 1.2860
L1.0200 1.2810
" />
<path d="M1.0200 1.2920
L1.0200 1.2860
" />
<path d="M1.0200 1.2920
L1.0200 1.2860
" />
<path d="M1.0200 1.2970
L1.0200 1.2920
" />
<path d="M1.0200 1.2970
L1.0200 1.2920
" />
<path d="M1.0200 1.3020
L1.0200 1.2970
" />
<path d="M1.0200 1.3020
L1.0200 1.2970
" />
<path d="M1.0200 1.3060
L1.0200 1.3020
" />
<path d="M1.0200 1.3060
L1.0200 1.3020
" />
<path d="M1.0200 1.3100
L1.0200 1.3060
" />
<path d="M1.0200 1.3100
L1.0200 1.3060
" />
<path d="M1.0200 1.3140
L1.0200 1.3100
" />
<path d="M1.0200 1.3140
L1.0200 1.3100
" />
<path d="M1.0200 1.3170
L1.0200 1.3140
" />
<path d="M1.0200 1.3170
L1.0200 1.3140
" />
<path d="M1.0200 1.3200
L1.0200 1.3170
" />
<path d="M1.0200 1.3200
L1.0200 1.3170
" />
<path d="M1.0200 1.3220
L1.0200 1.3200
" />
<path d="M1.0200 1.3220
L1.0200 1.3200
" />
<path d="M1.0200 1.3240
L1.0200 1.3220
" />
<path d="M1.0200 1.3240
L1.0200 1.3220
" />
<path d="M1.0200 1.3250
L0.7700 1.3250
" />
<path d="M1.0200 1.3250
L1.0200 1.3240
" />
<path d="M1.0200 1.3250
L1.0200 1.3240
" />
</g>
<g style="fill:#000000; fill-opacity:1.0000; stroke:none;">
<circle cx="1.0200" cy="1.3250" r="0.0100" /> 
<circle cx="1.0200" cy="1.3250" r="0.0100" /> 
<circle cx="1.2700" cy="0.3250" r="0.0100" /> 
<circle cx="1.2700" cy="0.3250" r="0.0100" /> 
</g>
<g style="fill:none; 
stroke:#000000; stroke-width:0.0200; stroke-opacity:1; 
stroke-linecap:round; stroke-linejoin:round;">
<path d="M1.2700 0.3250
L1.2700 0.3260
" />
<path d="M1.2700 0.3250
L1.2700 0.3260
" />
<path d="M1.2700 0.3250
L1.5200 0.3250
" />
<path d="M1.2700 0.3260
L1.2700 0.3280
" />
<path d="M1.2700 0.3260
L1.2700 0.3280
" />
<path d="M1.2700 0.3280
L1.2700 0.3300
" />
<path d="M1.2700 0.3280
L1.2700 0.3300
" />
<path d="M1.2700 0.3300
L1.2700 0.3330
" />
<path d="M1.2700 0.3300
L1.2700 0.3330
" />
<path d="M1.2700 0.3330
L1.2700 0.3360
" />
<path d="M1.2700 0.3330
L1.2700 0.3360
" />
<path d="M1.2700 0.3360
L1.2700 0.3400
" />
<path d="M1.2700 0.3360
L1.2700 0.3400
" />
<path d="M1.2700 0.3400
L1.2700 0.3440
" />
<path d="M1.2700 0.3400
L1.2700 0.3440
" />
<path d="M1.2700 0.3440
L1.2700 0.3480
" />
<path d="M1.2700 0.3440
L1.2700 0.3480
" />
<path d="M1.2700 0.3480
L1.2700 0.3530
" />
<path d="M1.2700 0.3480
L1.2700 0.3530
" />
<path d="M1.2700 0.3530
L1.2700 0.3580
" />
<path d="M1.2700 0.3530
L1.2700 0.3580
" />
<path d="M1.2700 0.3580
L1.2700 0.3640
" />
<path d="M1.2700 0.3580
L1.2700 0.3640
" />
<path d="M1.2700 0.3640
L1.2700 0.3690
" />
<path d="M1.2700 0.3640
L1.2700 0.3690
" />
<path d="M1.2700 0.3690
L1.2700 0.3750
" />
<path d="M1.2700 0.3690
L1.2700 0.3750
" />
<path d="M1.2700 0.3750
L1.0200 0.3750
" />
<path d="M1.2700 0.3750
L1.2700 0.5750
" />
<path d="M1.2700 0.3750
L1.2700 0.5750
" />
<path d="M1.2700 0.5750
L1.5200 0.5750
" />
<path d="M1.2700 0.5750
L1.5200 0.5750
" />
<path d="M1.2700 1.0750
L1.2700 1.2750
" />
<path d="M1.2700 1.0750
L1.2700 1.2750
" />
<path d="M1.2700 1.2750
L1.2700 1.2810
" />
<path d="M1.2700 1.2750
L1.2700 1.2810
" />
<path d="M1.2700 1.2750
L1.5200 1.2750
" />
<path d="M1.2700 1.2810
L1.2700 1.2860
" />
<path d="M1.2700 1.2810
L1.2700 1.2860
" />
<path d="M1.2700 1.2860
L1.2700 1.2920
" />
<path d="M1.2700 1.2860
L1.2700 1.2920
" />
<path d="M1.2700 1.2920
L1.2700 1.2970
" />
<path d="M1.2700 1.2920
L1.2700 1.2970
" />
<path d="M1.2700 1.2970
L1.2700 1.3020
" />
<path d="M1.2700 1.2970
L1.2700 1.3020
" />
<path d="M1.2700 1.3020
L1.2700 1.3060
" />
<path d="M1.2700 1.3020
L1.2700 1.3060
" />
<path d="M1.2700 1.3060
L1.2700 1.3100
" />
<path d="M1.2700 1.3060
L1.2700 1.3100
" />
<path d="M1.2700 1.3100
L1.2700 1.3140
" />
<path d="M1.2700 1.3100
L1.2700 1.3140
" />
<path d="M1.2700 1.3140
L1.2700 1.3170
" />
<path d="M1.2700 1.3140
L1.2700 1.3170
" />
<path d="M1.2700 1.3170
L1.2700 1.3200
" />
<path d="M1.2700 1.3170
L1.2700 1.3200
" />
<path d="M1.2700 1.3200
L1.2700 1.3220
" />
<path d="M1.2700 1.3200
L1.2700 1.3220
" />
<path d="M1.2700 1.3220
L1.2700 1.3240
" />
<path d="M1.2700 1.3220
L1.2700 1.3240
" />
<path d="M1.2700 1.3240
L1.2700 1.3250
" />
<path d="M1.2700 1.3240
L1.2700 1.3250
" />
<path d="M1.2700 1.3250
L1.0200 1.3250
" />
</g>
<g style="fill:#000000; fill-opacity:1.0000; stroke:none;">
<circle cx="1.2700" cy="1.3250" r="0.0100" /> 
<circle cx="1.2700" cy="1.3250" r="0.0100" /> 
<circle cx="1.5200" cy="0.3250" r="0.0100" /> 
<circle cx="1.5200" cy="0.3250" r="0.0100" /> 
</g>
<g style="fill:none; 
stroke:#000000; stroke-width:0.0200; stroke-opacity:1; 
stroke-linecap:round; stroke-linejoin:round;">
<path d="M1.5200 0.3250
L1.7700 0.3250
" />
<path d="M1.5200 0.3260
L1.5200 0.3250
" />
<path d="M1.5200 0.3260
L1.5200 0.3250
" />
<path d="M1.5200 0.3280
L1.5200 0.3260
" />
<path d="M1.5200 0.3280
L1.5200 0.3260
" />
<path d="M1.5200 0.3300
L1.5200 0.3280
" />
<path d="M1.5200 0.3300
L1.5200 0.3280
" />
<path d="M1.5200 0.3330
L1.5200 0.3300
" />
<path d="M1.5200 0.3330
L1.5200 0.3300
" />
<path d="M1.5200 0.3360
L1.5200 0.3330
" />
<path d="M1.5200 0.3360
L1.5200 0.3330
" />
<path d="M1.5200 0.3400
L1.5200 0.3360
" />
<path d="M1.5200 0.3400
L1.5200 0.3360
" />
<path d="M1.5200 0.3440
L1.5200 0.3400
" />
<path d="M1.5200 0.3440
L1.5200 0.3400
" />
<path d="M1.5200 0.3480
L1.5200 0.3440
" />
<path d="M1.5200 0.3480
L1.5200 0.3440
" />
<path d="M1.5200 0.3530
L1.5200 0.3480
" />
<path d="M1.5200 0.3530
L1.5200 0.3480
" />
<path d="M1.5200 0.3580
L1.5200 0.3530
" />
<path d="M1.5200 0.3580
L1.5200 0.3530
" />
<path d="M1.5200 0.3640
L1.5200 0.3580
" />
<path d="M1.5200 0.3640
L1.5200 0.3580
" />
<path d="M1.5200 0.3690
L1.5200 0.3640
" />
<path d="M1.5200 0.3690
L1.5200 0.3640
" />
<path d="M1.5200 0.3750
L1.2700 0.3750
" />
<path d="M1.5200 0.3750
L1.5200 0.3690
" />
<path d="M1.5200 0.3750
L1.5200 0.3690
" />
<path d="M1.5200 0.5750
L1.5200 0.3750
" />
<path d="M1.5200 0.5750
L1.5200 0.3750
" />
<path d="M1.5200 1.0750
L1.2700 1.0750
" />
<path d="M1.5200 1.0750
L1.2700 1.0750
" />
<path d="M1.5200 1.2750
L1.5200 1.0750
" />
<path d="M1.5200 1.2750
L1.5200 1.0750
" />
<path d="M1.5200 1.2750
L1.7700 1.2750
" />
<path d="M1.5200 1.2810
L1.5200 1.2750
" />
<path d="M1.5200 1.2810
L1.5200 1.2750
" />
<path d="M1.5200 1.2860
L1.5200 1.2810
" />
<path d="M1.5200 1.2860
L1.5200 1.2810
" />
<path d="M1.5200 1.2920
L1.5200 1.2860
" />
<path d="M1.5200 1.2920
L1.5200 1.2860
" />
<path d="M1.5200 1.2970
L1.5200 1.2920
" />
<path d="M1.5200 1.2970
L1.5200 1.2920
" />
<path d="M1.5200 1.3020
L1.5200 1.2970
" />
<path d="M1.5200 1.3020
L1.5200 1.2970
" />
<path d="M1.5200 1.3060
L1.5200 1.3020
" />
<path d="M1.5200 1.3060
L1.5200 1.3020
" />
<path d="M1.5200 1.3100
L1.5200 1.3060
" />
<path d="M1.5200 1.3100
L1.5200 1.3060
" />
<path d="M1.5200 1.3140
L1.5200 1.3100
" />
<path d="M1.5200 1.3140
L1.5200 1.3100
" />
<path d="M1.5200 1.3170
L1.5200 1.3140
" />
<path d="M1.5200 1.3170
L1.5200 1.3140
" />
<path d="M1.5200 1.3200
L1.5200 1.3170
" />
<path d="M1.5200 1.3200
L1.5200 1.3170
" />
<path d="M1.5200 1.3220
L1.5200 1.3200
" />
<path d="M1.5200 1.3220
L1.5200 1.3200
" />
<path d="M1.5200 1.3240
L1.5200 1.3220
" />
<path d="M1.5200 1.3240
L1.5200 1.3220
" />
<path d="M1.5200 1.3250
L1.2700 1.3250
" />
<path d="M1.5200 1.3250
L1.5200 1.3240
" />
<path d="M1.5200 1.3250
L1.5200 1.3240
" />
</g>
<g style="fill:#000000; fill-opacity:1.0000; stroke:none;">
<circle cx="1.5200" cy="1.3250" r="0.0100" /> 
<circle cx="1.5200" cy="1.3250" r="0.0100" /> 
<circle cx="1.7700" cy="0.3250" r="0.0100" /> 
<circle cx="1.7700" cy="0.3250" r="0.0100" /> 
</g>
<g style="fill:none; 
stroke:#000000; stroke-width:0.0200; stroke-opacity:1; 
stroke-linecap:round; stroke-linejoin:round;">
<path d="M1.7700 0.3250
L1.7700 0.3260
" />
<path d="M1.7700 0.3250
L1.7700 0.3260
" />
<path d="M1.7700 0.3250
L2.0200 0.3250
" />
<path d="M1.7700 0.3260
L1.7700 0.3280
" />
<path d="M1.7700 0.3260
L1.7700 0.3280
" />
<path d="M1.7700 0.3280
L1.7700 0.3300
" />
<path d="M1.7700 0.3280
L1.7700 0.3300
" />
<path d="M1.7700 0.3300
L1.7700 0.3330
" />
<path d="M1.7700 0.3300
L1.7700 0.3330
" />
<path d="M1.7700 0.3330
L1.7700 0.3360
" />
<path d="M1.7700 0.3330
L1.7700 0.3360
" />
<path d="M1.7700 0.3360
L1.7700 0.3400
" />
<path d="M1.7700 0.3360
L1.7700 0.3400
" />
<path d="M1.7700 0.3400
L1.7700 0.3440
" />
<path d="M1.7700 0.3400
L1.7700 0.3440
" />
<path d="M1.7700 0.3440
L1.7700 0.3480
" />
<path d="M1.7700 0.3440
L1.7700 0.3480
" />
<path d="M1.7700 0.3480
L1.7700 0.3530
" />
<path d="M1.7700 0.3480
L1.7700 0.3530
" />
<path d="M1.7700 0.3530
L1.7700 0.3580
" />
<path d="M1.7700 0.3530
L1.7700 0.3580
" />
<path d="M1.7700 0.3580
L1.7700 0.3640
" />
<path d="M1.7700 0.3580
L1.7700 0.3640
" />
<path d="M1.7700 0.3640
L1.7700 0.3690
" />
<path d="M1.7700 0.3640
L1.7700 0.3690
" />
<path d="M1.7700 0.3690
L1.7700 0.3750
" />
<path d="M1.7700 0.3690
L1.7700 0.3750
" />
<path d="M1.7700 0.3750
L1.5200 0.3750
" />
<path d="M1.7700 0.3750
L1.7700 0.5750
" />
<path d="M1.7700 0.3750
L1.7700 0.5750
" />
<path d="M1.7700 0.5750
L2.0200 0.5750
" />
<path d="M1.7700 0.5750
L2.0200 0.5750
" />
<path d="M1.7700 1.0750
L1.7700 1.2750
" />
<path d="M1.7700 1.0750
L1.7700 1.2750
" />
<path d="M1.7700 1.2750
L1.7700 1.2810
" />
<path d="M1.7700 1.2750
L1.7700 1.2810
" />
<path d="M1.7700 1.2750
L2.0200 1.2750
" />
<path d="M1.7700 1.2810
L1.7700 1.2860
" />
<path d="M1.7700 1.2810
L1.7700 1.2860
" />
<path d="M1.7700 1.2860
L1.7700 1.2920
" />
<path d="M1.7700 1.2860
L1.7700 1.2920
" />
<path d="M1.7700 1.2920
L1.7700 1.2970
" />
<path d="M1.7700 1.2920
L1.7700 1.2970
" />
<path d="M1.7700 1.2970
L1.7700 1.3020
" />
<path d="M1.7700 1.2970
L1.7700 1.3020
" />
<path d="M1.7700 1.3020
L1.7700 1.3060
" />
<path d="M1.7700 1.3020
L1.7700 1.3060
" />
<path d="M1.7700 1.3060
L1.7700 1.3100
" />
<path d="M1.7700 1.3060
L1.7700 1.3100
" />
<path d="M1.7700 1.3100
L1.7700 1.3140
" />
<path d="M1.7700 1.3100
L1.7700 1.3140
" />
<path d="M1.7700 1.3140
L1.7700 1.3170
" />
<path d="M1.7700 1.3140
L1.7700 1.3170
" />
<path d="M1.7700 1.3170
L1.7700 1.3200
" />
<path d="M1.7700 1.3170
L1.7700 1.3200
" />
<path d="M1.7700 1.3200
L1.7700 1.3220
" />
<path d="M1.7700 1.3200
L1.7700 1.3220
" />
<path d="M1.7700 1.3220
L1.7700 1.3240
" />
<path d="M1.7700 1.3220
L1.7700 1.3240
" />
<path d="M1.7700 1.3240
L1.7700 1.3250
" />
<path d="M1.7700 1.3240
L1.7700 1.3250
" />
<path d="M1.7700 1.3250
L1.5200 1.3250
" />
</g>
<g style="fill:#000000; fill-opacity:1.0000; stroke:none;">
<circle cx="1.7700" cy="1.3250" r="0.0100" /> 
<circle cx="1.7700" cy="1.3250" r="0.0100" /> 
<circle cx="2.0200" cy="0.3250" r="0.0100" /> 
<circle cx="2.0200" cy="0.3250" r="0.0100" /> 
</g>
<g style="fill:none; 
stroke:#000000; stroke-width:0.0200; stroke-opacity:1; 
stroke-linecap:round; stroke-linejoin:round;">
<path d="M2.0200 0.3250
L2.0950 0.3250
" />
<path d="M2.0200 0.3260
L2.0200 0.3250
" />
<path d="M2.0200 0.3260
L2.0200 0.3250
" />
<path d="M2.0200 0.3280
L2.0200 0.3260
" />
<path d="M2.0200 0.3280
L2.0200 0.3260
" />
<path d="M2.0200 0.3300
L2.0200 0.3280
" />
<path d="M2.0200 0.3300
L2.0200 0.3280
" />
<path d="M2.0200 0.3330
L2.0200 0.3300
" />
<path d="M2.0200 0.3330
L2.0200 0.3300
" />
<path d="M2.0200 0.3360
L2.0200 0.3330
" />
<path d="M2.0200 0.3360
L2.0200 0.3330
" />
<path d="M2.0200 0.3400
L2.0200 0.3360
" />
<path d="M2.0200 0.3400
L2.0200 0.3360
" />
<path d="M2.0200 0.3440
L2.0200 0.3400
" />
<path d="M2.0200 0.3440
L2.0200 0.3400
" />
<path d="M2.0200 0.3480
L2.0200 0.3440
" />
<path d="M2.0200 0.3480
L2.0200 0.3440
" />
<path d="M2.0200 0.3530
L2.0200 0.3480
" />
<path d="M2.0200 0.3530
L2.0200 0.3480
" />
<path d="M2.0200 0.3580
L2.0200 0.3530
" />
<path d="M2.0200 0.3580
L2.0200 0.3530
" />
<path d="M2.0200 0.3640
L2.0200 0.3580
" />
<path d="M2.0200 0.3640
L2.0200 0.3580
" />
<path d="M2.0200 0.3690
L2.0200 0.3640
" />
<path d="M2.0200 0.3690
L2.0200 0.3640
" />
<path d="M2.0200 0.3750
L1.7700 0.3750
" />
<path d="M2.0200 0.3750
L2.0200 0.3690
" />
<path d="M2.0200 0.3750
L2.0200 0.3690
" />
<path d="M2.0200 0.5750
L2.0200 0.3750
" />
<path d="M2.0200 0.5750
L2.0200 0.3750
" />
<path d="M2.0200 1.0750
L1.7700 1.0750
" />
<path d="M2.0200 1.0750
L1.7700 1.0750
" />
<path d="M2.0200 1.2750
L2.0200 1.0750
" />
<path d="M2.0200 1.2750
L2.0200 1.0750
" />
<path d="M2.0200 1.2750
L2.0950 1.2750
" />
<path d="M2.0200 1.2810
L2.0200 1.2750
" />
<path d="M2.0200 1.2810
L2.0200 1.2750
" />
<path d="M2.0200 1.2860
L2.0200 1.2810
" />
<path d="M2.0200 1.2860
L2.0200 1.2810
" />
<path d="M2.0200 1.2920
L2.0200 1.2860
" />
<path d="M2.0200 1.2920
L2.0200 1.2860
" />
<path d="M2.0200 1.2970
L2.0200 1.2920
" />
<path d="M2.0200 1.2970
L2.0200 1.2920
" />
<path d="M2.0200 1.3020
L2.0200 1.2970
" />
<path d="M2.0200 1.3020
L2.0200 1.2970
" />
<path d="M2.0200 1.3060
L2.0200 1.3020
" />
<path d="M2.0200 1.3060
L2.0200 1.3020
" />
<path d="M2.0200 1.3100
L2.0200 1.3060
" />
<path d="M2.0200 1.3100
L2.0200 1.3060
" />
<path d="M2.0200 1.3140
L2.0200 1.3100
" />
<path d="M2.0200 1.3140
L2.0200 1.3100
" />
<path d="M2.0200 1.3170
L2.0200 1.3140
" />
<path d="M2.0200 1.3170
L2.0200 1.3140
" />
<path d="M2.0200 1.3200
L2.0200 1.3170
" />
<path d="M2.0200 1.3200
L2.0200 1.3170
" />
<path d="M2.0200 1.3220
L2.0200 1.3200
" />
<path d="M2.0200 1.3220
L2.0200 1.3200
" />
<path d="M2.0200 1.3240
L2.0200 1.3220
" />
<path d="M2.0200 1.3240
L2.0200 1.3220
" />
<path d="M2.0200 1.3250
L1.7700 1.3250
" />
<path d="M2.0200 1.3250
L2.0200 1.3240
" />
<path d="M2.0200 1.3250
L2.0200 1.3240
" />
</g>
<g style="fill:#000000; fill-opacity:1.0000; stroke:none;">
<circle cx="2.0200" cy="1.3250" r="0.0100" /> 
<circle cx="2.0200" cy="1.3250" r="0.0100" /> 
<circle cx="2.0950" cy="0.3250" r="0.0100" /> 
</g>
<g style="fill:none; 
stroke:#000000; stroke-width:0.0200; stroke-opacity:1; 
stroke-linecap:round; stroke-linejoin:round;">
<path d="M2.0950 0.3260
L2.0950 0.3250
" />
<path d="M2.0950 0.3280
L2.0950 0.3260
" />
<path d="M2.0950 0.3300
L2.0950 0.3280
" />
<path d="M2.0950 0.3330
L2.0950 0.3300
" />
<path d="M2.0950 0.3360
L2.0950 0.3330
" />
<path d="M2.0950 0.3400
L2.0950 0.3360
" />
<path d="M2.0950 0.3440
L2.0950 0.3400
" />
<path d="M2.0950 0.3480
L2.0950 0.3440
" />
<path d="M2.0950 0.3530
L2.0950 0.3480
" />
<path d="M2.0950 0.3580
L2.0950 0.3530
" />
<path d="M2.0950 0.3640
L2.0950 0.3580
" />
<path d="M2.0950 0.3690
L2.0950 0.3640
" />
<path d="M2.0950 0.3750
L2.0200 0.3750
" />
<path d="M2.0950 0.3750
L2.0950 0.3690
" />
<path d="M2.0950 1.2750
L2.0950 0.3750
" />
<path d="M2.0950 1.2810
L2.0950 1.2750
" />
<path d="M2.0950 1.2860
L2.0950 1.2810
" />
<path d="M2.0950 1.2920
L2.0950 1.2860
" />
<path d="M2.0950 1.2970
L2.0950 1.2920
" />
<path d="M2.0950 1.3020
L2.0950 1.2970
" />
<path d="M2.0950 1.3060
L2.0950 1.3020
" />
<path d="M2.0950 1.3100
L2.0950 1.3060
" />
<path d="M2.0950 1.3140
L2.0950 1.3100
" />
<path d="M2.0950 1.3170
L2.0950 1.3140
" />
<path d="M2.0950 1.3200
L2.0950 1.3170
" />
<path d="M2.0950 1.3220
L2.0950 1.3200
" />
<path d="M2.0950 1.3240
L2.0950 1.3220
" />
<path d="M2.0950 1.3250
L2.0200 1.3250
" />
<path d="M2.0950 1.3250
L2.0950 1.3240
" />
</g>
<g style="fill:#000000; fill-opacity:1.0000; stroke:none;">
<circle cx="2.0950" cy="1.3250" r="0.0100" /> 
</g>
<g style="fill:none; 
stroke:#000000; stroke-width:0.0200; stroke-opacity:1; 
stroke-linecap:round; stroke-linejoin:round;">
<path d="M2.0950 1.3250
L2.1140 1.3210
" />
<path d="M2.1010 0.3750
L2.0950 0.3750
" />
<path d="M2.1010 1.2750
L2.0950 1.2750
" />
<path d="M2.1060 0.3750
L2.1010 0.3750
" />
<path d="M2.1060 1.2750
L2.1010 1.2750
" />
<path d="M2.1120 0.3750
L2.1060 0.3750
" />
<path d="M2.1120 1.2750
L2.1060 1.2750
" />
<path d="M2.1140 0.3290
L2.0950 0.3250
" />
<path d="M2.1140 1.3210
L2.1300 1.3100
" />
<path d="M2.1170 0.3750
L2.1120 0.3750
" />
<path d="M2.1170 1.2750
L2.1120 1.2750
" />
<path d="M2.1220 0.3750
L2.1170 0.3750
" />
<path d="M2.1220 1.2750
L2.1170 1.2750
" />
<path d="M2.1260 0.3750
L2.1220 0.3750
" />
<path d="M2.1260 1.2750
L2.1220 1.2750
" />
<path d="M2.1300 0.3400
L2.1140 0.3290
" />
<path d="M2.1300 0.3750
L2.1260 0.3750
" />
<path d="M2.1300 1.2750
L2.1260 1.2750
" />
<path d="M2.1300 1.3100
L2.1410 1.2940
" />
<path d="M2.1340 0.3750
L2.1300 0.3750
" />
<path d="M2.1340 1.2750
L2.1300 1.2750
" />
<path d="M2.1370 0.3750
L2.1340 0.3750
" />
<path d="M2.1370 1.2750
L2.1340 1.2750
" />
<path d="M2.1400 0.3750
L2.1370 0.3750
" />
<path d="M2.1400 1.2750
L2.1370 1.2750
" />
<path d="M2.1410 0.3560
L2.1300 0.3400
" />
<path d="M2.1410 1.2940
L2.1450 1.2750
" />
<path d="M2.1420 0.3750
L2.1400 0.3750
" />
<path d="M2.1420 1.2750
L2.1400 1.2750
" />
<path d="M2.1440 0.3750
L2.1420 0.3750
" />
<path d="M2.1440 1.2750
L2.1420 1.2750
" />
<path d="M2.1450 0.3750
L2.1410 0.3560
" />
<path d="M2.1450 0.3750
L2.1440 0.3750
" />
</g>
<g style="fill:#000000; fill-opacity:1.0000; stroke:none;">
<circle cx="2.1450" cy="0.3750" r="0.0100" /> 
</g>
<g style="fill:none; 
stroke:#000000; stroke-width:0.0200; stroke-opacity:1; 
stroke-linecap:round; stroke-linejoin:round;">
<path d="M2.1450 0.3750
L2.1450 1.2750
" />
<path d="M2.1450 1.2750
L2.1440 1.2750
" />
</g>
<g style="fill:#000000; fill-opacity:1.0000; stroke:none;">
<circle cx="2.1450" cy="1.2750" r="0.0100" /> 
</g> 
</svg>
