{
  "accessors": [
    {
      "bufferView": 0,
      "byteOffset": 0,
      "componentType": 5126,
      "normalized": false,
      "count": 1600,
      "type": "VEC3",
      "max": [
        4.862204551696777,
        0.19739285111427307,
        -0.6887534856796265
      ],
      "min": [
        -4.862204551696777,
        0.0003285978455096483,
        -1.0039376020431519
      ]
    },
    {
      "bufferView": 0,
      "byteOffset": 12,
      "componentType": 5126,
      "normalized": false,
      "count": 1600,
      "type": "VEC3"
    },
    {
      "bufferView": 0,
      "byteOffset": 24,
      "componentType": 5126,
      "normalized": false,
      "count": 1600,
      "type": "VEC2"
    },
    {
      "bufferView": 1,
      "byteOffset": 0,
      "componentType": 5123,
      "normalized": false,
      "count": 2700,
      "type": "SCALAR"
    },
    {
      "bufferView": 1,
      "byteOffset": 5400,
      "componentType": 5123,
      "normalized": false,
      "count": 996,
      "type": "SCALAR"
    },
    {
      "bufferView": 1,
      "byteOffset": 7392,
      "componentType": 5123,
      "normalized": false,
      "count": 11085,
      "type": "SCALAR"
    },
    {
      "bufferView": 1,
      "byteOffset": 29564,
      "componentType": 5123,
      "normalized": false,
      "count": 12297,
      "type": "SCALAR"
    },
    {
      "bufferView": 1,
      "byteOffset": 54160,
      "componentType": 5123,
      "normalized": false,
      "count": 306,
      "type": "SCALAR"
    },
    {
      "bufferView": 2,
      "byteOffset": 0,
      "componentType": 5126,
      "normalized": false,
      "count": 366,
      "type": "VEC3",
      "max": [
        6.181102275848389,
        0.8077899813652039,
        1.0042898654937744
      ],
      "min": [
        -6.181102275848389,
        0.020013554021716118,
        -0.6889768242835999
      ]
    },
    {
      "bufferView": 2,
      "byteOffset": 12,
      "componentType": 5126,
      "normalized": false,
      "count": 366,
      "type": "VEC3"
    },
    {
      "bufferView": 2,
      "byteOffset": 24,
      "componentType": 5126,
      "normalized": false,
      "count": 366,
      "type": "VEC2"
    },
    {
      "bufferView": 3,
      "byteOffset": 0,
      "componentType": 5126,
      "normalized": false,
      "count": 5629,
      "type": "VEC3",
      "max": [
        5.7874016761779785,
        0.8070691227912903,
        1.0038284063339233
      ],
      "min": [
        -5.7874016761779785,
        0.02001355215907097,
        -0.6889768838882446
      ]
    },
    {
      "bufferView": 3,
      "byteOffset": 12,
      "componentType": 5126,
      "normalized": false,
      "count": 5629,
      "type": "VEC3"
    },
    {
      "bufferView": 3,
      "byteOffset": 24,
      "componentType": 5126,
      "normalized": false,
      "count": 5629,
      "type": "VEC2"
    },
    {
      "bufferView": 4,
      "byteOffset": 0,
      "componentType": 5126,
      "normalized": false,
      "count": 6391,
      "type": "VEC3",
      "max": [
        6.113965034484863,
        0.8273307085037231,
        0.7306604981422424
      ],
      "min": [
        -6.11417293548584,
        0.0003284519771113992,
        -0.6889768242835999
      ]
    },
    {
      "bufferView": 4,
      "byteOffset": 12,
      "componentType": 5126,
      "normalized": false,
      "count": 6391,
      "type": "VEC3"
    },
    {
      "bufferView": 4,
      "byteOffset": 24,
      "componentType": 5126,
      "normalized": false,
      "count": 6391,
      "type": "VEC2"
    },
    {
      "bufferView": 5,
      "byteOffset": 0,
      "componentType": 5126,
      "normalized": false,
      "count": 104,
      "type": "VEC3",
      "max": [
        5.2086615562438965,
        0.8074151277542114,
        0.49218761920928955
      ],
      "min": [
        -5.2086615562438965,
        0.8074151277542114,
        -0.4921264052391052
      ]
    },
    {
      "bufferView": 5,
      "byteOffset": 12,
      "componentType": 5126,
      "normalized": false,
      "count": 104,
      "type": "VEC3"
    },
    {
      "bufferView": 5,
      "byteOffset": 24,
      "componentType": 5126,
      "normalized": false,
      "count": 104,
      "type": "VEC2"
    }
  ],
  "asset": {
    "generator": "pygltflib@v1.16.4",
    "version": "2.0"
  },
  "bufferViews": [
    {
      "buffer": 0,
      "byteOffset": 0,
      "byteLength": 51200,
      "byteStride": 32,
      "target": 34962
    },
    {
      "buffer": 0,
      "byteOffset": 51200,
      "byteLength": 54772,
      "target": 34963
    },
    {
      "buffer": 0,
      "byteOffset": 105972,
      "byteLength": 11712,
      "byteStride": 32,
      "target": 34962
    },
    {
      "buffer": 0,
      "byteOffset": 117684,
      "byteLength": 180128,
      "byteStride": 32,
      "target": 34962
    },
    {
      "buffer": 0,
      "byteOffset": 297812,
      "byteLength": 204512,
      "byteStride": 32,
      "target": 34962
    },
    {
      "buffer": 0,
      "byteOffset": 502324,
      "byteLength": 3328,
      "byteStride": 32,
      "target": 34962
    }
  ],
  "buffers": [
    {
      "uri": "Conn_FFC_WE_68715014x22-wurth-elektronik-68715014522.bin",
      "byteLength": 505652
    }
  ],
  "extensionsUsed": [
    "KHR_materials_clearcoat",
    "KHR_materials_ior",
    "KHR_materials_sheen",
    "KHR_materials_specular",
    "KHR_texture_basisu"
  ],
  "extensionsRequired": [
    "KHR_texture_basisu"
  ],
  "images": [
    {
      "uri": "../shared_textures/metal_pins_normal.ktx2",
      "mimeType": "image/ktx2",
      "name": "metal_pins_normal"
    },
    {
      "uri": "../shared_textures/metal_pins_color.ktx2",
      "mimeType": "image/ktx2",
      "name": "metal_pins_color"
    },
    {
      "uri": "../shared_textures/plastic_matte_black_normal.ktx2",
      "mimeType": "image/ktx2",
      "name": "plastic_matte_black_normal"
    },
    {
      "uri": "../shared_textures/plastic_matte_black_color.ktx2",
      "mimeType": "image/ktx2",
      "name": "plastic_matte_black_color"
    },
    {
      "uri": "../shared_textures/plastic_case_beige_normal.ktx2",
      "mimeType": "image/ktx2",
      "name": "plastic_case_beige_normal"
    },
    {
      "uri": "../shared_textures/plastic_case_beige_color.ktx2",
      "mimeType": "image/ktx2",
      "name": "plastic_case_beige_color"
    },
    {
      "uri": "../shared_textures/metal_connector_normal.ktx2",
      "mimeType": "image/ktx2",
      "name": "metal_connector_normal"
    },
    {
      "uri": "../shared_textures/metal_connector_color.ktx2",
      "mimeType": "image/ktx2",
      "name": "metal_connector_color"
    },
    {
      "uri": "../shared_textures/metal_connector_roughness.ktx2",
      "mimeType": "image/ktx2",
      "name": "metal_connector_roughness"
    },
    {
      "uri": "wurth-elektronik-68715014522-marking_normal.ktx2",
      "mimeType": "image/ktx2",
      "name": "wurth-elektronik-68715014522-marking_normal"
    },
    {
      "uri": "wurth-elektronik-68715014522-marking_color.ktx2",
      "mimeType": "image/ktx2",
      "name": "wurth-elektronik-68715014522-marking_color"
    },
    {
      "uri": "wurth-elektronik-68715014522-marking_metallic_roughness.ktx2",
      "mimeType": "image/ktx2",
      "name": "wurth-elektronik-68715014522-marking_metallic_roughness"
    }
  ],
  "materials": [
    {
      "extensions": {
        "KHR_materials_ior": {
          "ior": 1.4500000476837158
        },
        "KHR_materials_specular": {
          "specularFactor": 0
        }
      },
      "pbrMetallicRoughness": {
        "baseColorFactor": [
          1.0,
          1.0,
          1.0,
          1.0
        ],
        "metallicFactor": 0.7818182110786438,
        "roughnessFactor": 0.28863638639450073,
        "baseColorTexture": {
          "index": 0,
          "texCoord": 0
        }
      },
      "normalTexture": {
        "index": 1,
        "scale": 1.0
      },
      "emissiveFactor": [
        0.0,
        0.0,
        0.0
      ],
      "alphaMode": "OPAQUE",
      "alphaCutoff": 0.5,
      "doubleSided": true,
      "name": "gltf_metal_pins"
    },
    {
      "pbrMetallicRoughness": {
        "baseColorFactor": [
          1.0,
          1.0,
          1.0,
          1.0
        ],
        "metallicFactor": 0.09154544770717621,
        "roughnessFactor": 0.4615432620048523,
        "baseColorTexture": {
          "index": 2,
          "texCoord": 0
        }
      },
      "normalTexture": {
        "index": 3,
        "scale": 1.0
      },
      "emissiveFactor": [
        0.0,
        0.0,
        0.0
      ],
      "alphaMode": "OPAQUE",
      "alphaCutoff": 0.5,
      "doubleSided": true,
      "name": "gltf_plastic_matte_black"
    },
    {
      "pbrMetallicRoughness": {
        "baseColorFactor": [
          1.0,
          1.0,
          1.0,
          1.0
        ],
        "metallicFactor": 0.027000008150935173,
        "roughnessFactor": 0.4606340527534485,
        "baseColorTexture": {
          "index": 4,
          "texCoord": 0
        }
      },
      "normalTexture": {
        "index": 5,
        "scale": 1.0
      },
      "emissiveFactor": [
        0.0,
        0.0,
        0.0
      ],
      "alphaMode": "OPAQUE",
      "alphaCutoff": 0.5,
      "doubleSided": true,
      "name": "gltf_plastic_case_beige"
    },
    {
      "extensions": {
        "KHR_materials_clearcoat": {
          "clearcoatFactor": 0,
          "clearcoatRoughnessFactor": 0.46590909361839294
        },
        "KHR_materials_ior": {
          "ior": 1
        },
        "KHR_materials_sheen": {
          "sheenColorFactor": [
            1,
            1,
            1
          ],
          "sheenRoughnessFactor": 0.5
        },
        "KHR_materials_specular": {
          "specularFactor": 0.9590908885002136
        }
      },
      "pbrMetallicRoughness": {
        "baseColorFactor": [
          1.0,
          1.0,
          1.0,
          1.0
        ],
        "metallicFactor": 1.0,
        "roughnessFactor": 1.0,
        "baseColorTexture": {
          "index": 6,
          "texCoord": 0
        },
        "metallicRoughnessTexture": {
          "index": 8,
          "texCoord": 0
        }
      },
      "normalTexture": {
        "index": 7,
        "scale": 0.5
      },
      "emissiveFactor": [
        0.0,
        0.0,
        0.0
      ],
      "alphaMode": "OPAQUE",
      "alphaCutoff": 0.5,
      "doubleSided": true,
      "name": "gltf_metal_connector"
    },
    {
      "pbrMetallicRoughness": {
        "baseColorFactor": [
          1.0,
          1.0,
          1.0,
          1.0
        ],
        "metallicFactor": 1.0,
        "roughnessFactor": 1.0,
        "baseColorTexture": {
          "index": 9,
          "texCoord": 0
        },
        "metallicRoughnessTexture": {
          "index": 11,
          "texCoord": 0
        }
      },
      "normalTexture": {
        "index": 10,
        "scale": 1.0
      },
      "emissiveFactor": [
        0.0,
        0.0,
        0.0
      ],
      "alphaMode": "OPAQUE",
      "alphaCutoff": 0.5,
      "doubleSided": true,
      "name": "gltf_wurth-elektronik-68715014522-marking"
    }
  ],
  "meshes": [
    {
      "primitives": [
        {
          "attributes": {
            "POSITION": 0,
            "NORMAL": 1,
            "TEXCOORD_0": 2
          },
          "indices": 3,
          "mode": 4,
          "material": 0
        },
        {
          "attributes": {
            "POSITION": 8,
            "NORMAL": 9,
            "TEXCOORD_0": 10
          },
          "indices": 4,
          "mode": 4,
          "material": 1
        },
        {
          "attributes": {
            "POSITION": 11,
            "NORMAL": 12,
            "TEXCOORD_0": 13
          },
          "indices": 5,
          "mode": 4,
          "material": 2
        },
        {
          "attributes": {
            "POSITION": 14,
            "NORMAL": 15,
            "TEXCOORD_0": 16
          },
          "indices": 6,
          "mode": 4,
          "material": 3
        },
        {
          "attributes": {
            "POSITION": 17,
            "NORMAL": 18,
            "TEXCOORD_0": 19
          },
          "indices": 7,
          "mode": 4,
          "material": 4
        }
      ],
      "name": "SHAPE_9_IndexedFaceSet.002"
    }
  ],
  "nodes": [
    {
      "extras": {
        "REF": "J",
        "model_diagonal": 31.880715265745973
      },
      "mesh": 0,
      "scale": [
        2.5399999618530273,
        2.5399999618530273,
        2.5399999618530273
      ],
      "name": "Conn_FFC_WE_68715014x22-wurth-elektronik-68715014522"
    }
  ],
  "samplers": [
    {
      "magFilter": 9729,
      "minFilter": 9987,
      "wrapS": 10497,
      "wrapT": 10497
    }
  ],
  "scene": 0,
  "scenes": [
    {
      "extras": {
        "matlib": {
          "lib_index": 0,
          "filter": 0,
          "cat_index": -1,
          "all_materials": [
            {
              "name": "Metal"
            },
            {
              "name": "bga_balls"
            },
            {
              "name": "chip_enclosure"
            },
            {
              "name": "chip_enclosure_detailed"
            },
            {
              "name": "composite"
            },
            {
              "name": "enclosure_alu"
            },
            {
              "name": "enclosure_alu_polished"
            },
            {
              "name": "enclosure_gold"
            },
            {
              "name": "metal_pins_simple"
            },
            {
              "name": "pin1_marking_dark"
            },
            {
              "name": "pin_tht_gold"
            },
            {
              "name": "pin_tht_silver"
            },
            {
              "name": "plastic yellow"
            },
            {
              "name": "plastic_black"
            },
            {
              "name": "plastic_black_detailed"
            },
            {
              "name": "plastic_green_lightning"
            },
            {
              "name": "plastic_white"
            },
            {
              "name": "plastic_yellow_lightning"
            },
            {
              "name": "smd_cap_case"
            },
            {
              "name": "smd_cap_pins"
            },
            {
              "name": "smd_res_case"
            }
          ],
          "materials": [
            {
              "name": "Metal"
            },
            {
              "name": "bga_balls"
            },
            {
              "name": "chip_enclosure"
            },
            {
              "name": "chip_enclosure_detailed"
            },
            {
              "name": "composite"
            },
            {
              "name": "enclosure_alu"
            },
            {
              "name": "enclosure_alu_polished"
            },
            {
              "name": "enclosure_gold"
            },
            {
              "name": "metal_pins_simple"
            },
            {
              "name": "pin1_marking_dark"
            },
            {
              "name": "pin_tht_gold"
            },
            {
              "name": "pin_tht_silver"
            },
            {
              "name": "plastic yellow"
            },
            {
              "name": "plastic_black"
            },
            {
              "name": "plastic_black_detailed"
            },
            {
              "name": "plastic_green_lightning"
            },
            {
              "name": "plastic_white"
            },
            {
              "name": "plastic_yellow_lightning"
            },
            {
              "name": "smd_cap_case"
            },
            {
              "name": "smd_cap_pins"
            },
            {
              "name": "smd_res_case"
            }
          ],
          "mat_index": 5,
          "show_prefs": 1,
          "last_selected": "SHAPE_9_IndexedFaceSet"
        },
        "sketcher": {
          "version": [
            0,
            24,
            0
          ]
        }
      },
      "name": "Scene",
      "nodes": [
        0
      ]
    }
  ],
  "textures": [
    {
      "extensions": {
        "KHR_texture_basisu": {
          "source": 1
        }
      },
      "sampler": 0
    },
    {
      "extensions": {
        "KHR_texture_basisu": {
          "source": 0
        }
      },
      "sampler": 0
    },
    {
      "extensions": {
        "KHR_texture_basisu": {
          "source": 3
        }
      },
      "sampler": 0
    },
    {
      "extensions": {
        "KHR_texture_basisu": {
          "source": 2
        }
      },
      "sampler": 0
    },
    {
      "extensions": {
        "KHR_texture_basisu": {
          "source": 5
        }
      },
      "sampler": 0
    },
    {
      "extensions": {
        "KHR_texture_basisu": {
          "source": 4
        }
      },
      "sampler": 0
    },
    {
      "extensions": {
        "KHR_texture_basisu": {
          "source": 7
        }
      },
      "sampler": 0
    },
    {
      "extensions": {
        "KHR_texture_basisu": {
          "source": 6
        }
      },
      "sampler": 0
    },
    {
      "extensions": {
        "KHR_texture_basisu": {
          "source": 8
        }
      },
      "sampler": 0
    },
    {
      "extensions": {
        "KHR_texture_basisu": {
          "source": 10
        }
      },
      "sampler": 0
    },
    {
      "extensions": {
        "KHR_texture_basisu": {
          "source": 9
        }
      },
      "sampler": 0
    },
    {
      "extensions": {
        "KHR_texture_basisu": {
          "source": 11
        }
      },
      "sampler": 0
    }
  ]
}