{
  "accessors": [
    {
      "bufferView": 0,
      "byteOffset": 0,
      "componentType": 5126,
      "normalized": false,
      "count": 2216,
      "type": "VEC3",
      "max": [
        13.784205436706543,
        2.0516622066497803,
        2.537429094314575
      ],
      "min": [
        -14.449999809265137,
        0.0008346385438926518,
        -2.550001382827759
      ]
    },
    {
      "bufferView": 0,
      "byteOffset": 12,
      "componentType": 5126,
      "normalized": false,
      "count": 2216,
      "type": "VEC3"
    },
    {
      "bufferView": 0,
      "byteOffset": 24,
      "componentType": 5126,
      "normalized": false,
      "count": 2216,
      "type": "VEC2"
    },
    {
      "bufferView": 1,
      "byteOffset": 0,
      "componentType": 5123,
      "normalized": false,
      "count": 3624,
      "type": "SCALAR"
    },
    {
      "bufferView": 1,
      "byteOffset": 7248,
      "componentType": 5123,
      "normalized": false,
      "count": 978,
      "type": "SCALAR"
    },
    {
      "bufferView": 1,
      "byteOffset": 9204,
      "componentType": 5123,
      "normalized": false,
      "count": 5787,
      "type": "SCALAR"
    },
    {
      "bufferView": 1,
      "byteOffset": 20780,
      "componentType": 5123,
      "normalized": false,
      "count": 7347,
      "type": "SCALAR"
    },
    {
      "bufferView": 1,
      "byteOffset": 35476,
      "componentType": 5123,
      "normalized": false,
      "count": 618,
      "type": "SCALAR"
    },
    {
      "bufferView": 2,
      "byteOffset": 0,
      "componentType": 5126,
      "normalized": false,
      "count": 408,
      "type": "VEC3",
      "max": [
        15.699999809265137,
        2.0517866611480713,
        2.550896167755127
      ],
      "min": [
        -15.699999809265137,
        0.050834424793720245,
        -1.750001072883606
      ]
    },
    {
      "bufferView": 2,
      "byteOffset": 12,
      "componentType": 5126,
      "normalized": false,
      "count": 408,
      "type": "VEC3"
    },
    {
      "bufferView": 2,
      "byteOffset": 24,
      "componentType": 5126,
      "normalized": false,
      "count": 408,
      "type": "VEC2"
    },
    {
      "bufferView": 3,
      "byteOffset": 0,
      "componentType": 5126,
      "normalized": false,
      "count": 2819,
      "type": "VEC3",
      "max": [
        14.699999809265137,
        2.0499556064605713,
        2.5497241020202637
      ],
      "min": [
        -14.699999809265137,
        0.05083442106842995,
        -1.750001311302185
      ]
    },
    {
      "bufferView": 3,
      "byteOffset": 12,
      "componentType": 5126,
      "normalized": false,
      "count": 2819,
      "type": "VEC3"
    },
    {
      "bufferView": 3,
      "byteOffset": 24,
      "componentType": 5126,
      "normalized": false,
      "count": 2819,
      "type": "VEC2"
    },
    {
      "bufferView": 4,
      "byteOffset": 0,
      "componentType": 5126,
      "normalized": false,
      "count": 3501,
      "type": "VEC3",
      "max": [
        15.529472351074219,
        2.1014199256896973,
        1.8558777570724487
      ],
      "min": [
        -15.529998779296875,
        0.0008342679939232767,
        -1.750001072883606
      ]
    },
    {
      "bufferView": 4,
      "byteOffset": 12,
      "componentType": 5126,
      "normalized": false,
      "count": 3501,
      "type": "VEC3"
    },
    {
      "bufferView": 4,
      "byteOffset": 24,
      "componentType": 5126,
      "normalized": false,
      "count": 3501,
      "type": "VEC2"
    },
    {
      "bufferView": 5,
      "byteOffset": 0,
      "componentType": 5126,
      "normalized": false,
      "count": 208,
      "type": "VEC3",
      "max": [
        13.230000495910645,
        2.0508344173431396,
        1.2492190599441528
      ],
      "min": [
        -13.230000495910645,
        2.0508344173431396,
        -1.750001072883606
      ]
    },
    {
      "bufferView": 5,
      "byteOffset": 12,
      "componentType": 5126,
      "normalized": false,
      "count": 208,
      "type": "VEC3"
    },
    {
      "bufferView": 5,
      "byteOffset": 24,
      "componentType": 5126,
      "normalized": false,
      "count": 208,
      "type": "VEC2"
    }
  ],
  "asset": {
    "generator": "pygltflib@v1.16.5",
    "version": "2.0"
  },
  "bufferViews": [
    {
      "buffer": 0,
      "byteOffset": 0,
      "byteLength": 70912,
      "byteStride": 32,
      "target": 34962
    },
    {
      "buffer": 0,
      "byteOffset": 70912,
      "byteLength": 36712,
      "target": 34963
    },
    {
      "buffer": 0,
      "byteOffset": 107624,
      "byteLength": 13056,
      "byteStride": 32,
      "target": 34962
    },
    {
      "buffer": 0,
      "byteOffset": 120680,
      "byteLength": 90208,
      "byteStride": 32,
      "target": 34962
    },
    {
      "buffer": 0,
      "byteOffset": 210888,
      "byteLength": 112032,
      "byteStride": 32,
      "target": 34962
    },
    {
      "buffer": 0,
      "byteOffset": 322920,
      "byteLength": 6656,
      "byteStride": 32,
      "target": 34962
    }
  ],
  "buffers": [
    {
      "uri": "Conn_FFC_WE_68715014x22-wurth-elektronik-68715014522.bin",
      "byteLength": 329576
    }
  ],
  "extensionsUsed": [
    "KHR_materials_clearcoat",
    "KHR_materials_ior",
    "KHR_materials_sheen",
    "KHR_materials_specular",
    "KHR_texture_basisu"
  ],
  "extensionsRequired": [
    "KHR_texture_basisu"
  ],
  "images": [
    {
      "uri": "../shared_textures/metal_pins_normal.ktx2",
      "mimeType": "image/ktx2",
      "name": "metal_pins_normal"
    },
    {
      "uri": "../shared_textures/metal_pins_color.ktx2",
      "mimeType": "image/ktx2",
      "name": "metal_pins_color"
    },
    {
      "uri": "../shared_textures/plastic_matte_black_normal.ktx2",
      "mimeType": "image/ktx2",
      "name": "plastic_matte_black_normal"
    },
    {
      "uri": "../shared_textures/plastic_matte_black_color.ktx2",
      "mimeType": "image/ktx2",
      "name": "plastic_matte_black_color"
    },
    {
      "uri": "../shared_textures/plastic_case_beige_normal.ktx2",
      "mimeType": "image/ktx2",
      "name": "plastic_case_beige_normal"
    },
    {
      "uri": "../shared_textures/plastic_case_beige_color.ktx2",
      "mimeType": "image/ktx2",
      "name": "plastic_case_beige_color"
    },
    {
      "uri": "../shared_textures/metal_connector_normal.ktx2",
      "mimeType": "image/ktx2",
      "name": "metal_connector_normal"
    },
    {
      "uri": "../shared_textures/metal_connector_color.ktx2",
      "mimeType": "image/ktx2",
      "name": "metal_connector_color"
    },
    {
      "uri": "../shared_textures/metal_connector_roughness.ktx2",
      "mimeType": "image/ktx2",
      "name": "metal_connector_roughness"
    },
    {
      "uri": "wurth-elektronik-68715014522-marking_normal.ktx2",
      "mimeType": "image/ktx2",
      "name": "wurth-elektronik-68715014522-marking_normal"
    },
    {
      "uri": "wurth-elektronik-68715014522-marking_color.ktx2",
      "mimeType": "image/ktx2",
      "name": "wurth-elektronik-68715014522-marking_color"
    },
    {
      "uri": "wurth-elektronik-68715014522-marking_metallic_roughness.ktx2",
      "mimeType": "image/ktx2",
      "name": "wurth-elektronik-68715014522-marking_metallic_roughness"
    }
  ],
  "materials": [
    {
      "extensions": {
        "KHR_materials_ior": {
          "ior": 1.4500000476837158
        },
        "KHR_materials_specular": {
          "specularFactor": 0
        }
      },
      "pbrMetallicRoughness": {
        "baseColorFactor": [
          1.0,
          1.0,
          1.0,
          1.0
        ],
        "metallicFactor": 0.7818182110786438,
        "roughnessFactor": 0.28863638639450073,
        "baseColorTexture": {
          "index": 0,
          "texCoord": 0
        }
      },
      "normalTexture": {
        "index": 1,
        "scale": 1.0
      },
      "emissiveFactor": [
        0.0,
        0.0,
        0.0
      ],
      "alphaMode": "OPAQUE",
      "doubleSided": true,
      "name": "gltf_metal_pins"
    },
    {
      "pbrMetallicRoughness": {
        "baseColorFactor": [
          1.0,
          1.0,
          1.0,
          1.0
        ],
        "metallicFactor": 0.09154544770717621,
        "roughnessFactor": 0.4615432620048523,
        "baseColorTexture": {
          "index": 2,
          "texCoord": 0
        }
      },
      "normalTexture": {
        "index": 3,
        "scale": 1.0
      },
      "emissiveFactor": [
        0.0,
        0.0,
        0.0
      ],
      "alphaMode": "OPAQUE",
      "doubleSided": true,
      "name": "gltf_plastic_matte_black"
    },
    {
      "extensions": {
        "KHR_materials_ior": {
          "ior": 1.399999976158142
        },
        "KHR_materials_specular": {
          "specularFactor": 0.6000000238418579
        }
      },
      "pbrMetallicRoughness": {
        "baseColorFactor": [
          1.0,
          1.0,
          1.0,
          1.0
        ],
        "metallicFactor": 0.019999999552965164,
        "roughnessFactor": 0.4636361598968506,
        "baseColorTexture": {
          "index": 4,
          "texCoord": 0
        }
      },
      "normalTexture": {
        "index": 5,
        "scale": 1.0
      },
      "emissiveFactor": [
        0.0,
        0.0,
        0.0
      ],
      "alphaMode": "OPAQUE",
      "doubleSided": true,
      "name": "gltf_plastic_case_beige"
    },
    {
      "extensions": {
        "KHR_materials_clearcoat": {
          "clearcoatFactor": 0,
          "clearcoatRoughnessFactor": 0.46590909361839294
        },
        "KHR_materials_ior": {
          "ior": 1
        },
        "KHR_materials_sheen": {
          "sheenColorFactor": [
            1,
            1,
            1
          ],
          "sheenRoughnessFactor": 0.5
        },
        "KHR_materials_specular": {
          "specularFactor": 0.9590908885002136
        }
      },
      "pbrMetallicRoughness": {
        "baseColorFactor": [
          1.0,
          1.0,
          1.0,
          1.0
        ],
        "metallicFactor": 1.0,
        "roughnessFactor": 1.0,
        "baseColorTexture": {
          "index": 6,
          "texCoord": 0
        },
        "metallicRoughnessTexture": {
          "index": 8,
          "texCoord": 0
        }
      },
      "normalTexture": {
        "index": 7,
        "scale": 0.5
      },
      "emissiveFactor": [
        0.0,
        0.0,
        0.0
      ],
      "alphaMode": "OPAQUE",
      "doubleSided": true,
      "name": "gltf_metal_connector"
    },
    {
      "pbrMetallicRoughness": {
        "baseColorFactor": [
          1.0,
          1.0,
          1.0,
          1.0
        ],
        "metallicFactor": 1.0,
        "roughnessFactor": 1.0,
        "baseColorTexture": {
          "index": 9,
          "texCoord": 0
        },
        "metallicRoughnessTexture": {
          "index": 11,
          "texCoord": 0
        }
      },
      "normalTexture": {
        "index": 10,
        "scale": 1.0
      },
      "emissiveFactor": [
        0.0,
        0.0,
        0.0
      ],
      "alphaMode": "OPAQUE",
      "doubleSided": true,
      "name": "gltf_wurth-elektronik-68715014522-marking"
    }
  ],
  "meshes": [
    {
      "primitives": [
        {
          "attributes": {
            "POSITION": 0,
            "NORMAL": 1,
            "TEXCOORD_0": 2
          },
          "indices": 3,
          "mode": 4,
          "material": 0
        },
        {
          "attributes": {
            "POSITION": 8,
            "NORMAL": 9,
            "TEXCOORD_0": 10
          },
          "indices": 4,
          "mode": 4,
          "material": 1
        },
        {
          "attributes": {
            "POSITION": 11,
            "NORMAL": 12,
            "TEXCOORD_0": 13
          },
          "indices": 5,
          "mode": 4,
          "material": 2
        },
        {
          "attributes": {
            "POSITION": 14,
            "NORMAL": 15,
            "TEXCOORD_0": 16
          },
          "indices": 6,
          "mode": 4,
          "material": 3
        },
        {
          "attributes": {
            "POSITION": 17,
            "NORMAL": 18,
            "TEXCOORD_0": 19
          },
          "indices": 7,
          "mode": 4,
          "material": 4
        }
      ],
      "name": "SHAPE_9_IndexedFaceSet.002"
    }
  ],
  "nodes": [
    {
      "extras": {
        "REF": "J",
        "model_diagonal": 31.880715418306604
      },
      "mesh": 0,
      "name": "Conn_FFC_WE_68715014x22-wurth-elektronik-68715014522"
    }
  ],
  "samplers": [
    {
      "magFilter": 9729,
      "minFilter": 9987,
      "wrapS": 10497,
      "wrapT": 10497
    }
  ],
  "scene": 0,
  "scenes": [
    {
      "extras": {
        "matlib": {
          "lib_index": 0,
          "filter": 0,
          "cat_index": -1,
          "all_materials": [
            {
              "name": "Metal"
            },
            {
              "name": "bga_balls"
            },
            {
              "name": "chip_enclosure"
            },
            {
              "name": "chip_enclosure_detailed"
            },
            {
              "name": "composite"
            },
            {
              "name": "enclosure_alu"
            },
            {
              "name": "enclosure_alu_polished"
            },
            {
              "name": "enclosure_gold"
            },
            {
              "name": "metal_pins_simple"
            },
            {
              "name": "pin1_marking_dark"
            },
            {
              "name": "pin_tht_gold"
            },
            {
              "name": "pin_tht_silver"
            },
            {
              "name": "plastic yellow"
            },
            {
              "name": "plastic_black"
            },
            {
              "name": "plastic_black_detailed"
            },
            {
              "name": "plastic_green_lightning"
            },
            {
              "name": "plastic_white"
            },
            {
              "name": "plastic_yellow_lightning"
            },
            {
              "name": "smd_cap_case"
            },
            {
              "name": "smd_cap_pins"
            },
            {
              "name": "smd_res_case"
            }
          ],
          "materials": [
            {
              "name": "Metal"
            },
            {
              "name": "bga_balls"
            },
            {
              "name": "chip_enclosure"
            },
            {
              "name": "chip_enclosure_detailed"
            },
            {
              "name": "composite"
            },
            {
              "name": "enclosure_alu"
            },
            {
              "name": "enclosure_alu_polished"
            },
            {
              "name": "enclosure_gold"
            },
            {
              "name": "metal_pins_simple"
            },
            {
              "name": "pin1_marking_dark"
            },
            {
              "name": "pin_tht_gold"
            },
            {
              "name": "pin_tht_silver"
            },
            {
              "name": "plastic yellow"
            },
            {
              "name": "plastic_black"
            },
            {
              "name": "plastic_black_detailed"
            },
            {
              "name": "plastic_green_lightning"
            },
            {
              "name": "plastic_white"
            },
            {
              "name": "plastic_yellow_lightning"
            },
            {
              "name": "smd_cap_case"
            },
            {
              "name": "smd_cap_pins"
            },
            {
              "name": "smd_res_case"
            }
          ],
          "mat_index": 5,
          "show_prefs": 1,
          "last_selected": "SHAPE_9_IndexedFaceSet"
        },
        "sketcher": {
          "version": [
            0,
            24,
            0
          ]
        }
      },
      "name": "Scene",
      "nodes": [
        0
      ]
    }
  ],
  "textures": [
    {
      "extensions": {
        "KHR_texture_basisu": {
          "source": 1
        }
      },
      "sampler": 0
    },
    {
      "extensions": {
        "KHR_texture_basisu": {
          "source": 0
        }
      },
      "sampler": 0
    },
    {
      "extensions": {
        "KHR_texture_basisu": {
          "source": 3
        }
      },
      "sampler": 0
    },
    {
      "extensions": {
        "KHR_texture_basisu": {
          "source": 2
        }
      },
      "sampler": 0
    },
    {
      "extensions": {
        "KHR_texture_basisu": {
          "source": 5
        }
      },
      "sampler": 0
    },
    {
      "extensions": {
        "KHR_texture_basisu": {
          "source": 4
        }
      },
      "sampler": 0
    },
    {
      "extensions": {
        "KHR_texture_basisu": {
          "source": 7
        }
      },
      "sampler": 0
    },
    {
      "extensions": {
        "KHR_texture_basisu": {
          "source": 6
        }
      },
      "sampler": 0
    },
    {
      "extensions": {
        "KHR_texture_basisu": {
          "source": 8
        }
      },
      "sampler": 0
    },
    {
      "extensions": {
        "KHR_texture_basisu": {
          "source": 10
        }
      },
      "sampler": 0
    },
    {
      "extensions": {
        "KHR_texture_basisu": {
          "source": 9
        }
      },
      "sampler": 0
    },
    {
      "extensions": {
        "KHR_texture_basisu": {
          "source": 11
        }
      },
      "sampler": 0
    }
  ]
}