<?xml version="1.0" standalone="no"?>
 <!DOCTYPE svg PUBLIC "-//W3C//DTD SVG 1.1//EN" 
 "http://www.w3.org/Graphics/SVG/1.1/DTD/svg11.dtd"> 
<svg
  xmlns:svg="http://www.w3.org/2000/svg"
  xmlns="http://www.w3.org/2000/svg"
  xmlns:xlink="http://www.w3.org/1999/xlink"
  version="1.1"
  width="2.0320mm" height="2.2352mm" viewBox="0.0000 0.0000 2.0320 2.2352">
<title>SVG Image created as outline.svg date 2025/04/04 10:06:32 </title>
  <desc>Image generated by PCBNEW </desc>
<g style="fill:#000000; fill-opacity:1.0000;stroke:#000000; stroke-opacity:1.0000;
stroke-linecap:round; stroke-linejoin:round;"
 transform="translate(0 0) scale(1 1)">
</g>
<g style="fill:none; 
stroke:#000000; stroke-width:0.0200; stroke-opacity:1; 
stroke-linecap:round; stroke-linejoin:round;">
<path d="M0.3260 0.4690
L0.3260 1.7790
" />
<path d="M0.3260 1.7790
L1.7220 1.7790
" />
<path d="M0.4550 0.7180
L0.4560 0.7110
" />
<path d="M0.4550 0.7250
L0.4550 0.7180
" />
<path d="M0.4550 0.7310
L0.4550 0.7250
" />
<path d="M0.4560 0.7110
L0.4570 0.7030
" />
<path d="M0.4560 0.7380
L0.4550 0.7310
" />
<path d="M0.4570 0.7030
L0.4580 0.6970
" />
<path d="M0.4570 0.7450
L0.4560 0.7380
" />
<path d="M0.4580 0.6970
L0.4590 0.6900
" />
<path d="M0.4580 0.7510
L0.4570 0.7450
" />
<path d="M0.4590 0.6900
L0.4610 0.6830
" />
<path d="M0.4590 0.7580
L0.4580 0.7510
" />
<path d="M0.4610 0.6830
L0.4630 0.6780
" />
<path d="M0.4610 0.7650
L0.4590 0.7580
" />
<path d="M0.4630 0.6780
L0.4660 0.6720
" />
<path d="M0.4630 0.7700
L0.4610 0.7650
" />
<path d="M0.4660 0.6720
L0.4690 0.6650
" />
<path d="M0.4660 0.7770
L0.4630 0.7700
" />
<path d="M0.4690 0.6650
L0.4720 0.6590
" />
<path d="M0.4690 0.7830
L0.4660 0.7770
" />
<path d="M0.4720 0.6590
L0.4760 0.6540
" />
<path d="M0.4720 0.7890
L0.4690 0.7830
" />
<path d="M0.4760 0.6540
L0.4790 0.6490
" />
<path d="M0.4760 0.7940
L0.4720 0.7890
" />
<path d="M0.4790 0.6490
L0.4830 0.6430
" />
<path d="M0.4790 0.7990
L0.4760 0.7940
" />
<path d="M0.4830 0.6430
L0.4860 0.6380
" />
<path d="M0.4830 0.8050
L0.4790 0.7990
" />
<path d="M0.4860 0.6380
L0.4900 0.6340
" />
<path d="M0.4860 0.8100
L0.4830 0.8050
" />
<path d="M0.4900 0.6340
L0.4950 0.6290
" />
<path d="M0.4900 0.8140
L0.4860 0.8100
" />
<path d="M0.4950 0.6290
L0.4990 0.6240
" />
<path d="M0.4950 0.8190
L0.4900 0.8140
" />
<path d="M0.4990 0.6240
L0.5050 0.6200
" />
<path d="M0.4990 0.8240
L0.4950 0.8190
" />
<path d="M0.5050 0.6200
L0.5100 0.6160
" />
<path d="M0.5050 0.8290
L0.4990 0.8240
" />
<path d="M0.5100 0.6160
L0.5160 0.6130
" />
<path d="M0.5100 0.8320
L0.5050 0.8290
" />
<path d="M0.5160 0.6130
L0.5210 0.6080
" />
<path d="M0.5160 0.8350
L0.5100 0.8320
" />
<path d="M0.5210 0.6080
L0.5270 0.6050
" />
<path d="M0.5210 0.8400
L0.5160 0.8350
" />
<path d="M0.5270 0.6050
L0.5320 0.6030
" />
<path d="M0.5270 0.8430
L0.5210 0.8400
" />
<path d="M0.5320 0.6030
L0.5370 0.6000
" />
<path d="M0.5320 0.8450
L0.5270 0.8430
" />
<path d="M0.5370 0.6000
L0.5440 0.5980
" />
<path d="M0.5370 0.8480
L0.5320 0.8450
" />
<path d="M0.5440 0.5980
L0.5500 0.5950
" />
<path d="M0.5440 0.8500
L0.5370 0.8480
" />
<path d="M0.5500 0.5950
L0.5560 0.5930
" />
<path d="M0.5500 0.8530
L0.5440 0.8500
" />
<path d="M0.5560 0.5930
L0.5630 0.5910
" />
<path d="M0.5560 0.8550
L0.5500 0.8530
" />
<path d="M0.5630 0.5910
L0.5700 0.5900
" />
<path d="M0.5630 0.8570
L0.5560 0.8550
" />
<path d="M0.5700 0.5900
L0.5770 0.5890
" />
<path d="M0.5700 0.8580
L0.5630 0.8570
" />
<path d="M0.5770 0.5890
L0.5840 0.5890
" />
<path d="M0.5770 0.8590
L0.5700 0.8580
" />
<path d="M0.5840 0.5890
L0.5910 0.5890
" />
<path d="M0.5840 0.8590
L0.5770 0.8590
" />
</g>
<g style="fill:#000000; fill-opacity:1.0000; stroke:none;">
<circle cx="0.5910" cy="0.5890" r="0.0100" /> 
</g>
<g style="fill:none; 
stroke:#000000; stroke-width:0.0200; stroke-opacity:1; 
stroke-linecap:round; stroke-linejoin:round;">
<path d="M0.5910 0.5890
L0.5970 0.5890
" />
<path d="M0.5910 0.8590
L0.5840 0.8590
" />
</g>
<g style="fill:#000000; fill-opacity:1.0000; stroke:none;">
<circle cx="0.5910" cy="0.8590" r="0.0100" /> 
</g>
<g style="fill:none; 
stroke:#000000; stroke-width:0.0200; stroke-opacity:1; 
stroke-linecap:round; stroke-linejoin:round;">
<path d="M0.5970 0.5890
L0.6040 0.5890
" />
<path d="M0.5970 0.8590
L0.5910 0.8590
" />
<path d="M0.6040 0.5890
L0.6110 0.5900
" />
<path d="M0.6040 0.8590
L0.5970 0.8590
" />
<path d="M0.6110 0.5900
L0.6170 0.5910
" />
<path d="M0.6110 0.8580
L0.6040 0.8590
" />
<path d="M0.6170 0.5910
L0.6240 0.5930
" />
<path d="M0.6170 0.8570
L0.6110 0.8580
" />
<path d="M0.6240 0.5930
L0.6310 0.5950
" />
<path d="M0.6240 0.8550
L0.6170 0.8570
" />
<path d="M0.6310 0.5950
L0.6370 0.5980
" />
<path d="M0.6310 0.8530
L0.6240 0.8550
" />
<path d="M0.6370 0.5980
L0.6440 0.6000
" />
<path d="M0.6370 0.8500
L0.6310 0.8530
" />
<path d="M0.6440 0.6000
L0.6500 0.6030
" />
<path d="M0.6440 0.8480
L0.6370 0.8500
" />
<path d="M0.6500 0.6030
L0.6550 0.6050
" />
<path d="M0.6500 0.8450
L0.6440 0.8480
" />
<path d="M0.6550 0.6050
L0.6610 0.6080
" />
<path d="M0.6550 0.8430
L0.6500 0.8450
" />
<path d="M0.6610 0.6080
L0.6650 0.6130
" />
<path d="M0.6610 0.8400
L0.6550 0.8430
" />
<path d="M0.6650 0.6130
L0.6710 0.6160
" />
<path d="M0.6650 0.8350
L0.6610 0.8400
" />
<path d="M0.6710 0.6160
L0.6760 0.6200
" />
<path d="M0.6710 0.8320
L0.6650 0.8350
" />
<path d="M0.6760 0.6200
L0.6810 0.6240
" />
<path d="M0.6760 0.8290
L0.6710 0.8320
" />
<path d="M0.6810 0.6240
L0.6850 0.6290
" />
<path d="M0.6810 0.8240
L0.6760 0.8290
" />
<path d="M0.6850 0.6290
L0.6900 0.6340
" />
<path d="M0.6850 0.8190
L0.6810 0.8240
" />
<path d="M0.6900 0.6340
L0.6950 0.6380
" />
<path d="M0.6900 0.8140
L0.6850 0.8190
" />
<path d="M0.6950 0.6380
L0.6990 0.6430
" />
<path d="M0.6950 0.8100
L0.6900 0.8140
" />
<path d="M0.6990 0.6430
L0.7030 0.6490
" />
<path d="M0.6990 0.8050
L0.6950 0.8100
" />
<path d="M0.7030 0.6490
L0.7060 0.6540
" />
<path d="M0.7030 0.7990
L0.6990 0.8050
" />
<path d="M0.7060 0.6540
L0.7100 0.6590
" />
<path d="M0.7060 0.7940
L0.7030 0.7990
" />
<path d="M0.7100 0.6590
L0.7130 0.6650
" />
<path d="M0.7100 0.7890
L0.7060 0.7940
" />
<path d="M0.7130 0.6650
L0.7150 0.6720
" />
<path d="M0.7130 0.7830
L0.7100 0.7890
" />
<path d="M0.7150 0.6720
L0.7180 0.6780
" />
<path d="M0.7150 0.7770
L0.7130 0.7830
" />
<path d="M0.7180 0.6780
L0.7200 0.6830
" />
<path d="M0.7180 0.7700
L0.7150 0.7770
" />
<path d="M0.7200 0.6830
L0.7220 0.6900
" />
<path d="M0.7200 0.7650
L0.7180 0.7700
" />
<path d="M0.7220 0.6900
L0.7230 0.6970
" />
<path d="M0.7220 0.7580
L0.7200 0.7650
" />
<path d="M0.7230 0.6970
L0.7240 0.7030
" />
<path d="M0.7230 0.7510
L0.7220 0.7580
" />
<path d="M0.7240 0.7030
L0.7240 0.7110
" />
<path d="M0.7240 0.7110
L0.7250 0.7180
" />
<path d="M0.7240 0.7380
L0.7240 0.7450
" />
<path d="M0.7240 0.7450
L0.7230 0.7510
" />
<path d="M0.7250 0.7180
L0.7250 0.7240
" />
<path d="M0.7250 0.7250
L0.7250 0.7310
" />
<path d="M0.7250 0.7310
L0.7240 0.7380
" />
<path d="M1.7220 0.4690
L0.3260 0.4690
" />
<path d="M1.7220 1.7790
L1.7220 0.4690
" />
</g> 
</svg>
