<?xml version="1.0" standalone="no"?>
 <!DOCTYPE svg PUBLIC "-//W3C//DTD SVG 1.1//EN" 
 "http://www.w3.org/Graphics/SVG/1.1/DTD/svg11.dtd"> 
<svg
  xmlns:svg="http://www.w3.org/2000/svg"
  xmlns="http://www.w3.org/2000/svg"
  xmlns:xlink="http://www.w3.org/1999/xlink"
  version="1.1"
  width="23.7490mm" height="8.3820mm" viewBox="0.0000 0.0000 23.7490 8.3820">
<title>SVG Image created as outline.svg date 2025/06/16 09:18:18 </title>
  <desc>Image generated by PCBNEW </desc>
<g style="fill:#000000; fill-opacity:1.0000;stroke:#000000; stroke-opacity:1.0000;
stroke-linecap:round; stroke-linejoin:round;"
 transform="translate(0 0) scale(1 1)">
</g>
<g style="fill:none; 
stroke:#000000; stroke-width:0.0200; stroke-opacity:1; 
stroke-linecap:round; stroke-linejoin:round;">
<path d="M0.4250 7.0800
L0.4250 7.9700
" />
<path d="M0.4250 7.9700
L3.5650 7.9700
" />
<path d="M1.2130 2.6600
L1.2130 2.9610
" />
<path d="M1.2130 2.9610
L1.2160 2.9870
" />
<path d="M1.2130 3.6630
L1.2130 3.9640
" />
<path d="M1.2130 3.9640
L1.2160 3.9900
" />
<path d="M1.2130 4.6660
L1.2130 4.9670
" />
<path d="M1.2130 4.9670
L1.2160 4.9930
" />
<path d="M1.2130 5.6690
L1.2130 5.9700
" />
<path d="M1.2130 5.9700
L1.2160 5.9960
" />
<path d="M1.2160 2.6340
L1.2130 2.6600
" />
<path d="M1.2160 2.9870
L1.2260 3.0110
" />
<path d="M1.2160 3.6370
L1.2130 3.6630
" />
<path d="M1.2160 3.9900
L1.2260 4.0140
" />
<path d="M1.2160 4.6400
L1.2130 4.6660
" />
<path d="M1.2160 4.9930
L1.2260 5.0170
" />
<path d="M1.2160 5.6430
L1.2130 5.6690
" />
<path d="M1.2160 5.9960
L1.2260 6.0200
" />
<path d="M1.2260 2.6100
L1.2160 2.6340
" />
<path d="M1.2260 3.0110
L1.2420 3.0320
" />
<path d="M1.2260 3.6130
L1.2160 3.6370
" />
<path d="M1.2260 4.0140
L1.2420 4.0350
" />
<path d="M1.2260 4.6160
L1.2160 4.6400
" />
<path d="M1.2260 5.0170
L1.2420 5.0380
" />
<path d="M1.2260 5.6190
L1.2160 5.6430
" />
<path d="M1.2260 6.0200
L1.2420 6.0410
" />
<path d="M1.2420 2.5890
L1.2260 2.6100
" />
<path d="M1.2420 3.0320
L1.2630 3.0480
" />
<path d="M1.2420 3.5920
L1.2260 3.6130
" />
<path d="M1.2420 4.0350
L1.2630 4.0510
" />
<path d="M1.2420 4.5950
L1.2260 4.6160
" />
<path d="M1.2420 5.0380
L1.2630 5.0540
" />
<path d="M1.2420 5.5980
L1.2260 5.6190
" />
<path d="M1.2420 6.0410
L1.2630 6.0570
" />
<path d="M1.2630 2.5730
L1.2420 2.5890
" />
<path d="M1.2630 3.0480
L1.2870 3.0580
" />
<path d="M1.2630 3.5760
L1.2420 3.5920
" />
<path d="M1.2630 4.0510
L1.2870 4.0610
" />
<path d="M1.2630 4.5790
L1.2420 4.5950
" />
<path d="M1.2630 5.0540
L1.2870 5.0640
" />
<path d="M1.2630 5.5820
L1.2420 5.5980
" />
<path d="M1.2630 6.0570
L1.2870 6.0670
" />
<path d="M1.2870 2.5630
L1.2630 2.5730
" />
<path d="M1.2870 3.0580
L1.3130 3.0610
" />
<path d="M1.2870 3.5660
L1.2630 3.5760
" />
<path d="M1.2870 4.0610
L1.3130 4.0640
" />
<path d="M1.2870 4.5690
L1.2630 4.5790
" />
<path d="M1.2870 5.0640
L1.3130 5.0670
" />
<path d="M1.2870 5.5720
L1.2630 5.5820
" />
<path d="M1.2870 6.0670
L1.3130 6.0700
" />
<path d="M1.3130 2.5600
L1.2870 2.5630
" />
<path d="M1.3130 3.0610
L1.6230 3.0610
" />
<path d="M1.3130 3.5630
L1.2870 3.5660
" />
<path d="M1.3130 4.0640
L1.6230 4.0640
" />
<path d="M1.3130 4.5660
L1.2870 4.5690
" />
<path d="M1.3130 5.0670
L1.6230 5.0670
" />
<path d="M1.3130 5.5690
L1.2870 5.5720
" />
<path d="M1.3130 6.0700
L2.2050 6.0700
" />
<path d="M1.4450 6.1400
L1.4450 6.5400
" />
<path d="M1.4450 6.5400
L1.4480 6.5750
" />
<path d="M1.4480 6.5750
L1.4590 6.6090
" />
<path d="M1.4590 6.6090
L1.4750 6.6400
" />
<path d="M1.4750 6.6400
L1.4980 6.6670
" />
<path d="M1.4980 6.6670
L1.5250 6.6900
" />
<path d="M1.5250 6.6900
L1.5560 6.7060
" />
<path d="M1.5560 6.7060
L1.5900 6.7170
" />
<path d="M1.5900 6.7170
L1.6250 6.7200
" />
<path d="M1.6230 3.0610
L1.6490 3.0650
" />
<path d="M1.6230 3.5630
L1.3130 3.5630
" />
<path d="M1.6230 4.0640
L1.6490 4.0680
" />
<path d="M1.6230 4.5660
L1.3130 4.5660
" />
<path d="M1.6230 5.0670
L1.6490 5.0710
" />
<path d="M1.6230 5.5690
L1.3130 5.5690
" />
<path d="M1.6250 6.7200
L1.6600 6.7230
" />
<path d="M1.6250 7.0800
L0.4250 7.0800
" />
<path d="M1.6490 3.0650
L1.6730 3.0750
" />
<path d="M1.6490 3.5590
L1.6230 3.5630
" />
<path d="M1.6490 4.0680
L1.6730 4.0780
" />
<path d="M1.6490 4.5620
L1.6230 4.5660
" />
<path d="M1.6490 5.0710
L1.6730 5.0810
" />
<path d="M1.6490 5.5650
L1.6230 5.5690
" />
<path d="M1.6600 6.7230
L1.6940 6.7340
" />
<path d="M1.6600 7.0770
L1.6250 7.0800
" />
<path d="M1.6730 3.0750
L1.6940 3.0910
" />
<path d="M1.6730 3.5490
L1.6490 3.5590
" />
<path d="M1.6730 4.0780
L1.6940 4.0940
" />
<path d="M1.6730 4.5520
L1.6490 4.5620
" />
<path d="M1.6730 5.0810
L1.6940 5.0960
" />
<path d="M1.6730 5.5550
L1.6490 5.5650
" />
<path d="M1.6940 3.0910
L1.7100 3.1110
" />
<path d="M1.6940 3.5340
L1.6730 3.5490
" />
<path d="M1.6940 4.0940
L1.7100 4.1140
" />
<path d="M1.6940 4.5360
L1.6730 4.5520
" />
<path d="M1.6940 5.0960
L1.7100 5.1170
" />
<path d="M1.6940 5.5390
L1.6730 5.5550
" />
<path d="M1.6940 6.7340
L1.7250 6.7500
" />
<path d="M1.6940 7.0660
L1.6600 7.0770
" />
<path d="M1.7100 3.1110
L1.7200 3.1360
" />
<path d="M1.7100 3.5130
L1.6940 3.5340
" />
<path d="M1.7100 4.1140
L1.7200 4.1380
" />
<path d="M1.7100 4.5160
L1.6940 4.5360
" />
<path d="M1.7100 5.1170
L1.7200 5.1410
" />
<path d="M1.7100 5.5190
L1.6940 5.5390
" />
<path d="M1.7200 3.1360
L1.7230 3.1610
" />
<path d="M1.7200 3.4890
L1.7100 3.5130
" />
<path d="M1.7200 4.1380
L1.7230 4.1640
" />
<path d="M1.7200 4.4920
L1.7100 4.5160
" />
<path d="M1.7200 5.1410
L1.7230 5.1670
" />
<path d="M1.7200 5.4940
L1.7100 5.5190
" />
<path d="M1.7230 3.1610
L1.7230 3.4630
" />
<path d="M1.7230 3.4630
L1.7200 3.4890
" />
<path d="M1.7230 4.1640
L1.7230 4.4660
" />
<path d="M1.7230 4.4660
L1.7200 4.4920
" />
<path d="M1.7230 5.1670
L1.7230 5.4690
" />
<path d="M1.7230 5.4690
L1.7200 5.4940
" />
<path d="M1.7250 6.7500
L1.7520 6.7730
" />
<path d="M1.7250 7.0500
L1.6940 7.0660
" />
<path d="M1.7520 6.7730
L1.7750 6.8000
" />
<path d="M1.7520 7.0270
L1.7250 7.0500
" />
<path d="M1.7750 6.8000
L1.7910 6.8310
" />
<path d="M1.7750 7.0000
L1.7520 7.0270
" />
<path d="M1.7910 6.8310
L1.8020 6.8650
" />
<path d="M1.7910 6.9690
L1.7750 7.0000
" />
<path d="M1.8020 6.8650
L1.8050 6.9000
" />
<path d="M1.8020 6.9350
L1.7910 6.9690
" />
<path d="M1.8050 6.9000
L1.8020 6.9350
" />
<path d="M1.8250 2.5600
L1.3130 2.5600
" />
<path d="M1.8250 2.5600
L1.8250 3.8300
" />
<path d="M1.8250 2.5600
L2.1050 2.5600
" />
<path d="M1.8250 6.0600
L1.8250 3.8300
" />
<path d="M2.1050 2.5600
L2.2050 2.9330
" />
<path d="M2.1050 2.5600
L2.5550 2.5600
" />
<path d="M2.2050 2.9330
L2.2050 3.8300
" />
<path d="M2.2050 3.8300
L1.8250 3.8300
" />
<path d="M2.2050 6.0700
L2.2050 6.0600
" />
<path d="M2.4030 6.0600
L2.4030 6.0700
" />
<path d="M2.4030 6.0700
L2.2050 6.0700
" />
<path d="M2.4550 2.9330
L2.4550 6.0600
" />
<path d="M2.4550 2.9330
L2.5550 2.5600
" />
<path d="M2.4550 3.8300
L2.2050 3.8300
" />
<path d="M2.4550 6.0600
L1.8250 6.0600
" />
<path d="M2.4550 6.0600
L2.7150 6.0600
" />
<path d="M2.5390 6.1400
L1.4450 6.1400
" />
<path d="M2.6350 6.5000
L2.5390 6.1400
" />
<path d="M2.6350 6.9300
L2.6350 6.5000
" />
<path d="M2.7150 6.0600
L2.7150 6.9300
" />
<path d="M2.7150 6.1400
L2.5390 6.1400
" />
<path d="M2.7150 6.9300
L2.6350 6.9300
" />
<path d="M2.7150 6.9300
L20.8550 6.9300
" />
<path d="M3.7950 6.9300
L3.5650 7.9700
" />
<path d="M3.8050 2.5600
L2.5550 2.5600
" />
<path d="M3.8050 2.5600
L3.8050 6.0600
" />
<path d="M3.8050 2.5600
L6.0150 2.5600
" />
<path d="M3.8050 6.0600
L4.5150 6.0600
" />
<path d="M4.0750 6.9300
L4.0750 7.5600
" />
<path d="M4.0750 7.5600
L4.6950 7.5600
" />
<path d="M4.5150 6.0600
L4.8950 6.8200
" />
<path d="M4.6950 6.9300
L4.6950 7.5600
" />
<path d="M4.7890 1.4200
L4.7890 1.4210
" />
<path d="M4.7890 1.4200
L4.9890 1.4200
" />
<path d="M4.7890 1.4210
L4.7890 1.4230
" />
<path d="M4.7890 1.4230
L4.7890 1.4270
" />
<path d="M4.7890 1.4270
L4.7890 1.4330
" />
<path d="M4.7890 1.4330
L4.7890 1.4400
" />
<path d="M4.7890 1.4400
L4.7890 1.4480
" />
<path d="M4.7890 1.4480
L4.7890 1.4580
" />
<path d="M4.7890 1.4580
L4.7890 1.4690
" />
<path d="M4.7890 1.4690
L4.7890 1.4810
" />
<path d="M4.7890 1.4810
L4.7890 1.4940
" />
<path d="M4.7890 1.4940
L4.7890 1.5070
" />
<path d="M4.7890 1.5070
L4.7890 1.5210
" />
<path d="M4.7890 1.5210
L4.7890 1.5350
" />
<path d="M4.7890 1.5350
L4.7890 1.5500
" />
<path d="M4.7890 1.5500
L4.7890 1.9200
" />
<path d="M4.7890 1.5500
L4.9890 1.5500
" />
<path d="M4.7890 1.9200
L4.7890 1.9350
" />
<path d="M4.7890 1.9200
L4.9890 1.9200
" />
<path d="M4.7890 1.9350
L4.7890 1.9490
" />
<path d="M4.7890 1.9490
L4.7890 1.9630
" />
<path d="M4.7890 1.9630
L4.7890 1.9760
" />
<path d="M4.7890 1.9760
L4.7890 1.9890
" />
<path d="M4.7890 1.9890
L4.7890 2.0010
" />
<path d="M4.7890 2.0010
L4.7890 2.0120
" />
<path d="M4.7890 2.0120
L4.7890 2.0220
" />
<path d="M4.7890 2.0220
L4.7890 2.0300
" />
<path d="M4.7890 2.0300
L4.7890 2.0370
" />
<path d="M4.7890 2.0370
L4.7890 2.0430
" />
<path d="M4.7890 2.0430
L4.7890 2.0470
" />
<path d="M4.7890 2.0470
L4.7890 2.0490
" />
<path d="M4.7890 2.0490
L4.7890 2.0500
" />
<path d="M4.7890 2.0500
L4.7890 2.5600
" />
<path d="M4.7890 2.0500
L4.9890 2.0500
" />
<path d="M4.8950 6.8200
L5.2750 6.0600
" />
<path d="M4.9890 1.4200
L4.9890 1.4210
" />
<path d="M4.9890 1.4210
L4.9890 1.4230
" />
<path d="M4.9890 1.4230
L4.9890 1.4270
" />
<path d="M4.9890 1.4270
L4.9890 1.4330
" />
<path d="M4.9890 1.4330
L4.9890 1.4400
" />
<path d="M4.9890 1.4400
L4.9890 1.4480
" />
<path d="M4.9890 1.4480
L4.9890 1.4580
" />
<path d="M4.9890 1.4580
L4.9890 1.4690
" />
<path d="M4.9890 1.4690
L4.9890 1.4810
" />
<path d="M4.9890 1.4810
L4.9890 1.4940
" />
<path d="M4.9890 1.4940
L4.9890 1.5070
" />
<path d="M4.9890 1.5070
L4.9890 1.5210
" />
<path d="M4.9890 1.5210
L4.9890 1.5350
" />
<path d="M4.9890 1.5350
L4.9890 1.5500
" />
<path d="M4.9890 1.5500
L4.9890 1.9200
" />
<path d="M4.9890 1.9200
L4.9890 1.9350
" />
<path d="M4.9890 1.9350
L4.9890 1.9490
" />
<path d="M4.9890 1.9490
L4.9890 1.9630
" />
<path d="M4.9890 1.9630
L4.9890 1.9760
" />
<path d="M4.9890 1.9760
L4.9890 1.9890
" />
<path d="M4.9890 1.9890
L4.9890 2.0010
" />
<path d="M4.9890 2.0010
L4.9890 2.0120
" />
<path d="M4.9890 2.0120
L4.9890 2.0220
" />
<path d="M4.9890 2.0220
L4.9890 2.0300
" />
<path d="M4.9890 2.0300
L4.9890 2.0370
" />
<path d="M4.9890 2.0370
L4.9890 2.0430
" />
<path d="M4.9890 2.0430
L4.9890 2.0470
" />
<path d="M4.9890 2.0470
L4.9890 2.0490
" />
<path d="M4.9890 2.0490
L4.9890 2.0500
" />
<path d="M4.9890 2.0500
L4.9890 2.5600
" />
<path d="M5.0750 6.9300
L5.0750 7.5600
" />
<path d="M5.0750 7.5600
L5.6950 7.5600
" />
<path d="M5.2750 6.0600
L4.5150 6.0600
" />
<path d="M5.2750 6.0600
L6.0150 6.0600
" />
<path d="M5.6950 6.9300
L5.6950 7.5600
" />
<path d="M5.7890 1.4200
L5.7890 1.4210
" />
<path d="M5.7890 1.4200
L5.9890 1.4200
" />
<path d="M5.7890 1.4210
L5.7890 1.4230
" />
<path d="M5.7890 1.4230
L5.7890 1.4270
" />
<path d="M5.7890 1.4270
L5.7890 1.4330
" />
<path d="M5.7890 1.4330
L5.7890 1.4400
" />
<path d="M5.7890 1.4400
L5.7890 1.4480
" />
<path d="M5.7890 1.4480
L5.7890 1.4580
" />
<path d="M5.7890 1.4580
L5.7890 1.4690
" />
<path d="M5.7890 1.4690
L5.7890 1.4810
" />
<path d="M5.7890 1.4810
L5.7890 1.4940
" />
<path d="M5.7890 1.4940
L5.7890 1.5070
" />
<path d="M5.7890 1.5070
L5.7890 1.5210
" />
<path d="M5.7890 1.5210
L5.7890 1.5350
" />
<path d="M5.7890 1.5350
L5.7890 1.5500
" />
<path d="M5.7890 1.5500
L5.7890 1.9200
" />
<path d="M5.7890 1.5500
L5.9890 1.5500
" />
<path d="M5.7890 1.9200
L5.7890 1.9350
" />
<path d="M5.7890 1.9200
L5.9890 1.9200
" />
<path d="M5.7890 1.9350
L5.7890 1.9490
" />
<path d="M5.7890 1.9490
L5.7890 1.9630
" />
<path d="M5.7890 1.9630
L5.7890 1.9760
" />
<path d="M5.7890 1.9760
L5.7890 1.9890
" />
<path d="M5.7890 1.9890
L5.7890 2.0010
" />
<path d="M5.7890 2.0010
L5.7890 2.0120
" />
<path d="M5.7890 2.0120
L5.7890 2.0220
" />
<path d="M5.7890 2.0220
L5.7890 2.0300
" />
<path d="M5.7890 2.0300
L5.7890 2.0370
" />
<path d="M5.7890 2.0370
L5.7890 2.0430
" />
<path d="M5.7890 2.0430
L5.7890 2.0470
" />
<path d="M5.7890 2.0470
L5.7890 2.0490
" />
<path d="M5.7890 2.0490
L5.7890 2.0500
" />
<path d="M5.7890 2.0500
L5.7890 2.5600
" />
<path d="M5.7890 2.0500
L5.9890 2.0500
" />
<path d="M5.9890 1.4200
L5.9890 1.4210
" />
<path d="M5.9890 1.4210
L5.9890 1.4230
" />
<path d="M5.9890 1.4230
L5.9890 1.4270
" />
<path d="M5.9890 1.4270
L5.9890 1.4330
" />
<path d="M5.9890 1.4330
L5.9890 1.4400
" />
<path d="M5.9890 1.4400
L5.9890 1.4480
" />
<path d="M5.9890 1.4480
L5.9890 1.4580
" />
<path d="M5.9890 1.4580
L5.9890 1.4690
" />
<path d="M5.9890 1.4690
L5.9890 1.4810
" />
<path d="M5.9890 1.4810
L5.9890 1.4940
" />
<path d="M5.9890 1.4940
L5.9890 1.5070
" />
<path d="M5.9890 1.5070
L5.9890 1.5210
" />
<path d="M5.9890 1.5210
L5.9890 1.5350
" />
<path d="M5.9890 1.5350
L5.9890 1.5500
" />
<path d="M5.9890 1.5500
L5.9890 1.9200
" />
<path d="M5.9890 1.9200
L5.9890 1.9350
" />
<path d="M5.9890 1.9350
L5.9890 1.9490
" />
<path d="M5.9890 1.9490
L5.9890 1.9630
" />
<path d="M5.9890 1.9630
L5.9890 1.9760
" />
<path d="M5.9890 1.9760
L5.9890 1.9890
" />
<path d="M5.9890 1.9890
L5.9890 2.0010
" />
<path d="M5.9890 2.0010
L5.9890 2.0120
" />
<path d="M5.9890 2.0120
L5.9890 2.0220
" />
<path d="M5.9890 2.0220
L5.9890 2.0300
" />
<path d="M5.9890 2.0300
L5.9890 2.0370
" />
<path d="M5.9890 2.0370
L5.9890 2.0430
" />
<path d="M5.9890 2.0430
L5.9890 2.0470
" />
<path d="M5.9890 2.0470
L5.9890 2.0490
" />
<path d="M5.9890 2.0490
L5.9890 2.0500
" />
<path d="M5.9890 2.0500
L5.9890 2.5600
" />
<path d="M6.0150 2.5600
L6.0150 6.0600
" />
<path d="M6.0750 6.9300
L6.0750 7.5600
" />
<path d="M6.0750 7.5600
L6.6950 7.5600
" />
<path d="M6.6950 6.9300
L6.6950 7.5600
" />
<path d="M6.7890 1.4200
L6.7890 1.4210
" />
<path d="M6.7890 1.4200
L6.9890 1.4200
" />
<path d="M6.7890 1.4210
L6.7890 1.4230
" />
<path d="M6.7890 1.4230
L6.7890 1.4270
" />
<path d="M6.7890 1.4270
L6.7890 1.4330
" />
<path d="M6.7890 1.4330
L6.7890 1.4400
" />
<path d="M6.7890 1.4400
L6.7890 1.4480
" />
<path d="M6.7890 1.4480
L6.7890 1.4580
" />
<path d="M6.7890 1.4580
L6.7890 1.4690
" />
<path d="M6.7890 1.4690
L6.7890 1.4810
" />
<path d="M6.7890 1.4810
L6.7890 1.4940
" />
<path d="M6.7890 1.4940
L6.7890 1.5070
" />
<path d="M6.7890 1.5070
L6.7890 1.5210
" />
<path d="M6.7890 1.5210
L6.7890 1.5350
" />
<path d="M6.7890 1.5350
L6.7890 1.5500
" />
<path d="M6.7890 1.5500
L6.7890 1.9200
" />
<path d="M6.7890 1.5500
L6.9890 1.5500
" />
<path d="M6.7890 1.9200
L6.7890 1.9350
" />
<path d="M6.7890 1.9200
L6.9890 1.9200
" />
<path d="M6.7890 1.9350
L6.7890 1.9490
" />
<path d="M6.7890 1.9490
L6.7890 1.9630
" />
<path d="M6.7890 1.9630
L6.7890 1.9760
" />
<path d="M6.7890 1.9760
L6.7890 1.9890
" />
<path d="M6.7890 1.9890
L6.7890 2.0010
" />
<path d="M6.7890 2.0010
L6.7890 2.0120
" />
<path d="M6.7890 2.0120
L6.7890 2.0220
" />
<path d="M6.7890 2.0220
L6.7890 2.0300
" />
<path d="M6.7890 2.0300
L6.7890 2.0370
" />
<path d="M6.7890 2.0370
L6.7890 2.0430
" />
<path d="M6.7890 2.0430
L6.7890 2.0470
" />
<path d="M6.7890 2.0470
L6.7890 2.0490
" />
<path d="M6.7890 2.0490
L6.7890 2.0500
" />
<path d="M6.7890 2.0500
L6.7890 2.5600
" />
<path d="M6.7890 2.0500
L6.9890 2.0500
" />
<path d="M6.9890 1.4200
L6.9890 1.4210
" />
<path d="M6.9890 1.4210
L6.9890 1.4230
" />
<path d="M6.9890 1.4230
L6.9890 1.4270
" />
<path d="M6.9890 1.4270
L6.9890 1.4330
" />
<path d="M6.9890 1.4330
L6.9890 1.4400
" />
<path d="M6.9890 1.4400
L6.9890 1.4480
" />
<path d="M6.9890 1.4480
L6.9890 1.4580
" />
<path d="M6.9890 1.4580
L6.9890 1.4690
" />
<path d="M6.9890 1.4690
L6.9890 1.4810
" />
<path d="M6.9890 1.4810
L6.9890 1.4940
" />
<path d="M6.9890 1.4940
L6.9890 1.5070
" />
<path d="M6.9890 1.5070
L6.9890 1.5210
" />
<path d="M6.9890 1.5210
L6.9890 1.5350
" />
<path d="M6.9890 1.5350
L6.9890 1.5500
" />
<path d="M6.9890 1.5500
L6.9890 1.9200
" />
<path d="M6.9890 1.9200
L6.9890 1.9350
" />
<path d="M6.9890 1.9350
L6.9890 1.9490
" />
<path d="M6.9890 1.9490
L6.9890 1.9630
" />
<path d="M6.9890 1.9630
L6.9890 1.9760
" />
<path d="M6.9890 1.9760
L6.9890 1.9890
" />
<path d="M6.9890 1.9890
L6.9890 2.0010
" />
<path d="M6.9890 2.0010
L6.9890 2.0120
" />
<path d="M6.9890 2.0120
L6.9890 2.0220
" />
<path d="M6.9890 2.0220
L6.9890 2.0300
" />
<path d="M6.9890 2.0300
L6.9890 2.0370
" />
<path d="M6.9890 2.0370
L6.9890 2.0430
" />
<path d="M6.9890 2.0430
L6.9890 2.0470
" />
<path d="M6.9890 2.0470
L6.9890 2.0490
" />
<path d="M6.9890 2.0490
L6.9890 2.0500
" />
<path d="M6.9890 2.0500
L6.9890 2.5600
" />
<path d="M7.0750 6.9300
L7.0750 7.5600
" />
<path d="M7.0750 7.5600
L7.6950 7.5600
" />
<path d="M7.6950 6.9300
L7.6950 7.5600
" />
<path d="M7.7890 1.4200
L7.7890 1.4210
" />
<path d="M7.7890 1.4200
L7.9890 1.4200
" />
<path d="M7.7890 1.4210
L7.7890 1.4230
" />
<path d="M7.7890 1.4230
L7.7890 1.4270
" />
<path d="M7.7890 1.4270
L7.7890 1.4330
" />
<path d="M7.7890 1.4330
L7.7890 1.4400
" />
<path d="M7.7890 1.4400
L7.7890 1.4480
" />
<path d="M7.7890 1.4480
L7.7890 1.4580
" />
<path d="M7.7890 1.4580
L7.7890 1.4690
" />
<path d="M7.7890 1.4690
L7.7890 1.4810
" />
<path d="M7.7890 1.4810
L7.7890 1.4940
" />
<path d="M7.7890 1.4940
L7.7890 1.5070
" />
<path d="M7.7890 1.5070
L7.7890 1.5210
" />
<path d="M7.7890 1.5210
L7.7890 1.5350
" />
<path d="M7.7890 1.5350
L7.7890 1.5500
" />
<path d="M7.7890 1.5500
L7.7890 1.9200
" />
<path d="M7.7890 1.5500
L7.9890 1.5500
" />
<path d="M7.7890 1.9200
L7.7890 1.9350
" />
<path d="M7.7890 1.9200
L7.9890 1.9200
" />
<path d="M7.7890 1.9350
L7.7890 1.9490
" />
<path d="M7.7890 1.9490
L7.7890 1.9630
" />
<path d="M7.7890 1.9630
L7.7890 1.9760
" />
<path d="M7.7890 1.9760
L7.7890 1.9890
" />
<path d="M7.7890 1.9890
L7.7890 2.0010
" />
<path d="M7.7890 2.0010
L7.7890 2.0120
" />
<path d="M7.7890 2.0120
L7.7890 2.0220
" />
<path d="M7.7890 2.0220
L7.7890 2.0300
" />
<path d="M7.7890 2.0300
L7.7890 2.0370
" />
<path d="M7.7890 2.0370
L7.7890 2.0430
" />
<path d="M7.7890 2.0430
L7.7890 2.0470
" />
<path d="M7.7890 2.0470
L7.7890 2.0490
" />
<path d="M7.7890 2.0490
L7.7890 2.0500
" />
<path d="M7.7890 2.0500
L7.7890 2.5600
" />
<path d="M7.7890 2.0500
L7.9890 2.0500
" />
<path d="M7.9890 1.4200
L7.9890 1.4210
" />
<path d="M7.9890 1.4210
L7.9890 1.4230
" />
<path d="M7.9890 1.4230
L7.9890 1.4270
" />
<path d="M7.9890 1.4270
L7.9890 1.4330
" />
<path d="M7.9890 1.4330
L7.9890 1.4400
" />
<path d="M7.9890 1.4400
L7.9890 1.4480
" />
<path d="M7.9890 1.4480
L7.9890 1.4580
" />
<path d="M7.9890 1.4580
L7.9890 1.4690
" />
<path d="M7.9890 1.4690
L7.9890 1.4810
" />
<path d="M7.9890 1.4810
L7.9890 1.4940
" />
<path d="M7.9890 1.4940
L7.9890 1.5070
" />
<path d="M7.9890 1.5070
L7.9890 1.5210
" />
<path d="M7.9890 1.5210
L7.9890 1.5350
" />
<path d="M7.9890 1.5350
L7.9890 1.5500
" />
<path d="M7.9890 1.5500
L7.9890 1.9200
" />
<path d="M7.9890 1.9200
L7.9890 1.9350
" />
<path d="M7.9890 1.9350
L7.9890 1.9490
" />
<path d="M7.9890 1.9490
L7.9890 1.9630
" />
<path d="M7.9890 1.9630
L7.9890 1.9760
" />
<path d="M7.9890 1.9760
L7.9890 1.9890
" />
<path d="M7.9890 1.9890
L7.9890 2.0010
" />
<path d="M7.9890 2.0010
L7.9890 2.0120
" />
<path d="M7.9890 2.0120
L7.9890 2.0220
" />
<path d="M7.9890 2.0220
L7.9890 2.0300
" />
<path d="M7.9890 2.0300
L7.9890 2.0370
" />
<path d="M7.9890 2.0370
L7.9890 2.0430
" />
<path d="M7.9890 2.0430
L7.9890 2.0470
" />
<path d="M7.9890 2.0470
L7.9890 2.0490
" />
<path d="M7.9890 2.0490
L7.9890 2.0500
" />
<path d="M7.9890 2.0500
L7.9890 2.5600
" />
<path d="M8.0750 6.9300
L8.0750 7.5600
" />
<path d="M8.0750 7.5600
L8.6950 7.5600
" />
<path d="M8.6950 6.9300
L8.6950 7.5600
" />
<path d="M8.7890 1.4200
L8.7890 1.4210
" />
<path d="M8.7890 1.4200
L8.9890 1.4200
" />
<path d="M8.7890 1.4210
L8.7890 1.4230
" />
<path d="M8.7890 1.4230
L8.7890 1.4270
" />
<path d="M8.7890 1.4270
L8.7890 1.4330
" />
<path d="M8.7890 1.4330
L8.7890 1.4400
" />
<path d="M8.7890 1.4400
L8.7890 1.4480
" />
<path d="M8.7890 1.4480
L8.7890 1.4580
" />
<path d="M8.7890 1.4580
L8.7890 1.4690
" />
<path d="M8.7890 1.4690
L8.7890 1.4810
" />
<path d="M8.7890 1.4810
L8.7890 1.4940
" />
<path d="M8.7890 1.4940
L8.7890 1.5070
" />
<path d="M8.7890 1.5070
L8.7890 1.5210
" />
<path d="M8.7890 1.5210
L8.7890 1.5350
" />
<path d="M8.7890 1.5350
L8.7890 1.5500
" />
<path d="M8.7890 1.5500
L8.7890 1.9200
" />
<path d="M8.7890 1.5500
L8.9890 1.5500
" />
<path d="M8.7890 1.9200
L8.7890 1.9350
" />
<path d="M8.7890 1.9200
L8.9890 1.9200
" />
<path d="M8.7890 1.9350
L8.7890 1.9490
" />
<path d="M8.7890 1.9490
L8.7890 1.9630
" />
<path d="M8.7890 1.9630
L8.7890 1.9760
" />
<path d="M8.7890 1.9760
L8.7890 1.9890
" />
<path d="M8.7890 1.9890
L8.7890 2.0010
" />
<path d="M8.7890 2.0010
L8.7890 2.0120
" />
<path d="M8.7890 2.0120
L8.7890 2.0220
" />
<path d="M8.7890 2.0220
L8.7890 2.0300
" />
<path d="M8.7890 2.0300
L8.7890 2.0370
" />
<path d="M8.7890 2.0370
L8.7890 2.0430
" />
<path d="M8.7890 2.0430
L8.7890 2.0470
" />
<path d="M8.7890 2.0470
L8.7890 2.0490
" />
<path d="M8.7890 2.0490
L8.7890 2.0500
" />
<path d="M8.7890 2.0500
L8.7890 2.5600
" />
<path d="M8.7890 2.0500
L8.9890 2.0500
" />
<path d="M8.9890 1.4200
L8.9890 1.4210
" />
<path d="M8.9890 1.4210
L8.9890 1.4230
" />
<path d="M8.9890 1.4230
L8.9890 1.4270
" />
<path d="M8.9890 1.4270
L8.9890 1.4330
" />
<path d="M8.9890 1.4330
L8.9890 1.4400
" />
<path d="M8.9890 1.4400
L8.9890 1.4480
" />
<path d="M8.9890 1.4480
L8.9890 1.4580
" />
<path d="M8.9890 1.4580
L8.9890 1.4690
" />
<path d="M8.9890 1.4690
L8.9890 1.4810
" />
<path d="M8.9890 1.4810
L8.9890 1.4940
" />
<path d="M8.9890 1.4940
L8.9890 1.5070
" />
<path d="M8.9890 1.5070
L8.9890 1.5210
" />
<path d="M8.9890 1.5210
L8.9890 1.5350
" />
<path d="M8.9890 1.5350
L8.9890 1.5500
" />
<path d="M8.9890 1.5500
L8.9890 1.9200
" />
<path d="M8.9890 1.9200
L8.9890 1.9350
" />
<path d="M8.9890 1.9350
L8.9890 1.9490
" />
<path d="M8.9890 1.9490
L8.9890 1.9630
" />
<path d="M8.9890 1.9630
L8.9890 1.9760
" />
<path d="M8.9890 1.9760
L8.9890 1.9890
" />
<path d="M8.9890 1.9890
L8.9890 2.0010
" />
<path d="M8.9890 2.0010
L8.9890 2.0120
" />
<path d="M8.9890 2.0120
L8.9890 2.0220
" />
<path d="M8.9890 2.0220
L8.9890 2.0300
" />
<path d="M8.9890 2.0300
L8.9890 2.0370
" />
<path d="M8.9890 2.0370
L8.9890 2.0430
" />
<path d="M8.9890 2.0430
L8.9890 2.0470
" />
<path d="M8.9890 2.0470
L8.9890 2.0490
" />
<path d="M8.9890 2.0490
L8.9890 2.0500
" />
<path d="M8.9890 2.0500
L8.9890 2.5600
" />
<path d="M9.0750 6.9300
L9.0750 7.5600
" />
<path d="M9.0750 7.5600
L9.6950 7.5600
" />
<path d="M9.6950 6.9300
L9.6950 7.5600
" />
<path d="M9.7890 1.4200
L9.7890 1.4210
" />
<path d="M9.7890 1.4200
L9.9890 1.4200
" />
<path d="M9.7890 1.4210
L9.7890 1.4230
" />
<path d="M9.7890 1.4230
L9.7890 1.4270
" />
<path d="M9.7890 1.4270
L9.7890 1.4330
" />
<path d="M9.7890 1.4330
L9.7890 1.4400
" />
<path d="M9.7890 1.4400
L9.7890 1.4480
" />
<path d="M9.7890 1.4480
L9.7890 1.4580
" />
<path d="M9.7890 1.4580
L9.7890 1.4690
" />
<path d="M9.7890 1.4690
L9.7890 1.4810
" />
<path d="M9.7890 1.4810
L9.7890 1.4940
" />
<path d="M9.7890 1.4940
L9.7890 1.5070
" />
<path d="M9.7890 1.5070
L9.7890 1.5210
" />
<path d="M9.7890 1.5210
L9.7890 1.5350
" />
<path d="M9.7890 1.5350
L9.7890 1.5500
" />
<path d="M9.7890 1.5500
L9.7890 1.9200
" />
<path d="M9.7890 1.5500
L9.9890 1.5500
" />
<path d="M9.7890 1.9200
L9.7890 1.9350
" />
<path d="M9.7890 1.9200
L9.9890 1.9200
" />
<path d="M9.7890 1.9350
L9.7890 1.9490
" />
<path d="M9.7890 1.9490
L9.7890 1.9630
" />
<path d="M9.7890 1.9630
L9.7890 1.9760
" />
<path d="M9.7890 1.9760
L9.7890 1.9890
" />
<path d="M9.7890 1.9890
L9.7890 2.0010
" />
<path d="M9.7890 2.0010
L9.7890 2.0120
" />
<path d="M9.7890 2.0120
L9.7890 2.0220
" />
<path d="M9.7890 2.0220
L9.7890 2.0300
" />
<path d="M9.7890 2.0300
L9.7890 2.0370
" />
<path d="M9.7890 2.0370
L9.7890 2.0430
" />
<path d="M9.7890 2.0430
L9.7890 2.0470
" />
<path d="M9.7890 2.0470
L9.7890 2.0490
" />
<path d="M9.7890 2.0490
L9.7890 2.0500
" />
<path d="M9.7890 2.0500
L9.7890 2.5600
" />
<path d="M9.7890 2.0500
L9.9890 2.0500
" />
<path d="M9.9890 1.4200
L9.9890 1.4210
" />
<path d="M9.9890 1.4210
L9.9890 1.4230
" />
<path d="M9.9890 1.4230
L9.9890 1.4270
" />
<path d="M9.9890 1.4270
L9.9890 1.4330
" />
<path d="M9.9890 1.4330
L9.9890 1.4400
" />
<path d="M9.9890 1.4400
L9.9890 1.4480
" />
<path d="M9.9890 1.4480
L9.9890 1.4580
" />
<path d="M9.9890 1.4580
L9.9890 1.4690
" />
<path d="M9.9890 1.4690
L9.9890 1.4810
" />
<path d="M9.9890 1.4810
L9.9890 1.4940
" />
<path d="M9.9890 1.4940
L9.9890 1.5070
" />
<path d="M9.9890 1.5070
L9.9890 1.5210
" />
<path d="M9.9890 1.5210
L9.9890 1.5350
" />
<path d="M9.9890 1.5350
L9.9890 1.5500
" />
<path d="M9.9890 1.5500
L9.9890 1.9200
" />
<path d="M9.9890 1.9200
L9.9890 1.9350
" />
<path d="M9.9890 1.9350
L9.9890 1.9490
" />
<path d="M9.9890 1.9490
L9.9890 1.9630
" />
<path d="M9.9890 1.9630
L9.9890 1.9760
" />
<path d="M9.9890 1.9760
L9.9890 1.9890
" />
<path d="M9.9890 1.9890
L9.9890 2.0010
" />
<path d="M9.9890 2.0010
L9.9890 2.0120
" />
<path d="M9.9890 2.0120
L9.9890 2.0220
" />
<path d="M9.9890 2.0220
L9.9890 2.0300
" />
<path d="M9.9890 2.0300
L9.9890 2.0370
" />
<path d="M9.9890 2.0370
L9.9890 2.0430
" />
<path d="M9.9890 2.0430
L9.9890 2.0470
" />
<path d="M9.9890 2.0470
L9.9890 2.0490
" />
<path d="M9.9890 2.0490
L9.9890 2.0500
" />
<path d="M9.9890 2.0500
L9.9890 2.5600
" />
<path d="M10.0750 6.9300
L10.0750 7.5600
" />
<path d="M10.0750 7.5600
L10.6950 7.5600
" />
<path d="M10.6950 6.9300
L10.6950 7.5600
" />
<path d="M10.7890 1.4200
L10.7890 1.4210
" />
<path d="M10.7890 1.4200
L10.9890 1.4200
" />
<path d="M10.7890 1.4210
L10.7890 1.4230
" />
<path d="M10.7890 1.4230
L10.7890 1.4270
" />
<path d="M10.7890 1.4270
L10.7890 1.4330
" />
<path d="M10.7890 1.4330
L10.7890 1.4400
" />
<path d="M10.7890 1.4400
L10.7890 1.4480
" />
<path d="M10.7890 1.4480
L10.7890 1.4580
" />
<path d="M10.7890 1.4580
L10.7890 1.4690
" />
<path d="M10.7890 1.4690
L10.7890 1.4810
" />
<path d="M10.7890 1.4810
L10.7890 1.4940
" />
<path d="M10.7890 1.4940
L10.7890 1.5070
" />
<path d="M10.7890 1.5070
L10.7890 1.5210
" />
<path d="M10.7890 1.5210
L10.7890 1.5350
" />
<path d="M10.7890 1.5350
L10.7890 1.5500
" />
<path d="M10.7890 1.5500
L10.7890 1.9200
" />
<path d="M10.7890 1.5500
L10.9890 1.5500
" />
<path d="M10.7890 1.9200
L10.7890 1.9350
" />
<path d="M10.7890 1.9200
L10.9890 1.9200
" />
<path d="M10.7890 1.9350
L10.7890 1.9490
" />
<path d="M10.7890 1.9490
L10.7890 1.9630
" />
<path d="M10.7890 1.9630
L10.7890 1.9760
" />
<path d="M10.7890 1.9760
L10.7890 1.9890
" />
<path d="M10.7890 1.9890
L10.7890 2.0010
" />
<path d="M10.7890 2.0010
L10.7890 2.0120
" />
<path d="M10.7890 2.0120
L10.7890 2.0220
" />
<path d="M10.7890 2.0220
L10.7890 2.0300
" />
<path d="M10.7890 2.0300
L10.7890 2.0370
" />
<path d="M10.7890 2.0370
L10.7890 2.0430
" />
<path d="M10.7890 2.0430
L10.7890 2.0470
" />
<path d="M10.7890 2.0470
L10.7890 2.0490
" />
<path d="M10.7890 2.0490
L10.7890 2.0500
" />
<path d="M10.7890 2.0500
L10.7890 2.5600
" />
<path d="M10.7890 2.0500
L10.9890 2.0500
" />
<path d="M10.9890 1.4200
L10.9890 1.4210
" />
<path d="M10.9890 1.4210
L10.9890 1.4230
" />
<path d="M10.9890 1.4230
L10.9890 1.4270
" />
<path d="M10.9890 1.4270
L10.9890 1.4330
" />
<path d="M10.9890 1.4330
L10.9890 1.4400
" />
<path d="M10.9890 1.4400
L10.9890 1.4480
" />
<path d="M10.9890 1.4480
L10.9890 1.4580
" />
<path d="M10.9890 1.4580
L10.9890 1.4690
" />
<path d="M10.9890 1.4690
L10.9890 1.4810
" />
<path d="M10.9890 1.4810
L10.9890 1.4940
" />
<path d="M10.9890 1.4940
L10.9890 1.5070
" />
<path d="M10.9890 1.5070
L10.9890 1.5210
" />
<path d="M10.9890 1.5210
L10.9890 1.5350
" />
<path d="M10.9890 1.5350
L10.9890 1.5500
" />
<path d="M10.9890 1.5500
L10.9890 1.9200
" />
<path d="M10.9890 1.9200
L10.9890 1.9350
" />
<path d="M10.9890 1.9350
L10.9890 1.9490
" />
<path d="M10.9890 1.9490
L10.9890 1.9630
" />
<path d="M10.9890 1.9630
L10.9890 1.9760
" />
<path d="M10.9890 1.9760
L10.9890 1.9890
" />
<path d="M10.9890 1.9890
L10.9890 2.0010
" />
<path d="M10.9890 2.0010
L10.9890 2.0120
" />
<path d="M10.9890 2.0120
L10.9890 2.0220
" />
<path d="M10.9890 2.0220
L10.9890 2.0300
" />
<path d="M10.9890 2.0300
L10.9890 2.0370
" />
<path d="M10.9890 2.0370
L10.9890 2.0430
" />
<path d="M10.9890 2.0430
L10.9890 2.0470
" />
<path d="M10.9890 2.0470
L10.9890 2.0490
" />
<path d="M10.9890 2.0490
L10.9890 2.0500
" />
<path d="M10.9890 2.0500
L10.9890 2.5600
" />
<path d="M11.0750 6.9300
L11.0750 7.5600
" />
<path d="M11.0750 7.5600
L11.6950 7.5600
" />
<path d="M11.6950 6.9300
L11.6950 7.5600
" />
<path d="M11.7890 1.4200
L11.7890 1.4210
" />
<path d="M11.7890 1.4200
L11.9890 1.4200
" />
<path d="M11.7890 1.4210
L11.7890 1.4230
" />
<path d="M11.7890 1.4230
L11.7890 1.4270
" />
<path d="M11.7890 1.4270
L11.7890 1.4330
" />
<path d="M11.7890 1.4330
L11.7890 1.4400
" />
<path d="M11.7890 1.4400
L11.7890 1.4480
" />
<path d="M11.7890 1.4480
L11.7890 1.4580
" />
<path d="M11.7890 1.4580
L11.7890 1.4690
" />
<path d="M11.7890 1.4690
L11.7890 1.4810
" />
<path d="M11.7890 1.4810
L11.7890 1.4940
" />
<path d="M11.7890 1.4940
L11.7890 1.5070
" />
<path d="M11.7890 1.5070
L11.7890 1.5210
" />
<path d="M11.7890 1.5210
L11.7890 1.5350
" />
<path d="M11.7890 1.5350
L11.7890 1.5500
" />
<path d="M11.7890 1.5500
L11.7890 1.9200
" />
<path d="M11.7890 1.5500
L11.9890 1.5500
" />
<path d="M11.7890 1.9200
L11.7890 1.9350
" />
<path d="M11.7890 1.9200
L11.9890 1.9200
" />
<path d="M11.7890 1.9350
L11.7890 1.9490
" />
<path d="M11.7890 1.9490
L11.7890 1.9630
" />
<path d="M11.7890 1.9630
L11.7890 1.9760
" />
<path d="M11.7890 1.9760
L11.7890 1.9890
" />
<path d="M11.7890 1.9890
L11.7890 2.0010
" />
<path d="M11.7890 2.0010
L11.7890 2.0120
" />
<path d="M11.7890 2.0120
L11.7890 2.0220
" />
<path d="M11.7890 2.0220
L11.7890 2.0300
" />
<path d="M11.7890 2.0300
L11.7890 2.0370
" />
<path d="M11.7890 2.0370
L11.7890 2.0430
" />
<path d="M11.7890 2.0430
L11.7890 2.0470
" />
<path d="M11.7890 2.0470
L11.7890 2.0490
" />
<path d="M11.7890 2.0490
L11.7890 2.0500
" />
<path d="M11.7890 2.0500
L11.7890 2.5600
" />
<path d="M11.7890 2.0500
L11.9890 2.0500
" />
<path d="M11.9890 1.4200
L11.9890 1.4210
" />
<path d="M11.9890 1.4210
L11.9890 1.4230
" />
<path d="M11.9890 1.4230
L11.9890 1.4270
" />
<path d="M11.9890 1.4270
L11.9890 1.4330
" />
<path d="M11.9890 1.4330
L11.9890 1.4400
" />
<path d="M11.9890 1.4400
L11.9890 1.4480
" />
<path d="M11.9890 1.4480
L11.9890 1.4580
" />
<path d="M11.9890 1.4580
L11.9890 1.4690
" />
<path d="M11.9890 1.4690
L11.9890 1.4810
" />
<path d="M11.9890 1.4810
L11.9890 1.4940
" />
<path d="M11.9890 1.4940
L11.9890 1.5070
" />
<path d="M11.9890 1.5070
L11.9890 1.5210
" />
<path d="M11.9890 1.5210
L11.9890 1.5350
" />
<path d="M11.9890 1.5350
L11.9890 1.5500
" />
<path d="M11.9890 1.5500
L11.9890 1.9200
" />
<path d="M11.9890 1.9200
L11.9890 1.9350
" />
<path d="M11.9890 1.9350
L11.9890 1.9490
" />
<path d="M11.9890 1.9490
L11.9890 1.9630
" />
<path d="M11.9890 1.9630
L11.9890 1.9760
" />
<path d="M11.9890 1.9760
L11.9890 1.9890
" />
<path d="M11.9890 1.9890
L11.9890 2.0010
" />
<path d="M11.9890 2.0010
L11.9890 2.0120
" />
<path d="M11.9890 2.0120
L11.9890 2.0220
" />
<path d="M11.9890 2.0220
L11.9890 2.0300
" />
<path d="M11.9890 2.0300
L11.9890 2.0370
" />
<path d="M11.9890 2.0370
L11.9890 2.0430
" />
<path d="M11.9890 2.0430
L11.9890 2.0470
" />
<path d="M11.9890 2.0470
L11.9890 2.0490
" />
<path d="M11.9890 2.0490
L11.9890 2.0500
" />
<path d="M11.9890 2.0500
L11.9890 2.5600
" />
<path d="M12.0750 6.9300
L12.0750 7.5600
" />
<path d="M12.0750 7.5600
L12.6950 7.5600
" />
<path d="M12.6950 6.9300
L12.6950 7.5600
" />
<path d="M12.7890 1.4200
L12.7890 1.4210
" />
<path d="M12.7890 1.4200
L12.9890 1.4200
" />
<path d="M12.7890 1.4210
L12.7890 1.4230
" />
<path d="M12.7890 1.4230
L12.7890 1.4270
" />
<path d="M12.7890 1.4270
L12.7890 1.4330
" />
<path d="M12.7890 1.4330
L12.7890 1.4400
" />
<path d="M12.7890 1.4400
L12.7890 1.4480
" />
<path d="M12.7890 1.4480
L12.7890 1.4580
" />
<path d="M12.7890 1.4580
L12.7890 1.4690
" />
<path d="M12.7890 1.4690
L12.7890 1.4810
" />
<path d="M12.7890 1.4810
L12.7890 1.4940
" />
<path d="M12.7890 1.4940
L12.7890 1.5070
" />
<path d="M12.7890 1.5070
L12.7890 1.5210
" />
<path d="M12.7890 1.5210
L12.7890 1.5350
" />
<path d="M12.7890 1.5350
L12.7890 1.5500
" />
<path d="M12.7890 1.5500
L12.7890 1.9200
" />
<path d="M12.7890 1.5500
L12.9890 1.5500
" />
<path d="M12.7890 1.9200
L12.7890 1.9350
" />
<path d="M12.7890 1.9200
L12.9890 1.9200
" />
<path d="M12.7890 1.9350
L12.7890 1.9490
" />
<path d="M12.7890 1.9490
L12.7890 1.9630
" />
<path d="M12.7890 1.9630
L12.7890 1.9760
" />
<path d="M12.7890 1.9760
L12.7890 1.9890
" />
<path d="M12.7890 1.9890
L12.7890 2.0010
" />
<path d="M12.7890 2.0010
L12.7890 2.0120
" />
<path d="M12.7890 2.0120
L12.7890 2.0220
" />
<path d="M12.7890 2.0220
L12.7890 2.0300
" />
<path d="M12.7890 2.0300
L12.7890 2.0370
" />
<path d="M12.7890 2.0370
L12.7890 2.0430
" />
<path d="M12.7890 2.0430
L12.7890 2.0470
" />
<path d="M12.7890 2.0470
L12.7890 2.0490
" />
<path d="M12.7890 2.0490
L12.7890 2.0500
" />
<path d="M12.7890 2.0500
L12.7890 2.5600
" />
<path d="M12.7890 2.0500
L12.9890 2.0500
" />
<path d="M12.9890 1.4200
L12.9890 1.4210
" />
<path d="M12.9890 1.4210
L12.9890 1.4230
" />
<path d="M12.9890 1.4230
L12.9890 1.4270
" />
<path d="M12.9890 1.4270
L12.9890 1.4330
" />
<path d="M12.9890 1.4330
L12.9890 1.4400
" />
<path d="M12.9890 1.4400
L12.9890 1.4480
" />
<path d="M12.9890 1.4480
L12.9890 1.4580
" />
<path d="M12.9890 1.4580
L12.9890 1.4690
" />
<path d="M12.9890 1.4690
L12.9890 1.4810
" />
<path d="M12.9890 1.4810
L12.9890 1.4940
" />
<path d="M12.9890 1.4940
L12.9890 1.5070
" />
<path d="M12.9890 1.5070
L12.9890 1.5210
" />
<path d="M12.9890 1.5210
L12.9890 1.5350
" />
<path d="M12.9890 1.5350
L12.9890 1.5500
" />
<path d="M12.9890 1.5500
L12.9890 1.9200
" />
<path d="M12.9890 1.9200
L12.9890 1.9350
" />
<path d="M12.9890 1.9350
L12.9890 1.9490
" />
<path d="M12.9890 1.9490
L12.9890 1.9630
" />
<path d="M12.9890 1.9630
L12.9890 1.9760
" />
<path d="M12.9890 1.9760
L12.9890 1.9890
" />
<path d="M12.9890 1.9890
L12.9890 2.0010
" />
<path d="M12.9890 2.0010
L12.9890 2.0120
" />
<path d="M12.9890 2.0120
L12.9890 2.0220
" />
<path d="M12.9890 2.0220
L12.9890 2.0300
" />
<path d="M12.9890 2.0300
L12.9890 2.0370
" />
<path d="M12.9890 2.0370
L12.9890 2.0430
" />
<path d="M12.9890 2.0430
L12.9890 2.0470
" />
<path d="M12.9890 2.0470
L12.9890 2.0490
" />
<path d="M12.9890 2.0490
L12.9890 2.0500
" />
<path d="M12.9890 2.0500
L12.9890 2.5600
" />
<path d="M13.0750 6.9300
L13.0750 7.5600
" />
<path d="M13.0750 7.5600
L13.6950 7.5600
" />
<path d="M13.6950 6.9300
L13.6950 7.5600
" />
<path d="M13.7890 1.4200
L13.7890 1.4210
" />
<path d="M13.7890 1.4200
L13.9890 1.4200
" />
<path d="M13.7890 1.4210
L13.7890 1.4230
" />
<path d="M13.7890 1.4230
L13.7890 1.4270
" />
<path d="M13.7890 1.4270
L13.7890 1.4330
" />
<path d="M13.7890 1.4330
L13.7890 1.4400
" />
<path d="M13.7890 1.4400
L13.7890 1.4480
" />
<path d="M13.7890 1.4480
L13.7890 1.4580
" />
<path d="M13.7890 1.4580
L13.7890 1.4690
" />
<path d="M13.7890 1.4690
L13.7890 1.4810
" />
<path d="M13.7890 1.4810
L13.7890 1.4940
" />
<path d="M13.7890 1.4940
L13.7890 1.5070
" />
<path d="M13.7890 1.5070
L13.7890 1.5210
" />
<path d="M13.7890 1.5210
L13.7890 1.5350
" />
<path d="M13.7890 1.5350
L13.7890 1.5500
" />
<path d="M13.7890 1.5500
L13.7890 1.9200
" />
<path d="M13.7890 1.5500
L13.9890 1.5500
" />
<path d="M13.7890 1.9200
L13.7890 1.9350
" />
<path d="M13.7890 1.9200
L13.9890 1.9200
" />
<path d="M13.7890 1.9350
L13.7890 1.9490
" />
<path d="M13.7890 1.9490
L13.7890 1.9630
" />
<path d="M13.7890 1.9630
L13.7890 1.9760
" />
<path d="M13.7890 1.9760
L13.7890 1.9890
" />
<path d="M13.7890 1.9890
L13.7890 2.0010
" />
<path d="M13.7890 2.0010
L13.7890 2.0120
" />
<path d="M13.7890 2.0120
L13.7890 2.0220
" />
<path d="M13.7890 2.0220
L13.7890 2.0300
" />
<path d="M13.7890 2.0300
L13.7890 2.0370
" />
<path d="M13.7890 2.0370
L13.7890 2.0430
" />
<path d="M13.7890 2.0430
L13.7890 2.0470
" />
<path d="M13.7890 2.0470
L13.7890 2.0490
" />
<path d="M13.7890 2.0490
L13.7890 2.0500
" />
<path d="M13.7890 2.0500
L13.7890 2.5600
" />
<path d="M13.7890 2.0500
L13.9890 2.0500
" />
<path d="M13.9890 1.4200
L13.9890 1.4210
" />
<path d="M13.9890 1.4210
L13.9890 1.4230
" />
<path d="M13.9890 1.4230
L13.9890 1.4270
" />
<path d="M13.9890 1.4270
L13.9890 1.4330
" />
<path d="M13.9890 1.4330
L13.9890 1.4400
" />
<path d="M13.9890 1.4400
L13.9890 1.4480
" />
<path d="M13.9890 1.4480
L13.9890 1.4580
" />
<path d="M13.9890 1.4580
L13.9890 1.4690
" />
<path d="M13.9890 1.4690
L13.9890 1.4810
" />
<path d="M13.9890 1.4810
L13.9890 1.4940
" />
<path d="M13.9890 1.4940
L13.9890 1.5070
" />
<path d="M13.9890 1.5070
L13.9890 1.5210
" />
<path d="M13.9890 1.5210
L13.9890 1.5350
" />
<path d="M13.9890 1.5350
L13.9890 1.5500
" />
<path d="M13.9890 1.5500
L13.9890 1.9200
" />
<path d="M13.9890 1.9200
L13.9890 1.9350
" />
<path d="M13.9890 1.9350
L13.9890 1.9490
" />
<path d="M13.9890 1.9490
L13.9890 1.9630
" />
<path d="M13.9890 1.9630
L13.9890 1.9760
" />
<path d="M13.9890 1.9760
L13.9890 1.9890
" />
<path d="M13.9890 1.9890
L13.9890 2.0010
" />
<path d="M13.9890 2.0010
L13.9890 2.0120
" />
<path d="M13.9890 2.0120
L13.9890 2.0220
" />
<path d="M13.9890 2.0220
L13.9890 2.0300
" />
<path d="M13.9890 2.0300
L13.9890 2.0370
" />
<path d="M13.9890 2.0370
L13.9890 2.0430
" />
<path d="M13.9890 2.0430
L13.9890 2.0470
" />
<path d="M13.9890 2.0470
L13.9890 2.0490
" />
<path d="M13.9890 2.0490
L13.9890 2.0500
" />
<path d="M13.9890 2.0500
L13.9890 2.5600
" />
<path d="M14.0740 6.9300
L14.0740 7.5600
" />
<path d="M14.0740 7.5600
L14.6950 7.5600
" />
<path d="M14.6950 6.9300
L14.6950 7.5600
" />
<path d="M14.7890 1.4200
L14.7890 1.4210
" />
<path d="M14.7890 1.4200
L14.9890 1.4200
" />
<path d="M14.7890 1.4210
L14.7890 1.4230
" />
<path d="M14.7890 1.4230
L14.7890 1.4270
" />
<path d="M14.7890 1.4270
L14.7890 1.4330
" />
<path d="M14.7890 1.4330
L14.7890 1.4400
" />
<path d="M14.7890 1.4400
L14.7890 1.4480
" />
<path d="M14.7890 1.4480
L14.7890 1.4580
" />
<path d="M14.7890 1.4580
L14.7890 1.4690
" />
<path d="M14.7890 1.4690
L14.7890 1.4810
" />
<path d="M14.7890 1.4810
L14.7890 1.4940
" />
<path d="M14.7890 1.4940
L14.7890 1.5070
" />
<path d="M14.7890 1.5070
L14.7890 1.5210
" />
<path d="M14.7890 1.5210
L14.7890 1.5350
" />
<path d="M14.7890 1.5350
L14.7890 1.5500
" />
<path d="M14.7890 1.5500
L14.7890 1.9200
" />
<path d="M14.7890 1.5500
L14.9890 1.5500
" />
<path d="M14.7890 1.9200
L14.7890 1.9350
" />
<path d="M14.7890 1.9200
L14.9890 1.9200
" />
<path d="M14.7890 1.9350
L14.7890 1.9490
" />
<path d="M14.7890 1.9490
L14.7890 1.9630
" />
<path d="M14.7890 1.9630
L14.7890 1.9760
" />
<path d="M14.7890 1.9760
L14.7890 1.9890
" />
<path d="M14.7890 1.9890
L14.7890 2.0010
" />
<path d="M14.7890 2.0010
L14.7890 2.0120
" />
<path d="M14.7890 2.0120
L14.7890 2.0220
" />
<path d="M14.7890 2.0220
L14.7890 2.0300
" />
<path d="M14.7890 2.0300
L14.7890 2.0370
" />
<path d="M14.7890 2.0370
L14.7890 2.0430
" />
<path d="M14.7890 2.0430
L14.7890 2.0470
" />
<path d="M14.7890 2.0470
L14.7890 2.0490
" />
<path d="M14.7890 2.0490
L14.7890 2.0500
" />
<path d="M14.7890 2.0500
L14.7890 2.5600
" />
<path d="M14.7890 2.0500
L14.9890 2.0500
" />
<path d="M14.9890 1.4200
L14.9890 1.4210
" />
<path d="M14.9890 1.4210
L14.9890 1.4230
" />
<path d="M14.9890 1.4230
L14.9890 1.4270
" />
<path d="M14.9890 1.4270
L14.9890 1.4330
" />
<path d="M14.9890 1.4330
L14.9890 1.4400
" />
<path d="M14.9890 1.4400
L14.9890 1.4480
" />
<path d="M14.9890 1.4480
L14.9890 1.4580
" />
<path d="M14.9890 1.4580
L14.9890 1.4690
" />
<path d="M14.9890 1.4690
L14.9890 1.4810
" />
<path d="M14.9890 1.4810
L14.9890 1.4940
" />
<path d="M14.9890 1.4940
L14.9890 1.5070
" />
<path d="M14.9890 1.5070
L14.9890 1.5210
" />
<path d="M14.9890 1.5210
L14.9890 1.5350
" />
<path d="M14.9890 1.5350
L14.9890 1.5500
" />
<path d="M14.9890 1.5500
L14.9890 1.9200
" />
<path d="M14.9890 1.9200
L14.9890 1.9350
" />
<path d="M14.9890 1.9350
L14.9890 1.9490
" />
<path d="M14.9890 1.9490
L14.9890 1.9630
" />
<path d="M14.9890 1.9630
L14.9890 1.9760
" />
<path d="M14.9890 1.9760
L14.9890 1.9890
" />
<path d="M14.9890 1.9890
L14.9890 2.0010
" />
<path d="M14.9890 2.0010
L14.9890 2.0120
" />
<path d="M14.9890 2.0120
L14.9890 2.0220
" />
<path d="M14.9890 2.0220
L14.9890 2.0300
" />
<path d="M14.9890 2.0300
L14.9890 2.0370
" />
<path d="M14.9890 2.0370
L14.9890 2.0430
" />
<path d="M14.9890 2.0430
L14.9890 2.0470
" />
<path d="M14.9890 2.0470
L14.9890 2.0490
" />
<path d="M14.9890 2.0490
L14.9890 2.0500
" />
<path d="M14.9890 2.0500
L14.9890 2.5600
" />
<path d="M15.0740 6.9300
L15.0740 7.5600
" />
<path d="M15.0740 7.5600
L15.6950 7.5600
" />
<path d="M15.6950 6.9300
L15.6950 7.5600
" />
<path d="M15.7890 1.4200
L15.7890 1.4210
" />
<path d="M15.7890 1.4200
L15.9890 1.4200
" />
<path d="M15.7890 1.4210
L15.7890 1.4230
" />
<path d="M15.7890 1.4230
L15.7890 1.4270
" />
<path d="M15.7890 1.4270
L15.7890 1.4330
" />
<path d="M15.7890 1.4330
L15.7890 1.4400
" />
<path d="M15.7890 1.4400
L15.7890 1.4480
" />
<path d="M15.7890 1.4480
L15.7890 1.4580
" />
<path d="M15.7890 1.4580
L15.7890 1.4690
" />
<path d="M15.7890 1.4690
L15.7890 1.4810
" />
<path d="M15.7890 1.4810
L15.7890 1.4940
" />
<path d="M15.7890 1.4940
L15.7890 1.5070
" />
<path d="M15.7890 1.5070
L15.7890 1.5210
" />
<path d="M15.7890 1.5210
L15.7890 1.5350
" />
<path d="M15.7890 1.5350
L15.7890 1.5500
" />
<path d="M15.7890 1.5500
L15.7890 1.9200
" />
<path d="M15.7890 1.5500
L15.9890 1.5500
" />
<path d="M15.7890 1.9200
L15.7890 1.9350
" />
<path d="M15.7890 1.9200
L15.9890 1.9200
" />
<path d="M15.7890 1.9350
L15.7890 1.9490
" />
<path d="M15.7890 1.9490
L15.7890 1.9630
" />
<path d="M15.7890 1.9630
L15.7890 1.9760
" />
<path d="M15.7890 1.9760
L15.7890 1.9890
" />
<path d="M15.7890 1.9890
L15.7890 2.0010
" />
<path d="M15.7890 2.0010
L15.7890 2.0120
" />
<path d="M15.7890 2.0120
L15.7890 2.0220
" />
<path d="M15.7890 2.0220
L15.7890 2.0300
" />
<path d="M15.7890 2.0300
L15.7890 2.0370
" />
<path d="M15.7890 2.0370
L15.7890 2.0430
" />
<path d="M15.7890 2.0430
L15.7890 2.0470
" />
<path d="M15.7890 2.0470
L15.7890 2.0490
" />
<path d="M15.7890 2.0490
L15.7890 2.0500
" />
<path d="M15.7890 2.0500
L15.7890 2.5600
" />
<path d="M15.7890 2.0500
L15.9890 2.0500
" />
<path d="M15.9890 1.4200
L15.9890 1.4210
" />
<path d="M15.9890 1.4210
L15.9890 1.4230
" />
<path d="M15.9890 1.4230
L15.9890 1.4270
" />
<path d="M15.9890 1.4270
L15.9890 1.4330
" />
<path d="M15.9890 1.4330
L15.9890 1.4400
" />
<path d="M15.9890 1.4400
L15.9890 1.4480
" />
<path d="M15.9890 1.4480
L15.9890 1.4580
" />
<path d="M15.9890 1.4580
L15.9890 1.4690
" />
<path d="M15.9890 1.4690
L15.9890 1.4810
" />
<path d="M15.9890 1.4810
L15.9890 1.4940
" />
<path d="M15.9890 1.4940
L15.9890 1.5070
" />
<path d="M15.9890 1.5070
L15.9890 1.5210
" />
<path d="M15.9890 1.5210
L15.9890 1.5350
" />
<path d="M15.9890 1.5350
L15.9890 1.5500
" />
<path d="M15.9890 1.5500
L15.9890 1.9200
" />
<path d="M15.9890 1.9200
L15.9890 1.9350
" />
<path d="M15.9890 1.9350
L15.9890 1.9490
" />
<path d="M15.9890 1.9490
L15.9890 1.9630
" />
<path d="M15.9890 1.9630
L15.9890 1.9760
" />
<path d="M15.9890 1.9760
L15.9890 1.9890
" />
<path d="M15.9890 1.9890
L15.9890 2.0010
" />
<path d="M15.9890 2.0010
L15.9890 2.0120
" />
<path d="M15.9890 2.0120
L15.9890 2.0220
" />
<path d="M15.9890 2.0220
L15.9890 2.0300
" />
<path d="M15.9890 2.0300
L15.9890 2.0370
" />
<path d="M15.9890 2.0370
L15.9890 2.0430
" />
<path d="M15.9890 2.0430
L15.9890 2.0470
" />
<path d="M15.9890 2.0470
L15.9890 2.0490
" />
<path d="M15.9890 2.0490
L15.9890 2.0500
" />
<path d="M15.9890 2.0500
L15.9890 2.5600
" />
<path d="M16.0750 6.9300
L16.0750 7.5600
" />
<path d="M16.0750 7.5600
L16.6950 7.5600
" />
<path d="M16.6950 6.9300
L16.6950 7.5600
" />
<path d="M16.7890 1.4200
L16.7890 1.4210
" />
<path d="M16.7890 1.4200
L16.9890 1.4200
" />
<path d="M16.7890 1.4210
L16.7890 1.4230
" />
<path d="M16.7890 1.4230
L16.7890 1.4270
" />
<path d="M16.7890 1.4270
L16.7890 1.4330
" />
<path d="M16.7890 1.4330
L16.7890 1.4400
" />
<path d="M16.7890 1.4400
L16.7890 1.4480
" />
<path d="M16.7890 1.4480
L16.7890 1.4580
" />
<path d="M16.7890 1.4580
L16.7890 1.4690
" />
<path d="M16.7890 1.4690
L16.7890 1.4810
" />
<path d="M16.7890 1.4810
L16.7890 1.4940
" />
<path d="M16.7890 1.4940
L16.7890 1.5070
" />
<path d="M16.7890 1.5070
L16.7890 1.5210
" />
<path d="M16.7890 1.5210
L16.7890 1.5350
" />
<path d="M16.7890 1.5350
L16.7890 1.5500
" />
<path d="M16.7890 1.5500
L16.7890 1.9200
" />
<path d="M16.7890 1.5500
L16.9890 1.5500
" />
<path d="M16.7890 1.9200
L16.7890 1.9350
" />
<path d="M16.7890 1.9200
L16.9890 1.9200
" />
<path d="M16.7890 1.9350
L16.7890 1.9490
" />
<path d="M16.7890 1.9490
L16.7890 1.9630
" />
<path d="M16.7890 1.9630
L16.7890 1.9760
" />
<path d="M16.7890 1.9760
L16.7890 1.9890
" />
<path d="M16.7890 1.9890
L16.7890 2.0010
" />
<path d="M16.7890 2.0010
L16.7890 2.0120
" />
<path d="M16.7890 2.0120
L16.7890 2.0220
" />
<path d="M16.7890 2.0220
L16.7890 2.0300
" />
<path d="M16.7890 2.0300
L16.7890 2.0370
" />
<path d="M16.7890 2.0370
L16.7890 2.0430
" />
<path d="M16.7890 2.0430
L16.7890 2.0470
" />
<path d="M16.7890 2.0470
L16.7890 2.0490
" />
<path d="M16.7890 2.0490
L16.7890 2.0500
" />
<path d="M16.7890 2.0500
L16.7890 2.5600
" />
<path d="M16.7890 2.0500
L16.9890 2.0500
" />
<path d="M16.9890 1.4200
L16.9890 1.4210
" />
<path d="M16.9890 1.4210
L16.9890 1.4230
" />
<path d="M16.9890 1.4230
L16.9890 1.4270
" />
<path d="M16.9890 1.4270
L16.9890 1.4330
" />
<path d="M16.9890 1.4330
L16.9890 1.4400
" />
<path d="M16.9890 1.4400
L16.9890 1.4480
" />
<path d="M16.9890 1.4480
L16.9890 1.4580
" />
<path d="M16.9890 1.4580
L16.9890 1.4690
" />
<path d="M16.9890 1.4690
L16.9890 1.4810
" />
<path d="M16.9890 1.4810
L16.9890 1.4940
" />
<path d="M16.9890 1.4940
L16.9890 1.5070
" />
<path d="M16.9890 1.5070
L16.9890 1.5210
" />
<path d="M16.9890 1.5210
L16.9890 1.5350
" />
<path d="M16.9890 1.5350
L16.9890 1.5500
" />
<path d="M16.9890 1.5500
L16.9890 1.9200
" />
<path d="M16.9890 1.9200
L16.9890 1.9350
" />
<path d="M16.9890 1.9350
L16.9890 1.9490
" />
<path d="M16.9890 1.9490
L16.9890 1.9630
" />
<path d="M16.9890 1.9630
L16.9890 1.9760
" />
<path d="M16.9890 1.9760
L16.9890 1.9890
" />
<path d="M16.9890 1.9890
L16.9890 2.0010
" />
<path d="M16.9890 2.0010
L16.9890 2.0120
" />
<path d="M16.9890 2.0120
L16.9890 2.0220
" />
<path d="M16.9890 2.0220
L16.9890 2.0300
" />
<path d="M16.9890 2.0300
L16.9890 2.0370
" />
<path d="M16.9890 2.0370
L16.9890 2.0430
" />
<path d="M16.9890 2.0430
L16.9890 2.0470
" />
<path d="M16.9890 2.0470
L16.9890 2.0490
" />
<path d="M16.9890 2.0490
L16.9890 2.0500
" />
<path d="M16.9890 2.0500
L16.9890 2.5600
" />
<path d="M17.0750 6.9300
L17.0750 7.5600
" />
<path d="M17.0750 7.5600
L17.6950 7.5600
" />
<path d="M17.6950 6.9300
L17.6950 7.5600
" />
<path d="M17.7890 1.4200
L17.7890 1.4210
" />
<path d="M17.7890 1.4200
L17.9890 1.4200
" />
<path d="M17.7890 1.4210
L17.7890 1.4230
" />
<path d="M17.7890 1.4230
L17.7890 1.4270
" />
<path d="M17.7890 1.4270
L17.7890 1.4330
" />
<path d="M17.7890 1.4330
L17.7890 1.4400
" />
<path d="M17.7890 1.4400
L17.7890 1.4480
" />
<path d="M17.7890 1.4480
L17.7890 1.4580
" />
<path d="M17.7890 1.4580
L17.7890 1.4690
" />
<path d="M17.7890 1.4690
L17.7890 1.4810
" />
<path d="M17.7890 1.4810
L17.7890 1.4940
" />
<path d="M17.7890 1.4940
L17.7890 1.5070
" />
<path d="M17.7890 1.5070
L17.7890 1.5210
" />
<path d="M17.7890 1.5210
L17.7890 1.5350
" />
<path d="M17.7890 1.5350
L17.7890 1.5500
" />
<path d="M17.7890 1.5500
L17.7890 1.9200
" />
<path d="M17.7890 1.5500
L17.9890 1.5500
" />
<path d="M17.7890 1.9200
L17.7890 1.9350
" />
<path d="M17.7890 1.9200
L17.9890 1.9200
" />
<path d="M17.7890 1.9350
L17.7890 1.9490
" />
<path d="M17.7890 1.9490
L17.7890 1.9630
" />
<path d="M17.7890 1.9630
L17.7890 1.9760
" />
<path d="M17.7890 1.9760
L17.7890 1.9890
" />
<path d="M17.7890 1.9890
L17.7890 2.0010
" />
<path d="M17.7890 2.0010
L17.7890 2.0120
" />
<path d="M17.7890 2.0120
L17.7890 2.0220
" />
<path d="M17.7890 2.0220
L17.7890 2.0300
" />
<path d="M17.7890 2.0300
L17.7890 2.0370
" />
<path d="M17.7890 2.0370
L17.7890 2.0430
" />
<path d="M17.7890 2.0430
L17.7890 2.0470
" />
<path d="M17.7890 2.0470
L17.7890 2.0490
" />
<path d="M17.7890 2.0490
L17.7890 2.0500
" />
<path d="M17.7890 2.0500
L17.7890 2.5600
" />
<path d="M17.7890 2.0500
L17.9890 2.0500
" />
<path d="M17.9890 1.4200
L17.9890 1.4210
" />
<path d="M17.9890 1.4210
L17.9890 1.4230
" />
<path d="M17.9890 1.4230
L17.9890 1.4270
" />
<path d="M17.9890 1.4270
L17.9890 1.4330
" />
<path d="M17.9890 1.4330
L17.9890 1.4400
" />
<path d="M17.9890 1.4400
L17.9890 1.4480
" />
<path d="M17.9890 1.4480
L17.9890 1.4580
" />
<path d="M17.9890 1.4580
L17.9890 1.4690
" />
<path d="M17.9890 1.4690
L17.9890 1.4810
" />
<path d="M17.9890 1.4810
L17.9890 1.4940
" />
<path d="M17.9890 1.4940
L17.9890 1.5070
" />
<path d="M17.9890 1.5070
L17.9890 1.5210
" />
<path d="M17.9890 1.5210
L17.9890 1.5350
" />
<path d="M17.9890 1.5350
L17.9890 1.5500
" />
<path d="M17.9890 1.5500
L17.9890 1.9200
" />
<path d="M17.9890 1.9200
L17.9890 1.9350
" />
<path d="M17.9890 1.9350
L17.9890 1.9490
" />
<path d="M17.9890 1.9490
L17.9890 1.9630
" />
<path d="M17.9890 1.9630
L17.9890 1.9760
" />
<path d="M17.9890 1.9760
L17.9890 1.9890
" />
<path d="M17.9890 1.9890
L17.9890 2.0010
" />
<path d="M17.9890 2.0010
L17.9890 2.0120
" />
<path d="M17.9890 2.0120
L17.9890 2.0220
" />
<path d="M17.9890 2.0220
L17.9890 2.0300
" />
<path d="M17.9890 2.0300
L17.9890 2.0370
" />
<path d="M17.9890 2.0370
L17.9890 2.0430
" />
<path d="M17.9890 2.0430
L17.9890 2.0470
" />
<path d="M17.9890 2.0470
L17.9890 2.0490
" />
<path d="M17.9890 2.0490
L17.9890 2.0500
" />
<path d="M17.9890 2.0500
L17.9890 2.5600
" />
<path d="M18.0750 6.9300
L18.0750 7.5600
" />
<path d="M18.0750 7.5600
L18.6950 7.5600
" />
<path d="M18.6950 6.9300
L18.6950 7.5600
" />
<path d="M18.7890 1.4200
L18.7890 1.4210
" />
<path d="M18.7890 1.4200
L18.9890 1.4200
" />
<path d="M18.7890 1.4210
L18.7890 1.4230
" />
<path d="M18.7890 1.4230
L18.7890 1.4270
" />
<path d="M18.7890 1.4270
L18.7890 1.4330
" />
<path d="M18.7890 1.4330
L18.7890 1.4400
" />
<path d="M18.7890 1.4400
L18.7890 1.4480
" />
<path d="M18.7890 1.4480
L18.7890 1.4580
" />
<path d="M18.7890 1.4580
L18.7890 1.4690
" />
<path d="M18.7890 1.4690
L18.7890 1.4810
" />
<path d="M18.7890 1.4810
L18.7890 1.4940
" />
<path d="M18.7890 1.4940
L18.7890 1.5070
" />
<path d="M18.7890 1.5070
L18.7890 1.5210
" />
<path d="M18.7890 1.5210
L18.7890 1.5350
" />
<path d="M18.7890 1.5350
L18.7890 1.5500
" />
<path d="M18.7890 1.5500
L18.7890 1.9200
" />
<path d="M18.7890 1.5500
L18.9890 1.5500
" />
<path d="M18.7890 1.9200
L18.7890 1.9350
" />
<path d="M18.7890 1.9200
L18.9890 1.9200
" />
<path d="M18.7890 1.9350
L18.7890 1.9490
" />
<path d="M18.7890 1.9490
L18.7890 1.9630
" />
<path d="M18.7890 1.9630
L18.7890 1.9760
" />
<path d="M18.7890 1.9760
L18.7890 1.9890
" />
<path d="M18.7890 1.9890
L18.7890 2.0010
" />
<path d="M18.7890 2.0010
L18.7890 2.0120
" />
<path d="M18.7890 2.0120
L18.7890 2.0220
" />
<path d="M18.7890 2.0220
L18.7890 2.0300
" />
<path d="M18.7890 2.0300
L18.7890 2.0370
" />
<path d="M18.7890 2.0370
L18.7890 2.0430
" />
<path d="M18.7890 2.0430
L18.7890 2.0470
" />
<path d="M18.7890 2.0470
L18.7890 2.0490
" />
<path d="M18.7890 2.0490
L18.7890 2.0500
" />
<path d="M18.7890 2.0500
L18.7890 2.5600
" />
<path d="M18.7890 2.0500
L18.9890 2.0500
" />
<path d="M18.9890 1.4200
L18.9890 1.4210
" />
<path d="M18.9890 1.4210
L18.9890 1.4230
" />
<path d="M18.9890 1.4230
L18.9890 1.4270
" />
<path d="M18.9890 1.4270
L18.9890 1.4330
" />
<path d="M18.9890 1.4330
L18.9890 1.4400
" />
<path d="M18.9890 1.4400
L18.9890 1.4480
" />
<path d="M18.9890 1.4480
L18.9890 1.4580
" />
<path d="M18.9890 1.4580
L18.9890 1.4690
" />
<path d="M18.9890 1.4690
L18.9890 1.4810
" />
<path d="M18.9890 1.4810
L18.9890 1.4940
" />
<path d="M18.9890 1.4940
L18.9890 1.5070
" />
<path d="M18.9890 1.5070
L18.9890 1.5210
" />
<path d="M18.9890 1.5210
L18.9890 1.5350
" />
<path d="M18.9890 1.5350
L18.9890 1.5500
" />
<path d="M18.9890 1.5500
L18.9890 1.9200
" />
<path d="M18.9890 1.9200
L18.9890 1.9350
" />
<path d="M18.9890 1.9350
L18.9890 1.9490
" />
<path d="M18.9890 1.9490
L18.9890 1.9630
" />
<path d="M18.9890 1.9630
L18.9890 1.9760
" />
<path d="M18.9890 1.9760
L18.9890 1.9890
" />
<path d="M18.9890 1.9890
L18.9890 2.0010
" />
<path d="M18.9890 2.0010
L18.9890 2.0120
" />
<path d="M18.9890 2.0120
L18.9890 2.0220
" />
<path d="M18.9890 2.0220
L18.9890 2.0300
" />
<path d="M18.9890 2.0300
L18.9890 2.0370
" />
<path d="M18.9890 2.0370
L18.9890 2.0430
" />
<path d="M18.9890 2.0430
L18.9890 2.0470
" />
<path d="M18.9890 2.0470
L18.9890 2.0490
" />
<path d="M18.9890 2.0490
L18.9890 2.0500
" />
<path d="M18.9890 2.0500
L18.9890 2.5600
" />
<path d="M19.0750 6.9300
L19.0750 7.5600
" />
<path d="M19.0750 7.5600
L19.6950 7.5600
" />
<path d="M19.6950 6.9300
L19.6950 7.5600
" />
<path d="M20.2050 7.9700
L3.5650 7.9700
" />
<path d="M20.2050 7.9700
L19.9750 6.9300
" />
<path d="M20.2050 7.9700
L23.3450 7.9700
" />
<path d="M20.8550 6.0600
L21.2150 6.0600
" />
<path d="M20.8550 6.9300
L20.8550 6.0600
" />
<path d="M20.9350 6.5000
L20.9350 6.9300
" />
<path d="M20.9350 6.9300
L20.8550 6.9300
" />
<path d="M21.0310 6.1400
L20.8550 6.1400
" />
<path d="M21.0310 6.1400
L20.9350 6.5000
" />
<path d="M21.2150 6.0600
L21.6650 6.0600
" />
<path d="M21.3150 2.5600
L6.0150 2.5600
" />
<path d="M21.3150 2.5600
L21.3150 5.6870
" />
<path d="M21.3150 2.5600
L21.9450 2.5600
" />
<path d="M21.3150 4.7900
L21.5650 4.7900
" />
<path d="M21.3150 5.6870
L21.2150 6.0600
" />
<path d="M21.5650 5.0100
L21.5650 4.7900
" />
<path d="M21.5650 5.0100
L21.5650 5.6870
" />
<path d="M21.6140 6.0600
L21.6170 6.0700
" />
<path d="M21.6170 6.0700
L22.4570 6.0700
" />
<path d="M21.6650 6.0600
L21.5650 5.6870
" />
<path d="M21.9450 2.5600
L21.9450 5.0100
" />
<path d="M21.9450 5.0100
L21.5650 5.0100
" />
<path d="M21.9450 6.0600
L21.6650 6.0600
" />
<path d="M21.9450 6.0600
L21.9450 5.0100
" />
<path d="M21.9650 6.9000
L21.9680 6.8650
" />
<path d="M21.9680 6.8650
L21.9790 6.8310
" />
<path d="M21.9680 6.9350
L21.9650 6.9000
" />
<path d="M21.9790 6.8310
L21.9950 6.8000
" />
<path d="M21.9790 6.9690
L21.9680 6.9350
" />
<path d="M21.9950 6.8000
L22.0180 6.7730
" />
<path d="M21.9950 7.0000
L21.9790 6.9690
" />
<path d="M22.0180 6.7730
L22.0450 6.7500
" />
<path d="M22.0180 7.0270
L21.9950 7.0000
" />
<path d="M22.0450 6.7500
L22.0760 6.7340
" />
<path d="M22.0450 7.0500
L22.0180 7.0270
" />
<path d="M22.0470 3.1610
L22.0500 3.1360
" />
<path d="M22.0470 3.4630
L22.0470 3.1610
" />
<path d="M22.0470 4.1640
L22.0500 4.1380
" />
<path d="M22.0470 4.4660
L22.0470 4.1640
" />
<path d="M22.0470 5.1670
L22.0500 5.1410
" />
<path d="M22.0470 5.4690
L22.0470 5.1670
" />
<path d="M22.0500 3.1360
L22.0600 3.1110
" />
<path d="M22.0500 3.4890
L22.0470 3.4630
" />
<path d="M22.0500 4.1380
L22.0600 4.1140
" />
<path d="M22.0500 4.4920
L22.0470 4.4660
" />
<path d="M22.0500 5.1410
L22.0600 5.1170
" />
<path d="M22.0500 5.4940
L22.0470 5.4690
" />
<path d="M22.0600 3.1110
L22.0760 3.0910
" />
<path d="M22.0600 3.5130
L22.0500 3.4890
" />
<path d="M22.0600 4.1140
L22.0760 4.0940
" />
<path d="M22.0600 4.5160
L22.0500 4.4920
" />
<path d="M22.0600 5.1170
L22.0760 5.0960
" />
<path d="M22.0600 5.5190
L22.0500 5.4940
" />
<path d="M22.0760 3.0910
L22.0970 3.0750
" />
<path d="M22.0760 3.5340
L22.0600 3.5130
" />
<path d="M22.0760 4.0940
L22.0970 4.0780
" />
<path d="M22.0760 4.5360
L22.0600 4.5160
" />
<path d="M22.0760 5.0960
L22.0970 5.0810
" />
<path d="M22.0760 5.5390
L22.0600 5.5190
" />
<path d="M22.0760 6.7340
L22.1100 6.7230
" />
<path d="M22.0760 7.0660
L22.0450 7.0500
" />
<path d="M22.0970 3.0750
L22.1210 3.0650
" />
<path d="M22.0970 3.5490
L22.0760 3.5340
" />
<path d="M22.0970 4.0780
L22.1210 4.0680
" />
<path d="M22.0970 4.5520
L22.0760 4.5360
" />
<path d="M22.0970 5.0810
L22.1210 5.0710
" />
<path d="M22.0970 5.5550
L22.0760 5.5390
" />
<path d="M22.1100 6.7230
L22.1450 6.7200
" />
<path d="M22.1100 7.0770
L22.0760 7.0660
" />
<path d="M22.1210 3.0650
L22.1470 3.0610
" />
<path d="M22.1210 3.5590
L22.0970 3.5490
" />
<path d="M22.1210 4.0680
L22.1470 4.0640
" />
<path d="M22.1210 4.5620
L22.0970 4.5520
" />
<path d="M22.1210 5.0710
L22.1470 5.0670
" />
<path d="M22.1210 5.5650
L22.0970 5.5550
" />
<path d="M22.1450 6.7200
L22.1800 6.7170
" />
<path d="M22.1450 7.0800
L22.1100 7.0770
" />
<path d="M22.1470 3.0610
L22.4570 3.0610
" />
<path d="M22.1470 3.5630
L22.1210 3.5590
" />
<path d="M22.1470 4.0640
L22.4570 4.0640
" />
<path d="M22.1470 4.5660
L22.1210 4.5620
" />
<path d="M22.1470 5.0670
L22.4570 5.0670
" />
<path d="M22.1470 5.5690
L22.1210 5.5650
" />
<path d="M22.1800 6.7170
L22.2140 6.7060
" />
<path d="M22.2140 6.7060
L22.2450 6.6900
" />
<path d="M22.2450 6.6900
L22.2720 6.6670
" />
<path d="M22.2720 6.6670
L22.2950 6.6400
" />
<path d="M22.2950 6.6400
L22.3110 6.6090
" />
<path d="M22.3110 6.6090
L22.3220 6.5750
" />
<path d="M22.3220 6.5750
L22.3250 6.5400
" />
<path d="M22.3250 6.1400
L21.0310 6.1400
" />
<path d="M22.3250 6.5400
L22.3250 6.1400
" />
<path d="M22.4570 2.5600
L21.9450 2.5600
" />
<path d="M22.4570 3.0610
L22.4830 3.0580
" />
<path d="M22.4570 3.5630
L22.1470 3.5630
" />
<path d="M22.4570 4.0640
L22.4830 4.0610
" />
<path d="M22.4570 4.5660
L22.1470 4.5660
" />
<path d="M22.4570 5.0670
L22.4830 5.0640
" />
<path d="M22.4570 5.5690
L22.1470 5.5690
" />
<path d="M22.4570 6.0700
L22.4830 6.0670
" />
<path d="M22.4830 2.5630
L22.4570 2.5600
" />
<path d="M22.4830 3.0580
L22.5070 3.0480
" />
<path d="M22.4830 3.5660
L22.4570 3.5630
" />
<path d="M22.4830 4.0610
L22.5070 4.0510
" />
<path d="M22.4830 4.5690
L22.4570 4.5660
" />
<path d="M22.4830 5.0640
L22.5070 5.0540
" />
<path d="M22.4830 5.5720
L22.4570 5.5690
" />
<path d="M22.4830 6.0670
L22.5070 6.0570
" />
<path d="M22.5070 2.5730
L22.4830 2.5630
" />
<path d="M22.5070 3.0480
L22.5280 3.0320
" />
<path d="M22.5070 3.5760
L22.4830 3.5660
" />
<path d="M22.5070 4.0510
L22.5280 4.0350
" />
<path d="M22.5070 4.5790
L22.4830 4.5690
" />
<path d="M22.5070 5.0540
L22.5280 5.0380
" />
<path d="M22.5070 5.5820
L22.4830 5.5720
" />
<path d="M22.5070 6.0570
L22.5280 6.0410
" />
<path d="M22.5280 2.5890
L22.5070 2.5730
" />
<path d="M22.5280 3.0320
L22.5440 3.0110
" />
<path d="M22.5280 3.5920
L22.5070 3.5760
" />
<path d="M22.5280 4.0350
L22.5440 4.0140
" />
<path d="M22.5280 4.5950
L22.5070 4.5790
" />
<path d="M22.5280 5.0380
L22.5440 5.0170
" />
<path d="M22.5280 5.5980
L22.5070 5.5820
" />
<path d="M22.5280 6.0410
L22.5440 6.0200
" />
<path d="M22.5440 2.6100
L22.5280 2.5890
" />
<path d="M22.5440 3.0110
L22.5540 2.9870
" />
<path d="M22.5440 3.6130
L22.5280 3.5920
" />
<path d="M22.5440 4.0140
L22.5540 3.9900
" />
<path d="M22.5440 4.6160
L22.5280 4.5950
" />
<path d="M22.5440 5.0170
L22.5540 4.9930
" />
<path d="M22.5440 5.6190
L22.5280 5.5980
" />
<path d="M22.5440 6.0200
L22.5540 5.9960
" />
<path d="M22.5540 2.6340
L22.5440 2.6100
" />
<path d="M22.5540 2.9870
L22.5570 2.9610
" />
<path d="M22.5540 3.6370
L22.5440 3.6130
" />
<path d="M22.5540 3.9900
L22.5570 3.9640
" />
<path d="M22.5540 4.6400
L22.5440 4.6160
" />
<path d="M22.5540 4.9930
L22.5570 4.9670
" />
<path d="M22.5540 5.6430
L22.5440 5.6190
" />
<path d="M22.5540 5.9960
L22.5570 5.9700
" />
<path d="M22.5570 2.6600
L22.5540 2.6340
" />
<path d="M22.5570 2.9610
L22.5570 2.6600
" />
<path d="M22.5570 3.6630
L22.5540 3.6370
" />
<path d="M22.5570 3.9640
L22.5570 3.6630
" />
<path d="M22.5570 4.6660
L22.5540 4.6400
" />
<path d="M22.5570 4.9670
L22.5570 4.6660
" />
<path d="M22.5570 5.6690
L22.5540 5.6430
" />
<path d="M22.5570 5.9700
L22.5570 5.6690
" />
<path d="M23.3450 7.0800
L22.1450 7.0800
" />
<path d="M23.3450 7.9700
L23.3450 7.0800
" />
</g> 
</svg>
