<?xml version="1.0" standalone="no"?>
 <!DOCTYPE svg PUBLIC "-//W3C//DTD SVG 1.1//EN" 
 "http://www.w3.org/Graphics/SVG/1.1/DTD/svg11.dtd"> 
<svg
  xmlns:svg="http://www.w3.org/2000/svg"
  xmlns="http://www.w3.org/2000/svg"
  xmlns:xlink="http://www.w3.org/1999/xlink"
  version="1.1"
  width="7.4422mm" height="4.6482mm" viewBox="0.0000 0.0000 7.4422 4.6482">
<title>SVG Image created as outline.svg date 2025/04/04 10:06:09 </title>
  <desc>Image generated by PCBNEW </desc>
<g style="fill:#000000; fill-opacity:1.0000;stroke:#000000; stroke-opacity:1.0000;
stroke-linecap:round; stroke-linejoin:round;"
 transform="translate(0 0) scale(1 1)">
</g>
<g style="fill:none; 
stroke:#000000; stroke-width:0.0200; stroke-opacity:1; 
stroke-linecap:round; stroke-linejoin:round;">
<path d="M0.4250 0.9090
L0.4250 1.8990
" />
<path d="M0.4250 1.8990
L1.0750 1.8990
" />
<path d="M0.4250 2.7480
L0.4250 3.7380
" />
<path d="M0.4250 3.7380
L1.0750 3.7380
" />
<path d="M1.0750 0.3000
L1.2220 0.4440
" />
<path d="M1.0750 0.3000
L6.3750 0.3000
" />
<path d="M1.0750 0.9090
L0.4250 0.9090
" />
<path d="M1.0750 0.9090
L1.0750 0.3000
" />
<path d="M1.0750 1.8990
L1.0750 0.9090
" />
<path d="M1.0750 2.7480
L0.4250 2.7480
" />
<path d="M1.0750 2.7480
L1.0750 1.8990
" />
<path d="M1.0750 3.7380
L1.0750 2.7480
" />
<path d="M1.0750 4.3480
L1.0750 3.7380
" />
<path d="M1.0750 4.3480
L1.2220 4.2030
" />
<path d="M1.2220 0.4440
L1.2220 4.2030
" />
<path d="M1.2220 4.2030
L6.2300 4.2030
" />
<path d="M6.2300 0.4440
L1.2220 0.4440
" />
<path d="M6.2300 4.2030
L6.2300 0.4440
" />
<path d="M6.2300 4.2030
L6.3750 4.3480
" />
<path d="M6.3750 0.3000
L6.2300 0.4440
" />
<path d="M6.3750 0.3000
L6.3750 1.3830
" />
<path d="M6.3750 1.3830
L6.3750 3.2640
" />
<path d="M6.3750 3.2640
L6.3750 4.3480
" />
<path d="M6.3750 3.2640
L7.0270 3.2640
" />
<path d="M6.3750 4.3480
L1.0750 4.3480
" />
<path d="M6.8750 1.8240
L7.0270 1.8240
" />
<path d="M6.8750 2.8230
L6.8750 1.8240
" />
<path d="M7.0270 1.3830
L6.3750 1.3830
" />
<path d="M7.0270 1.8240
L7.0270 1.3830
" />
<path d="M7.0270 2.8230
L6.8750 2.8230
" />
<path d="M7.0270 3.2640
L7.0270 2.8230
" />
</g> 
</svg>
