<?xml version="1.0" standalone="no"?>
 <!DOCTYPE svg PUBLIC "-//W3C//DTD SVG 1.1//EN" 
 "http://www.w3.org/Graphics/SVG/1.1/DTD/svg11.dtd"> 
<svg
  xmlns:svg="http://www.w3.org/2000/svg"
  xmlns="http://www.w3.org/2000/svg"
  xmlns:xlink="http://www.w3.org/1999/xlink"
  version="1.1"
  width="2.5400mm" height="2.0320mm" viewBox="0.0000 0.0000 2.5400 2.0320">
<title>SVG Image created as outline.svg date 2025/06/16 09:18:01 </title>
  <desc>Image generated by PCBNEW </desc>
<g style="fill:#000000; fill-opacity:1.0000;stroke:#000000; stroke-opacity:1.0000;
stroke-linecap:round; stroke-linejoin:round;"
 transform="translate(0 0) scale(1 1)">
</g>
<g style="fill:none; 
stroke:#000000; stroke-width:0.0200; stroke-opacity:1; 
stroke-linecap:round; stroke-linejoin:round;">
<path d="M0.2650 0.2550
L2.2850 0.2550
" />
<path d="M0.2650 1.7950
L0.2650 0.2550
" />
<path d="M0.2650 1.7950
L2.2850 1.7950
" />
<path d="M0.3610 0.4470
L0.3650 0.4750
" />
<path d="M0.3650 0.4200
L0.3610 0.4470
" />
<path d="M0.3650 0.4750
L0.3770 0.5000
" />
<path d="M0.3770 0.3950
L0.3650 0.4200
" />
<path d="M0.3770 0.5000
L0.3940 0.5200
" />
<path d="M0.3940 0.3750
L0.3770 0.3950
" />
<path d="M0.3940 0.5200
L0.4180 0.5350
" />
<path d="M0.4180 0.3600
L0.3940 0.3750
" />
<path d="M0.4180 0.5350
L0.4440 0.5430
" />
<path d="M0.4440 0.3520
L0.4180 0.3600
" />
<path d="M0.4440 0.5430
L0.4710 0.5430
" />
<path d="M0.4710 0.3520
L0.4440 0.3520
" />
<path d="M0.4710 0.5430
L0.4970 0.5350
" />
<path d="M0.4970 0.3600
L0.4710 0.3520
" />
<path d="M0.4970 0.5350
L0.5210 0.5200
" />
<path d="M0.5210 0.3750
L0.4970 0.3600
" />
<path d="M0.5210 0.5200
L0.5380 0.5000
" />
<path d="M0.5380 0.3950
L0.5210 0.3750
" />
<path d="M0.5380 0.5000
L0.5500 0.4750
" />
<path d="M0.5500 0.4200
L0.5380 0.3950
" />
<path d="M0.5500 0.4750
L0.5540 0.4470
" />
<path d="M0.5540 0.4470
L0.5500 0.4200
" />
<path d="M2.2850 1.7950
L2.2850 0.2550
" />
</g> 
</svg>
