{
  "accessors": [
    {
      "bufferView": 0,
      "byteOffset": 0,
      "componentType": 5126,
      "normalized": false,
      "count": 414,
      "type": "VEC3",
      "max": [
        0.99993896484375,
        0.8499663472175598,
        1.25
      ],
      "min": [
        -1.0,
        -4.371138828673793e-08,
        -1.25
      ]
    },
    {
      "bufferView": 0,
      "byteOffset": 12,
      "componentType": 5126,
      "normalized": false,
      "count": 414,
      "type": "VEC3"
    },
    {
      "bufferView": 0,
      "byteOffset": 24,
      "componentType": 5126,
      "normalized": false,
      "count": 414,
      "type": "VEC2"
    },
    {
      "bufferView": 0,
      "byteOffset": 32,
      "componentType": 5126,
      "normalized": false,
      "count": 414,
      "type": "VEC2"
    },
    {
      "bufferView": 1,
      "byteOffset": 0,
      "componentType": 5123,
      "normalized": false,
      "count": 1221,
      "type": "SCALAR"
    },
    {
      "bufferView": 1,
      "byteOffset": 2444,
      "componentType": 5123,
      "normalized": false,
      "count": 495,
      "type": "SCALAR"
    },
    {
      "bufferView": 1,
      "byteOffset": 3436,
      "componentType": 5123,
      "normalized": false,
      "count": 912,
      "type": "SCALAR"
    },
    {
      "bufferView": 2,
      "byteOffset": 0,
      "componentType": 5126,
      "normalized": false,
      "count": 145,
      "type": "VEC3",
      "max": [
        0.8999327421188354,
        0.9001189470291138,
        1.149999976158142
      ],
      "min": [
        -0.9000000953674316,
        0.8499999046325684,
        -1.149999976158142
      ]
    },
    {
      "bufferView": 2,
      "byteOffset": 12,
      "componentType": 5126,
      "normalized": false,
      "count": 145,
      "type": "VEC3"
    },
    {
      "bufferView": 2,
      "byteOffset": 24,
      "componentType": 5126,
      "normalized": false,
      "count": 145,
      "type": "VEC2"
    },
    {
      "bufferView": 2,
      "byteOffset": 32,
      "componentType": 5126,
      "normalized": false,
      "count": 145,
      "type": "VEC2"
    },
    {
      "bufferView": 3,
      "byteOffset": 0,
      "componentType": 5126,
      "normalized": false,
      "count": 380,
      "type": "VEC3",
      "max": [
        0.99993896484375,
        0.6999633312225342,
        1.25
      ],
      "min": [
        -1.0,
        -4.371138828673793e-08,
        -1.25
      ]
    },
    {
      "bufferView": 3,
      "byteOffset": 12,
      "componentType": 5126,
      "normalized": false,
      "count": 380,
      "type": "VEC3"
    },
    {
      "bufferView": 3,
      "byteOffset": 24,
      "componentType": 5126,
      "normalized": false,
      "count": 380,
      "type": "VEC2"
    },
    {
      "bufferView": 3,
      "byteOffset": 32,
      "componentType": 5126,
      "normalized": false,
      "count": 380,
      "type": "VEC2"
    }
  ],
  "asset": {
    "generator": "pygltflib@v1.16.5",
    "version": "2.0"
  },
  "bufferViews": [
    {
      "buffer": 0,
      "byteOffset": 0,
      "byteLength": 16560,
      "byteStride": 40,
      "target": 34962
    },
    {
      "buffer": 0,
      "byteOffset": 16560,
      "byteLength": 5260,
      "target": 34963
    },
    {
      "buffer": 0,
      "byteOffset": 21820,
      "byteLength": 5800,
      "byteStride": 40,
      "target": 34962
    },
    {
      "buffer": 0,
      "byteOffset": 27620,
      "byteLength": 15200,
      "byteStride": 40,
      "target": 34962
    }
  ],
  "buffers": [
    {
      "uri": "Oscillator_SMD_ECS_2520MV_2.5x2mm.bin",
      "byteLength": 42820
    }
  ],
  "extensionsUsed": [
    "KHR_materials_anisotropy",
    "KHR_materials_clearcoat",
    "KHR_materials_ior",
    "KHR_materials_specular"
  ],
  "materials": [
    {
      "extensions": {
        "KHR_materials_ior": {
          "ior": 1.4500000476837158
        },
        "KHR_materials_specular": {
          "specularFactor": 0
        }
      },
      "pbrMetallicRoughness": {
        "baseColorFactor": [
          0.65955650806427,
          0.5159208178520203,
          0.2824440598487854,
          1.0
        ],
        "metallicFactor": 0.8136364221572876,
        "roughnessFactor": 0.28863638639450073
      },
      "emissiveFactor": [
        0.0,
        0.0,
        0.0
      ],
      "alphaMode": "OPAQUE",
      "doubleSided": true,
      "name": "gltf_metal_pins_gold"
    },
    {
      "extensions": {
        "KHR_materials_anisotropy": {
          "anisotropyStrength": 0.01590868830680847,
          "anisotropyRotation": 0.7568381637931133
        },
        "KHR_materials_clearcoat": {
          "clearcoatFactor": 0,
          "clearcoatRoughnessFactor": 0
        },
        "KHR_materials_ior": {
          "ior": 1.4500000476837158
        },
        "KHR_materials_specular": {
          "specularColorFactor": [
            1.5681818723678589,
            1.5681818723678589,
            1.5681818723678589
          ]
        }
      },
      "pbrMetallicRoughness": {
        "baseColorFactor": [
          0.8387941122055054,
          0.8387941122055054,
          0.8387941122055054,
          1.0
        ],
        "metallicFactor": 0.6954545974731445,
        "roughnessFactor": 0.2840908467769623
      },
      "emissiveFactor": [
        0.0,
        0.0,
        0.0
      ],
      "alphaMode": "OPAQUE",
      "doubleSided": true,
      "name": "gltf_aluminum_lathed"
    },
    {
      "pbrMetallicRoughness": {
        "baseColorFactor": [
          0.009133999235928059,
          0.009134066291153431,
          0.009134061634540558,
          1.0
        ],
        "metallicFactor": 0.13699999451637268,
        "roughnessFactor": 0.37063413858413696
      },
      "emissiveFactor": [
        0.0,
        0.0,
        0.0
      ],
      "alphaMode": "OPAQUE",
      "doubleSided": true,
      "name": "gltf_plastic_chip"
    }
  ],
  "meshes": [
    {
      "primitives": [
        {
          "attributes": {
            "POSITION": 0,
            "NORMAL": 1,
            "TEXCOORD_0": 2,
            "TEXCOORD_1": 3
          },
          "indices": 4,
          "mode": 4,
          "material": 0
        },
        {
          "attributes": {
            "POSITION": 7,
            "NORMAL": 8,
            "TEXCOORD_0": 9,
            "TEXCOORD_1": 10
          },
          "indices": 5,
          "mode": 4,
          "material": 1
        },
        {
          "attributes": {
            "POSITION": 11,
            "NORMAL": 12,
            "TEXCOORD_0": 13,
            "TEXCOORD_1": 14
          },
          "indices": 6,
          "mode": 4,
          "material": 2
        }
      ],
      "name": "SHAPE_9_IndexedFaceSet.004"
    }
  ],
  "nodes": [
    {
      "extras": {
        "REF": "Y",
        "PRIO": 0,
        "model_diagonal": 3.325657871602213
      },
      "mesh": 0,
      "name": "Oscillator_SMD_ECS_2520MV_2.5x2mm"
    }
  ],
  "scene": 0,
  "scenes": [
    {
      "extras": {
        "sketcher": {
          "version": [
            0,
            24,
            0
          ]
        }
      },
      "name": "Scene",
      "nodes": [
        0
      ]
    }
  ]
}