<?xml version="1.0" standalone="no"?>
 <!DOCTYPE svg PUBLIC "-//W3C//DTD SVG 1.1//EN" 
 "http://www.w3.org/Graphics/SVG/1.1/DTD/svg11.dtd"> 
<svg
  xmlns:svg="http://www.w3.org/2000/svg"
  xmlns="http://www.w3.org/2000/svg"
  xmlns:xlink="http://www.w3.org/1999/xlink"
  version="1.1"
  width="2.5400mm" height="2.5400mm" viewBox="0.0000 0.0000 2.5400 2.5400">
<title>SVG Image created as outline.svg date 2025/04/04 10:06:30 </title>
  <desc>Image generated by PCBNEW </desc>
<g style="fill:#000000; fill-opacity:1.0000;stroke:#000000; stroke-opacity:1.0000;
stroke-linecap:round; stroke-linejoin:round;"
 transform="translate(0 0) scale(1 1)">
</g>
<g style="fill:none; 
stroke:#000000; stroke-width:0.0200; stroke-opacity:1; 
stroke-linecap:round; stroke-linejoin:round;">
<path d="M0.3250 0.9750
L0.3750 0.9750
" />
<path d="M0.3250 1.1750
L0.3250 0.9750
" />
<path d="M0.3250 1.1750
L0.3750 1.1750
" />
<path d="M0.3250 1.3750
L0.3750 1.3750
" />
<path d="M0.3250 1.5750
L0.3250 1.3750
" />
<path d="M0.3250 1.5750
L0.3750 1.5750
" />
<path d="M0.3750 0.3750
L2.1750 0.3750
" />
<path d="M0.3750 2.1750
L0.3750 0.3750
" />
<path d="M0.3750 2.1750
L2.1750 2.1750
" />
<path d="M0.4870 0.6000
L0.4910 0.6290
" />
<path d="M0.4910 0.5710
L0.4870 0.6000
" />
<path d="M0.4910 0.6290
L0.5030 0.6560
" />
<path d="M0.5030 0.5440
L0.4910 0.5710
" />
<path d="M0.5030 0.6560
L0.5200 0.6800
" />
<path d="M0.5200 0.5200
L0.5030 0.5440
" />
<path d="M0.5200 0.6800
L0.5440 0.6970
" />
<path d="M0.5440 0.5030
L0.5200 0.5200
" />
<path d="M0.5440 0.6970
L0.5710 0.7090
" />
<path d="M0.5710 0.4910
L0.5440 0.5030
" />
<path d="M0.5710 0.7090
L0.6000 0.7130
" />
<path d="M0.5750 0.3250
L0.7750 0.3250
" />
<path d="M0.5750 0.3750
L0.5750 0.3250
" />
<path d="M0.5750 2.2250
L0.5750 2.1750
" />
<path d="M0.5750 2.2250
L0.7750 2.2250
" />
<path d="M0.6000 0.4870
L0.5710 0.4910
" />
<path d="M0.6000 0.7130
L0.6290 0.7090
" />
<path d="M0.6290 0.4910
L0.6000 0.4870
" />
<path d="M0.6290 0.7090
L0.6560 0.6970
" />
<path d="M0.6560 0.5030
L0.6290 0.4910
" />
<path d="M0.6560 0.6970
L0.6800 0.6800
" />
<path d="M0.6800 0.5200
L0.6560 0.5030
" />
<path d="M0.6800 0.6800
L0.6970 0.6560
" />
<path d="M0.6970 0.5440
L0.6800 0.5200
" />
<path d="M0.6970 0.6560
L0.7090 0.6290
" />
<path d="M0.7090 0.5710
L0.6970 0.5440
" />
<path d="M0.7090 0.6290
L0.7130 0.6000
" />
<path d="M0.7130 0.6000
L0.7090 0.5710
" />
<path d="M0.7750 0.3750
L0.7750 0.3250
" />
<path d="M0.7750 2.2250
L0.7750 2.1750
" />
<path d="M0.9750 0.3250
L1.1750 0.3250
" />
<path d="M0.9750 0.3750
L0.9750 0.3250
" />
<path d="M0.9750 2.2250
L0.9750 2.1750
" />
<path d="M0.9750 2.2250
L1.1750 2.2250
" />
<path d="M1.1750 0.3750
L1.1750 0.3250
" />
<path d="M1.1750 2.2250
L1.1750 2.1750
" />
<path d="M1.3750 0.3250
L1.5750 0.3250
" />
<path d="M1.3750 0.3750
L1.3750 0.3250
" />
<path d="M1.3750 2.2250
L1.3750 2.1750
" />
<path d="M1.3750 2.2250
L1.5750 2.2250
" />
<path d="M1.5750 0.3750
L1.5750 0.3250
" />
<path d="M1.5750 2.2250
L1.5750 2.1750
" />
<path d="M1.7750 0.3250
L1.9750 0.3250
" />
<path d="M1.7750 0.3750
L1.7750 0.3250
" />
<path d="M1.7750 2.2250
L1.7750 2.1750
" />
<path d="M1.7750 2.2250
L1.9750 2.2250
" />
<path d="M1.9750 0.3750
L1.9750 0.3250
" />
<path d="M1.9750 2.2250
L1.9750 2.1750
" />
<path d="M2.1750 0.9750
L2.2250 0.9750
" />
<path d="M2.1750 1.1750
L2.2250 1.1750
" />
<path d="M2.1750 1.3750
L2.2250 1.3750
" />
<path d="M2.1750 1.5750
L2.2250 1.5750
" />
<path d="M2.1750 2.1750
L2.1750 0.3750
" />
<path d="M2.2250 1.1750
L2.2250 0.9750
" />
<path d="M2.2250 1.5750
L2.2250 1.3750
" />
</g> 
</svg>
