<?xml version="1.0" standalone="no"?>
 <!DOCTYPE svg PUBLIC "-//W3C//DTD SVG 1.1//EN" 
 "http://www.w3.org/Graphics/SVG/1.1/DTD/svg11.dtd"> 
<svg
  xmlns:svg="http://www.w3.org/2000/svg"
  xmlns="http://www.w3.org/2000/svg"
  xmlns:xlink="http://www.w3.org/1999/xlink"
  xmlns:inkscape="http://www.inkscape.org/namespaces/inkscape"
  version="1.1"
  width="2.438400mm" height="2.260600mm" viewBox="0.000000 0.000000 2.438400 2.260600">
<title>SVG Image created as outline.svg date 2026-07-09T08:34:42 </title>
  <desc>Image generated by PCBNEW </desc>
<g style="fill:#000000; fill-opacity:1.000000;stroke:#000000; stroke-opacity:1.000000;
stroke-linecap:round; stroke-linejoin:round;"
 transform="translate(0 0) scale(1 1)">
</g>
<g style="fill:none; 
stroke:#000000; stroke-width:0.020000; stroke-opacity:1; 
stroke-linecap:round; stroke-linejoin:round;">
<path d="M0.376000 0.526000
L0.376000 0.766000
" />
<path d="M0.376000 0.766000
L0.476000 0.766000
" />
<path d="M0.376000 1.025000
L0.376000 1.264000
" />
<path d="M0.376000 1.264000
L0.476000 1.264000
" />
<path d="M0.376000 1.522000
L0.376000 1.762000
" />
<path d="M0.376000 1.762000
L0.476000 1.762000
" />
<path d="M0.476000 0.526000
L0.376000 0.526000
" />
<path d="M0.476000 0.766000
L0.478000 0.766000
" />
<path d="M0.476000 1.025000
L0.376000 1.025000
" />
<path d="M0.476000 1.264000
L0.478000 1.264000
" />
<path d="M0.476000 1.522000
L0.376000 1.522000
" />
<path d="M0.476000 1.762000
L0.478000 1.763000
" />
<path d="M0.478000 0.525000
L0.476000 0.526000
" />
<path d="M0.478000 0.766000
L0.480000 0.766000
" />
<path d="M0.478000 1.025000
L0.476000 1.025000
" />
<path d="M0.478000 1.264000
L0.480000 1.264000
" />
<path d="M0.478000 1.522000
L0.476000 1.522000
" />
<path d="M0.478000 1.763000
L0.480000 1.763000
" />
<path d="M0.480000 0.525000
L0.478000 0.525000
" />
<path d="M0.480000 0.766000
L0.483000 0.766000
" />
<path d="M0.480000 1.025000
L0.478000 1.025000
" />
<path d="M0.480000 1.264000
L0.483000 1.264000
" />
<path d="M0.480000 1.522000
L0.478000 1.522000
" />
<path d="M0.480000 1.763000
L0.483000 1.763000
" />
<path d="M0.483000 0.525000
L0.480000 0.525000
" />
<path d="M0.483000 0.766000
L0.485000 0.766000
" />
<path d="M0.483000 1.025000
L0.480000 1.025000
" />
<path d="M0.483000 1.264000
L0.485000 1.264000
" />
<path d="M0.483000 1.522000
L0.480000 1.522000
" />
<path d="M0.483000 1.763000
L0.485000 1.763000
" />
<path d="M0.485000 0.525000
L0.483000 0.525000
" />
<path d="M0.485000 0.766000
L0.487000 0.767000
" />
<path d="M0.485000 1.025000
L0.483000 1.025000
" />
<path d="M0.485000 1.264000
L0.487000 1.264000
" />
<path d="M0.485000 1.522000
L0.483000 1.522000
" />
<path d="M0.485000 1.763000
L0.487000 1.764000
" />
<path d="M0.487000 0.524000
L0.485000 0.525000
" />
<path d="M0.487000 0.767000
L0.490000 0.768000
" />
<path d="M0.487000 1.024000
L0.485000 1.025000
" />
<path d="M0.487000 1.264000
L0.490000 1.265000
" />
<path d="M0.487000 1.521000
L0.485000 1.522000
" />
<path d="M0.487000 1.764000
L0.490000 1.765000
" />
<path d="M0.490000 0.523000
L0.487000 0.524000
" />
<path d="M0.490000 0.768000
L0.492000 0.769000
" />
<path d="M0.490000 1.023000
L0.487000 1.024000
" />
<path d="M0.490000 1.265000
L0.492000 1.266000
" />
<path d="M0.490000 1.520000
L0.487000 1.521000
" />
<path d="M0.490000 1.765000
L0.492000 1.766000
" />
<path d="M0.492000 0.522000
L0.490000 0.523000
" />
<path d="M0.492000 0.769000
L0.494000 0.769000
" />
<path d="M0.492000 1.022000
L0.490000 1.023000
" />
<path d="M0.492000 1.266000
L0.494000 1.266000
" />
<path d="M0.492000 1.519000
L0.490000 1.520000
" />
<path d="M0.492000 1.766000
L0.494000 1.766000
" />
<path d="M0.494000 0.522000
L0.492000 0.522000
" />
<path d="M0.494000 0.769000
L0.496000 0.770000
" />
<path d="M0.494000 1.022000
L0.492000 1.022000
" />
<path d="M0.494000 1.266000
L0.496000 1.267000
" />
<path d="M0.494000 1.519000
L0.492000 1.519000
" />
<path d="M0.494000 1.766000
L0.496000 1.767000
" />
<path d="M0.496000 0.521000
L0.494000 0.522000
" />
<path d="M0.496000 0.770000
L0.498000 0.772000
" />
<path d="M0.496000 1.021000
L0.494000 1.022000
" />
<path d="M0.496000 1.267000
L0.498000 1.269000
" />
<path d="M0.496000 1.518000
L0.494000 1.519000
" />
<path d="M0.496000 1.767000
L0.498000 1.769000
" />
<path d="M0.498000 0.519000
L0.496000 0.521000
" />
<path d="M0.498000 0.772000
L0.500000 0.773000
" />
<path d="M0.498000 1.019000
L0.496000 1.021000
" />
<path d="M0.498000 1.269000
L0.500000 1.270000
" />
<path d="M0.498000 1.516000
L0.496000 1.518000
" />
<path d="M0.498000 1.769000
L0.500000 1.770000
" />
<path d="M0.500000 0.518000
L0.498000 0.519000
" />
<path d="M0.500000 0.773000
L0.502000 0.774000
" />
<path d="M0.500000 1.018000
L0.498000 1.019000
" />
<path d="M0.500000 1.270000
L0.502000 1.274000
" />
<path d="M0.500000 1.515000
L0.498000 1.516000
" />
<path d="M0.500000 1.770000
L0.502000 1.771000
" />
<path d="M0.502000 0.517000
L0.500000 0.518000
" />
<path d="M0.502000 0.774000
L0.504000 0.776000
" />
<path d="M0.502000 1.014000
L0.500000 1.018000
" />
<path d="M0.502000 1.274000
L0.504000 1.276000
" />
<path d="M0.502000 1.514000
L0.500000 1.515000
" />
<path d="M0.502000 1.771000
L0.504000 1.773000
" />
<path d="M0.504000 0.515000
L0.502000 0.517000
" />
<path d="M0.504000 0.776000
L0.506000 0.777000
" />
<path d="M0.504000 1.012000
L0.502000 1.014000
" />
<path d="M0.504000 1.276000
L0.506000 1.277000
" />
<path d="M0.504000 1.512000
L0.502000 1.514000
" />
<path d="M0.504000 1.773000
L0.506000 1.774000
" />
<path d="M0.506000 0.514000
L0.504000 0.515000
" />
<path d="M0.506000 0.777000
L0.508000 0.779000
" />
<path d="M0.506000 1.011000
L0.504000 1.012000
" />
<path d="M0.506000 1.277000
L0.508000 1.279000
" />
<path d="M0.506000 1.511000
L0.504000 1.512000
" />
<path d="M0.506000 1.774000
L0.508000 1.776000
" />
<path d="M0.508000 0.512000
L0.506000 0.514000
" />
<path d="M0.508000 0.779000
L0.509000 0.780000
" />
<path d="M0.508000 1.009000
L0.506000 1.011000
" />
<path d="M0.508000 1.279000
L0.509000 1.280000
" />
<path d="M0.508000 1.509000
L0.506000 1.511000
" />
<path d="M0.508000 1.776000
L0.509000 1.777000
" />
<path d="M0.509000 0.511000
L0.508000 0.512000
" />
</g>
<g style="fill:#000000; fill-opacity:1.000000; stroke:none;">
<circle cx="0.509000" cy="0.511000" r="0.010000" /> 
<circle cx="0.509000" cy="0.780000" r="0.010000" /> 
</g>
<g style="fill:none; 
stroke:#000000; stroke-width:0.020000; stroke-opacity:1; 
stroke-linecap:round; stroke-linejoin:round;">
<path d="M0.509000 0.780000
L0.511000 0.782000
" />
<path d="M0.509000 1.008000
L0.508000 1.009000
" />
</g>
<g style="fill:#000000; fill-opacity:1.000000; stroke:none;">
<circle cx="0.509000" cy="1.008000" r="0.010000" /> 
<circle cx="0.509000" cy="1.280000" r="0.010000" /> 
</g>
<g style="fill:none; 
stroke:#000000; stroke-width:0.020000; stroke-opacity:1; 
stroke-linecap:round; stroke-linejoin:round;">
<path d="M0.509000 1.280000
L0.511000 1.282000
" />
<path d="M0.509000 1.508000
L0.508000 1.509000
" />
</g>
<g style="fill:#000000; fill-opacity:1.000000; stroke:none;">
<circle cx="0.509000" cy="1.508000" r="0.010000" /> 
<circle cx="0.509000" cy="1.777000" r="0.010000" /> 
</g>
<g style="fill:none; 
stroke:#000000; stroke-width:0.020000; stroke-opacity:1; 
stroke-linecap:round; stroke-linejoin:round;">
<path d="M0.509000 1.777000
L0.511000 1.779000
" />
<path d="M0.511000 0.509000
L0.509000 0.511000
" />
<path d="M0.511000 0.782000
L0.512000 0.784000
" />
<path d="M0.511000 1.006000
L0.509000 1.008000
" />
<path d="M0.511000 1.282000
L0.512000 1.284000
" />
<path d="M0.511000 1.506000
L0.509000 1.508000
" />
<path d="M0.511000 1.779000
L0.512000 1.781000
" />
<path d="M0.512000 0.507000
L0.511000 0.509000
" />
<path d="M0.512000 0.784000
L0.514000 0.786000
" />
<path d="M0.512000 1.004000
L0.511000 1.006000
" />
<path d="M0.512000 1.284000
L0.514000 1.286000
" />
<path d="M0.512000 1.504000
L0.511000 1.506000
" />
<path d="M0.512000 1.781000
L0.514000 1.786000
" />
<path d="M0.514000 0.502000
L0.512000 0.507000
" />
<path d="M0.514000 0.786000
L0.515000 0.788000
" />
<path d="M0.514000 1.003000
L0.512000 1.004000
" />
<path d="M0.514000 1.286000
L0.515000 1.287000
" />
<path d="M0.514000 1.502000
L0.512000 1.504000
" />
<path d="M0.514000 1.786000
L0.515000 1.788000
" />
<path d="M0.515000 0.500000
L0.514000 0.502000
" />
<path d="M0.515000 0.788000
L0.516000 0.790000
" />
<path d="M0.515000 1.001000
L0.514000 1.003000
" />
<path d="M0.515000 1.287000
L0.516000 1.289000
" />
<path d="M0.515000 1.500000
L0.514000 1.502000
" />
<path d="M0.515000 1.788000
L0.516000 1.790000
" />
<path d="M0.516000 0.498000
L0.515000 0.500000
" />
<path d="M0.516000 0.790000
L0.517000 0.792000
" />
<path d="M0.516000 1.000000
L0.515000 1.001000
" />
<path d="M0.516000 1.289000
L0.517000 1.289000
" />
<path d="M0.516000 1.498000
L0.515000 1.500000
" />
<path d="M0.516000 1.790000
L0.517000 1.792000
" />
<path d="M0.517000 0.496000
L0.516000 0.498000
" />
<path d="M0.517000 0.792000
L0.518000 0.793000
" />
<path d="M0.517000 0.999000
L0.516000 1.000000
" />
<path d="M0.517000 1.289000
L0.518000 1.292000
" />
<path d="M0.517000 1.496000
L0.516000 1.498000
" />
<path d="M0.517000 1.792000
L0.518000 1.795000
" />
<path d="M0.518000 0.493000
L0.517000 0.496000
" />
<path d="M0.518000 0.793000
L0.519000 0.795000
" />
<path d="M0.518000 0.996000
L0.517000 0.999000
" />
<path d="M0.518000 1.292000
L0.519000 1.294000
" />
<path d="M0.518000 1.495000
L0.517000 1.496000
" />
<path d="M0.518000 1.795000
L0.519000 1.797000
" />
<path d="M0.519000 0.491000
L0.518000 0.493000
" />
<path d="M0.519000 0.795000
L0.520000 0.797000
" />
<path d="M0.519000 0.994000
L0.518000 0.996000
" />
<path d="M0.519000 1.294000
L0.520000 1.296000
" />
<path d="M0.519000 1.493000
L0.518000 1.495000
" />
<path d="M0.519000 1.797000
L0.520000 1.799000
" />
<path d="M0.520000 0.487000
L0.520000 0.489000
" />
<path d="M0.520000 0.489000
L0.519000 0.491000
" />
<path d="M0.520000 0.797000
L0.520000 0.799000
" />
<path d="M0.520000 0.799000
L0.521000 0.801000
" />
<path d="M0.520000 0.990000
L0.520000 0.992000
" />
<path d="M0.520000 0.992000
L0.519000 0.994000
" />
<path d="M0.520000 1.296000
L0.520000 1.298000
" />
<path d="M0.520000 1.298000
L0.521000 1.301000
" />
<path d="M0.520000 1.489000
L0.520000 1.491000
" />
<path d="M0.520000 1.491000
L0.519000 1.493000
" />
<path d="M0.520000 1.799000
L0.520000 1.801000
" />
<path d="M0.520000 1.801000
L0.521000 1.804000
" />
<path d="M0.521000 0.472000
L0.521000 0.475000
" />
<path d="M0.521000 0.475000
L0.521000 0.477000
" />
<path d="M0.521000 0.477000
L0.521000 0.480000
" />
<path d="M0.521000 0.480000
L0.521000 0.482000
" />
<path d="M0.521000 0.482000
L0.521000 0.484000
" />
<path d="M0.521000 0.484000
L0.520000 0.487000
" />
<path d="M0.521000 0.801000
L0.521000 0.803000
" />
<path d="M0.521000 0.803000
L0.521000 0.805000
" />
<path d="M0.521000 0.805000
L0.521000 0.808000
" />
<path d="M0.521000 0.808000
L0.521000 0.810000
" />
<path d="M0.521000 0.810000
L0.521000 0.812000
" />
<path d="M0.521000 0.812000
L0.572000 0.812000
" />
<path d="M0.521000 0.973000
L0.521000 0.975000
" />
<path d="M0.521000 0.975000
L0.521000 0.977000
" />
<path d="M0.521000 0.977000
L0.521000 0.980000
" />
<path d="M0.521000 0.980000
L0.521000 0.982000
" />
<path d="M0.521000 0.982000
L0.521000 0.987000
" />
<path d="M0.521000 0.987000
L0.520000 0.990000
" />
<path d="M0.521000 1.301000
L0.521000 1.306000
" />
<path d="M0.521000 1.306000
L0.521000 1.308000
" />
<path d="M0.521000 1.308000
L0.521000 1.311000
" />
<path d="M0.521000 1.311000
L0.521000 1.313000
" />
<path d="M0.521000 1.313000
L0.521000 1.316000
" />
<path d="M0.521000 1.316000
L0.572000 1.316000
" />
<path d="M0.521000 1.476000
L0.521000 1.478000
" />
<path d="M0.521000 1.478000
L0.521000 1.480000
" />
<path d="M0.521000 1.480000
L0.521000 1.483000
" />
<path d="M0.521000 1.483000
L0.521000 1.485000
" />
<path d="M0.521000 1.485000
L0.521000 1.487000
" />
<path d="M0.521000 1.487000
L0.520000 1.489000
" />
<path d="M0.521000 1.804000
L0.521000 1.806000
" />
<path d="M0.521000 1.806000
L0.521000 1.808000
" />
<path d="M0.521000 1.808000
L0.521000 1.811000
" />
<path d="M0.521000 1.811000
L0.521000 1.813000
" />
<path d="M0.521000 1.813000
L0.521000 1.816000
" />
<path d="M0.521000 1.816000
L0.572000 1.816000
" />
</g>
<g style="fill:#000000; fill-opacity:1.000000; stroke:none;">
<circle cx="0.572000" cy="0.312000" r="0.010000" /> 
</g>
<g style="fill:none; 
stroke:#000000; stroke-width:0.020000; stroke-opacity:1; 
stroke-linecap:round; stroke-linejoin:round;">
<path d="M0.572000 0.312000
L0.572000 0.313000
" />
<path d="M0.572000 0.313000
L0.572000 1.975000
" />
<path d="M0.572000 0.472000
L0.521000 0.472000
" />
<path d="M0.572000 0.973000
L0.521000 0.973000
" />
<path d="M0.572000 1.476000
L0.521000 1.476000
" />
<path d="M0.572000 1.976000
L0.572000 1.975000
" />
<path d="M0.572000 1.977000
L0.572000 1.976000
" />
<path d="M0.573000 0.309000
L0.573000 0.310000
" />
<path d="M0.573000 0.310000
L0.573000 0.311000
" />
<path d="M0.573000 0.311000
L0.573000 0.312000
" />
<path d="M0.573000 0.312000
L0.572000 0.312000
" />
</g>
<g style="fill:#000000; fill-opacity:1.000000; stroke:none;">
<circle cx="0.573000" cy="0.312000" r="0.010000" /> 
</g>
<g style="fill:none; 
stroke:#000000; stroke-width:0.020000; stroke-opacity:1; 
stroke-linecap:round; stroke-linejoin:round;">
<path d="M0.573000 1.977000
L0.572000 1.977000
" />
</g>
<g style="fill:#000000; fill-opacity:1.000000; stroke:none;">
<circle cx="0.573000" cy="1.977000" r="0.010000" /> 
<circle cx="0.573000" cy="1.977000" r="0.010000" /> 
</g>
<g style="fill:none; 
stroke:#000000; stroke-width:0.020000; stroke-opacity:1; 
stroke-linecap:round; stroke-linejoin:round;">
<path d="M0.573000 1.978000
L0.573000 1.977000
" />
<path d="M0.573000 1.979000
L0.573000 1.978000
" />
<path d="M0.574000 0.307000
L0.574000 0.308000
" />
<path d="M0.574000 0.308000
L0.573000 0.309000
" />
<path d="M0.574000 1.980000
L0.573000 1.979000
" />
<path d="M0.574000 1.981000
L0.574000 1.980000
" />
<path d="M0.575000 0.305000
L0.575000 0.306000
" />
<path d="M0.575000 0.306000
L0.574000 0.307000
" />
<path d="M0.575000 1.982000
L0.574000 1.981000
" />
<path d="M0.575000 1.983000
L0.575000 1.982000
" />
<path d="M0.576000 0.304000
L0.575000 0.305000
" />
</g>
<g style="fill:#000000; fill-opacity:1.000000; stroke:none;">
<circle cx="0.576000" cy="0.304000" r="0.010000" /> 
</g>
<g style="fill:none; 
stroke:#000000; stroke-width:0.020000; stroke-opacity:1; 
stroke-linecap:round; stroke-linejoin:round;">
<path d="M0.576000 1.984000
L0.575000 1.983000
" />
</g>
<g style="fill:#000000; fill-opacity:1.000000; stroke:none;">
<circle cx="0.576000" cy="1.984000" r="0.010000" /> 
</g>
<g style="fill:none; 
stroke:#000000; stroke-width:0.020000; stroke-opacity:1; 
stroke-linecap:round; stroke-linejoin:round;">
<path d="M0.577000 0.303000
L0.576000 0.304000
" />
<path d="M0.577000 1.985000
L0.576000 1.984000
" />
<path d="M0.578000 0.301000
L0.578000 0.302000
" />
<path d="M0.578000 0.302000
L0.577000 0.303000
" />
<path d="M0.578000 1.986000
L0.577000 1.985000
" />
<path d="M0.578000 1.987000
L0.578000 1.986000
" />
<path d="M0.579000 0.301000
L0.578000 0.301000
" />
<path d="M0.579000 1.987000
L0.578000 1.987000
" />
<path d="M0.580000 0.300000
L0.579000 0.301000
" />
<path d="M0.580000 1.988000
L0.579000 1.987000
" />
<path d="M0.581000 0.299000
L0.580000 0.300000
" />
</g>
<g style="fill:#000000; fill-opacity:1.000000; stroke:none;">
<circle cx="0.581000" cy="0.299000" r="0.010000" /> 
</g>
<g style="fill:none; 
stroke:#000000; stroke-width:0.020000; stroke-opacity:1; 
stroke-linecap:round; stroke-linejoin:round;">
<path d="M0.581000 1.989000
L0.580000 1.988000
" />
</g>
<g style="fill:#000000; fill-opacity:1.000000; stroke:none;">
<circle cx="0.581000" cy="1.989000" r="0.010000" /> 
</g>
<g style="fill:none; 
stroke:#000000; stroke-width:0.020000; stroke-opacity:1; 
stroke-linecap:round; stroke-linejoin:round;">
<path d="M0.582000 0.298000
L0.581000 0.299000
" />
<path d="M0.582000 1.990000
L0.581000 1.989000
" />
<path d="M0.586000 0.298000
L0.582000 0.298000
" />
<path d="M0.586000 1.990000
L0.582000 1.990000
" />
<path d="M0.587000 0.297000
L0.586000 0.298000
" />
<path d="M0.587000 1.991000
L0.586000 1.990000
" />
<path d="M0.588000 0.297000
L0.587000 0.297000
" />
<path d="M0.588000 1.991000
L0.587000 1.991000
" />
<path d="M0.589000 0.296000
L0.588000 0.297000
" />
<path d="M0.589000 1.992000
L0.588000 1.991000
" />
<path d="M0.590000 0.296000
L0.589000 0.296000
" />
<path d="M0.590000 1.992000
L0.589000 1.992000
" />
<path d="M0.591000 0.296000
L0.590000 0.296000
" />
<path d="M0.591000 1.992000
L0.590000 1.992000
" />
<path d="M0.592000 0.296000
L0.591000 0.296000
" />
<path d="M0.592000 1.992000
L0.591000 1.992000
" />
<path d="M0.593000 0.295000
L0.593000 0.296000
" />
<path d="M0.593000 0.296000
L0.592000 0.296000
" />
<path d="M0.593000 1.992000
L0.592000 1.992000
" />
<path d="M0.593000 1.993000
L0.593000 1.992000
" />
<path d="M0.594000 0.295000
L0.593000 0.295000
" />
<path d="M0.594000 1.993000
L0.593000 1.993000
" />
<path d="M0.595000 0.296000
L0.594000 0.295000
" />
<path d="M0.595000 1.992000
L0.594000 1.993000
" />
<path d="M0.595000 1.992000
L1.853000 1.992000
" />
<path d="M0.625000 0.358000
L0.625000 0.359000
" />
<path d="M0.625000 0.359000
L0.625000 0.360000
" />
<path d="M0.625000 0.360000
L0.625000 0.361000
" />
<path d="M0.625000 0.361000
L0.625000 0.362000
" />
<path d="M0.625000 0.362000
L0.625000 0.363000
" />
<path d="M0.625000 0.363000
L0.625000 0.364000
" />
<path d="M0.625000 0.364000
L0.625000 0.365000
" />
<path d="M0.625000 0.365000
L0.625000 0.366000
" />
<path d="M0.625000 0.366000
L0.625000 0.367000
" />
<path d="M0.625000 0.367000
L0.626000 0.368000
" />
<path d="M0.625000 1.921000
L0.625000 1.922000
" />
<path d="M0.625000 1.922000
L0.625000 1.923000
" />
<path d="M0.625000 1.923000
L0.625000 1.924000
" />
<path d="M0.625000 1.924000
L0.625000 1.925000
" />
<path d="M0.625000 1.925000
L0.625000 1.926000
" />
<path d="M0.625000 1.926000
L0.625000 1.927000
" />
<path d="M0.625000 1.927000
L0.625000 1.928000
" />
<path d="M0.625000 1.928000
L0.625000 1.929000
" />
<path d="M0.625000 1.929000
L0.625000 1.930000
" />
<path d="M0.625000 1.930000
L0.626000 1.931000
" />
<path d="M0.626000 0.354000
L0.626000 0.355000
" />
<path d="M0.626000 0.355000
L0.626000 0.356000
" />
<path d="M0.626000 0.356000
L0.626000 0.357000
" />
<path d="M0.626000 0.357000
L0.625000 0.358000
" />
</g>
<g style="fill:#000000; fill-opacity:1.000000; stroke:none;">
<circle cx="0.626000" cy="0.368000" r="0.010000" /> 
</g>
<g style="fill:none; 
stroke:#000000; stroke-width:0.020000; stroke-opacity:1; 
stroke-linecap:round; stroke-linejoin:round;">
<path d="M0.626000 0.368000
L0.626000 0.369000
" />
<path d="M0.626000 0.369000
L0.627000 0.370000
" />
<path d="M0.626000 1.919000
L0.626000 1.920000
" />
<path d="M0.626000 1.920000
L0.625000 1.921000
" />
</g>
<g style="fill:#000000; fill-opacity:1.000000; stroke:none;">
<circle cx="0.626000" cy="1.920000" r="0.010000" /> 
</g>
<g style="fill:none; 
stroke:#000000; stroke-width:0.020000; stroke-opacity:1; 
stroke-linecap:round; stroke-linejoin:round;">
<path d="M0.626000 1.931000
L0.626000 1.932000
" />
<path d="M0.626000 1.932000
L0.626000 1.933000
" />
<path d="M0.626000 1.933000
L0.626000 1.934000
" />
<path d="M0.626000 1.934000
L0.627000 1.934000
" />
<path d="M0.627000 0.353000
L0.627000 0.354000
" />
<path d="M0.627000 0.354000
L0.626000 0.354000
" />
<path d="M0.627000 0.370000
L0.627000 0.371000
" />
<path d="M0.627000 0.371000
L0.628000 0.372000
" />
<path d="M0.627000 1.917000
L0.627000 1.918000
" />
<path d="M0.627000 1.918000
L0.626000 1.919000
" />
<path d="M0.627000 1.934000
L0.627000 1.935000
" />
<path d="M0.627000 1.935000
L0.628000 1.936000
" />
<path d="M0.628000 0.351000
L0.628000 0.352000
" />
<path d="M0.628000 0.352000
L0.627000 0.353000
" />
<path d="M0.628000 0.372000
L0.628000 0.373000
" />
<path d="M0.628000 0.373000
L0.629000 0.374000
" />
<path d="M0.628000 1.915000
L0.628000 1.916000
" />
<path d="M0.628000 1.916000
L0.627000 1.917000
" />
<path d="M0.628000 1.936000
L0.628000 1.937000
" />
<path d="M0.628000 1.937000
L0.629000 1.938000
" />
<path d="M0.629000 0.349000
L0.629000 0.350000
" />
<path d="M0.629000 0.350000
L0.628000 0.351000
" />
</g>
<g style="fill:#000000; fill-opacity:1.000000; stroke:none;">
<circle cx="0.629000" cy="0.374000" r="0.010000" /> 
</g>
<g style="fill:none; 
stroke:#000000; stroke-width:0.020000; stroke-opacity:1; 
stroke-linecap:round; stroke-linejoin:round;">
<path d="M0.629000 0.374000
L0.630000 0.378000
" />
<path d="M0.629000 1.914000
L0.628000 1.915000
" />
</g>
<g style="fill:#000000; fill-opacity:1.000000; stroke:none;">
<circle cx="0.629000" cy="1.914000" r="0.010000" /> 
</g>
<g style="fill:none; 
stroke:#000000; stroke-width:0.020000; stroke-opacity:1; 
stroke-linecap:round; stroke-linejoin:round;">
<path d="M0.629000 1.938000
L0.629000 1.939000
" />
<path d="M0.629000 1.939000
L0.630000 1.939000
" />
<path d="M0.630000 0.349000
L0.629000 0.349000
" />
<path d="M0.630000 0.378000
L0.631000 0.379000
" />
<path d="M0.630000 1.910000
L0.629000 1.914000
" />
<path d="M0.630000 1.939000
L0.631000 1.940000
" />
<path d="M0.631000 0.348000
L0.630000 0.349000
" />
</g>
<g style="fill:#000000; fill-opacity:1.000000; stroke:none;">
<circle cx="0.631000" cy="0.348000" r="0.010000" /> 
<circle cx="0.631000" cy="0.379000" r="0.010000" /> 
<circle cx="0.631000" cy="0.379000" r="0.010000" /> 
</g>
<g style="fill:none; 
stroke:#000000; stroke-width:0.020000; stroke-opacity:1; 
stroke-linecap:round; stroke-linejoin:round;">
<path d="M0.631000 0.379000
L0.631000 0.380000
" />
<path d="M0.631000 0.380000
L0.632000 0.380000
" />
<path d="M0.631000 1.908000
L0.631000 1.909000
" />
<path d="M0.631000 1.909000
L0.630000 1.910000
" />
</g>
<g style="fill:#000000; fill-opacity:1.000000; stroke:none;">
<circle cx="0.631000" cy="1.909000" r="0.010000" /> 
<circle cx="0.631000" cy="1.909000" r="0.010000" /> 
<circle cx="0.631000" cy="1.940000" r="0.010000" /> 
</g>
<g style="fill:none; 
stroke:#000000; stroke-width:0.020000; stroke-opacity:1; 
stroke-linecap:round; stroke-linejoin:round;">
<path d="M0.631000 1.940000
L0.632000 1.941000
" />
<path d="M0.632000 0.346000
L0.632000 0.347000
" />
<path d="M0.632000 0.347000
L0.631000 0.348000
" />
<path d="M0.632000 0.380000
L0.633000 0.381000
" />
<path d="M0.632000 1.908000
L0.631000 1.908000
" />
<path d="M0.632000 1.941000
L0.632000 1.942000
" />
<path d="M0.632000 1.942000
L0.633000 1.942000
" />
<path d="M0.633000 0.346000
L0.632000 0.346000
" />
<path d="M0.633000 0.381000
L0.634000 0.381000
" />
<path d="M0.633000 1.907000
L0.632000 1.908000
" />
<path d="M0.633000 1.942000
L0.634000 1.943000
" />
<path d="M0.634000 0.345000
L0.633000 0.346000
" />
<path d="M0.634000 0.381000
L0.635000 0.382000
" />
<path d="M0.634000 1.907000
L0.633000 1.907000
" />
<path d="M0.634000 1.943000
L0.635000 1.943000
" />
<path d="M0.635000 0.345000
L0.634000 0.345000
" />
</g>
<g style="fill:#000000; fill-opacity:1.000000; stroke:none;">
<circle cx="0.635000" cy="0.382000" r="0.010000" /> 
</g>
<g style="fill:none; 
stroke:#000000; stroke-width:0.020000; stroke-opacity:1; 
stroke-linecap:round; stroke-linejoin:round;">
<path d="M0.635000 0.382000
L0.636000 0.383000
" />
<path d="M0.635000 1.906000
L0.634000 1.907000
" />
</g>
<g style="fill:#000000; fill-opacity:1.000000; stroke:none;">
<circle cx="0.635000" cy="1.906000" r="0.010000" /> 
</g>
<g style="fill:none; 
stroke:#000000; stroke-width:0.020000; stroke-opacity:1; 
stroke-linecap:round; stroke-linejoin:round;">
<path d="M0.635000 1.943000
L0.636000 1.944000
" />
<path d="M0.636000 0.344000
L0.635000 0.345000
" />
<path d="M0.636000 0.383000
L0.637000 0.383000
" />
<path d="M0.636000 1.905000
L0.635000 1.906000
" />
<path d="M0.636000 1.944000
L0.637000 1.944000
" />
<path d="M0.637000 0.343000
L0.637000 0.344000
" />
<path d="M0.637000 0.344000
L0.636000 0.344000
" />
<path d="M0.637000 0.383000
L0.638000 0.384000
" />
<path d="M0.637000 1.905000
L0.636000 1.905000
" />
<path d="M0.637000 1.944000
L0.637000 1.945000
" />
<path d="M0.637000 1.945000
L0.638000 1.945000
" />
<path d="M0.638000 0.343000
L0.637000 0.343000
" />
<path d="M0.638000 0.384000
L0.639000 0.384000
" />
<path d="M0.638000 1.904000
L0.637000 1.905000
" />
<path d="M0.638000 1.945000
L0.639000 1.945000
" />
<path d="M0.639000 0.343000
L0.638000 0.343000
" />
<path d="M0.639000 0.384000
L0.640000 0.384000
" />
<path d="M0.639000 1.904000
L0.638000 1.904000
" />
<path d="M0.639000 1.945000
L0.640000 1.945000
" />
<path d="M0.640000 0.343000
L0.639000 0.343000
" />
<path d="M0.640000 0.384000
L0.641000 0.384000
" />
<path d="M0.640000 1.904000
L0.639000 1.904000
" />
<path d="M0.640000 1.945000
L0.641000 1.946000
" />
<path d="M0.641000 0.342000
L0.640000 0.343000
" />
<path d="M0.641000 0.384000
L0.642000 0.384000
" />
<path d="M0.641000 1.904000
L0.640000 1.904000
" />
<path d="M0.641000 1.946000
L0.642000 1.946000
" />
<path d="M0.642000 0.342000
L0.641000 0.342000
" />
<path d="M0.642000 0.384000
L0.643000 0.385000
" />
<path d="M0.642000 1.904000
L0.641000 1.904000
" />
<path d="M0.642000 1.946000
L0.643000 1.946000
" />
<path d="M0.643000 0.342000
L0.642000 0.342000
" />
<path d="M0.643000 0.385000
L0.644000 0.385000
" />
<path d="M0.643000 1.903000
L0.642000 1.904000
" />
<path d="M0.643000 1.946000
L0.644000 1.946000
" />
<path d="M0.644000 0.342000
L0.643000 0.342000
" />
<path d="M0.644000 0.385000
L0.645000 0.385000
" />
<path d="M0.644000 1.903000
L0.643000 1.903000
" />
<path d="M0.644000 1.946000
L0.645000 1.946000
" />
<path d="M0.645000 0.342000
L0.644000 0.342000
" />
<path d="M0.645000 0.385000
L0.646000 0.385000
" />
<path d="M0.645000 1.903000
L0.644000 1.903000
" />
<path d="M0.645000 1.946000
L0.646000 1.946000
" />
<path d="M0.646000 0.342000
L0.645000 0.342000
" />
<path d="M0.646000 0.385000
L0.647000 0.385000
" />
<path d="M0.646000 1.903000
L0.645000 1.903000
" />
<path d="M0.646000 1.946000
L0.647000 1.946000
" />
<path d="M0.647000 0.342000
L0.646000 0.342000
" />
<path d="M0.647000 0.384000
L0.648000 0.384000
" />
<path d="M0.647000 0.385000
L0.647000 0.384000
" />
<path d="M0.647000 1.903000
L0.646000 1.903000
" />
<path d="M0.647000 1.904000
L0.647000 1.903000
" />
<path d="M0.647000 1.946000
L0.648000 1.946000
" />
<path d="M0.648000 0.342000
L0.647000 0.342000
" />
</g>
<g style="fill:#000000; fill-opacity:1.000000; stroke:none;">
<circle cx="0.648000" cy="0.342000" r="0.010000" /> 
<circle cx="0.648000" cy="0.342000" r="0.010000" /> 
<circle cx="0.648000" cy="0.384000" r="0.010000" /> 
<circle cx="0.648000" cy="0.384000" r="0.010000" /> 
</g>
<g style="fill:none; 
stroke:#000000; stroke-width:0.020000; stroke-opacity:1; 
stroke-linecap:round; stroke-linejoin:round;">
<path d="M0.648000 0.384000
L0.649000 0.383000
" />
<path d="M0.648000 1.904000
L0.647000 1.904000
" />
</g>
<g style="fill:#000000; fill-opacity:1.000000; stroke:none;">
<circle cx="0.648000" cy="1.904000" r="0.010000" /> 
<circle cx="0.648000" cy="1.904000" r="0.010000" /> 
<circle cx="0.648000" cy="1.946000" r="0.010000" /> 
<circle cx="0.648000" cy="1.946000" r="0.010000" /> 
</g>
<g style="fill:none; 
stroke:#000000; stroke-width:0.020000; stroke-opacity:1; 
stroke-linecap:round; stroke-linejoin:round;">
<path d="M0.648000 1.946000
L0.649000 1.945000
" />
<path d="M0.649000 0.343000
L0.648000 0.342000
" />
</g>
<g style="fill:#000000; fill-opacity:1.000000; stroke:none;">
<circle cx="0.649000" cy="0.343000" r="0.010000" /> 
</g>
<g style="fill:none; 
stroke:#000000; stroke-width:0.020000; stroke-opacity:1; 
stroke-linecap:round; stroke-linejoin:round;">
<path d="M0.649000 0.383000
L0.650000 0.383000
" />
<path d="M0.649000 1.905000
L0.648000 1.904000
" />
</g>
<g style="fill:#000000; fill-opacity:1.000000; stroke:none;">
<circle cx="0.649000" cy="1.945000" r="0.010000" /> 
</g>
<g style="fill:none; 
stroke:#000000; stroke-width:0.020000; stroke-opacity:1; 
stroke-linecap:round; stroke-linejoin:round;">
<path d="M0.649000 1.945000
L0.650000 1.945000
" />
<path d="M0.650000 0.343000
L0.649000 0.343000
" />
<path d="M0.650000 0.383000
L0.651000 0.383000
" />
<path d="M0.650000 1.905000
L0.649000 1.905000
" />
<path d="M0.650000 1.945000
L0.651000 1.944000
" />
<path d="M0.651000 0.344000
L0.650000 0.343000
" />
<path d="M0.651000 0.383000
L0.652000 0.382000
" />
<path d="M0.651000 1.905000
L0.650000 1.905000
" />
<path d="M0.651000 1.944000
L0.652000 1.944000
" />
<path d="M0.652000 0.344000
L0.651000 0.344000
" />
<path d="M0.652000 0.382000
L0.653000 0.382000
" />
<path d="M0.652000 1.906000
L0.651000 1.905000
" />
<path d="M0.652000 1.944000
L0.653000 1.943000
" />
<path d="M0.653000 0.345000
L0.652000 0.344000
" />
<path d="M0.653000 0.382000
L0.654000 0.381000
" />
<path d="M0.653000 1.906000
L0.652000 1.906000
" />
<path d="M0.653000 1.943000
L0.654000 1.943000
" />
<path d="M0.654000 0.345000
L0.653000 0.345000
" />
</g>
<g style="fill:#000000; fill-opacity:1.000000; stroke:none;">
<circle cx="0.654000" cy="0.381000" r="0.010000" /> 
</g>
<g style="fill:none; 
stroke:#000000; stroke-width:0.020000; stroke-opacity:1; 
stroke-linecap:round; stroke-linejoin:round;">
<path d="M0.654000 0.381000
L0.655000 0.380000
" />
<path d="M0.654000 1.907000
L0.653000 1.906000
" />
</g>
<g style="fill:#000000; fill-opacity:1.000000; stroke:none;">
<circle cx="0.654000" cy="1.907000" r="0.010000" /> 
</g>
<g style="fill:none; 
stroke:#000000; stroke-width:0.020000; stroke-opacity:1; 
stroke-linecap:round; stroke-linejoin:round;">
<path d="M0.654000 1.943000
L0.655000 1.942000
" />
<path d="M0.655000 0.346000
L0.654000 0.345000
" />
</g>
<g style="fill:#000000; fill-opacity:1.000000; stroke:none;">
<circle cx="0.655000" cy="0.346000" r="0.010000" /> 
</g>
<g style="fill:none; 
stroke:#000000; stroke-width:0.020000; stroke-opacity:1; 
stroke-linecap:round; stroke-linejoin:round;">
<path d="M0.655000 0.380000
L0.656000 0.379000
" />
<path d="M0.655000 1.908000
L0.654000 1.907000
" />
</g>
<g style="fill:#000000; fill-opacity:1.000000; stroke:none;">
<circle cx="0.655000" cy="1.942000" r="0.010000" /> 
</g>
<g style="fill:none; 
stroke:#000000; stroke-width:0.020000; stroke-opacity:1; 
stroke-linecap:round; stroke-linejoin:round;">
<path d="M0.655000 1.942000
L0.656000 1.941000
" />
<path d="M0.656000 0.347000
L0.655000 0.346000
" />
<path d="M0.656000 0.379000
L0.657000 0.379000
" />
<path d="M0.656000 1.909000
L0.655000 1.908000
" />
<path d="M0.656000 1.941000
L0.657000 1.940000
" />
<path d="M0.657000 0.348000
L0.656000 0.347000
" />
</g>
<g style="fill:#000000; fill-opacity:1.000000; stroke:none;">
<circle cx="0.657000" cy="0.348000" r="0.010000" /> 
</g>
<g style="fill:none; 
stroke:#000000; stroke-width:0.020000; stroke-opacity:1; 
stroke-linecap:round; stroke-linejoin:round;">
<path d="M0.657000 0.378000
L0.658000 0.374000
" />
<path d="M0.657000 0.379000
L0.657000 0.378000
" />
</g>
<g style="fill:#000000; fill-opacity:1.000000; stroke:none;">
<circle cx="0.657000" cy="0.379000" r="0.010000" /> 
</g>
<g style="fill:none; 
stroke:#000000; stroke-width:0.020000; stroke-opacity:1; 
stroke-linecap:round; stroke-linejoin:round;">
<path d="M0.657000 1.909000
L0.656000 1.909000
" />
</g>
<g style="fill:#000000; fill-opacity:1.000000; stroke:none;">
<circle cx="0.657000" cy="1.909000" r="0.010000" /> 
</g>
<g style="fill:none; 
stroke:#000000; stroke-width:0.020000; stroke-opacity:1; 
stroke-linecap:round; stroke-linejoin:round;">
<path d="M0.657000 1.910000
L0.657000 1.909000
" />
</g>
<g style="fill:#000000; fill-opacity:1.000000; stroke:none;">
<circle cx="0.657000" cy="1.940000" r="0.010000" /> 
</g>
<g style="fill:none; 
stroke:#000000; stroke-width:0.020000; stroke-opacity:1; 
stroke-linecap:round; stroke-linejoin:round;">
<path d="M0.657000 1.940000
L0.658000 1.940000
" />
<path d="M0.658000 0.348000
L0.657000 0.348000
" />
<path d="M0.658000 0.349000
L0.658000 0.348000
" />
<path d="M0.658000 0.374000
L0.659000 0.373000
" />
<path d="M0.658000 1.914000
L0.657000 1.910000
" />
<path d="M0.658000 1.939000
L0.659000 1.938000
" />
<path d="M0.658000 1.940000
L0.658000 1.939000
" />
<path d="M0.659000 0.350000
L0.658000 0.349000
" />
<path d="M0.659000 0.351000
L0.659000 0.350000
" />
</g>
<g style="fill:#000000; fill-opacity:1.000000; stroke:none;">
<circle cx="0.659000" cy="0.373000" r="0.010000" /> 
</g>
<g style="fill:none; 
stroke:#000000; stroke-width:0.020000; stroke-opacity:1; 
stroke-linecap:round; stroke-linejoin:round;">
<path d="M0.659000 0.373000
L0.660000 0.372000
" />
<path d="M0.659000 1.915000
L0.658000 1.914000
" />
</g>
<g style="fill:#000000; fill-opacity:1.000000; stroke:none;">
<circle cx="0.659000" cy="1.915000" r="0.010000" /> 
</g>
<g style="fill:none; 
stroke:#000000; stroke-width:0.020000; stroke-opacity:1; 
stroke-linecap:round; stroke-linejoin:round;">
<path d="M0.659000 1.937000
L0.660000 1.936000
" />
<path d="M0.659000 1.938000
L0.659000 1.937000
" />
<path d="M0.660000 0.352000
L0.659000 0.351000
" />
</g>
<g style="fill:#000000; fill-opacity:1.000000; stroke:none;">
<circle cx="0.660000" cy="0.352000" r="0.010000" /> 
</g>
<g style="fill:none; 
stroke:#000000; stroke-width:0.020000; stroke-opacity:1; 
stroke-linecap:round; stroke-linejoin:round;">
<path d="M0.660000 0.353000
L0.660000 0.352000
" />
<path d="M0.660000 0.354000
L0.660000 0.353000
" />
<path d="M0.660000 0.368000
L0.661000 0.367000
" />
<path d="M0.660000 0.369000
L0.660000 0.368000
" />
<path d="M0.660000 0.370000
L0.660000 0.369000
" />
<path d="M0.660000 0.371000
L0.660000 0.370000
" />
<path d="M0.660000 0.372000
L0.660000 0.371000
" />
<path d="M0.660000 1.916000
L0.659000 1.915000
" />
<path d="M0.660000 1.917000
L0.660000 1.916000
" />
<path d="M0.660000 1.918000
L0.660000 1.917000
" />
<path d="M0.660000 1.919000
L0.660000 1.918000
" />
<path d="M0.660000 1.920000
L0.660000 1.919000
" />
<path d="M0.660000 1.934000
L0.661000 1.933000
" />
<path d="M0.660000 1.935000
L0.660000 1.934000
" />
<path d="M0.660000 1.936000
L0.660000 1.935000
" />
</g>
<g style="fill:#000000; fill-opacity:1.000000; stroke:none;">
<circle cx="0.660000" cy="1.936000" r="0.010000" /> 
</g>
<g style="fill:none; 
stroke:#000000; stroke-width:0.020000; stroke-opacity:1; 
stroke-linecap:round; stroke-linejoin:round;">
<path d="M0.661000 0.355000
L0.660000 0.354000
" />
<path d="M0.661000 0.356000
L0.661000 0.355000
" />
<path d="M0.661000 0.357000
L0.661000 0.356000
" />
<path d="M0.661000 0.358000
L0.661000 0.357000
" />
<path d="M0.661000 0.359000
L0.661000 0.358000
" />
<path d="M0.661000 0.364000
L0.662000 0.364000
" />
<path d="M0.661000 0.365000
L0.661000 0.364000
" />
<path d="M0.661000 0.366000
L0.661000 0.365000
" />
<path d="M0.661000 0.367000
L0.661000 0.366000
" />
<path d="M0.661000 1.921000
L0.660000 1.920000
" />
<path d="M0.661000 1.922000
L0.661000 1.921000
" />
<path d="M0.661000 1.923000
L0.661000 1.922000
" />
<path d="M0.661000 1.924000
L0.661000 1.923000
" />
<path d="M0.661000 1.929000
L0.662000 1.928000
" />
<path d="M0.661000 1.930000
L0.661000 1.929000
" />
<path d="M0.661000 1.931000
L0.661000 1.930000
" />
<path d="M0.661000 1.932000
L0.661000 1.931000
" />
<path d="M0.661000 1.933000
L0.661000 1.932000
" />
<path d="M0.662000 0.360000
L0.661000 0.359000
" />
<path d="M0.662000 0.361000
L0.662000 0.360000
" />
<path d="M0.662000 0.362000
L0.662000 0.361000
" />
<path d="M0.662000 0.363000
L0.662000 0.362000
" />
<path d="M0.662000 0.364000
L0.662000 0.363000
" />
<path d="M0.662000 1.924000
L0.661000 1.924000
" />
<path d="M0.662000 1.925000
L0.662000 1.924000
" />
<path d="M0.662000 1.926000
L0.662000 1.925000
" />
<path d="M0.662000 1.927000
L0.662000 1.926000
" />
<path d="M0.662000 1.928000
L0.662000 1.927000
" />
<path d="M0.731000 0.530000
L0.731000 0.535000
" />
<path d="M0.731000 0.535000
L0.731000 0.540000
" />
</g>
<g style="fill:#000000; fill-opacity:1.000000; stroke:none;">
<circle cx="0.731000" cy="0.540000" r="0.010000" /> 
</g>
<g style="fill:none; 
stroke:#000000; stroke-width:0.020000; stroke-opacity:1; 
stroke-linecap:round; stroke-linejoin:round;">
<path d="M0.731000 0.540000
L0.731000 0.545000
" />
<path d="M0.731000 0.545000
L0.731000 0.551000
" />
<path d="M0.731000 0.551000
L0.732000 0.556000
" />
<path d="M0.732000 0.525000
L0.731000 0.530000
" />
<path d="M0.732000 0.556000
L0.733000 0.560000
" />
<path d="M0.733000 0.520000
L0.732000 0.525000
" />
<path d="M0.733000 0.560000
L0.734000 0.565000
" />
<path d="M0.734000 0.515000
L0.733000 0.520000
" />
<path d="M0.734000 0.565000
L0.735000 0.568000
" />
<path d="M0.735000 0.511000
L0.734000 0.515000
" />
<path d="M0.735000 0.568000
L0.737000 0.573000
" />
<path d="M0.737000 0.506000
L0.735000 0.511000
" />
<path d="M0.737000 0.573000
L0.739000 0.577000
" />
<path d="M0.739000 0.498000
L0.737000 0.506000
" />
<path d="M0.739000 0.577000
L0.741000 0.582000
" />
<path d="M0.741000 0.494000
L0.739000 0.498000
" />
<path d="M0.741000 0.582000
L0.743000 0.585000
" />
<path d="M0.743000 0.490000
L0.741000 0.494000
" />
<path d="M0.743000 0.585000
L0.745000 0.589000
" />
<path d="M0.745000 0.485000
L0.743000 0.490000
" />
<path d="M0.745000 0.589000
L0.746000 0.593000
" />
<path d="M0.746000 0.481000
L0.745000 0.485000
" />
<path d="M0.746000 0.593000
L0.749000 0.597000
" />
<path d="M0.749000 0.477000
L0.746000 0.481000
" />
<path d="M0.749000 0.597000
L0.752000 0.601000
" />
<path d="M0.752000 0.474000
L0.749000 0.477000
" />
<path d="M0.752000 0.601000
L0.754000 0.605000
" />
<path d="M0.754000 0.470000
L0.752000 0.474000
" />
<path d="M0.754000 0.605000
L0.757000 0.608000
" />
<path d="M0.757000 0.467000
L0.754000 0.470000
" />
<path d="M0.757000 0.608000
L0.761000 0.611000
" />
<path d="M0.761000 0.463000
L0.757000 0.467000
" />
<path d="M0.761000 0.611000
L0.764000 0.614000
" />
<path d="M0.764000 0.460000
L0.761000 0.463000
" />
<path d="M0.764000 0.614000
L0.768000 0.617000
" />
<path d="M0.768000 0.457000
L0.764000 0.460000
" />
<path d="M0.768000 0.617000
L0.772000 0.620000
" />
<path d="M0.772000 0.455000
L0.768000 0.457000
" />
<path d="M0.772000 0.620000
L0.779000 0.623000
" />
<path d="M0.779000 0.453000
L0.772000 0.455000
" />
<path d="M0.779000 0.623000
L0.783000 0.625000
" />
<path d="M0.783000 0.450000
L0.779000 0.453000
" />
<path d="M0.783000 0.625000
L0.787000 0.627000
" />
<path d="M0.787000 0.448000
L0.783000 0.450000
" />
<path d="M0.787000 0.627000
L0.792000 0.629000
" />
<path d="M0.792000 0.446000
L0.787000 0.448000
" />
<path d="M0.792000 0.629000
L0.796000 0.634000
" />
<path d="M0.796000 0.444000
L0.792000 0.446000
" />
<path d="M0.796000 0.634000
L0.801000 0.636000
" />
<path d="M0.801000 0.443000
L0.796000 0.444000
" />
<path d="M0.801000 0.636000
L0.806000 0.637000
" />
<path d="M0.806000 0.441000
L0.801000 0.443000
" />
<path d="M0.806000 0.637000
L0.809000 0.638000
" />
<path d="M0.809000 0.441000
L0.806000 0.441000
" />
<path d="M0.809000 0.638000
L0.814000 0.639000
" />
<path d="M0.814000 0.441000
L0.809000 0.441000
" />
<path d="M0.814000 0.639000
L0.818000 0.640000
" />
<path d="M0.818000 0.441000
L0.814000 0.441000
" />
<path d="M0.818000 0.640000
L0.823000 0.640000
" />
<path d="M0.823000 0.440000
L0.818000 0.441000
" />
<path d="M0.823000 0.640000
L0.828000 0.640000
" />
<path d="M0.828000 0.440000
L0.823000 0.440000
" />
<path d="M0.828000 0.640000
L0.833000 0.640000
" />
<path d="M0.833000 0.440000
L0.828000 0.440000
" />
<path d="M0.833000 0.640000
L0.838000 0.640000
" />
<path d="M0.838000 0.441000
L0.833000 0.440000
" />
<path d="M0.838000 0.640000
L0.846000 0.639000
" />
<path d="M0.846000 0.441000
L0.838000 0.441000
" />
<path d="M0.846000 0.639000
L0.851000 0.638000
" />
<path d="M0.851000 0.441000
L0.846000 0.441000
" />
<path d="M0.851000 0.638000
L0.856000 0.637000
" />
<path d="M0.856000 0.441000
L0.851000 0.441000
" />
<path d="M0.856000 0.637000
L0.860000 0.636000
" />
<path d="M0.860000 0.443000
L0.856000 0.441000
" />
<path d="M0.860000 0.636000
L0.865000 0.634000
" />
<path d="M0.865000 0.444000
L0.860000 0.443000
" />
<path d="M0.865000 0.634000
L0.870000 0.629000
" />
<path d="M0.870000 0.446000
L0.865000 0.444000
" />
<path d="M0.870000 0.629000
L0.873000 0.627000
" />
<path d="M0.873000 0.448000
L0.870000 0.446000
" />
<path d="M0.873000 0.627000
L0.876000 0.625000
" />
<path d="M0.876000 0.450000
L0.873000 0.448000
" />
<path d="M0.876000 0.625000
L0.880000 0.623000
" />
<path d="M0.880000 0.453000
L0.876000 0.450000
" />
<path d="M0.880000 0.623000
L0.884000 0.620000
" />
<path d="M0.884000 0.455000
L0.880000 0.453000
" />
<path d="M0.884000 0.620000
L0.888000 0.617000
" />
<path d="M0.888000 0.457000
L0.884000 0.455000
" />
<path d="M0.888000 0.617000
L0.891000 0.614000
" />
<path d="M0.891000 0.460000
L0.888000 0.457000
" />
<path d="M0.891000 0.614000
L0.895000 0.611000
" />
<path d="M0.895000 0.463000
L0.891000 0.460000
" />
<path d="M0.895000 0.611000
L0.898000 0.608000
" />
<path d="M0.898000 0.467000
L0.895000 0.463000
" />
<path d="M0.898000 0.608000
L0.902000 0.605000
" />
<path d="M0.902000 0.470000
L0.898000 0.467000
" />
<path d="M0.902000 0.605000
L0.908000 0.601000
" />
<path d="M0.908000 0.474000
L0.902000 0.470000
" />
<path d="M0.908000 0.601000
L0.911000 0.597000
" />
<path d="M0.911000 0.477000
L0.908000 0.474000
" />
<path d="M0.911000 0.597000
L0.914000 0.593000
" />
<path d="M0.914000 0.481000
L0.911000 0.477000
" />
<path d="M0.914000 0.593000
L0.916000 0.589000
" />
<path d="M0.916000 0.485000
L0.914000 0.481000
" />
<path d="M0.916000 0.589000
L0.919000 0.585000
" />
<path d="M0.919000 0.490000
L0.916000 0.485000
" />
<path d="M0.919000 0.585000
L0.921000 0.582000
" />
<path d="M0.921000 0.494000
L0.919000 0.490000
" />
<path d="M0.921000 0.582000
L0.923000 0.577000
" />
<path d="M0.923000 0.498000
L0.921000 0.494000
" />
<path d="M0.923000 0.577000
L0.925000 0.573000
" />
<path d="M0.925000 0.506000
L0.923000 0.498000
" />
<path d="M0.925000 0.573000
L0.926000 0.568000
" />
<path d="M0.926000 0.511000
L0.925000 0.506000
" />
<path d="M0.926000 0.568000
L0.928000 0.565000
" />
<path d="M0.928000 0.515000
L0.926000 0.511000
" />
<path d="M0.928000 0.565000
L0.929000 0.560000
" />
<path d="M0.929000 0.520000
L0.928000 0.515000
" />
<path d="M0.929000 0.560000
L0.930000 0.556000
" />
<path d="M0.930000 0.525000
L0.929000 0.520000
" />
<path d="M0.930000 0.530000
L0.930000 0.525000
" />
<path d="M0.930000 0.551000
L0.931000 0.545000
" />
<path d="M0.930000 0.556000
L0.930000 0.551000
" />
<path d="M0.931000 0.535000
L0.930000 0.530000
" />
<path d="M0.931000 0.540000
L0.931000 0.535000
" />
</g>
<g style="fill:#000000; fill-opacity:1.000000; stroke:none;">
<circle cx="0.931000" cy="0.540000" r="0.010000" /> 
</g>
<g style="fill:none; 
stroke:#000000; stroke-width:0.020000; stroke-opacity:1; 
stroke-linecap:round; stroke-linejoin:round;">
<path d="M0.931000 0.545000
L0.931000 0.540000
" />
<path d="M1.786000 0.355000
L1.786000 0.356000
" />
<path d="M1.786000 0.356000
L1.786000 0.357000
" />
<path d="M1.786000 0.357000
L1.786000 0.358000
" />
<path d="M1.786000 0.358000
L1.786000 0.359000
" />
<path d="M1.786000 0.359000
L1.786000 0.360000
" />
<path d="M1.786000 0.360000
L1.786000 0.361000
" />
<path d="M1.786000 0.361000
L1.786000 0.362000
" />
<path d="M1.786000 0.362000
L1.786000 0.363000
" />
<path d="M1.786000 0.363000
L1.786000 0.364000
" />
</g>
<g style="fill:#000000; fill-opacity:1.000000; stroke:none;">
<circle cx="1.786000" cy="0.364000" r="0.010000" /> 
</g>
<g style="fill:none; 
stroke:#000000; stroke-width:0.020000; stroke-opacity:1; 
stroke-linecap:round; stroke-linejoin:round;">
<path d="M1.786000 0.364000
L1.786000 0.365000
" />
<path d="M1.786000 0.365000
L1.786000 0.366000
" />
<path d="M1.786000 0.366000
L1.786000 0.367000
" />
<path d="M1.786000 0.367000
L1.787000 0.368000
" />
<path d="M1.786000 1.921000
L1.786000 1.922000
" />
<path d="M1.786000 1.922000
L1.786000 1.923000
" />
<path d="M1.786000 1.923000
L1.786000 1.924000
" />
</g>
<g style="fill:#000000; fill-opacity:1.000000; stroke:none;">
<circle cx="1.786000" cy="1.924000" r="0.010000" /> 
</g>
<g style="fill:none; 
stroke:#000000; stroke-width:0.020000; stroke-opacity:1; 
stroke-linecap:round; stroke-linejoin:round;">
<path d="M1.786000 1.924000
L1.786000 1.925000
" />
<path d="M1.786000 1.925000
L1.786000 1.926000
" />
<path d="M1.786000 1.926000
L1.786000 1.927000
" />
<path d="M1.786000 1.927000
L1.786000 1.928000
" />
<path d="M1.786000 1.928000
L1.786000 1.929000
" />
<path d="M1.786000 1.929000
L1.786000 1.930000
" />
<path d="M1.786000 1.930000
L1.786000 1.931000
" />
<path d="M1.786000 1.931000
L1.786000 1.932000
" />
<path d="M1.786000 1.932000
L1.786000 1.933000
" />
<path d="M1.786000 1.933000
L1.787000 1.934000
" />
<path d="M1.787000 0.353000
L1.787000 0.354000
" />
<path d="M1.787000 0.354000
L1.786000 0.355000
" />
<path d="M1.787000 0.368000
L1.787000 0.369000
" />
<path d="M1.787000 0.369000
L1.787000 0.370000
" />
<path d="M1.787000 0.370000
L1.788000 0.371000
" />
<path d="M1.787000 1.918000
L1.787000 1.919000
" />
<path d="M1.787000 1.919000
L1.787000 1.920000
" />
<path d="M1.787000 1.920000
L1.786000 1.921000
" />
<path d="M1.787000 1.934000
L1.787000 1.935000
" />
<path d="M1.787000 1.935000
L1.788000 1.936000
" />
<path d="M1.788000 0.352000
L1.787000 0.353000
" />
</g>
<g style="fill:#000000; fill-opacity:1.000000; stroke:none;">
<circle cx="1.788000" cy="0.352000" r="0.010000" /> 
</g>
<g style="fill:none; 
stroke:#000000; stroke-width:0.020000; stroke-opacity:1; 
stroke-linecap:round; stroke-linejoin:round;">
<path d="M1.788000 0.371000
L1.788000 0.372000
" />
<path d="M1.788000 0.372000
L1.789000 0.373000
" />
<path d="M1.788000 1.916000
L1.788000 1.917000
" />
<path d="M1.788000 1.917000
L1.787000 1.918000
" />
</g>
<g style="fill:#000000; fill-opacity:1.000000; stroke:none;">
<circle cx="1.788000" cy="1.936000" r="0.010000" /> 
</g>
<g style="fill:none; 
stroke:#000000; stroke-width:0.020000; stroke-opacity:1; 
stroke-linecap:round; stroke-linejoin:round;">
<path d="M1.788000 1.936000
L1.789000 1.937000
" />
<path d="M1.789000 0.350000
L1.789000 0.351000
" />
<path d="M1.789000 0.351000
L1.788000 0.352000
" />
</g>
<g style="fill:#000000; fill-opacity:1.000000; stroke:none;">
<circle cx="1.789000" cy="0.373000" r="0.010000" /> 
</g>
<g style="fill:none; 
stroke:#000000; stroke-width:0.020000; stroke-opacity:1; 
stroke-linecap:round; stroke-linejoin:round;">
<path d="M1.789000 0.373000
L1.790000 0.374000
" />
<path d="M1.789000 1.915000
L1.788000 1.916000
" />
</g>
<g style="fill:#000000; fill-opacity:1.000000; stroke:none;">
<circle cx="1.789000" cy="1.915000" r="0.010000" /> 
</g>
<g style="fill:none; 
stroke:#000000; stroke-width:0.020000; stroke-opacity:1; 
stroke-linecap:round; stroke-linejoin:round;">
<path d="M1.789000 1.937000
L1.789000 1.938000
" />
<path d="M1.789000 1.938000
L1.790000 1.939000
" />
<path d="M1.790000 0.348000
L1.790000 0.349000
" />
<path d="M1.790000 0.349000
L1.789000 0.350000
" />
<path d="M1.790000 0.374000
L1.791000 0.378000
" />
<path d="M1.790000 1.914000
L1.789000 1.915000
" />
<path d="M1.790000 1.939000
L1.790000 1.940000
" />
<path d="M1.790000 1.940000
L1.791000 1.940000
" />
<path d="M1.791000 0.348000
L1.790000 0.348000
" />
</g>
<g style="fill:#000000; fill-opacity:1.000000; stroke:none;">
<circle cx="1.791000" cy="0.348000" r="0.010000" /> 
<circle cx="1.791000" cy="0.348000" r="0.010000" /> 
</g>
<g style="fill:none; 
stroke:#000000; stroke-width:0.020000; stroke-opacity:1; 
stroke-linecap:round; stroke-linejoin:round;">
<path d="M1.791000 0.378000
L1.791000 0.379000
" />
</g>
<g style="fill:#000000; fill-opacity:1.000000; stroke:none;">
<circle cx="1.791000" cy="0.379000" r="0.010000" /> 
</g>
<g style="fill:none; 
stroke:#000000; stroke-width:0.020000; stroke-opacity:1; 
stroke-linecap:round; stroke-linejoin:round;">
<path d="M1.791000 0.379000
L1.792000 0.379000
" />
</g>
<g style="fill:#000000; fill-opacity:1.000000; stroke:none;">
<circle cx="1.791000" cy="1.909000" r="0.010000" /> 
</g>
<g style="fill:none; 
stroke:#000000; stroke-width:0.020000; stroke-opacity:1; 
stroke-linecap:round; stroke-linejoin:round;">
<path d="M1.791000 1.909000
L1.791000 1.910000
" />
<path d="M1.791000 1.910000
L1.790000 1.914000
" />
</g>
<g style="fill:#000000; fill-opacity:1.000000; stroke:none;">
<circle cx="1.791000" cy="1.940000" r="0.010000" /> 
<circle cx="1.791000" cy="1.940000" r="0.010000" /> 
</g>
<g style="fill:none; 
stroke:#000000; stroke-width:0.020000; stroke-opacity:1; 
stroke-linecap:round; stroke-linejoin:round;">
<path d="M1.791000 1.940000
L1.792000 1.941000
" />
<path d="M1.792000 0.347000
L1.791000 0.348000
" />
<path d="M1.792000 0.379000
L1.793000 0.380000
" />
<path d="M1.792000 1.909000
L1.791000 1.909000
" />
<path d="M1.792000 1.941000
L1.793000 1.942000
" />
<path d="M1.793000 0.346000
L1.792000 0.347000
" />
</g>
<g style="fill:#000000; fill-opacity:1.000000; stroke:none;">
<circle cx="1.793000" cy="0.346000" r="0.010000" /> 
</g>
<g style="fill:none; 
stroke:#000000; stroke-width:0.020000; stroke-opacity:1; 
stroke-linecap:round; stroke-linejoin:round;">
<path d="M1.793000 0.380000
L1.794000 0.381000
" />
<path d="M1.793000 1.908000
L1.792000 1.909000
" />
</g>
<g style="fill:#000000; fill-opacity:1.000000; stroke:none;">
<circle cx="1.793000" cy="1.942000" r="0.010000" /> 
</g>
<g style="fill:none; 
stroke:#000000; stroke-width:0.020000; stroke-opacity:1; 
stroke-linecap:round; stroke-linejoin:round;">
<path d="M1.793000 1.942000
L1.794000 1.943000
" />
<path d="M1.794000 0.345000
L1.793000 0.346000
" />
</g>
<g style="fill:#000000; fill-opacity:1.000000; stroke:none;">
<circle cx="1.794000" cy="0.381000" r="0.010000" /> 
</g>
<g style="fill:none; 
stroke:#000000; stroke-width:0.020000; stroke-opacity:1; 
stroke-linecap:round; stroke-linejoin:round;">
<path d="M1.794000 0.381000
L1.795000 0.382000
" />
<path d="M1.794000 1.907000
L1.793000 1.908000
" />
</g>
<g style="fill:#000000; fill-opacity:1.000000; stroke:none;">
<circle cx="1.794000" cy="1.907000" r="0.010000" /> 
</g>
<g style="fill:none; 
stroke:#000000; stroke-width:0.020000; stroke-opacity:1; 
stroke-linecap:round; stroke-linejoin:round;">
<path d="M1.794000 1.943000
L1.795000 1.943000
" />
<path d="M1.795000 0.345000
L1.794000 0.345000
" />
<path d="M1.795000 0.382000
L1.796000 0.382000
" />
<path d="M1.795000 1.906000
L1.794000 1.907000
" />
<path d="M1.795000 1.943000
L1.796000 1.944000
" />
<path d="M1.796000 0.344000
L1.795000 0.345000
" />
<path d="M1.796000 0.382000
L1.797000 0.383000
" />
<path d="M1.796000 1.906000
L1.795000 1.906000
" />
<path d="M1.796000 1.944000
L1.797000 1.944000
" />
<path d="M1.797000 0.344000
L1.796000 0.344000
" />
<path d="M1.797000 0.383000
L1.798000 0.383000
" />
<path d="M1.797000 1.905000
L1.796000 1.906000
" />
<path d="M1.797000 1.944000
L1.798000 1.945000
" />
<path d="M1.798000 0.343000
L1.797000 0.344000
" />
<path d="M1.798000 0.383000
L1.799000 0.383000
" />
<path d="M1.798000 1.905000
L1.797000 1.905000
" />
<path d="M1.798000 1.945000
L1.799000 1.945000
" />
<path d="M1.799000 0.343000
L1.798000 0.343000
" />
</g>
<g style="fill:#000000; fill-opacity:1.000000; stroke:none;">
<circle cx="1.799000" cy="0.343000" r="0.010000" /> 
</g>
<g style="fill:none; 
stroke:#000000; stroke-width:0.020000; stroke-opacity:1; 
stroke-linecap:round; stroke-linejoin:round;">
<path d="M1.799000 0.383000
L1.800000 0.384000
" />
<path d="M1.799000 1.905000
L1.798000 1.905000
" />
</g>
<g style="fill:#000000; fill-opacity:1.000000; stroke:none;">
<circle cx="1.799000" cy="1.945000" r="0.010000" /> 
</g>
<g style="fill:none; 
stroke:#000000; stroke-width:0.020000; stroke-opacity:1; 
stroke-linecap:round; stroke-linejoin:round;">
<path d="M1.799000 1.945000
L1.800000 1.946000
" />
<path d="M1.800000 0.342000
L1.799000 0.343000
" />
</g>
<g style="fill:#000000; fill-opacity:1.000000; stroke:none;">
<circle cx="1.800000" cy="0.342000" r="0.010000" /> 
<circle cx="1.800000" cy="0.384000" r="0.010000" /> 
</g>
<g style="fill:none; 
stroke:#000000; stroke-width:0.020000; stroke-opacity:1; 
stroke-linecap:round; stroke-linejoin:round;">
<path d="M1.800000 0.384000
L1.801000 0.384000
" />
<path d="M1.800000 1.904000
L1.799000 1.905000
" />
</g>
<g style="fill:#000000; fill-opacity:1.000000; stroke:none;">
<circle cx="1.800000" cy="1.904000" r="0.010000" /> 
<circle cx="1.800000" cy="1.946000" r="0.010000" /> 
</g>
<g style="fill:none; 
stroke:#000000; stroke-width:0.020000; stroke-opacity:1; 
stroke-linecap:round; stroke-linejoin:round;">
<path d="M1.800000 1.946000
L1.801000 1.946000
" />
<path d="M1.801000 0.342000
L1.800000 0.342000
" />
</g>
<g style="fill:#000000; fill-opacity:1.000000; stroke:none;">
<circle cx="1.801000" cy="0.342000" r="0.010000" /> 
<circle cx="1.801000" cy="0.384000" r="0.010000" /> 
</g>
<g style="fill:none; 
stroke:#000000; stroke-width:0.020000; stroke-opacity:1; 
stroke-linecap:round; stroke-linejoin:round;">
<path d="M1.801000 0.384000
L1.801000 0.385000
" />
<path d="M1.801000 0.385000
L1.802000 0.385000
" />
<path d="M1.801000 1.903000
L1.801000 1.904000
" />
<path d="M1.801000 1.904000
L1.800000 1.904000
" />
</g>
<g style="fill:#000000; fill-opacity:1.000000; stroke:none;">
<circle cx="1.801000" cy="1.904000" r="0.010000" /> 
<circle cx="1.801000" cy="1.946000" r="0.010000" /> 
</g>
<g style="fill:none; 
stroke:#000000; stroke-width:0.020000; stroke-opacity:1; 
stroke-linecap:round; stroke-linejoin:round;">
<path d="M1.801000 1.946000
L1.802000 1.946000
" />
<path d="M1.802000 0.342000
L1.801000 0.342000
" />
<path d="M1.802000 0.385000
L1.803000 0.385000
" />
<path d="M1.802000 1.903000
L1.801000 1.903000
" />
<path d="M1.802000 1.946000
L1.803000 1.946000
" />
<path d="M1.803000 0.342000
L1.802000 0.342000
" />
<path d="M1.803000 0.385000
L1.804000 0.385000
" />
<path d="M1.803000 1.903000
L1.802000 1.903000
" />
<path d="M1.803000 1.946000
L1.804000 1.946000
" />
<path d="M1.804000 0.342000
L1.803000 0.342000
" />
<path d="M1.804000 0.385000
L1.805000 0.385000
" />
<path d="M1.804000 1.903000
L1.803000 1.903000
" />
<path d="M1.804000 1.946000
L1.805000 1.946000
" />
<path d="M1.805000 0.342000
L1.804000 0.342000
" />
<path d="M1.805000 0.385000
L1.806000 0.384000
" />
<path d="M1.805000 1.903000
L1.804000 1.903000
" />
<path d="M1.805000 1.946000
L1.806000 1.946000
" />
<path d="M1.806000 0.342000
L1.805000 0.342000
" />
<path d="M1.806000 0.384000
L1.807000 0.384000
" />
<path d="M1.806000 1.904000
L1.805000 1.903000
" />
<path d="M1.806000 1.946000
L1.807000 1.946000
" />
<path d="M1.807000 0.342000
L1.806000 0.342000
" />
<path d="M1.807000 0.384000
L1.808000 0.384000
" />
<path d="M1.807000 1.904000
L1.806000 1.904000
" />
<path d="M1.807000 1.946000
L1.808000 1.945000
" />
<path d="M1.808000 0.343000
L1.807000 0.342000
" />
<path d="M1.808000 0.384000
L1.809000 0.384000
" />
<path d="M1.808000 1.904000
L1.807000 1.904000
" />
<path d="M1.808000 1.945000
L1.809000 1.945000
" />
<path d="M1.809000 0.343000
L1.808000 0.343000
" />
<path d="M1.809000 0.384000
L1.810000 0.384000
" />
<path d="M1.809000 1.904000
L1.808000 1.904000
" />
<path d="M1.809000 1.945000
L1.810000 1.945000
" />
<path d="M1.810000 0.343000
L1.809000 0.343000
" />
<path d="M1.810000 0.384000
L1.811000 0.383000
" />
<path d="M1.810000 1.904000
L1.809000 1.904000
" />
<path d="M1.810000 1.945000
L1.811000 1.945000
" />
<path d="M1.811000 0.343000
L1.810000 0.343000
" />
<path d="M1.811000 0.344000
L1.811000 0.343000
" />
<path d="M1.811000 0.383000
L1.812000 0.383000
" />
<path d="M1.811000 1.905000
L1.810000 1.904000
" />
<path d="M1.811000 1.944000
L1.812000 1.944000
" />
<path d="M1.811000 1.945000
L1.811000 1.944000
" />
<path d="M1.812000 0.344000
L1.811000 0.344000
" />
<path d="M1.812000 0.383000
L1.813000 0.382000
" />
<path d="M1.812000 1.905000
L1.811000 1.905000
" />
<path d="M1.812000 1.944000
L1.813000 1.943000
" />
<path d="M1.813000 0.345000
L1.812000 0.344000
" />
</g>
<g style="fill:#000000; fill-opacity:1.000000; stroke:none;">
<circle cx="1.813000" cy="0.382000" r="0.010000" /> 
</g>
<g style="fill:none; 
stroke:#000000; stroke-width:0.020000; stroke-opacity:1; 
stroke-linecap:round; stroke-linejoin:round;">
<path d="M1.813000 0.382000
L1.814000 0.381000
" />
<path d="M1.813000 1.906000
L1.812000 1.905000
" />
</g>
<g style="fill:#000000; fill-opacity:1.000000; stroke:none;">
<circle cx="1.813000" cy="1.906000" r="0.010000" /> 
</g>
<g style="fill:none; 
stroke:#000000; stroke-width:0.020000; stroke-opacity:1; 
stroke-linecap:round; stroke-linejoin:round;">
<path d="M1.813000 1.943000
L1.814000 1.943000
" />
<path d="M1.814000 0.345000
L1.813000 0.345000
" />
<path d="M1.814000 0.381000
L1.815000 0.381000
" />
<path d="M1.814000 1.907000
L1.813000 1.906000
" />
<path d="M1.814000 1.943000
L1.815000 1.942000
" />
<path d="M1.815000 0.346000
L1.814000 0.345000
" />
<path d="M1.815000 0.381000
L1.816000 0.380000
" />
<path d="M1.815000 1.907000
L1.814000 1.907000
" />
<path d="M1.815000 1.942000
L1.816000 1.942000
" />
<path d="M1.816000 0.346000
L1.815000 0.346000
" />
<path d="M1.816000 0.347000
L1.816000 0.346000
" />
<path d="M1.816000 0.380000
L1.817000 0.380000
" />
<path d="M1.816000 1.908000
L1.815000 1.907000
" />
<path d="M1.816000 1.941000
L1.817000 1.940000
" />
<path d="M1.816000 1.942000
L1.816000 1.941000
" />
<path d="M1.817000 0.348000
L1.816000 0.347000
" />
</g>
<g style="fill:#000000; fill-opacity:1.000000; stroke:none;">
<circle cx="1.817000" cy="0.348000" r="0.010000" /> 
<circle cx="1.817000" cy="0.379000" r="0.010000" /> 
</g>
<g style="fill:none; 
stroke:#000000; stroke-width:0.020000; stroke-opacity:1; 
stroke-linecap:round; stroke-linejoin:round;">
<path d="M1.817000 0.379000
L1.818000 0.378000
" />
<path d="M1.817000 0.380000
L1.817000 0.379000
" />
<path d="M1.817000 1.908000
L1.816000 1.908000
" />
<path d="M1.817000 1.909000
L1.817000 1.908000
" />
</g>
<g style="fill:#000000; fill-opacity:1.000000; stroke:none;">
<circle cx="1.817000" cy="1.909000" r="0.010000" /> 
<circle cx="1.817000" cy="1.940000" r="0.010000" /> 
</g>
<g style="fill:none; 
stroke:#000000; stroke-width:0.020000; stroke-opacity:1; 
stroke-linecap:round; stroke-linejoin:round;">
<path d="M1.817000 1.940000
L1.818000 1.939000
" />
<path d="M1.818000 0.349000
L1.817000 0.348000
" />
<path d="M1.818000 0.378000
L1.819000 0.374000
" />
<path d="M1.818000 1.910000
L1.817000 1.909000
" />
<path d="M1.818000 1.939000
L1.819000 1.939000
" />
<path d="M1.819000 0.349000
L1.818000 0.349000
" />
<path d="M1.819000 0.350000
L1.819000 0.349000
" />
</g>
<g style="fill:#000000; fill-opacity:1.000000; stroke:none;">
<circle cx="1.819000" cy="0.374000" r="0.010000" /> 
</g>
<g style="fill:none; 
stroke:#000000; stroke-width:0.020000; stroke-opacity:1; 
stroke-linecap:round; stroke-linejoin:round;">
<path d="M1.819000 0.374000
L1.820000 0.373000
" />
<path d="M1.819000 1.914000
L1.818000 1.910000
" />
</g>
<g style="fill:#000000; fill-opacity:1.000000; stroke:none;">
<circle cx="1.819000" cy="1.914000" r="0.010000" /> 
</g>
<g style="fill:none; 
stroke:#000000; stroke-width:0.020000; stroke-opacity:1; 
stroke-linecap:round; stroke-linejoin:round;">
<path d="M1.819000 1.938000
L1.820000 1.937000
" />
<path d="M1.819000 1.939000
L1.819000 1.938000
" />
<path d="M1.820000 0.351000
L1.819000 0.350000
" />
<path d="M1.820000 0.352000
L1.820000 0.351000
" />
<path d="M1.820000 0.372000
L1.821000 0.371000
" />
<path d="M1.820000 0.373000
L1.820000 0.372000
" />
<path d="M1.820000 1.915000
L1.819000 1.914000
" />
<path d="M1.820000 1.916000
L1.820000 1.915000
" />
<path d="M1.820000 1.936000
L1.821000 1.935000
" />
<path d="M1.820000 1.937000
L1.820000 1.936000
" />
<path d="M1.821000 0.353000
L1.820000 0.352000
" />
<path d="M1.821000 0.354000
L1.821000 0.353000
" />
<path d="M1.821000 0.370000
L1.822000 0.369000
" />
<path d="M1.821000 0.371000
L1.821000 0.370000
" />
<path d="M1.821000 1.917000
L1.820000 1.916000
" />
<path d="M1.821000 1.918000
L1.821000 1.917000
" />
<path d="M1.821000 1.934000
L1.822000 1.934000
" />
<path d="M1.821000 1.935000
L1.821000 1.934000
" />
<path d="M1.822000 0.354000
L1.821000 0.354000
" />
<path d="M1.822000 0.355000
L1.822000 0.354000
" />
<path d="M1.822000 0.356000
L1.822000 0.355000
" />
<path d="M1.822000 0.357000
L1.822000 0.356000
" />
</g>
<g style="fill:#000000; fill-opacity:1.000000; stroke:none;">
<circle cx="1.822000" cy="0.368000" r="0.010000" /> 
</g>
<g style="fill:none; 
stroke:#000000; stroke-width:0.020000; stroke-opacity:1; 
stroke-linecap:round; stroke-linejoin:round;">
<path d="M1.822000 0.368000
L1.823000 0.367000
" />
<path d="M1.822000 0.369000
L1.822000 0.368000
" />
<path d="M1.822000 1.919000
L1.821000 1.918000
" />
<path d="M1.822000 1.920000
L1.822000 1.919000
" />
</g>
<g style="fill:#000000; fill-opacity:1.000000; stroke:none;">
<circle cx="1.822000" cy="1.920000" r="0.010000" /> 
</g>
<g style="fill:none; 
stroke:#000000; stroke-width:0.020000; stroke-opacity:1; 
stroke-linecap:round; stroke-linejoin:round;">
<path d="M1.822000 1.931000
L1.823000 1.930000
" />
<path d="M1.822000 1.932000
L1.822000 1.931000
" />
<path d="M1.822000 1.933000
L1.822000 1.932000
" />
<path d="M1.822000 1.934000
L1.822000 1.933000
" />
<path d="M1.823000 0.358000
L1.822000 0.357000
" />
<path d="M1.823000 0.359000
L1.823000 0.358000
" />
<path d="M1.823000 0.360000
L1.823000 0.359000
" />
<path d="M1.823000 0.361000
L1.823000 0.360000
" />
<path d="M1.823000 0.362000
L1.823000 0.361000
" />
<path d="M1.823000 0.363000
L1.823000 0.362000
" />
<path d="M1.823000 0.364000
L1.823000 0.363000
" />
<path d="M1.823000 0.365000
L1.823000 0.364000
" />
<path d="M1.823000 0.366000
L1.823000 0.365000
" />
<path d="M1.823000 0.367000
L1.823000 0.366000
" />
<path d="M1.823000 1.921000
L1.822000 1.920000
" />
<path d="M1.823000 1.922000
L1.823000 1.921000
" />
<path d="M1.823000 1.923000
L1.823000 1.922000
" />
<path d="M1.823000 1.924000
L1.823000 1.923000
" />
<path d="M1.823000 1.925000
L1.823000 1.924000
" />
<path d="M1.823000 1.926000
L1.823000 1.925000
" />
<path d="M1.823000 1.927000
L1.823000 1.926000
" />
<path d="M1.823000 1.928000
L1.823000 1.927000
" />
<path d="M1.823000 1.929000
L1.823000 1.928000
" />
<path d="M1.823000 1.930000
L1.823000 1.929000
" />
<path d="M1.853000 0.296000
L0.595000 0.296000
" />
<path d="M1.854000 0.295000
L1.853000 0.296000
" />
<path d="M1.854000 1.993000
L1.853000 1.992000
" />
<path d="M1.855000 0.295000
L1.854000 0.295000
" />
<path d="M1.855000 0.296000
L1.855000 0.295000
" />
<path d="M1.855000 1.992000
L1.855000 1.993000
" />
<path d="M1.855000 1.993000
L1.854000 1.993000
" />
<path d="M1.856000 0.296000
L1.855000 0.296000
" />
<path d="M1.856000 1.992000
L1.855000 1.992000
" />
<path d="M1.857000 0.296000
L1.856000 0.296000
" />
<path d="M1.857000 1.992000
L1.856000 1.992000
" />
<path d="M1.858000 0.296000
L1.857000 0.296000
" />
<path d="M1.858000 1.992000
L1.857000 1.992000
" />
<path d="M1.859000 0.296000
L1.858000 0.296000
" />
<path d="M1.859000 1.992000
L1.858000 1.992000
" />
<path d="M1.860000 0.297000
L1.859000 0.296000
" />
<path d="M1.860000 1.991000
L1.859000 1.992000
" />
<path d="M1.861000 0.297000
L1.860000 0.297000
" />
<path d="M1.861000 1.991000
L1.860000 1.991000
" />
<path d="M1.862000 0.298000
L1.861000 0.297000
" />
<path d="M1.862000 1.990000
L1.861000 1.991000
" />
<path d="M1.866000 0.298000
L1.862000 0.298000
" />
<path d="M1.866000 1.990000
L1.862000 1.990000
" />
<path d="M1.867000 0.299000
L1.866000 0.298000
" />
</g>
<g style="fill:#000000; fill-opacity:1.000000; stroke:none;">
<circle cx="1.867000" cy="0.299000" r="0.010000" /> 
</g>
<g style="fill:none; 
stroke:#000000; stroke-width:0.020000; stroke-opacity:1; 
stroke-linecap:round; stroke-linejoin:round;">
<path d="M1.867000 1.989000
L1.866000 1.990000
" />
</g>
<g style="fill:#000000; fill-opacity:1.000000; stroke:none;">
<circle cx="1.867000" cy="1.989000" r="0.010000" /> 
</g>
<g style="fill:none; 
stroke:#000000; stroke-width:0.020000; stroke-opacity:1; 
stroke-linecap:round; stroke-linejoin:round;">
<path d="M1.868000 0.300000
L1.867000 0.299000
" />
<path d="M1.868000 1.988000
L1.867000 1.989000
" />
<path d="M1.869000 0.301000
L1.868000 0.300000
" />
<path d="M1.869000 1.987000
L1.868000 1.988000
" />
<path d="M1.870000 0.301000
L1.869000 0.301000
" />
<path d="M1.870000 0.302000
L1.870000 0.301000
" />
<path d="M1.870000 1.986000
L1.870000 1.987000
" />
<path d="M1.870000 1.987000
L1.869000 1.987000
" />
<path d="M1.871000 0.303000
L1.870000 0.302000
" />
<path d="M1.871000 1.985000
L1.870000 1.986000
" />
<path d="M1.872000 0.304000
L1.871000 0.303000
" />
</g>
<g style="fill:#000000; fill-opacity:1.000000; stroke:none;">
<circle cx="1.872000" cy="0.304000" r="0.010000" /> 
</g>
<g style="fill:none; 
stroke:#000000; stroke-width:0.020000; stroke-opacity:1; 
stroke-linecap:round; stroke-linejoin:round;">
<path d="M1.872000 1.984000
L1.871000 1.985000
" />
</g>
<g style="fill:#000000; fill-opacity:1.000000; stroke:none;">
<circle cx="1.872000" cy="1.984000" r="0.010000" /> 
</g>
<g style="fill:none; 
stroke:#000000; stroke-width:0.020000; stroke-opacity:1; 
stroke-linecap:round; stroke-linejoin:round;">
<path d="M1.873000 0.305000
L1.872000 0.304000
" />
<path d="M1.873000 0.306000
L1.873000 0.305000
" />
<path d="M1.873000 1.982000
L1.873000 1.983000
" />
<path d="M1.873000 1.983000
L1.872000 1.984000
" />
<path d="M1.874000 0.307000
L1.873000 0.306000
" />
<path d="M1.874000 0.308000
L1.874000 0.307000
" />
<path d="M1.874000 1.980000
L1.874000 1.981000
" />
<path d="M1.874000 1.981000
L1.873000 1.982000
" />
<path d="M1.875000 0.309000
L1.874000 0.308000
" />
<path d="M1.875000 0.310000
L1.875000 0.309000
" />
<path d="M1.875000 0.311000
L1.875000 0.310000
" />
<path d="M1.875000 0.312000
L1.875000 0.311000
" />
</g>
<g style="fill:#000000; fill-opacity:1.000000; stroke:none;">
<circle cx="1.875000" cy="0.312000" r="0.010000" /> 
<circle cx="1.875000" cy="1.977000" r="0.010000" /> 
<circle cx="1.875000" cy="1.977000" r="0.010000" /> 
</g>
<g style="fill:none; 
stroke:#000000; stroke-width:0.020000; stroke-opacity:1; 
stroke-linecap:round; stroke-linejoin:round;">
<path d="M1.875000 1.977000
L1.875000 1.978000
" />
<path d="M1.875000 1.978000
L1.875000 1.979000
" />
<path d="M1.875000 1.979000
L1.874000 1.980000
" />
<path d="M1.876000 0.312000
L1.875000 0.312000
" />
</g>
<g style="fill:#000000; fill-opacity:1.000000; stroke:none;">
<circle cx="1.876000" cy="0.312000" r="0.010000" /> 
</g>
<g style="fill:none; 
stroke:#000000; stroke-width:0.020000; stroke-opacity:1; 
stroke-linecap:round; stroke-linejoin:round;">
<path d="M1.876000 0.313000
L1.876000 0.312000
" />
<path d="M1.876000 0.812000
L1.928000 0.812000
" />
<path d="M1.876000 1.316000
L1.928000 1.316000
" />
<path d="M1.876000 1.816000
L1.928000 1.816000
" />
<path d="M1.876000 1.975000
L1.876000 0.313000
" />
<path d="M1.876000 1.975000
L1.876000 1.976000
" />
<path d="M1.876000 1.976000
L1.876000 1.977000
" />
<path d="M1.876000 1.977000
L1.875000 1.977000
" />
<path d="M1.928000 0.472000
L1.876000 0.472000
" />
<path d="M1.928000 0.475000
L1.928000 0.472000
" />
<path d="M1.928000 0.477000
L1.928000 0.475000
" />
<path d="M1.928000 0.480000
L1.928000 0.477000
" />
<path d="M1.928000 0.482000
L1.928000 0.480000
" />
<path d="M1.928000 0.484000
L1.928000 0.482000
" />
<path d="M1.928000 0.487000
L1.928000 0.484000
" />
<path d="M1.928000 0.489000
L1.928000 0.487000
" />
<path d="M1.928000 0.797000
L1.929000 0.795000
" />
<path d="M1.928000 0.799000
L1.928000 0.797000
" />
<path d="M1.928000 0.801000
L1.928000 0.799000
" />
<path d="M1.928000 0.803000
L1.928000 0.801000
" />
<path d="M1.928000 0.805000
L1.928000 0.803000
" />
<path d="M1.928000 0.808000
L1.928000 0.805000
" />
<path d="M1.928000 0.810000
L1.928000 0.808000
" />
<path d="M1.928000 0.812000
L1.928000 0.810000
" />
<path d="M1.928000 0.973000
L1.876000 0.973000
" />
<path d="M1.928000 0.975000
L1.928000 0.973000
" />
<path d="M1.928000 0.977000
L1.928000 0.975000
" />
<path d="M1.928000 0.980000
L1.928000 0.977000
" />
<path d="M1.928000 0.982000
L1.928000 0.980000
" />
<path d="M1.928000 0.987000
L1.928000 0.982000
" />
<path d="M1.928000 0.990000
L1.928000 0.987000
" />
<path d="M1.928000 0.992000
L1.928000 0.990000
" />
<path d="M1.928000 1.296000
L1.929000 1.294000
" />
<path d="M1.928000 1.298000
L1.928000 1.296000
" />
<path d="M1.928000 1.301000
L1.928000 1.298000
" />
<path d="M1.928000 1.306000
L1.928000 1.301000
" />
<path d="M1.928000 1.308000
L1.928000 1.306000
" />
<path d="M1.928000 1.311000
L1.928000 1.308000
" />
<path d="M1.928000 1.313000
L1.928000 1.311000
" />
<path d="M1.928000 1.316000
L1.928000 1.313000
" />
<path d="M1.928000 1.476000
L1.876000 1.476000
" />
<path d="M1.928000 1.478000
L1.928000 1.476000
" />
<path d="M1.928000 1.480000
L1.928000 1.478000
" />
<path d="M1.928000 1.483000
L1.928000 1.480000
" />
<path d="M1.928000 1.485000
L1.928000 1.483000
" />
<path d="M1.928000 1.487000
L1.928000 1.485000
" />
<path d="M1.928000 1.489000
L1.928000 1.487000
" />
<path d="M1.928000 1.491000
L1.928000 1.489000
" />
<path d="M1.928000 1.799000
L1.929000 1.797000
" />
<path d="M1.928000 1.801000
L1.928000 1.799000
" />
<path d="M1.928000 1.804000
L1.928000 1.801000
" />
<path d="M1.928000 1.806000
L1.928000 1.804000
" />
<path d="M1.928000 1.808000
L1.928000 1.806000
" />
<path d="M1.928000 1.811000
L1.928000 1.808000
" />
<path d="M1.928000 1.813000
L1.928000 1.811000
" />
<path d="M1.928000 1.816000
L1.928000 1.813000
" />
<path d="M1.929000 0.491000
L1.928000 0.489000
" />
<path d="M1.929000 0.795000
L1.930000 0.793000
" />
<path d="M1.929000 0.994000
L1.928000 0.992000
" />
<path d="M1.929000 1.294000
L1.930000 1.292000
" />
<path d="M1.929000 1.493000
L1.928000 1.491000
" />
<path d="M1.929000 1.797000
L1.930000 1.795000
" />
<path d="M1.930000 0.493000
L1.929000 0.491000
" />
<path d="M1.930000 0.793000
L1.931000 0.792000
" />
<path d="M1.930000 0.996000
L1.929000 0.994000
" />
<path d="M1.930000 1.292000
L1.931000 1.289000
" />
<path d="M1.930000 1.495000
L1.929000 1.493000
" />
<path d="M1.930000 1.795000
L1.931000 1.792000
" />
<path d="M1.931000 0.496000
L1.930000 0.493000
" />
<path d="M1.931000 0.792000
L1.932000 0.790000
" />
<path d="M1.931000 0.999000
L1.930000 0.996000
" />
<path d="M1.931000 1.289000
L1.932000 1.289000
" />
<path d="M1.931000 1.496000
L1.930000 1.495000
" />
<path d="M1.931000 1.792000
L1.932000 1.790000
" />
<path d="M1.932000 0.498000
L1.931000 0.496000
" />
<path d="M1.932000 0.790000
L1.933000 0.788000
" />
<path d="M1.932000 1.000000
L1.931000 0.999000
" />
<path d="M1.932000 1.289000
L1.933000 1.287000
" />
<path d="M1.932000 1.498000
L1.931000 1.496000
" />
<path d="M1.932000 1.790000
L1.933000 1.788000
" />
<path d="M1.933000 0.500000
L1.932000 0.498000
" />
<path d="M1.933000 0.788000
L1.934000 0.786000
" />
<path d="M1.933000 1.001000
L1.932000 1.000000
" />
<path d="M1.933000 1.287000
L1.934000 1.286000
" />
<path d="M1.933000 1.500000
L1.932000 1.498000
" />
<path d="M1.933000 1.788000
L1.934000 1.786000
" />
<path d="M1.934000 0.502000
L1.933000 0.500000
" />
<path d="M1.934000 0.786000
L1.936000 0.784000
" />
<path d="M1.934000 1.003000
L1.933000 1.001000
" />
<path d="M1.934000 1.286000
L1.936000 1.284000
" />
<path d="M1.934000 1.502000
L1.933000 1.500000
" />
<path d="M1.934000 1.786000
L1.936000 1.781000
" />
<path d="M1.936000 0.507000
L1.934000 0.502000
" />
<path d="M1.936000 0.784000
L1.937000 0.782000
" />
<path d="M1.936000 1.004000
L1.934000 1.003000
" />
<path d="M1.936000 1.284000
L1.937000 1.282000
" />
<path d="M1.936000 1.504000
L1.934000 1.502000
" />
<path d="M1.936000 1.781000
L1.937000 1.779000
" />
<path d="M1.937000 0.509000
L1.936000 0.507000
" />
<path d="M1.937000 0.782000
L1.939000 0.780000
" />
<path d="M1.937000 1.006000
L1.936000 1.004000
" />
<path d="M1.937000 1.282000
L1.939000 1.280000
" />
<path d="M1.937000 1.506000
L1.936000 1.504000
" />
<path d="M1.937000 1.779000
L1.939000 1.777000
" />
<path d="M1.939000 0.511000
L1.937000 0.509000
" />
</g>
<g style="fill:#000000; fill-opacity:1.000000; stroke:none;">
<circle cx="1.939000" cy="0.511000" r="0.010000" /> 
<circle cx="1.939000" cy="0.780000" r="0.010000" /> 
</g>
<g style="fill:none; 
stroke:#000000; stroke-width:0.020000; stroke-opacity:1; 
stroke-linecap:round; stroke-linejoin:round;">
<path d="M1.939000 0.780000
L1.940000 0.779000
" />
<path d="M1.939000 1.008000
L1.937000 1.006000
" />
</g>
<g style="fill:#000000; fill-opacity:1.000000; stroke:none;">
<circle cx="1.939000" cy="1.008000" r="0.010000" /> 
<circle cx="1.939000" cy="1.280000" r="0.010000" /> 
</g>
<g style="fill:none; 
stroke:#000000; stroke-width:0.020000; stroke-opacity:1; 
stroke-linecap:round; stroke-linejoin:round;">
<path d="M1.939000 1.280000
L1.940000 1.279000
" />
<path d="M1.939000 1.508000
L1.937000 1.506000
" />
</g>
<g style="fill:#000000; fill-opacity:1.000000; stroke:none;">
<circle cx="1.939000" cy="1.508000" r="0.010000" /> 
<circle cx="1.939000" cy="1.777000" r="0.010000" /> 
</g>
<g style="fill:none; 
stroke:#000000; stroke-width:0.020000; stroke-opacity:1; 
stroke-linecap:round; stroke-linejoin:round;">
<path d="M1.939000 1.777000
L1.940000 1.776000
" />
<path d="M1.940000 0.512000
L1.939000 0.511000
" />
<path d="M1.940000 0.779000
L1.942000 0.777000
" />
<path d="M1.940000 1.009000
L1.939000 1.008000
" />
<path d="M1.940000 1.279000
L1.942000 1.277000
" />
<path d="M1.940000 1.509000
L1.939000 1.508000
" />
<path d="M1.940000 1.776000
L1.942000 1.774000
" />
<path d="M1.942000 0.514000
L1.940000 0.512000
" />
<path d="M1.942000 0.777000
L1.944000 0.776000
" />
<path d="M1.942000 1.011000
L1.940000 1.009000
" />
<path d="M1.942000 1.277000
L1.944000 1.276000
" />
<path d="M1.942000 1.511000
L1.940000 1.509000
" />
<path d="M1.942000 1.774000
L1.944000 1.773000
" />
<path d="M1.944000 0.515000
L1.942000 0.514000
" />
<path d="M1.944000 0.776000
L1.946000 0.774000
" />
<path d="M1.944000 1.012000
L1.942000 1.011000
" />
<path d="M1.944000 1.276000
L1.946000 1.274000
" />
<path d="M1.944000 1.512000
L1.942000 1.511000
" />
<path d="M1.944000 1.773000
L1.946000 1.771000
" />
<path d="M1.946000 0.517000
L1.944000 0.515000
" />
<path d="M1.946000 0.774000
L1.948000 0.773000
" />
<path d="M1.946000 1.014000
L1.944000 1.012000
" />
<path d="M1.946000 1.274000
L1.948000 1.270000
" />
<path d="M1.946000 1.514000
L1.944000 1.512000
" />
<path d="M1.946000 1.771000
L1.948000 1.770000
" />
<path d="M1.948000 0.518000
L1.946000 0.517000
" />
<path d="M1.948000 0.773000
L1.950000 0.772000
" />
<path d="M1.948000 1.018000
L1.946000 1.014000
" />
<path d="M1.948000 1.270000
L1.950000 1.269000
" />
<path d="M1.948000 1.515000
L1.946000 1.514000
" />
<path d="M1.948000 1.770000
L1.950000 1.769000
" />
<path d="M1.950000 0.519000
L1.948000 0.518000
" />
<path d="M1.950000 0.772000
L1.952000 0.770000
" />
<path d="M1.950000 1.019000
L1.948000 1.018000
" />
<path d="M1.950000 1.269000
L1.952000 1.267000
" />
<path d="M1.950000 1.516000
L1.948000 1.515000
" />
<path d="M1.950000 1.769000
L1.952000 1.767000
" />
<path d="M1.952000 0.521000
L1.950000 0.519000
" />
<path d="M1.952000 0.770000
L1.954000 0.769000
" />
<path d="M1.952000 1.021000
L1.950000 1.019000
" />
<path d="M1.952000 1.267000
L1.954000 1.266000
" />
<path d="M1.952000 1.518000
L1.950000 1.516000
" />
<path d="M1.952000 1.767000
L1.954000 1.766000
" />
<path d="M1.954000 0.522000
L1.952000 0.521000
" />
<path d="M1.954000 0.769000
L1.956000 0.769000
" />
<path d="M1.954000 1.022000
L1.952000 1.021000
" />
<path d="M1.954000 1.266000
L1.956000 1.266000
" />
<path d="M1.954000 1.519000
L1.952000 1.518000
" />
<path d="M1.954000 1.766000
L1.956000 1.766000
" />
<path d="M1.956000 0.522000
L1.954000 0.522000
" />
<path d="M1.956000 0.769000
L1.958000 0.768000
" />
<path d="M1.956000 1.022000
L1.954000 1.022000
" />
<path d="M1.956000 1.266000
L1.958000 1.265000
" />
<path d="M1.956000 1.519000
L1.954000 1.519000
" />
<path d="M1.956000 1.766000
L1.958000 1.765000
" />
<path d="M1.958000 0.523000
L1.956000 0.522000
" />
<path d="M1.958000 0.768000
L1.961000 0.767000
" />
<path d="M1.958000 1.023000
L1.956000 1.022000
" />
<path d="M1.958000 1.265000
L1.961000 1.264000
" />
<path d="M1.958000 1.520000
L1.956000 1.519000
" />
<path d="M1.958000 1.765000
L1.961000 1.764000
" />
<path d="M1.961000 0.524000
L1.958000 0.523000
" />
<path d="M1.961000 0.767000
L1.963000 0.766000
" />
<path d="M1.961000 1.024000
L1.958000 1.023000
" />
<path d="M1.961000 1.264000
L1.963000 1.264000
" />
<path d="M1.961000 1.521000
L1.958000 1.520000
" />
<path d="M1.961000 1.764000
L1.963000 1.763000
" />
<path d="M1.963000 0.525000
L1.961000 0.524000
" />
<path d="M1.963000 0.766000
L1.965000 0.766000
" />
<path d="M1.963000 1.025000
L1.961000 1.024000
" />
<path d="M1.963000 1.264000
L1.965000 1.264000
" />
<path d="M1.963000 1.522000
L1.961000 1.521000
" />
<path d="M1.963000 1.763000
L1.965000 1.763000
" />
<path d="M1.965000 0.525000
L1.963000 0.525000
" />
<path d="M1.965000 0.766000
L1.968000 0.766000
" />
<path d="M1.965000 1.025000
L1.963000 1.025000
" />
<path d="M1.965000 1.264000
L1.968000 1.264000
" />
<path d="M1.965000 1.522000
L1.963000 1.522000
" />
<path d="M1.965000 1.763000
L1.968000 1.763000
" />
<path d="M1.968000 0.525000
L1.965000 0.525000
" />
<path d="M1.968000 0.766000
L1.970000 0.766000
" />
<path d="M1.968000 1.025000
L1.965000 1.025000
" />
<path d="M1.968000 1.264000
L1.970000 1.264000
" />
<path d="M1.968000 1.522000
L1.965000 1.522000
" />
<path d="M1.968000 1.763000
L1.970000 1.763000
" />
<path d="M1.970000 0.525000
L1.968000 0.525000
" />
<path d="M1.970000 0.766000
L1.972000 0.766000
" />
<path d="M1.970000 1.025000
L1.968000 1.025000
" />
<path d="M1.970000 1.264000
L1.972000 1.264000
" />
<path d="M1.970000 1.522000
L1.968000 1.522000
" />
<path d="M1.970000 1.763000
L1.972000 1.762000
" />
<path d="M1.972000 0.526000
L1.970000 0.525000
" />
<path d="M1.972000 0.766000
L2.072000 0.766000
" />
<path d="M1.972000 1.025000
L1.970000 1.025000
" />
<path d="M1.972000 1.264000
L2.072000 1.264000
" />
<path d="M1.972000 1.522000
L1.970000 1.522000
" />
<path d="M1.972000 1.762000
L2.072000 1.762000
" />
<path d="M2.072000 0.526000
L1.972000 0.526000
" />
<path d="M2.072000 0.766000
L2.072000 0.526000
" />
<path d="M2.072000 1.025000
L1.972000 1.025000
" />
<path d="M2.072000 1.264000
L2.072000 1.025000
" />
<path d="M2.072000 1.522000
L1.972000 1.522000
" />
<path d="M2.072000 1.762000
L2.072000 1.522000
" />
</g> 
</svg>
