<?xml version="1.0" standalone="no"?>
 <!DOCTYPE svg PUBLIC "-//W3C//DTD SVG 1.1//EN" 
 "http://www.w3.org/Graphics/SVG/1.1/DTD/svg11.dtd"> 
<svg
  xmlns:svg="http://www.w3.org/2000/svg"
  xmlns="http://www.w3.org/2000/svg"
  xmlns:xlink="http://www.w3.org/1999/xlink"
  version="1.1"
  width="6.9342mm" height="8.3312mm" viewBox="0.0000 0.0000 6.9342 8.3312">
<title>SVG Image created as outline.svg date 2025/06/16 09:18:13 </title>
  <desc>Image generated by PCBNEW </desc>
<g style="fill:#000000; fill-opacity:1.0000;stroke:#000000; stroke-opacity:1.0000;
stroke-linecap:round; stroke-linejoin:round;"
 transform="translate(0 0) scale(1 1)">
</g>
<g style="fill:none; 
stroke:#000000; stroke-width:0.0200; stroke-opacity:1; 
stroke-linecap:round; stroke-linejoin:round;">
<path d="M0.2750 2.4750
L0.3530 2.5530
" />
<path d="M0.2750 2.4750
L6.7750 2.4750
" />
<path d="M0.2750 5.9750
L0.2750 2.4750
" />
<path d="M0.2750 5.9750
L0.3530 5.8970
" />
<path d="M0.2750 5.9750
L6.7750 5.9750
" />
<path d="M0.3530 2.5530
L0.3530 5.8970
" />
<path d="M0.3530 5.8970
L6.6970 5.8970
" />
<path d="M0.7550 5.9750
L0.7550 6.5050
" />
<path d="M0.7550 5.9750
L1.2150 5.9750
" />
<path d="M0.7550 6.5050
L1.2150 6.5050
" />
<path d="M0.7550 6.5370
L0.7550 6.5050
" />
<path d="M0.7550 6.5690
L0.7550 6.5370
" />
<path d="M0.7550 6.6010
L0.7550 6.5690
" />
<path d="M0.7550 6.6320
L0.7550 6.6010
" />
<path d="M0.7550 6.6620
L0.7550 6.6320
" />
<path d="M0.7550 6.6910
L0.7550 6.6620
" />
<path d="M0.7550 6.7200
L0.7550 6.6910
" />
<path d="M0.7550 6.7470
L0.7550 6.7200
" />
<path d="M0.7550 6.7730
L0.7550 6.7470
" />
<path d="M0.7550 6.7970
L0.7550 6.7730
" />
<path d="M0.7550 6.8200
L0.7550 6.7970
" />
<path d="M0.7550 6.8410
L0.7550 6.8200
" />
<path d="M0.7550 6.8600
L0.7550 6.8410
" />
<path d="M0.7550 6.8770
L0.7550 6.8600
" />
<path d="M0.7550 6.8770
L1.2150 6.8770
" />
<path d="M0.7550 6.9580
L0.7550 6.8770
" />
<path d="M0.7550 6.9580
L1.2150 6.9580
" />
<path d="M0.7550 6.9630
L0.7550 6.9580
" />
<path d="M0.7550 6.9700
L0.7550 6.9630
" />
<path d="M0.7550 6.9760
L0.7550 6.9700
" />
<path d="M0.7550 6.9830
L0.7550 6.9760
" />
<path d="M0.7550 6.9910
L0.7550 6.9830
" />
<path d="M0.7550 6.9990
L0.7550 6.9910
" />
<path d="M0.7550 7.0070
L0.7550 6.9990
" />
<path d="M0.7550 7.0160
L0.7550 7.0070
" />
<path d="M0.7550 7.0250
L0.7550 7.0160
" />
<path d="M0.7550 7.0350
L0.7550 7.0250
" />
<path d="M0.7550 7.0450
L0.7550 7.0350
" />
<path d="M0.7550 7.0550
L0.7550 7.0450
" />
<path d="M0.7550 7.0650
L0.7550 7.0550
" />
<path d="M0.7550 7.0750
L0.7550 7.0650
" />
<path d="M0.7550 7.0750
L0.7550 7.7790
" />
<path d="M0.7550 7.0750
L1.2150 7.0750
" />
<path d="M0.7550 7.7790
L1.2150 7.7790
" />
<path d="M1.2150 5.9750
L1.2150 6.5050
" />
<path d="M1.2150 6.5370
L1.2150 6.5050
" />
<path d="M1.2150 6.5690
L1.2150 6.5370
" />
<path d="M1.2150 6.6010
L1.2150 6.5690
" />
<path d="M1.2150 6.6320
L1.2150 6.6010
" />
<path d="M1.2150 6.6620
L1.2150 6.6320
" />
<path d="M1.2150 6.6910
L1.2150 6.6620
" />
<path d="M1.2150 6.7200
L1.2150 6.6910
" />
<path d="M1.2150 6.7470
L1.2150 6.7200
" />
<path d="M1.2150 6.7730
L1.2150 6.7470
" />
<path d="M1.2150 6.7970
L1.2150 6.7730
" />
<path d="M1.2150 6.8200
L1.2150 6.7970
" />
<path d="M1.2150 6.8410
L1.2150 6.8200
" />
<path d="M1.2150 6.8600
L1.2150 6.8410
" />
<path d="M1.2150 6.8770
L1.2150 6.8600
" />
<path d="M1.2150 6.8770
L1.2150 6.9580
" />
<path d="M1.2150 6.9630
L1.2150 6.9580
" />
<path d="M1.2150 6.9700
L1.2150 6.9630
" />
<path d="M1.2150 6.9760
L1.2150 6.9700
" />
<path d="M1.2150 6.9830
L1.2150 6.9760
" />
<path d="M1.2150 6.9910
L1.2150 6.9830
" />
<path d="M1.2150 6.9990
L1.2150 6.9910
" />
<path d="M1.2150 7.0070
L1.2150 6.9990
" />
<path d="M1.2150 7.0160
L1.2150 7.0070
" />
<path d="M1.2150 7.0250
L1.2150 7.0160
" />
<path d="M1.2150 7.0350
L1.2150 7.0250
" />
<path d="M1.2150 7.0450
L1.2150 7.0350
" />
<path d="M1.2150 7.0550
L1.2150 7.0450
" />
<path d="M1.2150 7.0650
L1.2150 7.0550
" />
<path d="M1.2150 7.0750
L1.2150 7.0650
" />
<path d="M1.2150 7.0750
L1.2150 7.7790
" />
<path d="M2.0250 1.3750
L2.0250 0.6710
" />
<path d="M2.0250 1.3750
L2.0250 1.3850
" />
<path d="M2.0250 1.3850
L2.0250 1.3950
" />
<path d="M2.0250 1.3950
L2.0250 1.4050
" />
<path d="M2.0250 1.4050
L2.0250 1.4150
" />
<path d="M2.0250 1.4150
L2.0250 1.4250
" />
<path d="M2.0250 1.4250
L2.0250 1.4340
" />
<path d="M2.0250 1.4340
L2.0250 1.4430
" />
<path d="M2.0250 1.4430
L2.0250 1.4510
" />
<path d="M2.0250 1.4510
L2.0250 1.4590
" />
<path d="M2.0250 1.4590
L2.0250 1.4670
" />
<path d="M2.0250 1.4670
L2.0250 1.4740
" />
<path d="M2.0250 1.4740
L2.0250 1.4800
" />
<path d="M2.0250 1.4800
L2.0250 1.4870
" />
<path d="M2.0250 1.4870
L2.0250 1.4920
" />
<path d="M2.0250 1.5730
L2.0250 1.4920
" />
<path d="M2.0250 1.5730
L2.0250 1.5900
" />
<path d="M2.0250 1.5900
L2.0250 1.6090
" />
<path d="M2.0250 1.6090
L2.0250 1.6300
" />
<path d="M2.0250 1.6300
L2.0250 1.6530
" />
<path d="M2.0250 1.6530
L2.0250 1.6770
" />
<path d="M2.0250 1.6770
L2.0250 1.7030
" />
<path d="M2.0250 1.7030
L2.0250 1.7300
" />
<path d="M2.0250 1.7300
L2.0250 1.7590
" />
<path d="M2.0250 1.7590
L2.0250 1.7880
" />
<path d="M2.0250 1.7880
L2.0250 1.8180
" />
<path d="M2.0250 1.8180
L2.0250 1.8490
" />
<path d="M2.0250 1.8490
L2.0250 1.8810
" />
<path d="M2.0250 1.8810
L2.0250 1.9130
" />
<path d="M2.0250 1.9130
L2.0250 1.9450
" />
<path d="M2.0250 2.4750
L2.0250 1.9450
" />
<path d="M2.0250 5.9750
L2.0250 6.5050
" />
<path d="M2.0250 5.9750
L2.4850 5.9750
" />
<path d="M2.0250 6.5050
L2.4850 6.5050
" />
<path d="M2.0250 6.5370
L2.0250 6.5050
" />
<path d="M2.0250 6.5690
L2.0250 6.5370
" />
<path d="M2.0250 6.6010
L2.0250 6.5690
" />
<path d="M2.0250 6.6320
L2.0250 6.6010
" />
<path d="M2.0250 6.6620
L2.0250 6.6320
" />
<path d="M2.0250 6.6910
L2.0250 6.6620
" />
<path d="M2.0250 6.7200
L2.0250 6.6910
" />
<path d="M2.0250 6.7470
L2.0250 6.7200
" />
<path d="M2.0250 6.7730
L2.0250 6.7470
" />
<path d="M2.0250 6.7970
L2.0250 6.7730
" />
<path d="M2.0250 6.8200
L2.0250 6.7970
" />
<path d="M2.0250 6.8410
L2.0250 6.8200
" />
<path d="M2.0250 6.8600
L2.0250 6.8410
" />
<path d="M2.0250 6.8770
L2.0250 6.8600
" />
<path d="M2.0250 6.8770
L2.4850 6.8770
" />
<path d="M2.0250 6.9580
L2.0250 6.8770
" />
<path d="M2.0250 6.9580
L2.4850 6.9580
" />
<path d="M2.0250 6.9630
L2.0250 6.9580
" />
<path d="M2.0250 6.9700
L2.0250 6.9630
" />
<path d="M2.0250 6.9760
L2.0250 6.9700
" />
<path d="M2.0250 6.9830
L2.0250 6.9760
" />
<path d="M2.0250 6.9910
L2.0250 6.9830
" />
<path d="M2.0250 6.9990
L2.0250 6.9910
" />
<path d="M2.0250 7.0070
L2.0250 6.9990
" />
<path d="M2.0250 7.0160
L2.0250 7.0070
" />
<path d="M2.0250 7.0250
L2.0250 7.0160
" />
<path d="M2.0250 7.0350
L2.0250 7.0250
" />
<path d="M2.0250 7.0450
L2.0250 7.0350
" />
<path d="M2.0250 7.0550
L2.0250 7.0450
" />
<path d="M2.0250 7.0650
L2.0250 7.0550
" />
<path d="M2.0250 7.0750
L2.0250 7.0650
" />
<path d="M2.0250 7.0750
L2.0250 7.7790
" />
<path d="M2.0250 7.0750
L2.4850 7.0750
" />
<path d="M2.0250 7.7790
L2.4850 7.7790
" />
<path d="M2.4850 5.9750
L2.4850 6.5050
" />
<path d="M2.4850 6.5370
L2.4850 6.5050
" />
<path d="M2.4850 6.5690
L2.4850 6.5370
" />
<path d="M2.4850 6.6010
L2.4850 6.5690
" />
<path d="M2.4850 6.6320
L2.4850 6.6010
" />
<path d="M2.4850 6.6620
L2.4850 6.6320
" />
<path d="M2.4850 6.6910
L2.4850 6.6620
" />
<path d="M2.4850 6.7200
L2.4850 6.6910
" />
<path d="M2.4850 6.7470
L2.4850 6.7200
" />
<path d="M2.4850 6.7730
L2.4850 6.7470
" />
<path d="M2.4850 6.7970
L2.4850 6.7730
" />
<path d="M2.4850 6.8200
L2.4850 6.7970
" />
<path d="M2.4850 6.8410
L2.4850 6.8200
" />
<path d="M2.4850 6.8600
L2.4850 6.8410
" />
<path d="M2.4850 6.8770
L2.4850 6.8600
" />
<path d="M2.4850 6.8770
L2.4850 6.9580
" />
<path d="M2.4850 6.9630
L2.4850 6.9580
" />
<path d="M2.4850 6.9700
L2.4850 6.9630
" />
<path d="M2.4850 6.9760
L2.4850 6.9700
" />
<path d="M2.4850 6.9830
L2.4850 6.9760
" />
<path d="M2.4850 6.9910
L2.4850 6.9830
" />
<path d="M2.4850 6.9990
L2.4850 6.9910
" />
<path d="M2.4850 7.0070
L2.4850 6.9990
" />
<path d="M2.4850 7.0160
L2.4850 7.0070
" />
<path d="M2.4850 7.0250
L2.4850 7.0160
" />
<path d="M2.4850 7.0350
L2.4850 7.0250
" />
<path d="M2.4850 7.0450
L2.4850 7.0350
" />
<path d="M2.4850 7.0550
L2.4850 7.0450
" />
<path d="M2.4850 7.0650
L2.4850 7.0550
" />
<path d="M2.4850 7.0750
L2.4850 7.0650
" />
<path d="M2.4850 7.0750
L2.4850 7.7790
" />
<path d="M3.2950 5.9750
L3.2950 6.5050
" />
<path d="M3.2950 5.9750
L3.7550 5.9750
" />
<path d="M3.2950 6.5050
L3.7550 6.5050
" />
<path d="M3.2950 6.5370
L3.2950 6.5050
" />
<path d="M3.2950 6.5690
L3.2950 6.5370
" />
<path d="M3.2950 6.6010
L3.2950 6.5690
" />
<path d="M3.2950 6.6320
L3.2950 6.6010
" />
<path d="M3.2950 6.6620
L3.2950 6.6320
" />
<path d="M3.2950 6.6910
L3.2950 6.6620
" />
<path d="M3.2950 6.7200
L3.2950 6.6910
" />
<path d="M3.2950 6.7470
L3.2950 6.7200
" />
<path d="M3.2950 6.7730
L3.2950 6.7470
" />
<path d="M3.2950 6.7970
L3.2950 6.7730
" />
<path d="M3.2950 6.8200
L3.2950 6.7970
" />
<path d="M3.2950 6.8410
L3.2950 6.8200
" />
<path d="M3.2950 6.8600
L3.2950 6.8410
" />
<path d="M3.2950 6.8770
L3.2950 6.8600
" />
<path d="M3.2950 6.8770
L3.7550 6.8770
" />
<path d="M3.2950 6.9580
L3.2950 6.8770
" />
<path d="M3.2950 6.9580
L3.7550 6.9580
" />
<path d="M3.2950 6.9630
L3.2950 6.9580
" />
<path d="M3.2950 6.9700
L3.2950 6.9630
" />
<path d="M3.2950 6.9760
L3.2950 6.9700
" />
<path d="M3.2950 6.9830
L3.2950 6.9760
" />
<path d="M3.2950 6.9910
L3.2950 6.9830
" />
<path d="M3.2950 6.9990
L3.2950 6.9910
" />
<path d="M3.2950 7.0070
L3.2950 6.9990
" />
<path d="M3.2950 7.0160
L3.2950 7.0070
" />
<path d="M3.2950 7.0250
L3.2950 7.0160
" />
<path d="M3.2950 7.0350
L3.2950 7.0250
" />
<path d="M3.2950 7.0450
L3.2950 7.0350
" />
<path d="M3.2950 7.0550
L3.2950 7.0450
" />
<path d="M3.2950 7.0650
L3.2950 7.0550
" />
<path d="M3.2950 7.0750
L3.2950 7.0650
" />
<path d="M3.2950 7.0750
L3.2950 7.7790
" />
<path d="M3.2950 7.0750
L3.7550 7.0750
" />
<path d="M3.2950 7.7790
L3.7550 7.7790
" />
<path d="M3.7550 5.9750
L3.7550 6.5050
" />
<path d="M3.7550 6.5370
L3.7550 6.5050
" />
<path d="M3.7550 6.5690
L3.7550 6.5370
" />
<path d="M3.7550 6.6010
L3.7550 6.5690
" />
<path d="M3.7550 6.6320
L3.7550 6.6010
" />
<path d="M3.7550 6.6620
L3.7550 6.6320
" />
<path d="M3.7550 6.6910
L3.7550 6.6620
" />
<path d="M3.7550 6.7200
L3.7550 6.6910
" />
<path d="M3.7550 6.7470
L3.7550 6.7200
" />
<path d="M3.7550 6.7730
L3.7550 6.7470
" />
<path d="M3.7550 6.7970
L3.7550 6.7730
" />
<path d="M3.7550 6.8200
L3.7550 6.7970
" />
<path d="M3.7550 6.8410
L3.7550 6.8200
" />
<path d="M3.7550 6.8600
L3.7550 6.8410
" />
<path d="M3.7550 6.8770
L3.7550 6.8600
" />
<path d="M3.7550 6.8770
L3.7550 6.9580
" />
<path d="M3.7550 6.9630
L3.7550 6.9580
" />
<path d="M3.7550 6.9700
L3.7550 6.9630
" />
<path d="M3.7550 6.9760
L3.7550 6.9700
" />
<path d="M3.7550 6.9830
L3.7550 6.9760
" />
<path d="M3.7550 6.9910
L3.7550 6.9830
" />
<path d="M3.7550 6.9990
L3.7550 6.9910
" />
<path d="M3.7550 7.0070
L3.7550 6.9990
" />
<path d="M3.7550 7.0160
L3.7550 7.0070
" />
<path d="M3.7550 7.0250
L3.7550 7.0160
" />
<path d="M3.7550 7.0350
L3.7550 7.0250
" />
<path d="M3.7550 7.0450
L3.7550 7.0350
" />
<path d="M3.7550 7.0550
L3.7550 7.0450
" />
<path d="M3.7550 7.0650
L3.7550 7.0550
" />
<path d="M3.7550 7.0750
L3.7550 7.0650
" />
<path d="M3.7550 7.0750
L3.7550 7.7790
" />
<path d="M4.5650 5.9750
L4.5650 6.5050
" />
<path d="M4.5650 5.9750
L5.0250 5.9750
" />
<path d="M4.5650 6.5050
L5.0250 6.5050
" />
<path d="M4.5650 6.5370
L4.5650 6.5050
" />
<path d="M4.5650 6.5690
L4.5650 6.5370
" />
<path d="M4.5650 6.6010
L4.5650 6.5690
" />
<path d="M4.5650 6.6320
L4.5650 6.6010
" />
<path d="M4.5650 6.6620
L4.5650 6.6320
" />
<path d="M4.5650 6.6910
L4.5650 6.6620
" />
<path d="M4.5650 6.7200
L4.5650 6.6910
" />
<path d="M4.5650 6.7470
L4.5650 6.7200
" />
<path d="M4.5650 6.7730
L4.5650 6.7470
" />
<path d="M4.5650 6.7970
L4.5650 6.7730
" />
<path d="M4.5650 6.8200
L4.5650 6.7970
" />
<path d="M4.5650 6.8410
L4.5650 6.8200
" />
<path d="M4.5650 6.8600
L4.5650 6.8410
" />
<path d="M4.5650 6.8770
L4.5650 6.8600
" />
<path d="M4.5650 6.8770
L5.0250 6.8770
" />
<path d="M4.5650 6.9580
L4.5650 6.8770
" />
<path d="M4.5650 6.9580
L5.0250 6.9580
" />
<path d="M4.5650 6.9630
L4.5650 6.9580
" />
<path d="M4.5650 6.9700
L4.5650 6.9630
" />
<path d="M4.5650 6.9760
L4.5650 6.9700
" />
<path d="M4.5650 6.9830
L4.5650 6.9760
" />
<path d="M4.5650 6.9910
L4.5650 6.9830
" />
<path d="M4.5650 6.9990
L4.5650 6.9910
" />
<path d="M4.5650 7.0070
L4.5650 6.9990
" />
<path d="M4.5650 7.0160
L4.5650 7.0070
" />
<path d="M4.5650 7.0250
L4.5650 7.0160
" />
<path d="M4.5650 7.0350
L4.5650 7.0250
" />
<path d="M4.5650 7.0450
L4.5650 7.0350
" />
<path d="M4.5650 7.0550
L4.5650 7.0450
" />
<path d="M4.5650 7.0650
L4.5650 7.0550
" />
<path d="M4.5650 7.0750
L4.5650 7.0650
" />
<path d="M4.5650 7.0750
L4.5650 7.7790
" />
<path d="M4.5650 7.0750
L5.0250 7.0750
" />
<path d="M4.5650 7.7790
L5.0250 7.7790
" />
<path d="M5.0250 0.6710
L2.0250 0.6710
" />
<path d="M5.0250 1.3750
L2.0250 1.3750
" />
<path d="M5.0250 1.3750
L5.0250 0.6710
" />
<path d="M5.0250 1.3750
L5.0250 1.3850
" />
<path d="M5.0250 1.3850
L5.0250 1.3950
" />
<path d="M5.0250 1.3950
L5.0250 1.4050
" />
<path d="M5.0250 1.4050
L5.0250 1.4150
" />
<path d="M5.0250 1.4150
L5.0250 1.4250
" />
<path d="M5.0250 1.4250
L5.0250 1.4340
" />
<path d="M5.0250 1.4340
L5.0250 1.4430
" />
<path d="M5.0250 1.4430
L5.0250 1.4510
" />
<path d="M5.0250 1.4510
L5.0250 1.4590
" />
<path d="M5.0250 1.4590
L5.0250 1.4670
" />
<path d="M5.0250 1.4670
L5.0250 1.4740
" />
<path d="M5.0250 1.4740
L5.0250 1.4800
" />
<path d="M5.0250 1.4800
L5.0250 1.4870
" />
<path d="M5.0250 1.4870
L5.0250 1.4920
" />
<path d="M5.0250 1.4920
L2.0250 1.4920
" />
<path d="M5.0250 1.4920
L5.0250 1.5730
" />
<path d="M5.0250 1.5730
L2.0250 1.5730
" />
<path d="M5.0250 1.5730
L5.0250 1.5900
" />
<path d="M5.0250 1.5900
L5.0250 1.6090
" />
<path d="M5.0250 1.6090
L5.0250 1.6300
" />
<path d="M5.0250 1.6300
L5.0250 1.6530
" />
<path d="M5.0250 1.6530
L5.0250 1.6770
" />
<path d="M5.0250 1.6770
L5.0250 1.7030
" />
<path d="M5.0250 1.7030
L5.0250 1.7300
" />
<path d="M5.0250 1.7300
L5.0250 1.7590
" />
<path d="M5.0250 1.7590
L5.0250 1.7880
" />
<path d="M5.0250 1.7880
L5.0250 1.8180
" />
<path d="M5.0250 1.8180
L5.0250 1.8490
" />
<path d="M5.0250 1.8490
L5.0250 1.8810
" />
<path d="M5.0250 1.8810
L5.0250 1.9130
" />
<path d="M5.0250 1.9130
L5.0250 1.9450
" />
<path d="M5.0250 1.9450
L2.0250 1.9450
" />
<path d="M5.0250 2.4750
L2.0250 2.4750
" />
<path d="M5.0250 2.4750
L5.0250 1.9450
" />
<path d="M5.0250 5.9750
L5.0250 6.5050
" />
<path d="M5.0250 6.5370
L5.0250 6.5050
" />
<path d="M5.0250 6.5690
L5.0250 6.5370
" />
<path d="M5.0250 6.6010
L5.0250 6.5690
" />
<path d="M5.0250 6.6320
L5.0250 6.6010
" />
<path d="M5.0250 6.6620
L5.0250 6.6320
" />
<path d="M5.0250 6.6910
L5.0250 6.6620
" />
<path d="M5.0250 6.7200
L5.0250 6.6910
" />
<path d="M5.0250 6.7470
L5.0250 6.7200
" />
<path d="M5.0250 6.7730
L5.0250 6.7470
" />
<path d="M5.0250 6.7970
L5.0250 6.7730
" />
<path d="M5.0250 6.8200
L5.0250 6.7970
" />
<path d="M5.0250 6.8410
L5.0250 6.8200
" />
<path d="M5.0250 6.8600
L5.0250 6.8410
" />
<path d="M5.0250 6.8770
L5.0250 6.8600
" />
<path d="M5.0250 6.8770
L5.0250 6.9580
" />
<path d="M5.0250 6.9630
L5.0250 6.9580
" />
<path d="M5.0250 6.9700
L5.0250 6.9630
" />
<path d="M5.0250 6.9760
L5.0250 6.9700
" />
<path d="M5.0250 6.9830
L5.0250 6.9760
" />
<path d="M5.0250 6.9910
L5.0250 6.9830
" />
<path d="M5.0250 6.9990
L5.0250 6.9910
" />
<path d="M5.0250 7.0070
L5.0250 6.9990
" />
<path d="M5.0250 7.0160
L5.0250 7.0070
" />
<path d="M5.0250 7.0250
L5.0250 7.0160
" />
<path d="M5.0250 7.0350
L5.0250 7.0250
" />
<path d="M5.0250 7.0450
L5.0250 7.0350
" />
<path d="M5.0250 7.0550
L5.0250 7.0450
" />
<path d="M5.0250 7.0650
L5.0250 7.0550
" />
<path d="M5.0250 7.0750
L5.0250 7.0650
" />
<path d="M5.0250 7.0750
L5.0250 7.7790
" />
<path d="M5.8350 5.9750
L5.8350 6.5050
" />
<path d="M5.8350 5.9750
L6.2950 5.9750
" />
<path d="M5.8350 6.5050
L6.2950 6.5050
" />
<path d="M5.8350 6.5370
L5.8350 6.5050
" />
<path d="M5.8350 6.5690
L5.8350 6.5370
" />
<path d="M5.8350 6.6010
L5.8350 6.5690
" />
<path d="M5.8350 6.6320
L5.8350 6.6010
" />
<path d="M5.8350 6.6620
L5.8350 6.6320
" />
<path d="M5.8350 6.6910
L5.8350 6.6620
" />
<path d="M5.8350 6.7200
L5.8350 6.6910
" />
<path d="M5.8350 6.7470
L5.8350 6.7200
" />
<path d="M5.8350 6.7730
L5.8350 6.7470
" />
<path d="M5.8350 6.7970
L5.8350 6.7730
" />
<path d="M5.8350 6.8200
L5.8350 6.7970
" />
<path d="M5.8350 6.8410
L5.8350 6.8200
" />
<path d="M5.8350 6.8600
L5.8350 6.8410
" />
<path d="M5.8350 6.8770
L5.8350 6.8600
" />
<path d="M5.8350 6.8770
L6.2950 6.8770
" />
<path d="M5.8350 6.9580
L5.8350 6.8770
" />
<path d="M5.8350 6.9580
L6.2950 6.9580
" />
<path d="M5.8350 6.9630
L5.8350 6.9580
" />
<path d="M5.8350 6.9700
L5.8350 6.9630
" />
<path d="M5.8350 6.9760
L5.8350 6.9700
" />
<path d="M5.8350 6.9830
L5.8350 6.9760
" />
<path d="M5.8350 6.9910
L5.8350 6.9830
" />
<path d="M5.8350 6.9990
L5.8350 6.9910
" />
<path d="M5.8350 7.0070
L5.8350 6.9990
" />
<path d="M5.8350 7.0160
L5.8350 7.0070
" />
<path d="M5.8350 7.0250
L5.8350 7.0160
" />
<path d="M5.8350 7.0350
L5.8350 7.0250
" />
<path d="M5.8350 7.0450
L5.8350 7.0350
" />
<path d="M5.8350 7.0550
L5.8350 7.0450
" />
<path d="M5.8350 7.0650
L5.8350 7.0550
" />
<path d="M5.8350 7.0750
L5.8350 7.0650
" />
<path d="M5.8350 7.0750
L5.8350 7.7790
" />
<path d="M5.8350 7.0750
L6.2950 7.0750
" />
<path d="M5.8350 7.7790
L6.2950 7.7790
" />
<path d="M6.2950 5.9750
L6.2950 6.5050
" />
<path d="M6.2950 6.5370
L6.2950 6.5050
" />
<path d="M6.2950 6.5690
L6.2950 6.5370
" />
<path d="M6.2950 6.6010
L6.2950 6.5690
" />
<path d="M6.2950 6.6320
L6.2950 6.6010
" />
<path d="M6.2950 6.6620
L6.2950 6.6320
" />
<path d="M6.2950 6.6910
L6.2950 6.6620
" />
<path d="M6.2950 6.7200
L6.2950 6.6910
" />
<path d="M6.2950 6.7470
L6.2950 6.7200
" />
<path d="M6.2950 6.7730
L6.2950 6.7470
" />
<path d="M6.2950 6.7970
L6.2950 6.7730
" />
<path d="M6.2950 6.8200
L6.2950 6.7970
" />
<path d="M6.2950 6.8410
L6.2950 6.8200
" />
<path d="M6.2950 6.8600
L6.2950 6.8410
" />
<path d="M6.2950 6.8770
L6.2950 6.8600
" />
<path d="M6.2950 6.8770
L6.2950 6.9580
" />
<path d="M6.2950 6.9630
L6.2950 6.9580
" />
<path d="M6.2950 6.9700
L6.2950 6.9630
" />
<path d="M6.2950 6.9760
L6.2950 6.9700
" />
<path d="M6.2950 6.9830
L6.2950 6.9760
" />
<path d="M6.2950 6.9910
L6.2950 6.9830
" />
<path d="M6.2950 6.9990
L6.2950 6.9910
" />
<path d="M6.2950 7.0070
L6.2950 6.9990
" />
<path d="M6.2950 7.0160
L6.2950 7.0070
" />
<path d="M6.2950 7.0250
L6.2950 7.0160
" />
<path d="M6.2950 7.0350
L6.2950 7.0250
" />
<path d="M6.2950 7.0450
L6.2950 7.0350
" />
<path d="M6.2950 7.0550
L6.2950 7.0450
" />
<path d="M6.2950 7.0650
L6.2950 7.0550
" />
<path d="M6.2950 7.0750
L6.2950 7.0650
" />
<path d="M6.2950 7.0750
L6.2950 7.7790
" />
<path d="M6.6970 2.5530
L0.3530 2.5530
" />
<path d="M6.6970 5.8970
L6.6970 2.5530
" />
<path d="M6.7750 2.4750
L6.6970 2.5530
" />
<path d="M6.7750 5.9750
L6.6970 5.8970
" />
<path d="M6.7750 5.9750
L6.7750 2.4750
" />
</g> 
</svg>
