<?xml version="1.0" standalone="no"?>
 <!DOCTYPE svg PUBLIC "-//W3C//DTD SVG 1.1//EN" 
 "http://www.w3.org/Graphics/SVG/1.1/DTD/svg11.dtd"> 
<svg
  xmlns:svg="http://www.w3.org/2000/svg"
  xmlns="http://www.w3.org/2000/svg"
  xmlns:xlink="http://www.w3.org/1999/xlink"
  version="1.1"
  width="20.5486mm" height="28.5496mm" viewBox="0.0000 0.0000 20.5486 28.5496">
<title>SVG Image created as outline.svg date 2025/06/16 09:17:59 </title>
  <desc>Image generated by PCBNEW </desc>
<g style="fill:#000000; fill-opacity:1.0000;stroke:#000000; stroke-opacity:1.0000;
stroke-linecap:round; stroke-linejoin:round;"
 transform="translate(0 0) scale(1 1)">
</g>
<g style="fill:none; 
stroke:#000000; stroke-width:0.1000; stroke-opacity:1; 
stroke-linecap:round; stroke-linejoin:round;">
<path d="M1.3850 0.3050
L1.3850 13.2590
" />
<path d="M1.3850 0.3050
L19.1650 0.3050
" />
<path d="M1.3850 13.2590
L1.3850 13.6710
" />
<path d="M1.3850 13.2590
L2.1470 13.2590
" />
<path d="M1.3850 14.3710
L1.3850 14.7830
" />
<path d="M1.3850 14.3710
L1.4372 14.3671
" />
<path d="M1.3850 14.7830
L1.3850 15.7990
" />
<path d="M1.3850 14.7830
L2.1470 14.7830
" />
<path d="M1.3850 15.7990
L1.3850 16.2110
" />
<path d="M1.3850 15.7990
L2.1470 15.7990
" />
<path d="M1.3850 16.9110
L1.3850 17.3230
" />
<path d="M1.3850 16.9110
L1.4372 16.9071
" />
<path d="M1.3850 17.3230
L1.3850 18.3390
" />
<path d="M1.3850 17.3230
L2.1470 17.3230
" />
<path d="M1.3850 18.3390
L1.3850 18.7510
" />
<path d="M1.3850 18.3390
L2.1470 18.3390
" />
<path d="M1.3850 19.4510
L1.3850 19.8630
" />
<path d="M1.3850 19.4510
L1.4372 19.4471
" />
<path d="M1.3850 19.8630
L1.3850 20.8790
" />
<path d="M1.3850 19.8630
L2.1470 19.8630
" />
<path d="M1.3850 20.8790
L1.3850 21.2910
" />
<path d="M1.3850 20.8790
L2.1470 20.8790
" />
<path d="M1.3850 21.9910
L1.3850 22.4030
" />
<path d="M1.3850 21.9910
L1.4372 21.9871
" />
<path d="M1.3850 22.4030
L1.3850 23.4190
" />
<path d="M1.3850 22.4030
L2.1470 22.4030
" />
<path d="M1.3850 23.4190
L1.3850 23.8310
" />
<path d="M1.3850 23.4190
L2.1470 23.4190
" />
<path d="M1.3850 24.5310
L1.3850 24.9430
" />
<path d="M1.3850 24.5310
L1.4372 24.5271
" />
<path d="M1.3850 24.9430
L1.3850 25.9590
" />
<path d="M1.3850 24.9430
L2.1470 24.9430
" />
<path d="M1.3850 25.9590
L1.3850 26.3710
" />
<path d="M1.3850 25.9590
L2.1470 25.9590
" />
<path d="M1.3850 27.0710
L1.3850 27.4830
" />
<path d="M1.3850 27.0710
L1.4372 27.0671
" />
<path d="M1.3850 27.4830
L1.3850 28.2450
" />
<path d="M1.3850 27.4830
L2.1470 27.4830
" />
<path d="M1.3850 28.2450
L19.1650 28.2450
" />
<path d="M1.4372 13.6749
L1.3850 13.6710
" />
<path d="M1.4372 14.3671
L1.4882 14.3554
" />
<path d="M1.4372 16.2149
L1.3850 16.2110
" />
<path d="M1.4372 16.9071
L1.4882 16.8955
" />
<path d="M1.4372 18.7549
L1.3850 18.7510
" />
<path d="M1.4372 19.4471
L1.4882 19.4354
" />
<path d="M1.4372 21.2949
L1.3850 21.2910
" />
<path d="M1.4372 21.9871
L1.4882 21.9754
" />
<path d="M1.4372 23.8349
L1.3850 23.8310
" />
<path d="M1.4372 24.5271
L1.4882 24.5155
" />
<path d="M1.4372 26.3749
L1.3850 26.3710
" />
<path d="M1.4372 27.0671
L1.4882 27.0555
" />
<path d="M1.4882 13.6865
L1.4372 13.6749
" />
<path d="M1.4882 14.3554
L1.5369 14.3363
" />
<path d="M1.4882 16.2265
L1.4372 16.2149
" />
<path d="M1.4882 16.8955
L1.5369 16.8763
" />
<path d="M1.4882 18.7665
L1.4372 18.7549
" />
<path d="M1.4882 19.4354
L1.5369 19.4163
" />
<path d="M1.4882 21.3065
L1.4372 21.2949
" />
<path d="M1.4882 21.9754
L1.5369 21.9563
" />
<path d="M1.4882 23.8465
L1.4372 23.8349
" />
<path d="M1.4882 24.5155
L1.5369 24.4963
" />
<path d="M1.4882 26.3865
L1.4372 26.3749
" />
<path d="M1.4882 27.0555
L1.5369 27.0363
" />
<path d="M1.5369 13.7057
L1.4882 13.6865
" />
<path d="M1.5369 14.3363
L1.5822 14.3102
" />
<path d="M1.5369 16.2457
L1.4882 16.2265
" />
<path d="M1.5369 16.8763
L1.5822 16.8502
" />
<path d="M1.5369 18.7857
L1.4882 18.7665
" />
<path d="M1.5369 19.4163
L1.5822 19.3902
" />
<path d="M1.5369 21.3257
L1.4882 21.3065
" />
<path d="M1.5369 21.9563
L1.5822 21.9302
" />
<path d="M1.5369 23.8657
L1.4882 23.8465
" />
<path d="M1.5369 24.4963
L1.5822 24.4702
" />
<path d="M1.5369 26.4057
L1.4882 26.3865
" />
<path d="M1.5369 27.0363
L1.5822 27.0102
" />
<path d="M1.5822 13.7318
L1.5369 13.7057
" />
<path d="M1.5822 14.3102
L1.6231 14.2776
" />
<path d="M1.5822 16.2718
L1.5369 16.2457
" />
<path d="M1.5822 16.8502
L1.6231 16.8176
" />
<path d="M1.5822 18.8118
L1.5369 18.7857
" />
<path d="M1.5822 19.3902
L1.6231 19.3576
" />
<path d="M1.5822 21.3518
L1.5369 21.3257
" />
<path d="M1.5822 21.9302
L1.6231 21.8976
" />
<path d="M1.5822 23.8918
L1.5369 23.8657
" />
<path d="M1.5822 24.4702
L1.6231 24.4376
" />
<path d="M1.5822 26.4318
L1.5369 26.4057
" />
<path d="M1.5822 27.0102
L1.6231 26.9776
" />
<path d="M1.6231 13.7644
L1.5822 13.7318
" />
<path d="M1.6231 14.2776
L1.6586 14.2392
" />
<path d="M1.6231 16.3044
L1.5822 16.2718
" />
<path d="M1.6231 16.8176
L1.6586 16.7792
" />
<path d="M1.6231 18.8444
L1.5822 18.8118
" />
<path d="M1.6231 19.3576
L1.6586 19.3192
" />
<path d="M1.6231 21.3844
L1.5822 21.3518
" />
<path d="M1.6231 21.8976
L1.6586 21.8592
" />
<path d="M1.6231 23.9244
L1.5822 23.8918
" />
<path d="M1.6231 24.4376
L1.6586 24.3992
" />
<path d="M1.6231 26.4644
L1.5822 26.4318
" />
<path d="M1.6231 26.9776
L1.6586 26.9392
" />
<path d="M1.6586 13.8028
L1.6231 13.7644
" />
<path d="M1.6586 14.2392
L1.6881 14.1960
" />
<path d="M1.6586 16.3428
L1.6231 16.3044
" />
<path d="M1.6586 16.7792
L1.6881 16.7360
" />
<path d="M1.6586 18.8828
L1.6231 18.8444
" />
<path d="M1.6586 19.3192
L1.6881 19.2760
" />
<path d="M1.6586 21.4228
L1.6231 21.3844
" />
<path d="M1.6586 21.8592
L1.6881 21.8160
" />
<path d="M1.6586 23.9628
L1.6231 23.9244
" />
<path d="M1.6586 24.3992
L1.6881 24.3560
" />
<path d="M1.6586 26.5028
L1.6231 26.4644
" />
<path d="M1.6586 26.9392
L1.6881 26.8960
" />
<path d="M1.6881 13.8460
L1.6586 13.8028
" />
<path d="M1.6881 14.1960
L1.7108 14.1489
" />
<path d="M1.6881 16.3860
L1.6586 16.3428
" />
<path d="M1.6881 16.7360
L1.7108 16.6889
" />
<path d="M1.6881 18.9260
L1.6586 18.8828
" />
<path d="M1.6881 19.2760
L1.7108 19.2289
" />
<path d="M1.6881 21.4660
L1.6586 21.4228
" />
<path d="M1.6881 21.8160
L1.7108 21.7689
" />
<path d="M1.6881 24.0060
L1.6586 23.9628
" />
<path d="M1.6881 24.3560
L1.7108 24.3089
" />
<path d="M1.6881 26.5460
L1.6586 26.5028
" />
<path d="M1.6881 26.8960
L1.7108 26.8489
" />
<path d="M1.7108 13.8931
L1.6881 13.8460
" />
<path d="M1.7108 14.1489
L1.7262 14.0989
" />
<path d="M1.7108 16.4331
L1.6881 16.3860
" />
<path d="M1.7108 16.6889
L1.7262 16.6389
" />
<path d="M1.7108 18.9731
L1.6881 18.9260
" />
<path d="M1.7108 19.2289
L1.7262 19.1789
" />
<path d="M1.7108 21.5131
L1.6881 21.4660
" />
<path d="M1.7108 21.7689
L1.7262 21.7189
" />
<path d="M1.7108 24.0531
L1.6881 24.0060
" />
<path d="M1.7108 24.3089
L1.7262 24.2589
" />
<path d="M1.7108 26.5931
L1.6881 26.5460
" />
<path d="M1.7108 26.8489
L1.7262 26.7989
" />
<path d="M1.7262 13.9431
L1.7108 13.8931
" />
<path d="M1.7262 14.0989
L1.7340 14.0472
" />
<path d="M1.7262 16.4831
L1.7108 16.4331
" />
<path d="M1.7262 16.6389
L1.7340 16.5872
" />
<path d="M1.7262 19.0231
L1.7108 18.9731
" />
<path d="M1.7262 19.1789
L1.7340 19.1272
" />
<path d="M1.7262 21.5631
L1.7108 21.5131
" />
<path d="M1.7262 21.7189
L1.7340 21.6672
" />
<path d="M1.7262 24.1031
L1.7108 24.0531
" />
<path d="M1.7262 24.2589
L1.7340 24.2072
" />
<path d="M1.7262 26.6431
L1.7108 26.5931
" />
<path d="M1.7262 26.7989
L1.7340 26.7472
" />
<path d="M1.7340 13.9948
L1.7262 13.9431
" />
<path d="M1.7340 14.0472
L1.7340 13.9948
" />
<path d="M1.7340 16.5348
L1.7262 16.4831
" />
<path d="M1.7340 16.5872
L1.7340 16.5348
" />
<path d="M1.7340 19.0748
L1.7262 19.0231
" />
<path d="M1.7340 19.1272
L1.7340 19.0748
" />
<path d="M1.7340 21.6148
L1.7262 21.5631
" />
<path d="M1.7340 21.6672
L1.7340 21.6148
" />
<path d="M1.7340 24.1548
L1.7262 24.1031
" />
<path d="M1.7340 24.2072
L1.7340 24.1548
" />
<path d="M1.7340 26.6948
L1.7262 26.6431
" />
<path d="M1.7340 26.7472
L1.7340 26.6948
" />
<path d="M2.0009 0.6318
L2.0009 11.6004
" />
<path d="M2.0009 0.6318
L18.5491 0.6318
" />
<path d="M2.0009 11.6004
L3.9987 11.6004
" />
<path d="M2.1470 13.2590
L2.1470 14.7830
" />
<path d="M2.1470 15.7990
L2.1470 17.3230
" />
<path d="M2.1470 18.3390
L2.1470 19.8630
" />
<path d="M2.1470 20.8790
L2.1470 22.4030
" />
<path d="M2.1470 23.4190
L2.1470 24.9430
" />
<path d="M2.1470 25.9590
L2.1470 27.4830
" />
<path d="M3.8997 20.2394
L4.4109 20.2394
" />
<path d="M3.8997 20.4394
L3.8997 20.2394
" />
<path d="M3.8997 20.4394
L4.4109 20.4394
" />
<path d="M3.8997 20.7634
L4.4109 20.7634
" />
<path d="M3.8997 20.9634
L3.8997 20.7634
" />
<path d="M3.8997 20.9634
L4.4109 20.9634
" />
<path d="M3.8997 21.2874
L4.4109 21.2874
" />
<path d="M3.8997 21.4874
L3.8997 21.2874
" />
<path d="M3.8997 21.4874
L4.4109 21.4874
" />
<path d="M3.8997 21.8114
L4.4109 21.8114
" />
<path d="M3.8997 22.0114
L3.8997 21.8114
" />
<path d="M3.8997 22.0114
L4.4109 22.0114
" />
<path d="M3.8997 22.3354
L4.4109 22.3354
" />
<path d="M3.8997 22.5354
L3.8997 22.3354
" />
<path d="M3.8997 22.5354
L4.4109 22.5354
" />
<path d="M3.8997 22.8594
L4.4109 22.8594
" />
<path d="M3.8997 23.0594
L3.8997 22.8594
" />
<path d="M3.8997 23.0594
L4.4109 23.0594
" />
<path d="M3.8997 23.3834
L4.4109 23.3834
" />
<path d="M3.8997 23.5834
L3.8997 23.3834
" />
<path d="M3.8997 23.5834
L4.4109 23.5834
" />
<path d="M3.8997 23.9074
L4.4109 23.9074
" />
<path d="M3.8997 24.1074
L3.8997 23.9074
" />
<path d="M3.8997 24.1074
L4.4109 24.1074
" />
<path d="M3.8997 24.4314
L4.4109 24.4314
" />
<path d="M3.8997 24.6314
L3.8997 24.4314
" />
<path d="M3.8997 24.6314
L4.4109 24.6314
" />
<path d="M3.8997 24.9554
L4.4109 24.9554
" />
<path d="M3.8997 25.1554
L3.8997 24.9554
" />
<path d="M3.8997 25.1554
L4.4109 25.1554
" />
<path d="M3.9987 4.6485
L9.0074 4.6485
" />
<path d="M3.9987 11.6004
L3.9987 4.6485
" />
<path d="M4.0166 26.4336
L4.0166 26.9336
" />
<path d="M4.0166 26.4336
L5.0166 26.4336
" />
<path d="M4.0166 26.9336
L5.0166 26.9336
" />
<path d="M4.4109 19.7402
L4.4109 20.2394
" />
<path d="M4.4109 19.7402
L4.4115 19.7402
" />
<path d="M4.4109 19.7402
L4.4143 19.7143
" />
<path d="M4.4109 20.2394
L4.4109 20.4394
" />
<path d="M4.4109 20.4394
L4.4109 20.7634
" />
<path d="M4.4109 20.7634
L4.4109 20.9634
" />
<path d="M4.4109 20.9634
L4.4109 21.2874
" />
<path d="M4.4109 21.2874
L4.4109 21.4874
" />
<path d="M4.4109 21.4874
L4.4109 21.8114
" />
<path d="M4.4109 21.8114
L4.4109 22.0114
" />
<path d="M4.4109 22.0114
L4.4109 22.3354
" />
<path d="M4.4109 22.3354
L4.4109 22.5354
" />
<path d="M4.4109 22.5354
L4.4109 22.8594
" />
<path d="M4.4109 22.8594
L4.4109 23.0594
" />
<path d="M4.4109 23.0594
L4.4109 23.3834
" />
<path d="M4.4109 23.3834
L4.4109 23.5834
" />
<path d="M4.4109 23.5834
L4.4109 23.9074
" />
<path d="M4.4109 23.9074
L4.4109 24.1074
" />
<path d="M4.4109 24.1074
L4.4109 24.4314
" />
<path d="M4.4109 24.4314
L4.4109 24.6314
" />
<path d="M4.4109 24.6314
L4.4109 24.9554
" />
<path d="M4.4109 24.9554
L4.4109 25.1554
" />
<path d="M4.4109 25.6546
L4.4109 19.7402
" />
<path d="M4.4109 25.6546
L4.4143 25.6804
" />
<path d="M4.4109 25.6546
L4.4143 25.6804
" />
<path d="M4.4115 19.7402
L4.4134 19.7402
" />
<path d="M4.4115 25.6546
L4.4109 25.6546
" />
<path d="M4.4134 19.7402
L4.4165 19.7402
" />
<path d="M4.4134 25.6546
L4.4115 25.6546
" />
<path d="M4.4143 19.7143
L4.4109 19.7402
" />
<path d="M4.4143 19.7143
L4.4109 19.7402
" />
<path d="M4.4143 19.7143
L4.4243 19.6902
" />
<path d="M4.4143 25.6804
L4.4243 25.7046
" />
<path d="M4.4143 25.6804
L4.4243 25.7046
" />
<path d="M4.4165 19.7402
L4.4208 19.7402
" />
<path d="M4.4165 25.6546
L4.4134 25.6546
" />
<path d="M4.4208 19.7402
L4.4262 19.7402
" />
<path d="M4.4208 25.6546
L4.4165 25.6546
" />
<path d="M4.4243 19.6902
L4.4143 19.7143
" />
<path d="M4.4243 19.6902
L4.4143 19.7143
" />
<path d="M4.4243 19.6902
L4.4402 19.6695
" />
<path d="M4.4243 25.7046
L4.4402 25.7253
" />
<path d="M4.4243 25.7046
L4.4402 25.7253
" />
<path d="M4.4262 19.7402
L4.4327 19.7402
" />
<path d="M4.4262 25.6546
L4.4208 25.6546
" />
<path d="M4.4327 19.7402
L4.4402 19.7402
" />
<path d="M4.4327 25.6546
L4.4262 25.6546
" />
<path d="M4.4402 19.6695
L4.4243 19.6902
" />
<path d="M4.4402 19.6695
L4.4243 19.6902
" />
<path d="M4.4402 19.6695
L4.4609 19.6536
" />
<path d="M4.4402 19.7402
L4.4485 19.7402
" />
<path d="M4.4402 25.6546
L4.4327 25.6546
" />
<path d="M4.4402 25.7253
L4.4609 25.7412
" />
<path d="M4.4402 25.7253
L4.4609 25.7412
" />
<path d="M4.4485 19.7402
L4.4577 19.7402
" />
<path d="M4.4485 25.6546
L4.4402 25.6546
" />
<path d="M4.4577 19.7402
L4.4675 19.7402
" />
<path d="M4.4577 25.6546
L4.4485 25.6546
" />
<path d="M4.4609 19.6536
L4.4402 19.6695
" />
<path d="M4.4609 19.6536
L4.4402 19.6695
" />
<path d="M4.4609 19.6536
L4.4850 19.6436
" />
<path d="M4.4609 25.7412
L4.4850 25.7512
" />
<path d="M4.4609 25.7412
L4.4850 25.7512
" />
<path d="M4.4675 19.7402
L4.4778 19.7402
" />
<path d="M4.4675 25.6546
L4.4577 25.6546
" />
<path d="M4.4778 19.7402
L4.4886 19.7402
" />
<path d="M4.4778 25.6546
L4.4675 25.6546
" />
<path d="M4.4850 19.6436
L4.4609 19.6536
" />
<path d="M4.4850 19.6436
L4.4609 19.6536
" />
<path d="M4.4850 19.6436
L4.5109 19.6402
" />
<path d="M4.4850 25.7512
L4.5109 25.7546
" />
<path d="M4.4850 25.7512
L4.5109 25.7546
" />
<path d="M4.4886 19.7402
L4.4997 19.7402
" />
<path d="M4.4886 25.6546
L4.4778 25.6546
" />
<path d="M4.4997 19.7402
L4.5109 19.7402
" />
<path d="M4.4997 25.6546
L4.4886 25.6546
" />
<path d="M4.5109 19.6402
L4.4850 19.6436
" />
<path d="M4.5109 19.6402
L4.4850 19.6436
" />
<path d="M4.5109 19.6402
L4.5109 19.6408
" />
<path d="M4.5109 19.6402
L5.0100 19.6402
" />
<path d="M4.5109 19.6402
L10.4252 19.6402
" />
<path d="M4.5109 19.6408
L4.5109 19.6427
" />
<path d="M4.5109 19.6427
L4.5109 19.6458
" />
<path d="M4.5109 19.6458
L4.5109 19.6501
" />
<path d="M4.5109 19.6501
L4.5109 19.6555
" />
<path d="M4.5109 19.6555
L4.5109 19.6620
" />
<path d="M4.5109 19.6620
L4.5109 19.6695
" />
<path d="M4.5109 19.6695
L4.5109 19.6779
" />
<path d="M4.5109 19.6779
L4.5109 19.6870
" />
<path d="M4.5109 19.6870
L4.5109 19.6968
" />
<path d="M4.5109 19.6968
L4.5109 19.7072
" />
<path d="M4.5109 19.7072
L4.5109 19.7180
" />
<path d="M4.5109 19.7180
L4.5109 19.7290
" />
<path d="M4.5109 19.7290
L4.5109 19.7402
" />
<path d="M4.5109 19.7402
L4.5109 25.6546
" />
<path d="M4.5109 25.6546
L4.4997 25.6546
" />
<path d="M4.5109 25.6546
L4.5109 25.6658
" />
<path d="M4.5109 25.6546
L10.4252 25.6546
" />
<path d="M4.5109 25.6658
L4.5109 25.6768
" />
<path d="M4.5109 25.6768
L4.5109 25.6876
" />
<path d="M4.5109 25.6876
L4.5109 25.6979
" />
<path d="M4.5109 25.6979
L4.5109 25.7078
" />
<path d="M4.5109 25.7078
L4.5109 25.7169
" />
<path d="M4.5109 25.7169
L4.5109 25.7253
" />
<path d="M4.5109 25.7253
L4.5109 25.7327
" />
<path d="M4.5109 25.7327
L4.5109 25.7392
" />
<path d="M4.5109 25.7392
L4.5109 25.7447
" />
<path d="M4.5109 25.7447
L4.5109 25.7489
" />
<path d="M4.5109 25.7489
L4.5109 25.7521
" />
<path d="M4.5109 25.7521
L4.5109 25.7539
" />
<path d="M4.5109 25.7539
L4.5109 25.7546
" />
<path d="M5.0100 19.1290
L5.0100 19.6402
" />
<path d="M5.0100 19.1290
L5.2100 19.1290
" />
<path d="M5.0100 19.6402
L5.2100 19.6402
" />
<path d="M5.0100 26.2658
L5.0100 25.7546
" />
<path d="M5.0100 26.2658
L5.2100 26.2658
" />
<path d="M5.0166 26.4336
L5.0166 26.9336
" />
<path d="M5.2100 19.1290
L5.2100 19.6402
" />
<path d="M5.2100 19.6402
L5.5340 19.6402
" />
<path d="M5.2100 26.2658
L5.2100 25.7546
" />
<path d="M5.2673 16.8055
L5.2673 17.3055
" />
<path d="M5.2673 16.8055
L6.2673 16.8055
" />
<path d="M5.2673 17.3055
L6.2673 17.3055
" />
<path d="M5.2899 17.6903
L5.2899 18.1903
" />
<path d="M5.2899 17.6903
L6.2899 17.6903
" />
<path d="M5.2899 18.1903
L6.2899 18.1903
" />
<path d="M5.5340 19.1290
L5.5340 19.6402
" />
<path d="M5.5340 19.1290
L5.7340 19.1290
" />
<path d="M5.5340 19.6402
L5.7340 19.6402
" />
<path d="M5.5340 26.2658
L5.5340 25.7546
" />
<path d="M5.5340 26.2658
L5.7340 26.2658
" />
<path d="M5.5550 15.8136
L5.5550 16.3136
" />
<path d="M5.5550 15.8136
L6.5550 15.8136
" />
<path d="M5.5550 16.3136
L6.5550 16.3136
" />
<path d="M5.7340 19.1290
L5.7340 19.6402
" />
<path d="M5.7340 19.6402
L6.0580 19.6402
" />
<path d="M5.7340 26.2658
L5.7340 25.7546
" />
<path d="M6.0580 19.1290
L6.0580 19.6402
" />
<path d="M6.0580 19.1290
L6.2580 19.1290
" />
<path d="M6.0580 19.6402
L6.2580 19.6402
" />
<path d="M6.0580 26.2658
L6.0580 25.7546
" />
<path d="M6.0580 26.2658
L6.2580 26.2658
" />
<path d="M6.2580 19.1290
L6.2580 19.6402
" />
<path d="M6.2580 19.6402
L6.5820 19.6402
" />
<path d="M6.2580 26.2658
L6.2580 25.7546
" />
<path d="M6.2673 16.8055
L6.2673 17.3055
" />
<path d="M6.2899 17.6903
L6.2899 18.1903
" />
<path d="M6.5550 15.8136
L6.5550 16.3136
" />
<path d="M6.5820 19.1290
L6.5820 19.6402
" />
<path d="M6.5820 19.1290
L6.7820 19.1290
" />
<path d="M6.5820 19.6402
L6.7820 19.6402
" />
<path d="M6.5820 26.2658
L6.5820 25.7546
" />
<path d="M6.5820 26.2658
L6.7820 26.2658
" />
<path d="M6.7820 19.1290
L6.7820 19.6402
" />
<path d="M6.7820 19.6402
L7.1060 19.6402
" />
<path d="M6.7820 26.2658
L6.7820 25.7546
" />
<path d="M7.1060 19.1290
L7.1060 19.6402
" />
<path d="M7.1060 19.1290
L7.3060 19.1290
" />
<path d="M7.1060 19.6402
L7.3060 19.6402
" />
<path d="M7.1060 26.2658
L7.1060 25.7546
" />
<path d="M7.1060 26.2658
L7.3060 26.2658
" />
<path d="M7.1713 15.4541
L7.1713 16.4541
" />
<path d="M7.3060 19.1290
L7.3060 19.6402
" />
<path d="M7.3060 19.6402
L7.6300 19.6402
" />
<path d="M7.3060 26.2658
L7.3060 25.7546
" />
<path d="M7.6300 19.1290
L7.6300 19.6402
" />
<path d="M7.6300 19.1290
L7.8300 19.1290
" />
<path d="M7.6300 19.6402
L7.8300 19.6402
" />
<path d="M7.6300 26.2658
L7.6300 25.7546
" />
<path d="M7.6300 26.2658
L7.8300 26.2658
" />
<path d="M7.6713 15.4541
L7.1713 15.4541
" />
<path d="M7.6713 15.4541
L7.6713 16.4541
" />
<path d="M7.6713 16.4541
L7.1713 16.4541
" />
<path d="M7.8300 19.1290
L7.8300 19.6402
" />
<path d="M7.8300 19.6402
L8.1540 19.6402
" />
<path d="M7.8300 26.2658
L7.8300 25.7546
" />
<path d="M8.0460 15.4541
L8.0460 16.4541
" />
<path d="M8.1540 19.1290
L8.1540 19.6402
" />
<path d="M8.1540 19.1290
L8.3540 19.1290
" />
<path d="M8.1540 19.6402
L8.3540 19.6402
" />
<path d="M8.1540 26.2658
L8.1540 25.7546
" />
<path d="M8.1540 26.2658
L8.3540 26.2658
" />
<path d="M8.2869 17.4313
L8.2869 17.9313
" />
<path d="M8.2869 17.4313
L9.2869 17.4313
" />
<path d="M8.2869 17.9313
L9.2869 17.9313
" />
<path d="M8.3540 19.1290
L8.3540 19.6402
" />
<path d="M8.3540 19.6402
L8.6780 19.6402
" />
<path d="M8.3540 26.2658
L8.3540 25.7546
" />
<path d="M8.3638 14.0892
L8.3638 14.5892
" />
<path d="M8.3638 14.0892
L9.3638 14.0892
" />
<path d="M8.3638 14.5892
L9.3638 14.5892
" />
<path d="M8.5460 15.4541
L8.0460 15.4541
" />
<path d="M8.5460 15.4541
L8.5460 16.4541
" />
<path d="M8.5460 16.4541
L8.0460 16.4541
" />
<path d="M8.6780 19.1290
L8.6780 19.6402
" />
<path d="M8.6780 19.1290
L8.8780 19.1290
" />
<path d="M8.6780 19.6402
L8.8780 19.6402
" />
<path d="M8.6780 26.2658
L8.6780 25.7546
" />
<path d="M8.6780 26.2658
L8.8780 26.2658
" />
<path d="M8.8780 19.1290
L8.8780 19.6402
" />
<path d="M8.8780 19.6402
L9.2020 19.6402
" />
<path d="M8.8780 26.2658
L8.8780 25.7546
" />
<path d="M8.9922 15.4541
L8.9922 16.4541
" />
<path d="M9.0074 11.6004
L9.0074 4.6485
" />
<path d="M9.0074 11.6004
L9.9824 11.6004
" />
<path d="M9.2020 19.1290
L9.2020 19.6402
" />
<path d="M9.2020 19.1290
L9.4020 19.1290
" />
<path d="M9.2020 19.6402
L9.4020 19.6402
" />
<path d="M9.2020 26.2658
L9.2020 25.7546
" />
<path d="M9.2020 26.2658
L9.4020 26.2658
" />
<path d="M9.2869 17.4313
L9.2869 17.9313
" />
<path d="M9.3638 14.0892
L9.3638 14.5892
" />
<path d="M9.4020 19.1290
L9.4020 19.6402
" />
<path d="M9.4020 19.6402
L9.7260 19.6402
" />
<path d="M9.4020 26.2658
L9.4020 25.7546
" />
<path d="M9.4922 15.4541
L8.9922 15.4541
" />
<path d="M9.4922 15.4541
L9.4922 16.4541
" />
<path d="M9.4922 16.4541
L8.9922 16.4541
" />
<path d="M9.7260 19.1290
L9.7260 19.6402
" />
<path d="M9.7260 19.1290
L9.9260 19.1290
" />
<path d="M9.7260 19.6402
L9.9260 19.6402
" />
<path d="M9.7260 26.2658
L9.7260 25.7546
" />
<path d="M9.7260 26.2658
L9.9260 26.2658
" />
<path d="M9.9260 19.1290
L9.9260 19.6402
" />
<path d="M9.9260 19.6402
L10.4252 19.6402
" />
<path d="M9.9260 26.2658
L9.9260 25.7546
" />
<path d="M9.9824 12.6331
L9.9824 11.6004
" />
<path d="M9.9824 12.6331
L10.5676 12.6331
" />
<path d="M9.9857 13.3409
L9.9857 14.3409
" />
<path d="M10.0384 15.3514
L10.0384 15.8514
" />
<path d="M10.0384 15.3514
L11.0384 15.3514
" />
<path d="M10.0384 15.8514
L11.0384 15.8514
" />
<path d="M10.0723 16.2926
L10.0723 16.7926
" />
<path d="M10.0723 16.2926
L11.0723 16.2926
" />
<path d="M10.0723 16.7926
L11.0723 16.7926
" />
<path d="M10.2172 17.8212
L10.2172 18.8212
" />
<path d="M10.4252 19.6402
L10.4252 19.6408
" />
<path d="M10.4252 19.6402
L10.4511 19.6436
" />
<path d="M10.4252 19.6408
L10.4252 19.6427
" />
<path d="M10.4252 19.6427
L10.4252 19.6458
" />
<path d="M10.4252 19.6458
L10.4252 19.6501
" />
<path d="M10.4252 19.6501
L10.4252 19.6555
" />
<path d="M10.4252 19.6555
L10.4252 19.6620
" />
<path d="M10.4252 19.6620
L10.4252 19.6695
" />
<path d="M10.4252 19.6695
L10.4252 19.6779
" />
<path d="M10.4252 19.6779
L10.4252 19.6870
" />
<path d="M10.4252 19.6870
L10.4252 19.6968
" />
<path d="M10.4252 19.6968
L10.4252 19.7072
" />
<path d="M10.4252 19.7072
L10.4252 19.7180
" />
<path d="M10.4252 19.7180
L10.4252 19.7290
" />
<path d="M10.4252 19.7290
L10.4252 19.7402
" />
<path d="M10.4252 19.7402
L4.5109 19.7402
" />
<path d="M10.4252 25.6546
L10.4252 19.7402
" />
<path d="M10.4252 25.6546
L10.4252 25.6658
" />
<path d="M10.4252 25.6546
L10.4364 25.6546
" />
<path d="M10.4252 25.6658
L10.4252 25.6768
" />
<path d="M10.4252 25.6768
L10.4252 25.6876
" />
<path d="M10.4252 25.6876
L10.4252 25.6979
" />
<path d="M10.4252 25.6979
L10.4252 25.7078
" />
<path d="M10.4252 25.7078
L10.4252 25.7169
" />
<path d="M10.4252 25.7169
L10.4252 25.7253
" />
<path d="M10.4252 25.7253
L10.4252 25.7327
" />
<path d="M10.4252 25.7327
L10.4252 25.7392
" />
<path d="M10.4252 25.7392
L10.4252 25.7447
" />
<path d="M10.4252 25.7447
L10.4252 25.7489
" />
<path d="M10.4252 25.7489
L10.4252 25.7521
" />
<path d="M10.4252 25.7521
L10.4252 25.7539
" />
<path d="M10.4252 25.7539
L10.4252 25.7546
" />
<path d="M10.4252 25.7546
L4.5109 25.7546
" />
<path d="M10.4252 25.7546
L10.4511 25.7512
" />
<path d="M10.4252 25.7546
L10.4511 25.7512
" />
<path d="M10.4364 19.7402
L10.4252 19.7402
" />
<path d="M10.4364 25.6546
L10.4475 25.6546
" />
<path d="M10.4475 19.7402
L10.4364 19.7402
" />
<path d="M10.4475 25.6546
L10.4582 25.6546
" />
<path d="M10.4511 19.6436
L10.4252 19.6402
" />
<path d="M10.4511 19.6436
L10.4252 19.6402
" />
<path d="M10.4511 19.6436
L10.4752 19.6536
" />
<path d="M10.4511 25.7512
L10.4252 25.7546
" />
<path d="M10.4511 25.7512
L10.4752 25.7412
" />
<path d="M10.4511 25.7512
L10.4752 25.7412
" />
<path d="M10.4582 19.7402
L10.4475 19.7402
" />
<path d="M10.4582 25.6546
L10.4686 25.6546
" />
<path d="M10.4686 19.7402
L10.4582 19.7402
" />
<path d="M10.4686 25.6546
L10.4784 25.6546
" />
<path d="M10.4752 19.6536
L10.4511 19.6436
" />
<path d="M10.4752 19.6536
L10.4511 19.6436
" />
<path d="M10.4752 19.6536
L10.4959 19.6695
" />
<path d="M10.4752 25.7412
L10.4511 25.7512
" />
<path d="M10.4752 25.7412
L10.4959 25.7253
" />
<path d="M10.4752 25.7412
L10.4959 25.7253
" />
<path d="M10.4784 19.7402
L10.4686 19.7402
" />
<path d="M10.4784 25.6546
L10.4876 25.6546
" />
<path d="M10.4857 13.3409
L9.9857 13.3409
" />
<path d="M10.4857 13.3409
L10.4857 14.3409
" />
<path d="M10.4857 14.3409
L9.9857 14.3409
" />
<path d="M10.4876 19.7402
L10.4784 19.7402
" />
<path d="M10.4876 25.6546
L10.4959 25.6546
" />
<path d="M10.4959 19.6695
L10.4752 19.6536
" />
<path d="M10.4959 19.6695
L10.4752 19.6536
" />
<path d="M10.4959 19.6695
L10.5118 19.6902
" />
<path d="M10.4959 19.7402
L10.4876 19.7402
" />
<path d="M10.4959 25.6546
L10.5034 25.6546
" />
<path d="M10.4959 25.7253
L10.4752 25.7412
" />
<path d="M10.4959 25.7253
L10.5118 25.7046
" />
<path d="M10.4959 25.7253
L10.5118 25.7046
" />
<path d="M10.5034 19.7402
L10.4959 19.7402
" />
<path d="M10.5034 25.6546
L10.5099 25.6546
" />
<path d="M10.5099 19.7402
L10.5034 19.7402
" />
<path d="M10.5099 25.6546
L10.5153 25.6546
" />
<path d="M10.5118 19.6902
L10.4959 19.6695
" />
<path d="M10.5118 19.6902
L10.4959 19.6695
" />
<path d="M10.5118 19.6902
L10.5218 19.7143
" />
<path d="M10.5118 25.7046
L10.4959 25.7253
" />
<path d="M10.5118 25.7046
L10.5218 25.6804
" />
<path d="M10.5118 25.7046
L10.5218 25.6804
" />
<path d="M10.5153 19.7402
L10.5099 19.7402
" />
<path d="M10.5153 25.6546
L10.5196 25.6546
" />
<path d="M10.5196 19.7402
L10.5153 19.7402
" />
<path d="M10.5196 25.6546
L10.5227 25.6546
" />
<path d="M10.5218 19.7143
L10.5118 19.6902
" />
<path d="M10.5218 19.7143
L10.5118 19.6902
" />
<path d="M10.5218 19.7143
L10.5252 19.7402
" />
<path d="M10.5218 25.6804
L10.5118 25.7046
" />
<path d="M10.5218 25.6804
L10.5252 25.6546
" />
<path d="M10.5218 25.6804
L10.5252 25.6546
" />
<path d="M10.5227 19.7402
L10.5196 19.7402
" />
<path d="M10.5227 25.6546
L10.5246 25.6546
" />
<path d="M10.5246 19.7402
L10.5227 19.7402
" />
<path d="M10.5246 25.6546
L10.5252 25.6546
" />
<path d="M10.5252 19.7402
L10.5218 19.7143
" />
<path d="M10.5252 19.7402
L10.5218 19.7143
" />
<path d="M10.5252 19.7402
L10.5246 19.7402
" />
<path d="M10.5252 19.7402
L10.5252 25.6546
" />
<path d="M10.5252 25.6546
L10.5218 25.6804
" />
<path d="M10.5676 12.6331
L10.5676 11.6004
" />
<path d="M10.7172 17.8212
L10.2172 17.8212
" />
<path d="M10.7172 17.8212
L10.7172 18.8212
" />
<path d="M10.7172 18.8212
L10.2172 18.8212
" />
<path d="M10.9324 26.2683
L10.9324 26.7683
" />
<path d="M10.9324 26.2683
L11.9324 26.2683
" />
<path d="M10.9324 26.7683
L11.9324 26.7683
" />
<path d="M11.0177 13.0964
L11.0177 13.5964
" />
<path d="M11.0177 13.0964
L12.0177 13.0964
" />
<path d="M11.0177 13.5964
L12.0177 13.5964
" />
<path d="M11.0364 20.2394
L10.5252 20.2394
" />
<path d="M11.0364 20.4394
L10.5252 20.4394
" />
<path d="M11.0364 20.4394
L11.0364 20.2394
" />
<path d="M11.0364 20.7634
L10.5252 20.7634
" />
<path d="M11.0364 20.9634
L10.5252 20.9634
" />
<path d="M11.0364 20.9634
L11.0364 20.7634
" />
<path d="M11.0364 21.2874
L10.5252 21.2874
" />
<path d="M11.0364 21.4874
L10.5252 21.4874
" />
<path d="M11.0364 21.4874
L11.0364 21.2874
" />
<path d="M11.0364 21.8114
L10.5252 21.8114
" />
<path d="M11.0364 22.0114
L10.5252 22.0114
" />
<path d="M11.0364 22.0114
L11.0364 21.8114
" />
<path d="M11.0364 22.3354
L10.5252 22.3354
" />
<path d="M11.0364 22.5354
L10.5252 22.5354
" />
<path d="M11.0364 22.5354
L11.0364 22.3354
" />
<path d="M11.0364 22.8594
L10.5252 22.8594
" />
<path d="M11.0364 23.0594
L10.5252 23.0594
" />
<path d="M11.0364 23.0594
L11.0364 22.8594
" />
<path d="M11.0364 23.3834
L10.5252 23.3834
" />
<path d="M11.0364 23.5834
L10.5252 23.5834
" />
<path d="M11.0364 23.5834
L11.0364 23.3834
" />
<path d="M11.0364 23.9074
L10.5252 23.9074
" />
<path d="M11.0364 24.1074
L10.5252 24.1074
" />
<path d="M11.0364 24.1074
L11.0364 23.9074
" />
<path d="M11.0364 24.4314
L10.5252 24.4314
" />
<path d="M11.0364 24.6314
L10.5252 24.6314
" />
<path d="M11.0364 24.6314
L11.0364 24.4314
" />
<path d="M11.0364 24.9554
L10.5252 24.9554
" />
<path d="M11.0364 25.1554
L10.5252 25.1554
" />
<path d="M11.0364 25.1554
L11.0364 24.9554
" />
<path d="M11.0384 15.3514
L11.0384 15.8514
" />
<path d="M11.0723 16.2926
L11.0723 16.7926
" />
<path d="M11.1634 17.8212
L11.1634 18.8212
" />
<path d="M11.5426 11.6004
L10.5676 11.6004
" />
<path d="M11.5426 11.6004
L11.5426 4.6485
" />
<path d="M11.6634 17.8212
L11.1634 17.8212
" />
<path d="M11.6634 17.8212
L11.6634 18.8212
" />
<path d="M11.6634 18.8212
L11.1634 18.8212
" />
<path d="M11.9260 24.6272
L11.9260 25.6272
" />
<path d="M11.9324 26.2683
L11.9324 26.7683
" />
<path d="M12.0177 13.0964
L12.0177 13.5964
" />
<path d="M12.0531 19.5358
L12.0531 20.5358
" />
<path d="M12.0531 21.7187
L12.0531 22.7187
" />
<path d="M12.4260 24.6272
L11.9260 24.6272
" />
<path d="M12.4260 24.6272
L12.4260 25.6272
" />
<path d="M12.4260 25.6272
L11.9260 25.6272
" />
<path d="M12.5531 19.5358
L12.0531 19.5358
" />
<path d="M12.5531 19.5358
L12.5531 20.5358
" />
<path d="M12.5531 20.5358
L12.0531 20.5358
" />
<path d="M12.5531 21.7187
L12.0531 21.7187
" />
<path d="M12.5531 21.7187
L12.5531 22.7187
" />
<path d="M12.5531 22.7187
L12.0531 22.7187
" />
<path d="M14.3475 18.6061
L14.3475 19.1061
" />
<path d="M14.3475 18.6061
L15.3475 18.6061
" />
<path d="M14.3475 19.1061
L15.3475 19.1061
" />
<path d="M14.4158 20.2903
L14.4194 20.2300
" />
<path d="M14.4158 20.2903
L14.4194 20.2300
" />
<path d="M14.4158 22.6532
L14.4158 20.2903
" />
<path d="M14.4158 22.6532
L14.4164 22.6532
" />
<path d="M14.4164 20.2903
L14.4158 20.2903
" />
<path d="M14.4164 22.6532
L14.4183 22.6532
" />
<path d="M14.4183 20.2903
L14.4164 20.2903
" />
<path d="M14.4183 22.6532
L14.4214 22.6532
" />
<path d="M14.4194 20.2300
L14.4303 20.1706
" />
<path d="M14.4194 20.2300
L14.4303 20.1706
" />
<path d="M14.4194 22.7135
L14.4158 22.6532
" />
<path d="M14.4194 22.7135
L14.4158 22.6532
" />
<path d="M14.4214 20.2903
L14.4183 20.2903
" />
<path d="M14.4214 22.6532
L14.4257 22.6532
" />
<path d="M14.4257 20.2903
L14.4214 20.2903
" />
<path d="M14.4257 22.6532
L14.4311 22.6532
" />
<path d="M14.4303 20.1706
L14.4483 20.1130
" />
<path d="M14.4303 20.1706
L14.4483 20.1130
" />
<path d="M14.4303 22.7728
L14.4194 22.7135
" />
<path d="M14.4303 22.7728
L14.4194 22.7135
" />
<path d="M14.4311 20.2903
L14.4257 20.2903
" />
<path d="M14.4311 22.6532
L14.4376 22.6532
" />
<path d="M14.4376 20.2903
L14.4311 20.2903
" />
<path d="M14.4376 22.6532
L14.4451 22.6532
" />
<path d="M14.4451 20.2903
L14.4376 20.2903
" />
<path d="M14.4451 22.6532
L14.4534 22.6532
" />
<path d="M14.4483 20.1130
L14.4730 20.0579
" />
<path d="M14.4483 20.1130
L14.4730 20.0579
" />
<path d="M14.4483 22.8305
L14.4303 22.7728
" />
<path d="M14.4483 22.8305
L14.4303 22.7728
" />
<path d="M14.4534 20.2903
L14.4451 20.2903
" />
<path d="M14.4534 22.6532
L14.4626 22.6532
" />
<path d="M14.4598 25.4042
L14.4598 25.6042
" />
<path d="M14.4598 25.9533
L14.4598 26.1533
" />
<path d="M14.4598 26.5024
L14.4598 26.7024
" />
<path d="M14.4626 20.2903
L14.4534 20.2903
" />
<path d="M14.4626 22.6532
L14.4724 22.6532
" />
<path d="M14.4724 20.2903
L14.4626 20.2903
" />
<path d="M14.4724 22.6532
L14.4827 22.6532
" />
<path d="M14.4730 20.0579
L14.5043 20.0062
" />
<path d="M14.4730 20.0579
L14.5043 20.0062
" />
<path d="M14.4730 22.8856
L14.4483 22.8305
" />
<path d="M14.4730 22.8856
L14.4483 22.8305
" />
<path d="M14.4827 20.2903
L14.4724 20.2903
" />
<path d="M14.4827 22.6532
L14.4935 22.6532
" />
<path d="M14.4935 20.2903
L14.4827 20.2903
" />
<path d="M14.4935 22.6532
L14.5046 22.6532
" />
<path d="M14.5043 20.0062
L14.5415 19.9587
" />
<path d="M14.5043 20.0062
L14.5415 19.9587
" />
<path d="M14.5043 22.9372
L14.4730 22.8856
" />
<path d="M14.5043 22.9372
L14.4730 22.8856
" />
<path d="M14.5046 20.2903
L14.4935 20.2903
" />
<path d="M14.5046 22.6532
L14.5158 22.6532
" />
<path d="M14.5158 20.2903
L14.5046 20.2903
" />
<path d="M14.5158 20.2903
L14.5158 22.6532
" />
<path d="M14.5158 22.6532
L14.5192 22.7054
" />
<path d="M14.5192 20.2381
L14.5158 20.2903
" />
<path d="M14.5192 22.7054
L14.5294 22.7567
" />
<path d="M14.5294 20.1867
L14.5192 20.2381
" />
<path d="M14.5294 22.7567
L14.5462 22.8063
" />
<path d="M14.5415 19.9587
L14.5842 19.9160
" />
<path d="M14.5415 19.9587
L14.5842 19.9160
" />
<path d="M14.5415 22.9848
L14.5043 22.9372
" />
<path d="M14.5415 22.9848
L14.5043 22.9372
" />
<path d="M14.5462 20.1372
L14.5294 20.1867
" />
<path d="M14.5462 22.8063
L14.5694 22.8532
" />
<path d="M14.5694 20.0903
L14.5462 20.1372
" />
<path d="M14.5694 22.8532
L14.5984 22.8967
" />
<path d="M14.5842 19.9160
L14.6317 19.8788
" />
<path d="M14.5842 19.9160
L14.6317 19.8788
" />
<path d="M14.5842 23.0274
L14.5415 22.9848
" />
<path d="M14.5842 23.0274
L14.5415 22.9848
" />
<path d="M14.5984 20.0468
L14.5694 20.0903
" />
<path d="M14.5984 22.8967
L14.6329 22.9360
" />
<path d="M14.6317 19.8788
L14.6834 19.8475
" />
<path d="M14.6317 19.8788
L14.6834 19.8475
" />
<path d="M14.6317 23.0647
L14.5842 23.0274
" />
<path d="M14.6317 23.0647
L14.5842 23.0274
" />
<path d="M14.6329 20.0074
L14.5984 20.0468
" />
<path d="M14.6329 22.9360
L14.6723 22.9705
" />
<path d="M14.6723 19.9729
L14.6329 20.0074
" />
<path d="M14.6723 22.9705
L14.7158 22.9996
" />
<path d="M14.6834 19.8475
L14.7385 19.8228
" />
<path d="M14.6834 19.8475
L14.7385 19.8228
" />
<path d="M14.6834 23.0959
L14.6317 23.0647
" />
<path d="M14.6834 23.0959
L14.6317 23.0647
" />
<path d="M14.7158 19.9439
L14.6723 19.9729
" />
<path d="M14.7158 22.6532
L14.7158 20.2903
" />
<path d="M14.7158 22.6532
L14.7196 22.6922
" />
<path d="M14.7158 22.9996
L14.7627 23.0227
" />
<path d="M14.7196 20.2512
L14.7158 20.2903
" />
<path d="M14.7196 22.6922
L14.7310 22.7297
" />
<path d="M14.7310 20.2137
L14.7196 20.2512
" />
<path d="M14.7310 22.7297
L14.7495 22.7643
" />
<path d="M14.7385 19.8228
L14.7961 19.8048
" />
<path d="M14.7385 19.8228
L14.7961 19.8048
" />
<path d="M14.7385 23.1207
L14.6834 23.0959
" />
<path d="M14.7385 23.1207
L14.6834 23.0959
" />
<path d="M14.7495 20.1792
L14.7310 20.2137
" />
<path d="M14.7495 22.7643
L14.7743 22.7946
" />
<path d="M14.7627 19.9207
L14.7158 19.9439
" />
<path d="M14.7627 23.0227
L14.8122 23.0396
" />
<path d="M14.7743 20.1488
L14.7495 20.1792
" />
<path d="M14.7743 22.7946
L14.8047 22.8195
" />
<path d="M14.7961 19.8048
L14.8555 19.7939
" />
<path d="M14.7961 19.8048
L14.8555 19.7939
" />
<path d="M14.7961 23.1387
L14.7385 23.1207
" />
<path d="M14.7961 23.1387
L14.7385 23.1207
" />
<path d="M14.8047 20.1240
L14.7743 20.1488
" />
<path d="M14.8047 22.8195
L14.8392 22.8380
" />
<path d="M14.8122 19.9039
L14.7627 19.9207
" />
<path d="M14.8122 23.0396
L14.8636 23.0498
" />
<path d="M14.8392 20.1055
L14.8047 20.1240
" />
<path d="M14.8392 22.8380
L14.8767 22.8493
" />
<path d="M14.8555 19.7939
L14.9158 19.7903
" />
<path d="M14.8555 19.7939
L14.9158 19.7903
" />
<path d="M14.8555 23.1495
L14.7961 23.1387
" />
<path d="M14.8555 23.1495
L14.7961 23.1387
" />
<path d="M14.8636 19.8937
L14.8122 19.9039
" />
<path d="M14.8636 23.0498
L14.9158 23.0532
" />
<path d="M14.8767 20.0941
L14.8392 20.1055
" />
<path d="M14.8767 22.8493
L14.9158 22.8532
" />
<path d="M14.9158 19.7903
L16.5956 19.7903
" />
<path d="M14.9158 19.7903
L16.5956 19.7903
" />
<path d="M14.9158 19.7909
L14.9158 19.7903
" />
<path d="M14.9158 19.7928
L14.9158 19.7909
" />
<path d="M14.9158 19.7959
L14.9158 19.7928
" />
<path d="M14.9158 19.8002
L14.9158 19.7959
" />
<path d="M14.9158 19.8056
L14.9158 19.8002
" />
<path d="M14.9158 19.8121
L14.9158 19.8056
" />
<path d="M14.9158 19.8196
L14.9158 19.8121
" />
<path d="M14.9158 19.8279
L14.9158 19.8196
" />
<path d="M14.9158 19.8371
L14.9158 19.8279
" />
<path d="M14.9158 19.8469
L14.9158 19.8371
" />
<path d="M14.9158 19.8572
L14.9158 19.8469
" />
<path d="M14.9158 19.8680
L14.9158 19.8572
" />
<path d="M14.9158 19.8791
L14.9158 19.8680
" />
<path d="M14.9158 19.8903
L14.8636 19.8937
" />
<path d="M14.9158 19.8903
L14.9158 19.8791
" />
<path d="M14.9158 20.0903
L14.8767 20.0941
" />
<path d="M14.9158 23.0532
L16.5956 23.0532
" />
<path d="M14.9158 23.0644
L14.9158 23.0532
" />
<path d="M14.9158 23.0754
L14.9158 23.0644
" />
<path d="M14.9158 23.0862
L14.9158 23.0754
" />
<path d="M14.9158 23.0966
L14.9158 23.0862
" />
<path d="M14.9158 23.1064
L14.9158 23.0966
" />
<path d="M14.9158 23.1155
L14.9158 23.1064
" />
<path d="M14.9158 23.1239
L14.9158 23.1155
" />
<path d="M14.9158 23.1314
L14.9158 23.1239
" />
<path d="M14.9158 23.1379
L14.9158 23.1314
" />
<path d="M14.9158 23.1433
L14.9158 23.1379
" />
<path d="M14.9158 23.1476
L14.9158 23.1433
" />
<path d="M14.9158 23.1507
L14.9158 23.1476
" />
<path d="M14.9158 23.1526
L14.9158 23.1507
" />
<path d="M14.9158 23.1532
L14.8555 23.1495
" />
<path d="M14.9158 23.1532
L14.8555 23.1495
" />
<path d="M14.9158 23.1532
L14.9158 23.1526
" />
<path d="M15.2715 25.4042
L14.4598 25.4042
" />
<path d="M15.2715 25.6042
L14.4598 25.6042
" />
<path d="M15.2715 25.9533
L14.4598 25.9533
" />
<path d="M15.2715 26.1533
L14.4598 26.1533
" />
<path d="M15.2715 26.5024
L14.4598 26.5024
" />
<path d="M15.2715 26.7024
L14.4598 26.7024
" />
<path d="M15.2715 26.9453
L15.2715 25.1612
" />
<path d="M15.2715 26.9453
L15.2750 26.9712
" />
<path d="M15.2715 26.9453
L15.2750 26.9712
" />
<path d="M15.2722 25.1612
L15.2715 25.1612
" />
<path d="M15.2722 26.9453
L15.2715 26.9453
" />
<path d="M15.2741 25.1612
L15.2722 25.1612
" />
<path d="M15.2741 26.9453
L15.2722 26.9453
" />
<path d="M15.2750 25.1354
L15.2715 25.1612
" />
<path d="M15.2750 25.1354
L15.2715 25.1612
" />
<path d="M15.2750 26.9712
L15.2715 26.9453
" />
<path d="M15.2750 26.9712
L15.2849 26.9953
" />
<path d="M15.2750 26.9712
L15.2849 26.9953
" />
<path d="M15.2772 25.1612
L15.2741 25.1612
" />
<path d="M15.2772 26.9453
L15.2741 26.9453
" />
<path d="M15.2815 25.1612
L15.2772 25.1612
" />
<path d="M15.2815 26.9453
L15.2772 26.9453
" />
<path d="M15.2849 25.1112
L15.2750 25.1354
" />
<path d="M15.2849 25.1112
L15.2750 25.1354
" />
<path d="M15.2849 26.9953
L15.2750 26.9712
" />
<path d="M15.2849 26.9953
L15.3008 27.0160
" />
<path d="M15.2849 26.9953
L15.3008 27.0160
" />
<path d="M15.2869 25.1612
L15.2815 25.1612
" />
<path d="M15.2869 26.9453
L15.2815 26.9453
" />
<path d="M15.2934 25.1612
L15.2869 25.1612
" />
<path d="M15.2934 26.9453
L15.2869 26.9453
" />
<path d="M15.3008 25.0905
L15.2849 25.1112
" />
<path d="M15.3008 25.0905
L15.2849 25.1112
" />
<path d="M15.3008 25.1612
L15.2934 25.1612
" />
<path d="M15.3008 26.9453
L15.2934 26.9453
" />
<path d="M15.3008 27.0160
L15.2849 26.9953
" />
<path d="M15.3008 27.0160
L15.3215 27.0319
" />
<path d="M15.3008 27.0160
L15.3215 27.0319
" />
<path d="M15.3092 25.1612
L15.3008 25.1612
" />
<path d="M15.3092 26.9453
L15.3008 26.9453
" />
<path d="M15.3183 25.1612
L15.3092 25.1612
" />
<path d="M15.3183 26.9453
L15.3092 26.9453
" />
<path d="M15.3215 25.0746
L15.3008 25.0905
" />
<path d="M15.3215 25.0746
L15.3008 25.0905
" />
<path d="M15.3215 27.0319
L15.3008 27.0160
" />
<path d="M15.3215 27.0319
L15.3457 27.0419
" />
<path d="M15.3215 27.0319
L15.3457 27.0419
" />
<path d="M15.3282 25.1612
L15.3183 25.1612
" />
<path d="M15.3282 26.9453
L15.3183 26.9453
" />
<path d="M15.3385 25.1612
L15.3282 25.1612
" />
<path d="M15.3385 26.9453
L15.3282 26.9453
" />
<path d="M15.3457 25.0646
L15.3215 25.0746
" />
<path d="M15.3457 25.0646
L15.3215 25.0746
" />
<path d="M15.3457 27.0419
L15.3215 27.0319
" />
<path d="M15.3457 27.0419
L15.3715 27.0453
" />
<path d="M15.3457 27.0419
L15.3715 27.0453
" />
<path d="M15.3475 18.6061
L15.3475 19.1061
" />
<path d="M15.3493 25.1612
L15.3385 25.1612
" />
<path d="M15.3493 26.9453
L15.3385 26.9453
" />
<path d="M15.3604 25.1612
L15.3493 25.1612
" />
<path d="M15.3604 26.9453
L15.3493 26.9453
" />
<path d="M15.3715 25.0612
L15.3457 25.0646
" />
<path d="M15.3715 25.0612
L15.3457 25.0646
" />
<path d="M15.3715 25.0612
L16.5240 25.0612
" />
<path d="M15.3715 25.0619
L15.3715 25.0612
" />
<path d="M15.3715 25.0637
L15.3715 25.0619
" />
<path d="M15.3715 25.0668
L15.3715 25.0637
" />
<path d="M15.3715 25.0711
L15.3715 25.0668
" />
<path d="M15.3715 25.0766
L15.3715 25.0711
" />
<path d="M15.3715 25.0831
L15.3715 25.0766
" />
<path d="M15.3715 25.0905
L15.3715 25.0831
" />
<path d="M15.3715 25.0989
L15.3715 25.0905
" />
<path d="M15.3715 25.1080
L15.3715 25.0989
" />
<path d="M15.3715 25.1178
L15.3715 25.1080
" />
<path d="M15.3715 25.1282
L15.3715 25.1178
" />
<path d="M15.3715 25.1390
L15.3715 25.1282
" />
<path d="M15.3715 25.1500
L15.3715 25.1390
" />
<path d="M15.3715 25.1612
L15.3604 25.1612
" />
<path d="M15.3715 25.1612
L15.3715 25.1500
" />
<path d="M15.3715 25.1612
L15.3715 26.9453
" />
<path d="M15.3715 26.9453
L15.3604 26.9453
" />
<path d="M15.3715 26.9453
L15.3715 26.9565
" />
<path d="M15.3715 26.9453
L16.5240 26.9453
" />
<path d="M15.3715 26.9565
L15.3715 26.9676
" />
<path d="M15.3715 26.9676
L15.3715 26.9784
" />
<path d="M15.3715 26.9784
L15.3715 26.9887
" />
<path d="M15.3715 26.9887
L15.3715 26.9985
" />
<path d="M15.3715 26.9985
L15.3715 27.0077
" />
<path d="M15.3715 27.0077
L15.3715 27.0160
" />
<path d="M15.3715 27.0160
L15.3715 27.0235
" />
<path d="M15.3715 27.0235
L15.3715 27.0300
" />
<path d="M15.3715 27.0300
L15.3715 27.0354
" />
<path d="M15.3715 27.0354
L15.3715 27.0397
" />
<path d="M15.3715 27.0397
L15.3715 27.0428
" />
<path d="M15.3715 27.0428
L15.3715 27.0447
" />
<path d="M15.3715 27.0447
L15.3715 27.0453
" />
<path d="M15.3715 27.0453
L15.3457 27.0419
" />
<path d="M15.3715 27.0453
L16.5240 27.0453
" />
<path d="M15.9264 23.8032
L15.9264 24.3032
" />
<path d="M15.9264 23.8032
L16.9264 23.8032
" />
<path d="M15.9264 24.3032
L16.9264 24.3032
" />
<path d="M16.5240 25.0612
L16.5240 25.0619
" />
<path d="M16.5240 25.0619
L16.5240 25.0637
" />
<path d="M16.5240 25.0637
L16.5240 25.0668
" />
<path d="M16.5240 25.0668
L16.5240 25.0711
" />
<path d="M16.5240 25.0711
L16.5240 25.0766
" />
<path d="M16.5240 25.0766
L16.5240 25.0831
" />
<path d="M16.5240 25.0831
L16.5240 25.0905
" />
<path d="M16.5240 25.0905
L16.5240 25.0989
" />
<path d="M16.5240 25.0989
L16.5240 25.1080
" />
<path d="M16.5240 25.1080
L16.5240 25.1178
" />
<path d="M16.5240 25.1178
L16.5240 25.1282
" />
<path d="M16.5240 25.1282
L16.5240 25.1390
" />
<path d="M16.5240 25.1390
L16.5240 25.1500
" />
<path d="M16.5240 25.1500
L16.5240 25.1612
" />
<path d="M16.5240 25.1612
L15.3715 25.1612
" />
<path d="M16.5240 26.9453
L16.5240 25.1612
" />
<path d="M16.5240 26.9565
L16.5240 26.9453
" />
<path d="M16.5240 26.9676
L16.5240 26.9565
" />
<path d="M16.5240 26.9784
L16.5240 26.9676
" />
<path d="M16.5240 26.9887
L16.5240 26.9784
" />
<path d="M16.5240 26.9985
L16.5240 26.9887
" />
<path d="M16.5240 27.0077
L16.5240 26.9985
" />
<path d="M16.5240 27.0160
L16.5240 27.0077
" />
<path d="M16.5240 27.0235
L16.5240 27.0160
" />
<path d="M16.5240 27.0300
L16.5240 27.0235
" />
<path d="M16.5240 27.0354
L16.5240 27.0300
" />
<path d="M16.5240 27.0397
L16.5240 27.0354
" />
<path d="M16.5240 27.0428
L16.5240 27.0397
" />
<path d="M16.5240 27.0447
L16.5240 27.0428
" />
<path d="M16.5240 27.0453
L15.3715 27.0453
" />
<path d="M16.5240 27.0453
L16.5240 27.0447
" />
<path d="M16.5240 27.0453
L16.5499 27.0419
" />
<path d="M16.5240 27.0453
L16.5499 27.0419
" />
<path d="M16.5352 25.1612
L16.5240 25.1612
" />
<path d="M16.5352 26.9453
L16.5240 26.9453
" />
<path d="M16.5463 25.1612
L16.5352 25.1612
" />
<path d="M16.5463 26.9453
L16.5352 26.9453
" />
<path d="M16.5499 25.0646
L16.5240 25.0612
" />
<path d="M16.5499 25.0646
L16.5240 25.0612
" />
<path d="M16.5499 27.0419
L16.5740 27.0319
" />
<path d="M16.5499 27.0419
L16.5740 27.0319
" />
<path d="M16.5513 4.6485
L11.5426 4.6485
" />
<path d="M16.5513 11.6004
L16.5513 4.6485
" />
<path d="M16.5570 25.1612
L16.5463 25.1612
" />
<path d="M16.5570 26.9453
L16.5463 26.9453
" />
<path d="M16.5674 25.1612
L16.5570 25.1612
" />
<path d="M16.5674 26.9453
L16.5570 26.9453
" />
<path d="M16.5740 25.0746
L16.5499 25.0646
" />
<path d="M16.5740 25.0746
L16.5499 25.0646
" />
<path d="M16.5740 27.0319
L16.5947 27.0160
" />
<path d="M16.5740 27.0319
L16.5947 27.0160
" />
<path d="M16.5772 25.1612
L16.5674 25.1612
" />
<path d="M16.5772 26.9453
L16.5674 26.9453
" />
<path d="M16.5864 25.1612
L16.5772 25.1612
" />
<path d="M16.5864 26.9453
L16.5772 26.9453
" />
<path d="M16.5947 25.0905
L16.5740 25.0746
" />
<path d="M16.5947 25.0905
L16.5740 25.0746
" />
<path d="M16.5947 25.1612
L16.5864 25.1612
" />
<path d="M16.5947 26.9453
L16.5864 26.9453
" />
<path d="M16.5947 27.0160
L16.6106 26.9953
" />
<path d="M16.5947 27.0160
L16.6106 26.9953
" />
<path d="M16.5956 19.7903
L16.6558 19.7939
" />
<path d="M16.5956 19.7903
L16.6558 19.7939
" />
<path d="M16.5956 19.7909
L16.5956 19.7903
" />
<path d="M16.5956 19.7928
L16.5956 19.7909
" />
<path d="M16.5956 19.7959
L16.5956 19.7928
" />
<path d="M16.5956 19.8002
L16.5956 19.7959
" />
<path d="M16.5956 19.8056
L16.5956 19.8002
" />
<path d="M16.5956 19.8121
L16.5956 19.8056
" />
<path d="M16.5956 19.8196
L16.5956 19.8121
" />
<path d="M16.5956 19.8279
L16.5956 19.8196
" />
<path d="M16.5956 19.8371
L16.5956 19.8279
" />
<path d="M16.5956 19.8469
L16.5956 19.8371
" />
<path d="M16.5956 19.8572
L16.5956 19.8469
" />
<path d="M16.5956 19.8680
L16.5956 19.8572
" />
<path d="M16.5956 19.8791
L16.5956 19.8680
" />
<path d="M16.5956 19.8903
L14.9158 19.8903
" />
<path d="M16.5956 19.8903
L16.5956 19.8791
" />
<path d="M16.5956 20.0903
L14.9158 20.0903
" />
<path d="M16.5956 22.8532
L14.9158 22.8532
" />
<path d="M16.5956 22.8532
L16.6346 22.8493
" />
<path d="M16.5956 23.0532
L16.6478 23.0498
" />
<path d="M16.5956 23.0644
L16.5956 23.0532
" />
<path d="M16.5956 23.0754
L16.5956 23.0644
" />
<path d="M16.5956 23.0862
L16.5956 23.0754
" />
<path d="M16.5956 23.0966
L16.5956 23.0862
" />
<path d="M16.5956 23.1064
L16.5956 23.0966
" />
<path d="M16.5956 23.1155
L16.5956 23.1064
" />
<path d="M16.5956 23.1239
L16.5956 23.1155
" />
<path d="M16.5956 23.1314
L16.5956 23.1239
" />
<path d="M16.5956 23.1379
L16.5956 23.1314
" />
<path d="M16.5956 23.1433
L16.5956 23.1379
" />
<path d="M16.5956 23.1476
L16.5956 23.1433
" />
<path d="M16.5956 23.1507
L16.5956 23.1476
" />
<path d="M16.5956 23.1526
L16.5956 23.1507
" />
<path d="M16.5956 23.1532
L14.9158 23.1532
" />
<path d="M16.5956 23.1532
L16.5956 23.1526
" />
<path d="M16.6022 25.1612
L16.5947 25.1612
" />
<path d="M16.6022 26.9453
L16.5947 26.9453
" />
<path d="M16.6087 25.1612
L16.6022 25.1612
" />
<path d="M16.6087 26.9453
L16.6022 26.9453
" />
<path d="M16.6106 25.1112
L16.5947 25.0905
" />
<path d="M16.6106 25.1112
L16.5947 25.0905
" />
<path d="M16.6106 26.9953
L16.6206 26.9712
" />
<path d="M16.6106 26.9953
L16.6206 26.9712
" />
<path d="M16.6141 25.1612
L16.6087 25.1612
" />
<path d="M16.6141 26.9453
L16.6087 26.9453
" />
<path d="M16.6184 25.1612
L16.6141 25.1612
" />
<path d="M16.6184 26.9453
L16.6141 26.9453
" />
<path d="M16.6206 25.1354
L16.6106 25.1112
" />
<path d="M16.6206 25.1354
L16.6106 25.1112
" />
<path d="M16.6206 26.9712
L16.6240 26.9453
" />
<path d="M16.6206 26.9712
L16.6240 26.9453
" />
<path d="M16.6215 25.1612
L16.6184 25.1612
" />
<path d="M16.6215 26.9453
L16.6184 26.9453
" />
<path d="M16.6234 25.1612
L16.6215 25.1612
" />
<path d="M16.6234 26.9453
L16.6215 26.9453
" />
<path d="M16.6240 25.1612
L16.6206 25.1354
" />
<path d="M16.6240 25.1612
L16.6206 25.1354
" />
<path d="M16.6240 25.1612
L16.6234 25.1612
" />
<path d="M16.6240 25.1612
L16.6240 26.9453
" />
<path d="M16.6240 25.3723
L17.0234 25.3723
" />
<path d="M16.6240 25.5723
L17.0234 25.5723
" />
<path d="M16.6240 26.5342
L17.0234 26.5342
" />
<path d="M16.6240 26.7342
L17.0234 26.7342
" />
<path d="M16.6240 26.9453
L16.6234 26.9453
" />
<path d="M16.6346 20.0941
L16.5956 20.0903
" />
<path d="M16.6346 22.8493
L16.6721 22.8380
" />
<path d="M16.6478 19.8937
L16.5956 19.8903
" />
<path d="M16.6478 23.0498
L16.6991 23.0396
" />
<path d="M16.6558 19.7939
L16.7152 19.8048
" />
<path d="M16.6558 19.7939
L16.7152 19.8048
" />
<path d="M16.6558 23.1495
L16.5956 23.1532
" />
<path d="M16.6558 23.1495
L16.5956 23.1532
" />
<path d="M16.6721 20.1055
L16.6346 20.0941
" />
<path d="M16.6721 22.8380
L16.7067 22.8195
" />
<path d="M16.6991 19.9039
L16.6478 19.8937
" />
<path d="M16.6991 23.0396
L16.7486 23.0227
" />
<path d="M16.7067 20.1240
L16.6721 20.1055
" />
<path d="M16.7067 22.8195
L16.7370 22.7946
" />
<path d="M16.7152 19.8048
L16.7729 19.8228
" />
<path d="M16.7152 19.8048
L16.7729 19.8228
" />
<path d="M16.7152 23.1387
L16.6558 23.1495
" />
<path d="M16.7152 23.1387
L16.6558 23.1495
" />
<path d="M16.7370 20.1488
L16.7067 20.1240
" />
<path d="M16.7370 22.7946
L16.7619 22.7643
" />
<path d="M16.7486 19.9207
L16.6991 19.9039
" />
<path d="M16.7486 23.0227
L16.7956 22.9996
" />
<path d="M16.7619 20.1792
L16.7370 20.1488
" />
<path d="M16.7619 22.7643
L16.7803 22.7297
" />
<path d="M16.7729 19.8228
L16.8279 19.8475
" />
<path d="M16.7729 19.8228
L16.8279 19.8475
" />
<path d="M16.7729 23.1207
L16.7152 23.1387
" />
<path d="M16.7729 23.1207
L16.7152 23.1387
" />
<path d="M16.7803 20.2137
L16.7619 20.1792
" />
<path d="M16.7803 22.7297
L16.7917 22.6922
" />
<path d="M16.7917 20.2512
L16.7803 20.2137
" />
<path d="M16.7917 22.6922
L16.7956 22.6532
" />
<path d="M16.7956 19.9439
L16.7486 19.9207
" />
<path d="M16.7956 20.2903
L16.7917 20.2512
" />
<path d="M16.7956 22.6532
L16.7956 20.2903
" />
<path d="M16.7956 22.9996
L16.8391 22.9705
" />
<path d="M16.8279 19.8475
L16.8796 19.8788
" />
<path d="M16.8279 19.8475
L16.8796 19.8788
" />
<path d="M16.8279 23.0959
L16.7729 23.1207
" />
<path d="M16.8279 23.0959
L16.7729 23.1207
" />
<path d="M16.8391 19.9729
L16.7956 19.9439
" />
<path d="M16.8391 22.9705
L16.8784 22.9360
" />
<path d="M16.8784 20.0074
L16.8391 19.9729
" />
<path d="M16.8784 22.9360
L16.9129 22.8967
" />
<path d="M16.8796 19.8788
L16.9271 19.9160
" />
<path d="M16.8796 19.8788
L16.9271 19.9160
" />
<path d="M16.8796 23.0647
L16.8279 23.0959
" />
<path d="M16.8796 23.0647
L16.8279 23.0959
" />
<path d="M16.9129 20.0468
L16.8784 20.0074
" />
<path d="M16.9129 22.8967
L16.9420 22.8532
" />
<path d="M16.9264 23.8032
L16.9264 24.3032
" />
<path d="M16.9271 19.9160
L16.9698 19.9587
" />
<path d="M16.9271 19.9160
L16.9698 19.9587
" />
<path d="M16.9271 23.0274
L16.8796 23.0647
" />
<path d="M16.9271 23.0274
L16.8796 23.0647
" />
<path d="M16.9420 20.0903
L16.9129 20.0468
" />
<path d="M16.9420 22.8532
L16.9651 22.8063
" />
<path d="M16.9651 20.1372
L16.9420 20.0903
" />
<path d="M16.9651 22.8063
L16.9819 22.7567
" />
<path d="M16.9680 15.6527
L16.9680 16.6527
" />
<path d="M16.9698 19.9587
L17.0071 20.0062
" />
<path d="M16.9698 19.9587
L17.0071 20.0062
" />
<path d="M16.9698 22.9848
L16.9271 23.0274
" />
<path d="M16.9698 22.9848
L16.9271 23.0274
" />
<path d="M16.9819 20.1867
L16.9651 20.1372
" />
<path d="M16.9819 22.7567
L16.9921 22.7054
" />
<path d="M16.9921 20.2381
L16.9819 20.1867
" />
<path d="M16.9921 22.7054
L16.9956 22.6532
" />
<path d="M16.9956 20.2903
L16.9921 20.2381
" />
<path d="M16.9956 20.2903
L17.0068 20.2903
" />
<path d="M16.9956 22.6532
L16.9956 20.2903
" />
<path d="M17.0068 20.2903
L17.0178 20.2903
" />
<path d="M17.0068 22.6532
L16.9956 22.6532
" />
<path d="M17.0071 20.0062
L17.0383 20.0579
" />
<path d="M17.0071 20.0062
L17.0383 20.0579
" />
<path d="M17.0071 22.9372
L16.9698 22.9848
" />
<path d="M17.0071 22.9372
L16.9698 22.9848
" />
<path d="M17.0178 20.2903
L17.0286 20.2903
" />
<path d="M17.0178 22.6532
L17.0068 22.6532
" />
<path d="M17.0234 25.3723
L17.0234 25.5723
" />
<path d="M17.0234 26.7342
L17.0234 26.5342
" />
<path d="M17.0286 20.2903
L17.0389 20.2903
" />
<path d="M17.0286 22.6532
L17.0178 22.6532
" />
<path d="M17.0383 20.0579
L17.0631 20.1130
" />
<path d="M17.0383 20.0579
L17.0631 20.1130
" />
<path d="M17.0383 22.8856
L17.0071 22.9372
" />
<path d="M17.0383 22.8856
L17.0071 22.9372
" />
<path d="M17.0389 20.2903
L17.0488 20.2903
" />
<path d="M17.0389 22.6532
L17.0286 22.6532
" />
<path d="M17.0488 20.2903
L17.0579 20.2903
" />
<path d="M17.0488 22.6532
L17.0389 22.6532
" />
<path d="M17.0579 20.2903
L17.0663 20.2903
" />
<path d="M17.0579 22.6532
L17.0488 22.6532
" />
<path d="M17.0631 20.1130
L17.0810 20.1706
" />
<path d="M17.0631 20.1130
L17.0810 20.1706
" />
<path d="M17.0631 22.8305
L17.0383 22.8856
" />
<path d="M17.0631 22.8305
L17.0383 22.8856
" />
<path d="M17.0663 20.2903
L17.0737 20.2903
" />
<path d="M17.0663 22.6532
L17.0579 22.6532
" />
<path d="M17.0737 20.2903
L17.0802 20.2903
" />
<path d="M17.0737 22.6532
L17.0663 22.6532
" />
<path d="M17.0802 20.2903
L17.0857 20.2903
" />
<path d="M17.0802 22.6532
L17.0737 22.6532
" />
<path d="M17.0810 20.1706
L17.0919 20.2300
" />
<path d="M17.0810 20.1706
L17.0919 20.2300
" />
<path d="M17.0810 22.7728
L17.0631 22.8305
" />
<path d="M17.0810 22.7728
L17.0631 22.8305
" />
<path d="M17.0857 20.2903
L17.0899 20.2903
" />
<path d="M17.0857 22.6532
L17.0802 22.6532
" />
<path d="M17.0899 20.2903
L17.0931 20.2903
" />
<path d="M17.0899 22.6532
L17.0857 22.6532
" />
<path d="M17.0919 20.2300
L17.0956 20.2903
" />
<path d="M17.0919 20.2300
L17.0956 20.2903
" />
<path d="M17.0919 22.7135
L17.0810 22.7728
" />
<path d="M17.0919 22.7135
L17.0810 22.7728
" />
<path d="M17.0931 20.2903
L17.0949 20.2903
" />
<path d="M17.0931 22.6532
L17.0899 22.6532
" />
<path d="M17.0949 20.2903
L17.0956 20.2903
" />
<path d="M17.0949 22.6532
L17.0931 22.6532
" />
<path d="M17.0956 20.2903
L17.0956 22.6532
" />
<path d="M17.0956 20.2903
L17.0956 22.6532
" />
<path d="M17.0956 22.6532
L17.0919 22.7135
" />
<path d="M17.0956 22.6532
L17.0919 22.7135
" />
<path d="M17.0956 22.6532
L17.0949 22.6532
" />
<path d="M17.4680 15.6527
L16.9680 15.6527
" />
<path d="M17.4680 15.6527
L17.4680 16.6527
" />
<path d="M17.4680 16.6527
L16.9680 16.6527
" />
<path d="M18.4030 13.2590
L18.4030 14.7830
" />
<path d="M18.4030 13.2590
L19.1650 13.2590
" />
<path d="M18.4030 14.7830
L19.1650 14.7830
" />
<path d="M18.4030 15.7990
L18.4030 17.3230
" />
<path d="M18.4030 15.7990
L19.1650 15.7990
" />
<path d="M18.4030 17.3230
L19.1650 17.3230
" />
<path d="M18.4030 18.3390
L18.4030 19.8630
" />
<path d="M18.4030 18.3390
L19.1650 18.3390
" />
<path d="M18.4030 19.8630
L19.1650 19.8630
" />
<path d="M18.4030 20.8790
L18.4030 22.4030
" />
<path d="M18.4030 20.8790
L19.1650 20.8790
" />
<path d="M18.4030 22.4030
L19.1650 22.4030
" />
<path d="M18.4030 23.4190
L18.4030 24.9430
" />
<path d="M18.4030 23.4190
L19.1650 23.4190
" />
<path d="M18.4030 24.9430
L19.1650 24.9430
" />
<path d="M18.4030 25.9590
L18.4030 27.4830
" />
<path d="M18.4030 25.9590
L19.1650 25.9590
" />
<path d="M18.4030 27.4830
L19.1650 27.4830
" />
<path d="M18.5491 0.6318
L18.5491 11.6004
" />
<path d="M18.5491 11.6004
L16.5513 11.6004
" />
<path d="M18.8160 13.9948
L18.8160 14.0472
" />
<path d="M18.8160 14.0472
L18.8238 14.0989
" />
<path d="M18.8160 16.5348
L18.8160 16.5872
" />
<path d="M18.8160 16.5872
L18.8238 16.6389
" />
<path d="M18.8160 19.0748
L18.8160 19.1272
" />
<path d="M18.8160 19.1272
L18.8238 19.1789
" />
<path d="M18.8160 21.6148
L18.8160 21.6672
" />
<path d="M18.8160 21.6672
L18.8238 21.7189
" />
<path d="M18.8160 24.1548
L18.8160 24.2072
" />
<path d="M18.8160 24.2072
L18.8238 24.2589
" />
<path d="M18.8160 26.6948
L18.8160 26.7472
" />
<path d="M18.8160 26.7472
L18.8238 26.7989
" />
<path d="M18.8238 13.9431
L18.8160 13.9948
" />
<path d="M18.8238 14.0989
L18.8392 14.1489
" />
<path d="M18.8238 16.4831
L18.8160 16.5348
" />
<path d="M18.8238 16.6389
L18.8392 16.6889
" />
<path d="M18.8238 19.0231
L18.8160 19.0748
" />
<path d="M18.8238 19.1789
L18.8392 19.2289
" />
<path d="M18.8238 21.5631
L18.8160 21.6148
" />
<path d="M18.8238 21.7189
L18.8392 21.7689
" />
<path d="M18.8238 24.1031
L18.8160 24.1548
" />
<path d="M18.8238 24.2589
L18.8392 24.3089
" />
<path d="M18.8238 26.6431
L18.8160 26.6948
" />
<path d="M18.8238 26.7989
L18.8392 26.8489
" />
<path d="M18.8392 13.8931
L18.8238 13.9431
" />
<path d="M18.8392 14.1489
L18.8619 14.1960
" />
<path d="M18.8392 16.4331
L18.8238 16.4831
" />
<path d="M18.8392 16.6889
L18.8619 16.7360
" />
<path d="M18.8392 18.9731
L18.8238 19.0231
" />
<path d="M18.8392 19.2289
L18.8619 19.2760
" />
<path d="M18.8392 21.5131
L18.8238 21.5631
" />
<path d="M18.8392 21.7689
L18.8619 21.8160
" />
<path d="M18.8392 24.0531
L18.8238 24.1031
" />
<path d="M18.8392 24.3089
L18.8619 24.3560
" />
<path d="M18.8392 26.5931
L18.8238 26.6431
" />
<path d="M18.8392 26.8489
L18.8619 26.8960
" />
<path d="M18.8619 13.8460
L18.8392 13.8931
" />
<path d="M18.8619 14.1960
L18.8914 14.2392
" />
<path d="M18.8619 16.3860
L18.8392 16.4331
" />
<path d="M18.8619 16.7360
L18.8914 16.7792
" />
<path d="M18.8619 18.9260
L18.8392 18.9731
" />
<path d="M18.8619 19.2760
L18.8914 19.3192
" />
<path d="M18.8619 21.4660
L18.8392 21.5131
" />
<path d="M18.8619 21.8160
L18.8914 21.8592
" />
<path d="M18.8619 24.0060
L18.8392 24.0531
" />
<path d="M18.8619 24.3560
L18.8914 24.3992
" />
<path d="M18.8619 26.5460
L18.8392 26.5931
" />
<path d="M18.8619 26.8960
L18.8914 26.9392
" />
<path d="M18.8914 13.8028
L18.8619 13.8460
" />
<path d="M18.8914 14.2392
L18.9269 14.2776
" />
<path d="M18.8914 16.3428
L18.8619 16.3860
" />
<path d="M18.8914 16.7792
L18.9269 16.8176
" />
<path d="M18.8914 18.8828
L18.8619 18.9260
" />
<path d="M18.8914 19.3192
L18.9269 19.3576
" />
<path d="M18.8914 21.4228
L18.8619 21.4660
" />
<path d="M18.8914 21.8592
L18.9269 21.8976
" />
<path d="M18.8914 23.9628
L18.8619 24.0060
" />
<path d="M18.8914 24.3992
L18.9269 24.4376
" />
<path d="M18.8914 26.5028
L18.8619 26.5460
" />
<path d="M18.8914 26.9392
L18.9269 26.9776
" />
<path d="M18.9269 13.7644
L18.8914 13.8028
" />
<path d="M18.9269 14.2776
L18.9678 14.3102
" />
<path d="M18.9269 16.3044
L18.8914 16.3428
" />
<path d="M18.9269 16.8176
L18.9678 16.8502
" />
<path d="M18.9269 18.8444
L18.8914 18.8828
" />
<path d="M18.9269 19.3576
L18.9678 19.3902
" />
<path d="M18.9269 21.3844
L18.8914 21.4228
" />
<path d="M18.9269 21.8976
L18.9678 21.9302
" />
<path d="M18.9269 23.9244
L18.8914 23.9628
" />
<path d="M18.9269 24.4376
L18.9678 24.4702
" />
<path d="M18.9269 26.4644
L18.8914 26.5028
" />
<path d="M18.9269 26.9776
L18.9678 27.0102
" />
<path d="M18.9678 13.7318
L18.9269 13.7644
" />
<path d="M18.9678 14.3102
L19.0131 14.3363
" />
<path d="M18.9678 16.2718
L18.9269 16.3044
" />
<path d="M18.9678 16.8502
L19.0131 16.8763
" />
<path d="M18.9678 18.8118
L18.9269 18.8444
" />
<path d="M18.9678 19.3902
L19.0131 19.4163
" />
<path d="M18.9678 21.3518
L18.9269 21.3844
" />
<path d="M18.9678 21.9302
L19.0131 21.9563
" />
<path d="M18.9678 23.8918
L18.9269 23.9244
" />
<path d="M18.9678 24.4702
L19.0131 24.4963
" />
<path d="M18.9678 26.4318
L18.9269 26.4644
" />
<path d="M18.9678 27.0102
L19.0131 27.0363
" />
<path d="M19.0131 13.7057
L18.9678 13.7318
" />
<path d="M19.0131 14.3363
L19.0618 14.3554
" />
<path d="M19.0131 16.2457
L18.9678 16.2718
" />
<path d="M19.0131 16.8763
L19.0618 16.8955
" />
<path d="M19.0131 18.7857
L18.9678 18.8118
" />
<path d="M19.0131 19.4163
L19.0618 19.4354
" />
<path d="M19.0131 21.3257
L18.9678 21.3518
" />
<path d="M19.0131 21.9563
L19.0618 21.9754
" />
<path d="M19.0131 23.8657
L18.9678 23.8918
" />
<path d="M19.0131 24.4963
L19.0618 24.5155
" />
<path d="M19.0131 26.4057
L18.9678 26.4318
" />
<path d="M19.0131 27.0363
L19.0618 27.0555
" />
<path d="M19.0618 13.6865
L19.0131 13.7057
" />
<path d="M19.0618 14.3554
L19.1128 14.3671
" />
<path d="M19.0618 16.2265
L19.0131 16.2457
" />
<path d="M19.0618 16.8955
L19.1128 16.9071
" />
<path d="M19.0618 18.7665
L19.0131 18.7857
" />
<path d="M19.0618 19.4354
L19.1128 19.4471
" />
<path d="M19.0618 21.3065
L19.0131 21.3257
" />
<path d="M19.0618 21.9754
L19.1128 21.9871
" />
<path d="M19.0618 23.8465
L19.0131 23.8657
" />
<path d="M19.0618 24.5155
L19.1128 24.5271
" />
<path d="M19.0618 26.3865
L19.0131 26.4057
" />
<path d="M19.0618 27.0555
L19.1128 27.0671
" />
<path d="M19.1128 13.6749
L19.0618 13.6865
" />
<path d="M19.1128 14.3671
L19.1650 14.3710
" />
<path d="M19.1128 16.2149
L19.0618 16.2265
" />
<path d="M19.1128 16.9071
L19.1650 16.9110
" />
<path d="M19.1128 18.7549
L19.0618 18.7665
" />
<path d="M19.1128 19.4471
L19.1650 19.4510
" />
<path d="M19.1128 21.2949
L19.0618 21.3065
" />
<path d="M19.1128 21.9871
L19.1650 21.9910
" />
<path d="M19.1128 23.8349
L19.0618 23.8465
" />
<path d="M19.1128 24.5271
L19.1650 24.5310
" />
<path d="M19.1128 26.3749
L19.0618 26.3865
" />
<path d="M19.1128 27.0671
L19.1650 27.0710
" />
<path d="M19.1650 0.3050
L19.1650 13.2590
" />
<path d="M19.1650 13.2590
L19.1650 13.6710
" />
<path d="M19.1650 13.6710
L19.1128 13.6749
" />
<path d="M19.1650 14.3710
L19.1650 14.7830
" />
<path d="M19.1650 14.7830
L19.1650 15.7990
" />
<path d="M19.1650 15.7990
L19.1650 16.2110
" />
<path d="M19.1650 16.2110
L19.1128 16.2149
" />
<path d="M19.1650 16.9110
L19.1650 17.3230
" />
<path d="M19.1650 17.3230
L19.1650 18.3390
" />
<path d="M19.1650 18.3390
L19.1650 18.7510
" />
<path d="M19.1650 18.7510
L19.1128 18.7549
" />
<path d="M19.1650 19.4510
L19.1650 19.8630
" />
<path d="M19.1650 19.8630
L19.1650 20.8790
" />
<path d="M19.1650 20.8790
L19.1650 21.2910
" />
<path d="M19.1650 21.2910
L19.1128 21.2949
" />
<path d="M19.1650 21.9910
L19.1650 22.4030
" />
<path d="M19.1650 22.4030
L19.1650 23.4190
" />
<path d="M19.1650 23.4190
L19.1650 23.8310
" />
<path d="M19.1650 23.8310
L19.1128 23.8349
" />
<path d="M19.1650 24.5310
L19.1650 24.9430
" />
<path d="M19.1650 24.9430
L19.1650 25.9590
" />
<path d="M19.1650 25.9590
L19.1650 26.3710
" />
<path d="M19.1650 26.3710
L19.1128 26.3749
" />
<path d="M19.1650 27.0710
L19.1650 27.4830
" />
<path d="M19.1650 27.4830
L19.1650 28.2450
" />
</g> 
</svg>
