{
  "accessors": [
    {
      "bufferView": 0,
      "byteOffset": 0,
      "componentType": 5126,
      "normalized": false,
      "count": 1479,
      "type": "VEC3",
      "max": [
        4.0,
        4.188769817352295,
        4.0
      ],
      "min": [
        -3.999999761581421,
        0.25884246826171875,
        -3.999999761581421
      ]
    },
    {
      "bufferView": 0,
      "byteOffset": 12,
      "componentType": 5126,
      "normalized": false,
      "count": 1479,
      "type": "VEC3"
    },
    {
      "bufferView": 0,
      "byteOffset": 24,
      "componentType": 5126,
      "normalized": false,
      "count": 1479,
      "type": "VEC2"
    },
    {
      "bufferView": 1,
      "byteOffset": 0,
      "componentType": 5123,
      "normalized": false,
      "count": 6048,
      "type": "SCALAR"
    },
    {
      "bufferView": 1,
      "byteOffset": 12096,
      "componentType": 5123,
      "normalized": false,
      "count": 168,
      "type": "SCALAR"
    },
    {
      "bufferView": 1,
      "byteOffset": 12432,
      "componentType": 5123,
      "normalized": false,
      "count": 840,
      "type": "SCALAR"
    },
    {
      "bufferView": 2,
      "byteOffset": 0,
      "componentType": 5126,
      "normalized": false,
      "count": 80,
      "type": "VEC3",
      "max": [
        3.569000005722046,
        0.5690183639526367,
        3.1501576900482178
      ],
      "min": [
        -3.569000005722046,
        0.0,
        -3.1499998569488525
      ]
    },
    {
      "bufferView": 2,
      "byteOffset": 12,
      "componentType": 5126,
      "normalized": false,
      "count": 80,
      "type": "VEC3"
    },
    {
      "bufferView": 2,
      "byteOffset": 24,
      "componentType": 5126,
      "normalized": false,
      "count": 80,
      "type": "VEC2"
    },
    {
      "bufferView": 3,
      "byteOffset": 0,
      "componentType": 5126,
      "normalized": false,
      "count": 222,
      "type": "VEC3",
      "max": [
        3.5,
        3.4887211322784424,
        3.5
      ],
      "min": [
        -3.5,
        0.9588424563407898,
        -3.5
      ]
    },
    {
      "bufferView": 3,
      "byteOffset": 12,
      "componentType": 5126,
      "normalized": false,
      "count": 222,
      "type": "VEC3"
    },
    {
      "bufferView": 3,
      "byteOffset": 24,
      "componentType": 5126,
      "normalized": false,
      "count": 222,
      "type": "VEC2"
    }
  ],
  "asset": {
    "generator": "pygltflib@v1.16.4",
    "version": "2.0"
  },
  "bufferViews": [
    {
      "buffer": 0,
      "byteOffset": 0,
      "byteLength": 47328,
      "byteStride": 32,
      "target": 34962
    },
    {
      "buffer": 0,
      "byteOffset": 47328,
      "byteLength": 14112,
      "target": 34963
    },
    {
      "buffer": 0,
      "byteOffset": 61440,
      "byteLength": 2560,
      "byteStride": 32,
      "target": 34962
    },
    {
      "buffer": 0,
      "byteOffset": 64000,
      "byteLength": 7104,
      "byteStride": 32,
      "target": 34962
    }
  ],
  "buffers": [
    {
      "uri": "L_Bourns-SRN8040.bin",
      "byteLength": 71104
    }
  ],
  "extensionsUsed": [
    "KHR_materials_clearcoat",
    "KHR_materials_ior",
    "KHR_materials_sheen",
    "KHR_materials_specular",
    "KHR_texture_basisu"
  ],
  "extensionsRequired": [
    "KHR_texture_basisu"
  ],
  "images": [
    {
      "uri": "../shared_textures/inductor_ceramic_2_color.ktx2",
      "mimeType": "image/ktx2",
      "name": "inductor_ceramic_2_color"
    },
    {
      "uri": "../shared_textures/metal_pins_normal.ktx2",
      "mimeType": "image/ktx2",
      "name": "metal_pins_normal"
    },
    {
      "uri": "../shared_textures/metal_pins_color.ktx2",
      "mimeType": "image/ktx2",
      "name": "metal_pins_color"
    },
    {
      "uri": "../shared_textures/plastic_blue_normal.ktx2",
      "mimeType": "image/ktx2",
      "name": "plastic_blue_normal"
    },
    {
      "uri": "../shared_textures/plastic_blue_color.ktx2",
      "mimeType": "image/ktx2",
      "name": "plastic_blue_color"
    }
  ],
  "materials": [
    {
      "extensions": {
        "KHR_materials_clearcoat": {
          "clearcoatFactor": 0,
          "clearcoatRoughnessFactor": 0.3500000238418579
        },
        "KHR_materials_ior": {
          "ior": 1.4500000476837158
        },
        "KHR_materials_sheen": {
          "sheenColorFactor": [
            1,
            1,
            1
          ],
          "sheenRoughnessFactor": 0.5
        },
        "KHR_materials_specular": {
          "specularColorFactor": [
            1.9839683771133423,
            1.983644962310791,
            1.9872915744781494
          ]
        }
      },
      "pbrMetallicRoughness": {
        "baseColorFactor": [
          1.0,
          1.0,
          1.0,
          1.0
        ],
        "metallicFactor": 0.8999999761581421,
        "roughnessFactor": 0.49300000071525574,
        "baseColorTexture": {
          "index": 0,
          "texCoord": 0
        }
      },
      "emissiveFactor": [
        0.0,
        0.0,
        0.0
      ],
      "alphaMode": "OPAQUE",
      "alphaCutoff": 0.5,
      "doubleSided": true,
      "name": "gltf_inductor_ceramic_2"
    },
    {
      "extensions": {
        "KHR_materials_ior": {
          "ior": 1.4500000476837158
        },
        "KHR_materials_specular": {
          "specularFactor": 0
        }
      },
      "pbrMetallicRoughness": {
        "baseColorFactor": [
          1.0,
          1.0,
          1.0,
          1.0
        ],
        "metallicFactor": 0.7818182110786438,
        "roughnessFactor": 0.28863638639450073,
        "baseColorTexture": {
          "index": 1,
          "texCoord": 0
        }
      },
      "normalTexture": {
        "index": 2,
        "scale": 1.0
      },
      "emissiveFactor": [
        0.0,
        0.0,
        0.0
      ],
      "alphaMode": "OPAQUE",
      "alphaCutoff": 0.5,
      "doubleSided": true,
      "name": "gltf_metal_pins"
    },
    {
      "extensions": {
        "KHR_materials_ior": {
          "ior": 1.399999976158142
        },
        "KHR_materials_specular": {
          "specularFactor": 0.6000000238418579
        }
      },
      "pbrMetallicRoughness": {
        "baseColorFactor": [
          1.0,
          1.0,
          1.0,
          1.0
        ],
        "metallicFactor": 0.019999999552965164,
        "roughnessFactor": 0.4636361598968506,
        "baseColorTexture": {
          "index": 3,
          "texCoord": 0
        }
      },
      "normalTexture": {
        "index": 4,
        "scale": 1.0
      },
      "emissiveFactor": [
        0.0,
        0.0,
        0.0
      ],
      "alphaMode": "OPAQUE",
      "alphaCutoff": 0.5,
      "doubleSided": true,
      "name": "gltf_plastic_blue"
    }
  ],
  "meshes": [
    {
      "primitives": [
        {
          "attributes": {
            "POSITION": 0,
            "NORMAL": 1,
            "TEXCOORD_0": 2
          },
          "indices": 3,
          "mode": 4,
          "material": 0
        },
        {
          "attributes": {
            "POSITION": 6,
            "NORMAL": 7,
            "TEXCOORD_0": 8
          },
          "indices": 4,
          "mode": 4,
          "material": 1
        },
        {
          "attributes": {
            "POSITION": 9,
            "NORMAL": 10,
            "TEXCOORD_0": 11
          },
          "indices": 5,
          "mode": 4,
          "material": 2
        }
      ],
      "name": "L_Bourns-SRN8040"
    }
  ],
  "nodes": [
    {
      "extras": {
        "REF": "L",
        "model_diagonal": 12.064260794669144
      },
      "mesh": 0,
      "name": "L_Bourns-SRN8040"
    }
  ],
  "samplers": [
    {
      "magFilter": 9729,
      "minFilter": 9987,
      "wrapS": 10497,
      "wrapT": 10497
    }
  ],
  "scene": 0,
  "scenes": [
    {
      "extras": {
        "matlib": {
          "lib_index": 0,
          "filter": 0,
          "cat_index": -1,
          "all_materials": [
            {
              "name": "Metal"
            },
            {
              "name": "bga_balls"
            },
            {
              "name": "chip_enclosure"
            },
            {
              "name": "chip_enclosure_detailed"
            },
            {
              "name": "composite"
            },
            {
              "name": "enclosure_alu"
            },
            {
              "name": "enclosure_alu_polished"
            },
            {
              "name": "enclosure_gold"
            },
            {
              "name": "metal_pins_simple"
            },
            {
              "name": "pin1_marking_dark"
            },
            {
              "name": "pin_tht_gold"
            },
            {
              "name": "pin_tht_silver"
            },
            {
              "name": "plastic yellow"
            },
            {
              "name": "plastic_black"
            },
            {
              "name": "plastic_black_detailed"
            },
            {
              "name": "plastic_green_lightning"
            },
            {
              "name": "plastic_white"
            },
            {
              "name": "plastic_yellow_lightning"
            },
            {
              "name": "smd_cap_case"
            },
            {
              "name": "smd_cap_pins"
            },
            {
              "name": "smd_res_case"
            }
          ],
          "materials": [
            {
              "name": "Metal"
            },
            {
              "name": "bga_balls"
            },
            {
              "name": "chip_enclosure"
            },
            {
              "name": "chip_enclosure_detailed"
            },
            {
              "name": "composite"
            },
            {
              "name": "enclosure_alu"
            },
            {
              "name": "enclosure_alu_polished"
            },
            {
              "name": "enclosure_gold"
            },
            {
              "name": "metal_pins_simple"
            },
            {
              "name": "pin1_marking_dark"
            },
            {
              "name": "pin_tht_gold"
            },
            {
              "name": "pin_tht_silver"
            },
            {
              "name": "plastic yellow"
            },
            {
              "name": "plastic_black"
            },
            {
              "name": "plastic_black_detailed"
            },
            {
              "name": "plastic_green_lightning"
            },
            {
              "name": "plastic_white"
            },
            {
              "name": "plastic_yellow_lightning"
            },
            {
              "name": "smd_cap_case"
            },
            {
              "name": "smd_cap_pins"
            },
            {
              "name": "smd_res_case"
            }
          ],
          "mat_index": 8
        },
        "sketcher": {
          "version": [
            0,
            24,
            0
          ]
        }
      },
      "name": "Scene",
      "nodes": [
        0
      ]
    }
  ],
  "textures": [
    {
      "extensions": {
        "KHR_texture_basisu": {
          "source": 0
        }
      },
      "sampler": 0
    },
    {
      "extensions": {
        "KHR_texture_basisu": {
          "source": 2
        }
      },
      "sampler": 0
    },
    {
      "extensions": {
        "KHR_texture_basisu": {
          "source": 1
        }
      },
      "sampler": 0
    },
    {
      "extensions": {
        "KHR_texture_basisu": {
          "source": 4
        }
      },
      "sampler": 0
    },
    {
      "extensions": {
        "KHR_texture_basisu": {
          "source": 3
        }
      },
      "sampler": 0
    }
  ]
}