<?xml version="1.0" standalone="no"?>
 <!DOCTYPE svg PUBLIC "-//W3C//DTD SVG 1.1//EN" 
 "http://www.w3.org/Graphics/SVG/1.1/DTD/svg11.dtd"> 
<svg
  xmlns:svg="http://www.w3.org/2000/svg"
  xmlns="http://www.w3.org/2000/svg"
  xmlns:xlink="http://www.w3.org/1999/xlink"
  version="1.1"
  width="5.6134mm" height="5.6134mm" viewBox="0.0000 0.0000 5.6134 5.6134">
<title>SVG Image created as outline.svg date 2025/04/04 10:06:31 </title>
  <desc>Image generated by PCBNEW </desc>
<g style="fill:#000000; fill-opacity:1.0000;stroke:#000000; stroke-opacity:1.0000;
stroke-linecap:round; stroke-linejoin:round;"
 transform="translate(0 0) scale(1 1)">
</g>
<g style="fill:none; 
stroke:#000000; stroke-width:0.0200; stroke-opacity:1; 
stroke-linecap:round; stroke-linejoin:round;">
<path d="M0.2750 2.5650
L0.2750 0.5250
" />
<path d="M0.2750 2.5650
L0.7750 2.8150
" />
<path d="M0.2750 5.1050
L0.2750 3.0650
" />
<path d="M0.2750 5.1050
L0.7750 5.3550
" />
<path d="M0.7750 0.2750
L0.2750 0.5250
" />
<path d="M0.7750 0.2750
L4.8550 0.2750
" />
<path d="M0.7750 2.8150
L0.2750 3.0650
" />
<path d="M0.7750 5.3550
L4.8550 5.3550
" />
<path d="M1.2250 1.2250
L1.8650 1.2250
" />
<path d="M1.2250 1.8650
L1.2250 1.2250
" />
<path d="M1.2250 3.7650
L1.8650 3.7650
" />
<path d="M1.2250 4.4050
L1.2250 3.7650
" />
<path d="M1.4250 1.4250
L1.2250 1.2250
" />
<path d="M1.4250 1.4250
L1.4250 1.6650
" />
<path d="M1.4250 1.4250
L1.6650 1.4250
" />
<path d="M1.4250 1.6650
L1.2250 1.8650
" />
<path d="M1.4250 1.6650
L1.2250 1.8650
" />
<path d="M1.4250 1.6650
L1.6650 1.6650
" />
<path d="M1.4250 3.9650
L1.2250 3.7650
" />
<path d="M1.4250 3.9650
L1.4250 4.2050
" />
<path d="M1.4250 3.9650
L1.6650 3.9650
" />
<path d="M1.4250 4.2050
L1.2250 4.4050
" />
<path d="M1.4250 4.2050
L1.2250 4.4050
" />
<path d="M1.4250 4.2050
L1.6650 4.2050
" />
<path d="M1.6650 1.4250
L1.4250 1.4250
" />
<path d="M1.6650 1.6650
L1.6650 1.4250
" />
<path d="M1.6650 1.6650
L1.8650 1.8650
" />
<path d="M1.6650 3.9650
L1.4250 3.9650
" />
<path d="M1.6650 4.2050
L1.6650 3.9650
" />
<path d="M1.6650 4.2050
L1.8650 4.4050
" />
<path d="M1.8650 1.2250
L1.6650 1.4250
" />
<path d="M1.8650 1.2250
L1.8650 1.8650
" />
<path d="M1.8650 1.8650
L1.2250 1.8650
" />
<path d="M1.8650 1.8650
L1.8650 1.2250
" />
<path d="M1.8650 3.7650
L1.6650 3.9650
" />
<path d="M1.8650 3.7650
L1.8650 4.4050
" />
<path d="M1.8650 4.4050
L1.2250 4.4050
" />
<path d="M1.8650 4.4050
L1.8650 3.7650
" />
<path d="M3.7650 1.2250
L4.4050 1.2250
" />
<path d="M3.7650 1.8650
L3.7650 1.2250
" />
<path d="M3.7650 1.8650
L3.9650 1.6650
" />
<path d="M3.7650 3.7650
L4.4050 3.7650
" />
<path d="M3.7650 4.4050
L3.7650 3.7650
" />
<path d="M3.9650 1.4250
L3.7650 1.2250
" />
<path d="M3.9650 1.4250
L3.9650 1.6650
" />
<path d="M3.9650 1.4250
L4.2050 1.4250
" />
<path d="M3.9650 1.6650
L3.7650 1.8650
" />
<path d="M3.9650 1.6650
L4.2050 1.6650
" />
<path d="M3.9650 3.9650
L3.7650 3.7650
" />
<path d="M3.9650 3.9650
L3.9650 4.2050
" />
<path d="M3.9650 4.2050
L3.7650 4.4050
" />
<path d="M3.9650 4.2050
L3.7650 4.4050
" />
<path d="M3.9650 4.2050
L4.4050 4.2050
" />
<path d="M4.2050 1.4250
L3.9650 1.4250
" />
<path d="M4.2050 1.6650
L4.2050 1.4250
" />
<path d="M4.2050 1.6650
L4.4050 1.2250
" />
<path d="M4.2050 1.6650
L4.4050 1.8650
" />
<path d="M4.2050 3.9650
L3.9650 3.9650
" />
<path d="M4.2050 4.2050
L4.2050 3.9650
" />
<path d="M4.2050 4.2050
L4.4050 4.4050
" />
<path d="M4.4050 1.2250
L4.2050 1.4250
" />
<path d="M4.4050 1.2250
L4.4050 1.8650
" />
<path d="M4.4050 1.8650
L3.7650 1.8650
" />
<path d="M4.4050 3.7650
L4.2050 3.9650
" />
<path d="M4.4050 3.7650
L4.4050 4.2050
" />
<path d="M4.4050 4.4050
L3.7650 4.4050
" />
<path d="M4.8550 0.2750
L5.3550 0.5250
" />
<path d="M4.8550 2.8150
L5.3550 3.0650
" />
<path d="M5.3550 2.5650
L4.8550 2.8150
" />
<path d="M5.3550 2.5650
L5.3550 0.5250
" />
<path d="M5.3550 5.1050
L4.8550 5.3550
" />
<path d="M5.3550 5.1050
L5.3550 3.0650
" />
</g> 
</svg>
