<?xml version="1.0" standalone="no"?>
 <!DOCTYPE svg PUBLIC "-//W3C//DTD SVG 1.1//EN" 
 "http://www.w3.org/Graphics/SVG/1.1/DTD/svg11.dtd"> 
<svg
  xmlns:svg="http://www.w3.org/2000/svg"
  xmlns="http://www.w3.org/2000/svg"
  xmlns:xlink="http://www.w3.org/1999/xlink"
  version="1.1"
  width="7.0358mm" height="9.6774mm" viewBox="0.0000 0.0000 7.0358 9.6774">
<title>SVG Image created as outline.svg date 2025/06/16 09:17:50 </title>
  <desc>Image generated by PCBNEW </desc>
<g style="fill:#000000; fill-opacity:1.0000;stroke:#000000; stroke-opacity:1.0000;
stroke-linecap:round; stroke-linejoin:round;"
 transform="translate(0 0) scale(1 1)">
</g>
<g style="fill:none; 
stroke:#000000; stroke-width:0.0200; stroke-opacity:1; 
stroke-linecap:round; stroke-linejoin:round;">
<path d="M0.5250 1.8680
L0.5250 2.1180
" />
<path d="M0.5250 2.5040
L0.5250 2.7540
" />
<path d="M0.5250 3.1380
L0.5250 3.3880
" />
<path d="M0.5250 3.7730
L0.5250 4.0230
" />
<path d="M0.5250 4.4090
L0.5250 4.6580
" />
<path d="M0.5250 5.0440
L0.5250 5.2930
" />
<path d="M0.5250 5.6790
L0.5250 5.9280
" />
<path d="M0.5250 6.3130
L0.5250 6.5630
" />
<path d="M0.5250 6.9480
L0.5250 7.1980
" />
<path d="M0.5250 7.5840
L0.5250 7.8340
" />
<path d="M0.7670 1.8680
L0.5250 1.8680
" />
<path d="M0.7670 1.8680
L0.9880 1.8680
" />
<path d="M0.7670 2.1180
L0.5250 2.1180
" />
<path d="M0.7670 2.5040
L0.5250 2.5040
" />
<path d="M0.7670 2.5040
L0.9880 2.5040
" />
<path d="M0.7670 2.7540
L0.5250 2.7540
" />
<path d="M0.7670 3.1380
L0.5250 3.1380
" />
<path d="M0.7670 3.1380
L0.9880 3.1380
" />
<path d="M0.7670 3.3880
L0.5250 3.3880
" />
<path d="M0.7670 3.7730
L0.5250 3.7730
" />
<path d="M0.7670 3.7730
L0.9880 3.7730
" />
<path d="M0.7670 4.0230
L0.5250 4.0230
" />
<path d="M0.7670 4.4090
L0.5250 4.4090
" />
<path d="M0.7670 4.4090
L0.9880 4.4090
" />
<path d="M0.7670 4.6580
L0.5250 4.6580
" />
<path d="M0.7670 5.0440
L0.5250 5.0440
" />
<path d="M0.7670 5.0440
L0.9880 5.0440
" />
<path d="M0.7670 5.2930
L0.5250 5.2930
" />
<path d="M0.7670 5.6790
L0.5250 5.6790
" />
<path d="M0.7670 5.6790
L0.9880 5.6790
" />
<path d="M0.7670 5.9280
L0.5250 5.9280
" />
<path d="M0.7670 6.3130
L0.5250 6.3130
" />
<path d="M0.7670 6.3130
L0.9880 6.3130
" />
<path d="M0.7670 6.5630
L0.5250 6.5630
" />
<path d="M0.7670 6.9480
L0.5250 6.9480
" />
<path d="M0.7670 6.9480
L0.9880 6.9480
" />
<path d="M0.7670 7.1980
L0.5250 7.1980
" />
<path d="M0.7670 7.5840
L0.5250 7.5840
" />
<path d="M0.7670 7.5840
L0.9880 7.5840
" />
<path d="M0.7670 7.8340
L0.5250 7.8340
" />
<path d="M0.9880 2.1180
L0.7670 2.1180
" />
<path d="M0.9880 2.1180
L1.1020 2.1180
" />
<path d="M0.9880 2.7540
L0.7670 2.7540
" />
<path d="M0.9880 2.7540
L1.1020 2.7540
" />
<path d="M0.9880 3.3880
L0.7670 3.3880
" />
<path d="M0.9880 3.3880
L1.1020 3.3880
" />
<path d="M0.9880 4.0230
L0.7670 4.0230
" />
<path d="M0.9880 4.0230
L1.1020 4.0230
" />
<path d="M0.9880 4.6580
L0.7670 4.6580
" />
<path d="M0.9880 4.6580
L1.1020 4.6580
" />
<path d="M0.9880 5.2930
L0.7670 5.2930
" />
<path d="M0.9880 5.2930
L1.1020 5.2930
" />
<path d="M0.9880 5.9280
L0.7670 5.9280
" />
<path d="M0.9880 5.9280
L1.1020 5.9280
" />
<path d="M0.9880 6.5630
L0.7670 6.5630
" />
<path d="M0.9880 6.5630
L1.1020 6.5630
" />
<path d="M0.9880 7.1980
L0.7670 7.1980
" />
<path d="M0.9880 7.1980
L1.1020 7.1980
" />
<path d="M0.9880 7.8340
L0.7670 7.8340
" />
<path d="M0.9880 7.8340
L1.1020 7.8340
" />
<path d="M1.1020 1.8680
L0.9880 1.8680
" />
<path d="M1.1020 1.8680
L1.4050 1.8680
" />
<path d="M1.1020 2.5040
L0.9880 2.5040
" />
<path d="M1.1020 2.5040
L1.4050 2.5040
" />
<path d="M1.1020 3.1380
L0.9880 3.1380
" />
<path d="M1.1020 3.1380
L1.4050 3.1380
" />
<path d="M1.1020 3.7730
L0.9880 3.7730
" />
<path d="M1.1020 3.7730
L1.4050 3.7730
" />
<path d="M1.1020 4.4090
L0.9880 4.4090
" />
<path d="M1.1020 4.4090
L1.4050 4.4090
" />
<path d="M1.1020 5.0440
L0.9880 5.0440
" />
<path d="M1.1020 5.0440
L1.4050 5.0440
" />
<path d="M1.1020 5.6790
L0.9880 5.6790
" />
<path d="M1.1020 5.6790
L1.4050 5.6790
" />
<path d="M1.1020 6.3130
L0.9880 6.3130
" />
<path d="M1.1020 6.3130
L1.4050 6.3130
" />
<path d="M1.1020 6.9480
L0.9880 6.9480
" />
<path d="M1.1020 6.9480
L1.4050 6.9480
" />
<path d="M1.1020 7.5840
L0.9880 7.5840
" />
<path d="M1.1020 7.5840
L1.4050 7.5840
" />
<path d="M1.4050 2.1180
L1.1020 2.1180
" />
<path d="M1.4050 2.7540
L1.1020 2.7540
" />
<path d="M1.4050 3.3880
L1.1020 3.3880
" />
<path d="M1.4050 4.0230
L1.1020 4.0230
" />
<path d="M1.4050 4.6580
L1.1020 4.6580
" />
<path d="M1.4050 5.2930
L1.1020 5.2930
" />
<path d="M1.4050 5.9280
L1.1020 5.9280
" />
<path d="M1.4050 6.5630
L1.1020 6.5630
" />
<path d="M1.4050 7.1980
L1.1020 7.1980
" />
<path d="M1.4050 7.8340
L1.1020 7.8340
" />
<path d="M1.5750 0.6960
L1.5750 0.7040
" />
<path d="M1.5750 0.7040
L1.5750 0.7140
" />
<path d="M1.5750 0.7140
L1.5750 0.7250
" />
<path d="M1.5750 0.7250
L1.5750 0.7270
" />
<path d="M1.5750 0.7270
L1.5750 8.9750
" />
<path d="M1.5750 1.8680
L1.4050 1.8680
" />
<path d="M1.5750 1.8680
L1.5750 2.1180
" />
<path d="M1.5750 2.1180
L1.4050 2.1180
" />
<path d="M1.5750 2.5040
L1.4050 2.5040
" />
<path d="M1.5750 2.5040
L1.5750 2.7540
" />
<path d="M1.5750 2.7540
L1.4050 2.7540
" />
<path d="M1.5750 3.1380
L1.4050 3.1380
" />
<path d="M1.5750 3.1380
L1.5750 3.3880
" />
<path d="M1.5750 3.3880
L1.4050 3.3880
" />
<path d="M1.5750 3.7730
L1.4050 3.7730
" />
<path d="M1.5750 3.7730
L1.5750 4.0230
" />
<path d="M1.5750 4.0230
L1.4050 4.0230
" />
<path d="M1.5750 4.4090
L1.4050 4.4090
" />
<path d="M1.5750 4.4090
L1.5750 4.6580
" />
<path d="M1.5750 4.6580
L1.4050 4.6580
" />
<path d="M1.5750 5.0440
L1.4050 5.0440
" />
<path d="M1.5750 5.0440
L1.5750 5.2930
" />
<path d="M1.5750 5.2930
L1.4050 5.2930
" />
<path d="M1.5750 5.6790
L1.4050 5.6790
" />
<path d="M1.5750 5.6790
L1.5750 5.9280
" />
<path d="M1.5750 5.9280
L1.4050 5.9280
" />
<path d="M1.5750 6.3130
L1.4050 6.3130
" />
<path d="M1.5750 6.3130
L1.5750 6.5630
" />
<path d="M1.5750 6.5630
L1.4050 6.5630
" />
<path d="M1.5750 6.9480
L1.4050 6.9480
" />
<path d="M1.5750 6.9480
L1.5750 7.1980
" />
<path d="M1.5750 7.1980
L1.4050 7.1980
" />
<path d="M1.5750 7.5840
L1.4050 7.5840
" />
<path d="M1.5750 7.5840
L1.5750 7.8340
" />
<path d="M1.5750 7.8340
L1.4050 7.8340
" />
<path d="M1.5750 8.9750
L1.5750 8.9780
" />
<path d="M1.5750 8.9780
L1.5750 8.9880
" />
<path d="M1.5750 8.9880
L1.5750 8.9970
" />
<path d="M1.5750 8.9970
L1.5750 9.0070
" />
<path d="M1.5750 9.0070
L1.5770 9.0160
" />
<path d="M1.5770 0.6850
L1.5750 0.6960
" />
<path d="M1.5770 9.0160
L1.5790 9.0260
" />
<path d="M1.5790 0.6770
L1.5770 0.6850
" />
<path d="M1.5790 9.0260
L1.5830 9.0360
" />
<path d="M1.5830 0.6660
L1.5790 0.6770
" />
<path d="M1.5830 9.0360
L1.5850 9.0450
" />
<path d="M1.5850 0.6580
L1.5830 0.6660
" />
<path d="M1.5850 9.0450
L1.5890 9.0530
" />
<path d="M1.5890 0.6480
L1.5850 0.6580
" />
<path d="M1.5890 9.0530
L1.5930 9.0630
" />
<path d="M1.5930 0.6400
L1.5890 0.6480
" />
<path d="M1.5930 9.0630
L1.5970 9.0710
" />
<path d="M1.5970 0.6320
L1.5930 0.6400
" />
<path d="M1.5970 9.0710
L1.6030 9.0790
" />
<path d="M1.6030 0.6220
L1.5970 0.6320
" />
<path d="M1.6030 9.0790
L1.6080 9.0870
" />
<path d="M1.6080 0.6140
L1.6030 0.6220
" />
<path d="M1.6080 9.0870
L1.6140 9.0950
" />
<path d="M1.6140 0.6060
L1.6080 0.6140
" />
<path d="M1.6140 9.0950
L1.6200 9.1030
" />
<path d="M1.6200 0.6000
L1.6140 0.6060
" />
<path d="M1.6200 9.1030
L1.6260 9.1110
" />
<path d="M1.6260 0.5920
L1.6200 0.6000
" />
<path d="M1.6260 9.1110
L1.6320 9.1170
" />
<path d="M1.6320 0.5840
L1.6260 0.5920
" />
<path d="M1.6320 9.1170
L1.6400 9.1240
" />
<path d="M1.6400 0.5790
L1.6320 0.5840
" />
<path d="M1.6400 9.1240
L1.6480 9.1300
" />
<path d="M1.6480 0.5710
L1.6400 0.5790
" />
<path d="M1.6480 9.1300
L1.6540 9.1370
" />
<path d="M1.6540 0.5650
L1.6480 0.5710
" />
<path d="M1.6540 9.1370
L1.6620 9.1410
" />
<path d="M1.6620 0.5600
L1.6540 0.5650
" />
<path d="M1.6620 9.1410
L1.6700 9.1480
" />
<path d="M1.6700 0.5550
L1.6620 0.5600
" />
<path d="M1.6700 9.1480
L1.6800 9.1530
" />
<path d="M1.6800 0.5490
L1.6700 0.5550
" />
<path d="M1.6800 9.1530
L1.6880 9.1560
" />
<path d="M1.6880 0.5460
L1.6800 0.5490
" />
<path d="M1.6880 9.1560
L1.6960 9.1610
" />
<path d="M1.6960 0.5410
L1.6880 0.5460
" />
<path d="M1.6960 9.1610
L1.7060 9.1640
" />
<path d="M1.7060 0.5380
L1.6960 0.5410
" />
<path d="M1.7060 9.1640
L1.7140 9.1670
" />
<path d="M1.7140 0.5340
L1.7060 0.5380
" />
<path d="M1.7140 9.1670
L1.7240 9.1700
" />
<path d="M1.7240 0.5310
L1.7140 0.5340
" />
<path d="M1.7240 9.1700
L1.7330 9.1720
" />
<path d="M1.7330 0.5300
L1.7240 0.5310
" />
<path d="M1.7330 9.1720
L1.7430 9.1750
" />
<path d="M1.7430 0.5280
L1.7330 0.5300
" />
<path d="M1.7430 9.1750
L1.7530 9.1750
" />
<path d="M1.7530 0.5260
L1.7430 0.5280
" />
<path d="M1.7530 9.1750
L1.7630 9.1750
" />
<path d="M1.7630 0.5260
L1.7530 0.5260
" />
<path d="M1.7630 9.1750
L1.7730 9.1750
" />
<path d="M1.7730 0.5260
L1.7630 0.5260
" />
<path d="M1.7730 9.1750
L1.7750 9.1770
" />
<path d="M1.7750 0.5250
L1.7730 0.5260
" />
<path d="M1.7750 9.1770
L5.2740 9.1770
" />
<path d="M5.2740 0.5250
L1.7750 0.5250
" />
<path d="M5.2740 9.1770
L5.2760 9.1750
" />
<path d="M5.2760 0.5260
L5.2740 0.5250
" />
<path d="M5.2760 9.1750
L5.2860 9.1750
" />
<path d="M5.2860 0.5260
L5.2760 0.5260
" />
<path d="M5.2860 9.1750
L5.2960 9.1750
" />
<path d="M5.2960 0.5260
L5.2860 0.5260
" />
<path d="M5.2960 9.1750
L5.3040 9.1750
" />
<path d="M5.3040 0.5280
L5.2960 0.5260
" />
<path d="M5.3040 9.1750
L5.3140 9.1720
" />
<path d="M5.3140 0.5300
L5.3040 0.5280
" />
<path d="M5.3140 9.1720
L5.3230 9.1700
" />
<path d="M5.3230 0.5310
L5.3140 0.5300
" />
<path d="M5.3230 9.1700
L5.3330 9.1670
" />
<path d="M5.3330 0.5340
L5.3230 0.5310
" />
<path d="M5.3330 9.1670
L5.3430 9.1640
" />
<path d="M5.3430 0.5380
L5.3330 0.5340
" />
<path d="M5.3430 9.1640
L5.3510 9.1610
" />
<path d="M5.3510 0.5410
L5.3430 0.5380
" />
<path d="M5.3510 9.1610
L5.3610 9.1560
" />
<path d="M5.3610 0.5460
L5.3510 0.5410
" />
<path d="M5.3610 9.1560
L5.3690 9.1530
" />
<path d="M5.3690 0.5490
L5.3610 0.5460
" />
<path d="M5.3690 9.1530
L5.3770 9.1480
" />
<path d="M5.3770 0.5550
L5.3690 0.5490
" />
<path d="M5.3770 9.1480
L5.3850 9.1410
" />
<path d="M5.3850 0.5600
L5.3770 0.5550
" />
<path d="M5.3850 9.1410
L5.3930 9.1370
" />
<path d="M5.3930 0.5650
L5.3850 0.5600
" />
<path d="M5.3930 9.1370
L5.4010 9.1300
" />
<path d="M5.4010 0.5710
L5.3930 0.5650
" />
<path d="M5.4010 9.1300
L5.4090 9.1240
" />
<path d="M5.4090 0.5790
L5.4010 0.5710
" />
<path d="M5.4090 9.1240
L5.4150 9.1170
" />
<path d="M5.4150 0.5840
L5.4090 0.5790
" />
<path d="M5.4150 9.1170
L5.4210 9.1110
" />
<path d="M5.4210 0.5920
L5.4150 0.5840
" />
<path d="M5.4210 9.1110
L5.4290 9.1030
" />
<path d="M5.4290 0.6000
L5.4210 0.5920
" />
<path d="M5.4290 9.1030
L5.4350 9.0950
" />
<path d="M5.4350 0.6060
L5.4290 0.6000
" />
<path d="M5.4350 9.0950
L5.4390 9.0870
" />
<path d="M5.4390 0.6140
L5.4350 0.6060
" />
<path d="M5.4390 9.0870
L5.4460 9.0790
" />
<path d="M5.4460 0.6220
L5.4390 0.6140
" />
<path d="M5.4460 9.0790
L5.4500 9.0710
" />
<path d="M5.4500 0.6320
L5.4460 0.6220
" />
<path d="M5.4500 9.0710
L5.4540 9.0630
" />
<path d="M5.4540 0.6400
L5.4500 0.6320
" />
<path d="M5.4540 9.0630
L5.4580 9.0530
" />
<path d="M5.4580 0.6480
L5.4540 0.6400
" />
<path d="M5.4580 9.0530
L5.4620 9.0450
" />
<path d="M5.4620 0.6580
L5.4580 0.6480
" />
<path d="M5.4620 9.0450
L5.4660 9.0360
" />
<path d="M5.4660 0.6660
L5.4620 0.6580
" />
<path d="M5.4660 9.0360
L5.4680 9.0260
" />
<path d="M5.4680 0.6770
L5.4660 0.6660
" />
<path d="M5.4680 9.0260
L5.4700 9.0160
" />
<path d="M5.4700 0.6850
L5.4680 0.6770
" />
<path d="M5.4700 9.0160
L5.4720 9.0070
" />
<path d="M5.4720 0.6960
L5.4700 0.6850
" />
<path d="M5.4720 9.0070
L5.4740 8.9970
" />
<path d="M5.4740 0.7040
L5.4720 0.6960
" />
<path d="M5.4740 0.7140
L5.4740 0.7040
" />
<path d="M5.4740 0.7250
L5.4740 0.7140
" />
<path d="M5.4740 0.7270
L5.4740 0.7250
" />
<path d="M5.4740 1.8680
L5.6420 1.8680
" />
<path d="M5.4740 2.1180
L5.4740 1.8680
" />
<path d="M5.4740 2.1180
L5.6420 2.1180
" />
<path d="M5.4740 2.5040
L5.6420 2.5040
" />
<path d="M5.4740 2.7540
L5.4740 2.5040
" />
<path d="M5.4740 2.7540
L5.6420 2.7540
" />
<path d="M5.4740 3.1380
L5.6420 3.1380
" />
<path d="M5.4740 3.3880
L5.4740 3.1380
" />
<path d="M5.4740 3.3880
L5.6420 3.3880
" />
<path d="M5.4740 3.7730
L5.6420 3.7730
" />
<path d="M5.4740 4.0230
L5.4740 3.7730
" />
<path d="M5.4740 4.0230
L5.6420 4.0230
" />
<path d="M5.4740 4.4090
L5.6420 4.4090
" />
<path d="M5.4740 4.6580
L5.4740 4.4090
" />
<path d="M5.4740 4.6580
L5.6420 4.6580
" />
<path d="M5.4740 5.0440
L5.6420 5.0440
" />
<path d="M5.4740 5.2930
L5.4740 5.0440
" />
<path d="M5.4740 5.2930
L5.6420 5.2930
" />
<path d="M5.4740 5.6790
L5.6420 5.6790
" />
<path d="M5.4740 5.9280
L5.4740 5.6790
" />
<path d="M5.4740 5.9280
L5.6420 5.9280
" />
<path d="M5.4740 6.3130
L5.6420 6.3130
" />
<path d="M5.4740 6.5630
L5.4740 6.3130
" />
<path d="M5.4740 6.5630
L5.6420 6.5630
" />
<path d="M5.4740 6.9480
L5.6420 6.9480
" />
<path d="M5.4740 7.1980
L5.4740 6.9480
" />
<path d="M5.4740 7.1980
L5.6420 7.1980
" />
<path d="M5.4740 7.5840
L5.6420 7.5840
" />
<path d="M5.4740 7.8340
L5.4740 7.5840
" />
<path d="M5.4740 7.8340
L5.6420 7.8340
" />
<path d="M5.4740 8.9750
L5.4740 0.7270
" />
<path d="M5.4740 8.9780
L5.4740 8.9750
" />
<path d="M5.4740 8.9880
L5.4740 8.9780
" />
<path d="M5.4740 8.9970
L5.4740 8.9880
" />
<path d="M5.6420 1.8680
L5.9470 1.8680
" />
<path d="M5.6420 2.5040
L5.9470 2.5040
" />
<path d="M5.6420 3.1380
L5.9470 3.1380
" />
<path d="M5.6420 3.7730
L5.9470 3.7730
" />
<path d="M5.6420 4.4090
L5.9470 4.4090
" />
<path d="M5.6420 5.0440
L5.9470 5.0440
" />
<path d="M5.6420 5.6790
L5.9470 5.6790
" />
<path d="M5.6420 6.3130
L5.9470 6.3130
" />
<path d="M5.6420 6.9480
L5.9470 6.9480
" />
<path d="M5.6420 7.5840
L5.9470 7.5840
" />
<path d="M5.9470 2.1180
L5.6420 2.1180
" />
<path d="M5.9470 2.1180
L6.0600 2.1180
" />
<path d="M5.9470 2.7540
L5.6420 2.7540
" />
<path d="M5.9470 2.7540
L6.0600 2.7540
" />
<path d="M5.9470 3.3880
L5.6420 3.3880
" />
<path d="M5.9470 3.3880
L6.0600 3.3880
" />
<path d="M5.9470 4.0230
L5.6420 4.0230
" />
<path d="M5.9470 4.0230
L6.0600 4.0230
" />
<path d="M5.9470 4.6580
L5.6420 4.6580
" />
<path d="M5.9470 4.6580
L6.0600 4.6580
" />
<path d="M5.9470 5.2930
L5.6420 5.2930
" />
<path d="M5.9470 5.2930
L6.0600 5.2930
" />
<path d="M5.9470 5.9280
L5.6420 5.9280
" />
<path d="M5.9470 5.9280
L6.0600 5.9280
" />
<path d="M5.9470 6.5630
L5.6420 6.5630
" />
<path d="M5.9470 6.5630
L6.0600 6.5630
" />
<path d="M5.9470 7.1980
L5.6420 7.1980
" />
<path d="M5.9470 7.1980
L6.0600 7.1980
" />
<path d="M5.9470 7.8340
L5.6420 7.8340
" />
<path d="M5.9470 7.8340
L6.0600 7.8340
" />
<path d="M6.0600 1.8680
L5.9470 1.8680
" />
<path d="M6.0600 1.8680
L6.2820 1.8680
" />
<path d="M6.0600 2.5040
L5.9470 2.5040
" />
<path d="M6.0600 2.5040
L6.2820 2.5040
" />
<path d="M6.0600 3.1380
L5.9470 3.1380
" />
<path d="M6.0600 3.1380
L6.2820 3.1380
" />
<path d="M6.0600 3.7730
L5.9470 3.7730
" />
<path d="M6.0600 3.7730
L6.2820 3.7730
" />
<path d="M6.0600 4.4090
L5.9470 4.4090
" />
<path d="M6.0600 4.4090
L6.2820 4.4090
" />
<path d="M6.0600 5.0440
L5.9470 5.0440
" />
<path d="M6.0600 5.0440
L6.2820 5.0440
" />
<path d="M6.0600 5.6790
L5.9470 5.6790
" />
<path d="M6.0600 5.6790
L6.2820 5.6790
" />
<path d="M6.0600 6.3130
L5.9470 6.3130
" />
<path d="M6.0600 6.3130
L6.2820 6.3130
" />
<path d="M6.0600 6.9480
L5.9470 6.9480
" />
<path d="M6.0600 6.9480
L6.2820 6.9480
" />
<path d="M6.0600 7.5840
L5.9470 7.5840
" />
<path d="M6.0600 7.5840
L6.2820 7.5840
" />
<path d="M6.2820 1.8680
L6.5240 1.8680
" />
<path d="M6.2820 2.1180
L6.0600 2.1180
" />
<path d="M6.2820 2.1180
L6.5240 2.1180
" />
<path d="M6.2820 2.5040
L6.5240 2.5040
" />
<path d="M6.2820 2.7540
L6.0600 2.7540
" />
<path d="M6.2820 2.7540
L6.5240 2.7540
" />
<path d="M6.2820 3.1380
L6.5240 3.1380
" />
<path d="M6.2820 3.3880
L6.0600 3.3880
" />
<path d="M6.2820 3.3880
L6.5240 3.3880
" />
<path d="M6.2820 3.7730
L6.5240 3.7730
" />
<path d="M6.2820 4.0230
L6.0600 4.0230
" />
<path d="M6.2820 4.0230
L6.5240 4.0230
" />
<path d="M6.2820 4.4090
L6.5240 4.4090
" />
<path d="M6.2820 4.6580
L6.0600 4.6580
" />
<path d="M6.2820 4.6580
L6.5240 4.6580
" />
<path d="M6.2820 5.0440
L6.5240 5.0440
" />
<path d="M6.2820 5.2930
L6.0600 5.2930
" />
<path d="M6.2820 5.2930
L6.5240 5.2930
" />
<path d="M6.2820 5.6790
L6.5240 5.6790
" />
<path d="M6.2820 5.9280
L6.0600 5.9280
" />
<path d="M6.2820 5.9280
L6.5240 5.9280
" />
<path d="M6.2820 6.3130
L6.5240 6.3130
" />
<path d="M6.2820 6.5630
L6.0600 6.5630
" />
<path d="M6.2820 6.5630
L6.5240 6.5630
" />
<path d="M6.2820 6.9480
L6.5240 6.9480
" />
<path d="M6.2820 7.1980
L6.0600 7.1980
" />
<path d="M6.2820 7.1980
L6.5240 7.1980
" />
<path d="M6.2820 7.5840
L6.5240 7.5840
" />
<path d="M6.2820 7.8340
L6.0600 7.8340
" />
<path d="M6.2820 7.8340
L6.5240 7.8340
" />
<path d="M6.5240 2.1180
L6.5240 1.8680
" />
<path d="M6.5240 2.7540
L6.5240 2.5040
" />
<path d="M6.5240 3.3880
L6.5240 3.1380
" />
<path d="M6.5240 4.0230
L6.5240 3.7730
" />
<path d="M6.5240 4.6580
L6.5240 4.4090
" />
<path d="M6.5240 5.2930
L6.5240 5.0440
" />
<path d="M6.5240 5.9280
L6.5240 5.6790
" />
<path d="M6.5240 6.5630
L6.5240 6.3130
" />
<path d="M6.5240 7.1980
L6.5240 6.9480
" />
<path d="M6.5240 7.8340
L6.5240 7.5840
" />
</g> 
</svg>
