<?xml version="1.0" standalone="no"?>
 <!DOCTYPE svg PUBLIC "-//W3C//DTD SVG 1.1//EN" 
 "http://www.w3.org/Graphics/SVG/1.1/DTD/svg11.dtd"> 
<svg
  xmlns:svg="http://www.w3.org/2000/svg"
  xmlns="http://www.w3.org/2000/svg"
  xmlns:xlink="http://www.w3.org/1999/xlink"
  version="1.1"
  width="16.8402mm" height="16.8402mm" viewBox="0.0000 0.0000 16.8402 16.8402">
<title>SVG Image created as outline.svg date 2025/06/16 09:17:52 </title>
  <desc>Image generated by PCBNEW </desc>
<g style="fill:#000000; fill-opacity:1.0000;stroke:#000000; stroke-opacity:1.0000;
stroke-linecap:round; stroke-linejoin:round;"
 transform="translate(0 0) scale(1 1)">
</g>
<g style="fill:none; 
stroke:#000000; stroke-width:0.0200; stroke-opacity:1; 
stroke-linecap:round; stroke-linejoin:round;">
<path d="M0.4280 2.2730
L0.4900 2.2730
" />
<path d="M0.4280 2.5770
L0.4280 2.2730
" />
<path d="M0.4280 2.7730
L0.4900 2.7730
" />
<path d="M0.4280 3.0770
L0.4280 2.7730
" />
<path d="M0.4280 3.2730
L0.4900 3.2730
" />
<path d="M0.4280 3.5770
L0.4280 3.2730
" />
<path d="M0.4280 3.7730
L0.4900 3.7730
" />
<path d="M0.4280 4.0770
L0.4280 3.7730
" />
<path d="M0.4280 4.2730
L0.4900 4.2730
" />
<path d="M0.4280 4.5770
L0.4280 4.2730
" />
<path d="M0.4280 4.7730
L0.4900 4.7730
" />
<path d="M0.4280 5.0770
L0.4280 4.7730
" />
<path d="M0.4280 5.2730
L0.4900 5.2730
" />
<path d="M0.4280 5.5770
L0.4280 5.2730
" />
<path d="M0.4280 5.7730
L0.4900 5.7730
" />
<path d="M0.4280 6.0770
L0.4280 5.7730
" />
<path d="M0.4280 6.2730
L0.4900 6.2730
" />
<path d="M0.4280 6.5770
L0.4280 6.2730
" />
<path d="M0.4280 6.7730
L0.4900 6.7730
" />
<path d="M0.4280 7.0770
L0.4280 6.7730
" />
<path d="M0.4280 7.2730
L0.4900 7.2730
" />
<path d="M0.4280 7.5770
L0.4280 7.2730
" />
<path d="M0.4280 7.7730
L0.4900 7.7730
" />
<path d="M0.4280 8.0770
L0.4280 7.7730
" />
<path d="M0.4280 8.2730
L0.4900 8.2730
" />
<path d="M0.4280 8.5770
L0.4280 8.2730
" />
<path d="M0.4280 8.7730
L0.4900 8.7730
" />
<path d="M0.4280 9.0770
L0.4280 8.7730
" />
<path d="M0.4280 9.2730
L0.4900 9.2730
" />
<path d="M0.4280 9.5770
L0.4280 9.2730
" />
<path d="M0.4280 9.7730
L0.4900 9.7730
" />
<path d="M0.4280 10.0770
L0.4280 9.7730
" />
<path d="M0.4280 10.2730
L0.4900 10.2730
" />
<path d="M0.4280 10.5770
L0.4280 10.2730
" />
<path d="M0.4280 10.7730
L0.4900 10.7730
" />
<path d="M0.4280 11.0770
L0.4280 10.7730
" />
<path d="M0.4280 11.2730
L0.4900 11.2730
" />
<path d="M0.4280 11.5770
L0.4280 11.2730
" />
<path d="M0.4280 11.7730
L0.4900 11.7730
" />
<path d="M0.4280 12.0770
L0.4280 11.7730
" />
<path d="M0.4280 12.2730
L0.4900 12.2730
" />
<path d="M0.4280 12.5770
L0.4280 12.2730
" />
<path d="M0.4280 12.7730
L0.4900 12.7730
" />
<path d="M0.4280 13.0770
L0.4280 12.7730
" />
<path d="M0.4280 13.2730
L0.4900 13.2730
" />
<path d="M0.4280 13.5770
L0.4280 13.2730
" />
<path d="M0.4280 13.7730
L0.4900 13.7730
" />
<path d="M0.4280 14.0770
L0.4280 13.7730
" />
<path d="M0.4280 14.2730
L0.4900 14.2730
" />
<path d="M0.4280 14.5770
L0.4280 14.2730
" />
<path d="M0.4900 2.2730
L0.7070 2.2730
" />
<path d="M0.4900 2.5770
L0.4280 2.5770
" />
<path d="M0.4900 2.7730
L0.7070 2.7730
" />
<path d="M0.4900 3.0770
L0.4280 3.0770
" />
<path d="M0.4900 3.2730
L0.7070 3.2730
" />
<path d="M0.4900 3.5770
L0.4280 3.5770
" />
<path d="M0.4900 3.7730
L0.7070 3.7730
" />
<path d="M0.4900 4.0770
L0.4280 4.0770
" />
<path d="M0.4900 4.2730
L0.7070 4.2730
" />
<path d="M0.4900 4.5770
L0.4280 4.5770
" />
<path d="M0.4900 4.7730
L0.7070 4.7730
" />
<path d="M0.4900 5.0770
L0.4280 5.0770
" />
<path d="M0.4900 5.2730
L0.7070 5.2730
" />
<path d="M0.4900 5.5770
L0.4280 5.5770
" />
<path d="M0.4900 5.7730
L0.7070 5.7730
" />
<path d="M0.4900 6.0770
L0.4280 6.0770
" />
<path d="M0.4900 6.2730
L0.7070 6.2730
" />
<path d="M0.4900 6.5770
L0.4280 6.5770
" />
<path d="M0.4900 6.7730
L0.7070 6.7730
" />
<path d="M0.4900 7.0770
L0.4280 7.0770
" />
<path d="M0.4900 7.2730
L0.7070 7.2730
" />
<path d="M0.4900 7.5770
L0.4280 7.5770
" />
<path d="M0.4900 7.7730
L0.7070 7.7730
" />
<path d="M0.4900 8.0770
L0.4280 8.0770
" />
<path d="M0.4900 8.2730
L0.7070 8.2730
" />
<path d="M0.4900 8.5770
L0.4280 8.5770
" />
<path d="M0.4900 8.7730
L0.7070 8.7730
" />
<path d="M0.4900 9.0770
L0.4280 9.0770
" />
<path d="M0.4900 9.2730
L0.7070 9.2730
" />
<path d="M0.4900 9.5770
L0.4280 9.5770
" />
<path d="M0.4900 9.7730
L0.7070 9.7730
" />
<path d="M0.4900 10.0770
L0.4280 10.0770
" />
<path d="M0.4900 10.2730
L0.7070 10.2730
" />
<path d="M0.4900 10.5770
L0.4280 10.5770
" />
<path d="M0.4900 10.7730
L0.7070 10.7730
" />
<path d="M0.4900 11.0770
L0.4280 11.0770
" />
<path d="M0.4900 11.2730
L0.7070 11.2730
" />
<path d="M0.4900 11.5770
L0.4280 11.5770
" />
<path d="M0.4900 11.7730
L0.7070 11.7730
" />
<path d="M0.4900 12.0770
L0.4280 12.0770
" />
<path d="M0.4900 12.2730
L0.7070 12.2730
" />
<path d="M0.4900 12.5770
L0.4280 12.5770
" />
<path d="M0.4900 12.7730
L0.7070 12.7730
" />
<path d="M0.4900 13.0770
L0.4280 13.0770
" />
<path d="M0.4900 13.2730
L0.7070 13.2730
" />
<path d="M0.4900 13.5770
L0.4280 13.5770
" />
<path d="M0.4900 13.7730
L0.7070 13.7730
" />
<path d="M0.4900 14.0770
L0.4280 14.0770
" />
<path d="M0.4900 14.2730
L0.7070 14.2730
" />
<path d="M0.4900 14.5770
L0.4280 14.5770
" />
<path d="M0.7070 2.2730
L0.8300 2.2730
" />
<path d="M0.7070 2.5770
L0.4900 2.5770
" />
<path d="M0.7070 2.7730
L0.8300 2.7730
" />
<path d="M0.7070 3.0770
L0.4900 3.0770
" />
<path d="M0.7070 3.2730
L0.8300 3.2730
" />
<path d="M0.7070 3.5770
L0.4900 3.5770
" />
<path d="M0.7070 3.7730
L0.8300 3.7730
" />
<path d="M0.7070 4.0770
L0.4900 4.0770
" />
<path d="M0.7070 4.2730
L0.8300 4.2730
" />
<path d="M0.7070 4.5770
L0.4900 4.5770
" />
<path d="M0.7070 4.7730
L0.8300 4.7730
" />
<path d="M0.7070 5.0770
L0.4900 5.0770
" />
<path d="M0.7070 5.2730
L0.8300 5.2730
" />
<path d="M0.7070 5.5770
L0.4900 5.5770
" />
<path d="M0.7070 5.7730
L0.8300 5.7730
" />
<path d="M0.7070 6.0770
L0.4900 6.0770
" />
<path d="M0.7070 6.2730
L0.8300 6.2730
" />
<path d="M0.7070 6.5770
L0.4900 6.5770
" />
<path d="M0.7070 6.7730
L0.8300 6.7730
" />
<path d="M0.7070 7.0770
L0.4900 7.0770
" />
<path d="M0.7070 7.2730
L0.8300 7.2730
" />
<path d="M0.7070 7.5770
L0.4900 7.5770
" />
<path d="M0.7070 7.7730
L0.8300 7.7730
" />
<path d="M0.7070 8.0770
L0.4900 8.0770
" />
<path d="M0.7070 8.2730
L0.8300 8.2730
" />
<path d="M0.7070 8.5770
L0.4900 8.5770
" />
<path d="M0.7070 8.7730
L0.8300 8.7730
" />
<path d="M0.7070 9.0770
L0.4900 9.0770
" />
<path d="M0.7070 9.2730
L0.8300 9.2730
" />
<path d="M0.7070 9.5770
L0.4900 9.5770
" />
<path d="M0.7070 9.7730
L0.8300 9.7730
" />
<path d="M0.7070 10.0770
L0.4900 10.0770
" />
<path d="M0.7070 10.2730
L0.8300 10.2730
" />
<path d="M0.7070 10.5770
L0.4900 10.5770
" />
<path d="M0.7070 10.7730
L0.8300 10.7730
" />
<path d="M0.7070 11.0770
L0.4900 11.0770
" />
<path d="M0.7070 11.2730
L0.8300 11.2730
" />
<path d="M0.7070 11.5770
L0.4900 11.5770
" />
<path d="M0.7070 11.7730
L0.8300 11.7730
" />
<path d="M0.7070 12.0770
L0.4900 12.0770
" />
<path d="M0.7070 12.2730
L0.8300 12.2730
" />
<path d="M0.7070 12.5770
L0.4900 12.5770
" />
<path d="M0.7070 12.7730
L0.8300 12.7730
" />
<path d="M0.7070 13.0770
L0.4900 13.0770
" />
<path d="M0.7070 13.2730
L0.8300 13.2730
" />
<path d="M0.7070 13.5770
L0.4900 13.5770
" />
<path d="M0.7070 13.7730
L0.8300 13.7730
" />
<path d="M0.7070 14.0770
L0.4900 14.0770
" />
<path d="M0.7070 14.2730
L0.8300 14.2730
" />
<path d="M0.7070 14.5770
L0.4900 14.5770
" />
<path d="M0.8290 2.2730
L1.2630 2.2730
" />
<path d="M0.8290 2.7730
L1.2630 2.7730
" />
<path d="M0.8290 3.2730
L1.2630 3.2730
" />
<path d="M0.8290 3.7730
L1.2630 3.7730
" />
<path d="M0.8290 4.2730
L1.2630 4.2730
" />
<path d="M0.8290 4.7730
L1.2630 4.7730
" />
<path d="M0.8290 5.2730
L1.2630 5.2730
" />
<path d="M0.8290 5.7730
L1.2630 5.7730
" />
<path d="M0.8290 6.2730
L1.2630 6.2730
" />
<path d="M0.8290 6.7730
L1.2630 6.7730
" />
<path d="M0.8290 7.2730
L1.2630 7.2730
" />
<path d="M0.8290 7.7730
L1.2630 7.7730
" />
<path d="M0.8290 8.2730
L1.2630 8.2730
" />
<path d="M0.8290 8.7730
L1.2630 8.7730
" />
<path d="M0.8290 9.2730
L1.2630 9.2730
" />
<path d="M0.8290 9.7730
L1.2630 9.7730
" />
<path d="M0.8290 10.2730
L1.2630 10.2730
" />
<path d="M0.8290 10.7730
L1.2630 10.7730
" />
<path d="M0.8290 11.2730
L1.2630 11.2730
" />
<path d="M0.8290 11.7730
L1.2630 11.7730
" />
<path d="M0.8290 12.2730
L1.2630 12.2730
" />
<path d="M0.8290 12.7730
L1.2630 12.7730
" />
<path d="M0.8290 13.2730
L1.2630 13.2730
" />
<path d="M0.8290 13.7730
L1.2630 13.7730
" />
<path d="M0.8290 14.2730
L1.2630 14.2730
" />
<path d="M0.8300 2.5770
L0.7070 2.5770
" />
<path d="M0.8300 3.0770
L0.7070 3.0770
" />
<path d="M0.8300 3.5770
L0.7070 3.5770
" />
<path d="M0.8300 4.0770
L0.7070 4.0770
" />
<path d="M0.8300 4.5770
L0.7070 4.5770
" />
<path d="M0.8300 5.0770
L0.7070 5.0770
" />
<path d="M0.8300 5.5770
L0.7070 5.5770
" />
<path d="M0.8300 6.0770
L0.7070 6.0770
" />
<path d="M0.8300 6.5770
L0.7070 6.5770
" />
<path d="M0.8300 7.0770
L0.7070 7.0770
" />
<path d="M0.8300 7.5770
L0.7070 7.5770
" />
<path d="M0.8300 8.0770
L0.7070 8.0770
" />
<path d="M0.8300 8.5770
L0.7070 8.5770
" />
<path d="M0.8300 9.0770
L0.7070 9.0770
" />
<path d="M0.8300 9.5770
L0.7070 9.5770
" />
<path d="M0.8300 10.0770
L0.7070 10.0770
" />
<path d="M0.8300 10.5770
L0.7070 10.5770
" />
<path d="M0.8300 11.0770
L0.7070 11.0770
" />
<path d="M0.8300 11.5770
L0.7070 11.5770
" />
<path d="M0.8300 12.0770
L0.7070 12.0770
" />
<path d="M0.8300 12.5770
L0.7070 12.5770
" />
<path d="M0.8300 13.0770
L0.7070 13.0770
" />
<path d="M0.8300 13.5770
L0.7070 13.5770
" />
<path d="M0.8300 14.0770
L0.7070 14.0770
" />
<path d="M0.8300 14.5770
L0.7070 14.5770
" />
<path d="M1.2630 2.2730
L1.3260 2.2730
" />
<path d="M1.2630 2.5770
L0.8290 2.5770
" />
<path d="M1.2630 2.7730
L1.3260 2.7730
" />
<path d="M1.2630 3.0770
L0.8290 3.0770
" />
<path d="M1.2630 3.2730
L1.3260 3.2730
" />
<path d="M1.2630 3.5770
L0.8290 3.5770
" />
<path d="M1.2630 3.7730
L1.3260 3.7730
" />
<path d="M1.2630 4.0770
L0.8290 4.0770
" />
<path d="M1.2630 4.2730
L1.3260 4.2730
" />
<path d="M1.2630 4.5770
L0.8290 4.5770
" />
<path d="M1.2630 4.7730
L1.3260 4.7730
" />
<path d="M1.2630 5.0770
L0.8290 5.0770
" />
<path d="M1.2630 5.2730
L1.3260 5.2730
" />
<path d="M1.2630 5.5770
L0.8290 5.5770
" />
<path d="M1.2630 5.7730
L1.3260 5.7730
" />
<path d="M1.2630 6.0770
L0.8290 6.0770
" />
<path d="M1.2630 6.2730
L1.3260 6.2730
" />
<path d="M1.2630 6.5770
L0.8290 6.5770
" />
<path d="M1.2630 6.7730
L1.3260 6.7730
" />
<path d="M1.2630 7.0770
L0.8290 7.0770
" />
<path d="M1.2630 7.2730
L1.3260 7.2730
" />
<path d="M1.2630 7.5770
L0.8290 7.5770
" />
<path d="M1.2630 7.7730
L1.3260 7.7730
" />
<path d="M1.2630 8.0770
L0.8290 8.0770
" />
<path d="M1.2630 8.2730
L1.3260 8.2730
" />
<path d="M1.2630 8.5770
L0.8290 8.5770
" />
<path d="M1.2630 8.7730
L1.3260 8.7730
" />
<path d="M1.2630 9.0770
L0.8290 9.0770
" />
<path d="M1.2630 9.2730
L1.3260 9.2730
" />
<path d="M1.2630 9.5770
L0.8290 9.5770
" />
<path d="M1.2630 9.7730
L1.3260 9.7730
" />
<path d="M1.2630 10.0770
L0.8290 10.0770
" />
<path d="M1.2630 10.2730
L1.3260 10.2730
" />
<path d="M1.2630 10.5770
L0.8290 10.5770
" />
<path d="M1.2630 10.7730
L1.3260 10.7730
" />
<path d="M1.2630 11.0770
L0.8290 11.0770
" />
<path d="M1.2630 11.2730
L1.3260 11.2730
" />
<path d="M1.2630 11.5770
L0.8290 11.5770
" />
<path d="M1.2630 11.7730
L1.3260 11.7730
" />
<path d="M1.2630 12.0770
L0.8290 12.0770
" />
<path d="M1.2630 12.2730
L1.3260 12.2730
" />
<path d="M1.2630 12.5770
L0.8290 12.5770
" />
<path d="M1.2630 12.7730
L1.3260 12.7730
" />
<path d="M1.2630 13.0770
L0.8290 13.0770
" />
<path d="M1.2630 13.2730
L1.3260 13.2730
" />
<path d="M1.2630 13.5770
L0.8290 13.5770
" />
<path d="M1.2630 13.7730
L1.3260 13.7730
" />
<path d="M1.2630 14.0770
L0.8290 14.0770
" />
<path d="M1.2630 14.2730
L1.3260 14.2730
" />
<path d="M1.2630 14.5770
L0.8290 14.5770
" />
<path d="M1.3260 1.3260
L15.5240 1.3260
" />
<path d="M1.3260 2.5770
L1.2630 2.5770
" />
<path d="M1.3260 3.0770
L1.2630 3.0770
" />
<path d="M1.3260 3.5770
L1.2630 3.5770
" />
<path d="M1.3260 4.0770
L1.2630 4.0770
" />
<path d="M1.3260 4.5770
L1.2630 4.5770
" />
<path d="M1.3260 5.0770
L1.2630 5.0770
" />
<path d="M1.3260 5.5770
L1.2630 5.5770
" />
<path d="M1.3260 6.0770
L1.2630 6.0770
" />
<path d="M1.3260 6.5770
L1.2630 6.5770
" />
<path d="M1.3260 7.0770
L1.2630 7.0770
" />
<path d="M1.3260 7.5770
L1.2630 7.5770
" />
<path d="M1.3260 8.0770
L1.2630 8.0770
" />
<path d="M1.3260 8.5770
L1.2630 8.5770
" />
<path d="M1.3260 9.0770
L1.2630 9.0770
" />
<path d="M1.3260 9.5770
L1.2630 9.5770
" />
<path d="M1.3260 10.0770
L1.2630 10.0770
" />
<path d="M1.3260 10.5770
L1.2630 10.5770
" />
<path d="M1.3260 11.0770
L1.2630 11.0770
" />
<path d="M1.3260 11.5770
L1.2630 11.5770
" />
<path d="M1.3260 12.0770
L1.2630 12.0770
" />
<path d="M1.3260 12.5770
L1.2630 12.5770
" />
<path d="M1.3260 13.0770
L1.2630 13.0770
" />
<path d="M1.3260 13.5770
L1.2630 13.5770
" />
<path d="M1.3260 14.0770
L1.2630 14.0770
" />
<path d="M1.3260 14.5770
L1.2630 14.5770
" />
<path d="M1.3260 15.5240
L1.3260 1.3260
" />
<path d="M1.3260 15.5240
L1.4780 15.3720
" />
<path d="M1.4780 1.4780
L1.3260 1.3260
" />
<path d="M1.4780 1.4780
L15.3720 1.4780
" />
<path d="M1.4780 15.3720
L1.4780 1.4780
" />
<path d="M2.2730 0.4280
L2.5770 0.4280
" />
<path d="M2.2730 0.4900
L2.2730 0.4280
" />
<path d="M2.2730 0.7070
L2.2730 0.4900
" />
<path d="M2.2730 0.8300
L2.2730 0.7070
" />
<path d="M2.2730 1.2630
L2.2730 0.8290
" />
<path d="M2.2730 1.3260
L2.2730 1.2630
" />
<path d="M2.2730 15.5870
L2.2730 15.5240
" />
<path d="M2.2730 16.0210
L2.2730 15.5870
" />
<path d="M2.2730 16.1430
L2.2730 16.0200
" />
<path d="M2.2730 16.3600
L2.2730 16.1430
" />
<path d="M2.2730 16.4220
L2.2730 16.3600
" />
<path d="M2.5770 0.4280
L2.5770 0.4900
" />
<path d="M2.5770 0.4900
L2.5770 0.7070
" />
<path d="M2.5770 0.7070
L2.5770 0.8300
" />
<path d="M2.5770 0.8290
L2.5770 1.2630
" />
<path d="M2.5770 1.2630
L2.5770 1.3260
" />
<path d="M2.5770 15.5240
L2.5770 15.5870
" />
<path d="M2.5770 15.5870
L2.5770 16.0210
" />
<path d="M2.5770 16.0200
L2.5770 16.1430
" />
<path d="M2.5770 16.1430
L2.5770 16.3600
" />
<path d="M2.5770 16.3600
L2.5770 16.4220
" />
<path d="M2.5770 16.4220
L2.2730 16.4220
" />
<path d="M2.7730 0.4280
L3.0770 0.4280
" />
<path d="M2.7730 0.4900
L2.7730 0.4280
" />
<path d="M2.7730 0.7070
L2.7730 0.4900
" />
<path d="M2.7730 0.8300
L2.7730 0.7070
" />
<path d="M2.7730 1.2630
L2.7730 0.8290
" />
<path d="M2.7730 1.3260
L2.7730 1.2630
" />
<path d="M2.7730 15.5870
L2.7730 15.5240
" />
<path d="M2.7730 16.0210
L2.7730 15.5870
" />
<path d="M2.7730 16.1430
L2.7730 16.0200
" />
<path d="M2.7730 16.3600
L2.7730 16.1430
" />
<path d="M2.7730 16.4220
L2.7730 16.3600
" />
<path d="M3.0770 0.4280
L3.0770 0.4900
" />
<path d="M3.0770 0.4900
L3.0770 0.7070
" />
<path d="M3.0770 0.7070
L3.0770 0.8300
" />
<path d="M3.0770 0.8290
L3.0770 1.2630
" />
<path d="M3.0770 1.2630
L3.0770 1.3260
" />
<path d="M3.0770 15.5240
L3.0770 15.5870
" />
<path d="M3.0770 15.5870
L3.0770 16.0210
" />
<path d="M3.0770 16.0200
L3.0770 16.1430
" />
<path d="M3.0770 16.1430
L3.0770 16.3600
" />
<path d="M3.0770 16.3600
L3.0770 16.4220
" />
<path d="M3.0770 16.4220
L2.7730 16.4220
" />
<path d="M3.2730 0.4280
L3.5770 0.4280
" />
<path d="M3.2730 0.4900
L3.2730 0.4280
" />
<path d="M3.2730 0.7070
L3.2730 0.4900
" />
<path d="M3.2730 0.8300
L3.2730 0.7070
" />
<path d="M3.2730 1.2630
L3.2730 0.8290
" />
<path d="M3.2730 1.3260
L3.2730 1.2630
" />
<path d="M3.2730 15.5870
L3.2730 15.5240
" />
<path d="M3.2730 16.0210
L3.2730 15.5870
" />
<path d="M3.2730 16.1430
L3.2730 16.0200
" />
<path d="M3.2730 16.3600
L3.2730 16.1430
" />
<path d="M3.2730 16.4220
L3.2730 16.3600
" />
<path d="M3.5770 0.4280
L3.5770 0.4900
" />
<path d="M3.5770 0.4900
L3.5770 0.7070
" />
<path d="M3.5770 0.7070
L3.5770 0.8300
" />
<path d="M3.5770 0.8290
L3.5770 1.2630
" />
<path d="M3.5770 1.2630
L3.5770 1.3260
" />
<path d="M3.5770 15.5240
L3.5770 15.5870
" />
<path d="M3.5770 15.5870
L3.5770 16.0210
" />
<path d="M3.5770 16.0200
L3.5770 16.1430
" />
<path d="M3.5770 16.1430
L3.5770 16.3600
" />
<path d="M3.5770 16.3600
L3.5770 16.4220
" />
<path d="M3.5770 16.4220
L3.2730 16.4220
" />
<path d="M3.7730 0.4280
L4.0770 0.4280
" />
<path d="M3.7730 0.4900
L3.7730 0.4280
" />
<path d="M3.7730 0.7070
L3.7730 0.4900
" />
<path d="M3.7730 0.8300
L3.7730 0.7070
" />
<path d="M3.7730 1.2630
L3.7730 0.8290
" />
<path d="M3.7730 1.3260
L3.7730 1.2630
" />
<path d="M3.7730 15.5870
L3.7730 15.5240
" />
<path d="M3.7730 16.0210
L3.7730 15.5870
" />
<path d="M3.7730 16.1430
L3.7730 16.0200
" />
<path d="M3.7730 16.3600
L3.7730 16.1430
" />
<path d="M3.7730 16.4220
L3.7730 16.3600
" />
<path d="M4.0770 0.4280
L4.0770 0.4900
" />
<path d="M4.0770 0.4900
L4.0770 0.7070
" />
<path d="M4.0770 0.7070
L4.0770 0.8300
" />
<path d="M4.0770 0.8290
L4.0770 1.2630
" />
<path d="M4.0770 1.2630
L4.0770 1.3260
" />
<path d="M4.0770 15.5240
L4.0770 15.5870
" />
<path d="M4.0770 15.5870
L4.0770 16.0210
" />
<path d="M4.0770 16.0200
L4.0770 16.1430
" />
<path d="M4.0770 16.1430
L4.0770 16.3600
" />
<path d="M4.0770 16.3600
L4.0770 16.4220
" />
<path d="M4.0770 16.4220
L3.7730 16.4220
" />
<path d="M4.2730 0.4280
L4.5770 0.4280
" />
<path d="M4.2730 0.4900
L4.2730 0.4280
" />
<path d="M4.2730 0.7070
L4.2730 0.4900
" />
<path d="M4.2730 0.8300
L4.2730 0.7070
" />
<path d="M4.2730 1.2630
L4.2730 0.8290
" />
<path d="M4.2730 1.3260
L4.2730 1.2630
" />
<path d="M4.2730 15.5870
L4.2730 15.5240
" />
<path d="M4.2730 16.0210
L4.2730 15.5870
" />
<path d="M4.2730 16.1430
L4.2730 16.0200
" />
<path d="M4.2730 16.3600
L4.2730 16.1430
" />
<path d="M4.2730 16.4220
L4.2730 16.3600
" />
<path d="M4.5770 0.4280
L4.5770 0.4900
" />
<path d="M4.5770 0.4900
L4.5770 0.7070
" />
<path d="M4.5770 0.7070
L4.5770 0.8300
" />
<path d="M4.5770 0.8290
L4.5770 1.2630
" />
<path d="M4.5770 1.2630
L4.5770 1.3260
" />
<path d="M4.5770 15.5240
L4.5770 15.5870
" />
<path d="M4.5770 15.5870
L4.5770 16.0210
" />
<path d="M4.5770 16.0200
L4.5770 16.1430
" />
<path d="M4.5770 16.1430
L4.5770 16.3600
" />
<path d="M4.5770 16.3600
L4.5770 16.4220
" />
<path d="M4.5770 16.4220
L4.2730 16.4220
" />
<path d="M4.7730 0.4280
L5.0770 0.4280
" />
<path d="M4.7730 0.4900
L4.7730 0.4280
" />
<path d="M4.7730 0.7070
L4.7730 0.4900
" />
<path d="M4.7730 0.8300
L4.7730 0.7070
" />
<path d="M4.7730 1.2630
L4.7730 0.8290
" />
<path d="M4.7730 1.3260
L4.7730 1.2630
" />
<path d="M4.7730 15.5870
L4.7730 15.5240
" />
<path d="M4.7730 16.0210
L4.7730 15.5870
" />
<path d="M4.7730 16.1430
L4.7730 16.0200
" />
<path d="M4.7730 16.3600
L4.7730 16.1430
" />
<path d="M4.7730 16.4220
L4.7730 16.3600
" />
<path d="M5.0770 0.4280
L5.0770 0.4900
" />
<path d="M5.0770 0.4900
L5.0770 0.7070
" />
<path d="M5.0770 0.7070
L5.0770 0.8300
" />
<path d="M5.0770 0.8290
L5.0770 1.2630
" />
<path d="M5.0770 1.2630
L5.0770 1.3260
" />
<path d="M5.0770 15.5240
L5.0770 15.5870
" />
<path d="M5.0770 15.5870
L5.0770 16.0210
" />
<path d="M5.0770 16.0200
L5.0770 16.1430
" />
<path d="M5.0770 16.1430
L5.0770 16.3600
" />
<path d="M5.0770 16.3600
L5.0770 16.4220
" />
<path d="M5.0770 16.4220
L4.7730 16.4220
" />
<path d="M5.2730 0.4280
L5.5770 0.4280
" />
<path d="M5.2730 0.4900
L5.2730 0.4280
" />
<path d="M5.2730 0.7070
L5.2730 0.4900
" />
<path d="M5.2730 0.8300
L5.2730 0.7070
" />
<path d="M5.2730 1.2630
L5.2730 0.8290
" />
<path d="M5.2730 1.3260
L5.2730 1.2630
" />
<path d="M5.2730 15.5870
L5.2730 15.5240
" />
<path d="M5.2730 16.0210
L5.2730 15.5870
" />
<path d="M5.2730 16.1430
L5.2730 16.0200
" />
<path d="M5.2730 16.3600
L5.2730 16.1430
" />
<path d="M5.2730 16.4220
L5.2730 16.3600
" />
<path d="M5.5770 0.4280
L5.5770 0.4900
" />
<path d="M5.5770 0.4900
L5.5770 0.7070
" />
<path d="M5.5770 0.7070
L5.5770 0.8300
" />
<path d="M5.5770 0.8290
L5.5770 1.2630
" />
<path d="M5.5770 1.2630
L5.5770 1.3260
" />
<path d="M5.5770 15.5240
L5.5770 15.5870
" />
<path d="M5.5770 15.5870
L5.5770 16.0210
" />
<path d="M5.5770 16.0200
L5.5770 16.1430
" />
<path d="M5.5770 16.1430
L5.5770 16.3600
" />
<path d="M5.5770 16.3600
L5.5770 16.4220
" />
<path d="M5.5770 16.4220
L5.2730 16.4220
" />
<path d="M5.7730 0.4280
L6.0770 0.4280
" />
<path d="M5.7730 0.4900
L5.7730 0.4280
" />
<path d="M5.7730 0.7070
L5.7730 0.4900
" />
<path d="M5.7730 0.8300
L5.7730 0.7070
" />
<path d="M5.7730 1.2630
L5.7730 0.8290
" />
<path d="M5.7730 1.3260
L5.7730 1.2630
" />
<path d="M5.7730 15.5870
L5.7730 15.5240
" />
<path d="M5.7730 16.0210
L5.7730 15.5870
" />
<path d="M5.7730 16.1430
L5.7730 16.0200
" />
<path d="M5.7730 16.3600
L5.7730 16.1430
" />
<path d="M5.7730 16.4220
L5.7730 16.3600
" />
<path d="M6.0770 0.4280
L6.0770 0.4900
" />
<path d="M6.0770 0.4900
L6.0770 0.7070
" />
<path d="M6.0770 0.7070
L6.0770 0.8300
" />
<path d="M6.0770 0.8290
L6.0770 1.2630
" />
<path d="M6.0770 1.2630
L6.0770 1.3260
" />
<path d="M6.0770 15.5240
L6.0770 15.5870
" />
<path d="M6.0770 15.5870
L6.0770 16.0210
" />
<path d="M6.0770 16.0200
L6.0770 16.1430
" />
<path d="M6.0770 16.1430
L6.0770 16.3600
" />
<path d="M6.0770 16.3600
L6.0770 16.4220
" />
<path d="M6.0770 16.4220
L5.7730 16.4220
" />
<path d="M6.2730 0.4280
L6.5770 0.4280
" />
<path d="M6.2730 0.4900
L6.2730 0.4280
" />
<path d="M6.2730 0.7070
L6.2730 0.4900
" />
<path d="M6.2730 0.8300
L6.2730 0.7070
" />
<path d="M6.2730 1.2630
L6.2730 0.8290
" />
<path d="M6.2730 1.3260
L6.2730 1.2630
" />
<path d="M6.2730 15.5870
L6.2730 15.5240
" />
<path d="M6.2730 16.0210
L6.2730 15.5870
" />
<path d="M6.2730 16.1430
L6.2730 16.0200
" />
<path d="M6.2730 16.3600
L6.2730 16.1430
" />
<path d="M6.2730 16.4220
L6.2730 16.3600
" />
<path d="M6.5770 0.4280
L6.5770 0.4900
" />
<path d="M6.5770 0.4900
L6.5770 0.7070
" />
<path d="M6.5770 0.7070
L6.5770 0.8300
" />
<path d="M6.5770 0.8290
L6.5770 1.2630
" />
<path d="M6.5770 1.2630
L6.5770 1.3260
" />
<path d="M6.5770 15.5240
L6.5770 15.5870
" />
<path d="M6.5770 15.5870
L6.5770 16.0210
" />
<path d="M6.5770 16.0200
L6.5770 16.1430
" />
<path d="M6.5770 16.1430
L6.5770 16.3600
" />
<path d="M6.5770 16.3600
L6.5770 16.4220
" />
<path d="M6.5770 16.4220
L6.2730 16.4220
" />
<path d="M6.7730 0.4280
L7.0770 0.4280
" />
<path d="M6.7730 0.4900
L6.7730 0.4280
" />
<path d="M6.7730 0.7070
L6.7730 0.4900
" />
<path d="M6.7730 0.8300
L6.7730 0.7070
" />
<path d="M6.7730 1.2630
L6.7730 0.8290
" />
<path d="M6.7730 1.3260
L6.7730 1.2630
" />
<path d="M6.7730 15.5870
L6.7730 15.5240
" />
<path d="M6.7730 16.0210
L6.7730 15.5870
" />
<path d="M6.7730 16.1430
L6.7730 16.0200
" />
<path d="M6.7730 16.3600
L6.7730 16.1430
" />
<path d="M6.7730 16.4220
L6.7730 16.3600
" />
<path d="M7.0770 0.4280
L7.0770 0.4900
" />
<path d="M7.0770 0.4900
L7.0770 0.7070
" />
<path d="M7.0770 0.7070
L7.0770 0.8300
" />
<path d="M7.0770 0.8290
L7.0770 1.2630
" />
<path d="M7.0770 1.2630
L7.0770 1.3260
" />
<path d="M7.0770 15.5240
L7.0770 15.5870
" />
<path d="M7.0770 15.5870
L7.0770 16.0210
" />
<path d="M7.0770 16.0200
L7.0770 16.1430
" />
<path d="M7.0770 16.1430
L7.0770 16.3600
" />
<path d="M7.0770 16.3600
L7.0770 16.4220
" />
<path d="M7.0770 16.4220
L6.7730 16.4220
" />
<path d="M7.2730 0.4280
L7.5770 0.4280
" />
<path d="M7.2730 0.4900
L7.2730 0.4280
" />
<path d="M7.2730 0.7070
L7.2730 0.4900
" />
<path d="M7.2730 0.8300
L7.2730 0.7070
" />
<path d="M7.2730 1.2630
L7.2730 0.8290
" />
<path d="M7.2730 1.3260
L7.2730 1.2630
" />
<path d="M7.2730 15.5870
L7.2730 15.5240
" />
<path d="M7.2730 16.0210
L7.2730 15.5870
" />
<path d="M7.2730 16.1430
L7.2730 16.0200
" />
<path d="M7.2730 16.3600
L7.2730 16.1430
" />
<path d="M7.2730 16.4220
L7.2730 16.3600
" />
<path d="M7.5770 0.4280
L7.5770 0.4900
" />
<path d="M7.5770 0.4900
L7.5770 0.7070
" />
<path d="M7.5770 0.7070
L7.5770 0.8300
" />
<path d="M7.5770 0.8290
L7.5770 1.2630
" />
<path d="M7.5770 1.2630
L7.5770 1.3260
" />
<path d="M7.5770 15.5240
L7.5770 15.5870
" />
<path d="M7.5770 15.5870
L7.5770 16.0210
" />
<path d="M7.5770 16.0200
L7.5770 16.1430
" />
<path d="M7.5770 16.1430
L7.5770 16.3600
" />
<path d="M7.5770 16.3600
L7.5770 16.4220
" />
<path d="M7.5770 16.4220
L7.2730 16.4220
" />
<path d="M7.7730 0.4280
L8.0770 0.4280
" />
<path d="M7.7730 0.4900
L7.7730 0.4280
" />
<path d="M7.7730 0.7070
L7.7730 0.4900
" />
<path d="M7.7730 0.8300
L7.7730 0.7070
" />
<path d="M7.7730 1.2630
L7.7730 0.8290
" />
<path d="M7.7730 1.3260
L7.7730 1.2630
" />
<path d="M7.7730 15.5870
L7.7730 15.5240
" />
<path d="M7.7730 16.0210
L7.7730 15.5870
" />
<path d="M7.7730 16.1430
L7.7730 16.0200
" />
<path d="M7.7730 16.3600
L7.7730 16.1430
" />
<path d="M7.7730 16.4220
L7.7730 16.3600
" />
<path d="M8.0770 0.4280
L8.0770 0.4900
" />
<path d="M8.0770 0.4900
L8.0770 0.7070
" />
<path d="M8.0770 0.7070
L8.0770 0.8300
" />
<path d="M8.0770 0.8290
L8.0770 1.2630
" />
<path d="M8.0770 1.2630
L8.0770 1.3260
" />
<path d="M8.0770 15.5240
L8.0770 15.5870
" />
<path d="M8.0770 15.5870
L8.0770 16.0210
" />
<path d="M8.0770 16.0200
L8.0770 16.1430
" />
<path d="M8.0770 16.1430
L8.0770 16.3600
" />
<path d="M8.0770 16.3600
L8.0770 16.4220
" />
<path d="M8.0770 16.4220
L7.7730 16.4220
" />
<path d="M8.2730 0.4280
L8.5770 0.4280
" />
<path d="M8.2730 0.4900
L8.2730 0.4280
" />
<path d="M8.2730 0.7070
L8.2730 0.4900
" />
<path d="M8.2730 0.8300
L8.2730 0.7070
" />
<path d="M8.2730 1.2630
L8.2730 0.8290
" />
<path d="M8.2730 1.3260
L8.2730 1.2630
" />
<path d="M8.2730 15.5870
L8.2730 15.5240
" />
<path d="M8.2730 16.0210
L8.2730 15.5870
" />
<path d="M8.2730 16.1430
L8.2730 16.0200
" />
<path d="M8.2730 16.3600
L8.2730 16.1430
" />
<path d="M8.2730 16.4220
L8.2730 16.3600
" />
<path d="M8.5770 0.4280
L8.5770 0.4900
" />
<path d="M8.5770 0.4900
L8.5770 0.7070
" />
<path d="M8.5770 0.7070
L8.5770 0.8300
" />
<path d="M8.5770 0.8290
L8.5770 1.2630
" />
<path d="M8.5770 1.2630
L8.5770 1.3260
" />
<path d="M8.5770 15.5240
L8.5770 15.5870
" />
<path d="M8.5770 15.5870
L8.5770 16.0210
" />
<path d="M8.5770 16.0200
L8.5770 16.1430
" />
<path d="M8.5770 16.1430
L8.5770 16.3600
" />
<path d="M8.5770 16.3600
L8.5770 16.4220
" />
<path d="M8.5770 16.4220
L8.2730 16.4220
" />
<path d="M8.7730 0.4280
L9.0770 0.4280
" />
<path d="M8.7730 0.4900
L8.7730 0.4280
" />
<path d="M8.7730 0.7070
L8.7730 0.4900
" />
<path d="M8.7730 0.8300
L8.7730 0.7070
" />
<path d="M8.7730 1.2630
L8.7730 0.8290
" />
<path d="M8.7730 1.3260
L8.7730 1.2630
" />
<path d="M8.7730 15.5870
L8.7730 15.5240
" />
<path d="M8.7730 16.0210
L8.7730 15.5870
" />
<path d="M8.7730 16.1430
L8.7730 16.0200
" />
<path d="M8.7730 16.3600
L8.7730 16.1430
" />
<path d="M8.7730 16.4220
L8.7730 16.3600
" />
<path d="M9.0770 0.4280
L9.0770 0.4900
" />
<path d="M9.0770 0.4900
L9.0770 0.7070
" />
<path d="M9.0770 0.7070
L9.0770 0.8300
" />
<path d="M9.0770 0.8290
L9.0770 1.2630
" />
<path d="M9.0770 1.2630
L9.0770 1.3260
" />
<path d="M9.0770 15.5240
L9.0770 15.5870
" />
<path d="M9.0770 15.5870
L9.0770 16.0210
" />
<path d="M9.0770 16.0200
L9.0770 16.1430
" />
<path d="M9.0770 16.1430
L9.0770 16.3600
" />
<path d="M9.0770 16.3600
L9.0770 16.4220
" />
<path d="M9.0770 16.4220
L8.7730 16.4220
" />
<path d="M9.2730 0.4280
L9.5770 0.4280
" />
<path d="M9.2730 0.4900
L9.2730 0.4280
" />
<path d="M9.2730 0.7070
L9.2730 0.4900
" />
<path d="M9.2730 0.8300
L9.2730 0.7070
" />
<path d="M9.2730 1.2630
L9.2730 0.8290
" />
<path d="M9.2730 1.3260
L9.2730 1.2630
" />
<path d="M9.2730 15.5870
L9.2730 15.5240
" />
<path d="M9.2730 16.0210
L9.2730 15.5870
" />
<path d="M9.2730 16.1430
L9.2730 16.0200
" />
<path d="M9.2730 16.3600
L9.2730 16.1430
" />
<path d="M9.2730 16.4220
L9.2730 16.3600
" />
<path d="M9.5770 0.4280
L9.5770 0.4900
" />
<path d="M9.5770 0.4900
L9.5770 0.7070
" />
<path d="M9.5770 0.7070
L9.5770 0.8300
" />
<path d="M9.5770 0.8290
L9.5770 1.2630
" />
<path d="M9.5770 1.2630
L9.5770 1.3260
" />
<path d="M9.5770 15.5240
L9.5770 15.5870
" />
<path d="M9.5770 15.5870
L9.5770 16.0210
" />
<path d="M9.5770 16.0200
L9.5770 16.1430
" />
<path d="M9.5770 16.1430
L9.5770 16.3600
" />
<path d="M9.5770 16.3600
L9.5770 16.4220
" />
<path d="M9.5770 16.4220
L9.2730 16.4220
" />
<path d="M9.7730 0.4280
L10.0770 0.4280
" />
<path d="M9.7730 0.4900
L9.7730 0.4280
" />
<path d="M9.7730 0.7070
L9.7730 0.4900
" />
<path d="M9.7730 0.8300
L9.7730 0.7070
" />
<path d="M9.7730 1.2630
L9.7730 0.8290
" />
<path d="M9.7730 1.3260
L9.7730 1.2630
" />
<path d="M9.7730 15.5870
L9.7730 15.5240
" />
<path d="M9.7730 16.0210
L9.7730 15.5870
" />
<path d="M9.7730 16.1430
L9.7730 16.0200
" />
<path d="M9.7730 16.3600
L9.7730 16.1430
" />
<path d="M9.7730 16.4220
L9.7730 16.3600
" />
<path d="M10.0770 0.4280
L10.0770 0.4900
" />
<path d="M10.0770 0.4900
L10.0770 0.7070
" />
<path d="M10.0770 0.7070
L10.0770 0.8300
" />
<path d="M10.0770 0.8290
L10.0770 1.2630
" />
<path d="M10.0770 1.2630
L10.0770 1.3260
" />
<path d="M10.0770 15.5240
L10.0770 15.5870
" />
<path d="M10.0770 15.5870
L10.0770 16.0210
" />
<path d="M10.0770 16.0200
L10.0770 16.1430
" />
<path d="M10.0770 16.1430
L10.0770 16.3600
" />
<path d="M10.0770 16.3600
L10.0770 16.4220
" />
<path d="M10.0770 16.4220
L9.7730 16.4220
" />
<path d="M10.2730 0.4280
L10.5770 0.4280
" />
<path d="M10.2730 0.4900
L10.2730 0.4280
" />
<path d="M10.2730 0.7070
L10.2730 0.4900
" />
<path d="M10.2730 0.8300
L10.2730 0.7070
" />
<path d="M10.2730 1.2630
L10.2730 0.8290
" />
<path d="M10.2730 1.3260
L10.2730 1.2630
" />
<path d="M10.2730 15.5870
L10.2730 15.5240
" />
<path d="M10.2730 16.0210
L10.2730 15.5870
" />
<path d="M10.2730 16.1430
L10.2730 16.0200
" />
<path d="M10.2730 16.3600
L10.2730 16.1430
" />
<path d="M10.2730 16.4220
L10.2730 16.3600
" />
<path d="M10.5770 0.4280
L10.5770 0.4900
" />
<path d="M10.5770 0.4900
L10.5770 0.7070
" />
<path d="M10.5770 0.7070
L10.5770 0.8300
" />
<path d="M10.5770 0.8290
L10.5770 1.2630
" />
<path d="M10.5770 1.2630
L10.5770 1.3260
" />
<path d="M10.5770 15.5240
L10.5770 15.5870
" />
<path d="M10.5770 15.5870
L10.5770 16.0210
" />
<path d="M10.5770 16.0200
L10.5770 16.1430
" />
<path d="M10.5770 16.1430
L10.5770 16.3600
" />
<path d="M10.5770 16.3600
L10.5770 16.4220
" />
<path d="M10.5770 16.4220
L10.2730 16.4220
" />
<path d="M10.7730 0.4280
L11.0770 0.4280
" />
<path d="M10.7730 0.4900
L10.7730 0.4280
" />
<path d="M10.7730 0.7070
L10.7730 0.4900
" />
<path d="M10.7730 0.8300
L10.7730 0.7070
" />
<path d="M10.7730 1.2630
L10.7730 0.8290
" />
<path d="M10.7730 1.3260
L10.7730 1.2630
" />
<path d="M10.7730 15.5870
L10.7730 15.5240
" />
<path d="M10.7730 16.0210
L10.7730 15.5870
" />
<path d="M10.7730 16.1430
L10.7730 16.0200
" />
<path d="M10.7730 16.3600
L10.7730 16.1430
" />
<path d="M10.7730 16.4220
L10.7730 16.3600
" />
<path d="M11.0770 0.4280
L11.0770 0.4900
" />
<path d="M11.0770 0.4900
L11.0770 0.7070
" />
<path d="M11.0770 0.7070
L11.0770 0.8300
" />
<path d="M11.0770 0.8290
L11.0770 1.2630
" />
<path d="M11.0770 1.2630
L11.0770 1.3260
" />
<path d="M11.0770 15.5240
L11.0770 15.5870
" />
<path d="M11.0770 15.5870
L11.0770 16.0210
" />
<path d="M11.0770 16.0200
L11.0770 16.1430
" />
<path d="M11.0770 16.1430
L11.0770 16.3600
" />
<path d="M11.0770 16.3600
L11.0770 16.4220
" />
<path d="M11.0770 16.4220
L10.7730 16.4220
" />
<path d="M11.2730 0.4280
L11.5770 0.4280
" />
<path d="M11.2730 0.4900
L11.2730 0.4280
" />
<path d="M11.2730 0.7070
L11.2730 0.4900
" />
<path d="M11.2730 0.8300
L11.2730 0.7070
" />
<path d="M11.2730 1.2630
L11.2730 0.8290
" />
<path d="M11.2730 1.3260
L11.2730 1.2630
" />
<path d="M11.2730 15.5870
L11.2730 15.5240
" />
<path d="M11.2730 16.0210
L11.2730 15.5870
" />
<path d="M11.2730 16.1430
L11.2730 16.0200
" />
<path d="M11.2730 16.3600
L11.2730 16.1430
" />
<path d="M11.2730 16.4220
L11.2730 16.3600
" />
<path d="M11.5770 0.4280
L11.5770 0.4900
" />
<path d="M11.5770 0.4900
L11.5770 0.7070
" />
<path d="M11.5770 0.7070
L11.5770 0.8300
" />
<path d="M11.5770 0.8290
L11.5770 1.2630
" />
<path d="M11.5770 1.2630
L11.5770 1.3260
" />
<path d="M11.5770 15.5240
L11.5770 15.5870
" />
<path d="M11.5770 15.5870
L11.5770 16.0210
" />
<path d="M11.5770 16.0200
L11.5770 16.1430
" />
<path d="M11.5770 16.1430
L11.5770 16.3600
" />
<path d="M11.5770 16.3600
L11.5770 16.4220
" />
<path d="M11.5770 16.4220
L11.2730 16.4220
" />
<path d="M11.7730 0.4280
L12.0770 0.4280
" />
<path d="M11.7730 0.4900
L11.7730 0.4280
" />
<path d="M11.7730 0.7070
L11.7730 0.4900
" />
<path d="M11.7730 0.8300
L11.7730 0.7070
" />
<path d="M11.7730 1.2630
L11.7730 0.8290
" />
<path d="M11.7730 1.3260
L11.7730 1.2630
" />
<path d="M11.7730 15.5870
L11.7730 15.5240
" />
<path d="M11.7730 16.0210
L11.7730 15.5870
" />
<path d="M11.7730 16.1430
L11.7730 16.0200
" />
<path d="M11.7730 16.3600
L11.7730 16.1430
" />
<path d="M11.7730 16.4220
L11.7730 16.3600
" />
<path d="M12.0770 0.4280
L12.0770 0.4900
" />
<path d="M12.0770 0.4900
L12.0770 0.7070
" />
<path d="M12.0770 0.7070
L12.0770 0.8300
" />
<path d="M12.0770 0.8290
L12.0770 1.2630
" />
<path d="M12.0770 1.2630
L12.0770 1.3260
" />
<path d="M12.0770 15.5240
L12.0770 15.5870
" />
<path d="M12.0770 15.5870
L12.0770 16.0210
" />
<path d="M12.0770 16.0200
L12.0770 16.1430
" />
<path d="M12.0770 16.1430
L12.0770 16.3600
" />
<path d="M12.0770 16.3600
L12.0770 16.4220
" />
<path d="M12.0770 16.4220
L11.7730 16.4220
" />
<path d="M12.2730 0.4280
L12.5770 0.4280
" />
<path d="M12.2730 0.4900
L12.2730 0.4280
" />
<path d="M12.2730 0.7070
L12.2730 0.4900
" />
<path d="M12.2730 0.8300
L12.2730 0.7070
" />
<path d="M12.2730 1.2630
L12.2730 0.8290
" />
<path d="M12.2730 1.3260
L12.2730 1.2630
" />
<path d="M12.2730 15.5870
L12.2730 15.5240
" />
<path d="M12.2730 16.0210
L12.2730 15.5870
" />
<path d="M12.2730 16.1430
L12.2730 16.0200
" />
<path d="M12.2730 16.3600
L12.2730 16.1430
" />
<path d="M12.2730 16.4220
L12.2730 16.3600
" />
<path d="M12.5770 0.4280
L12.5770 0.4900
" />
<path d="M12.5770 0.4900
L12.5770 0.7070
" />
<path d="M12.5770 0.7070
L12.5770 0.8300
" />
<path d="M12.5770 0.8290
L12.5770 1.2630
" />
<path d="M12.5770 1.2630
L12.5770 1.3260
" />
<path d="M12.5770 15.5240
L12.5770 15.5870
" />
<path d="M12.5770 15.5870
L12.5770 16.0210
" />
<path d="M12.5770 16.0200
L12.5770 16.1430
" />
<path d="M12.5770 16.1430
L12.5770 16.3600
" />
<path d="M12.5770 16.3600
L12.5770 16.4220
" />
<path d="M12.5770 16.4220
L12.2730 16.4220
" />
<path d="M12.7730 0.4280
L13.0770 0.4280
" />
<path d="M12.7730 0.4900
L12.7730 0.4280
" />
<path d="M12.7730 0.7070
L12.7730 0.4900
" />
<path d="M12.7730 0.8300
L12.7730 0.7070
" />
<path d="M12.7730 1.2630
L12.7730 0.8290
" />
<path d="M12.7730 1.3260
L12.7730 1.2630
" />
<path d="M12.7730 15.5870
L12.7730 15.5240
" />
<path d="M12.7730 16.0210
L12.7730 15.5870
" />
<path d="M12.7730 16.1430
L12.7730 16.0200
" />
<path d="M12.7730 16.3600
L12.7730 16.1430
" />
<path d="M12.7730 16.4220
L12.7730 16.3600
" />
<path d="M13.0770 0.4280
L13.0770 0.4900
" />
<path d="M13.0770 0.4900
L13.0770 0.7070
" />
<path d="M13.0770 0.7070
L13.0770 0.8300
" />
<path d="M13.0770 0.8290
L13.0770 1.2630
" />
<path d="M13.0770 1.2630
L13.0770 1.3260
" />
<path d="M13.0770 15.5240
L13.0770 15.5870
" />
<path d="M13.0770 15.5870
L13.0770 16.0210
" />
<path d="M13.0770 16.0200
L13.0770 16.1430
" />
<path d="M13.0770 16.1430
L13.0770 16.3600
" />
<path d="M13.0770 16.3600
L13.0770 16.4220
" />
<path d="M13.0770 16.4220
L12.7730 16.4220
" />
<path d="M13.2730 0.4280
L13.5770 0.4280
" />
<path d="M13.2730 0.4900
L13.2730 0.4280
" />
<path d="M13.2730 0.7070
L13.2730 0.4900
" />
<path d="M13.2730 0.8300
L13.2730 0.7070
" />
<path d="M13.2730 1.2630
L13.2730 0.8290
" />
<path d="M13.2730 1.3260
L13.2730 1.2630
" />
<path d="M13.2730 15.5870
L13.2730 15.5240
" />
<path d="M13.2730 16.0210
L13.2730 15.5870
" />
<path d="M13.2730 16.1430
L13.2730 16.0200
" />
<path d="M13.2730 16.3600
L13.2730 16.1430
" />
<path d="M13.2730 16.4220
L13.2730 16.3600
" />
<path d="M13.5770 0.4280
L13.5770 0.4900
" />
<path d="M13.5770 0.4900
L13.5770 0.7070
" />
<path d="M13.5770 0.7070
L13.5770 0.8300
" />
<path d="M13.5770 0.8290
L13.5770 1.2630
" />
<path d="M13.5770 1.2630
L13.5770 1.3260
" />
<path d="M13.5770 15.5240
L13.5770 15.5870
" />
<path d="M13.5770 15.5870
L13.5770 16.0210
" />
<path d="M13.5770 16.0200
L13.5770 16.1430
" />
<path d="M13.5770 16.1430
L13.5770 16.3600
" />
<path d="M13.5770 16.3600
L13.5770 16.4220
" />
<path d="M13.5770 16.4220
L13.2730 16.4220
" />
<path d="M13.7730 0.4280
L14.0770 0.4280
" />
<path d="M13.7730 0.4900
L13.7730 0.4280
" />
<path d="M13.7730 0.7070
L13.7730 0.4900
" />
<path d="M13.7730 0.8300
L13.7730 0.7070
" />
<path d="M13.7730 1.2630
L13.7730 0.8290
" />
<path d="M13.7730 1.3260
L13.7730 1.2630
" />
<path d="M13.7730 15.5870
L13.7730 15.5240
" />
<path d="M13.7730 16.0210
L13.7730 15.5870
" />
<path d="M13.7730 16.1430
L13.7730 16.0200
" />
<path d="M13.7730 16.3600
L13.7730 16.1430
" />
<path d="M13.7730 16.4220
L13.7730 16.3600
" />
<path d="M14.0770 0.4280
L14.0770 0.4900
" />
<path d="M14.0770 0.4900
L14.0770 0.7070
" />
<path d="M14.0770 0.7070
L14.0770 0.8300
" />
<path d="M14.0770 0.8290
L14.0770 1.2630
" />
<path d="M14.0770 1.2630
L14.0770 1.3260
" />
<path d="M14.0770 15.5240
L14.0770 15.5870
" />
<path d="M14.0770 15.5870
L14.0770 16.0210
" />
<path d="M14.0770 16.0200
L14.0770 16.1430
" />
<path d="M14.0770 16.1430
L14.0770 16.3600
" />
<path d="M14.0770 16.3600
L14.0770 16.4220
" />
<path d="M14.0770 16.4220
L13.7730 16.4220
" />
<path d="M14.2730 0.4280
L14.5770 0.4280
" />
<path d="M14.2730 0.4900
L14.2730 0.4280
" />
<path d="M14.2730 0.7070
L14.2730 0.4900
" />
<path d="M14.2730 0.8300
L14.2730 0.7070
" />
<path d="M14.2730 1.2630
L14.2730 0.8290
" />
<path d="M14.2730 1.3260
L14.2730 1.2630
" />
<path d="M14.2730 15.5870
L14.2730 15.5240
" />
<path d="M14.2730 16.0210
L14.2730 15.5870
" />
<path d="M14.2730 16.1430
L14.2730 16.0200
" />
<path d="M14.2730 16.3600
L14.2730 16.1430
" />
<path d="M14.2730 16.4220
L14.2730 16.3600
" />
<path d="M14.5770 0.4280
L14.5770 0.4900
" />
<path d="M14.5770 0.4900
L14.5770 0.7070
" />
<path d="M14.5770 0.7070
L14.5770 0.8300
" />
<path d="M14.5770 0.8290
L14.5770 1.2630
" />
<path d="M14.5770 1.2630
L14.5770 1.3260
" />
<path d="M14.5770 15.5240
L14.5770 15.5870
" />
<path d="M14.5770 15.5870
L14.5770 16.0210
" />
<path d="M14.5770 16.0200
L14.5770 16.1430
" />
<path d="M14.5770 16.1430
L14.5770 16.3600
" />
<path d="M14.5770 16.3600
L14.5770 16.4220
" />
<path d="M14.5770 16.4220
L14.2730 16.4220
" />
<path d="M15.3720 1.4780
L15.3720 15.3720
" />
<path d="M15.3720 1.4780
L15.5240 1.3260
" />
<path d="M15.3720 15.3720
L1.4780 15.3720
" />
<path d="M15.3720 15.3720
L15.5240 15.5240
" />
<path d="M15.5240 1.3260
L15.5240 15.5240
" />
<path d="M15.5240 2.2730
L15.5870 2.2730
" />
<path d="M15.5240 2.7730
L15.5870 2.7730
" />
<path d="M15.5240 3.2730
L15.5870 3.2730
" />
<path d="M15.5240 3.7730
L15.5870 3.7730
" />
<path d="M15.5240 4.2730
L15.5870 4.2730
" />
<path d="M15.5240 4.7730
L15.5870 4.7730
" />
<path d="M15.5240 5.2730
L15.5870 5.2730
" />
<path d="M15.5240 5.7730
L15.5870 5.7730
" />
<path d="M15.5240 6.2730
L15.5870 6.2730
" />
<path d="M15.5240 6.7730
L15.5870 6.7730
" />
<path d="M15.5240 7.2730
L15.5870 7.2730
" />
<path d="M15.5240 7.7730
L15.5870 7.7730
" />
<path d="M15.5240 8.2730
L15.5870 8.2730
" />
<path d="M15.5240 8.7730
L15.5870 8.7730
" />
<path d="M15.5240 9.2730
L15.5870 9.2730
" />
<path d="M15.5240 9.7730
L15.5870 9.7730
" />
<path d="M15.5240 10.2730
L15.5870 10.2730
" />
<path d="M15.5240 10.7730
L15.5870 10.7730
" />
<path d="M15.5240 11.2730
L15.5870 11.2730
" />
<path d="M15.5240 11.7730
L15.5870 11.7730
" />
<path d="M15.5240 12.2730
L15.5870 12.2730
" />
<path d="M15.5240 12.7730
L15.5870 12.7730
" />
<path d="M15.5240 13.2730
L15.5870 13.2730
" />
<path d="M15.5240 13.7730
L15.5870 13.7730
" />
<path d="M15.5240 14.2730
L15.5870 14.2730
" />
<path d="M15.5240 15.5240
L1.3260 15.5240
" />
<path d="M15.5870 2.2730
L16.0210 2.2730
" />
<path d="M15.5870 2.5770
L15.5240 2.5770
" />
<path d="M15.5870 2.7730
L16.0210 2.7730
" />
<path d="M15.5870 3.0770
L15.5240 3.0770
" />
<path d="M15.5870 3.2730
L16.0210 3.2730
" />
<path d="M15.5870 3.5770
L15.5240 3.5770
" />
<path d="M15.5870 3.7730
L16.0210 3.7730
" />
<path d="M15.5870 4.0770
L15.5240 4.0770
" />
<path d="M15.5870 4.2730
L16.0210 4.2730
" />
<path d="M15.5870 4.5770
L15.5240 4.5770
" />
<path d="M15.5870 4.7730
L16.0210 4.7730
" />
<path d="M15.5870 5.0770
L15.5240 5.0770
" />
<path d="M15.5870 5.2730
L16.0210 5.2730
" />
<path d="M15.5870 5.5770
L15.5240 5.5770
" />
<path d="M15.5870 5.7730
L16.0210 5.7730
" />
<path d="M15.5870 6.0770
L15.5240 6.0770
" />
<path d="M15.5870 6.2730
L16.0210 6.2730
" />
<path d="M15.5870 6.5770
L15.5240 6.5770
" />
<path d="M15.5870 6.7730
L16.0210 6.7730
" />
<path d="M15.5870 7.0770
L15.5240 7.0770
" />
<path d="M15.5870 7.2730
L16.0210 7.2730
" />
<path d="M15.5870 7.5770
L15.5240 7.5770
" />
<path d="M15.5870 7.7730
L16.0210 7.7730
" />
<path d="M15.5870 8.0770
L15.5240 8.0770
" />
<path d="M15.5870 8.2730
L16.0210 8.2730
" />
<path d="M15.5870 8.5770
L15.5240 8.5770
" />
<path d="M15.5870 8.7730
L16.0210 8.7730
" />
<path d="M15.5870 9.0770
L15.5240 9.0770
" />
<path d="M15.5870 9.2730
L16.0210 9.2730
" />
<path d="M15.5870 9.5770
L15.5240 9.5770
" />
<path d="M15.5870 9.7730
L16.0210 9.7730
" />
<path d="M15.5870 10.0770
L15.5240 10.0770
" />
<path d="M15.5870 10.2730
L16.0210 10.2730
" />
<path d="M15.5870 10.5770
L15.5240 10.5770
" />
<path d="M15.5870 10.7730
L16.0210 10.7730
" />
<path d="M15.5870 11.0770
L15.5240 11.0770
" />
<path d="M15.5870 11.2730
L16.0210 11.2730
" />
<path d="M15.5870 11.5770
L15.5240 11.5770
" />
<path d="M15.5870 11.7730
L16.0210 11.7730
" />
<path d="M15.5870 12.0770
L15.5240 12.0770
" />
<path d="M15.5870 12.2730
L16.0210 12.2730
" />
<path d="M15.5870 12.5770
L15.5240 12.5770
" />
<path d="M15.5870 12.7730
L16.0210 12.7730
" />
<path d="M15.5870 13.0770
L15.5240 13.0770
" />
<path d="M15.5870 13.2730
L16.0210 13.2730
" />
<path d="M15.5870 13.5770
L15.5240 13.5770
" />
<path d="M15.5870 13.7730
L16.0210 13.7730
" />
<path d="M15.5870 14.0770
L15.5240 14.0770
" />
<path d="M15.5870 14.2730
L16.0210 14.2730
" />
<path d="M15.5870 14.5770
L15.5240 14.5770
" />
<path d="M16.0200 2.2730
L16.1430 2.2730
" />
<path d="M16.0200 2.7730
L16.1430 2.7730
" />
<path d="M16.0200 3.2730
L16.1430 3.2730
" />
<path d="M16.0200 3.7730
L16.1430 3.7730
" />
<path d="M16.0200 4.2730
L16.1430 4.2730
" />
<path d="M16.0200 4.7730
L16.1430 4.7730
" />
<path d="M16.0200 5.2730
L16.1430 5.2730
" />
<path d="M16.0200 5.7730
L16.1430 5.7730
" />
<path d="M16.0200 6.2730
L16.1430 6.2730
" />
<path d="M16.0200 6.7730
L16.1430 6.7730
" />
<path d="M16.0200 7.2730
L16.1430 7.2730
" />
<path d="M16.0200 7.7730
L16.1430 7.7730
" />
<path d="M16.0200 8.2730
L16.1430 8.2730
" />
<path d="M16.0200 8.7730
L16.1430 8.7730
" />
<path d="M16.0200 9.2730
L16.1430 9.2730
" />
<path d="M16.0200 9.7730
L16.1430 9.7730
" />
<path d="M16.0200 10.2730
L16.1430 10.2730
" />
<path d="M16.0200 10.7730
L16.1430 10.7730
" />
<path d="M16.0200 11.2730
L16.1430 11.2730
" />
<path d="M16.0200 11.7730
L16.1430 11.7730
" />
<path d="M16.0200 12.2730
L16.1430 12.2730
" />
<path d="M16.0200 12.7730
L16.1430 12.7730
" />
<path d="M16.0200 13.2730
L16.1430 13.2730
" />
<path d="M16.0200 13.7730
L16.1430 13.7730
" />
<path d="M16.0200 14.2730
L16.1430 14.2730
" />
<path d="M16.0210 2.5770
L15.5870 2.5770
" />
<path d="M16.0210 3.0770
L15.5870 3.0770
" />
<path d="M16.0210 3.5770
L15.5870 3.5770
" />
<path d="M16.0210 4.0770
L15.5870 4.0770
" />
<path d="M16.0210 4.5770
L15.5870 4.5770
" />
<path d="M16.0210 5.0770
L15.5870 5.0770
" />
<path d="M16.0210 5.5770
L15.5870 5.5770
" />
<path d="M16.0210 6.0770
L15.5870 6.0770
" />
<path d="M16.0210 6.5770
L15.5870 6.5770
" />
<path d="M16.0210 7.0770
L15.5870 7.0770
" />
<path d="M16.0210 7.5770
L15.5870 7.5770
" />
<path d="M16.0210 8.0770
L15.5870 8.0770
" />
<path d="M16.0210 8.5770
L15.5870 8.5770
" />
<path d="M16.0210 9.0770
L15.5870 9.0770
" />
<path d="M16.0210 9.5770
L15.5870 9.5770
" />
<path d="M16.0210 10.0770
L15.5870 10.0770
" />
<path d="M16.0210 10.5770
L15.5870 10.5770
" />
<path d="M16.0210 11.0770
L15.5870 11.0770
" />
<path d="M16.0210 11.5770
L15.5870 11.5770
" />
<path d="M16.0210 12.0770
L15.5870 12.0770
" />
<path d="M16.0210 12.5770
L15.5870 12.5770
" />
<path d="M16.0210 13.0770
L15.5870 13.0770
" />
<path d="M16.0210 13.5770
L15.5870 13.5770
" />
<path d="M16.0210 14.0770
L15.5870 14.0770
" />
<path d="M16.0210 14.5770
L15.5870 14.5770
" />
<path d="M16.1430 2.2730
L16.3600 2.2730
" />
<path d="M16.1430 2.5770
L16.0200 2.5770
" />
<path d="M16.1430 2.7730
L16.3600 2.7730
" />
<path d="M16.1430 3.0770
L16.0200 3.0770
" />
<path d="M16.1430 3.2730
L16.3600 3.2730
" />
<path d="M16.1430 3.5770
L16.0200 3.5770
" />
<path d="M16.1430 3.7730
L16.3600 3.7730
" />
<path d="M16.1430 4.0770
L16.0200 4.0770
" />
<path d="M16.1430 4.2730
L16.3600 4.2730
" />
<path d="M16.1430 4.5770
L16.0200 4.5770
" />
<path d="M16.1430 4.7730
L16.3600 4.7730
" />
<path d="M16.1430 5.0770
L16.0200 5.0770
" />
<path d="M16.1430 5.2730
L16.3600 5.2730
" />
<path d="M16.1430 5.5770
L16.0200 5.5770
" />
<path d="M16.1430 5.7730
L16.3600 5.7730
" />
<path d="M16.1430 6.0770
L16.0200 6.0770
" />
<path d="M16.1430 6.2730
L16.3600 6.2730
" />
<path d="M16.1430 6.5770
L16.0200 6.5770
" />
<path d="M16.1430 6.7730
L16.3600 6.7730
" />
<path d="M16.1430 7.0770
L16.0200 7.0770
" />
<path d="M16.1430 7.2730
L16.3600 7.2730
" />
<path d="M16.1430 7.5770
L16.0200 7.5770
" />
<path d="M16.1430 7.7730
L16.3600 7.7730
" />
<path d="M16.1430 8.0770
L16.0200 8.0770
" />
<path d="M16.1430 8.2730
L16.3600 8.2730
" />
<path d="M16.1430 8.5770
L16.0200 8.5770
" />
<path d="M16.1430 8.7730
L16.3600 8.7730
" />
<path d="M16.1430 9.0770
L16.0200 9.0770
" />
<path d="M16.1430 9.2730
L16.3600 9.2730
" />
<path d="M16.1430 9.5770
L16.0200 9.5770
" />
<path d="M16.1430 9.7730
L16.3600 9.7730
" />
<path d="M16.1430 10.0770
L16.0200 10.0770
" />
<path d="M16.1430 10.2730
L16.3600 10.2730
" />
<path d="M16.1430 10.5770
L16.0200 10.5770
" />
<path d="M16.1430 10.7730
L16.3600 10.7730
" />
<path d="M16.1430 11.0770
L16.0200 11.0770
" />
<path d="M16.1430 11.2730
L16.3600 11.2730
" />
<path d="M16.1430 11.5770
L16.0200 11.5770
" />
<path d="M16.1430 11.7730
L16.3600 11.7730
" />
<path d="M16.1430 12.0770
L16.0200 12.0770
" />
<path d="M16.1430 12.2730
L16.3600 12.2730
" />
<path d="M16.1430 12.5770
L16.0200 12.5770
" />
<path d="M16.1430 12.7730
L16.3600 12.7730
" />
<path d="M16.1430 13.0770
L16.0200 13.0770
" />
<path d="M16.1430 13.2730
L16.3600 13.2730
" />
<path d="M16.1430 13.5770
L16.0200 13.5770
" />
<path d="M16.1430 13.7730
L16.3600 13.7730
" />
<path d="M16.1430 14.0770
L16.0200 14.0770
" />
<path d="M16.1430 14.2730
L16.3600 14.2730
" />
<path d="M16.1430 14.5770
L16.0200 14.5770
" />
<path d="M16.3600 2.2730
L16.4220 2.2730
" />
<path d="M16.3600 2.5770
L16.1430 2.5770
" />
<path d="M16.3600 2.7730
L16.4220 2.7730
" />
<path d="M16.3600 3.0770
L16.1430 3.0770
" />
<path d="M16.3600 3.2730
L16.4220 3.2730
" />
<path d="M16.3600 3.5770
L16.1430 3.5770
" />
<path d="M16.3600 3.7730
L16.4220 3.7730
" />
<path d="M16.3600 4.0770
L16.1430 4.0770
" />
<path d="M16.3600 4.2730
L16.4220 4.2730
" />
<path d="M16.3600 4.5770
L16.1430 4.5770
" />
<path d="M16.3600 4.7730
L16.4220 4.7730
" />
<path d="M16.3600 5.0770
L16.1430 5.0770
" />
<path d="M16.3600 5.2730
L16.4220 5.2730
" />
<path d="M16.3600 5.5770
L16.1430 5.5770
" />
<path d="M16.3600 5.7730
L16.4220 5.7730
" />
<path d="M16.3600 6.0770
L16.1430 6.0770
" />
<path d="M16.3600 6.2730
L16.4220 6.2730
" />
<path d="M16.3600 6.5770
L16.1430 6.5770
" />
<path d="M16.3600 6.7730
L16.4220 6.7730
" />
<path d="M16.3600 7.0770
L16.1430 7.0770
" />
<path d="M16.3600 7.2730
L16.4220 7.2730
" />
<path d="M16.3600 7.5770
L16.1430 7.5770
" />
<path d="M16.3600 7.7730
L16.4220 7.7730
" />
<path d="M16.3600 8.0770
L16.1430 8.0770
" />
<path d="M16.3600 8.2730
L16.4220 8.2730
" />
<path d="M16.3600 8.5770
L16.1430 8.5770
" />
<path d="M16.3600 8.7730
L16.4220 8.7730
" />
<path d="M16.3600 9.0770
L16.1430 9.0770
" />
<path d="M16.3600 9.2730
L16.4220 9.2730
" />
<path d="M16.3600 9.5770
L16.1430 9.5770
" />
<path d="M16.3600 9.7730
L16.4220 9.7730
" />
<path d="M16.3600 10.0770
L16.1430 10.0770
" />
<path d="M16.3600 10.2730
L16.4220 10.2730
" />
<path d="M16.3600 10.5770
L16.1430 10.5770
" />
<path d="M16.3600 10.7730
L16.4220 10.7730
" />
<path d="M16.3600 11.0770
L16.1430 11.0770
" />
<path d="M16.3600 11.2730
L16.4220 11.2730
" />
<path d="M16.3600 11.5770
L16.1430 11.5770
" />
<path d="M16.3600 11.7730
L16.4220 11.7730
" />
<path d="M16.3600 12.0770
L16.1430 12.0770
" />
<path d="M16.3600 12.2730
L16.4220 12.2730
" />
<path d="M16.3600 12.5770
L16.1430 12.5770
" />
<path d="M16.3600 12.7730
L16.4220 12.7730
" />
<path d="M16.3600 13.0770
L16.1430 13.0770
" />
<path d="M16.3600 13.2730
L16.4220 13.2730
" />
<path d="M16.3600 13.5770
L16.1430 13.5770
" />
<path d="M16.3600 13.7730
L16.4220 13.7730
" />
<path d="M16.3600 14.0770
L16.1430 14.0770
" />
<path d="M16.3600 14.2730
L16.4220 14.2730
" />
<path d="M16.3600 14.5770
L16.1430 14.5770
" />
<path d="M16.4220 2.2730
L16.4220 2.5770
" />
<path d="M16.4220 2.5770
L16.3600 2.5770
" />
<path d="M16.4220 2.7730
L16.4220 3.0770
" />
<path d="M16.4220 3.0770
L16.3600 3.0770
" />
<path d="M16.4220 3.2730
L16.4220 3.5770
" />
<path d="M16.4220 3.5770
L16.3600 3.5770
" />
<path d="M16.4220 3.7730
L16.4220 4.0770
" />
<path d="M16.4220 4.0770
L16.3600 4.0770
" />
<path d="M16.4220 4.2730
L16.4220 4.5770
" />
<path d="M16.4220 4.5770
L16.3600 4.5770
" />
<path d="M16.4220 4.7730
L16.4220 5.0770
" />
<path d="M16.4220 5.0770
L16.3600 5.0770
" />
<path d="M16.4220 5.2730
L16.4220 5.5770
" />
<path d="M16.4220 5.5770
L16.3600 5.5770
" />
<path d="M16.4220 5.7730
L16.4220 6.0770
" />
<path d="M16.4220 6.0770
L16.3600 6.0770
" />
<path d="M16.4220 6.2730
L16.4220 6.5770
" />
<path d="M16.4220 6.5770
L16.3600 6.5770
" />
<path d="M16.4220 6.7730
L16.4220 7.0770
" />
<path d="M16.4220 7.0770
L16.3600 7.0770
" />
<path d="M16.4220 7.2730
L16.4220 7.5770
" />
<path d="M16.4220 7.5770
L16.3600 7.5770
" />
<path d="M16.4220 7.7730
L16.4220 8.0770
" />
<path d="M16.4220 8.0770
L16.3600 8.0770
" />
<path d="M16.4220 8.2730
L16.4220 8.5770
" />
<path d="M16.4220 8.5770
L16.3600 8.5770
" />
<path d="M16.4220 8.7730
L16.4220 9.0770
" />
<path d="M16.4220 9.0770
L16.3600 9.0770
" />
<path d="M16.4220 9.2730
L16.4220 9.5770
" />
<path d="M16.4220 9.5770
L16.3600 9.5770
" />
<path d="M16.4220 9.7730
L16.4220 10.0770
" />
<path d="M16.4220 10.0770
L16.3600 10.0770
" />
<path d="M16.4220 10.2730
L16.4220 10.5770
" />
<path d="M16.4220 10.5770
L16.3600 10.5770
" />
<path d="M16.4220 10.7730
L16.4220 11.0770
" />
<path d="M16.4220 11.0770
L16.3600 11.0770
" />
<path d="M16.4220 11.2730
L16.4220 11.5770
" />
<path d="M16.4220 11.5770
L16.3600 11.5770
" />
<path d="M16.4220 11.7730
L16.4220 12.0770
" />
<path d="M16.4220 12.0770
L16.3600 12.0770
" />
<path d="M16.4220 12.2730
L16.4220 12.5770
" />
<path d="M16.4220 12.5770
L16.3600 12.5770
" />
<path d="M16.4220 12.7730
L16.4220 13.0770
" />
<path d="M16.4220 13.0770
L16.3600 13.0770
" />
<path d="M16.4220 13.2730
L16.4220 13.5770
" />
<path d="M16.4220 13.5770
L16.3600 13.5770
" />
<path d="M16.4220 13.7730
L16.4220 14.0770
" />
<path d="M16.4220 14.0770
L16.3600 14.0770
" />
<path d="M16.4220 14.2730
L16.4220 14.5770
" />
<path d="M16.4220 14.5770
L16.3600 14.5770
" />
<circle cx="2.4500" cy="2.4250" r="0.2850" /> 
</g> 
</svg>
