<?xml version="1.0" standalone="no"?>
 <!DOCTYPE svg PUBLIC "-//W3C//DTD SVG 1.1//EN" 
 "http://www.w3.org/Graphics/SVG/1.1/DTD/svg11.dtd"> 
<svg
  xmlns:svg="http://www.w3.org/2000/svg"
  xmlns="http://www.w3.org/2000/svg"
  xmlns:xlink="http://www.w3.org/1999/xlink"
  version="1.1"
  width="3.0226mm" height="2.6670mm" viewBox="0.0000 0.0000 3.0226 2.6670">
<title>SVG Image created as outline.svg date 2025/04/04 10:06:09 </title>
  <desc>Image generated by PCBNEW </desc>
<g style="fill:#000000; fill-opacity:1.0000;stroke:#000000; stroke-opacity:1.0000;
stroke-linecap:round; stroke-linejoin:round;"
 transform="translate(0 0) scale(1 1)">
</g>
<g style="fill:none; 
stroke:#000000; stroke-width:0.0200; stroke-opacity:1; 
stroke-linecap:round; stroke-linejoin:round;">
<path d="M0.4740 0.4700
L0.5250 0.4700
" />
<path d="M0.4740 0.7200
L0.4740 0.4700
" />
<path d="M0.4740 0.7200
L0.5250 0.7200
" />
<path d="M0.4740 0.9700
L0.5250 0.9700
" />
<path d="M0.4740 1.2200
L0.4740 0.9700
" />
<path d="M0.4740 1.2200
L0.5250 1.2200
" />
<path d="M0.4740 1.4680
L0.5250 1.4680
" />
<path d="M0.4740 1.7180
L0.4740 1.4680
" />
<path d="M0.4740 1.7180
L0.5250 1.7180
" />
<path d="M0.4740 1.9680
L0.5250 1.9680
" />
<path d="M0.4740 2.2180
L0.4740 1.9680
" />
<path d="M0.4740 2.2180
L0.5250 2.2180
" />
<path d="M0.5250 0.3450
L2.5230 0.3450
" />
<path d="M0.5250 2.3430
L0.5250 0.3450
" />
<path d="M0.5250 2.3430
L2.5230 2.3430
" />
<path d="M0.6500 0.5820
L0.6500 0.5880
" />
<path d="M0.6500 0.5880
L0.6500 0.5950
" />
</g>
<g style="fill:#000000; fill-opacity:1.0000; stroke:none;">
<circle cx="0.6500" cy="0.5950" r="0.0100" /> 
</g>
<g style="fill:none; 
stroke:#000000; stroke-width:0.0200; stroke-opacity:1; 
stroke-linecap:round; stroke-linejoin:round;">
<path d="M0.6500 0.5950
L0.6500 0.6010
" />
<path d="M0.6500 0.6010
L0.6500 0.6070
" />
<path d="M0.6500 0.6070
L0.6510 0.6140
" />
<path d="M0.6510 0.5740
L0.6500 0.5820
" />
<path d="M0.6510 0.6140
L0.6520 0.6200
" />
<path d="M0.6520 0.5680
L0.6510 0.5740
" />
<path d="M0.6520 0.6200
L0.6530 0.6260
" />
<path d="M0.6530 0.5620
L0.6520 0.5680
" />
<path d="M0.6530 0.6260
L0.6550 0.6320
" />
<path d="M0.6550 0.5560
L0.6530 0.5620
" />
<path d="M0.6550 0.6320
L0.6570 0.6370
" />
<path d="M0.6570 0.5510
L0.6550 0.5560
" />
<path d="M0.6570 0.6370
L0.6590 0.6420
" />
<path d="M0.6590 0.5450
L0.6570 0.5510
" />
<path d="M0.6590 0.6420
L0.6620 0.6480
" />
<path d="M0.6620 0.5390
L0.6590 0.5450
" />
<path d="M0.6620 0.6480
L0.6650 0.6530
" />
<path d="M0.6650 0.5340
L0.6620 0.5390
" />
<path d="M0.6650 0.6530
L0.6680 0.6580
" />
<path d="M0.6680 0.5290
L0.6650 0.5340
" />
<path d="M0.6680 0.6580
L0.6710 0.6630
" />
<path d="M0.6710 0.5240
L0.6680 0.5290
" />
<path d="M0.6710 0.6630
L0.6740 0.6680
" />
<path d="M0.6740 0.5190
L0.6710 0.5240
" />
<path d="M0.6740 0.6680
L0.6780 0.6730
" />
<path d="M0.6780 0.5140
L0.6740 0.5190
" />
<path d="M0.6780 0.6730
L0.6820 0.6780
" />
<path d="M0.6820 0.5100
L0.6780 0.5140
" />
<path d="M0.6820 0.6780
L0.6860 0.6820
" />
<path d="M0.6860 0.5060
L0.6820 0.5100
" />
<path d="M0.6860 0.6820
L0.6900 0.6860
" />
<path d="M0.6900 0.5020
L0.6860 0.5060
" />
<path d="M0.6900 0.6860
L0.6940 0.6900
" />
<path d="M0.6940 0.4980
L0.6900 0.5020
" />
<path d="M0.6940 0.6900
L0.6990 0.6940
" />
<path d="M0.6990 0.4940
L0.6940 0.4980
" />
<path d="M0.6990 0.6940
L0.7040 0.6970
" />
<path d="M0.7040 0.4910
L0.6990 0.4940
" />
<path d="M0.7040 0.6970
L0.7090 0.7000
" />
<path d="M0.7090 0.4880
L0.7040 0.4910
" />
<path d="M0.7090 0.7000
L0.7140 0.7030
" />
<path d="M0.7140 0.4850
L0.7090 0.4880
" />
<path d="M0.7140 0.7030
L0.7190 0.7070
" />
<path d="M0.7190 0.4820
L0.7140 0.4850
" />
<path d="M0.7190 0.7070
L0.7250 0.7100
" />
<path d="M0.7250 0.4790
L0.7190 0.4820
" />
<path d="M0.7250 0.7100
L0.7310 0.7120
" />
<path d="M0.7310 0.4770
L0.7250 0.4790
" />
<path d="M0.7310 0.7120
L0.7360 0.7140
" />
<path d="M0.7360 0.4750
L0.7310 0.4770
" />
<path d="M0.7360 0.7140
L0.7420 0.7160
" />
<path d="M0.7420 0.4730
L0.7360 0.4750
" />
<path d="M0.7420 0.7160
L0.7480 0.7170
" />
<path d="M0.7480 0.4720
L0.7420 0.4730
" />
<path d="M0.7480 0.7170
L0.7540 0.7180
" />
<path d="M0.7540 0.4710
L0.7480 0.4720
" />
<path d="M0.7540 0.7180
L0.7620 0.7190
" />
<path d="M0.7620 0.4700
L0.7540 0.4710
" />
<path d="M0.7620 0.7190
L0.7680 0.7190
" />
<path d="M0.7680 0.4700
L0.7620 0.4700
" />
<path d="M0.7680 0.7190
L0.7750 0.7200
" />
<path d="M0.7750 0.4700
L0.7680 0.4700
" />
</g>
<g style="fill:#000000; fill-opacity:1.0000; stroke:none;">
<circle cx="0.7750" cy="0.4700" r="0.0100" /> 
<circle cx="0.7750" cy="0.7200" r="0.0100" /> 
</g>
<g style="fill:none; 
stroke:#000000; stroke-width:0.0200; stroke-opacity:1; 
stroke-linecap:round; stroke-linejoin:round;">
<path d="M0.7750 0.7200
L0.7810 0.7190
" />
<path d="M0.7810 0.4700
L0.7750 0.4700
" />
<path d="M0.7810 0.7190
L0.7870 0.7190
" />
<path d="M0.7870 0.4700
L0.7810 0.4700
" />
<path d="M0.7870 0.7190
L0.7940 0.7180
" />
<path d="M0.7940 0.4710
L0.7870 0.4700
" />
<path d="M0.7940 0.7180
L0.8000 0.7170
" />
<path d="M0.8000 0.4720
L0.7940 0.4710
" />
<path d="M0.8000 0.7170
L0.8060 0.7160
" />
<path d="M0.8060 0.4730
L0.8000 0.4720
" />
<path d="M0.8060 0.7160
L0.8120 0.7140
" />
<path d="M0.8120 0.4750
L0.8060 0.4730
" />
<path d="M0.8120 0.7140
L0.8170 0.7120
" />
<path d="M0.8170 0.4770
L0.8120 0.4750
" />
<path d="M0.8170 0.7120
L0.8220 0.7100
" />
<path d="M0.8220 0.4790
L0.8170 0.4770
" />
<path d="M0.8220 0.7100
L0.8280 0.7070
" />
<path d="M0.8280 0.4820
L0.8220 0.4790
" />
<path d="M0.8280 0.7070
L0.8330 0.7030
" />
<path d="M0.8330 0.4850
L0.8280 0.4820
" />
<path d="M0.8330 0.7030
L0.8380 0.7000
" />
<path d="M0.8380 0.4880
L0.8330 0.4850
" />
<path d="M0.8380 0.7000
L0.8430 0.6970
" />
<path d="M0.8430 0.4910
L0.8380 0.4880
" />
<path d="M0.8430 0.6970
L0.8480 0.6940
" />
<path d="M0.8480 0.4940
L0.8430 0.4910
" />
<path d="M0.8480 0.6940
L0.8530 0.6900
" />
<path d="M0.8530 0.4980
L0.8480 0.4940
" />
<path d="M0.8530 0.6900
L0.8580 0.6860
" />
<path d="M0.8580 0.5020
L0.8530 0.4980
" />
<path d="M0.8580 0.6860
L0.8620 0.6820
" />
<path d="M0.8620 0.5060
L0.8580 0.5020
" />
<path d="M0.8620 0.6820
L0.8660 0.6780
" />
<path d="M0.8660 0.5100
L0.8620 0.5060
" />
<path d="M0.8660 0.6780
L0.8700 0.6730
" />
<path d="M0.8700 0.5140
L0.8660 0.5100
" />
<path d="M0.8700 0.6730
L0.8740 0.6680
" />
<path d="M0.8740 0.5190
L0.8700 0.5140
" />
<path d="M0.8740 0.6680
L0.8770 0.6630
" />
<path d="M0.8770 0.5240
L0.8740 0.5190
" />
<path d="M0.8770 0.6630
L0.8800 0.6580
" />
<path d="M0.8800 0.5290
L0.8770 0.5240
" />
<path d="M0.8800 0.6580
L0.8830 0.6530
" />
<path d="M0.8830 0.5340
L0.8800 0.5290
" />
<path d="M0.8830 0.6530
L0.8870 0.6480
" />
<path d="M0.8870 0.5390
L0.8830 0.5340
" />
<path d="M0.8870 0.6480
L0.8900 0.6420
" />
<path d="M0.8900 0.5450
L0.8870 0.5390
" />
<path d="M0.8900 0.6420
L0.8920 0.6370
" />
<path d="M0.8920 0.5510
L0.8900 0.5450
" />
<path d="M0.8920 0.6370
L0.8940 0.6320
" />
<path d="M0.8940 0.5560
L0.8920 0.5510
" />
<path d="M0.8940 0.6320
L0.8960 0.6260
" />
<path d="M0.8960 0.5620
L0.8940 0.5560
" />
<path d="M0.8960 0.6260
L0.8970 0.6200
" />
<path d="M0.8970 0.5680
L0.8960 0.5620
" />
<path d="M0.8970 0.6200
L0.8980 0.6140
" />
<path d="M0.8980 0.5740
L0.8970 0.5680
" />
<path d="M0.8980 0.6140
L0.8990 0.6070
" />
<path d="M0.8990 0.5820
L0.8980 0.5740
" />
<path d="M0.8990 0.5880
L0.8990 0.5820
" />
<path d="M0.8990 0.6010
L0.9000 0.5950
" />
<path d="M0.8990 0.6070
L0.8990 0.6010
" />
<path d="M0.9000 0.5950
L0.8990 0.5880
" />
</g>
<g style="fill:#000000; fill-opacity:1.0000; stroke:none;">
<circle cx="0.9000" cy="0.5950" r="0.0100" /> 
<circle cx="0.9000" cy="0.5950" r="0.0100" /> 
</g>
<g style="fill:none; 
stroke:#000000; stroke-width:0.0200; stroke-opacity:1; 
stroke-linecap:round; stroke-linejoin:round;">
<path d="M1.4000 0.2940
L1.6480 0.2940
" />
<path d="M1.4000 0.3450
L1.4000 0.2940
" />
<path d="M1.4000 2.3950
L1.4000 2.3430
" />
<path d="M1.4000 2.3950
L1.6480 2.3950
" />
<path d="M1.6480 0.3450
L1.6480 0.2940
" />
<path d="M1.6480 2.3950
L1.6480 2.3430
" />
<path d="M2.5230 0.4700
L2.5750 0.4700
" />
<path d="M2.5230 0.7200
L2.5750 0.7200
" />
<path d="M2.5230 0.9700
L2.5750 0.9700
" />
<path d="M2.5230 1.2200
L2.5750 1.2200
" />
<path d="M2.5230 1.4680
L2.5750 1.4680
" />
<path d="M2.5230 1.7180
L2.5750 1.7180
" />
<path d="M2.5230 1.9680
L2.5750 1.9680
" />
<path d="M2.5230 2.2180
L2.5750 2.2180
" />
<path d="M2.5230 2.3430
L2.5230 0.3450
" />
<path d="M2.5750 0.7200
L2.5750 0.4700
" />
<path d="M2.5750 1.2200
L2.5750 0.9700
" />
<path d="M2.5750 1.7180
L2.5750 1.4680
" />
<path d="M2.5750 2.2180
L2.5750 1.9680
" />
</g> 
</svg>
