<?xml version="1.0" standalone="no"?>
 <!DOCTYPE svg PUBLIC "-//W3C//DTD SVG 1.1//EN" 
 "http://www.w3.org/Graphics/SVG/1.1/DTD/svg11.dtd"> 
<svg
  xmlns:svg="http://www.w3.org/2000/svg"
  xmlns="http://www.w3.org/2000/svg"
  xmlns:xlink="http://www.w3.org/1999/xlink"
  version="1.1"
  width="4.1910mm" height="5.9436mm" viewBox="0.0000 0.0000 4.1910 5.9436">
<title>SVG Image created as outline.svg date 2025/06/16 09:17:52 </title>
  <desc>Image generated by PCBNEW </desc>
<g style="fill:#000000; fill-opacity:1.0000;stroke:#000000; stroke-opacity:1.0000;
stroke-linecap:round; stroke-linejoin:round;"
 transform="translate(0 0) scale(1 1)">
</g>
<g style="fill:none; 
stroke:#000000; stroke-width:0.0200; stroke-opacity:1; 
stroke-linecap:round; stroke-linejoin:round;">
<path d="M0.3000 2.5500
L0.3000 2.4000
" />
<path d="M0.3000 3.5500
L0.3000 3.4000
" />
<path d="M0.3010 2.4000
L0.3000 2.4000
" />
<path d="M0.3010 2.5500
L0.3000 2.5500
" />
<path d="M0.3010 3.4000
L0.3000 3.4000
" />
<path d="M0.3010 3.5500
L0.3000 3.5500
" />
<path d="M0.3020 2.4000
L0.3010 2.4000
" />
<path d="M0.3020 2.5500
L0.3010 2.5500
" />
<path d="M0.3020 3.4000
L0.3010 3.4000
" />
<path d="M0.3020 3.5500
L0.3010 3.5500
" />
<path d="M0.3050 2.4000
L0.3020 2.4000
" />
<path d="M0.3050 2.5500
L0.3020 2.5500
" />
<path d="M0.3050 3.4000
L0.3020 3.4000
" />
<path d="M0.3050 3.5500
L0.3020 3.5500
" />
<path d="M0.3090 2.4000
L0.3050 2.4000
" />
<path d="M0.3090 2.5500
L0.3050 2.5500
" />
<path d="M0.3090 3.4000
L0.3050 3.4000
" />
<path d="M0.3090 3.5500
L0.3050 3.5500
" />
<path d="M0.3140 2.4000
L0.3090 2.4000
" />
<path d="M0.3140 2.5500
L0.3090 2.5500
" />
<path d="M0.3140 3.4000
L0.3090 3.4000
" />
<path d="M0.3140 3.5500
L0.3090 3.5500
" />
<path d="M0.3200 2.4000
L0.3140 2.4000
" />
<path d="M0.3200 2.5500
L0.3140 2.5500
" />
<path d="M0.3200 3.4000
L0.3140 3.4000
" />
<path d="M0.3200 3.5500
L0.3140 3.5500
" />
<path d="M0.3260 2.4000
L0.3200 2.4000
" />
<path d="M0.3260 2.5500
L0.3200 2.5500
" />
<path d="M0.3260 3.4000
L0.3200 3.4000
" />
<path d="M0.3260 3.5500
L0.3200 3.5500
" />
<path d="M0.3340 2.4000
L0.3260 2.4000
" />
<path d="M0.3340 2.5500
L0.3260 2.5500
" />
<path d="M0.3340 3.4000
L0.3260 3.4000
" />
<path d="M0.3340 3.5500
L0.3260 3.5500
" />
<path d="M0.3420 2.4000
L0.3340 2.4000
" />
<path d="M0.3420 2.5500
L0.3340 2.5500
" />
<path d="M0.3420 3.4000
L0.3340 3.4000
" />
<path d="M0.3420 3.5500
L0.3340 3.5500
" />
<path d="M0.3510 2.4000
L0.3420 2.4000
" />
<path d="M0.3510 2.5500
L0.3420 2.5500
" />
<path d="M0.3510 3.4000
L0.3420 3.4000
" />
<path d="M0.3510 3.5500
L0.3420 3.5500
" />
<path d="M0.3600 2.4000
L0.3510 2.4000
" />
<path d="M0.3600 2.5500
L0.3510 2.5500
" />
<path d="M0.3600 3.4000
L0.3510 3.4000
" />
<path d="M0.3600 3.5500
L0.3510 3.5500
" />
<path d="M0.3700 2.4000
L0.3600 2.4000
" />
<path d="M0.3700 2.5500
L0.3600 2.5500
" />
<path d="M0.3700 3.4000
L0.3600 3.4000
" />
<path d="M0.3700 3.5500
L0.3600 3.5500
" />
<path d="M0.3800 2.4000
L0.3700 2.4000
" />
<path d="M0.3800 2.5500
L0.3700 2.5500
" />
<path d="M0.3800 3.4000
L0.3700 3.4000
" />
<path d="M0.3800 3.5500
L0.3700 3.5500
" />
<path d="M0.3900 2.4000
L0.3800 2.4000
" />
<path d="M0.3900 2.5500
L0.3800 2.5500
" />
<path d="M0.3900 2.5500
L0.3900 2.4000
" />
<path d="M0.3900 3.4000
L0.3800 3.4000
" />
<path d="M0.3900 3.5500
L0.3800 3.5500
" />
<path d="M0.3900 3.5500
L0.3900 3.4000
" />
<path d="M0.8130 2.4000
L0.3900 2.4000
" />
<path d="M0.8130 2.5500
L0.3900 2.5500
" />
<path d="M0.8130 2.5500
L0.8130 2.4000
" />
<path d="M0.8130 3.4000
L0.3900 3.4000
" />
<path d="M0.8130 3.5500
L0.3900 3.5500
" />
<path d="M0.8130 3.5500
L0.8130 3.4000
" />
<path d="M1.0000 2.4000
L0.8130 2.4000
" />
<path d="M1.0000 2.5500
L0.8130 2.5500
" />
<path d="M1.0000 3.4000
L0.8130 3.4000
" />
<path d="M1.0000 3.5500
L0.8130 3.5500
" />
<path d="M1.0000 4.1750
L1.0000 1.7750
" />
<path d="M1.1200 0.9750
L1.5000 0.9750
" />
<path d="M1.1200 1.4750
L1.1200 0.9750
" />
<path d="M1.1200 1.7750
L1.0000 1.7750
" />
<path d="M1.1200 1.7750
L1.1200 1.4750
" />
<path d="M1.1200 4.1750
L1.0000 4.1750
" />
<path d="M1.1200 4.1750
L1.1200 4.4750
" />
<path d="M1.1200 4.4750
L1.1200 4.9750
" />
<path d="M1.1200 4.9750
L1.5000 4.9750
" />
<path d="M1.2450 1.2250
L1.2450 1.4750
" />
<path d="M1.2450 4.4750
L1.2450 4.7250
" />
<path d="M1.2450 4.7250
L1.5000 4.7250
" />
<path d="M1.2700 1.6250
L2.4500 1.6250
" />
<path d="M1.2700 4.3250
L1.2700 1.6250
" />
<path d="M1.3700 1.7250
L1.2700 1.6250
" />
<path d="M1.3700 1.7250
L1.3700 4.2250
" />
<path d="M1.3700 4.2250
L1.2700 4.3250
" />
<path d="M1.3700 4.2250
L2.5500 4.2250
" />
<path d="M1.5000 0.9750
L1.6000 0.9750
" />
<path d="M1.5000 1.2250
L1.2450 1.2250
" />
<path d="M1.5000 1.4750
L1.5000 0.9750
" />
<path d="M1.5000 4.4750
L1.5000 4.9750
" />
<path d="M1.5000 4.9750
L1.6000 4.9750
" />
<path d="M1.6000 0.9750
L2.2000 0.9750
" />
<path d="M1.6000 1.4750
L1.6000 0.9750
" />
<path d="M1.6000 4.4750
L1.6000 4.9750
" />
<path d="M1.6000 4.9750
L2.2000 4.9750
" />
<path d="M1.7700 1.9000
L1.7700 2.0500
" />
<path d="M1.7700 2.4000
L1.7700 2.5500
" />
<path d="M1.7700 2.5500
L2.0700 2.5500
" />
<path d="M1.7700 3.4000
L1.7700 3.5500
" />
<path d="M1.7700 3.5500
L2.0700 3.5500
" />
<path d="M1.7700 3.9000
L1.7700 4.0500
" />
<path d="M1.9000 1.2250
L1.9000 1.4750
" />
<path d="M1.9000 4.4750
L1.9000 4.7250
" />
<path d="M1.9000 4.7250
L2.2000 4.7250
" />
<path d="M2.0700 1.9000
L1.7700 1.9000
" />
<path d="M2.0700 1.9000
L2.0700 2.0500
" />
<path d="M2.0700 2.0500
L1.7700 2.0500
" />
<path d="M2.0700 2.4000
L1.7700 2.4000
" />
<path d="M2.0700 2.5500
L2.0700 2.4000
" />
<path d="M2.0700 3.4000
L1.7700 3.4000
" />
<path d="M2.0700 3.5500
L2.0700 3.4000
" />
<path d="M2.0700 3.9000
L1.7700 3.9000
" />
<path d="M2.0700 3.9000
L2.0700 4.0500
" />
<path d="M2.0700 4.0500
L1.7700 4.0500
" />
<path d="M2.2000 0.9750
L2.3000 0.9750
" />
<path d="M2.2000 1.2250
L1.9000 1.2250
" />
<path d="M2.2000 1.4750
L2.2000 0.9750
" />
<path d="M2.2000 4.4750
L2.2000 4.9750
" />
<path d="M2.2000 4.9750
L2.3000 4.9750
" />
<path d="M2.3000 1.4750
L1.1200 1.4750
" />
<path d="M2.3000 1.4750
L2.3000 0.9750
" />
<path d="M2.3000 4.4750
L1.1200 4.4750
" />
<path d="M2.3000 4.4750
L2.3000 4.9750
" />
<path d="M2.4500 1.2750
L2.5500 1.3750
" />
<path d="M2.4500 1.2750
L3.2500 1.2750
" />
<path d="M2.4500 1.6250
L2.4500 1.2750
" />
<path d="M2.4500 1.6250
L2.5500 1.7250
" />
<path d="M2.4500 4.3250
L1.2700 4.3250
" />
<path d="M2.4500 4.6750
L2.4500 4.3250
" />
<path d="M2.5500 1.3750
L2.5500 1.7250
" />
<path d="M2.5500 1.7250
L1.3700 1.7250
" />
<path d="M2.5500 1.7250
L3.1500 1.7250
" />
<path d="M2.5500 4.2250
L2.4500 4.3250
" />
<path d="M2.5500 4.2250
L2.5500 4.5750
" />
<path d="M2.5500 4.5750
L2.4500 4.6750
" />
<path d="M2.5500 4.5750
L3.1500 4.5750
" />
<path d="M2.8700 2.4000
L2.9060 2.4360
" />
<path d="M2.8700 2.4000
L3.1700 2.4000
" />
<path d="M2.8700 2.5500
L2.8700 2.4000
" />
<path d="M2.8700 3.4000
L2.9060 3.4360
" />
<path d="M2.8700 3.4000
L3.1700 3.4000
" />
<path d="M2.8700 3.5500
L2.8700 3.4000
" />
<path d="M2.9060 2.4360
L2.9060 2.5140
" />
<path d="M2.9060 2.5140
L2.8700 2.5500
" />
<path d="M2.9060 2.5140
L3.1340 2.5140
" />
<path d="M2.9060 3.4360
L2.9060 3.5140
" />
<path d="M2.9060 3.5140
L2.8700 3.5500
" />
<path d="M2.9060 3.5140
L3.1340 3.5140
" />
<path d="M3.1340 2.4360
L2.9060 2.4360
" />
<path d="M3.1340 2.5140
L3.1340 2.4360
" />
<path d="M3.1340 2.5140
L3.1700 2.5500
" />
<path d="M3.1340 3.4360
L2.9060 3.4360
" />
<path d="M3.1340 3.5140
L3.1340 3.4360
" />
<path d="M3.1340 3.5140
L3.1700 3.5500
" />
<path d="M3.1500 1.3750
L2.5500 1.3750
" />
<path d="M3.1500 1.7250
L3.1500 1.3750
" />
<path d="M3.1500 4.2250
L2.5500 4.2250
" />
<path d="M3.1500 4.2250
L3.2500 4.3250
" />
<path d="M3.1500 4.2250
L3.6500 4.2250
" />
<path d="M3.1500 4.5750
L3.1500 4.2250
" />
<path d="M3.1500 4.5750
L3.2500 4.6750
" />
<path d="M3.1700 2.4000
L3.1340 2.4360
" />
<path d="M3.1700 2.4000
L3.1700 2.5500
" />
<path d="M3.1700 2.5500
L2.8700 2.5500
" />
<path d="M3.1700 3.4000
L3.1340 3.4360
" />
<path d="M3.1700 3.4000
L3.1700 3.5500
" />
<path d="M3.1700 3.5500
L2.8700 3.5500
" />
<path d="M3.2500 1.2750
L3.1500 1.3750
" />
<path d="M3.2500 1.2750
L3.2500 1.6250
" />
<path d="M3.2500 1.6250
L3.1500 1.7250
" />
<path d="M3.2500 1.6250
L3.7500 1.6250
" />
<path d="M3.2500 4.3250
L3.2500 4.6750
" />
<path d="M3.2500 4.6750
L2.4500 4.6750
" />
<path d="M3.6500 1.7250
L3.1500 1.7250
" />
<path d="M3.6500 4.2250
L3.6500 1.7250
" />
<path d="M3.7000 0.9750
L2.3000 0.9750
" />
<path d="M3.7000 1.2250
L3.7000 0.9750
" />
<path d="M3.7000 4.7250
L3.7000 4.9750
" />
<path d="M3.7000 4.9750
L2.3000 4.9750
" />
<path d="M3.7500 1.6250
L3.6500 1.7250
" />
<path d="M3.7500 1.6250
L3.7500 4.3250
" />
<path d="M3.7500 4.3250
L3.2500 4.3250
" />
<path d="M3.7500 4.3250
L3.6500 4.2250
" />
<path d="M3.9000 1.2250
L3.7000 1.2250
" />
<path d="M3.9000 4.7250
L3.7000 4.7250
" />
<path d="M3.9000 4.7250
L3.9000 1.2250
" />
</g> 
</svg>
