<?xml version="1.0" standalone="no"?>
 <!DOCTYPE svg PUBLIC "-//W3C//DTD SVG 1.1//EN" 
 "http://www.w3.org/Graphics/SVG/1.1/DTD/svg11.dtd"> 
<svg
  xmlns:svg="http://www.w3.org/2000/svg"
  xmlns="http://www.w3.org/2000/svg"
  xmlns:xlink="http://www.w3.org/1999/xlink"
  version="1.1"
  width="7.8486mm" height="7.8486mm" viewBox="0.0000 0.0000 7.8486 7.8486">
<title>SVG Image created as outline.svg date 2025/04/04 10:06:36 </title>
  <desc>Image generated by PCBNEW </desc>
<g style="fill:#000000; fill-opacity:1.0000;stroke:#000000; stroke-opacity:1.0000;
stroke-linecap:round; stroke-linejoin:round;"
 transform="translate(0 0) scale(1 1)">
</g>
<g style="fill:none; 
stroke:#000000; stroke-width:0.0200; stroke-opacity:1; 
stroke-linecap:round; stroke-linejoin:round;">
<path d="M0.4250 1.0250
L0.4250 1.2250
" />
<path d="M0.4250 1.2250
L0.4350 1.2250
" />
<path d="M0.4250 1.4250
L0.4250 1.6250
" />
<path d="M0.4250 1.6250
L0.4350 1.6250
" />
<path d="M0.4250 1.8250
L0.4250 2.0250
" />
<path d="M0.4250 2.0250
L0.4350 2.0250
" />
<path d="M0.4250 2.2250
L0.4250 2.4250
" />
<path d="M0.4250 2.4250
L0.4350 2.4250
" />
<path d="M0.4250 2.6250
L0.4250 2.8250
" />
<path d="M0.4250 2.8250
L0.4350 2.8250
" />
<path d="M0.4250 3.0250
L0.4250 3.2250
" />
<path d="M0.4250 3.2250
L0.4350 3.2250
" />
<path d="M0.4250 3.4250
L0.4250 3.6250
" />
<path d="M0.4250 3.6250
L0.4350 3.6250
" />
<path d="M0.4250 3.8250
L0.4250 4.0250
" />
<path d="M0.4250 4.0250
L0.4350 4.0250
" />
<path d="M0.4250 4.2250
L0.4250 4.4250
" />
<path d="M0.4250 4.4250
L0.4350 4.4250
" />
<path d="M0.4250 4.6250
L0.4250 4.8250
" />
<path d="M0.4250 4.8250
L0.4350 4.8250
" />
<path d="M0.4250 5.0250
L0.4250 5.2250
" />
<path d="M0.4250 5.2250
L0.4350 5.2250
" />
<path d="M0.4250 5.4250
L0.4250 5.6250
" />
<path d="M0.4250 5.6250
L0.4350 5.6250
" />
<path d="M0.4250 5.8250
L0.4250 6.0250
" />
<path d="M0.4250 6.0250
L0.4350 6.0250
" />
<path d="M0.4250 6.2250
L0.4250 6.4250
" />
<path d="M0.4250 6.4250
L0.4350 6.4250
" />
<path d="M0.4250 6.6250
L0.4250 6.8250
" />
<path d="M0.4250 6.8250
L0.4350 6.8250
" />
<path d="M0.4350 0.4350
L0.4350 7.4150
" />
<path d="M0.4350 0.4350
L7.4150 0.4350
" />
<path d="M0.4350 1.0250
L0.4250 1.0250
" />
<path d="M0.4350 1.4250
L0.4250 1.4250
" />
<path d="M0.4350 1.8250
L0.4250 1.8250
" />
<path d="M0.4350 2.2250
L0.4250 2.2250
" />
<path d="M0.4350 2.6250
L0.4250 2.6250
" />
<path d="M0.4350 3.0250
L0.4250 3.0250
" />
<path d="M0.4350 3.4250
L0.4250 3.4250
" />
<path d="M0.4350 3.8250
L0.4250 3.8250
" />
<path d="M0.4350 4.2250
L0.4250 4.2250
" />
<path d="M0.4350 4.6250
L0.4250 4.6250
" />
<path d="M0.4350 5.0250
L0.4250 5.0250
" />
<path d="M0.4350 5.4250
L0.4250 5.4250
" />
<path d="M0.4350 5.8250
L0.4250 5.8250
" />
<path d="M0.4350 6.2250
L0.4250 6.2250
" />
<path d="M0.4350 6.6250
L0.4250 6.6250
" />
<path d="M0.4350 7.4150
L7.4150 7.4150
" />
<path d="M1.0250 0.4250
L1.0250 0.4350
" />
<path d="M1.0250 7.4150
L1.0250 7.4250
" />
<path d="M1.0250 7.4250
L1.2250 7.4250
" />
<path d="M1.1250 1.1630
L1.1310 1.1150
" />
<path d="M1.1270 1.2110
L1.1250 1.1630
" />
<path d="M1.1310 1.1150
L1.1440 1.0690
" />
<path d="M1.1370 1.2580
L1.1270 1.2110
" />
<path d="M1.1440 1.0690
L1.1650 1.0250
" />
<path d="M1.1540 1.3040
L1.1370 1.2580
" />
<path d="M1.1650 1.0250
L1.1930 0.9850
" />
<path d="M1.1780 1.3450
L1.1540 1.3040
" />
<path d="M1.1930 0.9850
L1.2260 0.9500
" />
<path d="M1.2090 1.3830
L1.1780 1.3450
" />
<path d="M1.2250 0.4250
L1.0250 0.4250
" />
<path d="M1.2250 0.4350
L1.2250 0.4250
" />
<path d="M1.2250 7.4250
L1.2250 7.4150
" />
<path d="M1.2260 0.9500
L1.2650 0.9210
" />
<path d="M1.2450 1.4150
L1.2090 1.3830
" />
<path d="M1.2650 0.9210
L1.3070 0.8990
" />
<path d="M1.2860 1.4410
L1.2450 1.4150
" />
<path d="M1.3070 0.8990
L1.3530 0.8840
" />
<path d="M1.3300 1.4600
L1.2860 1.4410
" />
<path d="M1.3530 0.8840
L1.4010 0.8760
" />
<path d="M1.3770 1.4710
L1.3300 1.4600
" />
<path d="M1.4010 0.8760
L1.4490 0.8760
" />
<path d="M1.4250 0.4250
L1.4250 0.4350
" />
<path d="M1.4250 1.4750
L1.3770 1.4710
" />
<path d="M1.4250 7.4150
L1.4250 7.4250
" />
<path d="M1.4250 7.4250
L1.6250 7.4250
" />
<path d="M1.4490 0.8760
L1.4970 0.8840
" />
<path d="M1.4730 1.4710
L1.4250 1.4750
" />
<path d="M1.4970 0.8840
L1.5430 0.8990
" />
<path d="M1.5200 1.4600
L1.4730 1.4710
" />
<path d="M1.5430 0.8990
L1.5850 0.9210
" />
<path d="M1.5640 1.4410
L1.5200 1.4600
" />
<path d="M1.5850 0.9210
L1.6240 0.9500
" />
<path d="M1.6050 1.4150
L1.5640 1.4410
" />
<path d="M1.6240 0.9500
L1.6570 0.9850
" />
<path d="M1.6250 0.4250
L1.4250 0.4250
" />
<path d="M1.6250 0.4350
L1.6250 0.4250
" />
<path d="M1.6250 7.4250
L1.6250 7.4150
" />
<path d="M1.6410 1.3830
L1.6050 1.4150
" />
<path d="M1.6570 0.9850
L1.6850 1.0250
" />
<path d="M1.6720 1.3450
L1.6410 1.3830
" />
<path d="M1.6850 1.0250
L1.7060 1.0690
" />
<path d="M1.6960 1.3040
L1.6720 1.3450
" />
<path d="M1.7060 1.0690
L1.7190 1.1150
" />
<path d="M1.7130 1.2580
L1.6960 1.3040
" />
<path d="M1.7190 1.1150
L1.7250 1.1630
" />
<path d="M1.7230 1.2110
L1.7130 1.2580
" />
<path d="M1.7250 1.1630
L1.7230 1.2110
" />
<path d="M1.8250 0.4250
L1.8250 0.4350
" />
<path d="M1.8250 7.4150
L1.8250 7.4250
" />
<path d="M1.8250 7.4250
L2.0250 7.4250
" />
<path d="M2.0250 0.4250
L1.8250 0.4250
" />
<path d="M2.0250 0.4350
L2.0250 0.4250
" />
<path d="M2.0250 7.4250
L2.0250 7.4150
" />
<path d="M2.2250 0.4250
L2.2250 0.4350
" />
<path d="M2.2250 7.4150
L2.2250 7.4250
" />
<path d="M2.2250 7.4250
L2.4250 7.4250
" />
<path d="M2.4250 0.4250
L2.2250 0.4250
" />
<path d="M2.4250 0.4350
L2.4250 0.4250
" />
<path d="M2.4250 7.4250
L2.4250 7.4150
" />
<path d="M2.6250 0.4250
L2.6250 0.4350
" />
<path d="M2.6250 7.4150
L2.6250 7.4250
" />
<path d="M2.6250 7.4250
L2.8250 7.4250
" />
<path d="M2.8250 0.4250
L2.6250 0.4250
" />
<path d="M2.8250 0.4350
L2.8250 0.4250
" />
<path d="M2.8250 7.4250
L2.8250 7.4150
" />
<path d="M3.0250 0.4250
L3.0250 0.4350
" />
<path d="M3.0250 7.4150
L3.0250 7.4250
" />
<path d="M3.0250 7.4250
L3.2250 7.4250
" />
<path d="M3.2250 0.4250
L3.0250 0.4250
" />
<path d="M3.2250 0.4350
L3.2250 0.4250
" />
<path d="M3.2250 7.4250
L3.2250 7.4150
" />
<path d="M3.4250 0.4250
L3.4250 0.4350
" />
<path d="M3.4250 7.4150
L3.4250 7.4250
" />
<path d="M3.4250 7.4250
L3.6250 7.4250
" />
<path d="M3.6250 0.4250
L3.4250 0.4250
" />
<path d="M3.6250 0.4350
L3.6250 0.4250
" />
<path d="M3.6250 7.4250
L3.6250 7.4150
" />
<path d="M3.8250 0.4250
L3.8250 0.4350
" />
<path d="M3.8250 7.4150
L3.8250 7.4250
" />
<path d="M3.8250 7.4250
L4.0250 7.4250
" />
<path d="M4.0250 0.4250
L3.8250 0.4250
" />
<path d="M4.0250 0.4350
L4.0250 0.4250
" />
<path d="M4.0250 7.4250
L4.0250 7.4150
" />
<path d="M4.2250 0.4250
L4.2250 0.4350
" />
<path d="M4.2250 7.4150
L4.2250 7.4250
" />
<path d="M4.2250 7.4250
L4.4250 7.4250
" />
<path d="M4.4250 0.4250
L4.2250 0.4250
" />
<path d="M4.4250 0.4350
L4.4250 0.4250
" />
<path d="M4.4250 7.4250
L4.4250 7.4150
" />
<path d="M4.6250 0.4250
L4.6250 0.4350
" />
<path d="M4.6250 7.4150
L4.6250 7.4250
" />
<path d="M4.6250 7.4250
L4.8250 7.4250
" />
<path d="M4.8250 0.4250
L4.6250 0.4250
" />
<path d="M4.8250 0.4350
L4.8250 0.4250
" />
<path d="M4.8250 7.4250
L4.8250 7.4150
" />
<path d="M5.0250 0.4250
L5.0250 0.4350
" />
<path d="M5.0250 7.4150
L5.0250 7.4250
" />
<path d="M5.0250 7.4250
L5.2250 7.4250
" />
<path d="M5.2250 0.4250
L5.0250 0.4250
" />
<path d="M5.2250 0.4350
L5.2250 0.4250
" />
<path d="M5.2250 7.4250
L5.2250 7.4150
" />
<path d="M5.4250 0.4250
L5.4250 0.4350
" />
<path d="M5.4250 7.4150
L5.4250 7.4250
" />
<path d="M5.4250 7.4250
L5.6250 7.4250
" />
<path d="M5.6250 0.4250
L5.4250 0.4250
" />
<path d="M5.6250 0.4350
L5.6250 0.4250
" />
<path d="M5.6250 7.4250
L5.6250 7.4150
" />
<path d="M5.8250 0.4250
L5.8250 0.4350
" />
<path d="M5.8250 7.4150
L5.8250 7.4250
" />
<path d="M5.8250 7.4250
L6.0250 7.4250
" />
<path d="M6.0250 0.4250
L5.8250 0.4250
" />
<path d="M6.0250 0.4350
L6.0250 0.4250
" />
<path d="M6.0250 7.4250
L6.0250 7.4150
" />
<path d="M6.2250 0.4250
L6.2250 0.4350
" />
<path d="M6.2250 7.4150
L6.2250 7.4250
" />
<path d="M6.2250 7.4250
L6.4250 7.4250
" />
<path d="M6.4250 0.4250
L6.2250 0.4250
" />
<path d="M6.4250 0.4350
L6.4250 0.4250
" />
<path d="M6.4250 7.4250
L6.4250 7.4150
" />
<path d="M6.6250 0.4250
L6.6250 0.4350
" />
<path d="M6.6250 7.4150
L6.6250 7.4250
" />
<path d="M6.6250 7.4250
L6.8250 7.4250
" />
<path d="M6.8250 0.4250
L6.6250 0.4250
" />
<path d="M6.8250 0.4350
L6.8250 0.4250
" />
<path d="M6.8250 7.4250
L6.8250 7.4150
" />
<path d="M7.4150 0.4350
L7.4150 7.4150
" />
<path d="M7.4150 1.2250
L7.4250 1.2250
" />
<path d="M7.4150 1.6250
L7.4250 1.6250
" />
<path d="M7.4150 2.0250
L7.4250 2.0250
" />
<path d="M7.4150 2.4250
L7.4250 2.4250
" />
<path d="M7.4150 2.8250
L7.4250 2.8250
" />
<path d="M7.4150 3.2250
L7.4250 3.2250
" />
<path d="M7.4150 3.6250
L7.4250 3.6250
" />
<path d="M7.4150 4.0250
L7.4250 4.0250
" />
<path d="M7.4150 4.4250
L7.4250 4.4250
" />
<path d="M7.4150 4.8250
L7.4250 4.8250
" />
<path d="M7.4150 5.2250
L7.4250 5.2250
" />
<path d="M7.4150 5.6250
L7.4250 5.6250
" />
<path d="M7.4150 6.0250
L7.4250 6.0250
" />
<path d="M7.4150 6.4250
L7.4250 6.4250
" />
<path d="M7.4150 6.8250
L7.4250 6.8250
" />
<path d="M7.4250 1.0250
L7.4150 1.0250
" />
<path d="M7.4250 1.2250
L7.4250 1.0250
" />
<path d="M7.4250 1.4250
L7.4150 1.4250
" />
<path d="M7.4250 1.6250
L7.4250 1.4250
" />
<path d="M7.4250 1.8250
L7.4150 1.8250
" />
<path d="M7.4250 2.0250
L7.4250 1.8250
" />
<path d="M7.4250 2.2250
L7.4150 2.2250
" />
<path d="M7.4250 2.4250
L7.4250 2.2250
" />
<path d="M7.4250 2.6250
L7.4150 2.6250
" />
<path d="M7.4250 2.8250
L7.4250 2.6250
" />
<path d="M7.4250 3.0250
L7.4150 3.0250
" />
<path d="M7.4250 3.2250
L7.4250 3.0250
" />
<path d="M7.4250 3.4250
L7.4150 3.4250
" />
<path d="M7.4250 3.6250
L7.4250 3.4250
" />
<path d="M7.4250 3.8250
L7.4150 3.8250
" />
<path d="M7.4250 4.0250
L7.4250 3.8250
" />
<path d="M7.4250 4.2250
L7.4150 4.2250
" />
<path d="M7.4250 4.4250
L7.4250 4.2250
" />
<path d="M7.4250 4.6250
L7.4150 4.6250
" />
<path d="M7.4250 4.8250
L7.4250 4.6250
" />
<path d="M7.4250 5.0250
L7.4150 5.0250
" />
<path d="M7.4250 5.2250
L7.4250 5.0250
" />
<path d="M7.4250 5.4250
L7.4150 5.4250
" />
<path d="M7.4250 5.6250
L7.4250 5.4250
" />
<path d="M7.4250 5.8250
L7.4150 5.8250
" />
<path d="M7.4250 6.0250
L7.4250 5.8250
" />
<path d="M7.4250 6.2250
L7.4150 6.2250
" />
<path d="M7.4250 6.4250
L7.4250 6.2250
" />
<path d="M7.4250 6.6250
L7.4150 6.6250
" />
<path d="M7.4250 6.8250
L7.4250 6.6250
" />
</g> 
</svg>
