<?xml version="1.0" standalone="no"?>
 <!DOCTYPE svg PUBLIC "-//W3C//DTD SVG 1.1//EN" 
 "http://www.w3.org/Graphics/SVG/1.1/DTD/svg11.dtd"> 
<svg
  xmlns:svg="http://www.w3.org/2000/svg"
  xmlns="http://www.w3.org/2000/svg"
  xmlns:xlink="http://www.w3.org/1999/xlink"
  version="1.1"
  width="3.7846mm" height="2.1844mm" viewBox="0.0000 0.0000 3.7846 2.1844">
<title>SVG Image created as outline.svg date 2025/06/16 09:17:52 </title>
  <desc>Image generated by PCBNEW </desc>
<g style="fill:#000000; fill-opacity:1.0000;stroke:#000000; stroke-opacity:1.0000;
stroke-linecap:round; stroke-linejoin:round;"
 transform="translate(0 0) scale(1 1)">
</g>
<g style="fill:none; 
stroke:#000000; stroke-width:0.0200; stroke-opacity:1; 
stroke-linecap:round; stroke-linejoin:round;">
<path d="M0.2810 0.2710
L0.2810 1.7200
" />
<path d="M0.2810 1.8200
L0.2810 1.7200
" />
<path d="M0.2810 1.9190
L0.2810 1.8200
" />
<path d="M0.2810 1.9190
L0.6610 1.9190
" />
<path d="M0.2860 0.2710
L0.2810 0.2710
" />
</g>
<g style="fill:#000000; fill-opacity:1.0000; stroke:none;">
<circle cx="0.2860" cy="0.2710" r="0.0100" /> 
</g>
<g style="fill:none; 
stroke:#000000; stroke-width:0.0200; stroke-opacity:1; 
stroke-linecap:round; stroke-linejoin:round;">
<path d="M0.2860 1.7200
L0.2810 1.7200
" />
</g>
<g style="fill:#000000; fill-opacity:1.0000; stroke:none;">
<circle cx="0.2860" cy="1.7200" r="0.0100" /> 
</g>
<g style="fill:none; 
stroke:#000000; stroke-width:0.0200; stroke-opacity:1; 
stroke-linecap:round; stroke-linejoin:round;">
<path d="M0.3010 0.2710
L0.2860 0.2710
" />
</g>
<g style="fill:#000000; fill-opacity:1.0000; stroke:none;">
<circle cx="0.3010" cy="0.2710" r="0.0100" /> 
</g>
<g style="fill:none; 
stroke:#000000; stroke-width:0.0200; stroke-opacity:1; 
stroke-linecap:round; stroke-linejoin:round;">
<path d="M0.3010 1.7200
L0.2860 1.7200
" />
</g>
<g style="fill:#000000; fill-opacity:1.0000; stroke:none;">
<circle cx="0.3010" cy="1.7200" r="0.0100" /> 
</g>
<g style="fill:none; 
stroke:#000000; stroke-width:0.0200; stroke-opacity:1; 
stroke-linecap:round; stroke-linejoin:round;">
<path d="M0.3240 0.2710
L0.3010 0.2710
" />
</g>
<g style="fill:#000000; fill-opacity:1.0000; stroke:none;">
<circle cx="0.3240" cy="0.2710" r="0.0100" /> 
</g>
<g style="fill:none; 
stroke:#000000; stroke-width:0.0200; stroke-opacity:1; 
stroke-linecap:round; stroke-linejoin:round;">
<path d="M0.3240 1.7200
L0.3010 1.7200
" />
</g>
<g style="fill:#000000; fill-opacity:1.0000; stroke:none;">
<circle cx="0.3240" cy="1.7200" r="0.0100" /> 
</g>
<g style="fill:none; 
stroke:#000000; stroke-width:0.0200; stroke-opacity:1; 
stroke-linecap:round; stroke-linejoin:round;">
<path d="M0.3570 0.2710
L0.3240 0.2710
" />
</g>
<g style="fill:#000000; fill-opacity:1.0000; stroke:none;">
<circle cx="0.3570" cy="0.2710" r="0.0100" /> 
</g>
<g style="fill:none; 
stroke:#000000; stroke-width:0.0200; stroke-opacity:1; 
stroke-linecap:round; stroke-linejoin:round;">
<path d="M0.3570 1.7200
L0.3240 1.7200
" />
</g>
<g style="fill:#000000; fill-opacity:1.0000; stroke:none;">
<circle cx="0.3570" cy="1.7200" r="0.0100" /> 
</g>
<g style="fill:none; 
stroke:#000000; stroke-width:0.0200; stroke-opacity:1; 
stroke-linecap:round; stroke-linejoin:round;">
<path d="M0.3980 0.2710
L0.3570 0.2710
" />
</g>
<g style="fill:#000000; fill-opacity:1.0000; stroke:none;">
<circle cx="0.3980" cy="0.2710" r="0.0100" /> 
</g>
<g style="fill:none; 
stroke:#000000; stroke-width:0.0200; stroke-opacity:1; 
stroke-linecap:round; stroke-linejoin:round;">
<path d="M0.3980 1.7200
L0.3570 1.7200
" />
</g>
<g style="fill:#000000; fill-opacity:1.0000; stroke:none;">
<circle cx="0.3980" cy="1.7200" r="0.0100" /> 
</g>
<g style="fill:none; 
stroke:#000000; stroke-width:0.0200; stroke-opacity:1; 
stroke-linecap:round; stroke-linejoin:round;">
<path d="M0.4470 0.2710
L0.3980 0.2710
" />
</g>
<g style="fill:#000000; fill-opacity:1.0000; stroke:none;">
<circle cx="0.4470" cy="0.2710" r="0.0100" /> 
</g>
<g style="fill:none; 
stroke:#000000; stroke-width:0.0200; stroke-opacity:1; 
stroke-linecap:round; stroke-linejoin:round;">
<path d="M0.4470 1.7200
L0.3980 1.7200
" />
</g>
<g style="fill:#000000; fill-opacity:1.0000; stroke:none;">
<circle cx="0.4470" cy="1.7200" r="0.0100" /> 
</g>
<g style="fill:none; 
stroke:#000000; stroke-width:0.0200; stroke-opacity:1; 
stroke-linecap:round; stroke-linejoin:round;">
<path d="M0.5040 0.2710
L0.4470 0.2710
" />
</g>
<g style="fill:#000000; fill-opacity:1.0000; stroke:none;">
<circle cx="0.5040" cy="0.2710" r="0.0100" /> 
</g>
<g style="fill:none; 
stroke:#000000; stroke-width:0.0200; stroke-opacity:1; 
stroke-linecap:round; stroke-linejoin:round;">
<path d="M0.5040 1.7200
L0.4470 1.7200
" />
</g>
<g style="fill:#000000; fill-opacity:1.0000; stroke:none;">
<circle cx="0.5040" cy="1.7200" r="0.0100" /> 
</g>
<g style="fill:none; 
stroke:#000000; stroke-width:0.0200; stroke-opacity:1; 
stroke-linecap:round; stroke-linejoin:round;">
<path d="M0.6610 1.7200
L0.6610 1.8200
" />
<path d="M0.6610 1.8200
L0.6610 1.9190
" />
<path d="M0.6610 1.9190
L0.2810 1.9190
" />
<path d="M0.6610 1.9190
L0.7730 1.9190
" />
</g>
<g style="fill:#000000; fill-opacity:1.0000; stroke:none;">
<circle cx="0.7730" cy="1.9190" r="0.0100" /> 
</g>
<g style="fill:none; 
stroke:#000000; stroke-width:0.0200; stroke-opacity:1; 
stroke-linecap:round; stroke-linejoin:round;">
<path d="M0.7730 1.9190
L1.0410 1.9190
" />
<path d="M1.0410 0.2710
L0.5040 0.2710
" />
<path d="M1.0410 1.7200
L0.5040 1.7200
" />
<path d="M1.0410 1.7200
L1.3010 1.7200
" />
<path d="M1.0410 1.9190
L1.4010 1.9190
" />
<path d="M1.3060 1.7200
L1.3010 1.7200
" />
<path d="M1.3110 1.7200
L1.3060 1.7200
" />
<path d="M1.3160 1.7210
L1.3110 1.7200
" />
<path d="M1.3210 1.7210
L1.3160 1.7210
" />
<path d="M1.3260 1.7230
L1.3210 1.7210
" />
<path d="M1.3310 1.7240
L1.3260 1.7230
" />
<path d="M1.3350 1.7250
L1.3310 1.7240
" />
<path d="M1.3400 1.7270
L1.3350 1.7250
" />
<path d="M1.3440 1.7290
L1.3400 1.7270
" />
<path d="M1.3490 1.7310
L1.3440 1.7290
" />
<path d="M1.3530 1.7340
L1.3490 1.7310
" />
<path d="M1.3570 1.7360
L1.3530 1.7340
" />
<path d="M1.3610 1.7390
L1.3570 1.7360
" />
<path d="M1.3650 1.7420
L1.3610 1.7390
" />
<path d="M1.3690 1.7450
L1.3650 1.7420
" />
<path d="M1.3720 1.7490
L1.3690 1.7450
" />
</g>
<g style="fill:#000000; fill-opacity:1.0000; stroke:none;">
<circle cx="1.3720" cy="1.7490" r="0.0100" /> 
</g>
<g style="fill:none; 
stroke:#000000; stroke-width:0.0200; stroke-opacity:1; 
stroke-linecap:round; stroke-linejoin:round;">
<path d="M1.3760 1.7520
L1.3720 1.7490
" />
<path d="M1.3790 1.7560
L1.3760 1.7520
" />
<path d="M1.3820 1.7600
L1.3790 1.7560
" />
<path d="M1.3850 1.7640
L1.3820 1.7600
" />
<path d="M1.3870 1.7680
L1.3850 1.7640
" />
<path d="M1.3900 1.7720
L1.3870 1.7680
" />
<path d="M1.3920 1.7770
L1.3900 1.7720
" />
<path d="M1.3940 1.7810
L1.3920 1.7770
" />
<path d="M1.3960 1.7860
L1.3940 1.7810
" />
<path d="M1.3970 1.7900
L1.3960 1.7860
" />
<path d="M1.3980 1.7950
L1.3970 1.7900
" />
<path d="M1.4000 1.8000
L1.3980 1.7950
" />
<path d="M1.4000 1.8050
L1.4000 1.8000
" />
<path d="M1.4010 1.8100
L1.4000 1.8050
" />
<path d="M1.4010 1.8150
L1.4010 1.8100
" />
<path d="M1.4010 1.8200
L1.4010 1.8150
" />
<path d="M1.4010 1.9190
L1.4010 1.8200
" />
<path d="M2.4010 1.8100
L2.4010 1.8150
" />
<path d="M2.4010 1.8150
L2.4010 1.8200
" />
<path d="M2.4010 1.9190
L1.4010 1.9190
" />
<path d="M2.4010 1.9190
L2.4010 1.8200
" />
<path d="M2.4020 1.8000
L2.4020 1.8050
" />
<path d="M2.4020 1.8050
L2.4010 1.8100
" />
<path d="M2.4040 1.7950
L2.4020 1.8000
" />
<path d="M2.4050 1.7900
L2.4040 1.7950
" />
<path d="M2.4060 1.7860
L2.4050 1.7900
" />
<path d="M2.4080 1.7810
L2.4060 1.7860
" />
<path d="M2.4100 1.7770
L2.4080 1.7810
" />
<path d="M2.4120 1.7720
L2.4100 1.7770
" />
<path d="M2.4150 1.7680
L2.4120 1.7720
" />
<path d="M2.4170 1.7640
L2.4150 1.7680
" />
<path d="M2.4200 1.7600
L2.4170 1.7640
" />
<path d="M2.4230 1.7560
L2.4200 1.7600
" />
<path d="M2.4260 1.7520
L2.4230 1.7560
" />
<path d="M2.4300 1.7490
L2.4260 1.7520
" />
</g>
<g style="fill:#000000; fill-opacity:1.0000; stroke:none;">
<circle cx="2.4300" cy="1.7490" r="0.0100" /> 
</g>
<g style="fill:none; 
stroke:#000000; stroke-width:0.0200; stroke-opacity:1; 
stroke-linecap:round; stroke-linejoin:round;">
<path d="M2.4330 1.7450
L2.4300 1.7490
" />
<path d="M2.4370 1.7420
L2.4330 1.7450
" />
<path d="M2.4410 1.7390
L2.4370 1.7420
" />
<path d="M2.4450 1.7360
L2.4410 1.7390
" />
<path d="M2.4490 1.7340
L2.4450 1.7360
" />
<path d="M2.4530 1.7310
L2.4490 1.7340
" />
<path d="M2.4580 1.7290
L2.4530 1.7310
" />
<path d="M2.4620 1.7270
L2.4580 1.7290
" />
<path d="M2.4670 1.7250
L2.4620 1.7270
" />
<path d="M2.4710 1.7240
L2.4670 1.7250
" />
<path d="M2.4760 1.7230
L2.4710 1.7240
" />
<path d="M2.4810 1.7210
L2.4760 1.7230
" />
<path d="M2.4860 1.7210
L2.4810 1.7210
" />
<path d="M2.4910 1.7200
L2.4860 1.7210
" />
<path d="M2.4960 1.7200
L2.4910 1.7200
" />
<path d="M2.5010 1.7200
L2.4960 1.7200
" />
<path d="M2.7710 0.2710
L1.0410 0.2710
" />
<path d="M2.7710 1.7200
L2.5010 1.7200
" />
<path d="M2.7710 1.9190
L2.4010 1.9190
" />
<path d="M2.7710 1.9190
L3.0390 1.9190
" />
</g>
<g style="fill:#000000; fill-opacity:1.0000; stroke:none;">
<circle cx="3.0390" cy="1.9190" r="0.0100" /> 
</g>
<g style="fill:none; 
stroke:#000000; stroke-width:0.0200; stroke-opacity:1; 
stroke-linecap:round; stroke-linejoin:round;">
<path d="M3.0390 1.9190
L3.1510 1.9190
" />
<path d="M3.1510 1.8200
L3.1510 1.7200
" />
<path d="M3.1510 1.9190
L3.1510 1.8200
" />
<path d="M3.3080 0.2710
L2.7710 0.2710
" />
</g>
<g style="fill:#000000; fill-opacity:1.0000; stroke:none;">
<circle cx="3.3080" cy="0.2710" r="0.0100" /> 
</g>
<g style="fill:none; 
stroke:#000000; stroke-width:0.0200; stroke-opacity:1; 
stroke-linecap:round; stroke-linejoin:round;">
<path d="M3.3080 1.7200
L2.7710 1.7200
" />
</g>
<g style="fill:#000000; fill-opacity:1.0000; stroke:none;">
<circle cx="3.3080" cy="1.7200" r="0.0100" /> 
</g>
<g style="fill:none; 
stroke:#000000; stroke-width:0.0200; stroke-opacity:1; 
stroke-linecap:round; stroke-linejoin:round;">
<path d="M3.4140 0.2710
L3.3080 0.2710
" />
</g>
<g style="fill:#000000; fill-opacity:1.0000; stroke:none;">
<circle cx="3.4140" cy="0.2710" r="0.0100" /> 
</g>
<g style="fill:none; 
stroke:#000000; stroke-width:0.0200; stroke-opacity:1; 
stroke-linecap:round; stroke-linejoin:round;">
<path d="M3.4140 1.7200
L3.3080 1.7200
" />
</g>
<g style="fill:#000000; fill-opacity:1.0000; stroke:none;">
<circle cx="3.4140" cy="1.7200" r="0.0100" /> 
</g>
<g style="fill:none; 
stroke:#000000; stroke-width:0.0200; stroke-opacity:1; 
stroke-linecap:round; stroke-linejoin:round;">
<path d="M3.4550 0.2710
L3.4140 0.2710
" />
</g>
<g style="fill:#000000; fill-opacity:1.0000; stroke:none;">
<circle cx="3.4550" cy="0.2710" r="0.0100" /> 
</g>
<g style="fill:none; 
stroke:#000000; stroke-width:0.0200; stroke-opacity:1; 
stroke-linecap:round; stroke-linejoin:round;">
<path d="M3.4550 1.7200
L3.4140 1.7200
" />
</g>
<g style="fill:#000000; fill-opacity:1.0000; stroke:none;">
<circle cx="3.4550" cy="1.7200" r="0.0100" /> 
</g>
<g style="fill:none; 
stroke:#000000; stroke-width:0.0200; stroke-opacity:1; 
stroke-linecap:round; stroke-linejoin:round;">
<path d="M3.4880 0.2710
L3.4550 0.2710
" />
</g>
<g style="fill:#000000; fill-opacity:1.0000; stroke:none;">
<circle cx="3.4880" cy="0.2710" r="0.0100" /> 
</g>
<g style="fill:none; 
stroke:#000000; stroke-width:0.0200; stroke-opacity:1; 
stroke-linecap:round; stroke-linejoin:round;">
<path d="M3.4880 1.7200
L3.4550 1.7200
" />
</g>
<g style="fill:#000000; fill-opacity:1.0000; stroke:none;">
<circle cx="3.4880" cy="1.7200" r="0.0100" /> 
</g>
<g style="fill:none; 
stroke:#000000; stroke-width:0.0200; stroke-opacity:1; 
stroke-linecap:round; stroke-linejoin:round;">
<path d="M3.5110 0.2710
L3.4880 0.2710
" />
</g>
<g style="fill:#000000; fill-opacity:1.0000; stroke:none;">
<circle cx="3.5110" cy="0.2710" r="0.0100" /> 
</g>
<g style="fill:none; 
stroke:#000000; stroke-width:0.0200; stroke-opacity:1; 
stroke-linecap:round; stroke-linejoin:round;">
<path d="M3.5110 1.7200
L3.4880 1.7200
" />
</g>
<g style="fill:#000000; fill-opacity:1.0000; stroke:none;">
<circle cx="3.5110" cy="1.7200" r="0.0100" /> 
</g>
<g style="fill:none; 
stroke:#000000; stroke-width:0.0200; stroke-opacity:1; 
stroke-linecap:round; stroke-linejoin:round;">
<path d="M3.5260 0.2710
L3.5110 0.2710
" />
</g>
<g style="fill:#000000; fill-opacity:1.0000; stroke:none;">
<circle cx="3.5260" cy="0.2710" r="0.0100" /> 
</g>
<g style="fill:none; 
stroke:#000000; stroke-width:0.0200; stroke-opacity:1; 
stroke-linecap:round; stroke-linejoin:round;">
<path d="M3.5260 1.7200
L3.5110 1.7200
" />
</g>
<g style="fill:#000000; fill-opacity:1.0000; stroke:none;">
<circle cx="3.5260" cy="1.7200" r="0.0100" /> 
</g>
<g style="fill:none; 
stroke:#000000; stroke-width:0.0200; stroke-opacity:1; 
stroke-linecap:round; stroke-linejoin:round;">
<path d="M3.5300 0.2710
L3.5260 0.2710
" />
<path d="M3.5300 0.2710
L3.5300 1.7200
" />
<path d="M3.5300 1.7200
L3.5260 1.7200
" />
<path d="M3.5300 1.7200
L3.5300 1.8200
" />
<path d="M3.5300 1.8200
L3.5300 1.9190
" />
<path d="M3.5300 1.9190
L3.1510 1.9190
" />
<path d="M3.5300 1.9190
L3.1510 1.9190
" />
</g> 
</svg>
