<?xml version="1.0" standalone="no"?>
 <!DOCTYPE svg PUBLIC "-//W3C//DTD SVG 1.1//EN" 
 "http://www.w3.org/Graphics/SVG/1.1/DTD/svg11.dtd"> 
<svg
  xmlns:svg="http://www.w3.org/2000/svg"
  xmlns="http://www.w3.org/2000/svg"
  xmlns:xlink="http://www.w3.org/1999/xlink"
  version="1.1"
  width="11.4046mm" height="8.6614mm" viewBox="0.0000 0.0000 11.4046 8.6614">
<title>SVG Image created as outline.svg date 2025/06/16 09:18:11 </title>
  <desc>Image generated by PCBNEW </desc>
<g style="fill:#000000; fill-opacity:1.0000;stroke:#000000; stroke-opacity:1.0000;
stroke-linecap:round; stroke-linejoin:round;"
 transform="translate(0 0) scale(1 1)">
</g>
<g style="fill:none; 
stroke:#000000; stroke-width:0.0200; stroke-opacity:1; 
stroke-linecap:round; stroke-linejoin:round;">
<path d="M0.5300 1.4750
L0.5300 2.1150
" />
<path d="M0.5300 1.4750
L0.5340 1.4750
" />
<path d="M0.5300 2.1150
L0.5340 2.1150
" />
<path d="M0.5300 4.0150
L0.5300 4.6530
" />
<path d="M0.5300 4.0150
L0.5340 4.0150
" />
<path d="M0.5300 4.6530
L0.5340 4.6530
" />
<path d="M0.5300 6.5540
L0.5300 7.1950
" />
<path d="M0.5300 6.5540
L0.5340 6.5540
" />
<path d="M0.5300 7.1950
L0.5340 7.1950
" />
</g>
<g style="fill:#000000; fill-opacity:1.0000; stroke:none;">
<circle cx="0.5340" cy="1.4750" r="0.0100" /> 
</g>
<g style="fill:none; 
stroke:#000000; stroke-width:0.0200; stroke-opacity:1; 
stroke-linecap:round; stroke-linejoin:round;">
<path d="M0.5340 1.4750
L0.5640 1.4750
" />
</g>
<g style="fill:#000000; fill-opacity:1.0000; stroke:none;">
<circle cx="0.5340" cy="2.1150" r="0.0100" /> 
</g>
<g style="fill:none; 
stroke:#000000; stroke-width:0.0200; stroke-opacity:1; 
stroke-linecap:round; stroke-linejoin:round;">
<path d="M0.5340 2.1150
L0.5640 2.1150
" />
</g>
<g style="fill:#000000; fill-opacity:1.0000; stroke:none;">
<circle cx="0.5340" cy="4.0150" r="0.0100" /> 
</g>
<g style="fill:none; 
stroke:#000000; stroke-width:0.0200; stroke-opacity:1; 
stroke-linecap:round; stroke-linejoin:round;">
<path d="M0.5340 4.0150
L0.5640 4.0150
" />
</g>
<g style="fill:#000000; fill-opacity:1.0000; stroke:none;">
<circle cx="0.5340" cy="4.6530" r="0.0100" /> 
</g>
<g style="fill:none; 
stroke:#000000; stroke-width:0.0200; stroke-opacity:1; 
stroke-linecap:round; stroke-linejoin:round;">
<path d="M0.5340 4.6530
L0.5640 4.6530
" />
</g>
<g style="fill:#000000; fill-opacity:1.0000; stroke:none;">
<circle cx="0.5340" cy="6.5540" r="0.0100" /> 
</g>
<g style="fill:none; 
stroke:#000000; stroke-width:0.0200; stroke-opacity:1; 
stroke-linecap:round; stroke-linejoin:round;">
<path d="M0.5340 6.5540
L0.5640 6.5540
" />
</g>
<g style="fill:#000000; fill-opacity:1.0000; stroke:none;">
<circle cx="0.5340" cy="7.1950" r="0.0100" /> 
</g>
<g style="fill:none; 
stroke:#000000; stroke-width:0.0200; stroke-opacity:1; 
stroke-linecap:round; stroke-linejoin:round;">
<path d="M0.5340 7.1950
L0.5640 7.1950
" />
</g>
<g style="fill:#000000; fill-opacity:1.0000; stroke:none;">
<circle cx="0.5640" cy="1.4750" r="0.0100" /> 
</g>
<g style="fill:none; 
stroke:#000000; stroke-width:0.0200; stroke-opacity:1; 
stroke-linecap:round; stroke-linejoin:round;">
<path d="M0.5640 1.4750
L0.6280 1.4750
" />
</g>
<g style="fill:#000000; fill-opacity:1.0000; stroke:none;">
<circle cx="0.5640" cy="2.1150" r="0.0100" /> 
</g>
<g style="fill:none; 
stroke:#000000; stroke-width:0.0200; stroke-opacity:1; 
stroke-linecap:round; stroke-linejoin:round;">
<path d="M0.5640 2.1150
L0.6280 2.1150
" />
</g>
<g style="fill:#000000; fill-opacity:1.0000; stroke:none;">
<circle cx="0.5640" cy="4.0150" r="0.0100" /> 
</g>
<g style="fill:none; 
stroke:#000000; stroke-width:0.0200; stroke-opacity:1; 
stroke-linecap:round; stroke-linejoin:round;">
<path d="M0.5640 4.0150
L0.6280 4.0150
" />
</g>
<g style="fill:#000000; fill-opacity:1.0000; stroke:none;">
<circle cx="0.5640" cy="4.6530" r="0.0100" /> 
</g>
<g style="fill:none; 
stroke:#000000; stroke-width:0.0200; stroke-opacity:1; 
stroke-linecap:round; stroke-linejoin:round;">
<path d="M0.5640 4.6530
L0.6280 4.6530
" />
</g>
<g style="fill:#000000; fill-opacity:1.0000; stroke:none;">
<circle cx="0.5640" cy="6.5540" r="0.0100" /> 
</g>
<g style="fill:none; 
stroke:#000000; stroke-width:0.0200; stroke-opacity:1; 
stroke-linecap:round; stroke-linejoin:round;">
<path d="M0.5640 6.5540
L0.6280 6.5540
" />
</g>
<g style="fill:#000000; fill-opacity:1.0000; stroke:none;">
<circle cx="0.5640" cy="7.1950" r="0.0100" /> 
</g>
<g style="fill:none; 
stroke:#000000; stroke-width:0.0200; stroke-opacity:1; 
stroke-linecap:round; stroke-linejoin:round;">
<path d="M0.5640 7.1950
L0.6280 7.1950
" />
</g>
<g style="fill:#000000; fill-opacity:1.0000; stroke:none;">
<circle cx="0.6280" cy="1.4750" r="0.0100" /> 
</g>
<g style="fill:none; 
stroke:#000000; stroke-width:0.0200; stroke-opacity:1; 
stroke-linecap:round; stroke-linejoin:round;">
<path d="M0.6280 1.4750
L0.7160 1.4750
" />
</g>
<g style="fill:#000000; fill-opacity:1.0000; stroke:none;">
<circle cx="0.6280" cy="2.1150" r="0.0100" /> 
</g>
<g style="fill:none; 
stroke:#000000; stroke-width:0.0200; stroke-opacity:1; 
stroke-linecap:round; stroke-linejoin:round;">
<path d="M0.6280 2.1150
L0.7160 2.1150
" />
</g>
<g style="fill:#000000; fill-opacity:1.0000; stroke:none;">
<circle cx="0.6280" cy="4.0150" r="0.0100" /> 
</g>
<g style="fill:none; 
stroke:#000000; stroke-width:0.0200; stroke-opacity:1; 
stroke-linecap:round; stroke-linejoin:round;">
<path d="M0.6280 4.0150
L0.7160 4.0150
" />
</g>
<g style="fill:#000000; fill-opacity:1.0000; stroke:none;">
<circle cx="0.6280" cy="4.6530" r="0.0100" /> 
</g>
<g style="fill:none; 
stroke:#000000; stroke-width:0.0200; stroke-opacity:1; 
stroke-linecap:round; stroke-linejoin:round;">
<path d="M0.6280 4.6530
L0.7160 4.6530
" />
</g>
<g style="fill:#000000; fill-opacity:1.0000; stroke:none;">
<circle cx="0.6280" cy="6.5540" r="0.0100" /> 
</g>
<g style="fill:none; 
stroke:#000000; stroke-width:0.0200; stroke-opacity:1; 
stroke-linecap:round; stroke-linejoin:round;">
<path d="M0.6280 6.5540
L0.7160 6.5540
" />
</g>
<g style="fill:#000000; fill-opacity:1.0000; stroke:none;">
<circle cx="0.6280" cy="7.1950" r="0.0100" /> 
</g>
<g style="fill:none; 
stroke:#000000; stroke-width:0.0200; stroke-opacity:1; 
stroke-linecap:round; stroke-linejoin:round;">
<path d="M0.6280 7.1950
L0.7160 7.1950
" />
</g>
<g style="fill:#000000; fill-opacity:1.0000; stroke:none;">
<circle cx="0.7160" cy="1.4750" r="0.0100" /> 
</g>
<g style="fill:none; 
stroke:#000000; stroke-width:0.0200; stroke-opacity:1; 
stroke-linecap:round; stroke-linejoin:round;">
<path d="M0.7160 1.4750
L1.1700 1.4750
" />
</g>
<g style="fill:#000000; fill-opacity:1.0000; stroke:none;">
<circle cx="0.7160" cy="2.1150" r="0.0100" /> 
</g>
<g style="fill:none; 
stroke:#000000; stroke-width:0.0200; stroke-opacity:1; 
stroke-linecap:round; stroke-linejoin:round;">
<path d="M0.7160 2.1150
L1.1700 2.1150
" />
</g>
<g style="fill:#000000; fill-opacity:1.0000; stroke:none;">
<circle cx="0.7160" cy="4.0150" r="0.0100" /> 
</g>
<g style="fill:none; 
stroke:#000000; stroke-width:0.0200; stroke-opacity:1; 
stroke-linecap:round; stroke-linejoin:round;">
<path d="M0.7160 4.0150
L1.1700 4.0150
" />
</g>
<g style="fill:#000000; fill-opacity:1.0000; stroke:none;">
<circle cx="0.7160" cy="4.6530" r="0.0100" /> 
</g>
<g style="fill:none; 
stroke:#000000; stroke-width:0.0200; stroke-opacity:1; 
stroke-linecap:round; stroke-linejoin:round;">
<path d="M0.7160 4.6530
L1.1700 4.6530
" />
</g>
<g style="fill:#000000; fill-opacity:1.0000; stroke:none;">
<circle cx="0.7160" cy="6.5540" r="0.0100" /> 
</g>
<g style="fill:none; 
stroke:#000000; stroke-width:0.0200; stroke-opacity:1; 
stroke-linecap:round; stroke-linejoin:round;">
<path d="M0.7160 6.5540
L1.1700 6.5540
" />
</g>
<g style="fill:#000000; fill-opacity:1.0000; stroke:none;">
<circle cx="0.7160" cy="7.1950" r="0.0100" /> 
</g>
<g style="fill:none; 
stroke:#000000; stroke-width:0.0200; stroke-opacity:1; 
stroke-linecap:round; stroke-linejoin:round;">
<path d="M0.7160 7.1950
L1.1700 7.1950
" />
<path d="M1.1700 1.4750
L2.3490 1.4750
" />
<path d="M1.1700 2.1150
L2.3490 2.1150
" />
<path d="M1.1700 4.0150
L2.3490 4.0150
" />
<path d="M1.1700 4.6530
L2.3490 4.6530
" />
<path d="M1.1700 6.5540
L2.3490 6.5540
" />
<path d="M1.1700 7.1950
L2.3490 7.1950
" />
<path d="M2.3490 0.5250
L4.8880 0.5250
" />
<path d="M2.3490 0.7790
L2.3490 0.5250
" />
<path d="M2.3490 0.7790
L4.8880 0.7790
" />
<path d="M2.3490 2.8100
L2.3490 0.7790
" />
<path d="M2.3490 2.8100
L4.8880 2.8100
" />
<path d="M2.3490 3.0640
L2.3490 2.8100
" />
<path d="M2.3490 3.0640
L4.8880 3.0640
" />
<path d="M2.3490 3.3180
L2.3490 3.0640
" />
<path d="M2.3490 3.3180
L4.8880 3.3180
" />
<path d="M2.3490 5.3500
L2.3490 3.3180
" />
<path d="M2.3490 5.3500
L4.8880 5.3500
" />
<path d="M2.3490 5.6040
L2.3490 5.3500
" />
<path d="M2.3490 5.6040
L4.8880 5.6040
" />
<path d="M2.3490 5.8570
L2.3490 5.6040
" />
<path d="M2.3490 5.8570
L4.8880 5.8570
" />
<path d="M2.3490 7.8890
L2.3490 5.8570
" />
<path d="M2.3490 7.8890
L4.8880 7.8890
" />
<path d="M2.3490 8.1440
L2.3490 7.8890
" />
<path d="M2.3490 8.1440
L4.8880 8.1440
" />
<path d="M4.8880 0.7790
L4.8880 0.5250
" />
<path d="M4.8880 1.4750
L10.7300 1.4750
" />
<path d="M4.8880 2.1150
L10.7300 2.1150
" />
<path d="M4.8880 2.8100
L4.8880 0.7790
" />
<path d="M4.8880 3.0640
L4.8880 2.8100
" />
<path d="M4.8880 3.3180
L4.8880 3.0640
" />
<path d="M4.8880 4.0150
L10.7300 4.0150
" />
<path d="M4.8880 4.6530
L10.7300 4.6530
" />
<path d="M4.8880 5.3500
L4.8880 3.3180
" />
<path d="M4.8880 5.6040
L4.8880 5.3500
" />
<path d="M4.8880 5.8570
L4.8880 5.6040
" />
<path d="M4.8880 6.5540
L10.7300 6.5540
" />
<path d="M4.8880 7.1950
L10.7300 7.1950
" />
<path d="M4.8880 7.8890
L4.8880 5.8570
" />
<path d="M4.8880 8.1440
L4.8880 7.8890
" />
<path d="M10.7300 1.4750
L10.7300 2.1150
" />
<path d="M10.7300 1.4750
L10.8880 1.6350
" />
<path d="M10.7300 2.1150
L10.8880 1.9550
" />
<path d="M10.7300 4.0150
L10.7300 4.6530
" />
<path d="M10.7300 4.0150
L10.8880 4.1730
" />
<path d="M10.7300 4.6530
L10.8880 4.4950
" />
<path d="M10.7300 6.5540
L10.7300 7.1950
" />
<path d="M10.7300 6.5540
L10.8880 6.7140
" />
<path d="M10.7300 7.1950
L10.8880 7.0350
" />
<path d="M10.8880 1.6350
L10.8880 1.9550
" />
<path d="M10.8880 4.1730
L10.8880 4.4950
" />
<path d="M10.8880 6.7140
L10.8880 7.0350
" />
</g> 
</svg>
