<?xml version="1.0" standalone="no"?>
 <!DOCTYPE svg PUBLIC "-//W3C//DTD SVG 1.1//EN" 
 "http://www.w3.org/Graphics/SVG/1.1/DTD/svg11.dtd"> 
<svg
  xmlns:svg="http://www.w3.org/2000/svg"
  xmlns="http://www.w3.org/2000/svg"
  xmlns:xlink="http://www.w3.org/1999/xlink"
  version="1.1"
  width="15.5448mm" height="5.3340mm" viewBox="0.0000 0.0000 15.5448 5.3340">
<title>SVG Image created as outline.svg date 2025/04/04 10:06:13 </title>
  <desc>Image generated by PCBNEW </desc>
<g style="fill:#000000; fill-opacity:1.0000;stroke:#000000; stroke-opacity:1.0000;
stroke-linecap:round; stroke-linejoin:round;"
 transform="translate(0 0) scale(1 1)">
</g>
<g style="fill:none; 
stroke:#000000; stroke-width:0.0200; stroke-opacity:1; 
stroke-linecap:round; stroke-linejoin:round;">
<path d="M1.1750 2.3600
L2.0750 2.3600
" />
<path d="M1.1750 2.9900
L1.1750 2.3600
" />
<path d="M2.0750 0.2650
L13.4750 0.2650
" />
<path d="M2.0750 2.9900
L1.1750 2.9900
" />
<path d="M2.0750 5.0650
L2.0750 0.2650
" />
</g>
<g style="fill:#000000; fill-opacity:1.0000; stroke:none;">
<circle cx="2.1000" cy="2.6650" r="0.0100" /> 
</g>
<g style="fill:none; 
stroke:#000000; stroke-width:0.0200; stroke-opacity:1; 
stroke-linecap:round; stroke-linejoin:round;">
<path d="M2.1000 2.6650
L2.1030 2.5470
" />
<path d="M2.1030 2.5470
L2.1110 2.4300
" />
<path d="M2.1030 2.7830
L2.1000 2.6650
" />
<path d="M2.1110 2.4300
L2.1260 2.3130
" />
<path d="M2.1110 2.9000
L2.1030 2.7830
" />
<path d="M2.1260 2.3130
L2.1460 2.1970
" />
<path d="M2.1260 3.0170
L2.1110 2.9000
" />
<path d="M2.1460 2.1970
L2.1720 2.0820
" />
<path d="M2.1460 3.1330
L2.1260 3.0170
" />
<path d="M2.1720 2.0820
L2.2030 1.9690
" />
<path d="M2.1720 3.2480
L2.1460 3.1330
" />
<path d="M2.2030 1.9690
L2.2410 1.8570
" />
<path d="M2.2030 3.3610
L2.1720 3.2480
" />
<path d="M2.2410 1.8570
L2.2830 1.7480
" />
<path d="M2.2410 3.4730
L2.2030 3.3610
" />
<path d="M2.2830 1.7480
L2.3310 1.6400
" />
<path d="M2.2830 3.5820
L2.2410 3.4730
" />
<path d="M2.3310 1.6400
L2.3830 1.5350
" />
<path d="M2.3310 3.6900
L2.2830 3.5820
" />
<path d="M2.3830 1.5350
L2.4410 1.4330
" />
<path d="M2.3830 3.7950
L2.3310 3.6900
" />
<path d="M2.4410 1.4330
L2.5040 1.3330
" />
<path d="M2.4410 3.8970
L2.3830 3.7950
" />
<path d="M2.5040 1.3330
L2.5720 1.2370
" />
<path d="M2.5040 3.9970
L2.4410 3.8970
" />
<path d="M2.5590 2.6110
L2.5610 2.5580
" />
<path d="M2.5590 2.6650
L2.5590 2.6110
" />
<path d="M2.5590 2.6650
L2.5640 2.5160
" />
<path d="M2.5610 2.5580
L2.5640 2.5050
" />
<path d="M2.5620 2.7860
L2.5600 2.7360
" />
<path d="M2.5640 2.5050
L2.5690 2.4520
" />
<path d="M2.5640 2.5160
L2.5780 2.3680
" />
<path d="M2.5640 2.8140
L2.5590 2.6650
" />
<path d="M2.5650 2.8360
L2.5620 2.7860
" />
<path d="M2.5690 2.4520
L2.5740 2.3990
" />
<path d="M2.5690 2.8860
L2.5650 2.8360
" />
<path d="M2.5720 1.2370
L2.6440 1.1440
" />
<path d="M2.5720 4.0930
L2.5040 3.9970
" />
<path d="M2.5740 2.3990
L2.5810 2.3460
" />
<path d="M2.5750 2.9350
L2.5690 2.8860
" />
<path d="M2.5780 2.3680
L2.6020 2.2200
" />
<path d="M2.5780 2.9620
L2.5640 2.8140
" />
<path d="M2.5810 2.3460
L2.5890 2.2940
" />
<path d="M2.5810 2.9840
L2.5750 2.9350
" />
<path d="M2.5880 3.0330
L2.5810 2.9840
" />
<path d="M2.5890 2.2940
L2.5980 2.2420
" />
<path d="M2.5970 3.0820
L2.5880 3.0330
" />
<path d="M2.5980 2.2420
L2.6080 2.1900
" />
<path d="M2.6020 2.2200
L2.6360 2.0750
" />
<path d="M2.6020 3.1100
L2.5780 2.9620
" />
<path d="M2.6060 3.1310
L2.5970 3.0820
" />
<path d="M2.6080 2.1900
L2.6200 2.1380
" />
<path d="M2.6170 3.1790
L2.6060 3.1310
" />
<path d="M2.6200 2.1380
L2.6320 2.0870
" />
<path d="M2.6280 3.2270
L2.6170 3.1790
" />
<path d="M2.6320 2.0870
L2.6460 2.0360
" />
<path d="M2.6360 2.0750
L2.6790 1.9310
" />
<path d="M2.6360 3.2550
L2.6020 3.1100
" />
<path d="M2.6410 3.2750
L2.6280 3.2270
" />
<path d="M2.6440 1.1440
L2.7210 1.0550
" />
<path d="M2.6440 4.1860
L2.5720 4.0930
" />
<path d="M2.6460 2.0360
L2.6620 1.9850
" />
<path d="M2.6550 3.3230
L2.6410 3.2750
" />
<path d="M2.6620 1.9850
L2.6780 1.9340
" />
<path d="M2.6700 3.3700
L2.6550 3.3230
" />
<path d="M2.6780 1.9340
L2.6960 1.8840
" />
<path d="M2.6790 1.9310
L2.7320 1.7890
" />
<path d="M2.6790 3.3990
L2.6360 3.2550
" />
<path d="M2.6850 3.4180
L2.6700 3.3700
" />
<path d="M2.6960 1.8840
L2.7140 1.8330
" />
<path d="M2.7020 3.4650
L2.6850 3.4180
" />
<path d="M2.7200 1.8180
L2.7410 1.7670
" />
<path d="M2.7200 3.5120
L2.7020 3.4650
" />
<path d="M2.7210 1.0550
L2.8020 0.9700
" />
<path d="M2.7210 4.2750
L2.6440 4.1860
" />
<path d="M2.7320 1.7890
L2.7950 1.6500
" />
<path d="M2.7320 3.5410
L2.6790 3.3990
" />
<path d="M2.7410 1.7670
L2.7640 1.7160
" />
<path d="M2.7630 3.6120
L2.7400 3.5610
" />
<path d="M2.7640 1.7160
L2.7870 1.6660
" />
<path d="M2.7860 3.6630
L2.7630 3.6120
" />
<path d="M2.7870 1.6660
L2.8110 1.6170
" />
<path d="M2.7950 1.6500
L2.8670 1.5150
" />
<path d="M2.7950 3.6800
L2.7320 3.5410
" />
</g>
<g style="fill:#000000; fill-opacity:1.0000; stroke:none;">
<circle cx="2.8020" cy="0.9700" r="0.0100" /> 
</g>
<g style="fill:none; 
stroke:#000000; stroke-width:0.0200; stroke-opacity:1; 
stroke-linecap:round; stroke-linejoin:round;">
<path d="M2.8020 0.9700
L2.8870 0.8880
" />
<path d="M2.8020 4.3600
L2.7210 4.2750
" />
</g>
<g style="fill:#000000; fill-opacity:1.0000; stroke:none;">
<circle cx="2.8020" cy="4.3600" r="0.0100" /> 
</g>
<g style="fill:none; 
stroke:#000000; stroke-width:0.0200; stroke-opacity:1; 
stroke-linecap:round; stroke-linejoin:round;">
<path d="M2.8110 1.6170
L2.8370 1.5680
" />
<path d="M2.8110 3.7120
L2.7860 3.6630
" />
<path d="M2.8370 1.5680
L2.8640 1.5200
" />
<path d="M2.8370 3.7610
L2.8110 3.7120
" />
</g>
<g style="fill:#000000; fill-opacity:1.0000; stroke:none;">
<circle cx="2.8590" cy="2.6650" r="0.0100" /> 
</g>
<g style="fill:none; 
stroke:#000000; stroke-width:0.0200; stroke-opacity:1; 
stroke-linecap:round; stroke-linejoin:round;">
<path d="M2.8590 2.6650
L2.8610 2.5670
" />
<path d="M2.8600 2.7270
L2.8590 2.6650
" />
<path d="M2.8610 2.5670
L2.8680 2.4690
" />
<path d="M2.8630 2.7890
L2.8600 2.7270
" />
<path d="M2.8630 3.8100
L2.8370 3.7610
" />
<path d="M2.8640 1.5200
L2.8910 1.4730
" />
</g>
<g style="fill:#000000; fill-opacity:1.0000; stroke:none;">
<circle cx="2.8670" cy="1.5150" r="0.0100" /> 
</g>
<g style="fill:none; 
stroke:#000000; stroke-width:0.0200; stroke-opacity:1; 
stroke-linecap:round; stroke-linejoin:round;">
<path d="M2.8670 1.5150
L2.9060 1.4490
" />
<path d="M2.8670 3.8150
L2.7950 3.6800
" />
</g>
<g style="fill:#000000; fill-opacity:1.0000; stroke:none;">
<circle cx="2.8670" cy="3.8150" r="0.0100" /> 
</g>
<g style="fill:none; 
stroke:#000000; stroke-width:0.0200; stroke-opacity:1; 
stroke-linecap:round; stroke-linejoin:round;">
<path d="M2.8680 2.4690
L2.8800 2.3710
" />
<path d="M2.8680 2.8510
L2.8630 2.7890
" />
<path d="M2.8740 2.9130
L2.8680 2.8510
" />
<path d="M2.8800 2.3710
L2.8970 2.2750
" />
<path d="M2.8830 2.9750
L2.8740 2.9130
" />
<path d="M2.8870 0.8880
L2.9760 0.8110
" />
<path d="M2.8870 4.4420
L2.8020 4.3600
" />
<path d="M2.8910 1.4730
L2.9200 1.4260
" />
<path d="M2.8910 3.8570
L2.8630 3.8100
" />
<path d="M2.8940 3.0360
L2.8830 2.9750
" />
<path d="M2.8970 2.2750
L2.9190 2.1790
" />
<path d="M2.9060 1.4490
L2.9480 1.3850
" />
<path d="M2.9060 3.0970
L2.8940 3.0360
" />
<path d="M2.9190 2.1790
L2.9450 2.0840
" />
<path d="M2.9200 1.4260
L2.9500 1.3810
" />
<path d="M2.9200 3.1570
L2.9060 3.0970
" />
</g>
<g style="fill:#000000; fill-opacity:1.0000; stroke:none;">
<circle cx="2.9200" cy="3.1570" r="0.0100" /> 
</g>
<g style="fill:none; 
stroke:#000000; stroke-width:0.0200; stroke-opacity:1; 
stroke-linecap:round; stroke-linejoin:round;">
<path d="M2.9210 3.9040
L2.8910 3.8570
" />
<path d="M2.9280 3.1850
L2.9200 3.1570
" />
<path d="M2.9350 3.2110
L2.9280 3.1850
" />
<path d="M2.9420 3.2360
L2.9350 3.2110
" />
<path d="M2.9450 2.0840
L2.9760 1.9910
" />
<path d="M2.9480 1.3850
L2.9910 1.3220
" />
<path d="M2.9480 3.9450
L2.8670 3.8150
" />
<path d="M2.9490 3.2580
L2.9420 3.2360
" />
<path d="M2.9500 1.3810
L2.9810 1.3360
" />
<path d="M2.9510 3.9500
L2.9210 3.9040
" />
<path d="M2.9550 3.2790
L2.9490 3.2580
" />
<path d="M2.9610 3.2980
L2.9550 3.2790
" />
<path d="M2.9670 3.3140
L2.9610 3.2980
" />
<path d="M2.9720 3.3300
L2.9670 3.3140
" />
<path d="M2.9760 0.8110
L3.0690 0.7390
" />
<path d="M2.9760 1.9910
L3.0110 1.9000
" />
<path d="M2.9760 4.5190
L2.8870 4.4420
" />
<path d="M2.9810 1.3360
L3.0140 1.2910
" />
<path d="M2.9810 3.3540
L2.9720 3.3300
" />
<path d="M2.9820 3.9950
L2.9510 3.9500
" />
<path d="M2.9880 3.3720
L2.9810 3.3540
" />
<path d="M2.9910 1.3220
L3.0370 1.2610
" />
<path d="M2.9920 3.3830
L2.9880 3.3720
" />
<path d="M2.9940 3.3870
L2.9920 3.3830
" />
</g>
<g style="fill:#000000; fill-opacity:1.0000; stroke:none;">
<circle cx="2.9940" cy="3.3870" r="0.0100" /> 
</g>
<g style="fill:none; 
stroke:#000000; stroke-width:0.0200; stroke-opacity:1; 
stroke-linecap:round; stroke-linejoin:round;">
<path d="M3.0050 3.4150
L2.9940 3.3870
" />
<path d="M3.0110 1.9000
L3.0510 1.8100
" />
<path d="M3.0140 1.2910
L3.0470 1.2480
" />
<path d="M3.0140 4.0400
L2.9820 3.9950
" />
<path d="M3.0160 3.4430
L3.0050 3.4150
" />
<path d="M3.0280 3.4700
L3.0160 3.4430
" />
<path d="M3.0370 1.2610
L3.0840 1.2020
" />
<path d="M3.0370 4.0690
L2.9480 3.9450
" />
<path d="M3.0410 3.4980
L3.0280 3.4700
" />
<path d="M3.0470 1.2480
L3.0810 1.2050
" />
<path d="M3.0480 4.0840
L3.0140 4.0400
" />
<path d="M3.0510 1.8100
L3.0950 1.7220
" />
<path d="M3.0540 3.5250
L3.0410 3.4980
" />
<path d="M3.0670 3.5520
L3.0540 3.5250
" />
<path d="M3.0690 0.7390
L3.1660 0.6710
" />
<path d="M3.0690 4.5910
L2.9760 4.5190
" />
<path d="M3.0800 3.5790
L3.0670 3.5520
" />
<path d="M3.0810 1.2050
L3.1170 1.1630
" />
<path d="M3.0830 4.1270
L3.0480 4.0840
" />
<path d="M3.0840 1.2020
L3.1330 1.1450
" />
<path d="M3.0940 3.6060
L3.0800 3.5790
" />
</g>
<g style="fill:#000000; fill-opacity:1.0000; stroke:none;">
<circle cx="3.0940" cy="3.6060" r="0.0100" /> 
</g>
<g style="fill:none; 
stroke:#000000; stroke-width:0.0200; stroke-opacity:1; 
stroke-linecap:round; stroke-linejoin:round;">
<path d="M3.0950 1.7220
L3.1430 1.6370
" />
<path d="M3.1170 1.1630
L3.1540 1.1210
" />
<path d="M3.1180 4.1690
L3.0830 4.1270
" />
<path d="M3.1200 3.6540
L3.0940 3.6060
" />
<path d="M3.1330 1.1450
L3.1840 1.0890
" />
<path d="M3.1330 4.1850
L3.0370 4.0690
" />
<path d="M3.1430 1.6370
L3.1960 1.5540
" />
<path d="M3.1480 3.7010
L3.1200 3.6540
" />
<path d="M3.1540 1.1210
L3.1910 1.0810
" />
<path d="M3.1550 4.2110
L3.1180 4.1690
" />
<path d="M3.1660 0.6710
L3.2650 0.6090
" />
<path d="M3.1660 4.6590
L3.0690 4.5910
" />
<path d="M3.1770 3.7480
L3.1480 3.7010
" />
<path d="M3.1840 1.0890
L3.2360 1.0350
" />
<path d="M3.1930 4.2510
L3.1550 4.2110
" />
<path d="M3.1960 1.5540
L3.2520 1.4730
" />
<path d="M3.2070 3.7930
L3.1770 3.7480
" />
<path d="M3.2320 1.0390
L3.2720 1.0000
" />
<path d="M3.2320 4.2910
L3.1930 4.2510
" />
<path d="M3.2360 1.0350
L3.2900 0.9830
" />
<path d="M3.2360 4.2950
L3.1330 4.1850
" />
<path d="M3.2380 3.8380
L3.2070 3.7930
" />
<path d="M3.2520 1.4730
L3.3120 1.3960
" />
<path d="M3.2650 0.6090
L3.3670 0.5510
" />
<path d="M3.2650 4.7210
L3.1660 4.6590
" />
<path d="M3.2710 3.8820
L3.2380 3.8380
" />
<path d="M3.2720 1.0000
L3.3130 0.9620
" />
<path d="M3.2900 0.9830
L3.3450 0.9330
" />
<path d="M3.3050 3.9250
L3.2710 3.8820
" />
<path d="M3.3120 1.3960
L3.3770 1.3220
" />
<path d="M3.3130 0.9620
L3.3550 0.9250
" />
<path d="M3.3150 4.3700
L3.2750 4.3320
" />
<path d="M3.3400 3.9670
L3.3050 3.9250
" />
<path d="M3.3450 0.9330
L3.4030 0.8850
" />
<path d="M3.3450 4.3970
L3.2360 4.2950
" />
<path d="M3.3550 0.9250
L3.3970 0.8890
" />
<path d="M3.3570 4.4070
L3.3150 4.3700
" />
<path d="M3.3670 0.5510
L3.4730 0.4980
" />
<path d="M3.3670 4.7790
L3.2650 4.7210
" />
<path d="M3.3760 4.0080
L3.3400 3.9670
" />
<path d="M3.3770 1.3220
L3.4440 1.2510
" />
<path d="M3.3970 0.8890
L3.4400 0.8540
" />
<path d="M3.3990 4.4420
L3.3570 4.4070
" />
<path d="M3.4030 0.8850
L3.4610 0.8380
" />
<path d="M3.4130 4.0480
L3.3760 4.0080
" />
<path d="M3.4400 0.8540
L3.4840 0.8210
" />
<path d="M3.4420 4.4770
L3.3990 4.4420
" />
</g>
<g style="fill:#000000; fill-opacity:1.0000; stroke:none;">
<circle cx="3.4440" cy="1.2510" r="0.0100" /> 
</g>
<g style="fill:none; 
stroke:#000000; stroke-width:0.0200; stroke-opacity:1; 
stroke-linecap:round; stroke-linejoin:round;">
<path d="M3.4440 1.2510
L3.5150 1.1830
" />
<path d="M3.4520 4.0870
L3.4130 4.0480
" />
<path d="M3.4610 0.8380
L3.5210 0.7940
" />
<path d="M3.4610 4.4920
L3.3450 4.3970
" />
<path d="M3.4730 0.4980
L3.5800 0.4500
" />
<path d="M3.4730 4.8320
L3.3670 4.7790
" />
<path d="M3.4840 0.8210
L3.5280 0.7880
" />
<path d="M3.4850 4.5100
L3.4420 4.4770
" />
<path d="M3.4910 4.1240
L3.4520 4.0870
" />
<path d="M3.5150 1.1830
L3.5900 1.1190
" />
<path d="M3.5210 0.7940
L3.5820 0.7520
" />
<path d="M3.5280 0.7880
L3.5740 0.7570
" />
<path d="M3.5290 4.5420
L3.4850 4.5100
" />
<path d="M3.5320 4.1610
L3.4910 4.1240
" />
<path d="M3.5730 4.1970
L3.5320 4.1610
" />
<path d="M3.5740 0.7570
L3.6200 0.7270
" />
<path d="M3.5740 4.5730
L3.5290 4.5420
" />
<path d="M3.5800 0.4500
L3.6900 0.4080
" />
<path d="M3.5800 4.8800
L3.4730 4.8320
" />
<path d="M3.5820 0.7520
L3.6450 0.7110
" />
<path d="M3.5820 4.5780
L3.4610 4.4920
" />
<path d="M3.5900 1.1190
L3.6670 1.0580
" />
<path d="M3.6150 4.2320
L3.5730 4.1970
" />
<path d="M3.6200 0.7270
L3.6670 0.6980
" />
<path d="M3.6200 4.6030
L3.5740 4.5730
" />
<path d="M3.6450 0.7110
L3.7090 0.6730
" />
<path d="M3.6590 4.2650
L3.6150 4.2320
" />
</g>
<g style="fill:#000000; fill-opacity:1.0000; stroke:none;">
<circle cx="3.6590" cy="4.2650" r="0.0100" /> 
</g>
<g style="fill:none; 
stroke:#000000; stroke-width:0.0200; stroke-opacity:1; 
stroke-linecap:round; stroke-linejoin:round;">
<path d="M3.6670 0.6980
L3.7140 0.6700
" />
<path d="M3.6670 1.0580
L3.7480 1.0020
" />
<path d="M3.6670 4.6320
L3.6200 4.6030
" />
<path d="M3.6900 0.4080
L3.8020 0.3710
" />
<path d="M3.6900 4.9220
L3.5800 4.8800
" />
<path d="M3.7090 0.6730
L3.7740 0.6370
" />
<path d="M3.7090 4.6570
L3.5820 4.5780
" />
<path d="M3.7140 0.6700
L3.7620 0.6430
" />
<path d="M3.7140 4.6600
L3.6670 4.6320
" />
<path d="M3.7240 4.3120
L3.6590 4.2650
" />
<path d="M3.7480 1.0020
L3.8310 0.9490
" />
<path d="M3.7620 0.6430
L3.8110 0.6170
" />
<path d="M3.7620 4.6870
L3.7140 4.6600
" />
<path d="M3.7740 0.6370
L3.8400 0.6030
" />
<path d="M3.7910 4.3560
L3.7240 4.3120
" />
<path d="M3.8020 0.3710
L3.9150 0.3390
" />
<path d="M3.8020 4.9590
L3.6900 4.9220
" />
<path d="M3.8100 4.7120
L3.7620 4.6870
" />
<path d="M3.8110 0.6170
L3.8610 0.5920
" />
<path d="M3.8310 0.9490
L3.9160 0.9010
" />
<path d="M3.8400 0.6030
L3.9070 0.5710
" />
<path d="M3.8400 4.7270
L3.7090 4.6570
" />
<path d="M3.8600 4.3980
L3.7910 4.3560
" />
<path d="M3.8600 4.7370
L3.8100 4.7120
" />
<path d="M3.8610 0.5920
L3.9120 0.5690
" />
<path d="M3.9070 0.5710
L3.9760 0.5410
" />
<path d="M3.9100 4.7600
L3.8600 4.7370
" />
<path d="M3.9120 0.5690
L3.9630 0.5470
" />
<path d="M3.9150 0.3390
L4.0300 0.3130
" />
<path d="M3.9150 4.9910
L3.8020 4.9590
" />
<path d="M3.9160 0.9010
L4.0040 0.8570
" />
<path d="M3.9310 4.4370
L3.8600 4.3980
" />
<path d="M3.9610 4.7820
L3.9100 4.7600
" />
<path d="M3.9760 0.5410
L4.0450 0.5140
" />
<path d="M3.9760 4.7890
L3.8400 4.7270
" />
<path d="M4.0030 4.4720
L3.9310 4.4370
" />
<path d="M4.0040 0.8570
L4.0940 0.8170
" />
<path d="M4.0120 0.5260
L4.0630 0.5070
" />
<path d="M4.0120 4.8040
L3.9610 4.7820
" />
<path d="M4.0300 0.3130
L4.1460 0.2930
" />
<path d="M4.0300 5.0170
L3.9150 4.9910
" />
<path d="M4.0450 0.5140
L4.1150 0.4880
" />
<path d="M4.0630 0.5070
L4.1150 0.4890
" />
<path d="M4.0760 4.5050
L4.0030 4.4720
" />
<path d="M4.0780 4.8280
L4.0270 4.8100
" />
<path d="M4.0940 0.8170
L4.1850 0.7820
" />
<path d="M4.1150 0.4880
L4.1870 0.4650
" />
<path d="M4.1150 0.4890
L4.1660 0.4720
" />
<path d="M4.1150 4.8420
L3.9760 4.7890
" />
<path d="M4.1280 4.8460
L4.0780 4.8280
" />
<path d="M4.1460 0.2930
L4.2620 0.2790
" />
<path d="M4.1460 5.0370
L4.0300 5.0170
" />
<path d="M4.1510 4.5350
L4.0760 4.5050
" />
<path d="M4.1660 0.4720
L4.2180 0.4560
" />
<path d="M4.1790 4.8620
L4.1280 4.8460
" />
<path d="M4.1850 0.7820
L4.2780 0.7510
" />
<path d="M4.1870 0.4650
L4.2590 0.4450
" />
<path d="M4.2180 0.4560
L4.2700 0.4410
" />
<path d="M4.2260 4.5620
L4.1510 4.5350
" />
<path d="M4.2300 4.8770
L4.1790 4.8620
" />
<path d="M4.2590 0.4450
L4.3320 0.4260
" />
<path d="M4.2590 4.8850
L4.1150 4.8420
" />
<path d="M4.2620 0.2790
L4.3800 0.2700
" />
<path d="M4.2620 5.0510
L4.1460 5.0370
" />
<path d="M4.2700 0.4410
L4.3220 0.4280
" />
<path d="M4.2780 0.7510
L4.3730 0.7250
" />
<path d="M4.2810 4.8910
L4.2300 4.8770
" />
<path d="M4.3030 4.5860
L4.2260 4.5620
" />
<path d="M4.3220 0.4280
L4.3750 0.4160
" />
<path d="M4.3320 0.4260
L4.4050 0.4100
" />
<path d="M4.3320 4.9040
L4.2810 4.8910
" />
<path d="M4.3730 0.7250
L4.4690 0.7030
" />
<path d="M4.3750 0.4160
L4.4280 0.4050
" />
<path d="M4.3800 0.2700
L4.4970 0.2670
" />
<path d="M4.3800 5.0600
L4.2620 5.0510
" />
<path d="M4.3810 4.6070
L4.3030 4.5860
" />
<path d="M4.3840 4.9160
L4.3320 4.9040
" />
<path d="M4.4050 0.4100
L4.4790 0.3960
" />
<path d="M4.4050 4.9200
L4.2590 4.8850
" />
<path d="M4.4280 0.4050
L4.4810 0.3960
" />
<path d="M4.4360 4.9260
L4.3840 4.9160
" />
<path d="M4.4590 4.6250
L4.3810 4.6070
" />
<path d="M4.4690 0.7030
L4.5650 0.6860
" />
<path d="M4.4790 0.3960
L4.5540 0.3850
" />
<path d="M4.4810 0.3960
L4.5340 0.3880
" />
<path d="M4.4880 4.9350
L4.4360 4.9260
" />
<path d="M4.4970 5.0630
L4.3800 5.0600
" />
<path d="M4.4970 5.0630
L11.0530 5.0630
" />
<path d="M4.5340 0.3880
L4.5870 0.3810
" />
<path d="M4.5380 4.6390
L4.4590 4.6250
" />
<path d="M4.5400 4.9430
L4.4880 4.9350
" />
<path d="M4.5540 0.3850
L4.6300 0.3760
" />
<path d="M4.5540 4.9450
L4.4050 4.9200
" />
<path d="M4.5650 0.6860
L4.6630 0.6740
" />
<path d="M4.5870 0.3810
L4.6410 0.3750
" />
<path d="M4.5930 4.9500
L4.5400 4.9430
" />
<path d="M4.6180 4.6510
L4.5380 4.6390
" />
<path d="M4.6300 0.3760
L4.7060 0.3700
" />
<path d="M4.6410 0.3750
L4.6950 0.3710
" />
<path d="M4.6450 4.9550
L4.5930 4.9500
" />
<path d="M4.6630 0.6740
L4.7610 0.6670
" />
<path d="M4.6950 0.3710
L4.7490 0.3680
" />
<path d="M4.6980 4.6590
L4.6180 4.6510
" />
<path d="M4.6980 4.9590
L4.6450 4.9550
" />
<path d="M4.7060 0.3700
L4.7820 0.3660
" />
<path d="M4.7060 4.9600
L4.5540 4.9450
" />
<path d="M4.7490 0.3680
L4.8040 0.3660
" />
<path d="M4.7520 4.9630
L4.6980 4.9590
" />
<path d="M4.7610 0.6670
L4.8590 0.6650
" />
<path d="M4.7780 4.6630
L4.6980 4.6590
" />
<path d="M4.7820 0.3660
L4.8590 0.3650
" />
<path d="M4.8040 0.3660
L4.8590 0.3650
" />
<path d="M4.8050 4.9640
L4.7520 4.9630
" />
<path d="M4.8590 4.6650
L4.7780 4.6630
" />
<path d="M4.8590 4.9650
L4.7060 4.9600
" />
<path d="M4.8590 4.9650
L4.8050 4.9640
" />
<path d="M4.8590 4.9650
L10.5590 4.9650
" />
<path d="M10.5590 0.3650
L4.8590 0.3650
" />
<path d="M10.5590 0.3650
L10.6130 0.3660
" />
<path d="M10.5590 0.3650
L10.6730 0.3680
" />
<path d="M10.5590 0.6650
L10.6390 0.6670
" />
<path d="M10.5590 4.9650
L4.8590 4.9650
" />
<path d="M10.6130 0.3660
L10.6660 0.3670
" />
<path d="M10.6140 4.9640
L10.5590 4.9650
" />
<path d="M10.6390 0.6670
L10.7200 0.6710
" />
<path d="M10.6570 4.6630
L10.5590 4.6650
" />
<path d="M10.6660 0.3670
L10.7190 0.3710
" />
<path d="M10.6680 4.9620
L10.6140 4.9640
" />
<path d="M10.6730 0.3680
L10.7860 0.3760
" />
<path d="M10.6730 4.9620
L10.5590 4.9650
" />
<path d="M10.7190 0.3710
L10.7720 0.3750
" />
<path d="M10.7200 0.6710
L10.8000 0.6790
" />
<path d="M10.7220 4.9590
L10.6680 4.9620
" />
<path d="M10.7550 4.6560
L10.6570 4.6630
" />
<path d="M10.7720 0.3750
L10.8250 0.3800
" />
<path d="M10.7760 4.9550
L10.7220 4.9590
" />
<path d="M10.7860 0.3760
L10.8980 0.3900
" />
<path d="M10.7860 4.9540
L10.6730 4.9620
" />
<path d="M10.8000 0.6790
L10.8790 0.6910
" />
<path d="M10.8250 0.3800
L10.8780 0.3870
" />
<path d="M10.8300 4.9490
L10.7760 4.9550
" />
<path d="M10.8520 4.6440
L10.7550 4.6560
" />
<path d="M10.8780 0.3870
L10.9300 0.3950
" />
<path d="M10.8790 0.6910
L10.9580 0.7050
" />
<path d="M10.8840 4.9420
L10.8300 4.9490
" />
<path d="M10.8980 0.3900
L11.0100 0.4100
" />
<path d="M10.8980 4.9400
L10.7860 4.9540
" />
<path d="M10.9300 0.3950
L10.9820 0.4040
" />
<path d="M10.9370 4.9340
L10.8840 4.9420
" />
<path d="M10.9490 4.6270
L10.8520 4.6440
" />
<path d="M10.9580 0.7050
L11.0370 0.7230
" />
<path d="M10.9820 0.4040
L11.0340 0.4140
" />
<path d="M10.9900 4.9250
L10.9370 4.9340
" />
<path d="M11.0100 0.4100
L11.1190 0.4340
" />
<path d="M11.0100 4.9200
L10.8980 4.9400
" />
<path d="M11.0340 0.4140
L11.0850 0.4260
" />
<path d="M11.0370 0.7230
L11.1140 0.7440
" />
<path d="M11.0430 4.9140
L10.9900 4.9250
" />
<path d="M11.0450 4.6050
L10.9490 4.6270
" />
<path d="M11.0530 0.2670
L4.4970 0.2670
" />
<path d="M11.0530 0.2670
L11.1700 0.2700
" />
<path d="M11.0850 0.4260
L11.1370 0.4390
" />
<path d="M11.0950 4.9020
L11.0430 4.9140
" />
<path d="M11.1140 0.7440
L11.1910 0.7680
" />
<path d="M11.1190 0.4340
L11.2280 0.4640
" />
<path d="M11.1190 4.8960
L11.0100 4.9200
" />
<path d="M11.1370 0.4390
L11.1880 0.4530
" />
<path d="M11.1390 4.5790
L11.0450 4.6050
" />
<path d="M11.1480 4.8890
L11.0950 4.9020
" />
<path d="M11.1700 0.2700
L11.2880 0.2790
" />
<path d="M11.1700 5.0600
L11.0530 5.0630
" />
<path d="M11.1880 0.4530
L11.2390 0.4680
" />
<path d="M11.1910 0.7680
L11.2670 0.7950
" />
<path d="M11.2000 4.8740
L11.1480 4.8890
" />
<path d="M11.2280 0.4640
L11.3340 0.5000
" />
<path d="M11.2280 4.8660
L11.1190 4.8960
" />
<path d="M11.2330 4.5480
L11.1390 4.5790
" />
<path d="M11.2390 0.4680
L11.2900 0.4840
" />
<path d="M11.2520 4.8580
L11.2000 4.8740
" />
<path d="M11.2670 0.7950
L11.3420 0.8250
" />
<path d="M11.2880 0.2790
L11.4040 0.2930
" />
<path d="M11.2880 5.0510
L11.1700 5.0600
" />
<path d="M11.2900 0.4840
L11.3400 0.5020
" />
<path d="M11.3030 4.8410
L11.2520 4.8580
" />
<path d="M11.3240 4.5130
L11.2330 4.5480
" />
<path d="M11.3340 0.5000
L11.4390 0.5400
" />
<path d="M11.3340 4.8300
L11.2280 4.8660
" />
<path d="M11.3400 0.5020
L11.3900 0.5200
" />
<path d="M11.3420 0.8250
L11.4150 0.8580
" />
<path d="M11.3540 4.8230
L11.3030 4.8410
" />
<path d="M11.4040 0.2930
L11.5200 0.3130
" />
<path d="M11.4040 5.0370
L11.2880 5.0510
" />
<path d="M11.4050 0.5260
L11.4570 0.5480
" />
<path d="M11.4050 4.8040
L11.3540 4.8230
" />
<path d="M11.4140 4.4730
L11.3240 4.5130
" />
<path d="M11.4150 0.8580
L11.4870 0.8930
" />
<path d="M11.4390 0.5400
L11.5420 0.5860
" />
<path d="M11.4390 4.7900
L11.3340 4.8300
" />
<path d="M11.4570 0.5480
L11.5080 0.5700
" />
<path d="M11.4870 0.8930
L11.5580 0.9320
" />
<path d="M11.5020 4.4290
L11.4140 4.4730
" />
<path d="M11.5060 4.7610
L11.4540 4.7830
" />
<path d="M11.5080 0.5700
L11.5580 0.5930
" />
<path d="M11.5200 0.3130
L11.6350 0.3390
" />
<path d="M11.5200 5.0170
L11.4040 5.0370
" />
<path d="M11.5420 0.5860
L11.6420 0.6360
" />
<path d="M11.5420 4.7440
L11.4390 4.7900
" />
<path d="M11.5560 4.7380
L11.5060 4.7610
" />
<path d="M11.5580 0.5930
L11.6070 0.6180
" />
<path d="M11.5580 0.9320
L11.6260 0.9740
" />
<path d="M11.5870 4.3810
L11.5020 4.4290
" />
<path d="M11.6060 4.7130
L11.5560 4.7380
" />
<path d="M11.6070 0.6180
L11.6560 0.6430
" />
<path d="M11.6260 0.9740
L11.6940 1.0180
" />
<path d="M11.6350 0.3390
L11.7480 0.3710
" />
<path d="M11.6350 4.9910
L11.5200 5.0170
" />
<path d="M11.6420 0.6360
L11.7400 0.6910
" />
<path d="M11.6420 4.6940
L11.5420 4.7440
" />
<path d="M11.6550 4.6870
L11.6060 4.7130
" />
<path d="M11.6560 0.6430
L11.7040 0.6700
" />
<path d="M11.6700 4.3280
L11.5870 4.3810
" />
<path d="M11.6940 1.0180
L11.7590 1.0650
" />
<path d="M11.7040 0.6700
L11.7510 0.6980
" />
<path d="M11.7040 4.6600
L11.6550 4.6870
" />
<path d="M11.7400 0.6910
L11.8350 0.7510
" />
<path d="M11.7400 4.6390
L11.6420 4.6940
" />
<path d="M11.7480 0.3710
L11.8600 0.4080
" />
<path d="M11.7480 4.9590
L11.6350 4.9910
" />
<path d="M11.7500 4.2720
L11.6700 4.3280
" />
<path d="M11.7510 0.6980
L11.7970 0.7270
" />
<path d="M11.7510 4.6320
L11.7040 4.6600
" />
</g>
<g style="fill:#000000; fill-opacity:1.0000; stroke:none;">
<circle cx="11.7590" cy="1.0650" r="0.0100" /> 
</g>
<g style="fill:none; 
stroke:#000000; stroke-width:0.0200; stroke-opacity:1; 
stroke-linecap:round; stroke-linejoin:round;">
<path d="M11.7590 1.0650
L11.8020 1.0980
" />
<path d="M11.7970 0.7270
L11.8430 0.7570
" />
<path d="M11.7980 4.6030
L11.7510 4.6320
" />
<path d="M11.8020 1.0980
L11.8450 1.1330
" />
<path d="M11.8280 4.2110
L11.7500 4.2720
" />
<path d="M11.8350 0.7510
L11.9270 0.8160
" />
<path d="M11.8350 4.5790
L11.7400 4.6390
" />
<path d="M11.8430 0.7570
L11.8880 0.7880
" />
<path d="M11.8440 4.5730
L11.7980 4.6030
" />
<path d="M11.8450 1.1330
L11.8860 1.1690
" />
<path d="M11.8600 0.4080
L11.9700 0.4500
" />
<path d="M11.8600 4.9220
L11.7480 4.9590
" />
<path d="M11.8860 1.1690
L11.9260 1.2060
" />
<path d="M11.8880 0.7880
L11.9320 0.8200
" />
<path d="M11.8890 4.5420
L11.8440 4.5730
" />
<path d="M11.9020 4.1470
L11.8280 4.2110
" />
<path d="M11.9260 1.2060
L11.9660 1.2430
" />
<path d="M11.9270 0.8160
L12.0160 0.8860
" />
<path d="M11.9270 4.5140
L11.8350 4.5790
" />
<path d="M11.9320 0.8200
L11.9760 0.8530
" />
<path d="M11.9340 4.5090
L11.8890 4.5420
" />
<path d="M11.9660 1.2430
L12.0040 1.2820
" />
<path d="M11.9700 0.4500
L12.0770 0.4980
" />
<path d="M11.9700 4.8800
L11.8600 4.9220
" />
<path d="M11.9730 4.0790
L11.9020 4.1470
" />
</g>
<g style="fill:#000000; fill-opacity:1.0000; stroke:none;">
<circle cx="11.9730" cy="4.0790" r="0.0100" /> 
</g>
<g style="fill:none; 
stroke:#000000; stroke-width:0.0200; stroke-opacity:1; 
stroke-linecap:round; stroke-linejoin:round;">
<path d="M11.9760 0.8530
L12.0190 0.8880
" />
<path d="M11.9780 4.4760
L11.9340 4.5090
" />
<path d="M12.0040 1.2820
L12.0420 1.3220
" />
<path d="M12.0160 0.8860
L12.1030 0.9600
" />
<path d="M12.0160 4.4440
L11.9270 4.5140
" />
<path d="M12.0190 0.8880
L12.0610 0.9230
" />
<path d="M12.0210 4.4410
L11.9780 4.4760
" />
<path d="M12.0410 4.0080
L11.9730 4.0790
" />
<path d="M12.0420 1.3220
L12.0780 1.3630
" />
<path d="M12.0610 0.9230
L12.1020 0.9600
" />
<path d="M12.0630 4.4050
L12.0210 4.4410
" />
<path d="M12.0770 0.4980
L12.1830 0.5510
" />
<path d="M12.0770 4.8320
L11.9700 4.8800
" />
<path d="M12.0780 1.3630
L12.1130 1.4050
" />
<path d="M12.1020 0.9600
L12.1430 0.9980
" />
<path d="M12.1030 0.9600
L12.1850 1.0390
" />
<path d="M12.1030 4.3700
L12.0160 4.4440
" />
<path d="M12.1040 4.3680
L12.0630 4.4050
" />
<path d="M12.1050 3.9340
L12.0410 4.0080
" />
<path d="M12.1130 1.4050
L12.1470 1.4480
" />
<path d="M12.1450 4.3300
L12.1040 4.3680
" />
<path d="M12.1470 1.4480
L12.1800 1.4920
" />
<path d="M12.1660 3.8570
L12.1050 3.9340
" />
<path d="M12.1800 1.4920
L12.2110 1.5370
" />
<path d="M12.1830 0.5510
L12.2850 0.6090
" />
<path d="M12.1830 4.7790
L12.0770 4.8320
" />
</g>
<g style="fill:#000000; fill-opacity:1.0000; stroke:none;">
<circle cx="12.1850" cy="1.0390" r="0.0100" /> 
</g>
<g style="fill:none; 
stroke:#000000; stroke-width:0.0200; stroke-opacity:1; 
stroke-linecap:round; stroke-linejoin:round;">
<path d="M12.1850 1.0390
L12.2240 1.0790
" />
<path d="M12.1850 1.0390
L12.2640 1.1210
" />
<path d="M12.1850 4.2910
L12.1030 4.3700
" />
<path d="M12.1850 4.2910
L12.1450 4.3300
" />
</g>
<g style="fill:#000000; fill-opacity:1.0000; stroke:none;">
<circle cx="12.1850" cy="4.2910" r="0.0100" /> 
</g>
<g style="fill:none; 
stroke:#000000; stroke-width:0.0200; stroke-opacity:1; 
stroke-linecap:round; stroke-linejoin:round;">
<path d="M12.2110 1.5370
L12.2410 1.5820
" />
<path d="M12.2220 3.7760
L12.1660 3.8570
" />
<path d="M12.2240 1.0790
L12.2620 1.1190
" />
<path d="M12.2410 1.5820
L12.2700 1.6290
" />
<path d="M12.2620 1.1190
L12.2990 1.1610
" />
<path d="M12.2640 1.1210
L12.3380 1.2070
" />
<path d="M12.2640 4.2090
L12.1850 4.2910
" />
<path d="M12.2640 4.2090
L12.2260 4.2490
" />
<path d="M12.2700 1.6290
L12.2970 1.6760
" />
<path d="M12.2740 3.6930
L12.2220 3.7760
" />
<path d="M12.2850 0.6090
L12.3840 0.6710
" />
<path d="M12.2850 4.7210
L12.1830 4.7790
" />
<path d="M12.2970 1.6760
L12.3240 1.7240
" />
<path d="M12.2990 1.1610
L12.3350 1.2030
" />
<path d="M12.3010 4.1670
L12.2640 4.2090
" />
<path d="M12.3230 3.6080
L12.2740 3.6930
" />
</g>
<g style="fill:#000000; fill-opacity:1.0000; stroke:none;">
<circle cx="12.3240" cy="1.7240" r="0.0100" /> 
</g>
<g style="fill:none; 
stroke:#000000; stroke-width:0.0200; stroke-opacity:1; 
stroke-linecap:round; stroke-linejoin:round;">
<path d="M12.3240 1.7240
L12.3370 1.7510
" />
<path d="M12.3350 1.2030
L12.3700 1.2460
" />
<path d="M12.3360 4.1250
L12.3010 4.1670
" />
<path d="M12.3370 1.7510
L12.3510 1.7780
" />
<path d="M12.3380 1.2070
L12.4070 1.2970
" />
<path d="M12.3380 4.1230
L12.2640 4.2090
" />
<path d="M12.3510 1.7780
L12.3640 1.8050
" />
<path d="M12.3640 1.8050
L12.3770 1.8320
" />
<path d="M12.3670 3.5200
L12.3230 3.6080
" />
<path d="M12.3700 1.2460
L12.4030 1.2900
" />
<path d="M12.3710 4.0820
L12.3360 4.1250
" />
<path d="M12.3770 1.8320
L12.3890 1.8600
" />
<path d="M12.3840 0.6710
L12.4810 0.7390
" />
<path d="M12.3840 4.6590
L12.2850 4.7210
" />
<path d="M12.3890 1.8600
L12.4010 1.8870
" />
<path d="M12.4010 1.8870
L12.4130 1.9150
" />
<path d="M12.4030 1.2900
L12.4360 1.3350
" />
<path d="M12.4040 4.0390
L12.3710 4.0820
" />
<path d="M12.4060 3.4300
L12.3670 3.5200
" />
<path d="M12.4070 1.2970
L12.4720 1.3890
" />
<path d="M12.4070 4.0330
L12.3380 4.1230
" />
<path d="M12.4130 1.9150
L12.4240 1.9430
" />
</g>
<g style="fill:#000000; fill-opacity:1.0000; stroke:none;">
<circle cx="12.4240" cy="1.9430" r="0.0100" /> 
</g>
<g style="fill:none; 
stroke:#000000; stroke-width:0.0200; stroke-opacity:1; 
stroke-linecap:round; stroke-linejoin:round;">
<path d="M12.4240 1.9430
L12.4250 1.9470
" />
<path d="M12.4250 1.9470
L12.4300 1.9580
" />
<path d="M12.4300 1.9580
L12.4360 1.9760
" />
<path d="M12.4360 1.3350
L12.4670 1.3800
" />
<path d="M12.4360 1.9760
L12.4450 2.0000
" />
<path d="M12.4360 3.9940
L12.4040 4.0390
" />
<path d="M12.4420 3.3390
L12.4060 3.4300
" />
<path d="M12.4450 2.0000
L12.4510 2.0160
" />
<path d="M12.4510 2.0160
L12.4560 2.0320
" />
<path d="M12.4560 2.0320
L12.4620 2.0510
" />
<path d="M12.4620 2.0510
L12.4690 2.0720
" />
<path d="M12.4670 1.3800
L12.4970 1.4260
" />
<path d="M12.4670 3.9490
L12.4360 3.9940
" />
<path d="M12.4690 2.0720
L12.4760 2.0940
" />
<path d="M12.4720 1.3890
L12.5330 1.4840
" />
<path d="M12.4720 3.9410
L12.4070 4.0330
" />
<path d="M12.4730 3.2460
L12.4420 3.3390
" />
<path d="M12.4760 2.0940
L12.4830 2.1190
" />
<path d="M12.4810 0.7390
L12.5740 0.8110
" />
<path d="M12.4810 4.5910
L12.3840 4.6590
" />
<path d="M12.4830 2.1190
L12.4900 2.1450
" />
<path d="M12.4900 2.1450
L12.4970 2.1730
" />
<path d="M12.4970 1.4260
L12.5260 1.4730
" />
</g>
<g style="fill:#000000; fill-opacity:1.0000; stroke:none;">
<circle cx="12.4970" cy="2.1730" r="0.0100" /> 
</g>
<g style="fill:none; 
stroke:#000000; stroke-width:0.0200; stroke-opacity:1; 
stroke-linecap:round; stroke-linejoin:round;">
<path d="M12.4970 2.1730
L12.5120 2.2330
" />
<path d="M12.4970 3.9040
L12.4670 3.9490
" />
<path d="M12.4990 3.1510
L12.4730 3.2460
" />
<path d="M12.5120 2.2330
L12.5240 2.2940
" />
<path d="M12.5210 3.0550
L12.4990 3.1510
" />
<path d="M12.5240 2.2940
L12.5350 2.3550
" />
<path d="M12.5260 1.4730
L12.5540 1.5200
" />
<path d="M12.5260 3.8570
L12.4970 3.9040
" />
<path d="M12.5330 1.4840
L12.5880 1.5820
" />
<path d="M12.5330 3.8460
L12.4720 3.9410
" />
<path d="M12.5350 2.3550
L12.5430 2.4170
" />
<path d="M12.5370 2.9590
L12.5210 3.0550
" />
<path d="M12.5430 2.4170
L12.5500 2.4790
" />
<path d="M12.5500 2.4790
L12.5550 2.5410
" />
<path d="M12.5500 2.8610
L12.5370 2.9590
" />
<path d="M12.5540 1.5200
L12.5810 1.5690
" />
<path d="M12.5540 3.8100
L12.5260 3.8570
" />
<path d="M12.5550 2.5410
L12.5580 2.6030
" />
<path d="M12.5570 2.7630
L12.5500 2.8610
" />
<path d="M12.5580 2.6030
L12.5590 2.6650
" />
<path d="M12.5590 2.6650
L12.5570 2.7630
" />
<path d="M12.5740 0.8110
L12.6630 0.8880
" />
<path d="M12.5740 4.5190
L12.4810 4.5910
" />
<path d="M12.5810 1.5690
L12.6070 1.6180
" />
<path d="M12.5810 3.7620
L12.5540 3.8100
" />
<path d="M12.5880 1.5820
L12.6380 1.6820
" />
<path d="M12.5880 3.7480
L12.5330 3.8460
" />
<path d="M12.6060 3.7130
L12.5810 3.7620
" />
<path d="M12.6070 1.6180
L12.6310 1.6670
" />
<path d="M12.6310 1.6670
L12.6550 1.7180
" />
<path d="M12.6310 3.6640
L12.6060 3.7130
" />
<path d="M12.6380 1.6820
L12.6840 1.7850
" />
<path d="M12.6380 3.6480
L12.5880 3.7480
" />
<path d="M12.6540 3.6140
L12.6310 3.6640
" />
<path d="M12.6550 1.7180
L12.6770 1.7690
" />
<path d="M12.6630 0.8880
L12.7480 0.9700
" />
<path d="M12.6630 4.4420
L12.5740 4.5190
" />
<path d="M12.6760 3.5630
L12.6540 3.6140
" />
<path d="M12.6840 1.7850
L12.7240 1.8900
" />
<path d="M12.6840 3.5450
L12.6380 3.6480
" />
<path d="M12.6970 1.8180
L12.7150 1.8650
" />
<path d="M12.6970 3.5120
L12.6760 3.5630
" />
</g>
<g style="fill:#000000; fill-opacity:1.0000; stroke:none;">
<circle cx="12.6970" cy="3.5120" r="0.0100" /> 
</g>
<g style="fill:none; 
stroke:#000000; stroke-width:0.0200; stroke-opacity:1; 
stroke-linecap:round; stroke-linejoin:round;">
<path d="M12.7150 1.8650
L12.7320 1.9120
" />
<path d="M12.7170 3.4600
L12.6970 3.5120
" />
<path d="M12.7240 1.8900
L12.7590 1.9960
" />
<path d="M12.7240 3.4400
L12.6840 3.5450
" />
<path d="M12.7320 1.9120
L12.7480 1.9600
" />
<path d="M12.7350 3.4090
L12.7170 3.4600
" />
</g>
<g style="fill:#000000; fill-opacity:1.0000; stroke:none;">
<circle cx="12.7480" cy="0.9700" r="0.0100" /> 
</g>
<g style="fill:none; 
stroke:#000000; stroke-width:0.0200; stroke-opacity:1; 
stroke-linecap:round; stroke-linejoin:round;">
<path d="M12.7480 0.9700
L12.8290 1.0550
" />
<path d="M12.7480 1.9600
L12.7630 2.0070
" />
<path d="M12.7480 4.3600
L12.6630 4.4420
" />
</g>
<g style="fill:#000000; fill-opacity:1.0000; stroke:none;">
<circle cx="12.7480" cy="4.3600" r="0.0100" /> 
</g>
<g style="fill:none; 
stroke:#000000; stroke-width:0.0200; stroke-opacity:1; 
stroke-linecap:round; stroke-linejoin:round;">
<path d="M12.7520 3.3570
L12.7350 3.4090
" />
<path d="M12.7590 1.9960
L12.7890 2.1040
" />
<path d="M12.7590 3.3340
L12.7240 3.4400
" />
<path d="M12.7630 2.0070
L12.7770 2.0550
" />
<path d="M12.7680 3.3050
L12.7520 3.3570
" />
<path d="M12.7770 2.0550
L12.7890 2.1030
" />
<path d="M12.7830 3.2530
L12.7680 3.3050
" />
<path d="M12.7890 2.1030
L12.8010 2.1510
" />
<path d="M12.7890 2.1040
L12.8140 2.2140
" />
<path d="M12.7890 3.2260
L12.7590 3.3340
" />
<path d="M12.7960 3.2010
L12.7830 3.2530
" />
<path d="M12.8010 2.1510
L12.8110 2.1990
" />
<path d="M12.8080 3.1480
L12.7960 3.2010
" />
<path d="M12.8110 2.1990
L12.8210 2.2480
" />
<path d="M12.8140 2.2140
L12.8340 2.3250
" />
<path d="M12.8140 3.1160
L12.7890 3.2260
" />
<path d="M12.8190 3.0960
L12.8080 3.1480
" />
<path d="M12.8210 2.2480
L12.8290 2.2970
" />
<path d="M12.8280 3.0420
L12.8190 3.0960
" />
<path d="M12.8290 1.0550
L12.9060 1.1440
" />
<path d="M12.8290 2.2970
L12.8370 2.3460
" />
<path d="M12.8290 4.2750
L12.7480 4.3600
" />
<path d="M12.8340 2.3250
L12.8480 2.4380
" />
<path d="M12.8340 3.0050
L12.8140 3.1160
" />
<path d="M12.8360 2.9890
L12.8280 3.0420
" />
<path d="M12.8370 2.3460
L12.8430 2.3950
" />
<path d="M12.8430 2.3950
L12.8480 2.4440
" />
<path d="M12.8430 2.9360
L12.8360 2.9890
" />
<path d="M12.8480 2.4380
L12.8560 2.5510
" />
<path d="M12.8480 2.4440
L12.8530 2.4940
" />
<path d="M12.8480 2.8920
L12.8340 3.0050
" />
<path d="M12.8490 2.8820
L12.8430 2.9360
" />
<path d="M12.8530 2.4940
L12.8560 2.5440
" />
<path d="M12.8530 2.8280
L12.8490 2.8820
" />
<path d="M12.8560 2.5440
L12.8580 2.5940
" />
<path d="M12.8560 2.5510
L12.8590 2.6650
" />
<path d="M12.8560 2.7740
L12.8530 2.8280
" />
<path d="M12.8560 2.7790
L12.8480 2.8920
" />
<path d="M12.8580 2.7200
L12.8560 2.7740
" />
<path d="M12.8590 2.6650
L12.8560 2.7790
" />
<path d="M12.8590 2.6650
L12.8580 2.7200
" />
<path d="M12.9060 1.1440
L12.9780 1.2370
" />
<path d="M12.9060 4.1860
L12.8290 4.2750
" />
<path d="M12.9780 1.2370
L13.0460 1.3330
" />
<path d="M12.9780 4.0930
L12.9060 4.1860
" />
<path d="M13.0460 1.3330
L13.1090 1.4330
" />
<path d="M13.0460 3.9970
L12.9780 4.0930
" />
<path d="M13.1090 1.4330
L13.1670 1.5350
" />
<path d="M13.1090 3.8970
L13.0460 3.9970
" />
<path d="M13.1670 1.5350
L13.2190 1.6400
" />
<path d="M13.1670 3.7950
L13.1090 3.8970
" />
<path d="M13.2190 1.6400
L13.2670 1.7480
" />
<path d="M13.2190 3.6900
L13.1670 3.7950
" />
<path d="M13.2670 1.7480
L13.3090 1.8570
" />
<path d="M13.2670 3.5820
L13.2190 3.6900
" />
<path d="M13.3090 1.8570
L13.3470 1.9690
" />
<path d="M13.3090 3.4730
L13.2670 3.5820
" />
<path d="M13.3470 1.9690
L13.3780 2.0820
" />
<path d="M13.3470 3.3610
L13.3090 3.4730
" />
<path d="M13.3780 2.0820
L13.4040 2.1970
" />
<path d="M13.3780 3.2480
L13.3470 3.3610
" />
<path d="M13.4040 2.1970
L13.4240 2.3130
" />
<path d="M13.4040 3.1330
L13.3780 3.2480
" />
<path d="M13.4240 2.3130
L13.4390 2.4300
" />
<path d="M13.4240 3.0170
L13.4040 3.1330
" />
<path d="M13.4390 2.4300
L13.4470 2.5470
" />
<path d="M13.4390 2.9000
L13.4240 3.0170
" />
<path d="M13.4470 2.5470
L13.4500 2.6650
" />
<path d="M13.4470 2.7830
L13.4390 2.9000
" />
<path d="M13.4500 2.6650
L13.4470 2.7830
" />
</g>
<g style="fill:#000000; fill-opacity:1.0000; stroke:none;">
<circle cx="13.4500" cy="2.6650" r="0.0100" /> 
</g>
<g style="fill:none; 
stroke:#000000; stroke-width:0.0200; stroke-opacity:1; 
stroke-linecap:round; stroke-linejoin:round;">
<path d="M13.4750 0.2650
L13.4750 5.0650
" />
<path d="M13.4750 2.3600
L14.3750 2.3600
" />
<path d="M13.4750 5.0650
L2.0750 5.0650
" />
<path d="M14.3750 2.3600
L14.3750 2.9900
" />
<path d="M14.3750 2.9900
L13.4750 2.9900
" />
</g> 
</svg>
