{
  "accessors": [
    {
      "bufferView": 0,
      "byteOffset": 0,
      "componentType": 5126,
      "normalized": false,
      "count": 57,
      "type": "VEC3",
      "max": [
        0.800000011920929,
        0.8999572992324829,
        0.4000488221645355
      ],
      "min": [
        -0.800000011920929,
        0.0,
        -0.4000000059604645
      ]
    },
    {
      "bufferView": 0,
      "byteOffset": 12,
      "componentType": 5126,
      "normalized": false,
      "count": 57,
      "type": "VEC3"
    },
    {
      "bufferView": 0,
      "byteOffset": 24,
      "componentType": 5126,
      "normalized": false,
      "count": 57,
      "type": "VEC2"
    },
    {
      "bufferView": 1,
      "byteOffset": 0,
      "componentType": 5123,
      "normalized": false,
      "count": 102,
      "type": "SCALAR"
    },
    {
      "bufferView": 1,
      "byteOffset": 204,
      "componentType": 5123,
      "normalized": false,
      "count": 24,
      "type": "SCALAR"
    },
    {
      "bufferView": 2,
      "byteOffset": 0,
      "componentType": 5126,
      "normalized": false,
      "count": 16,
      "type": "VEC3",
      "max": [
        0.44999995827674866,
        0.8845226764678955,
        0.38483110070228577
      ],
      "min": [
        -0.44999995827674866,
        0.01649489998817444,
        -0.38480809330940247
      ]
    },
    {
      "bufferView": 2,
      "byteOffset": 12,
      "componentType": 5126,
      "normalized": false,
      "count": 16,
      "type": "VEC3"
    },
    {
      "bufferView": 2,
      "byteOffset": 24,
      "componentType": 5126,
      "normalized": false,
      "count": 16,
      "type": "VEC2"
    }
  ],
  "asset": {
    "generator": "pygltflib@v1.16.4",
    "version": "2.0"
  },
  "bufferViews": [
    {
      "buffer": 0,
      "byteOffset": 0,
      "byteLength": 1824,
      "byteStride": 32,
      "target": 34962
    },
    {
      "buffer": 0,
      "byteOffset": 1824,
      "byteLength": 252,
      "target": 34963
    },
    {
      "buffer": 0,
      "byteOffset": 2076,
      "byteLength": 512,
      "byteStride": 32,
      "target": 34962
    }
  ],
  "buffers": [
    {
      "uri": "L_0603_1608Metric.bin",
      "byteLength": 2588
    }
  ],
  "extensionsUsed": [
    "KHR_materials_clearcoat",
    "KHR_materials_ior",
    "KHR_materials_sheen",
    "KHR_materials_specular",
    "KHR_texture_basisu"
  ],
  "extensionsRequired": [
    "KHR_texture_basisu"
  ],
  "images": [
    {
      "uri": "../shared_textures/metal_pins_normal.ktx2",
      "mimeType": "image/ktx2",
      "name": "metal_pins_normal"
    },
    {
      "uri": "../shared_textures/metal_pins_color.ktx2",
      "mimeType": "image/ktx2",
      "name": "metal_pins_color"
    },
    {
      "uri": "../shared_textures/inductor_ceramic_2_color.ktx2",
      "mimeType": "image/ktx2",
      "name": "inductor_ceramic_2_color"
    }
  ],
  "materials": [
    {
      "extensions": {
        "KHR_materials_ior": {
          "ior": 1.4500000476837158
        },
        "KHR_materials_specular": {
          "specularFactor": 0
        }
      },
      "pbrMetallicRoughness": {
        "baseColorFactor": [
          1.0,
          1.0,
          1.0,
          1.0
        ],
        "metallicFactor": 0.7818182110786438,
        "roughnessFactor": 0.28863638639450073,
        "baseColorTexture": {
          "index": 0,
          "texCoord": 0
        }
      },
      "normalTexture": {
        "index": 1,
        "scale": 1.0
      },
      "emissiveFactor": [
        0.0,
        0.0,
        0.0
      ],
      "alphaMode": "OPAQUE",
      "alphaCutoff": 0.5,
      "doubleSided": true,
      "name": "gltf_metal_pins"
    },
    {
      "extensions": {
        "KHR_materials_clearcoat": {
          "clearcoatFactor": 0,
          "clearcoatRoughnessFactor": 0.3500000238418579
        },
        "KHR_materials_ior": {
          "ior": 1.4500000476837158
        },
        "KHR_materials_sheen": {
          "sheenColorFactor": [
            1,
            1,
            1
          ],
          "sheenRoughnessFactor": 0.5
        },
        "KHR_materials_specular": {
          "specularColorFactor": [
            1.9839683771133423,
            1.983644962310791,
            1.9872915744781494
          ]
        }
      },
      "pbrMetallicRoughness": {
        "baseColorFactor": [
          1.0,
          1.0,
          1.0,
          1.0
        ],
        "metallicFactor": 0.8999999761581421,
        "roughnessFactor": 0.49300000071525574,
        "baseColorTexture": {
          "index": 2,
          "texCoord": 0
        }
      },
      "emissiveFactor": [
        0.0,
        0.0,
        0.0
      ],
      "alphaMode": "OPAQUE",
      "alphaCutoff": 0.5,
      "doubleSided": true,
      "name": "gltf_inductor_ceramic_2"
    }
  ],
  "meshes": [
    {
      "primitives": [
        {
          "attributes": {
            "POSITION": 0,
            "NORMAL": 1,
            "TEXCOORD_0": 2
          },
          "indices": 3,
          "mode": 4,
          "material": 0
        },
        {
          "attributes": {
            "POSITION": 5,
            "NORMAL": 6,
            "TEXCOORD_0": 7
          },
          "indices": 4,
          "mode": 4,
          "material": 1
        }
      ],
      "name": "L_0603_1608Metric"
    }
  ],
  "nodes": [
    {
      "extras": {
        "REF": "L",
        "PRIO": 0,
        "model_diagonal": 2.0024984793353653
      },
      "mesh": 0,
      "name": "L_0603_1608Metric"
    }
  ],
  "samplers": [
    {
      "magFilter": 9729,
      "minFilter": 9987,
      "wrapS": 10497,
      "wrapT": 10497
    }
  ],
  "scene": 0,
  "scenes": [
    {
      "extras": {
        "matlib": {
          "lib_index": 0,
          "filter": 0,
          "cat_index": -1,
          "all_materials": [
            {
              "name": "Metal"
            },
            {
              "name": "bga_balls"
            },
            {
              "name": "chip_enclosure"
            },
            {
              "name": "chip_enclosure_detailed"
            },
            {
              "name": "composite"
            },
            {
              "name": "enclosure_alu"
            },
            {
              "name": "enclosure_alu_polished"
            },
            {
              "name": "enclosure_gold"
            },
            {
              "name": "metal_pins_simple"
            },
            {
              "name": "pin1_marking_dark"
            },
            {
              "name": "pin_tht_gold"
            },
            {
              "name": "pin_tht_silver"
            },
            {
              "name": "plastic yellow"
            },
            {
              "name": "plastic_black"
            },
            {
              "name": "plastic_black_detailed"
            },
            {
              "name": "plastic_green_lightning"
            },
            {
              "name": "plastic_white"
            },
            {
              "name": "plastic_yellow_lightning"
            },
            {
              "name": "smd_cap_case"
            },
            {
              "name": "smd_cap_pins"
            },
            {
              "name": "smd_res_case"
            }
          ],
          "materials": [
            {
              "name": "Metal"
            },
            {
              "name": "bga_balls"
            },
            {
              "name": "chip_enclosure"
            },
            {
              "name": "chip_enclosure_detailed"
            },
            {
              "name": "composite"
            },
            {
              "name": "enclosure_alu"
            },
            {
              "name": "enclosure_alu_polished"
            },
            {
              "name": "enclosure_gold"
            },
            {
              "name": "metal_pins_simple"
            },
            {
              "name": "pin1_marking_dark"
            },
            {
              "name": "pin_tht_gold"
            },
            {
              "name": "pin_tht_silver"
            },
            {
              "name": "plastic yellow"
            },
            {
              "name": "plastic_black"
            },
            {
              "name": "plastic_black_detailed"
            },
            {
              "name": "plastic_green_lightning"
            },
            {
              "name": "plastic_white"
            },
            {
              "name": "plastic_yellow_lightning"
            },
            {
              "name": "smd_cap_case"
            },
            {
              "name": "smd_cap_pins"
            },
            {
              "name": "smd_res_case"
            }
          ],
          "mat_index": 20
        },
        "sketcher": {
          "version": [
            0,
            24,
            0
          ]
        }
      },
      "name": "Scene",
      "nodes": [
        0
      ]
    }
  ],
  "textures": [
    {
      "extensions": {
        "KHR_texture_basisu": {
          "source": 1
        }
      },
      "sampler": 0
    },
    {
      "extensions": {
        "KHR_texture_basisu": {
          "source": 0
        }
      },
      "sampler": 0
    },
    {
      "extensions": {
        "KHR_texture_basisu": {
          "source": 2
        }
      },
      "sampler": 0
    }
  ]
}