<?xml version="1.0" standalone="no"?>
 <!DOCTYPE svg PUBLIC "-//W3C//DTD SVG 1.1//EN" 
 "http://www.w3.org/Graphics/SVG/1.1/DTD/svg11.dtd"> 
<svg
  xmlns:svg="http://www.w3.org/2000/svg"
  xmlns="http://www.w3.org/2000/svg"
  xmlns:xlink="http://www.w3.org/1999/xlink"
  xmlns:inkscape="http://www.inkscape.org/namespaces/inkscape"
  version="1.1"
  width="4.546600mm" height="5.537200mm" viewBox="0.000000 0.000000 4.546600 5.537200">
<title>SVG Image created as outline.svg date 2026-07-09T08:34:23 </title>
  <desc>Image generated by PCBNEW </desc>
<g style="fill:#000000; fill-opacity:1.000000;stroke:#000000; stroke-opacity:1.000000;
stroke-linecap:round; stroke-linejoin:round;"
 transform="translate(0 0) scale(1 1)">
</g>
<g style="fill:none; 
stroke:#000000; stroke-width:0.020000; stroke-opacity:1; 
stroke-linecap:round; stroke-linejoin:round;">
<path d="M0.675000 0.575000
L0.675000 1.205000
" />
<path d="M0.675000 1.805000
L0.675000 2.475000
" />
<path d="M0.675000 3.075000
L0.675000 3.745000
" />
<path d="M0.675000 4.345000
L0.675000 4.975000
" />
<path d="M0.775000 1.305000
L0.775000 1.705000
" />
<path d="M0.775000 2.575000
L0.775000 2.975000
" />
<path d="M0.775000 3.845000
L0.775000 4.245000
" />
<path d="M0.925000 0.825000
L0.925000 4.725000
" />
<path d="M0.975000 5.275000
L3.575000 5.275000
" />
<path d="M1.225000 5.025000
L3.325000 5.025000
" />
<path d="M3.325000 0.525000
L1.225000 0.525000
" />
<path d="M3.575000 0.275000
L0.975000 0.275000
" />
<path d="M3.625000 4.725000
L3.625000 0.825000
" />
<path d="M3.775000 1.705000
L3.775000 1.305000
" />
<path d="M3.775000 2.975000
L3.775000 2.575000
" />
<path d="M3.775000 2.975000
L3.775000 2.575000
" />
<path d="M3.775000 4.245000
L3.775000 3.837000
" />
<path d="M3.875000 1.205000
L3.875000 0.575000
" />
<path d="M3.875000 2.475000
L3.875000 1.805000
" />
<path d="M3.875000 3.737000
L3.875000 3.075000
" />
<path d="M3.875000 4.975000
L3.875000 4.345000
" />
<path d="M0.775000 1.305000 A0.099999 0.099999 0.0 0 0 0.675000 1.205000" />
<path d="M0.775000 2.575000 A0.099999 0.099999 0.0 0 0 0.675000 2.475000" />
<path d="M0.775000 3.845000 A0.099999 0.099999 0.0 0 0 0.675000 3.745000" />
<path d="M0.975000 5.275000 A0.300000 0.300000 0.0 0 0 0.675000 4.975000" />
<path d="M0.675000 1.805000 A0.099999 0.099999 0.0 0 0 0.775000 1.705000" />
<path d="M0.675000 3.075000 A0.099999 0.099999 0.0 0 0 0.775000 2.975000" />
<path d="M0.675000 4.345000 A0.099999 0.099999 0.0 0 0 0.775000 4.245000" />
<path d="M1.225000 0.525000 A0.300000 0.300000 0.0 0 0 0.925000 0.825000" />
<path d="M0.675000 0.575000 A0.300000 0.300000 0.0 0 0 0.975000 0.275000" />
<path d="M0.925000 4.725000 A0.300000 0.300000 0.0 0 0 1.225000 5.025000" />
<path d="M3.625000 0.825000 A0.300000 0.300000 0.0 0 0 3.325000 0.525000" />
<path d="M3.874132 4.975132 A0.299998 0.299998 0.0 0 0 3.574132 5.275132" />
<path d="M3.325000 5.024870 A0.300000 0.300000 0.0 0 0 3.625000 4.724868" />
<path d="M3.875000 1.205000 A0.100000 0.100000 0.0 0 0 3.775000 1.305000" />
<path d="M3.875000 2.475000 A0.100000 0.100000 0.0 0 0 3.775000 2.575000" />
<path d="M3.875000 3.737000 A0.100000 0.100000 0.0 0 0 3.775000 3.837000" />
<path d="M3.775000 1.705000 A0.100000 0.100000 0.0 0 0 3.875000 1.805000" />
<path d="M3.775000 2.975000 A0.100000 0.100000 0.0 0 0 3.875000 3.075000" />
<path d="M3.775000 4.245000 A0.100000 0.100000 0.0 0 0 3.875000 4.345000" />
<path d="M3.575132 0.275868 A0.299998 0.299998 0.0 0 0 3.875132 0.575868" />
<circle cx="1.425000" cy="1.500000" r="0.200000" /> 
</g> 
</svg>
