<?xml version="1.0" standalone="no"?>
 <!DOCTYPE svg PUBLIC "-//W3C//DTD SVG 1.1//EN" 
 "http://www.w3.org/Graphics/SVG/1.1/DTD/svg11.dtd"> 
<svg
  xmlns:svg="http://www.w3.org/2000/svg"
  xmlns="http://www.w3.org/2000/svg"
  xmlns:xlink="http://www.w3.org/1999/xlink"
  version="1.1"
  width="5.8166mm" height="6.0198mm" viewBox="0.0000 0.0000 5.8166 6.0198">
<title>SVG Image created as outline.svg date 2025/04/04 10:06:19 </title>
  <desc>Image generated by PCBNEW </desc>
<g style="fill:#000000; fill-opacity:1.0000;stroke:#000000; stroke-opacity:1.0000;
stroke-linecap:round; stroke-linejoin:round;"
 transform="translate(0 0) scale(1 1)">
</g>
<g style="fill:none; 
stroke:#000000; stroke-width:0.0200; stroke-opacity:1; 
stroke-linecap:round; stroke-linejoin:round;">
<path d="M0.2750 0.4750
L0.2750 5.5550
" />
<path d="M0.2750 5.5550
L0.2760 5.5640
" />
<path d="M0.2760 0.4560
L0.2760 0.4660
" />
<path d="M0.2760 0.4660
L0.2750 0.4750
" />
<path d="M0.2760 5.5640
L0.2760 5.5740
" />
<path d="M0.2760 5.5740
L0.2780 5.5840
" />
<path d="M0.2780 0.4460
L0.2760 0.4560
" />
<path d="M0.2780 5.5840
L0.2790 5.5940
" />
<path d="M0.2790 0.4360
L0.2780 0.4460
" />
<path d="M0.2790 5.5940
L0.2820 5.6030
" />
<path d="M0.2820 0.4270
L0.2790 0.4360
" />
<path d="M0.2820 5.6030
L0.2840 5.6130
" />
<path d="M0.2840 0.4170
L0.2820 0.4270
" />
<path d="M0.2840 5.6130
L0.2870 5.6220
" />
<path d="M0.2870 0.4080
L0.2840 0.4170
" />
<path d="M0.2870 5.6220
L0.2910 5.6310
" />
<path d="M0.2910 0.3990
L0.2870 0.4080
" />
<path d="M0.2910 5.6310
L0.2950 5.6400
" />
<path d="M0.2950 0.3900
L0.2910 0.3990
" />
<path d="M0.2950 5.6400
L0.2990 5.6490
" />
<path d="M0.2990 0.3810
L0.2950 0.3900
" />
<path d="M0.2990 5.6490
L0.3040 5.6570
" />
<path d="M0.3040 0.3730
L0.2990 0.3810
" />
<path d="M0.3040 5.6570
L0.3090 5.6650
" />
<path d="M0.3090 0.3650
L0.3040 0.3730
" />
<path d="M0.3090 5.6650
L0.3150 5.6730
" />
<path d="M0.3150 0.3570
L0.3090 0.3650
" />
<path d="M0.3150 5.6730
L0.3210 5.6810
" />
<path d="M0.3210 0.3490
L0.3150 0.3570
" />
<path d="M0.3210 5.6810
L0.3270 5.6890
" />
<path d="M0.3270 0.3410
L0.3210 0.3490
" />
<path d="M0.3270 5.6890
L0.3340 5.6960
" />
<path d="M0.3340 0.3340
L0.3270 0.3410
" />
</g>
<g style="fill:#000000; fill-opacity:1.0000; stroke:none;">
<circle cx="0.3340" cy="0.3340" r="0.0100" /> 
<circle cx="0.3340" cy="5.6960" r="0.0100" /> 
</g>
<g style="fill:none; 
stroke:#000000; stroke-width:0.0200; stroke-opacity:1; 
stroke-linecap:round; stroke-linejoin:round;">
<path d="M0.3340 5.6960
L0.3410 5.7030
" />
<path d="M0.3410 0.3270
L0.3340 0.3340
" />
<path d="M0.3410 5.7030
L0.3490 5.7090
" />
<path d="M0.3490 0.3210
L0.3410 0.3270
" />
<path d="M0.3490 5.7090
L0.3570 5.7150
" />
<path d="M0.3570 0.3150
L0.3490 0.3210
" />
<path d="M0.3570 5.7150
L0.3650 5.7210
" />
<path d="M0.3650 0.3090
L0.3570 0.3150
" />
<path d="M0.3650 5.7210
L0.3730 5.7260
" />
<path d="M0.3730 0.3040
L0.3650 0.3090
" />
<path d="M0.3730 5.7260
L0.3810 5.7310
" />
<path d="M0.3810 0.2990
L0.3730 0.3040
" />
<path d="M0.3810 5.7310
L0.3900 5.7350
" />
<path d="M0.3900 0.2950
L0.3810 0.2990
" />
<path d="M0.3900 5.7350
L0.3990 5.7390
" />
<path d="M0.3990 0.2910
L0.3900 0.2950
" />
<path d="M0.3990 5.7390
L0.4080 5.7430
" />
<path d="M0.4080 0.2870
L0.3990 0.2910
" />
<path d="M0.4080 5.7430
L0.4170 5.7460
" />
<path d="M0.4170 0.2840
L0.4080 0.2870
" />
<path d="M0.4170 5.7460
L0.4270 5.7480
" />
<path d="M0.4270 0.2820
L0.4170 0.2840
" />
<path d="M0.4270 5.7480
L0.4360 5.7510
" />
<path d="M0.4360 0.2790
L0.4270 0.2820
" />
<path d="M0.4360 5.7510
L0.4460 5.7520
" />
<path d="M0.4460 0.2780
L0.4360 0.2790
" />
<path d="M0.4460 5.7520
L0.4560 5.7540
" />
<path d="M0.4560 0.2760
L0.4460 0.2780
" />
<path d="M0.4560 5.7540
L0.4660 5.7540
" />
<path d="M0.4660 0.2760
L0.4560 0.2760
" />
<path d="M0.4660 5.7540
L0.4750 5.7550
" />
<path d="M0.4750 0.2750
L0.4660 0.2760
" />
<path d="M0.4750 0.2750
L5.3550 0.2750
" />
<path d="M0.4750 5.7550
L5.3550 5.7550
" />
<path d="M1.0500 1.0410
L1.0500 5.0390
" />
<path d="M1.0500 5.0390
L1.2500 5.0390
" />
<path d="M1.2500 1.0410
L1.0500 1.0410
" />
<path d="M1.2500 5.0390
L1.2500 1.0410
" />
<path d="M5.3550 0.2750
L0.4750 0.2750
" />
<path d="M5.3550 5.7550
L0.4750 5.7550
" />
<path d="M5.3550 5.7550
L5.3640 5.7540
" />
<path d="M5.3640 0.2760
L5.3550 0.2750
" />
<path d="M5.3640 5.7540
L5.3740 5.7540
" />
<path d="M5.3740 0.2760
L5.3640 0.2760
" />
<path d="M5.3740 5.7540
L5.3840 5.7520
" />
<path d="M5.3840 0.2780
L5.3740 0.2760
" />
<path d="M5.3840 5.7520
L5.3940 5.7510
" />
<path d="M5.3940 0.2790
L5.3840 0.2780
" />
<path d="M5.3940 5.7510
L5.4030 5.7480
" />
<path d="M5.4030 0.2820
L5.3940 0.2790
" />
<path d="M5.4030 5.7480
L5.4130 5.7460
" />
<path d="M5.4130 0.2840
L5.4030 0.2820
" />
<path d="M5.4130 5.7460
L5.4220 5.7430
" />
<path d="M5.4220 0.2870
L5.4130 0.2840
" />
<path d="M5.4220 5.7430
L5.4310 5.7390
" />
<path d="M5.4310 0.2910
L5.4220 0.2870
" />
<path d="M5.4310 5.7390
L5.4400 5.7350
" />
<path d="M5.4400 0.2950
L5.4310 0.2910
" />
<path d="M5.4400 5.7350
L5.4490 5.7310
" />
<path d="M5.4490 0.2990
L5.4400 0.2950
" />
<path d="M5.4490 5.7310
L5.4570 5.7260
" />
<path d="M5.4570 0.3040
L5.4490 0.2990
" />
<path d="M5.4570 5.7260
L5.4650 5.7210
" />
<path d="M5.4650 0.3090
L5.4570 0.3040
" />
<path d="M5.4650 5.7210
L5.4730 5.7150
" />
<path d="M5.4730 0.3150
L5.4650 0.3090
" />
<path d="M5.4730 5.7150
L5.4810 5.7090
" />
<path d="M5.4810 0.3210
L5.4730 0.3150
" />
<path d="M5.4810 5.7090
L5.4890 5.7030
" />
<path d="M5.4890 0.3270
L5.4810 0.3210
" />
<path d="M5.4890 5.7030
L5.4960 5.6960
" />
<path d="M5.4960 0.3340
L5.4890 0.3270
" />
</g>
<g style="fill:#000000; fill-opacity:1.0000; stroke:none;">
<circle cx="5.4960" cy="0.3340" r="0.0100" /> 
<circle cx="5.4960" cy="5.6960" r="0.0100" /> 
</g>
<g style="fill:none; 
stroke:#000000; stroke-width:0.0200; stroke-opacity:1; 
stroke-linecap:round; stroke-linejoin:round;">
<path d="M5.4960 5.6960
L5.5030 5.6890
" />
<path d="M5.5030 0.3410
L5.4960 0.3340
" />
<path d="M5.5030 5.6890
L5.5090 5.6810
" />
<path d="M5.5090 0.3490
L5.5030 0.3410
" />
<path d="M5.5090 5.6810
L5.5150 5.6730
" />
<path d="M5.5150 0.3570
L5.5090 0.3490
" />
<path d="M5.5150 5.6730
L5.5210 5.6650
" />
<path d="M5.5210 0.3650
L5.5150 0.3570
" />
<path d="M5.5210 5.6650
L5.5260 5.6570
" />
<path d="M5.5260 0.3730
L5.5210 0.3650
" />
<path d="M5.5260 5.6570
L5.5310 5.6490
" />
<path d="M5.5310 0.3810
L5.5260 0.3730
" />
<path d="M5.5310 5.6490
L5.5350 5.6400
" />
<path d="M5.5350 0.3900
L5.5310 0.3810
" />
<path d="M5.5350 5.6400
L5.5390 5.6310
" />
<path d="M5.5390 0.3990
L5.5350 0.3900
" />
<path d="M5.5390 5.6310
L5.5430 5.6220
" />
<path d="M5.5430 0.4080
L5.5390 0.3990
" />
<path d="M5.5430 5.6220
L5.5460 5.6130
" />
<path d="M5.5460 0.4170
L5.5430 0.4080
" />
<path d="M5.5460 5.6130
L5.5480 5.6030
" />
<path d="M5.5480 0.4270
L5.5460 0.4170
" />
<path d="M5.5480 5.6030
L5.5510 5.5940
" />
<path d="M5.5510 0.4360
L5.5480 0.4270
" />
<path d="M5.5510 5.5940
L5.5520 5.5840
" />
<path d="M5.5520 0.4460
L5.5510 0.4360
" />
<path d="M5.5520 5.5840
L5.5540 5.5740
" />
<path d="M5.5540 0.4560
L5.5520 0.4460
" />
<path d="M5.5540 0.4660
L5.5540 0.4560
" />
<path d="M5.5540 5.5640
L5.5550 5.5550
" />
<path d="M5.5540 5.5740
L5.5540 5.5640
" />
<path d="M5.5550 0.4750
L5.5540 0.4660
" />
<path d="M5.5550 5.5550
L5.5550 0.4750
" />
</g> 
</svg>
