<?xml version="1.0" standalone="no"?>
 <!DOCTYPE svg PUBLIC "-//W3C//DTD SVG 1.1//EN" 
 "http://www.w3.org/Graphics/SVG/1.1/DTD/svg11.dtd"> 
<svg
  xmlns:svg="http://www.w3.org/2000/svg"
  xmlns="http://www.w3.org/2000/svg"
  xmlns:xlink="http://www.w3.org/1999/xlink"
  version="1.1"
  width="3.6068mm" height="1.7272mm" viewBox="0.0000 0.0000 3.6068 1.7272">
<title>SVG Image created as outline.svg date 2025/05/12 14:31:32 </title>
  <desc>Image generated by PCBNEW </desc>
<g style="fill:#000000; fill-opacity:1.0000;stroke:#000000; stroke-opacity:1.0000;
stroke-linecap:round; stroke-linejoin:round;"
 transform="translate(0 0) scale(1 1)">
</g>
<g style="fill:none; 
stroke:#000000; stroke-width:0.0200; stroke-opacity:1; 
stroke-linecap:round; stroke-linejoin:round;">
<path d="M0.6250 0.4650
L0.6250 1.2850
" />
<path d="M0.6250 1.2850
L0.7750 1.2850
" />
<path d="M0.7750 0.2250
L0.7750 0.4650
" />
<path d="M0.7750 0.4650
L0.6250 0.4650
" />
<path d="M0.7750 0.4650
L0.7750 1.2850
" />
<path d="M0.7750 1.2850
L0.7750 1.5250
" />
<path d="M0.7750 1.5250
L2.9750 1.5250
" />
<path d="M0.8220 0.2710
L0.7750 0.2250
" />
<path d="M0.8220 0.2710
L0.8220 1.4780
" />
<path d="M0.8220 1.4780
L0.7750 1.5250
" />
<path d="M0.8220 1.4780
L2.9290 1.4780
" />
<path d="M2.9290 0.2710
L0.8220 0.2710
" />
<path d="M2.9290 0.2710
L2.9750 0.2250
" />
<path d="M2.9290 0.2710
L2.9750 0.2250
" />
<path d="M2.9290 1.4780
L2.9290 0.2710
" />
<path d="M2.9750 0.2250
L0.7750 0.2250
" />
<path d="M2.9750 0.5750
L2.9750 0.2250
" />
<path d="M2.9750 1.1750
L2.9750 0.5750
" />
<path d="M2.9750 1.1750
L3.1250 1.1750
" />
<path d="M2.9750 1.5250
L2.9750 1.1750
" />
<path d="M3.1250 0.5750
L2.9750 0.5750
" />
<path d="M3.1250 0.5750
L2.9750 0.5750
" />
<path d="M3.1250 1.1750
L3.1250 0.5750
" />
</g> 
</svg>
