{
  "accessors": [
    {
      "bufferView": 0,
      "byteOffset": 0,
      "componentType": 5126,
      "normalized": false,
      "count": 7391,
      "type": "VEC3",
      "max": [
        2.5,
        0.2029542773962021,
        2.5
      ],
      "min": [
        -2.5,
        0.0,
        -2.5
      ]
    },
    {
      "bufferView": 0,
      "byteOffset": 12,
      "componentType": 5126,
      "normalized": false,
      "count": 7391,
      "type": "VEC3"
    },
    {
      "bufferView": 0,
      "byteOffset": 24,
      "componentType": 5126,
      "normalized": false,
      "count": 7391,
      "type": "VEC2"
    },
    {
      "bufferView": 0,
      "byteOffset": 32,
      "componentType": 5126,
      "normalized": false,
      "count": 7391,
      "type": "VEC2"
    },
    {
      "bufferView": 1,
      "byteOffset": 0,
      "componentType": 5123,
      "normalized": false,
      "count": 14517,
      "type": "SCALAR"
    },
    {
      "bufferView": 1,
      "byteOffset": 29036,
      "componentType": 5123,
      "normalized": false,
      "count": 66,
      "type": "SCALAR"
    },
    {
      "bufferView": 1,
      "byteOffset": 29168,
      "componentType": 5123,
      "normalized": false,
      "count": 4545,
      "type": "SCALAR"
    },
    {
      "bufferView": 2,
      "byteOffset": 0,
      "componentType": 5126,
      "normalized": false,
      "count": 24,
      "type": "VEC3",
      "max": [
        -1.5530258417129517,
        0.7599999904632568,
        -1.5530258417129517
      ],
      "min": [
        -2.0469741821289062,
        0.7599999904632568,
        -2.0469741821289062
      ]
    },
    {
      "bufferView": 2,
      "byteOffset": 12,
      "componentType": 5126,
      "normalized": false,
      "count": 24,
      "type": "VEC3"
    },
    {
      "bufferView": 2,
      "byteOffset": 24,
      "componentType": 5126,
      "normalized": false,
      "count": 24,
      "type": "VEC2"
    },
    {
      "bufferView": 2,
      "byteOffset": 32,
      "componentType": 5126,
      "normalized": false,
      "count": 24,
      "type": "VEC2"
    },
    {
      "bufferView": 3,
      "byteOffset": 0,
      "componentType": 5126,
      "normalized": false,
      "count": 1833,
      "type": "VEC3",
      "max": [
        2.493000030517578,
        0.8198485970497131,
        2.493000030517578
      ],
      "min": [
        -2.493000030517578,
        0.016999999061226845,
        -2.493000030517578
      ]
    },
    {
      "bufferView": 3,
      "byteOffset": 12,
      "componentType": 5126,
      "normalized": false,
      "count": 1833,
      "type": "VEC3"
    },
    {
      "bufferView": 3,
      "byteOffset": 24,
      "componentType": 5126,
      "normalized": false,
      "count": 1833,
      "type": "VEC2"
    },
    {
      "bufferView": 3,
      "byteOffset": 32,
      "componentType": 5126,
      "normalized": false,
      "count": 1833,
      "type": "VEC2"
    }
  ],
  "asset": {
    "generator": "pygltflib@v1.16.5",
    "version": "2.0"
  },
  "bufferViews": [
    {
      "buffer": 0,
      "byteOffset": 0,
      "byteLength": 295640,
      "byteStride": 40,
      "target": 34962
    },
    {
      "buffer": 0,
      "byteOffset": 295640,
      "byteLength": 38260,
      "target": 34963
    },
    {
      "buffer": 0,
      "byteOffset": 333900,
      "byteLength": 960,
      "byteStride": 40,
      "target": 34962
    },
    {
      "buffer": 0,
      "byteOffset": 334860,
      "byteLength": 73320,
      "byteStride": 40,
      "target": 34962
    }
  ],
  "buffers": [
    {
      "uri": "QFN-40-1EP_5x5mm_P0.4mm_EP3.7x3.7mm.bin",
      "byteLength": 408180
    }
  ],
  "extensionsUsed": [
    "KHR_materials_clearcoat",
    "KHR_materials_ior",
    "KHR_materials_sheen",
    "KHR_materials_specular",
    "KHR_materials_transmission",
    "KHR_texture_basisu"
  ],
  "extensionsRequired": [
    "KHR_texture_basisu"
  ],
  "images": [
    {
      "uri": "../shared_textures/metal_pins_normal512.ktx2",
      "mimeType": "image/ktx2",
      "name": "metal_pins_normal512"
    },
    {
      "uri": "../shared_textures/metal_pins_color512.ktx2",
      "mimeType": "image/ktx2",
      "name": "metal_pins_color512"
    },
    {
      "uri": "../shared_textures/white_markings_normal512.ktx2",
      "mimeType": "image/ktx2",
      "name": "white_markings_normal512"
    },
    {
      "uri": "../shared_textures/white_markings_color512.ktx2",
      "mimeType": "image/ktx2",
      "name": "white_markings_color512"
    },
    {
      "uri": "../shared_textures/plastic_chip_normal512.ktx2",
      "mimeType": "image/ktx2",
      "name": "plastic_chip_normal512"
    }
  ],
  "materials": [
    {
      "extensions": {
        "KHR_materials_ior": {
          "ior": 1.4500000476837158
        },
        "KHR_materials_specular": {
          "specularFactor": 0
        }
      },
      "pbrMetallicRoughness": {
        "baseColorFactor": [
          1.0,
          1.0,
          1.0,
          1.0
        ],
        "metallicFactor": 0.7818182110786438,
        "roughnessFactor": 0.28863638639450073,
        "baseColorTexture": {
          "index": 0,
          "texCoord": 0
        }
      },
      "normalTexture": {
        "index": 1,
        "scale": 1.0
      },
      "emissiveFactor": [
        0.0,
        0.0,
        0.0
      ],
      "alphaMode": "OPAQUE",
      "doubleSided": true,
      "name": "gltf_metal_pins"
    },
    {
      "extensions": {
        "KHR_materials_clearcoat": {
          "clearcoatFactor": 0,
          "clearcoatRoughnessFactor": 0.67090904712677
        },
        "KHR_materials_ior": {
          "ior": 1.4500000476837158
        },
        "KHR_materials_sheen": {
          "sheenColorFactor": [
            1,
            1,
            1
          ],
          "sheenRoughnessFactor": 0.5
        },
        "KHR_materials_specular": {
          "specularColorFactor": [
            1.3181817531585693,
            1.3181817531585693,
            1.3181817531585693
          ]
        },
        "KHR_materials_transmission": {
          "transmissionFactor": 0.23181819915771484
        }
      },
      "pbrMetallicRoughness": {
        "baseColorFactor": [
          1.0,
          1.0,
          1.0,
          1.0
        ],
        "metallicFactor": 0.019999999552965164,
        "roughnessFactor": 0.4636361598968506,
        "baseColorTexture": {
          "index": 2,
          "texCoord": 0
        }
      },
      "normalTexture": {
        "index": 3,
        "scale": 1.0
      },
      "emissiveFactor": [
        0.0,
        0.0,
        0.0
      ],
      "alphaMode": "OPAQUE",
      "doubleSided": true,
      "name": "gltf_white_markings"
    },
    {
      "pbrMetallicRoughness": {
        "baseColorFactor": [
          0.009133999235928059,
          0.009134066291153431,
          0.009134061634540558,
          1.0
        ],
        "metallicFactor": 0.13699999451637268,
        "roughnessFactor": 0.37063413858413696
      },
      "normalTexture": {
        "index": 4,
        "scale": 1.0
      },
      "emissiveFactor": [
        0.0,
        0.0,
        0.0
      ],
      "alphaMode": "OPAQUE",
      "doubleSided": true,
      "name": "gltf_plastic_chip"
    }
  ],
  "meshes": [
    {
      "primitives": [
        {
          "attributes": {
            "POSITION": 0,
            "NORMAL": 1,
            "TEXCOORD_0": 2,
            "TEXCOORD_1": 3
          },
          "indices": 4,
          "mode": 4,
          "material": 0
        },
        {
          "attributes": {
            "POSITION": 7,
            "NORMAL": 8,
            "TEXCOORD_0": 9,
            "TEXCOORD_1": 10
          },
          "indices": 5,
          "mode": 4,
          "material": 1
        },
        {
          "attributes": {
            "POSITION": 11,
            "NORMAL": 12,
            "TEXCOORD_0": 13,
            "TEXCOORD_1": 14
          },
          "indices": 6,
          "mode": 4,
          "material": 2
        }
      ],
      "name": "QFN-40-1EP_5x5mm_P0.4mm_EP3.7x3.7mm"
    }
  ],
  "nodes": [
    {
      "extras": {
        "PRIO": 0,
        "model_diagonal": 7.118454887703498
      },
      "mesh": 0,
      "name": "QFN-40-1EP_5x5mm_P0.4mm_EP3.7x3.7mm"
    }
  ],
  "samplers": [
    {
      "magFilter": 9729,
      "minFilter": 9987,
      "wrapS": 10497,
      "wrapT": 10497
    }
  ],
  "scene": 0,
  "scenes": [
    {
      "name": "Scene",
      "nodes": [
        0
      ]
    }
  ],
  "textures": [
    {
      "extensions": {
        "KHR_texture_basisu": {
          "source": 1
        }
      },
      "sampler": 0
    },
    {
      "extensions": {
        "KHR_texture_basisu": {
          "source": 0
        }
      },
      "sampler": 0
    },
    {
      "extensions": {
        "KHR_texture_basisu": {
          "source": 3
        }
      },
      "sampler": 0
    },
    {
      "extensions": {
        "KHR_texture_basisu": {
          "source": 2
        }
      },
      "sampler": 0
    },
    {
      "extensions": {
        "KHR_texture_basisu": {
          "source": 4
        }
      },
      "sampler": 0
    }
  ]
}