<?xml version="1.0" standalone="no"?>
 <!DOCTYPE svg PUBLIC "-//W3C//DTD SVG 1.1//EN" 
 "http://www.w3.org/Graphics/SVG/1.1/DTD/svg11.dtd"> 
<svg
  xmlns:svg="http://www.w3.org/2000/svg"
  xmlns="http://www.w3.org/2000/svg"
  xmlns:xlink="http://www.w3.org/1999/xlink"
  version="1.1"
  width="15.8496mm" height="10.9474mm" viewBox="0.0000 0.0000 15.8496 10.9474">
<title>SVG Image created as outline.svg date 2025/06/16 09:17:43 </title>
  <desc>Image generated by PCBNEW </desc>
<g style="fill:#000000; fill-opacity:1.0000;stroke:#000000; stroke-opacity:1.0000;
stroke-linecap:round; stroke-linejoin:round;"
 transform="translate(0 0) scale(1 1)">
</g>
<g style="fill:none; 
stroke:#000000; stroke-width:0.0200; stroke-opacity:1; 
stroke-linecap:round; stroke-linejoin:round;">
<path d="M0.9250 1.5250
L1.7250 1.5250
" />
<path d="M0.9250 4.0250
L0.9250 1.5250
" />
<path d="M0.9250 4.0250
L1.3250 4.0250
" />
<path d="M0.9250 8.0250
L1.3250 8.0250
" />
<path d="M0.9250 10.5250
L0.9250 8.0250
" />
<path d="M1.1250 4.6900
L1.1250 4.7000
" />
<path d="M1.1250 4.7000
L1.1250 4.7080
" />
<path d="M1.1250 4.7080
L1.1250 4.7000
" />
</g>
<g style="fill:#000000; fill-opacity:1.0000; stroke:none;">
<circle cx="1.1250" cy="4.7080" r="0.0100" /> 
<circle cx="1.1250" cy="4.7080" r="0.0100" /> 
</g>
<g style="fill:none; 
stroke:#000000; stroke-width:0.0200; stroke-opacity:1; 
stroke-linecap:round; stroke-linejoin:round;">
<path d="M1.1250 4.7080
L1.1250 4.7330
" />
<path d="M1.1250 4.7330
L1.1250 4.7080
" />
</g>
<g style="fill:#000000; fill-opacity:1.0000; stroke:none;">
<circle cx="1.1250" cy="4.7330" r="0.0100" /> 
<circle cx="1.1250" cy="4.7330" r="0.0100" /> 
</g>
<g style="fill:none; 
stroke:#000000; stroke-width:0.0200; stroke-opacity:1; 
stroke-linecap:round; stroke-linejoin:round;">
<path d="M1.1250 4.7330
L1.1250 4.7740
" />
<path d="M1.1250 4.7740
L1.1250 4.7330
" />
</g>
<g style="fill:#000000; fill-opacity:1.0000; stroke:none;">
<circle cx="1.1250" cy="4.7740" r="0.0100" /> 
<circle cx="1.1250" cy="4.7740" r="0.0100" /> 
</g>
<g style="fill:none; 
stroke:#000000; stroke-width:0.0200; stroke-opacity:1; 
stroke-linecap:round; stroke-linejoin:round;">
<path d="M1.1250 4.7740
L1.1250 4.8310
" />
<path d="M1.1250 4.8310
L1.1250 4.7740
" />
</g>
<g style="fill:#000000; fill-opacity:1.0000; stroke:none;">
<circle cx="1.1250" cy="4.8310" r="0.0100" /> 
<circle cx="1.1250" cy="4.8310" r="0.0100" /> 
</g>
<g style="fill:none; 
stroke:#000000; stroke-width:0.0200; stroke-opacity:1; 
stroke-linecap:round; stroke-linejoin:round;">
<path d="M1.1250 4.8310
L1.1250 4.9030
" />
<path d="M1.1250 4.9030
L1.1250 4.8310
" />
</g>
<g style="fill:#000000; fill-opacity:1.0000; stroke:none;">
<circle cx="1.1250" cy="4.9030" r="0.0100" /> 
<circle cx="1.1250" cy="4.9030" r="0.0100" /> 
</g>
<g style="fill:none; 
stroke:#000000; stroke-width:0.0200; stroke-opacity:1; 
stroke-linecap:round; stroke-linejoin:round;">
<path d="M1.1250 4.9030
L1.1250 4.9890
" />
<path d="M1.1250 4.9890
L1.1250 4.9030
" />
</g>
<g style="fill:#000000; fill-opacity:1.0000; stroke:none;">
<circle cx="1.1250" cy="4.9890" r="0.0100" /> 
<circle cx="1.1250" cy="4.9890" r="0.0100" /> 
</g>
<g style="fill:none; 
stroke:#000000; stroke-width:0.0200; stroke-opacity:1; 
stroke-linecap:round; stroke-linejoin:round;">
<path d="M1.1250 4.9890
L1.1250 5.0880
" />
<path d="M1.1250 5.0880
L1.1250 4.9890
" />
</g>
<g style="fill:#000000; fill-opacity:1.0000; stroke:none;">
<circle cx="1.1250" cy="5.0880" r="0.0100" /> 
<circle cx="1.1250" cy="5.0880" r="0.0100" /> 
</g>
<g style="fill:none; 
stroke:#000000; stroke-width:0.0200; stroke-opacity:1; 
stroke-linecap:round; stroke-linejoin:round;">
<path d="M1.1250 5.0880
L1.1250 5.1990
" />
<path d="M1.1250 5.1990
L1.1250 5.0880
" />
</g>
<g style="fill:#000000; fill-opacity:1.0000; stroke:none;">
<circle cx="1.1250" cy="5.1990" r="0.0100" /> 
<circle cx="1.1250" cy="5.1990" r="0.0100" /> 
</g>
<g style="fill:none; 
stroke:#000000; stroke-width:0.0200; stroke-opacity:1; 
stroke-linecap:round; stroke-linejoin:round;">
<path d="M1.1250 5.1990
L1.1250 5.3200
" />
<path d="M1.1250 5.3200
L1.1250 5.1990
" />
</g>
<g style="fill:#000000; fill-opacity:1.0000; stroke:none;">
<circle cx="1.1250" cy="5.3200" r="0.0100" /> 
<circle cx="1.1250" cy="5.3200" r="0.0100" /> 
</g>
<g style="fill:none; 
stroke:#000000; stroke-width:0.0200; stroke-opacity:1; 
stroke-linecap:round; stroke-linejoin:round;">
<path d="M1.1250 5.3200
L1.1250 5.4500
" />
</g>
<g style="fill:#000000; fill-opacity:1.0000; stroke:none;">
<circle cx="1.1250" cy="5.4500" r="0.0100" /> 
</g>
<g style="fill:none; 
stroke:#000000; stroke-width:0.0200; stroke-opacity:1; 
stroke-linecap:round; stroke-linejoin:round;">
<path d="M1.1250 5.4500
L1.1250 6.0250
" />
<path d="M1.1250 5.5870
L1.1250 5.3200
" />
</g>
<g style="fill:#000000; fill-opacity:1.0000; stroke:none;">
<circle cx="1.1250" cy="5.5870" r="0.0100" /> 
</g>
<g style="fill:none; 
stroke:#000000; stroke-width:0.0200; stroke-opacity:1; 
stroke-linecap:round; stroke-linejoin:round;">
<path d="M1.1250 6.0250
L1.1250 5.5870
" />
<path d="M1.1250 6.0250
L1.1250 6.4630
" />
</g>
<g style="fill:#000000; fill-opacity:1.0000; stroke:none;">
<circle cx="1.1250" cy="6.4630" r="0.0100" /> 
</g>
<g style="fill:none; 
stroke:#000000; stroke-width:0.0200; stroke-opacity:1; 
stroke-linecap:round; stroke-linejoin:round;">
<path d="M1.1250 6.4630
L1.1250 6.7300
" />
<path d="M1.1250 6.6000
L1.1250 6.0250
" />
</g>
<g style="fill:#000000; fill-opacity:1.0000; stroke:none;">
<circle cx="1.1250" cy="6.6000" r="0.0100" /> 
</g>
<g style="fill:none; 
stroke:#000000; stroke-width:0.0200; stroke-opacity:1; 
stroke-linecap:round; stroke-linejoin:round;">
<path d="M1.1250 6.7300
L1.1250 6.6000
" />
</g>
<g style="fill:#000000; fill-opacity:1.0000; stroke:none;">
<circle cx="1.1250" cy="6.7300" r="0.0100" /> 
<circle cx="1.1250" cy="6.7300" r="0.0100" /> 
</g>
<g style="fill:none; 
stroke:#000000; stroke-width:0.0200; stroke-opacity:1; 
stroke-linecap:round; stroke-linejoin:round;">
<path d="M1.1250 6.7300
L1.1250 6.8510
" />
<path d="M1.1250 6.8510
L1.1250 6.7300
" />
</g>
<g style="fill:#000000; fill-opacity:1.0000; stroke:none;">
<circle cx="1.1250" cy="6.8510" r="0.0100" /> 
<circle cx="1.1250" cy="6.8510" r="0.0100" /> 
</g>
<g style="fill:none; 
stroke:#000000; stroke-width:0.0200; stroke-opacity:1; 
stroke-linecap:round; stroke-linejoin:round;">
<path d="M1.1250 6.8510
L1.1250 6.9620
" />
<path d="M1.1250 6.9620
L1.1250 6.8510
" />
</g>
<g style="fill:#000000; fill-opacity:1.0000; stroke:none;">
<circle cx="1.1250" cy="6.9620" r="0.0100" /> 
<circle cx="1.1250" cy="6.9620" r="0.0100" /> 
</g>
<g style="fill:none; 
stroke:#000000; stroke-width:0.0200; stroke-opacity:1; 
stroke-linecap:round; stroke-linejoin:round;">
<path d="M1.1250 6.9620
L1.1250 7.0610
" />
<path d="M1.1250 7.0610
L1.1250 6.9620
" />
</g>
<g style="fill:#000000; fill-opacity:1.0000; stroke:none;">
<circle cx="1.1250" cy="7.0610" r="0.0100" /> 
<circle cx="1.1250" cy="7.0610" r="0.0100" /> 
</g>
<g style="fill:none; 
stroke:#000000; stroke-width:0.0200; stroke-opacity:1; 
stroke-linecap:round; stroke-linejoin:round;">
<path d="M1.1250 7.0610
L1.1250 7.1470
" />
<path d="M1.1250 7.1470
L1.1250 7.0610
" />
</g>
<g style="fill:#000000; fill-opacity:1.0000; stroke:none;">
<circle cx="1.1250" cy="7.1470" r="0.0100" /> 
<circle cx="1.1250" cy="7.1470" r="0.0100" /> 
</g>
<g style="fill:none; 
stroke:#000000; stroke-width:0.0200; stroke-opacity:1; 
stroke-linecap:round; stroke-linejoin:round;">
<path d="M1.1250 7.1470
L1.1250 7.2190
" />
<path d="M1.1250 7.2190
L1.1250 7.1470
" />
</g>
<g style="fill:#000000; fill-opacity:1.0000; stroke:none;">
<circle cx="1.1250" cy="7.2190" r="0.0100" /> 
<circle cx="1.1250" cy="7.2190" r="0.0100" /> 
</g>
<g style="fill:none; 
stroke:#000000; stroke-width:0.0200; stroke-opacity:1; 
stroke-linecap:round; stroke-linejoin:round;">
<path d="M1.1250 7.2190
L1.1250 7.2760
" />
<path d="M1.1250 7.2760
L1.1250 7.2190
" />
</g>
<g style="fill:#000000; fill-opacity:1.0000; stroke:none;">
<circle cx="1.1250" cy="7.2760" r="0.0100" /> 
<circle cx="1.1250" cy="7.2760" r="0.0100" /> 
</g>
<g style="fill:none; 
stroke:#000000; stroke-width:0.0200; stroke-opacity:1; 
stroke-linecap:round; stroke-linejoin:round;">
<path d="M1.1250 7.2760
L1.1250 7.3170
" />
<path d="M1.1250 7.3170
L1.1250 7.2760
" />
</g>
<g style="fill:#000000; fill-opacity:1.0000; stroke:none;">
<circle cx="1.1250" cy="7.3170" r="0.0100" /> 
<circle cx="1.1250" cy="7.3170" r="0.0100" /> 
</g>
<g style="fill:none; 
stroke:#000000; stroke-width:0.0200; stroke-opacity:1; 
stroke-linecap:round; stroke-linejoin:round;">
<path d="M1.1250 7.3170
L1.1250 7.3420
" />
<path d="M1.1250 7.3420
L1.1250 7.3170
" />
</g>
<g style="fill:#000000; fill-opacity:1.0000; stroke:none;">
<circle cx="1.1250" cy="7.3420" r="0.0100" /> 
<circle cx="1.1250" cy="7.3420" r="0.0100" /> 
</g>
<g style="fill:none; 
stroke:#000000; stroke-width:0.0200; stroke-opacity:1; 
stroke-linecap:round; stroke-linejoin:round;">
<path d="M1.1250 7.3420
L1.1250 7.3500
" />
<path d="M1.1250 7.3500
L1.1250 7.3420
" />
<path d="M1.1250 7.3600
L1.1250 7.3500
" />
<path d="M1.1260 4.6800
L1.1250 4.6900
" />
<path d="M1.1260 7.3700
L1.1250 7.3600
" />
<path d="M1.1270 4.6700
L1.1260 4.6800
" />
<path d="M1.1270 7.3800
L1.1260 7.3700
" />
<path d="M1.1290 4.6600
L1.1270 4.6700
" />
<path d="M1.1290 7.3900
L1.1270 7.3800
" />
<path d="M1.1310 4.6500
L1.1290 4.6600
" />
<path d="M1.1310 7.4000
L1.1290 7.3900
" />
<path d="M1.1340 4.6410
L1.1310 4.6500
" />
<path d="M1.1340 7.4090
L1.1310 7.4000
" />
<path d="M1.1370 4.6320
L1.1340 4.6410
" />
<path d="M1.1370 7.4180
L1.1340 7.4090
" />
<path d="M1.1400 4.6220
L1.1370 4.6320
" />
<path d="M1.1400 7.4280
L1.1370 7.4180
" />
<path d="M1.1450 4.6140
L1.1400 4.6220
" />
<path d="M1.1450 7.4360
L1.1400 7.4280
" />
<path d="M1.1490 4.6050
L1.1450 4.6140
" />
<path d="M1.1490 7.4450
L1.1450 7.4360
" />
<path d="M1.1540 4.5960
L1.1490 4.6050
" />
<path d="M1.1540 7.4540
L1.1490 7.4450
" />
<path d="M1.1600 4.5880
L1.1540 4.5960
" />
<path d="M1.1600 7.4620
L1.1540 7.4540
" />
<path d="M1.1650 4.5800
L1.1600 4.5880
" />
<path d="M1.1650 7.4700
L1.1600 7.4620
" />
<path d="M1.1710 4.5720
L1.1650 4.5800
" />
<path d="M1.1710 7.4780
L1.1650 7.4700
" />
<path d="M1.1780 4.5650
L1.1710 4.5720
" />
<path d="M1.1780 7.4850
L1.1710 7.4780
" />
<path d="M1.1850 4.5580
L1.1780 4.5650
" />
<path d="M1.1850 7.4920
L1.1780 7.4850
" />
<path d="M1.1920 4.5510
L1.1850 4.5580
" />
<path d="M1.1920 7.4990
L1.1850 7.4920
" />
<path d="M1.1990 4.5450
L1.1920 4.5510
" />
<path d="M1.1990 7.5050
L1.1920 7.4990
" />
<path d="M1.2070 4.5390
L1.1990 4.5450
" />
<path d="M1.2070 7.5110
L1.1990 7.5050
" />
<path d="M1.2150 4.5330
L1.2070 4.5390
" />
<path d="M1.2150 7.5170
L1.2070 7.5110
" />
<path d="M1.2230 4.5280
L1.2150 4.5330
" />
<path d="M1.2230 7.5220
L1.2150 7.5170
" />
<path d="M1.2320 4.5230
L1.2230 4.5280
" />
<path d="M1.2320 7.5270
L1.2230 7.5220
" />
<path d="M1.2400 4.5190
L1.2320 4.5230
" />
<path d="M1.2400 7.5310
L1.2320 7.5270
" />
<path d="M1.2490 4.5150
L1.2400 4.5190
" />
<path d="M1.2490 7.5350
L1.2400 7.5310
" />
<path d="M1.2580 4.5110
L1.2490 4.5150
" />
<path d="M1.2580 7.5390
L1.2490 7.5350
" />
<path d="M1.2670 4.5080
L1.2580 4.5110
" />
<path d="M1.2670 7.5420
L1.2580 7.5390
" />
<path d="M1.2770 4.5050
L1.2670 4.5080
" />
<path d="M1.2770 7.5450
L1.2670 7.5420
" />
<path d="M1.2860 4.5030
L1.2770 4.5050
" />
<path d="M1.2860 7.5470
L1.2770 7.5450
" />
<path d="M1.2960 4.5020
L1.2860 4.5030
" />
<path d="M1.2960 7.5480
L1.2860 7.5470
" />
<path d="M1.3050 4.5010
L1.2960 4.5020
" />
<path d="M1.3050 7.5490
L1.2960 7.5480
" />
<path d="M1.3150 4.5000
L1.3050 4.5010
" />
<path d="M1.3150 7.5500
L1.3050 7.5490
" />
<path d="M1.3250 3.7750
L1.3250 3.8310
" />
</g>
<g style="fill:#000000; fill-opacity:1.0000; stroke:none;">
<circle cx="1.3250" cy="3.8310" r="0.0100" /> 
</g>
<g style="fill:none; 
stroke:#000000; stroke-width:0.0200; stroke-opacity:1; 
stroke-linecap:round; stroke-linejoin:round;">
<path d="M1.3250 3.8310
L1.3250 3.9980
" />
</g>
<g style="fill:#000000; fill-opacity:1.0000; stroke:none;">
<circle cx="1.3250" cy="3.9980" r="0.0100" /> 
</g>
<g style="fill:none; 
stroke:#000000; stroke-width:0.0200; stroke-opacity:1; 
stroke-linecap:round; stroke-linejoin:round;">
<path d="M1.3250 3.9980
L1.3250 4.2660
" />
</g>
<g style="fill:#000000; fill-opacity:1.0000; stroke:none;">
<circle cx="1.3250" cy="4.2660" r="0.0100" /> 
</g>
<g style="fill:none; 
stroke:#000000; stroke-width:0.0200; stroke-opacity:1; 
stroke-linecap:round; stroke-linejoin:round;">
<path d="M1.3250 4.2660
L1.3250 4.6220
" />
<path d="M1.3250 4.5000
L1.3150 4.5000
" />
</g>
<g style="fill:#000000; fill-opacity:1.0000; stroke:none;">
<circle cx="1.3250" cy="4.6220" r="0.0100" /> 
</g>
<g style="fill:none; 
stroke:#000000; stroke-width:0.0200; stroke-opacity:1; 
stroke-linecap:round; stroke-linejoin:round;">
<path d="M1.3250 4.6220
L1.3250 5.0490
" />
</g>
<g style="fill:#000000; fill-opacity:1.0000; stroke:none;">
<circle cx="1.3250" cy="5.0490" r="0.0100" /> 
</g>
<g style="fill:none; 
stroke:#000000; stroke-width:0.0200; stroke-opacity:1; 
stroke-linecap:round; stroke-linejoin:round;">
<path d="M1.3250 5.0490
L1.3250 5.5240
" />
</g>
<g style="fill:#000000; fill-opacity:1.0000; stroke:none;">
<circle cx="1.3250" cy="5.5240" r="0.0100" /> 
</g>
<g style="fill:none; 
stroke:#000000; stroke-width:0.0200; stroke-opacity:1; 
stroke-linecap:round; stroke-linejoin:round;">
<path d="M1.3250 5.5240
L1.3250 6.0250
" />
</g>
<g style="fill:#000000; fill-opacity:1.0000; stroke:none;">
<circle cx="1.3250" cy="6.0250" r="0.0100" /> 
</g>
<g style="fill:none; 
stroke:#000000; stroke-width:0.0200; stroke-opacity:1; 
stroke-linecap:round; stroke-linejoin:round;">
<path d="M1.3250 6.0250
L1.3250 6.5260
" />
</g>
<g style="fill:#000000; fill-opacity:1.0000; stroke:none;">
<circle cx="1.3250" cy="6.5260" r="0.0100" /> 
</g>
<g style="fill:none; 
stroke:#000000; stroke-width:0.0200; stroke-opacity:1; 
stroke-linecap:round; stroke-linejoin:round;">
<path d="M1.3250 6.5260
L1.3250 7.0010
" />
</g>
<g style="fill:#000000; fill-opacity:1.0000; stroke:none;">
<circle cx="1.3250" cy="7.0010" r="0.0100" /> 
</g>
<g style="fill:none; 
stroke:#000000; stroke-width:0.0200; stroke-opacity:1; 
stroke-linecap:round; stroke-linejoin:round;">
<path d="M1.3250 7.0010
L1.3250 7.4280
" />
</g>
<g style="fill:#000000; fill-opacity:1.0000; stroke:none;">
<circle cx="1.3250" cy="7.4280" r="0.0100" /> 
</g>
<g style="fill:none; 
stroke:#000000; stroke-width:0.0200; stroke-opacity:1; 
stroke-linecap:round; stroke-linejoin:round;">
<path d="M1.3250 7.4280
L1.3250 7.7840
" />
<path d="M1.3250 7.5500
L1.3150 7.5500
" />
</g>
<g style="fill:#000000; fill-opacity:1.0000; stroke:none;">
<circle cx="1.3250" cy="7.7840" r="0.0100" /> 
</g>
<g style="fill:none; 
stroke:#000000; stroke-width:0.0200; stroke-opacity:1; 
stroke-linecap:round; stroke-linejoin:round;">
<path d="M1.3250 7.7840
L1.3250 8.0520
" />
</g>
<g style="fill:#000000; fill-opacity:1.0000; stroke:none;">
<circle cx="1.3250" cy="8.0520" r="0.0100" /> 
</g>
<g style="fill:none; 
stroke:#000000; stroke-width:0.0200; stroke-opacity:1; 
stroke-linecap:round; stroke-linejoin:round;">
<path d="M1.3250 8.0520
L1.3250 8.2190
" />
</g>
<g style="fill:#000000; fill-opacity:1.0000; stroke:none;">
<circle cx="1.3250" cy="8.2190" r="0.0100" /> 
</g>
<g style="fill:none; 
stroke:#000000; stroke-width:0.0200; stroke-opacity:1; 
stroke-linecap:round; stroke-linejoin:round;">
<path d="M1.3250 8.2190
L1.3250 8.2750
" />
<path d="M1.7250 1.5250
L11.9250 1.5250
" />
<path d="M1.7250 1.9970
L1.7250 1.5250
" />
<path d="M1.7250 1.9970
L11.9250 1.9970
" />
<path d="M1.7250 2.0230
L1.7250 1.9970
" />
</g>
<g style="fill:#000000; fill-opacity:1.0000; stroke:none;">
<circle cx="1.7250" cy="2.0230" r="0.0100" /> 
</g>
<g style="fill:none; 
stroke:#000000; stroke-width:0.0200; stroke-opacity:1; 
stroke-linecap:round; stroke-linejoin:round;">
<path d="M1.7250 2.0980
L1.7250 2.0230
" />
</g>
<g style="fill:#000000; fill-opacity:1.0000; stroke:none;">
<circle cx="1.7250" cy="2.0980" r="0.0100" /> 
</g>
<g style="fill:none; 
stroke:#000000; stroke-width:0.0200; stroke-opacity:1; 
stroke-linecap:round; stroke-linejoin:round;">
<path d="M1.7250 2.2220
L1.7250 2.0980
" />
</g>
<g style="fill:#000000; fill-opacity:1.0000; stroke:none;">
<circle cx="1.7250" cy="2.2220" r="0.0100" /> 
</g>
<g style="fill:none; 
stroke:#000000; stroke-width:0.0200; stroke-opacity:1; 
stroke-linecap:round; stroke-linejoin:round;">
<path d="M1.7250 2.3940
L1.7250 2.2220
" />
</g>
<g style="fill:#000000; fill-opacity:1.0000; stroke:none;">
<circle cx="1.7250" cy="2.3940" r="0.0100" /> 
</g>
<g style="fill:none; 
stroke:#000000; stroke-width:0.0200; stroke-opacity:1; 
stroke-linecap:round; stroke-linejoin:round;">
<path d="M1.7250 2.6110
L1.7250 2.3940
" />
</g>
<g style="fill:#000000; fill-opacity:1.0000; stroke:none;">
<circle cx="1.7250" cy="2.6110" r="0.0100" /> 
</g>
<g style="fill:none; 
stroke:#000000; stroke-width:0.0200; stroke-opacity:1; 
stroke-linecap:round; stroke-linejoin:round;">
<path d="M1.7250 2.8700
L1.7250 2.6110
" />
</g>
<g style="fill:#000000; fill-opacity:1.0000; stroke:none;">
<circle cx="1.7250" cy="2.8700" r="0.0100" /> 
</g>
<g style="fill:none; 
stroke:#000000; stroke-width:0.0200; stroke-opacity:1; 
stroke-linecap:round; stroke-linejoin:round;">
<path d="M1.7250 3.1690
L1.7250 2.8700
" />
</g>
<g style="fill:#000000; fill-opacity:1.0000; stroke:none;">
<circle cx="1.7250" cy="3.1690" r="0.0100" /> 
</g>
<g style="fill:none; 
stroke:#000000; stroke-width:0.0200; stroke-opacity:1; 
stroke-linecap:round; stroke-linejoin:round;">
<path d="M1.7250 3.5030
L1.7250 3.1690
" />
</g>
<g style="fill:#000000; fill-opacity:1.0000; stroke:none;">
<circle cx="1.7250" cy="3.5030" r="0.0100" /> 
</g>
<g style="fill:none; 
stroke:#000000; stroke-width:0.0200; stroke-opacity:1; 
stroke-linecap:round; stroke-linejoin:round;">
<path d="M1.7250 3.7750
L1.3250 3.7750
" />
<path d="M1.7250 3.8690
L1.7250 3.5030
" />
</g>
<g style="fill:#000000; fill-opacity:1.0000; stroke:none;">
<circle cx="1.7250" cy="3.8690" r="0.0100" /> 
</g>
<g style="fill:none; 
stroke:#000000; stroke-width:0.0200; stroke-opacity:1; 
stroke-linecap:round; stroke-linejoin:round;">
<path d="M1.7250 4.2620
L1.7250 3.8690
" />
</g>
<g style="fill:#000000; fill-opacity:1.0000; stroke:none;">
<circle cx="1.7250" cy="4.2620" r="0.0100" /> 
</g>
<g style="fill:none; 
stroke:#000000; stroke-width:0.0200; stroke-opacity:1; 
stroke-linecap:round; stroke-linejoin:round;">
<path d="M1.7250 4.6760
L1.7250 4.2620
" />
</g>
<g style="fill:#000000; fill-opacity:1.0000; stroke:none;">
<circle cx="1.7250" cy="4.6760" r="0.0100" /> 
</g>
<g style="fill:none; 
stroke:#000000; stroke-width:0.0200; stroke-opacity:1; 
stroke-linecap:round; stroke-linejoin:round;">
<path d="M1.7250 5.1070
L1.7250 4.6760
" />
</g>
<g style="fill:#000000; fill-opacity:1.0000; stroke:none;">
<circle cx="1.7250" cy="5.1070" r="0.0100" /> 
</g>
<g style="fill:none; 
stroke:#000000; stroke-width:0.0200; stroke-opacity:1; 
stroke-linecap:round; stroke-linejoin:round;">
<path d="M1.7250 5.5500
L1.7250 5.1070
" />
</g>
<g style="fill:#000000; fill-opacity:1.0000; stroke:none;">
<circle cx="1.7250" cy="5.5500" r="0.0100" /> 
</g>
<g style="fill:none; 
stroke:#000000; stroke-width:0.0200; stroke-opacity:1; 
stroke-linecap:round; stroke-linejoin:round;">
<path d="M1.7250 5.9970
L1.7250 5.5500
" />
<path d="M1.7250 6.8870
L1.7250 5.9970
" />
</g>
<g style="fill:#000000; fill-opacity:1.0000; stroke:none;">
<circle cx="1.7250" cy="6.8870" r="0.0100" /> 
</g>
<g style="fill:none; 
stroke:#000000; stroke-width:0.0200; stroke-opacity:1; 
stroke-linecap:round; stroke-linejoin:round;">
<path d="M1.7250 7.3190
L1.7250 6.8870
" />
</g>
<g style="fill:#000000; fill-opacity:1.0000; stroke:none;">
<circle cx="1.7250" cy="7.3190" r="0.0100" /> 
</g>
<g style="fill:none; 
stroke:#000000; stroke-width:0.0200; stroke-opacity:1; 
stroke-linecap:round; stroke-linejoin:round;">
<path d="M1.7250 7.7330
L1.7250 7.3190
" />
</g>
<g style="fill:#000000; fill-opacity:1.0000; stroke:none;">
<circle cx="1.7250" cy="7.7330" r="0.0100" /> 
</g>
<g style="fill:none; 
stroke:#000000; stroke-width:0.0200; stroke-opacity:1; 
stroke-linecap:round; stroke-linejoin:round;">
<path d="M1.7250 8.1260
L1.7250 7.7330
" />
</g>
<g style="fill:#000000; fill-opacity:1.0000; stroke:none;">
<circle cx="1.7250" cy="8.1260" r="0.0100" /> 
</g>
<g style="fill:none; 
stroke:#000000; stroke-width:0.0200; stroke-opacity:1; 
stroke-linecap:round; stroke-linejoin:round;">
<path d="M1.7250 8.2750
L1.3250 8.2750
" />
<path d="M1.7250 8.4910
L1.7250 8.1260
" />
</g>
<g style="fill:#000000; fill-opacity:1.0000; stroke:none;">
<circle cx="1.7250" cy="8.4910" r="0.0100" /> 
</g>
<g style="fill:none; 
stroke:#000000; stroke-width:0.0200; stroke-opacity:1; 
stroke-linecap:round; stroke-linejoin:round;">
<path d="M1.7250 8.8260
L1.7250 8.4910
" />
</g>
<g style="fill:#000000; fill-opacity:1.0000; stroke:none;">
<circle cx="1.7250" cy="8.8260" r="0.0100" /> 
</g>
<g style="fill:none; 
stroke:#000000; stroke-width:0.0200; stroke-opacity:1; 
stroke-linecap:round; stroke-linejoin:round;">
<path d="M1.7250 9.1250
L1.7250 8.8260
" />
</g>
<g style="fill:#000000; fill-opacity:1.0000; stroke:none;">
<circle cx="1.7250" cy="9.1250" r="0.0100" /> 
</g>
<g style="fill:none; 
stroke:#000000; stroke-width:0.0200; stroke-opacity:1; 
stroke-linecap:round; stroke-linejoin:round;">
<path d="M1.7250 9.3840
L1.7250 9.1250
" />
</g>
<g style="fill:#000000; fill-opacity:1.0000; stroke:none;">
<circle cx="1.7250" cy="9.3840" r="0.0100" /> 
</g>
<g style="fill:none; 
stroke:#000000; stroke-width:0.0200; stroke-opacity:1; 
stroke-linecap:round; stroke-linejoin:round;">
<path d="M1.7250 9.6010
L1.7250 9.3840
" />
</g>
<g style="fill:#000000; fill-opacity:1.0000; stroke:none;">
<circle cx="1.7250" cy="9.6010" r="0.0100" /> 
</g>
<g style="fill:none; 
stroke:#000000; stroke-width:0.0200; stroke-opacity:1; 
stroke-linecap:round; stroke-linejoin:round;">
<path d="M1.7250 9.7730
L1.7250 9.6010
" />
</g>
<g style="fill:#000000; fill-opacity:1.0000; stroke:none;">
<circle cx="1.7250" cy="9.7730" r="0.0100" /> 
</g>
<g style="fill:none; 
stroke:#000000; stroke-width:0.0200; stroke-opacity:1; 
stroke-linecap:round; stroke-linejoin:round;">
<path d="M1.7250 9.8970
L1.7250 9.7730
" />
</g>
<g style="fill:#000000; fill-opacity:1.0000; stroke:none;">
<circle cx="1.7250" cy="9.8970" r="0.0100" /> 
</g>
<g style="fill:none; 
stroke:#000000; stroke-width:0.0200; stroke-opacity:1; 
stroke-linecap:round; stroke-linejoin:round;">
<path d="M1.7250 9.9720
L1.7250 9.8970
" />
</g>
<g style="fill:#000000; fill-opacity:1.0000; stroke:none;">
<circle cx="1.7250" cy="9.9720" r="0.0100" /> 
</g>
<g style="fill:none; 
stroke:#000000; stroke-width:0.0200; stroke-opacity:1; 
stroke-linecap:round; stroke-linejoin:round;">
<path d="M1.7250 9.9970
L1.7250 9.9720
" />
<path d="M1.7250 10.5250
L0.9250 10.5250
" />
<path d="M1.7250 10.5250
L1.7250 9.9970
" />
<path d="M3.5250 1.1250
L5.9250 1.1250
" />
<path d="M3.5250 1.2130
L3.5250 1.1250
" />
</g>
<g style="fill:#000000; fill-opacity:1.0000; stroke:none;">
<circle cx="3.5250" cy="1.2130" r="0.0100" /> 
</g>
<g style="fill:none; 
stroke:#000000; stroke-width:0.0200; stroke-opacity:1; 
stroke-linecap:round; stroke-linejoin:round;">
<path d="M3.5250 1.4250
L3.5250 1.2130
" />
<path d="M3.5250 1.4250
L3.5250 1.5250
" />
<path d="M5.9250 1.2130
L5.9250 1.1250
" />
</g>
<g style="fill:#000000; fill-opacity:1.0000; stroke:none;">
<circle cx="5.9250" cy="1.2130" r="0.0100" /> 
</g>
<g style="fill:none; 
stroke:#000000; stroke-width:0.0200; stroke-opacity:1; 
stroke-linecap:round; stroke-linejoin:round;">
<path d="M5.9250 1.4250
L5.9250 1.2130
" />
<path d="M5.9250 1.4250
L5.9250 1.5250
" />
<path d="M11.9250 1.5250
L15.1750 1.5250
" />
<path d="M11.9250 1.5300
L11.9250 1.5250
" />
</g>
<g style="fill:#000000; fill-opacity:1.0000; stroke:none;">
<circle cx="11.9250" cy="1.5300" r="0.0100" /> 
</g>
<g style="fill:none; 
stroke:#000000; stroke-width:0.0200; stroke-opacity:1; 
stroke-linecap:round; stroke-linejoin:round;">
<path d="M11.9250 1.5440
L11.9250 1.5300
" />
</g>
<g style="fill:#000000; fill-opacity:1.0000; stroke:none;">
<circle cx="11.9250" cy="1.5440" r="0.0100" /> 
</g>
<g style="fill:none; 
stroke:#000000; stroke-width:0.0200; stroke-opacity:1; 
stroke-linecap:round; stroke-linejoin:round;">
<path d="M11.9250 1.5670
L11.9250 1.5440
" />
</g>
<g style="fill:#000000; fill-opacity:1.0000; stroke:none;">
<circle cx="11.9250" cy="1.5670" r="0.0100" /> 
</g>
<g style="fill:none; 
stroke:#000000; stroke-width:0.0200; stroke-opacity:1; 
stroke-linecap:round; stroke-linejoin:round;">
<path d="M11.9250 1.5990
L11.9250 1.5670
" />
</g>
<g style="fill:#000000; fill-opacity:1.0000; stroke:none;">
<circle cx="11.9250" cy="1.5990" r="0.0100" /> 
</g>
<g style="fill:none; 
stroke:#000000; stroke-width:0.0200; stroke-opacity:1; 
stroke-linecap:round; stroke-linejoin:round;">
<path d="M11.9250 1.6890
L11.9250 1.5990
" />
</g>
<g style="fill:#000000; fill-opacity:1.0000; stroke:none;">
<circle cx="11.9250" cy="1.6890" r="0.0100" /> 
</g>
<g style="fill:none; 
stroke:#000000; stroke-width:0.0200; stroke-opacity:1; 
stroke-linecap:round; stroke-linejoin:round;">
<path d="M11.9250 1.7450
L11.9250 1.6890
" />
</g>
<g style="fill:#000000; fill-opacity:1.0000; stroke:none;">
<circle cx="11.9250" cy="1.7450" r="0.0100" /> 
</g>
<g style="fill:none; 
stroke:#000000; stroke-width:0.0200; stroke-opacity:1; 
stroke-linecap:round; stroke-linejoin:round;">
<path d="M11.9250 1.9970
L11.9250 1.5250
" />
<path d="M11.9250 2.2750
L11.9250 1.7450
" />
<path d="M11.9250 2.2750
L11.9250 9.7750
" />
<path d="M11.9250 9.7750
L11.9250 10.3050
" />
<path d="M11.9250 9.9970
L1.7250 9.9970
" />
</g>
<g style="fill:#000000; fill-opacity:1.0000; stroke:none;">
<circle cx="11.9250" cy="10.3050" r="0.0100" /> 
</g>
<g style="fill:none; 
stroke:#000000; stroke-width:0.0200; stroke-opacity:1; 
stroke-linecap:round; stroke-linejoin:round;">
<path d="M11.9250 10.3050
L11.9250 10.3610
" />
</g>
<g style="fill:#000000; fill-opacity:1.0000; stroke:none;">
<circle cx="11.9250" cy="10.3610" r="0.0100" /> 
</g>
<g style="fill:none; 
stroke:#000000; stroke-width:0.0200; stroke-opacity:1; 
stroke-linecap:round; stroke-linejoin:round;">
<path d="M11.9250 10.3610
L11.9250 10.4510
" />
</g>
<g style="fill:#000000; fill-opacity:1.0000; stroke:none;">
<circle cx="11.9250" cy="10.4510" r="0.0100" /> 
</g>
<g style="fill:none; 
stroke:#000000; stroke-width:0.0200; stroke-opacity:1; 
stroke-linecap:round; stroke-linejoin:round;">
<path d="M11.9250 10.4510
L11.9250 10.4830
" />
</g>
<g style="fill:#000000; fill-opacity:1.0000; stroke:none;">
<circle cx="11.9250" cy="10.4830" r="0.0100" /> 
</g>
<g style="fill:none; 
stroke:#000000; stroke-width:0.0200; stroke-opacity:1; 
stroke-linecap:round; stroke-linejoin:round;">
<path d="M11.9250 10.4830
L11.9250 10.5060
" />
</g>
<g style="fill:#000000; fill-opacity:1.0000; stroke:none;">
<circle cx="11.9250" cy="10.5060" r="0.0100" /> 
</g>
<g style="fill:none; 
stroke:#000000; stroke-width:0.0200; stroke-opacity:1; 
stroke-linecap:round; stroke-linejoin:round;">
<path d="M11.9250 10.5060
L11.9250 10.5200
" />
</g>
<g style="fill:#000000; fill-opacity:1.0000; stroke:none;">
<circle cx="11.9250" cy="10.5200" r="0.0100" /> 
</g>
<g style="fill:none; 
stroke:#000000; stroke-width:0.0200; stroke-opacity:1; 
stroke-linecap:round; stroke-linejoin:round;">
<path d="M11.9250 10.5200
L11.9250 10.5250
" />
<path d="M11.9250 10.5250
L1.7250 10.5250
" />
<path d="M15.1750 1.5250
L15.1870 1.5250
" />
<path d="M15.1750 10.5250
L11.9250 10.5250
" />
<path d="M15.1750 10.5250
L15.1870 10.5250
" />
<path d="M15.1870 1.5250
L15.1750 1.5250
" />
<path d="M15.1870 1.5250
L15.2000 1.5260
" />
<path d="M15.1870 10.5250
L15.1750 10.5250
" />
<path d="M15.1870 10.5250
L15.2000 10.5240
" />
<path d="M15.2000 1.5260
L15.1870 1.5250
" />
<path d="M15.2000 1.5260
L15.2120 1.5280
" />
<path d="M15.2000 10.5240
L15.1870 10.5250
" />
<path d="M15.2000 10.5240
L15.2120 10.5220
" />
<path d="M15.2120 1.5280
L15.2000 1.5260
" />
<path d="M15.2120 1.5280
L15.2240 1.5300
" />
<path d="M15.2120 10.5220
L15.2000 10.5240
" />
<path d="M15.2120 10.5220
L15.2240 10.5200
" />
<path d="M15.2240 1.5300
L15.2120 1.5280
" />
<path d="M15.2240 1.5300
L15.2360 1.5330
" />
<path d="M15.2240 10.5200
L15.2120 10.5220
" />
<path d="M15.2240 10.5200
L15.2360 10.5170
" />
<path d="M15.2360 1.5330
L15.2240 1.5300
" />
<path d="M15.2360 1.5330
L15.2480 1.5360
" />
<path d="M15.2360 10.5170
L15.2240 10.5200
" />
<path d="M15.2360 10.5170
L15.2480 10.5140
" />
<path d="M15.2480 1.5360
L15.2360 1.5330
" />
<path d="M15.2480 1.5360
L15.2590 1.5400
" />
<path d="M15.2480 10.5140
L15.2360 10.5170
" />
<path d="M15.2480 10.5140
L15.2590 10.5100
" />
<path d="M15.2590 1.5400
L15.2480 1.5360
" />
<path d="M15.2590 1.5400
L15.2710 1.5440
" />
<path d="M15.2590 10.5100
L15.2480 10.5140
" />
<path d="M15.2590 10.5100
L15.2710 10.5060
" />
<path d="M15.2710 1.5440
L15.2590 1.5400
" />
<path d="M15.2710 1.5440
L15.2820 1.5490
" />
<path d="M15.2710 10.5060
L15.2590 10.5100
" />
<path d="M15.2710 10.5060
L15.2820 10.5010
" />
<path d="M15.2820 1.5490
L15.2710 1.5440
" />
<path d="M15.2820 1.5490
L15.2930 1.5540
" />
<path d="M15.2820 10.5010
L15.2710 10.5060
" />
<path d="M15.2820 10.5010
L15.2930 10.4960
" />
<path d="M15.2930 1.5540
L15.2820 1.5490
" />
<path d="M15.2930 1.5540
L15.3030 1.5600
" />
<path d="M15.2930 10.4960
L15.2820 10.5010
" />
<path d="M15.2930 10.4960
L15.3030 10.4900
" />
<path d="M15.3030 1.5600
L15.2930 1.5540
" />
<path d="M15.3030 1.5600
L15.3140 1.5670
" />
<path d="M15.3030 10.4900
L15.2930 10.4960
" />
<path d="M15.3030 10.4900
L15.3140 10.4830
" />
<path d="M15.3140 1.5670
L15.3030 1.5600
" />
<path d="M15.3140 1.5670
L15.3240 1.5740
" />
<path d="M15.3140 10.4830
L15.3030 10.4900
" />
<path d="M15.3140 10.4830
L15.3240 10.4760
" />
<path d="M15.3240 1.5740
L15.3140 1.5670
" />
<path d="M15.3240 1.5740
L15.3330 1.5820
" />
<path d="M15.3240 10.4760
L15.3140 10.4830
" />
<path d="M15.3240 10.4760
L15.3330 10.4680
" />
<path d="M15.3330 1.5820
L15.3240 1.5740
" />
<path d="M15.3330 1.5820
L15.3430 1.5900
" />
<path d="M15.3330 10.4680
L15.3240 10.4760
" />
<path d="M15.3330 10.4680
L15.3430 10.4600
" />
<path d="M15.3430 1.5900
L15.3330 1.5820
" />
<path d="M15.3430 1.5900
L15.3520 1.5980
" />
<path d="M15.3430 10.4600
L15.3330 10.4680
" />
<path d="M15.3430 10.4600
L15.3520 10.4520
" />
<path d="M15.3520 1.5980
L15.3430 1.5900
" />
</g>
<g style="fill:#000000; fill-opacity:1.0000; stroke:none;">
<circle cx="15.3520" cy="1.5980" r="0.0100" /> 
<circle cx="15.3520" cy="1.5980" r="0.0100" /> 
</g>
<g style="fill:none; 
stroke:#000000; stroke-width:0.0200; stroke-opacity:1; 
stroke-linecap:round; stroke-linejoin:round;">
<path d="M15.3520 1.5980
L15.3600 1.6070
" />
<path d="M15.3520 10.4520
L15.3430 10.4600
" />
</g>
<g style="fill:#000000; fill-opacity:1.0000; stroke:none;">
<circle cx="15.3520" cy="10.4520" r="0.0100" /> 
<circle cx="15.3520" cy="10.4520" r="0.0100" /> 
</g>
<g style="fill:none; 
stroke:#000000; stroke-width:0.0200; stroke-opacity:1; 
stroke-linecap:round; stroke-linejoin:round;">
<path d="M15.3520 10.4520
L15.3600 10.4430
" />
<path d="M15.3600 1.6070
L15.3520 1.5980
" />
<path d="M15.3600 1.6070
L15.3680 1.6170
" />
<path d="M15.3600 10.4430
L15.3520 10.4520
" />
<path d="M15.3600 10.4430
L15.3680 10.4330
" />
<path d="M15.3680 1.6170
L15.3600 1.6070
" />
<path d="M15.3680 1.6170
L15.3760 1.6260
" />
<path d="M15.3680 10.4330
L15.3600 10.4430
" />
<path d="M15.3680 10.4330
L15.3760 10.4240
" />
<path d="M15.3760 1.6260
L15.3680 1.6170
" />
<path d="M15.3760 1.6260
L15.3830 1.6360
" />
<path d="M15.3760 10.4240
L15.3680 10.4330
" />
<path d="M15.3760 10.4240
L15.3830 10.4140
" />
<path d="M15.3830 1.6360
L15.3760 1.6260
" />
<path d="M15.3830 1.6360
L15.3900 1.6470
" />
<path d="M15.3830 10.4140
L15.3760 10.4240
" />
<path d="M15.3830 10.4140
L15.3900 10.4030
" />
<path d="M15.3900 1.6470
L15.3830 1.6360
" />
<path d="M15.3900 1.6470
L15.3960 1.6570
" />
<path d="M15.3900 10.4030
L15.3830 10.4140
" />
<path d="M15.3900 10.4030
L15.3960 10.3930
" />
<path d="M15.3960 1.6570
L15.3900 1.6470
" />
<path d="M15.3960 1.6570
L15.4010 1.6680
" />
<path d="M15.3960 10.3930
L15.3900 10.4030
" />
<path d="M15.3960 10.3930
L15.4010 10.3820
" />
<path d="M15.4010 1.6680
L15.3960 1.6570
" />
<path d="M15.4010 1.6680
L15.4060 1.6790
" />
<path d="M15.4010 10.3820
L15.3960 10.3930
" />
<path d="M15.4010 10.3820
L15.4060 10.3710
" />
<path d="M15.4060 1.6790
L15.4010 1.6680
" />
<path d="M15.4060 1.6790
L15.4100 1.6910
" />
<path d="M15.4060 10.3710
L15.4010 10.3820
" />
<path d="M15.4060 10.3710
L15.4100 10.3590
" />
<path d="M15.4100 1.6910
L15.4060 1.6790
" />
<path d="M15.4100 1.6910
L15.4140 1.7020
" />
<path d="M15.4100 10.3590
L15.4060 10.3710
" />
<path d="M15.4100 10.3590
L15.4140 10.3480
" />
<path d="M15.4140 1.7020
L15.4100 1.6910
" />
<path d="M15.4140 1.7020
L15.4170 1.7140
" />
<path d="M15.4140 10.3480
L15.4100 10.3590
" />
<path d="M15.4140 10.3480
L15.4170 10.3360
" />
<path d="M15.4170 1.7140
L15.4140 1.7020
" />
<path d="M15.4170 1.7140
L15.4200 1.7260
" />
<path d="M15.4170 10.3360
L15.4140 10.3480
" />
<path d="M15.4170 10.3360
L15.4200 10.3240
" />
<path d="M15.4200 1.7260
L15.4170 1.7140
" />
<path d="M15.4200 1.7260
L15.4220 1.7380
" />
<path d="M15.4200 10.3240
L15.4170 10.3360
" />
<path d="M15.4200 10.3240
L15.4220 10.3120
" />
<path d="M15.4220 1.7380
L15.4200 1.7260
" />
<path d="M15.4220 1.7380
L15.4240 1.7500
" />
<path d="M15.4220 10.3120
L15.4200 10.3240
" />
<path d="M15.4220 10.3120
L15.4240 10.3000
" />
<path d="M15.4240 1.7500
L15.4220 1.7380
" />
<path d="M15.4240 1.7500
L15.4250 1.7630
" />
<path d="M15.4240 10.3000
L15.4220 10.3120
" />
<path d="M15.4240 10.3000
L15.4250 10.2870
" />
<path d="M15.4250 1.7630
L15.4240 1.7500
" />
<path d="M15.4250 1.7630
L15.4250 1.7750
" />
<path d="M15.4250 1.7750
L15.4250 1.7630
" />
<path d="M15.4250 1.7750
L15.4250 1.9210
" />
<path d="M15.4250 1.9210
L15.4250 1.7750
" />
</g>
<g style="fill:#000000; fill-opacity:1.0000; stroke:none;">
<circle cx="15.4250" cy="1.9210" r="0.0100" /> 
<circle cx="15.4250" cy="1.9210" r="0.0100" /> 
</g>
<g style="fill:none; 
stroke:#000000; stroke-width:0.0200; stroke-opacity:1; 
stroke-linecap:round; stroke-linejoin:round;">
<path d="M15.4250 1.9210
L15.4250 2.2750
" />
<path d="M15.4250 2.2750
L15.4250 1.9210
" />
<path d="M15.4250 9.7750
L15.4250 2.2750
" />
<path d="M15.4250 9.7750
L15.4250 10.1290
" />
<path d="M15.4250 10.1290
L15.4250 9.7750
" />
</g>
<g style="fill:#000000; fill-opacity:1.0000; stroke:none;">
<circle cx="15.4250" cy="10.1290" r="0.0100" /> 
<circle cx="15.4250" cy="10.1290" r="0.0100" /> 
</g>
<g style="fill:none; 
stroke:#000000; stroke-width:0.0200; stroke-opacity:1; 
stroke-linecap:round; stroke-linejoin:round;">
<path d="M15.4250 10.1290
L15.4250 10.2750
" />
<path d="M15.4250 10.2750
L15.4250 10.1290
" />
<path d="M15.4250 10.2750
L15.4250 10.2870
" />
<path d="M15.4250 10.2870
L15.4240 10.3000
" />
<path d="M15.4250 10.2870
L15.4250 10.2750
" />
</g> 
</svg>
