<?xml version="1.0" standalone="no"?>
 <!DOCTYPE svg PUBLIC "-//W3C//DTD SVG 1.1//EN" 
 "http://www.w3.org/Graphics/SVG/1.1/DTD/svg11.dtd"> 
<svg
  xmlns:svg="http://www.w3.org/2000/svg"
  xmlns="http://www.w3.org/2000/svg"
  xmlns:xlink="http://www.w3.org/1999/xlink"
  version="1.1"
  width="9.8298mm" height="13.1318mm" viewBox="0.0000 0.0000 9.8298 13.1318">
<title>SVG Image created as outline.svg date 2025/04/04 10:06:20 </title>
  <desc>Image generated by PCBNEW </desc>
<g style="fill:#000000; fill-opacity:1.0000;stroke:#000000; stroke-opacity:1.0000;
stroke-linecap:round; stroke-linejoin:round;"
 transform="translate(0 0) scale(1 1)">
</g>
<g style="fill:none; 
stroke:#000000; stroke-width:0.0200; stroke-opacity:1; 
stroke-linecap:round; stroke-linejoin:round;">
<path d="M0.5540 1.9230
L0.5540 9.9730
" />
<path d="M0.5540 9.9730
L0.5570 9.9730
" />
<path d="M0.5540 11.6230
L0.5540 12.5220
" />
</g>
<g style="fill:#000000; fill-opacity:1.0000; stroke:none;">
<circle cx="0.5570" cy="9.9730" r="0.0100" /> 
<circle cx="0.5570" cy="9.9730" r="0.0100" /> 
</g>
<g style="fill:none; 
stroke:#000000; stroke-width:0.0200; stroke-opacity:1; 
stroke-linecap:round; stroke-linejoin:round;">
<path d="M0.5570 9.9730
L0.5590 9.9730
" />
<path d="M0.5570 11.6120
L0.5570 11.6180
" />
<path d="M0.5570 11.6180
L0.5570 11.6230
" />
<path d="M0.5570 11.6230
L0.5540 11.6230
" />
</g>
<g style="fill:#000000; fill-opacity:1.0000; stroke:none;">
<circle cx="0.5570" cy="11.6230" r="0.0100" /> 
</g>
<g style="fill:none; 
stroke:#000000; stroke-width:0.0200; stroke-opacity:1; 
stroke-linecap:round; stroke-linejoin:round;">
<path d="M0.5590 9.9730
L0.5570 9.9730
" />
<path d="M0.5590 9.9730
L0.5590 9.9740
" />
<path d="M0.5590 9.9740
L0.5600 9.9740
" />
<path d="M0.5590 11.6050
L0.5570 11.6120
" />
<path d="M0.5590 11.6230
L0.5570 11.6230
" />
<path d="M0.5600 9.9740
L0.5590 9.9730
" />
<path d="M0.5600 9.9740
L0.5600 9.9770
" />
<path d="M0.5600 9.9770
L0.5600 9.9740
" />
<path d="M0.5600 9.9770
L0.5600 9.9810
" />
<path d="M0.5600 9.9810
L0.5600 9.9770
" />
<path d="M0.5600 9.9810
L0.5620 9.9850
" />
<path d="M0.5600 11.5990
L0.5590 11.6050
" />
<path d="M0.5600 11.5990
L0.5680 11.5640
" />
<path d="M0.5600 11.6150
L0.5600 11.6180
" />
<path d="M0.5600 11.6180
L0.5600 11.6200
" />
<path d="M0.5600 11.6200
L0.5590 11.6230
" />
<path d="M0.5620 1.9230
L0.5540 1.9230
" />
</g>
<g style="fill:#000000; fill-opacity:1.0000; stroke:none;">
<circle cx="0.5620" cy="1.9230" r="0.0100" /> 
</g>
<g style="fill:none; 
stroke:#000000; stroke-width:0.0200; stroke-opacity:1; 
stroke-linecap:round; stroke-linejoin:round;">
<path d="M0.5620 9.9850
L0.5620 9.9900
" />
<path d="M0.5620 9.9900
L0.5600 9.9810
" />
<path d="M0.5620 9.9900
L0.5630 9.9970
" />
<path d="M0.5620 11.6050
L0.5600 11.6150
" />
<path d="M0.5620 12.5220
L0.5540 12.5220
" />
</g>
<g style="fill:#000000; fill-opacity:1.0000; stroke:none;">
<circle cx="0.5620" cy="12.5220" r="0.0100" /> 
</g>
<g style="fill:none; 
stroke:#000000; stroke-width:0.0200; stroke-opacity:1; 
stroke-linecap:round; stroke-linejoin:round;">
<path d="M0.5630 9.9970
L0.5650 10.0020
" />
<path d="M0.5630 11.6010
L0.5600 11.5990
" />
<path d="M0.5650 10.0020
L0.5620 9.9900
" />
<path d="M0.5650 10.0020
L0.5650 10.0100
" />
<path d="M0.5650 10.0100
L0.5670 10.0170
" />
<path d="M0.5650 11.5930
L0.5620 11.6050
" />
<path d="M0.5670 10.0170
L0.5650 10.0020
" />
<path d="M0.5670 10.0170
L0.5680 10.0260
" />
<path d="M0.5670 11.5780
L0.5650 11.5930
" />
<path d="M0.5680 10.0260
L0.5680 10.0340
" />
<path d="M0.5680 10.0340
L0.5670 10.0170
" />
<path d="M0.5680 10.0340
L0.5680 10.0440
" />
<path d="M0.5680 10.0440
L0.5700 10.0530
" />
<path d="M0.5680 11.5610
L0.5670 11.5780
" />
<path d="M0.5700 10.0530
L0.5680 10.0340
" />
<path d="M0.5700 10.0530
L0.5700 10.0620
" />
<path d="M0.5700 10.0620
L0.5700 10.0730
" />
<path d="M0.5700 10.0730
L0.5700 10.0530
" />
<path d="M0.5700 10.0730
L0.5700 11.5220
" />
<path d="M0.5700 10.0730
L0.5700 11.5220
" />
<path d="M0.5700 11.5220
L0.5700 11.5430
" />
<path d="M0.5700 11.5430
L0.5680 11.5610
" />
<path d="M0.5810 1.9230
L0.5620 1.9230
" />
</g>
<g style="fill:#000000; fill-opacity:1.0000; stroke:none;">
<circle cx="0.5810" cy="1.9230" r="0.0100" /> 
</g>
<g style="fill:none; 
stroke:#000000; stroke-width:0.0200; stroke-opacity:1; 
stroke-linecap:round; stroke-linejoin:round;">
<path d="M0.5810 12.5220
L0.5620 12.5220
" />
</g>
<g style="fill:#000000; fill-opacity:1.0000; stroke:none;">
<circle cx="0.5810" cy="12.5220" r="0.0100" /> 
</g>
<g style="fill:none; 
stroke:#000000; stroke-width:0.0200; stroke-opacity:1; 
stroke-linecap:round; stroke-linejoin:round;">
<path d="M0.6120 1.9230
L0.5810 1.9230
" />
</g>
<g style="fill:#000000; fill-opacity:1.0000; stroke:none;">
<circle cx="0.6120" cy="1.9230" r="0.0100" /> 
</g>
<g style="fill:none; 
stroke:#000000; stroke-width:0.0200; stroke-opacity:1; 
stroke-linecap:round; stroke-linejoin:round;">
<path d="M0.6120 12.5220
L0.5810 12.5220
" />
</g>
<g style="fill:#000000; fill-opacity:1.0000; stroke:none;">
<circle cx="0.6120" cy="12.5220" r="0.0100" /> 
</g>
<g style="fill:none; 
stroke:#000000; stroke-width:0.0200; stroke-opacity:1; 
stroke-linecap:round; stroke-linejoin:round;">
<path d="M0.6550 1.9230
L0.6120 1.9230
" />
</g>
<g style="fill:#000000; fill-opacity:1.0000; stroke:none;">
<circle cx="0.6550" cy="1.9230" r="0.0100" /> 
</g>
<g style="fill:none; 
stroke:#000000; stroke-width:0.0200; stroke-opacity:1; 
stroke-linecap:round; stroke-linejoin:round;">
<path d="M0.6550 12.5220
L0.6120 12.5220
" />
</g>
<g style="fill:#000000; fill-opacity:1.0000; stroke:none;">
<circle cx="0.6550" cy="12.5220" r="0.0100" /> 
</g>
<g style="fill:none; 
stroke:#000000; stroke-width:0.0200; stroke-opacity:1; 
stroke-linecap:round; stroke-linejoin:round;">
<path d="M0.7080 1.9230
L0.6550 1.9230
" />
</g>
<g style="fill:#000000; fill-opacity:1.0000; stroke:none;">
<circle cx="0.7080" cy="1.9230" r="0.0100" /> 
</g>
<g style="fill:none; 
stroke:#000000; stroke-width:0.0200; stroke-opacity:1; 
stroke-linecap:round; stroke-linejoin:round;">
<path d="M0.7080 12.5220
L0.6550 12.5220
" />
</g>
<g style="fill:#000000; fill-opacity:1.0000; stroke:none;">
<circle cx="0.7080" cy="12.5220" r="0.0100" /> 
</g>
<g style="fill:none; 
stroke:#000000; stroke-width:0.0200; stroke-opacity:1; 
stroke-linecap:round; stroke-linejoin:round;">
<path d="M0.7730 1.9230
L0.7080 1.9230
" />
</g>
<g style="fill:#000000; fill-opacity:1.0000; stroke:none;">
<circle cx="0.7730" cy="1.9230" r="0.0100" /> 
</g>
<g style="fill:none; 
stroke:#000000; stroke-width:0.0200; stroke-opacity:1; 
stroke-linecap:round; stroke-linejoin:round;">
<path d="M0.7730 12.5220
L0.7080 12.5220
" />
</g>
<g style="fill:#000000; fill-opacity:1.0000; stroke:none;">
<circle cx="0.7730" cy="12.5220" r="0.0100" /> 
</g>
<g style="fill:none; 
stroke:#000000; stroke-width:0.0200; stroke-opacity:1; 
stroke-linecap:round; stroke-linejoin:round;">
<path d="M0.8470 1.9230
L0.7730 1.9230
" />
</g>
<g style="fill:#000000; fill-opacity:1.0000; stroke:none;">
<circle cx="0.8470" cy="1.9230" r="0.0100" /> 
</g>
<g style="fill:none; 
stroke:#000000; stroke-width:0.0200; stroke-opacity:1; 
stroke-linecap:round; stroke-linejoin:round;">
<path d="M0.8470 12.5220
L0.7730 12.5220
" />
</g>
<g style="fill:#000000; fill-opacity:1.0000; stroke:none;">
<circle cx="0.8470" cy="12.5220" r="0.0100" /> 
</g>
<g style="fill:none; 
stroke:#000000; stroke-width:0.0200; stroke-opacity:1; 
stroke-linecap:round; stroke-linejoin:round;">
<path d="M1.0230 1.9230
L0.8470 1.9230
" />
</g>
<g style="fill:#000000; fill-opacity:1.0000; stroke:none;">
<circle cx="1.0230" cy="1.9230" r="0.0100" /> 
</g>
<g style="fill:none; 
stroke:#000000; stroke-width:0.0200; stroke-opacity:1; 
stroke-linecap:round; stroke-linejoin:round;">
<path d="M1.0230 12.5220
L0.8470 12.5220
" />
</g>
<g style="fill:#000000; fill-opacity:1.0000; stroke:none;">
<circle cx="1.0230" cy="12.5220" r="0.0100" /> 
</g>
<g style="fill:none; 
stroke:#000000; stroke-width:0.0200; stroke-opacity:1; 
stroke-linecap:round; stroke-linejoin:round;">
<path d="M1.2250 1.9230
L1.0230 1.9230
" />
</g>
<g style="fill:#000000; fill-opacity:1.0000; stroke:none;">
<circle cx="1.2250" cy="1.9230" r="0.0100" /> 
</g>
<g style="fill:none; 
stroke:#000000; stroke-width:0.0200; stroke-opacity:1; 
stroke-linecap:round; stroke-linejoin:round;">
<path d="M1.2250 12.5220
L1.0230 12.5220
" />
</g>
<g style="fill:#000000; fill-opacity:1.0000; stroke:none;">
<circle cx="1.2250" cy="12.5220" r="0.0100" /> 
</g>
<g style="fill:none; 
stroke:#000000; stroke-width:0.0200; stroke-opacity:1; 
stroke-linecap:round; stroke-linejoin:round;">
<path d="M1.5550 1.9230
L1.2250 1.9230
" />
<path d="M1.5550 12.5220
L1.2250 12.5220
" />
<path d="M1.8450 1.9230
L1.8450 1.3240
" />
<path d="M2.0350 1.2130
L2.3160 1.2130
" />
<path d="M2.0350 1.3030
L2.0350 1.2130
" />
</g>
<g style="fill:#000000; fill-opacity:1.0000; stroke:none;">
<circle cx="2.0350" cy="1.3030" r="0.0100" /> 
</g>
<g style="fill:none; 
stroke:#000000; stroke-width:0.0200; stroke-opacity:1; 
stroke-linecap:round; stroke-linejoin:round;">
<path d="M2.0350 1.3240
L1.8450 1.3240
" />
<path d="M2.0350 1.5230
L2.0350 1.3030
" />
<path d="M2.0350 1.9230
L2.0350 1.5230
" />
<path d="M2.0750 0.7290
L2.2760 0.7290
" />
<path d="M2.0750 1.1620
L2.0750 0.7290
" />
<path d="M2.0750 1.2130
L2.0750 1.1620
" />
<path d="M2.2760 1.1620
L2.2760 0.7290
" />
<path d="M2.2760 1.2130
L2.2760 1.1620
" />
<path d="M2.3160 1.3030
L2.3160 1.2130
" />
</g>
<g style="fill:#000000; fill-opacity:1.0000; stroke:none;">
<circle cx="2.3160" cy="1.3030" r="0.0100" /> 
</g>
<g style="fill:none; 
stroke:#000000; stroke-width:0.0200; stroke-opacity:1; 
stroke-linecap:round; stroke-linejoin:round;">
<path d="M2.3160 1.5230
L2.3160 1.3030
" />
<path d="M2.3160 1.9230
L2.3160 1.5230
" />
<path d="M2.4260 10.1220
L2.6240 10.1220
" />
<path d="M2.5260 9.8230
L2.5260 9.3000
" />
<path d="M2.5350 1.2130
L2.8160 1.2130
" />
<path d="M2.5350 1.3030
L2.5350 1.2130
" />
</g>
<g style="fill:#000000; fill-opacity:1.0000; stroke:none;">
<circle cx="2.5350" cy="1.3030" r="0.0100" /> 
</g>
<g style="fill:none; 
stroke:#000000; stroke-width:0.0200; stroke-opacity:1; 
stroke-linecap:round; stroke-linejoin:round;">
<path d="M2.5350 1.3240
L2.3160 1.3240
" />
<path d="M2.5350 1.5230
L2.5350 1.3030
" />
<path d="M2.5350 1.9230
L2.5350 1.5230
" />
<path d="M2.5350 9.7360
L2.5350 9.2180
" />
<path d="M2.5350 9.7360
L2.5860 9.8230
" />
<path d="M2.5350 9.7360
L2.6690 9.7360
" />
<path d="M2.5750 0.7290
L2.7760 0.7290
" />
<path d="M2.5750 1.1620
L2.5750 0.7290
" />
<path d="M2.5750 1.2130
L2.5750 1.1620
" />
<path d="M2.6240 10.1330
L2.6240 10.1220
" />
<path d="M2.6250 10.1110
L2.6250 10.1330
" />
<path d="M2.6250 10.1330
L2.6240 10.1330
" />
<path d="M2.6270 10.0900
L2.6250 10.1110
" />
<path d="M2.6270 10.0900
L2.8690 8.1160
" />
<path d="M2.6600 9.8230
L2.5260 9.8230
" />
<path d="M2.6600 9.8230
L2.5860 9.8230
" />
<path d="M2.6760 8.0660
L2.4260 10.1220
" />
<path d="M2.6790 8.0420
L2.6760 8.0660
" />
<path d="M2.6830 8.0190
L2.6790 8.0420
" />
<path d="M2.6880 7.9970
L2.6830 8.0190
" />
<path d="M2.6950 7.9750
L2.6880 7.9970
" />
<path d="M2.7030 7.9530
L2.6950 7.9750
" />
<path d="M2.7110 7.9310
L2.7030 7.9530
" />
<path d="M2.7200 7.9110
L2.7110 7.9310
" />
<path d="M2.7240 7.9000
L2.7240 8.0720
" />
<path d="M2.7240 8.0720
L2.8720 8.0720
" />
<path d="M2.7310 7.8900
L2.7200 7.9110
" />
<path d="M2.7410 7.8700
L2.7310 7.8900
" />
<path d="M2.7530 7.8520
L2.7410 7.8700
" />
<path d="M2.7660 7.8320
L2.7530 7.8520
" />
<path d="M2.7760 1.1620
L2.7760 0.7290
" />
<path d="M2.7760 1.2130
L2.5750 1.2130
" />
<path d="M2.7760 1.2130
L2.7760 1.1620
" />
<path d="M2.7800 7.8140
L2.7660 7.8320
" />
<path d="M2.7930 7.7980
L2.7800 7.8140
" />
<path d="M2.7970 7.7920
L3.5530 7.7920
" />
<path d="M2.8090 7.7800
L2.7930 7.7980
" />
<path d="M2.8160 1.3030
L2.8160 1.2130
" />
</g>
<g style="fill:#000000; fill-opacity:1.0000; stroke:none;">
<circle cx="2.8160" cy="1.3030" r="0.0100" /> 
</g>
<g style="fill:none; 
stroke:#000000; stroke-width:0.0200; stroke-opacity:1; 
stroke-linecap:round; stroke-linejoin:round;">
<path d="M2.8160 1.5230
L2.8160 1.3030
" />
<path d="M2.8160 1.9230
L2.8160 1.5230
" />
<path d="M2.8160 8.5600
L2.8160 8.0720
" />
<path d="M2.8250 7.7650
L2.8090 7.7800
" />
<path d="M2.8250 8.0720
L2.8250 8.4790
" />
<path d="M2.8410 7.7490
L2.8250 7.7650
" />
<path d="M2.8580 7.7350
L2.8410 7.7490
" />
<path d="M2.8690 8.1790
L2.8690 8.1160
" />
<path d="M2.8690 8.1790
L2.8720 8.1790
" />
<path d="M2.8720 8.1440
L2.8720 8.0440
" />
<path d="M2.8720 8.1790
L2.8720 8.1440
" />
<path d="M2.8730 8.0250
L2.8730 8.0360
" />
<path d="M2.8730 8.0360
L2.8720 8.0440
" />
<path d="M2.8730 8.1420
L2.8730 8.1440
" />
<path d="M2.8730 8.1440
L2.8720 8.1440
" />
<path d="M2.8740 8.0170
L2.8730 8.0250
" />
<path d="M2.8740 8.1400
L2.8730 8.1420
" />
<path d="M2.8760 7.7210
L2.8580 7.7350
" />
<path d="M2.8760 8.0090
L2.8740 8.0170
" />
<path d="M2.8760 8.1380
L2.8740 8.1400
" />
<path d="M2.8770 8.0010
L2.8760 8.0090
" />
<path d="M2.8770 8.1360
L2.8760 8.1380
" />
<path d="M2.8780 7.9850
L2.8780 7.9930
" />
<path d="M2.8780 7.9930
L2.8770 8.0010
" />
<path d="M2.8780 8.1320
L2.8780 8.1340
" />
<path d="M2.8780 8.1340
L2.8770 8.1360
" />
<path d="M2.8790 7.9770
L2.8780 7.9850
" />
<path d="M2.8790 8.1320
L2.8780 8.1320
" />
<path d="M2.8820 7.9650
L2.8820 7.9710
" />
<path d="M2.8820 7.9710
L2.8790 7.9770
" />
<path d="M2.8820 8.1280
L2.8820 8.1300
" />
<path d="M2.8820 8.1300
L2.8790 8.1320
" />
<path d="M2.8850 7.9590
L2.8820 7.9650
" />
<path d="M2.8850 8.1280
L2.8820 8.1280
" />
<path d="M2.8860 7.9530
L2.8850 7.9590
" />
<path d="M2.8860 8.1260
L2.8850 8.1280
" />
<path d="M2.8870 7.9490
L2.8860 7.9530
" />
<path d="M2.8870 8.1260
L2.8860 8.1260
" />
<path d="M2.8900 7.9430
L2.8870 7.9490
" />
<path d="M2.8900 8.1240
L2.8870 8.1260
" />
<path d="M2.8910 7.9390
L2.8900 7.9430
" />
<path d="M2.8910 8.1240
L2.8900 8.1240
" />
<path d="M2.8940 7.7090
L2.8760 7.7210
" />
<path d="M2.8940 7.9350
L2.8910 7.9390
" />
<path d="M2.8940 8.1220
L2.8910 8.1240
" />
<path d="M2.8940 8.1220
L2.8940 7.9350
" />
<path d="M2.8940 8.1220
L2.9020 8.1160
" />
<path d="M2.9020 7.9270
L2.8940 7.9350
" />
<path d="M2.9020 8.1160
L2.9140 8.1100
" />
<path d="M2.9130 7.6970
L2.8940 7.7090
" />
<path d="M2.9140 7.9210
L2.9020 7.9270
" />
<path d="M2.9140 8.1100
L2.9260 8.1020
" />
<path d="M2.9260 7.9150
L2.9140 7.9210
" />
<path d="M2.9260 8.1020
L2.9400 8.0960
" />
<path d="M2.9320 7.6850
L2.9130 7.6970
" />
<path d="M2.9400 7.9090
L2.9260 7.9150
" />
<path d="M2.9400 8.0960
L2.9540 8.0900
" />
<path d="M2.9520 7.6750
L2.9320 7.6850
" />
<path d="M2.9540 7.9020
L2.9400 7.9090
" />
<path d="M2.9540 8.0900
L2.9700 8.0860
" />
<path d="M2.9700 7.8980
L2.9540 7.9020
" />
<path d="M2.9700 8.0860
L2.9880 8.0800
" />
<path d="M2.9720 7.6650
L2.9520 7.6750
" />
<path d="M2.9880 7.8920
L2.9700 7.8980
" />
<path d="M2.9880 8.0800
L3.0060 8.0760
" />
<path d="M2.9940 7.6570
L2.9720 7.6650
" />
<path d="M3.0060 7.8880
L2.9880 7.8920
" />
<path d="M3.0060 8.0760
L3.0250 8.0720
" />
<path d="M3.0150 7.6480
L2.9940 7.6570
" />
<path d="M3.0250 7.8840
L3.0060 7.8880
" />
<path d="M3.0250 8.0720
L3.0450 8.0680
" />
<path d="M3.0350 1.2130
L3.3150 1.2130
" />
<path d="M3.0350 1.3030
L3.0350 1.2130
" />
</g>
<g style="fill:#000000; fill-opacity:1.0000; stroke:none;">
<circle cx="3.0350" cy="1.3030" r="0.0100" /> 
</g>
<g style="fill:none; 
stroke:#000000; stroke-width:0.0200; stroke-opacity:1; 
stroke-linecap:round; stroke-linejoin:round;">
<path d="M3.0350 1.3240
L2.8160 1.3240
" />
<path d="M3.0350 1.5230
L3.0350 1.3030
" />
<path d="M3.0350 1.9230
L3.0350 1.5230
" />
<path d="M3.0370 7.6420
L3.0150 7.6480
" />
<path d="M3.0450 7.8800
L3.0250 7.8840
" />
<path d="M3.0450 8.0680
L3.0650 8.0660
" />
<path d="M3.0590 7.6360
L3.0370 7.6420
" />
<path d="M3.0650 7.8780
L3.0450 7.8800
" />
<path d="M3.0650 8.0660
L3.0850 8.0640
" />
<path d="M3.0750 0.7290
L3.2750 0.7290
" />
<path d="M3.0750 1.1620
L3.0750 0.7290
" />
<path d="M3.0750 1.2130
L3.0750 1.1620
" />
<path d="M3.0810 7.6320
L3.0590 7.6360
" />
<path d="M3.0850 7.8760
L3.0650 7.8780
" />
<path d="M3.0850 8.0640
L3.1070 8.0620
" />
<path d="M3.1050 7.6280
L3.0810 7.6320
" />
<path d="M3.1070 7.8740
L3.0850 7.8760
" />
<path d="M3.1070 8.0620
L3.1290 8.0600
" />
<path d="M3.1250 7.8720
L3.1250 7.7920
" />
<path d="M3.1270 7.6250
L3.1050 7.6280
" />
<path d="M3.1290 7.8720
L3.1070 7.8740
" />
<path d="M3.1290 8.0600
L3.1520 8.0600
" />
<path d="M3.1520 7.6230
L3.1270 7.6250
" />
<path d="M3.1520 7.8720
L3.1290 7.8720
" />
<path d="M3.1520 8.0600
L3.1760 8.0580
" />
<path d="M3.1760 7.6220
L3.1520 7.6230
" />
</g>
<g style="fill:#000000; fill-opacity:1.0000; stroke:none;">
<circle cx="3.1760" cy="7.6220" r="0.0100" /> 
</g>
<g style="fill:none; 
stroke:#000000; stroke-width:0.0200; stroke-opacity:1; 
stroke-linecap:round; stroke-linejoin:round;">
<path d="M3.1760 7.8700
L3.1520 7.8720
" />
</g>
<g style="fill:#000000; fill-opacity:1.0000; stroke:none;">
<circle cx="3.1760" cy="7.8700" r="0.0100" /> 
<circle cx="3.1760" cy="8.0580" r="0.0100" /> 
</g>
<g style="fill:none; 
stroke:#000000; stroke-width:0.0200; stroke-opacity:1; 
stroke-linecap:round; stroke-linejoin:round;">
<path d="M3.1760 8.0580
L3.1980 8.0600
" />
<path d="M3.1980 7.6230
L3.1760 7.6220
" />
<path d="M3.1980 7.8720
L3.1760 7.8700
" />
<path d="M3.1980 8.0600
L3.2200 8.0600
" />
<path d="M3.2200 7.8720
L3.1980 7.8720
" />
<path d="M3.2200 8.0600
L3.2420 8.0620
" />
<path d="M3.2220 7.6250
L3.1980 7.6230
" />
<path d="M3.2260 7.7920
L3.2260 7.8720
" />
<path d="M3.2420 7.8740
L3.2200 7.8720
" />
<path d="M3.2420 8.0620
L3.2650 8.0640
" />
<path d="M3.2460 7.6280
L3.2220 7.6250
" />
<path d="M3.2650 7.8760
L3.2420 7.8740
" />
<path d="M3.2650 8.0640
L3.2850 8.0660
" />
<path d="M3.2690 7.6320
L3.2460 7.6280
" />
<path d="M3.2750 1.1620
L3.2750 0.7290
" />
<path d="M3.2750 1.2130
L3.2750 1.1620
" />
<path d="M3.2850 7.8780
L3.2650 7.8760
" />
<path d="M3.2850 8.0660
L3.3050 8.0680
" />
<path d="M3.2910 7.6360
L3.2690 7.6320
" />
<path d="M3.3050 7.8800
L3.2850 7.8780
" />
<path d="M3.3050 8.0680
L3.3250 8.0720
" />
<path d="M3.3130 7.6420
L3.2910 7.6360
" />
<path d="M3.3150 1.3030
L3.3150 1.2130
" />
</g>
<g style="fill:#000000; fill-opacity:1.0000; stroke:none;">
<circle cx="3.3150" cy="1.3030" r="0.0100" /> 
</g>
<g style="fill:none; 
stroke:#000000; stroke-width:0.0200; stroke-opacity:1; 
stroke-linecap:round; stroke-linejoin:round;">
<path d="M3.3150 1.5230
L3.3150 1.3030
" />
<path d="M3.3150 1.9230
L3.3150 1.5230
" />
<path d="M3.3250 7.8840
L3.3050 7.8800
" />
<path d="M3.3250 8.0720
L3.3450 8.0760
" />
<path d="M3.3350 7.6480
L3.3130 7.6420
" />
<path d="M3.3450 7.8880
L3.3250 7.8840
" />
<path d="M3.3450 8.0760
L3.3630 8.0800
" />
<path d="M3.3570 7.6570
L3.3350 7.6480
" />
<path d="M3.3630 7.8920
L3.3450 7.8880
" />
<path d="M3.3630 8.0800
L3.3790 8.0860
" />
<path d="M3.3770 7.6650
L3.3570 7.6570
" />
<path d="M3.3790 7.8980
L3.3630 7.8920
" />
<path d="M3.3790 8.0860
L3.3960 8.0900
" />
<path d="M3.3960 7.9020
L3.3790 7.8980
" />
<path d="M3.3960 8.0900
L3.4100 8.0960
" />
<path d="M3.3980 7.6750
L3.3770 7.6650
" />
<path d="M3.4100 7.9090
L3.3960 7.9020
" />
<path d="M3.4100 8.0960
L3.4240 8.1020
" />
<path d="M3.4180 7.6850
L3.3980 7.6750
" />
<path d="M3.4240 7.9150
L3.4100 7.9090
" />
<path d="M3.4240 8.1020
L3.4360 8.1100
" />
<path d="M3.4360 7.9210
L3.4240 7.9150
" />
<path d="M3.4360 8.1100
L3.4480 8.1160
" />
<path d="M3.4380 7.6970
L3.4180 7.6850
" />
<path d="M3.4480 7.9270
L3.4360 7.9210
" />
<path d="M3.4480 8.1160
L3.4560 8.1220
" />
<path d="M3.4560 7.7090
L3.4380 7.6970
" />
<path d="M3.4560 7.9350
L3.4480 7.9270
" />
<path d="M3.4560 8.1220
L3.4560 7.9350
" />
<path d="M3.4580 7.9390
L3.4560 7.9350
" />
<path d="M3.4580 8.1240
L3.4560 8.1220
" />
<path d="M3.4600 7.9430
L3.4580 7.9390
" />
<path d="M3.4600 8.1240
L3.4580 8.1240
" />
<path d="M3.4620 7.9490
L3.4600 7.9430
" />
<path d="M3.4620 8.1260
L3.4600 8.1240
" />
<path d="M3.4640 7.9530
L3.4620 7.9490
" />
<path d="M3.4640 8.1260
L3.4620 8.1260
" />
<path d="M3.4660 7.9590
L3.4640 7.9530
" />
<path d="M3.4660 8.1280
L3.4640 8.1260
" />
<path d="M3.4680 7.9650
L3.4660 7.9590
" />
<path d="M3.4680 8.1280
L3.4660 8.1280
" />
<path d="M3.4680 8.1300
L3.4680 8.1280
" />
<path d="M3.4700 7.9770
L3.4680 7.9650
" />
<path d="M3.4700 8.1320
L3.4680 8.1300
" />
<path d="M3.4720 7.9930
L3.4700 7.9770
" />
<path d="M3.4720 8.1320
L3.4700 8.1320
" />
<path d="M3.4720 8.1340
L3.4720 8.1320
" />
<path d="M3.4740 7.7210
L3.4560 7.7090
" />
<path d="M3.4740 8.0090
L3.4720 7.9930
" />
<path d="M3.4740 8.1360
L3.4720 8.1340
" />
<path d="M3.4740 8.1380
L3.4740 8.1360
" />
<path d="M3.4760 8.0250
L3.4740 8.0090
" />
<path d="M3.4760 8.1400
L3.4740 8.1380
" />
<path d="M3.4760 8.1420
L3.4760 8.1400
" />
<path d="M3.4780 8.0440
L3.4760 8.0250
" />
<path d="M3.4780 8.0440
L3.4780 8.1440
" />
<path d="M3.4780 8.0720
L3.6250 8.0720
" />
<path d="M3.4780 8.1440
L3.4760 8.1420
" />
</g>
<g style="fill:#000000; fill-opacity:1.0000; stroke:none;">
<circle cx="3.4780" cy="8.1440" r="0.0100" /> 
</g>
<g style="fill:none; 
stroke:#000000; stroke-width:0.0200; stroke-opacity:1; 
stroke-linecap:round; stroke-linejoin:round;">
<path d="M3.4780 8.1790
L3.4780 8.1440
" />
<path d="M3.4780 8.1790
L3.4800 8.1790
" />
<path d="M3.4800 8.1160
L3.7240 10.0900
" />
<path d="M3.4800 8.1790
L3.4800 8.1160
" />
<path d="M3.4920 7.7350
L3.4740 7.7210
" />
<path d="M3.5080 7.7490
L3.4920 7.7350
" />
<path d="M3.5250 7.7650
L3.5080 7.7490
" />
<path d="M3.5250 8.4790
L3.5250 8.0720
" />
<path d="M3.5350 1.2130
L3.8150 1.2130
" />
<path d="M3.5350 1.3030
L3.5350 1.2130
" />
</g>
<g style="fill:#000000; fill-opacity:1.0000; stroke:none;">
<circle cx="3.5350" cy="1.3030" r="0.0100" /> 
</g>
<g style="fill:none; 
stroke:#000000; stroke-width:0.0200; stroke-opacity:1; 
stroke-linecap:round; stroke-linejoin:round;">
<path d="M3.5350 1.3240
L3.3150 1.3240
" />
<path d="M3.5350 1.5230
L3.5350 1.3030
" />
<path d="M3.5350 1.9230
L3.5350 1.5230
" />
<path d="M3.5350 8.5600
L3.5350 8.0720
" />
<path d="M3.5410 7.7800
L3.5250 7.7650
" />
<path d="M3.5570 7.7980
L3.5410 7.7800
" />
<path d="M3.5710 7.8140
L3.5570 7.7980
" />
<path d="M3.5750 0.7290
L3.7750 0.7290
" />
<path d="M3.5750 1.1620
L3.5750 0.7290
" />
<path d="M3.5750 1.2130
L3.5750 1.1620
" />
<path d="M3.5830 7.8320
L3.5710 7.8140
" />
<path d="M3.5970 7.8520
L3.5830 7.8320
" />
<path d="M3.6090 7.8700
L3.5970 7.8520
" />
<path d="M3.6190 7.8900
L3.6090 7.8700
" />
<path d="M3.6250 8.0720
L3.6250 7.9000
" />
<path d="M3.6290 7.9110
L3.6190 7.8900
" />
<path d="M3.6390 7.9310
L3.6290 7.9110
" />
<path d="M3.6480 7.9530
L3.6390 7.9310
" />
<path d="M3.6560 7.9750
L3.6480 7.9530
" />
<path d="M3.6620 7.9970
L3.6560 7.9750
" />
<path d="M3.6680 8.0190
L3.6620 7.9970
" />
<path d="M3.6720 8.0420
L3.6680 8.0190
" />
<path d="M3.6760 8.0660
L3.6720 8.0420
" />
<path d="M3.7260 10.1110
L3.7240 10.0900
" />
<path d="M3.7260 10.1110
L3.7260 10.1330
" />
<path d="M3.7280 10.1220
L3.9260 10.1220
" />
<path d="M3.7280 10.1330
L3.7260 10.1330
" />
<path d="M3.7280 10.1330
L3.7280 10.1220
" />
<path d="M3.7750 1.1620
L3.7750 0.7290
" />
<path d="M3.7750 1.2130
L3.7750 1.1620
" />
<path d="M3.8150 1.3030
L3.8150 1.2130
" />
</g>
<g style="fill:#000000; fill-opacity:1.0000; stroke:none;">
<circle cx="3.8150" cy="1.3030" r="0.0100" /> 
</g>
<g style="fill:none; 
stroke:#000000; stroke-width:0.0200; stroke-opacity:1; 
stroke-linecap:round; stroke-linejoin:round;">
<path d="M3.8150 1.5230
L3.8150 1.3030
" />
<path d="M3.8150 1.9230
L3.8150 1.5230
" />
<path d="M3.8150 10.1220
L3.8150 9.2180
" />
<path d="M3.8250 9.3000
L3.8250 10.1220
" />
<path d="M3.9260 10.1220
L3.6760 8.0660
" />
<path d="M4.0360 1.2130
L4.3160 1.2130
" />
<path d="M4.0360 1.3030
L4.0360 1.2130
" />
</g>
<g style="fill:#000000; fill-opacity:1.0000; stroke:none;">
<circle cx="4.0360" cy="1.3030" r="0.0100" /> 
</g>
<g style="fill:none; 
stroke:#000000; stroke-width:0.0200; stroke-opacity:1; 
stroke-linecap:round; stroke-linejoin:round;">
<path d="M4.0360 1.3240
L3.8150 1.3240
" />
<path d="M4.0360 1.5230
L4.0360 1.3030
" />
<path d="M4.0360 1.9230
L4.0360 1.5230
" />
<path d="M4.0760 0.7290
L4.2740 0.7290
" />
<path d="M4.0760 1.1620
L4.0760 0.7290
" />
<path d="M4.0760 1.2130
L4.0760 1.1620
" />
<path d="M4.2740 1.1620
L4.2740 0.7290
" />
<path d="M4.2740 1.2130
L4.0760 1.2130
" />
<path d="M4.2740 1.2130
L4.2740 1.1620
" />
<path d="M4.3160 1.3030
L4.3160 1.2130
" />
</g>
<g style="fill:#000000; fill-opacity:1.0000; stroke:none;">
<circle cx="4.3160" cy="1.3030" r="0.0100" /> 
</g>
<g style="fill:none; 
stroke:#000000; stroke-width:0.0200; stroke-opacity:1; 
stroke-linecap:round; stroke-linejoin:round;">
<path d="M4.3160 1.5230
L4.3160 1.3030
" />
<path d="M4.3160 1.9230
L4.3160 1.5230
" />
<path d="M4.5340 1.2130
L4.8160 1.2130
" />
<path d="M4.5340 1.3030
L4.5340 1.2130
" />
</g>
<g style="fill:#000000; fill-opacity:1.0000; stroke:none;">
<circle cx="4.5340" cy="1.3030" r="0.0100" /> 
</g>
<g style="fill:none; 
stroke:#000000; stroke-width:0.0200; stroke-opacity:1; 
stroke-linecap:round; stroke-linejoin:round;">
<path d="M4.5340 1.3240
L4.3160 1.3240
" />
<path d="M4.5340 1.5230
L4.5340 1.3030
" />
<path d="M4.5340 1.9230
L4.5340 1.5230
" />
<path d="M4.5750 0.7290
L4.7760 0.7290
" />
<path d="M4.5750 1.1620
L4.5750 0.7290
" />
<path d="M4.5750 1.2130
L4.5750 1.1620
" />
<path d="M4.7760 1.1620
L4.7760 0.7290
" />
<path d="M4.7760 1.2130
L4.7760 1.1620
" />
<path d="M4.8160 1.3030
L4.8160 1.2130
" />
</g>
<g style="fill:#000000; fill-opacity:1.0000; stroke:none;">
<circle cx="4.8160" cy="1.3030" r="0.0100" /> 
</g>
<g style="fill:none; 
stroke:#000000; stroke-width:0.0200; stroke-opacity:1; 
stroke-linecap:round; stroke-linejoin:round;">
<path d="M4.8160 1.5230
L4.8160 1.3030
" />
<path d="M4.8160 1.9230
L4.8160 1.5230
" />
<path d="M5.0340 1.2130
L5.3160 1.2130
" />
<path d="M5.0340 1.3030
L5.0340 1.2130
" />
</g>
<g style="fill:#000000; fill-opacity:1.0000; stroke:none;">
<circle cx="5.0340" cy="1.3030" r="0.0100" /> 
</g>
<g style="fill:none; 
stroke:#000000; stroke-width:0.0200; stroke-opacity:1; 
stroke-linecap:round; stroke-linejoin:round;">
<path d="M5.0340 1.3240
L4.8160 1.3240
" />
<path d="M5.0340 1.5230
L5.0340 1.3030
" />
<path d="M5.0340 1.9230
L5.0340 1.5230
" />
<path d="M5.0740 0.7290
L5.2750 0.7290
" />
<path d="M5.0740 1.1620
L5.0740 0.7290
" />
<path d="M5.0740 1.2130
L5.0740 1.1620
" />
<path d="M5.2750 1.1620
L5.2750 0.7290
" />
<path d="M5.2750 1.2130
L5.2750 1.1620
" />
<path d="M5.3160 1.3030
L5.3160 1.2130
" />
</g>
<g style="fill:#000000; fill-opacity:1.0000; stroke:none;">
<circle cx="5.3160" cy="1.3030" r="0.0100" /> 
</g>
<g style="fill:none; 
stroke:#000000; stroke-width:0.0200; stroke-opacity:1; 
stroke-linecap:round; stroke-linejoin:round;">
<path d="M5.3160 1.5230
L5.3160 1.3030
" />
<path d="M5.3160 1.9230
L5.3160 1.5230
" />
<path d="M5.5340 1.2130
L5.8140 1.2130
" />
<path d="M5.5340 1.3030
L5.5340 1.2130
" />
</g>
<g style="fill:#000000; fill-opacity:1.0000; stroke:none;">
<circle cx="5.5340" cy="1.3030" r="0.0100" /> 
</g>
<g style="fill:none; 
stroke:#000000; stroke-width:0.0200; stroke-opacity:1; 
stroke-linecap:round; stroke-linejoin:round;">
<path d="M5.5340 1.3240
L5.3160 1.3240
" />
<path d="M5.5340 1.5230
L5.5340 1.3030
" />
<path d="M5.5340 1.9230
L5.5340 1.5230
" />
<path d="M5.5760 0.7290
L5.7740 0.7290
" />
<path d="M5.5760 1.1620
L5.5760 0.7290
" />
<path d="M5.5760 1.2130
L5.5760 1.1620
" />
<path d="M5.7740 1.1620
L5.7740 0.7290
" />
<path d="M5.7740 1.2130
L5.5760 1.2130
" />
<path d="M5.7740 1.2130
L5.7740 1.1620
" />
<path d="M5.8140 1.3030
L5.8140 1.2130
" />
</g>
<g style="fill:#000000; fill-opacity:1.0000; stroke:none;">
<circle cx="5.8140" cy="1.3030" r="0.0100" /> 
</g>
<g style="fill:none; 
stroke:#000000; stroke-width:0.0200; stroke-opacity:1; 
stroke-linecap:round; stroke-linejoin:round;">
<path d="M5.8140 1.5230
L5.8140 1.3030
" />
<path d="M5.8140 1.9230
L5.8140 1.5230
" />
<path d="M5.9240 10.1220
L6.1230 10.1220
" />
<path d="M6.0260 10.1220
L6.0260 9.3000
" />
<path d="M6.0360 1.2130
L6.3140 1.2130
" />
<path d="M6.0360 1.3030
L6.0360 1.2130
" />
</g>
<g style="fill:#000000; fill-opacity:1.0000; stroke:none;">
<circle cx="6.0360" cy="1.3030" r="0.0100" /> 
</g>
<g style="fill:none; 
stroke:#000000; stroke-width:0.0200; stroke-opacity:1; 
stroke-linecap:round; stroke-linejoin:round;">
<path d="M6.0360 1.3240
L5.8140 1.3240
" />
<path d="M6.0360 1.5230
L6.0360 1.3030
" />
<path d="M6.0360 1.9230
L6.0360 1.5230
" />
<path d="M6.0360 10.1220
L6.0360 9.2180
" />
<path d="M6.0740 0.7290
L6.2760 0.7290
" />
<path d="M6.0740 1.1620
L6.0740 0.7290
" />
<path d="M6.0740 1.2130
L6.0740 1.1620
" />
<path d="M6.1230 10.1330
L6.1230 10.1220
" />
<path d="M6.1250 10.1110
L6.1250 10.1330
" />
<path d="M6.1250 10.1330
L6.1230 10.1330
" />
<path d="M6.1270 10.0900
L6.1250 10.1110
" />
<path d="M6.1270 10.0900
L6.3690 8.1160
" />
<path d="M6.1750 8.0660
L5.9240 10.1220
" />
<path d="M6.1790 8.0420
L6.1750 8.0660
" />
<path d="M6.1830 8.0190
L6.1790 8.0420
" />
<path d="M6.1890 7.9970
L6.1830 8.0190
" />
<path d="M6.1950 7.9750
L6.1890 7.9970
" />
<path d="M6.2030 7.9530
L6.1950 7.9750
" />
<path d="M6.2100 7.9310
L6.2030 7.9530
" />
<path d="M6.2200 7.9110
L6.2100 7.9310
" />
<path d="M6.2260 8.0720
L6.2260 7.9000
" />
<path d="M6.2300 7.8900
L6.2200 7.9110
" />
<path d="M6.2420 7.8700
L6.2300 7.8900
" />
<path d="M6.2540 7.8520
L6.2420 7.8700
" />
<path d="M6.2660 7.8320
L6.2540 7.8520
" />
<path d="M6.2760 1.1620
L6.2760 0.7290
" />
<path d="M6.2760 1.2130
L6.2760 1.1620
" />
<path d="M6.2800 7.8140
L6.2660 7.8320
" />
<path d="M6.2940 7.7980
L6.2800 7.8140
" />
<path d="M6.2980 7.7920
L7.0530 7.7920
" />
<path d="M6.3080 7.7800
L6.2940 7.7980
" />
<path d="M6.3140 1.3030
L6.3140 1.2130
" />
</g>
<g style="fill:#000000; fill-opacity:1.0000; stroke:none;">
<circle cx="6.3140" cy="1.3030" r="0.0100" /> 
</g>
<g style="fill:none; 
stroke:#000000; stroke-width:0.0200; stroke-opacity:1; 
stroke-linecap:round; stroke-linejoin:round;">
<path d="M6.3140 1.5230
L6.3140 1.3030
" />
<path d="M6.3140 1.9230
L6.3140 1.5230
" />
<path d="M6.3140 8.5600
L6.3140 8.0720
" />
<path d="M6.3240 7.7650
L6.3080 7.7800
" />
<path d="M6.3240 8.0720
L6.3240 8.4790
" />
<path d="M6.3410 7.7490
L6.3240 7.7650
" />
<path d="M6.3590 7.7350
L6.3410 7.7490
" />
<path d="M6.3690 8.1790
L6.3690 8.1160
" />
<path d="M6.3690 8.1790
L6.3710 8.1790
" />
<path d="M6.3710 8.0720
L6.2260 8.0720
" />
<path d="M6.3710 8.1440
L6.3710 8.0440
" />
<path d="M6.3710 8.1790
L6.3710 8.1440
" />
<path d="M6.3730 8.0250
L6.3730 8.0360
" />
<path d="M6.3730 8.0360
L6.3710 8.0440
" />
<path d="M6.3730 8.1420
L6.3730 8.1440
" />
<path d="M6.3730 8.1440
L6.3710 8.1440
" />
<path d="M6.3750 7.7210
L6.3590 7.7350
" />
<path d="M6.3750 8.0090
L6.3750 8.0170
" />
<path d="M6.3750 8.0170
L6.3730 8.0250
" />
<path d="M6.3750 8.1380
L6.3750 8.1400
" />
<path d="M6.3750 8.1400
L6.3730 8.1420
" />
<path d="M6.3770 7.9930
L6.3770 8.0010
" />
<path d="M6.3770 8.0010
L6.3750 8.0090
" />
<path d="M6.3770 8.1340
L6.3770 8.1360
" />
<path d="M6.3770 8.1360
L6.3750 8.1380
" />
<path d="M6.3790 7.9770
L6.3790 7.9850
" />
<path d="M6.3790 7.9850
L6.3770 7.9930
" />
<path d="M6.3790 8.1320
L6.3770 8.1340
" />
</g>
<g style="fill:#000000; fill-opacity:1.0000; stroke:none;">
<circle cx="6.3790" cy="8.1320" r="0.0100" /> 
</g>
<g style="fill:none; 
stroke:#000000; stroke-width:0.0200; stroke-opacity:1; 
stroke-linecap:round; stroke-linejoin:round;">
<path d="M6.3810 7.9710
L6.3790 7.9770
" />
<path d="M6.3810 8.1300
L6.3790 8.1320
" />
<path d="M6.3830 7.9650
L6.3810 7.9710
" />
<path d="M6.3830 8.1280
L6.3810 8.1300
" />
<path d="M6.3850 7.9530
L6.3850 7.9590
" />
<path d="M6.3850 7.9590
L6.3830 7.9650
" />
<path d="M6.3850 8.1260
L6.3850 8.1280
" />
<path d="M6.3850 8.1280
L6.3830 8.1280
" />
<path d="M6.3870 7.9490
L6.3850 7.9530
" />
<path d="M6.3870 8.1260
L6.3850 8.1260
" />
<path d="M6.3890 7.9430
L6.3870 7.9490
" />
<path d="M6.3890 8.1240
L6.3870 8.1260
" />
<path d="M6.3910 7.9390
L6.3890 7.9430
" />
<path d="M6.3910 8.1240
L6.3890 8.1240
" />
<path d="M6.3930 7.9350
L6.3910 7.9390
" />
<path d="M6.3930 8.1220
L6.3910 8.1240
" />
<path d="M6.3930 8.1220
L6.3930 7.9350
" />
<path d="M6.3930 8.1220
L6.4030 8.1160
" />
<path d="M6.3950 7.7090
L6.3750 7.7210
" />
<path d="M6.4030 7.9270
L6.3930 7.9350
" />
<path d="M6.4030 8.1160
L6.4150 8.1100
" />
<path d="M6.4130 7.6970
L6.3950 7.7090
" />
<path d="M6.4150 7.9210
L6.4030 7.9270
" />
<path d="M6.4150 8.1100
L6.4270 8.1020
" />
<path d="M6.4270 7.9150
L6.4150 7.9210
" />
<path d="M6.4270 8.1020
L6.4410 8.0960
" />
<path d="M6.4330 7.6850
L6.4130 7.6970
" />
<path d="M6.4410 7.9090
L6.4270 7.9150
" />
<path d="M6.4410 8.0960
L6.4550 8.0900
" />
<path d="M6.4530 7.6750
L6.4330 7.6850
" />
<path d="M6.4550 7.9020
L6.4410 7.9090
" />
<path d="M6.4550 8.0900
L6.4700 8.0860
" />
<path d="M6.4700 7.8980
L6.4550 7.9020
" />
<path d="M6.4700 8.0860
L6.4880 8.0800
" />
<path d="M6.4720 7.6650
L6.4530 7.6750
" />
<path d="M6.4880 7.8920
L6.4700 7.8980
" />
<path d="M6.4880 8.0800
L6.5060 8.0760
" />
<path d="M6.4940 7.6570
L6.4720 7.6650
" />
<path d="M6.5060 7.8880
L6.4880 7.8920
" />
<path d="M6.5060 8.0760
L6.5240 8.0720
" />
<path d="M6.5160 7.6480
L6.4940 7.6570
" />
<path d="M6.5240 7.8840
L6.5060 7.8880
" />
<path d="M6.5240 8.0720
L6.5440 8.0680
" />
<path d="M6.5360 1.2130
L6.8140 1.2130
" />
<path d="M6.5360 1.3030
L6.5360 1.2130
" />
</g>
<g style="fill:#000000; fill-opacity:1.0000; stroke:none;">
<circle cx="6.5360" cy="1.3030" r="0.0100" /> 
</g>
<g style="fill:none; 
stroke:#000000; stroke-width:0.0200; stroke-opacity:1; 
stroke-linecap:round; stroke-linejoin:round;">
<path d="M6.5360 1.3240
L6.3140 1.3240
" />
<path d="M6.5360 1.5230
L6.5360 1.3030
" />
<path d="M6.5360 1.9230
L6.5360 1.5230
" />
<path d="M6.5360 7.6420
L6.5160 7.6480
" />
<path d="M6.5440 7.8800
L6.5240 7.8840
" />
<path d="M6.5440 8.0680
L6.5640 8.0660
" />
<path d="M6.5600 7.6360
L6.5360 7.6420
" />
<path d="M6.5640 7.8780
L6.5440 7.8800
" />
<path d="M6.5640 8.0660
L6.5860 8.0640
" />
<path d="M6.5740 0.7290
L6.7760 0.7290
" />
<path d="M6.5740 1.1620
L6.5740 0.7290
" />
<path d="M6.5740 1.2130
L6.5740 1.1620
" />
<path d="M6.5820 7.6320
L6.5600 7.6360
" />
<path d="M6.5860 7.8760
L6.5640 7.8780
" />
<path d="M6.5860 8.0640
L6.6070 8.0620
" />
<path d="M6.6050 7.6280
L6.5820 7.6320
" />
<path d="M6.6070 7.8740
L6.5860 7.8760
" />
<path d="M6.6070 8.0620
L6.6290 8.0600
" />
<path d="M6.6250 7.7920
L6.6250 7.8720
" />
<path d="M6.6270 7.6250
L6.6050 7.6280
" />
<path d="M6.6290 7.8720
L6.6070 7.8740
" />
<path d="M6.6290 8.0600
L6.6530 8.0600
" />
<path d="M6.6510 7.6230
L6.6270 7.6250
" />
<path d="M6.6530 7.8720
L6.6290 7.8720
" />
<path d="M6.6530 8.0600
L6.6750 8.0580
" />
<path d="M6.6750 7.6220
L6.6510 7.6230
" />
</g>
<g style="fill:#000000; fill-opacity:1.0000; stroke:none;">
<circle cx="6.6750" cy="7.6220" r="0.0100" /> 
</g>
<g style="fill:none; 
stroke:#000000; stroke-width:0.0200; stroke-opacity:1; 
stroke-linecap:round; stroke-linejoin:round;">
<path d="M6.6750 7.8700
L6.6530 7.8720
" />
</g>
<g style="fill:#000000; fill-opacity:1.0000; stroke:none;">
<circle cx="6.6750" cy="7.8700" r="0.0100" /> 
<circle cx="6.6750" cy="8.0580" r="0.0100" /> 
</g>
<g style="fill:none; 
stroke:#000000; stroke-width:0.0200; stroke-opacity:1; 
stroke-linecap:round; stroke-linejoin:round;">
<path d="M6.6750 8.0580
L6.6970 8.0600
" />
<path d="M6.6970 7.8720
L6.6750 7.8700
" />
<path d="M6.6970 8.0600
L6.7200 8.0600
" />
<path d="M6.6990 7.6230
L6.6750 7.6220
" />
<path d="M6.7200 7.8720
L6.6970 7.8720
" />
<path d="M6.7200 8.0600
L6.7420 8.0620
" />
<path d="M6.7220 7.6250
L6.6990 7.6230
" />
<path d="M6.7260 7.8720
L6.7260 7.7920
" />
<path d="M6.7420 7.8740
L6.7200 7.8720
" />
<path d="M6.7420 8.0620
L6.7640 8.0640
" />
<path d="M6.7460 7.6280
L6.7220 7.6250
" />
<path d="M6.7640 7.8760
L6.7420 7.8740
" />
<path d="M6.7640 8.0640
L6.7860 8.0660
" />
<path d="M6.7680 7.6320
L6.7460 7.6280
" />
<path d="M6.7760 1.1620
L6.7760 0.7290
" />
<path d="M6.7760 1.2130
L6.7760 1.1620
" />
<path d="M6.7860 7.8780
L6.7640 7.8760
" />
<path d="M6.7860 8.0660
L6.8060 8.0680
" />
<path d="M6.7900 7.6360
L6.7680 7.6320
" />
<path d="M6.8060 7.8800
L6.7860 7.8780
" />
<path d="M6.8060 8.0680
L6.8260 8.0720
" />
<path d="M6.8140 1.3030
L6.8140 1.2130
" />
</g>
<g style="fill:#000000; fill-opacity:1.0000; stroke:none;">
<circle cx="6.8140" cy="1.3030" r="0.0100" /> 
</g>
<g style="fill:none; 
stroke:#000000; stroke-width:0.0200; stroke-opacity:1; 
stroke-linecap:round; stroke-linejoin:round;">
<path d="M6.8140 1.5230
L6.8140 1.3030
" />
<path d="M6.8140 1.9230
L6.8140 1.5230
" />
<path d="M6.8140 7.6420
L6.7900 7.6360
" />
<path d="M6.8260 7.8840
L6.8060 7.8800
" />
<path d="M6.8260 8.0720
L6.8440 8.0760
" />
<path d="M6.8340 7.6480
L6.8140 7.6420
" />
<path d="M6.8440 7.8880
L6.8260 7.8840
" />
<path d="M6.8440 8.0760
L6.8630 8.0800
" />
<path d="M6.8570 7.6570
L6.8340 7.6480
" />
<path d="M6.8630 7.8920
L6.8440 7.8880
" />
<path d="M6.8630 8.0800
L6.8790 8.0860
" />
<path d="M6.8770 7.6650
L6.8570 7.6570
" />
<path d="M6.8790 7.8980
L6.8630 7.8920
" />
<path d="M6.8790 8.0860
L6.8950 8.0900
" />
<path d="M6.8950 7.9020
L6.8790 7.8980
" />
<path d="M6.8950 8.0900
L6.9090 8.0960
" />
<path d="M6.8970 7.6750
L6.8770 7.6650
" />
<path d="M6.9090 7.9090
L6.8950 7.9020
" />
<path d="M6.9090 8.0960
L6.9230 8.1020
" />
<path d="M6.9170 7.6850
L6.8970 7.6750
" />
<path d="M6.9230 7.9150
L6.9090 7.9090
" />
<path d="M6.9230 8.1020
L6.9360 8.1100
" />
<path d="M6.9360 7.9210
L6.9230 7.9150
" />
<path d="M6.9360 8.1100
L6.9480 8.1160
" />
<path d="M6.9370 7.6970
L6.9170 7.6850
" />
<path d="M6.9480 7.9270
L6.9360 7.9210
" />
<path d="M6.9480 8.1160
L6.9570 8.1220
" />
<path d="M6.9560 7.7090
L6.9370 7.6970
" />
<path d="M6.9570 7.9350
L6.9480 7.9270
" />
<path d="M6.9570 8.1220
L6.9570 7.9350
" />
<path d="M6.9580 7.9390
L6.9570 7.9350
" />
<path d="M6.9580 8.1240
L6.9570 8.1220
" />
<path d="M6.9610 7.9430
L6.9580 7.9390
" />
<path d="M6.9610 8.1240
L6.9580 8.1240
" />
<path d="M6.9620 7.9490
L6.9610 7.9430
" />
<path d="M6.9620 8.1260
L6.9610 8.1240
" />
<path d="M6.9650 7.9530
L6.9620 7.9490
" />
<path d="M6.9650 7.9590
L6.9650 7.9530
" />
<path d="M6.9650 8.1260
L6.9620 8.1260
" />
<path d="M6.9650 8.1280
L6.9650 8.1260
" />
<path d="M6.9680 7.9650
L6.9650 7.9590
" />
<path d="M6.9680 8.1280
L6.9650 8.1280
" />
<path d="M6.9690 8.1300
L6.9680 8.1280
" />
<path d="M6.9700 7.9770
L6.9680 7.9650
" />
<path d="M6.9700 8.1320
L6.9690 8.1300
" />
<path d="M6.9720 8.1320
L6.9700 8.1320
" />
<path d="M6.9730 7.9930
L6.9700 7.9770
" />
<path d="M6.9730 8.1340
L6.9720 8.1320
" />
<path d="M6.9740 7.7210
L6.9560 7.7090
" />
<path d="M6.9740 8.0090
L6.9730 7.9930
" />
<path d="M6.9740 8.1360
L6.9730 8.1340
" />
<path d="M6.9740 8.1380
L6.9740 8.1360
" />
<path d="M6.9750 8.1400
L6.9740 8.1380
" />
<path d="M6.9770 8.0250
L6.9740 8.0090
" />
<path d="M6.9770 8.1420
L6.9750 8.1400
" />
<path d="M6.9780 8.0440
L6.9770 8.0250
" />
<path d="M6.9780 8.0440
L6.9780 8.1440
" />
<path d="M6.9780 8.1440
L6.9770 8.1420
" />
</g>
<g style="fill:#000000; fill-opacity:1.0000; stroke:none;">
<circle cx="6.9780" cy="8.1440" r="0.0100" /> 
</g>
<g style="fill:none; 
stroke:#000000; stroke-width:0.0200; stroke-opacity:1; 
stroke-linecap:round; stroke-linejoin:round;">
<path d="M6.9780 8.1790
L6.9780 8.1440
" />
<path d="M6.9780 8.1790
L6.9810 8.1790
" />
<path d="M6.9810 8.1160
L7.2230 10.0900
" />
<path d="M6.9810 8.1790
L6.9810 8.1160
" />
<path d="M6.9910 7.7350
L6.9740 7.7210
" />
<path d="M7.0090 7.7490
L6.9910 7.7350
" />
<path d="M7.0260 7.7650
L7.0090 7.7490
" />
<path d="M7.0260 8.4790
L7.0260 8.0720
" />
<path d="M7.0340 1.2130
L7.3160 1.2130
" />
<path d="M7.0340 1.3030
L7.0340 1.2130
" />
</g>
<g style="fill:#000000; fill-opacity:1.0000; stroke:none;">
<circle cx="7.0340" cy="1.3030" r="0.0100" /> 
</g>
<g style="fill:none; 
stroke:#000000; stroke-width:0.0200; stroke-opacity:1; 
stroke-linecap:round; stroke-linejoin:round;">
<path d="M7.0340 1.3240
L6.8140 1.3240
" />
<path d="M7.0340 1.5230
L7.0340 1.3030
" />
<path d="M7.0340 1.9230
L7.0340 1.5230
" />
<path d="M7.0340 8.5600
L7.0340 8.0720
" />
<path d="M7.0420 7.7800
L7.0260 7.7650
" />
<path d="M7.0570 7.7980
L7.0420 7.7800
" />
<path d="M7.0700 7.8140
L7.0570 7.7980
" />
<path d="M7.0740 0.7290
L7.2760 0.7290
" />
<path d="M7.0740 1.1620
L7.0740 0.7290
" />
<path d="M7.0740 1.2130
L7.0740 1.1620
" />
<path d="M7.0830 7.8320
L7.0700 7.8140
" />
<path d="M7.0970 7.8520
L7.0830 7.8320
" />
<path d="M7.1080 7.8700
L7.0970 7.8520
" />
<path d="M7.1190 7.8900
L7.1080 7.8700
" />
<path d="M7.1260 7.9000
L7.1260 8.0720
" />
<path d="M7.1260 8.0720
L6.9780 8.0720
" />
<path d="M7.1300 7.9110
L7.1190 7.8900
" />
<path d="M7.1390 7.9310
L7.1300 7.9110
" />
<path d="M7.1470 7.9530
L7.1390 7.9310
" />
<path d="M7.1550 7.9750
L7.1470 7.9530
" />
<path d="M7.1620 7.9970
L7.1550 7.9750
" />
<path d="M7.1670 8.0190
L7.1620 7.9970
" />
<path d="M7.1710 8.0420
L7.1670 8.0190
" />
<path d="M7.1750 8.0660
L7.1710 8.0420
" />
<path d="M7.1800 9.7360
L7.3160 9.7360
" />
<path d="M7.2240 10.1110
L7.2230 10.0900
" />
<path d="M7.2240 10.1110
L7.2240 10.1330
" />
<path d="M7.2270 10.1220
L7.4250 10.1220
" />
<path d="M7.2270 10.1330
L7.2240 10.1330
" />
<path d="M7.2270 10.1330
L7.2270 10.1220
" />
<path d="M7.2640 9.8230
L7.1910 9.8230
" />
<path d="M7.2760 1.1620
L7.2760 0.7290
" />
<path d="M7.2760 1.2130
L7.2760 1.1620
" />
<path d="M7.3160 1.3030
L7.3160 1.2130
" />
</g>
<g style="fill:#000000; fill-opacity:1.0000; stroke:none;">
<circle cx="7.3160" cy="1.3030" r="0.0100" /> 
</g>
<g style="fill:none; 
stroke:#000000; stroke-width:0.0200; stroke-opacity:1; 
stroke-linecap:round; stroke-linejoin:round;">
<path d="M7.3160 1.5230
L7.3160 1.3030
" />
<path d="M7.3160 1.9230
L7.3160 1.5230
" />
<path d="M7.3160 9.7360
L7.2640 9.8230
" />
<path d="M7.3160 9.7360
L7.3160 9.2180
" />
<path d="M7.3240 9.3000
L7.3240 9.8230
" />
<path d="M7.3240 9.8230
L7.1910 9.8230
" />
<path d="M7.4250 10.1220
L7.1750 8.0660
" />
<path d="M7.5340 1.2130
L7.8160 1.2130
" />
<path d="M7.5340 1.3030
L7.5340 1.2130
" />
</g>
<g style="fill:#000000; fill-opacity:1.0000; stroke:none;">
<circle cx="7.5340" cy="1.3030" r="0.0100" /> 
</g>
<g style="fill:none; 
stroke:#000000; stroke-width:0.0200; stroke-opacity:1; 
stroke-linecap:round; stroke-linejoin:round;">
<path d="M7.5340 1.3240
L7.3160 1.3240
" />
<path d="M7.5340 1.5230
L7.5340 1.3030
" />
<path d="M7.5340 1.9230
L7.5340 1.5230
" />
<path d="M7.5740 0.7290
L7.7760 0.7290
" />
<path d="M7.5740 1.1620
L7.5740 0.7290
" />
<path d="M7.5740 1.2130
L7.5740 1.1620
" />
<path d="M7.7760 1.1620
L7.7760 0.7290
" />
<path d="M7.7760 1.2130
L7.5740 1.2130
" />
<path d="M7.7760 1.2130
L7.7760 1.1620
" />
<path d="M7.8160 1.3030
L7.8160 1.2130
" />
</g>
<g style="fill:#000000; fill-opacity:1.0000; stroke:none;">
<circle cx="7.8160" cy="1.3030" r="0.0100" /> 
</g>
<g style="fill:none; 
stroke:#000000; stroke-width:0.0200; stroke-opacity:1; 
stroke-linecap:round; stroke-linejoin:round;">
<path d="M7.8160 1.5230
L7.8160 1.3030
" />
<path d="M7.8160 1.9230
L7.8160 1.5230
" />
<path d="M8.0050 1.3240
L7.8160 1.3240
" />
<path d="M8.0050 1.3240
L8.0050 1.9230
" />
<path d="M8.2960 1.9230
L1.5550 1.9230
" />
<path d="M8.2960 12.5220
L1.5550 12.5220
" />
<path d="M8.7280 1.9230
L8.2960 1.9230
" />
</g>
<g style="fill:#000000; fill-opacity:1.0000; stroke:none;">
<circle cx="8.7280" cy="1.9230" r="0.0100" /> 
</g>
<g style="fill:none; 
stroke:#000000; stroke-width:0.0200; stroke-opacity:1; 
stroke-linecap:round; stroke-linejoin:round;">
<path d="M8.7280 12.5220
L8.2960 12.5220
" />
</g>
<g style="fill:#000000; fill-opacity:1.0000; stroke:none;">
<circle cx="8.7280" cy="12.5220" r="0.0100" /> 
</g>
<g style="fill:none; 
stroke:#000000; stroke-width:0.0200; stroke-opacity:1; 
stroke-linecap:round; stroke-linejoin:round;">
<path d="M8.9180 1.9230
L8.7280 1.9230
" />
</g>
<g style="fill:#000000; fill-opacity:1.0000; stroke:none;">
<circle cx="8.9180" cy="1.9230" r="0.0100" /> 
</g>
<g style="fill:none; 
stroke:#000000; stroke-width:0.0200; stroke-opacity:1; 
stroke-linecap:round; stroke-linejoin:round;">
<path d="M8.9180 12.5220
L8.7280 12.5220
" />
</g>
<g style="fill:#000000; fill-opacity:1.0000; stroke:none;">
<circle cx="8.9180" cy="12.5220" r="0.0100" /> 
</g>
<g style="fill:none; 
stroke:#000000; stroke-width:0.0200; stroke-opacity:1; 
stroke-linecap:round; stroke-linejoin:round;">
<path d="M9.0020 1.9230
L8.9180 1.9230
" />
</g>
<g style="fill:#000000; fill-opacity:1.0000; stroke:none;">
<circle cx="9.0020" cy="1.9230" r="0.0100" /> 
</g>
<g style="fill:none; 
stroke:#000000; stroke-width:0.0200; stroke-opacity:1; 
stroke-linecap:round; stroke-linejoin:round;">
<path d="M9.0020 12.5220
L8.9180 12.5220
" />
</g>
<g style="fill:#000000; fill-opacity:1.0000; stroke:none;">
<circle cx="9.0020" cy="12.5220" r="0.0100" /> 
</g>
<g style="fill:none; 
stroke:#000000; stroke-width:0.0200; stroke-opacity:1; 
stroke-linecap:round; stroke-linejoin:round;">
<path d="M9.0760 1.9230
L9.0020 1.9230
" />
</g>
<g style="fill:#000000; fill-opacity:1.0000; stroke:none;">
<circle cx="9.0760" cy="1.9230" r="0.0100" /> 
</g>
<g style="fill:none; 
stroke:#000000; stroke-width:0.0200; stroke-opacity:1; 
stroke-linecap:round; stroke-linejoin:round;">
<path d="M9.0760 12.5220
L9.0020 12.5220
" />
</g>
<g style="fill:#000000; fill-opacity:1.0000; stroke:none;">
<circle cx="9.0760" cy="12.5220" r="0.0100" /> 
</g>
<g style="fill:none; 
stroke:#000000; stroke-width:0.0200; stroke-opacity:1; 
stroke-linecap:round; stroke-linejoin:round;">
<path d="M9.1420 1.9230
L9.0760 1.9230
" />
</g>
<g style="fill:#000000; fill-opacity:1.0000; stroke:none;">
<circle cx="9.1420" cy="1.9230" r="0.0100" /> 
</g>
<g style="fill:none; 
stroke:#000000; stroke-width:0.0200; stroke-opacity:1; 
stroke-linecap:round; stroke-linejoin:round;">
<path d="M9.1420 12.5220
L9.0760 12.5220
" />
</g>
<g style="fill:#000000; fill-opacity:1.0000; stroke:none;">
<circle cx="9.1420" cy="12.5220" r="0.0100" /> 
</g>
<g style="fill:none; 
stroke:#000000; stroke-width:0.0200; stroke-opacity:1; 
stroke-linecap:round; stroke-linejoin:round;">
<path d="M9.1960 1.9230
L9.1420 1.9230
" />
</g>
<g style="fill:#000000; fill-opacity:1.0000; stroke:none;">
<circle cx="9.1960" cy="1.9230" r="0.0100" /> 
</g>
<g style="fill:none; 
stroke:#000000; stroke-width:0.0200; stroke-opacity:1; 
stroke-linecap:round; stroke-linejoin:round;">
<path d="M9.1960 12.5220
L9.1420 12.5220
" />
</g>
<g style="fill:#000000; fill-opacity:1.0000; stroke:none;">
<circle cx="9.1960" cy="12.5220" r="0.0100" /> 
</g>
<g style="fill:none; 
stroke:#000000; stroke-width:0.0200; stroke-opacity:1; 
stroke-linecap:round; stroke-linejoin:round;">
<path d="M9.2380 1.9230
L9.1960 1.9230
" />
</g>
<g style="fill:#000000; fill-opacity:1.0000; stroke:none;">
<circle cx="9.2380" cy="1.9230" r="0.0100" /> 
</g>
<g style="fill:none; 
stroke:#000000; stroke-width:0.0200; stroke-opacity:1; 
stroke-linecap:round; stroke-linejoin:round;">
<path d="M9.2380 12.5220
L9.1960 12.5220
" />
</g>
<g style="fill:#000000; fill-opacity:1.0000; stroke:none;">
<circle cx="9.2380" cy="12.5220" r="0.0100" /> 
</g>
<g style="fill:none; 
stroke:#000000; stroke-width:0.0200; stroke-opacity:1; 
stroke-linecap:round; stroke-linejoin:round;">
<path d="M9.2700 1.9230
L9.2380 1.9230
" />
</g>
<g style="fill:#000000; fill-opacity:1.0000; stroke:none;">
<circle cx="9.2700" cy="1.9230" r="0.0100" /> 
</g>
<g style="fill:none; 
stroke:#000000; stroke-width:0.0200; stroke-opacity:1; 
stroke-linecap:round; stroke-linejoin:round;">
<path d="M9.2700 12.5220
L9.2380 12.5220
" />
</g>
<g style="fill:#000000; fill-opacity:1.0000; stroke:none;">
<circle cx="9.2700" cy="12.5220" r="0.0100" /> 
</g>
<g style="fill:none; 
stroke:#000000; stroke-width:0.0200; stroke-opacity:1; 
stroke-linecap:round; stroke-linejoin:round;">
<path d="M9.2810 10.0340
L9.2830 10.0170
" />
<path d="M9.2810 10.0530
L9.2810 10.0340
" />
<path d="M9.2810 10.0730
L9.2810 10.0530
" />
<path d="M9.2810 10.0730
L9.2810 11.5220
" />
<path d="M9.2810 11.5320
L9.2810 11.5220
" />
<path d="M9.2810 11.5430
L9.2810 11.5320
" />
<path d="M9.2810 11.5510
L9.2810 11.5430
" />
<path d="M9.2810 11.5610
L9.2810 11.5510
" />
<path d="M9.2830 10.0170
L9.2860 10.0020
" />
<path d="M9.2830 11.5640
L9.2910 11.5990
" />
<path d="M9.2830 11.5700
L9.2810 11.5610
" />
<path d="M9.2830 11.5780
L9.2830 11.5700
" />
<path d="M9.2840 11.5860
L9.2830 11.5780
" />
<path d="M9.2860 10.0020
L9.2880 9.9900
" />
<path d="M9.2860 11.5930
L9.2840 11.5860
" />
<path d="M9.2860 11.5990
L9.2860 11.5930
" />
<path d="M9.2880 9.9900
L9.2890 9.9810
" />
<path d="M9.2880 11.6050
L9.2860 11.5990
" />
<path d="M9.2890 1.9230
L9.2700 1.9230
" />
</g>
<g style="fill:#000000; fill-opacity:1.0000; stroke:none;">
<circle cx="9.2890" cy="1.9230" r="0.0100" /> 
</g>
<g style="fill:none; 
stroke:#000000; stroke-width:0.0200; stroke-opacity:1; 
stroke-linecap:round; stroke-linejoin:round;">
<path d="M9.2890 9.9810
L9.2910 9.9770
" />
<path d="M9.2890 11.6100
L9.2880 11.6050
" />
<path d="M9.2890 11.6150
L9.2890 11.6100
" />
<path d="M9.2890 12.5220
L9.2700 12.5220
" />
</g>
<g style="fill:#000000; fill-opacity:1.0000; stroke:none;">
<circle cx="9.2890" cy="12.5220" r="0.0100" /> 
</g>
<g style="fill:none; 
stroke:#000000; stroke-width:0.0200; stroke-opacity:1; 
stroke-linecap:round; stroke-linejoin:round;">
<path d="M9.2910 9.9730
L9.2920 9.9730
" />
<path d="M9.2910 9.9740
L9.2910 9.9730
" />
<path d="M9.2910 9.9770
L9.2910 9.9740
" />
<path d="M9.2910 11.5990
L9.2860 11.6010
" />
<path d="M9.2910 11.5990
L9.2910 11.6050
" />
<path d="M9.2910 11.6050
L9.2920 11.6120
" />
<path d="M9.2910 11.6180
L9.2890 11.6150
" />
<path d="M9.2910 11.6200
L9.2910 11.6180
" />
<path d="M9.2910 11.6220
L9.2910 11.6200
" />
<path d="M9.2910 11.6230
L9.2910 11.6220
" />
</g>
<g style="fill:#000000; fill-opacity:1.0000; stroke:none;">
<circle cx="9.2920" cy="9.9730" r="0.0100" /> 
</g>
<g style="fill:none; 
stroke:#000000; stroke-width:0.0200; stroke-opacity:1; 
stroke-linecap:round; stroke-linejoin:round;">
<path d="M9.2920 9.9730
L9.2960 9.9730
" />
<path d="M9.2920 11.6120
L9.2920 11.6180
" />
<path d="M9.2920 11.6180
L9.2940 11.6230
" />
<path d="M9.2920 11.6230
L9.2910 11.6230
" />
</g>
<g style="fill:#000000; fill-opacity:1.0000; stroke:none;">
<circle cx="9.2920" cy="11.6230" r="0.0100" /> 
</g>
<g style="fill:none; 
stroke:#000000; stroke-width:0.0200; stroke-opacity:1; 
stroke-linecap:round; stroke-linejoin:round;">
<path d="M9.2960 1.9230
L9.2890 1.9230
" />
<path d="M9.2960 1.9230
L9.2960 9.9730
" />
<path d="M9.2960 8.7870
L9.2960 8.6870
" />
<path d="M9.2960 8.9730
L9.2960 9.0730
" />
<path d="M9.2960 11.6230
L9.2920 11.6230
" />
<path d="M9.2960 11.6230
L9.2960 12.5220
" />
<path d="M9.2960 11.6520
L9.2960 11.6230
" />
<path d="M9.2960 12.5220
L9.2890 12.5220
" />
</g> 
</svg>
