<?xml version="1.0" standalone="no"?>
 <!DOCTYPE svg PUBLIC "-//W3C//DTD SVG 1.1//EN" 
 "http://www.w3.org/Graphics/SVG/1.1/DTD/svg11.dtd"> 
<svg
  xmlns:svg="http://www.w3.org/2000/svg"
  xmlns="http://www.w3.org/2000/svg"
  xmlns:xlink="http://www.w3.org/1999/xlink"
  version="1.1"
  width="16.7386mm" height="28.5242mm" viewBox="0.0000 0.0000 16.7386 28.5242">
<title>SVG Image created as outline.svg date 2025/06/16 09:17:49 </title>
  <desc>Image generated by PCBNEW </desc>
<g style="fill:#000000; fill-opacity:1.0000;stroke:#000000; stroke-opacity:1.0000;
stroke-linecap:round; stroke-linejoin:round;"
 transform="translate(0 0) scale(1 1)">
</g>
<g style="fill:none; 
stroke:#000000; stroke-width:0.0200; stroke-opacity:1; 
stroke-linecap:round; stroke-linejoin:round;">
<path d="M0.4250 13.7710
L0.4250 14.2710
" />
<path d="M0.4250 13.7710
L0.4750 13.7710
" />
<path d="M0.4250 14.2710
L0.4750 14.2710
" />
<path d="M0.4750 13.7710
L0.6240 13.7710
" />
<path d="M0.4750 14.2710
L0.6240 14.2710
" />
<path d="M0.6240 13.7710
L0.8710 13.7710
" />
<path d="M0.6240 14.2710
L0.8710 14.2710
" />
<path d="M0.8710 13.7710
L1.2120 13.7710
" />
<path d="M0.8710 14.2710
L1.2120 14.2710
" />
<path d="M1.2120 13.7710
L1.6440 13.7710
" />
<path d="M1.2120 14.2710
L1.6440 14.2710
" />
</g>
<g style="fill:#000000; fill-opacity:1.0000; stroke:none;">
<circle cx="1.2630" cy="12.2870" r="0.0100" /> 
</g>
<g style="fill:none; 
stroke:#000000; stroke-width:0.0200; stroke-opacity:1; 
stroke-linecap:round; stroke-linejoin:round;">
<path d="M1.2630 12.2870
L1.2630 13.7710
" />
<path d="M1.2630 12.2870
L1.2640 12.2870
" />
<path d="M1.2640 12.2870
L1.2650 12.2870
" />
<path d="M1.2650 12.2870
L1.2670 12.2870
" />
<path d="M1.2670 12.2870
L1.2690 12.2870
" />
<path d="M1.2690 12.2870
L1.2720 12.2870
" />
<path d="M1.2720 12.2870
L1.2750 12.2870
" />
<path d="M1.2750 12.2870
L1.2780 12.2870
" />
<path d="M1.2780 12.2870
L1.2820 12.2870
" />
<path d="M1.2820 12.2870
L1.2870 12.2870
" />
<path d="M1.2870 12.2870
L1.2920 12.2870
" />
<path d="M1.2920 12.2870
L1.2970 12.2870
" />
<path d="M1.2970 12.2870
L1.3030 12.2870
" />
<path d="M1.3030 12.2870
L1.3100 12.2870
" />
<path d="M1.3100 11.2710
L1.3100 12.2870
" />
<path d="M1.3100 11.2710
L1.4320 11.2710
" />
<path d="M1.3900 15.7950
L1.4050 15.7950
" />
<path d="M1.3900 16.6850
L1.3900 15.7950
" />
<path d="M1.3900 16.6850
L1.4050 16.6850
" />
<path d="M1.4050 15.7950
L1.4490 15.7950
" />
<path d="M1.4050 16.6850
L1.4490 16.6850
" />
<path d="M1.4080 14.2710
L1.8880 14.5570
" />
<path d="M1.4320 11.2710
L1.6300 11.2710
" />
<path d="M1.4490 15.7950
L1.5220 15.7950
" />
<path d="M1.4490 16.6850
L1.5220 16.6850
" />
<path d="M1.5220 15.7950
L1.6240 15.7950
" />
<path d="M1.5220 16.6850
L1.6240 16.6850
" />
<path d="M1.6240 15.7950
L1.7550 15.7950
" />
<path d="M1.6240 16.6850
L1.7550 16.6850
" />
<path d="M1.6300 11.2710
L1.9000 11.2710
" />
<path d="M1.6440 13.7710
L2.1590 13.7710
" />
<path d="M1.6440 14.2710
L2.1590 14.2710
" />
<path d="M1.7550 15.7950
L1.9130 15.7950
" />
<path d="M1.7550 16.6850
L1.9130 16.6850
" />
<path d="M1.9000 11.2710
L2.2410 11.2710
" />
<path d="M1.9130 15.7950
L2.0990 15.7950
" />
<path d="M1.9130 16.6850
L2.0990 16.6850
" />
<path d="M1.9520 14.5920
L1.8880 14.5570
" />
<path d="M1.9810 14.6040
L1.9520 14.5920
" />
<path d="M2.0080 14.6120
L1.9810 14.6040
" />
<path d="M2.0250 14.6160
L2.0250 15.7950
" />
<path d="M2.0330 14.6170
L2.0080 14.6120
" />
<path d="M2.0540 14.6150
L2.0330 14.6170
" />
<path d="M2.0620 14.6120
L2.0540 14.6150
" />
<path d="M2.0690 14.6070
L2.0620 14.6120
" />
<path d="M2.0740 14.6020
L2.0690 14.6070
" />
<path d="M2.0770 14.5940
L2.0740 14.6020
" />
<path d="M2.0770 14.5940
L2.1010 14.5140
" />
<path d="M2.0990 15.7950
L2.3110 15.7950
" />
<path d="M2.0990 16.6850
L2.3110 16.6850
" />
<path d="M2.1010 14.5140
L2.1300 14.4330
" />
<path d="M2.1300 14.4330
L2.1660 14.3520
" />
<path d="M2.1550 14.3750
L2.1860 14.3750
" />
<path d="M2.1590 13.7710
L2.7540 13.7710
" />
<path d="M2.1590 14.2710
L2.7540 14.2710
" />
<path d="M2.1660 14.3520
L2.2070 14.2710
" />
<path d="M2.1860 14.3750
L2.2190 14.3750
" />
<path d="M2.2190 14.3750
L2.2560 14.3750
" />
<path d="M2.2410 11.2710
L2.6480 11.2710
" />
<path d="M2.2560 14.3750
L2.2950 14.3750
" />
<path d="M2.2950 14.3750
L2.3380 14.3750
" />
<path d="M2.3110 15.7950
L2.5490 15.7950
" />
<path d="M2.3110 16.6850
L2.5490 16.6850
" />
<path d="M2.3380 14.3750
L2.3840 14.3750
" />
<path d="M2.3840 14.3750
L2.4330 14.3750
" />
<path d="M2.4330 14.3750
L2.4840 14.3750
" />
<path d="M2.4840 14.3750
L2.5390 14.3750
" />
<path d="M2.5170 14.2710
L2.6980 14.2810
" />
<path d="M2.5390 14.3750
L2.5970 14.3750
" />
<path d="M2.5490 15.7950
L2.8110 15.7950
" />
<path d="M2.5490 16.6850
L2.8110 16.6850
" />
<path d="M2.5800 11.1450
L2.4540 11.2710
" />
<path d="M2.5970 14.3750
L2.6570 14.3750
" />
<path d="M2.6030 11.1450
L2.5800 11.1450
" />
<path d="M2.6480 11.2710
L3.1170 11.2710
" />
<path d="M2.6570 14.3750
L2.7210 14.3750
" />
<path d="M2.6730 11.1450
L2.6030 11.1450
" />
<path d="M2.6800 14.2710
L3.1650 14.5570
" />
<path d="M2.7210 14.3750
L2.7870 14.3750
" />
<path d="M2.7540 13.7710
L3.4180 13.7710
" />
<path d="M2.7540 14.2710
L3.4180 14.2710
" />
<path d="M2.7870 14.3750
L2.8560 14.3750
" />
<path d="M2.7890 11.1450
L2.6730 11.1450
" />
<path d="M2.8110 15.7950
L3.0970 15.7950
" />
<path d="M2.8110 16.6850
L3.0970 16.6850
" />
<path d="M2.9490 11.1450
L2.7890 11.1450
" />
<path d="M3.0970 15.7950
L3.4050 15.7950
" />
<path d="M3.0970 16.6850
L3.4050 16.6850
" />
<path d="M3.1170 11.2710
L3.6420 11.2710
" />
<path d="M3.1530 11.1450
L2.9490 11.1450
" />
<path d="M3.2000 14.5760
L3.1650 14.5570
" />
<path d="M3.2340 14.5920
L3.2000 14.5760
" />
<path d="M3.2690 14.6040
L3.2340 14.5920
" />
<path d="M3.3030 14.6120
L3.2690 14.6040
" />
<path d="M3.3400 14.6170
L3.3030 14.6120
" />
<path d="M3.3730 14.6150
L3.3400 14.6170
" />
<path d="M3.3750 18.1190
L8.3750 18.1190
" />
<path d="M3.3750 28.1150
L3.3750 18.1190
" />
<path d="M3.3990 11.1450
L3.1530 11.1450
" />
<path d="M3.4020 14.6070
L3.3730 14.6150
" />
<path d="M3.4050 15.7950
L3.7340 15.7950
" />
<path d="M3.4050 16.6850
L3.7340 16.6850
" />
<path d="M3.4180 13.7710
L4.1450 13.7710
" />
<path d="M3.4180 14.2710
L4.1450 14.2710
" />
<path d="M3.4260 14.5940
L3.4020 14.6070
" />
<path d="M3.4260 14.5940
L3.5350 14.5140
" />
<path d="M3.5350 14.5140
L3.6480 14.4330
" />
<path d="M3.5490 3.5150
L3.5490 0.4250
" />
<path d="M3.5490 5.8150
L3.5680 5.8150
" />
<path d="M3.5490 5.8150
L3.5700 5.6720
" />
<path d="M3.5490 11.1450
L3.5490 5.8150
" />
<path d="M3.5490 16.6850
L3.5490 18.1190
" />
<path d="M3.5680 3.5150
L3.5490 3.5150
" />
<path d="M3.5680 5.8150
L3.6230 5.8150
" />
<path d="M3.5700 3.6580
L3.5490 3.5150
" />
<path d="M3.5700 5.6720
L3.5880 5.5290
" />
<path d="M3.5880 3.8010
L3.5700 3.6580
" />
<path d="M3.5880 5.5290
L3.6030 5.3850
" />
<path d="M3.6030 3.9450
L3.5880 3.8010
" />
<path d="M3.6030 5.3850
L3.6150 5.2420
" />
<path d="M3.6150 4.0880
L3.6030 3.9450
" />
<path d="M3.6150 5.2420
L3.6250 5.0980
" />
<path d="M3.6230 3.5150
L3.5680 3.5150
" />
<path d="M3.6230 5.8150
L3.7150 5.8150
" />
<path d="M3.6250 4.2320
L3.6150 4.0880
" />
<path d="M3.6250 5.0980
L3.6320 4.9540
" />
<path d="M3.6320 4.3760
L3.6250 4.2320
" />
<path d="M3.6320 4.9540
L3.6360 4.8090
" />
<path d="M3.6360 4.5210
L3.6320 4.3760
" />
<path d="M3.6360 4.8090
L3.6380 4.6650
" />
<path d="M3.6380 4.6650
L3.6360 4.5210
" />
<path d="M3.6420 11.2710
L4.2190 11.2710
" />
<path d="M3.6480 14.4330
L3.7660 14.3520
" />
<path d="M3.6700 0.4250
L3.5490 0.4250
" />
<path d="M3.6850 11.1450
L3.3990 11.1450
" />
<path d="M3.7150 3.5150
L3.6230 3.5150
" />
<path d="M3.7150 5.8150
L3.8430 5.8150
" />
<path d="M3.7320 14.3750
L3.8260 14.3750
" />
<path d="M3.7340 15.7950
L4.0820 15.7950
" />
<path d="M3.7340 16.6850
L4.0820 16.6850
" />
<path d="M3.7660 14.3520
L3.8880 14.2710
" />
<path d="M3.8040 14.3270
L4.5300 14.3490
" />
<path d="M3.8260 14.3750
L3.9220 14.3750
" />
<path d="M3.8430 3.5150
L3.7150 3.5150
" />
<path d="M3.8430 5.8150
L4.0060 5.8150
" />
<path d="M3.9220 14.3750
L4.0200 14.3750
" />
<path d="M4.0060 3.5150
L3.8430 3.5150
" />
<path d="M4.0060 5.8150
L4.2020 5.8150
" />
<path d="M4.0090 11.1450
L3.6850 11.1450
" />
<path d="M4.0200 14.3750
L4.1200 14.3750
" />
<path d="M4.0270 0.4250
L3.6700 0.4250
" />
<path d="M4.0820 16.6850
L4.0820 15.7950
" />
<path d="M4.0820 16.6850
L12.6680 16.6850
" />
<path d="M4.1200 14.3750
L4.2220 14.3750
" />
<path d="M4.1450 13.7710
L4.9260 13.7710
" />
<path d="M4.1450 14.2710
L4.9260 14.2710
" />
<path d="M4.2020 3.5150
L4.0060 3.5150
" />
<path d="M4.2020 5.8150
L4.4300 5.8150
" />
<path d="M4.2190 11.2710
L4.8410 11.2710
" />
<path d="M4.2220 14.3750
L4.3260 14.3750
" />
<path d="M4.3260 14.3750
L4.4310 14.3750
" />
<path d="M4.3680 11.1450
L4.0090 11.1450
" />
<path d="M4.4300 3.5150
L4.2020 3.5150
" />
<path d="M4.4300 5.8150
L4.6890 5.8150
" />
<path d="M4.4310 14.3750
L4.5390 14.3750
" />
<path d="M4.5300 14.3490
L5.3410 14.3710
" />
<path d="M4.5390 14.3750
L4.6480 14.3750
" />
<path d="M4.6020 0.4250
L4.0270 0.4250
" />
<path d="M4.6480 14.3750
L4.7590 14.3750
" />
<path d="M4.6890 3.5150
L4.4300 3.5150
" />
<path d="M4.6890 5.8150
L4.9760 5.8150
" />
<path d="M4.7590 11.1450
L4.3680 11.1450
" />
<path d="M4.7590 14.3750
L4.8710 14.3750
" />
<path d="M4.8410 11.2710
L5.5010 11.2710
" />
<path d="M4.8710 14.3750
L4.9860 14.3750
" />
<path d="M4.9260 13.7710
L5.7490 13.7710
" />
<path d="M4.9260 14.2710
L5.7490 14.2710
" />
<path d="M4.9760 3.5150
L4.6890 3.5150
" />
<path d="M4.9760 5.8150
L5.2890 5.8150
" />
<path d="M4.9860 14.3750
L5.1010 14.3750
" />
<path d="M5.1010 14.3750
L5.2190 14.3750
" />
<path d="M5.1800 11.1450
L4.7590 11.1450
" />
<path d="M5.2190 14.3750
L5.2190 15.7950
" />
<path d="M5.2190 14.3750
L5.3410 14.3750
" />
<path d="M5.2190 15.7950
L4.0820 15.7950
" />
<path d="M5.2890 3.5150
L4.9760 3.5150
" />
<path d="M5.2890 5.8150
L5.6260 5.8150
" />
<path d="M5.3410 14.3750
L5.3410 14.3710
" />
<path d="M5.3660 0.4250
L4.6020 0.4250
" />
<path d="M5.4790 14.2710
L5.8380 14.5570
" />
<path d="M5.5010 11.2710
L6.1920 11.2710
" />
<path d="M5.5420 14.3210
L5.3410 14.3710
" />
<path d="M5.6260 3.5150
L5.2890 3.5150
" />
<path d="M5.6260 5.8150
L5.9840 5.8150
" />
<path d="M5.6260 11.1450
L5.1800 11.1450
" />
<path d="M5.7490 13.7710
L6.6060 13.7710
" />
<path d="M5.7490 14.2710
L6.6060 14.2710
" />
<path d="M5.8650 14.5760
L5.8380 14.5570
" />
<path d="M5.8940 14.5920
L5.8650 14.5760
" />
<path d="M5.9250 14.6040
L5.8940 14.5920
" />
<path d="M5.9580 14.6120
L5.9250 14.6040
" />
<path d="M5.9840 3.5150
L5.6260 3.5150
" />
<path d="M5.9840 5.8150
L6.3600 5.8150
" />
<path d="M5.9950 14.6170
L5.9580 14.6120
" />
<path d="M6.0320 14.6150
L5.9950 14.6170
" />
<path d="M6.0690 14.6070
L6.0320 14.6150
" />
<path d="M6.0940 11.1450
L5.6260 11.1450
" />
<path d="M6.1020 14.5940
L6.0690 14.6070
" />
<path d="M6.1020 14.5940
L6.4330 14.4330
" />
<path d="M6.1920 11.2710
L6.9060 11.2710
" />
<path d="M6.2070 11.2710
L6.2640 11.2510
" />
<path d="M6.2640 11.2510
L6.4210 11.1960
" />
<path d="M6.2810 0.4250
L5.3660 0.4250
" />
<path d="M6.3600 3.5150
L5.9840 3.5150
" />
<path d="M6.3600 5.8150
L6.7520 5.8150
" />
<path d="M6.4210 11.1960
L6.5800 11.1450
" />
<path d="M6.4330 14.4330
L6.7710 14.2710
" />
<path d="M6.5800 11.1450
L6.0940 11.1450
" />
<path d="M6.6060 13.7710
L7.4850 13.7710
" />
<path d="M6.6060 14.2710
L7.4850 14.2710
" />
<path d="M6.7520 2.9310
L6.8510 2.8430
" />
<path d="M6.7520 3.5150
L6.3600 3.5150
" />
<path d="M6.7520 3.5150
L6.7520 2.9310
" />
<path d="M6.7520 5.8150
L6.8200 5.6610
" />
<path d="M6.7520 6.3990
L6.7520 5.8150
" />
<path d="M6.8190 3.6690
L6.7520 3.5150
" />
<path d="M6.8200 5.6610
L6.8780 5.5100
" />
<path d="M6.8340 6.4720
L6.7520 6.3990
" />
<path d="M6.8510 2.8430
L6.9490 2.7650
" />
<path d="M6.8550 2.8400
L6.7520 2.9310
" />
<path d="M6.8780 3.8190
L6.8190 3.6690
" />
<path d="M6.8780 5.5100
L6.9270 5.3620
" />
<path d="M6.9060 11.2710
L7.6370 11.2710
" />
<path d="M6.9200 6.5420
L6.8340 6.4720
" />
<path d="M6.9270 3.9670
L6.8780 3.8190
" />
<path d="M6.9270 5.3620
L6.9670 5.2160
" />
<path d="M6.9490 2.7650
L7.0470 2.6960
" />
<path d="M6.9630 2.7550
L6.8550 2.8400
" />
<path d="M6.9670 4.1120
L6.9270 3.9670
" />
<path d="M6.9670 5.2160
L6.9840 5.1450
" />
<path d="M6.9840 4.1840
L6.9670 4.1120
" />
<path d="M6.9840 5.1450
L6.9990 5.0740
" />
<path d="M6.9980 4.2540
L6.9840 4.1840
" />
<path d="M6.9990 5.0740
L7.0110 5.0030
" />
<path d="M7.0090 6.6080
L6.9200 6.5420
" />
<path d="M7.0110 4.3240
L6.9980 4.2540
" />
<path d="M7.0110 5.0030
L7.0210 4.9340
" />
<path d="M7.0210 4.3940
L7.0110 4.3240
" />
<path d="M7.0210 4.9340
L7.0290 4.8650
" />
<path d="M7.0290 4.4620
L7.0210 4.3940
" />
<path d="M7.0290 4.8650
L7.0350 4.7970
" />
<path d="M7.0340 4.5300
L7.0290 4.4620
" />
<path d="M7.0350 4.7970
L7.0380 4.7300
" />
<path d="M7.0380 4.5970
L7.0340 4.5300
" />
<path d="M7.0380 4.7300
L7.0390 4.6630
" />
<path d="M7.0390 4.6630
L7.0380 4.5970
" />
<path d="M7.0470 2.6960
L7.1420 2.6350
" />
<path d="M7.0760 2.6770
L6.9630 2.7550
" />
<path d="M7.1010 6.6690
L7.0090 6.6080
" />
<path d="M7.1420 2.6350
L7.2350 2.5810
" />
<path d="M7.1930 2.6050
L7.0760 2.6770
" />
<path d="M7.1960 6.7270
L7.1010 6.6690
" />
<path d="M7.2350 2.5810
L7.3250 2.5350
" />
<path d="M7.2940 6.7800
L7.1960 6.7270
" />
<path d="M7.3010 0.4250
L6.2810 0.4250
" />
<path d="M7.3140 2.5400
L7.1930 2.6050
" />
<path d="M7.3250 2.5350
L7.4110 2.4940
" />
<path d="M7.3940 6.8280
L7.2940 6.7800
" />
<path d="M7.3940 6.8280
L7.5100 6.8770
" />
<path d="M7.4110 2.4940
L7.4930 2.4600
" />
<path d="M7.4390 2.4820
L7.3140 2.5400
" />
<path d="M7.4850 13.7710
L8.3750 13.7710
" />
<path d="M7.4850 14.2710
L8.3750 14.2710
" />
<path d="M7.4930 2.4600
L7.6030 2.4190
" />
<path d="M7.4960 6.8720
L7.3940 6.8280
" />
<path d="M7.5100 6.8770
L7.6280 6.9190
" />
<path d="M7.5670 2.4320
L7.4390 2.4820
" />
<path d="M7.6010 6.9100
L7.4960 6.8720
" />
<path d="M7.6030 2.4190
L7.7140 2.3840
" />
<path d="M7.6370 11.2710
L8.3750 11.2710
" />
<path d="M7.6970 2.3890
L7.5670 2.4320
" />
<path d="M7.7080 6.9440
L7.6010 6.9100
" />
<path d="M7.7140 2.3840
L7.8250 2.3550
" />
<path d="M7.7960 6.9680
L7.8710 6.9860
" />
<path d="M7.8160 6.9730
L7.7080 6.9440
" />
<path d="M7.8250 2.3550
L7.9360 2.3310
" />
<path d="M7.8300 2.3530
L7.6970 2.3890
" />
<path d="M7.8710 6.9860
L7.9460 7.0010
" />
<path d="M7.9260 6.9970
L7.8160 6.9730
" />
<path d="M7.9360 2.3310
L8.0460 2.3130
" />
<path d="M7.9650 2.3260
L7.8300 2.3530
" />
<path d="M8.0070 7.0110
L8.0750 7.0210
" />
<path d="M8.0370 7.0160
L7.9260 6.9970
" />
<path d="M8.0460 2.3130
L8.1560 2.3000
" />
<path d="M8.0750 7.0210
L8.1440 7.0290
" />
<path d="M8.1010 2.3060
L7.9650 2.3260
" />
<path d="M8.1490 7.0290
L8.0370 7.0160
" />
<path d="M8.1560 2.3000
L8.2650 2.2930
" />
<path d="M8.2380 2.2940
L8.1010 2.3060
" />
<path d="M8.2620 7.0370
L8.1490 7.0290
" />
<path d="M8.2650 2.2930
L8.3720 2.2900
" />
<path d="M8.3720 2.2900
L8.4810 2.2920
" />
<path d="M8.3750 0.4250
L7.3010 0.4250
" />
<path d="M8.3750 2.2900
L8.2380 2.2940
" />
<path d="M8.3750 7.0400
L8.2620 7.0370
" />
<path d="M8.3750 11.2710
L9.1130 11.2710
" />
<path d="M8.3750 13.7710
L9.2650 13.7710
" />
<path d="M8.3750 14.2710
L9.2650 14.2710
" />
<path d="M8.3750 18.1190
L13.3750 18.1190
" />
<path d="M8.4810 2.2920
L8.5910 2.3000
" />
<path d="M8.4830 7.0380
L8.3750 7.0400
" />
<path d="M8.5120 2.2940
L8.3750 2.2900
" />
<path d="M8.5910 2.3000
L8.7020 2.3130
" />
<path d="M8.5930 7.0300
L8.4830 7.0380
" />
<path d="M8.6490 2.3060
L8.5120 2.2940
" />
<path d="M8.7020 2.3130
L8.8120 2.3310
" />
<path d="M8.7030 7.0170
L8.5930 7.0300
" />
<path d="M8.7850 2.3260
L8.6490 2.3060
" />
<path d="M8.8110 7.0000
L8.9430 6.9710
" />
<path d="M8.8120 2.3310
L8.9230 2.3540
" />
<path d="M8.8130 6.9990
L8.7030 7.0170
" />
<path d="M8.9200 2.3530
L8.7850 2.3260
" />
<path d="M8.9230 2.3540
L9.0340 2.3830
" />
<path d="M8.9250 6.9760
L8.8130 6.9990
" />
<path d="M8.9430 6.9710
L9.0730 6.9350
" />
<path d="M9.0340 2.3830
L9.1440 2.4180
" />
<path d="M9.0360 6.9460
L8.9250 6.9760
" />
<path d="M9.0530 2.3890
L8.9200 2.3530
" />
<path d="M9.0530 14.2710
L9.1910 14.5570
" />
<path d="M9.0730 6.9350
L9.2000 6.8920
" />
<path d="M9.1130 11.2710
L9.8440 11.2710
" />
<path d="M9.1440 2.4180
L9.2530 2.4580
" />
<path d="M9.1460 6.9110
L9.0360 6.9460
" />
<path d="M9.1830 2.4320
L9.0530 2.3890
" />
<path d="M9.2000 6.8920
L9.3250 6.8420
" />
<path d="M9.2030 14.5760
L9.1910 14.5570
" />
<path d="M9.2180 14.5920
L9.2030 14.5760
" />
<path d="M9.2370 14.6040
L9.2180 14.5920
" />
<path d="M9.2530 2.4580
L9.3360 2.4930
" />
<path d="M9.2570 6.8700
L9.1460 6.9110
" />
<path d="M9.2600 14.6120
L9.2370 14.6040
" />
<path d="M9.2650 13.7710
L10.1440 13.7710
" />
<path d="M9.2650 14.2710
L10.1440 14.2710
" />
<path d="M9.2880 14.6170
L9.2600 14.6120
" />
<path d="M9.3110 2.4820
L9.1830 2.4320
" />
<path d="M9.3190 14.6150
L9.2880 14.6170
" />
<path d="M9.3250 6.8420
L9.4470 6.7840
" />
<path d="M9.3360 2.4930
L9.4230 2.5340
" />
<path d="M9.3390 6.8360
L9.2570 6.8700
" />
<path d="M9.3530 14.6070
L9.3190 14.6150
" />
<path d="M9.3870 14.5940
L9.3530 14.6070
" />
<path d="M9.3870 14.5940
L9.7210 14.4410
" />
<path d="M9.4230 2.5340
L9.5140 2.5810
" />
<path d="M9.4250 6.7950
L9.3390 6.8360
" />
<path d="M9.4360 2.5400
L9.3110 2.4820
" />
<path d="M9.4470 6.7840
L9.5660 6.7200
" />
<path d="M9.4490 0.4250
L8.3750 0.4250
" />
<path d="M9.5140 2.5810
L9.6070 2.6350
" />
<path d="M9.5140 6.7490
L9.4250 6.7950
" />
<path d="M9.5570 2.6050
L9.4360 2.5400
" />
<path d="M9.5660 6.7200
L9.6800 6.6490
" />
<path d="M9.6070 2.6350
L9.7030 2.6960
" />
<path d="M9.6070 6.6950
L9.5140 6.7490
" />
<path d="M9.6740 2.6770
L9.5570 2.6050
" />
<path d="M9.6800 6.6490
L9.7910 6.5720
" />
<path d="M9.7030 2.6960
L9.8010 2.7650
" />
<path d="M9.7030 6.6340
L9.6070 6.6950
" />
<path d="M9.7110 4.6630
L9.7120 4.7300
" />
<path d="M9.7120 4.5970
L9.7110 4.6630
" />
<path d="M9.7120 4.7300
L9.7150 4.7970
" />
<path d="M9.7150 4.7970
L9.7210 4.8650
" />
<path d="M9.7160 4.5300
L9.7120 4.5970
" />
<path d="M9.7210 4.4620
L9.7160 4.5300
" />
<path d="M9.7210 4.8650
L9.7290 4.9340
" />
<path d="M9.7210 14.4410
L10.0510 14.2860
" />
<path d="M9.7290 4.3930
L9.7210 4.4620
" />
<path d="M9.7290 4.9340
L9.7390 5.0030
" />
<path d="M9.7390 4.3240
L9.7290 4.3930
" />
<path d="M9.7390 5.0030
L9.7510 5.0730
" />
<path d="M9.7510 5.0730
L9.7660 5.1440
" />
<path d="M9.7520 4.2540
L9.7390 4.3240
" />
<path d="M9.7660 4.1830
L9.7520 4.2540
" />
<path d="M9.7660 5.1440
L9.7820 5.2160
" />
<path d="M9.7820 5.2160
L9.8230 5.3610
" />
<path d="M9.7830 4.1120
L9.7660 4.1830
" />
<path d="M9.7870 2.7550
L9.6740 2.6770
" />
<path d="M9.7910 6.5720
L9.8970 6.4880
" />
<path d="M9.8010 2.7650
L9.8990 2.8440
" />
<path d="M9.8010 6.5650
L9.7030 6.6340
" />
<path d="M9.8230 3.9670
L9.7830 4.1120
" />
<path d="M9.8230 5.3610
L9.8720 5.5100
" />
<path d="M9.8440 11.2710
L10.5580 11.2710
" />
<path d="M9.8720 5.5100
L9.9300 5.6610
" />
<path d="M9.8730 3.8190
L9.8230 3.9670
" />
<path d="M9.8950 2.8400
L9.7870 2.7550
" />
<path d="M9.8970 6.4880
L9.9980 6.3990
" />
<path d="M9.8990 2.8440
L9.9980 2.9310
" />
<path d="M9.8990 6.4870
L9.8010 6.5650
" />
<path d="M9.9300 5.6610
L9.9980 5.8150
" />
<path d="M9.9310 3.6690
L9.8730 3.8190
" />
<path d="M9.9980 2.9310
L9.8950 2.8400
" />
<path d="M9.9980 2.9310
L9.9980 3.5150
" />
<path d="M9.9980 3.5150
L9.9310 3.6690
" />
<path d="M9.9980 5.8150
L9.9980 6.3990
" />
<path d="M9.9980 5.8150
L10.3900 5.8150
" />
<path d="M9.9980 6.3990
L9.8990 6.4870
" />
<path d="M10.0510 14.2860
L10.0540 14.2850
" />
<path d="M10.0680 14.2800
L10.0510 14.2860
" />
<path d="M10.0860 14.2750
L10.0680 14.2800
" />
<path d="M10.1050 14.2720
L10.0860 14.2750
" />
<path d="M10.1260 14.2710
L10.1050 14.2720
" />
<path d="M10.1440 13.7710
L11.0010 13.7710
" />
<path d="M10.1440 14.2710
L11.0010 14.2710
" />
<path d="M10.1700 11.1450
L6.5800 11.1450
" />
<path d="M10.1700 11.1450
L10.3280 11.1960
" />
<path d="M10.3280 11.1960
L10.4850 11.2500
" />
<path d="M10.3900 3.5150
L9.9980 3.5150
" />
<path d="M10.3900 5.8150
L10.7660 5.8150
" />
<path d="M10.4690 0.4250
L9.4490 0.4250
" />
<path d="M10.4850 11.2500
L10.5430 11.2710
" />
<path d="M10.5580 11.2710
L11.2490 11.2710
" />
<path d="M10.6560 11.1450
L10.1700 11.1450
" />
<path d="M10.6940 14.3210
L10.4820 14.2710
" />
<path d="M10.7660 3.5150
L10.3900 3.5150
" />
<path d="M10.7660 5.8150
L11.1240 5.8150
" />
<path d="M10.9050 14.3750
L10.6940 14.3210
" />
<path d="M10.9050 14.3750
L11.5310 14.3750
" />
<path d="M11.0010 13.7710
L11.8240 13.7710
" />
<path d="M11.0010 14.2710
L11.8240 14.2710
" />
<path d="M11.1240 3.5150
L10.7660 3.5150
" />
<path d="M11.1240 5.8150
L11.4610 5.8150
" />
<path d="M11.1240 11.1450
L10.6560 11.1450
" />
<path d="M11.2490 11.2710
L11.9090 11.2710
" />
<path d="M11.3840 0.4250
L10.4690 0.4250
" />
<path d="M11.4610 3.5150
L11.1240 3.5150
" />
<path d="M11.4610 5.8150
L11.7740 5.8150
" />
<path d="M11.5310 14.3750
L11.5310 15.7950
" />
<path d="M11.5310 14.3750
L11.5860 14.3750
" />
<path d="M11.5700 11.1450
L11.1240 11.1450
" />
<path d="M11.5860 14.3750
L11.6410 14.3750
" />
<path d="M11.6410 14.3750
L11.6950 14.3750
" />
<path d="M11.6950 14.3750
L11.7490 14.3750
" />
<path d="M11.7490 14.3750
L11.8020 14.3750
" />
<path d="M11.7740 3.5150
L11.4610 3.5150
" />
<path d="M11.7740 5.8150
L12.0610 5.8150
" />
<path d="M11.8020 14.3750
L11.8550 14.3750
" />
<path d="M11.8240 13.7710
L12.6050 13.7710
" />
<path d="M11.8240 14.2710
L12.6050 14.2710
" />
<path d="M11.8550 14.3750
L11.9080 14.3750
" />
<path d="M11.9080 14.3750
L11.9610 14.3750
" />
<path d="M11.9090 11.2710
L12.5310 11.2710
" />
<path d="M11.9610 14.3750
L12.0130 14.3750
" />
<path d="M11.9910 11.1450
L11.5700 11.1450
" />
<path d="M12.0130 14.3750
L12.0650 14.3750
" />
<path d="M12.0610 3.5150
L11.7740 3.5150
" />
<path d="M12.0610 5.8150
L12.3200 5.8150
" />
<path d="M12.0650 14.3750
L12.1160 14.3750
" />
<path d="M12.1160 14.3750
L12.1670 14.3750
" />
<path d="M12.1480 0.4250
L11.3840 0.4250
" />
<path d="M12.1670 14.3750
L12.2180 14.3750
" />
<path d="M12.2180 14.3750
L12.2680 14.3750
" />
<path d="M12.2800 14.2710
L12.3010 14.4150
" />
<path d="M12.3010 14.4150
L12.3250 14.5570
" />
<path d="M12.3120 14.5760
L12.2460 14.2710
" />
<path d="M12.3190 14.6050
L12.3170 14.5980
" />
<path d="M12.3200 3.5150
L12.0610 3.5150
" />
<path d="M12.3200 5.8150
L12.5480 5.8150
" />
<path d="M12.3230 14.6110
L12.3190 14.6050
" />
<path d="M12.3300 14.6150
L12.3230 14.6110
" />
<path d="M12.3400 14.6170
L12.3300 14.6150
" />
<path d="M12.3510 14.6150
L12.3400 14.6170
" />
<path d="M12.3660 14.6110
L12.3510 14.6150
" />
<path d="M12.3820 11.1450
L11.9910 11.1450
" />
<path d="M12.4000 14.5940
L12.3660 14.6110
" />
<path d="M12.4000 14.5940
L12.5410 14.5140
" />
<path d="M12.4460 14.2710
L12.3250 14.5570
" />
<path d="M12.5310 11.2710
L13.1080 11.2710
" />
<path d="M12.5410 14.5140
L12.6770 14.4330
" />
<path d="M12.5480 3.5150
L12.3200 3.5150
" />
<path d="M12.5480 5.8150
L12.7440 5.8150
" />
<path d="M12.6050 13.7710
L13.3320 13.7710
" />
<path d="M12.6050 14.2710
L13.3320 14.2710
" />
<path d="M12.6680 15.7950
L11.5310 15.7950
" />
<path d="M12.6680 15.7950
L13.0160 15.7950
" />
<path d="M12.6680 16.6850
L12.6680 15.7950
" />
<path d="M12.6680 16.6850
L13.0160 16.6850
" />
<path d="M12.6770 14.4330
L12.6890 14.4260
" />
<path d="M12.7230 0.4250
L12.1480 0.4250
" />
<path d="M12.7410 11.1450
L12.3820 11.1450
" />
<path d="M12.7440 3.5150
L12.5480 3.5150
" />
<path d="M12.7440 5.8150
L12.9070 5.8150
" />
<path d="M12.7440 14.3960
L12.6770 14.4330
" />
<path d="M12.7870 14.3750
L12.9270 14.3750
" />
<path d="M12.8130 14.3640
L12.7440 14.3960
" />
</g>
<g style="fill:#000000; fill-opacity:1.0000; stroke:none;">
<circle cx="12.8330" cy="0.4250" r="0.0100" /> 
</g>
<g style="fill:none; 
stroke:#000000; stroke-width:0.0200; stroke-opacity:1; 
stroke-linecap:round; stroke-linejoin:round;">
<path d="M12.8850 14.3360
L12.8130 14.3640
" />
<path d="M12.9070 3.5150
L12.7440 3.5150
" />
<path d="M12.9070 5.8150
L13.0350 5.8150
" />
<path d="M12.9270 14.3750
L13.0630 14.3750
" />
<path d="M12.9590 14.3130
L12.8850 14.3360
" />
<path d="M13.0160 15.7950
L13.3450 15.7950
" />
<path d="M13.0160 16.6850
L13.3450 16.6850
" />
<path d="M13.0350 3.5150
L12.9070 3.5150
" />
<path d="M13.0350 5.8150
L13.1270 5.8150
" />
<path d="M13.0360 14.2950
L12.9590 14.3130
" />
<path d="M13.0410 14.2930
L13.4950 14.3150
" />
<path d="M13.0630 14.3750
L13.1940 14.3750
" />
<path d="M13.0650 11.1450
L12.7410 11.1450
" />
<path d="M13.0800 0.4250
L12.7230 0.4250
" />
<path d="M13.1080 11.2710
L13.6330 11.2710
" />
<path d="M13.1120 4.6650
L13.1140 4.8090
" />
<path d="M13.1140 4.5210
L13.1120 4.6650
" />
<path d="M13.1140 4.8090
L13.1180 4.9540
" />
<path d="M13.1150 14.2810
L13.0360 14.2950
" />
<path d="M13.1180 4.3760
L13.1140 4.5210
" />
<path d="M13.1180 4.9540
L13.1250 5.0980
" />
<path d="M13.1250 4.2320
L13.1180 4.3760
" />
<path d="M13.1250 5.0980
L13.1350 5.2420
" />
<path d="M13.1270 3.5150
L13.0350 3.5150
" />
<path d="M13.1270 5.8150
L13.1820 5.8150
" />
<path d="M13.1350 4.0880
L13.1250 4.2320
" />
<path d="M13.1350 5.2420
L13.1470 5.3850
" />
<path d="M13.1470 3.9450
L13.1350 4.0880
" />
<path d="M13.1470 5.3850
L13.1620 5.5290
" />
<path d="M13.1620 3.8010
L13.1470 3.9450
" />
<path d="M13.1620 5.5290
L13.1800 5.6720
" />
<path d="M13.1800 3.6580
L13.1620 3.8010
" />
<path d="M13.1800 5.6720
L13.2010 5.8150
" />
<path d="M13.1820 3.5150
L13.1270 3.5150
" />
<path d="M13.1820 5.8150
L13.2010 5.8150
" />
<path d="M13.1940 14.3750
L13.3210 14.3750
" />
<path d="M13.1960 14.2740
L13.1150 14.2810
" />
<path d="M13.2010 0.4250
L13.0800 0.4250
" />
<path d="M13.2010 3.5150
L13.1800 3.6580
" />
<path d="M13.2010 3.5150
L13.1820 3.5150
" />
<path d="M13.2010 3.5150
L13.2010 0.4250
" />
<path d="M13.2010 11.1450
L13.2010 5.8150
" />
<path d="M13.2010 16.6850
L13.2010 18.1190
" />
<path d="M13.2800 14.2710
L13.1960 14.2740
" />
<path d="M13.3210 14.3750
L13.4430 14.3750
" />
<path d="M13.3320 13.7710
L13.9960 13.7710
" />
<path d="M13.3320 14.2710
L13.9960 14.2710
" />
<path d="M13.3450 15.7950
L13.6530 15.7950
" />
<path d="M13.3450 16.6850
L13.6530 16.6850
" />
<path d="M13.3510 11.1450
L13.0650 11.1450
" />
<path d="M13.3750 18.1190
L13.3750 28.1150
" />
<path d="M13.3750 28.1150
L3.3750 28.1150
" />
<path d="M13.4430 14.3750
L13.5590 14.3750
" />
<path d="M13.4950 14.3150
L13.8320 14.3360
" />
<path d="M13.5590 14.3750
L13.6710 14.3750
" />
<path d="M13.5970 11.1450
L13.3510 11.1450
" />
<path d="M13.6330 11.2710
L14.1020 11.2710
" />
<path d="M13.6530 15.7950
L13.9390 15.7950
" />
<path d="M13.6530 16.6850
L13.9390 16.6850
" />
<path d="M13.6710 14.3750
L13.7780 14.3750
" />
<path d="M13.7780 14.3750
L13.8790 14.3750
" />
<path d="M13.8010 11.1450
L13.5970 11.1450
" />
<path d="M13.8320 14.3360
L13.9560 14.3460
" />
<path d="M13.8790 14.3750
L13.9750 14.3750
" />
<path d="M13.9390 15.7950
L14.2010 15.7950
" />
<path d="M13.9390 16.6850
L14.2010 16.6850
" />
<path d="M13.9560 14.3460
L14.0500 14.3560
" />
<path d="M13.9610 11.1450
L13.8010 11.1450
" />
<path d="M13.9750 14.3750
L14.0660 14.3750
" />
<path d="M13.9960 13.7710
L14.5910 13.7710
" />
<path d="M13.9960 14.2710
L14.5910 14.2710
" />
<path d="M14.0500 14.3560
L14.1170 14.3650
" />
<path d="M14.0660 14.3750
L14.1510 14.3750
" />
<path d="M14.0770 11.1450
L13.9610 11.1450
" />
<path d="M14.1020 11.2710
L14.5090 11.2710
" />
<path d="M14.1170 14.3650
L14.1560 14.3750
" />
<path d="M14.1470 11.1450
L14.0770 11.1450
" />
<path d="M14.1510 14.3750
L14.2300 14.3750
" />
<path d="M14.1700 11.1450
L14.1470 11.1450
" />
<path d="M14.1700 11.1450
L14.2960 11.2710
" />
<path d="M14.2010 15.7950
L14.4390 15.7950
" />
<path d="M14.2010 16.6850
L14.4390 16.6850
" />
<path d="M14.2300 14.3750
L14.3040 14.3750
" />
<path d="M14.3000 14.3130
L14.1930 14.3750
" />
<path d="M14.3190 14.5870
L14.2970 14.2710
" />
<path d="M14.3220 14.6170
L14.3270 14.6150
" />
<path d="M14.3270 14.6150
L14.3380 14.6080
" />
<path d="M14.3380 14.6080
L14.3720 14.5810
" />
<path d="M14.4110 14.2710
L14.4010 14.5570
" />
<path d="M14.4390 14.5290
L14.3910 14.5660
" />
<path d="M14.4390 15.7950
L14.6510 15.7950
" />
<path d="M14.4390 16.6850
L14.6510 16.6850
" />
<path d="M14.4880 14.4940
L14.4390 14.5290
" />
<path d="M14.5090 11.2710
L14.8500 11.2710
" />
<path d="M14.5370 14.4610
L14.4880 14.4940
" />
<path d="M14.5860 14.4310
L14.5370 14.4610
" />
<path d="M14.5910 13.7710
L15.1060 13.7710
" />
<path d="M14.5910 14.2710
L15.1060 14.2710
" />
<path d="M14.6340 14.4040
L14.5860 14.4310
" />
<path d="M14.6510 15.7950
L14.8370 15.7950
" />
<path d="M14.6510 16.6850
L14.8370 16.6850
" />
<path d="M14.6830 14.3790
L14.6340 14.4040
" />
<path d="M14.6910 14.3750
L14.6960 14.3750
" />
<path d="M14.6960 14.3750
L14.7000 14.3750
" />
<path d="M14.7000 14.3750
L14.7040 14.3750
" />
<path d="M14.7040 14.3750
L14.7080 14.3750
" />
<path d="M14.7080 14.3750
L14.7110 14.3750
" />
<path d="M14.7110 14.3750
L14.7140 14.3750
" />
<path d="M14.7140 14.3750
L14.7170 14.3750
" />
<path d="M14.7170 14.3750
L14.7190 14.3750
" />
<path d="M14.7190 14.3750
L14.7210 14.3750
" />
<path d="M14.7210 14.3750
L14.7220 14.3750
" />
<path d="M14.7220 14.3750
L14.7230 14.3750
" />
<path d="M14.7230 14.3750
L14.7240 14.3750
" />
<path d="M14.7240 14.3750
L14.7250 14.3750
" />
</g>
<g style="fill:#000000; fill-opacity:1.0000; stroke:none;">
<circle cx="14.7250" cy="14.3750" r="0.0100" /> 
</g>
<g style="fill:none; 
stroke:#000000; stroke-width:0.0200; stroke-opacity:1; 
stroke-linecap:round; stroke-linejoin:round;">
<path d="M14.7250 14.3750
L14.7250 15.7950
" />
<path d="M14.7250 14.6160
L14.7560 14.6090
" />
<path d="M14.7320 14.3570
L14.6830 14.3790
" />
<path d="M14.7480 14.2710
L14.4010 14.5570
" />
<path d="M14.7560 14.6090
L14.7880 14.5960
" />
<path d="M14.7800 14.3370
L14.7320 14.3570
" />
<path d="M14.7880 14.5960
L14.8240 14.5790
" />
<path d="M14.8240 14.5790
L14.8620 14.5570
" />
<path d="M14.8280 14.3200
L14.7800 14.3370
" />
<path d="M14.8370 15.7950
L14.9950 15.7950
" />
<path d="M14.8370 16.6850
L14.9950 16.6850
" />
<path d="M14.8500 11.2710
L15.1200 11.2710
" />
<path d="M14.8750 14.3060
L14.8280 14.3200
" />
<path d="M14.9190 14.2950
L14.8620 14.5570
" />
<path d="M14.9210 14.2940
L14.8750 14.3060
" />
<path d="M14.9670 14.2850
L14.9210 14.2940
" />
<path d="M14.9950 15.7950
L15.1260 15.7950
" />
<path d="M14.9950 16.6850
L15.1260 16.6850
" />
<path d="M15.0450 14.2740
L14.9670 14.2850
" />
<path d="M15.1060 13.7710
L15.5380 13.7710
" />
<path d="M15.1060 14.2710
L15.5380 14.2710
" />
<path d="M15.1190 14.2710
L15.0450 14.2740
" />
<path d="M15.1200 11.2710
L15.3180 11.2710
" />
<path d="M15.1260 15.7950
L15.2280 15.7950
" />
<path d="M15.1260 16.6850
L15.2280 16.6850
" />
<path d="M15.2280 15.7950
L15.3010 15.7950
" />
<path d="M15.2280 16.6850
L15.3010 16.6850
" />
<path d="M15.3010 15.7950
L15.3450 15.7950
" />
<path d="M15.3010 16.6850
L15.3450 16.6850
" />
<path d="M15.3180 11.2710
L15.4400 11.2710
" />
<path d="M15.3420 14.2710
L14.8620 14.5570
" />
<path d="M15.3450 15.7950
L15.3600 15.7950
" />
<path d="M15.3450 16.6850
L15.3600 16.6850
" />
<path d="M15.3600 16.6850
L15.3600 15.7950
" />
<path d="M15.4400 11.2710
L15.4400 12.2870
" />
<path d="M15.4400 12.2870
L15.4470 12.2870
" />
<path d="M15.4470 12.2870
L15.4530 12.2870
" />
<path d="M15.4530 12.2870
L15.4580 12.2870
" />
<path d="M15.4580 12.2870
L15.4630 12.2870
" />
<path d="M15.4630 12.2870
L15.4680 12.2870
" />
<path d="M15.4680 12.2870
L15.4720 12.2870
" />
<path d="M15.4720 12.2870
L15.4750 12.2870
" />
<path d="M15.4750 12.2870
L15.4780 12.2870
" />
<path d="M15.4780 12.2870
L15.4810 12.2870
" />
<path d="M15.4810 12.2870
L15.4830 12.2870
" />
<path d="M15.4830 12.2870
L15.4850 12.2870
" />
<path d="M15.4850 12.2870
L15.4860 12.2870
" />
<path d="M15.4860 12.2870
L15.4870 12.2870
" />
</g>
<g style="fill:#000000; fill-opacity:1.0000; stroke:none;">
<circle cx="15.4870" cy="12.2870" r="0.0100" /> 
</g>
<g style="fill:none; 
stroke:#000000; stroke-width:0.0200; stroke-opacity:1; 
stroke-linecap:round; stroke-linejoin:round;">
<path d="M15.4870 12.2870
L15.4870 13.7710
" />
<path d="M15.5380 13.7710
L15.8790 13.7710
" />
<path d="M15.5380 14.2710
L15.8790 14.2710
" />
<path d="M15.8790 13.7710
L16.1260 13.7710
" />
<path d="M15.8790 14.2710
L16.1260 14.2710
" />
<path d="M16.1260 13.7710
L16.2750 13.7710
" />
<path d="M16.1260 14.2710
L16.2750 14.2710
" />
<path d="M16.2750 13.7710
L16.3250 13.7710
" />
<path d="M16.2750 14.2710
L16.3250 14.2710
" />
<path d="M16.3250 13.7710
L16.3250 14.2710
" />
<circle cx="8.3750" cy="4.6645" r="0.9893" /> 
</g> 
</svg>
