<?xml version="1.0" standalone="no"?>
 <!DOCTYPE svg PUBLIC "-//W3C//DTD SVG 1.1//EN" 
 "http://www.w3.org/Graphics/SVG/1.1/DTD/svg11.dtd"> 
<svg
  xmlns:svg="http://www.w3.org/2000/svg"
  xmlns="http://www.w3.org/2000/svg"
  xmlns:xlink="http://www.w3.org/1999/xlink"
  version="1.1"
  width="70.0278mm" height="13.8430mm" viewBox="0.0000 0.0000 70.0278 13.8430">
<title>SVG Image created as outline.svg date 2025/06/16 09:17:50 </title>
  <desc>Image generated by PCBNEW </desc>
<g style="fill:#000000; fill-opacity:1.0000;stroke:#000000; stroke-opacity:1.0000;
stroke-linecap:round; stroke-linejoin:round;"
 transform="translate(0 0) scale(1 1)">
</g>
<g style="fill:none; 
stroke:#000000; stroke-width:0.0200; stroke-opacity:1; 
stroke-linecap:round; stroke-linejoin:round;">
<path d="M6.2980 4.0810
L6.2980 4.8940
" />
<path d="M6.2980 6.4180
L6.2980 4.8940
" />
<path d="M6.2980 6.4180
L6.2980 7.4330
" />
<path d="M6.2980 8.9570
L6.2980 7.4330
" />
<path d="M6.2980 8.9570
L6.2980 9.7700
" />
<path d="M6.2980 9.7700
L7.1360 9.7700
" />
<path d="M6.7050 4.4870
L6.9590 4.7410
" />
<path d="M6.7050 4.4870
L7.7210 4.4870
" />
<path d="M6.7050 4.8940
L6.2980 4.8940
" />
<path d="M6.7050 4.8940
L6.7050 4.4870
" />
<path d="M6.7050 4.8940
L6.7850 4.8940
" />
<path d="M6.7050 6.4180
L6.2980 6.4180
" />
<path d="M6.7050 7.4330
L6.2980 7.4330
" />
<path d="M6.7050 7.4330
L6.7050 6.4180
" />
<path d="M6.7050 7.4330
L6.7810 7.4330
" />
<path d="M6.7050 8.9570
L6.2980 8.9570
" />
<path d="M6.7050 9.3640
L6.7050 8.9570
" />
<path d="M6.7050 9.3640
L6.9550 9.1140
" />
<path d="M6.7810 6.4180
L6.7050 6.4180
" />
<path d="M6.7810 6.4180
L6.7810 4.8940
" />
<path d="M6.7810 7.4330
L6.9590 7.2750
" />
<path d="M6.7810 8.9570
L6.7050 8.9570
" />
<path d="M6.7810 8.9570
L6.7810 7.4330
" />
<path d="M6.7820 4.8940
L6.7850 4.8940
" />
<path d="M6.7850 4.8940
L6.9590 4.7410
" />
<path d="M6.9590 4.7410
L6.9590 6.5760
" />
<path d="M6.9590 6.5760
L6.7810 6.4180
" />
<path d="M6.9590 6.5760
L6.9590 7.2750
" />
<path d="M6.9590 7.2750
L6.9590 9.1100
" />
<path d="M6.9590 9.1100
L6.7810 8.9570
" />
<path d="M6.9590 9.1100
L7.9740 9.1100
" />
<path d="M7.1360 0.3090
L9.3080 0.3090
" />
<path d="M7.1360 2.3540
L7.1360 0.3090
" />
<path d="M7.1360 3.8780
L7.1360 2.3540
" />
<path d="M7.1360 4.0810
L6.2980 4.0810
" />
<path d="M7.1360 4.0810
L7.1360 3.8780
" />
<path d="M7.1360 9.9730
L7.1360 9.7700
" />
<path d="M7.1360 11.4970
L7.1360 9.9730
" />
<path d="M7.1360 13.5420
L7.1360 11.4970
" />
<path d="M7.7210 0.8170
L63.3460 0.8170
" />
<path d="M7.7210 2.3540
L7.1360 2.3540
" />
<path d="M7.7210 2.3540
L7.7210 0.8170
" />
<path d="M7.7210 2.3540
L7.7970 2.3540
" />
<path d="M7.7210 3.8780
L7.1360 3.8780
" />
<path d="M7.7210 4.4870
L7.7210 3.8780
" />
<path d="M7.7210 4.4870
L7.9740 4.7410
" />
<path d="M7.7210 9.3640
L6.7050 9.3640
" />
<path d="M7.7210 9.9730
L7.1360 9.9730
" />
<path d="M7.7210 9.9730
L7.7210 9.3640
" />
<path d="M7.7210 9.9730
L7.7970 9.9730
" />
<path d="M7.7210 11.4970
L7.1360 11.4970
" />
<path d="M7.7210 13.0340
L7.7210 11.4970
" />
<path d="M7.7210 13.0340
L7.9740 12.7800
" />
<path d="M7.7970 2.3540
L7.9740 2.1950
" />
<path d="M7.7970 3.8780
L7.7210 3.8780
" />
<path d="M7.7970 3.8780
L7.7970 2.3540
" />
<path d="M7.7970 9.9730
L7.9740 9.8150
" />
<path d="M7.7970 11.4970
L7.7210 11.4970
" />
<path d="M7.7970 11.4970
L7.7970 9.9730
" />
<path d="M7.9740 1.0710
L7.7210 0.8170
" />
<path d="M7.9740 1.0710
L7.9740 2.1950
" />
<path d="M7.9740 2.1950
L7.9740 4.0360
" />
<path d="M7.9740 4.0360
L7.7970 3.8780
" />
<path d="M7.9740 4.0360
L7.9740 4.7410
" />
<path d="M7.9740 4.7410
L6.9590 4.7410
" />
<path d="M7.9740 9.1100
L7.7210 9.3640
" />
<path d="M7.9740 9.1100
L7.9740 9.8150
" />
<path d="M7.9740 9.1100
L8.6400 9.1075
" />
<path d="M7.9740 9.8150
L7.9740 11.6560
" />
<path d="M7.9740 11.6560
L7.7970 11.4970
" />
<path d="M7.9740 11.6560
L7.9740 12.7800
" />
<path d="M7.9740 12.7800
L61.4160 12.7800
" />
<path d="M8.6350 4.7410
L7.9740 4.7410
" />
<path d="M8.6350 4.7410
L9.5240 4.7410
" />
<path d="M8.8890 4.9950
L8.8890 8.8560
" />
<path d="M9.3080 0.3340
L9.3080 0.3090
" />
<path d="M9.3080 0.3340
L11.2130 0.3340
" />
<path d="M9.5240 2.5950
L9.5240 3.6360
" />
<path d="M9.5240 4.7410
L9.5240 5.1350
" />
<path d="M9.5240 5.1350
L9.5240 6.1760
" />
<path d="M9.5240 6.1760
L9.5240 7.6750
" />
<path d="M9.5240 7.6750
L9.5240 8.7160
" />
<path d="M9.5240 8.7160
L9.5240 9.1100
" />
<path d="M9.5240 9.1100
L8.6350 9.1100
" />
<path d="M9.5240 10.2150
L9.5240 11.2560
" />
<path d="M9.5620 0.3090
L9.3080 0.3090
" />
<path d="M9.5620 0.3340
L9.5620 0.3090
" />
<path d="M9.9430 0.3340
L9.9430 0.3090
" />
<path d="M10.2610 0.3090
L9.9430 0.3090
" />
<path d="M10.2610 0.3340
L10.2610 0.3090
" />
<path d="M10.5780 0.3090
L10.2610 0.3090
" />
<path d="M10.5780 0.3090
L10.5780 0.3340
" />
<path d="M10.9590 0.3340
L10.9590 0.3090
" />
<path d="M11.2130 0.3090
L10.9590 0.3090
" />
<path d="M11.2130 0.3090
L63.7530 0.3090
" />
<path d="M11.2130 0.3340
L11.2130 0.3090
" />
<path d="M34.3910 0.3080
L34.3910 0.3090
" />
<path d="M34.3910 13.5430
L34.3910 13.5420
" />
<path d="M34.3910 13.5430
L35.6600 13.5430
" />
<path d="M35.6600 0.3080
L34.3910 0.3080
" />
<path d="M35.6600 0.3080
L35.6600 0.3090
" />
<path d="M35.6600 13.5430
L35.6600 13.5420
" />
<path d="M60.5270 2.5950
L9.5240 2.5950
" />
<path d="M60.5270 2.5950
L60.5270 1.0710
" />
<path d="M60.5270 2.5950
L60.5270 3.6360
" />
<path d="M60.5270 3.6360
L9.5240 3.6360
" />
<path d="M60.5270 4.0680
L60.5270 3.6360
" />
<path d="M60.5270 5.1350
L9.5240 5.1350
" />
<path d="M60.5270 5.1350
L60.5270 6.1760
" />
<path d="M60.5270 6.1760
L9.5240 6.1760
" />
<path d="M60.5270 7.6750
L9.5240 7.6750
" />
<path d="M60.5270 7.6750
L60.5270 8.7160
" />
<path d="M60.5270 8.7160
L9.5240 8.7160
" />
<path d="M60.5270 9.7830
L61.4160 9.7830
" />
<path d="M60.5270 10.2150
L9.5240 10.2150
" />
<path d="M60.5270 10.2150
L60.5270 9.7830
" />
<path d="M60.5270 10.2150
L60.5270 11.2560
" />
<path d="M60.5270 11.2560
L9.5240 11.2560
" />
<path d="M60.5270 12.7800
L60.5270 11.2560
" />
<path d="M61.1620 1.3250
L61.1620 3.8140
" />
<path d="M61.1620 10.0370
L61.1620 12.5260
" />
<path d="M61.4160 1.0710
L7.9740 1.0710
" />
<path d="M61.4160 4.0680
L60.5270 4.0680
" />
<path d="M61.4160 4.0680
L62.0770 4.0680
" />
<path d="M61.4160 12.7800
L63.0920 12.7800
" />
<path d="M62.0770 4.0680
L63.0920 4.0680
" />
<path d="M62.0770 4.7350
L62.0770 4.0680
" />
<path d="M62.0770 4.7350
L62.2540 4.8940
" />
<path d="M62.0770 6.5760
L62.0770 4.7350
" />
<path d="M62.0770 7.2750
L62.0770 6.5760
" />
<path d="M62.0770 7.2750
L62.2540 7.4330
" />
<path d="M62.0770 9.1160
L62.0770 7.2750
" />
<path d="M62.0770 9.7830
L61.4160 9.7830
" />
<path d="M62.0770 9.7830
L62.0770 9.1160
" />
<path d="M62.0770 9.7830
L62.3300 9.5290
" />
<path d="M62.2540 4.8940
L62.2540 6.4180
" />
<path d="M62.2540 6.4180
L62.0770 6.5760
" />
<path d="M62.2540 6.4180
L62.3300 6.4180
" />
<path d="M62.2540 7.4330
L62.2540 8.9570
" />
<path d="M62.2540 8.9570
L62.0770 9.1160
" />
<path d="M62.2540 8.9570
L62.3300 8.9570
" />
<path d="M62.3300 4.3220
L62.0770 4.0680
" />
<path d="M62.3300 4.3220
L62.3300 4.8940
" />
<path d="M62.3300 4.8940
L62.2540 4.8940
" />
<path d="M62.3300 6.4180
L62.3300 7.4330
" />
<path d="M62.3300 6.4180
L62.9150 6.4180
" />
<path d="M62.3300 7.4330
L62.2540 7.4330
" />
<path d="M62.3300 8.9570
L62.3300 9.5290
" />
<path d="M62.3300 8.9570
L62.9150 8.9570
" />
<path d="M62.3300 9.5290
L63.3460 9.5290
" />
<path d="M62.9150 4.7280
L62.9150 4.8940
" />
<path d="M62.9150 4.7280
L63.7530 4.7280
" />
<path d="M62.9150 4.8940
L62.3300 4.8940
" />
<path d="M62.9150 6.4180
L62.9150 4.8940
" />
<path d="M62.9150 6.4180
L62.9150 7.4330
" />
<path d="M62.9150 7.4330
L62.3300 7.4330
" />
<path d="M62.9150 8.9570
L62.9150 7.4330
" />
<path d="M62.9150 8.9570
L62.9150 9.1230
" />
<path d="M63.0920 1.0710
L61.4160 1.0710
" />
<path d="M63.0920 1.0710
L63.3460 0.8170
" />
<path d="M63.0920 2.1950
L63.0920 1.0710
" />
<path d="M63.0920 2.1950
L63.2700 2.3540
" />
<path d="M63.0920 4.0360
L63.0920 2.1950
" />
<path d="M63.0920 4.0680
L63.0920 4.0360
" />
<path d="M63.0920 4.0680
L63.3460 4.3220
" />
<path d="M63.0920 9.7830
L62.0770 9.7830
" />
<path d="M63.0920 9.8150
L63.0920 9.7830
" />
<path d="M63.0920 9.8150
L63.2700 9.9730
" />
<path d="M63.0920 11.6560
L63.0920 9.8150
" />
<path d="M63.0920 12.7800
L63.0920 11.6560
" />
<path d="M63.2700 2.3540
L63.2700 3.8780
" />
<path d="M63.2700 3.8780
L63.0920 4.0360
" />
<path d="M63.2700 3.8780
L63.3460 3.8780
" />
<path d="M63.2700 9.9730
L63.2700 11.4970
" />
<path d="M63.2700 11.4970
L63.0920 11.6560
" />
<path d="M63.2700 11.4970
L63.3460 11.4970
" />
<path d="M63.3460 0.8170
L63.3460 2.3540
" />
<path d="M63.3460 2.3540
L63.2700 2.3540
" />
<path d="M63.3460 2.3540
L63.7530 2.3540
" />
<path d="M63.3460 3.8780
L63.3460 4.3220
" />
<path d="M63.3460 3.8780
L63.7530 3.8780
" />
<path d="M63.3460 4.3220
L62.3300 4.3220
" />
<path d="M63.3460 9.5290
L63.0920 9.7830
" />
<path d="M63.3460 9.5290
L63.3460 9.9730
" />
<path d="M63.3460 9.9730
L63.2700 9.9730
" />
<path d="M63.3460 9.9730
L63.7530 9.9730
" />
<path d="M63.3460 11.4970
L63.3460 13.0340
" />
<path d="M63.3460 11.4970
L63.7530 11.4970
" />
<path d="M63.3460 13.0340
L7.7210 13.0340
" />
<path d="M63.3460 13.0340
L63.0920 12.7800
" />
<path d="M63.7530 2.3540
L63.7530 0.3090
" />
<path d="M63.7530 3.8780
L63.7530 2.3540
" />
<path d="M63.7530 4.7280
L63.7530 3.8780
" />
<path d="M63.7530 9.1230
L62.9150 9.1230
" />
<path d="M63.7530 9.9730
L63.7530 9.1230
" />
<path d="M63.7530 11.4970
L63.7530 9.9730
" />
<path d="M63.7530 13.5420
L7.1360 13.5420
" />
<path d="M63.7530 13.5420
L63.7530 11.4970
" />
<path d="M8.8890 4.9950 A0.2540 0.2540 0.0 0 0 8.6350 4.7410" />
<path d="M8.6350 9.1100 A0.2540 0.2540 0.0 0 0 8.8890 8.8560" />
<path d="M61.4160 1.0710 A0.2540 0.2540 0.0 0 0 61.1620 1.3250" />
<path d="M61.4160 9.7830 A0.2540 0.2540 0.0 0 0 61.1620 10.0370" />
<path d="M61.1620 3.8140 A0.2540 0.2540 0.0 0 0 61.4160 4.0680" />
<path d="M61.1620 12.5260 A0.2540 0.2540 0.0 0 0 61.4160 12.7800" />
</g> 
</svg>
