<?xml version="1.0" standalone="no"?>
 <!DOCTYPE svg PUBLIC "-//W3C//DTD SVG 1.1//EN" 
 "http://www.w3.org/Graphics/SVG/1.1/DTD/svg11.dtd"> 
<svg
  xmlns:svg="http://www.w3.org/2000/svg"
  xmlns="http://www.w3.org/2000/svg"
  xmlns:xlink="http://www.w3.org/1999/xlink"
  version="1.1"
  width="10.2108mm" height="3.0480mm" viewBox="0.0000 0.0000 10.2108 3.0480">
<title>SVG Image created as outline.svg date 2025/04/04 10:06:06 </title>
  <desc>Image generated by PCBNEW </desc>
<g style="fill:#000000; fill-opacity:1.0000;stroke:#000000; stroke-opacity:1.0000;
stroke-linecap:round; stroke-linejoin:round;"
 transform="translate(0 0) scale(1 1)">
</g>
<g style="fill:none; 
stroke:#000000; stroke-width:0.0200; stroke-opacity:1; 
stroke-linecap:round; stroke-linejoin:round;">
<path d="M0.6210 0.5850
L0.6210 0.3850
" />
<path d="M0.7210 0.3850
L0.6210 0.3850
" />
<path d="M0.7210 0.3850
L0.7210 0.3870
" />
<path d="M0.7210 0.3850
L3.3150 0.3850
" />
<path d="M0.7210 0.3870
L0.7210 0.3910
" />
<path d="M0.7210 0.3910
L0.7210 0.3990
" />
<path d="M0.7210 0.3990
L0.7210 0.4100
" />
<path d="M0.7210 0.4100
L0.7210 0.4240
" />
<path d="M0.7210 0.4240
L0.7210 0.4410
" />
<path d="M0.7210 0.4410
L0.7210 0.4610
" />
<path d="M0.7210 0.4610
L0.7210 0.4830
" />
<path d="M0.7210 0.4830
L0.7210 0.5080
" />
<path d="M0.7210 0.5080
L0.7210 0.5350
" />
<path d="M0.7210 0.5350
L0.7210 0.5650
" />
<path d="M0.7210 0.5650
L0.7210 0.5960
" />
<path d="M0.7210 0.5850
L0.6210 0.5850
" />
<path d="M0.7210 0.5960
L0.7210 0.6300
" />
<path d="M0.7210 0.6300
L0.7210 0.6650
" />
<path d="M0.7210 0.6650
L0.7220 0.6410
" />
<path d="M0.7210 0.7190
L0.7210 1.0750
" />
<path d="M0.7210 0.7850
L0.7210 0.6650
" />
<path d="M0.7210 0.7850
L0.7210 1.2760
" />
<path d="M0.7210 1.2760
L0.7210 1.3020
" />
<path d="M0.7210 1.2760
L3.3150 1.2760
" />
<path d="M0.7210 1.3020
L0.7210 1.3260
" />
<path d="M0.7210 1.3260
L0.7210 1.3490
" />
<path d="M0.7210 1.3490
L0.7210 1.3700
" />
<path d="M0.7210 1.3700
L0.7210 1.3890
" />
<path d="M0.7210 1.3890
L0.7210 1.4070
" />
<path d="M0.7210 1.4070
L0.7210 1.4220
" />
<path d="M0.7210 1.4220
L0.7210 1.4360
" />
<path d="M0.7210 1.4360
L0.7210 1.4480
" />
<path d="M0.7210 1.4480
L0.7210 1.4580
" />
<path d="M0.7210 1.4580
L0.7210 1.4650
" />
<path d="M0.7210 1.4650
L0.7210 1.4710
" />
<path d="M0.7210 1.4710
L0.7210 1.4740
" />
<path d="M0.7210 1.4740
L0.7210 1.4750
" />
<path d="M0.7210 1.4750
L0.7210 1.5750
" />
<path d="M0.7210 1.4750
L3.3150 1.4750
" />
<path d="M0.7210 1.5750
L0.7210 1.5760
" />
<path d="M0.7210 1.5750
L3.3150 1.5750
" />
<path d="M0.7210 1.5760
L0.7210 1.5790
" />
<path d="M0.7210 1.5790
L0.7210 1.5850
" />
<path d="M0.7210 1.5850
L0.7210 1.5920
" />
<path d="M0.7210 1.5920
L0.7210 1.6020
" />
<path d="M0.7210 1.6020
L0.7210 1.6140
" />
<path d="M0.7210 1.6140
L0.7210 1.6280
" />
<path d="M0.7210 1.6280
L0.7210 1.6430
" />
<path d="M0.7210 1.6430
L0.7210 1.6610
" />
<path d="M0.7210 1.6610
L0.7210 1.6800
" />
<path d="M0.7210 1.6800
L0.7210 1.7010
" />
<path d="M0.7210 1.7010
L0.7210 1.7240
" />
<path d="M0.7210 1.7240
L0.7210 1.7480
" />
<path d="M0.7210 1.7480
L0.7210 1.7740
" />
<path d="M0.7210 1.7740
L0.7210 2.2650
" />
<path d="M0.7210 1.7740
L3.3150 1.7740
" />
<path d="M0.7210 1.9750
L0.7210 2.3310
" />
<path d="M0.7210 2.2650
L0.7220 2.2890
" />
<path d="M0.7210 2.3310
L0.7210 2.3720
" />
<path d="M0.7210 2.3720
L0.7210 2.4110
" />
<path d="M0.7210 2.3850
L0.7210 2.2650
" />
<path d="M0.7210 2.4110
L0.7210 2.4490
" />
<path d="M0.7210 2.4490
L0.7210 2.4840
" />
<path d="M0.7210 2.4840
L0.7210 2.5160
" />
<path d="M0.7210 2.5160
L0.7210 2.5460
" />
<path d="M0.7210 2.5460
L0.7210 2.5730
" />
<path d="M0.7210 2.5730
L0.7210 2.5970
" />
<path d="M0.7210 2.5970
L0.7210 2.6170
" />
<path d="M0.7210 2.6170
L0.7210 2.6340
" />
<path d="M0.7210 2.6340
L0.7210 2.6480
" />
<path d="M0.7210 2.6480
L0.7210 2.6570
" />
<path d="M0.7210 2.6570
L0.7210 2.6630
" />
<path d="M0.7210 2.6630
L0.7210 2.6650
" />
<path d="M0.7210 2.6650
L3.3150 2.6650
" />
<path d="M0.7220 0.6410
L0.7270 0.6180
" />
<path d="M0.7220 0.7610
L0.7210 0.7850
" />
<path d="M0.7220 2.2890
L0.7270 2.3120
" />
<path d="M0.7220 2.4090
L0.7210 2.3850
" />
<path d="M0.7270 0.6180
L0.7340 0.5950
" />
<path d="M0.7270 0.7380
L0.7220 0.7610
" />
<path d="M0.7270 2.3120
L0.7340 2.3350
" />
<path d="M0.7270 2.4320
L0.7220 2.4090
" />
<path d="M0.7340 0.5950
L0.7440 0.5730
" />
<path d="M0.7340 0.7150
L0.7270 0.7380
" />
<path d="M0.7340 2.3350
L0.7440 2.3570
" />
<path d="M0.7340 2.4550
L0.7270 2.4320
" />
<path d="M0.7440 0.5730
L0.7560 0.5520
" />
<path d="M0.7440 0.6930
L0.7340 0.7150
" />
<path d="M0.7440 2.3570
L0.7560 2.3780
" />
<path d="M0.7440 2.4770
L0.7340 2.4550
" />
<path d="M0.7560 0.5520
L0.7710 0.5310
" />
<path d="M0.7560 0.6720
L0.7440 0.6930
" />
<path d="M0.7560 2.3780
L0.7710 2.3980
" />
<path d="M0.7560 2.4980
L0.7440 2.4770
" />
<path d="M0.7710 0.5310
L0.7890 0.5130
" />
<path d="M0.7710 0.6520
L0.7560 0.6720
" />
<path d="M0.7710 2.3980
L0.7890 2.4170
" />
<path d="M0.7710 2.5190
L0.7560 2.4980
" />
<path d="M0.7890 0.5130
L0.8090 0.4950
" />
<path d="M0.7890 0.6330
L0.7710 0.6520
" />
<path d="M0.7890 2.4170
L0.8090 2.4340
" />
<path d="M0.7890 2.5370
L0.7710 2.5190
" />
<path d="M0.8090 0.4950
L0.8300 0.4790
" />
<path d="M0.8090 0.6160
L0.7890 0.6330
" />
<path d="M0.8090 2.4340
L0.8300 2.4500
" />
<path d="M0.8090 2.5550
L0.7890 2.5370
" />
<path d="M0.8300 0.4790
L0.8540 0.4650
" />
<path d="M0.8300 0.6000
L0.8090 0.6160
" />
<path d="M0.8300 2.4500
L0.8540 2.4640
" />
<path d="M0.8300 2.5710
L0.8090 2.5550
" />
<path d="M0.8540 0.4650
L0.8790 0.4530
" />
<path d="M0.8540 0.5860
L0.8300 0.6000
" />
<path d="M0.8540 2.4640
L0.8790 2.4760
" />
<path d="M0.8540 2.5850
L0.8300 2.5710
" />
<path d="M0.8790 0.4530
L0.9060 0.4430
" />
<path d="M0.8790 0.5740
L0.8540 0.5860
" />
<path d="M0.8790 2.4760
L0.9060 2.4860
" />
<path d="M0.8790 2.5970
L0.8540 2.5850
" />
<path d="M0.9060 0.4430
L0.9340 0.4350
" />
<path d="M0.9060 0.5640
L0.8790 0.5740
" />
<path d="M0.9060 2.4860
L0.9340 2.4940
" />
<path d="M0.9060 2.6070
L0.8790 2.5970
" />
<path d="M0.9340 0.4350
L0.9620 0.4300
" />
<path d="M0.9340 0.5560
L0.9060 0.5640
" />
<path d="M0.9340 2.4940
L0.9620 2.5000
" />
<path d="M0.9340 2.6150
L0.9060 2.6070
" />
<path d="M0.9620 0.4300
L0.9910 0.4260
" />
<path d="M0.9620 0.5500
L0.9340 0.5560
" />
<path d="M0.9620 2.5000
L0.9910 2.5030
" />
<path d="M0.9620 2.6200
L0.9340 2.6150
" />
<path d="M0.9910 0.4260
L1.0210 0.4250
" />
<path d="M0.9910 0.5470
L0.9620 0.5500
" />
<path d="M0.9910 2.5030
L1.0210 2.5050
" />
<path d="M0.9910 2.6240
L0.9620 2.6200
" />
<path d="M1.0210 0.4250
L3.0150 0.4250
" />
<path d="M1.0210 0.5450
L0.9910 0.5470
" />
<path d="M1.0210 0.5450
L1.0210 0.4250
" />
<path d="M1.0210 0.5450
L3.0150 0.5450
" />
<path d="M1.0210 2.5050
L3.0150 2.5050
" />
<path d="M1.0210 2.6250
L0.9910 2.6240
" />
<path d="M1.0210 2.6250
L1.0210 2.5050
" />
<path d="M1.0210 2.6250
L3.0150 2.6250
" />
<path d="M1.3650 1.5250
L1.3680 1.4750
" />
<path d="M1.3680 1.5750
L1.3650 1.5250
" />
<path d="M3.0150 0.4250
L3.0440 0.4260
" />
<path d="M3.0150 0.5450
L3.0150 0.4250
" />
<path d="M3.0150 2.5050
L3.0440 2.5030
" />
<path d="M3.0150 2.6250
L3.0150 2.5050
" />
<path d="M3.0440 0.4260
L3.0740 0.4300
" />
<path d="M3.0440 0.5470
L3.0150 0.5450
" />
<path d="M3.0440 2.5030
L3.0740 2.5000
" />
<path d="M3.0440 2.6240
L3.0150 2.6250
" />
<path d="M3.0740 0.4300
L3.1020 0.4350
" />
<path d="M3.0740 0.5500
L3.0440 0.5470
" />
<path d="M3.0740 2.5000
L3.1020 2.4940
" />
<path d="M3.0740 2.6200
L3.0440 2.6240
" />
<path d="M3.1020 0.4350
L3.1300 0.4430
" />
<path d="M3.1020 0.5560
L3.0740 0.5500
" />
<path d="M3.1020 2.4940
L3.1300 2.4860
" />
<path d="M3.1020 2.6150
L3.0740 2.6200
" />
<path d="M3.1300 0.4430
L3.1560 0.4530
" />
<path d="M3.1300 0.5640
L3.1020 0.5560
" />
<path d="M3.1300 2.4860
L3.1560 2.4760
" />
<path d="M3.1300 2.6070
L3.1020 2.6150
" />
<path d="M3.1420 1.4750
L3.1450 1.5250
" />
<path d="M3.1450 1.5250
L3.1420 1.5750
" />
<path d="M3.1560 0.4530
L3.1820 0.4650
" />
<path d="M3.1560 0.5740
L3.1300 0.5640
" />
<path d="M3.1560 2.4760
L3.1820 2.4640
" />
<path d="M3.1560 2.5970
L3.1300 2.6070
" />
<path d="M3.1820 0.4650
L3.2050 0.4790
" />
<path d="M3.1820 0.5860
L3.1560 0.5740
" />
<path d="M3.1820 2.4640
L3.2050 2.4500
" />
<path d="M3.1820 2.5850
L3.1560 2.5970
" />
<path d="M3.2050 0.4790
L3.2270 0.4950
" />
<path d="M3.2050 0.6000
L3.1820 0.5860
" />
<path d="M3.2050 2.4500
L3.2270 2.4340
" />
<path d="M3.2050 2.5710
L3.1820 2.5850
" />
<path d="M3.2270 0.4950
L3.2470 0.5130
" />
<path d="M3.2270 0.6160
L3.2050 0.6000
" />
<path d="M3.2270 2.4340
L3.2470 2.4170
" />
<path d="M3.2270 2.5550
L3.2050 2.5710
" />
<path d="M3.2470 0.5130
L3.2640 0.5310
" />
<path d="M3.2470 0.6330
L3.2270 0.6160
" />
<path d="M3.2470 2.4170
L3.2640 2.3980
" />
<path d="M3.2470 2.5370
L3.2270 2.5550
" />
<path d="M3.2640 0.5310
L3.2800 0.5520
" />
<path d="M3.2640 0.6520
L3.2470 0.6330
" />
<path d="M3.2640 2.3980
L3.2800 2.3780
" />
<path d="M3.2640 2.5190
L3.2470 2.5370
" />
<path d="M3.2800 0.5520
L3.2920 0.5730
" />
<path d="M3.2800 0.6720
L3.2640 0.6520
" />
<path d="M3.2800 2.3780
L3.2920 2.3570
" />
<path d="M3.2800 2.4980
L3.2640 2.5190
" />
<path d="M3.2920 0.5730
L3.3020 0.5950
" />
<path d="M3.2920 0.6930
L3.2800 0.6720
" />
<path d="M3.2920 2.3570
L3.3020 2.3350
" />
<path d="M3.2920 2.4770
L3.2800 2.4980
" />
<path d="M3.3020 0.5950
L3.3090 0.6180
" />
<path d="M3.3020 0.7150
L3.2920 0.6930
" />
<path d="M3.3020 2.3350
L3.3090 2.3120
" />
<path d="M3.3020 2.4550
L3.2920 2.4770
" />
<path d="M3.3090 0.6180
L3.3140 0.6410
" />
<path d="M3.3090 0.7380
L3.3020 0.7150
" />
<path d="M3.3090 2.3120
L3.3140 2.2890
" />
<path d="M3.3090 2.4320
L3.3020 2.4550
" />
<path d="M3.3140 0.6410
L3.3150 0.6650
" />
<path d="M3.3140 0.7610
L3.3090 0.7380
" />
<path d="M3.3140 2.2890
L3.3150 2.2650
" />
<path d="M3.3140 2.4090
L3.3090 2.4320
" />
<path d="M3.3150 0.3850
L3.3150 0.3870
" />
<path d="M3.3150 0.3870
L3.3150 0.3930
" />
<path d="M3.3150 0.3930
L3.3150 0.4020
" />
<path d="M3.3150 0.4020
L3.3150 0.4160
" />
<path d="M3.3150 0.4160
L3.3150 0.4330
" />
<path d="M3.3150 0.4330
L3.3150 0.4530
" />
<path d="M3.3150 0.4530
L3.3150 0.4770
" />
<path d="M3.3150 0.4770
L3.3150 0.5040
" />
<path d="M3.3150 0.5040
L3.3150 0.5340
" />
<path d="M3.3150 0.5340
L3.3150 0.5660
" />
<path d="M3.3150 0.5660
L3.3150 0.6010
" />
<path d="M3.3150 0.6010
L3.3150 0.6390
" />
<path d="M3.3150 0.6390
L3.3150 0.6780
" />
<path d="M3.3150 0.6780
L3.3150 0.7190
" />
<path d="M3.3150 0.7190
L3.3150 1.0750
" />
<path d="M3.3150 0.7850
L3.3140 0.7610
" />
<path d="M3.3150 0.7850
L3.3150 0.6650
" />
<path d="M3.3150 0.7850
L3.3150 1.2760
" />
<path d="M3.3150 1.2760
L3.3150 1.3020
" />
<path d="M3.3150 1.3020
L3.3150 1.3260
" />
<path d="M3.3150 1.3260
L3.3150 1.3490
" />
<path d="M3.3150 1.3490
L3.3150 1.3700
" />
<path d="M3.3150 1.3700
L3.3150 1.3890
" />
<path d="M3.3150 1.3890
L3.3150 1.4070
" />
<path d="M3.3150 1.4070
L3.3150 1.4220
" />
<path d="M3.3150 1.4220
L3.3150 1.4360
" />
<path d="M3.3150 1.4360
L3.3150 1.4480
" />
<path d="M3.3150 1.4480
L3.3150 1.4580
" />
<path d="M3.3150 1.4580
L3.3150 1.4650
" />
<path d="M3.3150 1.4650
L3.3150 1.4710
" />
<path d="M3.3150 1.4710
L3.3150 1.4740
" />
<path d="M3.3150 1.4740
L3.3150 1.4750
" />
<path d="M3.3150 1.5750
L3.3150 1.5760
" />
<path d="M3.3150 1.5760
L3.3150 1.5790
" />
<path d="M3.3150 1.5790
L3.3150 1.5850
" />
<path d="M3.3150 1.5850
L3.3150 1.5920
" />
<path d="M3.3150 1.5920
L3.3150 1.6020
" />
<path d="M3.3150 1.6020
L3.3150 1.6140
" />
<path d="M3.3150 1.6140
L3.3150 1.6280
" />
<path d="M3.3150 1.6280
L3.3150 1.6430
" />
<path d="M3.3150 1.6430
L3.3150 1.6610
" />
<path d="M3.3150 1.6610
L3.3150 1.6800
" />
<path d="M3.3150 1.6800
L3.3150 1.7010
" />
<path d="M3.3150 1.7010
L3.3150 1.7240
" />
<path d="M3.3150 1.7240
L3.3150 1.7480
" />
<path d="M3.3150 1.7480
L3.3150 1.7740
" />
<path d="M3.3150 1.7740
L3.3150 2.2650
" />
<path d="M3.3150 1.9750
L3.3150 2.3310
" />
<path d="M3.3150 2.1650
L3.3190 2.1320
" />
<path d="M3.3150 2.3310
L3.3150 2.3720
" />
<path d="M3.3150 2.3720
L3.3150 2.4110
" />
<path d="M3.3150 2.3850
L3.3140 2.4090
" />
<path d="M3.3150 2.3850
L3.3150 2.2650
" />
<path d="M3.3150 2.4110
L3.3150 2.4490
" />
<path d="M3.3150 2.4490
L3.3150 2.4840
" />
<path d="M3.3150 2.4840
L3.3150 2.5160
" />
<path d="M3.3150 2.5160
L3.3150 2.5460
" />
<path d="M3.3150 2.5460
L3.3150 2.5730
" />
<path d="M3.3150 2.5730
L3.3150 2.5970
" />
<path d="M3.3150 2.5970
L3.3150 2.6170
" />
<path d="M3.3150 2.6170
L3.3150 2.6340
" />
<path d="M3.3150 2.6340
L3.3150 2.6480
" />
<path d="M3.3150 2.6480
L3.3150 2.6570
" />
<path d="M3.3150 2.6570
L3.3150 2.6630
" />
<path d="M3.3150 2.6630
L3.3150 2.6650
" />
<path d="M3.3190 0.9180
L3.3150 0.8850
" />
<path d="M3.3190 2.1320
L3.3300 2.1000
" />
<path d="M3.3300 0.9500
L3.3190 0.9180
" />
<path d="M3.3300 2.1000
L3.3480 2.0710
" />
<path d="M3.3480 0.9790
L3.3300 0.9500
" />
<path d="M3.3480 2.0710
L3.3710 2.0480
" />
<path d="M3.3710 1.0020
L3.3480 0.9790
" />
<path d="M3.3710 2.0480
L3.4000 2.0300
" />
<path d="M3.4000 1.0200
L3.3710 1.0020
" />
<path d="M3.4000 2.0300
L3.4320 2.0190
" />
<path d="M3.4320 1.0310
L3.4000 1.0200
" />
<path d="M3.4320 2.0190
L3.4650 2.0150
" />
<path d="M3.4650 1.0350
L3.4320 1.0310
" />
<path d="M3.4650 2.0150
L3.4980 2.0190
" />
<path d="M3.4980 1.0310
L3.4650 1.0350
" />
<path d="M3.4980 2.0190
L3.5300 2.0300
" />
<path d="M3.5300 1.0200
L3.4980 1.0310
" />
<path d="M3.5300 2.0300
L3.5590 2.0480
" />
<path d="M3.5590 1.0020
L3.5300 1.0200
" />
<path d="M3.5590 2.0480
L3.5820 2.0710
" />
<path d="M3.5820 0.9790
L3.5590 1.0020
" />
<path d="M3.5820 2.0710
L3.6000 2.1000
" />
<path d="M3.6000 0.9500
L3.5820 0.9790
" />
<path d="M3.6000 2.1000
L3.6110 2.1320
" />
<path d="M3.6110 0.9180
L3.6000 0.9500
" />
<path d="M3.6110 2.1320
L3.6150 2.1650
" />
<path d="M3.6150 0.6850
L3.6150 0.8850
" />
<path d="M3.6150 0.8850
L3.6110 0.9180
" />
<path d="M3.6150 2.3650
L3.6150 2.1650
" />
<path d="M3.6150 2.3650
L3.6190 2.4120
" />
<path d="M3.6190 0.6380
L3.6150 0.6850
" />
<path d="M3.6190 2.4120
L3.6300 2.4580
" />
<path d="M3.6300 0.5920
L3.6190 0.6380
" />
<path d="M3.6300 2.4580
L3.6480 2.5010
" />
<path d="M3.6480 0.5490
L3.6300 0.5920
" />
<path d="M3.6480 2.5010
L3.6720 2.5410
" />
<path d="M3.6720 0.5090
L3.6480 0.5490
" />
<path d="M3.6720 2.5410
L3.7030 2.5770
" />
<path d="M3.7030 0.4730
L3.6720 0.5090
" />
<path d="M3.7030 2.5770
L3.7390 2.6080
" />
<path d="M3.7390 0.4420
L3.7030 0.4730
" />
<path d="M3.7390 2.6080
L3.7790 2.6320
" />
<path d="M3.7790 0.4180
L3.7390 0.4420
" />
<path d="M3.7790 2.6320
L3.8220 2.6500
" />
<path d="M3.8220 0.4000
L3.7790 0.4180
" />
<path d="M3.8220 2.6500
L3.8680 2.6610
" />
<path d="M3.8680 0.3890
L3.8220 0.4000
" />
<path d="M3.8680 2.6610
L3.9150 2.6650
" />
<path d="M3.9150 0.3850
L3.8680 0.3890
" />
<path d="M3.9150 2.6650
L6.3150 2.6650
" />
<path d="M6.3150 0.3850
L3.9150 0.3850
" />
<path d="M6.3150 2.6650
L6.3620 2.6610
" />
<path d="M6.3620 0.3890
L6.3150 0.3850
" />
<path d="M6.3620 2.6610
L6.4080 2.6500
" />
<path d="M6.4080 0.4000
L6.3620 0.3890
" />
<path d="M6.4080 2.6500
L6.4510 2.6320
" />
<path d="M6.4510 0.4180
L6.4080 0.4000
" />
<path d="M6.4510 2.6320
L6.4910 2.6080
" />
<path d="M6.4910 0.4420
L6.4510 0.4180
" />
<path d="M6.4910 2.6080
L6.5270 2.5770
" />
<path d="M6.5270 0.4730
L6.4910 0.4420
" />
<path d="M6.5270 2.5770
L6.5580 2.5410
" />
<path d="M6.5580 0.5090
L6.5270 0.4730
" />
<path d="M6.5580 2.5410
L6.5820 2.5010
" />
<path d="M6.5820 0.5490
L6.5580 0.5090
" />
<path d="M6.5820 2.5010
L6.6000 2.4580
" />
<path d="M6.6000 0.5920
L6.5820 0.5490
" />
<path d="M6.6000 2.4580
L6.6110 2.4120
" />
<path d="M6.6110 0.6380
L6.6000 0.5920
" />
<path d="M6.6110 2.4120
L6.6150 2.3650
" />
<path d="M6.6150 0.6850
L6.6110 0.6380
" />
<path d="M6.6150 0.6850
L6.6150 0.8850
" />
<path d="M6.6150 2.1650
L6.6190 2.1320
" />
<path d="M6.6150 2.3650
L6.6150 2.1650
" />
<path d="M6.6190 0.9180
L6.6150 0.8850
" />
<path d="M6.6190 2.1320
L6.6300 2.1000
" />
<path d="M6.6300 0.9500
L6.6190 0.9180
" />
<path d="M6.6300 2.1000
L6.6480 2.0710
" />
<path d="M6.6480 0.9790
L6.6300 0.9500
" />
<path d="M6.6480 2.0710
L6.6710 2.0480
" />
<path d="M6.6710 1.0020
L6.6480 0.9790
" />
<path d="M6.6710 2.0480
L6.7000 2.0300
" />
<path d="M6.7000 1.0200
L6.6710 1.0020
" />
<path d="M6.7000 2.0300
L6.7320 2.0190
" />
<path d="M6.7320 1.0310
L6.7000 1.0200
" />
<path d="M6.7320 2.0190
L6.7650 2.0150
" />
<path d="M6.7650 1.0350
L6.7320 1.0310
" />
<path d="M6.7650 2.0150
L6.7980 2.0190
" />
<path d="M6.7980 1.0310
L6.7650 1.0350
" />
<path d="M6.7980 2.0190
L6.8300 2.0300
" />
<path d="M6.8300 1.0200
L6.7980 1.0310
" />
<path d="M6.8300 2.0300
L6.8590 2.0480
" />
<path d="M6.8590 1.0020
L6.8300 1.0200
" />
<path d="M6.8590 2.0480
L6.8820 2.0710
" />
<path d="M6.8820 0.9790
L6.8590 1.0020
" />
<path d="M6.8820 2.0710
L6.9000 2.1000
" />
<path d="M6.9000 0.9500
L6.8820 0.9790
" />
<path d="M6.9000 2.1000
L6.9110 2.1320
" />
<path d="M6.9110 0.9180
L6.9000 0.9500
" />
<path d="M6.9110 2.1320
L6.9150 2.1650
" />
<path d="M6.9150 0.3850
L6.9150 0.3870
" />
<path d="M6.9150 0.3850
L9.5090 0.3850
" />
<path d="M6.9150 0.3870
L6.9150 0.3930
" />
<path d="M6.9150 0.3930
L6.9150 0.4020
" />
<path d="M6.9150 0.4020
L6.9150 0.4160
" />
<path d="M6.9150 0.4160
L6.9150 0.4330
" />
<path d="M6.9150 0.4330
L6.9150 0.4530
" />
<path d="M6.9150 0.4530
L6.9150 0.4770
" />
<path d="M6.9150 0.4770
L6.9150 0.5040
" />
<path d="M6.9150 0.5040
L6.9150 0.5340
" />
<path d="M6.9150 0.5340
L6.9150 0.5660
" />
<path d="M6.9150 0.5660
L6.9150 0.6010
" />
<path d="M6.9150 0.6010
L6.9150 0.6390
" />
<path d="M6.9150 0.6390
L6.9150 0.6780
" />
<path d="M6.9150 0.6650
L6.9150 0.7850
" />
<path d="M6.9150 0.6650
L6.9160 0.6410
" />
<path d="M6.9150 0.6780
L6.9150 0.7190
" />
<path d="M6.9150 0.7190
L6.9150 1.0750
" />
<path d="M6.9150 0.7850
L6.9150 1.2760
" />
<path d="M6.9150 0.8850
L6.9110 0.9180
" />
<path d="M6.9150 1.2760
L6.9150 1.3020
" />
<path d="M6.9150 1.2760
L9.5090 1.2760
" />
<path d="M6.9150 1.3020
L6.9150 1.3260
" />
<path d="M6.9150 1.3260
L6.9150 1.3490
" />
<path d="M6.9150 1.3490
L6.9150 1.3700
" />
<path d="M6.9150 1.3700
L6.9150 1.3890
" />
<path d="M6.9150 1.3890
L6.9150 1.4070
" />
<path d="M6.9150 1.4070
L6.9150 1.4220
" />
<path d="M6.9150 1.4220
L6.9150 1.4360
" />
<path d="M6.9150 1.4360
L6.9150 1.4480
" />
<path d="M6.9150 1.4480
L6.9150 1.4580
" />
<path d="M6.9150 1.4580
L6.9150 1.4650
" />
<path d="M6.9150 1.4650
L6.9150 1.4710
" />
<path d="M6.9150 1.4710
L6.9150 1.4740
" />
<path d="M6.9150 1.4740
L6.9150 1.4750
" />
<path d="M6.9150 1.4750
L9.5090 1.4750
" />
<path d="M6.9150 1.5750
L6.9150 1.5760
" />
<path d="M6.9150 1.5750
L9.5090 1.5750
" />
<path d="M6.9150 1.5760
L6.9150 1.5790
" />
<path d="M6.9150 1.5790
L6.9150 1.5850
" />
<path d="M6.9150 1.5850
L6.9150 1.5920
" />
<path d="M6.9150 1.5920
L6.9150 1.6020
" />
<path d="M6.9150 1.6020
L6.9150 1.6140
" />
<path d="M6.9150 1.6140
L6.9150 1.6280
" />
<path d="M6.9150 1.6280
L6.9150 1.6430
" />
<path d="M6.9150 1.6430
L6.9150 1.6610
" />
<path d="M6.9150 1.6610
L6.9150 1.6800
" />
<path d="M6.9150 1.6800
L6.9150 1.7010
" />
<path d="M6.9150 1.7010
L6.9150 1.7240
" />
<path d="M6.9150 1.7240
L6.9150 1.7480
" />
<path d="M6.9150 1.7480
L6.9150 1.7740
" />
<path d="M6.9150 1.7740
L6.9150 2.2650
" />
<path d="M6.9150 1.7740
L9.5090 1.7740
" />
<path d="M6.9150 1.9750
L6.9150 2.3310
" />
<path d="M6.9150 2.2650
L6.9150 2.3850
" />
<path d="M6.9150 2.2650
L6.9160 2.2890
" />
<path d="M6.9150 2.3310
L6.9150 2.3720
" />
<path d="M6.9150 2.3720
L6.9150 2.4110
" />
<path d="M6.9150 2.4110
L6.9150 2.4490
" />
<path d="M6.9150 2.4490
L6.9150 2.4840
" />
<path d="M6.9150 2.4840
L6.9150 2.5160
" />
<path d="M6.9150 2.5160
L6.9150 2.5460
" />
<path d="M6.9150 2.5460
L6.9150 2.5730
" />
<path d="M6.9150 2.5730
L6.9150 2.5970
" />
<path d="M6.9150 2.5970
L6.9150 2.6170
" />
<path d="M6.9150 2.6170
L6.9150 2.6340
" />
<path d="M6.9150 2.6340
L6.9150 2.6480
" />
<path d="M6.9150 2.6480
L6.9150 2.6570
" />
<path d="M6.9150 2.6570
L6.9150 2.6630
" />
<path d="M6.9150 2.6630
L6.9150 2.6650
" />
<path d="M6.9150 2.6650
L9.5090 2.6650
" />
<path d="M6.9160 0.6410
L6.9210 0.6180
" />
<path d="M6.9160 0.7610
L6.9150 0.7850
" />
<path d="M6.9160 2.2890
L6.9210 2.3120
" />
<path d="M6.9160 2.4090
L6.9150 2.3850
" />
<path d="M6.9210 0.6180
L6.9280 0.5950
" />
<path d="M6.9210 0.7380
L6.9160 0.7610
" />
<path d="M6.9210 2.3120
L6.9280 2.3350
" />
<path d="M6.9210 2.4320
L6.9160 2.4090
" />
<path d="M6.9280 0.5950
L6.9380 0.5730
" />
<path d="M6.9280 0.7150
L6.9210 0.7380
" />
<path d="M6.9280 2.3350
L6.9380 2.3570
" />
<path d="M6.9280 2.4550
L6.9210 2.4320
" />
<path d="M6.9380 0.5730
L6.9500 0.5520
" />
<path d="M6.9380 0.6930
L6.9280 0.7150
" />
<path d="M6.9380 2.3570
L6.9500 2.3780
" />
<path d="M6.9380 2.4770
L6.9280 2.4550
" />
<path d="M6.9500 0.5520
L6.9660 0.5310
" />
<path d="M6.9500 0.6720
L6.9380 0.6930
" />
<path d="M6.9500 2.3780
L6.9660 2.3980
" />
<path d="M6.9500 2.4980
L6.9380 2.4770
" />
<path d="M6.9660 0.5310
L6.9830 0.5130
" />
<path d="M6.9660 0.6520
L6.9500 0.6720
" />
<path d="M6.9660 2.3980
L6.9830 2.4170
" />
<path d="M6.9660 2.5190
L6.9500 2.4980
" />
<path d="M6.9830 0.5130
L7.0030 0.4950
" />
<path d="M6.9830 0.6330
L6.9660 0.6520
" />
<path d="M6.9830 2.4170
L7.0030 2.4340
" />
<path d="M6.9830 2.5370
L6.9660 2.5190
" />
<path d="M7.0030 0.4950
L7.0250 0.4790
" />
<path d="M7.0030 0.6160
L6.9830 0.6330
" />
<path d="M7.0030 2.4340
L7.0250 2.4500
" />
<path d="M7.0030 2.5550
L6.9830 2.5370
" />
<path d="M7.0250 0.4790
L7.0480 0.4650
" />
<path d="M7.0250 0.6000
L7.0030 0.6160
" />
<path d="M7.0250 2.4500
L7.0480 2.4640
" />
<path d="M7.0250 2.5710
L7.0030 2.5550
" />
<path d="M7.0480 0.4650
L7.0740 0.4530
" />
<path d="M7.0480 0.5860
L7.0250 0.6000
" />
<path d="M7.0480 2.4640
L7.0740 2.4760
" />
<path d="M7.0480 2.5850
L7.0250 2.5710
" />
<path d="M7.0740 0.4530
L7.1000 0.4430
" />
<path d="M7.0740 0.5740
L7.0480 0.5860
" />
<path d="M7.0740 2.4760
L7.1000 2.4860
" />
<path d="M7.0740 2.5970
L7.0480 2.5850
" />
<path d="M7.0850 1.5250
L7.0880 1.4750
" />
<path d="M7.0880 1.5750
L7.0850 1.5250
" />
<path d="M7.1000 0.4430
L7.1280 0.4350
" />
<path d="M7.1000 0.5640
L7.0740 0.5740
" />
<path d="M7.1000 2.4860
L7.1280 2.4940
" />
<path d="M7.1000 2.6070
L7.0740 2.5970
" />
<path d="M7.1280 0.4350
L7.1560 0.4300
" />
<path d="M7.1280 0.5560
L7.1000 0.5640
" />
<path d="M7.1280 2.4940
L7.1560 2.5000
" />
<path d="M7.1280 2.6150
L7.1000 2.6070
" />
<path d="M7.1560 0.4300
L7.1860 0.4260
" />
<path d="M7.1560 0.5500
L7.1280 0.5560
" />
<path d="M7.1560 2.5000
L7.1860 2.5030
" />
<path d="M7.1560 2.6200
L7.1280 2.6150
" />
<path d="M7.1860 0.4260
L7.2150 0.4250
" />
<path d="M7.1860 0.5470
L7.1560 0.5500
" />
<path d="M7.1860 2.5030
L7.2150 2.5050
" />
<path d="M7.1860 2.6240
L7.1560 2.6200
" />
<path d="M7.2150 0.4250
L7.2150 0.5450
" />
<path d="M7.2150 0.4250
L9.2090 0.4250
" />
<path d="M7.2150 0.5450
L7.1860 0.5470
" />
<path d="M7.2150 0.5450
L9.2090 0.5450
" />
<path d="M7.2150 2.5050
L7.2150 2.6250
" />
<path d="M7.2150 2.5050
L9.2090 2.5050
" />
<path d="M7.2150 2.6250
L7.1860 2.6240
" />
<path d="M7.2150 2.6250
L9.2090 2.6250
" />
<path d="M8.8620 1.4750
L8.8650 1.5250
" />
<path d="M8.8650 1.5250
L8.8620 1.5750
" />
<path d="M9.2090 0.4250
L9.2090 0.5450
" />
<path d="M9.2090 0.4250
L9.2390 0.4260
" />
<path d="M9.2090 2.5050
L9.2090 2.6250
" />
<path d="M9.2090 2.5050
L9.2390 2.5030
" />
<path d="M9.2390 0.4260
L9.2680 0.4300
" />
<path d="M9.2390 0.5470
L9.2090 0.5450
" />
<path d="M9.2390 2.5030
L9.2680 2.5000
" />
<path d="M9.2390 2.6240
L9.2090 2.6250
" />
<path d="M9.2680 0.4300
L9.2960 0.4350
" />
<path d="M9.2680 0.5500
L9.2390 0.5470
" />
<path d="M9.2680 2.5000
L9.2960 2.4940
" />
<path d="M9.2680 2.6200
L9.2390 2.6240
" />
<path d="M9.2960 0.4350
L9.3240 0.4430
" />
<path d="M9.2960 0.5560
L9.2680 0.5500
" />
<path d="M9.2960 2.4940
L9.3240 2.4860
" />
<path d="M9.2960 2.6150
L9.2680 2.6200
" />
<path d="M9.3240 0.4430
L9.3510 0.4530
" />
<path d="M9.3240 0.5640
L9.2960 0.5560
" />
<path d="M9.3240 2.4860
L9.3510 2.4760
" />
<path d="M9.3240 2.6070
L9.2960 2.6150
" />
<path d="M9.3510 0.4530
L9.3760 0.4650
" />
<path d="M9.3510 0.5740
L9.3240 0.5640
" />
<path d="M9.3510 2.4760
L9.3760 2.4640
" />
<path d="M9.3510 2.5970
L9.3240 2.6070
" />
<path d="M9.3760 0.4650
L9.4000 0.4790
" />
<path d="M9.3760 0.5860
L9.3510 0.5740
" />
<path d="M9.3760 2.4640
L9.4000 2.4500
" />
<path d="M9.3760 2.5850
L9.3510 2.5970
" />
<path d="M9.4000 0.4790
L9.4210 0.4950
" />
<path d="M9.4000 0.6000
L9.3760 0.5860
" />
<path d="M9.4000 2.4500
L9.4210 2.4340
" />
<path d="M9.4000 2.5710
L9.3760 2.5850
" />
<path d="M9.4210 0.4950
L9.4410 0.5130
" />
<path d="M9.4210 0.6160
L9.4000 0.6000
" />
<path d="M9.4210 2.4340
L9.4410 2.4170
" />
<path d="M9.4210 2.5550
L9.4000 2.5710
" />
<path d="M9.4410 0.5130
L9.4590 0.5310
" />
<path d="M9.4410 0.6330
L9.4210 0.6160
" />
<path d="M9.4410 2.4170
L9.4590 2.3980
" />
<path d="M9.4410 2.5370
L9.4210 2.5550
" />
<path d="M9.4590 0.5310
L9.4740 0.5520
" />
<path d="M9.4590 0.6520
L9.4410 0.6330
" />
<path d="M9.4590 2.3980
L9.4740 2.3780
" />
<path d="M9.4590 2.5190
L9.4410 2.5370
" />
<path d="M9.4740 0.5520
L9.4860 0.5730
" />
<path d="M9.4740 0.6720
L9.4590 0.6520
" />
<path d="M9.4740 2.3780
L9.4860 2.3570
" />
<path d="M9.4740 2.4980
L9.4590 2.5190
" />
<path d="M9.4860 0.5730
L9.4960 0.5950
" />
<path d="M9.4860 0.6930
L9.4740 0.6720
" />
<path d="M9.4860 2.3570
L9.4960 2.3350
" />
<path d="M9.4860 2.4770
L9.4740 2.4980
" />
<path d="M9.4960 0.5950
L9.5030 0.6180
" />
<path d="M9.4960 0.7150
L9.4860 0.6930
" />
<path d="M9.4960 2.3350
L9.5030 2.3120
" />
<path d="M9.4960 2.4550
L9.4860 2.4770
" />
<path d="M9.5030 0.6180
L9.5080 0.6410
" />
<path d="M9.5030 0.7380
L9.4960 0.7150
" />
<path d="M9.5030 2.3120
L9.5080 2.2890
" />
<path d="M9.5030 2.4320
L9.4960 2.4550
" />
<path d="M9.5080 0.6410
L9.5090 0.6650
" />
<path d="M9.5080 0.7610
L9.5030 0.7380
" />
<path d="M9.5080 2.2890
L9.5090 2.2650
" />
<path d="M9.5080 2.4090
L9.5030 2.4320
" />
<path d="M9.5090 0.3850
L9.5090 0.3870
" />
<path d="M9.5090 0.3850
L9.6090 0.3850
" />
<path d="M9.5090 0.3870
L9.5090 0.3910
" />
<path d="M9.5090 0.3910
L9.5090 0.3990
" />
<path d="M9.5090 0.3990
L9.5090 0.4100
" />
<path d="M9.5090 0.4100
L9.5090 0.4240
" />
<path d="M9.5090 0.4240
L9.5090 0.4410
" />
<path d="M9.5090 0.4410
L9.5090 0.4610
" />
<path d="M9.5090 0.4610
L9.5090 0.4830
" />
<path d="M9.5090 0.4830
L9.5090 0.5080
" />
<path d="M9.5090 0.5080
L9.5090 0.5350
" />
<path d="M9.5090 0.5350
L9.5090 0.5650
" />
<path d="M9.5090 0.5650
L9.5090 0.5960
" />
<path d="M9.5090 0.5850
L9.6090 0.5850
" />
<path d="M9.5090 0.5960
L9.5090 0.6300
" />
<path d="M9.5090 0.6300
L9.5090 0.6650
" />
<path d="M9.5090 0.6650
L9.5090 0.7850
" />
<path d="M9.5090 0.7190
L9.5090 1.0750
" />
<path d="M9.5090 0.7850
L9.5080 0.7610
" />
<path d="M9.5090 0.7850
L9.5090 1.2760
" />
<path d="M9.5090 1.2760
L9.5090 1.3020
" />
<path d="M9.5090 1.3020
L9.5090 1.3260
" />
<path d="M9.5090 1.3260
L9.5090 1.3490
" />
<path d="M9.5090 1.3490
L9.5090 1.3700
" />
<path d="M9.5090 1.3700
L9.5090 1.3890
" />
<path d="M9.5090 1.3890
L9.5090 1.4070
" />
<path d="M9.5090 1.4070
L9.5090 1.4220
" />
<path d="M9.5090 1.4220
L9.5090 1.4360
" />
<path d="M9.5090 1.4360
L9.5090 1.4480
" />
<path d="M9.5090 1.4480
L9.5090 1.4580
" />
<path d="M9.5090 1.4580
L9.5090 1.4650
" />
<path d="M9.5090 1.4650
L9.5090 1.4710
" />
<path d="M9.5090 1.4710
L9.5090 1.4740
" />
<path d="M9.5090 1.4740
L9.5090 1.4750
" />
<path d="M9.5090 1.4750
L9.5090 1.5750
" />
<path d="M9.5090 1.5750
L9.5090 1.5760
" />
<path d="M9.5090 1.5760
L9.5090 1.5790
" />
<path d="M9.5090 1.5790
L9.5090 1.5850
" />
<path d="M9.5090 1.5850
L9.5090 1.5920
" />
<path d="M9.5090 1.5920
L9.5090 1.6020
" />
<path d="M9.5090 1.6020
L9.5090 1.6140
" />
<path d="M9.5090 1.6140
L9.5090 1.6280
" />
<path d="M9.5090 1.6280
L9.5090 1.6430
" />
<path d="M9.5090 1.6430
L9.5090 1.6610
" />
<path d="M9.5090 1.6610
L9.5090 1.6800
" />
<path d="M9.5090 1.6800
L9.5090 1.7010
" />
<path d="M9.5090 1.7010
L9.5090 1.7240
" />
<path d="M9.5090 1.7240
L9.5090 1.7480
" />
<path d="M9.5090 1.7480
L9.5090 1.7740
" />
<path d="M9.5090 1.7740
L9.5090 2.2650
" />
<path d="M9.5090 1.9750
L9.5090 2.3310
" />
<path d="M9.5090 2.2650
L9.5090 2.3850
" />
<path d="M9.5090 2.3310
L9.5090 2.3720
" />
<path d="M9.5090 2.3720
L9.5090 2.4110
" />
<path d="M9.5090 2.3850
L9.5080 2.4090
" />
<path d="M9.5090 2.4110
L9.5090 2.4490
" />
<path d="M9.5090 2.4490
L9.5090 2.4840
" />
<path d="M9.5090 2.4840
L9.5090 2.5160
" />
<path d="M9.5090 2.5160
L9.5090 2.5460
" />
<path d="M9.5090 2.5460
L9.5090 2.5730
" />
<path d="M9.5090 2.5730
L9.5090 2.5970
" />
<path d="M9.5090 2.5970
L9.5090 2.6170
" />
<path d="M9.5090 2.6170
L9.5090 2.6340
" />
<path d="M9.5090 2.6340
L9.5090 2.6480
" />
<path d="M9.5090 2.6480
L9.5090 2.6570
" />
<path d="M9.5090 2.6570
L9.5090 2.6630
" />
<path d="M9.5090 2.6630
L9.5090 2.6650
" />
<path d="M9.6090 0.3850
L9.6090 0.5850
" />
</g> 
</svg>
