<?xml version="1.0" standalone="no"?>
 <!DOCTYPE svg PUBLIC "-//W3C//DTD SVG 1.1//EN" 
 "http://www.w3.org/Graphics/SVG/1.1/DTD/svg11.dtd"> 
<svg
  xmlns:svg="http://www.w3.org/2000/svg"
  xmlns="http://www.w3.org/2000/svg"
  xmlns:xlink="http://www.w3.org/1999/xlink"
  xmlns:inkscape="http://www.inkscape.org/namespaces/inkscape"
  version="1.1"
  width="10.744200mm" height="6.553200mm" viewBox="0.000000 0.000000 10.744200 6.553200">
<title>SVG Image created as outline.svg date 2026-07-09T08:34:09 </title>
  <desc>Image generated by PCBNEW </desc>
<g style="fill:#000000; fill-opacity:1.000000;stroke:#000000; stroke-opacity:1.000000;
stroke-linecap:round; stroke-linejoin:round;"
 transform="translate(0 0) scale(1 1)">
</g>
<g style="fill:none; 
stroke:#000000; stroke-width:0.020000; stroke-opacity:1; 
stroke-linecap:round; stroke-linejoin:round;">
<path d="M0.275000 0.445000
L0.275000 4.285000
" />
<path d="M0.275000 4.285000
L0.275000 4.298000
" />
<path d="M0.275000 4.285000
L1.565000 4.285000
" />
</g>
<g style="fill:#000000; fill-opacity:1.000000; stroke:none;">
<circle cx="0.275000" cy="4.298000" r="0.010000" /> 
</g>
<g style="fill:none; 
stroke:#000000; stroke-width:0.020000; stroke-opacity:1; 
stroke-linecap:round; stroke-linejoin:round;">
<path d="M0.275000 4.298000
L0.275000 4.335000
" />
</g>
<g style="fill:#000000; fill-opacity:1.000000; stroke:none;">
<circle cx="0.275000" cy="4.335000" r="0.010000" /> 
</g>
<g style="fill:none; 
stroke:#000000; stroke-width:0.020000; stroke-opacity:1; 
stroke-linecap:round; stroke-linejoin:round;">
<path d="M0.275000 4.335000
L0.275000 4.394000
" />
</g>
<g style="fill:#000000; fill-opacity:1.000000; stroke:none;">
<circle cx="0.275000" cy="4.394000" r="0.010000" /> 
</g>
<g style="fill:none; 
stroke:#000000; stroke-width:0.020000; stroke-opacity:1; 
stroke-linecap:round; stroke-linejoin:round;">
<path d="M0.275000 4.394000
L0.275000 4.473000
" />
</g>
<g style="fill:#000000; fill-opacity:1.000000; stroke:none;">
<circle cx="0.275000" cy="4.473000" r="0.010000" /> 
</g>
<g style="fill:none; 
stroke:#000000; stroke-width:0.020000; stroke-opacity:1; 
stroke-linecap:round; stroke-linejoin:round;">
<path d="M0.275000 4.473000
L0.275000 4.568000
" />
</g>
<g style="fill:#000000; fill-opacity:1.000000; stroke:none;">
<circle cx="0.275000" cy="4.568000" r="0.010000" /> 
</g>
<g style="fill:none; 
stroke:#000000; stroke-width:0.020000; stroke-opacity:1; 
stroke-linecap:round; stroke-linejoin:round;">
<path d="M0.275000 4.568000
L0.275000 4.785000
" />
</g>
<g style="fill:#000000; fill-opacity:1.000000; stroke:none;">
<circle cx="0.275000" cy="4.785000" r="0.010000" /> 
</g>
<g style="fill:none; 
stroke:#000000; stroke-width:0.020000; stroke-opacity:1; 
stroke-linecap:round; stroke-linejoin:round;">
<path d="M0.275000 4.785000
L0.275000 4.896000
" />
</g>
<g style="fill:#000000; fill-opacity:1.000000; stroke:none;">
<circle cx="0.275000" cy="4.896000" r="0.010000" /> 
</g>
<g style="fill:none; 
stroke:#000000; stroke-width:0.020000; stroke-opacity:1; 
stroke-linecap:round; stroke-linejoin:round;">
<path d="M0.275000 4.896000
L0.275000 5.002000
" />
</g>
<g style="fill:#000000; fill-opacity:1.000000; stroke:none;">
<circle cx="0.275000" cy="5.002000" r="0.010000" /> 
</g>
<g style="fill:none; 
stroke:#000000; stroke-width:0.020000; stroke-opacity:1; 
stroke-linecap:round; stroke-linejoin:round;">
<path d="M0.275000 5.002000
L0.275000 5.097000
" />
</g>
<g style="fill:#000000; fill-opacity:1.000000; stroke:none;">
<circle cx="0.275000" cy="5.097000" r="0.010000" /> 
</g>
<g style="fill:none; 
stroke:#000000; stroke-width:0.020000; stroke-opacity:1; 
stroke-linecap:round; stroke-linejoin:round;">
<path d="M0.275000 5.097000
L0.275000 5.176000
" />
</g>
<g style="fill:#000000; fill-opacity:1.000000; stroke:none;">
<circle cx="0.275000" cy="5.176000" r="0.010000" /> 
</g>
<g style="fill:none; 
stroke:#000000; stroke-width:0.020000; stroke-opacity:1; 
stroke-linecap:round; stroke-linejoin:round;">
<path d="M0.275000 5.176000
L0.275000 5.235000
" />
</g>
<g style="fill:#000000; fill-opacity:1.000000; stroke:none;">
<circle cx="0.275000" cy="5.235000" r="0.010000" /> 
</g>
<g style="fill:none; 
stroke:#000000; stroke-width:0.020000; stroke-opacity:1; 
stroke-linecap:round; stroke-linejoin:round;">
<path d="M0.275000 5.235000
L0.275000 5.272000
" />
</g>
<g style="fill:#000000; fill-opacity:1.000000; stroke:none;">
<circle cx="0.275000" cy="5.272000" r="0.010000" /> 
</g>
<g style="fill:none; 
stroke:#000000; stroke-width:0.020000; stroke-opacity:1; 
stroke-linecap:round; stroke-linejoin:round;">
<path d="M0.275000 5.272000
L0.275000 5.285000
" />
<path d="M0.275000 5.285000
L0.275000 6.285000
" />
<path d="M0.275000 5.285000
L1.565000 5.285000
" />
<path d="M0.275000 6.285000
L1.565000 6.285000
" />
<path d="M1.245000 2.665000
L1.395000 2.815000
" />
<path d="M1.245000 2.665000
L1.885000 2.665000
" />
<path d="M1.245000 3.305000
L1.245000 2.665000
" />
<path d="M1.245000 3.305000
L1.395000 3.155000
" />
<path d="M1.395000 2.815000
L1.735000 2.815000
" />
<path d="M1.395000 3.155000
L1.395000 2.815000
" />
<path d="M1.565000 4.135000
L1.565000 5.285000
" />
<path d="M1.565000 4.135000
L6.645000 4.135000
" />
<path d="M1.565000 5.285000
L1.565000 6.285000
" />
<path d="M1.565000 5.285000
L6.645000 5.285000
" />
<path d="M1.565000 6.285000
L6.645000 6.285000
" />
<path d="M1.735000 2.815000
L1.735000 3.155000
" />
<path d="M1.735000 3.155000
L1.395000 3.155000
" />
<path d="M1.885000 2.665000
L1.735000 2.815000
" />
<path d="M1.885000 2.665000
L1.885000 3.305000
" />
<path d="M1.885000 3.305000
L1.245000 3.305000
" />
<path d="M1.885000 3.305000
L1.735000 3.155000
" />
<path d="M3.785000 2.665000
L3.935000 2.815000
" />
<path d="M3.785000 2.665000
L4.425000 2.665000
" />
<path d="M3.785000 3.305000
L3.785000 2.665000
" />
<path d="M3.785000 3.305000
L3.935000 3.155000
" />
<path d="M3.935000 2.815000
L4.275000 2.815000
" />
<path d="M3.935000 3.155000
L3.935000 2.815000
" />
<path d="M4.275000 2.815000
L4.275000 3.155000
" />
<path d="M4.275000 3.155000
L3.935000 3.155000
" />
<path d="M4.425000 2.665000
L4.275000 2.815000
" />
<path d="M4.425000 2.665000
L4.425000 3.305000
" />
<path d="M4.425000 3.305000
L3.785000 3.305000
" />
<path d="M4.425000 3.305000
L4.275000 3.155000
" />
<path d="M6.325000 2.665000
L6.475000 2.815000
" />
<path d="M6.325000 2.665000
L6.965000 2.665000
" />
<path d="M6.325000 3.305000
L6.325000 2.665000
" />
<path d="M6.325000 3.305000
L6.475000 3.155000
" />
<path d="M6.475000 2.815000
L6.815000 2.815000
" />
<path d="M6.475000 3.155000
L6.475000 2.815000
" />
<path d="M6.645000 4.135000
L6.645000 5.285000
" />
<path d="M6.645000 4.285000
L10.475000 4.285000
" />
<path d="M6.645000 5.285000
L10.475000 5.285000
" />
<path d="M6.645000 6.285000
L6.645000 5.285000
" />
<path d="M6.645000 6.285000
L10.475000 6.285000
" />
<path d="M6.815000 2.815000
L6.815000 3.155000
" />
<path d="M6.815000 3.155000
L6.475000 3.155000
" />
<path d="M6.965000 2.665000
L6.815000 2.815000
" />
<path d="M6.965000 2.665000
L6.965000 3.305000
" />
<path d="M6.965000 3.305000
L6.325000 3.305000
" />
<path d="M6.965000 3.305000
L6.815000 3.155000
" />
<path d="M8.865000 2.665000
L9.015000 2.815000
" />
<path d="M8.865000 2.665000
L9.505000 2.665000
" />
<path d="M8.865000 3.305000
L8.865000 2.665000
" />
<path d="M8.865000 3.305000
L9.015000 3.155000
" />
<path d="M9.015000 2.815000
L9.355000 2.815000
" />
<path d="M9.015000 3.155000
L9.015000 2.815000
" />
<path d="M9.355000 2.815000
L9.355000 3.155000
" />
<path d="M9.355000 3.155000
L9.015000 3.155000
" />
<path d="M9.505000 2.665000
L9.355000 2.815000
" />
<path d="M9.505000 2.665000
L9.505000 3.305000
" />
<path d="M9.505000 3.305000
L8.865000 3.305000
" />
<path d="M9.505000 3.305000
L9.355000 3.155000
" />
<path d="M10.475000 0.445000
L0.275000 0.445000
" />
<path d="M10.475000 4.285000
L10.475000 0.445000
" />
<path d="M10.475000 4.285000
L10.475000 4.298000
" />
</g>
<g style="fill:#000000; fill-opacity:1.000000; stroke:none;">
<circle cx="10.475000" cy="4.298000" r="0.010000" /> 
</g>
<g style="fill:none; 
stroke:#000000; stroke-width:0.020000; stroke-opacity:1; 
stroke-linecap:round; stroke-linejoin:round;">
<path d="M10.475000 4.298000
L10.475000 4.335000
" />
</g>
<g style="fill:#000000; fill-opacity:1.000000; stroke:none;">
<circle cx="10.475000" cy="4.335000" r="0.010000" /> 
</g>
<g style="fill:none; 
stroke:#000000; stroke-width:0.020000; stroke-opacity:1; 
stroke-linecap:round; stroke-linejoin:round;">
<path d="M10.475000 4.335000
L10.475000 4.394000
" />
</g>
<g style="fill:#000000; fill-opacity:1.000000; stroke:none;">
<circle cx="10.475000" cy="4.394000" r="0.010000" /> 
</g>
<g style="fill:none; 
stroke:#000000; stroke-width:0.020000; stroke-opacity:1; 
stroke-linecap:round; stroke-linejoin:round;">
<path d="M10.475000 4.394000
L10.475000 4.473000
" />
</g>
<g style="fill:#000000; fill-opacity:1.000000; stroke:none;">
<circle cx="10.475000" cy="4.473000" r="0.010000" /> 
</g>
<g style="fill:none; 
stroke:#000000; stroke-width:0.020000; stroke-opacity:1; 
stroke-linecap:round; stroke-linejoin:round;">
<path d="M10.475000 4.473000
L10.475000 4.568000
" />
</g>
<g style="fill:#000000; fill-opacity:1.000000; stroke:none;">
<circle cx="10.475000" cy="4.568000" r="0.010000" /> 
</g>
<g style="fill:none; 
stroke:#000000; stroke-width:0.020000; stroke-opacity:1; 
stroke-linecap:round; stroke-linejoin:round;">
<path d="M10.475000 4.568000
L10.475000 4.785000
" />
</g>
<g style="fill:#000000; fill-opacity:1.000000; stroke:none;">
<circle cx="10.475000" cy="4.785000" r="0.010000" /> 
</g>
<g style="fill:none; 
stroke:#000000; stroke-width:0.020000; stroke-opacity:1; 
stroke-linecap:round; stroke-linejoin:round;">
<path d="M10.475000 4.785000
L10.475000 4.896000
" />
</g>
<g style="fill:#000000; fill-opacity:1.000000; stroke:none;">
<circle cx="10.475000" cy="4.896000" r="0.010000" /> 
</g>
<g style="fill:none; 
stroke:#000000; stroke-width:0.020000; stroke-opacity:1; 
stroke-linecap:round; stroke-linejoin:round;">
<path d="M10.475000 4.896000
L10.475000 5.002000
" />
</g>
<g style="fill:#000000; fill-opacity:1.000000; stroke:none;">
<circle cx="10.475000" cy="5.002000" r="0.010000" /> 
</g>
<g style="fill:none; 
stroke:#000000; stroke-width:0.020000; stroke-opacity:1; 
stroke-linecap:round; stroke-linejoin:round;">
<path d="M10.475000 5.002000
L10.475000 5.097000
" />
</g>
<g style="fill:#000000; fill-opacity:1.000000; stroke:none;">
<circle cx="10.475000" cy="5.097000" r="0.010000" /> 
</g>
<g style="fill:none; 
stroke:#000000; stroke-width:0.020000; stroke-opacity:1; 
stroke-linecap:round; stroke-linejoin:round;">
<path d="M10.475000 5.097000
L10.475000 5.176000
" />
</g>
<g style="fill:#000000; fill-opacity:1.000000; stroke:none;">
<circle cx="10.475000" cy="5.176000" r="0.010000" /> 
</g>
<g style="fill:none; 
stroke:#000000; stroke-width:0.020000; stroke-opacity:1; 
stroke-linecap:round; stroke-linejoin:round;">
<path d="M10.475000 5.176000
L10.475000 5.235000
" />
</g>
<g style="fill:#000000; fill-opacity:1.000000; stroke:none;">
<circle cx="10.475000" cy="5.235000" r="0.010000" /> 
</g>
<g style="fill:none; 
stroke:#000000; stroke-width:0.020000; stroke-opacity:1; 
stroke-linecap:round; stroke-linejoin:round;">
<path d="M10.475000 5.235000
L10.475000 5.272000
" />
</g>
<g style="fill:#000000; fill-opacity:1.000000; stroke:none;">
<circle cx="10.475000" cy="5.272000" r="0.010000" /> 
</g>
<g style="fill:none; 
stroke:#000000; stroke-width:0.020000; stroke-opacity:1; 
stroke-linecap:round; stroke-linejoin:round;">
<path d="M10.475000 5.272000
L10.475000 5.285000
" />
<path d="M10.475000 6.285000
L10.475000 5.285000
" />
</g> 
</svg>
