<?xml version="1.0" standalone="no"?>
 <!DOCTYPE svg PUBLIC "-//W3C//DTD SVG 1.1//EN" 
 "http://www.w3.org/Graphics/SVG/1.1/DTD/svg11.dtd"> 
<svg
  xmlns:svg="http://www.w3.org/2000/svg"
  xmlns="http://www.w3.org/2000/svg"
  xmlns:xlink="http://www.w3.org/1999/xlink"
  version="1.1"
  width="16.8402mm" height="16.8402mm" viewBox="0.0000 0.0000 16.8402 16.8402">
<title>SVG Image created as outline.svg date 2025/04/04 10:06:25 </title>
  <desc>Image generated by PCBNEW </desc>
<g style="fill:#000000; fill-opacity:1.0000;stroke:#000000; stroke-opacity:1.0000;
stroke-linecap:round; stroke-linejoin:round;"
 transform="translate(0 0) scale(1 1)">
</g>
<g style="fill:none; 
stroke:#000000; stroke-width:0.0200; stroke-opacity:1; 
stroke-linecap:round; stroke-linejoin:round;">
<path d="M0.4240 0.4240
L0.4240 16.4260
" />
<path d="M0.4240 16.4260
L16.4260 16.4260
" />
<path d="M1.6240 2.0030
L1.6240 2.0240
" />
</g>
<g style="fill:#000000; fill-opacity:1.0000; stroke:none;">
<circle cx="1.6240" cy="2.0240" r="0.0100" /> 
</g>
<g style="fill:none; 
stroke:#000000; stroke-width:0.0200; stroke-opacity:1; 
stroke-linecap:round; stroke-linejoin:round;">
<path d="M1.6240 2.0240
L1.6240 2.0450
" />
<path d="M1.6240 2.0450
L1.6260 2.0650
" />
<path d="M1.6260 1.9830
L1.6240 2.0030
" />
<path d="M1.6260 2.0650
L1.6290 2.0850
" />
<path d="M1.6290 1.9630
L1.6260 1.9830
" />
<path d="M1.6290 2.0850
L1.6320 2.1050
" />
<path d="M1.6320 1.9430
L1.6290 1.9630
" />
<path d="M1.6320 2.1050
L1.6370 2.1240
" />
<path d="M1.6370 1.9240
L1.6320 1.9430
" />
<path d="M1.6370 2.1240
L1.6420 2.1430
" />
<path d="M1.6420 1.9050
L1.6370 1.9240
" />
<path d="M1.6420 2.1430
L1.6480 2.1620
" />
<path d="M1.6480 1.8860
L1.6420 1.9050
" />
<path d="M1.6480 2.1620
L1.6550 2.1800
" />
<path d="M1.6550 1.8680
L1.6480 1.8860
" />
<path d="M1.6550 2.1800
L1.6630 2.1970
" />
<path d="M1.6630 1.8510
L1.6550 1.8680
" />
<path d="M1.6630 2.1970
L1.6720 2.2150
" />
<path d="M1.6720 1.8330
L1.6630 1.8510
" />
<path d="M1.6720 2.2150
L1.6820 2.2310
" />
<path d="M1.6820 1.8170
L1.6720 1.8330
" />
<path d="M1.6820 2.2310
L1.6920 2.2480
" />
<path d="M1.6920 1.8000
L1.6820 1.8170
" />
<path d="M1.6920 2.2480
L1.7030 2.2630
" />
<path d="M1.7030 1.7850
L1.6920 1.8000
" />
<path d="M1.7030 2.2630
L1.7150 2.2780
" />
<path d="M1.7150 1.7700
L1.7030 1.7850
" />
<path d="M1.7150 2.2780
L1.7280 2.2930
" />
<path d="M1.7280 1.7550
L1.7150 1.7700
" />
<path d="M1.7280 2.2930
L1.7410 2.3070
" />
<path d="M1.7410 1.7410
L1.7280 1.7550
" />
<path d="M1.7410 2.3070
L1.7550 2.3200
" />
<path d="M1.7550 1.7280
L1.7410 1.7410
" />
<path d="M1.7550 2.3200
L1.7700 2.3330
" />
<path d="M1.7700 1.7150
L1.7550 1.7280
" />
<path d="M1.7700 2.3330
L1.7850 2.3450
" />
<path d="M1.7850 1.7030
L1.7700 1.7150
" />
<path d="M1.7850 2.3450
L1.8000 2.3560
" />
<path d="M1.8000 1.6920
L1.7850 1.7030
" />
<path d="M1.8000 2.3560
L1.8170 2.3660
" />
<path d="M1.8170 1.6820
L1.8000 1.6920
" />
<path d="M1.8170 2.3660
L1.8330 2.3760
" />
<path d="M1.8330 1.6720
L1.8170 1.6820
" />
<path d="M1.8330 2.3760
L1.8510 2.3850
" />
<path d="M1.8510 1.6630
L1.8330 1.6720
" />
<path d="M1.8510 2.3850
L1.8680 2.3930
" />
<path d="M1.8680 1.6550
L1.8510 1.6630
" />
<path d="M1.8680 2.3930
L1.8860 2.4000
" />
<path d="M1.8860 1.6480
L1.8680 1.6550
" />
<path d="M1.8860 2.4000
L1.9050 2.4060
" />
<path d="M1.9050 1.6420
L1.8860 1.6480
" />
<path d="M1.9050 2.4060
L1.9240 2.4110
" />
<path d="M1.9240 1.6370
L1.9050 1.6420
" />
<path d="M1.9240 2.4110
L1.9430 2.4160
" />
<path d="M1.9430 1.6320
L1.9240 1.6370
" />
<path d="M1.9430 2.4160
L1.9630 2.4190
" />
<path d="M1.9630 1.6290
L1.9430 1.6320
" />
<path d="M1.9630 2.4190
L1.9830 2.4220
" />
<path d="M1.9830 1.6260
L1.9630 1.6290
" />
<path d="M1.9830 2.4220
L2.0030 2.4240
" />
<path d="M2.0030 1.6240
L1.9830 1.6260
" />
<path d="M2.0030 2.4240
L2.0240 2.4240
" />
<path d="M2.0240 1.6240
L2.0030 1.6240
" />
</g>
<g style="fill:#000000; fill-opacity:1.0000; stroke:none;">
<circle cx="2.0240" cy="1.6240" r="0.0100" /> 
<circle cx="2.0240" cy="1.6240" r="0.0100" /> 
<circle cx="2.0240" cy="2.4240" r="0.0100" /> 
</g>
<g style="fill:none; 
stroke:#000000; stroke-width:0.0200; stroke-opacity:1; 
stroke-linecap:round; stroke-linejoin:round;">
<path d="M2.0240 2.4240
L2.0450 2.4240
" />
<path d="M2.0450 1.6240
L2.0240 1.6240
" />
<path d="M2.0450 2.4240
L2.0650 2.4220
" />
<path d="M2.0650 1.6260
L2.0450 1.6240
" />
<path d="M2.0650 2.4220
L2.0850 2.4190
" />
<path d="M2.0850 1.6290
L2.0650 1.6260
" />
<path d="M2.0850 2.4190
L2.1050 2.4160
" />
<path d="M2.1050 1.6320
L2.0850 1.6290
" />
<path d="M2.1050 2.4160
L2.1240 2.4110
" />
<path d="M2.1240 1.6370
L2.1050 1.6320
" />
<path d="M2.1240 2.4110
L2.1430 2.4060
" />
<path d="M2.1430 1.6420
L2.1240 1.6370
" />
<path d="M2.1430 2.4060
L2.1620 2.4000
" />
<path d="M2.1620 1.6480
L2.1430 1.6420
" />
<path d="M2.1620 2.4000
L2.1800 2.3930
" />
<path d="M2.1800 1.6550
L2.1620 1.6480
" />
<path d="M2.1800 2.3930
L2.1970 2.3850
" />
<path d="M2.1970 1.6630
L2.1800 1.6550
" />
<path d="M2.1970 2.3850
L2.2150 2.3760
" />
<path d="M2.2150 1.6720
L2.1970 1.6630
" />
<path d="M2.2150 2.3760
L2.2310 2.3660
" />
<path d="M2.2310 1.6820
L2.2150 1.6720
" />
<path d="M2.2310 2.3660
L2.2480 2.3560
" />
<path d="M2.2480 1.6920
L2.2310 1.6820
" />
<path d="M2.2480 2.3560
L2.2630 2.3450
" />
<path d="M2.2630 1.7030
L2.2480 1.6920
" />
<path d="M2.2630 2.3450
L2.2780 2.3330
" />
<path d="M2.2780 1.7150
L2.2630 1.7030
" />
<path d="M2.2780 2.3330
L2.2930 2.3200
" />
<path d="M2.2930 1.7280
L2.2780 1.7150
" />
<path d="M2.2930 2.3200
L2.3070 2.3070
" />
<path d="M2.3070 1.7410
L2.2930 1.7280
" />
<path d="M2.3070 2.3070
L2.3200 2.2930
" />
<path d="M2.3200 1.7550
L2.3070 1.7410
" />
<path d="M2.3200 2.2930
L2.3330 2.2780
" />
<path d="M2.3330 1.7700
L2.3200 1.7550
" />
<path d="M2.3330 2.2780
L2.3450 2.2630
" />
<path d="M2.3450 1.7850
L2.3330 1.7700
" />
<path d="M2.3450 2.2630
L2.3560 2.2480
" />
<path d="M2.3560 1.8000
L2.3450 1.7850
" />
<path d="M2.3560 2.2480
L2.3660 2.2310
" />
<path d="M2.3660 1.8170
L2.3560 1.8000
" />
<path d="M2.3660 2.2310
L2.3760 2.2150
" />
<path d="M2.3760 1.8330
L2.3660 1.8170
" />
<path d="M2.3760 2.2150
L2.3850 2.1970
" />
<path d="M2.3850 1.8510
L2.3760 1.8330
" />
<path d="M2.3850 2.1970
L2.3930 2.1800
" />
<path d="M2.3930 1.8680
L2.3850 1.8510
" />
<path d="M2.3930 2.1800
L2.4000 2.1620
" />
<path d="M2.4000 1.8860
L2.3930 1.8680
" />
<path d="M2.4000 2.1620
L2.4060 2.1430
" />
<path d="M2.4060 1.9050
L2.4000 1.8860
" />
<path d="M2.4060 2.1430
L2.4110 2.1240
" />
<path d="M2.4110 1.9240
L2.4060 1.9050
" />
<path d="M2.4110 2.1240
L2.4160 2.1050
" />
<path d="M2.4160 1.9430
L2.4110 1.9240
" />
<path d="M2.4160 2.1050
L2.4190 2.0850
" />
<path d="M2.4190 1.9630
L2.4160 1.9430
" />
<path d="M2.4190 2.0850
L2.4220 2.0650
" />
<path d="M2.4220 1.9830
L2.4190 1.9630
" />
<path d="M2.4220 2.0650
L2.4240 2.0450
" />
<path d="M2.4240 2.0030
L2.4220 1.9830
" />
<path d="M2.4240 2.0240
L2.4240 2.0030
" />
</g>
<g style="fill:#000000; fill-opacity:1.0000; stroke:none;">
<circle cx="2.4240" cy="2.0240" r="0.0100" /> 
</g>
<g style="fill:none; 
stroke:#000000; stroke-width:0.0200; stroke-opacity:1; 
stroke-linecap:round; stroke-linejoin:round;">
<path d="M2.4240 2.0450
L2.4240 2.0240
" />
<path d="M16.4260 0.4240
L0.4240 0.4240
" />
<path d="M16.4260 16.4260
L16.4260 0.4240
" />
</g> 
</svg>
