<?xml version="1.0" standalone="no"?>
 <!DOCTYPE svg PUBLIC "-//W3C//DTD SVG 1.1//EN" 
 "http://www.w3.org/Graphics/SVG/1.1/DTD/svg11.dtd"> 
<svg
  xmlns:svg="http://www.w3.org/2000/svg"
  xmlns="http://www.w3.org/2000/svg"
  xmlns:xlink="http://www.w3.org/1999/xlink"
  version="1.1"
  width="21.0312mm" height="12.2428mm" viewBox="0.0000 0.0000 21.0312 12.2428">
<title>SVG Image created as outline.svg date 2025/04/04 10:06:34 </title>
  <desc>Image generated by PCBNEW </desc>
<g style="fill:#000000; fill-opacity:1.0000;stroke:#000000; stroke-opacity:1.0000;
stroke-linecap:round; stroke-linejoin:round;"
 transform="translate(0 0) scale(1 1)">
</g>
<g style="fill:none; 
stroke:#000000; stroke-width:0.0200; stroke-opacity:1; 
stroke-linecap:round; stroke-linejoin:round;">
<path d="M0.3650 1.2980
L0.3650 10.5700
" />
<path d="M0.3650 1.2980
L1.6340 1.2980
" />
<path d="M0.3650 10.5700
L4.8100 10.5700
" />
<path d="M1.1890 2.5040
L1.1890 9.7440
" />
<path d="M1.1890 9.7440
L7.9850 9.7440
" />
<path d="M1.6340 1.2980
L1.6340 1.6790
" />
<path d="M1.6340 1.6790
L9.2550 1.6790
" />
<path d="M1.6340 2.9490
L1.1890 2.5040
" />
<path d="M1.6340 2.9490
L19.4150 2.9490
" />
<path d="M1.6340 9.2980
L1.1890 9.7440
" />
<path d="M1.6340 9.2980
L1.6340 2.9490
" />
<path d="M4.8100 10.3150
L4.8100 10.5700
" />
<path d="M4.8100 10.3150
L4.8100 10.5700
" />
<path d="M4.8340 10.3410
L4.8340 10.5700
" />
<path d="M4.8340 10.5700
L4.8100 10.5700
" />
<path d="M5.1270 0.5370
L5.1270 0.6950
" />
<path d="M5.1270 0.5370
L5.7620 0.5370
" />
<path d="M5.1270 0.6950
L5.1270 1.6790
" />
<path d="M5.1270 0.6950
L5.7620 0.6950
" />
<path d="M5.1270 4.5360
L5.1270 4.6950
" />
<path d="M5.1270 4.6950
L5.1270 5.0120
" />
<path d="M5.1270 5.0120
L5.1270 5.1710
" />
<path d="M5.1270 5.0120
L5.7620 5.0120
" />
<path d="M5.1270 5.1710
L5.7620 5.1710
" />
<path d="M5.1270 7.0770
L5.1270 7.2350
" />
<path d="M5.1270 7.2350
L5.1270 7.5520
" />
<path d="M5.1270 7.2350
L5.7620 7.2350
" />
<path d="M5.1270 7.5520
L5.1270 7.7110
" />
<path d="M5.1270 7.5520
L5.7620 7.5520
" />
<path d="M5.1270 7.7110
L5.7620 7.7110
" />
<path d="M5.1270 10.5700
L5.1270 11.5540
" />
<path d="M5.1270 11.5540
L5.1270 11.7110
" />
<path d="M5.1270 11.5540
L5.7620 11.5540
" />
<path d="M5.1270 11.7110
L5.7620 11.7110
" />
<path d="M5.4450 10.5700
L4.8340 10.5700
" />
<path d="M5.4450 10.5700
L5.4450 10.3410
" />
<path d="M5.7620 0.5370
L5.7620 0.6950
" />
<path d="M5.7620 0.6950
L5.7620 1.6790
" />
<path d="M5.7620 4.5360
L5.1270 4.5360
" />
<path d="M5.7620 4.5360
L5.7620 4.6950
" />
<path d="M5.7620 4.6950
L5.1270 4.6950
" />
<path d="M5.7620 4.6950
L5.7620 5.0120
" />
<path d="M5.7620 5.0120
L5.7620 5.1710
" />
<path d="M5.7620 7.0770
L5.1270 7.0770
" />
<path d="M5.7620 7.0770
L5.7620 7.2350
" />
<path d="M5.7620 7.2350
L5.7620 7.5520
" />
<path d="M5.7620 7.5520
L5.7620 7.7110
" />
<path d="M5.7620 10.5700
L5.7620 11.5540
" />
<path d="M5.7620 11.5540
L5.7620 11.7110
" />
<path d="M6.0540 10.3410
L4.8340 10.3410
" />
<path d="M6.0540 10.5700
L5.4450 10.5700
" />
<path d="M6.0540 10.5700
L6.0540 10.3410
" />
<path d="M6.0790 10.3150
L4.8100 10.3150
" />
<path d="M6.0790 10.3150
L4.8100 10.3150
" />
<path d="M6.0790 10.5700
L6.0540 10.5700
" />
<path d="M6.0790 10.5700
L6.0790 10.3150
" />
<path d="M6.0790 10.5700
L6.0790 10.3150
" />
<path d="M6.0790 10.5700
L7.9850 10.5700
" />
<path d="M7.6660 0.5370
L8.3020 0.5370
" />
<path d="M7.6660 0.6950
L7.6660 0.5370
" />
<path d="M7.6660 0.6950
L8.3020 0.6950
" />
<path d="M7.6660 1.6790
L7.6660 0.6950
" />
<path d="M7.6660 4.6950
L7.6660 4.5360
" />
<path d="M7.6660 5.0120
L7.6660 4.6950
" />
<path d="M7.6660 5.1710
L7.6660 5.0120
" />
<path d="M7.6660 7.0770
L8.3020 7.0770
" />
<path d="M7.6660 7.2350
L7.6660 7.0770
" />
<path d="M7.6660 7.2350
L8.3020 7.2350
" />
<path d="M7.6660 7.5520
L7.6660 7.2350
" />
<path d="M7.6660 7.5520
L8.3020 7.5520
" />
<path d="M7.6660 7.7110
L7.6660 7.5520
" />
<path d="M7.6660 7.7110
L8.3020 7.7110
" />
<path d="M7.6660 11.5540
L7.6660 10.5700
" />
<path d="M7.6660 11.7110
L7.6660 11.5540
" />
<path d="M7.9850 9.2980
L1.6340 9.2980
" />
<path d="M7.9850 9.2980
L13.0640 9.2980
" />
<path d="M7.9850 9.7440
L7.9850 9.2980
" />
<path d="M7.9850 9.7440
L7.9850 10.5700
" />
<path d="M7.9850 10.5700
L13.0640 10.5700
" />
<path d="M8.3020 0.5370
L8.3020 0.6950
" />
<path d="M8.3020 0.6950
L8.3020 1.6790
" />
<path d="M8.3020 4.5360
L7.6660 4.5360
" />
<path d="M8.3020 4.5360
L8.3020 4.6950
" />
<path d="M8.3020 4.6950
L7.6660 4.6950
" />
<path d="M8.3020 4.6950
L8.3020 5.0120
" />
<path d="M8.3020 5.0120
L7.6660 5.0120
" />
<path d="M8.3020 5.0120
L8.3020 5.1710
" />
<path d="M8.3020 5.1710
L7.6660 5.1710
" />
<path d="M8.3020 7.0770
L8.3020 7.2350
" />
<path d="M8.3020 7.2350
L8.3020 7.5520
" />
<path d="M8.3020 7.5520
L8.3020 7.7110
" />
<path d="M8.3020 10.5700
L8.3020 11.5540
" />
<path d="M8.3020 11.5540
L7.6660 11.5540
" />
<path d="M8.3020 11.5540
L8.3020 11.7110
" />
<path d="M8.3020 11.7110
L7.6660 11.7110
" />
<path d="M9.2550 1.6790
L9.2550 1.2980
" />
<path d="M10.2070 0.5370
L10.8410 0.5370
" />
<path d="M10.2070 0.6950
L10.2070 0.5370
" />
<path d="M10.2070 0.6950
L10.8410 0.6950
" />
<path d="M10.2070 1.2980
L10.2070 0.6950
" />
<path d="M10.2070 4.6950
L10.2070 4.5360
" />
<path d="M10.2070 5.0120
L10.2070 4.6950
" />
<path d="M10.2070 5.1710
L10.2070 5.0120
" />
<path d="M10.2070 7.0770
L10.8410 7.0770
" />
<path d="M10.2070 7.2350
L10.2070 7.0770
" />
<path d="M10.2070 7.2350
L10.8410 7.2350
" />
<path d="M10.2070 7.5520
L10.2070 7.2350
" />
<path d="M10.2070 7.5520
L10.8410 7.5520
" />
<path d="M10.2070 7.7110
L10.2070 7.5520
" />
<path d="M10.2070 7.7110
L10.8410 7.7110
" />
<path d="M10.2070 11.5540
L10.2070 10.5700
" />
<path d="M10.2070 11.7110
L10.2070 11.5540
" />
<path d="M10.8410 0.5370
L10.8410 0.6950
" />
<path d="M10.8410 0.6950
L10.8410 1.2980
" />
<path d="M10.8410 4.5360
L10.2070 4.5360
" />
<path d="M10.8410 4.5360
L10.8410 4.6950
" />
<path d="M10.8410 4.6950
L10.2070 4.6950
" />
<path d="M10.8410 4.6950
L10.8410 5.0120
" />
<path d="M10.8410 5.0120
L10.2070 5.0120
" />
<path d="M10.8410 5.0120
L10.8410 5.1710
" />
<path d="M10.8410 5.1710
L10.2070 5.1710
" />
<path d="M10.8410 7.0770
L10.8410 7.2350
" />
<path d="M10.8410 7.2350
L10.8410 7.5520
" />
<path d="M10.8410 7.5520
L10.8410 7.7110
" />
<path d="M10.8410 10.5700
L10.8410 11.5540
" />
<path d="M10.8410 11.5540
L10.2070 11.5540
" />
<path d="M10.8410 11.5540
L10.8410 11.7110
" />
<path d="M10.8410 11.7110
L10.2070 11.7110
" />
<path d="M11.7940 1.2980
L9.2550 1.2980
" />
<path d="M11.7940 1.2980
L11.7940 1.6790
" />
<path d="M11.7940 1.6790
L19.4150 1.6790
" />
<path d="M12.7460 0.5370
L13.3820 0.5370
" />
<path d="M12.7460 0.6950
L12.7460 0.5370
" />
<path d="M12.7460 0.6950
L13.3820 0.6950
" />
<path d="M12.7460 1.6790
L12.7460 0.6950
" />
<path d="M12.7460 4.6950
L12.7460 4.5360
" />
<path d="M12.7460 5.0120
L12.7460 4.6950
" />
<path d="M12.7460 5.1710
L12.7460 5.0120
" />
<path d="M12.7460 7.0770
L13.3820 7.0770
" />
<path d="M12.7460 7.2350
L12.7460 7.0770
" />
<path d="M12.7460 7.2350
L13.3820 7.2350
" />
<path d="M12.7460 7.5520
L12.7460 7.2350
" />
<path d="M12.7460 7.5520
L13.3820 7.5520
" />
<path d="M12.7460 7.7110
L12.7460 7.5520
" />
<path d="M12.7460 7.7110
L13.3820 7.7110
" />
<path d="M12.7460 11.5540
L12.7460 10.5700
" />
<path d="M12.7460 11.7110
L12.7460 11.5540
" />
<path d="M13.0640 9.2980
L13.0640 9.7440
" />
<path d="M13.0640 9.7440
L19.8580 9.7440
" />
<path d="M13.0640 10.5700
L13.0640 9.7440
" />
<path d="M13.0640 10.5700
L20.6840 10.5700
" />
<path d="M13.3820 0.5370
L13.3820 0.6950
" />
<path d="M13.3820 0.6950
L13.3820 1.6790
" />
<path d="M13.3820 4.5360
L12.7460 4.5360
" />
<path d="M13.3820 4.5360
L13.3820 4.6950
" />
<path d="M13.3820 4.6950
L12.7460 4.6950
" />
<path d="M13.3820 4.6950
L13.3820 5.0120
" />
<path d="M13.3820 5.0120
L12.7460 5.0120
" />
<path d="M13.3820 5.0120
L13.3820 5.1710
" />
<path d="M13.3820 5.1710
L12.7460 5.1710
" />
<path d="M13.3820 7.0770
L13.3820 7.2350
" />
<path d="M13.3820 7.2350
L13.3820 7.5520
" />
<path d="M13.3820 7.5520
L13.3820 7.7110
" />
<path d="M13.3820 10.5700
L13.3820 11.5540
" />
<path d="M13.3820 11.5540
L12.7460 11.5540
" />
<path d="M13.3820 11.5540
L13.3820 11.7110
" />
<path d="M13.3820 11.7110
L12.7460 11.7110
" />
<path d="M15.2870 0.5370
L15.9220 0.5370
" />
<path d="M15.2870 0.6950
L15.2870 0.5370
" />
<path d="M15.2870 0.6950
L15.9220 0.6950
" />
<path d="M15.2870 1.6790
L15.2870 0.6950
" />
<path d="M15.2870 4.6950
L15.2870 4.5360
" />
<path d="M15.2870 5.0120
L15.2870 4.6950
" />
<path d="M15.2870 5.1710
L15.2870 5.0120
" />
<path d="M15.2870 7.0770
L15.9220 7.0770
" />
<path d="M15.2870 7.2350
L15.2870 7.0770
" />
<path d="M15.2870 7.2350
L15.9220 7.2350
" />
<path d="M15.2870 7.5520
L15.2870 7.2350
" />
<path d="M15.2870 7.5520
L15.9220 7.5520
" />
<path d="M15.2870 7.7110
L15.2870 7.5520
" />
<path d="M15.2870 7.7110
L15.9220 7.7110
" />
<path d="M15.2870 11.5540
L15.2870 10.5700
" />
<path d="M15.2870 11.5540
L15.9220 11.5540
" />
<path d="M15.2870 11.7110
L15.2870 11.5540
" />
<path d="M15.2870 11.7110
L15.9220 11.7110
" />
<path d="M15.9220 0.5370
L15.9220 0.6950
" />
<path d="M15.9220 0.6950
L15.9220 1.6790
" />
<path d="M15.9220 4.5360
L15.2870 4.5360
" />
<path d="M15.9220 4.5360
L15.9220 4.6950
" />
<path d="M15.9220 4.6950
L15.2870 4.6950
" />
<path d="M15.9220 4.6950
L15.9220 5.0120
" />
<path d="M15.9220 5.0120
L15.2870 5.0120
" />
<path d="M15.9220 5.0120
L15.9220 5.1710
" />
<path d="M15.9220 5.1710
L15.2870 5.1710
" />
<path d="M15.9220 7.0770
L15.9220 7.2350
" />
<path d="M15.9220 7.2350
L15.9220 7.5520
" />
<path d="M15.9220 7.5520
L15.9220 7.7110
" />
<path d="M15.9220 10.5700
L15.9220 11.5540
" />
<path d="M15.9220 11.5540
L15.9220 11.7110
" />
<path d="M19.4150 1.2980
L20.6840 1.2980
" />
<path d="M19.4150 1.6790
L19.4150 1.2980
" />
<path d="M19.4150 2.9490
L19.4150 9.2980
" />
<path d="M19.4150 2.9490
L19.8580 2.5040
" />
<path d="M19.4150 9.2980
L13.0640 9.2980
" />
<path d="M19.4150 9.2980
L19.8580 9.7440
" />
<path d="M19.8580 2.5040
L1.1890 2.5040
" />
<path d="M19.8580 9.7440
L19.8580 2.5040
" />
<path d="M20.6840 1.2980
L20.6840 10.5700
" />
</g> 
</svg>
