<?xml version="1.0" standalone="no"?>
 <!DOCTYPE svg PUBLIC "-//W3C//DTD SVG 1.1//EN" 
 "http://www.w3.org/Graphics/SVG/1.1/DTD/svg11.dtd"> 
<svg
  xmlns:svg="http://www.w3.org/2000/svg"
  xmlns="http://www.w3.org/2000/svg"
  xmlns:xlink="http://www.w3.org/1999/xlink"
  version="1.1"
  width="8.5344mm" height="7.1374mm" viewBox="0.0000 0.0000 8.5344 7.1374">
<title>SVG Image created as outline.svg date 2025/06/16 09:17:41 </title>
  <desc>Image generated by PCBNEW </desc>
<g style="fill:#000000; fill-opacity:1.0000;stroke:#000000; stroke-opacity:1.0000;
stroke-linecap:round; stroke-linejoin:round;"
 transform="translate(0 0) scale(1 1)">
</g>
<g style="fill:none; 
stroke:#000000; stroke-width:0.0200; stroke-opacity:1; 
stroke-linecap:round; stroke-linejoin:round;">
<path d="M0.6250 2.0760
L0.6250 3.3250
" />
<path d="M0.6250 2.0760
L0.8250 2.0750
" />
<path d="M0.6250 3.2070
L0.6250 3.2090
" />
<path d="M0.6250 3.2090
L0.6250 3.2110
" />
<path d="M0.6250 3.2110
L0.6250 3.2140
" />
<path d="M0.6250 3.2140
L0.6250 2.0760
" />
<path d="M0.6250 3.3250
L0.6250 3.2140
" />
<path d="M0.6250 3.8250
L0.6250 3.3250
" />
<path d="M0.6250 3.8250
L0.6250 5.0750
" />
<path d="M0.6250 3.9360
L0.6250 3.8250
" />
<path d="M0.6250 3.9360
L0.6250 3.9410
" />
<path d="M0.6250 3.9410
L0.6260 3.9450
" />
<path d="M0.6250 5.0750
L0.6250 3.9360
" />
<path d="M0.6260 3.1990
L0.6260 3.2010
" />
<path d="M0.6260 3.2010
L0.6260 3.2030
" />
<path d="M0.6260 3.2030
L0.6260 3.2050
" />
<path d="M0.6260 3.2050
L0.6250 3.2070
" />
<path d="M0.6260 3.9450
L0.6260 3.9490
" />
<path d="M0.6260 3.9490
L0.6270 3.9530
" />
<path d="M0.6270 3.1950
L0.6270 3.1970
" />
<path d="M0.6270 3.1970
L0.6260 3.1990
" />
<path d="M0.6270 3.9530
L0.6270 3.9570
" />
<path d="M0.6270 3.9570
L0.6280 3.9580
" />
<path d="M0.6280 3.1920
L0.6280 3.1930
" />
<path d="M0.6280 3.1930
L0.6270 3.1950
" />
<path d="M0.6280 3.9580
L0.6290 3.9600
" />
<path d="M0.6290 3.1890
L0.6290 3.1900
" />
<path d="M0.6290 3.1900
L0.6280 3.1920
" />
<path d="M0.6290 3.9600
L0.6290 3.9610
" />
<path d="M0.6290 3.9610
L0.6300 3.9630
" />
<path d="M0.6300 3.1870
L0.6290 3.1890
" />
<path d="M0.6300 3.9630
L0.6310 3.9640
" />
<path d="M0.6310 3.1850
L0.6310 3.1860
" />
<path d="M0.6310 3.1860
L0.6300 3.1870
" />
<path d="M0.6310 3.9640
L0.6310 3.9650
" />
<path d="M0.6310 3.9650
L0.6320 3.9660
" />
<path d="M0.6320 3.1840
L0.6310 3.1850
" />
<path d="M0.6320 3.9660
L0.6330 3.9670
" />
<path d="M0.6330 3.1830
L0.6320 3.1840
" />
<path d="M0.6330 3.9670
L0.6340 3.9680
" />
<path d="M0.6340 3.1820
L0.6330 3.1830
" />
<path d="M0.6340 3.9680
L0.6350 3.9690
" />
<path d="M0.6350 3.1810
L0.6340 3.1820
" />
<path d="M0.6350 3.9690
L0.6360 3.9700
" />
<path d="M0.6360 3.1800
L0.6350 3.1810
" />
<path d="M0.6360 3.9700
L0.6380 3.9710
" />
<path d="M0.6380 3.1790
L0.6360 3.1800
" />
<path d="M0.6380 3.9710
L0.6390 3.9720
" />
<path d="M0.6390 3.1780
L0.6380 3.1790
" />
<path d="M0.6390 3.9720
L0.6400 3.9720
" />
<path d="M0.6400 3.1780
L0.6390 3.1780
" />
<path d="M0.6400 3.9720
L0.6410 3.9730
" />
<path d="M0.6410 3.1770
L0.6400 3.1780
" />
<path d="M0.6410 3.9730
L0.6430 3.9730
" />
<path d="M0.6430 3.1770
L0.6410 3.1770
" />
<path d="M0.6430 3.9730
L0.6440 3.9740
" />
<path d="M0.6440 3.1760
L0.6430 3.1770
" />
<path d="M0.6440 3.9740
L0.6460 3.9740
" />
<path d="M0.6460 3.1760
L0.6440 3.1760
" />
<path d="M0.6460 3.9740
L0.6470 3.9740
" />
<path d="M0.6470 3.1760
L0.6460 3.1760
" />
<path d="M0.6470 3.9740
L0.6490 3.9740
" />
<path d="M0.6490 3.1760
L0.6470 3.1760
" />
<path d="M0.6490 3.9740
L0.6510 3.9740
" />
<path d="M0.6510 3.1760
L0.6490 3.1760
" />
<path d="M0.6510 3.9740
L0.6520 3.9750
" />
<path d="M0.6520 3.1750
L0.6510 3.1760
" />
<path d="M0.6520 3.9750
L0.8250 3.9750
" />
<path d="M0.8250 2.0750
L0.9250 2.0750
" />
<path d="M0.8250 3.1750
L0.6520 3.1750
" />
<path d="M0.8250 3.2470
L0.8250 3.3250
" />
<path d="M0.8250 3.2470
L0.8260 3.2450
" />
<path d="M0.8250 3.3250
L0.8250 3.8250
" />
<path d="M0.8250 3.8250
L0.8250 3.9030
" />
<path d="M0.8250 5.0750
L0.6250 5.0750
" />
<path d="M0.8260 3.2350
L0.8270 3.2330
" />
<path d="M0.8260 3.2380
L0.8260 3.2350
" />
<path d="M0.8260 3.2400
L0.8260 3.2380
" />
<path d="M0.8260 3.2420
L0.8260 3.2400
" />
<path d="M0.8260 3.2450
L0.8260 3.2420
" />
<path d="M0.8260 3.9050
L0.8250 3.9030
" />
<path d="M0.8260 3.9080
L0.8260 3.9050
" />
<path d="M0.8260 3.9100
L0.8260 3.9080
" />
<path d="M0.8260 3.9120
L0.8260 3.9100
" />
<path d="M0.8260 3.9150
L0.8260 3.9120
" />
<path d="M0.8270 3.2310
L0.8280 3.2290
" />
<path d="M0.8270 3.2330
L0.8270 3.2310
" />
<path d="M0.8270 3.9170
L0.8260 3.9150
" />
<path d="M0.8270 3.9190
L0.8270 3.9170
" />
<path d="M0.8280 3.2290
L0.8290 3.2270
" />
<path d="M0.8280 3.9210
L0.8270 3.9190
" />
<path d="M0.8290 3.2250
L0.8300 3.2230
" />
<path d="M0.8290 3.2270
L0.8290 3.2250
" />
<path d="M0.8290 3.9230
L0.8280 3.9210
" />
<path d="M0.8290 3.9250
L0.8290 3.9230
" />
<path d="M0.8300 3.2230
L0.8310 3.2210
" />
<path d="M0.8300 3.9270
L0.8290 3.9250
" />
<path d="M0.8310 3.2210
L0.8320 3.2190
" />
<path d="M0.8310 3.9290
L0.8300 3.9270
" />
<path d="M0.8320 3.2190
L0.8330 3.2170
" />
<path d="M0.8320 3.9310
L0.8310 3.9290
" />
<path d="M0.8330 3.2170
L0.8340 3.2150
" />
<path d="M0.8330 3.9330
L0.8320 3.9310
" />
<path d="M0.8340 3.2150
L0.8350 3.2140
" />
<path d="M0.8340 3.9350
L0.8330 3.9330
" />
<path d="M0.8350 3.2140
L0.8420 3.1970
" />
<path d="M0.8350 3.9360
L0.8340 3.9350
" />
<path d="M0.8350 3.9360
L0.8370 3.9410
" />
<path d="M0.8370 3.2090
L0.8350 3.2140
" />
<path d="M0.8370 3.9410
L0.8390 3.9460
" />
<path d="M0.8390 3.2040
L0.8370 3.2090
" />
<path d="M0.8390 3.9450
L0.8350 3.9360
" />
<path d="M0.8390 3.9460
L0.8410 3.9510
" />
<path d="M0.8410 3.1990
L0.8390 3.2040
" />
<path d="M0.8410 3.9510
L0.8430 3.9560
" />
<path d="M0.8420 3.1970
L0.8450 3.1910
" />
<path d="M0.8420 3.9530
L0.8390 3.9450
" />
<path d="M0.8430 3.1940
L0.8410 3.1990
" />
<path d="M0.8430 3.9560
L0.8450 3.9610
" />
<path d="M0.8450 3.1890
L0.8430 3.1940
" />
<path d="M0.8450 3.1910
L0.8470 3.1860
" />
<path d="M0.8450 3.9590
L0.8420 3.9530
" />
<path d="M0.8450 3.9610
L0.8470 3.9650
" />
<path d="M0.8470 3.1850
L0.8450 3.1890
" />
<path d="M0.8470 3.1860
L0.8490 3.1810
" />
<path d="M0.8470 3.9640
L0.8450 3.9590
" />
<path d="M0.8470 3.9650
L0.8500 3.9700
" />
<path d="M0.8480 3.9670
L0.8470 3.9640
" />
<path d="M0.8490 3.1810
L0.8500 3.1780
" />
<path d="M0.8490 3.9690
L0.8480 3.9670
" />
<path d="M0.8500 3.1780
L0.8520 3.1760
" />
<path d="M0.8500 3.1800
L0.8470 3.1850
" />
<path d="M0.8500 3.9700
L0.8490 3.9690
" />
<path d="M0.8500 3.9700
L0.8520 3.9750
" />
<path d="M0.8500 3.9720
L0.8500 3.9700
" />
<path d="M0.8510 3.9730
L0.8500 3.9720
" />
<path d="M0.8520 3.1750
L0.8250 3.1750
" />
<path d="M0.8520 3.1750
L0.8500 3.1800
" />
<path d="M0.8520 3.1760
L0.8520 3.1750
" />
</g>
<g style="fill:#000000; fill-opacity:1.0000; stroke:none;">
<circle cx="0.8520" cy="3.1760" r="0.0100" /> 
</g>
<g style="fill:none; 
stroke:#000000; stroke-width:0.0200; stroke-opacity:1; 
stroke-linecap:round; stroke-linejoin:round;">
<path d="M0.8520 3.9740
L0.8510 3.9730
" />
</g>
<g style="fill:#000000; fill-opacity:1.0000; stroke:none;">
<circle cx="0.8520" cy="3.9740" r="0.0100" /> 
<circle cx="0.8520" cy="3.9740" r="0.0100" /> 
</g>
<g style="fill:none; 
stroke:#000000; stroke-width:0.0200; stroke-opacity:1; 
stroke-linecap:round; stroke-linejoin:round;">
<path d="M0.8520 3.9750
L0.8250 3.9750
" />
<path d="M0.8520 3.9750
L0.8520 3.9740
" />
<path d="M0.8520 3.9750
L0.8560 3.9800
" />
<path d="M0.8560 3.1700
L0.8520 3.1750
" />
<path d="M0.8560 3.9800
L0.8590 3.9860
" />
<path d="M0.8590 3.1640
L0.8560 3.1700
" />
<path d="M0.8590 3.9860
L0.8630 3.9910
" />
<path d="M0.8630 3.1590
L0.8590 3.1640
" />
<path d="M0.8630 3.9910
L0.8670 3.9960
" />
<path d="M0.8670 3.1540
L0.8630 3.1590
" />
<path d="M0.8670 3.9960
L0.8710 4.0010
" />
<path d="M0.8710 3.1490
L0.8670 3.1540
" />
<path d="M0.8710 4.0010
L0.8750 4.0060
" />
<path d="M0.8750 3.1440
L0.8710 3.1490
" />
<path d="M0.8750 4.0060
L0.8800 4.0110
" />
<path d="M0.8800 3.1390
L0.8750 3.1440
" />
<path d="M0.8800 4.0110
L0.8840 4.0160
" />
<path d="M0.8840 3.1340
L0.8800 3.1390
" />
<path d="M0.8840 4.0160
L0.8890 4.0200
" />
<path d="M0.8890 3.1300
L0.8840 3.1340
" />
<path d="M0.8890 4.0200
L0.8940 4.0250
" />
<path d="M0.8940 3.1250
L0.8890 3.1300
" />
<path d="M0.8940 4.0250
L0.8990 4.0290
" />
<path d="M0.8990 3.1210
L0.8940 3.1250
" />
<path d="M0.8990 4.0290
L0.9040 4.0330
" />
<path d="M0.9040 3.1170
L0.8990 3.1210
" />
<path d="M0.9040 4.0330
L0.9090 4.0370
" />
<path d="M0.9090 3.1130
L0.9040 3.1170
" />
<path d="M0.9090 4.0370
L0.9140 4.0410
" />
<path d="M0.9140 3.1090
L0.9090 3.1130
" />
<path d="M0.9140 4.0410
L0.9200 4.0440
" />
<path d="M0.9200 3.1060
L0.9140 3.1090
" />
<path d="M0.9200 4.0440
L0.9250 4.0480
" />
<path d="M0.9250 0.5750
L0.9250 6.5750
" />
<path d="M0.9250 3.1020
L0.9200 3.1060
" />
<path d="M0.9250 5.0750
L0.8250 5.0750
" />
<path d="M0.9250 6.5750
L0.9260 6.5890
" />
<path d="M0.9260 0.5610
L0.9250 0.5750
" />
<path d="M0.9260 6.5890
L0.9270 6.6040
" />
<path d="M0.9270 0.5460
L0.9260 0.5610
" />
<path d="M0.9270 6.6040
L0.9290 6.6190
" />
<path d="M0.9290 0.5310
L0.9270 0.5460
" />
<path d="M0.9290 6.6190
L0.9310 6.6330
" />
<path d="M0.9310 0.5170
L0.9290 0.5310
" />
<path d="M0.9310 6.6330
L0.9350 6.6480
" />
<path d="M0.9350 0.5020
L0.9310 0.5170
" />
<path d="M0.9350 6.6480
L0.9380 6.6620
" />
<path d="M0.9380 0.4880
L0.9350 0.5020
" />
<path d="M0.9380 6.6620
L0.9430 6.6760
" />
<path d="M0.9430 0.4740
L0.9380 0.4880
" />
<path d="M0.9430 6.6760
L0.9480 6.6890
" />
<path d="M0.9480 0.4610
L0.9430 0.4740
" />
<path d="M0.9480 6.6890
L0.9540 6.7030
" />
<path d="M0.9540 0.4470
L0.9480 0.4610
" />
<path d="M0.9540 6.7030
L0.9610 6.7160
" />
<path d="M0.9610 0.4340
L0.9540 0.4470
" />
<path d="M0.9610 6.7160
L0.9680 6.7290
" />
<path d="M0.9680 0.4210
L0.9610 0.4340
" />
<path d="M0.9680 6.7290
L0.9760 6.7410
" />
<path d="M0.9760 0.4090
L0.9680 0.4210
" />
<path d="M0.9760 6.7410
L0.9840 6.7530
" />
<path d="M0.9840 0.3970
L0.9760 0.4090
" />
<path d="M0.9840 6.7530
L0.9930 6.7650
" />
<path d="M0.9930 0.3850
L0.9840 0.3970
" />
<path d="M0.9930 6.7650
L1.0030 6.7760
" />
<path d="M1.0030 0.3740
L0.9930 0.3850
" />
<path d="M1.0030 6.7760
L1.0130 6.7870
" />
<path d="M1.0130 0.3630
L1.0030 0.3740
" />
</g>
<g style="fill:#000000; fill-opacity:1.0000; stroke:none;">
<circle cx="1.0130" cy="0.3630" r="0.0100" /> 
<circle cx="1.0130" cy="6.7870" r="0.0100" /> 
</g>
<g style="fill:none; 
stroke:#000000; stroke-width:0.0200; stroke-opacity:1; 
stroke-linecap:round; stroke-linejoin:round;">
<path d="M1.0130 6.7870
L1.0240 6.7970
" />
<path d="M1.0240 0.3530
L1.0130 0.3630
" />
<path d="M1.0240 6.7970
L1.0350 6.8070
" />
<path d="M1.0350 0.3430
L1.0240 0.3530
" />
<path d="M1.0350 6.8070
L1.0470 6.8160
" />
<path d="M1.0470 0.3340
L1.0350 0.3430
" />
<path d="M1.0470 6.8160
L1.0590 6.8240
" />
<path d="M1.0590 0.3260
L1.0470 0.3340
" />
<path d="M1.0590 6.8240
L1.0710 6.8320
" />
<path d="M1.0710 0.3180
L1.0590 0.3260
" />
<path d="M1.0710 6.8320
L1.0840 6.8390
" />
<path d="M1.0840 0.3110
L1.0710 0.3180
" />
<path d="M1.0840 6.8390
L1.0970 6.8460
" />
<path d="M1.0970 0.3040
L1.0840 0.3110
" />
<path d="M1.0970 6.8460
L1.1110 6.8520
" />
<path d="M1.1110 0.2980
L1.0970 0.3040
" />
<path d="M1.1110 6.8520
L1.1240 6.8570
" />
<path d="M1.1240 0.2930
L1.1110 0.2980
" />
<path d="M1.1240 6.8570
L1.1380 6.8620
" />
<path d="M1.1380 0.2880
L1.1240 0.2930
" />
<path d="M1.1380 6.8620
L1.1520 6.8650
" />
<path d="M1.1520 0.2850
L1.1380 0.2880
" />
<path d="M1.1520 6.8650
L1.1670 6.8690
" />
<path d="M1.1670 0.2810
L1.1520 0.2850
" />
<path d="M1.1670 6.8690
L1.1810 6.8710
" />
<path d="M1.1810 0.2790
L1.1670 0.2810
" />
<path d="M1.1810 6.8710
L1.1960 6.8730
" />
<path d="M1.1960 0.2770
L1.1810 0.2790
" />
<path d="M1.1960 6.8730
L1.2110 6.8740
" />
<path d="M1.2110 0.2760
L1.1960 0.2770
" />
<path d="M1.2110 6.8740
L1.2260 6.8740
" />
<path d="M1.2260 0.2760
L1.2110 0.2760
" />
<path d="M1.2260 6.8740
L7.3240 6.8740
" />
<path d="M7.3240 0.2760
L1.2260 0.2760
" />
<path d="M7.3240 6.8740
L7.3390 6.8740
" />
<path d="M7.3390 0.2760
L7.3240 0.2760
" />
<path d="M7.3390 6.8740
L7.3540 6.8730
" />
<path d="M7.3540 0.2770
L7.3390 0.2760
" />
<path d="M7.3540 6.8730
L7.3690 6.8710
" />
<path d="M7.3690 0.2790
L7.3540 0.2770
" />
<path d="M7.3690 6.8710
L7.3830 6.8690
" />
<path d="M7.3830 0.2810
L7.3690 0.2790
" />
<path d="M7.3830 6.8690
L7.3980 6.8650
" />
<path d="M7.3980 0.2850
L7.3830 0.2810
" />
<path d="M7.3980 6.8650
L7.4120 6.8620
" />
<path d="M7.4120 0.2880
L7.3980 0.2850
" />
<path d="M7.4120 6.8620
L7.4260 6.8570
" />
<path d="M7.4260 0.2930
L7.4120 0.2880
" />
<path d="M7.4260 6.8570
L7.4390 6.8520
" />
<path d="M7.4390 0.2980
L7.4260 0.2930
" />
<path d="M7.4390 6.8520
L7.4530 6.8460
" />
<path d="M7.4530 0.3040
L7.4390 0.2980
" />
<path d="M7.4530 6.8460
L7.4660 6.8390
" />
<path d="M7.4660 0.3110
L7.4530 0.3040
" />
<path d="M7.4660 6.8390
L7.4790 6.8320
" />
<path d="M7.4790 0.3180
L7.4660 0.3110
" />
<path d="M7.4790 6.8320
L7.4910 6.8240
" />
<path d="M7.4910 0.3260
L7.4790 0.3180
" />
<path d="M7.4910 6.8240
L7.5030 6.8160
" />
<path d="M7.5030 0.3340
L7.4910 0.3260
" />
<path d="M7.5030 6.8160
L7.5150 6.8070
" />
<path d="M7.5150 0.3430
L7.5030 0.3340
" />
<path d="M7.5150 6.8070
L7.5260 6.7970
" />
<path d="M7.5260 0.3530
L7.5150 0.3430
" />
<path d="M7.5260 6.7970
L7.5370 6.7870
" />
<path d="M7.5370 0.3630
L7.5260 0.3530
" />
</g>
<g style="fill:#000000; fill-opacity:1.0000; stroke:none;">
<circle cx="7.5370" cy="0.3630" r="0.0100" /> 
<circle cx="7.5370" cy="6.7870" r="0.0100" /> 
</g>
<g style="fill:none; 
stroke:#000000; stroke-width:0.0200; stroke-opacity:1; 
stroke-linecap:round; stroke-linejoin:round;">
<path d="M7.5370 6.7870
L7.5470 6.7760
" />
<path d="M7.5470 0.3740
L7.5370 0.3630
" />
<path d="M7.5470 6.7760
L7.5570 6.7650
" />
<path d="M7.5570 0.3850
L7.5470 0.3740
" />
<path d="M7.5570 6.7650
L7.5660 6.7530
" />
<path d="M7.5660 0.3970
L7.5570 0.3850
" />
<path d="M7.5660 6.7530
L7.5740 6.7410
" />
<path d="M7.5740 0.4090
L7.5660 0.3970
" />
<path d="M7.5740 6.7410
L7.5820 6.7290
" />
<path d="M7.5820 0.4210
L7.5740 0.4090
" />
<path d="M7.5820 6.7290
L7.5890 6.7160
" />
<path d="M7.5890 0.4340
L7.5820 0.4210
" />
<path d="M7.5890 6.7160
L7.5960 6.7030
" />
<path d="M7.5960 0.4470
L7.5890 0.4340
" />
<path d="M7.5960 6.7030
L7.6020 6.6890
" />
<path d="M7.6020 0.4610
L7.5960 0.4470
" />
<path d="M7.6020 6.6890
L7.6070 6.6760
" />
<path d="M7.6070 0.4740
L7.6020 0.4610
" />
<path d="M7.6070 6.6760
L7.6120 6.6620
" />
<path d="M7.6120 0.4880
L7.6070 0.4740
" />
<path d="M7.6120 6.6620
L7.6150 6.6480
" />
<path d="M7.6150 0.5020
L7.6120 0.4880
" />
<path d="M7.6150 6.6480
L7.6190 6.6330
" />
<path d="M7.6190 0.5170
L7.6150 0.5020
" />
<path d="M7.6190 6.6330
L7.6210 6.6190
" />
<path d="M7.6210 0.5310
L7.6190 0.5170
" />
<path d="M7.6210 6.6190
L7.6230 6.6040
" />
<path d="M7.6230 0.5460
L7.6210 0.5310
" />
<path d="M7.6230 6.6040
L7.6240 6.5890
" />
<path d="M7.6240 0.5610
L7.6230 0.5460
" />
<path d="M7.6240 6.5890
L7.6250 6.5750
" />
<path d="M7.6250 0.5750
L7.6240 0.5610
" />
<path d="M7.6250 3.1020
L7.6300 3.1060
" />
<path d="M7.6250 5.0750
L7.7250 5.0750
" />
<path d="M7.6250 6.5750
L7.6250 0.5750
" />
<path d="M7.6300 3.1060
L7.6360 3.1090
" />
<path d="M7.6300 4.0440
L7.6250 4.0480
" />
<path d="M7.6360 3.1090
L7.6410 3.1130
" />
<path d="M7.6360 4.0410
L7.6300 4.0440
" />
<path d="M7.6410 3.1130
L7.6460 3.1170
" />
<path d="M7.6410 4.0370
L7.6360 4.0410
" />
<path d="M7.6460 3.1170
L7.6510 3.1210
" />
<path d="M7.6460 4.0330
L7.6410 4.0370
" />
<path d="M7.6510 3.1210
L7.6560 3.1250
" />
<path d="M7.6510 4.0290
L7.6460 4.0330
" />
<path d="M7.6560 3.1250
L7.6610 3.1300
" />
<path d="M7.6560 4.0250
L7.6510 4.0290
" />
<path d="M7.6610 3.1300
L7.6660 3.1340
" />
<path d="M7.6610 4.0200
L7.6560 4.0250
" />
<path d="M7.6660 3.1340
L7.6700 3.1390
" />
<path d="M7.6660 4.0160
L7.6610 4.0200
" />
<path d="M7.6700 3.1390
L7.6750 3.1440
" />
<path d="M7.6700 4.0110
L7.6660 4.0160
" />
<path d="M7.6750 3.1440
L7.6790 3.1490
" />
<path d="M7.6750 4.0060
L7.6700 4.0110
" />
<path d="M7.6790 3.1490
L7.6830 3.1540
" />
<path d="M7.6790 4.0010
L7.6750 4.0060
" />
<path d="M7.6830 3.1540
L7.6870 3.1590
" />
<path d="M7.6830 3.9960
L7.6790 4.0010
" />
<path d="M7.6870 3.1590
L7.6910 3.1640
" />
<path d="M7.6870 3.9910
L7.6830 3.9960
" />
<path d="M7.6910 3.1640
L7.6940 3.1700
" />
<path d="M7.6910 3.9860
L7.6870 3.9910
" />
<path d="M7.6940 3.1700
L7.6980 3.1750
" />
<path d="M7.6940 3.9800
L7.6910 3.9860
" />
<path d="M7.6980 3.1750
L7.7000 3.1800
" />
<path d="M7.6980 3.1750
L7.7250 3.1750
" />
<path d="M7.6980 3.1760
L7.6980 3.1750
" />
</g>
<g style="fill:#000000; fill-opacity:1.0000; stroke:none;">
<circle cx="7.6980" cy="3.1760" r="0.0100" /> 
<circle cx="7.6980" cy="3.9740" r="0.0100" /> 
<circle cx="7.6980" cy="3.9740" r="0.0100" /> 
</g>
<g style="fill:none; 
stroke:#000000; stroke-width:0.0200; stroke-opacity:1; 
stroke-linecap:round; stroke-linejoin:round;">
<path d="M7.6980 3.9740
L7.6990 3.9730
" />
<path d="M7.6980 3.9750
L7.6940 3.9800
" />
<path d="M7.6980 3.9750
L7.6980 3.9740
" />
<path d="M7.6980 3.9750
L7.7250 3.9750
" />
<path d="M7.6990 3.9730
L7.7000 3.9720
" />
<path d="M7.7000 3.1780
L7.6980 3.1760
" />
<path d="M7.7000 3.1800
L7.7030 3.1850
" />
<path d="M7.7000 3.9700
L7.6980 3.9750
" />
<path d="M7.7000 3.9700
L7.7010 3.9690
" />
<path d="M7.7000 3.9720
L7.7000 3.9700
" />
<path d="M7.7010 3.1810
L7.7000 3.1780
" />
<path d="M7.7010 3.9690
L7.7020 3.9670
" />
<path d="M7.7020 3.9670
L7.7030 3.9640
" />
<path d="M7.7030 3.1850
L7.7050 3.1890
" />
<path d="M7.7030 3.1860
L7.7010 3.1810
" />
<path d="M7.7030 3.9640
L7.7050 3.9590
" />
<path d="M7.7030 3.9650
L7.7000 3.9700
" />
<path d="M7.7050 3.1890
L7.7070 3.1940
" />
<path d="M7.7050 3.1910
L7.7030 3.1860
" />
<path d="M7.7050 3.9590
L7.7080 3.9530
" />
<path d="M7.7050 3.9610
L7.7030 3.9650
" />
<path d="M7.7070 3.1940
L7.7090 3.1990
" />
<path d="M7.7070 3.9560
L7.7050 3.9610
" />
<path d="M7.7080 3.1970
L7.7050 3.1910
" />
<path d="M7.7080 3.9530
L7.7110 3.9450
" />
<path d="M7.7090 3.1990
L7.7110 3.2040
" />
<path d="M7.7090 3.9510
L7.7070 3.9560
" />
<path d="M7.7110 3.2040
L7.7130 3.2090
" />
<path d="M7.7110 3.9450
L7.7150 3.9360
" />
<path d="M7.7110 3.9460
L7.7090 3.9510
" />
<path d="M7.7130 3.2090
L7.7150 3.2140
" />
<path d="M7.7130 3.9410
L7.7110 3.9460
" />
<path d="M7.7150 3.2140
L7.7080 3.1970
" />
<path d="M7.7150 3.2140
L7.7160 3.2150
" />
<path d="M7.7150 3.9360
L7.7130 3.9410
" />
<path d="M7.7160 3.2150
L7.7170 3.2170
" />
<path d="M7.7160 3.9350
L7.7150 3.9360
" />
<path d="M7.7170 3.2170
L7.7180 3.2190
" />
<path d="M7.7170 3.9330
L7.7160 3.9350
" />
<path d="M7.7180 3.2190
L7.7190 3.2210
" />
<path d="M7.7180 3.9310
L7.7170 3.9330
" />
<path d="M7.7190 3.2210
L7.7200 3.2230
" />
<path d="M7.7190 3.9290
L7.7180 3.9310
" />
<path d="M7.7200 3.2230
L7.7210 3.2250
" />
<path d="M7.7200 3.9270
L7.7190 3.9290
" />
<path d="M7.7210 3.2250
L7.7210 3.2270
" />
<path d="M7.7210 3.2270
L7.7220 3.2290
" />
<path d="M7.7210 3.9230
L7.7210 3.9250
" />
<path d="M7.7210 3.9250
L7.7200 3.9270
" />
<path d="M7.7220 3.2290
L7.7230 3.2310
" />
<path d="M7.7220 3.9210
L7.7210 3.9230
" />
<path d="M7.7230 3.2310
L7.7230 3.2330
" />
<path d="M7.7230 3.2330
L7.7240 3.2350
" />
<path d="M7.7230 3.9170
L7.7230 3.9190
" />
<path d="M7.7230 3.9190
L7.7220 3.9210
" />
<path d="M7.7240 3.2350
L7.7240 3.2380
" />
<path d="M7.7240 3.2380
L7.7240 3.2400
" />
<path d="M7.7240 3.2400
L7.7240 3.2420
" />
<path d="M7.7240 3.2420
L7.7240 3.2450
" />
<path d="M7.7240 3.2450
L7.7250 3.2470
" />
<path d="M7.7240 3.9050
L7.7240 3.9080
" />
<path d="M7.7240 3.9080
L7.7240 3.9100
" />
<path d="M7.7240 3.9100
L7.7240 3.9120
" />
<path d="M7.7240 3.9120
L7.7240 3.9150
" />
<path d="M7.7240 3.9150
L7.7230 3.9170
" />
<path d="M7.7250 2.0750
L7.6250 2.0750
" />
<path d="M7.7250 2.0750
L7.9250 2.0760
" />
<path d="M7.7250 3.2470
L7.7250 3.3250
" />
<path d="M7.7250 3.3250
L7.7250 3.8250
" />
<path d="M7.7250 3.8250
L7.7250 3.9030
" />
<path d="M7.7250 3.8250
L7.7250 3.9750
" />
<path d="M7.7250 3.9030
L7.7240 3.9050
" />
<path d="M7.7250 3.9750
L7.8980 3.9750
" />
<path d="M7.8980 3.1750
L7.7250 3.1750
" />
<path d="M7.8980 3.9750
L7.8990 3.9740
" />
<path d="M7.8990 3.1760
L7.8980 3.1750
" />
<path d="M7.8990 3.9740
L7.9010 3.9740
" />
<path d="M7.9010 3.1760
L7.8990 3.1760
" />
<path d="M7.9010 3.9740
L7.9030 3.9740
" />
<path d="M7.9030 3.1760
L7.9010 3.1760
" />
<path d="M7.9030 3.9740
L7.9040 3.9740
" />
<path d="M7.9040 3.1760
L7.9030 3.1760
" />
<path d="M7.9040 3.9740
L7.9060 3.9740
" />
<path d="M7.9060 3.1760
L7.9040 3.1760
" />
<path d="M7.9060 3.9740
L7.9070 3.9730
" />
<path d="M7.9070 3.1770
L7.9060 3.1760
" />
<path d="M7.9070 3.9730
L7.9090 3.9730
" />
<path d="M7.9090 3.1770
L7.9070 3.1770
" />
<path d="M7.9090 3.9730
L7.9100 3.9720
" />
<path d="M7.9100 3.1780
L7.9090 3.1770
" />
<path d="M7.9100 3.9720
L7.9110 3.9720
" />
<path d="M7.9110 3.1780
L7.9100 3.1780
" />
<path d="M7.9110 3.9720
L7.9120 3.9710
" />
<path d="M7.9120 3.1790
L7.9110 3.1780
" />
<path d="M7.9120 3.9710
L7.9140 3.9700
" />
<path d="M7.9140 3.1800
L7.9120 3.1790
" />
<path d="M7.9140 3.9700
L7.9150 3.9690
" />
<path d="M7.9150 3.1810
L7.9140 3.1800
" />
<path d="M7.9150 3.9690
L7.9160 3.9680
" />
<path d="M7.9160 3.1820
L7.9150 3.1810
" />
<path d="M7.9160 3.9680
L7.9170 3.9670
" />
<path d="M7.9170 3.1830
L7.9160 3.1820
" />
<path d="M7.9170 3.9670
L7.9180 3.9660
" />
<path d="M7.9180 3.1840
L7.9170 3.1830
" />
<path d="M7.9180 3.9660
L7.9190 3.9650
" />
<path d="M7.9190 3.1850
L7.9180 3.1840
" />
<path d="M7.9190 3.1860
L7.9190 3.1850
" />
<path d="M7.9190 3.9640
L7.9200 3.9630
" />
<path d="M7.9190 3.9650
L7.9190 3.9640
" />
<path d="M7.9200 3.1870
L7.9190 3.1860
" />
<path d="M7.9200 3.9630
L7.9210 3.9610
" />
<path d="M7.9210 3.1890
L7.9200 3.1870
" />
<path d="M7.9210 3.1900
L7.9210 3.1890
" />
<path d="M7.9210 3.9600
L7.9220 3.9580
" />
<path d="M7.9210 3.9610
L7.9210 3.9600
" />
<path d="M7.9220 3.1920
L7.9210 3.1900
" />
<path d="M7.9220 3.9570
L7.9230 3.9550
" />
<path d="M7.9220 3.9580
L7.9220 3.9570
" />
<path d="M7.9230 3.1930
L7.9220 3.1920
" />
<path d="M7.9230 3.1970
L7.9230 3.1930
" />
<path d="M7.9230 3.9530
L7.9240 3.9510
" />
<path d="M7.9230 3.9550
L7.9230 3.9530
" />
<path d="M7.9240 3.2010
L7.9230 3.1970
" />
<path d="M7.9240 3.2050
L7.9240 3.2010
" />
<path d="M7.9240 3.9450
L7.9250 3.9430
" />
<path d="M7.9240 3.9470
L7.9240 3.9450
" />
<path d="M7.9240 3.9490
L7.9240 3.9470
" />
<path d="M7.9240 3.9510
L7.9240 3.9490
" />
<path d="M7.9250 2.0760
L7.9250 3.2140
" />
<path d="M7.9250 3.2090
L7.9240 3.2050
" />
<path d="M7.9250 3.2140
L7.9250 3.2090
" />
<path d="M7.9250 3.3250
L7.9250 2.0760
" />
<path d="M7.9250 3.3250
L7.9250 3.2140
" />
<path d="M7.9250 3.8250
L7.9250 3.3250
" />
<path d="M7.9250 3.9360
L7.9250 3.8250
" />
<path d="M7.9250 3.9360
L7.9250 5.0750
" />
<path d="M7.9250 3.9390
L7.9250 3.9360
" />
<path d="M7.9250 3.9410
L7.9250 3.9390
" />
<path d="M7.9250 3.9430
L7.9250 3.9410
" />
<path d="M7.9250 5.0750
L7.7250 5.0750
" />
<path d="M7.9250 5.0750
L7.9250 3.8250
" />
</g> 
</svg>
