<?xml version="1.0" standalone="no"?>
 <!DOCTYPE svg PUBLIC "-//W3C//DTD SVG 1.1//EN" 
 "http://www.w3.org/Graphics/SVG/1.1/DTD/svg11.dtd"> 
<svg
  xmlns:svg="http://www.w3.org/2000/svg"
  xmlns="http://www.w3.org/2000/svg"
  xmlns:xlink="http://www.w3.org/1999/xlink"
  version="1.1"
  width="44.0436mm" height="13.0302mm" viewBox="0.0000 0.0000 44.0436 13.0302">
<title>SVG Image created as outline.svg date 2025/06/16 09:18:07 </title>
  <desc>Image generated by PCBNEW </desc>
<g style="fill:#000000; fill-opacity:1.0000;stroke:#000000; stroke-opacity:1.0000;
stroke-linecap:round; stroke-linejoin:round;"
 transform="translate(0 0) scale(1 1)">
</g>
<g style="fill:none; 
stroke:#000000; stroke-width:0.0200; stroke-opacity:1; 
stroke-linecap:round; stroke-linejoin:round;">
<path d="M0.8250 9.5750
L0.8250 7.7250
" />
<path d="M0.8250 9.5750
L0.9710 9.5750
" />
<path d="M0.8250 12.7250
L0.8250 9.5750
" />
<path d="M0.9710 7.7250
L0.8250 7.7250
" />
</g>
<g style="fill:#000000; fill-opacity:1.0000; stroke:none;">
<circle cx="0.9710" cy="7.7250" r="0.0100" /> 
<circle cx="0.9710" cy="9.5750" r="0.0100" /> 
</g>
<g style="fill:none; 
stroke:#000000; stroke-width:0.0200; stroke-opacity:1; 
stroke-linecap:round; stroke-linejoin:round;">
<path d="M0.9710 9.5750
L1.3250 9.5750
" />
<path d="M1.3250 7.7250
L0.9710 7.7250
" />
<path d="M1.3250 7.7250
L3.9300 7.7250
" />
<path d="M1.3250 9.5750
L42.7250 9.5750
" />
<path d="M1.8100 2.0250
L1.8100 7.7250
" />
<path d="M1.8110 2.0240
L1.8100 2.0250
" />
<path d="M1.8110 2.0240
L1.8100 2.0250
" />
<path d="M1.8130 2.0210
L1.8110 2.0240
" />
<path d="M1.8130 2.0210
L1.8110 2.0240
" />
<path d="M1.8150 2.0180
L1.8130 2.0210
" />
<path d="M1.8180 2.0160
L1.8140 2.0190
" />
<path d="M1.8180 2.0160
L1.8150 2.0180
" />
<path d="M1.8210 2.0140
L1.8180 2.0160
" />
<path d="M1.8230 2.0130
L1.8180 2.0160
" />
<path d="M1.8250 2.0120
L1.8210 2.0140
" />
<path d="M1.8290 2.0100
L1.8230 2.0130
" />
<path d="M1.8290 2.0100
L1.8250 2.0120
" />
<path d="M1.8340 2.0090
L1.8290 2.0100
" />
<path d="M1.8370 2.0080
L1.8290 2.0100
" />
<path d="M1.8390 2.0070
L1.8340 2.0090
" />
<path d="M1.8450 2.0060
L1.8390 2.0070
" />
<path d="M1.8460 2.0060
L1.8370 2.0080
" />
<path d="M1.8510 2.0050
L1.8450 2.0060
" />
<path d="M1.8570 2.0050
L1.8460 2.0060
" />
<path d="M1.8580 2.0050
L1.8510 2.0050
" />
<path d="M1.8650 2.0040
L1.8580 2.0050
" />
<path d="M1.8680 2.0040
L1.8570 2.0050
" />
<path d="M1.8730 2.0040
L1.8650 2.0040
" />
<path d="M1.8800 2.0040
L1.8680 2.0040
" />
<path d="M1.8810 2.0040
L1.8730 2.0040
" />
<path d="M1.8890 2.0040
L1.8810 2.0040
" />
<path d="M1.8940 2.0040
L1.8800 2.0040
" />
<path d="M1.8990 2.0040
L1.8890 2.0040
" />
<path d="M1.9080 2.0050
L1.8990 2.0040
" />
</g>
<g style="fill:#000000; fill-opacity:1.0000; stroke:none;">
<circle cx="1.9080" cy="2.0050" r="0.0100" /> 
</g>
<g style="fill:none; 
stroke:#000000; stroke-width:0.0200; stroke-opacity:1; 
stroke-linecap:round; stroke-linejoin:round;">
<path d="M1.9090 2.0050
L1.8940 2.0040
" />
<path d="M1.9290 2.0060
L1.9080 2.0050
" />
<path d="M1.9410 2.0070
L1.9090 2.0050
" />
<path d="M1.9500 2.0080
L1.9290 2.0060
" />
<path d="M1.9760 2.0100
L1.9410 2.0070
" />
<path d="M1.9980 2.0130
L1.9500 2.0080
" />
<path d="M2.0150 2.0150
L1.9760 2.0100
" />
<path d="M2.0490 2.0190
L1.9980 2.0130
" />
<path d="M2.0750 2.0220
L2.0490 2.0190
" />
<path d="M2.1020 2.0250
L2.0750 2.0220
" />
<path d="M2.1020 2.0250
L2.1100 2.0250
" />
<path d="M2.1100 2.0250
L3.9300 2.0250
" />
<path d="M2.9750 12.7250
L0.8250 12.7250
" />
<path d="M2.9750 12.7250
L2.9750 9.5750
" />
<path d="M2.9750 12.7250
L3.1210 12.7250
" />
<path d="M3.0000 0.3250
L1.8130 2.0210
" />
<path d="M3.0000 0.3250
L3.0860 0.3250
" />
</g>
<g style="fill:#000000; fill-opacity:1.0000; stroke:none;">
<circle cx="3.0860" cy="0.3250" r="0.0100" /> 
</g>
<g style="fill:none; 
stroke:#000000; stroke-width:0.0200; stroke-opacity:1; 
stroke-linecap:round; stroke-linejoin:round;">
<path d="M3.0860 0.3250
L3.2910 0.3250
" />
</g>
<g style="fill:#000000; fill-opacity:1.0000; stroke:none;">
<circle cx="3.1210" cy="12.7250" r="0.0100" /> 
</g>
<g style="fill:none; 
stroke:#000000; stroke-width:0.0200; stroke-opacity:1; 
stroke-linecap:round; stroke-linejoin:round;">
<path d="M3.1210 12.7250
L3.4750 12.7250
" />
<path d="M3.4750 12.7250
L4.5250 12.7250
" />
<path d="M3.5000 0.3250
L3.2910 0.3250
" />
<path d="M3.9300 1.0700
L3.5000 0.3250
" />
<path d="M3.9300 2.0250
L3.9300 1.0700
" />
<path d="M3.9300 2.0250
L3.9300 7.7250
" />
<path d="M3.9300 2.0250
L40.1200 2.0250
" />
<path d="M4.5250 9.5750
L4.5250 12.7250
" />
<path d="M5.8500 9.5950
L5.8500 9.5750
" />
<path d="M5.8500 9.5950
L6.0000 9.5950
" />
<path d="M6.0000 9.5950
L6.0000 10.3450
" />
<path d="M6.0000 10.3450
L6.0000 10.6990
" />
</g>
<g style="fill:#000000; fill-opacity:1.0000; stroke:none;">
<circle cx="6.0000" cy="10.6990" r="0.0100" /> 
</g>
<g style="fill:none; 
stroke:#000000; stroke-width:0.0200; stroke-opacity:1; 
stroke-linecap:round; stroke-linejoin:round;">
<path d="M6.0000 10.6990
L6.0000 10.8870
" />
<path d="M6.0000 10.8870
L6.0000 11.1780
" />
<path d="M6.0000 11.1780
L6.0000 11.4730
" />
<path d="M6.0000 12.3250
L6.0000 11.4730
" />
<path d="M6.0000 12.3250
L6.3000 12.3250
" />
<path d="M6.3000 9.5950
L6.4500 9.5950
" />
<path d="M6.3000 10.3450
L6.3000 9.5950
" />
<path d="M6.3000 10.6990
L6.3000 10.3450
" />
</g>
<g style="fill:#000000; fill-opacity:1.0000; stroke:none;">
<circle cx="6.3000" cy="10.6990" r="0.0100" /> 
</g>
<g style="fill:none; 
stroke:#000000; stroke-width:0.0200; stroke-opacity:1; 
stroke-linecap:round; stroke-linejoin:round;">
<path d="M6.3000 10.8870
L6.3000 10.6990
" />
<path d="M6.3000 11.1780
L6.3000 10.8870
" />
<path d="M6.3000 11.4730
L6.3000 11.1780
" />
<path d="M6.3000 11.4730
L6.3000 12.3250
" />
<path d="M6.4500 9.5950
L6.4500 9.5750
" />
<path d="M7.1200 9.5950
L7.1200 9.5750
" />
<path d="M7.1200 9.5950
L7.2700 9.5950
" />
<path d="M7.2700 9.5950
L7.2700 10.3450
" />
<path d="M7.2700 10.3450
L7.2700 10.6990
" />
</g>
<g style="fill:#000000; fill-opacity:1.0000; stroke:none;">
<circle cx="7.2700" cy="10.6990" r="0.0100" /> 
</g>
<g style="fill:none; 
stroke:#000000; stroke-width:0.0200; stroke-opacity:1; 
stroke-linecap:round; stroke-linejoin:round;">
<path d="M7.2700 10.6990
L7.2700 10.8870
" />
<path d="M7.2700 10.8870
L7.2700 11.1780
" />
<path d="M7.2700 11.1780
L7.2700 11.4730
" />
<path d="M7.2700 12.3250
L7.2700 11.4730
" />
<path d="M7.2700 12.3250
L7.5700 12.3250
" />
<path d="M7.5700 9.5950
L7.7200 9.5950
" />
<path d="M7.5700 10.3450
L7.5700 9.5950
" />
<path d="M7.5700 10.6990
L7.5700 10.3450
" />
</g>
<g style="fill:#000000; fill-opacity:1.0000; stroke:none;">
<circle cx="7.5700" cy="10.6990" r="0.0100" /> 
</g>
<g style="fill:none; 
stroke:#000000; stroke-width:0.0200; stroke-opacity:1; 
stroke-linecap:round; stroke-linejoin:round;">
<path d="M7.5700 10.8870
L7.5700 10.6990
" />
<path d="M7.5700 11.1780
L7.5700 10.8870
" />
<path d="M7.5700 11.4730
L7.5700 11.1780
" />
<path d="M7.5700 11.4730
L7.5700 12.3250
" />
<path d="M7.7200 9.5950
L7.7200 9.5750
" />
<path d="M8.3900 9.5950
L8.3900 9.5750
" />
<path d="M8.3900 9.5950
L8.5400 9.5950
" />
<path d="M8.5400 9.5950
L8.5400 10.3450
" />
<path d="M8.5400 10.3450
L8.5400 10.6990
" />
</g>
<g style="fill:#000000; fill-opacity:1.0000; stroke:none;">
<circle cx="8.5400" cy="10.6990" r="0.0100" /> 
</g>
<g style="fill:none; 
stroke:#000000; stroke-width:0.0200; stroke-opacity:1; 
stroke-linecap:round; stroke-linejoin:round;">
<path d="M8.5400 10.6990
L8.5400 10.8870
" />
<path d="M8.5400 10.8870
L8.5400 11.1780
" />
<path d="M8.5400 11.1780
L8.5400 11.4730
" />
<path d="M8.5400 12.3250
L8.5400 11.4730
" />
<path d="M8.5400 12.3250
L8.8400 12.3250
" />
<path d="M8.8400 9.5950
L8.9900 9.5950
" />
<path d="M8.8400 10.3450
L8.8400 9.5950
" />
<path d="M8.8400 10.6990
L8.8400 10.3450
" />
</g>
<g style="fill:#000000; fill-opacity:1.0000; stroke:none;">
<circle cx="8.8400" cy="10.6990" r="0.0100" /> 
</g>
<g style="fill:none; 
stroke:#000000; stroke-width:0.0200; stroke-opacity:1; 
stroke-linecap:round; stroke-linejoin:round;">
<path d="M8.8400 10.8870
L8.8400 10.6990
" />
<path d="M8.8400 11.1780
L8.8400 10.8870
" />
<path d="M8.8400 11.4730
L8.8400 11.1780
" />
<path d="M8.8400 11.4730
L8.8400 12.3250
" />
<path d="M8.9900 9.5950
L8.9900 9.5750
" />
<path d="M9.6600 9.5950
L9.6600 9.5750
" />
<path d="M9.6600 9.5950
L9.8100 9.5950
" />
<path d="M9.8100 9.5950
L9.8100 10.3450
" />
<path d="M9.8100 10.3450
L9.8100 10.6990
" />
</g>
<g style="fill:#000000; fill-opacity:1.0000; stroke:none;">
<circle cx="9.8100" cy="10.6990" r="0.0100" /> 
</g>
<g style="fill:none; 
stroke:#000000; stroke-width:0.0200; stroke-opacity:1; 
stroke-linecap:round; stroke-linejoin:round;">
<path d="M9.8100 10.6990
L9.8100 10.8870
" />
<path d="M9.8100 10.8870
L9.8100 11.1780
" />
<path d="M9.8100 11.1780
L9.8100 11.4730
" />
<path d="M9.8100 12.3250
L9.8100 11.4730
" />
<path d="M9.8100 12.3250
L10.1100 12.3250
" />
<path d="M10.1100 9.5950
L10.2600 9.5950
" />
<path d="M10.1100 10.3450
L10.1100 9.5950
" />
<path d="M10.1100 10.6990
L10.1100 10.3450
" />
</g>
<g style="fill:#000000; fill-opacity:1.0000; stroke:none;">
<circle cx="10.1100" cy="10.6990" r="0.0100" /> 
</g>
<g style="fill:none; 
stroke:#000000; stroke-width:0.0200; stroke-opacity:1; 
stroke-linecap:round; stroke-linejoin:round;">
<path d="M10.1100 10.8870
L10.1100 10.6990
" />
<path d="M10.1100 11.1780
L10.1100 10.8870
" />
<path d="M10.1100 11.4730
L10.1100 11.1780
" />
<path d="M10.1100 11.4730
L10.1100 12.3250
" />
<path d="M10.2600 9.5950
L10.2600 9.5750
" />
<path d="M10.9300 9.5950
L10.9300 9.5750
" />
<path d="M10.9300 9.5950
L11.0800 9.5950
" />
<path d="M11.0800 9.5950
L11.0800 10.3450
" />
<path d="M11.0800 10.3450
L11.0800 10.6990
" />
</g>
<g style="fill:#000000; fill-opacity:1.0000; stroke:none;">
<circle cx="11.0800" cy="10.6990" r="0.0100" /> 
</g>
<g style="fill:none; 
stroke:#000000; stroke-width:0.0200; stroke-opacity:1; 
stroke-linecap:round; stroke-linejoin:round;">
<path d="M11.0800 10.6990
L11.0800 10.8870
" />
<path d="M11.0800 10.8870
L11.0800 11.1780
" />
<path d="M11.0800 11.1780
L11.0800 11.4730
" />
<path d="M11.0800 12.3250
L11.0800 11.4730
" />
<path d="M11.0800 12.3250
L11.3800 12.3250
" />
<path d="M11.3800 9.5950
L11.5300 9.5950
" />
<path d="M11.3800 10.3450
L11.3800 9.5950
" />
<path d="M11.3800 10.6990
L11.3800 10.3450
" />
</g>
<g style="fill:#000000; fill-opacity:1.0000; stroke:none;">
<circle cx="11.3800" cy="10.6990" r="0.0100" /> 
</g>
<g style="fill:none; 
stroke:#000000; stroke-width:0.0200; stroke-opacity:1; 
stroke-linecap:round; stroke-linejoin:round;">
<path d="M11.3800 10.8870
L11.3800 10.6990
" />
<path d="M11.3800 11.1780
L11.3800 10.8870
" />
<path d="M11.3800 11.4730
L11.3800 11.1780
" />
<path d="M11.3800 11.4730
L11.3800 12.3250
" />
<path d="M11.5300 9.5950
L11.5300 9.5750
" />
<path d="M12.2000 9.5950
L12.2000 9.5750
" />
<path d="M12.2000 9.5950
L12.3500 9.5950
" />
<path d="M12.3500 9.5950
L12.3500 10.3450
" />
<path d="M12.3500 10.3450
L12.3500 10.6990
" />
</g>
<g style="fill:#000000; fill-opacity:1.0000; stroke:none;">
<circle cx="12.3500" cy="10.6990" r="0.0100" /> 
</g>
<g style="fill:none; 
stroke:#000000; stroke-width:0.0200; stroke-opacity:1; 
stroke-linecap:round; stroke-linejoin:round;">
<path d="M12.3500 10.6990
L12.3500 10.8870
" />
<path d="M12.3500 10.8870
L12.3500 11.1780
" />
<path d="M12.3500 11.1780
L12.3500 11.4730
" />
<path d="M12.3500 12.3250
L12.3500 11.4730
" />
<path d="M12.3500 12.3250
L12.6500 12.3250
" />
<path d="M12.6500 9.5950
L12.8000 9.5950
" />
<path d="M12.6500 10.3450
L12.6500 9.5950
" />
<path d="M12.6500 10.6990
L12.6500 10.3450
" />
</g>
<g style="fill:#000000; fill-opacity:1.0000; stroke:none;">
<circle cx="12.6500" cy="10.6990" r="0.0100" /> 
</g>
<g style="fill:none; 
stroke:#000000; stroke-width:0.0200; stroke-opacity:1; 
stroke-linecap:round; stroke-linejoin:round;">
<path d="M12.6500 10.8870
L12.6500 10.6990
" />
<path d="M12.6500 11.1780
L12.6500 10.8870
" />
<path d="M12.6500 11.4730
L12.6500 11.1780
" />
<path d="M12.6500 11.4730
L12.6500 12.3250
" />
<path d="M12.8000 9.5950
L12.8000 9.5750
" />
<path d="M13.4700 9.5950
L13.4700 9.5750
" />
<path d="M13.4700 9.5950
L13.6200 9.5950
" />
<path d="M13.6200 9.5950
L13.6200 10.3450
" />
<path d="M13.6200 10.3450
L13.6200 10.6990
" />
</g>
<g style="fill:#000000; fill-opacity:1.0000; stroke:none;">
<circle cx="13.6200" cy="10.6990" r="0.0100" /> 
</g>
<g style="fill:none; 
stroke:#000000; stroke-width:0.0200; stroke-opacity:1; 
stroke-linecap:round; stroke-linejoin:round;">
<path d="M13.6200 10.6990
L13.6200 10.8870
" />
<path d="M13.6200 10.8870
L13.6200 11.1780
" />
<path d="M13.6200 11.1780
L13.6200 11.4730
" />
<path d="M13.6200 12.3250
L13.6200 11.4730
" />
<path d="M13.6200 12.3250
L13.9200 12.3250
" />
<path d="M13.9200 9.5950
L14.0700 9.5950
" />
<path d="M13.9200 10.3450
L13.9200 9.5950
" />
<path d="M13.9200 10.6990
L13.9200 10.3450
" />
</g>
<g style="fill:#000000; fill-opacity:1.0000; stroke:none;">
<circle cx="13.9200" cy="10.6990" r="0.0100" /> 
</g>
<g style="fill:none; 
stroke:#000000; stroke-width:0.0200; stroke-opacity:1; 
stroke-linecap:round; stroke-linejoin:round;">
<path d="M13.9200 10.8870
L13.9200 10.6990
" />
<path d="M13.9200 11.1780
L13.9200 10.8870
" />
<path d="M13.9200 11.4730
L13.9200 11.1780
" />
<path d="M13.9200 11.4730
L13.9200 12.3250
" />
<path d="M14.0700 9.5950
L14.0700 9.5750
" />
<path d="M19.8200 9.5950
L19.8200 9.5750
" />
<path d="M19.8200 9.5950
L19.9700 9.5950
" />
<path d="M19.9700 9.5950
L19.9700 10.3450
" />
<path d="M19.9700 10.3450
L19.9700 10.6990
" />
</g>
<g style="fill:#000000; fill-opacity:1.0000; stroke:none;">
<circle cx="19.9700" cy="10.6990" r="0.0100" /> 
</g>
<g style="fill:none; 
stroke:#000000; stroke-width:0.0200; stroke-opacity:1; 
stroke-linecap:round; stroke-linejoin:round;">
<path d="M19.9700 10.6990
L19.9700 10.8870
" />
<path d="M19.9700 10.8870
L19.9700 11.1780
" />
<path d="M19.9700 11.1780
L19.9700 11.4730
" />
<path d="M19.9700 12.3250
L19.9700 11.4730
" />
<path d="M19.9700 12.3250
L20.2700 12.3250
" />
<path d="M20.2700 9.5950
L20.4200 9.5950
" />
<path d="M20.2700 10.3450
L20.2700 9.5950
" />
<path d="M20.2700 10.6990
L20.2700 10.3450
" />
</g>
<g style="fill:#000000; fill-opacity:1.0000; stroke:none;">
<circle cx="20.2700" cy="10.6990" r="0.0100" /> 
</g>
<g style="fill:none; 
stroke:#000000; stroke-width:0.0200; stroke-opacity:1; 
stroke-linecap:round; stroke-linejoin:round;">
<path d="M20.2700 10.8870
L20.2700 10.6990
" />
<path d="M20.2700 11.1780
L20.2700 10.8870
" />
<path d="M20.2700 11.4730
L20.2700 11.1780
" />
<path d="M20.2700 11.4730
L20.2700 12.3250
" />
<path d="M20.4200 9.5950
L20.4200 9.5750
" />
<path d="M21.0900 9.5950
L21.0900 9.5750
" />
<path d="M21.0900 9.5950
L21.2400 9.5950
" />
<path d="M21.2400 9.5950
L21.2400 10.3450
" />
<path d="M21.2400 10.3450
L21.2400 10.6990
" />
</g>
<g style="fill:#000000; fill-opacity:1.0000; stroke:none;">
<circle cx="21.2400" cy="10.6990" r="0.0100" /> 
</g>
<g style="fill:none; 
stroke:#000000; stroke-width:0.0200; stroke-opacity:1; 
stroke-linecap:round; stroke-linejoin:round;">
<path d="M21.2400 10.6990
L21.2400 10.8870
" />
<path d="M21.2400 10.8870
L21.2400 11.1780
" />
<path d="M21.2400 11.1780
L21.2400 11.4730
" />
<path d="M21.2400 12.3250
L21.2400 11.4730
" />
<path d="M21.2400 12.3250
L21.5400 12.3250
" />
<path d="M21.5400 9.5950
L21.6900 9.5950
" />
<path d="M21.5400 10.3450
L21.5400 9.5950
" />
<path d="M21.5400 10.6990
L21.5400 10.3450
" />
</g>
<g style="fill:#000000; fill-opacity:1.0000; stroke:none;">
<circle cx="21.5400" cy="10.6990" r="0.0100" /> 
</g>
<g style="fill:none; 
stroke:#000000; stroke-width:0.0200; stroke-opacity:1; 
stroke-linecap:round; stroke-linejoin:round;">
<path d="M21.5400 10.8870
L21.5400 10.6990
" />
<path d="M21.5400 11.1780
L21.5400 10.8870
" />
<path d="M21.5400 11.4730
L21.5400 11.1780
" />
<path d="M21.5400 11.4730
L21.5400 12.3250
" />
<path d="M21.6900 9.5950
L21.6900 9.5750
" />
<path d="M22.3600 9.5950
L22.3600 9.5750
" />
<path d="M22.3600 9.5950
L22.5100 9.5950
" />
<path d="M22.5100 9.5950
L22.5100 10.3450
" />
<path d="M22.5100 10.3450
L22.5100 10.6990
" />
</g>
<g style="fill:#000000; fill-opacity:1.0000; stroke:none;">
<circle cx="22.5100" cy="10.6990" r="0.0100" /> 
</g>
<g style="fill:none; 
stroke:#000000; stroke-width:0.0200; stroke-opacity:1; 
stroke-linecap:round; stroke-linejoin:round;">
<path d="M22.5100 10.6990
L22.5100 10.8870
" />
<path d="M22.5100 10.8870
L22.5100 11.1780
" />
<path d="M22.5100 11.1780
L22.5100 11.4730
" />
<path d="M22.5100 12.3250
L22.5100 11.4730
" />
<path d="M22.5100 12.3250
L22.8100 12.3250
" />
<path d="M22.8100 9.5950
L22.9600 9.5950
" />
<path d="M22.8100 10.3450
L22.8100 9.5950
" />
<path d="M22.8100 10.6990
L22.8100 10.3450
" />
</g>
<g style="fill:#000000; fill-opacity:1.0000; stroke:none;">
<circle cx="22.8100" cy="10.6990" r="0.0100" /> 
</g>
<g style="fill:none; 
stroke:#000000; stroke-width:0.0200; stroke-opacity:1; 
stroke-linecap:round; stroke-linejoin:round;">
<path d="M22.8100 10.8870
L22.8100 10.6990
" />
<path d="M22.8100 11.1780
L22.8100 10.8870
" />
<path d="M22.8100 11.4730
L22.8100 11.1780
" />
<path d="M22.8100 11.4730
L22.8100 12.3250
" />
<path d="M22.9600 9.5950
L22.9600 9.5750
" />
<path d="M23.6300 9.5950
L23.6300 9.5750
" />
<path d="M23.6300 9.5950
L23.7800 9.5950
" />
<path d="M23.7800 9.5950
L23.7800 10.3450
" />
<path d="M23.7800 10.3450
L23.7800 10.6990
" />
</g>
<g style="fill:#000000; fill-opacity:1.0000; stroke:none;">
<circle cx="23.7800" cy="10.6990" r="0.0100" /> 
</g>
<g style="fill:none; 
stroke:#000000; stroke-width:0.0200; stroke-opacity:1; 
stroke-linecap:round; stroke-linejoin:round;">
<path d="M23.7800 10.6990
L23.7800 10.8870
" />
<path d="M23.7800 10.8870
L23.7800 11.1780
" />
<path d="M23.7800 11.1780
L23.7800 11.4730
" />
<path d="M23.7800 12.3250
L23.7800 11.4730
" />
<path d="M23.7800 12.3250
L24.0800 12.3250
" />
<path d="M24.0800 9.5950
L24.2300 9.5950
" />
<path d="M24.0800 10.3450
L24.0800 9.5950
" />
<path d="M24.0800 10.6990
L24.0800 10.3450
" />
</g>
<g style="fill:#000000; fill-opacity:1.0000; stroke:none;">
<circle cx="24.0800" cy="10.6990" r="0.0100" /> 
</g>
<g style="fill:none; 
stroke:#000000; stroke-width:0.0200; stroke-opacity:1; 
stroke-linecap:round; stroke-linejoin:round;">
<path d="M24.0800 10.8870
L24.0800 10.6990
" />
<path d="M24.0800 11.1780
L24.0800 10.8870
" />
<path d="M24.0800 11.4730
L24.0800 11.1780
" />
<path d="M24.0800 11.4730
L24.0800 12.3250
" />
<path d="M24.2300 9.5950
L24.2300 9.5750
" />
<path d="M24.9000 9.5950
L24.9000 9.5750
" />
<path d="M24.9000 9.5950
L25.0500 9.5950
" />
<path d="M25.0500 9.5950
L25.0500 10.3450
" />
<path d="M25.0500 10.3450
L25.0500 10.6990
" />
</g>
<g style="fill:#000000; fill-opacity:1.0000; stroke:none;">
<circle cx="25.0500" cy="10.6990" r="0.0100" /> 
</g>
<g style="fill:none; 
stroke:#000000; stroke-width:0.0200; stroke-opacity:1; 
stroke-linecap:round; stroke-linejoin:round;">
<path d="M25.0500 10.6990
L25.0500 10.8870
" />
<path d="M25.0500 10.8870
L25.0500 11.1780
" />
<path d="M25.0500 11.1780
L25.0500 11.4730
" />
<path d="M25.0500 12.3250
L25.0500 11.4730
" />
<path d="M25.0500 12.3250
L25.3500 12.3250
" />
<path d="M25.3500 9.5950
L25.5000 9.5950
" />
<path d="M25.3500 10.3450
L25.3500 9.5950
" />
<path d="M25.3500 10.6990
L25.3500 10.3450
" />
</g>
<g style="fill:#000000; fill-opacity:1.0000; stroke:none;">
<circle cx="25.3500" cy="10.6990" r="0.0100" /> 
</g>
<g style="fill:none; 
stroke:#000000; stroke-width:0.0200; stroke-opacity:1; 
stroke-linecap:round; stroke-linejoin:round;">
<path d="M25.3500 10.8870
L25.3500 10.6990
" />
<path d="M25.3500 11.1780
L25.3500 10.8870
" />
<path d="M25.3500 11.4730
L25.3500 11.1780
" />
<path d="M25.3500 11.4730
L25.3500 12.3250
" />
<path d="M25.5000 9.5950
L25.5000 9.5750
" />
<path d="M26.1700 9.5950
L26.1700 9.5750
" />
<path d="M26.1700 9.5950
L26.3200 9.5950
" />
<path d="M26.3200 9.5950
L26.3200 10.3450
" />
<path d="M26.3200 10.3450
L26.3200 10.6990
" />
</g>
<g style="fill:#000000; fill-opacity:1.0000; stroke:none;">
<circle cx="26.3200" cy="10.6990" r="0.0100" /> 
</g>
<g style="fill:none; 
stroke:#000000; stroke-width:0.0200; stroke-opacity:1; 
stroke-linecap:round; stroke-linejoin:round;">
<path d="M26.3200 10.6990
L26.3200 10.8870
" />
<path d="M26.3200 10.8870
L26.3200 11.1780
" />
<path d="M26.3200 11.1780
L26.3200 11.4730
" />
<path d="M26.3200 12.3250
L26.3200 11.4730
" />
<path d="M26.3200 12.3250
L26.6200 12.3250
" />
<path d="M26.6200 9.5950
L26.7700 9.5950
" />
<path d="M26.6200 10.3450
L26.6200 9.5950
" />
<path d="M26.6200 10.6990
L26.6200 10.3450
" />
</g>
<g style="fill:#000000; fill-opacity:1.0000; stroke:none;">
<circle cx="26.6200" cy="10.6990" r="0.0100" /> 
</g>
<g style="fill:none; 
stroke:#000000; stroke-width:0.0200; stroke-opacity:1; 
stroke-linecap:round; stroke-linejoin:round;">
<path d="M26.6200 10.8870
L26.6200 10.6990
" />
<path d="M26.6200 11.1780
L26.6200 10.8870
" />
<path d="M26.6200 11.4730
L26.6200 11.1780
" />
<path d="M26.6200 11.4730
L26.6200 12.3250
" />
<path d="M26.7700 9.5950
L26.7700 9.5750
" />
<path d="M27.4400 9.5950
L27.4400 9.5750
" />
<path d="M27.4400 9.5950
L27.5900 9.5950
" />
<path d="M27.5900 9.5950
L27.5900 10.3450
" />
<path d="M27.5900 10.3450
L27.5900 10.6990
" />
</g>
<g style="fill:#000000; fill-opacity:1.0000; stroke:none;">
<circle cx="27.5900" cy="10.6990" r="0.0100" /> 
</g>
<g style="fill:none; 
stroke:#000000; stroke-width:0.0200; stroke-opacity:1; 
stroke-linecap:round; stroke-linejoin:round;">
<path d="M27.5900 10.6990
L27.5900 10.8870
" />
<path d="M27.5900 10.8870
L27.5900 11.1780
" />
<path d="M27.5900 11.1780
L27.5900 11.4730
" />
<path d="M27.5900 12.3250
L27.5900 11.4730
" />
<path d="M27.5900 12.3250
L27.8900 12.3250
" />
<path d="M27.8900 9.5950
L28.0400 9.5950
" />
<path d="M27.8900 10.3450
L27.8900 9.5950
" />
<path d="M27.8900 10.6990
L27.8900 10.3450
" />
</g>
<g style="fill:#000000; fill-opacity:1.0000; stroke:none;">
<circle cx="27.8900" cy="10.6990" r="0.0100" /> 
</g>
<g style="fill:none; 
stroke:#000000; stroke-width:0.0200; stroke-opacity:1; 
stroke-linecap:round; stroke-linejoin:round;">
<path d="M27.8900 10.8870
L27.8900 10.6990
" />
<path d="M27.8900 11.1780
L27.8900 10.8870
" />
<path d="M27.8900 11.4730
L27.8900 11.1780
" />
<path d="M27.8900 11.4730
L27.8900 12.3250
" />
<path d="M28.0400 9.5950
L28.0400 9.5750
" />
<path d="M28.7100 9.5950
L28.7100 9.5750
" />
<path d="M28.7100 9.5950
L28.8600 9.5950
" />
<path d="M28.8600 9.5950
L28.8600 10.3450
" />
<path d="M28.8600 10.3450
L28.8600 10.6990
" />
</g>
<g style="fill:#000000; fill-opacity:1.0000; stroke:none;">
<circle cx="28.8600" cy="10.6990" r="0.0100" /> 
</g>
<g style="fill:none; 
stroke:#000000; stroke-width:0.0200; stroke-opacity:1; 
stroke-linecap:round; stroke-linejoin:round;">
<path d="M28.8600 10.6990
L28.8600 10.8870
" />
<path d="M28.8600 10.8870
L28.8600 11.1780
" />
<path d="M28.8600 11.1780
L28.8600 11.4730
" />
<path d="M28.8600 12.3250
L28.8600 11.4730
" />
<path d="M28.8600 12.3250
L29.1600 12.3250
" />
<path d="M29.1600 9.5950
L29.3100 9.5950
" />
<path d="M29.1600 10.3450
L29.1600 9.5950
" />
<path d="M29.1600 10.6990
L29.1600 10.3450
" />
</g>
<g style="fill:#000000; fill-opacity:1.0000; stroke:none;">
<circle cx="29.1600" cy="10.6990" r="0.0100" /> 
</g>
<g style="fill:none; 
stroke:#000000; stroke-width:0.0200; stroke-opacity:1; 
stroke-linecap:round; stroke-linejoin:round;">
<path d="M29.1600 10.8870
L29.1600 10.6990
" />
<path d="M29.1600 11.1780
L29.1600 10.8870
" />
<path d="M29.1600 11.4730
L29.1600 11.1780
" />
<path d="M29.1600 11.4730
L29.1600 12.3250
" />
<path d="M29.3100 9.5950
L29.3100 9.5750
" />
<path d="M29.9800 9.5950
L29.9800 9.5750
" />
<path d="M29.9800 9.5950
L30.1300 9.5950
" />
<path d="M30.1300 9.5950
L30.1300 10.3450
" />
<path d="M30.1300 10.3450
L30.1300 10.6990
" />
</g>
<g style="fill:#000000; fill-opacity:1.0000; stroke:none;">
<circle cx="30.1300" cy="10.6990" r="0.0100" /> 
</g>
<g style="fill:none; 
stroke:#000000; stroke-width:0.0200; stroke-opacity:1; 
stroke-linecap:round; stroke-linejoin:round;">
<path d="M30.1300 10.6990
L30.1300 10.8870
" />
<path d="M30.1300 10.8870
L30.1300 11.1780
" />
<path d="M30.1300 11.1780
L30.1300 11.4730
" />
<path d="M30.1300 12.3250
L30.1300 11.4730
" />
<path d="M30.1300 12.3250
L30.4300 12.3250
" />
<path d="M30.4300 9.5950
L30.5800 9.5950
" />
<path d="M30.4300 10.3450
L30.4300 9.5950
" />
<path d="M30.4300 10.6990
L30.4300 10.3450
" />
</g>
<g style="fill:#000000; fill-opacity:1.0000; stroke:none;">
<circle cx="30.4300" cy="10.6990" r="0.0100" /> 
</g>
<g style="fill:none; 
stroke:#000000; stroke-width:0.0200; stroke-opacity:1; 
stroke-linecap:round; stroke-linejoin:round;">
<path d="M30.4300 10.8870
L30.4300 10.6990
" />
<path d="M30.4300 11.1780
L30.4300 10.8870
" />
<path d="M30.4300 11.4730
L30.4300 11.1780
" />
<path d="M30.4300 11.4730
L30.4300 12.3250
" />
<path d="M30.5800 9.5950
L30.5800 9.5750
" />
<path d="M31.2500 9.5950
L31.2500 9.5750
" />
<path d="M31.2500 9.5950
L31.4000 9.5950
" />
<path d="M31.4000 9.5950
L31.4000 10.3450
" />
<path d="M31.4000 10.3450
L31.4000 10.6990
" />
</g>
<g style="fill:#000000; fill-opacity:1.0000; stroke:none;">
<circle cx="31.4000" cy="10.6990" r="0.0100" /> 
</g>
<g style="fill:none; 
stroke:#000000; stroke-width:0.0200; stroke-opacity:1; 
stroke-linecap:round; stroke-linejoin:round;">
<path d="M31.4000 10.6990
L31.4000 10.8870
" />
<path d="M31.4000 10.8870
L31.4000 11.1780
" />
<path d="M31.4000 11.1780
L31.4000 11.4730
" />
<path d="M31.4000 12.3250
L31.4000 11.4730
" />
<path d="M31.4000 12.3250
L31.7000 12.3250
" />
<path d="M31.7000 9.5950
L31.8500 9.5950
" />
<path d="M31.7000 10.3450
L31.7000 9.5950
" />
<path d="M31.7000 10.6990
L31.7000 10.3450
" />
</g>
<g style="fill:#000000; fill-opacity:1.0000; stroke:none;">
<circle cx="31.7000" cy="10.6990" r="0.0100" /> 
</g>
<g style="fill:none; 
stroke:#000000; stroke-width:0.0200; stroke-opacity:1; 
stroke-linecap:round; stroke-linejoin:round;">
<path d="M31.7000 10.8870
L31.7000 10.6990
" />
<path d="M31.7000 11.1780
L31.7000 10.8870
" />
<path d="M31.7000 11.4730
L31.7000 11.1780
" />
<path d="M31.7000 11.4730
L31.7000 12.3250
" />
<path d="M31.8500 9.5950
L31.8500 9.5750
" />
<path d="M32.5200 9.5950
L32.5200 9.5750
" />
<path d="M32.5200 9.5950
L32.6700 9.5950
" />
<path d="M32.6700 9.5950
L32.6700 10.3450
" />
<path d="M32.6700 10.3450
L32.6700 10.6990
" />
</g>
<g style="fill:#000000; fill-opacity:1.0000; stroke:none;">
<circle cx="32.6700" cy="10.6990" r="0.0100" /> 
</g>
<g style="fill:none; 
stroke:#000000; stroke-width:0.0200; stroke-opacity:1; 
stroke-linecap:round; stroke-linejoin:round;">
<path d="M32.6700 10.6990
L32.6700 10.8870
" />
<path d="M32.6700 10.8870
L32.6700 11.1780
" />
<path d="M32.6700 11.1780
L32.6700 11.4730
" />
<path d="M32.6700 12.3250
L32.6700 11.4730
" />
<path d="M32.6700 12.3250
L32.9700 12.3250
" />
<path d="M32.9700 9.5950
L33.1200 9.5950
" />
<path d="M32.9700 10.3450
L32.9700 9.5950
" />
<path d="M32.9700 10.6990
L32.9700 10.3450
" />
</g>
<g style="fill:#000000; fill-opacity:1.0000; stroke:none;">
<circle cx="32.9700" cy="10.6990" r="0.0100" /> 
</g>
<g style="fill:none; 
stroke:#000000; stroke-width:0.0200; stroke-opacity:1; 
stroke-linecap:round; stroke-linejoin:round;">
<path d="M32.9700 10.8870
L32.9700 10.6990
" />
<path d="M32.9700 11.1780
L32.9700 10.8870
" />
<path d="M32.9700 11.4730
L32.9700 11.1780
" />
<path d="M32.9700 11.4730
L32.9700 12.3250
" />
<path d="M33.1200 9.5950
L33.1200 9.5750
" />
<path d="M33.7900 9.5950
L33.7900 9.5750
" />
<path d="M33.7900 9.5950
L33.9400 9.5950
" />
<path d="M33.9400 9.5950
L33.9400 10.3450
" />
<path d="M33.9400 10.3450
L33.9400 10.6990
" />
</g>
<g style="fill:#000000; fill-opacity:1.0000; stroke:none;">
<circle cx="33.9400" cy="10.6990" r="0.0100" /> 
</g>
<g style="fill:none; 
stroke:#000000; stroke-width:0.0200; stroke-opacity:1; 
stroke-linecap:round; stroke-linejoin:round;">
<path d="M33.9400 10.6990
L33.9400 10.8870
" />
<path d="M33.9400 10.8870
L33.9400 11.1780
" />
<path d="M33.9400 11.1780
L33.9400 11.4730
" />
<path d="M33.9400 12.3250
L33.9400 11.4730
" />
<path d="M33.9400 12.3250
L34.2400 12.3250
" />
<path d="M34.2400 9.5950
L34.3900 9.5950
" />
<path d="M34.2400 10.3450
L34.2400 9.5950
" />
<path d="M34.2400 10.6990
L34.2400 10.3450
" />
</g>
<g style="fill:#000000; fill-opacity:1.0000; stroke:none;">
<circle cx="34.2400" cy="10.6990" r="0.0100" /> 
</g>
<g style="fill:none; 
stroke:#000000; stroke-width:0.0200; stroke-opacity:1; 
stroke-linecap:round; stroke-linejoin:round;">
<path d="M34.2400 10.8870
L34.2400 10.6990
" />
<path d="M34.2400 11.1780
L34.2400 10.8870
" />
<path d="M34.2400 11.4730
L34.2400 11.1780
" />
<path d="M34.2400 11.4730
L34.2400 12.3250
" />
<path d="M34.3900 9.5950
L34.3900 9.5750
" />
<path d="M35.0600 9.5950
L35.0600 9.5750
" />
<path d="M35.0600 9.5950
L35.2100 9.5950
" />
<path d="M35.2100 9.5950
L35.2100 10.3450
" />
<path d="M35.2100 10.3450
L35.2100 10.6990
" />
</g>
<g style="fill:#000000; fill-opacity:1.0000; stroke:none;">
<circle cx="35.2100" cy="10.6990" r="0.0100" /> 
</g>
<g style="fill:none; 
stroke:#000000; stroke-width:0.0200; stroke-opacity:1; 
stroke-linecap:round; stroke-linejoin:round;">
<path d="M35.2100 10.6990
L35.2100 10.8870
" />
<path d="M35.2100 10.8870
L35.2100 11.1780
" />
<path d="M35.2100 11.1780
L35.2100 11.4730
" />
<path d="M35.2100 12.3250
L35.2100 11.4730
" />
<path d="M35.2100 12.3250
L35.5100 12.3250
" />
<path d="M35.5100 9.5950
L35.6600 9.5950
" />
<path d="M35.5100 10.3450
L35.5100 9.5950
" />
<path d="M35.5100 10.6990
L35.5100 10.3450
" />
</g>
<g style="fill:#000000; fill-opacity:1.0000; stroke:none;">
<circle cx="35.5100" cy="10.6990" r="0.0100" /> 
</g>
<g style="fill:none; 
stroke:#000000; stroke-width:0.0200; stroke-opacity:1; 
stroke-linecap:round; stroke-linejoin:round;">
<path d="M35.5100 10.8870
L35.5100 10.6990
" />
<path d="M35.5100 11.1780
L35.5100 10.8870
" />
<path d="M35.5100 11.4730
L35.5100 11.1780
" />
<path d="M35.5100 11.4730
L35.5100 12.3250
" />
<path d="M35.6600 9.5950
L35.6600 9.5750
" />
<path d="M36.3300 9.5950
L36.3300 9.5750
" />
<path d="M36.3300 9.5950
L36.4800 9.5950
" />
<path d="M36.4800 9.5950
L36.4800 10.3450
" />
<path d="M36.4800 10.3450
L36.4800 10.6990
" />
</g>
<g style="fill:#000000; fill-opacity:1.0000; stroke:none;">
<circle cx="36.4800" cy="10.6990" r="0.0100" /> 
</g>
<g style="fill:none; 
stroke:#000000; stroke-width:0.0200; stroke-opacity:1; 
stroke-linecap:round; stroke-linejoin:round;">
<path d="M36.4800 10.6990
L36.4800 10.8870
" />
<path d="M36.4800 10.8870
L36.4800 11.1780
" />
<path d="M36.4800 11.1780
L36.4800 11.4730
" />
<path d="M36.4800 12.3250
L36.4800 11.4730
" />
<path d="M36.4800 12.3250
L36.7800 12.3250
" />
<path d="M36.7800 9.5950
L36.9300 9.5950
" />
<path d="M36.7800 10.3450
L36.7800 9.5950
" />
<path d="M36.7800 10.6990
L36.7800 10.3450
" />
</g>
<g style="fill:#000000; fill-opacity:1.0000; stroke:none;">
<circle cx="36.7800" cy="10.6990" r="0.0100" /> 
</g>
<g style="fill:none; 
stroke:#000000; stroke-width:0.0200; stroke-opacity:1; 
stroke-linecap:round; stroke-linejoin:round;">
<path d="M36.7800 10.8870
L36.7800 10.6990
" />
<path d="M36.7800 11.1780
L36.7800 10.8870
" />
<path d="M36.7800 11.4730
L36.7800 11.1780
" />
<path d="M36.7800 11.4730
L36.7800 12.3250
" />
<path d="M36.9300 9.5950
L36.9300 9.5750
" />
<path d="M37.6000 9.5950
L37.6000 9.5750
" />
<path d="M37.6000 9.5950
L37.7500 9.5950
" />
<path d="M37.7500 9.5950
L37.7500 10.3450
" />
<path d="M37.7500 10.3450
L37.7500 10.6990
" />
</g>
<g style="fill:#000000; fill-opacity:1.0000; stroke:none;">
<circle cx="37.7500" cy="10.6990" r="0.0100" /> 
</g>
<g style="fill:none; 
stroke:#000000; stroke-width:0.0200; stroke-opacity:1; 
stroke-linecap:round; stroke-linejoin:round;">
<path d="M37.7500 10.6990
L37.7500 10.8870
" />
<path d="M37.7500 10.8870
L37.7500 11.1780
" />
<path d="M37.7500 11.1780
L37.7500 11.4730
" />
<path d="M37.7500 12.3250
L37.7500 11.4730
" />
<path d="M37.7500 12.3250
L38.0500 12.3250
" />
<path d="M38.0500 9.5950
L38.2000 9.5950
" />
<path d="M38.0500 10.3450
L38.0500 9.5950
" />
<path d="M38.0500 10.6990
L38.0500 10.3450
" />
</g>
<g style="fill:#000000; fill-opacity:1.0000; stroke:none;">
<circle cx="38.0500" cy="10.6990" r="0.0100" /> 
</g>
<g style="fill:none; 
stroke:#000000; stroke-width:0.0200; stroke-opacity:1; 
stroke-linecap:round; stroke-linejoin:round;">
<path d="M38.0500 10.8870
L38.0500 10.6990
" />
<path d="M38.0500 11.1780
L38.0500 10.8870
" />
<path d="M38.0500 11.4730
L38.0500 11.1780
" />
<path d="M38.0500 11.4730
L38.0500 12.3250
" />
<path d="M38.2000 9.5950
L38.2000 9.5750
" />
<path d="M39.5250 12.7250
L39.5250 9.5750
" />
<path d="M40.1200 1.0700
L40.1200 2.0250
" />
<path d="M40.1200 7.7250
L40.1200 2.0250
" />
<path d="M40.1200 7.7250
L42.7250 7.7250
" />
<path d="M40.5500 0.3250
L40.1200 1.0700
" />
<path d="M40.5750 12.7250
L39.5250 12.7250
" />
<path d="M40.5750 12.7250
L40.9290 12.7250
" />
<path d="M40.7590 0.3250
L40.5500 0.3250
" />
</g>
<g style="fill:#000000; fill-opacity:1.0000; stroke:none;">
<circle cx="40.9290" cy="12.7250" r="0.0100" /> 
</g>
<g style="fill:none; 
stroke:#000000; stroke-width:0.0200; stroke-opacity:1; 
stroke-linecap:round; stroke-linejoin:round;">
<path d="M40.9290 12.7250
L41.0750 12.7250
" />
<path d="M40.9640 0.3250
L40.7590 0.3250
" />
</g>
<g style="fill:#000000; fill-opacity:1.0000; stroke:none;">
<circle cx="40.9640" cy="0.3250" r="0.0100" /> 
</g>
<g style="fill:none; 
stroke:#000000; stroke-width:0.0200; stroke-opacity:1; 
stroke-linecap:round; stroke-linejoin:round;">
<path d="M41.0500 0.3250
L40.9640 0.3250
" />
<path d="M41.0750 12.7250
L41.0750 9.5750
" />
<path d="M41.9400 2.0250
L40.1200 2.0250
" />
<path d="M41.9400 2.0250
L41.9480 2.0250
" />
<path d="M41.9480 2.0250
L41.9750 2.0220
" />
<path d="M41.9750 2.0220
L42.0010 2.0190
" />
<path d="M42.0010 2.0190
L42.0520 2.0130
" />
<path d="M42.0520 2.0130
L42.0990 2.0080
" />
<path d="M42.0800 2.0100
L42.0560 2.0130
" />
<path d="M42.0990 2.0080
L42.1210 2.0060
" />
<path d="M42.1020 2.0080
L42.0800 2.0100
" />
<path d="M42.1210 2.0060
L42.1410 2.0050
" />
<path d="M42.1240 2.0060
L42.1020 2.0080
" />
</g>
<g style="fill:#000000; fill-opacity:1.0000; stroke:none;">
<circle cx="42.1410" cy="2.0050" r="0.0100" /> 
</g>
<g style="fill:none; 
stroke:#000000; stroke-width:0.0200; stroke-opacity:1; 
stroke-linecap:round; stroke-linejoin:round;">
<path d="M42.1410 2.0050
L42.1510 2.0040
" />
<path d="M42.1440 2.0050
L42.1240 2.0060
" />
<path d="M42.1510 2.0040
L42.1600 2.0040
" />
<path d="M42.1600 2.0040
L42.1690 2.0040
" />
<path d="M42.1690 2.0040
L42.1770 2.0040
" />
<path d="M42.1770 2.0040
L42.1850 2.0040
" />
<path d="M42.1850 2.0040
L42.1920 2.0050
" />
<path d="M42.1920 2.0050
L42.1990 2.0050
" />
<path d="M42.1990 2.0050
L42.2050 2.0060
" />
<path d="M42.2050 2.0060
L42.2110 2.0070
" />
<path d="M42.2110 2.0070
L42.2160 2.0090
" />
<path d="M42.2160 2.0090
L42.2210 2.0100
" />
<path d="M42.2210 2.0100
L42.2250 2.0120
" />
<path d="M42.2250 2.0120
L42.2290 2.0140
" />
<path d="M42.2290 2.0140
L42.2320 2.0160
" />
<path d="M42.2320 2.0160
L42.2350 2.0180
" />
<path d="M42.2350 2.0180
L42.2370 2.0210
" />
<path d="M42.2370 2.0210
L41.0500 0.3250
" />
<path d="M42.2370 2.0210
L42.2390 2.0240
" />
<path d="M42.2390 2.0240
L42.2370 2.0210
" />
<path d="M42.2390 2.0240
L42.2400 2.0250
" />
<path d="M42.2400 2.0250
L42.2390 2.0240
" />
</g>
<g style="fill:#000000; fill-opacity:1.0000; stroke:none;">
<circle cx="42.2400" cy="2.0250" r="0.0100" /> 
</g>
<g style="fill:none; 
stroke:#000000; stroke-width:0.0200; stroke-opacity:1; 
stroke-linecap:round; stroke-linejoin:round;">
<path d="M42.2400 2.0250
L42.2400 7.7250
" />
<path d="M42.7250 9.5750
L43.0790 9.5750
" />
<path d="M43.0790 7.7250
L42.7250 7.7250
" />
</g>
<g style="fill:#000000; fill-opacity:1.0000; stroke:none;">
<circle cx="43.0790" cy="7.7250" r="0.0100" /> 
<circle cx="43.0790" cy="9.5750" r="0.0100" /> 
</g>
<g style="fill:none; 
stroke:#000000; stroke-width:0.0200; stroke-opacity:1; 
stroke-linecap:round; stroke-linejoin:round;">
<path d="M43.0790 9.5750
L43.2250 9.5750
" />
<path d="M43.2250 7.7250
L43.0790 7.7250
" />
<path d="M43.2250 9.5750
L43.2250 7.7250
" />
<path d="M43.2250 9.5750
L43.2250 12.7250
" />
<path d="M43.2250 12.7250
L41.0750 12.7250
" />
</g> 
</svg>
