{
  "accessors": [
    {
      "bufferView": 0,
      "byteOffset": 0,
      "componentType": 5126,
      "normalized": false,
      "count": 256,
      "type": "VEC3",
      "max": [
        6.999999523162842,
        1.1048165559768677,
        6.999999523162842
      ],
      "min": [
        -6.999999523162842,
        0.10499968379735947,
        -6.999999523162842
      ]
    },
    {
      "bufferView": 0,
      "byteOffset": 12,
      "componentType": 5126,
      "normalized": false,
      "count": 256,
      "type": "VEC3"
    },
    {
      "bufferView": 0,
      "byteOffset": 24,
      "componentType": 5126,
      "normalized": false,
      "count": 256,
      "type": "VEC2"
    },
    {
      "bufferView": 0,
      "byteOffset": 32,
      "componentType": 5126,
      "normalized": false,
      "count": 256,
      "type": "VEC2"
    },
    {
      "bufferView": 1,
      "byteOffset": 0,
      "componentType": 5123,
      "normalized": false,
      "count": 450,
      "type": "SCALAR"
    },
    {
      "bufferView": 1,
      "byteOffset": 900,
      "componentType": 5123,
      "normalized": false,
      "count": 80400,
      "type": "SCALAR"
    },
    {
      "bufferView": 1,
      "byteOffset": 161700,
      "componentType": 5123,
      "normalized": false,
      "count": 498,
      "type": "SCALAR"
    },
    {
      "bufferView": 1,
      "byteOffset": 162696,
      "componentType": 5123,
      "normalized": false,
      "count": 96,
      "type": "SCALAR"
    },
    {
      "bufferView": 2,
      "byteOffset": 0,
      "componentType": 5126,
      "normalized": false,
      "count": 38206,
      "type": "VEC3",
      "max": [
        8.0,
        0.6798455119132996,
        8.0
      ],
      "min": [
        -8.0,
        0.004999647848308086,
        -8.0
      ]
    },
    {
      "bufferView": 2,
      "byteOffset": 12,
      "componentType": 5126,
      "normalized": false,
      "count": 38206,
      "type": "VEC3"
    },
    {
      "bufferView": 2,
      "byteOffset": 24,
      "componentType": 5126,
      "normalized": false,
      "count": 38206,
      "type": "VEC2"
    },
    {
      "bufferView": 2,
      "byteOffset": 32,
      "componentType": 5126,
      "normalized": false,
      "count": 38206,
      "type": "VEC2"
    },
    {
      "bufferView": 3,
      "byteOffset": 0,
      "componentType": 5126,
      "normalized": false,
      "count": 230,
      "type": "VEC3",
      "max": [
        -5.096972465515137,
        1.1050087213516235,
        -5.096974849700928
      ],
      "min": [
        -5.603024482727051,
        1.0549997091293335,
        -5.603026866912842
      ]
    },
    {
      "bufferView": 3,
      "byteOffset": 12,
      "componentType": 5126,
      "normalized": false,
      "count": 230,
      "type": "VEC3"
    },
    {
      "bufferView": 3,
      "byteOffset": 24,
      "componentType": 5126,
      "normalized": false,
      "count": 230,
      "type": "VEC2"
    },
    {
      "bufferView": 3,
      "byteOffset": 32,
      "componentType": 5126,
      "normalized": false,
      "count": 230,
      "type": "VEC2"
    },
    {
      "bufferView": 4,
      "byteOffset": 0,
      "componentType": 5126,
      "normalized": false,
      "count": 36,
      "type": "VEC3",
      "max": [
        6.906556606292725,
        1.1049995422363281,
        6.906674861907959
      ],
      "min": [
        -6.906663417816162,
        1.1049995422363281,
        -6.9090752601623535
      ]
    },
    {
      "bufferView": 4,
      "byteOffset": 12,
      "componentType": 5126,
      "normalized": false,
      "count": 36,
      "type": "VEC3"
    },
    {
      "bufferView": 4,
      "byteOffset": 24,
      "componentType": 5126,
      "normalized": false,
      "count": 36,
      "type": "VEC2"
    },
    {
      "bufferView": 4,
      "byteOffset": 32,
      "componentType": 5126,
      "normalized": false,
      "count": 36,
      "type": "VEC2"
    }
  ],
  "asset": {
    "generator": "pygltflib@v1.16.5",
    "version": "2.0"
  },
  "bufferViews": [
    {
      "buffer": 0,
      "byteOffset": 0,
      "byteLength": 10240,
      "byteStride": 40,
      "target": 34962
    },
    {
      "buffer": 0,
      "byteOffset": 10240,
      "byteLength": 162888,
      "target": 34963
    },
    {
      "buffer": 0,
      "byteOffset": 173128,
      "byteLength": 1528240,
      "byteStride": 40,
      "target": 34962
    },
    {
      "buffer": 0,
      "byteOffset": 1701368,
      "byteLength": 9200,
      "byteStride": 40,
      "target": 34962
    },
    {
      "buffer": 0,
      "byteOffset": 1710568,
      "byteLength": 1440,
      "byteStride": 40,
      "target": 34962
    }
  ],
  "buffers": [
    {
      "uri": "TQFP-100_14x14mm_P0.5mm-texas-instruments-scansta112vs-nopb.bin",
      "byteLength": 1712008
    }
  ],
  "extensionsUsed": [
    "KHR_materials_ior",
    "KHR_materials_specular",
    "KHR_texture_basisu"
  ],
  "extensionsRequired": [
    "KHR_texture_basisu"
  ],
  "images": [
    {
      "uri": "../shared_textures/plastic_chip_normal512.ktx2",
      "mimeType": "image/ktx2",
      "name": "plastic_chip_normal512"
    },
    {
      "uri": "../shared_textures/metal_pins_normal512.ktx2",
      "mimeType": "image/ktx2",
      "name": "metal_pins_normal512"
    },
    {
      "uri": "../shared_textures/metal_pins_color512.ktx2",
      "mimeType": "image/ktx2",
      "name": "metal_pins_color512"
    },
    {
      "uri": "../shared_textures/plastic_glossy_black_normal512.ktx2",
      "mimeType": "image/ktx2",
      "name": "plastic_glossy_black_normal512"
    },
    {
      "uri": "../shared_textures/plastic_glossy_black_roughness512.ktx2",
      "mimeType": "image/ktx2",
      "name": "plastic_glossy_black_roughness512"
    },
    {
      "uri": "texas-instruments-scansta112vs-nopb-marking_normal.ktx2",
      "mimeType": "image/ktx2",
      "name": "texas-instruments-scansta112vs-nopb-marking_normal"
    },
    {
      "uri": "texas-instruments-scansta112vs-nopb-marking_color.ktx2",
      "mimeType": "image/ktx2",
      "name": "texas-instruments-scansta112vs-nopb-marking_color"
    },
    {
      "uri": "texas-instruments-scansta112vs-nopb-marking_metallic_roughness.ktx2",
      "mimeType": "image/ktx2",
      "name": "texas-instruments-scansta112vs-nopb-marking_metallic_roughness"
    }
  ],
  "materials": [
    {
      "pbrMetallicRoughness": {
        "baseColorFactor": [
          0.009133999235928059,
          0.009134066291153431,
          0.009134061634540558,
          1.0
        ],
        "metallicFactor": 0.13699999451637268,
        "roughnessFactor": 0.37063413858413696
      },
      "normalTexture": {
        "index": 0,
        "scale": 1.0
      },
      "emissiveFactor": [
        0.0,
        0.0,
        0.0
      ],
      "alphaMode": "OPAQUE",
      "doubleSided": true,
      "name": "gltf_plastic_chip"
    },
    {
      "extensions": {
        "KHR_materials_ior": {
          "ior": 1.4500000476837158
        },
        "KHR_materials_specular": {
          "specularFactor": 0
        }
      },
      "pbrMetallicRoughness": {
        "baseColorFactor": [
          1.0,
          1.0,
          1.0,
          1.0
        ],
        "metallicFactor": 0.7818182110786438,
        "roughnessFactor": 0.28863638639450073,
        "baseColorTexture": {
          "index": 1,
          "texCoord": 0
        }
      },
      "normalTexture": {
        "index": 2,
        "scale": 1.0
      },
      "emissiveFactor": [
        0.0,
        0.0,
        0.0
      ],
      "alphaMode": "OPAQUE",
      "doubleSided": true,
      "name": "gltf_metal_pins"
    },
    {
      "pbrMetallicRoughness": {
        "baseColorFactor": [
          0.009134065359830856,
          0.009134065359830856,
          0.009134065359830856,
          1.0
        ],
        "metallicFactor": 0.13699999451637268,
        "roughnessFactor": 1.0,
        "metallicRoughnessTexture": {
          "index": 4,
          "texCoord": 0
        }
      },
      "normalTexture": {
        "index": 3,
        "scale": 1.0
      },
      "emissiveFactor": [
        0.0,
        0.0,
        0.0
      ],
      "alphaMode": "OPAQUE",
      "doubleSided": true,
      "name": "gltf_plastic_glossy_black"
    },
    {
      "pbrMetallicRoughness": {
        "baseColorFactor": [
          1.0,
          1.0,
          1.0,
          1.0
        ],
        "metallicFactor": 1.0,
        "roughnessFactor": 1.0,
        "baseColorTexture": {
          "index": 5,
          "texCoord": 1
        },
        "metallicRoughnessTexture": {
          "index": 7,
          "texCoord": 1
        }
      },
      "normalTexture": {
        "index": 6,
        "texCoord": 1,
        "scale": 1.0
      },
      "emissiveFactor": [
        0.0,
        0.0,
        0.0
      ],
      "alphaMode": "OPAQUE",
      "doubleSided": true,
      "name": "gltf_texas-instruments-scansta112vs-nopb-marking"
    }
  ],
  "meshes": [
    {
      "primitives": [
        {
          "attributes": {
            "POSITION": 0,
            "NORMAL": 1,
            "TEXCOORD_0": 2,
            "TEXCOORD_1": 3
          },
          "indices": 4,
          "mode": 4,
          "material": 0
        },
        {
          "attributes": {
            "POSITION": 8,
            "NORMAL": 9,
            "TEXCOORD_0": 10,
            "TEXCOORD_1": 11
          },
          "indices": 5,
          "mode": 4,
          "material": 1
        },
        {
          "attributes": {
            "POSITION": 12,
            "NORMAL": 13,
            "TEXCOORD_0": 14,
            "TEXCOORD_1": 15
          },
          "indices": 6,
          "mode": 4,
          "material": 2
        },
        {
          "attributes": {
            "POSITION": 16,
            "NORMAL": 17,
            "TEXCOORD_0": 18,
            "TEXCOORD_1": 19
          },
          "indices": 7,
          "mode": 4,
          "material": 3
        }
      ],
      "name": "TQFP-100_14x14mm_P0.5mm-texas-instruments-scansta112vs-nopb"
    }
  ],
  "nodes": [
    {
      "extras": {
        "PRIO": 0,
        "DISPLAY_ROT": "90",
        "model_diagonal": 22.654138724828073
      },
      "mesh": 0,
      "name": "TQFP-100_14x14mm_P0.5mm-texas-instruments-scansta112vs-nopb"
    }
  ],
  "samplers": [
    {
      "magFilter": 9729,
      "minFilter": 9987,
      "wrapS": 10497,
      "wrapT": 10497
    }
  ],
  "scene": 0,
  "scenes": [
    {
      "name": "Scene",
      "nodes": [
        0
      ]
    }
  ],
  "textures": [
    {
      "extensions": {
        "KHR_texture_basisu": {
          "source": 0
        }
      },
      "sampler": 0
    },
    {
      "extensions": {
        "KHR_texture_basisu": {
          "source": 2
        }
      },
      "sampler": 0
    },
    {
      "extensions": {
        "KHR_texture_basisu": {
          "source": 1
        }
      },
      "sampler": 0
    },
    {
      "extensions": {
        "KHR_texture_basisu": {
          "source": 3
        }
      },
      "sampler": 0
    },
    {
      "extensions": {
        "KHR_texture_basisu": {
          "source": 4
        }
      },
      "sampler": 0
    },
    {
      "extensions": {
        "KHR_texture_basisu": {
          "source": 6
        }
      },
      "sampler": 0
    },
    {
      "extensions": {
        "KHR_texture_basisu": {
          "source": 5
        }
      },
      "sampler": 0
    },
    {
      "extensions": {
        "KHR_texture_basisu": {
          "source": 7
        }
      },
      "sampler": 0
    }
  ]
}