{
  "accessors": [
    {
      "bufferView": 0,
      "byteOffset": 0,
      "componentType": 5126,
      "normalized": false,
      "count": 733,
      "type": "VEC3",
      "max": [
        0.7999935150146484,
        0.132976695895195,
        0.8530003428459167
      ],
      "min": [
        -0.8000004291534424,
        -3.57122189598158e-07,
        -0.8530003428459167
      ]
    },
    {
      "bufferView": 0,
      "byteOffset": 12,
      "componentType": 5126,
      "normalized": false,
      "count": 733,
      "type": "VEC3"
    },
    {
      "bufferView": 0,
      "byteOffset": 24,
      "componentType": 5126,
      "normalized": false,
      "count": 733,
      "type": "VEC2"
    },
    {
      "bufferView": 0,
      "byteOffset": 32,
      "componentType": 5126,
      "normalized": false,
      "count": 733,
      "type": "VEC2"
    },
    {
      "bufferView": 1,
      "byteOffset": 0,
      "componentType": 5123,
      "normalized": false,
      "count": 1377,
      "type": "SCALAR"
    },
    {
      "bufferView": 1,
      "byteOffset": 2756,
      "componentType": 5123,
      "normalized": false,
      "count": 1239,
      "type": "SCALAR"
    },
    {
      "bufferView": 2,
      "byteOffset": 0,
      "componentType": 5126,
      "normalized": false,
      "count": 466,
      "type": "VEC3",
      "max": [
        0.603256106376648,
        0.5999553203582764,
        1.049739122390747
      ],
      "min": [
        -0.6032742261886597,
        0.021999726071953773,
        -1.049739122390747
      ]
    },
    {
      "bufferView": 2,
      "byteOffset": 12,
      "componentType": 5126,
      "normalized": false,
      "count": 466,
      "type": "VEC3"
    },
    {
      "bufferView": 2,
      "byteOffset": 24,
      "componentType": 5126,
      "normalized": false,
      "count": 466,
      "type": "VEC2"
    },
    {
      "bufferView": 2,
      "byteOffset": 32,
      "componentType": 5126,
      "normalized": false,
      "count": 466,
      "type": "VEC2"
    }
  ],
  "asset": {
    "generator": "pygltflib@v1.16.5",
    "version": "2.0"
  },
  "bufferViews": [
    {
      "buffer": 0,
      "byteOffset": 0,
      "byteLength": 29320,
      "byteStride": 40,
      "target": 34962
    },
    {
      "buffer": 0,
      "byteOffset": 29320,
      "byteLength": 5236,
      "target": 34963
    },
    {
      "buffer": 0,
      "byteOffset": 34556,
      "byteLength": 18640,
      "byteStride": 40,
      "target": 34962
    }
  ],
  "buffers": [
    {
      "uri": "SOT-583.bin",
      "byteLength": 53196
    }
  ],
  "extensionsUsed": [
    "KHR_materials_ior",
    "KHR_materials_specular",
    "KHR_texture_basisu"
  ],
  "extensionsRequired": [
    "KHR_texture_basisu"
  ],
  "images": [
    {
      "uri": "../shared_textures/metal_pins_normal512.ktx2",
      "mimeType": "image/ktx2",
      "name": "metal_pins_normal512"
    },
    {
      "uri": "../shared_textures/metal_pins_color512.ktx2",
      "mimeType": "image/ktx2",
      "name": "metal_pins_color512"
    },
    {
      "uri": "../shared_textures/plastic_chip_normal512.ktx2",
      "mimeType": "image/ktx2",
      "name": "plastic_chip_normal512"
    }
  ],
  "materials": [
    {
      "extensions": {
        "KHR_materials_ior": {
          "ior": 1.4500000476837158
        },
        "KHR_materials_specular": {
          "specularFactor": 0
        }
      },
      "pbrMetallicRoughness": {
        "baseColorFactor": [
          1.0,
          1.0,
          1.0,
          1.0
        ],
        "metallicFactor": 0.7818182110786438,
        "roughnessFactor": 0.28863638639450073,
        "baseColorTexture": {
          "index": 0,
          "texCoord": 0
        }
      },
      "normalTexture": {
        "index": 1,
        "scale": 1.0
      },
      "emissiveFactor": [
        0.0,
        0.0,
        0.0
      ],
      "alphaMode": "OPAQUE",
      "doubleSided": true,
      "name": "gltf_metal_pins"
    },
    {
      "pbrMetallicRoughness": {
        "baseColorFactor": [
          0.009133999235928059,
          0.009134066291153431,
          0.009134061634540558,
          1.0
        ],
        "metallicFactor": 0.13699999451637268,
        "roughnessFactor": 0.37063413858413696
      },
      "normalTexture": {
        "index": 2,
        "scale": 1.0
      },
      "emissiveFactor": [
        0.0,
        0.0,
        0.0
      ],
      "alphaMode": "OPAQUE",
      "doubleSided": true,
      "name": "gltf_plastic_chip"
    }
  ],
  "meshes": [
    {
      "primitives": [
        {
          "attributes": {
            "POSITION": 0,
            "NORMAL": 1,
            "TEXCOORD_0": 2,
            "TEXCOORD_1": 3
          },
          "indices": 4,
          "mode": 4,
          "material": 0
        },
        {
          "attributes": {
            "POSITION": 6,
            "NORMAL": 7,
            "TEXCOORD_0": 8,
            "TEXCOORD_1": 9
          },
          "indices": 5,
          "mode": 4,
          "material": 1
        }
      ],
      "name": "SOT-583"
    }
  ],
  "nodes": [
    {
      "extras": {
        "REF": "U",
        "model_diagonal": 2.706993277667471
      },
      "mesh": 0,
      "name": "SOT-583"
    }
  ],
  "samplers": [
    {
      "magFilter": 9729,
      "minFilter": 9987,
      "wrapS": 10497,
      "wrapT": 10497
    }
  ],
  "scene": 0,
  "scenes": [
    {
      "extras": {
        "NWLazySource": "Noise Texture",
        "NWLazyTarget": "ColorRamp",
        "NWSourceSocket": 0
      },
      "name": "Scene",
      "nodes": [
        0
      ]
    }
  ],
  "textures": [
    {
      "extensions": {
        "KHR_texture_basisu": {
          "source": 1
        }
      },
      "sampler": 0
    },
    {
      "extensions": {
        "KHR_texture_basisu": {
          "source": 0
        }
      },
      "sampler": 0
    },
    {
      "extensions": {
        "KHR_texture_basisu": {
          "source": 2
        }
      },
      "sampler": 0
    }
  ]
}