{
  "accessors": [
    {
      "bufferView": 0,
      "byteOffset": 0,
      "componentType": 5126,
      "normalized": false,
      "count": 32,
      "type": "VEC3",
      "max": [
        1.100000023841858,
        0.5999543070793152,
        0.8000121712684631
      ],
      "min": [
        -1.100000023841858,
        0.5500000715255737,
        -0.800000011920929
      ]
    },
    {
      "bufferView": 0,
      "byteOffset": 12,
      "componentType": 5126,
      "normalized": false,
      "count": 32,
      "type": "VEC3"
    },
    {
      "bufferView": 0,
      "byteOffset": 24,
      "componentType": 5126,
      "normalized": false,
      "count": 32,
      "type": "VEC2"
    },
    {
      "bufferView": 1,
      "byteOffset": 0,
      "componentType": 5123,
      "normalized": false,
      "count": 54,
      "type": "SCALAR"
    },
    {
      "bufferView": 1,
      "byteOffset": 108,
      "componentType": 5123,
      "normalized": false,
      "count": 192,
      "type": "SCALAR"
    },
    {
      "bufferView": 1,
      "byteOffset": 492,
      "componentType": 5123,
      "normalized": false,
      "count": 78,
      "type": "SCALAR"
    },
    {
      "bufferView": 2,
      "byteOffset": 0,
      "componentType": 5126,
      "normalized": false,
      "count": 104,
      "type": "VEC3",
      "max": [
        1.600000023841858,
        0.6000365614891052,
        0.800097644329071
      ],
      "min": [
        -1.600000023841858,
        -3.4969112050475815e-08,
        -0.800000011920929
      ]
    },
    {
      "bufferView": 2,
      "byteOffset": 12,
      "componentType": 5126,
      "normalized": false,
      "count": 104,
      "type": "VEC3"
    },
    {
      "bufferView": 2,
      "byteOffset": 24,
      "componentType": 5126,
      "normalized": false,
      "count": 104,
      "type": "VEC2"
    },
    {
      "bufferView": 3,
      "byteOffset": 0,
      "componentType": 5126,
      "normalized": false,
      "count": 40,
      "type": "VEC3",
      "max": [
        1.5499999523162842,
        0.5499206185340881,
        0.8000487685203552
      ],
      "min": [
        -1.5499999523162842,
        0.049999967217445374,
        -0.800000011920929
      ]
    },
    {
      "bufferView": 3,
      "byteOffset": 12,
      "componentType": 5126,
      "normalized": false,
      "count": 40,
      "type": "VEC3"
    },
    {
      "bufferView": 3,
      "byteOffset": 24,
      "componentType": 5126,
      "normalized": false,
      "count": 40,
      "type": "VEC2"
    }
  ],
  "asset": {
    "generator": "pygltflib@v1.16.4",
    "version": "2.0"
  },
  "bufferViews": [
    {
      "buffer": 0,
      "byteOffset": 0,
      "byteLength": 1024,
      "byteStride": 32,
      "target": 34962
    },
    {
      "buffer": 0,
      "byteOffset": 1024,
      "byteLength": 648,
      "target": 34963
    },
    {
      "buffer": 0,
      "byteOffset": 1672,
      "byteLength": 3328,
      "byteStride": 32,
      "target": 34962
    },
    {
      "buffer": 0,
      "byteOffset": 5000,
      "byteLength": 1280,
      "byteStride": 32,
      "target": 34962
    }
  ],
  "buffers": [
    {
      "uri": "FB_1206_3216Metric.bin",
      "byteLength": 6280
    }
  ],
  "extensionsUsed": [
    "KHR_materials_clearcoat",
    "KHR_materials_ior",
    "KHR_materials_specular",
    "KHR_texture_basisu"
  ],
  "extensionsRequired": [
    "KHR_texture_basisu"
  ],
  "images": [
    {
      "uri": "../shared_textures/res_ceramic_normal.ktx2",
      "mimeType": "image/ktx2",
      "name": "res_ceramic_normal"
    },
    {
      "uri": "../shared_textures/res_ceramic_color.ktx2",
      "mimeType": "image/ktx2",
      "name": "res_ceramic_color"
    },
    {
      "uri": "../shared_textures/metal_pins_normal.ktx2",
      "mimeType": "image/ktx2",
      "name": "metal_pins_normal"
    },
    {
      "uri": "../shared_textures/metal_pins_color.ktx2",
      "mimeType": "image/ktx2",
      "name": "metal_pins_color"
    },
    {
      "uri": "../shared_textures/aluminum_rough_normal.ktx2",
      "mimeType": "image/ktx2",
      "name": "aluminum_rough_normal"
    },
    {
      "uri": "../shared_textures/aluminum_rough_color.ktx2",
      "mimeType": "image/ktx2",
      "name": "aluminum_rough_color"
    },
    {
      "uri": "../shared_textures/aluminum_rough_metallic-aluminum_rough_roughness.ktx2",
      "mimeType": "image/ktx2",
      "name": "aluminum_rough_metallic-aluminum_rough_roughness"
    }
  ],
  "materials": [
    {
      "extensions": {
        "KHR_materials_clearcoat": {
          "clearcoatFactor": 0,
          "clearcoatRoughnessFactor": 0.0663636326789856
        },
        "KHR_materials_ior": {
          "ior": 1
        },
        "KHR_materials_specular": {
          "specularColorFactor": [
            0.9836281538009644,
            0.9815577864646912,
            0.9790995121002197
          ]
        }
      },
      "pbrMetallicRoughness": {
        "baseColorFactor": [
          1.0,
          1.0,
          1.0,
          1.0
        ],
        "metallicFactor": 0.5,
        "roughnessFactor": 0.2704545557498932,
        "baseColorTexture": {
          "index": 0,
          "texCoord": 0
        }
      },
      "normalTexture": {
        "index": 1,
        "scale": 1.0
      },
      "emissiveFactor": [
        0.0,
        0.0,
        0.0
      ],
      "alphaMode": "OPAQUE",
      "alphaCutoff": 0.5,
      "doubleSided": true,
      "name": "gltf_res_ceramic"
    },
    {
      "extensions": {
        "KHR_materials_ior": {
          "ior": 1.4500000476837158
        },
        "KHR_materials_specular": {
          "specularFactor": 0
        }
      },
      "pbrMetallicRoughness": {
        "baseColorFactor": [
          1.0,
          1.0,
          1.0,
          1.0
        ],
        "metallicFactor": 0.7818182110786438,
        "roughnessFactor": 0.28863638639450073,
        "baseColorTexture": {
          "index": 2,
          "texCoord": 0
        }
      },
      "normalTexture": {
        "index": 3,
        "scale": 1.0
      },
      "emissiveFactor": [
        0.0,
        0.0,
        0.0
      ],
      "alphaMode": "OPAQUE",
      "alphaCutoff": 0.5,
      "doubleSided": true,
      "name": "gltf_metal_pins"
    },
    {
      "extensions": {
        "KHR_materials_clearcoat": {
          "clearcoatFactor": 0,
          "clearcoatRoughnessFactor": 0.36181819438934326
        },
        "KHR_materials_ior": {
          "ior": 1.4500000476837158
        },
        "KHR_materials_specular": {
          "specularFactor": 0.9818181991577148
        }
      },
      "pbrMetallicRoughness": {
        "baseColorFactor": [
          1.0,
          1.0,
          1.0,
          1.0
        ],
        "metallicFactor": 1.0,
        "roughnessFactor": 1.0,
        "baseColorTexture": {
          "index": 4,
          "texCoord": 0
        },
        "metallicRoughnessTexture": {
          "index": 6,
          "texCoord": 0
        }
      },
      "normalTexture": {
        "index": 5,
        "scale": 1.0
      },
      "emissiveFactor": [
        0.0,
        0.0,
        0.0
      ],
      "alphaMode": "OPAQUE",
      "alphaCutoff": 0.5,
      "doubleSided": true,
      "name": "gltf_aluminum_rough"
    }
  ],
  "meshes": [
    {
      "primitives": [
        {
          "attributes": {
            "POSITION": 0,
            "NORMAL": 1,
            "TEXCOORD_0": 2
          },
          "indices": 3,
          "mode": 4,
          "material": 0
        },
        {
          "attributes": {
            "POSITION": 6,
            "NORMAL": 7,
            "TEXCOORD_0": 8
          },
          "indices": 4,
          "mode": 4,
          "material": 1
        },
        {
          "attributes": {
            "POSITION": 9,
            "NORMAL": 10,
            "TEXCOORD_0": 11
          },
          "indices": 5,
          "mode": 4,
          "material": 2
        }
      ],
      "name": "FB_1206_3216Metric"
    }
  ],
  "nodes": [
    {
      "extras": {
        "REF": "FB",
        "PRIO": 0,
        "model_diagonal": 3.627671505681176
      },
      "mesh": 0,
      "name": "FB_1206_3216Metric"
    }
  ],
  "samplers": [
    {
      "magFilter": 9729,
      "minFilter": 9987,
      "wrapS": 10497,
      "wrapT": 10497
    }
  ],
  "scene": 0,
  "scenes": [
    {
      "extras": {
        "matlib": {
          "lib_index": 0,
          "filter": 0,
          "cat_index": -1,
          "all_materials": [
            {
              "name": "Metal"
            },
            {
              "name": "bga_balls"
            },
            {
              "name": "chip_enclosure"
            },
            {
              "name": "chip_enclosure_detailed"
            },
            {
              "name": "composite"
            },
            {
              "name": "enclosure_alu"
            },
            {
              "name": "enclosure_alu_polished"
            },
            {
              "name": "enclosure_gold"
            },
            {
              "name": "metal_pins_simple"
            },
            {
              "name": "pin1_marking_dark"
            },
            {
              "name": "pin_tht_gold"
            },
            {
              "name": "pin_tht_silver"
            },
            {
              "name": "plastic yellow"
            },
            {
              "name": "plastic_black"
            },
            {
              "name": "plastic_black_detailed"
            },
            {
              "name": "plastic_green_lightning"
            },
            {
              "name": "plastic_white"
            },
            {
              "name": "plastic_yellow_lightning"
            },
            {
              "name": "smd_cap_case"
            },
            {
              "name": "smd_cap_pins"
            },
            {
              "name": "smd_res_case"
            }
          ],
          "materials": [
            {
              "name": "Metal"
            },
            {
              "name": "bga_balls"
            },
            {
              "name": "chip_enclosure"
            },
            {
              "name": "chip_enclosure_detailed"
            },
            {
              "name": "composite"
            },
            {
              "name": "enclosure_alu"
            },
            {
              "name": "enclosure_alu_polished"
            },
            {
              "name": "enclosure_gold"
            },
            {
              "name": "metal_pins_simple"
            },
            {
              "name": "pin1_marking_dark"
            },
            {
              "name": "pin_tht_gold"
            },
            {
              "name": "pin_tht_silver"
            },
            {
              "name": "plastic yellow"
            },
            {
              "name": "plastic_black"
            },
            {
              "name": "plastic_black_detailed"
            },
            {
              "name": "plastic_green_lightning"
            },
            {
              "name": "plastic_white"
            },
            {
              "name": "plastic_yellow_lightning"
            },
            {
              "name": "smd_cap_case"
            },
            {
              "name": "smd_cap_pins"
            },
            {
              "name": "smd_res_case"
            }
          ],
          "mat_index": 5,
          "show_prefs": 1,
          "last_selected": "SHAPE_9_IndexedFaceSet"
        },
        "sketcher": {
          "version": [
            0,
            24,
            0
          ]
        }
      },
      "name": "Scene",
      "nodes": [
        0
      ]
    }
  ],
  "textures": [
    {
      "extensions": {
        "KHR_texture_basisu": {
          "source": 1
        }
      },
      "sampler": 0
    },
    {
      "extensions": {
        "KHR_texture_basisu": {
          "source": 0
        }
      },
      "sampler": 0
    },
    {
      "extensions": {
        "KHR_texture_basisu": {
          "source": 3
        }
      },
      "sampler": 0
    },
    {
      "extensions": {
        "KHR_texture_basisu": {
          "source": 2
        }
      },
      "sampler": 0
    },
    {
      "extensions": {
        "KHR_texture_basisu": {
          "source": 5
        }
      },
      "sampler": 0
    },
    {
      "extensions": {
        "KHR_texture_basisu": {
          "source": 4
        }
      },
      "sampler": 0
    },
    {
      "extensions": {
        "KHR_texture_basisu": {
          "source": 6
        }
      },
      "sampler": 0
    }
  ]
}