<?xml version="1.0" standalone="no"?>
 <!DOCTYPE svg PUBLIC "-//W3C//DTD SVG 1.1//EN" 
 "http://www.w3.org/Graphics/SVG/1.1/DTD/svg11.dtd"> 
<svg
  xmlns:svg="http://www.w3.org/2000/svg"
  xmlns="http://www.w3.org/2000/svg"
  xmlns:xlink="http://www.w3.org/1999/xlink"
  version="1.1"
  width="4.2418mm" height="3.5560mm" viewBox="0.0000 0.0000 4.2418 3.5560">
<title>SVG Image created as outline.svg date 2025/04/04 10:06:25 </title>
  <desc>Image generated by PCBNEW </desc>
<g style="fill:#000000; fill-opacity:1.0000;stroke:#000000; stroke-opacity:1.0000;
stroke-linecap:round; stroke-linejoin:round;"
 transform="translate(0 0) scale(1 1)">
</g>
<g style="fill:none; 
stroke:#000000; stroke-width:0.0200; stroke-opacity:1; 
stroke-linecap:round; stroke-linejoin:round;">
<path d="M0.6440 0.6430
L0.7730 0.6430
" />
<path d="M0.6440 1.0440
L0.6440 0.6430
" />
<path d="M0.6440 1.5930
L0.7730 1.5930
" />
<path d="M0.6440 1.9930
L0.6440 1.5930
" />
<path d="M0.6440 2.5440
L0.7730 2.5440
" />
<path d="M0.6440 2.9440
L0.6440 2.5440
" />
<path d="M0.7730 0.6430
L0.8650 0.6430
" />
<path d="M0.7730 1.0440
L0.6440 1.0440
" />
<path d="M0.7730 1.5930
L0.8650 1.5930
" />
<path d="M0.7730 1.9930
L0.6440 1.9930
" />
<path d="M0.7730 2.5440
L0.8650 2.5440
" />
<path d="M0.7730 2.9440
L0.6440 2.9440
" />
<path d="M0.8650 0.6430
L0.8650 1.0440
" />
<path d="M0.8650 0.6430
L0.9510 0.6430
" />
<path d="M0.8650 1.0440
L0.7730 1.0440
" />
<path d="M0.8650 1.0440
L0.9510 1.0440
" />
<path d="M0.8650 1.5930
L0.8650 1.9930
" />
<path d="M0.8650 1.5930
L0.9510 1.5930
" />
<path d="M0.8650 1.9930
L0.7730 1.9930
" />
<path d="M0.8650 1.9930
L0.9510 1.9930
" />
<path d="M0.8650 2.5440
L0.8650 2.9440
" />
<path d="M0.8650 2.5440
L0.9510 2.5440
" />
<path d="M0.8650 2.9440
L0.7730 2.9440
" />
<path d="M0.8650 2.9440
L0.9510 2.9440
" />
</g>
<g style="fill:#000000; fill-opacity:1.0000; stroke:none;">
<circle cx="0.9510" cy="0.6430" r="0.0100" /> 
</g>
<g style="fill:none; 
stroke:#000000; stroke-width:0.0200; stroke-opacity:1; 
stroke-linecap:round; stroke-linejoin:round;">
<path d="M0.9510 0.6430
L1.1650 0.6430
" />
</g>
<g style="fill:#000000; fill-opacity:1.0000; stroke:none;">
<circle cx="0.9510" cy="1.0440" r="0.0100" /> 
</g>
<g style="fill:none; 
stroke:#000000; stroke-width:0.0200; stroke-opacity:1; 
stroke-linecap:round; stroke-linejoin:round;">
<path d="M0.9510 1.0440
L1.1650 1.0440
" />
</g>
<g style="fill:#000000; fill-opacity:1.0000; stroke:none;">
<circle cx="0.9510" cy="1.5930" r="0.0100" /> 
</g>
<g style="fill:none; 
stroke:#000000; stroke-width:0.0200; stroke-opacity:1; 
stroke-linecap:round; stroke-linejoin:round;">
<path d="M0.9510 1.5930
L1.1650 1.5930
" />
</g>
<g style="fill:#000000; fill-opacity:1.0000; stroke:none;">
<circle cx="0.9510" cy="1.9930" r="0.0100" /> 
</g>
<g style="fill:none; 
stroke:#000000; stroke-width:0.0200; stroke-opacity:1; 
stroke-linecap:round; stroke-linejoin:round;">
<path d="M0.9510 1.9930
L1.1650 1.9930
" />
</g>
<g style="fill:#000000; fill-opacity:1.0000; stroke:none;">
<circle cx="0.9510" cy="2.5440" r="0.0100" /> 
</g>
<g style="fill:none; 
stroke:#000000; stroke-width:0.0200; stroke-opacity:1; 
stroke-linecap:round; stroke-linejoin:round;">
<path d="M0.9510 2.5440
L1.1650 2.5440
" />
</g>
<g style="fill:#000000; fill-opacity:1.0000; stroke:none;">
<circle cx="0.9510" cy="2.9440" r="0.0100" /> 
</g>
<g style="fill:none; 
stroke:#000000; stroke-width:0.0200; stroke-opacity:1; 
stroke-linecap:round; stroke-linejoin:round;">
<path d="M0.9510 2.9440
L1.1650 2.9440
" />
<path d="M1.1650 0.6430
L1.2950 0.6430
" />
<path d="M1.1650 1.5930
L1.2950 1.5930
" />
<path d="M1.1650 2.5440
L1.2950 2.5440
" />
</g>
<g style="fill:#000000; fill-opacity:1.0000; stroke:none;">
<circle cx="1.2950" cy="0.2930" r="0.0100" /> 
</g>
<g style="fill:none; 
stroke:#000000; stroke-width:0.0200; stroke-opacity:1; 
stroke-linecap:round; stroke-linejoin:round;">
<path d="M1.2950 0.2930
L1.2950 3.2950
" />
<path d="M1.2950 0.2930
L2.9940 0.2930
" />
<path d="M1.2950 0.2930
L2.9940 0.2930
" />
<path d="M1.2950 1.0440
L1.1650 1.0440
" />
<path d="M1.2950 1.9930
L1.1650 1.9930
" />
<path d="M1.2950 2.9440
L1.1650 2.9440
" />
<path d="M1.2950 3.2950
L2.9940 3.2950
" />
<path d="M1.3440 0.3450
L1.2950 0.2930
" />
<path d="M1.3440 0.3450
L2.9450 0.3450
" />
<path d="M1.3440 3.2430
L1.2950 3.2950
" />
<path d="M1.3440 3.2430
L1.3440 0.3450
" />
<path d="M2.9450 0.3450
L2.9450 3.2430
" />
<path d="M2.9450 3.2430
L1.3440 3.2430
" />
<path d="M2.9450 3.2430
L2.9940 3.2950
" />
<path d="M2.9940 0.2930
L2.9450 0.3450
" />
<path d="M2.9940 0.2930
L2.9940 3.2930
" />
<path d="M2.9940 2.5440
L3.1250 2.5440
" />
</g>
<g style="fill:#000000; fill-opacity:1.0000; stroke:none;">
<circle cx="2.9940" cy="3.2930" r="0.0100" /> 
</g>
<g style="fill:none; 
stroke:#000000; stroke-width:0.0200; stroke-opacity:1; 
stroke-linecap:round; stroke-linejoin:round;">
<path d="M2.9940 3.2950
L2.9940 0.2930
" />
<path d="M3.1250 0.6440
L2.9940 0.6440
" />
<path d="M3.1250 1.0440
L2.9940 1.0440
" />
<path d="M3.1250 1.0440
L3.3360 1.0440
" />
<path d="M3.1250 1.5930
L2.9940 1.5930
" />
<path d="M3.1250 1.9930
L2.9940 1.9930
" />
<path d="M3.1250 1.9930
L3.3360 1.9930
" />
<path d="M3.1250 2.9440
L2.9940 2.9440
" />
<path d="M3.3360 0.6440
L3.1250 0.6440
" />
</g>
<g style="fill:#000000; fill-opacity:1.0000; stroke:none;">
<circle cx="3.3360" cy="0.6440" r="0.0100" /> 
<circle cx="3.3360" cy="1.0440" r="0.0100" /> 
</g>
<g style="fill:none; 
stroke:#000000; stroke-width:0.0200; stroke-opacity:1; 
stroke-linecap:round; stroke-linejoin:round;">
<path d="M3.3360 1.0440
L3.4250 1.0440
" />
<path d="M3.3360 1.5930
L3.1250 1.5930
" />
</g>
<g style="fill:#000000; fill-opacity:1.0000; stroke:none;">
<circle cx="3.3360" cy="1.5930" r="0.0100" /> 
<circle cx="3.3360" cy="1.9930" r="0.0100" /> 
</g>
<g style="fill:none; 
stroke:#000000; stroke-width:0.0200; stroke-opacity:1; 
stroke-linecap:round; stroke-linejoin:round;">
<path d="M3.3360 1.9930
L3.4250 1.9930
" />
<path d="M3.3360 2.5440
L3.1250 2.5440
" />
</g>
<g style="fill:#000000; fill-opacity:1.0000; stroke:none;">
<circle cx="3.3360" cy="2.5440" r="0.0100" /> 
</g>
<g style="fill:none; 
stroke:#000000; stroke-width:0.0200; stroke-opacity:1; 
stroke-linecap:round; stroke-linejoin:round;">
<path d="M3.3360 2.9440
L3.1250 2.9440
" />
</g>
<g style="fill:#000000; fill-opacity:1.0000; stroke:none;">
<circle cx="3.3360" cy="2.9440" r="0.0100" /> 
</g>
<g style="fill:none; 
stroke:#000000; stroke-width:0.0200; stroke-opacity:1; 
stroke-linecap:round; stroke-linejoin:round;">
<path d="M3.4250 0.6440
L3.3360 0.6440
" />
<path d="M3.4250 0.6440
L3.4250 1.0440
" />
<path d="M3.4250 1.0440
L3.4250 0.6440
" />
<path d="M3.4250 1.5930
L3.3360 1.5930
" />
<path d="M3.4250 1.5930
L3.4250 1.9930
" />
<path d="M3.4250 1.9930
L3.4250 1.5930
" />
<path d="M3.4250 2.5440
L3.3360 2.5440
" />
<path d="M3.4250 2.5440
L3.4250 2.9440
" />
<path d="M3.4250 2.5440
L3.5140 2.5440
" />
<path d="M3.4250 2.9440
L3.3360 2.9440
" />
<path d="M3.4250 2.9440
L3.4250 2.5440
" />
<path d="M3.5140 0.6440
L3.4250 0.6440
" />
<path d="M3.5140 1.0440
L3.4250 1.0440
" />
<path d="M3.5140 1.5930
L3.4250 1.5930
" />
<path d="M3.5140 1.9930
L3.4250 1.9930
" />
<path d="M3.5140 2.5440
L3.6430 2.5440
" />
<path d="M3.5140 2.9440
L3.4250 2.9440
" />
<path d="M3.6430 0.6440
L3.5140 0.6440
" />
<path d="M3.6430 0.6440
L3.6430 1.0440
" />
<path d="M3.6430 1.0440
L3.5140 1.0440
" />
<path d="M3.6430 1.5930
L3.5140 1.5930
" />
<path d="M3.6430 1.5930
L3.6430 1.9930
" />
<path d="M3.6430 1.9930
L3.5140 1.9930
" />
<path d="M3.6430 2.5440
L3.6430 2.9440
" />
<path d="M3.6430 2.9440
L3.5140 2.9440
" />
</g> 
</svg>
