{
  "accessors": [
    {
      "bufferView": 0,
      "byteOffset": 0,
      "componentType": 5126,
      "normalized": false,
      "count": 898,
      "type": "VEC3",
      "max": [
        0.6510977745056152,
        0.6000131964683533,
        0.8521275520324707
      ],
      "min": [
        -0.648780107498169,
        -0.0010000449838116765,
        -0.8478724956512451
      ]
    },
    {
      "bufferView": 0,
      "byteOffset": 12,
      "componentType": 5126,
      "normalized": false,
      "count": 898,
      "type": "VEC3"
    },
    {
      "bufferView": 0,
      "byteOffset": 24,
      "componentType": 5126,
      "normalized": false,
      "count": 898,
      "type": "VEC2"
    },
    {
      "bufferView": 1,
      "byteOffset": 0,
      "componentType": 5123,
      "normalized": false,
      "count": 1080,
      "type": "SCALAR"
    },
    {
      "bufferView": 1,
      "byteOffset": 2160,
      "componentType": 5123,
      "normalized": false,
      "count": 4794,
      "type": "SCALAR"
    },
    {
      "bufferView": 1,
      "byteOffset": 11748,
      "componentType": 5123,
      "normalized": false,
      "count": 6,
      "type": "SCALAR"
    },
    {
      "bufferView": 2,
      "byteOffset": 0,
      "componentType": 5126,
      "normalized": false,
      "count": 1304,
      "type": "VEC3",
      "max": [
        0.8511139154434204,
        0.17903412878513336,
        0.6721629500389099
      ],
      "min": [
        -0.8488861322402954,
        -0.0010000449838116765,
        -0.6678724884986877
      ]
    },
    {
      "bufferView": 2,
      "byteOffset": 12,
      "componentType": 5126,
      "normalized": false,
      "count": 1304,
      "type": "VEC3"
    },
    {
      "bufferView": 2,
      "byteOffset": 24,
      "componentType": 5126,
      "normalized": false,
      "count": 1304,
      "type": "VEC2"
    },
    {
      "bufferView": 3,
      "byteOffset": 0,
      "componentType": 5126,
      "normalized": false,
      "count": 4,
      "type": "VEC3",
      "max": [
        0.5818318128585815,
        0.5999998450279236,
        0.7828636765480042
      ],
      "min": [
        -0.5796221494674683,
        0.5999998450279236,
        -0.778608500957489
      ]
    },
    {
      "bufferView": 3,
      "byteOffset": 12,
      "componentType": 5126,
      "normalized": false,
      "count": 4,
      "type": "VEC3"
    },
    {
      "bufferView": 3,
      "byteOffset": 24,
      "componentType": 5126,
      "normalized": false,
      "count": 4,
      "type": "VEC2"
    }
  ],
  "asset": {
    "generator": "pygltflib@v1.16.4",
    "version": "2.0"
  },
  "bufferViews": [
    {
      "buffer": 0,
      "byteOffset": 0,
      "byteLength": 28736,
      "byteStride": 32,
      "target": 34962
    },
    {
      "buffer": 0,
      "byteOffset": 28736,
      "byteLength": 11760,
      "target": 34963
    },
    {
      "buffer": 0,
      "byteOffset": 40496,
      "byteLength": 41728,
      "byteStride": 32,
      "target": 34962
    },
    {
      "buffer": 0,
      "byteOffset": 82224,
      "byteLength": 128,
      "byteStride": 32,
      "target": 34962
    }
  ],
  "buffers": [
    {
      "uri": "SOT-563-diodes-incorporated-dmc2400uv-7.bin",
      "byteLength": 82352
    }
  ],
  "extensionsUsed": [
    "KHR_materials_ior",
    "KHR_materials_specular",
    "KHR_texture_basisu"
  ],
  "extensionsRequired": [
    "KHR_texture_basisu"
  ],
  "images": [
    {
      "uri": "../shared_textures/plastic_chip_normal.ktx2",
      "mimeType": "image/ktx2",
      "name": "plastic_chip_normal"
    },
    {
      "uri": "../shared_textures/plastic_chip_color.ktx2",
      "mimeType": "image/ktx2",
      "name": "plastic_chip_color"
    },
    {
      "uri": "../shared_textures/metal_pins_normal.ktx2",
      "mimeType": "image/ktx2",
      "name": "metal_pins_normal"
    },
    {
      "uri": "../shared_textures/metal_pins_color.ktx2",
      "mimeType": "image/ktx2",
      "name": "metal_pins_color"
    },
    {
      "uri": "diodes-incorporated-dmc2400uv-7-marking_normal.ktx2",
      "mimeType": "image/ktx2",
      "name": "diodes-incorporated-dmc2400uv-7-marking_normal"
    },
    {
      "uri": "diodes-incorporated-dmc2400uv-7-marking_color.ktx2",
      "mimeType": "image/ktx2",
      "name": "diodes-incorporated-dmc2400uv-7-marking_color"
    },
    {
      "uri": "diodes-incorporated-dmc2400uv-7-marking_metallic_roughness.ktx2",
      "mimeType": "image/ktx2",
      "name": "diodes-incorporated-dmc2400uv-7-marking_metallic_roughness"
    }
  ],
  "materials": [
    {
      "pbrMetallicRoughness": {
        "baseColorFactor": [
          1.0,
          1.0,
          1.0,
          1.0
        ],
        "metallicFactor": 0.13699999451637268,
        "roughnessFactor": 0.37063413858413696,
        "baseColorTexture": {
          "index": 0,
          "texCoord": 0
        }
      },
      "normalTexture": {
        "index": 1,
        "scale": 1.0
      },
      "emissiveFactor": [
        0.0,
        0.0,
        0.0
      ],
      "alphaMode": "OPAQUE",
      "alphaCutoff": 0.5,
      "doubleSided": true,
      "name": "gltf_plastic_chip"
    },
    {
      "extensions": {
        "KHR_materials_ior": {
          "ior": 1.4500000476837158
        },
        "KHR_materials_specular": {
          "specularFactor": 0
        }
      },
      "pbrMetallicRoughness": {
        "baseColorFactor": [
          1.0,
          1.0,
          1.0,
          1.0
        ],
        "metallicFactor": 0.7818182110786438,
        "roughnessFactor": 0.28863638639450073,
        "baseColorTexture": {
          "index": 2,
          "texCoord": 0
        }
      },
      "normalTexture": {
        "index": 3,
        "scale": 1.0
      },
      "emissiveFactor": [
        0.0,
        0.0,
        0.0
      ],
      "alphaMode": "OPAQUE",
      "alphaCutoff": 0.5,
      "doubleSided": true,
      "name": "gltf_metal_pins"
    },
    {
      "pbrMetallicRoughness": {
        "baseColorFactor": [
          1.0,
          1.0,
          1.0,
          1.0
        ],
        "metallicFactor": 1.0,
        "roughnessFactor": 1.0,
        "baseColorTexture": {
          "index": 4,
          "texCoord": 0
        },
        "metallicRoughnessTexture": {
          "index": 6,
          "texCoord": 0
        }
      },
      "normalTexture": {
        "index": 5,
        "scale": 1.0
      },
      "emissiveFactor": [
        0.0,
        0.0,
        0.0
      ],
      "alphaMode": "OPAQUE",
      "alphaCutoff": 0.5,
      "doubleSided": true,
      "name": "gltf_diodes-incorporated-dmc2400uv-7-marking"
    }
  ],
  "meshes": [
    {
      "primitives": [
        {
          "attributes": {
            "POSITION": 0,
            "NORMAL": 1,
            "TEXCOORD_0": 2
          },
          "indices": 3,
          "mode": 4,
          "material": 0
        },
        {
          "attributes": {
            "POSITION": 6,
            "NORMAL": 7,
            "TEXCOORD_0": 8
          },
          "indices": 4,
          "mode": 4,
          "material": 1
        },
        {
          "attributes": {
            "POSITION": 9,
            "NORMAL": 10,
            "TEXCOORD_0": 11
          },
          "indices": 5,
          "mode": 4,
          "material": 2
        }
      ],
      "name": "SHAPE_8_IndexedFaceSet.005"
    }
  ],
  "nodes": [
    {
      "extras": {
        "REF": "U",
        "PRIO": 0,
        "model_diagonal": 2.4781447514373935
      },
      "mesh": 0,
      "name": "SOT-563-diodes-incorporated-dmc2400uv-7"
    }
  ],
  "samplers": [
    {
      "magFilter": 9729,
      "minFilter": 9987,
      "wrapS": 10497,
      "wrapT": 10497
    }
  ],
  "scene": 0,
  "scenes": [
    {
      "extras": {
        "sketcher": {
          "version": [
            0,
            24,
            0
          ]
        }
      },
      "name": "Scene",
      "nodes": [
        0
      ]
    }
  ],
  "textures": [
    {
      "extensions": {
        "KHR_texture_basisu": {
          "source": 1
        }
      },
      "sampler": 0
    },
    {
      "extensions": {
        "KHR_texture_basisu": {
          "source": 0
        }
      },
      "sampler": 0
    },
    {
      "extensions": {
        "KHR_texture_basisu": {
          "source": 3
        }
      },
      "sampler": 0
    },
    {
      "extensions": {
        "KHR_texture_basisu": {
          "source": 2
        }
      },
      "sampler": 0
    },
    {
      "extensions": {
        "KHR_texture_basisu": {
          "source": 5
        }
      },
      "sampler": 0
    },
    {
      "extensions": {
        "KHR_texture_basisu": {
          "source": 4
        }
      },
      "sampler": 0
    },
    {
      "extensions": {
        "KHR_texture_basisu": {
          "source": 6
        }
      },
      "sampler": 0
    }
  ]
}