<?xml version="1.0" standalone="no"?>
 <!DOCTYPE svg PUBLIC "-//W3C//DTD SVG 1.1//EN" 
 "http://www.w3.org/Graphics/SVG/1.1/DTD/svg11.dtd"> 
<svg
  xmlns:svg="http://www.w3.org/2000/svg"
  xmlns="http://www.w3.org/2000/svg"
  xmlns:xlink="http://www.w3.org/1999/xlink"
  version="1.1"
  width="4.2418mm" height="3.5306mm" viewBox="0.0000 0.0000 4.2418 3.5306">
<title>SVG Image created as outline.svg date 2025/04/04 10:06:05 </title>
  <desc>Image generated by PCBNEW </desc>
<g style="fill:#000000; fill-opacity:1.0000;stroke:#000000; stroke-opacity:1.0000;
stroke-linecap:round; stroke-linejoin:round;"
 transform="translate(0 0) scale(1 1)">
</g>
<g style="fill:none; 
stroke:#000000; stroke-width:0.0200; stroke-opacity:1; 
stroke-linecap:round; stroke-linejoin:round;">
<path d="M0.5240 0.5290
L0.5240 0.5310
" />
</g>
<g style="fill:#000000; fill-opacity:1.0000; stroke:none;">
<circle cx="0.5240" cy="0.5310" r="0.0100" /> 
<circle cx="0.5240" cy="0.5310" r="0.0100" /> 
<circle cx="0.5240" cy="0.5310" r="0.0100" /> 
<circle cx="0.5240" cy="0.5310" r="0.0100" /> 
</g>
<g style="fill:none; 
stroke:#000000; stroke-width:0.0200; stroke-opacity:1; 
stroke-linecap:round; stroke-linejoin:round;">
<path d="M0.5240 0.5310
L0.5240 0.5330
" />
</g>
<g style="fill:#000000; fill-opacity:1.0000; stroke:none;">
<circle cx="0.5240" cy="0.5330" r="0.0100" /> 
<circle cx="0.5240" cy="0.5330" r="0.0100" /> 
</g>
<g style="fill:none; 
stroke:#000000; stroke-width:0.0200; stroke-opacity:1; 
stroke-linecap:round; stroke-linejoin:round;">
<path d="M0.5240 0.5330
L0.5240 0.5350
" />
</g>
<g style="fill:#000000; fill-opacity:1.0000; stroke:none;">
<circle cx="0.5240" cy="0.5350" r="0.0100" /> 
<circle cx="0.5240" cy="0.5350" r="0.0100" /> 
<circle cx="0.5240" cy="0.5350" r="0.0100" /> 
<circle cx="0.5240" cy="0.5350" r="0.0100" /> 
</g>
<g style="fill:none; 
stroke:#000000; stroke-width:0.0200; stroke-opacity:1; 
stroke-linecap:round; stroke-linejoin:round;">
<path d="M0.5240 0.5350
L0.5240 0.5370
" />
<path d="M0.5240 0.5350
L0.5240 3.0140
" />
</g>
<g style="fill:#000000; fill-opacity:1.0000; stroke:none;">
<circle cx="0.5240" cy="0.5370" r="0.0100" /> 
<circle cx="0.5240" cy="0.5370" r="0.0100" /> 
<circle cx="0.5240" cy="0.5370" r="0.0100" /> 
<circle cx="0.5240" cy="0.5370" r="0.0100" /> 
</g>
<g style="fill:none; 
stroke:#000000; stroke-width:0.0200; stroke-opacity:1; 
stroke-linecap:round; stroke-linejoin:round;">
<path d="M0.5240 0.5370
L0.5240 0.5390
" />
<path d="M0.5240 0.5390
L0.5260 0.5390
" />
</g>
<g style="fill:#000000; fill-opacity:1.0000; stroke:none;">
<circle cx="0.5240" cy="3.0100" r="0.0100" /> 
<circle cx="0.5240" cy="3.0100" r="0.0100" /> 
</g>
<g style="fill:none; 
stroke:#000000; stroke-width:0.0200; stroke-opacity:1; 
stroke-linecap:round; stroke-linejoin:round;">
<path d="M0.5240 3.0100
L0.5240 3.0120
" />
</g>
<g style="fill:#000000; fill-opacity:1.0000; stroke:none;">
<circle cx="0.5240" cy="3.0120" r="0.0100" /> 
<circle cx="0.5240" cy="3.0120" r="0.0100" /> 
<circle cx="0.5240" cy="3.0120" r="0.0100" /> 
<circle cx="0.5240" cy="3.0120" r="0.0100" /> 
</g>
<g style="fill:none; 
stroke:#000000; stroke-width:0.0200; stroke-opacity:1; 
stroke-linecap:round; stroke-linejoin:round;">
<path d="M0.5240 3.0120
L0.5240 3.0140
" />
</g>
<g style="fill:#000000; fill-opacity:1.0000; stroke:none;">
<circle cx="0.5240" cy="3.0140" r="0.0100" /> 
<circle cx="0.5240" cy="3.0140" r="0.0100" /> 
<circle cx="0.5240" cy="3.0140" r="0.0100" /> 
</g>
<g style="fill:none; 
stroke:#000000; stroke-width:0.0200; stroke-opacity:1; 
stroke-linecap:round; stroke-linejoin:round;">
<path d="M0.5240 3.0140
L0.5240 3.0160
" />
</g>
<g style="fill:#000000; fill-opacity:1.0000; stroke:none;">
<circle cx="0.5240" cy="3.0160" r="0.0100" /> 
<circle cx="0.5240" cy="3.0160" r="0.0100" /> 
<circle cx="0.5240" cy="3.0160" r="0.0100" /> 
<circle cx="0.5240" cy="3.0160" r="0.0100" /> 
</g>
<g style="fill:none; 
stroke:#000000; stroke-width:0.0200; stroke-opacity:1; 
stroke-linecap:round; stroke-linejoin:round;">
<path d="M0.5240 3.0160
L0.5240 3.0180
" />
</g>
<g style="fill:#000000; fill-opacity:1.0000; stroke:none;">
<circle cx="0.5240" cy="3.0180" r="0.0100" /> 
<circle cx="0.5240" cy="3.0180" r="0.0100" /> 
</g>
<g style="fill:none; 
stroke:#000000; stroke-width:0.0200; stroke-opacity:1; 
stroke-linecap:round; stroke-linejoin:round;">
<path d="M0.5240 3.0180
L0.5260 3.0180
" />
</g>
<g style="fill:#000000; fill-opacity:1.0000; stroke:none;">
<circle cx="0.5260" cy="0.5270" r="0.0100" /> 
<circle cx="0.5260" cy="0.5270" r="0.0100" /> 
</g>
<g style="fill:none; 
stroke:#000000; stroke-width:0.0200; stroke-opacity:1; 
stroke-linecap:round; stroke-linejoin:round;">
<path d="M0.5260 0.5270
L0.5260 0.5290
" />
<path d="M0.5260 0.5290
L0.5240 0.5290
" />
</g>
<g style="fill:#000000; fill-opacity:1.0000; stroke:none;">
<circle cx="0.5260" cy="0.5290" r="0.0100" /> 
<circle cx="0.5260" cy="0.5290" r="0.0100" /> 
<circle cx="0.5260" cy="0.5290" r="0.0100" /> 
<circle cx="0.5260" cy="0.5390" r="0.0100" /> 
<circle cx="0.5260" cy="0.5390" r="0.0100" /> 
<circle cx="0.5260" cy="0.5390" r="0.0100" /> 
</g>
<g style="fill:none; 
stroke:#000000; stroke-width:0.0200; stroke-opacity:1; 
stroke-linecap:round; stroke-linejoin:round;">
<path d="M0.5260 0.5390
L0.5260 0.5410
" />
</g>
<g style="fill:#000000; fill-opacity:1.0000; stroke:none;">
<circle cx="0.5260" cy="0.5410" r="0.0100" /> 
<circle cx="0.5260" cy="0.5410" r="0.0100" /> 
</g>
<g style="fill:none; 
stroke:#000000; stroke-width:0.0200; stroke-opacity:1; 
stroke-linecap:round; stroke-linejoin:round;">
<path d="M0.5260 0.5410
L0.5280 0.5410
" />
<path d="M0.5260 3.0060
L0.5260 3.0080
" />
</g>
<g style="fill:#000000; fill-opacity:1.0000; stroke:none;">
<circle cx="0.5260" cy="3.0080" r="0.0100" /> 
<circle cx="0.5260" cy="3.0080" r="0.0100" /> 
<circle cx="0.5260" cy="3.0080" r="0.0100" /> 
<circle cx="0.5260" cy="3.0080" r="0.0100" /> 
</g>
<g style="fill:none; 
stroke:#000000; stroke-width:0.0200; stroke-opacity:1; 
stroke-linecap:round; stroke-linejoin:round;">
<path d="M0.5260 3.0080
L0.5260 3.0100
" />
<path d="M0.5260 3.0100
L0.5240 3.0100
" />
<path d="M0.5260 3.0180
L0.5260 3.0200
" />
</g>
<g style="fill:#000000; fill-opacity:1.0000; stroke:none;">
<circle cx="0.5260" cy="3.0200" r="0.0100" /> 
<circle cx="0.5260" cy="3.0200" r="0.0100" /> 
<circle cx="0.5260" cy="3.0200" r="0.0100" /> 
<circle cx="0.5260" cy="3.0200" r="0.0100" /> 
</g>
<g style="fill:none; 
stroke:#000000; stroke-width:0.0200; stroke-opacity:1; 
stroke-linecap:round; stroke-linejoin:round;">
<path d="M0.5260 3.0200
L0.5260 3.0220
" />
<path d="M0.5260 3.0220
L0.5280 3.0220
" />
</g>
<g style="fill:#000000; fill-opacity:1.0000; stroke:none;">
<circle cx="0.5280" cy="0.5250" r="0.0100" /> 
<circle cx="0.5280" cy="0.5250" r="0.0100" /> 
</g>
<g style="fill:none; 
stroke:#000000; stroke-width:0.0200; stroke-opacity:1; 
stroke-linecap:round; stroke-linejoin:round;">
<path d="M0.5280 0.5250
L0.5280 0.5270
" />
<path d="M0.5280 0.5270
L0.5260 0.5270
" />
</g>
<g style="fill:#000000; fill-opacity:1.0000; stroke:none;">
<circle cx="0.5280" cy="0.5270" r="0.0100" /> 
<circle cx="0.5280" cy="0.5410" r="0.0100" /> 
</g>
<g style="fill:none; 
stroke:#000000; stroke-width:0.0200; stroke-opacity:1; 
stroke-linecap:round; stroke-linejoin:round;">
<path d="M0.5280 0.5410
L0.5280 0.5430
" />
</g>
<g style="fill:#000000; fill-opacity:1.0000; stroke:none;">
<circle cx="0.5280" cy="0.5430" r="0.0100" /> 
<circle cx="0.5280" cy="0.5430" r="0.0100" /> 
</g>
<g style="fill:none; 
stroke:#000000; stroke-width:0.0200; stroke-opacity:1; 
stroke-linecap:round; stroke-linejoin:round;">
<path d="M0.5280 0.5430
L0.5300 0.5430
" />
<path d="M0.5280 3.0060
L0.5260 3.0060
" />
</g>
<g style="fill:#000000; fill-opacity:1.0000; stroke:none;">
<circle cx="0.5280" cy="3.0060" r="0.0100" /> 
<circle cx="0.5280" cy="3.0060" r="0.0100" /> 
<circle cx="0.5280" cy="3.0060" r="0.0100" /> 
<circle cx="0.5280" cy="3.0060" r="0.0100" /> 
<circle cx="0.5280" cy="3.0220" r="0.0100" /> 
<circle cx="0.5280" cy="3.0220" r="0.0100" /> 
<circle cx="0.5280" cy="3.0220" r="0.0100" /> 
<circle cx="0.5280" cy="3.0220" r="0.0100" /> 
</g>
<g style="fill:none; 
stroke:#000000; stroke-width:0.0200; stroke-opacity:1; 
stroke-linecap:round; stroke-linejoin:round;">
<path d="M0.5280 3.0220
L0.5300 3.0220
" />
<path d="M0.5300 0.5250
L0.5280 0.5250
" />
</g>
<g style="fill:#000000; fill-opacity:1.0000; stroke:none;">
<circle cx="0.5300" cy="0.5250" r="0.0100" /> 
<circle cx="0.5300" cy="0.5250" r="0.0100" /> 
<circle cx="0.5300" cy="0.5250" r="0.0100" /> 
<circle cx="0.5300" cy="0.5430" r="0.0100" /> 
<circle cx="0.5300" cy="0.5430" r="0.0100" /> 
<circle cx="0.5300" cy="0.5430" r="0.0100" /> 
</g>
<g style="fill:none; 
stroke:#000000; stroke-width:0.0200; stroke-opacity:1; 
stroke-linecap:round; stroke-linejoin:round;">
<path d="M0.5300 0.5430
L0.5320 0.5430
" />
</g>
<g style="fill:#000000; fill-opacity:1.0000; stroke:none;">
<circle cx="0.5300" cy="3.0040" r="0.0100" /> 
<circle cx="0.5300" cy="3.0040" r="0.0100" /> 
</g>
<g style="fill:none; 
stroke:#000000; stroke-width:0.0200; stroke-opacity:1; 
stroke-linecap:round; stroke-linejoin:round;">
<path d="M0.5300 3.0040
L0.5300 3.0060
" />
<path d="M0.5300 3.0060
L0.5280 3.0060
" />
<path d="M0.5300 3.0220
L0.5300 3.0240
" />
</g>
<g style="fill:#000000; fill-opacity:1.0000; stroke:none;">
<circle cx="0.5300" cy="3.0240" r="0.0100" /> 
<circle cx="0.5300" cy="3.0240" r="0.0100" /> 
</g>
<g style="fill:none; 
stroke:#000000; stroke-width:0.0200; stroke-opacity:1; 
stroke-linecap:round; stroke-linejoin:round;">
<path d="M0.5300 3.0240
L0.5320 3.0240
" />
<path d="M0.5320 0.5250
L0.5300 0.5250
" />
</g>
<g style="fill:#000000; fill-opacity:1.0000; stroke:none;">
<circle cx="0.5320" cy="0.5250" r="0.0100" /> 
<circle cx="0.5320" cy="0.5250" r="0.0100" /> 
<circle cx="0.5320" cy="0.5250" r="0.0100" /> 
<circle cx="0.5320" cy="0.5250" r="0.0100" /> 
<circle cx="0.5320" cy="0.5430" r="0.0100" /> 
<circle cx="0.5320" cy="0.5430" r="0.0100" /> 
<circle cx="0.5320" cy="0.5430" r="0.0100" /> 
<circle cx="0.5320" cy="0.5430" r="0.0100" /> 
</g>
<g style="fill:none; 
stroke:#000000; stroke-width:0.0200; stroke-opacity:1; 
stroke-linecap:round; stroke-linejoin:round;">
<path d="M0.5320 0.5430
L0.5340 0.5430
" />
<path d="M0.5320 3.0040
L0.5300 3.0040
" />
</g>
<g style="fill:#000000; fill-opacity:1.0000; stroke:none;">
<circle cx="0.5320" cy="3.0040" r="0.0100" /> 
<circle cx="0.5320" cy="3.0040" r="0.0100" /> 
<circle cx="0.5320" cy="3.0040" r="0.0100" /> 
<circle cx="0.5320" cy="3.0040" r="0.0100" /> 
<circle cx="0.5320" cy="3.0240" r="0.0100" /> 
<circle cx="0.5320" cy="3.0240" r="0.0100" /> 
<circle cx="0.5320" cy="3.0240" r="0.0100" /> 
<circle cx="0.5320" cy="3.0240" r="0.0100" /> 
</g>
<g style="fill:none; 
stroke:#000000; stroke-width:0.0200; stroke-opacity:1; 
stroke-linecap:round; stroke-linejoin:round;">
<path d="M0.5320 3.0240
L0.5340 3.0240
" />
<path d="M0.5340 0.5250
L0.5320 0.5250
" />
</g>
<g style="fill:#000000; fill-opacity:1.0000; stroke:none;">
<circle cx="0.5340" cy="0.5250" r="0.0100" /> 
<circle cx="0.5340" cy="0.5250" r="0.0100" /> 
<circle cx="0.5340" cy="0.5250" r="0.0100" /> 
</g>
<g style="fill:none; 
stroke:#000000; stroke-width:0.0200; stroke-opacity:1; 
stroke-linecap:round; stroke-linejoin:round;">
<path d="M0.5340 0.5430
L0.5340 0.5450
" />
<path d="M0.5340 0.5430
L0.5360 0.5430
" />
<path d="M0.5340 0.5450
L0.5340 0.5430
" />
</g>
<g style="fill:#000000; fill-opacity:1.0000; stroke:none;">
<circle cx="0.5340" cy="0.5450" r="0.0100" /> 
</g>
<g style="fill:none; 
stroke:#000000; stroke-width:0.0200; stroke-opacity:1; 
stroke-linecap:round; stroke-linejoin:round;">
<path d="M0.5340 3.0040
L0.5320 3.0040
" />
</g>
<g style="fill:#000000; fill-opacity:1.0000; stroke:none;">
<circle cx="0.5340" cy="3.0040" r="0.0100" /> 
<circle cx="0.5340" cy="3.0040" r="0.0100" /> 
<circle cx="0.5340" cy="3.0040" r="0.0100" /> 
<circle cx="0.5340" cy="3.0240" r="0.0100" /> 
<circle cx="0.5340" cy="3.0240" r="0.0100" /> 
<circle cx="0.5340" cy="3.0240" r="0.0100" /> 
</g>
<g style="fill:none; 
stroke:#000000; stroke-width:0.0200; stroke-opacity:1; 
stroke-linecap:round; stroke-linejoin:round;">
<path d="M0.5340 3.0240
L0.5360 3.0240
" />
<path d="M0.5340 3.0240
L1.2750 3.0240
" />
<path d="M0.5360 0.5250
L0.5340 0.5250
" />
</g>
<g style="fill:#000000; fill-opacity:1.0000; stroke:none;">
<circle cx="0.5360" cy="0.5250" r="0.0100" /> 
<circle cx="0.5360" cy="0.5250" r="0.0100" /> 
<circle cx="0.5360" cy="0.5250" r="0.0100" /> 
<circle cx="0.5360" cy="0.5250" r="0.0100" /> 
<circle cx="0.5360" cy="0.5430" r="0.0100" /> 
<circle cx="0.5360" cy="0.5430" r="0.0100" /> 
<circle cx="0.5360" cy="0.5430" r="0.0100" /> 
<circle cx="0.5360" cy="0.5430" r="0.0100" /> 
</g>
<g style="fill:none; 
stroke:#000000; stroke-width:0.0200; stroke-opacity:1; 
stroke-linecap:round; stroke-linejoin:round;">
<path d="M0.5360 0.5430
L0.5380 0.5430
" />
<path d="M0.5360 3.0040
L0.5340 3.0040
" />
</g>
<g style="fill:#000000; fill-opacity:1.0000; stroke:none;">
<circle cx="0.5360" cy="3.0040" r="0.0100" /> 
<circle cx="0.5360" cy="3.0040" r="0.0100" /> 
<circle cx="0.5360" cy="3.0040" r="0.0100" /> 
<circle cx="0.5360" cy="3.0040" r="0.0100" /> 
<circle cx="0.5360" cy="3.0240" r="0.0100" /> 
<circle cx="0.5360" cy="3.0240" r="0.0100" /> 
<circle cx="0.5360" cy="3.0240" r="0.0100" /> 
<circle cx="0.5360" cy="3.0240" r="0.0100" /> 
</g>
<g style="fill:none; 
stroke:#000000; stroke-width:0.0200; stroke-opacity:1; 
stroke-linecap:round; stroke-linejoin:round;">
<path d="M0.5360 3.0240
L0.5380 3.0240
" />
<path d="M0.5380 0.5250
L0.5360 0.5250
" />
</g>
<g style="fill:#000000; fill-opacity:1.0000; stroke:none;">
<circle cx="0.5380" cy="0.5250" r="0.0100" /> 
<circle cx="0.5380" cy="0.5250" r="0.0100" /> 
<circle cx="0.5380" cy="0.5250" r="0.0100" /> 
<circle cx="0.5380" cy="0.5430" r="0.0100" /> 
<circle cx="0.5380" cy="0.5430" r="0.0100" /> 
<circle cx="0.5380" cy="0.5430" r="0.0100" /> 
</g>
<g style="fill:none; 
stroke:#000000; stroke-width:0.0200; stroke-opacity:1; 
stroke-linecap:round; stroke-linejoin:round;">
<path d="M0.5380 0.5430
L0.5400 0.5430
" />
<path d="M0.5380 3.0040
L0.5360 3.0040
" />
</g>
<g style="fill:#000000; fill-opacity:1.0000; stroke:none;">
<circle cx="0.5380" cy="3.0040" r="0.0100" /> 
<circle cx="0.5380" cy="3.0040" r="0.0100" /> 
</g>
<g style="fill:none; 
stroke:#000000; stroke-width:0.0200; stroke-opacity:1; 
stroke-linecap:round; stroke-linejoin:round;">
<path d="M0.5380 3.0060
L0.5380 3.0040
" />
<path d="M0.5380 3.0220
L0.5400 3.0220
" />
<path d="M0.5380 3.0240
L0.5380 3.0220
" />
</g>
<g style="fill:#000000; fill-opacity:1.0000; stroke:none;">
<circle cx="0.5380" cy="3.0240" r="0.0100" /> 
<circle cx="0.5380" cy="3.0240" r="0.0100" /> 
</g>
<g style="fill:none; 
stroke:#000000; stroke-width:0.0200; stroke-opacity:1; 
stroke-linecap:round; stroke-linejoin:round;">
<path d="M0.5400 0.5250
L0.5380 0.5250
" />
</g>
<g style="fill:#000000; fill-opacity:1.0000; stroke:none;">
<circle cx="0.5400" cy="0.5250" r="0.0100" /> 
<circle cx="0.5400" cy="0.5250" r="0.0100" /> 
</g>
<g style="fill:none; 
stroke:#000000; stroke-width:0.0200; stroke-opacity:1; 
stroke-linecap:round; stroke-linejoin:round;">
<path d="M0.5400 0.5270
L0.5400 0.5250
" />
</g>
<g style="fill:#000000; fill-opacity:1.0000; stroke:none;">
<circle cx="0.5400" cy="0.5270" r="0.0100" /> 
<circle cx="0.5400" cy="0.5410" r="0.0100" /> 
</g>
<g style="fill:none; 
stroke:#000000; stroke-width:0.0200; stroke-opacity:1; 
stroke-linecap:round; stroke-linejoin:round;">
<path d="M0.5400 0.5410
L0.5420 0.5410
" />
<path d="M0.5400 0.5430
L0.5400 0.5410
" />
</g>
<g style="fill:#000000; fill-opacity:1.0000; stroke:none;">
<circle cx="0.5400" cy="0.5430" r="0.0100" /> 
<circle cx="0.5400" cy="0.5430" r="0.0100" /> 
</g>
<g style="fill:none; 
stroke:#000000; stroke-width:0.0200; stroke-opacity:1; 
stroke-linecap:round; stroke-linejoin:round;">
<path d="M0.5400 3.0060
L0.5380 3.0060
" />
</g>
<g style="fill:#000000; fill-opacity:1.0000; stroke:none;">
<circle cx="0.5400" cy="3.0060" r="0.0100" /> 
<circle cx="0.5400" cy="3.0060" r="0.0100" /> 
<circle cx="0.5400" cy="3.0060" r="0.0100" /> 
<circle cx="0.5400" cy="3.0060" r="0.0100" /> 
<circle cx="0.5400" cy="3.0220" r="0.0100" /> 
<circle cx="0.5400" cy="3.0220" r="0.0100" /> 
<circle cx="0.5400" cy="3.0220" r="0.0100" /> 
<circle cx="0.5400" cy="3.0220" r="0.0100" /> 
</g>
<g style="fill:none; 
stroke:#000000; stroke-width:0.0200; stroke-opacity:1; 
stroke-linecap:round; stroke-linejoin:round;">
<path d="M0.5400 3.0220
L0.5420 3.0220
" />
<path d="M0.5420 0.5270
L0.5400 0.5270
" />
</g>
<g style="fill:#000000; fill-opacity:1.0000; stroke:none;">
<circle cx="0.5420" cy="0.5270" r="0.0100" /> 
<circle cx="0.5420" cy="0.5270" r="0.0100" /> 
</g>
<g style="fill:none; 
stroke:#000000; stroke-width:0.0200; stroke-opacity:1; 
stroke-linecap:round; stroke-linejoin:round;">
<path d="M0.5420 0.5290
L0.5420 0.5270
" />
</g>
<g style="fill:#000000; fill-opacity:1.0000; stroke:none;">
<circle cx="0.5420" cy="0.5290" r="0.0100" /> 
<circle cx="0.5420" cy="0.5290" r="0.0100" /> 
<circle cx="0.5420" cy="0.5290" r="0.0100" /> 
<circle cx="0.5420" cy="0.5390" r="0.0100" /> 
<circle cx="0.5420" cy="0.5390" r="0.0100" /> 
<circle cx="0.5420" cy="0.5390" r="0.0100" /> 
</g>
<g style="fill:none; 
stroke:#000000; stroke-width:0.0200; stroke-opacity:1; 
stroke-linecap:round; stroke-linejoin:round;">
<path d="M0.5420 0.5390
L0.5440 0.5390
" />
<path d="M0.5420 0.5410
L0.5420 0.5390
" />
</g>
<g style="fill:#000000; fill-opacity:1.0000; stroke:none;">
<circle cx="0.5420" cy="0.5410" r="0.0100" /> 
<circle cx="0.5420" cy="0.5410" r="0.0100" /> 
</g>
<g style="fill:none; 
stroke:#000000; stroke-width:0.0200; stroke-opacity:1; 
stroke-linecap:round; stroke-linejoin:round;">
<path d="M0.5420 3.0060
L0.5400 3.0060
" />
<path d="M0.5420 3.0080
L0.5420 3.0060
" />
</g>
<g style="fill:#000000; fill-opacity:1.0000; stroke:none;">
<circle cx="0.5420" cy="3.0080" r="0.0100" /> 
<circle cx="0.5420" cy="3.0080" r="0.0100" /> 
<circle cx="0.5420" cy="3.0080" r="0.0100" /> 
<circle cx="0.5420" cy="3.0080" r="0.0100" /> 
</g>
<g style="fill:none; 
stroke:#000000; stroke-width:0.0200; stroke-opacity:1; 
stroke-linecap:round; stroke-linejoin:round;">
<path d="M0.5420 3.0100
L0.5420 3.0080
" />
<path d="M0.5420 3.0180
L0.5440 3.0180
" />
<path d="M0.5420 3.0200
L0.5420 3.0180
" />
</g>
<g style="fill:#000000; fill-opacity:1.0000; stroke:none;">
<circle cx="0.5420" cy="3.0200" r="0.0100" /> 
<circle cx="0.5420" cy="3.0200" r="0.0100" /> 
<circle cx="0.5420" cy="3.0200" r="0.0100" /> 
<circle cx="0.5420" cy="3.0200" r="0.0100" /> 
</g>
<g style="fill:none; 
stroke:#000000; stroke-width:0.0200; stroke-opacity:1; 
stroke-linecap:round; stroke-linejoin:round;">
<path d="M0.5420 3.0220
L0.5420 3.0200
" />
<path d="M0.5440 0.5290
L0.5420 0.5290
" />
<path d="M0.5440 0.5310
L0.5440 0.5290
" />
</g>
<g style="fill:#000000; fill-opacity:1.0000; stroke:none;">
<circle cx="0.5440" cy="0.5310" r="0.0100" /> 
<circle cx="0.5440" cy="0.5310" r="0.0100" /> 
<circle cx="0.5440" cy="0.5310" r="0.0100" /> 
<circle cx="0.5440" cy="0.5310" r="0.0100" /> 
</g>
<g style="fill:none; 
stroke:#000000; stroke-width:0.0200; stroke-opacity:1; 
stroke-linecap:round; stroke-linejoin:round;">
<path d="M0.5440 0.5330
L0.5440 0.5310
" />
</g>
<g style="fill:#000000; fill-opacity:1.0000; stroke:none;">
<circle cx="0.5440" cy="0.5330" r="0.0100" /> 
<circle cx="0.5440" cy="0.5330" r="0.0100" /> 
</g>
<g style="fill:none; 
stroke:#000000; stroke-width:0.0200; stroke-opacity:1; 
stroke-linecap:round; stroke-linejoin:round;">
<path d="M0.5440 0.5350
L0.5440 0.5330
" />
</g>
<g style="fill:#000000; fill-opacity:1.0000; stroke:none;">
<circle cx="0.5440" cy="0.5350" r="0.0100" /> 
<circle cx="0.5440" cy="0.5350" r="0.0100" /> 
<circle cx="0.5440" cy="0.5350" r="0.0100" /> 
<circle cx="0.5440" cy="0.5350" r="0.0100" /> 
<circle cx="0.5440" cy="0.5350" r="0.0100" /> 
</g>
<g style="fill:none; 
stroke:#000000; stroke-width:0.0200; stroke-opacity:1; 
stroke-linecap:round; stroke-linejoin:round;">
<path d="M0.5440 0.5370
L0.5440 0.5350
" />
</g>
<g style="fill:#000000; fill-opacity:1.0000; stroke:none;">
<circle cx="0.5440" cy="0.5370" r="0.0100" /> 
<circle cx="0.5440" cy="0.5370" r="0.0100" /> 
<circle cx="0.5440" cy="0.5370" r="0.0100" /> 
<circle cx="0.5440" cy="0.5370" r="0.0100" /> 
</g>
<g style="fill:none; 
stroke:#000000; stroke-width:0.0200; stroke-opacity:1; 
stroke-linecap:round; stroke-linejoin:round;">
<path d="M0.5440 0.5390
L0.5440 0.5370
" />
<path d="M0.5440 3.0100
L0.5420 3.0100
" />
</g>
<g style="fill:#000000; fill-opacity:1.0000; stroke:none;">
<circle cx="0.5440" cy="3.0100" r="0.0100" /> 
<circle cx="0.5440" cy="3.0100" r="0.0100" /> 
</g>
<g style="fill:none; 
stroke:#000000; stroke-width:0.0200; stroke-opacity:1; 
stroke-linecap:round; stroke-linejoin:round;">
<path d="M0.5440 3.0120
L0.5440 3.0100
" />
</g>
<g style="fill:#000000; fill-opacity:1.0000; stroke:none;">
<circle cx="0.5440" cy="3.0120" r="0.0100" /> 
<circle cx="0.5440" cy="3.0120" r="0.0100" /> 
<circle cx="0.5440" cy="3.0120" r="0.0100" /> 
<circle cx="0.5440" cy="3.0120" r="0.0100" /> 
</g>
<g style="fill:none; 
stroke:#000000; stroke-width:0.0200; stroke-opacity:1; 
stroke-linecap:round; stroke-linejoin:round;">
<path d="M0.5440 3.0140
L0.5440 3.0120
" />
</g>
<g style="fill:#000000; fill-opacity:1.0000; stroke:none;">
<circle cx="0.5440" cy="3.0140" r="0.0100" /> 
<circle cx="0.5440" cy="3.0140" r="0.0100" /> 
<circle cx="0.5440" cy="3.0140" r="0.0100" /> 
<circle cx="0.5440" cy="3.0140" r="0.0100" /> 
</g>
<g style="fill:none; 
stroke:#000000; stroke-width:0.0200; stroke-opacity:1; 
stroke-linecap:round; stroke-linejoin:round;">
<path d="M0.5440 3.0160
L0.5440 3.0140
" />
</g>
<g style="fill:#000000; fill-opacity:1.0000; stroke:none;">
<circle cx="0.5440" cy="3.0160" r="0.0100" /> 
<circle cx="0.5440" cy="3.0160" r="0.0100" /> 
<circle cx="0.5440" cy="3.0160" r="0.0100" /> 
<circle cx="0.5440" cy="3.0160" r="0.0100" /> 
</g>
<g style="fill:none; 
stroke:#000000; stroke-width:0.0200; stroke-opacity:1; 
stroke-linecap:round; stroke-linejoin:round;">
<path d="M0.5440 3.0180
L0.5440 3.0160
" />
</g>
<g style="fill:#000000; fill-opacity:1.0000; stroke:none;">
<circle cx="0.5440" cy="3.0180" r="0.0100" /> 
<circle cx="0.5440" cy="3.0180" r="0.0100" /> 
</g>
<g style="fill:none; 
stroke:#000000; stroke-width:0.0200; stroke-opacity:1; 
stroke-linecap:round; stroke-linejoin:round;">
<path d="M1.2750 0.5250
L0.5340 0.5250
" />
<path d="M1.2750 0.5350
L1.2750 0.5250
" />
<path d="M1.2750 3.0080
L2.9730 3.0080
" />
<path d="M1.2750 3.0140
L1.2750 0.5350
" />
<path d="M1.2750 3.0240
L1.2750 3.0140
" />
<path d="M2.9730 0.5250
L2.9730 0.5350
" />
<path d="M2.9730 0.5350
L2.9730 3.0140
" />
<path d="M2.9730 0.5390
L1.2750 0.5390
" />
<path d="M2.9730 3.0140
L2.9730 3.0240
" />
<path d="M2.9730 3.0240
L3.7150 3.0240
" />
</g>
<g style="fill:#000000; fill-opacity:1.0000; stroke:none;">
<circle cx="3.7050" cy="0.5290" r="0.0100" /> 
<circle cx="3.7050" cy="0.5290" r="0.0100" /> 
<circle cx="3.7050" cy="0.5290" r="0.0100" /> 
<circle cx="3.7050" cy="0.5290" r="0.0100" /> 
</g>
<g style="fill:none; 
stroke:#000000; stroke-width:0.0200; stroke-opacity:1; 
stroke-linecap:round; stroke-linejoin:round;">
<path d="M3.7050 0.5290
L3.7050 0.5310
" />
</g>
<g style="fill:#000000; fill-opacity:1.0000; stroke:none;">
<circle cx="3.7050" cy="0.5310" r="0.0100" /> 
<circle cx="3.7050" cy="0.5310" r="0.0100" /> 
<circle cx="3.7050" cy="0.5310" r="0.0100" /> 
<circle cx="3.7050" cy="0.5310" r="0.0100" /> 
</g>
<g style="fill:none; 
stroke:#000000; stroke-width:0.0200; stroke-opacity:1; 
stroke-linecap:round; stroke-linejoin:round;">
<path d="M3.7050 0.5310
L3.7050 0.5330
" />
</g>
<g style="fill:#000000; fill-opacity:1.0000; stroke:none;">
<circle cx="3.7050" cy="0.5330" r="0.0100" /> 
<circle cx="3.7050" cy="0.5330" r="0.0100" /> 
</g>
<g style="fill:none; 
stroke:#000000; stroke-width:0.0200; stroke-opacity:1; 
stroke-linecap:round; stroke-linejoin:round;">
<path d="M3.7050 0.5330
L3.7050 0.5350
" />
</g>
<g style="fill:#000000; fill-opacity:1.0000; stroke:none;">
<circle cx="3.7050" cy="0.5350" r="0.0100" /> 
<circle cx="3.7050" cy="0.5350" r="0.0100" /> 
<circle cx="3.7050" cy="0.5350" r="0.0100" /> 
<circle cx="3.7050" cy="0.5350" r="0.0100" /> 
</g>
<g style="fill:none; 
stroke:#000000; stroke-width:0.0200; stroke-opacity:1; 
stroke-linecap:round; stroke-linejoin:round;">
<path d="M3.7050 0.5350
L3.7050 0.5370
" />
</g>
<g style="fill:#000000; fill-opacity:1.0000; stroke:none;">
<circle cx="3.7050" cy="0.5370" r="0.0100" /> 
<circle cx="3.7050" cy="0.5370" r="0.0100" /> 
<circle cx="3.7050" cy="0.5370" r="0.0100" /> 
<circle cx="3.7050" cy="0.5370" r="0.0100" /> 
</g>
<g style="fill:none; 
stroke:#000000; stroke-width:0.0200; stroke-opacity:1; 
stroke-linecap:round; stroke-linejoin:round;">
<path d="M3.7050 0.5370
L3.7050 0.5390
" />
</g>
<g style="fill:#000000; fill-opacity:1.0000; stroke:none;">
<circle cx="3.7050" cy="0.5390" r="0.0100" /> 
<circle cx="3.7050" cy="0.5390" r="0.0100" /> 
<circle cx="3.7050" cy="0.5390" r="0.0100" /> 
<circle cx="3.7050" cy="0.5390" r="0.0100" /> 
</g>
<g style="fill:none; 
stroke:#000000; stroke-width:0.0200; stroke-opacity:1; 
stroke-linecap:round; stroke-linejoin:round;">
<path d="M3.7050 0.5390
L3.7070 0.5410
" />
</g>
<g style="fill:#000000; fill-opacity:1.0000; stroke:none;">
<circle cx="3.7050" cy="3.0080" r="0.0100" /> 
<circle cx="3.7050" cy="3.0080" r="0.0100" /> 
</g>
<g style="fill:none; 
stroke:#000000; stroke-width:0.0200; stroke-opacity:1; 
stroke-linecap:round; stroke-linejoin:round;">
<path d="M3.7050 3.0080
L3.7050 3.0100
" />
</g>
<g style="fill:#000000; fill-opacity:1.0000; stroke:none;">
<circle cx="3.7050" cy="3.0100" r="0.0100" /> 
<circle cx="3.7050" cy="3.0100" r="0.0100" /> 
<circle cx="3.7050" cy="3.0100" r="0.0100" /> 
</g>
<g style="fill:none; 
stroke:#000000; stroke-width:0.0200; stroke-opacity:1; 
stroke-linecap:round; stroke-linejoin:round;">
<path d="M3.7050 3.0100
L3.7050 3.0120
" />
</g>
<g style="fill:#000000; fill-opacity:1.0000; stroke:none;">
<circle cx="3.7050" cy="3.0120" r="0.0100" /> 
<circle cx="3.7050" cy="3.0120" r="0.0100" /> 
<circle cx="3.7050" cy="3.0120" r="0.0100" /> 
<circle cx="3.7050" cy="3.0120" r="0.0100" /> 
</g>
<g style="fill:none; 
stroke:#000000; stroke-width:0.0200; stroke-opacity:1; 
stroke-linecap:round; stroke-linejoin:round;">
<path d="M3.7050 3.0120
L3.7050 3.0140
" />
</g>
<g style="fill:#000000; fill-opacity:1.0000; stroke:none;">
<circle cx="3.7050" cy="3.0140" r="0.0100" /> 
<circle cx="3.7050" cy="3.0140" r="0.0100" /> 
<circle cx="3.7050" cy="3.0140" r="0.0100" /> 
</g>
<g style="fill:none; 
stroke:#000000; stroke-width:0.0200; stroke-opacity:1; 
stroke-linecap:round; stroke-linejoin:round;">
<path d="M3.7050 3.0140
L3.7050 3.0160
" />
</g>
<g style="fill:#000000; fill-opacity:1.0000; stroke:none;">
<circle cx="3.7050" cy="3.0160" r="0.0100" /> 
<circle cx="3.7050" cy="3.0160" r="0.0100" /> 
<circle cx="3.7050" cy="3.0160" r="0.0100" /> 
<circle cx="3.7050" cy="3.0160" r="0.0100" /> 
</g>
<g style="fill:none; 
stroke:#000000; stroke-width:0.0200; stroke-opacity:1; 
stroke-linecap:round; stroke-linejoin:round;">
<path d="M3.7050 3.0160
L3.7050 3.0180
" />
</g>
<g style="fill:#000000; fill-opacity:1.0000; stroke:none;">
<circle cx="3.7050" cy="3.0180" r="0.0100" /> 
<circle cx="3.7050" cy="3.0180" r="0.0100" /> 
<circle cx="3.7050" cy="3.0180" r="0.0100" /> 
</g>
<g style="fill:none; 
stroke:#000000; stroke-width:0.0200; stroke-opacity:1; 
stroke-linecap:round; stroke-linejoin:round;">
<path d="M3.7050 3.0180
L3.7050 3.0200
" />
</g>
<g style="fill:#000000; fill-opacity:1.0000; stroke:none;">
<circle cx="3.7050" cy="3.0200" r="0.0100" /> 
<circle cx="3.7050" cy="3.0200" r="0.0100" /> 
</g>
<g style="fill:none; 
stroke:#000000; stroke-width:0.0200; stroke-opacity:1; 
stroke-linecap:round; stroke-linejoin:round;">
<path d="M3.7050 3.0200
L3.7070 3.0200
" />
<path d="M3.7070 0.5270
L3.7050 0.5290
" />
</g>
<g style="fill:#000000; fill-opacity:1.0000; stroke:none;">
<circle cx="3.7070" cy="0.5270" r="0.0100" /> 
<circle cx="3.7070" cy="0.5270" r="0.0100" /> 
<circle cx="3.7070" cy="0.5270" r="0.0100" /> 
<circle cx="3.7070" cy="0.5270" r="0.0100" /> 
<circle cx="3.7070" cy="0.5410" r="0.0100" /> 
<circle cx="3.7070" cy="0.5410" r="0.0100" /> 
<circle cx="3.7070" cy="0.5410" r="0.0100" /> 
<circle cx="3.7070" cy="0.5410" r="0.0100" /> 
</g>
<g style="fill:none; 
stroke:#000000; stroke-width:0.0200; stroke-opacity:1; 
stroke-linecap:round; stroke-linejoin:round;">
<path d="M3.7070 0.5410
L3.7090 0.5430
" />
</g>
<g style="fill:#000000; fill-opacity:1.0000; stroke:none;">
<circle cx="3.7070" cy="3.0060" r="0.0100" /> 
<circle cx="3.7070" cy="3.0060" r="0.0100" /> 
</g>
<g style="fill:none; 
stroke:#000000; stroke-width:0.0200; stroke-opacity:1; 
stroke-linecap:round; stroke-linejoin:round;">
<path d="M3.7070 3.0060
L3.7070 3.0080
" />
<path d="M3.7070 3.0080
L3.7050 3.0080
" />
</g>
<g style="fill:#000000; fill-opacity:1.0000; stroke:none;">
<circle cx="3.7070" cy="3.0080" r="0.0100" /> 
<circle cx="3.7070" cy="3.0200" r="0.0100" /> 
</g>
<g style="fill:none; 
stroke:#000000; stroke-width:0.0200; stroke-opacity:1; 
stroke-linecap:round; stroke-linejoin:round;">
<path d="M3.7070 3.0200
L3.7070 3.0220
" />
</g>
<g style="fill:#000000; fill-opacity:1.0000; stroke:none;">
<circle cx="3.7070" cy="3.0220" r="0.0100" /> 
<circle cx="3.7070" cy="3.0220" r="0.0100" /> 
</g>
<g style="fill:none; 
stroke:#000000; stroke-width:0.0200; stroke-opacity:1; 
stroke-linecap:round; stroke-linejoin:round;">
<path d="M3.7070 3.0220
L3.7090 3.0220
" />
<path d="M3.7090 0.5250
L3.7070 0.5270
" />
</g>
<g style="fill:#000000; fill-opacity:1.0000; stroke:none;">
<circle cx="3.7090" cy="0.5250" r="0.0100" /> 
<circle cx="3.7090" cy="0.5250" r="0.0100" /> 
<circle cx="3.7090" cy="0.5250" r="0.0100" /> 
<circle cx="3.7090" cy="0.5250" r="0.0100" /> 
<circle cx="3.7090" cy="0.5430" r="0.0100" /> 
<circle cx="3.7090" cy="0.5430" r="0.0100" /> 
<circle cx="3.7090" cy="0.5430" r="0.0100" /> 
<circle cx="3.7090" cy="0.5430" r="0.0100" /> 
</g>
<g style="fill:none; 
stroke:#000000; stroke-width:0.0200; stroke-opacity:1; 
stroke-linecap:round; stroke-linejoin:round;">
<path d="M3.7090 0.5430
L3.7110 0.5430
" />
<path d="M3.7090 3.0040
L3.7090 3.0060
" />
<path d="M3.7090 3.0060
L3.7070 3.0060
" />
</g>
<g style="fill:#000000; fill-opacity:1.0000; stroke:none;">
<circle cx="3.7090" cy="3.0060" r="0.0100" /> 
<circle cx="3.7090" cy="3.0060" r="0.0100" /> 
<circle cx="3.7090" cy="3.0060" r="0.0100" /> 
<circle cx="3.7090" cy="3.0220" r="0.0100" /> 
<circle cx="3.7090" cy="3.0220" r="0.0100" /> 
<circle cx="3.7090" cy="3.0220" r="0.0100" /> 
</g>
<g style="fill:none; 
stroke:#000000; stroke-width:0.0200; stroke-opacity:1; 
stroke-linecap:round; stroke-linejoin:round;">
<path d="M3.7090 3.0220
L3.7090 3.0240
" />
<path d="M3.7090 3.0240
L3.7110 3.0240
" />
<path d="M3.7110 0.5250
L3.7090 0.5250
" />
</g>
<g style="fill:#000000; fill-opacity:1.0000; stroke:none;">
<circle cx="3.7110" cy="0.5250" r="0.0100" /> 
<circle cx="3.7110" cy="0.5250" r="0.0100" /> 
<circle cx="3.7110" cy="0.5250" r="0.0100" /> 
<circle cx="3.7110" cy="0.5250" r="0.0100" /> 
<circle cx="3.7110" cy="0.5430" r="0.0100" /> 
<circle cx="3.7110" cy="0.5430" r="0.0100" /> 
<circle cx="3.7110" cy="0.5430" r="0.0100" /> 
<circle cx="3.7110" cy="0.5430" r="0.0100" /> 
</g>
<g style="fill:none; 
stroke:#000000; stroke-width:0.0200; stroke-opacity:1; 
stroke-linecap:round; stroke-linejoin:round;">
<path d="M3.7110 0.5430
L3.7130 0.5430
" />
<path d="M3.7110 3.0040
L3.7090 3.0040
" />
</g>
<g style="fill:#000000; fill-opacity:1.0000; stroke:none;">
<circle cx="3.7110" cy="3.0040" r="0.0100" /> 
<circle cx="3.7110" cy="3.0040" r="0.0100" /> 
<circle cx="3.7110" cy="3.0040" r="0.0100" /> 
<circle cx="3.7110" cy="3.0040" r="0.0100" /> 
<circle cx="3.7110" cy="3.0240" r="0.0100" /> 
<circle cx="3.7110" cy="3.0240" r="0.0100" /> 
<circle cx="3.7110" cy="3.0240" r="0.0100" /> 
<circle cx="3.7110" cy="3.0240" r="0.0100" /> 
</g>
<g style="fill:none; 
stroke:#000000; stroke-width:0.0200; stroke-opacity:1; 
stroke-linecap:round; stroke-linejoin:round;">
<path d="M3.7110 3.0240
L3.7130 3.0240
" />
<path d="M3.7130 0.5250
L3.7110 0.5250
" />
</g>
<g style="fill:#000000; fill-opacity:1.0000; stroke:none;">
<circle cx="3.7130" cy="0.5250" r="0.0100" /> 
<circle cx="3.7130" cy="0.5250" r="0.0100" /> 
<circle cx="3.7130" cy="0.5430" r="0.0100" /> 
<circle cx="3.7130" cy="0.5430" r="0.0100" /> 
</g>
<g style="fill:none; 
stroke:#000000; stroke-width:0.0200; stroke-opacity:1; 
stroke-linecap:round; stroke-linejoin:round;">
<path d="M3.7130 0.5430
L3.7150 0.5450
" />
<path d="M3.7130 3.0040
L3.7110 3.0040
" />
</g>
<g style="fill:#000000; fill-opacity:1.0000; stroke:none;">
<circle cx="3.7130" cy="3.0040" r="0.0100" /> 
<circle cx="3.7130" cy="3.0040" r="0.0100" /> 
<circle cx="3.7130" cy="3.0240" r="0.0100" /> 
<circle cx="3.7130" cy="3.0240" r="0.0100" /> 
</g>
<g style="fill:none; 
stroke:#000000; stroke-width:0.0200; stroke-opacity:1; 
stroke-linecap:round; stroke-linejoin:round;">
<path d="M3.7130 3.0240
L3.7150 3.0240
" />
<path d="M3.7150 0.5250
L2.9730 0.5250
" />
<path d="M3.7150 0.5250
L3.7130 0.5250
" />
</g>
<g style="fill:#000000; fill-opacity:1.0000; stroke:none;">
<circle cx="3.7150" cy="0.5250" r="0.0100" /> 
<circle cx="3.7150" cy="0.5250" r="0.0100" /> 
<circle cx="3.7150" cy="0.5250" r="0.0100" /> 
<circle cx="3.7150" cy="0.5250" r="0.0100" /> 
<circle cx="3.7150" cy="0.5430" r="0.0100" /> 
<circle cx="3.7150" cy="0.5430" r="0.0100" /> 
</g>
<g style="fill:none; 
stroke:#000000; stroke-width:0.0200; stroke-opacity:1; 
stroke-linecap:round; stroke-linejoin:round;">
<path d="M3.7150 0.5430
L3.7170 0.5430
" />
<path d="M3.7150 0.5450
L3.7150 0.5430
" />
</g>
<g style="fill:#000000; fill-opacity:1.0000; stroke:none;">
<circle cx="3.7150" cy="0.5450" r="0.0100" /> 
</g>
<g style="fill:none; 
stroke:#000000; stroke-width:0.0200; stroke-opacity:1; 
stroke-linecap:round; stroke-linejoin:round;">
<path d="M3.7150 3.0040
L3.7130 3.0040
" />
</g>
<g style="fill:#000000; fill-opacity:1.0000; stroke:none;">
<circle cx="3.7150" cy="3.0040" r="0.0100" /> 
<circle cx="3.7150" cy="3.0040" r="0.0100" /> 
<circle cx="3.7150" cy="3.0040" r="0.0100" /> 
<circle cx="3.7150" cy="3.0040" r="0.0100" /> 
<circle cx="3.7150" cy="3.0240" r="0.0100" /> 
<circle cx="3.7150" cy="3.0240" r="0.0100" /> 
<circle cx="3.7150" cy="3.0240" r="0.0100" /> 
<circle cx="3.7150" cy="3.0240" r="0.0100" /> 
</g>
<g style="fill:none; 
stroke:#000000; stroke-width:0.0200; stroke-opacity:1; 
stroke-linecap:round; stroke-linejoin:round;">
<path d="M3.7150 3.0240
L3.7170 3.0240
" />
<path d="M3.7170 0.5250
L3.7150 0.5250
" />
</g>
<g style="fill:#000000; fill-opacity:1.0000; stroke:none;">
<circle cx="3.7170" cy="0.5250" r="0.0100" /> 
<circle cx="3.7170" cy="0.5250" r="0.0100" /> 
<circle cx="3.7170" cy="0.5250" r="0.0100" /> 
<circle cx="3.7170" cy="0.5250" r="0.0100" /> 
<circle cx="3.7170" cy="0.5430" r="0.0100" /> 
<circle cx="3.7170" cy="0.5430" r="0.0100" /> 
<circle cx="3.7170" cy="0.5430" r="0.0100" /> 
<circle cx="3.7170" cy="0.5430" r="0.0100" /> 
</g>
<g style="fill:none; 
stroke:#000000; stroke-width:0.0200; stroke-opacity:1; 
stroke-linecap:round; stroke-linejoin:round;">
<path d="M3.7170 0.5430
L3.7190 0.5430
" />
<path d="M3.7170 3.0040
L3.7150 3.0040
" />
</g>
<g style="fill:#000000; fill-opacity:1.0000; stroke:none;">
<circle cx="3.7170" cy="3.0040" r="0.0100" /> 
<circle cx="3.7170" cy="3.0040" r="0.0100" /> 
<circle cx="3.7170" cy="3.0040" r="0.0100" /> 
<circle cx="3.7170" cy="3.0040" r="0.0100" /> 
<circle cx="3.7170" cy="3.0240" r="0.0100" /> 
<circle cx="3.7170" cy="3.0240" r="0.0100" /> 
<circle cx="3.7170" cy="3.0240" r="0.0100" /> 
<circle cx="3.7170" cy="3.0240" r="0.0100" /> 
</g>
<g style="fill:none; 
stroke:#000000; stroke-width:0.0200; stroke-opacity:1; 
stroke-linecap:round; stroke-linejoin:round;">
<path d="M3.7170 3.0240
L3.7190 3.0240
" />
<path d="M3.7190 0.5250
L3.7170 0.5250
" />
</g>
<g style="fill:#000000; fill-opacity:1.0000; stroke:none;">
<circle cx="3.7190" cy="0.5250" r="0.0100" /> 
<circle cx="3.7190" cy="0.5250" r="0.0100" /> 
<circle cx="3.7190" cy="0.5250" r="0.0100" /> 
<circle cx="3.7190" cy="0.5250" r="0.0100" /> 
<circle cx="3.7190" cy="0.5430" r="0.0100" /> 
<circle cx="3.7190" cy="0.5430" r="0.0100" /> 
<circle cx="3.7190" cy="0.5430" r="0.0100" /> 
<circle cx="3.7190" cy="0.5430" r="0.0100" /> 
</g>
<g style="fill:none; 
stroke:#000000; stroke-width:0.0200; stroke-opacity:1; 
stroke-linecap:round; stroke-linejoin:round;">
<path d="M3.7190 0.5430
L3.7210 0.5410
" />
<path d="M3.7190 3.0040
L3.7170 3.0040
" />
<path d="M3.7190 3.0060
L3.7190 3.0040
" />
</g>
<g style="fill:#000000; fill-opacity:1.0000; stroke:none;">
<circle cx="3.7190" cy="3.0060" r="0.0100" /> 
<circle cx="3.7190" cy="3.0060" r="0.0100" /> 
<circle cx="3.7190" cy="3.0060" r="0.0100" /> 
<circle cx="3.7190" cy="3.0220" r="0.0100" /> 
<circle cx="3.7190" cy="3.0220" r="0.0100" /> 
<circle cx="3.7190" cy="3.0220" r="0.0100" /> 
</g>
<g style="fill:none; 
stroke:#000000; stroke-width:0.0200; stroke-opacity:1; 
stroke-linecap:round; stroke-linejoin:round;">
<path d="M3.7190 3.0220
L3.7210 3.0220
" />
<path d="M3.7190 3.0240
L3.7190 3.0220
" />
<path d="M3.7210 0.5270
L3.7190 0.5250
" />
</g>
<g style="fill:#000000; fill-opacity:1.0000; stroke:none;">
<circle cx="3.7210" cy="0.5270" r="0.0100" /> 
<circle cx="3.7210" cy="0.5270" r="0.0100" /> 
<circle cx="3.7210" cy="0.5270" r="0.0100" /> 
<circle cx="3.7210" cy="0.5270" r="0.0100" /> 
<circle cx="3.7210" cy="0.5410" r="0.0100" /> 
<circle cx="3.7210" cy="0.5410" r="0.0100" /> 
<circle cx="3.7210" cy="0.5410" r="0.0100" /> 
<circle cx="3.7210" cy="0.5410" r="0.0100" /> 
</g>
<g style="fill:none; 
stroke:#000000; stroke-width:0.0200; stroke-opacity:1; 
stroke-linecap:round; stroke-linejoin:round;">
<path d="M3.7210 0.5410
L3.7230 0.5390
" />
<path d="M3.7210 3.0060
L3.7190 3.0060
" />
</g>
<g style="fill:#000000; fill-opacity:1.0000; stroke:none;">
<circle cx="3.7210" cy="3.0060" r="0.0100" /> 
<circle cx="3.7210" cy="3.0060" r="0.0100" /> 
</g>
<g style="fill:none; 
stroke:#000000; stroke-width:0.0200; stroke-opacity:1; 
stroke-linecap:round; stroke-linejoin:round;">
<path d="M3.7210 3.0080
L3.7210 3.0060
" />
</g>
<g style="fill:#000000; fill-opacity:1.0000; stroke:none;">
<circle cx="3.7210" cy="3.0080" r="0.0100" /> 
<circle cx="3.7210" cy="3.0200" r="0.0100" /> 
</g>
<g style="fill:none; 
stroke:#000000; stroke-width:0.0200; stroke-opacity:1; 
stroke-linecap:round; stroke-linejoin:round;">
<path d="M3.7210 3.0200
L3.7230 3.0200
" />
<path d="M3.7210 3.0220
L3.7210 3.0200
" />
</g>
<g style="fill:#000000; fill-opacity:1.0000; stroke:none;">
<circle cx="3.7210" cy="3.0220" r="0.0100" /> 
<circle cx="3.7210" cy="3.0220" r="0.0100" /> 
</g>
<g style="fill:none; 
stroke:#000000; stroke-width:0.0200; stroke-opacity:1; 
stroke-linecap:round; stroke-linejoin:round;">
<path d="M3.7230 0.5290
L3.7210 0.5270
" />
</g>
<g style="fill:#000000; fill-opacity:1.0000; stroke:none;">
<circle cx="3.7230" cy="0.5290" r="0.0100" /> 
<circle cx="3.7230" cy="0.5290" r="0.0100" /> 
<circle cx="3.7230" cy="0.5290" r="0.0100" /> 
<circle cx="3.7230" cy="0.5290" r="0.0100" /> 
</g>
<g style="fill:none; 
stroke:#000000; stroke-width:0.0200; stroke-opacity:1; 
stroke-linecap:round; stroke-linejoin:round;">
<path d="M3.7230 0.5310
L3.7230 0.5290
" />
</g>
<g style="fill:#000000; fill-opacity:1.0000; stroke:none;">
<circle cx="3.7230" cy="0.5310" r="0.0100" /> 
<circle cx="3.7230" cy="0.5310" r="0.0100" /> 
<circle cx="3.7230" cy="0.5310" r="0.0100" /> 
<circle cx="3.7230" cy="0.5310" r="0.0100" /> 
</g>
<g style="fill:none; 
stroke:#000000; stroke-width:0.0200; stroke-opacity:1; 
stroke-linecap:round; stroke-linejoin:round;">
<path d="M3.7230 0.5330
L3.7230 0.5310
" />
</g>
<g style="fill:#000000; fill-opacity:1.0000; stroke:none;">
<circle cx="3.7230" cy="0.5330" r="0.0100" /> 
<circle cx="3.7230" cy="0.5330" r="0.0100" /> 
<circle cx="3.7230" cy="0.5350" r="0.0100" /> 
<circle cx="3.7230" cy="0.5350" r="0.0100" /> 
</g>
<g style="fill:none; 
stroke:#000000; stroke-width:0.0200; stroke-opacity:1; 
stroke-linecap:round; stroke-linejoin:round;">
<path d="M3.7230 0.5350
L3.7250 0.5350
" />
<path d="M3.7230 0.5370
L3.7230 0.5350
" />
</g>
<g style="fill:#000000; fill-opacity:1.0000; stroke:none;">
<circle cx="3.7230" cy="0.5370" r="0.0100" /> 
<circle cx="3.7230" cy="0.5370" r="0.0100" /> 
<circle cx="3.7230" cy="0.5370" r="0.0100" /> 
<circle cx="3.7230" cy="0.5370" r="0.0100" /> 
</g>
<g style="fill:none; 
stroke:#000000; stroke-width:0.0200; stroke-opacity:1; 
stroke-linecap:round; stroke-linejoin:round;">
<path d="M3.7230 0.5390
L3.7230 0.5370
" />
</g>
<g style="fill:#000000; fill-opacity:1.0000; stroke:none;">
<circle cx="3.7230" cy="0.5390" r="0.0100" /> 
<circle cx="3.7230" cy="0.5390" r="0.0100" /> 
<circle cx="3.7230" cy="0.5390" r="0.0100" /> 
<circle cx="3.7230" cy="0.5390" r="0.0100" /> 
</g>
<g style="fill:none; 
stroke:#000000; stroke-width:0.0200; stroke-opacity:1; 
stroke-linecap:round; stroke-linejoin:round;">
<path d="M3.7230 3.0080
L3.7210 3.0080
" />
</g>
<g style="fill:#000000; fill-opacity:1.0000; stroke:none;">
<circle cx="3.7230" cy="3.0080" r="0.0100" /> 
<circle cx="3.7230" cy="3.0080" r="0.0100" /> 
</g>
<g style="fill:none; 
stroke:#000000; stroke-width:0.0200; stroke-opacity:1; 
stroke-linecap:round; stroke-linejoin:round;">
<path d="M3.7230 3.0100
L3.7230 3.0080
" />
</g>
<g style="fill:#000000; fill-opacity:1.0000; stroke:none;">
<circle cx="3.7230" cy="3.0100" r="0.0100" /> 
<circle cx="3.7230" cy="3.0100" r="0.0100" /> 
<circle cx="3.7230" cy="3.0100" r="0.0100" /> 
</g>
<g style="fill:none; 
stroke:#000000; stroke-width:0.0200; stroke-opacity:1; 
stroke-linecap:round; stroke-linejoin:round;">
<path d="M3.7230 3.0120
L3.7230 3.0100
" />
</g>
<g style="fill:#000000; fill-opacity:1.0000; stroke:none;">
<circle cx="3.7230" cy="3.0120" r="0.0100" /> 
<circle cx="3.7230" cy="3.0120" r="0.0100" /> 
<circle cx="3.7230" cy="3.0120" r="0.0100" /> 
<circle cx="3.7230" cy="3.0120" r="0.0100" /> 
</g>
<g style="fill:none; 
stroke:#000000; stroke-width:0.0200; stroke-opacity:1; 
stroke-linecap:round; stroke-linejoin:round;">
<path d="M3.7230 3.0140
L3.7230 3.0120
" />
<path d="M3.7230 3.0140
L3.7250 3.0140
" />
<path d="M3.7230 3.0160
L3.7230 3.0140
" />
</g>
<g style="fill:#000000; fill-opacity:1.0000; stroke:none;">
<circle cx="3.7230" cy="3.0160" r="0.0100" /> 
<circle cx="3.7230" cy="3.0160" r="0.0100" /> 
<circle cx="3.7230" cy="3.0160" r="0.0100" /> 
<circle cx="3.7230" cy="3.0160" r="0.0100" /> 
</g>
<g style="fill:none; 
stroke:#000000; stroke-width:0.0200; stroke-opacity:1; 
stroke-linecap:round; stroke-linejoin:round;">
<path d="M3.7230 3.0180
L3.7230 3.0160
" />
</g>
<g style="fill:#000000; fill-opacity:1.0000; stroke:none;">
<circle cx="3.7230" cy="3.0180" r="0.0100" /> 
<circle cx="3.7230" cy="3.0180" r="0.0100" /> 
<circle cx="3.7230" cy="3.0180" r="0.0100" /> 
</g>
<g style="fill:none; 
stroke:#000000; stroke-width:0.0200; stroke-opacity:1; 
stroke-linecap:round; stroke-linejoin:round;">
<path d="M3.7230 3.0200
L3.7230 3.0180
" />
</g>
<g style="fill:#000000; fill-opacity:1.0000; stroke:none;">
<circle cx="3.7230" cy="3.0200" r="0.0100" /> 
<circle cx="3.7230" cy="3.0200" r="0.0100" /> 
</g>
<g style="fill:none; 
stroke:#000000; stroke-width:0.0200; stroke-opacity:1; 
stroke-linecap:round; stroke-linejoin:round;">
<path d="M3.7250 0.5350
L3.7230 0.5330
" />
</g>
<g style="fill:#000000; fill-opacity:1.0000; stroke:none;">
<circle cx="3.7250" cy="0.5350" r="0.0100" /> 
<circle cx="3.7250" cy="0.5350" r="0.0100" /> 
</g>
<g style="fill:none; 
stroke:#000000; stroke-width:0.0200; stroke-opacity:1; 
stroke-linecap:round; stroke-linejoin:round;">
<path d="M3.7250 3.0140
L3.7230 3.0140
" />
<path d="M3.7250 3.0140
L3.7250 0.5350
" />
</g>
<g style="fill:#000000; fill-opacity:1.0000; stroke:none;">
<circle cx="3.7250" cy="3.0140" r="0.0100" /> 
<circle cx="3.7250" cy="3.0140" r="0.0100" /> 
</g> 
</svg>
