{
  "accessors": [
    {
      "bufferView": 0,
      "byteOffset": 0,
      "componentType": 5126,
      "normalized": false,
      "count": 8716,
      "type": "VEC3",
      "max": [
        1.7504016160964966,
        0.19996333122253418,
        2.2551076412200928
      ],
      "min": [
        -1.7495061159133911,
        0.0,
        -2.244891405105591
      ]
    },
    {
      "bufferView": 0,
      "byteOffset": 12,
      "componentType": 5126,
      "normalized": false,
      "count": 8716,
      "type": "VEC3"
    },
    {
      "bufferView": 0,
      "byteOffset": 24,
      "componentType": 5126,
      "normalized": false,
      "count": 8716,
      "type": "VEC2"
    },
    {
      "bufferView": 1,
      "byteOffset": 0,
      "componentType": 5123,
      "normalized": false,
      "count": 21870,
      "type": "SCALAR"
    },
    {
      "bufferView": 1,
      "byteOffset": 43740,
      "componentType": 5123,
      "normalized": false,
      "count": 2601,
      "type": "SCALAR"
    },
    {
      "bufferView": 1,
      "byteOffset": 48944,
      "componentType": 5123,
      "normalized": false,
      "count": 6,
      "type": "SCALAR"
    },
    {
      "bufferView": 2,
      "byteOffset": 0,
      "componentType": 5126,
      "normalized": false,
      "count": 1127,
      "type": "VEC3",
      "max": [
        1.7504016160964966,
        0.8501188158988953,
        2.2551076412200928
      ],
      "min": [
        -1.7495061159133911,
        0.0,
        -2.244891405105591
      ]
    },
    {
      "bufferView": 2,
      "byteOffset": 12,
      "componentType": 5126,
      "normalized": false,
      "count": 1127,
      "type": "VEC3"
    },
    {
      "bufferView": 2,
      "byteOffset": 24,
      "componentType": 5126,
      "normalized": false,
      "count": 1127,
      "type": "VEC2"
    },
    {
      "bufferView": 3,
      "byteOffset": 0,
      "componentType": 5126,
      "normalized": false,
      "count": 4,
      "type": "VEC3",
      "max": [
        1.7504016160964966,
        0.8500000238418579,
        2.2551076412200928
      ],
      "min": [
        -1.7495061159133911,
        0.8500000238418579,
        -2.244891405105591
      ]
    },
    {
      "bufferView": 3,
      "byteOffset": 12,
      "componentType": 5126,
      "normalized": false,
      "count": 4,
      "type": "VEC3"
    },
    {
      "bufferView": 3,
      "byteOffset": 24,
      "componentType": 5126,
      "normalized": false,
      "count": 4,
      "type": "VEC2"
    }
  ],
  "asset": {
    "generator": "pygltflib@v1.16.4",
    "version": "2.0"
  },
  "bufferViews": [
    {
      "buffer": 0,
      "byteOffset": 0,
      "byteLength": 278912,
      "byteStride": 32,
      "target": 34962
    },
    {
      "buffer": 0,
      "byteOffset": 278912,
      "byteLength": 48956,
      "target": 34963
    },
    {
      "buffer": 0,
      "byteOffset": 327868,
      "byteLength": 36064,
      "byteStride": 32,
      "target": 34962
    },
    {
      "buffer": 0,
      "byteOffset": 363932,
      "byteLength": 128,
      "byteStride": 32,
      "target": 34962
    }
  ],
  "buffers": [
    {
      "uri": "QFN-26_3.5x4.5x1mm_P0.45mm-monolithic-power-systems-mp5424grm-0000-z.bin",
      "byteLength": 364060
    }
  ],
  "extensionsUsed": [
    "KHR_materials_ior",
    "KHR_materials_specular",
    "KHR_texture_basisu"
  ],
  "extensionsRequired": [
    "KHR_texture_basisu"
  ],
  "images": [
    {
      "uri": "../shared_textures/metal_pins_normal.ktx2",
      "mimeType": "image/ktx2",
      "name": "metal_pins_normal"
    },
    {
      "uri": "../shared_textures/metal_pins_color.ktx2",
      "mimeType": "image/ktx2",
      "name": "metal_pins_color"
    },
    {
      "uri": "../shared_textures/plastic_matte_black_normal.ktx2",
      "mimeType": "image/ktx2",
      "name": "plastic_matte_black_normal"
    },
    {
      "uri": "../shared_textures/plastic_matte_black_color.ktx2",
      "mimeType": "image/ktx2",
      "name": "plastic_matte_black_color"
    },
    {
      "uri": "monolithic-power-systems-mp5424grm-0000-z-marking_normal.ktx2",
      "mimeType": "image/ktx2",
      "name": "monolithic-power-systems-mp5424grm-0000-z-marking_normal"
    },
    {
      "uri": "monolithic-power-systems-mp5424grm-0000-z-marking_color.ktx2",
      "mimeType": "image/ktx2",
      "name": "monolithic-power-systems-mp5424grm-0000-z-marking_color"
    },
    {
      "uri": "monolithic-power-systems-mp5424grm-0000-z-marking_metallic-monolithic-power-systems-mp5424grm-0000-z-marking_roughnes.ktx2",
      "mimeType": "image/ktx2",
      "name": "monolithic-power-systems-mp5424grm-0000-z-marking_metallic-monolithic-power-systems-mp5424grm-0000-z-marking_roughnes"
    }
  ],
  "materials": [
    {
      "extensions": {
        "KHR_materials_ior": {
          "ior": 1.4500000476837158
        },
        "KHR_materials_specular": {
          "specularFactor": 0
        }
      },
      "pbrMetallicRoughness": {
        "baseColorFactor": [
          1.0,
          1.0,
          1.0,
          1.0
        ],
        "metallicFactor": 0.7818182110786438,
        "roughnessFactor": 0.28863638639450073,
        "baseColorTexture": {
          "index": 0,
          "texCoord": 0
        }
      },
      "normalTexture": {
        "index": 1,
        "scale": 1.0
      },
      "emissiveFactor": [
        0.0,
        0.0,
        0.0
      ],
      "alphaMode": "OPAQUE",
      "alphaCutoff": 0.5,
      "doubleSided": true,
      "name": "gltf_metal_pins"
    },
    {
      "pbrMetallicRoughness": {
        "baseColorFactor": [
          1.0,
          1.0,
          1.0,
          1.0
        ],
        "metallicFactor": 0.09154544770717621,
        "roughnessFactor": 0.4615432620048523,
        "baseColorTexture": {
          "index": 2,
          "texCoord": 0
        }
      },
      "normalTexture": {
        "index": 3,
        "scale": 1.0
      },
      "emissiveFactor": [
        0.0,
        0.0,
        0.0
      ],
      "alphaMode": "OPAQUE",
      "alphaCutoff": 0.5,
      "doubleSided": true,
      "name": "gltf_plastic_matte_black"
    },
    {
      "pbrMetallicRoughness": {
        "baseColorFactor": [
          1.0,
          1.0,
          1.0,
          1.0
        ],
        "metallicFactor": 1.0,
        "roughnessFactor": 1.0,
        "baseColorTexture": {
          "index": 4,
          "texCoord": 0
        },
        "metallicRoughnessTexture": {
          "index": 6,
          "texCoord": 0
        }
      },
      "normalTexture": {
        "index": 5,
        "scale": 1.0
      },
      "emissiveFactor": [
        0.0,
        0.0,
        0.0
      ],
      "alphaMode": "OPAQUE",
      "alphaCutoff": 0.5,
      "doubleSided": true,
      "name": "gltf_monolithic-power-systems-mp5424grm-0000-z-marking"
    }
  ],
  "meshes": [
    {
      "primitives": [
        {
          "attributes": {
            "POSITION": 0,
            "NORMAL": 1,
            "TEXCOORD_0": 2
          },
          "indices": 3,
          "mode": 4,
          "material": 0
        },
        {
          "attributes": {
            "POSITION": 6,
            "NORMAL": 7,
            "TEXCOORD_0": 8
          },
          "indices": 4,
          "mode": 4,
          "material": 1
        },
        {
          "attributes": {
            "POSITION": 9,
            "NORMAL": 10,
            "TEXCOORD_0": 11
          },
          "indices": 5,
          "mode": 4,
          "material": 2
        }
      ],
      "name": "SHAPE_9_IndexedFaceSet.004"
    }
  ],
  "nodes": [
    {
      "extras": {
        "REF": "REF**",
        "PRIO": 0,
        "model_diagonal": 5.7641197648655496
      },
      "mesh": 0,
      "name": "QFN-26_3.5x4.5x1mm_P0.45mm-monolithic-power-systems-mp5424grm-0"
    }
  ],
  "samplers": [
    {
      "magFilter": 9729,
      "minFilter": 9987,
      "wrapS": 10497,
      "wrapT": 10497
    }
  ],
  "scene": 0,
  "scenes": [
    {
      "name": "Scene",
      "nodes": [
        0
      ]
    }
  ],
  "textures": [
    {
      "extensions": {
        "KHR_texture_basisu": {
          "source": 1
        }
      },
      "sampler": 0
    },
    {
      "extensions": {
        "KHR_texture_basisu": {
          "source": 0
        }
      },
      "sampler": 0
    },
    {
      "extensions": {
        "KHR_texture_basisu": {
          "source": 3
        }
      },
      "sampler": 0
    },
    {
      "extensions": {
        "KHR_texture_basisu": {
          "source": 2
        }
      },
      "sampler": 0
    },
    {
      "extensions": {
        "KHR_texture_basisu": {
          "source": 5
        }
      },
      "sampler": 0
    },
    {
      "extensions": {
        "KHR_texture_basisu": {
          "source": 4
        }
      },
      "sampler": 0
    },
    {
      "extensions": {
        "KHR_texture_basisu": {
          "source": 6
        }
      },
      "sampler": 0
    }
  ]
}