<?xml version="1.0" standalone="no"?>
 <!DOCTYPE svg PUBLIC "-//W3C//DTD SVG 1.1//EN" 
 "http://www.w3.org/Graphics/SVG/1.1/DTD/svg11.dtd"> 
<svg
  xmlns:svg="http://www.w3.org/2000/svg"
  xmlns="http://www.w3.org/2000/svg"
  xmlns:xlink="http://www.w3.org/1999/xlink"
  version="1.1"
  width="8.6360mm" height="7.2136mm" viewBox="0.0000 0.0000 8.6360 7.2136">
<title>SVG Image created as outline.svg date 2025/06/16 09:18:11 </title>
  <desc>Image generated by PCBNEW </desc>
<g style="fill:#000000; fill-opacity:1.0000;stroke:#000000; stroke-opacity:1.0000;
stroke-linecap:round; stroke-linejoin:round;"
 transform="translate(0 0) scale(1 1)">
</g>
<g style="fill:none; 
stroke:#000000; stroke-width:0.0200; stroke-opacity:1; 
stroke-linecap:round; stroke-linejoin:round;">
<path d="M0.7750 1.3390
L0.7750 5.9100
" />
<path d="M0.7750 5.9100
L0.9800 5.9100
" />
<path d="M0.9790 0.9140
L0.9790 1.3390
" />
<path d="M0.9790 5.9100
L0.9790 6.3340
" />
<path d="M0.9790 6.3340
L0.9800 6.3660
" />
<path d="M0.9800 0.8830
L0.9790 0.9140
" />
<path d="M0.9800 1.3390
L0.7750 1.3390
" />
<path d="M0.9800 6.3660
L0.9830 6.3950
" />
<path d="M0.9830 0.8520
L0.9800 0.8830
" />
<path d="M0.9830 6.3950
L0.9850 6.4260
" />
<path d="M0.9850 0.8220
L0.9830 0.8520
" />
<path d="M0.9850 6.4260
L0.9920 6.4560
" />
<path d="M0.9920 0.7910
L0.9850 0.8220
" />
<path d="M0.9920 6.4560
L0.9970 6.4870
" />
<path d="M0.9970 0.7620
L0.9920 0.7910
" />
<path d="M0.9970 6.4870
L1.0050 6.5150
" />
<path d="M1.0050 0.7330
L0.9970 0.7620
" />
<path d="M1.0050 6.5150
L1.0160 6.5440
" />
<path d="M1.0120 4.0050
L1.0120 3.2440
" />
<path d="M1.0120 4.0050
L1.2330 4.0050
" />
<path d="M1.0160 0.7030
L1.0050 0.7330
" />
<path d="M1.0160 6.5440
L1.0260 6.5730
" />
<path d="M1.0260 0.6740
L1.0160 0.7030
" />
<path d="M1.0260 6.5730
L1.0380 6.6010
" />
<path d="M1.0380 0.6460
L1.0260 0.6740
" />
<path d="M1.0380 6.6010
L1.0530 6.6280
" />
<path d="M1.0530 0.6200
L1.0380 0.6460
" />
<path d="M1.0530 6.6280
L1.0680 6.6550
" />
<path d="M1.0680 0.5930
L1.0530 0.6200
" />
<path d="M1.0680 6.6550
L1.0840 6.6800
" />
<path d="M1.0840 0.5680
L1.0680 0.5930
" />
<path d="M1.0840 6.6800
L1.1010 6.7050
" />
<path d="M1.1010 0.5430
L1.0840 0.5680
" />
<path d="M1.1010 6.7050
L1.1210 6.7300
" />
<path d="M1.1210 0.5170
L1.1010 0.5430
" />
<path d="M1.1210 6.7300
L1.1410 6.7530
" />
<path d="M1.1410 0.4950
L1.1210 0.5170
" />
<path d="M1.1410 6.7530
L1.1620 6.7770
" />
<path d="M1.1620 0.4720
L1.1410 0.4950
" />
</g>
<g style="fill:#000000; fill-opacity:1.0000; stroke:none;">
<circle cx="1.1620" cy="0.4720" r="0.0100" /> 
<circle cx="1.1620" cy="6.7770" r="0.0100" /> 
</g>
<g style="fill:none; 
stroke:#000000; stroke-width:0.0200; stroke-opacity:1; 
stroke-linecap:round; stroke-linejoin:round;">
<path d="M1.1620 6.7770
L1.1850 6.7970
" />
<path d="M1.1850 0.4510
L1.1620 0.4720
" />
<path d="M1.1850 6.7970
L1.2070 6.8170
" />
<path d="M1.2070 0.4310
L1.1850 0.4510
" />
<path d="M1.2070 6.8170
L1.2330 6.8370
" />
<path d="M1.2330 0.4110
L1.2070 0.4310
" />
<path d="M1.2330 0.9750
L1.2340 0.9440
" />
<path d="M1.2330 1.3390
L0.9800 1.3390
" />
<path d="M1.2330 3.2440
L1.0120 3.2440
" />
<path d="M1.2330 5.9100
L0.9800 5.9100
" />
<path d="M1.2330 6.2730
L1.2330 0.9750
" />
<path d="M1.2330 6.8370
L1.2580 6.8540
" />
<path d="M1.2340 0.9440
L1.2370 0.9120
" />
<path d="M1.2340 6.3050
L1.2330 6.2730
" />
<path d="M1.2370 0.9120
L1.2390 0.8820
" />
<path d="M1.2370 6.3350
L1.2340 6.3050
" />
<path d="M1.2390 0.8820
L1.2460 0.8510
" />
<path d="M1.2390 6.3660
L1.2370 6.3350
" />
<path d="M1.2460 0.8510
L1.2520 0.8190
" />
<path d="M1.2460 6.3980
L1.2390 6.3660
" />
<path d="M1.2520 0.8190
L1.2600 0.7900
" />
<path d="M1.2520 6.4290
L1.2460 6.3980
" />
<path d="M1.2580 0.3940
L1.2330 0.4110
" />
<path d="M1.2580 6.8540
L1.2830 6.8700
" />
<path d="M1.2600 0.7900
L1.2710 0.7610
" />
<path d="M1.2600 6.4580
L1.2520 6.4290
" />
<path d="M1.2710 0.7610
L1.2820 0.7310
" />
<path d="M1.2710 6.4870
L1.2600 6.4580
" />
<path d="M1.2820 0.7310
L1.2940 0.7030
" />
<path d="M1.2820 6.5160
L1.2710 6.4870
" />
<path d="M1.2830 0.3780
L1.2580 0.3940
" />
<path d="M1.2830 6.8700
L1.3100 6.8860
" />
<path d="M1.2940 0.7030
L1.3070 0.6760
" />
<path d="M1.2940 6.5440
L1.2820 6.5160
" />
<path d="M1.3070 0.6760
L1.3230 0.6490
" />
<path d="M1.3070 6.5720
L1.2940 6.5440
" />
<path d="M1.3100 0.3630
L1.2830 0.3780
" />
<path d="M1.3100 6.8860
L1.3360 6.8990
" />
<path d="M1.3230 0.6490
L1.3390 0.6220
" />
<path d="M1.3230 6.6000
L1.3070 6.5720
" />
<path d="M1.3360 0.3480
L1.3100 0.3630
" />
<path d="M1.3360 6.8990
L1.3640 6.9110
" />
<path d="M1.3390 0.6220
L1.3580 0.5970
" />
<path d="M1.3390 6.6250
L1.3230 6.6000
" />
<path d="M1.3580 0.5970
L1.3760 0.5730
" />
<path d="M1.3580 6.6520
L1.3390 6.6250
" />
<path d="M1.3640 0.3360
L1.3360 0.3480
" />
<path d="M1.3640 6.9110
L1.3930 6.9220
" />
<path d="M1.3760 0.5730
L1.3970 0.5480
" />
<path d="M1.3760 6.6760
L1.3580 6.6520
" />
<path d="M1.3930 0.3260
L1.3640 0.3360
" />
<path d="M1.3930 6.9220
L1.4230 6.9330
" />
<path d="M1.3970 0.5480
L1.4190 0.5250
" />
<path d="M1.3970 6.7000
L1.3760 6.6760
" />
</g>
<g style="fill:#000000; fill-opacity:1.0000; stroke:none;">
<circle cx="1.4190" cy="0.5250" r="0.0100" /> 
</g>
<g style="fill:none; 
stroke:#000000; stroke-width:0.0200; stroke-opacity:1; 
stroke-linecap:round; stroke-linejoin:round;">
<path d="M1.4190 0.5250
L1.4410 0.5040
" />
<path d="M1.4190 6.7220
L1.3970 6.7000
" />
</g>
<g style="fill:#000000; fill-opacity:1.0000; stroke:none;">
<circle cx="1.4190" cy="6.7220" r="0.0100" /> 
</g>
<g style="fill:none; 
stroke:#000000; stroke-width:0.0200; stroke-opacity:1; 
stroke-linecap:round; stroke-linejoin:round;">
<path d="M1.4230 0.3150
L1.3930 0.3260
" />
<path d="M1.4230 6.9330
L1.4520 6.9410
" />
<path d="M1.4410 0.5040
L1.4650 0.4840
" />
<path d="M1.4410 6.7440
L1.4190 6.7220
" />
<path d="M1.4520 0.3070
L1.4230 0.3150
" />
<path d="M1.4520 6.9410
L1.4810 6.9460
" />
<path d="M1.4650 0.4840
L1.4910 0.4640
" />
<path d="M1.4650 6.7650
L1.4410 6.7440
" />
<path d="M1.4810 0.3020
L1.4520 0.3070
" />
<path d="M1.4810 6.9460
L1.5120 6.9530
" />
<path d="M1.4910 0.4640
L1.5160 0.4470
" />
<path d="M1.4910 6.7840
L1.4650 6.7650
" />
<path d="M1.5120 0.2950
L1.4810 0.3020
" />
<path d="M1.5120 6.9530
L1.5420 6.9550
" />
<path d="M1.5160 0.4470
L1.5410 0.4290
" />
<path d="M1.5160 6.8010
L1.4910 6.7840
" />
<path d="M1.5410 0.4290
L1.5690 0.4150
" />
<path d="M1.5410 6.8180
L1.5160 6.8010
" />
<path d="M1.5420 0.2930
L1.5120 0.2950
" />
<path d="M1.5420 6.9550
L1.5730 6.9590
" />
<path d="M1.5690 0.4150
L1.5970 0.4000
" />
<path d="M1.5690 6.8340
L1.5410 6.8180
" />
<path d="M1.5730 0.2900
L1.5420 0.2930
" />
<path d="M1.5730 6.9590
L1.6040 6.9590
" />
<path d="M1.5970 0.4000
L1.6250 0.3880
" />
<path d="M1.5970 6.8470
L1.5690 6.8340
" />
<path d="M1.6040 0.2890
L1.5730 0.2900
" />
<path d="M1.6040 6.9590
L7.0240 6.9590
" />
<path d="M1.6250 0.3880
L1.6540 0.3760
" />
<path d="M1.6250 6.8590
L1.5970 6.8470
" />
<path d="M1.6540 0.3760
L1.6830 0.3670
" />
<path d="M1.6540 6.8710
L1.6250 6.8590
" />
<path d="M1.6830 0.3670
L1.7140 0.3590
" />
<path d="M1.6830 6.8810
L1.6540 6.8710
" />
<path d="M1.7140 0.3590
L1.7430 0.3520
" />
<path d="M1.7140 6.8900
L1.6830 6.8810
" />
<path d="M1.7430 0.3520
L1.7750 0.3470
" />
<path d="M1.7430 6.8950
L1.7140 6.8900
" />
<path d="M1.7750 0.3470
L1.8060 0.3430
" />
<path d="M1.7750 6.9020
L1.7430 6.8950
" />
<path d="M1.8060 0.3430
L1.8360 0.3400
" />
<path d="M1.8060 6.9060
L1.7750 6.9020
" />
<path d="M1.8360 0.3400
L1.8670 0.3390
" />
<path d="M1.8360 6.9070
L1.8060 6.9060
" />
<path d="M1.8670 0.3390
L6.7610 0.3390
" />
<path d="M1.8670 6.9090
L1.8360 6.9070
" />
<path d="M6.7610 0.3390
L6.7910 0.3400
" />
<path d="M6.7610 6.9090
L1.8670 6.9090
" />
<path d="M6.7910 0.3400
L6.8220 0.3430
" />
<path d="M6.7910 6.9070
L6.7610 6.9090
" />
<path d="M6.8220 0.3430
L6.8540 0.3470
" />
<path d="M6.8220 6.9060
L6.7910 6.9070
" />
<path d="M6.8540 0.3470
L6.8840 0.3520
" />
<path d="M6.8540 6.9020
L6.8220 6.9060
" />
<path d="M6.8840 0.3520
L6.9150 0.3590
" />
<path d="M6.8840 6.8950
L6.8540 6.9020
" />
<path d="M6.9150 0.3590
L6.9440 0.3670
" />
<path d="M6.9150 6.8900
L6.8840 6.8950
" />
<path d="M6.9440 0.3670
L6.9750 0.3760
" />
<path d="M6.9440 6.8810
L6.9150 6.8900
" />
<path d="M6.9750 0.3760
L7.0040 0.3880
" />
<path d="M6.9750 6.8710
L6.9440 6.8810
" />
<path d="M7.0040 0.3880
L7.0320 0.4000
" />
<path d="M7.0040 6.8590
L6.9750 6.8710
" />
<path d="M7.0240 0.2890
L1.6040 0.2890
" />
<path d="M7.0240 6.9590
L7.0560 6.9590
" />
<path d="M7.0320 0.4000
L7.0600 0.4150
" />
<path d="M7.0320 6.8470
L7.0040 6.8590
" />
<path d="M7.0560 0.2900
L7.0240 0.2890
" />
<path d="M7.0560 6.9590
L7.0850 6.9550
" />
<path d="M7.0600 0.4150
L7.0870 0.4290
" />
<path d="M7.0600 6.8340
L7.0320 6.8470
" />
<path d="M7.0850 0.2930
L7.0560 0.2900
" />
<path d="M7.0850 6.9550
L7.1160 6.9530
" />
<path d="M7.0870 0.4290
L7.1120 0.4470
" />
<path d="M7.0870 6.8180
L7.0600 6.8340
" />
<path d="M7.1120 0.4470
L7.1370 0.4640
" />
<path d="M7.1120 6.8010
L7.0870 6.8180
" />
<path d="M7.1160 0.2950
L7.0850 0.2930
" />
<path d="M7.1160 6.9530
L7.1460 6.9460
" />
<path d="M7.1370 0.4640
L7.1620 0.4840
" />
<path d="M7.1370 6.7840
L7.1120 6.8010
" />
<path d="M7.1460 0.3020
L7.1160 0.2950
" />
<path d="M7.1460 6.9460
L7.1770 6.9410
" />
<path d="M7.1620 0.4840
L7.1860 0.5040
" />
<path d="M7.1620 6.7650
L7.1370 6.7840
" />
<path d="M7.1770 0.3070
L7.1460 0.3020
" />
<path d="M7.1770 6.9410
L7.2050 6.9330
" />
<path d="M7.1860 0.5040
L7.2090 0.5250
" />
<path d="M7.1860 6.7440
L7.1620 6.7650
" />
<path d="M7.2050 0.3150
L7.1770 0.3070
" />
<path d="M7.2050 6.9330
L7.2340 6.9220
" />
</g>
<g style="fill:#000000; fill-opacity:1.0000; stroke:none;">
<circle cx="7.2090" cy="0.5250" r="0.0100" /> 
</g>
<g style="fill:none; 
stroke:#000000; stroke-width:0.0200; stroke-opacity:1; 
stroke-linecap:round; stroke-linejoin:round;">
<path d="M7.2090 0.5250
L7.2300 0.5480
" />
<path d="M7.2090 6.7220
L7.1860 6.7440
" />
</g>
<g style="fill:#000000; fill-opacity:1.0000; stroke:none;">
<circle cx="7.2090" cy="6.7220" r="0.0100" /> 
</g>
<g style="fill:none; 
stroke:#000000; stroke-width:0.0200; stroke-opacity:1; 
stroke-linecap:round; stroke-linejoin:round;">
<path d="M7.2300 0.5480
L7.2520 0.5730
" />
<path d="M7.2300 6.7000
L7.2090 6.7220
" />
<path d="M7.2340 0.3260
L7.2050 0.3150
" />
<path d="M7.2340 6.9220
L7.2630 6.9110
" />
<path d="M7.2520 0.5730
L7.2700 0.5970
" />
<path d="M7.2520 6.6760
L7.2300 6.7000
" />
<path d="M7.2630 0.3360
L7.2340 0.3260
" />
<path d="M7.2630 6.9110
L7.2910 6.8990
" />
<path d="M7.2700 0.5970
L7.2890 0.6220
" />
<path d="M7.2700 6.6520
L7.2520 6.6760
" />
<path d="M7.2890 0.6220
L7.3050 0.6490
" />
<path d="M7.2890 6.6250
L7.2700 6.6520
" />
<path d="M7.2910 0.3480
L7.2630 0.3360
" />
<path d="M7.2910 6.8990
L7.3180 6.8860
" />
<path d="M7.3050 0.6490
L7.3210 0.6760
" />
<path d="M7.3050 6.6000
L7.2890 6.6250
" />
<path d="M7.3180 0.3630
L7.2910 0.3480
" />
<path d="M7.3180 6.8860
L7.3450 6.8700
" />
<path d="M7.3210 0.6760
L7.3340 0.7030
" />
<path d="M7.3210 6.5720
L7.3050 6.6000
" />
<path d="M7.3340 0.7030
L7.3460 0.7310
" />
<path d="M7.3340 6.5440
L7.3210 6.5720
" />
<path d="M7.3450 0.3780
L7.3180 0.3630
" />
<path d="M7.3450 6.8700
L7.3700 6.8540
" />
<path d="M7.3460 0.7310
L7.3580 0.7610
" />
<path d="M7.3460 6.5160
L7.3340 6.5440
" />
<path d="M7.3580 0.7610
L7.3670 0.7900
" />
<path d="M7.3580 6.4870
L7.3460 6.5160
" />
<path d="M7.3670 0.7900
L7.3750 0.8190
" />
<path d="M7.3670 6.4580
L7.3580 6.4870
" />
<path d="M7.3700 0.3940
L7.3450 0.3780
" />
<path d="M7.3700 6.8540
L7.3950 6.8370
" />
<path d="M7.3750 0.8190
L7.3820 0.8510
" />
<path d="M7.3750 6.4290
L7.3670 6.4580
" />
<path d="M7.3820 0.8510
L7.3880 0.8820
" />
<path d="M7.3820 6.3980
L7.3750 6.4290
" />
<path d="M7.3880 0.8820
L7.3910 0.9120
" />
<path d="M7.3880 6.3660
L7.3820 6.3980
" />
<path d="M7.3910 0.9120
L7.3950 0.9440
" />
<path d="M7.3910 6.3350
L7.3880 6.3660
" />
<path d="M7.3950 0.4110
L7.3700 0.3940
" />
<path d="M7.3950 0.9440
L7.3950 0.9750
" />
<path d="M7.3950 0.9750
L7.3950 6.2730
" />
<path d="M7.3950 3.2440
L7.6160 3.2440
" />
<path d="M7.3950 6.2730
L7.3950 6.3050
" />
<path d="M7.3950 6.3050
L7.3910 6.3350
" />
<path d="M7.3950 6.8370
L7.4200 6.8170
" />
<path d="M7.4200 0.4310
L7.3950 0.4110
" />
<path d="M7.4200 6.8170
L7.4430 6.7970
" />
<path d="M7.4430 0.4510
L7.4200 0.4310
" />
<path d="M7.4430 6.7970
L7.4670 6.7770
" />
<path d="M7.4670 0.4720
L7.4430 0.4510
" />
</g>
<g style="fill:#000000; fill-opacity:1.0000; stroke:none;">
<circle cx="7.4670" cy="0.4720" r="0.0100" /> 
<circle cx="7.4670" cy="6.7770" r="0.0100" /> 
</g>
<g style="fill:none; 
stroke:#000000; stroke-width:0.0200; stroke-opacity:1; 
stroke-linecap:round; stroke-linejoin:round;">
<path d="M7.4670 6.7770
L7.4870 6.7530
" />
<path d="M7.4870 0.4950
L7.4670 0.4720
" />
<path d="M7.4870 6.7530
L7.5070 6.7300
" />
<path d="M7.5070 0.5170
L7.4870 0.4950
" />
<path d="M7.5070 6.7300
L7.5270 6.7050
" />
<path d="M7.5270 0.5430
L7.5070 0.5170
" />
<path d="M7.5270 6.7050
L7.5440 6.6800
" />
<path d="M7.5440 0.5680
L7.5270 0.5430
" />
<path d="M7.5440 6.6800
L7.5600 6.6550
" />
<path d="M7.5600 0.5930
L7.5440 0.5680
" />
<path d="M7.5600 6.6550
L7.5760 6.6280
" />
<path d="M7.5760 0.6200
L7.5600 0.5930
" />
<path d="M7.5760 6.6280
L7.5890 6.6010
" />
<path d="M7.5890 0.6460
L7.5760 0.6200
" />
<path d="M7.5890 6.6010
L7.6010 6.5730
" />
<path d="M7.6010 0.6740
L7.5890 0.6460
" />
<path d="M7.6010 6.5730
L7.6120 6.5440
" />
<path d="M7.6120 0.7030
L7.6010 0.6740
" />
<path d="M7.6120 6.5440
L7.6230 6.5150
" />
<path d="M7.6160 4.0050
L7.3950 4.0050
" />
<path d="M7.6160 4.0050
L7.6160 3.2440
" />
<path d="M7.6230 0.7330
L7.6120 0.7030
" />
<path d="M7.6230 6.5150
L7.6310 6.4870
" />
<path d="M7.6310 0.7620
L7.6230 0.7330
" />
<path d="M7.6310 6.4870
L7.6360 6.4560
" />
<path d="M7.6360 0.7910
L7.6310 0.7620
" />
<path d="M7.6360 6.4560
L7.6430 6.4260
" />
<path d="M7.6430 0.8220
L7.6360 0.7910
" />
<path d="M7.6430 6.4260
L7.6450 6.3950
" />
<path d="M7.6450 0.8520
L7.6430 0.8220
" />
<path d="M7.6450 6.3950
L7.6490 6.3660
" />
<path d="M7.6490 0.8830
L7.6450 0.8520
" />
<path d="M7.6490 0.9140
L7.6490 0.8830
" />
<path d="M7.6490 1.3390
L7.3950 1.3390
" />
<path d="M7.6490 1.3390
L7.6490 0.9140
" />
<path d="M7.6490 5.9100
L7.3950 5.9100
" />
<path d="M7.6490 5.9100
L7.8530 5.9100
" />
<path d="M7.6490 6.3340
L7.6490 5.9100
" />
<path d="M7.6490 6.3660
L7.6490 6.3340
" />
<path d="M7.8530 1.3390
L7.6490 1.3390
" />
<path d="M7.8530 5.9100
L7.8530 1.3390
" />
</g> 
</svg>
