<?xml version="1.0" standalone="no"?>
 <!DOCTYPE svg PUBLIC "-//W3C//DTD SVG 1.1//EN" 
 "http://www.w3.org/Graphics/SVG/1.1/DTD/svg11.dtd"> 
<svg
  xmlns:svg="http://www.w3.org/2000/svg"
  xmlns="http://www.w3.org/2000/svg"
  xmlns:xlink="http://www.w3.org/1999/xlink"
  version="1.1"
  width="4.2418mm" height="4.8260mm" viewBox="0.0000 0.0000 4.2418 4.8260">
<title>SVG Image created as outline.svg date 2025/04/04 10:06:11 </title>
  <desc>Image generated by PCBNEW </desc>
<g style="fill:#000000; fill-opacity:1.0000;stroke:#000000; stroke-opacity:1.0000;
stroke-linecap:round; stroke-linejoin:round;"
 transform="translate(0 0) scale(1 1)">
</g>
<g style="fill:none; 
stroke:#000000; stroke-width:0.0200; stroke-opacity:1; 
stroke-linecap:round; stroke-linejoin:round;">
<path d="M0.3240 0.7250
L0.6250 0.4240
" />
<path d="M0.3240 2.2170
L0.3260 2.3160
" />
<path d="M0.3240 4.1750
L0.3240 0.7250
" />
<path d="M0.3240 4.2240
L0.3240 4.1750
" />
<path d="M0.3260 2.3160
L0.3350 2.4150
" />
<path d="M0.3280 2.1160
L0.3240 2.2170
" />
<path d="M0.3350 2.4150
L0.3470 2.5140
" />
<path d="M0.3370 2.0160
L0.3280 2.1160
" />
</g>
<g style="fill:#000000; fill-opacity:1.0000; stroke:none;">
<circle cx="0.3370" cy="2.0160" r="0.0100" /> 
</g>
<g style="fill:none; 
stroke:#000000; stroke-width:0.0200; stroke-opacity:1; 
stroke-linecap:round; stroke-linejoin:round;">
<path d="M0.3470 2.5140
L0.3650 2.6100
" />
<path d="M0.3510 1.9160
L0.3370 2.0160
" />
<path d="M0.3650 2.6100
L0.3890 2.7070
" />
<path d="M0.3710 1.8180
L0.3510 1.9160
" />
<path d="M0.3890 2.7070
L0.4190 2.8010
" />
<path d="M0.3950 1.7210
L0.3710 1.8180
" />
<path d="M0.4190 2.8010
L0.4530 2.8930
" />
<path d="M0.4270 1.6270
L0.3950 1.7210
" />
<path d="M0.4530 2.8930
L0.4920 2.9830
" />
<path d="M0.4620 1.5350
L0.4270 1.6270
" />
<path d="M0.4920 2.9830
L0.5360 3.0730
" />
<path d="M0.5020 1.4440
L0.4620 1.5350
" />
<path d="M0.5360 3.0730
L0.5860 3.1590
" />
<path d="M0.5480 1.3560
L0.5020 1.4440
" />
<path d="M0.5860 3.1590
L0.6390 3.2410
" />
<path d="M0.5970 1.2720
L0.5480 1.3560
" />
<path d="M0.6250 0.4240
L1.3750 0.4240
" />
<path d="M0.6390 3.2410
L0.6970 3.3230
" />
<path d="M0.6510 1.1900
L0.5970 1.2720
" />
<path d="M0.6970 3.3230
L0.7600 3.4010
" />
<path d="M0.7110 1.1100
L0.6510 1.1900
" />
<path d="M0.7600 3.4010
L0.8280 3.4740
" />
<path d="M0.7740 1.0330
L0.7110 1.1100
" />
<path d="M0.7740 4.2000
L0.7740 3.4160
" />
<path d="M0.7740 4.2240
L0.3240 4.2240
" />
<path d="M0.7740 4.2240
L0.3240 4.2240
" />
<path d="M0.7740 4.2380
L0.7740 4.2000
" />
<path d="M0.7740 4.2380
L1.7230 4.2380
" />
<path d="M0.8280 3.4740
L1.2290 3.4740
" />
<path d="M0.8420 0.9620
L0.7740 1.0330
" />
<path d="M0.8750 1.9500
L1.3190 1.9500
" />
<path d="M0.8750 2.4990
L0.8750 1.9500
" />
<path d="M0.9130 0.8920
L0.8420 0.9620
" />
<path d="M0.9880 0.8270
L0.9130 0.8920
" />
<path d="M1.0680 0.7670
L0.9880 0.8270
" />
<path d="M1.1520 0.7100
L1.0680 0.7670
" />
<path d="M1.2290 3.4740
L1.2290 3.8250
" />
<path d="M1.2290 3.8250
L3.0190 3.8250
" />
<path d="M1.3190 1.9500
L1.3280 1.9260
" />
<path d="M1.3190 1.9500
L1.4260 1.9500
" />
<path d="M1.3190 2.4990
L0.8750 2.4990
" />
<path d="M1.3230 2.2250
L1.3240 2.1890
" />
<path d="M1.3240 2.1890
L1.3270 2.1540
" />
<path d="M1.3240 2.2600
L1.3230 2.2250
" />
<path d="M1.3270 2.1540
L1.3300 2.1200
" />
<path d="M1.3270 2.2940
L1.3240 2.2600
" />
<path d="M1.3280 1.9260
L1.3360 1.9040
" />
<path d="M1.3280 2.5230
L1.3190 2.4990
" />
<path d="M1.3300 2.1200
L1.3360 2.0850
" />
<path d="M1.3300 2.3290
L1.3270 2.2940
" />
<path d="M1.3360 1.9040
L1.3460 1.8820
" />
<path d="M1.3360 2.0850
L1.3430 2.0510
" />
<path d="M1.3360 2.3630
L1.3300 2.3290
" />
<path d="M1.3360 2.5450
L1.3280 2.5230
" />
<path d="M1.3380 2.4990
L1.3730 2.4990
" />
<path d="M1.3430 2.0510
L1.3510 2.0170
" />
<path d="M1.3430 2.3990
L1.3360 2.3630
" />
<path d="M1.3460 1.8820
L1.3570 1.8590
" />
<path d="M1.3460 2.5680
L1.3360 2.5450
" />
<path d="M1.3510 2.0170
L1.3620 1.9830
" />
<path d="M1.3510 2.4320
L1.3430 2.3990
" />
<path d="M1.3570 1.8590
L1.3680 1.8380
" />
<path d="M1.3570 2.5910
L1.3460 2.5680
" />
<path d="M1.3620 1.9830
L1.3730 1.9500
" />
<path d="M1.3620 2.4660
L1.3510 2.4320
" />
<path d="M1.3680 1.8380
L1.3790 1.8170
" />
<path d="M1.3680 2.6120
L1.3570 2.5910
" />
<path d="M1.3710 1.9500
L1.3730 1.9500
" />
<path d="M1.3730 2.4990
L1.3620 2.4660
" />
<path d="M1.3750 0.7100
L1.3750 0.4240
" />
<path d="M1.3750 2.1890
L1.3780 2.1540
" />
<path d="M1.3750 2.2250
L1.3750 2.1890
" />
<path d="M1.3750 2.2600
L1.3750 2.2250
" />
<path d="M1.3780 2.1540
L1.3820 2.1190
" />
<path d="M1.3780 2.2940
L1.3750 2.2600
" />
<path d="M1.3790 1.8170
L1.3910 1.7950
" />
<path d="M1.3790 2.6330
L1.3680 2.6120
" />
<path d="M1.3820 2.1190
L1.3880 2.0850
" />
<path d="M1.3820 2.3290
L1.3780 2.2940
" />
<path d="M1.3880 2.0850
L1.3950 2.0500
" />
<path d="M1.3880 2.3640
L1.3820 2.3290
" />
<path d="M1.3910 1.7950
L1.4030 1.7760
" />
<path d="M1.3910 2.6550
L1.3790 2.6330
" />
<path d="M1.3950 0.2750
L1.7000 0.2750
" />
<path d="M1.3950 0.7100
L1.3950 0.2750
" />
<path d="M1.3950 2.0500
L1.4040 2.0170
" />
<path d="M1.3950 2.3990
L1.3880 2.3640
" />
<path d="M1.4030 1.7760
L1.4160 1.7550
" />
<path d="M1.4030 2.6750
L1.3910 2.6550
" />
<path d="M1.4040 2.0170
L1.4140 1.9830
" />
<path d="M1.4040 2.4320
L1.3950 2.3990
" />
<path d="M1.4140 1.9830
L1.4260 1.9500
" />
<path d="M1.4140 2.4660
L1.4040 2.4320
" />
<path d="M1.4160 1.7550
L1.4290 1.7340
" />
<path d="M1.4160 2.6950
L1.4030 2.6750
" />
<path d="M1.4210 2.4990
L1.4260 2.4990
" />
<path d="M1.4240 2.1910
L1.4240 2.2070
" />
<path d="M1.4240 2.2070
L1.4240 2.2250
" />
</g>
<g style="fill:#000000; fill-opacity:1.0000; stroke:none;">
<circle cx="1.4240" cy="2.2250" r="0.0100" /> 
</g>
<g style="fill:none; 
stroke:#000000; stroke-width:0.0200; stroke-opacity:1; 
stroke-linecap:round; stroke-linejoin:round;">
<path d="M1.4240 2.2250
L1.4240 2.2420
" />
<path d="M1.4240 2.2420
L1.4240 2.2580
" />
<path d="M1.4240 2.2580
L1.4250 2.2750
" />
<path d="M1.4250 2.1740
L1.4240 2.1910
" />
<path d="M1.4250 2.2750
L1.4270 2.2910
" />
<path d="M1.4260 1.9500
L1.4410 1.9130
" />
<path d="M1.4260 2.4990
L1.3190 2.4990
" />
<path d="M1.4260 2.4990
L1.4140 2.4660
" />
<path d="M1.4270 2.1580
L1.4250 2.1740
" />
<path d="M1.4270 2.2910
L1.4280 2.3070
" />
<path d="M1.4280 2.1420
L1.4270 2.1580
" />
<path d="M1.4280 2.3070
L1.4300 2.3240
" />
<path d="M1.4290 1.7340
L1.4430 1.7150
" />
<path d="M1.4290 2.7150
L1.4160 2.6950
" />
<path d="M1.4300 2.1250
L1.4280 2.1420
" />
<path d="M1.4300 2.3240
L1.4330 2.3400
" />
<path d="M1.4330 2.1100
L1.4300 2.1250
" />
<path d="M1.4330 2.3400
L1.4360 2.3560
" />
<path d="M1.4360 2.0930
L1.4330 2.1100
" />
<path d="M1.4360 2.3560
L1.4390 2.3720
" />
<path d="M1.4390 2.0780
L1.4360 2.0930
" />
<path d="M1.4390 2.3720
L1.4430 2.3880
" />
<path d="M1.4410 1.9130
L1.4580 1.8800
" />
<path d="M1.4410 2.5360
L1.4260 2.4990
" />
<path d="M1.4430 1.7150
L1.4580 1.6960
" />
<path d="M1.4430 2.0610
L1.4390 2.0780
" />
<path d="M1.4430 2.3880
L1.4470 2.4030
" />
<path d="M1.4430 2.7350
L1.4290 2.7150
" />
<path d="M1.4470 2.0460
L1.4430 2.0610
" />
<path d="M1.4470 2.4030
L1.4510 2.4200
" />
<path d="M1.4510 2.0290
L1.4470 2.0460
" />
<path d="M1.4510 2.4200
L1.4560 2.4350
" />
<path d="M1.4560 2.0140
L1.4510 2.0290
" />
<path d="M1.4560 2.4350
L1.4610 2.4510
" />
<path d="M1.4580 1.6960
L1.4730 1.6780
" />
<path d="M1.4580 1.8800
L1.4760 1.8450
" />
<path d="M1.4580 2.5700
L1.4410 2.5360
" />
<path d="M1.4580 2.7530
L1.4430 2.7350
" />
<path d="M1.4610 1.9980
L1.4560 2.0140
" />
<path d="M1.4610 2.4510
L1.4670 2.4660
" />
<path d="M1.4670 1.9820
L1.4610 1.9980
" />
<path d="M1.4670 2.4660
L1.4730 2.4830
" />
<path d="M1.4730 1.6780
L1.4900 1.6600
" />
<path d="M1.4730 1.9670
L1.4670 1.9820
" />
</g>
<g style="fill:#000000; fill-opacity:1.0000; stroke:none;">
<circle cx="1.4730" cy="1.9670" r="0.0100" /> 
<circle cx="1.4730" cy="2.4830" r="0.0100" /> 
</g>
<g style="fill:none; 
stroke:#000000; stroke-width:0.0200; stroke-opacity:1; 
stroke-linecap:round; stroke-linejoin:round;">
<path d="M1.4730 2.4830
L1.4800 2.4990
" />
<path d="M1.4730 2.7730
L1.4580 2.7530
" />
<path d="M1.4760 1.8450
L1.4980 1.8130
" />
<path d="M1.4760 2.6040
L1.4580 2.5700
" />
<path d="M1.4800 1.9510
L1.4730 1.9670
" />
<path d="M1.4800 2.4990
L1.4880 2.5160
" />
<path d="M1.4880 1.9330
L1.4800 1.9510
" />
<path d="M1.4880 2.5160
L1.4950 2.5320
" />
<path d="M1.4900 1.6600
L1.5060 1.6420
" />
<path d="M1.4900 2.7910
L1.4730 2.7730
" />
<path d="M1.4950 1.9170
L1.4880 1.9330
" />
<path d="M1.4950 2.5320
L1.5030 2.5470
" />
<path d="M1.4980 1.8130
L1.5200 1.7810
" />
<path d="M1.4980 2.6360
L1.4760 2.6040
" />
<path d="M1.5030 1.9020
L1.4950 1.9170
" />
<path d="M1.5030 2.5470
L1.5120 2.5630
" />
<path d="M1.5060 1.6420
L1.5230 1.6240
" />
<path d="M1.5060 2.8090
L1.4900 2.7910
" />
<path d="M1.5120 1.8860
L1.5030 1.9020
" />
<path d="M1.5120 2.5630
L1.5210 2.5790
" />
<path d="M1.5200 1.7810
L1.5430 1.7510
" />
<path d="M1.5200 2.6690
L1.4980 2.6360
" />
<path d="M1.5210 1.8700
L1.5120 1.8860
" />
<path d="M1.5210 2.5790
L1.5300 2.5950
" />
</g>
<g style="fill:#000000; fill-opacity:1.0000; stroke:none;">
<circle cx="1.5230" cy="1.6240" r="0.0100" /> 
</g>
<g style="fill:none; 
stroke:#000000; stroke-width:0.0200; stroke-opacity:1; 
stroke-linecap:round; stroke-linejoin:round;">
<path d="M1.5230 1.6240
L1.5410 1.6060
" />
<path d="M1.5230 2.8260
L1.5060 2.8090
" />
</g>
<g style="fill:#000000; fill-opacity:1.0000; stroke:none;">
<circle cx="1.5230" cy="2.8260" r="0.0100" /> 
</g>
<g style="fill:none; 
stroke:#000000; stroke-width:0.0200; stroke-opacity:1; 
stroke-linecap:round; stroke-linejoin:round;">
<path d="M1.5300 1.8550
L1.5210 1.8700
" />
<path d="M1.5300 2.5950
L1.5390 2.6090
" />
<path d="M1.5390 1.8400
L1.5300 1.8550
" />
<path d="M1.5390 2.6090
L1.5480 2.6230
" />
<path d="M1.5410 1.6060
L1.5580 1.5900
" />
<path d="M1.5410 2.8420
L1.5230 2.8260
" />
<path d="M1.5430 1.7510
L1.5670 1.7210
" />
<path d="M1.5430 2.6980
L1.5200 2.6690
" />
<path d="M1.5480 1.8260
L1.5390 1.8400
" />
<path d="M1.5480 2.6230
L1.5590 2.6380
" />
<path d="M1.5520 2.2250
L1.5530 2.2620
" />
<path d="M1.5530 2.1870
L1.5520 2.2250
" />
<path d="M1.5530 2.2620
L1.5570 2.2990
" />
<path d="M1.5570 2.1510
L1.5530 2.1870
" />
<path d="M1.5570 2.2990
L1.5630 2.3350
" />
<path d="M1.5580 1.5900
L1.5760 1.5740
" />
<path d="M1.5580 2.8590
L1.5410 2.8420
" />
<path d="M1.5590 1.8110
L1.5480 1.8260
" />
<path d="M1.5590 2.6380
L1.5690 2.6530
" />
<path d="M1.5630 2.1140
L1.5570 2.1510
" />
<path d="M1.5630 2.3350
L1.5710 2.3720
" />
<path d="M1.5670 1.7210
L1.5930 1.6940
" />
<path d="M1.5670 2.7280
L1.5430 2.6980
" />
<path d="M1.5690 1.7960
L1.5590 1.8110
" />
<path d="M1.5690 2.6530
L1.5800 2.6670
" />
<path d="M1.5710 2.0780
L1.5630 2.1140
" />
<path d="M1.5710 2.3720
L1.5820 2.4070
" />
<path d="M1.5760 1.5740
L1.5950 1.5580
" />
<path d="M1.5770 2.8750
L1.5580 2.8590
" />
<path d="M1.5800 1.7820
L1.5690 1.7960
" />
<path d="M1.5800 2.6670
L1.5920 2.6800
" />
<path d="M1.5820 2.0430
L1.5710 2.0780
" />
<path d="M1.5820 2.4070
L1.5950 2.4420
" />
<path d="M1.5920 1.7700
L1.5800 1.7820
" />
<path d="M1.5920 2.6800
L1.6040 2.6930
" />
<path d="M1.5930 1.6940
L1.6220 1.6690
" />
<path d="M1.5930 2.7540
L1.5670 2.7280
" />
<path d="M1.5950 1.5580
L1.6150 1.5450
" />
<path d="M1.5950 2.0070
L1.5820 2.0430
" />
<path d="M1.5950 2.4420
L1.6110 2.4760
" />
<path d="M1.5950 2.8900
L1.5770 2.8750
" />
<path d="M1.6040 1.7560
L1.5920 1.7700
" />
<path d="M1.6040 2.6930
L1.6170 2.7070
" />
<path d="M1.6110 1.9720
L1.5950 2.0070
" />
<path d="M1.6110 2.4760
L1.6300 2.5100
" />
<path d="M1.6150 1.5450
L1.6340 1.5300
" />
<path d="M1.6150 2.9060
L1.5950 2.8900
" />
<path d="M1.6170 1.7420
L1.6040 1.7560
" />
<path d="M1.6170 2.7070
L1.6300 2.7200
" />
<path d="M1.6220 1.6690
L1.6500 1.6440
" />
<path d="M1.6220 2.7820
L1.5930 2.7540
" />
<path d="M1.6300 1.7290
L1.6170 1.7420
" />
</g>
<g style="fill:#000000; fill-opacity:1.0000; stroke:none;">
<circle cx="1.6300" cy="1.7290" r="0.0100" /> 
</g>
<g style="fill:none; 
stroke:#000000; stroke-width:0.0200; stroke-opacity:1; 
stroke-linecap:round; stroke-linejoin:round;">
<path d="M1.6300 1.9390
L1.6110 1.9720
" />
</g>
<g style="fill:#000000; fill-opacity:1.0000; stroke:none;">
<circle cx="1.6300" cy="1.9390" r="0.0100" /> 
<circle cx="1.6300" cy="2.5100" r="0.0100" /> 
</g>
<g style="fill:none; 
stroke:#000000; stroke-width:0.0200; stroke-opacity:1; 
stroke-linecap:round; stroke-linejoin:round;">
<path d="M1.6300 2.5100
L1.6390 2.5270
" />
</g>
<g style="fill:#000000; fill-opacity:1.0000; stroke:none;">
<circle cx="1.6300" cy="2.7200" r="0.0100" /> 
</g>
<g style="fill:none; 
stroke:#000000; stroke-width:0.0200; stroke-opacity:1; 
stroke-linecap:round; stroke-linejoin:round;">
<path d="M1.6300 2.7200
L1.6420 2.7330
" />
<path d="M1.6340 1.5300
L1.6530 1.5170
" />
<path d="M1.6350 2.9200
L1.6150 2.9060
" />
<path d="M1.6390 2.5270
L1.6490 2.5430
" />
<path d="M1.6420 1.7170
L1.6300 1.7290
" />
<path d="M1.6420 2.7330
L1.6540 2.7440
" />
<path d="M1.6490 1.9060
L1.6300 1.9390
" />
<path d="M1.6490 2.5430
L1.6600 2.5580
" />
<path d="M1.6500 1.6440
L1.6810 1.6200
" />
<path d="M1.6500 2.8070
L1.6220 2.7820
" />
<path d="M1.6530 1.5170
L1.6730 1.5040
" />
<path d="M1.6540 2.7440
L1.6680 2.7560
" />
<path d="M1.6540 2.9340
L1.6350 2.9200
" />
<path d="M1.6550 1.7040
L1.6420 1.7170
" />
<path d="M1.6600 2.5580
L1.6710 2.5730
" />
<path d="M1.6680 1.6920
L1.6550 1.7040
" />
<path d="M1.6680 2.7560
L1.6830 2.7670
" />
<path d="M1.6710 1.8760
L1.6490 1.9060
" />
<path d="M1.6710 2.5730
L1.6830 2.5890
" />
<path d="M1.6730 1.5040
L1.6950 1.4910
" />
<path d="M1.6740 2.9470
L1.6540 2.9340
" />
<path d="M1.6810 1.6200
L1.7120 1.5970
" />
<path d="M1.6810 2.8300
L1.6500 2.8070
" />
<path d="M1.6830 1.6810
L1.6680 1.6920
" />
<path d="M1.6830 2.5890
L1.6960 2.6030
" />
<path d="M1.6830 2.7670
L1.6960 2.7790
" />
<path d="M1.6950 1.4910
L1.7150 1.4790
" />
<path d="M1.6950 2.9590
L1.6740 2.9470
" />
<path d="M1.6960 1.8460
L1.6710 1.8760
" />
<path d="M1.6960 2.6030
L1.7080 2.6160
" />
<path d="M1.6960 2.7790
L1.7100 2.7900
" />
<path d="M1.6970 1.6710
L1.6830 1.6810
" />
<path d="M1.7000 0.5250
L1.7000 0.2750
" />
<path d="M1.7050 0.4240
L2.5430 0.4240
" />
<path d="M1.7050 0.5250
L1.7000 0.5250
" />
<path d="M1.7050 0.5250
L1.7050 0.4240
" />
<path d="M1.7080 2.6160
L1.7200 2.6290
" />
<path d="M1.7100 1.6600
L1.6970 1.6710
" />
<path d="M1.7100 2.7900
L1.7240 2.8000
" />
<path d="M1.7120 1.5970
L1.7450 1.5770
" />
<path d="M1.7120 2.8510
L1.6810 2.8300
" />
<path d="M1.7150 1.4790
L1.7360 1.4670
" />
<path d="M1.7150 2.9700
L1.6950 2.9590
" />
<path d="M1.7200 1.8200
L1.6960 1.8460
" />
<path d="M1.7200 2.6290
L1.7340 2.6430
" />
<path d="M1.7230 4.2000
L1.7230 3.8250
" />
<path d="M1.7230 4.2380
L1.7230 4.2000
" />
<path d="M1.7240 1.6500
L1.7100 1.6600
" />
<path d="M1.7240 2.8000
L1.7390 2.8100
" />
<path d="M1.7340 2.6430
L1.7480 2.6560
" />
<path d="M1.7360 1.4670
L1.7590 1.4570
" />
<path d="M1.7370 2.9810
L1.7150 2.9700
" />
<path d="M1.7390 1.6400
L1.7240 1.6500
" />
<path d="M1.7390 2.8100
L1.7550 2.8200
" />
<path d="M1.7450 1.5770
L1.7780 1.5590
" />
<path d="M1.7450 2.8710
L1.7120 2.8510
" />
<path d="M1.7480 1.7940
L1.7200 1.8200
" />
<path d="M1.7480 2.6560
L1.7630 2.6680
" />
<path d="M1.7550 1.6300
L1.7390 1.6400
" />
<path d="M1.7550 2.8200
L1.7700 2.8290
" />
<path d="M1.7590 1.4570
L1.7800 1.4470
" />
<path d="M1.7590 2.9920
L1.7370 2.9810
" />
<path d="M1.7630 2.6680
L1.7760 2.6780
" />
<path d="M1.7700 1.6210
L1.7550 1.6300
" />
<path d="M1.7700 2.8290
L1.7850 2.8370
" />
<path d="M1.7720 0.7100
L1.1520 0.7100
" />
<path d="M1.7760 1.7710
L1.7480 1.7940
" />
<path d="M1.7760 2.6780
L1.7910 2.6890
" />
<path d="M1.7780 1.5590
L1.8140 1.5430
" />
<path d="M1.7780 2.8900
L1.7450 2.8710
" />
<path d="M1.7800 1.4470
L1.8020 1.4370
" />
<path d="M1.7800 3.0020
L1.7590 2.9920
" />
<path d="M1.7850 1.6110
L1.7700 1.6210
" />
<path d="M1.7850 2.8370
L1.8010 2.8450
" />
<path d="M1.7890 0.6920
L1.7720 0.7100
" />
<path d="M1.7910 2.6890
L1.8070 2.7000
" />
<path d="M1.8000 1.6030
L1.7850 1.6110
" />
<path d="M1.8010 2.8450
L1.8170 2.8530
" />
<path d="M1.8020 1.4370
L1.8260 1.4280
" />
<path d="M1.8030 3.0110
L1.7800 3.0020
" />
<path d="M1.8070 1.7500
L1.7760 1.7710
" />
<path d="M1.8070 2.2250
L1.8080 2.2040
" />
<path d="M1.8070 2.7000
L1.8230 2.7110
" />
<path d="M1.8080 2.2040
L1.8100 2.1840
" />
<path d="M1.8080 2.2460
L1.8070 2.2250
" />
<path d="M1.8090 0.6760
L1.7890 0.6920
" />
<path d="M1.8100 2.1840
L1.8130 2.1640
" />
<path d="M1.8100 2.2660
L1.8080 2.2460
" />
<path d="M1.8130 2.1640
L1.8180 2.1430
" />
<path d="M1.8130 2.2860
L1.8100 2.2660
" />
<path d="M1.8140 1.5430
L1.8480 1.5270
" />
<path d="M1.8140 2.9080
L1.7780 2.8900
" />
<path d="M1.8170 1.5950
L1.8000 1.6030
" />
<path d="M1.8170 2.8530
L1.8340 2.8610
" />
<path d="M1.8180 2.1430
L1.8240 2.1230
" />
<path d="M1.8180 2.3070
L1.8130 2.2860
" />
<path d="M1.8230 2.7110
L1.8380 2.7200
" />
<path d="M1.8240 2.1230
L1.8310 2.1040
" />
<path d="M1.8240 2.3270
L1.8180 2.3070
" />
<path d="M1.8260 1.4280
L1.8480 1.4210
" />
<path d="M1.8260 3.0200
L1.8030 3.0110
" />
<path d="M1.8280 0.6620
L1.8090 0.6760
" />
<path d="M1.8310 2.1040
L1.8390 2.0840
" />
<path d="M1.8310 2.3450
L1.8240 2.3270
" />
<path d="M1.8340 1.5870
L1.8170 1.5950
" />
<path d="M1.8340 2.8610
L1.8490 2.8680
" />
<path d="M1.8380 1.7290
L1.8070 1.7500
" />
<path d="M1.8380 2.7200
L1.8540 2.7290
" />
<path d="M1.8390 2.0840
L1.8490 2.0660
" />
<path d="M1.8390 2.3640
L1.8310 2.3450
" />
<path d="M1.8470 0.6480
L1.8280 0.6620
" />
<path d="M1.8480 0.9740
L2.4000 0.9740
" />
<path d="M1.8480 1.4210
L1.8480 0.9740
" />
<path d="M1.8480 1.4380
L1.8480 1.4490
" />
<path d="M1.8480 1.4730
L1.8650 1.4670
" />
<path d="M1.8480 1.5220
L1.8480 1.5270
" />
<path d="M1.8480 1.5270
L1.8480 1.4210
" />
<path d="M1.8480 1.5270
L1.8650 1.5210
" />
<path d="M1.8480 2.9230
L1.8140 2.9080
" />
<path d="M1.8480 3.0290
L1.8260 3.0200
" />
<path d="M1.8480 3.0290
L1.8480 2.9230
" />
<path d="M1.8480 3.4740
L1.8480 3.0290
" />
<path d="M1.8490 1.5800
L1.8340 1.5870
" />
</g>
<g style="fill:#000000; fill-opacity:1.0000; stroke:none;">
<circle cx="1.8490" cy="2.0660" r="0.0100" /> 
</g>
<g style="fill:none; 
stroke:#000000; stroke-width:0.0200; stroke-opacity:1; 
stroke-linecap:round; stroke-linejoin:round;">
<path d="M1.8490 2.0660
L1.8540 2.0560
" />
<path d="M1.8490 2.3830
L1.8390 2.3640
" />
</g>
<g style="fill:#000000; fill-opacity:1.0000; stroke:none;">
<circle cx="1.8490" cy="2.3830" r="0.0100" /> 
</g>
<g style="fill:none; 
stroke:#000000; stroke-width:0.0200; stroke-opacity:1; 
stroke-linecap:round; stroke-linejoin:round;">
<path d="M1.8490 2.8680
L1.8660 2.8750
" />
<path d="M1.8540 2.0560
L1.8600 2.0480
" />
<path d="M1.8540 2.7290
L1.8710 2.7370
" />
<path d="M1.8600 2.0480
L1.8660 2.0400
" />
<path d="M1.8600 2.4010
L1.8490 2.3830
" />
<path d="M1.8650 1.4670
L1.8830 1.4620
" />
<path d="M1.8650 1.5210
L1.8830 1.5150
" />
<path d="M1.8650 2.9290
L1.8480 2.9230
" />
<path d="M1.8650 2.9810
L1.8480 2.9750
" />
<path d="M1.8660 1.5730
L1.8490 1.5800
" />
</g>
<g style="fill:#000000; fill-opacity:1.0000; stroke:none;">
<circle cx="1.8660" cy="1.5730" r="0.0100" /> 
</g>
<g style="fill:none; 
stroke:#000000; stroke-width:0.0200; stroke-opacity:1; 
stroke-linecap:round; stroke-linejoin:round;">
<path d="M1.8660 2.0400
L1.8730 2.0300
" />
</g>
<g style="fill:#000000; fill-opacity:1.0000; stroke:none;">
<circle cx="1.8660" cy="2.8750" r="0.0100" /> 
</g>
<g style="fill:none; 
stroke:#000000; stroke-width:0.0200; stroke-opacity:1; 
stroke-linecap:round; stroke-linejoin:round;">
<path d="M1.8660 2.8750
L1.8820 2.8810
" />
<path d="M1.8690 0.6340
L1.8470 0.6480
" />
<path d="M1.8710 1.7120
L1.8380 1.7290
" />
<path d="M1.8710 2.7370
L1.8870 2.7440
" />
<path d="M1.8730 2.0300
L1.8790 2.0220
" />
<path d="M1.8730 2.4190
L1.8600 2.4010
" />
<path d="M1.8790 2.0220
L1.8850 2.0150
" />
<path d="M1.8820 1.5670
L1.8660 1.5730
" />
<path d="M1.8820 2.8810
L1.8970 2.8860
" />
<path d="M1.8830 1.4620
L1.8990 1.4560
" />
<path d="M1.8830 1.5150
L1.8980 1.5100
" />
<path d="M1.8830 2.9350
L1.8650 2.9290
" />
<path d="M1.8830 2.9870
L1.8650 2.9810
" />
<path d="M1.8850 2.0150
L1.8920 2.0080
" />
<path d="M1.8850 2.4340
L1.8730 2.4190
" />
<path d="M1.8870 2.7440
L1.9050 2.7520
" />
<path d="M1.8890 0.6240
L1.8690 0.6340
" />
<path d="M1.8920 2.0080
L1.8990 1.9990
" />
<path d="M1.8970 1.5620
L1.8820 1.5670
" />
<path d="M1.8970 2.8860
L1.9140 2.8920
" />
<path d="M1.8980 1.5100
L1.9160 1.5050
" />
<path d="M1.8980 2.9410
L1.8830 2.9350
" />
<path d="M1.8990 1.4560
L1.9160 1.4520
" />
<path d="M1.8990 1.9990
L1.9080 1.9920
" />
<path d="M1.8990 2.4500
L1.8850 2.4340
" />
<path d="M1.8990 2.9920
L1.8830 2.9870
" />
<path d="M1.9050 1.6960
L1.8710 1.7120
" />
<path d="M1.9050 2.7520
L1.9210 2.7590
" />
<path d="M1.9080 1.9920
L1.9160 1.9850
" />
<path d="M1.9120 0.6120
L1.8890 0.6240
" />
<path d="M1.9140 1.5570
L1.8970 1.5620
" />
<path d="M1.9140 2.8920
L1.9280 2.8970
" />
<path d="M1.9160 1.4520
L1.9330 1.4470
" />
<path d="M1.9160 1.5050
L1.9330 1.5000
" />
<path d="M1.9160 1.9850
L1.9220 1.9780
" />
<path d="M1.9160 2.4640
L1.8990 2.4500
" />
<path d="M1.9160 2.9460
L1.8980 2.9410
" />
<path d="M1.9160 2.9970
L1.8990 2.9920
" />
<path d="M1.9210 2.7590
L1.9400 2.7650
" />
<path d="M1.9220 1.9780
L1.9310 1.9720
" />
<path d="M1.9280 2.8970
L1.9450 2.9020
" />
<path d="M1.9290 1.5530
L1.9140 1.5570
" />
<path d="M1.9310 1.9720
L1.9400 1.9670
" />
<path d="M1.9310 2.4760
L1.9160 2.4640
" />
<path d="M1.9330 1.4470
L1.9490 1.4430
" />
<path d="M1.9330 1.5000
L1.9490 1.4960
" />
<path d="M1.9330 2.9500
L1.9160 2.9460
" />
<path d="M1.9330 3.0010
L1.9160 2.9970
" />
<path d="M1.9340 0.6020
L1.9120 0.6120
" />
<path d="M1.9400 1.6830
L1.9050 1.6960
" />
<path d="M1.9400 1.9670
L1.9480 1.9610
" />
<path d="M1.9400 2.7650
L1.9560 2.7720
" />
<path d="M1.9450 2.9020
L1.9600 2.9060
" />
<path d="M1.9460 1.5480
L1.9290 1.5530
" />
<path d="M1.9480 1.9610
L1.9560 1.9550
" />
<path d="M1.9480 2.4890
L1.9310 2.4760
" />
<path d="M1.9490 1.4430
L1.9680 1.4400
" />
<path d="M1.9490 1.4960
L1.9670 1.4920
" />
<path d="M1.9490 2.9550
L1.9330 2.9500
" />
<path d="M1.9490 3.0050
L1.9330 3.0010
" />
<path d="M1.9560 0.5940
L1.9340 0.6020
" />
<path d="M1.9560 1.9550
L1.9660 1.9500
" />
<path d="M1.9560 2.7720
L1.9750 2.7770
" />
<path d="M1.9600 1.5440
L1.9460 1.5480
" />
<path d="M1.9600 2.9060
L1.9770 2.9100
" />
<path d="M1.9660 1.9500
L1.9750 1.9450
" />
<path d="M1.9660 2.4990
L1.9480 2.4890
" />
<path d="M1.9670 1.4920
L1.9840 1.4870
" />
<path d="M1.9670 2.9580
L1.9490 2.9550
" />
<path d="M1.9680 1.4400
L1.9840 1.4360
" />
<path d="M1.9680 3.0090
L1.9490 3.0050
" />
<path d="M1.9750 1.6730
L1.9400 1.6830
" />
<path d="M1.9750 1.9450
L1.9830 1.9400
" />
<path d="M1.9750 2.7770
L1.9920 2.7810
" />
<path d="M1.9770 1.5410
L1.9600 1.5440
" />
<path d="M1.9770 2.9100
L1.9920 2.9130
" />
<path d="M1.9800 0.5870
L1.9560 0.5940
" />
<path d="M1.9830 1.9400
L1.9920 1.9350
" />
<path d="M1.9830 2.5090
L1.9660 2.4990
" />
<path d="M1.9840 1.4360
L2.0020 1.4340
" />
<path d="M1.9840 1.4870
L2.0020 1.4840
" />
<path d="M1.9840 2.9610
L1.9670 2.9580
" />
<path d="M1.9840 3.0120
L1.9680 3.0090
" />
<path d="M1.9920 1.9350
L2.0030 1.9310
" />
<path d="M1.9920 2.7810
L2.0110 2.7850
" />
<path d="M1.9920 2.9130
L2.0080 2.9160
" />
<path d="M1.9930 1.5370
L1.9770 1.5410
" />
<path d="M2.0020 1.4340
L2.0190 1.4310
" />
<path d="M2.0020 1.4840
L2.0190 1.4820
" />
<path d="M2.0020 2.9640
L1.9840 2.9610
" />
<path d="M2.0020 3.0150
L1.9840 3.0120
" />
<path d="M2.0030 0.5790
L1.9800 0.5870
" />
<path d="M2.0030 1.9310
L2.0110 1.9270
" />
<path d="M2.0030 2.5180
L1.9830 2.5090
" />
<path d="M2.0080 2.9160
L2.0250 2.9180
" />
<path d="M2.0090 1.5350
L1.9930 1.5370
" />
<path d="M2.0110 1.6650
L1.9750 1.6730
" />
<path d="M2.0110 1.9270
L2.0210 1.9240
" />
<path d="M2.0110 2.7850
L2.0300 2.7890
" />
<path d="M2.0190 1.4310
L2.0370 1.4290
" />
<path d="M2.0190 1.4820
L2.0370 1.4790
" />
<path d="M2.0190 2.9670
L2.0020 2.9640
" />
<path d="M2.0190 3.0170
L2.0020 3.0150
" />
<path d="M2.0210 1.9240
L2.0320 1.9210
" />
<path d="M2.0210 2.5260
L2.0030 2.5180
" />
<path d="M2.0250 1.5320
L2.0090 1.5350
" />
<path d="M2.0250 2.9180
L2.0410 2.9200
" />
<path d="M2.0260 0.5750
L2.0030 0.5790
" />
<path d="M2.0300 2.7890
L2.0490 2.7920
" />
<path d="M2.0320 1.9210
L2.0410 1.9180
" />
<path d="M2.0370 1.4290
L2.0530 1.4270
" />
<path d="M2.0370 1.4790
L2.0530 1.4770
" />
<path d="M2.0370 2.9690
L2.0190 2.9670
" />
<path d="M2.0370 3.0190
L2.0190 3.0170
" />
<path d="M2.0410 1.5300
L2.0250 1.5320
" />
<path d="M2.0410 1.9180
L2.0520 1.9150
" />
<path d="M2.0410 2.5320
L2.0210 2.5260
" />
<path d="M2.0410 2.9200
L2.0570 2.9220
" />
<path d="M2.0490 1.6590
L2.0110 1.6650
" />
<path d="M2.0490 2.7920
L2.0670 2.7940
" />
<path d="M2.0510 0.5710
L2.0260 0.5750
" />
<path d="M2.0520 1.9150
L2.0620 1.9130
" />
<path d="M2.0530 1.4270
L2.0720 1.4260
" />
<path d="M2.0530 1.4770
L2.0720 1.4760
" />
<path d="M2.0530 2.9710
L2.0370 2.9690
" />
<path d="M2.0530 3.0210
L2.0370 3.0190
" />
<path d="M2.0570 1.5280
L2.0410 1.5300
" />
<path d="M2.0570 2.9220
L2.0740 2.9230
" />
<path d="M2.0620 1.9130
L2.0720 1.9110
" />
<path d="M2.0620 2.5360
L2.0410 2.5320
" />
<path d="M2.0670 2.7940
L2.0860 2.7950
" />
<path d="M2.0720 1.4260
L2.0880 1.4250
" />
<path d="M2.0720 1.4760
L2.0880 1.4750
" />
<path d="M2.0720 1.9110
L2.0810 1.9090
" />
<path d="M2.0720 2.9720
L2.0530 2.9710
" />
<path d="M2.0720 3.0220
L2.0530 3.0210
" />
<path d="M2.0740 0.5670
L2.0510 0.5710
" />
<path d="M2.0740 1.5270
L2.0570 1.5280
" />
<path d="M2.0740 2.9230
L2.0900 2.9240
" />
<path d="M2.0810 1.9090
L2.0930 1.9080
" />
<path d="M2.0810 2.5400
L2.0620 2.5360
" />
<path d="M2.0860 1.6550
L2.0490 1.6590
" />
<path d="M2.0860 2.7950
L2.1050 2.7960
" />
<path d="M2.0880 1.4250
L2.1060 1.4240
" />
<path d="M2.0880 1.4750
L2.1060 1.4740
" />
<path d="M2.0880 2.9730
L2.0720 2.9720
" />
<path d="M2.0880 3.0230
L2.0720 3.0220
" />
<path d="M2.0900 1.5260
L2.0740 1.5270
" />
<path d="M2.0900 2.9240
L2.1070 2.9250
" />
<path d="M2.0930 1.9080
L2.1030 1.9070
" />
<path d="M2.0990 0.5650
L2.0740 0.5670
" />
<path d="M2.1030 1.9070
L2.1140 1.9070
" />
<path d="M2.1030 2.5420
L2.0810 2.5400
" />
<path d="M2.1050 2.7960
L2.1250 2.7970
" />
<path d="M2.1060 1.4240
L2.1250 1.4240
" />
<path d="M2.1060 1.4740
L2.1250 1.4740
" />
<path d="M2.1060 2.9740
L2.0880 2.9730
" />
<path d="M2.1060 3.0250
L2.0880 3.0230
" />
<path d="M2.1070 1.5250
L2.0900 1.5260
" />
<path d="M2.1070 2.9250
L2.1250 2.9250
" />
<path d="M2.1140 1.9070
L2.1250 1.9070
" />
<path d="M2.1250 0.5650
L2.0990 0.5650
" />
<path d="M2.1250 1.4240
L2.1420 1.4240
" />
<path d="M2.1250 1.4740
L2.1420 1.4740
" />
<path d="M2.1250 1.5250
L2.1070 1.5250
" />
<path d="M2.1250 1.6540
L2.0860 1.6550
" />
<path d="M2.1250 1.9070
L2.1460 1.9070
" />
<path d="M2.1250 2.5430
L2.1030 2.5420
" />
<path d="M2.1250 2.7970
L2.1620 2.7950
" />
<path d="M2.1250 2.9250
L2.1410 2.9250
" />
<path d="M2.1250 2.9740
L2.1060 2.9740
" />
<path d="M2.1250 3.0250
L2.1060 3.0250
" />
<path d="M2.1350 2.5420
L2.1250 2.5430
" />
<path d="M2.1410 1.5250
L2.1250 1.5250
" />
<path d="M2.1410 2.9250
L2.1580 2.9240
" />
<path d="M2.1420 1.4240
L2.1600 1.4250
" />
<path d="M2.1420 1.4740
L2.1600 1.4750
" />
<path d="M2.1420 2.9740
L2.1250 2.9740
" />
<path d="M2.1420 3.0250
L2.1250 3.0250
" />
<path d="M2.1430 1.6540
L2.1250 1.6540
" />
<path d="M2.1460 1.9070
L2.1670 1.9090
" />
<path d="M2.1460 2.5420
L2.1350 2.5420
" />
<path d="M2.1490 0.5650
L2.1250 0.5650
" />
<path d="M2.1550 2.5410
L2.1460 2.5420
" />
<path d="M2.1580 1.5260
L2.1410 1.5250
" />
<path d="M2.1580 2.9240
L2.1740 2.9230
" />
<path d="M2.1600 1.4250
L2.1770 1.4260
" />
<path d="M2.1600 1.4750
L2.1770 1.4760
" />
<path d="M2.1600 2.9730
L2.1420 2.9740
" />
<path d="M2.1600 3.0230
L2.1420 3.0250
" />
<path d="M2.1620 1.6550
L2.1430 1.6540
" />
<path d="M2.1620 2.7950
L2.1990 2.7920
" />
<path d="M2.1670 1.9090
L2.1860 1.9130
" />
<path d="M2.1670 2.5400
L2.1550 2.5410
" />
<path d="M2.1740 0.5670
L2.1490 0.5650
" />
<path d="M2.1740 1.5270
L2.1580 1.5260
" />
<path d="M2.1740 2.9230
L2.1900 2.9220
" />
<path d="M2.1770 1.4260
L2.1950 1.4270
" />
<path d="M2.1770 1.4760
L2.1950 1.4770
" />
<path d="M2.1770 2.5380
L2.1670 2.5400
" />
<path d="M2.1770 2.9720
L2.1600 2.9730
" />
<path d="M2.1770 3.0220
L2.1600 3.0230
" />
<path d="M2.1810 1.6560
L2.1620 1.6550
" />
<path d="M2.1860 1.9130
L2.2070 1.9180
" />
<path d="M2.1860 2.5360
L2.1770 2.5380
" />
<path d="M2.1900 2.9220
L2.2070 2.9200
" />
<path d="M2.1910 1.5280
L2.1740 1.5270
" />
<path d="M2.1950 1.4270
L2.2120 1.4290
" />
<path d="M2.1950 1.4770
L2.2120 1.4790
" />
<path d="M2.1950 2.9710
L2.1770 2.9720
" />
<path d="M2.1950 3.0210
L2.1770 3.0220
" />
<path d="M2.1970 0.5710
L2.1740 0.5670
" />
<path d="M2.1970 2.5340
L2.1860 2.5360
" />
<path d="M2.1990 1.6590
L2.1810 1.6560
" />
<path d="M2.1990 2.7920
L2.2370 2.7850
" />
<path d="M2.2070 1.5300
L2.1910 1.5280
" />
<path d="M2.2070 1.9180
L2.2270 1.9240
" />
<path d="M2.2070 2.5320
L2.1970 2.5340
" />
<path d="M2.2070 2.9200
L2.2230 2.9180
" />
<path d="M2.2120 1.4290
L2.2290 1.4310
" />
<path d="M2.2120 1.4790
L2.2290 1.4820
" />
<path d="M2.2120 2.9690
L2.1950 2.9710
" />
<path d="M2.2120 3.0190
L2.1950 3.0210
" />
<path d="M2.2160 2.5290
L2.2070 2.5320
" />
<path d="M2.2180 1.6610
L2.1990 1.6590
" />
<path d="M2.2220 0.5750
L2.1970 0.5710
" />
<path d="M2.2230 1.5320
L2.2070 1.5300
" />
<path d="M2.2230 2.9180
L2.2390 2.9160
" />
<path d="M2.2270 1.9240
L2.2450 1.9310
" />
<path d="M2.2270 2.5260
L2.2160 2.5290
" />
<path d="M2.2290 1.4310
L2.2460 1.4340
" />
<path d="M2.2290 1.4820
L2.2460 1.4840
" />
<path d="M2.2290 2.9670
L2.2120 2.9690
" />
<path d="M2.2290 3.0170
L2.2120 3.0190
" />
<path d="M2.2370 1.6650
L2.2180 1.6610
" />
<path d="M2.2370 2.5220
L2.2270 2.5260
" />
<path d="M2.2370 2.7850
L2.2730 2.7770
" />
<path d="M2.2390 2.9160
L2.2550 2.9130
" />
<path d="M2.2400 1.5350
L2.2230 1.5320
" />
<path d="M2.2450 0.5790
L2.2220 0.5750
" />
<path d="M2.2450 1.9310
L2.2650 1.9400
" />
<path d="M2.2450 2.5180
L2.2370 2.5220
" />
<path d="M2.2460 1.4340
L2.2640 1.4360
" />
<path d="M2.2460 1.4840
L2.2640 1.4870
" />
<path d="M2.2460 2.9640
L2.2290 2.9670
" />
<path d="M2.2460 3.0150
L2.2290 3.0170
" />
<path d="M2.2550 2.9130
L2.2700 2.9100
" />
<path d="M2.2560 1.5370
L2.2400 1.5350
" />
<path d="M2.2560 1.6690
L2.2370 1.6650
" />
<path d="M2.2560 2.5140
L2.2450 2.5180
" />
<path d="M2.2640 1.4360
L2.2800 1.4400
" />
<path d="M2.2640 1.4870
L2.2810 1.4920
" />
<path d="M2.2640 2.9610
L2.2460 2.9640
" />
<path d="M2.2640 3.0120
L2.2460 3.0150
" />
<path d="M2.2650 1.9400
L2.2820 1.9500
" />
<path d="M2.2650 2.5090
L2.2560 2.5140
" />
<path d="M2.2690 0.5870
L2.2450 0.5790
" />
<path d="M2.2700 2.9100
L2.2870 2.9060
" />
<path d="M2.2710 1.5410
L2.2560 1.5370
" />
<path d="M2.2730 1.6730
L2.2560 1.6690
" />
<path d="M2.2730 2.5040
L2.2650 2.5090
" />
<path d="M2.2730 2.7770
L2.3080 2.7650
" />
<path d="M2.2800 1.4400
L2.2990 1.4430
" />
<path d="M2.2800 3.0090
L2.2640 3.0120
" />
<path d="M2.2810 1.4920
L2.2990 1.4960
" />
<path d="M2.2810 2.9580
L2.2640 2.9610
" />
<path d="M2.2820 1.9500
L2.3000 1.9610
" />
<path d="M2.2820 2.4990
L2.2730 2.5040
" />
<path d="M2.2870 2.9060
L2.3020 2.9020
" />
<path d="M2.2880 1.5440
L2.2710 1.5410
" />
<path d="M2.2920 0.5940
L2.2690 0.5870
" />
<path d="M2.2920 1.6790
L2.2730 1.6730
" />
<path d="M2.2920 2.4950
L2.2820 2.4990
" />
<path d="M2.2990 1.4430
L2.3150 1.4470
" />
<path d="M2.2990 1.4960
L2.3150 1.5000
" />
<path d="M2.2990 2.9550
L2.2810 2.9580
" />
<path d="M2.2990 3.0050
L2.2800 3.0090
" />
<path d="M2.3000 1.9610
L2.3170 1.9720
" />
<path d="M2.3000 2.4890
L2.2920 2.4950
" />
<path d="M2.3020 2.9020
L2.3190 2.8980
" />
<path d="M2.3030 1.5480
L2.2880 1.5440
" />
<path d="M2.3080 1.6830
L2.2920 1.6790
" />
<path d="M2.3080 2.4830
L2.3000 2.4890
" />
<path d="M2.3080 2.7650
L2.3430 2.7520
" />
<path d="M2.3140 0.6020
L2.2920 0.5940
" />
<path d="M2.3150 1.4470
L2.3330 1.4520
" />
<path d="M2.3150 1.5000
L2.3330 1.5050
" />
<path d="M2.3150 2.9500
L2.2990 2.9550
" />
<path d="M2.3150 3.0010
L2.2990 3.0050
" />
<path d="M2.3170 1.9720
L2.3330 1.9850
" />
<path d="M2.3170 2.4760
L2.3080 2.4830
" />
<path d="M2.3190 2.8980
L2.3340 2.8920
" />
<path d="M2.3200 1.5530
L2.3030 1.5480
" />
<path d="M2.3260 2.4700
L2.3170 2.4760
" />
<path d="M2.3270 1.6900
L2.3080 1.6830
" />
<path d="M2.3330 1.4520
L2.3490 1.4560
" />
<path d="M2.3330 1.5050
L2.3500 1.5100
" />
<path d="M2.3330 1.9850
L2.3490 1.9990
" />
<path d="M2.3330 2.4640
L2.3260 2.4700
" />
<path d="M2.3330 2.9460
L2.3150 2.9500
" />
<path d="M2.3330 2.9970
L2.3150 3.0010
" />
<path d="M2.3340 1.5570
L2.3200 1.5530
" />
<path d="M2.3340 2.8920
L2.3510 2.8870
" />
<path d="M2.3360 0.6120
L2.3140 0.6020
" />
<path d="M2.3400 2.4570
L2.3330 2.4640
" />
<path d="M2.3430 1.6960
L2.3270 1.6900
" />
<path d="M2.3430 2.7520
L2.3770 2.7370
" />
<path d="M2.3490 1.4560
L2.3650 1.4620
" />
<path d="M2.3490 1.9990
L2.3630 2.0150
" />
<path d="M2.3490 2.4500
L2.3400 2.4570
" />
<path d="M2.3490 2.9920
L2.3330 2.9970
" />
<path d="M2.3500 1.5100
L2.3650 1.5150
" />
<path d="M2.3500 2.9410
L2.3330 2.9460
" />
<path d="M2.3510 1.5620
L2.3340 1.5570
" />
<path d="M2.3510 2.8870
L2.3660 2.8810
" />
<path d="M2.3560 2.4420
L2.3490 2.4500
" />
<path d="M2.3590 0.6240
L2.3360 0.6120
" />
<path d="M2.3610 1.7040
L2.3430 1.6960
" />
<path d="M2.3630 2.0150
L2.3750 2.0300
" />
<path d="M2.3630 2.4340
L2.3560 2.4420
" />
<path d="M2.3650 1.4620
L2.3830 1.4670
" />
<path d="M2.3650 1.5150
L2.3830 1.5210
" />
<path d="M2.3650 2.9350
L2.3500 2.9410
" />
<path d="M2.3650 2.9870
L2.3490 2.9920
" />
<path d="M2.3660 1.5670
L2.3510 1.5620
" />
<path d="M2.3660 2.8810
L2.3820 2.8750
" />
<path d="M2.3690 2.4270
L2.3630 2.4340
" />
<path d="M2.3750 2.0300
L2.3880 2.0480
" />
<path d="M2.3750 2.4190
L2.3690 2.4270
" />
<path d="M2.3770 1.7120
L2.3610 1.7040
" />
<path d="M2.3770 2.7370
L2.4100 2.7200
" />
<path d="M2.3790 0.6340
L2.3590 0.6240
" />
<path d="M2.3820 1.5730
L2.3660 1.5670
" />
</g>
<g style="fill:#000000; fill-opacity:1.0000; stroke:none;">
<circle cx="2.3820" cy="1.5730" r="0.0100" /> 
</g>
<g style="fill:none; 
stroke:#000000; stroke-width:0.0200; stroke-opacity:1; 
stroke-linecap:round; stroke-linejoin:round;">
<path d="M2.3820 2.4100
L2.3750 2.4190
" />
</g>
<g style="fill:#000000; fill-opacity:1.0000; stroke:none;">
<circle cx="2.3820" cy="2.8750" r="0.0100" /> 
</g>
<g style="fill:none; 
stroke:#000000; stroke-width:0.0200; stroke-opacity:1; 
stroke-linecap:round; stroke-linejoin:round;">
<path d="M2.3820 2.8750
L2.3990 2.8680
" />
<path d="M2.3830 1.4670
L2.4000 1.4730
" />
<path d="M2.3830 1.5210
L2.4000 1.5270
" />
<path d="M2.3830 2.9290
L2.3650 2.9350
" />
<path d="M2.3830 2.9810
L2.3650 2.9870
" />
<path d="M2.3880 2.0480
L2.3990 2.0660
" />
<path d="M2.3880 2.4010
L2.3820 2.4100
" />
<path d="M2.3940 1.7200
L2.3770 1.7120
" />
<path d="M2.3940 2.3930
L2.3880 2.4010
" />
<path d="M2.3990 1.5800
L2.3820 1.5730
" />
</g>
<g style="fill:#000000; fill-opacity:1.0000; stroke:none;">
<circle cx="2.3990" cy="2.0660" r="0.0100" /> 
</g>
<g style="fill:none; 
stroke:#000000; stroke-width:0.0200; stroke-opacity:1; 
stroke-linecap:round; stroke-linejoin:round;">
<path d="M2.3990 2.0660
L2.4090 2.0840
" />
<path d="M2.3990 2.3830
L2.3940 2.3930
" />
</g>
<g style="fill:#000000; fill-opacity:1.0000; stroke:none;">
<circle cx="2.3990" cy="2.3830" r="0.0100" /> 
</g>
<g style="fill:none; 
stroke:#000000; stroke-width:0.0200; stroke-opacity:1; 
stroke-linecap:round; stroke-linejoin:round;">
<path d="M2.3990 2.8680
L2.4140 2.8610
" />
<path d="M2.4000 0.9740
L2.4000 1.4210
" />
<path d="M2.4000 1.4210
L2.4000 1.5270
" />
<path d="M2.4000 1.4210
L2.4220 1.4280
" />
<path d="M2.4000 1.4710
L2.4000 1.4730
" />
<path d="M2.4000 1.5270
L2.4000 1.4730
" />
<path d="M2.4000 1.5270
L2.4340 1.5430
" />
<path d="M2.4000 2.9230
L2.3830 2.9290
" />
<path d="M2.4000 2.9230
L2.4000 3.0290
" />
<path d="M2.4000 2.9280
L2.4000 2.9230
" />
<path d="M2.4000 2.9750
L2.3830 2.9810
" />
<path d="M2.4000 3.0100
L2.4000 2.9750
" />
<path d="M2.4000 3.0290
L2.4000 3.4740
" />
<path d="M2.4000 3.4740
L1.8480 3.4740
" />
<path d="M2.4010 0.6480
L2.3790 0.6340
" />
<path d="M2.4090 2.0840
L2.4170 2.1040
" />
<path d="M2.4090 2.3640
L2.3990 2.3830
" />
<path d="M2.4100 1.7290
L2.3940 1.7200
" />
<path d="M2.4100 2.7200
L2.4410 2.7000
" />
<path d="M2.4140 1.5870
L2.3990 1.5800
" />
<path d="M2.4140 2.8610
L2.4310 2.8530
" />
<path d="M2.4170 2.1040
L2.4240 2.1230
" />
<path d="M2.4170 2.3450
L2.4090 2.3640
" />
<path d="M2.4200 0.6620
L2.4010 0.6480
" />
<path d="M2.4220 1.4280
L2.4450 1.4370
" />
<path d="M2.4220 3.0200
L2.4000 3.0290
" />
<path d="M2.4240 2.1230
L2.4300 2.1430
" />
<path d="M2.4240 2.3270
L2.4170 2.3450
" />
<path d="M2.4250 1.7390
L2.4100 1.7290
" />
<path d="M2.4300 2.1430
L2.4350 2.1640
" />
<path d="M2.4300 2.3070
L2.4240 2.3270
" />
<path d="M2.4310 1.5950
L2.4140 1.5870
" />
<path d="M2.4310 2.8530
L2.4480 2.8450
" />
<path d="M2.4340 1.5430
L2.4700 1.5590
" />
<path d="M2.4340 2.9080
L2.4000 2.9230
" />
<path d="M2.4350 2.1640
L2.4380 2.1840
" />
<path d="M2.4350 2.2860
L2.4300 2.3070
" />
<path d="M2.4380 2.1840
L2.4400 2.2040
" />
<path d="M2.4380 2.2660
L2.4350 2.2860
" />
<path d="M2.4390 0.6760
L2.4200 0.6620
" />
<path d="M2.4400 2.2040
L2.4410 2.2250
" />
<path d="M2.4400 2.2460
L2.4380 2.2660
" />
<path d="M2.4410 1.7500
L2.4250 1.7390
" />
<path d="M2.4410 2.2250
L2.4400 2.2460
" />
<path d="M2.4410 2.7000
L2.4720 2.6780
" />
<path d="M2.4450 1.4370
L2.4680 1.4470
" />
<path d="M2.4460 3.0110
L2.4220 3.0200
" />
<path d="M2.4480 1.6030
L2.4310 1.5950
" />
<path d="M2.4480 2.8450
L2.4630 2.8370
" />
<path d="M2.4570 1.7600
L2.4410 1.7500
" />
<path d="M2.4590 0.6920
L2.4390 0.6760
" />
<path d="M2.4630 1.6110
L2.4480 1.6030
" />
<path d="M2.4630 2.8370
L2.4780 2.8290
" />
<path d="M2.4680 1.4470
L2.4890 1.4570
" />
<path d="M2.4680 3.0020
L2.4460 3.0110
" />
<path d="M2.4700 1.5590
L2.5030 1.5770
" />
<path d="M2.4700 2.8900
L2.4340 2.9080
" />
<path d="M2.4720 1.7710
L2.4570 1.7600
" />
<path d="M2.4720 2.6780
L2.5000 2.6560
" />
<path d="M2.4760 0.7100
L2.4590 0.6920
" />
<path d="M2.4780 1.6210
L2.4630 1.6110
" />
<path d="M2.4780 2.8290
L2.4930 2.8200
" />
<path d="M2.4850 1.7820
L2.4720 1.7710
" />
<path d="M2.4890 1.4570
L2.5110 1.4670
" />
<path d="M2.4890 2.9920
L2.4680 3.0020
" />
<path d="M2.4930 1.6300
L2.4780 1.6210
" />
<path d="M2.4930 2.8200
L2.5090 2.8100
" />
<path d="M2.5000 1.7940
L2.4850 1.7820
" />
<path d="M2.5000 2.6560
L2.5280 2.6290
" />
<path d="M2.5030 1.5770
L2.5360 1.5970
" />
<path d="M2.5030 2.8710
L2.4700 2.8900
" />
<path d="M2.5090 1.6400
L2.4930 1.6300
" />
<path d="M2.5090 2.8100
L2.5240 2.8000
" />
<path d="M2.5110 1.4670
L2.5330 1.4790
" />
<path d="M2.5120 2.9810
L2.4890 2.9920
" />
<path d="M2.5140 1.8060
L2.5000 1.7940
" />
<path d="M2.5240 1.6500
L2.5090 1.6400
" />
<path d="M2.5240 2.8000
L2.5380 2.7900
" />
<path d="M2.5250 3.8250
L2.5250 4.2000
" />
<path d="M2.5250 4.2000
L2.5250 4.2380
" />
<path d="M2.5250 4.2240
L1.7230 4.2240
" />
<path d="M2.5250 4.2240
L1.7230 4.2240
" />
<path d="M2.5280 1.8200
L2.5140 1.8060
" />
<path d="M2.5280 2.6290
L2.5520 2.6030
" />
<path d="M2.5330 1.4790
L2.5530 1.4910
" />
<path d="M2.5330 2.9700
L2.5120 2.9810
" />
<path d="M2.5360 1.5970
L2.5670 1.6200
" />
<path d="M2.5360 2.8510
L2.5030 2.8710
" />
<path d="M2.5380 1.6600
L2.5240 1.6500
" />
<path d="M2.5380 2.7900
L2.5510 2.7790
" />
<path d="M2.5410 1.8340
L2.5280 1.8200
" />
<path d="M2.5430 0.4240
L2.5430 0.5250
" />
<path d="M2.5430 0.5250
L1.7050 0.5250
" />
<path d="M2.5480 0.2750
L2.5480 0.5250
" />
<path d="M2.5480 0.5250
L2.5430 0.5250
" />
<path d="M2.5510 2.7790
L2.5650 2.7670
" />
<path d="M2.5520 1.6710
L2.5380 1.6600
" />
<path d="M2.5520 1.8460
L2.5410 1.8340
" />
<path d="M2.5520 2.6030
L2.5770 2.5730
" />
<path d="M2.5530 1.4910
L2.5740 1.5040
" />
<path d="M2.5530 2.9590
L2.5330 2.9700
" />
<path d="M2.5650 1.6810
L2.5520 1.6710
" />
<path d="M2.5650 1.8610
L2.5520 1.8460
" />
<path d="M2.5650 2.7670
L2.5800 2.7560
" />
<path d="M2.5670 1.6200
L2.5980 1.6440
" />
<path d="M2.5670 2.8300
L2.5360 2.8510
" />
<path d="M2.5740 1.5040
L2.5940 1.5170
" />
<path d="M2.5750 2.9470
L2.5530 2.9590
" />
<path d="M2.5770 1.8760
L2.5650 1.8610
" />
<path d="M2.5770 2.5730
L2.5990 2.5430
" />
<path d="M2.5800 1.6930
L2.5650 1.6810
" />
<path d="M2.5800 2.7560
L2.5930 2.7440
" />
<path d="M2.5880 1.8910
L2.5770 1.8760
" />
<path d="M2.5930 2.7440
L2.6060 2.7330
" />
<path d="M2.5940 1.5170
L2.6130 1.5300
" />
<path d="M2.5940 1.7040
L2.5800 1.6930
" />
<path d="M2.5950 2.9340
L2.5750 2.9470
" />
<path d="M2.5980 1.6440
L2.6260 1.6690
" />
<path d="M2.5980 2.8070
L2.5670 2.8300
" />
<path d="M2.5990 1.9060
L2.5880 1.8910
" />
<path d="M2.5990 2.5430
L2.6180 2.5100
" />
<path d="M2.6060 1.7170
L2.5940 1.7040
" />
<path d="M2.6060 2.7330
L2.6180 2.7200
" />
<path d="M2.6090 1.9220
L2.5990 1.9060
" />
<path d="M2.6130 1.5300
L2.6330 1.5440
" />
<path d="M2.6140 2.9200
L2.5950 2.9340
" />
<path d="M2.6180 1.7290
L2.6060 1.7170
" />
</g>
<g style="fill:#000000; fill-opacity:1.0000; stroke:none;">
<circle cx="2.6180" cy="1.7290" r="0.0100" /> 
</g>
<g style="fill:none; 
stroke:#000000; stroke-width:0.0200; stroke-opacity:1; 
stroke-linecap:round; stroke-linejoin:round;">
<path d="M2.6180 1.9390
L2.6090 1.9220
" />
</g>
<g style="fill:#000000; fill-opacity:1.0000; stroke:none;">
<circle cx="2.6180" cy="1.9390" r="0.0100" /> 
<circle cx="2.6180" cy="2.5100" r="0.0100" /> 
</g>
<g style="fill:none; 
stroke:#000000; stroke-width:0.0200; stroke-opacity:1; 
stroke-linecap:round; stroke-linejoin:round;">
<path d="M2.6180 2.5100
L2.6370 2.4760
" />
</g>
<g style="fill:#000000; fill-opacity:1.0000; stroke:none;">
<circle cx="2.6180" cy="2.7200" r="0.0100" /> 
</g>
<g style="fill:none; 
stroke:#000000; stroke-width:0.0200; stroke-opacity:1; 
stroke-linecap:round; stroke-linejoin:round;">
<path d="M2.6180 2.7200
L2.6310 2.7070
" />
<path d="M2.6260 1.6690
L2.6550 1.6940
" />
<path d="M2.6260 2.7820
L2.5980 2.8070
" />
<path d="M2.6310 1.7420
L2.6180 1.7290
" />
<path d="M2.6310 2.7070
L2.6440 2.6930
" />
<path d="M2.6330 1.5440
L2.6530 1.5580
" />
<path d="M2.6330 2.9060
L2.6140 2.9200
" />
<path d="M2.6370 1.9720
L2.6180 1.9390
" />
<path d="M2.6370 2.4760
L2.6530 2.4420
" />
<path d="M2.6440 1.7560
L2.6310 1.7420
" />
<path d="M2.6440 2.6930
L2.6560 2.6800
" />
<path d="M2.6530 1.5580
L2.6710 1.5740
" />
<path d="M2.6530 2.0070
L2.6370 1.9720
" />
<path d="M2.6530 2.4420
L2.6660 2.4070
" />
<path d="M2.6530 2.8900
L2.6330 2.9060
" />
<path d="M2.6550 1.6940
L2.6810 1.7210
" />
<path d="M2.6550 2.7540
L2.6260 2.7820
" />
<path d="M2.6560 1.7700
L2.6440 1.7560
" />
<path d="M2.6560 2.6800
L2.6680 2.6670
" />
<path d="M2.6660 2.0430
L2.6530 2.0070
" />
<path d="M2.6660 2.4070
L2.6770 2.3720
" />
<path d="M2.6680 1.7820
L2.6560 1.7700
" />
<path d="M2.6680 2.6670
L2.6790 2.6530
" />
<path d="M2.6710 1.5740
L2.6900 1.5900
" />
<path d="M2.6720 2.8750
L2.6530 2.8900
" />
<path d="M2.6770 2.0780
L2.6660 2.0430
" />
<path d="M2.6770 2.3720
L2.6850 2.3350
" />
<path d="M2.6790 1.7960
L2.6680 1.7820
" />
<path d="M2.6790 2.6530
L2.6890 2.6380
" />
<path d="M2.6810 1.7210
L2.7050 1.7510
" />
<path d="M2.6810 2.7280
L2.6550 2.7540
" />
<path d="M2.6850 2.1140
L2.6770 2.0780
" />
<path d="M2.6850 2.3350
L2.6910 2.2990
" />
<path d="M2.6890 1.8120
L2.6790 1.7960
" />
<path d="M2.6890 2.6380
L2.7000 2.6230
" />
<path d="M2.6900 1.5900
L2.7070 1.6060
" />
<path d="M2.6900 2.8590
L2.6720 2.8750
" />
<path d="M2.6910 2.1510
L2.6850 2.1140
" />
<path d="M2.6910 2.2990
L2.6950 2.2620
" />
<path d="M2.6950 2.1870
L2.6910 2.1510
" />
<path d="M2.6950 2.2620
L2.6960 2.2250
" />
<path d="M2.6960 2.2250
L2.6950 2.1870
" />
<path d="M2.7000 1.8260
L2.6890 1.8120
" />
<path d="M2.7000 2.6230
L2.7090 2.6090
" />
<path d="M2.7050 1.7510
L2.7280 1.7810
" />
<path d="M2.7050 2.6980
L2.6810 2.7280
" />
<path d="M2.7070 1.6060
L2.7250 1.6240
" />
<path d="M2.7070 2.8420
L2.6900 2.8590
" />
<path d="M2.7090 1.8400
L2.7000 1.8260
" />
<path d="M2.7090 2.6090
L2.7180 2.5950
" />
<path d="M2.7180 1.8550
L2.7090 1.8400
" />
<path d="M2.7180 2.5950
L2.7270 2.5790
" />
</g>
<g style="fill:#000000; fill-opacity:1.0000; stroke:none;">
<circle cx="2.7250" cy="1.6240" r="0.0100" /> 
</g>
<g style="fill:none; 
stroke:#000000; stroke-width:0.0200; stroke-opacity:1; 
stroke-linecap:round; stroke-linejoin:round;">
<path d="M2.7250 1.6240
L2.7420 1.6420
" />
<path d="M2.7250 2.8260
L2.7070 2.8420
" />
</g>
<g style="fill:#000000; fill-opacity:1.0000; stroke:none;">
<circle cx="2.7250" cy="2.8260" r="0.0100" /> 
</g>
<g style="fill:none; 
stroke:#000000; stroke-width:0.0200; stroke-opacity:1; 
stroke-linecap:round; stroke-linejoin:round;">
<path d="M2.7270 1.8700
L2.7180 1.8550
" />
<path d="M2.7270 2.5790
L2.7360 2.5630
" />
<path d="M2.7280 1.7810
L2.7500 1.8130
" />
<path d="M2.7280 2.6690
L2.7050 2.6980
" />
<path d="M2.7360 1.8860
L2.7270 1.8700
" />
<path d="M2.7360 2.5630
L2.7450 2.5470
" />
<path d="M2.7420 1.6420
L2.7580 1.6590
" />
<path d="M2.7420 2.8090
L2.7250 2.8260
" />
<path d="M2.7450 1.9020
L2.7360 1.8860
" />
<path d="M2.7450 2.5470
L2.7530 2.5320
" />
<path d="M2.7500 1.8130
L2.7720 1.8450
" />
<path d="M2.7500 2.6360
L2.7280 2.6690
" />
<path d="M2.7530 1.9170
L2.7450 1.9020
" />
<path d="M2.7530 2.5320
L2.7600 2.5160
" />
<path d="M2.7580 1.6590
L2.7750 1.6780
" />
<path d="M2.7580 2.7910
L2.7420 2.8090
" />
<path d="M2.7600 1.9330
L2.7530 1.9170
" />
<path d="M2.7600 2.5160
L2.7680 2.4980
" />
<path d="M2.7680 1.9510
L2.7600 1.9330
" />
<path d="M2.7680 2.4980
L2.7750 2.4830
" />
<path d="M2.7720 1.8450
L2.7900 1.8800
" />
<path d="M2.7720 2.6040
L2.7500 2.6360
" />
<path d="M2.7750 1.6780
L2.7900 1.6950
" />
<path d="M2.7750 1.9670
L2.7680 1.9510
" />
</g>
<g style="fill:#000000; fill-opacity:1.0000; stroke:none;">
<circle cx="2.7750" cy="1.9670" r="0.0100" /> 
<circle cx="2.7750" cy="2.4830" r="0.0100" /> 
</g>
<g style="fill:none; 
stroke:#000000; stroke-width:0.0200; stroke-opacity:1; 
stroke-linecap:round; stroke-linejoin:round;">
<path d="M2.7750 2.4830
L2.7810 2.4660
" />
<path d="M2.7750 2.7720
L2.7580 2.7910
" />
<path d="M2.7810 1.9820
L2.7750 1.9670
" />
<path d="M2.7810 2.4660
L2.7870 2.4520
" />
<path d="M2.7870 1.9980
L2.7810 1.9820
" />
<path d="M2.7870 2.4520
L2.7920 2.4350
" />
<path d="M2.7900 1.6950
L2.8050 1.7140
" />
<path d="M2.7900 1.8800
L2.8070 1.9130
" />
<path d="M2.7900 2.5700
L2.7720 2.6040
" />
<path d="M2.7900 2.7520
L2.7750 2.7720
" />
<path d="M2.7920 2.0150
L2.7870 1.9980
" />
<path d="M2.7920 2.4350
L2.7970 2.4200
" />
<path d="M2.7970 2.0290
L2.7920 2.0150
" />
<path d="M2.7970 2.4200
L2.8010 2.4030
" />
<path d="M2.8010 2.0460
L2.7970 2.0290
" />
<path d="M2.8010 2.4030
L2.8050 2.3880
" />
<path d="M2.8050 1.7140
L2.8190 1.7340
" />
<path d="M2.8050 2.0610
L2.8010 2.0460
" />
<path d="M2.8050 2.3880
L2.8090 2.3720
" />
<path d="M2.8050 2.7340
L2.7900 2.7520
" />
<path d="M2.8070 1.9130
L2.8220 1.9500
" />
<path d="M2.8070 2.5360
L2.7900 2.5700
" />
<path d="M2.8090 2.0780
L2.8050 2.0610
" />
<path d="M2.8090 2.3720
L2.8120 2.3560
" />
<path d="M2.8120 2.0930
L2.8090 2.0780
" />
<path d="M2.8120 2.3560
L2.8150 2.3400
" />
<path d="M2.8150 2.1100
L2.8120 2.0930
" />
<path d="M2.8150 2.3400
L2.8180 2.3240
" />
<path d="M2.8180 2.1260
L2.8150 2.1100
" />
<path d="M2.8180 2.3240
L2.8200 2.3080
" />
<path d="M2.8190 1.7340
L2.8320 1.7550
" />
<path d="M2.8190 2.7150
L2.8050 2.7340
" />
<path d="M2.8200 2.1420
L2.8180 2.1260
" />
<path d="M2.8200 2.3080
L2.8210 2.2910
" />
<path d="M2.8210 2.1580
L2.8200 2.1420
" />
<path d="M2.8210 2.2910
L2.8230 2.2750
" />
<path d="M2.8220 1.9500
L2.8340 1.9830
" />
<path d="M2.8220 1.9500
L2.9290 1.9500
" />
<path d="M2.8220 2.4990
L2.8070 2.5360
" />
<path d="M2.8230 2.1750
L2.8210 2.1580
" />
<path d="M2.8230 2.2750
L2.8240 2.2580
" />
<path d="M2.8240 2.1910
L2.8230 2.1750
" />
<path d="M2.8240 2.2090
L2.8240 2.1910
" />
<path d="M2.8240 2.2250
L2.8240 2.2090
" />
</g>
<g style="fill:#000000; fill-opacity:1.0000; stroke:none;">
<circle cx="2.8240" cy="2.2250" r="0.0100" /> 
</g>
<g style="fill:none; 
stroke:#000000; stroke-width:0.0200; stroke-opacity:1; 
stroke-linecap:round; stroke-linejoin:round;">
<path d="M2.8240 2.2420
L2.8240 2.2250
" />
<path d="M2.8240 2.2580
L2.8240 2.2420
" />
<path d="M2.8280 1.9500
L2.8220 1.9500
" />
<path d="M2.8320 1.7550
L2.8450 1.7750
" />
<path d="M2.8320 2.6940
L2.8190 2.7150
" />
<path d="M2.8340 1.9830
L2.8440 2.0170
" />
<path d="M2.8340 2.4660
L2.8220 2.4990
" />
<path d="M2.8440 2.0170
L2.8530 2.0500
" />
<path d="M2.8440 2.4320
L2.8340 2.4660
" />
<path d="M2.8450 1.7750
L2.8570 1.7940
" />
<path d="M2.8450 2.6740
L2.8320 2.6940
" />
<path d="M2.8530 0.2750
L2.5480 0.2750
" />
<path d="M2.8530 0.2750
L2.8530 0.7100
" />
<path d="M2.8530 2.0500
L2.8600 2.0850
" />
<path d="M2.8530 2.3990
L2.8440 2.4320
" />
<path d="M2.8570 1.7940
L2.8690 1.8160
" />
<path d="M2.8570 2.6540
L2.8450 2.6740
" />
<path d="M2.8600 2.0850
L2.8660 2.1190
" />
<path d="M2.8600 2.3640
L2.8530 2.3990
" />
<path d="M2.8660 2.1190
L2.8700 2.1540
" />
<path d="M2.8660 2.3290
L2.8600 2.3640
" />
<path d="M2.8690 1.8160
L2.8800 1.8380
" />
<path d="M2.8690 2.6320
L2.8570 2.6540
" />
<path d="M2.8700 2.1540
L2.8730 2.1890
" />
<path d="M2.8700 2.2940
L2.8660 2.3290
" />
<path d="M2.8730 0.4240
L2.8730 0.7100
" />
<path d="M2.8730 0.4240
L3.6240 0.4240
" />
<path d="M2.8730 2.1890
L2.8730 2.2250
" />
<path d="M2.8730 2.2250
L2.8730 2.2600
" />
<path d="M2.8730 2.2600
L2.8700 2.2940
" />
<path d="M2.8750 1.9500
L2.8860 1.9830
" />
<path d="M2.8770 2.4990
L2.8750 2.4990
" />
<path d="M2.8800 1.8380
L2.8910 1.8580
" />
<path d="M2.8800 2.6110
L2.8690 2.6320
" />
<path d="M2.8860 1.9830
L2.8970 2.0170
" />
<path d="M2.8860 2.4660
L2.8750 2.4990
" />
<path d="M2.8910 1.8580
L2.9020 1.8810
" />
<path d="M2.8910 2.5900
L2.8800 2.6110
" />
<path d="M2.8970 2.0170
L2.9050 2.0510
" />
<path d="M2.8970 2.4320
L2.8860 2.4660
" />
<path d="M2.9020 1.8810
L2.9120 1.9040
" />
<path d="M2.9020 2.5670
L2.8910 2.5900
" />
<path d="M2.9050 2.0510
L2.9120 2.0850
" />
<path d="M2.9050 2.3990
L2.8970 2.4320
" />
<path d="M2.9100 1.9500
L2.8750 1.9500
" />
<path d="M2.9120 1.9040
L2.9200 1.9260
" />
<path d="M2.9120 2.0850
L2.9180 2.1200
" />
<path d="M2.9120 2.3630
L2.9050 2.3990
" />
<path d="M2.9120 2.5450
L2.9020 2.5670
" />
<path d="M2.9180 2.1200
L2.9210 2.1540
" />
<path d="M2.9180 2.3290
L2.9120 2.3630
" />
<path d="M2.9200 1.9260
L2.9290 1.9500
" />
<path d="M2.9200 2.5230
L2.9120 2.5450
" />
<path d="M2.9210 2.1540
L2.9240 2.1890
" />
<path d="M2.9210 2.2940
L2.9180 2.3290
" />
<path d="M2.9240 2.1890
L2.9250 2.2250
" />
<path d="M2.9240 2.2600
L2.9210 2.2940
" />
<path d="M2.9250 2.2250
L2.9240 2.2600
" />
<path d="M2.9290 1.9500
L3.3740 1.9500
" />
<path d="M2.9290 2.4990
L2.8220 2.4990
" />
<path d="M2.9290 2.4990
L2.9200 2.5230
" />
<path d="M3.0190 3.4740
L3.4190 3.4740
" />
<path d="M3.0190 3.8250
L3.0190 3.4740
" />
<path d="M3.0960 0.7100
L2.4760 0.7100
" />
<path d="M3.1790 0.7670
L3.0960 0.7100
" />
<path d="M3.2590 0.8270
L3.1790 0.7670
" />
<path d="M3.3340 0.8920
L3.2590 0.8270
" />
<path d="M3.3740 1.9500
L3.3740 2.4990
" />
<path d="M3.3740 2.4990
L2.9290 2.4990
" />
<path d="M3.4070 0.9620
L3.3340 0.8920
" />
<path d="M3.4190 3.4740
L3.4870 3.4010
" />
<path d="M3.4730 1.0330
L3.4070 0.9620
" />
<path d="M3.4750 3.4160
L3.4750 4.2000
" />
<path d="M3.4750 4.2000
L3.4750 4.2380
" />
<path d="M3.4750 4.2380
L2.5250 4.2380
" />
<path d="M3.4870 3.4010
L3.5500 3.3230
" />
<path d="M3.5380 1.1100
L3.4730 1.0330
" />
<path d="M3.5500 3.3230
L3.6100 3.2410
" />
<path d="M3.5960 1.1900
L3.5380 1.1100
" />
<path d="M3.6100 3.2410
L3.6630 3.1590
" />
<path d="M3.6240 0.4240
L3.9250 0.7250
" />
<path d="M3.6500 1.2720
L3.5960 1.1900
" />
<path d="M3.6630 3.1590
L3.7110 3.0730
" />
<path d="M3.7010 1.3560
L3.6500 1.2720
" />
<path d="M3.7110 3.0730
L3.7570 2.9830
" />
<path d="M3.7450 1.4440
L3.7010 1.3560
" />
<path d="M3.7570 2.9830
L3.7960 2.8930
" />
<path d="M3.7870 1.5350
L3.7450 1.4440
" />
<path d="M3.7960 2.8930
L3.8300 2.8010
" />
<path d="M3.8220 1.6270
L3.7870 1.5350
" />
<path d="M3.8300 2.8010
L3.8580 2.7070
" />
<path d="M3.8520 1.7210
L3.8220 1.6270
" />
<path d="M3.8580 2.7070
L3.8820 2.6100
" />
<path d="M3.8780 1.8180
L3.8520 1.7210
" />
<path d="M3.8820 2.6100
L3.9000 2.5140
" />
<path d="M3.8980 1.9160
L3.8780 1.8180
" />
<path d="M3.9000 2.5140
L3.9140 2.4150
" />
<path d="M3.9120 2.0160
L3.8980 1.9160
" />
</g>
<g style="fill:#000000; fill-opacity:1.0000; stroke:none;">
<circle cx="3.9120" cy="2.0160" r="0.0100" /> 
</g>
<g style="fill:none; 
stroke:#000000; stroke-width:0.0200; stroke-opacity:1; 
stroke-linecap:round; stroke-linejoin:round;">
<path d="M3.9140 2.4150
L3.9210 2.3160
" />
<path d="M3.9210 2.1160
L3.9120 2.0160
" />
<path d="M3.9210 2.3160
L3.9230 2.2170
" />
<path d="M3.9230 2.2170
L3.9210 2.1160
" />
<path d="M3.9250 0.7250
L3.9250 4.1750
" />
<path d="M3.9250 4.1750
L3.9250 4.2240
" />
<path d="M3.9250 4.2240
L3.4750 4.2240
" />
<path d="M3.9250 4.2240
L3.4750 4.2240
" />
</g> 
</svg>
