<?xml version="1.0" standalone="no"?>
 <!DOCTYPE svg PUBLIC "-//W3C//DTD SVG 1.1//EN" 
 "http://www.w3.org/Graphics/SVG/1.1/DTD/svg11.dtd"> 
<svg
  xmlns:svg="http://www.w3.org/2000/svg"
  xmlns="http://www.w3.org/2000/svg"
  xmlns:xlink="http://www.w3.org/1999/xlink"
  version="1.1"
  width="4.2418mm" height="5.2324mm" viewBox="0.0000 0.0000 4.2418 5.2324">
<title>SVG Image created as outline.svg date 2025/04/04 10:06:08 </title>
  <desc>Image generated by PCBNEW </desc>
<g style="fill:#000000; fill-opacity:1.0000;stroke:#000000; stroke-opacity:1.0000;
stroke-linecap:round; stroke-linejoin:round;"
 transform="translate(0 0) scale(1 1)">
</g>
<g style="fill:none; 
stroke:#000000; stroke-width:0.0200; stroke-opacity:1; 
stroke-linecap:round; stroke-linejoin:round;">
<path d="M0.3750 0.7240
L0.5040 0.7240
" />
<path d="M0.3750 4.5230
L0.3750 0.7240
" />
<path d="M0.5040 0.7240
L0.6290 0.7240
" />
<path d="M0.5040 1.5240
L0.5040 0.7240
" />
<path d="M0.5040 3.7250
L0.5040 4.5230
" />
<path d="M0.5040 4.5230
L0.3750 4.5230
" />
<path d="M0.5040 4.5230
L0.6290 4.5230
" />
<path d="M0.6290 0.7320
L0.6290 0.7240
" />
<path d="M0.6290 0.7380
L0.6290 0.7320
" />
<path d="M0.6290 4.5090
L0.6310 4.4950
" />
<path d="M0.6290 4.5230
L0.6290 4.5090
" />
<path d="M0.6310 0.7460
L0.6290 0.7380
" />
<path d="M0.6310 0.7540
L0.6310 0.7460
" />
<path d="M0.6310 4.4950
L0.6330 4.4790
" />
<path d="M0.6330 0.7620
L0.6310 0.7540
" />
<path d="M0.6330 0.7680
L0.6330 0.7620
" />
<path d="M0.6330 4.4790
L0.6370 4.4650
" />
<path d="M0.6350 0.7760
L0.6330 0.7680
" />
<path d="M0.6370 0.7820
L0.6350 0.7760
" />
<path d="M0.6370 4.4650
L0.6410 4.4510
" />
<path d="M0.6390 0.7900
L0.6370 0.7820
" />
<path d="M0.6410 0.7960
L0.6390 0.7900
" />
<path d="M0.6410 4.4510
L0.6470 4.4370
" />
<path d="M0.6430 0.8040
L0.6410 0.7960
" />
<path d="M0.6470 0.8100
L0.6430 0.8040
" />
<path d="M0.6470 4.4370
L0.6530 4.4250
" />
<path d="M0.6490 0.8160
L0.6470 0.8100
" />
<path d="M0.6530 0.8240
L0.6490 0.8160
" />
<path d="M0.6530 4.4250
L0.6590 4.4120
" />
<path d="M0.6550 0.8300
L0.6530 0.8240
" />
<path d="M0.6590 0.8370
L0.6550 0.8300
" />
<path d="M0.6590 4.4120
L0.6670 4.4000
" />
<path d="M0.6630 0.8430
L0.6590 0.8370
" />
<path d="M0.6670 0.8490
L0.6630 0.8430
" />
<path d="M0.6670 4.4000
L0.6750 4.3880
" />
<path d="M0.6710 0.8550
L0.6670 0.8490
" />
<path d="M0.6750 0.8610
L0.6710 0.8550
" />
<path d="M0.6750 4.3880
L0.6850 4.3760
" />
<path d="M0.6810 0.8670
L0.6750 0.8610
" />
<path d="M0.6850 0.8710
L0.6810 0.8670
" />
<path d="M0.6850 4.3760
L0.6950 4.3660
" />
<path d="M0.6890 0.8770
L0.6850 0.8710
" />
<path d="M0.6950 0.8830
L0.6890 0.8770
" />
<path d="M0.6950 4.3660
L0.7050 4.3560
" />
<path d="M0.7010 0.8870
L0.6950 0.8830
" />
<path d="M0.7050 0.8930
L0.7010 0.8870
" />
<path d="M0.7050 4.3560
L0.7170 4.3460
" />
<path d="M0.7110 0.8970
L0.7050 0.8930
" />
<path d="M0.7170 0.9010
L0.7110 0.8970
" />
<path d="M0.7170 4.3460
L0.7280 4.3380
" />
<path d="M0.7220 0.9070
L0.7170 0.9010
" />
<path d="M0.7280 0.9110
L0.7220 0.9070
" />
<path d="M0.7280 4.3380
L0.7420 4.3300
" />
<path d="M0.7360 0.9150
L0.7280 0.9110
" />
<path d="M0.7420 0.9190
L0.7360 0.9150
" />
</g>
<g style="fill:#000000; fill-opacity:1.0000; stroke:none;">
<circle cx="0.7420" cy="0.9190" r="0.0100" /> 
<circle cx="0.7420" cy="4.3300" r="0.0100" /> 
</g>
<g style="fill:none; 
stroke:#000000; stroke-width:0.0200; stroke-opacity:1; 
stroke-linecap:round; stroke-linejoin:round;">
<path d="M0.7420 4.3300
L0.7540 4.3220
" />
<path d="M0.7540 0.9250
L0.7420 0.9190
" />
<path d="M0.7540 4.3220
L0.7680 4.3160
" />
<path d="M0.7680 0.9310
L0.7540 0.9250
" />
<path d="M0.7680 4.3160
L0.7820 4.3120
" />
<path d="M0.7820 0.9370
L0.7680 0.9310
" />
<path d="M0.7820 4.3120
L0.7960 4.3060
" />
<path d="M0.7960 0.9410
L0.7820 0.9370
" />
<path d="M0.7960 4.3060
L0.8100 4.3040
" />
<path d="M0.8100 0.9450
L0.7960 0.9410
" />
<path d="M0.8100 4.3040
L0.8240 4.3020
" />
<path d="M0.8240 0.9470
L0.8100 0.9450
" />
<path d="M0.8240 4.3020
L0.8400 4.3000
" />
<path d="M0.8400 0.9490
L0.8240 0.9470
" />
<path d="M0.8400 4.3000
L0.8550 4.3000
" />
<path d="M0.8550 0.9490
L0.8400 0.9490
" />
<path d="M0.8550 4.3000
L0.8690 4.3000
" />
<path d="M0.8690 0.9490
L0.8550 0.9490
" />
<path d="M0.8690 4.3000
L0.8830 4.3020
" />
<path d="M0.8830 0.9470
L0.8690 0.9490
" />
<path d="M0.8830 4.3020
L0.8970 4.3040
" />
<path d="M0.8970 0.9450
L0.8830 0.9470
" />
<path d="M0.8970 4.3040
L0.9110 4.3060
" />
<path d="M0.9110 0.9410
L0.8970 0.9450
" />
<path d="M0.9110 4.3060
L0.9250 4.3120
" />
<path d="M0.9250 0.9370
L0.9110 0.9410
" />
<path d="M0.9250 4.3120
L0.9390 4.3160
" />
<path d="M0.9390 0.9310
L0.9250 0.9370
" />
<path d="M0.9390 4.3160
L0.9530 4.3220
" />
<path d="M0.9530 0.9250
L0.9390 0.9310
" />
<path d="M0.9530 4.3220
L0.9670 4.3300
" />
<path d="M0.9670 0.9190
L0.9530 0.9250
" />
</g>
<g style="fill:#000000; fill-opacity:1.0000; stroke:none;">
<circle cx="0.9670" cy="0.9190" r="0.0100" /> 
<circle cx="0.9670" cy="4.3300" r="0.0100" /> 
</g>
<g style="fill:none; 
stroke:#000000; stroke-width:0.0200; stroke-opacity:1; 
stroke-linecap:round; stroke-linejoin:round;">
<path d="M0.9670 4.3300
L0.9720 4.3340
" />
<path d="M0.9720 4.3340
L0.9800 4.3380
" />
<path d="M0.9800 0.9110
L0.9670 0.9190
" />
<path d="M0.9800 4.3380
L0.9860 4.3420
" />
<path d="M0.9860 4.3420
L0.9920 4.3460
" />
<path d="M0.9920 0.9010
L0.9800 0.9110
" />
<path d="M0.9920 4.3460
L0.9960 4.3500
" />
<path d="M0.9960 4.3500
L1.0020 4.3560
" />
<path d="M1.0020 0.8930
L0.9920 0.9010
" />
<path d="M1.0020 4.3560
L1.0080 4.3600
" />
<path d="M1.0080 4.3600
L1.0140 4.3660
" />
<path d="M1.0140 0.8830
L1.0020 0.8930
" />
<path d="M1.0140 4.3660
L1.0180 4.3700
" />
<path d="M1.0180 4.3700
L1.0240 4.3760
" />
<path d="M1.0240 0.8710
L1.0140 0.8830
" />
<path d="M1.0240 4.3760
L1.0280 4.3820
" />
<path d="M1.0280 4.3820
L1.0320 4.3880
" />
<path d="M1.0320 0.8610
L1.0240 0.8710
" />
<path d="M1.0320 4.3880
L1.0360 4.3940
" />
<path d="M1.0360 4.3940
L1.0400 4.4000
" />
<path d="M1.0400 0.8490
L1.0320 0.8610
" />
<path d="M1.0400 4.4000
L1.0440 4.4060
" />
<path d="M1.0440 4.4060
L1.0480 4.4120
" />
<path d="M1.0480 0.8370
L1.0400 0.8490
" />
<path d="M1.0480 4.4120
L1.0520 4.4190
" />
<path d="M1.0520 4.4190
L1.0560 4.4250
" />
<path d="M1.0560 0.8240
L1.0480 0.8370
" />
<path d="M1.0560 4.4250
L1.0580 4.4310
" />
<path d="M1.0580 4.4310
L1.0620 4.4370
" />
<path d="M1.0620 0.8100
L1.0560 0.8240
" />
<path d="M1.0620 4.4370
L1.0640 4.4450
" />
<path d="M1.0640 4.4450
L1.0660 4.4510
" />
<path d="M1.0660 0.7960
L1.0620 0.8100
" />
<path d="M1.0660 4.4510
L1.0680 4.4590
" />
<path d="M1.0680 4.4590
L1.0700 4.4650
" />
<path d="M1.0700 0.7820
L1.0660 0.7960
" />
<path d="M1.0700 4.4650
L1.0720 4.4730
" />
<path d="M1.0720 4.4730
L1.0740 4.4790
" />
<path d="M1.0740 0.7680
L1.0700 0.7820
" />
<path d="M1.0740 4.4790
L1.0760 4.4870
" />
<path d="M1.0760 0.7540
L1.0740 0.7680
" />
<path d="M1.0760 4.4870
L1.0760 4.4950
" />
<path d="M1.0760 4.4950
L1.0780 4.5010
" />
<path d="M1.0780 0.7240
L1.0780 0.7380
" />
<path d="M1.0780 0.7240
L1.2030 0.7240
" />
<path d="M1.0780 0.7380
L1.0760 0.7540
" />
<path d="M1.0780 4.5010
L1.0780 4.5090
" />
<path d="M1.0780 4.5090
L1.0780 4.5170
" />
<path d="M1.0780 4.5170
L1.0780 4.5230
" />
<path d="M1.0780 4.5230
L1.2030 4.5230
" />
<path d="M1.2030 0.7240
L1.2030 1.5240
" />
<path d="M1.2030 0.7240
L3.0450 0.7240
" />
<path d="M1.2030 1.5240
L0.5040 1.5240
" />
<path d="M1.2030 3.7250
L0.5040 3.7250
" />
<path d="M1.2030 4.5230
L1.2030 3.7250
" />
<path d="M3.0450 0.7240
L3.0450 1.5240
" />
<path d="M3.0450 1.5240
L3.7450 1.5240
" />
<path d="M3.0450 3.7250
L3.7450 3.7250
" />
<path d="M3.0450 4.5230
L1.2030 4.5230
" />
<path d="M3.0450 4.5230
L3.0450 3.7250
" />
<path d="M3.1690 0.7240
L3.0450 0.7240
" />
<path d="M3.1690 0.7320
L3.1690 0.7240
" />
<path d="M3.1690 0.7380
L3.1690 0.7320
" />
<path d="M3.1690 4.5090
L3.1710 4.4950
" />
<path d="M3.1690 4.5230
L3.0450 4.5230
" />
<path d="M3.1690 4.5230
L3.1690 4.5090
" />
<path d="M3.1710 0.7460
L3.1690 0.7380
" />
<path d="M3.1710 0.7540
L3.1710 0.7460
" />
<path d="M3.1710 4.4950
L3.1730 4.4790
" />
<path d="M3.1730 0.7620
L3.1710 0.7540
" />
<path d="M3.1730 0.7680
L3.1730 0.7620
" />
<path d="M3.1730 4.4790
L3.1770 4.4650
" />
<path d="M3.1750 0.7760
L3.1730 0.7680
" />
<path d="M3.1770 0.7820
L3.1750 0.7760
" />
<path d="M3.1770 4.4650
L3.1810 4.4510
" />
<path d="M3.1790 0.7900
L3.1770 0.7820
" />
<path d="M3.1810 0.7960
L3.1790 0.7900
" />
<path d="M3.1810 4.4510
L3.1870 4.4370
" />
<path d="M3.1830 0.8040
L3.1810 0.7960
" />
<path d="M3.1870 0.8100
L3.1830 0.8040
" />
<path d="M3.1870 4.4370
L3.1930 4.4250
" />
<path d="M3.1890 0.8160
L3.1870 0.8100
" />
<path d="M3.1930 0.8240
L3.1890 0.8160
" />
<path d="M3.1930 4.4250
L3.1990 4.4120
" />
<path d="M3.1950 0.8300
L3.1930 0.8240
" />
<path d="M3.1990 0.8370
L3.1950 0.8300
" />
<path d="M3.1990 4.4120
L3.2070 4.4000
" />
<path d="M3.2030 0.8430
L3.1990 0.8370
" />
<path d="M3.2070 0.8490
L3.2030 0.8430
" />
<path d="M3.2070 4.4000
L3.2150 4.3880
" />
<path d="M3.2110 0.8550
L3.2070 0.8490
" />
<path d="M3.2150 0.8610
L3.2110 0.8550
" />
<path d="M3.2150 4.3880
L3.2250 4.3760
" />
<path d="M3.2210 0.8670
L3.2150 0.8610
" />
<path d="M3.2250 0.8710
L3.2210 0.8670
" />
<path d="M3.2250 4.3760
L3.2350 4.3660
" />
<path d="M3.2290 0.8770
L3.2250 0.8710
" />
<path d="M3.2350 0.8830
L3.2290 0.8770
" />
<path d="M3.2350 4.3660
L3.2450 4.3560
" />
<path d="M3.2410 0.8870
L3.2350 0.8830
" />
<path d="M3.2450 0.8930
L3.2410 0.8870
" />
<path d="M3.2450 4.3560
L3.2570 4.3460
" />
<path d="M3.2510 0.8970
L3.2450 0.8930
" />
<path d="M3.2570 0.9010
L3.2510 0.8970
" />
<path d="M3.2570 4.3460
L3.2690 4.3380
" />
<path d="M3.2630 0.9070
L3.2570 0.9010
" />
<path d="M3.2690 0.9110
L3.2630 0.9070
" />
<path d="M3.2690 4.3380
L3.2820 4.3300
" />
<path d="M3.2750 0.9150
L3.2690 0.9110
" />
<path d="M3.2820 0.9190
L3.2750 0.9150
" />
</g>
<g style="fill:#000000; fill-opacity:1.0000; stroke:none;">
<circle cx="3.2820" cy="0.9190" r="0.0100" /> 
<circle cx="3.2820" cy="4.3300" r="0.0100" /> 
</g>
<g style="fill:none; 
stroke:#000000; stroke-width:0.0200; stroke-opacity:1; 
stroke-linecap:round; stroke-linejoin:round;">
<path d="M3.2820 4.3300
L3.2940 4.3220
" />
<path d="M3.2940 0.9250
L3.2820 0.9190
" />
<path d="M3.2940 4.3220
L3.3080 4.3160
" />
<path d="M3.3080 0.9310
L3.2940 0.9250
" />
<path d="M3.3080 4.3160
L3.3220 4.3120
" />
<path d="M3.3220 0.9370
L3.3080 0.9310
" />
<path d="M3.3220 4.3120
L3.3360 4.3060
" />
<path d="M3.3360 0.9410
L3.3220 0.9370
" />
<path d="M3.3360 4.3060
L3.3500 4.3040
" />
<path d="M3.3500 0.9450
L3.3360 0.9410
" />
<path d="M3.3500 4.3040
L3.3640 4.3020
" />
<path d="M3.3640 0.9470
L3.3500 0.9450
" />
<path d="M3.3640 4.3020
L3.3800 4.3000
" />
<path d="M3.3800 0.9490
L3.3640 0.9470
" />
<path d="M3.3800 4.3000
L3.3940 4.3000
" />
<path d="M3.3940 0.9490
L3.3800 0.9490
" />
<path d="M3.3940 4.3000
L3.4090 4.3000
" />
<path d="M3.4090 0.9490
L3.3940 0.9490
" />
<path d="M3.4090 4.3000
L3.4230 4.3020
" />
<path d="M3.4230 0.9470
L3.4090 0.9490
" />
<path d="M3.4230 4.3020
L3.4370 4.3040
" />
<path d="M3.4370 0.9450
L3.4230 0.9470
" />
<path d="M3.4370 4.3040
L3.4510 4.3060
" />
<path d="M3.4510 0.9410
L3.4370 0.9450
" />
<path d="M3.4510 4.3060
L3.4650 4.3120
" />
<path d="M3.4650 0.9370
L3.4510 0.9410
" />
<path d="M3.4650 4.3120
L3.4790 4.3160
" />
<path d="M3.4790 0.9310
L3.4650 0.9370
" />
<path d="M3.4790 4.3160
L3.4930 4.3220
" />
<path d="M3.4930 0.9250
L3.4790 0.9310
" />
<path d="M3.4930 4.3220
L3.5070 4.3300
" />
<path d="M3.5070 0.9190
L3.4930 0.9250
" />
</g>
<g style="fill:#000000; fill-opacity:1.0000; stroke:none;">
<circle cx="3.5070" cy="0.9190" r="0.0100" /> 
<circle cx="3.5070" cy="4.3300" r="0.0100" /> 
</g>
<g style="fill:none; 
stroke:#000000; stroke-width:0.0200; stroke-opacity:1; 
stroke-linecap:round; stroke-linejoin:round;">
<path d="M3.5070 4.3300
L3.5130 4.3340
" />
<path d="M3.5130 4.3340
L3.5190 4.3380
" />
<path d="M3.5190 0.9110
L3.5070 0.9190
" />
<path d="M3.5190 4.3380
L3.5250 4.3420
" />
<path d="M3.5250 4.3420
L3.5310 4.3460
" />
<path d="M3.5310 0.9010
L3.5190 0.9110
" />
<path d="M3.5310 4.3460
L3.5360 4.3500
" />
<path d="M3.5360 4.3500
L3.5420 4.3560
" />
<path d="M3.5420 0.8930
L3.5310 0.9010
" />
<path d="M3.5420 4.3560
L3.5480 4.3600
" />
<path d="M3.5480 4.3600
L3.5540 4.3660
" />
<path d="M3.5540 0.8830
L3.5420 0.8930
" />
<path d="M3.5540 4.3660
L3.5580 4.3700
" />
<path d="M3.5580 4.3700
L3.5640 4.3760
" />
<path d="M3.5640 0.8710
L3.5540 0.8830
" />
<path d="M3.5640 4.3760
L3.5680 4.3820
" />
<path d="M3.5680 4.3820
L3.5720 4.3880
" />
<path d="M3.5720 0.8610
L3.5640 0.8710
" />
<path d="M3.5720 4.3880
L3.5760 4.3940
" />
<path d="M3.5760 4.3940
L3.5800 4.4000
" />
<path d="M3.5800 0.8490
L3.5720 0.8610
" />
<path d="M3.5800 4.4000
L3.5840 4.4060
" />
<path d="M3.5840 4.4060
L3.5880 4.4120
" />
<path d="M3.5880 0.8370
L3.5800 0.8490
" />
<path d="M3.5880 4.4120
L3.5920 4.4190
" />
<path d="M3.5920 4.4190
L3.5960 4.4250
" />
<path d="M3.5960 0.8240
L3.5880 0.8370
" />
<path d="M3.5960 4.4250
L3.5980 4.4310
" />
<path d="M3.5980 4.4310
L3.6020 4.4370
" />
<path d="M3.6020 0.8100
L3.5960 0.8240
" />
<path d="M3.6020 4.4370
L3.6040 4.4450
" />
<path d="M3.6040 4.4450
L3.6060 4.4510
" />
<path d="M3.6060 0.7960
L3.6020 0.8100
" />
<path d="M3.6060 4.4510
L3.6080 4.4590
" />
<path d="M3.6080 4.4590
L3.6100 4.4650
" />
<path d="M3.6100 0.7820
L3.6060 0.7960
" />
<path d="M3.6100 4.4650
L3.6120 4.4730
" />
<path d="M3.6120 4.4730
L3.6140 4.4790
" />
<path d="M3.6140 0.7680
L3.6100 0.7820
" />
<path d="M3.6140 4.4790
L3.6160 4.4870
" />
<path d="M3.6160 0.7540
L3.6140 0.7680
" />
<path d="M3.6160 4.4870
L3.6160 4.4950
" />
<path d="M3.6160 4.4950
L3.6180 4.5010
" />
<path d="M3.6180 0.7240
L3.6180 0.7380
" />
<path d="M3.6180 0.7380
L3.6160 0.7540
" />
<path d="M3.6180 4.5010
L3.6180 4.5090
" />
<path d="M3.6180 4.5090
L3.6180 4.5170
" />
<path d="M3.6180 4.5170
L3.6180 4.5230
" />
<path d="M3.7450 0.7240
L3.6180 0.7240
" />
<path d="M3.7450 0.7240
L3.8740 0.7240
" />
<path d="M3.7450 1.5240
L3.7450 0.7240
" />
<path d="M3.7450 3.7250
L3.7450 4.5230
" />
<path d="M3.7450 4.5230
L3.6180 4.5230
" />
<path d="M3.8740 0.7240
L3.8740 4.5230
" />
<path d="M3.8740 4.5230
L3.7450 4.5230
" />
</g> 
</svg>
