<?xml version="1.0" standalone="no"?>
 <!DOCTYPE svg PUBLIC "-//W3C//DTD SVG 1.1//EN" 
 "http://www.w3.org/Graphics/SVG/1.1/DTD/svg11.dtd"> 
<svg
  xmlns:svg="http://www.w3.org/2000/svg"
  xmlns="http://www.w3.org/2000/svg"
  xmlns:xlink="http://www.w3.org/1999/xlink"
  version="1.1"
  width="8.7376mm" height="7.7470mm" viewBox="0.0000 0.0000 8.7376 7.7470">
<title>SVG Image created as outline.svg date 2025/06/16 09:18:17 </title>
  <desc>Image generated by PCBNEW </desc>
<g style="fill:#000000; fill-opacity:1.0000;stroke:#000000; stroke-opacity:1.0000;
stroke-linecap:round; stroke-linejoin:round;"
 transform="translate(0 0) scale(1 1)">
</g>
<g style="fill:none; 
stroke:#000000; stroke-width:0.0200; stroke-opacity:1; 
stroke-linecap:round; stroke-linejoin:round;">
<path d="M0.4750 0.8000
L0.4750 1.1000
" />
<path d="M0.4750 1.4500
L0.4750 1.7500
" />
<path d="M0.4750 2.1000
L0.4750 2.4000
" />
<path d="M0.4750 2.7500
L0.4750 3.0500
" />
<path d="M0.4750 3.4000
L0.4750 3.7000
" />
<path d="M0.4750 4.0500
L0.4750 4.3500
" />
<path d="M0.4750 4.7000
L0.4750 5.0000
" />
<path d="M0.4750 5.3500
L0.4750 5.6500
" />
<path d="M0.4750 6.0000
L0.4750 6.3000
" />
<path d="M0.4750 6.6500
L0.4750 6.9500
" />
<path d="M0.9450 0.8000
L0.4750 0.8000
" />
<path d="M0.9450 0.8000
L0.9450 1.1000
" />
<path d="M0.9450 0.8000
L1.0820 0.8000
" />
<path d="M0.9450 1.1000
L0.4750 1.1000
" />
<path d="M0.9450 1.4500
L0.4750 1.4500
" />
<path d="M0.9450 1.4500
L0.9450 1.7500
" />
<path d="M0.9450 1.4500
L1.0820 1.4500
" />
<path d="M0.9450 1.7500
L0.4750 1.7500
" />
<path d="M0.9450 2.1000
L0.4750 2.1000
" />
<path d="M0.9450 2.1000
L0.9450 2.4000
" />
<path d="M0.9450 2.1000
L1.0820 2.1000
" />
<path d="M0.9450 2.4000
L0.4750 2.4000
" />
<path d="M0.9450 2.7500
L0.4750 2.7500
" />
<path d="M0.9450 2.7500
L0.9450 3.0500
" />
<path d="M0.9450 2.7500
L1.0820 2.7500
" />
<path d="M0.9450 3.0500
L0.4750 3.0500
" />
<path d="M0.9450 3.4000
L0.4750 3.4000
" />
<path d="M0.9450 3.4000
L0.9450 3.7000
" />
<path d="M0.9450 3.4000
L1.0820 3.4000
" />
<path d="M0.9450 3.7000
L0.4750 3.7000
" />
<path d="M0.9450 4.0500
L0.4750 4.0500
" />
<path d="M0.9450 4.0500
L0.9450 4.3500
" />
<path d="M0.9450 4.0500
L1.0820 4.0500
" />
<path d="M0.9450 4.3500
L0.4750 4.3500
" />
<path d="M0.9450 4.7000
L0.4750 4.7000
" />
<path d="M0.9450 4.7000
L0.9450 5.0000
" />
<path d="M0.9450 4.7000
L1.0820 4.7000
" />
<path d="M0.9450 5.0000
L0.4750 5.0000
" />
<path d="M0.9450 5.3500
L0.4750 5.3500
" />
<path d="M0.9450 5.3500
L0.9450 5.6500
" />
<path d="M0.9450 5.3500
L1.0820 5.3500
" />
<path d="M0.9450 5.6500
L0.4750 5.6500
" />
<path d="M0.9450 6.0000
L0.4750 6.0000
" />
<path d="M0.9450 6.0000
L0.9450 6.3000
" />
<path d="M0.9450 6.0000
L1.0820 6.0000
" />
<path d="M0.9450 6.3000
L0.4750 6.3000
" />
<path d="M0.9450 6.6500
L0.4750 6.6500
" />
<path d="M0.9450 6.6500
L0.9450 6.9500
" />
<path d="M0.9450 6.6500
L1.0820 6.6500
" />
<path d="M0.9450 6.9500
L0.4750 6.9500
" />
<path d="M1.0820 0.8000
L1.0820 1.1000
" />
<path d="M1.0820 1.1000
L0.9450 1.1000
" />
<path d="M1.0820 1.1000
L1.1600 1.1000
" />
<path d="M1.0820 1.4500
L1.0820 1.7500
" />
<path d="M1.0820 1.7500
L0.9450 1.7500
" />
<path d="M1.0820 1.7500
L1.1600 1.7500
" />
<path d="M1.0820 2.1000
L1.0820 2.4000
" />
<path d="M1.0820 2.4000
L0.9450 2.4000
" />
<path d="M1.0820 2.4000
L1.1600 2.4000
" />
<path d="M1.0820 2.7500
L1.0820 3.0500
" />
<path d="M1.0820 3.0500
L0.9450 3.0500
" />
<path d="M1.0820 3.0500
L1.1600 3.0500
" />
<path d="M1.0820 3.4000
L1.0820 3.7000
" />
<path d="M1.0820 3.7000
L0.9450 3.7000
" />
<path d="M1.0820 3.7000
L1.1600 3.7000
" />
<path d="M1.0820 4.0500
L1.0820 4.3500
" />
<path d="M1.0820 4.3500
L0.9450 4.3500
" />
<path d="M1.0820 4.3500
L1.1600 4.3500
" />
<path d="M1.0820 4.7000
L1.0820 5.0000
" />
<path d="M1.0820 5.0000
L0.9450 5.0000
" />
<path d="M1.0820 5.0000
L1.1600 5.0000
" />
<path d="M1.0820 5.3500
L1.0820 5.6500
" />
<path d="M1.0820 5.6500
L0.9450 5.6500
" />
<path d="M1.0820 5.6500
L1.1600 5.6500
" />
<path d="M1.0820 6.0000
L1.0820 6.3000
" />
<path d="M1.0820 6.3000
L0.9450 6.3000
" />
<path d="M1.0820 6.3000
L1.1600 6.3000
" />
<path d="M1.0820 6.6500
L1.0820 6.9500
" />
<path d="M1.0820 6.9500
L0.9450 6.9500
" />
<path d="M1.0820 6.9500
L1.1600 6.9500
" />
<path d="M1.1600 0.8000
L1.0820 0.8000
" />
<path d="M1.1600 0.8000
L1.4550 0.8000
" />
<path d="M1.1600 1.1000
L1.1600 0.8000
" />
<path d="M1.1600 1.4500
L1.0820 1.4500
" />
<path d="M1.1600 1.4500
L1.4550 1.4500
" />
<path d="M1.1600 1.7500
L1.1600 1.4500
" />
<path d="M1.1600 2.1000
L1.0820 2.1000
" />
<path d="M1.1600 2.1000
L1.4550 2.1000
" />
<path d="M1.1600 2.4000
L1.1600 2.1000
" />
<path d="M1.1600 2.7500
L1.0820 2.7500
" />
<path d="M1.1600 2.7500
L1.4550 2.7500
" />
<path d="M1.1600 3.0500
L1.1600 2.7500
" />
<path d="M1.1600 3.4000
L1.0820 3.4000
" />
<path d="M1.1600 3.4000
L1.4550 3.4000
" />
<path d="M1.1600 3.7000
L1.1600 3.4000
" />
<path d="M1.1600 4.0500
L1.0820 4.0500
" />
<path d="M1.1600 4.0500
L1.4550 4.0500
" />
<path d="M1.1600 4.3500
L1.1600 4.0500
" />
<path d="M1.1600 4.7000
L1.0820 4.7000
" />
<path d="M1.1600 4.7000
L1.4550 4.7000
" />
<path d="M1.1600 5.0000
L1.1600 4.7000
" />
<path d="M1.1600 5.3500
L1.0820 5.3500
" />
<path d="M1.1600 5.3500
L1.4550 5.3500
" />
<path d="M1.1600 5.6500
L1.1600 5.3500
" />
<path d="M1.1600 6.0000
L1.0820 6.0000
" />
<path d="M1.1600 6.0000
L1.4550 6.0000
" />
<path d="M1.1600 6.3000
L1.1600 6.0000
" />
<path d="M1.1600 6.6500
L1.0820 6.6500
" />
<path d="M1.1600 6.6500
L1.4550 6.6500
" />
<path d="M1.1600 6.9500
L1.1600 6.6500
" />
<path d="M1.4560 1.1000
L1.1600 1.1000
" />
<path d="M1.4560 1.1000
L1.4560 0.8000
" />
<path d="M1.4560 1.7500
L1.1600 1.7500
" />
<path d="M1.4560 1.7500
L1.4560 1.4500
" />
<path d="M1.4560 2.4000
L1.1600 2.4000
" />
<path d="M1.4560 2.4000
L1.4560 2.1000
" />
<path d="M1.4560 3.0500
L1.1600 3.0500
" />
<path d="M1.4560 3.0500
L1.4560 2.7500
" />
<path d="M1.4560 3.7000
L1.1600 3.7000
" />
<path d="M1.4560 3.7000
L1.4560 3.4000
" />
<path d="M1.4560 4.3500
L1.1600 4.3500
" />
<path d="M1.4560 4.3500
L1.4560 4.0500
" />
<path d="M1.4560 5.0000
L1.1600 5.0000
" />
<path d="M1.4560 5.0000
L1.4560 4.7000
" />
<path d="M1.4560 5.6500
L1.1600 5.6500
" />
<path d="M1.4560 5.6500
L1.4560 5.3500
" />
<path d="M1.4560 6.3000
L1.1600 6.3000
" />
<path d="M1.4560 6.3000
L1.4560 6.0000
" />
<path d="M1.4560 6.9500
L1.1600 6.9500
" />
<path d="M1.4560 6.9500
L1.4560 6.6500
" />
<path d="M1.7250 0.4680
L1.7250 0.4750
" />
<path d="M1.7250 0.4750
L1.7250 7.2750
" />
<path d="M1.7250 0.8000
L1.4560 0.8000
" />
<path d="M1.7250 0.8000
L1.7250 1.1000
" />
<path d="M1.7250 1.1000
L1.4560 1.1000
" />
<path d="M1.7250 1.4500
L1.4560 1.4500
" />
<path d="M1.7250 1.4500
L1.7250 1.7500
" />
<path d="M1.7250 1.7500
L1.4560 1.7500
" />
<path d="M1.7250 2.1000
L1.4560 2.1000
" />
<path d="M1.7250 2.1000
L1.7250 2.4000
" />
<path d="M1.7250 2.4000
L1.4560 2.4000
" />
<path d="M1.7250 2.7500
L1.4560 2.7500
" />
<path d="M1.7250 2.7500
L1.7250 3.0500
" />
<path d="M1.7250 3.0500
L1.4560 3.0500
" />
<path d="M1.7250 3.4000
L1.4560 3.4000
" />
<path d="M1.7250 3.4000
L1.7250 3.7000
" />
<path d="M1.7250 3.7000
L1.4560 3.7000
" />
<path d="M1.7250 4.0500
L1.4560 4.0500
" />
<path d="M1.7250 4.0500
L1.7250 4.3500
" />
<path d="M1.7250 4.3500
L1.4560 4.3500
" />
<path d="M1.7250 4.7000
L1.4560 4.7000
" />
<path d="M1.7250 4.7000
L1.7250 5.0000
" />
<path d="M1.7250 5.0000
L1.4560 5.0000
" />
<path d="M1.7250 5.3500
L1.4560 5.3500
" />
<path d="M1.7250 5.3500
L1.7250 5.6500
" />
<path d="M1.7250 5.6500
L1.4560 5.6500
" />
<path d="M1.7250 6.0000
L1.4560 6.0000
" />
<path d="M1.7250 6.0000
L1.7250 6.3000
" />
<path d="M1.7250 6.3000
L1.4560 6.3000
" />
<path d="M1.7250 6.6500
L1.4560 6.6500
" />
<path d="M1.7250 6.6500
L1.7250 6.9500
" />
<path d="M1.7250 6.9500
L1.4560 6.9500
" />
<path d="M1.7250 7.2750
L1.7250 7.2820
" />
<path d="M1.7250 7.2820
L1.7300 7.3190
" />
<path d="M1.7300 0.4310
L1.7250 0.4680
" />
<path d="M1.7300 7.3190
L1.7420 7.3550
" />
<path d="M1.7420 0.3950
L1.7300 0.4310
" />
<path d="M1.7420 7.3550
L1.7600 7.3880
" />
<path d="M1.7600 0.3620
L1.7420 0.3950
" />
<path d="M1.7600 7.3880
L1.7840 7.4160
" />
<path d="M1.7840 0.3340
L1.7600 0.3620
" />
<path d="M1.7840 7.4160
L1.8120 7.4400
" />
<path d="M1.8120 0.3100
L1.7840 0.3340
" />
<path d="M1.8120 7.4400
L1.8450 7.4580
" />
<path d="M1.8450 0.2920
L1.8120 0.3100
" />
<path d="M1.8450 7.4580
L1.8810 7.4700
" />
<path d="M1.8810 0.2800
L1.8450 0.2920
" />
<path d="M1.8810 7.4700
L1.9180 7.4750
" />
<path d="M1.8830 0.6260
L1.7250 0.4680
" />
<path d="M1.8830 0.6260
L2.2210 0.7710
" />
<path d="M1.8830 7.1240
L1.7250 7.2820
" />
<path d="M1.8830 7.1240
L1.8830 0.6250
" />
<path d="M1.8830 7.1240
L1.8890 7.1600
" />
<path d="M1.8890 0.5900
L1.8830 0.6260
" />
<path d="M1.8890 7.1600
L1.9020 7.1950
" />
<path d="M1.9020 0.5550
L1.8890 0.5900
" />
<path d="M1.9020 7.1950
L1.9200 7.2270
" />
<path d="M1.9180 0.2750
L1.8810 0.2800
" />
<path d="M1.9180 7.4750
L1.9250 7.4750
" />
<path d="M1.9200 0.5230
L1.9020 0.5550
" />
<path d="M1.9200 7.2270
L1.9440 7.2560
" />
<path d="M1.9250 0.2750
L1.9180 0.2750
" />
<path d="M1.9250 7.4750
L6.8250 7.4750
" />
<path d="M1.9440 0.4940
L1.9200 0.5230
" />
<path d="M1.9440 7.2560
L1.9730 7.2800
" />
<path d="M1.9730 0.4700
L1.9440 0.4940
" />
<path d="M1.9730 7.2800
L2.0050 7.2980
" />
<path d="M2.0050 0.4520
L1.9730 0.4700
" />
<path d="M2.0050 7.2980
L2.0400 7.3110
" />
<path d="M2.0400 0.4390
L2.0050 0.4520
" />
<path d="M2.0400 7.3110
L2.0760 7.3170
" />
<path d="M2.0760 0.4330
L1.9180 0.2750
" />
<path d="M2.0760 0.4330
L2.0400 0.4390
" />
<path d="M2.0760 7.3170
L1.9180 7.4750
" />
<path d="M2.0760 7.3170
L2.2210 6.9790
" />
<path d="M2.0760 7.3170
L6.6750 7.3170
" />
<path d="M2.1750 1.7750
L2.1780 1.7060
" />
<path d="M2.1780 1.7060
L2.1870 1.6380
" />
<path d="M2.1780 1.8440
L2.1750 1.7750
" />
<path d="M2.1870 1.6380
L2.2010 1.5710
" />
<path d="M2.1870 1.9120
L2.1780 1.8440
" />
<path d="M2.1960 1.5930
L2.2060 1.5530
" />
<path d="M2.2010 1.5710
L2.2210 1.5070
" />
<path d="M2.2010 1.9790
L2.1870 1.9120
" />
<path d="M2.2060 1.5530
L2.2190 1.5130
" />
<path d="M2.2060 1.9970
L2.1960 1.9570
" />
<path d="M2.2190 2.0370
L2.2060 1.9970
" />
<path d="M2.2210 0.7710
L2.0760 0.4330
" />
<path d="M2.2210 0.7710
L2.2210 1.5070
" />
<path d="M2.2210 1.5070
L2.2510 1.4330
" />
<path d="M2.2210 2.0430
L2.2010 1.9790
" />
<path d="M2.2210 2.0430
L2.2210 6.9790
" />
<path d="M2.2210 6.9790
L1.8830 7.1240
" />
<path d="M2.2210 6.9790
L6.5290 6.9790
" />
<path d="M2.2510 1.4330
L2.2900 1.3630
" />
<path d="M2.2520 2.1180
L2.2220 2.0430
" />
<path d="M2.2900 1.3630
L2.3340 1.2960
" />
<path d="M2.2900 2.1880
L2.2520 2.1180
" />
<path d="M2.3340 1.2960
L2.3850 1.2340
" />
<path d="M2.3350 2.2540
L2.2900 2.1880
" />
<path d="M2.3850 1.2340
L2.4420 1.1780
" />
<path d="M2.3850 2.3160
L2.3350 2.2540
" />
<path d="M2.4420 1.1780
L2.5040 1.1280
" />
<path d="M2.4420 2.3720
L2.3850 2.3160
" />
<path d="M2.5040 1.1280
L2.5710 1.0840
" />
<path d="M2.5040 2.4220
L2.4420 2.3720
" />
<path d="M2.5710 1.0840
L2.6420 1.0470
" />
<path d="M2.5720 2.4660
L2.5040 2.4220
" />
<path d="M2.6420 1.0470
L2.7170 1.0170
" />
<path d="M2.6420 2.5020
L2.5720 2.4660
" />
<path d="M2.7170 1.0170
L2.7930 0.9960
" />
<path d="M2.7170 2.5320
L2.6420 2.5020
" />
<path d="M2.7930 0.9960
L2.8730 0.9820
" />
<path d="M2.7930 2.5540
L2.7170 2.5320
" />
<path d="M2.8720 2.5680
L2.7930 2.5540
" />
<path d="M2.8730 0.9820
L2.9520 0.9750
" />
<path d="M2.9510 2.5750
L2.8720 2.5680
" />
<path d="M2.9520 0.9750
L3.0320 0.9770
" />
<path d="M3.0310 2.5730
L2.9510 2.5750
" />
<path d="M3.0320 0.9770
L3.1120 0.9870
" />
<path d="M3.1110 2.5630
L3.0310 2.5730
" />
<path d="M3.1120 0.9870
L3.1890 1.0040
" />
<path d="M3.1890 1.0040
L3.2650 1.0290
" />
<path d="M3.1890 2.5460
L3.1110 2.5630
" />
<path d="M3.2650 1.0290
L3.3380 1.0620
" />
<path d="M3.2650 2.5210
L3.1890 2.5460
" />
<path d="M3.3380 1.0620
L3.4080 1.1020
" />
<path d="M3.3380 2.4880
L3.2650 2.5210
" />
<path d="M3.4070 2.4480
L3.3380 2.4880
" />
<path d="M3.4080 1.1020
L3.4720 1.1480
" />
<path d="M3.4720 1.1480
L3.5320 1.2010
" />
<path d="M3.4720 2.4020
L3.4070 2.4480
" />
<path d="M3.5320 1.2010
L3.5870 1.2600
" />
<path d="M3.5320 2.3490
L3.4720 2.4020
" />
<path d="M3.5870 1.2600
L3.6350 1.3230
" />
<path d="M3.5870 2.2900
L3.5320 2.3490
" />
<path d="M3.6350 1.3230
L3.6770 1.3920
" />
<path d="M3.6350 2.2270
L3.5870 2.2900
" />
<path d="M3.6770 1.3920
L3.7120 1.4640
" />
<path d="M3.6770 2.1580
L3.6350 2.2270
" />
<path d="M3.7120 1.4640
L3.7390 1.5390
" />
<path d="M3.7120 2.0860
L3.6770 2.1580
" />
<path d="M3.7390 1.5390
L3.7590 1.6160
" />
<path d="M3.7390 2.0110
L3.7120 2.0860
" />
<path d="M3.7590 1.6160
L3.7710 1.6960
" />
<path d="M3.7590 1.9340
L3.7390 2.0110
" />
<path d="M3.7710 1.6960
L3.7750 1.7750
" />
<path d="M3.7710 1.8550
L3.7590 1.9340
" />
<path d="M3.7750 1.7750
L3.7710 1.8550
" />
<path d="M6.5290 0.7710
L2.2210 0.7710
" />
<path d="M6.5290 0.7710
L6.8670 0.6260
" />
<path d="M6.5290 6.9790
L6.5290 0.7710
" />
<path d="M6.5290 6.9790
L6.6740 7.3170
" />
<path d="M6.6740 0.4330
L2.0750 0.4330
" />
<path d="M6.6740 0.4330
L6.5290 0.7710
" />
<path d="M6.6740 0.4330
L6.8320 0.2750
" />
<path d="M6.6740 7.3170
L6.7100 7.3110
" />
<path d="M6.6740 7.3170
L6.8320 7.4750
" />
<path d="M6.7100 0.4390
L6.6740 0.4330
" />
<path d="M6.7100 7.3110
L6.7450 7.2980
" />
<path d="M6.7450 0.4520
L6.7100 0.4390
" />
<path d="M6.7450 7.2980
L6.7770 7.2800
" />
<path d="M6.7770 0.4700
L6.7450 0.4520
" />
<path d="M6.7770 7.2800
L6.8060 7.2560
" />
<path d="M6.8060 0.4940
L6.7770 0.4700
" />
<path d="M6.8060 7.2560
L6.8300 7.2270
" />
<path d="M6.8250 0.2750
L1.9250 0.2750
" />
<path d="M6.8250 7.4750
L6.8320 7.4750
" />
<path d="M6.8300 0.5230
L6.8060 0.4940
" />
<path d="M6.8300 7.2270
L6.8480 7.1950
" />
<path d="M6.8320 0.2750
L6.8250 0.2750
" />
<path d="M6.8320 7.4750
L6.8690 7.4700
" />
<path d="M6.8480 0.5550
L6.8300 0.5230
" />
<path d="M6.8480 7.1950
L6.8610 7.1600
" />
<path d="M6.8610 0.5900
L6.8480 0.5550
" />
<path d="M6.8610 7.1600
L6.8670 7.1240
" />
<path d="M6.8670 0.6260
L6.8610 0.5900
" />
<path d="M6.8670 0.6260
L7.0250 0.4680
" />
<path d="M6.8670 7.1240
L6.5290 6.9790
" />
<path d="M6.8670 7.1240
L6.8670 0.6250
" />
<path d="M6.8670 7.1240
L7.0250 7.2820
" />
<path d="M6.8690 0.2800
L6.8320 0.2750
" />
<path d="M6.8690 7.4700
L6.9050 7.4580
" />
<path d="M6.9050 0.2920
L6.8690 0.2800
" />
<path d="M6.9050 7.4580
L6.9380 7.4400
" />
<path d="M6.9380 0.3100
L6.9050 0.2920
" />
<path d="M6.9380 7.4400
L6.9660 7.4160
" />
<path d="M6.9660 0.3340
L6.9380 0.3100
" />
<path d="M6.9660 7.4160
L6.9900 7.3880
" />
<path d="M6.9900 0.3620
L6.9660 0.3340
" />
<path d="M6.9900 7.3880
L7.0080 7.3550
" />
<path d="M7.0080 0.3950
L6.9900 0.3620
" />
<path d="M7.0080 7.3550
L7.0200 7.3190
" />
<path d="M7.0200 0.4310
L7.0080 0.3950
" />
<path d="M7.0200 7.3190
L7.0250 7.2820
" />
<path d="M7.0250 0.4680
L7.0200 0.4310
" />
<path d="M7.0250 0.4750
L7.0250 0.4680
" />
<path d="M7.0250 0.8000
L7.2940 0.8000
" />
<path d="M7.0250 1.1000
L7.0250 0.8000
" />
<path d="M7.0250 1.1000
L7.2940 1.1000
" />
<path d="M7.0250 1.4500
L7.2940 1.4500
" />
<path d="M7.0250 1.7500
L7.0250 1.4500
" />
<path d="M7.0250 1.7500
L7.2940 1.7500
" />
<path d="M7.0250 2.1000
L7.2940 2.1000
" />
<path d="M7.0250 2.4000
L7.0250 2.1000
" />
<path d="M7.0250 2.4000
L7.2940 2.4000
" />
<path d="M7.0250 2.7500
L7.2940 2.7500
" />
<path d="M7.0250 3.0500
L7.0250 2.7500
" />
<path d="M7.0250 3.0500
L7.2940 3.0500
" />
<path d="M7.0250 3.4000
L7.2940 3.4000
" />
<path d="M7.0250 3.7000
L7.0250 3.4000
" />
<path d="M7.0250 3.7000
L7.2940 3.7000
" />
<path d="M7.0250 4.0500
L7.2940 4.0500
" />
<path d="M7.0250 4.3500
L7.0250 4.0500
" />
<path d="M7.0250 4.3500
L7.2940 4.3500
" />
<path d="M7.0250 4.7000
L7.2940 4.7000
" />
<path d="M7.0250 5.0000
L7.0250 4.7000
" />
<path d="M7.0250 5.0000
L7.2940 5.0000
" />
<path d="M7.0250 5.3500
L7.2940 5.3500
" />
<path d="M7.0250 5.6500
L7.0250 5.3500
" />
<path d="M7.0250 5.6500
L7.2940 5.6500
" />
<path d="M7.0250 6.0000
L7.2940 6.0000
" />
<path d="M7.0250 6.3000
L7.0250 6.0000
" />
<path d="M7.0250 6.3000
L7.2940 6.3000
" />
<path d="M7.0250 6.6500
L7.2940 6.6500
" />
<path d="M7.0250 6.9500
L7.0250 6.6500
" />
<path d="M7.0250 6.9500
L7.2940 6.9500
" />
<path d="M7.0250 7.2750
L7.0250 0.4750
" />
<path d="M7.0250 7.2820
L7.0250 7.2750
" />
<path d="M7.2940 0.8000
L7.2940 1.1000
" />
<path d="M7.2940 0.8000
L7.5900 0.8000
" />
<path d="M7.2940 1.4500
L7.2940 1.7500
" />
<path d="M7.2940 1.4500
L7.5900 1.4500
" />
<path d="M7.2940 2.1000
L7.2940 2.4000
" />
<path d="M7.2940 2.1000
L7.5900 2.1000
" />
<path d="M7.2940 2.7500
L7.2940 3.0500
" />
<path d="M7.2940 2.7500
L7.5900 2.7500
" />
<path d="M7.2940 3.4000
L7.2940 3.7000
" />
<path d="M7.2940 3.4000
L7.5900 3.4000
" />
<path d="M7.2940 4.0500
L7.2940 4.3500
" />
<path d="M7.2940 4.0500
L7.5900 4.0500
" />
<path d="M7.2940 4.7000
L7.2940 5.0000
" />
<path d="M7.2940 4.7000
L7.5900 4.7000
" />
<path d="M7.2940 5.3500
L7.2940 5.6500
" />
<path d="M7.2940 5.3500
L7.5900 5.3500
" />
<path d="M7.2940 6.0000
L7.2940 6.3000
" />
<path d="M7.2940 6.0000
L7.5900 6.0000
" />
<path d="M7.2940 6.6500
L7.2940 6.9500
" />
<path d="M7.2940 6.6500
L7.5900 6.6500
" />
<path d="M7.5900 0.8000
L7.5900 1.1000
" />
<path d="M7.5900 1.1000
L7.2940 1.1000
" />
<path d="M7.5900 1.1000
L7.6680 1.1000
" />
<path d="M7.5900 1.4500
L7.5900 1.7500
" />
<path d="M7.5900 1.7500
L7.2940 1.7500
" />
<path d="M7.5900 1.7500
L7.6680 1.7500
" />
<path d="M7.5900 2.1000
L7.5900 2.4000
" />
<path d="M7.5900 2.4000
L7.2940 2.4000
" />
<path d="M7.5900 2.4000
L7.6680 2.4000
" />
<path d="M7.5900 2.7500
L7.5900 3.0500
" />
<path d="M7.5900 3.0500
L7.2940 3.0500
" />
<path d="M7.5900 3.0500
L7.6680 3.0500
" />
<path d="M7.5900 3.4000
L7.5900 3.7000
" />
<path d="M7.5900 3.7000
L7.2940 3.7000
" />
<path d="M7.5900 3.7000
L7.6680 3.7000
" />
<path d="M7.5900 4.0500
L7.5900 4.3500
" />
<path d="M7.5900 4.3500
L7.2940 4.3500
" />
<path d="M7.5900 4.3500
L7.6680 4.3500
" />
<path d="M7.5900 4.7000
L7.5900 5.0000
" />
<path d="M7.5900 5.0000
L7.2940 5.0000
" />
<path d="M7.5900 5.0000
L7.6680 5.0000
" />
<path d="M7.5900 5.3500
L7.5900 5.6500
" />
<path d="M7.5900 5.6500
L7.2940 5.6500
" />
<path d="M7.5900 5.6500
L7.6680 5.6500
" />
<path d="M7.5900 6.0000
L7.5900 6.3000
" />
<path d="M7.5900 6.3000
L7.2940 6.3000
" />
<path d="M7.5900 6.3000
L7.6680 6.3000
" />
<path d="M7.5900 6.6500
L7.5900 6.9500
" />
<path d="M7.5900 6.9500
L7.2940 6.9500
" />
<path d="M7.5900 6.9500
L7.6680 6.9500
" />
<path d="M7.6680 0.8000
L7.5900 0.8000
" />
<path d="M7.6680 0.8000
L7.8050 0.8000
" />
<path d="M7.6680 1.1000
L7.6680 0.8000
" />
<path d="M7.6680 1.4500
L7.5900 1.4500
" />
<path d="M7.6680 1.4500
L7.8050 1.4500
" />
<path d="M7.6680 1.7500
L7.6680 1.4500
" />
<path d="M7.6680 2.1000
L7.5900 2.1000
" />
<path d="M7.6680 2.1000
L7.8050 2.1000
" />
<path d="M7.6680 2.4000
L7.6680 2.1000
" />
<path d="M7.6680 2.7500
L7.5900 2.7500
" />
<path d="M7.6680 2.7500
L7.8050 2.7500
" />
<path d="M7.6680 3.0500
L7.6680 2.7500
" />
<path d="M7.6680 3.4000
L7.5900 3.4000
" />
<path d="M7.6680 3.4000
L7.8050 3.4000
" />
<path d="M7.6680 3.7000
L7.6680 3.4000
" />
<path d="M7.6680 4.0500
L7.5900 4.0500
" />
<path d="M7.6680 4.0500
L7.8050 4.0500
" />
<path d="M7.6680 4.3500
L7.6680 4.0500
" />
<path d="M7.6680 4.7000
L7.5900 4.7000
" />
<path d="M7.6680 4.7000
L7.8050 4.7000
" />
<path d="M7.6680 5.0000
L7.6680 4.7000
" />
<path d="M7.6680 5.3500
L7.5900 5.3500
" />
<path d="M7.6680 5.3500
L7.8050 5.3500
" />
<path d="M7.6680 5.6500
L7.6680 5.3500
" />
<path d="M7.6680 6.0000
L7.5900 6.0000
" />
<path d="M7.6680 6.0000
L7.8050 6.0000
" />
<path d="M7.6680 6.3000
L7.6680 6.0000
" />
<path d="M7.6680 6.6500
L7.5900 6.6500
" />
<path d="M7.6680 6.6500
L7.8050 6.6500
" />
<path d="M7.6680 6.9500
L7.6680 6.6500
" />
<path d="M7.8050 0.8000
L8.2750 0.8000
" />
<path d="M7.8050 1.1000
L7.6680 1.1000
" />
<path d="M7.8050 1.1000
L7.8050 0.8000
" />
<path d="M7.8050 1.1000
L8.2750 1.1000
" />
<path d="M7.8050 1.4500
L8.2750 1.4500
" />
<path d="M7.8050 1.7500
L7.6680 1.7500
" />
<path d="M7.8050 1.7500
L7.8050 1.4500
" />
<path d="M7.8050 1.7500
L8.2750 1.7500
" />
<path d="M7.8050 2.1000
L8.2750 2.1000
" />
<path d="M7.8050 2.4000
L7.6680 2.4000
" />
<path d="M7.8050 2.4000
L7.8050 2.1000
" />
<path d="M7.8050 2.4000
L8.2750 2.4000
" />
<path d="M7.8050 2.7500
L8.2750 2.7500
" />
<path d="M7.8050 3.0500
L7.6680 3.0500
" />
<path d="M7.8050 3.0500
L7.8050 2.7500
" />
<path d="M7.8050 3.0500
L8.2750 3.0500
" />
<path d="M7.8050 3.4000
L8.2750 3.4000
" />
<path d="M7.8050 3.7000
L7.6680 3.7000
" />
<path d="M7.8050 3.7000
L7.8050 3.4000
" />
<path d="M7.8050 3.7000
L8.2750 3.7000
" />
<path d="M7.8050 4.0500
L8.2750 4.0500
" />
<path d="M7.8050 4.3500
L7.6680 4.3500
" />
<path d="M7.8050 4.3500
L7.8050 4.0500
" />
<path d="M7.8050 4.3500
L8.2750 4.3500
" />
<path d="M7.8050 4.7000
L8.2750 4.7000
" />
<path d="M7.8050 5.0000
L7.6680 5.0000
" />
<path d="M7.8050 5.0000
L7.8050 4.7000
" />
<path d="M7.8050 5.0000
L8.2750 5.0000
" />
<path d="M7.8050 5.3500
L8.2750 5.3500
" />
<path d="M7.8050 5.6500
L7.6680 5.6500
" />
<path d="M7.8050 5.6500
L7.8050 5.3500
" />
<path d="M7.8050 5.6500
L8.2750 5.6500
" />
<path d="M7.8050 6.0000
L8.2750 6.0000
" />
<path d="M7.8050 6.3000
L7.6680 6.3000
" />
<path d="M7.8050 6.3000
L7.8050 6.0000
" />
<path d="M7.8050 6.3000
L8.2750 6.3000
" />
<path d="M7.8050 6.6500
L8.2750 6.6500
" />
<path d="M7.8050 6.9500
L7.6680 6.9500
" />
<path d="M7.8050 6.9500
L7.8050 6.6500
" />
<path d="M7.8050 6.9500
L8.2750 6.9500
" />
<path d="M8.2750 1.1000
L8.2750 0.8000
" />
<path d="M8.2750 1.7500
L8.2750 1.4500
" />
<path d="M8.2750 2.4000
L8.2750 2.1000
" />
<path d="M8.2750 3.0500
L8.2750 2.7500
" />
<path d="M8.2750 3.7000
L8.2750 3.4000
" />
<path d="M8.2750 4.3500
L8.2750 4.0500
" />
<path d="M8.2750 5.0000
L8.2750 4.7000
" />
<path d="M8.2750 5.6500
L8.2750 5.3500
" />
<path d="M8.2750 6.3000
L8.2750 6.0000
" />
<path d="M8.2750 6.9500
L8.2750 6.6500
" />
</g> 
</svg>
