<?xml version="1.0" standalone="no"?>
 <!DOCTYPE svg PUBLIC "-//W3C//DTD SVG 1.1//EN" 
 "http://www.w3.org/Graphics/SVG/1.1/DTD/svg11.dtd"> 
<svg
  xmlns:svg="http://www.w3.org/2000/svg"
  xmlns="http://www.w3.org/2000/svg"
  xmlns:xlink="http://www.w3.org/1999/xlink"
  version="1.1"
  width="5.4102mm" height="3.6322mm" viewBox="0.0000 0.0000 5.4102 3.6322">
<title>SVG Image created as outline.svg date 2025/06/16 09:17:38 </title>
  <desc>Image generated by PCBNEW </desc>
<g style="fill:#000000; fill-opacity:1.0000;stroke:#000000; stroke-opacity:1.0000;
stroke-linecap:round; stroke-linejoin:round;"
 transform="translate(0 0) scale(1 1)">
</g>
<g style="fill:none; 
stroke:#000000; stroke-width:0.0200; stroke-opacity:1; 
stroke-linecap:round; stroke-linejoin:round;">
<path d="M0.4250 0.4750
L0.4250 1.0240
" />
<path d="M0.4250 0.4750
L0.5230 0.4750
" />
<path d="M0.4250 1.0240
L0.5230 1.0240
" />
<path d="M0.4250 2.6260
L0.4250 3.1760
" />
<path d="M0.4250 2.6260
L0.5230 2.6260
" />
<path d="M0.4250 3.1760
L0.5230 3.1760
" />
<path d="M0.5230 1.0240
L0.5230 0.4750
" />
<path d="M0.5230 1.0240
L0.6130 1.0240
" />
<path d="M0.5230 3.1760
L0.5230 2.6260
" />
<path d="M0.5230 3.1760
L0.6130 3.1760
" />
<path d="M0.6130 0.4140
L0.6140 0.4040
" />
<path d="M0.6130 0.4250
L0.6130 0.4140
" />
<path d="M0.6130 0.4250
L0.6130 1.4240
" />
<path d="M0.6130 0.4750
L0.5230 0.4750
" />
<path d="M0.6130 1.4240
L0.6130 2.2260
" />
<path d="M0.6130 2.2260
L0.6130 3.2240
" />
<path d="M0.6130 2.2260
L1.8120 3.4260
" />
<path d="M0.6130 2.6260
L0.5230 2.6260
" />
<path d="M0.6130 3.2350
L0.6130 3.2240
" />
<path d="M0.6140 0.4040
L0.6160 0.3940
" />
<path d="M0.6140 3.2450
L0.6130 3.2350
" />
<path d="M0.6160 0.3940
L0.6170 0.3840
" />
<path d="M0.6160 3.2550
L0.6140 3.2450
" />
<path d="M0.6170 0.3840
L0.6200 0.3760
" />
<path d="M0.6170 3.2650
L0.6160 3.2550
" />
<path d="M0.6200 0.3760
L0.6210 0.3660
" />
<path d="M0.6200 3.2750
L0.6170 3.2650
" />
<path d="M0.6210 0.3660
L0.6250 0.3560
" />
<path d="M0.6210 3.2850
L0.6200 3.2750
" />
<path d="M0.6250 0.3560
L0.6290 0.3480
" />
<path d="M0.6250 3.2930
L0.6210 3.2850
" />
<path d="M0.6290 0.3480
L0.6330 0.3380
" />
<path d="M0.6290 3.3030
L0.6250 3.2930
" />
<path d="M0.6330 0.3380
L0.6370 0.3300
" />
<path d="M0.6330 3.3110
L0.6290 3.3030
" />
<path d="M0.6370 0.3300
L0.6410 0.3220
" />
<path d="M0.6370 3.3210
L0.6330 3.3110
" />
<path d="M0.6410 0.3220
L0.6480 0.3140
" />
<path d="M0.6410 3.3290
L0.6370 3.3210
" />
<path d="M0.6480 0.3140
L0.6530 0.3060
" />
<path d="M0.6480 3.3370
L0.6410 3.3290
" />
<path d="M0.6530 0.3060
L0.6580 0.2980
" />
<path d="M0.6530 3.3450
L0.6480 3.3370
" />
<path d="M0.6580 0.2980
L0.6650 0.2900
" />
<path d="M0.6580 3.3530
L0.6530 3.3450
" />
<path d="M0.6640 2.2760
L0.6640 1.3740
" />
<path d="M0.6650 0.2900
L0.6710 0.2830
" />
<path d="M0.6650 3.3590
L0.6580 3.3530
" />
<path d="M0.6710 0.2830
L0.6780 0.2770
" />
<path d="M0.6710 3.3660
L0.6650 3.3590
" />
<path d="M0.6780 0.2770
L0.6860 0.2710
" />
<path d="M0.6780 3.3740
L0.6710 3.3660
" />
<path d="M0.6860 0.2710
L0.6940 0.2650
" />
<path d="M0.6860 3.3800
L0.6780 3.3740
" />
<path d="M0.6940 0.2650
L0.7020 0.2590
" />
<path d="M0.6940 3.3860
L0.6860 3.3800
" />
<path d="M0.7020 0.2590
L0.7100 0.2530
" />
<path d="M0.7020 3.3900
L0.6940 3.3860
" />
<path d="M0.7100 0.2530
L0.7180 0.2490
" />
<path d="M0.7100 3.3960
L0.7020 3.3900
" />
<path d="M0.7180 0.2490
L0.7260 0.2450
" />
<path d="M0.7180 3.4000
L0.7100 3.3960
" />
<path d="M0.7260 0.2450
L0.7360 0.2410
" />
<path d="M0.7260 3.4060
L0.7180 3.4000
" />
<path d="M0.7360 0.2410
L0.7440 0.2370
" />
<path d="M0.7360 3.4100
L0.7260 3.4060
" />
<path d="M0.7440 0.2370
L0.7540 0.2330
" />
<path d="M0.7440 3.4120
L0.7360 3.4100
" />
<path d="M0.7540 0.2330
L0.7640 0.2310
" />
<path d="M0.7540 3.4160
L0.7440 3.4120
" />
<path d="M0.7640 0.2310
L0.7720 0.2290
" />
<path d="M0.7640 3.4180
L0.7540 3.4160
" />
<path d="M0.7720 0.2290
L0.7820 0.2270
" />
<path d="M0.7720 3.4200
L0.7640 3.4180
" />
<path d="M0.7820 0.2270
L0.7920 0.2270
" />
<path d="M0.7820 3.4220
L0.7720 3.4200
" />
<path d="M0.7920 0.2270
L0.8030 0.2250
" />
<path d="M0.7920 3.4240
L0.7820 3.4220
" />
<path d="M0.8030 0.2250
L0.8130 0.2250
" />
<path d="M0.8030 3.4240
L0.7920 3.4240
" />
<path d="M0.8130 3.4260
L0.8030 3.4240
" />
<path d="M0.8130 3.4260
L1.8120 3.4260
" />
<path d="M1.1130 1.8260
L1.1150 1.9020
" />
<path d="M1.1150 1.7480
L1.1130 1.8260
" />
<path d="M1.1150 1.9020
L1.1230 1.9800
" />
<path d="M1.1230 1.6700
L1.1150 1.7480
" />
<path d="M1.1230 1.9800
L1.1350 2.0570
" />
<path d="M1.1350 1.5930
L1.1230 1.6700
" />
<path d="M1.1350 2.0570
L1.1530 2.1330
" />
<path d="M1.1530 1.5170
L1.1350 1.5930
" />
<path d="M1.1530 2.1330
L1.1750 2.2080
" />
<path d="M1.1750 1.4420
L1.1530 1.5170
" />
<path d="M1.1750 2.2080
L1.2040 2.2830
" />
<path d="M1.2040 1.3670
L1.1750 1.4420
" />
<path d="M1.2040 2.2830
L1.2360 2.3550
" />
<path d="M1.2140 1.8260
L1.2160 1.7530
" />
<path d="M1.2160 1.7530
L1.2220 1.6820
" />
<path d="M1.2160 1.8970
L1.2140 1.8260
" />
<path d="M1.2220 1.6820
L1.2340 1.6130
" />
<path d="M1.2220 1.9680
L1.2160 1.8970
" />
<path d="M1.2340 1.6130
L1.2500 1.5420
" />
<path d="M1.2340 2.0370
L1.2220 1.9680
" />
<path d="M1.2360 1.2950
L1.2040 1.3670
" />
<path d="M1.2360 2.3550
L1.2740 2.4240
" />
<path d="M1.2500 1.5420
L1.2700 1.4740
" />
<path d="M1.2500 2.1080
L1.2340 2.0370
" />
<path d="M1.2700 1.4740
L1.2960 1.4070
" />
<path d="M1.2700 2.1770
L1.2500 2.1080
" />
<path d="M1.2740 1.2260
L1.2360 1.2950
" />
</g>
<g style="fill:#000000; fill-opacity:1.0000; stroke:none;">
<circle cx="1.2740" cy="1.2260" r="0.0100" /> 
<circle cx="1.2740" cy="2.4240" r="0.0100" /> 
</g>
<g style="fill:none; 
stroke:#000000; stroke-width:0.0200; stroke-opacity:1; 
stroke-linecap:round; stroke-linejoin:round;">
<path d="M1.2740 2.4240
L1.2940 2.4590
" />
<path d="M1.2940 2.4590
L1.3170 2.4930
" />
<path d="M1.2960 1.4070
L1.3250 1.3400
" />
<path d="M1.2960 2.2430
L1.2700 2.1770
" />
<path d="M1.3170 1.1570
L1.2740 1.2260
" />
<path d="M1.3170 2.4930
L1.3390 2.5260
" />
<path d="M1.3250 1.3400
L1.3610 1.2740
" />
<path d="M1.3250 2.3100
L1.2960 2.2430
" />
<path d="M1.3390 2.5260
L1.3630 2.5570
" />
</g>
<g style="fill:#000000; fill-opacity:1.0000; stroke:none;">
<circle cx="1.3610" cy="1.2740" r="0.0100" /> 
</g>
<g style="fill:none; 
stroke:#000000; stroke-width:0.0200; stroke-opacity:1; 
stroke-linecap:round; stroke-linejoin:round;">
<path d="M1.3610 1.2740
L1.3790 1.2440
" />
<path d="M1.3610 2.3760
L1.3250 2.3100
" />
</g>
<g style="fill:#000000; fill-opacity:1.0000; stroke:none;">
<circle cx="1.3610" cy="2.3760" r="0.0100" /> 
</g>
<g style="fill:none; 
stroke:#000000; stroke-width:0.0200; stroke-opacity:1; 
stroke-linecap:round; stroke-linejoin:round;">
<path d="M1.3630 1.0930
L1.3170 1.1570
" />
<path d="M1.3630 2.5570
L1.3870 2.5880
" />
<path d="M1.3790 1.2440
L1.3990 1.2130
" />
<path d="M1.3870 2.5880
L1.4130 2.6190
" />
<path d="M1.3990 1.2130
L1.4190 1.1820
" />
<path d="M1.3990 2.4370
L1.3610 2.3760
" />
<path d="M1.4130 1.0310
L1.3630 1.0930
" />
<path d="M1.4130 2.6190
L1.4380 2.6480
" />
<path d="M1.4190 1.1820
L1.4420 1.1530
" />
<path d="M1.4380 2.6480
L1.4660 2.6750
" />
<path d="M1.4420 1.1530
L1.4640 1.1250
" />
<path d="M1.4420 2.4970
L1.3990 2.4370
" />
<path d="M1.4640 1.1250
L1.4880 1.0980
" />
<path d="M1.4660 0.9750
L1.4130 1.0310
" />
<path d="M1.4660 2.6750
L1.4940 2.7020
" />
<path d="M1.4880 1.0980
L1.5120 1.0720
" />
<path d="M1.4880 2.5520
L1.4420 2.4970
" />
<path d="M1.4940 2.7020
L1.5240 2.7290
" />
<path d="M1.5120 1.0720
L1.5360 1.0450
" />
<path d="M1.5240 0.9210
L1.4660 0.9750
" />
<path d="M1.5240 2.7290
L1.5540 2.7540
" />
<path d="M1.5360 1.0450
L1.5630 1.0200
" />
<path d="M1.5360 2.6050
L1.4880 2.5520
" />
<path d="M1.5540 2.7540
L1.5830 2.7790
" />
<path d="M1.5630 1.0200
L1.5890 0.9960
" />
<path d="M1.5830 0.8710
L1.5240 0.9210
" />
<path d="M1.5830 2.7790
L1.6150 2.8010
" />
<path d="M1.5890 0.9960
L1.6170 0.9740
" />
<path d="M1.5890 2.6540
L1.5360 2.6050
" />
<path d="M1.6150 2.8010
L1.6470 2.8230
" />
<path d="M1.6170 0.9740
L1.6450 0.9520
" />
<path d="M1.6450 0.9520
L1.6730 0.9310
" />
<path d="M1.6450 2.6980
L1.5890 2.6540
" />
<path d="M1.6470 0.8270
L1.5830 0.8710
" />
<path d="M1.6470 2.8230
L1.6790 2.8450
" />
<path d="M1.6730 0.9310
L1.7020 0.9090
" />
<path d="M1.6790 2.8450
L1.7140 2.8640
" />
<path d="M1.7020 0.9090
L1.7330 0.8900
" />
<path d="M1.7020 2.7410
L1.6450 2.6980
" />
<path d="M1.7140 0.7850
L1.6470 0.8270
" />
<path d="M1.7140 2.8640
L1.7470 2.8840
" />
<path d="M1.7330 0.8900
L1.7630 0.8720
" />
<path d="M1.7470 2.8840
L1.7810 2.9000
" />
<path d="M1.7630 0.2750
L3.6630 0.2750
" />
<path d="M1.7630 0.8720
L1.7940 0.8560
" />
<path d="M1.7630 2.7780
L1.7020 2.7410
" />
<path d="M1.7810 0.7490
L1.7140 0.7850
" />
<path d="M1.7810 2.9000
L1.8160 2.9180
" />
<path d="M1.7940 0.8560
L1.8260 0.8390
" />
<path d="M1.8120 0.2250
L0.6130 1.4240
" />
<path d="M1.8120 0.2250
L0.8130 0.2250
" />
<path d="M1.8120 3.4260
L3.6140 3.4260
" />
<path d="M1.8160 2.9180
L1.8530 2.9340
" />
<path d="M1.8260 0.8390
L1.8580 0.8240
" />
<path d="M1.8260 2.8110
L1.7630 2.7780
" />
<path d="M1.8530 0.7170
L1.7810 0.7490
" />
<path d="M1.8530 2.9340
L1.8880 2.9480
" />
<path d="M1.8580 0.8240
L1.8900 0.8100
" />
<path d="M1.8880 2.9480
L1.9250 2.9600
" />
<path d="M1.8900 0.8100
L1.9230 0.7970
" />
<path d="M1.8900 2.8410
L1.8260 2.8110
" />
<path d="M1.9230 0.7970
L1.9580 0.7850
" />
<path d="M1.9250 0.6890
L1.8530 0.7170
" />
<path d="M1.9250 2.9600
L1.9630 2.9720
" />
<path d="M1.9580 0.7850
L1.9920 0.7730
" />
<path d="M1.9580 2.8660
L1.8900 2.8410
" />
<path d="M1.9630 2.9720
L2.0000 2.9830
" />
<path d="M1.9920 0.7730
L2.0250 0.7630
" />
<path d="M2.0000 0.6660
L1.9250 0.6890
" />
<path d="M2.0000 2.9830
L2.0370 2.9930
" />
<path d="M2.0250 0.7630
L2.0600 0.7550
" />
<path d="M2.0250 2.8860
L1.9580 2.8660
" />
<path d="M2.0370 2.9930
L2.0770 3.0010
" />
<path d="M2.0600 0.7550
L2.0960 0.7470
" />
<path d="M2.0770 0.6480
L2.0000 0.6660
" />
<path d="M2.0770 3.0010
L2.1150 3.0090
" />
<path d="M2.0960 0.7470
L2.1320 0.7410
" />
<path d="M2.0960 2.9040
L2.0250 2.8860
" />
<path d="M2.1150 3.0090
L2.1540 3.0150
" />
<path d="M2.1320 0.7410
L2.1670 0.7350
" />
<path d="M2.1540 0.6360
L2.0770 0.6480
" />
<path d="M2.1540 3.0150
L2.1930 3.0190
" />
<path d="M2.1670 0.7350
L2.2040 0.7310
" />
<path d="M2.1670 2.9160
L2.0960 2.9040
" />
<path d="M2.1930 3.0190
L2.2340 3.0230
" />
<path d="M2.2040 0.7310
L2.2390 0.7270
" />
<path d="M2.2340 0.6280
L2.1540 0.6360
" />
<path d="M2.2340 3.0230
L2.2730 3.0250
" />
<path d="M2.2390 0.7270
L2.2770 0.7250
" />
<path d="M2.2390 2.9220
L2.1670 2.9160
" />
<path d="M2.2730 3.0250
L2.3120 3.0250
" />
<path d="M2.2770 0.7250
L2.3120 0.7250
" />
<path d="M2.3120 0.6260
L2.2340 0.6280
" />
<path d="M2.3120 0.7250
L3.1140 0.7250
" />
<path d="M2.3120 2.9260
L2.2390 2.9220
" />
<path d="M2.3120 2.9260
L3.1140 2.9260
" />
<path d="M2.3120 3.0250
L3.1140 3.0250
" />
<path d="M3.1140 0.6260
L2.3120 0.6260
" />
<path d="M3.1140 0.7250
L3.1870 0.7270
" />
<path d="M3.1140 2.9260
L2.3120 2.9260
" />
<path d="M3.1140 3.0250
L3.1930 3.0230
" />
<path d="M3.1490 2.9240
L3.1140 2.9260
" />
<path d="M3.1530 0.6260
L3.1140 0.6260
" />
<path d="M3.1870 0.7270
L3.2590 0.7350
" />
<path d="M3.1870 2.9220
L3.1490 2.9240
" />
<path d="M3.1930 0.6280
L3.1530 0.6260
" />
<path d="M3.1930 3.0230
L3.2720 3.0150
" />
<path d="M3.2220 2.9200
L3.1870 2.9220
" />
<path d="M3.2330 0.6300
L3.1930 0.6280
" />
<path d="M3.2590 0.7350
L3.3300 0.7470
" />
<path d="M3.2590 2.9160
L3.2220 2.9200
" />
<path d="M3.2720 0.6360
L3.2330 0.6300
" />
<path d="M3.2720 3.0150
L3.3490 3.0010
" />
<path d="M3.2940 2.9100
L3.2590 2.9160
" />
<path d="M3.3110 0.6420
L3.2720 0.6360
" />
<path d="M3.3300 0.7470
L3.4010 0.7630
" />
<path d="M3.3300 2.9040
L3.2940 2.9100
" />
<path d="M3.3490 0.6480
L3.3110 0.6420
" />
<path d="M3.3490 3.0010
L3.4260 2.9830
" />
<path d="M3.3660 2.8960
L3.3300 2.9040
" />
<path d="M3.3890 0.6560
L3.3490 0.6480
" />
<path d="M3.4010 0.7630
L3.4680 0.7850
" />
<path d="M3.4010 2.8860
L3.3660 2.8960
" />
<path d="M3.4260 0.6660
L3.3890 0.6560
" />
<path d="M3.4260 2.9830
L3.5010 2.9600
" />
<path d="M3.4340 2.8780
L3.4010 2.8860
" />
<path d="M3.4630 0.6770
L3.4260 0.6660
" />
<path d="M3.4680 0.7850
L3.5360 0.8100
" />
<path d="M3.4680 2.8660
L3.4340 2.8780
" />
<path d="M3.5010 0.6890
L3.4630 0.6770
" />
<path d="M3.5010 2.9600
L3.5730 2.9340
" />
<path d="M3.5030 2.8540
L3.4680 2.8660
" />
<path d="M3.5360 0.8100
L3.6000 0.8390
" />
<path d="M3.5360 2.8410
L3.5030 2.8540
" />
<path d="M3.5380 0.7030
L3.5010 0.6890
" />
<path d="M3.5680 2.8270
L3.5360 2.8410
" />
<path d="M3.5730 0.7170
L3.5380 0.7030
" />
<path d="M3.5730 2.9340
L3.6450 2.9000
" />
<path d="M3.6000 0.8390
L3.6630 0.8720
" />
<path d="M3.6000 2.8110
L3.5680 2.8270
" />
<path d="M3.6100 0.7330
L3.5730 0.7170
" />
<path d="M3.6140 0.2250
L1.8120 0.2250
" />
<path d="M3.6140 3.4260
L4.6120 3.4260
" />
<path d="M3.6140 3.4260
L4.8140 2.2260
" />
<path d="M3.6320 2.7940
L3.6000 2.8110
" />
<path d="M3.6450 0.7490
L3.6100 0.7330
" />
<path d="M3.6450 2.9000
L3.7120 2.8640
" />
<path d="M3.6630 0.8720
L3.7230 0.9090
" />
<path d="M3.6630 2.7780
L3.6320 2.7940
" />
<path d="M3.6630 3.3760
L1.7630 3.3760
" />
<path d="M3.6790 0.7670
L3.6450 0.7490
" />
<path d="M3.6930 2.7600
L3.6630 2.7780
" />
<path d="M3.7120 0.7850
L3.6790 0.7670
" />
<path d="M3.7120 2.8640
L3.7780 2.8230
" />
<path d="M3.7230 0.9090
L3.7820 0.9520
" />
<path d="M3.7230 2.7410
L3.6930 2.7600
" />
<path d="M3.7460 0.8060
L3.7120 0.7850
" />
<path d="M3.7520 2.7190
L3.7230 2.7410
" />
<path d="M3.7780 0.8270
L3.7460 0.8060
" />
<path d="M3.7780 2.8230
L3.8420 2.7790
" />
<path d="M3.7820 0.9520
L3.8360 0.9960
" />
<path d="M3.7820 2.6980
L3.7520 2.7190
" />
<path d="M3.8100 0.8490
L3.7780 0.8270
" />
<path d="M3.8100 2.6760
L3.7820 2.6980
" />
<path d="M3.8360 0.9960
L3.8890 1.0450
" />
<path d="M3.8360 2.6540
L3.8100 2.6760
" />
<path d="M3.8420 0.8710
L3.8100 0.8490
" />
<path d="M3.8420 2.7790
L3.9030 2.7290
" />
<path d="M3.8640 2.6300
L3.8360 2.6540
" />
<path d="M3.8730 0.8960
L3.8420 0.8710
" />
<path d="M3.8890 1.0450
L3.9390 1.0980
" />
<path d="M3.8890 2.6050
L3.8640 2.6300
" />
<path d="M3.9030 0.9210
L3.8730 0.8960
" />
<path d="M3.9030 2.7290
L3.9590 2.6750
" />
<path d="M3.9150 2.5780
L3.8890 2.6050
" />
<path d="M3.9310 0.9480
L3.9030 0.9210
" />
<path d="M3.9390 1.0980
L3.9850 1.1530
" />
<path d="M3.9390 2.5520
L3.9150 2.5780
" />
<path d="M3.9590 0.9750
L3.9310 0.9480
" />
<path d="M3.9590 2.6750
L4.0140 2.6190
" />
<path d="M3.9610 2.5250
L3.9390 2.5520
" />
<path d="M3.9850 1.1530
L4.0260 1.2130
" />
<path d="M3.9850 2.4970
L3.9610 2.5250
" />
<path d="M3.9870 1.0020
L3.9590 0.9750
" />
<path d="M4.0060 2.4680
L3.9850 2.4970
" />
<path d="M4.0140 1.0310
L3.9870 1.0020
" />
<path d="M4.0140 2.6190
L4.0640 2.5570
" />
<path d="M4.0260 1.2130
L4.0660 1.2740
" />
<path d="M4.0260 2.4370
L4.0060 2.4680
" />
<path d="M4.0400 1.0620
L4.0140 1.0310
" />
<path d="M4.0460 2.4060
L4.0260 2.4370
" />
<path d="M4.0640 1.0930
L4.0400 1.0620
" />
<path d="M4.0640 2.5570
L4.1100 2.4930
" />
</g>
<g style="fill:#000000; fill-opacity:1.0000; stroke:none;">
<circle cx="4.0660" cy="1.2740" r="0.0100" /> 
</g>
<g style="fill:none; 
stroke:#000000; stroke-width:0.0200; stroke-opacity:1; 
stroke-linecap:round; stroke-linejoin:round;">
<path d="M4.0660 1.2740
L4.1000 1.3400
" />
<path d="M4.0660 2.3760
L4.0460 2.4060
" />
</g>
<g style="fill:#000000; fill-opacity:1.0000; stroke:none;">
<circle cx="4.0660" cy="2.3760" r="0.0100" /> 
</g>
<g style="fill:none; 
stroke:#000000; stroke-width:0.0200; stroke-opacity:1; 
stroke-linecap:round; stroke-linejoin:round;">
<path d="M4.0880 1.1240
L4.0640 1.0930
" />
<path d="M4.1000 1.3400
L4.1310 1.4070
" />
<path d="M4.1000 2.3100
L4.0660 2.3760
" />
<path d="M4.1100 1.1570
L4.0880 1.1240
" />
<path d="M4.1100 2.4930
L4.1530 2.4240
" />
<path d="M4.1310 1.1910
L4.1100 1.1570
" />
<path d="M4.1310 1.4070
L4.1550 1.4740
" />
<path d="M4.1310 2.2430
L4.1000 2.3100
" />
<path d="M4.1530 1.2260
L4.1310 1.1910
" />
</g>
<g style="fill:#000000; fill-opacity:1.0000; stroke:none;">
<circle cx="4.1530" cy="1.2260" r="0.0100" /> 
<circle cx="4.1530" cy="2.4240" r="0.0100" /> 
</g>
<g style="fill:none; 
stroke:#000000; stroke-width:0.0200; stroke-opacity:1; 
stroke-linecap:round; stroke-linejoin:round;">
<path d="M4.1530 2.4240
L4.1890 2.3550
" />
<path d="M4.1550 1.4740
L4.1770 1.5420
" />
<path d="M4.1550 2.1770
L4.1310 2.2430
" />
<path d="M4.1770 1.5420
L4.1930 1.6130
" />
<path d="M4.1770 2.1080
L4.1550 2.1770
" />
<path d="M4.1890 1.2950
L4.1530 1.2260
" />
<path d="M4.1890 2.3550
L4.2230 2.2830
" />
<path d="M4.1930 1.6130
L4.2030 1.6820
" />
<path d="M4.1930 2.0370
L4.1770 2.1080
" />
<path d="M4.2030 1.6820
L4.2110 1.7530
" />
<path d="M4.2030 1.9680
L4.1930 2.0370
" />
<path d="M4.2110 1.7530
L4.2130 1.8260
" />
<path d="M4.2110 1.8970
L4.2030 1.9680
" />
<path d="M4.2130 1.8260
L4.2110 1.8970
" />
<path d="M4.2230 1.3670
L4.1890 1.2950
" />
<path d="M4.2230 2.2830
L4.2500 2.2080
" />
<path d="M4.2500 1.4420
L4.2230 1.3670
" />
<path d="M4.2500 2.2080
L4.2720 2.1330
" />
<path d="M4.2640 1.4820
L4.2640 2.1680
" />
<path d="M4.2720 1.5170
L4.2500 1.4420
" />
<path d="M4.2720 2.1330
L4.2900 2.0570
" />
<path d="M4.2900 1.5930
L4.2720 1.5170
" />
<path d="M4.2900 2.0570
L4.3020 1.9800
" />
<path d="M4.3020 1.6700
L4.2900 1.5930
" />
<path d="M4.3020 1.9800
L4.3100 1.9020
" />
<path d="M4.3100 1.7480
L4.3020 1.6700
" />
<path d="M4.3100 1.9020
L4.3140 1.8260
" />
<path d="M4.3140 1.8260
L4.3100 1.7480
" />
<path d="M4.6120 0.2250
L3.6140 0.2250
" />
<path d="M4.6120 0.2250
L4.6240 0.2250
" />
<path d="M4.6240 0.2250
L4.6330 0.2270
" />
<path d="M4.6240 3.4240
L4.6120 3.4260
" />
<path d="M4.6330 0.2270
L4.6430 0.2270
" />
<path d="M4.6330 3.4240
L4.6240 3.4240
" />
<path d="M4.6430 0.2270
L4.6530 0.2290
" />
<path d="M4.6430 3.4220
L4.6330 3.4240
" />
<path d="M4.6530 0.2290
L4.6630 0.2310
" />
<path d="M4.6530 3.4200
L4.6430 3.4220
" />
<path d="M4.6630 0.2310
L4.6730 0.2330
" />
<path d="M4.6630 3.4180
L4.6530 3.4200
" />
<path d="M4.6730 0.2330
L4.6810 0.2370
" />
<path d="M4.6730 3.4160
L4.6630 3.4180
" />
<path d="M4.6810 0.2370
L4.6910 0.2410
" />
<path d="M4.6810 3.4120
L4.6730 3.4160
" />
<path d="M4.6910 0.2410
L4.6990 0.2450
" />
<path d="M4.6910 3.4100
L4.6810 3.4120
" />
<path d="M4.6990 0.2450
L4.7090 0.2490
" />
<path d="M4.6990 3.4060
L4.6910 3.4100
" />
<path d="M4.7090 0.2490
L4.7170 0.2530
" />
<path d="M4.7090 3.4000
L4.6990 3.4060
" />
<path d="M4.7170 0.2530
L4.7250 0.2590
" />
<path d="M4.7170 3.3960
L4.7090 3.4000
" />
<path d="M4.7250 0.2590
L4.7330 0.2650
" />
<path d="M4.7250 3.3900
L4.7170 3.3960
" />
<path d="M4.7330 0.2650
L4.7410 0.2710
" />
<path d="M4.7330 3.3860
L4.7250 3.3900
" />
<path d="M4.7410 0.2710
L4.7480 0.2770
" />
<path d="M4.7410 3.3800
L4.7330 3.3860
" />
<path d="M4.7480 0.2770
L4.7540 0.2830
" />
<path d="M4.7480 3.3740
L4.7410 3.3800
" />
<path d="M4.7540 0.2830
L4.7620 0.2900
" />
<path d="M4.7540 3.3660
L4.7480 3.3740
" />
<path d="M4.7620 0.2900
L4.7670 0.2980
" />
<path d="M4.7620 1.3740
L4.7620 2.2760
" />
<path d="M4.7620 3.3590
L4.7540 3.3660
" />
<path d="M4.7670 0.2980
L4.7740 0.3060
" />
<path d="M4.7670 3.3530
L4.7620 3.3590
" />
<path d="M4.7740 0.3060
L4.7780 0.3140
" />
<path d="M4.7740 3.3450
L4.7670 3.3530
" />
<path d="M4.7780 0.3140
L4.7850 0.3220
" />
<path d="M4.7780 3.3370
L4.7740 3.3450
" />
<path d="M4.7850 0.3220
L4.7890 0.3300
" />
<path d="M4.7850 3.3290
L4.7780 3.3370
" />
<path d="M4.7890 0.3300
L4.7940 0.3380
" />
<path d="M4.7890 3.3210
L4.7850 3.3290
" />
<path d="M4.7940 0.3380
L4.7980 0.3480
" />
<path d="M4.7940 3.3110
L4.7890 3.3210
" />
<path d="M4.7980 0.3480
L4.8010 0.3560
" />
<path d="M4.7980 3.3030
L4.7940 3.3110
" />
<path d="M4.8010 0.3560
L4.8050 0.3660
" />
<path d="M4.8010 3.2930
L4.7980 3.3030
" />
<path d="M4.8050 0.3660
L4.8060 0.3760
" />
<path d="M4.8050 3.2850
L4.8010 3.2930
" />
<path d="M4.8060 0.3760
L4.8090 0.3840
" />
<path d="M4.8060 3.2750
L4.8050 3.2850
" />
<path d="M4.8090 0.3840
L4.8100 0.3940
" />
<path d="M4.8090 3.2650
L4.8060 3.2750
" />
<path d="M4.8100 0.3940
L4.8110 0.4040
" />
<path d="M4.8100 3.2550
L4.8090 3.2650
" />
<path d="M4.8110 0.4040
L4.8130 0.4140
" />
<path d="M4.8110 3.2450
L4.8100 3.2550
" />
<path d="M4.8130 0.4140
L4.8140 0.4250
" />
<path d="M4.8130 3.2350
L4.8110 3.2450
" />
<path d="M4.8140 1.0240
L4.9030 1.0240
" />
<path d="M4.8140 1.4240
L3.6140 0.2250
" />
<path d="M4.8140 1.4240
L4.8140 0.4250
" />
<path d="M4.8140 2.2260
L4.8140 1.4240
" />
<path d="M4.8140 3.1760
L4.9030 3.1760
" />
<path d="M4.8140 3.2240
L4.8130 3.2350
" />
<path d="M4.8140 3.2240
L4.8140 2.2260
" />
<path d="M4.9030 0.4750
L4.8140 0.4750
" />
<path d="M4.9030 0.4750
L4.9030 1.0240
" />
<path d="M4.9030 0.4750
L5.0000 0.4750
" />
<path d="M4.9030 1.0240
L5.0000 1.0240
" />
<path d="M4.9030 2.6260
L4.8140 2.6260
" />
<path d="M4.9030 2.6260
L4.9030 3.1760
" />
<path d="M4.9030 2.6260
L5.0000 2.6260
" />
<path d="M4.9030 3.1760
L5.0000 3.1760
" />
<path d="M5.0000 1.0240
L5.0000 0.4750
" />
<path d="M5.0000 3.1760
L5.0000 2.6260
" />
</g> 
</svg>
