<?xml version="1.0" standalone="no"?>
 <!DOCTYPE svg PUBLIC "-//W3C//DTD SVG 1.1//EN" 
 "http://www.w3.org/Graphics/SVG/1.1/DTD/svg11.dtd"> 
<svg
  xmlns:svg="http://www.w3.org/2000/svg"
  xmlns="http://www.w3.org/2000/svg"
  xmlns:xlink="http://www.w3.org/1999/xlink"
  version="1.1"
  width="8.5344mm" height="4.3688mm" viewBox="0.0000 0.0000 8.5344 4.3688">
<title>SVG Image created as outline.svg date 2025/04/04 10:06:15 </title>
  <desc>Image generated by PCBNEW </desc>
<g style="fill:#000000; fill-opacity:1.0000;stroke:#000000; stroke-opacity:1.0000;
stroke-linecap:round; stroke-linejoin:round;"
 transform="translate(0 0) scale(1 1)">
</g>
<g style="fill:none; 
stroke:#000000; stroke-width:0.0200; stroke-opacity:1; 
stroke-linecap:round; stroke-linejoin:round;">
<path d="M0.6250 2.6900
L0.6250 1.7000
" />
<path d="M0.6250 2.6900
L1.2750 2.6900
" />
<path d="M1.2600 0.3950
L1.4600 0.3950
" />
<path d="M1.2600 0.3950
L1.8750 0.3950
" />
<path d="M1.2600 0.4950
L1.2600 0.3950
" />
<path d="M1.2600 1.7000
L0.6250 1.7000
" />
<path d="M1.2600 2.2950
L1.2600 0.4950
" />
<path d="M1.2600 2.6950
L1.3750 2.6950
" />
<path d="M1.2600 3.2950
L1.2600 2.6950
" />
<path d="M1.2600 3.6950
L1.3750 3.6950
" />
<path d="M1.2600 3.8950
L1.2600 3.6950
" />
<path d="M1.2600 3.9950
L1.2600 3.8950
" />
<path d="M1.2600 3.9950
L1.8750 3.9950
" />
<path d="M1.2750 2.2950
L1.2750 2.6950
" />
<path d="M1.2750 3.4950
L1.2750 3.6950
" />
<path d="M1.2750 3.4950
L1.2878 3.4947
" />
<path d="M1.2878 3.4947
L1.3005 3.4939
" />
<path d="M1.3005 3.4939
L1.3131 3.4926
" />
<path d="M1.3131 3.4926
L1.3257 3.4907
" />
<path d="M1.3257 3.4907
L1.3382 3.4883
" />
<path d="M1.3382 3.4883
L1.3506 3.4853
" />
<path d="M1.3506 3.4853
L1.3629 3.4818
" />
<path d="M1.3629 3.4818
L1.3750 3.4778
" />
<path d="M1.3750 2.2950
L1.2600 2.2950
" />
<path d="M1.3750 2.6950
L1.3750 2.2950
" />
<path d="M1.3750 3.2950
L1.2600 3.2950
" />
<path d="M1.3750 3.6950
L1.3750 3.2950
" />
<path d="M1.4600 3.9950
L1.2600 3.9950
" />
<path d="M1.8750 0.3950
L1.9150 0.3950
" />
<path d="M1.8750 0.4950
L1.8750 0.3950
" />
<path d="M1.8750 3.8950
L3.5750 3.8950
" />
<path d="M1.8750 3.9950
L1.8750 3.8950
" />
<path d="M1.9150 0.2750
L3.1250 0.2750
" />
<path d="M1.9150 0.3336
L1.9150 0.2750
" />
<path d="M1.9150 0.3336
L1.9150 0.4950
" />
<path d="M1.9150 3.8950
L1.9150 4.0564
" />
<path d="M1.9150 3.9950
L1.8750 3.9950
" />
<path d="M1.9150 4.1150
L1.9150 4.0564
" />
<path d="M1.9750 3.8950
L1.9752 3.9012
" />
<path d="M1.9752 0.4888
L1.9750 0.4950
" />
<path d="M1.9752 3.9012
L1.9756 3.9074
" />
<path d="M1.9756 0.4826
L1.9752 0.4888
" />
<path d="M1.9756 3.9074
L1.9764 3.9135
" />
<path d="M1.9764 0.4765
L1.9756 0.4826
" />
<path d="M1.9764 3.9135
L1.9774 3.9195
" />
<path d="M1.9774 0.4705
L1.9764 0.4765
" />
<path d="M1.9774 3.9195
L1.9788 3.9255
" />
<path d="M1.9788 0.4645
L1.9774 0.4705
" />
<path d="M1.9788 3.9255
L1.9804 3.9314
" />
<path d="M1.9804 0.4586
L1.9788 0.4645
" />
<path d="M1.9804 3.9314
L1.9823 3.9371
" />
<path d="M1.9823 0.4529
L1.9804 0.4586
" />
<path d="M1.9823 3.9371
L1.9845 3.9428
" />
<path d="M1.9845 0.4472
L1.9823 0.4529
" />
<path d="M1.9845 3.9428
L1.9870 3.9484
" />
<path d="M1.9870 0.4416
L1.9845 0.4472
" />
<path d="M1.9870 3.9484
L1.9897 3.9539
" />
<path d="M1.9897 0.4361
L1.9870 0.4416
" />
<path d="M1.9897 3.9539
L1.9927 3.9592
" />
<path d="M1.9927 0.4308
L1.9897 0.4361
" />
<path d="M1.9927 3.9592
L1.9960 3.9644
" />
<path d="M1.9960 0.4256
L1.9927 0.4308
" />
<path d="M1.9960 3.9644
L1.9995 3.9694
" />
<path d="M1.9995 0.4206
L1.9960 0.4256
" />
<path d="M1.9995 3.9694
L2.0033 3.9742
" />
<path d="M2.0033 0.4158
L1.9995 0.4206
" />
<path d="M2.0033 3.9742
L2.0073 3.9789
" />
<path d="M2.0073 0.4111
L2.0033 0.4158
" />
<path d="M2.0073 3.9789
L2.0116 3.9834
" />
<path d="M2.0116 0.4066
L2.0073 0.4111
" />
</g>
<g style="fill:#000000; fill-opacity:1.0000; stroke:none;">
<circle cx="2.0116" cy="0.4066" r="0.0100" /> 
<circle cx="2.0116" cy="3.9834" r="0.0100" /> 
</g>
<g style="fill:none; 
stroke:#000000; stroke-width:0.0200; stroke-opacity:1; 
stroke-linecap:round; stroke-linejoin:round;">
<path d="M2.0116 3.9834
L2.0161 3.9877
" />
<path d="M2.0161 0.4023
L2.0116 0.4066
" />
<path d="M2.0161 3.9877
L2.0208 3.9917
" />
<path d="M2.0208 0.3983
L2.0161 0.4023
" />
<path d="M2.0208 3.9917
L2.0256 3.9955
" />
<path d="M2.0256 0.3945
L2.0208 0.3983
" />
<path d="M2.0256 3.9955
L2.0307 3.9990
" />
<path d="M2.0307 0.3910
L2.0256 0.3945
" />
<path d="M2.0307 3.9990
L2.0358 4.0023
" />
<path d="M2.0358 0.3877
L2.0307 0.3910
" />
<path d="M2.0358 4.0023
L2.0411 4.0053
" />
<path d="M2.0411 0.3847
L2.0358 0.3877
" />
<path d="M2.0411 4.0053
L2.0466 4.0080
" />
<path d="M2.0466 0.3820
L2.0411 0.3847
" />
<path d="M2.0466 4.0080
L2.0522 4.0105
" />
<path d="M2.0522 0.3795
L2.0466 0.3820
" />
<path d="M2.0522 4.0105
L2.0579 4.0127
" />
<path d="M2.0579 0.3773
L2.0522 0.3795
" />
<path d="M2.0579 4.0127
L2.0636 4.0146
" />
<path d="M2.0636 0.3754
L2.0579 0.3773
" />
<path d="M2.0636 4.0146
L2.0695 4.0162
" />
<path d="M2.0695 0.3738
L2.0636 0.3754
" />
<path d="M2.0695 4.0162
L2.0755 4.0176
" />
<path d="M2.0755 0.3724
L2.0695 0.3738
" />
<path d="M2.0755 4.0176
L2.0815 4.0186
" />
<path d="M2.0815 0.3714
L2.0755 0.3724
" />
<path d="M2.0815 4.0186
L2.0876 4.0194
" />
<path d="M2.0876 0.3706
L2.0815 0.3714
" />
<path d="M2.0876 4.0194
L2.0938 4.0198
" />
<path d="M2.0938 0.3702
L2.0876 0.3706
" />
<path d="M2.0938 4.0198
L2.1000 4.0200
" />
<path d="M2.1000 0.3700
L2.0938 0.3702
" />
<path d="M2.1000 0.3700
L3.4000 0.3700
" />
<path d="M3.1250 0.2750
L3.1250 0.3336
" />
<path d="M3.1250 0.3336
L3.1250 0.3700
" />
<path d="M3.1250 4.0200
L3.1250 4.0564
" />
<path d="M3.1250 4.0564
L3.1250 4.1150
" />
<path d="M3.1250 4.1150
L1.9150 4.1150
" />
<path d="M3.1750 2.1950
L3.1765 2.2516
" />
<path d="M3.1765 2.1384
L3.1750 2.1950
" />
<path d="M3.1765 2.2516
L3.1807 2.3074
" />
<path d="M3.1807 2.0826
L3.1765 2.1384
" />
<path d="M3.1807 2.3074
L3.1877 2.3625
" />
<path d="M3.1877 2.0275
L3.1807 2.0826
" />
<path d="M3.1877 2.3625
L3.1974 2.4166
" />
<path d="M3.1974 1.9734
L3.1877 2.0275
" />
<path d="M3.1974 2.4166
L3.2097 2.4698
" />
<path d="M3.2097 1.9202
L3.1974 1.9734
" />
<path d="M3.2097 2.4698
L3.2246 2.5220
" />
<path d="M3.2246 1.8680
L3.2097 1.9202
" />
<path d="M3.2246 2.5220
L3.2419 2.5731
" />
<path d="M3.2419 1.8169
L3.2246 1.8680
" />
<path d="M3.2419 2.5731
L3.2616 2.6230
" />
<path d="M3.2616 1.7670
L3.2419 1.8169
" />
<path d="M3.2616 2.6230
L3.2836 2.6717
" />
<path d="M3.2836 1.7183
L3.2616 1.7670
" />
<path d="M3.2836 2.6717
L3.3079 2.7191
" />
<path d="M3.3079 1.6709
L3.2836 1.7183
" />
<path d="M3.3079 2.7191
L3.3344 2.7651
" />
</g>
<g style="fill:#000000; fill-opacity:1.0000; stroke:none;">
<circle cx="3.3250" cy="2.1950" r="0.0100" /> 
</g>
<g style="fill:none; 
stroke:#000000; stroke-width:0.0200; stroke-opacity:1; 
stroke-linecap:round; stroke-linejoin:round;">
<path d="M3.3250 2.1950
L3.3262 2.2439
" />
<path d="M3.3262 2.1461
L3.3250 2.1950
" />
<path d="M3.3262 2.2439
L3.3299 2.2921
" />
<path d="M3.3299 2.0979
L3.3262 2.1461
" />
<path d="M3.3299 2.2921
L3.3359 2.3397
" />
<path d="M3.3344 1.6249
L3.3079 1.6709
" />
<path d="M3.3344 2.7651
L3.3630 2.8098
" />
<path d="M3.3359 2.0503
L3.3299 2.0979
" />
<path d="M3.3359 2.3397
L3.3443 2.3865
" />
<path d="M3.3443 2.0035
L3.3359 2.0503
" />
<path d="M3.3443 2.3865
L3.3549 2.4324
" />
<path d="M3.3549 1.9576
L3.3443 2.0035
" />
<path d="M3.3549 2.4324
L3.3677 2.4775
" />
<path d="M3.3630 1.5802
L3.3344 1.6249
" />
<path d="M3.3630 2.8098
L3.3937 2.8529
" />
<path d="M3.3677 1.9125
L3.3549 1.9576
" />
<path d="M3.3677 2.4775
L3.3826 2.5216
" />
<path d="M3.3826 1.8684
L3.3677 1.9125
" />
<path d="M3.3826 2.5216
L3.3997 2.5648
" />
<path d="M3.3937 1.5371
L3.3630 1.5802
" />
<path d="M3.3937 2.8529
L3.4264 2.8944
" />
<path d="M3.3997 1.8252
L3.3826 1.8684
" />
<path d="M3.3997 2.5648
L3.4187 2.6069
" />
<path d="M3.4000 4.0200
L2.1000 4.0200
" />
<path d="M3.4000 4.0200
L3.4062 4.0198
" />
<path d="M3.4062 0.3702
L3.4000 0.3700
" />
<path d="M3.4062 4.0198
L3.4124 4.0194
" />
<path d="M3.4124 0.3706
L3.4062 0.3702
" />
<path d="M3.4124 4.0194
L3.4185 4.0186
" />
<path d="M3.4185 0.3714
L3.4124 0.3706
" />
<path d="M3.4185 4.0186
L3.4245 4.0176
" />
<path d="M3.4187 1.7831
L3.3997 1.8252
" />
<path d="M3.4187 2.6069
L3.4397 2.6478
" />
<path d="M3.4245 0.3724
L3.4185 0.3714
" />
<path d="M3.4245 4.0176
L3.4305 4.0162
" />
<path d="M3.4264 1.4956
L3.3937 1.5371
" />
<path d="M3.4264 2.8944
L3.4610 2.9343
" />
<path d="M3.4305 0.3738
L3.4245 0.3724
" />
<path d="M3.4305 4.0162
L3.4364 4.0146
" />
<path d="M3.4364 0.3754
L3.4305 0.3738
" />
<path d="M3.4364 4.0146
L3.4421 4.0127
" />
<path d="M3.4397 1.7422
L3.4187 1.7831
" />
<path d="M3.4397 2.6478
L3.4625 2.6876
" />
<path d="M3.4421 0.3773
L3.4364 0.3754
" />
<path d="M3.4421 4.0127
L3.4478 4.0105
" />
<path d="M3.4478 0.3795
L3.4421 0.3773
" />
<path d="M3.4478 4.0105
L3.4534 4.0080
" />
<path d="M3.4534 0.3820
L3.4478 0.3795
" />
<path d="M3.4534 4.0080
L3.4589 4.0053
" />
<path d="M3.4589 0.3847
L3.4534 0.3820
" />
<path d="M3.4589 4.0053
L3.4642 4.0023
" />
<path d="M3.4610 1.4557
L3.4264 1.4956
" />
<path d="M3.4610 2.9343
L3.4974 2.9725
" />
<path d="M3.4625 1.7024
L3.4397 1.7422
" />
<path d="M3.4625 2.6876
L3.4872 2.7262
" />
<path d="M3.4642 0.3877
L3.4589 0.3847
" />
<path d="M3.4642 4.0023
L3.4693 3.9990
" />
<path d="M3.4693 0.3910
L3.4642 0.3877
" />
<path d="M3.4693 3.9990
L3.4744 3.9955
" />
<path d="M3.4744 0.3945
L3.4693 0.3910
" />
<path d="M3.4744 3.9955
L3.4792 3.9917
" />
<path d="M3.4750 0.3950
L3.5750 0.3950
" />
<path d="M3.4792 0.3983
L3.4744 0.3945
" />
<path d="M3.4792 3.9917
L3.4839 3.9877
" />
<path d="M3.4839 0.4023
L3.4792 0.3983
" />
<path d="M3.4839 3.9877
L3.4884 3.9834
" />
<path d="M3.4872 1.6638
L3.4625 1.7024
" />
<path d="M3.4872 2.7262
L3.5137 2.7634
" />
<path d="M3.4884 0.4066
L3.4839 0.4023
" />
</g>
<g style="fill:#000000; fill-opacity:1.0000; stroke:none;">
<circle cx="3.4884" cy="0.4066" r="0.0100" /> 
<circle cx="3.4884" cy="3.9834" r="0.0100" /> 
</g>
<g style="fill:none; 
stroke:#000000; stroke-width:0.0200; stroke-opacity:1; 
stroke-linecap:round; stroke-linejoin:round;">
<path d="M3.4884 3.9834
L3.4927 3.9789
" />
<path d="M3.4927 0.4111
L3.4884 0.4066
" />
<path d="M3.4927 3.9789
L3.4967 3.9742
" />
<path d="M3.4967 0.4158
L3.4927 0.4111
" />
<path d="M3.4967 3.9742
L3.5005 3.9694
" />
<path d="M3.4974 1.4175
L3.4610 1.4557
" />
<path d="M3.4974 2.9725
L3.5356 3.0089
" />
<path d="M3.5005 0.4206
L3.4967 0.4158
" />
<path d="M3.5005 3.9694
L3.5040 3.9644
" />
<path d="M3.5040 0.4256
L3.5005 0.4206
" />
<path d="M3.5040 3.9644
L3.5073 3.9592
" />
<path d="M3.5073 0.4308
L3.5040 0.4256
" />
<path d="M3.5073 3.9592
L3.5103 3.9539
" />
<path d="M3.5103 0.4361
L3.5073 0.4308
" />
<path d="M3.5103 3.9539
L3.5130 3.9484
" />
<path d="M3.5130 0.4416
L3.5103 0.4361
" />
<path d="M3.5130 3.9484
L3.5155 3.9428
" />
<path d="M3.5137 1.6266
L3.4872 1.6638
" />
<path d="M3.5137 2.7634
L3.5419 2.7993
" />
<path d="M3.5155 0.4472
L3.5130 0.4416
" />
<path d="M3.5155 3.9428
L3.5177 3.9371
" />
<path d="M3.5177 0.4529
L3.5155 0.4472
" />
<path d="M3.5177 3.9371
L3.5196 3.9314
" />
<path d="M3.5196 0.4586
L3.5177 0.4529
" />
<path d="M3.5196 3.9314
L3.5212 3.9255
" />
<path d="M3.5212 0.4645
L3.5196 0.4586
" />
<path d="M3.5212 3.9255
L3.5226 3.9195
" />
<path d="M3.5226 0.4705
L3.5212 0.4645
" />
<path d="M3.5226 3.9195
L3.5236 3.9135
" />
<path d="M3.5236 0.4765
L3.5226 0.4705
" />
<path d="M3.5236 3.9135
L3.5244 3.9074
" />
<path d="M3.5244 0.4826
L3.5236 0.4765
" />
<path d="M3.5244 3.9074
L3.5248 3.9012
" />
<path d="M3.5248 0.4888
L3.5244 0.4826
" />
<path d="M3.5248 3.9012
L3.5250 3.8950
" />
<path d="M3.5250 0.4950
L3.5248 0.4888
" />
<path d="M3.5356 1.3811
L3.4974 1.4175
" />
<path d="M3.5356 3.0089
L3.5755 3.0434
" />
<path d="M3.5419 1.5907
L3.5137 1.6266
" />
<path d="M3.5419 2.7993
L3.5718 2.8338
" />
<path d="M3.5718 1.5562
L3.5419 1.5907
" />
<path d="M3.5718 2.8338
L3.6032 2.8668
" />
<path d="M3.5750 0.3950
L3.5750 0.4950
" />
<path d="M3.5750 0.3950
L4.9750 0.3950
" />
<path d="M3.5750 0.4950
L1.8750 0.4950
" />
<path d="M3.5750 3.8950
L3.5750 3.9950
" />
<path d="M3.5750 3.9950
L3.4750 3.9950
" />
<path d="M3.5750 3.9950
L4.9750 3.9950
" />
<path d="M3.5755 1.3466
L3.5356 1.3811
" />
<path d="M3.5755 3.0434
L3.6170 3.0761
" />
<path d="M3.6032 1.5232
L3.5718 1.5562
" />
<path d="M3.6032 2.8668
L3.6362 2.8982
" />
<path d="M3.6170 1.3139
L3.5755 1.3466
" />
<path d="M3.6170 3.0761
L3.6601 3.1067
" />
<path d="M3.6362 1.4918
L3.6032 1.5232
" />
<path d="M3.6362 2.8982
L3.6707 2.9281
" />
<path d="M3.6601 1.2833
L3.6170 1.3139
" />
<path d="M3.6601 3.1067
L3.7048 3.1353
" />
<path d="M3.6707 1.4619
L3.6362 1.4918
" />
<path d="M3.6707 2.9281
L3.7066 2.9563
" />
<path d="M3.7048 1.2547
L3.6601 1.2833
" />
<path d="M3.7048 3.1353
L3.7508 3.1618
" />
<path d="M3.7066 1.4337
L3.6707 1.4619
" />
<path d="M3.7066 2.9563
L3.7438 2.9828
" />
<path d="M3.7438 1.4072
L3.7066 1.4337
" />
<path d="M3.7438 2.9828
L3.7824 3.0075
" />
<path d="M3.7508 1.2282
L3.7048 1.2547
" />
<path d="M3.7508 3.1618
L3.7982 3.1861
" />
<path d="M3.7824 1.3825
L3.7438 1.4072
" />
<path d="M3.7824 3.0075
L3.8222 3.0303
" />
<path d="M3.7982 1.2039
L3.7508 1.2282
" />
<path d="M3.7982 3.1861
L3.8470 3.2081
" />
<path d="M3.8222 1.3597
L3.7824 1.3825
" />
<path d="M3.8222 3.0303
L3.8631 3.0513
" />
<path d="M3.8470 1.1819
L3.7982 1.2039
" />
<path d="M3.8470 3.2081
L3.8969 3.2278
" />
<path d="M3.8631 1.3387
L3.8222 1.3597
" />
<path d="M3.8631 3.0513
L3.9052 3.0703
" />
<path d="M3.8969 1.1622
L3.8470 1.1819
" />
<path d="M3.8969 3.2278
L3.9480 3.2450
" />
<path d="M3.9052 1.3197
L3.8631 1.3387
" />
<path d="M3.9052 3.0703
L3.9484 3.0874
" />
<path d="M3.9480 1.1450
L3.8969 1.1622
" />
<path d="M3.9480 3.2450
L4.0002 3.2598
" />
<path d="M3.9484 1.3026
L3.9052 1.3197
" />
<path d="M3.9484 3.0874
L3.9925 3.1023
" />
<path d="M3.9925 1.2877
L3.9484 1.3026
" />
<path d="M3.9925 3.1023
L4.0376 3.1151
" />
<path d="M4.0002 1.1302
L3.9480 1.1450
" />
<path d="M4.0002 3.2598
L4.0534 3.2721
" />
<path d="M4.0376 1.2749
L3.9925 1.2877
" />
<path d="M4.0376 3.1151
L4.0835 3.1257
" />
<path d="M4.0534 1.1179
L4.0002 1.1302
" />
<path d="M4.0534 3.2721
L4.1075 3.2818
" />
<path d="M4.0835 1.2643
L4.0376 1.2749
" />
<path d="M4.0835 3.1257
L4.1303 3.1341
" />
<path d="M4.1075 1.1082
L4.0534 1.1179
" />
<path d="M4.1075 3.2818
L4.1626 3.2888
" />
<path d="M4.1303 1.2559
L4.0835 1.2643
" />
<path d="M4.1303 3.1341
L4.1779 3.1401
" />
<path d="M4.1626 1.1012
L4.1075 1.1082
" />
<path d="M4.1626 3.2888
L4.2184 3.2930
" />
<path d="M4.1779 1.2499
L4.1303 1.2559
" />
<path d="M4.1779 3.1401
L4.2261 3.1438
" />
<path d="M4.2184 1.0970
L4.1626 1.1012
" />
<path d="M4.2184 3.2930
L4.2750 3.2945
" />
<path d="M4.2261 1.2462
L4.1779 1.2499
" />
<path d="M4.2261 3.1438
L4.2750 3.1450
" />
<path d="M4.2750 1.0955
L4.2184 1.0970
" />
</g>
<g style="fill:#000000; fill-opacity:1.0000; stroke:none;">
<circle cx="4.2750" cy="1.0955" r="0.0100" /> 
</g>
<g style="fill:none; 
stroke:#000000; stroke-width:0.0200; stroke-opacity:1; 
stroke-linecap:round; stroke-linejoin:round;">
<path d="M4.2750 1.2450
L4.2261 1.2462
" />
</g>
<g style="fill:#000000; fill-opacity:1.0000; stroke:none;">
<circle cx="4.2750" cy="1.2450" r="0.0100" /> 
<circle cx="4.2750" cy="3.1450" r="0.0100" /> 
</g>
<g style="fill:none; 
stroke:#000000; stroke-width:0.0200; stroke-opacity:1; 
stroke-linecap:round; stroke-linejoin:round;">
<path d="M4.2750 3.1450
L4.3239 3.1438
" />
</g>
<g style="fill:#000000; fill-opacity:1.0000; stroke:none;">
<circle cx="4.2750" cy="3.2945" r="0.0100" /> 
</g>
<g style="fill:none; 
stroke:#000000; stroke-width:0.0200; stroke-opacity:1; 
stroke-linecap:round; stroke-linejoin:round;">
<path d="M4.2750 3.2945
L4.3316 3.2930
" />
<path d="M4.3239 1.2462
L4.2750 1.2450
" />
<path d="M4.3239 3.1438
L4.3721 3.1401
" />
<path d="M4.3316 1.0970
L4.2750 1.0955
" />
<path d="M4.3316 3.2930
L4.3874 3.2888
" />
<path d="M4.3721 1.2499
L4.3239 1.2462
" />
<path d="M4.3721 3.1401
L4.4197 3.1341
" />
<path d="M4.3874 1.1012
L4.3316 1.0970
" />
<path d="M4.3874 3.2888
L4.4425 3.2818
" />
<path d="M4.4197 1.2559
L4.3721 1.2499
" />
<path d="M4.4197 3.1341
L4.4665 3.1257
" />
<path d="M4.4425 1.1082
L4.3874 1.1012
" />
<path d="M4.4425 3.2818
L4.4966 3.2721
" />
<path d="M4.4665 1.2643
L4.4197 1.2559
" />
<path d="M4.4665 3.1257
L4.5124 3.1151
" />
<path d="M4.4966 1.1179
L4.4425 1.1082
" />
<path d="M4.4966 3.2721
L4.5498 3.2598
" />
<path d="M4.5124 1.2749
L4.4665 1.2643
" />
<path d="M4.5124 3.1151
L4.5575 3.1023
" />
<path d="M4.5498 1.1302
L4.4966 1.1179
" />
<path d="M4.5498 3.2598
L4.6020 3.2450
" />
<path d="M4.5575 1.2877
L4.5124 1.2749
" />
<path d="M4.5575 3.1023
L4.6016 3.0874
" />
<path d="M4.6016 1.3026
L4.5575 1.2877
" />
<path d="M4.6016 3.0874
L4.6448 3.0703
" />
<path d="M4.6020 1.1450
L4.5498 1.1302
" />
<path d="M4.6020 3.2450
L4.6531 3.2278
" />
<path d="M4.6448 1.3197
L4.6016 1.3026
" />
<path d="M4.6448 3.0703
L4.6869 3.0513
" />
<path d="M4.6531 1.1622
L4.6020 1.1450
" />
<path d="M4.6531 3.2278
L4.7030 3.2081
" />
<path d="M4.6869 1.3387
L4.6448 1.3197
" />
<path d="M4.6869 3.0513
L4.7278 3.0303
" />
<path d="M4.7030 1.1819
L4.6531 1.1622
" />
<path d="M4.7030 3.2081
L4.7518 3.1861
" />
<path d="M4.7278 1.3597
L4.6869 1.3387
" />
<path d="M4.7278 3.0303
L4.7676 3.0075
" />
<path d="M4.7518 1.2039
L4.7030 1.1819
" />
<path d="M4.7518 3.1861
L4.7992 3.1618
" />
<path d="M4.7676 1.3825
L4.7278 1.3597
" />
<path d="M4.7676 3.0075
L4.8062 2.9828
" />
<path d="M4.7992 1.2282
L4.7518 1.2039
" />
<path d="M4.7992 3.1618
L4.8452 3.1353
" />
<path d="M4.8062 1.4072
L4.7676 1.3825
" />
<path d="M4.8062 2.9828
L4.8434 2.9563
" />
<path d="M4.8434 1.4337
L4.8062 1.4072
" />
<path d="M4.8434 2.9563
L4.8793 2.9281
" />
<path d="M4.8452 1.2547
L4.7992 1.2282
" />
<path d="M4.8452 3.1353
L4.8899 3.1067
" />
<path d="M4.8793 1.4619
L4.8434 1.4337
" />
<path d="M4.8793 2.9281
L4.9138 2.8982
" />
<path d="M4.8899 1.2833
L4.8452 1.2547
" />
<path d="M4.8899 3.1067
L4.9330 3.0761
" />
<path d="M4.9138 1.4918
L4.8793 1.4619
" />
<path d="M4.9138 2.8982
L4.9468 2.8668
" />
<path d="M4.9330 1.3139
L4.8899 1.2833
" />
<path d="M4.9330 3.0761
L4.9745 3.0434
" />
<path d="M4.9468 1.5232
L4.9138 1.4918
" />
<path d="M4.9468 2.8668
L4.9782 2.8338
" />
<path d="M4.9745 1.3466
L4.9330 1.3139
" />
<path d="M4.9745 3.0434
L5.0144 3.0089
" />
<path d="M4.9750 0.3950
L5.0750 0.3950
" />
<path d="M4.9750 0.4950
L4.9750 0.3950
" />
<path d="M4.9750 3.8950
L6.6750 3.8950
" />
<path d="M4.9750 3.9950
L4.9750 3.8950
" />
<path d="M4.9782 1.5562
L4.9468 1.5232
" />
<path d="M4.9782 2.8338
L5.0081 2.7993
" />
<path d="M5.0081 1.5907
L4.9782 1.5562
" />
<path d="M5.0081 2.7993
L5.0363 2.7634
" />
<path d="M5.0144 1.3811
L4.9745 1.3466
" />
<path d="M5.0144 3.0089
L5.0526 2.9725
" />
<path d="M5.0250 3.8950
L5.0252 3.9012
" />
<path d="M5.0252 0.4888
L5.0250 0.4950
" />
<path d="M5.0252 3.9012
L5.0256 3.9074
" />
<path d="M5.0256 0.4826
L5.0252 0.4888
" />
<path d="M5.0256 3.9074
L5.0264 3.9135
" />
<path d="M5.0264 0.4765
L5.0256 0.4826
" />
<path d="M5.0264 3.9135
L5.0274 3.9195
" />
<path d="M5.0274 0.4705
L5.0264 0.4765
" />
<path d="M5.0274 3.9195
L5.0288 3.9255
" />
<path d="M5.0288 0.4645
L5.0274 0.4705
" />
<path d="M5.0288 3.9255
L5.0304 3.9314
" />
<path d="M5.0304 0.4586
L5.0288 0.4645
" />
<path d="M5.0304 3.9314
L5.0323 3.9371
" />
<path d="M5.0323 0.4529
L5.0304 0.4586
" />
<path d="M5.0323 3.9371
L5.0345 3.9428
" />
<path d="M5.0345 0.4472
L5.0323 0.4529
" />
<path d="M5.0345 3.9428
L5.0370 3.9484
" />
<path d="M5.0363 1.6266
L5.0081 1.5907
" />
<path d="M5.0363 2.7634
L5.0628 2.7262
" />
<path d="M5.0370 0.4416
L5.0345 0.4472
" />
<path d="M5.0370 3.9484
L5.0397 3.9539
" />
<path d="M5.0397 0.4361
L5.0370 0.4416
" />
<path d="M5.0397 3.9539
L5.0427 3.9592
" />
<path d="M5.0427 0.4308
L5.0397 0.4361
" />
<path d="M5.0427 3.9592
L5.0460 3.9644
" />
<path d="M5.0460 0.4256
L5.0427 0.4308
" />
<path d="M5.0460 3.9644
L5.0495 3.9694
" />
<path d="M5.0495 0.4206
L5.0460 0.4256
" />
<path d="M5.0495 3.9694
L5.0533 3.9742
" />
<path d="M5.0526 1.4175
L5.0144 1.3811
" />
<path d="M5.0526 2.9725
L5.0890 2.9343
" />
<path d="M5.0533 0.4158
L5.0495 0.4206
" />
<path d="M5.0533 3.9742
L5.0573 3.9789
" />
<path d="M5.0573 0.4111
L5.0533 0.4158
" />
<path d="M5.0573 3.9789
L5.0616 3.9834
" />
<path d="M5.0616 0.4066
L5.0573 0.4111
" />
</g>
<g style="fill:#000000; fill-opacity:1.0000; stroke:none;">
<circle cx="5.0616" cy="0.4066" r="0.0100" /> 
<circle cx="5.0616" cy="3.9834" r="0.0100" /> 
</g>
<g style="fill:none; 
stroke:#000000; stroke-width:0.0200; stroke-opacity:1; 
stroke-linecap:round; stroke-linejoin:round;">
<path d="M5.0616 3.9834
L5.0661 3.9877
" />
<path d="M5.0628 1.6638
L5.0363 1.6266
" />
<path d="M5.0628 2.7262
L5.0875 2.6876
" />
<path d="M5.0661 0.4023
L5.0616 0.4066
" />
<path d="M5.0661 3.9877
L5.0708 3.9917
" />
<path d="M5.0708 0.3983
L5.0661 0.4023
" />
<path d="M5.0708 3.9917
L5.0756 3.9955
" />
<path d="M5.0750 3.9950
L4.9750 3.9950
" />
<path d="M5.0756 0.3945
L5.0708 0.3983
" />
<path d="M5.0756 3.9955
L5.0806 3.9990
" />
<path d="M5.0806 0.3910
L5.0756 0.3945
" />
<path d="M5.0806 3.9990
L5.0858 4.0023
" />
<path d="M5.0858 0.3877
L5.0806 0.3910
" />
<path d="M5.0858 4.0023
L5.0911 4.0053
" />
<path d="M5.0875 1.7024
L5.0628 1.6638
" />
<path d="M5.0875 2.6876
L5.1103 2.6478
" />
<path d="M5.0890 1.4557
L5.0526 1.4175
" />
<path d="M5.0890 2.9343
L5.1236 2.8944
" />
<path d="M5.0911 0.3847
L5.0858 0.3877
" />
<path d="M5.0911 4.0053
L5.0966 4.0080
" />
<path d="M5.0966 0.3820
L5.0911 0.3847
" />
<path d="M5.0966 4.0080
L5.1022 4.0105
" />
<path d="M5.1022 0.3795
L5.0966 0.3820
" />
<path d="M5.1022 4.0105
L5.1079 4.0127
" />
<path d="M5.1079 0.3773
L5.1022 0.3795
" />
<path d="M5.1079 4.0127
L5.1136 4.0146
" />
<path d="M5.1103 1.7422
L5.0875 1.7024
" />
<path d="M5.1103 2.6478
L5.1313 2.6069
" />
<path d="M5.1136 0.3754
L5.1079 0.3773
" />
<path d="M5.1136 4.0146
L5.1195 4.0162
" />
<path d="M5.1195 0.3738
L5.1136 0.3754
" />
<path d="M5.1195 4.0162
L5.1255 4.0176
" />
<path d="M5.1236 1.4956
L5.0890 1.4557
" />
<path d="M5.1236 2.8944
L5.1563 2.8529
" />
<path d="M5.1255 0.3724
L5.1195 0.3738
" />
<path d="M5.1255 4.0176
L5.1315 4.0186
" />
<path d="M5.1313 1.7831
L5.1103 1.7422
" />
<path d="M5.1313 2.6069
L5.1503 2.5648
" />
<path d="M5.1315 0.3714
L5.1255 0.3724
" />
<path d="M5.1315 4.0186
L5.1376 4.0194
" />
<path d="M5.1376 0.3706
L5.1315 0.3714
" />
<path d="M5.1376 4.0194
L5.1438 4.0198
" />
<path d="M5.1438 0.3702
L5.1376 0.3706
" />
<path d="M5.1438 4.0198
L5.1500 4.0200
" />
<path d="M5.1500 0.3700
L5.1438 0.3702
" />
<path d="M5.1500 0.3700
L6.4500 0.3700
" />
<path d="M5.1503 1.8252
L5.1313 1.7831
" />
<path d="M5.1503 2.5648
L5.1674 2.5216
" />
<path d="M5.1563 1.5371
L5.1236 1.4956
" />
<path d="M5.1563 2.8529
L5.1870 2.8098
" />
<path d="M5.1674 1.8684
L5.1503 1.8252
" />
<path d="M5.1674 2.5216
L5.1823 2.4775
" />
<path d="M5.1823 1.9125
L5.1674 1.8684
" />
<path d="M5.1823 2.4775
L5.1951 2.4324
" />
<path d="M5.1870 1.5802
L5.1563 1.5371
" />
<path d="M5.1870 2.8098
L5.2156 2.7651
" />
<path d="M5.1951 1.9576
L5.1823 1.9125
" />
<path d="M5.1951 2.4324
L5.2057 2.3865
" />
<path d="M5.2057 2.0035
L5.1951 1.9576
" />
<path d="M5.2057 2.3865
L5.2141 2.3397
" />
<path d="M5.2141 2.0503
L5.2057 2.0035
" />
<path d="M5.2141 2.3397
L5.2201 2.2921
" />
<path d="M5.2156 1.6249
L5.1870 1.5802
" />
<path d="M5.2156 2.7651
L5.2421 2.7191
" />
<path d="M5.2201 2.0979
L5.2141 2.0503
" />
<path d="M5.2201 2.2921
L5.2238 2.2439
" />
<path d="M5.2238 2.1461
L5.2201 2.0979
" />
<path d="M5.2238 2.2439
L5.2250 2.1950
" />
<path d="M5.2250 2.1950
L5.2238 2.1461
" />
</g>
<g style="fill:#000000; fill-opacity:1.0000; stroke:none;">
<circle cx="5.2250" cy="2.1950" r="0.0100" /> 
<circle cx="5.2250" cy="2.1950" r="0.0100" /> 
</g>
<g style="fill:none; 
stroke:#000000; stroke-width:0.0200; stroke-opacity:1; 
stroke-linecap:round; stroke-linejoin:round;">
<path d="M5.2421 1.6709
L5.2156 1.6249
" />
<path d="M5.2421 2.7191
L5.2664 2.6717
" />
<path d="M5.2664 1.7183
L5.2421 1.6709
" />
<path d="M5.2664 2.6717
L5.2884 2.6230
" />
<path d="M5.2884 1.7670
L5.2664 1.7183
" />
<path d="M5.2884 2.6230
L5.3081 2.5731
" />
<path d="M5.3081 1.8169
L5.2884 1.7670
" />
<path d="M5.3081 2.5731
L5.3254 2.5220
" />
<path d="M5.3254 1.8680
L5.3081 1.8169
" />
<path d="M5.3254 2.5220
L5.3403 2.4698
" />
<path d="M5.3403 1.9202
L5.3254 1.8680
" />
<path d="M5.3403 2.4698
L5.3526 2.4166
" />
<path d="M5.3526 1.9734
L5.3403 1.9202
" />
<path d="M5.3526 2.4166
L5.3623 2.3625
" />
<path d="M5.3623 2.0275
L5.3526 1.9734
" />
<path d="M5.3623 2.3625
L5.3693 2.3074
" />
<path d="M5.3693 2.0826
L5.3623 2.0275
" />
<path d="M5.3693 2.3074
L5.3735 2.2516
" />
<path d="M5.3735 2.1384
L5.3693 2.0826
" />
<path d="M5.3735 2.2516
L5.3750 2.1950
" />
<path d="M5.3750 2.1950
L5.3735 2.1384
" />
<path d="M5.4250 0.2750
L6.6350 0.2750
" />
<path d="M5.4250 0.3336
L5.4250 0.2750
" />
<path d="M5.4250 0.3336
L5.4250 0.3700
" />
<path d="M5.4250 4.0200
L5.4250 4.0564
" />
<path d="M5.4250 4.1150
L5.4250 4.0564
" />
<path d="M6.4500 4.0200
L5.1500 4.0200
" />
<path d="M6.4500 4.0200
L6.4562 4.0198
" />
<path d="M6.4562 0.3702
L6.4500 0.3700
" />
<path d="M6.4562 4.0198
L6.4624 4.0194
" />
<path d="M6.4624 0.3706
L6.4562 0.3702
" />
<path d="M6.4624 4.0194
L6.4685 4.0186
" />
<path d="M6.4685 0.3714
L6.4624 0.3706
" />
<path d="M6.4685 4.0186
L6.4745 4.0176
" />
<path d="M6.4745 0.3724
L6.4685 0.3714
" />
<path d="M6.4745 4.0176
L6.4805 4.0162
" />
<path d="M6.4805 0.3738
L6.4745 0.3724
" />
<path d="M6.4805 4.0162
L6.4864 4.0146
" />
<path d="M6.4864 0.3754
L6.4805 0.3738
" />
<path d="M6.4864 4.0146
L6.4921 4.0127
" />
<path d="M6.4921 0.3773
L6.4864 0.3754
" />
<path d="M6.4921 4.0127
L6.4978 4.0105
" />
<path d="M6.4978 0.3795
L6.4921 0.3773
" />
<path d="M6.4978 4.0105
L6.5034 4.0080
" />
<path d="M6.5034 0.3820
L6.4978 0.3795
" />
<path d="M6.5034 4.0080
L6.5089 4.0053
" />
<path d="M6.5089 0.3847
L6.5034 0.3820
" />
<path d="M6.5089 4.0053
L6.5142 4.0023
" />
<path d="M6.5142 0.3877
L6.5089 0.3847
" />
<path d="M6.5142 4.0023
L6.5193 3.9990
" />
<path d="M6.5193 0.3910
L6.5142 0.3877
" />
<path d="M6.5193 3.9990
L6.5244 3.9955
" />
<path d="M6.5244 0.3945
L6.5193 0.3910
" />
<path d="M6.5244 3.9955
L6.5292 3.9917
" />
<path d="M6.5292 0.3983
L6.5244 0.3945
" />
<path d="M6.5292 3.9917
L6.5339 3.9877
" />
<path d="M6.5339 0.4023
L6.5292 0.3983
" />
<path d="M6.5339 3.9877
L6.5384 3.9834
" />
<path d="M6.5384 0.4066
L6.5339 0.4023
" />
</g>
<g style="fill:#000000; fill-opacity:1.0000; stroke:none;">
<circle cx="6.5384" cy="0.4066" r="0.0100" /> 
<circle cx="6.5384" cy="3.9834" r="0.0100" /> 
</g>
<g style="fill:none; 
stroke:#000000; stroke-width:0.0200; stroke-opacity:1; 
stroke-linecap:round; stroke-linejoin:round;">
<path d="M6.5384 3.9834
L6.5427 3.9789
" />
<path d="M6.5427 0.4111
L6.5384 0.4066
" />
<path d="M6.5427 3.9789
L6.5467 3.9742
" />
<path d="M6.5467 0.4158
L6.5427 0.4111
" />
<path d="M6.5467 3.9742
L6.5505 3.9694
" />
<path d="M6.5505 0.4206
L6.5467 0.4158
" />
<path d="M6.5505 3.9694
L6.5540 3.9644
" />
<path d="M6.5540 0.4256
L6.5505 0.4206
" />
<path d="M6.5540 3.9644
L6.5573 3.9592
" />
<path d="M6.5573 0.4308
L6.5540 0.4256
" />
<path d="M6.5573 3.9592
L6.5603 3.9539
" />
<path d="M6.5603 0.4361
L6.5573 0.4308
" />
<path d="M6.5603 3.9539
L6.5630 3.9484
" />
<path d="M6.5630 0.4416
L6.5603 0.4361
" />
<path d="M6.5630 3.9484
L6.5655 3.9428
" />
<path d="M6.5655 0.4472
L6.5630 0.4416
" />
<path d="M6.5655 3.9428
L6.5677 3.9371
" />
<path d="M6.5677 0.4529
L6.5655 0.4472
" />
<path d="M6.5677 3.9371
L6.5696 3.9314
" />
<path d="M6.5696 0.4586
L6.5677 0.4529
" />
<path d="M6.5696 3.9314
L6.5712 3.9255
" />
<path d="M6.5712 0.4645
L6.5696 0.4586
" />
<path d="M6.5712 3.9255
L6.5726 3.9195
" />
<path d="M6.5726 0.4705
L6.5712 0.4645
" />
<path d="M6.5726 3.9195
L6.5736 3.9135
" />
<path d="M6.5736 0.4765
L6.5726 0.4705
" />
<path d="M6.5736 3.9135
L6.5744 3.9074
" />
<path d="M6.5744 0.4826
L6.5736 0.4765
" />
<path d="M6.5744 3.9074
L6.5748 3.9012
" />
<path d="M6.5748 0.4888
L6.5744 0.4826
" />
<path d="M6.5748 3.9012
L6.5750 3.8950
" />
<path d="M6.5750 0.4950
L6.5748 0.4888
" />
<path d="M6.6350 0.2750
L6.6350 0.3336
" />
<path d="M6.6350 0.3336
L6.6350 0.4950
" />
<path d="M6.6350 0.3950
L6.6750 0.3950
" />
<path d="M6.6350 3.8950
L6.6350 4.0564
" />
<path d="M6.6350 4.0564
L6.6350 4.1150
" />
<path d="M6.6350 4.1150
L5.4250 4.1150
" />
<path d="M6.6750 0.3950
L6.6750 0.4950
" />
<path d="M6.6750 0.3950
L7.2900 0.3950
" />
<path d="M6.6750 0.4950
L4.9750 0.4950
" />
<path d="M6.6750 3.8950
L6.6750 3.9950
" />
<path d="M6.6750 3.9950
L6.6350 3.9950
" />
<path d="M6.6750 3.9950
L7.2900 3.9950
" />
<path d="M7.0900 0.3950
L7.2900 0.3950
" />
<path d="M7.1750 2.2950
L7.1750 2.6950
" />
<path d="M7.1750 2.6950
L7.2900 2.6950
" />
<path d="M7.1750 3.2950
L7.1750 3.6950
" />
<path d="M7.1750 3.4778
L7.1810 3.4799
" />
<path d="M7.1750 3.6950
L7.2900 3.6950
" />
<path d="M7.1810 3.4799
L7.1871 3.4818
" />
<path d="M7.1871 3.4818
L7.1932 3.4836
" />
<path d="M7.1932 3.4836
L7.1994 3.4853
" />
<path d="M7.1994 3.4853
L7.2056 3.4869
" />
<path d="M7.2056 3.4869
L7.2118 3.4883
" />
<path d="M7.2118 3.4883
L7.2180 3.4895
" />
<path d="M7.2180 3.4895
L7.2243 3.4907
" />
<path d="M7.2243 3.4907
L7.2306 3.4917
" />
<path d="M7.2306 3.4917
L7.2369 3.4926
" />
<path d="M7.2369 3.4926
L7.2432 3.4933
" />
<path d="M7.2432 3.4933
L7.2495 3.4939
" />
<path d="M7.2495 3.4939
L7.2559 3.4944
" />
<path d="M7.2559 3.4944
L7.2622 3.4947
" />
<path d="M7.2622 3.4947
L7.2686 3.4949
" />
<path d="M7.2686 3.4949
L7.2750 3.4950
" />
<path d="M7.2750 2.6900
L7.9250 2.6900
" />
<path d="M7.2750 2.6950
L7.2750 2.2950
" />
<path d="M7.2750 3.6950
L7.2750 3.4950
" />
<path d="M7.2900 0.3950
L7.2900 0.4950
" />
<path d="M7.2900 0.4950
L7.2900 2.2950
" />
<path d="M7.2900 2.2950
L7.1750 2.2950
" />
<path d="M7.2900 2.6950
L7.2900 3.2950
" />
<path d="M7.2900 3.2950
L7.1750 3.2950
" />
<path d="M7.2900 3.6950
L7.2900 3.8950
" />
<path d="M7.2900 3.8950
L7.2900 3.9950
" />
<path d="M7.2900 3.9950
L7.0900 3.9950
" />
<path d="M7.9250 1.7000
L7.2900 1.7000
" />
<path d="M7.9250 2.6900
L7.9250 1.7000
" />
</g> 
</svg>
