<?xml version="1.0" standalone="no"?>
 <!DOCTYPE svg PUBLIC "-//W3C//DTD SVG 1.1//EN" 
 "http://www.w3.org/Graphics/SVG/1.1/DTD/svg11.dtd"> 
<svg
  xmlns:svg="http://www.w3.org/2000/svg"
  xmlns="http://www.w3.org/2000/svg"
  xmlns:xlink="http://www.w3.org/1999/xlink"
  version="1.1"
  width="18.0340mm" height="18.0340mm" viewBox="0.0000 0.0000 18.0340 18.0340">
<title>SVG Image created as outline.svg date 2025/04/04 10:06:06 </title>
  <desc>Image generated by PCBNEW </desc>
<g style="fill:#000000; fill-opacity:1.0000;stroke:#000000; stroke-opacity:1.0000;
stroke-linecap:round; stroke-linejoin:round;"
 transform="translate(0 0) scale(1 1)">
</g>
<g style="fill:none; 
stroke:#000000; stroke-width:0.0200; stroke-opacity:1; 
stroke-linecap:round; stroke-linejoin:round;">
<path d="M0.5250 0.5250
L17.5240 0.5250
" />
<path d="M0.5250 17.5240
L0.5250 0.5250
" />
<path d="M0.5250 17.5240
L17.5240 17.5240
" />
<path d="M1.5870 2.5950
L1.5870 2.6500
" />
</g>
<g style="fill:#000000; fill-opacity:1.0000; stroke:none;">
<circle cx="1.5870" cy="2.6500" r="0.0100" /> 
</g>
<g style="fill:none; 
stroke:#000000; stroke-width:0.0200; stroke-opacity:1; 
stroke-linecap:round; stroke-linejoin:round;">
<path d="M1.5870 2.6500
L1.5870 2.7040
" />
<path d="M1.5870 2.7040
L1.5920 2.7570
" />
<path d="M1.5920 2.5410
L1.5870 2.5950
" />
<path d="M1.5920 2.7570
L1.5970 2.8100
" />
<path d="M1.5970 2.4880
L1.5920 2.5410
" />
<path d="M1.5970 2.8100
L1.6080 2.8630
" />
<path d="M1.6080 2.4350
L1.5970 2.4880
" />
<path d="M1.6080 2.8630
L1.6180 2.9140
" />
<path d="M1.6180 2.3840
L1.6080 2.4350
" />
<path d="M1.6180 2.9140
L1.6340 2.9640
" />
<path d="M1.6340 2.3340
L1.6180 2.3840
" />
<path d="M1.6340 2.9640
L1.6500 3.0150
" />
<path d="M1.6500 2.2830
L1.6340 2.3340
" />
<path d="M1.6500 3.0150
L1.6690 3.0630
" />
<path d="M1.6690 2.2360
L1.6500 2.2830
" />
<path d="M1.6690 3.0630
L1.6900 3.1100
" />
<path d="M1.6900 2.1880
L1.6690 2.2360
" />
<path d="M1.6900 3.1100
L1.7140 3.1560
" />
<path d="M1.7140 2.1420
L1.6900 2.1880
" />
<path d="M1.7140 3.1560
L1.7410 3.1980
" />
<path d="M1.7410 2.0970
L1.7140 2.1420
" />
<path d="M1.7410 3.1980
L1.7670 3.2440
" />
<path d="M1.7670 2.0550
L1.7410 2.0970
" />
<path d="M1.7670 3.2440
L1.7970 3.2830
" />
<path d="M1.7970 2.0140
L1.7670 2.0550
" />
<path d="M1.7970 3.2830
L1.8290 3.3230
" />
<path d="M1.8290 1.9720
L1.7970 2.0140
" />
<path d="M1.8290 3.3230
L1.8630 3.3630
" />
<path d="M1.8630 1.9350
L1.8290 1.9720
" />
<path d="M1.8630 3.3630
L1.8980 3.4000
" />
<path d="M1.8980 1.8980
L1.8630 1.9350
" />
<path d="M1.8980 3.4000
L1.9350 3.4350
" />
<path d="M1.9350 1.8630
L1.8980 1.8980
" />
<path d="M1.9350 3.4350
L1.9720 3.4690
" />
<path d="M1.9720 1.8290
L1.9350 1.8630
" />
<path d="M1.9720 3.4690
L2.0140 3.5010
" />
<path d="M2.0140 1.7970
L1.9720 1.8290
" />
<path d="M2.0140 3.5010
L2.0550 3.5310
" />
<path d="M2.0550 1.7670
L2.0140 1.7970
" />
<path d="M2.0550 3.5310
L2.0970 3.5570
" />
<path d="M2.0970 1.7410
L2.0550 1.7670
" />
<path d="M2.0970 3.5570
L2.1420 3.5840
" />
<path d="M2.1420 1.7140
L2.0970 1.7410
" />
<path d="M2.1420 3.5840
L2.1880 3.6050
" />
<path d="M2.1880 1.6900
L2.1420 1.7140
" />
<path d="M2.1880 3.6050
L2.2360 3.6290
" />
<path d="M2.2360 1.6690
L2.1880 1.6900
" />
<path d="M2.2360 3.6290
L2.2830 3.6480
" />
<path d="M2.2830 1.6500
L2.2360 1.6690
" />
<path d="M2.2830 3.6480
L2.3340 3.6640
" />
<path d="M2.3340 1.6340
L2.2830 1.6500
" />
<path d="M2.3340 3.6640
L2.3840 3.6790
" />
<path d="M2.3840 1.6180
L2.3340 1.6340
" />
<path d="M2.3840 3.6790
L2.4350 3.6900
" />
<path d="M2.4350 1.6080
L2.3840 1.6180
" />
<path d="M2.4350 3.6900
L2.4880 3.6980
" />
<path d="M2.4880 1.5970
L2.4350 1.6080
" />
<path d="M2.4880 3.6980
L2.5410 3.7060
" />
<path d="M2.5410 1.5920
L2.4880 1.5970
" />
<path d="M2.5410 3.7060
L2.5950 3.7110
" />
<path d="M2.5950 1.5870
L2.5410 1.5920
" />
<path d="M2.5950 3.7110
L2.6500 3.7120
" />
<path d="M2.6500 1.5870
L2.5950 1.5870
" />
</g>
<g style="fill:#000000; fill-opacity:1.0000; stroke:none;">
<circle cx="2.6500" cy="1.5870" r="0.0100" /> 
<circle cx="2.6500" cy="3.7120" r="0.0100" /> 
</g>
<g style="fill:none; 
stroke:#000000; stroke-width:0.0200; stroke-opacity:1; 
stroke-linecap:round; stroke-linejoin:round;">
<path d="M2.6500 3.7120
L2.7040 3.7110
" />
<path d="M2.7040 1.5870
L2.6500 1.5870
" />
<path d="M2.7040 3.7110
L2.7570 3.7060
" />
<path d="M2.7570 1.5920
L2.7040 1.5870
" />
<path d="M2.7570 3.7060
L2.8100 3.6980
" />
<path d="M2.8100 1.5970
L2.7570 1.5920
" />
<path d="M2.8100 3.6980
L2.8630 3.6900
" />
<path d="M2.8630 1.6080
L2.8100 1.5970
" />
<path d="M2.8630 3.6900
L2.9140 3.6790
" />
<path d="M2.9140 1.6180
L2.8630 1.6080
" />
<path d="M2.9140 3.6790
L2.9640 3.6640
" />
<path d="M2.9640 1.6340
L2.9140 1.6180
" />
<path d="M2.9640 3.6640
L3.0150 3.6480
" />
<path d="M3.0150 1.6500
L2.9640 1.6340
" />
<path d="M3.0150 3.6480
L3.0630 3.6290
" />
<path d="M3.0630 1.6690
L3.0150 1.6500
" />
<path d="M3.0630 3.6290
L3.1100 3.6050
" />
<path d="M3.1100 1.6900
L3.0630 1.6690
" />
<path d="M3.1100 3.6050
L3.1560 3.5840
" />
<path d="M3.1560 1.7140
L3.1100 1.6900
" />
<path d="M3.1560 3.5840
L3.1980 3.5570
" />
<path d="M3.1980 1.7410
L3.1560 1.7140
" />
<path d="M3.1980 3.5570
L3.2440 3.5310
" />
<path d="M3.2440 1.7670
L3.1980 1.7410
" />
<path d="M3.2440 3.5310
L3.2830 3.5010
" />
<path d="M3.2830 1.7970
L3.2440 1.7670
" />
<path d="M3.2830 3.5010
L3.3230 3.4690
" />
<path d="M3.3230 1.8290
L3.2830 1.7970
" />
<path d="M3.3230 3.4690
L3.3630 3.4350
" />
<path d="M3.3630 1.8630
L3.3230 1.8290
" />
<path d="M3.3630 3.4350
L3.4000 3.4000
" />
<path d="M3.4000 1.8980
L3.3630 1.8630
" />
<path d="M3.4000 3.4000
L3.4350 3.3630
" />
<path d="M3.4350 1.9350
L3.4000 1.8980
" />
<path d="M3.4350 3.3630
L3.4690 3.3230
" />
<path d="M3.4690 1.9720
L3.4350 1.9350
" />
<path d="M3.4690 3.3230
L3.5010 3.2830
" />
<path d="M3.5010 2.0140
L3.4690 1.9720
" />
<path d="M3.5010 3.2830
L3.5310 3.2440
" />
<path d="M3.5310 2.0550
L3.5010 2.0140
" />
<path d="M3.5310 3.2440
L3.5570 3.1980
" />
<path d="M3.5570 2.0970
L3.5310 2.0550
" />
<path d="M3.5570 3.1980
L3.5840 3.1560
" />
<path d="M3.5840 2.1420
L3.5570 2.0970
" />
<path d="M3.5840 3.1560
L3.6050 3.1100
" />
<path d="M3.6050 2.1880
L3.5840 2.1420
" />
<path d="M3.6050 3.1100
L3.6290 3.0630
" />
<path d="M3.6290 2.2360
L3.6050 2.1880
" />
<path d="M3.6290 3.0630
L3.6480 3.0150
" />
<path d="M3.6480 2.2830
L3.6290 2.2360
" />
<path d="M3.6480 3.0150
L3.6640 2.9640
" />
<path d="M3.6640 2.3340
L3.6480 2.2830
" />
<path d="M3.6640 2.9640
L3.6790 2.9140
" />
<path d="M3.6790 2.3840
L3.6640 2.3340
" />
<path d="M3.6790 2.9140
L3.6900 2.8630
" />
<path d="M3.6900 2.4350
L3.6790 2.3840
" />
<path d="M3.6900 2.8630
L3.6980 2.8100
" />
<path d="M3.6980 2.4880
L3.6900 2.4350
" />
<path d="M3.6980 2.8100
L3.7060 2.7570
" />
<path d="M3.7060 2.5410
L3.6980 2.4880
" />
<path d="M3.7060 2.7570
L3.7110 2.7040
" />
<path d="M3.7110 2.5950
L3.7060 2.5410
" />
<path d="M3.7110 2.7040
L3.7120 2.6500
" />
<path d="M3.7120 2.6500
L3.7110 2.5950
" />
</g>
<g style="fill:#000000; fill-opacity:1.0000; stroke:none;">
<circle cx="3.7120" cy="2.6500" r="0.0100" /> 
<circle cx="3.7120" cy="2.6500" r="0.0100" /> 
</g>
<g style="fill:none; 
stroke:#000000; stroke-width:0.0200; stroke-opacity:1; 
stroke-linecap:round; stroke-linejoin:round;">
<path d="M17.5240 17.5240
L17.5240 0.5250
" />
</g> 
</svg>
