{
  "accessors": [
    {
      "bufferView": 0,
      "byteOffset": 0,
      "componentType": 5126,
      "normalized": false,
      "count": 236,
      "type": "VEC3",
      "max": [
        1.2999999523162842,
        0.8201672434806824,
        0.17493592202663422
      ],
      "min": [
        -1.2999999523162842,
        0.0,
        -0.17499999701976776
      ]
    },
    {
      "bufferView": 0,
      "byteOffset": 12,
      "componentType": 5126,
      "normalized": false,
      "count": 236,
      "type": "VEC3"
    },
    {
      "bufferView": 0,
      "byteOffset": 24,
      "componentType": 5126,
      "normalized": false,
      "count": 236,
      "type": "VEC2"
    },
    {
      "bufferView": 1,
      "byteOffset": 0,
      "componentType": 5123,
      "normalized": false,
      "count": 588,
      "type": "SCALAR"
    },
    {
      "bufferView": 1,
      "byteOffset": 1176,
      "componentType": 5123,
      "normalized": false,
      "count": 6,
      "type": "SCALAR"
    },
    {
      "bufferView": 1,
      "byteOffset": 1188,
      "componentType": 5123,
      "normalized": false,
      "count": 102,
      "type": "SCALAR"
    },
    {
      "bufferView": 2,
      "byteOffset": 0,
      "componentType": 5126,
      "normalized": false,
      "count": 4,
      "type": "VEC3",
      "max": [
        -0.3000030517578125,
        1.1024999618530273,
        0.574999988079071
      ],
      "min": [
        -0.800000011920929,
        1.1024999618530273,
        -0.574999988079071
      ]
    },
    {
      "bufferView": 2,
      "byteOffset": 12,
      "componentType": 5126,
      "normalized": false,
      "count": 4,
      "type": "VEC3"
    },
    {
      "bufferView": 2,
      "byteOffset": 24,
      "componentType": 5126,
      "normalized": false,
      "count": 4,
      "type": "VEC2"
    },
    {
      "bufferView": 3,
      "byteOffset": 0,
      "componentType": 5126,
      "normalized": false,
      "count": 54,
      "type": "VEC3",
      "max": [
        0.9000000357627869,
        1.1024538278579712,
        0.674972653388977
      ],
      "min": [
        -0.9000000357627869,
        0.10000000149011612,
        -0.6749999523162842
      ]
    },
    {
      "bufferView": 3,
      "byteOffset": 12,
      "componentType": 5126,
      "normalized": false,
      "count": 54,
      "type": "VEC3"
    },
    {
      "bufferView": 3,
      "byteOffset": 24,
      "componentType": 5126,
      "normalized": false,
      "count": 54,
      "type": "VEC2"
    }
  ],
  "asset": {
    "generator": "pygltflib@v1.16.4",
    "version": "2.0"
  },
  "bufferViews": [
    {
      "buffer": 0,
      "byteOffset": 0,
      "byteLength": 7552,
      "byteStride": 32,
      "target": 34962
    },
    {
      "buffer": 0,
      "byteOffset": 7552,
      "byteLength": 1392,
      "target": 34963
    },
    {
      "buffer": 0,
      "byteOffset": 8944,
      "byteLength": 128,
      "byteStride": 32,
      "target": 34962
    },
    {
      "buffer": 0,
      "byteOffset": 9072,
      "byteLength": 1728,
      "byteStride": 32,
      "target": 34962
    }
  ],
  "buffers": [
    {
      "uri": "D_SOD-323F.bin",
      "byteLength": 10800
    }
  ],
  "extensionsUsed": [
    "KHR_materials_clearcoat",
    "KHR_materials_ior",
    "KHR_materials_sheen",
    "KHR_materials_specular",
    "KHR_materials_transmission",
    "KHR_texture_basisu"
  ],
  "extensionsRequired": [
    "KHR_texture_basisu"
  ],
  "images": [
    {
      "uri": "../shared_textures/metal_connector_normal.ktx2",
      "mimeType": "image/ktx2",
      "name": "metal_connector_normal"
    },
    {
      "uri": "../shared_textures/metal_connector_color.ktx2",
      "mimeType": "image/ktx2",
      "name": "metal_connector_color"
    },
    {
      "uri": "../shared_textures/metal_connector_roughness.ktx2",
      "mimeType": "image/ktx2",
      "name": "metal_connector_roughness"
    },
    {
      "uri": "../shared_textures/white_markings_normal.ktx2",
      "mimeType": "image/ktx2",
      "name": "white_markings_normal"
    },
    {
      "uri": "../shared_textures/white_markings_color.ktx2",
      "mimeType": "image/ktx2",
      "name": "white_markings_color"
    },
    {
      "uri": "../shared_textures/plastic_matte_black_normal.ktx2",
      "mimeType": "image/ktx2",
      "name": "plastic_matte_black_normal"
    },
    {
      "uri": "../shared_textures/plastic_matte_black_color.ktx2",
      "mimeType": "image/ktx2",
      "name": "plastic_matte_black_color"
    }
  ],
  "materials": [
    {
      "extensions": {
        "KHR_materials_clearcoat": {
          "clearcoatFactor": 0,
          "clearcoatRoughnessFactor": 0.46590909361839294
        },
        "KHR_materials_ior": {
          "ior": 1
        },
        "KHR_materials_sheen": {
          "sheenColorFactor": [
            1,
            1,
            1
          ],
          "sheenRoughnessFactor": 0.5
        },
        "KHR_materials_specular": {
          "specularFactor": 0.9590908885002136
        }
      },
      "pbrMetallicRoughness": {
        "baseColorFactor": [
          1.0,
          1.0,
          1.0,
          1.0
        ],
        "metallicFactor": 1.0,
        "roughnessFactor": 1.0,
        "baseColorTexture": {
          "index": 0,
          "texCoord": 0
        },
        "metallicRoughnessTexture": {
          "index": 2,
          "texCoord": 0
        }
      },
      "normalTexture": {
        "index": 1,
        "scale": 0.5
      },
      "emissiveFactor": [
        0.0,
        0.0,
        0.0
      ],
      "alphaMode": "OPAQUE",
      "alphaCutoff": 0.5,
      "doubleSided": true,
      "name": "gltf_metal_connector"
    },
    {
      "extensions": {
        "KHR_materials_clearcoat": {
          "clearcoatFactor": 0,
          "clearcoatRoughnessFactor": 0.67090904712677
        },
        "KHR_materials_ior": {
          "ior": 1.4500000476837158
        },
        "KHR_materials_sheen": {
          "sheenColorFactor": [
            1,
            1,
            1
          ],
          "sheenRoughnessFactor": 0.5
        },
        "KHR_materials_specular": {
          "specularColorFactor": [
            1.3181817531585693,
            1.3181817531585693,
            1.3181817531585693
          ]
        },
        "KHR_materials_transmission": {
          "transmissionFactor": 0.23181819915771484
        }
      },
      "pbrMetallicRoughness": {
        "baseColorFactor": [
          1.0,
          1.0,
          1.0,
          1.0
        ],
        "metallicFactor": 0.019999999552965164,
        "roughnessFactor": 0.4636361598968506,
        "baseColorTexture": {
          "index": 3,
          "texCoord": 0
        }
      },
      "normalTexture": {
        "index": 4,
        "scale": 1.0
      },
      "emissiveFactor": [
        0.0,
        0.0,
        0.0
      ],
      "alphaMode": "OPAQUE",
      "alphaCutoff": 0.5,
      "doubleSided": true,
      "name": "gltf_white_markings"
    },
    {
      "pbrMetallicRoughness": {
        "baseColorFactor": [
          1.0,
          1.0,
          1.0,
          1.0
        ],
        "metallicFactor": 0.09154544770717621,
        "roughnessFactor": 0.4615432620048523,
        "baseColorTexture": {
          "index": 5,
          "texCoord": 0
        }
      },
      "normalTexture": {
        "index": 6,
        "scale": 1.0
      },
      "emissiveFactor": [
        0.0,
        0.0,
        0.0
      ],
      "alphaMode": "OPAQUE",
      "alphaCutoff": 0.5,
      "doubleSided": true,
      "name": "gltf_plastic_matte_black"
    }
  ],
  "meshes": [
    {
      "primitives": [
        {
          "attributes": {
            "POSITION": 0,
            "NORMAL": 1,
            "TEXCOORD_0": 2
          },
          "indices": 3,
          "mode": 4,
          "material": 0
        },
        {
          "attributes": {
            "POSITION": 6,
            "NORMAL": 7,
            "TEXCOORD_0": 8
          },
          "indices": 4,
          "mode": 4,
          "material": 1
        },
        {
          "attributes": {
            "POSITION": 9,
            "NORMAL": 10,
            "TEXCOORD_0": 11
          },
          "indices": 5,
          "mode": 4,
          "material": 2
        }
      ],
      "name": "D_SOD-323F"
    }
  ],
  "nodes": [
    {
      "extras": {
        "REF": "D",
        "PRIO": 0,
        "model_diagonal": 3.1301765784829514
      },
      "mesh": 0,
      "name": "D_SOD-323F"
    }
  ],
  "samplers": [
    {
      "magFilter": 9729,
      "minFilter": 9987,
      "wrapS": 10497,
      "wrapT": 10497
    }
  ],
  "scene": 0,
  "scenes": [
    {
      "extras": {
        "sketcher": {
          "version": [
            0,
            24,
            0
          ]
        }
      },
      "name": "Scene",
      "nodes": [
        0
      ]
    }
  ],
  "textures": [
    {
      "extensions": {
        "KHR_texture_basisu": {
          "source": 1
        }
      },
      "sampler": 0
    },
    {
      "extensions": {
        "KHR_texture_basisu": {
          "source": 0
        }
      },
      "sampler": 0
    },
    {
      "extensions": {
        "KHR_texture_basisu": {
          "source": 2
        }
      },
      "sampler": 0
    },
    {
      "extensions": {
        "KHR_texture_basisu": {
          "source": 4
        }
      },
      "sampler": 0
    },
    {
      "extensions": {
        "KHR_texture_basisu": {
          "source": 3
        }
      },
      "sampler": 0
    },
    {
      "extensions": {
        "KHR_texture_basisu": {
          "source": 6
        }
      },
      "sampler": 0
    },
    {
      "extensions": {
        "KHR_texture_basisu": {
          "source": 5
        }
      },
      "sampler": 0
    }
  ]
}