<?xml version="1.0" standalone="no"?>
 <!DOCTYPE svg PUBLIC "-//W3C//DTD SVG 1.1//EN" 
 "http://www.w3.org/Graphics/SVG/1.1/DTD/svg11.dtd"> 
<svg
  xmlns:svg="http://www.w3.org/2000/svg"
  xmlns="http://www.w3.org/2000/svg"
  xmlns:xlink="http://www.w3.org/1999/xlink"
  version="1.1"
  width="7.0358mm" height="9.0424mm" viewBox="0.0000 0.0000 7.0358 9.0424">
<title>SVG Image created as outline.svg date 2025/04/04 10:06:31 </title>
  <desc>Image generated by PCBNEW </desc>
<g style="fill:#000000; fill-opacity:1.0000;stroke:#000000; stroke-opacity:1.0000;
stroke-linecap:round; stroke-linejoin:round;"
 transform="translate(0 0) scale(1 1)">
</g>
<g style="fill:none; 
stroke:#000000; stroke-width:0.0200; stroke-opacity:1; 
stroke-linecap:round; stroke-linejoin:round;">
<path d="M0.5250 0.5620
L0.5250 0.5630
" />
<path d="M0.5250 0.5620
L0.5250 0.5630
" />
<path d="M0.5250 0.5630
L0.5250 0.5660
" />
<path d="M0.5250 0.5630
L0.5250 0.5660
" />
<path d="M0.5250 0.5660
L0.5250 0.5690
" />
<path d="M0.5250 0.5660
L0.5250 0.5690
" />
<path d="M0.5250 0.5690
L0.5250 0.5710
" />
<path d="M0.5250 0.5690
L0.5250 0.5710
" />
<path d="M0.5250 0.5710
L0.5250 0.5740
" />
<path d="M0.5250 0.5710
L0.5250 0.5740
" />
<path d="M0.5250 0.5740
L0.5250 8.4750
" />
<path d="M0.5250 8.4750
L0.5250 0.5740
" />
<path d="M0.5250 8.4750
L0.5250 8.4760
" />
<path d="M0.5250 8.4760
L0.5250 8.4790
" />
<path d="M0.5250 8.4790
L0.5250 8.4820
" />
<path d="M0.5250 8.4820
L0.5250 8.4840
" />
<path d="M0.5250 8.4840
L0.5250 8.4870
" />
<path d="M0.5250 8.4870
L0.5260 8.4880
" />
<path d="M0.5260 0.5590
L0.5250 0.5620
" />
<path d="M0.5260 0.5590
L0.5250 0.5620
" />
<path d="M0.5260 8.4880
L0.5280 8.4910
" />
<path d="M0.5280 0.5540
L0.5280 0.5570
" />
<path d="M0.5280 0.5540
L0.5280 0.5570
" />
<path d="M0.5280 0.5570
L0.5260 0.5590
" />
<path d="M0.5280 0.5570
L0.5260 0.5590
" />
<path d="M0.5280 8.4910
L0.5280 8.4930
" />
<path d="M0.5280 8.4930
L0.5290 8.4960
" />
<path d="M0.5290 0.5530
L0.5280 0.5540
" />
<path d="M0.5290 0.5530
L0.5280 0.5540
" />
<path d="M0.5290 8.4960
L0.5300 8.4970
" />
<path d="M0.5300 0.5500
L0.5290 0.5530
" />
<path d="M0.5300 0.5500
L0.5290 0.5530
" />
<path d="M0.5300 8.4970
L0.5320 8.5000
" />
<path d="M0.5320 0.5490
L0.5300 0.5500
" />
<path d="M0.5320 0.5490
L0.5300 0.5500
" />
<path d="M0.5320 8.5000
L0.5330 8.5010
" />
<path d="M0.5330 0.5450
L0.5330 0.5460
" />
<path d="M0.5330 0.5450
L0.5330 0.5460
" />
<path d="M0.5330 0.5460
L0.5320 0.5490
" />
<path d="M0.5330 0.5460
L0.5320 0.5490
" />
<path d="M0.5330 8.5010
L0.5330 8.5040
" />
<path d="M0.5330 8.5040
L0.5360 8.5050
" />
<path d="M0.5360 0.5420
L0.5330 0.5450
" />
<path d="M0.5360 0.5420
L0.5330 0.5450
" />
<path d="M0.5360 8.5050
L0.5370 8.5080
" />
<path d="M0.5370 0.5410
L0.5360 0.5420
" />
<path d="M0.5370 0.5410
L0.5360 0.5420
" />
<path d="M0.5370 8.5080
L0.5380 8.5090
" />
<path d="M0.5380 0.5380
L0.5370 0.5410
" />
<path d="M0.5380 0.5380
L0.5370 0.5410
" />
<path d="M0.5380 8.5090
L0.5410 8.5120
" />
<path d="M0.5410 0.5370
L0.5380 0.5380
" />
<path d="M0.5410 0.5370
L0.5380 0.5380
" />
<path d="M0.5410 8.5120
L0.5420 8.5120
" />
<path d="M0.5420 0.5360
L0.5410 0.5370
" />
<path d="M0.5420 0.5360
L0.5410 0.5370
" />
<path d="M0.5420 8.5120
L0.5450 8.5150
" />
<path d="M0.5450 0.5330
L0.5420 0.5360
" />
<path d="M0.5450 0.5330
L0.5420 0.5360
" />
<path d="M0.5450 8.5150
L0.5460 8.5160
" />
<path d="M0.5460 0.5330
L0.5450 0.5330
" />
<path d="M0.5460 0.5330
L0.5450 0.5330
" />
<path d="M0.5460 8.5160
L0.5490 8.5160
" />
<path d="M0.5490 0.5320
L0.5460 0.5330
" />
<path d="M0.5490 0.5320
L0.5460 0.5330
" />
<path d="M0.5490 8.5160
L0.5500 8.5170
" />
<path d="M0.5500 0.5300
L0.5490 0.5320
" />
<path d="M0.5500 0.5300
L0.5490 0.5320
" />
<path d="M0.5500 8.5170
L0.5530 8.5200
" />
<path d="M0.5530 0.5290
L0.5500 0.5300
" />
<path d="M0.5530 0.5290
L0.5500 0.5300
" />
<path d="M0.5530 8.5200
L0.5540 8.5200
" />
<path d="M0.5540 0.5280
L0.5530 0.5290
" />
<path d="M0.5540 0.5280
L0.5530 0.5290
" />
<path d="M0.5540 8.5200
L0.5570 8.5200
" />
<path d="M0.5570 0.5280
L0.5540 0.5280
" />
<path d="M0.5570 0.5280
L0.5540 0.5280
" />
<path d="M0.5570 8.5200
L0.5600 8.5210
" />
<path d="M0.5600 0.5260
L0.5570 0.5280
" />
<path d="M0.5600 0.5260
L0.5570 0.5280
" />
<path d="M0.5600 8.5210
L0.5610 8.5230
" />
<path d="M0.5610 0.5250
L0.5600 0.5260
" />
<path d="M0.5610 0.5250
L0.5600 0.5260
" />
<path d="M0.5610 8.5230
L0.5640 8.5230
" />
<path d="M0.5640 0.5250
L0.5610 0.5250
" />
<path d="M0.5640 0.5250
L0.5610 0.5250
" />
<path d="M0.5640 8.5230
L0.5660 8.5240
" />
<path d="M0.5660 0.5250
L0.5640 0.5250
" />
<path d="M0.5660 0.5250
L0.5640 0.5250
" />
<path d="M0.5660 8.5240
L0.5690 8.5240
" />
<path d="M0.5690 0.5250
L0.5660 0.5250
" />
<path d="M0.5690 0.5250
L0.5660 0.5250
" />
<path d="M0.5690 8.5240
L0.5720 8.5240
" />
<path d="M0.5720 0.5250
L0.5690 0.5250
" />
<path d="M0.5720 0.5250
L0.5690 0.5250
" />
<path d="M0.5720 8.5240
L0.5730 8.5240
" />
<path d="M0.5730 0.5250
L0.5720 0.5250
" />
<path d="M0.5730 0.5250
L0.5720 0.5250
" />
<path d="M0.5730 0.5250
L6.4750 0.5250
" />
<path d="M1.2240 1.5090
L1.2260 1.4930
" />
<path d="M1.2240 1.5250
L1.2240 1.5090
" />
</g>
<g style="fill:#000000; fill-opacity:1.0000; stroke:none;">
<circle cx="1.2240" cy="1.5250" r="0.0100" /> 
</g>
<g style="fill:none; 
stroke:#000000; stroke-width:0.0200; stroke-opacity:1; 
stroke-linecap:round; stroke-linejoin:round;">
<path d="M1.2240 1.5400
L1.2240 1.5250
" />
<path d="M1.2260 1.4930
L1.2270 1.4780
" />
<path d="M1.2260 1.5540
L1.2240 1.5400
" />
<path d="M1.2270 1.4780
L1.2310 1.4640
" />
<path d="M1.2270 1.5690
L1.2260 1.5540
" />
<path d="M1.2310 1.4640
L1.2340 1.4490
" />
<path d="M1.2310 1.5850
L1.2270 1.5690
" />
<path d="M1.2340 1.4490
L1.2380 1.4350
" />
<path d="M1.2340 1.5980
L1.2310 1.5850
" />
<path d="M1.2380 1.4350
L1.2430 1.4200
" />
<path d="M1.2380 1.6140
L1.2340 1.5980
" />
<path d="M1.2430 1.4200
L1.2470 1.4080
" />
<path d="M1.2430 1.6270
L1.2380 1.6140
" />
<path d="M1.2470 1.4080
L1.2540 1.3930
" />
<path d="M1.2470 1.6410
L1.2430 1.6270
" />
<path d="M1.2540 1.3930
L1.2600 1.3810
" />
<path d="M1.2540 1.6540
L1.2470 1.6410
" />
<path d="M1.2600 1.3810
L1.2670 1.3680
" />
<path d="M1.2600 1.6660
L1.2540 1.6540
" />
<path d="M1.2670 1.3680
L1.2750 1.3560
" />
<path d="M1.2670 1.6790
L1.2600 1.6660
" />
<path d="M1.2750 1.3560
L1.2830 1.3440
" />
<path d="M1.2750 1.5080
L1.2750 1.5250
" />
<path d="M1.2750 1.5250
L1.2750 1.5410
" />
<path d="M1.2750 1.5410
L1.2760 1.5570
" />
<path d="M1.2750 1.6910
L1.2670 1.6790
" />
<path d="M1.2760 1.4920
L1.2750 1.5080
" />
<path d="M1.2760 1.5570
L1.2790 1.5730
" />
<path d="M1.2790 1.4760
L1.2760 1.4920
" />
<path d="M1.2790 1.5730
L1.2830 1.5890
" />
<path d="M1.2830 1.3440
L1.2920 1.3330
" />
<path d="M1.2830 1.4600
L1.2790 1.4760
" />
<path d="M1.2830 1.5890
L1.2870 1.6030
" />
<path d="M1.2830 1.7030
L1.2750 1.6910
" />
<path d="M1.2870 1.4440
L1.2830 1.4600
" />
<path d="M1.2870 1.6030
L1.2920 1.6190
" />
<path d="M1.2920 1.3330
L1.3030 1.3230
" />
<path d="M1.2920 1.4280
L1.2870 1.4440
" />
<path d="M1.2920 1.6190
L1.2990 1.6340
" />
<path d="M1.2920 1.7150
L1.2830 1.7030
" />
<path d="M1.2990 1.4130
L1.2920 1.4280
" />
<path d="M1.2990 1.6340
L1.3070 1.6500
" />
<path d="M1.3030 1.3230
L1.3110 1.3110
" />
<path d="M1.3030 1.7260
L1.2920 1.7150
" />
<path d="M1.3070 1.4000
L1.2990 1.4130
" />
</g>
<g style="fill:#000000; fill-opacity:1.0000; stroke:none;">
<circle cx="1.3070" cy="1.4000" r="0.0100" /> 
<circle cx="1.3070" cy="1.6500" r="0.0100" /> 
</g>
<g style="fill:none; 
stroke:#000000; stroke-width:0.0200; stroke-opacity:1; 
stroke-linecap:round; stroke-linejoin:round;">
<path d="M1.3070 1.6500
L1.3110 1.6570
" />
<path d="M1.3110 1.3110
L1.3230 1.3020
" />
<path d="M1.3110 1.6570
L1.3160 1.6630
" />
<path d="M1.3110 1.7360
L1.3030 1.7260
" />
<path d="M1.3160 1.3840
L1.3070 1.4000
" />
<path d="M1.3160 1.6630
L1.3220 1.6700
" />
<path d="M1.3220 1.6700
L1.3260 1.6770
" />
<path d="M1.3230 1.3020
L1.3340 1.2920
" />
<path d="M1.3230 1.7470
L1.3110 1.7360
" />
<path d="M1.3260 1.3720
L1.3160 1.3840
" />
<path d="M1.3260 1.6770
L1.3310 1.6830
" />
<path d="M1.3310 1.6830
L1.3360 1.6900
" />
<path d="M1.3340 1.2920
L1.3440 1.2830
" />
<path d="M1.3340 1.7550
L1.3230 1.7470
" />
<path d="M1.3360 1.3590
L1.3260 1.3720
" />
<path d="M1.3360 1.6900
L1.3420 1.6950
" />
<path d="M1.3420 1.6950
L1.3470 1.7020
" />
<path d="M1.3440 1.2830
L1.3560 1.2750
" />
<path d="M1.3440 1.7640
L1.3340 1.7550
" />
<path d="M1.3470 1.3470
L1.3360 1.3590
" />
<path d="M1.3470 1.7020
L1.3530 1.7060
" />
<path d="M1.3530 1.7060
L1.3600 1.7120
" />
<path d="M1.3560 1.2750
L1.3680 1.2670
" />
<path d="M1.3560 1.7720
L1.3440 1.7640
" />
<path d="M1.3600 1.3360
L1.3470 1.3470
" />
<path d="M1.3600 1.7120
L1.3650 1.7180
" />
<path d="M1.3650 1.7180
L1.3720 1.7230
" />
<path d="M1.3680 1.2670
L1.3810 1.2600
" />
<path d="M1.3680 1.7800
L1.3560 1.7720
" />
<path d="M1.3720 1.3250
L1.3600 1.3360
" />
<path d="M1.3720 1.7230
L1.3790 1.7270
" />
<path d="M1.3790 1.7270
L1.3850 1.7310
" />
<path d="M1.3810 1.2600
L1.3930 1.2540
" />
<path d="M1.3810 1.7870
L1.3680 1.7800
" />
<path d="M1.3850 1.3160
L1.3720 1.3250
" />
<path d="M1.3850 1.7310
L1.3920 1.7360
" />
<path d="M1.3920 1.7360
L1.4000 1.7400
" />
<path d="M1.3930 1.2540
L1.4080 1.2470
" />
<path d="M1.3930 1.7950
L1.3810 1.7870
" />
<path d="M1.4000 1.3070
L1.3850 1.3160
" />
<path d="M1.4000 1.7400
L1.4070 1.7440
" />
<path d="M1.4070 1.7440
L1.4130 1.7480
" />
<path d="M1.4080 1.2470
L1.4200 1.2430
" />
<path d="M1.4080 1.8000
L1.3930 1.7950
" />
<path d="M1.4130 1.2990
L1.4000 1.3070
" />
<path d="M1.4130 1.7480
L1.4200 1.7510
" />
<path d="M1.4200 1.2430
L1.4350 1.2380
" />
<path d="M1.4200 1.7510
L1.4280 1.7550
" />
<path d="M1.4200 1.8060
L1.4080 1.8000
" />
<path d="M1.4280 1.2940
L1.4130 1.2990
" />
<path d="M1.4280 1.7550
L1.4360 1.7580
" />
<path d="M1.4350 1.2380
L1.4490 1.2340
" />
<path d="M1.4350 1.8110
L1.4200 1.8060
" />
<path d="M1.4360 1.7580
L1.4440 1.7600
" />
<path d="M1.4440 1.2870
L1.4280 1.2940
" />
<path d="M1.4440 1.7600
L1.4510 1.7630
" />
<path d="M1.4490 1.2340
L1.4640 1.2310
" />
<path d="M1.4490 1.8150
L1.4350 1.8110
" />
<path d="M1.4510 1.7630
L1.4590 1.7660
" />
<path d="M1.4590 1.2830
L1.4440 1.2870
" />
<path d="M1.4590 1.7660
L1.4670 1.7670
" />
<path d="M1.4640 1.2310
L1.4780 1.2270
" />
<path d="M1.4640 1.8180
L1.4490 1.8150
" />
<path d="M1.4670 1.7670
L1.4750 1.7700
" />
<path d="M1.4750 1.2790
L1.4590 1.2830
" />
<path d="M1.4750 1.7700
L1.4820 1.7710
" />
<path d="M1.4780 1.2270
L1.4930 1.2260
" />
<path d="M1.4780 1.8200
L1.4640 1.8180
" />
<path d="M1.4820 1.7710
L1.4900 1.7710
" />
<path d="M1.4900 1.2760
L1.4750 1.2790
" />
<path d="M1.4900 1.7710
L1.5000 1.7720
" />
<path d="M1.4930 1.2260
L1.5090 1.2240
" />
<path d="M1.4930 1.8230
L1.4780 1.8200
" />
<path d="M1.5000 1.7720
L1.5080 1.7740
" />
<path d="M1.5080 1.2750
L1.4900 1.2760
" />
<path d="M1.5080 1.7740
L1.5160 1.7740
" />
<path d="M1.5090 1.2240
L1.5240 1.2240
" />
<path d="M1.5090 1.8230
L1.4930 1.8230
" />
<path d="M1.5160 1.7740
L1.5250 1.7750
" />
<path d="M1.5250 1.2240
L1.5390 1.2240
" />
<path d="M1.5250 1.2750
L1.5080 1.2750
" />
<path d="M1.5250 1.7750
L1.5410 1.7740
" />
<path d="M1.5250 1.8230
L1.5090 1.8230
" />
<path d="M1.5330 1.2750
L1.5250 1.2750
" />
<path d="M1.5390 1.2240
L1.5550 1.2260
" />
<path d="M1.5390 1.8230
L1.5250 1.8230
" />
<path d="M1.5410 1.2750
L1.5330 1.2750
" />
<path d="M1.5410 1.7740
L1.5570 1.7710
" />
<path d="M1.5490 1.2750
L1.5410 1.2750
" />
<path d="M1.5550 1.2260
L1.5690 1.2270
" />
<path d="M1.5550 1.8230
L1.5390 1.8230
" />
<path d="M1.5570 1.2760
L1.5490 1.2750
" />
<path d="M1.5570 1.7710
L1.5730 1.7700
" />
<path d="M1.5650 1.2780
L1.5570 1.2760
" />
<path d="M1.5690 1.2270
L1.5850 1.2310
" />
<path d="M1.5690 1.8200
L1.5550 1.8230
" />
<path d="M1.5730 1.2790
L1.5650 1.2780
" />
<path d="M1.5730 1.7700
L1.5890 1.7660
" />
<path d="M1.5810 1.2800
L1.5730 1.2790
" />
<path d="M1.5850 1.2310
L1.5990 1.2340
" />
<path d="M1.5850 1.8180
L1.5690 1.8200
" />
<path d="M1.5890 1.2830
L1.5810 1.2800
" />
<path d="M1.5890 1.7660
L1.6050 1.7600
" />
<path d="M1.5970 1.2840
L1.5890 1.2830
" />
<path d="M1.5990 1.2340
L1.6140 1.2380
" />
<path d="M1.5990 1.8150
L1.5850 1.8180
" />
<path d="M1.6050 1.2870
L1.5970 1.2840
" />
<path d="M1.6050 1.7600
L1.6200 1.7550
" />
<path d="M1.6120 1.2910
L1.6050 1.2870
" />
<path d="M1.6140 1.2380
L1.6280 1.2430
" />
<path d="M1.6140 1.8110
L1.5990 1.8150
" />
<path d="M1.6200 1.2940
L1.6120 1.2910
" />
<path d="M1.6200 1.7550
L1.6340 1.7480
" />
<path d="M1.6280 1.2430
L1.6400 1.2470
" />
<path d="M1.6280 1.2960
L1.6200 1.2940
" />
<path d="M1.6280 1.8060
L1.6140 1.8110
" />
<path d="M1.6340 1.2990
L1.6280 1.2960
" />
<path d="M1.6340 1.7480
L1.6500 1.7400
" />
<path d="M1.6400 1.2470
L1.6540 1.2540
" />
<path d="M1.6400 1.8000
L1.6280 1.8060
" />
<path d="M1.6420 1.3030
L1.6340 1.2990
" />
<path d="M1.6500 1.3070
L1.6420 1.3030
" />
<path d="M1.6500 1.7400
L1.6620 1.7310
" />
<path d="M1.6540 1.2540
L1.6660 1.2600
" />
<path d="M1.6540 1.7950
L1.6400 1.8000
" />
<path d="M1.6560 1.3110
L1.6500 1.3070
" />
<path d="M1.6620 1.3160
L1.6560 1.3110
" />
<path d="M1.6620 1.7310
L1.6760 1.7230
" />
<path d="M1.6660 1.2600
L1.6800 1.2670
" />
<path d="M1.6660 1.7870
L1.6540 1.7950
" />
<path d="M1.6700 1.3200
L1.6620 1.3160
" />
<path d="M1.6760 1.3250
L1.6700 1.3200
" />
<path d="M1.6760 1.7230
L1.6880 1.7120
" />
<path d="M1.6800 1.2670
L1.6920 1.2750
" />
<path d="M1.6800 1.7800
L1.6660 1.7870
" />
<path d="M1.6820 1.3310
L1.6760 1.3250
" />
<path d="M1.6880 1.3360
L1.6820 1.3310
" />
<path d="M1.6880 1.7120
L1.7000 1.7020
" />
<path d="M1.6920 1.2750
L1.7040 1.2830
" />
<path d="M1.6920 1.7720
L1.6800 1.7800
" />
<path d="M1.6940 1.3410
L1.6880 1.3360
" />
<path d="M1.7000 1.3470
L1.6940 1.3410
" />
<path d="M1.7000 1.7020
L1.7120 1.6900
" />
<path d="M1.7040 1.2830
L1.7140 1.2920
" />
<path d="M1.7040 1.7640
L1.6920 1.7720
" />
<path d="M1.7060 1.3520
L1.7000 1.3470
" />
<path d="M1.7120 1.3590
L1.7060 1.3520
" />
<path d="M1.7120 1.6900
L1.7220 1.6770
" />
<path d="M1.7140 1.2920
L1.7260 1.3020
" />
<path d="M1.7140 1.7550
L1.7040 1.7640
" />
<path d="M1.7160 1.3640
L1.7120 1.3590
" />
<path d="M1.7220 1.3720
L1.7160 1.3640
" />
<path d="M1.7220 1.6770
L1.7320 1.6630
" />
<path d="M1.7260 1.3020
L1.7370 1.3110
" />
<path d="M1.7260 1.3790
L1.7220 1.3720
" />
<path d="M1.7260 1.7470
L1.7140 1.7550
" />
<path d="M1.7320 1.3840
L1.7260 1.3790
" />
<path d="M1.7320 1.6630
L1.7410 1.6500
" />
<path d="M1.7370 1.3110
L1.7450 1.3230
" />
<path d="M1.7370 1.3920
L1.7320 1.3840
" />
<path d="M1.7370 1.7360
L1.7260 1.7470
" />
<path d="M1.7410 1.4000
L1.7370 1.3920
" />
</g>
<g style="fill:#000000; fill-opacity:1.0000; stroke:none;">
<circle cx="1.7410" cy="1.4000" r="0.0100" /> 
<circle cx="1.7410" cy="1.6500" r="0.0100" /> 
</g>
<g style="fill:none; 
stroke:#000000; stroke-width:0.0200; stroke-opacity:1; 
stroke-linecap:round; stroke-linejoin:round;">
<path d="M1.7410 1.6500
L1.7490 1.6340
" />
<path d="M1.7450 1.3230
L1.7550 1.3330
" />
<path d="M1.7450 1.7260
L1.7370 1.7360
" />
<path d="M1.7490 1.4130
L1.7410 1.4000
" />
<path d="M1.7490 1.6340
L1.7550 1.6190
" />
<path d="M1.7550 1.3330
L1.7650 1.3440
" />
<path d="M1.7550 1.4280
L1.7490 1.4130
" />
<path d="M1.7550 1.6190
L1.7610 1.6030
" />
<path d="M1.7550 1.7150
L1.7450 1.7260
" />
<path d="M1.7610 1.4440
L1.7550 1.4280
" />
<path d="M1.7610 1.6030
L1.7650 1.5890
" />
<path d="M1.7650 1.3440
L1.7730 1.3560
" />
<path d="M1.7650 1.4600
L1.7610 1.4440
" />
<path d="M1.7650 1.5890
L1.7690 1.5730
" />
<path d="M1.7650 1.7030
L1.7550 1.7150
" />
<path d="M1.7690 1.4760
L1.7650 1.4600
" />
<path d="M1.7690 1.5730
L1.7710 1.5570
" />
<path d="M1.7710 1.4920
L1.7690 1.4760
" />
<path d="M1.7710 1.5570
L1.7730 1.5410
" />
<path d="M1.7730 1.3560
L1.7810 1.3680
" />
<path d="M1.7730 1.5080
L1.7710 1.4920
" />
<path d="M1.7730 1.5410
L1.7750 1.5250
" />
<path d="M1.7730 1.6910
L1.7650 1.7030
" />
<path d="M1.7750 1.5250
L1.7730 1.5080
" />
<path d="M1.7810 1.3680
L1.7870 1.3810
" />
<path d="M1.7810 1.6790
L1.7730 1.6910
" />
<path d="M1.7870 1.3810
L1.7950 1.3930
" />
<path d="M1.7870 1.6660
L1.7810 1.6790
" />
<path d="M1.7950 1.3930
L1.8010 1.4080
" />
<path d="M1.7950 1.6540
L1.7870 1.6660
" />
<path d="M1.8010 1.4080
L1.8050 1.4200
" />
<path d="M1.8010 1.6410
L1.7950 1.6540
" />
<path d="M1.8050 1.4200
L1.8110 1.4350
" />
<path d="M1.8050 1.6270
L1.8010 1.6410
" />
<path d="M1.8110 1.4350
L1.8150 1.4490
" />
<path d="M1.8110 1.6140
L1.8050 1.6270
" />
<path d="M1.8150 1.4490
L1.8170 1.4640
" />
<path d="M1.8150 1.5980
L1.8110 1.6140
" />
<path d="M1.8170 1.4640
L1.8210 1.4780
" />
<path d="M1.8170 1.5850
L1.8150 1.5980
" />
<path d="M1.8210 1.4780
L1.8230 1.4930
" />
<path d="M1.8210 1.5690
L1.8170 1.5850
" />
<path d="M1.8230 1.4930
L1.8230 1.5090
" />
<path d="M1.8230 1.5090
L1.8230 1.5240
" />
</g>
<g style="fill:#000000; fill-opacity:1.0000; stroke:none;">
<circle cx="1.8230" cy="1.5240" r="0.0100" /> 
</g>
<g style="fill:none; 
stroke:#000000; stroke-width:0.0200; stroke-opacity:1; 
stroke-linecap:round; stroke-linejoin:round;">
<path d="M1.8230 1.5240
L1.8230 1.5400
" />
<path d="M1.8230 1.5400
L1.8230 1.5540
" />
<path d="M1.8230 1.5540
L1.8210 1.5690
" />
<path d="M6.4750 8.5240
L0.5730 8.5240
" />
<path d="M6.4750 8.5240
L6.4760 8.5240
" />
<path d="M6.4750 8.5240
L6.4760 8.5240
" />
<path d="M6.4760 0.5250
L6.4750 0.5250
" />
<path d="M6.4760 8.5240
L6.4800 8.5240
" />
<path d="M6.4760 8.5240
L6.4800 8.5240
" />
<path d="M6.4800 0.5250
L6.4760 0.5250
" />
<path d="M6.4800 8.5240
L6.4810 8.5240
" />
<path d="M6.4800 8.5240
L6.4810 8.5240
" />
<path d="M6.4810 0.5250
L6.4800 0.5250
" />
<path d="M6.4810 8.5240
L6.4840 8.5230
" />
<path d="M6.4810 8.5240
L6.4840 8.5230
" />
<path d="M6.4840 0.5250
L6.4810 0.5250
" />
<path d="M6.4840 8.5230
L6.4870 8.5230
" />
<path d="M6.4840 8.5230
L6.4870 8.5230
" />
<path d="M6.4870 0.5250
L6.4840 0.5250
" />
<path d="M6.4870 8.5230
L6.4880 8.5210
" />
<path d="M6.4870 8.5230
L6.4880 8.5210
" />
<path d="M6.4880 0.5260
L6.4870 0.5250
" />
<path d="M6.4880 8.5210
L6.4920 8.5200
" />
<path d="M6.4880 8.5210
L6.4920 8.5200
" />
<path d="M6.4920 0.5280
L6.4880 0.5260
" />
<path d="M6.4920 8.5200
L6.4930 8.5200
" />
<path d="M6.4920 8.5200
L6.4930 8.5200
" />
<path d="M6.4930 0.5280
L6.4920 0.5280
" />
<path d="M6.4930 8.5200
L6.4960 8.5200
" />
<path d="M6.4930 8.5200
L6.4960 8.5200
" />
<path d="M6.4960 0.5290
L6.4930 0.5280
" />
<path d="M6.4960 8.5200
L6.4970 8.5170
" />
<path d="M6.4960 8.5200
L6.4970 8.5170
" />
<path d="M6.4970 0.5300
L6.4960 0.5290
" />
<path d="M6.4970 8.5170
L6.5000 8.5160
" />
<path d="M6.4970 8.5170
L6.5000 8.5160
" />
<path d="M6.5000 0.5320
L6.4970 0.5300
" />
<path d="M6.5000 8.5160
L6.5010 8.5160
" />
<path d="M6.5000 8.5160
L6.5010 8.5160
" />
<path d="M6.5010 0.5330
L6.5000 0.5320
" />
<path d="M6.5010 8.5160
L6.5040 8.5150
" />
<path d="M6.5010 8.5160
L6.5040 8.5150
" />
<path d="M6.5040 0.5330
L6.5010 0.5330
" />
<path d="M6.5040 8.5150
L6.5050 8.5120
" />
<path d="M6.5040 8.5150
L6.5050 8.5120
" />
<path d="M6.5050 0.5360
L6.5040 0.5330
" />
<path d="M6.5050 8.5120
L6.5080 8.5120
" />
<path d="M6.5050 8.5120
L6.5080 8.5120
" />
<path d="M6.5080 0.5370
L6.5050 0.5360
" />
<path d="M6.5080 8.5120
L6.5090 8.5090
" />
<path d="M6.5080 8.5120
L6.5090 8.5090
" />
<path d="M6.5090 0.5380
L6.5080 0.5370
" />
<path d="M6.5090 8.5090
L6.5120 8.5080
" />
<path d="M6.5090 8.5090
L6.5120 8.5080
" />
<path d="M6.5120 0.5410
L6.5090 0.5380
" />
<path d="M6.5120 0.5420
L6.5120 0.5410
" />
<path d="M6.5120 8.5050
L6.5150 8.5040
" />
<path d="M6.5120 8.5050
L6.5150 8.5040
" />
<path d="M6.5120 8.5080
L6.5120 8.5050
" />
<path d="M6.5120 8.5080
L6.5120 8.5050
" />
<path d="M6.5150 0.5450
L6.5120 0.5420
" />
<path d="M6.5150 8.5040
L6.5160 8.5010
" />
<path d="M6.5150 8.5040
L6.5160 8.5010
" />
<path d="M6.5160 0.5460
L6.5150 0.5450
" />
<path d="M6.5160 0.5490
L6.5160 0.5460
" />
<path d="M6.5160 8.5000
L6.5170 8.4970
" />
<path d="M6.5160 8.5000
L6.5170 8.4970
" />
<path d="M6.5160 8.5010
L6.5160 8.5000
" />
<path d="M6.5160 8.5010
L6.5160 8.5000
" />
<path d="M6.5170 0.5500
L6.5160 0.5490
" />
<path d="M6.5170 8.4970
L6.5200 8.4960
" />
<path d="M6.5170 8.4970
L6.5200 8.4960
" />
<path d="M6.5200 0.5530
L6.5170 0.5500
" />
<path d="M6.5200 0.5540
L6.5200 0.5530
" />
<path d="M6.5200 0.5570
L6.5200 0.5540
" />
<path d="M6.5200 8.4910
L6.5210 8.4880
" />
<path d="M6.5200 8.4910
L6.5210 8.4880
" />
<path d="M6.5200 8.4930
L6.5200 8.4910
" />
<path d="M6.5200 8.4930
L6.5200 8.4910
" />
<path d="M6.5200 8.4960
L6.5200 8.4930
" />
<path d="M6.5200 8.4960
L6.5200 8.4930
" />
<path d="M6.5210 0.5590
L6.5200 0.5570
" />
<path d="M6.5210 8.4880
L6.5230 8.4870
" />
<path d="M6.5210 8.4880
L6.5230 8.4870
" />
<path d="M6.5230 0.5620
L6.5210 0.5590
" />
<path d="M6.5230 0.5630
L6.5230 0.5620
" />
<path d="M6.5230 8.4840
L6.5240 8.4820
" />
<path d="M6.5230 8.4840
L6.5240 8.4820
" />
<path d="M6.5230 8.4870
L6.5230 8.4840
" />
<path d="M6.5230 8.4870
L6.5230 8.4840
" />
<path d="M6.5240 0.5660
L6.5230 0.5630
" />
<path d="M6.5240 0.5690
L6.5240 0.5660
" />
<path d="M6.5240 0.5710
L6.5240 0.5690
" />
<path d="M6.5240 0.5740
L6.5240 0.5710
" />
<path d="M6.5240 0.5740
L6.5240 8.4750
" />
<path d="M6.5240 8.4750
L6.5240 0.5740
" />
<path d="M6.5240 8.4760
L6.5240 8.4750
" />
<path d="M6.5240 8.4760
L6.5240 8.4750
" />
<path d="M6.5240 8.4790
L6.5240 8.4760
" />
<path d="M6.5240 8.4790
L6.5240 8.4760
" />
<path d="M6.5240 8.4820
L6.5240 8.4790
" />
<path d="M6.5240 8.4820
L6.5240 8.4790
" />
</g> 
</svg>
