<?xml version="1.0" standalone="no"?>
 <!DOCTYPE svg PUBLIC "-//W3C//DTD SVG 1.1//EN" 
 "http://www.w3.org/Graphics/SVG/1.1/DTD/svg11.dtd"> 
<svg
  xmlns:svg="http://www.w3.org/2000/svg"
  xmlns="http://www.w3.org/2000/svg"
  xmlns:xlink="http://www.w3.org/1999/xlink"
  version="1.1"
  width="4.0386mm" height="3.8354mm" viewBox="0.0000 0.0000 4.0386 3.8354">
<title>SVG Image created as outline.svg date 2025/04/04 10:06:33 </title>
  <desc>Image generated by PCBNEW </desc>
<g style="fill:#000000; fill-opacity:1.0000;stroke:#000000; stroke-opacity:1.0000;
stroke-linecap:round; stroke-linejoin:round;"
 transform="translate(0 0) scale(1 1)">
</g>
<g style="fill:none; 
stroke:#000000; stroke-width:0.1000; stroke-opacity:1; 
stroke-linecap:round; stroke-linejoin:round;">
<path d="M0.2750 0.2750
L0.2750 3.5750
" />
<path d="M0.2750 0.2750
L0.2750 3.5750
" />
<path d="M0.2750 3.5750
L0.2784 3.6009
" />
<path d="M0.2784 0.2491
L0.2750 0.2750
" />
<path d="M0.2784 3.6009
L0.2884 3.6250
" />
<path d="M0.2884 0.2250
L0.2784 0.2491
" />
<path d="M0.2884 3.6250
L0.3043 3.6457
" />
<path d="M0.3043 0.2043
L0.2884 0.2250
" />
<path d="M0.3043 3.6457
L0.3250 3.6616
" />
<path d="M0.3250 0.1884
L0.3043 0.2043
" />
<path d="M0.3250 3.6616
L0.3491 3.6716
" />
<path d="M0.3491 0.1784
L0.3250 0.1884
" />
<path d="M0.3491 3.6716
L0.3750 3.6750
" />
<path d="M0.3750 0.1750
L0.3491 0.1784
" />
<path d="M0.3750 3.6750
L3.6750 3.6750
" />
<path d="M0.3750 3.6750
L3.6750 3.6750
" />
<path d="M0.5250 0.5750
L0.5250 3.2750
" />
<path d="M0.5250 0.5750
L0.5250 3.2750
" />
<path d="M0.5250 3.2750
L3.5250 3.2750
" />
<path d="M0.5250 3.2750
L3.5250 3.2750
" />
<path d="M0.5759 0.3614
L0.5833 0.3352
" />
<path d="M0.5759 0.3886
L0.5759 0.3614
" />
<path d="M0.5833 0.3352
L0.5974 0.3119
" />
<path d="M0.5833 0.4148
L0.5759 0.3886
" />
<path d="M0.5974 0.3119
L0.6173 0.2933
" />
<path d="M0.5974 0.4381
L0.5833 0.4148
" />
<path d="M0.6173 0.2933
L0.6415 0.2808
" />
<path d="M0.6173 0.4567
L0.5974 0.4381
" />
<path d="M0.6415 0.2808
L0.6682 0.2752
" />
<path d="M0.6415 0.4692
L0.6173 0.4567
" />
<path d="M0.6682 0.2752
L0.6953 0.2771
" />
<path d="M0.6682 0.4748
L0.6415 0.4692
" />
<path d="M0.6953 0.2771
L0.7210 0.2862
" />
<path d="M0.6953 0.4729
L0.6682 0.4748
" />
<path d="M0.7210 0.2862
L0.7433 0.3019
" />
<path d="M0.7210 0.4638
L0.6953 0.4729
" />
<path d="M0.7433 0.3019
L0.7604 0.3230
" />
<path d="M0.7433 0.4481
L0.7210 0.4638
" />
<path d="M0.7604 0.3230
L0.7713 0.3480
" />
<path d="M0.7604 0.4270
L0.7433 0.4481
" />
<path d="M0.7713 0.3480
L0.7750 0.3750
" />
<path d="M0.7713 0.4020
L0.7604 0.4270
" />
<path d="M0.7750 0.3750
L0.7713 0.4020
" />
<path d="M3.5250 0.5750
L0.5250 0.5750
" />
<path d="M3.5250 0.5750
L0.5250 0.5750
" />
<path d="M3.5250 3.2750
L3.5250 0.5750
" />
<path d="M3.5250 3.2750
L3.5250 0.5750
" />
<path d="M3.6750 0.1750
L0.3750 0.1750
" />
<path d="M3.6750 0.1750
L0.3750 0.1750
" />
<path d="M3.6750 3.6750
L3.7009 3.6716
" />
<path d="M3.7009 0.1784
L3.6750 0.1750
" />
<path d="M3.7009 3.6716
L3.7250 3.6616
" />
<path d="M3.7250 0.1884
L3.7009 0.1784
" />
<path d="M3.7250 3.6616
L3.7457 3.6457
" />
<path d="M3.7457 0.2043
L3.7250 0.1884
" />
<path d="M3.7457 3.6457
L3.7616 3.6250
" />
<path d="M3.7616 0.2250
L3.7457 0.2043
" />
<path d="M3.7616 3.6250
L3.7716 3.6009
" />
<path d="M3.7716 0.2491
L3.7616 0.2250
" />
<path d="M3.7716 3.6009
L3.7750 3.5750
" />
<path d="M3.7750 0.2750
L3.7716 0.2491
" />
<path d="M3.7750 3.5750
L3.7750 0.2750
" />
<path d="M3.7750 3.5750
L3.7750 0.2750
" />
</g> 
</svg>
