<?xml version="1.0" standalone="no"?>
 <!DOCTYPE svg PUBLIC "-//W3C//DTD SVG 1.1//EN" 
 "http://www.w3.org/Graphics/SVG/1.1/DTD/svg11.dtd"> 
<svg
  xmlns:svg="http://www.w3.org/2000/svg"
  xmlns="http://www.w3.org/2000/svg"
  xmlns:xlink="http://www.w3.org/1999/xlink"
  version="1.1"
  width="60.4520mm" height="24.8920mm" viewBox="0.0000 0.0000 60.4520 24.8920">
<title>SVG Image created as outline.svg date 2025/04/04 10:06:22 </title>
  <desc>Image generated by PCBNEW </desc>
<g style="fill:#000000; fill-opacity:1.0000;stroke:#000000; stroke-opacity:1.0000;
stroke-linecap:round; stroke-linejoin:round;"
 transform="translate(0 0) scale(1 1)">
</g>
<g style="fill:none; 
stroke:#000000; stroke-width:0.0200; stroke-opacity:1; 
stroke-linecap:round; stroke-linejoin:round;">
<path d="M1.0230 1.0240
L20.2510 1.0240
" />
<path d="M1.0230 23.8840
L1.0230 1.0240
" />
<path d="M2.0130 7.9080
L2.0130 10.3970
" />
<path d="M2.0130 7.9080
L2.8260 7.9080
" />
<path d="M2.0130 10.3970
L2.8260 10.3970
" />
<path d="M2.8260 7.9080
L2.8260 10.3970
" />
<path d="M4.7720 14.4990
L4.7720 13.9910
" />
<path d="M4.7720 15.4490
L4.7720 14.9410
" />
<path d="M4.9750 14.4990
L4.9750 13.9910
" />
<path d="M4.9750 15.4490
L4.9750 14.9410
" />
<path d="M4.9750 16.3990
L4.9750 15.8910
" />
<path d="M5.0770 14.4990
L5.0770 13.9910
" />
<path d="M5.0770 15.4490
L5.0770 14.9410
" />
<path d="M5.0770 16.3990
L5.0770 15.8910
" />
<path d="M5.0940 14.4990
L5.0940 13.9910
" />
<path d="M5.0940 15.4490
L5.0940 14.9410
" />
<path d="M5.0940 16.3990
L5.0940 15.8910
" />
<path d="M5.2970 14.4990
L5.2970 13.9910
" />
<path d="M5.2970 15.4490
L5.2970 14.9410
" />
<path d="M5.2970 16.3990
L5.2970 15.8910
" />
<path d="M5.4200 13.6960
L5.5000 13.6960
" />
<path d="M5.4200 13.9910
L5.4200 13.6960
" />
<path d="M5.4200 14.9410
L5.4200 14.4990
" />
<path d="M5.4200 15.8910
L5.4200 15.4490
" />
<path d="M5.4200 16.6930
L5.4200 16.3990
" />
<path d="M5.4200 16.6930
L5.5000 16.6930
" />
<path d="M5.5000 13.6960
L7.0420 13.6960
" />
<path d="M5.5000 16.6930
L5.5000 13.6960
" />
<path d="M5.5000 16.6930
L7.0420 16.6930
" />
<path d="M6.1790 7.9080
L2.8260 7.9080
" />
<path d="M6.1790 7.9080
L6.1790 10.3970
" />
<path d="M6.1790 10.3970
L2.8260 10.3970
" />
<path d="M6.5090 19.6930
L6.5090 19.9470
" />
<path d="M6.5090 19.6930
L9.0490 19.6930
" />
<path d="M6.5090 19.9470
L6.5090 22.6400
" />
<path d="M6.5090 19.9470
L9.0490 19.9470
" />
<path d="M6.5090 22.6400
L6.5090 22.8940
" />
<path d="M6.5090 22.6400
L9.0490 22.6400
" />
<path d="M6.5090 22.8940
L9.0490 22.8940
" />
<path d="M6.9920 7.9080
L6.1790 7.9080
" />
<path d="M6.9920 7.9080
L6.9920 10.3970
" />
<path d="M6.9920 10.3970
L6.1790 10.3970
" />
<path d="M7.0420 13.6960
L7.1220 13.6960
" />
<path d="M7.0420 16.6930
L7.0420 13.6960
" />
<path d="M7.0420 16.6930
L7.1220 16.6930
" />
<path d="M7.1190 1.5320
L7.1190 4.0720
" />
<path d="M7.1190 4.0720
L7.1190 5.7140
" />
<path d="M7.1190 5.7140
L8.0170 6.6120
" />
<path d="M7.1220 13.9910
L7.1220 13.6960
" />
<path d="M7.1220 14.9410
L7.1220 14.4990
" />
<path d="M7.1220 15.8910
L7.1220 15.4490
" />
<path d="M7.1220 16.6930
L7.1220 16.3990
" />
<path d="M7.2450 14.4990
L7.2450 13.9910
" />
<path d="M7.2450 15.4490
L7.2450 14.9410
" />
<path d="M7.2450 16.3990
L7.2450 15.8910
" />
<path d="M7.4470 14.4990
L7.4470 13.9910
" />
<path d="M7.4470 15.4490
L7.4470 14.9410
" />
<path d="M7.4470 16.3990
L7.4470 15.8910
" />
<path d="M7.4650 14.4990
L7.4650 13.9910
" />
<path d="M7.4650 15.4490
L7.4650 14.9410
" />
<path d="M7.4650 16.3990
L7.4650 15.8910
" />
<path d="M7.5660 14.4990
L7.5660 13.9910
" />
<path d="M7.5660 15.4490
L7.5660 14.9410
" />
<path d="M7.5660 16.3990
L7.5660 15.8910
" />
<path d="M8.0170 6.6120
L9.6590 6.6120
" />
<path d="M8.2110 13.6610
L8.2110 13.9650
" />
<path d="M8.2110 13.6610
L8.3630 13.6610
" />
<path d="M8.2110 13.9650
L8.3630 13.9650
" />
<path d="M8.2110 14.9310
L8.2110 15.2350
" />
<path d="M8.2110 14.9310
L8.3630 14.9310
" />
<path d="M8.2110 15.2350
L8.3630 15.2350
" />
<path d="M8.2110 16.2010
L8.2110 16.5050
" />
<path d="M8.2110 16.2010
L8.3630 16.2010
" />
<path d="M8.2110 16.5050
L8.3630 16.5050
" />
<path d="M8.2110 17.4710
L8.2110 17.7750
" />
<path d="M8.2110 17.4710
L8.3630 17.4710
" />
<path d="M8.2110 17.7750
L8.3630 17.7750
" />
<path d="M8.3630 13.2670
L8.3630 13.6610
" />
<path d="M8.3630 13.2670
L10.5730 13.2670
" />
<path d="M8.3630 13.6610
L8.3630 13.9650
" />
<path d="M8.3630 13.9650
L8.3630 14.9310
" />
<path d="M8.3630 14.9310
L8.3630 15.2350
" />
<path d="M8.3630 15.2350
L8.3630 16.2010
" />
<path d="M8.3630 16.2010
L8.3630 16.5050
" />
<path d="M8.3630 16.5050
L8.3630 17.4710
" />
<path d="M8.3630 17.4710
L8.3630 17.7750
" />
<path d="M8.3630 17.7750
L8.3630 18.1690
" />
<path d="M8.3630 18.1690
L10.5730 18.1690
" />
<path d="M8.5320 13.4360
L8.3630 13.2670
" />
<path d="M8.5320 13.4360
L8.5320 18.0000
" />
<path d="M8.5320 18.0000
L8.3630 18.1690
" />
<path d="M8.5320 18.0000
L8.6810 17.8510
" />
<path d="M8.6810 13.5850
L8.5320 13.4360
" />
<path d="M8.6810 13.5850
L8.6810 17.8510
" />
<path d="M8.6810 13.5850
L13.9390 13.5850
" />
<path d="M9.0490 19.6930
L9.0490 19.9470
" />
<path d="M9.0490 19.9470
L9.0490 22.6400
" />
<path d="M9.0490 22.6400
L9.0490 22.8940
" />
<path d="M9.5570 19.6930
L9.5570 19.9470
" />
<path d="M9.5570 19.6930
L12.0970 19.6930
" />
<path d="M9.5570 19.9470
L9.5570 22.6400
" />
<path d="M9.5570 19.9470
L12.0970 19.9470
" />
<path d="M9.5570 22.6400
L9.5570 22.8940
" />
<path d="M9.5570 22.6400
L12.0970 22.6400
" />
<path d="M9.5570 22.8940
L12.0970 22.8940
" />
<path d="M9.6590 1.5320
L7.1190 1.5320
" />
<path d="M9.6590 6.6120
L12.1990 6.6120
" />
<path d="M10.5730 13.0890
L10.8270 13.0890
" />
<path d="M10.5730 13.2670
L10.5730 13.0890
" />
<path d="M10.5730 13.2670
L10.8270 13.2670
" />
<path d="M10.5730 18.1690
L10.5730 18.3470
" />
<path d="M10.5730 18.1690
L10.8270 18.1690
" />
<path d="M10.5730 18.3470
L10.8270 18.3470
" />
<path d="M10.8270 13.2670
L10.8270 13.0890
" />
<path d="M10.8270 13.2670
L14.2560 13.2670
" />
<path d="M10.8270 18.1690
L10.8270 18.3470
" />
<path d="M10.8270 18.1690
L14.2560 18.1690
" />
<path d="M11.3010 1.5320
L9.6590 1.5320
" />
<path d="M12.0970 19.6930
L12.0970 19.9470
" />
<path d="M12.0970 19.9470
L12.0970 22.6400
" />
<path d="M12.0970 22.6400
L12.0970 22.8940
" />
<path d="M12.1990 2.4300
L11.3010 1.5320
" />
<path d="M12.1990 4.0720
L12.1990 2.4300
" />
<path d="M12.1990 6.6120
L12.1990 4.0720
" />
<path d="M13.9390 13.5850
L13.9390 17.8510
" />
<path d="M13.9390 17.8510
L8.6810 17.8510
" />
<path d="M13.9390 17.8510
L14.0880 18.0000
" />
<path d="M14.0880 13.4360
L8.5320 13.4360
" />
<path d="M14.0880 13.4360
L13.9390 13.5850
" />
<path d="M14.0880 13.4360
L14.0880 18.0000
" />
<path d="M14.0880 18.0000
L8.5320 18.0000
" />
<path d="M14.2560 13.2670
L14.0880 13.4360
" />
<path d="M14.2560 13.2670
L14.2560 13.6610
" />
<path d="M14.2560 13.6610
L14.2560 13.9650
" />
<path d="M14.2560 13.9650
L14.2560 14.9310
" />
<path d="M14.2560 14.9310
L14.2560 15.2350
" />
<path d="M14.2560 15.2350
L14.2560 16.2010
" />
<path d="M14.2560 16.2010
L14.2560 16.5050
" />
<path d="M14.2560 16.5050
L14.2560 17.4710
" />
<path d="M14.2560 17.4710
L14.2560 17.7750
" />
<path d="M14.2560 17.7750
L14.2560 18.1690
" />
<path d="M14.2560 18.1690
L14.0880 18.0000
" />
<path d="M14.4090 13.6610
L14.2560 13.6610
" />
<path d="M14.4090 13.6610
L14.4090 13.9650
" />
<path d="M14.4090 13.9650
L14.2560 13.9650
" />
<path d="M14.4090 14.9310
L14.2560 14.9310
" />
<path d="M14.4090 14.9310
L14.4090 15.2350
" />
<path d="M14.4090 15.2350
L14.2560 15.2350
" />
<path d="M14.4090 16.2010
L14.2560 16.2010
" />
<path d="M14.4090 16.2010
L14.4090 16.5050
" />
<path d="M14.4090 16.5050
L14.2560 16.5050
" />
<path d="M14.4090 17.4710
L14.2560 17.4710
" />
<path d="M14.4090 17.4710
L14.4090 17.7750
" />
<path d="M14.4090 17.7750
L14.2560 17.7750
" />
<path d="M14.4590 7.8570
L14.4590 8.3650
" />
<path d="M14.4590 7.8570
L16.2880 7.8570
" />
<path d="M14.4590 8.3650
L14.4590 10.7520
" />
<path d="M14.4590 8.3650
L16.2880 8.3650
" />
<path d="M14.4590 10.7520
L16.2880 10.7520
" />
<path d="M14.4590 11.2600
L14.4590 10.7520
" />
<path d="M14.4590 11.2600
L16.2880 11.2600
" />
<path d="M16.2880 7.8570
L16.2880 8.3650
" />
<path d="M16.2880 8.3650
L16.2880 10.7520
" />
<path d="M16.2880 11.2600
L16.2880 10.7520
" />
<path d="M17.6340 4.9100
L17.6340 5.6220
" />
<path d="M17.6340 5.6220
L18.0920 6.0790
" />
<path d="M17.6340 14.5120
L17.6340 15.2230
" />
<path d="M17.6340 15.2230
L21.5710 19.1600
" />
<path d="M18.0920 6.0790
L18.3370 6.0790
" />
<path d="M18.0920 14.0540
L17.6340 14.5120
" />
<path d="M18.1680 5.3680
L21.9780 1.1260
" />
<path d="M18.1680 14.7660
L19.2850 10.0670
" />
<path d="M18.2520 14.4120
L18.3370 14.0540
" />
<path d="M18.3370 6.0790
L18.2520 5.7210
" />
<path d="M18.3370 14.0540
L18.0920 14.0540
" />
<path d="M19.2850 10.0670
L18.1680 5.3680
" />
<path d="M20.2510 1.0240
L20.2510 2.2940
" />
<path d="M20.2510 2.2940
L17.6340 4.9100
" />
<path d="M20.8350 6.3330
L20.8350 13.9530
" />
<path d="M20.8350 13.9530
L25.9150 13.9530
" />
<path d="M21.5710 19.1600
L25.1780 19.1600
" />
<path d="M21.9780 19.0070
L18.1680 14.7660
" />
<path d="M21.9780 19.0070
L24.7720 19.0070
" />
<path d="M24.7720 1.1260
L21.9780 1.1260
" />
<path d="M24.7720 19.0070
L28.5820 14.7660
" />
<path d="M25.1780 19.1600
L29.1150 15.2230
" />
<path d="M25.9150 6.3330
L20.8350 6.3330
" />
<path d="M25.9150 13.9530
L25.9150 6.3330
" />
<path d="M26.4990 1.0240
L59.4430 1.0240
" />
<path d="M26.4990 2.2940
L26.4990 1.0240
" />
<path d="M27.1850 21.3190
L27.3880 21.3190
" />
<path d="M27.1850 21.7250
L27.1850 21.3190
" />
<path d="M27.1850 22.5890
L27.1850 22.9950
" />
<path d="M27.1850 22.9950
L27.3880 22.9950
" />
<path d="M27.2100 18.2450
L27.2100 20.2770
" />
<path d="M27.3880 20.9120
L27.3880 21.3190
" />
<path d="M27.3880 21.3190
L27.3880 21.7250
" />
<path d="M27.3880 21.7250
L27.1850 21.7250
" />
<path d="M27.3880 21.7250
L27.3880 22.5890
" />
<path d="M27.3880 22.5890
L27.1850 22.5890
" />
<path d="M27.3880 22.9950
L27.3880 22.5890
" />
<path d="M27.3880 22.9950
L27.3880 23.4020
" />
<path d="M27.3880 23.4020
L31.9600 23.4020
" />
<path d="M27.4640 10.0670
L28.5820 5.3680
" />
<path d="M27.5910 21.1160
L27.3880 20.9120
" />
<path d="M27.5910 21.1160
L27.5910 23.1980
" />
<path d="M27.5910 23.1980
L27.3880 23.4020
" />
<path d="M27.5910 23.1980
L31.7570 23.1980
" />
<path d="M27.7940 18.2450
L27.2100 18.2450
" />
<path d="M27.7940 18.2450
L27.7940 20.2770
" />
<path d="M27.7940 20.2770
L27.2100 20.2770
" />
<path d="M28.4130 6.0790
L28.6580 6.0790
" />
<path d="M28.4130 14.0540
L28.4980 14.4120
" />
<path d="M28.4980 5.7210
L28.4130 6.0790
" />
<path d="M28.5820 5.3680
L24.7720 1.1260
" />
<path d="M28.5820 14.7660
L27.4640 10.0670
" />
<path d="M28.6580 6.0790
L29.1150 5.6220
" />
<path d="M28.6580 14.0540
L28.4130 14.0540
" />
<path d="M29.1150 4.9100
L26.4990 2.2940
" />
<path d="M29.1150 5.6220
L29.1150 4.9100
" />
<path d="M29.1150 14.5120
L28.6580 14.0540
" />
<path d="M29.1150 15.2230
L29.1150 14.5120
" />
<path d="M29.9030 14.1180
L29.9030 14.1980
" />
<path d="M29.9030 14.1180
L30.1970 14.1180
" />
<path d="M29.9030 14.1980
L29.9030 15.7400
" />
<path d="M29.9030 14.1980
L32.9000 14.1980
" />
<path d="M29.9030 15.7400
L29.9030 15.8200
" />
<path d="M29.9030 15.7400
L32.9000 15.7400
" />
<path d="M29.9030 15.8200
L30.1970 15.8200
" />
<path d="M30.1970 13.6730
L30.7050 13.6730
" />
<path d="M30.1970 13.7750
L30.7050 13.7750
" />
<path d="M30.1970 13.7920
L30.7050 13.7920
" />
<path d="M30.1970 13.9950
L30.7050 13.9950
" />
<path d="M30.1970 15.9430
L30.7050 15.9430
" />
<path d="M30.1970 16.1450
L30.7050 16.1450
" />
<path d="M30.1970 16.1630
L30.7050 16.1630
" />
<path d="M30.1970 16.2640
L30.7050 16.2640
" />
<path d="M30.7050 14.1180
L31.1470 14.1180
" />
<path d="M30.7050 15.8200
L31.1470 15.8200
" />
<path d="M31.1470 13.4700
L31.6550 13.4700
" />
<path d="M31.1470 13.6730
L31.6550 13.6730
" />
<path d="M31.1470 13.7750
L31.6550 13.7750
" />
<path d="M31.1470 13.7920
L31.6550 13.7920
" />
<path d="M31.1470 13.9950
L31.6550 13.9950
" />
<path d="M31.1470 15.9430
L31.6550 15.9430
" />
<path d="M31.1470 16.1450
L31.6550 16.1450
" />
<path d="M31.1470 16.1630
L31.6550 16.1630
" />
<path d="M31.1470 16.2640
L31.6550 16.2640
" />
<path d="M31.1470 18.2450
L27.7940 18.2450
" />
<path d="M31.1470 18.2450
L31.1470 20.2770
" />
<path d="M31.1470 20.2770
L27.7940 20.2770
" />
<path d="M31.6550 14.1180
L32.0970 14.1180
" />
<path d="M31.6550 15.8200
L32.0970 15.8200
" />
<path d="M31.7310 18.2450
L31.1470 18.2450
" />
<path d="M31.7310 18.2450
L31.7310 20.2770
" />
<path d="M31.7310 20.2770
L31.1470 20.2770
" />
<path d="M31.7570 21.1160
L27.5910 21.1160
" />
<path d="M31.7570 21.1160
L31.9600 20.9120
" />
<path d="M31.7570 23.1980
L31.7570 21.1160
" />
<path d="M31.7570 23.1980
L31.9600 23.4020
" />
<path d="M31.8710 2.5350
L31.8710 2.2810
" />
<path d="M31.8710 2.5350
L31.8710 7.4630
" />
<path d="M31.8710 7.4630
L31.8710 7.7170
" />
<path d="M31.8710 7.4630
L35.9100 7.4630
" />
<path d="M31.8710 7.7170
L32.9510 7.7170
" />
<path d="M31.9600 20.9120
L27.3880 20.9120
" />
<path d="M31.9600 21.3190
L31.9600 20.9120
" />
<path d="M31.9600 21.3190
L31.9600 21.7250
" />
<path d="M31.9600 21.7250
L32.1630 21.7250
" />
<path d="M31.9600 22.5890
L31.9600 21.7250
" />
<path d="M31.9600 22.5890
L32.1630 22.5890
" />
<path d="M31.9600 22.9950
L31.9600 22.5890
" />
<path d="M31.9600 23.4020
L31.9600 22.9950
" />
<path d="M32.0970 13.4700
L32.6050 13.4700
" />
<path d="M32.0970 13.6730
L32.6050 13.6730
" />
<path d="M32.0970 13.7750
L32.6050 13.7750
" />
<path d="M32.0970 13.7920
L32.6050 13.7920
" />
<path d="M32.0970 13.9950
L32.6050 13.9950
" />
<path d="M32.0970 15.9430
L32.6050 15.9430
" />
<path d="M32.0970 16.1450
L32.6050 16.1450
" />
<path d="M32.0970 16.1630
L32.6050 16.1630
" />
<path d="M32.0970 16.2640
L32.6050 16.2640
" />
<path d="M32.1630 21.3190
L31.9600 21.3190
" />
<path d="M32.1630 21.7250
L32.1630 21.3190
" />
<path d="M32.1630 22.5890
L32.1630 22.9950
" />
<path d="M32.1630 22.9950
L31.9600 22.9950
" />
<path d="M32.4680 1.6340
L32.4680 2.3770
" />
<path d="M32.4680 2.2810
L31.8710 2.2810
" />
<path d="M32.6050 14.1180
L32.9000 14.1180
" />
<path d="M32.6050 15.8200
L32.9000 15.8200
" />
<path d="M32.9000 14.1180
L32.9000 14.1980
" />
<path d="M32.9000 14.1980
L32.9000 15.7400
" />
<path d="M32.9000 15.7400
L32.9000 15.8200
" />
<path d="M32.9510 7.6220
L32.9510 8.6700
" />
<path d="M32.9510 8.6700
L34.8300 8.6700
" />
<path d="M33.4590 1.6340
L32.4680 1.6340
" />
<path d="M33.4590 2.3770
L32.4680 2.3770
" />
<path d="M33.4590 2.3770
L33.4590 1.6340
" />
<path d="M34.3220 1.6340
L35.3130 1.6340
" />
<path d="M34.3220 2.2810
L33.4590 2.2810
" />
<path d="M34.3220 2.3770
L34.3220 1.6340
" />
<path d="M34.3220 2.3770
L35.3130 2.3770
" />
<path d="M34.8300 7.6220
L32.9510 7.6220
" />
<path d="M34.8300 7.7170
L35.9100 7.7170
" />
<path d="M34.8300 8.6700
L34.8300 7.6220
" />
<path d="M35.3130 1.6340
L35.3130 2.3770
" />
<path d="M35.5920 16.1370
L35.5920 17.1530
" />
<path d="M35.5920 17.1530
L36.0490 17.1530
" />
<path d="M35.6940 10.4480
L35.6940 12.2760
" />
<path d="M35.6940 10.4480
L36.2020 10.4480
" />
<path d="M35.6940 12.2760
L36.2020 12.2760
" />
<path d="M35.7450 12.6830
L35.7450 15.2740
" />
<path d="M35.7450 12.6830
L36.2530 12.6830
" />
<path d="M35.7450 15.2740
L36.2530 15.2740
" />
<path d="M35.9100 2.2810
L35.3130 2.2810
" />
<path d="M35.9100 2.5350
L31.8710 2.5350
" />
<path d="M35.9100 2.5350
L35.9100 2.2810
" />
<path d="M35.9100 7.4630
L35.9100 2.5350
" />
<path d="M35.9100 7.4630
L35.9100 7.7170
" />
<path d="M36.0490 15.7310
L36.0490 17.5600
" />
<path d="M36.0490 16.1370
L35.5920 16.1370
" />
<path d="M36.0490 17.5600
L38.8430 17.5600
" />
<path d="M36.1160 15.7970
L36.0490 15.7310
" />
<path d="M36.1160 15.7970
L36.1160 17.4930
" />
<path d="M36.1160 17.4930
L36.0490 17.5600
" />
<path d="M36.1160 17.4930
L38.7770 17.4930
" />
<path d="M36.2020 10.4480
L36.2020 12.2760
" />
<path d="M36.2530 12.6830
L36.2530 15.2740
" />
<path d="M36.3920 2.5350
L36.3920 2.2810
" />
<path d="M36.3920 2.5350
L36.3920 7.4630
" />
<path d="M36.3920 7.4630
L36.3920 7.7170
" />
<path d="M36.3920 7.4630
L40.4310 7.4630
" />
<path d="M36.3920 7.7170
L37.4720 7.7170
" />
<path d="M36.9890 1.6340
L36.9890 2.3770
" />
<path d="M36.9890 2.2810
L36.3920 2.2810
" />
<path d="M37.4720 7.6220
L37.4720 8.6700
" />
<path d="M37.4720 8.6700
L39.3510 8.6700
" />
<path d="M37.9800 1.6340
L36.9890 1.6340
" />
<path d="M37.9800 2.3770
L36.9890 2.3770
" />
<path d="M37.9800 2.3770
L37.9800 1.6340
" />
<path d="M38.4370 12.6830
L36.2530 12.6830
" />
<path d="M38.4370 12.6830
L38.4370 15.2740
" />
<path d="M38.4370 15.2740
L36.2530 15.2740
" />
<path d="M38.5890 10.4480
L36.2020 10.4480
" />
<path d="M38.5890 10.4480
L38.5890 12.2760
" />
<path d="M38.5890 12.2760
L36.2020 12.2760
" />
<path d="M38.7770 15.7970
L36.1160 15.7970
" />
<path d="M38.7770 15.7970
L38.8430 15.7310
" />
<path d="M38.7770 17.4930
L38.7770 15.7970
" />
<path d="M38.7770 17.4930
L38.8430 17.5600
" />
<path d="M38.8430 1.6340
L39.8340 1.6340
" />
<path d="M38.8430 2.2810
L37.9800 2.2810
" />
<path d="M38.8430 2.3770
L38.8430 1.6340
" />
<path d="M38.8430 2.3770
L39.8340 2.3770
" />
<path d="M38.8430 15.7310
L36.0490 15.7310
" />
<path d="M38.8430 16.1370
L39.3010 16.1370
" />
<path d="M38.8430 17.5600
L38.8430 15.7310
" />
<path d="M38.9450 12.6830
L38.4370 12.6830
" />
<path d="M38.9450 12.6830
L38.9450 15.2740
" />
<path d="M38.9450 15.2740
L38.4370 15.2740
" />
<path d="M39.0970 10.4480
L38.5890 10.4480
" />
<path d="M39.0970 10.4480
L39.0970 12.2760
" />
<path d="M39.0970 12.2760
L38.5890 12.2760
" />
<path d="M39.3010 16.1370
L39.3010 17.1530
" />
<path d="M39.3010 17.1530
L38.8430 17.1530
" />
<path d="M39.3510 7.6220
L37.4720 7.6220
" />
<path d="M39.3510 7.7170
L40.4310 7.7170
" />
<path d="M39.3510 8.6700
L39.3510 7.6220
" />
<path d="M39.8340 1.6340
L39.8340 2.3770
" />
<path d="M40.4310 2.2810
L39.8340 2.2810
" />
<path d="M40.4310 2.5350
L36.3920 2.5350
" />
<path d="M40.4310 2.5350
L40.4310 2.2810
" />
<path d="M40.4310 7.4630
L40.4310 2.5350
" />
<path d="M40.4310 7.4630
L40.4310 7.7170
" />
<path d="M40.7740 9.5590
L40.7740 10.2700
" />
<path d="M40.7740 10.2700
L41.2310 10.7270
" />
<path d="M40.7740 19.1600
L40.7740 19.8710
" />
<path d="M40.7740 19.8710
L43.5170 22.6140
" />
<path d="M41.2310 10.7270
L41.4760 10.7270
" />
<path d="M41.2310 18.7030
L40.7740 19.1600
" />
<path d="M41.3070 10.0160
L42.4250 14.7150
" />
<path d="M41.3070 19.4140
L45.1170 23.6560
" />
<path d="M41.3910 19.0600
L41.4760 18.7030
" />
<path d="M41.4090 2.2940
L41.4090 2.0400
" />
<path d="M41.4090 4.9870
L41.4090 2.2940
" />
<path d="M41.4090 5.2410
L41.4090 4.9870
" />
<path d="M41.4760 10.7270
L41.3910 10.3690
" />
<path d="M41.4760 18.7030
L41.2310 18.7030
" />
<path d="M42.4250 14.7150
L41.3070 19.4140
" />
<path d="M43.5170 22.6140
L43.5170 23.8840
" />
<path d="M43.5170 23.8840
L1.0230 23.8840
" />
<path d="M43.8980 2.0400
L41.4090 2.0400
" />
<path d="M43.8980 2.2940
L41.4090 2.2940
" />
<path d="M43.8980 2.2940
L43.8980 2.0400
" />
<path d="M43.8980 4.9870
L41.4090 4.9870
" />
<path d="M43.8980 4.9870
L43.8980 2.2940
" />
<path d="M43.8980 5.2410
L41.4090 5.2410
" />
<path d="M43.8980 5.2410
L43.8980 4.9870
" />
<path d="M43.9490 10.8290
L43.9490 18.4490
" />
<path d="M43.9490 18.4490
L49.0290 18.4490
" />
<path d="M44.7110 5.6220
L40.7740 9.5590
" />
<path d="M44.8380 1.5070
L44.8380 3.1320
" />
<path d="M44.8380 3.6150
L44.8380 5.2410
" />
<path d="M45.0410 1.5070
L44.8380 1.5070
" />
<path d="M45.0410 1.5070
L45.0410 3.1320
" />
<path d="M45.0410 3.1320
L44.8380 3.1320
" />
<path d="M45.0410 3.6150
L44.8380 3.6150
" />
<path d="M45.0410 3.6150
L45.0410 5.2410
" />
<path d="M45.0410 5.2410
L44.8380 5.2410
" />
<path d="M45.1170 5.7740
L41.3070 10.0160
" />
<path d="M45.1170 23.6560
L47.9110 23.6560
" />
<path d="M47.8350 1.5070
L45.0410 1.5070
" />
<path d="M47.8350 1.5070
L47.8350 3.1320
" />
<path d="M47.8350 3.1320
L45.0410 3.1320
" />
<path d="M47.8350 3.6150
L45.0410 3.6150
" />
<path d="M47.8350 3.6150
L47.8350 5.2410
" />
<path d="M47.8350 5.2410
L45.0410 5.2410
" />
<path d="M47.9110 5.7740
L45.1170 5.7740
" />
<path d="M47.9110 5.7740
L51.7210 10.0160
" />
<path d="M48.0380 1.5070
L47.8350 1.5070
" />
<path d="M48.0380 1.5070
L48.0380 3.1320
" />
<path d="M48.0380 3.1320
L47.8350 3.1320
" />
<path d="M48.0380 3.6150
L47.8350 3.6150
" />
<path d="M48.0380 3.6150
L48.0380 5.2410
" />
<path d="M48.0380 5.2410
L47.8350 5.2410
" />
<path d="M48.3180 5.6220
L44.7110 5.6220
" />
<path d="M49.0290 10.8290
L43.9490 10.8290
" />
<path d="M49.0290 18.4490
L49.0290 10.8290
" />
<path d="M49.0540 2.1420
L49.0540 2.3960
" />
<path d="M49.0540 2.1420
L51.5430 2.1420
" />
<path d="M49.0540 2.3960
L49.0540 5.0880
" />
<path d="M49.0540 2.3960
L51.5430 2.3960
" />
<path d="M49.0540 5.0880
L49.0540 5.3420
" />
<path d="M49.0540 5.0880
L51.5430 5.0880
" />
<path d="M49.0540 5.3420
L51.5430 5.3420
" />
<path d="M49.5110 22.6140
L52.2550 19.8710
" />
<path d="M49.5110 23.8840
L49.5110 22.6140
" />
<path d="M50.6040 14.7150
L51.7210 19.4140
" />
<path d="M51.5430 2.1420
L51.5430 2.3960
" />
<path d="M51.5430 2.3960
L51.5430 5.0880
" />
<path d="M51.5430 5.0880
L51.5430 5.3420
" />
<path d="M51.5520 10.7270
L51.7970 10.7270
" />
<path d="M51.5520 18.7030
L51.6370 19.0600
" />
<path d="M51.6370 10.3690
L51.5520 10.7270
" />
<path d="M51.7210 10.0160
L50.6040 14.7150
" />
<path d="M51.7210 19.4140
L47.9110 23.6560
" />
<path d="M51.7970 10.7270
L52.2550 10.2700
" />
<path d="M51.7970 18.7030
L51.5520 18.7030
" />
<path d="M52.0510 2.2430
L52.0510 2.0400
" />
<path d="M52.0510 5.0370
L52.0510 2.2430
" />
<path d="M52.0510 5.2410
L52.0510 5.0370
" />
<path d="M52.2550 9.5590
L48.3180 5.6220
" />
<path d="M52.2550 10.2700
L52.2550 9.5590
" />
<path d="M52.2550 19.1600
L51.7970 18.7030
" />
<path d="M52.2550 19.8710
L52.2550 19.1600
" />
<path d="M53.6770 2.0400
L52.0510 2.0400
" />
<path d="M53.6770 2.2430
L52.0510 2.2430
" />
<path d="M53.6770 2.2430
L53.6770 2.0400
" />
<path d="M53.6770 5.0370
L52.0510 5.0370
" />
<path d="M53.6770 5.0370
L53.6770 2.2430
" />
<path d="M53.6770 5.2410
L52.0510 5.2410
" />
<path d="M53.6770 5.2410
L53.6770 5.0370
" />
<path d="M56.5730 7.2470
L56.5730 6.9930
" />
<path d="M56.5730 9.9400
L56.5730 7.2470
" />
<path d="M56.5730 10.1940
L56.5730 9.9400
" />
<path d="M56.5730 14.7150
L56.5730 14.9690
" />
<path d="M56.5730 14.7150
L59.0620 14.7150
" />
<path d="M56.5730 14.9690
L56.5730 17.6610
" />
<path d="M56.5730 14.9690
L59.0620 14.9690
" />
<path d="M56.5730 17.6610
L56.5730 17.9150
" />
<path d="M56.5730 17.6610
L59.0620 17.6610
" />
<path d="M56.5730 17.9150
L59.0620 17.9150
" />
<path d="M59.0620 6.9930
L56.5730 6.9930
" />
<path d="M59.0620 7.2470
L56.5730 7.2470
" />
<path d="M59.0620 7.2470
L59.0620 6.9930
" />
<path d="M59.0620 9.9400
L56.5730 9.9400
" />
<path d="M59.0620 9.9400
L59.0620 7.2470
" />
<path d="M59.0620 10.1940
L56.5730 10.1940
" />
<path d="M59.0620 10.1940
L59.0620 9.9400
" />
<path d="M59.0620 14.7150
L59.0620 14.9690
" />
<path d="M59.0620 14.9690
L59.0620 17.6610
" />
<path d="M59.0620 17.6610
L59.0620 17.9150
" />
<path d="M59.4430 1.0240
L59.4430 23.8840
" />
<path d="M59.4430 23.8840
L49.5110 23.8840
" />
<path style="fill:none; 
stroke:#000000; stroke-width:0.0200; stroke-opacity:1; 
stroke-linecap:round; stroke-linejoin:round;fill:none"
d="M 4.7770,14.5010
5.4370,14.5010
5.4370,13.9910
4.7770,13.9910
Z" /> 
<path style="fill:none; 
stroke:#000000; stroke-width:0.0200; stroke-opacity:1; 
stroke-linecap:round; stroke-linejoin:round;fill:none"
d="M 4.7770,15.4510
5.4370,15.4510
5.4370,14.9410
4.7770,14.9410
Z" /> 
<path style="fill:none; 
stroke:#000000; stroke-width:0.0200; stroke-opacity:1; 
stroke-linecap:round; stroke-linejoin:round;fill:none"
d="M 4.7770,16.4010
5.4370,16.4010
5.4370,15.8910
4.7770,15.8910
Z" /> 
<path style="fill:none; 
stroke:#000000; stroke-width:0.0200; stroke-opacity:1; 
stroke-linecap:round; stroke-linejoin:round;fill:none"
d="M 7.1070,14.5010
7.7670,14.5010
7.7670,13.9910
7.1070,13.9910
Z" /> 
<path style="fill:none; 
stroke:#000000; stroke-width:0.0200; stroke-opacity:1; 
stroke-linecap:round; stroke-linejoin:round;fill:none"
d="M 7.1070,15.4510
7.7670,15.4510
7.7670,14.9410
7.1070,14.9410
Z" /> 
<path style="fill:none; 
stroke:#000000; stroke-width:0.0200; stroke-opacity:1; 
stroke-linecap:round; stroke-linejoin:round;fill:none"
d="M 7.1070,16.4010
7.7670,16.4010
7.7670,15.8910
7.1070,15.8910
Z" /> 
<path style="fill:none; 
stroke:#000000; stroke-width:0.0200; stroke-opacity:1; 
stroke-linecap:round; stroke-linejoin:round;fill:none"
d="M 30.1950,13.4750
30.7050,13.4750
30.7050,14.1350
30.1950,14.1350
Z" /> 
<path style="fill:none; 
stroke:#000000; stroke-width:0.0200; stroke-opacity:1; 
stroke-linecap:round; stroke-linejoin:round;fill:none"
d="M 30.1950,15.8050
30.7050,15.8050
30.7050,16.4650
30.1950,16.4650
Z" /> 
<path style="fill:none; 
stroke:#000000; stroke-width:0.0200; stroke-opacity:1; 
stroke-linecap:round; stroke-linejoin:round;fill:none"
d="M 31.1450,13.4750
31.6550,13.4750
31.6550,14.1350
31.1450,14.1350
Z" /> 
<path style="fill:none; 
stroke:#000000; stroke-width:0.0200; stroke-opacity:1; 
stroke-linecap:round; stroke-linejoin:round;fill:none"
d="M 31.1450,15.8050
31.6550,15.8050
31.6550,16.4650
31.1450,16.4650
Z" /> 
<path style="fill:none; 
stroke:#000000; stroke-width:0.0200; stroke-opacity:1; 
stroke-linecap:round; stroke-linejoin:round;fill:none"
d="M 32.0950,13.4750
32.6050,13.4750
32.6050,14.1350
32.0950,14.1350
Z" /> 
<path style="fill:none; 
stroke:#000000; stroke-width:0.0200; stroke-opacity:1; 
stroke-linecap:round; stroke-linejoin:round;fill:none"
d="M 32.0950,15.8050
32.6050,15.8050
32.6050,16.4650
32.0950,16.4650
Z" /> 
<circle cx="4.8350" cy="4.8350" r="0.5500" /> 
<circle cx="4.8350" cy="12.4600" r="0.5500" /> 
<circle cx="4.8350" cy="20.0750" r="0.5500" /> 
<circle cx="8.8950" cy="13.7750" r="0.1100" /> 
<circle cx="9.6550" cy="4.0650" r="2.5402" /> 
<circle cx="55.6350" cy="4.8250" r="0.5500" /> 
<circle cx="55.6350" cy="4.8250" r="0.8215" /> 
<circle cx="55.6350" cy="8.6450" r="0.5500" /> 
<circle cx="55.6350" cy="12.4550" r="0.5500" /> 
<circle cx="55.6350" cy="16.2650" r="0.5500" /> 
<circle cx="55.6350" cy="20.0750" r="0.5500" /> 
<circle cx="55.6350" cy="20.0750" r="0.8215" /> 
</g> 
</svg>
