<?xml version="1.0" standalone="no"?>
 <!DOCTYPE svg PUBLIC "-//W3C//DTD SVG 1.1//EN" 
 "http://www.w3.org/Graphics/SVG/1.1/DTD/svg11.dtd"> 
<svg
  xmlns:svg="http://www.w3.org/2000/svg"
  xmlns="http://www.w3.org/2000/svg"
  xmlns:xlink="http://www.w3.org/1999/xlink"
  version="1.1"
  width="11.1252mm" height="6.2484mm" viewBox="0.0000 0.0000 11.1252 6.2484">
<title>SVG Image created as outline.svg date 2025/04/04 10:06:08 </title>
  <desc>Image generated by PCBNEW </desc>
<g style="fill:#000000; fill-opacity:1.0000;stroke:#000000; stroke-opacity:1.0000;
stroke-linecap:round; stroke-linejoin:round;"
 transform="translate(0 0) scale(1 1)">
</g>
<g style="fill:none; 
stroke:#000000; stroke-width:0.0200; stroke-opacity:1; 
stroke-linecap:round; stroke-linejoin:round;">
<path d="M0.3750 3.1060
L0.3750 3.1150
" />
<path d="M0.3750 3.1150
L0.3750 3.1260
" />
<path d="M0.3750 3.6230
L0.3750 3.1260
" />
<path d="M0.3750 3.6230
L0.3750 3.6330
" />
<path d="M0.3750 3.6330
L0.3750 3.6450
" />
<path d="M0.3750 3.6450
L0.3760 3.6550
" />
<path d="M0.3760 3.0950
L0.3750 3.1060
" />
<path d="M0.3760 3.6550
L0.3780 3.6650
" />
<path d="M0.3780 3.0860
L0.3760 3.0950
" />
<path d="M0.3780 3.6650
L0.3810 3.6740
" />
<path d="M0.3810 3.0750
L0.3780 3.0860
" />
<path d="M0.3810 3.6740
L0.3830 3.6840
" />
<path d="M0.3830 3.0650
L0.3810 3.0750
" />
<path d="M0.3830 3.6840
L0.3860 3.6930
" />
<path d="M0.3860 3.0560
L0.3830 3.0650
" />
<path d="M0.3860 3.6930
L0.3890 3.7010
" />
<path d="M0.3890 3.0490
L0.3860 3.0560
" />
<path d="M0.3890 3.7010
L0.3940 3.7090
" />
<path d="M0.3940 3.0380
L0.3890 3.0490
" />
<path d="M0.3940 3.7090
L0.3970 3.7180
" />
<path d="M0.3970 3.0310
L0.3940 3.0380
" />
<path d="M0.3970 3.7180
L0.4020 3.7260
" />
<path d="M0.4020 3.0210
L0.3970 3.0310
" />
<path d="M0.4020 3.7260
L0.4070 3.7340
" />
<path d="M0.4070 3.0150
L0.4020 3.0210
" />
<path d="M0.4070 3.7340
L0.4130 3.7420
" />
<path d="M0.4130 3.0050
L0.4070 3.0150
" />
<path d="M0.4130 3.7420
L0.4200 3.7500
" />
<path d="M0.4200 2.9990
L0.4130 3.0050
" />
<path d="M0.4200 3.7500
L0.4260 3.7580
" />
<path d="M0.4260 2.9890
L0.4200 2.9990
" />
<path d="M0.4260 3.7580
L0.4310 3.7670
" />
<path d="M0.4310 2.9820
L0.4260 2.9890
" />
</g>
<g style="fill:#000000; fill-opacity:1.0000; stroke:none;">
<circle cx="0.4310" cy="2.9820" r="0.0100" /> 
<circle cx="0.4310" cy="3.7670" r="0.0100" /> 
</g>
<g style="fill:none; 
stroke:#000000; stroke-width:0.0200; stroke-opacity:1; 
stroke-linecap:round; stroke-linejoin:round;">
<path d="M0.4310 3.7670
L0.4390 3.7740
" />
<path d="M0.4390 2.9770
L0.4310 2.9820
" />
<path d="M0.4390 3.7740
L0.4470 3.7800
" />
<path d="M0.4470 2.9710
L0.4390 2.9770
" />
<path d="M0.4470 3.7800
L0.4550 3.7860
" />
<path d="M0.4550 2.9630
L0.4470 2.9710
" />
<path d="M0.4550 3.7860
L0.4630 3.7920
" />
<path d="M0.4630 2.9570
L0.4550 2.9630
" />
<path d="M0.4630 3.7920
L0.4710 3.7970
" />
<path d="M0.4710 2.9520
L0.4630 2.9570
" />
<path d="M0.4710 3.7970
L0.4790 3.8020
" />
<path d="M0.4790 2.9490
L0.4710 2.9520
" />
<path d="M0.4790 3.8020
L0.4880 3.8060
" />
<path d="M0.4880 2.9450
L0.4790 2.9490
" />
<path d="M0.4880 3.8060
L0.4980 3.8100
" />
<path d="M0.4980 2.9410
L0.4880 2.9450
" />
<path d="M0.4980 3.8100
L0.5060 3.8140
" />
<path d="M0.5060 2.9370
L0.4980 2.9410
" />
<path d="M0.5060 3.8140
L0.5160 3.8170
" />
<path d="M0.5160 2.9340
L0.5060 2.9370
" />
<path d="M0.5160 3.8170
L0.5240 3.8190
" />
<path d="M0.5240 2.9300
L0.5160 2.9340
" />
<path d="M0.5240 3.8190
L0.5350 3.8220
" />
<path d="M0.5350 2.9270
L0.5240 2.9300
" />
<path d="M0.5350 3.8220
L0.5450 3.8230
" />
<path d="M0.5450 2.9260
L0.5350 2.9270
" />
<path d="M0.5450 3.8230
L0.5540 3.8250
" />
<path d="M0.5540 2.9240
L0.5450 2.9260
" />
<path d="M0.5540 3.8250
L0.5640 3.8250
" />
<path d="M0.5640 2.9240
L0.5540 2.9240
" />
<path d="M0.5640 3.8250
L0.5750 3.8250
" />
<path d="M0.5750 2.9230
L0.5640 2.9240
" />
<path d="M0.7740 0.5240
L0.7740 0.8750
" />
<path d="M0.7740 0.8750
L0.7740 4.4730
" />
<path d="M0.7740 2.9230
L0.5750 2.9230
" />
<path d="M0.7740 3.8250
L0.5750 3.8250
" />
<path d="M0.7740 4.4730
L1.4230 4.4730
" />
<path d="M1.3250 0.5240
L0.7740 0.5240
" />
<path d="M1.3250 0.8750
L1.3250 0.5240
" />
<path d="M1.4230 2.4960
L2.8390 2.4960
" />
<path d="M1.4230 2.7960
L1.5720 2.7530
" />
<path d="M1.4230 4.4730
L1.4230 2.2930
" />
<path d="M1.4950 2.8850
L1.4230 2.8640
" />
<path d="M1.4950 2.9620
L1.4950 2.8850
" />
<path d="M1.4950 3.1380
L1.4950 2.9620
" />
<path d="M1.4950 4.4250
L1.4230 4.4250
" />
<path d="M1.4950 4.4250
L1.4950 3.1380
" />
<path d="M1.4950 4.4250
L1.5720 4.4250
" />
<path d="M1.5720 2.6490
L1.5720 2.6600
" />
<path d="M1.5720 2.6500
L1.5720 2.6490
" />
<path d="M1.5720 2.6600
L1.5720 2.7530
" />
<path d="M1.5720 4.4730
L1.4230 4.4730
" />
<path d="M1.5720 4.4730
L1.5720 4.4250
" />
<path d="M1.5720 5.6730
L1.5720 4.4250
" />
<path d="M1.5720 5.6730
L2.9230 5.6730
" />
<path d="M2.8390 2.4370
L2.8390 2.4960
" />
<path d="M2.8390 2.6490
L2.8390 2.4960
" />
<path d="M2.9230 5.7740
L2.9230 5.6730
" />
<path d="M2.9230 5.7740
L8.3220 5.7740
" />
<path d="M3.2700 2.2930
L3.2700 2.4370
" />
<path d="M3.2700 2.4370
L2.8390 2.4370
" />
<path d="M3.2700 2.6490
L1.5720 2.6490
" />
<path d="M3.2700 2.6490
L3.2700 2.6600
" />
<path d="M3.2700 2.6600
L3.2700 2.9620
" />
<path d="M3.2700 2.7730
L3.2980 2.7730
" />
<path d="M3.2700 2.9620
L3.2700 3.1380
" />
<path d="M3.2700 3.1380
L3.2700 3.4750
" />
<path d="M3.2700 3.1750
L3.2980 3.1750
" />
<path d="M3.2700 3.4230
L3.2980 3.4230
" />
<path d="M3.2980 0.6250
L3.2980 0.4730
" />
<path d="M3.2980 0.8750
L3.2980 0.6250
" />
<path d="M3.2980 3.0830
L3.2980 2.2930
" />
<path d="M3.2980 3.2980
L3.2980 3.0830
" />
</g>
<g style="fill:#000000; fill-opacity:1.0000; stroke:none;">
<circle cx="3.2980" cy="3.2980" r="0.0100" /> 
</g>
<g style="fill:none; 
stroke:#000000; stroke-width:0.0200; stroke-opacity:1; 
stroke-linecap:round; stroke-linejoin:round;">
<path d="M3.2980 3.3860
L3.2980 3.2980
" />
<path d="M3.2980 3.3860
L3.4470 3.3860
" />
<path d="M3.2980 3.4750
L3.2980 3.3860
" />
<path d="M3.4470 0.4730
L3.2980 0.4730
" />
<path d="M3.4470 0.6250
L3.2980 0.6250
" />
<path d="M3.4470 0.6250
L3.4470 0.4730
" />
<path d="M3.4470 0.8750
L3.4470 0.6250
" />
<path d="M3.4470 2.7730
L3.4800 2.7730
" />
<path d="M3.4470 3.0830
L3.4470 2.2930
" />
<path d="M3.4470 3.1750
L3.4800 3.1750
" />
<path d="M3.4470 3.2980
L3.4470 3.0830
" />
</g>
<g style="fill:#000000; fill-opacity:1.0000; stroke:none;">
<circle cx="3.4470" cy="3.2980" r="0.0100" /> 
</g>
<g style="fill:none; 
stroke:#000000; stroke-width:0.0200; stroke-opacity:1; 
stroke-linecap:round; stroke-linejoin:round;">
<path d="M3.4470 3.3860
L3.4470 3.2980
" />
<path d="M3.4470 3.4230
L3.4800 3.4230
" />
<path d="M3.4470 3.4750
L3.4470 3.3860
" />
<path d="M3.4800 2.2930
L3.4800 2.4370
" />
<path d="M3.4800 2.6490
L3.4800 2.6600
" />
<path d="M3.4800 2.6600
L3.4800 2.9620
" />
<path d="M3.4800 2.9620
L3.4800 3.1380
" />
<path d="M3.4800 3.1380
L3.4800 3.4750
" />
<path d="M3.4800 3.4750
L3.2700 3.4750
" />
<path d="M3.7680 2.2930
L3.7680 2.4370
" />
<path d="M3.7680 2.4370
L3.4800 2.4370
" />
<path d="M3.7680 2.6490
L3.4800 2.6490
" />
<path d="M3.7680 2.6490
L3.7680 2.6600
" />
<path d="M3.7680 2.6600
L3.7680 2.9620
" />
<path d="M3.7680 2.7730
L3.7980 2.7730
" />
<path d="M3.7680 2.9620
L3.7680 3.1380
" />
<path d="M3.7680 3.1380
L3.7680 3.4750
" />
<path d="M3.7680 3.1750
L3.7980 3.1750
" />
<path d="M3.7680 3.4230
L3.7980 3.4230
" />
<path d="M3.7980 0.6250
L3.7980 0.4730
" />
<path d="M3.7980 0.8750
L3.7980 0.6250
" />
<path d="M3.7980 3.0830
L3.7980 2.2930
" />
<path d="M3.7980 3.2980
L3.7980 3.0830
" />
</g>
<g style="fill:#000000; fill-opacity:1.0000; stroke:none;">
<circle cx="3.7980" cy="3.2980" r="0.0100" /> 
</g>
<g style="fill:none; 
stroke:#000000; stroke-width:0.0200; stroke-opacity:1; 
stroke-linecap:round; stroke-linejoin:round;">
<path d="M3.7980 3.3860
L3.7980 3.2980
" />
<path d="M3.7980 3.3860
L3.9490 3.3860
" />
<path d="M3.7980 3.4750
L3.7980 3.3860
" />
<path d="M3.9490 0.4730
L3.7980 0.4730
" />
<path d="M3.9490 0.6250
L3.7980 0.6250
" />
<path d="M3.9490 0.6250
L3.9490 0.4730
" />
<path d="M3.9490 0.8750
L3.9490 0.6250
" />
<path d="M3.9490 2.7730
L3.9800 2.7730
" />
<path d="M3.9490 3.0830
L3.9490 2.2930
" />
<path d="M3.9490 3.1750
L3.9800 3.1750
" />
<path d="M3.9490 3.2980
L3.9490 3.0830
" />
</g>
<g style="fill:#000000; fill-opacity:1.0000; stroke:none;">
<circle cx="3.9490" cy="3.2980" r="0.0100" /> 
</g>
<g style="fill:none; 
stroke:#000000; stroke-width:0.0200; stroke-opacity:1; 
stroke-linecap:round; stroke-linejoin:round;">
<path d="M3.9490 3.3860
L3.9490 3.2980
" />
<path d="M3.9490 3.4230
L3.9800 3.4230
" />
<path d="M3.9490 3.4750
L3.9490 3.3860
" />
<path d="M3.9800 2.2930
L3.9800 2.4370
" />
<path d="M3.9800 2.6490
L3.9800 2.6600
" />
<path d="M3.9800 2.6600
L3.9800 2.9620
" />
<path d="M3.9800 2.9620
L3.9800 3.1380
" />
<path d="M3.9800 3.1380
L3.9800 3.4750
" />
<path d="M3.9800 3.4750
L3.7680 3.4750
" />
<path d="M4.2680 2.2930
L4.2680 2.4370
" />
<path d="M4.2680 2.4370
L3.9800 2.4370
" />
<path d="M4.2680 2.6490
L3.9800 2.6490
" />
<path d="M4.2680 2.6490
L4.2680 2.6600
" />
<path d="M4.2680 2.6600
L4.2680 2.9620
" />
<path d="M4.2680 2.7730
L4.2980 2.7730
" />
<path d="M4.2680 2.9620
L4.2680 3.1380
" />
<path d="M4.2680 3.1380
L4.2680 3.4750
" />
<path d="M4.2680 3.1750
L4.2980 3.1750
" />
<path d="M4.2680 3.4230
L4.2980 3.4230
" />
<path d="M4.2980 0.6250
L4.2980 0.4730
" />
<path d="M4.2980 0.8750
L4.2980 0.6250
" />
<path d="M4.2980 3.0830
L4.2980 2.2930
" />
<path d="M4.2980 3.2980
L4.2980 3.0830
" />
</g>
<g style="fill:#000000; fill-opacity:1.0000; stroke:none;">
<circle cx="4.2980" cy="3.2980" r="0.0100" /> 
</g>
<g style="fill:none; 
stroke:#000000; stroke-width:0.0200; stroke-opacity:1; 
stroke-linecap:round; stroke-linejoin:round;">
<path d="M4.2980 3.3860
L4.2980 3.2980
" />
<path d="M4.2980 3.3860
L4.4490 3.3860
" />
<path d="M4.2980 3.4750
L4.2980 3.3860
" />
<path d="M4.4490 0.4730
L4.2980 0.4730
" />
<path d="M4.4490 0.6250
L4.2980 0.6250
" />
<path d="M4.4490 0.6250
L4.4490 0.4730
" />
<path d="M4.4490 0.8750
L4.4490 0.6250
" />
<path d="M4.4490 2.7730
L4.4800 2.7730
" />
<path d="M4.4490 3.0830
L4.4490 2.2930
" />
<path d="M4.4490 3.1750
L4.4800 3.1750
" />
<path d="M4.4490 3.2980
L4.4490 3.0830
" />
</g>
<g style="fill:#000000; fill-opacity:1.0000; stroke:none;">
<circle cx="4.4490" cy="3.2980" r="0.0100" /> 
</g>
<g style="fill:none; 
stroke:#000000; stroke-width:0.0200; stroke-opacity:1; 
stroke-linecap:round; stroke-linejoin:round;">
<path d="M4.4490 3.3860
L4.4490 3.2980
" />
<path d="M4.4490 3.4230
L4.4800 3.4230
" />
<path d="M4.4490 3.4750
L4.4490 3.3860
" />
<path d="M4.4800 2.2930
L4.4800 2.4370
" />
<path d="M4.4800 2.6490
L4.4800 2.6600
" />
<path d="M4.4800 2.6600
L4.4800 2.9620
" />
<path d="M4.4800 2.9620
L4.4800 3.1380
" />
<path d="M4.4800 3.1380
L4.4800 3.4750
" />
<path d="M4.4800 3.4750
L4.2680 3.4750
" />
<path d="M4.7690 2.2930
L4.7690 2.4370
" />
<path d="M4.7690 2.4370
L4.4800 2.4370
" />
<path d="M4.7690 2.6490
L4.4800 2.6490
" />
<path d="M4.7690 2.6490
L4.7690 2.6600
" />
<path d="M4.7690 2.6600
L4.7690 2.9620
" />
<path d="M4.7690 2.7730
L4.7970 2.7730
" />
<path d="M4.7690 2.9620
L4.7690 3.1380
" />
<path d="M4.7690 3.1380
L4.7690 3.4750
" />
<path d="M4.7690 3.1750
L4.7970 3.1750
" />
<path d="M4.7690 3.4230
L4.7970 3.4230
" />
<path d="M4.7970 0.6250
L4.7970 0.4730
" />
<path d="M4.7970 0.8750
L4.7970 0.6250
" />
<path d="M4.7970 3.0830
L4.7970 2.2930
" />
<path d="M4.7970 3.2980
L4.7970 3.0830
" />
</g>
<g style="fill:#000000; fill-opacity:1.0000; stroke:none;">
<circle cx="4.7970" cy="3.2980" r="0.0100" /> 
</g>
<g style="fill:none; 
stroke:#000000; stroke-width:0.0200; stroke-opacity:1; 
stroke-linecap:round; stroke-linejoin:round;">
<path d="M4.7970 3.3860
L4.7970 3.2980
" />
<path d="M4.7970 3.3860
L4.9470 3.3860
" />
<path d="M4.7970 3.4750
L4.7970 3.3860
" />
<path d="M4.9470 0.4730
L4.7970 0.4730
" />
<path d="M4.9470 0.6250
L4.7970 0.6250
" />
<path d="M4.9470 0.6250
L4.9470 0.4730
" />
<path d="M4.9470 0.8750
L4.9470 0.6250
" />
<path d="M4.9470 2.7730
L4.9770 2.7730
" />
<path d="M4.9470 3.0830
L4.9470 2.2930
" />
<path d="M4.9470 3.1750
L4.9770 3.1750
" />
<path d="M4.9470 3.2980
L4.9470 3.0830
" />
</g>
<g style="fill:#000000; fill-opacity:1.0000; stroke:none;">
<circle cx="4.9470" cy="3.2980" r="0.0100" /> 
</g>
<g style="fill:none; 
stroke:#000000; stroke-width:0.0200; stroke-opacity:1; 
stroke-linecap:round; stroke-linejoin:round;">
<path d="M4.9470 3.3860
L4.9470 3.2980
" />
<path d="M4.9470 3.4230
L4.9770 3.4230
" />
<path d="M4.9470 3.4750
L4.9470 3.3860
" />
<path d="M4.9770 2.2930
L4.9770 2.4370
" />
<path d="M4.9770 2.6490
L4.9770 2.6600
" />
<path d="M4.9770 2.6600
L4.9770 2.9620
" />
<path d="M4.9770 2.9620
L4.9770 3.1380
" />
<path d="M4.9770 3.1380
L4.9770 3.4750
" />
<path d="M4.9770 3.4750
L4.7690 3.4750
" />
<path d="M5.2690 2.2930
L5.2690 2.4370
" />
<path d="M5.2690 2.4370
L4.9770 2.4370
" />
<path d="M5.2690 2.6490
L4.9770 2.6490
" />
<path d="M5.2690 2.6490
L5.2690 2.6600
" />
<path d="M5.2690 2.6600
L5.2690 2.9620
" />
<path d="M5.2690 2.7730
L5.2970 2.7730
" />
<path d="M5.2690 2.9620
L5.2690 3.1380
" />
<path d="M5.2690 3.1380
L5.2690 3.4750
" />
<path d="M5.2690 3.1750
L5.2970 3.1750
" />
<path d="M5.2690 3.4230
L5.2970 3.4230
" />
<path d="M5.2970 0.6250
L5.2970 0.4730
" />
<path d="M5.2970 0.8750
L5.2970 0.6250
" />
<path d="M5.2970 3.0830
L5.2970 2.2930
" />
<path d="M5.2970 3.2980
L5.2970 3.0830
" />
</g>
<g style="fill:#000000; fill-opacity:1.0000; stroke:none;">
<circle cx="5.2970" cy="3.2980" r="0.0100" /> 
</g>
<g style="fill:none; 
stroke:#000000; stroke-width:0.0200; stroke-opacity:1; 
stroke-linecap:round; stroke-linejoin:round;">
<path d="M5.2970 3.3860
L5.2970 3.2980
" />
<path d="M5.2970 3.3860
L5.4490 3.3860
" />
<path d="M5.2970 3.4750
L5.2970 3.3860
" />
<path d="M5.4490 0.4730
L5.2970 0.4730
" />
<path d="M5.4490 0.6250
L5.2970 0.6250
" />
<path d="M5.4490 0.6250
L5.4490 0.4730
" />
<path d="M5.4490 0.8750
L5.4490 0.6250
" />
<path d="M5.4490 2.7730
L5.4790 2.7730
" />
<path d="M5.4490 3.0830
L5.4490 2.2930
" />
<path d="M5.4490 3.1750
L5.4790 3.1750
" />
<path d="M5.4490 3.2980
L5.4490 3.0830
" />
</g>
<g style="fill:#000000; fill-opacity:1.0000; stroke:none;">
<circle cx="5.4490" cy="3.2980" r="0.0100" /> 
</g>
<g style="fill:none; 
stroke:#000000; stroke-width:0.0200; stroke-opacity:1; 
stroke-linecap:round; stroke-linejoin:round;">
<path d="M5.4490 3.3860
L5.4490 3.2980
" />
<path d="M5.4490 3.4230
L5.4790 3.4230
" />
<path d="M5.4490 3.4750
L5.4490 3.3860
" />
<path d="M5.4790 2.2930
L5.4790 2.4370
" />
<path d="M5.4790 2.6490
L5.4790 2.6600
" />
<path d="M5.4790 2.6600
L5.4790 2.9620
" />
<path d="M5.4790 2.9620
L5.4790 3.1380
" />
<path d="M5.4790 3.1380
L5.4790 3.4750
" />
<path d="M5.4790 3.4750
L5.2690 3.4750
" />
<path d="M5.7690 2.2930
L5.7690 2.4370
" />
<path d="M5.7690 2.4370
L5.4790 2.4370
" />
<path d="M5.7690 2.6490
L5.4790 2.6490
" />
<path d="M5.7690 2.6490
L5.7690 2.6600
" />
<path d="M5.7690 2.6600
L5.7690 2.9620
" />
<path d="M5.7690 2.7730
L5.7990 2.7730
" />
<path d="M5.7690 2.9620
L5.7690 3.1380
" />
<path d="M5.7690 3.1380
L5.7690 3.4750
" />
<path d="M5.7690 3.1750
L5.7990 3.1750
" />
<path d="M5.7690 3.4230
L5.7990 3.4230
" />
<path d="M5.7990 0.6250
L5.7990 0.4730
" />
<path d="M5.7990 0.8750
L5.7990 0.6250
" />
<path d="M5.7990 3.0830
L5.7990 2.2930
" />
<path d="M5.7990 3.2980
L5.7990 3.0830
" />
</g>
<g style="fill:#000000; fill-opacity:1.0000; stroke:none;">
<circle cx="5.7990" cy="3.2980" r="0.0100" /> 
</g>
<g style="fill:none; 
stroke:#000000; stroke-width:0.0200; stroke-opacity:1; 
stroke-linecap:round; stroke-linejoin:round;">
<path d="M5.7990 3.3860
L5.7990 3.2980
" />
<path d="M5.7990 3.3860
L5.9490 3.3860
" />
<path d="M5.7990 3.4750
L5.7990 3.3860
" />
<path d="M5.9490 0.4730
L5.7990 0.4730
" />
<path d="M5.9490 0.6250
L5.7990 0.6250
" />
<path d="M5.9490 0.6250
L5.9490 0.4730
" />
<path d="M5.9490 0.8750
L5.9490 0.6250
" />
<path d="M5.9490 2.7730
L5.9770 2.7730
" />
<path d="M5.9490 3.0830
L5.9490 2.2930
" />
<path d="M5.9490 3.1750
L5.9770 3.1750
" />
<path d="M5.9490 3.2980
L5.9490 3.0830
" />
</g>
<g style="fill:#000000; fill-opacity:1.0000; stroke:none;">
<circle cx="5.9490" cy="3.2980" r="0.0100" /> 
</g>
<g style="fill:none; 
stroke:#000000; stroke-width:0.0200; stroke-opacity:1; 
stroke-linecap:round; stroke-linejoin:round;">
<path d="M5.9490 3.3860
L5.9490 3.2980
" />
<path d="M5.9490 3.4230
L5.9770 3.4230
" />
<path d="M5.9490 3.4750
L5.9490 3.3860
" />
<path d="M5.9770 2.2930
L5.9770 2.4370
" />
<path d="M5.9770 2.6490
L5.9770 2.6600
" />
<path d="M5.9770 2.6600
L5.9770 2.9620
" />
<path d="M5.9770 2.9620
L5.9770 3.1380
" />
<path d="M5.9770 3.1380
L5.9770 3.4750
" />
<path d="M5.9770 3.4750
L5.7690 3.4750
" />
<path d="M6.2690 2.2930
L6.2690 2.4370
" />
<path d="M6.2690 2.4370
L5.9770 2.4370
" />
<path d="M6.2690 2.6490
L5.9770 2.6490
" />
<path d="M6.2690 2.6490
L6.2690 2.6600
" />
<path d="M6.2690 2.6600
L6.2690 2.9620
" />
<path d="M6.2690 2.7730
L6.2990 2.7730
" />
<path d="M6.2690 2.9620
L6.2690 3.1380
" />
<path d="M6.2690 3.1380
L6.2690 3.4750
" />
<path d="M6.2690 3.1750
L6.2990 3.1750
" />
<path d="M6.2690 3.4230
L6.2990 3.4230
" />
<path d="M6.2990 0.6250
L6.2990 0.4730
" />
<path d="M6.2990 0.8750
L6.2990 0.6250
" />
<path d="M6.2990 3.0830
L6.2990 2.2930
" />
<path d="M6.2990 3.2980
L6.2990 3.0830
" />
</g>
<g style="fill:#000000; fill-opacity:1.0000; stroke:none;">
<circle cx="6.2990" cy="3.2980" r="0.0100" /> 
</g>
<g style="fill:none; 
stroke:#000000; stroke-width:0.0200; stroke-opacity:1; 
stroke-linecap:round; stroke-linejoin:round;">
<path d="M6.2990 3.3860
L6.2990 3.2980
" />
<path d="M6.2990 3.3860
L6.4490 3.3860
" />
<path d="M6.2990 3.4750
L6.2990 3.3860
" />
<path d="M6.4490 0.4730
L6.2990 0.4730
" />
<path d="M6.4490 0.6250
L6.2990 0.6250
" />
<path d="M6.4490 0.6250
L6.4490 0.4730
" />
<path d="M6.4490 0.8750
L6.4490 0.6250
" />
<path d="M6.4490 2.7730
L6.4770 2.7730
" />
<path d="M6.4490 3.0830
L6.4490 2.2930
" />
<path d="M6.4490 3.1750
L6.4770 3.1750
" />
<path d="M6.4490 3.2980
L6.4490 3.0830
" />
</g>
<g style="fill:#000000; fill-opacity:1.0000; stroke:none;">
<circle cx="6.4490" cy="3.2980" r="0.0100" /> 
</g>
<g style="fill:none; 
stroke:#000000; stroke-width:0.0200; stroke-opacity:1; 
stroke-linecap:round; stroke-linejoin:round;">
<path d="M6.4490 3.3860
L6.4490 3.2980
" />
<path d="M6.4490 3.4230
L6.4770 3.4230
" />
<path d="M6.4490 3.4750
L6.4490 3.3860
" />
<path d="M6.4770 2.2930
L6.4770 2.4370
" />
<path d="M6.4770 2.6490
L6.4770 2.6600
" />
<path d="M6.4770 2.6600
L6.4770 2.9620
" />
<path d="M6.4770 2.9620
L6.4770 3.1380
" />
<path d="M6.4770 3.1380
L6.4770 3.4750
" />
<path d="M6.4770 3.4750
L6.2690 3.4750
" />
<path d="M6.7690 2.2930
L6.7690 2.4370
" />
<path d="M6.7690 2.4370
L6.4770 2.4370
" />
<path d="M6.7690 2.6490
L6.4770 2.6490
" />
<path d="M6.7690 2.6490
L6.7690 2.6600
" />
<path d="M6.7690 2.6600
L6.7690 2.9620
" />
<path d="M6.7690 2.7730
L6.7980 2.7730
" />
<path d="M6.7690 2.9620
L6.7690 3.1380
" />
<path d="M6.7690 3.1380
L6.7690 3.4750
" />
<path d="M6.7690 3.1750
L6.7980 3.1750
" />
<path d="M6.7690 3.4230
L6.7980 3.4230
" />
<path d="M6.7980 0.6250
L6.7980 0.4730
" />
<path d="M6.7980 0.8750
L6.7980 0.6250
" />
<path d="M6.7980 3.0830
L6.7980 2.2930
" />
<path d="M6.7980 3.2980
L6.7980 3.0830
" />
</g>
<g style="fill:#000000; fill-opacity:1.0000; stroke:none;">
<circle cx="6.7980" cy="3.2980" r="0.0100" /> 
</g>
<g style="fill:none; 
stroke:#000000; stroke-width:0.0200; stroke-opacity:1; 
stroke-linecap:round; stroke-linejoin:round;">
<path d="M6.7980 3.3860
L6.7980 3.2980
" />
<path d="M6.7980 3.3860
L6.9490 3.3860
" />
<path d="M6.7980 3.4750
L6.7980 3.3860
" />
<path d="M6.9490 0.4730
L6.7980 0.4730
" />
<path d="M6.9490 0.6250
L6.7980 0.6250
" />
<path d="M6.9490 0.6250
L6.9490 0.4730
" />
<path d="M6.9490 0.8750
L6.9490 0.6250
" />
<path d="M6.9490 2.7730
L6.9790 2.7730
" />
<path d="M6.9490 3.0830
L6.9490 2.2930
" />
<path d="M6.9490 3.1750
L6.9790 3.1750
" />
<path d="M6.9490 3.2980
L6.9490 3.0830
" />
</g>
<g style="fill:#000000; fill-opacity:1.0000; stroke:none;">
<circle cx="6.9490" cy="3.2980" r="0.0100" /> 
</g>
<g style="fill:none; 
stroke:#000000; stroke-width:0.0200; stroke-opacity:1; 
stroke-linecap:round; stroke-linejoin:round;">
<path d="M6.9490 3.3860
L6.9490 3.2980
" />
<path d="M6.9490 3.4230
L6.9790 3.4230
" />
<path d="M6.9490 3.4750
L6.9490 3.3860
" />
<path d="M6.9790 2.2930
L6.9790 2.4370
" />
<path d="M6.9790 2.6490
L6.9790 2.6600
" />
<path d="M6.9790 2.6600
L6.9790 2.9620
" />
<path d="M6.9790 2.9620
L6.9790 3.1380
" />
<path d="M6.9790 3.1380
L6.9790 3.4750
" />
<path d="M6.9790 3.4750
L6.7690 3.4750
" />
<path d="M7.2690 2.2930
L7.2690 2.4370
" />
<path d="M7.2690 2.4370
L6.9790 2.4370
" />
<path d="M7.2690 2.6490
L6.9790 2.6490
" />
<path d="M7.2690 2.6490
L7.2690 2.6600
" />
<path d="M7.2690 2.6600
L7.2690 2.9620
" />
<path d="M7.2690 2.7730
L7.2980 2.7730
" />
<path d="M7.2690 2.9620
L7.2690 3.1380
" />
<path d="M7.2690 3.1380
L7.2690 3.4750
" />
<path d="M7.2690 3.1750
L7.2980 3.1750
" />
<path d="M7.2690 3.4230
L7.2980 3.4230
" />
<path d="M7.2980 0.6250
L7.2980 0.4730
" />
<path d="M7.2980 0.8750
L7.2980 0.6250
" />
<path d="M7.2980 3.0830
L7.2980 2.2930
" />
<path d="M7.2980 3.2980
L7.2980 3.0830
" />
</g>
<g style="fill:#000000; fill-opacity:1.0000; stroke:none;">
<circle cx="7.2980" cy="3.2980" r="0.0100" /> 
</g>
<g style="fill:none; 
stroke:#000000; stroke-width:0.0200; stroke-opacity:1; 
stroke-linecap:round; stroke-linejoin:round;">
<path d="M7.2980 3.3860
L7.2980 3.2980
" />
<path d="M7.2980 3.3860
L7.4490 3.3860
" />
<path d="M7.2980 3.4750
L7.2980 3.3860
" />
<path d="M7.4490 0.4730
L7.2980 0.4730
" />
<path d="M7.4490 0.6250
L7.2980 0.6250
" />
<path d="M7.4490 0.6250
L7.4490 0.4730
" />
<path d="M7.4490 0.8750
L7.4490 0.6250
" />
<path d="M7.4490 2.7730
L7.4790 2.7730
" />
<path d="M7.4490 3.0830
L7.4490 2.2930
" />
<path d="M7.4490 3.1750
L7.4790 3.1750
" />
<path d="M7.4490 3.2980
L7.4490 3.0830
" />
</g>
<g style="fill:#000000; fill-opacity:1.0000; stroke:none;">
<circle cx="7.4490" cy="3.2980" r="0.0100" /> 
</g>
<g style="fill:none; 
stroke:#000000; stroke-width:0.0200; stroke-opacity:1; 
stroke-linecap:round; stroke-linejoin:round;">
<path d="M7.4490 3.3860
L7.4490 3.2980
" />
<path d="M7.4490 3.4230
L7.4790 3.4230
" />
<path d="M7.4490 3.4750
L7.4490 3.3860
" />
<path d="M7.4790 2.2930
L7.4790 2.4370
" />
<path d="M7.4790 2.6490
L7.4790 2.6600
" />
<path d="M7.4790 2.6600
L7.4790 2.9620
" />
<path d="M7.4790 2.9620
L7.4790 3.1380
" />
<path d="M7.4790 3.1380
L7.4790 3.4750
" />
<path d="M7.4790 3.4750
L7.2690 3.4750
" />
<path d="M7.7690 2.2930
L7.7690 2.4370
" />
<path d="M7.7690 2.4370
L7.4790 2.4370
" />
<path d="M7.7690 2.6490
L7.4790 2.6490
" />
<path d="M7.7690 2.6490
L7.7690 2.6600
" />
<path d="M7.7690 2.6600
L7.7690 2.9620
" />
<path d="M7.7690 2.7730
L7.7970 2.7730
" />
<path d="M7.7690 2.9620
L7.7690 3.1380
" />
<path d="M7.7690 3.1380
L7.7690 3.4750
" />
<path d="M7.7690 3.1750
L7.7970 3.1750
" />
<path d="M7.7690 3.4230
L7.7970 3.4230
" />
<path d="M7.7970 0.6250
L7.7970 0.4730
" />
<path d="M7.7970 0.8750
L7.7970 0.6250
" />
<path d="M7.7970 3.0830
L7.7970 2.2930
" />
<path d="M7.7970 3.2980
L7.7970 3.0830
" />
</g>
<g style="fill:#000000; fill-opacity:1.0000; stroke:none;">
<circle cx="7.7970" cy="3.2980" r="0.0100" /> 
</g>
<g style="fill:none; 
stroke:#000000; stroke-width:0.0200; stroke-opacity:1; 
stroke-linecap:round; stroke-linejoin:round;">
<path d="M7.7970 3.3860
L7.7970 3.2980
" />
<path d="M7.7970 3.3860
L7.9470 3.3860
" />
<path d="M7.7970 3.4750
L7.7970 3.3860
" />
<path d="M7.9470 0.4730
L7.7970 0.4730
" />
<path d="M7.9470 0.6250
L7.7970 0.6250
" />
<path d="M7.9470 0.6250
L7.9470 0.4730
" />
<path d="M7.9470 0.8750
L7.9470 0.6250
" />
<path d="M7.9470 2.7730
L7.9790 2.7730
" />
<path d="M7.9470 3.0830
L7.9470 2.2930
" />
<path d="M7.9470 3.1750
L7.9790 3.1750
" />
<path d="M7.9470 3.2980
L7.9470 3.0830
" />
</g>
<g style="fill:#000000; fill-opacity:1.0000; stroke:none;">
<circle cx="7.9470" cy="3.2980" r="0.0100" /> 
</g>
<g style="fill:none; 
stroke:#000000; stroke-width:0.0200; stroke-opacity:1; 
stroke-linecap:round; stroke-linejoin:round;">
<path d="M7.9470 3.3860
L7.9470 3.2980
" />
<path d="M7.9470 3.4230
L7.9790 3.4230
" />
<path d="M7.9470 3.4750
L7.9470 3.3860
" />
<path d="M7.9790 2.2930
L7.9790 2.4370
" />
<path d="M7.9790 2.6490
L7.9790 2.6600
" />
<path d="M7.9790 2.6600
L7.9790 2.9620
" />
<path d="M7.9790 2.9620
L7.9790 3.1380
" />
<path d="M7.9790 3.1380
L7.9790 3.4750
" />
<path d="M7.9790 3.4750
L7.7690 3.4750
" />
<path d="M8.3220 5.7740
L8.3220 5.6730
" />
<path d="M8.4090 2.4370
L7.9790 2.4370
" />
<path d="M8.4090 2.4370
L8.4090 2.4960
" />
<path d="M8.4090 2.4960
L9.8260 2.4960
" />
<path d="M8.4090 2.6490
L8.4090 2.4960
" />
<path d="M9.6740 2.6490
L7.9790 2.6490
" />
<path d="M9.6740 2.6490
L9.6740 2.6600
" />
<path d="M9.6740 2.6500
L9.6740 2.6490
" />
<path d="M9.6740 2.6600
L9.6740 2.7530
" />
<path d="M9.6740 2.7530
L9.8260 2.7960
" />
<path d="M9.6740 4.4250
L9.7540 4.4250
" />
<path d="M9.6740 4.4730
L9.6740 4.4250
" />
<path d="M9.6740 5.6730
L8.3220 5.6730
" />
<path d="M9.6740 5.6730
L9.6740 4.4250
" />
<path d="M9.7540 2.8850
L9.7540 2.9620
" />
<path d="M9.7540 2.9620
L9.7540 3.1380
" />
<path d="M9.7540 4.4250
L9.7540 3.1380
" />
<path d="M9.8260 2.2930
L1.4230 2.2930
" />
<path d="M9.8260 2.8640
L9.7540 2.8850
" />
<path d="M9.8260 4.4250
L9.7540 4.4250
" />
<path d="M9.8260 4.4730
L9.6740 4.4730
" />
<path d="M9.8260 4.4730
L9.8260 2.2930
" />
<path d="M9.8260 4.4730
L10.4740 4.4730
" />
<path d="M9.9240 0.5240
L9.9240 0.8750
" />
<path d="M10.4740 0.5240
L9.9240 0.5240
" />
<path d="M10.4740 0.5240
L10.4740 0.8750
" />
<path d="M10.4740 0.8750
L0.7740 0.8750
" />
<path d="M10.4740 4.4730
L10.4740 0.8750
" />
<path d="M10.6740 2.9230
L10.4740 2.9230
" />
<path d="M10.6740 3.8250
L10.4740 3.8250
" />
<path d="M10.6740 3.8250
L10.6850 3.8250
" />
<path d="M10.6850 2.9240
L10.6740 2.9230
" />
<path d="M10.6850 3.8250
L10.6950 3.8240
" />
<path d="M10.6950 2.9250
L10.6850 2.9240
" />
<path d="M10.6950 3.8240
L10.7030 3.8230
" />
<path d="M10.7030 2.9260
L10.6950 2.9250
" />
<path d="M10.7030 3.8230
L10.7140 3.8210
" />
<path d="M10.7140 2.9280
L10.7030 2.9260
" />
<path d="M10.7140 3.8210
L10.7240 3.8190
" />
<path d="M10.7240 2.9300
L10.7140 2.9280
" />
<path d="M10.7240 3.8190
L10.7330 3.8170
" />
<path d="M10.7330 2.9340
L10.7240 2.9300
" />
<path d="M10.7330 3.8170
L10.7430 3.8130
" />
<path d="M10.7430 2.9380
L10.7330 2.9340
" />
<path d="M10.7430 3.8130
L10.7510 3.8100
" />
<path d="M10.7510 2.9410
L10.7430 2.9380
" />
<path d="M10.7510 3.8100
L10.7620 3.8060
" />
<path d="M10.7620 2.9450
L10.7510 2.9410
" />
<path d="M10.7620 3.8060
L10.7700 3.8010
" />
<path d="M10.7700 2.9490
L10.7620 2.9450
" />
<path d="M10.7700 3.8010
L10.7780 3.7970
" />
<path d="M10.7780 2.9520
L10.7700 2.9490
" />
<path d="M10.7780 3.7970
L10.7860 3.7910
" />
<path d="M10.7860 2.9580
L10.7780 2.9520
" />
<path d="M10.7860 3.7910
L10.7940 3.7860
" />
<path d="M10.7940 2.9630
L10.7860 2.9580
" />
<path d="M10.7940 3.7860
L10.8020 3.7800
" />
<path d="M10.8020 2.9710
L10.7940 2.9630
" />
<path d="M10.8020 3.7800
L10.8100 3.7740
" />
<path d="M10.8100 2.9770
L10.8020 2.9710
" />
<path d="M10.8100 3.7740
L10.8150 3.7670
" />
<path d="M10.8150 2.9820
L10.8100 2.9770
" />
<path d="M10.8150 3.7670
L10.8230 3.7580
" />
<path d="M10.8230 2.9890
L10.8150 2.9820
" />
<path d="M10.8230 3.7580
L10.8280 3.7510
" />
<path d="M10.8280 2.9980
L10.8230 2.9890
" />
<path d="M10.8280 3.7510
L10.8340 3.7430
" />
<path d="M10.8340 3.0050
L10.8280 2.9980
" />
<path d="M10.8340 3.7430
L10.8390 3.7350
" />
<path d="M10.8390 3.0140
L10.8340 3.0050
" />
<path d="M10.8390 3.7350
L10.8440 3.7270
" />
<path d="M10.8440 3.0200
L10.8390 3.0140
" />
<path d="M10.8440 3.7270
L10.8500 3.7190
" />
<path d="M10.8500 3.0300
L10.8440 3.0200
" />
<path d="M10.8500 3.7190
L10.8550 3.7100
" />
<path d="M10.8550 3.0370
L10.8500 3.0300
" />
<path d="M10.8550 3.7100
L10.8580 3.7010
" />
<path d="M10.8580 3.0480
L10.8550 3.0370
" />
<path d="M10.8580 3.7010
L10.8600 3.6940
" />
<path d="M10.8600 3.0550
L10.8580 3.0480
" />
<path d="M10.8600 3.6940
L10.8660 3.6850
" />
<path d="M10.8660 3.0650
L10.8600 3.0550
" />
<path d="M10.8660 3.6850
L10.8680 3.6750
" />
<path d="M10.8680 3.0740
L10.8660 3.0650
" />
<path d="M10.8680 3.0830
L10.8680 3.0740
" />
<path d="M10.8680 3.6660
L10.8710 3.6560
" />
<path d="M10.8680 3.6750
L10.8680 3.6660
" />
<path d="M10.8710 3.0950
L10.8680 3.0830
" />
<path d="M10.8710 3.6560
L10.8730 3.6460
" />
<path d="M10.8730 3.1030
L10.8710 3.0950
" />
<path d="M10.8730 3.1150
L10.8730 3.1030
" />
<path d="M10.8730 3.1260
L10.8730 3.1150
" />
<path d="M10.8730 3.6230
L10.8730 3.1260
" />
<path d="M10.8730 3.6340
L10.8730 3.6230
" />
<path d="M10.8730 3.6460
L10.8730 3.6340
" />
</g> 
</svg>
