<?xml version="1.0" standalone="no"?>
 <!DOCTYPE svg PUBLIC "-//W3C//DTD SVG 1.1//EN" 
 "http://www.w3.org/Graphics/SVG/1.1/DTD/svg11.dtd"> 
<svg
  xmlns:svg="http://www.w3.org/2000/svg"
  xmlns="http://www.w3.org/2000/svg"
  xmlns:xlink="http://www.w3.org/1999/xlink"
  version="1.1"
  width="9.8298mm" height="20.8280mm" viewBox="0.0000 0.0000 9.8298 20.8280">
<title>SVG Image created as outline.svg date 2025/04/04 10:06:13 </title>
  <desc>Image generated by PCBNEW </desc>
<g style="fill:#000000; fill-opacity:1.0000;stroke:#000000; stroke-opacity:1.0000;
stroke-linecap:round; stroke-linejoin:round;"
 transform="translate(0 0) scale(1 1)">
</g>
<g style="fill:none; 
stroke:#000000; stroke-width:0.0200; stroke-opacity:1; 
stroke-linecap:round; stroke-linejoin:round;">
<path d="M1.4070 1.2980
L1.4070 1.5520
" />
<path d="M1.4070 1.5520
L1.7880 1.6790
" />
<path d="M1.4070 3.2980
L1.4070 3.5520
" />
<path d="M1.4070 3.5520
L1.7880 3.6790
" />
<path d="M1.4070 5.2980
L1.4070 5.5520
" />
<path d="M1.4070 5.5520
L1.7880 5.6790
" />
<path d="M1.4070 7.2980
L1.4070 7.5520
" />
<path d="M1.4070 7.5520
L1.7880 7.6790
" />
<path d="M1.4070 9.2980
L1.4070 9.5520
" />
<path d="M1.4070 9.5520
L1.7880 9.6790
" />
<path d="M1.4070 11.2980
L1.4070 11.5520
" />
<path d="M1.4070 11.5520
L1.7880 11.6790
" />
<path d="M1.4070 13.2980
L1.4070 13.5520
" />
<path d="M1.4070 13.5520
L1.7880 13.6790
" />
<path d="M1.4070 15.2980
L1.4070 15.5520
" />
<path d="M1.4070 15.5520
L1.7880 15.6790
" />
<path d="M1.4070 17.2980
L1.4070 17.5520
" />
<path d="M1.4070 17.5520
L1.7880 17.6790
" />
<path d="M1.4070 19.2980
L1.4070 19.5520
" />
<path d="M1.4070 19.5520
L1.7880 19.6790
" />
<path d="M1.7880 1.1710
L1.4070 1.2980
" />
<path d="M1.7880 1.1710
L1.7880 1.6790
" />
<path d="M1.7880 3.1710
L1.4070 3.2980
" />
<path d="M1.7880 3.1710
L1.7880 3.6790
" />
<path d="M1.7880 3.1710
L2.9310 3.1710
" />
<path d="M1.7880 5.1710
L1.4070 5.2980
" />
<path d="M1.7880 5.1710
L1.7880 5.6790
" />
<path d="M1.7880 5.1710
L2.9310 5.1710
" />
<path d="M1.7880 7.1710
L1.4070 7.2980
" />
<path d="M1.7880 7.1710
L1.7880 7.6790
" />
<path d="M1.7880 7.1710
L2.9310 7.1710
" />
<path d="M1.7880 9.1710
L1.4070 9.2980
" />
<path d="M1.7880 9.1710
L1.7880 9.6790
" />
<path d="M1.7880 9.1710
L2.9310 9.1710
" />
<path d="M1.7880 11.1710
L1.4070 11.2980
" />
<path d="M1.7880 11.1710
L1.7880 11.6790
" />
<path d="M1.7880 11.1710
L2.9310 11.1710
" />
<path d="M1.7880 13.1710
L1.4070 13.2980
" />
<path d="M1.7880 13.1710
L1.7880 13.6790
" />
<path d="M1.7880 13.1710
L2.9310 13.1710
" />
<path d="M1.7880 15.1710
L1.4070 15.2980
" />
<path d="M1.7880 15.1710
L1.7880 15.6790
" />
<path d="M1.7880 15.1710
L2.9310 15.1710
" />
<path d="M1.7880 17.1710
L1.4070 17.2980
" />
<path d="M1.7880 17.1710
L1.7880 17.6790
" />
<path d="M1.7880 17.1710
L2.9310 17.1710
" />
<path d="M1.7880 19.1710
L1.4070 19.2980
" />
<path d="M1.7880 19.1710
L1.7880 19.6790
" />
<path d="M1.7880 19.1710
L2.9310 19.1710
" />
<path d="M2.9310 0.4250
L2.9310 20.4250
" />
<path d="M2.9310 1.1710
L1.7880 1.1710
" />
<path d="M2.9310 1.6790
L1.7880 1.6790
" />
<path d="M2.9310 3.6790
L1.7880 3.6790
" />
<path d="M2.9310 5.6790
L1.7880 5.6790
" />
<path d="M2.9310 7.6790
L1.7880 7.6790
" />
<path d="M2.9310 9.6790
L1.7880 9.6790
" />
<path d="M2.9310 11.6790
L1.7880 11.6790
" />
<path d="M2.9310 13.6790
L1.7880 13.6790
" />
<path d="M2.9310 15.6790
L1.7880 15.6790
" />
<path d="M2.9310 17.6790
L1.7880 17.6790
" />
<path d="M2.9310 19.6790
L1.7880 19.6790
" />
<path d="M2.9310 20.4250
L6.9190 20.4250
" />
<path d="M3.6710 1.1710
L3.6710 1.6790
" />
<path d="M3.6710 1.6790
L3.7980 1.5520
" />
<path d="M3.6710 3.1710
L3.6710 3.6790
" />
<path d="M3.6710 3.6790
L3.7980 3.5520
" />
<path d="M3.6710 5.1710
L3.6710 5.6790
" />
<path d="M3.6710 5.6790
L3.7980 5.5520
" />
<path d="M3.6710 7.1710
L3.6710 7.6790
" />
<path d="M3.6710 7.6790
L3.7980 7.5520
" />
<path d="M3.6710 9.1710
L3.6710 9.6790
" />
<path d="M3.6710 9.6790
L3.7980 9.5520
" />
<path d="M3.6710 11.1710
L3.6710 11.6790
" />
<path d="M3.6710 11.6790
L3.7980 11.5520
" />
<path d="M3.6710 13.1710
L3.6710 13.6790
" />
<path d="M3.6710 13.6790
L3.7980 13.5520
" />
<path d="M3.6710 15.1710
L3.6710 15.6790
" />
<path d="M3.6710 15.6790
L3.7980 15.5520
" />
<path d="M3.6710 17.1710
L3.6710 17.6790
" />
<path d="M3.6710 17.6790
L3.7980 17.5520
" />
<path d="M3.6710 19.1710
L3.6710 19.6790
" />
<path d="M3.6710 19.6790
L3.7980 19.5520
" />
<path d="M3.7980 1.2980
L3.6710 1.1710
" />
<path d="M3.7980 1.2980
L3.7980 1.5520
" />
<path d="M3.7980 3.2980
L3.6710 3.1710
" />
<path d="M3.7980 3.2980
L3.7980 3.5520
" />
<path d="M3.7980 5.2980
L3.6710 5.1710
" />
<path d="M3.7980 5.2980
L3.7980 5.5520
" />
<path d="M3.7980 7.2980
L3.6710 7.1710
" />
<path d="M3.7980 7.2980
L3.7980 7.5520
" />
<path d="M3.7980 9.2980
L3.6710 9.1710
" />
<path d="M3.7980 9.2980
L3.7980 9.5520
" />
<path d="M3.7980 11.2980
L3.6710 11.1710
" />
<path d="M3.7980 11.2980
L3.7980 11.5520
" />
<path d="M3.7980 13.2980
L3.6710 13.1710
" />
<path d="M3.7980 13.2980
L3.7980 13.5520
" />
<path d="M3.7980 15.2980
L3.6710 15.1710
" />
<path d="M3.7980 15.2980
L3.7980 15.5520
" />
<path d="M3.7980 17.2980
L3.6710 17.1710
" />
<path d="M3.7980 17.2980
L3.7980 17.5520
" />
<path d="M3.7980 19.2980
L3.6710 19.1710
" />
<path d="M3.7980 19.2980
L3.7980 19.5520
" />
<path d="M4.0520 1.2980
L3.7980 1.2980
" />
<path d="M4.0520 1.2980
L4.0520 1.5520
" />
<path d="M4.0520 1.5520
L3.7980 1.5520
" />
<path d="M4.0520 1.5520
L4.1790 1.6790
" />
<path d="M4.0520 3.2980
L3.7980 3.2980
" />
<path d="M4.0520 3.2980
L4.0520 3.5520
" />
<path d="M4.0520 3.5520
L3.7980 3.5520
" />
<path d="M4.0520 3.5520
L4.1790 3.6790
" />
<path d="M4.0520 5.2980
L3.7980 5.2980
" />
<path d="M4.0520 5.2980
L4.0520 5.5520
" />
<path d="M4.0520 5.5520
L3.7980 5.5520
" />
<path d="M4.0520 5.5520
L4.1790 5.6790
" />
<path d="M4.0520 7.2980
L3.7980 7.2980
" />
<path d="M4.0520 7.2980
L4.0520 7.5520
" />
<path d="M4.0520 7.5520
L3.7980 7.5520
" />
<path d="M4.0520 7.5520
L4.1790 7.6790
" />
<path d="M4.0520 9.2980
L3.7980 9.2980
" />
<path d="M4.0520 9.2980
L4.0520 9.5520
" />
<path d="M4.0520 9.5520
L3.7980 9.5520
" />
<path d="M4.0520 9.5520
L4.1790 9.6790
" />
<path d="M4.0520 11.2980
L3.7980 11.2980
" />
<path d="M4.0520 11.2980
L4.0520 11.5520
" />
<path d="M4.0520 11.5520
L3.7980 11.5520
" />
<path d="M4.0520 11.5520
L4.1790 11.6790
" />
<path d="M4.0520 13.2980
L3.7980 13.2980
" />
<path d="M4.0520 13.2980
L4.0520 13.5520
" />
<path d="M4.0520 13.5520
L3.7980 13.5520
" />
<path d="M4.0520 13.5520
L4.1790 13.6790
" />
<path d="M4.0520 15.2980
L3.7980 15.2980
" />
<path d="M4.0520 15.2980
L4.0520 15.5520
" />
<path d="M4.0520 15.5520
L3.7980 15.5520
" />
<path d="M4.0520 15.5520
L4.1790 15.6790
" />
<path d="M4.0520 17.2980
L3.7980 17.2980
" />
<path d="M4.0520 17.2980
L4.0520 17.5520
" />
<path d="M4.0520 17.5520
L3.7980 17.5520
" />
<path d="M4.0520 17.5520
L4.1790 17.6790
" />
<path d="M4.0520 19.2980
L3.7980 19.2980
" />
<path d="M4.0520 19.2980
L4.0520 19.5520
" />
<path d="M4.0520 19.5520
L3.7980 19.5520
" />
<path d="M4.0520 19.5520
L4.1790 19.6790
" />
<path d="M4.1790 1.1710
L3.6710 1.1710
" />
<path d="M4.1790 1.1710
L4.0520 1.2980
" />
<path d="M4.1790 1.1710
L4.1790 1.6790
" />
<path d="M4.1790 1.6790
L3.6710 1.6790
" />
<path d="M4.1790 3.1710
L3.6710 3.1710
" />
<path d="M4.1790 3.1710
L4.0520 3.2980
" />
<path d="M4.1790 3.1710
L4.1790 3.6790
" />
<path d="M4.1790 3.6790
L3.6710 3.6790
" />
<path d="M4.1790 5.1710
L3.6710 5.1710
" />
<path d="M4.1790 5.1710
L4.0520 5.2980
" />
<path d="M4.1790 5.1710
L4.1790 5.6790
" />
<path d="M4.1790 5.6790
L3.6710 5.6790
" />
<path d="M4.1790 7.1710
L3.6710 7.1710
" />
<path d="M4.1790 7.1710
L4.0520 7.2980
" />
<path d="M4.1790 7.1710
L4.1790 7.6790
" />
<path d="M4.1790 7.6790
L3.6710 7.6790
" />
<path d="M4.1790 9.1710
L3.6710 9.1710
" />
<path d="M4.1790 9.1710
L4.0520 9.2980
" />
<path d="M4.1790 9.1710
L4.1790 9.6790
" />
<path d="M4.1790 9.6790
L3.6710 9.6790
" />
<path d="M4.1790 11.1710
L3.6710 11.1710
" />
<path d="M4.1790 11.1710
L4.0520 11.2980
" />
<path d="M4.1790 11.1710
L4.1790 11.6790
" />
<path d="M4.1790 11.6790
L3.6710 11.6790
" />
<path d="M4.1790 13.1710
L3.6710 13.1710
" />
<path d="M4.1790 13.1710
L4.0520 13.2980
" />
<path d="M4.1790 13.1710
L4.1790 13.6790
" />
<path d="M4.1790 13.6790
L3.6710 13.6790
" />
<path d="M4.1790 15.1710
L3.6710 15.1710
" />
<path d="M4.1790 15.1710
L4.0520 15.2980
" />
<path d="M4.1790 15.1710
L4.1790 15.6790
" />
<path d="M4.1790 15.6790
L3.6710 15.6790
" />
<path d="M4.1790 17.1710
L3.6710 17.1710
" />
<path d="M4.1790 17.1710
L4.0520 17.2980
" />
<path d="M4.1790 17.1710
L4.1790 17.6790
" />
<path d="M4.1790 17.6790
L3.6710 17.6790
" />
<path d="M4.1790 19.1710
L3.6710 19.1710
" />
<path d="M4.1790 19.1710
L4.0520 19.2980
" />
<path d="M4.1790 19.1710
L4.1790 19.6790
" />
<path d="M4.1790 19.6790
L3.6710 19.6790
" />
<path d="M5.6710 1.1710
L5.6710 1.6790
" />
<path d="M5.6710 1.6790
L5.7980 1.5520
" />
<path d="M5.6710 3.1710
L5.6710 3.6790
" />
<path d="M5.6710 3.6790
L5.7980 3.5520
" />
<path d="M5.6710 5.1710
L5.6710 5.6790
" />
<path d="M5.6710 5.6790
L5.7980 5.5520
" />
<path d="M5.6710 7.1710
L5.6710 7.6790
" />
<path d="M5.6710 7.6790
L5.7980 7.5520
" />
<path d="M5.6710 9.1710
L5.6710 9.6790
" />
<path d="M5.6710 9.6790
L5.7980 9.5520
" />
<path d="M5.6710 11.1710
L5.6710 11.6790
" />
<path d="M5.6710 11.6790
L5.7980 11.5520
" />
<path d="M5.6710 13.1710
L5.6710 13.6790
" />
<path d="M5.6710 13.6790
L5.7980 13.5520
" />
<path d="M5.6710 15.1710
L5.6710 15.6790
" />
<path d="M5.6710 15.6790
L5.7980 15.5520
" />
<path d="M5.6710 17.1710
L5.6710 17.6790
" />
<path d="M5.6710 17.6790
L5.7980 17.5520
" />
<path d="M5.6710 19.1710
L5.6710 19.6790
" />
<path d="M5.6710 19.6790
L5.7980 19.5520
" />
<path d="M5.7980 1.2980
L5.6710 1.1710
" />
<path d="M5.7980 1.2980
L5.7980 1.5520
" />
<path d="M5.7980 3.2980
L5.6710 3.1710
" />
<path d="M5.7980 3.2980
L5.7980 3.5520
" />
<path d="M5.7980 5.2980
L5.6710 5.1710
" />
<path d="M5.7980 5.2980
L5.7980 5.5520
" />
<path d="M5.7980 7.2980
L5.6710 7.1710
" />
<path d="M5.7980 7.2980
L5.7980 7.5520
" />
<path d="M5.7980 9.2980
L5.6710 9.1710
" />
<path d="M5.7980 9.2980
L5.7980 9.5520
" />
<path d="M5.7980 11.2980
L5.6710 11.1710
" />
<path d="M5.7980 11.2980
L5.7980 11.5520
" />
<path d="M5.7980 13.2980
L5.6710 13.1710
" />
<path d="M5.7980 13.2980
L5.7980 13.5520
" />
<path d="M5.7980 15.2980
L5.6710 15.1710
" />
<path d="M5.7980 15.2980
L5.7980 15.5520
" />
<path d="M5.7980 17.2980
L5.6710 17.1710
" />
<path d="M5.7980 17.2980
L5.7980 17.5520
" />
<path d="M5.7980 19.2980
L5.6710 19.1710
" />
<path d="M5.7980 19.2980
L5.7980 19.5520
" />
<path d="M6.0520 1.2980
L5.7980 1.2980
" />
<path d="M6.0520 1.2980
L6.0520 1.5520
" />
<path d="M6.0520 1.5520
L5.7980 1.5520
" />
<path d="M6.0520 1.5520
L6.1790 1.6790
" />
<path d="M6.0520 3.2980
L5.7980 3.2980
" />
<path d="M6.0520 3.2980
L6.0520 3.5520
" />
<path d="M6.0520 3.5520
L5.7980 3.5520
" />
<path d="M6.0520 3.5520
L6.1790 3.6790
" />
<path d="M6.0520 5.2980
L5.7980 5.2980
" />
<path d="M6.0520 5.2980
L6.0520 5.5520
" />
<path d="M6.0520 5.5520
L5.7980 5.5520
" />
<path d="M6.0520 5.5520
L6.1790 5.6790
" />
<path d="M6.0520 7.2980
L5.7980 7.2980
" />
<path d="M6.0520 7.2980
L6.0520 7.5520
" />
<path d="M6.0520 7.5520
L5.7980 7.5520
" />
<path d="M6.0520 7.5520
L6.1790 7.6790
" />
<path d="M6.0520 9.2980
L5.7980 9.2980
" />
<path d="M6.0520 9.2980
L6.0520 9.5520
" />
<path d="M6.0520 9.5520
L5.7980 9.5520
" />
<path d="M6.0520 9.5520
L6.1790 9.6790
" />
<path d="M6.0520 11.2980
L5.7980 11.2980
" />
<path d="M6.0520 11.2980
L6.0520 11.5520
" />
<path d="M6.0520 11.5520
L5.7980 11.5520
" />
<path d="M6.0520 11.5520
L6.1790 11.6790
" />
<path d="M6.0520 13.2980
L5.7980 13.2980
" />
<path d="M6.0520 13.2980
L6.0520 13.5520
" />
<path d="M6.0520 13.5520
L5.7980 13.5520
" />
<path d="M6.0520 13.5520
L6.1790 13.6790
" />
<path d="M6.0520 15.2980
L5.7980 15.2980
" />
<path d="M6.0520 15.2980
L6.0520 15.5520
" />
<path d="M6.0520 15.5520
L5.7980 15.5520
" />
<path d="M6.0520 15.5520
L6.1790 15.6790
" />
<path d="M6.0520 17.2980
L5.7980 17.2980
" />
<path d="M6.0520 17.2980
L6.0520 17.5520
" />
<path d="M6.0520 17.5520
L5.7980 17.5520
" />
<path d="M6.0520 17.5520
L6.1790 17.6790
" />
<path d="M6.0520 19.2980
L5.7980 19.2980
" />
<path d="M6.0520 19.2980
L6.0520 19.5520
" />
<path d="M6.0520 19.5520
L5.7980 19.5520
" />
<path d="M6.0520 19.5520
L6.1790 19.6790
" />
<path d="M6.1790 1.1710
L5.6710 1.1710
" />
<path d="M6.1790 1.1710
L6.0520 1.2980
" />
<path d="M6.1790 1.1710
L6.1790 1.6790
" />
<path d="M6.1790 1.6790
L5.6710 1.6790
" />
<path d="M6.1790 3.1710
L5.6710 3.1710
" />
<path d="M6.1790 3.1710
L6.0520 3.2980
" />
<path d="M6.1790 3.1710
L6.1790 3.6790
" />
<path d="M6.1790 3.6790
L5.6710 3.6790
" />
<path d="M6.1790 5.1710
L5.6710 5.1710
" />
<path d="M6.1790 5.1710
L6.0520 5.2980
" />
<path d="M6.1790 5.1710
L6.1790 5.6790
" />
<path d="M6.1790 5.6790
L5.6710 5.6790
" />
<path d="M6.1790 7.1710
L5.6710 7.1710
" />
<path d="M6.1790 7.1710
L6.0520 7.2980
" />
<path d="M6.1790 7.1710
L6.1790 7.6790
" />
<path d="M6.1790 7.6790
L5.6710 7.6790
" />
<path d="M6.1790 9.1710
L5.6710 9.1710
" />
<path d="M6.1790 9.1710
L6.0520 9.2980
" />
<path d="M6.1790 9.1710
L6.1790 9.6790
" />
<path d="M6.1790 9.6790
L5.6710 9.6790
" />
<path d="M6.1790 11.1710
L5.6710 11.1710
" />
<path d="M6.1790 11.1710
L6.0520 11.2980
" />
<path d="M6.1790 11.1710
L6.1790 11.6790
" />
<path d="M6.1790 11.6790
L5.6710 11.6790
" />
<path d="M6.1790 13.1710
L5.6710 13.1710
" />
<path d="M6.1790 13.1710
L6.0520 13.2980
" />
<path d="M6.1790 13.1710
L6.1790 13.6790
" />
<path d="M6.1790 13.6790
L5.6710 13.6790
" />
<path d="M6.1790 15.1710
L5.6710 15.1710
" />
<path d="M6.1790 15.1710
L6.0520 15.2980
" />
<path d="M6.1790 15.1710
L6.1790 15.6790
" />
<path d="M6.1790 15.6790
L5.6710 15.6790
" />
<path d="M6.1790 17.1710
L5.6710 17.1710
" />
<path d="M6.1790 17.1710
L6.0520 17.2980
" />
<path d="M6.1790 17.1710
L6.1790 17.6790
" />
<path d="M6.1790 17.6790
L5.6710 17.6790
" />
<path d="M6.1790 19.1710
L5.6710 19.1710
" />
<path d="M6.1790 19.1710
L6.0520 19.2980
" />
<path d="M6.1790 19.1710
L6.1790 19.6790
" />
<path d="M6.1790 19.6790
L5.6710 19.6790
" />
<path d="M6.9190 0.4250
L2.9310 0.4250
" />
<path d="M6.9190 3.1710
L8.0620 3.1710
" />
<path d="M6.9190 5.1710
L8.0620 5.1710
" />
<path d="M6.9190 7.1710
L8.0620 7.1710
" />
<path d="M6.9190 9.1710
L8.0620 9.1710
" />
<path d="M6.9190 11.1710
L8.0620 11.1710
" />
<path d="M6.9190 13.1710
L8.0620 13.1710
" />
<path d="M6.9190 15.1710
L8.0620 15.1710
" />
<path d="M6.9190 17.1710
L8.0620 17.1710
" />
<path d="M6.9190 19.1710
L8.0620 19.1710
" />
<path d="M6.9190 20.4250
L6.9190 0.4250
" />
<path d="M8.0620 1.1710
L6.9190 1.1710
" />
<path d="M8.0620 1.1710
L8.0620 1.6790
" />
<path d="M8.0620 1.6790
L6.9190 1.6790
" />
<path d="M8.0620 1.6790
L8.4430 1.5520
" />
<path d="M8.0620 3.1710
L8.0620 3.6790
" />
<path d="M8.0620 3.6790
L6.9190 3.6790
" />
<path d="M8.0620 3.6790
L8.4430 3.5520
" />
<path d="M8.0620 5.1710
L8.0620 5.6790
" />
<path d="M8.0620 5.6790
L6.9190 5.6790
" />
<path d="M8.0620 5.6790
L8.4430 5.5520
" />
<path d="M8.0620 7.1710
L8.0620 7.6790
" />
<path d="M8.0620 7.6790
L6.9190 7.6790
" />
<path d="M8.0620 7.6790
L8.4430 7.5520
" />
<path d="M8.0620 9.1710
L8.0620 9.6790
" />
<path d="M8.0620 9.6790
L6.9190 9.6790
" />
<path d="M8.0620 9.6790
L8.4430 9.5520
" />
<path d="M8.0620 11.1710
L8.0620 11.6790
" />
<path d="M8.0620 11.6790
L6.9190 11.6790
" />
<path d="M8.0620 11.6790
L8.4430 11.5520
" />
<path d="M8.0620 13.1710
L8.0620 13.6790
" />
<path d="M8.0620 13.6790
L6.9190 13.6790
" />
<path d="M8.0620 13.6790
L8.4430 13.5520
" />
<path d="M8.0620 15.1710
L8.0620 15.6790
" />
<path d="M8.0620 15.6790
L6.9190 15.6790
" />
<path d="M8.0620 15.6790
L8.4430 15.5520
" />
<path d="M8.0620 17.1710
L8.0620 17.6790
" />
<path d="M8.0620 17.6790
L6.9190 17.6790
" />
<path d="M8.0620 17.6790
L8.4430 17.5520
" />
<path d="M8.0620 19.1710
L8.0620 19.6790
" />
<path d="M8.0620 19.6790
L6.9190 19.6790
" />
<path d="M8.0620 19.6790
L8.4430 19.5520
" />
<path d="M8.4430 1.2980
L8.0620 1.1710
" />
<path d="M8.4430 1.2980
L8.4430 1.5520
" />
<path d="M8.4430 3.2980
L8.0620 3.1710
" />
<path d="M8.4430 3.2980
L8.4430 3.5520
" />
<path d="M8.4430 5.2980
L8.0620 5.1710
" />
<path d="M8.4430 5.2980
L8.4430 5.5520
" />
<path d="M8.4430 7.2980
L8.0620 7.1710
" />
<path d="M8.4430 7.2980
L8.4430 7.5520
" />
<path d="M8.4430 9.2980
L8.0620 9.1710
" />
<path d="M8.4430 9.2980
L8.4430 9.5520
" />
<path d="M8.4430 11.2980
L8.0620 11.1710
" />
<path d="M8.4430 11.2980
L8.4430 11.5520
" />
<path d="M8.4430 13.2980
L8.0620 13.1710
" />
<path d="M8.4430 13.2980
L8.4430 13.5520
" />
<path d="M8.4430 15.2980
L8.0620 15.1710
" />
<path d="M8.4430 15.2980
L8.4430 15.5520
" />
<path d="M8.4430 17.2980
L8.0620 17.1710
" />
<path d="M8.4430 17.2980
L8.4430 17.5520
" />
<path d="M8.4430 19.2980
L8.0620 19.1710
" />
<path d="M8.4430 19.2980
L8.4430 19.5520
" />
</g> 
</svg>
