{
  "accessors": [
    {
      "bufferView": 0,
      "byteOffset": 0,
      "componentType": 5126,
      "normalized": false,
      "count": 5660,
      "type": "VEC3",
      "max": [
        4.789999961853027,
        3.309932231903076,
        3.8548574447631836
      ],
      "min": [
        -4.789999961853027,
        -0.8499969840049744,
        -3.6750001907348633
      ]
    },
    {
      "bufferView": 0,
      "byteOffset": 12,
      "componentType": 5126,
      "normalized": false,
      "count": 5660,
      "type": "VEC3"
    },
    {
      "bufferView": 0,
      "byteOffset": 24,
      "componentType": 5126,
      "normalized": false,
      "count": 5660,
      "type": "VEC2"
    },
    {
      "bufferView": 1,
      "byteOffset": 0,
      "componentType": 5123,
      "normalized": false,
      "count": 15534,
      "type": "SCALAR"
    },
    {
      "bufferView": 1,
      "byteOffset": 31068,
      "componentType": 5123,
      "normalized": false,
      "count": 4128,
      "type": "SCALAR"
    },
    {
      "bufferView": 1,
      "byteOffset": 39324,
      "componentType": 5123,
      "normalized": false,
      "count": 4512,
      "type": "SCALAR"
    },
    {
      "bufferView": 2,
      "byteOffset": 0,
      "componentType": 5126,
      "normalized": false,
      "count": 1920,
      "type": "VEC3",
      "max": [
        3.4499998092651367,
        2.0801501274108887,
        2.57497501373291
      ],
      "min": [
        -3.4499998092651367,
        3.5762786865234375e-07,
        -3.8550004959106445
      ]
    },
    {
      "bufferView": 2,
      "byteOffset": 12,
      "componentType": 5126,
      "normalized": false,
      "count": 1920,
      "type": "VEC3"
    },
    {
      "bufferView": 2,
      "byteOffset": 24,
      "componentType": 5126,
      "normalized": false,
      "count": 1920,
      "type": "VEC2"
    },
    {
      "bufferView": 3,
      "byteOffset": 0,
      "componentType": 5126,
      "normalized": false,
      "count": 1960,
      "type": "VEC3",
      "max": [
        4.170000076293945,
        3.0098888874053955,
        3.0748720169067383
      ],
      "min": [
        -4.170000076293945,
        -0.5499978065490723,
        -3.5450000762939453
      ]
    },
    {
      "bufferView": 3,
      "byteOffset": 12,
      "componentType": 5126,
      "normalized": false,
      "count": 1960,
      "type": "VEC3"
    },
    {
      "bufferView": 3,
      "byteOffset": 24,
      "componentType": 5126,
      "normalized": false,
      "count": 1960,
      "type": "VEC2"
    }
  ],
  "asset": {
    "generator": "pygltflib@v1.16.4",
    "version": "2.0"
  },
  "bufferViews": [
    {
      "buffer": 0,
      "byteOffset": 0,
      "byteLength": 181120,
      "byteStride": 32,
      "target": 34962
    },
    {
      "buffer": 0,
      "byteOffset": 181120,
      "byteLength": 48348,
      "target": 34963
    },
    {
      "buffer": 0,
      "byteOffset": 229468,
      "byteLength": 61440,
      "byteStride": 32,
      "target": 34962
    },
    {
      "buffer": 0,
      "byteOffset": 290908,
      "byteLength": 62720,
      "byteStride": 32,
      "target": 34962
    }
  ],
  "buffers": [
    {
      "uri": "USB-C_Receptacle_GCT_USB4105-GF-A.bin",
      "byteLength": 353628
    }
  ],
  "extensionsUsed": [
    "KHR_materials_clearcoat",
    "KHR_materials_ior",
    "KHR_materials_sheen",
    "KHR_materials_specular",
    "KHR_texture_basisu"
  ],
  "extensionsRequired": [
    "KHR_texture_basisu"
  ],
  "images": [
    {
      "uri": "../shared_textures/metal_connector_normal.ktx2",
      "mimeType": "image/ktx2",
      "name": "metal_connector_normal"
    },
    {
      "uri": "../shared_textures/metal_connector_color.ktx2",
      "mimeType": "image/ktx2",
      "name": "metal_connector_color"
    },
    {
      "uri": "../shared_textures/metal_connector_roughness.ktx2",
      "mimeType": "image/ktx2",
      "name": "metal_connector_roughness"
    },
    {
      "uri": "../shared_textures/metal_goldpins_1_normal.ktx2",
      "mimeType": "image/ktx2",
      "name": "metal_goldpins_1_normal"
    },
    {
      "uri": "../shared_textures/metal_goldpins_1_color.ktx2",
      "mimeType": "image/ktx2",
      "name": "metal_goldpins_1_color"
    },
    {
      "uri": "../shared_textures/plastic_matte_black_normal.ktx2",
      "mimeType": "image/ktx2",
      "name": "plastic_matte_black_normal"
    },
    {
      "uri": "../shared_textures/plastic_matte_black_color.ktx2",
      "mimeType": "image/ktx2",
      "name": "plastic_matte_black_color"
    }
  ],
  "materials": [
    {
      "extensions": {
        "KHR_materials_clearcoat": {
          "clearcoatFactor": 0,
          "clearcoatRoughnessFactor": 0.46590909361839294
        },
        "KHR_materials_ior": {
          "ior": 1
        },
        "KHR_materials_sheen": {
          "sheenColorFactor": [
            1,
            1,
            1
          ],
          "sheenRoughnessFactor": 0.5
        },
        "KHR_materials_specular": {
          "specularFactor": 0.9590908885002136
        }
      },
      "pbrMetallicRoughness": {
        "baseColorFactor": [
          1.0,
          1.0,
          1.0,
          1.0
        ],
        "metallicFactor": 1.0,
        "roughnessFactor": 1.0,
        "baseColorTexture": {
          "index": 0,
          "texCoord": 0
        },
        "metallicRoughnessTexture": {
          "index": 2,
          "texCoord": 0
        }
      },
      "normalTexture": {
        "index": 1,
        "scale": 0.5
      },
      "emissiveFactor": [
        0.0,
        0.0,
        0.0
      ],
      "alphaMode": "OPAQUE",
      "alphaCutoff": 0.5,
      "doubleSided": true,
      "name": "gltf_metal_connector"
    },
    {
      "extensions": {
        "KHR_materials_clearcoat": {
          "clearcoatFactor": 0,
          "clearcoatRoughnessFactor": 0.2890909016132355
        },
        "KHR_materials_ior": {
          "ior": 1.4500000476837158
        },
        "KHR_materials_sheen": {
          "sheenColorFactor": [
            1,
            1,
            1
          ],
          "sheenRoughnessFactor": 0.5
        },
        "KHR_materials_specular": {
          "specularFactor": 0.9499998092651367
        }
      },
      "pbrMetallicRoughness": {
        "baseColorFactor": [
          1.0,
          1.0,
          1.0,
          1.0
        ],
        "metallicFactor": 1.0,
        "roughnessFactor": 0.2522728145122528,
        "baseColorTexture": {
          "index": 3,
          "texCoord": 0
        }
      },
      "normalTexture": {
        "index": 4,
        "scale": 1.0
      },
      "emissiveFactor": [
        0.0,
        0.0,
        0.0
      ],
      "alphaMode": "OPAQUE",
      "alphaCutoff": 0.5,
      "doubleSided": true,
      "name": "gltf_metal_goldpins_1"
    },
    {
      "pbrMetallicRoughness": {
        "baseColorFactor": [
          1.0,
          1.0,
          1.0,
          1.0
        ],
        "metallicFactor": 0.09154544770717621,
        "roughnessFactor": 0.4615432620048523,
        "baseColorTexture": {
          "index": 5,
          "texCoord": 0
        }
      },
      "normalTexture": {
        "index": 6,
        "scale": 1.0
      },
      "emissiveFactor": [
        0.0,
        0.0,
        0.0
      ],
      "alphaMode": "OPAQUE",
      "alphaCutoff": 0.5,
      "doubleSided": true,
      "name": "gltf_plastic_matte_black"
    }
  ],
  "meshes": [
    {
      "primitives": [
        {
          "attributes": {
            "POSITION": 0,
            "NORMAL": 1,
            "TEXCOORD_0": 2
          },
          "indices": 3,
          "mode": 4,
          "material": 0
        },
        {
          "attributes": {
            "POSITION": 6,
            "NORMAL": 7,
            "TEXCOORD_0": 8
          },
          "indices": 4,
          "mode": 4,
          "material": 1
        },
        {
          "attributes": {
            "POSITION": 9,
            "NORMAL": 10,
            "TEXCOORD_0": 11
          },
          "indices": 5,
          "mode": 4,
          "material": 2
        }
      ],
      "name": "USB-C_Receptacle_GCT_USB4105-GF-A"
    }
  ],
  "nodes": [
    {
      "extras": {
        "REF": "J",
        "PRIO": 0,
        "1_MODEL_NAME": "PLUG_GENERIC_USB-C",
        "1_PLUG_GENERIC_USB-C_POS": [
          0,
          -4.5,
          1.7
        ],
        "1_PLUG_GENERIC_USB-C_ROTATE": [
          -90,
          0,
          0
        ],
        "model_diagonal": 12.981760023505261
      },
      "mesh": 0,
      "name": "USB-C_Receptacle_GCT_USB4105-GF-A"
    }
  ],
  "samplers": [
    {
      "magFilter": 9729,
      "minFilter": 9987,
      "wrapS": 10497,
      "wrapT": 10497
    }
  ],
  "scene": 0,
  "scenes": [
    {
      "extras": {
        "NWLazySource": "Noise Texture",
        "NWLazyTarget": "ColorRamp",
        "NWSourceSocket": 0
      },
      "name": "Scene",
      "nodes": [
        0
      ]
    }
  ],
  "textures": [
    {
      "extensions": {
        "KHR_texture_basisu": {
          "source": 1
        }
      },
      "sampler": 0
    },
    {
      "extensions": {
        "KHR_texture_basisu": {
          "source": 0
        }
      },
      "sampler": 0
    },
    {
      "extensions": {
        "KHR_texture_basisu": {
          "source": 2
        }
      },
      "sampler": 0
    },
    {
      "extensions": {
        "KHR_texture_basisu": {
          "source": 4
        }
      },
      "sampler": 0
    },
    {
      "extensions": {
        "KHR_texture_basisu": {
          "source": 3
        }
      },
      "sampler": 0
    },
    {
      "extensions": {
        "KHR_texture_basisu": {
          "source": 6
        }
      },
      "sampler": 0
    },
    {
      "extensions": {
        "KHR_texture_basisu": {
          "source": 5
        }
      },
      "sampler": 0
    }
  ]
}