<?xml version="1.0" standalone="no"?>
 <!DOCTYPE svg PUBLIC "-//W3C//DTD SVG 1.1//EN" 
 "http://www.w3.org/Graphics/SVG/1.1/DTD/svg11.dtd"> 
<svg
  xmlns:svg="http://www.w3.org/2000/svg"
  xmlns="http://www.w3.org/2000/svg"
  xmlns:xlink="http://www.w3.org/1999/xlink"
  version="1.1"
  width="75.0316mm" height="13.3858mm" viewBox="0.0000 0.0000 75.0316 13.3858">
<title>SVG Image created as outline.svg date 2025/06/16 09:18:13 </title>
  <desc>Image generated by PCBNEW </desc>
<g style="fill:#000000; fill-opacity:1.0000;stroke:#000000; stroke-opacity:1.0000;
stroke-linecap:round; stroke-linejoin:round;"
 transform="translate(0 0) scale(1 1)">
</g>
<g style="fill:none; 
stroke:#000000; stroke-width:0.0200; stroke-opacity:1; 
stroke-linecap:round; stroke-linejoin:round;">
<path d="M1.0250 3.0300
L1.0250 3.2800
" />
<path d="M1.0250 3.2800
L1.0250 5.0300
" />
<path d="M1.0250 5.0300
L1.3750 5.0300
" />
<path d="M1.0250 9.3800
L1.0250 5.0300
" />
<path d="M1.3750 3.2800
L1.0250 3.2800
" />
<path d="M1.3750 3.2800
L1.3750 3.0300
" />
<path d="M1.3750 5.0300
L1.3750 3.2800
" />
<path d="M1.3750 5.0300
L1.3750 6.5300
" />
<path d="M1.3750 6.5300
L5.2680 6.5300
" />
<path d="M3.0250 1.3800
L4.7750 1.3800
" />
<path d="M3.7750 9.3800
L1.0250 9.3800
" />
<path d="M3.7750 12.3800
L3.7750 9.3800
" />
<path d="M4.7750 1.0300
L3.0250 1.0300
" />
<path d="M5.2680 6.5300
L6.2250 5.5730
" />
<path d="M6.2250 5.5730
L6.4250 5.5730
" />
<path d="M6.4250 3.0300
L6.4250 3.2800
" />
<path d="M6.4250 3.2800
L6.4250 5.0300
" />
<path d="M6.4250 5.0300
L6.7750 5.0300
" />
<path d="M6.4250 5.5730
L6.4250 5.0300
" />
<path d="M6.7750 3.2800
L6.4250 3.2800
" />
<path d="M6.7750 3.2800
L6.7750 3.0300
" />
<path d="M6.7750 5.0300
L6.7750 3.2800
" />
<path d="M6.7750 5.0300
L6.7750 5.5800
" />
<path d="M6.7750 5.5800
L7.1360 5.5800
" />
<path d="M6.9250 4.5800
L6.9250 4.9310
" />
<path d="M6.9250 4.9300
L6.9250 5.5800
" />
<path d="M7.1360 5.5800
L7.5800 6.6800
" />
<path d="M7.5800 6.6800
L7.7350 6.6800
" />
<path d="M7.6950 4.1300
L7.6950 3.6700
" />
<path d="M7.6950 4.4300
L7.6950 4.1300
" />
<path d="M7.6950 4.4300
L7.6950 4.8780
" />
<path d="M7.6950 4.5800
L6.9250 4.5800
" />
<path d="M7.6950 4.9300
L6.9250 4.9300
" />
<path d="M7.6950 6.5800
L7.5410 6.5800
" />
<path d="M7.6950 6.6800
L7.6950 4.8780
" />
<path d="M7.7350 6.3300
L7.7350 6.6800
" />
<path d="M8.1150 6.3300
L7.7350 6.3300
" />
<path d="M8.1150 6.3300
L8.1150 8.1300
" />
<path d="M8.1150 6.6800
L8.5350 6.6800
" />
<path d="M8.1550 3.6700
L7.6950 3.6700
" />
<path d="M8.1550 3.6700
L8.1550 4.1300
" />
<path d="M8.1550 4.1300
L7.6950 4.1300
" />
<path d="M8.1550 4.1300
L8.1550 4.4300
" />
<path d="M8.1550 4.4300
L7.6950 4.4300
" />
<path d="M8.1550 4.4300
L7.6950 4.4300
" />
<path d="M8.1550 4.8780
L7.6950 4.8780
" />
<path d="M8.1550 4.8780
L8.1550 4.4300
" />
<path d="M8.1550 4.8780
L8.1550 6.6790
" />
<path d="M8.4950 4.1300
L8.4950 3.6700
" />
<path d="M8.4950 4.4300
L8.4950 4.1300
" />
<path d="M8.4950 4.4300
L8.4950 4.8780
" />
<path d="M8.4950 4.5800
L8.1550 4.5800
" />
<path d="M8.4950 4.9300
L8.1550 4.9300
" />
<path d="M8.4950 6.5800
L8.1550 6.5800
" />
<path d="M8.4950 6.6800
L8.4950 4.8780
" />
<path d="M8.5350 6.3300
L8.5350 8.1300
" />
<path d="M8.5350 8.1300
L8.1150 8.1300
" />
<path d="M8.9150 6.3300
L8.5350 6.3300
" />
<path d="M8.9150 6.3300
L8.9150 8.1300
" />
<path d="M8.9150 6.6800
L9.3350 6.6800
" />
<path d="M8.9550 3.6700
L8.4950 3.6700
" />
<path d="M8.9550 3.6700
L8.9550 4.1300
" />
<path d="M8.9550 4.1300
L8.4950 4.1300
" />
<path d="M8.9550 4.1300
L8.9550 4.4300
" />
<path d="M8.9550 4.4300
L8.4950 4.4300
" />
<path d="M8.9550 4.4300
L8.4950 4.4300
" />
<path d="M8.9550 4.8780
L8.4950 4.8780
" />
<path d="M8.9550 4.8780
L8.9550 4.4300
" />
<path d="M8.9550 4.8780
L8.9550 6.6790
" />
<path d="M9.2950 4.1300
L9.2950 3.6700
" />
<path d="M9.2950 4.4300
L9.2950 4.1300
" />
<path d="M9.2950 4.4300
L9.2950 4.8780
" />
<path d="M9.2950 4.5800
L8.9550 4.5800
" />
<path d="M9.2950 4.9300
L8.9550 4.9300
" />
<path d="M9.2950 6.5800
L8.9550 6.5800
" />
<path d="M9.2950 6.6800
L9.2950 4.8780
" />
<path d="M9.3350 6.3300
L9.3350 8.1300
" />
<path d="M9.3350 8.1300
L8.9150 8.1300
" />
<path d="M9.7150 6.3300
L9.3350 6.3300
" />
<path d="M9.7150 6.3300
L9.7150 8.1300
" />
<path d="M9.7150 6.6800
L10.1350 6.6800
" />
<path d="M9.7550 3.6700
L9.2950 3.6700
" />
<path d="M9.7550 3.6700
L9.7550 4.1300
" />
<path d="M9.7550 4.1300
L9.2950 4.1300
" />
<path d="M9.7550 4.1300
L9.7550 4.4300
" />
<path d="M9.7550 4.4300
L9.2950 4.4300
" />
<path d="M9.7550 4.4300
L9.2950 4.4300
" />
<path d="M9.7550 4.8780
L9.2950 4.8780
" />
<path d="M9.7550 4.8780
L9.7550 4.4300
" />
<path d="M9.7550 4.8780
L9.7550 6.6790
" />
<path d="M10.0950 4.1300
L10.0950 3.6700
" />
<path d="M10.0950 4.4300
L10.0950 4.1300
" />
<path d="M10.0950 4.4300
L10.0950 4.8780
" />
<path d="M10.0950 4.5800
L9.7550 4.5800
" />
<path d="M10.0950 4.9300
L9.7550 4.9300
" />
<path d="M10.0950 6.5800
L9.7550 6.5800
" />
<path d="M10.0950 6.6800
L10.0950 4.8780
" />
<path d="M10.1350 6.3300
L10.1350 8.1300
" />
<path d="M10.1350 8.1300
L9.7150 8.1300
" />
<path d="M10.5150 6.3300
L10.1350 6.3300
" />
<path d="M10.5150 6.3300
L10.5150 8.1300
" />
<path d="M10.5150 6.6800
L10.9350 6.6800
" />
<path d="M10.5550 3.6700
L10.0950 3.6700
" />
<path d="M10.5550 3.6700
L10.5550 4.1300
" />
<path d="M10.5550 4.1300
L10.0950 4.1300
" />
<path d="M10.5550 4.1300
L10.5550 4.4300
" />
<path d="M10.5550 4.4300
L10.0950 4.4300
" />
<path d="M10.5550 4.4300
L10.0950 4.4300
" />
<path d="M10.5550 4.8780
L10.0950 4.8780
" />
<path d="M10.5550 4.8780
L10.5550 4.4300
" />
<path d="M10.5550 4.8780
L10.5550 6.6790
" />
<path d="M10.8950 4.1300
L10.8950 3.6700
" />
<path d="M10.8950 4.4300
L10.8950 4.1300
" />
<path d="M10.8950 4.4300
L10.8950 4.8780
" />
<path d="M10.8950 4.5800
L10.5550 4.5800
" />
<path d="M10.8950 4.9300
L10.5550 4.9300
" />
<path d="M10.8950 6.5800
L10.5550 6.5800
" />
<path d="M10.8950 6.6800
L10.8950 4.8780
" />
<path d="M10.9350 6.3300
L10.9350 8.1300
" />
<path d="M10.9350 8.1300
L10.5150 8.1300
" />
<path d="M11.3150 6.3300
L10.9350 6.3300
" />
<path d="M11.3150 6.3300
L11.3150 8.1300
" />
<path d="M11.3150 6.6800
L11.7350 6.6800
" />
<path d="M11.3550 3.6700
L10.8950 3.6700
" />
<path d="M11.3550 3.6700
L11.3550 4.1300
" />
<path d="M11.3550 4.1300
L10.8950 4.1300
" />
<path d="M11.3550 4.1300
L11.3550 4.4300
" />
<path d="M11.3550 4.4300
L10.8950 4.4300
" />
<path d="M11.3550 4.4300
L10.8950 4.4300
" />
<path d="M11.3550 4.8780
L10.8950 4.8780
" />
<path d="M11.3550 4.8780
L11.3550 4.4300
" />
<path d="M11.3550 4.8780
L11.3550 6.6790
" />
<path d="M11.6950 4.1300
L11.6950 3.6700
" />
<path d="M11.6950 4.4300
L11.6950 4.1300
" />
<path d="M11.6950 4.4300
L11.6950 4.8780
" />
<path d="M11.6950 4.5800
L11.3550 4.5800
" />
<path d="M11.6950 4.9300
L11.3550 4.9300
" />
<path d="M11.6950 6.5800
L11.3550 6.5800
" />
<path d="M11.6950 6.6800
L11.6950 4.8780
" />
<path d="M11.7350 6.3300
L11.7350 8.1300
" />
<path d="M11.7350 8.1300
L11.3150 8.1300
" />
<path d="M12.1150 6.3300
L11.7350 6.3300
" />
<path d="M12.1150 6.3300
L12.1150 8.1300
" />
<path d="M12.1150 6.6800
L12.5350 6.6800
" />
<path d="M12.1550 3.6700
L11.6950 3.6700
" />
<path d="M12.1550 3.6700
L12.1550 4.1300
" />
<path d="M12.1550 4.1300
L11.6950 4.1300
" />
<path d="M12.1550 4.1300
L12.1550 4.4300
" />
<path d="M12.1550 4.4300
L11.6950 4.4300
" />
<path d="M12.1550 4.4300
L11.6950 4.4300
" />
<path d="M12.1550 4.8780
L11.6950 4.8780
" />
<path d="M12.1550 4.8780
L12.1550 4.4300
" />
<path d="M12.1550 4.8780
L12.1550 6.6790
" />
<path d="M12.4950 4.1300
L12.4950 3.6700
" />
<path d="M12.4950 4.4300
L12.4950 4.1300
" />
<path d="M12.4950 4.4300
L12.4950 4.8780
" />
<path d="M12.4950 4.5800
L12.1550 4.5800
" />
<path d="M12.4950 4.9300
L12.1550 4.9300
" />
<path d="M12.4950 6.5800
L12.1550 6.5800
" />
<path d="M12.4950 6.6800
L12.4950 4.8780
" />
<path d="M12.5350 6.3300
L12.5350 8.1300
" />
<path d="M12.5350 8.1300
L12.1150 8.1300
" />
<path d="M12.9150 6.3300
L12.5350 6.3300
" />
<path d="M12.9150 6.3300
L12.9150 8.1300
" />
<path d="M12.9150 6.6800
L13.3350 6.6800
" />
<path d="M12.9550 3.6700
L12.4950 3.6700
" />
<path d="M12.9550 3.6700
L12.9550 4.1300
" />
<path d="M12.9550 4.1300
L12.4950 4.1300
" />
<path d="M12.9550 4.1300
L12.9550 4.4300
" />
<path d="M12.9550 4.4300
L12.4950 4.4300
" />
<path d="M12.9550 4.4300
L12.4950 4.4300
" />
<path d="M12.9550 4.8780
L12.4950 4.8780
" />
<path d="M12.9550 4.8780
L12.9550 4.4300
" />
<path d="M12.9550 4.8780
L12.9550 6.6790
" />
<path d="M13.2950 4.1300
L13.2950 3.6700
" />
<path d="M13.2950 4.4300
L13.2950 4.1300
" />
<path d="M13.2950 4.4300
L13.2950 4.8780
" />
<path d="M13.2950 4.5800
L12.9550 4.5800
" />
<path d="M13.2950 4.9300
L12.9550 4.9300
" />
<path d="M13.2950 6.5800
L12.9550 6.5800
" />
<path d="M13.2950 6.6800
L13.2950 4.8780
" />
<path d="M13.3350 6.3300
L13.3350 8.1300
" />
<path d="M13.3350 8.1300
L12.9150 8.1300
" />
<path d="M13.7150 6.3300
L13.3350 6.3300
" />
<path d="M13.7150 6.3300
L13.7150 8.1300
" />
<path d="M13.7150 6.6800
L14.1350 6.6800
" />
<path d="M13.7550 3.6700
L13.2950 3.6700
" />
<path d="M13.7550 3.6700
L13.7550 4.1300
" />
<path d="M13.7550 4.1300
L13.2950 4.1300
" />
<path d="M13.7550 4.1300
L13.7550 4.4300
" />
<path d="M13.7550 4.4300
L13.2950 4.4300
" />
<path d="M13.7550 4.4300
L13.2950 4.4300
" />
<path d="M13.7550 4.8780
L13.2950 4.8780
" />
<path d="M13.7550 4.8780
L13.7550 4.4300
" />
<path d="M13.7550 4.8780
L13.7550 6.6790
" />
<path d="M14.0950 4.1300
L14.0950 3.6700
" />
<path d="M14.0950 4.4300
L14.0950 4.1300
" />
<path d="M14.0950 4.4300
L14.0950 4.8780
" />
<path d="M14.0950 4.5800
L13.7550 4.5800
" />
<path d="M14.0950 4.9300
L13.7550 4.9300
" />
<path d="M14.0950 6.5800
L13.7550 6.5800
" />
<path d="M14.0950 6.6800
L14.0950 4.8780
" />
<path d="M14.1350 6.3300
L14.1350 8.1300
" />
<path d="M14.1350 8.1300
L13.7150 8.1300
" />
<path d="M14.5150 6.3300
L14.1350 6.3300
" />
<path d="M14.5150 6.3300
L14.5150 8.1300
" />
<path d="M14.5150 6.6800
L14.9350 6.6800
" />
<path d="M14.5550 3.6700
L14.0950 3.6700
" />
<path d="M14.5550 3.6700
L14.5550 4.1300
" />
<path d="M14.5550 4.1300
L14.0950 4.1300
" />
<path d="M14.5550 4.1300
L14.5550 4.4300
" />
<path d="M14.5550 4.4300
L14.0950 4.4300
" />
<path d="M14.5550 4.4300
L14.0950 4.4300
" />
<path d="M14.5550 4.8780
L14.0950 4.8780
" />
<path d="M14.5550 4.8780
L14.5550 4.4300
" />
<path d="M14.5550 4.8780
L14.5550 6.6790
" />
<path d="M14.8950 4.1300
L14.8950 3.6700
" />
<path d="M14.8950 4.4300
L14.8950 4.1300
" />
<path d="M14.8950 4.4300
L14.8950 4.8780
" />
<path d="M14.8950 4.5800
L14.5550 4.5800
" />
<path d="M14.8950 4.9300
L14.5550 4.9300
" />
<path d="M14.8950 6.5800
L14.5550 6.5800
" />
<path d="M14.8950 6.6800
L14.8950 4.8780
" />
<path d="M14.9350 6.3300
L14.9350 8.1300
" />
<path d="M14.9350 8.1300
L14.5150 8.1300
" />
<path d="M15.3150 6.3300
L14.9350 6.3300
" />
<path d="M15.3150 6.3300
L15.3150 8.1300
" />
<path d="M15.3150 6.6800
L15.7350 6.6800
" />
<path d="M15.3550 3.6700
L14.8950 3.6700
" />
<path d="M15.3550 3.6700
L15.3550 4.1300
" />
<path d="M15.3550 4.1300
L14.8950 4.1300
" />
<path d="M15.3550 4.1300
L15.3550 4.4300
" />
<path d="M15.3550 4.4300
L14.8950 4.4300
" />
<path d="M15.3550 4.4300
L14.8950 4.4300
" />
<path d="M15.3550 4.8780
L14.8950 4.8780
" />
<path d="M15.3550 4.8780
L15.3550 4.4300
" />
<path d="M15.3550 4.8780
L15.3550 6.6790
" />
<path d="M15.6950 4.1300
L15.6950 3.6700
" />
<path d="M15.6950 4.4300
L15.6950 4.1300
" />
<path d="M15.6950 4.4300
L15.6950 4.8780
" />
<path d="M15.6950 4.5800
L15.3550 4.5800
" />
<path d="M15.6950 4.9300
L15.3550 4.9300
" />
<path d="M15.6950 6.5800
L15.3550 6.5800
" />
<path d="M15.6950 6.6800
L15.6950 4.8780
" />
<path d="M15.7350 6.3300
L15.7350 8.1300
" />
<path d="M15.7350 8.1300
L15.3150 8.1300
" />
<path d="M16.1150 6.3300
L15.7350 6.3300
" />
<path d="M16.1150 6.3300
L16.1150 8.1300
" />
<path d="M16.1150 6.6800
L16.5350 6.6800
" />
<path d="M16.1550 3.6700
L15.6950 3.6700
" />
<path d="M16.1550 3.6700
L16.1550 4.1300
" />
<path d="M16.1550 4.1300
L15.6950 4.1300
" />
<path d="M16.1550 4.1300
L16.1550 4.4300
" />
<path d="M16.1550 4.4300
L15.6950 4.4300
" />
<path d="M16.1550 4.4300
L15.6950 4.4300
" />
<path d="M16.1550 4.8780
L15.6950 4.8780
" />
<path d="M16.1550 4.8780
L16.1550 4.4300
" />
<path d="M16.1550 4.8780
L16.1550 6.6790
" />
<path d="M16.4950 4.1300
L16.4950 3.6700
" />
<path d="M16.4950 4.4300
L16.4950 4.1300
" />
<path d="M16.4950 4.4300
L16.4950 4.8780
" />
<path d="M16.4950 4.5800
L16.1550 4.5800
" />
<path d="M16.4950 4.9300
L16.1550 4.9300
" />
<path d="M16.4950 6.5800
L16.1550 6.5800
" />
<path d="M16.4950 6.6800
L16.4950 4.8780
" />
<path d="M16.5350 6.3300
L16.5350 8.1300
" />
<path d="M16.5350 8.1300
L16.1150 8.1300
" />
<path d="M16.9150 6.3300
L16.5350 6.3300
" />
<path d="M16.9150 6.3300
L16.9150 8.1300
" />
<path d="M16.9150 6.6800
L17.3350 6.6800
" />
<path d="M16.9550 3.6700
L16.4950 3.6700
" />
<path d="M16.9550 3.6700
L16.9550 4.1300
" />
<path d="M16.9550 4.1300
L16.4950 4.1300
" />
<path d="M16.9550 4.1300
L16.9550 4.4300
" />
<path d="M16.9550 4.4300
L16.4950 4.4300
" />
<path d="M16.9550 4.4300
L16.4950 4.4300
" />
<path d="M16.9550 4.8780
L16.4950 4.8780
" />
<path d="M16.9550 4.8780
L16.9550 4.4300
" />
<path d="M16.9550 4.8780
L16.9550 6.6790
" />
<path d="M17.2950 4.1300
L17.2950 3.6700
" />
<path d="M17.2950 4.4300
L17.2950 4.1300
" />
<path d="M17.2950 4.4300
L17.2950 4.8780
" />
<path d="M17.2950 4.5800
L16.9550 4.5800
" />
<path d="M17.2950 4.9300
L16.9550 4.9300
" />
<path d="M17.2950 6.5800
L16.9550 6.5800
" />
<path d="M17.2950 6.6800
L17.2950 4.8780
" />
<path d="M17.3350 6.3300
L17.3350 8.1300
" />
<path d="M17.3350 8.1300
L16.9150 8.1300
" />
<path d="M17.7150 6.3300
L17.3350 6.3300
" />
<path d="M17.7150 6.3300
L17.7150 8.1300
" />
<path d="M17.7150 6.6800
L18.1350 6.6800
" />
<path d="M17.7550 3.6700
L17.2950 3.6700
" />
<path d="M17.7550 3.6700
L17.7550 4.1300
" />
<path d="M17.7550 4.1300
L17.2950 4.1300
" />
<path d="M17.7550 4.1300
L17.7550 4.4300
" />
<path d="M17.7550 4.4300
L17.2950 4.4300
" />
<path d="M17.7550 4.4300
L17.2950 4.4300
" />
<path d="M17.7550 4.8780
L17.2950 4.8780
" />
<path d="M17.7550 4.8780
L17.7550 4.4300
" />
<path d="M17.7550 4.8780
L17.7550 6.6790
" />
<path d="M18.0950 4.1300
L18.0950 3.6700
" />
<path d="M18.0950 4.4300
L18.0950 4.1300
" />
<path d="M18.0950 4.4300
L18.0950 4.8780
" />
<path d="M18.0950 4.5800
L17.7550 4.5800
" />
<path d="M18.0950 4.9300
L17.7550 4.9300
" />
<path d="M18.0950 6.5800
L17.7550 6.5800
" />
<path d="M18.0950 6.6800
L18.0950 4.8780
" />
<path d="M18.1350 6.3300
L18.1350 8.1300
" />
<path d="M18.1350 8.1300
L17.7150 8.1300
" />
<path d="M18.5150 6.3300
L18.1350 6.3300
" />
<path d="M18.5150 6.3300
L18.5150 8.1300
" />
<path d="M18.5150 6.6800
L18.9350 6.6800
" />
<path d="M18.5550 3.6700
L18.0950 3.6700
" />
<path d="M18.5550 3.6700
L18.5550 4.1300
" />
<path d="M18.5550 4.1300
L18.0950 4.1300
" />
<path d="M18.5550 4.1300
L18.5550 4.4300
" />
<path d="M18.5550 4.4300
L18.0950 4.4300
" />
<path d="M18.5550 4.4300
L18.0950 4.4300
" />
<path d="M18.5550 4.8780
L18.0950 4.8780
" />
<path d="M18.5550 4.8780
L18.5550 4.4300
" />
<path d="M18.5550 4.8780
L18.5550 6.6790
" />
<path d="M18.8950 4.1300
L18.8950 3.6700
" />
<path d="M18.8950 4.4300
L18.8950 4.1300
" />
<path d="M18.8950 4.4300
L18.8950 4.8780
" />
<path d="M18.8950 4.5800
L18.5550 4.5800
" />
<path d="M18.8950 4.9300
L18.5550 4.9300
" />
<path d="M18.8950 6.5800
L18.5550 6.5800
" />
<path d="M18.8950 6.6800
L18.8950 4.8780
" />
<path d="M18.9350 6.3300
L18.9350 8.1300
" />
<path d="M18.9350 8.1300
L18.5150 8.1300
" />
<path d="M19.3150 6.3300
L18.9350 6.3300
" />
<path d="M19.3150 6.3300
L19.3150 8.1300
" />
<path d="M19.3150 6.6800
L19.7350 6.6800
" />
<path d="M19.3550 3.6700
L18.8950 3.6700
" />
<path d="M19.3550 3.6700
L19.3550 4.1300
" />
<path d="M19.3550 4.1300
L18.8950 4.1300
" />
<path d="M19.3550 4.1300
L19.3550 4.4300
" />
<path d="M19.3550 4.4300
L18.8950 4.4300
" />
<path d="M19.3550 4.4300
L18.8950 4.4300
" />
<path d="M19.3550 4.8780
L18.8950 4.8780
" />
<path d="M19.3550 4.8780
L19.3550 4.4300
" />
<path d="M19.3550 4.8780
L19.3550 6.6790
" />
<path d="M19.6950 4.1300
L19.6950 3.6700
" />
<path d="M19.6950 4.4300
L19.6950 4.1300
" />
<path d="M19.6950 4.4300
L19.6950 4.8780
" />
<path d="M19.6950 4.5800
L19.3550 4.5800
" />
<path d="M19.6950 4.9300
L19.3550 4.9300
" />
<path d="M19.6950 6.5800
L19.3550 6.5800
" />
<path d="M19.6950 6.6800
L19.6950 4.8780
" />
<path d="M19.7350 6.3300
L19.7350 8.1300
" />
<path d="M19.7350 8.1300
L19.3150 8.1300
" />
<path d="M20.1150 6.3300
L19.7350 6.3300
" />
<path d="M20.1150 6.3300
L20.1150 8.1300
" />
<path d="M20.1150 6.6800
L20.5350 6.6800
" />
<path d="M20.1550 3.6700
L19.6950 3.6700
" />
<path d="M20.1550 3.6700
L20.1550 4.1300
" />
<path d="M20.1550 4.1300
L19.6950 4.1300
" />
<path d="M20.1550 4.1300
L20.1550 4.4300
" />
<path d="M20.1550 4.4300
L19.6950 4.4300
" />
<path d="M20.1550 4.4300
L19.6950 4.4300
" />
<path d="M20.1550 4.8780
L19.6950 4.8780
" />
<path d="M20.1550 4.8780
L20.1550 4.4300
" />
<path d="M20.1550 4.8780
L20.1550 6.6790
" />
<path d="M20.4950 4.1300
L20.4950 3.6700
" />
<path d="M20.4950 4.4300
L20.4950 4.1300
" />
<path d="M20.4950 4.4300
L20.4950 4.8780
" />
<path d="M20.4950 4.5800
L20.1550 4.5800
" />
<path d="M20.4950 4.9300
L20.1550 4.9300
" />
<path d="M20.4950 6.5800
L20.1550 6.5800
" />
<path d="M20.4950 6.6800
L20.4950 4.8780
" />
<path d="M20.5350 6.3300
L20.5350 8.1300
" />
<path d="M20.5350 8.1300
L20.1150 8.1300
" />
<path d="M20.9150 6.3300
L20.5350 6.3300
" />
<path d="M20.9150 6.3300
L20.9150 8.1300
" />
<path d="M20.9150 6.6800
L21.3350 6.6800
" />
<path d="M20.9550 3.6700
L20.4950 3.6700
" />
<path d="M20.9550 3.6700
L20.9550 4.1300
" />
<path d="M20.9550 4.1300
L20.4950 4.1300
" />
<path d="M20.9550 4.1300
L20.9550 4.4300
" />
<path d="M20.9550 4.4300
L20.4950 4.4300
" />
<path d="M20.9550 4.4300
L20.4950 4.4300
" />
<path d="M20.9550 4.8780
L20.4950 4.8780
" />
<path d="M20.9550 4.8780
L20.9550 4.4300
" />
<path d="M20.9550 4.8780
L20.9550 6.6790
" />
<path d="M21.2950 4.1300
L21.2950 3.6700
" />
<path d="M21.2950 4.4300
L21.2950 4.1300
" />
<path d="M21.2950 4.4300
L21.2950 4.8780
" />
<path d="M21.2950 4.5800
L20.9550 4.5800
" />
<path d="M21.2950 4.9300
L20.9550 4.9300
" />
<path d="M21.2950 6.5800
L20.9550 6.5800
" />
<path d="M21.2950 6.6800
L21.2950 4.8780
" />
<path d="M21.3350 6.3300
L21.3350 8.1300
" />
<path d="M21.3350 8.1300
L20.9150 8.1300
" />
<path d="M21.7150 6.3300
L21.3350 6.3300
" />
<path d="M21.7150 6.3300
L21.7150 8.1300
" />
<path d="M21.7150 6.6800
L22.1350 6.6800
" />
<path d="M21.7550 3.6700
L21.2950 3.6700
" />
<path d="M21.7550 3.6700
L21.7550 4.1300
" />
<path d="M21.7550 4.1300
L21.2950 4.1300
" />
<path d="M21.7550 4.1300
L21.7550 4.4300
" />
<path d="M21.7550 4.4300
L21.2950 4.4300
" />
<path d="M21.7550 4.4300
L21.2950 4.4300
" />
<path d="M21.7550 4.8780
L21.2950 4.8780
" />
<path d="M21.7550 4.8780
L21.7550 4.4300
" />
<path d="M21.7550 4.8780
L21.7550 6.6790
" />
<path d="M22.0950 4.1300
L22.0950 3.6700
" />
<path d="M22.0950 4.4300
L22.0950 4.1300
" />
<path d="M22.0950 4.4300
L22.0950 4.8780
" />
<path d="M22.0950 4.5800
L21.7550 4.5800
" />
<path d="M22.0950 4.9300
L21.7550 4.9300
" />
<path d="M22.0950 6.5800
L21.7550 6.5800
" />
<path d="M22.0950 6.6800
L22.0950 4.8780
" />
<path d="M22.1350 6.3300
L22.1350 8.1300
" />
<path d="M22.1350 8.1300
L21.7150 8.1300
" />
<path d="M22.5150 6.3300
L22.1350 6.3300
" />
<path d="M22.5150 6.3300
L22.5150 8.1300
" />
<path d="M22.5150 6.6800
L22.9350 6.6800
" />
<path d="M22.5550 3.6700
L22.0950 3.6700
" />
<path d="M22.5550 3.6700
L22.5550 4.1300
" />
<path d="M22.5550 4.1300
L22.0950 4.1300
" />
<path d="M22.5550 4.1300
L22.5550 4.4300
" />
<path d="M22.5550 4.4300
L22.0950 4.4300
" />
<path d="M22.5550 4.4300
L22.0950 4.4300
" />
<path d="M22.5550 4.8780
L22.0950 4.8780
" />
<path d="M22.5550 4.8780
L22.5550 4.4300
" />
<path d="M22.5550 4.8780
L22.5550 6.6790
" />
<path d="M22.8950 4.1300
L22.8950 3.6700
" />
<path d="M22.8950 4.4300
L22.8950 4.1300
" />
<path d="M22.8950 4.4300
L22.8950 4.8780
" />
<path d="M22.8950 4.5800
L22.5550 4.5800
" />
<path d="M22.8950 4.9300
L22.5550 4.9300
" />
<path d="M22.8950 6.5800
L22.5550 6.5800
" />
<path d="M22.8950 6.6800
L22.8950 4.8780
" />
<path d="M22.9350 6.3300
L22.9350 8.1300
" />
<path d="M22.9350 8.1300
L22.5150 8.1300
" />
<path d="M23.3150 6.3300
L22.9350 6.3300
" />
<path d="M23.3150 6.3300
L23.3150 8.1300
" />
<path d="M23.3150 6.6800
L23.7350 6.6800
" />
<path d="M23.3550 3.6700
L22.8950 3.6700
" />
<path d="M23.3550 3.6700
L23.3550 4.1300
" />
<path d="M23.3550 4.1300
L22.8950 4.1300
" />
<path d="M23.3550 4.1300
L23.3550 4.4300
" />
<path d="M23.3550 4.4300
L22.8950 4.4300
" />
<path d="M23.3550 4.4300
L22.8950 4.4300
" />
<path d="M23.3550 4.8780
L22.8950 4.8780
" />
<path d="M23.3550 4.8780
L23.3550 4.4300
" />
<path d="M23.3550 4.8780
L23.3550 6.6790
" />
<path d="M23.6950 4.1300
L23.6950 3.6700
" />
<path d="M23.6950 4.4300
L23.6950 4.1300
" />
<path d="M23.6950 4.4300
L23.6950 4.8780
" />
<path d="M23.6950 4.5800
L23.3550 4.5800
" />
<path d="M23.6950 4.9300
L23.3550 4.9300
" />
<path d="M23.6950 6.5800
L23.3550 6.5800
" />
<path d="M23.6950 6.6800
L23.6950 4.8780
" />
<path d="M23.7350 6.3300
L23.7350 8.1300
" />
<path d="M23.7350 8.1300
L23.3150 8.1300
" />
<path d="M24.1150 6.3300
L23.7350 6.3300
" />
<path d="M24.1150 6.3300
L24.1150 8.1300
" />
<path d="M24.1150 6.6800
L24.5350 6.6800
" />
<path d="M24.1550 3.6700
L23.6950 3.6700
" />
<path d="M24.1550 3.6700
L24.1550 4.1300
" />
<path d="M24.1550 4.1300
L23.6950 4.1300
" />
<path d="M24.1550 4.1300
L24.1550 4.4300
" />
<path d="M24.1550 4.4300
L23.6950 4.4300
" />
<path d="M24.1550 4.4300
L23.6950 4.4300
" />
<path d="M24.1550 4.8780
L23.6950 4.8780
" />
<path d="M24.1550 4.8780
L24.1550 4.4300
" />
<path d="M24.1550 4.8780
L24.1550 6.6790
" />
<path d="M24.4950 4.1300
L24.4950 3.6700
" />
<path d="M24.4950 4.4300
L24.4950 4.1300
" />
<path d="M24.4950 4.4300
L24.4950 4.8780
" />
<path d="M24.4950 4.5800
L24.1550 4.5800
" />
<path d="M24.4950 4.9300
L24.1550 4.9300
" />
<path d="M24.4950 6.5800
L24.1550 6.5800
" />
<path d="M24.4950 6.6800
L24.4950 4.8780
" />
<path d="M24.5350 6.3300
L24.5350 8.1300
" />
<path d="M24.5350 8.1300
L24.1150 8.1300
" />
<path d="M24.9150 6.3300
L24.5350 6.3300
" />
<path d="M24.9150 6.3300
L24.9150 8.1300
" />
<path d="M24.9150 6.6800
L25.3350 6.6800
" />
<path d="M24.9550 3.6700
L24.4950 3.6700
" />
<path d="M24.9550 3.6700
L24.9550 4.1300
" />
<path d="M24.9550 4.1300
L24.4950 4.1300
" />
<path d="M24.9550 4.1300
L24.9550 4.4300
" />
<path d="M24.9550 4.4300
L24.4950 4.4300
" />
<path d="M24.9550 4.4300
L24.4950 4.4300
" />
<path d="M24.9550 4.8780
L24.4950 4.8780
" />
<path d="M24.9550 4.8780
L24.9550 4.4300
" />
<path d="M24.9550 4.8780
L24.9550 6.6790
" />
<path d="M25.2950 4.1300
L25.2950 3.6700
" />
<path d="M25.2950 4.4300
L25.2950 4.1300
" />
<path d="M25.2950 4.4300
L25.2950 4.8780
" />
<path d="M25.2950 4.5800
L24.9550 4.5800
" />
<path d="M25.2950 4.9300
L24.9550 4.9300
" />
<path d="M25.2950 6.5800
L24.9550 6.5800
" />
<path d="M25.2950 6.6800
L25.2950 4.8780
" />
<path d="M25.3350 6.3300
L25.3350 8.1300
" />
<path d="M25.3350 8.1300
L24.9150 8.1300
" />
<path d="M25.7150 6.3300
L25.3350 6.3300
" />
<path d="M25.7150 6.3300
L25.7150 8.1300
" />
<path d="M25.7150 6.6800
L26.1350 6.6800
" />
<path d="M25.7550 3.6700
L25.2950 3.6700
" />
<path d="M25.7550 3.6700
L25.7550 4.1300
" />
<path d="M25.7550 4.1300
L25.2950 4.1300
" />
<path d="M25.7550 4.1300
L25.7550 4.4300
" />
<path d="M25.7550 4.4300
L25.2950 4.4300
" />
<path d="M25.7550 4.4300
L25.2950 4.4300
" />
<path d="M25.7550 4.8780
L25.2950 4.8780
" />
<path d="M25.7550 4.8780
L25.7550 4.4300
" />
<path d="M25.7550 4.8780
L25.7550 6.6790
" />
<path d="M26.0950 4.1300
L26.0950 3.6700
" />
<path d="M26.0950 4.4300
L26.0950 4.1300
" />
<path d="M26.0950 4.4300
L26.0950 4.8780
" />
<path d="M26.0950 4.5800
L25.7550 4.5800
" />
<path d="M26.0950 4.9300
L25.7550 4.9300
" />
<path d="M26.0950 6.5800
L25.7550 6.5800
" />
<path d="M26.0950 6.6800
L26.0950 4.8780
" />
<path d="M26.1350 6.3300
L26.1350 8.1300
" />
<path d="M26.1350 8.1300
L25.7150 8.1300
" />
<path d="M26.5150 6.3300
L26.1350 6.3300
" />
<path d="M26.5150 6.3300
L26.5150 8.1300
" />
<path d="M26.5150 6.6800
L26.9350 6.6800
" />
<path d="M26.5550 3.6700
L26.0950 3.6700
" />
<path d="M26.5550 3.6700
L26.5550 4.1300
" />
<path d="M26.5550 4.1300
L26.0950 4.1300
" />
<path d="M26.5550 4.1300
L26.5550 4.4300
" />
<path d="M26.5550 4.4300
L26.0950 4.4300
" />
<path d="M26.5550 4.4300
L26.0950 4.4300
" />
<path d="M26.5550 4.8780
L26.0950 4.8780
" />
<path d="M26.5550 4.8780
L26.5550 4.4300
" />
<path d="M26.5550 4.8780
L26.5550 6.6790
" />
<path d="M26.8950 4.1300
L26.8950 3.6700
" />
<path d="M26.8950 4.4300
L26.8950 4.1300
" />
<path d="M26.8950 4.4300
L26.8950 4.8780
" />
<path d="M26.8950 4.5800
L26.5550 4.5800
" />
<path d="M26.8950 4.9300
L26.5550 4.9300
" />
<path d="M26.8950 6.5800
L26.5550 6.5800
" />
<path d="M26.8950 6.6800
L26.8950 4.8780
" />
<path d="M26.9350 6.3300
L26.9350 8.1300
" />
<path d="M26.9350 8.1300
L26.5150 8.1300
" />
<path d="M27.3150 6.3300
L26.9350 6.3300
" />
<path d="M27.3150 6.3300
L27.3150 8.1300
" />
<path d="M27.3150 6.6800
L27.7350 6.6800
" />
<path d="M27.3550 3.6700
L26.8950 3.6700
" />
<path d="M27.3550 3.6700
L27.3550 4.1300
" />
<path d="M27.3550 4.1300
L26.8950 4.1300
" />
<path d="M27.3550 4.1300
L27.3550 4.4300
" />
<path d="M27.3550 4.4300
L26.8950 4.4300
" />
<path d="M27.3550 4.4300
L26.8950 4.4300
" />
<path d="M27.3550 4.8780
L26.8950 4.8780
" />
<path d="M27.3550 4.8780
L27.3550 4.4300
" />
<path d="M27.3550 4.8780
L27.3550 6.6790
" />
<path d="M27.6950 4.1300
L27.6950 3.6700
" />
<path d="M27.6950 4.4300
L27.6950 4.1300
" />
<path d="M27.6950 4.4300
L27.6950 4.8780
" />
<path d="M27.6950 4.5800
L27.3550 4.5800
" />
<path d="M27.6950 4.9300
L27.3550 4.9300
" />
<path d="M27.6950 6.5800
L27.3550 6.5800
" />
<path d="M27.6950 6.6800
L27.6950 4.8780
" />
<path d="M27.7350 6.3300
L27.7350 8.1300
" />
<path d="M27.7350 8.1300
L27.3150 8.1300
" />
<path d="M28.1150 6.3300
L27.7350 6.3300
" />
<path d="M28.1150 6.3300
L28.1150 8.1300
" />
<path d="M28.1150 6.6800
L28.5350 6.6800
" />
<path d="M28.1550 3.6700
L27.6950 3.6700
" />
<path d="M28.1550 3.6700
L28.1550 4.1300
" />
<path d="M28.1550 4.1300
L27.6950 4.1300
" />
<path d="M28.1550 4.1300
L28.1550 4.4300
" />
<path d="M28.1550 4.4300
L27.6950 4.4300
" />
<path d="M28.1550 4.4300
L27.6950 4.4300
" />
<path d="M28.1550 4.8780
L27.6950 4.8780
" />
<path d="M28.1550 4.8780
L28.1550 4.4300
" />
<path d="M28.1550 4.8780
L28.1550 6.6790
" />
<path d="M28.4950 4.1300
L28.4950 3.6700
" />
<path d="M28.4950 4.4300
L28.4950 4.1300
" />
<path d="M28.4950 4.4300
L28.4950 4.8780
" />
<path d="M28.4950 4.5800
L28.1550 4.5800
" />
<path d="M28.4950 4.9300
L28.1550 4.9300
" />
<path d="M28.4950 6.5800
L28.1550 6.5800
" />
<path d="M28.4950 6.6800
L28.4950 4.8780
" />
<path d="M28.5350 6.3300
L28.5350 8.1300
" />
<path d="M28.5350 8.1300
L28.1150 8.1300
" />
<path d="M28.9150 6.3300
L28.5350 6.3300
" />
<path d="M28.9150 6.3300
L28.9150 8.1300
" />
<path d="M28.9150 6.6800
L29.3350 6.6800
" />
<path d="M28.9550 3.6700
L28.4950 3.6700
" />
<path d="M28.9550 3.6700
L28.9550 4.1300
" />
<path d="M28.9550 4.1300
L28.4950 4.1300
" />
<path d="M28.9550 4.1300
L28.9550 4.4300
" />
<path d="M28.9550 4.4300
L28.4950 4.4300
" />
<path d="M28.9550 4.4300
L28.4950 4.4300
" />
<path d="M28.9550 4.8780
L28.4950 4.8780
" />
<path d="M28.9550 4.8780
L28.9550 4.4300
" />
<path d="M28.9550 4.8780
L28.9550 6.6790
" />
<path d="M29.2950 4.1300
L29.2950 3.6700
" />
<path d="M29.2950 4.4300
L29.2950 4.1300
" />
<path d="M29.2950 4.4300
L29.2950 4.8780
" />
<path d="M29.2950 4.5800
L28.9550 4.5800
" />
<path d="M29.2950 4.9300
L28.9550 4.9300
" />
<path d="M29.2950 6.5800
L28.9550 6.5800
" />
<path d="M29.2950 6.6800
L29.2950 4.8780
" />
<path d="M29.3350 6.3300
L29.3350 8.1300
" />
<path d="M29.3350 8.1300
L28.9150 8.1300
" />
<path d="M29.7150 6.3300
L29.3350 6.3300
" />
<path d="M29.7150 6.3300
L29.7150 8.1300
" />
<path d="M29.7150 6.6800
L30.1350 6.6800
" />
<path d="M29.7550 3.6700
L29.2950 3.6700
" />
<path d="M29.7550 3.6700
L29.7550 4.1300
" />
<path d="M29.7550 4.1300
L29.2950 4.1300
" />
<path d="M29.7550 4.1300
L29.7550 4.4300
" />
<path d="M29.7550 4.4300
L29.2950 4.4300
" />
<path d="M29.7550 4.4300
L29.2950 4.4300
" />
<path d="M29.7550 4.8780
L29.2950 4.8780
" />
<path d="M29.7550 4.8780
L29.7550 4.4300
" />
<path d="M29.7550 4.8780
L29.7550 6.6790
" />
<path d="M30.0950 4.1300
L30.0950 3.6700
" />
<path d="M30.0950 4.4300
L30.0950 4.1300
" />
<path d="M30.0950 4.4300
L30.0950 4.8780
" />
<path d="M30.0950 4.5800
L29.7550 4.5800
" />
<path d="M30.0950 4.9300
L29.7550 4.9300
" />
<path d="M30.0950 6.5800
L29.7550 6.5800
" />
<path d="M30.0950 6.6800
L30.0950 4.8780
" />
<path d="M30.1350 6.3300
L30.1350 8.1300
" />
<path d="M30.1350 8.1300
L29.7150 8.1300
" />
<path d="M30.5150 6.3300
L30.1350 6.3300
" />
<path d="M30.5150 6.3300
L30.5150 8.1300
" />
<path d="M30.5150 6.6800
L30.9350 6.6800
" />
<path d="M30.5550 3.6700
L30.0950 3.6700
" />
<path d="M30.5550 3.6700
L30.5550 4.1300
" />
<path d="M30.5550 4.1300
L30.0950 4.1300
" />
<path d="M30.5550 4.1300
L30.5550 4.4300
" />
<path d="M30.5550 4.4300
L30.0950 4.4300
" />
<path d="M30.5550 4.4300
L30.0950 4.4300
" />
<path d="M30.5550 4.8780
L30.0950 4.8780
" />
<path d="M30.5550 4.8780
L30.5550 4.4300
" />
<path d="M30.5550 4.8780
L30.5550 6.6790
" />
<path d="M30.8950 4.1300
L30.8950 3.6700
" />
<path d="M30.8950 4.4300
L30.8950 4.1300
" />
<path d="M30.8950 4.4300
L30.8950 4.8780
" />
<path d="M30.8950 4.5800
L30.5550 4.5800
" />
<path d="M30.8950 4.9300
L30.5550 4.9300
" />
<path d="M30.8950 6.5800
L30.5550 6.5800
" />
<path d="M30.8950 6.6800
L30.8950 4.8780
" />
<path d="M30.9350 6.3300
L30.9350 8.1300
" />
<path d="M30.9350 8.1300
L30.5150 8.1300
" />
<path d="M31.3150 6.3300
L30.9350 6.3300
" />
<path d="M31.3150 6.3300
L31.3150 8.1300
" />
<path d="M31.3150 6.6800
L31.7350 6.6800
" />
<path d="M31.3550 3.6700
L30.8950 3.6700
" />
<path d="M31.3550 3.6700
L31.3550 4.1300
" />
<path d="M31.3550 4.1300
L30.8950 4.1300
" />
<path d="M31.3550 4.1300
L31.3550 4.4300
" />
<path d="M31.3550 4.4300
L30.8950 4.4300
" />
<path d="M31.3550 4.4300
L30.8950 4.4300
" />
<path d="M31.3550 4.8780
L30.8950 4.8780
" />
<path d="M31.3550 4.8780
L31.3550 4.4300
" />
<path d="M31.3550 4.8780
L31.3550 6.6790
" />
<path d="M31.6950 4.1300
L31.6950 3.6700
" />
<path d="M31.6950 4.4300
L31.6950 4.1300
" />
<path d="M31.6950 4.4300
L31.6950 4.8780
" />
<path d="M31.6950 4.5800
L31.3550 4.5800
" />
<path d="M31.6950 4.9300
L31.3550 4.9300
" />
<path d="M31.6950 6.5800
L31.3550 6.5800
" />
<path d="M31.6950 6.6800
L31.6950 4.8780
" />
<path d="M31.7350 6.3300
L31.7350 8.1300
" />
<path d="M31.7350 8.1300
L31.3150 8.1300
" />
<path d="M32.1150 6.3300
L31.7350 6.3300
" />
<path d="M32.1150 6.3300
L32.1150 8.1300
" />
<path d="M32.1150 6.6800
L32.5350 6.6800
" />
<path d="M32.1550 3.6700
L31.6950 3.6700
" />
<path d="M32.1550 3.6700
L32.1550 4.1300
" />
<path d="M32.1550 4.1300
L31.6950 4.1300
" />
<path d="M32.1550 4.1300
L32.1550 4.4300
" />
<path d="M32.1550 4.4300
L31.6950 4.4300
" />
<path d="M32.1550 4.4300
L31.6950 4.4300
" />
<path d="M32.1550 4.8780
L31.6950 4.8780
" />
<path d="M32.1550 4.8780
L32.1550 4.4300
" />
<path d="M32.1550 4.8780
L32.1550 6.6790
" />
<path d="M32.4950 4.1300
L32.4950 3.6700
" />
<path d="M32.4950 4.4300
L32.4950 4.1300
" />
<path d="M32.4950 4.4300
L32.4950 4.8780
" />
<path d="M32.4950 4.5800
L32.1550 4.5800
" />
<path d="M32.4950 4.9300
L32.1550 4.9300
" />
<path d="M32.4950 6.5800
L32.1550 6.5800
" />
<path d="M32.4950 6.6800
L32.4950 4.8780
" />
<path d="M32.5350 6.3300
L32.5350 8.1300
" />
<path d="M32.5350 8.1300
L32.1150 8.1300
" />
<path d="M32.9150 6.3300
L32.5350 6.3300
" />
<path d="M32.9150 6.3300
L32.9150 8.1300
" />
<path d="M32.9150 6.6800
L33.3350 6.6800
" />
<path d="M32.9550 3.6700
L32.4950 3.6700
" />
<path d="M32.9550 3.6700
L32.9550 4.1300
" />
<path d="M32.9550 4.1300
L32.4950 4.1300
" />
<path d="M32.9550 4.1300
L32.9550 4.4300
" />
<path d="M32.9550 4.4300
L32.4950 4.4300
" />
<path d="M32.9550 4.4300
L32.4950 4.4300
" />
<path d="M32.9550 4.8780
L32.4950 4.8780
" />
<path d="M32.9550 4.8780
L32.9550 4.4300
" />
<path d="M32.9550 4.8780
L32.9550 6.6790
" />
<path d="M33.2950 4.1300
L33.2950 3.6700
" />
<path d="M33.2950 4.4300
L33.2950 4.1300
" />
<path d="M33.2950 4.4300
L33.2950 4.8780
" />
<path d="M33.2950 4.5800
L32.9550 4.5800
" />
<path d="M33.2950 4.9300
L32.9550 4.9300
" />
<path d="M33.2950 6.5800
L32.9550 6.5800
" />
<path d="M33.2950 6.6800
L33.2950 4.8780
" />
<path d="M33.3350 6.3300
L33.3350 8.1300
" />
<path d="M33.3350 8.1300
L32.9150 8.1300
" />
<path d="M33.7150 6.3300
L33.3350 6.3300
" />
<path d="M33.7150 6.3300
L33.7150 8.1300
" />
<path d="M33.7150 6.6800
L34.1350 6.6800
" />
<path d="M33.7550 3.6700
L33.2950 3.6700
" />
<path d="M33.7550 3.6700
L33.7550 4.1300
" />
<path d="M33.7550 4.1300
L33.2950 4.1300
" />
<path d="M33.7550 4.1300
L33.7550 4.4300
" />
<path d="M33.7550 4.4300
L33.2950 4.4300
" />
<path d="M33.7550 4.4300
L33.2950 4.4300
" />
<path d="M33.7550 4.8780
L33.2950 4.8780
" />
<path d="M33.7550 4.8780
L33.7550 4.4300
" />
<path d="M33.7550 4.8780
L33.7550 6.6790
" />
<path d="M34.0950 4.1300
L34.0950 3.6700
" />
<path d="M34.0950 4.4300
L34.0950 4.1300
" />
<path d="M34.0950 4.4300
L34.0950 4.8780
" />
<path d="M34.0950 4.5800
L33.7550 4.5800
" />
<path d="M34.0950 4.9300
L33.7550 4.9300
" />
<path d="M34.0950 6.5800
L33.7550 6.5800
" />
<path d="M34.0950 6.6800
L34.0950 4.8780
" />
<path d="M34.1350 6.3300
L34.1350 8.1300
" />
<path d="M34.1350 8.1300
L33.7150 8.1300
" />
<path d="M34.5150 6.3300
L34.1350 6.3300
" />
<path d="M34.5150 6.3300
L34.5150 8.1300
" />
<path d="M34.5150 6.6800
L34.9350 6.6800
" />
<path d="M34.5550 3.6700
L34.0950 3.6700
" />
<path d="M34.5550 3.6700
L34.5550 4.1300
" />
<path d="M34.5550 4.1300
L34.0950 4.1300
" />
<path d="M34.5550 4.1300
L34.5550 4.4300
" />
<path d="M34.5550 4.4300
L34.0950 4.4300
" />
<path d="M34.5550 4.4300
L34.0950 4.4300
" />
<path d="M34.5550 4.8780
L34.0950 4.8780
" />
<path d="M34.5550 4.8780
L34.5550 4.4300
" />
<path d="M34.5550 4.8780
L34.5550 6.6790
" />
<path d="M34.8950 4.1300
L34.8950 3.6700
" />
<path d="M34.8950 4.4300
L34.8950 4.1300
" />
<path d="M34.8950 4.4300
L34.8950 4.8780
" />
<path d="M34.8950 4.5800
L34.5550 4.5800
" />
<path d="M34.8950 4.9300
L34.5550 4.9300
" />
<path d="M34.8950 6.5800
L34.5550 6.5800
" />
<path d="M34.8950 6.6800
L34.8950 4.8780
" />
<path d="M34.9350 6.3300
L34.9350 8.1300
" />
<path d="M34.9350 8.1300
L34.5150 8.1300
" />
<path d="M35.3150 6.3300
L34.9350 6.3300
" />
<path d="M35.3150 6.3300
L35.3150 8.1300
" />
<path d="M35.3150 6.6800
L35.7350 6.6800
" />
<path d="M35.3550 3.6700
L34.8950 3.6700
" />
<path d="M35.3550 3.6700
L35.3550 4.1300
" />
<path d="M35.3550 4.1300
L34.8950 4.1300
" />
<path d="M35.3550 4.1300
L35.3550 4.4300
" />
<path d="M35.3550 4.4300
L34.8950 4.4300
" />
<path d="M35.3550 4.4300
L34.8950 4.4300
" />
<path d="M35.3550 4.8780
L34.8950 4.8780
" />
<path d="M35.3550 4.8780
L35.3550 4.4300
" />
<path d="M35.3550 4.8780
L35.3550 6.6790
" />
<path d="M35.6950 4.1300
L35.6950 3.6700
" />
<path d="M35.6950 4.4300
L35.6950 4.1300
" />
<path d="M35.6950 4.4300
L35.6950 4.8780
" />
<path d="M35.6950 4.5800
L35.3550 4.5800
" />
<path d="M35.6950 4.9300
L35.3550 4.9300
" />
<path d="M35.6950 6.5800
L35.3550 6.5800
" />
<path d="M35.6950 6.6800
L35.6950 4.8780
" />
<path d="M35.7350 6.3300
L35.7350 8.1300
" />
<path d="M35.7350 8.1300
L35.3150 8.1300
" />
<path d="M36.1150 6.3300
L35.7350 6.3300
" />
<path d="M36.1150 6.3300
L36.1150 8.1300
" />
<path d="M36.1150 6.6800
L36.5350 6.6800
" />
<path d="M36.1550 3.6700
L35.6950 3.6700
" />
<path d="M36.1550 3.6700
L36.1550 4.1300
" />
<path d="M36.1550 4.1300
L35.6950 4.1300
" />
<path d="M36.1550 4.1300
L36.1550 4.4300
" />
<path d="M36.1550 4.4300
L35.6950 4.4300
" />
<path d="M36.1550 4.4300
L35.6950 4.4300
" />
<path d="M36.1550 4.8780
L35.6950 4.8780
" />
<path d="M36.1550 4.8780
L36.1550 4.4300
" />
<path d="M36.1550 4.8780
L36.1550 6.6790
" />
<path d="M36.4950 4.1300
L36.4950 3.6700
" />
<path d="M36.4950 4.4300
L36.4950 4.1300
" />
<path d="M36.4950 4.4300
L36.4950 4.8780
" />
<path d="M36.4950 4.5800
L36.1550 4.5800
" />
<path d="M36.4950 4.9300
L36.1550 4.9300
" />
<path d="M36.4950 6.5800
L36.1550 6.5800
" />
<path d="M36.4950 6.6800
L36.4950 4.8780
" />
<path d="M36.5350 6.3300
L36.5350 8.1300
" />
<path d="M36.5350 8.1300
L36.1150 8.1300
" />
<path d="M36.9150 6.3300
L36.5350 6.3300
" />
<path d="M36.9150 6.3300
L36.9150 8.1300
" />
<path d="M36.9150 6.6800
L37.3350 6.6800
" />
<path d="M36.9550 3.6700
L36.4950 3.6700
" />
<path d="M36.9550 3.6700
L36.9550 4.1300
" />
<path d="M36.9550 4.1300
L36.4950 4.1300
" />
<path d="M36.9550 4.1300
L36.9550 4.4300
" />
<path d="M36.9550 4.4300
L36.4950 4.4300
" />
<path d="M36.9550 4.4300
L36.4950 4.4300
" />
<path d="M36.9550 4.8780
L36.4950 4.8780
" />
<path d="M36.9550 4.8780
L36.9550 4.4300
" />
<path d="M36.9550 4.8780
L36.9550 6.6790
" />
<path d="M37.2950 4.1300
L37.2950 3.6700
" />
<path d="M37.2950 4.4300
L37.2950 4.1300
" />
<path d="M37.2950 4.4300
L37.2950 4.8780
" />
<path d="M37.2950 4.5800
L36.9550 4.5800
" />
<path d="M37.2950 4.9300
L36.9550 4.9300
" />
<path d="M37.2950 6.5800
L36.9550 6.5800
" />
<path d="M37.2950 6.6800
L37.2950 4.8780
" />
<path d="M37.3350 6.3300
L37.3350 8.1300
" />
<path d="M37.3350 8.1300
L36.9150 8.1300
" />
<path d="M37.7150 6.3300
L37.3350 6.3300
" />
<path d="M37.7150 6.3300
L37.7150 8.1300
" />
<path d="M37.7150 6.6800
L38.1350 6.6800
" />
<path d="M37.7550 3.6700
L37.2950 3.6700
" />
<path d="M37.7550 3.6700
L37.7550 4.1300
" />
<path d="M37.7550 4.1300
L37.2950 4.1300
" />
<path d="M37.7550 4.1300
L37.7550 4.4300
" />
<path d="M37.7550 4.4300
L37.2950 4.4300
" />
<path d="M37.7550 4.4300
L37.2950 4.4300
" />
<path d="M37.7550 4.8780
L37.2950 4.8780
" />
<path d="M37.7550 4.8780
L37.7550 4.4300
" />
<path d="M37.7550 4.8780
L37.7550 6.6790
" />
<path d="M38.0950 4.1300
L38.0950 3.6700
" />
<path d="M38.0950 4.4300
L38.0950 4.1300
" />
<path d="M38.0950 4.4300
L38.0950 4.8780
" />
<path d="M38.0950 4.5800
L37.7550 4.5800
" />
<path d="M38.0950 4.9300
L37.7550 4.9300
" />
<path d="M38.0950 6.5800
L37.7550 6.5800
" />
<path d="M38.0950 6.6800
L38.0950 4.8780
" />
<path d="M38.1350 6.3300
L38.1350 8.1300
" />
<path d="M38.1350 8.1300
L37.7150 8.1300
" />
<path d="M38.5150 6.3300
L38.1350 6.3300
" />
<path d="M38.5150 6.3300
L38.5150 8.1300
" />
<path d="M38.5150 6.6800
L38.9350 6.6800
" />
<path d="M38.5550 3.6700
L38.0950 3.6700
" />
<path d="M38.5550 3.6700
L38.5550 4.1300
" />
<path d="M38.5550 4.1300
L38.0950 4.1300
" />
<path d="M38.5550 4.1300
L38.5550 4.4300
" />
<path d="M38.5550 4.4300
L38.0950 4.4300
" />
<path d="M38.5550 4.4300
L38.0950 4.4300
" />
<path d="M38.5550 4.8780
L38.0950 4.8780
" />
<path d="M38.5550 4.8780
L38.5550 4.4300
" />
<path d="M38.5550 4.8780
L38.5550 6.6790
" />
<path d="M38.8950 4.1300
L38.8950 3.6700
" />
<path d="M38.8950 4.4300
L38.8950 4.1300
" />
<path d="M38.8950 4.4300
L38.8950 4.8780
" />
<path d="M38.8950 4.5800
L38.5550 4.5800
" />
<path d="M38.8950 4.9300
L38.5550 4.9300
" />
<path d="M38.8950 6.5800
L38.5550 6.5800
" />
<path d="M38.8950 6.6800
L38.8950 4.8780
" />
<path d="M38.9350 6.3300
L38.9350 8.1300
" />
<path d="M38.9350 8.1300
L38.5150 8.1300
" />
<path d="M39.3150 6.3300
L38.9350 6.3300
" />
<path d="M39.3150 6.3300
L39.3150 8.1300
" />
<path d="M39.3150 6.6800
L39.7350 6.6800
" />
<path d="M39.3550 3.6700
L38.8950 3.6700
" />
<path d="M39.3550 3.6700
L39.3550 4.1300
" />
<path d="M39.3550 4.1300
L38.8950 4.1300
" />
<path d="M39.3550 4.1300
L39.3550 4.4300
" />
<path d="M39.3550 4.4300
L38.8950 4.4300
" />
<path d="M39.3550 4.4300
L38.8950 4.4300
" />
<path d="M39.3550 4.8780
L38.8950 4.8780
" />
<path d="M39.3550 4.8780
L39.3550 4.4300
" />
<path d="M39.3550 4.8780
L39.3550 6.6790
" />
<path d="M39.6950 4.1300
L39.6950 3.6700
" />
<path d="M39.6950 4.4300
L39.6950 4.1300
" />
<path d="M39.6950 4.4300
L39.6950 4.8780
" />
<path d="M39.6950 4.5800
L39.3550 4.5800
" />
<path d="M39.6950 4.9300
L39.3550 4.9300
" />
<path d="M39.6950 6.5800
L39.3550 6.5800
" />
<path d="M39.6950 6.6800
L39.6950 4.8780
" />
<path d="M39.7350 6.3300
L39.7350 8.1300
" />
<path d="M39.7350 8.1300
L39.3150 8.1300
" />
<path d="M40.1150 6.3300
L39.7350 6.3300
" />
<path d="M40.1150 6.3300
L40.1150 8.1300
" />
<path d="M40.1150 6.6800
L40.5350 6.6800
" />
<path d="M40.1550 3.6700
L39.6950 3.6700
" />
<path d="M40.1550 3.6700
L40.1550 4.1300
" />
<path d="M40.1550 4.1300
L39.6950 4.1300
" />
<path d="M40.1550 4.1300
L40.1550 4.4300
" />
<path d="M40.1550 4.4300
L39.6950 4.4300
" />
<path d="M40.1550 4.4300
L39.6950 4.4300
" />
<path d="M40.1550 4.8780
L39.6950 4.8780
" />
<path d="M40.1550 4.8780
L40.1550 4.4300
" />
<path d="M40.1550 4.8780
L40.1550 6.6790
" />
<path d="M40.4950 4.1300
L40.4950 3.6700
" />
<path d="M40.4950 4.4300
L40.4950 4.1300
" />
<path d="M40.4950 4.4300
L40.4950 4.8780
" />
<path d="M40.4950 4.5800
L40.1550 4.5800
" />
<path d="M40.4950 4.9300
L40.1550 4.9300
" />
<path d="M40.4950 6.5800
L40.1550 6.5800
" />
<path d="M40.4950 6.6800
L40.4950 4.8780
" />
<path d="M40.5350 6.3300
L40.5350 8.1300
" />
<path d="M40.5350 8.1300
L40.1150 8.1300
" />
<path d="M40.9150 6.3300
L40.5350 6.3300
" />
<path d="M40.9150 6.3300
L40.9150 8.1300
" />
<path d="M40.9150 6.6800
L41.3350 6.6800
" />
<path d="M40.9550 3.6700
L40.4950 3.6700
" />
<path d="M40.9550 3.6700
L40.9550 4.1300
" />
<path d="M40.9550 4.1300
L40.4950 4.1300
" />
<path d="M40.9550 4.1300
L40.9550 4.4300
" />
<path d="M40.9550 4.4300
L40.4950 4.4300
" />
<path d="M40.9550 4.4300
L40.4950 4.4300
" />
<path d="M40.9550 4.8780
L40.4950 4.8780
" />
<path d="M40.9550 4.8780
L40.9550 4.4300
" />
<path d="M40.9550 4.8780
L40.9550 6.6790
" />
<path d="M41.2950 4.1300
L41.2950 3.6700
" />
<path d="M41.2950 4.4300
L41.2950 4.1300
" />
<path d="M41.2950 4.4300
L41.2950 4.8780
" />
<path d="M41.2950 4.5800
L40.9550 4.5800
" />
<path d="M41.2950 4.9300
L40.9550 4.9300
" />
<path d="M41.2950 6.5800
L40.9550 6.5800
" />
<path d="M41.2950 6.6800
L41.2950 4.8780
" />
<path d="M41.3350 6.3300
L41.3350 8.1300
" />
<path d="M41.3350 8.1300
L40.9150 8.1300
" />
<path d="M41.7150 6.3300
L41.3350 6.3300
" />
<path d="M41.7150 6.3300
L41.7150 8.1300
" />
<path d="M41.7150 6.6800
L42.1350 6.6800
" />
<path d="M41.7550 3.6700
L41.2950 3.6700
" />
<path d="M41.7550 3.6700
L41.7550 4.1300
" />
<path d="M41.7550 4.1300
L41.2950 4.1300
" />
<path d="M41.7550 4.1300
L41.7550 4.4300
" />
<path d="M41.7550 4.4300
L41.2950 4.4300
" />
<path d="M41.7550 4.4300
L41.2950 4.4300
" />
<path d="M41.7550 4.8780
L41.2950 4.8780
" />
<path d="M41.7550 4.8780
L41.7550 4.4300
" />
<path d="M41.7550 4.8780
L41.7550 6.6790
" />
<path d="M42.0950 4.1300
L42.0950 3.6700
" />
<path d="M42.0950 4.4300
L42.0950 4.1300
" />
<path d="M42.0950 4.4300
L42.0950 4.8780
" />
<path d="M42.0950 4.5800
L41.7550 4.5800
" />
<path d="M42.0950 4.9300
L41.7550 4.9300
" />
<path d="M42.0950 6.5800
L41.7550 6.5800
" />
<path d="M42.0950 6.6800
L42.0950 4.8780
" />
<path d="M42.1350 6.3300
L42.1350 8.1300
" />
<path d="M42.1350 8.1300
L41.7150 8.1300
" />
<path d="M42.5150 6.3300
L42.1350 6.3300
" />
<path d="M42.5150 6.3300
L42.5150 8.1300
" />
<path d="M42.5150 6.6800
L42.9350 6.6800
" />
<path d="M42.5550 3.6700
L42.0950 3.6700
" />
<path d="M42.5550 3.6700
L42.5550 4.1300
" />
<path d="M42.5550 4.1300
L42.0950 4.1300
" />
<path d="M42.5550 4.1300
L42.5550 4.4300
" />
<path d="M42.5550 4.4300
L42.0950 4.4300
" />
<path d="M42.5550 4.4300
L42.0950 4.4300
" />
<path d="M42.5550 4.8780
L42.0950 4.8780
" />
<path d="M42.5550 4.8780
L42.5550 4.4300
" />
<path d="M42.5550 4.8780
L42.5550 6.6790
" />
<path d="M42.8950 4.1300
L42.8950 3.6700
" />
<path d="M42.8950 4.4300
L42.8950 4.1300
" />
<path d="M42.8950 4.4300
L42.8950 4.8780
" />
<path d="M42.8950 4.5800
L42.5550 4.5800
" />
<path d="M42.8950 4.9300
L42.5550 4.9300
" />
<path d="M42.8950 6.5800
L42.5550 6.5800
" />
<path d="M42.8950 6.6800
L42.8950 4.8780
" />
<path d="M42.9350 6.3300
L42.9350 8.1300
" />
<path d="M42.9350 8.1300
L42.5150 8.1300
" />
<path d="M43.3150 6.3300
L42.9350 6.3300
" />
<path d="M43.3150 6.3300
L43.3150 8.1300
" />
<path d="M43.3150 6.6800
L43.7350 6.6800
" />
<path d="M43.3550 3.6700
L42.8950 3.6700
" />
<path d="M43.3550 3.6700
L43.3550 4.1300
" />
<path d="M43.3550 4.1300
L42.8950 4.1300
" />
<path d="M43.3550 4.1300
L43.3550 4.4300
" />
<path d="M43.3550 4.4300
L42.8950 4.4300
" />
<path d="M43.3550 4.4300
L42.8950 4.4300
" />
<path d="M43.3550 4.8780
L42.8950 4.8780
" />
<path d="M43.3550 4.8780
L43.3550 4.4300
" />
<path d="M43.3550 4.8780
L43.3550 6.6790
" />
<path d="M43.6950 4.1300
L43.6950 3.6700
" />
<path d="M43.6950 4.4300
L43.6950 4.1300
" />
<path d="M43.6950 4.4300
L43.6950 4.8780
" />
<path d="M43.6950 4.5800
L43.3550 4.5800
" />
<path d="M43.6950 4.9300
L43.3550 4.9300
" />
<path d="M43.6950 6.5800
L43.3550 6.5800
" />
<path d="M43.6950 6.6800
L43.6950 4.8780
" />
<path d="M43.7350 6.3300
L43.7350 8.1300
" />
<path d="M43.7350 8.1300
L43.3150 8.1300
" />
<path d="M44.1150 6.3300
L43.7350 6.3300
" />
<path d="M44.1150 6.3300
L44.1150 8.1300
" />
<path d="M44.1150 6.6800
L44.5350 6.6800
" />
<path d="M44.1550 3.6700
L43.6950 3.6700
" />
<path d="M44.1550 3.6700
L44.1550 4.1300
" />
<path d="M44.1550 4.1300
L43.6950 4.1300
" />
<path d="M44.1550 4.1300
L44.1550 4.4300
" />
<path d="M44.1550 4.4300
L43.6950 4.4300
" />
<path d="M44.1550 4.4300
L43.6950 4.4300
" />
<path d="M44.1550 4.8780
L43.6950 4.8780
" />
<path d="M44.1550 4.8780
L44.1550 4.4300
" />
<path d="M44.1550 4.8780
L44.1550 6.6790
" />
<path d="M44.4950 4.1300
L44.4950 3.6700
" />
<path d="M44.4950 4.4300
L44.4950 4.1300
" />
<path d="M44.4950 4.4300
L44.4950 4.8780
" />
<path d="M44.4950 4.5800
L44.1550 4.5800
" />
<path d="M44.4950 4.9300
L44.1550 4.9300
" />
<path d="M44.4950 6.5800
L44.1550 6.5800
" />
<path d="M44.4950 6.6800
L44.4950 4.8780
" />
<path d="M44.5350 6.3300
L44.5350 8.1300
" />
<path d="M44.5350 8.1300
L44.1150 8.1300
" />
<path d="M44.9150 6.3300
L44.5350 6.3300
" />
<path d="M44.9150 6.3300
L44.9150 8.1300
" />
<path d="M44.9150 6.6800
L45.3350 6.6800
" />
<path d="M44.9550 3.6700
L44.4950 3.6700
" />
<path d="M44.9550 3.6700
L44.9550 4.1300
" />
<path d="M44.9550 4.1300
L44.4950 4.1300
" />
<path d="M44.9550 4.1300
L44.9550 4.4300
" />
<path d="M44.9550 4.4300
L44.4950 4.4300
" />
<path d="M44.9550 4.4300
L44.4950 4.4300
" />
<path d="M44.9550 4.8780
L44.4950 4.8780
" />
<path d="M44.9550 4.8780
L44.9550 4.4300
" />
<path d="M44.9550 4.8780
L44.9550 6.6790
" />
<path d="M45.2950 4.1300
L45.2950 3.6700
" />
<path d="M45.2950 4.4300
L45.2950 4.1300
" />
<path d="M45.2950 4.4300
L45.2950 4.8780
" />
<path d="M45.2950 4.5800
L44.9550 4.5800
" />
<path d="M45.2950 4.9300
L44.9550 4.9300
" />
<path d="M45.2950 6.5800
L44.9550 6.5800
" />
<path d="M45.2950 6.6800
L45.2950 4.8780
" />
<path d="M45.3350 6.3300
L45.3350 8.1300
" />
<path d="M45.3350 8.1300
L44.9150 8.1300
" />
<path d="M45.7150 6.3300
L45.3350 6.3300
" />
<path d="M45.7150 6.3300
L45.7150 8.1300
" />
<path d="M45.7150 6.6800
L46.1350 6.6800
" />
<path d="M45.7550 3.6700
L45.2950 3.6700
" />
<path d="M45.7550 3.6700
L45.7550 4.1300
" />
<path d="M45.7550 4.1300
L45.2950 4.1300
" />
<path d="M45.7550 4.1300
L45.7550 4.4300
" />
<path d="M45.7550 4.4300
L45.2950 4.4300
" />
<path d="M45.7550 4.4300
L45.2950 4.4300
" />
<path d="M45.7550 4.8780
L45.2950 4.8780
" />
<path d="M45.7550 4.8780
L45.7550 4.4300
" />
<path d="M45.7550 4.8780
L45.7550 6.6790
" />
<path d="M46.0950 4.1300
L46.0950 3.6700
" />
<path d="M46.0950 4.4300
L46.0950 4.1300
" />
<path d="M46.0950 4.4300
L46.0950 4.8780
" />
<path d="M46.0950 4.5800
L45.7550 4.5800
" />
<path d="M46.0950 4.9300
L45.7550 4.9300
" />
<path d="M46.0950 6.5800
L45.7550 6.5800
" />
<path d="M46.0950 6.6800
L46.0950 4.8780
" />
<path d="M46.1350 6.3300
L46.1350 8.1300
" />
<path d="M46.1350 8.1300
L45.7150 8.1300
" />
<path d="M46.5150 6.3300
L46.1350 6.3300
" />
<path d="M46.5150 6.3300
L46.5150 8.1300
" />
<path d="M46.5150 6.6800
L46.9350 6.6800
" />
<path d="M46.5550 3.6700
L46.0950 3.6700
" />
<path d="M46.5550 3.6700
L46.5550 4.1300
" />
<path d="M46.5550 4.1300
L46.0950 4.1300
" />
<path d="M46.5550 4.1300
L46.5550 4.4300
" />
<path d="M46.5550 4.4300
L46.0950 4.4300
" />
<path d="M46.5550 4.4300
L46.0950 4.4300
" />
<path d="M46.5550 4.8780
L46.0950 4.8780
" />
<path d="M46.5550 4.8780
L46.5550 4.4300
" />
<path d="M46.5550 4.8780
L46.5550 6.6790
" />
<path d="M46.8950 4.1300
L46.8950 3.6700
" />
<path d="M46.8950 4.4300
L46.8950 4.1300
" />
<path d="M46.8950 4.4300
L46.8950 4.8780
" />
<path d="M46.8950 4.5800
L46.5550 4.5800
" />
<path d="M46.8950 4.9300
L46.5550 4.9300
" />
<path d="M46.8950 6.5800
L46.5550 6.5800
" />
<path d="M46.8950 6.6800
L46.8950 4.8780
" />
<path d="M46.9350 6.3300
L46.9350 8.1300
" />
<path d="M46.9350 8.1300
L46.5150 8.1300
" />
<path d="M47.3150 6.3300
L46.9350 6.3300
" />
<path d="M47.3150 6.3300
L47.3150 8.1300
" />
<path d="M47.3150 6.6800
L47.7350 6.6800
" />
<path d="M47.3550 3.6700
L46.8950 3.6700
" />
<path d="M47.3550 3.6700
L47.3550 4.1300
" />
<path d="M47.3550 4.1300
L46.8950 4.1300
" />
<path d="M47.3550 4.1300
L47.3550 4.4300
" />
<path d="M47.3550 4.4300
L46.8950 4.4300
" />
<path d="M47.3550 4.4300
L46.8950 4.4300
" />
<path d="M47.3550 4.8780
L46.8950 4.8780
" />
<path d="M47.3550 4.8780
L47.3550 4.4300
" />
<path d="M47.3550 4.8780
L47.3550 6.6790
" />
<path d="M47.6950 4.1300
L47.6950 3.6700
" />
<path d="M47.6950 4.4300
L47.6950 4.1300
" />
<path d="M47.6950 4.4300
L47.6950 4.8780
" />
<path d="M47.6950 4.5800
L47.3550 4.5800
" />
<path d="M47.6950 4.9300
L47.3550 4.9300
" />
<path d="M47.6950 6.5800
L47.3550 6.5800
" />
<path d="M47.6950 6.6800
L47.6950 4.8780
" />
<path d="M47.7350 6.3300
L47.7350 8.1300
" />
<path d="M47.7350 8.1300
L47.3150 8.1300
" />
<path d="M48.1150 6.3300
L47.7350 6.3300
" />
<path d="M48.1150 6.3300
L48.1150 8.1300
" />
<path d="M48.1150 6.6800
L48.5350 6.6800
" />
<path d="M48.1550 3.6700
L47.6950 3.6700
" />
<path d="M48.1550 3.6700
L48.1550 4.1300
" />
<path d="M48.1550 4.1300
L47.6950 4.1300
" />
<path d="M48.1550 4.1300
L48.1550 4.4300
" />
<path d="M48.1550 4.4300
L47.6950 4.4300
" />
<path d="M48.1550 4.4300
L47.6950 4.4300
" />
<path d="M48.1550 4.8780
L47.6950 4.8780
" />
<path d="M48.1550 4.8780
L48.1550 4.4300
" />
<path d="M48.1550 4.8780
L48.1550 6.6790
" />
<path d="M48.4950 4.1300
L48.4950 3.6700
" />
<path d="M48.4950 4.4300
L48.4950 4.1300
" />
<path d="M48.4950 4.4300
L48.4950 4.8780
" />
<path d="M48.4950 4.5800
L48.1550 4.5800
" />
<path d="M48.4950 4.9300
L48.1550 4.9300
" />
<path d="M48.4950 6.5800
L48.1550 6.5800
" />
<path d="M48.4950 6.6800
L48.4950 4.8780
" />
<path d="M48.5350 6.3300
L48.5350 8.1300
" />
<path d="M48.5350 8.1300
L48.1150 8.1300
" />
<path d="M48.9150 6.3300
L48.5350 6.3300
" />
<path d="M48.9150 6.3300
L48.9150 8.1300
" />
<path d="M48.9150 6.6800
L49.3350 6.6800
" />
<path d="M48.9550 3.6700
L48.4950 3.6700
" />
<path d="M48.9550 3.6700
L48.9550 4.1300
" />
<path d="M48.9550 4.1300
L48.4950 4.1300
" />
<path d="M48.9550 4.1300
L48.9550 4.4300
" />
<path d="M48.9550 4.4300
L48.4950 4.4300
" />
<path d="M48.9550 4.4300
L48.4950 4.4300
" />
<path d="M48.9550 4.8780
L48.4950 4.8780
" />
<path d="M48.9550 4.8780
L48.9550 4.4300
" />
<path d="M48.9550 4.8780
L48.9550 6.6790
" />
<path d="M49.2950 4.1300
L49.2950 3.6700
" />
<path d="M49.2950 4.4300
L49.2950 4.1300
" />
<path d="M49.2950 4.4300
L49.2950 4.8780
" />
<path d="M49.2950 4.5800
L48.9550 4.5800
" />
<path d="M49.2950 4.9300
L48.9550 4.9300
" />
<path d="M49.2950 6.5800
L48.9550 6.5800
" />
<path d="M49.2950 6.6800
L49.2950 4.8780
" />
<path d="M49.3350 6.3300
L49.3350 8.1300
" />
<path d="M49.3350 8.1300
L48.9150 8.1300
" />
<path d="M49.7150 6.3300
L49.3350 6.3300
" />
<path d="M49.7150 6.3300
L49.7150 8.1300
" />
<path d="M49.7150 6.6800
L50.1350 6.6800
" />
<path d="M49.7550 3.6700
L49.2950 3.6700
" />
<path d="M49.7550 3.6700
L49.7550 4.1300
" />
<path d="M49.7550 4.1300
L49.2950 4.1300
" />
<path d="M49.7550 4.1300
L49.7550 4.4300
" />
<path d="M49.7550 4.4300
L49.2950 4.4300
" />
<path d="M49.7550 4.4300
L49.2950 4.4300
" />
<path d="M49.7550 4.8780
L49.2950 4.8780
" />
<path d="M49.7550 4.8780
L49.7550 4.4300
" />
<path d="M49.7550 4.8780
L49.7550 6.6790
" />
<path d="M50.0950 4.1300
L50.0950 3.6700
" />
<path d="M50.0950 4.4300
L50.0950 4.1300
" />
<path d="M50.0950 4.4300
L50.0950 4.8780
" />
<path d="M50.0950 4.5800
L49.7550 4.5800
" />
<path d="M50.0950 4.9300
L49.7550 4.9300
" />
<path d="M50.0950 6.5800
L49.7550 6.5800
" />
<path d="M50.0950 6.6800
L50.0950 4.8780
" />
<path d="M50.1350 6.3300
L50.1350 8.1300
" />
<path d="M50.1350 8.1300
L49.7150 8.1300
" />
<path d="M50.5150 6.3300
L50.1350 6.3300
" />
<path d="M50.5150 6.3300
L50.5150 8.1300
" />
<path d="M50.5150 6.6800
L50.9350 6.6800
" />
<path d="M50.5550 3.6700
L50.0950 3.6700
" />
<path d="M50.5550 3.6700
L50.5550 4.1300
" />
<path d="M50.5550 4.1300
L50.0950 4.1300
" />
<path d="M50.5550 4.1300
L50.5550 4.4300
" />
<path d="M50.5550 4.4300
L50.0950 4.4300
" />
<path d="M50.5550 4.4300
L50.0950 4.4300
" />
<path d="M50.5550 4.8780
L50.0950 4.8780
" />
<path d="M50.5550 4.8780
L50.5550 4.4300
" />
<path d="M50.5550 4.8780
L50.5550 6.6790
" />
<path d="M50.8950 4.1300
L50.8950 3.6700
" />
<path d="M50.8950 4.4300
L50.8950 4.1300
" />
<path d="M50.8950 4.4300
L50.8950 4.8780
" />
<path d="M50.8950 4.5800
L50.5550 4.5800
" />
<path d="M50.8950 4.9300
L50.5550 4.9300
" />
<path d="M50.8950 6.5800
L50.5550 6.5800
" />
<path d="M50.8950 6.6800
L50.8950 4.8780
" />
<path d="M50.9350 6.3300
L50.9350 8.1300
" />
<path d="M50.9350 8.1300
L50.5150 8.1300
" />
<path d="M51.3150 6.3300
L50.9350 6.3300
" />
<path d="M51.3150 6.3300
L51.3150 8.1300
" />
<path d="M51.3150 6.6800
L51.7350 6.6800
" />
<path d="M51.3550 3.6700
L50.8950 3.6700
" />
<path d="M51.3550 3.6700
L51.3550 4.1300
" />
<path d="M51.3550 4.1300
L50.8950 4.1300
" />
<path d="M51.3550 4.1300
L51.3550 4.4300
" />
<path d="M51.3550 4.4300
L50.8950 4.4300
" />
<path d="M51.3550 4.4300
L50.8950 4.4300
" />
<path d="M51.3550 4.8780
L50.8950 4.8780
" />
<path d="M51.3550 4.8780
L51.3550 4.4300
" />
<path d="M51.3550 4.8780
L51.3550 6.6790
" />
<path d="M51.6950 4.1300
L51.6950 3.6700
" />
<path d="M51.6950 4.4300
L51.6950 4.1300
" />
<path d="M51.6950 4.4300
L51.6950 4.8780
" />
<path d="M51.6950 4.5800
L51.3550 4.5800
" />
<path d="M51.6950 4.9300
L51.3550 4.9300
" />
<path d="M51.6950 6.5800
L51.3550 6.5800
" />
<path d="M51.6950 6.6800
L51.6950 4.8780
" />
<path d="M51.7350 6.3300
L51.7350 8.1300
" />
<path d="M51.7350 8.1300
L51.3150 8.1300
" />
<path d="M52.1150 6.3300
L51.7350 6.3300
" />
<path d="M52.1150 6.3300
L52.1150 8.1300
" />
<path d="M52.1150 6.6800
L52.5350 6.6800
" />
<path d="M52.1550 3.6700
L51.6950 3.6700
" />
<path d="M52.1550 3.6700
L52.1550 4.1300
" />
<path d="M52.1550 4.1300
L51.6950 4.1300
" />
<path d="M52.1550 4.1300
L52.1550 4.4300
" />
<path d="M52.1550 4.4300
L51.6950 4.4300
" />
<path d="M52.1550 4.4300
L51.6950 4.4300
" />
<path d="M52.1550 4.8780
L51.6950 4.8780
" />
<path d="M52.1550 4.8780
L52.1550 4.4300
" />
<path d="M52.1550 4.8780
L52.1550 6.6790
" />
<path d="M52.4950 4.1300
L52.4950 3.6700
" />
<path d="M52.4950 4.4300
L52.4950 4.1300
" />
<path d="M52.4950 4.4300
L52.4950 4.8780
" />
<path d="M52.4950 4.5800
L52.1550 4.5800
" />
<path d="M52.4950 4.9300
L52.1550 4.9300
" />
<path d="M52.4950 6.5800
L52.1550 6.5800
" />
<path d="M52.4950 6.6800
L52.4950 4.8780
" />
<path d="M52.5350 6.3300
L52.5350 8.1300
" />
<path d="M52.5350 8.1300
L52.1150 8.1300
" />
<path d="M52.9150 6.3300
L52.5350 6.3300
" />
<path d="M52.9150 6.3300
L52.9150 8.1300
" />
<path d="M52.9150 6.6800
L53.3350 6.6800
" />
<path d="M52.9550 3.6700
L52.4950 3.6700
" />
<path d="M52.9550 3.6700
L52.9550 4.1300
" />
<path d="M52.9550 4.1300
L52.4950 4.1300
" />
<path d="M52.9550 4.1300
L52.9550 4.4300
" />
<path d="M52.9550 4.4300
L52.4950 4.4300
" />
<path d="M52.9550 4.4300
L52.4950 4.4300
" />
<path d="M52.9550 4.8780
L52.4950 4.8780
" />
<path d="M52.9550 4.8780
L52.9550 4.4300
" />
<path d="M52.9550 4.8780
L52.9550 6.6790
" />
<path d="M53.2950 4.1300
L53.2950 3.6700
" />
<path d="M53.2950 4.4300
L53.2950 4.1300
" />
<path d="M53.2950 4.4300
L53.2950 4.8780
" />
<path d="M53.2950 4.5800
L52.9550 4.5800
" />
<path d="M53.2950 4.9300
L52.9550 4.9300
" />
<path d="M53.2950 6.5800
L52.9550 6.5800
" />
<path d="M53.2950 6.6800
L53.2950 4.8780
" />
<path d="M53.3350 6.3300
L53.3350 8.1300
" />
<path d="M53.3350 8.1300
L52.9150 8.1300
" />
<path d="M53.7150 6.3300
L53.3350 6.3300
" />
<path d="M53.7150 6.3300
L53.7150 8.1300
" />
<path d="M53.7150 6.6800
L54.1350 6.6800
" />
<path d="M53.7550 3.6700
L53.2950 3.6700
" />
<path d="M53.7550 3.6700
L53.7550 4.1300
" />
<path d="M53.7550 4.1300
L53.2950 4.1300
" />
<path d="M53.7550 4.1300
L53.7550 4.4300
" />
<path d="M53.7550 4.4300
L53.2950 4.4300
" />
<path d="M53.7550 4.4300
L53.2950 4.4300
" />
<path d="M53.7550 4.8780
L53.2950 4.8780
" />
<path d="M53.7550 4.8780
L53.7550 4.4300
" />
<path d="M53.7550 4.8780
L53.7550 6.6790
" />
<path d="M54.0950 4.1300
L54.0950 3.6700
" />
<path d="M54.0950 4.4300
L54.0950 4.1300
" />
<path d="M54.0950 4.4300
L54.0950 4.8780
" />
<path d="M54.0950 4.5800
L53.7550 4.5800
" />
<path d="M54.0950 4.9300
L53.7550 4.9300
" />
<path d="M54.0950 6.5800
L53.7550 6.5800
" />
<path d="M54.0950 6.6800
L54.0950 4.8780
" />
<path d="M54.1350 6.3300
L54.1350 8.1300
" />
<path d="M54.1350 8.1300
L53.7150 8.1300
" />
<path d="M54.5150 6.3300
L54.1350 6.3300
" />
<path d="M54.5150 6.3300
L54.5150 8.1300
" />
<path d="M54.5150 6.6800
L54.9350 6.6800
" />
<path d="M54.5550 3.6700
L54.0950 3.6700
" />
<path d="M54.5550 3.6700
L54.5550 4.1300
" />
<path d="M54.5550 4.1300
L54.0950 4.1300
" />
<path d="M54.5550 4.1300
L54.5550 4.4300
" />
<path d="M54.5550 4.4300
L54.0950 4.4300
" />
<path d="M54.5550 4.4300
L54.0950 4.4300
" />
<path d="M54.5550 4.8780
L54.0950 4.8780
" />
<path d="M54.5550 4.8780
L54.5550 4.4300
" />
<path d="M54.5550 4.8780
L54.5550 6.6790
" />
<path d="M54.8950 4.1300
L54.8950 3.6700
" />
<path d="M54.8950 4.4300
L54.8950 4.1300
" />
<path d="M54.8950 4.4300
L54.8950 4.8780
" />
<path d="M54.8950 4.5800
L54.5550 4.5800
" />
<path d="M54.8950 4.9300
L54.5550 4.9300
" />
<path d="M54.8950 6.5800
L54.5550 6.5800
" />
<path d="M54.8950 6.6800
L54.8950 4.8780
" />
<path d="M54.9350 6.3300
L54.9350 8.1300
" />
<path d="M54.9350 8.1300
L54.5150 8.1300
" />
<path d="M55.3150 6.3300
L54.9350 6.3300
" />
<path d="M55.3150 6.3300
L55.3150 8.1300
" />
<path d="M55.3150 6.6800
L55.7350 6.6800
" />
<path d="M55.3550 3.6700
L54.8950 3.6700
" />
<path d="M55.3550 3.6700
L55.3550 4.1300
" />
<path d="M55.3550 4.1300
L54.8950 4.1300
" />
<path d="M55.3550 4.1300
L55.3550 4.4300
" />
<path d="M55.3550 4.4300
L54.8950 4.4300
" />
<path d="M55.3550 4.4300
L54.8950 4.4300
" />
<path d="M55.3550 4.8780
L54.8950 4.8780
" />
<path d="M55.3550 4.8780
L55.3550 4.4300
" />
<path d="M55.3550 4.8780
L55.3550 6.6790
" />
<path d="M55.6950 4.1300
L55.6950 3.6700
" />
<path d="M55.6950 4.4300
L55.6950 4.1300
" />
<path d="M55.6950 4.4300
L55.6950 4.8780
" />
<path d="M55.6950 4.5800
L55.3550 4.5800
" />
<path d="M55.6950 4.9300
L55.3550 4.9300
" />
<path d="M55.6950 6.5800
L55.3550 6.5800
" />
<path d="M55.6950 6.6800
L55.6950 4.8780
" />
<path d="M55.7350 6.3300
L55.7350 8.1300
" />
<path d="M55.7350 8.1300
L55.3150 8.1300
" />
<path d="M56.1150 6.3300
L55.7350 6.3300
" />
<path d="M56.1150 6.3300
L56.1150 8.1300
" />
<path d="M56.1150 6.6800
L56.5350 6.6800
" />
<path d="M56.1550 3.6700
L55.6950 3.6700
" />
<path d="M56.1550 3.6700
L56.1550 4.1300
" />
<path d="M56.1550 4.1300
L55.6950 4.1300
" />
<path d="M56.1550 4.1300
L56.1550 4.4300
" />
<path d="M56.1550 4.4300
L55.6950 4.4300
" />
<path d="M56.1550 4.4300
L55.6950 4.4300
" />
<path d="M56.1550 4.8780
L55.6950 4.8780
" />
<path d="M56.1550 4.8780
L56.1550 4.4300
" />
<path d="M56.1550 4.8780
L56.1550 6.6790
" />
<path d="M56.4950 4.1300
L56.4950 3.6700
" />
<path d="M56.4950 4.4300
L56.4950 4.1300
" />
<path d="M56.4950 4.4300
L56.4950 4.8780
" />
<path d="M56.4950 4.5800
L56.1550 4.5800
" />
<path d="M56.4950 4.9300
L56.1550 4.9300
" />
<path d="M56.4950 6.5800
L56.1550 6.5800
" />
<path d="M56.4950 6.6800
L56.4950 4.8780
" />
<path d="M56.5350 6.3300
L56.5350 8.1300
" />
<path d="M56.5350 8.1300
L56.1150 8.1300
" />
<path d="M56.9150 6.3300
L56.5350 6.3300
" />
<path d="M56.9150 6.3300
L56.9150 8.1300
" />
<path d="M56.9150 6.6800
L57.3350 6.6800
" />
<path d="M56.9550 3.6700
L56.4950 3.6700
" />
<path d="M56.9550 3.6700
L56.9550 4.1300
" />
<path d="M56.9550 4.1300
L56.4950 4.1300
" />
<path d="M56.9550 4.1300
L56.9550 4.4300
" />
<path d="M56.9550 4.4300
L56.4950 4.4300
" />
<path d="M56.9550 4.4300
L56.4950 4.4300
" />
<path d="M56.9550 4.8780
L56.4950 4.8780
" />
<path d="M56.9550 4.8780
L56.9550 4.4300
" />
<path d="M56.9550 4.8780
L56.9550 6.6790
" />
<path d="M57.2950 4.1300
L57.2950 3.6700
" />
<path d="M57.2950 4.4300
L57.2950 4.1300
" />
<path d="M57.2950 4.4300
L57.2950 4.8780
" />
<path d="M57.2950 4.5800
L56.9550 4.5800
" />
<path d="M57.2950 4.9300
L56.9550 4.9300
" />
<path d="M57.2950 6.5800
L56.9550 6.5800
" />
<path d="M57.2950 6.6800
L57.2950 4.8780
" />
<path d="M57.3350 6.3300
L57.3350 8.1300
" />
<path d="M57.3350 8.1300
L56.9150 8.1300
" />
<path d="M57.7150 6.3300
L57.3350 6.3300
" />
<path d="M57.7150 6.3300
L57.7150 8.1300
" />
<path d="M57.7150 6.6800
L58.1350 6.6800
" />
<path d="M57.7550 3.6700
L57.2950 3.6700
" />
<path d="M57.7550 3.6700
L57.7550 4.1300
" />
<path d="M57.7550 4.1300
L57.2950 4.1300
" />
<path d="M57.7550 4.1300
L57.7550 4.4300
" />
<path d="M57.7550 4.4300
L57.2950 4.4300
" />
<path d="M57.7550 4.4300
L57.2950 4.4300
" />
<path d="M57.7550 4.8780
L57.2950 4.8780
" />
<path d="M57.7550 4.8780
L57.7550 4.4300
" />
<path d="M57.7550 4.8780
L57.7550 6.6790
" />
<path d="M58.0950 4.1300
L58.0950 3.6700
" />
<path d="M58.0950 4.4300
L58.0950 4.1300
" />
<path d="M58.0950 4.4300
L58.0950 4.8780
" />
<path d="M58.0950 4.5800
L57.7550 4.5800
" />
<path d="M58.0950 4.9300
L57.7550 4.9300
" />
<path d="M58.0950 6.5800
L57.7550 6.5800
" />
<path d="M58.0950 6.6800
L58.0950 4.8780
" />
<path d="M58.1350 6.3300
L58.1350 8.1300
" />
<path d="M58.1350 8.1300
L57.7150 8.1300
" />
<path d="M58.5150 6.3300
L58.1350 6.3300
" />
<path d="M58.5150 6.3300
L58.5150 8.1300
" />
<path d="M58.5150 6.6800
L58.9350 6.6800
" />
<path d="M58.5550 3.6700
L58.0950 3.6700
" />
<path d="M58.5550 3.6700
L58.5550 4.1300
" />
<path d="M58.5550 4.1300
L58.0950 4.1300
" />
<path d="M58.5550 4.1300
L58.5550 4.4300
" />
<path d="M58.5550 4.4300
L58.0950 4.4300
" />
<path d="M58.5550 4.4300
L58.0950 4.4300
" />
<path d="M58.5550 4.8780
L58.0950 4.8780
" />
<path d="M58.5550 4.8780
L58.5550 4.4300
" />
<path d="M58.5550 4.8780
L58.5550 6.6790
" />
<path d="M58.8950 4.1300
L58.8950 3.6700
" />
<path d="M58.8950 4.4300
L58.8950 4.1300
" />
<path d="M58.8950 4.4300
L58.8950 4.8780
" />
<path d="M58.8950 4.5800
L58.5550 4.5800
" />
<path d="M58.8950 4.9300
L58.5550 4.9300
" />
<path d="M58.8950 6.5800
L58.5550 6.5800
" />
<path d="M58.8950 6.6800
L58.8950 4.8780
" />
<path d="M58.9350 6.3300
L58.9350 8.1300
" />
<path d="M58.9350 8.1300
L58.5150 8.1300
" />
<path d="M59.3150 6.3300
L58.9350 6.3300
" />
<path d="M59.3150 6.3300
L59.3150 8.1300
" />
<path d="M59.3150 6.6800
L59.7350 6.6800
" />
<path d="M59.3550 3.6700
L58.8950 3.6700
" />
<path d="M59.3550 3.6700
L59.3550 4.1300
" />
<path d="M59.3550 4.1300
L58.8950 4.1300
" />
<path d="M59.3550 4.1300
L59.3550 4.4300
" />
<path d="M59.3550 4.4300
L58.8950 4.4300
" />
<path d="M59.3550 4.4300
L58.8950 4.4300
" />
<path d="M59.3550 4.8780
L58.8950 4.8780
" />
<path d="M59.3550 4.8780
L59.3550 4.4300
" />
<path d="M59.3550 4.8780
L59.3550 6.6790
" />
<path d="M59.6950 4.1300
L59.6950 3.6700
" />
<path d="M59.6950 4.4300
L59.6950 4.1300
" />
<path d="M59.6950 4.4300
L59.6950 4.8780
" />
<path d="M59.6950 4.5800
L59.3550 4.5800
" />
<path d="M59.6950 4.9300
L59.3550 4.9300
" />
<path d="M59.6950 6.5800
L59.3550 6.5800
" />
<path d="M59.6950 6.6800
L59.6950 4.8780
" />
<path d="M59.7350 6.3300
L59.7350 8.1300
" />
<path d="M59.7350 8.1300
L59.3150 8.1300
" />
<path d="M60.1150 6.3300
L59.7350 6.3300
" />
<path d="M60.1150 6.3300
L60.1150 8.1300
" />
<path d="M60.1150 6.6800
L60.5350 6.6800
" />
<path d="M60.1550 3.6700
L59.6950 3.6700
" />
<path d="M60.1550 3.6700
L60.1550 4.1300
" />
<path d="M60.1550 4.1300
L59.6950 4.1300
" />
<path d="M60.1550 4.1300
L60.1550 4.4300
" />
<path d="M60.1550 4.4300
L59.6950 4.4300
" />
<path d="M60.1550 4.4300
L59.6950 4.4300
" />
<path d="M60.1550 4.8780
L59.6950 4.8780
" />
<path d="M60.1550 4.8780
L60.1550 4.4300
" />
<path d="M60.1550 4.8780
L60.1550 6.6790
" />
<path d="M60.4950 4.1300
L60.4950 3.6700
" />
<path d="M60.4950 4.4300
L60.4950 4.1300
" />
<path d="M60.4950 4.4300
L60.4950 4.8780
" />
<path d="M60.4950 4.5800
L60.1550 4.5800
" />
<path d="M60.4950 4.9300
L60.1550 4.9300
" />
<path d="M60.4950 6.5800
L60.1550 6.5800
" />
<path d="M60.4950 6.6800
L60.4950 4.8780
" />
<path d="M60.5350 6.3300
L60.5350 8.1300
" />
<path d="M60.5350 8.1300
L60.1150 8.1300
" />
<path d="M60.9150 6.3300
L60.5350 6.3300
" />
<path d="M60.9150 6.3300
L60.9150 8.1300
" />
<path d="M60.9150 6.6800
L61.3350 6.6800
" />
<path d="M60.9550 3.6700
L60.4950 3.6700
" />
<path d="M60.9550 3.6700
L60.9550 4.1300
" />
<path d="M60.9550 4.1300
L60.4950 4.1300
" />
<path d="M60.9550 4.1300
L60.9550 4.4300
" />
<path d="M60.9550 4.4300
L60.4950 4.4300
" />
<path d="M60.9550 4.4300
L60.4950 4.4300
" />
<path d="M60.9550 4.8780
L60.4950 4.8780
" />
<path d="M60.9550 4.8780
L60.9550 4.4300
" />
<path d="M60.9550 4.8780
L60.9550 6.6790
" />
<path d="M61.2950 4.1300
L61.2950 3.6700
" />
<path d="M61.2950 4.4300
L61.2950 4.1300
" />
<path d="M61.2950 4.4300
L61.2950 4.8780
" />
<path d="M61.2950 4.5800
L60.9550 4.5800
" />
<path d="M61.2950 4.9300
L60.9550 4.9300
" />
<path d="M61.2950 6.5800
L60.9550 6.5800
" />
<path d="M61.2950 6.6800
L61.2950 4.8780
" />
<path d="M61.3350 6.3300
L61.3350 8.1300
" />
<path d="M61.3350 8.1300
L60.9150 8.1300
" />
<path d="M61.7150 6.3300
L61.3350 6.3300
" />
<path d="M61.7150 6.3300
L61.7150 8.1300
" />
<path d="M61.7150 6.6800
L62.1350 6.6800
" />
<path d="M61.7550 3.6700
L61.2950 3.6700
" />
<path d="M61.7550 3.6700
L61.7550 4.1300
" />
<path d="M61.7550 4.1300
L61.2950 4.1300
" />
<path d="M61.7550 4.1300
L61.7550 4.4300
" />
<path d="M61.7550 4.4300
L61.2950 4.4300
" />
<path d="M61.7550 4.4300
L61.2950 4.4300
" />
<path d="M61.7550 4.8780
L61.2950 4.8780
" />
<path d="M61.7550 4.8780
L61.7550 4.4300
" />
<path d="M61.7550 4.8780
L61.7550 6.6790
" />
<path d="M62.0950 4.1300
L62.0950 3.6700
" />
<path d="M62.0950 4.4300
L62.0950 4.1300
" />
<path d="M62.0950 4.4300
L62.0950 4.8780
" />
<path d="M62.0950 4.5800
L61.7550 4.5800
" />
<path d="M62.0950 4.9300
L61.7550 4.9300
" />
<path d="M62.0950 6.5800
L61.7550 6.5800
" />
<path d="M62.0950 6.6800
L62.0950 4.8780
" />
<path d="M62.1350 6.3300
L62.1350 8.1300
" />
<path d="M62.1350 8.1300
L61.7150 8.1300
" />
<path d="M62.5150 6.3300
L62.1350 6.3300
" />
<path d="M62.5150 6.3300
L62.5150 8.1300
" />
<path d="M62.5150 6.6800
L62.9350 6.6800
" />
<path d="M62.5550 3.6700
L62.0950 3.6700
" />
<path d="M62.5550 3.6700
L62.5550 4.1300
" />
<path d="M62.5550 4.1300
L62.0950 4.1300
" />
<path d="M62.5550 4.1300
L62.5550 4.4300
" />
<path d="M62.5550 4.4300
L62.0950 4.4300
" />
<path d="M62.5550 4.4300
L62.0950 4.4300
" />
<path d="M62.5550 4.8780
L62.0950 4.8780
" />
<path d="M62.5550 4.8780
L62.5550 4.4300
" />
<path d="M62.5550 4.8780
L62.5550 6.6790
" />
<path d="M62.8950 4.1300
L62.8950 3.6700
" />
<path d="M62.8950 4.4300
L62.8950 4.1300
" />
<path d="M62.8950 4.4300
L62.8950 4.8780
" />
<path d="M62.8950 4.5800
L62.5550 4.5800
" />
<path d="M62.8950 4.9300
L62.5550 4.9300
" />
<path d="M62.8950 6.5800
L62.5550 6.5800
" />
<path d="M62.8950 6.6800
L62.8950 4.8780
" />
<path d="M62.9350 6.3300
L62.9350 8.1300
" />
<path d="M62.9350 8.1300
L62.5150 8.1300
" />
<path d="M63.3150 6.3300
L62.9350 6.3300
" />
<path d="M63.3150 6.3300
L63.3150 8.1300
" />
<path d="M63.3150 6.6800
L63.7350 6.6800
" />
<path d="M63.3550 3.6700
L62.8950 3.6700
" />
<path d="M63.3550 3.6700
L63.3550 4.1300
" />
<path d="M63.3550 4.1300
L62.8950 4.1300
" />
<path d="M63.3550 4.1300
L63.3550 4.4300
" />
<path d="M63.3550 4.4300
L62.8950 4.4300
" />
<path d="M63.3550 4.4300
L62.8950 4.4300
" />
<path d="M63.3550 4.8780
L62.8950 4.8780
" />
<path d="M63.3550 4.8780
L63.3550 4.4300
" />
<path d="M63.3550 4.8780
L63.3550 6.6790
" />
<path d="M63.6950 4.1300
L63.6950 3.6700
" />
<path d="M63.6950 4.4300
L63.6950 4.1300
" />
<path d="M63.6950 4.4300
L63.6950 4.8780
" />
<path d="M63.6950 4.5800
L63.3550 4.5800
" />
<path d="M63.6950 4.9300
L63.3550 4.9300
" />
<path d="M63.6950 6.5800
L63.3550 6.5800
" />
<path d="M63.6950 6.6800
L63.6950 4.8780
" />
<path d="M63.7350 6.3300
L63.7350 8.1300
" />
<path d="M63.7350 8.1300
L63.3150 8.1300
" />
<path d="M64.1150 6.3300
L63.7350 6.3300
" />
<path d="M64.1150 6.3300
L64.1150 8.1300
" />
<path d="M64.1150 6.6800
L64.5350 6.6800
" />
<path d="M64.1550 3.6700
L63.6950 3.6700
" />
<path d="M64.1550 3.6700
L64.1550 4.1300
" />
<path d="M64.1550 4.1300
L63.6950 4.1300
" />
<path d="M64.1550 4.1300
L64.1550 4.4300
" />
<path d="M64.1550 4.4300
L63.6950 4.4300
" />
<path d="M64.1550 4.4300
L63.6950 4.4300
" />
<path d="M64.1550 4.8780
L63.6950 4.8780
" />
<path d="M64.1550 4.8780
L64.1550 4.4300
" />
<path d="M64.1550 4.8780
L64.1550 6.6790
" />
<path d="M64.4950 4.1300
L64.4950 3.6700
" />
<path d="M64.4950 4.4300
L64.4950 4.1300
" />
<path d="M64.4950 4.4300
L64.4950 4.8780
" />
<path d="M64.4950 4.5800
L64.1550 4.5800
" />
<path d="M64.4950 4.9300
L64.1550 4.9300
" />
<path d="M64.4950 6.5800
L64.1550 6.5800
" />
<path d="M64.4950 6.6800
L64.4950 4.8780
" />
<path d="M64.5350 6.3300
L64.5350 8.1300
" />
<path d="M64.5350 8.1300
L64.1150 8.1300
" />
<path d="M64.9150 6.3300
L64.5350 6.3300
" />
<path d="M64.9150 6.3300
L64.9150 8.1300
" />
<path d="M64.9150 6.6800
L65.3350 6.6800
" />
<path d="M64.9550 3.6700
L64.4950 3.6700
" />
<path d="M64.9550 3.6700
L64.9550 4.1300
" />
<path d="M64.9550 4.1300
L64.4950 4.1300
" />
<path d="M64.9550 4.1300
L64.9550 4.4300
" />
<path d="M64.9550 4.4300
L64.4950 4.4300
" />
<path d="M64.9550 4.4300
L64.4950 4.4300
" />
<path d="M64.9550 4.8780
L64.4950 4.8780
" />
<path d="M64.9550 4.8780
L64.9550 4.4300
" />
<path d="M64.9550 4.8780
L64.9550 6.6790
" />
<path d="M65.2950 4.1300
L65.2950 3.6700
" />
<path d="M65.2950 4.4300
L65.2950 4.1300
" />
<path d="M65.2950 4.4300
L65.2950 4.8780
" />
<path d="M65.2950 4.5800
L64.9550 4.5800
" />
<path d="M65.2950 4.9300
L64.9550 4.9300
" />
<path d="M65.2950 6.5800
L64.9550 6.5800
" />
<path d="M65.2950 6.6800
L65.2950 4.8780
" />
<path d="M65.3350 6.3300
L65.3350 8.1300
" />
<path d="M65.3350 8.1300
L64.9150 8.1300
" />
<path d="M65.7150 6.3300
L65.3350 6.3300
" />
<path d="M65.7150 6.3300
L65.7150 8.1300
" />
<path d="M65.7150 6.6800
L66.1350 6.6800
" />
<path d="M65.7550 3.6700
L65.2950 3.6700
" />
<path d="M65.7550 3.6700
L65.7550 4.1300
" />
<path d="M65.7550 4.1300
L65.2950 4.1300
" />
<path d="M65.7550 4.1300
L65.7550 4.4300
" />
<path d="M65.7550 4.4300
L65.2950 4.4300
" />
<path d="M65.7550 4.4300
L65.2950 4.4300
" />
<path d="M65.7550 4.8780
L65.2950 4.8780
" />
<path d="M65.7550 4.8780
L65.7550 4.4300
" />
<path d="M65.7550 4.8780
L65.7550 6.6790
" />
<path d="M66.0950 4.1300
L66.0950 3.6700
" />
<path d="M66.0950 4.4300
L66.0950 4.1300
" />
<path d="M66.0950 4.4300
L66.0950 4.8780
" />
<path d="M66.0950 4.5800
L65.7550 4.5800
" />
<path d="M66.0950 4.9300
L65.7550 4.9300
" />
<path d="M66.0950 6.5800
L65.7550 6.5800
" />
<path d="M66.0950 6.6800
L66.0950 4.8780
" />
<path d="M66.1350 6.3300
L66.1350 8.1300
" />
<path d="M66.1350 8.1300
L65.7150 8.1300
" />
<path d="M66.5150 6.3300
L66.1350 6.3300
" />
<path d="M66.5150 6.3300
L66.5150 8.1300
" />
<path d="M66.5150 6.6800
L66.9350 6.6800
" />
<path d="M66.5550 3.6700
L66.0950 3.6700
" />
<path d="M66.5550 3.6700
L66.5550 4.1300
" />
<path d="M66.5550 4.1300
L66.0950 4.1300
" />
<path d="M66.5550 4.1300
L66.5550 4.4300
" />
<path d="M66.5550 4.4300
L66.0950 4.4300
" />
<path d="M66.5550 4.4300
L66.0950 4.4300
" />
<path d="M66.5550 4.8780
L66.0950 4.8780
" />
<path d="M66.5550 4.8780
L66.5550 4.4300
" />
<path d="M66.5550 4.8780
L66.5550 6.6790
" />
<path d="M66.8950 4.1300
L66.8950 3.6700
" />
<path d="M66.8950 4.4300
L66.8950 4.1300
" />
<path d="M66.8950 4.4300
L66.8950 4.8780
" />
<path d="M66.8950 4.5800
L66.5550 4.5800
" />
<path d="M66.8950 4.9300
L66.5550 4.9300
" />
<path d="M66.8950 6.5800
L66.5550 6.5800
" />
<path d="M66.8950 6.6800
L66.8950 4.8780
" />
<path d="M66.9350 6.3300
L66.9350 8.1300
" />
<path d="M66.9350 8.1300
L66.5150 8.1300
" />
<path d="M67.3150 6.3300
L66.9350 6.3300
" />
<path d="M67.3150 6.3300
L67.3150 6.6800
" />
<path d="M67.3150 6.6800
L67.4700 6.6800
" />
<path d="M67.3550 3.6700
L66.8950 3.6700
" />
<path d="M67.3550 3.6700
L67.3550 4.1300
" />
<path d="M67.3550 4.1300
L66.8950 4.1300
" />
<path d="M67.3550 4.1300
L67.3550 4.4300
" />
<path d="M67.3550 4.4300
L66.8950 4.4300
" />
<path d="M67.3550 4.4300
L66.8950 4.4300
" />
<path d="M67.3550 4.8780
L66.8950 4.8780
" />
<path d="M67.3550 4.8780
L67.3550 4.4300
" />
<path d="M67.3550 4.8780
L67.3550 6.6790
" />
<path d="M67.4700 6.6800
L67.9140 5.5800
" />
<path d="M67.5090 6.5800
L67.3550 6.5800
" />
<path d="M67.9140 5.5800
L68.2750 5.5800
" />
<path d="M68.1250 4.5800
L67.3550 4.5800
" />
<path d="M68.1250 4.5800
L68.1250 4.9310
" />
<path d="M68.1250 4.9300
L67.3550 4.9300
" />
<path d="M68.1250 4.9300
L68.1250 5.5800
" />
<path d="M68.2750 3.0300
L68.2750 3.2800
" />
<path d="M68.2750 3.2800
L68.2750 5.0300
" />
<path d="M68.2750 5.0300
L68.6250 5.0300
" />
<path d="M68.2750 5.5800
L68.2750 5.0300
" />
<path d="M68.6250 3.2800
L68.2750 3.2800
" />
<path d="M68.6250 3.2800
L68.6250 3.0300
" />
<path d="M68.6250 5.0300
L68.6250 3.2800
" />
<path d="M68.6250 5.0300
L68.6250 5.5730
" />
<path d="M68.6250 5.5730
L68.8250 5.5730
" />
<path d="M68.8250 5.5730
L69.7820 6.5300
" />
<path d="M69.7820 6.5300
L73.6750 6.5300
" />
<path d="M70.2750 1.3800
L72.0250 1.3800
" />
<path d="M71.2750 9.3800
L71.2750 12.3800
" />
<path d="M71.2750 12.3800
L3.7750 12.3800
" />
<path d="M72.0250 1.0300
L70.2750 1.0300
" />
<path d="M73.6750 3.0300
L73.6750 3.2800
" />
<path d="M73.6750 3.2800
L73.6750 5.0300
" />
<path d="M73.6750 5.0300
L74.0250 5.0300
" />
<path d="M73.6750 6.5300
L73.6750 5.0300
" />
<path d="M74.0250 3.2800
L73.6750 3.2800
" />
<path d="M74.0250 3.2800
L74.0250 3.0300
" />
<path d="M74.0250 5.0300
L74.0250 3.2800
" />
<path d="M74.0250 5.0300
L74.0250 9.3800
" />
<path d="M74.0250 9.3800
L71.2750 9.3800
" />
<path d="M3.0207 1.0241 A2.0224 2.0224 0.0 0 0 1.0192 3.0737" />
<path d="M3.0244 1.3800 A1.6665 1.6665 0.0 0 0 1.3750 3.0689" />
<path d="M6.7750 3.0313 A2.0224 2.0224 0.0 0 0 4.7254 1.0297" />
<path d="M6.4250 3.0280 A1.6676 1.6676 0.0 0 0 4.7325 1.3800" />
<path d="M70.2766 1.0241 A2.0224 2.0224 0.0 0 0 68.2750 3.0737" />
<path d="M70.2744 1.3799 A1.6666 1.6666 0.0 0 0 68.6250 3.0689" />
<path d="M74.0250 3.0313 A2.0224 2.0224 0.0 0 0 71.9754 1.0297" />
<path d="M73.6751 3.0280 A1.6677 1.6677 0.0 0 0 71.9825 1.3800" />
<circle cx="3.8950" cy="4.0350" r="2.3700" /> 
<circle cx="71.1450" cy="4.0350" r="2.3700" /> 
</g> 
</svg>
