<?xml version="1.0" standalone="no"?>
 <!DOCTYPE svg PUBLIC "-//W3C//DTD SVG 1.1//EN" 
 "http://www.w3.org/Graphics/SVG/1.1/DTD/svg11.dtd"> 
<svg
  xmlns:svg="http://www.w3.org/2000/svg"
  xmlns="http://www.w3.org/2000/svg"
  xmlns:xlink="http://www.w3.org/1999/xlink"
  version="1.1"
  width="8.7376mm" height="6.7310mm" viewBox="0.0000 0.0000 8.7376 6.7310">
<title>SVG Image created as outline.svg date 2025/04/04 10:06:12 </title>
  <desc>Image generated by PCBNEW </desc>
<g style="fill:#000000; fill-opacity:1.0000;stroke:#000000; stroke-opacity:1.0000;
stroke-linecap:round; stroke-linejoin:round;"
 transform="translate(0 0) scale(1 1)">
</g>
<g style="fill:none; 
stroke:#000000; stroke-width:0.0200; stroke-opacity:1; 
stroke-linecap:round; stroke-linejoin:round;">
<path d="M0.3750 0.6700
L0.3750 1.3800
" />
<path d="M0.3750 0.6700
L0.3960 0.6700
" />
<path d="M0.3750 1.3800
L0.3960 1.3800
" />
<path d="M0.3750 5.1700
L0.3960 5.1700
" />
<path d="M0.3750 5.8800
L0.3750 5.1700
" />
<path d="M0.3750 5.8800
L0.3960 5.8800
" />
<path d="M0.3960 0.6700
L0.7198 0.6700
" />
<path d="M0.3960 1.3800
L0.7198 1.3800
" />
<path d="M0.3960 5.1700
L0.7198 5.1700
" />
<path d="M0.3960 5.8800
L0.7198 5.8800
" />
<path d="M0.7198 0.6700
L0.7250 0.6700
" />
<path d="M0.7198 1.3800
L0.7250 1.3800
" />
<path d="M0.7198 5.1700
L0.7250 5.1700
" />
<path d="M0.7198 5.8800
L0.7250 5.8800
" />
<path d="M0.7250 0.6700
L0.7250 1.3800
" />
<path d="M0.7250 0.6700
L0.8422 0.6700
" />
<path d="M0.7250 1.3800
L0.8422 1.3800
" />
<path d="M0.7250 5.1700
L0.8422 5.1700
" />
<path d="M0.7250 5.8800
L0.7250 5.1700
" />
<path d="M0.7250 5.8800
L0.8422 5.8800
" />
</g>
<g style="fill:#000000; fill-opacity:1.0000; stroke:none;">
<circle cx="0.8422" cy="0.6700" r="0.0100" /> 
</g>
<g style="fill:none; 
stroke:#000000; stroke-width:0.0200; stroke-opacity:1; 
stroke-linecap:round; stroke-linejoin:round;">
<path d="M0.8422 0.6700
L1.1250 0.6700
" />
</g>
<g style="fill:#000000; fill-opacity:1.0000; stroke:none;">
<circle cx="0.8422" cy="1.3800" r="0.0100" /> 
</g>
<g style="fill:none; 
stroke:#000000; stroke-width:0.0200; stroke-opacity:1; 
stroke-linecap:round; stroke-linejoin:round;">
<path d="M0.8422 1.3800
L1.1250 1.3800
" />
</g>
<g style="fill:#000000; fill-opacity:1.0000; stroke:none;">
<circle cx="0.8422" cy="5.1700" r="0.0100" /> 
</g>
<g style="fill:none; 
stroke:#000000; stroke-width:0.0200; stroke-opacity:1; 
stroke-linecap:round; stroke-linejoin:round;">
<path d="M0.8422 5.1700
L1.1250 5.1700
" />
</g>
<g style="fill:#000000; fill-opacity:1.0000; stroke:none;">
<circle cx="0.8422" cy="5.8800" r="0.0100" /> 
</g>
<g style="fill:none; 
stroke:#000000; stroke-width:0.0200; stroke-opacity:1; 
stroke-linecap:round; stroke-linejoin:round;">
<path d="M0.8422 5.8800
L1.1250 5.8800
" />
<path d="M1.1250 0.6700
L1.2800 0.6700
" />
<path d="M1.1250 1.3800
L1.2800 1.3800
" />
<path d="M1.1250 5.1700
L1.2800 5.1700
" />
<path d="M1.1250 5.8800
L1.2800 5.8800
" />
<path d="M1.2800 0.5800
L1.2800 5.9700
" />
<path d="M1.2800 0.5800
L1.2800 5.9700
" />
<path d="M1.2800 5.9700
L1.2804 5.9849
" />
<path d="M1.2804 0.5651
L1.2800 0.5800
" />
<path d="M1.2804 5.9849
L1.2815 5.9997
" />
<path d="M1.2815 0.5503
L1.2804 0.5651
" />
<path d="M1.2815 5.9997
L1.2833 6.0143
" />
<path d="M1.2833 0.5357
L1.2815 0.5503
" />
<path d="M1.2833 6.0143
L1.2858 6.0288
" />
<path d="M1.2858 0.5212
L1.2833 0.5357
" />
<path d="M1.2858 6.0288
L1.2890 6.0431
" />
<path d="M1.2890 0.5069
L1.2858 0.5212
" />
<path d="M1.2890 6.0431
L1.2930 6.0573
" />
<path d="M1.2930 0.4927
L1.2890 0.5069
" />
<path d="M1.2930 6.0573
L1.2976 6.0712
" />
<path d="M1.2976 0.4788
L1.2930 0.4927
" />
<path d="M1.2976 6.0712
L1.3028 6.0848
" />
<path d="M1.3028 0.4652
L1.2976 0.4788
" />
<path d="M1.3028 6.0848
L1.3088 6.0982
" />
<path d="M1.3088 0.4518
L1.3028 0.4652
" />
<path d="M1.3088 6.0982
L1.3153 6.1113
" />
<path d="M1.3153 0.4387
L1.3088 0.4518
" />
<path d="M1.3153 6.1113
L1.3226 6.1240
" />
<path d="M1.3226 0.4260
L1.3153 0.4387
" />
<path d="M1.3226 6.1240
L1.3304 6.1364
" />
<path d="M1.3304 0.4136
L1.3226 0.4260
" />
<path d="M1.3304 6.1364
L1.3389 6.1485
" />
<path d="M1.3389 0.4015
L1.3304 0.4136
" />
<path d="M1.3389 6.1485
L1.3479 6.1601
" />
<path d="M1.3479 0.3899
L1.3389 0.4015
" />
<path d="M1.3479 6.1601
L1.3576 6.1714
" />
<path d="M1.3576 0.3786
L1.3479 0.3899
" />
<path d="M1.3576 6.1714
L1.3679 6.1821
" />
<path d="M1.3679 0.3679
L1.3576 0.3786
" />
</g>
<g style="fill:#000000; fill-opacity:1.0000; stroke:none;">
<circle cx="1.3679" cy="0.3679" r="0.0100" /> 
<circle cx="1.3679" cy="6.1821" r="0.0100" /> 
</g>
<g style="fill:none; 
stroke:#000000; stroke-width:0.0200; stroke-opacity:1; 
stroke-linecap:round; stroke-linejoin:round;">
<path d="M1.3679 6.1821
L1.3786 6.1924
" />
<path d="M1.3786 0.3576
L1.3679 0.3679
" />
<path d="M1.3786 6.1924
L1.3899 6.2021
" />
<path d="M1.3899 0.3479
L1.3786 0.3576
" />
<path d="M1.3899 6.2021
L1.4015 6.2111
" />
<path d="M1.4015 0.3389
L1.3899 0.3479
" />
<path d="M1.4015 6.2111
L1.4136 6.2196
" />
<path d="M1.4136 0.3304
L1.4015 0.3389
" />
<path d="M1.4136 6.2196
L1.4260 6.2274
" />
<path d="M1.4260 0.3226
L1.4136 0.3304
" />
<path d="M1.4260 6.2274
L1.4387 6.2347
" />
<path d="M1.4387 0.3153
L1.4260 0.3226
" />
<path d="M1.4387 6.2347
L1.4518 6.2412
" />
<path d="M1.4518 0.3088
L1.4387 0.3153
" />
<path d="M1.4518 6.2412
L1.4652 6.2472
" />
<path d="M1.4652 0.3028
L1.4518 0.3088
" />
<path d="M1.4652 6.2472
L1.4788 6.2524
" />
<path d="M1.4788 0.2976
L1.4652 0.3028
" />
<path d="M1.4788 6.2524
L1.4928 6.2570
" />
<path d="M1.4927 0.2930
L1.4788 0.2976
" />
<path d="M1.4928 6.2570
L1.5069 6.2610
" />
<path d="M1.5069 0.2890
L1.4927 0.2930
" />
<path d="M1.5069 6.2610
L1.5212 6.2642
" />
<path d="M1.5212 0.2858
L1.5069 0.2890
" />
<path d="M1.5212 6.2642
L1.5357 6.2667
" />
<path d="M1.5357 0.2833
L1.5212 0.2858
" />
<path d="M1.5357 6.2667
L1.5503 6.2685
" />
<path d="M1.5503 0.2815
L1.5357 0.2833
" />
<path d="M1.5503 6.2685
L1.5651 6.2696
" />
<path d="M1.5651 0.2804
L1.5503 0.2815
" />
<path d="M1.5651 6.2696
L1.5800 6.2700
" />
<path d="M1.5800 0.2800
L1.5651 0.2804
" />
<path d="M1.5800 6.2700
L6.9700 6.2700
" />
<path d="M1.5800 6.2700
L6.9700 6.2700
" />
<path d="M1.8250 1.2750
L1.8259 1.2459
" />
<path d="M1.8250 5.2750
L1.8260 5.2450
" />
<path d="M1.8252 5.2900
L1.8250 5.2750
" />
<path d="M1.8259 1.2459
L1.8288 1.2169
" />
<path d="M1.8259 1.3041
L1.8250 1.2750
" />
<path d="M1.8260 5.2450
L1.8290 5.2154
" />
<path d="M1.8260 5.3050
L1.8252 5.2900
" />
<path d="M1.8272 5.3198
L1.8260 5.3050
" />
<path d="M1.8288 1.2169
L1.8335 1.1880
" />
<path d="M1.8288 1.3331
L1.8259 1.3041
" />
<path d="M1.8290 5.2154
L1.8338 5.1862
" />
<path d="M1.8290 5.3346
L1.8272 5.3198
" />
<path d="M1.8312 5.3493
L1.8290 5.3346
" />
<path d="M1.8335 1.1880
L1.8401 1.1595
" />
<path d="M1.8335 1.3620
L1.8288 1.3331
" />
<path d="M1.8338 5.1862
L1.8406 5.1576
" />
<path d="M1.8338 5.3638
L1.8312 5.3493
" />
<path d="M1.8370 5.3782
L1.8338 5.3638
" />
<path d="M1.8401 1.1595
L1.8485 1.1313
" />
<path d="M1.8401 1.3905
L1.8335 1.3620
" />
<path d="M1.8406 5.1576
L1.8491 5.1296
" />
<path d="M1.8406 5.3924
L1.8370 5.3782
" />
<path d="M1.8446 5.4065
L1.8406 5.3924
" />
<path d="M1.8485 1.1313
L1.8589 1.1036
" />
<path d="M1.8485 1.4187
L1.8401 1.3905
" />
<path d="M1.8491 5.1296
L1.8595 5.1022
" />
<path d="M1.8491 5.4204
L1.8446 5.4065
" />
<path d="M1.8541 5.4342
L1.8491 5.4204
" />
<path d="M1.8589 1.1036
L1.8712 1.0765
" />
<path d="M1.8589 1.4464
L1.8485 1.4187
" />
<path d="M1.8595 5.1022
L1.8715 5.0757
" />
<path d="M1.8595 5.4478
L1.8541 5.4342
" />
<path d="M1.8653 5.4611
L1.8595 5.4478
" />
<path d="M1.8712 1.0765
L1.8853 1.0500
" />
<path d="M1.8712 1.4735
L1.8589 1.4464
" />
<path d="M1.8715 5.0757
L1.8853 5.0500
" />
<path d="M1.8715 5.4743
L1.8653 5.4611
" />
<path d="M1.8782 5.4873
L1.8715 5.4743
" />
</g>
<g style="fill:#000000; fill-opacity:1.0000; stroke:none;">
<circle cx="1.8853" cy="1.0500" r="0.0100" /> 
</g>
<g style="fill:none; 
stroke:#000000; stroke-width:0.0200; stroke-opacity:1; 
stroke-linecap:round; stroke-linejoin:round;">
<path d="M1.8853 1.0500
L1.8930 1.0371
" />
<path d="M1.8853 1.5000
L1.8712 1.4735
" />
</g>
<g style="fill:#000000; fill-opacity:1.0000; stroke:none;">
<circle cx="1.8853" cy="1.5000" r="0.0100" /> 
</g>
<g style="fill:none; 
stroke:#000000; stroke-width:0.0200; stroke-opacity:1; 
stroke-linecap:round; stroke-linejoin:round;">
<path d="M1.8853 5.0500
L1.9007 5.0253
" />
<path d="M1.8853 5.5000
L1.8782 5.4873
" />
<path d="M1.8928 5.5125
L1.8853 5.5000
" />
<path d="M1.8930 1.0371
L1.9011 1.0245
" />
<path d="M1.9007 5.0253
L1.9176 5.0015
" />
<path d="M1.9007 5.5247
L1.8928 5.5125
" />
<path d="M1.9011 1.0245
L1.9096 1.0123
" />
<path d="M1.9011 1.5255
L1.8853 1.5000
" />
<path d="M1.9089 5.5367
L1.9007 5.5247
" />
<path d="M1.9096 1.0123
L1.9185 1.0004
" />
<path d="M1.9176 5.0015
L1.9361 4.9789
" />
<path d="M1.9176 5.5485
L1.9089 5.5367
" />
<path d="M1.9185 1.0004
L1.9277 0.9888
" />
<path d="M1.9185 1.5496
L1.9011 1.5255
" />
<path d="M1.9267 5.5599
L1.9176 5.5485
" />
<path d="M1.9277 0.9888
L1.9373 0.9775
" />
<path d="M1.9361 4.9789
L1.9561 4.9575
" />
<path d="M1.9361 5.5711
L1.9267 5.5599
" />
<path d="M1.9373 0.9775
L1.9472 0.9666
" />
<path d="M1.9373 1.5725
L1.9185 1.5496
" />
<path d="M1.9459 5.5820
L1.9361 5.5711
" />
<path d="M1.9472 0.9666
L1.9575 0.9561
" />
<path d="M1.9561 4.9575
L1.9775 4.9373
" />
<path d="M1.9561 5.5925
L1.9459 5.5820
" />
<path d="M1.9575 0.9561
L1.9680 0.9459
" />
<path d="M1.9575 1.5939
L1.9373 1.5725
" />
<path d="M1.9666 5.6028
L1.9561 5.5925
" />
<path d="M1.9680 0.9459
L1.9789 0.9361
" />
<path d="M1.9775 4.9373
L2.0004 4.9185
" />
<path d="M1.9775 5.6127
L1.9666 5.6028
" />
<path d="M1.9789 0.9361
L1.9901 0.9267
" />
<path d="M1.9789 1.6139
L1.9575 1.5939
" />
<path d="M1.9888 5.6223
L1.9775 5.6127
" />
<path d="M1.9901 0.9267
L2.0015 0.9176
" />
<path d="M2.0004 4.9185
L2.0245 4.9011
" />
<path d="M2.0004 5.6315
L1.9888 5.6223
" />
<path d="M2.0015 0.9176
L2.0133 0.9089
" />
<path d="M2.0015 1.6324
L1.9789 1.6139
" />
<path d="M2.0123 5.6404
L2.0004 5.6315
" />
<path d="M2.0133 0.9089
L2.0253 0.9007
" />
<path d="M2.0245 4.9011
L2.0500 4.8853
" />
<path d="M2.0245 5.6489
L2.0123 5.6404
" />
<path d="M2.0253 0.9007
L2.0375 0.8928
" />
<path d="M2.0253 1.6493
L2.0015 1.6324
" />
<path d="M2.0371 5.6570
L2.0245 5.6489
" />
<path d="M2.0375 0.8928
L2.0500 0.8853
" />
<path d="M2.0500 0.8853
L2.0627 0.8782
" />
<path d="M2.0500 1.6647
L2.0253 1.6493
" />
</g>
<g style="fill:#000000; fill-opacity:1.0000; stroke:none;">
<circle cx="2.0500" cy="4.8853" r="0.0100" /> 
</g>
<g style="fill:none; 
stroke:#000000; stroke-width:0.0200; stroke-opacity:1; 
stroke-linecap:round; stroke-linejoin:round;">
<path d="M2.0500 4.8853
L2.0765 4.8712
" />
<path d="M2.0500 5.6647
L2.0371 5.6570
" />
</g>
<g style="fill:#000000; fill-opacity:1.0000; stroke:none;">
<circle cx="2.0500" cy="5.6647" r="0.0100" /> 
</g>
<g style="fill:none; 
stroke:#000000; stroke-width:0.0200; stroke-opacity:1; 
stroke-linecap:round; stroke-linejoin:round;">
<path d="M2.0627 0.8782
L2.0757 0.8715
" />
<path d="M2.0757 0.8715
L2.0889 0.8653
" />
<path d="M2.0757 1.6785
L2.0500 1.6647
" />
<path d="M2.0765 4.8712
L2.1036 4.8589
" />
<path d="M2.0765 5.6788
L2.0500 5.6647
" />
<path d="M2.0889 0.8653
L2.1022 0.8595
" />
<path d="M2.1022 0.8595
L2.1158 0.8541
" />
<path d="M2.1022 1.6905
L2.0757 1.6785
" />
<path d="M2.1036 4.8589
L2.1313 4.8485
" />
<path d="M2.1036 5.6911
L2.0765 5.6788
" />
<path d="M2.1158 0.8541
L2.1296 0.8491
" />
<path d="M2.1296 0.8491
L2.1435 0.8446
" />
<path d="M2.1296 1.7009
L2.1022 1.6905
" />
<path d="M2.1313 4.8485
L2.1595 4.8401
" />
<path d="M2.1313 5.7014
L2.1036 5.6911
" />
<path d="M2.1435 0.8446
L2.1576 0.8406
" />
<path d="M2.1576 0.8406
L2.1718 0.8370
" />
<path d="M2.1576 1.7094
L2.1296 1.7009
" />
<path d="M2.1595 4.8401
L2.1880 4.8335
" />
<path d="M2.1595 5.7099
L2.1313 5.7014
" />
<path d="M2.1718 0.8370
L2.1862 0.8338
" />
<path d="M2.1862 0.8338
L2.2007 0.8312
" />
<path d="M2.1862 1.7162
L2.1576 1.7094
" />
<path d="M2.1880 4.8335
L2.2169 4.8288
" />
<path d="M2.1880 5.7165
L2.1595 5.7099
" />
<path d="M2.2007 0.8312
L2.2154 0.8290
" />
<path d="M2.2154 0.8290
L2.2302 0.8272
" />
<path d="M2.2154 1.7210
L2.1862 1.7162
" />
<path d="M2.2169 4.8288
L2.2459 4.8259
" />
<path d="M2.2169 5.7212
L2.1880 5.7165
" />
<path d="M2.2302 0.8272
L2.2450 0.8260
" />
<path d="M2.2450 0.8260
L2.2600 0.8252
" />
<path d="M2.2450 1.7240
L2.2154 1.7210
" />
<path d="M2.2459 4.8259
L2.2750 4.8250
" />
<path d="M2.2459 5.7241
L2.2169 5.7212
" />
<path d="M2.2600 0.8252
L2.2750 0.8250
" />
<path d="M2.2750 0.8250
L2.3050 0.8260
" />
<path d="M2.2750 1.7250
L2.2450 1.7240
" />
<path d="M2.2750 4.8250
L2.3041 4.8259
" />
<path d="M2.2750 5.7250
L2.2459 5.7241
" />
<path d="M2.2900 1.7248
L2.2750 1.7250
" />
<path d="M2.3041 4.8259
L2.3331 4.8288
" />
<path d="M2.3041 5.7241
L2.2750 5.7250
" />
<path d="M2.3050 0.8260
L2.3346 0.8290
" />
<path d="M2.3050 1.7240
L2.2900 1.7248
" />
<path d="M2.3198 1.7228
L2.3050 1.7240
" />
<path d="M2.3331 4.8288
L2.3620 4.8335
" />
<path d="M2.3331 5.7212
L2.3041 5.7241
" />
<path d="M2.3346 0.8290
L2.3638 0.8338
" />
<path d="M2.3346 1.7210
L2.3198 1.7228
" />
<path d="M2.3493 1.7188
L2.3346 1.7210
" />
<path d="M2.3620 4.8335
L2.3905 4.8401
" />
<path d="M2.3620 5.7165
L2.3331 5.7212
" />
<path d="M2.3638 0.8338
L2.3924 0.8406
" />
<path d="M2.3638 1.7162
L2.3493 1.7188
" />
<path d="M2.3782 1.7130
L2.3638 1.7162
" />
<path d="M2.3905 4.8401
L2.4187 4.8485
" />
<path d="M2.3905 5.7099
L2.3620 5.7165
" />
<path d="M2.3924 0.8406
L2.4204 0.8491
" />
<path d="M2.3924 1.7094
L2.3782 1.7130
" />
<path d="M2.4065 1.7054
L2.3924 1.7094
" />
<path d="M2.4187 4.8485
L2.4464 4.8589
" />
<path d="M2.4187 5.7014
L2.3905 5.7099
" />
<path d="M2.4204 0.8491
L2.4478 0.8595
" />
<path d="M2.4204 1.7009
L2.4065 1.7054
" />
<path d="M2.4342 1.6959
L2.4204 1.7009
" />
<path d="M2.4464 4.8589
L2.4735 4.8712
" />
<path d="M2.4464 5.6911
L2.4187 5.7014
" />
<path d="M2.4478 0.8595
L2.4743 0.8715
" />
<path d="M2.4478 1.6905
L2.4342 1.6959
" />
<path d="M2.4611 1.6847
L2.4478 1.6905
" />
<path d="M2.4735 4.8712
L2.5000 4.8853
" />
<path d="M2.4735 5.6788
L2.4464 5.6911
" />
<path d="M2.4743 0.8715
L2.5000 0.8853
" />
<path d="M2.4743 1.6785
L2.4611 1.6847
" />
<path d="M2.4873 1.6718
L2.4743 1.6785
" />
<path d="M2.5000 0.8853
L2.5247 0.9007
" />
<path d="M2.5000 1.6647
L2.4873 1.6718
" />
</g>
<g style="fill:#000000; fill-opacity:1.0000; stroke:none;">
<circle cx="2.5000" cy="4.8853" r="0.0100" /> 
</g>
<g style="fill:none; 
stroke:#000000; stroke-width:0.0200; stroke-opacity:1; 
stroke-linecap:round; stroke-linejoin:round;">
<path d="M2.5000 4.8853
L2.5129 4.8930
" />
<path d="M2.5000 5.6647
L2.4735 5.6788
" />
</g>
<g style="fill:#000000; fill-opacity:1.0000; stroke:none;">
<circle cx="2.5000" cy="5.6647" r="0.0100" /> 
</g>
<g style="fill:none; 
stroke:#000000; stroke-width:0.0200; stroke-opacity:1; 
stroke-linecap:round; stroke-linejoin:round;">
<path d="M2.5125 1.6572
L2.5000 1.6647
" />
<path d="M2.5129 4.8930
L2.5255 4.9011
" />
<path d="M2.5200 3.2750
L2.5223 3.1847
" />
<path d="M2.5223 3.1847
L2.5291 3.0956
" />
<path d="M2.5223 3.3652
L2.5200 3.2750
" />
<path d="M2.5247 0.9007
L2.5485 0.9176
" />
<path d="M2.5247 1.6493
L2.5125 1.6572
" />
<path d="M2.5255 4.9011
L2.5377 4.9096
" />
<path d="M2.5255 5.6489
L2.5000 5.6647
" />
<path d="M2.5291 3.0956
L2.5403 3.0079
" />
<path d="M2.5291 3.4543
L2.5223 3.3652
" />
<path d="M2.5367 1.6411
L2.5247 1.6493
" />
<path d="M2.5377 4.9096
L2.5496 4.9185
" />
<path d="M2.5403 3.0079
L2.5558 2.9215
" />
<path d="M2.5403 3.5422
L2.5291 3.4543
" />
<path d="M2.5485 0.9176
L2.5711 0.9361
" />
<path d="M2.5485 1.6324
L2.5367 1.6411
" />
<path d="M2.5496 4.9185
L2.5612 4.9277
" />
<path d="M2.5496 5.6315
L2.5255 5.6489
" />
<path d="M2.5558 2.9215
L2.5754 2.8366
" />
<path d="M2.5558 3.6285
L2.5403 3.5422
" />
<path d="M2.5599 1.6233
L2.5485 1.6324
" />
<path d="M2.5612 4.9277
L2.5725 4.9373
" />
<path d="M2.5711 0.9361
L2.5925 0.9561
" />
<path d="M2.5711 1.6139
L2.5599 1.6233
" />
<path d="M2.5725 4.9373
L2.5834 4.9472
" />
<path d="M2.5725 5.6127
L2.5496 5.6315
" />
<path d="M2.5754 2.8366
L2.5990 2.7534
" />
<path d="M2.5754 3.7134
L2.5558 3.6285
" />
<path d="M2.5820 1.6041
L2.5711 1.6139
" />
<path d="M2.5834 4.9472
L2.5939 4.9575
" />
<path d="M2.5925 0.9561
L2.6127 0.9775
" />
<path d="M2.5925 1.5939
L2.5820 1.6041
" />
<path d="M2.5939 4.9575
L2.6041 4.9680
" />
<path d="M2.5939 5.5925
L2.5725 5.6127
" />
<path d="M2.5990 2.7534
L2.6266 2.6719
" />
<path d="M2.5991 3.7967
L2.5754 3.7134
" />
<path d="M2.6028 1.5834
L2.5925 1.5939
" />
<path d="M2.6041 4.9680
L2.6139 4.9789
" />
<path d="M2.6127 0.9775
L2.6315 1.0004
" />
<path d="M2.6127 1.5725
L2.6028 1.5834
" />
<path d="M2.6139 4.9789
L2.6233 4.9901
" />
<path d="M2.6139 5.5711
L2.5939 5.5925
" />
<path d="M2.6223 1.5612
L2.6127 1.5725
" />
<path d="M2.6233 4.9901
L2.6324 5.0015
" />
<path d="M2.6266 2.6719
L2.6581 2.5922
" />
<path d="M2.6267 3.8782
L2.5991 3.7967
" />
<path d="M2.6315 1.0004
L2.6489 1.0245
" />
<path d="M2.6315 1.5496
L2.6223 1.5612
" />
<path d="M2.6324 5.0015
L2.6411 5.0133
" />
<path d="M2.6324 5.5485
L2.6139 5.5711
" />
<path d="M2.6404 1.5377
L2.6315 1.5496
" />
<path d="M2.6411 5.0133
L2.6493 5.0253
" />
<path d="M2.6489 1.0245
L2.6647 1.0500
" />
<path d="M2.6489 1.5255
L2.6404 1.5377
" />
<path d="M2.6493 5.0253
L2.6572 5.0375
" />
<path d="M2.6493 5.5247
L2.6324 5.5485
" />
<path d="M2.6570 1.5129
L2.6489 1.5255
" />
<path d="M2.6572 5.0375
L2.6647 5.0500
" />
<path d="M2.6581 2.5922
L2.6932 2.5145
" />
<path d="M2.6581 3.9579
L2.6267 3.8782
" />
</g>
<g style="fill:#000000; fill-opacity:1.0000; stroke:none;">
<circle cx="2.6647" cy="1.0500" r="0.0100" /> 
</g>
<g style="fill:none; 
stroke:#000000; stroke-width:0.0200; stroke-opacity:1; 
stroke-linecap:round; stroke-linejoin:round;">
<path d="M2.6647 1.0500
L2.6788 1.0765
" />
<path d="M2.6647 1.5000
L2.6570 1.5129
" />
</g>
<g style="fill:#000000; fill-opacity:1.0000; stroke:none;">
<circle cx="2.6647" cy="1.5000" r="0.0100" /> 
</g>
<g style="fill:none; 
stroke:#000000; stroke-width:0.0200; stroke-opacity:1; 
stroke-linecap:round; stroke-linejoin:round;">
<path d="M2.6647 5.0500
L2.6718 5.0627
" />
<path d="M2.6647 5.5000
L2.6493 5.5247
" />
<path d="M2.6718 5.0627
L2.6785 5.0757
" />
<path d="M2.6785 5.0757
L2.6847 5.0889
" />
<path d="M2.6785 5.4743
L2.6647 5.5000
" />
<path d="M2.6788 1.0765
L2.6911 1.1036
" />
<path d="M2.6788 1.4735
L2.6647 1.5000
" />
<path d="M2.6847 5.0889
L2.6905 5.1022
" />
<path d="M2.6905 5.1022
L2.6959 5.1158
" />
<path d="M2.6905 5.4478
L2.6785 5.4743
" />
<path d="M2.6911 1.1036
L2.7014 1.1313
" />
<path d="M2.6911 1.4464
L2.6788 1.4735
" />
<path d="M2.6932 2.5145
L2.7320 2.4389
" />
<path d="M2.6933 4.0356
L2.6581 3.9579
" />
<path d="M2.6959 5.1158
L2.7009 5.1296
" />
<path d="M2.7009 5.1296
L2.7054 5.1435
" />
<path d="M2.7009 5.4204
L2.6905 5.4478
" />
<path d="M2.7014 1.1313
L2.7099 1.1595
" />
<path d="M2.7014 1.4187
L2.6911 1.4464
" />
<path d="M2.7054 5.1435
L2.7094 5.1576
" />
<path d="M2.7094 5.1576
L2.7130 5.1718
" />
<path d="M2.7094 5.3924
L2.7009 5.4204
" />
<path d="M2.7099 1.1595
L2.7165 1.1880
" />
<path d="M2.7099 1.3905
L2.7014 1.4187
" />
<path d="M2.7130 5.1718
L2.7162 5.1862
" />
<path d="M2.7162 5.1862
L2.7188 5.2007
" />
<path d="M2.7162 5.3638
L2.7094 5.3924
" />
<path d="M2.7165 1.1880
L2.7212 1.2169
" />
<path d="M2.7165 1.3620
L2.7099 1.3905
" />
<path d="M2.7188 5.2007
L2.7210 5.2154
" />
<path d="M2.7210 5.2154
L2.7228 5.2302
" />
<path d="M2.7210 5.3346
L2.7162 5.3638
" />
<path d="M2.7212 1.2169
L2.7241 1.2459
" />
<path d="M2.7212 1.3331
L2.7165 1.3620
" />
<path d="M2.7228 5.2302
L2.7240 5.2450
" />
<path d="M2.7240 5.2450
L2.7247 5.2600
" />
<path d="M2.7240 5.3050
L2.7210 5.3346
" />
<path d="M2.7241 1.2459
L2.7250 1.2750
" />
<path d="M2.7241 1.3041
L2.7212 1.3331
" />
<path d="M2.7247 5.2600
L2.7250 5.2750
" />
<path d="M2.7250 1.2750
L2.7241 1.3041
" />
<path d="M2.7250 5.2750
L2.7240 5.3050
" />
<path d="M2.7320 2.4389
L2.7743 2.3654
" />
<path d="M2.7321 4.1112
L2.6933 4.0356
" />
<path d="M2.7743 2.3654
L2.8199 2.2942
" />
<path d="M2.7743 4.1847
L2.7321 4.1112
" />
<path d="M2.8199 2.2942
L2.8689 2.2254
" />
<path d="M2.8200 4.2559
L2.7743 4.1847
" />
<path d="M2.8689 2.2254
L2.9210 2.1592
" />
<path d="M2.8689 4.3246
L2.8200 4.2559
" />
<path d="M2.9210 2.1592
L2.9761 2.0955
" />
<path d="M2.9210 4.3909
L2.8689 4.3246
" />
<path d="M2.9761 2.0955
L3.0342 2.0346
" />
<path d="M2.9762 4.4546
L2.9210 4.3909
" />
<path d="M3.0342 2.0346
L3.0952 1.9765
" />
<path d="M3.0343 4.5155
L2.9762 4.4546
" />
<path d="M3.0952 1.9765
L3.1588 1.9214
" />
<path d="M3.0953 4.5736
L3.0343 4.5155
" />
<path d="M3.1588 1.9214
L3.2251 1.8693
" />
<path d="M3.1589 4.6287
L3.0953 4.5736
" />
<path d="M3.2251 1.8693
L3.2939 1.8204
" />
<path d="M3.2252 4.6808
L3.1589 4.6287
" />
<path d="M3.2939 1.8204
L3.3651 1.7748
" />
<path d="M3.2940 4.7297
L3.2252 4.6808
" />
<path d="M3.3651 1.7748
L3.4386 1.7325
" />
<path d="M3.3652 4.7753
L3.2940 4.7297
" />
<path d="M3.4386 1.7325
L3.5142 1.6938
" />
<path d="M3.4387 4.8175
L3.3652 4.7753
" />
<path d="M3.5142 1.6938
L3.5920 1.6587
" />
<path d="M3.5144 4.8563
L3.4387 4.8175
" />
<path d="M3.5920 1.6587
L3.6717 1.6272
" />
<path d="M3.5921 4.8914
L3.5144 4.8563
" />
<path d="M3.6717 1.6272
L3.7532 1.5997
" />
<path d="M3.6718 4.9228
L3.5921 4.8914
" />
<path d="M3.7532 1.5997
L3.8364 1.5760
" />
<path d="M3.7533 4.9504
L3.6718 4.9228
" />
<path d="M3.8364 1.5760
L3.9213 1.5564
" />
<path d="M3.8366 4.9740
L3.7533 4.9504
" />
<path d="M3.9213 1.5564
L4.0077 1.5410
" />
<path d="M3.9215 4.9936
L3.8366 4.9740
" />
<path d="M4.0077 1.5410
L4.0955 1.5298
" />
<path d="M4.0079 5.0090
L3.9215 4.9936
" />
<path d="M4.0955 1.5298
L4.1846 1.5231
" />
<path d="M4.0957 5.0202
L4.0079 5.0090
" />
<path d="M4.1846 1.5231
L4.2749 1.5208
" />
<path d="M4.1848 5.0269
L4.0957 5.0202
" />
</g>
<g style="fill:#000000; fill-opacity:1.0000; stroke:none;">
<circle cx="4.2749" cy="1.5208" r="0.0100" /> 
</g>
<g style="fill:none; 
stroke:#000000; stroke-width:0.0200; stroke-opacity:1; 
stroke-linecap:round; stroke-linejoin:round;">
<path d="M4.2749 1.5208
L4.3652 1.5231
" />
<path d="M4.2751 5.0292
L4.1848 5.0269
" />
</g>
<g style="fill:#000000; fill-opacity:1.0000; stroke:none;">
<circle cx="4.2751" cy="5.0292" r="0.0100" /> 
</g>
<g style="fill:none; 
stroke:#000000; stroke-width:0.0200; stroke-opacity:1; 
stroke-linecap:round; stroke-linejoin:round;">
<path d="M4.3652 1.5231
L4.4543 1.5298
" />
<path d="M4.3654 5.0269
L4.2751 5.0292
" />
<path d="M4.4543 1.5298
L4.5421 1.5410
" />
<path d="M4.4545 5.0202
L4.3654 5.0269
" />
<path d="M4.5421 1.5410
L4.6285 1.5564
" />
<path d="M4.5423 5.0090
L4.4545 5.0202
" />
<path d="M4.6285 1.5564
L4.7134 1.5760
" />
<path d="M4.6287 4.9936
L4.5423 5.0090
" />
<path d="M4.7134 1.5760
L4.7967 1.5996
" />
<path d="M4.7136 4.9740
L4.6287 4.9936
" />
<path d="M4.7967 1.5996
L4.8782 1.6272
" />
<path d="M4.7968 4.9503
L4.7136 4.9740
" />
<path d="M4.8782 1.6272
L4.9579 1.6586
" />
<path d="M4.8783 4.9228
L4.7968 4.9503
" />
<path d="M4.9579 1.6586
L5.0356 1.6937
" />
<path d="M4.9580 4.8913
L4.8783 4.9228
" />
<path d="M5.0356 1.6937
L5.1113 1.7325
" />
<path d="M5.0358 4.8562
L4.9580 4.8913
" />
<path d="M5.1113 1.7325
L5.1848 1.7747
" />
<path d="M5.1114 4.8175
L5.0358 4.8562
" />
<path d="M5.1848 1.7747
L5.2560 1.8203
" />
<path d="M5.1849 4.7752
L5.1114 4.8175
" />
<path d="M5.2560 1.8203
L5.3248 1.8692
" />
<path d="M5.2561 4.7296
L5.1849 4.7752
" />
<path d="M5.3248 1.8692
L5.3911 1.9213
" />
<path d="M5.3249 4.6807
L5.2561 4.7296
" />
<path d="M5.3911 1.9213
L5.4547 1.9764
" />
<path d="M5.3912 4.6286
L5.3249 4.6807
" />
<path d="M5.4547 1.9764
L5.5157 2.0345
" />
<path d="M5.4548 4.5735
L5.3912 4.6286
" />
<path d="M5.5157 2.0345
L5.5738 2.0954
" />
<path d="M5.5158 4.5154
L5.4548 4.5735
" />
<path d="M5.5738 2.0954
L5.6290 2.1591
" />
<path d="M5.5739 4.4545
L5.5158 4.5154
" />
<path d="M5.6290 2.1591
L5.6811 2.2254
" />
<path d="M5.6290 4.3908
L5.5739 4.4545
" />
<path d="M5.6811 2.2254
L5.7300 2.2941
" />
<path d="M5.6811 4.3246
L5.6290 4.3908
" />
<path d="M5.7300 2.2941
L5.7757 2.3653
" />
<path d="M5.7301 4.2558
L5.6811 4.3246
" />
<path d="M5.7757 2.3653
L5.8179 2.4388
" />
<path d="M5.7757 4.1846
L5.7301 4.2558
" />
<path d="M5.8179 2.4388
L5.8567 2.5144
" />
<path d="M5.8180 4.1111
L5.7757 4.1846
" />
<path d="M5.8250 1.2750
L5.8260 1.2450
" />
<path d="M5.8250 5.2750
L5.8259 5.2459
" />
<path d="M5.8252 1.2900
L5.8250 1.2750
" />
<path d="M5.8259 5.2459
L5.8288 5.2169
" />
<path d="M5.8259 5.3041
L5.8250 5.2750
" />
<path d="M5.8260 1.2450
L5.8290 1.2154
" />
<path d="M5.8260 1.3050
L5.8252 1.2900
" />
<path d="M5.8272 1.3198
L5.8260 1.3050
" />
<path d="M5.8288 5.2169
L5.8335 5.1880
" />
<path d="M5.8288 5.3331
L5.8259 5.3041
" />
<path d="M5.8290 1.2154
L5.8338 1.1862
" />
<path d="M5.8290 1.3346
L5.8272 1.3198
" />
<path d="M5.8312 1.3493
L5.8290 1.3346
" />
<path d="M5.8335 5.1880
L5.8401 5.1595
" />
<path d="M5.8335 5.3620
L5.8288 5.3331
" />
<path d="M5.8338 1.1862
L5.8406 1.1576
" />
<path d="M5.8338 1.3638
L5.8312 1.3493
" />
<path d="M5.8370 1.3782
L5.8338 1.3638
" />
<path d="M5.8401 5.1595
L5.8485 5.1313
" />
<path d="M5.8401 5.3905
L5.8335 5.3620
" />
<path d="M5.8406 1.1576
L5.8491 1.1296
" />
<path d="M5.8406 1.3924
L5.8370 1.3782
" />
<path d="M5.8446 1.4065
L5.8406 1.3924
" />
<path d="M5.8485 5.1313
L5.8589 5.1036
" />
<path d="M5.8485 5.4187
L5.8401 5.3905
" />
<path d="M5.8491 1.1296
L5.8595 1.1022
" />
<path d="M5.8491 1.4204
L5.8446 1.4065
" />
<path d="M5.8541 1.4342
L5.8491 1.4204
" />
<path d="M5.8567 2.5144
L5.8919 2.5921
" />
<path d="M5.8568 4.0355
L5.8180 4.1111
" />
<path d="M5.8589 5.1036
L5.8712 5.0765
" />
<path d="M5.8589 5.4464
L5.8485 5.4187
" />
<path d="M5.8595 1.1022
L5.8715 1.0757
" />
<path d="M5.8595 1.4478
L5.8541 1.4342
" />
<path d="M5.8653 1.4611
L5.8595 1.4478
" />
<path d="M5.8712 5.0765
L5.8853 5.0500
" />
<path d="M5.8712 5.4735
L5.8589 5.4464
" />
<path d="M5.8715 1.0757
L5.8853 1.0500
" />
<path d="M5.8715 1.4743
L5.8653 1.4611
" />
<path d="M5.8782 1.4873
L5.8715 1.4743
" />
<path d="M5.8853 1.0500
L5.9007 1.0253
" />
<path d="M5.8853 1.5000
L5.8782 1.4873
" />
</g>
<g style="fill:#000000; fill-opacity:1.0000; stroke:none;">
<circle cx="5.8853" cy="5.0500" r="0.0100" /> 
</g>
<g style="fill:none; 
stroke:#000000; stroke-width:0.0200; stroke-opacity:1; 
stroke-linecap:round; stroke-linejoin:round;">
<path d="M5.8853 5.0500
L5.8930 5.0371
" />
<path d="M5.8853 5.5000
L5.8712 5.4735
" />
</g>
<g style="fill:#000000; fill-opacity:1.0000; stroke:none;">
<circle cx="5.8853" cy="5.5000" r="0.0100" /> 
</g>
<g style="fill:none; 
stroke:#000000; stroke-width:0.0200; stroke-opacity:1; 
stroke-linecap:round; stroke-linejoin:round;">
<path d="M5.8919 2.5921
L5.9233 2.6718
" />
<path d="M5.8919 3.9578
L5.8568 4.0355
" />
<path d="M5.8928 1.5125
L5.8853 1.5000
" />
<path d="M5.8930 5.0371
L5.9011 5.0245
" />
<path d="M5.9007 1.0253
L5.9176 1.0015
" />
<path d="M5.9007 1.5247
L5.8928 1.5125
" />
<path d="M5.9011 5.0245
L5.9096 5.0123
" />
<path d="M5.9011 5.5255
L5.8853 5.5000
" />
<path d="M5.9089 1.5367
L5.9007 1.5247
" />
<path d="M5.9096 5.0123
L5.9185 5.0004
" />
<path d="M5.9176 1.0015
L5.9361 0.9789
" />
<path d="M5.9176 1.5485
L5.9089 1.5367
" />
<path d="M5.9185 5.0004
L5.9277 4.9888
" />
<path d="M5.9185 5.5496
L5.9011 5.5255
" />
<path d="M5.9233 2.6718
L5.9509 2.7533
" />
<path d="M5.9234 3.8781
L5.8919 3.9578
" />
<path d="M5.9267 1.5599
L5.9176 1.5485
" />
<path d="M5.9277 4.9888
L5.9373 4.9775
" />
<path d="M5.9361 0.9789
L5.9561 0.9575
" />
<path d="M5.9361 1.5711
L5.9267 1.5599
" />
<path d="M5.9373 4.9775
L5.9472 4.9666
" />
<path d="M5.9373 5.5725
L5.9185 5.5496
" />
<path d="M5.9459 1.5820
L5.9361 1.5711
" />
<path d="M5.9472 4.9666
L5.9575 4.9561
" />
<path d="M5.9509 2.7533
L5.9746 2.8366
" />
<path d="M5.9510 3.7966
L5.9234 3.8781
" />
<path d="M5.9561 0.9575
L5.9775 0.9373
" />
<path d="M5.9561 1.5925
L5.9459 1.5820
" />
<path d="M5.9575 4.9561
L5.9680 4.9459
" />
<path d="M5.9575 5.5939
L5.9373 5.5725
" />
<path d="M5.9666 1.6028
L5.9561 1.5925
" />
<path d="M5.9680 4.9459
L5.9789 4.9361
" />
<path d="M5.9746 2.8366
L5.9942 2.9215
" />
<path d="M5.9746 3.7134
L5.9510 3.7966
" />
<path d="M5.9775 0.9373
L6.0004 0.9185
" />
<path d="M5.9775 1.6127
L5.9666 1.6028
" />
<path d="M5.9789 4.9361
L5.9901 4.9267
" />
<path d="M5.9789 5.6139
L5.9575 5.5939
" />
<path d="M5.9888 1.6223
L5.9775 1.6127
" />
<path d="M5.9901 4.9267
L6.0015 4.9176
" />
<path d="M5.9942 2.9215
L6.0097 3.0078
" />
<path d="M5.9942 3.6285
L5.9746 3.7134
" />
<path d="M6.0004 0.9185
L6.0245 0.9011
" />
<path d="M6.0004 1.6315
L5.9888 1.6223
" />
<path d="M6.0015 4.9176
L6.0133 4.9089
" />
<path d="M6.0015 5.6324
L5.9789 5.6139
" />
<path d="M6.0097 3.0078
L6.0209 3.0957
" />
<path d="M6.0097 3.5421
L5.9942 3.6285
" />
<path d="M6.0123 1.6404
L6.0004 1.6315
" />
<path d="M6.0133 4.9089
L6.0253 4.9007
" />
<path d="M6.0209 3.0957
L6.0277 3.1848
" />
<path d="M6.0209 3.4544
L6.0097 3.5421
" />
<path d="M6.0245 0.9011
L6.0500 0.8853
" />
<path d="M6.0245 1.6489
L6.0123 1.6404
" />
<path d="M6.0253 4.9007
L6.0375 4.8928
" />
<path d="M6.0253 5.6493
L6.0015 5.6324
" />
<path d="M6.0277 3.1848
L6.0300 3.2750
" />
<path d="M6.0277 3.3653
L6.0209 3.4544
" />
<path d="M6.0300 3.2750
L6.0277 3.3653
" />
<path d="M6.0371 1.6570
L6.0245 1.6489
" />
<path d="M6.0375 4.8928
L6.0500 4.8853
" />
</g>
<g style="fill:#000000; fill-opacity:1.0000; stroke:none;">
<circle cx="6.0500" cy="0.8853" r="0.0100" /> 
</g>
<g style="fill:none; 
stroke:#000000; stroke-width:0.0200; stroke-opacity:1; 
stroke-linecap:round; stroke-linejoin:round;">
<path d="M6.0500 0.8853
L6.0765 0.8712
" />
<path d="M6.0500 1.6647
L6.0371 1.6570
" />
</g>
<g style="fill:#000000; fill-opacity:1.0000; stroke:none;">
<circle cx="6.0500" cy="1.6647" r="0.0100" /> 
</g>
<g style="fill:none; 
stroke:#000000; stroke-width:0.0200; stroke-opacity:1; 
stroke-linecap:round; stroke-linejoin:round;">
<path d="M6.0500 4.8853
L6.0627 4.8782
" />
<path d="M6.0500 5.6647
L6.0253 5.6493
" />
<path d="M6.0627 4.8782
L6.0757 4.8715
" />
<path d="M6.0757 4.8715
L6.0889 4.8653
" />
<path d="M6.0757 5.6785
L6.0500 5.6647
" />
<path d="M6.0765 0.8712
L6.1036 0.8589
" />
<path d="M6.0765 1.6788
L6.0500 1.6647
" />
<path d="M6.0889 4.8653
L6.1022 4.8595
" />
<path d="M6.1022 4.8595
L6.1158 4.8541
" />
<path d="M6.1022 5.6905
L6.0757 5.6785
" />
<path d="M6.1036 0.8589
L6.1313 0.8485
" />
<path d="M6.1036 1.6911
L6.0765 1.6788
" />
<path d="M6.1158 4.8541
L6.1296 4.8491
" />
<path d="M6.1296 4.8491
L6.1435 4.8446
" />
<path d="M6.1296 5.7009
L6.1022 5.6905
" />
<path d="M6.1313 0.8485
L6.1595 0.8401
" />
<path d="M6.1313 1.7014
L6.1036 1.6911
" />
<path d="M6.1435 4.8446
L6.1576 4.8406
" />
<path d="M6.1576 4.8406
L6.1718 4.8370
" />
<path d="M6.1576 5.7094
L6.1296 5.7009
" />
<path d="M6.1595 0.8401
L6.1880 0.8335
" />
<path d="M6.1595 1.7099
L6.1313 1.7014
" />
<path d="M6.1718 4.8370
L6.1862 4.8338
" />
<path d="M6.1862 4.8338
L6.2007 4.8312
" />
<path d="M6.1862 5.7162
L6.1576 5.7094
" />
<path d="M6.1880 0.8335
L6.2169 0.8288
" />
<path d="M6.1880 1.7165
L6.1595 1.7099
" />
<path d="M6.2007 4.8312
L6.2154 4.8290
" />
<path d="M6.2154 4.8290
L6.2302 4.8272
" />
<path d="M6.2154 5.7210
L6.1862 5.7162
" />
<path d="M6.2169 0.8288
L6.2459 0.8259
" />
<path d="M6.2169 1.7212
L6.1880 1.7165
" />
<path d="M6.2302 4.8272
L6.2450 4.8260
" />
<path d="M6.2450 4.8260
L6.2600 4.8252
" />
<path d="M6.2450 5.7240
L6.2154 5.7210
" />
<path d="M6.2459 0.8259
L6.2750 0.8250
" />
<path d="M6.2459 1.7241
L6.2169 1.7212
" />
<path d="M6.2600 4.8252
L6.2750 4.8250
" />
<path d="M6.2750 0.8250
L6.3041 0.8259
" />
<path d="M6.2750 1.7250
L6.2459 1.7241
" />
<path d="M6.2750 4.8250
L6.3050 4.8260
" />
<path d="M6.2750 5.7250
L6.2450 5.7240
" />
<path d="M6.2900 5.7247
L6.2750 5.7250
" />
<path d="M6.3041 0.8259
L6.3331 0.8288
" />
<path d="M6.3041 1.7241
L6.2750 1.7250
" />
<path d="M6.3050 4.8260
L6.3346 4.8290
" />
<path d="M6.3050 5.7240
L6.2900 5.7247
" />
<path d="M6.3198 5.7228
L6.3050 5.7240
" />
<path d="M6.3331 0.8288
L6.3620 0.8335
" />
<path d="M6.3331 1.7212
L6.3041 1.7241
" />
<path d="M6.3346 4.8290
L6.3638 4.8338
" />
<path d="M6.3346 5.7210
L6.3198 5.7228
" />
<path d="M6.3493 5.7188
L6.3346 5.7210
" />
<path d="M6.3620 0.8335
L6.3905 0.8401
" />
<path d="M6.3620 1.7165
L6.3331 1.7212
" />
<path d="M6.3638 4.8338
L6.3924 4.8406
" />
<path d="M6.3638 5.7162
L6.3493 5.7188
" />
<path d="M6.3782 5.7130
L6.3638 5.7162
" />
<path d="M6.3905 0.8401
L6.4187 0.8485
" />
<path d="M6.3905 1.7099
L6.3620 1.7165
" />
<path d="M6.3924 4.8406
L6.4204 4.8491
" />
<path d="M6.3924 5.7094
L6.3782 5.7130
" />
<path d="M6.4065 5.7054
L6.3924 5.7094
" />
<path d="M6.4187 0.8485
L6.4464 0.8589
" />
<path d="M6.4187 1.7014
L6.3905 1.7099
" />
<path d="M6.4204 4.8491
L6.4478 4.8595
" />
<path d="M6.4204 5.7009
L6.4065 5.7054
" />
<path d="M6.4342 5.6959
L6.4204 5.7009
" />
<path d="M6.4464 0.8589
L6.4735 0.8712
" />
<path d="M6.4464 1.6911
L6.4187 1.7014
" />
<path d="M6.4478 4.8595
L6.4743 4.8715
" />
<path d="M6.4478 5.6905
L6.4342 5.6959
" />
<path d="M6.4611 5.6847
L6.4478 5.6905
" />
<path d="M6.4735 0.8712
L6.5000 0.8853
" />
<path d="M6.4735 1.6788
L6.4464 1.6911
" />
<path d="M6.4743 4.8715
L6.5000 4.8853
" />
<path d="M6.4743 5.6785
L6.4611 5.6847
" />
<path d="M6.4873 5.6718
L6.4743 5.6785
" />
</g>
<g style="fill:#000000; fill-opacity:1.0000; stroke:none;">
<circle cx="6.5000" cy="0.8853" r="0.0100" /> 
</g>
<g style="fill:none; 
stroke:#000000; stroke-width:0.0200; stroke-opacity:1; 
stroke-linecap:round; stroke-linejoin:round;">
<path d="M6.5000 0.8853
L6.5129 0.8930
" />
<path d="M6.5000 1.6647
L6.4735 1.6788
" />
</g>
<g style="fill:#000000; fill-opacity:1.0000; stroke:none;">
<circle cx="6.5000" cy="1.6647" r="0.0100" /> 
</g>
<g style="fill:none; 
stroke:#000000; stroke-width:0.0200; stroke-opacity:1; 
stroke-linecap:round; stroke-linejoin:round;">
<path d="M6.5000 4.8853
L6.5247 4.9007
" />
<path d="M6.5000 5.6647
L6.4873 5.6718
" />
<path d="M6.5125 5.6572
L6.5000 5.6647
" />
<path d="M6.5129 0.8930
L6.5255 0.9011
" />
<path d="M6.5247 4.9007
L6.5485 4.9176
" />
<path d="M6.5247 5.6493
L6.5125 5.6572
" />
<path d="M6.5255 0.9011
L6.5377 0.9096
" />
<path d="M6.5255 1.6489
L6.5000 1.6647
" />
<path d="M6.5367 5.6411
L6.5247 5.6493
" />
<path d="M6.5377 0.9096
L6.5496 0.9185
" />
<path d="M6.5485 4.9176
L6.5711 4.9361
" />
<path d="M6.5485 5.6324
L6.5367 5.6411
" />
<path d="M6.5496 0.9185
L6.5612 0.9277
" />
<path d="M6.5496 1.6315
L6.5255 1.6489
" />
<path d="M6.5599 5.6233
L6.5485 5.6324
" />
<path d="M6.5612 0.9277
L6.5725 0.9373
" />
<path d="M6.5711 4.9361
L6.5925 4.9561
" />
<path d="M6.5711 5.6139
L6.5599 5.6233
" />
<path d="M6.5725 0.9373
L6.5834 0.9472
" />
<path d="M6.5725 1.6127
L6.5496 1.6315
" />
<path d="M6.5820 5.6041
L6.5711 5.6139
" />
<path d="M6.5834 0.9472
L6.5939 0.9575
" />
<path d="M6.5925 4.9561
L6.6127 4.9775
" />
<path d="M6.5925 5.5939
L6.5820 5.6041
" />
<path d="M6.5939 0.9575
L6.6041 0.9680
" />
<path d="M6.5939 1.5925
L6.5725 1.6127
" />
<path d="M6.6028 5.5834
L6.5925 5.5939
" />
<path d="M6.6041 0.9680
L6.6139 0.9789
" />
<path d="M6.6127 4.9775
L6.6315 5.0004
" />
<path d="M6.6127 5.5725
L6.6028 5.5834
" />
<path d="M6.6139 0.9789
L6.6233 0.9901
" />
<path d="M6.6139 1.5711
L6.5939 1.5925
" />
<path d="M6.6223 5.5612
L6.6127 5.5725
" />
<path d="M6.6233 0.9901
L6.6324 1.0015
" />
<path d="M6.6315 5.0004
L6.6489 5.0245
" />
<path d="M6.6315 5.5496
L6.6223 5.5612
" />
<path d="M6.6324 1.0015
L6.6411 1.0133
" />
<path d="M6.6324 1.5485
L6.6139 1.5711
" />
<path d="M6.6404 5.5377
L6.6315 5.5496
" />
<path d="M6.6411 1.0133
L6.6493 1.0253
" />
<path d="M6.6489 5.0245
L6.6647 5.0500
" />
<path d="M6.6489 5.5255
L6.6404 5.5377
" />
<path d="M6.6493 1.0253
L6.6572 1.0375
" />
<path d="M6.6493 1.5247
L6.6324 1.5485
" />
<path d="M6.6570 5.5129
L6.6489 5.5255
" />
<path d="M6.6572 1.0375
L6.6647 1.0500
" />
<path d="M6.6647 1.0500
L6.6718 1.0627
" />
<path d="M6.6647 1.5000
L6.6493 1.5247
" />
</g>
<g style="fill:#000000; fill-opacity:1.0000; stroke:none;">
<circle cx="6.6647" cy="5.0500" r="0.0100" /> 
</g>
<g style="fill:none; 
stroke:#000000; stroke-width:0.0200; stroke-opacity:1; 
stroke-linecap:round; stroke-linejoin:round;">
<path d="M6.6647 5.0500
L6.6788 5.0765
" />
<path d="M6.6647 5.5000
L6.6570 5.5129
" />
</g>
<g style="fill:#000000; fill-opacity:1.0000; stroke:none;">
<circle cx="6.6647" cy="5.5000" r="0.0100" /> 
</g>
<g style="fill:none; 
stroke:#000000; stroke-width:0.0200; stroke-opacity:1; 
stroke-linecap:round; stroke-linejoin:round;">
<path d="M6.6718 1.0627
L6.6785 1.0757
" />
<path d="M6.6785 1.0757
L6.6847 1.0889
" />
<path d="M6.6785 1.4743
L6.6647 1.5000
" />
<path d="M6.6788 5.0765
L6.6911 5.1036
" />
<path d="M6.6788 5.4735
L6.6647 5.5000
" />
<path d="M6.6847 1.0889
L6.6905 1.1022
" />
<path d="M6.6905 1.1022
L6.6959 1.1158
" />
<path d="M6.6905 1.4478
L6.6785 1.4743
" />
<path d="M6.6911 5.1036
L6.7014 5.1313
" />
<path d="M6.6911 5.4464
L6.6788 5.4735
" />
<path d="M6.6959 1.1158
L6.7009 1.1296
" />
<path d="M6.7009 1.1296
L6.7054 1.1435
" />
<path d="M6.7009 1.4204
L6.6905 1.4478
" />
<path d="M6.7014 5.1313
L6.7099 5.1595
" />
<path d="M6.7014 5.4187
L6.6911 5.4464
" />
<path d="M6.7054 1.1435
L6.7094 1.1576
" />
<path d="M6.7094 1.1576
L6.7130 1.1718
" />
<path d="M6.7094 1.3924
L6.7009 1.4204
" />
<path d="M6.7099 5.1595
L6.7165 5.1880
" />
<path d="M6.7099 5.3905
L6.7014 5.4187
" />
<path d="M6.7130 1.1718
L6.7162 1.1862
" />
<path d="M6.7162 1.1862
L6.7188 1.2007
" />
<path d="M6.7162 1.3638
L6.7094 1.3924
" />
<path d="M6.7165 5.1880
L6.7212 5.2169
" />
<path d="M6.7165 5.3620
L6.7099 5.3905
" />
<path d="M6.7188 1.2007
L6.7210 1.2154
" />
<path d="M6.7210 1.2154
L6.7228 1.2302
" />
<path d="M6.7210 1.3346
L6.7162 1.3638
" />
<path d="M6.7212 5.2169
L6.7241 5.2459
" />
<path d="M6.7212 5.3331
L6.7165 5.3620
" />
<path d="M6.7228 1.2302
L6.7240 1.2450
" />
<path d="M6.7240 1.2450
L6.7247 1.2600
" />
<path d="M6.7240 1.3050
L6.7210 1.3346
" />
<path d="M6.7241 5.2459
L6.7250 5.2750
" />
<path d="M6.7241 5.3041
L6.7212 5.3331
" />
<path d="M6.7247 1.2600
L6.7250 1.2750
" />
<path d="M6.7250 1.2750
L6.7240 1.3050
" />
<path d="M6.7250 5.2750
L6.7241 5.3041
" />
<path d="M6.9700 0.2800
L1.5800 0.2800
" />
<path d="M6.9700 0.2800
L1.5800 0.2800
" />
<path d="M6.9700 6.2700
L6.9849 6.2696
" />
<path d="M6.9849 0.2804
L6.9700 0.2800
" />
<path d="M6.9849 6.2696
L6.9997 6.2685
" />
<path d="M6.9997 0.2815
L6.9849 0.2804
" />
<path d="M6.9997 6.2685
L7.0143 6.2667
" />
<path d="M7.0143 0.2833
L6.9997 0.2815
" />
<path d="M7.0143 6.2667
L7.0288 6.2642
" />
<path d="M7.0288 0.2858
L7.0143 0.2833
" />
<path d="M7.0288 6.2642
L7.0431 6.2610
" />
<path d="M7.0431 0.2890
L7.0288 0.2858
" />
<path d="M7.0431 6.2610
L7.0573 6.2570
" />
<path d="M7.0573 0.2930
L7.0431 0.2890
" />
<path d="M7.0573 6.2570
L7.0712 6.2524
" />
<path d="M7.0712 0.2976
L7.0573 0.2930
" />
<path d="M7.0712 6.2524
L7.0848 6.2472
" />
<path d="M7.0848 0.3028
L7.0712 0.2976
" />
<path d="M7.0848 6.2472
L7.0982 6.2412
" />
<path d="M7.0982 0.3088
L7.0848 0.3028
" />
<path d="M7.0982 6.2412
L7.1113 6.2347
" />
<path d="M7.1113 0.3153
L7.0982 0.3088
" />
<path d="M7.1113 6.2347
L7.1240 6.2274
" />
<path d="M7.1240 0.3226
L7.1113 0.3153
" />
<path d="M7.1240 6.2274
L7.1364 6.2196
" />
<path d="M7.1364 0.3304
L7.1240 0.3226
" />
<path d="M7.1364 6.2196
L7.1485 6.2111
" />
<path d="M7.1485 0.3389
L7.1364 0.3304
" />
<path d="M7.1485 6.2111
L7.1601 6.2021
" />
<path d="M7.1601 0.3479
L7.1485 0.3389
" />
<path d="M7.1601 6.2021
L7.1714 6.1924
" />
<path d="M7.1714 0.3576
L7.1601 0.3479
" />
<path d="M7.1714 6.1924
L7.1821 6.1821
" />
<path d="M7.1821 0.3679
L7.1714 0.3576
" />
</g>
<g style="fill:#000000; fill-opacity:1.0000; stroke:none;">
<circle cx="7.1821" cy="0.3679" r="0.0100" /> 
<circle cx="7.1821" cy="6.1821" r="0.0100" /> 
</g>
<g style="fill:none; 
stroke:#000000; stroke-width:0.0200; stroke-opacity:1; 
stroke-linecap:round; stroke-linejoin:round;">
<path d="M7.1821 6.1821
L7.1924 6.1714
" />
<path d="M7.1924 0.3786
L7.1821 0.3679
" />
<path d="M7.1924 6.1714
L7.2021 6.1601
" />
<path d="M7.2021 0.3899
L7.1924 0.3786
" />
<path d="M7.2021 6.1601
L7.2111 6.1485
" />
<path d="M7.2111 0.4015
L7.2021 0.3899
" />
<path d="M7.2111 6.1485
L7.2196 6.1364
" />
<path d="M7.2196 0.4136
L7.2111 0.4015
" />
<path d="M7.2196 6.1364
L7.2274 6.1240
" />
<path d="M7.2274 0.4260
L7.2196 0.4136
" />
<path d="M7.2274 6.1240
L7.2347 6.1113
" />
<path d="M7.2347 0.4387
L7.2274 0.4260
" />
<path d="M7.2347 6.1113
L7.2412 6.0982
" />
<path d="M7.2412 0.4518
L7.2347 0.4387
" />
<path d="M7.2412 6.0982
L7.2472 6.0848
" />
<path d="M7.2472 0.4652
L7.2412 0.4518
" />
<path d="M7.2472 6.0848
L7.2524 6.0712
" />
<path d="M7.2524 0.4788
L7.2472 0.4652
" />
<path d="M7.2524 6.0712
L7.2570 6.0573
" />
<path d="M7.2570 0.4927
L7.2524 0.4788
" />
<path d="M7.2570 6.0573
L7.2610 6.0431
" />
<path d="M7.2610 0.5069
L7.2570 0.4927
" />
<path d="M7.2610 6.0431
L7.2642 6.0288
" />
<path d="M7.2642 0.5212
L7.2610 0.5069
" />
<path d="M7.2642 6.0288
L7.2667 6.0143
" />
<path d="M7.2667 0.5357
L7.2642 0.5212
" />
<path d="M7.2667 6.0143
L7.2685 5.9997
" />
<path d="M7.2685 0.5503
L7.2667 0.5357
" />
<path d="M7.2685 5.9997
L7.2696 5.9849
" />
<path d="M7.2696 0.5651
L7.2685 0.5503
" />
<path d="M7.2696 5.9849
L7.2700 5.9700
" />
<path d="M7.2700 0.5800
L7.2696 0.5651
" />
<path d="M7.2700 0.6700
L7.4250 0.6700
" />
<path d="M7.2700 1.3800
L7.4250 1.3800
" />
<path d="M7.2700 5.1700
L7.4250 5.1700
" />
<path d="M7.2700 5.8800
L7.4250 5.8800
" />
<path d="M7.2700 5.9700
L7.2700 0.5800
" />
<path d="M7.2700 5.9700
L7.2700 0.5800
" />
<path d="M7.4250 0.6700
L7.7078 0.6700
" />
<path d="M7.4250 1.3800
L7.7078 1.3800
" />
<path d="M7.4250 5.1700
L7.7078 5.1700
" />
<path d="M7.4250 5.8800
L7.7078 5.8800
" />
</g>
<g style="fill:#000000; fill-opacity:1.0000; stroke:none;">
<circle cx="7.7078" cy="0.6700" r="0.0100" /> 
</g>
<g style="fill:none; 
stroke:#000000; stroke-width:0.0200; stroke-opacity:1; 
stroke-linecap:round; stroke-linejoin:round;">
<path d="M7.7078 0.6700
L7.8250 0.6700
" />
</g>
<g style="fill:#000000; fill-opacity:1.0000; stroke:none;">
<circle cx="7.7078" cy="1.3800" r="0.0100" /> 
</g>
<g style="fill:none; 
stroke:#000000; stroke-width:0.0200; stroke-opacity:1; 
stroke-linecap:round; stroke-linejoin:round;">
<path d="M7.7078 1.3800
L7.8250 1.3800
" />
</g>
<g style="fill:#000000; fill-opacity:1.0000; stroke:none;">
<circle cx="7.7078" cy="5.1700" r="0.0100" /> 
</g>
<g style="fill:none; 
stroke:#000000; stroke-width:0.0200; stroke-opacity:1; 
stroke-linecap:round; stroke-linejoin:round;">
<path d="M7.7078 5.1700
L7.8250 5.1700
" />
</g>
<g style="fill:#000000; fill-opacity:1.0000; stroke:none;">
<circle cx="7.7078" cy="5.8800" r="0.0100" /> 
</g>
<g style="fill:none; 
stroke:#000000; stroke-width:0.0200; stroke-opacity:1; 
stroke-linecap:round; stroke-linejoin:round;">
<path d="M7.7078 5.8800
L7.8250 5.8800
" />
<path d="M7.8250 0.6700
L7.8250 1.3800
" />
<path d="M7.8250 0.6700
L7.8302 0.6700
" />
<path d="M7.8250 1.3800
L7.8302 1.3800
" />
<path d="M7.8250 5.1700
L7.8302 5.1700
" />
<path d="M7.8250 5.8800
L7.8250 5.1700
" />
<path d="M7.8250 5.8800
L7.8302 5.8800
" />
<path d="M7.8302 0.6700
L8.1540 0.6700
" />
<path d="M7.8302 1.3800
L8.1540 1.3800
" />
<path d="M7.8302 5.1700
L8.1540 5.1700
" />
<path d="M7.8302 5.8800
L8.1540 5.8800
" />
<path d="M8.1540 0.6700
L8.1750 0.6700
" />
<path d="M8.1540 1.3800
L8.1750 1.3800
" />
<path d="M8.1540 5.1700
L8.1750 5.1700
" />
<path d="M8.1540 5.8800
L8.1750 5.8800
" />
<path d="M8.1750 0.6700
L8.1750 1.3800
" />
<path d="M8.1750 5.8800
L8.1750 5.1700
" />
</g> 
</svg>
