<?xml version="1.0" standalone="no"?>
 <!DOCTYPE svg PUBLIC "-//W3C//DTD SVG 1.1//EN" 
 "http://www.w3.org/Graphics/SVG/1.1/DTD/svg11.dtd"> 
<svg
  xmlns:svg="http://www.w3.org/2000/svg"
  xmlns="http://www.w3.org/2000/svg"
  xmlns:xlink="http://www.w3.org/1999/xlink"
  version="1.1"
  width="4.6736mm" height="4.6736mm" viewBox="0.0000 0.0000 4.6736 4.6736">
<title>SVG Image created as outline.svg date 2025/04/04 10:06:34 </title>
  <desc>Image generated by PCBNEW </desc>
<g style="fill:#000000; fill-opacity:1.0000;stroke:#000000; stroke-opacity:1.0000;
stroke-linecap:round; stroke-linejoin:round;"
 transform="translate(0 0) scale(1 1)">
</g>
<g style="fill:none; 
stroke:#000000; stroke-width:0.0200; stroke-opacity:1; 
stroke-linecap:round; stroke-linejoin:round;">
<path d="M0.3000 0.3000
L0.3000 4.3900
" />
<path d="M0.3000 4.3900
L4.3900 4.3900
" />
<path d="M0.6070 1.3450
L0.6110 1.3730
" />
<path d="M0.6110 1.3170
L0.6070 1.3450
" />
<path d="M0.6110 1.3730
L0.6220 1.3980
" />
<path d="M0.6220 1.2920
L0.6110 1.3170
" />
<path d="M0.6220 1.3980
L0.6390 1.4200
" />
<path d="M0.6390 1.2700
L0.6220 1.2920
" />
<path d="M0.6390 1.4200
L0.6620 1.4360
" />
<path d="M0.6620 1.2540
L0.6390 1.2700
" />
<path d="M0.6620 1.4360
L0.6880 1.4450
" />
<path d="M0.6880 1.2450
L0.6620 1.2540
" />
<path d="M0.6880 1.4450
L0.7160 1.4470
" />
<path d="M0.7160 1.2430
L0.6880 1.2450
" />
<path d="M0.7160 1.4470
L0.7430 1.4410
" />
<path d="M0.7430 1.2490
L0.7160 1.2430
" />
<path d="M0.7430 1.4410
L0.7680 1.4290
" />
<path d="M0.7680 1.2610
L0.7430 1.2490
" />
<path d="M0.7680 1.4290
L0.7880 1.4100
" />
<path d="M0.7880 1.2800
L0.7680 1.2610
" />
<path d="M0.7880 1.4100
L0.8030 1.3860
" />
<path d="M0.8030 1.3040
L0.7880 1.2800
" />
<path d="M0.8030 1.3860
L0.8100 1.3590
" />
<path d="M0.8100 1.3310
L0.8030 1.3040
" />
<path d="M0.8100 1.3590
L0.8100 1.3310
" />
<path d="M4.3900 0.3000
L0.3000 0.3000
" />
<path d="M4.3900 4.3900
L4.3900 0.3000
" />
</g> 
</svg>
