<?xml version="1.0" standalone="no"?>
 <!DOCTYPE svg PUBLIC "-//W3C//DTD SVG 1.1//EN" 
 "http://www.w3.org/Graphics/SVG/1.1/DTD/svg11.dtd"> 
<svg
  xmlns:svg="http://www.w3.org/2000/svg"
  xmlns="http://www.w3.org/2000/svg"
  xmlns:xlink="http://www.w3.org/1999/xlink"
  version="1.1"
  width="4.1402mm" height="5.5372mm" viewBox="0.0000 0.0000 4.1402 5.5372">
<title>SVG Image created as outline.svg date 2025/06/16 09:17:53 </title>
  <desc>Image generated by PCBNEW </desc>
<g style="fill:#000000; fill-opacity:1.0000;stroke:#000000; stroke-opacity:1.0000;
stroke-linecap:round; stroke-linejoin:round;"
 transform="translate(0 0) scale(1 1)">
</g>
<g style="fill:none; 
stroke:#000000; stroke-width:0.0200; stroke-opacity:1; 
stroke-linecap:round; stroke-linejoin:round;">
<path d="M0.4650 0.5250
L0.4790 0.5240
" />
<path d="M0.4650 1.2060
L0.4650 0.5250
" />
<path d="M0.4650 1.2060
L0.4690 1.2430
" />
<path d="M0.4650 1.2060
L0.4840 1.3980
" />
<path d="M0.4650 1.9040
L0.4650 1.9030
" />
<path d="M0.4650 3.6560
L0.4650 1.9040
" />
<path d="M0.4650 3.6560
L0.4770 3.7730
" />
<path d="M0.4650 4.3540
L0.4820 4.1820
" />
<path d="M0.4650 4.3540
L0.4820 4.1820
" />
<path d="M0.4650 5.0250
L0.4650 4.3540
" />
<path d="M0.4690 1.2430
L0.4730 1.2800
" />
<path d="M0.4690 1.2450
L0.4670 1.2260
" />
<path d="M0.4730 1.2790
L0.4690 1.2450
" />
<path d="M0.4730 1.2800
L0.4770 1.3150
" />
<path d="M0.4770 1.3130
L0.4730 1.2790
" />
<path d="M0.4770 1.3150
L0.4800 1.3490
" />
<path d="M0.4770 1.7870
L0.4650 1.9040
" />
<path d="M0.4770 3.7730
L0.4860 3.8690
" />
<path d="M0.4790 0.5240
L0.4930 0.5230
" />
<path d="M0.4790 5.0250
L0.4650 5.0250
" />
<path d="M0.4800 1.3450
L0.4770 1.3130
" />
<path d="M0.4800 1.3490
L0.4830 1.3810
" />
<path d="M0.4820 4.1820
L0.4650 4.3540
" />
<path d="M0.4820 4.1820
L0.4900 4.0590
" />
<path d="M0.4820 4.1820
L0.4900 4.0590
" />
<path d="M0.4830 1.3790
L0.4800 1.3450
" />
<path d="M0.4830 1.3810
L0.4850 1.4130
" />
<path d="M0.4840 1.3980
L0.4890 1.4690
" />
<path d="M0.4840 4.1570
L0.4650 4.3540
" />
<path d="M0.4850 1.4070
L0.4850 1.4030
" />
<path d="M0.4850 1.4100
L0.4830 1.3790
" />
<path d="M0.4850 1.4130
L0.4860 1.4200
" />
<path d="M0.4860 1.4180
L0.4850 1.4100
" />
<path d="M0.4860 1.6900
L0.4770 1.7870
" />
<path d="M0.4860 3.8690
L0.4900 3.9490
" />
<path d="M0.4870 1.4320
L0.4880 1.4470
" />
<path d="M0.4870 1.4380
L0.4870 1.4360
" />
<path d="M0.4870 1.4420
L0.4870 1.4330
" />
<path d="M0.4880 1.4470
L0.4880 1.4590
" />
<path d="M0.4880 1.4590
L0.4870 1.4420
" />
</g>
<g style="fill:#000000; fill-opacity:1.0000; stroke:none;">
<circle cx="0.4880" cy="1.4590" r="0.0100" /> 
</g>
<g style="fill:none; 
stroke:#000000; stroke-width:0.0200; stroke-opacity:1; 
stroke-linecap:round; stroke-linejoin:round;">
<path d="M0.4890 1.4690
L0.4910 1.5370
" />
<path d="M0.4890 4.0860
L0.4840 4.1570
" />
<path d="M0.4900 1.6090
L0.4860 1.6900
" />
<path d="M0.4900 3.9490
L0.4910 4.0190
" />
<path d="M0.4900 4.0590
L0.4820 4.1820
" />
<path d="M0.4910 1.5370
L0.4900 1.6090
" />
<path d="M0.4910 4.0190
L0.4890 4.0860
" />
<path d="M0.4930 0.5230
L0.5070 0.5210
" />
<path d="M0.4930 5.0260
L0.4790 5.0250
" />
<path d="M0.5070 0.5210
L0.5210 0.5190
" />
<path d="M0.5070 5.0280
L0.4930 5.0260
" />
<path d="M0.5210 0.5190
L0.5340 0.5150
" />
<path d="M0.5210 5.0310
L0.5070 5.0280
" />
<path d="M0.5340 0.5150
L0.5480 0.5110
" />
<path d="M0.5340 5.0350
L0.5210 5.0310
" />
<path d="M0.5480 0.5110
L0.5610 0.5060
" />
<path d="M0.5480 5.0390
L0.5340 5.0350
" />
<path d="M0.5610 0.5060
L0.5740 0.5000
" />
<path d="M0.5610 5.0440
L0.5480 5.0390
" />
<path d="M0.5740 0.5000
L0.5860 0.4940
" />
<path d="M0.5740 5.0500
L0.5610 5.0440
" />
<path d="M0.5860 0.4940
L0.5980 0.4860
" />
<path d="M0.5860 5.0560
L0.5740 5.0500
" />
<path d="M0.5980 0.4860
L0.6100 0.4790
" />
<path d="M0.5980 5.0630
L0.5860 5.0560
" />
<path d="M0.6100 0.4790
L0.6210 0.4700
" />
<path d="M0.6100 5.0710
L0.5980 5.0630
" />
<path d="M0.6210 0.4700
L0.6320 0.4610
" />
<path d="M0.6210 5.0790
L0.6100 5.0710
" />
<path d="M0.6320 0.4610
L0.6420 0.4520
" />
<path d="M0.6320 5.0880
L0.6210 5.0790
" />
<path d="M0.6420 0.4520
L0.6520 0.4410
" />
<path d="M0.6420 5.0980
L0.6320 5.0880
" />
<path d="M0.6520 0.4410
L0.6610 0.4310
" />
<path d="M0.6520 5.1080
L0.6420 5.0980
" />
<path d="M0.6610 0.4310
L0.6690 0.4190
" />
<path d="M0.6610 5.1190
L0.6520 5.1080
" />
<path d="M0.6690 0.4190
L0.6770 0.4080
" />
<path d="M0.6690 5.1300
L0.6610 5.1190
" />
<path d="M0.6770 0.4080
L0.6840 0.3960
" />
<path d="M0.6770 5.1420
L0.6690 5.1300
" />
<path d="M0.6840 0.3960
L0.6900 0.3830
" />
<path d="M0.6840 5.1540
L0.6770 5.1420
" />
<path d="M0.6900 0.3830
L0.6960 0.3700
" />
<path d="M0.6900 5.1660
L0.6840 5.1540
" />
<path d="M0.6960 0.3700
L0.7010 0.3570
" />
<path d="M0.6960 5.1790
L0.6900 5.1660
" />
<path d="M0.7010 0.3570
L0.7050 0.3440
" />
<path d="M0.7010 5.1920
L0.6960 5.1790
" />
<path d="M0.7050 0.3440
L0.7090 0.3300
" />
<path d="M0.7050 5.2060
L0.7010 5.1920
" />
<path d="M0.7090 0.3300
L0.7120 0.3170
" />
<path d="M0.7090 5.2190
L0.7050 5.2060
" />
<path d="M0.7120 0.3170
L0.7140 0.3030
" />
<path d="M0.7120 5.2330
L0.7090 5.2190
" />
<path d="M0.7140 0.3030
L0.7150 0.2890
" />
<path d="M0.7140 5.2470
L0.7120 5.2330
" />
<path d="M0.7150 0.2750
L3.4150 0.2750
" />
<path d="M0.7150 0.2890
L0.7150 0.2750
" />
<path d="M0.7150 0.5250
L0.6420 0.4520
" />
<path d="M0.7150 0.5250
L0.7150 5.0250
" />
<path d="M0.7150 5.0250
L0.6420 5.0980
" />
<path d="M0.7150 5.0250
L3.4150 5.0250
" />
<path d="M0.7150 5.2610
L0.7140 5.2470
" />
<path d="M0.7150 5.2750
L0.7150 5.2610
" />
<path d="M3.4150 0.2750
L3.4160 0.2890
" />
<path d="M3.4150 0.5250
L0.7150 0.5250
" />
<path d="M3.4150 5.0250
L3.4150 0.5250
" />
<path d="M3.4150 5.2750
L0.7150 5.2750
" />
<path d="M3.4160 0.2890
L3.4170 0.3030
" />
<path d="M3.4160 5.2610
L3.4150 5.2750
" />
<path d="M3.4170 0.3030
L3.4190 0.3170
" />
<path d="M3.4170 5.2470
L3.4160 5.2610
" />
<path d="M3.4190 0.3170
L3.4210 0.3300
" />
<path d="M3.4190 5.2330
L3.4170 5.2470
" />
<path d="M3.4210 0.3300
L3.4250 0.3440
" />
<path d="M3.4210 5.2190
L3.4190 5.2330
" />
<path d="M3.4250 0.3440
L3.4290 0.3570
" />
<path d="M3.4250 5.2060
L3.4210 5.2190
" />
<path d="M3.4290 0.3570
L3.4340 0.3700
" />
<path d="M3.4290 5.1920
L3.4250 5.2060
" />
<path d="M3.4340 0.3700
L3.4400 0.3830
" />
<path d="M3.4340 5.1790
L3.4290 5.1920
" />
<path d="M3.4400 0.3830
L3.4460 0.3960
" />
<path d="M3.4400 5.1660
L3.4340 5.1790
" />
<path d="M3.4460 0.3960
L3.4530 0.4080
" />
<path d="M3.4460 5.1540
L3.4400 5.1660
" />
<path d="M3.4530 0.4080
L3.4610 0.4190
" />
<path d="M3.4530 5.1420
L3.4460 5.1540
" />
<path d="M3.4610 0.4190
L3.4700 0.4310
" />
<path d="M3.4610 5.1300
L3.4530 5.1420
" />
<path d="M3.4700 0.4310
L3.4790 0.4410
" />
<path d="M3.4700 5.1190
L3.4610 5.1300
" />
<path d="M3.4790 0.4410
L3.4880 0.4520
" />
<path d="M3.4790 5.1080
L3.4700 5.1190
" />
<path d="M3.4880 0.4520
L3.4150 0.5250
" />
<path d="M3.4880 0.4520
L3.4990 0.4610
" />
<path d="M3.4880 5.0980
L3.4150 5.0250
" />
<path d="M3.4880 5.0980
L3.4790 5.1080
" />
<path d="M3.4990 0.4610
L3.5090 0.4700
" />
<path d="M3.4990 5.0880
L3.4880 5.0980
" />
<path d="M3.5090 0.4700
L3.5200 0.4790
" />
<path d="M3.5090 5.0790
L3.4990 5.0880
" />
<path d="M3.5200 0.4790
L3.5320 0.4860
" />
<path d="M3.5200 5.0710
L3.5090 5.0790
" />
<path d="M3.5320 0.4860
L3.5440 0.4940
" />
<path d="M3.5320 5.0630
L3.5200 5.0710
" />
<path d="M3.5440 0.4940
L3.5570 0.5000
" />
<path d="M3.5440 5.0560
L3.5320 5.0630
" />
<path d="M3.5570 0.5000
L3.5690 0.5060
" />
<path d="M3.5570 5.0500
L3.5440 5.0560
" />
<path d="M3.5690 0.5060
L3.5830 0.5110
" />
<path d="M3.5690 5.0440
L3.5570 5.0500
" />
<path d="M3.5830 0.5110
L3.5960 0.5150
" />
<path d="M3.5830 5.0390
L3.5690 5.0440
" />
<path d="M3.5960 0.5150
L3.6100 0.5190
" />
<path d="M3.5960 5.0350
L3.5830 5.0390
" />
<path d="M3.6100 0.5190
L3.6230 0.5210
" />
<path d="M3.6100 5.0310
L3.5960 5.0350
" />
<path d="M3.6230 0.5210
L3.6370 0.5230
" />
<path d="M3.6230 5.0280
L3.6100 5.0310
" />
<path d="M3.6370 0.5230
L3.6510 0.5240
" />
<path d="M3.6370 5.0260
L3.6230 5.0280
" />
<path d="M3.6390 1.5450
L3.6400 1.5070
" />
<path d="M3.6390 1.5450
L3.6400 1.5070
" />
<path d="M3.6390 3.9950
L3.6400 3.9570
" />
<path d="M3.6400 1.5010
L3.6450 1.4200
" />
<path d="M3.6400 1.5070
L3.6410 1.4740
" />
<path d="M3.6400 1.5070
L3.6410 1.4740
" />
<path d="M3.6400 1.5730
L3.6400 1.5010
" />
<path d="M3.6400 1.5930
L3.6390 1.5450
" />
<path d="M3.6400 1.5930
L3.6390 1.5450
" />
<path d="M3.6400 3.9510
L3.6450 3.8700
" />
<path d="M3.6400 3.9570
L3.6410 3.9240
" />
<path d="M3.6400 4.0230
L3.6400 3.9510
" />
<path d="M3.6400 4.0430
L3.6390 3.9950
" />
<path d="M3.6410 1.4740
L3.6430 1.4420
" />
<path d="M3.6410 1.4740
L3.6430 1.4420
" />
<path d="M3.6410 1.6290
L3.6400 1.5930
" />
<path d="M3.6410 1.6290
L3.6400 1.5930
" />
<path d="M3.6410 3.9240
L3.6430 3.8920
" />
<path d="M3.6410 4.0790
L3.6400 4.0430
" />
<path d="M3.6420 1.6410
L3.6400 1.5730
" />
<path d="M3.6420 1.6490
L3.6420 1.6510
" />
<path d="M3.6420 1.6490
L3.6420 1.6510
" />
<path d="M3.6420 1.6490
L3.6430 1.6680
" />
<path d="M3.6420 4.0910
L3.6400 4.0230
" />
<path d="M3.6420 4.0990
L3.6420 4.1010
" />
<path d="M3.6420 4.0990
L3.6430 4.1180
" />
<path d="M3.6430 1.4420
L3.6450 1.4100
" />
<path d="M3.6430 1.4420
L3.6450 1.4100
" />
<path d="M3.6430 1.6630
L3.6410 1.6290
" />
<path d="M3.6430 1.6630
L3.6410 1.6290
" />
<path d="M3.6430 1.6680
L3.6440 1.6770
" />
<path d="M3.6430 1.6720
L3.6430 1.6740
" />
<path d="M3.6430 1.6720
L3.6430 1.6740
" />
<path d="M3.6430 3.8920
L3.6450 3.8600
" />
<path d="M3.6430 4.1130
L3.6410 4.0790
" />
<path d="M3.6430 4.1180
L3.6440 4.1270
" />
<path d="M3.6430 4.1220
L3.6430 4.1240
" />
<path d="M3.6440 1.6790
L3.6430 1.6630
" />
<path d="M3.6440 1.6790
L3.6430 1.6630
" />
<path d="M3.6440 4.1290
L3.6430 4.1130
" />
<path d="M3.6450 1.4100
L3.6480 1.3790
" />
<path d="M3.6450 1.4100
L3.6480 1.3790
" />
<path d="M3.6450 1.4200
L3.6530 1.3230
" />
<path d="M3.6450 1.6920
L3.6450 1.6990
" />
<path d="M3.6450 1.6960
L3.6440 1.6870
" />
<path d="M3.6450 1.6960
L3.6440 1.6870
" />
<path d="M3.6450 1.6990
L3.6480 1.7310
" />
<path d="M3.6450 3.8600
L3.6480 3.8290
" />
<path d="M3.6450 3.8700
L3.6530 3.7730
" />
<path d="M3.6450 4.1420
L3.6450 4.1490
" />
<path d="M3.6450 4.1460
L3.6440 4.1370
" />
<path d="M3.6450 4.1490
L3.6480 4.1810
" />
<path d="M3.6450 4.1530
L3.6460 4.1560
" />
<path d="M3.6460 1.7040
L3.6460 1.7060
" />
<path d="M3.6460 1.7040
L3.6460 1.7060
" />
<path d="M3.6460 1.7120
L3.6420 1.6410
" />
<path d="M3.6460 4.1620
L3.6420 4.0910
" />
<path d="M3.6470 1.7280
L3.6450 1.6960
" />
<path d="M3.6470 1.7280
L3.6450 1.6960
" />
<path d="M3.6470 4.1780
L3.6450 4.1460
" />
<path d="M3.6480 1.3790
L3.6510 1.3450
" />
<path d="M3.6480 1.3790
L3.6510 1.3450
" />
<path d="M3.6480 1.7310
L3.6510 1.7650
" />
<path d="M3.6480 1.7350
L3.6480 1.7380
" />
<path d="M3.6480 1.7350
L3.6480 1.7380
" />
<path d="M3.6480 3.8290
L3.6510 3.7950
" />
<path d="M3.6480 4.1810
L3.6510 4.2150
" />
<path d="M3.6500 1.7610
L3.6470 1.7280
" />
<path d="M3.6500 1.7610
L3.6470 1.7280
" />
<path d="M3.6500 4.2110
L3.6470 4.1780
" />
<path d="M3.6510 0.5240
L3.6650 0.5250
" />
<path d="M3.6510 1.3450
L3.6540 1.3130
" />
<path d="M3.6510 1.3450
L3.6540 1.3130
" />
<path d="M3.6510 1.7650
L3.6540 1.7970
" />
<path d="M3.6510 1.7680
L3.6520 1.7740
" />
<path d="M3.6510 1.7680
L3.6520 1.7740
" />
<path d="M3.6510 3.7950
L3.6540 3.7630
" />
<path d="M3.6510 4.2150
L3.6540 4.2470
" />
<path d="M3.6510 5.0250
L3.6370 5.0260
" />
<path d="M3.6530 1.3230
L3.6650 1.2060
" />
<path d="M3.6530 3.7730
L3.6650 3.6560
" />
<path d="M3.6540 1.3130
L3.6570 1.2790
" />
<path d="M3.6540 1.3130
L3.6570 1.2790
" />
<path d="M3.6540 1.7950
L3.6500 1.7610
" />
<path d="M3.6540 1.7950
L3.6500 1.7610
" />
<path d="M3.6540 1.7970
L3.6570 1.8300
" />
<path d="M3.6540 3.7630
L3.6570 3.7290
" />
<path d="M3.6540 4.2450
L3.6500 4.2110
" />
<path d="M3.6540 4.2470
L3.6570 4.2800
" />
<path d="M3.6570 1.2790
L3.6610 1.2450
" />
<path d="M3.6570 1.2790
L3.6610 1.2450
" />
<path d="M3.6570 1.8300
L3.6540 1.7950
" />
<path d="M3.6570 1.8300
L3.6540 1.7950
" />
<path d="M3.6570 1.8300
L3.6610 1.8640
" />
<path d="M3.6570 3.7290
L3.6610 3.6950
" />
<path d="M3.6570 4.2800
L3.6540 4.2450
" />
<path d="M3.6570 4.2800
L3.6610 4.3140
" />
<path d="M3.6610 1.2450
L3.6650 1.2080
" />
<path d="M3.6610 1.2450
L3.6650 1.2080
" />
<path d="M3.6610 1.8640
L3.6630 1.8840
" />
<path d="M3.6610 1.8670
L3.6570 1.8300
" />
<path d="M3.6610 1.8670
L3.6570 1.8300
" />
<path d="M3.6610 3.6950
L3.6650 3.6580
" />
<path d="M3.6610 4.3140
L3.6630 4.3340
" />
<path d="M3.6610 4.3170
L3.6570 4.2800
" />
<path d="M3.6650 0.5250
L3.6650 1.2060
" />
<path d="M3.6650 1.2080
L3.6650 1.2060
" />
<path d="M3.6650 1.2080
L3.6650 1.2060
" />
<path d="M3.6650 1.9040
L3.6460 1.7120
" />
<path d="M3.6650 1.9040
L3.6610 1.8670
" />
<path d="M3.6650 1.9040
L3.6610 1.8670
" />
<path d="M3.6650 1.9040
L3.6650 3.6560
" />
<path d="M3.6650 3.6580
L3.6650 3.6560
" />
<path d="M3.6650 4.3540
L3.6460 4.1620
" />
<path d="M3.6650 4.3540
L3.6610 4.3170
" />
<path d="M3.6650 4.3540
L3.6650 5.0250
" />
<path d="M3.6650 5.0250
L3.6510 5.0250
" />
</g> 
</svg>
