<?xml version="1.0" standalone="no"?>
 <!DOCTYPE svg PUBLIC "-//W3C//DTD SVG 1.1//EN" 
 "http://www.w3.org/Graphics/SVG/1.1/DTD/svg11.dtd"> 
<svg
  xmlns:svg="http://www.w3.org/2000/svg"
  xmlns="http://www.w3.org/2000/svg"
  xmlns:xlink="http://www.w3.org/1999/xlink"
  version="1.1"
  width="41.0464mm" height="18.0848mm" viewBox="0.0000 0.0000 41.0464 18.0848">
<title>SVG Image created as outline.svg date 2025/04/04 10:06:24 </title>
  <desc>Image generated by PCBNEW </desc>
<g style="fill:#000000; fill-opacity:1.0000;stroke:#000000; stroke-opacity:1.0000;
stroke-linecap:round; stroke-linejoin:round;"
 transform="translate(0 0) scale(1 1)">
</g>
<g style="fill:none; 
stroke:#000000; stroke-width:0.0200; stroke-opacity:1; 
stroke-linecap:round; stroke-linejoin:round;">
<path d="M1.0250 1.0470
L4.5750 1.0470
" />
<path d="M1.0250 3.8480
L1.0250 1.0470
" />
<path d="M1.0250 4.6480
L1.0250 3.8480
" />
<path d="M1.0250 12.0970
L1.0250 4.6480
" />
<path d="M2.0440 1.0230
L3.1440 1.0230
" />
<path d="M2.0440 1.0470
L2.0440 1.0230
" />
<path d="M3.1440 1.0470
L3.1440 1.0230
" />
<path d="M3.8300 14.4480
L3.8300 12.0970
" />
<path d="M3.8300 14.4480
L3.8300 14.5860
" />
<path d="M3.8300 16.5930
L3.8300 14.5860
" />
<path d="M3.8300 16.5930
L3.8300 16.7870
" />
<path d="M3.8300 16.9580
L3.8300 16.7870
" />
<path d="M3.8300 17.0880
L3.8300 16.9580
" />
<path d="M4.1850 12.0970
L4.1850 14.4480
" />
<path d="M4.1850 14.4480
L4.1850 14.5860
" />
<path d="M4.1850 14.5860
L4.1850 16.5930
" />
<path d="M4.1850 16.5930
L4.1850 16.7870
" />
<path d="M4.1850 16.7870
L4.1850 16.9580
" />
<path d="M4.1850 16.9580
L3.8300 16.9580
" />
<path d="M4.1850 16.9580
L4.1850 17.0880
" />
<path d="M4.1850 17.0880
L3.8300 17.0880
" />
<path d="M4.5750 1.0470
L4.5750 3.8480
" />
<path d="M4.5750 3.8480
L1.0250 3.8480
" />
<path d="M4.5750 3.8480
L4.5750 4.6480
" />
<path d="M4.5750 4.6480
L1.0250 4.6480
" />
<path d="M4.8300 14.4480
L4.8300 12.0970
" />
<path d="M4.8300 14.5860
L4.8300 14.4480
" />
<path d="M4.8300 16.5930
L4.8300 14.5860
" />
<path d="M4.8300 16.7870
L4.8300 16.5930
" />
<path d="M4.8300 16.9580
L4.8300 16.7870
" />
<path d="M4.8300 17.0880
L4.8300 16.9580
" />
<path d="M5.1850 12.0970
L5.1850 14.4480
" />
<path d="M5.1850 14.4480
L5.1850 14.5860
" />
<path d="M5.1850 14.5860
L5.1850 16.5930
" />
<path d="M5.1850 16.5930
L5.1850 16.7870
" />
<path d="M5.1850 16.7870
L5.1850 16.9580
" />
<path d="M5.1850 16.9580
L4.8300 16.9580
" />
<path d="M5.1850 16.9580
L5.1850 17.0880
" />
<path d="M5.1850 17.0880
L4.8300 17.0880
" />
<path d="M5.8300 14.4480
L5.8300 12.0970
" />
<path d="M5.8300 14.5860
L5.8300 14.4480
" />
<path d="M5.8300 16.5930
L5.8300 14.5860
" />
<path d="M5.8300 16.7870
L5.8300 16.5930
" />
<path d="M5.8300 16.9580
L5.8300 16.7870
" />
<path d="M5.8300 17.0880
L5.8300 16.9580
" />
<path d="M5.9750 1.0470
L4.5750 1.0470
" />
<path d="M5.9750 1.0470
L10.0750 1.0470
" />
<path d="M5.9750 3.8480
L5.9750 1.0470
" />
<path d="M5.9750 4.6480
L5.9750 3.8480
" />
<path d="M6.1850 12.0970
L6.1850 14.4480
" />
<path d="M6.1850 14.4480
L6.1850 14.5860
" />
<path d="M6.1850 14.5860
L6.1850 16.5930
" />
<path d="M6.1850 16.5930
L6.1850 16.7870
" />
<path d="M6.1850 16.7870
L6.1850 16.9580
" />
<path d="M6.1850 16.9580
L5.8300 16.9580
" />
<path d="M6.1850 16.9580
L6.1850 17.0880
" />
<path d="M6.1850 17.0880
L5.8300 17.0880
" />
<path d="M6.8300 14.4480
L6.8300 12.0970
" />
<path d="M6.8300 14.5860
L6.8300 14.4480
" />
<path d="M6.8300 16.5930
L6.8300 14.5860
" />
<path d="M6.8300 16.7870
L6.8300 16.5930
" />
<path d="M6.8300 16.9580
L6.8300 16.7870
" />
<path d="M6.8300 17.0880
L6.8300 16.9580
" />
<path d="M7.1850 12.0970
L7.1850 14.4480
" />
<path d="M7.1850 14.4480
L7.1850 14.5860
" />
<path d="M7.1850 14.5860
L7.1850 16.5930
" />
<path d="M7.1850 16.5930
L7.1850 16.7870
" />
<path d="M7.1850 16.7870
L7.1850 16.9580
" />
<path d="M7.1850 16.9580
L6.8300 16.9580
" />
<path d="M7.1850 16.9580
L7.1850 17.0880
" />
<path d="M7.1850 17.0880
L6.8300 17.0880
" />
<path d="M7.8300 14.4480
L7.8300 12.0970
" />
<path d="M7.8300 14.5860
L7.8300 14.4480
" />
<path d="M7.8300 16.5930
L7.8300 14.5860
" />
<path d="M7.8300 16.7870
L7.8300 16.5930
" />
<path d="M7.8300 16.9580
L7.8300 16.7870
" />
<path d="M7.8300 17.0880
L7.8300 16.9580
" />
<path d="M8.1850 12.0970
L8.1850 14.4480
" />
<path d="M8.1850 14.4480
L8.1850 14.5860
" />
<path d="M8.1850 14.5860
L8.1850 16.5930
" />
<path d="M8.1850 16.5930
L8.1850 16.7870
" />
<path d="M8.1850 16.7870
L8.1850 16.9580
" />
<path d="M8.1850 16.9580
L7.8300 16.9580
" />
<path d="M8.1850 16.9580
L8.1850 17.0880
" />
<path d="M8.1850 17.0880
L7.8300 17.0880
" />
<path d="M8.8300 14.4480
L8.8300 12.0970
" />
<path d="M8.8300 14.5860
L8.8300 14.4480
" />
<path d="M8.8300 16.5930
L8.8300 14.5860
" />
<path d="M8.8300 16.7870
L8.8300 16.5930
" />
<path d="M8.8300 16.9580
L8.8300 16.7870
" />
<path d="M8.8300 17.0880
L8.8300 16.9580
" />
<path d="M9.1850 12.0970
L9.1850 14.4480
" />
<path d="M9.1850 14.4480
L9.1850 14.5860
" />
<path d="M9.1850 14.5860
L9.1850 16.5930
" />
<path d="M9.1850 16.5930
L9.1850 16.7870
" />
<path d="M9.1850 16.7870
L9.1850 16.9580
" />
<path d="M9.1850 16.9580
L8.8300 16.9580
" />
<path d="M9.1850 16.9580
L9.1850 17.0880
" />
<path d="M9.1850 17.0880
L8.8300 17.0880
" />
<path d="M9.8300 14.4480
L9.8300 12.0970
" />
<path d="M9.8300 14.5860
L9.8300 14.4480
" />
<path d="M9.8300 16.5930
L9.8300 14.5860
" />
<path d="M9.8300 16.7870
L9.8300 16.5930
" />
<path d="M9.8300 16.9580
L9.8300 16.7870
" />
<path d="M9.8300 17.0880
L9.8300 16.9580
" />
<path d="M10.0750 1.0470
L10.0750 3.8480
" />
<path d="M10.0750 3.8480
L5.9750 3.8480
" />
<path d="M10.0750 4.6480
L5.9750 4.6480
" />
<path d="M10.0750 4.6480
L10.0750 3.8480
" />
<path d="M10.1850 12.0970
L10.1850 14.4480
" />
<path d="M10.1850 14.4480
L10.1850 14.5860
" />
<path d="M10.1850 14.5860
L10.1850 16.5930
" />
<path d="M10.1850 16.5930
L10.1850 16.7870
" />
<path d="M10.1850 16.7870
L10.1850 16.9580
" />
<path d="M10.1850 16.9580
L9.8300 16.9580
" />
<path d="M10.1850 16.9580
L10.1850 17.0880
" />
<path d="M10.1850 17.0880
L9.8300 17.0880
" />
<path d="M10.8300 14.4480
L10.8300 12.0970
" />
<path d="M10.8300 14.5860
L10.8300 14.4480
" />
<path d="M10.8300 16.5930
L10.8300 14.5860
" />
<path d="M10.8300 16.7870
L10.8300 16.5930
" />
<path d="M10.8300 16.9580
L10.8300 16.7870
" />
<path d="M10.8300 17.0880
L10.8300 16.9580
" />
<path d="M11.1850 12.0970
L11.1850 14.4480
" />
<path d="M11.1850 14.4480
L11.1850 14.5860
" />
<path d="M11.1850 14.5860
L11.1850 16.5930
" />
<path d="M11.1850 16.5930
L11.1850 16.7870
" />
<path d="M11.1850 16.7870
L11.1850 16.9580
" />
<path d="M11.1850 16.9580
L10.8300 16.9580
" />
<path d="M11.1850 16.9580
L11.1850 17.0880
" />
<path d="M11.1850 17.0880
L10.8300 17.0880
" />
<path d="M11.4750 1.0470
L10.0750 1.0470
" />
<path d="M11.4750 1.0470
L15.5750 1.0470
" />
<path d="M11.4750 3.8480
L11.4750 1.0470
" />
<path d="M11.4750 4.6480
L11.4750 3.8480
" />
<path d="M11.8300 14.4480
L11.8300 12.0970
" />
<path d="M11.8300 14.5860
L11.8300 14.4480
" />
<path d="M11.8300 16.5930
L11.8300 14.5860
" />
<path d="M11.8300 16.7870
L11.8300 16.5930
" />
<path d="M11.8300 16.9580
L11.8300 16.7870
" />
<path d="M11.8300 17.0880
L11.8300 16.9580
" />
<path d="M12.1850 12.0970
L12.1850 14.4480
" />
<path d="M12.1850 14.4480
L12.1850 14.5860
" />
<path d="M12.1850 14.5860
L12.1850 16.5930
" />
<path d="M12.1850 16.5930
L12.1850 16.7870
" />
<path d="M12.1850 16.7870
L12.1850 16.9580
" />
<path d="M12.1850 16.9580
L11.8300 16.9580
" />
<path d="M12.1850 16.9580
L12.1850 17.0880
" />
<path d="M12.1850 17.0880
L11.8300 17.0880
" />
<path d="M12.8300 14.4480
L12.8300 12.0970
" />
<path d="M12.8300 14.5860
L12.8300 14.4480
" />
<path d="M12.8300 16.5930
L12.8300 14.5860
" />
<path d="M12.8300 16.7870
L12.8300 16.5930
" />
<path d="M12.8300 16.9580
L12.8300 16.7870
" />
<path d="M12.8300 17.0880
L12.8300 16.9580
" />
<path d="M13.1850 12.0970
L13.1850 14.4480
" />
<path d="M13.1850 14.4480
L13.1850 14.5860
" />
<path d="M13.1850 14.5860
L13.1850 16.5930
" />
<path d="M13.1850 16.5930
L13.1850 16.7870
" />
<path d="M13.1850 16.7870
L13.1850 16.9580
" />
<path d="M13.1850 16.9580
L12.8300 16.9580
" />
<path d="M13.1850 16.9580
L13.1850 17.0880
" />
<path d="M13.1850 17.0880
L12.8300 17.0880
" />
<path d="M13.8300 14.4480
L13.8300 12.0970
" />
<path d="M13.8300 14.5860
L13.8300 14.4480
" />
<path d="M13.8300 16.5930
L13.8300 14.5860
" />
<path d="M13.8300 16.7870
L13.8300 16.5930
" />
<path d="M13.8300 16.9580
L13.8300 16.7870
" />
<path d="M13.8300 17.0880
L13.8300 16.9580
" />
<path d="M14.1850 12.0970
L14.1850 14.4480
" />
<path d="M14.1850 14.4480
L14.1850 14.5860
" />
<path d="M14.1850 14.5860
L14.1850 16.5930
" />
<path d="M14.1850 16.5930
L14.1850 16.7870
" />
<path d="M14.1850 16.7870
L14.1850 16.9580
" />
<path d="M14.1850 16.9580
L13.8300 16.9580
" />
<path d="M14.1850 16.9580
L14.1850 17.0880
" />
<path d="M14.1850 17.0880
L13.8300 17.0880
" />
<path d="M15.5750 1.0470
L15.5750 3.8480
" />
<path d="M15.5750 3.8480
L11.4750 3.8480
" />
<path d="M15.5750 4.6480
L11.4750 4.6480
" />
<path d="M15.5750 4.6480
L15.5750 3.8480
" />
<path d="M16.8300 14.4480
L16.8300 12.0970
" />
<path d="M16.8300 14.5860
L16.8300 14.4480
" />
<path d="M16.8300 16.5930
L16.8300 14.5860
" />
<path d="M16.8300 16.7870
L16.8300 16.5930
" />
<path d="M16.8300 16.9580
L16.8300 16.7870
" />
<path d="M16.8300 17.0880
L16.8300 16.9580
" />
<path d="M16.9750 1.0470
L15.5750 1.0470
" />
<path d="M16.9750 1.0470
L21.0750 1.0470
" />
<path d="M16.9750 3.8480
L16.9750 1.0470
" />
<path d="M16.9750 4.6480
L16.9750 3.8480
" />
<path d="M17.1850 12.0970
L17.1850 14.4480
" />
<path d="M17.1850 14.4480
L17.1850 14.5860
" />
<path d="M17.1850 14.5860
L17.1850 16.5930
" />
<path d="M17.1850 16.5930
L17.1850 16.7870
" />
<path d="M17.1850 16.7870
L17.1850 16.9580
" />
<path d="M17.1850 16.9580
L16.8300 16.9580
" />
<path d="M17.1850 16.9580
L17.1850 17.0880
" />
<path d="M17.1850 17.0880
L16.8300 17.0880
" />
<path d="M17.8300 14.4480
L17.8300 12.0970
" />
<path d="M17.8300 14.5860
L17.8300 14.4480
" />
<path d="M17.8300 16.5930
L17.8300 14.5860
" />
<path d="M17.8300 16.7870
L17.8300 16.5930
" />
<path d="M17.8300 16.9580
L17.8300 16.7870
" />
<path d="M17.8300 17.0880
L17.8300 16.9580
" />
<path d="M18.1850 12.0970
L18.1850 14.4480
" />
<path d="M18.1850 14.4480
L18.1850 14.5860
" />
<path d="M18.1850 14.5860
L18.1850 16.5930
" />
<path d="M18.1850 16.5930
L18.1850 16.7870
" />
<path d="M18.1850 16.7870
L18.1850 16.9580
" />
<path d="M18.1850 16.9580
L17.8300 16.9580
" />
<path d="M18.1850 16.9580
L18.1850 17.0880
" />
<path d="M18.1850 17.0880
L17.8300 17.0880
" />
<path d="M18.8300 14.4480
L18.8300 12.0970
" />
<path d="M18.8300 14.5860
L18.8300 14.4480
" />
<path d="M18.8300 16.5930
L18.8300 14.5860
" />
<path d="M18.8300 16.7870
L18.8300 16.5930
" />
<path d="M18.8300 16.9580
L18.8300 16.7870
" />
<path d="M18.8300 17.0880
L18.8300 16.9580
" />
<path d="M19.1850 12.0970
L19.1850 14.4480
" />
<path d="M19.1850 14.4480
L19.1850 14.5860
" />
<path d="M19.1850 14.5860
L19.1850 16.5930
" />
<path d="M19.1850 16.5930
L19.1850 16.7870
" />
<path d="M19.1850 16.7870
L19.1850 16.9580
" />
<path d="M19.1850 16.9580
L18.8300 16.9580
" />
<path d="M19.1850 16.9580
L19.1850 17.0880
" />
<path d="M19.1850 17.0880
L18.8300 17.0880
" />
<path d="M19.8300 14.4480
L19.8300 12.0970
" />
<path d="M19.8300 14.5860
L19.8300 14.4480
" />
<path d="M19.8300 16.5930
L19.8300 14.5860
" />
<path d="M19.8300 16.7870
L19.8300 16.5930
" />
<path d="M19.8300 16.9580
L19.8300 16.7870
" />
<path d="M19.8300 17.0880
L19.8300 16.9580
" />
<path d="M20.1850 12.0970
L20.1850 14.4480
" />
<path d="M20.1850 14.4480
L20.1850 14.5860
" />
<path d="M20.1850 14.5860
L20.1850 16.5930
" />
<path d="M20.1850 16.5930
L20.1850 16.7870
" />
<path d="M20.1850 16.7870
L20.1850 16.9580
" />
<path d="M20.1850 16.9580
L19.8300 16.9580
" />
<path d="M20.1850 16.9580
L20.1850 17.0880
" />
<path d="M20.1850 17.0880
L19.8300 17.0880
" />
<path d="M20.8300 14.4480
L20.8300 12.0970
" />
<path d="M20.8300 14.5860
L20.8300 14.4480
" />
<path d="M20.8300 16.5930
L20.8300 14.5860
" />
<path d="M20.8300 16.7870
L20.8300 16.5930
" />
<path d="M20.8300 16.9580
L20.8300 16.7870
" />
<path d="M20.8300 17.0880
L20.8300 16.9580
" />
<path d="M21.0750 1.0470
L21.0750 3.8480
" />
<path d="M21.0750 3.8480
L16.9750 3.8480
" />
<path d="M21.0750 4.6480
L16.9750 4.6480
" />
<path d="M21.0750 4.6480
L21.0750 3.8480
" />
<path d="M21.1850 12.0970
L21.1850 14.4480
" />
<path d="M21.1850 14.4480
L21.1850 14.5860
" />
<path d="M21.1850 14.5860
L21.1850 16.5930
" />
<path d="M21.1850 16.5930
L21.1850 16.7870
" />
<path d="M21.1850 16.7870
L21.1850 16.9580
" />
<path d="M21.1850 16.9580
L20.8300 16.9580
" />
<path d="M21.1850 16.9580
L21.1850 17.0880
" />
<path d="M21.1850 17.0880
L20.8300 17.0880
" />
<path d="M21.8300 14.4480
L21.8300 12.0970
" />
<path d="M21.8300 14.5860
L21.8300 14.4480
" />
<path d="M21.8300 16.5930
L21.8300 14.5860
" />
<path d="M21.8300 16.7870
L21.8300 16.5930
" />
<path d="M21.8300 16.9580
L21.8300 16.7870
" />
<path d="M21.8300 17.0880
L21.8300 16.9580
" />
<path d="M22.1850 12.0970
L22.1850 14.4480
" />
<path d="M22.1850 14.4480
L22.1850 14.5860
" />
<path d="M22.1850 14.5860
L22.1850 16.5930
" />
<path d="M22.1850 16.5930
L22.1850 16.7870
" />
<path d="M22.1850 16.7870
L22.1850 16.9580
" />
<path d="M22.1850 16.9580
L21.8300 16.9580
" />
<path d="M22.1850 16.9580
L22.1850 17.0880
" />
<path d="M22.1850 17.0880
L21.8300 17.0880
" />
<path d="M22.4750 1.0470
L21.0750 1.0470
" />
<path d="M22.4750 1.0470
L26.5750 1.0470
" />
<path d="M22.4750 3.8480
L22.4750 1.0470
" />
<path d="M22.4750 4.6480
L22.4750 3.8480
" />
<path d="M22.8300 14.4480
L22.8300 12.0970
" />
<path d="M22.8300 14.5860
L22.8300 14.4480
" />
<path d="M22.8300 16.5930
L22.8300 14.5860
" />
<path d="M22.8300 16.7870
L22.8300 16.5930
" />
<path d="M22.8300 16.9580
L22.8300 16.7870
" />
<path d="M22.8300 17.0880
L22.8300 16.9580
" />
<path d="M23.1850 12.0970
L23.1850 14.4480
" />
<path d="M23.1850 14.4480
L23.1850 14.5860
" />
<path d="M23.1850 14.5860
L23.1850 16.5930
" />
<path d="M23.1850 16.5930
L23.1850 16.7870
" />
<path d="M23.1850 16.7870
L23.1850 16.9580
" />
<path d="M23.1850 16.9580
L22.8300 16.9580
" />
<path d="M23.1850 16.9580
L23.1850 17.0880
" />
<path d="M23.1850 17.0880
L22.8300 17.0880
" />
<path d="M23.8300 14.4480
L23.8300 12.0970
" />
<path d="M23.8300 14.5860
L23.8300 14.4480
" />
<path d="M23.8300 16.5930
L23.8300 14.5860
" />
<path d="M23.8300 16.7870
L23.8300 16.5930
" />
<path d="M23.8300 16.9580
L23.8300 16.7870
" />
<path d="M23.8300 17.0880
L23.8300 16.9580
" />
<path d="M24.1850 12.0970
L24.1850 14.4480
" />
<path d="M24.1850 14.4480
L24.1850 14.5860
" />
<path d="M24.1850 14.5860
L24.1850 16.5930
" />
<path d="M24.1850 16.5930
L24.1850 16.7870
" />
<path d="M24.1850 16.7870
L24.1850 16.9580
" />
<path d="M24.1850 16.9580
L23.8300 16.9580
" />
<path d="M24.1850 16.9580
L24.1850 17.0880
" />
<path d="M24.1850 17.0880
L23.8300 17.0880
" />
<path d="M24.8300 14.4480
L24.8300 12.0970
" />
<path d="M24.8300 14.5860
L24.8300 14.4480
" />
<path d="M24.8300 16.5930
L24.8300 14.5860
" />
<path d="M24.8300 16.7870
L24.8300 16.5930
" />
<path d="M24.8300 16.9580
L24.8300 16.7870
" />
<path d="M24.8300 17.0880
L24.8300 16.9580
" />
<path d="M25.1850 12.0970
L25.1850 14.4480
" />
<path d="M25.1850 14.4480
L25.1850 14.5860
" />
<path d="M25.1850 14.5860
L25.1850 16.5930
" />
<path d="M25.1850 16.5930
L25.1850 16.7870
" />
<path d="M25.1850 16.7870
L25.1850 16.9580
" />
<path d="M25.1850 16.9580
L24.8300 16.9580
" />
<path d="M25.1850 16.9580
L25.1850 17.0880
" />
<path d="M25.1850 17.0880
L24.8300 17.0880
" />
<path d="M25.8300 14.4480
L25.8300 12.0970
" />
<path d="M25.8300 14.5860
L25.8300 14.4480
" />
<path d="M25.8300 16.5930
L25.8300 14.5860
" />
<path d="M25.8300 16.7870
L25.8300 16.5930
" />
<path d="M25.8300 16.9580
L25.8300 16.7870
" />
<path d="M25.8300 17.0880
L25.8300 16.9580
" />
<path d="M26.1850 12.0970
L26.1850 14.4480
" />
<path d="M26.1850 14.4480
L26.1850 14.5860
" />
<path d="M26.1850 14.5860
L26.1850 16.5930
" />
<path d="M26.1850 16.5930
L26.1850 16.7870
" />
<path d="M26.1850 16.7870
L26.1850 16.9580
" />
<path d="M26.1850 16.9580
L25.8300 16.9580
" />
<path d="M26.1850 16.9580
L26.1850 17.0880
" />
<path d="M26.1850 17.0880
L25.8300 17.0880
" />
<path d="M26.5750 1.0470
L26.5750 3.8480
" />
<path d="M26.5750 3.8480
L22.4750 3.8480
" />
<path d="M26.5750 4.6480
L22.4750 4.6480
" />
<path d="M26.5750 4.6480
L26.5750 3.8480
" />
<path d="M26.8300 14.4480
L26.8300 12.0970
" />
<path d="M26.8300 14.5860
L26.8300 14.4480
" />
<path d="M26.8300 16.5930
L26.8300 14.5860
" />
<path d="M26.8300 16.7870
L26.8300 16.5930
" />
<path d="M26.8300 16.9580
L26.8300 16.7870
" />
<path d="M26.8300 17.0880
L26.8300 16.9580
" />
<path d="M27.1850 12.0970
L27.1850 14.4480
" />
<path d="M27.1850 14.4480
L27.1850 14.5860
" />
<path d="M27.1850 14.5860
L27.1850 16.5930
" />
<path d="M27.1850 16.5930
L27.1850 16.7870
" />
<path d="M27.1850 16.7870
L27.1850 16.9580
" />
<path d="M27.1850 16.9580
L26.8300 16.9580
" />
<path d="M27.1850 16.9580
L27.1850 17.0880
" />
<path d="M27.1850 17.0880
L26.8300 17.0880
" />
<path d="M27.8300 14.4480
L27.8300 12.0970
" />
<path d="M27.8300 14.5860
L27.8300 14.4480
" />
<path d="M27.8300 16.5930
L27.8300 14.5860
" />
<path d="M27.8300 16.7870
L27.8300 16.5930
" />
<path d="M27.8300 16.9580
L27.8300 16.7870
" />
<path d="M27.8300 17.0880
L27.8300 16.9580
" />
<path d="M27.9750 1.0470
L26.5750 1.0470
" />
<path d="M27.9750 1.0470
L32.0750 1.0470
" />
<path d="M27.9750 3.8480
L27.9750 1.0470
" />
<path d="M27.9750 4.6480
L27.9750 3.8480
" />
<path d="M28.1850 12.0970
L28.1850 14.4480
" />
<path d="M28.1850 14.4480
L28.1850 14.5860
" />
<path d="M28.1850 14.5860
L28.1850 16.5930
" />
<path d="M28.1850 16.5930
L28.1850 16.7870
" />
<path d="M28.1850 16.7870
L28.1850 16.9580
" />
<path d="M28.1850 16.9580
L27.8300 16.9580
" />
<path d="M28.1850 16.9580
L28.1850 17.0880
" />
<path d="M28.1850 17.0880
L27.8300 17.0880
" />
<path d="M28.8300 14.4480
L28.8300 12.0970
" />
<path d="M28.8300 14.5860
L28.8300 14.4480
" />
<path d="M28.8300 16.5930
L28.8300 14.5860
" />
<path d="M28.8300 16.7870
L28.8300 16.5930
" />
<path d="M28.8300 16.9580
L28.8300 16.7870
" />
<path d="M28.8300 17.0880
L28.8300 16.9580
" />
<path d="M29.1850 12.0970
L29.1850 14.4480
" />
<path d="M29.1850 14.4480
L29.1850 14.5860
" />
<path d="M29.1850 14.5860
L29.1850 16.5930
" />
<path d="M29.1850 16.5930
L29.1850 16.7870
" />
<path d="M29.1850 16.7870
L29.1850 16.9580
" />
<path d="M29.1850 16.9580
L28.8300 16.9580
" />
<path d="M29.1850 16.9580
L29.1850 17.0880
" />
<path d="M29.1850 17.0880
L28.8300 17.0880
" />
<path d="M29.8300 14.4480
L29.8300 12.0970
" />
<path d="M29.8300 14.5860
L29.8300 14.4480
" />
<path d="M29.8300 16.5930
L29.8300 14.5860
" />
<path d="M29.8300 16.7870
L29.8300 16.5930
" />
<path d="M29.8300 16.9580
L29.8300 16.7870
" />
<path d="M29.8300 17.0880
L29.8300 16.9580
" />
<path d="M30.1850 12.0970
L30.1850 14.4480
" />
<path d="M30.1850 14.4480
L30.1850 14.5860
" />
<path d="M30.1850 14.5860
L30.1850 16.5930
" />
<path d="M30.1850 16.5930
L30.1850 16.7870
" />
<path d="M30.1850 16.7870
L30.1850 16.9580
" />
<path d="M30.1850 16.9580
L29.8300 16.9580
" />
<path d="M30.1850 16.9580
L30.1850 17.0880
" />
<path d="M30.1850 17.0880
L29.8300 17.0880
" />
<path d="M30.8300 14.4480
L30.8300 12.0970
" />
<path d="M30.8300 14.5860
L30.8300 14.4480
" />
<path d="M30.8300 16.5930
L30.8300 14.5860
" />
<path d="M30.8300 16.7870
L30.8300 16.5930
" />
<path d="M30.8300 16.9580
L30.8300 16.7870
" />
<path d="M30.8300 17.0880
L30.8300 16.9580
" />
<path d="M31.1850 12.0970
L31.1850 14.4480
" />
<path d="M31.1850 14.4480
L31.1850 14.5860
" />
<path d="M31.1850 14.5860
L31.1850 16.5930
" />
<path d="M31.1850 16.5930
L31.1850 16.7870
" />
<path d="M31.1850 16.7870
L31.1850 16.9580
" />
<path d="M31.1850 16.9580
L30.8300 16.9580
" />
<path d="M31.1850 16.9580
L31.1850 17.0880
" />
<path d="M31.1850 17.0880
L30.8300 17.0880
" />
<path d="M31.8300 14.4480
L31.8300 12.0970
" />
<path d="M31.8300 14.5860
L31.8300 14.4480
" />
<path d="M31.8300 16.5930
L31.8300 14.5860
" />
<path d="M31.8300 16.7870
L31.8300 16.5930
" />
<path d="M31.8300 16.9580
L31.8300 16.7870
" />
<path d="M31.8300 17.0880
L31.8300 16.9580
" />
<path d="M32.0750 1.0470
L32.0750 3.8480
" />
<path d="M32.0750 3.8480
L27.9750 3.8480
" />
<path d="M32.0750 4.6480
L27.9750 4.6480
" />
<path d="M32.0750 4.6480
L32.0750 3.8480
" />
<path d="M32.1850 12.0970
L32.1850 14.4480
" />
<path d="M32.1850 14.4480
L32.1850 14.5860
" />
<path d="M32.1850 14.5860
L32.1850 16.5930
" />
<path d="M32.1850 16.5930
L32.1850 16.7870
" />
<path d="M32.1850 16.7870
L32.1850 16.9580
" />
<path d="M32.1850 16.9580
L31.8300 16.9580
" />
<path d="M32.1850 16.9580
L32.1850 17.0880
" />
<path d="M32.1850 17.0880
L31.8300 17.0880
" />
<path d="M32.8300 14.4480
L32.8300 12.0970
" />
<path d="M32.8300 14.5860
L32.8300 14.4480
" />
<path d="M32.8300 16.5930
L32.8300 14.5860
" />
<path d="M32.8300 16.7870
L32.8300 16.5930
" />
<path d="M32.8300 16.9580
L32.8300 16.7870
" />
<path d="M32.8300 17.0880
L32.8300 16.9580
" />
<path d="M33.1850 12.0970
L33.1850 14.4480
" />
<path d="M33.1850 14.4480
L33.1850 14.5860
" />
<path d="M33.1850 14.5860
L33.1850 16.5930
" />
<path d="M33.1850 16.5930
L33.1850 16.7870
" />
<path d="M33.1850 16.7870
L33.1850 16.9580
" />
<path d="M33.1850 16.9580
L32.8300 16.9580
" />
<path d="M33.1850 16.9580
L33.1850 17.0880
" />
<path d="M33.1850 17.0880
L32.8300 17.0880
" />
<path d="M33.4750 1.0470
L32.0750 1.0470
" />
<path d="M33.4750 1.0470
L37.5750 1.0470
" />
<path d="M33.4750 3.8480
L33.4750 1.0470
" />
<path d="M33.4750 4.6480
L33.4750 3.8480
" />
<path d="M33.8300 14.4480
L33.8300 12.0970
" />
<path d="M33.8300 14.5860
L33.8300 14.4480
" />
<path d="M33.8300 16.5930
L33.8300 14.5860
" />
<path d="M33.8300 16.7870
L33.8300 16.5930
" />
<path d="M33.8300 16.9580
L33.8300 16.7870
" />
<path d="M33.8300 17.0880
L33.8300 16.9580
" />
<path d="M34.1850 12.0970
L34.1850 14.4480
" />
<path d="M34.1850 14.4480
L34.1850 14.5860
" />
<path d="M34.1850 14.5860
L34.1850 16.5930
" />
<path d="M34.1850 16.5930
L34.1850 16.7870
" />
<path d="M34.1850 16.7870
L34.1850 16.9580
" />
<path d="M34.1850 16.9580
L33.8300 16.9580
" />
<path d="M34.1850 16.9580
L34.1850 17.0880
" />
<path d="M34.1850 17.0880
L33.8300 17.0880
" />
<path d="M34.8300 14.4480
L34.8300 12.0970
" />
<path d="M34.8300 14.5860
L34.8300 14.4480
" />
<path d="M34.8300 16.5930
L34.8300 14.5860
" />
<path d="M34.8300 16.7870
L34.8300 16.5930
" />
<path d="M34.8300 16.9580
L34.8300 16.7870
" />
<path d="M34.8300 17.0880
L34.8300 16.9580
" />
<path d="M35.1850 12.0970
L35.1850 14.4480
" />
<path d="M35.1850 14.4480
L35.1850 14.5860
" />
<path d="M35.1850 14.5860
L35.1850 16.5930
" />
<path d="M35.1850 16.5930
L35.1850 16.7870
" />
<path d="M35.1850 16.7870
L35.1850 16.9580
" />
<path d="M35.1850 16.9580
L34.8300 16.9580
" />
<path d="M35.1850 16.9580
L35.1850 17.0880
" />
<path d="M35.1850 17.0880
L34.8300 17.0880
" />
<path d="M35.8300 14.4480
L35.8300 12.0970
" />
<path d="M35.8300 14.5860
L35.8300 14.4480
" />
<path d="M35.8300 16.5930
L35.8300 14.5860
" />
<path d="M35.8300 16.7870
L35.8300 16.5930
" />
<path d="M35.8300 16.9580
L35.8300 16.7870
" />
<path d="M35.8300 17.0880
L35.8300 16.9580
" />
<path d="M36.1850 12.0970
L36.1850 14.4480
" />
<path d="M36.1850 14.4480
L36.1850 14.5860
" />
<path d="M36.1850 14.5860
L36.1850 16.5930
" />
<path d="M36.1850 16.5930
L36.1850 16.7870
" />
<path d="M36.1850 16.7870
L36.1850 16.9580
" />
<path d="M36.1850 16.9580
L35.8300 16.9580
" />
<path d="M36.1850 16.9580
L36.1850 17.0880
" />
<path d="M36.1850 17.0880
L35.8300 17.0880
" />
<path d="M36.8300 14.4480
L36.8300 12.0970
" />
<path d="M36.8300 14.5860
L36.8300 14.4480
" />
<path d="M36.8300 16.5930
L36.8300 14.5860
" />
<path d="M36.8300 16.7870
L36.8300 16.5930
" />
<path d="M36.8300 16.9580
L36.8300 16.7870
" />
<path d="M36.8300 17.0880
L36.8300 16.9580
" />
<path d="M37.1850 12.0970
L37.1850 14.4480
" />
<path d="M37.1850 14.4480
L37.1850 14.5860
" />
<path d="M37.1850 14.5860
L37.1850 16.5930
" />
<path d="M37.1850 16.5930
L37.1850 16.7870
" />
<path d="M37.1850 16.7870
L37.1850 16.9580
" />
<path d="M37.1850 16.9580
L36.8300 16.9580
" />
<path d="M37.1850 16.9580
L37.1850 17.0880
" />
<path d="M37.1850 17.0880
L36.8300 17.0880
" />
<path d="M37.5750 1.0470
L37.5750 3.8480
" />
<path d="M37.5750 3.8480
L33.4750 3.8480
" />
<path d="M37.5750 4.6480
L33.4750 4.6480
" />
<path d="M37.5750 4.6480
L37.5750 3.8480
" />
<path d="M38.9750 1.0470
L37.5750 1.0470
" />
<path d="M38.9750 1.0470
L40.0250 1.0470
" />
<path d="M38.9750 3.8480
L38.9750 1.0470
" />
<path d="M38.9750 4.6480
L38.9750 3.8480
" />
<path d="M40.0250 3.8480
L38.9750 3.8480
" />
<path d="M40.0250 3.8480
L40.0250 1.0470
" />
<path d="M40.0250 4.6480
L38.9750 4.6480
" />
<path d="M40.0250 4.6480
L40.0250 3.8480
" />
<path d="M40.0250 12.0970
L1.0250 12.0970
" />
<path d="M40.0250 12.0970
L40.0250 4.6480
" />
</g> 
</svg>
