<?xml version="1.0" standalone="no"?>
 <!DOCTYPE svg PUBLIC "-//W3C//DTD SVG 1.1//EN" 
 "http://www.w3.org/Graphics/SVG/1.1/DTD/svg11.dtd"> 
<svg
  xmlns:svg="http://www.w3.org/2000/svg"
  xmlns="http://www.w3.org/2000/svg"
  xmlns:xlink="http://www.w3.org/1999/xlink"
  xmlns:inkscape="http://www.inkscape.org/namespaces/inkscape"
  version="1.1"
  width="6.045200mm" height="3.530600mm" viewBox="0.000000 0.000000 6.045200 3.530600">
<title>SVG Image created as outline.svg date 2026-07-09T08:34:17 </title>
  <desc>Image generated by PCBNEW </desc>
<g style="fill:#000000; fill-opacity:1.000000;stroke:#000000; stroke-opacity:1.000000;
stroke-linecap:round; stroke-linejoin:round;"
 transform="translate(0 0) scale(1 1)">
</g>
<g style="fill:none; 
stroke:#000000; stroke-width:0.020000; stroke-opacity:1; 
stroke-linecap:round; stroke-linejoin:round;">
<path d="M1.525000 0.425000
L1.525000 3.125000
" />
<path d="M1.675000 3.275000
L4.375000 3.275000
" />
<path d="M4.375000 0.275000
L1.675000 0.275000
" />
<path d="M4.525000 3.125000
L4.525000 0.425000
" />
<path style="fill:none; 
stroke:#000000; stroke-width:0.020000; stroke-opacity:1; 
stroke-linecap:round; stroke-linejoin:round;fill:none"
d="M 0.575000,0.665000
1.525000,0.665000
1.525000,0.885000
0.575000,0.885000
Z" /> 
<path style="fill:none; 
stroke:#000000; stroke-width:0.020000; stroke-opacity:1; 
stroke-linecap:round; stroke-linejoin:round;fill:none"
d="M 0.575000,1.165000
1.525000,1.165000
1.525000,1.385000
0.575000,1.385000
Z" /> 
<path style="fill:none; 
stroke:#000000; stroke-width:0.020000; stroke-opacity:1; 
stroke-linecap:round; stroke-linejoin:round;fill:none"
d="M 0.575000,1.665000
1.525000,1.665000
1.525000,1.885000
0.575000,1.885000
Z" /> 
<path style="fill:none; 
stroke:#000000; stroke-width:0.020000; stroke-opacity:1; 
stroke-linecap:round; stroke-linejoin:round;fill:none"
d="M 0.575000,2.165000
1.525000,2.165000
1.525000,2.385000
0.575000,2.385000
Z" /> 
<path style="fill:none; 
stroke:#000000; stroke-width:0.020000; stroke-opacity:1; 
stroke-linecap:round; stroke-linejoin:round;fill:none"
d="M 0.575000,2.665000
1.525000,2.665000
1.525000,2.885000
0.575000,2.885000
Z" /> 
<path style="fill:none; 
stroke:#000000; stroke-width:0.020000; stroke-opacity:1; 
stroke-linecap:round; stroke-linejoin:round;fill:none"
d="M 4.525000,0.665000
5.475000,0.665000
5.475000,0.885000
4.525000,0.885000
Z" /> 
<path style="fill:none; 
stroke:#000000; stroke-width:0.020000; stroke-opacity:1; 
stroke-linecap:round; stroke-linejoin:round;fill:none"
d="M 4.525000,1.165000
5.475000,1.165000
5.475000,1.385000
4.525000,1.385000
Z" /> 
<path style="fill:none; 
stroke:#000000; stroke-width:0.020000; stroke-opacity:1; 
stroke-linecap:round; stroke-linejoin:round;fill:none"
d="M 4.525000,1.665000
5.475000,1.665000
5.475000,1.885000
4.525000,1.885000
Z" /> 
<path style="fill:none; 
stroke:#000000; stroke-width:0.020000; stroke-opacity:1; 
stroke-linecap:round; stroke-linejoin:round;fill:none"
d="M 4.525000,2.165000
5.475000,2.165000
5.475000,2.385000
4.525000,2.385000
Z" /> 
<path style="fill:none; 
stroke:#000000; stroke-width:0.020000; stroke-opacity:1; 
stroke-linecap:round; stroke-linejoin:round;fill:none"
d="M 4.525000,2.665000
5.475000,2.665000
5.475000,2.885000
4.525000,2.885000
Z" /> 
<path d="M1.675000 0.275000 A0.150000 0.150000 0.0 0 0 1.525000 0.425000" />
<path d="M1.525000 3.125000 A0.150000 0.150000 0.0 0 0 1.675000 3.275000" />
<path d="M4.525000 0.425000 A0.150000 0.150000 0.0 0 0 4.375000 0.275000" />
<path d="M4.375000 3.275000 A0.150000 0.150000 0.0 0 0 4.525000 3.125000" />
<circle cx="2.025000" cy="0.775000" r="0.125000" /> 
</g> 
</svg>
