<?xml version="1.0" standalone="no"?>
 <!DOCTYPE svg PUBLIC "-//W3C//DTD SVG 1.1//EN" 
 "http://www.w3.org/Graphics/SVG/1.1/DTD/svg11.dtd"> 
<svg
  xmlns:svg="http://www.w3.org/2000/svg"
  xmlns="http://www.w3.org/2000/svg"
  xmlns:xlink="http://www.w3.org/1999/xlink"
  version="1.1"
  width="6.2484mm" height="4.7244mm" viewBox="0.0000 0.0000 6.2484 4.7244">
<title>SVG Image created as outline.svg date 2025/06/16 09:18:17 </title>
  <desc>Image generated by PCBNEW </desc>
<g style="fill:#000000; fill-opacity:1.0000;stroke:#000000; stroke-opacity:1.0000;
stroke-linecap:round; stroke-linejoin:round;"
 transform="translate(0 0) scale(1 1)">
</g>
<g style="fill:none; 
stroke:#000000; stroke-width:0.0200; stroke-opacity:1; 
stroke-linecap:round; stroke-linejoin:round;">
<path d="M0.2710 0.5550
L0.2710 1.7050
" />
<path d="M0.2710 1.7050
L0.5250 1.7050
" />
<path d="M0.2710 3.0250
L0.2710 4.1750
" />
<path d="M0.2710 4.1750
L0.5510 4.4550
" />
<path d="M0.5060 1.7050
L0.5060 3.0250
" />
<path d="M0.5250 1.7050
L0.5250 3.0250
" />
<path d="M0.5250 3.0250
L0.2710 3.0250
" />
<path d="M0.5310 1.0570
L0.5310 3.6730
" />
<path d="M0.5310 3.6730
L0.5320 3.6990
" />
<path d="M0.5320 1.0310
L0.5310 1.0570
" />
<path d="M0.5320 3.6990
L0.5340 3.7240
" />
<path d="M0.5340 1.0060
L0.5320 1.0310
" />
<path d="M0.5340 3.7240
L0.5370 3.7500
" />
<path d="M0.5370 0.9800
L0.5340 1.0060
" />
<path d="M0.5370 3.7500
L0.5410 3.7750
" />
<path d="M0.5410 0.9550
L0.5370 0.9800
" />
<path d="M0.5410 3.7750
L0.5470 3.8000
" />
<path d="M0.5470 0.9300
L0.5410 0.9550
" />
<path d="M0.5470 3.8000
L0.5540 3.8240
" />
<path d="M0.5510 0.2760
L0.2710 0.5550
" />
<path d="M0.5510 4.4540
L5.7190 4.4540
" />
<path d="M0.5540 0.9060
L0.5470 0.9300
" />
<path d="M0.5540 3.8240
L0.5620 3.8490
" />
<path d="M0.5620 0.8810
L0.5540 0.9060
" />
<path d="M0.5620 3.8490
L0.5710 3.8720
" />
<path d="M0.5710 0.8580
L0.5620 0.8810
" />
<path d="M0.5710 3.8720
L0.5810 3.8950
" />
<path d="M0.5810 0.8350
L0.5710 0.8580
" />
<path d="M0.5810 3.8950
L0.5930 3.9180
" />
<path d="M0.5930 0.8120
L0.5810 0.8350
" />
<path d="M0.5930 3.9180
L0.6050 3.9400
" />
<path d="M0.6050 0.7900
L0.5930 0.8120
" />
<path d="M0.6050 3.9400
L0.6190 3.9620
" />
<path d="M0.6190 0.7680
L0.6050 0.7900
" />
<path d="M0.6190 3.9620
L0.6330 3.9830
" />
<path d="M0.6330 0.7470
L0.6190 0.7680
" />
<path d="M0.6330 3.9830
L0.6490 4.0030
" />
<path d="M0.6490 0.7270
L0.6330 0.7470
" />
<path d="M0.6490 4.0030
L0.6660 4.0220
" />
<path d="M0.6660 0.7080
L0.6490 0.7270
" />
<path d="M0.6660 4.0220
L0.6840 4.0410
" />
<path d="M0.6840 0.6890
L0.6660 0.7080
" />
</g>
<g style="fill:#000000; fill-opacity:1.0000; stroke:none;">
<circle cx="0.6840" cy="0.6890" r="0.0100" /> 
<circle cx="0.6840" cy="4.0410" r="0.0100" /> 
</g>
<g style="fill:none; 
stroke:#000000; stroke-width:0.0200; stroke-opacity:1; 
stroke-linecap:round; stroke-linejoin:round;">
<path d="M0.6840 4.0410
L0.7030 4.0590
" />
<path d="M0.7030 0.6710
L0.6840 0.6890
" />
<path d="M0.7030 4.0590
L0.7220 4.0760
" />
<path d="M0.7220 0.6540
L0.7030 0.6710
" />
<path d="M0.7220 4.0760
L0.7420 4.0920
" />
<path d="M0.7420 0.6380
L0.7220 0.6540
" />
<path d="M0.7420 4.0920
L0.7630 4.1060
" />
<path d="M0.7630 0.6240
L0.7420 0.6380
" />
<path d="M0.7630 4.1060
L0.7850 4.1200
" />
<path d="M0.7850 0.6100
L0.7630 0.6240
" />
<path d="M0.7850 4.1200
L0.8070 4.1320
" />
<path d="M0.8070 0.5980
L0.7850 0.6100
" />
<path d="M0.8070 4.1320
L0.8300 4.1440
" />
<path d="M0.8300 0.5860
L0.8070 0.5980
" />
<path d="M0.8300 4.1440
L0.8530 4.1540
" />
<path d="M0.8530 0.5760
L0.8300 0.5860
" />
<path d="M0.8530 4.1540
L0.8760 4.1630
" />
<path d="M0.8760 0.5670
L0.8530 0.5760
" />
<path d="M0.8760 4.1630
L0.9010 4.1710
" />
<path d="M0.9010 0.5590
L0.8760 0.5670
" />
<path d="M0.9010 4.1710
L0.9250 4.1780
" />
<path d="M0.9250 0.5520
L0.9010 0.5590
" />
<path d="M0.9250 4.1780
L0.9500 4.1840
" />
<path d="M0.9500 0.5460
L0.9250 0.5520
" />
<path d="M0.9500 4.1840
L0.9750 4.1880
" />
<path d="M0.9750 0.5420
L0.9500 0.5460
" />
<path d="M0.9750 4.1880
L1.0010 4.1910
" />
<path d="M1.0010 0.5390
L0.9750 0.5420
" />
<path d="M1.0010 4.1910
L1.0260 4.1930
" />
<path d="M1.0260 0.5370
L1.0010 0.5390
" />
<path d="M1.0260 4.1930
L1.0520 4.1940
" />
<path d="M1.0520 0.5360
L1.0260 0.5370
" />
<path d="M1.0520 4.1940
L5.2180 4.1940
" />
<path d="M5.2180 0.5360
L1.0520 0.5360
" />
<path d="M5.2180 4.1940
L5.2440 4.1930
" />
<path d="M5.2440 0.5370
L5.2180 0.5360
" />
<path d="M5.2440 4.1930
L5.2690 4.1910
" />
<path d="M5.2690 0.5390
L5.2440 0.5370
" />
<path d="M5.2690 4.1910
L5.2950 4.1880
" />
<path d="M5.2950 0.5420
L5.2690 0.5390
" />
<path d="M5.2950 4.1880
L5.3200 4.1840
" />
<path d="M5.3200 0.5460
L5.2950 0.5420
" />
<path d="M5.3200 4.1840
L5.3450 4.1780
" />
<path d="M5.3450 0.5520
L5.3200 0.5460
" />
<path d="M5.3450 4.1780
L5.3690 4.1710
" />
<path d="M5.3690 0.5590
L5.3450 0.5520
" />
<path d="M5.3690 4.1710
L5.3940 4.1630
" />
<path d="M5.3940 0.5670
L5.3690 0.5590
" />
<path d="M5.3940 4.1630
L5.4170 4.1540
" />
<path d="M5.4170 0.5760
L5.3940 0.5670
" />
<path d="M5.4170 4.1540
L5.4400 4.1440
" />
<path d="M5.4400 0.5860
L5.4170 0.5760
" />
<path d="M5.4400 4.1440
L5.4630 4.1320
" />
<path d="M5.4630 0.5980
L5.4400 0.5860
" />
<path d="M5.4630 4.1320
L5.4850 4.1200
" />
<path d="M5.4850 0.6100
L5.4630 0.5980
" />
<path d="M5.4850 4.1200
L5.5070 4.1060
" />
<path d="M5.5070 0.6240
L5.4850 0.6100
" />
<path d="M5.5070 4.1060
L5.5280 4.0920
" />
<path d="M5.5280 0.6380
L5.5070 0.6240
" />
<path d="M5.5280 4.0920
L5.5480 4.0760
" />
<path d="M5.5480 0.6540
L5.5280 0.6380
" />
<path d="M5.5480 4.0760
L5.5670 4.0590
" />
<path d="M5.5670 0.6710
L5.5480 0.6540
" />
<path d="M5.5670 4.0590
L5.5860 4.0410
" />
<path d="M5.5860 0.6890
L5.5670 0.6710
" />
</g>
<g style="fill:#000000; fill-opacity:1.0000; stroke:none;">
<circle cx="5.5860" cy="0.6890" r="0.0100" /> 
<circle cx="5.5860" cy="4.0410" r="0.0100" /> 
</g>
<g style="fill:none; 
stroke:#000000; stroke-width:0.0200; stroke-opacity:1; 
stroke-linecap:round; stroke-linejoin:round;">
<path d="M5.5860 4.0410
L5.6040 4.0220
" />
<path d="M5.6040 0.7080
L5.5860 0.6890
" />
<path d="M5.6040 4.0220
L5.6210 4.0030
" />
<path d="M5.6210 0.7270
L5.6040 0.7080
" />
<path d="M5.6210 4.0030
L5.6370 3.9830
" />
<path d="M5.6370 0.7470
L5.6210 0.7270
" />
<path d="M5.6370 3.9830
L5.6510 3.9620
" />
<path d="M5.6510 0.7680
L5.6370 0.7470
" />
<path d="M5.6510 3.9620
L5.6650 3.9400
" />
<path d="M5.6650 0.7900
L5.6510 0.7680
" />
<path d="M5.6650 3.9400
L5.6770 3.9180
" />
<path d="M5.6770 0.8120
L5.6650 0.7900
" />
<path d="M5.6770 3.9180
L5.6890 3.8950
" />
<path d="M5.6890 0.8350
L5.6770 0.8120
" />
<path d="M5.6890 3.8950
L5.6990 3.8720
" />
<path d="M5.6990 0.8580
L5.6890 0.8350
" />
<path d="M5.6990 3.8720
L5.7080 3.8490
" />
<path d="M5.7080 0.8810
L5.6990 0.8580
" />
<path d="M5.7080 3.8490
L5.7160 3.8240
" />
<path d="M5.7160 0.9060
L5.7080 0.8810
" />
<path d="M5.7160 3.8240
L5.7230 3.8000
" />
<path d="M5.7190 0.2760
L0.5510 0.2760
" />
<path d="M5.7190 4.4540
L5.9990 4.1750
" />
<path d="M5.7230 0.9300
L5.7160 0.9060
" />
<path d="M5.7230 3.8000
L5.7290 3.7750
" />
<path d="M5.7290 0.9550
L5.7230 0.9300
" />
<path d="M5.7290 3.7750
L5.7330 3.7500
" />
<path d="M5.7330 0.9800
L5.7290 0.9550
" />
<path d="M5.7330 3.7500
L5.7360 3.7240
" />
<path d="M5.7360 1.0060
L5.7330 0.9800
" />
<path d="M5.7360 3.7240
L5.7380 3.6990
" />
<path d="M5.7380 1.0310
L5.7360 1.0060
" />
<path d="M5.7380 3.6990
L5.7390 3.6730
" />
<path d="M5.7390 1.0570
L5.7380 1.0310
" />
<path d="M5.7390 3.6730
L5.7390 1.0570
" />
<path d="M5.7450 1.7050
L5.9990 1.7050
" />
<path d="M5.7450 3.0250
L5.7450 1.7050
" />
<path d="M5.7640 3.0250
L5.7640 1.7050
" />
<path d="M5.9990 0.5550
L5.7190 0.2750
" />
<path d="M5.9990 1.7050
L5.9990 0.5550
" />
<path d="M5.9990 3.0250
L5.7450 3.0250
" />
<path d="M5.9990 4.1750
L5.9990 3.0250
" />
</g> 
</svg>
