<?xml version="1.0" standalone="no"?>
 <!DOCTYPE svg PUBLIC "-//W3C//DTD SVG 1.1//EN" 
 "http://www.w3.org/Graphics/SVG/1.1/DTD/svg11.dtd"> 
<svg
  xmlns:svg="http://www.w3.org/2000/svg"
  xmlns="http://www.w3.org/2000/svg"
  xmlns:xlink="http://www.w3.org/1999/xlink"
  version="1.1"
  width="1.3970mm" height="0.8636mm" viewBox="0.0000 0.0000 1.3970 0.8636">
<title>SVG Image created as outline.svg date 2025/06/16 09:17:37 </title>
  <desc>Image generated by PCBNEW </desc>
<g style="fill:#000000; fill-opacity:1.0000;stroke:#000000; stroke-opacity:1.0000;
stroke-linecap:round; stroke-linejoin:round;"
 transform="translate(0 0) scale(1 1)">
</g>
<g style="fill:none; 
stroke:#000000; stroke-width:0.0200; stroke-opacity:1; 
stroke-linecap:round; stroke-linejoin:round;">
<path d="M0.1780 0.3100
L0.1780 0.5580
" />
<path d="M0.1780 0.5580
L0.2930 0.5580
" />
<path d="M0.2800 0.1090
L1.1280 0.1090
" />
<path d="M0.2800 0.3100
L0.2800 0.1090
" />
<path d="M0.2800 0.7590
L0.2800 0.5580
" />
<path d="M0.2930 0.3100
L0.1780 0.3100
" />
<path d="M0.2930 0.5580
L0.2930 0.3100
" />
<path d="M0.3160 0.1460
L0.2800 0.1090
" />
<path d="M0.3160 0.1460
L0.3160 0.7220
" />
<path d="M0.3160 0.7220
L0.2800 0.7590
" />
<path d="M0.3160 0.7220
L0.3800 0.7220
" />
<path d="M0.3800 0.1460
L0.3160 0.1460
" />
</g>
<g style="fill:#000000; fill-opacity:1.0000; stroke:none;">
<circle cx="0.3800" cy="0.1460" r="0.0100" /> 
</g>
<g style="fill:none; 
stroke:#000000; stroke-width:0.0200; stroke-opacity:1; 
stroke-linecap:round; stroke-linejoin:round;">
<path d="M0.3800 0.1460
L0.3800 0.7220
" />
</g>
<g style="fill:#000000; fill-opacity:1.0000; stroke:none;">
<circle cx="0.3800" cy="0.7220" r="0.0100" /> 
</g>
<g style="fill:none; 
stroke:#000000; stroke-width:0.0200; stroke-opacity:1; 
stroke-linecap:round; stroke-linejoin:round;">
<path d="M0.3800 0.7220
L0.4710 0.7220
" />
<path d="M0.4710 0.1460
L0.3800 0.1460
" />
</g>
<g style="fill:#000000; fill-opacity:1.0000; stroke:none;">
<circle cx="0.4710" cy="0.1460" r="0.0100" /> 
</g>
<g style="fill:none; 
stroke:#000000; stroke-width:0.0200; stroke-opacity:1; 
stroke-linecap:round; stroke-linejoin:round;">
<path d="M0.4710 0.7220
L0.4710 0.1460
" />
</g>
<g style="fill:#000000; fill-opacity:1.0000; stroke:none;">
<circle cx="0.4710" cy="0.7220" r="0.0100" /> 
</g>
<g style="fill:none; 
stroke:#000000; stroke-width:0.0200; stroke-opacity:1; 
stroke-linecap:round; stroke-linejoin:round;">
<path d="M0.4710 0.7220
L1.0920 0.7220
" />
<path d="M1.0920 0.1460
L0.4710 0.1460
" />
<path d="M1.0920 0.1460
L1.1280 0.1090
" />
<path d="M1.0920 0.7220
L1.0920 0.1460
" />
<path d="M1.0920 0.7220
L1.1280 0.7590
" />
<path d="M1.1150 0.5580
L1.1150 0.3100
" />
<path d="M1.1150 0.5580
L1.2300 0.5580
" />
<path d="M1.1280 0.1090
L1.1280 0.3100
" />
<path d="M1.1280 0.5580
L1.1280 0.7590
" />
<path d="M1.1280 0.7590
L0.2800 0.7590
" />
<path d="M1.2300 0.3100
L1.1150 0.3100
" />
<path d="M1.2300 0.5580
L1.2300 0.3100
" />
</g> 
</svg>
