<?xml version="1.0" standalone="no"?>
 <!DOCTYPE svg PUBLIC "-//W3C//DTD SVG 1.1//EN" 
 "http://www.w3.org/Graphics/SVG/1.1/DTD/svg11.dtd"> 
<svg
  xmlns:svg="http://www.w3.org/2000/svg"
  xmlns="http://www.w3.org/2000/svg"
  xmlns:xlink="http://www.w3.org/1999/xlink"
  version="1.1"
  width="15.2654mm" height="15.2654mm" viewBox="0.0000 0.0000 15.2654 15.2654">
<title>SVG Image created as outline.svg date 2025/06/16 09:17:45 </title>
  <desc>Image generated by PCBNEW </desc>
<g style="fill:#000000; fill-opacity:1.0000;stroke:#000000; stroke-opacity:1.0000;
stroke-linecap:round; stroke-linejoin:round;"
 transform="translate(0 0) scale(1 1)">
</g>
<g style="fill:none; 
stroke:#000000; stroke-width:0.0200; stroke-opacity:1; 
stroke-linecap:round; stroke-linejoin:round;">
<path d="M0.6370 2.7450
L0.8280 2.7450
" />
<path d="M0.6370 3.0250
L0.6370 2.7450
" />
<path d="M0.6370 3.2450
L0.8280 3.2450
" />
<path d="M0.6370 3.5250
L0.6370 3.2450
" />
<path d="M0.6370 3.7450
L0.8280 3.7450
" />
<path d="M0.6370 4.0250
L0.6370 3.7450
" />
<path d="M0.6370 4.2450
L0.8280 4.2450
" />
<path d="M0.6370 4.5250
L0.6370 4.2450
" />
<path d="M0.6370 4.7450
L0.8280 4.7450
" />
<path d="M0.6370 5.0250
L0.6370 4.7450
" />
<path d="M0.6370 5.2450
L0.8280 5.2450
" />
<path d="M0.6370 5.5250
L0.6370 5.2450
" />
<path d="M0.6370 5.7450
L0.8280 5.7450
" />
<path d="M0.6370 6.0250
L0.6370 5.7450
" />
<path d="M0.6370 6.2450
L0.8280 6.2450
" />
<path d="M0.6370 6.5250
L0.6370 6.2450
" />
<path d="M0.6370 6.7450
L0.8280 6.7450
" />
<path d="M0.6370 7.0250
L0.6370 6.7450
" />
<path d="M0.6370 7.2450
L0.8280 7.2450
" />
<path d="M0.6370 7.5250
L0.6370 7.2450
" />
<path d="M0.6370 7.7450
L0.8280 7.7450
" />
<path d="M0.6370 8.0250
L0.6370 7.7450
" />
<path d="M0.6370 8.2450
L0.8280 8.2450
" />
<path d="M0.6370 8.5250
L0.6370 8.2450
" />
<path d="M0.6370 8.7450
L0.8280 8.7450
" />
<path d="M0.6370 9.0250
L0.6370 8.7450
" />
<path d="M0.6370 9.2450
L0.8280 9.2450
" />
<path d="M0.6370 9.5250
L0.6370 9.2450
" />
<path d="M0.6370 9.7450
L0.8280 9.7450
" />
<path d="M0.6370 10.0250
L0.6370 9.7450
" />
<path d="M0.6370 10.2450
L0.8280 10.2450
" />
<path d="M0.6370 10.5250
L0.6370 10.2450
" />
<path d="M0.6370 10.7450
L0.8280 10.7450
" />
<path d="M0.6370 11.0250
L0.6370 10.7450
" />
<path d="M0.6370 11.2450
L0.8280 11.2450
" />
<path d="M0.6370 11.5250
L0.6370 11.2450
" />
<path d="M0.6370 11.7450
L0.8280 11.7450
" />
<path d="M0.6370 12.0250
L0.6370 11.7450
" />
<path d="M0.6370 12.2450
L0.8280 12.2450
" />
<path d="M0.6370 12.5250
L0.6370 12.2450
" />
<path d="M0.8280 2.7450
L1.0210 2.7450
" />
<path d="M0.8280 3.0250
L0.6370 3.0250
" />
<path d="M0.8280 3.2450
L1.0210 3.2450
" />
<path d="M0.8280 3.5250
L0.6370 3.5250
" />
<path d="M0.8280 3.7450
L1.0210 3.7450
" />
<path d="M0.8280 4.0250
L0.6370 4.0250
" />
<path d="M0.8280 4.2450
L1.0210 4.2450
" />
<path d="M0.8280 4.5250
L0.6370 4.5250
" />
<path d="M0.8280 4.7450
L1.0210 4.7450
" />
<path d="M0.8280 5.0250
L0.6370 5.0250
" />
<path d="M0.8280 5.2450
L1.0210 5.2450
" />
<path d="M0.8280 5.5250
L0.6370 5.5250
" />
<path d="M0.8280 5.7450
L1.0210 5.7450
" />
<path d="M0.8280 6.0250
L0.6370 6.0250
" />
<path d="M0.8280 6.2450
L1.0210 6.2450
" />
<path d="M0.8280 6.5250
L0.6370 6.5250
" />
<path d="M0.8280 6.7450
L1.0210 6.7450
" />
<path d="M0.8280 7.0250
L0.6370 7.0250
" />
<path d="M0.8280 7.2450
L1.0210 7.2450
" />
<path d="M0.8280 7.5250
L0.6370 7.5250
" />
<path d="M0.8280 7.7450
L1.0210 7.7450
" />
<path d="M0.8280 8.0250
L0.6370 8.0250
" />
<path d="M0.8280 8.2450
L1.0210 8.2450
" />
<path d="M0.8280 8.5250
L0.6370 8.5250
" />
<path d="M0.8280 8.7450
L1.0210 8.7450
" />
<path d="M0.8280 9.0250
L0.6370 9.0250
" />
<path d="M0.8280 9.2450
L1.0210 9.2450
" />
<path d="M0.8280 9.5250
L0.6370 9.5250
" />
<path d="M0.8280 9.7450
L1.0210 9.7450
" />
<path d="M0.8280 10.0250
L0.6370 10.0250
" />
<path d="M0.8280 10.2450
L1.0210 10.2450
" />
<path d="M0.8280 10.5250
L0.6370 10.5250
" />
<path d="M0.8280 10.7450
L1.0210 10.7450
" />
<path d="M0.8280 11.0250
L0.6370 11.0250
" />
<path d="M0.8280 11.2450
L1.0210 11.2450
" />
<path d="M0.8280 11.5250
L0.6370 11.5250
" />
<path d="M0.8280 11.7450
L1.0210 11.7450
" />
<path d="M0.8280 12.0250
L0.6370 12.0250
" />
<path d="M0.8280 12.2450
L1.0210 12.2450
" />
<path d="M0.8280 12.5250
L0.6370 12.5250
" />
<path d="M1.0210 3.0250
L0.8280 3.0250
" />
<path d="M1.0210 3.5250
L0.8280 3.5250
" />
<path d="M1.0210 4.0250
L0.8280 4.0250
" />
<path d="M1.0210 4.5250
L0.8280 4.5250
" />
<path d="M1.0210 5.0250
L0.8280 5.0250
" />
<path d="M1.0210 5.5250
L0.8280 5.5250
" />
<path d="M1.0210 6.0250
L0.8280 6.0250
" />
<path d="M1.0210 6.5250
L0.8280 6.5250
" />
<path d="M1.0210 7.0250
L0.8280 7.0250
" />
<path d="M1.0210 7.5250
L0.8280 7.5250
" />
<path d="M1.0210 8.0250
L0.8280 8.0250
" />
<path d="M1.0210 8.5250
L0.8280 8.5250
" />
<path d="M1.0210 9.0250
L0.8280 9.0250
" />
<path d="M1.0210 9.5250
L0.8280 9.5250
" />
<path d="M1.0210 10.0250
L0.8280 10.0250
" />
<path d="M1.0210 10.5250
L0.8280 10.5250
" />
<path d="M1.0210 11.0250
L0.8280 11.0250
" />
<path d="M1.0210 11.5250
L0.8280 11.5250
" />
<path d="M1.0210 12.0250
L0.8280 12.0250
" />
<path d="M1.0210 12.5250
L0.8280 12.5250
" />
<path d="M1.0220 2.7450
L1.0640 2.7450
" />
<path d="M1.0220 3.2450
L1.0640 3.2450
" />
<path d="M1.0220 3.7450
L1.0640 3.7450
" />
<path d="M1.0220 4.2450
L1.0640 4.2450
" />
<path d="M1.0220 4.7450
L1.0640 4.7450
" />
<path d="M1.0220 5.2450
L1.0640 5.2450
" />
<path d="M1.0220 5.7450
L1.0640 5.7450
" />
<path d="M1.0220 6.2450
L1.0640 6.2450
" />
<path d="M1.0220 6.7450
L1.0640 6.7450
" />
<path d="M1.0220 7.2450
L1.0640 7.2450
" />
<path d="M1.0220 7.7450
L1.0640 7.7450
" />
<path d="M1.0220 8.2450
L1.0640 8.2450
" />
<path d="M1.0220 8.7450
L1.0640 8.7450
" />
<path d="M1.0220 9.2450
L1.0640 9.2450
" />
<path d="M1.0220 9.7450
L1.0640 9.7450
" />
<path d="M1.0220 10.2450
L1.0640 10.2450
" />
<path d="M1.0220 10.7450
L1.0640 10.7450
" />
<path d="M1.0220 11.2450
L1.0640 11.2450
" />
<path d="M1.0220 11.7450
L1.0640 11.7450
" />
<path d="M1.0220 12.2450
L1.0640 12.2450
" />
<path d="M1.0630 3.0250
L1.0210 3.0250
" />
<path d="M1.0630 3.5250
L1.0210 3.5250
" />
<path d="M1.0630 4.0250
L1.0210 4.0250
" />
<path d="M1.0630 4.5250
L1.0210 4.5250
" />
<path d="M1.0630 5.0250
L1.0210 5.0250
" />
<path d="M1.0630 5.5250
L1.0210 5.5250
" />
<path d="M1.0630 6.0250
L1.0210 6.0250
" />
<path d="M1.0630 6.5250
L1.0210 6.5250
" />
<path d="M1.0630 7.0250
L1.0210 7.0250
" />
<path d="M1.0630 7.5250
L1.0210 7.5250
" />
<path d="M1.0630 8.0250
L1.0210 8.0250
" />
<path d="M1.0630 8.5250
L1.0210 8.5250
" />
<path d="M1.0630 9.0250
L1.0210 9.0250
" />
<path d="M1.0630 9.5250
L1.0210 9.5250
" />
<path d="M1.0630 10.0250
L1.0210 10.0250
" />
<path d="M1.0630 10.5250
L1.0210 10.5250
" />
<path d="M1.0630 11.0250
L1.0210 11.0250
" />
<path d="M1.0630 11.5250
L1.0210 11.5250
" />
<path d="M1.0630 12.0250
L1.0210 12.0250
" />
<path d="M1.0630 12.5250
L1.0210 12.5250
" />
<path d="M1.0640 2.7450
L1.4500 2.7450
" />
<path d="M1.0640 3.2450
L1.4500 3.2450
" />
<path d="M1.0640 3.7450
L1.4500 3.7450
" />
<path d="M1.0640 4.2450
L1.4500 4.2450
" />
<path d="M1.0640 4.7450
L1.4500 4.7450
" />
<path d="M1.0640 5.2450
L1.4500 5.2450
" />
<path d="M1.0640 5.7450
L1.4500 5.7450
" />
<path d="M1.0640 6.2450
L1.4500 6.2450
" />
<path d="M1.0640 6.7450
L1.4500 6.7450
" />
<path d="M1.0640 7.2450
L1.4500 7.2450
" />
<path d="M1.0640 7.7450
L1.4500 7.7450
" />
<path d="M1.0640 8.2450
L1.4500 8.2450
" />
<path d="M1.0640 8.7450
L1.4500 8.7450
" />
<path d="M1.0640 9.2450
L1.4500 9.2450
" />
<path d="M1.0640 9.7450
L1.4500 9.7450
" />
<path d="M1.0640 10.2450
L1.4500 10.2450
" />
<path d="M1.0640 10.7450
L1.4500 10.7450
" />
<path d="M1.0640 11.2450
L1.4500 11.2450
" />
<path d="M1.0640 11.7450
L1.4500 11.7450
" />
<path d="M1.0640 12.2450
L1.4500 12.2450
" />
<path d="M1.4500 2.7450
L1.6410 2.7450
" />
<path d="M1.4500 3.0250
L1.0640 3.0250
" />
<path d="M1.4500 3.2450
L1.6410 3.2450
" />
<path d="M1.4500 3.5250
L1.0640 3.5250
" />
<path d="M1.4500 3.7450
L1.6410 3.7450
" />
<path d="M1.4500 4.0250
L1.0640 4.0250
" />
<path d="M1.4500 4.2450
L1.6410 4.2450
" />
<path d="M1.4500 4.5250
L1.0640 4.5250
" />
<path d="M1.4500 4.7450
L1.6410 4.7450
" />
<path d="M1.4500 5.0250
L1.0640 5.0250
" />
<path d="M1.4500 5.2450
L1.6410 5.2450
" />
<path d="M1.4500 5.5250
L1.0640 5.5250
" />
<path d="M1.4500 5.7450
L1.6410 5.7450
" />
<path d="M1.4500 6.0250
L1.0640 6.0250
" />
<path d="M1.4500 6.2450
L1.6410 6.2450
" />
<path d="M1.4500 6.5250
L1.0640 6.5250
" />
<path d="M1.4500 6.7450
L1.6410 6.7450
" />
<path d="M1.4500 7.0250
L1.0640 7.0250
" />
<path d="M1.4500 7.2450
L1.6410 7.2450
" />
<path d="M1.4500 7.5250
L1.0640 7.5250
" />
<path d="M1.4500 7.7450
L1.6410 7.7450
" />
<path d="M1.4500 8.0250
L1.0640 8.0250
" />
<path d="M1.4500 8.2450
L1.6410 8.2450
" />
<path d="M1.4500 8.5250
L1.0640 8.5250
" />
<path d="M1.4500 8.7450
L1.6410 8.7450
" />
<path d="M1.4500 9.0250
L1.0640 9.0250
" />
<path d="M1.4500 9.2450
L1.6410 9.2450
" />
<path d="M1.4500 9.5250
L1.0640 9.5250
" />
<path d="M1.4500 9.7450
L1.6410 9.7450
" />
<path d="M1.4500 10.0250
L1.0640 10.0250
" />
<path d="M1.4500 10.2450
L1.6410 10.2450
" />
<path d="M1.4500 10.5250
L1.0640 10.5250
" />
<path d="M1.4500 10.7450
L1.6410 10.7450
" />
<path d="M1.4500 11.0250
L1.0640 11.0250
" />
<path d="M1.4500 11.2450
L1.6410 11.2450
" />
<path d="M1.4500 11.5250
L1.0640 11.5250
" />
<path d="M1.4500 11.7450
L1.6410 11.7450
" />
<path d="M1.4500 12.0250
L1.0640 12.0250
" />
<path d="M1.4500 12.2450
L1.6410 12.2450
" />
<path d="M1.4500 12.5250
L1.0640 12.5250
" />
<path d="M1.6410 1.6410
L13.6290 1.6410
" />
<path d="M1.6410 3.0250
L1.4500 3.0250
" />
<path d="M1.6410 3.5250
L1.4500 3.5250
" />
<path d="M1.6410 4.0250
L1.4500 4.0250
" />
<path d="M1.6410 4.5250
L1.4500 4.5250
" />
<path d="M1.6410 5.0250
L1.4500 5.0250
" />
<path d="M1.6410 5.5250
L1.4500 5.5250
" />
<path d="M1.6410 6.0250
L1.4500 6.0250
" />
<path d="M1.6410 6.5250
L1.4500 6.5250
" />
<path d="M1.6410 7.0250
L1.4500 7.0250
" />
<path d="M1.6410 7.5250
L1.4500 7.5250
" />
<path d="M1.6410 8.0250
L1.4500 8.0250
" />
<path d="M1.6410 8.5250
L1.4500 8.5250
" />
<path d="M1.6410 9.0250
L1.4500 9.0250
" />
<path d="M1.6410 9.5250
L1.4500 9.5250
" />
<path d="M1.6410 10.0250
L1.4500 10.0250
" />
<path d="M1.6410 10.5250
L1.4500 10.5250
" />
<path d="M1.6410 11.0250
L1.4500 11.0250
" />
<path d="M1.6410 11.5250
L1.4500 11.5250
" />
<path d="M1.6410 12.0250
L1.4500 12.0250
" />
<path d="M1.6410 12.5250
L1.4500 12.5250
" />
<path d="M1.6410 13.6290
L1.6410 1.6410
" />
<path d="M1.6410 13.6290
L1.7930 13.4770
" />
<path d="M1.7930 1.7930
L1.6410 1.6410
" />
<path d="M1.7930 1.7930
L13.4770 1.7930
" />
<path d="M1.7930 13.4770
L1.7930 1.7930
" />
</g>
<g style="fill:#000000; fill-opacity:1.0000; stroke:none;">
<circle cx="2.3660" cy="2.8850" r="0.0100" /> 
</g>
<g style="fill:none; 
stroke:#000000; stroke-width:0.0200; stroke-opacity:1; 
stroke-linecap:round; stroke-linejoin:round;">
<path d="M2.3660 2.8850
L2.3670 2.8970
" />
<path d="M2.3670 2.8600
L2.3670 2.8730
" />
<path d="M2.3670 2.8730
L2.3660 2.8850
" />
<path d="M2.3670 2.8970
L2.3670 2.9100
" />
<path d="M2.3670 2.9100
L2.3690 2.9220
" />
<path d="M2.3690 2.8480
L2.3670 2.8600
" />
<path d="M2.3690 2.9220
L2.3710 2.9330
" />
<path d="M2.3710 2.8370
L2.3690 2.8480
" />
<path d="M2.3710 2.9330
L2.3740 2.9450
" />
<path d="M2.3740 2.8250
L2.3710 2.8370
" />
<path d="M2.3740 2.9450
L2.3770 2.9560
" />
<path d="M2.3770 2.8140
L2.3740 2.8250
" />
<path d="M2.3770 2.9560
L2.3810 2.9670
" />
<path d="M2.3810 2.8030
L2.3770 2.8140
" />
<path d="M2.3810 2.9670
L2.3850 2.9780
" />
<path d="M2.3850 2.7920
L2.3810 2.8030
" />
<path d="M2.3850 2.9780
L2.3900 2.9890
" />
<path d="M2.3900 2.7810
L2.3850 2.7920
" />
<path d="M2.3900 2.9890
L2.3950 2.9990
" />
<path d="M2.3950 2.7710
L2.3900 2.7810
" />
<path d="M2.3950 2.9990
L2.4010 3.0090
" />
<path d="M2.4010 2.7610
L2.3950 2.7710
" />
<path d="M2.4010 3.0090
L2.4070 3.0190
" />
<path d="M2.4070 2.7510
L2.4010 2.7610
" />
<path d="M2.4070 3.0190
L2.4140 3.0280
" />
<path d="M2.4140 2.7420
L2.4070 2.7510
" />
<path d="M2.4140 3.0280
L2.4210 3.0380
" />
<path d="M2.4210 2.7320
L2.4140 2.7420
" />
<path d="M2.4210 3.0380
L2.4290 3.0460
" />
<path d="M2.4290 2.7240
L2.4210 2.7320
" />
<path d="M2.4290 3.0460
L2.4360 3.0550
" />
<path d="M2.4360 2.7150
L2.4290 2.7240
" />
<path d="M2.4360 3.0550
L2.4450 3.0620
" />
<path d="M2.4450 2.7080
L2.4360 2.7150
" />
<path d="M2.4450 3.0620
L2.4530 3.0700
" />
<path d="M2.4530 2.7000
L2.4450 2.7080
" />
<path d="M2.4530 3.0700
L2.4630 3.0770
" />
<path d="M2.4630 2.6930
L2.4530 2.7000
" />
<path d="M2.4630 3.0770
L2.4720 3.0840
" />
<path d="M2.4720 2.6860
L2.4630 2.6930
" />
<path d="M2.4720 3.0840
L2.4820 3.0900
" />
<path d="M2.4820 2.6800
L2.4720 2.6860
" />
<path d="M2.4820 3.0900
L2.4920 3.0960
" />
<path d="M2.4920 2.6740
L2.4820 2.6800
" />
<path d="M2.4920 3.0960
L2.5020 3.1010
" />
<path d="M2.5020 2.6690
L2.4920 2.6740
" />
<path d="M2.5020 3.1010
L2.5130 3.1060
" />
<path d="M2.5130 2.6640
L2.5020 2.6690
" />
<path d="M2.5130 3.1060
L2.5240 3.1100
" />
<path d="M2.5240 2.6600
L2.5130 2.6640
" />
<path d="M2.5240 3.1100
L2.5350 3.1140
" />
<path d="M2.5350 2.6560
L2.5240 2.6600
" />
<path d="M2.5350 3.1140
L2.5460 3.1170
" />
<path d="M2.5460 2.6530
L2.5350 2.6560
" />
<path d="M2.5460 3.1170
L2.5580 3.1200
" />
<path d="M2.5580 2.6500
L2.5460 2.6530
" />
<path d="M2.5580 3.1200
L2.5690 3.1220
" />
<path d="M2.5690 2.6480
L2.5580 2.6500
" />
<path d="M2.5690 3.1220
L2.5810 3.1240
" />
<path d="M2.5810 2.6460
L2.5690 2.6480
" />
<path d="M2.5810 3.1240
L2.5940 3.1240
" />
<path d="M2.5940 2.6460
L2.5810 2.6460
" />
<path d="M2.5940 3.1240
L2.6060 3.1250
" />
<path d="M2.6060 2.6450
L2.5940 2.6460
" />
</g>
<g style="fill:#000000; fill-opacity:1.0000; stroke:none;">
<circle cx="2.6060" cy="2.6450" r="0.0100" /> 
<circle cx="2.6060" cy="3.1250" r="0.0100" /> 
</g>
<g style="fill:none; 
stroke:#000000; stroke-width:0.0200; stroke-opacity:1; 
stroke-linecap:round; stroke-linejoin:round;">
<path d="M2.6060 3.1250
L2.6180 3.1240
" />
<path d="M2.6180 2.6460
L2.6060 2.6450
" />
<path d="M2.6180 3.1240
L2.6310 3.1240
" />
<path d="M2.6310 2.6460
L2.6180 2.6460
" />
<path d="M2.6310 3.1240
L2.6430 3.1220
" />
<path d="M2.6430 2.6480
L2.6310 2.6460
" />
<path d="M2.6430 3.1220
L2.6540 3.1200
" />
<path d="M2.6540 2.6500
L2.6430 2.6480
" />
<path d="M2.6540 3.1200
L2.6660 3.1170
" />
<path d="M2.6660 2.6530
L2.6540 2.6500
" />
<path d="M2.6660 3.1170
L2.6770 3.1140
" />
<path d="M2.6770 2.6560
L2.6660 2.6530
" />
<path d="M2.6770 3.1140
L2.6880 3.1100
" />
<path d="M2.6880 2.6600
L2.6770 2.6560
" />
<path d="M2.6880 3.1100
L2.6990 3.1060
" />
<path d="M2.6990 2.6640
L2.6880 2.6600
" />
<path d="M2.6990 3.1060
L2.7100 3.1010
" />
<path d="M2.7100 2.6690
L2.6990 2.6640
" />
<path d="M2.7100 3.1010
L2.7200 3.0960
" />
<path d="M2.7200 2.6740
L2.7100 2.6690
" />
<path d="M2.7200 3.0960
L2.7300 3.0900
" />
<path d="M2.7300 2.6800
L2.7200 2.6740
" />
<path d="M2.7300 3.0900
L2.7400 3.0840
" />
<path d="M2.7400 2.6860
L2.7300 2.6800
" />
<path d="M2.7400 3.0840
L2.7490 3.0770
" />
<path d="M2.7450 0.6370
L3.0250 0.6370
" />
<path d="M2.7450 0.8280
L2.7450 0.6370
" />
<path d="M2.7450 1.0210
L2.7450 0.8280
" />
<path d="M2.7450 1.0630
L2.7450 1.0210
" />
<path d="M2.7450 1.4500
L2.7450 1.0640
" />
<path d="M2.7450 1.6410
L2.7450 1.4500
" />
<path d="M2.7450 13.8200
L2.7450 13.6290
" />
<path d="M2.7450 14.2060
L2.7450 13.8200
" />
<path d="M2.7450 14.2480
L2.7450 14.2060
" />
<path d="M2.7450 14.4420
L2.7450 14.2490
" />
<path d="M2.7450 14.6330
L2.7450 14.4420
" />
<path d="M2.7490 2.6930
L2.7400 2.6860
" />
<path d="M2.7490 3.0770
L2.7590 3.0700
" />
<path d="M2.7590 2.7000
L2.7490 2.6930
" />
<path d="M2.7590 3.0700
L2.7670 3.0620
" />
<path d="M2.7670 2.7080
L2.7590 2.7000
" />
<path d="M2.7670 3.0620
L2.7760 3.0550
" />
<path d="M2.7760 2.7150
L2.7670 2.7080
" />
<path d="M2.7760 3.0550
L2.7830 3.0460
" />
<path d="M2.7830 2.7240
L2.7760 2.7150
" />
<path d="M2.7830 3.0460
L2.7910 3.0380
" />
<path d="M2.7910 2.7320
L2.7830 2.7240
" />
<path d="M2.7910 3.0380
L2.7980 3.0280
" />
<path d="M2.7980 2.7420
L2.7910 2.7320
" />
<path d="M2.7980 3.0280
L2.8050 3.0190
" />
<path d="M2.8050 2.7510
L2.7980 2.7420
" />
<path d="M2.8050 3.0190
L2.8110 3.0090
" />
<path d="M2.8110 2.7610
L2.8050 2.7510
" />
<path d="M2.8110 3.0090
L2.8170 2.9990
" />
<path d="M2.8170 2.7710
L2.8110 2.7610
" />
<path d="M2.8170 2.9990
L2.8220 2.9890
" />
<path d="M2.8220 2.7810
L2.8170 2.7710
" />
<path d="M2.8220 2.9890
L2.8270 2.9780
" />
<path d="M2.8270 2.7920
L2.8220 2.7810
" />
<path d="M2.8270 2.9780
L2.8310 2.9670
" />
<path d="M2.8310 2.8030
L2.8270 2.7920
" />
<path d="M2.8310 2.9670
L2.8350 2.9560
" />
<path d="M2.8350 2.8140
L2.8310 2.8030
" />
<path d="M2.8350 2.9560
L2.8380 2.9450
" />
<path d="M2.8380 2.8250
L2.8350 2.8140
" />
<path d="M2.8380 2.9450
L2.8410 2.9330
" />
<path d="M2.8410 2.8370
L2.8380 2.8250
" />
<path d="M2.8410 2.9330
L2.8430 2.9220
" />
<path d="M2.8430 2.8480
L2.8410 2.8370
" />
<path d="M2.8430 2.9220
L2.8450 2.9100
" />
<path d="M2.8450 2.8600
L2.8430 2.8480
" />
<path d="M2.8450 2.8730
L2.8450 2.8600
" />
<path d="M2.8450 2.8970
L2.8460 2.8850
" />
<path d="M2.8450 2.9100
L2.8450 2.8970
" />
<path d="M2.8460 2.8850
L2.8450 2.8730
" />
</g>
<g style="fill:#000000; fill-opacity:1.0000; stroke:none;">
<circle cx="2.8460" cy="2.8850" r="0.0100" /> 
<circle cx="2.8460" cy="2.8850" r="0.0100" /> 
</g>
<g style="fill:none; 
stroke:#000000; stroke-width:0.0200; stroke-opacity:1; 
stroke-linecap:round; stroke-linejoin:round;">
<path d="M3.0250 0.6370
L3.0250 0.8280
" />
<path d="M3.0250 0.8280
L3.0250 1.0210
" />
<path d="M3.0250 1.0220
L3.0250 1.0640
" />
<path d="M3.0250 1.0640
L3.0250 1.4500
" />
<path d="M3.0250 1.4500
L3.0250 1.6410
" />
<path d="M3.0250 13.6290
L3.0250 13.8200
" />
<path d="M3.0250 13.8200
L3.0250 14.2060
" />
<path d="M3.0250 14.2070
L3.0250 14.2490
" />
<path d="M3.0250 14.2490
L3.0250 14.4420
" />
<path d="M3.0250 14.4420
L3.0250 14.6330
" />
<path d="M3.0250 14.6330
L2.7450 14.6330
" />
<path d="M3.2450 0.6370
L3.5250 0.6370
" />
<path d="M3.2450 0.8280
L3.2450 0.6370
" />
<path d="M3.2450 1.0210
L3.2450 0.8280
" />
<path d="M3.2450 1.0630
L3.2450 1.0210
" />
<path d="M3.2450 1.4500
L3.2450 1.0640
" />
<path d="M3.2450 1.6410
L3.2450 1.4500
" />
<path d="M3.2450 13.8200
L3.2450 13.6290
" />
<path d="M3.2450 14.2060
L3.2450 13.8200
" />
<path d="M3.2450 14.2480
L3.2450 14.2060
" />
<path d="M3.2450 14.4420
L3.2450 14.2490
" />
<path d="M3.2450 14.6330
L3.2450 14.4420
" />
<path d="M3.5250 0.6370
L3.5250 0.8280
" />
<path d="M3.5250 0.8280
L3.5250 1.0210
" />
<path d="M3.5250 1.0220
L3.5250 1.0640
" />
<path d="M3.5250 1.0640
L3.5250 1.4500
" />
<path d="M3.5250 1.4500
L3.5250 1.6410
" />
<path d="M3.5250 13.6290
L3.5250 13.8200
" />
<path d="M3.5250 13.8200
L3.5250 14.2060
" />
<path d="M3.5250 14.2070
L3.5250 14.2490
" />
<path d="M3.5250 14.2490
L3.5250 14.4420
" />
<path d="M3.5250 14.4420
L3.5250 14.6330
" />
<path d="M3.5250 14.6330
L3.2450 14.6330
" />
<path d="M3.7450 0.6370
L4.0250 0.6370
" />
<path d="M3.7450 0.8280
L3.7450 0.6370
" />
<path d="M3.7450 1.0210
L3.7450 0.8280
" />
<path d="M3.7450 1.0630
L3.7450 1.0210
" />
<path d="M3.7450 1.4500
L3.7450 1.0640
" />
<path d="M3.7450 1.6410
L3.7450 1.4500
" />
<path d="M3.7450 13.8200
L3.7450 13.6290
" />
<path d="M3.7450 14.2060
L3.7450 13.8200
" />
<path d="M3.7450 14.2480
L3.7450 14.2060
" />
<path d="M3.7450 14.4420
L3.7450 14.2490
" />
<path d="M3.7450 14.6330
L3.7450 14.4420
" />
<path d="M4.0250 0.6370
L4.0250 0.8280
" />
<path d="M4.0250 0.8280
L4.0250 1.0210
" />
<path d="M4.0250 1.0220
L4.0250 1.0640
" />
<path d="M4.0250 1.0640
L4.0250 1.4500
" />
<path d="M4.0250 1.4500
L4.0250 1.6410
" />
<path d="M4.0250 13.6290
L4.0250 13.8200
" />
<path d="M4.0250 13.8200
L4.0250 14.2060
" />
<path d="M4.0250 14.2070
L4.0250 14.2490
" />
<path d="M4.0250 14.2490
L4.0250 14.4420
" />
<path d="M4.0250 14.4420
L4.0250 14.6330
" />
<path d="M4.0250 14.6330
L3.7450 14.6330
" />
<path d="M4.2450 0.6370
L4.5250 0.6370
" />
<path d="M4.2450 0.8280
L4.2450 0.6370
" />
<path d="M4.2450 1.0210
L4.2450 0.8280
" />
<path d="M4.2450 1.0630
L4.2450 1.0210
" />
<path d="M4.2450 1.4500
L4.2450 1.0640
" />
<path d="M4.2450 1.6410
L4.2450 1.4500
" />
<path d="M4.2450 13.8200
L4.2450 13.6290
" />
<path d="M4.2450 14.2060
L4.2450 13.8200
" />
<path d="M4.2450 14.2480
L4.2450 14.2060
" />
<path d="M4.2450 14.4420
L4.2450 14.2490
" />
<path d="M4.2450 14.6330
L4.2450 14.4420
" />
<path d="M4.5250 0.6370
L4.5250 0.8280
" />
<path d="M4.5250 0.8280
L4.5250 1.0210
" />
<path d="M4.5250 1.0220
L4.5250 1.0640
" />
<path d="M4.5250 1.0640
L4.5250 1.4500
" />
<path d="M4.5250 1.4500
L4.5250 1.6410
" />
<path d="M4.5250 13.6290
L4.5250 13.8200
" />
<path d="M4.5250 13.8200
L4.5250 14.2060
" />
<path d="M4.5250 14.2070
L4.5250 14.2490
" />
<path d="M4.5250 14.2490
L4.5250 14.4420
" />
<path d="M4.5250 14.4420
L4.5250 14.6330
" />
<path d="M4.5250 14.6330
L4.2450 14.6330
" />
<path d="M4.7450 0.6370
L5.0250 0.6370
" />
<path d="M4.7450 0.8280
L4.7450 0.6370
" />
<path d="M4.7450 1.0210
L4.7450 0.8280
" />
<path d="M4.7450 1.0630
L4.7450 1.0210
" />
<path d="M4.7450 1.4500
L4.7450 1.0640
" />
<path d="M4.7450 1.6410
L4.7450 1.4500
" />
<path d="M4.7450 13.8200
L4.7450 13.6290
" />
<path d="M4.7450 14.2060
L4.7450 13.8200
" />
<path d="M4.7450 14.2480
L4.7450 14.2060
" />
<path d="M4.7450 14.4420
L4.7450 14.2490
" />
<path d="M4.7450 14.6330
L4.7450 14.4420
" />
<path d="M5.0250 0.6370
L5.0250 0.8280
" />
<path d="M5.0250 0.8280
L5.0250 1.0210
" />
<path d="M5.0250 1.0220
L5.0250 1.0640
" />
<path d="M5.0250 1.0640
L5.0250 1.4500
" />
<path d="M5.0250 1.4500
L5.0250 1.6410
" />
<path d="M5.0250 13.6290
L5.0250 13.8200
" />
<path d="M5.0250 13.8200
L5.0250 14.2060
" />
<path d="M5.0250 14.2070
L5.0250 14.2490
" />
<path d="M5.0250 14.2490
L5.0250 14.4420
" />
<path d="M5.0250 14.4420
L5.0250 14.6330
" />
<path d="M5.0250 14.6330
L4.7450 14.6330
" />
<path d="M5.2450 0.6370
L5.5250 0.6370
" />
<path d="M5.2450 0.8280
L5.2450 0.6370
" />
<path d="M5.2450 1.0210
L5.2450 0.8280
" />
<path d="M5.2450 1.0630
L5.2450 1.0210
" />
<path d="M5.2450 1.4500
L5.2450 1.0640
" />
<path d="M5.2450 1.6410
L5.2450 1.4500
" />
<path d="M5.2450 13.8200
L5.2450 13.6290
" />
<path d="M5.2450 14.2060
L5.2450 13.8200
" />
<path d="M5.2450 14.2480
L5.2450 14.2060
" />
<path d="M5.2450 14.4420
L5.2450 14.2490
" />
<path d="M5.2450 14.6330
L5.2450 14.4420
" />
<path d="M5.5250 0.6370
L5.5250 0.8280
" />
<path d="M5.5250 0.8280
L5.5250 1.0210
" />
<path d="M5.5250 1.0220
L5.5250 1.0640
" />
<path d="M5.5250 1.0640
L5.5250 1.4500
" />
<path d="M5.5250 1.4500
L5.5250 1.6410
" />
<path d="M5.5250 13.6290
L5.5250 13.8200
" />
<path d="M5.5250 13.8200
L5.5250 14.2060
" />
<path d="M5.5250 14.2070
L5.5250 14.2490
" />
<path d="M5.5250 14.2490
L5.5250 14.4420
" />
<path d="M5.5250 14.4420
L5.5250 14.6330
" />
<path d="M5.5250 14.6330
L5.2450 14.6330
" />
<path d="M5.7450 0.6370
L6.0250 0.6370
" />
<path d="M5.7450 0.8280
L5.7450 0.6370
" />
<path d="M5.7450 1.0210
L5.7450 0.8280
" />
<path d="M5.7450 1.0630
L5.7450 1.0210
" />
<path d="M5.7450 1.4500
L5.7450 1.0640
" />
<path d="M5.7450 1.6410
L5.7450 1.4500
" />
<path d="M5.7450 13.8200
L5.7450 13.6290
" />
<path d="M5.7450 14.2060
L5.7450 13.8200
" />
<path d="M5.7450 14.2480
L5.7450 14.2060
" />
<path d="M5.7450 14.4420
L5.7450 14.2490
" />
<path d="M5.7450 14.6330
L5.7450 14.4420
" />
<path d="M6.0250 0.6370
L6.0250 0.8280
" />
<path d="M6.0250 0.8280
L6.0250 1.0210
" />
<path d="M6.0250 1.0220
L6.0250 1.0640
" />
<path d="M6.0250 1.0640
L6.0250 1.4500
" />
<path d="M6.0250 1.4500
L6.0250 1.6410
" />
<path d="M6.0250 13.6290
L6.0250 13.8200
" />
<path d="M6.0250 13.8200
L6.0250 14.2060
" />
<path d="M6.0250 14.2070
L6.0250 14.2490
" />
<path d="M6.0250 14.2490
L6.0250 14.4420
" />
<path d="M6.0250 14.4420
L6.0250 14.6330
" />
<path d="M6.0250 14.6330
L5.7450 14.6330
" />
<path d="M6.2450 0.6370
L6.5250 0.6370
" />
<path d="M6.2450 0.8280
L6.2450 0.6370
" />
<path d="M6.2450 1.0210
L6.2450 0.8280
" />
<path d="M6.2450 1.0630
L6.2450 1.0210
" />
<path d="M6.2450 1.4500
L6.2450 1.0640
" />
<path d="M6.2450 1.6410
L6.2450 1.4500
" />
<path d="M6.2450 13.8200
L6.2450 13.6290
" />
<path d="M6.2450 14.2060
L6.2450 13.8200
" />
<path d="M6.2450 14.2480
L6.2450 14.2060
" />
<path d="M6.2450 14.4420
L6.2450 14.2490
" />
<path d="M6.2450 14.6330
L6.2450 14.4420
" />
<path d="M6.5250 0.6370
L6.5250 0.8280
" />
<path d="M6.5250 0.8280
L6.5250 1.0210
" />
<path d="M6.5250 1.0220
L6.5250 1.0640
" />
<path d="M6.5250 1.0640
L6.5250 1.4500
" />
<path d="M6.5250 1.4500
L6.5250 1.6410
" />
<path d="M6.5250 13.6290
L6.5250 13.8200
" />
<path d="M6.5250 13.8200
L6.5250 14.2060
" />
<path d="M6.5250 14.2070
L6.5250 14.2490
" />
<path d="M6.5250 14.2490
L6.5250 14.4420
" />
<path d="M6.5250 14.4420
L6.5250 14.6330
" />
<path d="M6.5250 14.6330
L6.2450 14.6330
" />
<path d="M6.7450 0.6370
L7.0250 0.6370
" />
<path d="M6.7450 0.8280
L6.7450 0.6370
" />
<path d="M6.7450 1.0210
L6.7450 0.8280
" />
<path d="M6.7450 1.0630
L6.7450 1.0210
" />
<path d="M6.7450 1.4500
L6.7450 1.0640
" />
<path d="M6.7450 1.6410
L6.7450 1.4500
" />
<path d="M6.7450 13.8200
L6.7450 13.6290
" />
<path d="M6.7450 14.2060
L6.7450 13.8200
" />
<path d="M6.7450 14.2480
L6.7450 14.2060
" />
<path d="M6.7450 14.4420
L6.7450 14.2490
" />
<path d="M6.7450 14.6330
L6.7450 14.4420
" />
<path d="M7.0250 0.6370
L7.0250 0.8280
" />
<path d="M7.0250 0.8280
L7.0250 1.0210
" />
<path d="M7.0250 1.0220
L7.0250 1.0640
" />
<path d="M7.0250 1.0640
L7.0250 1.4500
" />
<path d="M7.0250 1.4500
L7.0250 1.6410
" />
<path d="M7.0250 13.6290
L7.0250 13.8200
" />
<path d="M7.0250 13.8200
L7.0250 14.2060
" />
<path d="M7.0250 14.2070
L7.0250 14.2490
" />
<path d="M7.0250 14.2490
L7.0250 14.4420
" />
<path d="M7.0250 14.4420
L7.0250 14.6330
" />
<path d="M7.0250 14.6330
L6.7450 14.6330
" />
<path d="M7.2450 0.6370
L7.5250 0.6370
" />
<path d="M7.2450 0.8280
L7.2450 0.6370
" />
<path d="M7.2450 1.0210
L7.2450 0.8280
" />
<path d="M7.2450 1.0630
L7.2450 1.0210
" />
<path d="M7.2450 1.4500
L7.2450 1.0640
" />
<path d="M7.2450 1.6410
L7.2450 1.4500
" />
<path d="M7.2450 13.8200
L7.2450 13.6290
" />
<path d="M7.2450 14.2060
L7.2450 13.8200
" />
<path d="M7.2450 14.2480
L7.2450 14.2060
" />
<path d="M7.2450 14.4420
L7.2450 14.2490
" />
<path d="M7.2450 14.6330
L7.2450 14.4420
" />
<path d="M7.5250 0.6370
L7.5250 0.8280
" />
<path d="M7.5250 0.8280
L7.5250 1.0210
" />
<path d="M7.5250 1.0220
L7.5250 1.0640
" />
<path d="M7.5250 1.0640
L7.5250 1.4500
" />
<path d="M7.5250 1.4500
L7.5250 1.6410
" />
<path d="M7.5250 13.6290
L7.5250 13.8200
" />
<path d="M7.5250 13.8200
L7.5250 14.2060
" />
<path d="M7.5250 14.2070
L7.5250 14.2490
" />
<path d="M7.5250 14.2490
L7.5250 14.4420
" />
<path d="M7.5250 14.4420
L7.5250 14.6330
" />
<path d="M7.5250 14.6330
L7.2450 14.6330
" />
<path d="M7.7450 0.6370
L8.0250 0.6370
" />
<path d="M7.7450 0.8280
L7.7450 0.6370
" />
<path d="M7.7450 1.0210
L7.7450 0.8280
" />
<path d="M7.7450 1.0630
L7.7450 1.0210
" />
<path d="M7.7450 1.4500
L7.7450 1.0640
" />
<path d="M7.7450 1.6410
L7.7450 1.4500
" />
<path d="M7.7450 13.8200
L7.7450 13.6290
" />
<path d="M7.7450 14.2060
L7.7450 13.8200
" />
<path d="M7.7450 14.2480
L7.7450 14.2060
" />
<path d="M7.7450 14.4420
L7.7450 14.2490
" />
<path d="M7.7450 14.6330
L7.7450 14.4420
" />
<path d="M8.0250 0.6370
L8.0250 0.8280
" />
<path d="M8.0250 0.8280
L8.0250 1.0210
" />
<path d="M8.0250 1.0220
L8.0250 1.0640
" />
<path d="M8.0250 1.0640
L8.0250 1.4500
" />
<path d="M8.0250 1.4500
L8.0250 1.6410
" />
<path d="M8.0250 13.6290
L8.0250 13.8200
" />
<path d="M8.0250 13.8200
L8.0250 14.2060
" />
<path d="M8.0250 14.2070
L8.0250 14.2490
" />
<path d="M8.0250 14.2490
L8.0250 14.4420
" />
<path d="M8.0250 14.4420
L8.0250 14.6330
" />
<path d="M8.0250 14.6330
L7.7450 14.6330
" />
<path d="M8.2450 0.6370
L8.5250 0.6370
" />
<path d="M8.2450 0.8280
L8.2450 0.6370
" />
<path d="M8.2450 1.0210
L8.2450 0.8280
" />
<path d="M8.2450 1.0630
L8.2450 1.0210
" />
<path d="M8.2450 1.4500
L8.2450 1.0640
" />
<path d="M8.2450 1.6410
L8.2450 1.4500
" />
<path d="M8.2450 13.8200
L8.2450 13.6290
" />
<path d="M8.2450 14.2060
L8.2450 13.8200
" />
<path d="M8.2450 14.2480
L8.2450 14.2060
" />
<path d="M8.2450 14.4420
L8.2450 14.2490
" />
<path d="M8.2450 14.6330
L8.2450 14.4420
" />
<path d="M8.5250 0.6370
L8.5250 0.8280
" />
<path d="M8.5250 0.8280
L8.5250 1.0210
" />
<path d="M8.5250 1.0220
L8.5250 1.0640
" />
<path d="M8.5250 1.0640
L8.5250 1.4500
" />
<path d="M8.5250 1.4500
L8.5250 1.6410
" />
<path d="M8.5250 13.6290
L8.5250 13.8200
" />
<path d="M8.5250 13.8200
L8.5250 14.2060
" />
<path d="M8.5250 14.2070
L8.5250 14.2490
" />
<path d="M8.5250 14.2490
L8.5250 14.4420
" />
<path d="M8.5250 14.4420
L8.5250 14.6330
" />
<path d="M8.5250 14.6330
L8.2450 14.6330
" />
<path d="M8.7450 0.6370
L9.0250 0.6370
" />
<path d="M8.7450 0.8280
L8.7450 0.6370
" />
<path d="M8.7450 1.0210
L8.7450 0.8280
" />
<path d="M8.7450 1.0630
L8.7450 1.0210
" />
<path d="M8.7450 1.4500
L8.7450 1.0640
" />
<path d="M8.7450 1.6410
L8.7450 1.4500
" />
<path d="M8.7450 13.8200
L8.7450 13.6290
" />
<path d="M8.7450 14.2060
L8.7450 13.8200
" />
<path d="M8.7450 14.2480
L8.7450 14.2060
" />
<path d="M8.7450 14.4420
L8.7450 14.2490
" />
<path d="M8.7450 14.6330
L8.7450 14.4420
" />
<path d="M9.0250 0.6370
L9.0250 0.8280
" />
<path d="M9.0250 0.8280
L9.0250 1.0210
" />
<path d="M9.0250 1.0220
L9.0250 1.0640
" />
<path d="M9.0250 1.0640
L9.0250 1.4500
" />
<path d="M9.0250 1.4500
L9.0250 1.6410
" />
<path d="M9.0250 13.6290
L9.0250 13.8200
" />
<path d="M9.0250 13.8200
L9.0250 14.2060
" />
<path d="M9.0250 14.2070
L9.0250 14.2490
" />
<path d="M9.0250 14.2490
L9.0250 14.4420
" />
<path d="M9.0250 14.4420
L9.0250 14.6330
" />
<path d="M9.0250 14.6330
L8.7450 14.6330
" />
<path d="M9.2450 0.6370
L9.5250 0.6370
" />
<path d="M9.2450 0.8280
L9.2450 0.6370
" />
<path d="M9.2450 1.0210
L9.2450 0.8280
" />
<path d="M9.2450 1.0630
L9.2450 1.0210
" />
<path d="M9.2450 1.4500
L9.2450 1.0640
" />
<path d="M9.2450 1.6410
L9.2450 1.4500
" />
<path d="M9.2450 13.8200
L9.2450 13.6290
" />
<path d="M9.2450 14.2060
L9.2450 13.8200
" />
<path d="M9.2450 14.2480
L9.2450 14.2060
" />
<path d="M9.2450 14.4420
L9.2450 14.2490
" />
<path d="M9.2450 14.6330
L9.2450 14.4420
" />
<path d="M9.5250 0.6370
L9.5250 0.8280
" />
<path d="M9.5250 0.8280
L9.5250 1.0210
" />
<path d="M9.5250 1.0220
L9.5250 1.0640
" />
<path d="M9.5250 1.0640
L9.5250 1.4500
" />
<path d="M9.5250 1.4500
L9.5250 1.6410
" />
<path d="M9.5250 13.6290
L9.5250 13.8200
" />
<path d="M9.5250 13.8200
L9.5250 14.2060
" />
<path d="M9.5250 14.2070
L9.5250 14.2490
" />
<path d="M9.5250 14.2490
L9.5250 14.4420
" />
<path d="M9.5250 14.4420
L9.5250 14.6330
" />
<path d="M9.5250 14.6330
L9.2450 14.6330
" />
<path d="M9.7450 0.6370
L10.0250 0.6370
" />
<path d="M9.7450 0.8280
L9.7450 0.6370
" />
<path d="M9.7450 1.0210
L9.7450 0.8280
" />
<path d="M9.7450 1.0630
L9.7450 1.0210
" />
<path d="M9.7450 1.4500
L9.7450 1.0640
" />
<path d="M9.7450 1.6410
L9.7450 1.4500
" />
<path d="M9.7450 13.8200
L9.7450 13.6290
" />
<path d="M9.7450 14.2060
L9.7450 13.8200
" />
<path d="M9.7450 14.2480
L9.7450 14.2060
" />
<path d="M9.7450 14.4420
L9.7450 14.2490
" />
<path d="M9.7450 14.6330
L9.7450 14.4420
" />
<path d="M10.0250 0.6370
L10.0250 0.8280
" />
<path d="M10.0250 0.8280
L10.0250 1.0210
" />
<path d="M10.0250 1.0220
L10.0250 1.0640
" />
<path d="M10.0250 1.0640
L10.0250 1.4500
" />
<path d="M10.0250 1.4500
L10.0250 1.6410
" />
<path d="M10.0250 13.6290
L10.0250 13.8200
" />
<path d="M10.0250 13.8200
L10.0250 14.2060
" />
<path d="M10.0250 14.2070
L10.0250 14.2490
" />
<path d="M10.0250 14.2490
L10.0250 14.4420
" />
<path d="M10.0250 14.4420
L10.0250 14.6330
" />
<path d="M10.0250 14.6330
L9.7450 14.6330
" />
<path d="M10.2450 0.6370
L10.5250 0.6370
" />
<path d="M10.2450 0.8280
L10.2450 0.6370
" />
<path d="M10.2450 1.0210
L10.2450 0.8280
" />
<path d="M10.2450 1.0630
L10.2450 1.0210
" />
<path d="M10.2450 1.4500
L10.2450 1.0640
" />
<path d="M10.2450 1.6410
L10.2450 1.4500
" />
<path d="M10.2450 13.8200
L10.2450 13.6290
" />
<path d="M10.2450 14.2060
L10.2450 13.8200
" />
<path d="M10.2450 14.2480
L10.2450 14.2060
" />
<path d="M10.2450 14.4420
L10.2450 14.2490
" />
<path d="M10.2450 14.6330
L10.2450 14.4420
" />
<path d="M10.5250 0.6370
L10.5250 0.8280
" />
<path d="M10.5250 0.8280
L10.5250 1.0210
" />
<path d="M10.5250 1.0220
L10.5250 1.0640
" />
<path d="M10.5250 1.0640
L10.5250 1.4500
" />
<path d="M10.5250 1.4500
L10.5250 1.6410
" />
<path d="M10.5250 13.6290
L10.5250 13.8200
" />
<path d="M10.5250 13.8200
L10.5250 14.2060
" />
<path d="M10.5250 14.2070
L10.5250 14.2490
" />
<path d="M10.5250 14.2490
L10.5250 14.4420
" />
<path d="M10.5250 14.4420
L10.5250 14.6330
" />
<path d="M10.5250 14.6330
L10.2450 14.6330
" />
<path d="M10.7450 0.6370
L11.0250 0.6370
" />
<path d="M10.7450 0.8280
L10.7450 0.6370
" />
<path d="M10.7450 1.0210
L10.7450 0.8280
" />
<path d="M10.7450 1.0630
L10.7450 1.0210
" />
<path d="M10.7450 1.4500
L10.7450 1.0640
" />
<path d="M10.7450 1.6410
L10.7450 1.4500
" />
<path d="M10.7450 13.8200
L10.7450 13.6290
" />
<path d="M10.7450 14.2060
L10.7450 13.8200
" />
<path d="M10.7450 14.2480
L10.7450 14.2060
" />
<path d="M10.7450 14.4420
L10.7450 14.2490
" />
<path d="M10.7450 14.6330
L10.7450 14.4420
" />
<path d="M11.0250 0.6370
L11.0250 0.8280
" />
<path d="M11.0250 0.8280
L11.0250 1.0210
" />
<path d="M11.0250 1.0220
L11.0250 1.0640
" />
<path d="M11.0250 1.0640
L11.0250 1.4500
" />
<path d="M11.0250 1.4500
L11.0250 1.6410
" />
<path d="M11.0250 13.6290
L11.0250 13.8200
" />
<path d="M11.0250 13.8200
L11.0250 14.2060
" />
<path d="M11.0250 14.2070
L11.0250 14.2490
" />
<path d="M11.0250 14.2490
L11.0250 14.4420
" />
<path d="M11.0250 14.4420
L11.0250 14.6330
" />
<path d="M11.0250 14.6330
L10.7450 14.6330
" />
<path d="M11.2450 0.6370
L11.5250 0.6370
" />
<path d="M11.2450 0.8280
L11.2450 0.6370
" />
<path d="M11.2450 1.0210
L11.2450 0.8280
" />
<path d="M11.2450 1.0630
L11.2450 1.0210
" />
<path d="M11.2450 1.4500
L11.2450 1.0640
" />
<path d="M11.2450 1.6410
L11.2450 1.4500
" />
<path d="M11.2450 13.8200
L11.2450 13.6290
" />
<path d="M11.2450 14.2060
L11.2450 13.8200
" />
<path d="M11.2450 14.2480
L11.2450 14.2060
" />
<path d="M11.2450 14.4420
L11.2450 14.2490
" />
<path d="M11.2450 14.6330
L11.2450 14.4420
" />
<path d="M11.5250 0.6370
L11.5250 0.8280
" />
<path d="M11.5250 0.8280
L11.5250 1.0210
" />
<path d="M11.5250 1.0220
L11.5250 1.0640
" />
<path d="M11.5250 1.0640
L11.5250 1.4500
" />
<path d="M11.5250 1.4500
L11.5250 1.6410
" />
<path d="M11.5250 13.6290
L11.5250 13.8200
" />
<path d="M11.5250 13.8200
L11.5250 14.2060
" />
<path d="M11.5250 14.2070
L11.5250 14.2490
" />
<path d="M11.5250 14.2490
L11.5250 14.4420
" />
<path d="M11.5250 14.4420
L11.5250 14.6330
" />
<path d="M11.5250 14.6330
L11.2450 14.6330
" />
<path d="M11.7450 0.6370
L12.0250 0.6370
" />
<path d="M11.7450 0.8280
L11.7450 0.6370
" />
<path d="M11.7450 1.0210
L11.7450 0.8280
" />
<path d="M11.7450 1.0630
L11.7450 1.0210
" />
<path d="M11.7450 1.4500
L11.7450 1.0640
" />
<path d="M11.7450 1.6410
L11.7450 1.4500
" />
<path d="M11.7450 13.8200
L11.7450 13.6290
" />
<path d="M11.7450 14.2060
L11.7450 13.8200
" />
<path d="M11.7450 14.2480
L11.7450 14.2060
" />
<path d="M11.7450 14.4420
L11.7450 14.2490
" />
<path d="M11.7450 14.6330
L11.7450 14.4420
" />
<path d="M12.0250 0.6370
L12.0250 0.8280
" />
<path d="M12.0250 0.8280
L12.0250 1.0210
" />
<path d="M12.0250 1.0220
L12.0250 1.0640
" />
<path d="M12.0250 1.0640
L12.0250 1.4500
" />
<path d="M12.0250 1.4500
L12.0250 1.6410
" />
<path d="M12.0250 13.6290
L12.0250 13.8200
" />
<path d="M12.0250 13.8200
L12.0250 14.2060
" />
<path d="M12.0250 14.2070
L12.0250 14.2490
" />
<path d="M12.0250 14.2490
L12.0250 14.4420
" />
<path d="M12.0250 14.4420
L12.0250 14.6330
" />
<path d="M12.0250 14.6330
L11.7450 14.6330
" />
<path d="M12.2450 0.6370
L12.5250 0.6370
" />
<path d="M12.2450 0.8280
L12.2450 0.6370
" />
<path d="M12.2450 1.0210
L12.2450 0.8280
" />
<path d="M12.2450 1.0630
L12.2450 1.0210
" />
<path d="M12.2450 1.4500
L12.2450 1.0640
" />
<path d="M12.2450 1.6410
L12.2450 1.4500
" />
<path d="M12.2450 13.8200
L12.2450 13.6290
" />
<path d="M12.2450 14.2060
L12.2450 13.8200
" />
<path d="M12.2450 14.2480
L12.2450 14.2060
" />
<path d="M12.2450 14.4420
L12.2450 14.2490
" />
<path d="M12.2450 14.6330
L12.2450 14.4420
" />
<path d="M12.5250 0.6370
L12.5250 0.8280
" />
<path d="M12.5250 0.8280
L12.5250 1.0210
" />
<path d="M12.5250 1.0220
L12.5250 1.0640
" />
<path d="M12.5250 1.0640
L12.5250 1.4500
" />
<path d="M12.5250 1.4500
L12.5250 1.6410
" />
<path d="M12.5250 13.6290
L12.5250 13.8200
" />
<path d="M12.5250 13.8200
L12.5250 14.2060
" />
<path d="M12.5250 14.2070
L12.5250 14.2490
" />
<path d="M12.5250 14.2490
L12.5250 14.4420
" />
<path d="M12.5250 14.4420
L12.5250 14.6330
" />
<path d="M12.5250 14.6330
L12.2450 14.6330
" />
<path d="M13.4770 1.7930
L13.4770 13.4770
" />
<path d="M13.4770 1.7930
L13.6290 1.6410
" />
<path d="M13.4770 13.4770
L1.7930 13.4770
" />
<path d="M13.4770 13.4770
L13.6290 13.6290
" />
<path d="M13.6290 1.6410
L13.6290 13.6290
" />
<path d="M13.6290 2.7450
L13.8200 2.7450
" />
<path d="M13.6290 3.2450
L13.8200 3.2450
" />
<path d="M13.6290 3.7450
L13.8200 3.7450
" />
<path d="M13.6290 4.2450
L13.8200 4.2450
" />
<path d="M13.6290 4.7450
L13.8200 4.7450
" />
<path d="M13.6290 5.2450
L13.8200 5.2450
" />
<path d="M13.6290 5.7450
L13.8200 5.7450
" />
<path d="M13.6290 6.2450
L13.8200 6.2450
" />
<path d="M13.6290 6.7450
L13.8200 6.7450
" />
<path d="M13.6290 7.2450
L13.8200 7.2450
" />
<path d="M13.6290 7.7450
L13.8200 7.7450
" />
<path d="M13.6290 8.2450
L13.8200 8.2450
" />
<path d="M13.6290 8.7450
L13.8200 8.7450
" />
<path d="M13.6290 9.2450
L13.8200 9.2450
" />
<path d="M13.6290 9.7450
L13.8200 9.7450
" />
<path d="M13.6290 10.2450
L13.8200 10.2450
" />
<path d="M13.6290 10.7450
L13.8200 10.7450
" />
<path d="M13.6290 11.2450
L13.8200 11.2450
" />
<path d="M13.6290 11.7450
L13.8200 11.7450
" />
<path d="M13.6290 12.2450
L13.8200 12.2450
" />
<path d="M13.6290 13.6290
L1.6410 13.6290
" />
<path d="M13.8200 2.7450
L14.2060 2.7450
" />
<path d="M13.8200 3.0250
L13.6290 3.0250
" />
<path d="M13.8200 3.2450
L14.2060 3.2450
" />
<path d="M13.8200 3.5250
L13.6290 3.5250
" />
<path d="M13.8200 3.7450
L14.2060 3.7450
" />
<path d="M13.8200 4.0250
L13.6290 4.0250
" />
<path d="M13.8200 4.2450
L14.2060 4.2450
" />
<path d="M13.8200 4.5250
L13.6290 4.5250
" />
<path d="M13.8200 4.7450
L14.2060 4.7450
" />
<path d="M13.8200 5.0250
L13.6290 5.0250
" />
<path d="M13.8200 5.2450
L14.2060 5.2450
" />
<path d="M13.8200 5.5250
L13.6290 5.5250
" />
<path d="M13.8200 5.7450
L14.2060 5.7450
" />
<path d="M13.8200 6.0250
L13.6290 6.0250
" />
<path d="M13.8200 6.2450
L14.2060 6.2450
" />
<path d="M13.8200 6.5250
L13.6290 6.5250
" />
<path d="M13.8200 6.7450
L14.2060 6.7450
" />
<path d="M13.8200 7.0250
L13.6290 7.0250
" />
<path d="M13.8200 7.2450
L14.2060 7.2450
" />
<path d="M13.8200 7.5250
L13.6290 7.5250
" />
<path d="M13.8200 7.7450
L14.2060 7.7450
" />
<path d="M13.8200 8.0250
L13.6290 8.0250
" />
<path d="M13.8200 8.2450
L14.2060 8.2450
" />
<path d="M13.8200 8.5250
L13.6290 8.5250
" />
<path d="M13.8200 8.7450
L14.2060 8.7450
" />
<path d="M13.8200 9.0250
L13.6290 9.0250
" />
<path d="M13.8200 9.2450
L14.2060 9.2450
" />
<path d="M13.8200 9.5250
L13.6290 9.5250
" />
<path d="M13.8200 9.7450
L14.2060 9.7450
" />
<path d="M13.8200 10.0250
L13.6290 10.0250
" />
<path d="M13.8200 10.2450
L14.2060 10.2450
" />
<path d="M13.8200 10.5250
L13.6290 10.5250
" />
<path d="M13.8200 10.7450
L14.2060 10.7450
" />
<path d="M13.8200 11.0250
L13.6290 11.0250
" />
<path d="M13.8200 11.2450
L14.2060 11.2450
" />
<path d="M13.8200 11.5250
L13.6290 11.5250
" />
<path d="M13.8200 11.7450
L14.2060 11.7450
" />
<path d="M13.8200 12.0250
L13.6290 12.0250
" />
<path d="M13.8200 12.2450
L14.2060 12.2450
" />
<path d="M13.8200 12.5250
L13.6290 12.5250
" />
<path d="M14.2060 3.0250
L13.8200 3.0250
" />
<path d="M14.2060 3.5250
L13.8200 3.5250
" />
<path d="M14.2060 4.0250
L13.8200 4.0250
" />
<path d="M14.2060 4.5250
L13.8200 4.5250
" />
<path d="M14.2060 5.0250
L13.8200 5.0250
" />
<path d="M14.2060 5.5250
L13.8200 5.5250
" />
<path d="M14.2060 6.0250
L13.8200 6.0250
" />
<path d="M14.2060 6.5250
L13.8200 6.5250
" />
<path d="M14.2060 7.0250
L13.8200 7.0250
" />
<path d="M14.2060 7.5250
L13.8200 7.5250
" />
<path d="M14.2060 8.0250
L13.8200 8.0250
" />
<path d="M14.2060 8.5250
L13.8200 8.5250
" />
<path d="M14.2060 9.0250
L13.8200 9.0250
" />
<path d="M14.2060 9.5250
L13.8200 9.5250
" />
<path d="M14.2060 10.0250
L13.8200 10.0250
" />
<path d="M14.2060 10.5250
L13.8200 10.5250
" />
<path d="M14.2060 11.0250
L13.8200 11.0250
" />
<path d="M14.2060 11.5250
L13.8200 11.5250
" />
<path d="M14.2060 12.0250
L13.8200 12.0250
" />
<path d="M14.2060 12.5250
L13.8200 12.5250
" />
<path d="M14.2070 2.7450
L14.2490 2.7450
" />
<path d="M14.2070 3.2450
L14.2490 3.2450
" />
<path d="M14.2070 3.7450
L14.2490 3.7450
" />
<path d="M14.2070 4.2450
L14.2490 4.2450
" />
<path d="M14.2070 4.7450
L14.2490 4.7450
" />
<path d="M14.2070 5.2450
L14.2490 5.2450
" />
<path d="M14.2070 5.7450
L14.2490 5.7450
" />
<path d="M14.2070 6.2450
L14.2490 6.2450
" />
<path d="M14.2070 6.7450
L14.2490 6.7450
" />
<path d="M14.2070 7.2450
L14.2490 7.2450
" />
<path d="M14.2070 7.7450
L14.2490 7.7450
" />
<path d="M14.2070 8.2450
L14.2490 8.2450
" />
<path d="M14.2070 8.7450
L14.2490 8.7450
" />
<path d="M14.2070 9.2450
L14.2490 9.2450
" />
<path d="M14.2070 9.7450
L14.2490 9.7450
" />
<path d="M14.2070 10.2450
L14.2490 10.2450
" />
<path d="M14.2070 10.7450
L14.2490 10.7450
" />
<path d="M14.2070 11.2450
L14.2490 11.2450
" />
<path d="M14.2070 11.7450
L14.2490 11.7450
" />
<path d="M14.2070 12.2450
L14.2490 12.2450
" />
<path d="M14.2480 3.0250
L14.2060 3.0250
" />
<path d="M14.2480 3.5250
L14.2060 3.5250
" />
<path d="M14.2480 4.0250
L14.2060 4.0250
" />
<path d="M14.2480 4.5250
L14.2060 4.5250
" />
<path d="M14.2480 5.0250
L14.2060 5.0250
" />
<path d="M14.2480 5.5250
L14.2060 5.5250
" />
<path d="M14.2480 6.0250
L14.2060 6.0250
" />
<path d="M14.2480 6.5250
L14.2060 6.5250
" />
<path d="M14.2480 7.0250
L14.2060 7.0250
" />
<path d="M14.2480 7.5250
L14.2060 7.5250
" />
<path d="M14.2480 8.0250
L14.2060 8.0250
" />
<path d="M14.2480 8.5250
L14.2060 8.5250
" />
<path d="M14.2480 9.0250
L14.2060 9.0250
" />
<path d="M14.2480 9.5250
L14.2060 9.5250
" />
<path d="M14.2480 10.0250
L14.2060 10.0250
" />
<path d="M14.2480 10.5250
L14.2060 10.5250
" />
<path d="M14.2480 11.0250
L14.2060 11.0250
" />
<path d="M14.2480 11.5250
L14.2060 11.5250
" />
<path d="M14.2480 12.0250
L14.2060 12.0250
" />
<path d="M14.2480 12.5250
L14.2060 12.5250
" />
<path d="M14.2490 2.7450
L14.4420 2.7450
" />
<path d="M14.2490 3.2450
L14.4420 3.2450
" />
<path d="M14.2490 3.7450
L14.4420 3.7450
" />
<path d="M14.2490 4.2450
L14.4420 4.2450
" />
<path d="M14.2490 4.7450
L14.4420 4.7450
" />
<path d="M14.2490 5.2450
L14.4420 5.2450
" />
<path d="M14.2490 5.7450
L14.4420 5.7450
" />
<path d="M14.2490 6.2450
L14.4420 6.2450
" />
<path d="M14.2490 6.7450
L14.4420 6.7450
" />
<path d="M14.2490 7.2450
L14.4420 7.2450
" />
<path d="M14.2490 7.7450
L14.4420 7.7450
" />
<path d="M14.2490 8.2450
L14.4420 8.2450
" />
<path d="M14.2490 8.7450
L14.4420 8.7450
" />
<path d="M14.2490 9.2450
L14.4420 9.2450
" />
<path d="M14.2490 9.7450
L14.4420 9.7450
" />
<path d="M14.2490 10.2450
L14.4420 10.2450
" />
<path d="M14.2490 10.7450
L14.4420 10.7450
" />
<path d="M14.2490 11.2450
L14.4420 11.2450
" />
<path d="M14.2490 11.7450
L14.4420 11.7450
" />
<path d="M14.2490 12.2450
L14.4420 12.2450
" />
<path d="M14.4420 2.7450
L14.6330 2.7450
" />
<path d="M14.4420 3.0250
L14.2490 3.0250
" />
<path d="M14.4420 3.2450
L14.6330 3.2450
" />
<path d="M14.4420 3.5250
L14.2490 3.5250
" />
<path d="M14.4420 3.7450
L14.6330 3.7450
" />
<path d="M14.4420 4.0250
L14.2490 4.0250
" />
<path d="M14.4420 4.2450
L14.6330 4.2450
" />
<path d="M14.4420 4.5250
L14.2490 4.5250
" />
<path d="M14.4420 4.7450
L14.6330 4.7450
" />
<path d="M14.4420 5.0250
L14.2490 5.0250
" />
<path d="M14.4420 5.2450
L14.6330 5.2450
" />
<path d="M14.4420 5.5250
L14.2490 5.5250
" />
<path d="M14.4420 5.7450
L14.6330 5.7450
" />
<path d="M14.4420 6.0250
L14.2490 6.0250
" />
<path d="M14.4420 6.2450
L14.6330 6.2450
" />
<path d="M14.4420 6.5250
L14.2490 6.5250
" />
<path d="M14.4420 6.7450
L14.6330 6.7450
" />
<path d="M14.4420 7.0250
L14.2490 7.0250
" />
<path d="M14.4420 7.2450
L14.6330 7.2450
" />
<path d="M14.4420 7.5250
L14.2490 7.5250
" />
<path d="M14.4420 7.7450
L14.6330 7.7450
" />
<path d="M14.4420 8.0250
L14.2490 8.0250
" />
<path d="M14.4420 8.2450
L14.6330 8.2450
" />
<path d="M14.4420 8.5250
L14.2490 8.5250
" />
<path d="M14.4420 8.7450
L14.6330 8.7450
" />
<path d="M14.4420 9.0250
L14.2490 9.0250
" />
<path d="M14.4420 9.2450
L14.6330 9.2450
" />
<path d="M14.4420 9.5250
L14.2490 9.5250
" />
<path d="M14.4420 9.7450
L14.6330 9.7450
" />
<path d="M14.4420 10.0250
L14.2490 10.0250
" />
<path d="M14.4420 10.2450
L14.6330 10.2450
" />
<path d="M14.4420 10.5250
L14.2490 10.5250
" />
<path d="M14.4420 10.7450
L14.6330 10.7450
" />
<path d="M14.4420 11.0250
L14.2490 11.0250
" />
<path d="M14.4420 11.2450
L14.6330 11.2450
" />
<path d="M14.4420 11.5250
L14.2490 11.5250
" />
<path d="M14.4420 11.7450
L14.6330 11.7450
" />
<path d="M14.4420 12.0250
L14.2490 12.0250
" />
<path d="M14.4420 12.2450
L14.6330 12.2450
" />
<path d="M14.4420 12.5250
L14.2490 12.5250
" />
<path d="M14.6330 2.7450
L14.6330 3.0250
" />
<path d="M14.6330 3.0250
L14.4420 3.0250
" />
<path d="M14.6330 3.2450
L14.6330 3.5250
" />
<path d="M14.6330 3.5250
L14.4420 3.5250
" />
<path d="M14.6330 3.7450
L14.6330 4.0250
" />
<path d="M14.6330 4.0250
L14.4420 4.0250
" />
<path d="M14.6330 4.2450
L14.6330 4.5250
" />
<path d="M14.6330 4.5250
L14.4420 4.5250
" />
<path d="M14.6330 4.7450
L14.6330 5.0250
" />
<path d="M14.6330 5.0250
L14.4420 5.0250
" />
<path d="M14.6330 5.2450
L14.6330 5.5250
" />
<path d="M14.6330 5.5250
L14.4420 5.5250
" />
<path d="M14.6330 5.7450
L14.6330 6.0250
" />
<path d="M14.6330 6.0250
L14.4420 6.0250
" />
<path d="M14.6330 6.2450
L14.6330 6.5250
" />
<path d="M14.6330 6.5250
L14.4420 6.5250
" />
<path d="M14.6330 6.7450
L14.6330 7.0250
" />
<path d="M14.6330 7.0250
L14.4420 7.0250
" />
<path d="M14.6330 7.2450
L14.6330 7.5250
" />
<path d="M14.6330 7.5250
L14.4420 7.5250
" />
<path d="M14.6330 7.7450
L14.6330 8.0250
" />
<path d="M14.6330 8.0250
L14.4420 8.0250
" />
<path d="M14.6330 8.2450
L14.6330 8.5250
" />
<path d="M14.6330 8.5250
L14.4420 8.5250
" />
<path d="M14.6330 8.7450
L14.6330 9.0250
" />
<path d="M14.6330 9.0250
L14.4420 9.0250
" />
<path d="M14.6330 9.2450
L14.6330 9.5250
" />
<path d="M14.6330 9.5250
L14.4420 9.5250
" />
<path d="M14.6330 9.7450
L14.6330 10.0250
" />
<path d="M14.6330 10.0250
L14.4420 10.0250
" />
<path d="M14.6330 10.2450
L14.6330 10.5250
" />
<path d="M14.6330 10.5250
L14.4420 10.5250
" />
<path d="M14.6330 10.7450
L14.6330 11.0250
" />
<path d="M14.6330 11.0250
L14.4420 11.0250
" />
<path d="M14.6330 11.2450
L14.6330 11.5250
" />
<path d="M14.6330 11.5250
L14.4420 11.5250
" />
<path d="M14.6330 11.7450
L14.6330 12.0250
" />
<path d="M14.6330 12.0250
L14.4420 12.0250
" />
<path d="M14.6330 12.2450
L14.6330 12.5250
" />
<path d="M14.6330 12.5250
L14.4420 12.5250
" />
</g> 
</svg>
