{
  "accessors": [
    {
      "bufferView": 0,
      "byteOffset": 0,
      "componentType": 5126,
      "normalized": false,
      "count": 188,
      "type": "VEC3",
      "max": [
        3.9999992847442627,
        0.8127832412719727,
        2.9970176219940186
      ],
      "min": [
        -3.999999761581421,
        0.009999995119869709,
        -2.996999979019165
      ]
    },
    {
      "bufferView": 0,
      "byteOffset": 12,
      "componentType": 5126,
      "normalized": false,
      "count": 188,
      "type": "VEC3"
    },
    {
      "bufferView": 0,
      "byteOffset": 24,
      "componentType": 5126,
      "normalized": false,
      "count": 188,
      "type": "VEC2"
    },
    {
      "bufferView": 0,
      "byteOffset": 32,
      "componentType": 5126,
      "normalized": false,
      "count": 188,
      "type": "VEC2"
    },
    {
      "bufferView": 1,
      "byteOffset": 0,
      "componentType": 5123,
      "normalized": false,
      "count": 342,
      "type": "SCALAR"
    },
    {
      "bufferView": 1,
      "byteOffset": 684,
      "componentType": 5123,
      "normalized": false,
      "count": 216,
      "type": "SCALAR"
    },
    {
      "bufferView": 1,
      "byteOffset": 1116,
      "componentType": 5123,
      "normalized": false,
      "count": 6,
      "type": "SCALAR"
    },
    {
      "bufferView": 2,
      "byteOffset": 0,
      "componentType": 5126,
      "normalized": false,
      "count": 180,
      "type": "VEC3",
      "max": [
        4.0,
        0.40578693151474,
        2.4511544704437256
      ],
      "min": [
        -3.999999761581421,
        4.541873863672663e-07,
        -2.4509999752044678
      ]
    },
    {
      "bufferView": 2,
      "byteOffset": 12,
      "componentType": 5126,
      "normalized": false,
      "count": 180,
      "type": "VEC3"
    },
    {
      "bufferView": 2,
      "byteOffset": 24,
      "componentType": 5126,
      "normalized": false,
      "count": 180,
      "type": "VEC2"
    },
    {
      "bufferView": 2,
      "byteOffset": 32,
      "componentType": 5126,
      "normalized": false,
      "count": 180,
      "type": "VEC2"
    },
    {
      "bufferView": 3,
      "byteOffset": 0,
      "componentType": 5126,
      "normalized": false,
      "count": 4,
      "type": "VEC3",
      "max": [
        3.9999992847442627,
        0.8130000233650208,
        2.9970176219940186
      ],
      "min": [
        -3.999999761581421,
        0.8130000233650208,
        -2.996999979019165
      ]
    },
    {
      "bufferView": 3,
      "byteOffset": 12,
      "componentType": 5126,
      "normalized": false,
      "count": 4,
      "type": "VEC3"
    },
    {
      "bufferView": 3,
      "byteOffset": 24,
      "componentType": 5126,
      "normalized": false,
      "count": 4,
      "type": "VEC2"
    },
    {
      "bufferView": 3,
      "byteOffset": 32,
      "componentType": 5126,
      "normalized": false,
      "count": 4,
      "type": "VEC2"
    }
  ],
  "asset": {
    "generator": "pygltflib@v1.16.5",
    "version": "2.0"
  },
  "bufferViews": [
    {
      "buffer": 0,
      "byteOffset": 0,
      "byteLength": 7520,
      "byteStride": 40,
      "target": 34962
    },
    {
      "buffer": 0,
      "byteOffset": 7520,
      "byteLength": 1128,
      "target": 34963
    },
    {
      "buffer": 0,
      "byteOffset": 8648,
      "byteLength": 7200,
      "byteStride": 40,
      "target": 34962
    },
    {
      "buffer": 0,
      "byteOffset": 15848,
      "byteLength": 160,
      "byteStride": 40,
      "target": 34962
    }
  ],
  "buffers": [
    {
      "uri": "WSON-8_6x8x0.5mm_P1.27mm-winbond-w25q128jweiq-tr.bin",
      "byteLength": 16008
    }
  ],
  "extensionsUsed": [
    "KHR_materials_ior",
    "KHR_materials_specular",
    "KHR_texture_basisu"
  ],
  "extensionsRequired": [
    "KHR_texture_basisu"
  ],
  "images": [
    {
      "uri": "winbond-w25q128jweiq-tr-marking_normal.ktx2",
      "mimeType": "image/ktx2",
      "name": "winbond-w25q128jweiq-tr-marking_normal"
    },
    {
      "uri": "winbond-w25q128jweiq-tr-marking_color.ktx2",
      "mimeType": "image/ktx2",
      "name": "winbond-w25q128jweiq-tr-marking_color"
    },
    {
      "uri": "winbond-w25q128jweiq-tr-marking_metallic_roughness.ktx2",
      "mimeType": "image/ktx2",
      "name": "winbond-w25q128jweiq-tr-marking_metallic_roughness"
    }
  ],
  "materials": [
    {
      "pbrMetallicRoughness": {
        "baseColorFactor": [
          0.009133999235928059,
          0.009134066291153431,
          0.009134061634540558,
          1.0
        ],
        "metallicFactor": 0.13699999451637268,
        "roughnessFactor": 0.37063413858413696
      },
      "emissiveFactor": [
        0.0,
        0.0,
        0.0
      ],
      "alphaMode": "OPAQUE",
      "doubleSided": true,
      "name": "gltf_plastic_chip"
    },
    {
      "extensions": {
        "KHR_materials_ior": {
          "ior": 1.4500000476837158
        },
        "KHR_materials_specular": {
          "specularFactor": 0
        }
      },
      "pbrMetallicRoughness": {
        "baseColorFactor": [
          0.5394713282585144,
          0.5457167029380798,
          0.5775790810585022,
          1.0
        ],
        "metallicFactor": 0.7818182110786438,
        "roughnessFactor": 0.28863638639450073
      },
      "emissiveFactor": [
        0.0,
        0.0,
        0.0
      ],
      "alphaMode": "OPAQUE",
      "doubleSided": true,
      "name": "gltf_metal_pins"
    },
    {
      "pbrMetallicRoughness": {
        "baseColorFactor": [
          1.0,
          1.0,
          1.0,
          1.0
        ],
        "metallicFactor": 1.0,
        "roughnessFactor": 1.0,
        "baseColorTexture": {
          "index": 0,
          "texCoord": 1
        },
        "metallicRoughnessTexture": {
          "index": 2,
          "texCoord": 1
        }
      },
      "normalTexture": {
        "index": 1,
        "texCoord": 1,
        "scale": 1.0
      },
      "emissiveFactor": [
        0.0,
        0.0,
        0.0
      ],
      "alphaMode": "OPAQUE",
      "doubleSided": true,
      "name": "gltf_winbond-w25q128jweiq-tr-marking"
    }
  ],
  "meshes": [
    {
      "primitives": [
        {
          "attributes": {
            "POSITION": 0,
            "NORMAL": 1,
            "TEXCOORD_0": 2,
            "TEXCOORD_1": 3
          },
          "indices": 4,
          "mode": 4,
          "material": 0
        },
        {
          "attributes": {
            "POSITION": 7,
            "NORMAL": 8,
            "TEXCOORD_0": 9,
            "TEXCOORD_1": 10
          },
          "indices": 5,
          "mode": 4,
          "material": 1
        },
        {
          "attributes": {
            "POSITION": 11,
            "NORMAL": 12,
            "TEXCOORD_0": 13,
            "TEXCOORD_1": 14
          },
          "indices": 6,
          "mode": 4,
          "material": 2
        }
      ],
      "name": "WSON-8_6x8x0.5mm_P1.27mm-winbond-w25q128jweiq-tr"
    }
  ],
  "nodes": [
    {
      "extras": {
        "model_diagonal": 10.029492633266774
      },
      "mesh": 0,
      "name": "WSON-8_6x8x0.5mm_P1.27mm-winbond-w25q128jweiq-tr"
    }
  ],
  "samplers": [
    {
      "magFilter": 9729,
      "minFilter": 9987,
      "wrapS": 10497,
      "wrapT": 10497
    }
  ],
  "scene": 0,
  "scenes": [
    {
      "extras": {
        "matlib": {
          "lib_index": 0,
          "filter": 0,
          "cat_index": -1,
          "all_materials": [
            {
              "name": "Metal"
            },
            {
              "name": "bga_balls"
            },
            {
              "name": "chip_enclosure"
            },
            {
              "name": "chip_enclosure_detailed"
            },
            {
              "name": "composite"
            },
            {
              "name": "enclosure_alu"
            },
            {
              "name": "enclosure_alu_polished"
            },
            {
              "name": "enclosure_gold"
            },
            {
              "name": "metal_pins_simple"
            },
            {
              "name": "pin1_marking_dark"
            },
            {
              "name": "pin_tht_gold"
            },
            {
              "name": "pin_tht_silver"
            },
            {
              "name": "plastic yellow"
            },
            {
              "name": "plastic_black"
            },
            {
              "name": "plastic_black_detailed"
            },
            {
              "name": "plastic_green_lightning"
            },
            {
              "name": "plastic_white"
            },
            {
              "name": "plastic_yellow_lightning"
            },
            {
              "name": "smd_cap_case"
            },
            {
              "name": "smd_cap_pins"
            },
            {
              "name": "smd_res_case"
            }
          ],
          "materials": [
            {
              "name": "Metal"
            },
            {
              "name": "bga_balls"
            },
            {
              "name": "chip_enclosure"
            },
            {
              "name": "chip_enclosure_detailed"
            },
            {
              "name": "composite"
            },
            {
              "name": "enclosure_alu"
            },
            {
              "name": "enclosure_alu_polished"
            },
            {
              "name": "enclosure_gold"
            },
            {
              "name": "metal_pins_simple"
            },
            {
              "name": "pin1_marking_dark"
            },
            {
              "name": "pin_tht_gold"
            },
            {
              "name": "pin_tht_silver"
            },
            {
              "name": "plastic yellow"
            },
            {
              "name": "plastic_black"
            },
            {
              "name": "plastic_black_detailed"
            },
            {
              "name": "plastic_green_lightning"
            },
            {
              "name": "plastic_white"
            },
            {
              "name": "plastic_yellow_lightning"
            },
            {
              "name": "smd_cap_case"
            },
            {
              "name": "smd_cap_pins"
            },
            {
              "name": "smd_res_case"
            }
          ],
          "mat_index": 8
        },
        "sketcher": {
          "version": [
            0,
            24,
            0
          ]
        },
        "vrm_addon_extension": {
          "vrm0_material_gltf_property_names": [
            {
              "name": "_Color",
              "value": "_Color"
            },
            {
              "name": "_MainTex_ST",
              "value": "_MainTex_ST"
            },
            {
              "name": "_MainTex_ST_S",
              "value": "_MainTex_ST_S"
            },
            {
              "name": "_MainTex_ST_T",
              "value": "_MainTex_ST_T"
            },
            {
              "name": "_MetallicGlossMap_ST",
              "value": "_MetallicGlossMap_ST"
            },
            {
              "name": "_MetallicGlossMap_ST_S",
              "value": "_MetallicGlossMap_ST_S"
            },
            {
              "name": "_MetallicGlossMap_ST_T",
              "value": "_MetallicGlossMap_ST_T"
            },
            {
              "name": "_BumpMap_ST",
              "value": "_BumpMap_ST"
            },
            {
              "name": "_BumpMap_ST_S",
              "value": "_BumpMap_ST_S"
            },
            {
              "name": "_BumpMap_ST_T",
              "value": "_BumpMap_ST_T"
            },
            {
              "name": "_ParallaxMap_ST",
              "value": "_ParallaxMap_ST"
            },
            {
              "name": "_ParallaxMap_ST_S",
              "value": "_ParallaxMap_ST_S"
            },
            {
              "name": "_ParallaxMap_ST_T",
              "value": "_ParallaxMap_ST_T"
            },
            {
              "name": "_OcclusionMap_ST",
              "value": "_OcclusionMap_ST"
            },
            {
              "name": "_OcclusionMap_ST_S",
              "value": "_OcclusionMap_ST_S"
            },
            {
              "name": "_OcclusionMap_ST_T",
              "value": "_OcclusionMap_ST_T"
            },
            {
              "name": "_EmissionColor",
              "value": "_EmissionColor"
            },
            {
              "name": "_EmissionMap_ST",
              "value": "_EmissionMap_ST"
            },
            {
              "name": "_EmissionMap_ST_S",
              "value": "_EmissionMap_ST_S"
            },
            {
              "name": "_EmissionMap_ST_T",
              "value": "_EmissionMap_ST_T"
            },
            {
              "name": "_DetailMask_ST",
              "value": "_DetailMask_ST"
            },
            {
              "name": "_DetailMask_ST_S",
              "value": "_DetailMask_ST_S"
            },
            {
              "name": "_DetailMask_ST_T",
              "value": "_DetailMask_ST_T"
            },
            {
              "name": "_DetailAlbedoMap_ST",
              "value": "_DetailAlbedoMap_ST"
            },
            {
              "name": "_DetailAlbedoMap_ST_S",
              "value": "_DetailAlbedoMap_ST_S"
            },
            {
              "name": "_DetailAlbedoMap_ST_T",
              "value": "_DetailAlbedoMap_ST_T"
            },
            {
              "name": "_DetailNormalMap_ST",
              "value": "_DetailNormalMap_ST"
            },
            {
              "name": "_DetailNormalMap_ST_S",
              "value": "_DetailNormalMap_ST_S"
            },
            {
              "name": "_DetailNormalMap_ST_T",
              "value": "_DetailNormalMap_ST_T"
            }
          ],
          "vrm0_material_mtoon0_property_names": [
            {
              "name": "_Color",
              "value": "_Color"
            },
            {
              "name": "_ShadeColor",
              "value": "_ShadeColor"
            },
            {
              "name": "_MainTex_ST",
              "value": "_MainTex_ST"
            },
            {
              "name": "_MainTex_ST_S",
              "value": "_MainTex_ST_S"
            },
            {
              "name": "_MainTex_ST_T",
              "value": "_MainTex_ST_T"
            },
            {
              "name": "_ShadeTexture_ST",
              "value": "_ShadeTexture_ST"
            },
            {
              "name": "_ShadeTexture_ST_S",
              "value": "_ShadeTexture_ST_S"
            },
            {
              "name": "_ShadeTexture_ST_T",
              "value": "_ShadeTexture_ST_T"
            },
            {
              "name": "_BumpMap_ST",
              "value": "_BumpMap_ST"
            },
            {
              "name": "_BumpMap_ST_S",
              "value": "_BumpMap_ST_S"
            },
            {
              "name": "_BumpMap_ST_T",
              "value": "_BumpMap_ST_T"
            },
            {
              "name": "_ReceiveShadowTexture_ST",
              "value": "_ReceiveShadowTexture_ST"
            },
            {
              "name": "_ReceiveShadowTexture_ST_S",
              "value": "_ReceiveShadowTexture_ST_S"
            },
            {
              "name": "_ReceiveShadowTexture_ST_T",
              "value": "_ReceiveShadowTexture_ST_T"
            },
            {
              "name": "_ShadingGradeTexture_ST",
              "value": "_ShadingGradeTexture_ST"
            },
            {
              "name": "_ShadingGradeTexture_ST_S",
              "value": "_ShadingGradeTexture_ST_S"
            },
            {
              "name": "_ShadingGradeTexture_ST_T",
              "value": "_ShadingGradeTexture_ST_T"
            },
            {
              "name": "_RimColor",
              "value": "_RimColor"
            },
            {
              "name": "_RimTexture_ST",
              "value": "_RimTexture_ST"
            },
            {
              "name": "_RimTexture_ST_S",
              "value": "_RimTexture_ST_S"
            },
            {
              "name": "_RimTexture_ST_T",
              "value": "_RimTexture_ST_T"
            },
            {
              "name": "_SphereAdd_ST",
              "value": "_SphereAdd_ST"
            },
            {
              "name": "_SphereAdd_ST_S",
              "value": "_SphereAdd_ST_S"
            },
            {
              "name": "_SphereAdd_ST_T",
              "value": "_SphereAdd_ST_T"
            },
            {
              "name": "_EmissionColor",
              "value": "_EmissionColor"
            },
            {
              "name": "_EmissionMap_ST",
              "value": "_EmissionMap_ST"
            },
            {
              "name": "_EmissionMap_ST_S",
              "value": "_EmissionMap_ST_S"
            },
            {
              "name": "_EmissionMap_ST_T",
              "value": "_EmissionMap_ST_T"
            },
            {
              "name": "_OutlineWidthTexture_ST",
              "value": "_OutlineWidthTexture_ST"
            },
            {
              "name": "_OutlineWidthTexture_ST_S",
              "value": "_OutlineWidthTexture_ST_S"
            },
            {
              "name": "_OutlineWidthTexture_ST_T",
              "value": "_OutlineWidthTexture_ST_T"
            },
            {
              "name": "_OutlineColor",
              "value": "_OutlineColor"
            },
            {
              "name": "_UvAnimMaskTexture_ST",
              "value": "_UvAnimMaskTexture_ST"
            },
            {
              "name": "_UvAnimMaskTexture_ST_S",
              "value": "_UvAnimMaskTexture_ST_S"
            },
            {
              "name": "_UvAnimMaskTexture_ST_T",
              "value": "_UvAnimMaskTexture_ST_T"
            }
          ],
          "mesh_object_names": [
            {
              "name": "WSON-8_6x8x0.5mm_P1.27mm",
              "value": "WSON-8_6x8x0.5mm_P1.27mm"
            }
          ]
        }
      },
      "name": "Scene",
      "nodes": [
        0
      ]
    }
  ],
  "textures": [
    {
      "extensions": {
        "KHR_texture_basisu": {
          "source": 1
        }
      },
      "sampler": 0
    },
    {
      "extensions": {
        "KHR_texture_basisu": {
          "source": 0
        }
      },
      "sampler": 0
    },
    {
      "extensions": {
        "KHR_texture_basisu": {
          "source": 2
        }
      },
      "sampler": 0
    }
  ]
}