<?xml version="1.0" standalone="no"?>
 <!DOCTYPE svg PUBLIC "-//W3C//DTD SVG 1.1//EN" 
 "http://www.w3.org/Graphics/SVG/1.1/DTD/svg11.dtd"> 
<svg
  xmlns:svg="http://www.w3.org/2000/svg"
  xmlns="http://www.w3.org/2000/svg"
  xmlns:xlink="http://www.w3.org/1999/xlink"
  xmlns:inkscape="http://www.inkscape.org/namespaces/inkscape"
  version="1.1"
  width="12.928600mm" height="12.547600mm" viewBox="0.000000 0.000000 12.928600 12.547600">
<title>SVG Image created as outline.svg date 2026-07-09T08:34:25 </title>
  <desc>Image generated by PCBNEW </desc>
<g style="fill:#000000; fill-opacity:1.000000;stroke:#000000; stroke-opacity:1.000000;
stroke-linecap:round; stroke-linejoin:round;"
 transform="translate(0 0) scale(1 1)">
</g>
<g style="fill:none; 
stroke:#000000; stroke-width:0.020000; stroke-opacity:1; 
stroke-linecap:round; stroke-linejoin:round;">
<path d="M0.525000 2.123000
L0.924000 2.123000
" />
<path d="M0.525000 2.524000
L0.525000 2.123000
" />
<path d="M0.525000 3.325000
L0.725000 3.325000
" />
<path d="M0.525000 4.325000
L0.525000 3.325000
" />
<path d="M0.525000 4.724000
L0.725000 4.724000
" />
<path d="M0.525000 12.025000
L0.525000 4.724000
" />
<path d="M0.725000 3.325000
L0.823000 3.325000
" />
<path d="M0.725000 4.325000
L0.525000 4.325000
" />
<path d="M0.725000 4.325000
L0.924000 4.325000
" />
<path d="M0.725000 12.025000
L0.525000 12.025000
" />
<path d="M0.725000 12.025000
L1.656000 12.025000
" />
<path d="M0.823000 3.325000
L0.829000 3.324000
" />
<path d="M0.829000 3.324000
L0.834000 3.324000
" />
<path d="M0.834000 3.324000
L0.839000 3.322000
" />
<path d="M0.839000 3.322000
L0.845000 3.321000
" />
<path d="M0.845000 3.321000
L0.848000 3.321000
" />
<path d="M0.848000 3.321000
L0.853000 3.320000
" />
<path d="M0.853000 3.320000
L0.858000 3.317000
" />
<path d="M0.858000 3.317000
L0.863000 3.317000
" />
<path d="M0.863000 3.317000
L0.868000 3.314000
" />
<path d="M0.868000 3.314000
L0.871000 3.312000
" />
<path d="M0.871000 3.312000
L0.876000 3.309000
" />
<path d="M0.876000 3.309000
L0.879000 3.306000
" />
<path d="M0.879000 3.306000
L0.884000 3.305000
" />
<path d="M0.884000 3.305000
L0.887000 3.301000
" />
<path d="M0.887000 3.301000
L0.892000 3.298000
" />
<path d="M0.892000 3.298000
L0.895000 3.294000
" />
<path d="M0.895000 3.294000
L0.898000 3.292000
" />
<path d="M0.898000 3.292000
L0.901000 3.288000
" />
<path d="M0.901000 3.288000
L0.905000 3.284000
" />
<path d="M0.905000 3.284000
L0.906000 3.280000
" />
<path d="M0.906000 3.280000
L0.909000 3.276000
" />
<path d="M0.909000 3.276000
L0.911000 3.272000
" />
<path d="M0.911000 3.272000
L0.914000 3.268000
" />
<path d="M0.914000 3.268000
L0.916000 3.262000
" />
<path d="M0.916000 3.262000
L0.917000 3.258000
" />
<path d="M0.917000 3.258000
L0.919000 3.253000
" />
<path d="M0.919000 3.253000
L0.921000 3.248000
" />
<path d="M0.921000 3.248000
L0.922000 3.244000
" />
<path d="M0.922000 3.240000
L0.924000 3.235000
" />
<path d="M0.922000 3.244000
L0.922000 3.240000
" />
<path d="M0.924000 1.325000
L1.124000 1.123000
" />
<path d="M0.924000 2.524000
L0.525000 2.524000
" />
<path d="M0.924000 3.224000
L0.924000 1.325000
" />
<path d="M0.924000 3.229000
L0.924000 3.224000
" />
<path d="M0.924000 3.235000
L0.924000 3.229000
" />
<path d="M0.924000 4.325000
L0.930000 4.325000
" />
<path d="M0.924000 4.724000
L0.725000 4.724000
" />
<path d="M0.930000 4.325000
L0.935000 4.325000
" />
<path d="M0.930000 4.724000
L0.924000 4.724000
" />
<path d="M0.935000 4.325000
L0.940000 4.325000
" />
<path d="M0.935000 4.724000
L0.930000 4.724000
" />
<path d="M0.940000 4.325000
L0.945000 4.327000
" />
<path d="M0.940000 4.722000
L0.935000 4.724000
" />
<path d="M0.945000 4.327000
L0.948000 4.327000
" />
<path d="M0.945000 4.722000
L0.940000 4.722000
" />
<path d="M0.948000 4.327000
L0.954000 4.329000
" />
<path d="M0.948000 4.720000
L0.945000 4.722000
" />
<path d="M0.954000 4.329000
L0.959000 4.331000
" />
<path d="M0.954000 4.720000
L0.948000 4.720000
" />
<path d="M0.959000 4.331000
L0.962000 4.331000
" />
<path d="M0.959000 4.718000
L0.954000 4.720000
" />
<path d="M0.962000 4.331000
L0.967000 4.333000
" />
<path d="M0.962000 4.716000
L0.959000 4.718000
" />
<path d="M0.967000 4.333000
L0.972000 4.337000
" />
<path d="M0.967000 4.714000
L0.962000 4.716000
" />
<path d="M0.972000 4.337000
L0.975000 4.339000
" />
<path d="M0.972000 4.712000
L0.967000 4.714000
" />
<path d="M0.975000 4.339000
L0.980000 4.341000
" />
<path d="M0.975000 4.710000
L0.972000 4.712000
" />
<path d="M0.975000 4.710000
L0.977000 4.708000
" />
<path d="M0.977000 4.708000
L0.980000 4.708000
" />
<path d="M0.980000 4.341000
L0.975000 4.337000
" />
<path d="M0.980000 4.341000
L0.983000 4.343000
" />
<path d="M0.980000 4.706000
L0.975000 4.710000
" />
<path d="M0.980000 4.708000
L0.983000 4.706000
" />
<path d="M0.983000 4.343000
L0.988000 4.347000
" />
<path d="M0.983000 4.704000
L0.980000 4.706000
" />
<path d="M0.983000 4.706000
L0.986000 4.704000
" />
<path d="M0.986000 4.345000
L0.980000 4.341000
" />
<path d="M0.986000 4.704000
L0.988000 4.702000
" />
<path d="M0.988000 4.347000
L0.991000 4.349000
" />
<path d="M0.988000 4.702000
L0.983000 4.704000
" />
<path d="M0.988000 4.702000
L0.991000 4.700000
" />
<path d="M0.991000 4.349000
L0.986000 4.345000
" />
<path d="M0.991000 4.349000
L0.994000 4.353000
" />
<path d="M0.991000 4.698000
L0.988000 4.702000
" />
<path d="M0.991000 4.700000
L0.993000 4.696000
" />
<path d="M0.993000 4.696000
L0.994000 4.694000
" />
<path d="M0.994000 4.353000
L0.991000 4.349000
" />
<path d="M0.994000 4.353000
L0.999000 4.357000
" />
<path d="M0.994000 4.694000
L0.991000 4.698000
" />
<path d="M0.994000 4.694000
L0.997000 4.692000
" />
<path d="M0.997000 4.692000
L0.999000 4.690000
" />
<path d="M0.999000 4.357000
L1.002000 4.361000
" />
<path d="M0.999000 4.359000
L0.994000 4.353000
" />
<path d="M0.999000 4.690000
L1.002000 4.688000
" />
<path d="M0.999000 4.692000
L0.994000 4.694000
" />
<path d="M1.002000 4.361000
L1.004000 4.365000
" />
<path d="M1.002000 4.688000
L0.999000 4.692000
" />
<path d="M1.002000 4.688000
L1.004000 4.684000
" />
<path d="M1.004000 4.363000
L0.999000 4.359000
" />
<path d="M1.004000 4.365000
L1.007000 4.369000
" />
<path d="M1.004000 4.684000
L1.002000 4.688000
" />
<path d="M1.004000 4.684000
L1.005000 4.682000
" />
<path d="M1.005000 4.682000
L1.007000 4.680000
" />
<path d="M1.007000 4.369000
L1.004000 4.363000
" />
<path d="M1.007000 4.369000
L1.010000 4.373000
" />
<path d="M1.007000 4.680000
L1.004000 4.684000
" />
<path d="M1.007000 4.680000
L1.009000 4.676000
" />
<path d="M1.009000 4.676000
L1.010000 4.674000
" />
<path d="M1.010000 4.373000
L1.012000 4.377000
" />
<path d="M1.010000 4.375000
L1.007000 4.369000
" />
<path d="M1.010000 4.674000
L1.012000 4.672000
" />
<path d="M1.010000 4.676000
L1.007000 4.680000
" />
<path d="M1.012000 4.377000
L1.015000 4.381000
" />
<path d="M1.012000 4.672000
L1.010000 4.676000
" />
<path d="M1.012000 4.672000
L1.013000 4.668000
" />
<path d="M1.013000 4.379000
L1.010000 4.375000
" />
<path d="M1.013000 4.668000
L1.015000 4.666000
" />
<path d="M1.015000 4.381000
L1.017000 4.385000
" />
<path d="M1.015000 4.666000
L1.017000 4.662000
" />
<path d="M1.015000 4.668000
L1.012000 4.672000
" />
<path d="M1.017000 4.385000
L1.013000 4.379000
" />
<path d="M1.017000 4.385000
L1.018000 4.389000
" />
<path d="M1.017000 4.662000
L1.015000 4.668000
" />
<path d="M1.017000 4.662000
L1.018000 4.659000
" />
<path d="M1.018000 4.389000
L1.020000 4.395000
" />
<path d="M1.018000 4.391000
L1.017000 4.385000
" />
<path d="M1.018000 4.657000
L1.020000 4.653000
" />
<path d="M1.018000 4.659000
L1.017000 4.662000
" />
<path d="M1.018000 4.659000
L1.018000 4.657000
" />
<path d="M1.020000 4.395000
L1.020000 4.399000
" />
<path d="M1.020000 4.397000
L1.018000 4.391000
" />
<path d="M1.020000 4.399000
L1.022000 4.403000
" />
<path d="M1.020000 4.649000
L1.020000 4.653000
" />
<path d="M1.020000 4.651000
L1.022000 4.647000
" />
<path d="M1.020000 4.653000
L1.018000 4.659000
" />
<path d="M1.020000 4.653000
L1.020000 4.651000
" />
<path d="M1.022000 4.403000
L1.023000 4.408000
" />
<path d="M1.022000 4.645000
L1.020000 4.649000
" />
<path d="M1.022000 4.647000
L1.023000 4.643000
" />
<path d="M1.023000 4.405000
L1.020000 4.397000
" />
<path d="M1.023000 4.408000
L1.023000 4.414000
" />
<path d="M1.023000 4.410000
L1.023000 4.405000
" />
<path d="M1.023000 4.414000
L1.023000 4.418000
" />
<path d="M1.023000 4.418000
L1.023000 4.410000
" />
<path d="M1.023000 4.418000
L1.025000 4.424000
" />
<path d="M1.023000 4.627000
L1.025000 4.625000
" />
<path d="M1.023000 4.629000
L1.023000 4.635000
" />
<path d="M1.023000 4.631000
L1.023000 4.627000
" />
<path d="M1.023000 4.633000
L1.023000 4.631000
" />
<path d="M1.023000 4.635000
L1.023000 4.639000
" />
<path d="M1.023000 4.637000
L1.023000 4.633000
" />
<path d="M1.023000 4.639000
L1.022000 4.645000
" />
<path d="M1.023000 4.641000
L1.023000 4.637000
" />
<path d="M1.023000 4.643000
L1.023000 4.641000
" />
<path d="M1.025000 4.424000
L1.023000 4.418000
" />
<path d="M1.025000 4.424000
L1.025000 4.625000
" />
<path d="M1.025000 4.625000
L1.023000 4.629000
" />
<path d="M1.124000 0.724000
L1.924000 0.724000
" />
<path d="M1.124000 0.924000
L1.124000 0.724000
" />
<path d="M1.124000 1.123000
L1.124000 0.924000
" />
<path d="M1.656000 12.025000
L1.688000 12.023000
" />
<path d="M1.688000 12.023000
L1.719000 12.020000
" />
<path d="M1.719000 12.020000
L1.749000 12.015000
" />
<path d="M1.749000 12.015000
L1.778000 12.009000
" />
<path d="M1.778000 12.009000
L1.808000 12.001000
" />
<path d="M1.808000 12.001000
L1.837000 11.991000
" />
<path d="M1.823000 12.124000
L1.823000 11.996000
" />
<path d="M1.823000 12.124000
L2.124000 12.124000
" />
<path d="M1.837000 11.991000
L1.866000 11.978000
" />
<path d="M1.866000 11.978000
L1.893000 11.964000
" />
<path d="M1.893000 11.964000
L1.919000 11.949000
" />
<path d="M1.919000 11.949000
L1.945000 11.933000
" />
<path d="M1.924000 0.724000
L1.124000 0.724000
" />
<path d="M1.924000 0.724000
L1.924000 0.924000
" />
<path d="M1.924000 0.924000
L1.924000 1.123000
" />
<path d="M1.924000 1.123000
L2.124000 1.325000
" />
<path d="M1.945000 11.933000
L1.969000 11.914000
" />
<path d="M1.969000 11.914000
L1.991000 11.895000
" />
<path d="M1.991000 11.895000
L2.013000 11.874000
" />
<path d="M2.013000 11.874000
L2.034000 11.850000
" />
<path d="M2.034000 11.850000
L2.055000 11.826000
" />
<path d="M2.055000 11.826000
L2.073000 11.802000
" />
<path d="M2.124000 1.325000
L2.124000 1.424000
" />
<path d="M2.124000 1.424000
L2.124000 1.429000
" />
<path d="M2.124000 1.429000
L2.124000 1.435000
" />
<path d="M2.124000 1.435000
L2.126000 1.440000
" />
<path d="M2.124000 11.725000
L2.124000 12.124000
" />
<path d="M2.126000 1.440000
L2.127000 1.445000
" />
<path d="M2.127000 1.445000
L2.127000 1.448000
" />
<path d="M2.127000 1.448000
L2.129000 1.453000
" />
<path d="M2.129000 1.453000
L2.130000 1.459000
" />
<path d="M2.130000 1.459000
L2.132000 1.463000
" />
<path d="M2.132000 1.463000
L2.134000 1.467000
" />
<path d="M2.134000 1.467000
L2.137000 1.472000
" />
<path d="M2.137000 1.472000
L2.138000 1.475000
" />
<path d="M2.138000 1.475000
L2.142000 1.480000
" />
<path d="M2.142000 1.480000
L2.143000 1.483000
" />
<path d="M2.143000 1.483000
L2.146000 1.488000
" />
<path d="M2.146000 1.488000
L2.150000 1.491000
" />
<path d="M2.150000 1.491000
L2.153000 1.495000
" />
<path d="M2.153000 1.495000
L2.156000 1.498000
" />
<path d="M2.156000 1.498000
L2.161000 1.501000
" />
<path d="M2.161000 1.501000
L2.164000 1.504000
" />
<path d="M2.164000 1.504000
L2.169000 1.506000
" />
<path d="M2.169000 1.506000
L2.172000 1.509000
" />
<path d="M2.172000 1.509000
L2.177000 1.512000
" />
<path d="M2.177000 1.512000
L2.180000 1.514000
" />
<path d="M2.180000 1.514000
L2.185000 1.517000
" />
<path d="M2.185000 1.517000
L2.190000 1.517000
" />
<path d="M2.190000 1.517000
L2.195000 1.520000
" />
<path d="M2.195000 1.520000
L2.199000 1.520000
" />
<path d="M2.199000 1.520000
L2.204000 1.522000
" />
<path d="M2.204000 1.522000
L2.209000 1.522000
" />
<path d="M2.209000 1.522000
L2.214000 1.523000
" />
<path d="M2.214000 1.523000
L2.219000 1.523000
" />
<path d="M2.219000 1.523000
L2.225000 1.525000
" />
<path d="M2.225000 1.525000
L2.525000 1.525000
" />
<path d="M2.525000 1.525000
L2.529000 1.523000
" />
<path d="M2.529000 1.523000
L2.534000 1.523000
" />
<path d="M2.534000 1.523000
L2.540000 1.522000
" />
<path d="M2.540000 1.522000
L2.545000 1.522000
" />
<path d="M2.545000 1.522000
L2.549000 1.520000
" />
<path d="M2.549000 1.520000
L2.553000 1.520000
" />
<path d="M2.553000 1.520000
L2.558000 1.517000
" />
<path d="M2.558000 1.517000
L2.562000 1.517000
" />
<path d="M2.562000 1.517000
L2.567000 1.514000
" />
<path d="M2.567000 1.514000
L2.571000 1.512000
" />
<path d="M2.571000 1.512000
L2.575000 1.509000
" />
<path d="M2.575000 1.509000
L2.579000 1.506000
" />
<path d="M2.575000 11.047000
L2.073000 11.802000
" />
<path d="M2.579000 1.506000
L2.583000 1.504000
" />
<path d="M2.583000 1.504000
L2.587000 1.501000
" />
<path d="M2.587000 1.501000
L2.591000 1.498000
" />
<path d="M2.591000 1.498000
L2.594000 1.495000
" />
<path d="M2.594000 1.495000
L2.598000 1.491000
" />
<path d="M2.594000 11.021000
L2.575000 11.047000
" />
<path d="M2.598000 1.491000
L2.602000 1.488000
" />
<path d="M2.602000 1.488000
L2.605000 1.483000
" />
<path d="M2.605000 1.483000
L2.606000 1.480000
" />
<path d="M2.606000 1.480000
L2.610000 1.475000
" />
<path d="M2.610000 1.475000
L2.611000 1.472000
" />
<path d="M2.611000 1.472000
L2.614000 1.467000
" />
<path d="M2.614000 1.467000
L2.617000 1.463000
" />
<path d="M2.614000 10.997000
L2.594000 11.021000
" />
<path d="M2.617000 1.463000
L2.618000 1.459000
" />
<path d="M2.618000 1.459000
L2.619000 1.453000
" />
<path d="M2.619000 1.453000
L2.621000 1.448000
" />
<path d="M2.621000 1.448000
L2.622000 1.445000
" />
<path d="M2.622000 1.440000
L2.623000 1.435000
" />
<path d="M2.622000 1.445000
L2.622000 1.440000
" />
<path d="M2.623000 1.429000
L2.625000 1.424000
" />
<path d="M2.623000 1.435000
L2.623000 1.429000
" />
<path d="M2.625000 0.724000
L2.766000 0.583000
" />
<path d="M2.625000 1.424000
L2.625000 0.724000
" />
<path d="M2.634000 10.975000
L2.614000 10.997000
" />
<path d="M2.657000 10.954000
L2.634000 10.975000
" />
<path d="M2.679000 10.933000
L2.657000 10.954000
" />
<path d="M2.703000 10.916000
L2.679000 10.933000
" />
<path d="M2.730000 10.898000
L2.703000 10.916000
" />
<path d="M2.755000 10.884000
L2.730000 10.898000
" />
</g>
<g style="fill:#000000; fill-opacity:1.000000; stroke:none;">
<circle cx="2.766000" cy="0.583000" r="0.010000" /> 
</g>
<g style="fill:none; 
stroke:#000000; stroke-width:0.020000; stroke-opacity:1; 
stroke-linecap:round; stroke-linejoin:round;">
<path d="M2.766000 0.583000
L2.824000 0.525000
" />
<path d="M2.783000 10.869000
L2.755000 10.884000
" />
<path d="M2.811000 10.858000
L2.783000 10.869000
" />
<path d="M2.824000 0.525000
L3.625000 0.525000
" />
<path d="M2.840000 10.847000
L2.811000 10.858000
" />
<path d="M2.869000 10.839000
L2.840000 10.847000
" />
<path d="M2.900000 10.832000
L2.869000 10.839000
" />
<path d="M2.924000 10.925000
L2.691000 10.925000
" />
<path d="M2.924000 11.206000
L2.924000 10.925000
" />
<path d="M2.924000 11.294000
L2.924000 11.206000
" />
<path d="M2.924000 11.496000
L2.924000 11.294000
" />
<path d="M2.924000 11.581000
L2.924000 11.496000
" />
<path d="M2.924000 12.124000
L2.924000 11.581000
" />
<path d="M2.924000 12.124000
L3.224000 12.124000
" />
<path d="M2.929000 10.828000
L2.900000 10.832000
" />
<path d="M2.961000 10.824000
L2.929000 10.828000
" />
<path d="M2.992000 10.823000
L2.961000 10.824000
" />
<path d="M3.224000 10.925000
L3.224000 11.206000
" />
<path d="M3.224000 11.206000
L3.224000 11.294000
" />
<path d="M3.224000 11.294000
L3.224000 11.496000
" />
<path d="M3.224000 11.496000
L3.224000 11.581000
" />
<path d="M3.224000 11.581000
L3.224000 12.124000
" />
<path d="M3.474000 10.823000
L3.474000 10.925000
" />
<path d="M3.474000 10.925000
L3.224000 10.925000
" />
<path d="M3.625000 0.525000
L2.824000 0.525000
" />
<path d="M3.625000 0.525000
L3.625000 0.724000
" />
<path d="M3.625000 0.724000
L3.625000 0.729000
" />
<path d="M3.625000 0.729000
L3.625000 0.733000
" />
<path d="M3.625000 0.733000
L3.626000 0.738000
" />
<path d="M3.626000 0.738000
L3.626000 0.743000
" />
<path d="M3.626000 0.743000
L3.627000 0.748000
" />
<path d="M3.627000 0.748000
L3.629000 0.754000
" />
<path d="M3.629000 0.754000
L3.630000 0.757000
" />
<path d="M3.630000 0.757000
L3.631000 0.762000
" />
<path d="M3.631000 0.762000
L3.634000 0.767000
" />
<path d="M3.634000 0.767000
L3.635000 0.772000
" />
<path d="M3.635000 0.772000
L3.638000 0.775000
" />
<path d="M3.638000 0.775000
L3.641000 0.780000
" />
<path d="M3.641000 0.780000
L3.643000 0.783000
" />
<path d="M3.643000 0.783000
L3.646000 0.788000
" />
<path d="M3.646000 0.788000
L3.650000 0.791000
" />
<path d="M3.650000 0.791000
L3.654000 0.794000
" />
</g>
<g style="fill:#000000; fill-opacity:1.000000; stroke:none;">
<circle cx="3.654000" cy="0.794000" r="0.010000" /> 
</g>
<g style="fill:none; 
stroke:#000000; stroke-width:0.020000; stroke-opacity:1; 
stroke-linecap:round; stroke-linejoin:round;">
<path d="M3.654000 0.794000
L3.657000 0.799000
" />
<path d="M3.657000 0.799000
L3.661000 0.802000
" />
<path d="M3.661000 0.802000
L3.665000 0.804000
" />
<path d="M3.665000 0.804000
L3.669000 0.807000
" />
<path d="M3.669000 0.807000
L3.673000 0.810000
" />
<path d="M3.673000 0.810000
L3.677000 0.812000
" />
<path d="M3.677000 0.812000
L3.682000 0.815000
" />
<path d="M3.682000 0.815000
L3.686000 0.817000
" />
<path d="M3.686000 0.817000
L3.690000 0.818000
" />
<path d="M3.690000 0.818000
L3.694000 0.820000
" />
<path d="M3.694000 0.820000
L3.699000 0.820000
" />
<path d="M3.699000 0.820000
L3.705000 0.823000
" />
<path d="M3.705000 0.823000
L3.710000 0.823000
" />
<path d="M3.710000 0.823000
L3.715000 0.823000
" />
<path d="M3.715000 0.823000
L3.719000 0.823000
" />
<path d="M3.719000 0.823000
L3.724000 0.825000
" />
<path d="M3.724000 0.825000
L3.783000 0.825000
" />
<path d="M3.775000 10.823000
L3.775000 10.925000
" />
<path d="M3.783000 0.825000
L3.787000 0.823000
" />
<path d="M3.787000 0.823000
L3.792000 0.823000
" />
<path d="M3.792000 0.823000
L3.798000 0.823000
" />
<path d="M3.798000 0.823000
L3.803000 0.822000
" />
<path d="M3.803000 0.822000
L3.807000 0.820000
" />
<path d="M3.807000 0.820000
L3.811000 0.820000
" />
<path d="M3.811000 0.820000
L3.816000 0.818000
" />
<path d="M3.816000 0.818000
L3.820000 0.817000
" />
<path d="M3.820000 0.817000
L3.826000 0.815000
" />
<path d="M3.826000 0.815000
L3.830000 0.812000
" />
<path d="M3.830000 0.812000
L3.834000 0.810000
" />
<path d="M3.834000 0.810000
L3.837000 0.807000
" />
<path d="M3.837000 0.807000
L3.841000 0.804000
" />
<path d="M3.841000 0.804000
L3.845000 0.802000
" />
<path d="M3.845000 0.802000
L3.849000 0.799000
" />
<path d="M3.849000 0.799000
L3.853000 0.794000
" />
<path d="M3.853000 0.794000
L3.835000 0.809000
" />
<path d="M3.853000 0.794000
L3.976000 0.672000
" />
</g>
<g style="fill:#000000; fill-opacity:1.000000; stroke:none;">
<circle cx="3.976000" cy="0.672000" r="0.010000" /> 
</g>
<g style="fill:none; 
stroke:#000000; stroke-width:0.020000; stroke-opacity:1; 
stroke-linecap:round; stroke-linejoin:round;">
<path d="M3.976000 0.672000
L4.025000 0.623000
" />
<path d="M4.025000 0.623000
L8.625000 0.623000
" />
<path d="M4.025000 10.925000
L3.775000 10.925000
" />
<path d="M4.025000 11.206000
L4.025000 10.925000
" />
<path d="M4.025000 11.294000
L4.025000 11.206000
" />
<path d="M4.025000 11.496000
L4.025000 11.294000
" />
<path d="M4.025000 11.581000
L4.025000 11.496000
" />
<path d="M4.025000 12.124000
L4.025000 11.581000
" />
<path d="M4.025000 12.124000
L4.323000 12.124000
" />
<path d="M4.323000 10.925000
L4.323000 11.206000
" />
<path d="M4.323000 11.206000
L4.323000 11.294000
" />
<path d="M4.323000 11.294000
L4.323000 11.496000
" />
<path d="M4.323000 11.496000
L4.323000 11.581000
" />
<path d="M4.323000 11.581000
L4.323000 12.124000
" />
<path d="M4.575000 10.823000
L4.575000 10.925000
" />
<path d="M4.575000 10.925000
L4.323000 10.925000
" />
<path d="M4.874000 10.823000
L4.874000 10.925000
" />
<path d="M5.124000 10.925000
L4.874000 10.925000
" />
<path d="M5.124000 11.206000
L5.124000 10.925000
" />
<path d="M5.124000 11.294000
L5.124000 11.206000
" />
<path d="M5.124000 11.496000
L5.124000 11.294000
" />
<path d="M5.124000 11.581000
L5.124000 11.496000
" />
<path d="M5.124000 12.124000
L5.124000 11.581000
" />
<path d="M5.124000 12.124000
L5.424000 12.124000
" />
<path d="M5.424000 10.925000
L5.424000 11.206000
" />
<path d="M5.424000 11.206000
L5.424000 11.294000
" />
<path d="M5.424000 11.294000
L5.424000 11.496000
" />
<path d="M5.424000 11.496000
L5.424000 11.581000
" />
<path d="M5.424000 11.581000
L5.424000 12.124000
" />
<path d="M5.675000 10.823000
L5.675000 10.925000
" />
<path d="M5.675000 10.925000
L5.424000 10.925000
" />
<path d="M5.973000 10.823000
L5.973000 10.925000
" />
<path d="M6.225000 10.925000
L5.973000 10.925000
" />
<path d="M6.225000 11.206000
L6.225000 10.925000
" />
<path d="M6.225000 11.294000
L6.225000 11.206000
" />
<path d="M6.225000 11.496000
L6.225000 11.294000
" />
<path d="M6.225000 11.581000
L6.225000 11.496000
" />
<path d="M6.225000 12.124000
L6.225000 11.581000
" />
<path d="M6.225000 12.124000
L6.525000 12.124000
" />
<path d="M6.525000 10.925000
L6.525000 11.206000
" />
<path d="M6.525000 11.206000
L6.525000 11.294000
" />
<path d="M6.525000 11.294000
L6.525000 11.496000
" />
<path d="M6.525000 11.496000
L6.525000 11.581000
" />
<path d="M6.525000 11.581000
L6.525000 12.124000
" />
<path d="M6.773000 10.823000
L6.773000 10.925000
" />
<path d="M6.773000 10.925000
L6.525000 10.925000
" />
<path d="M7.075000 10.823000
L7.075000 10.925000
" />
<path d="M7.325000 10.925000
L7.075000 10.925000
" />
<path d="M7.325000 11.206000
L7.325000 10.925000
" />
<path d="M7.325000 11.294000
L7.325000 11.206000
" />
<path d="M7.325000 11.496000
L7.325000 11.294000
" />
<path d="M7.325000 11.581000
L7.325000 11.496000
" />
<path d="M7.325000 12.124000
L7.325000 11.581000
" />
<path d="M7.325000 12.124000
L7.625000 12.124000
" />
<path d="M7.625000 10.925000
L7.625000 11.206000
" />
<path d="M7.625000 11.206000
L7.625000 11.294000
" />
<path d="M7.625000 11.294000
L7.625000 11.496000
" />
<path d="M7.625000 11.496000
L7.625000 11.581000
" />
<path d="M7.625000 11.581000
L7.625000 12.124000
" />
<path d="M7.875000 10.823000
L7.875000 10.925000
" />
<path d="M7.875000 10.925000
L7.625000 10.925000
" />
<path d="M8.173000 10.823000
L8.173000 10.925000
" />
<path d="M8.423000 10.925000
L8.173000 10.925000
" />
<path d="M8.423000 11.206000
L8.423000 10.925000
" />
<path d="M8.423000 11.294000
L8.423000 11.206000
" />
<path d="M8.423000 11.496000
L8.423000 11.294000
" />
<path d="M8.423000 11.581000
L8.423000 11.496000
" />
<path d="M8.423000 12.124000
L8.423000 11.581000
" />
<path d="M8.423000 12.124000
L8.725000 12.124000
" />
<path d="M8.625000 0.623000
L4.025000 0.623000
" />
<path d="M8.625000 0.623000
L8.625000 0.825000
" />
<path d="M8.625000 0.825000
L8.823000 0.825000
" />
<path d="M8.725000 10.925000
L8.725000 11.206000
" />
<path d="M8.725000 11.206000
L8.725000 11.294000
" />
<path d="M8.725000 11.294000
L8.725000 11.496000
" />
<path d="M8.725000 11.496000
L8.725000 11.581000
" />
<path d="M8.725000 11.581000
L8.725000 12.124000
" />
<path d="M8.823000 0.623000
L9.823000 0.623000
" />
<path d="M8.823000 0.825000
L8.823000 0.623000
" />
<path d="M8.975000 10.823000
L8.975000 10.925000
" />
<path d="M8.975000 10.925000
L8.725000 10.925000
" />
<path d="M9.274000 10.823000
L9.274000 10.925000
" />
<path d="M9.456000 10.823000
L2.992000 10.823000
" />
<path d="M9.456000 10.823000
L9.488000 10.824000
" />
<path d="M9.488000 10.824000
L9.519000 10.828000
" />
<path d="M9.519000 10.828000
L9.548000 10.832000
" />
<path d="M9.524000 10.925000
L9.274000 10.925000
" />
<path d="M9.524000 11.206000
L9.524000 10.925000
" />
<path d="M9.524000 11.294000
L9.524000 11.206000
" />
<path d="M9.524000 11.496000
L9.524000 11.294000
" />
<path d="M9.524000 11.581000
L9.524000 11.496000
" />
<path d="M9.524000 12.124000
L9.524000 11.581000
" />
<path d="M9.524000 12.124000
L9.823000 12.124000
" />
<path d="M9.548000 10.832000
L9.579000 10.839000
" />
<path d="M9.579000 10.839000
L9.609000 10.847000
" />
<path d="M9.609000 10.847000
L9.637000 10.858000
" />
<path d="M9.637000 10.858000
L9.665000 10.869000
" />
<path d="M9.665000 10.869000
L9.693000 10.884000
" />
<path d="M9.693000 10.884000
L9.718000 10.898000
" />
<path d="M9.718000 10.898000
L9.745000 10.916000
" />
<path d="M9.745000 10.916000
L9.769000 10.933000
" />
<path d="M9.769000 10.933000
L9.791000 10.954000
" />
<path d="M9.791000 10.954000
L9.814000 10.975000
" />
<path d="M9.814000 10.975000
L9.834000 10.997000
" />
<path d="M9.823000 0.623000
L8.823000 0.623000
" />
<path d="M9.823000 0.623000
L9.823000 0.825000
" />
<path d="M9.823000 0.825000
L9.823000 1.424000
" />
<path d="M9.823000 1.424000
L9.825000 1.429000
" />
<path d="M9.823000 10.986000
L9.823000 11.206000
" />
<path d="M9.823000 11.206000
L9.823000 11.294000
" />
<path d="M9.823000 11.294000
L9.823000 11.496000
" />
<path d="M9.823000 11.496000
L9.823000 11.581000
" />
<path d="M9.823000 11.581000
L9.823000 12.124000
" />
<path d="M9.825000 1.429000
L9.825000 1.434000
" />
<path d="M9.825000 1.434000
L9.826000 1.438000
" />
<path d="M9.826000 1.438000
L9.826000 1.443000
" />
<path d="M9.826000 1.443000
L9.827000 1.448000
" />
<path d="M9.827000 1.448000
L9.829000 1.453000
" />
<path d="M9.829000 1.453000
L9.830000 1.458000
" />
<path d="M9.830000 1.458000
L9.831000 1.463000
" />
<path d="M9.831000 1.463000
L9.834000 1.466000
" />
<path d="M9.834000 1.466000
L9.835000 1.472000
" />
<path d="M9.834000 10.997000
L9.855000 11.021000
" />
<path d="M9.835000 1.472000
L9.838000 1.475000
" />
<path d="M9.838000 1.475000
L9.841000 1.480000
" />
<path d="M9.841000 1.480000
L9.843000 1.483000
" />
<path d="M9.843000 1.483000
L9.846000 1.488000
" />
<path d="M9.846000 1.488000
L9.850000 1.491000
" />
<path d="M9.850000 1.491000
L9.854000 1.495000
" />
</g>
<g style="fill:#000000; fill-opacity:1.000000; stroke:none;">
<circle cx="9.854000" cy="1.495000" r="0.010000" /> 
</g>
<g style="fill:none; 
stroke:#000000; stroke-width:0.020000; stroke-opacity:1; 
stroke-linecap:round; stroke-linejoin:round;">
<path d="M9.854000 1.495000
L9.856000 1.498000
" />
<path d="M9.855000 11.021000
L9.872000 11.047000
" />
<path d="M9.856000 1.498000
L9.860000 1.501000
" />
<path d="M9.860000 1.501000
L9.864000 1.504000
" />
<path d="M9.864000 1.504000
L9.868000 1.507000
" />
<path d="M9.868000 1.507000
L9.872000 1.509000
" />
<path d="M9.872000 1.509000
L9.876000 1.512000
" />
<path d="M9.872000 11.047000
L10.375000 11.802000
" />
<path d="M9.876000 1.512000
L9.882000 1.514000
" />
<path d="M9.882000 1.514000
L9.886000 1.517000
" />
<path d="M9.886000 1.517000
L9.891000 1.519000
" />
<path d="M9.891000 1.519000
L9.895000 1.520000
" />
<path d="M9.895000 1.520000
L9.899000 1.520000
" />
<path d="M9.899000 1.520000
L9.904000 1.522000
" />
<path d="M9.904000 1.522000
L9.910000 1.522000
" />
<path d="M9.910000 1.522000
L9.915000 1.523000
" />
<path d="M9.915000 1.523000
L9.919000 1.523000
" />
<path d="M9.919000 1.523000
L9.923000 1.525000
" />
<path d="M9.923000 1.525000
L10.225000 1.525000
" />
<path d="M10.225000 1.525000
L10.229000 1.523000
" />
<path d="M10.229000 1.523000
L10.234000 1.523000
" />
<path d="M10.234000 1.523000
L10.239000 1.522000
" />
<path d="M10.239000 1.522000
L10.245000 1.522000
" />
<path d="M10.245000 1.522000
L10.249000 1.520000
" />
<path d="M10.249000 1.520000
L10.254000 1.520000
" />
<path d="M10.254000 1.520000
L10.258000 1.517000
" />
<path d="M10.258000 1.517000
L10.262000 1.517000
" />
<path d="M10.262000 1.517000
L10.267000 1.514000
" />
<path d="M10.267000 1.514000
L10.271000 1.512000
" />
<path d="M10.271000 1.512000
L10.275000 1.509000
" />
<path d="M10.275000 1.509000
L10.279000 1.506000
" />
<path d="M10.279000 1.506000
L10.283000 1.504000
" />
<path d="M10.283000 1.504000
L10.287000 1.501000
" />
<path d="M10.287000 1.501000
L10.291000 1.498000
" />
<path d="M10.291000 1.498000
L10.294000 1.495000
" />
<path d="M10.294000 1.495000
L10.298000 1.491000
" />
<path d="M10.298000 1.491000
L10.302000 1.488000
" />
<path d="M10.302000 1.488000
L10.305000 1.483000
" />
<path d="M10.305000 1.483000
L10.306000 1.480000
" />
<path d="M10.306000 1.480000
L10.310000 1.475000
" />
<path d="M10.310000 1.475000
L10.311000 1.472000
" />
<path d="M10.311000 1.472000
L10.314000 1.467000
" />
<path d="M10.314000 1.467000
L10.317000 1.463000
" />
<path d="M10.317000 1.463000
L10.318000 1.459000
" />
<path d="M10.318000 1.459000
L10.319000 1.453000
" />
<path d="M10.319000 1.453000
L10.321000 1.448000
" />
<path d="M10.321000 1.448000
L10.322000 1.445000
" />
<path d="M10.322000 1.440000
L10.323000 1.435000
" />
<path d="M10.322000 1.445000
L10.322000 1.440000
" />
<path d="M10.323000 1.325000
L10.524000 1.123000
" />
<path d="M10.323000 1.424000
L10.323000 1.325000
" />
<path d="M10.323000 1.429000
L10.323000 1.424000
" />
<path d="M10.323000 1.435000
L10.323000 1.429000
" />
<path d="M10.375000 11.802000
L10.394000 11.826000
" />
<path d="M10.394000 11.826000
L10.414000 11.850000
" />
<path d="M10.414000 11.850000
L10.435000 11.874000
" />
<path d="M10.435000 11.874000
L10.456000 11.895000
" />
<path d="M10.456000 11.895000
L10.479000 11.914000
" />
<path d="M10.479000 11.914000
L10.504000 11.933000
" />
<path d="M10.504000 11.933000
L10.529000 11.949000
" />
<path d="M10.524000 0.724000
L11.324000 0.724000
" />
<path d="M10.524000 0.924000
L10.524000 0.724000
" />
<path d="M10.524000 0.924000
L10.524000 1.123000
" />
<path d="M10.529000 11.949000
L10.555000 11.964000
" />
<path d="M10.555000 11.964000
L10.582000 11.978000
" />
<path d="M10.582000 11.978000
L10.611000 11.991000
" />
<path d="M10.611000 11.991000
L10.640000 12.001000
" />
<path d="M10.640000 12.001000
L10.670000 12.009000
" />
<path d="M10.670000 12.009000
L10.699000 12.015000
" />
<path d="M10.699000 12.015000
L10.729000 12.020000
" />
<path d="M10.729000 12.020000
L10.760000 12.023000
" />
<path d="M10.760000 12.023000
L10.792000 12.025000
" />
<path d="M10.792000 12.025000
L12.324000 12.025000
" />
<path d="M11.124000 6.924000
L11.125000 6.918000
" />
<path d="M11.124000 10.925000
L11.124000 6.924000
" />
<path d="M11.125000 6.908000
L11.125000 6.913000
" />
<path d="M11.125000 6.908000
L11.127000 6.903000
" />
<path d="M11.125000 6.913000
L11.125000 6.908000
" />
<path d="M11.125000 6.913000
L11.125000 6.918000
" />
<path d="M11.125000 6.918000
L11.124000 6.924000
" />
<path d="M11.125000 6.918000
L11.125000 6.913000
" />
<path d="M11.125000 10.930000
L11.124000 10.925000
" />
<path d="M11.125000 10.935000
L11.125000 10.930000
" />
<path d="M11.125000 10.940000
L11.125000 10.935000
" />
<path d="M11.127000 6.900000
L11.127000 6.903000
" />
<path d="M11.127000 6.900000
L11.128000 6.895000
" />
<path d="M11.127000 6.903000
L11.125000 6.908000
" />
<path d="M11.127000 6.903000
L11.127000 6.900000
" />
<path d="M11.127000 10.945000
L11.125000 10.940000
" />
<path d="M11.127000 10.948000
L11.127000 10.945000
" />
<path d="M11.128000 6.895000
L11.127000 6.900000
" />
<path d="M11.128000 6.895000
L11.130000 6.890000
" />
<path d="M11.128000 10.954000
L11.127000 10.948000
" />
<path d="M11.130000 6.890000
L11.128000 6.895000
" />
<path d="M11.130000 6.890000
L11.132000 6.886000
" />
<path d="M11.130000 10.959000
L11.128000 10.954000
" />
<path d="M11.132000 6.886000
L11.130000 6.890000
" />
<path d="M11.132000 6.886000
L11.133000 6.881000
" />
<path d="M11.132000 10.962000
L11.130000 10.959000
" />
<path d="M11.133000 6.881000
L11.132000 6.886000
" />
<path d="M11.133000 6.881000
L11.137000 6.877000
" />
<path d="M11.133000 10.967000
L11.132000 10.962000
" />
<path d="M11.137000 6.877000
L11.133000 6.881000
" />
<path d="M11.137000 6.877000
L11.138000 6.873000
" />
<path d="M11.137000 10.972000
L11.133000 10.967000
" />
<path d="M11.138000 6.873000
L11.137000 6.877000
" />
<path d="M11.138000 6.873000
L11.141000 6.869000
" />
<path d="M11.138000 10.975000
L11.137000 10.972000
" />
<path d="M11.141000 6.869000
L11.138000 6.873000
" />
<path d="M11.141000 6.869000
L11.143000 6.865000
" />
<path d="M11.141000 10.980000
L11.138000 10.975000
" />
<path d="M11.143000 6.865000
L11.141000 6.869000
" />
<path d="M11.143000 6.865000
L11.146000 6.861000
" />
<path d="M11.143000 10.983000
L11.141000 10.980000
" />
<path d="M11.146000 6.861000
L11.143000 6.865000
" />
<path d="M11.146000 6.861000
L11.149000 6.857000
" />
<path d="M11.146000 10.988000
L11.143000 10.983000
" />
<path d="M11.149000 6.857000
L11.146000 6.861000
" />
<path d="M11.149000 6.857000
L11.154000 6.854000
" />
<path d="M11.149000 10.991000
L11.146000 10.988000
" />
<path d="M11.154000 6.854000
L11.149000 6.857000
" />
<path d="M11.154000 6.854000
L11.156000 6.850000
" />
<path d="M11.154000 10.994000
L11.149000 10.991000
" />
<path d="M11.156000 6.850000
L11.154000 6.854000
" />
<path d="M11.156000 6.850000
L11.161000 6.847000
" />
<path d="M11.156000 10.999000
L11.154000 10.994000
" />
<path d="M11.161000 6.847000
L11.156000 6.850000
" />
<path d="M11.161000 6.847000
L11.164000 6.844000
" />
<path d="M11.161000 11.002000
L11.156000 10.999000
" />
<path d="M11.164000 6.844000
L11.161000 6.847000
" />
<path d="M11.164000 6.844000
L11.169000 6.842000
" />
<path d="M11.164000 11.004000
L11.161000 11.002000
" />
<path d="M11.169000 6.842000
L11.164000 6.844000
" />
<path d="M11.169000 6.842000
L11.172000 6.839000
" />
<path d="M11.169000 11.007000
L11.164000 11.004000
" />
<path d="M11.172000 6.839000
L11.169000 6.842000
" />
<path d="M11.172000 6.839000
L11.177000 6.837000
" />
<path d="M11.172000 11.010000
L11.169000 11.007000
" />
<path d="M11.177000 6.837000
L11.172000 6.839000
" />
<path d="M11.177000 6.837000
L11.180000 6.833000
" />
<path d="M11.177000 11.012000
L11.172000 11.010000
" />
<path d="M11.180000 6.833000
L11.177000 6.837000
" />
<path d="M11.180000 6.833000
L11.186000 6.831000
" />
<path d="M11.180000 11.015000
L11.177000 11.012000
" />
<path d="M11.186000 6.831000
L11.180000 6.833000
" />
<path d="M11.186000 6.831000
L11.189000 6.830000
" />
<path d="M11.186000 11.017000
L11.180000 11.015000
" />
<path d="M11.189000 6.830000
L11.186000 6.831000
" />
<path d="M11.189000 6.830000
L11.194000 6.828000
" />
<path d="M11.189000 11.018000
L11.186000 11.017000
" />
<path d="M11.194000 6.828000
L11.189000 6.830000
" />
<path d="M11.194000 6.828000
L11.199000 6.827000
" />
<path d="M11.194000 11.020000
L11.189000 11.018000
" />
<path d="M11.199000 6.827000
L11.194000 6.828000
" />
<path d="M11.199000 6.827000
L11.204000 6.826000
" />
<path d="M11.199000 11.020000
L11.194000 11.020000
" />
<path d="M11.204000 6.826000
L11.199000 6.827000
" />
<path d="M11.204000 6.826000
L11.209000 6.825000
" />
<path d="M11.204000 11.021000
L11.199000 11.020000
" />
<path d="M11.209000 6.825000
L11.204000 6.826000
" />
<path d="M11.209000 6.825000
L11.213000 6.824000
" />
<path d="M11.209000 11.023000
L11.204000 11.021000
" />
<path d="M11.213000 6.824000
L11.209000 6.825000
" />
<path d="M11.213000 6.824000
L11.218000 6.824000
" />
<path d="M11.213000 11.023000
L11.209000 11.023000
" />
<path d="M11.218000 6.824000
L11.213000 6.824000
" />
<path d="M11.218000 6.824000
L11.225000 6.824000
" />
<path d="M11.218000 11.023000
L11.213000 11.023000
" />
<path d="M11.225000 6.824000
L11.218000 6.824000
" />
<path d="M11.225000 6.824000
L11.523000 6.824000
" />
<path d="M11.225000 11.025000
L11.218000 11.023000
" />
<path d="M11.324000 0.724000
L10.524000 0.724000
" />
<path d="M11.324000 0.724000
L11.324000 0.924000
" />
<path d="M11.324000 0.924000
L11.324000 1.123000
" />
<path d="M11.324000 1.123000
L11.523000 1.325000
" />
<path d="M11.523000 1.325000
L11.523000 1.623000
" />
<path d="M11.523000 1.623000
L11.524000 1.629000
" />
<path d="M11.523000 6.824000
L11.523000 10.324000
" />
<path d="M11.523000 10.324000
L11.524000 10.329000
" />
<path d="M11.524000 1.629000
L11.524000 1.634000
" />
<path d="M11.524000 1.634000
L11.526000 1.639000
" />
<path d="M11.524000 10.329000
L11.524000 10.334000
" />
<path d="M11.524000 10.334000
L11.526000 10.339000
" />
<path d="M11.526000 1.639000
L11.526000 1.645000
" />
<path d="M11.526000 1.645000
L11.528000 1.648000
" />
<path d="M11.526000 10.339000
L11.526000 10.345000
" />
<path d="M11.526000 10.345000
L11.528000 10.348000
" />
<path d="M11.528000 1.648000
L11.529000 1.653000
" />
<path d="M11.528000 10.348000
L11.529000 10.353000
" />
<path d="M11.529000 1.653000
L11.531000 1.658000
" />
<path d="M11.529000 10.353000
L11.531000 10.358000
" />
<path d="M11.531000 1.658000
L11.531000 1.663000
" />
<path d="M11.531000 1.663000
L11.534000 1.668000
" />
<path d="M11.531000 10.358000
L11.531000 10.363000
" />
<path d="M11.531000 10.363000
L11.534000 10.368000
" />
<path d="M11.534000 1.668000
L11.537000 1.671000
" />
<path d="M11.534000 10.368000
L11.537000 10.371000
" />
<path d="M11.537000 1.671000
L11.539000 1.676000
" />
<path d="M11.537000 10.371000
L11.539000 10.376000
" />
<path d="M11.539000 1.676000
L11.542000 1.679000
" />
<path d="M11.539000 10.376000
L11.542000 10.379000
" />
<path d="M11.542000 1.679000
L11.544000 1.684000
" />
<path d="M11.542000 10.379000
L11.544000 10.384000
" />
<path d="M11.544000 1.684000
L11.547000 1.687000
" />
<path d="M11.544000 10.384000
L11.547000 10.387000
" />
<path d="M11.547000 1.687000
L11.550000 1.692000
" />
<path d="M11.547000 10.387000
L11.550000 10.392000
" />
<path d="M11.550000 1.692000
L11.553000 1.695000
" />
<path d="M11.550000 10.392000
L11.553000 10.395000
" />
<path d="M11.553000 1.695000
L11.556000 1.698000
" />
<path d="M11.553000 10.395000
L11.556000 10.398000
" />
<path d="M11.556000 1.698000
L11.561000 1.701000
" />
<path d="M11.556000 10.398000
L11.561000 10.401000
" />
<path d="M11.561000 1.701000
L11.564000 1.704000
" />
<path d="M11.561000 10.401000
L11.564000 10.404000
" />
<path d="M11.564000 1.704000
L11.569000 1.706000
" />
<path d="M11.564000 10.404000
L11.569000 10.406000
" />
<path d="M11.569000 1.706000
L11.572000 1.709000
" />
<path d="M11.569000 10.406000
L11.572000 10.409000
" />
<path d="M11.572000 1.709000
L11.577000 1.711000
" />
<path d="M11.572000 10.409000
L11.577000 10.411000
" />
<path d="M11.577000 1.711000
L11.580000 1.714000
" />
<path d="M11.577000 10.411000
L11.580000 10.414000
" />
<path d="M11.580000 1.714000
L11.585000 1.716000
" />
<path d="M11.580000 10.414000
L11.585000 10.417000
" />
<path d="M11.585000 1.716000
L11.590000 1.717000
" />
<path d="M11.585000 10.417000
L11.590000 10.417000
" />
<path d="M11.590000 1.717000
L11.595000 1.719000
" />
<path d="M11.590000 10.417000
L11.595000 10.419000
" />
<path d="M11.595000 1.719000
L11.600000 1.721000
" />
<path d="M11.595000 10.419000
L11.600000 10.421000
" />
<path d="M11.600000 1.721000
L11.603000 1.722000
" />
<path d="M11.600000 10.421000
L11.603000 10.422000
" />
<path d="M11.603000 1.722000
L11.609000 1.722000
" />
<path d="M11.603000 10.422000
L11.609000 10.422000
" />
<path d="M11.609000 1.722000
L11.614000 1.724000
" />
<path d="M11.609000 10.422000
L11.614000 10.424000
" />
<path d="M11.614000 1.724000
L11.619000 1.724000
" />
<path d="M11.614000 10.424000
L11.619000 10.424000
" />
<path d="M11.619000 1.724000
L11.624000 1.724000
" />
<path d="M11.619000 10.424000
L11.624000 10.424000
" />
<path d="M11.624000 1.724000
L12.324000 1.724000
" />
<path d="M11.624000 10.424000
L12.024000 10.424000
" />
<path d="M11.874000 0.525000
L11.874000 1.067000
" />
<path d="M11.874000 0.525000
L12.274000 0.525000
" />
<path d="M11.874000 1.067000
L11.874000 1.153000
" />
<path d="M11.874000 1.153000
L11.874000 1.297000
" />
<path d="M11.874000 1.297000
L11.874000 1.384000
" />
<path d="M11.874000 1.384000
L11.874000 1.724000
" />
<path d="M12.024000 2.511000
L12.026000 2.504000
" />
<path d="M12.024000 2.514000
L12.024000 2.519000
" />
<path d="M12.024000 2.518000
L12.024000 2.511000
" />
<path d="M12.024000 2.519000
L12.024000 2.524000
" />
<path d="M12.024000 2.524000
L12.024000 2.518000
" />
<path d="M12.024000 2.524000
L12.024000 2.724000
" />
<path d="M12.024000 2.724000
L12.024000 2.729000
" />
<path d="M12.024000 2.728000
L12.024000 2.724000
" />
<path d="M12.024000 2.729000
L12.024000 2.735000
" />
<path d="M12.024000 2.731000
L12.024000 2.728000
" />
<path d="M12.024000 2.733000
L12.024000 2.731000
" />
<path d="M12.024000 2.735000
L12.026000 2.740000
" />
<path d="M12.024000 2.737000
L12.024000 2.733000
" />
<path d="M12.024000 3.813000
L12.024000 3.818000
" />
<path d="M12.024000 3.818000
L12.024000 3.825000
" />
<path d="M12.024000 3.825000
L12.024000 4.024000
" />
<path d="M12.024000 4.024000
L12.024000 4.030000
" />
<path d="M12.024000 4.027000
L12.024000 4.024000
" />
<path d="M12.024000 4.030000
L12.024000 4.035000
" />
<path d="M12.024000 4.031000
L12.024000 4.027000
" />
<path d="M12.024000 4.034000
L12.024000 4.031000
" />
<path d="M12.024000 4.035000
L12.026000 4.039000
" />
<path d="M12.024000 4.038000
L12.024000 4.034000
" />
<path d="M12.024000 10.424000
L12.029000 10.424000
" />
<path d="M12.026000 2.503000
L12.026000 2.508000
" />
<path d="M12.026000 2.504000
L12.027000 2.498000
" />
<path d="M12.026000 2.508000
L12.024000 2.514000
" />
<path d="M12.026000 2.740000
L12.026000 2.745000
" />
<path d="M12.026000 2.741000
L12.024000 2.737000
" />
<path d="M12.026000 2.744000
L12.026000 2.741000
" />
<path d="M12.026000 2.745000
L12.027000 2.749000
" />
<path d="M12.026000 2.746000
L12.026000 2.744000
" />
<path d="M12.026000 3.804000
L12.026000 3.809000
" />
<path d="M12.026000 3.809000
L12.024000 3.813000
" />
<path d="M12.026000 4.039000
L12.026000 4.044000
" />
<path d="M12.026000 4.040000
L12.024000 4.038000
" />
<path d="M12.026000 4.043000
L12.026000 4.040000
" />
<path d="M12.026000 4.044000
L12.027000 4.048000
" />
<path d="M12.026000 4.047000
L12.026000 4.043000
" />
<path d="M12.027000 2.498000
L12.029000 2.491000
" />
<path d="M12.027000 2.499000
L12.026000 2.503000
" />
<path d="M12.027000 2.749000
L12.029000 2.753000
" />
<path d="M12.027000 2.750000
L12.026000 2.746000
" />
<path d="M12.027000 3.800000
L12.026000 3.804000
" />
<path d="M12.027000 4.048000
L12.029000 4.054000
" />
<path d="M12.027000 4.051000
L12.026000 4.047000
" />
<path d="M12.029000 2.491000
L12.031000 2.486000
" />
<path d="M12.029000 2.495000
L12.027000 2.499000
" />
<path d="M12.029000 2.753000
L12.027000 2.750000
" />
<path d="M12.029000 2.753000
L12.031000 2.758000
" />
<path d="M12.029000 2.757000
L12.029000 2.753000
" />
<path d="M12.029000 3.794000
L12.027000 3.800000
" />
<path d="M12.029000 4.054000
L12.027000 4.051000
" />
<path d="M12.029000 4.054000
L12.031000 4.059000
" />
<path d="M12.029000 4.056000
L12.029000 4.054000
" />
<path d="M12.029000 10.424000
L12.034000 10.424000
" />
<path d="M12.031000 2.486000
L12.031000 2.490000
" />
<path d="M12.031000 2.486000
L12.034000 2.479000
" />
<path d="M12.031000 2.490000
L12.029000 2.495000
" />
<path d="M12.031000 2.758000
L12.031000 2.762000
" />
<path d="M12.031000 2.760000
L12.029000 2.757000
" />
<path d="M12.031000 2.762000
L12.031000 2.760000
" />
<path d="M12.031000 2.762000
L12.034000 2.768000
" />
<path d="M12.031000 3.785000
L12.031000 3.789000
" />
<path d="M12.031000 3.789000
L12.029000 3.794000
" />
<path d="M12.031000 4.059000
L12.029000 4.056000
" />
<path d="M12.031000 4.059000
L12.031000 4.063000
" />
<path d="M12.031000 4.063000
L12.031000 4.059000
" />
<path d="M12.031000 4.063000
L12.034000 4.067000
" />
<path d="M12.032000 2.765000
L12.031000 2.762000
" />
<path d="M12.032000 4.066000
L12.031000 4.063000
" />
<path d="M12.034000 2.479000
L12.037000 2.474000
" />
<path d="M12.034000 2.481000
L12.031000 2.486000
" />
<path d="M12.034000 2.768000
L12.037000 2.772000
" />
<path d="M12.034000 2.769000
L12.032000 2.765000
" />
<path d="M12.034000 3.781000
L12.031000 3.785000
" />
<path d="M12.034000 4.067000
L12.037000 4.071000
" />
<path d="M12.034000 4.068000
L12.032000 4.066000
" />
<path d="M12.034000 10.424000
L12.039000 10.422000
" />
<path d="M12.036000 2.772000
L12.034000 2.769000
" />
<path d="M12.036000 4.071000
L12.034000 4.068000
" />
<path d="M12.037000 2.474000
L12.040000 2.469000
" />
<path d="M12.037000 2.477000
L12.034000 2.481000
" />
<path d="M12.037000 2.772000
L12.039000 2.776000
" />
<path d="M12.037000 2.773000
L12.036000 2.772000
" />
<path d="M12.037000 3.777000
L12.034000 3.781000
" />
<path d="M12.037000 4.071000
L12.039000 4.075000
" />
<path d="M12.037000 4.074000
L12.036000 4.071000
" />
<path d="M12.039000 2.473000
L12.037000 2.477000
" />
<path d="M12.039000 2.776000
L12.042000 2.780000
" />
<path d="M12.039000 2.777000
L12.037000 2.773000
" />
<path d="M12.039000 3.773000
L12.037000 3.777000
" />
<path d="M12.039000 4.075000
L12.042000 4.079000
" />
<path d="M12.039000 4.076000
L12.037000 4.074000
" />
<path d="M12.039000 10.422000
L12.045000 10.422000
" />
<path d="M12.040000 2.469000
L12.045000 2.463000
" />
<path d="M12.040000 2.780000
L12.039000 2.777000
" />
<path d="M12.040000 4.079000
L12.039000 4.076000
" />
<path d="M12.042000 2.469000
L12.039000 2.473000
" />
<path d="M12.042000 2.780000
L12.044000 2.784000
" />
<path d="M12.042000 2.782000
L12.040000 2.780000
" />
<path d="M12.042000 3.769000
L12.039000 3.773000
" />
<path d="M12.042000 4.079000
L12.044000 4.083000
" />
<path d="M12.042000 4.083000
L12.040000 4.079000
" />
<path d="M12.044000 2.465000
L12.042000 2.469000
" />
<path d="M12.044000 2.784000
L12.047000 2.788000
" />
<path d="M12.044000 3.765000
L12.042000 3.769000
" />
<path d="M12.044000 4.083000
L12.047000 4.087000
" />
<path d="M12.045000 2.463000
L12.048000 2.458000
" />
<path d="M12.045000 2.785000
L12.042000 2.782000
" />
<path d="M12.045000 4.084000
L12.042000 4.083000
" />
<path d="M12.045000 10.422000
L12.048000 10.421000
" />
<path d="M12.047000 2.461000
L12.044000 2.465000
" />
<path d="M12.047000 2.788000
L12.045000 2.785000
" />
<path d="M12.047000 2.788000
L12.050000 2.792000
" />
<path d="M12.047000 3.760000
L12.044000 3.765000
" />
<path d="M12.047000 4.087000
L12.045000 4.084000
" />
<path d="M12.047000 4.087000
L12.050000 4.091000
" />
<path d="M12.048000 2.458000
L12.053000 2.454000
" />
<path d="M12.048000 2.789000
L12.047000 2.788000
" />
<path d="M12.048000 4.090000
L12.047000 4.087000
" />
<path d="M12.048000 10.421000
L12.053000 10.419000
" />
<path d="M12.050000 2.457000
L12.047000 2.461000
" />
<path d="M12.050000 2.792000
L12.053000 2.794000
" />
<path d="M12.050000 2.793000
L12.048000 2.789000
" />
<path d="M12.050000 3.756000
L12.047000 3.760000
" />
<path d="M12.050000 4.091000
L12.053000 4.095000
" />
<path d="M12.050000 4.092000
L12.048000 4.090000
" />
<path d="M12.053000 2.454000
L12.050000 2.457000
" />
<path d="M12.053000 2.454000
L12.058000 2.449000
" />
<path d="M12.053000 2.794000
L12.050000 2.793000
" />
<path d="M12.053000 2.794000
L12.056000 2.798000
" />
<path d="M12.053000 3.753000
L12.050000 3.756000
" />
<path d="M12.053000 4.095000
L12.050000 4.092000
" />
<path d="M12.053000 4.095000
L12.056000 4.099000
" />
<path d="M12.053000 10.419000
L12.058000 10.417000
" />
<path d="M12.055000 2.797000
L12.053000 2.794000
" />
<path d="M12.055000 4.096000
L12.053000 4.095000
" />
<path d="M12.056000 2.450000
L12.053000 2.454000
" />
<path d="M12.056000 2.798000
L12.061000 2.801000
" />
<path d="M12.056000 3.749000
L12.053000 3.753000
" />
<path d="M12.056000 4.099000
L12.061000 4.102000
" />
<path d="M12.058000 2.449000
L12.063000 2.445000
" />
<path d="M12.058000 2.800000
L12.055000 2.797000
" />
<path d="M12.058000 4.099000
L12.055000 4.096000
" />
<path d="M12.058000 10.417000
L12.063000 10.417000
" />
<path d="M12.061000 2.446000
L12.056000 2.450000
" />
<path d="M12.061000 2.801000
L12.058000 2.800000
" />
<path d="M12.061000 2.801000
L12.064000 2.805000
" />
<path d="M12.061000 3.747000
L12.056000 3.749000
" />
<path d="M12.061000 4.102000
L12.058000 4.099000
" />
<path d="M12.061000 4.102000
L12.064000 4.104000
" />
<path d="M12.063000 2.445000
L12.069000 2.441000
" />
<path d="M12.063000 2.804000
L12.061000 2.801000
" />
<path d="M12.063000 4.103000
L12.061000 4.102000
" />
<path d="M12.063000 10.417000
L12.068000 10.414000
" />
<path d="M12.064000 2.443000
L12.061000 2.446000
" />
<path d="M12.064000 2.805000
L12.069000 2.806000
" />
<path d="M12.064000 3.744000
L12.061000 3.747000
" />
<path d="M12.064000 4.104000
L12.069000 4.107000
" />
<path d="M12.066000 2.805000
L12.063000 2.804000
" />
<path d="M12.066000 4.106000
L12.063000 4.103000
" />
<path d="M12.068000 10.414000
L12.071000 10.411000
" />
<path d="M12.069000 2.441000
L12.074000 2.438000
" />
<path d="M12.069000 2.442000
L12.064000 2.443000
" />
<path d="M12.069000 2.806000
L12.072000 2.809000
" />
<path d="M12.069000 2.808000
L12.066000 2.805000
" />
<path d="M12.069000 3.741000
L12.064000 3.744000
" />
<path d="M12.069000 4.107000
L12.066000 4.106000
" />
<path d="M12.069000 4.107000
L12.072000 4.110000
" />
<path d="M12.071000 2.809000
L12.069000 2.808000
" />
<path d="M12.071000 4.108000
L12.069000 4.107000
" />
<path d="M12.071000 10.411000
L12.076000 10.409000
" />
<path d="M12.072000 2.438000
L12.069000 2.442000
" />
<path d="M12.072000 2.809000
L12.077000 2.812000
" />
<path d="M12.072000 3.739000
L12.069000 3.741000
" />
<path d="M12.072000 4.110000
L12.077000 4.111000
" />
<path d="M12.074000 2.810000
L12.071000 2.809000
" />
<path d="M12.074000 4.111000
L12.071000 4.108000
" />
<path d="M12.076000 10.409000
L12.079000 10.406000
" />
<path d="M12.077000 2.437000
L12.072000 2.438000
" />
<path d="M12.077000 2.812000
L12.080000 2.814000
" />
<path d="M12.077000 3.736000
L12.072000 3.739000
" />
<path d="M12.077000 4.111000
L12.080000 4.115000
" />
<path d="M12.079000 10.406000
L12.084000 10.404000
" />
<path d="M12.080000 2.434000
L12.077000 2.437000
" />
<path d="M12.080000 2.814000
L12.085000 2.817000
" />
<path d="M12.080000 3.733000
L12.077000 3.736000
" />
<path d="M12.080000 4.115000
L12.085000 4.116000
" />
<path d="M12.084000 10.404000
L12.087000 10.401000
" />
<path d="M12.085000 2.431000
L12.080000 2.434000
" />
<path d="M12.085000 2.817000
L12.090000 2.817000
" />
<path d="M12.085000 3.732000
L12.080000 3.733000
" />
<path d="M12.085000 4.116000
L12.090000 4.118000
" />
<path d="M12.087000 10.401000
L12.092000 10.398000
" />
<path d="M12.090000 2.430000
L12.085000 2.431000
" />
<path d="M12.090000 2.817000
L12.095000 2.820000
" />
<path d="M12.090000 3.731000
L12.085000 3.732000
" />
<path d="M12.090000 4.118000
L12.095000 4.119000
" />
<path d="M12.092000 10.398000
L12.095000 10.395000
" />
<path d="M12.095000 2.429000
L12.090000 2.430000
" />
<path d="M12.095000 2.820000
L12.100000 2.821000
" />
<path d="M12.095000 3.728000
L12.090000 3.731000
" />
<path d="M12.095000 4.119000
L12.100000 4.120000
" />
<path d="M12.095000 10.395000
L12.098000 10.392000
" />
<path d="M12.098000 10.392000
L12.101000 10.387000
" />
<path d="M12.100000 2.427000
L12.095000 2.429000
" />
<path d="M12.100000 2.821000
L12.103000 2.821000
" />
<path d="M12.100000 3.728000
L12.095000 3.728000
" />
<path d="M12.100000 4.120000
L12.103000 4.122000
" />
<path d="M12.101000 10.387000
L12.104000 10.384000
" />
<path d="M12.103000 2.426000
L12.100000 2.427000
" />
<path d="M12.103000 2.821000
L12.109000 2.822000
" />
<path d="M12.103000 3.727000
L12.100000 3.728000
" />
<path d="M12.103000 4.122000
L12.109000 4.123000
" />
<path d="M12.104000 10.384000
L12.106000 10.379000
" />
<path d="M12.106000 10.379000
L12.109000 10.376000
" />
<path d="M12.109000 2.426000
L12.103000 2.426000
" />
<path d="M12.109000 2.822000
L12.114000 2.824000
" />
<path d="M12.109000 3.725000
L12.103000 3.727000
" />
<path d="M12.109000 4.123000
L12.114000 4.123000
" />
<path d="M12.109000 10.376000
L12.111000 10.371000
" />
<path d="M12.111000 10.371000
L12.114000 10.368000
" />
<path d="M12.114000 2.425000
L12.109000 2.426000
" />
<path d="M12.114000 2.824000
L12.119000 2.824000
" />
<path d="M12.114000 3.724000
L12.109000 3.725000
" />
<path d="M12.114000 4.123000
L12.119000 4.123000
" />
<path d="M12.114000 10.368000
L12.117000 10.363000
" />
<path d="M12.117000 10.358000
L12.119000 10.353000
" />
<path d="M12.117000 10.363000
L12.117000 10.358000
" />
<path d="M12.119000 2.425000
L12.114000 2.425000
" />
<path d="M12.119000 2.824000
L12.124000 2.825000
" />
<path d="M12.119000 3.724000
L12.114000 3.724000
" />
<path d="M12.119000 4.123000
L12.124000 4.124000
" />
<path d="M12.119000 10.353000
L12.120000 10.348000
" />
<path d="M12.120000 10.348000
L12.122000 10.345000
" />
<path d="M12.122000 10.339000
L12.124000 10.334000
" />
<path d="M12.122000 10.345000
L12.122000 10.339000
" />
<path d="M12.124000 2.425000
L12.119000 2.425000
" />
<path d="M12.124000 2.825000
L12.324000 2.825000
" />
<path d="M12.124000 3.724000
L12.119000 3.724000
" />
<path d="M12.124000 4.124000
L12.324000 4.124000
" />
<path d="M12.124000 6.824000
L12.324000 6.824000
" />
<path d="M12.124000 10.324000
L12.124000 6.824000
" />
<path d="M12.124000 10.329000
L12.124000 10.324000
" />
<path d="M12.124000 10.334000
L12.124000 10.329000
" />
<path d="M12.274000 0.525000
L12.274000 1.067000
" />
<path d="M12.274000 1.067000
L12.274000 1.153000
" />
<path d="M12.274000 1.153000
L12.274000 1.297000
" />
<path d="M12.274000 1.297000
L12.274000 1.384000
" />
<path d="M12.274000 1.384000
L12.274000 1.724000
" />
<path d="M12.324000 1.724000
L12.524000 1.724000
" />
<path d="M12.324000 2.425000
L12.124000 2.425000
" />
<path d="M12.324000 2.825000
L12.524000 2.825000
" />
<path d="M12.324000 3.724000
L12.124000 3.724000
" />
<path d="M12.324000 4.124000
L12.524000 4.124000
" />
<path d="M12.324000 10.823000
L12.374000 10.823000
" />
<path d="M12.324000 11.025000
L11.225000 11.025000
" />
<path d="M12.324000 11.025000
L12.324000 10.823000
" />
<path d="M12.324000 11.025000
L12.524000 11.025000
" />
<path d="M12.374000 6.824000
L12.374000 6.882000
" />
<path d="M12.374000 6.882000
L12.374000 9.466000
" />
<path d="M12.374000 9.466000
L12.374000 9.525000
" />
<path d="M12.374000 9.525000
L12.374000 9.582000
" />
<path d="M12.374000 9.525000
L12.524000 9.525000
" />
<path d="M12.374000 9.582000
L12.374000 10.467000
" />
<path d="M12.374000 10.467000
L12.374000 10.525000
" />
<path d="M12.374000 10.525000
L12.374000 10.581000
" />
<path d="M12.374000 10.525000
L12.524000 10.525000
" />
<path d="M12.374000 10.525000
L12.524000 10.525000
" />
<path d="M12.374000 10.967000
L12.374000 10.581000
" />
<path d="M12.374000 11.025000
L12.374000 10.967000
" />
<path d="M12.524000 1.724000
L12.524000 2.425000
" />
<path d="M12.524000 2.425000
L12.324000 2.425000
" />
<path d="M12.524000 2.825000
L12.524000 3.724000
" />
<path d="M12.524000 3.724000
L12.324000 3.724000
" />
<path d="M12.524000 4.124000
L12.524000 6.824000
" />
<path d="M12.524000 6.824000
L12.324000 6.824000
" />
<path d="M12.524000 6.824000
L12.524000 4.124000
" />
<path d="M12.524000 6.882000
L12.524000 6.824000
" />
<path d="M12.524000 9.466000
L12.524000 6.882000
" />
<path d="M12.524000 9.525000
L12.524000 9.466000
" />
<path d="M12.524000 9.582000
L12.524000 9.525000
" />
<path d="M12.524000 10.467000
L12.524000 9.582000
" />
<path d="M12.524000 10.525000
L12.524000 10.467000
" />
<path d="M12.524000 10.581000
L12.524000 10.525000
" />
<path d="M12.524000 10.967000
L12.524000 10.581000
" />
<path d="M12.524000 11.025000
L12.524000 10.967000
" />
<path d="M12.524000 11.025000
L12.524000 12.025000
" />
<path d="M12.524000 12.025000
L12.324000 12.025000
" />
<path d="M12.524000 12.025000
L12.524000 11.025000
" />
</g> 
</svg>
