<?xml version="1.0" standalone="no"?>
 <!DOCTYPE svg PUBLIC "-//W3C//DTD SVG 1.1//EN" 
 "http://www.w3.org/Graphics/SVG/1.1/DTD/svg11.dtd"> 
<svg
  xmlns:svg="http://www.w3.org/2000/svg"
  xmlns="http://www.w3.org/2000/svg"
  xmlns:xlink="http://www.w3.org/1999/xlink"
  version="1.1"
  width="12.1920mm" height="5.5372mm" viewBox="0.0000 0.0000 12.1920 5.5372">
<title>SVG Image created as outline.svg date 2025/06/16 09:17:54 </title>
  <desc>Image generated by PCBNEW </desc>
<g style="fill:#000000; fill-opacity:1.0000;stroke:#000000; stroke-opacity:1.0000;
stroke-linecap:round; stroke-linejoin:round;"
 transform="translate(0 0) scale(1 1)">
</g>
<g style="fill:none; 
stroke:#000000; stroke-width:0.0200; stroke-opacity:1; 
stroke-linecap:round; stroke-linejoin:round;">
<path d="M0.2750 0.9750
L0.4750 0.7750
" />
<path d="M0.2750 1.0200
L0.2750 0.9750
" />
</g>
<g style="fill:#000000; fill-opacity:1.0000; stroke:none;">
<circle cx="0.2750" cy="1.0200" r="0.0100" /> 
</g>
<g style="fill:none; 
stroke:#000000; stroke-width:0.0200; stroke-opacity:1; 
stroke-linecap:round; stroke-linejoin:round;">
<path d="M0.2750 1.1530
L0.2750 1.0200
" />
</g>
<g style="fill:#000000; fill-opacity:1.0000; stroke:none;">
<circle cx="0.2750" cy="1.1530" r="0.0100" /> 
</g>
<g style="fill:none; 
stroke:#000000; stroke-width:0.0200; stroke-opacity:1; 
stroke-linecap:round; stroke-linejoin:round;">
<path d="M0.2750 1.3680
L0.2750 1.1530
" />
</g>
<g style="fill:#000000; fill-opacity:1.0000; stroke:none;">
<circle cx="0.2750" cy="1.3680" r="0.0100" /> 
</g>
<g style="fill:none; 
stroke:#000000; stroke-width:0.0200; stroke-opacity:1; 
stroke-linecap:round; stroke-linejoin:round;">
<path d="M0.2750 1.6530
L0.2750 1.3680
" />
</g>
<g style="fill:#000000; fill-opacity:1.0000; stroke:none;">
<circle cx="0.2750" cy="1.6530" r="0.0100" /> 
</g>
<g style="fill:none; 
stroke:#000000; stroke-width:0.0200; stroke-opacity:1; 
stroke-linecap:round; stroke-linejoin:round;">
<path d="M0.2750 1.9940
L0.2750 1.6530
" />
</g>
<g style="fill:#000000; fill-opacity:1.0000; stroke:none;">
<circle cx="0.2750" cy="1.9940" r="0.0100" /> 
</g>
<g style="fill:none; 
stroke:#000000; stroke-width:0.0200; stroke-opacity:1; 
stroke-linecap:round; stroke-linejoin:round;">
<path d="M0.2750 2.3740
L0.2750 1.9940
" />
</g>
<g style="fill:#000000; fill-opacity:1.0000; stroke:none;">
<circle cx="0.2750" cy="2.3740" r="0.0100" /> 
</g>
<g style="fill:none; 
stroke:#000000; stroke-width:0.0200; stroke-opacity:1; 
stroke-linecap:round; stroke-linejoin:round;">
<path d="M0.2750 2.7750
L0.2750 2.3740
" />
</g>
<g style="fill:#000000; fill-opacity:1.0000; stroke:none;">
<circle cx="0.2750" cy="2.7750" r="0.0100" /> 
</g>
<g style="fill:none; 
stroke:#000000; stroke-width:0.0200; stroke-opacity:1; 
stroke-linecap:round; stroke-linejoin:round;">
<path d="M0.2750 3.1760
L0.2750 2.7750
" />
</g>
<g style="fill:#000000; fill-opacity:1.0000; stroke:none;">
<circle cx="0.2750" cy="3.1760" r="0.0100" /> 
</g>
<g style="fill:none; 
stroke:#000000; stroke-width:0.0200; stroke-opacity:1; 
stroke-linecap:round; stroke-linejoin:round;">
<path d="M0.2750 3.5560
L0.2750 3.1760
" />
</g>
<g style="fill:#000000; fill-opacity:1.0000; stroke:none;">
<circle cx="0.2750" cy="3.5560" r="0.0100" /> 
</g>
<g style="fill:none; 
stroke:#000000; stroke-width:0.0200; stroke-opacity:1; 
stroke-linecap:round; stroke-linejoin:round;">
<path d="M0.2750 3.8970
L0.2750 3.5560
" />
</g>
<g style="fill:#000000; fill-opacity:1.0000; stroke:none;">
<circle cx="0.2750" cy="3.8970" r="0.0100" /> 
</g>
<g style="fill:none; 
stroke:#000000; stroke-width:0.0200; stroke-opacity:1; 
stroke-linecap:round; stroke-linejoin:round;">
<path d="M0.2750 4.1820
L0.2750 3.8970
" />
</g>
<g style="fill:#000000; fill-opacity:1.0000; stroke:none;">
<circle cx="0.2750" cy="4.1820" r="0.0100" /> 
</g>
<g style="fill:none; 
stroke:#000000; stroke-width:0.0200; stroke-opacity:1; 
stroke-linecap:round; stroke-linejoin:round;">
<path d="M0.2750 4.3970
L0.2750 4.1820
" />
</g>
<g style="fill:#000000; fill-opacity:1.0000; stroke:none;">
<circle cx="0.2750" cy="4.3970" r="0.0100" /> 
</g>
<g style="fill:none; 
stroke:#000000; stroke-width:0.0200; stroke-opacity:1; 
stroke-linecap:round; stroke-linejoin:round;">
<path d="M0.2750 4.5300
L0.2750 4.3970
" />
</g>
<g style="fill:#000000; fill-opacity:1.0000; stroke:none;">
<circle cx="0.2750" cy="4.5300" r="0.0100" /> 
</g>
<g style="fill:none; 
stroke:#000000; stroke-width:0.0200; stroke-opacity:1; 
stroke-linecap:round; stroke-linejoin:round;">
<path d="M0.2750 4.5750
L0.2750 4.5300
" />
<path d="M0.2750 4.5750
L0.4750 4.7750
" />
<path d="M0.4750 0.7750
L0.4750 0.8250
" />
<path d="M0.4750 0.7750
L1.2750 0.7750
" />
</g>
<g style="fill:#000000; fill-opacity:1.0000; stroke:none;">
<circle cx="0.4750" cy="0.8250" r="0.0100" /> 
</g>
<g style="fill:none; 
stroke:#000000; stroke-width:0.0200; stroke-opacity:1; 
stroke-linecap:round; stroke-linejoin:round;">
<path d="M0.4750 0.8250
L0.4750 0.9730
" />
</g>
<g style="fill:#000000; fill-opacity:1.0000; stroke:none;">
<circle cx="0.4750" cy="0.9730" r="0.0100" /> 
</g>
<g style="fill:none; 
stroke:#000000; stroke-width:0.0200; stroke-opacity:1; 
stroke-linecap:round; stroke-linejoin:round;">
<path d="M0.4750 0.9730
L0.4750 1.2110
" />
</g>
<g style="fill:#000000; fill-opacity:1.0000; stroke:none;">
<circle cx="0.4750" cy="1.2110" r="0.0100" /> 
</g>
<g style="fill:none; 
stroke:#000000; stroke-width:0.0200; stroke-opacity:1; 
stroke-linecap:round; stroke-linejoin:round;">
<path d="M0.4750 1.2110
L0.4750 1.5280
" />
</g>
<g style="fill:#000000; fill-opacity:1.0000; stroke:none;">
<circle cx="0.4750" cy="1.5280" r="0.0100" /> 
</g>
<g style="fill:none; 
stroke:#000000; stroke-width:0.0200; stroke-opacity:1; 
stroke-linecap:round; stroke-linejoin:round;">
<path d="M0.4750 1.5280
L0.4750 1.9070
" />
</g>
<g style="fill:#000000; fill-opacity:1.0000; stroke:none;">
<circle cx="0.4750" cy="1.9070" r="0.0100" /> 
</g>
<g style="fill:none; 
stroke:#000000; stroke-width:0.0200; stroke-opacity:1; 
stroke-linecap:round; stroke-linejoin:round;">
<path d="M0.4750 1.9070
L0.4750 2.3300
" />
</g>
<g style="fill:#000000; fill-opacity:1.0000; stroke:none;">
<circle cx="0.4750" cy="2.3300" r="0.0100" /> 
</g>
<g style="fill:none; 
stroke:#000000; stroke-width:0.0200; stroke-opacity:1; 
stroke-linecap:round; stroke-linejoin:round;">
<path d="M0.4750 2.3300
L0.4750 2.7750
" />
</g>
<g style="fill:#000000; fill-opacity:1.0000; stroke:none;">
<circle cx="0.4750" cy="2.7750" r="0.0100" /> 
</g>
<g style="fill:none; 
stroke:#000000; stroke-width:0.0200; stroke-opacity:1; 
stroke-linecap:round; stroke-linejoin:round;">
<path d="M0.4750 2.7750
L0.4750 3.2200
" />
</g>
<g style="fill:#000000; fill-opacity:1.0000; stroke:none;">
<circle cx="0.4750" cy="3.2200" r="0.0100" /> 
</g>
<g style="fill:none; 
stroke:#000000; stroke-width:0.0200; stroke-opacity:1; 
stroke-linecap:round; stroke-linejoin:round;">
<path d="M0.4750 3.2200
L0.4750 3.6430
" />
</g>
<g style="fill:#000000; fill-opacity:1.0000; stroke:none;">
<circle cx="0.4750" cy="3.6430" r="0.0100" /> 
</g>
<g style="fill:none; 
stroke:#000000; stroke-width:0.0200; stroke-opacity:1; 
stroke-linecap:round; stroke-linejoin:round;">
<path d="M0.4750 3.6430
L0.4750 4.0220
" />
</g>
<g style="fill:#000000; fill-opacity:1.0000; stroke:none;">
<circle cx="0.4750" cy="4.0220" r="0.0100" /> 
</g>
<g style="fill:none; 
stroke:#000000; stroke-width:0.0200; stroke-opacity:1; 
stroke-linecap:round; stroke-linejoin:round;">
<path d="M0.4750 4.0220
L0.4750 4.3390
" />
</g>
<g style="fill:#000000; fill-opacity:1.0000; stroke:none;">
<circle cx="0.4750" cy="4.3390" r="0.0100" /> 
</g>
<g style="fill:none; 
stroke:#000000; stroke-width:0.0200; stroke-opacity:1; 
stroke-linecap:round; stroke-linejoin:round;">
<path d="M0.4750 4.3390
L0.4750 4.5770
" />
</g>
<g style="fill:#000000; fill-opacity:1.0000; stroke:none;">
<circle cx="0.4750" cy="4.5770" r="0.0100" /> 
</g>
<g style="fill:none; 
stroke:#000000; stroke-width:0.0200; stroke-opacity:1; 
stroke-linecap:round; stroke-linejoin:round;">
<path d="M0.4750 4.5770
L0.4750 4.7250
" />
</g>
<g style="fill:#000000; fill-opacity:1.0000; stroke:none;">
<circle cx="0.4750" cy="4.7250" r="0.0100" /> 
</g>
<g style="fill:none; 
stroke:#000000; stroke-width:0.0200; stroke-opacity:1; 
stroke-linecap:round; stroke-linejoin:round;">
<path d="M0.4750 4.7250
L0.4750 4.7750
" />
<path d="M0.4750 4.7750
L1.2750 4.7750
" />
<path d="M1.2850 0.7750
L1.2750 0.7750
" />
<path d="M1.2850 4.7750
L1.2750 4.7750
" />
<path d="M1.2950 0.7760
L1.2850 0.7750
" />
<path d="M1.2950 4.7740
L1.2850 4.7750
" />
<path d="M1.3050 0.7770
L1.2950 0.7760
" />
<path d="M1.3050 4.7730
L1.2950 4.7740
" />
<path d="M1.3150 0.7790
L1.3050 0.7770
" />
<path d="M1.3150 4.7710
L1.3050 4.7730
" />
<path d="M1.3250 0.7810
L1.3150 0.7790
" />
<path d="M1.3250 4.7690
L1.3150 4.7710
" />
<path d="M1.3340 0.7840
L1.3250 0.7810
" />
<path d="M1.3340 4.7660
L1.3250 4.7690
" />
<path d="M1.3440 0.7870
L1.3340 0.7840
" />
<path d="M1.3440 4.7630
L1.3340 4.7660
" />
<path d="M1.3530 0.7910
L1.3440 0.7870
" />
<path d="M1.3530 4.7590
L1.3440 4.7630
" />
<path d="M1.3620 0.7950
L1.3530 0.7910
" />
<path d="M1.3620 4.7550
L1.3530 4.7590
" />
<path d="M1.3700 0.7990
L1.3620 0.7950
" />
<path d="M1.3700 4.7510
L1.3620 4.7550
" />
<path d="M1.3790 0.8040
L1.3700 0.7990
" />
<path d="M1.3790 4.7460
L1.3700 4.7510
" />
<path d="M1.3870 0.8090
L1.3790 0.8040
" />
<path d="M1.3870 4.7410
L1.3790 4.7460
" />
<path d="M1.3950 0.8150
L1.3870 0.8090
" />
<path d="M1.3950 4.7350
L1.3870 4.7410
" />
<path d="M1.4020 0.8210
L1.3950 0.8150
" />
<path d="M1.4020 4.7290
L1.3950 4.7350
" />
<path d="M1.4090 0.8270
L1.4020 0.8210
" />
<path d="M1.4090 4.7230
L1.4020 4.7290
" />
<path d="M1.4160 0.8340
L1.4090 0.8270
" />
<path d="M1.4160 4.7160
L1.4090 4.7230
" />
<path d="M1.4230 0.8410
L1.4160 0.8340
" />
<path d="M1.4230 4.7090
L1.4160 4.7160
" />
<path d="M1.4290 0.8480
L1.4230 0.8410
" />
<path d="M1.4290 4.7020
L1.4230 4.7090
" />
<path d="M1.4350 0.8550
L1.4290 0.8480
" />
<path d="M1.4350 4.6950
L1.4290 4.7020
" />
<path d="M1.4410 0.8630
L1.4350 0.8550
" />
<path d="M1.4410 4.6870
L1.4350 4.6950
" />
<path d="M1.4460 0.8710
L1.4410 0.8630
" />
<path d="M1.4460 4.6790
L1.4410 4.6870
" />
<path d="M1.4510 0.8800
L1.4460 0.8710
" />
<path d="M1.4510 4.6700
L1.4460 4.6790
" />
<path d="M1.4550 0.8880
L1.4510 0.8800
" />
<path d="M1.4550 4.6620
L1.4510 4.6700
" />
<path d="M1.4590 0.8970
L1.4550 0.8880
" />
<path d="M1.4590 4.6530
L1.4550 4.6620
" />
<path d="M1.4630 0.9060
L1.4590 0.8970
" />
<path d="M1.4630 4.6440
L1.4590 4.6530
" />
<path d="M1.4660 0.9160
L1.4630 0.9060
" />
<path d="M1.4660 4.6340
L1.4630 4.6440
" />
<path d="M1.4690 0.9250
L1.4660 0.9160
" />
<path d="M1.4690 4.6250
L1.4660 4.6340
" />
<path d="M1.4710 0.9350
L1.4690 0.9250
" />
<path d="M1.4710 4.6150
L1.4690 4.6250
" />
<path d="M1.4730 0.9450
L1.4710 0.9350
" />
<path d="M1.4730 4.6050
L1.4710 4.6150
" />
<path d="M1.4740 0.9550
L1.4730 0.9450
" />
<path d="M1.4740 4.5950
L1.4730 4.6050
" />
<path d="M1.4750 0.7750
L1.7750 0.7750
" />
<path d="M1.4750 0.8250
L1.4750 0.7750
" />
</g>
<g style="fill:#000000; fill-opacity:1.0000; stroke:none;">
<circle cx="1.4750" cy="0.8250" r="0.0100" /> 
</g>
<g style="fill:none; 
stroke:#000000; stroke-width:0.0200; stroke-opacity:1; 
stroke-linecap:round; stroke-linejoin:round;">
<path d="M1.4750 0.9650
L1.4740 0.9550
" />
<path d="M1.4750 0.9730
L1.4750 0.8250
" />
</g>
<g style="fill:#000000; fill-opacity:1.0000; stroke:none;">
<circle cx="1.4750" cy="0.9730" r="0.0100" /> 
</g>
<g style="fill:none; 
stroke:#000000; stroke-width:0.0200; stroke-opacity:1; 
stroke-linecap:round; stroke-linejoin:round;">
<path d="M1.4750 0.9750
L1.4750 0.9650
" />
<path d="M1.4750 1.2110
L1.4750 0.9730
" />
</g>
<g style="fill:#000000; fill-opacity:1.0000; stroke:none;">
<circle cx="1.4750" cy="1.2110" r="0.0100" /> 
</g>
<g style="fill:none; 
stroke:#000000; stroke-width:0.0200; stroke-opacity:1; 
stroke-linecap:round; stroke-linejoin:round;">
<path d="M1.4750 1.5280
L1.4750 1.2110
" />
</g>
<g style="fill:#000000; fill-opacity:1.0000; stroke:none;">
<circle cx="1.4750" cy="1.5280" r="0.0100" /> 
</g>
<g style="fill:none; 
stroke:#000000; stroke-width:0.0200; stroke-opacity:1; 
stroke-linecap:round; stroke-linejoin:round;">
<path d="M1.4750 1.9070
L1.4750 1.5280
" />
</g>
<g style="fill:#000000; fill-opacity:1.0000; stroke:none;">
<circle cx="1.4750" cy="1.9070" r="0.0100" /> 
</g>
<g style="fill:none; 
stroke:#000000; stroke-width:0.0200; stroke-opacity:1; 
stroke-linecap:round; stroke-linejoin:round;">
<path d="M1.4750 2.3300
L1.4750 1.9070
" />
</g>
<g style="fill:#000000; fill-opacity:1.0000; stroke:none;">
<circle cx="1.4750" cy="2.3300" r="0.0100" /> 
</g>
<g style="fill:none; 
stroke:#000000; stroke-width:0.0200; stroke-opacity:1; 
stroke-linecap:round; stroke-linejoin:round;">
<path d="M1.4750 2.7750
L1.4750 2.3300
" />
</g>
<g style="fill:#000000; fill-opacity:1.0000; stroke:none;">
<circle cx="1.4750" cy="2.7750" r="0.0100" /> 
</g>
<g style="fill:none; 
stroke:#000000; stroke-width:0.0200; stroke-opacity:1; 
stroke-linecap:round; stroke-linejoin:round;">
<path d="M1.4750 3.2200
L1.4750 2.7750
" />
</g>
<g style="fill:#000000; fill-opacity:1.0000; stroke:none;">
<circle cx="1.4750" cy="3.2200" r="0.0100" /> 
</g>
<g style="fill:none; 
stroke:#000000; stroke-width:0.0200; stroke-opacity:1; 
stroke-linecap:round; stroke-linejoin:round;">
<path d="M1.4750 3.6430
L1.4750 3.2200
" />
</g>
<g style="fill:#000000; fill-opacity:1.0000; stroke:none;">
<circle cx="1.4750" cy="3.6430" r="0.0100" /> 
</g>
<g style="fill:none; 
stroke:#000000; stroke-width:0.0200; stroke-opacity:1; 
stroke-linecap:round; stroke-linejoin:round;">
<path d="M1.4750 4.0220
L1.4750 3.6430
" />
</g>
<g style="fill:#000000; fill-opacity:1.0000; stroke:none;">
<circle cx="1.4750" cy="4.0220" r="0.0100" /> 
</g>
<g style="fill:none; 
stroke:#000000; stroke-width:0.0200; stroke-opacity:1; 
stroke-linecap:round; stroke-linejoin:round;">
<path d="M1.4750 4.3390
L1.4750 4.0220
" />
</g>
<g style="fill:#000000; fill-opacity:1.0000; stroke:none;">
<circle cx="1.4750" cy="4.3390" r="0.0100" /> 
</g>
<g style="fill:none; 
stroke:#000000; stroke-width:0.0200; stroke-opacity:1; 
stroke-linecap:round; stroke-linejoin:round;">
<path d="M1.4750 4.5750
L1.4750 4.5850
" />
<path d="M1.4750 4.5770
L1.4750 4.3390
" />
</g>
<g style="fill:#000000; fill-opacity:1.0000; stroke:none;">
<circle cx="1.4750" cy="4.5770" r="0.0100" /> 
</g>
<g style="fill:none; 
stroke:#000000; stroke-width:0.0200; stroke-opacity:1; 
stroke-linecap:round; stroke-linejoin:round;">
<path d="M1.4750 4.5850
L1.4740 4.5950
" />
<path d="M1.4750 4.7250
L1.4750 4.5770
" />
</g>
<g style="fill:#000000; fill-opacity:1.0000; stroke:none;">
<circle cx="1.4750" cy="4.7250" r="0.0100" /> 
</g>
<g style="fill:none; 
stroke:#000000; stroke-width:0.0200; stroke-opacity:1; 
stroke-linecap:round; stroke-linejoin:round;">
<path d="M1.4750 4.7750
L1.4750 4.7250
" />
<path d="M1.4750 4.7750
L1.7750 4.7750
" />
<path d="M1.7750 0.7750
L3.2750 0.7750
" />
<path d="M1.7750 0.8250
L1.7750 0.7750
" />
<path d="M1.7750 0.8250
L1.7750 0.7750
" />
</g>
<g style="fill:#000000; fill-opacity:1.0000; stroke:none;">
<circle cx="1.7750" cy="0.8250" r="0.0100" /> 
<circle cx="1.7750" cy="0.8250" r="0.0100" /> 
</g>
<g style="fill:none; 
stroke:#000000; stroke-width:0.0200; stroke-opacity:1; 
stroke-linecap:round; stroke-linejoin:round;">
<path d="M1.7750 0.9730
L1.7750 0.8250
" />
<path d="M1.7750 0.9730
L1.7750 0.8250
" />
</g>
<g style="fill:#000000; fill-opacity:1.0000; stroke:none;">
<circle cx="1.7750" cy="0.9730" r="0.0100" /> 
<circle cx="1.7750" cy="0.9730" r="0.0100" /> 
</g>
<g style="fill:none; 
stroke:#000000; stroke-width:0.0200; stroke-opacity:1; 
stroke-linecap:round; stroke-linejoin:round;">
<path d="M1.7750 1.2110
L1.7750 0.9730
" />
<path d="M1.7750 1.2110
L1.7750 0.9730
" />
</g>
<g style="fill:#000000; fill-opacity:1.0000; stroke:none;">
<circle cx="1.7750" cy="1.2110" r="0.0100" /> 
<circle cx="1.7750" cy="1.2110" r="0.0100" /> 
</g>
<g style="fill:none; 
stroke:#000000; stroke-width:0.0200; stroke-opacity:1; 
stroke-linecap:round; stroke-linejoin:round;">
<path d="M1.7750 1.5280
L1.7750 1.2110
" />
<path d="M1.7750 1.5280
L1.7750 1.2110
" />
</g>
<g style="fill:#000000; fill-opacity:1.0000; stroke:none;">
<circle cx="1.7750" cy="1.5280" r="0.0100" /> 
<circle cx="1.7750" cy="1.5280" r="0.0100" /> 
</g>
<g style="fill:none; 
stroke:#000000; stroke-width:0.0200; stroke-opacity:1; 
stroke-linecap:round; stroke-linejoin:round;">
<path d="M1.7750 1.9070
L1.7750 1.5280
" />
<path d="M1.7750 1.9070
L1.7750 1.5280
" />
</g>
<g style="fill:#000000; fill-opacity:1.0000; stroke:none;">
<circle cx="1.7750" cy="1.9070" r="0.0100" /> 
<circle cx="1.7750" cy="1.9070" r="0.0100" /> 
</g>
<g style="fill:none; 
stroke:#000000; stroke-width:0.0200; stroke-opacity:1; 
stroke-linecap:round; stroke-linejoin:round;">
<path d="M1.7750 2.3300
L1.7750 1.9070
" />
<path d="M1.7750 2.3300
L1.7750 1.9070
" />
</g>
<g style="fill:#000000; fill-opacity:1.0000; stroke:none;">
<circle cx="1.7750" cy="2.3300" r="0.0100" /> 
<circle cx="1.7750" cy="2.3300" r="0.0100" /> 
</g>
<g style="fill:none; 
stroke:#000000; stroke-width:0.0200; stroke-opacity:1; 
stroke-linecap:round; stroke-linejoin:round;">
<path d="M1.7750 2.7750
L1.7750 2.3300
" />
<path d="M1.7750 2.7750
L1.7750 2.3300
" />
</g>
<g style="fill:#000000; fill-opacity:1.0000; stroke:none;">
<circle cx="1.7750" cy="2.7750" r="0.0100" /> 
<circle cx="1.7750" cy="2.7750" r="0.0100" /> 
</g>
<g style="fill:none; 
stroke:#000000; stroke-width:0.0200; stroke-opacity:1; 
stroke-linecap:round; stroke-linejoin:round;">
<path d="M1.7750 3.2200
L1.7750 2.7750
" />
<path d="M1.7750 3.2200
L1.7750 2.7750
" />
</g>
<g style="fill:#000000; fill-opacity:1.0000; stroke:none;">
<circle cx="1.7750" cy="3.2200" r="0.0100" /> 
<circle cx="1.7750" cy="3.2200" r="0.0100" /> 
</g>
<g style="fill:none; 
stroke:#000000; stroke-width:0.0200; stroke-opacity:1; 
stroke-linecap:round; stroke-linejoin:round;">
<path d="M1.7750 3.6430
L1.7750 3.2200
" />
<path d="M1.7750 3.6430
L1.7750 3.2200
" />
</g>
<g style="fill:#000000; fill-opacity:1.0000; stroke:none;">
<circle cx="1.7750" cy="3.6430" r="0.0100" /> 
<circle cx="1.7750" cy="3.6430" r="0.0100" /> 
</g>
<g style="fill:none; 
stroke:#000000; stroke-width:0.0200; stroke-opacity:1; 
stroke-linecap:round; stroke-linejoin:round;">
<path d="M1.7750 4.0220
L1.7750 3.6430
" />
<path d="M1.7750 4.0220
L1.7750 3.6430
" />
</g>
<g style="fill:#000000; fill-opacity:1.0000; stroke:none;">
<circle cx="1.7750" cy="4.0220" r="0.0100" /> 
<circle cx="1.7750" cy="4.0220" r="0.0100" /> 
</g>
<g style="fill:none; 
stroke:#000000; stroke-width:0.0200; stroke-opacity:1; 
stroke-linecap:round; stroke-linejoin:round;">
<path d="M1.7750 4.3390
L1.7750 4.0220
" />
<path d="M1.7750 4.3390
L1.7750 4.0220
" />
</g>
<g style="fill:#000000; fill-opacity:1.0000; stroke:none;">
<circle cx="1.7750" cy="4.3390" r="0.0100" /> 
<circle cx="1.7750" cy="4.3390" r="0.0100" /> 
</g>
<g style="fill:none; 
stroke:#000000; stroke-width:0.0200; stroke-opacity:1; 
stroke-linecap:round; stroke-linejoin:round;">
<path d="M1.7750 4.5770
L1.7750 4.3390
" />
<path d="M1.7750 4.5770
L1.7750 4.3390
" />
</g>
<g style="fill:#000000; fill-opacity:1.0000; stroke:none;">
<circle cx="1.7750" cy="4.5770" r="0.0100" /> 
<circle cx="1.7750" cy="4.5770" r="0.0100" /> 
</g>
<g style="fill:none; 
stroke:#000000; stroke-width:0.0200; stroke-opacity:1; 
stroke-linecap:round; stroke-linejoin:round;">
<path d="M1.7750 4.7250
L1.7750 4.5770
" />
<path d="M1.7750 4.7250
L1.7750 4.5770
" />
</g>
<g style="fill:#000000; fill-opacity:1.0000; stroke:none;">
<circle cx="1.7750" cy="4.7250" r="0.0100" /> 
<circle cx="1.7750" cy="4.7250" r="0.0100" /> 
</g>
<g style="fill:none; 
stroke:#000000; stroke-width:0.0200; stroke-opacity:1; 
stroke-linecap:round; stroke-linejoin:round;">
<path d="M1.7750 4.7750
L1.7750 4.7250
" />
<path d="M1.7750 4.7750
L1.7750 4.7250
" />
<path d="M1.7750 4.7750
L3.2750 4.7750
" />
<path d="M3.2750 0.2750
L3.2750 5.2750
" />
<path d="M3.2750 5.2750
L11.0750 5.2750
" />
<path d="M11.0750 0.2750
L3.2750 0.2750
" />
<path d="M11.0750 2.2750
L11.3220 2.2750
" />
<path d="M11.0750 3.2750
L11.3220 3.2750
" />
<path d="M11.0750 5.2750
L11.0750 0.2750
" />
</g>
<g style="fill:#000000; fill-opacity:1.0000; stroke:none;">
<circle cx="11.3220" cy="2.2750" r="0.0100" /> 
</g>
<g style="fill:none; 
stroke:#000000; stroke-width:0.0200; stroke-opacity:1; 
stroke-linecap:round; stroke-linejoin:round;">
<path d="M11.3220 2.2750
L11.4250 2.2750
" />
</g>
<g style="fill:#000000; fill-opacity:1.0000; stroke:none;">
<circle cx="11.3220" cy="3.2750" r="0.0100" /> 
</g>
<g style="fill:none; 
stroke:#000000; stroke-width:0.0200; stroke-opacity:1; 
stroke-linecap:round; stroke-linejoin:round;">
<path d="M11.3220 3.2750
L11.4250 3.2750
" />
<path d="M11.4250 2.2750
L11.4250 3.2750
" />
</g> 
</svg>
