<?xml version="1.0" standalone="no"?>
 <!DOCTYPE svg PUBLIC "-//W3C//DTD SVG 1.1//EN" 
 "http://www.w3.org/Graphics/SVG/1.1/DTD/svg11.dtd"> 
<svg
  xmlns:svg="http://www.w3.org/2000/svg"
  xmlns="http://www.w3.org/2000/svg"
  xmlns:xlink="http://www.w3.org/1999/xlink"
  version="1.1"
  width="4.2164mm" height="6.3754mm" viewBox="0.0000 0.0000 4.2164 6.3754">
<title>SVG Image created as outline.svg date 2025/06/16 09:18:02 </title>
  <desc>Image generated by PCBNEW </desc>
<g style="fill:#000000; fill-opacity:1.0000;stroke:#000000; stroke-opacity:1.0000;
stroke-linecap:round; stroke-linejoin:round;"
 transform="translate(0 0) scale(1 1)">
</g>
<g style="fill:none; 
stroke:#000000; stroke-width:0.0200; stroke-opacity:1; 
stroke-linecap:round; stroke-linejoin:round;">
<path d="M0.5250 5.3930
L0.5250 1.0020
" />
<path d="M0.5250 5.3930
L0.8310 5.6990
" />
<path d="M0.6520 1.2180
L0.6520 1.2300
" />
<path d="M0.6520 5.1670
L0.6520 1.2300
" />
<path d="M0.6520 5.1670
L0.6520 5.1810
" />
<path d="M0.6520 5.1810
L0.6540 5.1930
" />
<path d="M0.6540 1.2060
L0.6520 1.2180
" />
<path d="M0.6540 5.1930
L0.6560 5.2060
" />
<path d="M0.6560 1.1920
L0.6540 1.2060
" />
<path d="M0.6560 5.2060
L0.6580 5.2180
" />
<path d="M0.6580 1.1800
L0.6560 1.1920
" />
<path d="M0.6580 5.2180
L0.6600 5.2300
" />
<path d="M0.6600 1.1680
L0.6580 1.1800
" />
<path d="M0.6600 5.2300
L0.6640 5.2420
" />
<path d="M0.6640 1.1560
L0.6600 1.1680
" />
<path d="M0.6640 5.2420
L0.6680 5.2520
" />
<path d="M0.6680 1.1430
L0.6640 1.1560
" />
<path d="M0.6680 5.2520
L0.6720 5.2640
" />
<path d="M0.6720 1.1340
L0.6680 1.1430
" />
<path d="M0.6720 5.2640
L0.6760 5.2760
" />
<path d="M0.6760 1.1220
L0.6720 1.1340
" />
<path d="M0.6760 5.2760
L0.6820 5.2880
" />
<path d="M0.6820 1.1110
L0.6760 1.1220
" />
<path d="M0.6820 5.2880
L0.6880 5.2960
" />
<path d="M0.6880 1.0990
L0.6820 1.1110
" />
<path d="M0.6880 5.2960
L0.6960 5.3080
" />
<path d="M0.6960 1.0900
L0.6880 1.0990
" />
<path d="M0.6960 5.3080
L0.7020 5.3190
" />
<path d="M0.7020 1.0790
L0.6960 1.0900
" />
<path d="M0.7020 5.3190
L0.7110 5.3280
" />
<path d="M0.7110 1.0700
L0.7020 1.0790
" />
<path d="M0.7110 5.3280
L0.7190 5.3360
" />
<path d="M0.7190 1.0590
L0.7110 1.0700
" />
<path d="M0.7190 5.3360
L0.7270 5.3480
" />
<path d="M0.7270 1.0510
L0.7190 1.0590
" />
</g>
<g style="fill:#000000; fill-opacity:1.0000; stroke:none;">
<circle cx="0.7270" cy="1.0510" r="0.0100" /> 
<circle cx="0.7270" cy="5.3480" r="0.0100" /> 
</g>
<g style="fill:none; 
stroke:#000000; stroke-width:0.0200; stroke-opacity:1; 
stroke-linecap:round; stroke-linejoin:round;">
<path d="M0.7270 5.3480
L0.7370 5.3560
" />
<path d="M0.7370 1.0430
L0.7270 1.0510
" />
<path d="M0.7370 5.3560
L0.7450 5.3640
" />
<path d="M0.7450 1.0350
L0.7370 1.0430
" />
<path d="M0.7450 5.3640
L0.7550 5.3720
" />
<path d="M0.7550 1.0270
L0.7450 1.0350
" />
<path d="M0.7550 5.3720
L0.7650 5.3770
" />
<path d="M0.7650 1.0180
L0.7550 1.0270
" />
<path d="M0.7650 5.3770
L0.7770 5.3850
" />
<path d="M0.7770 1.0130
L0.7650 1.0180
" />
<path d="M0.7770 5.3850
L0.7870 5.3920
" />
<path d="M0.7870 1.0060
L0.7770 1.0130
" />
<path d="M0.7870 5.3920
L0.7970 5.3970
" />
<path d="M0.7970 1.0010
L0.7870 1.0060
" />
<path d="M0.7970 5.3970
L0.8090 5.4010
" />
<path d="M0.8090 0.9940
L0.7970 1.0010
" />
<path d="M0.8090 5.4010
L0.8210 5.4050
" />
<path d="M0.8210 0.9900
L0.8090 0.9940
" />
<path d="M0.8210 5.4050
L0.8340 5.4090
" />
<path d="M0.8310 0.7000
L0.5250 1.0020
" />
<path d="M0.8310 0.7000
L3.3960 0.7000
" />
<path d="M0.8340 0.9860
L0.8210 0.9900
" />
<path d="M0.8340 5.4090
L0.8440 5.4130
" />
<path d="M0.8440 0.9850
L0.8340 0.9860
" />
<path d="M0.8440 5.4130
L0.8560 5.4170
" />
<path d="M0.8560 0.9820
L0.8440 0.9850
" />
<path d="M0.8560 5.4170
L0.8680 5.4170
" />
<path d="M0.8680 0.9780
L0.8560 0.9820
" />
<path d="M0.8680 5.4170
L0.8820 5.4210
" />
<path d="M0.8820 0.9780
L0.8680 0.9780
" />
<path d="M0.8820 5.4210
L0.8940 5.4210
" />
<path d="M0.8940 0.9770
L0.8820 0.9780
" />
<path d="M0.8940 5.4210
L0.9060 5.4210
" />
<path d="M0.9060 0.9770
L0.8940 0.9770
" />
<path d="M0.9060 0.9770
L3.3190 0.9770
" />
<path d="M1.7260 1.9050
L1.7270 1.8850
" />
<path d="M1.7260 1.9220
L1.7260 1.9050
" />
<path d="M1.7260 1.9220
L1.7260 2.1710
" />
<path d="M1.7260 2.1710
L2.3880 2.1710
" />
<path d="M1.7260 2.4990
L1.7270 2.4920
" />
<path d="M1.7260 2.5090
L1.7260 2.4990
" />
<path d="M1.7260 2.5180
L1.7260 2.5090
" />
<path d="M1.7260 2.5270
L1.7260 2.5180
" />
<path d="M1.7260 2.8120
L1.7260 2.9530
" />
<path d="M1.7260 2.9530
L2.1830 3.0970
" />
<path d="M1.7260 3.3070
L1.7260 3.4470
" />
<path d="M1.7260 3.4470
L2.3880 3.4470
" />
<path d="M1.7260 3.7760
L1.7270 3.7570
" />
<path d="M1.7260 3.7920
L1.7260 3.7760
" />
<path d="M1.7260 3.7920
L1.7260 4.0400
" />
<path d="M1.7260 4.0400
L2.3880 4.0400
" />
<path d="M1.7260 4.3730
L1.7260 4.4790
" />
<path d="M1.7260 4.4790
L2.3880 4.7420
" />
<path d="M1.7270 1.8850
L1.7280 1.8770
" />
<path d="M1.7270 2.4920
L1.7280 2.4820
" />
<path d="M1.7270 2.5350
L1.7260 2.5270
" />
<path d="M1.7270 3.7570
L1.7280 3.7480
" />
<path d="M1.7280 1.8770
L1.7310 1.8670
" />
<path d="M1.7280 2.4820
L1.7310 2.4730
" />
<path d="M1.7280 2.5440
L1.7270 2.5350
" />
<path d="M1.7280 3.7480
L1.7310 3.7390
" />
<path d="M1.7310 1.8670
L1.7320 1.8590
" />
<path d="M1.7310 2.4730
L1.7330 2.4640
" />
<path d="M1.7310 3.7390
L1.7320 3.7300
" />
<path d="M1.7320 1.8590
L1.7340 1.8490
" />
<path d="M1.7320 2.5520
L1.7280 2.5440
" />
<path d="M1.7320 3.7300
L1.7340 3.7210
" />
<path d="M1.7330 2.4640
L1.7350 2.4550
" />
<path d="M1.7340 1.8490
L1.7360 1.8390
" />
<path d="M1.7340 2.5630
L1.7320 2.5520
" />
<path d="M1.7340 3.7210
L1.7360 3.7120
" />
<path d="M1.7350 2.4550
L1.7370 2.4470
" />
<path d="M1.7360 1.8390
L1.7380 1.8310
" />
<path d="M1.7360 2.5710
L1.7340 2.5630
" />
<path d="M1.7360 3.7120
L1.7380 3.7010
" />
<path d="M1.7370 2.4470
L1.7400 2.4380
" />
<path d="M1.7380 1.8310
L1.7410 1.8230
" />
<path d="M1.7380 2.5790
L1.7360 2.5710
" />
<path d="M1.7380 3.7010
L1.7410 3.6920
" />
<path d="M1.7400 2.4380
L1.7440 2.4280
" />
<path d="M1.7410 1.8230
L1.7440 1.8130
" />
<path d="M1.7410 2.5870
L1.7380 2.5790
" />
<path d="M1.7410 3.6920
L1.7440 3.6830
" />
<path d="M1.7440 1.8130
L1.7470 1.8050
" />
<path d="M1.7440 2.4280
L1.7470 2.4200
" />
<path d="M1.7440 3.6830
L1.7470 3.6760
" />
<path d="M1.7450 2.5940
L1.7410 2.5870
" />
<path d="M1.7470 1.8050
L1.7510 1.7970
" />
<path d="M1.7470 2.4200
L1.7510 2.4110
" />
<path d="M1.7470 3.6760
L1.7510 3.6680
" />
<path d="M1.7480 2.6020
L1.7450 2.5940
" />
<path d="M1.7510 1.7970
L1.7550 1.7880
" />
<path d="M1.7510 2.4110
L1.7560 2.4030
" />
<path d="M1.7510 3.6680
L1.7550 3.6600
" />
<path d="M1.7520 2.6100
L1.7480 2.6020
" />
<path d="M1.7550 1.7880
L1.7600 1.7800
" />
<path d="M1.7550 3.6600
L1.7600 3.6520
" />
<path d="M1.7560 2.4030
L1.7610 2.3960
" />
<path d="M1.7570 2.6170
L1.7520 2.6100
" />
</g>
<g style="fill:#000000; fill-opacity:1.0000; stroke:none;">
<circle cx="1.7600" cy="1.7800" r="0.0100" /> 
</g>
<g style="fill:none; 
stroke:#000000; stroke-width:0.0200; stroke-opacity:1; 
stroke-linecap:round; stroke-linejoin:round;">
<path d="M1.7600 1.7800
L1.7620 1.7760
" />
</g>
<g style="fill:#000000; fill-opacity:1.0000; stroke:none;">
<circle cx="1.7600" cy="3.6520" r="0.0100" /> 
</g>
<g style="fill:none; 
stroke:#000000; stroke-width:0.0200; stroke-opacity:1; 
stroke-linecap:round; stroke-linejoin:round;">
<path d="M1.7600 3.6520
L1.7620 3.6450
" />
<path d="M1.7610 2.3960
L1.7640 2.3880
" />
<path d="M1.7620 1.7760
L1.7640 1.7720
" />
<path d="M1.7620 2.6230
L1.7570 2.6170
" />
<path d="M1.7620 3.6450
L1.7640 3.6410
" />
<path d="M1.7640 1.7720
L1.7670 1.7680
" />
<path d="M1.7640 2.3880
L1.7690 2.3800
" />
<path d="M1.7640 3.6410
L1.7670 3.6370
" />
<path d="M1.7650 2.6290
L1.7620 2.6230
" />
<path d="M1.7670 1.7680
L1.7700 1.7640
" />
<path d="M1.7670 3.6370
L1.7700 3.6330
" />
<path d="M1.7690 2.3800
L1.7750 2.3730
" />
<path d="M1.7700 1.7640
L1.7770 1.7560
" />
<path d="M1.7700 2.6360
L1.7650 2.6290
" />
</g>
<g style="fill:#000000; fill-opacity:1.0000; stroke:none;">
<circle cx="1.7700" cy="2.6360" r="0.0100" /> 
</g>
<g style="fill:none; 
stroke:#000000; stroke-width:0.0200; stroke-opacity:1; 
stroke-linecap:round; stroke-linejoin:round;">
<path d="M1.7700 3.6330
L1.7770 3.6260
" />
</g>
<g style="fill:#000000; fill-opacity:1.0000; stroke:none;">
<circle cx="1.7750" cy="2.3730" r="0.0100" /> 
</g>
<g style="fill:none; 
stroke:#000000; stroke-width:0.0200; stroke-opacity:1; 
stroke-linecap:round; stroke-linejoin:round;">
<path d="M1.7750 2.3730
L1.7820 2.3670
" />
<path d="M1.7770 1.7560
L1.7840 1.7480
" />
<path d="M1.7770 2.6430
L1.7700 2.6360
" />
<path d="M1.7770 3.6260
L1.7840 3.6180
" />
<path d="M1.7820 2.3670
L1.7880 2.3630
" />
<path d="M1.7830 2.6490
L1.7770 2.6430
" />
<path d="M1.7840 1.7480
L1.7920 1.7420
" />
<path d="M1.7840 3.6180
L1.7920 3.6140
" />
<path d="M1.7880 2.3630
L1.7960 2.3580
" />
<path d="M1.7900 2.6550
L1.7830 2.6490
" />
<path d="M1.7920 1.7420
L1.8020 1.7360
" />
<path d="M1.7920 3.6140
L1.8020 3.6070
" />
<path d="M1.7960 2.3580
L1.8030 2.3530
" />
<path d="M1.7990 2.6610
L1.7900 2.6550
" />
<path d="M1.8020 1.7360
L1.8110 1.7300
" />
<path d="M1.8020 3.6070
L1.8110 3.6020
" />
<path d="M1.8030 2.3530
L1.8100 2.3480
" />
<path d="M1.8040 2.0770
L1.8040 1.9520
" />
<path d="M1.8040 2.4940
L1.8040 2.4960
" />
<path d="M1.8040 2.4960
L1.8040 2.5010
" />
<path d="M1.8040 2.5010
L1.8040 2.5060
" />
<path d="M1.8040 2.5060
L1.8040 2.5110
" />
<path d="M1.8040 2.5110
L1.8040 2.5160
" />
<path d="M1.8040 2.5160
L1.8050 2.5210
" />
<path d="M1.8040 3.9470
L1.8040 3.8210
" />
<path d="M1.8040 4.4270
L1.8200 4.4310
" />
<path d="M1.8050 1.9090
L1.8050 1.9240
" />
<path d="M1.8050 1.9240
L1.8040 1.9520
" />
<path d="M1.8050 2.4890
L1.8040 2.4940
" />
<path d="M1.8050 2.5210
L1.8050 2.5260
" />
<path d="M1.8050 2.5260
L1.8060 2.5310
" />
<path d="M1.8050 3.7790
L1.8050 3.7930
" />
<path d="M1.8050 3.7930
L1.8040 3.8210
" />
<path d="M1.8060 1.8950
L1.8060 1.9030
" />
<path d="M1.8060 1.9030
L1.8050 1.9090
" />
<path d="M1.8060 2.4840
L1.8050 2.4890
" />
<path d="M1.8060 2.5310
L1.8070 2.5360
" />
<path d="M1.8060 2.6660
L1.7990 2.6610
" />
<path d="M1.8060 3.7670
L1.8060 3.7740
" />
<path d="M1.8060 3.7740
L1.8050 3.7790
" />
<path d="M1.8070 1.8890
L1.8060 1.8950
" />
<path d="M1.8070 2.4790
L1.8060 2.4840
" />
<path d="M1.8070 2.5360
L1.8090 2.5410
" />
<path d="M1.8070 3.7600
L1.8060 3.7670
" />
<path d="M1.8080 1.8810
L1.8070 1.8890
" />
<path d="M1.8080 2.4750
L1.8070 2.4790
" />
<path d="M1.8080 3.7540
L1.8070 3.7600
" />
<path d="M1.8090 1.8750
L1.8080 1.8810
" />
<path d="M1.8090 2.5410
L1.8100 2.5450
" />
<path d="M1.8090 3.7470
L1.8080 3.7540
" />
<path d="M1.8100 1.8690
L1.8090 1.8750
" />
<path d="M1.8100 2.3480
L1.8170 2.3440
" />
<path d="M1.8100 2.4700
L1.8080 2.4750
" />
<path d="M1.8100 2.5450
L1.8120 2.5500
" />
<path d="M1.8100 3.7400
L1.8090 3.7470
" />
<path d="M1.8110 1.7300
L1.8200 1.7240
" />
<path d="M1.8110 3.6020
L1.8200 3.5960
" />
<path d="M1.8120 1.8610
L1.8100 1.8690
" />
<path d="M1.8120 2.4660
L1.8100 2.4700
" />
<path d="M1.8120 2.5500
L1.8140 2.5540
" />
<path d="M1.8120 3.7330
L1.8100 3.7400
" />
<path d="M1.8140 1.8550
L1.8120 1.8610
" />
<path d="M1.8140 2.4610
L1.8120 2.4660
" />
<path d="M1.8140 2.5540
L1.8160 2.5610
" />
<path d="M1.8140 2.6710
L1.8060 2.6660
" />
<path d="M1.8140 3.7270
L1.8120 3.7330
" />
<path d="M1.8160 1.8490
L1.8140 1.8550
" />
<path d="M1.8160 2.4570
L1.8140 2.4610
" />
<path d="M1.8160 2.5610
L1.8180 2.5650
" />
<path d="M1.8160 3.7200
L1.8140 3.7270
" />
<path d="M1.8170 2.3440
L1.8240 2.3400
" />
<path d="M1.8180 2.4530
L1.8160 2.4570
" />
<path d="M1.8180 2.5650
L1.8210 2.5690
" />
<path d="M1.8190 1.8430
L1.8160 1.8490
" />
</g>
<g style="fill:#000000; fill-opacity:1.0000; stroke:none;">
<circle cx="1.8190" cy="1.8430" r="0.0100" /> 
</g>
<g style="fill:none; 
stroke:#000000; stroke-width:0.0200; stroke-opacity:1; 
stroke-linecap:round; stroke-linejoin:round;">
<path d="M1.8190 3.7140
L1.8160 3.7200
" />
</g>
<g style="fill:#000000; fill-opacity:1.0000; stroke:none;">
<circle cx="1.8190" cy="3.7140" r="0.0100" /> 
</g>
<g style="fill:none; 
stroke:#000000; stroke-width:0.0200; stroke-opacity:1; 
stroke-linecap:round; stroke-linejoin:round;">
<path d="M1.8200 1.7240
L1.8270 1.7200
" />
<path d="M1.8200 3.5960
L1.8270 3.5920
" />
<path d="M1.8200 4.4310
L1.8340 4.4350
" />
<path d="M1.8210 1.8390
L1.8190 1.8430
" />
<path d="M1.8210 2.4490
L1.8180 2.4530
" />
<path d="M1.8210 2.5690
L1.8230 2.5730
" />
<path d="M1.8210 2.6760
L1.8140 2.6710
" />
<path d="M1.8210 3.7090
L1.8190 3.7140
" />
<path d="M1.8230 1.8370
L1.8210 1.8390
" />
<path d="M1.8230 2.5730
L1.8250 2.5780
" />
<path d="M1.8230 3.7060
L1.8210 3.7090
" />
<path d="M1.8240 2.3400
L1.8290 2.3370
" />
<path d="M1.8240 2.4450
L1.8210 2.4490
" />
<path d="M1.8250 1.8310
L1.8250 1.8350
" />
<path d="M1.8250 1.8350
L1.8230 1.8370
" />
<path d="M1.8250 2.4410
L1.8240 2.4450
" />
<path d="M1.8250 2.5780
L1.8280 2.5820
" />
<path d="M1.8250 3.7010
L1.8250 3.7040
" />
<path d="M1.8250 3.7040
L1.8230 3.7060
" />
<path d="M1.8270 1.7200
L1.8370 1.7160
" />
<path d="M1.8270 2.6800
L1.8210 2.6760
" />
<path d="M1.8270 3.5920
L1.8370 3.5880
" />
<path d="M1.8280 2.4370
L1.8250 2.4410
" />
</g>
<g style="fill:#000000; fill-opacity:1.0000; stroke:none;">
<circle cx="1.8280" cy="2.5820" r="0.0100" /> 
</g>
<g style="fill:none; 
stroke:#000000; stroke-width:0.0200; stroke-opacity:1; 
stroke-linecap:round; stroke-linejoin:round;">
<path d="M1.8280 2.5820
L1.8320 2.5850
" />
<path d="M1.8280 2.9070
L2.3880 2.9070
" />
<path d="M1.8280 3.3540
L2.3880 3.1810
" />
<path d="M1.8290 1.8270
L1.8250 1.8310
" />
<path d="M1.8290 2.3370
L1.8370 2.3340
" />
<path d="M1.8290 3.6960
L1.8250 3.7010
" />
<path d="M1.8310 2.4340
L1.8280 2.4370
" />
<path d="M1.8320 2.5850
L1.8360 2.5890
" />
<path d="M1.8330 1.8230
L1.8290 1.8270
" />
<path d="M1.8330 3.6920
L1.8290 3.6960
" />
<path d="M1.8340 4.4350
L1.8490 4.4390
" />
<path d="M1.8350 2.4280
L1.8310 2.4340
" />
<path d="M1.8350 2.6840
L1.8270 2.6800
" />
<path d="M1.8360 2.5890
L1.8400 2.5930
" />
<path d="M1.8370 1.7160
L1.8460 1.7120
" />
<path d="M1.8370 2.3340
L1.8440 2.3310
" />
<path d="M1.8370 3.5880
L1.8460 3.5840
" />
<path d="M1.8380 1.8190
L1.8330 1.8230
" />
<path d="M1.8380 2.4250
L1.8350 2.4280
" />
<path d="M1.8380 3.6880
L1.8330 3.6920
" />
<path d="M1.8400 2.5930
L1.8440 2.5960
" />
<path d="M1.8420 2.4220
L1.8380 2.4250
" />
<path d="M1.8430 2.6890
L1.8350 2.6840
" />
<path d="M1.8440 1.8150
L1.8380 1.8190
" />
<path d="M1.8440 2.3310
L1.8520 2.3290
" />
<path d="M1.8440 2.5960
L1.8480 2.5990
" />
<path d="M1.8440 3.6840
L1.8380 3.6880
" />
<path d="M1.8460 1.7120
L1.8560 1.7100
" />
<path d="M1.8460 2.4200
L1.8420 2.4220
" />
<path d="M1.8460 3.5840
L1.8560 3.5790
" />
<path d="M1.8480 2.5990
L1.8530 2.6020
" />
<path d="M1.8490 1.8110
L1.8440 1.8150
" />
<path d="M1.8490 3.6810
L1.8440 3.6840
" />
<path d="M1.8490 4.4390
L1.8670 4.4450
" />
<path d="M1.8500 2.4170
L1.8460 2.4200
" />
<path d="M1.8510 2.6930
L1.8430 2.6890
" />
<path d="M1.8520 2.3290
L1.8620 2.3270
" />
<path d="M1.8530 2.6020
L1.8600 2.6050
" />
<path d="M1.8540 2.4150
L1.8500 2.4170
" />
<path d="M1.8550 1.8090
L1.8490 1.8110
" />
<path d="M1.8550 3.6790
L1.8490 3.6810
" />
<path d="M1.8560 1.7100
L1.8680 1.7080
" />
<path d="M1.8560 3.5790
L1.8680 3.5770
" />
<path d="M1.8600 2.6050
L1.8640 2.6070
" />
<path d="M1.8610 2.4130
L1.8540 2.4150
" />
<path d="M1.8620 2.3270
L1.8700 2.3250
" />
<path d="M1.8620 2.6960
L1.8510 2.6930
" />
<path d="M1.8630 1.8050
L1.8550 1.8090
" />
<path d="M1.8630 3.6770
L1.8550 3.6790
" />
<path d="M1.8640 2.6070
L1.8690 2.6090
" />
<path d="M1.8650 2.4110
L1.8610 2.4130
" />
<path d="M1.8670 4.4450
L1.8800 4.4510
" />
<path d="M1.8680 1.7080
L1.8770 1.7060
" />
<path d="M1.8680 3.5770
L1.8770 3.5750
" />
<path d="M1.8690 1.8030
L1.8630 1.8050
" />
<path d="M1.8690 2.6090
L1.8740 2.6110
" />
<path d="M1.8690 3.6750
L1.8630 3.6770
" />
<path d="M1.8700 2.3250
L1.8770 2.3240
" />
<path d="M1.8700 2.4090
L1.8650 2.4110
" />
<path d="M1.8700 2.6980
L1.8620 2.6960
" />
<path d="M1.8740 1.8010
L1.8690 1.8030
" />
<path d="M1.8740 2.4080
L1.8700 2.4090
" />
<path d="M1.8740 2.6110
L1.8770 2.6130
" />
<path d="M1.8740 3.6730
L1.8690 3.6750
" />
<path d="M1.8770 1.7060
L1.8870 1.7040
" />
<path d="M1.8770 2.3240
L1.8850 2.3230
" />
<path d="M1.8770 2.4070
L1.8740 2.4080
" />
<path d="M1.8770 2.6130
L1.8820 2.6150
" />
<path d="M1.8770 2.7000
L1.8700 2.6980
" />
<path d="M1.8770 3.5750
L1.8870 3.5740
" />
<path d="M1.8800 1.7990
L1.8740 1.8010
" />
<path d="M1.8800 3.6720
L1.8740 3.6730
" />
<path d="M1.8800 4.4510
L1.8970 4.4570
" />
<path d="M1.8820 2.4060
L1.8770 2.4070
" />
<path d="M1.8820 2.6150
L1.8870 2.6160
" />
<path d="M1.8850 2.3230
L1.8960 2.3230
" />
<path d="M1.8860 1.7990
L1.8800 1.7990
" />
<path d="M1.8860 2.7020
L1.8770 2.7000
" />
<path d="M1.8860 3.6700
L1.8800 3.6720
" />
<path d="M1.8870 1.7040
L1.8990 1.7040
" />
<path d="M1.8870 2.4060
L1.8820 2.4060
" />
<path d="M1.8870 2.6160
L1.8950 2.6170
" />
<path d="M1.8870 3.5740
L1.8990 3.5740
" />
<path d="M1.8940 2.4050
L1.8870 2.4060
" />
<path d="M1.8950 1.7970
L1.8860 1.7990
" />
<path d="M1.8950 2.6170
L1.9000 2.6180
" />
<path d="M1.8950 3.6700
L1.8860 3.6700
" />
<path d="M1.8960 2.3230
L1.9010 2.3230
" />
<path d="M1.8970 2.7040
L1.8860 2.7020
" />
<path d="M1.8970 2.7040
L1.9050 2.6190
" />
<path d="M1.8970 4.4570
L1.9100 4.4650
" />
<path d="M1.8990 1.7040
L1.9050 1.7040
" />
<path d="M1.8990 2.4060
L1.8940 2.4050
" />
<path d="M1.8990 3.5740
L1.9050 3.5740
" />
<path d="M1.9000 2.6180
L1.9050 2.6190
" />
<path d="M1.9010 1.7970
L1.8950 1.7970
" />
<path d="M1.9010 2.3230
L1.9050 2.3230
" />
<path d="M1.9010 3.6690
L1.8950 3.6700
" />
<path d="M1.9050 1.7040
L1.9090 1.7040
" />
<path d="M1.9050 1.7970
L1.9010 1.7970
" />
<path d="M1.9050 2.3230
L1.9100 2.3240
" />
<path d="M1.9050 2.4060
L1.8990 2.4060
" />
<path d="M1.9050 3.5740
L1.9090 3.5740
" />
<path d="M1.9050 3.6690
L1.9010 3.6690
" />
<path d="M1.9080 2.4060
L1.9050 2.4060
" />
<path d="M1.9090 1.7040
L1.9150 1.7060
" />
<path d="M1.9090 1.7970
L1.9050 1.7970
" />
<path d="M1.9090 3.5740
L1.9150 3.5750
" />
<path d="M1.9090 3.6690
L1.9050 3.6690
" />
<path d="M1.9100 2.3240
L1.9150 2.3240
" />
<path d="M1.9100 4.4650
L1.9260 4.4710
" />
<path d="M1.9130 1.7970
L1.9090 1.7970
" />
<path d="M1.9130 3.6690
L1.9090 3.6690
" />
<path d="M1.9140 2.4070
L1.9080 2.4060
" />
<path d="M1.9150 1.7060
L1.9200 1.7060
" />
<path d="M1.9150 2.3240
L1.9200 2.3250
" />
<path d="M1.9150 3.5750
L1.9200 3.5760
" />
<path d="M1.9170 1.7970
L1.9130 1.7970
" />
<path d="M1.9170 3.6690
L1.9130 3.6690
" />
<path d="M1.9200 1.7060
L1.9280 1.7080
" />
<path d="M1.9200 2.3250
L1.9270 2.3260
" />
<path d="M1.9200 2.4080
L1.9140 2.4070
" />
<path d="M1.9200 3.5760
L1.9280 3.5770
" />
<path d="M1.9230 1.7970
L1.9170 1.7970
" />
<path d="M1.9230 3.6700
L1.9170 3.6690
" />
<path d="M1.9260 1.7990
L1.9230 1.7970
" />
<path d="M1.9260 3.6700
L1.9230 3.6700
" />
<path d="M1.9270 2.3260
L1.9380 2.3290
" />
<path d="M1.9270 2.4090
L1.9200 2.4080
" />
<path d="M1.9280 1.7080
L1.9330 1.7080
" />
<path d="M1.9280 3.5770
L1.9330 3.5780
" />
<path d="M1.9300 1.7990
L1.9260 1.7990
" />
<path d="M1.9300 3.6710
L1.9260 3.6700
" />
<path d="M1.9320 2.4100
L1.9270 2.4090
" />
<path d="M1.9330 1.7080
L1.9420 1.7120
" />
<path d="M1.9330 3.5780
L1.9420 3.5810
" />
<path d="M1.9340 1.7990
L1.9300 1.7990
" />
<path d="M1.9340 3.6710
L1.9300 3.6710
" />
<path d="M1.9350 2.4110
L1.9320 2.4100
" />
<path d="M1.9350 4.3770
L1.8040 4.4270
" />
<path d="M1.9350 4.3770
L2.1090 4.3140
" />
<path d="M1.9370 2.4120
L1.9350 2.4110
" />
<path d="M1.9380 1.8010
L1.9340 1.7990
" />
<path d="M1.9380 2.3290
L1.9450 2.3330
" />
<path d="M1.9380 2.4130
L1.9370 2.4120
" />
<path d="M1.9380 3.6720
L1.9340 3.6710
" />
<path d="M1.9390 1.8010
L1.9380 1.8010
" />
<path d="M1.9390 3.6730
L1.9380 3.6720
" />
<path d="M1.9400 2.4150
L1.9380 2.4130
" />
<path d="M1.9420 1.7120
L1.9550 1.7160
" />
<path d="M1.9420 2.4160
L1.9400 2.4150
" />
<path d="M1.9420 3.5810
L1.9550 3.5870
" />
<path d="M1.9430 1.8030
L1.9390 1.8010
" />
<path d="M1.9430 3.6750
L1.9390 3.6730
" />
<path d="M1.9450 2.3330
L1.9570 2.3370
" />
<path d="M1.9450 2.4170
L1.9420 2.4160
" />
<path d="M1.9460 1.8050
L1.9430 1.8030
" />
<path d="M1.9460 3.6760
L1.9430 3.6750
" />
<path d="M1.9470 2.4180
L1.9450 2.4170
" />
<path d="M1.9490 2.4200
L1.9470 2.4180
" />
<path d="M1.9500 1.8050
L1.9460 1.8050
" />
<path d="M1.9500 3.6780
L1.9460 3.6760
" />
<path d="M1.9550 1.7160
L1.9650 1.7200
" />
<path d="M1.9550 1.8070
L1.9500 1.8050
" />
<path d="M1.9550 3.5870
L1.9650 3.5920
" />
<path d="M1.9550 3.6790
L1.9500 3.6780
" />
<path d="M1.9560 2.4230
L1.9490 2.4200
" />
<path d="M1.9570 2.3370
L1.9660 2.3420
" />
<path d="M1.9590 1.8090
L1.9550 1.8070
" />
<path d="M1.9590 3.6790
L1.9550 3.6790
" />
<path d="M1.9600 2.4270
L1.9560 2.4230
" />
<path d="M1.9620 1.8110
L1.9590 1.8090
" />
<path d="M1.9620 3.6810
L1.9590 3.6790
" />
<path d="M1.9640 2.4320
L1.9600 2.4270
" />
<path d="M1.9650 1.7200
L1.9730 1.7260
" />
<path d="M1.9650 1.8130
L1.9620 1.8110
" />
<path d="M1.9650 3.5920
L1.9730 3.5980
" />
<path d="M1.9650 3.6830
L1.9620 3.6810
" />
<path d="M1.9660 2.3420
L1.9730 2.3480
" />
<path d="M1.9680 1.8150
L1.9650 1.8130
" />
<path d="M1.9680 2.4360
L1.9640 2.4320
" />
<path d="M1.9680 3.6850
L1.9650 3.6830
" />
<path d="M1.9690 1.8170
L1.9680 1.8150
" />
<path d="M1.9690 3.6870
L1.9680 3.6850
" />
<path d="M1.9700 2.4410
L1.9680 2.4360
" />
<path d="M1.9720 1.8210
L1.9690 1.8170
" />
<path d="M1.9720 3.6900
L1.9690 3.6870
" />
<path d="M1.9730 1.7260
L1.9830 1.7320
" />
<path d="M1.9730 2.3480
L1.9810 2.3540
" />
<path d="M1.9730 2.4460
L1.9700 2.4410
" />
</g>
<g style="fill:#000000; fill-opacity:1.0000; stroke:none;">
<circle cx="1.9730" cy="2.4460" r="0.0100" /> 
</g>
<g style="fill:none; 
stroke:#000000; stroke-width:0.0200; stroke-opacity:1; 
stroke-linecap:round; stroke-linejoin:round;">
<path d="M1.9730 3.5980
L1.9830 3.6040
" />
<path d="M1.9750 1.8230
L1.9720 1.8210
" />
<path d="M1.9750 3.6920
L1.9720 3.6900
" />
<path d="M1.9760 2.4510
L1.9730 2.4460
" />
<path d="M1.9770 1.8250
L1.9750 1.8230
" />
<path d="M1.9770 3.6950
L1.9750 3.6920
" />
<path d="M1.9790 2.4560
L1.9760 2.4510
" />
<path d="M1.9800 1.8290
L1.9770 1.8250
" />
<path d="M1.9800 3.6980
L1.9770 3.6950
" />
<path d="M1.9810 2.3540
L1.9910 2.3610
" />
<path d="M1.9820 1.8310
L1.9800 1.8290
" />
<path d="M1.9820 2.4610
L1.9790 2.4560
" />
<path d="M1.9820 3.7010
L1.9800 3.6980
" />
<path d="M1.9830 1.7320
L1.9940 1.7400
" />
<path d="M1.9830 3.6040
L1.9940 3.6110
" />
<path d="M1.9840 2.4660
L1.9820 2.4610
" />
<path d="M1.9870 1.8330
L1.9820 1.8310
" />
<path d="M1.9870 3.7040
L1.9820 3.7010
" />
<path d="M1.9880 2.4710
L1.9840 2.4660
" />
<path d="M1.9890 1.8370
L1.9870 1.8330
" />
<path d="M1.9890 3.7070
L1.9870 3.7040
" />
<path d="M1.9900 2.4760
L1.9880 2.4710
" />
<path d="M1.9910 1.8410
L1.9890 1.8370
" />
<path d="M1.9910 2.3610
L1.9970 2.3670
" />
<path d="M1.9910 3.7120
L1.9890 3.7070
" />
<path d="M1.9920 2.4810
L1.9900 2.4760
" />
<path d="M1.9930 1.8430
L1.9910 1.8410
" />
<path d="M1.9930 3.7150
L1.9910 3.7120
" />
<path d="M1.9940 1.7400
L2.0000 1.7480
" />
<path d="M1.9940 1.8470
L1.9930 1.8430
" />
<path d="M1.9940 1.8510
L1.9940 1.8470
" />
<path d="M1.9940 2.4870
L1.9920 2.4810
" />
<path d="M1.9940 2.4920
L1.9940 2.4870
" />
<path d="M1.9940 2.4960
L1.9940 2.4920
" />
<path d="M1.9940 3.6110
L2.0000 3.6170
" />
<path d="M1.9940 3.7180
L1.9930 3.7150
" />
<path d="M1.9940 3.7220
L1.9940 3.7180
" />
<path d="M1.9950 1.8530
L1.9940 1.8510
" />
<path d="M1.9950 3.7260
L1.9940 3.7220
" />
<path d="M1.9960 2.5010
L1.9940 2.4960
" />
<path d="M1.9960 2.5070
L1.9960 2.5010
" />
<path d="M1.9970 1.8570
L1.9950 1.8530
" />
<path d="M1.9970 2.3670
L2.0050 2.3750
" />
<path d="M1.9970 2.5120
L1.9960 2.5070
" />
<path d="M1.9970 2.5420
L1.9980 2.5290
" />
<path d="M1.9970 2.5420
L2.0750 2.5500
" />
<path d="M1.9970 3.7290
L1.9950 3.7260
" />
<path d="M1.9980 1.8610
L1.9970 1.8570
" />
<path d="M1.9980 2.5180
L1.9970 2.5120
" />
<path d="M1.9980 2.5240
L1.9980 2.5180
" />
<path d="M1.9980 2.5290
L1.9980 2.5240
" />
<path d="M1.9980 3.7330
L1.9970 3.7290
" />
<path d="M2.0000 1.7480
L2.0090 1.7560
" />
<path d="M2.0000 1.8710
L1.9980 1.8610
" />
<path d="M2.0000 3.6170
L2.0090 3.6250
" />
<path d="M2.0000 3.7430
L1.9980 3.7330
" />
<path d="M2.0040 1.8810
L2.0000 1.8710
" />
<path d="M2.0040 3.7530
L2.0000 3.7430
" />
<path d="M2.0050 1.8910
L2.0040 1.8810
" />
<path d="M2.0050 2.3750
L2.0100 2.3830
" />
<path d="M2.0050 3.7620
L2.0040 3.7530
" />
<path d="M2.0060 1.9010
L2.0050 1.8910
" />
<path d="M2.0060 3.7720
L2.0050 3.7620
" />
<path d="M2.0070 1.9110
L2.0060 1.9010
" />
<path d="M2.0070 1.9200
L2.0070 1.9110
" />
<path d="M2.0070 1.9400
L2.0070 2.0770
" />
<path d="M2.0070 1.9400
L2.0080 1.9300
" />
<path d="M2.0070 2.0770
L1.8040 2.0770
" />
<path d="M2.0070 3.7800
L2.0060 3.7720
" />
<path d="M2.0070 3.7900
L2.0070 3.7800
" />
<path d="M2.0070 3.8100
L2.0070 3.9470
" />
<path d="M2.0070 3.8100
L2.0080 3.8000
" />
<path d="M2.0070 3.9470
L1.8040 3.9470
" />
<path d="M2.0080 1.9300
L2.0070 1.9200
" />
<path d="M2.0080 3.8000
L2.0070 3.7900
" />
<path d="M2.0090 1.7560
L2.0160 1.7640
" />
<path d="M2.0090 3.6250
L2.0160 3.6340
" />
<path d="M2.0100 2.3830
L2.0150 2.3920
" />
<path d="M2.0150 2.3920
L2.0220 2.4010
" />
<path d="M2.0160 1.7640
L2.0250 1.7740
" />
<path d="M2.0160 3.6340
L2.0250 3.6430
" />
<path d="M2.0220 2.4010
L2.0260 2.4110
" />
<path d="M2.0250 1.7740
L2.0290 1.7840
" />
<path d="M2.0250 3.6430
L2.0290 3.6550
" />
<path d="M2.0260 2.4040
L2.0280 2.3970
" />
<path d="M2.0260 2.4110
L2.0260 2.4040
" />
<path d="M2.0280 2.3970
L2.0300 2.3900
" />
<path d="M2.0290 1.7840
L2.0360 1.7930
" />
<path d="M2.0290 3.6550
L2.0360 3.6650
" />
<path d="M2.0300 2.3900
L2.0350 2.3840
" />
<path d="M2.0350 2.3840
L2.0370 2.3770
" />
<path d="M2.0360 1.7930
L2.0410 1.8030
" />
<path d="M2.0360 3.6650
L2.0410 3.6750
" />
<path d="M2.0370 2.3770
L2.0400 2.3710
" />
<path d="M2.0400 2.3710
L2.0420 2.3670
" />
<path d="M2.0410 1.7970
L2.0430 1.7900
" />
<path d="M2.0410 1.8030
L2.0410 1.7970
" />
<path d="M2.0410 3.6680
L2.0430 3.6620
" />
<path d="M2.0410 3.6750
L2.0410 3.6680
" />
<path d="M2.0420 2.3670
L2.0450 2.3610
" />
<path d="M2.0430 1.7900
L2.0450 1.7840
" />
<path d="M2.0430 3.6620
L2.0450 3.6550
" />
<path d="M2.0450 1.7840
L2.0480 1.7780
" />
<path d="M2.0450 2.3610
L2.0510 2.3560
" />
<path d="M2.0450 3.6550
L2.0480 3.6490
" />
<path d="M2.0480 1.7780
L2.0530 1.7720
" />
<path d="M2.0480 3.6490
L2.0530 3.6410
" />
<path d="M2.0510 2.3560
L2.0540 2.3500
" />
<path d="M2.0530 1.7720
L2.0540 1.7660
" />
<path d="M2.0530 3.6410
L2.0540 3.6350
" />
<path d="M2.0540 1.7660
L2.0590 1.7600
" />
<path d="M2.0540 2.3500
L2.0600 2.3450
" />
<path d="M2.0540 3.6350
L2.0590 3.6290
" />
<path d="M2.0590 1.7600
L2.0610 1.7540
" />
<path d="M2.0590 3.6290
L2.0610 3.6230
" />
<path d="M2.0600 2.3450
L2.0620 2.3400
" />
<path d="M2.0610 1.7540
L2.0640 1.7480
" />
<path d="M2.0610 3.6230
L2.0640 3.6170
" />
<path d="M2.0620 2.3400
L2.0690 2.3350
" />
<path d="M2.0640 1.7480
L2.0700 1.7420
" />
<path d="M2.0640 2.4850
L2.0640 2.4910
" />
<path d="M2.0640 2.4910
L2.0640 2.4960
" />
<path d="M2.0640 2.4960
L2.0640 2.5030
" />
<path d="M2.0640 2.5030
L2.0670 2.5090
" />
<path d="M2.0640 3.6170
L2.0700 3.6140
" />
<path d="M2.0670 2.4790
L2.0640 2.4850
" />
<path d="M2.0670 2.5090
L2.0680 2.5160
" />
<path d="M2.0680 2.4730
L2.0670 2.4790
" />
<path d="M2.0680 2.5160
L2.0690 2.5230
" />
<path d="M2.0690 2.3350
L2.0720 2.3300
" />
<path d="M2.0690 2.4670
L2.0680 2.4730
" />
<path d="M2.0690 2.5230
L2.0700 2.5300
" />
<path d="M2.0700 1.7420
L2.0750 1.7380
" />
<path d="M2.0700 2.4550
L2.0700 2.4610
" />
<path d="M2.0700 2.4610
L2.0690 2.4670
" />
<path d="M2.0700 2.5300
L2.0700 2.5370
" />
<path d="M2.0700 2.5370
L2.0710 2.5440
" />
<path d="M2.0700 3.6140
L2.0750 3.6090
" />
<path d="M2.0710 2.5440
L2.0750 2.5500
" />
<path d="M2.0720 2.3300
L2.0780 2.3250
" />
<path d="M2.0720 2.4490
L2.0700 2.4550
" />
<path d="M2.0750 1.7380
L2.0770 1.7320
" />
<path d="M2.0750 3.6090
L2.0770 3.6040
" />
<path d="M2.0770 1.7320
L2.0840 1.7260
" />
<path d="M2.0770 2.4380
L2.0770 2.4440
" />
<path d="M2.0770 2.4440
L2.0720 2.4490
" />
<path d="M2.0770 3.6040
L2.0840 3.5990
" />
<path d="M2.0780 2.3250
L2.0840 2.3210
" />
<path d="M2.0800 2.4330
L2.0770 2.4380
" />
<path d="M2.0840 1.7260
L2.0870 1.7220
" />
<path d="M2.0840 1.8770
L2.0840 1.8830
" />
<path d="M2.0840 1.8830
L2.0840 1.8910
" />
<path d="M2.0840 1.8910
L2.0840 1.9050
" />
<path d="M2.0840 1.9050
L2.0840 1.9170
" />
<path d="M2.0840 1.9170
L2.0840 1.9320
" />
<path d="M2.0840 2.0770
L2.0840 1.9320
" />
<path d="M2.0840 2.3210
L2.0910 2.3170
" />
<path d="M2.0840 2.4260
L2.0800 2.4330
" />
<path d="M2.0840 3.5990
L2.0870 3.5940
" />
<path d="M2.0840 3.7480
L2.0840 3.7550
" />
<path d="M2.0840 3.7550
L2.0840 3.7620
" />
<path d="M2.0840 3.7620
L2.0840 3.7760
" />
<path d="M2.0840 3.7760
L2.0840 3.7870
" />
<path d="M2.0840 3.7870
L2.0840 3.8010
" />
<path d="M2.0840 3.9470
L2.0840 3.8010
" />
<path d="M2.0870 1.7220
L2.0920 1.7180
" />
<path d="M2.0870 1.8630
L2.0870 1.8690
" />
<path d="M2.0870 1.8690
L2.0840 1.8770
" />
<path d="M2.0870 2.4210
L2.0840 2.4260
" />
<path d="M2.0870 3.5940
L2.0920 3.5890
" />
<path d="M2.0870 3.7350
L2.0870 3.7420
" />
<path d="M2.0870 3.7420
L2.0840 3.7480
" />
<path d="M2.0880 1.8570
L2.0870 1.8630
" />
<path d="M2.0880 3.7280
L2.0870 3.7350
" />
<path d="M2.0910 2.3170
L2.0950 2.3130
" />
<path d="M2.0920 1.7180
L2.0990 1.7140
" />
<path d="M2.0920 1.8430
L2.0920 1.8490
" />
<path d="M2.0920 1.8490
L2.0880 1.8570
" />
<path d="M2.0920 2.4160
L2.0870 2.4210
" />
<path d="M2.0920 3.5890
L2.0990 3.5850
" />
<path d="M2.0920 3.7150
L2.0920 3.7220
" />
<path d="M2.0920 3.7220
L2.0880 3.7280
" />
<path d="M2.0950 1.8370
L2.0920 1.8430
" />
<path d="M2.0950 2.3130
L2.1030 2.3100
" />
<path d="M2.0950 2.4120
L2.0920 2.4160
" />
<path d="M2.0950 3.7070
L2.0920 3.7150
" />
<path d="M2.0960 1.8310
L2.0950 1.8370
" />
<path d="M2.0960 3.7000
L2.0950 3.7070
" />
<path d="M2.0990 1.7140
L2.1040 1.7100
" />
<path d="M2.0990 3.5850
L2.1040 3.5790
" />
<path d="M2.1000 1.8250
L2.0960 1.8310
" />
</g>
<g style="fill:#000000; fill-opacity:1.0000; stroke:none;">
<circle cx="2.1000" cy="1.8250" r="0.0100" /> 
</g>
<g style="fill:none; 
stroke:#000000; stroke-width:0.0200; stroke-opacity:1; 
stroke-linecap:round; stroke-linejoin:round;">
<path d="M2.1000 2.4070
L2.0950 2.4120
" />
<path d="M2.1000 3.6940
L2.0960 3.7000
" />
</g>
<g style="fill:#000000; fill-opacity:1.0000; stroke:none;">
<circle cx="2.1000" cy="3.6940" r="0.0100" /> 
</g>
<g style="fill:none; 
stroke:#000000; stroke-width:0.0200; stroke-opacity:1; 
stroke-linecap:round; stroke-linejoin:round;">
<path d="M2.1030 1.8210
L2.1000 1.8250
" />
<path d="M2.1030 2.3100
L2.1090 2.3060
" />
<path d="M2.1030 3.6910
L2.1000 3.6940
" />
<path d="M2.1040 1.7100
L2.1090 1.7060
" />
<path d="M2.1040 1.8170
L2.1030 1.8210
" />
<path d="M2.1040 2.4030
L2.1000 2.4070
" />
<path d="M2.1040 3.5790
L2.1090 3.5750
" />
<path d="M2.1040 3.6880
L2.1030 3.6910
" />
<path d="M2.1090 1.7060
L2.1150 1.7020
" />
<path d="M2.1090 1.8130
L2.1040 1.8170
" />
<path d="M2.1090 2.3060
L2.1150 2.3010
" />
<path d="M2.1090 3.5750
L2.1150 3.5710
" />
<path d="M2.1090 3.6820
L2.1040 3.6880
" />
<path d="M2.1090 4.3140
L2.1090 4.5400
" />
<path d="M2.1090 4.5400
L1.9260 4.4710
" />
<path d="M2.1100 2.3990
L2.1040 2.4030
" />
<path d="M2.1140 1.8070
L2.1090 1.8130
" />
<path d="M2.1140 3.6780
L2.1090 3.6820
" />
<path d="M2.1150 1.7020
L2.1210 1.6980
" />
<path d="M2.1150 2.3010
L2.1210 2.2990
" />
<path d="M2.1150 2.3950
L2.1100 2.3990
" />
<path d="M2.1150 3.5710
L2.1210 3.5680
" />
<path d="M2.1190 1.8010
L2.1140 1.8070
" />
<path d="M2.1190 3.6730
L2.1140 3.6780
" />
<path d="M2.1200 2.3920
L2.1150 2.3950
" />
<path d="M2.1210 1.6980
L2.1270 1.6940
" />
<path d="M2.1210 2.2990
L2.1280 2.2960
" />
<path d="M2.1210 3.5680
L2.1270 3.5650
" />
<path d="M2.1240 1.7970
L2.1190 1.8010
" />
<path d="M2.1240 2.3880
L2.1200 2.3920
" />
<path d="M2.1240 3.6680
L2.1190 3.6730
" />
<path d="M2.1270 1.6940
L2.1320 1.6920
" />
<path d="M2.1270 3.5650
L2.1320 3.5620
" />
<path d="M2.1280 1.7930
L2.1240 1.7970
" />
<path d="M2.1280 2.2960
L2.1320 2.2940
" />
<path d="M2.1280 2.3850
L2.1240 2.3880
" />
<path d="M2.1280 3.6640
L2.1240 3.6680
" />
<path d="M2.1320 1.6920
L2.1390 1.6900
" />
<path d="M2.1320 2.2940
L2.1400 2.2920
" />
<path d="M2.1320 3.5620
L2.1390 3.5590
" />
<path d="M2.1350 1.7880
L2.1280 1.7930
" />
<path d="M2.1350 2.3820
L2.1280 2.3850
" />
<path d="M2.1350 3.6600
L2.1280 3.6640
" />
<path d="M2.1390 1.6900
L2.1440 1.6860
" />
<path d="M2.1390 3.5590
L2.1440 3.5570
" />
<path d="M2.1400 1.7840
L2.1350 1.7880
" />
<path d="M2.1400 2.2920
L2.1480 2.2900
" />
<path d="M2.1400 2.3800
L2.1350 2.3820
" />
<path d="M2.1400 3.6560
L2.1350 3.6600
" />
<path d="M2.1440 1.6860
L2.1500 1.6840
" />
<path d="M2.1440 3.5570
L2.1500 3.5550
" />
<path d="M2.1470 2.3780
L2.1400 2.3800
" />
<path d="M2.1480 2.2900
L2.1550 2.2890
" />
<path d="M2.1490 1.7820
L2.1400 1.7840
" />
<path d="M2.1490 3.6530
L2.1400 3.6560
" />
<path d="M2.1500 1.6840
L2.1570 1.6840
" />
<path d="M2.1500 2.3760
L2.1470 2.3780
" />
<path d="M2.1500 3.5550
L2.1570 3.5530
" />
<path d="M2.1550 1.7780
L2.1490 1.7820
" />
<path d="M2.1550 2.2890
L2.1600 2.2880
" />
<path d="M2.1550 3.6510
L2.1490 3.6530
" />
<path d="M2.1570 1.6840
L2.1650 1.6820
" />
<path d="M2.1570 2.3740
L2.1500 2.3760
" />
<path d="M2.1570 3.5530
L2.1650 3.5510
" />
<path d="M2.1600 1.7760
L2.1550 1.7780
" />
<path d="M2.1600 2.2880
L2.1670 2.2870
" />
<path d="M2.1600 3.6480
L2.1550 3.6510
" />
<path d="M2.1640 2.3730
L2.1570 2.3740
" />
<path d="M2.1650 1.6820
L2.1720 1.6800
" />
<path d="M2.1650 3.5510
L2.1720 3.5510
" />
<path d="M2.1670 1.7740
L2.1600 1.7760
" />
<path d="M2.1670 2.2870
L2.1740 2.2870
" />
<path d="M2.1670 3.6450
L2.1600 3.6480
" />
<path d="M2.1680 2.3720
L2.1640 2.3730
" />
<path d="M2.1720 1.6800
L2.1790 1.6800
" />
<path d="M2.1720 3.5510
L2.1790 3.5510
" />
<path d="M2.1740 1.7740
L2.1670 1.7740
" />
<path d="M2.1740 2.2870
L2.1830 2.2870
" />
<path d="M2.1740 3.6430
L2.1670 3.6450
" />
<path d="M2.1750 2.3720
L2.1680 2.3720
" />
<path d="M2.1790 1.6800
L2.1850 1.6800
" />
<path d="M2.1790 3.5510
L2.1850 3.5510
" />
<path d="M2.1830 2.2870
L2.1880 2.2870
" />
<path d="M2.1830 2.3720
L2.1750 2.3720
" />
<path d="M2.1840 1.7720
L2.1740 1.7740
" />
<path d="M2.1840 3.6420
L2.1740 3.6430
" />
<path d="M2.1850 1.6800
L2.1900 1.6780
" />
<path d="M2.1850 3.5510
L2.1900 3.5500
" />
<path d="M2.1850 4.2860
L2.3880 4.2110
" />
<path d="M2.1850 4.5680
L2.1850 4.2860
" />
<path d="M2.1870 2.3720
L2.1830 2.3720
" />
<path d="M2.1880 2.2870
L2.2000 2.2870
" />
<path d="M2.1890 1.7720
L2.1840 1.7720
" />
<path d="M2.1890 3.1610
L1.7260 3.3070
" />
<path d="M2.1890 3.1610
L2.2880 3.1290
" />
<path d="M2.1890 3.6420
L2.1840 3.6420
" />
<path d="M2.1900 1.6780
L2.1990 1.6780
" />
<path d="M2.1900 3.5500
L2.1990 3.5510
" />
<path d="M2.1960 2.3720
L2.1870 2.3720
" />
<path d="M2.1980 1.7720
L2.1890 1.7720
" />
<path d="M2.1980 3.6420
L2.1890 3.6420
" />
<path d="M2.1990 1.6780
L2.2110 1.6800
" />
<path d="M2.1990 3.5510
L2.2110 3.5510
" />
<path d="M2.2000 2.2870
L2.2080 2.2880
" />
<path d="M2.2010 1.7720
L2.1980 1.7720
" />
<path d="M2.2010 2.3720
L2.1960 2.3720
" />
<path d="M2.2010 2.6260
L2.2060 2.6250
" />
<path d="M2.2010 2.6260
L2.2110 2.7120
" />
<path d="M2.2010 3.6420
L2.1980 3.6420
" />
<path d="M2.2060 2.6250
L2.2140 2.6230
" />
<path d="M2.2070 1.7720
L2.2010 1.7720
" />
<path d="M2.2070 2.3730
L2.2010 2.3720
" />
<path d="M2.2070 3.6420
L2.2010 3.6420
" />
<path d="M2.2080 2.2880
L2.2180 2.2890
" />
<path d="M2.2110 1.6800
L2.2200 1.6800
" />
<path d="M2.2110 3.5510
L2.2200 3.5510
" />
<path d="M2.2140 1.7720
L2.2070 1.7720
" />
<path d="M2.2140 2.6230
L2.2180 2.6230
" />
<path d="M2.2140 3.6420
L2.2070 3.6420
" />
<path d="M2.2150 2.3740
L2.2070 2.3730
" />
<path d="M2.2180 1.7740
L2.2140 1.7720
" />
<path d="M2.2180 2.2890
L2.2300 2.2910
" />
<path d="M2.2180 2.6230
L2.2230 2.6230
" />
<path d="M2.2180 2.7110
L2.2110 2.7120
" />
<path d="M2.2180 3.6430
L2.2140 3.6420
" />
<path d="M2.2190 2.3750
L2.2150 2.3740
" />
<path d="M2.2200 1.6800
L2.2330 1.6820
" />
<path d="M2.2200 3.5510
L2.2330 3.5510
" />
<path d="M2.2220 1.7740
L2.2180 1.7740
" />
<path d="M2.2220 3.6440
L2.2180 3.6430
" />
<path d="M2.2230 2.6230
L2.2300 2.6210
" />
<path d="M2.2280 2.3760
L2.2190 2.3750
" />
<path d="M2.2290 1.7760
L2.2220 1.7740
" />
<path d="M2.2290 3.6450
L2.2220 3.6440
" />
<path d="M2.2300 2.2910
L2.2380 2.2930
" />
<path d="M2.2300 2.6210
L2.2330 2.6190
" />
<path d="M2.2300 2.7100
L2.2180 2.7110
" />
<path d="M2.2330 1.6820
L2.2450 1.6840
" />
<path d="M2.2330 1.7760
L2.2290 1.7760
" />
<path d="M2.2330 2.3780
L2.2280 2.3760
" />
<path d="M2.2330 2.6190
L2.2390 2.6170
" />
<path d="M2.2330 3.5510
L2.2450 3.5540
" />
<path d="M2.2330 3.6480
L2.2290 3.6450
" />
<path d="M2.2370 1.7780
L2.2330 1.7760
" />
<path d="M2.2370 2.3800
L2.2330 2.3780
" />
<path d="M2.2370 3.6500
L2.2330 3.6480
" />
<path d="M2.2380 2.2930
L2.2500 2.2960
" />
<path d="M2.2380 2.7080
L2.2300 2.7100
" />
<path d="M2.2390 2.6170
L2.2460 2.6150
" />
<path d="M2.2440 1.7800
L2.2370 1.7780
" />
<path d="M2.2440 3.6520
L2.2370 3.6500
" />
<path d="M2.2450 1.6840
L2.2560 1.6880
" />
<path d="M2.2450 2.3830
L2.2370 2.3800
" />
<path d="M2.2450 3.5540
L2.2560 3.5570
" />
<path d="M2.2460 2.6150
L2.2510 2.6120
" />
<path d="M2.2490 1.7820
L2.2440 1.7800
" />
<path d="M2.2490 2.7060
L2.2380 2.7080
" />
<path d="M2.2490 3.6540
L2.2440 3.6520
" />
<path d="M2.2500 2.2960
L2.2580 2.2990
" />
<path d="M2.2510 2.3850
L2.2450 2.3830
" />
<path d="M2.2510 2.6120
L2.2560 2.6100
" />
<path d="M2.2530 1.7840
L2.2490 1.7820
" />
<path d="M2.2530 3.6560
L2.2490 3.6540
" />
<path d="M2.2560 1.6880
L2.2650 1.6900
" />
<path d="M2.2560 2.6100
L2.2590 2.6070
" />
<path d="M2.2560 3.5570
L2.2650 3.5600
" />
<path d="M2.2570 2.3880
L2.2510 2.3850
" />
<path d="M2.2580 1.7860
L2.2530 1.7840
" />
<path d="M2.2580 2.2990
L2.2680 2.3050
" />
<path d="M2.2580 2.7030
L2.2490 2.7060
" />
<path d="M2.2580 3.6580
L2.2530 3.6560
" />
<path d="M2.2590 2.6070
L2.2640 2.6040
" />
<path d="M2.2600 1.7900
L2.2580 1.7860
" />
<path d="M2.2600 2.3920
L2.2570 2.3880
" />
<path d="M2.2600 3.6610
L2.2580 3.6580
" />
<path d="M2.2640 2.6040
L2.2690 2.6010
" />
<path d="M2.2650 1.6900
L2.2780 1.6940
" />
<path d="M2.2650 1.7930
L2.2600 1.7900
" />
<path d="M2.2650 2.3950
L2.2600 2.3920
" />
<path d="M2.2650 2.7000
L2.2580 2.7030
" />
<path d="M2.2650 3.5600
L2.2780 3.5650
" />
<path d="M2.2650 3.6640
L2.2600 3.6610
" />
<path d="M2.2680 2.3050
L2.2790 2.3090
" />
<path d="M2.2690 1.7950
L2.2650 1.7930
" />
<path d="M2.2690 2.6010
L2.2760 2.5980
" />
<path d="M2.2690 3.6670
L2.2650 3.6640
" />
<path d="M2.2710 2.3990
L2.2650 2.3950
" />
<path d="M2.2750 1.7990
L2.2690 1.7950
" />
</g>
<g style="fill:#000000; fill-opacity:1.0000; stroke:none;">
<circle cx="2.2750" cy="1.7990" r="0.0100" /> 
</g>
<g style="fill:none; 
stroke:#000000; stroke-width:0.0200; stroke-opacity:1; 
stroke-linecap:round; stroke-linejoin:round;">
<path d="M2.2750 2.6970
L2.2650 2.7000
" />
<path d="M2.2750 3.6700
L2.2690 3.6670
" />
</g>
<g style="fill:#000000; fill-opacity:1.0000; stroke:none;">
<circle cx="2.2750" cy="3.6700" r="0.0100" /> 
</g>
<g style="fill:none; 
stroke:#000000; stroke-width:0.0200; stroke-opacity:1; 
stroke-linecap:round; stroke-linejoin:round;">
<path d="M2.2760 2.5980
L2.2810 2.5950
" />
<path d="M2.2780 1.6940
L2.2880 1.7000
" />
<path d="M2.2780 2.4030
L2.2710 2.3990
" />
<path d="M2.2780 3.5650
L2.2880 3.5700
" />
<path d="M2.2790 1.8030
L2.2750 1.7990
" />
<path d="M2.2790 2.3090
L2.2880 2.3130
" />
<path d="M2.2790 3.6740
L2.2750 3.6700
" />
<path d="M2.2810 2.5950
L2.2850 2.5920
" />
<path d="M2.2820 1.8050
L2.2790 1.8030
" />
<path d="M2.2820 3.6770
L2.2790 3.6740
" />
<path d="M2.2830 2.4070
L2.2780 2.4030
" />
</g>
<g style="fill:#000000; fill-opacity:1.0000; stroke:none;">
<circle cx="2.2830" cy="2.4070" r="0.0100" /> 
</g>
<g style="fill:none; 
stroke:#000000; stroke-width:0.0200; stroke-opacity:1; 
stroke-linecap:round; stroke-linejoin:round;">
<path d="M2.2840 2.6930
L2.2750 2.6970
" />
<path d="M2.2850 1.8090
L2.2820 1.8050
" />
</g>
<g style="fill:#000000; fill-opacity:1.0000; stroke:none;">
<circle cx="2.2850" cy="2.5920" r="0.0100" /> 
</g>
<g style="fill:none; 
stroke:#000000; stroke-width:0.0200; stroke-opacity:1; 
stroke-linecap:round; stroke-linejoin:round;">
<path d="M2.2850 2.5920
L2.2890 2.5870
" />
<path d="M2.2850 3.6790
L2.2820 3.6770
" />
<path d="M2.2880 1.7000
L2.2960 1.7060
" />
<path d="M2.2880 1.8130
L2.2850 1.8090
" />
<path d="M2.2880 2.3130
L2.2950 2.3190
" />
<path d="M2.2880 2.4120
L2.2830 2.4070
" />
<path d="M2.2880 3.1290
L2.1830 3.0970
" />
<path d="M2.2880 3.5700
L2.2960 3.5750
" />
<path d="M2.2880 3.6820
L2.2850 3.6790
" />
<path d="M2.2890 1.8170
L2.2880 1.8130
" />
<path d="M2.2890 2.5870
L2.2920 2.5820
" />
<path d="M2.2890 3.6860
L2.2880 3.6820
" />
<path d="M2.2900 2.4170
L2.2880 2.4120
" />
<path d="M2.2900 2.6890
L2.2840 2.6930
" />
<path d="M2.2910 1.8210
L2.2890 1.8170
" />
<path d="M2.2910 3.6900
L2.2890 3.6860
" />
<path d="M2.2920 2.5820
L2.2960 2.5780
" />
<path d="M2.2940 1.8250
L2.2910 1.8210
" />
<path d="M2.2940 2.4230
L2.2900 2.4170
" />
<path d="M2.2940 3.6940
L2.2910 3.6900
" />
<path d="M2.2950 2.3190
L2.3040 2.3240
" />
<path d="M2.2960 1.7060
L2.3080 1.7120
" />
<path d="M2.2960 1.8290
L2.2940 1.8250
" />
<path d="M2.2960 2.5780
L2.2990 2.5730
" />
<path d="M2.2960 3.5750
L2.3080 3.5810
" />
<path d="M2.2960 3.6980
L2.2940 3.6940
" />
<path d="M2.2980 1.8330
L2.2960 1.8290
" />
<path d="M2.2980 2.4280
L2.2940 2.4230
" />
<path d="M2.2980 2.6820
L2.2900 2.6890
" />
<path d="M2.2980 3.7020
L2.2960 3.6980
" />
<path d="M2.2990 2.5730
L2.3030 2.5680
" />
<path d="M2.3000 1.8370
L2.2980 1.8330
" />
<path d="M2.3000 3.7060
L2.2980 3.7020
" />
<path d="M2.3010 1.8410
L2.3000 1.8370
" />
<path d="M2.3010 2.4350
L2.2980 2.4280
" />
<path d="M2.3010 3.7130
L2.3000 3.7060
" />
<path d="M2.3030 1.8450
L2.3010 1.8410
" />
<path d="M2.3030 2.5680
L2.3080 2.5630
" />
<path d="M2.3030 3.7170
L2.3010 3.7130
" />
<path d="M2.3040 1.8510
L2.3030 1.8450
" />
<path d="M2.3040 2.3240
L2.3140 2.3300
" />
<path d="M2.3040 2.4410
L2.3010 2.4350
" />
<path d="M2.3040 3.7220
L2.3030 3.7170
" />
<path d="M2.3070 1.8550
L2.3040 1.8510
" />
<path d="M2.3070 3.7260
L2.3040 3.7220
" />
<path d="M2.3080 1.7120
L2.3170 1.7180
" />
<path d="M2.3080 1.8590
L2.3070 1.8550
" />
<path d="M2.3080 2.5630
L2.3100 2.5550
" />
<path d="M2.3080 2.6770
L2.2980 2.6820
" />
<path d="M2.3080 3.5810
L2.3170 3.5900
" />
<path d="M2.3080 3.7310
L2.3070 3.7260
" />
<path d="M2.3090 1.8650
L2.3080 1.8590
" />
<path d="M2.3090 2.4470
L2.3040 2.4410
" />
<path d="M2.3090 3.7360
L2.3080 3.7310
" />
<path d="M2.3100 1.8710
L2.3090 1.8650
" />
<path d="M2.3100 2.5550
L2.3130 2.5500
" />
<path d="M2.3100 3.7430
L2.3090 3.7360
" />
<path d="M2.3110 1.8790
L2.3100 1.8710
" />
<path d="M2.3110 1.8850
L2.3110 1.8790
" />
<path d="M2.3110 3.7500
L2.3100 3.7430
" />
<path d="M2.3110 3.7570
L2.3110 3.7500
" />
<path d="M2.3120 1.8930
L2.3110 1.8850
" />
<path d="M2.3120 1.8990
L2.3120 1.8930
" />
<path d="M2.3120 1.9070
L2.3120 1.8990
" />
<path d="M2.3120 1.9130
L2.3120 1.9070
" />
<path d="M2.3120 1.9200
L2.3120 1.9130
" />
<path d="M2.3120 1.9200
L2.3120 2.0770
" />
<path d="M2.3120 2.0770
L2.0840 2.0770
" />
<path d="M2.3120 2.4520
L2.3090 2.4470
" />
<path d="M2.3120 3.7640
L2.3110 3.7570
" />
<path d="M2.3120 3.7710
L2.3120 3.7640
" />
<path d="M2.3120 3.7760
L2.3120 3.7710
" />
<path d="M2.3120 3.7830
L2.3120 3.7760
" />
<path d="M2.3120 3.7900
L2.3120 3.7830
" />
<path d="M2.3120 3.7900
L2.3120 3.9470
" />
<path d="M2.3120 3.9470
L2.0840 3.9470
" />
<path d="M2.3130 2.5500
L2.3150 2.5440
" />
<path d="M2.3140 2.3300
L2.3220 2.3370
" />
<path d="M2.3140 2.4580
L2.3120 2.4520
" />
<path d="M2.3150 2.5440
L2.3160 2.5390
" />
<path d="M2.3160 2.4650
L2.3140 2.4580
" />
<path d="M2.3160 2.5390
L2.3180 2.5330
" />
<path d="M2.3160 2.6720
L2.3080 2.6770
" />
<path d="M2.3170 1.7180
L2.3240 1.7260
" />
<path d="M2.3170 2.4710
L2.3160 2.4650
" />
<path d="M2.3170 3.5900
L2.3240 3.5970
" />
<path d="M2.3180 2.5330
L2.3190 2.5270
" />
<path d="M2.3190 2.4770
L2.3170 2.4710
" />
<path d="M2.3190 2.5270
L2.3200 2.5210
" />
<path d="M2.3200 2.4840
L2.3190 2.4770
" />
<path d="M2.3200 2.4900
L2.3200 2.4840
" />
<path d="M2.3200 2.5150
L2.3210 2.5080
" />
<path d="M2.3200 2.5210
L2.3200 2.5150
" />
<path d="M2.3210 2.4960
L2.3200 2.4900
" />
<path d="M2.3210 2.5020
L2.3210 2.4960
" />
<path d="M2.3210 2.5080
L2.3210 2.5020
" />
<path d="M2.3220 2.3370
L2.3270 2.3440
" />
<path d="M2.3220 2.6660
L2.3160 2.6720
" />
<path d="M2.3240 1.7260
L2.3320 1.7340
" />
<path d="M2.3240 3.5970
L2.3320 3.6050
" />
<path d="M2.3270 2.3440
L2.3350 2.3510
" />
<path d="M2.3290 2.6600
L2.3220 2.6660
" />
<path d="M2.3320 1.7340
L2.3420 1.7420
" />
<path d="M2.3320 3.6050
L2.3420 3.6140
" />
</g>
<g style="fill:#000000; fill-opacity:1.0000; stroke:none;">
<circle cx="2.3350" cy="2.3510" r="0.0100" /> 
</g>
<g style="fill:none; 
stroke:#000000; stroke-width:0.0200; stroke-opacity:1; 
stroke-linecap:round; stroke-linejoin:round;">
<path d="M2.3350 2.3510
L2.3440 2.3590
" />
<path d="M2.3360 2.6530
L2.3290 2.6600
" />
<path d="M2.3420 1.7420
L2.3490 1.7520
" />
<path d="M2.3420 3.6140
L2.3490 3.6210
" />
<path d="M2.3440 2.3590
L2.3510 2.3670
" />
<path d="M2.3450 2.6460
L2.3360 2.6530
" />
</g>
<g style="fill:#000000; fill-opacity:1.0000; stroke:none;">
<circle cx="2.3450" cy="2.6460" r="0.0100" /> 
</g>
<g style="fill:none; 
stroke:#000000; stroke-width:0.0200; stroke-opacity:1; 
stroke-linecap:round; stroke-linejoin:round;">
<path d="M2.3490 1.7520
L2.3530 1.7620
" />
<path d="M2.3490 3.6210
L2.3530 3.6310
" />
<path d="M2.3510 2.3670
L2.3560 2.3740
" />
<path d="M2.3510 2.6390
L2.3450 2.6460
" />
</g>
<g style="fill:#000000; fill-opacity:1.0000; stroke:none;">
<circle cx="2.3530" cy="1.7620" r="0.0100" /> 
</g>
<g style="fill:none; 
stroke:#000000; stroke-width:0.0200; stroke-opacity:1; 
stroke-linecap:round; stroke-linejoin:round;">
<path d="M2.3530 1.7620
L2.3580 1.7700
" />
</g>
<g style="fill:#000000; fill-opacity:1.0000; stroke:none;">
<circle cx="2.3530" cy="3.6310" r="0.0100" /> 
</g>
<g style="fill:none; 
stroke:#000000; stroke-width:0.0200; stroke-opacity:1; 
stroke-linecap:round; stroke-linejoin:round;">
<path d="M2.3530 3.6310
L2.3580 3.6400
" />
<path d="M2.3550 2.6310
L2.3510 2.6390
" />
<path d="M2.3560 2.3740
L2.3610 2.3830
" />
<path d="M2.3580 1.7700
L2.3630 1.7800
" />
<path d="M2.3580 3.6400
L2.3630 3.6510
" />
<path d="M2.3610 2.3830
L2.3670 2.3920
" />
<path d="M2.3610 2.6230
L2.3550 2.6310
" />
<path d="M2.3630 1.7800
L2.3670 1.7900
" />
<path d="M2.3630 3.6510
L2.3670 3.6610
" />
<path d="M2.3660 2.6170
L2.3610 2.6230
" />
<path d="M2.3670 1.7900
L2.3720 1.7990
" />
<path d="M2.3670 2.3920
L2.3740 2.4020
" />
<path d="M2.3670 3.6610
L2.3720 3.6710
" />
<path d="M2.3720 1.7990
L2.3750 1.8090
" />
<path d="M2.3720 3.6710
L2.3750 3.6790
" />
<path d="M2.3730 2.6080
L2.3660 2.6170
" />
<path d="M2.3740 2.4020
L2.3780 2.4110
" />
<path d="M2.3750 1.8090
L2.3780 1.8190
" />
<path d="M2.3750 3.6790
L2.3780 3.6890
" />
<path d="M2.3770 2.6000
L2.3730 2.6080
" />
<path d="M2.3780 1.8190
L2.3800 1.8290
" />
<path d="M2.3780 2.4110
L2.3820 2.4210
" />
<path d="M2.3780 3.6890
L2.3800 3.6990
" />
<path d="M2.3800 1.8290
L2.3820 1.8390
" />
<path d="M2.3800 3.6990
L2.3820 3.7090
" />
<path d="M2.3810 2.5910
L2.3770 2.6000
" />
<path d="M2.3820 1.8390
L2.3840 1.8490
" />
<path d="M2.3820 2.4210
L2.3860 2.4330
" />
<path d="M2.3820 3.7090
L2.3840 3.7210
" />
<path d="M2.3840 1.8490
L2.3850 1.8590
" />
<path d="M2.3840 3.7210
L2.3850 3.7310
" />
<path d="M2.3850 1.8590
L2.3860 1.8710
" />
<path d="M2.3850 2.5830
L2.3810 2.5910
" />
<path d="M2.3850 3.7310
L2.3860 3.7420
" />
<path d="M2.3860 1.8710
L2.3870 1.8810
" />
<path d="M2.3860 2.4330
L2.3890 2.4430
" />
<path d="M2.3860 3.7420
L2.3870 3.7520
" />
<path d="M2.3870 1.8810
L2.3880 1.9010
" />
<path d="M2.3870 3.7520
L2.3880 3.7730
" />
<path d="M2.3880 1.9010
L2.3880 1.9220
" />
<path d="M2.3880 2.1710
L2.3880 1.9220
" />
<path d="M2.3880 2.5740
L2.3850 2.5830
" />
<path d="M2.3880 2.8120
L1.7260 2.8120
" />
<path d="M2.3880 2.9070
L2.3880 2.8120
" />
<path d="M2.3880 3.0810
L1.8280 2.9070
" />
<path d="M2.3880 3.1810
L2.3880 3.0810
" />
<path d="M2.3880 3.3540
L1.8280 3.3540
" />
<path d="M2.3880 3.4470
L2.3880 3.3540
" />
<path d="M2.3880 3.7730
L2.3880 3.7920
" />
<path d="M2.3880 4.0400
L2.3880 3.7920
" />
<path d="M2.3880 4.1120
L1.7260 4.3730
" />
<path d="M2.3880 4.2110
L2.3880 4.1120
" />
<path d="M2.3880 4.6430
L2.1850 4.5680
" />
<path d="M2.3880 4.7420
L2.3880 4.6430
" />
<path d="M2.3890 2.4430
L2.3920 2.4530
" />
<path d="M2.3900 2.5650
L2.3880 2.5740
" />
<path d="M2.3920 2.4530
L2.3940 2.4630
" />
<path d="M2.3920 2.5530
L2.3900 2.5650
" />
<path d="M2.3940 2.4630
L2.3950 2.4740
" />
<path d="M2.3940 2.5440
L2.3920 2.5530
" />
<path d="M2.3950 2.4740
L2.3960 2.4850
" />
<path d="M2.3950 2.5350
L2.3940 2.5440
" />
<path d="M2.3960 2.4850
L2.3970 2.4960
" />
<path d="M2.3960 2.5250
L2.3950 2.5350
" />
<path d="M2.3970 2.4960
L2.3970 2.5050
" />
<path d="M2.3970 2.5050
L2.3970 2.5150
" />
<path d="M2.3970 2.5150
L2.3960 2.5250
" />
<path d="M3.3190 5.4210
L0.9060 5.4210
" />
<path d="M3.3190 5.4210
L3.3330 5.4210
" />
<path d="M3.3330 0.9770
L3.3190 0.9770
" />
<path d="M3.3330 5.4210
L3.3450 5.4210
" />
<path d="M3.3450 0.9780
L3.3330 0.9770
" />
<path d="M3.3450 5.4210
L3.3570 5.4170
" />
<path d="M3.3570 0.9780
L3.3450 0.9780
" />
<path d="M3.3570 5.4170
L3.3690 5.4170
" />
<path d="M3.3690 0.9820
L3.3570 0.9780
" />
<path d="M3.3690 5.4170
L3.3810 5.4130
" />
<path d="M3.3810 0.9850
L3.3690 0.9820
" />
<path d="M3.3810 5.4130
L3.3940 5.4090
" />
<path d="M3.3940 0.9860
L3.3810 0.9850
" />
<path d="M3.3940 5.4090
L3.4060 5.4050
" />
<path d="M3.3960 5.6990
L0.8310 5.6990
" />
<path d="M3.3960 5.6990
L3.7000 5.3930
" />
<path d="M3.4060 0.9900
L3.3940 0.9860
" />
<path d="M3.4060 5.4050
L3.4160 5.4010
" />
<path d="M3.4160 0.9940
L3.4060 0.9900
" />
<path d="M3.4160 5.4010
L3.4280 5.3970
" />
<path d="M3.4280 1.0010
L3.4160 0.9940
" />
<path d="M3.4280 5.3970
L3.4400 5.3920
" />
<path d="M3.4400 1.0060
L3.4280 1.0010
" />
<path d="M3.4400 5.3920
L3.4500 5.3850
" />
<path d="M3.4500 1.0130
L3.4400 1.0060
" />
<path d="M3.4500 5.3850
L3.4600 5.3770
" />
<path d="M3.4600 1.0180
L3.4500 1.0130
" />
<path d="M3.4600 5.3770
L3.4700 5.3720
" />
<path d="M3.4700 1.0270
L3.4600 1.0180
" />
<path d="M3.4700 5.3720
L3.4800 5.3640
" />
<path d="M3.4800 1.0350
L3.4700 1.0270
" />
<path d="M3.4800 5.3640
L3.4900 5.3560
" />
<path d="M3.4900 1.0430
L3.4800 1.0350
" />
<path d="M3.4900 5.3560
L3.5000 5.3480
" />
<path d="M3.5000 1.0510
L3.4900 1.0430
" />
</g>
<g style="fill:#000000; fill-opacity:1.0000; stroke:none;">
<circle cx="3.5000" cy="1.0510" r="0.0100" /> 
<circle cx="3.5000" cy="5.3480" r="0.0100" /> 
</g>
<g style="fill:none; 
stroke:#000000; stroke-width:0.0200; stroke-opacity:1; 
stroke-linecap:round; stroke-linejoin:round;">
<path d="M3.5000 5.3480
L3.5080 5.3360
" />
<path d="M3.5080 1.0590
L3.5000 1.0510
" />
<path d="M3.5080 5.3360
L3.5160 5.3280
" />
<path d="M3.5160 1.0700
L3.5080 1.0590
" />
<path d="M3.5160 5.3280
L3.5230 5.3190
" />
<path d="M3.5230 1.0790
L3.5160 1.0700
" />
<path d="M3.5230 5.3190
L3.5310 5.3080
" />
<path d="M3.5310 1.0900
L3.5230 1.0790
" />
<path d="M3.5310 5.3080
L3.5370 5.2960
" />
<path d="M3.5370 1.0990
L3.5310 1.0900
" />
<path d="M3.5370 5.2960
L3.5430 5.2880
" />
<path d="M3.5430 1.1110
L3.5370 1.0990
" />
<path d="M3.5430 5.2880
L3.5490 5.2760
" />
<path d="M3.5490 1.1220
L3.5430 1.1110
" />
<path d="M3.5490 5.2760
L3.5550 5.2640
" />
<path d="M3.5550 1.1340
L3.5490 1.1220
" />
<path d="M3.5550 5.2640
L3.5590 5.2520
" />
<path d="M3.5590 1.1430
L3.5550 1.1340
" />
<path d="M3.5590 5.2520
L3.5630 5.2420
" />
<path d="M3.5630 1.1560
L3.5590 1.1430
" />
<path d="M3.5630 5.2420
L3.5650 5.2300
" />
<path d="M3.5650 1.1680
L3.5630 1.1560
" />
<path d="M3.5650 5.2300
L3.5690 5.2180
" />
<path d="M3.5690 1.1800
L3.5650 1.1680
" />
<path d="M3.5690 5.2180
L3.5710 5.2060
" />
<path d="M3.5710 1.1920
L3.5690 1.1800
" />
<path d="M3.5710 5.2060
L3.5730 5.1930
" />
<path d="M3.5730 1.2060
L3.5710 1.1920
" />
<path d="M3.5730 1.2180
L3.5730 1.2060
" />
<path d="M3.5730 1.2300
L3.5730 1.2180
" />
<path d="M3.5730 1.2300
L3.5730 5.1670
" />
<path d="M3.5730 5.1810
L3.5730 5.1670
" />
<path d="M3.5730 5.1930
L3.5730 5.1810
" />
<path d="M3.7000 1.0020
L3.3960 0.7000
" />
<path d="M3.7000 1.0020
L3.7000 5.3930
" />
</g> 
</svg>
