<?xml version="1.0" standalone="no"?>
 <!DOCTYPE svg PUBLIC "-//W3C//DTD SVG 1.1//EN" 
 "http://www.w3.org/Graphics/SVG/1.1/DTD/svg11.dtd"> 
<svg
  xmlns:svg="http://www.w3.org/2000/svg"
  xmlns="http://www.w3.org/2000/svg"
  xmlns:xlink="http://www.w3.org/1999/xlink"
  version="1.1"
  width="9.6266mm" height="7.1374mm" viewBox="0.0000 0.0000 9.6266 7.1374">
<title>SVG Image created as outline.svg date 2025/04/04 10:06:37 </title>
  <desc>Image generated by PCBNEW </desc>
<g style="fill:#000000; fill-opacity:1.0000;stroke:#000000; stroke-opacity:1.0000;
stroke-linecap:round; stroke-linejoin:round;"
 transform="translate(0 0) scale(1 1)">
</g>
<g style="fill:none; 
stroke:#000000; stroke-width:0.0100; stroke-opacity:1; 
stroke-linecap:round; stroke-linejoin:round;">
<path d="M1.1750 3.2250
L1.5250 3.2250
" />
<path d="M1.1750 3.9250
L1.1750 3.2250
" />
<path d="M1.5250 1.6750
L1.5486 1.6848
" />
<path d="M1.5250 1.6750
L2.9250 0.2750
" />
<path d="M1.5250 3.9250
L1.1750 3.9250
" />
<path d="M1.5250 5.4750
L1.5250 1.6750
" />
<path d="M1.5250 5.4750
L1.5486 5.4652
" />
<path d="M1.5460 2.6028
L1.5466 2.5544
" />
<path d="M1.5460 4.5472
L1.5460 2.6028
" />
<path d="M1.5466 2.5544
L1.5475 2.5199
" />
<path d="M1.5466 4.5956
L1.5460 4.5472
" />
<path d="M1.5475 2.5199
L1.5481 2.4842
" />
<path d="M1.5475 4.6301
L1.5466 4.5956
" />
<path d="M1.5481 2.4842
L1.5485 2.4473
" />
<path d="M1.5481 4.6658
L1.5475 4.6301
" />
<path d="M1.5485 2.4473
L1.5486 2.4092
" />
<path d="M1.5485 4.7027
L1.5481 4.6658
" />
<path d="M1.5486 1.6848
L2.9348 0.2986
" />
<path d="M1.5486 2.4092
L1.5486 1.6848
" />
<path d="M1.5486 4.7408
L1.5485 4.7027
" />
<path d="M1.5486 5.4652
L1.5486 4.7408
" />
<path d="M2.9250 0.2750
L2.9348 0.2986
" />
<path d="M2.9250 0.2750
L3.8250 0.2750
" />
<path d="M2.9250 6.8750
L1.5250 5.4750
" />
<path d="M2.9250 6.8750
L2.9348 6.8514
" />
<path d="M2.9348 0.2986
L3.5167 0.2986
" />
<path d="M2.9348 6.8514
L1.5486 5.4652
" />
<path d="M3.5167 0.2986
L3.5698 0.2983
" />
<path d="M3.5167 6.8514
L2.9348 6.8514
" />
<path d="M3.5698 0.2983
L3.6240 0.2975
" />
<path d="M3.5698 6.8517
L3.5167 6.8514
" />
<path d="M3.6240 0.2975
L3.6762 0.2962
" />
<path d="M3.6240 6.8525
L3.5698 6.8517
" />
<path d="M3.6762 0.2962
L3.7232 0.2943
" />
<path d="M3.6762 6.8538
L3.6240 6.8525
" />
</g>
<g style="fill:#000000; fill-opacity:1.0000; stroke:none;">
<circle cx="3.7232" cy="0.2943" r="0.0050" /> 
</g>
<g style="fill:none; 
stroke:#000000; stroke-width:0.0100; stroke-opacity:1; 
stroke-linecap:round; stroke-linejoin:round;">
<path d="M3.7232 0.2943
L3.7441 0.2931
" />
<path d="M3.7232 6.8557
L3.6762 6.8538
" />
</g>
<g style="fill:#000000; fill-opacity:1.0000; stroke:none;">
<circle cx="3.7232" cy="6.8557" r="0.0050" /> 
</g>
<g style="fill:none; 
stroke:#000000; stroke-width:0.0100; stroke-opacity:1; 
stroke-linecap:round; stroke-linejoin:round;">
<path d="M3.7441 0.2931
L3.7623 0.2918
" />
<path d="M3.7441 6.8569
L3.7232 6.8557
" />
<path d="M3.7623 0.2918
L3.7779 0.2905
" />
<path d="M3.7623 6.8582
L3.7441 6.8569
" />
<path d="M3.7779 0.2905
L3.7908 0.2892
" />
<path d="M3.7779 6.8595
L3.7623 6.8582
" />
<path d="M3.7847 6.8601
L3.7779 6.8595
" />
<path d="M3.7908 0.2892
L3.8011 0.2879
" />
<path d="M3.7908 6.8608
L3.7847 6.8601
" />
<path d="M3.7963 6.8614
L3.7908 6.8608
" />
<path d="M3.8011 0.2879
L3.8088 0.2865
" />
<path d="M3.8011 6.8621
L3.7963 6.8614
" />
<path d="M3.8053 6.8628
L3.8011 6.8621
" />
<path d="M3.8088 0.2865
L3.8117 0.2858
" />
<path d="M3.8088 6.8635
L3.8053 6.8628
" />
<path d="M3.8117 0.2858
L3.8139 0.2851
" />
<path d="M3.8117 6.8642
L3.8088 6.8635
" />
<path d="M3.8139 0.2851
L3.8154 0.2844
" />
<path d="M3.8139 6.8649
L3.8117 6.8642
" />
<path d="M3.8147 6.8652
L3.8139 6.8649
" />
<path d="M3.8154 0.2844
L3.8163 0.2837
" />
<path d="M3.8154 6.8656
L3.8147 6.8652
" />
<path d="M3.8160 6.8660
L3.8154 6.8656
" />
<path d="M3.8163 6.8663
L3.8160 6.8660
" />
<path d="M3.8163 6.8663
L3.8250 6.8750
" />
<path d="M3.8200 0.2950
L3.8201 0.2953
" />
<path d="M3.8201 0.2953
L3.8204 0.2955
" />
<path d="M3.8201 6.8547
L3.8200 6.8550
" />
<path d="M3.8204 0.2955
L3.8219 0.2960
" />
<path d="M3.8204 6.8545
L3.8201 6.8547
" />
<path d="M3.8219 0.2960
L3.8246 0.2964
" />
<path d="M3.8219 6.8540
L3.8204 6.8545
" />
<path d="M3.8246 0.2964
L3.8283 0.2969
" />
<path d="M3.8250 0.2750
L3.8163 0.2837
" />
<path d="M3.8250 0.2750
L3.8250 0.2964
" />
<path d="M3.8250 6.8536
L3.8250 6.8750
" />
<path d="M3.8250 6.8750
L2.9250 6.8750
" />
<path d="M3.8283 0.2969
L3.8384 0.2978
" />
<path d="M3.8283 6.8531
L3.8219 6.8540
" />
<path d="M3.8384 0.2978
L3.8515 0.2985
" />
<path d="M3.8384 6.8522
L3.8283 6.8531
" />
<path d="M3.8515 0.2985
L3.8669 0.2992
" />
<path d="M3.8515 6.8515
L3.8384 6.8522
" />
<path d="M3.8669 0.2992
L3.8839 0.2997
" />
<path d="M3.8669 6.8508
L3.8515 6.8515
" />
<path d="M3.8839 0.2997
L3.9018 0.2999
" />
<path d="M3.8839 6.8503
L3.8669 6.8508
" />
<path d="M3.9018 0.2999
L3.9199 0.3000
" />
<path d="M3.9018 6.8500
L3.8839 6.8503
" />
<path d="M3.9199 0.3000
L5.7301 0.3000
" />
<path d="M3.9199 6.8500
L3.9018 6.8500
" />
<path d="M5.7301 0.3000
L5.7482 0.2999
" />
<path d="M5.7301 6.8500
L3.9199 6.8500
" />
<path d="M5.7482 0.2999
L5.7661 0.2997
" />
<path d="M5.7482 6.8500
L5.7301 6.8500
" />
<path d="M5.7661 0.2997
L5.7831 0.2992
" />
<path d="M5.7661 6.8503
L5.7482 6.8500
" />
<path d="M5.7831 0.2992
L5.7985 0.2985
" />
<path d="M5.7831 6.8508
L5.7661 6.8503
" />
<path d="M5.7985 0.2985
L5.8116 0.2978
" />
<path d="M5.7985 6.8515
L5.7831 6.8508
" />
<path d="M5.8116 0.2978
L5.8217 0.2969
" />
<path d="M5.8116 6.8522
L5.7985 6.8515
" />
<path d="M5.8217 0.2969
L5.8281 0.2960
" />
<path d="M5.8217 6.8531
L5.8116 6.8522
" />
<path d="M5.8250 0.2750
L5.8250 0.2964
" />
<path d="M5.8250 6.8536
L5.8250 6.8750
" />
<path d="M5.8250 6.8750
L5.8678 6.8322
" />
<path d="M5.8250 6.8750
L7.6250 6.8750
" />
<path d="M5.8254 6.8536
L5.8217 6.8531
" />
<path d="M5.8281 0.2960
L5.8296 0.2955
" />
<path d="M5.8281 6.8540
L5.8254 6.8536
" />
<path d="M5.8296 0.2955
L5.8299 0.2953
" />
<path d="M5.8296 6.8545
L5.8281 6.8540
" />
<path d="M5.8299 0.2953
L5.8300 0.2950
" />
<path d="M5.8299 6.8547
L5.8296 6.8545
" />
<path d="M5.8300 6.8550
L5.8299 6.8547
" />
<path d="M5.8678 0.3177
L5.8250 0.2750
" />
<path d="M5.8678 0.3177
L5.8681 0.3181
" />
<path d="M5.8681 0.3181
L5.8686 0.3185
" />
<path d="M5.8686 0.3185
L5.8693 0.3188
" />
<path d="M5.8686 6.8315
L5.8678 6.8322
" />
<path d="M5.8693 0.3188
L5.8702 0.3192
" />
<path d="M5.8702 0.3192
L5.8724 0.3199
" />
<path d="M5.8702 6.8308
L5.8686 6.8315
" />
<path d="M5.8724 0.3199
L5.8752 0.3206
" />
<path d="M5.8724 6.8301
L5.8702 6.8308
" />
<path d="M5.8752 0.3206
L5.8788 0.3213
" />
<path d="M5.8752 6.8294
L5.8724 6.8301
" />
<path d="M5.8788 0.3213
L5.8829 0.3220
" />
<path d="M5.8829 0.3220
L5.8878 0.3226
" />
<path d="M5.8829 6.8280
L5.8752 6.8294
" />
<path d="M5.8878 0.3226
L5.8933 0.3233
" />
<path d="M5.8933 0.3233
L5.8994 0.3240
" />
<path d="M5.8933 6.8267
L5.8829 6.8280
" />
<path d="M5.8994 0.3240
L5.9062 0.3246
" />
<path d="M5.9062 0.3246
L5.9218 0.3259
" />
<path d="M5.9062 6.8254
L5.8933 6.8267
" />
<path d="M5.9218 0.3259
L5.9400 0.3271
" />
<path d="M5.9218 6.8241
L5.9062 6.8254
" />
<path d="M5.9400 0.3271
L5.9608 0.3283
" />
<path d="M5.9400 6.8229
L5.9218 6.8241
" />
</g>
<g style="fill:#000000; fill-opacity:1.0000; stroke:none;">
<circle cx="5.9608" cy="0.3283" r="0.0050" /> 
</g>
<g style="fill:none; 
stroke:#000000; stroke-width:0.0100; stroke-opacity:1; 
stroke-linecap:round; stroke-linejoin:round;">
<path d="M5.9608 0.3283
L6.0079 0.3302
" />
<path d="M5.9608 6.8217
L5.9400 6.8229
" />
</g>
<g style="fill:#000000; fill-opacity:1.0000; stroke:none;">
<circle cx="5.9608" cy="6.8217" r="0.0050" /> 
</g>
<g style="fill:none; 
stroke:#000000; stroke-width:0.0100; stroke-opacity:1; 
stroke-linecap:round; stroke-linejoin:round;">
<path d="M6.0079 0.3302
L6.0601 0.3316
" />
<path d="M6.0079 6.8198
L5.9608 6.8217
" />
<path d="M6.0601 0.3316
L6.1143 0.3324
" />
<path d="M6.0601 6.8184
L6.0079 6.8198
" />
<path d="M6.1143 0.3324
L6.1673 0.3327
" />
<path d="M6.1143 6.8176
L6.0601 6.8184
" />
<path d="M6.1673 0.3327
L7.6250 0.3327
" />
<path d="M6.1673 6.8173
L6.1143 6.8176
" />
<path d="M7.6250 0.2750
L5.8250 0.2750
" />
<path d="M7.6250 0.3327
L7.6478 0.3332
" />
<path d="M7.6250 6.8173
L6.1673 6.8173
" />
<path d="M7.6250 6.8750
L7.6498 6.8744
" />
<path d="M7.6478 0.3332
L7.6702 0.3349
" />
<path d="M7.6478 6.8168
L7.6250 6.8173
" />
<path d="M7.6498 0.2756
L7.6250 0.2750
" />
<path d="M7.6498 6.8744
L7.6744 6.8726
" />
<path d="M7.6702 0.3349
L7.6924 0.3377
" />
<path d="M7.6702 6.8151
L7.6478 6.8168
" />
<path d="M7.6744 0.2774
L7.6498 0.2756
" />
<path d="M7.6744 6.8726
L7.6988 6.8695
" />
<path d="M7.6924 0.3377
L7.7141 0.3416
" />
<path d="M7.6924 6.8123
L7.6702 6.8151
" />
<path d="M7.6988 0.2805
L7.6744 0.2774
" />
<path d="M7.6988 6.8695
L7.7230 6.8653
" />
<path d="M7.7141 0.3416
L7.7355 0.3466
" />
<path d="M7.7142 6.8084
L7.6924 6.8123
" />
<path d="M7.7230 0.2847
L7.6988 0.2805
" />
<path d="M7.7230 6.8653
L7.7469 6.8599
" />
<path d="M7.7355 0.3466
L7.7565 0.3525
" />
<path d="M7.7356 6.8034
L7.7142 6.8084
" />
<path d="M7.7469 0.2901
L7.7230 0.2847
" />
<path d="M7.7469 6.8599
L7.7704 6.8534
" />
<path d="M7.7565 0.3525
L7.7771 0.3595
" />
<path d="M7.7565 6.7975
L7.7356 6.8034
" />
<path d="M7.7704 0.2966
L7.7469 0.2901
" />
<path d="M7.7704 6.8534
L7.7936 6.8457
" />
<path d="M7.7771 0.3595
L7.7972 0.3674
" />
<path d="M7.7771 6.7905
L7.7565 6.7975
" />
<path d="M7.7936 0.3043
L7.7704 0.2966
" />
<path d="M7.7936 6.8457
L7.8163 6.8369
" />
<path d="M7.7972 0.3674
L7.8168 0.3763
" />
<path d="M7.7972 6.7826
L7.7771 6.7905
" />
<path d="M7.8163 0.3131
L7.7936 0.3043
" />
<path d="M7.8163 6.8369
L7.8386 6.8271
" />
<path d="M7.8168 0.3763
L7.8358 0.3860
" />
<path d="M7.8168 6.7737
L7.7972 6.7826
" />
<path d="M7.8358 0.3860
L7.8544 0.3967
" />
<path d="M7.8359 6.7640
L7.8168 6.7737
" />
<path d="M7.8386 0.3229
L7.8163 0.3131
" />
<path d="M7.8386 6.8271
L7.8604 6.8161
" />
<path d="M7.8544 0.3967
L7.8723 0.4082
" />
<path d="M7.8544 6.7533
L7.8359 6.7640
" />
<path d="M7.8604 0.3339
L7.8386 0.3229
" />
<path d="M7.8604 6.8161
L7.8817 6.8041
" />
<path d="M7.8723 0.4082
L7.8897 0.4205
" />
<path d="M7.8723 6.7418
L7.8544 6.7533
" />
<path d="M7.8817 0.3459
L7.8604 0.3339
" />
<path d="M7.8817 6.8041
L7.9024 6.7910
" />
<path d="M7.8897 0.4205
L7.9064 0.4337
" />
<path d="M7.8897 6.7295
L7.8723 6.7418
" />
<path d="M7.9024 0.3590
L7.8817 0.3459
" />
<path d="M7.9024 6.7910
L7.9225 6.7769
" />
<path d="M7.9064 0.4337
L7.9224 0.4476
" />
<path d="M7.9064 6.7163
L7.8897 6.7295
" />
<path d="M7.9224 0.4476
L7.9378 0.4622
" />
<path d="M7.9224 6.7024
L7.9064 6.7163
" />
<path d="M7.9225 0.3731
L7.9024 0.3590
" />
<path d="M7.9225 6.7769
L7.9419 6.7618
" />
<path d="M7.9378 0.4622
L7.9524 0.4776
" />
<path d="M7.9378 6.6878
L7.9224 6.7024
" />
<path d="M7.9419 0.3882
L7.9225 0.3731
" />
<path d="M7.9419 6.7618
L7.9606 6.7456
" />
<path d="M7.9524 0.4776
L7.9663 0.4936
" />
<path d="M7.9524 6.6724
L7.9378 6.6878
" />
<path d="M7.9606 0.4043
L7.9419 0.3882
" />
<path d="M7.9606 6.7456
L7.9786 6.7286
" />
<path d="M7.9663 0.4936
L7.9795 0.5103
" />
<path d="M7.9663 6.6564
L7.9524 6.6724
" />
<path d="M7.9786 0.4214
L7.9606 0.4043
" />
</g>
<g style="fill:#000000; fill-opacity:1.0000; stroke:none;">
<circle cx="7.9786" cy="0.4214" r="0.0050" /> 
<circle cx="7.9786" cy="6.7286" r="0.0050" /> 
</g>
<g style="fill:none; 
stroke:#000000; stroke-width:0.0100; stroke-opacity:1; 
stroke-linecap:round; stroke-linejoin:round;">
<path d="M7.9786 6.7286
L7.9956 6.7106
" />
<path d="M7.9795 0.5103
L7.9918 0.5277
" />
<path d="M7.9795 6.6397
L7.9663 6.6564
" />
<path d="M7.9918 0.5277
L8.0033 0.5456
" />
<path d="M7.9918 6.6223
L7.9795 6.6397
" />
<path d="M7.9956 0.4394
L7.9786 0.4214
" />
<path d="M7.9956 6.7106
L8.0118 6.6919
" />
<path d="M8.0033 0.5456
L8.0140 0.5641
" />
<path d="M8.0033 6.6044
L7.9918 6.6223
" />
<path d="M8.0118 0.4581
L7.9956 0.4394
" />
<path d="M8.0118 6.6919
L8.0269 6.6725
" />
<path d="M8.0140 0.5641
L8.0237 0.5832
" />
<path d="M8.0140 6.5858
L8.0033 6.6044
" />
<path d="M8.0237 0.5832
L8.0326 0.6028
" />
<path d="M8.0237 6.5668
L8.0140 6.5858
" />
<path d="M8.0269 0.4775
L8.0118 0.4581
" />
<path d="M8.0269 6.6725
L8.0410 6.6524
" />
<path d="M8.0326 0.6028
L8.0405 0.6229
" />
<path d="M8.0326 6.5472
L8.0237 6.5668
" />
<path d="M8.0405 0.6229
L8.0475 0.6435
" />
<path d="M8.0405 6.5271
L8.0326 6.5472
" />
<path d="M8.0410 0.4976
L8.0269 0.4775
" />
<path d="M8.0410 6.6524
L8.0541 6.6317
" />
<path d="M8.0475 0.6435
L8.0534 0.6644
" />
<path d="M8.0475 6.5065
L8.0405 6.5271
" />
<path d="M8.0534 0.6644
L8.0584 0.6859
" />
<path d="M8.0534 6.4855
L8.0475 6.5065
" />
<path d="M8.0541 0.5183
L8.0410 0.4976
" />
<path d="M8.0541 6.6317
L8.0661 6.6104
" />
<path d="M8.0584 0.6859
L8.0623 0.7076
" />
<path d="M8.0584 6.4641
L8.0534 6.4855
" />
<path d="M8.0623 0.7076
L8.0651 0.7298
" />
<path d="M8.0623 6.4424
L8.0584 6.4641
" />
<path d="M8.0651 0.7298
L8.0668 0.7522
" />
<path d="M8.0651 6.4202
L8.0623 6.4424
" />
<path d="M8.0661 0.5396
L8.0541 0.5183
" />
<path d="M8.0661 6.6104
L8.0771 6.5886
" />
<path d="M8.0668 0.7522
L8.0673 0.7750
" />
<path d="M8.0668 6.3978
L8.0651 6.4202
" />
<path d="M8.0673 0.7750
L8.0673 2.2327
" />
<path d="M8.0673 2.2327
L8.0676 2.2857
" />
<path d="M8.0673 4.9173
L8.0673 6.3750
" />
<path d="M8.0673 6.3750
L8.0668 6.3978
" />
<path d="M8.0676 2.2857
L8.0684 2.3399
" />
<path d="M8.0676 4.8643
L8.0673 4.9173
" />
<path d="M8.0684 2.3399
L8.0698 2.3921
" />
<path d="M8.0684 4.8101
L8.0676 4.8643
" />
<path d="M8.0698 2.3921
L8.0717 2.4392
" />
<path d="M8.0698 4.7579
L8.0684 4.8101
" />
</g>
<g style="fill:#000000; fill-opacity:1.0000; stroke:none;">
<circle cx="8.0717" cy="2.4392" r="0.0050" /> 
</g>
<g style="fill:none; 
stroke:#000000; stroke-width:0.0100; stroke-opacity:1; 
stroke-linecap:round; stroke-linejoin:round;">
<path d="M8.0717 2.4392
L8.0729 2.4600
" />
<path d="M8.0717 4.7108
L8.0698 4.7579
" />
</g>
<g style="fill:#000000; fill-opacity:1.0000; stroke:none;">
<circle cx="8.0717" cy="4.7108" r="0.0050" /> 
</g>
<g style="fill:none; 
stroke:#000000; stroke-width:0.0100; stroke-opacity:1; 
stroke-linecap:round; stroke-linejoin:round;">
<path d="M8.0729 2.4600
L8.0741 2.4782
" />
<path d="M8.0729 4.6900
L8.0717 4.7108
" />
<path d="M8.0741 2.4782
L8.0754 2.4938
" />
<path d="M8.0741 4.6718
L8.0729 4.6900
" />
<path d="M8.0754 2.4938
L8.0767 2.5067
" />
<path d="M8.0754 4.6562
L8.0741 4.6718
" />
<path d="M8.0760 4.6494
L8.0754 4.6562
" />
<path d="M8.0767 2.5067
L8.0780 2.5171
" />
<path d="M8.0767 4.6433
L8.0760 4.6494
" />
<path d="M8.0771 0.5614
L8.0661 0.5396
" />
<path d="M8.0771 6.5886
L8.0869 6.5663
" />
<path d="M8.0774 4.6378
L8.0767 4.6433
" />
<path d="M8.0780 2.5171
L8.0794 2.5248
" />
<path d="M8.0780 4.6329
L8.0774 4.6378
" />
<path d="M8.0787 4.6288
L8.0780 4.6329
" />
<path d="M8.0794 2.5248
L8.0801 2.5276
" />
<path d="M8.0794 4.6252
L8.0787 4.6288
" />
<path d="M8.0801 2.5276
L8.0808 2.5298
" />
<path d="M8.0801 4.6224
L8.0794 4.6252
" />
<path d="M8.0808 2.5298
L8.0815 2.5314
" />
<path d="M8.0808 4.6202
L8.0801 4.6224
" />
<path d="M8.0812 4.6193
L8.0808 4.6202
" />
<path d="M8.0815 2.5314
L8.0823 2.5322
" />
<path d="M8.0815 4.6186
L8.0812 4.6193
" />
<path d="M8.0819 4.6181
L8.0815 4.6186
" />
<path d="M8.0823 2.5322
L8.0991 2.5491
" />
<path d="M8.0823 4.6178
L8.0819 4.6181
" />
<path d="M8.0869 0.5837
L8.0771 0.5614
" />
<path d="M8.0869 6.5663
L8.0957 6.5436
" />
<path d="M8.0957 0.6064
L8.0869 0.5837
" />
<path d="M8.0957 6.5436
L8.1034 6.5204
" />
<path d="M8.0991 2.5491
L8.0993 2.5491
" />
<path d="M8.0991 4.6009
L8.0823 4.6178
" />
<path d="M8.0993 2.5491
L8.0995 2.5494
" />
<path d="M8.0993 4.6009
L8.0991 4.6009
" />
<path d="M8.0995 2.5494
L8.1000 2.5510
" />
<path d="M8.0995 4.6006
L8.0993 4.6009
" />
<path d="M8.1000 2.5510
L8.1005 2.5536
" />
<path d="M8.1000 4.5990
L8.0995 4.6006
" />
<path d="M8.1005 2.5536
L8.1009 2.5573
" />
<path d="M8.1009 2.5573
L8.1018 2.5674
" />
<path d="M8.1009 4.5927
L8.1000 4.5990
" />
<path d="M8.1018 2.5674
L8.1026 2.5805
" />
<path d="M8.1018 4.5826
L8.1009 4.5927
" />
<path d="M8.1026 2.5805
L8.1032 2.5959
" />
<path d="M8.1026 4.5695
L8.1018 4.5826
" />
<path d="M8.1032 2.5959
L8.1037 2.6129
" />
<path d="M8.1032 4.5541
L8.1026 4.5695
" />
<path d="M8.1034 0.6296
L8.0957 0.6064
" />
<path d="M8.1034 6.5204
L8.1099 6.4969
" />
<path d="M8.1037 2.6129
L8.1040 2.6308
" />
<path d="M8.1037 4.5371
L8.1032 4.5541
" />
<path d="M8.1040 2.6308
L8.1040 2.6489
" />
<path d="M8.1040 4.5192
L8.1037 4.5371
" />
<path d="M8.1040 2.6489
L8.1040 4.5011
" />
<path d="M8.1040 4.5011
L8.1040 4.5192
" />
<path d="M8.1099 0.6531
L8.1034 0.6296
" />
<path d="M8.1099 6.4969
L8.1153 6.4730
" />
<path d="M8.1153 0.6770
L8.1099 0.6531
" />
<path d="M8.1153 6.4730
L8.1195 6.4488
" />
<path d="M8.1195 0.7012
L8.1153 0.6770
" />
<path d="M8.1195 6.4488
L8.1226 6.4244
" />
<path d="M8.1226 0.7256
L8.1195 0.7012
" />
<path d="M8.1226 6.4244
L8.1244 6.3998
" />
<path d="M8.1244 0.7502
L8.1226 0.7256
" />
<path d="M8.1244 6.3998
L8.1250 6.3750
" />
<path d="M8.1250 0.7750
L8.1244 0.7502
" />
<path d="M8.1250 3.2250
L8.4750 3.2250
" />
<path d="M8.1250 6.3750
L8.1250 0.7750
" />
<path d="M8.4750 3.2250
L8.4750 3.9250
" />
<path d="M8.4750 3.9250
L8.1250 3.9250
" />
</g>
<g style="fill:none; 
stroke:#000000; stroke-width:0.0090; stroke-opacity:1; 
stroke-linecap:round; stroke-linejoin:round;">
<circle cx="4.8250" cy="3.5750" r="3.1500" /> 
</g> 
</svg>
