<?xml version="1.0" standalone="no"?>
 <!DOCTYPE svg PUBLIC "-//W3C//DTD SVG 1.1//EN" 
 "http://www.w3.org/Graphics/SVG/1.1/DTD/svg11.dtd"> 
<svg
  xmlns:svg="http://www.w3.org/2000/svg"
  xmlns="http://www.w3.org/2000/svg"
  xmlns:xlink="http://www.w3.org/1999/xlink"
  version="1.1"
  width="1.7272mm" height="1.2446mm" viewBox="0.0000 0.0000 1.7272 1.2446">
<title>SVG Image created as outline.svg date 2025/06/16 09:18:11 </title>
  <desc>Image generated by PCBNEW </desc>
<g style="fill:#000000; fill-opacity:1.0000;stroke:#000000; stroke-opacity:1.0000;
stroke-linecap:round; stroke-linejoin:round;"
 transform="translate(0 0) scale(1 1)">
</g>
<g style="fill:none; 
stroke:#000000; stroke-width:0.0200; stroke-opacity:1; 
stroke-linecap:round; stroke-linejoin:round;">
<path d="M0.4250 0.2000
L0.4250 0.3500
" />
<path d="M0.4250 0.3500
L0.5320 0.3500
" />
<path d="M0.4250 0.9000
L0.4250 1.0500
" />
<path d="M0.4250 1.0500
L0.5320 1.0500
" />
<path d="M0.5250 0.1510
L0.5250 0.2000
" />
<path d="M0.5250 0.1510
L0.5260 0.1490
" />
<path d="M0.5250 0.3500
L0.5250 0.9000
" />
<path d="M0.5250 1.0500
L0.5250 1.0990
" />
<path d="M0.5260 0.1450
L0.5270 0.1440
" />
<path d="M0.5260 0.1470
L0.5260 0.1450
" />
<path d="M0.5260 0.1490
L0.5260 0.1470
" />
<path d="M0.5260 1.1010
L0.5250 1.0990
" />
<path d="M0.5260 1.1030
L0.5260 1.1010
" />
<path d="M0.5260 1.1050
L0.5260 1.1030
" />
<path d="M0.5270 0.1410
L0.5280 0.1400
" />
<path d="M0.5270 0.1430
L0.5270 0.1410
" />
<path d="M0.5270 0.1440
L0.5270 0.1430
" />
<path d="M0.5270 1.1060
L0.5260 1.1050
" />
<path d="M0.5270 1.1070
L0.5270 1.1060
" />
<path d="M0.5270 1.1090
L0.5270 1.1070
" />
<path d="M0.5280 0.1390
L0.5290 0.1380
" />
<path d="M0.5280 0.1400
L0.5280 0.1390
" />
<path d="M0.5280 1.1100
L0.5270 1.1090
" />
<path d="M0.5280 1.1110
L0.5280 1.1100
" />
<path d="M0.5290 0.1370
L0.5300 0.1360
" />
<path d="M0.5290 0.1380
L0.5290 0.1370
" />
<path d="M0.5290 1.1120
L0.5280 1.1110
" />
<path d="M0.5290 1.1130
L0.5290 1.1120
" />
<path d="M0.5300 0.1360
L0.5310 0.1350
" />
<path d="M0.5300 1.1140
L0.5290 1.1130
" />
<path d="M0.5310 0.1340
L0.5320 0.1330
" />
<path d="M0.5310 0.1350
L0.5310 0.1340
" />
<path d="M0.5310 1.1150
L0.5300 1.1140
" />
<path d="M0.5310 1.1160
L0.5310 1.1150
" />
<path d="M0.5320 0.1330
L0.5330 0.1330
" />
<path d="M0.5320 0.2000
L0.4250 0.2000
" />
<path d="M0.5320 0.2000
L0.5320 0.3500
" />
<path d="M0.5320 0.9000
L0.4250 0.9000
" />
<path d="M0.5320 0.9000
L0.5320 1.0500
" />
<path d="M0.5320 1.1170
L0.5310 1.1160
" />
<path d="M0.5330 0.1320
L0.5340 0.1310
" />
<path d="M0.5330 0.1330
L0.5330 0.1320
" />
<path d="M0.5330 1.1170
L0.5320 1.1170
" />
<path d="M0.5330 1.1180
L0.5330 1.1170
" />
<path d="M0.5340 0.1310
L0.5350 0.1310
" />
<path d="M0.5340 1.1190
L0.5330 1.1180
" />
<path d="M0.5350 0.1310
L0.5360 0.1300
" />
<path d="M0.5350 1.1190
L0.5340 1.1190
" />
<path d="M0.5360 0.1300
L0.5370 0.1290
" />
<path d="M0.5360 1.1200
L0.5350 1.1190
" />
<path d="M0.5370 0.1290
L0.5380 0.1290
" />
<path d="M0.5370 1.1210
L0.5360 1.1200
" />
<path d="M0.5380 0.1290
L0.5390 0.1280
" />
<path d="M0.5380 1.1210
L0.5370 1.1210
" />
<path d="M0.5390 0.1280
L0.5400 0.1280
" />
<path d="M0.5390 1.1220
L0.5380 1.1210
" />
<path d="M0.5400 0.1280
L0.5410 0.1270
" />
<path d="M0.5400 1.1220
L0.5390 1.1220
" />
<path d="M0.5410 0.1270
L0.5430 0.1270
" />
<path d="M0.5410 1.1230
L0.5400 1.1220
" />
<path d="M0.5430 0.1270
L0.5440 0.1270
" />
<path d="M0.5430 1.1230
L0.5410 1.1230
" />
<path d="M0.5440 0.1270
L0.5450 0.1260
" />
<path d="M0.5440 1.1230
L0.5430 1.1230
" />
<path d="M0.5450 0.1260
L0.5460 0.1260
" />
<path d="M0.5450 1.1240
L0.5440 1.1230
" />
<path d="M0.5460 0.1260
L0.5480 0.1260
" />
<path d="M0.5460 1.1240
L0.5450 1.1240
" />
<path d="M0.5480 0.1260
L0.5500 0.1250
" />
<path d="M0.5480 1.1240
L0.5460 1.1240
" />
<path d="M0.5500 0.1250
L1.3000 0.1250
" />
<path d="M0.5500 1.1250
L0.5480 1.1240
" />
<path d="M0.5500 1.1250
L1.3000 1.1250
" />
<path d="M0.5650 0.1830
L0.5650 0.1850
" />
<path d="M0.5650 0.1850
L0.5650 0.1860
" />
<path d="M0.5650 0.1860
L0.5650 0.1870
" />
<path d="M0.5650 0.1870
L0.5650 0.1880
" />
<path d="M0.5650 0.1880
L0.5650 0.1900
" />
<path d="M0.5650 1.0600
L0.5650 1.0620
" />
<path d="M0.5650 1.0620
L0.5650 1.0630
" />
<path d="M0.5650 1.0630
L0.5650 1.0640
" />
<path d="M0.5650 1.0640
L0.5650 1.0650
" />
<path d="M0.5650 1.0650
L0.5650 1.0670
" />
<path d="M0.5650 1.0670
L0.5660 1.0680
" />
<path d="M0.5660 0.1810
L0.5660 0.1820
" />
<path d="M0.5660 0.1820
L0.5650 0.1830
" />
<path d="M0.5660 1.0680
L0.5660 1.0690
" />
<path d="M0.5660 1.0690
L0.5670 1.0700
" />
<path d="M0.5670 0.1790
L0.5670 0.1800
" />
<path d="M0.5670 0.1800
L0.5660 0.1810
" />
<path d="M0.5670 1.0700
L0.5670 1.0710
" />
<path d="M0.5670 1.0710
L0.5680 1.0720
" />
<path d="M0.5680 0.1770
L0.5680 0.1780
" />
<path d="M0.5680 0.1780
L0.5670 0.1790
" />
<path d="M0.5680 1.0720
L0.5680 1.0730
" />
<path d="M0.5680 1.0730
L0.5690 1.0740
" />
<path d="M0.5690 0.1760
L0.5680 0.1770
" />
<path d="M0.5690 1.0740
L0.5700 1.0750
" />
<path d="M0.5700 0.1740
L0.5700 0.1750
" />
<path d="M0.5700 0.1750
L0.5690 0.1760
" />
<path d="M0.5700 1.0750
L0.5700 1.0760
" />
<path d="M0.5700 1.0760
L0.5710 1.0770
" />
<path d="M0.5710 0.1730
L0.5700 0.1740
" />
<path d="M0.5710 1.0770
L0.5720 1.0780
" />
<path d="M0.5720 0.1720
L0.5710 0.1730
" />
<path d="M0.5720 1.0780
L0.5730 1.0790
" />
<path d="M0.5730 0.1710
L0.5720 0.1720
" />
<path d="M0.5730 1.0790
L0.5750 1.0800
" />
<path d="M0.5750 0.1700
L0.5730 0.1710
" />
<path d="M0.5750 1.0800
L0.5760 1.0800
" />
<path d="M0.5760 0.1700
L0.5750 0.1700
" />
<path d="M0.5760 1.0800
L0.5770 1.0810
" />
<path d="M0.5770 0.1690
L0.5760 0.1700
" />
<path d="M0.5770 1.0810
L0.5780 1.0820
" />
<path d="M0.5780 0.1680
L0.5770 0.1690
" />
<path d="M0.5780 1.0820
L0.5790 1.0820
" />
<path d="M0.5790 0.1680
L0.5780 0.1680
" />
<path d="M0.5790 1.0820
L0.5800 1.0830
" />
<path d="M0.5800 0.1670
L0.5790 0.1680
" />
<path d="M0.5800 1.0830
L0.5810 1.0830
" />
<path d="M0.5810 0.1670
L0.5800 0.1670
" />
<path d="M0.5810 1.0830
L0.5820 1.0840
" />
<path d="M0.5820 0.1660
L0.5810 0.1670
" />
</g>
<g style="fill:#000000; fill-opacity:1.0000; stroke:none;">
<circle cx="0.5820" cy="0.1660" r="0.0100" /> 
<circle cx="0.5820" cy="1.0840" r="0.0100" /> 
</g>
<g style="fill:none; 
stroke:#000000; stroke-width:0.0200; stroke-opacity:1; 
stroke-linecap:round; stroke-linejoin:round;">
<path d="M0.5820 1.0840
L0.5830 1.0850
" />
<path d="M0.5830 0.1650
L0.5820 0.1660
" />
<path d="M0.5830 1.0850
L0.5850 1.0850
" />
<path d="M0.5850 0.1650
L0.5830 0.1650
" />
<path d="M0.5850 1.0850
L0.5860 1.0850
" />
<path d="M0.5860 0.1650
L0.5850 0.1650
" />
<path d="M0.5860 1.0850
L0.5870 1.0850
" />
<path d="M0.5870 0.1650
L0.5860 0.1650
" />
<path d="M0.5870 1.0850
L0.5880 1.0850
" />
<path d="M0.5880 0.1650
L0.5870 0.1650
" />
<path d="M0.5880 1.0850
L0.5900 1.0850
" />
<path d="M0.5900 0.1650
L0.5880 0.1650
" />
<path d="M0.5900 0.1900
L0.5900 0.1650
" />
<path d="M0.5900 1.0600
L0.5650 1.0600
" />
<path d="M1.2600 0.1650
L1.2600 0.1900
" />
<path d="M1.2600 0.1900
L1.2850 0.1900
" />
<path d="M1.2600 1.0600
L1.2600 1.0850
" />
<path d="M1.2600 1.0850
L1.2620 1.0850
" />
<path d="M1.2620 1.0850
L1.2630 1.0850
" />
<path d="M1.2630 1.0850
L1.2640 1.0850
" />
<path d="M1.2640 1.0850
L1.2650 1.0850
" />
<path d="M1.2650 1.0850
L1.2670 1.0850
" />
<path d="M1.2670 1.0850
L1.2680 1.0840
" />
</g>
<g style="fill:#000000; fill-opacity:1.0000; stroke:none;">
<circle cx="1.2680" cy="1.0840" r="0.0100" /> 
</g>
<g style="fill:none; 
stroke:#000000; stroke-width:0.0200; stroke-opacity:1; 
stroke-linecap:round; stroke-linejoin:round;">
<path d="M1.2680 1.0840
L1.2690 1.0830
" />
<path d="M1.2690 1.0830
L1.2700 1.0830
" />
<path d="M1.2700 1.0830
L1.2710 1.0820
" />
<path d="M1.2710 1.0820
L1.2720 1.0820
" />
<path d="M1.2720 1.0820
L1.2730 1.0810
" />
<path d="M1.2730 1.0810
L1.2740 1.0800
" />
<path d="M1.2740 1.0800
L1.2750 1.0800
" />
<path d="M1.2750 1.0800
L1.2770 1.0790
" />
<path d="M1.2770 1.0790
L1.2780 1.0780
" />
<path d="M1.2780 1.0780
L1.2790 1.0770
" />
<path d="M1.2790 1.0770
L1.2800 1.0760
" />
<path d="M1.2800 1.0750
L1.2810 1.0740
" />
<path d="M1.2800 1.0760
L1.2800 1.0750
" />
<path d="M1.2810 1.0740
L1.2820 1.0730
" />
<path d="M1.2820 1.0720
L1.2830 1.0710
" />
<path d="M1.2820 1.0730
L1.2820 1.0720
" />
<path d="M1.2830 1.0700
L1.2840 1.0690
" />
<path d="M1.2830 1.0710
L1.2830 1.0700
" />
<path d="M1.2840 1.0680
L1.2850 1.0670
" />
<path d="M1.2840 1.0690
L1.2840 1.0680
" />
<path d="M1.2850 1.0620
L1.2850 1.0600
" />
<path d="M1.2850 1.0630
L1.2850 1.0620
" />
<path d="M1.2850 1.0640
L1.2850 1.0630
" />
<path d="M1.2850 1.0650
L1.2850 1.0640
" />
<path d="M1.2850 1.0670
L1.2850 1.0650
" />
<path d="M1.3000 0.1250
L1.3020 0.1260
" />
<path d="M1.3020 0.1260
L1.3040 0.1260
" />
<path d="M1.3020 1.1240
L1.3000 1.1250
" />
<path d="M1.3040 0.1260
L1.3050 0.1260
" />
<path d="M1.3040 1.1240
L1.3020 1.1240
" />
<path d="M1.3050 0.1260
L1.3060 0.1270
" />
<path d="M1.3050 1.1240
L1.3040 1.1240
" />
<path d="M1.3060 0.1270
L1.3070 0.1270
" />
<path d="M1.3060 1.1230
L1.3050 1.1240
" />
<path d="M1.3070 0.1270
L1.3090 0.1270
" />
<path d="M1.3070 1.1230
L1.3060 1.1230
" />
<path d="M1.3090 0.1270
L1.3100 0.1280
" />
<path d="M1.3090 1.1230
L1.3070 1.1230
" />
<path d="M1.3100 0.1280
L1.3110 0.1280
" />
<path d="M1.3100 1.1220
L1.3090 1.1230
" />
<path d="M1.3110 0.1280
L1.3120 0.1290
" />
<path d="M1.3110 1.1220
L1.3100 1.1220
" />
<path d="M1.3120 0.1290
L1.3130 0.1290
" />
<path d="M1.3120 1.1210
L1.3110 1.1220
" />
<path d="M1.3130 0.1290
L1.3140 0.1300
" />
<path d="M1.3130 1.1210
L1.3120 1.1210
" />
<path d="M1.3140 0.1300
L1.3150 0.1310
" />
<path d="M1.3140 1.1200
L1.3130 1.1210
" />
<path d="M1.3150 0.1310
L1.3160 0.1310
" />
<path d="M1.3150 1.1190
L1.3140 1.1200
" />
<path d="M1.3160 0.1310
L1.3170 0.1320
" />
<path d="M1.3160 1.1190
L1.3150 1.1190
" />
<path d="M1.3170 0.1320
L1.3170 0.1330
" />
<path d="M1.3170 0.1330
L1.3180 0.1330
" />
<path d="M1.3170 1.1170
L1.3170 1.1180
" />
<path d="M1.3170 1.1180
L1.3160 1.1190
" />
<path d="M1.3180 0.1330
L1.3190 0.1340
" />
<path d="M1.3180 0.5500
L1.3180 0.7000
" />
<path d="M1.3180 0.7000
L1.4250 0.7000
" />
<path d="M1.3180 1.1170
L1.3170 1.1170
" />
<path d="M1.3190 0.1340
L1.3190 0.1350
" />
<path d="M1.3190 0.1350
L1.3200 0.1360
" />
<path d="M1.3190 1.1150
L1.3190 1.1160
" />
<path d="M1.3190 1.1160
L1.3180 1.1170
" />
<path d="M1.3200 0.1360
L1.3210 0.1370
" />
<path d="M1.3200 1.1140
L1.3190 1.1150
" />
<path d="M1.3210 0.1370
L1.3210 0.1380
" />
<path d="M1.3210 0.1380
L1.3220 0.1390
" />
<path d="M1.3210 1.1120
L1.3210 1.1130
" />
<path d="M1.3210 1.1130
L1.3200 1.1140
" />
<path d="M1.3220 0.1390
L1.3220 0.1400
" />
<path d="M1.3220 0.1400
L1.3230 0.1410
" />
<path d="M1.3220 1.1100
L1.3220 1.1110
" />
<path d="M1.3220 1.1110
L1.3210 1.1120
" />
<path d="M1.3230 0.1410
L1.3230 0.1430
" />
<path d="M1.3230 0.1430
L1.3230 0.1440
" />
<path d="M1.3230 0.1440
L1.3240 0.1450
" />
<path d="M1.3230 1.1060
L1.3230 1.1070
" />
<path d="M1.3230 1.1070
L1.3230 1.1090
" />
<path d="M1.3230 1.1090
L1.3220 1.1100
" />
<path d="M1.3240 0.1450
L1.3240 0.1470
" />
<path d="M1.3240 0.1470
L1.3240 0.1490
" />
<path d="M1.3240 0.1490
L1.3250 0.1510
" />
<path d="M1.3240 1.1010
L1.3240 1.1030
" />
<path d="M1.3240 1.1030
L1.3240 1.1050
" />
<path d="M1.3240 1.1050
L1.3230 1.1060
" />
<path d="M1.3250 0.1510
L1.3250 0.5500
" />
<path d="M1.3250 0.7000
L1.3250 1.0990
" />
<path d="M1.3250 1.0990
L1.3240 1.1010
" />
<path d="M1.4250 0.5500
L1.3180 0.5500
" />
<path d="M1.4250 0.7000
L1.4250 0.5500
" />
</g> 
</svg>
