{
  "accessors": [
    {
      "bufferView": 0,
      "byteOffset": 0,
      "componentType": 5126,
      "normalized": false,
      "count": 151237,
      "type": "VEC3",
      "max": [
        12.80000114440918,
        1.9235544204711914,
        12.80000114440918
      ],
      "min": [
        -12.80000114440918,
        -5.960464477539062e-07,
        -12.80000114440918
      ]
    },
    {
      "bufferView": 0,
      "byteOffset": 12,
      "componentType": 5126,
      "normalized": false,
      "count": 151237,
      "type": "VEC3"
    },
    {
      "bufferView": 0,
      "byteOffset": 24,
      "componentType": 5126,
      "normalized": false,
      "count": 151237,
      "type": "VEC2"
    },
    {
      "bufferView": 0,
      "byteOffset": 32,
      "componentType": 5126,
      "normalized": false,
      "count": 151237,
      "type": "VEC2"
    },
    {
      "bufferView": 1,
      "byteOffset": 0,
      "componentType": 5125,
      "normalized": false,
      "count": 600645,
      "type": "SCALAR"
    },
    {
      "bufferView": 1,
      "byteOffset": 2402580,
      "componentType": 5123,
      "normalized": false,
      "count": 7992,
      "type": "SCALAR"
    },
    {
      "bufferView": 1,
      "byteOffset": 2418564,
      "componentType": 5123,
      "normalized": false,
      "count": 510,
      "type": "SCALAR"
    },
    {
      "bufferView": 1,
      "byteOffset": 2419584,
      "componentType": 5123,
      "normalized": false,
      "count": 3,
      "type": "SCALAR"
    },
    {
      "bufferView": 1,
      "byteOffset": 2419592,
      "componentType": 5123,
      "normalized": false,
      "count": 369,
      "type": "SCALAR"
    },
    {
      "bufferView": 1,
      "byteOffset": 2420332,
      "componentType": 5123,
      "normalized": false,
      "count": 24,
      "type": "SCALAR"
    },
    {
      "bufferView": 1,
      "byteOffset": 2420380,
      "componentType": 5123,
      "normalized": false,
      "count": 24,
      "type": "SCALAR"
    },
    {
      "bufferView": 1,
      "byteOffset": 2420428,
      "componentType": 5123,
      "normalized": false,
      "count": 6,
      "type": "SCALAR"
    },
    {
      "bufferView": 2,
      "byteOffset": 0,
      "componentType": 5126,
      "normalized": false,
      "count": 3072,
      "type": "VEC3",
      "max": [
        7.932439804077148,
        1.9236363172531128,
        10.52103328704834
      ],
      "min": [
        -9.566448211669922,
        1.4822275638580322,
        -10.623993873596191
      ]
    },
    {
      "bufferView": 2,
      "byteOffset": 12,
      "componentType": 5126,
      "normalized": false,
      "count": 3072,
      "type": "VEC3"
    },
    {
      "bufferView": 2,
      "byteOffset": 24,
      "componentType": 5126,
      "normalized": false,
      "count": 3072,
      "type": "VEC2"
    },
    {
      "bufferView": 2,
      "byteOffset": 32,
      "componentType": 5126,
      "normalized": false,
      "count": 3072,
      "type": "VEC2"
    },
    {
      "bufferView": 3,
      "byteOffset": 0,
      "componentType": 5126,
      "normalized": false,
      "count": 288,
      "type": "VEC3",
      "max": [
        8.381052017211914,
        1.4920939207077026,
        10.51633358001709
      ],
      "min": [
        -9.561323165893555,
        1.4881715774536133,
        -10.90390682220459
      ]
    },
    {
      "bufferView": 3,
      "byteOffset": 12,
      "componentType": 5126,
      "normalized": false,
      "count": 288,
      "type": "VEC3"
    },
    {
      "bufferView": 3,
      "byteOffset": 24,
      "componentType": 5126,
      "normalized": false,
      "count": 288,
      "type": "VEC2"
    },
    {
      "bufferView": 3,
      "byteOffset": 32,
      "componentType": 5126,
      "normalized": false,
      "count": 288,
      "type": "VEC2"
    },
    {
      "bufferView": 4,
      "byteOffset": 0,
      "componentType": 5126,
      "normalized": false,
      "count": 3,
      "type": "VEC3",
      "max": [
        -11.699999809265137,
        1.4800002574920654,
        -11.700000762939453
      ],
      "min": [
        -12.899999618530273,
        1.4800002574920654,
        -12.90000057220459
      ]
    },
    {
      "bufferView": 4,
      "byteOffset": 12,
      "componentType": 5126,
      "normalized": false,
      "count": 3,
      "type": "VEC3"
    },
    {
      "bufferView": 4,
      "byteOffset": 24,
      "componentType": 5126,
      "normalized": false,
      "count": 3,
      "type": "VEC2"
    },
    {
      "bufferView": 4,
      "byteOffset": 32,
      "componentType": 5126,
      "normalized": false,
      "count": 3,
      "type": "VEC2"
    },
    {
      "bufferView": 5,
      "byteOffset": 0,
      "componentType": 5126,
      "normalized": false,
      "count": 135,
      "type": "VEC3",
      "max": [
        13.5,
        1.6305615901947021,
        13.5
      ],
      "min": [
        -13.5,
        0.49999940395355225,
        -13.5
      ]
    },
    {
      "bufferView": 5,
      "byteOffset": 12,
      "componentType": 5126,
      "normalized": false,
      "count": 135,
      "type": "VEC3"
    },
    {
      "bufferView": 5,
      "byteOffset": 24,
      "componentType": 5126,
      "normalized": false,
      "count": 135,
      "type": "VEC2"
    },
    {
      "bufferView": 5,
      "byteOffset": 32,
      "componentType": 5126,
      "normalized": false,
      "count": 135,
      "type": "VEC2"
    },
    {
      "bufferView": 6,
      "byteOffset": 0,
      "componentType": 5126,
      "normalized": false,
      "count": 16,
      "type": "VEC3",
      "max": [
        4.376002311706543,
        2.5396859645843506,
        6.623729228973389
      ],
      "min": [
        -4.3763933181762695,
        1.6299996376037598,
        -6.623730182647705
      ]
    },
    {
      "bufferView": 6,
      "byteOffset": 12,
      "componentType": 5126,
      "normalized": false,
      "count": 16,
      "type": "VEC3"
    },
    {
      "bufferView": 6,
      "byteOffset": 24,
      "componentType": 5126,
      "normalized": false,
      "count": 16,
      "type": "VEC2"
    },
    {
      "bufferView": 6,
      "byteOffset": 32,
      "componentType": 5126,
      "normalized": false,
      "count": 16,
      "type": "VEC2"
    },
    {
      "bufferView": 7,
      "byteOffset": 0,
      "componentType": 5126,
      "normalized": false,
      "count": 16,
      "type": "VEC3",
      "max": [
        13.5,
        1.4805890321731567,
        13.5
      ],
      "min": [
        -13.5,
        0.49999940395355225,
        -13.5
      ]
    },
    {
      "bufferView": 7,
      "byteOffset": 12,
      "componentType": 5126,
      "normalized": false,
      "count": 16,
      "type": "VEC3"
    },
    {
      "bufferView": 7,
      "byteOffset": 24,
      "componentType": 5126,
      "normalized": false,
      "count": 16,
      "type": "VEC2"
    },
    {
      "bufferView": 7,
      "byteOffset": 32,
      "componentType": 5126,
      "normalized": false,
      "count": 16,
      "type": "VEC2"
    },
    {
      "bufferView": 8,
      "byteOffset": 0,
      "componentType": 5126,
      "normalized": false,
      "count": 4,
      "type": "VEC3",
      "max": [
        4.376002311706543,
        2.5399999618530273,
        6.623729228973389
      ],
      "min": [
        -4.3763933181762695,
        2.5399999618530273,
        -6.623730182647705
      ]
    },
    {
      "bufferView": 8,
      "byteOffset": 12,
      "componentType": 5126,
      "normalized": false,
      "count": 4,
      "type": "VEC3"
    },
    {
      "bufferView": 8,
      "byteOffset": 24,
      "componentType": 5126,
      "normalized": false,
      "count": 4,
      "type": "VEC2"
    },
    {
      "bufferView": 8,
      "byteOffset": 32,
      "componentType": 5126,
      "normalized": false,
      "count": 4,
      "type": "VEC2"
    }
  ],
  "asset": {
    "generator": "pygltflib@v1.16.5",
    "version": "2.0"
  },
  "bufferViews": [
    {
      "buffer": 0,
      "byteOffset": 0,
      "byteLength": 6049480,
      "byteStride": 40,
      "target": 34962
    },
    {
      "buffer": 0,
      "byteOffset": 6049480,
      "byteLength": 2420440,
      "target": 34963
    },
    {
      "buffer": 0,
      "byteOffset": 8469920,
      "byteLength": 122880,
      "byteStride": 40,
      "target": 34962
    },
    {
      "buffer": 0,
      "byteOffset": 8592800,
      "byteLength": 11520,
      "byteStride": 40,
      "target": 34962
    },
    {
      "buffer": 0,
      "byteOffset": 8604320,
      "byteLength": 120,
      "byteStride": 40,
      "target": 34962
    },
    {
      "buffer": 0,
      "byteOffset": 8604440,
      "byteLength": 5400,
      "byteStride": 40,
      "target": 34962
    },
    {
      "buffer": 0,
      "byteOffset": 8609840,
      "byteLength": 640,
      "byteStride": 40,
      "target": 34962
    },
    {
      "buffer": 0,
      "byteOffset": 8610480,
      "byteLength": 640,
      "byteStride": 40,
      "target": 34962
    },
    {
      "buffer": 0,
      "byteOffset": 8611120,
      "byteLength": 160,
      "byteStride": 40,
      "target": 34962
    }
  ],
  "buffers": [
    {
      "uri": "BGA-676_27x27mm_Layout26x26_P1x1mm_FBG676-amd-xilinx-xc7k160t-fbg676.bin",
      "byteLength": 8611280
    }
  ],
  "extensionsUsed": [
    "KHR_materials_clearcoat",
    "KHR_materials_ior",
    "KHR_materials_sheen",
    "KHR_materials_specular",
    "KHR_materials_transmission",
    "KHR_texture_basisu"
  ],
  "extensionsRequired": [
    "KHR_texture_basisu"
  ],
  "images": [
    {
      "uri": "../shared_textures/metal_pins_normal.ktx2",
      "mimeType": "image/ktx2",
      "name": "metal_pins_normal"
    },
    {
      "uri": "../shared_textures/metal_pins_color.ktx2",
      "mimeType": "image/ktx2",
      "name": "metal_pins_color"
    },
    {
      "uri": "../shared_textures/cap_ceramic_1_normal.ktx2",
      "mimeType": "image/ktx2",
      "name": "cap_ceramic_1_normal"
    },
    {
      "uri": "../shared_textures/cap_ceramic_1_color.ktx2",
      "mimeType": "image/ktx2",
      "name": "cap_ceramic_1_color"
    },
    {
      "uri": "../shared_textures/white_markings_normal.ktx2",
      "mimeType": "image/ktx2",
      "name": "white_markings_normal"
    },
    {
      "uri": "../shared_textures/white_markings_color.ktx2",
      "mimeType": "image/ktx2",
      "name": "white_markings_color"
    },
    {
      "uri": "../shared_textures/composite_darkgreen_1_roughness.ktx2",
      "mimeType": "image/ktx2",
      "name": "composite_darkgreen_1_roughness"
    },
    {
      "uri": "../shared_textures/plastic_glossy_black_normal.ktx2",
      "mimeType": "image/ktx2",
      "name": "plastic_glossy_black_normal"
    },
    {
      "uri": "../shared_textures/plastic_glossy_black_color.ktx2",
      "mimeType": "image/ktx2",
      "name": "plastic_glossy_black_color"
    },
    {
      "uri": "../shared_textures/plastic_glossy_black_roughness.ktx2",
      "mimeType": "image/ktx2",
      "name": "plastic_glossy_black_roughness"
    },
    {
      "uri": "../shared_textures/pcb_edge_normal.ktx2",
      "mimeType": "image/ktx2",
      "name": "pcb_edge_normal"
    },
    {
      "uri": "../shared_textures/pcb_edge_color.ktx2",
      "mimeType": "image/ktx2",
      "name": "pcb_edge_color"
    },
    {
      "uri": "amd-xilinx-xc7k160t-fbg676-marking_normal.ktx2",
      "mimeType": "image/ktx2",
      "name": "amd-xilinx-xc7k160t-fbg676-marking_normal"
    },
    {
      "uri": "amd-xilinx-xc7k160t-fbg676-marking_color.ktx2",
      "mimeType": "image/ktx2",
      "name": "amd-xilinx-xc7k160t-fbg676-marking_color"
    },
    {
      "uri": "amd-xilinx-xc7k160t-fbg676-marking_metallic_roughness.ktx2",
      "mimeType": "image/ktx2",
      "name": "amd-xilinx-xc7k160t-fbg676-marking_metallic_roughness"
    }
  ],
  "materials": [
    {
      "extensions": {
        "KHR_materials_ior": {
          "ior": 1.4500000476837158
        },
        "KHR_materials_specular": {
          "specularFactor": 0
        }
      },
      "pbrMetallicRoughness": {
        "baseColorFactor": [
          1.0,
          1.0,
          1.0,
          1.0
        ],
        "metallicFactor": 0.7818182110786438,
        "roughnessFactor": 0.28863638639450073,
        "baseColorTexture": {
          "index": 0,
          "texCoord": 0
        }
      },
      "normalTexture": {
        "index": 1,
        "scale": 1.0
      },
      "emissiveFactor": [
        0.0,
        0.0,
        0.0
      ],
      "alphaMode": "OPAQUE",
      "doubleSided": true,
      "name": "gltf_metal_pins"
    },
    {
      "extensions": {
        "KHR_materials_clearcoat": {
          "clearcoatFactor": 0,
          "clearcoatRoughnessFactor": 0.0663636326789856
        },
        "KHR_materials_ior": {
          "ior": 1
        },
        "KHR_materials_specular": {
          "specularColorFactor": [
            0.9836281538009644,
            0.9815577864646912,
            0.9790995121002197
          ]
        }
      },
      "pbrMetallicRoughness": {
        "baseColorFactor": [
          1.0,
          1.0,
          1.0,
          1.0
        ],
        "metallicFactor": 0.5,
        "roughnessFactor": 0.2704545557498932,
        "baseColorTexture": {
          "index": 2,
          "texCoord": 0
        }
      },
      "normalTexture": {
        "index": 3,
        "scale": 1.0
      },
      "emissiveFactor": [
        0.0,
        0.0,
        0.0
      ],
      "alphaMode": "OPAQUE",
      "doubleSided": true,
      "name": "gltf_cap_ceramic_1"
    },
    {
      "extensions": {
        "KHR_materials_clearcoat": {
          "clearcoatFactor": 0,
          "clearcoatRoughnessFactor": 0.67090904712677
        },
        "KHR_materials_ior": {
          "ior": 1.4500000476837158
        },
        "KHR_materials_sheen": {
          "sheenColorFactor": [
            1,
            1,
            1
          ],
          "sheenRoughnessFactor": 0.5
        },
        "KHR_materials_specular": {
          "specularColorFactor": [
            1.3181817531585693,
            1.3181817531585693,
            1.3181817531585693
          ]
        },
        "KHR_materials_transmission": {
          "transmissionFactor": 0.23181819915771484
        }
      },
      "pbrMetallicRoughness": {
        "baseColorFactor": [
          1.0,
          1.0,
          1.0,
          1.0
        ],
        "metallicFactor": 0.019999999552965164,
        "roughnessFactor": 0.4636361598968506,
        "baseColorTexture": {
          "index": 4,
          "texCoord": 0
        }
      },
      "normalTexture": {
        "index": 5,
        "scale": 1.0
      },
      "emissiveFactor": [
        0.0,
        0.0,
        0.0
      ],
      "alphaMode": "OPAQUE",
      "doubleSided": true,
      "name": "gltf_white_markings"
    },
    {
      "extensions": {
        "KHR_materials_clearcoat": {
          "clearcoatFactor": 0.14230769872665405,
          "clearcoatRoughnessFactor": 0
        }
      },
      "extras": {
        "blenderkit": {
          "name": "Matte plastic",
          "description": "very simple roughness variated plastic",
          "tags": "plastic, touched, green",
          "is_generating_thumbnail": 0,
          "thumbnail": "//matte plastic _0000.png",
          "shaders": "principled, ",
          "upload_state": "uploaded metadata",
          "has_thumbnail": 1,
          "asset_base_id": "cb48a41d-6fc7-47b3-bd08-45275cfed0c2",
          "id": "62a6d8a0-393f-4bdd-9d1d-896fea3ca0be",
          "uploading": 0,
          "rating_quality": -1,
          "thumbnail_scale": 0.20000000298023224,
          "name_changed": 0,
          "name_old": "Matte plastic",
          "category": 24,
          "texture_resolution_max": 0,
          "texture_resolution_min": 0
        },
        "asset_data": {
          "thumbnail": "thumbnail_0f84bee4-0378-4bcd-8e2e-16a60a09613d.png.1024x1024_q85_crop-%2C.png",
          "thumbnail_small": "thumbnail_0f84bee4-0378-4bcd-8e2e-16a60a09613d.png.96x96_q85_crop-%2C.png",
          "download_url": "https://www.blenderkit.com/api/v1/downloads/5399/",
          "tooltip": "Matte plastic\n\nvery simple roughness variated plastic\n\nfiles size: 852KB\ntexture size: 1.0m\nlicense: royalty_free\n",
          "downloaded": 0,
          "texture_size_meters": 1,
          "thumbnail_%i": "thumbnail_0f84bee4-0378-4bcd-8e2e-16a60a09613d.png.1024x1024_q85_crop-%2C.png",
          "url": "https://public.blenderkit.com/public-assets/assets/62a6d8a0393f4bdd9d1d896fea3ca0be/files/blend_225be883-9a22-46c5-9b57-8786c2a32418.blend",
          "id": "62a6d8a0-393f-4bdd-9d1d-896fea3ca0be",
          "assetBaseId": "cb48a41d-6fc7-47b3-bd08-45275cfed0c2",
          "versionNumber": 1,
          "author": {
            "id": "2",
            "firstName": "Vil\u00e9m",
            "lastName": "Duha",
            "gravatarHash": "7d60f17cdce549f0f0159215cd006ae9",
            "avatar128": "/avatar-redirect/95cf3d26-35ba-41b0-84f1-55ee67cbeae4/128/",
            "aboutMe": "On this account we store assets created by BlenderKit team.",
            "aboutMeUrl": "https://www.blenderkit.com/about"
          },
          "name": "Matte plastic",
          "displayName": "Matte plastic",
          "description": "very simple roughness variated plastic",
          "assetType": "material",
          "category": "plastic",
          "adult": 0,
          "isFree": 1,
          "tags": [
            "plastic",
            "touched",
            "green",
            "non-manifold",
            "non-manifold",
            "non-manifold"
          ],
          "license": "royalty_free",
          "parameters": [
            {
              "parameterType": "textureSizeMeters",
              "value": 1
            },
            {
              "parameterType": "material_style",
              "value": "realistic"
            },
            {
              "parameterType": "purePbr",
              "value": 0
            },
            {
              "parameterType": "engine",
              "value": "cycles"
            },
            {
              "parameterType": "shaders",
              "value": [
                "principled"
              ]
            },
            {
              "parameterType": "animated",
              "value": 0
            },
            {
              "parameterType": "uv",
              "value": 0
            }
          ],
          "sourceAppName": "blender",
          "sourceAppVersion": "2.80.74",
          "addonVersion": "1.0.24",
          "created": "2019-06-11T10:47:32.996203+02:00",
          "verificationStatus": "validated",
          "isPrivate": 0,
          "files": [
            {
              "fileType": "blend",
              "downloadUrl": "https://www.blenderkit.com/api/v1/downloads/5399/"
            },
            {
              "fileType": "thumbnail",
              "downloadUrl": "https://www.blenderkit.com/api/v1/downloads/5398/",
              "fileThumbnail": "https://public.blenderkit.com/thumbnails/assets/62a6d8a0393f4bdd9d1d896fea3ca0be/files/thumbnail_0f84bee4-0378-4bcd-8e2e-16a60a09613d.png.96x96_q85_crop-%2C.png",
              "fileThumbnailLarge": "https://public.blenderkit.com/thumbnails/assets/62a6d8a0393f4bdd9d1d896fea3ca0be/files/thumbnail_0f84bee4-0378-4bcd-8e2e-16a60a09613d.png.1024x1024_q85_crop-%2C.png"
            }
          ],
          "filesSize": 58196,
          "thumbnailSmallUrl": "https://public.blenderkit.com/thumbnails/assets/62a6d8a0393f4bdd9d1d896fea3ca0be/files/thumbnail_0f84bee4-0378-4bcd-8e2e-16a60a09613d.png.256x256_q85_crop-%2C.png",
          "thumbnailMiddleUrl": "https://public.blenderkit.com/thumbnails/assets/62a6d8a0393f4bdd9d1d896fea3ca0be/files/thumbnail_0f84bee4-0378-4bcd-8e2e-16a60a09613d.png.512x512_q85_crop-%2C.png",
          "thumbnailLargeUrl": "https://public.blenderkit.com/thumbnails/assets/62a6d8a0393f4bdd9d1d896fea3ca0be/files/thumbnail_0f84bee4-0378-4bcd-8e2e-16a60a09613d.png.1024x1024_q85_crop-%2C.png",
          "thumbnailXlargeUrl": "https://public.blenderkit.com/thumbnails/assets/62a6d8a0393f4bdd9d1d896fea3ca0be/files/thumbnail_0f84bee4-0378-4bcd-8e2e-16a60a09613d.png.1024x1024_q85_crop-%2C.png",
          "thumbnailSmallUrlNonsquared": "https://public.blenderkit.com/thumbnails/assets/62a6d8a0393f4bdd9d1d896fea3ca0be/files/thumbnail_0f84bee4-0378-4bcd-8e2e-16a60a09613d.png.256x256_q85.png",
          "thumbnailMiddleUrlNonsquared": "https://public.blenderkit.com/thumbnails/assets/62a6d8a0393f4bdd9d1d896fea3ca0be/files/thumbnail_0f84bee4-0378-4bcd-8e2e-16a60a09613d.png.512x512_q85.png",
          "thumbnailLargeUrlNonsquared": "https://public.blenderkit.com/thumbnails/assets/62a6d8a0393f4bdd9d1d896fea3ca0be/files/thumbnail_0f84bee4-0378-4bcd-8e2e-16a60a09613d.png.1024x1024_q85.png",
          "thumbnailXlargeUrlNonsquared": "https://public.blenderkit.com/thumbnails/assets/62a6d8a0393f4bdd9d1d896fea3ca0be/files/thumbnail_0f84bee4-0378-4bcd-8e2e-16a60a09613d.png.2048x2048_q85.png",
          "showMarketingLabels": 1,
          "score": 192,
          "ratingsMedian": {
            "quality": 8.5,
            "workingHours": 2.4
          },
          "ratingsAverage": {
            "quality": 8,
            "workingHours": 2.4
          },
          "ratingsCount": {
            "competition-2022-votes": 0,
            "complexity": 0,
            "virtualPriceAdmin": 0,
            "virtualPrice": 0,
            "quality": 8,
            "workingHours": 8,
            "complexityAdmin": 0
          },
          "ratingsSum": {
            "quality": 64,
            "workingHours": 17.7
          },
          "canDownload": 1,
          "canDownloadError": 1,
          "file_name": "blend_225be883-9a22-46c5-9b57-8786c2a32418.blend"
        }
      },
      "pbrMetallicRoughness": {
        "baseColorFactor": [
          0.00345463864505291,
          0.029073704034090042,
          0.004590462893247604,
          1.0
        ],
        "metallicFactor": 0.0,
        "roughnessFactor": 1.0,
        "metallicRoughnessTexture": {
          "index": 6,
          "texCoord": 0
        }
      },
      "emissiveFactor": [
        0.0,
        0.0,
        0.0
      ],
      "alphaMode": "OPAQUE",
      "doubleSided": true,
      "name": "gltf_composite_darkgreen_1"
    },
    {
      "pbrMetallicRoughness": {
        "baseColorFactor": [
          1.0,
          1.0,
          1.0,
          1.0
        ],
        "metallicFactor": 0.13699999451637268,
        "roughnessFactor": 1.0,
        "baseColorTexture": {
          "index": 7,
          "texCoord": 0
        },
        "metallicRoughnessTexture": {
          "index": 9,
          "texCoord": 0
        }
      },
      "normalTexture": {
        "index": 8,
        "scale": 1.0
      },
      "emissiveFactor": [
        0.0,
        0.0,
        0.0
      ],
      "alphaMode": "OPAQUE",
      "doubleSided": true,
      "name": "gltf_plastic_glossy_black"
    },
    {
      "extensions": {
        "KHR_materials_ior": {
          "ior": 1.4500000476837158
        },
        "KHR_materials_transmission": {
          "transmissionFactor": 0.5
        }
      },
      "pbrMetallicRoughness": {
        "baseColorFactor": [
          1.0,
          1.0,
          1.0,
          1.0
        ],
        "metallicFactor": 0.10000000149011612,
        "roughnessFactor": 0.5,
        "baseColorTexture": {
          "index": 10,
          "texCoord": 0
        }
      },
      "normalTexture": {
        "index": 11,
        "scale": 1.0
      },
      "emissiveFactor": [
        0.0,
        0.0,
        0.0
      ],
      "alphaMode": "OPAQUE",
      "doubleSided": true,
      "name": "gltf_pcb_edge"
    },
    {
      "pbrMetallicRoughness": {
        "baseColorFactor": [
          1.0,
          1.0,
          1.0,
          1.0
        ],
        "metallicFactor": 1.0,
        "roughnessFactor": 1.0,
        "baseColorTexture": {
          "index": 12,
          "texCoord": 1
        },
        "metallicRoughnessTexture": {
          "index": 14,
          "texCoord": 1
        }
      },
      "normalTexture": {
        "index": 13,
        "texCoord": 1,
        "scale": 1.0
      },
      "emissiveFactor": [
        0.0,
        0.0,
        0.0
      ],
      "alphaMode": "OPAQUE",
      "doubleSided": true,
      "name": "gltf_amd-xilinx-xc7k160t-fbg676-marking"
    }
  ],
  "meshes": [
    {
      "primitives": [
        {
          "attributes": {
            "POSITION": 0,
            "NORMAL": 1,
            "TEXCOORD_0": 2,
            "TEXCOORD_1": 3
          },
          "indices": 4,
          "mode": 4,
          "material": 0
        },
        {
          "attributes": {
            "POSITION": 12,
            "NORMAL": 13,
            "TEXCOORD_0": 14,
            "TEXCOORD_1": 15
          },
          "indices": 5,
          "mode": 4,
          "material": 1
        },
        {
          "attributes": {
            "POSITION": 16,
            "NORMAL": 17,
            "TEXCOORD_0": 18,
            "TEXCOORD_1": 19
          },
          "indices": 6,
          "mode": 4,
          "material": 0
        },
        {
          "attributes": {
            "POSITION": 20,
            "NORMAL": 21,
            "TEXCOORD_0": 22,
            "TEXCOORD_1": 23
          },
          "indices": 7,
          "mode": 4,
          "material": 2
        },
        {
          "attributes": {
            "POSITION": 24,
            "NORMAL": 25,
            "TEXCOORD_0": 26,
            "TEXCOORD_1": 27
          },
          "indices": 8,
          "mode": 4,
          "material": 3
        },
        {
          "attributes": {
            "POSITION": 28,
            "NORMAL": 29,
            "TEXCOORD_0": 30,
            "TEXCOORD_1": 31
          },
          "indices": 9,
          "mode": 4,
          "material": 4
        },
        {
          "attributes": {
            "POSITION": 32,
            "NORMAL": 33,
            "TEXCOORD_0": 34,
            "TEXCOORD_1": 35
          },
          "indices": 10,
          "mode": 4,
          "material": 5
        },
        {
          "attributes": {
            "POSITION": 36,
            "NORMAL": 37,
            "TEXCOORD_0": 38,
            "TEXCOORD_1": 39
          },
          "indices": 11,
          "mode": 4,
          "material": 6
        }
      ],
      "name": "BGA-676_27x27mm_Layout26x26_P1x1mm_FBG676-amd-xilinx-xc7k160t-f"
    }
  ],
  "nodes": [
    {
      "extras": {
        "REF": "U",
        "model_diagonal": 38.268153891042964
      },
      "mesh": 0,
      "name": "BGA-676_27x27mm_Layout26x26_P1x1mm_FBG676-amd-xilinx-xc7k160t-f"
    }
  ],
  "samplers": [
    {
      "magFilter": 9729,
      "minFilter": 9987,
      "wrapS": 10497,
      "wrapT": 10497
    }
  ],
  "scene": 0,
  "scenes": [
    {
      "extras": {
        "matlib": {
          "lib_index": 0,
          "filter": 0,
          "cat_index": -1,
          "all_materials": [
            {
              "name": "FR4"
            },
            {
              "name": "Metal"
            },
            {
              "name": "bga_balls"
            },
            {
              "name": "chip_enclosure"
            },
            {
              "name": "chip_enclosure_detailed"
            },
            {
              "name": "composite"
            },
            {
              "name": "enclosure_alu"
            },
            {
              "name": "enclosure_alu_polished"
            },
            {
              "name": "enclosure_gold"
            },
            {
              "name": "metal_pins_simple"
            },
            {
              "name": "pin1_marking_dark"
            },
            {
              "name": "pin_tht_gold"
            },
            {
              "name": "pin_tht_silver"
            },
            {
              "name": "plastic yellow"
            },
            {
              "name": "plastic_black"
            },
            {
              "name": "plastic_black_detailed"
            },
            {
              "name": "plastic_green_lightning"
            },
            {
              "name": "plastic_white"
            },
            {
              "name": "plastic_yellow_lightning"
            },
            {
              "name": "smd_cap_case"
            },
            {
              "name": "smd_cap_pins"
            },
            {
              "name": "smd_res_case"
            }
          ],
          "materials": [
            {
              "name": "FR4"
            },
            {
              "name": "Metal"
            },
            {
              "name": "bga_balls"
            },
            {
              "name": "chip_enclosure"
            },
            {
              "name": "chip_enclosure_detailed"
            },
            {
              "name": "composite"
            },
            {
              "name": "enclosure_alu"
            },
            {
              "name": "enclosure_alu_polished"
            },
            {
              "name": "enclosure_gold"
            },
            {
              "name": "metal_pins_simple"
            },
            {
              "name": "pin1_marking_dark"
            },
            {
              "name": "pin_tht_gold"
            },
            {
              "name": "pin_tht_silver"
            },
            {
              "name": "plastic yellow"
            },
            {
              "name": "plastic_black"
            },
            {
              "name": "plastic_black_detailed"
            },
            {
              "name": "plastic_green_lightning"
            },
            {
              "name": "plastic_white"
            },
            {
              "name": "plastic_yellow_lightning"
            },
            {
              "name": "smd_cap_case"
            },
            {
              "name": "smd_cap_pins"
            },
            {
              "name": "smd_res_case"
            }
          ],
          "mat_index": 7
        },
        "sketcher": {
          "version": [
            0,
            24,
            0
          ]
        }
      },
      "name": "Scene",
      "nodes": [
        0
      ]
    }
  ],
  "textures": [
    {
      "extensions": {
        "KHR_texture_basisu": {
          "source": 1
        }
      },
      "sampler": 0
    },
    {
      "extensions": {
        "KHR_texture_basisu": {
          "source": 0
        }
      },
      "sampler": 0
    },
    {
      "extensions": {
        "KHR_texture_basisu": {
          "source": 3
        }
      },
      "sampler": 0
    },
    {
      "extensions": {
        "KHR_texture_basisu": {
          "source": 2
        }
      },
      "sampler": 0
    },
    {
      "extensions": {
        "KHR_texture_basisu": {
          "source": 5
        }
      },
      "sampler": 0
    },
    {
      "extensions": {
        "KHR_texture_basisu": {
          "source": 4
        }
      },
      "sampler": 0
    },
    {
      "extensions": {
        "KHR_texture_basisu": {
          "source": 6
        }
      },
      "sampler": 0
    },
    {
      "extensions": {
        "KHR_texture_basisu": {
          "source": 8
        }
      },
      "sampler": 0
    },
    {
      "extensions": {
        "KHR_texture_basisu": {
          "source": 7
        }
      },
      "sampler": 0
    },
    {
      "extensions": {
        "KHR_texture_basisu": {
          "source": 9
        }
      },
      "sampler": 0
    },
    {
      "extensions": {
        "KHR_texture_basisu": {
          "source": 11
        }
      },
      "sampler": 0
    },
    {
      "extensions": {
        "KHR_texture_basisu": {
          "source": 10
        }
      },
      "sampler": 0
    },
    {
      "extensions": {
        "KHR_texture_basisu": {
          "source": 13
        }
      },
      "sampler": 0
    },
    {
      "extensions": {
        "KHR_texture_basisu": {
          "source": 12
        }
      },
      "sampler": 0
    },
    {
      "extensions": {
        "KHR_texture_basisu": {
          "source": 14
        }
      },
      "sampler": 0
    }
  ]
}