<?xml version="1.0" standalone="no"?>
 <!DOCTYPE svg PUBLIC "-//W3C//DTD SVG 1.1//EN" 
 "http://www.w3.org/Graphics/SVG/1.1/DTD/svg11.dtd"> 
<svg
  xmlns:svg="http://www.w3.org/2000/svg"
  xmlns="http://www.w3.org/2000/svg"
  xmlns:xlink="http://www.w3.org/1999/xlink"
  version="1.1"
  width="32.6390mm" height="7.0358mm" viewBox="0.0000 0.0000 32.6390 7.0358">
<title>SVG Image created as outline.svg date 2025/04/04 10:06:32 </title>
  <desc>Image generated by PCBNEW </desc>
<g style="fill:#000000; fill-opacity:1.0000;stroke:#000000; stroke-opacity:1.0000;
stroke-linecap:round; stroke-linejoin:round;"
 transform="translate(0 0) scale(1 1)">
</g>
<g style="fill:none; 
stroke:#000000; stroke-width:0.0200; stroke-opacity:1; 
stroke-linecap:round; stroke-linejoin:round;">
<path d="M0.4500 1.0250
L32.1990 1.0250
" />
<path d="M0.4500 6.0240
L0.4500 1.0250
" />
<path d="M0.4500 6.0240
L15.1250 6.0240
" />
<path d="M0.8500 1.4240
L1.2490 1.8250
" />
<path d="M0.8500 1.4240
L31.7980 1.4240
" />
<path d="M0.8500 5.6250
L0.8500 1.4240
" />
<path d="M0.8500 5.6250
L1.2490 5.2240
" />
<path d="M1.2490 1.8250
L1.2490 5.2240
" />
<path d="M1.2490 5.2240
L15.1250 5.2240
" />
<path d="M3.2070 6.0730
L3.2070 6.0240
" />
<path d="M4.0590 2.6900
L4.4600 2.6900
" />
<path d="M4.0590 3.0900
L4.0590 2.6900
" />
<path d="M4.0590 3.9580
L4.1590 4.0600
" />
<path d="M4.0590 3.9580
L4.4600 3.9580
" />
<path d="M4.0590 4.3580
L4.0590 3.9580
" />
<path d="M4.1590 0.7240
L4.0650 1.0250
" />
<path d="M4.1590 0.7240
L4.3600 0.7240
" />
<path d="M4.1590 2.7900
L4.0590 2.6900
" />
<path d="M4.1590 2.7900
L4.1590 2.9880
" />
<path d="M4.1590 2.9880
L4.0590 3.0900
" />
<path d="M4.1590 2.9880
L4.3600 2.9880
" />
<path d="M4.1590 4.0600
L4.1590 4.2580
" />
<path d="M4.1590 4.2580
L4.0590 4.3580
" />
<path d="M4.1590 4.2580
L4.3600 4.2580
" />
<path d="M4.1590 6.3230
L4.0810 6.0730
" />
<path d="M4.3600 0.7240
L4.4530 1.0250
" />
<path d="M4.3600 2.7900
L4.1590 2.7900
" />
<path d="M4.3600 2.7900
L4.4600 2.6900
" />
<path d="M4.3600 2.9880
L4.3600 2.7900
" />
<path d="M4.3600 4.0600
L4.1590 4.0600
" />
<path d="M4.3600 4.0600
L4.4600 3.9580
" />
<path d="M4.3600 4.2580
L4.3600 4.0600
" />
<path d="M4.3600 4.2580
L4.4600 4.3580
" />
<path d="M4.3600 6.3230
L4.1590 6.3230
" />
<path d="M4.3600 6.3230
L4.4370 6.0730
" />
<path d="M4.4600 2.6900
L4.4600 3.0900
" />
<path d="M4.4600 3.0900
L4.0590 3.0900
" />
<path d="M4.4600 3.0900
L4.3600 2.9880
" />
<path d="M4.4600 3.9580
L4.4600 4.3580
" />
<path d="M4.4600 4.3580
L4.0590 4.3580
" />
<path d="M4.7070 6.0730
L3.2070 6.0730
" />
<path d="M4.7070 6.0730
L4.7070 6.0240
" />
<path d="M5.3290 2.6900
L5.3290 2.7130
" />
<path d="M5.3290 2.6900
L5.7290 2.6900
" />
<path d="M5.3290 2.7130
L5.3290 2.6900
" />
<path d="M5.3290 2.7130
L5.7290 2.7130
" />
<path d="M5.3290 3.1140
L5.3290 2.7130
" />
<path d="M5.3290 3.9340
L5.4300 4.0330
" />
<path d="M5.3290 3.9340
L5.7290 3.9340
" />
<path d="M5.3290 4.3350
L5.3290 3.9340
" />
<path d="M5.3290 4.3580
L5.3290 4.3350
" />
<path d="M5.3290 4.3580
L5.3290 4.3350
" />
<path d="M5.4300 0.7500
L5.3440 1.0250
" />
<path d="M5.4300 0.7500
L5.6290 0.7500
" />
<path d="M5.4300 2.8150
L5.3290 2.7130
" />
<path d="M5.4300 2.8150
L5.4300 3.0150
" />
<path d="M5.4300 3.0150
L5.3290 3.1140
" />
<path d="M5.4300 3.0150
L5.6290 3.0150
" />
<path d="M5.4300 4.0330
L5.4300 4.2330
" />
<path d="M5.4300 4.2330
L5.3290 4.3350
" />
<path d="M5.4300 4.2330
L5.6290 4.2330
" />
<path d="M5.4300 6.2980
L5.3440 6.0240
" />
<path d="M5.6290 0.7500
L5.7150 1.0250
" />
<path d="M5.6290 2.8150
L5.4300 2.8150
" />
<path d="M5.6290 2.8150
L5.7290 2.7130
" />
<path d="M5.6290 3.0150
L5.6290 2.8150
" />
<path d="M5.6290 4.0330
L5.4300 4.0330
" />
<path d="M5.6290 4.0330
L5.7290 3.9340
" />
<path d="M5.6290 4.2330
L5.6290 4.0330
" />
<path d="M5.6290 4.2330
L5.7290 4.3350
" />
<path d="M5.6290 6.2980
L5.4300 6.2980
" />
<path d="M5.6290 6.2980
L5.7150 6.0240
" />
<path d="M5.7290 2.6900
L5.7290 2.7130
" />
<path d="M5.7290 2.6900
L5.7290 2.7130
" />
<path d="M5.7290 2.7130
L5.7290 3.1140
" />
<path d="M5.7290 3.1140
L5.3290 3.1140
" />
<path d="M5.7290 3.1140
L5.6290 3.0150
" />
<path d="M5.7290 3.9340
L5.7290 4.3350
" />
<path d="M5.7290 4.3350
L5.3290 4.3350
" />
<path d="M5.7290 4.3350
L5.7290 4.3580
" />
<path d="M5.7290 4.3580
L5.3290 4.3580
" />
<path d="M5.7290 4.3580
L5.7290 4.3350
" />
<path d="M6.6000 2.6900
L6.6000 2.7130
" />
<path d="M6.6000 2.6900
L6.9990 2.6900
" />
<path d="M6.6000 2.7130
L6.6000 2.6900
" />
<path d="M6.6000 2.7130
L6.9990 2.7130
" />
<path d="M6.6000 3.1140
L6.6000 2.7130
" />
<path d="M6.6000 3.9340
L6.7000 4.0330
" />
<path d="M6.6000 3.9340
L6.9990 3.9340
" />
<path d="M6.6000 4.3350
L6.6000 3.9340
" />
<path d="M6.6000 4.3580
L6.6000 4.3350
" />
<path d="M6.6000 4.3580
L6.6000 4.3350
" />
<path d="M6.7000 0.7500
L6.6130 1.0250
" />
<path d="M6.7000 0.7500
L6.8990 0.7500
" />
<path d="M6.7000 2.8150
L6.6000 2.7130
" />
<path d="M6.7000 2.8150
L6.7000 3.0150
" />
<path d="M6.7000 3.0150
L6.6000 3.1140
" />
<path d="M6.7000 3.0150
L6.8990 3.0150
" />
<path d="M6.7000 4.0330
L6.7000 4.2330
" />
<path d="M6.7000 4.2330
L6.6000 4.3350
" />
<path d="M6.7000 4.2330
L6.8990 4.2330
" />
<path d="M6.7000 6.2980
L6.6130 6.0240
" />
<path d="M6.8990 0.7500
L6.9850 1.0250
" />
<path d="M6.8990 2.8150
L6.7000 2.8150
" />
<path d="M6.8990 2.8150
L6.9990 2.7130
" />
<path d="M6.8990 3.0150
L6.8990 2.8150
" />
<path d="M6.8990 4.0330
L6.7000 4.0330
" />
<path d="M6.8990 4.0330
L6.9990 3.9340
" />
<path d="M6.8990 4.2330
L6.8990 4.0330
" />
<path d="M6.8990 4.2330
L6.9990 4.3350
" />
<path d="M6.8990 6.2980
L6.7000 6.2980
" />
<path d="M6.8990 6.2980
L6.9850 6.0240
" />
<path d="M6.9990 2.6900
L6.9990 2.7130
" />
<path d="M6.9990 2.6900
L6.9990 2.7130
" />
<path d="M6.9990 2.7130
L6.9990 3.1140
" />
<path d="M6.9990 3.1140
L6.6000 3.1140
" />
<path d="M6.9990 3.1140
L6.8990 3.0150
" />
<path d="M6.9990 3.9340
L6.9990 4.3350
" />
<path d="M6.9990 4.3350
L6.6000 4.3350
" />
<path d="M6.9990 4.3350
L6.9990 4.3580
" />
<path d="M6.9990 4.3580
L6.6000 4.3580
" />
<path d="M6.9990 4.3580
L6.9990 4.3350
" />
<path d="M7.8700 2.6900
L7.8700 2.7130
" />
<path d="M7.8700 2.6900
L8.2700 2.6900
" />
<path d="M7.8700 2.7130
L7.8700 2.6900
" />
<path d="M7.8700 2.7130
L8.2700 2.7130
" />
<path d="M7.8700 3.1140
L7.8700 2.7130
" />
<path d="M7.8700 3.9340
L7.9690 4.0330
" />
<path d="M7.8700 3.9340
L8.2700 3.9340
" />
<path d="M7.8700 4.3350
L7.8700 3.9340
" />
<path d="M7.8700 4.3580
L7.8700 4.3350
" />
<path d="M7.8700 4.3580
L7.8700 4.3350
" />
<path d="M7.9690 0.7500
L7.8830 1.0250
" />
<path d="M7.9690 0.7500
L8.1700 0.7500
" />
<path d="M7.9690 2.8150
L7.8700 2.7130
" />
<path d="M7.9690 2.8150
L7.9690 3.0150
" />
<path d="M7.9690 3.0150
L7.8700 3.1140
" />
<path d="M7.9690 3.0150
L8.1700 3.0150
" />
<path d="M7.9690 4.0330
L7.9690 4.2330
" />
<path d="M7.9690 4.2330
L7.8700 4.3350
" />
<path d="M7.9690 4.2330
L8.1700 4.2330
" />
<path d="M7.9690 6.2980
L7.8830 6.0240
" />
<path d="M8.1700 0.7500
L8.2540 1.0250
" />
<path d="M8.1700 2.8150
L7.9690 2.8150
" />
<path d="M8.1700 2.8150
L8.2700 2.7130
" />
<path d="M8.1700 3.0150
L8.1700 2.8150
" />
<path d="M8.1700 4.0330
L7.9690 4.0330
" />
<path d="M8.1700 4.0330
L8.2700 3.9340
" />
<path d="M8.1700 4.2330
L8.1700 4.0330
" />
<path d="M8.1700 4.2330
L8.2700 4.3350
" />
<path d="M8.1700 6.2980
L7.9690 6.2980
" />
<path d="M8.1700 6.2980
L8.2540 6.0240
" />
<path d="M8.2700 2.6900
L8.2700 2.7130
" />
<path d="M8.2700 2.6900
L8.2700 2.7130
" />
<path d="M8.2700 2.7130
L8.2700 3.1140
" />
<path d="M8.2700 3.1140
L7.8700 3.1140
" />
<path d="M8.2700 3.1140
L8.1700 3.0150
" />
<path d="M8.2700 3.9340
L8.2700 4.3350
" />
<path d="M8.2700 4.3350
L7.8700 4.3350
" />
<path d="M8.2700 4.3350
L8.2700 4.3580
" />
<path d="M8.2700 4.3580
L7.8700 4.3580
" />
<path d="M8.2700 4.3580
L8.2700 4.3350
" />
<path d="M9.1390 2.6900
L9.1390 2.7130
" />
<path d="M9.1390 2.6900
L9.5380 2.6900
" />
<path d="M9.1390 2.7130
L9.1390 2.6900
" />
<path d="M9.1390 2.7130
L9.5380 2.7130
" />
<path d="M9.1390 3.1140
L9.1390 2.7130
" />
<path d="M9.1390 3.9340
L9.2400 4.0330
" />
<path d="M9.1390 3.9340
L9.5380 3.9340
" />
<path d="M9.1390 4.3350
L9.1390 3.9340
" />
<path d="M9.1390 4.3580
L9.1390 4.3350
" />
<path d="M9.1390 4.3580
L9.1390 4.3350
" />
<path d="M9.2400 0.7500
L9.1530 1.0250
" />
<path d="M9.2400 0.7500
L9.4400 0.7500
" />
<path d="M9.2400 2.8150
L9.1390 2.7130
" />
<path d="M9.2400 2.8150
L9.2400 3.0150
" />
<path d="M9.2400 3.0150
L9.1390 3.1140
" />
<path d="M9.2400 3.0150
L9.4400 3.0150
" />
<path d="M9.2400 4.0330
L9.2400 4.2330
" />
<path d="M9.2400 4.2330
L9.1390 4.3350
" />
<path d="M9.2400 4.2330
L9.4400 4.2330
" />
<path d="M9.2400 6.2980
L9.1530 6.0240
" />
<path d="M9.4400 0.7500
L9.5250 1.0250
" />
<path d="M9.4400 2.8150
L9.2400 2.8150
" />
<path d="M9.4400 2.8150
L9.5380 2.7130
" />
<path d="M9.4400 3.0150
L9.4400 2.8150
" />
<path d="M9.4400 4.0330
L9.2400 4.0330
" />
<path d="M9.4400 4.0330
L9.5380 3.9340
" />
<path d="M9.4400 4.2330
L9.4400 4.0330
" />
<path d="M9.4400 4.2330
L9.5380 4.3350
" />
<path d="M9.4400 6.2980
L9.2400 6.2980
" />
<path d="M9.4400 6.2980
L9.5250 6.0240
" />
<path d="M9.5380 2.6900
L9.5380 2.7130
" />
<path d="M9.5380 2.6900
L9.5380 2.7130
" />
<path d="M9.5380 2.7130
L9.5380 3.1140
" />
<path d="M9.5380 3.1140
L9.1390 3.1140
" />
<path d="M9.5380 3.1140
L9.4400 3.0150
" />
<path d="M9.5380 3.9340
L9.5380 4.3350
" />
<path d="M9.5380 4.3350
L9.1390 4.3350
" />
<path d="M9.5380 4.3350
L9.5380 4.3580
" />
<path d="M9.5380 4.3580
L9.1390 4.3580
" />
<path d="M9.5380 4.3580
L9.5380 4.3350
" />
<path d="M10.4100 2.6900
L10.4100 2.7130
" />
<path d="M10.4100 2.6900
L10.8100 2.6900
" />
<path d="M10.4100 2.7130
L10.4100 2.6900
" />
<path d="M10.4100 2.7130
L10.8100 2.7130
" />
<path d="M10.4100 3.1140
L10.4100 2.7130
" />
<path d="M10.4100 3.9340
L10.5090 4.0330
" />
<path d="M10.4100 3.9340
L10.8100 3.9340
" />
<path d="M10.4100 4.3350
L10.4100 3.9340
" />
<path d="M10.4100 4.3580
L10.4100 4.3350
" />
<path d="M10.4100 4.3580
L10.4100 4.3350
" />
<path d="M10.5090 0.7500
L10.4240 1.0250
" />
<path d="M10.5090 0.7500
L10.7080 0.7500
" />
<path d="M10.5090 2.8150
L10.4100 2.7130
" />
<path d="M10.5090 2.8150
L10.5090 3.0150
" />
<path d="M10.5090 3.0150
L10.4100 3.1140
" />
<path d="M10.5090 3.0150
L10.7080 3.0150
" />
<path d="M10.5090 4.0330
L10.5090 4.2330
" />
<path d="M10.5090 4.2330
L10.4100 4.3350
" />
<path d="M10.5090 4.2330
L10.7080 4.2330
" />
<path d="M10.5090 6.2980
L10.4240 6.0240
" />
<path d="M10.7080 0.7500
L10.7940 1.0250
" />
<path d="M10.7080 2.8150
L10.5090 2.8150
" />
<path d="M10.7080 2.8150
L10.8100 2.7130
" />
<path d="M10.7080 3.0150
L10.7080 2.8150
" />
<path d="M10.7080 4.0330
L10.5090 4.0330
" />
<path d="M10.7080 4.0330
L10.8100 3.9340
" />
<path d="M10.7080 4.2330
L10.7080 4.0330
" />
<path d="M10.7080 4.2330
L10.8100 4.3350
" />
<path d="M10.7080 6.2980
L10.5090 6.2980
" />
<path d="M10.7080 6.2980
L10.7940 6.0240
" />
<path d="M10.8100 2.6900
L10.8100 2.7130
" />
<path d="M10.8100 2.6900
L10.8100 2.7130
" />
<path d="M10.8100 2.7130
L10.8100 3.1140
" />
<path d="M10.8100 3.1140
L10.4100 3.1140
" />
<path d="M10.8100 3.1140
L10.7080 3.0150
" />
<path d="M10.8100 3.9340
L10.8100 4.3350
" />
<path d="M10.8100 4.3350
L10.4100 4.3350
" />
<path d="M10.8100 4.3350
L10.8100 4.3580
" />
<path d="M10.8100 4.3580
L10.4100 4.3580
" />
<path d="M10.8100 4.3580
L10.8100 4.3350
" />
<path d="M11.6790 2.6900
L11.6790 2.7130
" />
<path d="M11.6790 2.6900
L12.0780 2.6900
" />
<path d="M11.6790 2.7130
L11.6790 2.6900
" />
<path d="M11.6790 2.7130
L12.0780 2.7130
" />
<path d="M11.6790 3.1140
L11.6790 2.7130
" />
<path d="M11.6790 3.9340
L11.7800 4.0330
" />
<path d="M11.6790 3.9340
L12.0780 3.9340
" />
<path d="M11.6790 4.3350
L11.6790 3.9340
" />
<path d="M11.6790 4.3580
L11.6790 4.3350
" />
<path d="M11.6790 4.3580
L11.6790 4.3350
" />
<path d="M11.7800 0.7500
L11.6930 1.0250
" />
<path d="M11.7800 0.7500
L11.9800 0.7500
" />
<path d="M11.7800 2.8150
L11.6790 2.7130
" />
<path d="M11.7800 2.8150
L11.7800 3.0150
" />
<path d="M11.7800 3.0150
L11.6790 3.1140
" />
<path d="M11.7800 3.0150
L11.9800 3.0150
" />
<path d="M11.7800 4.0330
L11.7800 4.2330
" />
<path d="M11.7800 4.2330
L11.6790 4.3350
" />
<path d="M11.7800 4.2330
L11.9800 4.2330
" />
<path d="M11.7800 6.2980
L11.6930 6.0240
" />
<path d="M11.9800 0.7500
L12.0650 1.0250
" />
<path d="M11.9800 2.8150
L11.7800 2.8150
" />
<path d="M11.9800 2.8150
L12.0780 2.7130
" />
<path d="M11.9800 3.0150
L11.9800 2.8150
" />
<path d="M11.9800 4.0330
L11.7800 4.0330
" />
<path d="M11.9800 4.0330
L12.0780 3.9340
" />
<path d="M11.9800 4.2330
L11.9800 4.0330
" />
<path d="M11.9800 4.2330
L12.0780 4.3350
" />
<path d="M11.9800 6.2980
L11.7800 6.2980
" />
<path d="M11.9800 6.2980
L12.0650 6.0240
" />
<path d="M12.0780 2.6900
L12.0780 2.7130
" />
<path d="M12.0780 2.6900
L12.0780 2.7130
" />
<path d="M12.0780 2.7130
L12.0780 3.1140
" />
<path d="M12.0780 3.1140
L11.6790 3.1140
" />
<path d="M12.0780 3.1140
L11.9800 3.0150
" />
<path d="M12.0780 3.9340
L12.0780 4.3350
" />
<path d="M12.0780 4.3350
L11.6790 4.3350
" />
<path d="M12.0780 4.3350
L12.0780 4.3580
" />
<path d="M12.0780 4.3580
L11.6790 4.3580
" />
<path d="M12.0780 4.3580
L12.0780 4.3350
" />
<path d="M12.9500 2.6900
L12.9500 2.7130
" />
<path d="M12.9500 2.6900
L13.3490 2.6900
" />
<path d="M12.9500 2.7130
L12.9500 2.6900
" />
<path d="M12.9500 2.7130
L13.3490 2.7130
" />
<path d="M12.9500 3.1140
L12.9500 2.7130
" />
<path d="M12.9500 3.9340
L13.0500 4.0330
" />
<path d="M12.9500 3.9340
L13.3490 3.9340
" />
<path d="M12.9500 4.3350
L12.9500 3.9340
" />
<path d="M12.9500 4.3580
L12.9500 4.3350
" />
<path d="M12.9500 4.3580
L12.9500 4.3350
" />
<path d="M13.0500 0.7500
L12.9630 1.0250
" />
<path d="M13.0500 0.7500
L13.2480 0.7500
" />
<path d="M13.0500 2.8150
L12.9500 2.7130
" />
<path d="M13.0500 2.8150
L13.0500 3.0150
" />
<path d="M13.0500 3.0150
L12.9500 3.1140
" />
<path d="M13.0500 3.0150
L13.2480 3.0150
" />
<path d="M13.0500 4.0330
L13.0500 4.2330
" />
<path d="M13.0500 4.2330
L12.9500 4.3350
" />
<path d="M13.0500 4.2330
L13.2480 4.2330
" />
<path d="M13.0500 6.2980
L12.9630 6.0240
" />
<path d="M13.2480 0.7500
L13.3340 1.0250
" />
<path d="M13.2480 2.8150
L13.0500 2.8150
" />
<path d="M13.2480 2.8150
L13.3490 2.7130
" />
<path d="M13.2480 3.0150
L13.2480 2.8150
" />
<path d="M13.2480 4.0330
L13.0500 4.0330
" />
<path d="M13.2480 4.0330
L13.3490 3.9340
" />
<path d="M13.2480 4.2330
L13.2480 4.0330
" />
<path d="M13.2480 4.2330
L13.3490 4.3350
" />
<path d="M13.2480 6.2980
L13.0500 6.2980
" />
<path d="M13.2480 6.2980
L13.3340 6.0240
" />
<path d="M13.3490 2.6900
L13.3490 2.7130
" />
<path d="M13.3490 2.6900
L13.3490 2.7130
" />
<path d="M13.3490 2.7130
L13.3490 3.1140
" />
<path d="M13.3490 3.1140
L12.9500 3.1140
" />
<path d="M13.3490 3.1140
L13.2480 3.0150
" />
<path d="M13.3490 3.9340
L13.3490 4.3350
" />
<path d="M13.3490 4.3350
L12.9500 4.3350
" />
<path d="M13.3490 4.3350
L13.3490 4.3580
" />
<path d="M13.3490 4.3580
L12.9500 4.3580
" />
<path d="M13.3490 4.3580
L13.3490 4.3350
" />
<path d="M14.2200 2.6900
L14.2200 2.7130
" />
<path d="M14.2200 2.6900
L14.6190 2.6900
" />
<path d="M14.2200 2.7130
L14.2200 2.6900
" />
<path d="M14.2200 2.7130
L14.6190 2.7130
" />
<path d="M14.2200 3.1140
L14.2200 2.7130
" />
<path d="M14.2200 3.9340
L14.3200 4.0330
" />
<path d="M14.2200 3.9340
L14.6190 3.9340
" />
<path d="M14.2200 4.3350
L14.2200 3.9340
" />
<path d="M14.2200 4.3580
L14.2200 4.3350
" />
<path d="M14.2200 4.3580
L14.2200 4.3350
" />
<path d="M14.3200 0.7500
L14.2330 1.0250
" />
<path d="M14.3200 0.7500
L14.5200 0.7500
" />
<path d="M14.3200 2.8150
L14.2200 2.7130
" />
<path d="M14.3200 2.8150
L14.3200 3.0150
" />
<path d="M14.3200 3.0150
L14.2200 3.1140
" />
<path d="M14.3200 3.0150
L14.5200 3.0150
" />
<path d="M14.3200 4.0330
L14.3200 4.2330
" />
<path d="M14.3200 4.2330
L14.2200 4.3350
" />
<path d="M14.3200 4.2330
L14.5200 4.2330
" />
<path d="M14.3200 6.2980
L14.2330 6.0240
" />
<path d="M14.5200 0.7500
L14.6050 1.0250
" />
<path d="M14.5200 2.8150
L14.3200 2.8150
" />
<path d="M14.5200 2.8150
L14.6190 2.7130
" />
<path d="M14.5200 3.0150
L14.5200 2.8150
" />
<path d="M14.5200 4.0330
L14.3200 4.0330
" />
<path d="M14.5200 4.0330
L14.6190 3.9340
" />
<path d="M14.5200 4.2330
L14.5200 4.0330
" />
<path d="M14.5200 4.2330
L14.6190 4.3350
" />
<path d="M14.5200 6.2980
L14.3200 6.2980
" />
<path d="M14.5200 6.2980
L14.6050 6.0240
" />
<path d="M14.6190 2.6900
L14.6190 2.7130
" />
<path d="M14.6190 2.6900
L14.6190 2.7130
" />
<path d="M14.6190 2.7130
L14.6190 3.1140
" />
<path d="M14.6190 3.1140
L14.2200 3.1140
" />
<path d="M14.6190 3.1140
L14.5200 3.0150
" />
<path d="M14.6190 3.9340
L14.6190 4.3350
" />
<path d="M14.6190 4.3350
L14.2200 4.3350
" />
<path d="M14.6190 4.3350
L14.6190 4.3580
" />
<path d="M14.6190 4.3580
L14.2200 4.3580
" />
<path d="M14.6190 4.3580
L14.6190 4.3350
" />
<path d="M15.1250 5.6250
L0.8500 5.6250
" />
<path d="M15.1250 5.6250
L15.1250 5.2240
" />
<path d="M15.1250 6.0240
L15.1250 5.6250
" />
<path d="M15.4900 2.6900
L15.4900 2.7130
" />
<path d="M15.4900 2.6900
L15.8900 2.6900
" />
<path d="M15.4900 2.7130
L15.4900 2.6900
" />
<path d="M15.4900 2.7130
L15.8900 2.7130
" />
<path d="M15.4900 3.1140
L15.4900 2.7130
" />
<path d="M15.4900 3.9340
L15.5900 4.0330
" />
<path d="M15.4900 3.9340
L15.8900 3.9340
" />
<path d="M15.4900 4.3350
L15.4900 3.9340
" />
<path d="M15.4900 4.3580
L15.4900 4.3350
" />
<path d="M15.4900 4.3580
L15.4900 4.3350
" />
<path d="M15.5900 0.7500
L15.5030 1.0250
" />
<path d="M15.5900 0.7500
L15.7880 0.7500
" />
<path d="M15.5900 2.8150
L15.4900 2.7130
" />
<path d="M15.5900 2.8150
L15.5900 3.0150
" />
<path d="M15.5900 3.0150
L15.4900 3.1140
" />
<path d="M15.5900 3.0150
L15.7880 3.0150
" />
<path d="M15.5900 4.0330
L15.5900 4.2330
" />
<path d="M15.5900 4.2330
L15.4900 4.3350
" />
<path d="M15.5900 4.2330
L15.7880 4.2330
" />
<path d="M15.5900 6.2980
L15.5030 6.0240
" />
<path d="M15.7880 0.7500
L15.8740 1.0250
" />
<path d="M15.7880 2.8150
L15.5900 2.8150
" />
<path d="M15.7880 2.8150
L15.8900 2.7130
" />
<path d="M15.7880 3.0150
L15.7880 2.8150
" />
<path d="M15.7880 4.0330
L15.5900 4.0330
" />
<path d="M15.7880 4.0330
L15.8900 3.9340
" />
<path d="M15.7880 4.2330
L15.7880 4.0330
" />
<path d="M15.7880 4.2330
L15.8900 4.3350
" />
<path d="M15.7880 6.2980
L15.5900 6.2980
" />
<path d="M15.7880 6.2980
L15.8740 6.0240
" />
<path d="M15.8900 2.6900
L15.8900 2.7130
" />
<path d="M15.8900 2.6900
L15.8900 2.7130
" />
<path d="M15.8900 2.7130
L15.8900 3.1140
" />
<path d="M15.8900 3.1140
L15.4900 3.1140
" />
<path d="M15.8900 3.1140
L15.7880 3.0150
" />
<path d="M15.8900 3.9340
L15.8900 4.3350
" />
<path d="M15.8900 4.3350
L15.4900 4.3350
" />
<path d="M15.8900 4.3350
L15.8900 4.3580
" />
<path d="M15.8900 4.3580
L15.4900 4.3580
" />
<path d="M15.8900 4.3580
L15.8900 4.3350
" />
<path d="M16.7580 2.6900
L16.7580 2.7130
" />
<path d="M16.7580 2.6900
L17.1580 2.6900
" />
<path d="M16.7580 2.7130
L16.7580 2.6900
" />
<path d="M16.7580 2.7130
L17.1580 2.7130
" />
<path d="M16.7580 3.1140
L16.7580 2.7130
" />
<path d="M16.7580 3.9340
L16.8600 4.0330
" />
<path d="M16.7580 3.9340
L17.1580 3.9340
" />
<path d="M16.7580 4.3350
L16.7580 3.9340
" />
<path d="M16.7580 4.3580
L16.7580 4.3350
" />
<path d="M16.7580 4.3580
L16.7580 4.3350
" />
<path d="M16.8600 0.7500
L16.7740 1.0250
" />
<path d="M16.8600 0.7500
L17.0580 0.7500
" />
<path d="M16.8600 2.8150
L16.7580 2.7130
" />
<path d="M16.8600 2.8150
L16.8600 3.0150
" />
<path d="M16.8600 3.0150
L16.7580 3.1140
" />
<path d="M16.8600 3.0150
L17.0580 3.0150
" />
<path d="M16.8600 4.0330
L16.8600 4.2330
" />
<path d="M16.8600 4.2330
L16.7580 4.3350
" />
<path d="M16.8600 4.2330
L17.0580 4.2330
" />
<path d="M16.8600 6.2980
L16.7740 6.0240
" />
<path d="M17.0580 0.7500
L17.1450 1.0250
" />
<path d="M17.0580 2.8150
L16.8600 2.8150
" />
<path d="M17.0580 2.8150
L17.1580 2.7130
" />
<path d="M17.0580 3.0150
L17.0580 2.8150
" />
<path d="M17.0580 4.0330
L16.8600 4.0330
" />
<path d="M17.0580 4.0330
L17.1580 3.9340
" />
<path d="M17.0580 4.2330
L17.0580 4.0330
" />
<path d="M17.0580 4.2330
L17.1580 4.3350
" />
<path d="M17.0580 6.2980
L16.8600 6.2980
" />
<path d="M17.0580 6.2980
L17.1450 6.0240
" />
<path d="M17.1580 2.6900
L17.1580 2.7130
" />
<path d="M17.1580 2.6900
L17.1580 2.7130
" />
<path d="M17.1580 2.7130
L17.1580 3.1140
" />
<path d="M17.1580 3.1140
L16.7580 3.1140
" />
<path d="M17.1580 3.1140
L17.0580 3.0150
" />
<path d="M17.1580 3.9340
L17.1580 4.3350
" />
<path d="M17.1580 4.3350
L16.7580 4.3350
" />
<path d="M17.1580 4.3350
L17.1580 4.3580
" />
<path d="M17.1580 4.3580
L16.7580 4.3580
" />
<path d="M17.1580 4.3580
L17.1580 4.3350
" />
<path d="M17.5240 5.2240
L17.5240 5.6250
" />
<path d="M17.5240 5.2240
L31.3980 5.2240
" />
<path d="M17.5240 5.6250
L17.5240 6.0240
" />
<path d="M17.5240 6.0240
L15.1250 6.0240
" />
<path d="M17.5240 6.0240
L32.1990 6.0240
" />
<path d="M18.0300 2.6900
L18.0300 2.7130
" />
<path d="M18.0300 2.6900
L18.4290 2.6900
" />
<path d="M18.0300 2.7130
L18.0300 2.6900
" />
<path d="M18.0300 2.7130
L18.4290 2.7130
" />
<path d="M18.0300 3.1140
L18.0300 2.7130
" />
<path d="M18.0300 3.9340
L18.1290 4.0330
" />
<path d="M18.0300 3.9340
L18.4290 3.9340
" />
<path d="M18.0300 4.3350
L18.0300 3.9340
" />
<path d="M18.0300 4.3580
L18.0300 4.3350
" />
<path d="M18.0300 4.3580
L18.0300 4.3350
" />
<path d="M18.1290 0.7500
L18.0440 1.0250
" />
<path d="M18.1290 0.7500
L18.3280 0.7500
" />
<path d="M18.1290 2.8150
L18.0300 2.7130
" />
<path d="M18.1290 2.8150
L18.1290 3.0150
" />
<path d="M18.1290 3.0150
L18.0300 3.1140
" />
<path d="M18.1290 3.0150
L18.3280 3.0150
" />
<path d="M18.1290 4.0330
L18.1290 4.2330
" />
<path d="M18.1290 4.2330
L18.0300 4.3350
" />
<path d="M18.1290 4.2330
L18.3280 4.2330
" />
<path d="M18.1290 6.2980
L18.0440 6.0240
" />
<path d="M18.3280 0.7500
L18.4140 1.0250
" />
<path d="M18.3280 2.8150
L18.1290 2.8150
" />
<path d="M18.3280 2.8150
L18.4290 2.7130
" />
<path d="M18.3280 3.0150
L18.3280 2.8150
" />
<path d="M18.3280 4.0330
L18.1290 4.0330
" />
<path d="M18.3280 4.0330
L18.4290 3.9340
" />
<path d="M18.3280 4.2330
L18.3280 4.0330
" />
<path d="M18.3280 4.2330
L18.4290 4.3350
" />
<path d="M18.3280 6.2980
L18.1290 6.2980
" />
<path d="M18.3280 6.2980
L18.4140 6.0240
" />
<path d="M18.4290 2.6900
L18.4290 2.7130
" />
<path d="M18.4290 2.6900
L18.4290 2.7130
" />
<path d="M18.4290 2.7130
L18.4290 3.1140
" />
<path d="M18.4290 3.1140
L18.0300 3.1140
" />
<path d="M18.4290 3.1140
L18.3280 3.0150
" />
<path d="M18.4290 3.9340
L18.4290 4.3350
" />
<path d="M18.4290 4.3350
L18.0300 4.3350
" />
<path d="M18.4290 4.3350
L18.4290 4.3580
" />
<path d="M18.4290 4.3580
L18.0300 4.3580
" />
<path d="M18.4290 4.3580
L18.4290 4.3350
" />
<path d="M19.3000 2.6900
L19.3000 2.7130
" />
<path d="M19.3000 2.6900
L19.6990 2.6900
" />
<path d="M19.3000 2.7130
L19.3000 2.6900
" />
<path d="M19.3000 2.7130
L19.6990 2.7130
" />
<path d="M19.3000 3.1140
L19.3000 2.7130
" />
<path d="M19.3000 3.9340
L19.4000 4.0330
" />
<path d="M19.3000 3.9340
L19.6990 3.9340
" />
<path d="M19.3000 4.3350
L19.3000 3.9340
" />
<path d="M19.3000 4.3580
L19.3000 4.3350
" />
<path d="M19.3000 4.3580
L19.3000 4.3350
" />
<path d="M19.4000 0.7500
L19.3130 1.0250
" />
<path d="M19.4000 0.7500
L19.5980 0.7500
" />
<path d="M19.4000 2.8150
L19.3000 2.7130
" />
<path d="M19.4000 2.8150
L19.4000 3.0150
" />
<path d="M19.4000 3.0150
L19.3000 3.1140
" />
<path d="M19.4000 3.0150
L19.5980 3.0150
" />
<path d="M19.4000 4.0330
L19.4000 4.2330
" />
<path d="M19.4000 4.2330
L19.3000 4.3350
" />
<path d="M19.4000 4.2330
L19.5980 4.2330
" />
<path d="M19.4000 6.2980
L19.3130 6.0240
" />
<path d="M19.5980 0.7500
L19.6840 1.0250
" />
<path d="M19.5980 2.8150
L19.4000 2.8150
" />
<path d="M19.5980 2.8150
L19.6990 2.7130
" />
<path d="M19.5980 3.0150
L19.5980 2.8150
" />
<path d="M19.5980 4.0330
L19.4000 4.0330
" />
<path d="M19.5980 4.0330
L19.6990 3.9340
" />
<path d="M19.5980 4.2330
L19.5980 4.0330
" />
<path d="M19.5980 4.2330
L19.6990 4.3350
" />
<path d="M19.5980 6.2980
L19.4000 6.2980
" />
<path d="M19.5980 6.2980
L19.6840 6.0240
" />
<path d="M19.6990 2.6900
L19.6990 2.7130
" />
<path d="M19.6990 2.6900
L19.6990 2.7130
" />
<path d="M19.6990 2.7130
L19.6990 3.1140
" />
<path d="M19.6990 3.1140
L19.3000 3.1140
" />
<path d="M19.6990 3.1140
L19.5980 3.0150
" />
<path d="M19.6990 3.9340
L19.6990 4.3350
" />
<path d="M19.6990 4.3350
L19.3000 4.3350
" />
<path d="M19.6990 4.3350
L19.6990 4.3580
" />
<path d="M19.6990 4.3580
L19.3000 4.3580
" />
<path d="M19.6990 4.3580
L19.6990 4.3350
" />
<path d="M20.5700 2.6900
L20.5700 2.7130
" />
<path d="M20.5700 2.6900
L20.9690 2.6900
" />
<path d="M20.5700 2.7130
L20.5700 2.6900
" />
<path d="M20.5700 2.7130
L20.9690 2.7130
" />
<path d="M20.5700 3.1140
L20.5700 2.7130
" />
<path d="M20.5700 3.9340
L20.6690 4.0330
" />
<path d="M20.5700 3.9340
L20.9690 3.9340
" />
<path d="M20.5700 4.3350
L20.5700 3.9340
" />
<path d="M20.5700 4.3580
L20.5700 4.3350
" />
<path d="M20.5700 4.3580
L20.5700 4.3350
" />
<path d="M20.6690 0.7500
L20.5840 1.0250
" />
<path d="M20.6690 0.7500
L20.8690 0.7500
" />
<path d="M20.6690 2.8150
L20.5700 2.7130
" />
<path d="M20.6690 2.8150
L20.6690 3.0150
" />
<path d="M20.6690 3.0150
L20.5700 3.1140
" />
<path d="M20.6690 3.0150
L20.8690 3.0150
" />
<path d="M20.6690 4.0330
L20.6690 4.2330
" />
<path d="M20.6690 4.2330
L20.5700 4.3350
" />
<path d="M20.6690 4.2330
L20.8690 4.2330
" />
<path d="M20.6690 6.2980
L20.5840 6.0240
" />
<path d="M20.8690 0.7500
L20.9540 1.0250
" />
<path d="M20.8690 2.8150
L20.6690 2.8150
" />
<path d="M20.8690 2.8150
L20.9690 2.7130
" />
<path d="M20.8690 3.0150
L20.8690 2.8150
" />
<path d="M20.8690 4.0330
L20.6690 4.0330
" />
<path d="M20.8690 4.0330
L20.9690 3.9340
" />
<path d="M20.8690 4.2330
L20.8690 4.0330
" />
<path d="M20.8690 4.2330
L20.9690 4.3350
" />
<path d="M20.8690 6.2980
L20.6690 6.2980
" />
<path d="M20.8690 6.2980
L20.9540 6.0240
" />
<path d="M20.9690 2.6900
L20.9690 2.7130
" />
<path d="M20.9690 2.6900
L20.9690 2.7130
" />
<path d="M20.9690 2.7130
L20.9690 3.1140
" />
<path d="M20.9690 3.1140
L20.5700 3.1140
" />
<path d="M20.9690 3.1140
L20.8690 3.0150
" />
<path d="M20.9690 3.9340
L20.9690 4.3350
" />
<path d="M20.9690 4.3350
L20.5700 4.3350
" />
<path d="M20.9690 4.3350
L20.9690 4.3580
" />
<path d="M20.9690 4.3580
L20.5700 4.3580
" />
<path d="M20.9690 4.3580
L20.9690 4.3350
" />
<path d="M21.8390 2.6900
L21.8390 2.7130
" />
<path d="M21.8390 2.6900
L22.2380 2.6900
" />
<path d="M21.8390 2.7130
L21.8390 2.6900
" />
<path d="M21.8390 2.7130
L22.2380 2.7130
" />
<path d="M21.8390 3.1140
L21.8390 2.7130
" />
<path d="M21.8390 3.9340
L21.9400 4.0330
" />
<path d="M21.8390 3.9340
L22.2380 3.9340
" />
<path d="M21.8390 4.3350
L21.8390 3.9340
" />
<path d="M21.8390 4.3580
L21.8390 4.3350
" />
<path d="M21.8390 4.3580
L21.8390 4.3350
" />
<path d="M21.9400 0.7500
L21.8530 1.0250
" />
<path d="M21.9400 0.7500
L22.1400 0.7500
" />
<path d="M21.9400 2.8150
L21.8390 2.7130
" />
<path d="M21.9400 2.8150
L21.9400 3.0150
" />
<path d="M21.9400 3.0150
L21.8390 3.1140
" />
<path d="M21.9400 3.0150
L22.1400 3.0150
" />
<path d="M21.9400 4.0330
L21.9400 4.2330
" />
<path d="M21.9400 4.2330
L21.8390 4.3350
" />
<path d="M21.9400 4.2330
L22.1400 4.2330
" />
<path d="M21.9400 6.2980
L21.8530 6.0240
" />
<path d="M22.1400 0.7500
L22.2250 1.0250
" />
<path d="M22.1400 2.8150
L21.9400 2.8150
" />
<path d="M22.1400 2.8150
L22.2380 2.7130
" />
<path d="M22.1400 3.0150
L22.1400 2.8150
" />
<path d="M22.1400 4.0330
L21.9400 4.0330
" />
<path d="M22.1400 4.0330
L22.2380 3.9340
" />
<path d="M22.1400 4.2330
L22.1400 4.0330
" />
<path d="M22.1400 4.2330
L22.2380 4.3350
" />
<path d="M22.1400 6.2980
L21.9400 6.2980
" />
<path d="M22.1400 6.2980
L22.2250 6.0240
" />
<path d="M22.2380 2.6900
L22.2380 2.7130
" />
<path d="M22.2380 2.6900
L22.2380 2.7130
" />
<path d="M22.2380 2.7130
L22.2380 3.1140
" />
<path d="M22.2380 3.1140
L21.8390 3.1140
" />
<path d="M22.2380 3.1140
L22.1400 3.0150
" />
<path d="M22.2380 3.9340
L22.2380 4.3350
" />
<path d="M22.2380 4.3350
L21.8390 4.3350
" />
<path d="M22.2380 4.3350
L22.2380 4.3580
" />
<path d="M22.2380 4.3580
L21.8390 4.3580
" />
<path d="M22.2380 4.3580
L22.2380 4.3350
" />
<path d="M23.1100 2.6900
L23.1100 2.7130
" />
<path d="M23.1100 2.6900
L23.5090 2.6900
" />
<path d="M23.1100 2.7130
L23.1100 2.6900
" />
<path d="M23.1100 2.7130
L23.5090 2.7130
" />
<path d="M23.1100 3.1140
L23.1100 2.7130
" />
<path d="M23.1100 3.9340
L23.2090 4.0330
" />
<path d="M23.1100 3.9340
L23.5090 3.9340
" />
<path d="M23.1100 4.3350
L23.1100 3.9340
" />
<path d="M23.1100 4.3580
L23.1100 4.3350
" />
<path d="M23.1100 4.3580
L23.1100 4.3350
" />
<path d="M23.2090 0.7500
L23.1240 1.0250
" />
<path d="M23.2090 0.7500
L23.4090 0.7500
" />
<path d="M23.2090 2.8150
L23.1100 2.7130
" />
<path d="M23.2090 2.8150
L23.2090 3.0150
" />
<path d="M23.2090 3.0150
L23.1100 3.1140
" />
<path d="M23.2090 3.0150
L23.4090 3.0150
" />
<path d="M23.2090 4.0330
L23.2090 4.2330
" />
<path d="M23.2090 4.2330
L23.1100 4.3350
" />
<path d="M23.2090 4.2330
L23.4090 4.2330
" />
<path d="M23.2090 6.2980
L23.1240 6.0240
" />
<path d="M23.4090 0.7500
L23.4940 1.0250
" />
<path d="M23.4090 2.8150
L23.2090 2.8150
" />
<path d="M23.4090 2.8150
L23.5090 2.7130
" />
<path d="M23.4090 3.0150
L23.4090 2.8150
" />
<path d="M23.4090 4.0330
L23.2090 4.0330
" />
<path d="M23.4090 4.0330
L23.5090 3.9340
" />
<path d="M23.4090 4.2330
L23.4090 4.0330
" />
<path d="M23.4090 4.2330
L23.5090 4.3350
" />
<path d="M23.4090 6.2980
L23.2090 6.2980
" />
<path d="M23.4090 6.2980
L23.4940 6.0240
" />
<path d="M23.5090 2.6900
L23.5090 2.7130
" />
<path d="M23.5090 2.6900
L23.5090 2.7130
" />
<path d="M23.5090 2.7130
L23.5090 3.1140
" />
<path d="M23.5090 3.1140
L23.1100 3.1140
" />
<path d="M23.5090 3.1140
L23.4090 3.0150
" />
<path d="M23.5090 3.9340
L23.5090 4.3350
" />
<path d="M23.5090 4.3350
L23.1100 4.3350
" />
<path d="M23.5090 4.3350
L23.5090 4.3580
" />
<path d="M23.5090 4.3580
L23.1100 4.3580
" />
<path d="M23.5090 4.3580
L23.5090 4.3350
" />
<path d="M24.3790 2.6900
L24.3790 2.7130
" />
<path d="M24.3790 2.6900
L24.7790 2.6900
" />
<path d="M24.3790 2.7130
L24.3790 2.6900
" />
<path d="M24.3790 2.7130
L24.7790 2.7130
" />
<path d="M24.3790 3.1140
L24.3790 2.7130
" />
<path d="M24.3790 3.9340
L24.4780 4.0330
" />
<path d="M24.3790 3.9340
L24.7790 3.9340
" />
<path d="M24.3790 4.3350
L24.3790 3.9340
" />
<path d="M24.3790 4.3580
L24.3790 4.3350
" />
<path d="M24.3790 4.3580
L24.3790 4.3350
" />
<path d="M24.4780 0.7500
L24.3940 1.0250
" />
<path d="M24.4780 0.7500
L24.6800 0.7500
" />
<path d="M24.4780 2.8150
L24.3790 2.7130
" />
<path d="M24.4780 2.8150
L24.4780 3.0150
" />
<path d="M24.4780 3.0150
L24.3790 3.1140
" />
<path d="M24.4780 3.0150
L24.6800 3.0150
" />
<path d="M24.4780 4.0330
L24.4780 4.2330
" />
<path d="M24.4780 4.2330
L24.3790 4.3350
" />
<path d="M24.4780 4.2330
L24.6800 4.2330
" />
<path d="M24.4780 6.2980
L24.3940 6.0240
" />
<path d="M24.6800 0.7500
L24.7640 1.0250
" />
<path d="M24.6800 2.8150
L24.4780 2.8150
" />
<path d="M24.6800 2.8150
L24.7790 2.7130
" />
<path d="M24.6800 3.0150
L24.6800 2.8150
" />
<path d="M24.6800 4.0330
L24.4780 4.0330
" />
<path d="M24.6800 4.0330
L24.7790 3.9340
" />
<path d="M24.6800 4.2330
L24.6800 4.0330
" />
<path d="M24.6800 4.2330
L24.7790 4.3350
" />
<path d="M24.6800 6.2980
L24.4780 6.2980
" />
<path d="M24.6800 6.2980
L24.7640 6.0240
" />
<path d="M24.7790 2.6900
L24.7790 2.7130
" />
<path d="M24.7790 2.6900
L24.7790 2.7130
" />
<path d="M24.7790 2.7130
L24.7790 3.1140
" />
<path d="M24.7790 3.1140
L24.3790 3.1140
" />
<path d="M24.7790 3.1140
L24.6800 3.0150
" />
<path d="M24.7790 3.9340
L24.7790 4.3350
" />
<path d="M24.7790 4.3350
L24.3790 4.3350
" />
<path d="M24.7790 4.3350
L24.7790 4.3580
" />
<path d="M24.7790 4.3580
L24.3790 4.3580
" />
<path d="M24.7790 4.3580
L24.7790 4.3350
" />
<path d="M25.6480 2.6900
L25.6480 2.7130
" />
<path d="M25.6480 2.6900
L26.0480 2.6900
" />
<path d="M25.6480 2.7130
L25.6480 2.6900
" />
<path d="M25.6480 2.7130
L26.0480 2.7130
" />
<path d="M25.6480 3.1140
L25.6480 2.7130
" />
<path d="M25.6480 3.9340
L25.7500 4.0330
" />
<path d="M25.6480 3.9340
L26.0480 3.9340
" />
<path d="M25.6480 4.3350
L25.6480 3.9340
" />
<path d="M25.6480 4.3580
L25.6480 4.3350
" />
<path d="M25.6480 4.3580
L25.6480 4.3350
" />
<path d="M25.7500 0.7500
L25.6640 1.0250
" />
<path d="M25.7500 0.7500
L25.9490 0.7500
" />
<path d="M25.7500 2.8150
L25.6480 2.7130
" />
<path d="M25.7500 2.8150
L25.7500 3.0150
" />
<path d="M25.7500 3.0150
L25.6480 3.1140
" />
<path d="M25.7500 3.0150
L25.9490 3.0150
" />
<path d="M25.7500 4.0330
L25.7500 4.2330
" />
<path d="M25.7500 4.2330
L25.6480 4.3350
" />
<path d="M25.7500 4.2330
L25.9490 4.2330
" />
<path d="M25.7500 6.2980
L25.6640 6.0240
" />
<path d="M25.9490 0.7500
L26.0350 1.0250
" />
<path d="M25.9490 2.8150
L25.7500 2.8150
" />
<path d="M25.9490 2.8150
L26.0480 2.7130
" />
<path d="M25.9490 3.0150
L25.9490 2.8150
" />
<path d="M25.9490 4.0330
L25.7500 4.0330
" />
<path d="M25.9490 4.0330
L26.0480 3.9340
" />
<path d="M25.9490 4.2330
L25.9490 4.0330
" />
<path d="M25.9490 4.2330
L26.0480 4.3350
" />
<path d="M25.9490 6.2980
L25.7500 6.2980
" />
<path d="M25.9490 6.2980
L26.0350 6.0240
" />
<path d="M26.0480 2.6900
L26.0480 2.7130
" />
<path d="M26.0480 2.6900
L26.0480 2.7130
" />
<path d="M26.0480 2.7130
L26.0480 3.1140
" />
<path d="M26.0480 3.1140
L25.6480 3.1140
" />
<path d="M26.0480 3.1140
L25.9490 3.0150
" />
<path d="M26.0480 3.9340
L26.0480 4.3350
" />
<path d="M26.0480 4.3350
L25.6480 4.3350
" />
<path d="M26.0480 4.3350
L26.0480 4.3580
" />
<path d="M26.0480 4.3580
L25.6480 4.3580
" />
<path d="M26.0480 4.3580
L26.0480 4.3350
" />
<path d="M26.9200 2.6900
L26.9200 2.7130
" />
<path d="M26.9200 2.6900
L27.3180 2.6900
" />
<path d="M26.9200 2.7130
L26.9200 2.6900
" />
<path d="M26.9200 2.7130
L27.3180 2.7130
" />
<path d="M26.9200 3.1140
L26.9200 2.7130
" />
<path d="M26.9200 3.9340
L27.0200 4.0330
" />
<path d="M26.9200 3.9340
L27.3180 3.9340
" />
<path d="M26.9200 4.3350
L26.9200 3.9340
" />
<path d="M26.9200 4.3580
L26.9200 4.3350
" />
<path d="M26.9200 4.3580
L26.9200 4.3350
" />
<path d="M27.0200 0.7500
L26.9330 1.0250
" />
<path d="M27.0200 0.7500
L27.2180 0.7500
" />
<path d="M27.0200 2.8150
L26.9200 2.7130
" />
<path d="M27.0200 2.8150
L27.0200 3.0150
" />
<path d="M27.0200 3.0150
L26.9200 3.1140
" />
<path d="M27.0200 3.0150
L27.2180 3.0150
" />
<path d="M27.0200 4.0330
L27.0200 4.2330
" />
<path d="M27.0200 4.2330
L26.9200 4.3350
" />
<path d="M27.0200 4.2330
L27.2180 4.2330
" />
<path d="M27.0200 6.2980
L26.9330 6.0240
" />
<path d="M27.2180 0.7500
L27.3050 1.0250
" />
<path d="M27.2180 2.8150
L27.0200 2.8150
" />
<path d="M27.2180 2.8150
L27.3180 2.7130
" />
<path d="M27.2180 3.0150
L27.2180 2.8150
" />
<path d="M27.2180 4.0330
L27.0200 4.0330
" />
<path d="M27.2180 4.0330
L27.3180 3.9340
" />
<path d="M27.2180 4.2330
L27.2180 4.0330
" />
<path d="M27.2180 4.2330
L27.3180 4.3350
" />
<path d="M27.2180 6.2980
L27.0200 6.2980
" />
<path d="M27.2180 6.2980
L27.3050 6.0240
" />
<path d="M27.3180 2.6900
L27.3180 2.7130
" />
<path d="M27.3180 2.6900
L27.3180 2.7130
" />
<path d="M27.3180 2.7130
L27.3180 3.1140
" />
<path d="M27.3180 3.1140
L26.9200 3.1140
" />
<path d="M27.3180 3.1140
L27.2180 3.0150
" />
<path d="M27.3180 3.9340
L27.3180 4.3350
" />
<path d="M27.3180 4.3350
L26.9200 4.3350
" />
<path d="M27.3180 4.3350
L27.3180 4.3580
" />
<path d="M27.3180 4.3580
L26.9200 4.3580
" />
<path d="M27.3180 4.3580
L27.3180 4.3350
" />
<path d="M28.1890 2.6900
L28.1890 2.7130
" />
<path d="M28.1890 2.6900
L28.5900 2.6900
" />
<path d="M28.1890 2.7130
L28.1890 2.6900
" />
<path d="M28.1890 2.7130
L28.5900 2.7130
" />
<path d="M28.1890 3.1140
L28.1890 2.7130
" />
<path d="M28.1890 3.9340
L28.2890 4.0330
" />
<path d="M28.1890 3.9340
L28.5900 3.9340
" />
<path d="M28.1890 4.3350
L28.1890 3.9340
" />
<path d="M28.1890 4.3580
L28.1890 4.3350
" />
<path d="M28.1890 4.3580
L28.1890 4.3350
" />
<path d="M28.2890 0.7500
L28.2030 1.0250
" />
<path d="M28.2890 0.7500
L28.4880 0.7500
" />
<path d="M28.2890 2.8150
L28.1890 2.7130
" />
<path d="M28.2890 2.8150
L28.2890 3.0150
" />
<path d="M28.2890 3.0150
L28.1890 3.1140
" />
<path d="M28.2890 3.0150
L28.4880 3.0150
" />
<path d="M28.2890 4.0330
L28.2890 4.2330
" />
<path d="M28.2890 4.2330
L28.1890 4.3350
" />
<path d="M28.2890 4.2330
L28.4880 4.2330
" />
<path d="M28.2890 6.2980
L28.2030 6.0240
" />
<path d="M28.4880 0.7500
L28.5740 1.0250
" />
<path d="M28.4880 2.8150
L28.2890 2.8150
" />
<path d="M28.4880 2.8150
L28.5900 2.7130
" />
<path d="M28.4880 3.0150
L28.4880 2.8150
" />
<path d="M28.4880 4.0330
L28.2890 4.0330
" />
<path d="M28.4880 4.0330
L28.5900 3.9340
" />
<path d="M28.4880 4.2330
L28.4880 4.0330
" />
<path d="M28.4880 4.2330
L28.5900 4.3350
" />
<path d="M28.4880 6.2980
L28.2890 6.2980
" />
<path d="M28.4880 6.2980
L28.5740 6.0240
" />
<path d="M28.5900 2.6900
L28.5900 2.7130
" />
<path d="M28.5900 2.6900
L28.5900 2.7130
" />
<path d="M28.5900 2.7130
L28.5900 3.1140
" />
<path d="M28.5900 3.1140
L28.1890 3.1140
" />
<path d="M28.5900 3.1140
L28.4880 3.0150
" />
<path d="M28.5900 3.9340
L28.5900 4.3350
" />
<path d="M28.5900 4.3350
L28.1890 4.3350
" />
<path d="M28.5900 4.3350
L28.5900 4.3580
" />
<path d="M28.5900 4.3580
L28.1890 4.3580
" />
<path d="M28.5900 4.3580
L28.5900 4.3350
" />
<path d="M31.3980 1.8250
L1.2490 1.8250
" />
<path d="M31.3980 5.2240
L31.3980 1.8250
" />
<path d="M31.7980 1.4240
L31.3980 1.8250
" />
<path d="M31.7980 1.4240
L31.7980 5.6250
" />
<path d="M31.7980 5.6250
L17.5240 5.6250
" />
<path d="M31.7980 5.6250
L31.3980 5.2240
" />
<path d="M32.1990 6.0240
L32.1990 1.0250
" />
</g> 
</svg>
