{
  "accessors": [
    {
      "bufferView": 0,
      "byteOffset": 0,
      "componentType": 5126,
      "normalized": false,
      "count": 46906,
      "type": "VEC3",
      "max": [
        2.10149884223938,
        0.2498747706413269,
        1.839130163192749
      ],
      "min": [
        -2.598499059677124,
        0.0,
        -1.9109995365142822
      ]
    },
    {
      "bufferView": 0,
      "byteOffset": 12,
      "componentType": 5126,
      "normalized": false,
      "count": 46906,
      "type": "VEC3"
    },
    {
      "bufferView": 0,
      "byteOffset": 24,
      "componentType": 5126,
      "normalized": false,
      "count": 46906,
      "type": "VEC2"
    },
    {
      "bufferView": 0,
      "byteOffset": 32,
      "componentType": 5126,
      "normalized": false,
      "count": 46906,
      "type": "VEC2"
    },
    {
      "bufferView": 1,
      "byteOffset": 0,
      "componentType": 5123,
      "normalized": false,
      "count": 266616,
      "type": "SCALAR"
    },
    {
      "bufferView": 1,
      "byteOffset": 533232,
      "componentType": 5123,
      "normalized": false,
      "count": 36,
      "type": "SCALAR"
    },
    {
      "bufferView": 1,
      "byteOffset": 533304,
      "componentType": 5123,
      "normalized": false,
      "count": 12,
      "type": "SCALAR"
    },
    {
      "bufferView": 1,
      "byteOffset": 533328,
      "componentType": 5123,
      "normalized": false,
      "count": 24,
      "type": "SCALAR"
    },
    {
      "bufferView": 2,
      "byteOffset": 0,
      "componentType": 5126,
      "normalized": false,
      "count": 24,
      "type": "VEC3",
      "max": [
        1.9469999074935913,
        0.3199332654476166,
        1.2264840602874756
      ],
      "min": [
        -1.9490000009536743,
        0.26499974727630615,
        -1.2265000343322754
      ]
    },
    {
      "bufferView": 2,
      "byteOffset": 12,
      "componentType": 5126,
      "normalized": false,
      "count": 24,
      "type": "VEC3"
    },
    {
      "bufferView": 2,
      "byteOffset": 24,
      "componentType": 5126,
      "normalized": false,
      "count": 24,
      "type": "VEC2"
    },
    {
      "bufferView": 2,
      "byteOffset": 32,
      "componentType": 5126,
      "normalized": false,
      "count": 24,
      "type": "VEC2"
    },
    {
      "bufferView": 3,
      "byteOffset": 0,
      "componentType": 5126,
      "normalized": false,
      "count": 24,
      "type": "VEC3",
      "max": [
        2.369999885559082,
        0.34995752573013306,
        2.195601463317871
      ],
      "min": [
        -2.867000102996826,
        0.309999942779541,
        -2.2674999237060547
      ]
    },
    {
      "bufferView": 3,
      "byteOffset": 12,
      "componentType": 5126,
      "normalized": false,
      "count": 24,
      "type": "VEC3"
    },
    {
      "bufferView": 3,
      "byteOffset": 24,
      "componentType": 5126,
      "normalized": false,
      "count": 24,
      "type": "VEC2"
    },
    {
      "bufferView": 3,
      "byteOffset": 32,
      "componentType": 5126,
      "normalized": false,
      "count": 24,
      "type": "VEC2"
    },
    {
      "bufferView": 4,
      "byteOffset": 0,
      "componentType": 5126,
      "normalized": false,
      "count": 8,
      "type": "VEC3",
      "max": [
        2.369999885559082,
        0.3099689185619354,
        2.195601463317871
      ],
      "min": [
        -2.867000102996826,
        0.12999999523162842,
        -2.2674999237060547
      ]
    },
    {
      "bufferView": 4,
      "byteOffset": 12,
      "componentType": 5126,
      "normalized": false,
      "count": 8,
      "type": "VEC3"
    },
    {
      "bufferView": 4,
      "byteOffset": 24,
      "componentType": 5126,
      "normalized": false,
      "count": 8,
      "type": "VEC2"
    },
    {
      "bufferView": 4,
      "byteOffset": 32,
      "componentType": 5126,
      "normalized": false,
      "count": 8,
      "type": "VEC2"
    },
    {
      "bufferView": 5,
      "byteOffset": 0,
      "componentType": 5126,
      "normalized": false,
      "count": 16,
      "type": "VEC3",
      "max": [
        2.369999885559082,
        0.3099689185619354,
        2.195601463317871
      ],
      "min": [
        -2.867000102996826,
        0.12999999523162842,
        -2.2674999237060547
      ]
    },
    {
      "bufferView": 5,
      "byteOffset": 12,
      "componentType": 5126,
      "normalized": false,
      "count": 16,
      "type": "VEC3"
    },
    {
      "bufferView": 5,
      "byteOffset": 24,
      "componentType": 5126,
      "normalized": false,
      "count": 16,
      "type": "VEC2"
    },
    {
      "bufferView": 5,
      "byteOffset": 32,
      "componentType": 5126,
      "normalized": false,
      "count": 16,
      "type": "VEC2"
    }
  ],
  "asset": {
    "generator": "pygltflib@v1.16.5",
    "version": "2.0"
  },
  "bufferViews": [
    {
      "buffer": 0,
      "byteOffset": 0,
      "byteLength": 1876240,
      "byteStride": 40,
      "target": 34962
    },
    {
      "buffer": 0,
      "byteOffset": 1876240,
      "byteLength": 533376,
      "target": 34963
    },
    {
      "buffer": 0,
      "byteOffset": 2409616,
      "byteLength": 960,
      "byteStride": 40,
      "target": 34962
    },
    {
      "buffer": 0,
      "byteOffset": 2410576,
      "byteLength": 960,
      "byteStride": 40,
      "target": 34962
    },
    {
      "buffer": 0,
      "byteOffset": 2411536,
      "byteLength": 320,
      "byteStride": 40,
      "target": 34962
    },
    {
      "buffer": 0,
      "byteOffset": 2411856,
      "byteLength": 640,
      "byteStride": 40,
      "target": 34962
    }
  ],
  "buffers": [
    {
      "uri": "OV9281.bin",
      "byteLength": 2412496
    }
  ],
  "extensionsUsed": [
    "KHR_materials_anisotropy",
    "KHR_materials_clearcoat",
    "KHR_materials_ior",
    "KHR_materials_sheen",
    "KHR_materials_specular",
    "KHR_materials_transmission"
  ],
  "materials": [
    {
      "extensions": {
        "KHR_materials_ior": {
          "ior": 1.4500000476837158
        },
        "KHR_materials_specular": {
          "specularFactor": 0
        }
      },
      "pbrMetallicRoughness": {
        "baseColorFactor": [
          0.5394713282585144,
          0.5457167029380798,
          0.5775790810585022,
          1.0
        ],
        "metallicFactor": 0.7818182110786438,
        "roughnessFactor": 0.28863638639450073
      },
      "emissiveFactor": [
        0.0,
        0.0,
        0.0
      ],
      "alphaMode": "OPAQUE",
      "doubleSided": true,
      "name": "gltf_metal_pins"
    },
    {
      "extensions": {
        "KHR_materials_anisotropy": {
          "anisotropyStrength": 0.6386363506317139,
          "anisotropyRotation": 0.7568381637931133
        },
        "KHR_materials_clearcoat": {
          "clearcoatFactor": 0,
          "clearcoatRoughnessFactor": 0
        },
        "KHR_materials_ior": {
          "ior": 1.4500000476837158
        },
        "KHR_materials_specular": {
          "specularColorFactor": [
            1.5681818723678589,
            1.5681818723678589,
            1.5681818723678589
          ]
        }
      },
      "pbrMetallicRoughness": {
        "baseColorFactor": [
          0.8227841854095459,
          0.8227841854095459,
          0.8227841854095459,
          1.0
        ],
        "metallicFactor": 0.8318182229995728,
        "roughnessFactor": 0.029544999822974205
      },
      "emissiveFactor": [
        0.0,
        0.0,
        0.0
      ],
      "alphaMode": "OPAQUE",
      "doubleSided": true,
      "name": "gltf_bare-die-silicon"
    },
    {
      "extensions": {
        "KHR_materials_clearcoat": {
          "clearcoatFactor": 0,
          "clearcoatRoughnessFactor": 0.67090904712677
        },
        "KHR_materials_ior": {
          "ior": 1.399999976158142
        },
        "KHR_materials_sheen": {
          "sheenColorFactor": [
            1,
            1,
            1
          ],
          "sheenRoughnessFactor": 0.5
        },
        "KHR_materials_specular": {
          "specularColorFactor": [
            1.3181817531585693,
            1.3181817531585693,
            1.3181817531585693
          ]
        },
        "KHR_materials_transmission": {
          "transmissionFactor": 0.9227272868156433
        }
      },
      "pbrMetallicRoughness": {
        "baseColorFactor": [
          0.37123918533325195,
          0.37123918533325195,
          0.37123918533325195,
          0.6363636255264282
        ],
        "metallicFactor": 0.019999999552965164,
        "roughnessFactor": 0.904545247554779
      },
      "emissiveFactor": [
        0.0,
        0.0,
        0.0
      ],
      "alphaMode": "BLEND",
      "doubleSided": true,
      "name": "gltf_half_transparent_white"
    },
    {
      "extensions": {
        "KHR_materials_clearcoat": {
          "clearcoatFactor": 0.14230769872665405,
          "clearcoatRoughnessFactor": 0
        }
      },
      "extras": {
        "blenderkit": {
          "name": "Matte plastic",
          "description": "very simple roughness variated plastic",
          "tags": "plastic, touched, green",
          "is_generating_thumbnail": 0,
          "thumbnail": "//matte plastic _0000.png",
          "shaders": "principled, ",
          "upload_state": "uploaded metadata",
          "has_thumbnail": 1,
          "asset_base_id": "cb48a41d-6fc7-47b3-bd08-45275cfed0c2",
          "id": "62a6d8a0-393f-4bdd-9d1d-896fea3ca0be",
          "uploading": 0,
          "rating_quality": -1,
          "thumbnail_scale": 0.20000000298023224,
          "name_changed": 0,
          "name_old": "Matte plastic",
          "category": 24,
          "texture_resolution_max": 0,
          "texture_resolution_min": 0
        },
        "asset_data": {
          "thumbnail": "thumbnail_0f84bee4-0378-4bcd-8e2e-16a60a09613d.png.1024x1024_q85_crop-%2C.png",
          "thumbnail_small": "thumbnail_0f84bee4-0378-4bcd-8e2e-16a60a09613d.png.96x96_q85_crop-%2C.png",
          "download_url": "https://www.blenderkit.com/api/v1/downloads/5399/",
          "tooltip": "Matte plastic\n\nvery simple roughness variated plastic\n\nfiles size: 852KB\ntexture size: 1.0m\nlicense: royalty_free\n",
          "downloaded": 0,
          "texture_size_meters": 1,
          "thumbnail_%i": "thumbnail_0f84bee4-0378-4bcd-8e2e-16a60a09613d.png.1024x1024_q85_crop-%2C.png",
          "url": "https://public.blenderkit.com/public-assets/assets/62a6d8a0393f4bdd9d1d896fea3ca0be/files/blend_225be883-9a22-46c5-9b57-8786c2a32418.blend",
          "id": "62a6d8a0-393f-4bdd-9d1d-896fea3ca0be",
          "assetBaseId": "cb48a41d-6fc7-47b3-bd08-45275cfed0c2",
          "versionNumber": 1,
          "author": {
            "id": "2",
            "firstName": "Vil\u00e9m",
            "lastName": "Duha",
            "gravatarHash": "7d60f17cdce549f0f0159215cd006ae9",
            "avatar128": "/avatar-redirect/95cf3d26-35ba-41b0-84f1-55ee67cbeae4/128/",
            "aboutMe": "On this account we store assets created by BlenderKit team.",
            "aboutMeUrl": "https://www.blenderkit.com/about"
          },
          "name": "Matte plastic",
          "displayName": "Matte plastic",
          "description": "very simple roughness variated plastic",
          "assetType": "material",
          "category": "plastic",
          "adult": 0,
          "isFree": 1,
          "tags": [
            "plastic",
            "touched",
            "green",
            "non-manifold",
            "non-manifold",
            "non-manifold"
          ],
          "license": "royalty_free",
          "parameters": [
            {
              "parameterType": "textureSizeMeters",
              "value": 1
            },
            {
              "parameterType": "material_style",
              "value": "realistic"
            },
            {
              "parameterType": "purePbr",
              "value": 0
            },
            {
              "parameterType": "engine",
              "value": "cycles"
            },
            {
              "parameterType": "shaders",
              "value": [
                "principled"
              ]
            },
            {
              "parameterType": "animated",
              "value": 0
            },
            {
              "parameterType": "uv",
              "value": 0
            }
          ],
          "sourceAppName": "blender",
          "sourceAppVersion": "2.80.74",
          "addonVersion": "1.0.24",
          "created": "2019-06-11T10:47:32.996203+02:00",
          "verificationStatus": "validated",
          "isPrivate": 0,
          "files": [
            {
              "fileType": "blend",
              "downloadUrl": "https://www.blenderkit.com/api/v1/downloads/5399/"
            },
            {
              "fileType": "thumbnail",
              "downloadUrl": "https://www.blenderkit.com/api/v1/downloads/5398/",
              "fileThumbnail": "https://public.blenderkit.com/thumbnails/assets/62a6d8a0393f4bdd9d1d896fea3ca0be/files/thumbnail_0f84bee4-0378-4bcd-8e2e-16a60a09613d.png.96x96_q85_crop-%2C.png",
              "fileThumbnailLarge": "https://public.blenderkit.com/thumbnails/assets/62a6d8a0393f4bdd9d1d896fea3ca0be/files/thumbnail_0f84bee4-0378-4bcd-8e2e-16a60a09613d.png.1024x1024_q85_crop-%2C.png"
            }
          ],
          "filesSize": 58196,
          "thumbnailSmallUrl": "https://public.blenderkit.com/thumbnails/assets/62a6d8a0393f4bdd9d1d896fea3ca0be/files/thumbnail_0f84bee4-0378-4bcd-8e2e-16a60a09613d.png.256x256_q85_crop-%2C.png",
          "thumbnailMiddleUrl": "https://public.blenderkit.com/thumbnails/assets/62a6d8a0393f4bdd9d1d896fea3ca0be/files/thumbnail_0f84bee4-0378-4bcd-8e2e-16a60a09613d.png.512x512_q85_crop-%2C.png",
          "thumbnailLargeUrl": "https://public.blenderkit.com/thumbnails/assets/62a6d8a0393f4bdd9d1d896fea3ca0be/files/thumbnail_0f84bee4-0378-4bcd-8e2e-16a60a09613d.png.1024x1024_q85_crop-%2C.png",
          "thumbnailXlargeUrl": "https://public.blenderkit.com/thumbnails/assets/62a6d8a0393f4bdd9d1d896fea3ca0be/files/thumbnail_0f84bee4-0378-4bcd-8e2e-16a60a09613d.png.1024x1024_q85_crop-%2C.png",
          "thumbnailSmallUrlNonsquared": "https://public.blenderkit.com/thumbnails/assets/62a6d8a0393f4bdd9d1d896fea3ca0be/files/thumbnail_0f84bee4-0378-4bcd-8e2e-16a60a09613d.png.256x256_q85.png",
          "thumbnailMiddleUrlNonsquared": "https://public.blenderkit.com/thumbnails/assets/62a6d8a0393f4bdd9d1d896fea3ca0be/files/thumbnail_0f84bee4-0378-4bcd-8e2e-16a60a09613d.png.512x512_q85.png",
          "thumbnailLargeUrlNonsquared": "https://public.blenderkit.com/thumbnails/assets/62a6d8a0393f4bdd9d1d896fea3ca0be/files/thumbnail_0f84bee4-0378-4bcd-8e2e-16a60a09613d.png.1024x1024_q85.png",
          "thumbnailXlargeUrlNonsquared": "https://public.blenderkit.com/thumbnails/assets/62a6d8a0393f4bdd9d1d896fea3ca0be/files/thumbnail_0f84bee4-0378-4bcd-8e2e-16a60a09613d.png.2048x2048_q85.png",
          "showMarketingLabels": 1,
          "score": 192,
          "ratingsMedian": {
            "quality": 8.5,
            "workingHours": 2.4
          },
          "ratingsAverage": {
            "quality": 8,
            "workingHours": 2.4
          },
          "ratingsCount": {
            "competition-2022-votes": 0,
            "complexity": 0,
            "virtualPriceAdmin": 0,
            "virtualPrice": 0,
            "quality": 8,
            "workingHours": 8,
            "complexityAdmin": 0
          },
          "ratingsSum": {
            "quality": 64,
            "workingHours": 17.7
          },
          "canDownload": 1,
          "canDownloadError": 1,
          "file_name": "blend_225be883-9a22-46c5-9b57-8786c2a32418.blend"
        }
      },
      "pbrMetallicRoughness": {
        "baseColorFactor": [
          0.009721336886286736,
          0.019382169470191002,
          0.014443810097873211,
          1.0
        ],
        "metallicFactor": 0.0,
        "roughnessFactor": 0.7409999966621399
      },
      "emissiveFactor": [
        0.0,
        0.0,
        0.0
      ],
      "alphaMode": "OPAQUE",
      "doubleSided": true,
      "name": "gltf_composite_darkgreen_2"
    },
    {
      "extensions": {
        "KHR_materials_clearcoat": {
          "clearcoatFactor": 0,
          "clearcoatRoughnessFactor": 0
        },
        "KHR_materials_ior": {
          "ior": 1.4500000476837158
        },
        "KHR_materials_specular": {
          "specularFactor": 0
        }
      },
      "pbrMetallicRoughness": {
        "baseColorFactor": [
          0.18116165697574615,
          0.19806824624538422,
          0.11697196960449219,
          1.0
        ],
        "metallicFactor": 0.10000000149011612,
        "roughnessFactor": 0.5
      },
      "emissiveFactor": [
        0.0,
        0.0,
        0.0
      ],
      "alphaMode": "OPAQUE",
      "doubleSided": true,
      "name": "gltf_pcb_edge"
    }
  ],
  "meshes": [
    {
      "primitives": [
        {
          "attributes": {
            "POSITION": 0,
            "NORMAL": 1,
            "TEXCOORD_0": 2,
            "TEXCOORD_1": 3
          },
          "indices": 4,
          "mode": 4,
          "material": 0
        },
        {
          "attributes": {
            "POSITION": 8,
            "NORMAL": 9,
            "TEXCOORD_0": 10,
            "TEXCOORD_1": 11
          },
          "indices": 5,
          "mode": 4,
          "material": 1
        },
        {
          "attributes": {
            "POSITION": 12,
            "NORMAL": 13,
            "TEXCOORD_0": 14,
            "TEXCOORD_1": 15
          },
          "indices": 5,
          "mode": 4,
          "material": 2
        },
        {
          "attributes": {
            "POSITION": 16,
            "NORMAL": 17,
            "TEXCOORD_0": 18,
            "TEXCOORD_1": 19
          },
          "indices": 6,
          "mode": 4,
          "material": 3
        },
        {
          "attributes": {
            "POSITION": 20,
            "NORMAL": 21,
            "TEXCOORD_0": 22,
            "TEXCOORD_1": 23
          },
          "indices": 7,
          "mode": 4,
          "material": 4
        }
      ],
      "name": "Sphere.001"
    }
  ],
  "nodes": [
    {
      "extras": {
        "model_diagonal": 6.889632516544551
      },
      "mesh": 0,
      "name": "ImageSensor_OV9281"
    }
  ],
  "scene": 0,
  "scenes": [
    {
      "extras": {
        "vrm_addon_extension": {
          "vrm0_material_gltf_property_names": [
            {
              "name": "_Color",
              "value": "_Color"
            },
            {
              "name": "_MainTex_ST",
              "value": "_MainTex_ST"
            },
            {
              "name": "_MainTex_ST_S",
              "value": "_MainTex_ST_S"
            },
            {
              "name": "_MainTex_ST_T",
              "value": "_MainTex_ST_T"
            },
            {
              "name": "_MetallicGlossMap_ST",
              "value": "_MetallicGlossMap_ST"
            },
            {
              "name": "_MetallicGlossMap_ST_S",
              "value": "_MetallicGlossMap_ST_S"
            },
            {
              "name": "_MetallicGlossMap_ST_T",
              "value": "_MetallicGlossMap_ST_T"
            },
            {
              "name": "_BumpMap_ST",
              "value": "_BumpMap_ST"
            },
            {
              "name": "_BumpMap_ST_S",
              "value": "_BumpMap_ST_S"
            },
            {
              "name": "_BumpMap_ST_T",
              "value": "_BumpMap_ST_T"
            },
            {
              "name": "_ParallaxMap_ST",
              "value": "_ParallaxMap_ST"
            },
            {
              "name": "_ParallaxMap_ST_S",
              "value": "_ParallaxMap_ST_S"
            },
            {
              "name": "_ParallaxMap_ST_T",
              "value": "_ParallaxMap_ST_T"
            },
            {
              "name": "_OcclusionMap_ST",
              "value": "_OcclusionMap_ST"
            },
            {
              "name": "_OcclusionMap_ST_S",
              "value": "_OcclusionMap_ST_S"
            },
            {
              "name": "_OcclusionMap_ST_T",
              "value": "_OcclusionMap_ST_T"
            },
            {
              "name": "_EmissionColor",
              "value": "_EmissionColor"
            },
            {
              "name": "_EmissionMap_ST",
              "value": "_EmissionMap_ST"
            },
            {
              "name": "_EmissionMap_ST_S",
              "value": "_EmissionMap_ST_S"
            },
            {
              "name": "_EmissionMap_ST_T",
              "value": "_EmissionMap_ST_T"
            },
            {
              "name": "_DetailMask_ST",
              "value": "_DetailMask_ST"
            },
            {
              "name": "_DetailMask_ST_S",
              "value": "_DetailMask_ST_S"
            },
            {
              "name": "_DetailMask_ST_T",
              "value": "_DetailMask_ST_T"
            },
            {
              "name": "_DetailAlbedoMap_ST",
              "value": "_DetailAlbedoMap_ST"
            },
            {
              "name": "_DetailAlbedoMap_ST_S",
              "value": "_DetailAlbedoMap_ST_S"
            },
            {
              "name": "_DetailAlbedoMap_ST_T",
              "value": "_DetailAlbedoMap_ST_T"
            },
            {
              "name": "_DetailNormalMap_ST",
              "value": "_DetailNormalMap_ST"
            },
            {
              "name": "_DetailNormalMap_ST_S",
              "value": "_DetailNormalMap_ST_S"
            },
            {
              "name": "_DetailNormalMap_ST_T",
              "value": "_DetailNormalMap_ST_T"
            }
          ],
          "vrm0_material_mtoon0_property_names": [
            {
              "name": "_Color",
              "value": "_Color"
            },
            {
              "name": "_ShadeColor",
              "value": "_ShadeColor"
            },
            {
              "name": "_MainTex_ST",
              "value": "_MainTex_ST"
            },
            {
              "name": "_MainTex_ST_S",
              "value": "_MainTex_ST_S"
            },
            {
              "name": "_MainTex_ST_T",
              "value": "_MainTex_ST_T"
            },
            {
              "name": "_ShadeTexture_ST",
              "value": "_ShadeTexture_ST"
            },
            {
              "name": "_ShadeTexture_ST_S",
              "value": "_ShadeTexture_ST_S"
            },
            {
              "name": "_ShadeTexture_ST_T",
              "value": "_ShadeTexture_ST_T"
            },
            {
              "name": "_BumpMap_ST",
              "value": "_BumpMap_ST"
            },
            {
              "name": "_BumpMap_ST_S",
              "value": "_BumpMap_ST_S"
            },
            {
              "name": "_BumpMap_ST_T",
              "value": "_BumpMap_ST_T"
            },
            {
              "name": "_ReceiveShadowTexture_ST",
              "value": "_ReceiveShadowTexture_ST"
            },
            {
              "name": "_ReceiveShadowTexture_ST_S",
              "value": "_ReceiveShadowTexture_ST_S"
            },
            {
              "name": "_ReceiveShadowTexture_ST_T",
              "value": "_ReceiveShadowTexture_ST_T"
            },
            {
              "name": "_ShadingGradeTexture_ST",
              "value": "_ShadingGradeTexture_ST"
            },
            {
              "name": "_ShadingGradeTexture_ST_S",
              "value": "_ShadingGradeTexture_ST_S"
            },
            {
              "name": "_ShadingGradeTexture_ST_T",
              "value": "_ShadingGradeTexture_ST_T"
            },
            {
              "name": "_RimColor",
              "value": "_RimColor"
            },
            {
              "name": "_RimTexture_ST",
              "value": "_RimTexture_ST"
            },
            {
              "name": "_RimTexture_ST_S",
              "value": "_RimTexture_ST_S"
            },
            {
              "name": "_RimTexture_ST_T",
              "value": "_RimTexture_ST_T"
            },
            {
              "name": "_SphereAdd_ST",
              "value": "_SphereAdd_ST"
            },
            {
              "name": "_SphereAdd_ST_S",
              "value": "_SphereAdd_ST_S"
            },
            {
              "name": "_SphereAdd_ST_T",
              "value": "_SphereAdd_ST_T"
            },
            {
              "name": "_EmissionColor",
              "value": "_EmissionColor"
            },
            {
              "name": "_EmissionMap_ST",
              "value": "_EmissionMap_ST"
            },
            {
              "name": "_EmissionMap_ST_S",
              "value": "_EmissionMap_ST_S"
            },
            {
              "name": "_EmissionMap_ST_T",
              "value": "_EmissionMap_ST_T"
            },
            {
              "name": "_OutlineWidthTexture_ST",
              "value": "_OutlineWidthTexture_ST"
            },
            {
              "name": "_OutlineWidthTexture_ST_S",
              "value": "_OutlineWidthTexture_ST_S"
            },
            {
              "name": "_OutlineWidthTexture_ST_T",
              "value": "_OutlineWidthTexture_ST_T"
            },
            {
              "name": "_OutlineColor",
              "value": "_OutlineColor"
            },
            {
              "name": "_UvAnimMaskTexture_ST",
              "value": "_UvAnimMaskTexture_ST"
            },
            {
              "name": "_UvAnimMaskTexture_ST_S",
              "value": "_UvAnimMaskTexture_ST_S"
            },
            {
              "name": "_UvAnimMaskTexture_ST_T",
              "value": "_UvAnimMaskTexture_ST_T"
            }
          ],
          "mesh_object_names": [
            {
              "name": "Sphere",
              "value": "Sphere"
            }
          ]
        }
      },
      "name": "Scene",
      "nodes": [
        0
      ]
    }
  ]
}