<?xml version="1.0" standalone="no"?>
 <!DOCTYPE svg PUBLIC "-//W3C//DTD SVG 1.1//EN" 
 "http://www.w3.org/Graphics/SVG/1.1/DTD/svg11.dtd"> 
<svg
  xmlns:svg="http://www.w3.org/2000/svg"
  xmlns="http://www.w3.org/2000/svg"
  xmlns:xlink="http://www.w3.org/1999/xlink"
  version="1.1"
  width="20.2946mm" height="11.0490mm" viewBox="0.0000 0.0000 20.2946 11.0490">
<title>SVG Image created as outline.svg date 2025/06/16 09:17:59 </title>
  <desc>Image generated by PCBNEW </desc>
<g style="fill:#000000; fill-opacity:1.0000;stroke:#000000; stroke-opacity:1.0000;
stroke-linecap:round; stroke-linejoin:round;"
 transform="translate(0 0) scale(1 1)">
</g>
<g style="fill:none; 
stroke:#000000; stroke-width:0.0200; stroke-opacity:1; 
stroke-linecap:round; stroke-linejoin:round;">
<path d="M0.0760 8.0350
L0.0750 8.0750
" />
<path d="M0.0780 7.9960
L0.0760 8.0350
" />
<path d="M0.0820 7.9570
L0.0780 7.9960
" />
<path d="M0.0880 7.9180
L0.0820 7.9570
" />
<path d="M0.0950 7.8800
L0.0880 7.9180
" />
<path d="M0.1040 7.8420
L0.0950 7.8800
" />
<path d="M0.1140 7.8040
L0.1040 7.8420
" />
<path d="M0.1260 7.7670
L0.1140 7.8040
" />
<path d="M0.1400 7.7300
L0.1260 7.7670
" />
<path d="M0.1550 7.6940
L0.1400 7.7300
" />
<path d="M0.1710 7.6580
L0.1550 7.6940
" />
<path d="M0.1890 7.6240
L0.1710 7.6580
" />
<path d="M0.2080 7.5900
L0.1890 7.6240
" />
<path d="M0.2290 7.5560
L0.2080 7.5900
" />
<path d="M0.2510 7.5240
L0.2290 7.5560
" />
<path d="M0.2750 3.2250
L0.4750 3.0250
" />
<path d="M0.2750 3.2750
L0.2750 3.2250
" />
</g>
<g style="fill:#000000; fill-opacity:1.0000; stroke:none;">
<circle cx="0.2750" cy="3.2750" r="0.0100" /> 
</g>
<g style="fill:none; 
stroke:#000000; stroke-width:0.0200; stroke-opacity:1; 
stroke-linecap:round; stroke-linejoin:round;">
<path d="M0.2750 3.4230
L0.2750 3.2750
" />
</g>
<g style="fill:#000000; fill-opacity:1.0000; stroke:none;">
<circle cx="0.2750" cy="3.4230" r="0.0100" /> 
</g>
<g style="fill:none; 
stroke:#000000; stroke-width:0.0200; stroke-opacity:1; 
stroke-linecap:round; stroke-linejoin:round;">
<path d="M0.2750 3.6610
L0.2750 3.4230
" />
</g>
<g style="fill:#000000; fill-opacity:1.0000; stroke:none;">
<circle cx="0.2750" cy="3.6610" r="0.0100" /> 
</g>
<g style="fill:none; 
stroke:#000000; stroke-width:0.0200; stroke-opacity:1; 
stroke-linecap:round; stroke-linejoin:round;">
<path d="M0.2750 3.9810
L0.2750 3.6610
" />
</g>
<g style="fill:#000000; fill-opacity:1.0000; stroke:none;">
<circle cx="0.2750" cy="3.9810" r="0.0100" /> 
</g>
<g style="fill:none; 
stroke:#000000; stroke-width:0.0200; stroke-opacity:1; 
stroke-linecap:round; stroke-linejoin:round;">
<path d="M0.2750 4.3680
L0.2750 3.9810
" />
</g>
<g style="fill:#000000; fill-opacity:1.0000; stroke:none;">
<circle cx="0.2750" cy="4.3680" r="0.0100" /> 
</g>
<g style="fill:none; 
stroke:#000000; stroke-width:0.0200; stroke-opacity:1; 
stroke-linecap:round; stroke-linejoin:round;">
<path d="M0.2750 4.8050
L0.2750 4.3680
" />
</g>
<g style="fill:#000000; fill-opacity:1.0000; stroke:none;">
<circle cx="0.2750" cy="4.8050" r="0.0100" /> 
</g>
<g style="fill:none; 
stroke:#000000; stroke-width:0.0200; stroke-opacity:1; 
stroke-linecap:round; stroke-linejoin:round;">
<path d="M0.2750 5.2730
L0.2750 4.8050
" />
</g>
<g style="fill:#000000; fill-opacity:1.0000; stroke:none;">
<circle cx="0.2750" cy="5.2730" r="0.0100" /> 
</g>
<g style="fill:none; 
stroke:#000000; stroke-width:0.0200; stroke-opacity:1; 
stroke-linecap:round; stroke-linejoin:round;">
<path d="M0.2750 5.7530
L0.2750 5.2730
" />
</g>
<g style="fill:#000000; fill-opacity:1.0000; stroke:none;">
<circle cx="0.2750" cy="5.7530" r="0.0100" /> 
</g>
<g style="fill:none; 
stroke:#000000; stroke-width:0.0200; stroke-opacity:1; 
stroke-linecap:round; stroke-linejoin:round;">
<path d="M0.2750 6.2220
L0.2750 5.7530
" />
</g>
<g style="fill:#000000; fill-opacity:1.0000; stroke:none;">
<circle cx="0.2750" cy="6.2220" r="0.0100" /> 
</g>
<g style="fill:none; 
stroke:#000000; stroke-width:0.0200; stroke-opacity:1; 
stroke-linecap:round; stroke-linejoin:round;">
<path d="M0.2750 6.6610
L0.2750 6.2220
" />
</g>
<g style="fill:#000000; fill-opacity:1.0000; stroke:none;">
<circle cx="0.2750" cy="6.6610" r="0.0100" /> 
</g>
<g style="fill:none; 
stroke:#000000; stroke-width:0.0200; stroke-opacity:1; 
stroke-linecap:round; stroke-linejoin:round;">
<path d="M0.2750 7.0510
L0.2750 6.6610
" />
</g>
<g style="fill:#000000; fill-opacity:1.0000; stroke:none;">
<circle cx="0.2750" cy="7.0510" r="0.0100" /> 
</g>
<g style="fill:none; 
stroke:#000000; stroke-width:0.0200; stroke-opacity:1; 
stroke-linecap:round; stroke-linejoin:round;">
<path d="M0.2750 7.3740
L0.2750 7.0510
" />
</g>
<g style="fill:#000000; fill-opacity:1.0000; stroke:none;">
<circle cx="0.2750" cy="7.3740" r="0.0100" /> 
</g>
<g style="fill:none; 
stroke:#000000; stroke-width:0.0200; stroke-opacity:1; 
stroke-linecap:round; stroke-linejoin:round;">
<path d="M0.2750 7.4920
L0.2510 7.5240
" />
<path d="M0.2750 7.6180
L0.2750 7.3740
" />
</g>
<g style="fill:#000000; fill-opacity:1.0000; stroke:none;">
<circle cx="0.2750" cy="7.6180" r="0.0100" /> 
</g>
<g style="fill:none; 
stroke:#000000; stroke-width:0.0200; stroke-opacity:1; 
stroke-linecap:round; stroke-linejoin:round;">
<path d="M0.2750 7.7700
L0.2750 7.6180
" />
<path d="M0.2750 8.0580
L0.2750 8.0750
" />
<path d="M0.2750 8.0750
L0.0750 8.0750
" />
<path d="M0.2760 8.0420
L0.2750 8.0580
" />
<path d="M0.2770 8.0260
L0.2760 8.0420
" />
<path d="M0.2780 8.0090
L0.2770 8.0260
" />
<path d="M0.2800 7.9930
L0.2780 8.0090
" />
<path d="M0.2820 7.9760
L0.2800 7.9930
" />
<path d="M0.2840 7.9600
L0.2820 7.9760
" />
<path d="M0.2870 7.9440
L0.2840 7.9600
" />
<path d="M0.2900 7.9280
L0.2870 7.9440
" />
<path d="M0.2930 7.9120
L0.2900 7.9280
" />
<path d="M0.2970 7.8960
L0.2930 7.9120
" />
<path d="M0.3010 7.8800
L0.2970 7.8960
" />
<path d="M0.3050 7.8640
L0.3010 7.8800
" />
<path d="M0.3100 7.8480
L0.3050 7.8640
" />
<path d="M0.3150 7.8320
L0.3100 7.8480
" />
<path d="M0.3210 7.8170
L0.3150 7.8320
" />
<path d="M0.3210 7.8170
L0.4750 7.9740
" />
<path d="M0.4750 3.0250
L0.4750 3.0800
" />
<path d="M0.4750 3.0250
L1.7750 3.0250
" />
</g>
<g style="fill:#000000; fill-opacity:1.0000; stroke:none;">
<circle cx="0.4750" cy="3.0800" r="0.0100" /> 
</g>
<g style="fill:none; 
stroke:#000000; stroke-width:0.0200; stroke-opacity:1; 
stroke-linecap:round; stroke-linejoin:round;">
<path d="M0.4750 3.0800
L0.4750 3.2420
" />
</g>
<g style="fill:#000000; fill-opacity:1.0000; stroke:none;">
<circle cx="0.4750" cy="3.2420" r="0.0100" /> 
</g>
<g style="fill:none; 
stroke:#000000; stroke-width:0.0200; stroke-opacity:1; 
stroke-linecap:round; stroke-linejoin:round;">
<path d="M0.4750 3.2420
L0.4750 3.5050
" />
</g>
<g style="fill:#000000; fill-opacity:1.0000; stroke:none;">
<circle cx="0.4750" cy="3.5050" r="0.0100" /> 
</g>
<g style="fill:none; 
stroke:#000000; stroke-width:0.0200; stroke-opacity:1; 
stroke-linecap:round; stroke-linejoin:round;">
<path d="M0.4750 3.5050
L0.4750 3.8560
" />
</g>
<g style="fill:#000000; fill-opacity:1.0000; stroke:none;">
<circle cx="0.4750" cy="3.8560" r="0.0100" /> 
</g>
<g style="fill:none; 
stroke:#000000; stroke-width:0.0200; stroke-opacity:1; 
stroke-linecap:round; stroke-linejoin:round;">
<path d="M0.4750 3.8560
L0.4750 4.2810
" />
</g>
<g style="fill:#000000; fill-opacity:1.0000; stroke:none;">
<circle cx="0.4750" cy="4.2810" r="0.0100" /> 
</g>
<g style="fill:none; 
stroke:#000000; stroke-width:0.0200; stroke-opacity:1; 
stroke-linecap:round; stroke-linejoin:round;">
<path d="M0.4750 4.2810
L0.4750 4.7610
" />
</g>
<g style="fill:#000000; fill-opacity:1.0000; stroke:none;">
<circle cx="0.4750" cy="4.7610" r="0.0100" /> 
</g>
<g style="fill:none; 
stroke:#000000; stroke-width:0.0200; stroke-opacity:1; 
stroke-linecap:round; stroke-linejoin:round;">
<path d="M0.4750 4.7610
L0.4750 5.2740
" />
</g>
<g style="fill:#000000; fill-opacity:1.0000; stroke:none;">
<circle cx="0.4750" cy="5.2740" r="0.0100" /> 
</g>
<g style="fill:none; 
stroke:#000000; stroke-width:0.0200; stroke-opacity:1; 
stroke-linecap:round; stroke-linejoin:round;">
<path d="M0.4750 5.2740
L0.4750 5.7980
" />
</g>
<g style="fill:#000000; fill-opacity:1.0000; stroke:none;">
<circle cx="0.4750" cy="5.7980" r="0.0100" /> 
</g>
<g style="fill:none; 
stroke:#000000; stroke-width:0.0200; stroke-opacity:1; 
stroke-linecap:round; stroke-linejoin:round;">
<path d="M0.4750 5.7980
L0.4750 6.3100
" />
</g>
<g style="fill:#000000; fill-opacity:1.0000; stroke:none;">
<circle cx="0.4750" cy="6.3100" r="0.0100" /> 
</g>
<g style="fill:none; 
stroke:#000000; stroke-width:0.0200; stroke-opacity:1; 
stroke-linecap:round; stroke-linejoin:round;">
<path d="M0.4750 6.3100
L0.4750 6.7870
" />
</g>
<g style="fill:#000000; fill-opacity:1.0000; stroke:none;">
<circle cx="0.4750" cy="6.7870" r="0.0100" /> 
</g>
<g style="fill:none; 
stroke:#000000; stroke-width:0.0200; stroke-opacity:1; 
stroke-linecap:round; stroke-linejoin:round;">
<path d="M0.4750 6.7870
L0.4750 7.2100
" />
</g>
<g style="fill:#000000; fill-opacity:1.0000; stroke:none;">
<circle cx="0.4750" cy="7.2100" r="0.0100" /> 
</g>
<g style="fill:none; 
stroke:#000000; stroke-width:0.0200; stroke-opacity:1; 
stroke-linecap:round; stroke-linejoin:round;">
<path d="M0.4750 7.2100
L0.4750 7.5580
" />
</g>
<g style="fill:#000000; fill-opacity:1.0000; stroke:none;">
<circle cx="0.4750" cy="7.5580" r="0.0100" /> 
</g>
<g style="fill:none; 
stroke:#000000; stroke-width:0.0200; stroke-opacity:1; 
stroke-linecap:round; stroke-linejoin:round;">
<path d="M0.4750 7.5580
L0.4750 7.8160
" />
</g>
<g style="fill:#000000; fill-opacity:1.0000; stroke:none;">
<circle cx="0.4750" cy="7.8160" r="0.0100" /> 
</g>
<g style="fill:none; 
stroke:#000000; stroke-width:0.0200; stroke-opacity:1; 
stroke-linecap:round; stroke-linejoin:round;">
<path d="M0.4750 7.8160
L0.4750 7.9740
" />
<path d="M0.4750 7.9740
L0.2750 7.7700
" />
<path d="M0.4750 7.9740
L1.7750 7.9740
" />
<path d="M1.7750 5.5250
L1.7750 2.5250
" />
<path d="M1.7750 8.5250
L1.7750 5.5250
" />
<path d="M1.8250 8.7250
L1.8250 8.5250
" />
<path d="M1.9750 8.7250
L1.9750 9.8250
" />
<path d="M1.9750 9.8250
L1.9750 9.8350
" />
<path d="M1.9750 9.8350
L1.9760 9.8450
" />
<path d="M1.9760 9.8450
L1.9770 9.8550
" />
<path d="M1.9770 9.8550
L1.9790 9.8640
" />
<path d="M1.9790 9.8640
L1.9810 9.8740
" />
<path d="M1.9810 9.8740
L1.9840 9.8830
" />
<path d="M1.9840 9.8830
L1.9870 9.8920
" />
<path d="M1.9870 9.8920
L1.9900 9.9020
" />
<path d="M1.9900 9.9020
L1.9940 9.9100
" />
<path d="M1.9940 9.9100
L1.9990 9.9190
" />
<path d="M1.9990 9.9190
L2.0030 9.9280
" />
<path d="M2.0030 9.9280
L2.0090 9.9360
" />
<path d="M2.0090 9.9360
L2.0140 9.9440
" />
<path d="M2.0140 9.9440
L2.0200 9.9520
" />
<path d="M2.0200 9.9520
L2.0270 9.9590
" />
<path d="M2.0270 9.9590
L2.0340 9.9660
" />
</g>
<g style="fill:#000000; fill-opacity:1.0000; stroke:none;">
<circle cx="2.0340" cy="9.9660" r="0.0100" /> 
</g>
<g style="fill:none; 
stroke:#000000; stroke-width:0.0200; stroke-opacity:1; 
stroke-linecap:round; stroke-linejoin:round;">
<path d="M2.0340 9.9660
L2.0410 9.9730
" />
<path d="M2.0410 9.9730
L2.0480 9.9800
" />
<path d="M2.0480 9.9800
L2.0560 9.9860
" />
<path d="M2.0560 9.9860
L2.0640 9.9910
" />
<path d="M2.0640 9.9910
L2.0720 9.9970
" />
<path d="M2.0720 9.9970
L2.0810 10.0010
" />
<path d="M2.0810 10.0010
L2.0900 10.0060
" />
<path d="M2.0900 10.0060
L2.0980 10.0100
" />
<path d="M2.0980 10.0100
L2.1080 10.0130
" />
<path d="M2.1080 10.0130
L2.1170 10.0160
" />
<path d="M2.1170 10.0160
L2.1260 10.0190
" />
<path d="M2.1260 10.0190
L2.1360 10.0210
" />
<path d="M2.1360 10.0210
L2.1450 10.0230
" />
<path d="M2.1450 10.0230
L2.1550 10.0240
" />
<path d="M2.1550 10.0240
L2.1650 10.0250
" />
<path d="M2.1650 10.0250
L2.1750 10.0250
" />
<path d="M2.1750 10.0250
L2.5750 10.0250
" />
<path d="M2.5750 10.0250
L2.5850 10.0250
" />
<path d="M2.5850 10.0250
L2.5950 10.0240
" />
<path d="M2.5950 10.0240
L2.6050 10.0230
" />
<path d="M2.6050 10.0230
L2.6150 10.0210
" />
<path d="M2.6150 10.0210
L2.6250 10.0190
" />
<path d="M2.6250 10.0190
L2.6340 10.0160
" />
<path d="M2.6340 10.0160
L2.6440 10.0130
" />
<path d="M2.6440 10.0130
L2.6530 10.0090
" />
<path d="M2.6530 10.0090
L2.6620 10.0050
" />
<path d="M2.6620 10.0050
L2.6700 10.0010
" />
<path d="M2.6700 10.0010
L2.6790 9.9960
" />
<path d="M2.6790 9.9960
L2.6870 9.9910
" />
<path d="M2.6870 9.9910
L2.6950 9.9850
" />
<path d="M2.6950 9.9850
L2.7020 9.9790
" />
<path d="M2.7020 9.9790
L2.7090 9.9730
" />
<path d="M2.7090 9.9730
L2.7160 9.9660
" />
<path d="M2.7160 9.9660
L2.7230 9.9590
" />
<path d="M2.7230 9.9590
L2.7290 9.9520
" />
<path d="M2.7290 9.9520
L2.7350 9.9450
" />
<path d="M2.7350 9.9450
L2.7410 9.9370
" />
<path d="M2.7410 9.9370
L2.7460 9.9290
" />
<path d="M2.7460 9.9290
L2.7510 9.9200
" />
<path d="M2.7510 9.9200
L2.7550 9.9120
" />
<path d="M2.7550 9.9120
L2.7590 9.9030
" />
<path d="M2.7590 9.9030
L2.7630 9.8940
" />
<path d="M2.7630 9.8940
L2.7660 9.8840
" />
<path d="M2.7660 9.8840
L2.7690 9.8750
" />
<path d="M2.7690 9.8750
L2.7710 9.8650
" />
<path d="M2.7710 9.8650
L2.7730 9.8550
" />
<path d="M2.7730 9.8550
L2.7740 9.8450
" />
<path d="M2.7740 9.8450
L2.7750 9.8350
" />
<path d="M2.7750 8.5250
L1.7750 8.5250
" />
<path d="M2.7750 8.7250
L1.8250 8.7250
" />
<path d="M2.7750 9.2250
L2.7750 8.5250
" />
<path d="M2.7750 9.2250
L2.7750 9.8250
" />
<path d="M2.7750 9.8350
L2.7750 9.8250
" />
<path d="M3.2750 3.0250
L3.2750 4.6250
" />
<path d="M3.2750 4.6250
L9.2750 4.6250
" />
<path d="M3.2750 7.6780
L3.2750 8.2780
" />
<path d="M3.2750 8.2780
L6.2750 8.2780
" />
<path d="M3.3750 3.1250
L3.3750 4.5250
" />
<path d="M3.3750 4.5250
L9.1750 4.5250
" />
<path d="M3.3750 7.7780
L3.3750 8.1780
" />
<path d="M3.3750 8.1780
L6.1750 8.1780
" />
<path d="M3.7750 2.5250
L1.7750 2.5250
" />
<path d="M3.7750 2.5250
L3.7750 3.0250
" />
<path d="M3.7750 3.0250
L3.2750 3.0250
" />
<path d="M3.7750 8.5250
L3.7750 9.2250
" />
<path d="M3.7750 9.2250
L2.7750 9.2250
" />
<path d="M3.8750 1.2150
L3.8750 1.2250
" />
<path d="M3.8750 2.7750
L3.8750 1.2250
" />
<path d="M3.8750 2.8250
L3.8750 2.7750
" />
<path d="M3.8750 2.8250
L4.6750 2.8250
" />
<path d="M3.8750 2.9130
L3.8750 2.8250
" />
</g>
<g style="fill:#000000; fill-opacity:1.0000; stroke:none;">
<circle cx="3.8750" cy="2.9130" r="0.0100" /> 
</g>
<g style="fill:none; 
stroke:#000000; stroke-width:0.0200; stroke-opacity:1; 
stroke-linecap:round; stroke-linejoin:round;">
<path d="M3.8750 3.0250
L3.7750 3.0250
" />
<path d="M3.8750 3.1250
L3.3750 3.1250
" />
<path d="M3.8750 3.1250
L3.8750 2.9130
" />
<path d="M3.8760 1.2050
L3.8750 1.2150
" />
<path d="M3.8770 1.1950
L3.8760 1.2050
" />
<path d="M3.8790 1.1860
L3.8770 1.1950
" />
<path d="M3.8810 1.1760
L3.8790 1.1860
" />
<path d="M3.8840 1.1670
L3.8810 1.1760
" />
<path d="M3.8870 1.1580
L3.8840 1.1670
" />
<path d="M3.8900 1.1480
L3.8870 1.1580
" />
<path d="M3.8940 1.1400
L3.8900 1.1480
" />
<path d="M3.8990 1.1310
L3.8940 1.1400
" />
<path d="M3.9030 1.1220
L3.8990 1.1310
" />
<path d="M3.9090 1.1140
L3.9030 1.1220
" />
<path d="M3.9140 1.1060
L3.9090 1.1140
" />
<path d="M3.9200 1.0980
L3.9140 1.1060
" />
<path d="M3.9270 1.0910
L3.9200 1.0980
" />
<path d="M3.9340 1.0840
L3.9270 1.0910
" />
</g>
<g style="fill:#000000; fill-opacity:1.0000; stroke:none;">
<circle cx="3.9340" cy="1.0840" r="0.0100" /> 
</g>
<g style="fill:none; 
stroke:#000000; stroke-width:0.0200; stroke-opacity:1; 
stroke-linecap:round; stroke-linejoin:round;">
<path d="M3.9410 1.0770
L3.9340 1.0840
" />
<path d="M3.9480 1.0700
L3.9410 1.0770
" />
<path d="M3.9560 1.0640
L3.9480 1.0700
" />
<path d="M3.9640 1.0590
L3.9560 1.0640
" />
<path d="M3.9720 1.0530
L3.9640 1.0590
" />
<path d="M3.9810 1.0490
L3.9720 1.0530
" />
<path d="M3.9900 1.0440
L3.9810 1.0490
" />
<path d="M3.9980 1.0400
L3.9900 1.0440
" />
<path d="M4.0080 1.0370
L3.9980 1.0400
" />
<path d="M4.0170 1.0340
L4.0080 1.0370
" />
<path d="M4.0260 1.0310
L4.0170 1.0340
" />
<path d="M4.0360 1.0290
L4.0260 1.0310
" />
<path d="M4.0450 1.0270
L4.0360 1.0290
" />
<path d="M4.0550 1.0260
L4.0450 1.0270
" />
<path d="M4.0650 1.0250
L4.0550 1.0260
" />
<path d="M4.0750 1.0250
L4.0650 1.0250
" />
<path d="M4.0750 1.0250
L4.4750 1.0250
" />
<path d="M4.4850 1.0250
L4.4750 1.0250
" />
<path d="M4.4950 1.0260
L4.4850 1.0250
" />
<path d="M4.5050 1.0270
L4.4950 1.0260
" />
<path d="M4.5140 1.0290
L4.5050 1.0270
" />
<path d="M4.5240 1.0310
L4.5140 1.0290
" />
<path d="M4.5330 1.0340
L4.5240 1.0310
" />
<path d="M4.5420 1.0370
L4.5330 1.0340
" />
<path d="M4.5520 1.0400
L4.5420 1.0370
" />
<path d="M4.5600 1.0440
L4.5520 1.0400
" />
<path d="M4.5690 1.0490
L4.5600 1.0440
" />
<path d="M4.5780 1.0530
L4.5690 1.0490
" />
<path d="M4.5860 1.0590
L4.5780 1.0530
" />
<path d="M4.5940 1.0640
L4.5860 1.0590
" />
<path d="M4.6020 1.0700
L4.5940 1.0640
" />
<path d="M4.6090 1.0770
L4.6020 1.0700
" />
<path d="M4.6160 1.0840
L4.6090 1.0770
" />
</g>
<g style="fill:#000000; fill-opacity:1.0000; stroke:none;">
<circle cx="4.6160" cy="1.0840" r="0.0100" /> 
</g>
<g style="fill:none; 
stroke:#000000; stroke-width:0.0200; stroke-opacity:1; 
stroke-linecap:round; stroke-linejoin:round;">
<path d="M4.6230 1.0910
L4.6160 1.0840
" />
<path d="M4.6300 1.0980
L4.6230 1.0910
" />
<path d="M4.6360 1.1060
L4.6300 1.0980
" />
<path d="M4.6410 1.1140
L4.6360 1.1060
" />
<path d="M4.6470 1.1220
L4.6410 1.1140
" />
<path d="M4.6510 1.1310
L4.6470 1.1220
" />
<path d="M4.6560 1.1400
L4.6510 1.1310
" />
<path d="M4.6600 1.1480
L4.6560 1.1400
" />
<path d="M4.6630 1.1580
L4.6600 1.1480
" />
<path d="M4.6660 1.1670
L4.6630 1.1580
" />
<path d="M4.6690 1.1760
L4.6660 1.1670
" />
<path d="M4.6710 1.1860
L4.6690 1.1760
" />
<path d="M4.6730 1.1950
L4.6710 1.1860
" />
<path d="M4.6740 1.2050
L4.6730 1.1950
" />
<path d="M4.6750 1.2150
L4.6740 1.2050
" />
<path d="M4.6750 1.2250
L4.6750 1.2150
" />
<path d="M4.6750 2.7750
L4.6750 1.2250
" />
<path d="M4.6750 2.8250
L4.6750 2.7750
" />
<path d="M4.6750 2.9130
L4.6750 2.8250
" />
</g>
<g style="fill:#000000; fill-opacity:1.0000; stroke:none;">
<circle cx="4.6750" cy="2.9130" r="0.0100" /> 
</g>
<g style="fill:none; 
stroke:#000000; stroke-width:0.0200; stroke-opacity:1; 
stroke-linecap:round; stroke-linejoin:round;">
<path d="M4.6750 3.1250
L4.6750 2.9130
" />
<path d="M4.6750 8.7250
L4.6750 9.8250
" />
<path d="M4.6750 9.8250
L4.6750 9.8350
" />
<path d="M4.6750 9.8350
L4.6760 9.8450
" />
<path d="M4.6760 9.8450
L4.6770 9.8550
" />
<path d="M4.6770 9.8550
L4.6790 9.8650
" />
<path d="M4.6790 9.8650
L4.6810 9.8750
" />
<path d="M4.6810 9.8750
L4.6840 9.8840
" />
<path d="M4.6840 9.8840
L4.6870 9.8940
" />
<path d="M4.6870 9.8940
L4.6910 9.9030
" />
<path d="M4.6910 9.9030
L4.6950 9.9120
" />
<path d="M4.6950 9.9120
L4.6990 9.9200
" />
<path d="M4.6990 9.9200
L4.7040 9.9290
" />
<path d="M4.7040 9.9290
L4.7090 9.9370
" />
<path d="M4.7090 9.9370
L4.7150 9.9450
" />
<path d="M4.7150 9.9450
L4.7210 9.9520
" />
<path d="M4.7210 9.9520
L4.7270 9.9590
" />
<path d="M4.7270 9.9590
L4.7340 9.9660
" />
<path d="M4.7340 9.9660
L4.7410 9.9730
" />
<path d="M4.7410 9.9730
L4.7480 9.9790
" />
<path d="M4.7480 9.9790
L4.7550 9.9850
" />
<path d="M4.7550 9.9850
L4.7630 9.9910
" />
<path d="M4.7630 9.9910
L4.7710 9.9960
" />
<path d="M4.7710 9.9960
L4.7800 10.0010
" />
<path d="M4.7750 3.0250
L4.6750 3.0250
" />
<path d="M4.7750 3.0250
L4.7750 2.5250
" />
<path d="M4.7800 10.0010
L4.7880 10.0050
" />
<path d="M4.7880 10.0050
L4.7970 10.0090
" />
<path d="M4.7970 10.0090
L4.8060 10.0130
" />
<path d="M4.8060 10.0130
L4.8160 10.0160
" />
<path d="M4.8160 10.0160
L4.8250 10.0190
" />
<path d="M4.8250 10.0190
L4.8350 10.0210
" />
<path d="M4.8350 10.0210
L4.8450 10.0230
" />
<path d="M4.8450 10.0230
L4.8550 10.0240
" />
<path d="M4.8550 10.0240
L4.8650 10.0250
" />
<path d="M4.8650 10.0250
L4.8750 10.0250
" />
<path d="M4.8750 10.0250
L5.4750 10.0250
" />
<path d="M5.4750 10.0250
L5.4850 10.0250
" />
<path d="M5.4850 10.0250
L5.4950 10.0240
" />
<path d="M5.4950 10.0240
L5.5050 10.0230
" />
<path d="M5.5050 10.0230
L5.5140 10.0210
" />
<path d="M5.5140 10.0210
L5.5240 10.0190
" />
<path d="M5.5240 10.0190
L5.5330 10.0160
" />
<path d="M5.5330 10.0160
L5.5420 10.0130
" />
<path d="M5.5420 10.0130
L5.5520 10.0100
" />
<path d="M5.5520 10.0100
L5.5600 10.0060
" />
<path d="M5.5600 10.0060
L5.5690 10.0010
" />
<path d="M5.5690 10.0010
L5.5780 9.9970
" />
<path d="M5.5780 9.9970
L5.5860 9.9910
" />
<path d="M5.5860 9.9910
L5.5940 9.9860
" />
<path d="M5.5940 9.9860
L5.6020 9.9800
" />
<path d="M5.6020 9.9800
L5.6090 9.9730
" />
<path d="M5.6090 9.9730
L5.6160 9.9660
" />
</g>
<g style="fill:#000000; fill-opacity:1.0000; stroke:none;">
<circle cx="5.6160" cy="9.9660" r="0.0100" /> 
</g>
<g style="fill:none; 
stroke:#000000; stroke-width:0.0200; stroke-opacity:1; 
stroke-linecap:round; stroke-linejoin:round;">
<path d="M5.6160 9.9660
L5.6230 9.9590
" />
<path d="M5.6230 9.9590
L5.6300 9.9520
" />
<path d="M5.6300 9.9520
L5.6360 9.9440
" />
<path d="M5.6360 9.9440
L5.6410 9.9360
" />
<path d="M5.6410 9.9360
L5.6470 9.9280
" />
<path d="M5.6470 9.9280
L5.6510 9.9190
" />
<path d="M5.6510 9.9190
L5.6560 9.9100
" />
<path d="M5.6560 9.9100
L5.6600 9.9020
" />
<path d="M5.6600 9.9020
L5.6630 9.8920
" />
<path d="M5.6630 9.8920
L5.6660 9.8830
" />
<path d="M5.6660 9.8830
L5.6690 9.8740
" />
<path d="M5.6690 9.8740
L5.6710 9.8640
" />
<path d="M5.6710 9.8640
L5.6730 9.8550
" />
<path d="M5.6730 9.8550
L5.6740 9.8450
" />
<path d="M5.6740 9.8450
L5.6750 9.8350
" />
<path d="M5.6750 8.7250
L5.6750 9.8250
" />
<path d="M5.6750 9.8350
L5.6750 9.8250
" />
<path d="M5.7750 8.5250
L3.7750 8.5250
" />
<path d="M5.7750 8.7250
L3.7750 8.7250
" />
<path d="M5.7750 9.2250
L5.7750 8.5250
" />
<path d="M6.1750 7.7780
L3.3750 7.7780
" />
<path d="M6.1750 8.1780
L6.1750 7.7780
" />
<path d="M6.2750 7.6780
L3.2750 7.6780
" />
<path d="M6.2750 8.2780
L6.2750 7.6780
" />
<path d="M6.5250 2.5250
L4.7750 2.5250
" />
<path d="M6.5250 2.5250
L6.5250 3.0250
" />
<path d="M6.5250 2.8250
L8.5250 2.8250
" />
<path d="M6.5250 3.0250
L4.7750 3.0250
" />
<path d="M6.5250 3.1250
L4.6750 3.1250
" />
<path d="M6.5250 3.1250
L6.5250 3.0250
" />
<path d="M6.5250 3.1250
L8.5250 3.1250
" />
<path d="M6.5750 1.2150
L6.5750 1.2250
" />
<path d="M6.5750 2.7750
L6.5750 1.2250
" />
<path d="M6.5750 2.8250
L6.5750 2.7750
" />
<path d="M6.5760 1.2050
L6.5750 1.2150
" />
<path d="M6.5770 1.1950
L6.5760 1.2050
" />
<path d="M6.5790 1.1850
L6.5770 1.1950
" />
<path d="M6.5810 1.1750
L6.5790 1.1850
" />
<path d="M6.5840 1.1660
L6.5810 1.1750
" />
<path d="M6.5870 1.1560
L6.5840 1.1660
" />
<path d="M6.5910 1.1470
L6.5870 1.1560
" />
<path d="M6.5950 1.1380
L6.5910 1.1470
" />
<path d="M6.5990 1.1300
L6.5950 1.1380
" />
<path d="M6.6040 1.1210
L6.5990 1.1300
" />
<path d="M6.6090 1.1130
L6.6040 1.1210
" />
<path d="M6.6150 1.1050
L6.6090 1.1130
" />
<path d="M6.6210 1.0980
L6.6150 1.1050
" />
<path d="M6.6270 1.0910
L6.6210 1.0980
" />
<path d="M6.6340 1.0840
L6.6270 1.0910
" />
<path d="M6.6410 1.0770
L6.6340 1.0840
" />
<path d="M6.6480 1.0710
L6.6410 1.0770
" />
<path d="M6.6550 1.0650
L6.6480 1.0710
" />
<path d="M6.6630 1.0590
L6.6550 1.0650
" />
<path d="M6.6710 1.0540
L6.6630 1.0590
" />
<path d="M6.6800 1.0490
L6.6710 1.0540
" />
<path d="M6.6880 1.0450
L6.6800 1.0490
" />
<path d="M6.6970 1.0410
L6.6880 1.0450
" />
<path d="M6.7060 1.0370
L6.6970 1.0410
" />
<path d="M6.7160 1.0340
L6.7060 1.0370
" />
<path d="M6.7250 1.0310
L6.7160 1.0340
" />
<path d="M6.7350 1.0290
L6.7250 1.0310
" />
<path d="M6.7450 1.0270
L6.7350 1.0290
" />
<path d="M6.7550 1.0260
L6.7450 1.0270
" />
<path d="M6.7650 1.0250
L6.7550 1.0260
" />
<path d="M6.7750 1.0250
L6.7650 1.0250
" />
<path d="M6.7750 1.0250
L7.3750 1.0250
" />
<path d="M7.3850 1.0250
L7.3750 1.0250
" />
<path d="M7.3950 1.0260
L7.3850 1.0250
" />
<path d="M7.4050 1.0270
L7.3950 1.0260
" />
<path d="M7.4150 1.0290
L7.4050 1.0270
" />
<path d="M7.4250 1.0310
L7.4150 1.0290
" />
<path d="M7.4340 1.0340
L7.4250 1.0310
" />
<path d="M7.4440 1.0370
L7.4340 1.0340
" />
<path d="M7.4530 1.0410
L7.4440 1.0370
" />
<path d="M7.4620 1.0450
L7.4530 1.0410
" />
<path d="M7.4700 1.0490
L7.4620 1.0450
" />
<path d="M7.4790 1.0540
L7.4700 1.0490
" />
<path d="M7.4870 1.0590
L7.4790 1.0540
" />
<path d="M7.4950 1.0650
L7.4870 1.0590
" />
<path d="M7.5020 1.0710
L7.4950 1.0650
" />
<path d="M7.5090 1.0770
L7.5020 1.0710
" />
<path d="M7.5160 1.0840
L7.5090 1.0770
" />
<path d="M7.5230 1.0910
L7.5160 1.0840
" />
<path d="M7.5290 1.0980
L7.5230 1.0910
" />
<path d="M7.5350 1.1050
L7.5290 1.0980
" />
<path d="M7.5410 1.1130
L7.5350 1.1050
" />
<path d="M7.5460 1.1210
L7.5410 1.1130
" />
<path d="M7.5510 1.1300
L7.5460 1.1210
" />
<path d="M7.5550 1.1380
L7.5510 1.1300
" />
<path d="M7.5590 1.1470
L7.5550 1.1380
" />
<path d="M7.5630 1.1560
L7.5590 1.1470
" />
<path d="M7.5660 1.1660
L7.5630 1.1560
" />
<path d="M7.5690 1.1750
L7.5660 1.1660
" />
<path d="M7.5710 1.1850
L7.5690 1.1750
" />
<path d="M7.5730 1.1950
L7.5710 1.1850
" />
<path d="M7.5740 1.2050
L7.5730 1.1950
" />
<path d="M7.5750 1.2150
L7.5740 1.2050
" />
<path d="M7.5750 1.2250
L7.5750 1.2150
" />
<path d="M7.5750 2.7750
L7.5750 1.2250
" />
<path d="M7.5750 2.8250
L7.5750 2.7750
" />
<path d="M7.7750 8.5250
L7.7750 9.2250
" />
<path d="M7.7750 9.2250
L5.7750 9.2250
" />
<path d="M8.5250 3.0250
L8.5250 2.5250
" />
<path d="M8.5250 3.0250
L8.5250 3.1250
" />
<path d="M8.6130 8.7250
L7.7750 8.7250
" />
<path d="M8.8250 8.7250
L8.6130 8.7250
" />
<path d="M8.8250 8.7250
L8.8250 8.5250
" />
<path d="M9.1750 3.1250
L8.5250 3.1250
" />
<path d="M9.1750 4.5250
L9.1750 3.1250
" />
<path d="M9.2750 3.0250
L8.5250 3.0250
" />
<path d="M9.2750 4.6250
L9.2750 3.0250
" />
<path d="M13.0750 7.7250
L13.0750 8.5250
" />
<path d="M13.0750 8.5250
L7.7750 8.5250
" />
<path d="M13.0750 8.5250
L14.1750 8.5250
" />
<path d="M13.8250 8.5250
L13.8250 9.8250
" />
<path d="M13.8250 9.8250
L13.8250 9.8350
" />
<path d="M13.8250 9.8350
L13.8260 9.8450
" />
<path d="M13.8260 9.8450
L13.8270 9.8550
" />
<path d="M13.8270 9.8550
L13.8290 9.8650
" />
<path d="M13.8290 9.8650
L13.8310 9.8750
" />
<path d="M13.8310 9.8750
L13.8340 9.8840
" />
<path d="M13.8340 9.8840
L13.8370 9.8940
" />
<path d="M13.8370 9.8940
L13.8410 9.9030
" />
<path d="M13.8410 9.9030
L13.8450 9.9120
" />
<path d="M13.8450 9.9120
L13.8490 9.9200
" />
<path d="M13.8490 9.9200
L13.8540 9.9290
" />
<path d="M13.8540 9.9290
L13.8590 9.9370
" />
<path d="M13.8590 9.9370
L13.8650 9.9450
" />
<path d="M13.8650 9.9450
L13.8710 9.9520
" />
<path d="M13.8710 9.9520
L13.8770 9.9590
" />
<path d="M13.8770 9.9590
L13.8840 9.9660
" />
<path d="M13.8840 9.9660
L13.8910 9.9730
" />
<path d="M13.8910 9.9730
L13.8980 9.9790
" />
<path d="M13.8980 9.9790
L13.9050 9.9850
" />
<path d="M13.9050 9.9850
L13.9130 9.9910
" />
<path d="M13.9130 9.9910
L13.9210 9.9960
" />
<path d="M13.9210 9.9960
L13.9300 10.0010
" />
<path d="M13.9300 10.0010
L13.9380 10.0050
" />
<path d="M13.9380 10.0050
L13.9470 10.0090
" />
<path d="M13.9470 10.0090
L13.9560 10.0130
" />
<path d="M13.9560 10.0130
L13.9660 10.0160
" />
<path d="M13.9660 10.0160
L13.9750 10.0190
" />
<path d="M13.9750 10.0190
L13.9850 10.0210
" />
<path d="M13.9850 10.0210
L13.9950 10.0230
" />
<path d="M13.9950 10.0230
L14.0050 10.0240
" />
<path d="M14.0050 10.0240
L14.0150 10.0250
" />
<path d="M14.0150 10.0250
L14.0250 10.0250
" />
<path d="M14.0250 10.0250
L15.1250 10.0250
" />
<path d="M14.1750 7.7250
L13.0750 7.7250
" />
<path d="M14.1750 8.5250
L14.1750 7.7250
" />
<path d="M14.7750 6.3250
L14.7750 6.7250
" />
<path d="M14.7750 6.7250
L15.5250 6.7250
" />
<path d="M15.1250 10.0250
L15.1350 10.0250
" />
<path d="M15.1350 10.0250
L15.1450 10.0240
" />
<path d="M15.1450 10.0240
L15.1550 10.0230
" />
<path d="M15.1550 10.0230
L15.1640 10.0210
" />
<path d="M15.1640 10.0210
L15.1740 10.0190
" />
<path d="M15.1740 10.0190
L15.1830 10.0160
" />
<path d="M15.1830 10.0160
L15.1920 10.0130
" />
<path d="M15.1920 10.0130
L15.2020 10.0100
" />
<path d="M15.2020 10.0100
L15.2100 10.0060
" />
<path d="M15.2100 10.0060
L15.2190 10.0010
" />
<path d="M15.2190 10.0010
L15.2280 9.9970
" />
<path d="M15.2280 9.9970
L15.2360 9.9910
" />
<path d="M15.2360 9.9910
L15.2440 9.9860
" />
<path d="M15.2440 9.9860
L15.2520 9.9800
" />
<path d="M15.2520 9.9800
L15.2590 9.9730
" />
<path d="M15.2590 9.9730
L15.2660 9.9660
" />
</g>
<g style="fill:#000000; fill-opacity:1.0000; stroke:none;">
<circle cx="15.2660" cy="9.9660" r="0.0100" /> 
</g>
<g style="fill:none; 
stroke:#000000; stroke-width:0.0200; stroke-opacity:1; 
stroke-linecap:round; stroke-linejoin:round;">
<path d="M15.2660 9.9660
L15.2730 9.9590
" />
<path d="M15.2730 9.9590
L15.2800 9.9520
" />
<path d="M15.2800 9.9520
L15.2860 9.9440
" />
<path d="M15.2860 9.9440
L15.2910 9.9360
" />
<path d="M15.2910 9.9360
L15.2970 9.9280
" />
<path d="M15.2970 9.9280
L15.3010 9.9190
" />
<path d="M15.3010 9.9190
L15.3060 9.9100
" />
<path d="M15.3060 9.9100
L15.3100 9.9020
" />
<path d="M15.3100 9.9020
L15.3130 9.8920
" />
<path d="M15.3130 9.8920
L15.3160 9.8830
" />
<path d="M15.3160 9.8830
L15.3190 9.8740
" />
<path d="M15.3190 9.8740
L15.3210 9.8640
" />
<path d="M15.3210 9.8640
L15.3230 9.8550
" />
<path d="M15.3230 9.8550
L15.3240 9.8450
" />
<path d="M15.3240 9.8450
L15.3250 9.8350
" />
<path d="M15.3250 6.6750
L15.3250 6.3250
" />
<path d="M15.3250 6.6750
L15.5250 6.6750
" />
<path d="M15.3250 8.5250
L15.3250 9.8250
" />
<path d="M15.3250 9.8350
L15.3250 9.8250
" />
<path d="M15.3750 3.0250
L15.3750 3.4250
" />
<path d="M15.3750 3.1250
L16.1250 3.1250
" />
<path d="M15.3750 3.4250
L16.1250 3.4250
" />
<path d="M15.5250 6.3250
L14.7750 6.3250
" />
<path d="M15.5250 6.7250
L15.5250 6.3250
" />
<path d="M16.1250 3.0250
L15.3750 3.0250
" />
<path d="M16.1250 3.4250
L16.1250 3.0250
" />
<path d="M17.2750 2.5250
L8.5250 2.5250
" />
<path d="M17.2750 6.3250
L17.2850 6.3250
" />
<path d="M17.2750 8.5250
L14.1750 8.5250
" />
<path d="M17.2750 8.5250
L17.2750 2.5250
" />
<path d="M17.2850 3.2250
L17.2750 3.2250
" />
<path d="M17.2850 6.3250
L17.2950 6.3240
" />
<path d="M17.2950 3.2260
L17.2850 3.2250
" />
<path d="M17.2950 6.3240
L17.3050 6.3230
" />
<path d="M17.3050 3.2270
L17.2950 3.2260
" />
<path d="M17.3050 6.3230
L17.3150 6.3210
" />
<path d="M17.3150 3.2290
L17.3050 3.2270
" />
<path d="M17.3150 6.3210
L17.3250 6.3190
" />
<path d="M17.3250 3.2310
L17.3150 3.2290
" />
<path d="M17.3250 6.3190
L17.3340 6.3160
" />
<path d="M17.3340 3.2340
L17.3250 3.2310
" />
<path d="M17.3340 6.3160
L17.3440 6.3130
" />
<path d="M17.3440 3.2370
L17.3340 3.2340
" />
<path d="M17.3440 6.3130
L17.3530 6.3090
" />
<path d="M17.3530 3.2410
L17.3440 3.2370
" />
<path d="M17.3530 6.3090
L17.3620 6.3050
" />
<path d="M17.3620 3.2450
L17.3530 3.2410
" />
<path d="M17.3620 6.3050
L17.3700 6.3010
" />
<path d="M17.3700 3.2490
L17.3620 3.2450
" />
<path d="M17.3700 6.3010
L17.3790 6.2960
" />
<path d="M17.3790 3.2540
L17.3700 3.2490
" />
<path d="M17.3790 6.2960
L17.3870 6.2910
" />
<path d="M17.3870 3.2590
L17.3790 3.2540
" />
<path d="M17.3870 6.2910
L17.3950 6.2850
" />
<path d="M17.3950 3.2650
L17.3870 3.2590
" />
<path d="M17.3950 6.2850
L17.4020 6.2790
" />
<path d="M17.4020 3.2710
L17.3950 3.2650
" />
<path d="M17.4020 6.2790
L17.4090 6.2730
" />
<path d="M17.4090 3.2770
L17.4020 3.2710
" />
<path d="M17.4090 6.2730
L17.4160 6.2660
" />
<path d="M17.4160 3.2840
L17.4090 3.2770
" />
<path d="M17.4160 6.2660
L17.4230 6.2590
" />
<path d="M17.4230 3.2910
L17.4160 3.2840
" />
<path d="M17.4230 6.2590
L17.4290 6.2520
" />
<path d="M17.4290 3.2980
L17.4230 3.2910
" />
<path d="M17.4290 6.2520
L17.4350 6.2450
" />
<path d="M17.4350 3.3050
L17.4290 3.2980
" />
<path d="M17.4350 6.2450
L17.4410 6.2370
" />
<path d="M17.4410 3.3130
L17.4350 3.3050
" />
<path d="M17.4410 6.2370
L17.4460 6.2290
" />
<path d="M17.4460 3.3210
L17.4410 3.3130
" />
<path d="M17.4460 6.2290
L17.4510 6.2200
" />
<path d="M17.4510 3.3300
L17.4460 3.3210
" />
<path d="M17.4510 6.2200
L17.4550 6.2120
" />
<path d="M17.4550 3.3380
L17.4510 3.3300
" />
<path d="M17.4550 6.2120
L17.4590 6.2030
" />
<path d="M17.4590 3.3470
L17.4550 3.3380
" />
<path d="M17.4590 6.2030
L17.4630 6.1940
" />
<path d="M17.4630 3.3560
L17.4590 3.3470
" />
<path d="M17.4630 6.1940
L17.4660 6.1840
" />
<path d="M17.4660 3.3660
L17.4630 3.3560
" />
<path d="M17.4660 6.1840
L17.4690 6.1750
" />
<path d="M17.4690 3.3750
L17.4660 3.3660
" />
<path d="M17.4690 6.1750
L17.4710 6.1650
" />
<path d="M17.4710 3.3850
L17.4690 3.3750
" />
<path d="M17.4710 6.1650
L17.4730 6.1550
" />
<path d="M17.4730 3.3950
L17.4710 3.3850
" />
<path d="M17.4730 6.1550
L17.4740 6.1450
" />
<path d="M17.4740 3.4050
L17.4730 3.3950
" />
<path d="M17.4740 6.1450
L17.4750 6.1350
" />
<path d="M17.4750 3.4150
L17.4740 3.4050
" />
<path d="M17.4750 3.4250
L17.4750 3.4150
" />
<path d="M17.4750 3.4250
L17.4750 6.1250
" />
<path d="M17.4750 4.0250
L17.5250 4.0250
" />
<path d="M17.4750 5.5250
L17.5250 5.5250
" />
<path d="M17.4750 6.1350
L17.4750 6.1250
" />
<path d="M17.5250 4.0250
L19.0750 4.0250
" />
<path d="M17.5250 5.5250
L19.0750 5.5250
" />
<path d="M19.0750 5.5250
L19.0850 5.5250
" />
<path d="M19.0850 4.0250
L19.0750 4.0250
" />
<path d="M19.0850 5.5250
L19.0950 5.5240
" />
<path d="M19.0950 4.0260
L19.0850 4.0250
" />
<path d="M19.0950 5.5240
L19.1050 5.5230
" />
<path d="M19.1050 4.0270
L19.0950 4.0260
" />
<path d="M19.1050 5.5230
L19.1150 5.5210
" />
<path d="M19.1150 4.0290
L19.1050 4.0270
" />
<path d="M19.1150 5.5210
L19.1250 5.5190
" />
<path d="M19.1250 4.0310
L19.1150 4.0290
" />
<path d="M19.1250 5.5190
L19.1340 5.5160
" />
<path d="M19.1340 4.0340
L19.1250 4.0310
" />
<path d="M19.1340 5.5160
L19.1440 5.5130
" />
<path d="M19.1440 4.0370
L19.1340 4.0340
" />
<path d="M19.1440 5.5130
L19.1530 5.5090
" />
<path d="M19.1530 4.0410
L19.1440 4.0370
" />
<path d="M19.1530 5.5090
L19.1620 5.5050
" />
<path d="M19.1620 4.0450
L19.1530 4.0410
" />
<path d="M19.1620 5.5050
L19.1700 5.5010
" />
<path d="M19.1700 4.0490
L19.1620 4.0450
" />
<path d="M19.1700 5.5010
L19.1790 5.4960
" />
<path d="M19.1790 4.0540
L19.1700 4.0490
" />
<path d="M19.1790 5.4960
L19.1870 5.4910
" />
<path d="M19.1870 4.0590
L19.1790 4.0540
" />
<path d="M19.1870 5.4910
L19.1950 5.4850
" />
<path d="M19.1950 4.0650
L19.1870 4.0590
" />
<path d="M19.1950 5.4850
L19.2020 5.4790
" />
<path d="M19.2020 4.0710
L19.1950 4.0650
" />
<path d="M19.2020 5.4790
L19.2090 5.4730
" />
<path d="M19.2090 4.0770
L19.2020 4.0710
" />
<path d="M19.2090 5.4730
L19.2160 5.4660
" />
<path d="M19.2160 4.0840
L19.2090 4.0770
" />
<path d="M19.2160 5.4660
L19.2230 5.4590
" />
<path d="M19.2230 4.0910
L19.2160 4.0840
" />
<path d="M19.2230 5.4590
L19.2290 5.4520
" />
<path d="M19.2290 4.0980
L19.2230 4.0910
" />
<path d="M19.2290 5.4520
L19.2350 5.4450
" />
<path d="M19.2350 4.1050
L19.2290 4.0980
" />
<path d="M19.2350 5.4450
L19.2410 5.4370
" />
<path d="M19.2410 4.1130
L19.2350 4.1050
" />
<path d="M19.2410 5.4370
L19.2460 5.4290
" />
<path d="M19.2460 4.1210
L19.2410 4.1130
" />
<path d="M19.2460 5.4290
L19.2510 5.4200
" />
<path d="M19.2510 4.1300
L19.2460 4.1210
" />
<path d="M19.2510 5.4200
L19.2550 5.4120
" />
<path d="M19.2550 4.1380
L19.2510 4.1300
" />
<path d="M19.2550 5.4120
L19.2590 5.4030
" />
<path d="M19.2590 4.1470
L19.2550 4.1380
" />
<path d="M19.2590 5.4030
L19.2630 5.3940
" />
<path d="M19.2630 4.1560
L19.2590 4.1470
" />
<path d="M19.2630 5.3940
L19.2660 5.3840
" />
<path d="M19.2660 4.1660
L19.2630 4.1560
" />
<path d="M19.2660 5.3840
L19.2690 5.3750
" />
<path d="M19.2690 4.1750
L19.2660 4.1660
" />
<path d="M19.2690 5.3750
L19.2710 5.3650
" />
<path d="M19.2710 4.1850
L19.2690 4.1750
" />
<path d="M19.2710 5.3650
L19.2730 5.3550
" />
<path d="M19.2730 4.1950
L19.2710 4.1850
" />
<path d="M19.2730 5.3550
L19.2740 5.3450
" />
<path d="M19.2740 4.2050
L19.2730 4.1950
" />
<path d="M19.2740 5.3450
L19.2750 5.3350
" />
<path d="M19.2750 4.2150
L19.2740 4.2050
" />
<path d="M19.2750 4.2250
L19.2750 4.2150
" />
<path d="M19.2750 4.2250
L19.2750 5.3250
" />
<path d="M19.2750 5.3350
L19.2750 5.3250
" />
</g> 
</svg>
