<?xml version="1.0" standalone="no"?>
 <!DOCTYPE svg PUBLIC "-//W3C//DTD SVG 1.1//EN" 
 "http://www.w3.org/Graphics/SVG/1.1/DTD/svg11.dtd"> 
<svg
  xmlns:svg="http://www.w3.org/2000/svg"
  xmlns="http://www.w3.org/2000/svg"
  xmlns:xlink="http://www.w3.org/1999/xlink"
  version="1.1"
  width="15.0368mm" height="12.8270mm" viewBox="0.0000 0.0000 15.0368 12.8270">
<title>SVG Image created as outline.svg date 2025/04/04 10:06:07 </title>
  <desc>Image generated by PCBNEW </desc>
<g style="fill:#000000; fill-opacity:1.0000;stroke:#000000; stroke-opacity:1.0000;
stroke-linecap:round; stroke-linejoin:round;"
 transform="translate(0 0) scale(1 1)">
</g>
<g style="fill:none; 
stroke:#000000; stroke-width:0.0200; stroke-opacity:1; 
stroke-linecap:round; stroke-linejoin:round;">
<path d="M0.3250 3.4900
L0.3250 3.4150
" />
</g>
<g style="fill:#000000; fill-opacity:1.0000; stroke:none;">
<circle cx="0.3250" cy="3.4900" r="0.0100" /> 
</g>
<g style="fill:none; 
stroke:#000000; stroke-width:0.0200; stroke-opacity:1; 
stroke-linecap:round; stroke-linejoin:round;">
<path d="M0.3250 3.7130
L0.3250 3.4900
" />
</g>
<g style="fill:#000000; fill-opacity:1.0000; stroke:none;">
<circle cx="0.3250" cy="3.7130" r="0.0100" /> 
</g>
<g style="fill:none; 
stroke:#000000; stroke-width:0.0200; stroke-opacity:1; 
stroke-linecap:round; stroke-linejoin:round;">
<path d="M0.3250 4.0720
L0.3250 3.7130
" />
</g>
<g style="fill:#000000; fill-opacity:1.0000; stroke:none;">
<circle cx="0.3250" cy="4.0720" r="0.0100" /> 
</g>
<g style="fill:none; 
stroke:#000000; stroke-width:0.0200; stroke-opacity:1; 
stroke-linecap:round; stroke-linejoin:round;">
<path d="M0.3250 4.5480
L0.3250 4.0720
" />
</g>
<g style="fill:#000000; fill-opacity:1.0000; stroke:none;">
<circle cx="0.3250" cy="4.5480" r="0.0100" /> 
</g>
<g style="fill:none; 
stroke:#000000; stroke-width:0.0200; stroke-opacity:1; 
stroke-linecap:round; stroke-linejoin:round;">
<path d="M0.3250 5.1190
L0.3250 4.5480
" />
</g>
<g style="fill:#000000; fill-opacity:1.0000; stroke:none;">
<circle cx="0.3250" cy="5.1190" r="0.0100" /> 
</g>
<g style="fill:none; 
stroke:#000000; stroke-width:0.0200; stroke-opacity:1; 
stroke-linecap:round; stroke-linejoin:round;">
<path d="M0.3250 5.7550
L0.3250 5.1190
" />
</g>
<g style="fill:#000000; fill-opacity:1.0000; stroke:none;">
<circle cx="0.3250" cy="5.7550" r="0.0100" /> 
</g>
<g style="fill:none; 
stroke:#000000; stroke-width:0.0200; stroke-opacity:1; 
stroke-linecap:round; stroke-linejoin:round;">
<path d="M0.3250 6.4250
L0.3250 5.7550
" />
</g>
<g style="fill:#000000; fill-opacity:1.0000; stroke:none;">
<circle cx="0.3250" cy="6.4250" r="0.0100" /> 
</g>
<g style="fill:none; 
stroke:#000000; stroke-width:0.0200; stroke-opacity:1; 
stroke-linecap:round; stroke-linejoin:round;">
<path d="M0.3250 7.0950
L0.3250 6.4250
" />
</g>
<g style="fill:#000000; fill-opacity:1.0000; stroke:none;">
<circle cx="0.3250" cy="7.0950" r="0.0100" /> 
</g>
<g style="fill:none; 
stroke:#000000; stroke-width:0.0200; stroke-opacity:1; 
stroke-linecap:round; stroke-linejoin:round;">
<path d="M0.3250 7.7310
L0.3250 7.0950
" />
</g>
<g style="fill:#000000; fill-opacity:1.0000; stroke:none;">
<circle cx="0.3250" cy="7.7310" r="0.0100" /> 
</g>
<g style="fill:none; 
stroke:#000000; stroke-width:0.0200; stroke-opacity:1; 
stroke-linecap:round; stroke-linejoin:round;">
<path d="M0.3250 8.3020
L0.3250 7.7310
" />
</g>
<g style="fill:#000000; fill-opacity:1.0000; stroke:none;">
<circle cx="0.3250" cy="8.3020" r="0.0100" /> 
</g>
<g style="fill:none; 
stroke:#000000; stroke-width:0.0200; stroke-opacity:1; 
stroke-linecap:round; stroke-linejoin:round;">
<path d="M0.3250 8.7780
L0.3250 8.3020
" />
</g>
<g style="fill:#000000; fill-opacity:1.0000; stroke:none;">
<circle cx="0.3250" cy="8.7780" r="0.0100" /> 
</g>
<g style="fill:none; 
stroke:#000000; stroke-width:0.0200; stroke-opacity:1; 
stroke-linecap:round; stroke-linejoin:round;">
<path d="M0.3250 9.1370
L0.3250 8.7780
" />
</g>
<g style="fill:#000000; fill-opacity:1.0000; stroke:none;">
<circle cx="0.3250" cy="9.1370" r="0.0100" /> 
</g>
<g style="fill:none; 
stroke:#000000; stroke-width:0.0200; stroke-opacity:1; 
stroke-linecap:round; stroke-linejoin:round;">
<path d="M0.3250 9.3600
L0.3250 9.1370
" />
</g>
<g style="fill:#000000; fill-opacity:1.0000; stroke:none;">
<circle cx="0.3250" cy="9.3600" r="0.0100" /> 
</g>
<g style="fill:none; 
stroke:#000000; stroke-width:0.0200; stroke-opacity:1; 
stroke-linecap:round; stroke-linejoin:round;">
<path d="M0.3250 9.4350
L0.3250 9.3600
" />
<path d="M1.6250 3.4150
L0.3250 3.4150
" />
<path d="M1.6250 3.4150
L1.6250 3.4900
" />
</g>
<g style="fill:#000000; fill-opacity:1.0000; stroke:none;">
<circle cx="1.6250" cy="3.4900" r="0.0100" /> 
</g>
<g style="fill:none; 
stroke:#000000; stroke-width:0.0200; stroke-opacity:1; 
stroke-linecap:round; stroke-linejoin:round;">
<path d="M1.6250 3.4900
L1.6250 3.7130
" />
</g>
<g style="fill:#000000; fill-opacity:1.0000; stroke:none;">
<circle cx="1.6250" cy="3.7130" r="0.0100" /> 
</g>
<g style="fill:none; 
stroke:#000000; stroke-width:0.0200; stroke-opacity:1; 
stroke-linecap:round; stroke-linejoin:round;">
<path d="M1.6250 3.7130
L1.6250 4.0720
" />
</g>
<g style="fill:#000000; fill-opacity:1.0000; stroke:none;">
<circle cx="1.6250" cy="4.0720" r="0.0100" /> 
</g>
<g style="fill:none; 
stroke:#000000; stroke-width:0.0200; stroke-opacity:1; 
stroke-linecap:round; stroke-linejoin:round;">
<path d="M1.6250 4.0720
L1.6250 4.5480
" />
</g>
<g style="fill:#000000; fill-opacity:1.0000; stroke:none;">
<circle cx="1.6250" cy="4.5480" r="0.0100" /> 
</g>
<g style="fill:none; 
stroke:#000000; stroke-width:0.0200; stroke-opacity:1; 
stroke-linecap:round; stroke-linejoin:round;">
<path d="M1.6250 4.5480
L1.6250 5.1190
" />
</g>
<g style="fill:#000000; fill-opacity:1.0000; stroke:none;">
<circle cx="1.6250" cy="5.1190" r="0.0100" /> 
</g>
<g style="fill:none; 
stroke:#000000; stroke-width:0.0200; stroke-opacity:1; 
stroke-linecap:round; stroke-linejoin:round;">
<path d="M1.6250 5.1190
L1.6250 5.7550
" />
</g>
<g style="fill:#000000; fill-opacity:1.0000; stroke:none;">
<circle cx="1.6250" cy="5.7550" r="0.0100" /> 
</g>
<g style="fill:none; 
stroke:#000000; stroke-width:0.0200; stroke-opacity:1; 
stroke-linecap:round; stroke-linejoin:round;">
<path d="M1.6250 5.7550
L1.6250 6.4250
" />
</g>
<g style="fill:#000000; fill-opacity:1.0000; stroke:none;">
<circle cx="1.6250" cy="6.4250" r="0.0100" /> 
</g>
<g style="fill:none; 
stroke:#000000; stroke-width:0.0200; stroke-opacity:1; 
stroke-linecap:round; stroke-linejoin:round;">
<path d="M1.6250 6.4250
L1.6250 7.0950
" />
</g>
<g style="fill:#000000; fill-opacity:1.0000; stroke:none;">
<circle cx="1.6250" cy="7.0950" r="0.0100" /> 
</g>
<g style="fill:none; 
stroke:#000000; stroke-width:0.0200; stroke-opacity:1; 
stroke-linecap:round; stroke-linejoin:round;">
<path d="M1.6250 7.0950
L1.6250 7.7310
" />
</g>
<g style="fill:#000000; fill-opacity:1.0000; stroke:none;">
<circle cx="1.6250" cy="7.7310" r="0.0100" /> 
</g>
<g style="fill:none; 
stroke:#000000; stroke-width:0.0200; stroke-opacity:1; 
stroke-linecap:round; stroke-linejoin:round;">
<path d="M1.6250 7.7310
L1.6250 8.3020
" />
</g>
<g style="fill:#000000; fill-opacity:1.0000; stroke:none;">
<circle cx="1.6250" cy="8.3020" r="0.0100" /> 
</g>
<g style="fill:none; 
stroke:#000000; stroke-width:0.0200; stroke-opacity:1; 
stroke-linecap:round; stroke-linejoin:round;">
<path d="M1.6250 8.3020
L1.6250 8.7780
" />
</g>
<g style="fill:#000000; fill-opacity:1.0000; stroke:none;">
<circle cx="1.6250" cy="8.7780" r="0.0100" /> 
</g>
<g style="fill:none; 
stroke:#000000; stroke-width:0.0200; stroke-opacity:1; 
stroke-linecap:round; stroke-linejoin:round;">
<path d="M1.6250 8.7780
L1.6250 9.1370
" />
</g>
<g style="fill:#000000; fill-opacity:1.0000; stroke:none;">
<circle cx="1.6250" cy="9.1370" r="0.0100" /> 
</g>
<g style="fill:none; 
stroke:#000000; stroke-width:0.0200; stroke-opacity:1; 
stroke-linecap:round; stroke-linejoin:round;">
<path d="M1.6250 9.1370
L1.6250 9.3600
" />
</g>
<g style="fill:#000000; fill-opacity:1.0000; stroke:none;">
<circle cx="1.6250" cy="9.3600" r="0.0100" /> 
</g>
<g style="fill:none; 
stroke:#000000; stroke-width:0.0200; stroke-opacity:1; 
stroke-linecap:round; stroke-linejoin:round;">
<path d="M1.6250 9.3600
L1.6250 9.4350
" />
<path d="M1.6250 9.4350
L0.3250 9.4350
" />
<path d="M2.6250 1.9250
L3.6250 1.9250
" />
<path d="M2.6250 3.4250
L1.6250 3.4250
" />
<path d="M2.6250 4.7670
L2.6250 1.9250
" />
<path d="M2.6250 8.0830
L3.6250 8.0830
" />
<path d="M2.6250 9.4250
L1.6250 9.4250
" />
<path d="M2.6250 10.9250
L2.6250 8.0830
" />
<path d="M3.6250 0.4250
L12.5250 0.4250
" />
<path d="M3.6250 1.9250
L3.6250 0.4250
" />
<path d="M3.6250 3.1050
L3.6250 4.7670
" />
<path d="M3.6250 4.7670
L2.6250 4.7670
" />
<path d="M3.6250 4.7670
L3.6250 4.9810
" />
</g>
<g style="fill:#000000; fill-opacity:1.0000; stroke:none;">
<circle cx="3.6250" cy="4.9810" r="0.0100" /> 
</g>
<g style="fill:none; 
stroke:#000000; stroke-width:0.0200; stroke-opacity:1; 
stroke-linecap:round; stroke-linejoin:round;">
<path d="M3.6250 4.9810
L3.6250 5.2060
" />
</g>
<g style="fill:#000000; fill-opacity:1.0000; stroke:none;">
<circle cx="3.6250" cy="5.2060" r="0.0100" /> 
</g>
<g style="fill:none; 
stroke:#000000; stroke-width:0.0200; stroke-opacity:1; 
stroke-linecap:round; stroke-linejoin:round;">
<path d="M3.6250 5.2060
L3.6250 5.4400
" />
</g>
<g style="fill:#000000; fill-opacity:1.0000; stroke:none;">
<circle cx="3.6250" cy="5.4400" r="0.0100" /> 
</g>
<g style="fill:none; 
stroke:#000000; stroke-width:0.0200; stroke-opacity:1; 
stroke-linecap:round; stroke-linejoin:round;">
<path d="M3.6250 5.4400
L3.6250 6.4250
" />
<path d="M3.6250 5.8580
L4.1770 5.8580
" />
</g>
<g style="fill:#000000; fill-opacity:1.0000; stroke:none;">
<circle cx="3.6250" cy="6.4250" r="0.0100" /> 
</g>
<g style="fill:none; 
stroke:#000000; stroke-width:0.0200; stroke-opacity:1; 
stroke-linecap:round; stroke-linejoin:round;">
<path d="M3.6250 6.4250
L3.6250 7.1700
" />
</g>
<g style="fill:#000000; fill-opacity:1.0000; stroke:none;">
<circle cx="3.6250" cy="7.1700" r="0.0100" /> 
</g>
<g style="fill:none; 
stroke:#000000; stroke-width:0.0200; stroke-opacity:1; 
stroke-linecap:round; stroke-linejoin:round;">
<path d="M3.6250 7.1700
L3.6250 7.6440
" />
</g>
<g style="fill:#000000; fill-opacity:1.0000; stroke:none;">
<circle cx="3.6250" cy="7.6440" r="0.0100" /> 
</g>
<g style="fill:none; 
stroke:#000000; stroke-width:0.0200; stroke-opacity:1; 
stroke-linecap:round; stroke-linejoin:round;">
<path d="M3.6250 7.6440
L3.6250 7.8690
" />
</g>
<g style="fill:#000000; fill-opacity:1.0000; stroke:none;">
<circle cx="3.6250" cy="7.8690" r="0.0100" /> 
</g>
<g style="fill:none; 
stroke:#000000; stroke-width:0.0200; stroke-opacity:1; 
stroke-linecap:round; stroke-linejoin:round;">
<path d="M3.6250 7.8690
L3.6250 8.0830
" />
<path d="M3.6250 8.0830
L3.6250 9.7450
" />
<path d="M3.6250 9.7450
L3.9150 9.7450
" />
<path d="M3.6250 10.9250
L2.6250 10.9250
" />
<path d="M3.6250 12.4250
L3.6250 10.9250
" />
<path d="M3.6610 3.8850
L3.6860 3.8850
" />
<path d="M3.6610 5.6120
L3.6610 3.8850
" />
<path d="M3.6610 5.6120
L3.6620 5.6140
" />
<path d="M3.6610 7.2580
L3.6620 7.2560
" />
<path d="M3.6610 8.9850
L3.6610 7.2580
" />
<path d="M3.6620 5.6140
L3.6630 5.6170
" />
<path d="M3.6620 7.2560
L3.6630 7.2530
" />
<path d="M3.6630 5.6170
L3.6640 5.6200
" />
<path d="M3.6630 7.2530
L3.6640 7.2500
" />
<path d="M3.6640 5.6200
L3.6660 5.6220
" />
<path d="M3.6640 7.2500
L3.6660 7.2480
" />
<path d="M3.6660 5.6220
L3.6670 5.6240
" />
<path d="M3.6660 7.2480
L3.6670 7.2460
" />
<path d="M3.6670 5.6240
L3.6690 5.6260
" />
<path d="M3.6670 7.2460
L3.6690 7.2440
" />
<path d="M3.6690 5.6260
L3.6710 5.6280
" />
<path d="M3.6690 7.2440
L3.6710 7.2420
" />
<path d="M3.6710 5.6280
L3.6720 5.6290
" />
<path d="M3.6710 7.2420
L3.6720 7.2410
" />
<path d="M3.6720 5.6290
L3.6740 5.6310
" />
<path d="M3.6720 7.2410
L3.6740 7.2390
" />
<path d="M3.6740 5.6310
L3.6750 5.6320
" />
<path d="M3.6740 7.2390
L3.6750 7.2380
" />
<path d="M3.6750 5.6320
L3.6760 5.6320
" />
<path d="M3.6750 7.2380
L3.6760 7.2380
" />
<path d="M3.6760 5.6320
L3.6770 5.6330
" />
<path d="M3.6760 7.2380
L3.6770 7.2370
" />
<path d="M3.6770 5.6330
L3.6780 5.6330
" />
<path d="M3.6770 7.2370
L3.6780 7.2370
" />
<path d="M3.6780 5.6330
L3.6790 5.6340
" />
<path d="M3.6780 7.2370
L3.6790 7.2360
" />
<path d="M3.6790 5.6340
L3.6800 5.6340
" />
<path d="M3.6790 7.2360
L3.6800 7.2360
" />
<path d="M3.6800 5.6340
L3.6810 5.6350
" />
<path d="M3.6800 7.2360
L3.6810 7.2350
" />
<path d="M3.6810 5.6350
L3.6820 5.6350
" />
<path d="M3.6810 7.2350
L3.6820 7.2350
" />
<path d="M3.6820 5.6350
L3.6830 5.6350
" />
<path d="M3.6820 7.2350
L3.6830 7.2350
" />
<path d="M3.6830 5.6350
L3.6850 5.6350
" />
<path d="M3.6830 7.2350
L3.6850 7.2350
" />
<path d="M3.6850 5.6350
L3.6870 5.6360
" />
<path d="M3.6850 7.2350
L3.6870 7.2340
" />
</g>
<g style="fill:#000000; fill-opacity:1.0000; stroke:none;">
<circle cx="3.6860" cy="3.8850" r="0.0100" /> 
</g>
<g style="fill:none; 
stroke:#000000; stroke-width:0.0200; stroke-opacity:1; 
stroke-linecap:round; stroke-linejoin:round;">
<path d="M3.6860 3.8850
L3.7240 3.8850
" />
<path d="M3.6860 8.9850
L3.6610 8.9850
" />
</g>
<g style="fill:#000000; fill-opacity:1.0000; stroke:none;">
<circle cx="3.6860" cy="8.9850" r="0.0100" /> 
</g>
<g style="fill:none; 
stroke:#000000; stroke-width:0.0200; stroke-opacity:1; 
stroke-linecap:round; stroke-linejoin:round;">
<path d="M3.6870 5.6360
L3.6890 5.6360
" />
<path d="M3.6870 7.2340
L3.6890 7.2340
" />
<path d="M3.6890 5.6360
L3.7070 5.6370
" />
<path d="M3.7070 5.6370
L3.7290 5.6390
" />
<path d="M3.7070 7.2330
L3.6890 7.2340
" />
</g>
<g style="fill:#000000; fill-opacity:1.0000; stroke:none;">
<circle cx="3.7240" cy="3.8850" r="0.0100" /> 
</g>
<g style="fill:none; 
stroke:#000000; stroke-width:0.0200; stroke-opacity:1; 
stroke-linecap:round; stroke-linejoin:round;">
<path d="M3.7240 3.8850
L3.7750 3.8850
" />
<path d="M3.7240 8.9850
L3.6860 8.9850
" />
</g>
<g style="fill:#000000; fill-opacity:1.0000; stroke:none;">
<circle cx="3.7240" cy="8.9850" r="0.0100" /> 
</g>
<g style="fill:none; 
stroke:#000000; stroke-width:0.0200; stroke-opacity:1; 
stroke-linecap:round; stroke-linejoin:round;">
<path d="M3.7290 5.6390
L3.7530 5.6420
" />
<path d="M3.7290 7.2310
L3.7070 7.2330
" />
<path d="M3.7530 5.6420
L3.7800 5.6460
" />
<path d="M3.7530 7.2280
L3.7290 7.2310
" />
</g>
<g style="fill:#000000; fill-opacity:1.0000; stroke:none;">
<circle cx="3.7750" cy="3.8850" r="0.0100" /> 
</g>
<g style="fill:none; 
stroke:#000000; stroke-width:0.0200; stroke-opacity:1; 
stroke-linecap:round; stroke-linejoin:round;">
<path d="M3.7750 3.8850
L3.8380 3.8850
" />
<path d="M3.7750 8.9850
L3.7240 8.9850
" />
</g>
<g style="fill:#000000; fill-opacity:1.0000; stroke:none;">
<circle cx="3.7750" cy="8.9850" r="0.0100" /> 
</g>
<g style="fill:none; 
stroke:#000000; stroke-width:0.0200; stroke-opacity:1; 
stroke-linecap:round; stroke-linejoin:round;">
<path d="M3.7800 5.6460
L3.7940 5.6480
" />
<path d="M3.7810 7.2240
L3.7530 7.2280
" />
<path d="M3.7940 5.6480
L3.8090 5.6510
" />
<path d="M3.8090 5.6510
L3.8250 5.6540
" />
<path d="M3.8100 7.2190
L3.7810 7.2240
" />
<path d="M3.8250 5.6540
L3.8410 5.6580
" />
</g>
<g style="fill:#000000; fill-opacity:1.0000; stroke:none;">
<circle cx="3.8380" cy="3.8850" r="0.0100" /> 
</g>
<g style="fill:none; 
stroke:#000000; stroke-width:0.0200; stroke-opacity:1; 
stroke-linecap:round; stroke-linejoin:round;">
<path d="M3.8380 3.8850
L3.9090 3.8850
" />
<path d="M3.8380 8.9850
L3.7750 8.9850
" />
</g>
<g style="fill:#000000; fill-opacity:1.0000; stroke:none;">
<circle cx="3.8380" cy="8.9850" r="0.0100" /> 
</g>
<g style="fill:none; 
stroke:#000000; stroke-width:0.0200; stroke-opacity:1; 
stroke-linecap:round; stroke-linejoin:round;">
<path d="M3.8410 5.6580
L3.8570 5.6620
" />
<path d="M3.8420 7.2120
L3.8100 7.2190
" />
<path d="M3.8570 5.6620
L3.8740 5.6670
" />
<path d="M3.8580 7.2070
L3.8420 7.2120
" />
<path d="M3.8740 5.6670
L3.8910 5.6720
" />
<path d="M3.8750 7.2030
L3.8580 7.2070
" />
<path d="M3.8910 5.6720
L3.9090 5.6780
" />
<path d="M3.8920 7.1970
L3.8750 7.2030
" />
</g>
<g style="fill:#000000; fill-opacity:1.0000; stroke:none;">
<circle cx="3.9090" cy="3.8850" r="0.0100" /> 
</g>
<g style="fill:none; 
stroke:#000000; stroke-width:0.0200; stroke-opacity:1; 
stroke-linecap:round; stroke-linejoin:round;">
<path d="M3.9090 3.8850
L4.0710 3.8850
" />
</g>
<g style="fill:#000000; fill-opacity:1.0000; stroke:none;">
<circle cx="3.9090" cy="5.6780" r="0.0100" /> 
</g>
<g style="fill:none; 
stroke:#000000; stroke-width:0.0200; stroke-opacity:1; 
stroke-linecap:round; stroke-linejoin:round;">
<path d="M3.9090 5.6780
L3.9240 5.6830
" />
<path d="M3.9100 7.1920
L3.8920 7.1970
" />
</g>
<g style="fill:#000000; fill-opacity:1.0000; stroke:none;">
<circle cx="3.9100" cy="7.1920" r="0.0100" /> 
</g>
<g style="fill:none; 
stroke:#000000; stroke-width:0.0200; stroke-opacity:1; 
stroke-linecap:round; stroke-linejoin:round;">
<path d="M3.9150 3.1050
L3.6250 3.1050
" />
<path d="M3.9150 3.7250
L3.9150 3.1050
" />
<path d="M3.9150 3.7250
L5.9950 3.7250
" />
<path d="M3.9150 9.1250
L5.9950 9.1250
" />
<path d="M3.9150 9.1250
L5.9950 9.1250
" />
<path d="M3.9150 9.7450
L3.9150 9.1250
" />
<path d="M3.9240 5.6830
L3.9400 5.6890
" />
<path d="M3.9250 7.1860
L3.9100 7.1920
" />
<path d="M3.9400 5.6890
L3.9550 5.6960
" />
<path d="M3.9400 7.1800
L3.9250 7.1860
" />
<path d="M3.9550 5.6960
L3.9700 5.7020
" />
<path d="M3.9560 7.1740
L3.9400 7.1800
" />
<path d="M3.9700 5.7020
L3.9860 5.7090
" />
<path d="M3.9710 7.1680
L3.9560 7.1740
" />
<path d="M3.9860 5.7090
L4.0010 5.7170
" />
<path d="M3.9860 7.1610
L3.9710 7.1680
" />
<path d="M3.9880 8.9850
L3.8380 8.9850
" />
</g>
<g style="fill:#000000; fill-opacity:1.0000; stroke:none;">
<circle cx="3.9880" cy="8.9850" r="0.0100" /> 
</g>
<g style="fill:none; 
stroke:#000000; stroke-width:0.0200; stroke-opacity:1; 
stroke-linecap:round; stroke-linejoin:round;">
<path d="M4.0010 5.7170
L4.0160 5.7240
" />
<path d="M4.0010 7.1530
L3.9860 7.1610
" />
<path d="M4.0160 5.7240
L4.0310 5.7320
" />
<path d="M4.0170 7.1460
L4.0010 7.1530
" />
<path d="M4.0310 5.7320
L4.0460 5.7410
" />
<path d="M4.0320 7.1370
L4.0170 7.1460
" />
<path d="M4.0460 5.7410
L4.0610 5.7500
" />
<path d="M4.0470 7.1290
L4.0320 7.1370
" />
<path d="M4.0610 5.7500
L4.0760 5.7590
" />
<path d="M4.0620 7.1200
L4.0470 7.1290
" />
</g>
<g style="fill:#000000; fill-opacity:1.0000; stroke:none;">
<circle cx="4.0710" cy="3.8850" r="0.0100" /> 
</g>
<g style="fill:none; 
stroke:#000000; stroke-width:0.0200; stroke-opacity:1; 
stroke-linecap:round; stroke-linejoin:round;">
<path d="M4.0710 3.8850
L4.3250 3.8850
" />
<path d="M4.0710 8.9850
L3.9880 8.9850
" />
</g>
<g style="fill:#000000; fill-opacity:1.0000; stroke:none;">
<circle cx="4.0710" cy="8.9850" r="0.0100" /> 
</g>
<g style="fill:none; 
stroke:#000000; stroke-width:0.0200; stroke-opacity:1; 
stroke-linecap:round; stroke-linejoin:round;">
<path d="M4.0760 5.7590
L4.0910 5.7680
" />
<path d="M4.0760 7.1110
L4.0620 7.1200
" />
<path d="M4.0910 5.7680
L4.1060 5.7780
" />
<path d="M4.0910 7.1010
L4.0760 7.1110
" />
<path d="M4.1060 5.7780
L4.1210 5.7890
" />
<path d="M4.1060 7.0910
L4.0910 7.1010
" />
<path d="M4.1210 5.7890
L4.1350 5.8000
" />
<path d="M4.1210 7.0810
L4.1060 7.0910
" />
<path d="M4.1350 5.8000
L4.1500 5.8110
" />
<path d="M4.1350 7.0700
L4.1210 7.0810
" />
<path d="M4.1500 5.8110
L4.1850 5.8400
" />
<path d="M4.1500 7.0590
L4.1350 7.0700
" />
<path d="M4.1850 5.8400
L4.2170 5.8710
" />
<path d="M4.1850 7.0300
L4.1500 7.0590
" />
<path d="M4.1870 6.9920
L3.6250 6.9920
" />
<path d="M4.2170 5.8710
L4.2480 5.9040
" />
<path d="M4.2170 6.9990
L4.1850 7.0300
" />
<path d="M4.2480 5.9040
L4.2770 5.9380
" />
<path d="M4.2480 6.9660
L4.2170 6.9990
" />
<path d="M4.2770 5.9380
L4.3030 5.9730
" />
<path d="M4.2770 6.9320
L4.2480 6.9660
" />
<path d="M4.2950 6.3090
L4.2950 6.5640
" />
<path d="M4.3030 5.9730
L4.3280 6.0100
" />
<path d="M4.3040 6.8960
L4.2770 6.9320
" />
</g>
<g style="fill:#000000; fill-opacity:1.0000; stroke:none;">
<circle cx="4.3250" cy="3.8850" r="0.0100" /> 
</g>
<g style="fill:none; 
stroke:#000000; stroke-width:0.0200; stroke-opacity:1; 
stroke-linecap:round; stroke-linejoin:round;">
<path d="M4.3250 3.8850
L4.4730 3.8850
" />
<path d="M4.3280 6.0100
L4.3510 6.0490
" />
<path d="M4.3280 6.8590
L4.3040 6.8960
" />
<path d="M4.3510 6.0490
L4.3710 6.0880
" />
<path d="M4.3510 6.8210
L4.3280 6.8590
" />
<path d="M4.3710 6.0880
L4.3890 6.1280
" />
<path d="M4.3710 6.7820
L4.3510 6.8210
" />
<path d="M4.3890 6.1280
L4.4050 6.1700
" />
<path d="M4.3890 6.7410
L4.3710 6.7820
" />
<path d="M4.4030 8.9850
L4.0710 8.9850
" />
</g>
<g style="fill:#000000; fill-opacity:1.0000; stroke:none;">
<circle cx="4.4030" cy="8.9850" r="0.0100" /> 
</g>
<g style="fill:none; 
stroke:#000000; stroke-width:0.0200; stroke-opacity:1; 
stroke-linecap:round; stroke-linejoin:round;">
<path d="M4.4050 6.1700
L4.4180 6.2120
" />
<path d="M4.4050 6.7000
L4.3890 6.7410
" />
<path d="M4.4180 6.2120
L4.4300 6.2560
" />
<path d="M4.4180 6.6570
L4.4050 6.7000
" />
<path d="M4.4300 6.2560
L4.4380 6.2990
" />
<path d="M4.4300 6.6140
L4.4180 6.6570
" />
<path d="M4.4380 6.2990
L4.4450 6.3440
" />
<path d="M4.4380 6.5700
L4.4300 6.6140
" />
<path d="M4.4450 6.3440
L4.4490 6.3890
" />
<path d="M4.4450 6.5250
L4.4380 6.5700
" />
<path d="M4.4490 6.3890
L4.4500 6.4350
" />
<path d="M4.4490 6.4800
L4.4450 6.5250
" />
<path d="M4.4500 6.4350
L4.4490 6.4800
" />
</g>
<g style="fill:#000000; fill-opacity:1.0000; stroke:none;">
<circle cx="4.4500" cy="6.4350" r="0.0100" /> 
<circle cx="4.4730" cy="3.8850" r="0.0100" /> 
</g>
<g style="fill:none; 
stroke:#000000; stroke-width:0.0200; stroke-opacity:1; 
stroke-linecap:round; stroke-linejoin:round;">
<path d="M4.4730 3.8850
L4.5340 3.8850
" />
<path d="M4.4730 8.9850
L4.4030 8.9850
" />
</g>
<g style="fill:#000000; fill-opacity:1.0000; stroke:none;">
<circle cx="4.4730" cy="8.9850" r="0.0100" /> 
<circle cx="4.5340" cy="3.8850" r="0.0100" /> 
</g>
<g style="fill:none; 
stroke:#000000; stroke-width:0.0200; stroke-opacity:1; 
stroke-linecap:round; stroke-linejoin:round;">
<path d="M4.5340 3.8850
L4.5830 3.8850
" />
<path d="M4.5340 8.9850
L4.4730 8.9850
" />
</g>
<g style="fill:#000000; fill-opacity:1.0000; stroke:none;">
<circle cx="4.5340" cy="8.9850" r="0.0100" /> 
</g>
<g style="fill:none; 
stroke:#000000; stroke-width:0.0200; stroke-opacity:1; 
stroke-linecap:round; stroke-linejoin:round;">
<path d="M4.5830 3.8850
L4.6680 3.8850
" />
<path d="M4.5830 8.9850
L4.5340 8.9850
" />
<path d="M4.6680 8.9850
L4.5830 8.9850
" />
<path d="M4.6680 8.9850
L4.6680 3.8850
" />
<path d="M5.9950 3.7250
L3.9150 3.7250
" />
<path d="M5.9950 9.1250
L5.9950 3.7250
" />
<path d="M6.5950 4.1250
L9.5950 4.1250
" />
<path d="M6.5950 4.5250
L9.5950 4.5250
" />
<path d="M6.5950 4.9250
L9.5950 4.9250
" />
<path d="M6.5950 5.3250
L9.5950 5.3250
" />
<path d="M6.5950 5.7250
L9.5950 5.7250
" />
<path d="M6.5950 6.1250
L9.5950 6.1250
" />
<path d="M6.5950 6.5250
L9.5950 6.5250
" />
<path d="M6.5950 6.9250
L9.5950 6.9250
" />
<path d="M6.5950 7.3250
L9.5950 7.3250
" />
<path d="M6.5950 7.7250
L9.5950 7.7250
" />
<path d="M6.5950 8.1250
L9.5950 8.1250
" />
<path d="M6.5950 8.5250
L9.5950 8.5250
" />
<path d="M6.5950 8.7250
L6.5950 4.1250
" />
<path d="M6.5950 8.7250
L9.5950 8.7250
" />
<path d="M9.5950 4.1250
L9.5950 8.7250
" />
<path d="M9.5950 4.3250
L6.5950 4.3250
" />
<path d="M9.5950 4.7250
L6.5950 4.7250
" />
<path d="M9.5950 5.1250
L6.5950 5.1250
" />
<path d="M9.5950 5.5250
L6.5950 5.5250
" />
<path d="M9.5950 5.9250
L6.5950 5.9250
" />
<path d="M9.5950 6.3250
L6.5950 6.3250
" />
<path d="M9.5950 6.7250
L6.5950 6.7250
" />
<path d="M9.5950 7.1250
L6.5950 7.1250
" />
<path d="M9.5950 7.5250
L6.5950 7.5250
" />
<path d="M9.5950 7.9250
L6.5950 7.9250
" />
<path d="M9.5950 8.3250
L6.5950 8.3250
" />
<path d="M10.1950 1.2800
L10.1950 1.5700
" />
<path d="M10.1950 1.5700
L11.4250 1.5700
" />
<path d="M10.1950 11.2550
L10.1950 11.5950
" />
<path d="M10.1950 11.5950
L11.4250 11.5950
" />
<path d="M10.5350 11.3000
L10.5350 11.5500
" />
<path d="M10.5350 11.3000
L11.0300 11.3000
" />
<path d="M10.7920 1.3000
L10.7920 1.5500
" />
<path d="M10.7920 1.3000
L11.0570 1.3000
" />
<path d="M11.0300 11.3000
L11.1640 11.3000
" />
<path d="M11.0300 11.5500
L10.5350 11.5500
" />
<path d="M11.0570 1.3000
L11.1360 1.3000
" />
<path d="M11.0570 1.5500
L10.7920 1.5500
" />
<path d="M11.1360 1.5500
L11.0570 1.5500
" />
<path d="M11.1360 1.5500
L11.3950 1.5500
" />
<path d="M11.1640 11.5500
L11.0300 11.5500
" />
<path d="M11.3950 1.3000
L11.1360 1.3000
" />
<path d="M11.3950 1.5500
L11.3950 1.3000
" />
<path d="M11.3950 11.3000
L11.1640 11.3000
" />
<path d="M11.3950 11.5500
L11.1640 11.5500
" />
<path d="M11.3950 11.5500
L11.3950 11.3000
" />
<path d="M11.4250 1.2800
L10.1950 1.2800
" />
<path d="M11.4250 1.5700
L11.4250 1.2800
" />
<path d="M11.4250 8.7300
L11.4250 9.1200
" />
<path d="M11.4250 9.1200
L12.6250 9.1200
" />
<path d="M11.4250 11.2550
L10.1950 11.2550
" />
<path d="M11.4250 11.5950
L11.4250 11.2550
" />
<path d="M11.6250 3.7550
L11.6250 4.0950
" />
<path d="M11.6250 4.0950
L12.6250 4.0950
" />
<path d="M12.2330 3.7750
L12.2650 3.7750
" />
<path d="M12.2330 4.0750
L12.2330 3.7750
" />
<path d="M12.2330 8.7750
L12.2330 9.0750
" />
<path d="M12.2650 3.7750
L12.4290 3.7750
" />
<path d="M12.2650 4.0750
L12.2330 4.0750
" />
<path d="M12.2650 8.7750
L12.2330 8.7750
" />
<path d="M12.2650 9.0750
L12.2330 9.0750
" />
<path d="M12.4290 4.0750
L12.2650 4.0750
" />
<path d="M12.4290 4.0750
L12.6250 4.0750
" />
<path d="M12.4290 8.7750
L12.2650 8.7750
" />
<path d="M12.4290 9.0750
L12.2650 9.0750
" />
<path d="M12.5250 0.4250
L12.5250 1.2800
" />
<path d="M12.5250 0.4250
L13.6750 0.4250
" />
<path d="M12.5250 1.2800
L13.6750 1.2800
" />
<path d="M12.5250 1.2800
L13.6750 1.2800
" />
<path d="M12.5250 11.5950
L12.5250 12.4250
" />
<path d="M12.5250 12.4250
L3.6250 12.4250
" />
<path d="M12.5250 12.4250
L13.6750 12.4250
" />
<path d="M12.6250 3.7550
L11.6250 3.7550
" />
<path d="M12.6250 3.7750
L12.4290 3.7750
" />
<path d="M12.6250 4.0950
L12.6250 3.7550
" />
<path d="M12.6250 8.7300
L11.4250 8.7300
" />
<path d="M12.6250 8.7750
L12.4290 8.7750
" />
<path d="M12.6250 9.0750
L12.4290 9.0750
" />
<path d="M12.6250 9.1200
L12.6250 8.7300
" />
<path d="M13.6750 0.4250
L14.6250 0.4250
" />
<path d="M13.6750 1.2800
L13.6750 0.4250
" />
<path d="M13.6750 11.5950
L12.5250 11.5950
" />
<path d="M13.6750 11.5950
L12.5250 11.5950
" />
<path d="M13.6750 12.4250
L13.6750 11.5950
" />
<path d="M14.6250 0.4250
L14.6250 12.4250
" />
<path d="M14.6250 12.4250
L13.6750 12.4250
" />
</g> 
</svg>
