<?xml version="1.0" standalone="no"?>
 <!DOCTYPE svg PUBLIC "-//W3C//DTD SVG 1.1//EN" 
 "http://www.w3.org/Graphics/SVG/1.1/DTD/svg11.dtd"> 
<svg
  xmlns:svg="http://www.w3.org/2000/svg"
  xmlns="http://www.w3.org/2000/svg"
  xmlns:xlink="http://www.w3.org/1999/xlink"
  version="1.1"
  width="15.5448mm" height="13.6398mm" viewBox="0.0000 0.0000 15.5448 13.6398">
<title>SVG Image created as outline.svg date 2025/04/04 10:06:22 </title>
  <desc>Image generated by PCBNEW </desc>
<g style="fill:#000000; fill-opacity:1.0000;stroke:#000000; stroke-opacity:1.0000;
stroke-linecap:round; stroke-linejoin:round;"
 transform="translate(0 0) scale(1 1)">
</g>
<g style="fill:none; 
stroke:#000000; stroke-width:0.0200; stroke-opacity:1; 
stroke-linecap:round; stroke-linejoin:round;">
<path d="M0.4250 2.3250
L1.7250 2.3250
" />
<path d="M0.4250 5.1250
L0.4250 2.3250
" />
<path d="M0.4250 5.1250
L1.3250 5.1250
" />
<path d="M0.9250 6.2410
L0.9250 7.4090
" />
<path d="M0.9250 6.2410
L1.4010 6.1580
" />
<path d="M0.9250 7.4090
L1.3600 7.4850
" />
</g>
<g style="fill:#000000; fill-opacity:1.0000; stroke:none;">
<circle cx="1.1250" cy="5.5750" r="0.0100" /> 
</g>
<g style="fill:none; 
stroke:#000000; stroke-width:0.0200; stroke-opacity:1; 
stroke-linecap:round; stroke-linejoin:round;">
<path d="M1.1250 5.5750
L1.1250 8.0750
" />
<path d="M1.1250 5.5750
L1.1260 5.5580
" />
</g>
<g style="fill:#000000; fill-opacity:1.0000; stroke:none;">
<circle cx="1.1250" cy="8.0750" r="0.0100" /> 
</g>
<g style="fill:none; 
stroke:#000000; stroke-width:0.0200; stroke-opacity:1; 
stroke-linecap:round; stroke-linejoin:round;">
<path d="M1.1260 5.5580
L1.1310 5.5420
" />
<path d="M1.1280 8.0980
L1.1250 8.0750
" />
<path d="M1.1310 5.5420
L1.1370 5.5270
" />
<path d="M1.1350 8.1190
L1.1280 8.0980
" />
<path d="M1.1370 5.5270
L1.1470 5.5130
" />
<path d="M1.1440 8.1340
L1.1350 8.1190
" />
<path d="M1.1470 5.5130
L1.1580 5.5010
" />
<path d="M1.1550 8.1470
L1.1440 8.1340
" />
<path d="M1.1580 5.5010
L1.1710 5.4910
" />
<path d="M1.1680 8.1570
L1.1550 8.1470
" />
<path d="M1.1710 5.4910
L1.1860 5.4830
" />
<path d="M1.1820 8.1650
L1.1680 8.1570
" />
<path d="M1.1860 5.4830
L1.2020 5.4780
" />
<path d="M1.1980 8.1710
L1.1820 8.1650
" />
<path d="M1.2020 5.4780
L1.2190 5.4750
" />
<path d="M1.2140 8.1750
L1.1980 8.1710
" />
<path d="M1.2190 5.4750
L1.2350 5.4750
" />
<path d="M1.2310 8.1750
L1.2140 8.1750
" />
<path d="M1.2350 5.4750
L1.2520 5.4790
" />
<path d="M1.2480 8.1720
L1.2310 8.1750
" />
<path d="M1.2520 5.4790
L1.2680 5.4850
" />
<path d="M1.2640 8.1670
L1.2480 8.1720
" />
<path d="M1.2680 5.4850
L1.2820 5.4930
" />
<path d="M1.2790 8.1590
L1.2640 8.1670
" />
<path d="M1.2820 5.4930
L1.2950 5.5030
" />
<path d="M1.2920 8.1490
L1.2790 8.1590
" />
<path d="M1.2950 5.5030
L1.3050 5.5160
" />
<path d="M1.3030 8.1370
L1.2920 8.1490
" />
<path d="M1.3050 5.5160
L1.3150 5.5310
" />
<path d="M1.3130 8.1230
L1.3030 8.1370
" />
<path d="M1.3150 5.5310
L1.3220 5.5520
" />
<path d="M1.3190 8.1080
L1.3130 8.1230
" />
<path d="M1.3220 5.5520
L1.4010 6.1580
" />
<path d="M1.3240 8.0920
L1.3190 8.1080
" />
<path d="M1.3250 4.4000
L1.7250 4.4000
" />
<path d="M1.3250 9.2500
L1.3250 4.4000
" />
</g>
<g style="fill:#000000; fill-opacity:1.0000; stroke:none;">
<circle cx="1.3250" cy="9.2500" r="0.0100" /> 
</g>
<g style="fill:none; 
stroke:#000000; stroke-width:0.0200; stroke-opacity:1; 
stroke-linecap:round; stroke-linejoin:round;">
<path d="M1.3250 9.2500
L1.7250 9.2500
" />
<path d="M1.3250 11.3150
L1.3250 9.2500
" />
</g>
<g style="fill:#000000; fill-opacity:1.0000; stroke:none;">
<circle cx="1.3250" cy="11.3150" r="0.0100" /> 
</g>
<g style="fill:none; 
stroke:#000000; stroke-width:0.0200; stroke-opacity:1; 
stroke-linecap:round; stroke-linejoin:round;">
<path d="M1.3290 11.3690
L1.3250 11.3150
" />
<path d="M1.3390 11.4220
L1.3290 11.3690
" />
<path d="M1.3560 11.4720
L1.3390 11.4220
" />
<path d="M1.3600 7.4850
L1.3240 8.0920
" />
<path d="M1.3800 11.5200
L1.3560 11.4720
" />
<path d="M1.4100 11.5650
L1.3800 11.5200
" />
<path d="M1.4450 11.6050
L1.4100 11.5650
" />
<path d="M1.4850 11.6400
L1.4450 11.6050
" />
<path d="M1.5300 11.6700
L1.4850 11.6400
" />
<path d="M1.5790 11.6940
L1.5300 11.6700
" />
<path d="M1.6290 11.7110
L1.5790 11.6940
" />
<path d="M1.6810 11.7210
L1.6290 11.7110
" />
<path d="M1.7250 2.3250
L1.7250 2.8750
" />
<path d="M1.7250 2.3250
L1.7250 2.8750
" />
<path d="M1.7250 2.8750
L1.7250 10.7750
" />
<path d="M1.7250 4.4000
L1.3250 5.1250
" />
<path d="M1.7250 10.7750
L1.7250 11.3250
" />
<path d="M1.7350 11.7250
L1.6810 11.7210
" />
</g>
<g style="fill:#000000; fill-opacity:1.0000; stroke:none;">
<circle cx="1.7350" cy="11.7250" r="0.0100" /> 
</g>
<g style="fill:none; 
stroke:#000000; stroke-width:0.0200; stroke-opacity:1; 
stroke-linecap:round; stroke-linejoin:round;">
<path d="M3.2250 1.9250
L3.2250 0.5750
" />
<path d="M3.2250 1.9250
L3.2250 1.7050
" />
<path d="M3.2250 2.3250
L1.7250 2.3250
" />
<path d="M3.2250 2.3250
L3.2250 1.9250
" />
<path d="M3.2250 2.3250
L3.2250 2.8750
" />
<path d="M3.2250 2.8750
L1.7250 2.8750
" />
<path d="M3.2250 2.8750
L3.2250 2.3250
" />
</g>
<g style="fill:#000000; fill-opacity:1.0000; stroke:none;">
<circle cx="3.2250" cy="2.8750" r="0.0100" /> 
</g>
<g style="fill:none; 
stroke:#000000; stroke-width:0.0200; stroke-opacity:1; 
stroke-linecap:round; stroke-linejoin:round;">
<path d="M3.2250 2.8750
L3.2250 10.7750
" />
<path d="M3.2250 10.7750
L1.7250 10.7750
" />
<path d="M3.2250 10.7750
L3.2250 2.8750
" />
<path d="M3.2250 10.7750
L3.2250 11.3250
" />
<path d="M3.2250 11.3250
L1.7250 11.3250
" />
<path d="M3.2250 11.3250
L3.2250 10.7750
" />
<path d="M3.2250 11.7250
L3.2250 11.9500
" />
<path d="M3.2250 11.7250
L3.2250 11.9500
" />
<path d="M3.2250 11.9500
L3.2250 13.0750
" />
<path d="M4.3750 8.9950
L4.3750 4.6550
" />
<path d="M4.4760 6.7480
L4.4760 6.9020
" />
<path d="M4.4760 6.9020
L4.4840 7.0570
" />
<path d="M4.4840 6.5930
L4.4760 6.7480
" />
<path d="M4.4840 7.0570
L4.5000 7.2100
" />
<path d="M4.5000 6.4400
L4.4840 6.5930
" />
<path d="M4.5000 7.2100
L4.5240 7.3630
" />
<path d="M4.5240 6.2870
L4.5000 6.4400
" />
<path d="M4.5240 7.3630
L4.5550 7.5140
" />
<path d="M4.5550 6.1360
L4.5240 6.2870
" />
<path d="M4.5550 7.5140
L4.5950 7.6640
" />
<path d="M4.5950 5.9870
L4.5550 6.1360
" />
<path d="M4.5950 7.6640
L4.6420 7.8110
" />
<path d="M4.6420 5.8390
L4.5950 5.9870
" />
<path d="M4.6420 7.8110
L4.6960 7.9550
" />
<path d="M4.6960 5.6950
L4.6420 5.8390
" />
<path d="M4.6960 7.9550
L4.7580 8.0970
" />
<path d="M4.7250 0.5750
L3.2250 0.5750
" />
<path d="M4.7250 1.7050
L3.2250 1.7050
" />
<path d="M4.7250 1.7050
L4.7250 0.5750
" />
<path d="M4.7250 1.9250
L4.7250 1.7050
" />
<path d="M4.7250 11.7250
L4.7250 11.9500
" />
<path d="M4.7250 11.9500
L3.2250 11.9500
" />
<path d="M4.7250 11.9500
L4.7250 13.0750
" />
<path d="M4.7250 13.0750
L3.2250 13.0750
" />
<path d="M4.7570 5.5530
L4.6960 5.6950
" />
<path d="M4.7580 8.0970
L4.8270 8.2350
" />
<path d="M4.8270 5.4150
L4.7570 5.5530
" />
<path d="M4.8270 8.2350
L4.9030 8.3690
" />
<path d="M4.9030 5.2800
L4.8270 5.4150
" />
<path d="M4.9030 8.3690
L4.9860 8.4990
" />
<path d="M4.9860 5.1500
L4.9030 5.2800
" />
<path d="M4.9860 8.4990
L5.0760 8.6260
" />
<path d="M5.0750 5.0240
L4.9860 5.1500
" />
<path d="M5.0760 8.6260
L5.1710 8.7460
" />
<path d="M5.1710 4.9030
L5.0750 5.0240
" />
<path d="M5.1710 8.7460
L5.2730 8.8630
" />
<path d="M5.2250 1.9250
L3.2250 1.9250
" />
<path d="M5.2250 1.9250
L5.2250 2.3250
" />
<path d="M5.2250 2.3250
L4.7250 1.9250
" />
<path d="M5.2730 4.7870
L5.1710 4.9030
" />
<path d="M5.2730 8.8630
L5.3810 8.9730
" />
<path d="M5.3810 4.6770
L5.2730 4.7870
" />
<path d="M5.3810 8.9730
L5.4950 9.0780
" />
<path d="M5.4050 4.6550
L4.3750 4.6550
" />
<path d="M5.4050 8.9950
L4.3750 8.9950
" />
<path d="M5.4950 4.5720
L5.3810 4.6770
" />
<path d="M5.4950 9.0780
L5.6130 9.1780
" />
<path d="M5.6130 4.4730
L5.4950 4.5720
" />
<path d="M5.6130 9.1780
L5.7370 9.2700
" />
<path d="M5.7370 4.3800
L5.6130 4.4730
" />
<path d="M5.7370 9.2700
L5.8650 9.3560
" />
<path d="M5.8650 4.2940
L5.7370 4.3800
" />
<path d="M5.8650 9.3560
L5.9970 9.4360
" />
<path d="M5.9970 4.2140
L5.8650 4.2940
" />
<path d="M5.9970 9.4360
L6.1340 9.5080
" />
<path d="M6.1340 4.1420
L5.9970 4.2140
" />
<path d="M6.1340 9.5080
L6.2740 9.5740
" />
<path d="M6.2740 4.0760
L6.1340 4.1420
" />
<path d="M6.2740 9.5740
L6.4170 9.6320
" />
<path d="M6.4170 4.0170
L6.2740 4.0760
" />
<path d="M6.4170 9.6320
L6.5630 9.6820
" />
<path d="M6.5630 3.9670
L6.4170 4.0170
" />
<path d="M6.5630 9.6820
L6.7110 9.7260
" />
<path d="M6.7110 3.9240
L6.5630 3.9670
" />
<path d="M6.7110 9.7260
L6.8610 9.7620
" />
<path d="M6.8610 3.8880
L6.7110 3.9240
" />
<path d="M6.8610 9.7620
L7.0130 9.7890
" />
<path d="M7.0130 3.8610
L6.8610 3.8880
" />
<path d="M7.0130 9.7890
L7.1670 9.8090
" />
<path d="M7.1670 3.8410
L7.0130 3.8610
" />
<path d="M7.1670 9.8090
L7.3210 9.8210
" />
<path d="M7.3210 3.8290
L7.1670 3.8410
" />
<path d="M7.3210 9.8210
L7.4750 9.8250
" />
<path d="M7.4750 3.8250
L7.3210 3.8290
" />
<path d="M7.4750 9.8250
L11.7250 9.8250
" />
<path d="M9.3750 0.5750
L10.8750 0.5750
" />
<path d="M9.3750 1.5750
L9.3750 0.5750
" />
<path d="M9.3750 1.5750
L10.8750 1.5750
" />
<path d="M9.3750 1.8400
L9.3750 1.5750
" />
<path d="M9.3750 1.8400
L10.8750 1.8400
" />
<path d="M9.3750 1.8880
L9.3750 1.5750
" />
<path d="M9.3750 1.8880
L9.3750 1.8400
" />
<path d="M9.3750 1.8880
L9.3750 2.2950
" />
<path d="M9.3750 1.8880
L10.8750 1.8880
" />
<path d="M9.3750 2.2950
L9.3750 1.8880
" />
<path d="M9.3750 2.2950
L9.3750 2.3250
" />
<path d="M9.3750 2.2950
L10.8750 2.2950
" />
<path d="M9.3750 11.7250
L9.3750 11.9500
" />
<path d="M9.3750 11.7250
L9.3750 11.9500
" />
<path d="M9.3750 11.9500
L9.3750 13.0750
" />
<path d="M10.1250 11.7250
L1.7350 11.7250
" />
<path d="M10.1250 11.7250
L10.1250 11.3250
" />
<path d="M10.8750 1.5750
L10.8750 0.5750
" />
<path d="M10.8750 1.5750
L10.8750 2.2950
" />
<path d="M10.8750 1.8400
L10.8750 1.5750
" />
<path d="M10.8750 1.8400
L10.8750 1.8880
" />
<path d="M10.8750 1.8880
L10.8750 1.8400
" />
<path d="M10.8750 2.2950
L10.8750 1.8880
" />
<path d="M10.8750 2.3250
L10.8750 2.2950
" />
<path d="M10.8750 11.9250
L10.1250 11.7250
" />
<path d="M10.8750 11.9250
L10.8750 11.9500
" />
<path d="M10.8750 11.9500
L9.3750 11.9500
" />
<path d="M10.8750 11.9500
L10.8750 13.0750
" />
<path d="M10.8750 13.0750
L9.3750 13.0750
" />
<path d="M11.7250 2.3250
L3.2250 2.3250
" />
<path d="M11.7250 2.3250
L11.7250 3.8250
" />
<path d="M11.7250 2.7250
L11.7250 2.3250
" />
<path d="M11.7250 2.8750
L3.2250 2.8750
" />
<path d="M11.7250 3.8250
L7.4750 3.8250
" />
<path d="M11.7250 3.8250
L11.7250 2.8750
" />
<path d="M11.7250 9.8250
L11.7250 10.9250
" />
<path d="M11.7250 10.7750
L3.2250 10.7750
" />
<path d="M11.7250 10.7750
L11.7250 9.8250
" />
<path d="M11.7250 11.3250
L3.2250 11.3250
" />
<path d="M11.7250 11.3250
L11.7250 10.9250
" />
<path d="M11.7250 11.9250
L10.1250 11.9250
" />
<path d="M11.7250 11.9250
L11.7250 11.3250
" />
<path d="M14.7250 2.3250
L11.7250 2.3250
" />
<path d="M14.7250 2.3250
L14.7250 2.7250
" />
<path d="M14.7250 2.7250
L11.7250 2.7250
" />
<path d="M14.7250 2.7250
L15.1250 2.7250
" />
<path d="M14.7250 10.9250
L11.7250 10.9250
" />
<path d="M14.7250 10.9250
L14.7250 2.7250
" />
<path d="M14.7250 10.9250
L14.7250 11.3250
" />
<path d="M14.7250 11.3250
L14.7770 11.3220
" />
<path d="M14.7770 11.3220
L14.8290 11.3120
" />
<path d="M14.8280 2.3390
L14.7780 2.3290
" />
<path d="M14.8290 11.3120
L14.8790 11.2950
" />
<path d="M14.8780 2.3550
L14.8280 2.3390
" />
<path d="M14.8790 11.2950
L14.9250 11.2710
" />
<path d="M14.9250 2.3780
L14.8780 2.3550
" />
<path d="M14.9250 11.2710
L14.9690 11.2420
" />
<path d="M14.9680 2.4080
L14.9250 2.3780
" />
<path d="M14.9690 11.2420
L15.0080 11.2080
" />
<path d="M15.0080 2.4420
L14.9680 2.4080
" />
<path d="M15.0080 11.2080
L15.0420 11.1680
" />
<path d="M15.0420 2.4810
L15.0080 2.4420
" />
<path d="M15.0420 11.1680
L15.0720 11.1250
" />
<path d="M15.0710 2.5250
L15.0420 2.4810
" />
<path d="M15.0720 11.1250
L15.0950 11.0780
" />
<path d="M15.0950 2.5710
L15.0710 2.5250
" />
<path d="M15.0950 11.0780
L15.1110 11.0280
" />
<path d="M15.0950 11.3250
L11.7250 11.3250
" />
<path d="M15.0950 11.3250
L15.1250 10.9250
" />
<path d="M15.1040 2.3540
L14.7250 2.3250
" />
<path d="M15.1110 11.0280
L15.1210 10.9780
" />
<path d="M15.1120 2.6210
L15.0950 2.5710
" />
<path d="M15.1220 2.6730
L15.1120 2.6210
" />
<path d="M15.1250 2.7250
L15.1040 2.3540
" />
<path d="M15.1250 10.9250
L14.7250 10.9250
" />
<path d="M15.1250 10.9250
L15.1250 2.7250
" />
</g> 
</svg>
