<?xml version="1.0" standalone="no"?>
 <!DOCTYPE svg PUBLIC "-//W3C//DTD SVG 1.1//EN" 
 "http://www.w3.org/Graphics/SVG/1.1/DTD/svg11.dtd"> 
<svg
  xmlns:svg="http://www.w3.org/2000/svg"
  xmlns="http://www.w3.org/2000/svg"
  xmlns:xlink="http://www.w3.org/1999/xlink"
  version="1.1"
  width="38.5064mm" height="6.1214mm" viewBox="0.0000 0.0000 38.5064 6.1214">
<title>SVG Image created as outline.svg date 2025/06/16 09:18:10 </title>
  <desc>Image generated by PCBNEW </desc>
<g style="fill:#000000; fill-opacity:1.0000;stroke:#000000; stroke-opacity:1.0000;
stroke-linecap:round; stroke-linejoin:round;"
 transform="translate(0 0) scale(1 1)">
</g>
<g style="fill:none; 
stroke:#000000; stroke-width:0.0200; stroke-opacity:1; 
stroke-linecap:round; stroke-linejoin:round;">
<path d="M0.2750 1.7840
L0.2750 5.8830
" />
<path d="M0.2750 5.8830
L3.6240 5.8830
" />
<path d="M1.1740 4.7090
L1.1740 2.6090
" />
<path d="M1.4330 4.7090
L1.1740 4.7090
" />
<path d="M1.4330 4.7090
L2.8110 4.7090
" />
<path d="M1.7750 0.2840
L0.2750 1.7840
" />
<path d="M1.8830 1.9010
L1.1740 2.6090
" />
<path d="M1.8830 1.9010
L2.2750 2.2850
" />
<path d="M1.9760 0.2840
L1.7750 0.2840
" />
<path d="M1.9760 0.2840
L2.4730 0.2840
" />
<path d="M1.9760 0.3830
L1.9760 0.2840
" />
<path d="M1.9760 0.3830
L2.1270 0.3830
" />
<path d="M2.1270 0.3830
L2.4730 0.9840
" />
<path d="M2.1270 0.3830
L2.8190 0.3830
" />
<path d="M2.2750 2.2850
L2.4730 2.2850
" />
<path d="M2.2750 3.8840
L1.4330 4.7090
" />
<path d="M2.2750 3.8840
L2.2750 2.2850
" />
<path d="M2.3250 1.4600
L1.8830 1.9010
" />
<path d="M2.3250 1.4600
L2.8110 1.4600
" />
<path d="M2.4730 0.2840
L2.9700 0.2840
" />
<path d="M2.4730 0.3830
L2.4730 0.2840
" />
<path d="M2.4730 0.9840
L2.8190 0.3830
" />
<path d="M2.4730 2.2850
L2.8110 1.4600
" />
<path d="M2.4730 3.8840
L2.2750 3.8840
" />
<path d="M2.4730 3.8840
L2.4730 2.2850
" />
<path d="M2.8110 4.7090
L2.4730 3.8840
" />
<path d="M2.8190 0.3830
L2.9700 0.3830
" />
<path d="M2.9120 1.4600
L2.8110 1.4600
" />
<path d="M2.9120 4.7090
L2.8110 4.7090
" />
<path d="M2.9120 4.7090
L2.9120 1.4600
" />
<path d="M2.9700 0.2840
L2.9700 0.3830
" />
<path d="M3.4480 1.2100
L3.9000 1.2100
" />
<path d="M3.4480 1.4600
L2.9120 1.4600
" />
<path d="M3.4480 1.4600
L3.4480 1.2100
" />
<path d="M3.4480 1.4840
L3.4480 1.4600
" />
<path d="M3.4480 1.4840
L3.4480 1.6490
" />
<path d="M3.4480 1.6490
L3.4480 2.7340
" />
<path d="M3.4480 1.6490
L3.5540 1.6490
" />
<path d="M3.4480 2.7340
L3.4480 3.4350
" />
<path d="M3.4480 3.4350
L3.4480 4.5200
" />
<path d="M3.4480 4.6850
L3.4480 4.5200
" />
<path d="M3.4480 4.6850
L3.4480 4.7090
" />
<path d="M3.4480 4.7090
L2.9120 4.7090
" />
<path d="M3.4480 4.9590
L3.4480 4.7090
" />
<path d="M3.5540 1.4840
L3.4480 1.4840
" />
<path d="M3.5540 1.4840
L3.5540 1.6490
" />
<path d="M3.5540 1.6490
L3.5540 1.9860
" />
<path d="M3.5540 4.1830
L3.7940 4.1830
" />
<path d="M3.5540 4.5200
L3.4480 4.5200
" />
<path d="M3.5540 4.5200
L3.5540 4.1830
" />
<path d="M3.5540 4.5200
L3.5540 4.6850
" />
<path d="M3.5540 4.6850
L3.4480 4.6850
" />
<path d="M3.5540 4.6850
L3.7940 4.6850
" />
<path d="M3.6240 0.2840
L2.9700 0.2840
" />
<path d="M3.6240 0.2840
L3.6240 0.8110
" />
<path d="M3.6240 0.8110
L4.9260 0.8110
" />
<path d="M3.6240 5.3580
L3.6240 5.8830
" />
<path d="M3.7880 0.7500
L3.6240 0.7500
" />
<path d="M3.7880 0.8110
L3.7880 0.7500
" />
<path d="M3.7880 5.4190
L3.6240 5.4190
" />
<path d="M3.7880 5.4190
L3.7880 5.3580
" />
<path d="M3.7940 1.4840
L3.5540 1.4840
" />
<path d="M3.7940 1.4840
L3.9000 1.4840
" />
<path d="M3.7940 1.6490
L3.7940 1.4840
" />
<path d="M3.7940 1.6490
L3.7940 1.9860
" />
<path d="M3.7940 1.6490
L3.9000 1.6490
" />
<path d="M3.7940 1.9860
L3.5540 1.9860
" />
<path d="M3.7940 4.5200
L3.7940 4.1830
" />
<path d="M3.7940 4.6850
L3.7940 4.5200
" />
<path d="M3.7940 4.6850
L3.9000 4.6850
" />
<path d="M3.9000 1.2100
L3.9000 1.4600
" />
<path d="M3.9000 1.4840
L3.9000 1.4600
" />
<path d="M3.9000 1.4840
L3.9000 1.6490
" />
<path d="M3.9000 1.6490
L3.9000 2.7340
" />
<path d="M3.9000 2.7340
L3.4480 2.7340
" />
<path d="M3.9000 3.4350
L3.4480 3.4350
" />
<path d="M3.9000 3.4350
L3.9000 2.7340
" />
<path d="M3.9000 3.4350
L3.9000 4.5200
" />
<path d="M3.9000 4.5200
L3.7940 4.5200
" />
<path d="M3.9000 4.6850
L3.9000 4.5200
" />
<path d="M3.9000 4.6850
L3.9000 4.7090
" />
<path d="M3.9000 4.7090
L3.9000 4.9590
" />
<path d="M3.9000 4.9590
L3.4480 4.9590
" />
<path d="M4.2480 1.2100
L4.7000 1.2100
" />
<path d="M4.2480 1.4600
L3.9000 1.4600
" />
<path d="M4.2480 1.4600
L4.2480 1.2100
" />
<path d="M4.2480 1.4840
L4.2480 1.4600
" />
<path d="M4.2480 1.4840
L4.2480 1.6490
" />
<path d="M4.2480 1.6490
L4.2480 2.7340
" />
<path d="M4.2480 1.6490
L4.3540 1.6490
" />
<path d="M4.2480 2.7340
L4.2480 3.4350
" />
<path d="M4.2480 3.4350
L4.2480 4.5200
" />
<path d="M4.2480 4.6850
L4.2480 4.5200
" />
<path d="M4.2480 4.6850
L4.2480 4.7090
" />
<path d="M4.2480 4.7090
L3.9000 4.7090
" />
<path d="M4.2480 4.9590
L4.2480 4.7090
" />
<path d="M4.3540 1.4840
L4.2480 1.4840
" />
<path d="M4.3540 1.4840
L4.3540 1.6490
" />
<path d="M4.3540 1.6490
L4.3540 1.9860
" />
<path d="M4.3540 4.1830
L4.5940 4.1830
" />
<path d="M4.3540 4.5200
L4.2480 4.5200
" />
<path d="M4.3540 4.5200
L4.3540 4.1830
" />
<path d="M4.3540 4.5200
L4.3540 4.6850
" />
<path d="M4.3540 4.6850
L4.2480 4.6850
" />
<path d="M4.3540 4.6850
L4.5940 4.6850
" />
<path d="M4.3580 0.7500
L4.3580 0.8110
" />
<path d="M4.3580 5.3580
L4.3580 5.4190
" />
<path d="M4.5890 0.7500
L4.3580 0.7500
" />
<path d="M4.5890 0.8110
L4.5890 0.7500
" />
<path d="M4.5890 5.4190
L4.3580 5.4190
" />
<path d="M4.5890 5.4190
L4.5890 5.3580
" />
<path d="M4.5940 1.4840
L4.3540 1.4840
" />
<path d="M4.5940 1.4840
L4.7000 1.4840
" />
<path d="M4.5940 1.6490
L4.5940 1.4840
" />
<path d="M4.5940 1.6490
L4.5940 1.9860
" />
<path d="M4.5940 1.6490
L4.7000 1.6490
" />
<path d="M4.5940 1.9860
L4.3540 1.9860
" />
<path d="M4.5940 4.5200
L4.5940 4.1830
" />
<path d="M4.5940 4.6850
L4.5940 4.5200
" />
<path d="M4.5940 4.6850
L4.7000 4.6850
" />
<path d="M4.7000 1.2100
L4.7000 1.4600
" />
<path d="M4.7000 1.4840
L4.7000 1.4600
" />
<path d="M4.7000 1.4840
L4.7000 1.6490
" />
<path d="M4.7000 1.6490
L4.7000 2.7340
" />
<path d="M4.7000 2.7340
L4.2480 2.7340
" />
<path d="M4.7000 3.4350
L4.2480 3.4350
" />
<path d="M4.7000 3.4350
L4.7000 2.7340
" />
<path d="M4.7000 3.4350
L4.7000 4.5200
" />
<path d="M4.7000 4.5200
L4.5940 4.5200
" />
<path d="M4.7000 4.6850
L4.7000 4.5200
" />
<path d="M4.7000 4.6850
L4.7000 4.7090
" />
<path d="M4.7000 4.7090
L4.7000 4.9590
" />
<path d="M4.7000 4.9590
L4.2480 4.9590
" />
<path d="M4.9260 0.8110
L4.9260 0.2840
" />
<path d="M4.9260 5.3580
L3.6240 5.3580
" />
<path d="M4.9260 5.8830
L4.9260 5.3580
" />
<path d="M4.9260 5.8830
L5.6240 5.8830
" />
<path d="M5.0480 1.2100
L5.5000 1.2100
" />
<path d="M5.0480 1.4600
L4.7000 1.4600
" />
<path d="M5.0480 1.4600
L5.0480 1.2100
" />
<path d="M5.0480 1.4840
L5.0480 1.4600
" />
<path d="M5.0480 1.4840
L5.0480 1.6490
" />
<path d="M5.0480 1.6490
L5.0480 2.7340
" />
<path d="M5.0480 1.6490
L5.1540 1.6490
" />
<path d="M5.0480 2.7340
L5.0480 3.4350
" />
<path d="M5.0480 3.4350
L5.0480 4.5200
" />
<path d="M5.0480 4.6850
L5.0480 4.5200
" />
<path d="M5.0480 4.6850
L5.0480 4.7090
" />
<path d="M5.0480 4.7090
L4.7000 4.7090
" />
<path d="M5.0480 4.9590
L5.0480 4.7090
" />
<path d="M5.1540 1.4840
L5.0480 1.4840
" />
<path d="M5.1540 1.4840
L5.1540 1.6490
" />
<path d="M5.1540 1.6490
L5.1540 1.9860
" />
<path d="M5.1540 4.1830
L5.3940 4.1830
" />
<path d="M5.1540 4.5200
L5.0480 4.5200
" />
<path d="M5.1540 4.5200
L5.1540 4.1830
" />
<path d="M5.1540 4.5200
L5.1540 4.6850
" />
<path d="M5.1540 4.6850
L5.0480 4.6850
" />
<path d="M5.1540 4.6850
L5.3940 4.6850
" />
<path d="M5.3940 1.4840
L5.1540 1.4840
" />
<path d="M5.3940 1.4840
L5.5000 1.4840
" />
<path d="M5.3940 1.6490
L5.3940 1.4840
" />
<path d="M5.3940 1.6490
L5.3940 1.9860
" />
<path d="M5.3940 1.6490
L5.5000 1.6490
" />
<path d="M5.3940 1.9860
L5.1540 1.9860
" />
<path d="M5.3940 4.5200
L5.3940 4.1830
" />
<path d="M5.3940 4.6850
L5.3940 4.5200
" />
<path d="M5.3940 4.6850
L5.5000 4.6850
" />
<path d="M5.5000 1.2100
L5.5000 1.4600
" />
<path d="M5.5000 1.4840
L5.5000 1.4600
" />
<path d="M5.5000 1.4840
L5.5000 1.6490
" />
<path d="M5.5000 1.6490
L5.5000 2.7340
" />
<path d="M5.5000 2.7340
L5.0480 2.7340
" />
<path d="M5.5000 3.4350
L5.0480 3.4350
" />
<path d="M5.5000 3.4350
L5.5000 2.7340
" />
<path d="M5.5000 3.4350
L5.5000 4.5200
" />
<path d="M5.5000 4.5200
L5.3940 4.5200
" />
<path d="M5.5000 4.6850
L5.5000 4.5200
" />
<path d="M5.5000 4.6850
L5.5000 4.7090
" />
<path d="M5.5000 4.7090
L5.5000 4.9590
" />
<path d="M5.5000 4.9590
L5.0480 4.9590
" />
<path d="M5.6240 0.2840
L4.9260 0.2840
" />
<path d="M5.6240 0.2840
L5.6240 0.8110
" />
<path d="M5.6240 0.8110
L6.9260 0.8110
" />
<path d="M5.6240 5.3580
L5.6240 5.8830
" />
<path d="M5.8480 1.2100
L6.3000 1.2100
" />
<path d="M5.8480 1.4600
L5.5000 1.4600
" />
<path d="M5.8480 1.4600
L5.8480 1.2100
" />
<path d="M5.8480 1.4840
L5.8480 1.4600
" />
<path d="M5.8480 1.4840
L5.8480 1.6490
" />
<path d="M5.8480 1.6490
L5.8480 2.7340
" />
<path d="M5.8480 1.6490
L5.9540 1.6490
" />
<path d="M5.8480 2.7340
L5.8480 3.4350
" />
<path d="M5.8480 3.4350
L5.8480 4.5200
" />
<path d="M5.8480 4.6850
L5.8480 4.5200
" />
<path d="M5.8480 4.6850
L5.8480 4.7090
" />
<path d="M5.8480 4.7090
L5.5000 4.7090
" />
<path d="M5.8480 4.9590
L5.8480 4.7090
" />
<path d="M5.9540 1.4840
L5.8480 1.4840
" />
<path d="M5.9540 1.4840
L5.9540 1.6490
" />
<path d="M5.9540 1.6490
L5.9540 1.9860
" />
<path d="M5.9540 4.1830
L6.1940 4.1830
" />
<path d="M5.9540 4.5200
L5.8480 4.5200
" />
<path d="M5.9540 4.5200
L5.9540 4.1830
" />
<path d="M5.9540 4.5200
L5.9540 4.6850
" />
<path d="M5.9540 4.6850
L5.8480 4.6850
" />
<path d="M5.9540 4.6850
L6.1940 4.6850
" />
<path d="M5.9610 0.7500
L5.9610 0.8110
" />
<path d="M5.9610 5.3580
L5.9610 5.4190
" />
<path d="M6.1880 0.7500
L5.9610 0.7500
" />
<path d="M6.1880 0.8110
L6.1880 0.7500
" />
<path d="M6.1880 5.4190
L5.9610 5.4190
" />
<path d="M6.1880 5.4190
L6.1880 5.3580
" />
<path d="M6.1940 1.4840
L5.9540 1.4840
" />
<path d="M6.1940 1.4840
L6.3000 1.4840
" />
<path d="M6.1940 1.6490
L6.1940 1.4840
" />
<path d="M6.1940 1.6490
L6.1940 1.9860
" />
<path d="M6.1940 1.6490
L6.3000 1.6490
" />
<path d="M6.1940 1.9860
L5.9540 1.9860
" />
<path d="M6.1940 4.5200
L6.1940 4.1830
" />
<path d="M6.1940 4.6850
L6.1940 4.5200
" />
<path d="M6.1940 4.6850
L6.3000 4.6850
" />
<path d="M6.3000 1.2100
L6.3000 1.4600
" />
<path d="M6.3000 1.4840
L6.3000 1.4600
" />
<path d="M6.3000 1.4840
L6.3000 1.6490
" />
<path d="M6.3000 1.6490
L6.3000 2.7340
" />
<path d="M6.3000 2.7340
L5.8480 2.7340
" />
<path d="M6.3000 3.4350
L5.8480 3.4350
" />
<path d="M6.3000 3.4350
L6.3000 2.7340
" />
<path d="M6.3000 3.4350
L6.3000 4.5200
" />
<path d="M6.3000 4.5200
L6.1940 4.5200
" />
<path d="M6.3000 4.6850
L6.3000 4.5200
" />
<path d="M6.3000 4.6850
L6.3000 4.7090
" />
<path d="M6.3000 4.7090
L6.3000 4.9590
" />
<path d="M6.3000 4.9590
L5.8480 4.9590
" />
<path d="M6.6480 1.2100
L7.1000 1.2100
" />
<path d="M6.6480 1.4600
L6.3000 1.4600
" />
<path d="M6.6480 1.4600
L6.6480 1.2100
" />
<path d="M6.6480 1.4840
L6.6480 1.4600
" />
<path d="M6.6480 1.4840
L6.6480 1.6490
" />
<path d="M6.6480 1.6490
L6.6480 2.7340
" />
<path d="M6.6480 1.6490
L6.7540 1.6490
" />
<path d="M6.6480 2.7340
L6.6480 3.4350
" />
<path d="M6.6480 3.4350
L6.6480 4.5200
" />
<path d="M6.6480 4.6850
L6.6480 4.5200
" />
<path d="M6.6480 4.6850
L6.6480 4.7090
" />
<path d="M6.6480 4.7090
L6.3000 4.7090
" />
<path d="M6.6480 4.9590
L6.6480 4.7090
" />
<path d="M6.7540 1.4840
L6.6480 1.4840
" />
<path d="M6.7540 1.4840
L6.7540 1.6490
" />
<path d="M6.7540 1.6490
L6.7540 1.9860
" />
<path d="M6.7540 4.1830
L6.9940 4.1830
" />
<path d="M6.7540 4.5200
L6.6480 4.5200
" />
<path d="M6.7540 4.5200
L6.7540 4.1830
" />
<path d="M6.7540 4.5200
L6.7540 4.6850
" />
<path d="M6.7540 4.6850
L6.6480 4.6850
" />
<path d="M6.7540 4.6850
L6.9940 4.6850
" />
<path d="M6.7590 0.7500
L6.7590 0.8110
" />
<path d="M6.7590 5.3580
L6.7590 5.4190
" />
<path d="M6.9260 0.7500
L6.7590 0.7500
" />
<path d="M6.9260 0.8110
L6.9260 0.2840
" />
<path d="M6.9260 5.3580
L5.6240 5.3580
" />
<path d="M6.9260 5.4190
L6.7590 5.4190
" />
<path d="M6.9260 5.8830
L6.9260 5.3580
" />
<path d="M6.9260 5.8830
L7.6240 5.8830
" />
<path d="M6.9940 1.4840
L6.7540 1.4840
" />
<path d="M6.9940 1.4840
L7.1000 1.4840
" />
<path d="M6.9940 1.6490
L6.9940 1.4840
" />
<path d="M6.9940 1.6490
L6.9940 1.9860
" />
<path d="M6.9940 1.6490
L7.1000 1.6490
" />
<path d="M6.9940 1.9860
L6.7540 1.9860
" />
<path d="M6.9940 4.5200
L6.9940 4.1830
" />
<path d="M6.9940 4.6850
L6.9940 4.5200
" />
<path d="M6.9940 4.6850
L7.1000 4.6850
" />
<path d="M7.1000 1.2100
L7.1000 1.4600
" />
<path d="M7.1000 1.4840
L7.1000 1.4600
" />
<path d="M7.1000 1.4840
L7.1000 1.6490
" />
<path d="M7.1000 1.6490
L7.1000 2.7340
" />
<path d="M7.1000 2.7340
L6.6480 2.7340
" />
<path d="M7.1000 3.4350
L6.6480 3.4350
" />
<path d="M7.1000 3.4350
L7.1000 2.7340
" />
<path d="M7.1000 3.4350
L7.1000 4.5200
" />
<path d="M7.1000 4.5200
L6.9940 4.5200
" />
<path d="M7.1000 4.6850
L7.1000 4.5200
" />
<path d="M7.1000 4.6850
L7.1000 4.7090
" />
<path d="M7.1000 4.7090
L7.1000 4.9590
" />
<path d="M7.1000 4.9590
L6.6480 4.9590
" />
<path d="M7.4480 1.2100
L7.9000 1.2100
" />
<path d="M7.4480 1.4600
L7.1000 1.4600
" />
<path d="M7.4480 1.4600
L7.4480 1.2100
" />
<path d="M7.4480 1.4840
L7.4480 1.4600
" />
<path d="M7.4480 1.4840
L7.4480 1.6490
" />
<path d="M7.4480 1.6490
L7.4480 2.7340
" />
<path d="M7.4480 1.6490
L7.5540 1.6490
" />
<path d="M7.4480 2.7340
L7.4480 3.4350
" />
<path d="M7.4480 3.4350
L7.4480 4.5200
" />
<path d="M7.4480 4.6850
L7.4480 4.5200
" />
<path d="M7.4480 4.6850
L7.4480 4.7090
" />
<path d="M7.4480 4.7090
L7.1000 4.7090
" />
<path d="M7.4480 4.9590
L7.4480 4.7090
" />
<path d="M7.5540 1.4840
L7.4480 1.4840
" />
<path d="M7.5540 1.4840
L7.5540 1.6490
" />
<path d="M7.5540 1.6490
L7.5540 1.9860
" />
<path d="M7.5540 4.1830
L7.7940 4.1830
" />
<path d="M7.5540 4.5200
L7.4480 4.5200
" />
<path d="M7.5540 4.5200
L7.5540 4.1830
" />
<path d="M7.5540 4.5200
L7.5540 4.6850
" />
<path d="M7.5540 4.6850
L7.4480 4.6850
" />
<path d="M7.5540 4.6850
L7.7940 4.6850
" />
<path d="M7.6240 0.2840
L6.9260 0.2840
" />
<path d="M7.6240 0.2840
L7.6240 0.8110
" />
<path d="M7.6240 0.8110
L8.9260 0.8110
" />
<path d="M7.6240 5.3580
L7.6240 5.8830
" />
<path d="M7.7910 0.7500
L7.6240 0.7500
" />
<path d="M7.7910 0.8110
L7.7910 0.7500
" />
<path d="M7.7910 5.4190
L7.6240 5.4190
" />
<path d="M7.7910 5.4190
L7.7910 5.3580
" />
<path d="M7.7940 1.4840
L7.5540 1.4840
" />
<path d="M7.7940 1.4840
L7.9000 1.4840
" />
<path d="M7.7940 1.6490
L7.7940 1.4840
" />
<path d="M7.7940 1.6490
L7.7940 1.9860
" />
<path d="M7.7940 1.6490
L7.9000 1.6490
" />
<path d="M7.7940 1.9860
L7.5540 1.9860
" />
<path d="M7.7940 4.5200
L7.7940 4.1830
" />
<path d="M7.7940 4.6850
L7.7940 4.5200
" />
<path d="M7.7940 4.6850
L7.9000 4.6850
" />
<path d="M7.9000 1.2100
L7.9000 1.4600
" />
<path d="M7.9000 1.4840
L7.9000 1.4600
" />
<path d="M7.9000 1.4840
L7.9000 1.6490
" />
<path d="M7.9000 1.6490
L7.9000 2.7340
" />
<path d="M7.9000 2.7340
L7.4480 2.7340
" />
<path d="M7.9000 3.4350
L7.4480 3.4350
" />
<path d="M7.9000 3.4350
L7.9000 2.7340
" />
<path d="M7.9000 3.4350
L7.9000 4.5200
" />
<path d="M7.9000 4.5200
L7.7940 4.5200
" />
<path d="M7.9000 4.6850
L7.9000 4.5200
" />
<path d="M7.9000 4.6850
L7.9000 4.7090
" />
<path d="M7.9000 4.7090
L7.9000 4.9590
" />
<path d="M7.9000 4.9590
L7.4480 4.9590
" />
<path d="M8.2480 1.2100
L8.7000 1.2100
" />
<path d="M8.2480 1.4600
L7.9000 1.4600
" />
<path d="M8.2480 1.4600
L8.2480 1.2100
" />
<path d="M8.2480 1.4840
L8.2480 1.4600
" />
<path d="M8.2480 1.4840
L8.2480 1.6490
" />
<path d="M8.2480 1.6490
L8.2480 2.7340
" />
<path d="M8.2480 1.6490
L8.3540 1.6490
" />
<path d="M8.2480 2.7340
L8.2480 3.4350
" />
<path d="M8.2480 3.4350
L8.2480 4.5200
" />
<path d="M8.2480 4.6850
L8.2480 4.5200
" />
<path d="M8.2480 4.6850
L8.2480 4.7090
" />
<path d="M8.2480 4.7090
L7.9000 4.7090
" />
<path d="M8.2480 4.9590
L8.2480 4.7090
" />
<path d="M8.3540 1.4840
L8.2480 1.4840
" />
<path d="M8.3540 1.4840
L8.3540 1.6490
" />
<path d="M8.3540 1.6490
L8.3540 1.9860
" />
<path d="M8.3540 4.1830
L8.5940 4.1830
" />
<path d="M8.3540 4.5200
L8.2480 4.5200
" />
<path d="M8.3540 4.5200
L8.3540 4.1830
" />
<path d="M8.3540 4.5200
L8.3540 4.6850
" />
<path d="M8.3540 4.6850
L8.2480 4.6850
" />
<path d="M8.3540 4.6850
L8.5940 4.6850
" />
<path d="M8.3580 0.7500
L8.3580 0.8110
" />
<path d="M8.3580 5.3580
L8.3580 5.4190
" />
<path d="M8.5890 0.7500
L8.3580 0.7500
" />
<path d="M8.5890 0.8110
L8.5890 0.7500
" />
<path d="M8.5890 5.4190
L8.3580 5.4190
" />
<path d="M8.5890 5.4190
L8.5890 5.3580
" />
<path d="M8.5940 1.4840
L8.3540 1.4840
" />
<path d="M8.5940 1.4840
L8.7000 1.4840
" />
<path d="M8.5940 1.6490
L8.5940 1.4840
" />
<path d="M8.5940 1.6490
L8.5940 1.9860
" />
<path d="M8.5940 1.6490
L8.7000 1.6490
" />
<path d="M8.5940 1.9860
L8.3540 1.9860
" />
<path d="M8.5940 4.5200
L8.5940 4.1830
" />
<path d="M8.5940 4.6850
L8.5940 4.5200
" />
<path d="M8.5940 4.6850
L8.7000 4.6850
" />
<path d="M8.7000 1.2100
L8.7000 1.4600
" />
<path d="M8.7000 1.4840
L8.7000 1.4600
" />
<path d="M8.7000 1.4840
L8.7000 1.6490
" />
<path d="M8.7000 1.6490
L8.7000 2.7340
" />
<path d="M8.7000 2.7340
L8.2480 2.7340
" />
<path d="M8.7000 3.4350
L8.2480 3.4350
" />
<path d="M8.7000 3.4350
L8.7000 2.7340
" />
<path d="M8.7000 3.4350
L8.7000 4.5200
" />
<path d="M8.7000 4.5200
L8.5940 4.5200
" />
<path d="M8.7000 4.6850
L8.7000 4.5200
" />
<path d="M8.7000 4.6850
L8.7000 4.7090
" />
<path d="M8.7000 4.7090
L8.7000 4.9590
" />
<path d="M8.7000 4.9590
L8.2480 4.9590
" />
<path d="M8.9260 0.8110
L8.9260 0.2840
" />
<path d="M8.9260 5.3580
L7.6240 5.3580
" />
<path d="M8.9260 5.8830
L8.9260 5.3580
" />
<path d="M8.9260 5.8830
L9.6240 5.8830
" />
<path d="M9.0480 1.2100
L9.5000 1.2100
" />
<path d="M9.0480 1.4600
L8.7000 1.4600
" />
<path d="M9.0480 1.4600
L9.0480 1.2100
" />
<path d="M9.0480 1.4840
L9.0480 1.4600
" />
<path d="M9.0480 1.4840
L9.0480 1.6490
" />
<path d="M9.0480 1.6490
L9.0480 2.7340
" />
<path d="M9.0480 1.6490
L9.1540 1.6490
" />
<path d="M9.0480 2.7340
L9.0480 3.4350
" />
<path d="M9.0480 3.4350
L9.0480 4.5200
" />
<path d="M9.0480 4.6850
L9.0480 4.5200
" />
<path d="M9.0480 4.6850
L9.0480 4.7090
" />
<path d="M9.0480 4.7090
L8.7000 4.7090
" />
<path d="M9.0480 4.9590
L9.0480 4.7090
" />
<path d="M9.1540 1.4840
L9.0480 1.4840
" />
<path d="M9.1540 1.4840
L9.1540 1.6490
" />
<path d="M9.1540 1.6490
L9.1540 1.9860
" />
<path d="M9.1540 4.1830
L9.3940 4.1830
" />
<path d="M9.1540 4.5200
L9.0480 4.5200
" />
<path d="M9.1540 4.5200
L9.1540 4.1830
" />
<path d="M9.1540 4.5200
L9.1540 4.6850
" />
<path d="M9.1540 4.6850
L9.0480 4.6850
" />
<path d="M9.1540 4.6850
L9.3940 4.6850
" />
<path d="M9.3940 1.4840
L9.1540 1.4840
" />
<path d="M9.3940 1.4840
L9.5000 1.4840
" />
<path d="M9.3940 1.6490
L9.3940 1.4840
" />
<path d="M9.3940 1.6490
L9.3940 1.9860
" />
<path d="M9.3940 1.6490
L9.5000 1.6490
" />
<path d="M9.3940 1.9860
L9.1540 1.9860
" />
<path d="M9.3940 4.5200
L9.3940 4.1830
" />
<path d="M9.3940 4.6850
L9.3940 4.5200
" />
<path d="M9.3940 4.6850
L9.5000 4.6850
" />
<path d="M9.5000 1.2100
L9.5000 1.4600
" />
<path d="M9.5000 1.4840
L9.5000 1.4600
" />
<path d="M9.5000 1.4840
L9.5000 1.6490
" />
<path d="M9.5000 1.6490
L9.5000 2.7340
" />
<path d="M9.5000 2.7340
L9.0480 2.7340
" />
<path d="M9.5000 3.4350
L9.0480 3.4350
" />
<path d="M9.5000 3.4350
L9.5000 2.7340
" />
<path d="M9.5000 3.4350
L9.5000 4.5200
" />
<path d="M9.5000 4.5200
L9.3940 4.5200
" />
<path d="M9.5000 4.6850
L9.5000 4.5200
" />
<path d="M9.5000 4.6850
L9.5000 4.7090
" />
<path d="M9.5000 4.7090
L9.5000 4.9590
" />
<path d="M9.5000 4.9590
L9.0480 4.9590
" />
<path d="M9.6240 0.2840
L8.9260 0.2840
" />
<path d="M9.6240 0.2840
L9.6240 0.8110
" />
<path d="M9.6240 0.8110
L10.9250 0.8110
" />
<path d="M9.6240 5.3580
L9.6240 5.8830
" />
<path d="M9.8480 1.2100
L10.3000 1.2100
" />
<path d="M9.8480 1.4600
L9.5000 1.4600
" />
<path d="M9.8480 1.4600
L9.8480 1.2100
" />
<path d="M9.8480 1.4840
L9.8480 1.4600
" />
<path d="M9.8480 1.4840
L9.8480 1.6490
" />
<path d="M9.8480 1.6490
L9.8480 2.7340
" />
<path d="M9.8480 1.6490
L9.9540 1.6490
" />
<path d="M9.8480 2.7340
L9.8480 3.4350
" />
<path d="M9.8480 3.4350
L9.8480 4.5200
" />
<path d="M9.8480 4.6850
L9.8480 4.5200
" />
<path d="M9.8480 4.6850
L9.8480 4.7090
" />
<path d="M9.8480 4.7090
L9.5000 4.7090
" />
<path d="M9.8480 4.9590
L9.8480 4.7090
" />
<path d="M9.9540 1.4840
L9.8480 1.4840
" />
<path d="M9.9540 1.4840
L9.9540 1.6490
" />
<path d="M9.9540 1.6490
L9.9540 1.9860
" />
<path d="M9.9540 4.1830
L10.1940 4.1830
" />
<path d="M9.9540 4.5200
L9.8480 4.5200
" />
<path d="M9.9540 4.5200
L9.9540 4.1830
" />
<path d="M9.9540 4.5200
L9.9540 4.6850
" />
<path d="M9.9540 4.6850
L9.8480 4.6850
" />
<path d="M9.9540 4.6850
L10.1940 4.6850
" />
<path d="M9.9610 0.7500
L9.9610 0.8110
" />
<path d="M9.9610 5.3580
L9.9610 5.4190
" />
<path d="M10.1880 0.7500
L9.9610 0.7500
" />
<path d="M10.1880 0.8110
L10.1880 0.7500
" />
<path d="M10.1880 5.4190
L9.9610 5.4190
" />
<path d="M10.1880 5.4190
L10.1880 5.3580
" />
<path d="M10.1940 1.4840
L9.9540 1.4840
" />
<path d="M10.1940 1.4840
L10.3000 1.4840
" />
<path d="M10.1940 1.6490
L10.1940 1.4840
" />
<path d="M10.1940 1.6490
L10.1940 1.9860
" />
<path d="M10.1940 1.6490
L10.3000 1.6490
" />
<path d="M10.1940 1.9860
L9.9540 1.9860
" />
<path d="M10.1940 4.5200
L10.1940 4.1830
" />
<path d="M10.1940 4.6850
L10.1940 4.5200
" />
<path d="M10.1940 4.6850
L10.3000 4.6850
" />
<path d="M10.3000 1.2100
L10.3000 1.4600
" />
<path d="M10.3000 1.4840
L10.3000 1.4600
" />
<path d="M10.3000 1.4840
L10.3000 1.6490
" />
<path d="M10.3000 1.6490
L10.3000 2.7340
" />
<path d="M10.3000 2.7340
L9.8480 2.7340
" />
<path d="M10.3000 3.4350
L9.8480 3.4350
" />
<path d="M10.3000 3.4350
L10.3000 2.7340
" />
<path d="M10.3000 3.4350
L10.3000 4.5200
" />
<path d="M10.3000 4.5200
L10.1940 4.5200
" />
<path d="M10.3000 4.6850
L10.3000 4.5200
" />
<path d="M10.3000 4.6850
L10.3000 4.7090
" />
<path d="M10.3000 4.7090
L10.3000 4.9590
" />
<path d="M10.3000 4.9590
L9.8480 4.9590
" />
<path d="M10.6480 1.2100
L11.1000 1.2100
" />
<path d="M10.6480 1.4600
L10.3000 1.4600
" />
<path d="M10.6480 1.4600
L10.6480 1.2100
" />
<path d="M10.6480 1.4840
L10.6480 1.4600
" />
<path d="M10.6480 1.4840
L10.6480 1.6490
" />
<path d="M10.6480 1.6490
L10.6480 2.7340
" />
<path d="M10.6480 1.6490
L10.7540 1.6490
" />
<path d="M10.6480 2.7340
L10.6480 3.4350
" />
<path d="M10.6480 3.4350
L10.6480 4.5200
" />
<path d="M10.6480 4.6850
L10.6480 4.5200
" />
<path d="M10.6480 4.6850
L10.6480 4.7090
" />
<path d="M10.6480 4.7090
L10.3000 4.7090
" />
<path d="M10.6480 4.9590
L10.6480 4.7090
" />
<path d="M10.7540 1.4840
L10.6480 1.4840
" />
<path d="M10.7540 1.4840
L10.7540 1.6490
" />
<path d="M10.7540 1.6490
L10.7540 1.9860
" />
<path d="M10.7540 4.1830
L10.9940 4.1830
" />
<path d="M10.7540 4.5200
L10.6480 4.5200
" />
<path d="M10.7540 4.5200
L10.7540 4.1830
" />
<path d="M10.7540 4.5200
L10.7540 4.6850
" />
<path d="M10.7540 4.6850
L10.6480 4.6850
" />
<path d="M10.7540 4.6850
L10.9940 4.6850
" />
<path d="M10.7590 0.7500
L10.7590 0.8110
" />
<path d="M10.7590 5.3580
L10.7590 5.4190
" />
<path d="M10.9250 0.7500
L10.7590 0.7500
" />
<path d="M10.9250 0.8110
L10.9250 0.2840
" />
<path d="M10.9250 5.3580
L9.6240 5.3580
" />
<path d="M10.9250 5.4190
L10.7590 5.4190
" />
<path d="M10.9250 5.8830
L10.9250 5.3580
" />
<path d="M10.9250 5.8830
L11.6240 5.8830
" />
<path d="M10.9940 1.4840
L10.7540 1.4840
" />
<path d="M10.9940 1.4840
L11.1000 1.4840
" />
<path d="M10.9940 1.6490
L10.9940 1.4840
" />
<path d="M10.9940 1.6490
L10.9940 1.9860
" />
<path d="M10.9940 1.6490
L11.1000 1.6490
" />
<path d="M10.9940 1.9860
L10.7540 1.9860
" />
<path d="M10.9940 4.5200
L10.9940 4.1830
" />
<path d="M10.9940 4.6850
L10.9940 4.5200
" />
<path d="M10.9940 4.6850
L11.1000 4.6850
" />
<path d="M11.1000 1.2100
L11.1000 1.4600
" />
<path d="M11.1000 1.4840
L11.1000 1.4600
" />
<path d="M11.1000 1.4840
L11.1000 1.6490
" />
<path d="M11.1000 1.6490
L11.1000 2.7340
" />
<path d="M11.1000 2.7340
L10.6480 2.7340
" />
<path d="M11.1000 3.4350
L10.6480 3.4350
" />
<path d="M11.1000 3.4350
L11.1000 2.7340
" />
<path d="M11.1000 3.4350
L11.1000 4.5200
" />
<path d="M11.1000 4.5200
L10.9940 4.5200
" />
<path d="M11.1000 4.6850
L11.1000 4.5200
" />
<path d="M11.1000 4.6850
L11.1000 4.7090
" />
<path d="M11.1000 4.7090
L11.1000 4.9590
" />
<path d="M11.1000 4.9590
L10.6480 4.9590
" />
<path d="M11.4480 1.2100
L11.9000 1.2100
" />
<path d="M11.4480 1.4600
L11.1000 1.4600
" />
<path d="M11.4480 1.4600
L11.4480 1.2100
" />
<path d="M11.4480 1.4840
L11.4480 1.4600
" />
<path d="M11.4480 1.4840
L11.4480 1.6490
" />
<path d="M11.4480 1.6490
L11.4480 2.7340
" />
<path d="M11.4480 1.6490
L11.5540 1.6490
" />
<path d="M11.4480 2.7340
L11.4480 3.4350
" />
<path d="M11.4480 3.4350
L11.4480 4.5200
" />
<path d="M11.4480 4.6850
L11.4480 4.5200
" />
<path d="M11.4480 4.6850
L11.4480 4.7090
" />
<path d="M11.4480 4.7090
L11.1000 4.7090
" />
<path d="M11.4480 4.9590
L11.4480 4.7090
" />
<path d="M11.5540 1.4840
L11.4480 1.4840
" />
<path d="M11.5540 1.4840
L11.5540 1.6490
" />
<path d="M11.5540 1.6490
L11.5540 1.9860
" />
<path d="M11.5540 4.1830
L11.7940 4.1830
" />
<path d="M11.5540 4.5200
L11.4480 4.5200
" />
<path d="M11.5540 4.5200
L11.5540 4.1830
" />
<path d="M11.5540 4.5200
L11.5540 4.6850
" />
<path d="M11.5540 4.6850
L11.4480 4.6850
" />
<path d="M11.5540 4.6850
L11.7940 4.6850
" />
<path d="M11.6240 0.2840
L10.9250 0.2840
" />
<path d="M11.6240 0.2840
L11.6240 0.8110
" />
<path d="M11.6240 0.8110
L12.9240 0.8110
" />
<path d="M11.6240 5.3580
L11.6240 5.8830
" />
<path d="M11.7890 0.7500
L11.6240 0.7500
" />
<path d="M11.7890 0.8110
L11.7890 0.7500
" />
<path d="M11.7890 5.4190
L11.6240 5.4190
" />
<path d="M11.7890 5.4190
L11.7890 5.3580
" />
<path d="M11.7940 1.4840
L11.5540 1.4840
" />
<path d="M11.7940 1.4840
L11.9000 1.4840
" />
<path d="M11.7940 1.6490
L11.7940 1.4840
" />
<path d="M11.7940 1.6490
L11.7940 1.9860
" />
<path d="M11.7940 1.6490
L11.9000 1.6490
" />
<path d="M11.7940 1.9860
L11.5540 1.9860
" />
<path d="M11.7940 4.5200
L11.7940 4.1830
" />
<path d="M11.7940 4.6850
L11.7940 4.5200
" />
<path d="M11.7940 4.6850
L11.9000 4.6850
" />
<path d="M11.9000 1.2100
L11.9000 1.4600
" />
<path d="M11.9000 1.4840
L11.9000 1.4600
" />
<path d="M11.9000 1.4840
L11.9000 1.6490
" />
<path d="M11.9000 1.6490
L11.9000 2.7340
" />
<path d="M11.9000 2.7340
L11.4480 2.7340
" />
<path d="M11.9000 3.4350
L11.4480 3.4350
" />
<path d="M11.9000 3.4350
L11.9000 2.7340
" />
<path d="M11.9000 3.4350
L11.9000 4.5200
" />
<path d="M11.9000 4.5200
L11.7940 4.5200
" />
<path d="M11.9000 4.6850
L11.9000 4.5200
" />
<path d="M11.9000 4.6850
L11.9000 4.7090
" />
<path d="M11.9000 4.7090
L11.9000 4.9590
" />
<path d="M11.9000 4.9590
L11.4480 4.9590
" />
<path d="M12.2480 1.2100
L12.7000 1.2100
" />
<path d="M12.2480 1.4600
L11.9000 1.4600
" />
<path d="M12.2480 1.4600
L12.2480 1.2100
" />
<path d="M12.2480 1.4840
L12.2480 1.4600
" />
<path d="M12.2480 1.4840
L12.2480 1.6490
" />
<path d="M12.2480 1.6490
L12.2480 2.7340
" />
<path d="M12.2480 1.6490
L12.3540 1.6490
" />
<path d="M12.2480 2.7340
L12.2480 3.4350
" />
<path d="M12.2480 3.4350
L12.2480 4.5200
" />
<path d="M12.2480 4.6850
L12.2480 4.5200
" />
<path d="M12.2480 4.6850
L12.2480 4.7090
" />
<path d="M12.2480 4.7090
L11.9000 4.7090
" />
<path d="M12.2480 4.9590
L12.2480 4.7090
" />
<path d="M12.3540 1.4840
L12.2480 1.4840
" />
<path d="M12.3540 1.4840
L12.3540 1.6490
" />
<path d="M12.3540 1.6490
L12.3540 1.9860
" />
<path d="M12.3540 4.1830
L12.5940 4.1830
" />
<path d="M12.3540 4.5200
L12.2480 4.5200
" />
<path d="M12.3540 4.5200
L12.3540 4.1830
" />
<path d="M12.3540 4.5200
L12.3540 4.6850
" />
<path d="M12.3540 4.6850
L12.2480 4.6850
" />
<path d="M12.3540 4.6850
L12.5940 4.6850
" />
<path d="M12.3600 0.7500
L12.3600 0.8110
" />
<path d="M12.3600 5.3580
L12.3600 5.4190
" />
<path d="M12.5890 0.7500
L12.3600 0.7500
" />
<path d="M12.5890 0.8110
L12.5890 0.7500
" />
<path d="M12.5890 5.4190
L12.3600 5.4190
" />
<path d="M12.5890 5.4190
L12.5890 5.3580
" />
<path d="M12.5940 1.4840
L12.3540 1.4840
" />
<path d="M12.5940 1.4840
L12.7000 1.4840
" />
<path d="M12.5940 1.6490
L12.5940 1.4840
" />
<path d="M12.5940 1.6490
L12.5940 1.9860
" />
<path d="M12.5940 1.6490
L12.7000 1.6490
" />
<path d="M12.5940 1.9860
L12.3540 1.9860
" />
<path d="M12.5940 4.5200
L12.5940 4.1830
" />
<path d="M12.5940 4.6850
L12.5940 4.5200
" />
<path d="M12.5940 4.6850
L12.7000 4.6850
" />
<path d="M12.7000 1.2100
L12.7000 1.4600
" />
<path d="M12.7000 1.4840
L12.7000 1.4600
" />
<path d="M12.7000 1.4840
L12.7000 1.6490
" />
<path d="M12.7000 1.6490
L12.7000 2.7340
" />
<path d="M12.7000 2.7340
L12.2480 2.7340
" />
<path d="M12.7000 3.4350
L12.2480 3.4350
" />
<path d="M12.7000 3.4350
L12.7000 2.7340
" />
<path d="M12.7000 3.4350
L12.7000 4.5200
" />
<path d="M12.7000 4.5200
L12.5940 4.5200
" />
<path d="M12.7000 4.6850
L12.7000 4.5200
" />
<path d="M12.7000 4.6850
L12.7000 4.7090
" />
<path d="M12.7000 4.7090
L12.7000 4.9590
" />
<path d="M12.7000 4.9590
L12.2480 4.9590
" />
<path d="M12.9240 0.8110
L12.9240 0.2840
" />
<path d="M12.9240 5.3580
L11.6240 5.3580
" />
<path d="M12.9240 5.8830
L12.9240 5.3580
" />
<path d="M12.9240 5.8830
L13.6240 5.8830
" />
<path d="M13.0480 1.2100
L13.5000 1.2100
" />
<path d="M13.0480 1.4600
L12.7000 1.4600
" />
<path d="M13.0480 1.4600
L13.0480 1.2100
" />
<path d="M13.0480 1.4840
L13.0480 1.4600
" />
<path d="M13.0480 1.4840
L13.0480 1.6490
" />
<path d="M13.0480 1.6490
L13.0480 2.7340
" />
<path d="M13.0480 1.6490
L13.1540 1.6490
" />
<path d="M13.0480 2.7340
L13.0480 3.4350
" />
<path d="M13.0480 3.4350
L13.0480 4.5200
" />
<path d="M13.0480 4.6850
L13.0480 4.5200
" />
<path d="M13.0480 4.6850
L13.0480 4.7090
" />
<path d="M13.0480 4.7090
L12.7000 4.7090
" />
<path d="M13.0480 4.9590
L13.0480 4.7090
" />
<path d="M13.1540 1.4840
L13.0480 1.4840
" />
<path d="M13.1540 1.4840
L13.1540 1.6490
" />
<path d="M13.1540 1.6490
L13.1540 1.9860
" />
<path d="M13.1540 4.1830
L13.3940 4.1830
" />
<path d="M13.1540 4.5200
L13.0480 4.5200
" />
<path d="M13.1540 4.5200
L13.1540 4.1830
" />
<path d="M13.1540 4.5200
L13.1540 4.6850
" />
<path d="M13.1540 4.6850
L13.0480 4.6850
" />
<path d="M13.1540 4.6850
L13.3940 4.6850
" />
<path d="M13.3940 1.4840
L13.1540 1.4840
" />
<path d="M13.3940 1.4840
L13.5000 1.4840
" />
<path d="M13.3940 1.6490
L13.3940 1.4840
" />
<path d="M13.3940 1.6490
L13.3940 1.9860
" />
<path d="M13.3940 1.6490
L13.5000 1.6490
" />
<path d="M13.3940 1.9860
L13.1540 1.9860
" />
<path d="M13.3940 4.5200
L13.3940 4.1830
" />
<path d="M13.3940 4.6850
L13.3940 4.5200
" />
<path d="M13.3940 4.6850
L13.5000 4.6850
" />
<path d="M13.5000 1.2100
L13.5000 1.4600
" />
<path d="M13.5000 1.4840
L13.5000 1.4600
" />
<path d="M13.5000 1.4840
L13.5000 1.6490
" />
<path d="M13.5000 1.6490
L13.5000 2.7340
" />
<path d="M13.5000 2.7340
L13.0480 2.7340
" />
<path d="M13.5000 3.4350
L13.0480 3.4350
" />
<path d="M13.5000 3.4350
L13.5000 2.7340
" />
<path d="M13.5000 3.4350
L13.5000 4.5200
" />
<path d="M13.5000 4.5200
L13.3940 4.5200
" />
<path d="M13.5000 4.6850
L13.5000 4.5200
" />
<path d="M13.5000 4.6850
L13.5000 4.7090
" />
<path d="M13.5000 4.7090
L13.5000 4.9590
" />
<path d="M13.5000 4.9590
L13.0480 4.9590
" />
<path d="M13.6240 0.2840
L12.9240 0.2840
" />
<path d="M13.6240 0.2840
L13.6240 0.8110
" />
<path d="M13.6240 0.8110
L14.9240 0.8110
" />
<path d="M13.6240 5.3580
L13.6240 5.8830
" />
<path d="M13.8480 1.2100
L14.3000 1.2100
" />
<path d="M13.8480 1.4600
L13.5000 1.4600
" />
<path d="M13.8480 1.4600
L13.8480 1.2100
" />
<path d="M13.8480 1.4840
L13.8480 1.4600
" />
<path d="M13.8480 1.4840
L13.8480 1.6490
" />
<path d="M13.8480 1.6490
L13.8480 2.7340
" />
<path d="M13.8480 1.6490
L13.9540 1.6490
" />
<path d="M13.8480 2.7340
L13.8480 3.4350
" />
<path d="M13.8480 3.4350
L13.8480 4.5200
" />
<path d="M13.8480 4.6850
L13.8480 4.5200
" />
<path d="M13.8480 4.6850
L13.8480 4.7090
" />
<path d="M13.8480 4.7090
L13.5000 4.7090
" />
<path d="M13.8480 4.9590
L13.8480 4.7090
" />
<path d="M13.9540 1.4840
L13.8480 1.4840
" />
<path d="M13.9540 1.4840
L13.9540 1.6490
" />
<path d="M13.9540 1.6490
L13.9540 1.9860
" />
<path d="M13.9540 4.1830
L14.1940 4.1830
" />
<path d="M13.9540 4.5200
L13.8480 4.5200
" />
<path d="M13.9540 4.5200
L13.9540 4.1830
" />
<path d="M13.9540 4.5200
L13.9540 4.6850
" />
<path d="M13.9540 4.6850
L13.8480 4.6850
" />
<path d="M13.9540 4.6850
L14.1940 4.6850
" />
<path d="M13.9590 0.7500
L13.9590 0.8110
" />
<path d="M13.9590 5.3580
L13.9590 5.4190
" />
<path d="M14.1900 0.7500
L13.9590 0.7500
" />
<path d="M14.1900 0.8110
L14.1900 0.7500
" />
<path d="M14.1900 5.4190
L13.9590 5.4190
" />
<path d="M14.1900 5.4190
L14.1900 5.3580
" />
<path d="M14.1940 1.4840
L13.9540 1.4840
" />
<path d="M14.1940 1.4840
L14.3000 1.4840
" />
<path d="M14.1940 1.6490
L14.1940 1.4840
" />
<path d="M14.1940 1.6490
L14.1940 1.9860
" />
<path d="M14.1940 1.6490
L14.3000 1.6490
" />
<path d="M14.1940 1.9860
L13.9540 1.9860
" />
<path d="M14.1940 4.5200
L14.1940 4.1830
" />
<path d="M14.1940 4.6850
L14.1940 4.5200
" />
<path d="M14.1940 4.6850
L14.3000 4.6850
" />
<path d="M14.3000 1.2100
L14.3000 1.4600
" />
<path d="M14.3000 1.4840
L14.3000 1.4600
" />
<path d="M14.3000 1.4840
L14.3000 1.6490
" />
<path d="M14.3000 1.6490
L14.3000 2.7340
" />
<path d="M14.3000 2.7340
L13.8480 2.7340
" />
<path d="M14.3000 3.4350
L13.8480 3.4350
" />
<path d="M14.3000 3.4350
L14.3000 2.7340
" />
<path d="M14.3000 3.4350
L14.3000 4.5200
" />
<path d="M14.3000 4.5200
L14.1940 4.5200
" />
<path d="M14.3000 4.6850
L14.3000 4.5200
" />
<path d="M14.3000 4.6850
L14.3000 4.7090
" />
<path d="M14.3000 4.7090
L14.3000 4.9590
" />
<path d="M14.3000 4.9590
L13.8480 4.9590
" />
<path d="M14.6480 1.2100
L15.1000 1.2100
" />
<path d="M14.6480 1.4600
L14.3000 1.4600
" />
<path d="M14.6480 1.4600
L14.6480 1.2100
" />
<path d="M14.6480 1.4840
L14.6480 1.4600
" />
<path d="M14.6480 1.4840
L14.6480 1.6490
" />
<path d="M14.6480 1.6490
L14.6480 2.7340
" />
<path d="M14.6480 1.6490
L14.7540 1.6490
" />
<path d="M14.6480 2.7340
L14.6480 3.4350
" />
<path d="M14.6480 3.4350
L14.6480 4.5200
" />
<path d="M14.6480 4.6850
L14.6480 4.5200
" />
<path d="M14.6480 4.6850
L14.6480 4.7090
" />
<path d="M14.6480 4.7090
L14.3000 4.7090
" />
<path d="M14.6480 4.9590
L14.6480 4.7090
" />
<path d="M14.7540 1.4840
L14.6480 1.4840
" />
<path d="M14.7540 1.4840
L14.7540 1.6490
" />
<path d="M14.7540 1.6490
L14.7540 1.9860
" />
<path d="M14.7540 4.1830
L14.9940 4.1830
" />
<path d="M14.7540 4.5200
L14.6480 4.5200
" />
<path d="M14.7540 4.5200
L14.7540 4.1830
" />
<path d="M14.7540 4.5200
L14.7540 4.6850
" />
<path d="M14.7540 4.6850
L14.6480 4.6850
" />
<path d="M14.7540 4.6850
L14.9940 4.6850
" />
<path d="M14.7600 0.7500
L14.7600 0.8110
" />
<path d="M14.7600 5.3580
L14.7600 5.4190
" />
<path d="M14.9240 0.7500
L14.7600 0.7500
" />
<path d="M14.9240 0.8110
L14.9240 0.2840
" />
<path d="M14.9240 5.3580
L13.6240 5.3580
" />
<path d="M14.9240 5.4190
L14.7600 5.4190
" />
<path d="M14.9240 5.8830
L14.9240 5.3580
" />
<path d="M14.9240 5.8830
L15.6250 5.8830
" />
<path d="M14.9940 1.4840
L14.7540 1.4840
" />
<path d="M14.9940 1.4840
L15.1000 1.4840
" />
<path d="M14.9940 1.6490
L14.9940 1.4840
" />
<path d="M14.9940 1.6490
L14.9940 1.9860
" />
<path d="M14.9940 1.6490
L15.1000 1.6490
" />
<path d="M14.9940 1.9860
L14.7540 1.9860
" />
<path d="M14.9940 4.5200
L14.9940 4.1830
" />
<path d="M14.9940 4.6850
L14.9940 4.5200
" />
<path d="M14.9940 4.6850
L15.1000 4.6850
" />
<path d="M15.1000 1.2100
L15.1000 1.4600
" />
<path d="M15.1000 1.4840
L15.1000 1.4600
" />
<path d="M15.1000 1.4840
L15.1000 1.6490
" />
<path d="M15.1000 1.6490
L15.1000 2.7340
" />
<path d="M15.1000 2.7340
L14.6480 2.7340
" />
<path d="M15.1000 3.4350
L14.6480 3.4350
" />
<path d="M15.1000 3.4350
L15.1000 2.7340
" />
<path d="M15.1000 3.4350
L15.1000 4.5200
" />
<path d="M15.1000 4.5200
L14.9940 4.5200
" />
<path d="M15.1000 4.6850
L15.1000 4.5200
" />
<path d="M15.1000 4.6850
L15.1000 4.7090
" />
<path d="M15.1000 4.7090
L15.1000 4.9590
" />
<path d="M15.1000 4.9590
L14.6480 4.9590
" />
<path d="M15.4480 1.2100
L15.9000 1.2100
" />
<path d="M15.4480 1.4600
L15.1000 1.4600
" />
<path d="M15.4480 1.4600
L15.4480 1.2100
" />
<path d="M15.4480 1.4840
L15.4480 1.4600
" />
<path d="M15.4480 1.4840
L15.4480 1.6490
" />
<path d="M15.4480 1.6490
L15.4480 2.7340
" />
<path d="M15.4480 1.6490
L15.5540 1.6490
" />
<path d="M15.4480 2.7340
L15.4480 3.4350
" />
<path d="M15.4480 3.4350
L15.4480 4.5200
" />
<path d="M15.4480 4.6850
L15.4480 4.5200
" />
<path d="M15.4480 4.6850
L15.4480 4.7090
" />
<path d="M15.4480 4.7090
L15.1000 4.7090
" />
<path d="M15.4480 4.9590
L15.4480 4.7090
" />
<path d="M15.5540 1.4840
L15.4480 1.4840
" />
<path d="M15.5540 1.4840
L15.5540 1.6490
" />
<path d="M15.5540 1.6490
L15.5540 1.9860
" />
<path d="M15.5540 4.1830
L15.7940 4.1830
" />
<path d="M15.5540 4.5200
L15.4480 4.5200
" />
<path d="M15.5540 4.5200
L15.5540 4.1830
" />
<path d="M15.5540 4.5200
L15.5540 4.6850
" />
<path d="M15.5540 4.6850
L15.4480 4.6850
" />
<path d="M15.5540 4.6850
L15.7940 4.6850
" />
<path d="M15.6250 0.2840
L14.9240 0.2840
" />
<path d="M15.6250 0.2840
L15.6250 0.8110
" />
<path d="M15.6250 0.8110
L16.9240 0.8110
" />
<path d="M15.6250 5.3580
L15.6250 5.8830
" />
<path d="M15.7900 0.7500
L15.6250 0.7500
" />
<path d="M15.7900 0.8110
L15.7900 0.7500
" />
<path d="M15.7900 5.4190
L15.6250 5.4190
" />
<path d="M15.7900 5.4190
L15.7900 5.3580
" />
<path d="M15.7940 1.4840
L15.5540 1.4840
" />
<path d="M15.7940 1.4840
L15.9000 1.4840
" />
<path d="M15.7940 1.6490
L15.7940 1.4840
" />
<path d="M15.7940 1.6490
L15.7940 1.9860
" />
<path d="M15.7940 1.6490
L15.9000 1.6490
" />
<path d="M15.7940 1.9860
L15.5540 1.9860
" />
<path d="M15.7940 4.5200
L15.7940 4.1830
" />
<path d="M15.7940 4.6850
L15.7940 4.5200
" />
<path d="M15.7940 4.6850
L15.9000 4.6850
" />
<path d="M15.9000 1.2100
L15.9000 1.4600
" />
<path d="M15.9000 1.4840
L15.9000 1.4600
" />
<path d="M15.9000 1.4840
L15.9000 1.6490
" />
<path d="M15.9000 1.6490
L15.9000 2.7340
" />
<path d="M15.9000 2.7340
L15.4480 2.7340
" />
<path d="M15.9000 3.4350
L15.4480 3.4350
" />
<path d="M15.9000 3.4350
L15.9000 2.7340
" />
<path d="M15.9000 3.4350
L15.9000 4.5200
" />
<path d="M15.9000 4.5200
L15.7940 4.5200
" />
<path d="M15.9000 4.6850
L15.9000 4.5200
" />
<path d="M15.9000 4.6850
L15.9000 4.7090
" />
<path d="M15.9000 4.7090
L15.9000 4.9590
" />
<path d="M15.9000 4.9590
L15.4480 4.9590
" />
<path d="M16.2480 1.2100
L16.7000 1.2100
" />
<path d="M16.2480 1.4600
L15.9000 1.4600
" />
<path d="M16.2480 1.4600
L16.2480 1.2100
" />
<path d="M16.2480 1.4840
L16.2480 1.4600
" />
<path d="M16.2480 1.4840
L16.2480 1.6490
" />
<path d="M16.2480 1.6490
L16.2480 2.7340
" />
<path d="M16.2480 1.6490
L16.3540 1.6490
" />
<path d="M16.2480 2.7340
L16.2480 3.4350
" />
<path d="M16.2480 3.4350
L16.2480 4.5200
" />
<path d="M16.2480 4.6850
L16.2480 4.5200
" />
<path d="M16.2480 4.6850
L16.2480 4.7090
" />
<path d="M16.2480 4.7090
L15.9000 4.7090
" />
<path d="M16.2480 4.9590
L16.2480 4.7090
" />
<path d="M16.3540 1.4840
L16.2480 1.4840
" />
<path d="M16.3540 1.4840
L16.3540 1.6490
" />
<path d="M16.3540 1.6490
L16.3540 1.9860
" />
<path d="M16.3540 4.1830
L16.5940 4.1830
" />
<path d="M16.3540 4.5200
L16.2480 4.5200
" />
<path d="M16.3540 4.5200
L16.3540 4.1830
" />
<path d="M16.3540 4.5200
L16.3540 4.6850
" />
<path d="M16.3540 4.6850
L16.2480 4.6850
" />
<path d="M16.3540 4.6850
L16.5940 4.6850
" />
<path d="M16.3600 0.7500
L16.3600 0.8110
" />
<path d="M16.3600 5.3580
L16.3600 5.4190
" />
<path d="M16.5900 0.7500
L16.3600 0.7500
" />
<path d="M16.5900 0.8110
L16.5900 0.7500
" />
<path d="M16.5900 5.4190
L16.3600 5.4190
" />
<path d="M16.5900 5.4190
L16.5900 5.3580
" />
<path d="M16.5940 1.4840
L16.3540 1.4840
" />
<path d="M16.5940 1.4840
L16.7000 1.4840
" />
<path d="M16.5940 1.6490
L16.5940 1.4840
" />
<path d="M16.5940 1.6490
L16.5940 1.9860
" />
<path d="M16.5940 1.6490
L16.7000 1.6490
" />
<path d="M16.5940 1.9860
L16.3540 1.9860
" />
<path d="M16.5940 4.5200
L16.5940 4.1830
" />
<path d="M16.5940 4.6850
L16.5940 4.5200
" />
<path d="M16.5940 4.6850
L16.7000 4.6850
" />
<path d="M16.7000 1.2100
L16.7000 1.4600
" />
<path d="M16.7000 1.4840
L16.7000 1.4600
" />
<path d="M16.7000 1.4840
L16.7000 1.6490
" />
<path d="M16.7000 1.6490
L16.7000 2.7340
" />
<path d="M16.7000 2.7340
L16.2480 2.7340
" />
<path d="M16.7000 3.4350
L16.2480 3.4350
" />
<path d="M16.7000 3.4350
L16.7000 2.7340
" />
<path d="M16.7000 3.4350
L16.7000 4.5200
" />
<path d="M16.7000 4.5200
L16.5940 4.5200
" />
<path d="M16.7000 4.6850
L16.7000 4.5200
" />
<path d="M16.7000 4.6850
L16.7000 4.7090
" />
<path d="M16.7000 4.7090
L16.7000 4.9590
" />
<path d="M16.7000 4.9590
L16.2480 4.9590
" />
<path d="M16.9240 0.8110
L16.9240 0.2840
" />
<path d="M16.9240 5.3580
L15.6250 5.3580
" />
<path d="M16.9240 5.8830
L16.9240 5.3580
" />
<path d="M16.9240 5.8830
L17.6240 5.8830
" />
<path d="M17.0480 1.2100
L17.5000 1.2100
" />
<path d="M17.0480 1.4600
L16.7000 1.4600
" />
<path d="M17.0480 1.4600
L17.0480 1.2100
" />
<path d="M17.0480 1.4840
L17.0480 1.4600
" />
<path d="M17.0480 1.4840
L17.0480 1.6490
" />
<path d="M17.0480 1.6490
L17.0480 2.7340
" />
<path d="M17.0480 1.6490
L17.1540 1.6490
" />
<path d="M17.0480 2.7340
L17.0480 3.4350
" />
<path d="M17.0480 3.4350
L17.0480 4.5200
" />
<path d="M17.0480 4.6850
L17.0480 4.5200
" />
<path d="M17.0480 4.6850
L17.0480 4.7090
" />
<path d="M17.0480 4.7090
L16.7000 4.7090
" />
<path d="M17.0480 4.9590
L17.0480 4.7090
" />
<path d="M17.1540 1.4840
L17.0480 1.4840
" />
<path d="M17.1540 1.4840
L17.1540 1.6490
" />
<path d="M17.1540 1.6490
L17.1540 1.9860
" />
<path d="M17.1540 4.1830
L17.3940 4.1830
" />
<path d="M17.1540 4.5200
L17.0480 4.5200
" />
<path d="M17.1540 4.5200
L17.1540 4.1830
" />
<path d="M17.1540 4.5200
L17.1540 4.6850
" />
<path d="M17.1540 4.6850
L17.0480 4.6850
" />
<path d="M17.1540 4.6850
L17.3940 4.6850
" />
<path d="M17.3940 1.4840
L17.1540 1.4840
" />
<path d="M17.3940 1.4840
L17.5000 1.4840
" />
<path d="M17.3940 1.6490
L17.3940 1.4840
" />
<path d="M17.3940 1.6490
L17.3940 1.9860
" />
<path d="M17.3940 1.6490
L17.5000 1.6490
" />
<path d="M17.3940 1.9860
L17.1540 1.9860
" />
<path d="M17.3940 4.5200
L17.3940 4.1830
" />
<path d="M17.3940 4.6850
L17.3940 4.5200
" />
<path d="M17.3940 4.6850
L17.5000 4.6850
" />
<path d="M17.5000 1.2100
L17.5000 1.4600
" />
<path d="M17.5000 1.4840
L17.5000 1.4600
" />
<path d="M17.5000 1.4840
L17.5000 1.6490
" />
<path d="M17.5000 1.6490
L17.5000 2.7340
" />
<path d="M17.5000 2.7340
L17.0480 2.7340
" />
<path d="M17.5000 3.4350
L17.0480 3.4350
" />
<path d="M17.5000 3.4350
L17.5000 2.7340
" />
<path d="M17.5000 3.4350
L17.5000 4.5200
" />
<path d="M17.5000 4.5200
L17.3940 4.5200
" />
<path d="M17.5000 4.6850
L17.5000 4.5200
" />
<path d="M17.5000 4.6850
L17.5000 4.7090
" />
<path d="M17.5000 4.7090
L17.5000 4.9590
" />
<path d="M17.5000 4.9590
L17.0480 4.9590
" />
<path d="M17.6240 0.2840
L16.9240 0.2840
" />
<path d="M17.6240 0.2840
L17.6240 0.8110
" />
<path d="M17.6240 0.8110
L18.9230 0.8110
" />
<path d="M17.6240 5.3580
L17.6240 5.8830
" />
<path d="M17.8480 1.2100
L18.3000 1.2100
" />
<path d="M17.8480 1.4600
L17.5000 1.4600
" />
<path d="M17.8480 1.4600
L17.8480 1.2100
" />
<path d="M17.8480 1.4840
L17.8480 1.4600
" />
<path d="M17.8480 1.4840
L17.8480 1.6490
" />
<path d="M17.8480 1.6490
L17.8480 2.7340
" />
<path d="M17.8480 1.6490
L17.9540 1.6490
" />
<path d="M17.8480 2.7340
L17.8480 3.4350
" />
<path d="M17.8480 3.4350
L17.8480 4.5200
" />
<path d="M17.8480 4.6850
L17.8480 4.5200
" />
<path d="M17.8480 4.6850
L17.8480 4.7090
" />
<path d="M17.8480 4.7090
L17.5000 4.7090
" />
<path d="M17.8480 4.9590
L17.8480 4.7090
" />
<path d="M17.9540 1.4840
L17.8480 1.4840
" />
<path d="M17.9540 1.4840
L17.9540 1.6490
" />
<path d="M17.9540 1.6490
L17.9540 1.9860
" />
<path d="M17.9540 4.1830
L18.1940 4.1830
" />
<path d="M17.9540 4.5200
L17.8480 4.5200
" />
<path d="M17.9540 4.5200
L17.9540 4.1830
" />
<path d="M17.9540 4.5200
L17.9540 4.6850
" />
<path d="M17.9540 4.6850
L17.8480 4.6850
" />
<path d="M17.9540 4.6850
L18.1940 4.6850
" />
<path d="M17.9600 0.7500
L17.9600 0.8110
" />
<path d="M17.9600 5.3580
L17.9600 5.4190
" />
<path d="M18.1900 0.7500
L17.9600 0.7500
" />
<path d="M18.1900 0.8110
L18.1900 0.7500
" />
<path d="M18.1900 5.4190
L17.9600 5.4190
" />
<path d="M18.1900 5.4190
L18.1900 5.3580
" />
<path d="M18.1940 1.4840
L17.9540 1.4840
" />
<path d="M18.1940 1.4840
L18.3000 1.4840
" />
<path d="M18.1940 1.6490
L18.1940 1.4840
" />
<path d="M18.1940 1.6490
L18.1940 1.9860
" />
<path d="M18.1940 1.6490
L18.3000 1.6490
" />
<path d="M18.1940 1.9860
L17.9540 1.9860
" />
<path d="M18.1940 4.5200
L18.1940 4.1830
" />
<path d="M18.1940 4.6850
L18.1940 4.5200
" />
<path d="M18.1940 4.6850
L18.3000 4.6850
" />
<path d="M18.3000 1.2100
L18.3000 1.4600
" />
<path d="M18.3000 1.4840
L18.3000 1.4600
" />
<path d="M18.3000 1.4840
L18.3000 1.6490
" />
<path d="M18.3000 1.6490
L18.3000 2.7340
" />
<path d="M18.3000 2.7340
L17.8480 2.7340
" />
<path d="M18.3000 3.4350
L17.8480 3.4350
" />
<path d="M18.3000 3.4350
L18.3000 2.7340
" />
<path d="M18.3000 3.4350
L18.3000 4.5200
" />
<path d="M18.3000 4.5200
L18.1940 4.5200
" />
<path d="M18.3000 4.6850
L18.3000 4.5200
" />
<path d="M18.3000 4.6850
L18.3000 4.7090
" />
<path d="M18.3000 4.7090
L18.3000 4.9590
" />
<path d="M18.3000 4.9590
L17.8480 4.9590
" />
<path d="M18.6480 1.2100
L19.1000 1.2100
" />
<path d="M18.6480 1.4600
L18.3000 1.4600
" />
<path d="M18.6480 1.4600
L18.6480 1.2100
" />
<path d="M18.6480 1.4840
L18.6480 1.4600
" />
<path d="M18.6480 1.4840
L18.6480 1.6490
" />
<path d="M18.6480 1.6490
L18.6480 2.7340
" />
<path d="M18.6480 1.6490
L18.7540 1.6490
" />
<path d="M18.6480 2.7340
L18.6480 3.4350
" />
<path d="M18.6480 3.4350
L18.6480 4.5200
" />
<path d="M18.6480 4.6850
L18.6480 4.5200
" />
<path d="M18.6480 4.6850
L18.6480 4.7090
" />
<path d="M18.6480 4.7090
L18.3000 4.7090
" />
<path d="M18.6480 4.9590
L18.6480 4.7090
" />
<path d="M18.7540 1.4840
L18.6480 1.4840
" />
<path d="M18.7540 1.4840
L18.7540 1.6490
" />
<path d="M18.7540 1.6490
L18.7540 1.9860
" />
<path d="M18.7540 4.1830
L18.9940 4.1830
" />
<path d="M18.7540 4.5200
L18.6480 4.5200
" />
<path d="M18.7540 4.5200
L18.7540 4.1830
" />
<path d="M18.7540 4.5200
L18.7540 4.6850
" />
<path d="M18.7540 4.6850
L18.6480 4.6850
" />
<path d="M18.7540 4.6850
L18.9940 4.6850
" />
<path d="M18.7570 0.7500
L18.7570 0.8110
" />
<path d="M18.7570 5.3580
L18.7570 5.4190
" />
<path d="M18.9230 0.7500
L18.7570 0.7500
" />
<path d="M18.9230 0.8110
L18.9230 0.2840
" />
<path d="M18.9230 5.3580
L17.6240 5.3580
" />
<path d="M18.9230 5.4190
L18.7570 5.4190
" />
<path d="M18.9230 5.8830
L18.9230 5.3580
" />
<path d="M18.9230 5.8830
L19.6240 5.8830
" />
<path d="M18.9940 1.4840
L18.7540 1.4840
" />
<path d="M18.9940 1.4840
L19.1000 1.4840
" />
<path d="M18.9940 1.6490
L18.9940 1.4840
" />
<path d="M18.9940 1.6490
L18.9940 1.9860
" />
<path d="M18.9940 1.6490
L19.1000 1.6490
" />
<path d="M18.9940 1.9860
L18.7540 1.9860
" />
<path d="M18.9940 4.5200
L18.9940 4.1830
" />
<path d="M18.9940 4.6850
L18.9940 4.5200
" />
<path d="M18.9940 4.6850
L19.1000 4.6850
" />
<path d="M19.1000 1.2100
L19.1000 1.4600
" />
<path d="M19.1000 1.4840
L19.1000 1.4600
" />
<path d="M19.1000 1.4840
L19.1000 1.6490
" />
<path d="M19.1000 1.6490
L19.1000 2.7340
" />
<path d="M19.1000 2.7340
L18.6480 2.7340
" />
<path d="M19.1000 3.4350
L18.6480 3.4350
" />
<path d="M19.1000 3.4350
L19.1000 2.7340
" />
<path d="M19.1000 3.4350
L19.1000 4.5200
" />
<path d="M19.1000 4.5200
L18.9940 4.5200
" />
<path d="M19.1000 4.6850
L19.1000 4.5200
" />
<path d="M19.1000 4.6850
L19.1000 4.7090
" />
<path d="M19.1000 4.7090
L19.1000 4.9590
" />
<path d="M19.1000 4.9590
L18.6480 4.9590
" />
<path d="M19.4480 1.2100
L19.9000 1.2100
" />
<path d="M19.4480 1.4600
L19.1000 1.4600
" />
<path d="M19.4480 1.4600
L19.4480 1.2100
" />
<path d="M19.4480 1.4840
L19.4480 1.4600
" />
<path d="M19.4480 1.4840
L19.4480 1.6490
" />
<path d="M19.4480 1.6490
L19.4480 2.7340
" />
<path d="M19.4480 1.6490
L19.5540 1.6490
" />
<path d="M19.4480 2.7340
L19.4480 3.4350
" />
<path d="M19.4480 3.4350
L19.4480 4.5200
" />
<path d="M19.4480 4.6850
L19.4480 4.5200
" />
<path d="M19.4480 4.6850
L19.4480 4.7090
" />
<path d="M19.4480 4.7090
L19.1000 4.7090
" />
<path d="M19.4480 4.9590
L19.4480 4.7090
" />
<path d="M19.5540 1.4840
L19.4480 1.4840
" />
<path d="M19.5540 1.4840
L19.5540 1.6490
" />
<path d="M19.5540 1.6490
L19.5540 1.9860
" />
<path d="M19.5540 4.1830
L19.7940 4.1830
" />
<path d="M19.5540 4.5200
L19.4480 4.5200
" />
<path d="M19.5540 4.5200
L19.5540 4.1830
" />
<path d="M19.5540 4.5200
L19.5540 4.6850
" />
<path d="M19.5540 4.6850
L19.4480 4.6850
" />
<path d="M19.5540 4.6850
L19.7940 4.6850
" />
<path d="M19.6240 0.2840
L18.9230 0.2840
" />
<path d="M19.6240 0.2840
L19.6240 0.8110
" />
<path d="M19.6240 0.8110
L20.9230 0.8110
" />
<path d="M19.6240 5.3580
L19.6240 5.8830
" />
<path d="M19.7900 0.7500
L19.6240 0.7500
" />
<path d="M19.7900 0.8110
L19.7900 0.7500
" />
<path d="M19.7900 5.4190
L19.6240 5.4190
" />
<path d="M19.7900 5.4190
L19.7900 5.3580
" />
<path d="M19.7940 1.4840
L19.5540 1.4840
" />
<path d="M19.7940 1.4840
L19.9000 1.4840
" />
<path d="M19.7940 1.6490
L19.7940 1.4840
" />
<path d="M19.7940 1.6490
L19.7940 1.9860
" />
<path d="M19.7940 1.6490
L19.9000 1.6490
" />
<path d="M19.7940 1.9860
L19.5540 1.9860
" />
<path d="M19.7940 4.5200
L19.7940 4.1830
" />
<path d="M19.7940 4.6850
L19.7940 4.5200
" />
<path d="M19.7940 4.6850
L19.9000 4.6850
" />
<path d="M19.9000 1.2100
L19.9000 1.4600
" />
<path d="M19.9000 1.4840
L19.9000 1.4600
" />
<path d="M19.9000 1.4840
L19.9000 1.6490
" />
<path d="M19.9000 1.6490
L19.9000 2.7340
" />
<path d="M19.9000 2.7340
L19.4480 2.7340
" />
<path d="M19.9000 3.4350
L19.4480 3.4350
" />
<path d="M19.9000 3.4350
L19.9000 2.7340
" />
<path d="M19.9000 3.4350
L19.9000 4.5200
" />
<path d="M19.9000 4.5200
L19.7940 4.5200
" />
<path d="M19.9000 4.6850
L19.9000 4.5200
" />
<path d="M19.9000 4.6850
L19.9000 4.7090
" />
<path d="M19.9000 4.7090
L19.9000 4.9590
" />
<path d="M19.9000 4.9590
L19.4480 4.9590
" />
<path d="M20.2480 1.2100
L20.7000 1.2100
" />
<path d="M20.2480 1.4600
L19.9000 1.4600
" />
<path d="M20.2480 1.4600
L20.2480 1.2100
" />
<path d="M20.2480 1.4840
L20.2480 1.4600
" />
<path d="M20.2480 1.4840
L20.2480 1.6490
" />
<path d="M20.2480 1.6490
L20.2480 2.7340
" />
<path d="M20.2480 1.6490
L20.3540 1.6490
" />
<path d="M20.2480 2.7340
L20.2480 3.4350
" />
<path d="M20.2480 3.4350
L20.2480 4.5200
" />
<path d="M20.2480 4.6850
L20.2480 4.5200
" />
<path d="M20.2480 4.6850
L20.2480 4.7090
" />
<path d="M20.2480 4.7090
L19.9000 4.7090
" />
<path d="M20.2480 4.9590
L20.2480 4.7090
" />
<path d="M20.3540 1.4840
L20.2480 1.4840
" />
<path d="M20.3540 1.4840
L20.3540 1.6490
" />
<path d="M20.3540 1.6490
L20.3540 1.9860
" />
<path d="M20.3540 4.1830
L20.5940 4.1830
" />
<path d="M20.3540 4.5200
L20.2480 4.5200
" />
<path d="M20.3540 4.5200
L20.3540 4.1830
" />
<path d="M20.3540 4.5200
L20.3540 4.6850
" />
<path d="M20.3540 4.6850
L20.2480 4.6850
" />
<path d="M20.3540 4.6850
L20.5940 4.6850
" />
<path d="M20.3590 0.7500
L20.3590 0.8110
" />
<path d="M20.3590 5.3580
L20.3590 5.4190
" />
<path d="M20.5890 0.7500
L20.3590 0.7500
" />
<path d="M20.5890 0.8110
L20.5890 0.7500
" />
<path d="M20.5890 5.4190
L20.3590 5.4190
" />
<path d="M20.5890 5.4190
L20.5890 5.3580
" />
<path d="M20.5940 1.4840
L20.3540 1.4840
" />
<path d="M20.5940 1.4840
L20.7000 1.4840
" />
<path d="M20.5940 1.6490
L20.5940 1.4840
" />
<path d="M20.5940 1.6490
L20.5940 1.9860
" />
<path d="M20.5940 1.6490
L20.7000 1.6490
" />
<path d="M20.5940 1.9860
L20.3540 1.9860
" />
<path d="M20.5940 4.5200
L20.5940 4.1830
" />
<path d="M20.5940 4.6850
L20.5940 4.5200
" />
<path d="M20.5940 4.6850
L20.7000 4.6850
" />
<path d="M20.7000 1.2100
L20.7000 1.4600
" />
<path d="M20.7000 1.4840
L20.7000 1.4600
" />
<path d="M20.7000 1.4840
L20.7000 1.6490
" />
<path d="M20.7000 1.6490
L20.7000 2.7340
" />
<path d="M20.7000 2.7340
L20.2480 2.7340
" />
<path d="M20.7000 3.4350
L20.2480 3.4350
" />
<path d="M20.7000 3.4350
L20.7000 2.7340
" />
<path d="M20.7000 3.4350
L20.7000 4.5200
" />
<path d="M20.7000 4.5200
L20.5940 4.5200
" />
<path d="M20.7000 4.6850
L20.7000 4.5200
" />
<path d="M20.7000 4.6850
L20.7000 4.7090
" />
<path d="M20.7000 4.7090
L20.7000 4.9590
" />
<path d="M20.7000 4.9590
L20.2480 4.9590
" />
<path d="M20.9230 0.8110
L20.9230 0.2840
" />
<path d="M20.9230 5.3580
L19.6240 5.3580
" />
<path d="M20.9230 5.8830
L20.9230 5.3580
" />
<path d="M20.9230 5.8830
L21.6250 5.8830
" />
<path d="M21.0480 1.2100
L21.5000 1.2100
" />
<path d="M21.0480 1.4600
L20.7000 1.4600
" />
<path d="M21.0480 1.4600
L21.0480 1.2100
" />
<path d="M21.0480 1.4840
L21.0480 1.4600
" />
<path d="M21.0480 1.4840
L21.0480 1.6490
" />
<path d="M21.0480 1.6490
L21.0480 2.7340
" />
<path d="M21.0480 1.6490
L21.1540 1.6490
" />
<path d="M21.0480 2.7340
L21.0480 3.4350
" />
<path d="M21.0480 3.4350
L21.0480 4.5200
" />
<path d="M21.0480 4.6850
L21.0480 4.5200
" />
<path d="M21.0480 4.6850
L21.0480 4.7090
" />
<path d="M21.0480 4.7090
L20.7000 4.7090
" />
<path d="M21.0480 4.9590
L21.0480 4.7090
" />
<path d="M21.1540 1.4840
L21.0480 1.4840
" />
<path d="M21.1540 1.4840
L21.1540 1.6490
" />
<path d="M21.1540 1.6490
L21.1540 1.9860
" />
<path d="M21.1540 4.1830
L21.3940 4.1830
" />
<path d="M21.1540 4.5200
L21.0480 4.5200
" />
<path d="M21.1540 4.5200
L21.1540 4.1830
" />
<path d="M21.1540 4.5200
L21.1540 4.6850
" />
<path d="M21.1540 4.6850
L21.0480 4.6850
" />
<path d="M21.1540 4.6850
L21.3940 4.6850
" />
<path d="M21.3940 1.4840
L21.1540 1.4840
" />
<path d="M21.3940 1.4840
L21.5000 1.4840
" />
<path d="M21.3940 1.6490
L21.3940 1.4840
" />
<path d="M21.3940 1.6490
L21.3940 1.9860
" />
<path d="M21.3940 1.6490
L21.5000 1.6490
" />
<path d="M21.3940 1.9860
L21.1540 1.9860
" />
<path d="M21.3940 4.5200
L21.3940 4.1830
" />
<path d="M21.3940 4.6850
L21.3940 4.5200
" />
<path d="M21.3940 4.6850
L21.5000 4.6850
" />
<path d="M21.5000 1.2100
L21.5000 1.4600
" />
<path d="M21.5000 1.4840
L21.5000 1.4600
" />
<path d="M21.5000 1.4840
L21.5000 1.6490
" />
<path d="M21.5000 1.6490
L21.5000 2.7340
" />
<path d="M21.5000 2.7340
L21.0480 2.7340
" />
<path d="M21.5000 3.4350
L21.0480 3.4350
" />
<path d="M21.5000 3.4350
L21.5000 2.7340
" />
<path d="M21.5000 3.4350
L21.5000 4.5200
" />
<path d="M21.5000 4.5200
L21.3940 4.5200
" />
<path d="M21.5000 4.6850
L21.5000 4.5200
" />
<path d="M21.5000 4.6850
L21.5000 4.7090
" />
<path d="M21.5000 4.7090
L21.5000 4.9590
" />
<path d="M21.5000 4.9590
L21.0480 4.9590
" />
<path d="M21.6250 0.2840
L20.9230 0.2840
" />
<path d="M21.6250 0.2840
L21.6250 0.8110
" />
<path d="M21.6250 0.8110
L22.9230 0.8110
" />
<path d="M21.6250 5.3580
L21.6250 5.8830
" />
<path d="M21.8480 1.2100
L22.3000 1.2100
" />
<path d="M21.8480 1.4600
L21.5000 1.4600
" />
<path d="M21.8480 1.4600
L21.8480 1.2100
" />
<path d="M21.8480 1.4840
L21.8480 1.4600
" />
<path d="M21.8480 1.4840
L21.8480 1.6490
" />
<path d="M21.8480 1.6490
L21.8480 2.7340
" />
<path d="M21.8480 1.6490
L21.9540 1.6490
" />
<path d="M21.8480 2.7340
L21.8480 3.4350
" />
<path d="M21.8480 3.4350
L21.8480 4.5200
" />
<path d="M21.8480 4.6850
L21.8480 4.5200
" />
<path d="M21.8480 4.6850
L21.8480 4.7090
" />
<path d="M21.8480 4.7090
L21.5000 4.7090
" />
<path d="M21.8480 4.9590
L21.8480 4.7090
" />
<path d="M21.9540 1.4840
L21.8480 1.4840
" />
<path d="M21.9540 1.4840
L21.9540 1.6490
" />
<path d="M21.9540 1.6490
L21.9540 1.9860
" />
<path d="M21.9540 4.1830
L22.1940 4.1830
" />
<path d="M21.9540 4.5200
L21.8480 4.5200
" />
<path d="M21.9540 4.5200
L21.9540 4.1830
" />
<path d="M21.9540 4.5200
L21.9540 4.6850
" />
<path d="M21.9540 4.6850
L21.8480 4.6850
" />
<path d="M21.9540 4.6850
L22.1940 4.6850
" />
<path d="M21.9590 0.7500
L21.9590 0.8110
" />
<path d="M21.9590 5.3580
L21.9590 5.4190
" />
<path d="M22.1890 0.7500
L21.9590 0.7500
" />
<path d="M22.1890 0.8110
L22.1890 0.7500
" />
<path d="M22.1890 5.4190
L21.9590 5.4190
" />
<path d="M22.1890 5.4190
L22.1890 5.3580
" />
<path d="M22.1940 1.4840
L21.9540 1.4840
" />
<path d="M22.1940 1.4840
L22.3000 1.4840
" />
<path d="M22.1940 1.6490
L22.1940 1.4840
" />
<path d="M22.1940 1.6490
L22.1940 1.9860
" />
<path d="M22.1940 1.6490
L22.3000 1.6490
" />
<path d="M22.1940 1.9860
L21.9540 1.9860
" />
<path d="M22.1940 4.5200
L22.1940 4.1830
" />
<path d="M22.1940 4.6850
L22.1940 4.5200
" />
<path d="M22.1940 4.6850
L22.3000 4.6850
" />
<path d="M22.3000 1.2100
L22.3000 1.4600
" />
<path d="M22.3000 1.4840
L22.3000 1.4600
" />
<path d="M22.3000 1.4840
L22.3000 1.6490
" />
<path d="M22.3000 1.6490
L22.3000 2.7340
" />
<path d="M22.3000 2.7340
L21.8480 2.7340
" />
<path d="M22.3000 3.4350
L21.8480 3.4350
" />
<path d="M22.3000 3.4350
L22.3000 2.7340
" />
<path d="M22.3000 3.4350
L22.3000 4.5200
" />
<path d="M22.3000 4.5200
L22.1940 4.5200
" />
<path d="M22.3000 4.6850
L22.3000 4.5200
" />
<path d="M22.3000 4.6850
L22.3000 4.7090
" />
<path d="M22.3000 4.7090
L22.3000 4.9590
" />
<path d="M22.3000 4.9590
L21.8480 4.9590
" />
<path d="M22.6480 1.2100
L23.1000 1.2100
" />
<path d="M22.6480 1.4600
L22.3000 1.4600
" />
<path d="M22.6480 1.4600
L22.6480 1.2100
" />
<path d="M22.6480 1.4840
L22.6480 1.4600
" />
<path d="M22.6480 1.4840
L22.6480 1.6490
" />
<path d="M22.6480 1.6490
L22.6480 2.7340
" />
<path d="M22.6480 1.6490
L22.7540 1.6490
" />
<path d="M22.6480 2.7340
L22.6480 3.4350
" />
<path d="M22.6480 3.4350
L22.6480 4.5200
" />
<path d="M22.6480 4.6850
L22.6480 4.5200
" />
<path d="M22.6480 4.6850
L22.6480 4.7090
" />
<path d="M22.6480 4.7090
L22.3000 4.7090
" />
<path d="M22.6480 4.9590
L22.6480 4.7090
" />
<path d="M22.7540 1.4840
L22.6480 1.4840
" />
<path d="M22.7540 1.4840
L22.7540 1.6490
" />
<path d="M22.7540 1.6490
L22.7540 1.9860
" />
<path d="M22.7540 4.1830
L22.9940 4.1830
" />
<path d="M22.7540 4.5200
L22.6480 4.5200
" />
<path d="M22.7540 4.5200
L22.7540 4.1830
" />
<path d="M22.7540 4.5200
L22.7540 4.6850
" />
<path d="M22.7540 4.6850
L22.6480 4.6850
" />
<path d="M22.7540 4.6850
L22.9940 4.6850
" />
<path d="M22.7580 0.7500
L22.7580 0.8110
" />
<path d="M22.7580 5.3580
L22.7580 5.4190
" />
<path d="M22.9230 0.7500
L22.7580 0.7500
" />
<path d="M22.9230 0.8110
L22.9230 0.2840
" />
<path d="M22.9230 5.3580
L21.6250 5.3580
" />
<path d="M22.9230 5.4190
L22.7580 5.4190
" />
<path d="M22.9230 5.8830
L22.9230 5.3580
" />
<path d="M22.9230 5.8830
L23.6240 5.8830
" />
<path d="M22.9940 1.4840
L22.7540 1.4840
" />
<path d="M22.9940 1.4840
L23.1000 1.4840
" />
<path d="M22.9940 1.6490
L22.9940 1.4840
" />
<path d="M22.9940 1.6490
L22.9940 1.9860
" />
<path d="M22.9940 1.6490
L23.1000 1.6490
" />
<path d="M22.9940 1.9860
L22.7540 1.9860
" />
<path d="M22.9940 4.5200
L22.9940 4.1830
" />
<path d="M22.9940 4.6850
L22.9940 4.5200
" />
<path d="M22.9940 4.6850
L23.1000 4.6850
" />
<path d="M23.1000 1.2100
L23.1000 1.4600
" />
<path d="M23.1000 1.4840
L23.1000 1.4600
" />
<path d="M23.1000 1.4840
L23.1000 1.6490
" />
<path d="M23.1000 1.6490
L23.1000 2.7340
" />
<path d="M23.1000 2.7340
L22.6480 2.7340
" />
<path d="M23.1000 3.4350
L22.6480 3.4350
" />
<path d="M23.1000 3.4350
L23.1000 2.7340
" />
<path d="M23.1000 3.4350
L23.1000 4.5200
" />
<path d="M23.1000 4.5200
L22.9940 4.5200
" />
<path d="M23.1000 4.6850
L23.1000 4.5200
" />
<path d="M23.1000 4.6850
L23.1000 4.7090
" />
<path d="M23.1000 4.7090
L23.1000 4.9590
" />
<path d="M23.1000 4.9590
L22.6480 4.9590
" />
<path d="M23.4480 1.2100
L23.9000 1.2100
" />
<path d="M23.4480 1.4600
L23.1000 1.4600
" />
<path d="M23.4480 1.4600
L23.4480 1.2100
" />
<path d="M23.4480 1.4840
L23.4480 1.4600
" />
<path d="M23.4480 1.4840
L23.4480 1.6490
" />
<path d="M23.4480 1.6490
L23.4480 2.7340
" />
<path d="M23.4480 1.6490
L23.5540 1.6490
" />
<path d="M23.4480 2.7340
L23.4480 3.4350
" />
<path d="M23.4480 3.4350
L23.4480 4.5200
" />
<path d="M23.4480 4.6850
L23.4480 4.5200
" />
<path d="M23.4480 4.6850
L23.4480 4.7090
" />
<path d="M23.4480 4.7090
L23.1000 4.7090
" />
<path d="M23.4480 4.9590
L23.4480 4.7090
" />
<path d="M23.5540 1.4840
L23.4480 1.4840
" />
<path d="M23.5540 1.4840
L23.5540 1.6490
" />
<path d="M23.5540 1.6490
L23.5540 1.9860
" />
<path d="M23.5540 4.1830
L23.7940 4.1830
" />
<path d="M23.5540 4.5200
L23.4480 4.5200
" />
<path d="M23.5540 4.5200
L23.5540 4.1830
" />
<path d="M23.5540 4.5200
L23.5540 4.6850
" />
<path d="M23.5540 4.6850
L23.4480 4.6850
" />
<path d="M23.5540 4.6850
L23.7940 4.6850
" />
<path d="M23.6240 0.2840
L22.9230 0.2840
" />
<path d="M23.6240 0.2840
L23.6240 0.8110
" />
<path d="M23.6240 0.8110
L24.9250 0.8110
" />
<path d="M23.6240 5.3580
L23.6240 5.8830
" />
<path d="M23.7890 0.7500
L23.6240 0.7500
" />
<path d="M23.7890 0.8110
L23.7890 0.7500
" />
<path d="M23.7890 5.4190
L23.6240 5.4190
" />
<path d="M23.7890 5.4190
L23.7890 5.3580
" />
<path d="M23.7940 1.4840
L23.5540 1.4840
" />
<path d="M23.7940 1.4840
L23.9000 1.4840
" />
<path d="M23.7940 1.6490
L23.7940 1.4840
" />
<path d="M23.7940 1.6490
L23.7940 1.9860
" />
<path d="M23.7940 1.6490
L23.9000 1.6490
" />
<path d="M23.7940 1.9860
L23.5540 1.9860
" />
<path d="M23.7940 4.5200
L23.7940 4.1830
" />
<path d="M23.7940 4.6850
L23.7940 4.5200
" />
<path d="M23.7940 4.6850
L23.9000 4.6850
" />
<path d="M23.9000 1.2100
L23.9000 1.4600
" />
<path d="M23.9000 1.4840
L23.9000 1.4600
" />
<path d="M23.9000 1.4840
L23.9000 1.6490
" />
<path d="M23.9000 1.6490
L23.9000 2.7340
" />
<path d="M23.9000 2.7340
L23.4480 2.7340
" />
<path d="M23.9000 3.4350
L23.4480 3.4350
" />
<path d="M23.9000 3.4350
L23.9000 2.7340
" />
<path d="M23.9000 3.4350
L23.9000 4.5200
" />
<path d="M23.9000 4.5200
L23.7940 4.5200
" />
<path d="M23.9000 4.6850
L23.9000 4.5200
" />
<path d="M23.9000 4.6850
L23.9000 4.7090
" />
<path d="M23.9000 4.7090
L23.9000 4.9590
" />
<path d="M23.9000 4.9590
L23.4480 4.9590
" />
<path d="M24.2480 1.2100
L24.7000 1.2100
" />
<path d="M24.2480 1.4600
L23.9000 1.4600
" />
<path d="M24.2480 1.4600
L24.2480 1.2100
" />
<path d="M24.2480 1.4840
L24.2480 1.4600
" />
<path d="M24.2480 1.4840
L24.2480 1.6490
" />
<path d="M24.2480 1.6490
L24.2480 2.7340
" />
<path d="M24.2480 1.6490
L24.3540 1.6490
" />
<path d="M24.2480 2.7340
L24.2480 3.4350
" />
<path d="M24.2480 3.4350
L24.2480 4.5200
" />
<path d="M24.2480 4.6850
L24.2480 4.5200
" />
<path d="M24.2480 4.6850
L24.2480 4.7090
" />
<path d="M24.2480 4.7090
L23.9000 4.7090
" />
<path d="M24.2480 4.9590
L24.2480 4.7090
" />
<path d="M24.3540 1.4840
L24.2480 1.4840
" />
<path d="M24.3540 1.4840
L24.3540 1.6490
" />
<path d="M24.3540 1.6490
L24.3540 1.9860
" />
<path d="M24.3540 4.1830
L24.5940 4.1830
" />
<path d="M24.3540 4.5200
L24.2480 4.5200
" />
<path d="M24.3540 4.5200
L24.3540 4.1830
" />
<path d="M24.3540 4.5200
L24.3540 4.6850
" />
<path d="M24.3540 4.6850
L24.2480 4.6850
" />
<path d="M24.3540 4.6850
L24.5940 4.6850
" />
<path d="M24.3590 0.7500
L24.3590 0.8110
" />
<path d="M24.3590 5.3580
L24.3590 5.4190
" />
<path d="M24.5900 0.7500
L24.3590 0.7500
" />
<path d="M24.5900 0.8110
L24.5900 0.7500
" />
<path d="M24.5900 5.4190
L24.3590 5.4190
" />
<path d="M24.5900 5.4190
L24.5900 5.3580
" />
<path d="M24.5940 1.4840
L24.3540 1.4840
" />
<path d="M24.5940 1.4840
L24.7000 1.4840
" />
<path d="M24.5940 1.6490
L24.5940 1.4840
" />
<path d="M24.5940 1.6490
L24.5940 1.9860
" />
<path d="M24.5940 1.6490
L24.7000 1.6490
" />
<path d="M24.5940 1.9860
L24.3540 1.9860
" />
<path d="M24.5940 4.5200
L24.5940 4.1830
" />
<path d="M24.5940 4.6850
L24.5940 4.5200
" />
<path d="M24.5940 4.6850
L24.7000 4.6850
" />
<path d="M24.7000 1.2100
L24.7000 1.4600
" />
<path d="M24.7000 1.4840
L24.7000 1.4600
" />
<path d="M24.7000 1.4840
L24.7000 1.6490
" />
<path d="M24.7000 1.6490
L24.7000 2.7340
" />
<path d="M24.7000 2.7340
L24.2480 2.7340
" />
<path d="M24.7000 3.4350
L24.2480 3.4350
" />
<path d="M24.7000 3.4350
L24.7000 2.7340
" />
<path d="M24.7000 3.4350
L24.7000 4.5200
" />
<path d="M24.7000 4.5200
L24.5940 4.5200
" />
<path d="M24.7000 4.6850
L24.7000 4.5200
" />
<path d="M24.7000 4.6850
L24.7000 4.7090
" />
<path d="M24.7000 4.7090
L24.7000 4.9590
" />
<path d="M24.7000 4.9590
L24.2480 4.9590
" />
<path d="M24.9250 0.8110
L24.9250 0.2840
" />
<path d="M24.9250 5.3580
L23.6240 5.3580
" />
<path d="M24.9250 5.8830
L24.9250 5.3580
" />
<path d="M24.9250 5.8830
L25.6240 5.8830
" />
<path d="M25.0480 1.2100
L25.5000 1.2100
" />
<path d="M25.0480 1.4600
L24.7000 1.4600
" />
<path d="M25.0480 1.4600
L25.0480 1.2100
" />
<path d="M25.0480 1.4840
L25.0480 1.4600
" />
<path d="M25.0480 1.4840
L25.0480 1.6490
" />
<path d="M25.0480 1.6490
L25.0480 2.7340
" />
<path d="M25.0480 1.6490
L25.1540 1.6490
" />
<path d="M25.0480 2.7340
L25.0480 3.4350
" />
<path d="M25.0480 3.4350
L25.0480 4.5200
" />
<path d="M25.0480 4.6850
L25.0480 4.5200
" />
<path d="M25.0480 4.6850
L25.0480 4.7090
" />
<path d="M25.0480 4.7090
L24.7000 4.7090
" />
<path d="M25.0480 4.9590
L25.0480 4.7090
" />
<path d="M25.1540 1.4840
L25.0480 1.4840
" />
<path d="M25.1540 1.4840
L25.1540 1.6490
" />
<path d="M25.1540 1.6490
L25.1540 1.9860
" />
<path d="M25.1540 4.1830
L25.3940 4.1830
" />
<path d="M25.1540 4.5200
L25.0480 4.5200
" />
<path d="M25.1540 4.5200
L25.1540 4.1830
" />
<path d="M25.1540 4.5200
L25.1540 4.6850
" />
<path d="M25.1540 4.6850
L25.0480 4.6850
" />
<path d="M25.1540 4.6850
L25.3940 4.6850
" />
<path d="M25.3940 1.4840
L25.1540 1.4840
" />
<path d="M25.3940 1.4840
L25.5000 1.4840
" />
<path d="M25.3940 1.6490
L25.3940 1.4840
" />
<path d="M25.3940 1.6490
L25.3940 1.9860
" />
<path d="M25.3940 1.6490
L25.5000 1.6490
" />
<path d="M25.3940 1.9860
L25.1540 1.9860
" />
<path d="M25.3940 4.5200
L25.3940 4.1830
" />
<path d="M25.3940 4.6850
L25.3940 4.5200
" />
<path d="M25.3940 4.6850
L25.5000 4.6850
" />
<path d="M25.5000 1.2100
L25.5000 1.4600
" />
<path d="M25.5000 1.4840
L25.5000 1.4600
" />
<path d="M25.5000 1.4840
L25.5000 1.6490
" />
<path d="M25.5000 1.6490
L25.5000 2.7340
" />
<path d="M25.5000 2.7340
L25.0480 2.7340
" />
<path d="M25.5000 3.4350
L25.0480 3.4350
" />
<path d="M25.5000 3.4350
L25.5000 2.7340
" />
<path d="M25.5000 3.4350
L25.5000 4.5200
" />
<path d="M25.5000 4.5200
L25.3940 4.5200
" />
<path d="M25.5000 4.6850
L25.5000 4.5200
" />
<path d="M25.5000 4.6850
L25.5000 4.7090
" />
<path d="M25.5000 4.7090
L25.5000 4.9590
" />
<path d="M25.5000 4.9590
L25.0480 4.9590
" />
<path d="M25.6240 0.2840
L24.9250 0.2840
" />
<path d="M25.6240 0.2840
L25.6240 0.8110
" />
<path d="M25.6240 0.8110
L26.9250 0.8110
" />
<path d="M25.6240 5.3580
L25.6240 5.8830
" />
<path d="M25.8480 1.2100
L26.3000 1.2100
" />
<path d="M25.8480 1.4600
L25.5000 1.4600
" />
<path d="M25.8480 1.4600
L25.8480 1.2100
" />
<path d="M25.8480 1.4840
L25.8480 1.4600
" />
<path d="M25.8480 1.4840
L25.8480 1.6490
" />
<path d="M25.8480 1.6490
L25.8480 2.7340
" />
<path d="M25.8480 1.6490
L25.9540 1.6490
" />
<path d="M25.8480 2.7340
L25.8480 3.4350
" />
<path d="M25.8480 3.4350
L25.8480 4.5200
" />
<path d="M25.8480 4.6850
L25.8480 4.5200
" />
<path d="M25.8480 4.6850
L25.8480 4.7090
" />
<path d="M25.8480 4.7090
L25.5000 4.7090
" />
<path d="M25.8480 4.9590
L25.8480 4.7090
" />
<path d="M25.9540 1.4840
L25.8480 1.4840
" />
<path d="M25.9540 1.4840
L25.9540 1.6490
" />
<path d="M25.9540 1.6490
L25.9540 1.9860
" />
<path d="M25.9540 4.1830
L26.1940 4.1830
" />
<path d="M25.9540 4.5200
L25.8480 4.5200
" />
<path d="M25.9540 4.5200
L25.9540 4.1830
" />
<path d="M25.9540 4.5200
L25.9540 4.6850
" />
<path d="M25.9540 4.6850
L25.8480 4.6850
" />
<path d="M25.9540 4.6850
L26.1940 4.6850
" />
<path d="M25.9590 0.7500
L25.9590 0.8110
" />
<path d="M25.9590 5.3580
L25.9590 5.4190
" />
<path d="M26.1880 0.7500
L25.9590 0.7500
" />
<path d="M26.1880 0.8110
L26.1880 0.7500
" />
<path d="M26.1880 5.4190
L25.9590 5.4190
" />
<path d="M26.1880 5.4190
L26.1880 5.3580
" />
<path d="M26.1940 1.4840
L25.9540 1.4840
" />
<path d="M26.1940 1.4840
L26.3000 1.4840
" />
<path d="M26.1940 1.6490
L26.1940 1.4840
" />
<path d="M26.1940 1.6490
L26.1940 1.9860
" />
<path d="M26.1940 1.6490
L26.3000 1.6490
" />
<path d="M26.1940 1.9860
L25.9540 1.9860
" />
<path d="M26.1940 4.5200
L26.1940 4.1830
" />
<path d="M26.1940 4.6850
L26.1940 4.5200
" />
<path d="M26.1940 4.6850
L26.3000 4.6850
" />
<path d="M26.3000 1.2100
L26.3000 1.4600
" />
<path d="M26.3000 1.4840
L26.3000 1.4600
" />
<path d="M26.3000 1.4840
L26.3000 1.6490
" />
<path d="M26.3000 1.6490
L26.3000 2.7340
" />
<path d="M26.3000 2.7340
L25.8480 2.7340
" />
<path d="M26.3000 3.4350
L25.8480 3.4350
" />
<path d="M26.3000 3.4350
L26.3000 2.7340
" />
<path d="M26.3000 3.4350
L26.3000 4.5200
" />
<path d="M26.3000 4.5200
L26.1940 4.5200
" />
<path d="M26.3000 4.6850
L26.3000 4.5200
" />
<path d="M26.3000 4.6850
L26.3000 4.7090
" />
<path d="M26.3000 4.7090
L26.3000 4.9590
" />
<path d="M26.3000 4.9590
L25.8480 4.9590
" />
<path d="M26.6480 1.2100
L27.1000 1.2100
" />
<path d="M26.6480 1.4600
L26.3000 1.4600
" />
<path d="M26.6480 1.4600
L26.6480 1.2100
" />
<path d="M26.6480 1.4840
L26.6480 1.4600
" />
<path d="M26.6480 1.4840
L26.6480 1.6490
" />
<path d="M26.6480 1.6490
L26.6480 2.7340
" />
<path d="M26.6480 1.6490
L26.7540 1.6490
" />
<path d="M26.6480 2.7340
L26.6480 3.4350
" />
<path d="M26.6480 3.4350
L26.6480 4.5200
" />
<path d="M26.6480 4.6850
L26.6480 4.5200
" />
<path d="M26.6480 4.6850
L26.6480 4.7090
" />
<path d="M26.6480 4.7090
L26.3000 4.7090
" />
<path d="M26.6480 4.9590
L26.6480 4.7090
" />
<path d="M26.7540 1.4840
L26.6480 1.4840
" />
<path d="M26.7540 1.4840
L26.7540 1.6490
" />
<path d="M26.7540 1.6490
L26.7540 1.9860
" />
<path d="M26.7540 4.1830
L26.9940 4.1830
" />
<path d="M26.7540 4.5200
L26.6480 4.5200
" />
<path d="M26.7540 4.5200
L26.7540 4.1830
" />
<path d="M26.7540 4.5200
L26.7540 4.6850
" />
<path d="M26.7540 4.6850
L26.6480 4.6850
" />
<path d="M26.7540 4.6850
L26.9940 4.6850
" />
<path d="M26.7600 0.7500
L26.7600 0.8110
" />
<path d="M26.7600 5.3580
L26.7600 5.4190
" />
<path d="M26.9250 0.7500
L26.7600 0.7500
" />
<path d="M26.9250 0.8110
L26.9250 0.2840
" />
<path d="M26.9250 5.3580
L25.6240 5.3580
" />
<path d="M26.9250 5.4190
L26.7600 5.4190
" />
<path d="M26.9250 5.8830
L26.9250 5.3580
" />
<path d="M26.9250 5.8830
L27.6240 5.8830
" />
<path d="M26.9940 1.4840
L26.7540 1.4840
" />
<path d="M26.9940 1.4840
L27.1000 1.4840
" />
<path d="M26.9940 1.6490
L26.9940 1.4840
" />
<path d="M26.9940 1.6490
L26.9940 1.9860
" />
<path d="M26.9940 1.6490
L27.1000 1.6490
" />
<path d="M26.9940 1.9860
L26.7540 1.9860
" />
<path d="M26.9940 4.5200
L26.9940 4.1830
" />
<path d="M26.9940 4.6850
L26.9940 4.5200
" />
<path d="M26.9940 4.6850
L27.1000 4.6850
" />
<path d="M27.1000 1.2100
L27.1000 1.4600
" />
<path d="M27.1000 1.4840
L27.1000 1.4600
" />
<path d="M27.1000 1.4840
L27.1000 1.6490
" />
<path d="M27.1000 1.6490
L27.1000 2.7340
" />
<path d="M27.1000 2.7340
L26.6480 2.7340
" />
<path d="M27.1000 3.4350
L26.6480 3.4350
" />
<path d="M27.1000 3.4350
L27.1000 2.7340
" />
<path d="M27.1000 3.4350
L27.1000 4.5200
" />
<path d="M27.1000 4.5200
L26.9940 4.5200
" />
<path d="M27.1000 4.6850
L27.1000 4.5200
" />
<path d="M27.1000 4.6850
L27.1000 4.7090
" />
<path d="M27.1000 4.7090
L27.1000 4.9590
" />
<path d="M27.1000 4.9590
L26.6480 4.9590
" />
<path d="M27.4480 1.2100
L27.9000 1.2100
" />
<path d="M27.4480 1.4600
L27.1000 1.4600
" />
<path d="M27.4480 1.4600
L27.4480 1.2100
" />
<path d="M27.4480 1.4840
L27.4480 1.4600
" />
<path d="M27.4480 1.4840
L27.4480 1.6490
" />
<path d="M27.4480 1.6490
L27.4480 2.7340
" />
<path d="M27.4480 1.6490
L27.5540 1.6490
" />
<path d="M27.4480 2.7340
L27.4480 3.4350
" />
<path d="M27.4480 3.4350
L27.4480 4.5200
" />
<path d="M27.4480 4.6850
L27.4480 4.5200
" />
<path d="M27.4480 4.6850
L27.4480 4.7090
" />
<path d="M27.4480 4.7090
L27.1000 4.7090
" />
<path d="M27.4480 4.9590
L27.4480 4.7090
" />
<path d="M27.5540 1.4840
L27.4480 1.4840
" />
<path d="M27.5540 1.4840
L27.5540 1.6490
" />
<path d="M27.5540 1.6490
L27.5540 1.9860
" />
<path d="M27.5540 4.1830
L27.7940 4.1830
" />
<path d="M27.5540 4.5200
L27.4480 4.5200
" />
<path d="M27.5540 4.5200
L27.5540 4.1830
" />
<path d="M27.5540 4.5200
L27.5540 4.6850
" />
<path d="M27.5540 4.6850
L27.4480 4.6850
" />
<path d="M27.5540 4.6850
L27.7940 4.6850
" />
<path d="M27.6240 0.2840
L26.9250 0.2840
" />
<path d="M27.6240 0.2840
L27.6240 0.8110
" />
<path d="M27.6240 0.8110
L28.9250 0.8110
" />
<path d="M27.6240 5.3580
L27.6240 5.8830
" />
<path d="M27.7900 0.7500
L27.6240 0.7500
" />
<path d="M27.7900 0.8110
L27.7900 0.7500
" />
<path d="M27.7900 5.4190
L27.6240 5.4190
" />
<path d="M27.7900 5.4190
L27.7900 5.3580
" />
<path d="M27.7940 1.4840
L27.5540 1.4840
" />
<path d="M27.7940 1.4840
L27.9000 1.4840
" />
<path d="M27.7940 1.6490
L27.7940 1.4840
" />
<path d="M27.7940 1.6490
L27.7940 1.9860
" />
<path d="M27.7940 1.6490
L27.9000 1.6490
" />
<path d="M27.7940 1.9860
L27.5540 1.9860
" />
<path d="M27.7940 4.5200
L27.7940 4.1830
" />
<path d="M27.7940 4.6850
L27.7940 4.5200
" />
<path d="M27.7940 4.6850
L27.9000 4.6850
" />
<path d="M27.9000 1.2100
L27.9000 1.4600
" />
<path d="M27.9000 1.4840
L27.9000 1.4600
" />
<path d="M27.9000 1.4840
L27.9000 1.6490
" />
<path d="M27.9000 1.6490
L27.9000 2.7340
" />
<path d="M27.9000 2.7340
L27.4480 2.7340
" />
<path d="M27.9000 3.4350
L27.4480 3.4350
" />
<path d="M27.9000 3.4350
L27.9000 2.7340
" />
<path d="M27.9000 3.4350
L27.9000 4.5200
" />
<path d="M27.9000 4.5200
L27.7940 4.5200
" />
<path d="M27.9000 4.6850
L27.9000 4.5200
" />
<path d="M27.9000 4.6850
L27.9000 4.7090
" />
<path d="M27.9000 4.7090
L27.9000 4.9590
" />
<path d="M27.9000 4.9590
L27.4480 4.9590
" />
<path d="M28.2480 1.2100
L28.7000 1.2100
" />
<path d="M28.2480 1.4600
L27.9000 1.4600
" />
<path d="M28.2480 1.4600
L28.2480 1.2100
" />
<path d="M28.2480 1.4840
L28.2480 1.4600
" />
<path d="M28.2480 1.4840
L28.2480 1.6490
" />
<path d="M28.2480 1.6490
L28.2480 2.7340
" />
<path d="M28.2480 1.6490
L28.3540 1.6490
" />
<path d="M28.2480 2.7340
L28.2480 3.4350
" />
<path d="M28.2480 3.4350
L28.2480 4.5200
" />
<path d="M28.2480 4.6850
L28.2480 4.5200
" />
<path d="M28.2480 4.6850
L28.2480 4.7090
" />
<path d="M28.2480 4.7090
L27.9000 4.7090
" />
<path d="M28.2480 4.9590
L28.2480 4.7090
" />
<path d="M28.3540 1.4840
L28.2480 1.4840
" />
<path d="M28.3540 1.4840
L28.3540 1.6490
" />
<path d="M28.3540 1.6490
L28.3540 1.9860
" />
<path d="M28.3540 4.1830
L28.5940 4.1830
" />
<path d="M28.3540 4.5200
L28.2480 4.5200
" />
<path d="M28.3540 4.5200
L28.3540 4.1830
" />
<path d="M28.3540 4.5200
L28.3540 4.6850
" />
<path d="M28.3540 4.6850
L28.2480 4.6850
" />
<path d="M28.3540 4.6850
L28.5940 4.6850
" />
<path d="M28.3610 0.7500
L28.3610 0.8110
" />
<path d="M28.3610 5.3580
L28.3610 5.4190
" />
<path d="M28.5880 0.7500
L28.3610 0.7500
" />
<path d="M28.5880 0.8110
L28.5880 0.7500
" />
<path d="M28.5880 5.4190
L28.3610 5.4190
" />
<path d="M28.5880 5.4190
L28.5880 5.3580
" />
<path d="M28.5940 1.4840
L28.3540 1.4840
" />
<path d="M28.5940 1.4840
L28.7000 1.4840
" />
<path d="M28.5940 1.6490
L28.5940 1.4840
" />
<path d="M28.5940 1.6490
L28.5940 1.9860
" />
<path d="M28.5940 1.6490
L28.7000 1.6490
" />
<path d="M28.5940 1.9860
L28.3540 1.9860
" />
<path d="M28.5940 4.5200
L28.5940 4.1830
" />
<path d="M28.5940 4.6850
L28.5940 4.5200
" />
<path d="M28.5940 4.6850
L28.7000 4.6850
" />
<path d="M28.7000 1.2100
L28.7000 1.4600
" />
<path d="M28.7000 1.4840
L28.7000 1.4600
" />
<path d="M28.7000 1.4840
L28.7000 1.6490
" />
<path d="M28.7000 1.6490
L28.7000 2.7340
" />
<path d="M28.7000 2.7340
L28.2480 2.7340
" />
<path d="M28.7000 3.4350
L28.2480 3.4350
" />
<path d="M28.7000 3.4350
L28.7000 2.7340
" />
<path d="M28.7000 3.4350
L28.7000 4.5200
" />
<path d="M28.7000 4.5200
L28.5940 4.5200
" />
<path d="M28.7000 4.6850
L28.7000 4.5200
" />
<path d="M28.7000 4.6850
L28.7000 4.7090
" />
<path d="M28.7000 4.7090
L28.7000 4.9590
" />
<path d="M28.7000 4.9590
L28.2480 4.9590
" />
<path d="M28.9250 0.8110
L28.9250 0.2840
" />
<path d="M28.9250 5.3580
L27.6240 5.3580
" />
<path d="M28.9250 5.8830
L28.9250 5.3580
" />
<path d="M28.9250 5.8830
L29.6230 5.8830
" />
<path d="M29.0480 1.2100
L29.5000 1.2100
" />
<path d="M29.0480 1.4600
L28.7000 1.4600
" />
<path d="M29.0480 1.4600
L29.0480 1.2100
" />
<path d="M29.0480 1.4840
L29.0480 1.4600
" />
<path d="M29.0480 1.4840
L29.0480 1.6490
" />
<path d="M29.0480 1.6490
L29.0480 2.7340
" />
<path d="M29.0480 1.6490
L29.1540 1.6490
" />
<path d="M29.0480 2.7340
L29.0480 3.4350
" />
<path d="M29.0480 3.4350
L29.0480 4.5200
" />
<path d="M29.0480 4.6850
L29.0480 4.5200
" />
<path d="M29.0480 4.6850
L29.0480 4.7090
" />
<path d="M29.0480 4.7090
L28.7000 4.7090
" />
<path d="M29.0480 4.9590
L29.0480 4.7090
" />
<path d="M29.1540 1.4840
L29.0480 1.4840
" />
<path d="M29.1540 1.4840
L29.1540 1.6490
" />
<path d="M29.1540 1.6490
L29.1540 1.9860
" />
<path d="M29.1540 4.1830
L29.3940 4.1830
" />
<path d="M29.1540 4.5200
L29.0480 4.5200
" />
<path d="M29.1540 4.5200
L29.1540 4.1830
" />
<path d="M29.1540 4.5200
L29.1540 4.6850
" />
<path d="M29.1540 4.6850
L29.0480 4.6850
" />
<path d="M29.1540 4.6850
L29.3940 4.6850
" />
<path d="M29.3940 1.4840
L29.1540 1.4840
" />
<path d="M29.3940 1.4840
L29.5000 1.4840
" />
<path d="M29.3940 1.6490
L29.3940 1.4840
" />
<path d="M29.3940 1.6490
L29.3940 1.9860
" />
<path d="M29.3940 1.6490
L29.5000 1.6490
" />
<path d="M29.3940 1.9860
L29.1540 1.9860
" />
<path d="M29.3940 4.5200
L29.3940 4.1830
" />
<path d="M29.3940 4.6850
L29.3940 4.5200
" />
<path d="M29.3940 4.6850
L29.5000 4.6850
" />
<path d="M29.5000 1.2100
L29.5000 1.4600
" />
<path d="M29.5000 1.4840
L29.5000 1.4600
" />
<path d="M29.5000 1.4840
L29.5000 1.6490
" />
<path d="M29.5000 1.6490
L29.5000 2.7340
" />
<path d="M29.5000 2.7340
L29.0480 2.7340
" />
<path d="M29.5000 3.4350
L29.0480 3.4350
" />
<path d="M29.5000 3.4350
L29.5000 2.7340
" />
<path d="M29.5000 3.4350
L29.5000 4.5200
" />
<path d="M29.5000 4.5200
L29.3940 4.5200
" />
<path d="M29.5000 4.6850
L29.5000 4.5200
" />
<path d="M29.5000 4.6850
L29.5000 4.7090
" />
<path d="M29.5000 4.7090
L29.5000 4.9590
" />
<path d="M29.5000 4.9590
L29.0480 4.9590
" />
<path d="M29.6230 0.2840
L28.9250 0.2840
" />
<path d="M29.6230 0.2840
L29.6230 0.8110
" />
<path d="M29.6230 0.8110
L30.9250 0.8110
" />
<path d="M29.6230 5.3580
L29.6230 5.8830
" />
<path d="M29.8480 1.2100
L30.3000 1.2100
" />
<path d="M29.8480 1.4600
L29.5000 1.4600
" />
<path d="M29.8480 1.4600
L29.8480 1.2100
" />
<path d="M29.8480 1.4840
L29.8480 1.4600
" />
<path d="M29.8480 1.4840
L29.8480 1.6490
" />
<path d="M29.8480 1.6490
L29.8480 2.7340
" />
<path d="M29.8480 1.6490
L29.9540 1.6490
" />
<path d="M29.8480 2.7340
L29.8480 3.4350
" />
<path d="M29.8480 3.4350
L29.8480 4.5200
" />
<path d="M29.8480 4.6850
L29.8480 4.5200
" />
<path d="M29.8480 4.6850
L29.8480 4.7090
" />
<path d="M29.8480 4.7090
L29.5000 4.7090
" />
<path d="M29.8480 4.9590
L29.8480 4.7090
" />
<path d="M29.9540 1.4840
L29.8480 1.4840
" />
<path d="M29.9540 1.4840
L29.9540 1.6490
" />
<path d="M29.9540 1.6490
L29.9540 1.9860
" />
<path d="M29.9540 4.1830
L30.1940 4.1830
" />
<path d="M29.9540 4.5200
L29.8480 4.5200
" />
<path d="M29.9540 4.5200
L29.9540 4.1830
" />
<path d="M29.9540 4.5200
L29.9540 4.6850
" />
<path d="M29.9540 4.6850
L29.8480 4.6850
" />
<path d="M29.9540 4.6850
L30.1940 4.6850
" />
<path d="M29.9600 0.7500
L29.9600 0.8110
" />
<path d="M29.9600 5.3580
L29.9600 5.4190
" />
<path d="M30.1880 0.7500
L29.9600 0.7500
" />
<path d="M30.1880 0.8110
L30.1880 0.7500
" />
<path d="M30.1880 5.4190
L29.9600 5.4190
" />
<path d="M30.1880 5.4190
L30.1880 5.3580
" />
<path d="M30.1940 1.4840
L29.9540 1.4840
" />
<path d="M30.1940 1.4840
L30.3000 1.4840
" />
<path d="M30.1940 1.6490
L30.1940 1.4840
" />
<path d="M30.1940 1.6490
L30.1940 1.9860
" />
<path d="M30.1940 1.6490
L30.3000 1.6490
" />
<path d="M30.1940 1.9860
L29.9540 1.9860
" />
<path d="M30.1940 4.5200
L30.1940 4.1830
" />
<path d="M30.1940 4.6850
L30.1940 4.5200
" />
<path d="M30.1940 4.6850
L30.3000 4.6850
" />
<path d="M30.3000 1.2100
L30.3000 1.4600
" />
<path d="M30.3000 1.4840
L30.3000 1.4600
" />
<path d="M30.3000 1.4840
L30.3000 1.6490
" />
<path d="M30.3000 1.6490
L30.3000 2.7340
" />
<path d="M30.3000 2.7340
L29.8480 2.7340
" />
<path d="M30.3000 3.4350
L29.8480 3.4350
" />
<path d="M30.3000 3.4350
L30.3000 2.7340
" />
<path d="M30.3000 3.4350
L30.3000 4.5200
" />
<path d="M30.3000 4.5200
L30.1940 4.5200
" />
<path d="M30.3000 4.6850
L30.3000 4.5200
" />
<path d="M30.3000 4.6850
L30.3000 4.7090
" />
<path d="M30.3000 4.7090
L30.3000 4.9590
" />
<path d="M30.3000 4.9590
L29.8480 4.9590
" />
<path d="M30.6480 1.2100
L31.1000 1.2100
" />
<path d="M30.6480 1.4600
L30.3000 1.4600
" />
<path d="M30.6480 1.4600
L30.6480 1.2100
" />
<path d="M30.6480 1.4840
L30.6480 1.4600
" />
<path d="M30.6480 1.4840
L30.6480 1.6490
" />
<path d="M30.6480 1.6490
L30.6480 2.7340
" />
<path d="M30.6480 1.6490
L30.7540 1.6490
" />
<path d="M30.6480 2.7340
L30.6480 3.4350
" />
<path d="M30.6480 3.4350
L30.6480 4.5200
" />
<path d="M30.6480 4.6850
L30.6480 4.5200
" />
<path d="M30.6480 4.6850
L30.6480 4.7090
" />
<path d="M30.6480 4.7090
L30.3000 4.7090
" />
<path d="M30.6480 4.9590
L30.6480 4.7090
" />
<path d="M30.7540 1.4840
L30.6480 1.4840
" />
<path d="M30.7540 1.4840
L30.7540 1.6490
" />
<path d="M30.7540 1.6490
L30.7540 1.9860
" />
<path d="M30.7540 4.1830
L30.9940 4.1830
" />
<path d="M30.7540 4.5200
L30.6480 4.5200
" />
<path d="M30.7540 4.5200
L30.7540 4.1830
" />
<path d="M30.7540 4.5200
L30.7540 4.6850
" />
<path d="M30.7540 4.6850
L30.6480 4.6850
" />
<path d="M30.7540 4.6850
L30.9940 4.6850
" />
<path d="M30.7580 0.7500
L30.7580 0.8110
" />
<path d="M30.7580 5.3580
L30.7580 5.4190
" />
<path d="M30.9250 0.7500
L30.7580 0.7500
" />
<path d="M30.9250 0.8110
L30.9250 0.2840
" />
<path d="M30.9250 5.3580
L29.6230 5.3580
" />
<path d="M30.9250 5.4190
L30.7580 5.4190
" />
<path d="M30.9250 5.8830
L30.9250 5.3580
" />
<path d="M30.9250 5.8830
L31.6230 5.8830
" />
<path d="M30.9940 1.4840
L30.7540 1.4840
" />
<path d="M30.9940 1.4840
L31.1000 1.4840
" />
<path d="M30.9940 1.6490
L30.9940 1.4840
" />
<path d="M30.9940 1.6490
L30.9940 1.9860
" />
<path d="M30.9940 1.6490
L31.1000 1.6490
" />
<path d="M30.9940 1.9860
L30.7540 1.9860
" />
<path d="M30.9940 4.5200
L30.9940 4.1830
" />
<path d="M30.9940 4.6850
L30.9940 4.5200
" />
<path d="M30.9940 4.6850
L31.1000 4.6850
" />
<path d="M31.1000 1.2100
L31.1000 1.4600
" />
<path d="M31.1000 1.4840
L31.1000 1.4600
" />
<path d="M31.1000 1.4840
L31.1000 1.6490
" />
<path d="M31.1000 1.6490
L31.1000 2.7340
" />
<path d="M31.1000 2.7340
L30.6480 2.7340
" />
<path d="M31.1000 3.4350
L30.6480 3.4350
" />
<path d="M31.1000 3.4350
L31.1000 2.7340
" />
<path d="M31.1000 3.4350
L31.1000 4.5200
" />
<path d="M31.1000 4.5200
L30.9940 4.5200
" />
<path d="M31.1000 4.6850
L31.1000 4.5200
" />
<path d="M31.1000 4.6850
L31.1000 4.7090
" />
<path d="M31.1000 4.7090
L31.1000 4.9590
" />
<path d="M31.1000 4.9590
L30.6480 4.9590
" />
<path d="M31.4480 1.2100
L31.9000 1.2100
" />
<path d="M31.4480 1.4600
L31.1000 1.4600
" />
<path d="M31.4480 1.4600
L31.4480 1.2100
" />
<path d="M31.4480 1.4840
L31.4480 1.4600
" />
<path d="M31.4480 1.4840
L31.4480 1.6490
" />
<path d="M31.4480 1.6490
L31.4480 2.7340
" />
<path d="M31.4480 1.6490
L31.5540 1.6490
" />
<path d="M31.4480 2.7340
L31.4480 3.4350
" />
<path d="M31.4480 3.4350
L31.4480 4.5200
" />
<path d="M31.4480 4.6850
L31.4480 4.5200
" />
<path d="M31.4480 4.6850
L31.4480 4.7090
" />
<path d="M31.4480 4.7090
L31.1000 4.7090
" />
<path d="M31.4480 4.9590
L31.4480 4.7090
" />
<path d="M31.5540 1.4840
L31.4480 1.4840
" />
<path d="M31.5540 1.4840
L31.5540 1.6490
" />
<path d="M31.5540 1.6490
L31.5540 1.9860
" />
<path d="M31.5540 4.1830
L31.7940 4.1830
" />
<path d="M31.5540 4.5200
L31.4480 4.5200
" />
<path d="M31.5540 4.5200
L31.5540 4.1830
" />
<path d="M31.5540 4.5200
L31.5540 4.6850
" />
<path d="M31.5540 4.6850
L31.4480 4.6850
" />
<path d="M31.5540 4.6850
L31.7940 4.6850
" />
<path d="M31.6230 0.2840
L30.9250 0.2840
" />
<path d="M31.6230 0.2840
L31.6230 0.8110
" />
<path d="M31.6230 0.8110
L32.9250 0.8110
" />
<path d="M31.6230 5.3580
L31.6230 5.8830
" />
<path d="M31.7900 0.7500
L31.6230 0.7500
" />
<path d="M31.7900 0.8110
L31.7900 0.7500
" />
<path d="M31.7900 5.4190
L31.6230 5.4190
" />
<path d="M31.7900 5.4190
L31.7900 5.3580
" />
<path d="M31.7940 1.4840
L31.5540 1.4840
" />
<path d="M31.7940 1.4840
L31.9000 1.4840
" />
<path d="M31.7940 1.6490
L31.7940 1.4840
" />
<path d="M31.7940 1.6490
L31.7940 1.9860
" />
<path d="M31.7940 1.6490
L31.9000 1.6490
" />
<path d="M31.7940 1.9860
L31.5540 1.9860
" />
<path d="M31.7940 4.5200
L31.7940 4.1830
" />
<path d="M31.7940 4.6850
L31.7940 4.5200
" />
<path d="M31.7940 4.6850
L31.9000 4.6850
" />
<path d="M31.9000 1.2100
L31.9000 1.4600
" />
<path d="M31.9000 1.4840
L31.9000 1.4600
" />
<path d="M31.9000 1.4840
L31.9000 1.6490
" />
<path d="M31.9000 1.6490
L31.9000 2.7340
" />
<path d="M31.9000 2.7340
L31.4480 2.7340
" />
<path d="M31.9000 3.4350
L31.4480 3.4350
" />
<path d="M31.9000 3.4350
L31.9000 2.7340
" />
<path d="M31.9000 3.4350
L31.9000 4.5200
" />
<path d="M31.9000 4.5200
L31.7940 4.5200
" />
<path d="M31.9000 4.6850
L31.9000 4.5200
" />
<path d="M31.9000 4.6850
L31.9000 4.7090
" />
<path d="M31.9000 4.7090
L31.9000 4.9590
" />
<path d="M31.9000 4.9590
L31.4480 4.9590
" />
<path d="M32.2480 1.2100
L32.7000 1.2100
" />
<path d="M32.2480 1.4600
L31.9000 1.4600
" />
<path d="M32.2480 1.4600
L32.2480 1.2100
" />
<path d="M32.2480 1.4840
L32.2480 1.4600
" />
<path d="M32.2480 1.4840
L32.2480 1.6490
" />
<path d="M32.2480 1.6490
L32.2480 2.7340
" />
<path d="M32.2480 1.6490
L32.3540 1.6490
" />
<path d="M32.2480 2.7340
L32.2480 3.4350
" />
<path d="M32.2480 3.4350
L32.2480 4.5200
" />
<path d="M32.2480 4.6850
L32.2480 4.5200
" />
<path d="M32.2480 4.6850
L32.2480 4.7090
" />
<path d="M32.2480 4.7090
L31.9000 4.7090
" />
<path d="M32.2480 4.9590
L32.2480 4.7090
" />
<path d="M32.3540 1.4840
L32.2480 1.4840
" />
<path d="M32.3540 1.4840
L32.3540 1.6490
" />
<path d="M32.3540 1.6490
L32.3540 1.9860
" />
<path d="M32.3540 4.1830
L32.5940 4.1830
" />
<path d="M32.3540 4.5200
L32.2480 4.5200
" />
<path d="M32.3540 4.5200
L32.3540 4.1830
" />
<path d="M32.3540 4.5200
L32.3540 4.6850
" />
<path d="M32.3540 4.6850
L32.2480 4.6850
" />
<path d="M32.3540 4.6850
L32.5940 4.6850
" />
<path d="M32.3610 0.7500
L32.3610 0.8110
" />
<path d="M32.3610 5.3580
L32.3610 5.4190
" />
<path d="M32.5880 0.7500
L32.3610 0.7500
" />
<path d="M32.5880 0.8110
L32.5880 0.7500
" />
<path d="M32.5880 5.4190
L32.3610 5.4190
" />
<path d="M32.5880 5.4190
L32.5880 5.3580
" />
<path d="M32.5940 1.4840
L32.3540 1.4840
" />
<path d="M32.5940 1.4840
L32.7000 1.4840
" />
<path d="M32.5940 1.6490
L32.5940 1.4840
" />
<path d="M32.5940 1.6490
L32.5940 1.9860
" />
<path d="M32.5940 1.6490
L32.7000 1.6490
" />
<path d="M32.5940 1.9860
L32.3540 1.9860
" />
<path d="M32.5940 4.5200
L32.5940 4.1830
" />
<path d="M32.5940 4.6850
L32.5940 4.5200
" />
<path d="M32.5940 4.6850
L32.7000 4.6850
" />
<path d="M32.7000 1.2100
L32.7000 1.4600
" />
<path d="M32.7000 1.4840
L32.7000 1.4600
" />
<path d="M32.7000 1.4840
L32.7000 1.6490
" />
<path d="M32.7000 1.6490
L32.7000 2.7340
" />
<path d="M32.7000 2.7340
L32.2480 2.7340
" />
<path d="M32.7000 3.4350
L32.2480 3.4350
" />
<path d="M32.7000 3.4350
L32.7000 2.7340
" />
<path d="M32.7000 3.4350
L32.7000 4.5200
" />
<path d="M32.7000 4.5200
L32.5940 4.5200
" />
<path d="M32.7000 4.6850
L32.7000 4.5200
" />
<path d="M32.7000 4.6850
L32.7000 4.7090
" />
<path d="M32.7000 4.7090
L32.7000 4.9590
" />
<path d="M32.7000 4.9590
L32.2480 4.9590
" />
<path d="M32.9250 0.8110
L32.9250 0.2840
" />
<path d="M32.9250 5.3580
L31.6230 5.3580
" />
<path d="M32.9250 5.8830
L32.9250 5.3580
" />
<path d="M32.9250 5.8830
L33.6230 5.8830
" />
<path d="M33.0480 1.2100
L33.5000 1.2100
" />
<path d="M33.0480 1.4600
L32.7000 1.4600
" />
<path d="M33.0480 1.4600
L33.0480 1.2100
" />
<path d="M33.0480 1.4840
L33.0480 1.4600
" />
<path d="M33.0480 1.4840
L33.0480 1.6490
" />
<path d="M33.0480 1.6490
L33.0480 2.7340
" />
<path d="M33.0480 1.6490
L33.1540 1.6490
" />
<path d="M33.0480 2.7340
L33.0480 3.4350
" />
<path d="M33.0480 3.4350
L33.0480 4.5200
" />
<path d="M33.0480 4.6850
L33.0480 4.5200
" />
<path d="M33.0480 4.6850
L33.0480 4.7090
" />
<path d="M33.0480 4.7090
L32.7000 4.7090
" />
<path d="M33.0480 4.9590
L33.0480 4.7090
" />
<path d="M33.1540 1.4840
L33.0480 1.4840
" />
<path d="M33.1540 1.4840
L33.1540 1.6490
" />
<path d="M33.1540 1.6490
L33.1540 1.9860
" />
<path d="M33.1540 4.1830
L33.3940 4.1830
" />
<path d="M33.1540 4.5200
L33.0480 4.5200
" />
<path d="M33.1540 4.5200
L33.1540 4.1830
" />
<path d="M33.1540 4.5200
L33.1540 4.6850
" />
<path d="M33.1540 4.6850
L33.0480 4.6850
" />
<path d="M33.1540 4.6850
L33.3940 4.6850
" />
<path d="M33.3940 1.4840
L33.1540 1.4840
" />
<path d="M33.3940 1.4840
L33.5000 1.4840
" />
<path d="M33.3940 1.6490
L33.3940 1.4840
" />
<path d="M33.3940 1.6490
L33.3940 1.9860
" />
<path d="M33.3940 1.6490
L33.5000 1.6490
" />
<path d="M33.3940 1.9860
L33.1540 1.9860
" />
<path d="M33.3940 4.5200
L33.3940 4.1830
" />
<path d="M33.3940 4.6850
L33.3940 4.5200
" />
<path d="M33.3940 4.6850
L33.5000 4.6850
" />
<path d="M33.5000 1.2100
L33.5000 1.4600
" />
<path d="M33.5000 1.4840
L33.5000 1.4600
" />
<path d="M33.5000 1.4840
L33.5000 1.6490
" />
<path d="M33.5000 1.6490
L33.5000 2.7340
" />
<path d="M33.5000 2.7340
L33.0480 2.7340
" />
<path d="M33.5000 3.4350
L33.0480 3.4350
" />
<path d="M33.5000 3.4350
L33.5000 2.7340
" />
<path d="M33.5000 3.4350
L33.5000 4.5200
" />
<path d="M33.5000 4.5200
L33.3940 4.5200
" />
<path d="M33.5000 4.6850
L33.5000 4.5200
" />
<path d="M33.5000 4.6850
L33.5000 4.7090
" />
<path d="M33.5000 4.7090
L33.5000 4.9590
" />
<path d="M33.5000 4.9590
L33.0480 4.9590
" />
<path d="M33.6230 0.2840
L32.9250 0.2840
" />
<path d="M33.6230 0.2840
L33.6230 0.8110
" />
<path d="M33.6230 0.8110
L34.9250 0.8110
" />
<path d="M33.6230 5.3580
L33.6230 5.8830
" />
<path d="M33.8480 1.2100
L34.3000 1.2100
" />
<path d="M33.8480 1.4600
L33.5000 1.4600
" />
<path d="M33.8480 1.4600
L33.8480 1.2100
" />
<path d="M33.8480 1.4840
L33.8480 1.4600
" />
<path d="M33.8480 1.4840
L33.8480 1.6490
" />
<path d="M33.8480 1.6490
L33.8480 2.7340
" />
<path d="M33.8480 1.6490
L33.9540 1.6490
" />
<path d="M33.8480 2.7340
L33.8480 3.4350
" />
<path d="M33.8480 3.4350
L33.8480 4.5200
" />
<path d="M33.8480 4.6850
L33.8480 4.5200
" />
<path d="M33.8480 4.6850
L33.8480 4.7090
" />
<path d="M33.8480 4.7090
L33.5000 4.7090
" />
<path d="M33.8480 4.9590
L33.8480 4.7090
" />
<path d="M33.9540 1.4840
L33.8480 1.4840
" />
<path d="M33.9540 1.4840
L33.9540 1.6490
" />
<path d="M33.9540 1.6490
L33.9540 1.9860
" />
<path d="M33.9540 4.1830
L34.1940 4.1830
" />
<path d="M33.9540 4.5200
L33.8480 4.5200
" />
<path d="M33.9540 4.5200
L33.9540 4.1830
" />
<path d="M33.9540 4.5200
L33.9540 4.6850
" />
<path d="M33.9540 4.6850
L33.8480 4.6850
" />
<path d="M33.9540 4.6850
L34.1940 4.6850
" />
<path d="M33.9600 0.7500
L33.9600 0.8110
" />
<path d="M33.9600 5.3580
L33.9600 5.4190
" />
<path d="M34.1870 0.7500
L33.9600 0.7500
" />
<path d="M34.1870 0.8110
L34.1870 0.7500
" />
<path d="M34.1870 5.4190
L33.9600 5.4190
" />
<path d="M34.1870 5.4190
L34.1870 5.3580
" />
<path d="M34.1940 1.4840
L33.9540 1.4840
" />
<path d="M34.1940 1.4840
L34.3000 1.4840
" />
<path d="M34.1940 1.6490
L34.1940 1.4840
" />
<path d="M34.1940 1.6490
L34.1940 1.9860
" />
<path d="M34.1940 1.6490
L34.3000 1.6490
" />
<path d="M34.1940 1.9860
L33.9540 1.9860
" />
<path d="M34.1940 4.5200
L34.1940 4.1830
" />
<path d="M34.1940 4.6850
L34.1940 4.5200
" />
<path d="M34.1940 4.6850
L34.3000 4.6850
" />
<path d="M34.3000 1.2100
L34.3000 1.4600
" />
<path d="M34.3000 1.4840
L34.3000 1.4600
" />
<path d="M34.3000 1.4840
L34.3000 1.6490
" />
<path d="M34.3000 1.6490
L34.3000 2.7340
" />
<path d="M34.3000 2.7340
L33.8480 2.7340
" />
<path d="M34.3000 3.4350
L33.8480 3.4350
" />
<path d="M34.3000 3.4350
L34.3000 2.7340
" />
<path d="M34.3000 3.4350
L34.3000 4.5200
" />
<path d="M34.3000 4.5200
L34.1940 4.5200
" />
<path d="M34.3000 4.6850
L34.3000 4.5200
" />
<path d="M34.3000 4.6850
L34.3000 4.7090
" />
<path d="M34.3000 4.7090
L34.3000 4.9590
" />
<path d="M34.3000 4.9590
L33.8480 4.9590
" />
<path d="M34.6480 1.2100
L35.1000 1.2100
" />
<path d="M34.6480 1.4600
L34.3000 1.4600
" />
<path d="M34.6480 1.4600
L34.6480 1.2100
" />
<path d="M34.6480 1.4840
L34.6480 1.4600
" />
<path d="M34.6480 1.4840
L34.6480 1.6490
" />
<path d="M34.6480 1.6490
L34.6480 2.7340
" />
<path d="M34.6480 1.6490
L34.7540 1.6490
" />
<path d="M34.6480 2.7340
L34.6480 3.4350
" />
<path d="M34.6480 3.4350
L34.6480 4.5200
" />
<path d="M34.6480 4.6850
L34.6480 4.5200
" />
<path d="M34.6480 4.6850
L34.6480 4.7090
" />
<path d="M34.6480 4.7090
L34.3000 4.7090
" />
<path d="M34.6480 4.9590
L34.6480 4.7090
" />
<path d="M34.7540 1.4840
L34.6480 1.4840
" />
<path d="M34.7540 1.4840
L34.7540 1.6490
" />
<path d="M34.7540 1.6490
L34.7540 1.9860
" />
<path d="M34.7540 4.1830
L34.9940 4.1830
" />
<path d="M34.7540 4.5200
L34.6480 4.5200
" />
<path d="M34.7540 4.5200
L34.7540 4.1830
" />
<path d="M34.7540 4.5200
L34.7540 4.6850
" />
<path d="M34.7540 4.6850
L34.6480 4.6850
" />
<path d="M34.7540 4.6850
L34.9940 4.6850
" />
<path d="M34.7580 0.7500
L34.7580 0.8110
" />
<path d="M34.7580 5.3580
L34.7580 5.4190
" />
<path d="M34.9250 0.7500
L34.7580 0.7500
" />
<path d="M34.9250 0.8110
L34.9250 0.2840
" />
<path d="M34.9250 5.3580
L33.6230 5.3580
" />
<path d="M34.9250 5.4190
L34.7580 5.4190
" />
<path d="M34.9250 5.8830
L34.9250 5.3580
" />
<path d="M34.9250 5.8830
L38.2730 5.8830
" />
<path d="M34.9940 1.4840
L34.7540 1.4840
" />
<path d="M34.9940 1.4840
L35.1000 1.4840
" />
<path d="M34.9940 1.6490
L34.9940 1.4840
" />
<path d="M34.9940 1.6490
L34.9940 1.9860
" />
<path d="M34.9940 1.6490
L35.1000 1.6490
" />
<path d="M34.9940 1.9860
L34.7540 1.9860
" />
<path d="M34.9940 4.5200
L34.9940 4.1830
" />
<path d="M34.9940 4.6850
L34.9940 4.5200
" />
<path d="M34.9940 4.6850
L35.1000 4.6850
" />
<path d="M35.1000 1.2100
L35.1000 1.4600
" />
<path d="M35.1000 1.4840
L35.1000 1.4600
" />
<path d="M35.1000 1.4840
L35.1000 1.6490
" />
<path d="M35.1000 1.6490
L35.1000 2.7340
" />
<path d="M35.1000 2.7340
L34.6480 2.7340
" />
<path d="M35.1000 3.4350
L34.6480 3.4350
" />
<path d="M35.1000 3.4350
L35.1000 2.7340
" />
<path d="M35.1000 3.4350
L35.1000 4.5200
" />
<path d="M35.1000 4.5200
L34.9940 4.5200
" />
<path d="M35.1000 4.6850
L35.1000 4.5200
" />
<path d="M35.1000 4.6850
L35.1000 4.7090
" />
<path d="M35.1000 4.7090
L35.1000 4.9590
" />
<path d="M35.1000 4.9590
L34.6480 4.9590
" />
<path d="M35.6340 1.4600
L35.1000 1.4600
" />
<path d="M35.6340 4.7090
L35.1000 4.7090
" />
<path d="M35.6340 4.7090
L35.6340 1.4600
" />
<path d="M35.7380 1.4600
L35.6340 1.4600
" />
<path d="M35.7380 1.4600
L36.0730 2.2850
" />
<path d="M35.7380 1.4600
L36.2240 1.4600
" />
<path d="M35.7380 4.7090
L35.6340 4.7090
" />
<path d="M35.7380 4.7090
L37.1160 4.7090
" />
<path d="M36.0730 2.2850
L36.2730 2.2850
" />
<path d="M36.0730 3.8840
L35.7380 4.7090
" />
<path d="M36.0730 3.8840
L36.0730 2.2850
" />
<path d="M36.2730 2.2850
L36.6660 1.9010
" />
<path d="M36.2730 3.8840
L36.0730 3.8840
" />
<path d="M36.2730 3.8840
L36.2730 2.2850
" />
<path d="M36.6660 1.9010
L36.2240 1.4600
" />
<path d="M37.1160 4.7090
L36.2730 3.8840
" />
<path d="M37.3750 2.6090
L36.6660 1.9010
" />
<path d="M37.3750 4.7090
L37.1160 4.7090
" />
<path d="M37.3750 4.7090
L37.3750 2.6090
" />
<path d="M38.1740 2.0860
L38.2730 2.0860
" />
<path d="M38.1740 4.0830
L38.1740 2.0860
" />
<path d="M38.2730 0.2840
L34.9250 0.2840
" />
<path d="M38.2730 2.0860
L38.2730 0.2840
" />
<path d="M38.2730 4.0830
L38.1740 4.0830
" />
<path d="M38.2730 5.8830
L38.2730 4.0830
" />
</g> 
</svg>
