{
  "accessors": [
    {
      "bufferView": 0,
      "byteOffset": 0,
      "componentType": 5126,
      "normalized": false,
      "count": 2016,
      "type": "VEC3",
      "max": [
        3.0,
        0.7999832034111023,
        2.0
      ],
      "min": [
        -3.0,
        0.02539980225265026,
        -2.0
      ]
    },
    {
      "bufferView": 0,
      "byteOffset": 12,
      "componentType": 5126,
      "normalized": false,
      "count": 2016,
      "type": "VEC3"
    },
    {
      "bufferView": 0,
      "byteOffset": 24,
      "componentType": 5126,
      "normalized": false,
      "count": 2016,
      "type": "VEC2"
    },
    {
      "bufferView": 0,
      "byteOffset": 32,
      "componentType": 5126,
      "normalized": false,
      "count": 2016,
      "type": "VEC2"
    },
    {
      "bufferView": 1,
      "byteOffset": 0,
      "componentType": 5123,
      "normalized": false,
      "count": 5268,
      "type": "SCALAR"
    },
    {
      "bufferView": 1,
      "byteOffset": 10536,
      "componentType": 5123,
      "normalized": false,
      "count": 4566,
      "type": "SCALAR"
    },
    {
      "bufferView": 1,
      "byteOffset": 19668,
      "componentType": 5123,
      "normalized": false,
      "count": 6,
      "type": "SCALAR"
    },
    {
      "bufferView": 2,
      "byteOffset": 0,
      "componentType": 5126,
      "normalized": false,
      "count": 1942,
      "type": "VEC3",
      "max": [
        3.009999990463257,
        0.1998947262763977,
        2.0099475383758545
      ],
      "min": [
        -3.009999990463257,
        -3.0305173481792735e-07,
        -2.009999990463257
      ]
    },
    {
      "bufferView": 2,
      "byteOffset": 12,
      "componentType": 5126,
      "normalized": false,
      "count": 1942,
      "type": "VEC3"
    },
    {
      "bufferView": 2,
      "byteOffset": 24,
      "componentType": 5126,
      "normalized": false,
      "count": 1942,
      "type": "VEC2"
    },
    {
      "bufferView": 2,
      "byteOffset": 32,
      "componentType": 5126,
      "normalized": false,
      "count": 1942,
      "type": "VEC2"
    },
    {
      "bufferView": 3,
      "byteOffset": 0,
      "componentType": 5126,
      "normalized": false,
      "count": 4,
      "type": "VEC3",
      "max": [
        3.0,
        0.7999995946884155,
        2.0
      ],
      "min": [
        -3.0,
        0.7999995946884155,
        -2.0
      ]
    },
    {
      "bufferView": 3,
      "byteOffset": 12,
      "componentType": 5126,
      "normalized": false,
      "count": 4,
      "type": "VEC3"
    },
    {
      "bufferView": 3,
      "byteOffset": 24,
      "componentType": 5126,
      "normalized": false,
      "count": 4,
      "type": "VEC2"
    },
    {
      "bufferView": 3,
      "byteOffset": 32,
      "componentType": 5126,
      "normalized": false,
      "count": 4,
      "type": "VEC2"
    }
  ],
  "asset": {
    "generator": "pygltflib@v1.16.5",
    "version": "2.0"
  },
  "bufferViews": [
    {
      "buffer": 0,
      "byteOffset": 0,
      "byteLength": 80640,
      "byteStride": 40,
      "target": 34962
    },
    {
      "buffer": 0,
      "byteOffset": 80640,
      "byteLength": 19680,
      "target": 34963
    },
    {
      "buffer": 0,
      "byteOffset": 100320,
      "byteLength": 77680,
      "byteStride": 40,
      "target": 34962
    },
    {
      "buffer": 0,
      "byteOffset": 178000,
      "byteLength": 160,
      "byteStride": 40,
      "target": 34962
    }
  ],
  "buffers": [
    {
      "uri": "WQFN-40_1EP_6x3mm_Pitch0.4mm_EP4.7x2.7mm-texas-instruments-tusb1046-dcirnqt.bin",
      "byteLength": 178160
    }
  ],
  "extensionsUsed": [
    "KHR_materials_ior",
    "KHR_materials_specular",
    "KHR_texture_basisu"
  ],
  "extensionsRequired": [
    "KHR_texture_basisu"
  ],
  "images": [
    {
      "uri": "texas-instruments-tusb1046-dcirnqt-marking_normal.ktx2",
      "mimeType": "image/ktx2",
      "name": "texas-instruments-tusb1046-dcirnqt-marking_normal"
    },
    {
      "uri": "texas-instruments-tusb1046-dcirnqt-marking_color.ktx2",
      "mimeType": "image/ktx2",
      "name": "texas-instruments-tusb1046-dcirnqt-marking_color"
    },
    {
      "uri": "texas-instruments-tusb1046-dcirnqt-marking_metallic_roughness.ktx2",
      "mimeType": "image/ktx2",
      "name": "texas-instruments-tusb1046-dcirnqt-marking_metallic_roughness"
    }
  ],
  "materials": [
    {
      "pbrMetallicRoughness": {
        "baseColorFactor": [
          0.009133999235928059,
          0.009134066291153431,
          0.009134061634540558,
          1.0
        ],
        "metallicFactor": 0.13699999451637268,
        "roughnessFactor": 0.37063413858413696
      },
      "emissiveFactor": [
        0.0,
        0.0,
        0.0
      ],
      "alphaMode": "OPAQUE",
      "doubleSided": true,
      "name": "gltf_plastic_chip"
    },
    {
      "extensions": {
        "KHR_materials_ior": {
          "ior": 1.4500000476837158
        },
        "KHR_materials_specular": {
          "specularFactor": 0
        }
      },
      "pbrMetallicRoughness": {
        "baseColorFactor": [
          0.5394713282585144,
          0.5457167029380798,
          0.5775790810585022,
          1.0
        ],
        "metallicFactor": 0.7818182110786438,
        "roughnessFactor": 0.28863638639450073
      },
      "emissiveFactor": [
        0.0,
        0.0,
        0.0
      ],
      "alphaMode": "OPAQUE",
      "doubleSided": true,
      "name": "gltf_metal_pins"
    },
    {
      "pbrMetallicRoughness": {
        "baseColorFactor": [
          1.0,
          1.0,
          1.0,
          1.0
        ],
        "metallicFactor": 1.0,
        "roughnessFactor": 1.0,
        "baseColorTexture": {
          "index": 0,
          "texCoord": 1
        },
        "metallicRoughnessTexture": {
          "index": 2,
          "texCoord": 1
        }
      },
      "normalTexture": {
        "index": 1,
        "texCoord": 1,
        "scale": 1.0
      },
      "emissiveFactor": [
        0.0,
        0.0,
        0.0
      ],
      "alphaMode": "OPAQUE",
      "doubleSided": true,
      "name": "gltf_texas-instruments-tusb1046-dcirnqt-marking"
    }
  ],
  "meshes": [
    {
      "primitives": [
        {
          "attributes": {
            "POSITION": 0,
            "NORMAL": 1,
            "TEXCOORD_0": 2,
            "TEXCOORD_1": 3
          },
          "indices": 4,
          "mode": 4,
          "material": 0
        },
        {
          "attributes": {
            "POSITION": 7,
            "NORMAL": 8,
            "TEXCOORD_0": 9,
            "TEXCOORD_1": 10
          },
          "indices": 5,
          "mode": 4,
          "material": 1
        },
        {
          "attributes": {
            "POSITION": 11,
            "NORMAL": 12,
            "TEXCOORD_0": 13,
            "TEXCOORD_1": 14
          },
          "indices": 6,
          "mode": 4,
          "material": 2
        }
      ],
      "name": "SHAPE_9_IndexedFaceSet.001"
    }
  ],
  "nodes": [
    {
      "extras": {
        "REF": "U",
        "model_diagonal": 7.282911552745926
      },
      "mesh": 0,
      "name": "SHAPE_9_IndexedFaceSet"
    }
  ],
  "samplers": [
    {
      "magFilter": 9729,
      "minFilter": 9987,
      "wrapS": 10497,
      "wrapT": 10497
    }
  ],
  "scene": 0,
  "scenes": [
    {
      "extras": {
        "vrm_addon_extension": {
          "vrm0_material_gltf_property_names": [
            {
              "name": "_Color",
              "value": "_Color"
            },
            {
              "name": "_MainTex_ST",
              "value": "_MainTex_ST"
            },
            {
              "name": "_MainTex_ST_S",
              "value": "_MainTex_ST_S"
            },
            {
              "name": "_MainTex_ST_T",
              "value": "_MainTex_ST_T"
            },
            {
              "name": "_MetallicGlossMap_ST",
              "value": "_MetallicGlossMap_ST"
            },
            {
              "name": "_MetallicGlossMap_ST_S",
              "value": "_MetallicGlossMap_ST_S"
            },
            {
              "name": "_MetallicGlossMap_ST_T",
              "value": "_MetallicGlossMap_ST_T"
            },
            {
              "name": "_BumpMap_ST",
              "value": "_BumpMap_ST"
            },
            {
              "name": "_BumpMap_ST_S",
              "value": "_BumpMap_ST_S"
            },
            {
              "name": "_BumpMap_ST_T",
              "value": "_BumpMap_ST_T"
            },
            {
              "name": "_ParallaxMap_ST",
              "value": "_ParallaxMap_ST"
            },
            {
              "name": "_ParallaxMap_ST_S",
              "value": "_ParallaxMap_ST_S"
            },
            {
              "name": "_ParallaxMap_ST_T",
              "value": "_ParallaxMap_ST_T"
            },
            {
              "name": "_OcclusionMap_ST",
              "value": "_OcclusionMap_ST"
            },
            {
              "name": "_OcclusionMap_ST_S",
              "value": "_OcclusionMap_ST_S"
            },
            {
              "name": "_OcclusionMap_ST_T",
              "value": "_OcclusionMap_ST_T"
            },
            {
              "name": "_EmissionColor",
              "value": "_EmissionColor"
            },
            {
              "name": "_EmissionMap_ST",
              "value": "_EmissionMap_ST"
            },
            {
              "name": "_EmissionMap_ST_S",
              "value": "_EmissionMap_ST_S"
            },
            {
              "name": "_EmissionMap_ST_T",
              "value": "_EmissionMap_ST_T"
            },
            {
              "name": "_DetailMask_ST",
              "value": "_DetailMask_ST"
            },
            {
              "name": "_DetailMask_ST_S",
              "value": "_DetailMask_ST_S"
            },
            {
              "name": "_DetailMask_ST_T",
              "value": "_DetailMask_ST_T"
            },
            {
              "name": "_DetailAlbedoMap_ST",
              "value": "_DetailAlbedoMap_ST"
            },
            {
              "name": "_DetailAlbedoMap_ST_S",
              "value": "_DetailAlbedoMap_ST_S"
            },
            {
              "name": "_DetailAlbedoMap_ST_T",
              "value": "_DetailAlbedoMap_ST_T"
            },
            {
              "name": "_DetailNormalMap_ST",
              "value": "_DetailNormalMap_ST"
            },
            {
              "name": "_DetailNormalMap_ST_S",
              "value": "_DetailNormalMap_ST_S"
            },
            {
              "name": "_DetailNormalMap_ST_T",
              "value": "_DetailNormalMap_ST_T"
            }
          ],
          "vrm0_material_mtoon0_property_names": [
            {
              "name": "_Color",
              "value": "_Color"
            },
            {
              "name": "_ShadeColor",
              "value": "_ShadeColor"
            },
            {
              "name": "_MainTex_ST",
              "value": "_MainTex_ST"
            },
            {
              "name": "_MainTex_ST_S",
              "value": "_MainTex_ST_S"
            },
            {
              "name": "_MainTex_ST_T",
              "value": "_MainTex_ST_T"
            },
            {
              "name": "_ShadeTexture_ST",
              "value": "_ShadeTexture_ST"
            },
            {
              "name": "_ShadeTexture_ST_S",
              "value": "_ShadeTexture_ST_S"
            },
            {
              "name": "_ShadeTexture_ST_T",
              "value": "_ShadeTexture_ST_T"
            },
            {
              "name": "_BumpMap_ST",
              "value": "_BumpMap_ST"
            },
            {
              "name": "_BumpMap_ST_S",
              "value": "_BumpMap_ST_S"
            },
            {
              "name": "_BumpMap_ST_T",
              "value": "_BumpMap_ST_T"
            },
            {
              "name": "_ReceiveShadowTexture_ST",
              "value": "_ReceiveShadowTexture_ST"
            },
            {
              "name": "_ReceiveShadowTexture_ST_S",
              "value": "_ReceiveShadowTexture_ST_S"
            },
            {
              "name": "_ReceiveShadowTexture_ST_T",
              "value": "_ReceiveShadowTexture_ST_T"
            },
            {
              "name": "_ShadingGradeTexture_ST",
              "value": "_ShadingGradeTexture_ST"
            },
            {
              "name": "_ShadingGradeTexture_ST_S",
              "value": "_ShadingGradeTexture_ST_S"
            },
            {
              "name": "_ShadingGradeTexture_ST_T",
              "value": "_ShadingGradeTexture_ST_T"
            },
            {
              "name": "_RimColor",
              "value": "_RimColor"
            },
            {
              "name": "_RimTexture_ST",
              "value": "_RimTexture_ST"
            },
            {
              "name": "_RimTexture_ST_S",
              "value": "_RimTexture_ST_S"
            },
            {
              "name": "_RimTexture_ST_T",
              "value": "_RimTexture_ST_T"
            },
            {
              "name": "_SphereAdd_ST",
              "value": "_SphereAdd_ST"
            },
            {
              "name": "_SphereAdd_ST_S",
              "value": "_SphereAdd_ST_S"
            },
            {
              "name": "_SphereAdd_ST_T",
              "value": "_SphereAdd_ST_T"
            },
            {
              "name": "_EmissionColor",
              "value": "_EmissionColor"
            },
            {
              "name": "_EmissionMap_ST",
              "value": "_EmissionMap_ST"
            },
            {
              "name": "_EmissionMap_ST_S",
              "value": "_EmissionMap_ST_S"
            },
            {
              "name": "_EmissionMap_ST_T",
              "value": "_EmissionMap_ST_T"
            },
            {
              "name": "_OutlineWidthTexture_ST",
              "value": "_OutlineWidthTexture_ST"
            },
            {
              "name": "_OutlineWidthTexture_ST_S",
              "value": "_OutlineWidthTexture_ST_S"
            },
            {
              "name": "_OutlineWidthTexture_ST_T",
              "value": "_OutlineWidthTexture_ST_T"
            },
            {
              "name": "_OutlineColor",
              "value": "_OutlineColor"
            },
            {
              "name": "_UvAnimMaskTexture_ST",
              "value": "_UvAnimMaskTexture_ST"
            },
            {
              "name": "_UvAnimMaskTexture_ST_S",
              "value": "_UvAnimMaskTexture_ST_S"
            },
            {
              "name": "_UvAnimMaskTexture_ST_T",
              "value": "_UvAnimMaskTexture_ST_T"
            }
          ],
          "mesh_object_names": [
            {
              "name": "SHAPE_9_IndexedFaceSet",
              "value": "SHAPE_9_IndexedFaceSet"
            }
          ]
        }
      },
      "name": "Scene",
      "nodes": [
        0
      ]
    }
  ],
  "textures": [
    {
      "extensions": {
        "KHR_texture_basisu": {
          "source": 1
        }
      },
      "sampler": 0
    },
    {
      "extensions": {
        "KHR_texture_basisu": {
          "source": 0
        }
      },
      "sampler": 0
    },
    {
      "extensions": {
        "KHR_texture_basisu": {
          "source": 2
        }
      },
      "sampler": 0
    }
  ]
}