<?xml version="1.0" standalone="no"?>
 <!DOCTYPE svg PUBLIC "-//W3C//DTD SVG 1.1//EN" 
 "http://www.w3.org/Graphics/SVG/1.1/DTD/svg11.dtd"> 
<svg
  xmlns:svg="http://www.w3.org/2000/svg"
  xmlns="http://www.w3.org/2000/svg"
  xmlns:xlink="http://www.w3.org/1999/xlink"
  version="1.1"
  width="3.8354mm" height="5.6388mm" viewBox="0.0000 0.0000 3.8354 5.6388">
<title>SVG Image created as outline.svg date 2025/06/16 09:17:35 </title>
  <desc>Image generated by PCBNEW </desc>
<g style="fill:#000000; fill-opacity:1.0000;stroke:#000000; stroke-opacity:1.0000;
stroke-linecap:round; stroke-linejoin:round;"
 transform="translate(0 0) scale(1 1)">
</g>
<g style="fill:none; 
stroke:#000000; stroke-width:0.0200; stroke-opacity:1; 
stroke-linecap:round; stroke-linejoin:round;">
<path d="M0.4250 0.4250
L0.4250 5.4250
" />
<path d="M0.4250 5.4250
L3.4250 5.4250
" />
<path d="M0.8670 1.3140
L0.8670 1.3220
" />
<path d="M0.8670 1.3220
L0.8680 1.3380
" />
<path d="M0.8680 1.2990
L0.8680 1.3060
" />
<path d="M0.8680 1.3060
L0.8670 1.3140
" />
<path d="M0.8680 1.3380
L0.8690 1.3530
" />
<path d="M0.8690 1.2910
L0.8680 1.2990
" />
<path d="M0.8690 1.3530
L0.8720 1.3690
" />
<path d="M0.8700 1.2830
L0.8690 1.2910
" />
<path d="M0.8720 1.2760
L0.8700 1.2830
" />
<path d="M0.8720 1.3690
L0.8750 1.3840
" />
<path d="M0.8740 1.2680
L0.8720 1.2760
" />
<path d="M0.8750 1.2610
L0.8740 1.2680
" />
<path d="M0.8750 1.3840
L0.8800 1.3980
" />
<path d="M0.8780 1.2530
L0.8750 1.2610
" />
<path d="M0.8800 1.2460
L0.8780 1.2530
" />
<path d="M0.8800 1.3980
L0.8850 1.4130
" />
<path d="M0.8820 1.2390
L0.8800 1.2460
" />
<path d="M0.8850 1.2320
L0.8820 1.2390
" />
<path d="M0.8850 1.4130
L0.8920 1.4260
" />
<path d="M0.8880 1.2250
L0.8850 1.2320
" />
<path d="M0.8920 1.2180
L0.8880 1.2250
" />
<path d="M0.8920 1.4260
L0.8990 1.4400
" />
<path d="M0.8950 1.2110
L0.8920 1.2180
" />
<path d="M0.8990 1.2040
L0.8950 1.2110
" />
<path d="M0.8990 1.4400
L0.9070 1.4530
" />
<path d="M0.9030 1.1980
L0.8990 1.2040
" />
<path d="M0.9070 1.1910
L0.9030 1.1980
" />
<path d="M0.9070 1.4530
L0.9160 1.4650
" />
<path d="M0.9110 1.1850
L0.9070 1.1910
" />
<path d="M0.9160 1.1790
L0.9110 1.1850
" />
<path d="M0.9160 1.4650
L0.9250 1.4770
" />
<path d="M0.9210 1.1730
L0.9160 1.1790
" />
<path d="M0.9250 1.1670
L0.9210 1.1730
" />
<path d="M0.9250 1.4770
L0.9360 1.4880
" />
<path d="M0.9310 1.1610
L0.9250 1.1670
" />
<path d="M0.9360 1.1560
L0.9310 1.1610
" />
<path d="M0.9360 1.4880
L0.9470 1.4990
" />
<path d="M0.9410 1.1500
L0.9360 1.1560
" />
<path d="M0.9470 1.1450
L0.9410 1.1500
" />
<path d="M0.9470 1.4990
L0.9590 1.5090
" />
<path d="M0.9530 1.1400
L0.9470 1.1450
" />
<path d="M0.9590 1.1350
L0.9530 1.1400
" />
<path d="M0.9590 1.5090
L0.9720 1.5180
" />
<path d="M0.9650 1.1310
L0.9590 1.1350
" />
<path d="M0.9720 1.1260
L0.9650 1.1310
" />
<path d="M0.9720 1.5180
L0.9850 1.5260
" />
<path d="M0.9780 1.1220
L0.9720 1.1260
" />
<path d="M0.9850 1.1180
L0.9780 1.1220
" />
</g>
<g style="fill:#000000; fill-opacity:1.0000; stroke:none;">
<circle cx="0.9850" cy="1.1180" r="0.0100" /> 
<circle cx="0.9850" cy="1.5260" r="0.0100" /> 
</g>
<g style="fill:none; 
stroke:#000000; stroke-width:0.0200; stroke-opacity:1; 
stroke-linecap:round; stroke-linejoin:round;">
<path d="M0.9850 1.5260
L0.9990 1.5340
" />
<path d="M0.9990 1.1110
L0.9850 1.1180
" />
<path d="M0.9990 1.5340
L1.0130 1.5400
" />
<path d="M1.0130 1.1040
L0.9990 1.1110
" />
<path d="M1.0130 1.5400
L1.0280 1.5450
" />
<path d="M1.0280 1.0990
L1.0130 1.1040
" />
<path d="M1.0280 1.5450
L1.0420 1.5500
" />
<path d="M1.0420 1.0940
L1.0280 1.0990
" />
<path d="M1.0420 1.5500
L1.0570 1.5530
" />
<path d="M1.0570 1.0910
L1.0420 1.0940
" />
<path d="M1.0570 1.5530
L1.0730 1.5560
" />
<path d="M1.0730 1.0880
L1.0570 1.0910
" />
<path d="M1.0730 1.5560
L1.0880 1.5570
" />
<path d="M1.0880 1.0870
L1.0730 1.0880
" />
<path d="M1.0880 1.5570
L1.1030 1.5580
" />
<path d="M1.1030 1.0860
L1.0880 1.0870
" />
<path d="M1.1030 1.5580
L1.1180 1.5570
" />
<path d="M1.1180 1.0870
L1.1030 1.0860
" />
<path d="M1.1180 1.5570
L1.1330 1.5560
" />
<path d="M1.1330 1.0880
L1.1180 1.0870
" />
<path d="M1.1330 1.5560
L1.1490 1.5530
" />
<path d="M1.1490 1.0910
L1.1330 1.0880
" />
<path d="M1.1490 1.5530
L1.1640 1.5500
" />
<path d="M1.1640 1.0940
L1.1490 1.0910
" />
<path d="M1.1640 1.5500
L1.1780 1.5450
" />
<path d="M1.1780 1.0990
L1.1640 1.0940
" />
<path d="M1.1780 1.5450
L1.1930 1.5400
" />
<path d="M1.1930 1.1040
L1.1780 1.0990
" />
<path d="M1.1930 1.5400
L1.2070 1.5340
" />
<path d="M1.2070 1.1110
L1.1930 1.1040
" />
<path d="M1.2070 1.5340
L1.2210 1.5260
" />
<path d="M1.2210 1.1180
L1.2070 1.1110
" />
</g>
<g style="fill:#000000; fill-opacity:1.0000; stroke:none;">
<circle cx="1.2210" cy="1.1180" r="0.0100" /> 
<circle cx="1.2210" cy="1.5260" r="0.0100" /> 
</g>
<g style="fill:none; 
stroke:#000000; stroke-width:0.0200; stroke-opacity:1; 
stroke-linecap:round; stroke-linejoin:round;">
<path d="M1.2210 1.5260
L1.2280 1.5220
" />
<path d="M1.2280 1.5220
L1.2340 1.5180
" />
<path d="M1.2340 1.1260
L1.2210 1.1180
" />
<path d="M1.2340 1.5180
L1.2410 1.5130
" />
<path d="M1.2410 1.5130
L1.2470 1.5090
" />
<path d="M1.2470 1.1350
L1.2340 1.1260
" />
<path d="M1.2470 1.5090
L1.2530 1.5040
" />
<path d="M1.2530 1.5040
L1.2590 1.4990
" />
<path d="M1.2590 1.1450
L1.2470 1.1350
" />
<path d="M1.2590 1.4990
L1.2650 1.4940
" />
<path d="M1.2650 1.4940
L1.2700 1.4880
" />
<path d="M1.2700 1.1560
L1.2590 1.1450
" />
<path d="M1.2700 1.4880
L1.2750 1.4830
" />
<path d="M1.2750 1.4830
L1.2810 1.4770
" />
<path d="M1.2810 1.1670
L1.2700 1.1560
" />
<path d="M1.2810 1.4770
L1.2850 1.4710
" />
<path d="M1.2850 1.4710
L1.2900 1.4650
" />
<path d="M1.2900 1.1790
L1.2810 1.1670
" />
<path d="M1.2900 1.4650
L1.2950 1.4590
" />
<path d="M1.2950 1.4590
L1.2990 1.4530
" />
<path d="M1.2990 1.1910
L1.2900 1.1790
" />
<path d="M1.2990 1.4530
L1.3030 1.4470
" />
<path d="M1.3030 1.4470
L1.3070 1.4400
" />
<path d="M1.3070 1.2040
L1.2990 1.1910
" />
<path d="M1.3070 1.4400
L1.3110 1.4330
" />
<path d="M1.3110 1.4330
L1.3140 1.4260
" />
<path d="M1.3140 1.2180
L1.3070 1.2040
" />
<path d="M1.3140 1.4260
L1.3180 1.4200
" />
<path d="M1.3180 1.4200
L1.3210 1.4130
" />
<path d="M1.3210 1.2320
L1.3140 1.2180
" />
<path d="M1.3210 1.4130
L1.3240 1.4050
" />
<path d="M1.3240 1.4050
L1.3260 1.3980
" />
<path d="M1.3260 1.2460
L1.3210 1.2320
" />
<path d="M1.3260 1.3980
L1.3280 1.3910
" />
<path d="M1.3280 1.3910
L1.3310 1.3840
" />
<path d="M1.3310 1.2610
L1.3260 1.2460
" />
<path d="M1.3310 1.3840
L1.3320 1.3760
" />
<path d="M1.3320 1.3760
L1.3340 1.3690
" />
<path d="M1.3340 1.2760
L1.3310 1.2610
" />
<path d="M1.3340 1.3690
L1.3360 1.3610
" />
<path d="M1.3360 1.3610
L1.3370 1.3530
" />
<path d="M1.3370 1.2910
L1.3340 1.2760
" />
<path d="M1.3370 1.3530
L1.3380 1.3460
" />
<path d="M1.3380 1.3060
L1.3370 1.2910
" />
<path d="M1.3380 1.3380
L1.3390 1.3300
" />
<path d="M1.3380 1.3460
L1.3380 1.3380
" />
<path d="M1.3390 1.3220
L1.3380 1.3060
" />
<path d="M1.3390 1.3300
L1.3390 1.3220
" />
<path d="M3.4250 0.4250
L0.4250 0.4250
" />
<path d="M3.4250 5.4250
L3.4250 0.4250
" />
</g> 
</svg>
