<?xml version="1.0" standalone="no"?>
 <!DOCTYPE svg PUBLIC "-//W3C//DTD SVG 1.1//EN" 
 "http://www.w3.org/Graphics/SVG/1.1/DTD/svg11.dtd"> 
<svg
  xmlns:svg="http://www.w3.org/2000/svg"
  xmlns="http://www.w3.org/2000/svg"
  xmlns:xlink="http://www.w3.org/1999/xlink"
  version="1.1"
  width="10.0330mm" height="24.9174mm" viewBox="0.0000 0.0000 10.0330 24.9174">
<title>SVG Image created as outline.svg date 2025/04/04 10:06:08 </title>
  <desc>Image generated by PCBNEW </desc>
<g style="fill:#000000; fill-opacity:1.0000;stroke:#000000; stroke-opacity:1.0000;
stroke-linecap:round; stroke-linejoin:round;"
 transform="translate(0 0) scale(1 1)">
</g>
<g style="fill:none; 
stroke:#000000; stroke-width:0.0100; stroke-opacity:1; 
stroke-linecap:round; stroke-linejoin:round;">
<path d="M0.7750 10.0250
L0.9214 10.0250
" />
<path d="M0.7750 11.4250
L0.7750 10.0250
" />
<path d="M0.8992 11.4250
L0.7750 11.4250
" />
</g>
<g style="fill:#000000; fill-opacity:1.0000; stroke:none;">
<circle cx="0.8992" cy="11.4250" r="0.0050" /> 
<circle cx="0.9214" cy="10.0250" r="0.0050" /> 
</g>
<g style="fill:none; 
stroke:#000000; stroke-width:0.0100; stroke-opacity:1; 
stroke-linecap:round; stroke-linejoin:round;">
<path d="M0.9214 10.0250
L1.2750 10.0250
" />
<path d="M1.2100 11.4250
L0.8992 11.4250
" />
<path d="M1.2100 11.4250
L1.2182 11.4249
" />
<path d="M1.2182 11.4249
L1.2100 11.4250
" />
<path d="M1.2182 11.4249
L1.2263 11.4246
" />
<path d="M1.2263 11.4246
L1.2182 11.4249
" />
<path d="M1.2263 11.4246
L1.2345 11.4240
" />
<path d="M1.2345 11.4240
L1.2263 11.4246
" />
<path d="M1.2345 11.4240
L1.2426 11.4232
" />
<path d="M1.2426 11.4232
L1.2345 11.4240
" />
<path d="M1.2426 11.4232
L1.2507 11.4222
" />
<path d="M1.2507 11.4222
L1.2426 11.4232
" />
<path d="M1.2507 11.4222
L1.2588 11.4210
" />
<path d="M1.2588 11.4210
L1.2507 11.4222
" />
<path d="M1.2588 11.4210
L1.2669 11.4195
" />
<path d="M1.2669 11.4195
L1.2588 11.4210
" />
<path d="M1.2669 11.4195
L1.2750 11.4179
" />
<path d="M1.2750 11.4179
L1.2669 11.4195
" />
<path d="M1.2750 11.4179
L1.2878 11.4147
" />
<path d="M1.2750 11.7550
L1.5250 11.7550
" />
<path d="M1.2750 13.8520
L1.2750 14.0269
" />
<path d="M1.2750 14.1939
L1.2750 14.3094
" />
<path d="M1.2750 14.6415
L1.2750 14.7570
" />
<path d="M1.2750 14.9236
L1.2750 15.0980
" />
<path d="M1.2750 21.0242
L1.2750 20.8520
" />
<path d="M1.2750 21.2948
L1.2750 21.2042
" />
<path d="M1.2750 21.7585
L1.2750 21.6298
" />
<path d="M1.2750 22.0980
L1.2750 21.9259
" />
<path d="M1.2750 22.8250
L1.2750 11.7550
" />
<path d="M1.2750 22.8250
L1.2755 22.8396
" />
<path d="M1.2755 22.8396
L1.2768 22.8539
" />
<path d="M1.2768 22.8539
L1.2788 22.8678
" />
<path d="M1.2788 22.8678
L1.2815 22.8812
" />
<path d="M1.2815 22.8812
L1.2848 22.8943
" />
<path d="M1.2848 22.8943
L1.2888 22.9070
" />
<path d="M1.2875 0.7250
L1.2875 10.0250
" />
<path d="M1.2876 0.7200
L1.2875 0.7250
" />
<path d="M1.2878 11.4147
L1.3003 11.4111
" />
<path d="M1.2880 0.7151
L1.2876 0.7200
" />
<path d="M1.2886 0.7102
L1.2880 0.7151
" />
<path d="M1.2888 22.9070
L1.2934 22.9193
" />
<path d="M1.2894 0.7054
L1.2886 0.7102
" />
<path d="M1.2905 0.7006
L1.2894 0.7054
" />
<path d="M1.2918 0.6959
L1.2905 0.7006
" />
<path d="M1.2934 0.6913
L1.2918 0.6959
" />
<path d="M1.2934 22.9193
L1.2985 22.9311
" />
<path d="M1.2951 0.6867
L1.2934 0.6913
" />
<path d="M1.2971 0.6823
L1.2951 0.6867
" />
<path d="M1.2985 22.9311
L1.3042 22.9425
" />
<path d="M1.2993 0.6779
L1.2971 0.6823
" />
<path d="M1.3003 11.4111
L1.3125 11.4070
" />
<path d="M1.3017 0.6737
L1.2993 0.6779
" />
<path d="M1.3042 22.9425
L1.3105 22.9536
" />
<path d="M1.3043 0.6695
L1.3017 0.6737
" />
<path d="M1.3071 0.6655
L1.3043 0.6695
" />
<path d="M1.3101 0.6616
L1.3071 0.6655
" />
<path d="M1.3105 22.9536
L1.3172 22.9641
" />
<path d="M1.3125 11.4070
L1.3245 11.4023
" />
<path d="M1.3134 0.6579
L1.3101 0.6616
" />
<path d="M1.3168 0.6543
L1.3134 0.6579
" />
</g>
<g style="fill:#000000; fill-opacity:1.0000; stroke:none;">
<circle cx="1.3168" cy="0.6543" r="0.0050" /> 
</g>
<g style="fill:none; 
stroke:#000000; stroke-width:0.0100; stroke-opacity:1; 
stroke-linecap:round; stroke-linejoin:round;">
<path d="M1.3172 22.9641
L1.3244 22.9743
" />
<path d="M1.3204 0.6509
L1.3168 0.6543
" />
<path d="M1.3241 0.6476
L1.3204 0.6509
" />
<path d="M1.3244 22.9743
L1.3321 22.9839
" />
<path d="M1.3245 11.4023
L1.3362 11.3972
" />
<path d="M1.3280 0.6446
L1.3241 0.6476
" />
<path d="M1.3320 0.6418
L1.3280 0.6446
" />
<path d="M1.3321 22.9839
L1.3401 22.9932
" />
<path d="M1.3362 0.6392
L1.3320 0.6418
" />
<path d="M1.3362 11.3972
L1.3477 11.3916
" />
<path d="M1.3401 22.9932
L1.3486 23.0019
" />
<path d="M1.3404 0.6368
L1.3362 0.6392
" />
<path d="M1.3448 0.6346
L1.3404 0.6368
" />
<path d="M1.3477 11.3916
L1.3588 11.3855
" />
<path d="M1.3486 23.0019
L1.3574 23.0103
" />
<path d="M1.3492 0.6326
L1.3448 0.6346
" />
<path d="M1.3538 0.6309
L1.3492 0.6326
" />
<path d="M1.3574 23.0103
L1.3665 23.0181
" />
<path d="M1.3584 0.6293
L1.3538 0.6309
" />
<path d="M1.3588 11.3855
L1.3696 11.3790
" />
<path d="M1.3631 0.6280
L1.3584 0.6293
" />
<path d="M1.3665 23.0181
L1.3759 23.0255
" />
<path d="M1.3679 0.6269
L1.3631 0.6280
" />
<path d="M1.3696 11.3790
L1.3802 11.3721
" />
<path d="M1.3727 0.6261
L1.3679 0.6269
" />
<path d="M1.3759 23.0255
L1.3857 23.0323
" />
<path d="M1.3776 0.6255
L1.3727 0.6261
" />
<path d="M1.3802 11.3721
L1.3903 11.3648
" />
<path d="M1.3825 0.6251
L1.3776 0.6255
" />
<path d="M1.3857 23.0323
L1.3956 23.0387
" />
<path d="M1.3875 0.6250
L1.3825 0.6251
" />
<path d="M1.3875 0.6250
L1.4787 0.6250
" />
<path d="M1.3903 11.3648
L1.4002 11.3570
" />
<path d="M1.3956 23.0387
L1.4058 23.0446
" />
<path d="M1.4002 11.3570
L1.4097 11.3489
" />
<path d="M1.4058 23.0446
L1.4162 23.0500
" />
<path d="M1.4097 11.3489
L1.4188 11.3404
" />
<path d="M1.4162 23.0500
L1.4268 23.0549
" />
<path d="M1.4188 11.3404
L1.4276 11.3315
" />
<path d="M1.4268 23.0549
L1.4375 23.0593
" />
<path d="M1.4276 11.3315
L1.4360 11.3223
" />
<path d="M1.4360 11.3223
L1.4440 11.3127
" />
<path d="M1.4375 23.0593
L1.4483 23.0631
" />
<path d="M1.4440 11.3127
L1.4516 11.3029
" />
<path d="M1.4483 23.0631
L1.4592 23.0664
" />
<path d="M1.4516 11.3029
L1.4588 11.2927
" />
<path d="M1.4588 11.2927
L1.4655 11.2822
" />
<path d="M1.4592 23.0664
L1.4702 23.0692
" />
<path d="M1.4655 11.2822
L1.4718 11.2714
" />
<path d="M1.4702 23.0692
L1.4812 23.0715
" />
<path d="M1.4718 11.2714
L1.4777 11.2604
" />
<path d="M1.4777 11.2604
L1.4831 11.2491
" />
</g>
<g style="fill:#000000; fill-opacity:1.0000; stroke:none;">
<circle cx="1.4787" cy="0.6250" r="0.0050" /> 
</g>
<g style="fill:none; 
stroke:#000000; stroke-width:0.0100; stroke-opacity:1; 
stroke-linecap:round; stroke-linejoin:round;">
<path d="M1.4787 0.6250
L1.7477 0.6250
" />
<path d="M1.4812 23.0715
L1.4922 23.0732
" />
<path d="M1.4831 11.2491
L1.4881 11.2376
" />
<path d="M1.4881 11.2376
L1.4926 11.2258
" />
<path d="M1.4922 23.0732
L1.5032 23.0744
" />
<path d="M1.4926 11.2258
L1.4966 11.2138
" />
<path d="M1.4966 11.2138
L1.5001 11.2016
" />
<path d="M1.5001 11.2016
L1.5031 11.1893
" />
<path d="M1.5031 11.1893
L1.5055 11.1767
" />
<path d="M1.5032 23.0744
L1.5141 23.0750
" />
<path d="M1.5055 11.1767
L1.5075 11.1640
" />
<path d="M1.5075 11.1640
L1.5089 11.1511
" />
<path d="M1.5089 11.1511
L1.5097 11.1381
" />
<path d="M1.5097 11.1381
L1.5100 11.1250
" />
<path d="M1.5100 10.7250
L1.5101 10.7200
" />
<path d="M1.5100 11.1250
L1.5100 10.7250
" />
<path d="M1.5101 10.7200
L1.5105 10.7151
" />
<path d="M1.5105 10.7151
L1.5111 10.7102
" />
<path d="M1.5111 10.7102
L1.5119 10.7054
" />
<path d="M1.5119 10.7054
L1.5130 10.7006
" />
<path d="M1.5130 10.7006
L1.5143 10.6959
" />
<path d="M1.5141 23.0750
L1.5250 23.0750
" />
<path d="M1.5143 10.6959
L1.5159 10.6913
" />
<path d="M1.5159 10.6913
L1.5176 10.6867
" />
<path d="M1.5176 10.6867
L1.5196 10.6823
" />
<path d="M1.5196 10.6823
L1.5218 10.6779
" />
<path d="M1.5218 10.6779
L1.5242 10.6737
" />
<path d="M1.5242 10.6737
L1.5268 10.6695
" />
<path d="M1.5250 10.8050
L1.5250 11.1850
" />
<path d="M1.5250 10.8050
L1.5253 10.7919
" />
<path d="M1.5250 11.7550
L1.5250 11.1850
" />
<path d="M1.5250 11.1938
L1.5250 11.1850
" />
<path d="M1.5251 10.8005
L1.5250 10.8050
" />
<path d="M1.5251 11.1902
L1.5250 11.1850
" />
<path d="M1.5252 10.7961
L1.5251 10.8005
" />
<path d="M1.5253 11.1955
L1.5251 11.1902
" />
<path d="M1.5253 10.7919
L1.5266 10.7788
" />
<path d="M1.5254 10.7916
L1.5252 10.7961
" />
<path d="M1.5255 11.2027
L1.5250 11.1938
" />
<path d="M1.5256 11.2007
L1.5253 11.1955
" />
<path d="M1.5258 10.7872
L1.5254 10.7916
" />
<path d="M1.5261 11.2059
L1.5256 11.2007
" />
<path d="M1.5262 10.7828
L1.5258 10.7872
" />
<path d="M1.5265 11.2116
L1.5255 11.2027
" />
<path d="M1.5266 10.7788
L1.5288 10.7656
" />
<path d="M1.5267 11.2111
L1.5261 11.2059
" />
<path d="M1.5268 10.7784
L1.5262 10.7828
" />
<path d="M1.5268 10.6695
L1.5296 10.6655
" />
<path d="M1.5274 10.7740
L1.5268 10.7784
" />
<path d="M1.5274 11.2162
L1.5267 11.2111
" />
<path d="M1.5279 11.2205
L1.5265 11.2116
" />
<path d="M1.5282 10.7696
L1.5274 10.7740
" />
<path d="M1.5283 11.2214
L1.5274 11.2162
" />
<path d="M1.5288 10.7656
L1.5319 10.7525
" />
<path d="M1.5290 10.7652
L1.5282 10.7696
" />
<path d="M1.5293 11.2265
L1.5283 11.2214
" />
<path d="M1.5296 10.6655
L1.5326 10.6616
" />
<path d="M1.5297 11.2294
L1.5279 11.2205
" />
<path d="M1.5299 10.7609
L1.5290 10.7652
" />
<path d="M1.5305 11.2316
L1.5293 11.2265
" />
<path d="M1.5310 10.7565
L1.5299 10.7609
" />
<path d="M1.5318 11.2366
L1.5305 11.2316
" />
<path d="M1.5319 10.7525
L1.5360 10.7395
" />
<path d="M1.5320 11.2383
L1.5297 11.2294
" />
<path d="M1.5321 10.7522
L1.5310 10.7565
" />
<path d="M1.5326 10.6616
L1.5359 10.6579
" />
<path d="M1.5332 11.2416
L1.5318 11.2366
" />
<path d="M1.5333 10.7479
L1.5321 10.7522
" />
<path d="M1.5346 10.7437
L1.5333 10.7479
" />
<path d="M1.5347 11.2466
L1.5332 11.2416
" />
<path d="M1.5347 11.2471
L1.5320 11.2383
" />
<path d="M1.5359 10.6579
L1.5393 10.6543
" />
<path d="M1.5360 10.7395
L1.5410 10.7267
" />
<path d="M1.5360 10.7395
L1.5346 10.7437
" />
<path d="M1.5364 11.2516
L1.5347 11.2466
" />
<path d="M1.5375 10.7353
L1.5360 10.7395
" />
<path d="M1.5379 11.2558
L1.5347 11.2471
" />
<path d="M1.5382 11.2565
L1.5364 11.2516
" />
</g>
<g style="fill:#000000; fill-opacity:1.0000; stroke:none;">
<circle cx="1.5393" cy="10.6543" r="0.0050" /> 
</g>
<g style="fill:none; 
stroke:#000000; stroke-width:0.0100; stroke-opacity:1; 
stroke-linecap:round; stroke-linejoin:round;">
<path d="M1.5393 10.6543
L1.5429 10.6509
" />
<path d="M1.5401 11.2613
L1.5382 11.2565
" />
<path d="M1.5410 10.7267
L1.5469 10.7142
" />
<path d="M1.5414 11.2644
L1.5379 11.2558
" />
<path d="M1.5422 11.2661
L1.5401 11.2613
" />
<path d="M1.5429 10.6509
L1.5466 10.6476
" />
<path d="M1.5454 11.2729
L1.5414 11.2644
" />
<path d="M1.5456 10.7166
L1.5432 10.7217
" />
<path d="M1.5466 10.6476
L1.5505 10.6446
" />
<path d="M1.5469 10.7142
L1.5537 10.7020
" />
<path d="M1.5481 10.7116
L1.5456 10.7166
" />
<path d="M1.5498 11.2812
L1.5454 11.2729
" />
<path d="M1.5505 10.6446
L1.5545 10.6418
" />
<path d="M1.5508 10.7067
L1.5481 10.7116
" />
<path d="M1.5514 11.2842
L1.5483 11.2787
" />
<path d="M1.5536 10.7019
L1.5508 10.7067
" />
<path d="M1.5537 10.7020
L1.5613 10.6903
" />
<path d="M1.5545 10.6418
L1.5587 10.6392
" />
<path d="M1.5546 11.2894
L1.5498 11.2812
" />
<path d="M1.5546 11.2897
L1.5514 11.2842
" />
<path d="M1.5566 10.6971
L1.5536 10.7019
" />
<path d="M1.5580 11.2950
L1.5546 11.2897
" />
<path d="M1.5587 10.6392
L1.5629 10.6368
" />
<path d="M1.5597 10.6925
L1.5566 10.6971
" />
<path d="M1.5597 11.2973
L1.5546 11.2894
" />
<path d="M1.5613 10.6903
L1.5698 10.6789
" />
<path d="M1.5616 11.3003
L1.5580 11.2950
" />
<path d="M1.5629 10.6879
L1.5597 10.6925
" />
<path d="M1.5629 10.6368
L1.5673 10.6346
" />
<path d="M1.5653 11.3054
L1.5616 11.3003
" />
<path d="M1.5653 11.3051
L1.5597 11.2973
" />
<path d="M1.5662 10.6834
L1.5629 10.6879
" />
<path d="M1.5673 10.6346
L1.5717 10.6326
" />
<path d="M1.5692 11.3104
L1.5653 11.3054
" />
<path d="M1.5698 10.6789
L1.5791 10.6682
" />
<path d="M1.5713 11.3126
L1.5653 11.3051
" />
<path d="M1.5717 10.6326
L1.5763 10.6309
" />
<path d="M1.5732 11.3153
L1.5692 11.3104
" />
<path d="M1.5763 10.6309
L1.5809 10.6293
" />
<path d="M1.5775 11.3200
L1.5732 11.3153
" />
<path d="M1.5776 11.3199
L1.5713 11.3126
" />
<path d="M1.5791 10.6682
L1.5893 10.6580
" />
<path d="M1.5809 10.6293
L1.5856 10.6280
" />
<path d="M1.5841 10.6631
L1.5822 10.6650
" />
<path d="M1.5843 11.3269
L1.5776 11.3199
" />
<path d="M1.5856 10.6280
L1.5904 10.6269
" />
<path d="M1.5860 10.6612
L1.5841 10.6631
" />
<path d="M1.5879 10.6593
L1.5860 10.6612
" />
<path d="M1.5893 10.6580
L1.6002 10.6486
" />
<path d="M1.5899 10.6575
L1.5879 10.6593
" />
<path d="M1.5904 10.6269
L1.5952 10.6261
" />
<path d="M1.5913 11.3337
L1.5843 11.3269
" />
<path d="M1.5919 10.6557
L1.5899 10.6575
" />
<path d="M1.5939 10.6539
L1.5919 10.6557
" />
<path d="M1.5952 10.6261
L1.6001 10.6255
" />
<path d="M1.5960 10.6522
L1.5939 10.6539
" />
<path d="M1.5981 10.6504
L1.5960 10.6522
" />
<path d="M1.5987 11.3401
L1.5913 11.3337
" />
<path d="M1.5990 11.3404
L1.5965 11.3383
" />
<path d="M1.6001 10.6255
L1.6050 10.6251
" />
<path d="M1.6002 10.6486
L1.6120 10.6399
" />
<path d="M1.6016 11.3424
L1.5990 11.3404
" />
<path d="M1.6041 11.3444
L1.6016 11.3424
" />
<path d="M1.6050 10.6251
L1.6100 10.6250
" />
<path d="M1.6065 11.3461
L1.5987 11.3401
" />
<path d="M1.6067 11.3463
L1.6041 11.3444
" />
<path d="M1.6094 11.3482
L1.6067 11.3463
" />
<path d="M1.6100 10.6250
L8.4400 10.6250
" />
<path d="M1.6120 10.6399
L1.6245 10.6320
" />
<path d="M1.6120 11.3500
L1.6094 11.3482
" />
<path d="M1.6146 11.3518
L1.6065 11.3461
" />
<path d="M1.6147 11.3519
L1.6120 11.3500
" />
<path d="M1.6174 11.3536
L1.6147 11.3519
" />
<path d="M1.6231 11.3572
L1.6146 11.3518
" />
<path d="M1.6245 10.6320
L1.6311 10.6284
" />
<path d="M1.6311 10.6284
L1.6378 10.6250
" />
<path d="M1.6319 11.3621
L1.6231 11.3572
" />
<path d="M1.6410 11.3666
L1.6319 11.3621
" />
<path d="M1.6504 11.3707
L1.6410 11.3666
" />
<path d="M1.6602 11.3743
L1.6504 11.3707
" />
<path d="M1.6702 11.3774
L1.6602 11.3743
" />
<path d="M1.6703 11.3774
L1.6670 11.3764
" />
<path d="M1.6735 11.3783
L1.6703 11.3774
" />
<path d="M1.6769 11.3791
L1.6735 11.3783
" />
<path d="M1.6802 11.3799
L1.6769 11.3791
" />
<path d="M1.6806 11.3800
L1.6702 11.3774
" />
<path d="M1.6913 11.3821
L1.6806 11.3800
" />
<path d="M1.7022 11.3836
L1.6913 11.3821
" />
<path d="M1.7135 11.3846
L1.7022 11.3836
" />
<path d="M1.7250 11.3850
L1.7135 11.3846
" />
<path d="M1.7250 11.3850
L2.7917 11.3850
" />
</g>
<g style="fill:#000000; fill-opacity:1.0000; stroke:none;">
<circle cx="1.7477" cy="0.6250" r="0.0050" /> 
</g>
<g style="fill:none; 
stroke:#000000; stroke-width:0.0100; stroke-opacity:1; 
stroke-linecap:round; stroke-linejoin:round;">
<path d="M1.7477 0.6250
L2.1811 0.6250
" />
</g>
<g style="fill:#000000; fill-opacity:1.0000; stroke:none;">
<circle cx="2.1811" cy="0.6250" r="0.0050" /> 
</g>
<g style="fill:none; 
stroke:#000000; stroke-width:0.0100; stroke-opacity:1; 
stroke-linecap:round; stroke-linejoin:round;">
<path d="M2.1811 0.6250
L2.7571 0.6250
" />
<path d="M2.4000 11.7767
L2.4009 11.7531
" />
<path d="M2.4000 13.6200
L2.4000 11.7767
" />
<path d="M2.4000 13.6200
L2.4004 13.5903
" />
<path d="M2.4000 16.1250
L2.4000 14.1200
" />
<path d="M2.4004 13.5903
L2.4013 13.5633
" />
<path d="M2.4004 14.1497
L2.4000 14.1200
" />
<path d="M2.4009 11.7531
L2.4028 11.7305
" />
<path d="M2.4013 13.5633
L2.4027 13.5388
" />
<path d="M2.4013 14.1767
L2.4004 14.1497
" />
<path d="M2.4027 13.5388
L2.4046 13.5163
" />
<path d="M2.4027 14.2012
L2.4013 14.1767
" />
<path d="M2.4028 11.7305
L2.4057 11.7090
" />
<path d="M2.4046 13.5163
L2.4068 13.4958
" />
<path d="M2.4046 14.2237
L2.4027 14.2012
" />
<path d="M2.4057 11.7090
L2.4096 11.6884
" />
<path d="M2.4068 13.4958
L2.4094 13.4768
" />
<path d="M2.4068 14.2442
L2.4046 14.2237
" />
<path d="M2.4094 13.4768
L2.4122 13.4592
" />
<path d="M2.4094 14.2632
L2.4068 14.2442
" />
<path d="M2.4096 11.6884
L2.4144 11.6687
" />
<path d="M2.4122 13.4592
L2.4153 13.4427
" />
<path d="M2.4122 14.2808
L2.4094 14.2632
" />
<path d="M2.4144 11.6687
L2.4201 11.6499
" />
</g>
<g style="fill:#000000; fill-opacity:1.0000; stroke:none;">
<circle cx="2.4153" cy="13.4427" r="0.0050" /> 
</g>
<g style="fill:none; 
stroke:#000000; stroke-width:0.0100; stroke-opacity:1; 
stroke-linecap:round; stroke-linejoin:round;">
<path d="M2.4153 13.4427
L2.4187 13.4280
" />
<path d="M2.4153 14.2973
L2.4122 14.2808
" />
</g>
<g style="fill:#000000; fill-opacity:1.0000; stroke:none;">
<circle cx="2.4153" cy="14.2973" r="0.0050" /> 
</g>
<g style="fill:none; 
stroke:#000000; stroke-width:0.0100; stroke-opacity:1; 
stroke-linecap:round; stroke-linejoin:round;">
<path d="M2.4169 14.3048
L2.4153 14.2973
" />
<path d="M2.4187 13.4280
L2.4223 13.4145
" />
<path d="M2.4187 14.3120
L2.4169 14.3048
" />
<path d="M2.4201 11.6499
L2.4265 11.6319
" />
<path d="M2.4205 14.3189
L2.4187 14.3120
" />
<path d="M2.4223 13.4145
L2.4243 13.4082
" />
<path d="M2.4223 14.3255
L2.4205 14.3189
" />
<path d="M2.4243 13.4082
L2.4263 13.4023
" />
<path d="M2.4243 14.3318
L2.4223 14.3255
" />
<path d="M2.4263 13.4023
L2.4284 13.3968
" />
<path d="M2.4263 14.3377
L2.4243 14.3318
" />
<path d="M2.4265 11.6319
L2.4338 11.6146
" />
<path d="M2.4284 13.3968
L2.4305 13.3917
" />
<path d="M2.4284 14.3432
L2.4263 14.3377
" />
<path d="M2.4305 13.3917
L2.4328 13.3870
" />
<path d="M2.4305 14.3483
L2.4284 14.3432
" />
<path d="M2.4316 14.3507
L2.4305 14.3483
" />
<path d="M2.4328 13.3870
L2.4351 13.3829
" />
<path d="M2.4328 14.3530
L2.4316 14.3507
" />
<path d="M2.4338 11.6146
L2.4417 11.5981
" />
<path d="M2.4339 14.3551
L2.4328 14.3530
" />
<path d="M2.4351 13.3829
L2.4376 13.3793
" />
<path d="M2.4351 14.3571
L2.4339 14.3551
" />
<path d="M2.4364 14.3590
L2.4351 14.3571
" />
<path d="M2.4376 13.3793
L2.4402 13.3762
" />
<path d="M2.4376 14.3607
L2.4364 14.3590
" />
<path d="M2.4389 14.3623
L2.4376 14.3607
" />
<path d="M2.4402 13.3762
L2.4429 13.3737
" />
<path d="M2.4402 14.3638
L2.4389 14.3623
" />
<path d="M2.4415 14.3651
L2.4402 14.3638
" />
<path d="M2.4417 11.5981
L2.4504 11.5822
" />
<path d="M2.4429 13.3737
L2.4443 13.3727
" />
<path d="M2.4429 14.3663
L2.4415 14.3651
" />
<path d="M2.4443 13.3727
L2.4457 13.3718
" />
<path d="M2.4443 14.3673
L2.4429 14.3663
" />
<path d="M2.4457 13.3718
L2.4471 13.3711
" />
<path d="M2.4457 14.3682
L2.4443 14.3673
" />
<path d="M2.4471 13.3711
L2.4486 13.3706
" />
<path d="M2.4471 14.3689
L2.4457 14.3682
" />
<path d="M2.4486 13.3706
L2.4502 13.3702
" />
<path d="M2.4486 14.3694
L2.4471 14.3689
" />
<path d="M2.4502 13.3702
L2.4517 13.3700
" />
<path d="M2.4502 14.3698
L2.4486 14.3694
" />
<path d="M2.4504 11.5822
L2.4596 11.5670
" />
<path d="M2.4517 13.3700
L2.6750 13.3700
" />
<path d="M2.4517 14.3700
L2.4502 14.3698
" />
<path d="M2.4596 11.5670
L2.4695 11.5524
" />
<path d="M2.4695 11.5524
L2.4799 11.5383
" />
<path d="M2.4799 11.5383
L2.4907 11.5247
" />
<path d="M2.4907 11.5247
L2.5021 11.5115
" />
<path d="M2.5021 11.5115
L2.5138 11.4988
" />
</g>
<g style="fill:#000000; fill-opacity:1.0000; stroke:none;">
<circle cx="2.5138" cy="11.4988" r="0.0050" /> 
</g>
<g style="fill:none; 
stroke:#000000; stroke-width:0.0100; stroke-opacity:1; 
stroke-linecap:round; stroke-linejoin:round;">
<path d="M2.5138 11.4988
L2.5265 11.4871
" />
<path d="M2.5265 11.4871
L2.5397 11.4757
" />
<path d="M2.5397 11.4757
L2.5533 11.4649
" />
<path d="M2.5533 11.4649
L2.5674 11.4545
" />
<path d="M2.5674 11.4545
L2.5820 11.4446
" />
<path d="M2.5820 11.4446
L2.5972 11.4354
" />
<path d="M2.5972 11.4354
L2.6131 11.4267
" />
<path d="M2.6131 11.4267
L2.6296 11.4188
" />
<path d="M2.6296 11.4188
L2.6469 11.4115
" />
<path d="M2.6469 11.4115
L2.6649 11.4051
" />
<path d="M2.6649 11.4051
L2.6837 11.3994
" />
<path d="M2.6750 13.3700
L2.6874 13.3703
" />
<path d="M2.6750 13.3700
L2.7000 13.3712
" />
<path d="M2.6750 14.3700
L2.4517 14.3700
" />
<path d="M2.6837 11.3994
L2.7034 11.3946
" />
<path d="M2.6874 13.3703
L2.6997 13.3712
" />
<path d="M2.6874 14.3697
L2.6750 14.3700
" />
</g>
<g style="fill:#000000; fill-opacity:1.0000; stroke:none;">
<circle cx="2.6917" cy="14.3694" r="0.0050" /> 
</g>
<g style="fill:none; 
stroke:#000000; stroke-width:0.0100; stroke-opacity:1; 
stroke-linecap:round; stroke-linejoin:round;">
<path d="M2.6997 13.3712
L2.7119 13.3727
" />
<path d="M2.6997 14.3688
L2.6874 14.3697
" />
<path d="M2.7000 12.0850
L2.7000 13.3712
" />
<path d="M2.7000 12.0850
L2.7001 12.0768
" />
<path d="M2.7000 14.3687
L2.6750 14.3700
" />
<path d="M2.7000 14.3687
L2.7000 14.4750
" />
<path d="M2.7000 14.4750
L2.7000 14.6657
" />
<path d="M2.7000 14.8471
L2.7000 15.0194
" />
<path d="M2.7000 16.1250
L2.7000 14.3687
" />
<path d="M2.7001 12.0768
L2.7009 12.0576
" />
<path d="M2.7009 12.0576
L2.7027 12.0385
" />
<path d="M2.7027 12.0385
L2.7053 12.0195
" />
<path d="M2.7034 11.3946
L2.7240 11.3907
" />
<path d="M2.7053 12.0195
L2.7090 12.0007
" />
<path d="M2.7090 12.0007
L2.7135 11.9821
" />
<path d="M2.7119 13.3727
L2.7240 13.3748
" />
<path d="M2.7119 14.3673
L2.6997 14.3688
" />
<path d="M2.7135 11.9821
L2.7188 11.9638
" />
<path d="M2.7188 11.9638
L2.7251 11.9457
" />
<path d="M2.7240 11.3907
L2.7455 11.3878
" />
<path d="M2.7240 13.3748
L2.7359 13.3775
" />
<path d="M2.7240 14.3652
L2.7119 14.3673
" />
<path d="M2.7251 11.9457
L2.7322 11.9280
" />
<path d="M2.7322 11.9280
L2.7401 11.9106
" />
<path d="M2.7359 13.3775
L2.7477 13.3808
" />
<path d="M2.7359 14.3625
L2.7240 14.3652
" />
<path d="M2.7401 11.9106
L2.7488 11.8936
" />
<path d="M2.7455 11.3878
L2.7681 11.3859
" />
<path d="M2.7477 13.3808
L2.7593 13.3846
" />
<path d="M2.7477 14.3592
L2.7359 14.3625
" />
<path d="M2.7488 11.8936
L2.7583 11.8770
" />
</g>
<g style="fill:#000000; fill-opacity:1.0000; stroke:none;">
<circle cx="2.7571" cy="0.6250" r="0.0050" /> 
</g>
<g style="fill:none; 
stroke:#000000; stroke-width:0.0100; stroke-opacity:1; 
stroke-linecap:round; stroke-linejoin:round;">
<path d="M2.7571 0.6250
L3.4467 0.6250
" />
<path d="M2.7583 11.8770
L2.7686 11.8609
" />
<path d="M2.7593 13.3846
L2.7707 13.3890
" />
<path d="M2.7593 14.3554
L2.7477 14.3592
" />
<path d="M2.7681 11.3859
L2.7917 11.3850
" />
<path d="M2.7686 11.8609
L2.7797 11.8454
" />
<path d="M2.7707 13.3890
L2.7818 13.3940
" />
<path d="M2.7707 14.3510
L2.7593 14.3554
" />
<path d="M2.7797 11.8454
L2.7914 11.8304
" />
<path d="M2.7818 13.3940
L2.7927 13.3995
" />
<path d="M2.7818 14.3460
L2.7707 14.3510
" />
<path d="M2.7914 11.8304
L2.8040 11.8159
" />
<path d="M2.7917 11.3850
L7.2583 11.3850
" />
<path d="M2.7927 13.3995
L2.8034 13.4055
" />
<path d="M2.7927 14.3405
L2.7818 14.3460
" />
<path d="M2.8034 13.4055
L2.8137 13.4120
" />
<path d="M2.8034 14.3345
L2.7927 14.3405
" />
<path d="M2.8040 11.8159
L2.8172 11.8022
" />
<path d="M2.8137 13.4120
L2.8237 13.4191
" />
<path d="M2.8137 14.3280
L2.8034 14.3345
" />
</g>
<g style="fill:#000000; fill-opacity:1.0000; stroke:none;">
<circle cx="2.8172" cy="11.8022" r="0.0050" /> 
</g>
<g style="fill:none; 
stroke:#000000; stroke-width:0.0100; stroke-opacity:1; 
stroke-linecap:round; stroke-linejoin:round;">
<path d="M2.8172 11.8022
L2.8309 11.7890
" />
<path d="M2.8237 13.4191
L2.8334 13.4266
" />
<path d="M2.8237 14.3209
L2.8137 14.3280
" />
<path d="M2.8309 11.7890
L2.8454 11.7764
" />
<path d="M2.8334 13.4266
L2.8428 13.4347
" />
<path d="M2.8334 14.3134
L2.8237 14.3209
" />
<path d="M2.8428 13.4347
L2.8518 13.4432
" />
<path d="M2.8428 14.3053
L2.8334 14.3134
" />
<path d="M2.8454 11.7764
L2.8604 11.7647
" />
</g>
<g style="fill:#000000; fill-opacity:1.0000; stroke:none;">
<circle cx="2.8518" cy="13.4432" r="0.0050" /> 
</g>
<g style="fill:none; 
stroke:#000000; stroke-width:0.0100; stroke-opacity:1; 
stroke-linecap:round; stroke-linejoin:round;">
<path d="M2.8518 13.4432
L2.8603 13.4522
" />
<path d="M2.8518 14.2968
L2.8428 14.3053
" />
</g>
<g style="fill:#000000; fill-opacity:1.0000; stroke:none;">
<circle cx="2.8518" cy="14.2968" r="0.0050" /> 
</g>
<g style="fill:none; 
stroke:#000000; stroke-width:0.0100; stroke-opacity:1; 
stroke-linecap:round; stroke-linejoin:round;">
<path d="M2.8603 13.4522
L2.8684 13.4616
" />
<path d="M2.8603 14.2878
L2.8518 14.2968
" />
<path d="M2.8604 11.7647
L2.8759 11.7536
" />
<path d="M2.8684 13.4616
L2.8759 13.4713
" />
<path d="M2.8684 14.2784
L2.8603 14.2878
" />
<path d="M2.8759 11.7536
L2.8920 11.7433
" />
<path d="M2.8759 13.4713
L2.8830 13.4813
" />
<path d="M2.8759 14.2687
L2.8684 14.2784
" />
<path d="M2.8830 13.4813
L2.8895 13.4916
" />
<path d="M2.8830 14.2587
L2.8759 14.2687
" />
<path d="M2.8895 13.4916
L2.8955 13.5023
" />
<path d="M2.8895 14.2484
L2.8830 14.2587
" />
<path d="M2.8920 11.7433
L2.9086 11.7338
" />
<path d="M2.8955 13.5023
L2.9010 13.5132
" />
<path d="M2.8955 14.2377
L2.8895 14.2484
" />
<path d="M2.9010 13.5132
L2.9060 13.5243
" />
<path d="M2.9010 14.2268
L2.8955 14.2377
" />
<path d="M2.9060 13.5243
L2.9104 13.5357
" />
<path d="M2.9060 14.2157
L2.9010 14.2268
" />
<path d="M2.9086 11.7338
L2.9256 11.7251
" />
<path d="M2.9104 13.5357
L2.9142 13.5473
" />
<path d="M2.9104 14.2043
L2.9060 14.2157
" />
<path d="M2.9142 13.5473
L2.9175 13.5591
" />
<path d="M2.9142 14.1927
L2.9104 14.2043
" />
<path d="M2.9175 13.5591
L2.9202 13.5710
" />
<path d="M2.9175 14.1809
L2.9142 14.1927
" />
<path d="M2.9202 13.5710
L2.9223 13.5831
" />
<path d="M2.9202 14.1690
L2.9175 14.1809
" />
<path d="M2.9223 13.5831
L2.9238 13.5953
" />
<path d="M2.9223 14.1569
L2.9202 14.1690
" />
<path d="M2.9238 13.5953
L2.9247 13.6076
" />
<path d="M2.9238 14.1447
L2.9223 14.1569
" />
<path d="M2.9247 13.6076
L2.9250 13.6200
" />
<path d="M2.9247 14.1324
L2.9238 14.1447
" />
<path d="M2.9250 14.1200
L2.9247 14.1324
" />
<path d="M2.9250 14.1200
L2.9250 13.6200
" />
<path d="M2.9256 11.7251
L2.9430 11.7172
" />
<path d="M2.9430 11.7172
L2.9607 11.7101
" />
<path d="M2.9607 11.7101
L2.9788 11.7038
" />
<path d="M2.9788 11.7038
L2.9971 11.6985
" />
<path d="M2.9971 11.6985
L3.0157 11.6940
" />
<path d="M3.0157 11.6940
L3.0345 11.6903
" />
<path d="M3.0345 11.6903
L3.0535 11.6877
" />
<path d="M3.0535 11.6877
L3.0726 11.6859
" />
<path d="M3.0726 11.6859
L3.0918 11.6851
" />
<path d="M3.0918 11.6851
L3.1000 11.6850
" />
</g>
<g style="fill:#000000; fill-opacity:1.0000; stroke:none;">
<circle cx="3.4467" cy="0.6250" r="0.0050" /> 
</g>
<g style="fill:none; 
stroke:#000000; stroke-width:0.0100; stroke-opacity:1; 
stroke-linecap:round; stroke-linejoin:round;">
<path d="M3.4467 0.6250
L4.2156 0.6250
" />
<path d="M3.6850 11.8250
L3.6850 11.6850
" />
<path d="M3.7186 11.8250
L3.6850 11.8250
" />
</g>
<g style="fill:#000000; fill-opacity:1.0000; stroke:none;">
<circle cx="3.7186" cy="11.8250" r="0.0050" /> 
</g>
<g style="fill:none; 
stroke:#000000; stroke-width:0.0100; stroke-opacity:1; 
stroke-linecap:round; stroke-linejoin:round;">
<path d="M3.8177 11.8250
L3.7186 11.8250
" />
</g>
<g style="fill:#000000; fill-opacity:1.0000; stroke:none;">
<circle cx="3.8177" cy="11.8250" r="0.0050" /> 
</g>
<g style="fill:none; 
stroke:#000000; stroke-width:0.0100; stroke-opacity:1; 
stroke-linecap:round; stroke-linejoin:round;">
<path d="M3.9773 11.8250
L3.8177 11.8250
" />
</g>
<g style="fill:#000000; fill-opacity:1.0000; stroke:none;">
<circle cx="3.9773" cy="11.8250" r="0.0050" /> 
</g>
<g style="fill:none; 
stroke:#000000; stroke-width:0.0100; stroke-opacity:1; 
stroke-linecap:round; stroke-linejoin:round;">
<path d="M4.0500 7.1500
L4.0500 5.1500
" />
<path d="M4.0500 8.1500
L4.0500 7.1500
" />
<path d="M4.0500 10.0250
L1.2750 10.0250
" />
<path d="M4.0500 10.0250
L4.0500 8.1500
" />
<path d="M4.1895 11.8250
L3.9773 11.8250
" />
</g>
<g style="fill:#000000; fill-opacity:1.0000; stroke:none;">
<circle cx="4.1895" cy="11.8250" r="0.0050" /> 
<circle cx="4.2156" cy="0.6250" r="0.0050" /> 
</g>
<g style="fill:none; 
stroke:#000000; stroke-width:0.0100; stroke-opacity:1; 
stroke-linecap:round; stroke-linejoin:round;">
<path d="M4.2156 0.6250
L5.0250 0.6250
" />
<path d="M4.4436 11.8250
L4.1895 11.8250
" />
</g>
<g style="fill:#000000; fill-opacity:1.0000; stroke:none;">
<circle cx="4.4436" cy="11.8250" r="0.0050" /> 
</g>
<g style="fill:none; 
stroke:#000000; stroke-width:0.0100; stroke-opacity:1; 
stroke-linecap:round; stroke-linejoin:round;">
<path d="M4.7268 11.8250
L4.4436 11.8250
" />
</g>
<g style="fill:#000000; fill-opacity:1.0000; stroke:none;">
<circle cx="4.7268" cy="11.8250" r="0.0050" /> 
</g>
<g style="fill:none; 
stroke:#000000; stroke-width:0.0100; stroke-opacity:1; 
stroke-linecap:round; stroke-linejoin:round;">
<path d="M4.7650 14.5850
L4.7650 11.8250
" />
<path d="M4.7715 14.5850
L4.7650 14.5850
" />
</g>
<g style="fill:#000000; fill-opacity:1.0000; stroke:none;">
<circle cx="4.7715" cy="14.5850" r="0.0050" /> 
</g>
<g style="fill:none; 
stroke:#000000; stroke-width:0.0100; stroke-opacity:1; 
stroke-linecap:round; stroke-linejoin:round;">
<path d="M4.7907 14.5850
L4.7715 14.5850
" />
</g>
<g style="fill:#000000; fill-opacity:1.0000; stroke:none;">
<circle cx="4.7907" cy="14.5850" r="0.0050" /> 
</g>
<g style="fill:none; 
stroke:#000000; stroke-width:0.0100; stroke-opacity:1; 
stroke-linecap:round; stroke-linejoin:round;">
<path d="M4.8217 14.5850
L4.7907 14.5850
" />
</g>
<g style="fill:#000000; fill-opacity:1.0000; stroke:none;">
<circle cx="4.8217" cy="14.5850" r="0.0050" /> 
</g>
<g style="fill:none; 
stroke:#000000; stroke-width:0.0100; stroke-opacity:1; 
stroke-linecap:round; stroke-linejoin:round;">
<path d="M4.8629 14.5850
L4.8217 14.5850
" />
</g>
<g style="fill:#000000; fill-opacity:1.0000; stroke:none;">
<circle cx="4.8629" cy="14.5850" r="0.0050" /> 
</g>
<g style="fill:none; 
stroke:#000000; stroke-width:0.0100; stroke-opacity:1; 
stroke-linecap:round; stroke-linejoin:round;">
<path d="M4.9500 14.8850
L4.7650 14.5850
" />
</g>
<g style="fill:#000000; fill-opacity:1.0000; stroke:none;">
<circle cx="5.0250" cy="0.6250" r="0.0050" /> 
</g>
<g style="fill:none; 
stroke:#000000; stroke-width:0.0100; stroke-opacity:1; 
stroke-linecap:round; stroke-linejoin:round;">
<path d="M5.0250 0.6250
L5.8344 0.6250
" />
<path d="M5.0250 11.8250
L4.7268 11.8250
" />
</g>
<g style="fill:#000000; fill-opacity:1.0000; stroke:none;">
<circle cx="5.0250" cy="11.8250" r="0.0050" /> 
</g>
<g style="fill:none; 
stroke:#000000; stroke-width:0.0100; stroke-opacity:1; 
stroke-linecap:round; stroke-linejoin:round;">
<path d="M5.0250 14.5850
L4.8629 14.5850
" />
</g>
<g style="fill:#000000; fill-opacity:1.0000; stroke:none;">
<circle cx="5.0250" cy="14.5850" r="0.0050" /> 
</g>
<g style="fill:none; 
stroke:#000000; stroke-width:0.0100; stroke-opacity:1; 
stroke-linecap:round; stroke-linejoin:round;">
<path d="M5.1000 14.8850
L4.9500 14.8850
" />
<path d="M5.1000 14.8850
L5.2850 14.5850
" />
<path d="M5.1378 14.5850
L5.0250 14.5850
" />
</g>
<g style="fill:#000000; fill-opacity:1.0000; stroke:none;">
<circle cx="5.1378" cy="14.5850" r="0.0050" /> 
</g>
<g style="fill:none; 
stroke:#000000; stroke-width:0.0100; stroke-opacity:1; 
stroke-linecap:round; stroke-linejoin:round;">
<path d="M5.1871 14.5850
L5.1378 14.5850
" />
</g>
<g style="fill:#000000; fill-opacity:1.0000; stroke:none;">
<circle cx="5.1871" cy="14.5850" r="0.0050" /> 
</g>
<g style="fill:none; 
stroke:#000000; stroke-width:0.0100; stroke-opacity:1; 
stroke-linecap:round; stroke-linejoin:round;">
<path d="M5.2283 14.5850
L5.1871 14.5850
" />
</g>
<g style="fill:#000000; fill-opacity:1.0000; stroke:none;">
<circle cx="5.2283" cy="14.5850" r="0.0050" /> 
</g>
<g style="fill:none; 
stroke:#000000; stroke-width:0.0100; stroke-opacity:1; 
stroke-linecap:round; stroke-linejoin:round;">
<path d="M5.2593 14.5850
L5.2283 14.5850
" />
</g>
<g style="fill:#000000; fill-opacity:1.0000; stroke:none;">
<circle cx="5.2593" cy="14.5850" r="0.0050" /> 
</g>
<g style="fill:none; 
stroke:#000000; stroke-width:0.0100; stroke-opacity:1; 
stroke-linecap:round; stroke-linejoin:round;">
<path d="M5.2785 14.5850
L5.2593 14.5850
" />
</g>
<g style="fill:#000000; fill-opacity:1.0000; stroke:none;">
<circle cx="5.2785" cy="14.5850" r="0.0050" /> 
</g>
<g style="fill:none; 
stroke:#000000; stroke-width:0.0100; stroke-opacity:1; 
stroke-linecap:round; stroke-linejoin:round;">
<path d="M5.2850 14.5850
L5.2785 14.5850
" />
<path d="M5.2850 14.5850
L5.2850 11.8250
" />
<path d="M5.3232 11.8250
L5.0250 11.8250
" />
</g>
<g style="fill:#000000; fill-opacity:1.0000; stroke:none;">
<circle cx="5.3232" cy="11.8250" r="0.0050" /> 
</g>
<g style="fill:none; 
stroke:#000000; stroke-width:0.0100; stroke-opacity:1; 
stroke-linecap:round; stroke-linejoin:round;">
<path d="M5.6064 11.8250
L5.3232 11.8250
" />
</g>
<g style="fill:#000000; fill-opacity:1.0000; stroke:none;">
<circle cx="5.6064" cy="11.8250" r="0.0050" /> 
<circle cx="5.8344" cy="0.6250" r="0.0050" /> 
</g>
<g style="fill:none; 
stroke:#000000; stroke-width:0.0100; stroke-opacity:1; 
stroke-linecap:round; stroke-linejoin:round;">
<path d="M5.8344 0.6250
L6.6033 0.6250
" />
<path d="M5.8605 11.8250
L5.6064 11.8250
" />
</g>
<g style="fill:#000000; fill-opacity:1.0000; stroke:none;">
<circle cx="5.8605" cy="11.8250" r="0.0050" /> 
</g>
<g style="fill:none; 
stroke:#000000; stroke-width:0.0100; stroke-opacity:1; 
stroke-linecap:round; stroke-linejoin:round;">
<path d="M6.0000 5.1500
L4.0500 5.1500
" />
<path d="M6.0000 7.1500
L4.0500 7.1500
" />
<path d="M6.0000 7.1500
L6.0000 5.1500
" />
<path d="M6.0000 8.1500
L4.0500 8.1500
" />
<path d="M6.0000 8.1500
L6.0000 7.1500
" />
<path d="M6.0000 10.0250
L4.0500 10.0250
" />
<path d="M6.0000 10.0250
L6.0000 8.1500
" />
<path d="M6.0726 11.8250
L5.8605 11.8250
" />
</g>
<g style="fill:#000000; fill-opacity:1.0000; stroke:none;">
<circle cx="6.0726" cy="11.8250" r="0.0050" /> 
</g>
<g style="fill:none; 
stroke:#000000; stroke-width:0.0100; stroke-opacity:1; 
stroke-linecap:round; stroke-linejoin:round;">
<path d="M6.2323 11.8250
L6.0726 11.8250
" />
</g>
<g style="fill:#000000; fill-opacity:1.0000; stroke:none;">
<circle cx="6.2323" cy="11.8250" r="0.0050" /> 
</g>
<g style="fill:none; 
stroke:#000000; stroke-width:0.0100; stroke-opacity:1; 
stroke-linecap:round; stroke-linejoin:round;">
<path d="M6.3314 11.8250
L6.2323 11.8250
" />
</g>
<g style="fill:#000000; fill-opacity:1.0000; stroke:none;">
<circle cx="6.3314" cy="11.8250" r="0.0050" /> 
</g>
<g style="fill:none; 
stroke:#000000; stroke-width:0.0100; stroke-opacity:1; 
stroke-linecap:round; stroke-linejoin:round;">
<path d="M6.3650 11.8250
L6.3314 11.8250
" />
<path d="M6.3650 11.8250
L6.3650 11.6850
" />
</g>
<g style="fill:#000000; fill-opacity:1.0000; stroke:none;">
<circle cx="6.6033" cy="0.6250" r="0.0050" /> 
</g>
<g style="fill:none; 
stroke:#000000; stroke-width:0.0100; stroke-opacity:1; 
stroke-linecap:round; stroke-linejoin:round;">
<path d="M6.6033 0.6250
L7.2929 0.6250
" />
<path d="M6.9500 11.6850
L3.1000 11.6850
" />
<path d="M6.9500 11.6850
L6.9582 11.6851
" />
<path d="M6.9582 11.6851
L6.9774 11.6859
" />
<path d="M6.9774 11.6859
L6.9965 11.6877
" />
<path d="M6.9965 11.6877
L7.0155 11.6903
" />
<path d="M7.0155 11.6903
L7.0343 11.6940
" />
<path d="M7.0343 11.6940
L7.0529 11.6985
" />
<path d="M7.0529 11.6985
L7.0712 11.7038
" />
<path d="M7.0712 11.7038
L7.0893 11.7101
" />
<path d="M7.0893 11.7101
L7.1070 11.7172
" />
<path d="M7.1070 11.7172
L7.1244 11.7251
" />
<path d="M7.1244 11.7251
L7.1414 11.7338
" />
<path d="M7.1250 13.6200
L7.1250 14.1200
" />
<path d="M7.1250 13.6200
L7.1253 13.6076
" />
<path d="M7.1253 13.6076
L7.1262 13.5953
" />
<path d="M7.1253 14.1324
L7.1250 14.1200
" />
<path d="M7.1262 13.5953
L7.1277 13.5831
" />
<path d="M7.1262 14.1447
L7.1253 14.1324
" />
<path d="M7.1277 13.5831
L7.1298 13.5710
" />
<path d="M7.1277 14.1569
L7.1262 14.1447
" />
<path d="M7.1298 13.5710
L7.1325 13.5591
" />
<path d="M7.1298 14.1690
L7.1277 14.1569
" />
<path d="M7.1325 13.5591
L7.1358 13.5473
" />
<path d="M7.1325 14.1809
L7.1298 14.1690
" />
<path d="M7.1358 13.5473
L7.1396 13.5357
" />
<path d="M7.1358 14.1927
L7.1325 14.1809
" />
<path d="M7.1396 13.5357
L7.1440 13.5243
" />
<path d="M7.1396 14.2043
L7.1358 14.1927
" />
<path d="M7.1414 11.7338
L7.1580 11.7433
" />
<path d="M7.1440 13.5243
L7.1490 13.5132
" />
<path d="M7.1440 14.2157
L7.1396 14.2043
" />
<path d="M7.1490 13.5132
L7.1545 13.5023
" />
<path d="M7.1490 14.2268
L7.1440 14.2157
" />
<path d="M7.1545 13.5023
L7.1605 13.4916
" />
<path d="M7.1545 14.2377
L7.1490 14.2268
" />
<path d="M7.1580 11.7433
L7.1741 11.7536
" />
<path d="M7.1605 13.4916
L7.1670 13.4813
" />
<path d="M7.1605 14.2484
L7.1545 14.2377
" />
<path d="M7.1670 13.4813
L7.1741 13.4713
" />
<path d="M7.1670 14.2587
L7.1605 14.2484
" />
<path d="M7.1741 13.4713
L7.1816 13.4616
" />
<path d="M7.1741 14.2687
L7.1670 14.2587
" />
<path d="M7.1741 11.7536
L7.1896 11.7647
" />
<path d="M7.1816 13.4616
L7.1897 13.4522
" />
<path d="M7.1816 14.2784
L7.1741 14.2687
" />
<path d="M7.1896 11.7647
L7.2046 11.7764
" />
<path d="M7.1897 13.4522
L7.1982 13.4432
" />
<path d="M7.1897 14.2878
L7.1816 14.2784
" />
</g>
<g style="fill:#000000; fill-opacity:1.0000; stroke:none;">
<circle cx="7.1982" cy="13.4432" r="0.0050" /> 
</g>
<g style="fill:none; 
stroke:#000000; stroke-width:0.0100; stroke-opacity:1; 
stroke-linecap:round; stroke-linejoin:round;">
<path d="M7.1982 13.4432
L7.2072 13.4347
" />
<path d="M7.1982 14.2968
L7.1897 14.2878
" />
</g>
<g style="fill:#000000; fill-opacity:1.0000; stroke:none;">
<circle cx="7.1982" cy="14.2968" r="0.0050" /> 
</g>
<g style="fill:none; 
stroke:#000000; stroke-width:0.0100; stroke-opacity:1; 
stroke-linecap:round; stroke-linejoin:round;">
<path d="M7.2046 11.7764
L7.2191 11.7890
" />
<path d="M7.2072 13.4347
L7.2166 13.4266
" />
<path d="M7.2072 14.3053
L7.1982 14.2968
" />
<path d="M7.2166 13.4266
L7.2263 13.4191
" />
<path d="M7.2166 14.3134
L7.2072 14.3053
" />
<path d="M7.2191 11.7890
L7.2328 11.8022
" />
<path d="M7.2263 13.4191
L7.2363 13.4120
" />
<path d="M7.2263 14.3209
L7.2166 14.3134
" />
</g>
<g style="fill:#000000; fill-opacity:1.0000; stroke:none;">
<circle cx="7.2328" cy="11.8022" r="0.0050" /> 
</g>
<g style="fill:none; 
stroke:#000000; stroke-width:0.0100; stroke-opacity:1; 
stroke-linecap:round; stroke-linejoin:round;">
<path d="M7.2328 11.8022
L7.2460 11.8159
" />
<path d="M7.2363 13.4120
L7.2466 13.4055
" />
<path d="M7.2363 14.3280
L7.2263 14.3209
" />
<path d="M7.2460 11.8159
L7.2586 11.8304
" />
<path d="M7.2466 13.4055
L7.2573 13.3995
" />
<path d="M7.2466 14.3345
L7.2363 14.3280
" />
<path d="M7.2573 13.3995
L7.2682 13.3940
" />
<path d="M7.2573 14.3405
L7.2466 14.3345
" />
<path d="M7.2583 11.3850
L7.2819 11.3859
" />
<path d="M7.2583 11.3850
L8.3250 11.3850
" />
<path d="M7.2586 11.8304
L7.2703 11.8454
" />
<path d="M7.2682 13.3940
L7.2793 13.3890
" />
<path d="M7.2682 14.3460
L7.2573 14.3405
" />
<path d="M7.2703 11.8454
L7.2814 11.8609
" />
<path d="M7.2793 13.3890
L7.2907 13.3846
" />
<path d="M7.2793 14.3510
L7.2682 14.3460
" />
<path d="M7.2814 11.8609
L7.2917 11.8770
" />
<path d="M7.2819 11.3859
L7.3045 11.3878
" />
<path d="M7.2907 13.3846
L7.3023 13.3808
" />
<path d="M7.2907 14.3554
L7.2793 14.3510
" />
<path d="M7.2917 11.8770
L7.3012 11.8936
" />
</g>
<g style="fill:#000000; fill-opacity:1.0000; stroke:none;">
<circle cx="7.2929" cy="0.6250" r="0.0050" /> 
</g>
<g style="fill:none; 
stroke:#000000; stroke-width:0.0100; stroke-opacity:1; 
stroke-linecap:round; stroke-linejoin:round;">
<path d="M7.2929 0.6250
L7.8689 0.6250
" />
<path d="M7.3012 11.8936
L7.3099 11.9106
" />
<path d="M7.3023 13.3808
L7.3141 13.3775
" />
<path d="M7.3023 14.3592
L7.2907 14.3554
" />
<path d="M7.3045 11.3878
L7.3260 11.3907
" />
<path d="M7.3099 11.9106
L7.3178 11.9280
" />
<path d="M7.3141 13.3775
L7.3260 13.3748
" />
<path d="M7.3141 14.3625
L7.3023 14.3592
" />
<path d="M7.3178 11.9280
L7.3249 11.9457
" />
<path d="M7.3249 11.9457
L7.3312 11.9638
" />
<path d="M7.3260 13.3748
L7.3381 13.3727
" />
<path d="M7.3260 14.3652
L7.3141 14.3625
" />
<path d="M7.3260 11.3907
L7.3466 11.3946
" />
<path d="M7.3312 11.9638
L7.3365 11.9821
" />
<path d="M7.3365 11.9821
L7.3410 12.0007
" />
<path d="M7.3381 13.3727
L7.3503 13.3712
" />
<path d="M7.3381 14.3673
L7.3260 14.3652
" />
<path d="M7.3410 12.0007
L7.3447 12.0195
" />
<path d="M7.3447 12.0195
L7.3473 12.0385
" />
<path d="M7.3466 11.3946
L7.3663 11.3994
" />
<path d="M7.3473 12.0385
L7.3491 12.0576
" />
<path d="M7.3491 12.0576
L7.3499 12.0768
" />
<path d="M7.3499 12.0768
L7.3500 12.0850
" />
<path d="M7.3500 15.1785
L7.3500 15.0194
" />
<path d="M7.3500 12.0850
L7.3500 13.3712
" />
<path d="M7.3500 13.3712
L7.3750 13.3700
" />
<path d="M7.3500 14.3687
L7.3500 16.1250
" />
<path d="M7.3500 14.6657
L7.3500 14.4750
" />
<path d="M7.3500 14.8471
L7.3500 14.7146
" />
<path d="M7.3503 13.3712
L7.3626 13.3703
" />
<path d="M7.3503 14.3688
L7.3381 14.3673
" />
</g>
<g style="fill:#000000; fill-opacity:1.0000; stroke:none;">
<circle cx="7.3583" cy="14.3694" r="0.0050" /> 
</g>
<g style="fill:none; 
stroke:#000000; stroke-width:0.0100; stroke-opacity:1; 
stroke-linecap:round; stroke-linejoin:round;">
<path d="M7.3626 13.3703
L7.3750 13.3700
" />
<path d="M7.3626 14.3697
L7.3503 14.3688
" />
<path d="M7.3663 11.3994
L7.3851 11.4051
" />
<path d="M7.3750 13.3700
L7.5983 13.3700
" />
<path d="M7.3750 14.3700
L7.3500 14.3687
" />
<path d="M7.3750 14.3700
L7.3626 14.3697
" />
<path d="M7.3851 11.4051
L7.4031 11.4115
" />
<path d="M7.4031 11.4115
L7.4204 11.4188
" />
<path d="M7.4204 11.4188
L7.4369 11.4267
" />
<path d="M7.4369 11.4267
L7.4528 11.4354
" />
<path d="M7.4528 11.4354
L7.4680 11.4446
" />
<path d="M7.4680 11.4446
L7.4826 11.4545
" />
<path d="M7.4826 11.4545
L7.4967 11.4649
" />
<path d="M7.4967 11.4649
L7.5103 11.4757
" />
<path d="M7.5103 11.4757
L7.5235 11.4871
" />
<path d="M7.5235 11.4871
L7.5362 11.4988
" />
</g>
<g style="fill:#000000; fill-opacity:1.0000; stroke:none;">
<circle cx="7.5362" cy="11.4988" r="0.0050" /> 
</g>
<g style="fill:none; 
stroke:#000000; stroke-width:0.0100; stroke-opacity:1; 
stroke-linecap:round; stroke-linejoin:round;">
<path d="M7.5362 11.4988
L7.5479 11.5115
" />
<path d="M7.5479 11.5115
L7.5593 11.5247
" />
<path d="M7.5593 11.5247
L7.5701 11.5383
" />
<path d="M7.5701 11.5383
L7.5805 11.5524
" />
<path d="M7.5805 11.5524
L7.5904 11.5670
" />
<path d="M7.5904 11.5670
L7.5996 11.5822
" />
<path d="M7.5983 13.3700
L7.5998 13.3702
" />
<path d="M7.5983 14.3700
L7.3750 14.3700
" />
<path d="M7.5996 11.5822
L7.6083 11.5981
" />
<path d="M7.5998 13.3702
L7.6014 13.3706
" />
<path d="M7.5998 14.3698
L7.5983 14.3700
" />
<path d="M7.6014 13.3706
L7.6029 13.3711
" />
<path d="M7.6014 14.3694
L7.5998 14.3698
" />
<path d="M7.6029 13.3711
L7.6043 13.3718
" />
<path d="M7.6029 14.3689
L7.6014 14.3694
" />
<path d="M7.6043 13.3718
L7.6057 13.3727
" />
<path d="M7.6043 14.3682
L7.6029 14.3689
" />
<path d="M7.6057 13.3727
L7.6071 13.3737
" />
<path d="M7.6057 14.3673
L7.6043 14.3682
" />
<path d="M7.6071 13.3737
L7.6085 13.3749
" />
<path d="M7.6071 14.3663
L7.6057 14.3673
" />
<path d="M7.6083 11.5981
L7.6162 11.6146
" />
<path d="M7.6085 13.3749
L7.6098 13.3762
" />
<path d="M7.6098 13.3762
L7.6111 13.3777
" />
<path d="M7.6098 14.3638
L7.6071 14.3663
" />
<path d="M7.6111 13.3777
L7.6124 13.3793
" />
<path d="M7.6124 13.3793
L7.6136 13.3810
" />
<path d="M7.6124 14.3607
L7.6098 14.3638
" />
<path d="M7.6136 13.3810
L7.6149 13.3829
" />
<path d="M7.6149 13.3829
L7.6161 13.3849
" />
<path d="M7.6149 14.3571
L7.6124 14.3607
" />
<path d="M7.6161 13.3849
L7.6172 13.3870
" />
<path d="M7.6162 11.6146
L7.6235 11.6319
" />
<path d="M7.6172 13.3870
L7.6184 13.3893
" />
<path d="M7.6172 14.3530
L7.6149 14.3571
" />
<path d="M7.6184 13.3893
L7.6195 13.3917
" />
<path d="M7.6195 13.3917
L7.6216 13.3968
" />
<path d="M7.6195 14.3483
L7.6172 14.3530
" />
<path d="M7.6216 13.3968
L7.6237 13.4023
" />
<path d="M7.6216 14.3432
L7.6195 14.3483
" />
<path d="M7.6235 11.6319
L7.6299 11.6499
" />
<path d="M7.6237 13.4023
L7.6257 13.4082
" />
<path d="M7.6237 14.3377
L7.6216 14.3432
" />
<path d="M7.6257 13.4082
L7.6277 13.4145
" />
<path d="M7.6257 14.3318
L7.6237 14.3377
" />
<path d="M7.6277 13.4145
L7.6295 13.4211
" />
<path d="M7.6277 14.3255
L7.6257 14.3318
" />
<path d="M7.6295 13.4211
L7.6313 13.4280
" />
<path d="M7.6299 11.6499
L7.6356 11.6687
" />
<path d="M7.6313 13.4280
L7.6330 13.4352
" />
<path d="M7.6313 14.3120
L7.6277 14.3255
" />
<path d="M7.6330 13.4352
L7.6347 13.4427
" />
</g>
<g style="fill:#000000; fill-opacity:1.0000; stroke:none;">
<circle cx="7.6347" cy="13.4427" r="0.0050" /> 
</g>
<g style="fill:none; 
stroke:#000000; stroke-width:0.0100; stroke-opacity:1; 
stroke-linecap:round; stroke-linejoin:round;">
<path d="M7.6347 13.4427
L7.6378 13.4592
" />
<path d="M7.6347 14.2973
L7.6313 14.3120
" />
</g>
<g style="fill:#000000; fill-opacity:1.0000; stroke:none;">
<circle cx="7.6347" cy="14.2973" r="0.0050" /> 
</g>
<g style="fill:none; 
stroke:#000000; stroke-width:0.0100; stroke-opacity:1; 
stroke-linecap:round; stroke-linejoin:round;">
<path d="M7.6356 11.6687
L7.6404 11.6884
" />
<path d="M7.6378 13.4592
L7.6406 13.4768
" />
<path d="M7.6378 14.2808
L7.6347 14.2973
" />
<path d="M7.6404 11.6884
L7.6443 11.7090
" />
<path d="M7.6406 13.4768
L7.6432 13.4958
" />
<path d="M7.6406 14.2632
L7.6378 14.2808
" />
<path d="M7.6432 13.4958
L7.6454 13.5163
" />
<path d="M7.6432 14.2442
L7.6406 14.2632
" />
<path d="M7.6443 11.7090
L7.6472 11.7305
" />
<path d="M7.6454 13.5163
L7.6473 13.5388
" />
<path d="M7.6454 14.2237
L7.6432 14.2442
" />
<path d="M7.6472 11.7305
L7.6491 11.7531
" />
<path d="M7.6473 13.5388
L7.6487 13.5633
" />
<path d="M7.6473 14.2012
L7.6454 14.2237
" />
<path d="M7.6487 13.5633
L7.6496 13.5903
" />
<path d="M7.6487 14.1767
L7.6473 14.2012
" />
<path d="M7.6491 11.7531
L7.6500 11.7767
" />
<path d="M7.6496 13.5903
L7.6500 13.6200
" />
<path d="M7.6496 14.1497
L7.6487 14.1767
" />
<path d="M7.6500 11.7767
L7.6500 13.6200
" />
<path d="M7.6500 14.1200
L7.6496 14.1497
" />
<path d="M7.6500 14.1200
L7.6500 16.1250
" />
<path d="M7.6500 16.1250
L2.4000 16.1250
" />
</g>
<g style="fill:#000000; fill-opacity:1.0000; stroke:none;">
<circle cx="7.8689" cy="0.6250" r="0.0050" /> 
</g>
<g style="fill:none; 
stroke:#000000; stroke-width:0.0100; stroke-opacity:1; 
stroke-linecap:round; stroke-linejoin:round;">
<path d="M7.8689 0.6250
L8.3023 0.6250
" />
</g>
<g style="fill:#000000; fill-opacity:1.0000; stroke:none;">
<circle cx="8.3023" cy="0.6250" r="0.0050" /> 
</g>
<g style="fill:none; 
stroke:#000000; stroke-width:0.0100; stroke-opacity:1; 
stroke-linecap:round; stroke-linejoin:round;">
<path d="M8.3023 0.6250
L8.5713 0.6250
" />
<path d="M8.3250 11.3850
L8.3365 11.3846
" />
<path d="M8.3365 11.3846
L8.3478 11.3836
" />
<path d="M8.3478 11.3836
L8.3587 11.3821
" />
<path d="M8.3587 11.3821
L8.3694 11.3800
" />
<path d="M8.3694 11.3800
L8.3798 11.3774
" />
<path d="M8.3731 11.3791
L8.3698 11.3799
" />
<path d="M8.3765 11.3783
L8.3731 11.3791
" />
<path d="M8.3798 11.3774
L8.3765 11.3783
" />
<path d="M8.3798 11.3774
L8.3898 11.3743
" />
<path d="M8.3830 11.3764
L8.3798 11.3774
" />
<path d="M8.3898 11.3743
L8.3996 11.3707
" />
<path d="M8.3996 11.3707
L8.4090 11.3666
" />
<path d="M8.4090 11.3666
L8.4181 11.3621
" />
<path d="M8.4181 11.3621
L8.4269 11.3572
" />
<path d="M8.4189 10.6284
L8.4122 10.6250
" />
<path d="M8.4255 10.6320
L8.4189 10.6284
" />
<path d="M8.4269 11.3572
L8.4354 11.3518
" />
<path d="M8.4353 11.3519
L8.4325 11.3536
" />
<path d="M8.4354 11.3518
L8.4435 11.3461
" />
<path d="M8.4380 11.3500
L8.4353 11.3519
" />
<path d="M8.4380 10.6399
L8.4255 10.6320
" />
<path d="M8.4400 10.6250
L8.4450 10.6251
" />
<path d="M8.4406 11.3482
L8.4380 11.3500
" />
<path d="M8.4433 11.3463
L8.4406 11.3482
" />
<path d="M8.4435 11.3461
L8.4513 11.3401
" />
<path d="M8.4450 10.6251
L8.4499 10.6255
" />
<path d="M8.4459 11.3444
L8.4433 11.3463
" />
<path d="M8.4484 11.3424
L8.4459 11.3444
" />
<path d="M8.4498 10.6486
L8.4380 10.6399
" />
<path d="M8.4499 10.6255
L8.4548 10.6261
" />
<path d="M8.4510 11.3404
L8.4484 11.3424
" />
<path d="M8.4513 11.3401
L8.4587 11.3337
" />
<path d="M8.4519 10.6504
L8.4540 10.6522
" />
<path d="M8.4535 11.3383
L8.4510 11.3404
" />
<path d="M8.4540 10.6522
L8.4561 10.6539
" />
<path d="M8.4548 10.6261
L8.4596 10.6269
" />
<path d="M8.4561 10.6539
L8.4581 10.6557
" />
<path d="M8.4581 10.6557
L8.4601 10.6575
" />
<path d="M8.4587 11.3337
L8.4657 11.3269
" />
<path d="M8.4596 10.6269
L8.4644 10.6280
" />
<path d="M8.4601 10.6575
L8.4621 10.6593
" />
<path d="M8.4607 10.6580
L8.4498 10.6486
" />
<path d="M8.4621 10.6593
L8.4640 10.6612
" />
<path d="M8.4640 10.6612
L8.4659 10.6631
" />
<path d="M8.4644 10.6280
L8.4691 10.6293
" />
<path d="M8.4657 11.3269
L8.4724 11.3199
" />
<path d="M8.4659 10.6631
L8.4678 10.6650
" />
<path d="M8.4691 10.6293
L8.4737 10.6309
" />
<path d="M8.4709 10.6682
L8.4607 10.6580
" />
<path d="M8.4724 11.3199
L8.4787 11.3126
" />
<path d="M8.4737 10.6309
L8.4783 10.6326
" />
<path d="M8.4768 11.3153
L8.4726 11.3200
" />
<path d="M8.4783 10.6326
L8.4827 10.6346
" />
<path d="M8.4787 11.3126
L8.4847 11.3051
" />
<path d="M8.4802 10.6789
L8.4709 10.6682
" />
<path d="M8.4808 11.3104
L8.4768 11.3153
" />
<path d="M8.4827 10.6346
L8.4871 10.6368
" />
<path d="M8.4838 10.6834
L8.4871 10.6879
" />
<path d="M8.4847 11.3051
L8.4903 11.2973
" />
<path d="M8.4847 11.3054
L8.4808 11.3104
" />
<path d="M8.4871 10.6368
L8.4913 10.6392
" />
<path d="M8.4871 10.6879
L8.4903 10.6925
" />
<path d="M8.4884 11.3003
L8.4847 11.3054
" />
<path d="M8.4887 10.6903
L8.4802 10.6789
" />
<path d="M8.4903 11.2973
L8.4954 11.2894
" />
<path d="M8.4903 10.6925
L8.4934 10.6971
" />
<path d="M8.4913 10.6392
L8.4955 10.6418
" />
<path d="M8.4920 11.2950
L8.4884 11.3003
" />
<path d="M8.4934 10.6971
L8.4964 10.7019
" />
<path d="M8.4954 11.2897
L8.4920 11.2950
" />
<path d="M8.4954 11.2894
L8.5002 11.2812
" />
<path d="M8.4955 10.6418
L8.4995 10.6446
" />
<path d="M8.4963 10.7020
L8.4887 10.6903
" />
<path d="M8.4964 10.7019
L8.4992 10.7067
" />
<path d="M8.4986 11.2842
L8.4954 11.2897
" />
<path d="M8.4992 10.7067
L8.5019 10.7116
" />
<path d="M8.4995 10.6446
L8.5034 10.6476
" />
<path d="M8.5002 11.2812
L8.5046 11.2729
" />
<path d="M8.5017 11.2787
L8.4986 11.2842
" />
<path d="M8.5019 10.7116
L8.5044 10.7166
" />
<path d="M8.5031 10.7142
L8.4963 10.7020
" />
<path d="M8.5034 10.6476
L8.5071 10.6509
" />
<path d="M8.5044 10.7166
L8.5068 10.7217
" />
<path d="M8.5046 11.2729
L8.5086 11.2644
" />
<path d="M8.5071 10.6509
L8.5107 10.6543
" />
<path d="M8.5086 11.2644
L8.5121 11.2558
" />
<path d="M8.5090 10.7267
L8.5031 10.7142
" />
<path d="M8.5099 11.2613
L8.5078 11.2661
" />
</g>
<g style="fill:#000000; fill-opacity:1.0000; stroke:none;">
<circle cx="8.5107" cy="10.6543" r="0.0050" /> 
</g>
<g style="fill:none; 
stroke:#000000; stroke-width:0.0100; stroke-opacity:1; 
stroke-linecap:round; stroke-linejoin:round;">
<path d="M8.5107 10.6543
L8.5141 10.6579
" />
<path d="M8.5118 11.2565
L8.5099 11.2613
" />
<path d="M8.5121 11.2558
L8.5153 11.2471
" />
<path d="M8.5124 10.7353
L8.5140 10.7395
" />
<path d="M8.5136 11.2516
L8.5118 11.2565
" />
<path d="M8.5140 10.7395
L8.5154 10.7437
" />
<path d="M8.5140 10.7395
L8.5090 10.7267
" />
<path d="M8.5141 10.6579
L8.5174 10.6616
" />
<path d="M8.5153 11.2471
L8.5180 11.2383
" />
<path d="M8.5153 11.2466
L8.5136 11.2516
" />
<path d="M8.5154 10.7437
L8.5167 10.7479
" />
<path d="M8.5167 10.7479
L8.5179 10.7522
" />
<path d="M8.5168 11.2416
L8.5153 11.2466
" />
<path d="M8.5174 10.6616
L8.5204 10.6655
" />
<path d="M8.5179 10.7522
L8.5190 10.7565
" />
<path d="M8.5180 11.2383
L8.5203 11.2294
" />
<path d="M8.5181 10.7525
L8.5140 10.7395
" />
<path d="M8.5182 11.2366
L8.5168 11.2416
" />
<path d="M8.5190 10.7565
L8.5201 10.7609
" />
<path d="M8.5195 11.2316
L8.5182 11.2366
" />
<path d="M8.5201 10.7609
L8.5210 10.7652
" />
<path d="M8.5203 11.2294
L8.5221 11.2205
" />
<path d="M8.5204 10.6655
L8.5232 10.6695
" />
<path d="M8.5207 11.2265
L8.5195 11.2316
" />
<path d="M8.5210 10.7652
L8.5218 10.7696
" />
<path d="M8.5212 10.7656
L8.5181 10.7525
" />
<path d="M8.5217 11.2214
L8.5207 11.2265
" />
<path d="M8.5218 10.7696
L8.5226 10.7740
" />
<path d="M8.5221 11.2205
L8.5235 11.2116
" />
<path d="M8.5225 11.2162
L8.5217 11.2214
" />
<path d="M8.5226 10.7740
L8.5232 10.7784
" />
<path d="M8.5232 10.6695
L8.5258 10.6737
" />
<path d="M8.5232 10.7784
L8.5238 10.7828
" />
<path d="M8.5233 11.2111
L8.5225 11.2162
" />
<path d="M8.5234 10.7788
L8.5212 10.7656
" />
<path d="M8.5235 11.2116
L8.5245 11.2027
" />
<path d="M8.5238 10.7828
L8.5242 10.7872
" />
<path d="M8.5239 11.2059
L8.5233 11.2111
" />
<path d="M8.5242 10.7872
L8.5246 10.7916
" />
<path d="M8.5244 11.2007
L8.5239 11.2059
" />
<path d="M8.5245 11.2027
L8.5250 11.1938
" />
<path d="M8.5246 10.7916
L8.5248 10.7961
" />
<path d="M8.5247 10.7919
L8.5234 10.7788
" />
<path d="M8.5247 11.1955
L8.5244 11.2007
" />
<path d="M8.5248 10.7961
L8.5250 10.8005
" />
<path d="M8.5249 11.1902
L8.5247 11.1955
" />
<path d="M8.5250 10.8005
L8.5250 10.8050
" />
<path d="M8.5250 11.1938
L8.5250 11.1850
" />
<path d="M8.5250 10.8050
L8.5247 10.7919
" />
<path d="M8.5250 11.1850
L8.5249 11.1902
" />
<path d="M8.5250 11.1850
L8.5250 10.8050
" />
<path d="M8.5250 11.1850
L8.5250 11.7550
" />
<path d="M8.5250 11.7550
L8.7750 11.7550
" />
<path d="M8.5250 23.0750
L1.5250 23.0750
" />
<path d="M8.5250 23.0750
L8.5359 23.0750
" />
<path d="M8.5258 10.6737
L8.5282 10.6779
" />
<path d="M8.5282 10.6779
L8.5304 10.6823
" />
<path d="M8.5304 10.6823
L8.5324 10.6867
" />
<path d="M8.5324 10.6867
L8.5341 10.6913
" />
<path d="M8.5341 10.6913
L8.5357 10.6959
" />
<path d="M8.5357 10.6959
L8.5370 10.7006
" />
<path d="M8.5359 23.0750
L8.5468 23.0744
" />
<path d="M8.5370 10.7006
L8.5381 10.7054
" />
<path d="M8.5381 10.7054
L8.5389 10.7102
" />
<path d="M8.5389 10.7102
L8.5395 10.7151
" />
<path d="M8.5395 10.7151
L8.5399 10.7200
" />
<path d="M8.5399 10.7200
L8.5400 10.7250
" />
<path d="M8.5400 11.1250
L8.5400 10.7250
" />
<path d="M8.5400 11.1250
L8.5403 11.1381
" />
<path d="M8.5403 11.1381
L8.5411 11.1511
" />
<path d="M8.5411 11.1511
L8.5425 11.1640
" />
<path d="M8.5425 11.1640
L8.5445 11.1767
" />
<path d="M8.5445 11.1767
L8.5469 11.1893
" />
<path d="M8.5468 23.0744
L8.5578 23.0732
" />
<path d="M8.5469 11.1893
L8.5499 11.2016
" />
<path d="M8.5499 11.2016
L8.5534 11.2138
" />
<path d="M8.5534 11.2138
L8.5574 11.2258
" />
<path d="M8.5574 11.2258
L8.5619 11.2376
" />
<path d="M8.5578 23.0732
L8.5688 23.0715
" />
<path d="M8.5619 11.2376
L8.5668 11.2491
" />
<path d="M8.5668 11.2491
L8.5782 11.2714
" />
<path d="M8.5688 23.0715
L8.5798 23.0692
" />
</g>
<g style="fill:#000000; fill-opacity:1.0000; stroke:none;">
<circle cx="8.5713" cy="0.6250" r="0.0050" /> 
</g>
<g style="fill:none; 
stroke:#000000; stroke-width:0.0100; stroke-opacity:1; 
stroke-linecap:round; stroke-linejoin:round;">
<path d="M8.5713 0.6250
L8.6625 0.6250
" />
<path d="M8.5782 11.2714
L8.5912 11.2927
" />
<path d="M8.5798 23.0692
L8.5908 23.0664
" />
<path d="M8.5908 23.0664
L8.6017 23.0631
" />
<path d="M8.5912 11.2927
L8.6060 11.3127
" />
<path d="M8.6017 23.0631
L8.6125 23.0593
" />
<path d="M8.6060 11.3127
L8.6224 11.3315
" />
<path d="M8.6125 23.0593
L8.6232 23.0549
" />
<path d="M8.6224 11.3315
L8.6403 11.3489
" />
<path d="M8.6232 23.0549
L8.6338 23.0500
" />
<path d="M8.6338 23.0500
L8.6442 23.0446
" />
<path d="M8.6403 11.3489
L8.6597 11.3648
" />
<path d="M8.6442 23.0446
L8.6544 23.0387
" />
<path d="M8.6544 23.0387
L8.6643 23.0323
" />
<path d="M8.6597 11.3648
L8.6698 11.3721
" />
<path d="M8.6625 0.6250
L8.6675 0.6251
" />
<path d="M8.6643 23.0323
L8.6741 23.0255
" />
<path d="M8.6675 0.6251
L8.6724 0.6255
" />
<path d="M8.6698 11.3721
L8.6804 11.3790
" />
<path d="M8.6724 0.6255
L8.6773 0.6261
" />
<path d="M8.6741 23.0255
L8.6835 23.0181
" />
<path d="M8.6773 0.6261
L8.6821 0.6269
" />
<path d="M8.6804 11.3790
L8.6912 11.3855
" />
<path d="M8.6821 0.6269
L8.6869 0.6280
" />
<path d="M8.6835 23.0181
L8.6926 23.0103
" />
<path d="M8.6869 0.6280
L8.6916 0.6293
" />
<path d="M8.6912 11.3855
L8.7023 11.3916
" />
<path d="M8.6916 0.6293
L8.6962 0.6309
" />
<path d="M8.6926 23.0103
L8.7014 23.0019
" />
<path d="M8.6962 0.6309
L8.7008 0.6326
" />
<path d="M8.7008 0.6326
L8.7052 0.6346
" />
<path d="M8.7014 23.0019
L8.7099 22.9932
" />
<path d="M8.7023 11.3916
L8.7138 11.3972
" />
<path d="M8.7052 0.6346
L8.7096 0.6368
" />
<path d="M8.7096 0.6368
L8.7138 0.6392
" />
<path d="M8.7099 22.9932
L8.7179 22.9839
" />
<path d="M8.7138 11.3972
L8.7255 11.4023
" />
<path d="M8.7138 0.6392
L8.7180 0.6418
" />
<path d="M8.7179 22.9839
L8.7256 22.9743
" />
<path d="M8.7180 0.6418
L8.7220 0.6446
" />
<path d="M8.7220 0.6446
L8.7259 0.6476
" />
<path d="M8.7255 11.4023
L8.7375 11.4070
" />
<path d="M8.7256 22.9743
L8.7328 22.9641
" />
<path d="M8.7259 0.6476
L8.7296 0.6509
" />
<path d="M8.7296 0.6509
L8.7332 0.6543
" />
<path d="M8.7328 22.9641
L8.7395 22.9536
" />
</g>
<g style="fill:#000000; fill-opacity:1.0000; stroke:none;">
<circle cx="8.7332" cy="0.6543" r="0.0050" /> 
</g>
<g style="fill:none; 
stroke:#000000; stroke-width:0.0100; stroke-opacity:1; 
stroke-linecap:round; stroke-linejoin:round;">
<path d="M8.7332 0.6543
L8.7366 0.6579
" />
<path d="M8.7366 0.6579
L8.7399 0.6616
" />
<path d="M8.7375 11.4070
L8.7497 11.4111
" />
<path d="M8.7395 22.9536
L8.7458 22.9425
" />
<path d="M8.7399 0.6616
L8.7429 0.6655
" />
<path d="M8.7429 0.6655
L8.7457 0.6695
" />
<path d="M8.7457 0.6695
L8.7483 0.6737
" />
<path d="M8.7458 22.9425
L8.7515 22.9311
" />
<path d="M8.7483 0.6737
L8.7507 0.6779
" />
<path d="M8.7497 11.4111
L8.7622 11.4147
" />
<path d="M8.7507 0.6779
L8.7529 0.6823
" />
<path d="M8.7515 22.9311
L8.7566 22.9193
" />
<path d="M8.7529 0.6823
L8.7549 0.6867
" />
<path d="M8.7549 0.6867
L8.7566 0.6913
" />
<path d="M8.7566 22.9193
L8.7612 22.9070
" />
<path d="M8.7566 0.6913
L8.7582 0.6959
" />
<path d="M8.7582 0.6959
L8.7595 0.7006
" />
<path d="M8.7595 0.7006
L8.7606 0.7054
" />
<path d="M8.7606 0.7054
L8.7614 0.7102
" />
<path d="M8.7612 22.9070
L8.7652 22.8943
" />
<path d="M8.7614 0.7102
L8.7620 0.7151
" />
<path d="M8.7620 0.7151
L8.7624 0.7200
" />
<path d="M8.7622 11.4147
L8.7750 11.4179
" />
<path d="M8.7624 0.7200
L8.7625 0.7250
" />
<path d="M8.7625 0.7250
L8.7625 10.0250
" />
<path d="M8.7652 22.8943
L8.7685 22.8812
" />
<path d="M8.7685 22.8812
L8.7712 22.8678
" />
<path d="M8.7712 22.8678
L8.7732 22.8539
" />
<path d="M8.7732 22.8539
L8.7745 22.8396
" />
<path d="M8.7745 22.8396
L8.7750 22.8250
" />
<path d="M8.7750 10.0250
L6.0000 10.0250
" />
<path d="M8.7750 10.0250
L9.1285 10.0250
" />
<path d="M8.7750 11.4179
L8.7831 11.4195
" />
<path d="M8.7750 13.8520
L8.7750 14.0241
" />
<path d="M8.7750 14.1915
L8.7750 14.3202
" />
<path d="M8.7750 14.6299
L8.7750 14.7586
" />
<path d="M8.7750 14.9258
L8.7750 15.0980
" />
<path d="M8.7750 20.8520
L8.7750 21.0241
" />
<path d="M8.7750 21.1915
L8.7750 21.3202
" />
<path d="M8.7750 21.6299
L8.7750 21.7586
" />
<path d="M8.7750 21.9258
L8.7750 22.0980
" />
<path d="M8.7750 22.8250
L8.7750 11.7550
" />
<path d="M8.7831 11.4195
L8.7750 11.4179
" />
<path d="M8.7831 11.4195
L8.7912 11.4210
" />
<path d="M8.7912 11.4210
L8.7831 11.4195
" />
<path d="M8.7912 11.4210
L8.7993 11.4222
" />
<path d="M8.7993 11.4222
L8.7912 11.4210
" />
<path d="M8.7993 11.4222
L8.8074 11.4232
" />
<path d="M8.8074 11.4232
L8.7993 11.4222
" />
<path d="M8.8074 11.4232
L8.8155 11.4240
" />
<path d="M8.8155 11.4240
L8.8074 11.4232
" />
<path d="M8.8155 11.4240
L8.8237 11.4246
" />
<path d="M8.8237 11.4246
L8.8155 11.4240
" />
<path d="M8.8237 11.4246
L8.8318 11.4249
" />
<path d="M8.8318 11.4249
L8.8237 11.4246
" />
<path d="M8.8318 11.4249
L8.8400 11.4250
" />
<path d="M8.8400 11.4250
L8.8318 11.4249
" />
</g>
<g style="fill:#000000; fill-opacity:1.0000; stroke:none;">
<circle cx="9.1285" cy="10.0250" r="0.0050" /> 
</g>
<g style="fill:none; 
stroke:#000000; stroke-width:0.0100; stroke-opacity:1; 
stroke-linecap:round; stroke-linejoin:round;">
<path d="M9.1285 10.0250
L9.2750 10.0250
" />
<path d="M9.1508 11.4250
L8.8400 11.4250
" />
</g>
<g style="fill:#000000; fill-opacity:1.0000; stroke:none;">
<circle cx="9.1508" cy="11.4250" r="0.0050" /> 
</g>
<g style="fill:none; 
stroke:#000000; stroke-width:0.0100; stroke-opacity:1; 
stroke-linecap:round; stroke-linejoin:round;">
<path d="M9.2750 11.4250
L9.1508 11.4250
" />
<path d="M9.2750 11.4250
L9.2750 10.0250
" />
</g> 
</svg>
