{
  "accessors": [
    {
      "bufferView": 0,
      "byteOffset": 0,
      "componentType": 5126,
      "normalized": false,
      "count": 115,
      "type": "VEC3",
      "max": [
        0.749477744102478,
        0.3500576913356781,
        0.5494632124900818
      ],
      "min": [
        -0.7494773864746094,
        0.2699999511241913,
        -0.549477756023407
      ]
    },
    {
      "bufferView": 0,
      "byteOffset": 12,
      "componentType": 5126,
      "normalized": false,
      "count": 115,
      "type": "VEC3"
    },
    {
      "bufferView": 0,
      "byteOffset": 24,
      "componentType": 5126,
      "normalized": false,
      "count": 115,
      "type": "VEC2"
    },
    {
      "bufferView": 0,
      "byteOffset": 32,
      "componentType": 5126,
      "normalized": false,
      "count": 115,
      "type": "VEC2"
    },
    {
      "bufferView": 1,
      "byteOffset": 0,
      "componentType": 5123,
      "normalized": false,
      "count": 354,
      "type": "SCALAR"
    },
    {
      "bufferView": 1,
      "byteOffset": 708,
      "componentType": 5123,
      "normalized": false,
      "count": 498,
      "type": "SCALAR"
    },
    {
      "bufferView": 1,
      "byteOffset": 1704,
      "componentType": 5123,
      "normalized": false,
      "count": 246,
      "type": "SCALAR"
    },
    {
      "bufferView": 2,
      "byteOffset": 0,
      "componentType": 5126,
      "normalized": false,
      "count": 252,
      "type": "VEC3",
      "max": [
        0.800000011920929,
        0.270035982131958,
        0.5999756455421448
      ],
      "min": [
        -0.800000011920929,
        -2.622683226150002e-08,
        -0.5999999642372131
      ]
    },
    {
      "bufferView": 2,
      "byteOffset": 12,
      "componentType": 5126,
      "normalized": false,
      "count": 252,
      "type": "VEC3"
    },
    {
      "bufferView": 2,
      "byteOffset": 24,
      "componentType": 5126,
      "normalized": false,
      "count": 252,
      "type": "VEC2"
    },
    {
      "bufferView": 2,
      "byteOffset": 32,
      "componentType": 5126,
      "normalized": false,
      "count": 252,
      "type": "VEC2"
    },
    {
      "bufferView": 3,
      "byteOffset": 0,
      "componentType": 5126,
      "normalized": false,
      "count": 126,
      "type": "VEC3",
      "max": [
        0.800000011920929,
        0.10000607371330261,
        0.5999756455421448
      ],
      "min": [
        -0.800000011920929,
        -2.622683226150002e-08,
        -0.5999999642372131
      ]
    },
    {
      "bufferView": 3,
      "byteOffset": 12,
      "componentType": 5126,
      "normalized": false,
      "count": 126,
      "type": "VEC3"
    },
    {
      "bufferView": 3,
      "byteOffset": 24,
      "componentType": 5126,
      "normalized": false,
      "count": 126,
      "type": "VEC2"
    },
    {
      "bufferView": 3,
      "byteOffset": 32,
      "componentType": 5126,
      "normalized": false,
      "count": 126,
      "type": "VEC2"
    }
  ],
  "asset": {
    "generator": "pygltflib@v1.16.5",
    "version": "2.0"
  },
  "bufferViews": [
    {
      "buffer": 0,
      "byteOffset": 0,
      "byteLength": 4600,
      "byteStride": 40,
      "target": 34962
    },
    {
      "buffer": 0,
      "byteOffset": 4600,
      "byteLength": 2196,
      "target": 34963
    },
    {
      "buffer": 0,
      "byteOffset": 6796,
      "byteLength": 10080,
      "byteStride": 40,
      "target": 34962
    },
    {
      "buffer": 0,
      "byteOffset": 16876,
      "byteLength": 5040,
      "byteStride": 40,
      "target": 34962
    }
  ],
  "buffers": [
    {
      "uri": "Resonator_SMD_ECS_ECX-1247_1.6x1.2x0.3mm.bin",
      "byteLength": 21916
    }
  ],
  "extensionsUsed": [
    "KHR_materials_anisotropy",
    "KHR_materials_clearcoat",
    "KHR_materials_ior",
    "KHR_materials_specular"
  ],
  "materials": [
    {
      "extensions": {
        "KHR_materials_anisotropy": {
          "anisotropyStrength": 0.01590868830680847,
          "anisotropyRotation": 0.7568381637931133
        },
        "KHR_materials_clearcoat": {
          "clearcoatFactor": 0,
          "clearcoatRoughnessFactor": 0
        },
        "KHR_materials_ior": {
          "ior": 1.4500000476837158
        },
        "KHR_materials_specular": {
          "specularColorFactor": [
            1.5681818723678589,
            1.5681818723678589,
            1.5681818723678589
          ]
        }
      },
      "pbrMetallicRoughness": {
        "baseColorFactor": [
          0.8387941122055054,
          0.8387941122055054,
          0.8387941122055054,
          1.0
        ],
        "metallicFactor": 0.6954545974731445,
        "roughnessFactor": 0.2840908467769623
      },
      "emissiveFactor": [
        0.0,
        0.0,
        0.0
      ],
      "alphaMode": "OPAQUE",
      "doubleSided": true,
      "name": "gltf_aluminum_lathed"
    },
    {
      "pbrMetallicRoughness": {
        "baseColorFactor": [
          0.009721336886286736,
          0.009721336886286736,
          0.009721336886286736,
          1.0
        ],
        "metallicFactor": 0.09154544770717621,
        "roughnessFactor": 0.4615432620048523
      },
      "emissiveFactor": [
        0.0,
        0.0,
        0.0
      ],
      "alphaMode": "OPAQUE",
      "doubleSided": true,
      "name": "gltf_plastic_matte_black"
    },
    {
      "extensions": {
        "KHR_materials_ior": {
          "ior": 1.4500000476837158
        },
        "KHR_materials_specular": {
          "specularFactor": 0
        }
      },
      "pbrMetallicRoughness": {
        "baseColorFactor": [
          0.65955650806427,
          0.5159208178520203,
          0.2824440598487854,
          1.0
        ],
        "metallicFactor": 0.8136364221572876,
        "roughnessFactor": 0.28863638639450073
      },
      "emissiveFactor": [
        0.0,
        0.0,
        0.0
      ],
      "alphaMode": "OPAQUE",
      "doubleSided": true,
      "name": "gltf_metal_pins_gold"
    }
  ],
  "meshes": [
    {
      "primitives": [
        {
          "attributes": {
            "POSITION": 0,
            "NORMAL": 1,
            "TEXCOORD_0": 2,
            "TEXCOORD_1": 3
          },
          "indices": 4,
          "mode": 4,
          "material": 0
        },
        {
          "attributes": {
            "POSITION": 7,
            "NORMAL": 8,
            "TEXCOORD_0": 9,
            "TEXCOORD_1": 10
          },
          "indices": 5,
          "mode": 4,
          "material": 1
        },
        {
          "attributes": {
            "POSITION": 11,
            "NORMAL": 12,
            "TEXCOORD_0": 13,
            "TEXCOORD_1": 14
          },
          "indices": 6,
          "mode": 4,
          "material": 2
        }
      ],
      "name": "SHAPE_9_IndexedFaceSet"
    }
  ],
  "nodes": [
    {
      "extras": {
        "model_diagonal": 2.0303940413242776
      },
      "mesh": 0,
      "name": "Resonator_SMD_ECS_ECX-1247_1.6x1.2x0.3mm"
    }
  ],
  "scene": 0,
  "scenes": [
    {
      "extras": {
        "sketcher": {
          "version": [
            0,
            24,
            0
          ]
        }
      },
      "name": "Scene",
      "nodes": [
        0
      ]
    }
  ]
}