<?xml version="1.0" standalone="no"?>
 <!DOCTYPE svg PUBLIC "-//W3C//DTD SVG 1.1//EN" 
 "http://www.w3.org/Graphics/SVG/1.1/DTD/svg11.dtd"> 
<svg
  xmlns:svg="http://www.w3.org/2000/svg"
  xmlns="http://www.w3.org/2000/svg"
  xmlns:xlink="http://www.w3.org/1999/xlink"
  version="1.1"
  width="10.8458mm" height="10.8458mm" viewBox="0.0000 0.0000 10.8458 10.8458">
<title>SVG Image created as outline.svg date 2025/04/04 10:06:09 </title>
  <desc>Image generated by PCBNEW </desc>
<g style="fill:#000000; fill-opacity:1.0000;stroke:#000000; stroke-opacity:1.0000;
stroke-linecap:round; stroke-linejoin:round;"
 transform="translate(0 0) scale(1 1)">
</g>
<g style="fill:none; 
stroke:#000000; stroke-width:0.0200; stroke-opacity:1; 
stroke-linecap:round; stroke-linejoin:round;">
<path d="M0.4250 1.5150
L0.4250 1.7350
" />
<path d="M0.4250 1.7350
L0.4350 1.7350
" />
<path d="M0.4250 1.9150
L0.4250 2.1350
" />
<path d="M0.4250 2.1350
L0.4350 2.1350
" />
<path d="M0.4250 2.3150
L0.4250 2.5350
" />
<path d="M0.4250 2.5350
L0.4350 2.5350
" />
<path d="M0.4250 2.7150
L0.4250 2.9350
" />
<path d="M0.4250 2.9350
L0.4350 2.9350
" />
<path d="M0.4250 3.1150
L0.4250 3.3350
" />
<path d="M0.4250 3.3350
L0.4350 3.3350
" />
<path d="M0.4250 3.5150
L0.4250 3.7350
" />
<path d="M0.4250 3.7350
L0.4350 3.7350
" />
<path d="M0.4250 3.9150
L0.4250 4.1350
" />
<path d="M0.4250 4.1350
L0.4350 4.1350
" />
<path d="M0.4250 4.3150
L0.4250 4.5350
" />
<path d="M0.4250 4.5350
L0.4350 4.5350
" />
<path d="M0.4250 4.7150
L0.4250 4.9350
" />
<path d="M0.4250 4.9350
L0.4350 4.9350
" />
<path d="M0.4250 5.1150
L0.4250 5.3350
" />
<path d="M0.4250 5.3350
L0.4350 5.3350
" />
<path d="M0.4250 5.5150
L0.4250 5.7350
" />
<path d="M0.4250 5.7350
L0.4350 5.7350
" />
<path d="M0.4250 5.9150
L0.4250 6.1350
" />
<path d="M0.4250 6.1350
L0.4350 6.1350
" />
<path d="M0.4250 6.3150
L0.4250 6.5350
" />
<path d="M0.4250 6.5350
L0.4350 6.5350
" />
<path d="M0.4250 6.7150
L0.4250 6.9350
" />
<path d="M0.4250 6.9350
L0.4350 6.9350
" />
<path d="M0.4250 7.1150
L0.4250 7.3350
" />
<path d="M0.4250 7.3350
L0.4350 7.3350
" />
<path d="M0.4250 7.5150
L0.4250 7.7350
" />
<path d="M0.4250 7.7350
L0.4350 7.7350
" />
<path d="M0.4250 7.9150
L0.4250 8.1350
" />
<path d="M0.4250 8.1350
L0.4350 8.1350
" />
<path d="M0.4250 8.3150
L0.4250 8.5350
" />
<path d="M0.4250 8.5350
L0.4350 8.5350
" />
<path d="M0.4250 8.7150
L0.4250 8.9350
" />
<path d="M0.4250 8.9350
L0.4350 8.9350
" />
<path d="M0.4250 9.1150
L0.4250 9.3350
" />
<path d="M0.4250 9.3350
L0.4350 9.3350
" />
<path d="M0.4350 0.4350
L0.4350 10.4150
" />
<path d="M0.4350 0.4350
L10.4150 0.4350
" />
<path d="M0.4350 1.5150
L0.4250 1.5150
" />
<path d="M0.4350 1.9150
L0.4250 1.9150
" />
<path d="M0.4350 2.3150
L0.4250 2.3150
" />
<path d="M0.4350 2.7150
L0.4250 2.7150
" />
<path d="M0.4350 3.1150
L0.4250 3.1150
" />
<path d="M0.4350 3.5150
L0.4250 3.5150
" />
<path d="M0.4350 3.9150
L0.4250 3.9150
" />
<path d="M0.4350 4.3150
L0.4250 4.3150
" />
<path d="M0.4350 4.7150
L0.4250 4.7150
" />
<path d="M0.4350 5.1150
L0.4250 5.1150
" />
<path d="M0.4350 5.5150
L0.4250 5.5150
" />
<path d="M0.4350 5.9150
L0.4250 5.9150
" />
<path d="M0.4350 6.3150
L0.4250 6.3150
" />
<path d="M0.4350 6.7150
L0.4250 6.7150
" />
<path d="M0.4350 7.1150
L0.4250 7.1150
" />
<path d="M0.4350 7.5150
L0.4250 7.5150
" />
<path d="M0.4350 7.9150
L0.4250 7.9150
" />
<path d="M0.4350 8.3150
L0.4250 8.3150
" />
<path d="M0.4350 8.7150
L0.4250 8.7150
" />
<path d="M0.4350 9.1150
L0.4250 9.1150
" />
<path d="M0.4350 10.4150
L10.4150 10.4150
" />
<path d="M1.1250 1.1630
L1.1310 1.1150
" />
<path d="M1.1270 1.2110
L1.1250 1.1630
" />
<path d="M1.1310 1.1150
L1.1440 1.0690
" />
<path d="M1.1370 1.2580
L1.1270 1.2110
" />
<path d="M1.1440 1.0690
L1.1650 1.0250
" />
<path d="M1.1540 1.3040
L1.1370 1.2580
" />
<path d="M1.1650 1.0250
L1.1930 0.9850
" />
<path d="M1.1780 1.3450
L1.1540 1.3040
" />
<path d="M1.1930 0.9850
L1.2260 0.9500
" />
<path d="M1.2090 1.3830
L1.1780 1.3450
" />
<path d="M1.2260 0.9500
L1.2650 0.9210
" />
<path d="M1.2450 1.4150
L1.2090 1.3830
" />
<path d="M1.2650 0.9210
L1.3070 0.8990
" />
<path d="M1.2860 1.4410
L1.2450 1.4150
" />
<path d="M1.3070 0.8990
L1.3530 0.8840
" />
<path d="M1.3300 1.4600
L1.2860 1.4410
" />
<path d="M1.3530 0.8840
L1.4010 0.8760
" />
<path d="M1.3770 1.4710
L1.3300 1.4600
" />
<path d="M1.4010 0.8760
L1.4490 0.8760
" />
<path d="M1.4250 1.4750
L1.3770 1.4710
" />
<path d="M1.4490 0.8760
L1.4970 0.8840
" />
<path d="M1.4730 1.4710
L1.4250 1.4750
" />
<path d="M1.4970 0.8840
L1.5430 0.8990
" />
<path d="M1.5150 0.4250
L1.5150 0.4350
" />
<path d="M1.5150 10.4150
L1.5150 10.4250
" />
<path d="M1.5150 10.4250
L1.7350 10.4250
" />
<path d="M1.5200 1.4600
L1.4730 1.4710
" />
<path d="M1.5430 0.8990
L1.5850 0.9210
" />
<path d="M1.5640 1.4410
L1.5200 1.4600
" />
<path d="M1.5850 0.9210
L1.6240 0.9500
" />
<path d="M1.6050 1.4150
L1.5640 1.4410
" />
<path d="M1.6240 0.9500
L1.6570 0.9850
" />
<path d="M1.6410 1.3830
L1.6050 1.4150
" />
<path d="M1.6570 0.9850
L1.6850 1.0250
" />
<path d="M1.6720 1.3450
L1.6410 1.3830
" />
<path d="M1.6850 1.0250
L1.7060 1.0690
" />
<path d="M1.6960 1.3040
L1.6720 1.3450
" />
<path d="M1.7060 1.0690
L1.7190 1.1150
" />
<path d="M1.7130 1.2580
L1.6960 1.3040
" />
<path d="M1.7190 1.1150
L1.7250 1.1630
" />
<path d="M1.7230 1.2110
L1.7130 1.2580
" />
<path d="M1.7250 1.1630
L1.7230 1.2110
" />
<path d="M1.7350 0.4250
L1.5150 0.4250
" />
<path d="M1.7350 0.4350
L1.7350 0.4250
" />
<path d="M1.7350 10.4250
L1.7350 10.4150
" />
<path d="M1.9150 0.4250
L1.9150 0.4350
" />
<path d="M1.9150 10.4150
L1.9150 10.4250
" />
<path d="M1.9150 10.4250
L2.1350 10.4250
" />
<path d="M2.1350 0.4250
L1.9150 0.4250
" />
<path d="M2.1350 0.4350
L2.1350 0.4250
" />
<path d="M2.1350 10.4250
L2.1350 10.4150
" />
<path d="M2.3150 0.4250
L2.3150 0.4350
" />
<path d="M2.3150 10.4150
L2.3150 10.4250
" />
<path d="M2.3150 10.4250
L2.5350 10.4250
" />
<path d="M2.5350 0.4250
L2.3150 0.4250
" />
<path d="M2.5350 0.4350
L2.5350 0.4250
" />
<path d="M2.5350 10.4250
L2.5350 10.4150
" />
<path d="M2.7150 0.4250
L2.7150 0.4350
" />
<path d="M2.7150 10.4150
L2.7150 10.4250
" />
<path d="M2.7150 10.4250
L2.9350 10.4250
" />
<path d="M2.9350 0.4250
L2.7150 0.4250
" />
<path d="M2.9350 0.4350
L2.9350 0.4250
" />
<path d="M2.9350 10.4250
L2.9350 10.4150
" />
<path d="M3.1150 0.4250
L3.1150 0.4350
" />
<path d="M3.1150 10.4150
L3.1150 10.4250
" />
<path d="M3.1150 10.4250
L3.3350 10.4250
" />
<path d="M3.3350 0.4250
L3.1150 0.4250
" />
<path d="M3.3350 0.4350
L3.3350 0.4250
" />
<path d="M3.3350 10.4250
L3.3350 10.4150
" />
<path d="M3.5150 0.4250
L3.5150 0.4350
" />
<path d="M3.5150 10.4150
L3.5150 10.4250
" />
<path d="M3.5150 10.4250
L3.7350 10.4250
" />
<path d="M3.7350 0.4250
L3.5150 0.4250
" />
<path d="M3.7350 0.4350
L3.7350 0.4250
" />
<path d="M3.7350 10.4250
L3.7350 10.4150
" />
<path d="M3.9150 0.4250
L3.9150 0.4350
" />
<path d="M3.9150 10.4150
L3.9150 10.4250
" />
<path d="M3.9150 10.4250
L4.1350 10.4250
" />
<path d="M4.1350 0.4250
L3.9150 0.4250
" />
<path d="M4.1350 0.4350
L4.1350 0.4250
" />
<path d="M4.1350 10.4250
L4.1350 10.4150
" />
<path d="M4.3150 0.4250
L4.3150 0.4350
" />
<path d="M4.3150 10.4150
L4.3150 10.4250
" />
<path d="M4.3150 10.4250
L4.5350 10.4250
" />
<path d="M4.5350 0.4250
L4.3150 0.4250
" />
<path d="M4.5350 0.4350
L4.5350 0.4250
" />
<path d="M4.5350 10.4250
L4.5350 10.4150
" />
<path d="M4.7150 0.4250
L4.7150 0.4350
" />
<path d="M4.7150 10.4150
L4.7150 10.4250
" />
<path d="M4.7150 10.4250
L4.9350 10.4250
" />
<path d="M4.9350 0.4250
L4.7150 0.4250
" />
<path d="M4.9350 0.4350
L4.9350 0.4250
" />
<path d="M4.9350 10.4250
L4.9350 10.4150
" />
<path d="M5.1150 0.4250
L5.1150 0.4350
" />
<path d="M5.1150 10.4150
L5.1150 10.4250
" />
<path d="M5.1150 10.4250
L5.3350 10.4250
" />
<path d="M5.3350 0.4250
L5.1150 0.4250
" />
<path d="M5.3350 0.4350
L5.3350 0.4250
" />
<path d="M5.3350 10.4250
L5.3350 10.4150
" />
<path d="M5.5150 0.4250
L5.5150 0.4350
" />
<path d="M5.5150 10.4150
L5.5150 10.4250
" />
<path d="M5.5150 10.4250
L5.7350 10.4250
" />
<path d="M5.7350 0.4250
L5.5150 0.4250
" />
<path d="M5.7350 0.4350
L5.7350 0.4250
" />
<path d="M5.7350 10.4250
L5.7350 10.4150
" />
<path d="M5.9150 0.4250
L5.9150 0.4350
" />
<path d="M5.9150 10.4150
L5.9150 10.4250
" />
<path d="M5.9150 10.4250
L6.1350 10.4250
" />
<path d="M6.1350 0.4250
L5.9150 0.4250
" />
<path d="M6.1350 0.4350
L6.1350 0.4250
" />
<path d="M6.1350 10.4250
L6.1350 10.4150
" />
<path d="M6.3150 0.4250
L6.3150 0.4350
" />
<path d="M6.3150 10.4150
L6.3150 10.4250
" />
<path d="M6.3150 10.4250
L6.5350 10.4250
" />
<path d="M6.5350 0.4250
L6.3150 0.4250
" />
<path d="M6.5350 0.4350
L6.5350 0.4250
" />
<path d="M6.5350 10.4250
L6.5350 10.4150
" />
<path d="M6.7150 0.4250
L6.7150 0.4350
" />
<path d="M6.7150 10.4150
L6.7150 10.4250
" />
<path d="M6.7150 10.4250
L6.9350 10.4250
" />
<path d="M6.9350 0.4250
L6.7150 0.4250
" />
<path d="M6.9350 0.4350
L6.9350 0.4250
" />
<path d="M6.9350 10.4250
L6.9350 10.4150
" />
<path d="M7.1150 0.4250
L7.1150 0.4350
" />
<path d="M7.1150 10.4150
L7.1150 10.4250
" />
<path d="M7.1150 10.4250
L7.3350 10.4250
" />
<path d="M7.3350 0.4250
L7.1150 0.4250
" />
<path d="M7.3350 0.4350
L7.3350 0.4250
" />
<path d="M7.3350 10.4250
L7.3350 10.4150
" />
<path d="M7.5150 0.4250
L7.5150 0.4350
" />
<path d="M7.5150 10.4150
L7.5150 10.4250
" />
<path d="M7.5150 10.4250
L7.7350 10.4250
" />
<path d="M7.7350 0.4250
L7.5150 0.4250
" />
<path d="M7.7350 0.4350
L7.7350 0.4250
" />
<path d="M7.7350 10.4250
L7.7350 10.4150
" />
<path d="M7.9150 0.4250
L7.9150 0.4350
" />
<path d="M7.9150 10.4150
L7.9150 10.4250
" />
<path d="M7.9150 10.4250
L8.1350 10.4250
" />
<path d="M8.1350 0.4250
L7.9150 0.4250
" />
<path d="M8.1350 0.4350
L8.1350 0.4250
" />
<path d="M8.1350 10.4250
L8.1350 10.4150
" />
<path d="M8.3150 0.4250
L8.3150 0.4350
" />
<path d="M8.3150 10.4150
L8.3150 10.4250
" />
<path d="M8.3150 10.4250
L8.5350 10.4250
" />
<path d="M8.5350 0.4250
L8.3150 0.4250
" />
<path d="M8.5350 0.4350
L8.5350 0.4250
" />
<path d="M8.5350 10.4250
L8.5350 10.4150
" />
<path d="M8.7150 0.4250
L8.7150 0.4350
" />
<path d="M8.7150 10.4150
L8.7150 10.4250
" />
<path d="M8.7150 10.4250
L8.9350 10.4250
" />
<path d="M8.9350 0.4250
L8.7150 0.4250
" />
<path d="M8.9350 0.4350
L8.9350 0.4250
" />
<path d="M8.9350 10.4250
L8.9350 10.4150
" />
<path d="M9.1150 0.4250
L9.1150 0.4350
" />
<path d="M9.1150 10.4150
L9.1150 10.4250
" />
<path d="M9.1150 10.4250
L9.3350 10.4250
" />
<path d="M9.3350 0.4250
L9.1150 0.4250
" />
<path d="M9.3350 0.4350
L9.3350 0.4250
" />
<path d="M9.3350 10.4250
L9.3350 10.4150
" />
<path d="M10.4150 0.4350
L10.4150 10.4150
" />
<path d="M10.4150 1.7350
L10.4250 1.7350
" />
<path d="M10.4150 2.1350
L10.4250 2.1350
" />
<path d="M10.4150 2.5350
L10.4250 2.5350
" />
<path d="M10.4150 2.9350
L10.4250 2.9350
" />
<path d="M10.4150 3.3350
L10.4250 3.3350
" />
<path d="M10.4150 3.7350
L10.4250 3.7350
" />
<path d="M10.4150 4.1350
L10.4250 4.1350
" />
<path d="M10.4150 4.5350
L10.4250 4.5350
" />
<path d="M10.4150 4.9350
L10.4250 4.9350
" />
<path d="M10.4150 5.3350
L10.4250 5.3350
" />
<path d="M10.4150 5.7350
L10.4250 5.7350
" />
<path d="M10.4150 6.1350
L10.4250 6.1350
" />
<path d="M10.4150 6.5350
L10.4250 6.5350
" />
<path d="M10.4150 6.9350
L10.4250 6.9350
" />
<path d="M10.4150 7.3350
L10.4250 7.3350
" />
<path d="M10.4150 7.7350
L10.4250 7.7350
" />
<path d="M10.4150 8.1350
L10.4250 8.1350
" />
<path d="M10.4150 8.5350
L10.4250 8.5350
" />
<path d="M10.4150 8.9350
L10.4250 8.9350
" />
<path d="M10.4150 9.3350
L10.4250 9.3350
" />
<path d="M10.4250 1.5150
L10.4150 1.5150
" />
<path d="M10.4250 1.7350
L10.4250 1.5150
" />
<path d="M10.4250 1.9150
L10.4150 1.9150
" />
<path d="M10.4250 2.1350
L10.4250 1.9150
" />
<path d="M10.4250 2.3150
L10.4150 2.3150
" />
<path d="M10.4250 2.5350
L10.4250 2.3150
" />
<path d="M10.4250 2.7150
L10.4150 2.7150
" />
<path d="M10.4250 2.9350
L10.4250 2.7150
" />
<path d="M10.4250 3.1150
L10.4150 3.1150
" />
<path d="M10.4250 3.3350
L10.4250 3.1150
" />
<path d="M10.4250 3.5150
L10.4150 3.5150
" />
<path d="M10.4250 3.7350
L10.4250 3.5150
" />
<path d="M10.4250 3.9150
L10.4150 3.9150
" />
<path d="M10.4250 4.1350
L10.4250 3.9150
" />
<path d="M10.4250 4.3150
L10.4150 4.3150
" />
<path d="M10.4250 4.5350
L10.4250 4.3150
" />
<path d="M10.4250 4.7150
L10.4150 4.7150
" />
<path d="M10.4250 4.9350
L10.4250 4.7150
" />
<path d="M10.4250 5.1150
L10.4150 5.1150
" />
<path d="M10.4250 5.3350
L10.4250 5.1150
" />
<path d="M10.4250 5.5150
L10.4150 5.5150
" />
<path d="M10.4250 5.7350
L10.4250 5.5150
" />
<path d="M10.4250 5.9150
L10.4150 5.9150
" />
<path d="M10.4250 6.1350
L10.4250 5.9150
" />
<path d="M10.4250 6.3150
L10.4150 6.3150
" />
<path d="M10.4250 6.5350
L10.4250 6.3150
" />
<path d="M10.4250 6.7150
L10.4150 6.7150
" />
<path d="M10.4250 6.9350
L10.4250 6.7150
" />
<path d="M10.4250 7.1150
L10.4150 7.1150
" />
<path d="M10.4250 7.3350
L10.4250 7.1150
" />
<path d="M10.4250 7.5150
L10.4150 7.5150
" />
<path d="M10.4250 7.7350
L10.4250 7.5150
" />
<path d="M10.4250 7.9150
L10.4150 7.9150
" />
<path d="M10.4250 8.1350
L10.4250 7.9150
" />
<path d="M10.4250 8.3150
L10.4150 8.3150
" />
<path d="M10.4250 8.5350
L10.4250 8.3150
" />
<path d="M10.4250 8.7150
L10.4150 8.7150
" />
<path d="M10.4250 8.9350
L10.4250 8.7150
" />
<path d="M10.4250 9.1150
L10.4150 9.1150
" />
<path d="M10.4250 9.3350
L10.4250 9.1150
" />
</g> 
</svg>
