<?xml version="1.0" standalone="no"?>
 <!DOCTYPE svg PUBLIC "-//W3C//DTD SVG 1.1//EN" 
 "http://www.w3.org/Graphics/SVG/1.1/DTD/svg11.dtd"> 
<svg
  xmlns:svg="http://www.w3.org/2000/svg"
  xmlns="http://www.w3.org/2000/svg"
  xmlns:xlink="http://www.w3.org/1999/xlink"
  version="1.1"
  width="11.5316mm" height="3.8354mm" viewBox="0.0000 0.0000 11.5316 3.8354">
<title>SVG Image created as outline.svg date 2025/04/04 10:06:09 </title>
  <desc>Image generated by PCBNEW </desc>
<g style="fill:#000000; fill-opacity:1.0000;stroke:#000000; stroke-opacity:1.0000;
stroke-linecap:round; stroke-linejoin:round;"
 transform="translate(0 0) scale(1 1)">
</g>
<g style="fill:none; 
stroke:#000000; stroke-width:0.0200; stroke-opacity:1; 
stroke-linecap:round; stroke-linejoin:round;">
<path d="M0.6750 0.8250
L1.4750 0.8250
" />
<path d="M0.6750 3.2250
L0.6750 0.8250
" />
<path d="M1.2160 2.4720
L1.4200 3.0610
" />
<path d="M1.4200 3.0610
L1.6210 2.4720
" />
<path d="M1.4750 0.5250
L1.4750 0.8250
" />
<path d="M1.4750 0.5250
L10.0750 0.5250
" />
<path d="M1.6210 2.4720
L1.2160 2.4720
" />
<path d="M9.4760 3.0170
L9.4770 3.0270
" />
<path d="M9.4770 3.0270
L9.4800 3.0360
" />
<path d="M9.4800 2.9890
L9.4760 3.0170
" />
<path d="M9.4800 3.0360
L9.4920 3.0510
" />
<path d="M9.4870 2.9620
L9.4800 2.9890
" />
<path d="M9.4920 3.0510
L9.5090 3.0620
" />
<path d="M9.4930 2.9320
L9.4870 2.9620
" />
<path d="M9.4980 2.9200
L9.4930 2.9320
" />
<path d="M9.5010 2.9160
L9.4980 2.9200
" />
<path d="M9.5050 2.9150
L9.5010 2.9160
" />
<path d="M9.5090 3.0620
L9.5180 3.0650
" />
<path d="M9.5180 3.0650
L9.5290 3.0660
" />
<path d="M9.5290 3.0660
L9.7110 3.0660
" />
<path d="M9.6130 2.9740
L9.6150 2.9540
" />
<path d="M9.6140 2.9820
L9.6130 2.9740
" />
<path d="M9.6150 2.9540
L9.6250 2.9150
" />
<path d="M9.6170 2.9890
L9.6140 2.9820
" />
<path d="M9.6250 2.9150
L9.5050 2.9150
" />
<path d="M9.6270 2.9950
L9.6170 2.9890
" />
<path d="M9.6360 2.9970
L9.6270 2.9950
" />
<path d="M9.6460 2.9940
L9.6360 2.9970
" />
<path d="M9.6540 2.9880
L9.6460 2.9940
" />
<path d="M9.6620 2.9720
L9.6540 2.9880
" />
<path d="M9.6670 2.9540
L9.6620 2.9720
" />
<path d="M9.7020 2.8010
L9.6670 2.9540
" />
<path d="M9.7110 3.0660
L9.7280 3.0650
" />
<path d="M9.7280 3.0650
L9.7440 3.0600
" />
<path d="M9.7340 2.6470
L9.7020 2.8010
" />
<path d="M9.7410 2.6080
L9.7340 2.6470
" />
<path d="M9.7440 3.0600
L9.7580 3.0530
" />
<path d="M9.7460 2.6000
L9.7410 2.6080
" />
<path d="M9.7550 2.5970
L9.7460 2.6000
" />
<path d="M9.7580 3.0530
L9.7710 3.0430
" />
<path d="M9.7710 3.0430
L9.7810 3.0320
" />
<path d="M9.7810 3.0320
L9.7900 3.0190
" />
<path d="M9.7900 3.0190
L9.7980 3.0060
" />
<path d="M9.7980 3.0060
L9.8030 2.9910
" />
<path d="M9.8030 2.9910
L9.8190 2.9270
" />
<path d="M9.8190 2.9270
L9.8320 2.8610
" />
<path d="M9.8320 2.8610
L9.8620 2.7210
" />
<path d="M9.8620 2.7210
L9.8790 2.6380
" />
<path d="M9.8670 3.0090
L9.8700 3.0300
" />
<path d="M9.8690 2.9850
L9.8670 3.0090
" />
<path d="M9.8700 3.0300
L9.8740 3.0390
" />
<path d="M9.8740 2.9590
L9.8690 2.9850
" />
<path d="M9.8740 3.0390
L9.8800 3.0470
" />
<path d="M9.8790 2.6380
L9.8840 2.6100
" />
<path d="M9.8800 3.0470
L9.8880 3.0530
" />
<path d="M9.8840 2.6100
L9.8860 2.5970
" />
<path d="M9.8860 2.5970
L9.7550 2.5970
" />
<path d="M9.8860 2.9110
L9.8740 2.9590
" />
<path d="M9.8880 3.0530
L9.8980 3.0580
" />
<path d="M9.8980 3.0580
L9.9120 3.0610
" />
<path d="M9.9120 2.7230
L9.9150 2.7450
" />
<path d="M9.9120 3.0610
L9.9280 3.0620
" />
<path d="M9.9130 2.7000
L9.9120 2.7230
" />
<path d="M9.9150 2.7450
L9.9210 2.7650
" />
<path d="M9.9160 2.6770
L9.9130 2.7000
" />
<path d="M9.9210 2.7650
L9.9310 2.7820
" />
<path d="M9.9220 2.6570
L9.9160 2.6770
" />
<path d="M9.9280 3.0620
L10.0130 3.0620
" />
<path d="M9.9300 2.6390
L9.9220 2.6570
" />
<path d="M9.9310 2.7820
L9.9690 2.8220
" />
<path d="M9.9400 2.6250
L9.9300 2.6390
" />
<path d="M9.9580 2.6100
L9.9400 2.6250
" />
<path d="M9.9690 2.8220
L10.0090 2.8610
" />
<path d="M9.9770 2.6020
L9.9580 2.6100
" />
<path d="M10.0080 2.9780
L10.0100 2.9570
" />
<path d="M10.0090 2.8610
L10.0490 2.9000
" />
<path d="M10.0100 2.9570
L10.0200 2.9100
" />
<path d="M10.0110 2.9860
L10.0080 2.9780
" />
<path d="M10.0130 2.5920
L9.9770 2.6020
" />
<path d="M10.0130 3.0620
L10.0920 3.0630
" />
<path d="M10.0160 2.9920
L10.0110 2.9860
" />
<path d="M10.0200 2.9100
L9.8860 2.9110
" />
<path d="M10.0230 2.9950
L10.0160 2.9920
" />
<path d="M10.0330 2.9960
L10.0230 2.9950
" />
<path d="M10.0420 2.9950
L10.0330 2.9960
" />
<path d="M10.0490 2.9000
L10.0660 2.9230
" />
<path d="M10.0520 2.9920
L10.0420 2.9950
" />
<path d="M10.0610 2.9860
L10.0520 2.9920
" />
<path d="M10.0660 2.7160
L10.0670 2.7000
" />
<path d="M10.0660 2.9230
L10.0710 2.9370
" />
<path d="M10.0670 2.7000
L10.0730 2.6850
" />
<path d="M10.0680 2.9780
L10.0610 2.9860
" />
<path d="M10.0710 2.7300
L10.0660 2.7160
" />
<path d="M10.0710 2.9370
L10.0730 2.9520
" />
<path d="M10.0720 2.9670
L10.0680 2.9780
" />
<path d="M10.0730 2.6850
L10.0830 2.6750
" />
<path d="M10.0730 2.9520
L10.0720 2.9670
" />
<path d="M10.0750 0.8250
L10.0750 0.5250
" />
<path d="M10.0750 0.8250
L10.8750 0.8250
" />
<path d="M10.0830 2.6750
L10.1000 2.6690
" />
<path d="M10.0920 3.0630
L10.1280 3.0610
" />
<path d="M10.1000 2.6690
L10.1180 2.6690
" />
<path d="M10.1180 2.6690
L10.1270 2.6710
" />
<path d="M10.1270 2.6710
L10.1330 2.6750
" />
<path d="M10.1280 3.0610
L10.1600 3.0560
" />
<path d="M10.1330 2.6750
L10.1380 2.6810
" />
<path d="M10.1330 2.7540
L10.2530 2.7540
" />
<path d="M10.1380 2.6810
L10.1410 2.6880
" />
<path d="M10.1410 2.6880
L10.1330 2.7540
" />
<path d="M10.1510 2.8060
L10.0710 2.7300
" />
<path d="M10.1600 3.0560
L10.1740 3.0510
" />
<path d="M10.1740 3.0510
L10.1870 3.0440
" />
<path d="M10.1870 3.0440
L10.1990 3.0360
" />
<path d="M10.1900 2.8400
L10.1510 2.8060
" />
<path d="M10.1990 3.0360
L10.2090 3.0250
" />
<path d="M10.2040 2.8540
L10.1900 2.8400
" />
<path d="M10.2090 3.0250
L10.2170 3.0120
" />
<path d="M10.2150 2.8680
L10.2040 2.8540
" />
<path d="M10.2170 3.0120
L10.2230 2.9960
" />
<path d="M10.2180 2.5920
L10.0130 2.5920
" />
<path d="M10.2230 2.8840
L10.2150 2.8680
" />
<path d="M10.2230 2.9960
L10.2270 2.9780
" />
<path d="M10.2270 2.9780
L10.2300 2.9560
" />
<path d="M10.2280 2.9030
L10.2230 2.8840
" />
<path d="M10.2300 2.9270
L10.2280 2.9030
" />
<path d="M10.2300 2.9560
L10.2300 2.9270
" />
<path d="M10.2350 2.5980
L10.2180 2.5920
" />
<path d="M10.2520 2.6070
L10.2350 2.5980
" />
<path d="M10.2530 2.7540
L10.2580 2.7330
" />
<path d="M10.2580 2.7330
L10.2630 2.7070
" />
<path d="M10.2590 2.6140
L10.2520 2.6070
" />
<path d="M10.2630 2.7070
L10.2680 2.6580
" />
<path d="M10.2650 2.6250
L10.2590 2.6140
" />
<path d="M10.2680 2.6400
L10.2650 2.6250
" />
<path d="M10.2680 2.6580
L10.2680 2.6400
" />
<path d="M10.3000 2.6630
L10.4170 2.6630
" />
<path d="M10.3120 2.5960
L10.3000 2.6630
" />
<path d="M10.3360 3.0520
L10.3380 3.0560
" />
<path d="M10.3370 3.0470
L10.3360 3.0520
" />
<path d="M10.3380 3.0560
L10.3490 3.0590
" />
<path d="M10.3490 3.0590
L10.4050 3.0580
" />
<path d="M10.3810 2.8440
L10.3370 3.0470
" />
<path d="M10.4050 3.0580
L10.4910 3.0580
" />
<path d="M10.4070 2.7230
L10.3810 2.8440
" />
<path d="M10.4150 2.6820
L10.4070 2.7230
" />
<path d="M10.4170 2.6630
L10.4150 2.6820
" />
<path d="M10.4910 3.0580
L10.4950 3.0470
" />
<path d="M10.4950 3.0470
L10.5000 3.0260
" />
<path d="M10.5000 3.0260
L10.5130 2.9660
" />
<path d="M10.5130 2.9660
L10.5340 2.8620
" />
<path d="M10.5340 2.8620
L10.5550 2.7570
" />
<path d="M10.5550 2.7570
L10.5690 2.6940
" />
<path d="M10.5690 2.6940
L10.5740 2.6730
" />
<path d="M10.5740 2.6730
L10.5770 2.6640
" />
<path d="M10.5770 2.6640
L10.5990 2.6620
" />
<path d="M10.5990 2.6620
L10.6350 2.6620
" />
<path d="M10.6350 2.6620
L10.6990 2.6630
" />
<path d="M10.6990 2.6630
L10.7110 2.6100
" />
<path d="M10.7110 2.5950
L10.3120 2.5960
" />
<path d="M10.7110 2.6100
L10.7110 2.5950
" />
<path d="M10.8750 0.8250
L10.8750 3.2250
" />
<path d="M10.8750 3.2250
L0.6750 3.2250
" />
</g> 
</svg>
