<?xml version="1.0" standalone="no"?>
 <!DOCTYPE svg PUBLIC "-//W3C//DTD SVG 1.1//EN" 
 "http://www.w3.org/Graphics/SVG/1.1/DTD/svg11.dtd"> 
<svg
  xmlns:svg="http://www.w3.org/2000/svg"
  xmlns="http://www.w3.org/2000/svg"
  xmlns:xlink="http://www.w3.org/1999/xlink"
  version="1.1"
  width="4.2418mm" height="5.2324mm" viewBox="0.0000 0.0000 4.2418 5.2324">
<title>SVG Image created as outline.svg date 2025/06/16 09:18:13 </title>
  <desc>Image generated by PCBNEW </desc>
<g style="fill:#000000; fill-opacity:1.0000;stroke:#000000; stroke-opacity:1.0000;
stroke-linecap:round; stroke-linejoin:round;"
 transform="translate(0 0) scale(1 1)">
</g>
<g style="fill:none; 
stroke:#000000; stroke-width:0.0200; stroke-opacity:1; 
stroke-linecap:round; stroke-linejoin:round;">
<path d="M0.3750 0.3750
L0.3750 4.8750
" />
<path d="M0.3750 1.1250
L0.3750 1.3250
" />
<path d="M0.3750 4.8750
L3.8750 4.8750
" />
<path d="M0.8320 0.9980
L0.8320 1.0050
" />
<path d="M0.8320 1.0050
L0.8330 1.0180
" />
<path d="M0.8330 0.9850
L0.8330 0.9920
" />
<path d="M0.8330 0.9920
L0.8320 0.9980
" />
<path d="M0.8330 1.0180
L0.8340 1.0310
" />
<path d="M0.8340 0.9780
L0.8330 0.9850
" />
<path d="M0.8340 1.0310
L0.8360 1.0440
" />
<path d="M0.8350 0.9720
L0.8340 0.9780
" />
<path d="M0.8360 0.9650
L0.8350 0.9720
" />
<path d="M0.8360 1.0440
L0.8390 1.0570
" />
<path d="M0.8370 0.9590
L0.8360 0.9650
" />
<path d="M0.8390 0.9530
L0.8370 0.9590
" />
<path d="M0.8390 1.0570
L0.8430 1.0690
" />
<path d="M0.8410 0.9460
L0.8390 0.9530
" />
<path d="M0.8430 0.9400
L0.8410 0.9460
" />
<path d="M0.8430 1.0690
L0.8470 1.0820
" />
<path d="M0.8450 0.9340
L0.8430 0.9400
" />
<path d="M0.8470 0.9280
L0.8450 0.9340
" />
<path d="M0.8470 1.0820
L0.8530 1.0930
" />
<path d="M0.8500 0.9220
L0.8470 0.9280
" />
<path d="M0.8530 0.9160
L0.8500 0.9220
" />
<path d="M0.8530 1.0930
L0.8590 1.1050
" />
<path d="M0.8560 0.9110
L0.8530 0.9160
" />
<path d="M0.8590 0.9050
L0.8560 0.9110
" />
<path d="M0.8590 1.1050
L0.8660 1.1160
" />
<path d="M0.8620 0.8990
L0.8590 0.9050
" />
<path d="M0.8660 0.8940
L0.8620 0.8990
" />
<path d="M0.8660 1.1160
L0.8730 1.1260
" />
<path d="M0.8690 0.8890
L0.8660 0.8940
" />
<path d="M0.8730 0.8830
L0.8690 0.8890
" />
<path d="M0.8730 1.1260
L0.8820 1.1360
" />
<path d="M0.8770 0.8780
L0.8730 0.8830
" />
<path d="M0.8820 0.8730
L0.8770 0.8780
" />
<path d="M0.8820 1.1360
L0.8900 1.1460
" />
<path d="M0.8860 0.8680
L0.8820 0.8730
" />
<path d="M0.8900 0.8640
L0.8860 0.8680
" />
<path d="M0.8900 1.1460
L0.9000 1.1550
" />
<path d="M0.8950 0.8590
L0.8900 0.8640
" />
<path d="M0.9000 0.8550
L0.8950 0.8590
" />
<path d="M0.9000 1.1550
L0.9100 1.1630
" />
<path d="M0.9050 0.8510
L0.9000 0.8550
" />
<path d="M0.9100 0.8460
L0.9050 0.8510
" />
<path d="M0.9100 1.1630
L0.9210 1.1710
" />
<path d="M0.9150 0.8420
L0.9100 0.8460
" />
<path d="M0.9210 0.8390
L0.9150 0.8420
" />
<path d="M0.9210 1.1710
L0.9320 1.1780
" />
<path d="M0.9260 0.8350
L0.9210 0.8390
" />
<path d="M0.9320 0.8320
L0.9260 0.8350
" />
<path d="M0.9320 1.1780
L0.9440 1.1840
" />
<path d="M0.9440 0.8250
L0.9320 0.8320
" />
<path d="M0.9440 1.1840
L0.9560 1.1900
" />
<path d="M0.9560 0.8200
L0.9440 0.8250
" />
<path d="M0.9560 1.1900
L0.9680 1.1940
" />
<path d="M0.9680 0.8150
L0.9560 0.8200
" />
<path d="M0.9680 1.1940
L0.9810 1.1980
" />
<path d="M0.9810 0.8120
L0.9680 0.8150
" />
<path d="M0.9810 1.1980
L0.9930 1.2010
" />
<path d="M0.9930 0.8090
L0.9810 0.8120
" />
<path d="M0.9930 1.2010
L1.0060 1.2030
" />
<path d="M1.0060 0.8070
L0.9930 0.8090
" />
<path d="M1.0060 1.2030
L1.0190 1.2040
" />
<path d="M1.0190 0.8050
L1.0060 0.8070
" />
<path d="M1.0190 1.2040
L1.0320 1.2050
" />
<path d="M1.0320 0.8050
L1.0190 0.8050
" />
<path d="M1.0320 1.2050
L1.0450 1.2040
" />
<path d="M1.0450 0.8050
L1.0320 0.8050
" />
<path d="M1.0450 1.2040
L1.0580 1.2030
" />
<path d="M1.0580 0.8070
L1.0450 0.8050
" />
<path d="M1.0580 1.2030
L1.0710 1.2010
" />
<path d="M1.0710 0.8090
L1.0580 0.8070
" />
<path d="M1.0710 1.2010
L1.0830 1.1980
" />
<path d="M1.0830 0.8120
L1.0710 0.8090
" />
<path d="M1.0830 1.1980
L1.0960 1.1940
" />
<path d="M1.0960 0.8150
L1.0830 0.8120
" />
<path d="M1.0960 1.1940
L1.1080 1.1900
" />
<path d="M1.1080 0.8200
L1.0960 0.8150
" />
<path d="M1.1080 1.1900
L1.1200 1.1840
" />
<path d="M1.1200 0.8250
L1.1080 0.8200
" />
<path d="M1.1200 1.1840
L1.1320 1.1780
" />
<path d="M1.1320 0.8320
L1.1200 0.8250
" />
<path d="M1.1320 1.1780
L1.1380 1.1750
" />
<path d="M1.1380 1.1750
L1.1430 1.1710
" />
<path d="M1.1430 0.8390
L1.1320 0.8320
" />
<path d="M1.1430 1.1710
L1.1490 1.1670
" />
<path d="M1.1490 1.1670
L1.1540 1.1630
" />
<path d="M1.1540 0.8460
L1.1430 0.8390
" />
<path d="M1.1540 1.1630
L1.1590 1.1590
" />
<path d="M1.1590 1.1590
L1.1640 1.1550
" />
<path d="M1.1640 0.8550
L1.1540 0.8460
" />
<path d="M1.1640 1.1550
L1.1690 1.1510
" />
<path d="M1.1690 1.1510
L1.1740 1.1460
" />
<path d="M1.1740 0.8640
L1.1640 0.8550
" />
<path d="M1.1740 1.1460
L1.1780 1.1410
" />
<path d="M1.1780 1.1410
L1.1830 1.1360
" />
<path d="M1.1830 0.8730
L1.1740 0.8640
" />
<path d="M1.1830 1.1360
L1.1870 1.1310
" />
<path d="M1.1870 1.1310
L1.1910 1.1260
" />
<path d="M1.1910 0.8830
L1.1830 0.8730
" />
<path d="M1.1910 1.1260
L1.1950 1.1210
" />
<path d="M1.1950 1.1210
L1.1980 1.1160
" />
<path d="M1.1980 0.8940
L1.1910 0.8830
" />
<path d="M1.1980 1.1160
L1.2020 1.1100
" />
<path d="M1.2020 1.1100
L1.2050 1.1050
" />
<path d="M1.2050 0.9050
L1.1980 0.8940
" />
<path d="M1.2050 1.1050
L1.2080 1.0990
" />
<path d="M1.2080 1.0990
L1.2110 1.0930
" />
<path d="M1.2110 0.9160
L1.2050 0.9050
" />
<path d="M1.2110 1.0930
L1.2140 1.0880
" />
<path d="M1.2140 1.0880
L1.2170 1.0820
" />
<path d="M1.2170 0.9280
L1.2110 0.9160
" />
<path d="M1.2170 1.0820
L1.2190 1.0760
" />
<path d="M1.2190 1.0760
L1.2210 1.0690
" />
<path d="M1.2210 0.9400
L1.2170 0.9280
" />
<path d="M1.2210 1.0690
L1.2230 1.0630
" />
<path d="M1.2230 1.0630
L1.2250 1.0570
" />
<path d="M1.2250 0.9530
L1.2210 0.9400
" />
<path d="M1.2250 1.0570
L1.2270 1.0510
" />
<path d="M1.2270 1.0510
L1.2280 1.0440
" />
<path d="M1.2280 0.9650
L1.2250 0.9530
" />
<path d="M1.2280 1.0440
L1.2290 1.0380
" />
<path d="M1.2290 1.0380
L1.2300 1.0310
" />
<path d="M1.2300 0.9780
L1.2280 0.9650
" />
<path d="M1.2300 1.0310
L1.2310 1.0250
" />
<path d="M1.2310 1.0250
L1.2320 1.0180
" />
<path d="M1.2320 0.9920
L1.2300 0.9780
" />
<path d="M1.2320 1.0050
L1.2320 0.9920
" />
<path d="M1.2320 1.0120
L1.2320 1.0050
" />
<path d="M1.2320 1.0180
L1.2320 1.0120
" />
<path d="M1.4500 4.8750
L1.5500 4.8750
" />
<path d="M1.5500 0.3750
L1.4500 0.3750
" />
<path d="M2.7000 4.8750
L2.8000 4.8750
" />
<path d="M2.8000 0.3750
L2.7000 0.3750
" />
<path d="M3.8750 0.3750
L0.3750 0.3750
" />
<path d="M3.8750 4.8750
L3.8750 0.3750
" />
</g> 
</svg>
