<?xml version="1.0" standalone="no"?>
 <!DOCTYPE svg PUBLIC "-//W3C//DTD SVG 1.1//EN" 
 "http://www.w3.org/Graphics/SVG/1.1/DTD/svg11.dtd"> 
<svg
  xmlns:svg="http://www.w3.org/2000/svg"
  xmlns="http://www.w3.org/2000/svg"
  xmlns:xlink="http://www.w3.org/1999/xlink"
  version="1.1"
  width="12.9286mm" height="12.9286mm" viewBox="0.0000 0.0000 12.9286 12.9286">
<title>SVG Image created as outline.svg date 2025/06/16 09:17:57 </title>
  <desc>Image generated by PCBNEW </desc>
<g style="fill:#000000; fill-opacity:1.0000;stroke:#000000; stroke-opacity:1.0000;
stroke-linecap:round; stroke-linejoin:round;"
 transform="translate(0 0) scale(1 1)">
</g>
<g style="fill:none; 
stroke:#000000; stroke-width:0.0200; stroke-opacity:1; 
stroke-linecap:round; stroke-linejoin:round;">
<path d="M0.4200 0.4200
L0.4200 12.5100
" />
<path d="M0.4200 12.5100
L12.5100 12.5100
" />
<path d="M1.3270 1.6290
L1.3310 1.6770
" />
<path d="M1.3310 1.5810
L1.3270 1.6290
" />
<path d="M1.3310 1.6770
L1.3420 1.7250
" />
<path d="M1.3420 1.5330
L1.3310 1.5810
" />
<path d="M1.3420 1.7250
L1.3620 1.7690
" />
<path d="M1.3610 1.4890
L1.3420 1.5330
" />
<path d="M1.3620 1.7690
L1.3870 1.8110
" />
<path d="M1.3870 1.4470
L1.3610 1.4890
" />
<path d="M1.3870 1.8110
L1.4200 1.8470
" />
<path d="M1.4200 1.4110
L1.3870 1.4470
" />
<path d="M1.4200 1.8470
L1.4570 1.8770
" />
<path d="M1.4570 1.3800
L1.4200 1.4110
" />
<path d="M1.4570 1.8770
L1.4990 1.9020
" />
<path d="M1.4990 1.3560
L1.4570 1.3800
" />
<path d="M1.4990 1.9020
L1.5450 1.9190
" />
<path d="M1.5450 1.3390
L1.4990 1.3560
" />
<path d="M1.5450 1.9190
L1.5930 1.9290
" />
<path d="M1.5930 1.3290
L1.5450 1.3390
" />
<path d="M1.5930 1.9290
L1.6410 1.9310
" />
<path d="M1.6410 1.3270
L1.5930 1.3290
" />
<path d="M1.6410 1.9310
L1.6890 1.9250
" />
<path d="M1.6890 1.3330
L1.6410 1.3270
" />
<path d="M1.6890 1.9250
L1.7360 1.9120
" />
<path d="M1.7360 1.3470
L1.6890 1.3330
" />
<path d="M1.7360 1.9120
L1.7800 1.8910
" />
<path d="M1.7800 1.3670
L1.7360 1.3470
" />
<path d="M1.7800 1.8910
L1.8200 1.8630
" />
<path d="M1.8200 1.3950
L1.7800 1.3670
" />
<path d="M1.8200 1.8630
L1.8550 1.8290
" />
<path d="M1.8550 1.4290
L1.8200 1.3950
" />
<path d="M1.8550 1.8290
L1.8850 1.7910
" />
<path d="M1.8840 1.4670
L1.8550 1.4290
" />
<path d="M1.8850 1.7910
L1.9070 1.7470
" />
<path d="M1.9070 1.5110
L1.8840 1.4670
" />
<path d="M1.9070 1.7470
L1.9220 1.7010
" />
<path d="M1.9220 1.5570
L1.9070 1.5110
" />
<path d="M1.9220 1.7010
L1.9300 1.6530
" />
<path d="M1.9300 1.6050
L1.9220 1.5570
" />
<path d="M1.9300 1.6530
L1.9300 1.6050
" />
<path d="M12.5100 0.4200
L0.4200 0.4200
" />
<path d="M12.5100 12.5100
L12.5100 0.4200
" />
</g> 
</svg>
