<?xml version="1.0" standalone="no"?>
 <!DOCTYPE svg PUBLIC "-//W3C//DTD SVG 1.1//EN" 
 "http://www.w3.org/Graphics/SVG/1.1/DTD/svg11.dtd"> 
<svg
  xmlns:svg="http://www.w3.org/2000/svg"
  xmlns="http://www.w3.org/2000/svg"
  xmlns:xlink="http://www.w3.org/1999/xlink"
  version="1.1"
  width="1.4478mm" height="1.8288mm" viewBox="0.0000 0.0000 1.4478 1.8288">
<title>SVG Image created as outline.svg date 2025/04/04 10:06:36 </title>
  <desc>Image generated by PCBNEW </desc>
<g style="fill:#000000; fill-opacity:1.0000;stroke:#000000; stroke-opacity:1.0000;
stroke-linecap:round; stroke-linejoin:round;"
 transform="translate(0 0) scale(1 1)">
</g>
<g style="fill:none; 
stroke:#000000; stroke-width:0.0200; stroke-opacity:1; 
stroke-linecap:round; stroke-linejoin:round;">
<path d="M0.1250 0.2260
L0.1250 1.6240
" />
<path d="M0.1250 1.6240
L0.1340 1.6280
" />
<path d="M0.1340 0.2220
L0.1250 0.2260
" />
<path d="M0.1340 1.6280
L0.1420 1.6330
" />
<path d="M0.1420 0.2170
L0.1340 0.2220
" />
<path d="M0.1420 1.6330
L0.1490 1.6370
" />
<path d="M0.1490 0.2130
L0.1420 0.2170
" />
<path d="M0.1490 1.6370
L0.1570 1.6420
" />
<path d="M0.1570 0.2080
L0.1490 0.2130
" />
<path d="M0.1570 1.6420
L0.1640 1.6480
" />
<path d="M0.1640 0.2020
L0.1570 0.2080
" />
<path d="M0.1640 1.6480
L0.1710 1.6530
" />
<path d="M0.1710 0.1970
L0.1640 0.2020
" />
<path d="M0.1710 1.6530
L0.1780 1.6590
" />
<path d="M0.1780 0.1910
L0.1710 0.1970
" />
<path d="M0.1780 1.6590
L0.1850 1.6650
" />
<path d="M0.1850 0.1850
L0.1780 0.1910
" />
<path d="M0.1850 0.3100
L0.1850 1.5400
" />
<path d="M0.1850 1.5400
L0.1860 1.5460
" />
<path d="M0.1850 1.6650
L0.1910 1.6720
" />
<path d="M0.1860 0.2980
L0.1860 0.3040
" />
<path d="M0.1860 0.3040
L0.1850 0.3100
" />
<path d="M0.1860 1.5460
L0.1860 1.5520
" />
<path d="M0.1860 1.5520
L0.1870 1.5580
" />
<path d="M0.1870 0.2920
L0.1860 0.2980
" />
<path d="M0.1870 1.5580
L0.1880 1.5640
" />
<path d="M0.1880 0.2860
L0.1870 0.2920
" />
<path d="M0.1880 1.5640
L0.1890 1.5700
" />
<path d="M0.1890 0.2800
L0.1880 0.2860
" />
<path d="M0.1890 1.5700
L0.1910 1.5760
" />
<path d="M0.1910 0.1780
L0.1850 0.1850
" />
<path d="M0.1910 0.2740
L0.1890 0.2800
" />
<path d="M0.1910 1.5760
L0.1930 1.5820
" />
<path d="M0.1910 1.6720
L0.1970 1.6790
" />
<path d="M0.1930 0.2680
L0.1910 0.2740
" />
<path d="M0.1930 1.5820
L0.1950 1.5870
" />
<path d="M0.1950 0.2630
L0.1930 0.2680
" />
<path d="M0.1950 1.5870
L0.1970 1.5930
" />
<path d="M0.1970 0.1710
L0.1910 0.1780
" />
<path d="M0.1970 0.2570
L0.1950 0.2630
" />
<path d="M0.1970 1.5930
L0.2000 1.5980
" />
<path d="M0.1970 1.6790
L0.2020 1.6860
" />
<path d="M0.2000 0.2520
L0.1970 0.2570
" />
<path d="M0.2000 1.5980
L0.2030 1.6040
" />
<path d="M0.2020 0.1640
L0.1970 0.1710
" />
<path d="M0.2020 1.6860
L0.2080 1.6930
" />
<path d="M0.2030 0.2460
L0.2000 0.2520
" />
<path d="M0.2030 1.6040
L0.2070 1.6090
" />
<path d="M0.2070 0.2410
L0.2030 0.2460
" />
<path d="M0.2070 1.6090
L0.2100 1.6140
" />
<path d="M0.2080 0.1570
L0.2020 0.1640
" />
<path d="M0.2080 1.6930
L0.2130 1.7010
" />
<path d="M0.2100 0.2360
L0.2070 0.2410
" />
<path d="M0.2100 1.6140
L0.2140 1.6190
" />
<path d="M0.2130 0.1490
L0.2080 0.1570
" />
<path d="M0.2130 1.7010
L0.2170 1.7080
" />
<path d="M0.2140 0.2310
L0.2100 0.2360
" />
<path d="M0.2140 1.6190
L0.2180 1.6230
" />
<path d="M0.2170 0.1420
L0.2130 0.1490
" />
<path d="M0.2170 1.7080
L0.2220 1.7160
" />
<path d="M0.2180 0.2270
L0.2140 0.2310
" />
<path d="M0.2180 1.6230
L0.2220 1.6280
" />
<path d="M0.2220 0.1340
L0.2170 0.1420
" />
<path d="M0.2220 0.2220
L0.2180 0.2270
" />
</g>
<g style="fill:#000000; fill-opacity:1.0000; stroke:none;">
<circle cx="0.2220" cy="0.2220" r="0.0100" /> 
<circle cx="0.2220" cy="1.6280" r="0.0100" /> 
</g>
<g style="fill:none; 
stroke:#000000; stroke-width:0.0200; stroke-opacity:1; 
stroke-linecap:round; stroke-linejoin:round;">
<path d="M0.2220 1.6280
L0.2270 1.6320
" />
<path d="M0.2220 1.7160
L0.2250 1.7250
" />
<path d="M0.2250 0.1250
L0.2220 0.1340
" />
<path d="M0.2250 1.7250
L1.2250 1.7250
" />
<path d="M0.2270 0.2180
L0.2220 0.2220
" />
<path d="M0.2270 1.6320
L0.2310 1.6360
" />
<path d="M0.2310 0.2140
L0.2270 0.2180
" />
<path d="M0.2310 1.6360
L0.2360 1.6400
" />
<path d="M0.2360 0.2100
L0.2310 0.2140
" />
<path d="M0.2360 1.6400
L0.2410 1.6430
" />
<path d="M0.2410 0.2070
L0.2360 0.2100
" />
<path d="M0.2410 1.6430
L0.2460 1.6470
" />
<path d="M0.2460 0.2030
L0.2410 0.2070
" />
<path d="M0.2460 1.6470
L0.2520 1.6500
" />
<path d="M0.2510 0.3630
L0.2510 0.3690
" />
<path d="M0.2510 0.3690
L0.2510 0.3750
" />
<path d="M0.2510 0.3750
L0.2510 1.4750
" />
<path d="M0.2510 1.4750
L0.2510 1.4810
" />
<path d="M0.2510 1.4810
L0.2510 1.4870
" />
<path d="M0.2510 1.4870
L0.2520 1.4930
" />
<path d="M0.2520 0.2000
L0.2460 0.2030
" />
<path d="M0.2520 0.3570
L0.2510 0.3630
" />
<path d="M0.2520 1.4930
L0.2530 1.4990
" />
<path d="M0.2520 1.6500
L0.2570 1.6530
" />
<path d="M0.2530 0.3510
L0.2520 0.3570
" />
<path d="M0.2530 1.4990
L0.2540 1.5050
" />
<path d="M0.2540 0.3450
L0.2530 0.3510
" />
<path d="M0.2540 1.5050
L0.2560 1.5110
" />
<path d="M0.2560 0.3390
L0.2540 0.3450
" />
<path d="M0.2560 1.5110
L0.2580 1.5170
" />
<path d="M0.2570 0.1970
L0.2520 0.2000
" />
<path d="M0.2570 1.6530
L0.2630 1.6550
" />
<path d="M0.2580 0.3330
L0.2560 0.3390
" />
<path d="M0.2580 1.5170
L0.2600 1.5220
" />
<path d="M0.2600 0.3280
L0.2580 0.3330
" />
<path d="M0.2600 1.5220
L0.2620 1.5280
" />
<path d="M0.2620 0.3220
L0.2600 0.3280
" />
<path d="M0.2620 1.5280
L0.2650 1.5330
" />
<path d="M0.2630 0.1950
L0.2570 0.1970
" />
<path d="M0.2630 1.6550
L0.2680 1.6570
" />
<path d="M0.2650 0.3170
L0.2620 0.3220
" />
<path d="M0.2650 1.5330
L0.2680 1.5390
" />
<path d="M0.2680 0.1930
L0.2630 0.1950
" />
<path d="M0.2680 0.3110
L0.2650 0.3170
" />
<path d="M0.2680 1.5390
L0.2720 1.5440
" />
<path d="M0.2680 1.6570
L0.2740 1.6590
" />
<path d="M0.2720 0.3060
L0.2680 0.3110
" />
<path d="M0.2720 1.5440
L0.2750 1.5490
" />
<path d="M0.2740 0.1910
L0.2680 0.1930
" />
<path d="M0.2740 1.6590
L0.2800 1.6610
" />
<path d="M0.2750 0.3010
L0.2720 0.3060
" />
<path d="M0.2750 1.5490
L0.2790 1.5540
" />
<path d="M0.2790 0.2960
L0.2750 0.3010
" />
<path d="M0.2790 1.5540
L0.2830 1.5580
" />
<path d="M0.2800 0.1890
L0.2740 0.1910
" />
<path d="M0.2800 1.6610
L0.2860 1.6620
" />
<path d="M0.2830 0.2920
L0.2790 0.2960
" />
<path d="M0.2830 1.5580
L0.2870 1.5630
" />
<path d="M0.2860 0.1880
L0.2800 0.1890
" />
<path d="M0.2860 1.6620
L0.2920 1.6630
" />
<path d="M0.2870 0.2870
L0.2830 0.2920
" />
</g>
<g style="fill:#000000; fill-opacity:1.0000; stroke:none;">
<circle cx="0.2870" cy="0.2870" r="0.0100" /> 
<circle cx="0.2870" cy="1.5630" r="0.0100" /> 
</g>
<g style="fill:none; 
stroke:#000000; stroke-width:0.0200; stroke-opacity:1; 
stroke-linecap:round; stroke-linejoin:round;">
<path d="M0.2870 1.5630
L0.2920 1.5670
" />
<path d="M0.2920 0.1870
L0.2860 0.1880
" />
<path d="M0.2920 0.2830
L0.2870 0.2870
" />
<path d="M0.2920 1.5670
L0.2960 1.5710
" />
<path d="M0.2920 1.6630
L0.2980 1.6640
" />
<path d="M0.2960 0.2790
L0.2920 0.2830
" />
<path d="M0.2960 1.5710
L0.3010 1.5750
" />
<path d="M0.2980 0.1860
L0.2920 0.1870
" />
<path d="M0.2980 1.6640
L0.3040 1.6640
" />
<path d="M0.3010 0.2750
L0.2960 0.2790
" />
<path d="M0.3010 1.5750
L0.3060 1.5780
" />
<path d="M0.3040 0.1860
L0.2980 0.1860
" />
<path d="M0.3040 1.6640
L0.3110 1.6650
" />
<path d="M0.3060 0.2720
L0.3010 0.2750
" />
<path d="M0.3060 1.5780
L0.3110 1.5820
" />
<path d="M0.3110 0.1850
L0.3040 0.1860
" />
<path d="M0.3110 0.2680
L0.3060 0.2720
" />
<path d="M0.3110 1.5820
L0.3170 1.5850
" />
<path d="M0.3110 1.6650
L1.1390 1.6650
" />
<path d="M0.3170 0.2650
L0.3110 0.2680
" />
<path d="M0.3170 1.5850
L0.3220 1.5880
" />
<path d="M0.3220 0.2620
L0.3170 0.2650
" />
<path d="M0.3220 1.5880
L0.3280 1.5900
" />
<path d="M0.3280 0.2600
L0.3220 0.2620
" />
<path d="M0.3280 1.5900
L0.3330 1.5920
" />
<path d="M0.3330 0.2580
L0.3280 0.2600
" />
<path d="M0.3330 1.5920
L0.3390 1.5940
" />
<path d="M0.3390 0.2560
L0.3330 0.2580
" />
<path d="M0.3390 1.5940
L0.3450 1.5960
" />
<path d="M0.3450 0.2540
L0.3390 0.2560
" />
<path d="M0.3450 1.5960
L0.3510 1.5970
" />
<path d="M0.3510 0.2530
L0.3450 0.2540
" />
<path d="M0.3510 1.5970
L0.3570 1.5980
" />
<path d="M0.3570 0.2520
L0.3510 0.2530
" />
<path d="M0.3570 1.5980
L0.3630 1.5990
" />
<path d="M0.3630 0.2510
L0.3570 0.2520
" />
<path d="M0.3630 1.5990
L0.3690 1.5990
" />
<path d="M0.3690 0.2510
L0.3630 0.2510
" />
<path d="M0.3690 1.5990
L0.3760 1.6000
" />
<path d="M0.3760 0.2500
L0.3690 0.2510
" />
<path d="M0.3760 1.6000
L1.0740 1.6000
" />
<path d="M1.0740 0.2500
L0.3760 0.2500
" />
<path d="M1.0740 1.6000
L1.0810 1.5990
" />
<path d="M1.0810 0.2510
L1.0740 0.2500
" />
<path d="M1.0810 1.5990
L1.0870 1.5990
" />
<path d="M1.0870 0.2510
L1.0810 0.2510
" />
<path d="M1.0870 1.5990
L1.0930 1.5980
" />
<path d="M1.0930 0.2520
L1.0870 0.2510
" />
<path d="M1.0930 1.5980
L1.0990 1.5970
" />
<path d="M1.0990 0.2530
L1.0930 0.2520
" />
<path d="M1.0990 1.5970
L1.1050 1.5960
" />
<path d="M1.1050 0.2540
L1.0990 0.2530
" />
<path d="M1.1050 1.5960
L1.1110 1.5940
" />
<path d="M1.1110 0.2560
L1.1050 0.2540
" />
<path d="M1.1110 1.5940
L1.1170 1.5920
" />
<path d="M1.1170 0.2580
L1.1110 0.2560
" />
<path d="M1.1170 1.5920
L1.1220 1.5900
" />
<path d="M1.1220 0.2600
L1.1170 0.2580
" />
<path d="M1.1220 1.5900
L1.1280 1.5880
" />
<path d="M1.1280 0.2620
L1.1220 0.2600
" />
<path d="M1.1280 1.5880
L1.1330 1.5850
" />
<path d="M1.1330 0.2650
L1.1280 0.2620
" />
<path d="M1.1330 1.5850
L1.1390 1.5820
" />
<path d="M1.1390 0.1850
L0.3110 0.1850
" />
<path d="M1.1390 0.2680
L1.1330 0.2650
" />
<path d="M1.1390 1.5820
L1.1440 1.5780
" />
<path d="M1.1390 1.6650
L1.1460 1.6640
" />
<path d="M1.1440 0.2720
L1.1390 0.2680
" />
<path d="M1.1440 1.5780
L1.1490 1.5750
" />
<path d="M1.1460 0.1860
L1.1390 0.1850
" />
<path d="M1.1460 1.6640
L1.1520 1.6640
" />
<path d="M1.1490 0.2750
L1.1440 0.2720
" />
<path d="M1.1490 1.5750
L1.1540 1.5710
" />
<path d="M1.1520 0.1860
L1.1460 0.1860
" />
<path d="M1.1520 1.6640
L1.1580 1.6630
" />
<path d="M1.1540 0.2790
L1.1490 0.2750
" />
<path d="M1.1540 1.5710
L1.1580 1.5670
" />
<path d="M1.1580 0.1870
L1.1520 0.1860
" />
<path d="M1.1580 0.2830
L1.1540 0.2790
" />
<path d="M1.1580 1.5670
L1.1630 1.5630
" />
<path d="M1.1580 1.6630
L1.1640 1.6620
" />
<path d="M1.1630 0.2870
L1.1580 0.2830
" />
</g>
<g style="fill:#000000; fill-opacity:1.0000; stroke:none;">
<circle cx="1.1630" cy="0.2870" r="0.0100" /> 
<circle cx="1.1630" cy="1.5630" r="0.0100" /> 
</g>
<g style="fill:none; 
stroke:#000000; stroke-width:0.0200; stroke-opacity:1; 
stroke-linecap:round; stroke-linejoin:round;">
<path d="M1.1630 1.5630
L1.1670 1.5580
" />
<path d="M1.1640 0.1880
L1.1580 0.1870
" />
<path d="M1.1640 1.6620
L1.1700 1.6610
" />
<path d="M1.1670 0.2920
L1.1630 0.2870
" />
<path d="M1.1670 1.5580
L1.1710 1.5540
" />
<path d="M1.1700 0.1890
L1.1640 0.1880
" />
<path d="M1.1700 1.6610
L1.1760 1.6590
" />
<path d="M1.1710 0.2960
L1.1670 0.2920
" />
<path d="M1.1710 1.5540
L1.1750 1.5490
" />
<path d="M1.1750 0.3010
L1.1710 0.2960
" />
<path d="M1.1750 1.5490
L1.1780 1.5440
" />
<path d="M1.1760 0.1910
L1.1700 0.1890
" />
<path d="M1.1760 1.6590
L1.1820 1.6570
" />
<path d="M1.1780 0.3060
L1.1750 0.3010
" />
<path d="M1.1780 1.5440
L1.1820 1.5390
" />
<path d="M1.1820 0.1930
L1.1760 0.1910
" />
<path d="M1.1820 0.3110
L1.1780 0.3060
" />
<path d="M1.1820 1.5390
L1.1850 1.5330
" />
<path d="M1.1820 1.6570
L1.1870 1.6550
" />
<path d="M1.1850 0.3170
L1.1820 0.3110
" />
<path d="M1.1850 1.5330
L1.1880 1.5280
" />
<path d="M1.1870 0.1950
L1.1820 0.1930
" />
<path d="M1.1870 1.6550
L1.1930 1.6530
" />
<path d="M1.1880 0.3220
L1.1850 0.3170
" />
<path d="M1.1880 1.5280
L1.1900 1.5220
" />
<path d="M1.1900 0.3280
L1.1880 0.3220
" />
<path d="M1.1900 1.5220
L1.1920 1.5170
" />
<path d="M1.1920 0.3330
L1.1900 0.3280
" />
<path d="M1.1920 1.5170
L1.1940 1.5110
" />
<path d="M1.1930 0.1970
L1.1870 0.1950
" />
<path d="M1.1930 1.6530
L1.1980 1.6500
" />
<path d="M1.1940 0.3390
L1.1920 0.3330
" />
<path d="M1.1940 1.5110
L1.1960 1.5050
" />
<path d="M1.1960 0.3450
L1.1940 0.3390
" />
<path d="M1.1960 1.5050
L1.1970 1.4990
" />
<path d="M1.1970 0.3510
L1.1960 0.3450
" />
<path d="M1.1970 1.4990
L1.1980 1.4930
" />
<path d="M1.1980 0.2000
L1.1930 0.1970
" />
<path d="M1.1980 0.3570
L1.1970 0.3510
" />
<path d="M1.1980 1.4930
L1.1990 1.4870
" />
<path d="M1.1980 1.6500
L1.2040 1.6470
" />
<path d="M1.1990 0.3630
L1.1980 0.3570
" />
<path d="M1.1990 0.3690
L1.1990 0.3630
" />
<path d="M1.1990 0.3750
L1.1990 0.3690
" />
<path d="M1.1990 1.4750
L1.1990 0.3750
" />
<path d="M1.1990 1.4810
L1.1990 1.4750
" />
<path d="M1.1990 1.4870
L1.1990 1.4810
" />
<path d="M1.2040 0.2030
L1.1980 0.2000
" />
<path d="M1.2040 1.6470
L1.2090 1.6430
" />
<path d="M1.2090 0.2070
L1.2040 0.2030
" />
<path d="M1.2090 1.6430
L1.2140 1.6400
" />
<path d="M1.2140 0.2100
L1.2090 0.2070
" />
<path d="M1.2140 1.6400
L1.2190 1.6360
" />
<path d="M1.2190 0.2140
L1.2140 0.2100
" />
<path d="M1.2190 1.6360
L1.2230 1.6320
" />
<path d="M1.2230 0.2180
L1.2190 0.2140
" />
<path d="M1.2230 1.6320
L1.2280 1.6280
" />
<path d="M1.2250 0.1250
L0.2250 0.1250
" />
<path d="M1.2250 1.7250
L1.2280 1.7160
" />
<path d="M1.2280 0.1340
L1.2250 0.1250
" />
<path d="M1.2280 0.2220
L1.2230 0.2180
" />
</g>
<g style="fill:#000000; fill-opacity:1.0000; stroke:none;">
<circle cx="1.2280" cy="0.2220" r="0.0100" /> 
<circle cx="1.2280" cy="1.6280" r="0.0100" /> 
</g>
<g style="fill:none; 
stroke:#000000; stroke-width:0.0200; stroke-opacity:1; 
stroke-linecap:round; stroke-linejoin:round;">
<path d="M1.2280 1.6280
L1.2320 1.6230
" />
<path d="M1.2280 1.7160
L1.2330 1.7080
" />
<path d="M1.2320 0.2270
L1.2280 0.2220
" />
<path d="M1.2320 1.6230
L1.2360 1.6190
" />
<path d="M1.2330 0.1420
L1.2280 0.1340
" />
<path d="M1.2330 1.7080
L1.2370 1.7010
" />
<path d="M1.2360 0.2310
L1.2320 0.2270
" />
<path d="M1.2360 1.6190
L1.2400 1.6140
" />
<path d="M1.2370 0.1490
L1.2330 0.1420
" />
<path d="M1.2370 1.7010
L1.2420 1.6930
" />
<path d="M1.2400 0.2360
L1.2360 0.2310
" />
<path d="M1.2400 1.6140
L1.2430 1.6090
" />
<path d="M1.2420 0.1570
L1.2370 0.1490
" />
<path d="M1.2420 1.6930
L1.2480 1.6860
" />
<path d="M1.2430 0.2410
L1.2400 0.2360
" />
<path d="M1.2430 1.6090
L1.2470 1.6040
" />
<path d="M1.2470 0.2460
L1.2430 0.2410
" />
<path d="M1.2470 1.6040
L1.2500 1.5980
" />
<path d="M1.2480 0.1640
L1.2420 0.1570
" />
<path d="M1.2480 1.6860
L1.2530 1.6790
" />
<path d="M1.2500 0.2520
L1.2470 0.2460
" />
<path d="M1.2500 1.5980
L1.2530 1.5930
" />
<path d="M1.2530 0.1710
L1.2480 0.1640
" />
<path d="M1.2530 0.2570
L1.2500 0.2520
" />
<path d="M1.2530 1.5930
L1.2550 1.5870
" />
<path d="M1.2530 1.6790
L1.2590 1.6720
" />
<path d="M1.2550 0.2630
L1.2530 0.2570
" />
<path d="M1.2550 1.5870
L1.2570 1.5820
" />
<path d="M1.2570 0.2680
L1.2550 0.2630
" />
<path d="M1.2570 1.5820
L1.2590 1.5760
" />
<path d="M1.2590 0.1780
L1.2530 0.1710
" />
<path d="M1.2590 0.2740
L1.2570 0.2680
" />
<path d="M1.2590 1.5760
L1.2610 1.5700
" />
<path d="M1.2590 1.6720
L1.2650 1.6650
" />
<path d="M1.2610 0.2800
L1.2590 0.2740
" />
<path d="M1.2610 1.5700
L1.2620 1.5640
" />
<path d="M1.2620 0.2860
L1.2610 0.2800
" />
<path d="M1.2620 1.5640
L1.2630 1.5580
" />
<path d="M1.2630 0.2920
L1.2620 0.2860
" />
<path d="M1.2630 1.5580
L1.2640 1.5520
" />
<path d="M1.2640 0.2980
L1.2630 0.2920
" />
<path d="M1.2640 0.3040
L1.2640 0.2980
" />
<path d="M1.2640 1.5460
L1.2650 1.5400
" />
<path d="M1.2640 1.5520
L1.2640 1.5460
" />
<path d="M1.2650 0.1850
L1.2590 0.1780
" />
<path d="M1.2650 0.3100
L1.2640 0.3040
" />
<path d="M1.2650 1.5400
L1.2650 0.3100
" />
<path d="M1.2650 1.6650
L1.2720 1.6590
" />
<path d="M1.2720 0.1910
L1.2650 0.1850
" />
<path d="M1.2720 1.6590
L1.2790 1.6530
" />
<path d="M1.2790 0.1970
L1.2720 0.1910
" />
<path d="M1.2790 1.6530
L1.2860 1.6480
" />
<path d="M1.2860 0.2020
L1.2790 0.1970
" />
<path d="M1.2860 1.6480
L1.2930 1.6420
" />
<path d="M1.2930 0.2080
L1.2860 0.2020
" />
<path d="M1.2930 1.6420
L1.3010 1.6370
" />
<path d="M1.3010 0.2130
L1.2930 0.2080
" />
<path d="M1.3010 1.6370
L1.3080 1.6330
" />
<path d="M1.3080 0.2170
L1.3010 0.2130
" />
<path d="M1.3080 1.6330
L1.3160 1.6280
" />
<path d="M1.3160 0.2220
L1.3080 0.2170
" />
<path d="M1.3160 1.6280
L1.3250 1.6240
" />
<path d="M1.3250 0.2260
L1.3160 0.2220
" />
<path d="M1.3250 1.6240
L1.3250 0.2260
" />
</g> 
</svg>
