<?xml version="1.0" standalone="no"?>
 <!DOCTYPE svg PUBLIC "-//W3C//DTD SVG 1.1//EN" 
 "http://www.w3.org/Graphics/SVG/1.1/DTD/svg11.dtd"> 
<svg
  xmlns:svg="http://www.w3.org/2000/svg"
  xmlns="http://www.w3.org/2000/svg"
  xmlns:xlink="http://www.w3.org/1999/xlink"
  version="1.1"
  width="23.6982mm" height="12.7762mm" viewBox="0.0000 0.0000 23.6982 12.7762">
<title>SVG Image created as outline.svg date 2025/06/16 09:17:50 </title>
  <desc>Image generated by PCBNEW </desc>
<g style="fill:#000000; fill-opacity:1.0000;stroke:#000000; stroke-opacity:1.0000;
stroke-linecap:round; stroke-linejoin:round;"
 transform="translate(0 0) scale(1 1)">
</g>
<g style="fill:none; 
stroke:#000000; stroke-width:0.0200; stroke-opacity:1; 
stroke-linecap:round; stroke-linejoin:round;">
<path d="M0.4250 1.5690
L0.4250 10.8400
" />
<path d="M1.2500 2.7750
L1.2500 10.0150
" />
<path d="M1.2500 2.7750
L1.6950 3.2200
" />
<path d="M1.2500 10.0150
L1.6950 9.5700
" />
<path d="M1.2500 10.0150
L9.3150 10.0150
" />
<path d="M1.6950 1.5690
L0.4250 1.5690
" />
<path d="M1.6950 1.9500
L1.6950 1.5690
" />
<path d="M1.6950 3.2200
L1.6950 9.5700
" />
<path d="M1.6950 9.5700
L9.3150 9.5700
" />
<path d="M4.8700 10.5860
L4.8700 10.8400
" />
<path d="M4.8700 10.5860
L4.8700 10.8400
" />
<path d="M4.8700 10.8400
L0.4250 10.8400
" />
<path d="M4.8950 10.8400
L4.8700 10.8400
" />
<path d="M4.8950 10.8400
L4.8950 10.6110
" />
<path d="M5.1870 0.8070
L5.1870 0.9660
" />
<path d="M5.1870 0.9660
L5.1870 1.9500
" />
<path d="M5.1870 4.8080
L5.1870 4.9660
" />
<path d="M5.1870 4.9660
L5.1870 5.2840
" />
<path d="M5.1870 5.2840
L5.1870 5.4430
" />
<path d="M5.1870 7.3470
L5.1870 7.5060
" />
<path d="M5.1870 7.5060
L5.1870 7.8240
" />
<path d="M5.1870 7.8240
L5.1870 7.9820
" />
<path d="M5.1870 10.8400
L5.1870 11.8240
" />
<path d="M5.1870 11.8240
L5.1870 11.9830
" />
<path d="M5.5050 10.8400
L4.8950 10.8400
" />
<path d="M5.5050 10.8400
L5.5050 10.6110
" />
<path d="M5.8230 0.8070
L5.1870 0.8070
" />
<path d="M5.8230 0.8070
L5.8230 0.9660
" />
<path d="M5.8230 0.9660
L5.1870 0.9660
" />
<path d="M5.8230 0.9660
L5.8230 1.9500
" />
<path d="M5.8230 4.8080
L5.1870 4.8080
" />
<path d="M5.8230 4.8080
L5.8230 4.9660
" />
<path d="M5.8230 4.9660
L5.1870 4.9660
" />
<path d="M5.8230 4.9660
L5.8230 5.2840
" />
<path d="M5.8230 5.2840
L5.1870 5.2840
" />
<path d="M5.8230 5.2840
L5.8230 5.4430
" />
<path d="M5.8230 5.4430
L5.1870 5.4430
" />
<path d="M5.8230 7.3470
L5.1870 7.3470
" />
<path d="M5.8230 7.3470
L5.8230 7.5060
" />
<path d="M5.8230 7.5060
L5.1870 7.5060
" />
<path d="M5.8230 7.5060
L5.8230 7.8240
" />
<path d="M5.8230 7.8240
L5.1870 7.8240
" />
<path d="M5.8230 7.8240
L5.8230 7.9820
" />
<path d="M5.8230 7.9820
L5.1870 7.9820
" />
<path d="M5.8230 10.8400
L5.8230 11.8240
" />
<path d="M5.8230 11.8240
L5.1870 11.8240
" />
<path d="M5.8230 11.8240
L5.8230 11.9830
" />
<path d="M5.8230 11.9830
L5.1870 11.9830
" />
<path d="M6.1150 10.6110
L4.8950 10.6110
" />
<path d="M6.1150 10.8400
L5.5050 10.8400
" />
<path d="M6.1150 10.8400
L6.1150 10.6110
" />
<path d="M6.1400 10.5860
L4.8700 10.5860
" />
<path d="M6.1400 10.5860
L4.8700 10.5860
" />
<path d="M6.1400 10.5860
L6.1400 10.8400
" />
<path d="M6.1400 10.5860
L6.1400 10.8400
" />
<path d="M6.1400 10.8400
L6.1150 10.8400
" />
<path d="M7.7270 0.9660
L7.7270 0.8070
" />
<path d="M7.7270 1.9500
L7.7270 0.9660
" />
<path d="M7.7270 4.9660
L7.7270 4.8080
" />
<path d="M7.7270 5.2840
L7.7270 4.9660
" />
<path d="M7.7270 5.4430
L7.7270 5.2840
" />
<path d="M7.7270 7.5060
L7.7270 7.3470
" />
<path d="M7.7270 7.8240
L7.7270 7.5060
" />
<path d="M7.7270 7.9820
L7.7270 7.8240
" />
<path d="M7.7270 11.8240
L7.7270 10.8400
" />
<path d="M7.7270 11.9830
L7.7270 11.8240
" />
<path d="M8.3630 0.8070
L7.7270 0.8070
" />
<path d="M8.3630 0.8070
L8.3630 0.9660
" />
<path d="M8.3630 0.9660
L7.7270 0.9660
" />
<path d="M8.3630 0.9660
L8.3630 1.9500
" />
<path d="M8.3630 4.8080
L7.7270 4.8080
" />
<path d="M8.3630 4.8080
L8.3630 4.9660
" />
<path d="M8.3630 4.9660
L7.7270 4.9660
" />
<path d="M8.3630 4.9660
L8.3630 5.2840
" />
<path d="M8.3630 5.2840
L7.7270 5.2840
" />
<path d="M8.3630 5.2840
L8.3630 5.4430
" />
<path d="M8.3630 5.4430
L7.7270 5.4430
" />
<path d="M8.3630 7.3470
L7.7270 7.3470
" />
<path d="M8.3630 7.3470
L8.3630 7.5060
" />
<path d="M8.3630 7.5060
L7.7270 7.5060
" />
<path d="M8.3630 7.5060
L8.3630 7.8240
" />
<path d="M8.3630 7.8240
L7.7270 7.8240
" />
<path d="M8.3630 7.8240
L8.3630 7.9820
" />
<path d="M8.3630 7.9820
L7.7270 7.9820
" />
<path d="M8.3630 10.8400
L8.3630 11.8240
" />
<path d="M8.3630 11.8240
L7.7270 11.8240
" />
<path d="M8.3630 11.8240
L8.3630 11.9830
" />
<path d="M8.3630 11.9830
L7.7270 11.9830
" />
<path d="M9.3150 9.5700
L9.3150 10.0150
" />
<path d="M9.3150 9.5700
L14.3950 9.5700
" />
<path d="M9.3150 10.8400
L6.1400 10.8400
" />
<path d="M9.3150 10.8400
L9.3150 10.0150
" />
<path d="M9.3150 10.8400
L14.3950 10.8400
" />
<path d="M10.2680 0.9660
L10.2680 0.8070
" />
<path d="M10.2680 1.9500
L10.2680 0.9660
" />
<path d="M10.2680 4.9660
L10.2680 4.8080
" />
<path d="M10.2680 5.2840
L10.2680 4.9660
" />
<path d="M10.2680 5.4430
L10.2680 5.2840
" />
<path d="M10.2680 7.5060
L10.2680 7.3470
" />
<path d="M10.2680 7.8240
L10.2680 7.5060
" />
<path d="M10.2680 7.9820
L10.2680 7.8240
" />
<path d="M10.2680 11.8240
L10.2680 10.8400
" />
<path d="M10.2680 11.9830
L10.2680 11.8240
" />
<path d="M10.5850 1.5690
L10.5850 1.9500
" />
<path d="M10.5850 1.9500
L1.6950 1.9500
" />
<path d="M10.9030 0.8070
L10.2680 0.8070
" />
<path d="M10.9030 0.8070
L10.9030 0.9660
" />
<path d="M10.9030 0.9660
L10.2680 0.9660
" />
<path d="M10.9030 0.9660
L10.9030 1.5690
" />
<path d="M10.9030 4.8080
L10.2680 4.8080
" />
<path d="M10.9030 4.8080
L10.9030 4.9660
" />
<path d="M10.9030 4.9660
L10.2680 4.9660
" />
<path d="M10.9030 4.9660
L10.9030 5.2840
" />
<path d="M10.9030 5.2840
L10.2680 5.2840
" />
<path d="M10.9030 5.2840
L10.9030 5.4430
" />
<path d="M10.9030 5.4430
L10.2680 5.4430
" />
<path d="M10.9030 7.3470
L10.2680 7.3470
" />
<path d="M10.9030 7.3470
L10.9030 7.5060
" />
<path d="M10.9030 7.5060
L10.2680 7.5060
" />
<path d="M10.9030 7.5060
L10.9030 7.8240
" />
<path d="M10.9030 7.8240
L10.2680 7.8240
" />
<path d="M10.9030 7.8240
L10.9030 7.9820
" />
<path d="M10.9030 7.9820
L10.2680 7.9820
" />
<path d="M10.9030 10.8400
L10.9030 11.8240
" />
<path d="M10.9030 11.8240
L10.2680 11.8240
" />
<path d="M10.9030 11.8240
L10.9030 11.9830
" />
<path d="M10.9030 11.9830
L10.2680 11.9830
" />
<path d="M12.8070 0.9660
L12.8070 0.8070
" />
<path d="M12.8070 1.5690
L12.8070 0.9660
" />
<path d="M12.8070 4.9660
L12.8070 4.8080
" />
<path d="M12.8070 5.2840
L12.8070 4.9660
" />
<path d="M12.8070 5.4430
L12.8070 5.2840
" />
<path d="M12.8070 7.5060
L12.8070 7.3470
" />
<path d="M12.8070 7.8240
L12.8070 7.5060
" />
<path d="M12.8070 7.9820
L12.8070 7.8240
" />
<path d="M12.8070 11.8240
L12.8070 10.8400
" />
<path d="M12.8070 11.9830
L12.8070 11.8240
" />
<path d="M13.1250 1.5690
L10.5850 1.5690
" />
<path d="M13.1250 1.9500
L13.1250 1.5690
" />
<path d="M13.4420 0.8070
L12.8070 0.8070
" />
<path d="M13.4420 0.8070
L13.4420 0.9660
" />
<path d="M13.4420 0.9660
L12.8070 0.9660
" />
<path d="M13.4420 0.9660
L13.4420 1.9500
" />
<path d="M13.4420 4.8080
L12.8070 4.8080
" />
<path d="M13.4420 4.8080
L13.4420 4.9660
" />
<path d="M13.4420 4.9660
L12.8070 4.9660
" />
<path d="M13.4420 4.9660
L13.4420 5.2840
" />
<path d="M13.4420 5.2840
L12.8070 5.2840
" />
<path d="M13.4420 5.2840
L13.4420 5.4430
" />
<path d="M13.4420 5.4430
L12.8070 5.4430
" />
<path d="M13.4420 7.3470
L12.8070 7.3470
" />
<path d="M13.4420 7.3470
L13.4420 7.5060
" />
<path d="M13.4420 7.5060
L12.8070 7.5060
" />
<path d="M13.4420 7.5060
L13.4420 7.8240
" />
<path d="M13.4420 7.8240
L12.8070 7.8240
" />
<path d="M13.4420 7.8240
L13.4420 7.9820
" />
<path d="M13.4420 7.9820
L12.8070 7.9820
" />
<path d="M13.4420 10.8400
L13.4420 11.8240
" />
<path d="M13.4420 11.8240
L12.8070 11.8240
" />
<path d="M13.4420 11.8240
L13.4420 11.9830
" />
<path d="M13.4420 11.9830
L12.8070 11.9830
" />
<path d="M14.3950 9.5700
L22.0150 9.5700
" />
<path d="M14.3950 10.0150
L14.3950 9.5700
" />
<path d="M14.3950 10.0150
L14.3950 10.8400
" />
<path d="M14.3950 10.0150
L22.4600 10.0150
" />
<path d="M15.3470 0.9660
L15.3470 0.8070
" />
<path d="M15.3470 1.9500
L15.3470 0.9660
" />
<path d="M15.3470 4.9660
L15.3470 4.8080
" />
<path d="M15.3470 5.2840
L15.3470 4.9660
" />
<path d="M15.3470 5.4430
L15.3470 5.2840
" />
<path d="M15.3470 7.5060
L15.3470 7.3470
" />
<path d="M15.3470 7.8240
L15.3470 7.5060
" />
<path d="M15.3470 7.9820
L15.3470 7.8240
" />
<path d="M15.3470 11.8240
L15.3470 10.8400
" />
<path d="M15.3470 11.9830
L15.3470 11.8240
" />
<path d="M15.9830 0.8070
L15.3470 0.8070
" />
<path d="M15.9830 0.8070
L15.9830 0.9660
" />
<path d="M15.9830 0.9660
L15.3470 0.9660
" />
<path d="M15.9830 0.9660
L15.9830 1.9500
" />
<path d="M15.9830 4.8080
L15.3470 4.8080
" />
<path d="M15.9830 4.8080
L15.9830 4.9660
" />
<path d="M15.9830 4.9660
L15.3470 4.9660
" />
<path d="M15.9830 4.9660
L15.9830 5.2840
" />
<path d="M15.9830 5.2840
L15.3470 5.2840
" />
<path d="M15.9830 5.2840
L15.9830 5.4430
" />
<path d="M15.9830 5.4430
L15.3470 5.4430
" />
<path d="M15.9830 7.3470
L15.3470 7.3470
" />
<path d="M15.9830 7.3470
L15.9830 7.5060
" />
<path d="M15.9830 7.5060
L15.3470 7.5060
" />
<path d="M15.9830 7.5060
L15.9830 7.8240
" />
<path d="M15.9830 7.8240
L15.3470 7.8240
" />
<path d="M15.9830 7.8240
L15.9830 7.9820
" />
<path d="M15.9830 7.9820
L15.3470 7.9820
" />
<path d="M15.9830 10.8400
L15.9830 11.8240
" />
<path d="M15.9830 11.8240
L15.3470 11.8240
" />
<path d="M15.9830 11.8240
L15.9830 11.9830
" />
<path d="M15.9830 11.9830
L15.3470 11.9830
" />
<path d="M17.8870 0.9660
L17.8870 0.8070
" />
<path d="M17.8870 1.9500
L17.8870 0.9660
" />
<path d="M17.8870 4.9660
L17.8870 4.8080
" />
<path d="M17.8870 5.2840
L17.8870 4.9660
" />
<path d="M17.8870 5.4430
L17.8870 5.2840
" />
<path d="M17.8870 7.5060
L17.8870 7.3470
" />
<path d="M17.8870 7.8240
L17.8870 7.5060
" />
<path d="M17.8870 7.9820
L17.8870 7.8240
" />
<path d="M17.8870 11.8240
L17.8870 10.8400
" />
<path d="M17.8870 11.9830
L17.8870 11.8240
" />
<path d="M18.5230 0.8070
L17.8870 0.8070
" />
<path d="M18.5230 0.8070
L18.5230 0.9660
" />
<path d="M18.5230 0.9660
L17.8870 0.9660
" />
<path d="M18.5230 0.9660
L18.5230 1.9500
" />
<path d="M18.5230 4.8080
L17.8870 4.8080
" />
<path d="M18.5230 4.8080
L18.5230 4.9660
" />
<path d="M18.5230 4.9660
L17.8870 4.9660
" />
<path d="M18.5230 4.9660
L18.5230 5.2840
" />
<path d="M18.5230 5.2840
L17.8870 5.2840
" />
<path d="M18.5230 5.2840
L18.5230 5.4430
" />
<path d="M18.5230 5.4430
L17.8870 5.4430
" />
<path d="M18.5230 7.3470
L17.8870 7.3470
" />
<path d="M18.5230 7.3470
L18.5230 7.5060
" />
<path d="M18.5230 7.5060
L17.8870 7.5060
" />
<path d="M18.5230 7.5060
L18.5230 7.8240
" />
<path d="M18.5230 7.8240
L17.8870 7.8240
" />
<path d="M18.5230 7.8240
L18.5230 7.9820
" />
<path d="M18.5230 7.9820
L17.8870 7.9820
" />
<path d="M18.5230 10.8400
L18.5230 11.8240
" />
<path d="M18.5230 11.8240
L17.8870 11.8240
" />
<path d="M18.5230 11.8240
L18.5230 11.9830
" />
<path d="M18.5230 11.9830
L17.8870 11.9830
" />
<path d="M22.0150 1.5690
L22.0150 1.9500
" />
<path d="M22.0150 1.9500
L13.1250 1.9500
" />
<path d="M22.0150 3.2200
L1.6950 3.2200
" />
<path d="M22.0150 9.5700
L22.0150 3.2200
" />
<path d="M22.4600 2.7750
L1.2500 2.7750
" />
<path d="M22.4600 2.7750
L22.0150 3.2200
" />
<path d="M22.4600 10.0150
L22.0150 9.5700
" />
<path d="M22.4600 10.0150
L22.4600 2.7750
" />
<path d="M23.2850 1.5690
L22.0150 1.5690
" />
<path d="M23.2850 1.5690
L23.2850 10.8400
" />
<path d="M23.2850 10.8400
L14.3950 10.8400
" />
</g> 
</svg>
