<?xml version="1.0" standalone="no"?>
 <!DOCTYPE svg PUBLIC "-//W3C//DTD SVG 1.1//EN" 
 "http://www.w3.org/Graphics/SVG/1.1/DTD/svg11.dtd"> 
<svg
  xmlns:svg="http://www.w3.org/2000/svg"
  xmlns="http://www.w3.org/2000/svg"
  xmlns:xlink="http://www.w3.org/1999/xlink"
  version="1.1"
  width="5.1308mm" height="5.1308mm" viewBox="0.0000 0.0000 5.1308 5.1308">
<title>SVG Image created as outline.svg date 2025/06/16 09:17:41 </title>
  <desc>Image generated by PCBNEW </desc>
<g style="fill:#000000; fill-opacity:1.0000;stroke:#000000; stroke-opacity:1.0000;
stroke-linecap:round; stroke-linejoin:round;"
 transform="translate(0 0) scale(1 1)">
</g>
<g style="fill:none; 
stroke:#000000; stroke-width:0.0200; stroke-opacity:1; 
stroke-linecap:round; stroke-linejoin:round;">
<path d="M0.5650 1.6500
L0.5750 1.6480
" />
<path d="M0.5650 1.8500
L0.5650 1.6500
" />
<path d="M0.5650 2.1000
L0.5750 2.0980
" />
<path d="M0.5650 2.3000
L0.5650 2.1000
" />
<path d="M0.5650 3.0000
L0.5750 2.9980
" />
<path d="M0.5650 3.2000
L0.5650 3.0000
" />
<path d="M0.5650 3.4500
L0.5750 3.4480
" />
<path d="M0.5650 3.6500
L0.5650 3.4500
" />
<path d="M0.5750 0.5750
L4.5750 0.5750
" />
<path d="M0.5750 1.8520
L0.5650 1.8500
" />
<path d="M0.5750 2.3020
L0.5650 2.3000
" />
<path d="M0.5750 3.2020
L0.5650 3.2000
" />
<path d="M0.5750 3.6520
L0.5650 3.6500
" />
<path d="M0.5750 4.5750
L0.5750 0.5750
" />
<path d="M0.7760 0.8610
L0.7760 0.8890
" />
<path d="M0.7760 0.8890
L0.7830 0.9150
" />
<path d="M0.7830 0.8350
L0.7760 0.8610
" />
<path d="M0.7830 0.9150
L0.7970 0.9380
" />
<path d="M0.7970 0.8120
L0.7830 0.8350
" />
<path d="M0.7970 0.9380
L0.8170 0.9570
" />
<path d="M0.8170 0.7930
L0.7970 0.8120
" />
<path d="M0.8170 0.9570
L0.8420 0.9690
" />
<path d="M0.8420 0.7810
L0.8170 0.7930
" />
<path d="M0.8420 0.9690
L0.8680 0.9750
" />
<path d="M0.8680 0.7750
L0.8420 0.7810
" />
<path d="M0.8680 0.9750
L0.8950 0.9730
" />
<path d="M0.8950 0.7770
L0.8680 0.7750
" />
<path d="M0.8950 0.9730
L0.9210 0.9640
" />
<path d="M0.9210 0.7860
L0.8950 0.7770
" />
<path d="M0.9210 0.9640
L0.9430 0.9480
" />
<path d="M0.9430 0.8020
L0.9210 0.7860
" />
<path d="M0.9430 0.9480
L0.9600 0.9270
" />
<path d="M0.9600 0.8230
L0.9430 0.8020
" />
<path d="M0.9600 0.9270
L0.9710 0.9020
" />
<path d="M0.9710 0.8480
L0.9600 0.8230
" />
<path d="M0.9710 0.9020
L0.9750 0.8750
" />
<path d="M0.9750 0.8750
L0.9710 0.8480
" />
<path d="M0.9980 0.5750
L1.0000 0.5650
" />
<path d="M1.0000 0.5650
L1.2000 0.5650
" />
<path d="M1.0000 4.5850
L0.9980 4.5750
" />
<path d="M1.2000 0.5650
L1.2020 0.5750
" />
<path d="M1.2000 4.5850
L1.0000 4.5850
" />
<path d="M1.2020 4.5750
L1.2000 4.5850
" />
<path d="M1.4480 0.5750
L1.4500 0.5650
" />
<path d="M1.4500 0.5650
L1.6500 0.5650
" />
<path d="M1.4500 4.5850
L1.4480 4.5750
" />
<path d="M1.6500 0.5650
L1.6520 0.5750
" />
<path d="M1.6500 4.5850
L1.4500 4.5850
" />
<path d="M1.6520 4.5750
L1.6500 4.5850
" />
<path d="M1.8980 0.5750
L1.9000 0.5650
" />
<path d="M1.9000 0.5650
L2.1000 0.5650
" />
<path d="M1.9000 4.5850
L1.8980 4.5750
" />
<path d="M2.1000 0.5650
L2.1020 0.5750
" />
<path d="M2.1000 4.5850
L1.9000 4.5850
" />
<path d="M2.1020 4.5750
L2.1000 4.5850
" />
<path d="M2.5980 0.5750
L2.6000 0.5650
" />
<path d="M2.6000 0.5650
L2.8000 0.5650
" />
<path d="M2.6000 4.5850
L2.5980 4.5750
" />
<path d="M2.8000 0.5650
L2.8020 0.5750
" />
<path d="M2.8000 4.5850
L2.6000 4.5850
" />
<path d="M2.8020 4.5750
L2.8000 4.5850
" />
<path d="M3.0480 0.5750
L3.0500 0.5650
" />
<path d="M3.0500 0.5650
L3.2500 0.5650
" />
<path d="M3.0500 4.5850
L3.0480 4.5750
" />
<path d="M3.2500 0.5650
L3.2520 0.5750
" />
<path d="M3.2500 4.5850
L3.0500 4.5850
" />
<path d="M3.2520 4.5750
L3.2500 4.5850
" />
<path d="M3.4980 0.5750
L3.5000 0.5650
" />
<path d="M3.5000 0.5650
L3.7000 0.5650
" />
<path d="M3.5000 4.5850
L3.4980 4.5750
" />
<path d="M3.7000 0.5650
L3.7020 0.5750
" />
<path d="M3.7000 4.5850
L3.5000 4.5850
" />
<path d="M3.7020 4.5750
L3.7000 4.5850
" />
<path d="M3.9480 0.5750
L3.9500 0.5650
" />
<path d="M3.9500 0.5650
L4.1500 0.5650
" />
<path d="M4.1500 0.5650
L4.1520 0.5750
" />
<path d="M4.5750 0.5750
L4.5750 4.5750
" />
<path d="M4.5750 1.1980
L4.5850 1.2000
" />
<path d="M4.5750 1.6480
L4.5850 1.6500
" />
<path d="M4.5750 2.0980
L4.5850 2.1000
" />
<path d="M4.5750 2.5480
L4.5850 2.5500
" />
<path d="M4.5750 2.9980
L4.5850 3.0000
" />
<path d="M4.5750 3.4480
L4.5850 3.4500
" />
<path d="M4.5750 3.8980
L4.5850 3.9000
" />
<path d="M4.5750 4.5750
L0.5750 4.5750
" />
<path d="M4.5850 1.2000
L4.5850 1.4000
" />
<path d="M4.5850 1.4000
L4.5750 1.4020
" />
<path d="M4.5850 1.6500
L4.5850 1.8500
" />
<path d="M4.5850 1.8500
L4.5750 1.8520
" />
<path d="M4.5850 2.1000
L4.5850 2.3000
" />
<path d="M4.5850 2.3000
L4.5750 2.3020
" />
<path d="M4.5850 2.5500
L4.5850 2.7500
" />
<path d="M4.5850 2.7500
L4.5750 2.7520
" />
<path d="M4.5850 3.0000
L4.5850 3.2000
" />
<path d="M4.5850 3.2000
L4.5750 3.2020
" />
<path d="M4.5850 3.4500
L4.5850 3.6500
" />
<path d="M4.5850 3.6500
L4.5750 3.6520
" />
<path d="M4.5850 3.9000
L4.5850 4.1000
" />
<path d="M4.5850 4.1000
L4.5750 4.1020
" />
</g> 
</svg>
