{
  "accessors": [
    {
      "bufferView": 0,
      "byteOffset": 0,
      "componentType": 5126,
      "normalized": false,
      "count": 632,
      "type": "VEC3",
      "max": [
        7.0006103515625,
        0.5505707263946533,
        11.000000953674316
      ],
      "min": [
        -7.0,
        0.0,
        -10.999999046325684
      ]
    },
    {
      "bufferView": 0,
      "byteOffset": 12,
      "componentType": 5126,
      "normalized": false,
      "count": 632,
      "type": "VEC3"
    },
    {
      "bufferView": 0,
      "byteOffset": 24,
      "componentType": 5126,
      "normalized": false,
      "count": 632,
      "type": "VEC2"
    },
    {
      "bufferView": 0,
      "byteOffset": 32,
      "componentType": 5126,
      "normalized": false,
      "count": 632,
      "type": "VEC2"
    },
    {
      "bufferView": 1,
      "byteOffset": 0,
      "componentType": 5123,
      "normalized": false,
      "count": 1884,
      "type": "SCALAR"
    },
    {
      "bufferView": 1,
      "byteOffset": 3768,
      "componentType": 5123,
      "normalized": false,
      "count": 534,
      "type": "SCALAR"
    },
    {
      "bufferView": 1,
      "byteOffset": 4836,
      "componentType": 5123,
      "normalized": false,
      "count": 1896,
      "type": "SCALAR"
    },
    {
      "bufferView": 1,
      "byteOffset": 8628,
      "componentType": 5123,
      "normalized": false,
      "count": 4776,
      "type": "SCALAR"
    },
    {
      "bufferView": 1,
      "byteOffset": 18180,
      "componentType": 5123,
      "normalized": false,
      "count": 78,
      "type": "SCALAR"
    },
    {
      "bufferView": 2,
      "byteOffset": 0,
      "componentType": 5126,
      "normalized": false,
      "count": 252,
      "type": "VEC3",
      "max": [
        6.020146369934082,
        1.9554789066314697,
        10.020000457763672
      ],
      "min": [
        -6.020000457763672,
        0.5500001311302185,
        -10.020000457763672
      ]
    },
    {
      "bufferView": 2,
      "byteOffset": 12,
      "componentType": 5126,
      "normalized": false,
      "count": 252,
      "type": "VEC3"
    },
    {
      "bufferView": 2,
      "byteOffset": 24,
      "componentType": 5126,
      "normalized": false,
      "count": 252,
      "type": "VEC2"
    },
    {
      "bufferView": 2,
      "byteOffset": 32,
      "componentType": 5126,
      "normalized": false,
      "count": 252,
      "type": "VEC2"
    },
    {
      "bufferView": 3,
      "byteOffset": 0,
      "componentType": 5126,
      "normalized": false,
      "count": 776,
      "type": "VEC3",
      "max": [
        7.0006103515625,
        0.5505707263946533,
        11.000000953674316
      ],
      "min": [
        -7.0,
        0.0,
        -10.999999046325684
      ]
    },
    {
      "bufferView": 3,
      "byteOffset": 12,
      "componentType": 5126,
      "normalized": false,
      "count": 776,
      "type": "VEC3"
    },
    {
      "bufferView": 3,
      "byteOffset": 24,
      "componentType": 5126,
      "normalized": false,
      "count": 776,
      "type": "VEC2"
    },
    {
      "bufferView": 3,
      "byteOffset": 32,
      "componentType": 5126,
      "normalized": false,
      "count": 776,
      "type": "VEC2"
    },
    {
      "bufferView": 4,
      "byteOffset": 0,
      "componentType": 5126,
      "normalized": false,
      "count": 2272,
      "type": "VEC3",
      "max": [
        7.00548791885376,
        0.5591315031051636,
        11.008095741271973
      ],
      "min": [
        -7.008279323577881,
        -0.00926661491394043,
        -11.006243705749512
      ]
    },
    {
      "bufferView": 4,
      "byteOffset": 12,
      "componentType": 5126,
      "normalized": false,
      "count": 2272,
      "type": "VEC3"
    },
    {
      "bufferView": 4,
      "byteOffset": 24,
      "componentType": 5126,
      "normalized": false,
      "count": 2272,
      "type": "VEC2"
    },
    {
      "bufferView": 4,
      "byteOffset": 32,
      "componentType": 5126,
      "normalized": false,
      "count": 2272,
      "type": "VEC2"
    },
    {
      "bufferView": 5,
      "byteOffset": 0,
      "componentType": 5126,
      "normalized": false,
      "count": 28,
      "type": "VEC3",
      "max": [
        5.330623149871826,
        1.9548617601394653,
        9.52147102355957
      ],
      "min": [
        -5.330541133880615,
        1.9525370597839355,
        -9.52147102355957
      ]
    },
    {
      "bufferView": 5,
      "byteOffset": 12,
      "componentType": 5126,
      "normalized": false,
      "count": 28,
      "type": "VEC3"
    },
    {
      "bufferView": 5,
      "byteOffset": 24,
      "componentType": 5126,
      "normalized": false,
      "count": 28,
      "type": "VEC2"
    },
    {
      "bufferView": 5,
      "byteOffset": 32,
      "componentType": 5126,
      "normalized": false,
      "count": 28,
      "type": "VEC2"
    }
  ],
  "asset": {
    "generator": "pygltflib@v1.16.5",
    "version": "2.0"
  },
  "bufferViews": [
    {
      "buffer": 0,
      "byteOffset": 0,
      "byteLength": 25280,
      "byteStride": 40,
      "target": 34962
    },
    {
      "buffer": 0,
      "byteOffset": 25280,
      "byteLength": 18336,
      "target": 34963
    },
    {
      "buffer": 0,
      "byteOffset": 43616,
      "byteLength": 10080,
      "byteStride": 40,
      "target": 34962
    },
    {
      "buffer": 0,
      "byteOffset": 53696,
      "byteLength": 31040,
      "byteStride": 40,
      "target": 34962
    },
    {
      "buffer": 0,
      "byteOffset": 84736,
      "byteLength": 90880,
      "byteStride": 40,
      "target": 34962
    },
    {
      "buffer": 0,
      "byteOffset": 175616,
      "byteLength": 1120,
      "byteStride": 40,
      "target": 34962
    }
  ],
  "buffers": [
    {
      "uri": "RF_RAK811.bin",
      "byteLength": 176736
    }
  ],
  "extensionsUsed": [
    "KHR_materials_anisotropy",
    "KHR_materials_clearcoat",
    "KHR_materials_ior",
    "KHR_materials_sheen",
    "KHR_materials_specular",
    "KHR_texture_basisu"
  ],
  "extensionsRequired": [
    "KHR_texture_basisu"
  ],
  "images": [
    {
      "uri": "rakwireless-rak811-868mhz-marking_normal.ktx2",
      "mimeType": "image/ktx2",
      "name": "rakwireless-rak811-868mhz-marking_normal"
    },
    {
      "uri": "rakwireless-rak811-868mhz-marking_color.ktx2",
      "mimeType": "image/ktx2",
      "name": "rakwireless-rak811-868mhz-marking_color"
    },
    {
      "uri": "rakwireless-rak811-868mhz-marking_metallic_roughness.ktx2",
      "mimeType": "image/ktx2",
      "name": "rakwireless-rak811-868mhz-marking_metallic_roughness"
    }
  ],
  "materials": [
    {
      "pbrMetallicRoughness": {
        "baseColorFactor": [
          0.002124161459505558,
          0.048171669244766235,
          0.006995455827564001,
          1.0
        ],
        "metallicFactor": 0.7369999885559082,
        "roughnessFactor": 0.7369999885559082
      },
      "emissiveFactor": [
        0.0,
        0.0,
        0.0
      ],
      "alphaMode": "OPAQUE",
      "doubleSided": true,
      "name": "gltf_soldermask_green_Cu"
    },
    {
      "extensions": {
        "KHR_materials_anisotropy": {
          "anisotropyStrength": 0.01590868830680847,
          "anisotropyRotation": 0.7568381637931133
        },
        "KHR_materials_clearcoat": {
          "clearcoatFactor": 0,
          "clearcoatRoughnessFactor": 0
        },
        "KHR_materials_ior": {
          "ior": 1.4500000476837158
        },
        "KHR_materials_specular": {
          "specularColorFactor": [
            1.5681818723678589,
            1.5681818723678589,
            1.5681818723678589
          ]
        }
      },
      "pbrMetallicRoughness": {
        "baseColorFactor": [
          0.8387941122055054,
          0.8387941122055054,
          0.8387941122055054,
          1.0
        ],
        "metallicFactor": 0.6954545974731445,
        "roughnessFactor": 0.2840908467769623
      },
      "emissiveFactor": [
        0.0,
        0.0,
        0.0
      ],
      "alphaMode": "OPAQUE",
      "doubleSided": true,
      "name": "gltf_aluminum_lathed"
    },
    {
      "extensions": {
        "KHR_materials_clearcoat": {
          "clearcoatFactor": 0,
          "clearcoatRoughnessFactor": 0
        },
        "KHR_materials_ior": {
          "ior": 1.4500000476837158
        },
        "KHR_materials_specular": {
          "specularFactor": 0
        }
      },
      "pbrMetallicRoughness": {
        "baseColorFactor": [
          0.18116165697574615,
          0.19806824624538422,
          0.11697196960449219,
          1.0
        ],
        "metallicFactor": 0.10000000149011612,
        "roughnessFactor": 0.5
      },
      "emissiveFactor": [
        0.0,
        0.0,
        0.0
      ],
      "alphaMode": "OPAQUE",
      "doubleSided": true,
      "name": "gltf_pcb_edge"
    },
    {
      "extensions": {
        "KHR_materials_clearcoat": {
          "clearcoatFactor": 0,
          "clearcoatRoughnessFactor": 0.2890909016132355
        },
        "KHR_materials_ior": {
          "ior": 1.4500000476837158
        },
        "KHR_materials_sheen": {
          "sheenColorFactor": [
            1,
            1,
            1
          ],
          "sheenRoughnessFactor": 0.5
        },
        "KHR_materials_specular": {
          "specularFactor": 0.9499998092651367
        }
      },
      "pbrMetallicRoughness": {
        "baseColorFactor": [
          0.7304738759994507,
          0.5647074580192566,
          0.28315332531929016,
          1.0
        ],
        "metallicFactor": 1.0,
        "roughnessFactor": 0.2522728145122528
      },
      "emissiveFactor": [
        0.0,
        0.0,
        0.0
      ],
      "alphaMode": "OPAQUE",
      "doubleSided": true,
      "name": "gltf_metal_goldpins_1"
    },
    {
      "pbrMetallicRoughness": {
        "baseColorFactor": [
          1.0,
          1.0,
          1.0,
          1.0
        ],
        "metallicFactor": 1.0,
        "roughnessFactor": 1.0,
        "baseColorTexture": {
          "index": 0,
          "texCoord": 1
        },
        "metallicRoughnessTexture": {
          "index": 2,
          "texCoord": 1
        }
      },
      "normalTexture": {
        "index": 1,
        "texCoord": 1,
        "scale": 1.0
      },
      "emissiveFactor": [
        0.0,
        0.0,
        0.0
      ],
      "alphaMode": "OPAQUE",
      "doubleSided": true,
      "name": "gltf_rakwireless-rak811-868mhz-marking"
    }
  ],
  "meshes": [
    {
      "primitives": [
        {
          "attributes": {
            "POSITION": 0,
            "NORMAL": 1,
            "TEXCOORD_0": 2,
            "TEXCOORD_1": 3
          },
          "indices": 4,
          "mode": 4,
          "material": 0
        },
        {
          "attributes": {
            "POSITION": 9,
            "NORMAL": 10,
            "TEXCOORD_0": 11,
            "TEXCOORD_1": 12
          },
          "indices": 5,
          "mode": 4,
          "material": 1
        },
        {
          "attributes": {
            "POSITION": 13,
            "NORMAL": 14,
            "TEXCOORD_0": 15,
            "TEXCOORD_1": 16
          },
          "indices": 6,
          "mode": 4,
          "material": 2
        },
        {
          "attributes": {
            "POSITION": 17,
            "NORMAL": 18,
            "TEXCOORD_0": 19,
            "TEXCOORD_1": 20
          },
          "indices": 7,
          "mode": 4,
          "material": 3
        },
        {
          "attributes": {
            "POSITION": 21,
            "NORMAL": 22,
            "TEXCOORD_0": 23,
            "TEXCOORD_1": 24
          },
          "indices": 8,
          "mode": 4,
          "material": 4
        }
      ],
      "name": "RF_RAK811"
    }
  ],
  "nodes": [
    {
      "extras": {
        "PRIO": 0,
        "DISPLAY_ROT": "90",
        "model_diagonal": 26.170484296389308
      },
      "mesh": 0,
      "name": "RF_RAK811"
    }
  ],
  "samplers": [
    {
      "magFilter": 9729,
      "minFilter": 9987,
      "wrapS": 10497,
      "wrapT": 10497
    }
  ],
  "scene": 0,
  "scenes": [
    {
      "name": "Scene",
      "nodes": [
        0
      ]
    }
  ],
  "textures": [
    {
      "extensions": {
        "KHR_texture_basisu": {
          "source": 1
        }
      },
      "sampler": 0
    },
    {
      "extensions": {
        "KHR_texture_basisu": {
          "source": 0
        }
      },
      "sampler": 0
    },
    {
      "extensions": {
        "KHR_texture_basisu": {
          "source": 2
        }
      },
      "sampler": 0
    }
  ]
}