<?xml version="1.0" standalone="no"?>
 <!DOCTYPE svg PUBLIC "-//W3C//DTD SVG 1.1//EN" 
 "http://www.w3.org/Graphics/SVG/1.1/DTD/svg11.dtd"> 
<svg
  xmlns:svg="http://www.w3.org/2000/svg"
  xmlns="http://www.w3.org/2000/svg"
  xmlns:xlink="http://www.w3.org/1999/xlink"
  version="1.1"
  width="13.2842mm" height="6.7818mm" viewBox="0.0000 0.0000 13.2842 6.7818">
<title>SVG Image created as outline.svg date 2025/04/04 10:06:36 </title>
  <desc>Image generated by PCBNEW </desc>
<g style="fill:#000000; fill-opacity:1.0000;stroke:#000000; stroke-opacity:1.0000;
stroke-linecap:round; stroke-linejoin:round;"
 transform="translate(0 0) scale(1 1)">
</g>
<g style="fill:#000000; fill-opacity:1.0000; stroke:none;">
<circle cx="0.6250" cy="2.1460" r="0.0100" /> 
</g>
<g style="fill:none; 
stroke:#000000; stroke-width:0.0200; stroke-opacity:1; 
stroke-linecap:round; stroke-linejoin:round;">
<path d="M0.6250 2.1460
L0.6260 2.1140
" />
<path d="M0.6250 4.6450
L0.6260 4.6070
" />
<path d="M0.6260 2.1140
L0.6280 2.0830
" />
<path d="M0.6260 2.1760
L0.6250 2.1460
" />
<path d="M0.6260 4.6070
L0.6300 4.5670
" />
<path d="M0.6260 4.6840
L0.6250 4.6450
" />
<path d="M0.6280 2.0830
L0.6320 2.0530
" />
<path d="M0.6280 2.2070
L0.6260 2.1760
" />
<path d="M0.6300 4.5670
L0.6360 4.5300
" />
<path d="M0.6300 4.7220
L0.6260 4.6840
" />
<path d="M0.6320 2.0530
L0.6370 2.0240
" />
<path d="M0.6320 2.2370
L0.6280 2.2070
" />
<path d="M0.6360 4.5300
L0.6450 4.4910
" />
<path d="M0.6360 4.7610
L0.6300 4.7220
" />
<path d="M0.6370 2.0240
L0.6440 1.9960
" />
<path d="M0.6370 2.2650
L0.6320 2.2370
" />
<path d="M0.6440 1.9960
L0.6510 1.9660
" />
<path d="M0.6440 2.2940
L0.6370 2.2650
" />
<path d="M0.6450 4.4910
L0.6550 4.4540
" />
<path d="M0.6450 4.8000
L0.6360 4.7610
" />
<path d="M0.6510 1.9660
L0.6600 1.9380
" />
<path d="M0.6510 2.3230
L0.6440 2.2940
" />
<path d="M0.6550 4.4540
L0.6690 4.4170
" />
<path d="M0.6550 4.8370
L0.6450 4.8000
" />
<path d="M0.6600 1.9380
L0.6710 1.9110
" />
<path d="M0.6600 2.3510
L0.6510 2.3230
" />
<path d="M0.6690 4.4170
L0.6850 4.3810
" />
<path d="M0.6690 4.8740
L0.6550 4.8370
" />
<path d="M0.6710 1.9110
L0.6830 1.8860
" />
<path d="M0.6710 2.3790
L0.6600 2.3510
" />
<path d="M0.6830 1.8860
L0.6960 1.8590
" />
<path d="M0.6830 2.4060
L0.6710 2.3790
" />
<path d="M0.6850 4.3810
L0.7040 4.3460
" />
<path d="M0.6850 4.9100
L0.6690 4.8740
" />
<path d="M0.6960 1.8590
L0.7120 1.8350
" />
<path d="M0.6960 2.4310
L0.6830 2.4060
" />
</g>
<g style="fill:#000000; fill-opacity:1.0000; stroke:none;">
<circle cx="0.7040" cy="4.3460" r="0.0100" /> 
</g>
<g style="fill:none; 
stroke:#000000; stroke-width:0.0200; stroke-opacity:1; 
stroke-linecap:round; stroke-linejoin:round;">
<path d="M0.7040 4.3460
L0.7150 4.3270
" />
<path d="M0.7040 4.9460
L0.6850 4.9100
" />
</g>
<g style="fill:#000000; fill-opacity:1.0000; stroke:none;">
<circle cx="0.7040" cy="4.9460" r="0.0100" /> 
</g>
<g style="fill:none; 
stroke:#000000; stroke-width:0.0200; stroke-opacity:1; 
stroke-linecap:round; stroke-linejoin:round;">
<path d="M0.7120 1.8350
L0.7270 1.8090
" />
<path d="M0.7120 2.4560
L0.6960 2.4310
" />
<path d="M0.7150 4.3270
L0.7260 4.3120
" />
<path d="M0.7260 4.3120
L0.7380 4.2940
" />
<path d="M0.7260 4.9790
L0.7040 4.9460
" />
<path d="M0.7270 1.8090
L0.7430 1.7870
" />
<path d="M0.7270 2.4810
L0.7120 2.4560
" />
<path d="M0.7380 4.2940
L0.7480 4.2780
" />
<path d="M0.7430 1.7870
L0.7610 1.7640
" />
<path d="M0.7430 2.5030
L0.7270 2.4810
" />
<path d="M0.7480 4.2780
L0.7610 4.2640
" />
<path d="M0.7480 5.0110
L0.7260 4.9790
" />
<path d="M0.7610 1.7640
L0.7810 1.7410
" />
<path d="M0.7610 2.5270
L0.7430 2.5030
" />
<path d="M0.7610 4.2640
L0.7740 4.2490
" />
<path d="M0.7740 4.2490
L0.7880 4.2330
" />
<path d="M0.7740 5.0420
L0.7480 5.0110
" />
<path d="M0.7810 1.7410
L0.8010 1.7210
" />
<path d="M0.7810 2.5490
L0.7610 2.5270
" />
<path d="M0.7880 4.2330
L0.8010 4.2200
" />
<path d="M0.8010 1.7210
L0.8200 1.7020
" />
<path d="M0.8010 2.5690
L0.7810 2.5490
" />
<path d="M0.8010 4.2200
L0.8140 4.2060
" />
<path d="M0.8010 5.0710
L0.7740 5.0420
" />
<path d="M0.8140 4.2060
L0.8290 4.1930
" />
<path d="M0.8200 1.7020
L0.8430 1.6820
" />
<path d="M0.8200 2.5900
L0.8010 2.5690
" />
<path d="M0.8290 4.1930
L0.8450 4.1800
" />
<path d="M0.8290 5.0960
L0.8010 5.0710
" />
<path d="M0.8430 1.6820
L0.8660 1.6640
" />
<path d="M0.8430 2.6080
L0.8200 2.5900
" />
<path d="M0.8450 4.1800
L0.8600 4.1680
" />
<path d="M0.8600 4.1680
L0.8750 4.1560
" />
<path d="M0.8600 5.1210
L0.8290 5.0960
" />
<path d="M0.8660 1.6640
L0.8880 1.6480
" />
<path d="M0.8660 2.6250
L0.8430 2.6080
" />
<path d="M0.8750 4.1560
L0.8910 4.1450
" />
<path d="M0.8880 1.6480
L0.9140 1.6330
" />
<path d="M0.8880 2.6420
L0.8660 2.6250
" />
<path d="M0.8910 4.1450
L0.9080 4.1360
" />
<path d="M0.8910 5.1440
L0.8600 5.1210
" />
<path d="M0.9070 1.8280
L0.9130 1.8280
" />
<path d="M0.9070 2.4630
L0.9070 1.8280
" />
<path d="M0.9070 2.4630
L0.9130 2.4630
" />
<path d="M0.9070 4.3270
L0.9130 4.3270
" />
<path d="M0.9070 4.9630
L0.9070 4.3270
" />
<path d="M0.9070 4.9630
L0.9130 4.9630
" />
<path d="M0.9080 4.1360
L0.9250 4.1260
" />
</g>
<g style="fill:#000000; fill-opacity:1.0000; stroke:none;">
<circle cx="0.9130" cy="1.8280" r="0.0100" /> 
</g>
<g style="fill:none; 
stroke:#000000; stroke-width:0.0200; stroke-opacity:1; 
stroke-linecap:round; stroke-linejoin:round;">
<path d="M0.9130 1.8280
L0.9310 1.8280
" />
</g>
<g style="fill:#000000; fill-opacity:1.0000; stroke:none;">
<circle cx="0.9130" cy="2.4630" r="0.0100" /> 
</g>
<g style="fill:none; 
stroke:#000000; stroke-width:0.0200; stroke-opacity:1; 
stroke-linecap:round; stroke-linejoin:round;">
<path d="M0.9130 2.4630
L0.9310 2.4630
" />
</g>
<g style="fill:#000000; fill-opacity:1.0000; stroke:none;">
<circle cx="0.9130" cy="4.3270" r="0.0100" /> 
</g>
<g style="fill:none; 
stroke:#000000; stroke-width:0.0200; stroke-opacity:1; 
stroke-linecap:round; stroke-linejoin:round;">
<path d="M0.9130 4.3270
L0.9310 4.3270
" />
</g>
<g style="fill:#000000; fill-opacity:1.0000; stroke:none;">
<circle cx="0.9130" cy="4.9630" r="0.0100" /> 
</g>
<g style="fill:none; 
stroke:#000000; stroke-width:0.0200; stroke-opacity:1; 
stroke-linecap:round; stroke-linejoin:round;">
<path d="M0.9130 4.9630
L0.9310 4.9630
" />
<path d="M0.9140 1.6330
L0.9380 1.6170
" />
<path d="M0.9140 2.6590
L0.8880 2.6420
" />
<path d="M0.9250 4.1260
L0.9410 4.1160
" />
<path d="M0.9250 5.1640
L0.8910 5.1440
" />
</g>
<g style="fill:#000000; fill-opacity:1.0000; stroke:none;">
<circle cx="0.9310" cy="1.8280" r="0.0100" /> 
</g>
<g style="fill:none; 
stroke:#000000; stroke-width:0.0200; stroke-opacity:1; 
stroke-linecap:round; stroke-linejoin:round;">
<path d="M0.9310 1.8280
L0.9590 1.8280
" />
</g>
<g style="fill:#000000; fill-opacity:1.0000; stroke:none;">
<circle cx="0.9310" cy="2.4630" r="0.0100" /> 
</g>
<g style="fill:none; 
stroke:#000000; stroke-width:0.0200; stroke-opacity:1; 
stroke-linecap:round; stroke-linejoin:round;">
<path d="M0.9310 2.4630
L0.9590 2.4630
" />
</g>
<g style="fill:#000000; fill-opacity:1.0000; stroke:none;">
<circle cx="0.9310" cy="4.3270" r="0.0100" /> 
</g>
<g style="fill:none; 
stroke:#000000; stroke-width:0.0200; stroke-opacity:1; 
stroke-linecap:round; stroke-linejoin:round;">
<path d="M0.9310 4.3270
L0.9590 4.3270
" />
</g>
<g style="fill:#000000; fill-opacity:1.0000; stroke:none;">
<circle cx="0.9310" cy="4.9630" r="0.0100" /> 
</g>
<g style="fill:none; 
stroke:#000000; stroke-width:0.0200; stroke-opacity:1; 
stroke-linecap:round; stroke-linejoin:round;">
<path d="M0.9310 4.9630
L0.9590 4.9630
" />
<path d="M0.9380 1.6170
L0.9640 1.6040
" />
<path d="M0.9380 2.6730
L0.9140 2.6590
" />
<path d="M0.9410 4.1160
L0.9580 4.1080
" />
<path d="M0.9580 4.1080
L0.9760 4.0980
" />
<path d="M0.9580 5.1840
L0.9250 5.1640
" />
</g>
<g style="fill:#000000; fill-opacity:1.0000; stroke:none;">
<circle cx="0.9590" cy="1.8280" r="0.0100" /> 
</g>
<g style="fill:none; 
stroke:#000000; stroke-width:0.0200; stroke-opacity:1; 
stroke-linecap:round; stroke-linejoin:round;">
<path d="M0.9590 1.8280
L1.0000 1.8280
" />
</g>
<g style="fill:#000000; fill-opacity:1.0000; stroke:none;">
<circle cx="0.9590" cy="2.4630" r="0.0100" /> 
</g>
<g style="fill:none; 
stroke:#000000; stroke-width:0.0200; stroke-opacity:1; 
stroke-linecap:round; stroke-linejoin:round;">
<path d="M0.9590 2.4630
L1.0000 2.4630
" />
</g>
<g style="fill:#000000; fill-opacity:1.0000; stroke:none;">
<circle cx="0.9590" cy="4.3270" r="0.0100" /> 
</g>
<g style="fill:none; 
stroke:#000000; stroke-width:0.0200; stroke-opacity:1; 
stroke-linecap:round; stroke-linejoin:round;">
<path d="M0.9590 4.3270
L1.0000 4.3270
" />
</g>
<g style="fill:#000000; fill-opacity:1.0000; stroke:none;">
<circle cx="0.9590" cy="4.9630" r="0.0100" /> 
</g>
<g style="fill:none; 
stroke:#000000; stroke-width:0.0200; stroke-opacity:1; 
stroke-linecap:round; stroke-linejoin:round;">
<path d="M0.9590 4.9630
L1.0000 4.9630
" />
<path d="M0.9640 1.6040
L0.9900 1.5920
" />
<path d="M0.9640 2.6860
L0.9380 2.6730
" />
<path d="M0.9760 4.0980
L0.9930 4.0920
" />
<path d="M0.9900 1.5920
L1.0170 1.5810
" />
<path d="M0.9900 2.6980
L0.9640 2.6860
" />
<path d="M0.9930 4.0920
L1.0120 4.0840
" />
<path d="M0.9930 5.2000
L0.9580 5.1840
" />
</g>
<g style="fill:#000000; fill-opacity:1.0000; stroke:none;">
<circle cx="1.0000" cy="1.8280" r="0.0100" /> 
</g>
<g style="fill:none; 
stroke:#000000; stroke-width:0.0200; stroke-opacity:1; 
stroke-linecap:round; stroke-linejoin:round;">
<path d="M1.0000 1.8280
L1.0490 1.8280
" />
</g>
<g style="fill:#000000; fill-opacity:1.0000; stroke:none;">
<circle cx="1.0000" cy="2.4630" r="0.0100" /> 
</g>
<g style="fill:none; 
stroke:#000000; stroke-width:0.0200; stroke-opacity:1; 
stroke-linecap:round; stroke-linejoin:round;">
<path d="M1.0000 2.4630
L1.0490 2.4630
" />
</g>
<g style="fill:#000000; fill-opacity:1.0000; stroke:none;">
<circle cx="1.0000" cy="4.3270" r="0.0100" /> 
</g>
<g style="fill:none; 
stroke:#000000; stroke-width:0.0200; stroke-opacity:1; 
stroke-linecap:round; stroke-linejoin:round;">
<path d="M1.0000 4.3270
L1.0490 4.3270
" />
</g>
<g style="fill:#000000; fill-opacity:1.0000; stroke:none;">
<circle cx="1.0000" cy="4.9630" r="0.0100" /> 
</g>
<g style="fill:none; 
stroke:#000000; stroke-width:0.0200; stroke-opacity:1; 
stroke-linecap:round; stroke-linejoin:round;">
<path d="M1.0000 4.9630
L1.0490 4.9630
" />
<path d="M1.0120 4.0840
L1.0310 4.0780
" />
<path d="M1.0170 1.5810
L1.0460 1.5720
" />
<path d="M1.0170 2.7090
L0.9900 2.6980
" />
<path d="M1.0310 4.0780
L1.0480 4.0720
" />
<path d="M1.0310 5.2130
L0.9930 5.2000
" />
<path d="M1.0460 1.5720
L1.0750 1.5640
" />
<path d="M1.0460 2.7180
L1.0170 2.7090
" />
<path d="M1.0480 4.0720
L1.0680 4.0660
" />
</g>
<g style="fill:#000000; fill-opacity:1.0000; stroke:none;">
<circle cx="1.0490" cy="1.8280" r="0.0100" /> 
</g>
<g style="fill:none; 
stroke:#000000; stroke-width:0.0200; stroke-opacity:1; 
stroke-linecap:round; stroke-linejoin:round;">
<path d="M1.0490 1.8280
L1.1110 1.8280
" />
</g>
<g style="fill:#000000; fill-opacity:1.0000; stroke:none;">
<circle cx="1.0490" cy="2.4630" r="0.0100" /> 
</g>
<g style="fill:none; 
stroke:#000000; stroke-width:0.0200; stroke-opacity:1; 
stroke-linecap:round; stroke-linejoin:round;">
<path d="M1.0490 2.4630
L1.1110 2.4630
" />
</g>
<g style="fill:#000000; fill-opacity:1.0000; stroke:none;">
<circle cx="1.0490" cy="4.3270" r="0.0100" /> 
</g>
<g style="fill:none; 
stroke:#000000; stroke-width:0.0200; stroke-opacity:1; 
stroke-linecap:round; stroke-linejoin:round;">
<path d="M1.0490 4.3270
L1.1110 4.3270
" />
</g>
<g style="fill:#000000; fill-opacity:1.0000; stroke:none;">
<circle cx="1.0490" cy="4.9630" r="0.0100" /> 
</g>
<g style="fill:none; 
stroke:#000000; stroke-width:0.0200; stroke-opacity:1; 
stroke-linecap:round; stroke-linejoin:round;">
<path d="M1.0490 4.9630
L1.1110 4.9630
" />
<path d="M1.0680 4.0660
L1.0860 4.0620
" />
<path d="M1.0680 5.2250
L1.0310 5.2130
" />
<path d="M1.0750 1.5640
L1.1030 1.5580
" />
<path d="M1.0750 2.7260
L1.0460 2.7180
" />
<path d="M1.0860 4.0620
L1.1050 4.0570
" />
<path d="M1.1030 1.5580
L1.1330 1.5530
" />
<path d="M1.1030 2.7320
L1.0750 2.7260
" />
<path d="M1.1050 4.0570
L1.1260 4.0530
" />
<path d="M1.1050 5.2330
L1.0680 5.2250
" />
</g>
<g style="fill:#000000; fill-opacity:1.0000; stroke:none;">
<circle cx="1.1110" cy="1.8280" r="0.0100" /> 
</g>
<g style="fill:none; 
stroke:#000000; stroke-width:0.0200; stroke-opacity:1; 
stroke-linecap:round; stroke-linejoin:round;">
<path d="M1.1110 1.8280
L1.1800 1.8280
" />
</g>
<g style="fill:#000000; fill-opacity:1.0000; stroke:none;">
<circle cx="1.1110" cy="2.4630" r="0.0100" /> 
</g>
<g style="fill:none; 
stroke:#000000; stroke-width:0.0200; stroke-opacity:1; 
stroke-linecap:round; stroke-linejoin:round;">
<path d="M1.1110 2.4630
L1.1800 2.4630
" />
</g>
<g style="fill:#000000; fill-opacity:1.0000; stroke:none;">
<circle cx="1.1110" cy="4.3270" r="0.0100" /> 
</g>
<g style="fill:none; 
stroke:#000000; stroke-width:0.0200; stroke-opacity:1; 
stroke-linecap:round; stroke-linejoin:round;">
<path d="M1.1110 4.3270
L1.1800 4.3270
" />
</g>
<g style="fill:#000000; fill-opacity:1.0000; stroke:none;">
<circle cx="1.1110" cy="4.9630" r="0.0100" /> 
</g>
<g style="fill:none; 
stroke:#000000; stroke-width:0.0200; stroke-opacity:1; 
stroke-linecap:round; stroke-linejoin:round;">
<path d="M1.1110 4.9630
L1.1800 4.9630
" />
<path d="M1.1260 4.0530
L1.1450 4.0510
" />
<path d="M1.1330 1.5530
L1.1620 1.5490
" />
<path d="M1.1330 2.7380
L1.1030 2.7320
" />
<path d="M1.1450 4.0510
L1.1640 4.0490
" />
<path d="M1.1450 5.2400
L1.1050 5.2330
" />
<path d="M1.1620 1.5490
L1.1940 1.5460
" />
<path d="M1.1620 2.7410
L1.1330 2.7380
" />
<path d="M1.1640 4.0490
L1.1850 4.0470
" />
</g>
<g style="fill:#000000; fill-opacity:1.0000; stroke:none;">
<circle cx="1.1800" cy="1.8280" r="0.0100" /> 
</g>
<g style="fill:none; 
stroke:#000000; stroke-width:0.0200; stroke-opacity:1; 
stroke-linecap:round; stroke-linejoin:round;">
<path d="M1.1800 1.8280
L1.8410 1.8280
" />
</g>
<g style="fill:#000000; fill-opacity:1.0000; stroke:none;">
<circle cx="1.1800" cy="2.4630" r="0.0100" /> 
</g>
<g style="fill:none; 
stroke:#000000; stroke-width:0.0200; stroke-opacity:1; 
stroke-linecap:round; stroke-linejoin:round;">
<path d="M1.1800 2.4630
L1.8410 2.4630
" />
</g>
<g style="fill:#000000; fill-opacity:1.0000; stroke:none;">
<circle cx="1.1800" cy="4.3270" r="0.0100" /> 
</g>
<g style="fill:none; 
stroke:#000000; stroke-width:0.0200; stroke-opacity:1; 
stroke-linecap:round; stroke-linejoin:round;">
<path d="M1.1800 4.3270
L1.8410 4.3270
" />
</g>
<g style="fill:#000000; fill-opacity:1.0000; stroke:none;">
<circle cx="1.1800" cy="4.9630" r="0.0100" /> 
</g>
<g style="fill:none; 
stroke:#000000; stroke-width:0.0200; stroke-opacity:1; 
stroke-linecap:round; stroke-linejoin:round;">
<path d="M1.1800 4.9630
L1.8410 4.9630
" />
<path d="M1.1850 4.0470
L1.2040 4.0450
" />
<path d="M1.1850 5.2440
L1.1450 5.2400
" />
<path d="M1.1940 1.5460
L1.2250 1.5460
" />
<path d="M1.1940 2.7440
L1.1620 2.7410
" />
<path d="M1.2040 4.0450
L1.2250 4.0450
" />
<path d="M1.2250 1.5460
L1.2630 1.5470
" />
<path d="M1.2250 2.7450
L1.1940 2.7440
" />
<path d="M1.2250 4.0450
L1.2630 4.0470
" />
<path d="M1.2250 5.2450
L1.1850 5.2440
" />
<path d="M1.2430 2.7440
L1.2250 2.7450
" />
<path d="M1.2430 5.2450
L1.2250 5.2450
" />
<path d="M1.2630 1.5470
L1.3020 1.5510
" />
<path d="M1.2630 2.7430
L1.2430 2.7440
" />
<path d="M1.2630 4.0470
L1.3020 4.0490
" />
<path d="M1.2630 5.2440
L1.2430 5.2450
" />
<path d="M1.2810 2.7420
L1.2630 2.7430
" />
<path d="M1.2810 5.2420
L1.2630 5.2440
" />
<path d="M1.3020 1.5510
L1.3390 1.5570
" />
<path d="M1.3020 2.7400
L1.2810 2.7420
" />
<path d="M1.3020 4.0490
L1.3390 4.0570
" />
<path d="M1.3020 5.2410
L1.2810 5.2420
" />
<path d="M1.3200 2.7370
L1.3020 2.7400
" />
<path d="M1.3200 5.2370
L1.3020 5.2410
" />
<path d="M1.3390 1.5570
L1.3750 1.5640
" />
<path d="M1.3390 2.7340
L1.3200 2.7370
" />
<path d="M1.3390 4.0570
L1.3750 4.0640
" />
<path d="M1.3390 5.2340
L1.3200 5.2370
" />
<path d="M1.3750 1.5640
L1.4110 1.5750
" />
<path d="M1.3750 2.7250
L1.3390 2.7340
" />
<path d="M1.3750 4.0640
L1.4110 4.0760
" />
<path d="M1.3750 5.2250
L1.3390 5.2340
" />
<path d="M1.4110 1.5750
L1.4480 1.5880
" />
<path d="M1.4110 2.7150
L1.3750 2.7250
" />
<path d="M1.4110 4.0760
L1.4480 4.0880
" />
<path d="M1.4110 5.2140
L1.3750 5.2250
" />
<path d="M1.4480 1.5880
L1.4820 1.6030
" />
<path d="M1.4480 2.7030
L1.4110 2.7150
" />
<path d="M1.4480 4.0880
L1.4820 4.1040
" />
<path d="M1.4480 5.2030
L1.4110 5.2140
" />
<path d="M1.4820 1.6030
L1.5150 1.6200
" />
<path d="M1.4820 2.6870
L1.4480 2.7030
" />
<path d="M1.4820 4.1040
L1.5150 4.1200
" />
<path d="M1.4820 5.1870
L1.4480 5.2030
" />
<path d="M1.5150 1.6200
L1.5480 1.6400
" />
<path d="M1.5150 2.6700
L1.4820 2.6870
" />
<path d="M1.5150 4.1200
L1.5480 4.1400
" />
<path d="M1.5150 5.1690
L1.4820 5.1870
" />
<path d="M1.5480 1.6400
L1.5780 1.6610
" />
<path d="M1.5480 2.6500
L1.5150 2.6700
" />
<path d="M1.5480 4.1400
L1.5780 4.1600
" />
<path d="M1.5480 5.1510
L1.5150 5.1690
" />
<path d="M1.5780 1.6610
L1.6090 1.6840
" />
<path d="M1.5780 2.6290
L1.5480 2.6500
" />
<path d="M1.5780 4.1600
L1.6090 4.1840
" />
<path d="M1.5780 5.1290
L1.5480 5.1510
" />
<path d="M1.6090 1.6840
L1.6370 1.7100
" />
<path d="M1.6090 2.6060
L1.5780 2.6290
" />
<path d="M1.6090 4.1840
L1.6370 4.2090
" />
<path d="M1.6090 5.1050
L1.5780 5.1290
" />
<path d="M1.6370 1.7100
L1.6630 1.7360
" />
<path d="M1.6370 2.5800
L1.6090 2.6060
" />
<path d="M1.6370 4.2090
L1.6630 4.2370
" />
<path d="M1.6370 5.0800
L1.6090 5.1050
" />
<path d="M1.6630 1.7360
L1.6890 1.7650
" />
<path d="M1.6630 2.5540
L1.6370 2.5800
" />
<path d="M1.6630 4.2370
L1.6890 4.2650
" />
<path d="M1.6630 5.0540
L1.6370 5.0800
" />
<path d="M1.6770 2.5400
L1.6630 2.5540
" />
<path d="M1.6770 5.0390
L1.6630 5.0540
" />
<path d="M1.6890 1.7650
L1.7110 1.7950
" />
<path d="M1.6890 2.5260
L1.6770 2.5400
" />
<path d="M1.6890 4.2650
L1.7110 4.2960
" />
<path d="M1.6890 5.0260
L1.6770 5.0390
" />
<path d="M1.7010 2.5100
L1.6890 2.5260
" />
<path d="M1.7010 5.0110
L1.6890 5.0260
" />
<path d="M1.7110 1.7950
L1.7340 1.8280
" />
<path d="M1.7110 2.4940
L1.7010 2.5100
" />
<path d="M1.7110 4.2960
L1.7340 4.3270
" />
<path d="M1.7110 4.9950
L1.7010 5.0110
" />
<path d="M1.7220 2.4790
L1.7110 2.4940
" />
<path d="M1.7220 4.9790
L1.7110 4.9950
" />
<path d="M1.7340 2.4630
L1.7220 2.4790
" />
<path d="M1.7340 4.9630
L1.7220 4.9790
" />
<path d="M1.8410 1.8280
L3.1450 1.8280
" />
<path d="M1.8410 2.4630
L3.1450 2.4630
" />
<path d="M1.8410 4.3270
L3.1450 4.3270
" />
<path d="M1.8410 4.9630
L3.1450 4.9630
" />
<path d="M3.1450 0.4250
L3.1450 6.3650
" />
<path d="M3.1450 6.3650
L11.6050 6.3650
" />
<path d="M6.6040 1.0320
L6.6040 1.0460
" />
<path d="M6.6040 2.2450
L6.6040 1.0460
" />
<path d="M6.6040 2.2450
L6.6040 4.5460
" />
<path d="M6.6040 2.2450
L6.8540 2.2450
" />
<path d="M6.6040 4.5460
L6.8540 4.5460
" />
<path d="M6.6040 5.7450
L6.6040 4.5460
" />
<path d="M6.6040 5.7570
L6.6040 5.7450
" />
<path d="M6.6040 5.7570
L6.6040 5.7450
" />
<path d="M6.6060 1.0080
L6.6060 1.0200
" />
<path d="M6.6060 1.0200
L6.6040 1.0320
" />
<path d="M6.6060 5.7690
L6.6040 5.7570
" />
<path d="M6.6060 5.7690
L6.6040 5.7570
" />
<path d="M6.6060 5.7810
L6.6060 5.7690
" />
<path d="M6.6060 5.7810
L6.6060 5.7690
" />
<path d="M6.6090 0.9960
L6.6060 1.0080
" />
<path d="M6.6090 5.7940
L6.6060 5.7810
" />
<path d="M6.6090 5.7940
L6.6060 5.7810
" />
<path d="M6.6110 0.9850
L6.6090 0.9960
" />
<path d="M6.6110 5.8060
L6.6090 5.7940
" />
<path d="M6.6110 5.8060
L6.6090 5.7940
" />
<path d="M6.6140 0.9730
L6.6110 0.9850
" />
<path d="M6.6140 5.8170
L6.6110 5.8060
" />
<path d="M6.6140 5.8170
L6.6110 5.8060
" />
<path d="M6.6190 0.9610
L6.6140 0.9730
" />
<path d="M6.6190 5.8290
L6.6140 5.8170
" />
<path d="M6.6190 5.8290
L6.6140 5.8170
" />
<path d="M6.6240 0.9490
L6.6190 0.9610
" />
<path d="M6.6240 5.8410
L6.6190 5.8290
" />
<path d="M6.6240 5.8410
L6.6190 5.8290
" />
<path d="M6.6280 0.9390
L6.6240 0.9490
" />
<path d="M6.6280 5.8520
L6.6240 5.8410
" />
<path d="M6.6280 5.8520
L6.6240 5.8410
" />
<path d="M6.6330 0.9270
L6.6280 0.9390
" />
<path d="M6.6330 5.8620
L6.6280 5.8520
" />
<path d="M6.6330 5.8620
L6.6280 5.8520
" />
<path d="M6.6400 0.9170
L6.6330 0.9270
" />
<path d="M6.6400 5.8740
L6.6330 5.8620
" />
<path d="M6.6400 5.8740
L6.6330 5.8620
" />
<path d="M6.6460 0.9070
L6.6400 0.9170
" />
<path d="M6.6460 5.8830
L6.6400 5.8740
" />
<path d="M6.6460 5.8830
L6.6400 5.8740
" />
<path d="M6.6540 0.8970
L6.6460 0.9070
" />
<path d="M6.6540 5.8940
L6.6460 5.8830
" />
<path d="M6.6540 5.8940
L6.6460 5.8830
" />
<path d="M6.6600 0.8870
L6.6540 0.8970
" />
<path d="M6.6600 5.9030
L6.6540 5.8940
" />
<path d="M6.6600 5.9030
L6.6540 5.8940
" />
<path d="M6.6680 0.8770
L6.6600 0.8870
" />
<path d="M6.6680 5.9130
L6.6600 5.9030
" />
<path d="M6.6680 5.9130
L6.6600 5.9030
" />
<path d="M6.6780 0.8690
L6.6680 0.8770
" />
</g>
<g style="fill:#000000; fill-opacity:1.0000; stroke:none;">
<circle cx="6.6780" cy="0.8690" r="0.0100" /> 
</g>
<g style="fill:none; 
stroke:#000000; stroke-width:0.0200; stroke-opacity:1; 
stroke-linecap:round; stroke-linejoin:round;">
<path d="M6.6780 5.9220
L6.6680 5.9130
" />
<path d="M6.6780 5.9220
L6.6680 5.9130
" />
</g>
<g style="fill:#000000; fill-opacity:1.0000; stroke:none;">
<circle cx="6.6780" cy="5.9220" r="0.0100" /> 
<circle cx="6.6780" cy="5.9220" r="0.0100" /> 
</g>
<g style="fill:none; 
stroke:#000000; stroke-width:0.0200; stroke-opacity:1; 
stroke-linecap:round; stroke-linejoin:round;">
<path d="M6.6860 0.8600
L6.6780 0.8690
" />
<path d="M6.6860 5.9300
L6.6780 5.9220
" />
<path d="M6.6860 5.9300
L6.6780 5.9220
" />
<path d="M6.6960 0.8520
L6.6860 0.8600
" />
<path d="M6.6960 5.9380
L6.6860 5.9300
" />
<path d="M6.6960 5.9380
L6.6860 5.9300
" />
<path d="M6.7050 0.8440
L6.6960 0.8520
" />
<path d="M6.7050 5.9460
L6.6960 5.9380
" />
<path d="M6.7050 5.9460
L6.6960 5.9380
" />
<path d="M6.7150 0.8380
L6.7050 0.8440
" />
<path d="M6.7150 5.9540
L6.7050 5.9460
" />
<path d="M6.7150 5.9540
L6.7050 5.9460
" />
<path d="M6.7260 0.8300
L6.7150 0.8380
" />
<path d="M6.7260 5.9590
L6.7150 5.9540
" />
<path d="M6.7260 5.9590
L6.7150 5.9540
" />
<path d="M6.7360 0.8240
L6.7260 0.8300
" />
<path d="M6.7360 5.9660
L6.7260 5.9590
" />
<path d="M6.7360 5.9660
L6.7260 5.9590
" />
<path d="M6.7470 0.8200
L6.7360 0.8240
" />
<path d="M6.7470 5.9710
L6.7360 5.9660
" />
<path d="M6.7470 5.9710
L6.7360 5.9660
" />
<path d="M6.7580 0.8140
L6.7470 0.8200
" />
<path d="M6.7580 5.9770
L6.7470 5.9710
" />
<path d="M6.7580 5.9770
L6.7470 5.9710
" />
<path d="M6.7690 0.8100
L6.7580 0.8140
" />
<path d="M6.7690 5.9800
L6.7580 5.9770
" />
<path d="M6.7690 5.9800
L6.7580 5.9770
" />
<path d="M6.7820 0.8060
L6.7690 0.8100
" />
<path d="M6.7820 5.9840
L6.7690 5.9800
" />
<path d="M6.7820 5.9840
L6.7690 5.9800
" />
<path d="M6.7930 0.8020
L6.7820 0.8060
" />
<path d="M6.7930 5.9870
L6.7820 5.9840
" />
<path d="M6.7930 5.9870
L6.7820 5.9840
" />
<path d="M6.8060 0.8000
L6.7930 0.8020
" />
<path d="M6.8060 5.9910
L6.7930 5.9870
" />
<path d="M6.8060 5.9910
L6.7930 5.9870
" />
<path d="M6.8170 0.7980
L6.8060 0.8000
" />
<path d="M6.8170 5.9920
L6.8060 5.9910
" />
<path d="M6.8170 5.9920
L6.8060 5.9910
" />
<path d="M6.8300 0.7960
L6.8170 0.7980
" />
<path d="M6.8300 5.9940
L6.8170 5.9920
" />
<path d="M6.8300 5.9940
L6.8170 5.9920
" />
<path d="M6.8410 0.7960
L6.8300 0.7960
" />
<path d="M6.8410 5.9950
L6.8300 5.9940
" />
<path d="M6.8410 5.9950
L6.8300 5.9940
" />
<path d="M6.8540 0.7960
L6.8410 0.7960
" />
<path d="M6.8540 0.7960
L6.8540 1.0460
" />
<path d="M6.8540 0.7960
L13.0640 0.7960
" />
<path d="M6.8540 2.2450
L11.4650 2.2450
" />
<path d="M6.8540 4.5460
L11.4650 4.5460
" />
<path d="M6.8540 5.9950
L6.8410 5.9950
" />
<path d="M6.8540 5.9950
L6.8410 5.9950
" />
<path d="M6.8540 5.9950
L6.8540 5.7450
" />
<path d="M7.0640 2.2450
L7.0640 4.5460
" />
<path d="M11.4650 4.5460
L11.4800 4.5440
" />
<path d="M11.4800 2.2450
L11.4650 2.2450
" />
<path d="M11.4800 4.5440
L11.4940 4.5430
" />
<path d="M11.4940 2.2460
L11.4800 2.2450
" />
<path d="M11.4940 4.5430
L11.5090 4.5420
" />
<path d="M11.5090 2.2480
L11.4940 2.2460
" />
<path d="M11.5090 4.5420
L11.5220 4.5390
" />
<path d="M11.5220 2.2500
L11.5090 2.2480
" />
<path d="M11.5220 4.5390
L11.5380 4.5360
" />
<path d="M11.5380 2.2550
L11.5220 2.2500
" />
<path d="M11.5380 4.5360
L11.5510 4.5320
" />
<path d="M11.5510 2.2590
L11.5380 2.2550
" />
<path d="M11.5510 4.5320
L11.5650 4.5270
" />
<path d="M11.5650 2.2620
L11.5510 2.2590
" />
<path d="M11.5650 4.5270
L11.5790 4.5230
" />
<path d="M11.5790 2.2670
L11.5650 2.2620
" />
<path d="M11.5790 4.5230
L11.5930 4.5160
" />
<path d="M11.5930 2.2740
L11.5790 2.2670
" />
<path d="M11.5930 4.5160
L11.6060 4.5100
" />
<path d="M11.6050 0.4250
L3.1450 0.4250
" />
<path d="M11.6050 0.7960
L11.6050 0.4250
" />
<path d="M11.6050 4.5110
L11.6050 2.2800
" />
<path d="M11.6050 6.3650
L11.6050 5.9950
" />
<path d="M11.6060 2.2810
L11.5930 2.2740
" />
<path d="M11.6060 4.5100
L11.6190 4.5030
" />
<path d="M11.6190 2.2870
L11.6060 2.2810
" />
<path d="M11.6190 4.5030
L11.6310 4.4950
" />
<path d="M11.6310 2.2950
L11.6190 2.2870
" />
<path d="M11.6310 4.4950
L11.6420 4.4870
" />
<path d="M11.6420 2.3040
L11.6310 2.2950
" />
<path d="M11.6420 4.4870
L11.6540 4.4780
" />
<path d="M11.6540 2.3140
L11.6420 2.3040
" />
<path d="M11.6540 4.4780
L11.6660 4.4670
" />
<path d="M11.6660 2.3220
L11.6540 2.3140
" />
<path d="M11.6660 4.4670
L11.6760 4.4580
" />
<path d="M11.6760 2.3330
L11.6660 2.3220
" />
</g>
<g style="fill:#000000; fill-opacity:1.0000; stroke:none;">
<circle cx="11.6760" cy="2.3330" r="0.0100" /> 
<circle cx="11.6760" cy="4.4580" r="0.0100" /> 
</g>
<g style="fill:none; 
stroke:#000000; stroke-width:0.0200; stroke-opacity:1; 
stroke-linecap:round; stroke-linejoin:round;">
<path d="M11.6760 4.4580
L11.6860 4.4470
" />
<path d="M11.6860 2.3440
L11.6760 2.3330
" />
<path d="M11.6860 4.4470
L11.6960 4.4350
" />
<path d="M11.6960 2.3540
L11.6860 2.3440
" />
<path d="M11.6960 4.4350
L11.7050 4.4230
" />
<path d="M11.7050 2.3670
L11.6960 2.3540
" />
<path d="M11.7050 4.4230
L11.7140 4.4110
" />
<path d="M11.7140 2.3790
L11.7050 2.3670
" />
<path d="M11.7140 4.4110
L11.7210 4.3990
" />
<path d="M11.7210 2.3910
L11.7140 2.3790
" />
<path d="M11.7210 4.3990
L11.7280 4.3860
" />
<path d="M11.7280 2.4040
L11.7210 2.3910
" />
<path d="M11.7280 4.3860
L11.7350 4.3740
" />
<path d="M11.7350 2.4170
L11.7280 2.4040
" />
<path d="M11.7350 4.3740
L11.7410 4.3590
" />
<path d="M11.7410 2.4300
L11.7350 2.4170
" />
<path d="M11.7410 4.3590
L11.7470 4.3460
" />
<path d="M11.7470 2.4430
L11.7410 2.4300
" />
<path d="M11.7470 4.3460
L11.7510 4.3330
" />
<path d="M11.7510 2.4570
L11.7470 2.4430
" />
<path d="M11.7510 4.3330
L11.7560 4.3180
" />
<path d="M11.7560 2.4720
L11.7510 2.4570
" />
<path d="M11.7560 4.3180
L11.7590 4.3040
" />
<path d="M11.7590 2.4870
L11.7560 2.4720
" />
<path d="M11.7590 4.3040
L11.7600 4.2890
" />
<path d="M11.7600 2.5000
L11.7590 2.4870
" />
<path d="M11.7600 4.2890
L11.7630 4.2740
" />
<path d="M11.7630 2.5150
L11.7600 2.5000
" />
<path d="M11.7630 2.5310
L11.7630 2.5150
" />
<path d="M11.7630 4.2600
L11.7650 4.2450
" />
<path d="M11.7630 4.2740
L11.7630 4.2600
" />
<path d="M11.7650 2.5460
L11.7630 2.5310
" />
<path d="M11.7650 4.2450
L11.7650 2.5460
" />
<path d="M13.0640 0.7960
L13.0640 1.0460
" />
<path d="M13.0640 5.7450
L13.0640 1.0460
" />
<path d="M13.0640 5.7450
L13.0640 5.9950
" />
<path d="M13.0640 5.9950
L6.8540 5.9950
" />
</g> 
</svg>
