<?xml version="1.0" standalone="no"?>
 <!DOCTYPE svg PUBLIC "-//W3C//DTD SVG 1.1//EN" 
 "http://www.w3.org/Graphics/SVG/1.1/DTD/svg11.dtd"> 
<svg
  xmlns:svg="http://www.w3.org/2000/svg"
  xmlns="http://www.w3.org/2000/svg"
  xmlns:xlink="http://www.w3.org/1999/xlink"
  version="1.1"
  width="5.7404mm" height="7.1628mm" viewBox="0.0000 0.0000 5.7404 7.1628">
<title>SVG Image created as outline.svg date 2025/06/16 09:18:17 </title>
  <desc>Image generated by PCBNEW </desc>
<g style="fill:#000000; fill-opacity:1.0000;stroke:#000000; stroke-opacity:1.0000;
stroke-linecap:round; stroke-linejoin:round;"
 transform="translate(0 0) scale(1 1)">
</g>
<g style="fill:none; 
stroke:#000000; stroke-width:0.0200; stroke-opacity:1; 
stroke-linecap:round; stroke-linejoin:round;">
<path d="M0.1250 7.0450
L0.1250 2.7100
" />
<path d="M1.9250 2.5300
L1.9250 1.2800
" />
<path d="M1.9250 2.7100
L1.9250 2.5300
" />
<path d="M2.3250 1.2800
L1.9250 1.2800
" />
<path d="M2.3250 2.5300
L2.3250 1.2800
" />
<path d="M2.3250 2.7100
L2.3250 2.5300
" />
<path d="M3.4250 2.5300
L3.4250 1.2800
" />
<path d="M3.4250 2.7100
L3.4250 2.5300
" />
<path d="M3.8250 1.2800
L3.4250 1.2800
" />
<path d="M3.8250 2.5300
L3.8250 1.2800
" />
<path d="M3.8250 2.7100
L3.8250 2.5300
" />
<path d="M5.6250 2.7100
L0.1250 2.7100
" />
<path d="M5.6250 7.0450
L0.1250 7.0450
" />
<path d="M5.6250 7.0450
L5.6250 2.7100
" />
</g> 
</svg>
