<?xml version="1.0" standalone="no"?>
 <!DOCTYPE svg PUBLIC "-//W3C//DTD SVG 1.1//EN" 
 "http://www.w3.org/Graphics/SVG/1.1/DTD/svg11.dtd"> 
<svg
  xmlns:svg="http://www.w3.org/2000/svg"
  xmlns="http://www.w3.org/2000/svg"
  xmlns:xlink="http://www.w3.org/1999/xlink"
  version="1.1"
  width="69.9008mm" height="30.3276mm" viewBox="0.0000 0.0000 69.9008 30.3276">
<title>SVG Image created as outline.svg date 2025/04/04 10:06:07 </title>
  <desc>Image generated by PCBNEW </desc>
<g style="fill:#000000; fill-opacity:1.0000;stroke:#000000; stroke-opacity:1.0000;
stroke-linecap:round; stroke-linejoin:round;"
 transform="translate(0 0) scale(1 1)">
</g>
<g style="fill:none; 
stroke:#000000; stroke-width:0.1500; stroke-opacity:1; 
stroke-linecap:round; stroke-linejoin:round;">
<path d="M0.2500 8.0750
L0.2500 0.8250
" />
<path d="M0.2500 12.0750
L1.3500 12.0750
" />
<path d="M0.2500 29.3250
L0.2500 12.0750
" />
<path d="M0.2500 29.3250
L0.9990 30.0750
" />
<path d="M0.9990 0.0750
L35.5490 0.0750
" />
<path d="M0.9990 30.0750
L33.1250 30.0750
" />
<path d="M1.3500 8.0750
L0.2500 8.0750
" />
<path d="M1.9990 11.4250
L1.9990 8.7240
" />
<path d="M33.2990 29.9000
L33.1250 30.0750
" />
<path d="M33.2990 29.9000
L33.2990 26.5750
" />
<path d="M34.2990 29.9000
L34.2990 26.5750
" />
<path d="M34.3000 29.9000
L34.4750 30.0740
" />
<path d="M34.4750 30.0750
L69.0990 30.0750
" />
<path d="M35.5490 0.0750
L69.1010 0.0750
" />
<path d="M68.0990 11.4250
L68.0990 8.7240
" />
<path d="M68.7490 12.0750
L69.8490 12.0750
" />
<path d="M69.8490 8.0750
L68.7490 8.0750
" />
<path d="M69.8490 8.0750
L69.8500 0.8250
" />
<path d="M69.8490 29.3250
L69.0990 30.0750
" />
<path d="M69.8490 29.3250
L69.8490 12.0750
" />
<path d="M0.9990 0.0750 A0.7477 0.7477 0.0 0 0 0.2500 0.8250" />
<path d="M1.9990 8.7240 A0.6487 0.6487 0.0 0 0 1.3500 8.0750" />
<path d="M1.3500 12.0750 A0.6504 0.6504 0.0 0 0 1.9990 11.4250" />
<path d="M34.2990 26.5750 A0.5000 0.5000 0.0 0 0 33.2990 26.5750" />
<path d="M68.7490 8.0750 A0.6504 0.6504 0.0 0 0 68.0990 8.7240" />
<path d="M68.0990 11.4250 A0.6521 0.6521 0.0 0 0 68.7490 12.0750" />
<path d="M69.8500 0.8250 A0.7511 0.7511 0.0 0 0 69.1010 0.0750" />
</g> 
</svg>
