<?xml version="1.0" standalone="no"?>
 <!DOCTYPE svg PUBLIC "-//W3C//DTD SVG 1.1//EN" 
 "http://www.w3.org/Graphics/SVG/1.1/DTD/svg11.dtd"> 
<svg
  xmlns:svg="http://www.w3.org/2000/svg"
  xmlns="http://www.w3.org/2000/svg"
  xmlns:xlink="http://www.w3.org/1999/xlink"
  version="1.1"
  width="8.7630mm" height="6.5278mm" viewBox="0.0000 0.0000 8.7630 6.5278">
<title>SVG Image created as outline.svg date 2025/04/04 10:06:19 </title>
  <desc>Image generated by PCBNEW </desc>
<g style="fill:#000000; fill-opacity:1.0000;stroke:#000000; stroke-opacity:1.0000;
stroke-linecap:round; stroke-linejoin:round;"
 transform="translate(0 0) scale(1 1)">
</g>
<g style="fill:none; 
stroke:#000000; stroke-width:0.0200; stroke-opacity:1; 
stroke-linecap:round; stroke-linejoin:round;">
<path d="M0.2800 3.3700
L0.2820 3.3250
" />
<path d="M0.2800 4.0400
L0.2800 3.3700
" />
<path d="M0.2800 4.0620
L0.2800 4.0400
" />
<path d="M0.2820 3.3250
L0.2860 3.2820
" />
<path d="M0.2820 4.0850
L0.2800 4.0620
" />
<path d="M0.2840 4.1070
L0.2820 4.0850
" />
<path d="M0.2850 5.9700
L0.3790 6.2550
" />
<path d="M0.2850 5.9700
L0.4750 5.9080
" />
<path d="M0.2860 3.2820
L0.2940 3.2380
" />
<path d="M0.2860 4.1280
L0.2840 4.1070
" />
<path d="M0.2900 4.1500
L0.2860 4.1280
" />
<path d="M0.2940 3.2380
L0.3050 3.1960
" />
<path d="M0.2940 4.1720
L0.2900 4.1500
" />
<path d="M0.2990 4.1930
L0.2940 4.1720
" />
<path d="M0.3050 3.1960
L0.3190 3.1550
" />
<path d="M0.3050 4.2140
L0.2990 4.1930
" />
<path d="M0.3120 4.2340
L0.3050 4.2140
" />
<path d="M0.3190 3.1550
L0.3350 3.1150
" />
<path d="M0.3190 4.2550
L0.3120 4.2340
" />
<path d="M0.3270 4.2750
L0.3190 4.2550
" />
<path d="M0.3350 3.1150
L0.3540 3.0770
" />
<path d="M0.3350 4.2950
L0.3270 4.2750
" />
<path d="M0.3440 4.3140
L0.3350 4.2950
" />
<path d="M0.3540 3.0770
L0.3760 3.0400
" />
<path d="M0.3540 4.3330
L0.3440 4.3140
" />
<path d="M0.3650 4.3520
L0.3540 4.3330
" />
<path d="M0.3760 3.0400
L0.4010 3.0040
" />
<path d="M0.3760 4.3700
L0.3650 4.3520
" />
<path d="M0.3880 4.3880
L0.3760 4.3700
" />
<path d="M0.4010 3.0040
L0.4280 2.9700
" />
<path d="M0.4010 4.4060
L0.3880 4.3880
" />
<path d="M0.4140 4.4230
L0.4010 4.4060
" />
<path d="M0.4280 2.9700
L0.4570 2.9390
" />
<path d="M0.4280 4.4400
L0.4140 4.4230
" />
<path d="M0.4420 4.4560
L0.4280 4.4400
" />
<path d="M0.4570 2.9390
L0.4880 2.9090
" />
<path d="M0.4570 4.4710
L0.4420 4.4560
" />
<path d="M0.4720 4.4870
L0.4570 4.4710
" />
<path d="M0.4750 5.9080
L0.6350 5.8550
" />
<path d="M0.4800 3.3700
L0.4800 4.0400
" />
<path d="M0.4800 3.3700
L0.4810 3.3470
" />
<path d="M0.4810 3.3470
L0.4830 3.3230
" />
<path d="M0.4810 4.0630
L0.4800 4.0400
" />
<path d="M0.4830 3.3230
L0.4860 3.3000
" />
<path d="M0.4830 4.0870
L0.4810 4.0630
" />
<path d="M0.4860 3.3000
L0.4900 3.2770
" />
<path d="M0.4860 4.1100
L0.4830 4.0870
" />
<path d="M0.4880 2.9090
L0.5220 2.8810
" />
<path d="M0.4880 4.5010
L0.4720 4.4870
" />
<path d="M0.4900 3.2770
L0.4960 3.2550
" />
<path d="M0.4900 4.1330
L0.4860 4.1100
" />
<path d="M0.4960 3.2550
L0.5030 3.2330
" />
<path d="M0.4960 4.1550
L0.4900 4.1330
" />
<path d="M0.5030 3.2330
L0.5110 3.2120
" />
<path d="M0.5030 4.1770
L0.4960 4.1550
" />
<path d="M0.5050 4.5150
L0.4880 4.5010
" />
<path d="M0.5110 3.2120
L0.5210 3.1910
" />
<path d="M0.5110 4.1980
L0.5030 4.1770
" />
<path d="M0.5210 3.1910
L0.5310 3.1700
" />
<path d="M0.5210 4.2190
L0.5110 4.1980
" />
<path d="M0.5220 2.8810
L0.5580 2.8560
" />
<path d="M0.5220 4.5290
L0.5050 4.5150
" />
<path d="M0.5310 3.1700
L0.5430 3.1500
" />
<path d="M0.5310 4.2400
L0.5210 4.2190
" />
<path d="M0.5390 4.5420
L0.5220 4.5290
" />
<path d="M0.5430 3.1500
L0.5560 3.1310
" />
<path d="M0.5430 4.2600
L0.5310 4.2400
" />
<path d="M0.5560 3.1310
L0.5690 3.1130
" />
<path d="M0.5560 4.2790
L0.5430 4.2600
" />
<path d="M0.5580 2.8560
L0.5950 2.8330
" />
<path d="M0.5580 4.5540
L0.5390 4.5420
" />
<path d="M0.5690 3.1130
L0.5840 3.0950
" />
<path d="M0.5690 4.2970
L0.5560 4.2790
" />
<path d="M0.5690 6.1930
L0.3790 6.2550
" />
<path d="M0.5760 4.5660
L0.5580 4.5540
" />
<path d="M0.5840 3.0950
L0.6000 3.0780
" />
<path d="M0.5840 4.3150
L0.5690 4.2970
" />
<path d="M0.5950 2.8330
L0.6350 2.8130
" />
<path d="M0.5950 4.5770
L0.5760 4.5660
" />
<path d="M0.6000 3.0780
L0.6170 3.0620
" />
<path d="M0.6000 4.3320
L0.5840 4.3150
" />
<path d="M0.6150 4.5880
L0.5950 4.5770
" />
<path d="M0.6170 3.0620
L0.6350 3.0470
" />
<path d="M0.6170 4.3480
L0.6000 4.3320
" />
<path d="M0.6350 1.1550
L0.6350 5.8550
" />
<path d="M0.6350 4.3630
L0.6170 4.3480
" />
<path d="M0.6350 4.5970
L0.6150 4.5880
" />
<path d="M0.7320 6.1390
L0.5690 6.1930
" />
<path d="M0.7540 6.1310
L0.7320 6.1390
" />
<path d="M0.7760 6.1210
L0.7540 6.1310
" />
<path d="M0.7960 1.1550
L0.6350 1.1550
" />
</g>
<g style="fill:#000000; fill-opacity:1.0000; stroke:none;">
<circle cx="0.7960" cy="1.1550" r="0.0100" /> 
</g>
<g style="fill:none; 
stroke:#000000; stroke-width:0.0200; stroke-opacity:1; 
stroke-linecap:round; stroke-linejoin:round;">
<path d="M0.7960 5.8550
L0.6350 5.8550
" />
</g>
<g style="fill:#000000; fill-opacity:1.0000; stroke:none;">
<circle cx="0.7960" cy="5.8550" r="0.0100" /> 
</g>
<g style="fill:none; 
stroke:#000000; stroke-width:0.0200; stroke-opacity:1; 
stroke-linecap:round; stroke-linejoin:round;">
<path d="M0.7960 6.1090
L0.7760 6.1210
" />
<path d="M0.8150 6.0960
L0.7960 6.1090
" />
<path d="M0.8330 6.0820
L0.8150 6.0960
" />
<path d="M0.8490 6.0660
L0.8330 6.0820
" />
<path d="M0.8650 6.0500
L0.8490 6.0660
" />
<path d="M0.8790 6.0320
L0.8650 6.0500
" />
<path d="M0.8920 6.0130
L0.8790 6.0320
" />
<path d="M0.9030 5.9930
L0.8920 6.0130
" />
<path d="M0.9120 5.9720
L0.9030 5.9930
" />
<path d="M0.9200 5.9510
L0.9120 5.9720
" />
<path d="M0.9270 5.9280
L0.9200 5.9510
" />
<path d="M0.9310 5.9060
L0.9270 5.9280
" />
<path d="M0.9340 5.8820
L0.9310 5.9060
" />
<path d="M0.9350 5.8550
L0.9350 5.8590
" />
<path d="M0.9350 5.8590
L0.9340 5.8820
" />
<path d="M1.1850 1.1550
L0.7960 1.1550
" />
<path d="M1.1850 1.1550
L2.2260 1.1550
" />
<path d="M1.1850 5.8550
L0.7960 5.8550
" />
<path d="M1.1850 5.8550
L1.1850 5.8940
" />
<path d="M1.1850 5.8550
L7.5850 5.8550
" />
<path d="M1.1850 5.8940
L1.1850 5.9000
" />
<path d="M1.1850 5.9000
L1.1860 5.9060
" />
<path d="M1.1850 6.1440
L1.1850 5.8940
" />
<path d="M1.1850 6.1490
L1.1850 6.1440
" />
<path d="M1.1860 5.9060
L1.1870 5.9110
" />
<path d="M1.1860 6.1550
L1.1850 6.1490
" />
<path d="M1.1870 5.9110
L1.1890 5.9170
" />
<path d="M1.1870 6.1610
L1.1860 6.1550
" />
<path d="M1.1890 5.9170
L1.1910 5.9220
" />
<path d="M1.1890 6.1660
L1.1870 6.1610
" />
<path d="M1.1910 5.9220
L1.1940 5.9280
" />
<path d="M1.1910 6.1710
L1.1890 6.1660
" />
<path d="M1.1940 5.9280
L1.1970 5.9330
" />
<path d="M1.1940 6.1770
L1.1910 6.1710
" />
<path d="M1.1970 5.9330
L1.2010 5.9380
" />
<path d="M1.1970 6.1820
L1.1940 6.1770
" />
<path d="M1.2010 5.9380
L1.2050 5.9430
" />
<path d="M1.2010 6.1870
L1.1970 6.1820
" />
<path d="M1.2050 5.9430
L1.2090 5.9480
" />
<path d="M1.2090 5.9480
L1.2140 5.9520
" />
<path d="M1.2090 6.1970
L1.2010 6.1870
" />
<path d="M1.2140 5.9520
L1.2190 5.9570
" />
<path d="M1.2190 5.9570
L1.2250 5.9610
" />
<path d="M1.2190 6.2060
L1.2090 6.1970
" />
<path d="M1.2250 5.9610
L1.2310 5.9650
" />
<path d="M1.2310 5.9650
L1.2370 5.9690
" />
<path d="M1.2310 6.2140
L1.2190 6.2060
" />
<path d="M1.2370 5.9690
L1.2440 5.9730
" />
<path d="M1.2440 5.9730
L1.2510 5.9770
" />
<path d="M1.2440 6.2220
L1.2310 6.2140
" />
<path d="M1.2510 5.9770
L1.2580 5.9800
" />
<path d="M1.2580 5.9800
L1.2650 5.9840
" />
<path d="M1.2580 6.2300
L1.2440 6.2220
" />
<path d="M1.2600 0.9050
L1.2610 0.8790
" />
<path d="M1.2600 1.1050
L1.2600 0.9050
" />
<path d="M1.2600 1.1110
L1.2600 1.1050
" />
<path d="M1.2600 1.1180
L1.2600 1.1110
" />
<path d="M1.2600 1.1240
L1.2600 1.1180
" />
<path d="M1.2610 0.8790
L1.2630 0.8530
" />
<path d="M1.2610 1.1300
L1.2600 1.1240
" />
<path d="M1.2610 1.1360
L1.2610 1.1300
" />
<path d="M1.2610 1.1430
L1.2610 1.1360
" />
<path d="M1.2620 1.1490
L1.2610 1.1430
" />
<path d="M1.2620 1.1550
L1.2620 1.1490
" />
<path d="M1.2630 0.8530
L1.2660 0.8270
" />
<path d="M1.2650 5.9840
L1.2730 5.9870
" />
<path d="M1.2660 0.8270
L1.2700 0.8020
" />
<path d="M1.2700 0.8020
L1.2760 0.7770
" />
<path d="M1.2730 5.9870
L1.2810 5.9900
" />
<path d="M1.2730 6.2360
L1.2580 6.2300
" />
<path d="M1.2760 0.7770
L1.2830 0.7520
" />
<path d="M1.2810 5.9900
L1.2900 5.9920
" />
<path d="M1.2830 0.7520
L1.2910 0.7280
" />
<path d="M1.2900 5.9920
L1.2980 5.9950
" />
<path d="M1.2900 6.2420
L1.2730 6.2360
" />
<path d="M1.2910 0.7280
L1.3000 0.7040
" />
<path d="M1.2980 5.9950
L1.3070 5.9970
" />
<path d="M1.3000 0.7040
L1.3100 0.6810
" />
<path d="M1.3070 5.9970
L1.3160 5.9990
" />
<path d="M1.3070 6.2460
L1.2900 6.2420
" />
<path d="M1.3100 0.6810
L1.3220 0.6580
" />
<path d="M1.3160 5.9990
L1.3260 6.0010
" />
<path d="M1.3220 0.6580
L1.3340 0.6350
" />
<path d="M1.3260 6.0010
L1.3350 6.0020
" />
<path d="M1.3260 6.2500
L1.3070 6.2460
" />
<path d="M1.3340 0.6350
L1.3480 0.6140
" />
<path d="M1.3350 6.0020
L1.3450 6.0040
" />
<path d="M1.3450 6.0040
L1.3550 6.0050
" />
<path d="M1.3450 6.2530
L1.3260 6.2500
" />
<path d="M1.3480 0.6140
L1.3630 0.5930
" />
<path d="M1.3550 6.0050
L1.3650 6.0050
" />
<path d="M1.3630 0.5930
L1.3790 0.5720
" />
<path d="M1.3650 6.0050
L1.3750 6.0060
" />
<path d="M1.3650 6.2540
L1.3450 6.2530
" />
<path d="M1.3750 6.0060
L1.3850 6.0060
" />
<path d="M1.3790 0.5720
L1.3960 0.5530
" />
<path d="M1.3850 6.0060
L7.3850 6.0060
" />
<path d="M1.3850 6.2550
L1.3650 6.2540
" />
<path d="M1.3850 6.2550
L7.3850 6.2550
" />
<path d="M1.3960 0.5530
L1.4140 0.5340
" />
<path d="M1.4100 4.6500
L1.4100 4.6530
" />
<path d="M1.4100 4.6530
L1.4100 4.6550
" />
<path d="M1.4100 4.6550
L1.4100 4.8050
" />
<path d="M1.4100 4.8050
L1.4100 4.8080
" />
<path d="M1.4100 4.8080
L1.4100 4.8100
" />
<path d="M1.4100 4.8100
L1.4110 4.8130
" />
<path d="M1.4110 4.6450
L1.4110 4.6480
" />
<path d="M1.4110 4.6480
L1.4100 4.6500
" />
<path d="M1.4110 4.8130
L1.4110 4.8150
" />
<path d="M1.4110 4.8150
L1.4120 4.8170
" />
<path d="M1.4120 4.6400
L1.4120 4.6430
" />
<path d="M1.4120 4.6430
L1.4110 4.6450
" />
<path d="M1.4120 4.8170
L1.4120 4.8200
" />
<path d="M1.4120 4.8200
L1.4130 4.8220
" />
<path d="M1.4130 4.6380
L1.4120 4.6400
" />
<path d="M1.4130 4.8220
L1.4140 4.8240
" />
</g>
<g style="fill:#000000; fill-opacity:1.0000; stroke:none;">
<circle cx="1.4140" cy="0.5340" r="0.0100" /> 
</g>
<g style="fill:none; 
stroke:#000000; stroke-width:0.0200; stroke-opacity:1; 
stroke-linecap:round; stroke-linejoin:round;">
<path d="M1.4140 0.5340
L1.4330 0.5160
" />
<path d="M1.4140 4.6360
L1.4130 4.6380
" />
<path d="M1.4140 4.8240
L1.4150 4.8270
" />
<path d="M1.4150 4.6340
L1.4140 4.6360
" />
<path d="M1.4150 4.8270
L1.4160 4.8290
" />
<path d="M1.4160 4.6310
L1.4150 4.6340
" />
<path d="M1.4160 4.8290
L1.4170 4.8310
" />
<path d="M1.4170 4.6290
L1.4160 4.6310
" />
<path d="M1.4170 4.8310
L1.4190 4.8330
" />
<path d="M1.4180 4.6270
L1.4170 4.6290
" />
<path d="M1.4190 4.8330
L1.4200 4.8350
" />
<path d="M1.4200 4.6250
L1.4180 4.6270
" />
<path d="M1.4200 4.8350
L1.4210 4.8370
" />
<path d="M1.4210 4.6230
L1.4200 4.6250
" />
<path d="M1.4210 4.8370
L1.4230 4.8390
" />
<path d="M1.4230 4.6210
L1.4210 4.6230
" />
<path d="M1.4230 4.8390
L1.4250 4.8400
" />
<path d="M1.4250 4.6200
L1.4230 4.6210
" />
</g>
<g style="fill:#000000; fill-opacity:1.0000; stroke:none;">
<circle cx="1.4250" cy="4.6200" r="0.0100" /> 
</g>
<g style="fill:none; 
stroke:#000000; stroke-width:0.0200; stroke-opacity:1; 
stroke-linecap:round; stroke-linejoin:round;">
<path d="M1.4250 4.8400
L1.4260 4.8420
" />
<path d="M1.4260 4.6180
L1.4250 4.6200
" />
<path d="M1.4260 4.8420
L1.4280 4.8440
" />
<path d="M1.4280 4.6160
L1.4260 4.6180
" />
<path d="M1.4280 4.8440
L1.4300 4.8450
" />
<path d="M1.4300 4.6150
L1.4280 4.6160
" />
<path d="M1.4300 4.8450
L1.4320 4.8460
" />
<path d="M1.4320 4.6130
L1.4300 4.6150
" />
<path d="M1.4320 4.8460
L1.4340 4.8480
" />
<path d="M1.4330 0.5160
L1.4520 0.4990
" />
<path d="M1.4340 4.6120
L1.4320 4.6130
" />
<path d="M1.4340 4.8480
L1.4360 4.8490
" />
<path d="M1.4360 4.6110
L1.4340 4.6120
" />
<path d="M1.4360 4.8490
L1.4380 4.8500
" />
<path d="M1.4380 4.8500
L1.4410 4.8510
" />
<path d="M1.4390 4.6100
L1.4360 4.6110
" />
<path d="M1.4410 4.6090
L1.4390 4.6100
" />
<path d="M1.4410 4.8510
L1.4430 4.8520
" />
<path d="M1.4430 4.6080
L1.4410 4.6090
" />
<path d="M1.4430 4.8520
L1.4450 4.8530
" />
<path d="M1.4450 4.6070
L1.4430 4.6080
" />
<path d="M1.4450 4.8530
L1.4480 4.8530
" />
<path d="M1.4480 4.6070
L1.4450 4.6070
" />
<path d="M1.4480 4.8530
L1.4500 4.8540
" />
<path d="M1.4500 4.6060
L1.4480 4.6070
" />
<path d="M1.4500 4.8540
L1.4520 4.8540
" />
<path d="M1.4520 0.4990
L1.4730 0.4830
" />
<path d="M1.4520 4.8540
L1.4550 4.8550
" />
<path d="M1.4530 4.6060
L1.4500 4.6060
" />
<path d="M1.4550 4.6050
L1.4530 4.6060
" />
<path d="M1.4550 4.8550
L1.4570 4.8550
" />
<path d="M1.4570 4.8550
L1.4600 4.8550
" />
<path d="M1.4580 4.6050
L1.4550 4.6050
" />
<path d="M1.4600 0.8890
L1.4620 0.8730
" />
<path d="M1.4600 0.9050
L1.4600 0.8890
" />
<path d="M1.4600 0.9050
L1.4600 1.1050
" />
<path d="M1.4600 1.1110
L1.4600 1.1050
" />
<path d="M1.4600 1.1180
L1.4600 1.1110
" />
<path d="M1.4600 4.6050
L1.4580 4.6050
" />
<path d="M1.4600 4.8550
L1.6100 4.8550
" />
<path d="M1.4610 1.1240
L1.4600 1.1180
" />
<path d="M1.4610 1.1300
L1.4610 1.1240
" />
<path d="M1.4620 0.8730
L1.4640 0.8570
" />
<path d="M1.4620 1.1360
L1.4610 1.1300
" />
<path d="M1.4620 1.1430
L1.4620 1.1360
" />
<path d="M1.4630 1.1490
L1.4620 1.1430
" />
<path d="M1.4640 0.8570
L1.4660 0.8410
" />
<path d="M1.4640 1.1550
L1.4630 1.1490
" />
<path d="M1.4660 0.8410
L1.4700 0.8260
" />
<path d="M1.4700 0.8260
L1.4740 0.8100
" />
<path d="M1.4730 0.4830
L1.4940 0.4680
" />
<path d="M1.4740 0.8100
L1.4790 0.7950
" />
<path d="M1.4790 0.7950
L1.4850 0.7810
" />
<path d="M1.4850 0.7810
L1.4910 0.7660
" />
<path d="M1.4910 0.7660
L1.4980 0.7520
" />
<path d="M1.4940 0.4680
L1.5150 0.4540
" />
<path d="M1.4980 0.7520
L1.5060 0.7380
" />
<path d="M1.5060 0.7380
L1.5150 0.7250
" />
<path d="M1.5150 0.4540
L1.5380 0.4420
" />
<path d="M1.5150 0.7250
L1.5240 0.7120
" />
<path d="M1.5240 0.7120
L1.5340 0.6990
" />
<path d="M1.5340 0.6990
L1.5440 0.6870
" />
<path d="M1.5380 0.4420
L1.5610 0.4300
" />
<path d="M1.5440 0.6870
L1.5550 0.6750
" />
</g>
<g style="fill:#000000; fill-opacity:1.0000; stroke:none;">
<circle cx="1.5550" cy="0.6750" r="0.0100" /> 
</g>
<g style="fill:none; 
stroke:#000000; stroke-width:0.0200; stroke-opacity:1; 
stroke-linecap:round; stroke-linejoin:round;">
<path d="M1.5550 0.6750
L1.5670 0.6640
" />
<path d="M1.5610 0.4300
L1.5840 0.4200
" />
<path d="M1.5670 0.6640
L1.5790 0.6540
" />
<path d="M1.5790 0.6540
L1.5920 0.6440
" />
<path d="M1.5840 0.4200
L1.6080 0.4110
" />
<path d="M1.5850 0.8550
L1.7310 0.8550
" />
<path d="M1.5850 1.1550
L1.5850 0.8550
" />
<path d="M1.5920 0.6440
L1.6050 0.6350
" />
<path d="M1.6050 0.6350
L1.6180 0.6260
" />
<path d="M1.6080 0.4110
L1.6320 0.4030
" />
<path d="M1.6100 4.6050
L1.4600 4.6050
" />
<path d="M1.6100 4.6050
L1.6120 4.6050
" />
<path d="M1.6120 4.6050
L1.6150 4.6050
" />
<path d="M1.6120 4.8550
L1.6100 4.8550
" />
<path d="M1.6150 4.6050
L1.6170 4.6040
" />
<path d="M1.6150 4.8550
L1.6120 4.8550
" />
<path d="M1.6170 4.6040
L1.6200 4.6040
" />
<path d="M1.6170 4.8560
L1.6150 4.8550
" />
<path d="M1.6180 0.6260
L1.6320 0.6180
" />
<path d="M1.6200 4.6040
L1.6220 4.6030
" />
<path d="M1.6200 4.8560
L1.6170 4.8560
" />
<path d="M1.6220 4.6030
L1.6250 4.6030
" />
<path d="M1.6220 4.8570
L1.6200 4.8560
" />
<path d="M1.6250 4.6030
L1.6270 4.6020
" />
<path d="M1.6250 4.8570
L1.6220 4.8570
" />
<path d="M1.6270 4.6020
L1.6290 4.6010
" />
<path d="M1.6270 4.8580
L1.6250 4.8570
" />
<path d="M1.6290 4.6010
L1.6310 4.6000
" />
<path d="M1.6290 4.8590
L1.6270 4.8580
" />
<path d="M1.6310 4.6000
L1.6340 4.5990
" />
<path d="M1.6310 4.8600
L1.6290 4.8590
" />
<path d="M1.6320 0.4030
L1.6570 0.3960
" />
<path d="M1.6320 0.6180
L1.6460 0.6110
" />
<path d="M1.6340 4.5990
L1.6360 4.5980
" />
<path d="M1.6340 4.8610
L1.6310 4.8600
" />
<path d="M1.6360 4.5980
L1.6380 4.5970
" />
<path d="M1.6360 4.8620
L1.6340 4.8610
" />
<path d="M1.6380 4.5970
L1.6400 4.5950
" />
<path d="M1.6380 4.8630
L1.6360 4.8620
" />
<path d="M1.6400 4.5950
L1.6420 4.5940
" />
<path d="M1.6400 4.8650
L1.6380 4.8630
" />
<path d="M1.6420 4.5940
L1.6440 4.5920
" />
<path d="M1.6420 4.8660
L1.6400 4.8650
" />
<path d="M1.6440 4.5920
L1.6450 4.5900
" />
<path d="M1.6440 4.8680
L1.6420 4.8660
" />
</g>
<g style="fill:#000000; fill-opacity:1.0000; stroke:none;">
<circle cx="1.6450" cy="4.5900" r="0.0100" /> 
</g>
<g style="fill:none; 
stroke:#000000; stroke-width:0.0200; stroke-opacity:1; 
stroke-linecap:round; stroke-linejoin:round;">
<path d="M1.6450 4.5900
L1.6470 4.5890
" />
<path d="M1.6450 4.8700
L1.6440 4.8680
" />
</g>
<g style="fill:#000000; fill-opacity:1.0000; stroke:none;">
<circle cx="1.6450" cy="4.8700" r="0.0100" /> 
</g>
<g style="fill:none; 
stroke:#000000; stroke-width:0.0200; stroke-opacity:1; 
stroke-linecap:round; stroke-linejoin:round;">
<path d="M1.6460 0.6110
L1.6610 0.6050
" />
<path d="M1.6470 4.5890
L1.6490 4.5870
" />
<path d="M1.6470 4.8710
L1.6450 4.8700
" />
<path d="M1.6490 4.5870
L1.6500 4.5850
" />
<path d="M1.6490 4.8730
L1.6470 4.8710
" />
<path d="M1.6500 4.5850
L1.6520 4.5830
" />
<path d="M1.6500 4.8750
L1.6490 4.8730
" />
<path d="M1.6520 4.5830
L1.6530 4.5810
" />
<path d="M1.6520 4.8770
L1.6500 4.8750
" />
<path d="M1.6530 4.5810
L1.6540 4.5790
" />
<path d="M1.6530 4.8790
L1.6520 4.8770
" />
<path d="M1.6540 4.5790
L1.6550 4.5760
" />
<path d="M1.6540 4.8810
L1.6530 4.8790
" />
<path d="M1.6550 4.5760
L1.6560 4.5740
" />
<path d="M1.6550 4.8840
L1.6540 4.8810
" />
<path d="M1.6560 4.5740
L1.6570 4.5720
" />
<path d="M1.6560 4.8860
L1.6550 4.8840
" />
<path d="M1.6570 0.3960
L1.6820 0.3900
" />
<path d="M1.6570 4.5720
L1.6580 4.5700
" />
<path d="M1.6570 4.8880
L1.6560 4.8860
" />
<path d="M1.6580 4.5670
L1.6590 4.5650
" />
<path d="M1.6580 4.5700
L1.6580 4.5670
" />
<path d="M1.6580 4.8900
L1.6570 4.8880
" />
<path d="M1.6580 4.8930
L1.6580 4.8900
" />
<path d="M1.6590 4.5620
L1.6600 4.5600
" />
<path d="M1.6590 4.5650
L1.6590 4.5620
" />
<path d="M1.6590 4.8950
L1.6580 4.8930
" />
<path d="M1.6590 4.8980
L1.6590 4.8950
" />
<path d="M1.6600 3.4500
L1.6600 3.4520
" />
<path d="M1.6600 3.4520
L1.6600 3.4550
" />
<path d="M1.6600 3.4550
L1.6600 4.5550
" />
<path d="M1.6600 4.4550
L1.7890 4.4550
" />
<path d="M1.6600 4.5570
L1.6600 4.5550
" />
<path d="M1.6600 4.5600
L1.6600 4.5570
" />
<path d="M1.6600 4.9000
L1.6590 4.8980
" />
<path d="M1.6600 4.9030
L1.6600 4.9000
" />
<path d="M1.6600 4.9050
L1.6600 4.9030
" />
<path d="M1.6600 4.9050
L1.6600 5.1580
" />
<path d="M1.6600 5.1580
L1.6600 5.2230
" />
<path d="M1.6600 5.2230
L1.6600 5.3050
" />
<path d="M1.6610 0.6050
L1.6750 0.5990
" />
<path d="M1.6610 3.4450
L1.6610 3.4470
" />
<path d="M1.6610 3.4470
L1.6600 3.4500
" />
<path d="M1.6620 3.4400
L1.6620 3.4430
" />
<path d="M1.6620 3.4430
L1.6610 3.4450
" />
<path d="M1.6630 3.4380
L1.6620 3.4400
" />
<path d="M1.6640 3.4360
L1.6630 3.4380
" />
<path d="M1.6650 3.4330
L1.6640 3.4360
" />
<path d="M1.6660 3.4310
L1.6650 3.4330
" />
<path d="M1.6670 3.4290
L1.6660 3.4310
" />
<path d="M1.6690 3.4270
L1.6670 3.4290
" />
<path d="M1.6700 3.4250
L1.6690 3.4270
" />
<path d="M1.6710 3.4230
L1.6700 3.4250
" />
<path d="M1.6730 3.4210
L1.6710 3.4230
" />
<path d="M1.6750 0.5990
L1.6900 0.5940
" />
<path d="M1.6750 3.4200
L1.6730 3.4210
" />
<path d="M1.6760 3.4180
L1.6750 3.4200
" />
<path d="M1.6780 3.4160
L1.6760 3.4180
" />
<path d="M1.6800 3.4150
L1.6780 3.4160
" />
<path d="M1.6820 0.3900
L1.7070 0.3860
" />
<path d="M1.6820 3.4140
L1.6800 3.4150
" />
<path d="M1.6840 3.4120
L1.6820 3.4140
" />
<path d="M1.6860 3.4110
L1.6840 3.4120
" />
<path d="M1.6880 3.4100
L1.6860 3.4110
" />
<path d="M1.6900 0.5940
L1.7060 0.5900
" />
<path d="M1.6910 3.4090
L1.6880 3.4100
" />
<path d="M1.6930 3.4080
L1.6910 3.4090
" />
<path d="M1.6950 3.4070
L1.6930 3.4080
" />
<path d="M1.6980 3.4070
L1.6950 3.4070
" />
<path d="M1.7000 3.4060
L1.6980 3.4070
" />
<path d="M1.7020 3.4060
L1.7000 3.4060
" />
<path d="M1.7050 3.4050
L1.7020 3.4060
" />
<path d="M1.7060 0.5900
L1.7210 0.5860
" />
<path d="M1.7070 0.3860
L1.7330 0.3830
" />
<path d="M1.7070 3.4050
L1.7050 3.4050
" />
<path d="M1.7100 3.4050
L1.7070 3.4050
" />
<path d="M1.7210 0.5860
L1.7370 0.5840
" />
</g>
<g style="fill:#000000; fill-opacity:1.0000; stroke:none;">
<circle cx="1.7310" cy="0.8550" r="0.0100" /> 
</g>
<g style="fill:none; 
stroke:#000000; stroke-width:0.0200; stroke-opacity:1; 
stroke-linecap:round; stroke-linejoin:round;">
<path d="M1.7310 0.8550
L2.0850 0.8550
" />
<path d="M1.7330 0.3830
L1.7590 0.3810
" />
<path d="M1.7370 0.5840
L1.7530 0.5820
" />
<path d="M1.7530 0.5820
L1.7690 0.5800
" />
<path d="M1.7590 0.3810
L1.7850 0.3800
" />
<path d="M1.7690 0.5800
L1.7850 0.5800
" />
<path d="M1.7850 0.3800
L1.9850 0.3800
" />
<path d="M1.7890 4.4550
L2.1350 4.4550
" />
<path d="M1.9850 0.3800
L2.0100 0.3810
" />
<path d="M1.9850 0.5800
L1.7850 0.5800
" />
<path d="M1.9850 0.5800
L2.0000 0.5800
" />
<path d="M2.0000 0.5800
L2.0150 0.5810
" />
<path d="M2.0100 0.3810
L2.0350 0.3820
" />
<path d="M2.0150 0.5810
L2.0290 0.5830
" />
<path d="M2.0250 1.8550
L2.0250 2.0050
" />
<path d="M2.0250 1.8550
L2.2260 1.8550
" />
<path d="M2.0250 2.0050
L2.0250 2.0130
" />
<path d="M2.0250 2.0130
L2.0260 2.0200
" />
<path d="M2.0260 2.0200
L2.0270 2.0280
" />
<path d="M2.0270 2.0280
L2.0280 2.0350
" />
<path d="M2.0280 2.0350
L2.0300 2.0420
" />
<path d="M2.0290 0.5830
L2.0440 0.5850
" />
<path d="M2.0300 2.0420
L2.0320 2.0500
" />
<path d="M2.0320 2.0500
L2.0340 2.0570
" />
<path d="M2.0340 2.0570
L2.0370 2.0630
" />
<path d="M2.0350 0.3820
L2.0600 0.3850
" />
<path d="M2.0370 2.0630
L2.0400 2.0700
" />
<path d="M2.0400 2.0700
L2.0430 2.0760
" />
<path d="M2.0430 2.0760
L2.0470 2.0830
" />
<path d="M2.0440 0.5850
L2.0580 0.5880
" />
<path d="M2.0470 2.0830
L2.0510 2.0890
" />
<path d="M2.0510 2.0890
L2.0550 2.0950
" />
<path d="M2.0550 2.0950
L2.0590 2.1000
" />
<path d="M2.0580 0.5880
L2.0720 0.5920
" />
<path d="M2.0590 2.1000
L2.0640 2.1060
" />
<path d="M2.0600 0.3850
L2.0840 0.3890
" />
<path d="M2.0640 2.1060
L2.0690 2.1110
" />
<path d="M2.0690 2.1110
L2.0740 2.1160
" />
<path d="M2.0720 0.5920
L2.0860 0.5960
" />
<path d="M2.0740 2.1160
L2.0800 2.1210
" />
<path d="M2.0800 2.1210
L2.0850 2.1250
" />
<path d="M2.0840 0.3890
L2.1080 0.3950
" />
<path d="M2.0850 0.8550
L2.6000 0.8550
" />
<path d="M2.0850 2.1250
L2.0910 2.1290
" />
<path d="M2.0850 4.1550
L2.0850 4.4550
" />
</g>
<g style="fill:#000000; fill-opacity:1.0000; stroke:none;">
<circle cx="2.0850" cy="6.2550" r="0.0100" /> 
</g>
<g style="fill:none; 
stroke:#000000; stroke-width:0.0200; stroke-opacity:1; 
stroke-linecap:round; stroke-linejoin:round;">
<path d="M2.0860 0.5960
L2.0990 0.6010
" />
<path d="M2.0910 2.1290
L2.0970 2.1330
" />
<path d="M2.0970 2.1330
L2.1040 2.1370
" />
<path d="M2.0990 0.6010
L2.1130 0.6060
" />
<path d="M2.1040 2.1370
L2.1100 2.1400
" />
<path d="M2.1080 0.3950
L2.1310 0.4010
" />
<path d="M2.1100 2.1400
L2.1170 2.1430
" />
<path d="M2.1130 0.6060
L2.1250 0.6120
" />
<path d="M2.1170 2.1430
L2.1230 2.1460
" />
<path d="M2.1230 2.1460
L2.1300 2.1480
" />
<path d="M2.1250 0.6120
L2.1380 0.6180
" />
<path d="M2.1300 2.1480
L2.1380 2.1500
" />
<path d="M2.1310 0.4010
L2.1550 0.4080
" />
<path d="M2.1350 1.8550
L2.1350 1.9550
" />
<path d="M2.1350 4.1550
L1.6600 4.1550
" />
<path d="M2.1350 4.4550
L2.1350 4.1550
" />
<path d="M2.1380 0.6180
L2.1510 0.6250
" />
<path d="M2.1380 2.1500
L2.1450 2.1520
" />
<path d="M2.1450 2.1520
L2.1520 2.1530
" />
<path d="M2.1510 0.6250
L2.1630 0.6330
" />
<path d="M2.1520 2.1530
L2.1600 2.1540
" />
<path d="M2.1550 0.4080
L2.1770 0.4160
" />
<path d="M2.1600 2.1540
L2.1670 2.1550
" />
<path d="M2.1630 0.6330
L2.1740 0.6410
" />
<path d="M2.1670 2.1550
L2.1750 2.1550
" />
<path d="M2.1740 0.6410
L2.1850 0.6490
" />
<path d="M2.1750 2.1550
L3.0350 2.1550
" />
<path d="M2.1770 0.4160
L2.1990 0.4260
" />
<path d="M2.1850 0.6490
L2.1960 0.6580
" />
<path d="M2.1960 0.6580
L2.2070 0.6680
" />
<path d="M2.1990 0.4260
L2.2210 0.4360
" />
<path d="M2.2070 0.6680
L2.2170 0.6770
" />
<path d="M2.2170 0.6770
L2.2270 0.6880
" />
<path d="M2.2210 0.4360
L2.2420 0.4470
" />
<path d="M2.2260 1.1550
L2.6090 1.1550
" />
<path d="M2.2270 0.6880
L2.2360 0.6980
" />
<path d="M2.2360 0.6980
L2.2450 0.7100
" />
<path d="M2.2420 0.4470
L2.2620 0.4590
" />
<path d="M2.2450 0.7100
L2.2530 0.7210
" />
<path d="M2.2530 0.7210
L2.2610 0.7330
" />
<path d="M2.2610 0.7330
L2.2680 0.7450
" />
<path d="M2.2620 0.4590
L2.2820 0.4720
" />
<path d="M2.2680 0.7450
L2.2750 0.7580
" />
<path d="M2.2750 0.7580
L2.2810 0.7710
" />
<path d="M2.2810 0.7710
L2.2870 0.7840
" />
<path d="M2.2820 0.4720
L2.3020 0.4860
" />
<path d="M2.2870 0.7840
L2.2920 0.7980
" />
<path d="M2.2920 0.7980
L2.2960 0.8120
" />
<path d="M2.2960 0.8120
L2.3000 0.8260
" />
<path d="M2.3000 0.8260
L2.3030 0.8400
" />
<path d="M2.3020 0.4860
L2.3200 0.5010
" />
<path d="M2.3030 0.8400
L2.3060 0.8550
" />
<path d="M2.3100 3.4050
L1.7100 3.4050
" />
<path d="M2.3130 3.4050
L2.3100 3.4050
" />
<path d="M2.3150 3.4050
L2.3130 3.4050
" />
<path d="M2.3180 3.4060
L2.3150 3.4050
" />
<path d="M2.3200 0.5010
L2.3380 0.5160
" />
<path d="M2.3200 3.4060
L2.3180 3.4060
" />
<path d="M2.3220 3.4070
L2.3200 3.4060
" />
<path d="M2.3250 3.4070
L2.3220 3.4070
" />
<path d="M2.3270 3.4080
L2.3250 3.4070
" />
<path d="M2.3290 3.4090
L2.3270 3.4080
" />
<path d="M2.3320 3.4100
L2.3290 3.4090
" />
<path d="M2.3340 3.4110
L2.3320 3.4100
" />
<path d="M2.3360 3.4120
L2.3340 3.4110
" />
<path d="M2.3380 0.5160
L2.3550 0.5330
" />
<path d="M2.3380 3.4140
L2.3360 3.4120
" />
<path d="M2.3400 3.4150
L2.3380 3.4140
" />
<path d="M2.3420 3.4160
L2.3400 3.4150
" />
<path d="M2.3440 3.4180
L2.3420 3.4160
" />
<path d="M2.3450 3.4200
L2.3440 3.4180
" />
<path d="M2.3470 3.4210
L2.3450 3.4200
" />
<path d="M2.3490 3.4230
L2.3470 3.4210
" />
<path d="M2.3500 3.4250
L2.3490 3.4230
" />
<path d="M2.3510 3.4270
L2.3500 3.4250
" />
<path d="M2.3530 3.4290
L2.3510 3.4270
" />
<path d="M2.3540 3.4310
L2.3530 3.4290
" />
<path d="M2.3550 0.5330
L2.3720 0.5500
" />
<path d="M2.3550 3.4330
L2.3540 3.4310
" />
<path d="M2.3560 3.4360
L2.3550 3.4330
" />
<path d="M2.3570 3.4380
L2.3560 3.4360
" />
<path d="M2.3580 3.4400
L2.3570 3.4380
" />
<path d="M2.3580 3.4430
L2.3580 3.4400
" />
<path d="M2.3590 3.4450
L2.3580 3.4430
" />
<path d="M2.3590 3.4470
L2.3590 3.4450
" />
<path d="M2.3600 3.4500
L2.3590 3.4470
" />
<path d="M2.3600 3.4520
L2.3600 3.4500
" />
<path d="M2.3600 3.4550
L2.3600 3.4520
" />
<path d="M2.3600 4.5550
L2.3600 3.4550
" />
<path d="M2.3600 4.5550
L2.3600 4.5570
" />
<path d="M2.3600 4.5570
L2.3600 4.5600
" />
<path d="M2.3600 4.5600
L2.3610 4.5620
" />
<path d="M2.3600 4.9000
L2.3600 4.9030
" />
<path d="M2.3600 4.9030
L2.3600 4.9050
" />
<path d="M2.3600 4.9050
L1.6600 4.9050
" />
<path d="M2.3600 4.9050
L2.3600 5.1580
" />
<path d="M2.3600 5.1580
L1.6600 5.1580
" />
<path d="M2.3600 5.1580
L2.3600 5.2230
" />
<path d="M2.3600 5.2230
L1.6600 5.2230
" />
<path d="M2.3600 5.2230
L2.3600 5.3050
" />
<path d="M2.3600 5.3050
L1.6600 5.3050
" />
<path d="M2.3610 4.5620
L2.3610 4.5650
" />
<path d="M2.3610 4.5650
L2.3620 4.5670
" />
<path d="M2.3610 4.8950
L2.3610 4.8980
" />
<path d="M2.3610 4.8980
L2.3600 4.9000
" />
<path d="M2.3620 4.5670
L2.3620 4.5700
" />
<path d="M2.3620 4.5700
L2.3630 4.5720
" />
<path d="M2.3620 4.8900
L2.3620 4.8930
" />
<path d="M2.3620 4.8930
L2.3610 4.8950
" />
<path d="M2.3630 4.5720
L2.3640 4.5740
" />
<path d="M2.3630 4.8880
L2.3620 4.8900
" />
<path d="M2.3640 4.5740
L2.3650 4.5760
" />
<path d="M2.3640 4.8860
L2.3630 4.8880
" />
<path d="M2.3650 4.5760
L2.3660 4.5790
" />
<path d="M2.3650 4.8840
L2.3640 4.8860
" />
<path d="M2.3660 4.5790
L2.3670 4.5810
" />
<path d="M2.3660 4.8810
L2.3650 4.8840
" />
<path d="M2.3670 4.5810
L2.3680 4.5830
" />
<path d="M2.3670 4.8790
L2.3660 4.8810
" />
<path d="M2.3680 4.5830
L2.3700 4.5850
" />
<path d="M2.3680 4.8770
L2.3670 4.8790
" />
<path d="M2.3700 4.5850
L2.3710 4.5870
" />
<path d="M2.3700 4.8750
L2.3680 4.8770
" />
<path d="M2.3710 4.5870
L2.3730 4.5890
" />
<path d="M2.3710 4.8730
L2.3700 4.8750
" />
<path d="M2.3720 0.5500
L2.3870 0.5680
" />
<path d="M2.3730 4.5890
L2.3750 4.5900
" />
<path d="M2.3730 4.8710
L2.3710 4.8730
" />
</g>
<g style="fill:#000000; fill-opacity:1.0000; stroke:none;">
<circle cx="2.3750" cy="4.5900" r="0.0100" /> 
</g>
<g style="fill:none; 
stroke:#000000; stroke-width:0.0200; stroke-opacity:1; 
stroke-linecap:round; stroke-linejoin:round;">
<path d="M2.3750 4.5900
L2.3760 4.5920
" />
<path d="M2.3750 4.8700
L2.3730 4.8710
" />
</g>
<g style="fill:#000000; fill-opacity:1.0000; stroke:none;">
<circle cx="2.3750" cy="4.8700" r="0.0100" /> 
</g>
<g style="fill:none; 
stroke:#000000; stroke-width:0.0200; stroke-opacity:1; 
stroke-linecap:round; stroke-linejoin:round;">
<path d="M2.3760 4.5920
L2.3780 4.5940
" />
<path d="M2.3760 4.8680
L2.3750 4.8700
" />
<path d="M2.3780 4.5940
L2.3800 4.5950
" />
<path d="M2.3780 4.8660
L2.3760 4.8680
" />
<path d="M2.3800 4.5950
L2.3820 4.5970
" />
<path d="M2.3800 4.8650
L2.3780 4.8660
" />
<path d="M2.3820 4.5970
L2.3840 4.5980
" />
<path d="M2.3820 4.8630
L2.3800 4.8650
" />
<path d="M2.3840 4.5980
L2.3860 4.5990
" />
<path d="M2.3840 4.8620
L2.3820 4.8630
" />
<path d="M2.3860 4.5990
L2.3890 4.6000
" />
<path d="M2.3860 4.8610
L2.3840 4.8620
" />
<path d="M2.3870 0.5680
L2.4020 0.5860
" />
<path d="M2.3890 4.6000
L2.3910 4.6010
" />
<path d="M2.3890 4.8600
L2.3860 4.8610
" />
<path d="M2.3910 4.6010
L2.3930 4.6020
" />
<path d="M2.3910 4.8590
L2.3890 4.8600
" />
<path d="M2.3930 4.6020
L2.3950 4.6030
" />
<path d="M2.3930 4.8580
L2.3910 4.8590
" />
<path d="M2.3950 4.6030
L2.3980 4.6030
" />
<path d="M2.3950 4.8570
L2.3930 4.8580
" />
<path d="M2.3980 4.6030
L2.4000 4.6040
" />
<path d="M2.3980 4.8570
L2.3950 4.8570
" />
<path d="M2.4000 4.6040
L2.4030 4.6040
" />
<path d="M2.4000 4.8560
L2.3980 4.8570
" />
<path d="M2.4020 0.5860
L2.4160 0.6060
" />
<path d="M2.4030 4.6040
L2.4050 4.6050
" />
<path d="M2.4030 4.8560
L2.4000 4.8560
" />
<path d="M2.4050 4.6050
L2.4080 4.6050
" />
<path d="M2.4050 4.8550
L2.4030 4.8560
" />
<path d="M2.4080 4.6050
L2.4100 4.6050
" />
<path d="M2.4080 4.8550
L2.4050 4.8550
" />
<path d="M2.4100 4.8550
L2.4080 4.8550
" />
<path d="M2.4100 4.8550
L2.5600 4.8550
" />
<path d="M2.4160 0.6060
L2.4290 0.6250
" />
<path d="M2.4290 0.6250
L2.4420 0.6460
" />
<path d="M2.4420 0.6460
L2.4530 0.6670
" />
<path d="M2.4530 0.6670
L2.4640 0.6890
" />
<path d="M2.4640 0.6890
L2.4730 0.7110
" />
<path d="M2.4730 0.7110
L2.4810 0.7340
" />
<path d="M2.4810 0.7340
L2.4890 0.7570
" />
<path d="M2.4890 0.7570
L2.4950 0.7810
" />
<path d="M2.4950 0.7810
L2.5000 0.8050
" />
<path d="M2.5000 0.8050
L2.5050 0.8300
" />
<path d="M2.5050 0.8300
L2.5080 0.8550
" />
<path d="M2.5600 4.6050
L2.4100 4.6050
" />
<path d="M2.5600 4.8550
L2.5620 4.8550
" />
<path d="M2.5620 4.6050
L2.5600 4.6050
" />
<path d="M2.5620 4.8550
L2.5650 4.8550
" />
<path d="M2.5650 4.6050
L2.5620 4.6050
" />
<path d="M2.5650 4.8550
L2.5670 4.8540
" />
<path d="M2.5670 4.6060
L2.5650 4.6050
" />
<path d="M2.5670 4.8540
L2.5700 4.8540
" />
<path d="M2.5700 4.6060
L2.5670 4.6060
" />
<path d="M2.5700 4.8540
L2.5720 4.8530
" />
<path d="M2.5720 4.6070
L2.5700 4.6060
" />
<path d="M2.5720 4.8530
L2.5750 4.8530
" />
<path d="M2.5750 4.6070
L2.5720 4.6070
" />
<path d="M2.5750 4.8530
L2.5770 4.8520
" />
<path d="M2.5770 4.6080
L2.5750 4.6070
" />
<path d="M2.5770 4.8520
L2.5790 4.8510
" />
<path d="M2.5790 4.6090
L2.5770 4.6080
" />
<path d="M2.5790 4.8510
L2.5810 4.8500
" />
<path d="M2.5810 4.6100
L2.5790 4.6090
" />
<path d="M2.5810 4.8500
L2.5840 4.8490
" />
<path d="M2.5840 4.6110
L2.5810 4.6100
" />
<path d="M2.5840 4.8490
L2.5860 4.8480
" />
<path d="M2.5860 4.6120
L2.5840 4.6110
" />
<path d="M2.5860 4.8480
L2.5880 4.8470
" />
<path d="M2.5880 4.6130
L2.5860 4.6120
" />
<path d="M2.5880 4.8470
L2.5900 4.8450
" />
<path d="M2.5900 4.6150
L2.5880 4.6130
" />
<path d="M2.5900 4.8450
L2.5920 4.8440
" />
<path d="M2.5920 4.6160
L2.5900 4.6150
" />
<path d="M2.5920 4.8440
L2.5940 4.8420
" />
<path d="M2.5940 4.6180
L2.5920 4.6160
" />
<path d="M2.5940 4.8420
L2.5950 4.8400
" />
<path d="M2.5950 4.6200
L2.5940 4.6180
" />
</g>
<g style="fill:#000000; fill-opacity:1.0000; stroke:none;">
<circle cx="2.5950" cy="4.6200" r="0.0100" /> 
<circle cx="2.5950" cy="4.8400" r="0.0100" /> 
</g>
<g style="fill:none; 
stroke:#000000; stroke-width:0.0200; stroke-opacity:1; 
stroke-linecap:round; stroke-linejoin:round;">
<path d="M2.5950 4.8400
L2.5970 4.8390
" />
<path d="M2.5970 4.6210
L2.5950 4.6200
" />
<path d="M2.5970 4.8390
L2.5990 4.8370
" />
<path d="M2.5990 4.6230
L2.5970 4.6210
" />
<path d="M2.5990 4.8370
L2.6000 4.8350
" />
<path d="M2.6000 0.8550
L3.1850 0.8550
" />
<path d="M2.6000 1.1550
L2.6000 0.8550
" />
<path d="M2.6000 4.6250
L2.5990 4.6230
" />
<path d="M2.6000 4.8350
L2.6020 4.8330
" />
<path d="M2.6020 4.6270
L2.6000 4.6250
" />
<path d="M2.6020 4.8330
L2.6030 4.8310
" />
<path d="M2.6030 4.6290
L2.6020 4.6270
" />
<path d="M2.6030 4.8310
L2.6040 4.8290
" />
<path d="M2.6040 4.6310
L2.6030 4.6290
" />
<path d="M2.6040 4.8290
L2.6050 4.8260
" />
<path d="M2.6050 4.6340
L2.6040 4.6310
" />
<path d="M2.6050 4.8260
L2.6060 4.8240
" />
<path d="M2.6060 4.6360
L2.6050 4.6340
" />
<path d="M2.6060 4.8240
L2.6070 4.8220
" />
<path d="M2.6070 4.6380
L2.6060 4.6360
" />
<path d="M2.6070 4.8220
L2.6080 4.8200
" />
<path d="M2.6080 4.6400
L2.6070 4.6380
" />
<path d="M2.6080 4.6430
L2.6080 4.6400
" />
<path d="M2.6080 4.8170
L2.6090 4.8150
" />
<path d="M2.6080 4.8200
L2.6080 4.8170
" />
<path d="M2.6090 1.1550
L2.8850 1.1550
" />
<path d="M2.6090 1.8550
L2.2260 1.8550
" />
<path d="M2.6090 4.6450
L2.6080 4.6430
" />
<path d="M2.6090 4.6480
L2.6090 4.6450
" />
<path d="M2.6090 4.8120
L2.6100 4.8100
" />
<path d="M2.6090 4.8150
L2.6090 4.8120
" />
<path d="M2.6100 4.6500
L2.6090 4.6480
" />
<path d="M2.6100 4.6530
L2.6100 4.6500
" />
<path d="M2.6100 4.6550
L2.6100 4.6530
" />
<path d="M2.6100 4.8050
L2.6100 4.6550
" />
<path d="M2.6100 4.8070
L2.6100 4.8050
" />
<path d="M2.6100 4.8100
L2.6100 4.8070
" />
<path d="M2.8850 0.3550
L3.2850 0.3550
" />
<path d="M2.8850 0.8550
L2.8850 0.3550
" />
<path d="M2.8850 1.1550
L3.1850 1.1550
" />
<path d="M2.8850 1.2350
L3.0850 1.2350
" />
<path d="M2.8850 1.8550
L2.6090 1.8550
" />
<path d="M2.8850 1.8550
L2.8850 1.1550
" />
<path d="M2.9600 1.1550
L2.9600 1.2350
" />
<path d="M3.0350 2.1550
L3.0420 2.1550
" />
<path d="M3.0420 2.1550
L3.0500 2.1540
" />
<path d="M3.0500 2.1540
L3.0570 2.1530
" />
<path d="M3.0570 2.1530
L3.0640 2.1520
" />
<path d="M3.0640 2.1520
L3.0720 2.1500
" />
<path d="M3.0720 2.1500
L3.0790 2.1490
" />
<path d="M3.0790 2.1490
L3.0860 2.1460
" />
<path d="M3.0850 1.2350
L3.0850 1.9550
" />
<path d="M3.0850 1.9550
L2.1350 1.9550
" />
<path d="M3.0860 2.1460
L3.0920 2.1440
" />
<path d="M3.0920 2.1440
L3.0990 2.1410
" />
<path d="M3.0990 2.1410
L3.1060 2.1370
" />
<path d="M3.1060 2.1370
L3.1120 2.1340
" />
<path d="M3.1120 2.1340
L3.1180 2.1300
" />
<path d="M3.1180 2.1300
L3.1240 2.1260
" />
<path d="M3.1240 2.1260
L3.1300 2.1210
" />
<path d="M3.1300 2.1210
L3.1360 2.1160
" />
<path d="M3.1360 2.1160
L3.1410 2.1110
" />
</g>
<g style="fill:#000000; fill-opacity:1.0000; stroke:none;">
<circle cx="3.1410" cy="2.1110" r="0.0100" /> 
</g>
<g style="fill:none; 
stroke:#000000; stroke-width:0.0200; stroke-opacity:1; 
stroke-linecap:round; stroke-linejoin:round;">
<path d="M3.1410 2.1110
L3.1460 2.1060
" />
<path d="M3.1460 2.1060
L3.1510 2.1000
" />
<path d="M3.1510 2.1000
L3.1560 2.0940
" />
<path d="M3.1560 2.0940
L3.1600 2.0880
" />
<path d="M3.1600 2.0880
L3.1640 2.0820
" />
<path d="M3.1640 2.0820
L3.1670 2.0760
" />
<path d="M3.1670 2.0760
L3.1710 2.0690
" />
<path d="M3.1710 2.0690
L3.1740 2.0620
" />
<path d="M3.1740 2.0620
L3.1760 2.0560
" />
<path d="M3.1760 2.0560
L3.1790 2.0490
" />
<path d="M3.1790 2.0490
L3.1800 2.0420
" />
<path d="M3.1800 2.0420
L3.1820 2.0340
" />
<path d="M3.1820 2.0340
L3.1830 2.0270
" />
<path d="M3.1830 2.0270
L3.1840 2.0200
" />
<path d="M3.1840 2.0200
L3.1850 2.0120
" />
<path d="M3.1850 0.8550
L5.5850 0.8550
" />
<path d="M3.1850 0.9430
L3.1850 0.8550
" />
</g>
<g style="fill:#000000; fill-opacity:1.0000; stroke:none;">
<circle cx="3.1850" cy="0.9430" r="0.0100" /> 
</g>
<g style="fill:none; 
stroke:#000000; stroke-width:0.0200; stroke-opacity:1; 
stroke-linecap:round; stroke-linejoin:round;">
<path d="M3.1850 1.1550
L3.1850 0.9430
" />
<path d="M3.1850 1.1550
L3.1850 2.0050
" />
<path d="M3.1850 1.2350
L3.0850 1.2350
" />
<path d="M3.1850 2.0120
L3.1850 2.0050
" />
<path d="M3.2850 0.3550
L3.2850 0.8550
" />
<path d="M3.5350 0.3550
L3.9350 0.3550
" />
<path d="M3.5350 0.8550
L3.5350 0.3550
" />
<path d="M3.9350 0.3550
L3.9350 0.8550
" />
<path d="M3.9850 1.7550
L4.1350 1.7550
" />
<path d="M3.9850 1.8980
L3.9850 1.9050
" />
<path d="M3.9850 1.9050
L3.9850 2.2550
" />
<path d="M3.9850 2.2550
L4.0100 2.2550
" />
<path d="M3.9860 1.8900
L3.9850 1.8980
" />
<path d="M3.9870 1.8830
L3.9860 1.8900
" />
<path d="M3.9880 1.8760
L3.9870 1.8830
" />
<path d="M3.9900 1.8680
L3.9880 1.8760
" />
<path d="M3.9910 1.8610
L3.9900 1.8680
" />
<path d="M3.9940 1.8540
L3.9910 1.8610
" />
<path d="M3.9960 1.8480
L3.9940 1.8540
" />
<path d="M3.9990 1.8410
L3.9960 1.8480
" />
<path d="M4.0030 1.8340
L3.9990 1.8410
" />
<path d="M4.0060 1.8280
L4.0030 1.8340
" />
<path d="M4.0100 1.8220
L4.0060 1.8280
" />
<path d="M4.0100 1.8220
L4.0100 2.0050
" />
<path d="M4.0100 2.0050
L4.0100 2.0550
" />
<path d="M4.0100 2.0550
L4.0100 2.1050
" />
<path d="M4.0100 2.0550
L4.7600 2.0550
" />
<path d="M4.0100 2.1050
L4.0100 2.2550
" />
<path d="M4.0140 1.8160
L4.0100 1.8220
" />
<path d="M4.0190 1.8100
L4.0140 1.8160
" />
<path d="M4.0240 1.8040
L4.0190 1.8100
" />
<path d="M4.0290 1.7990
L4.0240 1.8040
" />
</g>
<g style="fill:#000000; fill-opacity:1.0000; stroke:none;">
<circle cx="4.0290" cy="1.7990" r="0.0100" /> 
</g>
<g style="fill:none; 
stroke:#000000; stroke-width:0.0200; stroke-opacity:1; 
stroke-linecap:round; stroke-linejoin:round;">
<path d="M4.0340 1.7940
L4.0290 1.7990
" />
<path d="M4.0400 1.7890
L4.0340 1.7940
" />
<path d="M4.0460 1.7840
L4.0400 1.7890
" />
<path d="M4.0520 1.7800
L4.0460 1.7840
" />
<path d="M4.0580 1.7760
L4.0520 1.7800
" />
<path d="M4.0640 1.7730
L4.0580 1.7760
" />
<path d="M4.0710 1.7690
L4.0640 1.7730
" />
<path d="M4.0780 1.7660
L4.0710 1.7690
" />
<path d="M4.0840 1.7640
L4.0780 1.7660
" />
<path d="M4.0910 1.7610
L4.0840 1.7640
" />
<path d="M4.0980 1.7600
L4.0910 1.7610
" />
<path d="M4.1060 1.7580
L4.0980 1.7600
" />
<path d="M4.1130 1.7570
L4.1060 1.7580
" />
<path d="M4.1200 1.7560
L4.1130 1.7570
" />
<path d="M4.1280 1.7550
L4.1200 1.7560
" />
<path d="M4.1350 1.7550
L4.1280 1.7550
" />
<path d="M4.1850 0.3550
L4.5850 0.3550
" />
<path d="M4.1850 0.8550
L4.1850 0.3550
" />
<path d="M4.5850 0.3550
L4.5850 0.8550
" />
<path d="M4.6350 1.7550
L4.1350 1.7550
" />
<path d="M4.6350 1.7550
L4.7850 1.7550
" />
<path d="M4.6420 1.7550
L4.6350 1.7550
" />
<path d="M4.6500 1.7560
L4.6420 1.7550
" />
<path d="M4.6570 1.7570
L4.6500 1.7560
" />
<path d="M4.6640 1.7580
L4.6570 1.7570
" />
<path d="M4.6720 1.7600
L4.6640 1.7580
" />
<path d="M4.6790 1.7610
L4.6720 1.7600
" />
<path d="M4.6860 1.7640
L4.6790 1.7610
" />
<path d="M4.6920 1.7660
L4.6860 1.7640
" />
<path d="M4.6990 1.7690
L4.6920 1.7660
" />
<path d="M4.7060 1.7730
L4.6990 1.7690
" />
<path d="M4.7120 1.7760
L4.7060 1.7730
" />
<path d="M4.7180 1.7800
L4.7120 1.7760
" />
<path d="M4.7240 1.7840
L4.7180 1.7800
" />
<path d="M4.7300 1.7890
L4.7240 1.7840
" />
<path d="M4.7360 1.7940
L4.7300 1.7890
" />
<path d="M4.7410 1.7990
L4.7360 1.7940
" />
</g>
<g style="fill:#000000; fill-opacity:1.0000; stroke:none;">
<circle cx="4.7410" cy="1.7990" r="0.0100" /> 
</g>
<g style="fill:none; 
stroke:#000000; stroke-width:0.0200; stroke-opacity:1; 
stroke-linecap:round; stroke-linejoin:round;">
<path d="M4.7460 1.8040
L4.7410 1.7990
" />
<path d="M4.7510 1.8100
L4.7460 1.8040
" />
<path d="M4.7560 1.8160
L4.7510 1.8100
" />
<path d="M4.7600 1.8220
L4.7560 1.8160
" />
<path d="M4.7600 1.8220
L4.7600 2.0050
" />
<path d="M4.7600 2.0050
L4.7600 2.0550
" />
<path d="M4.7600 2.0550
L4.7600 2.1050
" />
<path d="M4.7600 2.1050
L4.7600 2.2550
" />
<path d="M4.7600 2.2550
L4.7850 2.2550
" />
<path d="M4.7640 1.8280
L4.7600 1.8220
" />
<path d="M4.7670 1.8340
L4.7640 1.8280
" />
<path d="M4.7710 1.8410
L4.7670 1.8340
" />
<path d="M4.7740 1.8480
L4.7710 1.8410
" />
<path d="M4.7760 1.8540
L4.7740 1.8480
" />
<path d="M4.7790 1.8610
L4.7760 1.8540
" />
<path d="M4.7800 1.8680
L4.7790 1.8610
" />
<path d="M4.7820 1.8760
L4.7800 1.8680
" />
<path d="M4.7830 1.8830
L4.7820 1.8760
" />
<path d="M4.7840 1.8900
L4.7830 1.8830
" />
<path d="M4.7850 1.8980
L4.7840 1.8900
" />
<path d="M4.7850 1.9050
L4.7850 1.8980
" />
<path d="M4.7850 2.2550
L4.7850 1.9050
" />
<path d="M4.8350 0.3550
L5.2350 0.3550
" />
<path d="M4.8350 0.8550
L4.8350 0.3550
" />
<path d="M5.2350 0.3550
L5.2350 0.8550
" />
<path d="M5.4850 0.3550
L5.8850 0.3550
" />
<path d="M5.4850 0.8550
L5.4850 0.3550
" />
<path d="M5.5850 0.8550
L5.5850 0.9430
" />
<path d="M5.5850 0.8550
L6.1700 0.8550
" />
</g>
<g style="fill:#000000; fill-opacity:1.0000; stroke:none;">
<circle cx="5.5850" cy="0.9430" r="0.0100" /> 
</g>
<g style="fill:none; 
stroke:#000000; stroke-width:0.0200; stroke-opacity:1; 
stroke-linecap:round; stroke-linejoin:round;">
<path d="M5.5850 0.9430
L5.5850 1.1550
" />
<path d="M5.5850 1.1550
L5.8850 1.1550
" />
<path d="M5.5850 2.0050
L5.5850 1.1550
" />
<path d="M5.5850 2.0050
L5.5850 2.0120
" />
<path d="M5.5850 2.0120
L5.5860 2.0200
" />
<path d="M5.5860 2.0200
L5.5870 2.0270
" />
<path d="M5.5870 2.0270
L5.5880 2.0340
" />
<path d="M5.5880 2.0340
L5.5900 2.0420
" />
<path d="M5.5900 2.0420
L5.5910 2.0490
" />
<path d="M5.5910 2.0490
L5.5940 2.0560
" />
<path d="M5.5940 2.0560
L5.5960 2.0620
" />
<path d="M5.5960 2.0620
L5.5990 2.0690
" />
<path d="M5.5990 2.0690
L5.6030 2.0760
" />
<path d="M5.6030 2.0760
L5.6060 2.0820
" />
<path d="M5.6060 2.0820
L5.6100 2.0880
" />
<path d="M5.6100 2.0880
L5.6140 2.0940
" />
<path d="M5.6140 2.0940
L5.6190 2.1000
" />
<path d="M5.6190 2.1000
L5.6240 2.1060
" />
<path d="M5.6240 2.1060
L5.6290 2.1110
" />
</g>
<g style="fill:#000000; fill-opacity:1.0000; stroke:none;">
<circle cx="5.6290" cy="2.1110" r="0.0100" /> 
</g>
<g style="fill:none; 
stroke:#000000; stroke-width:0.0200; stroke-opacity:1; 
stroke-linecap:round; stroke-linejoin:round;">
<path d="M5.6290 2.1110
L5.6340 2.1160
" />
<path d="M5.6340 2.1160
L5.6400 2.1210
" />
<path d="M5.6400 2.1210
L5.6460 2.1260
" />
<path d="M5.6460 2.1260
L5.6520 2.1300
" />
<path d="M5.6520 2.1300
L5.6580 2.1340
" />
<path d="M5.6580 2.1340
L5.6640 2.1370
" />
<path d="M5.6640 2.1370
L5.6710 2.1410
" />
<path d="M5.6710 2.1410
L5.6780 2.1440
" />
<path d="M5.6780 2.1440
L5.6840 2.1460
" />
<path d="M5.6840 2.1460
L5.6910 2.1490
" />
<path d="M5.6850 1.2350
L5.5850 1.2350
" />
<path d="M5.6850 1.2350
L5.6850 1.9550
" />
<path d="M5.6910 2.1490
L5.6980 2.1500
" />
<path d="M5.6980 2.1500
L5.7060 2.1520
" />
<path d="M5.7060 2.1520
L5.7130 2.1530
" />
<path d="M5.7130 2.1530
L5.7200 2.1540
" />
<path d="M5.7200 2.1540
L5.7280 2.1550
" />
<path d="M5.7280 2.1550
L5.7350 2.1550
" />
<path d="M5.7350 2.1550
L6.5950 2.1550
" />
<path d="M5.8100 1.1550
L5.8100 1.2350
" />
<path d="M5.8850 0.3550
L5.8850 0.8550
" />
<path d="M5.8850 1.1550
L6.1610 1.1550
" />
<path d="M5.8850 1.2350
L5.6850 1.2350
" />
<path d="M5.8850 1.8550
L5.8850 1.1550
" />
<path d="M6.1600 4.6500
L6.1600 4.6530
" />
<path d="M6.1600 4.6530
L6.1600 4.6550
" />
<path d="M6.1600 4.6550
L6.1600 4.8050
" />
<path d="M6.1600 4.8050
L6.1600 4.8070
" />
<path d="M6.1600 4.8070
L6.1600 4.8100
" />
<path d="M6.1600 4.8100
L6.1610 4.8120
" />
<path d="M6.1610 1.1550
L6.5440 1.1550
" />
<path d="M6.1610 1.8550
L5.8850 1.8550
" />
<path d="M6.1610 4.6450
L6.1610 4.6480
" />
<path d="M6.1610 4.6480
L6.1600 4.6500
" />
<path d="M6.1610 4.8120
L6.1610 4.8150
" />
<path d="M6.1610 4.8150
L6.1620 4.8170
" />
<path d="M6.1620 4.6400
L6.1620 4.6430
" />
<path d="M6.1620 4.6430
L6.1610 4.6450
" />
<path d="M6.1620 4.8170
L6.1620 4.8200
" />
<path d="M6.1620 4.8200
L6.1630 4.8220
" />
<path d="M6.1630 4.6380
L6.1620 4.6400
" />
<path d="M6.1630 4.8220
L6.1640 4.8240
" />
<path d="M6.1640 4.6360
L6.1630 4.6380
" />
<path d="M6.1640 4.8240
L6.1650 4.8260
" />
<path d="M6.1650 4.6340
L6.1640 4.6360
" />
<path d="M6.1650 4.8260
L6.1660 4.8290
" />
<path d="M6.1660 4.6310
L6.1650 4.6340
" />
<path d="M6.1660 4.8290
L6.1670 4.8310
" />
<path d="M6.1670 4.6290
L6.1660 4.6310
" />
<path d="M6.1670 4.8310
L6.1680 4.8330
" />
<path d="M6.1680 4.6270
L6.1670 4.6290
" />
<path d="M6.1680 4.8330
L6.1700 4.8350
" />
<path d="M6.1700 0.8550
L6.6850 0.8550
" />
<path d="M6.1700 1.1550
L6.1700 0.8550
" />
<path d="M6.1700 4.6250
L6.1680 4.6270
" />
<path d="M6.1700 4.8350
L6.1710 4.8370
" />
<path d="M6.1710 4.6230
L6.1700 4.6250
" />
<path d="M6.1710 4.8370
L6.1730 4.8390
" />
<path d="M6.1730 4.6210
L6.1710 4.6230
" />
<path d="M6.1730 4.8390
L6.1750 4.8400
" />
<path d="M6.1750 4.6200
L6.1730 4.6210
" />
</g>
<g style="fill:#000000; fill-opacity:1.0000; stroke:none;">
<circle cx="6.1750" cy="4.6200" r="0.0100" /> 
<circle cx="6.1750" cy="4.8400" r="0.0100" /> 
</g>
<g style="fill:none; 
stroke:#000000; stroke-width:0.0200; stroke-opacity:1; 
stroke-linecap:round; stroke-linejoin:round;">
<path d="M6.1750 4.8400
L6.1760 4.8420
" />
<path d="M6.1760 4.6180
L6.1750 4.6200
" />
<path d="M6.1760 4.8420
L6.1780 4.8440
" />
<path d="M6.1780 4.6160
L6.1760 4.6180
" />
<path d="M6.1780 4.8440
L6.1800 4.8450
" />
<path d="M6.1800 4.6150
L6.1780 4.6160
" />
<path d="M6.1800 4.8450
L6.1820 4.8470
" />
<path d="M6.1820 4.6130
L6.1800 4.6150
" />
<path d="M6.1820 4.8470
L6.1840 4.8480
" />
<path d="M6.1840 4.6120
L6.1820 4.6130
" />
<path d="M6.1840 4.8480
L6.1860 4.8490
" />
<path d="M6.1860 4.6110
L6.1840 4.6120
" />
<path d="M6.1860 4.8490
L6.1890 4.8500
" />
<path d="M6.1890 4.6100
L6.1860 4.6110
" />
<path d="M6.1890 4.8500
L6.1910 4.8510
" />
<path d="M6.1910 4.6090
L6.1890 4.6100
" />
<path d="M6.1910 4.8510
L6.1930 4.8520
" />
<path d="M6.1930 4.6080
L6.1910 4.6090
" />
<path d="M6.1930 4.8520
L6.1950 4.8530
" />
<path d="M6.1950 4.6070
L6.1930 4.6080
" />
<path d="M6.1950 4.8530
L6.1980 4.8530
" />
<path d="M6.1980 4.6070
L6.1950 4.6070
" />
<path d="M6.1980 4.8530
L6.2000 4.8540
" />
<path d="M6.2000 4.6060
L6.1980 4.6070
" />
<path d="M6.2000 4.8540
L6.2030 4.8540
" />
<path d="M6.2030 4.6060
L6.2000 4.6060
" />
<path d="M6.2030 4.8540
L6.2050 4.8550
" />
<path d="M6.2050 4.6050
L6.2030 4.6060
" />
<path d="M6.2050 4.8550
L6.2080 4.8550
" />
<path d="M6.2080 4.6050
L6.2050 4.6050
" />
<path d="M6.2080 4.8550
L6.2100 4.8550
" />
<path d="M6.2100 4.6050
L6.2080 4.6050
" />
<path d="M6.2100 4.8550
L6.3600 4.8550
" />
<path d="M6.2620 0.8550
L6.2650 0.8300
" />
<path d="M6.2650 0.8300
L6.2700 0.8050
" />
<path d="M6.2700 0.8050
L6.2750 0.7810
" />
<path d="M6.2750 0.7810
L6.2810 0.7570
" />
<path d="M6.2810 0.7570
L6.2890 0.7340
" />
<path d="M6.2890 0.7340
L6.2970 0.7110
" />
<path d="M6.2970 0.7110
L6.3060 0.6890
" />
<path d="M6.3060 0.6890
L6.3170 0.6670
" />
<path d="M6.3170 0.6670
L6.3280 0.6460
" />
<path d="M6.3280 0.6460
L6.3410 0.6250
" />
<path d="M6.3410 0.6250
L6.3540 0.6060
" />
<path d="M6.3540 0.6060
L6.3680 0.5860
" />
<path d="M6.3600 4.6050
L6.2100 4.6050
" />
<path d="M6.3600 4.6050
L6.3620 4.6050
" />
<path d="M6.3620 4.6050
L6.3650 4.6050
" />
<path d="M6.3620 4.8550
L6.3600 4.8550
" />
<path d="M6.3650 4.6050
L6.3670 4.6040
" />
<path d="M6.3650 4.8550
L6.3620 4.8550
" />
<path d="M6.3670 4.6040
L6.3700 4.6040
" />
<path d="M6.3670 4.8560
L6.3650 4.8550
" />
<path d="M6.3680 0.5860
L6.3830 0.5680
" />
<path d="M6.3700 4.6040
L6.3720 4.6030
" />
<path d="M6.3700 4.8560
L6.3670 4.8560
" />
<path d="M6.3720 4.6030
L6.3750 4.6030
" />
<path d="M6.3720 4.8570
L6.3700 4.8560
" />
<path d="M6.3750 4.6030
L6.3770 4.6020
" />
<path d="M6.3750 4.8570
L6.3720 4.8570
" />
<path d="M6.3770 4.6020
L6.3790 4.6010
" />
<path d="M6.3770 4.8580
L6.3750 4.8570
" />
<path d="M6.3790 4.6010
L6.3810 4.6000
" />
<path d="M6.3790 4.8590
L6.3770 4.8580
" />
<path d="M6.3810 4.6000
L6.3840 4.5990
" />
<path d="M6.3810 4.8600
L6.3790 4.8590
" />
<path d="M6.3830 0.5680
L6.3980 0.5500
" />
<path d="M6.3840 4.5990
L6.3860 4.5980
" />
<path d="M6.3840 4.8610
L6.3810 4.8600
" />
<path d="M6.3860 4.5980
L6.3880 4.5970
" />
<path d="M6.3860 4.8620
L6.3840 4.8610
" />
<path d="M6.3880 4.5970
L6.3900 4.5950
" />
<path d="M6.3880 4.8630
L6.3860 4.8620
" />
<path d="M6.3900 4.5950
L6.3920 4.5940
" />
<path d="M6.3900 4.8650
L6.3880 4.8630
" />
<path d="M6.3920 4.5940
L6.3940 4.5920
" />
<path d="M6.3920 4.8660
L6.3900 4.8650
" />
<path d="M6.3940 4.5920
L6.3950 4.5900
" />
<path d="M6.3940 4.8680
L6.3920 4.8660
" />
</g>
<g style="fill:#000000; fill-opacity:1.0000; stroke:none;">
<circle cx="6.3950" cy="4.5900" r="0.0100" /> 
</g>
<g style="fill:none; 
stroke:#000000; stroke-width:0.0200; stroke-opacity:1; 
stroke-linecap:round; stroke-linejoin:round;">
<path d="M6.3950 4.5900
L6.3970 4.5890
" />
<path d="M6.3950 4.8700
L6.3940 4.8680
" />
</g>
<g style="fill:#000000; fill-opacity:1.0000; stroke:none;">
<circle cx="6.3950" cy="4.8700" r="0.0100" /> 
</g>
<g style="fill:none; 
stroke:#000000; stroke-width:0.0200; stroke-opacity:1; 
stroke-linecap:round; stroke-linejoin:round;">
<path d="M6.3970 4.5890
L6.3990 4.5870
" />
<path d="M6.3970 4.8710
L6.3950 4.8700
" />
<path d="M6.3980 0.5500
L6.4150 0.5330
" />
<path d="M6.3990 4.5870
L6.4000 4.5850
" />
<path d="M6.3990 4.8730
L6.3970 4.8710
" />
<path d="M6.4000 4.5850
L6.4020 4.5830
" />
<path d="M6.4000 4.8750
L6.3990 4.8730
" />
<path d="M6.4020 4.5830
L6.4030 4.5810
" />
<path d="M6.4020 4.8770
L6.4000 4.8750
" />
<path d="M6.4030 4.5810
L6.4040 4.5790
" />
<path d="M6.4030 4.8790
L6.4020 4.8770
" />
<path d="M6.4040 4.5790
L6.4050 4.5760
" />
<path d="M6.4040 4.8810
L6.4030 4.8790
" />
<path d="M6.4050 4.5760
L6.4060 4.5740
" />
<path d="M6.4050 4.8840
L6.4040 4.8810
" />
<path d="M6.4060 4.5740
L6.4070 4.5720
" />
<path d="M6.4060 4.8860
L6.4050 4.8840
" />
<path d="M6.4070 4.5720
L6.4080 4.5700
" />
<path d="M6.4070 4.8880
L6.4060 4.8860
" />
<path d="M6.4080 4.5670
L6.4090 4.5650
" />
<path d="M6.4080 4.5700
L6.4080 4.5670
" />
<path d="M6.4080 4.8900
L6.4070 4.8880
" />
<path d="M6.4080 4.8930
L6.4080 4.8900
" />
<path d="M6.4090 4.5620
L6.4100 4.5600
" />
<path d="M6.4090 4.5650
L6.4090 4.5620
" />
<path d="M6.4090 4.8950
L6.4080 4.8930
" />
<path d="M6.4090 4.8980
L6.4090 4.8950
" />
<path d="M6.4100 3.4500
L6.4100 3.4520
" />
<path d="M6.4100 3.4520
L6.4100 3.4550
" />
<path d="M6.4100 3.4550
L6.4100 4.5550
" />
<path d="M6.4100 4.5570
L6.4100 4.5550
" />
<path d="M6.4100 4.5600
L6.4100 4.5570
" />
<path d="M6.4100 4.9000
L6.4090 4.8980
" />
<path d="M6.4100 4.9030
L6.4100 4.9000
" />
<path d="M6.4100 4.9050
L6.4100 4.9030
" />
<path d="M6.4100 4.9050
L6.4100 5.1580
" />
<path d="M6.4100 4.9050
L7.1100 4.9050
" />
<path d="M6.4100 5.1580
L6.4100 5.2230
" />
<path d="M6.4100 5.1580
L7.1100 5.1580
" />
<path d="M6.4100 5.2230
L6.4100 5.3050
" />
<path d="M6.4100 5.2230
L7.1100 5.2230
" />
<path d="M6.4100 5.3050
L7.1100 5.3050
" />
<path d="M6.4110 3.4450
L6.4110 3.4470
" />
<path d="M6.4110 3.4470
L6.4100 3.4500
" />
<path d="M6.4120 3.4400
L6.4120 3.4430
" />
<path d="M6.4120 3.4430
L6.4110 3.4450
" />
<path d="M6.4130 3.4380
L6.4120 3.4400
" />
<path d="M6.4140 3.4360
L6.4130 3.4380
" />
<path d="M6.4150 0.5330
L6.4320 0.5160
" />
<path d="M6.4150 3.4330
L6.4140 3.4360
" />
<path d="M6.4160 3.4310
L6.4150 3.4330
" />
<path d="M6.4170 3.4290
L6.4160 3.4310
" />
<path d="M6.4190 3.4270
L6.4170 3.4290
" />
<path d="M6.4200 3.4250
L6.4190 3.4270
" />
<path d="M6.4210 3.4230
L6.4200 3.4250
" />
<path d="M6.4230 3.4210
L6.4210 3.4230
" />
<path d="M6.4250 3.4200
L6.4230 3.4210
" />
<path d="M6.4260 3.4180
L6.4250 3.4200
" />
<path d="M6.4280 3.4160
L6.4260 3.4180
" />
<path d="M6.4300 3.4150
L6.4280 3.4160
" />
<path d="M6.4320 0.5160
L6.4500 0.5010
" />
<path d="M6.4320 3.4140
L6.4300 3.4150
" />
<path d="M6.4340 3.4120
L6.4320 3.4140
" />
<path d="M6.4360 3.4110
L6.4340 3.4120
" />
<path d="M6.4380 3.4100
L6.4360 3.4110
" />
<path d="M6.4410 3.4090
L6.4380 3.4100
" />
<path d="M6.4430 3.4080
L6.4410 3.4090
" />
<path d="M6.4450 3.4070
L6.4430 3.4080
" />
<path d="M6.4480 3.4070
L6.4450 3.4070
" />
<path d="M6.4500 0.5010
L6.4680 0.4860
" />
<path d="M6.4500 3.4060
L6.4480 3.4070
" />
<path d="M6.4520 3.4060
L6.4500 3.4060
" />
<path d="M6.4550 3.4050
L6.4520 3.4060
" />
<path d="M6.4570 3.4050
L6.4550 3.4050
" />
<path d="M6.4600 3.4050
L6.4570 3.4050
" />
<path d="M6.4640 0.8550
L6.4670 0.8400
" />
<path d="M6.4670 0.8400
L6.4700 0.8260
" />
<path d="M6.4680 0.4860
L6.4880 0.4720
" />
<path d="M6.4700 0.8260
L6.4740 0.8120
" />
<path d="M6.4740 0.8120
L6.4780 0.7980
" />
<path d="M6.4780 0.7980
L6.4830 0.7840
" />
<path d="M6.4830 0.7840
L6.4890 0.7710
" />
<path d="M6.4880 0.4720
L6.5080 0.4590
" />
<path d="M6.4890 0.7710
L6.4950 0.7580
" />
<path d="M6.4950 0.7580
L6.5020 0.7450
" />
<path d="M6.5020 0.7450
L6.5090 0.7330
" />
<path d="M6.5080 0.4590
L6.5280 0.4470
" />
<path d="M6.5090 0.7330
L6.5170 0.7210
" />
<path d="M6.5170 0.7210
L6.5250 0.7100
" />
<path d="M6.5250 0.7100
L6.5340 0.6980
" />
<path d="M6.5280 0.4470
L6.5490 0.4360
" />
<path d="M6.5340 0.6980
L6.5430 0.6880
" />
<path d="M6.5430 0.6880
L6.5530 0.6770
" />
<path d="M6.5440 1.1550
L7.5850 1.1550
" />
<path d="M6.5440 1.8550
L6.1610 1.8550
" />
<path d="M6.5440 1.8550
L6.7450 1.8550
" />
<path d="M6.5490 0.4360
L6.5710 0.4260
" />
<path d="M6.5530 0.6770
L6.5630 0.6680
" />
<path d="M6.5630 0.6680
L6.5740 0.6580
" />
<path d="M6.5710 0.4260
L6.5930 0.4160
" />
<path d="M6.5740 0.6580
L6.5850 0.6490
" />
<path d="M6.5850 0.6490
L6.5960 0.6410
" />
<path d="M6.5930 0.4160
L6.6150 0.4080
" />
<path d="M6.5950 2.1550
L6.6030 2.1550
" />
<path d="M6.5960 0.6410
L6.6070 0.6330
" />
<path d="M6.6030 2.1550
L6.6100 2.1540
" />
<path d="M6.6070 0.6330
L6.6190 0.6250
" />
<path d="M6.6100 2.1540
L6.6180 2.1530
" />
<path d="M6.6150 0.4080
L6.6390 0.4010
" />
<path d="M6.6180 2.1530
L6.6250 2.1520
" />
<path d="M6.6190 0.6250
L6.6320 0.6180
" />
<path d="M6.6250 2.1520
L6.6320 2.1500
" />
<path d="M6.6320 0.6180
L6.6450 0.6120
" />
<path d="M6.6320 2.1500
L6.6400 2.1480
" />
<path d="M6.6350 1.8550
L6.6350 1.9550
" />
<path d="M6.6350 1.9550
L5.6850 1.9550
" />
<path d="M6.6350 4.4550
L6.6350 4.1550
" />
<path d="M6.6390 0.4010
L6.6620 0.3950
" />
<path d="M6.6400 2.1480
L6.6470 2.1460
" />
<path d="M6.6450 0.6120
L6.6570 0.6060
" />
<path d="M6.6470 2.1460
L6.6530 2.1430
" />
<path d="M6.6530 2.1430
L6.6600 2.1400
" />
<path d="M6.6570 0.6060
L6.6710 0.6010
" />
<path d="M6.6600 2.1400
L6.6660 2.1370
" />
<path d="M6.6620 0.3950
L6.6860 0.3890
" />
<path d="M6.6660 2.1370
L6.6730 2.1330
" />
<path d="M6.6710 0.6010
L6.6840 0.5960
" />
<path d="M6.6730 2.1330
L6.6790 2.1290
" />
<path d="M6.6790 2.1290
L6.6850 2.1250
" />
<path d="M6.6840 0.5960
L6.6980 0.5920
" />
<path d="M6.6850 0.8550
L7.0390 0.8550
" />
<path d="M6.6850 2.1250
L6.6900 2.1210
" />
<path d="M6.6850 4.4550
L6.6850 4.1550
" />
</g>
<g style="fill:#000000; fill-opacity:1.0000; stroke:none;">
<circle cx="6.6850" cy="6.2550" r="0.0100" /> 
</g>
<g style="fill:none; 
stroke:#000000; stroke-width:0.0200; stroke-opacity:1; 
stroke-linecap:round; stroke-linejoin:round;">
<path d="M6.6860 0.3890
L6.7100 0.3850
" />
<path d="M6.6900 2.1210
L6.6960 2.1160
" />
<path d="M6.6960 2.1160
L6.7010 2.1110
" />
<path d="M6.6980 0.5920
L6.7120 0.5880
" />
<path d="M6.7010 2.1110
L6.7060 2.1060
" />
<path d="M6.7060 2.1060
L6.7110 2.1000
" />
<path d="M6.7100 0.3850
L6.7350 0.3820
" />
<path d="M6.7110 2.1000
L6.7150 2.0950
" />
<path d="M6.7120 0.5880
L6.7260 0.5850
" />
<path d="M6.7150 2.0950
L6.7190 2.0890
" />
<path d="M6.7190 2.0890
L6.7230 2.0830
" />
<path d="M6.7230 2.0830
L6.7270 2.0760
" />
<path d="M6.7260 0.5850
L6.7410 0.5830
" />
<path d="M6.7270 2.0760
L6.7300 2.0700
" />
<path d="M6.7300 2.0700
L6.7330 2.0630
" />
<path d="M6.7330 2.0630
L6.7360 2.0570
" />
<path d="M6.7350 0.3820
L6.7600 0.3810
" />
<path d="M6.7360 2.0570
L6.7380 2.0500
" />
<path d="M6.7380 2.0500
L6.7400 2.0420
" />
<path d="M6.7400 2.0420
L6.7420 2.0350
" />
<path d="M6.7410 0.5830
L6.7550 0.5810
" />
<path d="M6.7420 2.0350
L6.7430 2.0280
" />
<path d="M6.7430 2.0280
L6.7440 2.0200
" />
<path d="M6.7440 2.0200
L6.7450 2.0130
" />
<path d="M6.7450 1.8550
L6.7450 2.0050
" />
<path d="M6.7450 2.0130
L6.7450 2.0050
" />
<path d="M6.7550 0.5810
L6.7700 0.5800
" />
<path d="M6.7600 0.3810
L6.7850 0.3800
" />
<path d="M6.7700 0.5800
L6.7850 0.5800
" />
<path d="M6.7850 0.3800
L6.9850 0.3800
" />
<path d="M6.9810 4.4550
L6.6350 4.4550
" />
<path d="M6.9810 4.4550
L7.1100 4.4550
" />
<path d="M6.9850 0.3800
L7.0110 0.3810
" />
<path d="M6.9850 0.5800
L6.7850 0.5800
" />
<path d="M6.9850 0.5800
L7.0010 0.5800
" />
<path d="M7.0010 0.5800
L7.0170 0.5820
" />
<path d="M7.0110 0.3810
L7.0370 0.3830
" />
<path d="M7.0170 0.5820
L7.0330 0.5840
" />
<path d="M7.0330 0.5840
L7.0490 0.5860
" />
<path d="M7.0370 0.3830
L7.0630 0.3860
" />
</g>
<g style="fill:#000000; fill-opacity:1.0000; stroke:none;">
<circle cx="7.0390" cy="0.8550" r="0.0100" /> 
</g>
<g style="fill:none; 
stroke:#000000; stroke-width:0.0200; stroke-opacity:1; 
stroke-linecap:round; stroke-linejoin:round;">
<path d="M7.0390 0.8550
L7.1850 0.8550
" />
<path d="M7.0490 0.5860
L7.0640 0.5900
" />
<path d="M7.0600 3.4050
L6.4600 3.4050
" />
<path d="M7.0630 0.3860
L7.0880 0.3900
" />
<path d="M7.0630 3.4050
L7.0600 3.4050
" />
<path d="M7.0640 0.5900
L7.0800 0.5940
" />
<path d="M7.0650 3.4050
L7.0630 3.4050
" />
<path d="M7.0680 3.4060
L7.0650 3.4050
" />
<path d="M7.0700 3.4060
L7.0680 3.4060
" />
<path d="M7.0720 3.4070
L7.0700 3.4060
" />
<path d="M7.0750 3.4070
L7.0720 3.4070
" />
<path d="M7.0770 3.4080
L7.0750 3.4070
" />
<path d="M7.0790 3.4090
L7.0770 3.4080
" />
<path d="M7.0800 0.5940
L7.0950 0.5990
" />
<path d="M7.0820 3.4100
L7.0790 3.4090
" />
<path d="M7.0840 3.4110
L7.0820 3.4100
" />
<path d="M7.0860 3.4120
L7.0840 3.4110
" />
<path d="M7.0880 0.3900
L7.1130 0.3960
" />
<path d="M7.0880 3.4140
L7.0860 3.4120
" />
<path d="M7.0900 3.4150
L7.0880 3.4140
" />
<path d="M7.0920 3.4160
L7.0900 3.4150
" />
<path d="M7.0940 3.4180
L7.0920 3.4160
" />
<path d="M7.0950 0.5990
L7.1090 0.6050
" />
<path d="M7.0950 3.4200
L7.0940 3.4180
" />
<path d="M7.0970 3.4210
L7.0950 3.4200
" />
<path d="M7.0990 3.4230
L7.0970 3.4210
" />
<path d="M7.1000 3.4250
L7.0990 3.4230
" />
<path d="M7.1010 3.4270
L7.1000 3.4250
" />
<path d="M7.1030 3.4290
L7.1010 3.4270
" />
<path d="M7.1040 3.4310
L7.1030 3.4290
" />
<path d="M7.1050 3.4330
L7.1040 3.4310
" />
<path d="M7.1060 3.4360
L7.1050 3.4330
" />
<path d="M7.1070 3.4380
L7.1060 3.4360
" />
<path d="M7.1080 3.4400
L7.1070 3.4380
" />
<path d="M7.1080 3.4430
L7.1080 3.4400
" />
<path d="M7.1090 0.6050
L7.1240 0.6110
" />
<path d="M7.1090 3.4450
L7.1080 3.4430
" />
<path d="M7.1090 3.4470
L7.1090 3.4450
" />
<path d="M7.1100 3.4500
L7.1090 3.4470
" />
<path d="M7.1100 3.4520
L7.1100 3.4500
" />
<path d="M7.1100 3.4550
L7.1100 3.4520
" />
<path d="M7.1100 4.1550
L6.6350 4.1550
" />
<path d="M7.1100 4.5550
L7.1100 3.4550
" />
<path d="M7.1100 4.5550
L7.1100 4.5570
" />
<path d="M7.1100 4.5570
L7.1100 4.5600
" />
<path d="M7.1100 4.5600
L7.1110 4.5620
" />
<path d="M7.1100 4.9000
L7.1100 4.9030
" />
<path d="M7.1100 4.9030
L7.1100 4.9050
" />
<path d="M7.1100 4.9050
L7.1100 5.1580
" />
<path d="M7.1100 5.1580
L7.1100 5.2230
" />
<path d="M7.1100 5.2230
L7.1100 5.3050
" />
<path d="M7.1110 4.5620
L7.1110 4.5650
" />
<path d="M7.1110 4.5650
L7.1120 4.5670
" />
<path d="M7.1110 4.8950
L7.1110 4.8980
" />
<path d="M7.1110 4.8980
L7.1100 4.9000
" />
<path d="M7.1120 4.5670
L7.1120 4.5700
" />
<path d="M7.1120 4.5700
L7.1130 4.5720
" />
<path d="M7.1120 4.8900
L7.1120 4.8930
" />
<path d="M7.1120 4.8930
L7.1110 4.8950
" />
<path d="M7.1130 0.3960
L7.1380 0.4030
" />
<path d="M7.1130 4.5720
L7.1140 4.5740
" />
<path d="M7.1130 4.8880
L7.1120 4.8900
" />
<path d="M7.1140 4.5740
L7.1150 4.5760
" />
<path d="M7.1140 4.8860
L7.1130 4.8880
" />
<path d="M7.1150 4.5760
L7.1160 4.5790
" />
<path d="M7.1150 4.8840
L7.1140 4.8860
" />
<path d="M7.1160 4.5790
L7.1170 4.5810
" />
<path d="M7.1160 4.8810
L7.1150 4.8840
" />
<path d="M7.1170 4.5810
L7.1180 4.5830
" />
<path d="M7.1170 4.8790
L7.1160 4.8810
" />
<path d="M7.1180 4.5830
L7.1200 4.5850
" />
<path d="M7.1180 4.8770
L7.1170 4.8790
" />
<path d="M7.1200 4.5850
L7.1210 4.5870
" />
<path d="M7.1200 4.8750
L7.1180 4.8770
" />
<path d="M7.1210 4.5870
L7.1230 4.5890
" />
<path d="M7.1210 4.8730
L7.1200 4.8750
" />
<path d="M7.1230 4.5890
L7.1250 4.5900
" />
<path d="M7.1230 4.8710
L7.1210 4.8730
" />
<path d="M7.1240 0.6110
L7.1380 0.6180
" />
</g>
<g style="fill:#000000; fill-opacity:1.0000; stroke:none;">
<circle cx="7.1250" cy="4.5900" r="0.0100" /> 
</g>
<g style="fill:none; 
stroke:#000000; stroke-width:0.0200; stroke-opacity:1; 
stroke-linecap:round; stroke-linejoin:round;">
<path d="M7.1250 4.5900
L7.1260 4.5920
" />
<path d="M7.1250 4.8700
L7.1230 4.8710
" />
</g>
<g style="fill:#000000; fill-opacity:1.0000; stroke:none;">
<circle cx="7.1250" cy="4.8700" r="0.0100" /> 
</g>
<g style="fill:none; 
stroke:#000000; stroke-width:0.0200; stroke-opacity:1; 
stroke-linecap:round; stroke-linejoin:round;">
<path d="M7.1260 4.5920
L7.1280 4.5940
" />
<path d="M7.1260 4.8680
L7.1250 4.8700
" />
<path d="M7.1280 4.5940
L7.1300 4.5950
" />
<path d="M7.1280 4.8660
L7.1260 4.8680
" />
<path d="M7.1300 4.5950
L7.1320 4.5970
" />
<path d="M7.1300 4.8650
L7.1280 4.8660
" />
<path d="M7.1320 4.5970
L7.1340 4.5980
" />
<path d="M7.1320 4.8630
L7.1300 4.8650
" />
<path d="M7.1340 4.5980
L7.1360 4.5990
" />
<path d="M7.1340 4.8620
L7.1320 4.8630
" />
<path d="M7.1360 4.5990
L7.1390 4.6000
" />
<path d="M7.1360 4.8610
L7.1340 4.8620
" />
<path d="M7.1380 0.4030
L7.1620 0.4110
" />
<path d="M7.1380 0.6180
L7.1520 0.6260
" />
<path d="M7.1390 4.6000
L7.1410 4.6010
" />
<path d="M7.1390 4.8600
L7.1360 4.8610
" />
<path d="M7.1410 4.6010
L7.1430 4.6020
" />
<path d="M7.1410 4.8590
L7.1390 4.8600
" />
<path d="M7.1430 4.6020
L7.1450 4.6030
" />
<path d="M7.1430 4.8580
L7.1410 4.8590
" />
<path d="M7.1450 4.6030
L7.1480 4.6030
" />
<path d="M7.1450 4.8570
L7.1430 4.8580
" />
<path d="M7.1480 4.6030
L7.1500 4.6040
" />
<path d="M7.1480 4.8570
L7.1450 4.8570
" />
<path d="M7.1500 4.6040
L7.1530 4.6040
" />
<path d="M7.1500 4.8560
L7.1480 4.8570
" />
<path d="M7.1520 0.6260
L7.1650 0.6350
" />
<path d="M7.1530 4.6040
L7.1550 4.6050
" />
<path d="M7.1530 4.8560
L7.1500 4.8560
" />
<path d="M7.1550 4.6050
L7.1580 4.6050
" />
<path d="M7.1550 4.8550
L7.1530 4.8560
" />
<path d="M7.1580 4.6050
L7.1600 4.6050
" />
<path d="M7.1580 4.8550
L7.1550 4.8550
" />
<path d="M7.1600 4.8550
L7.1580 4.8550
" />
<path d="M7.1600 4.8550
L7.3100 4.8550
" />
<path d="M7.1620 0.4110
L7.1860 0.4200
" />
<path d="M7.1650 0.6350
L7.1780 0.6440
" />
<path d="M7.1780 0.6440
L7.1910 0.6540
" />
<path d="M7.1850 1.1550
L7.1850 0.8550
" />
<path d="M7.1860 0.4200
L7.2090 0.4300
" />
<path d="M7.1910 0.6540
L7.2030 0.6640
" />
<path d="M7.2030 0.6640
L7.2150 0.6750
" />
<path d="M7.2090 0.4300
L7.2320 0.4420
" />
</g>
<g style="fill:#000000; fill-opacity:1.0000; stroke:none;">
<circle cx="7.2150" cy="0.6750" r="0.0100" /> 
</g>
<g style="fill:none; 
stroke:#000000; stroke-width:0.0200; stroke-opacity:1; 
stroke-linecap:round; stroke-linejoin:round;">
<path d="M7.2150 0.6750
L7.2260 0.6870
" />
<path d="M7.2260 0.6870
L7.2360 0.6990
" />
<path d="M7.2320 0.4420
L7.2550 0.4540
" />
<path d="M7.2360 0.6990
L7.2460 0.7120
" />
<path d="M7.2460 0.7120
L7.2550 0.7250
" />
<path d="M7.2550 0.4540
L7.2760 0.4680
" />
<path d="M7.2550 0.7250
L7.2640 0.7380
" />
<path d="M7.2640 0.7380
L7.2720 0.7520
" />
<path d="M7.2720 0.7520
L7.2790 0.7660
" />
<path d="M7.2760 0.4680
L7.2970 0.4830
" />
<path d="M7.2790 0.7660
L7.2850 0.7810
" />
<path d="M7.2850 0.7810
L7.2910 0.7950
" />
<path d="M7.2910 0.7950
L7.2960 0.8100
" />
<path d="M7.2960 0.8100
L7.3000 0.8260
" />
<path d="M7.2970 0.4830
L7.3180 0.4990
" />
<path d="M7.3000 0.8260
L7.3040 0.8410
" />
<path d="M7.3040 0.8410
L7.3060 0.8570
" />
<path d="M7.3060 0.8570
L7.3080 0.8730
" />
<path d="M7.3070 1.1490
L7.3060 1.1550
" />
<path d="M7.3080 0.8730
L7.3100 0.8890
" />
<path d="M7.3080 1.1360
L7.3080 1.1430
" />
<path d="M7.3080 1.1430
L7.3070 1.1490
" />
<path d="M7.3090 1.1240
L7.3090 1.1300
" />
<path d="M7.3090 1.1300
L7.3080 1.1360
" />
<path d="M7.3100 0.8890
L7.3100 0.9050
" />
<path d="M7.3100 1.1050
L7.3100 0.9050
" />
<path d="M7.3100 1.1050
L7.3100 1.1110
" />
<path d="M7.3100 1.1110
L7.3100 1.1180
" />
<path d="M7.3100 1.1180
L7.3090 1.1240
" />
<path d="M7.3100 4.6050
L7.1600 4.6050
" />
<path d="M7.3100 4.8550
L7.3130 4.8550
" />
<path d="M7.3120 4.6050
L7.3100 4.6050
" />
<path d="M7.3130 4.8550
L7.3150 4.8550
" />
<path d="M7.3150 4.6050
L7.3120 4.6050
" />
<path d="M7.3150 4.8550
L7.3180 4.8540
" />
<path d="M7.3170 4.6060
L7.3150 4.6050
" />
<path d="M7.3180 0.4990
L7.3370 0.5160
" />
<path d="M7.3180 4.8540
L7.3200 4.8540
" />
<path d="M7.3200 4.6060
L7.3170 4.6060
" />
<path d="M7.3200 4.8540
L7.3220 4.8530
" />
<path d="M7.3220 4.6070
L7.3200 4.6060
" />
<path d="M7.3220 4.8530
L7.3250 4.8530
" />
<path d="M7.3250 4.6070
L7.3220 4.6070
" />
<path d="M7.3250 4.8530
L7.3270 4.8520
" />
<path d="M7.3270 4.6080
L7.3250 4.6070
" />
<path d="M7.3270 4.8520
L7.3290 4.8510
" />
<path d="M7.3290 4.6090
L7.3270 4.6080
" />
<path d="M7.3290 4.8510
L7.3320 4.8500
" />
<path d="M7.3310 4.6100
L7.3290 4.6090
" />
<path d="M7.3320 4.8500
L7.3340 4.8490
" />
<path d="M7.3340 4.6110
L7.3310 4.6100
" />
<path d="M7.3340 4.8490
L7.3360 4.8480
" />
<path d="M7.3360 4.6120
L7.3340 4.6110
" />
<path d="M7.3360 4.8480
L7.3380 4.8460
" />
<path d="M7.3370 0.5160
L7.3560 0.5340
" />
<path d="M7.3380 4.6130
L7.3360 4.6120
" />
<path d="M7.3380 4.8460
L7.3400 4.8450
" />
<path d="M7.3400 4.6150
L7.3380 4.6130
" />
<path d="M7.3400 4.8450
L7.3420 4.8440
" />
<path d="M7.3420 4.6160
L7.3400 4.6150
" />
<path d="M7.3420 4.8440
L7.3440 4.8420
" />
<path d="M7.3440 4.6180
L7.3420 4.6160
" />
<path d="M7.3440 4.8420
L7.3450 4.8400
" />
<path d="M7.3450 4.6200
L7.3440 4.6180
" />
</g>
<g style="fill:#000000; fill-opacity:1.0000; stroke:none;">
<circle cx="7.3450" cy="4.6200" r="0.0100" /> 
</g>
<g style="fill:none; 
stroke:#000000; stroke-width:0.0200; stroke-opacity:1; 
stroke-linecap:round; stroke-linejoin:round;">
<path d="M7.3450 4.8400
L7.3470 4.8390
" />
<path d="M7.3470 4.6210
L7.3450 4.6200
" />
<path d="M7.3470 4.8390
L7.3490 4.8370
" />
<path d="M7.3490 4.6230
L7.3470 4.6210
" />
<path d="M7.3490 4.8370
L7.3500 4.8350
" />
<path d="M7.3500 4.6250
L7.3490 4.6230
" />
<path d="M7.3500 4.8350
L7.3510 4.8330
" />
<path d="M7.3510 4.8330
L7.3530 4.8310
" />
<path d="M7.3520 4.6270
L7.3500 4.6250
" />
<path d="M7.3530 4.6290
L7.3520 4.6270
" />
<path d="M7.3530 4.8310
L7.3540 4.8290
" />
<path d="M7.3540 4.6310
L7.3530 4.6290
" />
<path d="M7.3540 4.8290
L7.3550 4.8270
" />
<path d="M7.3550 4.6340
L7.3540 4.6310
" />
<path d="M7.3550 4.8270
L7.3560 4.8240
" />
</g>
<g style="fill:#000000; fill-opacity:1.0000; stroke:none;">
<circle cx="7.3560" cy="0.5340" r="0.0100" /> 
</g>
<g style="fill:none; 
stroke:#000000; stroke-width:0.0200; stroke-opacity:1; 
stroke-linecap:round; stroke-linejoin:round;">
<path d="M7.3560 0.5340
L7.3740 0.5530
" />
<path d="M7.3560 4.6360
L7.3550 4.6340
" />
<path d="M7.3560 4.8240
L7.3570 4.8220
" />
<path d="M7.3570 4.6380
L7.3560 4.6360
" />
<path d="M7.3570 4.8220
L7.3580 4.8200
" />
<path d="M7.3580 4.6400
L7.3570 4.6380
" />
<path d="M7.3580 4.6430
L7.3580 4.6400
" />
<path d="M7.3580 4.8170
L7.3590 4.8150
" />
<path d="M7.3580 4.8200
L7.3580 4.8170
" />
<path d="M7.3590 4.6450
L7.3580 4.6430
" />
<path d="M7.3590 4.6480
L7.3590 4.6450
" />
<path d="M7.3590 4.8130
L7.3600 4.8100
" />
<path d="M7.3590 4.8150
L7.3590 4.8130
" />
<path d="M7.3600 4.6500
L7.3590 4.6480
" />
<path d="M7.3600 4.6530
L7.3600 4.6500
" />
<path d="M7.3600 4.6550
L7.3600 4.6530
" />
<path d="M7.3600 4.8050
L7.3600 4.6550
" />
<path d="M7.3600 4.8080
L7.3600 4.8050
" />
<path d="M7.3600 4.8100
L7.3600 4.8080
" />
<path d="M7.3740 0.5530
L7.3910 0.5720
" />
<path d="M7.3850 6.0060
L7.4050 6.0050
" />
<path d="M7.3910 0.5720
L7.4070 0.5930
" />
<path d="M7.3950 6.2550
L7.3850 6.2550
" />
<path d="M7.4050 6.0050
L7.4250 6.0040
" />
<path d="M7.4050 6.2540
L7.3950 6.2550
" />
<path d="M7.4070 0.5930
L7.4220 0.6140
" />
<path d="M7.4150 6.2540
L7.4050 6.2540
" />
<path d="M7.4220 0.6140
L7.4360 0.6350
" />
<path d="M7.4250 6.0040
L7.4440 6.0010
" />
<path d="M7.4250 6.2530
L7.4150 6.2540
" />
<path d="M7.4350 6.2510
L7.4250 6.2530
" />
<path d="M7.4360 0.6350
L7.4480 0.6580
" />
<path d="M7.4440 6.0010
L7.4630 5.9970
" />
<path d="M7.4440 6.2500
L7.4350 6.2510
" />
<path d="M7.4480 0.6580
L7.4600 0.6810
" />
<path d="M7.4540 6.2480
L7.4440 6.2500
" />
<path d="M7.4600 0.6810
L7.4700 0.7040
" />
<path d="M7.4630 5.9970
L7.4800 5.9920
" />
<path d="M7.4630 6.2460
L7.4540 6.2480
" />
<path d="M7.4700 0.7040
L7.4790 0.7280
" />
<path d="M7.4720 6.2440
L7.4630 6.2460
" />
<path d="M7.4790 0.7280
L7.4870 0.7520
" />
<path d="M7.4800 5.9920
L7.4970 5.9870
" />
<path d="M7.4800 6.2420
L7.4720 6.2440
" />
<path d="M7.4870 0.7520
L7.4940 0.7770
" />
<path d="M7.4890 6.2390
L7.4800 6.2420
" />
<path d="M7.4940 0.7770
L7.5000 0.8020
" />
<path d="M7.4970 5.9870
L7.5120 5.9800
" />
<path d="M7.4970 6.2360
L7.4890 6.2390
" />
<path d="M7.5000 0.8020
L7.5040 0.8270
" />
<path d="M7.5040 0.8270
L7.5070 0.8530
" />
<path d="M7.5050 6.2330
L7.4970 6.2360
" />
<path d="M7.5070 0.8530
L7.5090 0.8790
" />
<path d="M7.5080 1.1490
L7.5080 1.1550
" />
<path d="M7.5090 0.8790
L7.5100 0.9050
" />
<path d="M7.5090 1.1300
L7.5090 1.1360
" />
<path d="M7.5090 1.1360
L7.5090 1.1420
" />
<path d="M7.5090 1.1420
L7.5080 1.1490
" />
<path d="M7.5100 0.9050
L7.5100 1.1050
" />
<path d="M7.5100 1.1050
L7.5100 1.1110
" />
<path d="M7.5100 1.1110
L7.5100 1.1170
" />
<path d="M7.5100 1.1170
L7.5100 1.1240
" />
<path d="M7.5100 1.1240
L7.5090 1.1300
" />
<path d="M7.5120 5.9800
L7.5260 5.9730
" />
<path d="M7.5120 6.2300
L7.5050 6.2330
" />
<path d="M7.5190 6.2260
L7.5120 6.2300
" />
<path d="M7.5260 5.9730
L7.5390 5.9650
" />
<path d="M7.5260 6.2220
L7.5190 6.2260
" />
<path d="M7.5330 6.2190
L7.5260 6.2220
" />
<path d="M7.5390 5.9650
L7.5510 5.9570
" />
<path d="M7.5390 6.2140
L7.5330 6.2190
" />
<path d="M7.5450 6.2100
L7.5390 6.2140
" />
<path d="M7.5510 5.9570
L7.5610 5.9480
" />
<path d="M7.5510 6.2060
L7.5450 6.2100
" />
<path d="M7.5560 6.2010
L7.5510 6.2060
" />
<path d="M7.5610 5.9480
L7.5690 5.9380
" />
<path d="M7.5610 6.1970
L7.5560 6.2010
" />
<path d="M7.5650 6.1920
L7.5610 6.1970
" />
<path d="M7.5690 5.9380
L7.5730 5.9330
" />
<path d="M7.5690 6.1870
L7.5650 6.1920
" />
<path d="M7.5730 5.9330
L7.5760 5.9280
" />
<path d="M7.5730 6.1820
L7.5690 6.1870
" />
<path d="M7.5760 5.9280
L7.5790 5.9220
" />
<path d="M7.5760 6.1770
L7.5730 6.1820
" />
<path d="M7.5790 5.9220
L7.5810 5.9170
" />
<path d="M7.5790 6.1710
L7.5760 6.1770
" />
<path d="M7.5810 5.9170
L7.5830 5.9110
" />
<path d="M7.5810 6.1660
L7.5790 6.1710
" />
<path d="M7.5830 5.9110
L7.5840 5.9060
" />
<path d="M7.5830 6.1610
L7.5810 6.1660
" />
<path d="M7.5840 5.9060
L7.5850 5.9000
" />
<path d="M7.5840 6.1550
L7.5830 6.1610
" />
<path d="M7.5850 5.8550
L7.5850 5.8940
" />
<path d="M7.5850 5.8940
L7.5850 6.1440
" />
<path d="M7.5850 5.9000
L7.5850 5.8940
" />
<path d="M7.5850 6.1440
L7.5850 6.1490
" />
<path d="M7.5850 6.1490
L7.5840 6.1550
" />
<path d="M7.8350 5.8590
L7.8350 5.8550
" />
<path d="M7.8350 5.8710
L7.8350 5.8590
" />
<path d="M7.8360 5.8820
L7.8350 5.8710
" />
<path d="M7.8370 5.8940
L7.8360 5.8820
" />
<path d="M7.8390 5.9060
L7.8370 5.8940
" />
<path d="M7.8410 5.9170
L7.8390 5.9060
" />
<path d="M7.8430 5.9280
L7.8410 5.9170
" />
<path d="M7.8460 5.9400
L7.8430 5.9280
" />
<path d="M7.8500 5.9510
L7.8460 5.9400
" />
<path d="M7.8530 5.9610
L7.8500 5.9510
" />
<path d="M7.8580 5.9720
L7.8530 5.9610
" />
<path d="M7.8620 5.9830
L7.8580 5.9720
" />
<path d="M7.8670 5.9930
L7.8620 5.9830
" />
<path d="M7.8730 6.0030
L7.8670 5.9930
" />
<path d="M7.8780 6.0130
L7.8730 6.0030
" />
<path d="M7.8850 6.0220
L7.8780 6.0130
" />
<path d="M7.8910 6.0320
L7.8850 6.0220
" />
<path d="M7.8980 6.0410
L7.8910 6.0320
" />
<path d="M7.9050 6.0500
L7.8980 6.0410
" />
<path d="M7.9130 6.0580
L7.9050 6.0500
" />
<path d="M7.9210 6.0660
L7.9130 6.0580
" />
<path d="M7.9290 6.0740
L7.9210 6.0660
" />
<path d="M7.9370 6.0820
L7.9290 6.0740
" />
<path d="M7.9460 6.0890
L7.9370 6.0820
" />
<path d="M7.9550 6.0960
L7.9460 6.0890
" />
<path d="M7.9650 6.1030
L7.9550 6.0960
" />
<path d="M7.9740 1.1550
L7.5850 1.1550
" />
</g>
<g style="fill:#000000; fill-opacity:1.0000; stroke:none;">
<circle cx="7.9740" cy="1.1550" r="0.0100" /> 
</g>
<g style="fill:none; 
stroke:#000000; stroke-width:0.0200; stroke-opacity:1; 
stroke-linecap:round; stroke-linejoin:round;">
<path d="M7.9740 5.8550
L7.5850 5.8550
" />
</g>
<g style="fill:#000000; fill-opacity:1.0000; stroke:none;">
<circle cx="7.9740" cy="5.8550" r="0.0100" /> 
</g>
<g style="fill:none; 
stroke:#000000; stroke-width:0.0200; stroke-opacity:1; 
stroke-linecap:round; stroke-linejoin:round;">
<path d="M7.9740 6.1090
L7.9650 6.1030
" />
<path d="M7.9840 6.1150
L7.9740 6.1090
" />
<path d="M7.9940 6.1210
L7.9840 6.1150
" />
<path d="M8.0050 6.1260
L7.9940 6.1210
" />
<path d="M8.0160 6.1310
L8.0050 6.1260
" />
<path d="M8.0270 6.1350
L8.0160 6.1310
" />
<path d="M8.0380 6.1390
L8.0270 6.1350
" />
<path d="M8.1350 1.1550
L7.9740 1.1550
" />
<path d="M8.1350 1.1550
L8.1350 5.8550
" />
<path d="M8.1350 2.8130
L8.1550 2.8220
" />
<path d="M8.1350 3.0470
L8.1530 3.0620
" />
<path d="M8.1350 5.8550
L7.9740 5.8550
" />
<path d="M8.1350 5.8550
L8.2950 5.9080
" />
<path d="M8.1530 3.0620
L8.1700 3.0780
" />
<path d="M8.1530 4.3480
L8.1350 4.3630
" />
<path d="M8.1550 2.8220
L8.1750 2.8330
" />
<path d="M8.1700 3.0780
L8.1860 3.0950
" />
<path d="M8.1700 4.3320
L8.1530 4.3480
" />
<path d="M8.1750 2.8330
L8.1940 2.8440
" />
<path d="M8.1750 4.5770
L8.1350 4.5970
" />
<path d="M8.1860 3.0950
L8.2010 3.1130
" />
<path d="M8.1860 4.3150
L8.1700 4.3320
" />
<path d="M8.1940 2.8440
L8.2120 2.8560
" />
<path d="M8.2010 3.1130
L8.2140 3.1310
" />
<path d="M8.2010 4.2970
L8.1860 4.3150
" />
<path d="M8.2010 6.1930
L8.0380 6.1390
" />
<path d="M8.2120 2.8560
L8.2310 2.8680
" />
<path d="M8.2120 4.5540
L8.1750 4.5770
" />
<path d="M8.2140 3.1310
L8.2270 3.1500
" />
<path d="M8.2140 4.2790
L8.2010 4.2970
" />
<path d="M8.2270 3.1500
L8.2390 3.1700
" />
<path d="M8.2270 4.2600
L8.2140 4.2790
" />
<path d="M8.2310 2.8680
L8.2480 2.8810
" />
<path d="M8.2390 3.1700
L8.2490 3.1910
" />
<path d="M8.2390 4.2400
L8.2270 4.2600
" />
<path d="M8.2480 2.8810
L8.2650 2.8950
" />
<path d="M8.2480 4.5290
L8.2120 4.5540
" />
<path d="M8.2490 3.1910
L8.2590 3.2120
" />
<path d="M8.2490 4.2190
L8.2390 4.2400
" />
<path d="M8.2590 3.2120
L8.2670 3.2330
" />
<path d="M8.2590 4.1980
L8.2490 4.2190
" />
<path d="M8.2650 2.8950
L8.2820 2.9090
" />
<path d="M8.2670 3.2330
L8.2740 3.2550
" />
<path d="M8.2670 4.1770
L8.2590 4.1980
" />
<path d="M8.2740 3.2550
L8.2800 3.2770
" />
<path d="M8.2740 4.1550
L8.2670 4.1770
" />
<path d="M8.2800 3.2770
L8.2840 3.3000
" />
<path d="M8.2800 4.1330
L8.2740 4.1550
" />
<path d="M8.2820 2.9090
L8.2980 2.9230
" />
<path d="M8.2820 4.5010
L8.2480 4.5290
" />
<path d="M8.2840 3.3000
L8.2870 3.3230
" />
<path d="M8.2840 4.1100
L8.2800 4.1330
" />
<path d="M8.2870 3.3230
L8.2890 3.3470
" />
<path d="M8.2870 4.0870
L8.2840 4.1100
" />
<path d="M8.2890 3.3470
L8.2900 3.3700
" />
<path d="M8.2890 4.0630
L8.2870 4.0870
" />
<path d="M8.2900 4.0400
L8.2890 4.0630
" />
<path d="M8.2900 4.0400
L8.2900 3.3700
" />
<path d="M8.2950 5.9080
L8.4850 5.9700
" />
<path d="M8.2980 2.9230
L8.3130 2.9390
" />
<path d="M8.3130 2.9390
L8.3280 2.9540
" />
<path d="M8.3130 4.4710
L8.2820 4.5010
" />
<path d="M8.3280 2.9540
L8.3420 2.9700
" />
<path d="M8.3420 2.9700
L8.3560 2.9870
" />
<path d="M8.3420 4.4400
L8.3130 4.4710
" />
<path d="M8.3560 2.9870
L8.3690 3.0040
" />
<path d="M8.3690 3.0040
L8.3820 3.0220
" />
<path d="M8.3690 4.4060
L8.3420 4.4400
" />
<path d="M8.3820 3.0220
L8.3940 3.0400
" />
<path d="M8.3910 6.2550
L8.2010 6.1930
" />
<path d="M8.3910 6.2550
L8.4850 5.9700
" />
<path d="M8.3940 3.0400
L8.4050 3.0580
" />
<path d="M8.3940 4.3700
L8.3690 4.4060
" />
<path d="M8.4050 3.0580
L8.4160 3.0770
" />
<path d="M8.4160 3.0770
L8.4260 3.0960
" />
<path d="M8.4160 4.3330
L8.3940 4.3700
" />
<path d="M8.4260 3.0960
L8.4350 3.1150
" />
<path d="M8.4350 3.1150
L8.4430 3.1350
" />
<path d="M8.4350 4.2950
L8.4160 4.3330
" />
<path d="M8.4430 3.1350
L8.4510 3.1550
" />
<path d="M8.4510 3.1550
L8.4580 3.1760
" />
<path d="M8.4510 4.2550
L8.4350 4.2950
" />
<path d="M8.4580 3.1760
L8.4650 3.1960
" />
<path d="M8.4650 3.1960
L8.4710 3.2170
" />
<path d="M8.4650 4.2140
L8.4510 4.2550
" />
<path d="M8.4710 3.2170
L8.4760 3.2380
" />
<path d="M8.4760 3.2380
L8.4800 3.2600
" />
<path d="M8.4760 4.1720
L8.4650 4.2140
" />
<path d="M8.4800 3.2600
L8.4840 3.2820
" />
<path d="M8.4840 3.2820
L8.4860 3.3030
" />
<path d="M8.4840 4.1280
L8.4760 4.1720
" />
<path d="M8.4860 3.3030
L8.4880 3.3250
" />
<path d="M8.4880 3.3250
L8.4900 3.3480
" />
<path d="M8.4880 4.0850
L8.4840 4.1280
" />
<path d="M8.4900 3.3480
L8.4900 3.3700
" />
<path d="M8.4900 3.3700
L8.4900 4.0400
" />
<path d="M8.4900 4.0400
L8.4880 4.0850
" />
</g> 
</svg>
