<?xml version="1.0" standalone="no"?>
 <!DOCTYPE svg PUBLIC "-//W3C//DTD SVG 1.1//EN" 
 "http://www.w3.org/Graphics/SVG/1.1/DTD/svg11.dtd"> 
<svg
  xmlns:svg="http://www.w3.org/2000/svg"
  xmlns="http://www.w3.org/2000/svg"
  xmlns:xlink="http://www.w3.org/1999/xlink"
  version="1.1"
  width="32.0294mm" height="13.6398mm" viewBox="0.0000 0.0000 32.0294 13.6398">
<title>SVG Image created as outline.svg date 2025/04/04 10:06:10 </title>
  <desc>Image generated by PCBNEW </desc>
<g style="fill:#000000; fill-opacity:1.0000;stroke:#000000; stroke-opacity:1.0000;
stroke-linecap:round; stroke-linejoin:round;"
 transform="translate(0 0) scale(1 1)">
</g>
<g style="fill:none; 
stroke:#000000; stroke-width:0.0200; stroke-opacity:1; 
stroke-linecap:round; stroke-linejoin:round;">
<path d="M0.4250 4.6250
L0.4250 7.9750
" />
<path d="M0.4250 4.6250
L1.6250 4.6250
" />
<path d="M0.4250 7.9750
L0.4250 8.2250
" />
<path d="M0.4250 8.2250
L0.5550 8.2250
" />
<path d="M0.5550 12.1050
L0.5550 8.2250
" />
<path d="M0.5550 13.2250
L0.5550 8.2250
" />
<path d="M1.5550 9.7250
L4.7450 9.7250
" />
<path d="M1.5550 11.8250
L1.5550 9.7250
" />
<path d="M1.5550 11.8250
L3.9400 11.8250
" />
<path d="M1.5550 13.2250
L0.5550 13.2250
" />
<path d="M1.5550 13.2250
L1.5550 9.7250
" />
<path d="M1.5550 13.2250
L4.7450 13.2250
" />
<path d="M1.6250 4.6250
L1.6250 7.9750
" />
<path d="M1.6250 4.6250
L6.7250 4.6250
" />
<path d="M1.6250 7.9750
L0.4250 7.9750
" />
<path d="M2.0500 4.5250
L2.0500 4.6250
" />
<path d="M2.0500 9.7250
L1.5550 9.7250
" />
<path d="M2.0500 9.7250
L2.0500 11.6100
" />
<path d="M2.3000 4.5250
L2.0500 4.5250
" />
<path d="M2.3000 4.5250
L2.3000 4.6250
" />
<path d="M2.3000 9.7250
L2.3000 11.6100
" />
<path d="M2.3000 11.6100
L2.0500 11.6100
" />
<path d="M2.9250 9.7250
L2.3000 9.7250
" />
<path d="M3.9400 11.8250
L3.9400 9.7250
" />
</g>
<g style="fill:#000000; fill-opacity:1.0000; stroke:none;">
<circle cx="3.9400" cy="11.8250" r="0.0100" /> 
</g>
<g style="fill:none; 
stroke:#000000; stroke-width:0.0200; stroke-opacity:1; 
stroke-linecap:round; stroke-linejoin:round;">
<path d="M4.7450 13.2250
L4.7450 9.7250
" />
<path d="M5.4100 8.2250
L5.4100 13.2250
" />
<path d="M5.4100 8.2250
L8.0250 8.2250
" />
<path d="M5.4100 13.2250
L4.7450 13.2250
" />
<path d="M5.7250 0.4250
L5.7250 4.6250
" />
<path d="M5.7250 0.4250
L6.4640 0.4250
" />
<path d="M5.7750 6.4750
L5.7750 7.9750
" />
<path d="M5.7750 7.9750
L1.6250 7.9750
" />
<path d="M6.4640 0.4250
L7.2250 2.4530
" />
<path d="M6.7250 4.6250
L6.7250 6.4750
" />
<path d="M6.7250 4.6250
L25.3250 4.6250
" />
<path d="M6.7250 6.4750
L5.7750 6.4750
" />
<path d="M7.2250 2.4530
L7.9860 0.4250
" />
<path d="M7.9860 0.4250
L6.4640 0.4250
" />
<path d="M7.9860 0.4250
L26.3250 0.4250
" />
<path d="M8.0250 6.8750
L8.0250 8.2250
" />
<path d="M8.3100 8.2250
L8.3100 8.2260
" />
<path d="M8.3100 8.2260
L8.3100 8.2290
" />
<path d="M8.3100 8.2290
L8.3100 8.2330
" />
<path d="M8.3100 8.2330
L8.3100 8.2400
" />
<path d="M8.3100 8.2400
L8.3100 8.2480
" />
<path d="M8.3100 8.2480
L8.3100 8.2580
" />
<path d="M8.3100 8.2580
L8.3100 8.2690
" />
<path d="M8.3100 8.2690
L8.3100 8.2810
" />
<path d="M8.3100 8.2810
L8.3100 8.2950
" />
<path d="M8.3100 8.2950
L8.3100 8.3100
" />
<path d="M8.3100 8.3100
L8.3100 8.3250
" />
<path d="M8.3100 8.3250
L8.3100 8.3420
" />
<path d="M8.3100 8.3420
L8.3100 8.3580
" />
<path d="M8.3100 8.3580
L8.3100 8.3750
" />
<path d="M8.3100 10.0350
L8.3100 8.3750
" />
<path d="M8.3100 10.5350
L8.3100 10.0350
" />
<path d="M8.5400 8.2260
L8.5400 8.2250
" />
<path d="M8.5400 8.2290
L8.5400 8.2260
" />
<path d="M8.5400 8.2330
L8.5400 8.2290
" />
<path d="M8.5400 8.2400
L8.5400 8.2330
" />
<path d="M8.5400 8.2480
L8.5400 8.2400
" />
<path d="M8.5400 8.2580
L8.5400 8.2480
" />
<path d="M8.5400 8.2690
L8.5400 8.2580
" />
<path d="M8.5400 8.2810
L8.5400 8.2690
" />
<path d="M8.5400 8.2950
L8.5400 8.2810
" />
<path d="M8.5400 8.3100
L8.5400 8.2950
" />
<path d="M8.5400 8.3250
L8.5400 8.3100
" />
<path d="M8.5400 8.3420
L8.5400 8.3250
" />
<path d="M8.5400 8.3580
L8.5400 8.3420
" />
<path d="M8.5400 8.3750
L8.3100 8.3750
" />
<path d="M8.5400 8.3750
L8.5400 8.3580
" />
<path d="M8.5400 8.3750
L8.5400 10.0350
" />
<path d="M8.5400 10.0350
L8.3100 10.0350
" />
<path d="M8.5400 10.0350
L8.5400 10.5350
" />
<path d="M8.5400 10.5350
L8.3100 10.5350
" />
<path d="M9.1100 8.2250
L9.1100 8.2260
" />
<path d="M9.1100 8.2260
L9.1100 8.2290
" />
<path d="M9.1100 8.2290
L9.1100 8.2330
" />
<path d="M9.1100 8.2330
L9.1100 8.2400
" />
<path d="M9.1100 8.2400
L9.1100 8.2480
" />
<path d="M9.1100 8.2480
L9.1100 8.2580
" />
<path d="M9.1100 8.2580
L9.1100 8.2690
" />
<path d="M9.1100 8.2690
L9.1100 8.2810
" />
<path d="M9.1100 8.2810
L9.1100 8.2950
" />
<path d="M9.1100 8.2950
L9.1100 8.3100
" />
<path d="M9.1100 8.3100
L9.1100 8.3250
" />
<path d="M9.1100 8.3250
L9.1100 8.3420
" />
<path d="M9.1100 8.3420
L9.1100 8.3580
" />
<path d="M9.1100 8.3580
L9.1100 8.3750
" />
<path d="M9.1100 10.0350
L9.1100 8.3750
" />
<path d="M9.1100 10.5350
L9.1100 10.0350
" />
<path d="M9.3400 8.2260
L9.3400 8.2250
" />
<path d="M9.3400 8.2290
L9.3400 8.2260
" />
<path d="M9.3400 8.2330
L9.3400 8.2290
" />
<path d="M9.3400 8.2400
L9.3400 8.2330
" />
<path d="M9.3400 8.2480
L9.3400 8.2400
" />
<path d="M9.3400 8.2580
L9.3400 8.2480
" />
<path d="M9.3400 8.2690
L9.3400 8.2580
" />
<path d="M9.3400 8.2810
L9.3400 8.2690
" />
<path d="M9.3400 8.2950
L9.3400 8.2810
" />
<path d="M9.3400 8.3100
L9.3400 8.2950
" />
<path d="M9.3400 8.3250
L9.3400 8.3100
" />
<path d="M9.3400 8.3420
L9.3400 8.3250
" />
<path d="M9.3400 8.3580
L9.3400 8.3420
" />
<path d="M9.3400 8.3750
L9.1100 8.3750
" />
<path d="M9.3400 8.3750
L9.3400 8.3580
" />
<path d="M9.3400 8.3750
L9.3400 10.0350
" />
<path d="M9.3400 10.0350
L9.1100 10.0350
" />
<path d="M9.3400 10.0350
L9.3400 10.5350
" />
<path d="M9.3400 10.5350
L9.1100 10.5350
" />
<path d="M9.9100 8.2250
L9.9100 8.2260
" />
<path d="M9.9100 8.2260
L9.9100 8.2290
" />
<path d="M9.9100 8.2290
L9.9100 8.2330
" />
<path d="M9.9100 8.2330
L9.9100 8.2400
" />
<path d="M9.9100 8.2400
L9.9100 8.2480
" />
<path d="M9.9100 8.2480
L9.9100 8.2580
" />
<path d="M9.9100 8.2580
L9.9100 8.2690
" />
<path d="M9.9100 8.2690
L9.9100 8.2810
" />
<path d="M9.9100 8.2810
L9.9100 8.2950
" />
<path d="M9.9100 8.2950
L9.9100 8.3100
" />
<path d="M9.9100 8.3100
L9.9100 8.3250
" />
<path d="M9.9100 8.3250
L9.9100 8.3420
" />
<path d="M9.9100 8.3420
L9.9100 8.3580
" />
<path d="M9.9100 8.3580
L9.9100 8.3750
" />
<path d="M9.9100 10.0350
L9.9100 8.3750
" />
<path d="M9.9100 10.5350
L9.9100 10.0350
" />
<path d="M10.1400 8.2260
L10.1400 8.2250
" />
<path d="M10.1400 8.2290
L10.1400 8.2260
" />
<path d="M10.1400 8.2330
L10.1400 8.2290
" />
<path d="M10.1400 8.2400
L10.1400 8.2330
" />
<path d="M10.1400 8.2480
L10.1400 8.2400
" />
<path d="M10.1400 8.2580
L10.1400 8.2480
" />
<path d="M10.1400 8.2690
L10.1400 8.2580
" />
<path d="M10.1400 8.2810
L10.1400 8.2690
" />
<path d="M10.1400 8.2950
L10.1400 8.2810
" />
<path d="M10.1400 8.3100
L10.1400 8.2950
" />
<path d="M10.1400 8.3250
L10.1400 8.3100
" />
<path d="M10.1400 8.3420
L10.1400 8.3250
" />
<path d="M10.1400 8.3580
L10.1400 8.3420
" />
<path d="M10.1400 8.3750
L9.9100 8.3750
" />
<path d="M10.1400 8.3750
L10.1400 8.3580
" />
<path d="M10.1400 8.3750
L10.1400 10.0350
" />
<path d="M10.1400 10.0350
L9.9100 10.0350
" />
<path d="M10.1400 10.0350
L10.1400 10.5350
" />
<path d="M10.1400 10.5350
L9.9100 10.5350
" />
<path d="M10.7100 8.2250
L10.7100 8.2260
" />
<path d="M10.7100 8.2260
L10.7100 8.2290
" />
<path d="M10.7100 8.2290
L10.7100 8.2330
" />
<path d="M10.7100 8.2330
L10.7100 8.2400
" />
<path d="M10.7100 8.2400
L10.7100 8.2480
" />
<path d="M10.7100 8.2480
L10.7100 8.2580
" />
<path d="M10.7100 8.2580
L10.7100 8.2690
" />
<path d="M10.7100 8.2690
L10.7100 8.2810
" />
<path d="M10.7100 8.2810
L10.7100 8.2950
" />
<path d="M10.7100 8.2950
L10.7100 8.3100
" />
<path d="M10.7100 8.3100
L10.7100 8.3250
" />
<path d="M10.7100 8.3250
L10.7100 8.3420
" />
<path d="M10.7100 8.3420
L10.7100 8.3580
" />
<path d="M10.7100 8.3580
L10.7100 8.3750
" />
<path d="M10.7100 10.0350
L10.7100 8.3750
" />
<path d="M10.7100 10.5350
L10.7100 10.0350
" />
<path d="M10.9400 8.2260
L10.9400 8.2250
" />
<path d="M10.9400 8.2290
L10.9400 8.2260
" />
<path d="M10.9400 8.2330
L10.9400 8.2290
" />
<path d="M10.9400 8.2400
L10.9400 8.2330
" />
<path d="M10.9400 8.2480
L10.9400 8.2400
" />
<path d="M10.9400 8.2580
L10.9400 8.2480
" />
<path d="M10.9400 8.2690
L10.9400 8.2580
" />
<path d="M10.9400 8.2810
L10.9400 8.2690
" />
<path d="M10.9400 8.2950
L10.9400 8.2810
" />
<path d="M10.9400 8.3100
L10.9400 8.2950
" />
<path d="M10.9400 8.3250
L10.9400 8.3100
" />
<path d="M10.9400 8.3420
L10.9400 8.3250
" />
<path d="M10.9400 8.3580
L10.9400 8.3420
" />
<path d="M10.9400 8.3750
L10.7100 8.3750
" />
<path d="M10.9400 8.3750
L10.9400 8.3580
" />
<path d="M10.9400 8.3750
L10.9400 10.0350
" />
<path d="M10.9400 10.0350
L10.7100 10.0350
" />
<path d="M10.9400 10.0350
L10.9400 10.5350
" />
<path d="M10.9400 10.5350
L10.7100 10.5350
" />
<path d="M11.5100 8.2250
L11.5100 8.2260
" />
<path d="M11.5100 8.2260
L11.5100 8.2290
" />
<path d="M11.5100 8.2290
L11.5100 8.2330
" />
<path d="M11.5100 8.2330
L11.5100 8.2400
" />
<path d="M11.5100 8.2400
L11.5100 8.2480
" />
<path d="M11.5100 8.2480
L11.5100 8.2580
" />
<path d="M11.5100 8.2580
L11.5100 8.2690
" />
<path d="M11.5100 8.2690
L11.5100 8.2810
" />
<path d="M11.5100 8.2810
L11.5100 8.2950
" />
<path d="M11.5100 8.2950
L11.5100 8.3100
" />
<path d="M11.5100 8.3100
L11.5100 8.3250
" />
<path d="M11.5100 8.3250
L11.5100 8.3420
" />
<path d="M11.5100 8.3420
L11.5100 8.3580
" />
<path d="M11.5100 8.3580
L11.5100 8.3750
" />
<path d="M11.5100 10.0350
L11.5100 8.3750
" />
<path d="M11.5100 10.5350
L11.5100 10.0350
" />
<path d="M11.7400 8.2260
L11.7400 8.2250
" />
<path d="M11.7400 8.2290
L11.7400 8.2260
" />
<path d="M11.7400 8.2330
L11.7400 8.2290
" />
<path d="M11.7400 8.2400
L11.7400 8.2330
" />
<path d="M11.7400 8.2480
L11.7400 8.2400
" />
<path d="M11.7400 8.2580
L11.7400 8.2480
" />
<path d="M11.7400 8.2690
L11.7400 8.2580
" />
<path d="M11.7400 8.2810
L11.7400 8.2690
" />
<path d="M11.7400 8.2950
L11.7400 8.2810
" />
<path d="M11.7400 8.3100
L11.7400 8.2950
" />
<path d="M11.7400 8.3250
L11.7400 8.3100
" />
<path d="M11.7400 8.3420
L11.7400 8.3250
" />
<path d="M11.7400 8.3580
L11.7400 8.3420
" />
<path d="M11.7400 8.3750
L11.5100 8.3750
" />
<path d="M11.7400 8.3750
L11.7400 8.3580
" />
<path d="M11.7400 8.3750
L11.7400 10.0350
" />
<path d="M11.7400 10.0350
L11.5100 10.0350
" />
<path d="M11.7400 10.0350
L11.7400 10.5350
" />
<path d="M11.7400 10.5350
L11.5100 10.5350
" />
<path d="M12.3100 8.2250
L12.3100 8.2260
" />
<path d="M12.3100 8.2260
L12.3100 8.2290
" />
<path d="M12.3100 8.2290
L12.3100 8.2330
" />
<path d="M12.3100 8.2330
L12.3100 8.2400
" />
<path d="M12.3100 8.2400
L12.3100 8.2480
" />
<path d="M12.3100 8.2480
L12.3100 8.2580
" />
<path d="M12.3100 8.2580
L12.3100 8.2690
" />
<path d="M12.3100 8.2690
L12.3100 8.2810
" />
<path d="M12.3100 8.2810
L12.3100 8.2950
" />
<path d="M12.3100 8.2950
L12.3100 8.3100
" />
<path d="M12.3100 8.3100
L12.3100 8.3250
" />
<path d="M12.3100 8.3250
L12.3100 8.3420
" />
<path d="M12.3100 8.3420
L12.3100 8.3580
" />
<path d="M12.3100 8.3580
L12.3100 8.3750
" />
<path d="M12.3100 10.0350
L12.3100 8.3750
" />
<path d="M12.3100 10.5350
L12.3100 10.0350
" />
<path d="M12.5400 8.2260
L12.5400 8.2250
" />
<path d="M12.5400 8.2290
L12.5400 8.2260
" />
<path d="M12.5400 8.2330
L12.5400 8.2290
" />
<path d="M12.5400 8.2400
L12.5400 8.2330
" />
<path d="M12.5400 8.2480
L12.5400 8.2400
" />
<path d="M12.5400 8.2580
L12.5400 8.2480
" />
<path d="M12.5400 8.2690
L12.5400 8.2580
" />
<path d="M12.5400 8.2810
L12.5400 8.2690
" />
<path d="M12.5400 8.2950
L12.5400 8.2810
" />
<path d="M12.5400 8.3100
L12.5400 8.2950
" />
<path d="M12.5400 8.3250
L12.5400 8.3100
" />
<path d="M12.5400 8.3420
L12.5400 8.3250
" />
<path d="M12.5400 8.3580
L12.5400 8.3420
" />
<path d="M12.5400 8.3750
L12.3100 8.3750
" />
<path d="M12.5400 8.3750
L12.5400 8.3580
" />
<path d="M12.5400 8.3750
L12.5400 10.0350
" />
<path d="M12.5400 10.0350
L12.3100 10.0350
" />
<path d="M12.5400 10.0350
L12.5400 10.5350
" />
<path d="M12.5400 10.5350
L12.3100 10.5350
" />
<path d="M13.1100 8.2250
L13.1100 8.2260
" />
<path d="M13.1100 8.2260
L13.1100 8.2290
" />
<path d="M13.1100 8.2290
L13.1100 8.2330
" />
<path d="M13.1100 8.2330
L13.1100 8.2400
" />
<path d="M13.1100 8.2400
L13.1100 8.2480
" />
<path d="M13.1100 8.2480
L13.1100 8.2580
" />
<path d="M13.1100 8.2580
L13.1100 8.2690
" />
<path d="M13.1100 8.2690
L13.1100 8.2810
" />
<path d="M13.1100 8.2810
L13.1100 8.2950
" />
<path d="M13.1100 8.2950
L13.1100 8.3100
" />
<path d="M13.1100 8.3100
L13.1100 8.3250
" />
<path d="M13.1100 8.3250
L13.1100 8.3420
" />
<path d="M13.1100 8.3420
L13.1100 8.3580
" />
<path d="M13.1100 8.3580
L13.1100 8.3750
" />
<path d="M13.1100 10.0350
L13.1100 8.3750
" />
<path d="M13.1100 10.5350
L13.1100 10.0350
" />
<path d="M13.3400 8.2260
L13.3400 8.2250
" />
<path d="M13.3400 8.2290
L13.3400 8.2260
" />
<path d="M13.3400 8.2330
L13.3400 8.2290
" />
<path d="M13.3400 8.2400
L13.3400 8.2330
" />
<path d="M13.3400 8.2480
L13.3400 8.2400
" />
<path d="M13.3400 8.2580
L13.3400 8.2480
" />
<path d="M13.3400 8.2690
L13.3400 8.2580
" />
<path d="M13.3400 8.2810
L13.3400 8.2690
" />
<path d="M13.3400 8.2950
L13.3400 8.2810
" />
<path d="M13.3400 8.3100
L13.3400 8.2950
" />
<path d="M13.3400 8.3250
L13.3400 8.3100
" />
<path d="M13.3400 8.3420
L13.3400 8.3250
" />
<path d="M13.3400 8.3580
L13.3400 8.3420
" />
<path d="M13.3400 8.3750
L13.1100 8.3750
" />
<path d="M13.3400 8.3750
L13.3400 8.3580
" />
<path d="M13.3400 8.3750
L13.3400 10.0350
" />
<path d="M13.3400 10.0350
L13.1100 10.0350
" />
<path d="M13.3400 10.0350
L13.3400 10.5350
" />
<path d="M13.3400 10.5350
L13.1100 10.5350
" />
<path d="M13.9100 8.2250
L13.9100 8.2260
" />
<path d="M13.9100 8.2260
L13.9100 8.2290
" />
<path d="M13.9100 8.2290
L13.9100 8.2330
" />
<path d="M13.9100 8.2330
L13.9100 8.2400
" />
<path d="M13.9100 8.2400
L13.9100 8.2480
" />
<path d="M13.9100 8.2480
L13.9100 8.2580
" />
<path d="M13.9100 8.2580
L13.9100 8.2690
" />
<path d="M13.9100 8.2690
L13.9100 8.2810
" />
<path d="M13.9100 8.2810
L13.9100 8.2950
" />
<path d="M13.9100 8.2950
L13.9100 8.3100
" />
<path d="M13.9100 8.3100
L13.9100 8.3250
" />
<path d="M13.9100 8.3250
L13.9100 8.3420
" />
<path d="M13.9100 8.3420
L13.9100 8.3580
" />
<path d="M13.9100 8.3580
L13.9100 8.3750
" />
<path d="M13.9100 10.0350
L13.9100 8.3750
" />
<path d="M13.9100 10.5350
L13.9100 10.0350
" />
<path d="M14.1400 8.2260
L14.1400 8.2250
" />
<path d="M14.1400 8.2290
L14.1400 8.2260
" />
<path d="M14.1400 8.2330
L14.1400 8.2290
" />
<path d="M14.1400 8.2400
L14.1400 8.2330
" />
<path d="M14.1400 8.2480
L14.1400 8.2400
" />
<path d="M14.1400 8.2580
L14.1400 8.2480
" />
<path d="M14.1400 8.2690
L14.1400 8.2580
" />
<path d="M14.1400 8.2810
L14.1400 8.2690
" />
<path d="M14.1400 8.2950
L14.1400 8.2810
" />
<path d="M14.1400 8.3100
L14.1400 8.2950
" />
<path d="M14.1400 8.3250
L14.1400 8.3100
" />
<path d="M14.1400 8.3420
L14.1400 8.3250
" />
<path d="M14.1400 8.3580
L14.1400 8.3420
" />
<path d="M14.1400 8.3750
L13.9100 8.3750
" />
<path d="M14.1400 8.3750
L14.1400 8.3580
" />
<path d="M14.1400 8.3750
L14.1400 10.0350
" />
<path d="M14.1400 10.0350
L13.9100 10.0350
" />
<path d="M14.1400 10.0350
L14.1400 10.5350
" />
<path d="M14.1400 10.5350
L13.9100 10.5350
" />
<path d="M14.7100 8.2250
L14.7100 8.2260
" />
<path d="M14.7100 8.2260
L14.7100 8.2290
" />
<path d="M14.7100 8.2290
L14.7100 8.2330
" />
<path d="M14.7100 8.2330
L14.7100 8.2400
" />
<path d="M14.7100 8.2400
L14.7100 8.2480
" />
<path d="M14.7100 8.2480
L14.7100 8.2580
" />
<path d="M14.7100 8.2580
L14.7100 8.2690
" />
<path d="M14.7100 8.2690
L14.7100 8.2810
" />
<path d="M14.7100 8.2810
L14.7100 8.2950
" />
<path d="M14.7100 8.2950
L14.7100 8.3100
" />
<path d="M14.7100 8.3100
L14.7100 8.3250
" />
<path d="M14.7100 8.3250
L14.7100 8.3420
" />
<path d="M14.7100 8.3420
L14.7100 8.3580
" />
<path d="M14.7100 8.3580
L14.7100 8.3750
" />
<path d="M14.7100 10.0350
L14.7100 8.3750
" />
<path d="M14.7100 10.5350
L14.7100 10.0350
" />
<path d="M14.9400 8.2260
L14.9400 8.2250
" />
<path d="M14.9400 8.2290
L14.9400 8.2260
" />
<path d="M14.9400 8.2330
L14.9400 8.2290
" />
<path d="M14.9400 8.2400
L14.9400 8.2330
" />
<path d="M14.9400 8.2480
L14.9400 8.2400
" />
<path d="M14.9400 8.2580
L14.9400 8.2480
" />
<path d="M14.9400 8.2690
L14.9400 8.2580
" />
<path d="M14.9400 8.2810
L14.9400 8.2690
" />
<path d="M14.9400 8.2950
L14.9400 8.2810
" />
<path d="M14.9400 8.3100
L14.9400 8.2950
" />
<path d="M14.9400 8.3250
L14.9400 8.3100
" />
<path d="M14.9400 8.3420
L14.9400 8.3250
" />
<path d="M14.9400 8.3580
L14.9400 8.3420
" />
<path d="M14.9400 8.3750
L14.7100 8.3750
" />
<path d="M14.9400 8.3750
L14.9400 8.3580
" />
<path d="M14.9400 8.3750
L14.9400 10.0350
" />
<path d="M14.9400 10.0350
L14.7100 10.0350
" />
<path d="M14.9400 10.0350
L14.9400 10.5350
" />
<path d="M14.9400 10.5350
L14.7100 10.5350
" />
<path d="M15.5100 8.2250
L15.5100 8.2260
" />
<path d="M15.5100 8.2260
L15.5100 8.2290
" />
<path d="M15.5100 8.2290
L15.5100 8.2330
" />
<path d="M15.5100 8.2330
L15.5100 8.2400
" />
<path d="M15.5100 8.2400
L15.5100 8.2480
" />
<path d="M15.5100 8.2480
L15.5100 8.2580
" />
<path d="M15.5100 8.2580
L15.5100 8.2690
" />
<path d="M15.5100 8.2690
L15.5100 8.2810
" />
<path d="M15.5100 8.2810
L15.5100 8.2950
" />
<path d="M15.5100 8.2950
L15.5100 8.3100
" />
<path d="M15.5100 8.3100
L15.5100 8.3250
" />
<path d="M15.5100 8.3250
L15.5100 8.3420
" />
<path d="M15.5100 8.3420
L15.5100 8.3580
" />
<path d="M15.5100 8.3580
L15.5100 8.3750
" />
<path d="M15.5100 10.0350
L15.5100 8.3750
" />
<path d="M15.5100 10.5350
L15.5100 10.0350
" />
<path d="M15.7400 8.2260
L15.7400 8.2250
" />
<path d="M15.7400 8.2290
L15.7400 8.2260
" />
<path d="M15.7400 8.2330
L15.7400 8.2290
" />
<path d="M15.7400 8.2400
L15.7400 8.2330
" />
<path d="M15.7400 8.2480
L15.7400 8.2400
" />
<path d="M15.7400 8.2580
L15.7400 8.2480
" />
<path d="M15.7400 8.2690
L15.7400 8.2580
" />
<path d="M15.7400 8.2810
L15.7400 8.2690
" />
<path d="M15.7400 8.2950
L15.7400 8.2810
" />
<path d="M15.7400 8.3100
L15.7400 8.2950
" />
<path d="M15.7400 8.3250
L15.7400 8.3100
" />
<path d="M15.7400 8.3420
L15.7400 8.3250
" />
<path d="M15.7400 8.3580
L15.7400 8.3420
" />
<path d="M15.7400 8.3750
L15.5100 8.3750
" />
<path d="M15.7400 8.3750
L15.7400 8.3580
" />
<path d="M15.7400 8.3750
L15.7400 10.0350
" />
<path d="M15.7400 10.0350
L15.5100 10.0350
" />
<path d="M15.7400 10.0350
L15.7400 10.5350
" />
<path d="M15.7400 10.5350
L15.5100 10.5350
" />
<path d="M16.3100 8.2250
L16.3100 8.2260
" />
<path d="M16.3100 8.2260
L16.3100 8.2290
" />
<path d="M16.3100 8.2290
L16.3100 8.2330
" />
<path d="M16.3100 8.2330
L16.3100 8.2400
" />
<path d="M16.3100 8.2400
L16.3100 8.2480
" />
<path d="M16.3100 8.2480
L16.3100 8.2580
" />
<path d="M16.3100 8.2580
L16.3100 8.2690
" />
<path d="M16.3100 8.2690
L16.3100 8.2810
" />
<path d="M16.3100 8.2810
L16.3100 8.2950
" />
<path d="M16.3100 8.2950
L16.3100 8.3100
" />
<path d="M16.3100 8.3100
L16.3100 8.3250
" />
<path d="M16.3100 8.3250
L16.3100 8.3420
" />
<path d="M16.3100 8.3420
L16.3100 8.3580
" />
<path d="M16.3100 8.3580
L16.3100 8.3750
" />
<path d="M16.3100 10.0350
L16.3100 8.3750
" />
<path d="M16.3100 10.5350
L16.3100 10.0350
" />
<path d="M16.5400 8.2260
L16.5400 8.2250
" />
<path d="M16.5400 8.2290
L16.5400 8.2260
" />
<path d="M16.5400 8.2330
L16.5400 8.2290
" />
<path d="M16.5400 8.2400
L16.5400 8.2330
" />
<path d="M16.5400 8.2480
L16.5400 8.2400
" />
<path d="M16.5400 8.2580
L16.5400 8.2480
" />
<path d="M16.5400 8.2690
L16.5400 8.2580
" />
<path d="M16.5400 8.2810
L16.5400 8.2690
" />
<path d="M16.5400 8.2950
L16.5400 8.2810
" />
<path d="M16.5400 8.3100
L16.5400 8.2950
" />
<path d="M16.5400 8.3250
L16.5400 8.3100
" />
<path d="M16.5400 8.3420
L16.5400 8.3250
" />
<path d="M16.5400 8.3580
L16.5400 8.3420
" />
<path d="M16.5400 8.3750
L16.3100 8.3750
" />
<path d="M16.5400 8.3750
L16.5400 8.3580
" />
<path d="M16.5400 8.3750
L16.5400 10.0350
" />
<path d="M16.5400 10.0350
L16.3100 10.0350
" />
<path d="M16.5400 10.0350
L16.5400 10.5350
" />
<path d="M16.5400 10.5350
L16.3100 10.5350
" />
<path d="M17.1100 8.2250
L17.1100 8.2260
" />
<path d="M17.1100 8.2260
L17.1100 8.2290
" />
<path d="M17.1100 8.2290
L17.1100 8.2330
" />
<path d="M17.1100 8.2330
L17.1100 8.2400
" />
<path d="M17.1100 8.2400
L17.1100 8.2480
" />
<path d="M17.1100 8.2480
L17.1100 8.2580
" />
<path d="M17.1100 8.2580
L17.1100 8.2690
" />
<path d="M17.1100 8.2690
L17.1100 8.2810
" />
<path d="M17.1100 8.2810
L17.1100 8.2950
" />
<path d="M17.1100 8.2950
L17.1100 8.3100
" />
<path d="M17.1100 8.3100
L17.1100 8.3250
" />
<path d="M17.1100 8.3250
L17.1100 8.3420
" />
<path d="M17.1100 8.3420
L17.1100 8.3580
" />
<path d="M17.1100 8.3580
L17.1100 8.3750
" />
<path d="M17.1100 10.0350
L17.1100 8.3750
" />
<path d="M17.1100 10.5350
L17.1100 10.0350
" />
<path d="M17.3400 8.2260
L17.3400 8.2250
" />
<path d="M17.3400 8.2290
L17.3400 8.2260
" />
<path d="M17.3400 8.2330
L17.3400 8.2290
" />
<path d="M17.3400 8.2400
L17.3400 8.2330
" />
<path d="M17.3400 8.2480
L17.3400 8.2400
" />
<path d="M17.3400 8.2580
L17.3400 8.2480
" />
<path d="M17.3400 8.2690
L17.3400 8.2580
" />
<path d="M17.3400 8.2810
L17.3400 8.2690
" />
<path d="M17.3400 8.2950
L17.3400 8.2810
" />
<path d="M17.3400 8.3100
L17.3400 8.2950
" />
<path d="M17.3400 8.3250
L17.3400 8.3100
" />
<path d="M17.3400 8.3420
L17.3400 8.3250
" />
<path d="M17.3400 8.3580
L17.3400 8.3420
" />
<path d="M17.3400 8.3750
L17.1100 8.3750
" />
<path d="M17.3400 8.3750
L17.3400 8.3580
" />
<path d="M17.3400 8.3750
L17.3400 10.0350
" />
<path d="M17.3400 10.0350
L17.1100 10.0350
" />
<path d="M17.3400 10.0350
L17.3400 10.5350
" />
<path d="M17.3400 10.5350
L17.1100 10.5350
" />
<path d="M17.9100 8.2250
L17.9100 8.2260
" />
<path d="M17.9100 8.2260
L17.9100 8.2290
" />
<path d="M17.9100 8.2290
L17.9100 8.2330
" />
<path d="M17.9100 8.2330
L17.9100 8.2400
" />
<path d="M17.9100 8.2400
L17.9100 8.2480
" />
<path d="M17.9100 8.2480
L17.9100 8.2580
" />
<path d="M17.9100 8.2580
L17.9100 8.2690
" />
<path d="M17.9100 8.2690
L17.9100 8.2810
" />
<path d="M17.9100 8.2810
L17.9100 8.2950
" />
<path d="M17.9100 8.2950
L17.9100 8.3100
" />
<path d="M17.9100 8.3100
L17.9100 8.3250
" />
<path d="M17.9100 8.3250
L17.9100 8.3420
" />
<path d="M17.9100 8.3420
L17.9100 8.3580
" />
<path d="M17.9100 8.3580
L17.9100 8.3750
" />
<path d="M17.9100 10.0350
L17.9100 8.3750
" />
<path d="M17.9100 10.5350
L17.9100 10.0350
" />
<path d="M18.1400 8.2260
L18.1400 8.2250
" />
<path d="M18.1400 8.2290
L18.1400 8.2260
" />
<path d="M18.1400 8.2330
L18.1400 8.2290
" />
<path d="M18.1400 8.2400
L18.1400 8.2330
" />
<path d="M18.1400 8.2480
L18.1400 8.2400
" />
<path d="M18.1400 8.2580
L18.1400 8.2480
" />
<path d="M18.1400 8.2690
L18.1400 8.2580
" />
<path d="M18.1400 8.2810
L18.1400 8.2690
" />
<path d="M18.1400 8.2950
L18.1400 8.2810
" />
<path d="M18.1400 8.3100
L18.1400 8.2950
" />
<path d="M18.1400 8.3250
L18.1400 8.3100
" />
<path d="M18.1400 8.3420
L18.1400 8.3250
" />
<path d="M18.1400 8.3580
L18.1400 8.3420
" />
<path d="M18.1400 8.3750
L17.9100 8.3750
" />
<path d="M18.1400 8.3750
L18.1400 8.3580
" />
<path d="M18.1400 8.3750
L18.1400 10.0350
" />
<path d="M18.1400 10.0350
L17.9100 10.0350
" />
<path d="M18.1400 10.0350
L18.1400 10.5350
" />
<path d="M18.1400 10.5350
L17.9100 10.5350
" />
<path d="M18.7100 8.2250
L18.7100 8.2260
" />
<path d="M18.7100 8.2260
L18.7100 8.2290
" />
<path d="M18.7100 8.2290
L18.7100 8.2330
" />
<path d="M18.7100 8.2330
L18.7100 8.2400
" />
<path d="M18.7100 8.2400
L18.7100 8.2480
" />
<path d="M18.7100 8.2480
L18.7100 8.2580
" />
<path d="M18.7100 8.2580
L18.7100 8.2690
" />
<path d="M18.7100 8.2690
L18.7100 8.2810
" />
<path d="M18.7100 8.2810
L18.7100 8.2950
" />
<path d="M18.7100 8.2950
L18.7100 8.3100
" />
<path d="M18.7100 8.3100
L18.7100 8.3250
" />
<path d="M18.7100 8.3250
L18.7100 8.3420
" />
<path d="M18.7100 8.3420
L18.7100 8.3580
" />
<path d="M18.7100 8.3580
L18.7100 8.3750
" />
<path d="M18.7100 10.0350
L18.7100 8.3750
" />
<path d="M18.7100 10.5350
L18.7100 10.0350
" />
<path d="M18.9400 8.2260
L18.9400 8.2250
" />
<path d="M18.9400 8.2290
L18.9400 8.2260
" />
<path d="M18.9400 8.2330
L18.9400 8.2290
" />
<path d="M18.9400 8.2400
L18.9400 8.2330
" />
<path d="M18.9400 8.2480
L18.9400 8.2400
" />
<path d="M18.9400 8.2580
L18.9400 8.2480
" />
<path d="M18.9400 8.2690
L18.9400 8.2580
" />
<path d="M18.9400 8.2810
L18.9400 8.2690
" />
<path d="M18.9400 8.2950
L18.9400 8.2810
" />
<path d="M18.9400 8.3100
L18.9400 8.2950
" />
<path d="M18.9400 8.3250
L18.9400 8.3100
" />
<path d="M18.9400 8.3420
L18.9400 8.3250
" />
<path d="M18.9400 8.3580
L18.9400 8.3420
" />
<path d="M18.9400 8.3750
L18.7100 8.3750
" />
<path d="M18.9400 8.3750
L18.9400 8.3580
" />
<path d="M18.9400 8.3750
L18.9400 10.0350
" />
<path d="M18.9400 10.0350
L18.7100 10.0350
" />
<path d="M18.9400 10.0350
L18.9400 10.5350
" />
<path d="M18.9400 10.5350
L18.7100 10.5350
" />
<path d="M19.5100 8.2250
L19.5100 8.2260
" />
<path d="M19.5100 8.2260
L19.5100 8.2290
" />
<path d="M19.5100 8.2290
L19.5100 8.2330
" />
<path d="M19.5100 8.2330
L19.5100 8.2400
" />
<path d="M19.5100 8.2400
L19.5100 8.2480
" />
<path d="M19.5100 8.2480
L19.5100 8.2580
" />
<path d="M19.5100 8.2580
L19.5100 8.2690
" />
<path d="M19.5100 8.2690
L19.5100 8.2810
" />
<path d="M19.5100 8.2810
L19.5100 8.2950
" />
<path d="M19.5100 8.2950
L19.5100 8.3100
" />
<path d="M19.5100 8.3100
L19.5100 8.3250
" />
<path d="M19.5100 8.3250
L19.5100 8.3420
" />
<path d="M19.5100 8.3420
L19.5100 8.3580
" />
<path d="M19.5100 8.3580
L19.5100 8.3750
" />
<path d="M19.5100 10.0350
L19.5100 8.3750
" />
<path d="M19.5100 10.5350
L19.5100 10.0350
" />
<path d="M19.7400 8.2260
L19.7400 8.2250
" />
<path d="M19.7400 8.2290
L19.7400 8.2260
" />
<path d="M19.7400 8.2330
L19.7400 8.2290
" />
<path d="M19.7400 8.2400
L19.7400 8.2330
" />
<path d="M19.7400 8.2480
L19.7400 8.2400
" />
<path d="M19.7400 8.2580
L19.7400 8.2480
" />
<path d="M19.7400 8.2690
L19.7400 8.2580
" />
<path d="M19.7400 8.2810
L19.7400 8.2690
" />
<path d="M19.7400 8.2950
L19.7400 8.2810
" />
<path d="M19.7400 8.3100
L19.7400 8.2950
" />
<path d="M19.7400 8.3250
L19.7400 8.3100
" />
<path d="M19.7400 8.3420
L19.7400 8.3250
" />
<path d="M19.7400 8.3580
L19.7400 8.3420
" />
<path d="M19.7400 8.3750
L19.5100 8.3750
" />
<path d="M19.7400 8.3750
L19.7400 8.3580
" />
<path d="M19.7400 8.3750
L19.7400 10.0350
" />
<path d="M19.7400 10.0350
L19.5100 10.0350
" />
<path d="M19.7400 10.0350
L19.7400 10.5350
" />
<path d="M19.7400 10.5350
L19.5100 10.5350
" />
<path d="M20.3100 8.2250
L20.3100 8.2260
" />
<path d="M20.3100 8.2260
L20.3100 8.2290
" />
<path d="M20.3100 8.2290
L20.3100 8.2330
" />
<path d="M20.3100 8.2330
L20.3100 8.2400
" />
<path d="M20.3100 8.2400
L20.3100 8.2480
" />
<path d="M20.3100 8.2480
L20.3100 8.2580
" />
<path d="M20.3100 8.2580
L20.3100 8.2690
" />
<path d="M20.3100 8.2690
L20.3100 8.2810
" />
<path d="M20.3100 8.2810
L20.3100 8.2950
" />
<path d="M20.3100 8.2950
L20.3100 8.3100
" />
<path d="M20.3100 8.3100
L20.3100 8.3250
" />
<path d="M20.3100 8.3250
L20.3100 8.3420
" />
<path d="M20.3100 8.3420
L20.3100 8.3580
" />
<path d="M20.3100 8.3580
L20.3100 8.3750
" />
<path d="M20.3100 10.0350
L20.3100 8.3750
" />
<path d="M20.3100 10.5350
L20.3100 10.0350
" />
<path d="M20.5400 8.2260
L20.5400 8.2250
" />
<path d="M20.5400 8.2290
L20.5400 8.2260
" />
<path d="M20.5400 8.2330
L20.5400 8.2290
" />
<path d="M20.5400 8.2400
L20.5400 8.2330
" />
<path d="M20.5400 8.2480
L20.5400 8.2400
" />
<path d="M20.5400 8.2580
L20.5400 8.2480
" />
<path d="M20.5400 8.2690
L20.5400 8.2580
" />
<path d="M20.5400 8.2810
L20.5400 8.2690
" />
<path d="M20.5400 8.2950
L20.5400 8.2810
" />
<path d="M20.5400 8.3100
L20.5400 8.2950
" />
<path d="M20.5400 8.3250
L20.5400 8.3100
" />
<path d="M20.5400 8.3420
L20.5400 8.3250
" />
<path d="M20.5400 8.3580
L20.5400 8.3420
" />
<path d="M20.5400 8.3750
L20.3100 8.3750
" />
<path d="M20.5400 8.3750
L20.5400 8.3580
" />
<path d="M20.5400 8.3750
L20.5400 10.0350
" />
<path d="M20.5400 10.0350
L20.3100 10.0350
" />
<path d="M20.5400 10.0350
L20.5400 10.5350
" />
<path d="M20.5400 10.5350
L20.3100 10.5350
" />
<path d="M21.1100 8.2250
L21.1100 8.2260
" />
<path d="M21.1100 8.2260
L21.1100 8.2290
" />
<path d="M21.1100 8.2290
L21.1100 8.2330
" />
<path d="M21.1100 8.2330
L21.1100 8.2400
" />
<path d="M21.1100 8.2400
L21.1100 8.2480
" />
<path d="M21.1100 8.2480
L21.1100 8.2580
" />
<path d="M21.1100 8.2580
L21.1100 8.2690
" />
<path d="M21.1100 8.2690
L21.1100 8.2810
" />
<path d="M21.1100 8.2810
L21.1100 8.2950
" />
<path d="M21.1100 8.2950
L21.1100 8.3100
" />
<path d="M21.1100 8.3100
L21.1100 8.3250
" />
<path d="M21.1100 8.3250
L21.1100 8.3420
" />
<path d="M21.1100 8.3420
L21.1100 8.3580
" />
<path d="M21.1100 8.3580
L21.1100 8.3750
" />
<path d="M21.1100 10.0350
L21.1100 8.3750
" />
<path d="M21.1100 10.5350
L21.1100 10.0350
" />
<path d="M21.3400 8.2260
L21.3400 8.2250
" />
<path d="M21.3400 8.2290
L21.3400 8.2260
" />
<path d="M21.3400 8.2330
L21.3400 8.2290
" />
<path d="M21.3400 8.2400
L21.3400 8.2330
" />
<path d="M21.3400 8.2480
L21.3400 8.2400
" />
<path d="M21.3400 8.2580
L21.3400 8.2480
" />
<path d="M21.3400 8.2690
L21.3400 8.2580
" />
<path d="M21.3400 8.2810
L21.3400 8.2690
" />
<path d="M21.3400 8.2950
L21.3400 8.2810
" />
<path d="M21.3400 8.3100
L21.3400 8.2950
" />
<path d="M21.3400 8.3250
L21.3400 8.3100
" />
<path d="M21.3400 8.3420
L21.3400 8.3250
" />
<path d="M21.3400 8.3580
L21.3400 8.3420
" />
<path d="M21.3400 8.3750
L21.1100 8.3750
" />
<path d="M21.3400 8.3750
L21.3400 8.3580
" />
<path d="M21.3400 8.3750
L21.3400 10.0350
" />
<path d="M21.3400 10.0350
L21.1100 10.0350
" />
<path d="M21.3400 10.0350
L21.3400 10.5350
" />
<path d="M21.3400 10.5350
L21.1100 10.5350
" />
<path d="M21.9100 8.2250
L21.9100 8.2260
" />
<path d="M21.9100 8.2260
L21.9100 8.2290
" />
<path d="M21.9100 8.2290
L21.9100 8.2330
" />
<path d="M21.9100 8.2330
L21.9100 8.2400
" />
<path d="M21.9100 8.2400
L21.9100 8.2480
" />
<path d="M21.9100 8.2480
L21.9100 8.2580
" />
<path d="M21.9100 8.2580
L21.9100 8.2690
" />
<path d="M21.9100 8.2690
L21.9100 8.2810
" />
<path d="M21.9100 8.2810
L21.9100 8.2950
" />
<path d="M21.9100 8.2950
L21.9100 8.3100
" />
<path d="M21.9100 8.3100
L21.9100 8.3250
" />
<path d="M21.9100 8.3250
L21.9100 8.3420
" />
<path d="M21.9100 8.3420
L21.9100 8.3580
" />
<path d="M21.9100 8.3580
L21.9100 8.3750
" />
<path d="M21.9100 10.0350
L21.9100 8.3750
" />
<path d="M21.9100 10.5350
L21.9100 10.0350
" />
<path d="M22.1400 8.2260
L22.1400 8.2250
" />
<path d="M22.1400 8.2290
L22.1400 8.2260
" />
<path d="M22.1400 8.2330
L22.1400 8.2290
" />
<path d="M22.1400 8.2400
L22.1400 8.2330
" />
<path d="M22.1400 8.2480
L22.1400 8.2400
" />
<path d="M22.1400 8.2580
L22.1400 8.2480
" />
<path d="M22.1400 8.2690
L22.1400 8.2580
" />
<path d="M22.1400 8.2810
L22.1400 8.2690
" />
<path d="M22.1400 8.2950
L22.1400 8.2810
" />
<path d="M22.1400 8.3100
L22.1400 8.2950
" />
<path d="M22.1400 8.3250
L22.1400 8.3100
" />
<path d="M22.1400 8.3420
L22.1400 8.3250
" />
<path d="M22.1400 8.3580
L22.1400 8.3420
" />
<path d="M22.1400 8.3750
L21.9100 8.3750
" />
<path d="M22.1400 8.3750
L22.1400 8.3580
" />
<path d="M22.1400 8.3750
L22.1400 10.0350
" />
<path d="M22.1400 10.0350
L21.9100 10.0350
" />
<path d="M22.1400 10.0350
L22.1400 10.5350
" />
<path d="M22.1400 10.5350
L21.9100 10.5350
" />
<path d="M22.7100 8.2250
L22.7100 8.2260
" />
<path d="M22.7100 8.2260
L22.7100 8.2290
" />
<path d="M22.7100 8.2290
L22.7100 8.2330
" />
<path d="M22.7100 8.2330
L22.7100 8.2400
" />
<path d="M22.7100 8.2400
L22.7100 8.2480
" />
<path d="M22.7100 8.2480
L22.7100 8.2580
" />
<path d="M22.7100 8.2580
L22.7100 8.2690
" />
<path d="M22.7100 8.2690
L22.7100 8.2810
" />
<path d="M22.7100 8.2810
L22.7100 8.2950
" />
<path d="M22.7100 8.2950
L22.7100 8.3100
" />
<path d="M22.7100 8.3100
L22.7100 8.3250
" />
<path d="M22.7100 8.3250
L22.7100 8.3420
" />
<path d="M22.7100 8.3420
L22.7100 8.3580
" />
<path d="M22.7100 8.3580
L22.7100 8.3750
" />
<path d="M22.7100 10.0350
L22.7100 8.3750
" />
<path d="M22.7100 10.5350
L22.7100 10.0350
" />
<path d="M22.9400 8.2260
L22.9400 8.2250
" />
<path d="M22.9400 8.2290
L22.9400 8.2260
" />
<path d="M22.9400 8.2330
L22.9400 8.2290
" />
<path d="M22.9400 8.2400
L22.9400 8.2330
" />
<path d="M22.9400 8.2480
L22.9400 8.2400
" />
<path d="M22.9400 8.2580
L22.9400 8.2480
" />
<path d="M22.9400 8.2690
L22.9400 8.2580
" />
<path d="M22.9400 8.2810
L22.9400 8.2690
" />
<path d="M22.9400 8.2950
L22.9400 8.2810
" />
<path d="M22.9400 8.3100
L22.9400 8.2950
" />
<path d="M22.9400 8.3250
L22.9400 8.3100
" />
<path d="M22.9400 8.3420
L22.9400 8.3250
" />
<path d="M22.9400 8.3580
L22.9400 8.3420
" />
<path d="M22.9400 8.3750
L22.7100 8.3750
" />
<path d="M22.9400 8.3750
L22.9400 8.3580
" />
<path d="M22.9400 8.3750
L22.9400 10.0350
" />
<path d="M22.9400 10.0350
L22.7100 10.0350
" />
<path d="M22.9400 10.0350
L22.9400 10.5350
" />
<path d="M22.9400 10.5350
L22.7100 10.5350
" />
<path d="M23.5100 8.2250
L23.5100 8.2260
" />
<path d="M23.5100 8.2260
L23.5100 8.2290
" />
<path d="M23.5100 8.2290
L23.5100 8.2330
" />
<path d="M23.5100 8.2330
L23.5100 8.2400
" />
<path d="M23.5100 8.2400
L23.5100 8.2480
" />
<path d="M23.5100 8.2480
L23.5100 8.2580
" />
<path d="M23.5100 8.2580
L23.5100 8.2690
" />
<path d="M23.5100 8.2690
L23.5100 8.2810
" />
<path d="M23.5100 8.2810
L23.5100 8.2950
" />
<path d="M23.5100 8.2950
L23.5100 8.3100
" />
<path d="M23.5100 8.3100
L23.5100 8.3250
" />
<path d="M23.5100 8.3250
L23.5100 8.3420
" />
<path d="M23.5100 8.3420
L23.5100 8.3580
" />
<path d="M23.5100 8.3580
L23.5100 8.3750
" />
<path d="M23.5100 10.0350
L23.5100 8.3750
" />
<path d="M23.5100 10.5350
L23.5100 10.0350
" />
<path d="M23.7400 8.2260
L23.7400 8.2250
" />
<path d="M23.7400 8.2290
L23.7400 8.2260
" />
<path d="M23.7400 8.2330
L23.7400 8.2290
" />
<path d="M23.7400 8.2400
L23.7400 8.2330
" />
<path d="M23.7400 8.2480
L23.7400 8.2400
" />
<path d="M23.7400 8.2580
L23.7400 8.2480
" />
<path d="M23.7400 8.2690
L23.7400 8.2580
" />
<path d="M23.7400 8.2810
L23.7400 8.2690
" />
<path d="M23.7400 8.2950
L23.7400 8.2810
" />
<path d="M23.7400 8.3100
L23.7400 8.2950
" />
<path d="M23.7400 8.3250
L23.7400 8.3100
" />
<path d="M23.7400 8.3420
L23.7400 8.3250
" />
<path d="M23.7400 8.3580
L23.7400 8.3420
" />
<path d="M23.7400 8.3750
L23.5100 8.3750
" />
<path d="M23.7400 8.3750
L23.7400 8.3580
" />
<path d="M23.7400 8.3750
L23.7400 10.0350
" />
<path d="M23.7400 10.0350
L23.5100 10.0350
" />
<path d="M23.7400 10.0350
L23.7400 10.5350
" />
<path d="M23.7400 10.5350
L23.5100 10.5350
" />
<path d="M24.0250 6.8750
L8.0250 6.8750
" />
<path d="M24.0250 6.8750
L24.0250 8.2250
" />
<path d="M24.0250 8.2250
L8.0250 8.2250
" />
<path d="M24.0250 8.2250
L26.6400 8.2250
" />
<path d="M25.3250 4.6250
L25.3250 6.4750
" />
<path d="M25.3250 4.6250
L31.6250 4.6250
" />
<path d="M25.3250 6.4750
L6.7250 6.4750
" />
<path d="M26.2750 6.4750
L25.3250 6.4750
" />
<path d="M26.2750 7.9750
L26.2750 6.4750
" />
<path d="M26.3250 0.4250
L26.3250 4.6250
" />
<path d="M26.6400 8.2250
L26.6400 13.2250
" />
<path d="M26.6400 13.2250
L27.3050 13.2250
" />
<path d="M27.3050 13.2250
L27.3050 9.7250
" />
<path d="M27.3050 13.2250
L30.4950 13.2250
" />
<path d="M28.1100 9.7250
L28.1100 11.8250
" />
<path d="M28.1100 11.8250
L30.4950 11.8250
" />
<path d="M29.1250 9.7250
L29.7500 9.7250
" />
<path d="M29.7500 4.5250
L29.7500 4.6250
" />
<path d="M29.7500 9.7250
L29.7500 11.6100
" />
<path d="M30.0000 4.5250
L29.7500 4.5250
" />
<path d="M30.0000 4.5250
L30.0000 4.6250
" />
<path d="M30.0000 9.7250
L30.0000 11.6100
" />
<path d="M30.0000 9.7250
L30.4950 9.7250
" />
<path d="M30.0000 11.6100
L29.7500 11.6100
" />
<path d="M30.4950 9.7250
L27.3050 9.7250
" />
<path d="M30.4950 11.8250
L30.4950 9.7250
" />
<path d="M30.4950 13.2250
L30.4950 9.7250
" />
<path d="M30.4950 13.2250
L31.4950 13.2250
" />
<path d="M31.4950 7.9750
L31.4950 13.2250
" />
<path d="M31.6250 4.6250
L31.6250 7.9750
" />
<path d="M31.6250 7.9750
L26.2750 7.9750
" />
</g> 
</svg>
