<?xml version="1.0" standalone="no"?>
 <!DOCTYPE svg PUBLIC "-//W3C//DTD SVG 1.1//EN" 
 "http://www.w3.org/Graphics/SVG/1.1/DTD/svg11.dtd"> 
<svg
  xmlns:svg="http://www.w3.org/2000/svg"
  xmlns="http://www.w3.org/2000/svg"
  xmlns:xlink="http://www.w3.org/1999/xlink"
  version="1.1"
  width="10.4902mm" height="4.6990mm" viewBox="0.0000 0.0000 10.4902 4.6990">
<title>SVG Image created as outline.svg date 2025/06/16 09:18:17 </title>
  <desc>Image generated by PCBNEW </desc>
<g style="fill:#000000; fill-opacity:1.0000;stroke:#000000; stroke-opacity:1.0000;
stroke-linecap:round; stroke-linejoin:round;"
 transform="translate(0 0) scale(1 1)">
</g>
<g style="fill:none; 
stroke:#000000; stroke-width:0.0200; stroke-opacity:1; 
stroke-linecap:round; stroke-linejoin:round;">
<path d="M0.3250 0.9260
L0.3250 1.0250
" />
<path d="M0.3250 0.9260
L0.3260 0.9220
" />
<path d="M0.3250 1.3250
L0.3250 1.0250
" />
<path d="M0.3250 1.3250
L0.3250 2.1260
" />
<path d="M0.3250 2.6240
L0.3250 2.1260
" />
<path d="M0.3250 3.4260
L0.3250 2.6240
" />
<path d="M0.3250 3.4260
L0.3250 3.7260
" />
<path d="M0.3250 3.8250
L0.3250 3.7260
" />
<path d="M0.3250 3.8250
L0.3260 3.8270
" />
<path d="M0.3260 0.9160
L0.3280 0.9120
" />
<path d="M0.3260 0.9180
L0.3260 0.9160
" />
<path d="M0.3260 0.9200
L0.3260 0.9180
" />
<path d="M0.3260 0.9220
L0.3260 0.9200
" />
<path d="M0.3260 3.8270
L0.3260 3.8290
" />
<path d="M0.3260 3.8290
L0.3260 3.8330
" />
<path d="M0.3260 3.8330
L0.3260 3.8350
" />
<path d="M0.3260 3.8350
L0.3280 3.8370
" />
<path d="M0.3280 0.9080
L0.3300 0.9060
" />
<path d="M0.3280 0.9100
L0.3280 0.9080
" />
<path d="M0.3280 0.9120
L0.3280 0.9100
" />
<path d="M0.3280 3.8370
L0.3280 3.8390
" />
<path d="M0.3280 3.8390
L0.3280 3.8410
" />
<path d="M0.3280 3.8410
L0.3300 3.8450
" />
<path d="M0.3300 0.9060
L0.3310 0.9040
" />
<path d="M0.3300 3.8450
L0.3310 3.8470
" />
<path d="M0.3310 0.9020
L0.3330 0.9000
" />
<path d="M0.3310 0.9040
L0.3310 0.9020
" />
<path d="M0.3310 3.8470
L0.3310 3.8490
" />
<path d="M0.3310 3.8490
L0.3330 3.8510
" />
<path d="M0.3330 0.9000
L0.3340 0.8980
" />
<path d="M0.3330 3.8510
L0.3340 3.8530
" />
<path d="M0.3340 0.8980
L0.3360 0.8960
" />
<path d="M0.3340 3.8530
L0.3360 3.8550
" />
<path d="M0.3360 0.8960
L0.3380 0.8940
" />
<path d="M0.3360 3.8550
L0.3380 3.8570
" />
<path d="M0.3380 0.8940
L0.3390 0.8920
" />
<path d="M0.3380 3.8570
L0.3390 3.8590
" />
<path d="M0.3390 0.8920
L0.3410 0.8900
" />
<path d="M0.3390 3.8590
L0.3410 3.8610
" />
<path d="M0.3410 0.8900
L0.3420 0.8880
" />
<path d="M0.3410 3.8610
L0.3420 3.8610
" />
<path d="M0.3420 0.8880
L0.3440 0.8860
" />
<path d="M0.3420 3.8610
L0.3440 3.8630
" />
<path d="M0.3440 0.8860
L0.3470 0.8840
" />
<path d="M0.3440 3.8630
L0.3470 3.8650
" />
<path d="M0.3470 0.8840
L0.3490 0.8840
" />
<path d="M0.3470 3.8650
L0.3490 3.8670
" />
<path d="M0.3490 0.8840
L0.3500 0.8820
" />
<path d="M0.3490 3.8670
L0.3500 3.8670
" />
<path d="M0.3500 0.8820
L0.3520 0.8800
" />
<path d="M0.3500 3.8670
L0.3520 3.8690
" />
<path d="M0.3520 0.8800
L0.3550 0.8800
" />
<path d="M0.3520 3.8690
L0.3550 3.8710
" />
<path d="M0.3550 0.8800
L0.3570 0.8780
" />
<path d="M0.3550 3.8710
L0.3570 3.8710
" />
<path d="M0.3570 0.8780
L0.3600 0.8780
" />
<path d="M0.3570 3.8710
L0.3600 3.8730
" />
<path d="M0.3600 0.8780
L0.3620 0.8780
" />
<path d="M0.3600 3.8730
L0.3620 3.8730
" />
<path d="M0.3620 0.8780
L0.3630 0.8760
" />
<path d="M0.3620 3.8730
L0.3630 3.8730
" />
<path d="M0.3630 0.8760
L0.3660 0.8760
" />
<path d="M0.3630 3.8730
L0.3660 3.8750
" />
<path d="M0.3660 0.8760
L0.3680 0.8760
" />
<path d="M0.3660 3.8750
L0.3680 3.8750
" />
<path d="M0.3680 0.8760
L0.3710 0.8760
" />
<path d="M0.3680 3.8750
L0.3710 3.8750
" />
<path d="M0.3710 0.8760
L0.3730 0.8760
" />
<path d="M0.3710 3.8750
L0.3730 3.8750
" />
<path d="M0.3730 0.8760
L0.3760 0.8760
" />
<path d="M0.3730 3.8750
L0.3760 3.8750
" />
<path d="M0.3760 1.3250
L0.3250 1.3250
" />
<path d="M0.3760 1.3250
L1.4760 1.3250
" />
<path d="M0.3760 2.1260
L0.3250 2.1260
" />
<path d="M0.3760 2.1260
L0.5270 2.1260
" />
<path d="M0.3760 2.6240
L0.3250 2.6240
" />
<path d="M0.3760 2.6240
L0.5270 2.6240
" />
<path d="M0.3760 3.4260
L0.3250 3.4260
" />
<path d="M0.3760 3.4260
L1.4760 3.4260
" />
<path d="M0.4260 2.6240
L0.4260 2.1260
" />
<path d="M0.5270 1.4490
L0.5270 2.1260
" />
<path d="M0.5270 1.4490
L0.7700 1.6930
" />
<path d="M0.5270 2.1260
L0.5270 2.6240
" />
<path d="M0.5270 3.3010
L0.5270 2.6240
" />
<path d="M0.5270 3.3010
L0.7700 3.0570
" />
<path d="M0.6260 2.1260
L0.6260 2.6240
" />
<path d="M0.6970 2.6240
L0.6970 2.1260
" />
<path d="M0.7270 1.7780
L0.7270 1.7850
" />
<path d="M0.7270 1.7850
L0.7270 1.7930
" />
<path d="M0.7270 1.7930
L0.7270 1.8000
" />
<path d="M0.7270 2.1260
L0.5270 2.1260
" />
<path d="M0.7270 2.1260
L0.7270 1.8000
" />
<path d="M0.7270 2.6240
L0.5270 2.6240
" />
<path d="M0.7270 2.6240
L0.7270 2.1260
" />
<path d="M0.7270 2.6240
L0.7270 2.9500
" />
<path d="M0.7270 2.9570
L0.7270 2.9500
" />
<path d="M0.7270 2.9650
L0.7270 2.9570
" />
<path d="M0.7270 2.9720
L0.7270 2.9650
" />
<path d="M0.7300 1.7640
L0.7300 1.7710
" />
<path d="M0.7300 1.7710
L0.7270 1.7780
" />
<path d="M0.7300 2.9790
L0.7270 2.9720
" />
<path d="M0.7300 2.9860
L0.7300 2.9790
" />
<path d="M0.7320 1.7570
L0.7300 1.7640
" />
<path d="M0.7320 2.9930
L0.7300 2.9860
" />
<path d="M0.7350 1.7500
L0.7320 1.7570
" />
<path d="M0.7350 3.0000
L0.7320 2.9930
" />
<path d="M0.7380 1.7430
L0.7350 1.7500
" />
<path d="M0.7380 3.0070
L0.7350 3.0000
" />
<path d="M0.7400 1.7370
L0.7380 1.7430
" />
<path d="M0.7400 3.0130
L0.7380 3.0070
" />
<path d="M0.7430 1.7290
L0.7400 1.7370
" />
<path d="M0.7430 3.0210
L0.7400 3.0130
" />
<path d="M0.7480 1.7230
L0.7430 1.7290
" />
<path d="M0.7480 3.0270
L0.7430 3.0210
" />
<path d="M0.7510 1.7170
L0.7480 1.7230
" />
<path d="M0.7510 3.0330
L0.7480 3.0270
" />
<path d="M0.7560 1.7110
L0.7510 1.7170
" />
<path d="M0.7560 3.0390
L0.7510 3.0330
" />
<path d="M0.7590 1.7050
L0.7560 1.7110
" />
<path d="M0.7590 3.0450
L0.7560 3.0390
" />
<path d="M0.7640 1.6990
L0.7590 1.7050
" />
<path d="M0.7640 3.0510
L0.7590 3.0450
" />
<path d="M0.7700 1.6930
L0.7640 1.6990
" />
<path d="M0.7700 3.0570
L0.7640 3.0510
" />
<path d="M0.7750 1.6880
L0.7700 1.6930
" />
<path d="M0.7750 3.0620
L0.7700 3.0570
" />
<path d="M0.7770 0.5750
L0.7770 0.8760
" />
<path d="M0.7770 4.1760
L0.7770 3.8750
" />
<path d="M0.7810 1.6830
L0.7750 1.6880
" />
<path d="M0.7810 3.0670
L0.7750 3.0620
" />
<path d="M0.7880 1.6790
L0.7810 1.6830
" />
<path d="M0.7880 3.0710
L0.7810 3.0670
" />
<path d="M0.7940 1.6750
L0.7880 1.6790
" />
<path d="M0.7940 3.0750
L0.7880 3.0710
" />
<path d="M0.7990 1.6720
L0.7940 1.6750
" />
<path d="M0.7990 3.0790
L0.7940 3.0750
" />
<path d="M0.8060 1.6680
L0.7990 1.6720
" />
<path d="M0.8060 3.0820
L0.7990 3.0790
" />
<path d="M0.8120 1.6650
L0.8060 1.6680
" />
<path d="M0.8120 3.0850
L0.8060 3.0820
" />
<path d="M0.8180 1.6620
L0.8120 1.6650
" />
<path d="M0.8180 3.0880
L0.8120 3.0850
" />
<path d="M0.8250 1.6590
L0.8180 1.6620
" />
<path d="M0.8250 3.0910
L0.8180 3.0880
" />
<path d="M0.8330 1.6570
L0.8250 1.6590
" />
<path d="M0.8330 3.0930
L0.8250 3.0910
" />
<path d="M0.8390 1.6550
L0.8330 1.6570
" />
<path d="M0.8390 3.0950
L0.8330 3.0930
" />
<path d="M0.8470 1.6540
L0.8390 1.6550
" />
<path d="M0.8470 3.0960
L0.8390 3.0950
" />
<path d="M0.8540 1.6520
L0.8470 1.6540
" />
<path d="M0.8540 3.0980
L0.8470 3.0960
" />
<path d="M0.8600 1.6510
L0.8540 1.6520
" />
<path d="M0.8600 3.0990
L0.8540 3.0980
" />
<path d="M0.8680 1.6510
L0.8600 1.6510
" />
<path d="M0.8680 3.0990
L0.8600 3.0990
" />
<path d="M0.8760 1.6510
L0.8680 1.6510
" />
<path d="M0.8760 1.6510
L1.4760 1.6510
" />
<path d="M0.8760 3.0990
L0.8680 3.0990
" />
<path d="M0.8760 3.0990
L1.4760 3.0990
" />
<path d="M1.0750 0.5750
L0.7770 0.5750
" />
<path d="M1.0750 0.8760
L1.0750 0.5750
" />
<path d="M1.0750 3.8750
L1.0750 4.1760
" />
<path d="M1.0750 4.1760
L0.7770 4.1760
" />
<path d="M1.1260 0.8760
L0.3760 0.8760
" />
<path d="M1.1260 0.8760
L9.4270 0.8760
" />
<path d="M1.1260 1.0250
L0.3250 1.0250
" />
<path d="M1.1260 1.0250
L1.1260 0.8760
" />
<path d="M1.1260 3.7260
L0.3250 3.7260
" />
<path d="M1.1260 3.7260
L1.1260 3.8750
" />
<path d="M1.1260 3.8750
L0.3760 3.8750
" />
<path d="M1.1260 3.8750
L9.4270 3.8750
" />
<path d="M1.4760 1.3250
L1.4760 1.4490
" />
<path d="M1.4760 1.4490
L0.5270 1.4490
" />
<path d="M1.4760 1.6510
L1.4760 1.4490
" />
<path d="M1.4760 3.0990
L1.4760 3.3010
" />
<path d="M1.4760 3.3010
L0.5270 3.3010
" />
<path d="M1.4760 3.4260
L1.4760 3.3010
" />
<path d="M1.5760 1.5740
L1.7660 1.5740
" />
<path d="M1.5760 1.6510
L1.4760 1.6510
" />
<path d="M1.5760 1.6510
L1.5760 1.5740
" />
<path d="M1.5760 1.8540
L1.5760 1.6510
" />
<path d="M1.5760 1.8540
L1.5760 2.0060
" />
<path d="M1.5760 1.8540
L1.6270 1.8540
" />
<path d="M1.5760 2.8960
L1.5760 2.7440
" />
<path d="M1.5760 2.8960
L1.5760 3.0990
" />
<path d="M1.5760 2.8960
L1.6270 2.8960
" />
<path d="M1.5760 3.0990
L1.4760 3.0990
" />
<path d="M1.5760 3.0990
L1.5760 3.1760
" />
<path d="M1.5760 3.1760
L1.7660 3.1760
" />
<path d="M1.6270 1.6660
L1.5760 1.5740
" />
<path d="M1.6270 1.6660
L1.7160 1.6660
" />
<path d="M1.6270 1.8540
L1.6270 1.6660
" />
<path d="M1.6270 2.8960
L1.6270 3.0840
" />
<path d="M1.6270 3.0840
L1.5760 3.1760
" />
<path d="M1.6270 3.0840
L1.7160 3.0840
" />
<path d="M1.7160 1.6660
L1.7160 1.8540
" />
<path d="M1.7160 1.8540
L1.6270 1.8540
" />
<path d="M1.7160 1.8540
L1.7660 1.8540
" />
<path d="M1.7160 2.8960
L1.6270 2.8960
" />
<path d="M1.7160 2.8960
L1.7660 2.8960
" />
<path d="M1.7160 3.0840
L1.7160 2.8960
" />
<path d="M1.7660 1.5740
L1.7160 1.6660
" />
<path d="M1.7660 1.8540
L1.7660 1.5740
" />
<path d="M1.7660 1.8540
L1.9860 1.8540
" />
<path d="M1.7660 2.8960
L1.7660 3.1760
" />
<path d="M1.7660 2.8960
L1.9860 2.8960
" />
<path d="M1.7660 3.1760
L1.7160 3.0840
" />
<path d="M1.8010 0.8560
L1.8010 0.5750
" />
<path d="M1.8010 0.8760
L1.8010 0.8560
" />
<path d="M1.8010 1.1760
L1.8010 1.0430
" />
<path d="M1.8010 1.2750
L1.8010 1.1760
" />
<path d="M1.8010 1.4080
L1.8010 1.2750
" />
<path d="M1.8010 1.4080
L1.9510 1.4080
" />
<path d="M1.8010 1.9530
L1.8010 1.8540
" />
<path d="M1.8010 1.9960
L1.8010 1.9530
" />
<path d="M1.8010 2.7540
L1.8010 2.7970
" />
<path d="M1.8010 2.7970
L1.8010 2.8960
" />
<path d="M1.8010 3.3420
L1.8010 3.4760
" />
<path d="M1.8010 3.4760
L1.8010 3.5750
" />
<path d="M1.8010 3.5750
L1.8010 3.7080
" />
<path d="M1.8010 3.7080
L1.9510 3.7080
" />
<path d="M1.8010 3.8750
L1.8010 3.8950
" />
<path d="M1.8010 3.8950
L1.8010 4.1760
" />
<path d="M1.9510 0.5750
L1.8010 0.5750
" />
<path d="M1.9510 0.8560
L1.9510 0.5750
" />
<path d="M1.9510 0.8760
L1.9510 0.8560
" />
<path d="M1.9510 1.0430
L1.8010 1.0430
" />
<path d="M1.9510 1.1760
L1.9510 1.0430
" />
<path d="M1.9510 1.2750
L1.9510 1.1760
" />
<path d="M1.9510 1.4080
L1.9510 1.2750
" />
<path d="M1.9510 1.9530
L1.9510 1.8540
" />
<path d="M1.9510 1.9960
L1.8010 1.9960
" />
<path d="M1.9510 1.9960
L1.9510 1.9530
" />
<path d="M1.9510 2.7540
L1.8010 2.7540
" />
<path d="M1.9510 2.7540
L1.9510 2.7970
" />
<path d="M1.9510 2.7970
L1.9510 2.8960
" />
<path d="M1.9510 3.3420
L1.8010 3.3420
" />
<path d="M1.9510 3.3420
L1.9510 3.4760
" />
<path d="M1.9510 3.4760
L1.9510 3.5750
" />
<path d="M1.9510 3.5750
L1.9510 3.7080
" />
<path d="M1.9510 3.8750
L1.9510 3.8950
" />
<path d="M1.9510 3.8950
L1.9510 4.1760
" />
<path d="M1.9510 4.1760
L1.8010 4.1760
" />
<path d="M1.9860 1.5740
L1.9860 1.8540
" />
<path d="M1.9860 1.5740
L2.1670 1.5740
" />
<path d="M1.9860 1.8540
L2.0360 1.8540
" />
<path d="M1.9860 2.8960
L2.0360 2.8960
" />
<path d="M1.9860 3.1760
L1.9860 2.8960
" />
<path d="M1.9860 3.1760
L2.1670 3.1760
" />
<path d="M2.0360 1.6660
L1.9860 1.5740
" />
<path d="M2.0360 1.6660
L2.1160 1.6660
" />
<path d="M2.0360 1.8540
L2.0360 1.6660
" />
<path d="M2.0360 1.8540
L2.1160 1.8540
" />
<path d="M2.0360 2.8960
L2.0360 3.0840
" />
<path d="M2.0360 2.8960
L2.1160 2.8960
" />
<path d="M2.0360 3.0840
L1.9860 3.1760
" />
<path d="M2.0360 3.0840
L2.1160 3.0840
" />
<path d="M2.1160 1.6660
L2.1160 1.8540
" />
<path d="M2.1160 1.8540
L2.1670 1.8540
" />
<path d="M2.1160 2.8960
L2.1670 2.8960
" />
<path d="M2.1160 3.0840
L2.1160 2.8960
" />
<path d="M2.1670 1.5740
L2.1160 1.6660
" />
<path d="M2.1670 1.8540
L2.1670 1.5740
" />
<path d="M2.1670 1.8540
L2.3860 1.8540
" />
<path d="M2.1670 2.8960
L2.1670 3.1760
" />
<path d="M2.1670 2.8960
L2.3860 2.8960
" />
<path d="M2.1670 3.1760
L2.1160 3.0840
" />
<path d="M2.2000 0.8560
L2.2000 0.5750
" />
<path d="M2.2000 0.8760
L2.2000 0.8560
" />
<path d="M2.2000 1.1760
L2.2000 1.0430
" />
<path d="M2.2000 1.2750
L2.2000 1.1760
" />
<path d="M2.2000 1.4080
L2.2000 1.2750
" />
<path d="M2.2000 1.4080
L2.3510 1.4080
" />
<path d="M2.2000 1.9530
L2.2000 1.8540
" />
<path d="M2.2000 1.9960
L2.2000 1.9530
" />
<path d="M2.2000 2.7540
L2.2000 2.7970
" />
<path d="M2.2000 2.7970
L2.2000 2.8960
" />
<path d="M2.2000 3.3420
L2.2000 3.4760
" />
<path d="M2.2000 3.4760
L2.2000 3.5750
" />
<path d="M2.2000 3.5750
L2.2000 3.7080
" />
<path d="M2.2000 3.7080
L2.3510 3.7080
" />
<path d="M2.2000 3.8750
L2.2000 3.8950
" />
<path d="M2.2000 3.8950
L2.2000 4.1760
" />
<path d="M2.3510 0.5750
L2.2000 0.5750
" />
<path d="M2.3510 0.8560
L2.3510 0.5750
" />
<path d="M2.3510 0.8760
L2.3510 0.8560
" />
<path d="M2.3510 1.0430
L2.2000 1.0430
" />
<path d="M2.3510 1.1760
L2.3510 1.0430
" />
<path d="M2.3510 1.2750
L2.3510 1.1760
" />
<path d="M2.3510 1.4080
L2.3510 1.2750
" />
<path d="M2.3510 1.9530
L2.3510 1.8540
" />
<path d="M2.3510 1.9960
L2.2000 1.9960
" />
<path d="M2.3510 1.9960
L2.3510 1.9530
" />
<path d="M2.3510 2.7540
L2.2000 2.7540
" />
<path d="M2.3510 2.7540
L2.3510 2.7970
" />
<path d="M2.3510 2.7970
L2.3510 2.8960
" />
<path d="M2.3510 3.3420
L2.2000 3.3420
" />
<path d="M2.3510 3.3420
L2.3510 3.4760
" />
<path d="M2.3510 3.4760
L2.3510 3.5750
" />
<path d="M2.3510 3.5750
L2.3510 3.7080
" />
<path d="M2.3510 3.8750
L2.3510 3.8950
" />
<path d="M2.3510 3.8950
L2.3510 4.1760
" />
<path d="M2.3510 4.1760
L2.2000 4.1760
" />
<path d="M2.3860 1.5740
L2.3860 1.8540
" />
<path d="M2.3860 1.5740
L2.5670 1.5740
" />
<path d="M2.3860 1.8540
L2.4370 1.8540
" />
<path d="M2.3860 2.8960
L2.4370 2.8960
" />
<path d="M2.3860 3.1760
L2.3860 2.8960
" />
<path d="M2.3860 3.1760
L2.5670 3.1760
" />
<path d="M2.4370 1.6660
L2.3860 1.5740
" />
<path d="M2.4370 1.6660
L2.5150 1.6660
" />
<path d="M2.4370 1.8540
L2.4370 1.6660
" />
<path d="M2.4370 1.8540
L2.5150 1.8540
" />
<path d="M2.4370 2.8960
L2.4370 3.0840
" />
<path d="M2.4370 2.8960
L2.5150 2.8960
" />
<path d="M2.4370 3.0840
L2.3860 3.1760
" />
<path d="M2.4370 3.0840
L2.5150 3.0840
" />
<path d="M2.5150 1.6660
L2.5150 1.8540
" />
<path d="M2.5150 1.8540
L2.5670 1.8540
" />
<path d="M2.5150 2.8960
L2.5670 2.8960
" />
<path d="M2.5150 3.0840
L2.5150 2.8960
" />
<path d="M2.5670 1.5740
L2.5150 1.6660
" />
<path d="M2.5670 1.8540
L2.5670 1.5740
" />
<path d="M2.5670 1.8540
L2.7850 1.8540
" />
<path d="M2.5670 2.8960
L2.5670 3.1760
" />
<path d="M2.5670 2.8960
L2.7850 2.8960
" />
<path d="M2.5670 3.1760
L2.5150 3.0840
" />
<path d="M2.6010 0.8560
L2.6010 0.5750
" />
<path d="M2.6010 0.8760
L2.6010 0.8560
" />
<path d="M2.6010 1.1760
L2.6010 1.0430
" />
<path d="M2.6010 1.2750
L2.6010 1.1760
" />
<path d="M2.6010 1.4080
L2.6010 1.2750
" />
<path d="M2.6010 1.4080
L2.7520 1.4080
" />
<path d="M2.6010 1.9530
L2.6010 1.8540
" />
<path d="M2.6010 1.9960
L2.6010 1.9530
" />
<path d="M2.6010 2.7540
L2.6010 2.7970
" />
<path d="M2.6010 2.7970
L2.6010 2.8960
" />
<path d="M2.6010 3.3420
L2.6010 3.4760
" />
<path d="M2.6010 3.4760
L2.6010 3.5750
" />
<path d="M2.6010 3.5750
L2.6010 3.7080
" />
<path d="M2.6010 3.7080
L2.7520 3.7080
" />
<path d="M2.6010 3.8750
L2.6010 3.8950
" />
<path d="M2.6010 3.8950
L2.6010 4.1760
" />
<path d="M2.7520 0.5750
L2.6010 0.5750
" />
<path d="M2.7520 0.8560
L2.7520 0.5750
" />
<path d="M2.7520 0.8760
L2.7520 0.8560
" />
<path d="M2.7520 1.0430
L2.6010 1.0430
" />
<path d="M2.7520 1.1760
L2.7520 1.0430
" />
<path d="M2.7520 1.2750
L2.7520 1.1760
" />
<path d="M2.7520 1.4080
L2.7520 1.2750
" />
<path d="M2.7520 1.9530
L2.7520 1.8540
" />
<path d="M2.7520 1.9960
L2.6010 1.9960
" />
<path d="M2.7520 1.9960
L2.7520 1.9530
" />
<path d="M2.7520 2.7540
L2.6010 2.7540
" />
<path d="M2.7520 2.7540
L2.7520 2.7970
" />
<path d="M2.7520 2.7970
L2.7520 2.8960
" />
<path d="M2.7520 3.3420
L2.6010 3.3420
" />
<path d="M2.7520 3.3420
L2.7520 3.4760
" />
<path d="M2.7520 3.4760
L2.7520 3.5750
" />
<path d="M2.7520 3.5750
L2.7520 3.7080
" />
<path d="M2.7520 3.8750
L2.7520 3.8950
" />
<path d="M2.7520 3.8950
L2.7520 4.1760
" />
<path d="M2.7520 4.1760
L2.6010 4.1760
" />
<path d="M2.7850 1.5740
L2.7850 1.8540
" />
<path d="M2.7850 1.5740
L2.9660 1.5740
" />
<path d="M2.7850 1.8540
L2.8370 1.8540
" />
<path d="M2.7850 2.8960
L2.8370 2.8960
" />
<path d="M2.7850 3.1760
L2.7850 2.8960
" />
<path d="M2.7850 3.1760
L2.9660 3.1760
" />
<path d="M2.8370 1.6660
L2.7850 1.5740
" />
<path d="M2.8370 1.6660
L2.9150 1.6660
" />
<path d="M2.8370 1.8540
L2.8370 1.6660
" />
<path d="M2.8370 1.8540
L2.9150 1.8540
" />
<path d="M2.8370 2.8960
L2.8370 3.0840
" />
<path d="M2.8370 2.8960
L2.9150 2.8960
" />
<path d="M2.8370 3.0840
L2.7850 3.1760
" />
<path d="M2.8370 3.0840
L2.9150 3.0840
" />
<path d="M2.9150 1.6660
L2.9150 1.8540
" />
<path d="M2.9150 1.8540
L2.9660 1.8540
" />
<path d="M2.9150 2.8960
L2.9660 2.8960
" />
<path d="M2.9150 3.0840
L2.9150 2.8960
" />
<path d="M2.9660 1.5740
L2.9150 1.6660
" />
<path d="M2.9660 1.8540
L2.9660 1.5740
" />
<path d="M2.9660 1.8540
L3.1850 1.8540
" />
<path d="M2.9660 2.8960
L2.9660 3.1760
" />
<path d="M2.9660 2.8960
L3.1850 2.8960
" />
<path d="M2.9660 3.1760
L2.9150 3.0840
" />
<path d="M3.0020 0.8560
L3.0020 0.5750
" />
<path d="M3.0020 0.8760
L3.0020 0.8560
" />
<path d="M3.0020 1.1760
L3.0020 1.0430
" />
<path d="M3.0020 1.2750
L3.0020 1.1760
" />
<path d="M3.0020 1.4080
L3.0020 1.2750
" />
<path d="M3.0020 1.4080
L3.1520 1.4080
" />
<path d="M3.0020 1.9530
L3.0020 1.8540
" />
<path d="M3.0020 1.9960
L3.0020 1.9530
" />
<path d="M3.0020 2.7540
L3.0020 2.7970
" />
<path d="M3.0020 2.7970
L3.0020 2.8960
" />
<path d="M3.0020 3.3420
L3.0020 3.4760
" />
<path d="M3.0020 3.4760
L3.0020 3.5750
" />
<path d="M3.0020 3.5750
L3.0020 3.7080
" />
<path d="M3.0020 3.7080
L3.1520 3.7080
" />
<path d="M3.0020 3.8750
L3.0020 3.8950
" />
<path d="M3.0020 3.8950
L3.0020 4.1760
" />
<path d="M3.1520 0.5750
L3.0020 0.5750
" />
<path d="M3.1520 0.8560
L3.1520 0.5750
" />
<path d="M3.1520 0.8760
L3.1520 0.8560
" />
<path d="M3.1520 1.0430
L3.0020 1.0430
" />
<path d="M3.1520 1.1760
L3.1520 1.0430
" />
<path d="M3.1520 1.2750
L3.1520 1.1760
" />
<path d="M3.1520 1.4080
L3.1520 1.2750
" />
<path d="M3.1520 1.9530
L3.1520 1.8540
" />
<path d="M3.1520 1.9960
L3.0020 1.9960
" />
<path d="M3.1520 1.9960
L3.1520 1.9530
" />
<path d="M3.1520 2.7540
L3.0020 2.7540
" />
<path d="M3.1520 2.7540
L3.1520 2.7970
" />
<path d="M3.1520 2.7970
L3.1520 2.8960
" />
<path d="M3.1520 3.3420
L3.0020 3.3420
" />
<path d="M3.1520 3.3420
L3.1520 3.4760
" />
<path d="M3.1520 3.4760
L3.1520 3.5750
" />
<path d="M3.1520 3.5750
L3.1520 3.7080
" />
<path d="M3.1520 3.8750
L3.1520 3.8950
" />
<path d="M3.1520 3.8950
L3.1520 4.1760
" />
<path d="M3.1520 4.1760
L3.0020 4.1760
" />
<path d="M3.1850 1.5740
L3.1850 1.8540
" />
<path d="M3.1850 1.5740
L3.3660 1.5740
" />
<path d="M3.1850 1.8540
L3.2370 1.8540
" />
<path d="M3.1850 2.8960
L3.2370 2.8960
" />
<path d="M3.1850 3.1760
L3.1850 2.8960
" />
<path d="M3.1850 3.1760
L3.3660 3.1760
" />
<path d="M3.2370 1.6660
L3.1850 1.5740
" />
<path d="M3.2370 1.6660
L3.3150 1.6660
" />
<path d="M3.2370 1.8540
L3.2370 1.6660
" />
<path d="M3.2370 1.8540
L3.3150 1.8540
" />
<path d="M3.2370 2.8960
L3.2370 3.0840
" />
<path d="M3.2370 2.8960
L3.3150 2.8960
" />
<path d="M3.2370 3.0840
L3.1850 3.1760
" />
<path d="M3.2370 3.0840
L3.3150 3.0840
" />
<path d="M3.3150 1.6660
L3.3150 1.8540
" />
<path d="M3.3150 1.8540
L3.3660 1.8540
" />
<path d="M3.3150 2.8960
L3.3660 2.8960
" />
<path d="M3.3150 3.0840
L3.3150 2.8960
" />
<path d="M3.3660 1.5740
L3.3150 1.6660
" />
<path d="M3.3660 1.8540
L3.3660 1.5740
" />
<path d="M3.3660 1.8540
L3.5850 1.8540
" />
<path d="M3.3660 2.8960
L3.3660 3.1760
" />
<path d="M3.3660 2.8960
L3.5850 2.8960
" />
<path d="M3.3660 3.1760
L3.3150 3.0840
" />
<path d="M3.4020 0.8560
L3.4020 0.5750
" />
<path d="M3.4020 0.8760
L3.4020 0.8560
" />
<path d="M3.4020 1.1760
L3.4020 1.0430
" />
<path d="M3.4020 1.2750
L3.4020 1.1760
" />
<path d="M3.4020 1.4080
L3.4020 1.2750
" />
<path d="M3.4020 1.4080
L3.5510 1.4080
" />
<path d="M3.4020 1.9530
L3.4020 1.8540
" />
<path d="M3.4020 1.9960
L3.4020 1.9530
" />
<path d="M3.4020 2.7540
L3.4020 2.7970
" />
<path d="M3.4020 2.7970
L3.4020 2.8960
" />
<path d="M3.4020 3.3420
L3.4020 3.4760
" />
<path d="M3.4020 3.4760
L3.4020 3.5750
" />
<path d="M3.4020 3.5750
L3.4020 3.7080
" />
<path d="M3.4020 3.7080
L3.5510 3.7080
" />
<path d="M3.4020 3.8750
L3.4020 3.8950
" />
<path d="M3.4020 3.8950
L3.4020 4.1760
" />
<path d="M3.5510 0.5750
L3.4020 0.5750
" />
<path d="M3.5510 0.8560
L3.5510 0.5750
" />
<path d="M3.5510 0.8760
L3.5510 0.8560
" />
<path d="M3.5510 1.0430
L3.4020 1.0430
" />
<path d="M3.5510 1.1760
L3.5510 1.0430
" />
<path d="M3.5510 1.2750
L3.5510 1.1760
" />
<path d="M3.5510 1.4080
L3.5510 1.2750
" />
<path d="M3.5510 1.9530
L3.5510 1.8540
" />
<path d="M3.5510 1.9960
L3.4020 1.9960
" />
<path d="M3.5510 1.9960
L3.5510 1.9530
" />
<path d="M3.5510 2.7540
L3.4020 2.7540
" />
<path d="M3.5510 2.7540
L3.5510 2.7970
" />
<path d="M3.5510 2.7970
L3.5510 2.8960
" />
<path d="M3.5510 3.3420
L3.4020 3.3420
" />
<path d="M3.5510 3.3420
L3.5510 3.4760
" />
<path d="M3.5510 3.4760
L3.5510 3.5750
" />
<path d="M3.5510 3.5750
L3.5510 3.7080
" />
<path d="M3.5510 3.8750
L3.5510 3.8950
" />
<path d="M3.5510 3.8950
L3.5510 4.1760
" />
<path d="M3.5510 4.1760
L3.4020 4.1760
" />
<path d="M3.5850 1.5740
L3.5850 1.8540
" />
<path d="M3.5850 1.5740
L3.7670 1.5740
" />
<path d="M3.5850 1.8540
L3.6360 1.8540
" />
<path d="M3.5850 2.8960
L3.6360 2.8960
" />
<path d="M3.5850 3.1760
L3.5850 2.8960
" />
<path d="M3.5850 3.1760
L3.7670 3.1760
" />
<path d="M3.6360 1.6660
L3.5850 1.5740
" />
<path d="M3.6360 1.6660
L3.7160 1.6660
" />
<path d="M3.6360 1.8540
L3.6360 1.6660
" />
<path d="M3.6360 1.8540
L3.7160 1.8540
" />
<path d="M3.6360 2.8960
L3.6360 3.0840
" />
<path d="M3.6360 2.8960
L3.7160 2.8960
" />
<path d="M3.6360 3.0840
L3.5850 3.1760
" />
<path d="M3.6360 3.0840
L3.7160 3.0840
" />
<path d="M3.7160 1.6660
L3.7160 1.8540
" />
<path d="M3.7160 1.8540
L3.7670 1.8540
" />
<path d="M3.7160 2.8960
L3.7670 2.8960
" />
<path d="M3.7160 3.0840
L3.7160 2.8960
" />
<path d="M3.7670 1.5740
L3.7160 1.6660
" />
<path d="M3.7670 1.8540
L3.7670 1.5740
" />
<path d="M3.7670 1.8540
L3.9860 1.8540
" />
<path d="M3.7670 2.8960
L3.7670 3.1760
" />
<path d="M3.7670 2.8960
L3.9860 2.8960
" />
<path d="M3.7670 3.1760
L3.7160 3.0840
" />
<path d="M3.8010 0.8560
L3.8010 0.5750
" />
<path d="M3.8010 0.8760
L3.8010 0.8560
" />
<path d="M3.8010 1.1760
L3.8010 1.0430
" />
<path d="M3.8010 1.2750
L3.8010 1.1760
" />
<path d="M3.8010 1.4080
L3.8010 1.2750
" />
<path d="M3.8010 1.4080
L3.9520 1.4080
" />
<path d="M3.8010 1.9530
L3.8010 1.8540
" />
<path d="M3.8010 1.9960
L3.8010 1.9530
" />
<path d="M3.8010 2.7540
L3.8010 2.7970
" />
<path d="M3.8010 2.7970
L3.8010 2.8960
" />
<path d="M3.8010 3.3420
L3.8010 3.4760
" />
<path d="M3.8010 3.4760
L3.8010 3.5750
" />
<path d="M3.8010 3.5750
L3.8010 3.7080
" />
<path d="M3.8010 3.7080
L3.9520 3.7080
" />
<path d="M3.8010 3.8750
L3.8010 3.8950
" />
<path d="M3.8010 3.8950
L3.8010 4.1760
" />
<path d="M3.9520 0.5750
L3.8010 0.5750
" />
<path d="M3.9520 0.8560
L3.9520 0.5750
" />
<path d="M3.9520 0.8760
L3.9520 0.8560
" />
<path d="M3.9520 1.0430
L3.8010 1.0430
" />
<path d="M3.9520 1.1760
L3.9520 1.0430
" />
<path d="M3.9520 1.2750
L3.9520 1.1760
" />
<path d="M3.9520 1.4080
L3.9520 1.2750
" />
<path d="M3.9520 1.9530
L3.9520 1.8540
" />
<path d="M3.9520 1.9960
L3.8010 1.9960
" />
<path d="M3.9520 1.9960
L3.9520 1.9530
" />
<path d="M3.9520 2.7540
L3.8010 2.7540
" />
<path d="M3.9520 2.7540
L3.9520 2.7970
" />
<path d="M3.9520 2.7970
L3.9520 2.8960
" />
<path d="M3.9520 3.3420
L3.8010 3.3420
" />
<path d="M3.9520 3.3420
L3.9520 3.4760
" />
<path d="M3.9520 3.4760
L3.9520 3.5750
" />
<path d="M3.9520 3.5750
L3.9520 3.7080
" />
<path d="M3.9520 3.8750
L3.9520 3.8950
" />
<path d="M3.9520 3.8950
L3.9520 4.1760
" />
<path d="M3.9520 4.1760
L3.8010 4.1760
" />
<path d="M3.9860 1.5740
L3.9860 1.8540
" />
<path d="M3.9860 1.5740
L4.1660 1.5740
" />
<path d="M3.9860 1.8540
L4.0370 1.8540
" />
<path d="M3.9860 2.8960
L4.0370 2.8960
" />
<path d="M3.9860 3.1760
L3.9860 2.8960
" />
<path d="M3.9860 3.1760
L4.1660 3.1760
" />
<path d="M4.0370 1.6660
L3.9860 1.5740
" />
<path d="M4.0370 1.6660
L4.1150 1.6660
" />
<path d="M4.0370 1.8540
L4.0370 1.6660
" />
<path d="M4.0370 1.8540
L4.1150 1.8540
" />
<path d="M4.0370 2.8960
L4.0370 3.0840
" />
<path d="M4.0370 2.8960
L4.1150 2.8960
" />
<path d="M4.0370 3.0840
L3.9860 3.1760
" />
<path d="M4.0370 3.0840
L4.1150 3.0840
" />
<path d="M4.1150 1.6660
L4.1150 1.8540
" />
<path d="M4.1150 1.8540
L4.1660 1.8540
" />
<path d="M4.1150 2.8960
L4.1660 2.8960
" />
<path d="M4.1150 3.0840
L4.1150 2.8960
" />
<path d="M4.1660 1.5740
L4.1150 1.6660
" />
<path d="M4.1660 1.8540
L4.1660 1.5740
" />
<path d="M4.1660 1.8540
L4.3860 1.8540
" />
<path d="M4.1660 2.8960
L4.1660 3.1760
" />
<path d="M4.1660 2.8960
L4.3860 2.8960
" />
<path d="M4.1660 3.1760
L4.1150 3.0840
" />
<path d="M4.2020 0.8560
L4.2020 0.5750
" />
<path d="M4.2020 0.8760
L4.2020 0.8560
" />
<path d="M4.2020 1.1760
L4.2020 1.0430
" />
<path d="M4.2020 1.2750
L4.2020 1.1760
" />
<path d="M4.2020 1.4080
L4.2020 1.2750
" />
<path d="M4.2020 1.4080
L4.3500 1.4080
" />
<path d="M4.2020 1.9530
L4.2020 1.8540
" />
<path d="M4.2020 1.9960
L4.2020 1.9530
" />
<path d="M4.2020 2.7540
L4.2020 2.7970
" />
<path d="M4.2020 2.7970
L4.2020 2.8960
" />
<path d="M4.2020 3.3420
L4.2020 3.4760
" />
<path d="M4.2020 3.4760
L4.2020 3.5750
" />
<path d="M4.2020 3.5750
L4.2020 3.7080
" />
<path d="M4.2020 3.7080
L4.3500 3.7080
" />
<path d="M4.2020 3.8750
L4.2020 3.8950
" />
<path d="M4.2020 3.8950
L4.2020 4.1760
" />
<path d="M4.3500 0.5750
L4.2020 0.5750
" />
<path d="M4.3500 0.8560
L4.3500 0.5750
" />
<path d="M4.3500 0.8760
L4.3500 0.8560
" />
<path d="M4.3500 1.0430
L4.2020 1.0430
" />
<path d="M4.3500 1.1760
L4.3500 1.0430
" />
<path d="M4.3500 1.2750
L4.3500 1.1760
" />
<path d="M4.3500 1.4080
L4.3500 1.2750
" />
<path d="M4.3500 1.9530
L4.3500 1.8540
" />
<path d="M4.3500 1.9960
L4.2020 1.9960
" />
<path d="M4.3500 1.9960
L4.3500 1.9530
" />
<path d="M4.3500 2.7540
L4.2020 2.7540
" />
<path d="M4.3500 2.7540
L4.3500 2.7970
" />
<path d="M4.3500 2.7970
L4.3500 2.8960
" />
<path d="M4.3500 3.3420
L4.2020 3.3420
" />
<path d="M4.3500 3.3420
L4.3500 3.4760
" />
<path d="M4.3500 3.4760
L4.3500 3.5750
" />
<path d="M4.3500 3.5750
L4.3500 3.7080
" />
<path d="M4.3500 3.8750
L4.3500 3.8950
" />
<path d="M4.3500 3.8950
L4.3500 4.1760
" />
<path d="M4.3500 4.1760
L4.2020 4.1760
" />
<path d="M4.3860 1.5740
L4.3860 1.8540
" />
<path d="M4.3860 1.5740
L4.5670 1.5740
" />
<path d="M4.3860 1.8540
L4.4370 1.8540
" />
<path d="M4.3860 2.8960
L4.4370 2.8960
" />
<path d="M4.3860 3.1760
L4.3860 2.8960
" />
<path d="M4.3860 3.1760
L4.5670 3.1760
" />
<path d="M4.4370 1.6660
L4.3860 1.5740
" />
<path d="M4.4370 1.6660
L4.5160 1.6660
" />
<path d="M4.4370 1.8540
L4.4370 1.6660
" />
<path d="M4.4370 1.8540
L4.5160 1.8540
" />
<path d="M4.4370 2.8960
L4.4370 3.0840
" />
<path d="M4.4370 2.8960
L4.5160 2.8960
" />
<path d="M4.4370 3.0840
L4.3860 3.1760
" />
<path d="M4.4370 3.0840
L4.5160 3.0840
" />
<path d="M4.5160 1.6660
L4.5160 1.8540
" />
<path d="M4.5160 1.8540
L4.5670 1.8540
" />
<path d="M4.5160 2.8960
L4.5670 2.8960
" />
<path d="M4.5160 3.0840
L4.5160 2.8960
" />
<path d="M4.5670 1.5740
L4.5160 1.6660
" />
<path d="M4.5670 1.8540
L4.5670 1.5740
" />
<path d="M4.5670 1.8540
L4.7860 1.8540
" />
<path d="M4.5670 2.8960
L4.5670 3.1760
" />
<path d="M4.5670 2.8960
L4.7860 2.8960
" />
<path d="M4.5670 3.1760
L4.5160 3.0840
" />
<path d="M4.6000 0.8560
L4.6000 0.5750
" />
<path d="M4.6000 0.8760
L4.6000 0.8560
" />
<path d="M4.6000 1.1760
L4.6000 1.0430
" />
<path d="M4.6000 1.2750
L4.6000 1.1760
" />
<path d="M4.6000 1.4080
L4.6000 1.2750
" />
<path d="M4.6000 1.4080
L4.7500 1.4080
" />
<path d="M4.6000 1.9530
L4.6000 1.8540
" />
<path d="M4.6000 1.9960
L4.6000 1.9530
" />
<path d="M4.6000 2.7540
L4.6000 2.7970
" />
<path d="M4.6000 2.7970
L4.6000 2.8960
" />
<path d="M4.6000 3.3420
L4.6000 3.4760
" />
<path d="M4.6000 3.4760
L4.6000 3.5750
" />
<path d="M4.6000 3.5750
L4.6000 3.7080
" />
<path d="M4.6000 3.7080
L4.7500 3.7080
" />
<path d="M4.6000 3.8750
L4.6000 3.8950
" />
<path d="M4.6000 3.8950
L4.6000 4.1760
" />
<path d="M4.7500 0.5750
L4.6000 0.5750
" />
<path d="M4.7500 0.8560
L4.7500 0.5750
" />
<path d="M4.7500 0.8760
L4.7500 0.8560
" />
<path d="M4.7500 1.0430
L4.6000 1.0430
" />
<path d="M4.7500 1.1760
L4.7500 1.0430
" />
<path d="M4.7500 1.2750
L4.7500 1.1760
" />
<path d="M4.7500 1.4080
L4.7500 1.2750
" />
<path d="M4.7500 1.9530
L4.7500 1.8540
" />
<path d="M4.7500 1.9960
L4.6000 1.9960
" />
<path d="M4.7500 1.9960
L4.7500 1.9530
" />
<path d="M4.7500 2.7540
L4.6000 2.7540
" />
<path d="M4.7500 2.7540
L4.7500 2.7970
" />
<path d="M4.7500 2.7970
L4.7500 2.8960
" />
<path d="M4.7500 3.3420
L4.6000 3.3420
" />
<path d="M4.7500 3.3420
L4.7500 3.4760
" />
<path d="M4.7500 3.4760
L4.7500 3.5750
" />
<path d="M4.7500 3.5750
L4.7500 3.7080
" />
<path d="M4.7500 3.8750
L4.7500 3.8950
" />
<path d="M4.7500 3.8950
L4.7500 4.1760
" />
<path d="M4.7500 4.1760
L4.6000 4.1760
" />
<path d="M4.7860 1.5740
L4.7860 1.8540
" />
<path d="M4.7860 1.5740
L4.9670 1.5740
" />
<path d="M4.7860 1.8540
L4.8370 1.8540
" />
<path d="M4.7860 2.8960
L4.8370 2.8960
" />
<path d="M4.7860 3.1760
L4.7860 2.8960
" />
<path d="M4.7860 3.1760
L4.9670 3.1760
" />
<path d="M4.8370 1.6660
L4.7860 1.5740
" />
<path d="M4.8370 1.6660
L4.9160 1.6660
" />
<path d="M4.8370 1.8540
L4.8370 1.6660
" />
<path d="M4.8370 1.8540
L4.9160 1.8540
" />
<path d="M4.8370 2.8960
L4.8370 3.0840
" />
<path d="M4.8370 2.8960
L4.9160 2.8960
" />
<path d="M4.8370 3.0840
L4.7860 3.1760
" />
<path d="M4.8370 3.0840
L4.9160 3.0840
" />
<path d="M4.9160 1.6660
L4.9160 1.8540
" />
<path d="M4.9160 1.8540
L4.9670 1.8540
" />
<path d="M4.9160 2.8960
L4.9670 2.8960
" />
<path d="M4.9160 3.0840
L4.9160 2.8960
" />
<path d="M4.9670 1.5740
L4.9160 1.6660
" />
<path d="M4.9670 1.8540
L4.9670 1.5740
" />
<path d="M4.9670 1.8540
L5.1860 1.8540
" />
<path d="M4.9670 2.8960
L4.9670 3.1760
" />
<path d="M4.9670 2.8960
L5.1860 2.8960
" />
<path d="M4.9670 3.1760
L4.9160 3.0840
" />
<path d="M5.0000 0.8560
L5.0000 0.5750
" />
<path d="M5.0000 0.8760
L5.0000 0.8560
" />
<path d="M5.0000 1.1760
L5.0000 1.0430
" />
<path d="M5.0000 1.2750
L5.0000 1.1760
" />
<path d="M5.0000 1.4080
L5.0000 1.2750
" />
<path d="M5.0000 1.4080
L5.1520 1.4080
" />
<path d="M5.0000 1.9530
L5.0000 1.8540
" />
<path d="M5.0000 1.9960
L5.0000 1.9530
" />
<path d="M5.0000 2.7540
L5.0000 2.7970
" />
<path d="M5.0000 2.7970
L5.0000 2.8960
" />
<path d="M5.0000 3.3420
L5.0000 3.4760
" />
<path d="M5.0000 3.4760
L5.0000 3.5750
" />
<path d="M5.0000 3.5750
L5.0000 3.7080
" />
<path d="M5.0000 3.7080
L5.1520 3.7080
" />
<path d="M5.0000 3.8750
L5.0000 3.8950
" />
<path d="M5.0000 3.8950
L5.0000 4.1760
" />
<path d="M5.1520 0.5750
L5.0000 0.5750
" />
<path d="M5.1520 0.8560
L5.1520 0.5750
" />
<path d="M5.1520 0.8760
L5.1520 0.8560
" />
<path d="M5.1520 1.0430
L5.0000 1.0430
" />
<path d="M5.1520 1.1760
L5.1520 1.0430
" />
<path d="M5.1520 1.2750
L5.1520 1.1760
" />
<path d="M5.1520 1.4080
L5.1520 1.2750
" />
<path d="M5.1520 1.9530
L5.1520 1.8540
" />
<path d="M5.1520 1.9960
L5.0000 1.9960
" />
<path d="M5.1520 1.9960
L5.1520 1.9530
" />
<path d="M5.1520 2.7540
L5.0000 2.7540
" />
<path d="M5.1520 2.7540
L5.1520 2.7970
" />
<path d="M5.1520 2.7970
L5.1520 2.8960
" />
<path d="M5.1520 3.3420
L5.0000 3.3420
" />
<path d="M5.1520 3.3420
L5.1520 3.4760
" />
<path d="M5.1520 3.4760
L5.1520 3.5750
" />
<path d="M5.1520 3.5750
L5.1520 3.7080
" />
<path d="M5.1520 3.8750
L5.1520 3.8950
" />
<path d="M5.1520 3.8950
L5.1520 4.1760
" />
<path d="M5.1520 4.1760
L5.0000 4.1760
" />
<path d="M5.1860 1.5740
L5.1860 1.8540
" />
<path d="M5.1860 1.5740
L5.3660 1.5740
" />
<path d="M5.1860 1.8540
L5.2370 1.8540
" />
<path d="M5.1860 2.8960
L5.2370 2.8960
" />
<path d="M5.1860 3.1760
L5.1860 2.8960
" />
<path d="M5.1860 3.1760
L5.3660 3.1760
" />
<path d="M5.2370 1.6660
L5.1860 1.5740
" />
<path d="M5.2370 1.6660
L5.3150 1.6660
" />
<path d="M5.2370 1.8540
L5.2370 1.6660
" />
<path d="M5.2370 1.8540
L5.3150 1.8540
" />
<path d="M5.2370 2.8960
L5.2370 3.0840
" />
<path d="M5.2370 2.8960
L5.3150 2.8960
" />
<path d="M5.2370 3.0840
L5.1860 3.1760
" />
<path d="M5.2370 3.0840
L5.3150 3.0840
" />
<path d="M5.3150 1.6660
L5.3150 1.8540
" />
<path d="M5.3150 1.8540
L5.3660 1.8540
" />
<path d="M5.3150 2.8960
L5.3660 2.8960
" />
<path d="M5.3150 3.0840
L5.3150 2.8960
" />
<path d="M5.3660 1.5740
L5.3150 1.6660
" />
<path d="M5.3660 1.8540
L5.3660 1.5740
" />
<path d="M5.3660 1.8540
L5.5850 1.8540
" />
<path d="M5.3660 2.8960
L5.3660 3.1760
" />
<path d="M5.3660 2.8960
L5.5850 2.8960
" />
<path d="M5.3660 3.1760
L5.3150 3.0840
" />
<path d="M5.4000 0.8560
L5.4000 0.5750
" />
<path d="M5.4000 0.8760
L5.4000 0.8560
" />
<path d="M5.4000 1.1760
L5.4000 1.0430
" />
<path d="M5.4000 1.2750
L5.4000 1.1760
" />
<path d="M5.4000 1.4080
L5.4000 1.2750
" />
<path d="M5.4000 1.4080
L5.5520 1.4080
" />
<path d="M5.4000 1.9530
L5.4000 1.8540
" />
<path d="M5.4000 1.9960
L5.4000 1.9530
" />
<path d="M5.4000 2.7540
L5.4000 2.7970
" />
<path d="M5.4000 2.7970
L5.4000 2.8960
" />
<path d="M5.4000 3.3420
L5.4000 3.4760
" />
<path d="M5.4000 3.4760
L5.4000 3.5750
" />
<path d="M5.4000 3.5750
L5.4000 3.7080
" />
<path d="M5.4000 3.7080
L5.5520 3.7080
" />
<path d="M5.4000 3.8750
L5.4000 3.8950
" />
<path d="M5.4000 3.8950
L5.4000 4.1760
" />
<path d="M5.5520 0.5750
L5.4000 0.5750
" />
<path d="M5.5520 0.8560
L5.5520 0.5750
" />
<path d="M5.5520 0.8760
L5.5520 0.8560
" />
<path d="M5.5520 1.0430
L5.4000 1.0430
" />
<path d="M5.5520 1.1760
L5.5520 1.0430
" />
<path d="M5.5520 1.2750
L5.5520 1.1760
" />
<path d="M5.5520 1.4080
L5.5520 1.2750
" />
<path d="M5.5520 1.9530
L5.5520 1.8540
" />
<path d="M5.5520 1.9960
L5.4000 1.9960
" />
<path d="M5.5520 1.9960
L5.5520 1.9530
" />
<path d="M5.5520 2.7540
L5.4000 2.7540
" />
<path d="M5.5520 2.7540
L5.5520 2.7970
" />
<path d="M5.5520 2.7970
L5.5520 2.8960
" />
<path d="M5.5520 3.3420
L5.4000 3.3420
" />
<path d="M5.5520 3.3420
L5.5520 3.4760
" />
<path d="M5.5520 3.4760
L5.5520 3.5750
" />
<path d="M5.5520 3.5750
L5.5520 3.7080
" />
<path d="M5.5520 3.8750
L5.5520 3.8950
" />
<path d="M5.5520 3.8950
L5.5520 4.1760
" />
<path d="M5.5520 4.1760
L5.4000 4.1760
" />
<path d="M5.5850 1.5740
L5.5850 1.8540
" />
<path d="M5.5850 1.5740
L5.7660 1.5740
" />
<path d="M5.5850 1.8540
L5.6360 1.8540
" />
<path d="M5.5850 2.8960
L5.6360 2.8960
" />
<path d="M5.5850 3.1760
L5.5850 2.8960
" />
<path d="M5.5850 3.1760
L5.7660 3.1760
" />
<path d="M5.6360 1.6660
L5.5850 1.5740
" />
<path d="M5.6360 1.6660
L5.7150 1.6660
" />
<path d="M5.6360 1.8540
L5.6360 1.6660
" />
<path d="M5.6360 1.8540
L5.7150 1.8540
" />
<path d="M5.6360 2.8960
L5.6360 3.0840
" />
<path d="M5.6360 2.8960
L5.7150 2.8960
" />
<path d="M5.6360 3.0840
L5.5850 3.1760
" />
<path d="M5.6360 3.0840
L5.7150 3.0840
" />
<path d="M5.7150 1.6660
L5.7150 1.8540
" />
<path d="M5.7150 1.8540
L5.7660 1.8540
" />
<path d="M5.7150 2.8960
L5.7660 2.8960
" />
<path d="M5.7150 3.0840
L5.7150 2.8960
" />
<path d="M5.7660 1.5740
L5.7150 1.6660
" />
<path d="M5.7660 1.8540
L5.7660 1.5740
" />
<path d="M5.7660 1.8540
L5.9850 1.8540
" />
<path d="M5.7660 2.8960
L5.7660 3.1760
" />
<path d="M5.7660 2.8960
L5.9850 2.8960
" />
<path d="M5.7660 3.1760
L5.7150 3.0840
" />
<path d="M5.8020 0.8560
L5.8020 0.5750
" />
<path d="M5.8020 0.8760
L5.8020 0.8560
" />
<path d="M5.8020 1.1760
L5.8020 1.0430
" />
<path d="M5.8020 1.2750
L5.8020 1.1760
" />
<path d="M5.8020 1.4080
L5.8020 1.2750
" />
<path d="M5.8020 1.4080
L5.9520 1.4080
" />
<path d="M5.8020 1.9530
L5.8020 1.8540
" />
<path d="M5.8020 1.9960
L5.8020 1.9530
" />
<path d="M5.8020 2.7540
L5.8020 2.7970
" />
<path d="M5.8020 2.7970
L5.8020 2.8960
" />
<path d="M5.8020 3.3420
L5.8020 3.4760
" />
<path d="M5.8020 3.4760
L5.8020 3.5750
" />
<path d="M5.8020 3.5750
L5.8020 3.7080
" />
<path d="M5.8020 3.7080
L5.9520 3.7080
" />
<path d="M5.8020 3.8750
L5.8020 3.8950
" />
<path d="M5.8020 3.8950
L5.8020 4.1760
" />
<path d="M5.9520 0.5750
L5.8020 0.5750
" />
<path d="M5.9520 0.8560
L5.9520 0.5750
" />
<path d="M5.9520 0.8760
L5.9520 0.8560
" />
<path d="M5.9520 1.0430
L5.8020 1.0430
" />
<path d="M5.9520 1.1760
L5.9520 1.0430
" />
<path d="M5.9520 1.2750
L5.9520 1.1760
" />
<path d="M5.9520 1.4080
L5.9520 1.2750
" />
<path d="M5.9520 1.9530
L5.9520 1.8540
" />
<path d="M5.9520 1.9960
L5.8020 1.9960
" />
<path d="M5.9520 1.9960
L5.9520 1.9530
" />
<path d="M5.9520 2.7540
L5.8020 2.7540
" />
<path d="M5.9520 2.7540
L5.9520 2.7970
" />
<path d="M5.9520 2.7970
L5.9520 2.8960
" />
<path d="M5.9520 3.3420
L5.8020 3.3420
" />
<path d="M5.9520 3.3420
L5.9520 3.4760
" />
<path d="M5.9520 3.4760
L5.9520 3.5750
" />
<path d="M5.9520 3.5750
L5.9520 3.7080
" />
<path d="M5.9520 3.8750
L5.9520 3.8950
" />
<path d="M5.9520 3.8950
L5.9520 4.1760
" />
<path d="M5.9520 4.1760
L5.8020 4.1760
" />
<path d="M5.9850 1.5740
L5.9850 1.8540
" />
<path d="M5.9850 1.5740
L6.1660 1.5740
" />
<path d="M5.9850 1.8540
L6.0360 1.8540
" />
<path d="M5.9850 2.8960
L6.0360 2.8960
" />
<path d="M5.9850 3.1760
L5.9850 2.8960
" />
<path d="M5.9850 3.1760
L6.1660 3.1760
" />
<path d="M6.0360 1.6660
L5.9850 1.5740
" />
<path d="M6.0360 1.6660
L6.1150 1.6660
" />
<path d="M6.0360 1.8540
L6.0360 1.6660
" />
<path d="M6.0360 1.8540
L6.1150 1.8540
" />
<path d="M6.0360 2.8960
L6.0360 3.0840
" />
<path d="M6.0360 2.8960
L6.1150 2.8960
" />
<path d="M6.0360 3.0840
L5.9850 3.1760
" />
<path d="M6.0360 3.0840
L6.1150 3.0840
" />
<path d="M6.1150 1.6660
L6.1150 1.8540
" />
<path d="M6.1150 1.8540
L6.1660 1.8540
" />
<path d="M6.1150 2.8960
L6.1660 2.8960
" />
<path d="M6.1150 3.0840
L6.1150 2.8960
" />
<path d="M6.1660 1.5740
L6.1150 1.6660
" />
<path d="M6.1660 1.8540
L6.1660 1.5740
" />
<path d="M6.1660 1.8540
L6.3850 1.8540
" />
<path d="M6.1660 2.8960
L6.1660 3.1760
" />
<path d="M6.1660 2.8960
L6.3850 2.8960
" />
<path d="M6.1660 3.1760
L6.1150 3.0840
" />
<path d="M6.2020 0.8560
L6.2020 0.5750
" />
<path d="M6.2020 0.8760
L6.2020 0.8560
" />
<path d="M6.2020 1.1760
L6.2020 1.0430
" />
<path d="M6.2020 1.2750
L6.2020 1.1760
" />
<path d="M6.2020 1.4080
L6.2020 1.2750
" />
<path d="M6.2020 1.4080
L6.3510 1.4080
" />
<path d="M6.2020 1.9530
L6.2020 1.8540
" />
<path d="M6.2020 1.9960
L6.2020 1.9530
" />
<path d="M6.2020 2.7540
L6.2020 2.7970
" />
<path d="M6.2020 2.7970
L6.2020 2.8960
" />
<path d="M6.2020 3.3420
L6.2020 3.4760
" />
<path d="M6.2020 3.4760
L6.2020 3.5750
" />
<path d="M6.2020 3.5750
L6.2020 3.7080
" />
<path d="M6.2020 3.7080
L6.3510 3.7080
" />
<path d="M6.2020 3.8750
L6.2020 3.8950
" />
<path d="M6.2020 3.8950
L6.2020 4.1760
" />
<path d="M6.3510 0.5750
L6.2020 0.5750
" />
<path d="M6.3510 0.8560
L6.3510 0.5750
" />
<path d="M6.3510 0.8760
L6.3510 0.8560
" />
<path d="M6.3510 1.0430
L6.2020 1.0430
" />
<path d="M6.3510 1.1760
L6.3510 1.0430
" />
<path d="M6.3510 1.2750
L6.3510 1.1760
" />
<path d="M6.3510 1.4080
L6.3510 1.2750
" />
<path d="M6.3510 1.9530
L6.3510 1.8540
" />
<path d="M6.3510 1.9960
L6.2020 1.9960
" />
<path d="M6.3510 1.9960
L6.3510 1.9530
" />
<path d="M6.3510 2.7540
L6.2020 2.7540
" />
<path d="M6.3510 2.7540
L6.3510 2.7970
" />
<path d="M6.3510 2.7970
L6.3510 2.8960
" />
<path d="M6.3510 3.3420
L6.2020 3.3420
" />
<path d="M6.3510 3.3420
L6.3510 3.4760
" />
<path d="M6.3510 3.4760
L6.3510 3.5750
" />
<path d="M6.3510 3.5750
L6.3510 3.7080
" />
<path d="M6.3510 3.8750
L6.3510 3.8950
" />
<path d="M6.3510 3.8950
L6.3510 4.1760
" />
<path d="M6.3510 4.1760
L6.2020 4.1760
" />
<path d="M6.3850 1.5740
L6.3850 1.8540
" />
<path d="M6.3850 1.5740
L6.5670 1.5740
" />
<path d="M6.3850 1.8540
L6.4360 1.8540
" />
<path d="M6.3850 2.8960
L6.4360 2.8960
" />
<path d="M6.3850 3.1760
L6.3850 2.8960
" />
<path d="M6.3850 3.1760
L6.5670 3.1760
" />
<path d="M6.4360 1.6660
L6.3850 1.5740
" />
<path d="M6.4360 1.6660
L6.5160 1.6660
" />
<path d="M6.4360 1.8540
L6.4360 1.6660
" />
<path d="M6.4360 1.8540
L6.5160 1.8540
" />
<path d="M6.4360 2.8960
L6.4360 3.0840
" />
<path d="M6.4360 2.8960
L6.5160 2.8960
" />
<path d="M6.4360 3.0840
L6.3850 3.1760
" />
<path d="M6.4360 3.0840
L6.5160 3.0840
" />
<path d="M6.5160 1.6660
L6.5160 1.8540
" />
<path d="M6.5160 1.8540
L6.5670 1.8540
" />
<path d="M6.5160 2.8960
L6.5670 2.8960
" />
<path d="M6.5160 3.0840
L6.5160 2.8960
" />
<path d="M6.5670 1.5740
L6.5160 1.6660
" />
<path d="M6.5670 1.8540
L6.5670 1.5740
" />
<path d="M6.5670 1.8540
L6.7860 1.8540
" />
<path d="M6.5670 2.8960
L6.5670 3.1760
" />
<path d="M6.5670 2.8960
L6.7860 2.8960
" />
<path d="M6.5670 3.1760
L6.5160 3.0840
" />
<path d="M6.6010 0.8560
L6.6010 0.5750
" />
<path d="M6.6010 0.8760
L6.6010 0.8560
" />
<path d="M6.6010 1.1760
L6.6010 1.0430
" />
<path d="M6.6010 1.2750
L6.6010 1.1760
" />
<path d="M6.6010 1.4080
L6.6010 1.2750
" />
<path d="M6.6010 1.4080
L6.7520 1.4080
" />
<path d="M6.6010 1.9530
L6.6010 1.8540
" />
<path d="M6.6010 1.9960
L6.6010 1.9530
" />
<path d="M6.6010 2.7540
L6.6010 2.7970
" />
<path d="M6.6010 2.7970
L6.6010 2.8960
" />
<path d="M6.6010 3.3420
L6.6010 3.4760
" />
<path d="M6.6010 3.4760
L6.6010 3.5750
" />
<path d="M6.6010 3.5750
L6.6010 3.7080
" />
<path d="M6.6010 3.7080
L6.7520 3.7080
" />
<path d="M6.6010 3.8750
L6.6010 3.8950
" />
<path d="M6.6010 3.8950
L6.6010 4.1760
" />
<path d="M6.7520 0.5750
L6.6010 0.5750
" />
<path d="M6.7520 0.8560
L6.7520 0.5750
" />
<path d="M6.7520 0.8760
L6.7520 0.8560
" />
<path d="M6.7520 1.0430
L6.6010 1.0430
" />
<path d="M6.7520 1.1760
L6.7520 1.0430
" />
<path d="M6.7520 1.2750
L6.7520 1.1760
" />
<path d="M6.7520 1.4080
L6.7520 1.2750
" />
<path d="M6.7520 1.9530
L6.7520 1.8540
" />
<path d="M6.7520 1.9960
L6.6010 1.9960
" />
<path d="M6.7520 1.9960
L6.7520 1.9530
" />
<path d="M6.7520 2.7540
L6.6010 2.7540
" />
<path d="M6.7520 2.7540
L6.7520 2.7970
" />
<path d="M6.7520 2.7970
L6.7520 2.8960
" />
<path d="M6.7520 3.3420
L6.6010 3.3420
" />
<path d="M6.7520 3.3420
L6.7520 3.4760
" />
<path d="M6.7520 3.4760
L6.7520 3.5750
" />
<path d="M6.7520 3.5750
L6.7520 3.7080
" />
<path d="M6.7520 3.8750
L6.7520 3.8950
" />
<path d="M6.7520 3.8950
L6.7520 4.1760
" />
<path d="M6.7520 4.1760
L6.6010 4.1760
" />
<path d="M6.7860 1.5740
L6.7860 1.8540
" />
<path d="M6.7860 1.5740
L6.9660 1.5740
" />
<path d="M6.7860 1.8540
L6.8370 1.8540
" />
<path d="M6.7860 2.8960
L6.8370 2.8960
" />
<path d="M6.7860 3.1760
L6.7860 2.8960
" />
<path d="M6.7860 3.1760
L6.9660 3.1760
" />
<path d="M6.8370 1.6660
L6.7860 1.5740
" />
<path d="M6.8370 1.6660
L6.9150 1.6660
" />
<path d="M6.8370 1.8540
L6.8370 1.6660
" />
<path d="M6.8370 1.8540
L6.9150 1.8540
" />
<path d="M6.8370 2.8960
L6.8370 3.0840
" />
<path d="M6.8370 2.8960
L6.9150 2.8960
" />
<path d="M6.8370 3.0840
L6.7860 3.1760
" />
<path d="M6.8370 3.0840
L6.9150 3.0840
" />
<path d="M6.9150 1.6660
L6.9150 1.8540
" />
<path d="M6.9150 1.8540
L6.9660 1.8540
" />
<path d="M6.9150 2.8960
L6.9660 2.8960
" />
<path d="M6.9150 3.0840
L6.9150 2.8960
" />
<path d="M6.9660 1.5740
L6.9150 1.6660
" />
<path d="M6.9660 1.8540
L6.9660 1.5740
" />
<path d="M6.9660 1.8540
L7.1850 1.8540
" />
<path d="M6.9660 2.8960
L6.9660 3.1760
" />
<path d="M6.9660 2.8960
L7.1850 2.8960
" />
<path d="M6.9660 3.1760
L6.9150 3.0840
" />
<path d="M7.0020 0.8560
L7.0020 0.5750
" />
<path d="M7.0020 0.8760
L7.0020 0.8560
" />
<path d="M7.0020 1.1760
L7.0020 1.0430
" />
<path d="M7.0020 1.2750
L7.0020 1.1760
" />
<path d="M7.0020 1.4080
L7.0020 1.2750
" />
<path d="M7.0020 1.4080
L7.1510 1.4080
" />
<path d="M7.0020 1.9530
L7.0020 1.8540
" />
<path d="M7.0020 1.9960
L7.0020 1.9530
" />
<path d="M7.0020 2.7540
L7.0020 2.7970
" />
<path d="M7.0020 2.7970
L7.0020 2.8960
" />
<path d="M7.0020 3.3420
L7.0020 3.4760
" />
<path d="M7.0020 3.4760
L7.0020 3.5750
" />
<path d="M7.0020 3.5750
L7.0020 3.7080
" />
<path d="M7.0020 3.7080
L7.1510 3.7080
" />
<path d="M7.0020 3.8750
L7.0020 3.8950
" />
<path d="M7.0020 3.8950
L7.0020 4.1760
" />
<path d="M7.1510 0.5750
L7.0020 0.5750
" />
<path d="M7.1510 0.8560
L7.1510 0.5750
" />
<path d="M7.1510 0.8760
L7.1510 0.8560
" />
<path d="M7.1510 1.0430
L7.0020 1.0430
" />
<path d="M7.1510 1.1760
L7.1510 1.0430
" />
<path d="M7.1510 1.2750
L7.1510 1.1760
" />
<path d="M7.1510 1.4080
L7.1510 1.2750
" />
<path d="M7.1510 1.9530
L7.1510 1.8540
" />
<path d="M7.1510 1.9960
L7.0020 1.9960
" />
<path d="M7.1510 1.9960
L7.1510 1.9530
" />
<path d="M7.1510 2.7540
L7.0020 2.7540
" />
<path d="M7.1510 2.7540
L7.1510 2.7970
" />
<path d="M7.1510 2.7970
L7.1510 2.8960
" />
<path d="M7.1510 3.3420
L7.0020 3.3420
" />
<path d="M7.1510 3.3420
L7.1510 3.4760
" />
<path d="M7.1510 3.4760
L7.1510 3.5750
" />
<path d="M7.1510 3.5750
L7.1510 3.7080
" />
<path d="M7.1510 3.8750
L7.1510 3.8950
" />
<path d="M7.1510 3.8950
L7.1510 4.1760
" />
<path d="M7.1510 4.1760
L7.0020 4.1760
" />
<path d="M7.1850 1.5740
L7.1850 1.8540
" />
<path d="M7.1850 1.5740
L7.3660 1.5740
" />
<path d="M7.1850 1.8540
L7.2360 1.8540
" />
<path d="M7.1850 2.8960
L7.2360 2.8960
" />
<path d="M7.1850 3.1760
L7.1850 2.8960
" />
<path d="M7.1850 3.1760
L7.3660 3.1760
" />
<path d="M7.2360 1.6660
L7.1850 1.5740
" />
<path d="M7.2360 1.6660
L7.3160 1.6660
" />
<path d="M7.2360 1.8540
L7.2360 1.6660
" />
<path d="M7.2360 1.8540
L7.3160 1.8540
" />
<path d="M7.2360 2.8960
L7.2360 3.0840
" />
<path d="M7.2360 2.8960
L7.3160 2.8960
" />
<path d="M7.2360 3.0840
L7.1850 3.1760
" />
<path d="M7.2360 3.0840
L7.3160 3.0840
" />
<path d="M7.3160 1.6660
L7.3160 1.8540
" />
<path d="M7.3160 1.8540
L7.3660 1.8540
" />
<path d="M7.3160 2.8960
L7.3660 2.8960
" />
<path d="M7.3160 3.0840
L7.3160 2.8960
" />
<path d="M7.3660 1.5740
L7.3160 1.6660
" />
<path d="M7.3660 1.8540
L7.3660 1.5740
" />
<path d="M7.3660 1.8540
L7.5860 1.8540
" />
<path d="M7.3660 2.8960
L7.3660 3.1760
" />
<path d="M7.3660 2.8960
L7.5860 2.8960
" />
<path d="M7.3660 3.1760
L7.3160 3.0840
" />
<path d="M7.4010 0.8560
L7.4010 0.5750
" />
<path d="M7.4010 0.8760
L7.4010 0.8560
" />
<path d="M7.4010 1.1760
L7.4010 1.0430
" />
<path d="M7.4010 1.2750
L7.4010 1.1760
" />
<path d="M7.4010 1.4080
L7.4010 1.2750
" />
<path d="M7.4010 1.4080
L7.5500 1.4080
" />
<path d="M7.4010 1.9530
L7.4010 1.8540
" />
<path d="M7.4010 1.9960
L7.4010 1.9530
" />
<path d="M7.4010 2.7540
L7.4010 2.7970
" />
<path d="M7.4010 2.7970
L7.4010 2.8960
" />
<path d="M7.4010 3.3420
L7.4010 3.4760
" />
<path d="M7.4010 3.4760
L7.4010 3.5750
" />
<path d="M7.4010 3.5750
L7.4010 3.7080
" />
<path d="M7.4010 3.7080
L7.5500 3.7080
" />
<path d="M7.4010 3.8750
L7.4010 3.8950
" />
<path d="M7.4010 3.8950
L7.4010 4.1760
" />
<path d="M7.5500 0.5750
L7.4010 0.5750
" />
<path d="M7.5500 0.8560
L7.5500 0.5750
" />
<path d="M7.5500 0.8760
L7.5500 0.8560
" />
<path d="M7.5500 1.0430
L7.4010 1.0430
" />
<path d="M7.5500 1.1760
L7.5500 1.0430
" />
<path d="M7.5500 1.2750
L7.5500 1.1760
" />
<path d="M7.5500 1.4080
L7.5500 1.2750
" />
<path d="M7.5500 1.9530
L7.5500 1.8540
" />
<path d="M7.5500 1.9960
L7.4010 1.9960
" />
<path d="M7.5500 1.9960
L7.5500 1.9530
" />
<path d="M7.5500 2.7540
L7.4010 2.7540
" />
<path d="M7.5500 2.7540
L7.5500 2.7970
" />
<path d="M7.5500 2.7970
L7.5500 2.8960
" />
<path d="M7.5500 3.3420
L7.4010 3.3420
" />
<path d="M7.5500 3.3420
L7.5500 3.4760
" />
<path d="M7.5500 3.4760
L7.5500 3.5750
" />
<path d="M7.5500 3.5750
L7.5500 3.7080
" />
<path d="M7.5500 3.8750
L7.5500 3.8950
" />
<path d="M7.5500 3.8950
L7.5500 4.1760
" />
<path d="M7.5500 4.1760
L7.4010 4.1760
" />
<path d="M7.5860 1.5740
L7.5860 1.8540
" />
<path d="M7.5860 1.5740
L7.7670 1.5740
" />
<path d="M7.5860 1.8540
L7.6360 1.8540
" />
<path d="M7.5860 2.8960
L7.6360 2.8960
" />
<path d="M7.5860 3.1760
L7.5860 2.8960
" />
<path d="M7.5860 3.1760
L7.7670 3.1760
" />
<path d="M7.6360 1.6660
L7.5860 1.5740
" />
<path d="M7.6360 1.6660
L7.7160 1.6660
" />
<path d="M7.6360 1.8540
L7.6360 1.6660
" />
<path d="M7.6360 1.8540
L7.7160 1.8540
" />
<path d="M7.6360 2.8960
L7.6360 3.0840
" />
<path d="M7.6360 2.8960
L7.7160 2.8960
" />
<path d="M7.6360 3.0840
L7.5860 3.1760
" />
<path d="M7.6360 3.0840
L7.7160 3.0840
" />
<path d="M7.7160 1.6660
L7.7160 1.8540
" />
<path d="M7.7160 1.8540
L7.7670 1.8540
" />
<path d="M7.7160 2.8960
L7.7670 2.8960
" />
<path d="M7.7160 3.0840
L7.7160 2.8960
" />
<path d="M7.7670 1.5740
L7.7160 1.6660
" />
<path d="M7.7670 1.8540
L7.7670 1.5740
" />
<path d="M7.7670 1.8540
L7.9860 1.8540
" />
<path d="M7.7670 2.8960
L7.7670 3.1760
" />
<path d="M7.7670 2.8960
L7.9860 2.8960
" />
<path d="M7.7670 3.1760
L7.7160 3.0840
" />
<path d="M7.8000 0.8560
L7.8000 0.5750
" />
<path d="M7.8000 0.8760
L7.8000 0.8560
" />
<path d="M7.8000 1.1760
L7.8000 1.0430
" />
<path d="M7.8000 1.2750
L7.8000 1.1760
" />
<path d="M7.8000 1.4080
L7.8000 1.2750
" />
<path d="M7.8000 1.4080
L7.9500 1.4080
" />
<path d="M7.8000 1.9530
L7.8000 1.8540
" />
<path d="M7.8000 1.9960
L7.8000 1.9530
" />
<path d="M7.8000 2.7540
L7.8000 2.7970
" />
<path d="M7.8000 2.7970
L7.8000 2.8960
" />
<path d="M7.8000 3.3420
L7.8000 3.4760
" />
<path d="M7.8000 3.4760
L7.8000 3.5750
" />
<path d="M7.8000 3.5750
L7.8000 3.7080
" />
<path d="M7.8000 3.7080
L7.9500 3.7080
" />
<path d="M7.8000 3.8750
L7.8000 3.8950
" />
<path d="M7.8000 3.8950
L7.8000 4.1760
" />
<path d="M7.9500 0.5750
L7.8000 0.5750
" />
<path d="M7.9500 0.8560
L7.9500 0.5750
" />
<path d="M7.9500 0.8760
L7.9500 0.8560
" />
<path d="M7.9500 1.0430
L7.8000 1.0430
" />
<path d="M7.9500 1.1760
L7.9500 1.0430
" />
<path d="M7.9500 1.2750
L7.9500 1.1760
" />
<path d="M7.9500 1.4080
L7.9500 1.2750
" />
<path d="M7.9500 1.9530
L7.9500 1.8540
" />
<path d="M7.9500 1.9960
L7.8000 1.9960
" />
<path d="M7.9500 1.9960
L7.9500 1.9530
" />
<path d="M7.9500 2.7540
L7.8000 2.7540
" />
<path d="M7.9500 2.7540
L7.9500 2.7970
" />
<path d="M7.9500 2.7970
L7.9500 2.8960
" />
<path d="M7.9500 3.3420
L7.8000 3.3420
" />
<path d="M7.9500 3.3420
L7.9500 3.4760
" />
<path d="M7.9500 3.4760
L7.9500 3.5750
" />
<path d="M7.9500 3.5750
L7.9500 3.7080
" />
<path d="M7.9500 3.8750
L7.9500 3.8950
" />
<path d="M7.9500 3.8950
L7.9500 4.1760
" />
<path d="M7.9500 4.1760
L7.8000 4.1760
" />
<path d="M7.9860 1.5740
L7.9860 1.8540
" />
<path d="M7.9860 1.5740
L8.1670 1.5740
" />
<path d="M7.9860 1.8540
L8.0370 1.8540
" />
<path d="M7.9860 2.8960
L8.0370 2.8960
" />
<path d="M7.9860 3.1760
L7.9860 2.8960
" />
<path d="M7.9860 3.1760
L8.1670 3.1760
" />
<path d="M8.0370 1.6660
L7.9860 1.5740
" />
<path d="M8.0370 1.6660
L8.1150 1.6660
" />
<path d="M8.0370 1.8540
L8.0370 1.6660
" />
<path d="M8.0370 1.8540
L8.1150 1.8540
" />
<path d="M8.0370 2.8960
L8.0370 3.0840
" />
<path d="M8.0370 2.8960
L8.1150 2.8960
" />
<path d="M8.0370 3.0840
L7.9860 3.1760
" />
<path d="M8.0370 3.0840
L8.1150 3.0840
" />
<path d="M8.1150 1.6660
L8.1150 1.8540
" />
<path d="M8.1150 1.8540
L8.1670 1.8540
" />
<path d="M8.1150 2.8960
L8.1670 2.8960
" />
<path d="M8.1150 3.0840
L8.1150 2.8960
" />
<path d="M8.1670 1.5740
L8.1150 1.6660
" />
<path d="M8.1670 1.8540
L8.1670 1.5740
" />
<path d="M8.1670 1.8540
L8.3850 1.8540
" />
<path d="M8.1670 2.8960
L8.1670 3.1760
" />
<path d="M8.1670 2.8960
L8.3850 2.8960
" />
<path d="M8.1670 3.1760
L8.1150 3.0840
" />
<path d="M8.2000 0.8560
L8.2000 0.5750
" />
<path d="M8.2000 0.8760
L8.2000 0.8560
" />
<path d="M8.2000 1.1760
L8.2000 1.0430
" />
<path d="M8.2000 1.2750
L8.2000 1.1760
" />
<path d="M8.2000 1.4080
L8.2000 1.2750
" />
<path d="M8.2000 1.4080
L8.3520 1.4080
" />
<path d="M8.2000 1.9530
L8.2000 1.8540
" />
<path d="M8.2000 1.9960
L8.2000 1.9530
" />
<path d="M8.2000 2.7540
L8.2000 2.7970
" />
<path d="M8.2000 2.7970
L8.2000 2.8960
" />
<path d="M8.2000 3.3420
L8.2000 3.4760
" />
<path d="M8.2000 3.4760
L8.2000 3.5750
" />
<path d="M8.2000 3.5750
L8.2000 3.7080
" />
<path d="M8.2000 3.7080
L8.3520 3.7080
" />
<path d="M8.2000 3.8750
L8.2000 3.8950
" />
<path d="M8.2000 3.8950
L8.2000 4.1760
" />
<path d="M8.3520 0.5750
L8.2000 0.5750
" />
<path d="M8.3520 0.8560
L8.3520 0.5750
" />
<path d="M8.3520 0.8760
L8.3520 0.8560
" />
<path d="M8.3520 1.0430
L8.2000 1.0430
" />
<path d="M8.3520 1.1760
L8.3520 1.0430
" />
<path d="M8.3520 1.2750
L8.3520 1.1760
" />
<path d="M8.3520 1.4080
L8.3520 1.2750
" />
<path d="M8.3520 1.9530
L8.3520 1.8540
" />
<path d="M8.3520 1.9960
L8.2000 1.9960
" />
<path d="M8.3520 1.9960
L8.3520 1.9530
" />
<path d="M8.3520 2.7540
L8.2000 2.7540
" />
<path d="M8.3520 2.7540
L8.3520 2.7970
" />
<path d="M8.3520 2.7970
L8.3520 2.8960
" />
<path d="M8.3520 3.3420
L8.2000 3.3420
" />
<path d="M8.3520 3.3420
L8.3520 3.4760
" />
<path d="M8.3520 3.4760
L8.3520 3.5750
" />
<path d="M8.3520 3.5750
L8.3520 3.7080
" />
<path d="M8.3520 3.8750
L8.3520 3.8950
" />
<path d="M8.3520 3.8950
L8.3520 4.1760
" />
<path d="M8.3520 4.1760
L8.2000 4.1760
" />
<path d="M8.3850 1.5740
L8.3850 1.8540
" />
<path d="M8.3850 1.5740
L8.5660 1.5740
" />
<path d="M8.3850 1.8540
L8.4370 1.8540
" />
<path d="M8.3850 2.8960
L8.4370 2.8960
" />
<path d="M8.3850 3.1760
L8.3850 2.8960
" />
<path d="M8.3850 3.1760
L8.5660 3.1760
" />
<path d="M8.4370 1.6660
L8.3850 1.5740
" />
<path d="M8.4370 1.6660
L8.5150 1.6660
" />
<path d="M8.4370 1.8540
L8.4370 1.6660
" />
<path d="M8.4370 1.8540
L8.5150 1.8540
" />
<path d="M8.4370 2.8960
L8.4370 3.0840
" />
<path d="M8.4370 2.8960
L8.5150 2.8960
" />
<path d="M8.4370 3.0840
L8.3850 3.1760
" />
<path d="M8.4370 3.0840
L8.5150 3.0840
" />
<path d="M8.5150 1.6660
L8.5150 1.8540
" />
<path d="M8.5150 1.8540
L8.5660 1.8540
" />
<path d="M8.5150 2.8960
L8.5660 2.8960
" />
<path d="M8.5150 3.0840
L8.5150 2.8960
" />
<path d="M8.5660 1.5740
L8.5150 1.6660
" />
<path d="M8.5660 1.8540
L8.5660 1.5740
" />
<path d="M8.5660 1.8540
L8.7850 1.8540
" />
<path d="M8.5660 2.8960
L8.5660 3.1760
" />
<path d="M8.5660 2.8960
L8.7850 2.8960
" />
<path d="M8.5660 3.1760
L8.5150 3.0840
" />
<path d="M8.6020 0.8560
L8.6020 0.5750
" />
<path d="M8.6020 0.8760
L8.6020 0.8560
" />
<path d="M8.6020 1.1760
L8.6020 1.0430
" />
<path d="M8.6020 1.2750
L8.6020 1.1760
" />
<path d="M8.6020 1.4080
L8.6020 1.2750
" />
<path d="M8.6020 1.4080
L8.7520 1.4080
" />
<path d="M8.6020 1.9530
L8.6020 1.8540
" />
<path d="M8.6020 1.9960
L8.6020 1.9530
" />
<path d="M8.6020 2.7540
L8.6020 2.7970
" />
<path d="M8.6020 2.7970
L8.6020 2.8960
" />
<path d="M8.6020 3.3420
L8.6020 3.4760
" />
<path d="M8.6020 3.4760
L8.6020 3.5750
" />
<path d="M8.6020 3.5750
L8.6020 3.7080
" />
<path d="M8.6020 3.7080
L8.7520 3.7080
" />
<path d="M8.6020 3.8750
L8.6020 3.8950
" />
<path d="M8.6020 3.8950
L8.6020 4.1760
" />
<path d="M8.7520 0.5750
L8.6020 0.5750
" />
<path d="M8.7520 0.8560
L8.7520 0.5750
" />
<path d="M8.7520 0.8760
L8.7520 0.8560
" />
<path d="M8.7520 1.0430
L8.6020 1.0430
" />
<path d="M8.7520 1.1760
L8.7520 1.0430
" />
<path d="M8.7520 1.2750
L8.7520 1.1760
" />
<path d="M8.7520 1.4080
L8.7520 1.2750
" />
<path d="M8.7520 1.9530
L8.7520 1.8540
" />
<path d="M8.7520 1.9960
L8.6020 1.9960
" />
<path d="M8.7520 1.9960
L8.7520 1.9530
" />
<path d="M8.7520 2.7540
L8.6020 2.7540
" />
<path d="M8.7520 2.7540
L8.7520 2.7970
" />
<path d="M8.7520 2.7970
L8.7520 2.8960
" />
<path d="M8.7520 3.3420
L8.6020 3.3420
" />
<path d="M8.7520 3.3420
L8.7520 3.4760
" />
<path d="M8.7520 3.4760
L8.7520 3.5750
" />
<path d="M8.7520 3.5750
L8.7520 3.7080
" />
<path d="M8.7520 3.8750
L8.7520 3.8950
" />
<path d="M8.7520 3.8950
L8.7520 4.1760
" />
<path d="M8.7520 4.1760
L8.6020 4.1760
" />
<path d="M8.7850 1.5740
L8.7850 1.8540
" />
<path d="M8.7850 1.8540
L8.8360 1.8540
" />
<path d="M8.7850 2.8960
L8.8360 2.8960
" />
<path d="M8.7850 3.1760
L8.7850 2.8960
" />
<path d="M8.8360 1.6660
L8.7850 1.5740
" />
<path d="M8.8360 1.8540
L8.8360 1.6660
" />
<path d="M8.8360 1.8540
L8.9250 1.8540
" />
<path d="M8.8360 2.8960
L8.8360 3.0840
" />
<path d="M8.8360 2.8960
L8.9250 2.8960
" />
<path d="M8.8360 3.0840
L8.7850 3.1760
" />
<path d="M8.9250 1.6660
L8.8360 1.6660
" />
<path d="M8.9250 1.6660
L8.9770 1.5740
" />
<path d="M8.9250 1.8540
L8.9250 1.6660
" />
<path d="M8.9250 2.8960
L8.9250 3.0840
" />
<path d="M8.9250 3.0840
L8.8360 3.0840
" />
<path d="M8.9250 3.0840
L8.9770 3.1760
" />
<path d="M8.9770 1.5740
L8.7850 1.5740
" />
<path d="M8.9770 1.6510
L8.9770 1.5740
" />
<path d="M8.9770 1.6510
L9.0750 1.6510
" />
<path d="M8.9770 1.8540
L8.9250 1.8540
" />
<path d="M8.9770 1.8540
L8.9770 1.6510
" />
<path d="M8.9770 1.8540
L8.9770 2.0060
" />
<path d="M8.9770 2.8960
L8.9250 2.8960
" />
<path d="M8.9770 2.8960
L8.9770 2.7440
" />
<path d="M8.9770 2.8960
L8.9770 3.0990
" />
<path d="M8.9770 3.0990
L8.9770 3.1760
" />
<path d="M8.9770 3.0990
L9.0750 3.0990
" />
<path d="M8.9770 3.1760
L8.7850 3.1760
" />
<path d="M9.0750 1.3250
L9.0750 1.4490
" />
<path d="M9.0750 1.4490
L10.0250 1.4490
" />
<path d="M9.0750 1.6510
L9.0750 1.4490
" />
<path d="M9.0750 3.0990
L9.0750 3.3010
" />
<path d="M9.0750 3.3010
L10.0250 3.3010
" />
<path d="M9.0750 3.4260
L9.0750 3.3010
" />
<path d="M9.4270 0.8760
L10.1770 0.8760
" />
<path d="M9.4270 1.0250
L9.4270 0.8760
" />
<path d="M9.4270 1.0250
L10.2270 1.0250
" />
<path d="M9.4270 3.7260
L9.4270 3.8750
" />
<path d="M9.4270 3.7260
L10.2270 3.7260
" />
<path d="M9.4270 3.8750
L10.1770 3.8750
" />
<path d="M9.4770 0.5750
L9.7750 0.5750
" />
<path d="M9.4770 0.8760
L9.4770 0.5750
" />
<path d="M9.4770 3.8750
L9.4770 4.1760
" />
<path d="M9.4770 4.1760
L9.7750 4.1760
" />
<path d="M9.6770 1.6510
L9.0750 1.6510
" />
<path d="M9.6770 1.6510
L9.6830 1.6510
" />
<path d="M9.6770 3.0990
L9.0750 3.0990
" />
<path d="M9.6770 3.0990
L9.6830 3.0990
" />
<path d="M9.6830 1.6510
L9.6910 1.6510
" />
<path d="M9.6830 3.0990
L9.6910 3.0990
" />
<path d="M9.6910 1.6510
L9.6980 1.6520
" />
<path d="M9.6910 3.0990
L9.6980 3.0980
" />
<path d="M9.6980 1.6520
L9.7060 1.6540
" />
<path d="M9.6980 3.0980
L9.7060 3.0960
" />
<path d="M9.7060 1.6540
L9.7120 1.6550
" />
<path d="M9.7060 3.0960
L9.7120 3.0950
" />
<path d="M9.7120 1.6550
L9.7200 1.6570
" />
<path d="M9.7120 3.0950
L9.7200 3.0930
" />
<path d="M9.7200 1.6570
L9.7270 1.6590
" />
<path d="M9.7200 3.0930
L9.7270 3.0910
" />
<path d="M9.7270 1.6590
L9.7330 1.6620
" />
<path d="M9.7270 3.0910
L9.7330 3.0880
" />
<path d="M9.7330 1.6620
L9.7390 1.6650
" />
<path d="M9.7330 3.0880
L9.7390 3.0850
" />
<path d="M9.7390 1.6650
L9.7460 1.6680
" />
<path d="M9.7390 3.0850
L9.7460 3.0820
" />
<path d="M9.7460 1.6680
L9.7520 1.6720
" />
<path d="M9.7460 3.0820
L9.7520 3.0790
" />
<path d="M9.7520 1.6720
L9.7590 1.6750
" />
<path d="M9.7520 3.0790
L9.7590 3.0750
" />
<path d="M9.7590 1.6750
L9.7650 1.6790
" />
<path d="M9.7590 3.0750
L9.7650 3.0710
" />
<path d="M9.7650 1.6790
L9.7700 1.6830
" />
<path d="M9.7650 3.0710
L9.7700 3.0670
" />
<path d="M9.7700 1.6830
L9.7760 1.6880
" />
<path d="M9.7700 3.0670
L9.7760 3.0620
" />
<path d="M9.7750 0.5750
L9.7750 0.8760
" />
<path d="M9.7750 4.1760
L9.7750 3.8750
" />
<path d="M9.7760 1.6880
L9.7830 1.6930
" />
<path d="M9.7760 3.0620
L9.7830 3.0570
" />
<path d="M9.7830 1.6930
L9.7880 1.6990
" />
<path d="M9.7830 3.0570
L9.7880 3.0510
" />
<path d="M9.7880 1.6990
L9.7920 1.7050
" />
<path d="M9.7880 3.0510
L9.7920 3.0450
" />
<path d="M9.7920 1.7050
L9.7970 1.7110
" />
<path d="M9.7920 3.0450
L9.7970 3.0390
" />
<path d="M9.7970 1.7110
L9.8000 1.7170
" />
<path d="M9.7970 3.0390
L9.8000 3.0330
" />
<path d="M9.8000 1.7170
L9.8050 1.7230
" />
<path d="M9.8000 3.0330
L9.8050 3.0270
" />
<path d="M9.8050 1.7230
L9.8080 1.7290
" />
<path d="M9.8050 3.0270
L9.8080 3.0210
" />
<path d="M9.8080 1.7290
L9.8120 1.7370
" />
<path d="M9.8080 3.0210
L9.8120 3.0130
" />
<path d="M9.8120 1.7370
L9.8150 1.7430
" />
<path d="M9.8120 3.0130
L9.8150 3.0070
" />
<path d="M9.8150 1.7430
L9.8180 1.7500
" />
<path d="M9.8150 3.0070
L9.8180 3.0000
" />
<path d="M9.8180 1.7500
L9.8200 1.7570
" />
<path d="M9.8180 3.0000
L9.8200 2.9930
" />
<path d="M9.8200 1.7570
L9.8210 1.7640
" />
<path d="M9.8200 2.9930
L9.8210 2.9860
" />
<path d="M9.8210 1.7640
L9.8230 1.7710
" />
<path d="M9.8210 2.9860
L9.8230 2.9790
" />
<path d="M9.8230 1.7710
L9.8240 1.7780
" />
<path d="M9.8230 2.9790
L9.8240 2.9720
" />
<path d="M9.8240 1.7780
L9.8260 1.7850
" />
<path d="M9.8240 2.9720
L9.8260 2.9650
" />
<path d="M9.8260 1.7850
L9.8260 1.7930
" />
<path d="M9.8260 1.7930
L9.8260 1.8000
" />
<path d="M9.8260 2.1260
L9.8260 1.8000
" />
<path d="M9.8260 2.1260
L10.0250 2.1260
" />
<path d="M9.8260 2.6240
L9.8260 2.1260
" />
<path d="M9.8260 2.6240
L9.8260 2.9500
" />
<path d="M9.8260 2.6240
L10.0250 2.6240
" />
<path d="M9.8260 2.9570
L9.8260 2.9500
" />
<path d="M9.8260 2.9650
L9.8260 2.9570
" />
<path d="M9.8550 2.6240
L9.8550 2.1260
" />
<path d="M9.9270 2.1260
L9.9270 2.6240
" />
<path d="M10.0250 1.4490
L9.7830 1.6930
" />
<path d="M10.0250 1.4490
L10.0250 2.1260
" />
<path d="M10.0250 2.1260
L10.0250 2.6240
" />
<path d="M10.0250 3.3010
L9.7830 3.0570
" />
<path d="M10.0250 3.3010
L10.0250 2.6240
" />
<path d="M10.1260 2.6240
L10.1260 2.1260
" />
<path d="M10.1770 1.3250
L9.0750 1.3250
" />
<path d="M10.1770 1.3250
L10.2270 1.3250
" />
<path d="M10.1770 2.1260
L10.0250 2.1260
" />
<path d="M10.1770 2.1260
L10.2270 2.1260
" />
<path d="M10.1770 2.6240
L10.0250 2.6240
" />
<path d="M10.1770 2.6240
L10.2270 2.6240
" />
<path d="M10.1770 3.4260
L9.0750 3.4260
" />
<path d="M10.1770 3.4260
L10.2270 3.4260
" />
<path d="M10.1790 0.8760
L10.1770 0.8760
" />
<path d="M10.1790 3.8750
L10.1770 3.8750
" />
<path d="M10.1800 0.8760
L10.1790 0.8760
" />
<path d="M10.1800 3.8750
L10.1790 3.8750
" />
<path d="M10.1830 0.8760
L10.1800 0.8760
" />
<path d="M10.1830 3.8750
L10.1800 3.8750
" />
<path d="M10.1850 0.8760
L10.1830 0.8760
" />
<path d="M10.1850 3.8750
L10.1830 3.8750
" />
<path d="M10.1880 0.8760
L10.1850 0.8760
" />
<path d="M10.1880 3.8730
L10.1850 3.8750
" />
<path d="M10.1900 0.8780
L10.1880 0.8760
" />
<path d="M10.1900 3.8730
L10.1880 3.8730
" />
<path d="M10.1930 0.8780
L10.1900 0.8780
" />
<path d="M10.1930 3.8730
L10.1900 3.8730
" />
<path d="M10.1960 0.8780
L10.1930 0.8780
" />
<path d="M10.1960 3.8710
L10.1930 3.8730
" />
<path d="M10.1980 0.8800
L10.1960 0.8780
" />
<path d="M10.1980 3.8710
L10.1960 3.8710
" />
<path d="M10.1990 0.8800
L10.1980 0.8800
" />
<path d="M10.1990 3.8690
L10.1980 3.8710
" />
<path d="M10.2010 0.8820
L10.1990 0.8800
" />
<path d="M10.2010 3.8670
L10.1990 3.8690
" />
<path d="M10.2040 0.8840
L10.2010 0.8820
" />
<path d="M10.2040 3.8670
L10.2010 3.8670
" />
<path d="M10.2060 0.8840
L10.2040 0.8840
" />
<path d="M10.2060 3.8650
L10.2040 3.8670
" />
<path d="M10.2070 0.8860
L10.2060 0.8840
" />
<path d="M10.2070 3.8630
L10.2060 3.8650
" />
<path d="M10.2090 0.8880
L10.2070 0.8860
" />
<path d="M10.2090 3.8610
L10.2070 3.8630
" />
<path d="M10.2120 0.8900
L10.2090 0.8880
" />
<path d="M10.2120 0.8920
L10.2120 0.8900
" />
<path d="M10.2120 3.8590
L10.2120 3.8610
" />
<path d="M10.2120 3.8610
L10.2090 3.8610
" />
<path d="M10.2140 0.8940
L10.2120 0.8920
" />
<path d="M10.2140 3.8570
L10.2120 3.8590
" />
<path d="M10.2170 0.8960
L10.2140 0.8940
" />
<path d="M10.2170 0.8980
L10.2170 0.8960
" />
<path d="M10.2170 3.8530
L10.2170 3.8550
" />
<path d="M10.2170 3.8550
L10.2140 3.8570
" />
<path d="M10.2190 0.9000
L10.2170 0.8980
" />
<path d="M10.2190 3.8510
L10.2170 3.8530
" />
<path d="M10.2200 0.9020
L10.2190 0.9000
" />
<path d="M10.2200 3.8490
L10.2190 3.8510
" />
<path d="M10.2220 0.9040
L10.2200 0.9020
" />
<path d="M10.2220 0.9060
L10.2220 0.9040
" />
<path d="M10.2220 3.8450
L10.2220 3.8470
" />
<path d="M10.2220 3.8470
L10.2200 3.8490
" />
<path d="M10.2230 0.9080
L10.2220 0.9060
" />
<path d="M10.2230 0.9100
L10.2230 0.9080
" />
<path d="M10.2230 3.8390
L10.2230 3.8410
" />
<path d="M10.2230 3.8410
L10.2220 3.8450
" />
<path d="M10.2250 0.9120
L10.2230 0.9100
" />
<path d="M10.2250 0.9160
L10.2250 0.9120
" />
<path d="M10.2250 0.9180
L10.2250 0.9160
" />
<path d="M10.2250 0.9200
L10.2250 0.9180
" />
<path d="M10.2250 0.9220
L10.2250 0.9200
" />
<path d="M10.2250 3.8270
L10.2250 3.8290
" />
<path d="M10.2250 3.8290
L10.2250 3.8330
" />
<path d="M10.2250 3.8330
L10.2250 3.8350
" />
<path d="M10.2250 3.8350
L10.2250 3.8370
" />
<path d="M10.2250 3.8370
L10.2230 3.8390
" />
<path d="M10.2270 0.9260
L10.2250 0.9220
" />
<path d="M10.2270 0.9260
L10.2270 1.0250
" />
<path d="M10.2270 1.3250
L10.2270 1.0250
" />
<path d="M10.2270 1.3250
L10.2270 2.1260
" />
<path d="M10.2270 2.6240
L10.2270 2.1260
" />
<path d="M10.2270 3.4260
L10.2270 2.6240
" />
<path d="M10.2270 3.4260
L10.2270 3.7260
" />
<path d="M10.2270 3.8250
L10.2250 3.8270
" />
<path d="M10.2270 3.8250
L10.2270 3.7260
" />
</g> 
</svg>
