{
  "accessors": [
    {
      "bufferView": 0,
      "byteOffset": 0,
      "componentType": 5126,
      "normalized": false,
      "count": 854,
      "type": "VEC3",
      "max": [
        7.729736804962158,
        0.7999994158744812,
        13.114999771118164
      ],
      "min": [
        -7.730000019073486,
        0.7999994158744812,
        -13.114999771118164
      ]
    },
    {
      "bufferView": 0,
      "byteOffset": 12,
      "componentType": 5126,
      "normalized": false,
      "count": 854,
      "type": "VEC3"
    },
    {
      "bufferView": 0,
      "byteOffset": 24,
      "componentType": 5126,
      "normalized": false,
      "count": 854,
      "type": "VEC2"
    },
    {
      "bufferView": 1,
      "byteOffset": 0,
      "componentType": 5123,
      "normalized": false,
      "count": 2556,
      "type": "SCALAR"
    },
    {
      "bufferView": 1,
      "byteOffset": 5112,
      "componentType": 5123,
      "normalized": false,
      "count": 21336,
      "type": "SCALAR"
    },
    {
      "bufferView": 1,
      "byteOffset": 47784,
      "componentType": 5123,
      "normalized": false,
      "count": 2040,
      "type": "SCALAR"
    },
    {
      "bufferView": 1,
      "byteOffset": 51864,
      "componentType": 5123,
      "normalized": false,
      "count": 24,
      "type": "SCALAR"
    },
    {
      "bufferView": 1,
      "byteOffset": 51912,
      "componentType": 5123,
      "normalized": false,
      "count": 30,
      "type": "SCALAR"
    },
    {
      "bufferView": 1,
      "byteOffset": 51972,
      "componentType": 5123,
      "normalized": false,
      "count": 3015,
      "type": "SCALAR"
    },
    {
      "bufferView": 1,
      "byteOffset": 58004,
      "componentType": 5123,
      "normalized": false,
      "count": 4728,
      "type": "SCALAR"
    },
    {
      "bufferView": 1,
      "byteOffset": 67460,
      "componentType": 5123,
      "normalized": false,
      "count": 2628,
      "type": "SCALAR"
    },
    {
      "bufferView": 2,
      "byteOffset": 0,
      "componentType": 5126,
      "normalized": false,
      "count": 8468,
      "type": "VEC3",
      "max": [
        7.729736804962158,
        0.8357474207878113,
        13.114999771118164
      ],
      "min": [
        -7.730000019073486,
        -5.732748604714288e-07,
        -13.114999771118164
      ]
    },
    {
      "bufferView": 2,
      "byteOffset": 12,
      "componentType": 5126,
      "normalized": false,
      "count": 8468,
      "type": "VEC3"
    },
    {
      "bufferView": 2,
      "byteOffset": 24,
      "componentType": 5126,
      "normalized": false,
      "count": 8468,
      "type": "VEC2"
    },
    {
      "bufferView": 3,
      "byteOffset": 0,
      "componentType": 5126,
      "normalized": false,
      "count": 526,
      "type": "VEC3",
      "max": [
        -3.3299999237060547,
        1.999938726425171,
        -10.315096855163574
      ],
      "min": [
        -6.529999732971191,
        0.8360005021095276,
        -11.914999008178711
      ]
    },
    {
      "bufferView": 3,
      "byteOffset": 12,
      "componentType": 5126,
      "normalized": false,
      "count": 526,
      "type": "VEC3"
    },
    {
      "bufferView": 3,
      "byteOffset": 24,
      "componentType": 5126,
      "normalized": false,
      "count": 526,
      "type": "VEC2"
    },
    {
      "bufferView": 4,
      "byteOffset": 0,
      "componentType": 5126,
      "normalized": false,
      "count": 16,
      "type": "VEC3",
      "max": [
        -3.8299999237060547,
        1.9000364542007446,
        -10.414937973022461
      ],
      "min": [
        -6.03000020980835,
        0.9360004663467407,
        -11.8149995803833
      ]
    },
    {
      "bufferView": 4,
      "byteOffset": 12,
      "componentType": 5126,
      "normalized": false,
      "count": 16,
      "type": "VEC3"
    },
    {
      "bufferView": 4,
      "byteOffset": 24,
      "componentType": 5126,
      "normalized": false,
      "count": 16,
      "type": "VEC2"
    },
    {
      "bufferView": 5,
      "byteOffset": 0,
      "componentType": 5126,
      "normalized": false,
      "count": 20,
      "type": "VEC3",
      "max": [
        -3.9569997787475586,
        1.9149976968765259,
        -10.865005493164062
      ],
      "min": [
        -4.6570000648498535,
        1.9000004529953003,
        -11.364999771118164
      ]
    },
    {
      "bufferView": 5,
      "byteOffset": 12,
      "componentType": 5126,
      "normalized": false,
      "count": 20,
      "type": "VEC3"
    },
    {
      "bufferView": 5,
      "byteOffset": 24,
      "componentType": 5126,
      "normalized": false,
      "count": 20,
      "type": "VEC2"
    },
    {
      "bufferView": 6,
      "byteOffset": 0,
      "componentType": 5126,
      "normalized": false,
      "count": 1079,
      "type": "VEC3",
      "max": [
        6.529867172241211,
        2.1000475883483887,
        11.914999008178711
      ],
      "min": [
        -6.529999732971191,
        0.8359994888305664,
        -7.384999752044678
      ]
    },
    {
      "bufferView": 6,
      "byteOffset": 12,
      "componentType": 5126,
      "normalized": false,
      "count": 1079,
      "type": "VEC3"
    },
    {
      "bufferView": 6,
      "byteOffset": 24,
      "componentType": 5126,
      "normalized": false,
      "count": 1079,
      "type": "VEC2"
    },
    {
      "bufferView": 7,
      "byteOffset": 0,
      "componentType": 5126,
      "normalized": false,
      "count": 1910,
      "type": "VEC3",
      "max": [
        5.327662467956543,
        2.1010067462921143,
        9.765281677246094
      ],
      "min": [
        -5.880000114440918,
        2.0999996662139893,
        -6.735000133514404
      ]
    },
    {
      "bufferView": 7,
      "byteOffset": 12,
      "componentType": 5126,
      "normalized": false,
      "count": 1910,
      "type": "VEC3"
    },
    {
      "bufferView": 7,
      "byteOffset": 24,
      "componentType": 5126,
      "normalized": false,
      "count": 1910,
      "type": "VEC2"
    },
    {
      "bufferView": 8,
      "byteOffset": 0,
      "componentType": 5126,
      "normalized": false,
      "count": 988,
      "type": "VEC3",
      "max": [
        7.729736804962158,
        0.8357478380203247,
        13.114999771118164
      ],
      "min": [
        -7.730000019073486,
        -1.8118370803676953e-07,
        -13.114999771118164
      ]
    },
    {
      "bufferView": 8,
      "byteOffset": 12,
      "componentType": 5126,
      "normalized": false,
      "count": 988,
      "type": "VEC3"
    },
    {
      "bufferView": 8,
      "byteOffset": 24,
      "componentType": 5126,
      "normalized": false,
      "count": 988,
      "type": "VEC2"
    }
  ],
  "asset": {
    "generator": "pygltflib@v1.16.4",
    "version": "2.0"
  },
  "bufferViews": [
    {
      "buffer": 0,
      "byteOffset": 0,
      "byteLength": 27328,
      "byteStride": 32,
      "target": 34962
    },
    {
      "buffer": 0,
      "byteOffset": 27328,
      "byteLength": 72716,
      "target": 34963
    },
    {
      "buffer": 0,
      "byteOffset": 100044,
      "byteLength": 270976,
      "byteStride": 32,
      "target": 34962
    },
    {
      "buffer": 0,
      "byteOffset": 371020,
      "byteLength": 16832,
      "byteStride": 32,
      "target": 34962
    },
    {
      "buffer": 0,
      "byteOffset": 387852,
      "byteLength": 512,
      "byteStride": 32,
      "target": 34962
    },
    {
      "buffer": 0,
      "byteOffset": 388364,
      "byteLength": 640,
      "byteStride": 32,
      "target": 34962
    },
    {
      "buffer": 0,
      "byteOffset": 389004,
      "byteLength": 34528,
      "byteStride": 32,
      "target": 34962
    },
    {
      "buffer": 0,
      "byteOffset": 423532,
      "byteLength": 61120,
      "byteStride": 32,
      "target": 34962
    },
    {
      "buffer": 0,
      "byteOffset": 484652,
      "byteLength": 31616,
      "byteStride": 32,
      "target": 34962
    }
  ],
  "buffers": [
    {
      "uri": "WiFi_Module_WF121-A-V2.bin",
      "byteLength": 516268
    }
  ],
  "extensionsUsed": [
    "KHR_materials_clearcoat",
    "KHR_materials_ior",
    "KHR_materials_sheen",
    "KHR_materials_specular",
    "KHR_materials_transmission",
    "KHR_texture_basisu"
  ],
  "extensionsRequired": [
    "KHR_texture_basisu"
  ],
  "images": [
    {
      "uri": "../shared_textures/composite_darkgreen_1_roughness.ktx2",
      "mimeType": "image/ktx2",
      "name": "composite_darkgreen_1_roughness"
    },
    {
      "uri": "../shared_textures/metal_goldpins_1_normal.ktx2",
      "mimeType": "image/ktx2",
      "name": "metal_goldpins_1_normal"
    },
    {
      "uri": "../shared_textures/metal_goldpins_1_color.ktx2",
      "mimeType": "image/ktx2",
      "name": "metal_goldpins_1_color"
    },
    {
      "uri": "../shared_textures/metal_pins_normal.ktx2",
      "mimeType": "image/ktx2",
      "name": "metal_pins_normal"
    },
    {
      "uri": "../shared_textures/metal_pins_color.ktx2",
      "mimeType": "image/ktx2",
      "name": "metal_pins_color"
    },
    {
      "uri": "../shared_textures/plastic_case_white_normal.ktx2",
      "mimeType": "image/ktx2",
      "name": "plastic_case_white_normal"
    },
    {
      "uri": "../shared_textures/plastic_case_white_color.ktx2",
      "mimeType": "image/ktx2",
      "name": "plastic_case_white_color"
    },
    {
      "uri": "../shared_textures/plastic_case_pink_normal.ktx2",
      "mimeType": "image/ktx2",
      "name": "plastic_case_pink_normal"
    },
    {
      "uri": "../shared_textures/plastic_case_pink_color.ktx2",
      "mimeType": "image/ktx2",
      "name": "plastic_case_pink_color"
    },
    {
      "uri": "../shared_textures/metal_connector_normal.ktx2",
      "mimeType": "image/ktx2",
      "name": "metal_connector_normal"
    },
    {
      "uri": "../shared_textures/metal_connector_color.ktx2",
      "mimeType": "image/ktx2",
      "name": "metal_connector_color"
    },
    {
      "uri": "../shared_textures/metal_connector_roughness.ktx2",
      "mimeType": "image/ktx2",
      "name": "metal_connector_roughness"
    },
    {
      "uri": "../shared_textures/black_markings_normal.ktx2",
      "mimeType": "image/ktx2",
      "name": "black_markings_normal"
    },
    {
      "uri": "../shared_textures/black_markings_color.ktx2",
      "mimeType": "image/ktx2",
      "name": "black_markings_color"
    },
    {
      "uri": "../shared_textures/black_markings_metallic-black_markings_roughness.ktx2",
      "mimeType": "image/ktx2",
      "name": "black_markings_metallic-black_markings_roughness"
    },
    {
      "uri": "../shared_textures/pcb_edge_normal.ktx2",
      "mimeType": "image/ktx2",
      "name": "pcb_edge_normal"
    },
    {
      "uri": "../shared_textures/pcb_edge_color.ktx2",
      "mimeType": "image/ktx2",
      "name": "pcb_edge_color"
    }
  ],
  "materials": [
    {
      "extensions": {
        "KHR_materials_clearcoat": {
          "clearcoatFactor": 0.14230769872665405,
          "clearcoatRoughnessFactor": 0
        }
      },
      "extras": {
        "blenderkit": {
          "name": "Matte plastic",
          "description": "very simple roughness variated plastic",
          "tags": "plastic, touched, green",
          "is_generating_thumbnail": 0,
          "thumbnail": "//matte plastic _0000.png",
          "shaders": "principled, ",
          "upload_state": "uploaded metadata",
          "has_thumbnail": 1,
          "asset_base_id": "cb48a41d-6fc7-47b3-bd08-45275cfed0c2",
          "id": "62a6d8a0-393f-4bdd-9d1d-896fea3ca0be",
          "uploading": 0,
          "rating_quality": -1,
          "thumbnail_scale": 0.20000000298023224,
          "name_changed": 0,
          "name_old": "Matte plastic",
          "category": 24,
          "texture_resolution_max": 0,
          "texture_resolution_min": 0
        },
        "asset_data": {
          "thumbnail": "thumbnail_0f84bee4-0378-4bcd-8e2e-16a60a09613d.png.1024x1024_q85_crop-%2C.png",
          "thumbnail_small": "thumbnail_0f84bee4-0378-4bcd-8e2e-16a60a09613d.png.96x96_q85_crop-%2C.png",
          "download_url": "https://www.blenderkit.com/api/v1/downloads/5399/",
          "tooltip": "Matte plastic\n\nvery simple roughness variated plastic\n\nfiles size: 852KB\ntexture size: 1.0m\nlicense: royalty_free\n",
          "downloaded": 0,
          "texture_size_meters": 1,
          "thumbnail_%i": "thumbnail_0f84bee4-0378-4bcd-8e2e-16a60a09613d.png.1024x1024_q85_crop-%2C.png",
          "url": "https://public.blenderkit.com/public-assets/assets/62a6d8a0393f4bdd9d1d896fea3ca0be/files/blend_225be883-9a22-46c5-9b57-8786c2a32418.blend",
          "id": "62a6d8a0-393f-4bdd-9d1d-896fea3ca0be",
          "assetBaseId": "cb48a41d-6fc7-47b3-bd08-45275cfed0c2",
          "versionNumber": 1,
          "author": {
            "id": "2",
            "firstName": "Vil\u00e9m",
            "lastName": "Duha",
            "gravatarHash": "7d60f17cdce549f0f0159215cd006ae9",
            "avatar128": "/avatar-redirect/95cf3d26-35ba-41b0-84f1-55ee67cbeae4/128/",
            "aboutMe": "On this account we store assets created by BlenderKit team.",
            "aboutMeUrl": "https://www.blenderkit.com/about"
          },
          "name": "Matte plastic",
          "displayName": "Matte plastic",
          "description": "very simple roughness variated plastic",
          "assetType": "material",
          "category": "plastic",
          "adult": 0,
          "isFree": 1,
          "tags": [
            "plastic",
            "touched",
            "green",
            "non-manifold",
            "non-manifold",
            "non-manifold"
          ],
          "license": "royalty_free",
          "parameters": [
            {
              "parameterType": "textureSizeMeters",
              "value": 1
            },
            {
              "parameterType": "material_style",
              "value": "realistic"
            },
            {
              "parameterType": "purePbr",
              "value": 0
            },
            {
              "parameterType": "engine",
              "value": "cycles"
            },
            {
              "parameterType": "shaders",
              "value": [
                "principled"
              ]
            },
            {
              "parameterType": "animated",
              "value": 0
            },
            {
              "parameterType": "uv",
              "value": 0
            }
          ],
          "sourceAppName": "blender",
          "sourceAppVersion": "2.80.74",
          "addonVersion": "1.0.24",
          "created": "2019-06-11T10:47:32.996203+02:00",
          "verificationStatus": "validated",
          "isPrivate": 0,
          "files": [
            {
              "fileType": "blend",
              "downloadUrl": "https://www.blenderkit.com/api/v1/downloads/5399/"
            },
            {
              "fileType": "thumbnail",
              "downloadUrl": "https://www.blenderkit.com/api/v1/downloads/5398/",
              "fileThumbnail": "https://public.blenderkit.com/thumbnails/assets/62a6d8a0393f4bdd9d1d896fea3ca0be/files/thumbnail_0f84bee4-0378-4bcd-8e2e-16a60a09613d.png.96x96_q85_crop-%2C.png",
              "fileThumbnailLarge": "https://public.blenderkit.com/thumbnails/assets/62a6d8a0393f4bdd9d1d896fea3ca0be/files/thumbnail_0f84bee4-0378-4bcd-8e2e-16a60a09613d.png.1024x1024_q85_crop-%2C.png"
            }
          ],
          "filesSize": 58196,
          "thumbnailSmallUrl": "https://public.blenderkit.com/thumbnails/assets/62a6d8a0393f4bdd9d1d896fea3ca0be/files/thumbnail_0f84bee4-0378-4bcd-8e2e-16a60a09613d.png.256x256_q85_crop-%2C.png",
          "thumbnailMiddleUrl": "https://public.blenderkit.com/thumbnails/assets/62a6d8a0393f4bdd9d1d896fea3ca0be/files/thumbnail_0f84bee4-0378-4bcd-8e2e-16a60a09613d.png.512x512_q85_crop-%2C.png",
          "thumbnailLargeUrl": "https://public.blenderkit.com/thumbnails/assets/62a6d8a0393f4bdd9d1d896fea3ca0be/files/thumbnail_0f84bee4-0378-4bcd-8e2e-16a60a09613d.png.1024x1024_q85_crop-%2C.png",
          "thumbnailXlargeUrl": "https://public.blenderkit.com/thumbnails/assets/62a6d8a0393f4bdd9d1d896fea3ca0be/files/thumbnail_0f84bee4-0378-4bcd-8e2e-16a60a09613d.png.1024x1024_q85_crop-%2C.png",
          "thumbnailSmallUrlNonsquared": "https://public.blenderkit.com/thumbnails/assets/62a6d8a0393f4bdd9d1d896fea3ca0be/files/thumbnail_0f84bee4-0378-4bcd-8e2e-16a60a09613d.png.256x256_q85.png",
          "thumbnailMiddleUrlNonsquared": "https://public.blenderkit.com/thumbnails/assets/62a6d8a0393f4bdd9d1d896fea3ca0be/files/thumbnail_0f84bee4-0378-4bcd-8e2e-16a60a09613d.png.512x512_q85.png",
          "thumbnailLargeUrlNonsquared": "https://public.blenderkit.com/thumbnails/assets/62a6d8a0393f4bdd9d1d896fea3ca0be/files/thumbnail_0f84bee4-0378-4bcd-8e2e-16a60a09613d.png.1024x1024_q85.png",
          "thumbnailXlargeUrlNonsquared": "https://public.blenderkit.com/thumbnails/assets/62a6d8a0393f4bdd9d1d896fea3ca0be/files/thumbnail_0f84bee4-0378-4bcd-8e2e-16a60a09613d.png.2048x2048_q85.png",
          "showMarketingLabels": 1,
          "score": 192,
          "ratingsMedian": {
            "quality": 8.5,
            "workingHours": 2.4
          },
          "ratingsAverage": {
            "quality": 8,
            "workingHours": 2.4
          },
          "ratingsCount": {
            "competition-2022-votes": 0,
            "complexity": 0,
            "virtualPriceAdmin": 0,
            "virtualPrice": 0,
            "quality": 8,
            "workingHours": 8,
            "complexityAdmin": 0
          },
          "ratingsSum": {
            "quality": 64,
            "workingHours": 17.7
          },
          "canDownload": 1,
          "canDownloadError": 1,
          "file_name": "blend_225be883-9a22-46c5-9b57-8786c2a32418.blend"
        }
      },
      "pbrMetallicRoughness": {
        "baseColorFactor": [
          0.00345463864505291,
          0.029073704034090042,
          0.004590462893247604,
          1.0
        ],
        "metallicFactor": 0.0,
        "roughnessFactor": 1.0,
        "metallicRoughnessTexture": {
          "index": 0,
          "texCoord": 0
        }
      },
      "emissiveFactor": [
        0.0,
        0.0,
        0.0
      ],
      "alphaMode": "OPAQUE",
      "alphaCutoff": 0.5,
      "doubleSided": true,
      "name": "gltf_composite_darkgreen_1"
    },
    {
      "extensions": {
        "KHR_materials_clearcoat": {
          "clearcoatFactor": 0,
          "clearcoatRoughnessFactor": 0.2890909016132355
        },
        "KHR_materials_ior": {
          "ior": 1.4500000476837158
        },
        "KHR_materials_sheen": {
          "sheenColorFactor": [
            1,
            1,
            1
          ],
          "sheenRoughnessFactor": 0.5
        },
        "KHR_materials_specular": {
          "specularFactor": 0.9499998092651367
        }
      },
      "pbrMetallicRoughness": {
        "baseColorFactor": [
          1.0,
          1.0,
          1.0,
          1.0
        ],
        "metallicFactor": 1.0,
        "roughnessFactor": 0.2522728145122528,
        "baseColorTexture": {
          "index": 1,
          "texCoord": 0
        }
      },
      "normalTexture": {
        "index": 2,
        "scale": 1.0
      },
      "emissiveFactor": [
        0.0,
        0.0,
        0.0
      ],
      "alphaMode": "OPAQUE",
      "alphaCutoff": 0.5,
      "doubleSided": true,
      "name": "gltf_metal_goldpins_1"
    },
    {
      "extensions": {
        "KHR_materials_ior": {
          "ior": 1.4500000476837158
        },
        "KHR_materials_specular": {
          "specularFactor": 0
        }
      },
      "pbrMetallicRoughness": {
        "baseColorFactor": [
          1.0,
          1.0,
          1.0,
          1.0
        ],
        "metallicFactor": 0.7818182110786438,
        "roughnessFactor": 0.28863638639450073,
        "baseColorTexture": {
          "index": 3,
          "texCoord": 0
        }
      },
      "normalTexture": {
        "index": 4,
        "scale": 1.0
      },
      "emissiveFactor": [
        0.0,
        0.0,
        0.0
      ],
      "alphaMode": "OPAQUE",
      "alphaCutoff": 0.5,
      "doubleSided": true,
      "name": "gltf_metal_pins"
    },
    {
      "pbrMetallicRoughness": {
        "baseColorFactor": [
          1.0,
          1.0,
          1.0,
          1.0
        ],
        "metallicFactor": 0.027000008150935173,
        "roughnessFactor": 0.4606340527534485,
        "baseColorTexture": {
          "index": 5,
          "texCoord": 0
        }
      },
      "normalTexture": {
        "index": 6,
        "scale": 1.0
      },
      "emissiveFactor": [
        0.0,
        0.0,
        0.0
      ],
      "alphaMode": "OPAQUE",
      "alphaCutoff": 0.5,
      "doubleSided": true,
      "name": "gltf_plastic_case_white"
    },
    {
      "extensions": {
        "KHR_materials_ior": {
          "ior": 1.399999976158142
        },
        "KHR_materials_specular": {
          "specularFactor": 0.6000000238418579
        }
      },
      "pbrMetallicRoughness": {
        "baseColorFactor": [
          1.0,
          1.0,
          1.0,
          1.0
        ],
        "metallicFactor": 0.019999999552965164,
        "roughnessFactor": 0.4636361598968506,
        "baseColorTexture": {
          "index": 7,
          "texCoord": 0
        }
      },
      "normalTexture": {
        "index": 8,
        "scale": 1.0
      },
      "emissiveFactor": [
        0.0,
        0.0,
        0.0
      ],
      "alphaMode": "OPAQUE",
      "alphaCutoff": 0.5,
      "doubleSided": true,
      "name": "gltf_plastic_case_pink"
    },
    {
      "extensions": {
        "KHR_materials_clearcoat": {
          "clearcoatFactor": 0,
          "clearcoatRoughnessFactor": 0.46590909361839294
        },
        "KHR_materials_ior": {
          "ior": 1
        },
        "KHR_materials_sheen": {
          "sheenColorFactor": [
            1,
            1,
            1
          ],
          "sheenRoughnessFactor": 0.5
        },
        "KHR_materials_specular": {
          "specularFactor": 0.9590908885002136
        }
      },
      "pbrMetallicRoughness": {
        "baseColorFactor": [
          1.0,
          1.0,
          1.0,
          1.0
        ],
        "metallicFactor": 1.0,
        "roughnessFactor": 1.0,
        "baseColorTexture": {
          "index": 9,
          "texCoord": 0
        },
        "metallicRoughnessTexture": {
          "index": 11,
          "texCoord": 0
        }
      },
      "normalTexture": {
        "index": 10,
        "scale": 0.5
      },
      "emissiveFactor": [
        0.0,
        0.0,
        0.0
      ],
      "alphaMode": "OPAQUE",
      "alphaCutoff": 0.5,
      "doubleSided": true,
      "name": "gltf_metal_connector"
    },
    {
      "extensions": {
        "KHR_materials_clearcoat": {
          "clearcoatFactor": 0,
          "clearcoatRoughnessFactor": 0.67090904712677
        },
        "KHR_materials_ior": {
          "ior": 1.399999976158142
        },
        "KHR_materials_sheen": {
          "sheenColorFactor": [
            1,
            1,
            1
          ],
          "sheenRoughnessFactor": 0.5
        },
        "KHR_materials_specular": {
          "specularColorFactor": [
            1.3181817531585693,
            1.3181817531585693,
            1.3181817531585693
          ]
        },
        "KHR_materials_transmission": {
          "transmissionFactor": 0.23181819915771484
        }
      },
      "pbrMetallicRoughness": {
        "baseColorFactor": [
          1.0,
          1.0,
          1.0,
          1.0
        ],
        "metallicFactor": 1.0,
        "roughnessFactor": 1.0,
        "baseColorTexture": {
          "index": 12,
          "texCoord": 0
        },
        "metallicRoughnessTexture": {
          "index": 14,
          "texCoord": 0
        }
      },
      "normalTexture": {
        "index": 13,
        "scale": 1.0
      },
      "emissiveFactor": [
        0.0,
        0.0,
        0.0
      ],
      "alphaMode": "OPAQUE",
      "alphaCutoff": 0.5,
      "doubleSided": true,
      "name": "gltf_black_markings"
    },
    {
      "extensions": {
        "KHR_materials_ior": {
          "ior": 1.4500000476837158
        },
        "KHR_materials_transmission": {
          "transmissionFactor": 0.5
        }
      },
      "pbrMetallicRoughness": {
        "baseColorFactor": [
          1.0,
          1.0,
          1.0,
          1.0
        ],
        "metallicFactor": 0.10000000149011612,
        "roughnessFactor": 0.5,
        "baseColorTexture": {
          "index": 15,
          "texCoord": 0
        }
      },
      "normalTexture": {
        "index": 16,
        "scale": 1.0
      },
      "emissiveFactor": [
        0.0,
        0.0,
        0.0
      ],
      "alphaMode": "OPAQUE",
      "alphaCutoff": 0.5,
      "doubleSided": true,
      "name": "gltf_pcb_edge"
    }
  ],
  "meshes": [
    {
      "primitives": [
        {
          "attributes": {
            "POSITION": 0,
            "NORMAL": 1,
            "TEXCOORD_0": 2
          },
          "indices": 3,
          "mode": 4,
          "material": 0
        },
        {
          "attributes": {
            "POSITION": 11,
            "NORMAL": 12,
            "TEXCOORD_0": 13
          },
          "indices": 4,
          "mode": 4,
          "material": 1
        },
        {
          "attributes": {
            "POSITION": 14,
            "NORMAL": 15,
            "TEXCOORD_0": 16
          },
          "indices": 5,
          "mode": 4,
          "material": 2
        },
        {
          "attributes": {
            "POSITION": 17,
            "NORMAL": 18,
            "TEXCOORD_0": 19
          },
          "indices": 6,
          "mode": 4,
          "material": 3
        },
        {
          "attributes": {
            "POSITION": 20,
            "NORMAL": 21,
            "TEXCOORD_0": 22
          },
          "indices": 7,
          "mode": 4,
          "material": 4
        },
        {
          "attributes": {
            "POSITION": 23,
            "NORMAL": 24,
            "TEXCOORD_0": 25
          },
          "indices": 8,
          "mode": 4,
          "material": 5
        },
        {
          "attributes": {
            "POSITION": 26,
            "NORMAL": 27,
            "TEXCOORD_0": 28
          },
          "indices": 9,
          "mode": 4,
          "material": 6
        },
        {
          "attributes": {
            "POSITION": 29,
            "NORMAL": 30,
            "TEXCOORD_0": 31
          },
          "indices": 10,
          "mode": 4,
          "material": 7
        }
      ],
      "name": "WiFi_Module_WF121-A-V2"
    }
  ],
  "nodes": [
    {
      "extras": {
        "PRIO": 0,
        "DISPLAY_ROT": "90",
        "model_diagonal": 30.519514766189648
      },
      "mesh": 0,
      "name": "WiFi_Module_WF121-A-V2"
    }
  ],
  "samplers": [
    {
      "magFilter": 9729,
      "minFilter": 9987,
      "wrapS": 10497,
      "wrapT": 10497
    }
  ],
  "scene": 0,
  "scenes": [
    {
      "name": "Scene",
      "nodes": [
        0
      ]
    }
  ],
  "textures": [
    {
      "extensions": {
        "KHR_texture_basisu": {
          "source": 0
        }
      },
      "sampler": 0
    },
    {
      "extensions": {
        "KHR_texture_basisu": {
          "source": 2
        }
      },
      "sampler": 0
    },
    {
      "extensions": {
        "KHR_texture_basisu": {
          "source": 1
        }
      },
      "sampler": 0
    },
    {
      "extensions": {
        "KHR_texture_basisu": {
          "source": 4
        }
      },
      "sampler": 0
    },
    {
      "extensions": {
        "KHR_texture_basisu": {
          "source": 3
        }
      },
      "sampler": 0
    },
    {
      "extensions": {
        "KHR_texture_basisu": {
          "source": 6
        }
      },
      "sampler": 0
    },
    {
      "extensions": {
        "KHR_texture_basisu": {
          "source": 5
        }
      },
      "sampler": 0
    },
    {
      "extensions": {
        "KHR_texture_basisu": {
          "source": 8
        }
      },
      "sampler": 0
    },
    {
      "extensions": {
        "KHR_texture_basisu": {
          "source": 7
        }
      },
      "sampler": 0
    },
    {
      "extensions": {
        "KHR_texture_basisu": {
          "source": 10
        }
      },
      "sampler": 0
    },
    {
      "extensions": {
        "KHR_texture_basisu": {
          "source": 9
        }
      },
      "sampler": 0
    },
    {
      "extensions": {
        "KHR_texture_basisu": {
          "source": 11
        }
      },
      "sampler": 0
    },
    {
      "extensions": {
        "KHR_texture_basisu": {
          "source": 13
        }
      },
      "sampler": 0
    },
    {
      "extensions": {
        "KHR_texture_basisu": {
          "source": 12
        }
      },
      "sampler": 0
    },
    {
      "extensions": {
        "KHR_texture_basisu": {
          "source": 14
        }
      },
      "sampler": 0
    },
    {
      "extensions": {
        "KHR_texture_basisu": {
          "source": 16
        }
      },
      "sampler": 0
    },
    {
      "extensions": {
        "KHR_texture_basisu": {
          "source": 15
        }
      },
      "sampler": 0
    }
  ]
}