<?xml version="1.0" standalone="no"?>
 <!DOCTYPE svg PUBLIC "-//W3C//DTD SVG 1.1//EN" 
 "http://www.w3.org/Graphics/SVG/1.1/DTD/svg11.dtd"> 
<svg
  xmlns:svg="http://www.w3.org/2000/svg"
  xmlns="http://www.w3.org/2000/svg"
  xmlns:xlink="http://www.w3.org/1999/xlink"
  version="1.1"
  width="13.3350mm" height="11.0236mm" viewBox="0.0000 0.0000 13.3350 11.0236">
<title>SVG Image created as outline.svg date 2025/04/04 10:06:20 </title>
  <desc>Image generated by PCBNEW </desc>
<g style="fill:#000000; fill-opacity:1.0000;stroke:#000000; stroke-opacity:1.0000;
stroke-linecap:round; stroke-linejoin:round;"
 transform="translate(0 0) scale(1 1)">
</g>
<g style="fill:none; 
stroke:#000000; stroke-width:0.0100; stroke-opacity:1; 
stroke-linecap:round; stroke-linejoin:round;">
<path d="M0.6850 5.0750
L0.6850 5.9750
" />
<path d="M0.6850 5.9750
L1.5350 5.9750
" />
<path d="M1.5350 1.3750
L1.5350 4.8056
" />
<path d="M1.5350 4.8056
L1.5350 6.2444
" />
<path d="M1.5350 5.0750
L0.6850 5.0750
" />
<path d="M1.5350 6.2444
L1.5350 9.6750
" />
<path d="M1.5350 9.6750
L2.5350 10.6750
" />
</g>
<g style="fill:none; 
stroke:#000000; stroke-width:0.0200; stroke-opacity:1; 
stroke-linecap:round; stroke-linejoin:round;">
<path d="M1.6850 5.5250
L11.6850 5.5250
" />
</g>
<g style="fill:none; 
stroke:#000000; stroke-width:0.0100; stroke-opacity:1; 
stroke-linecap:round; stroke-linejoin:round;">
<path d="M2.5350 0.3750
L1.5350 1.3750
" />
<path d="M5.9656 0.3750
L2.5350 0.3750
" />
<path d="M5.9656 10.6750
L2.5350 10.6750
" />
<path d="M5.9656 10.6750
L7.4044 10.6750
" />
<path d="M6.6846 0.5248
L6.8664 0.5283
" />
<path d="M6.7366 0.5252
L7.0282 0.5367
" />
<path d="M7.4044 0.3750
L5.9656 0.3750
" />
<path d="M7.4044 10.6750
L11.4350 10.6750
" />
<path d="M11.4350 0.3750
L7.4044 0.3750
" />
<path d="M11.4548 10.6745
L11.4350 10.6750
" />
<path d="M11.4745 10.6730
L11.4548 10.6745
" />
<path d="M11.4941 10.6706
L11.4745 10.6730
" />
<path d="M11.5134 10.6672
L11.4941 10.6706
" />
<path d="M11.5325 10.6629
L11.5134 10.6672
" />
<path d="M11.5513 10.6577
L11.5325 10.6629
" />
<path d="M11.5699 10.6516
L11.5513 10.6577
" />
<path d="M11.5881 10.6446
L11.5699 10.6516
" />
<path d="M11.6059 10.6366
L11.5881 10.6446
" />
<path d="M11.6234 10.6279
L11.6059 10.6366
" />
<path d="M11.6404 10.6183
L11.6234 10.6279
" />
<path d="M11.6569 10.6078
L11.6404 10.6183
" />
<path d="M11.6730 10.5965
L11.6569 10.6078
" />
<path d="M11.6885 10.5844
L11.6730 10.5965
" />
<path d="M11.7035 10.5715
L11.6885 10.5844
" />
<path d="M11.7178 10.5578
L11.7035 10.5715
" />
</g>
<g style="fill:#000000; fill-opacity:1.0000; stroke:none;">
<circle cx="11.7178" cy="10.5578" r="0.0050" /> 
</g>
<g style="fill:none; 
stroke:#000000; stroke-width:0.0100; stroke-opacity:1; 
stroke-linecap:round; stroke-linejoin:round;">
<path d="M11.7315 10.5435
L11.7178 10.5578
" />
<path d="M11.7444 10.5285
L11.7315 10.5435
" />
<path d="M11.7565 10.5130
L11.7444 10.5285
" />
<path d="M11.7678 10.4969
L11.7565 10.5130
" />
<path d="M11.7783 10.4804
L11.7678 10.4969
" />
<path d="M11.7879 10.4634
L11.7783 10.4804
" />
<path d="M11.7966 10.4459
L11.7879 10.4634
" />
<path d="M11.8046 10.4281
L11.7966 10.4459
" />
<path d="M11.8116 10.4099
L11.8046 10.4281
" />
<path d="M11.8177 10.3913
L11.8116 10.4099
" />
<path d="M11.8229 10.3725
L11.8177 10.3913
" />
<path d="M11.8272 10.3534
L11.8229 10.3725
" />
<path d="M11.8306 10.3341
L11.8272 10.3534
" />
<path d="M11.8330 10.3145
L11.8306 10.3341
" />
<path d="M11.8345 10.2948
L11.8330 10.3145
" />
<path d="M11.8350 4.8056
L11.8350 0.7750
" />
<path d="M11.8350 5.9750
L12.6850 5.9750
" />
<path d="M11.8350 6.2444
L11.8350 4.8056
" />
<path d="M11.8350 10.2750
L11.8345 10.2948
" />
<path d="M11.8350 10.2750
L11.8350 6.2444
" />
<path d="M12.6850 5.0750
L11.8350 5.0750
" />
<path d="M12.6850 5.9750
L12.6850 5.0750
" />
<path d="M5.9656 0.3750 A5.2000 5.2000 0.0 0 0 1.5350 4.8056" />
<path d="M1.5350 6.2444 A5.2000 5.2000 0.0 0 0 5.9656 10.6750" />
<path d="M11.8350 4.8056 A5.2000 5.2000 0.0 0 0 7.4044 0.3750" />
<path d="M11.8350 0.7750 A0.4000 0.4000 0.0 0 0 11.4350 0.3750" />
<path d="M11.4350 10.6750 A0.4000 0.4000 0.0 0 0 11.8350 10.2750" />
<path d="M7.4044 10.6750 A5.2000 5.2000 0.0 0 0 11.8350 6.2444" />
<circle cx="6.6850" cy="5.5250" r="4.9988" /> 
</g> 
</svg>
