<?xml version="1.0" standalone="no"?>
 <!DOCTYPE svg PUBLIC "-//W3C//DTD SVG 1.1//EN" 
 "http://www.w3.org/Graphics/SVG/1.1/DTD/svg11.dtd"> 
<svg
  xmlns:svg="http://www.w3.org/2000/svg"
  xmlns="http://www.w3.org/2000/svg"
  xmlns:xlink="http://www.w3.org/1999/xlink"
  version="1.1"
  width="9.9314mm" height="21.2344mm" viewBox="0.0000 0.0000 9.9314 21.2344">
<title>SVG Image created as outline.svg date 2025/06/16 09:18:11 </title>
  <desc>Image generated by PCBNEW </desc>
<g style="fill:#000000; fill-opacity:1.0000;stroke:#000000; stroke-opacity:1.0000;
stroke-linecap:round; stroke-linejoin:round;"
 transform="translate(0 0) scale(1 1)">
</g>
<g style="fill:none; 
stroke:#000000; stroke-width:0.0200; stroke-opacity:1; 
stroke-linecap:round; stroke-linejoin:round;">
<path d="M0.4050 0.4850
L0.4050 8.3950
" />
<path d="M0.4050 8.3950
L0.4050 12.8950
" />
<path d="M0.4050 12.8950
L0.4050 20.8050
" />
<path d="M0.4050 20.8050
L9.4050 20.8050
" />
<path d="M1.1550 1.1860
L1.7550 1.7850
" />
<path d="M1.1550 1.1860
L8.7540 1.1860
" />
<path d="M1.1550 8.3950
L0.4050 8.3950
" />
<path d="M1.1550 8.3950
L1.1550 1.1860
" />
<path d="M1.1550 12.8950
L0.4050 12.8950
" />
<path d="M1.1550 12.8950
L1.7550 12.8950
" />
<path d="M1.1550 20.1050
L1.1550 12.8950
" />
<path d="M1.1550 20.1050
L1.7550 19.5040
" />
<path d="M1.7550 1.7850
L1.7550 8.3950
" />
<path d="M1.7550 8.3950
L1.1550 8.3950
" />
<path d="M1.7550 12.8950
L1.7550 19.5040
" />
<path d="M1.7550 19.5040
L8.1550 19.5040
" />
<path d="M3.3650 5.2450
L3.5650 5.4450
" />
<path d="M3.3650 5.2450
L4.0050 5.2450
" />
<path d="M3.3650 5.8850
L3.3650 5.2450
" />
<path d="M3.3650 7.7850
L3.5650 7.9850
" />
<path d="M3.3650 7.7850
L4.0050 7.7850
" />
<path d="M3.3650 8.4250
L3.3650 7.7850
" />
<path d="M3.3650 10.3250
L4.0050 10.3250
" />
<path d="M3.3650 10.9650
L3.3650 10.3250
" />
<path d="M3.3650 10.9650
L3.5650 10.7650
" />
<path d="M3.3650 12.8650
L4.0050 12.8650
" />
<path d="M3.3650 13.5050
L3.3650 12.8650
" />
<path d="M3.3650 13.5050
L3.5650 13.3050
" />
<path d="M3.3650 15.4050
L4.0050 15.4050
" />
<path d="M3.3650 16.0450
L3.3650 15.4050
" />
<path d="M3.3650 16.0450
L3.5650 15.8450
" />
<path d="M3.5650 5.4450
L3.5650 5.6860
" />
<path d="M3.5650 5.6860
L3.3650 5.8850
" />
<path d="M3.5650 5.6860
L3.8050 5.6860
" />
<path d="M3.5650 7.9850
L3.5650 8.2250
" />
<path d="M3.5650 8.2250
L3.3650 8.4250
" />
<path d="M3.5650 8.2250
L3.8050 8.2250
" />
<path d="M3.5650 10.5250
L3.3650 10.3250
" />
<path d="M3.5650 10.5250
L3.5650 10.7650
" />
<path d="M3.5650 10.7650
L3.8050 10.7650
" />
<path d="M3.5650 13.0650
L3.3650 12.8650
" />
<path d="M3.5650 13.0650
L3.5650 13.3050
" />
<path d="M3.5650 13.3050
L3.8050 13.3050
" />
<path d="M3.5650 15.6050
L3.3650 15.4050
" />
<path d="M3.5650 15.6050
L3.5650 15.8450
" />
<path d="M3.5650 15.8450
L3.8050 15.8450
" />
<path d="M3.8050 5.4450
L3.5650 5.4450
" />
<path d="M3.8050 5.6860
L3.8050 5.4450
" />
<path d="M3.8050 5.6860
L4.0050 5.8850
" />
<path d="M3.8050 7.9850
L3.5650 7.9850
" />
<path d="M3.8050 8.2250
L3.8050 7.9850
" />
<path d="M3.8050 8.2250
L4.0050 8.4250
" />
<path d="M3.8050 10.5250
L3.5650 10.5250
" />
<path d="M3.8050 10.5250
L4.0050 10.3250
" />
<path d="M3.8050 10.7650
L3.8050 10.5250
" />
<path d="M3.8050 13.0650
L3.5650 13.0650
" />
<path d="M3.8050 13.0650
L4.0050 12.8650
" />
<path d="M3.8050 13.3050
L3.8050 13.0650
" />
<path d="M3.8050 15.6050
L3.5650 15.6050
" />
<path d="M3.8050 15.6050
L4.0050 15.4050
" />
<path d="M3.8050 15.8450
L3.8050 15.6050
" />
<path d="M4.0050 5.2450
L3.8050 5.4450
" />
<path d="M4.0050 5.2450
L4.0050 5.8850
" />
<path d="M4.0050 5.8850
L3.3650 5.8850
" />
<path d="M4.0050 7.7850
L3.8050 7.9850
" />
<path d="M4.0050 7.7850
L4.0050 8.4250
" />
<path d="M4.0050 8.4250
L3.3650 8.4250
" />
<path d="M4.0050 10.3250
L4.0050 10.9650
" />
<path d="M4.0050 10.9650
L3.3650 10.9650
" />
<path d="M4.0050 10.9650
L3.8050 10.7650
" />
<path d="M4.0050 12.8650
L4.0050 13.5050
" />
<path d="M4.0050 13.5050
L3.3650 13.5050
" />
<path d="M4.0050 13.5050
L3.8050 13.3050
" />
<path d="M4.0050 15.4050
L4.0050 16.0450
" />
<path d="M4.0050 16.0450
L3.3650 16.0450
" />
<path d="M4.0050 16.0450
L3.8050 15.8450
" />
<path d="M5.9050 5.2450
L6.1050 5.4450
" />
<path d="M5.9050 5.2450
L6.5450 5.2450
" />
<path d="M5.9050 5.8850
L5.9050 5.2450
" />
<path d="M5.9050 5.8850
L6.1050 5.6860
" />
<path d="M5.9050 7.7850
L6.1050 7.9850
" />
<path d="M5.9050 7.7850
L6.5450 7.7850
" />
<path d="M5.9050 8.4250
L5.9050 7.7850
" />
<path d="M5.9050 10.3250
L6.5450 10.3250
" />
<path d="M5.9050 10.9650
L5.9050 10.3250
" />
<path d="M5.9050 10.9650
L6.1050 10.7650
" />
<path d="M5.9050 12.8650
L6.5450 12.8650
" />
<path d="M5.9050 13.5050
L5.9050 12.8650
" />
<path d="M5.9050 13.5050
L6.1050 13.3050
" />
<path d="M5.9050 15.4050
L6.5450 15.4050
" />
<path d="M5.9050 16.0450
L5.9050 15.4050
" />
<path d="M5.9050 16.0450
L6.1050 15.8450
" />
<path d="M6.1050 5.4450
L6.1050 5.6860
" />
<path d="M6.1050 5.6860
L6.3450 5.6860
" />
<path d="M6.1050 7.9850
L6.1050 8.2250
" />
<path d="M6.1050 8.2250
L5.9050 8.4250
" />
<path d="M6.1050 8.2250
L6.3450 8.2250
" />
<path d="M6.1050 10.5250
L5.9050 10.3250
" />
<path d="M6.1050 10.5250
L6.1050 10.7650
" />
<path d="M6.1050 10.7650
L6.3450 10.7650
" />
<path d="M6.1050 13.0650
L5.9050 12.8650
" />
<path d="M6.1050 13.0650
L6.1050 13.3050
" />
<path d="M6.1050 13.3050
L6.3450 13.3050
" />
<path d="M6.1050 15.6050
L5.9050 15.4050
" />
<path d="M6.1050 15.6050
L6.1050 15.8450
" />
<path d="M6.1050 15.8450
L6.3450 15.8450
" />
<path d="M6.3450 5.4450
L6.1050 5.4450
" />
<path d="M6.3450 5.4450
L6.5450 5.2450
" />
<path d="M6.3450 5.6860
L6.3450 5.4450
" />
<path d="M6.3450 5.6860
L6.5450 5.8850
" />
<path d="M6.3450 7.9850
L6.1050 7.9850
" />
<path d="M6.3450 8.2250
L6.3450 7.9850
" />
<path d="M6.3450 8.2250
L6.5450 8.4250
" />
<path d="M6.3450 10.5250
L6.1050 10.5250
" />
<path d="M6.3450 10.5250
L6.5450 10.3250
" />
<path d="M6.3450 10.7650
L6.3450 10.5250
" />
<path d="M6.3450 13.0650
L6.1050 13.0650
" />
<path d="M6.3450 13.0650
L6.5450 12.8650
" />
<path d="M6.3450 13.3050
L6.3450 13.0650
" />
<path d="M6.3450 15.6050
L6.1050 15.6050
" />
<path d="M6.3450 15.6050
L6.5450 15.4050
" />
<path d="M6.3450 15.8450
L6.3450 15.6050
" />
<path d="M6.5450 5.2450
L6.5450 5.8850
" />
<path d="M6.5450 5.8850
L5.9050 5.8850
" />
<path d="M6.5450 7.7850
L6.3450 7.9850
" />
<path d="M6.5450 7.7850
L6.5450 8.4250
" />
<path d="M6.5450 8.4250
L5.9050 8.4250
" />
<path d="M6.5450 10.3250
L6.5450 10.9650
" />
<path d="M6.5450 10.9650
L5.9050 10.9650
" />
<path d="M6.5450 10.9650
L6.3450 10.7650
" />
<path d="M6.5450 12.8650
L6.5450 13.5050
" />
<path d="M6.5450 13.5050
L5.9050 13.5050
" />
<path d="M6.5450 13.5050
L6.3450 13.3050
" />
<path d="M6.5450 15.4050
L6.5450 16.0450
" />
<path d="M6.5450 16.0450
L5.9050 16.0450
" />
<path d="M6.5450 16.0450
L6.3450 15.8450
" />
<path d="M8.1550 1.7850
L1.7550 1.7850
" />
<path d="M8.1550 19.5040
L8.1550 1.7850
" />
<path d="M8.7540 1.1860
L8.1550 1.7850
" />
<path d="M8.7540 1.1860
L8.7540 20.1050
" />
<path d="M8.7540 20.1050
L1.1550 20.1050
" />
<path d="M8.7540 20.1050
L8.1550 19.5040
" />
<path d="M9.4050 0.4850
L0.4050 0.4850
" />
<path d="M9.4050 0.4850
L9.4050 2.4950
" />
<path d="M9.4050 2.4950
L9.5040 2.4950
" />
<path d="M9.4050 2.7950
L9.4050 10.4950
" />
<path d="M9.4050 10.4950
L9.5040 10.4950
" />
<path d="M9.4050 10.7950
L9.4050 18.4950
" />
<path d="M9.4050 18.4950
L9.5040 18.4950
" />
<path d="M9.4050 18.7950
L9.4050 20.8050
" />
<path d="M9.5040 2.7950
L9.4050 2.7950
" />
<path d="M9.5040 2.7950
L9.5040 2.4950
" />
<path d="M9.5040 10.7950
L9.4050 10.7950
" />
<path d="M9.5040 10.7950
L9.5040 10.4950
" />
<path d="M9.5040 18.7950
L9.4050 18.7950
" />
<path d="M9.5040 18.7950
L9.5040 18.4950
" />
</g> 
</svg>
