{
  "accessors": [
    {
      "bufferView": 0,
      "byteOffset": 0,
      "componentType": 5126,
      "normalized": false,
      "count": 214,
      "type": "VEC3",
      "max": [
        5.0,
        1.199920654296875,
        5.0
      ],
      "min": [
        -5.0,
        0.10000000149011612,
        -5.0
      ]
    },
    {
      "bufferView": 0,
      "byteOffset": 12,
      "componentType": 5126,
      "normalized": false,
      "count": 214,
      "type": "VEC3"
    },
    {
      "bufferView": 0,
      "byteOffset": 24,
      "componentType": 5126,
      "normalized": false,
      "count": 214,
      "type": "VEC2"
    },
    {
      "bufferView": 1,
      "byteOffset": 0,
      "componentType": 5123,
      "normalized": false,
      "count": 546,
      "type": "SCALAR"
    },
    {
      "bufferView": 1,
      "byteOffset": 1092,
      "componentType": 5123,
      "normalized": false,
      "count": 14592,
      "type": "SCALAR"
    },
    {
      "bufferView": 1,
      "byteOffset": 30276,
      "componentType": 5123,
      "normalized": false,
      "count": 66,
      "type": "SCALAR"
    },
    {
      "bufferView": 2,
      "byteOffset": 0,
      "componentType": 5126,
      "normalized": false,
      "count": 6528,
      "type": "VEC3",
      "max": [
        6.0,
        0.6746017336845398,
        6.0
      ],
      "min": [
        -6.0,
        0.0,
        -6.0
      ]
    },
    {
      "bufferView": 2,
      "byteOffset": 12,
      "componentType": 5126,
      "normalized": false,
      "count": 6528,
      "type": "VEC3"
    },
    {
      "bufferView": 2,
      "byteOffset": 24,
      "componentType": 5126,
      "normalized": false,
      "count": 6528,
      "type": "VEC2"
    },
    {
      "bufferView": 3,
      "byteOffset": 0,
      "componentType": 5126,
      "normalized": false,
      "count": 24,
      "type": "VEC3",
      "max": [
        -3.0398976802825928,
        1.0800000429153442,
        -3.0398976802825928
      ],
      "min": [
        -3.844102144241333,
        1.0800000429153442,
        -3.844102144241333
      ]
    },
    {
      "bufferView": 3,
      "byteOffset": 12,
      "componentType": 5126,
      "normalized": false,
      "count": 24,
      "type": "VEC3"
    },
    {
      "bufferView": 3,
      "byteOffset": 24,
      "componentType": 5126,
      "normalized": false,
      "count": 24,
      "type": "VEC2"
    }
  ],
  "asset": {
    "generator": "pygltflib@v1.16.5",
    "version": "2.0"
  },
  "bufferViews": [
    {
      "buffer": 0,
      "byteOffset": 0,
      "byteLength": 6848,
      "byteStride": 32,
      "target": 34962
    },
    {
      "buffer": 0,
      "byteOffset": 6848,
      "byteLength": 30408,
      "target": 34963
    },
    {
      "buffer": 0,
      "byteOffset": 37256,
      "byteLength": 208896,
      "byteStride": 32,
      "target": 34962
    },
    {
      "buffer": 0,
      "byteOffset": 246152,
      "byteLength": 768,
      "byteStride": 32,
      "target": 34962
    }
  ],
  "buffers": [
    {
      "uri": "TQFP-64_10x10mm_P0.5mm.bin",
      "byteLength": 246920
    }
  ],
  "extensionsUsed": [
    "KHR_materials_clearcoat",
    "KHR_materials_ior",
    "KHR_materials_sheen",
    "KHR_materials_specular",
    "KHR_materials_transmission",
    "KHR_texture_basisu"
  ],
  "extensionsRequired": [
    "KHR_texture_basisu"
  ],
  "images": [
    {
      "uri": "../shared_textures/plastic_chip_normal.ktx2",
      "mimeType": "image/ktx2",
      "name": "plastic_chip_normal"
    },
    {
      "uri": "../shared_textures/plastic_chip_color.ktx2",
      "mimeType": "image/ktx2",
      "name": "plastic_chip_color"
    },
    {
      "uri": "../shared_textures/metal_pins_normal.ktx2",
      "mimeType": "image/ktx2",
      "name": "metal_pins_normal"
    },
    {
      "uri": "../shared_textures/metal_pins_color.ktx2",
      "mimeType": "image/ktx2",
      "name": "metal_pins_color"
    },
    {
      "uri": "../shared_textures/white_markings_normal.ktx2",
      "mimeType": "image/ktx2",
      "name": "white_markings_normal"
    },
    {
      "uri": "../shared_textures/white_markings_color.ktx2",
      "mimeType": "image/ktx2",
      "name": "white_markings_color"
    }
  ],
  "materials": [
    {
      "pbrMetallicRoughness": {
        "baseColorFactor": [
          1.0,
          1.0,
          1.0,
          1.0
        ],
        "metallicFactor": 0.13699999451637268,
        "roughnessFactor": 0.37063413858413696,
        "baseColorTexture": {
          "index": 0,
          "texCoord": 0
        }
      },
      "normalTexture": {
        "index": 1,
        "scale": 1.0
      },
      "emissiveFactor": [
        0.0,
        0.0,
        0.0
      ],
      "alphaMode": "OPAQUE",
      "doubleSided": true,
      "name": "gltf_plastic_chip"
    },
    {
      "extensions": {
        "KHR_materials_ior": {
          "ior": 1.4500000476837158
        },
        "KHR_materials_specular": {
          "specularFactor": 0
        }
      },
      "pbrMetallicRoughness": {
        "baseColorFactor": [
          1.0,
          1.0,
          1.0,
          1.0
        ],
        "metallicFactor": 0.7818182110786438,
        "roughnessFactor": 0.28863638639450073,
        "baseColorTexture": {
          "index": 2,
          "texCoord": 0
        }
      },
      "normalTexture": {
        "index": 3,
        "scale": 1.0
      },
      "emissiveFactor": [
        0.0,
        0.0,
        0.0
      ],
      "alphaMode": "OPAQUE",
      "doubleSided": true,
      "name": "gltf_metal_pins"
    },
    {
      "extensions": {
        "KHR_materials_clearcoat": {
          "clearcoatFactor": 0,
          "clearcoatRoughnessFactor": 0.67090904712677
        },
        "KHR_materials_ior": {
          "ior": 1.4500000476837158
        },
        "KHR_materials_sheen": {
          "sheenColorFactor": [
            1,
            1,
            1
          ],
          "sheenRoughnessFactor": 0.5
        },
        "KHR_materials_specular": {
          "specularColorFactor": [
            1.3181817531585693,
            1.3181817531585693,
            1.3181817531585693
          ]
        },
        "KHR_materials_transmission": {
          "transmissionFactor": 0.23181819915771484
        }
      },
      "pbrMetallicRoughness": {
        "baseColorFactor": [
          1.0,
          1.0,
          1.0,
          1.0
        ],
        "metallicFactor": 0.019999999552965164,
        "roughnessFactor": 0.4636361598968506,
        "baseColorTexture": {
          "index": 4,
          "texCoord": 0
        }
      },
      "normalTexture": {
        "index": 5,
        "scale": 1.0
      },
      "emissiveFactor": [
        0.0,
        0.0,
        0.0
      ],
      "alphaMode": "OPAQUE",
      "doubleSided": true,
      "name": "gltf_white_markings"
    }
  ],
  "meshes": [
    {
      "primitives": [
        {
          "attributes": {
            "POSITION": 0,
            "NORMAL": 1,
            "TEXCOORD_0": 2
          },
          "indices": 3,
          "mode": 4,
          "material": 0
        },
        {
          "attributes": {
            "POSITION": 6,
            "NORMAL": 7,
            "TEXCOORD_0": 8
          },
          "indices": 4,
          "mode": 4,
          "material": 1
        },
        {
          "attributes": {
            "POSITION": 9,
            "NORMAL": 10,
            "TEXCOORD_0": 11
          },
          "indices": 5,
          "mode": 4,
          "material": 2
        }
      ],
      "name": "SHAPE_9_IndexedFaceSet"
    }
  ],
  "nodes": [
    {
      "extras": {
        "PRIO": 0,
        "model_diagonal": 17.012936249464364
      },
      "mesh": 0,
      "name": "TQFP-64_10x10mm_P0.5mm"
    }
  ],
  "samplers": [
    {
      "magFilter": 9729,
      "minFilter": 9987,
      "wrapS": 10497,
      "wrapT": 10497
    }
  ],
  "scene": 0,
  "scenes": [
    {
      "name": "Scene",
      "nodes": [
        0
      ]
    }
  ],
  "textures": [
    {
      "extensions": {
        "KHR_texture_basisu": {
          "source": 1
        }
      },
      "sampler": 0
    },
    {
      "extensions": {
        "KHR_texture_basisu": {
          "source": 0
        }
      },
      "sampler": 0
    },
    {
      "extensions": {
        "KHR_texture_basisu": {
          "source": 3
        }
      },
      "sampler": 0
    },
    {
      "extensions": {
        "KHR_texture_basisu": {
          "source": 2
        }
      },
      "sampler": 0
    },
    {
      "extensions": {
        "KHR_texture_basisu": {
          "source": 5
        }
      },
      "sampler": 0
    },
    {
      "extensions": {
        "KHR_texture_basisu": {
          "source": 4
        }
      },
      "sampler": 0
    }
  ]
}