{
  "accessors": [
    {
      "bufferView": 0,
      "byteOffset": 0,
      "componentType": 5126,
      "normalized": false,
      "count": 1956,
      "type": "VEC3",
      "max": [
        3.9749999046325684,
        2.599883556365967,
        5.024833679199219
      ],
      "min": [
        -3.9749999046325684,
        0.039656393229961395,
        -2.5849995613098145
      ]
    },
    {
      "bufferView": 0,
      "byteOffset": 12,
      "componentType": 5126,
      "normalized": false,
      "count": 1956,
      "type": "VEC3"
    },
    {
      "bufferView": 0,
      "byteOffset": 24,
      "componentType": 5126,
      "normalized": false,
      "count": 1956,
      "type": "VEC2"
    },
    {
      "bufferView": 0,
      "byteOffset": 32,
      "componentType": 5126,
      "normalized": false,
      "count": 1956,
      "type": "VEC2"
    },
    {
      "bufferView": 1,
      "byteOffset": 0,
      "componentType": 5123,
      "normalized": false,
      "count": 3720,
      "type": "SCALAR"
    },
    {
      "bufferView": 1,
      "byteOffset": 7440,
      "componentType": 5123,
      "normalized": false,
      "count": 555,
      "type": "SCALAR"
    },
    {
      "bufferView": 1,
      "byteOffset": 8552,
      "componentType": 5123,
      "normalized": false,
      "count": 2253,
      "type": "SCALAR"
    },
    {
      "bufferView": 2,
      "byteOffset": 0,
      "componentType": 5126,
      "normalized": false,
      "count": 289,
      "type": "VEC3",
      "max": [
        1.2502864599227905,
        1.4903669357299805,
        2.075343608856201
      ],
      "min": [
        -1.2503434419631958,
        0.0,
        -2.9250006675720215
      ]
    },
    {
      "bufferView": 2,
      "byteOffset": 12,
      "componentType": 5126,
      "normalized": false,
      "count": 289,
      "type": "VEC3"
    },
    {
      "bufferView": 2,
      "byteOffset": 24,
      "componentType": 5126,
      "normalized": false,
      "count": 289,
      "type": "VEC2"
    },
    {
      "bufferView": 2,
      "byteOffset": 32,
      "componentType": 5126,
      "normalized": false,
      "count": 289,
      "type": "VEC2"
    },
    {
      "bufferView": 3,
      "byteOffset": 0,
      "componentType": 5126,
      "normalized": false,
      "count": 1155,
      "type": "VEC3",
      "max": [
        4.375,
        2.259735584259033,
        4.775561332702637
      ],
      "min": [
        -4.375,
        -1.4210854715202004e-14,
        -0.325000137090683
      ]
    },
    {
      "bufferView": 3,
      "byteOffset": 12,
      "componentType": 5126,
      "normalized": false,
      "count": 1155,
      "type": "VEC3"
    },
    {
      "bufferView": 3,
      "byteOffset": 24,
      "componentType": 5126,
      "normalized": false,
      "count": 1155,
      "type": "VEC2"
    },
    {
      "bufferView": 3,
      "byteOffset": 32,
      "componentType": 5126,
      "normalized": false,
      "count": 1155,
      "type": "VEC2"
    }
  ],
  "asset": {
    "generator": "pygltflib@v1.16.5",
    "version": "2.0"
  },
  "bufferViews": [
    {
      "buffer": 0,
      "byteOffset": 0,
      "byteLength": 78240,
      "byteStride": 40,
      "target": 34962
    },
    {
      "buffer": 0,
      "byteOffset": 78240,
      "byteLength": 13060,
      "target": 34963
    },
    {
      "buffer": 0,
      "byteOffset": 91300,
      "byteLength": 11560,
      "byteStride": 40,
      "target": 34962
    },
    {
      "buffer": 0,
      "byteOffset": 102860,
      "byteLength": 46200,
      "byteStride": 40,
      "target": 34962
    }
  ],
  "buffers": [
    {
      "uri": "Conn_Molex_Pico-Lock_1x2_205338-0002.bin",
      "byteLength": 149060
    }
  ],
  "extensionsUsed": [
    "KHR_materials_ior",
    "KHR_materials_specular",
    "KHR_texture_basisu"
  ],
  "extensionsRequired": [
    "KHR_texture_basisu"
  ],
  "images": [
    {
      "uri": "../shared_textures/plastic_matte_black_normal512.ktx2",
      "mimeType": "image/ktx2",
      "name": "plastic_matte_black_normal512"
    },
    {
      "uri": "../shared_textures/metal_pins_gold_normal512.ktx2",
      "mimeType": "image/ktx2",
      "name": "metal_pins_gold_normal512"
    },
    {
      "uri": "../shared_textures/metal_pins_gold_color512.ktx2",
      "mimeType": "image/ktx2",
      "name": "metal_pins_gold_color512"
    },
    {
      "uri": "../shared_textures/metal_pins_normal512.ktx2",
      "mimeType": "image/ktx2",
      "name": "metal_pins_normal512"
    },
    {
      "uri": "../shared_textures/metal_pins_color512.ktx2",
      "mimeType": "image/ktx2",
      "name": "metal_pins_color512"
    }
  ],
  "materials": [
    {
      "pbrMetallicRoughness": {
        "baseColorFactor": [
          0.009721336886286736,
          0.009721336886286736,
          0.009721336886286736,
          1.0
        ],
        "metallicFactor": 0.09154544770717621,
        "roughnessFactor": 0.4615432620048523
      },
      "normalTexture": {
        "index": 0,
        "scale": 1.0
      },
      "emissiveFactor": [
        0.0,
        0.0,
        0.0
      ],
      "alphaMode": "OPAQUE",
      "doubleSided": true,
      "name": "gltf_plastic_matte_black"
    },
    {
      "extensions": {
        "KHR_materials_ior": {
          "ior": 1.4500000476837158
        },
        "KHR_materials_specular": {
          "specularFactor": 0
        }
      },
      "pbrMetallicRoughness": {
        "baseColorFactor": [
          1.0,
          1.0,
          1.0,
          1.0
        ],
        "metallicFactor": 0.8136364221572876,
        "roughnessFactor": 0.28863638639450073,
        "baseColorTexture": {
          "index": 1,
          "texCoord": 0
        }
      },
      "normalTexture": {
        "index": 2,
        "scale": 1.0
      },
      "emissiveFactor": [
        0.0,
        0.0,
        0.0
      ],
      "alphaMode": "OPAQUE",
      "doubleSided": true,
      "name": "gltf_metal_pins_gold"
    },
    {
      "extensions": {
        "KHR_materials_ior": {
          "ior": 1.4500000476837158
        },
        "KHR_materials_specular": {
          "specularFactor": 0
        }
      },
      "pbrMetallicRoughness": {
        "baseColorFactor": [
          1.0,
          1.0,
          1.0,
          1.0
        ],
        "metallicFactor": 0.7818182110786438,
        "roughnessFactor": 0.28863638639450073,
        "baseColorTexture": {
          "index": 3,
          "texCoord": 0
        }
      },
      "normalTexture": {
        "index": 4,
        "scale": 1.0
      },
      "emissiveFactor": [
        0.0,
        0.0,
        0.0
      ],
      "alphaMode": "OPAQUE",
      "doubleSided": true,
      "name": "gltf_metal_pins"
    }
  ],
  "meshes": [
    {
      "primitives": [
        {
          "attributes": {
            "POSITION": 0,
            "NORMAL": 1,
            "TEXCOORD_0": 2,
            "TEXCOORD_1": 3
          },
          "indices": 4,
          "mode": 4,
          "material": 0
        },
        {
          "attributes": {
            "POSITION": 7,
            "NORMAL": 8,
            "TEXCOORD_0": 9,
            "TEXCOORD_1": 10
          },
          "indices": 5,
          "mode": 4,
          "material": 1
        },
        {
          "attributes": {
            "POSITION": 11,
            "NORMAL": 12,
            "TEXCOORD_0": 13,
            "TEXCOORD_1": 14
          },
          "indices": 6,
          "mode": 4,
          "material": 2
        }
      ],
      "name": "SHAPE_9_IndexedFaceSet"
    }
  ],
  "nodes": [
    {
      "extras": {
        "REF": "J",
        "PRIO": 0,
        "model_diagonal": 12.104751300754424
      },
      "mesh": 0,
      "name": "Conn_Molex_Pico-Lock_1x2_205338-0002"
    }
  ],
  "samplers": [
    {
      "magFilter": 9729,
      "minFilter": 9987,
      "wrapS": 10497,
      "wrapT": 10497
    }
  ],
  "scene": 0,
  "scenes": [
    {
      "extras": {
        "vrm_addon_extension": {
          "vrm0_material_gltf_property_names": [
            {
              "name": "_Color",
              "value": "_Color"
            },
            {
              "name": "_MainTex_ST",
              "value": "_MainTex_ST"
            },
            {
              "name": "_MainTex_ST_S",
              "value": "_MainTex_ST_S"
            },
            {
              "name": "_MainTex_ST_T",
              "value": "_MainTex_ST_T"
            },
            {
              "name": "_MetallicGlossMap_ST",
              "value": "_MetallicGlossMap_ST"
            },
            {
              "name": "_MetallicGlossMap_ST_S",
              "value": "_MetallicGlossMap_ST_S"
            },
            {
              "name": "_MetallicGlossMap_ST_T",
              "value": "_MetallicGlossMap_ST_T"
            },
            {
              "name": "_BumpMap_ST",
              "value": "_BumpMap_ST"
            },
            {
              "name": "_BumpMap_ST_S",
              "value": "_BumpMap_ST_S"
            },
            {
              "name": "_BumpMap_ST_T",
              "value": "_BumpMap_ST_T"
            },
            {
              "name": "_ParallaxMap_ST",
              "value": "_ParallaxMap_ST"
            },
            {
              "name": "_ParallaxMap_ST_S",
              "value": "_ParallaxMap_ST_S"
            },
            {
              "name": "_ParallaxMap_ST_T",
              "value": "_ParallaxMap_ST_T"
            },
            {
              "name": "_OcclusionMap_ST",
              "value": "_OcclusionMap_ST"
            },
            {
              "name": "_OcclusionMap_ST_S",
              "value": "_OcclusionMap_ST_S"
            },
            {
              "name": "_OcclusionMap_ST_T",
              "value": "_OcclusionMap_ST_T"
            },
            {
              "name": "_EmissionColor",
              "value": "_EmissionColor"
            },
            {
              "name": "_EmissionMap_ST",
              "value": "_EmissionMap_ST"
            },
            {
              "name": "_EmissionMap_ST_S",
              "value": "_EmissionMap_ST_S"
            },
            {
              "name": "_EmissionMap_ST_T",
              "value": "_EmissionMap_ST_T"
            },
            {
              "name": "_DetailMask_ST",
              "value": "_DetailMask_ST"
            },
            {
              "name": "_DetailMask_ST_S",
              "value": "_DetailMask_ST_S"
            },
            {
              "name": "_DetailMask_ST_T",
              "value": "_DetailMask_ST_T"
            },
            {
              "name": "_DetailAlbedoMap_ST",
              "value": "_DetailAlbedoMap_ST"
            },
            {
              "name": "_DetailAlbedoMap_ST_S",
              "value": "_DetailAlbedoMap_ST_S"
            },
            {
              "name": "_DetailAlbedoMap_ST_T",
              "value": "_DetailAlbedoMap_ST_T"
            },
            {
              "name": "_DetailNormalMap_ST",
              "value": "_DetailNormalMap_ST"
            },
            {
              "name": "_DetailNormalMap_ST_S",
              "value": "_DetailNormalMap_ST_S"
            },
            {
              "name": "_DetailNormalMap_ST_T",
              "value": "_DetailNormalMap_ST_T"
            }
          ],
          "vrm0_material_mtoon0_property_names": [
            {
              "name": "_Color",
              "value": "_Color"
            },
            {
              "name": "_ShadeColor",
              "value": "_ShadeColor"
            },
            {
              "name": "_MainTex_ST",
              "value": "_MainTex_ST"
            },
            {
              "name": "_MainTex_ST_S",
              "value": "_MainTex_ST_S"
            },
            {
              "name": "_MainTex_ST_T",
              "value": "_MainTex_ST_T"
            },
            {
              "name": "_ShadeTexture_ST",
              "value": "_ShadeTexture_ST"
            },
            {
              "name": "_ShadeTexture_ST_S",
              "value": "_ShadeTexture_ST_S"
            },
            {
              "name": "_ShadeTexture_ST_T",
              "value": "_ShadeTexture_ST_T"
            },
            {
              "name": "_BumpMap_ST",
              "value": "_BumpMap_ST"
            },
            {
              "name": "_BumpMap_ST_S",
              "value": "_BumpMap_ST_S"
            },
            {
              "name": "_BumpMap_ST_T",
              "value": "_BumpMap_ST_T"
            },
            {
              "name": "_ReceiveShadowTexture_ST",
              "value": "_ReceiveShadowTexture_ST"
            },
            {
              "name": "_ReceiveShadowTexture_ST_S",
              "value": "_ReceiveShadowTexture_ST_S"
            },
            {
              "name": "_ReceiveShadowTexture_ST_T",
              "value": "_ReceiveShadowTexture_ST_T"
            },
            {
              "name": "_ShadingGradeTexture_ST",
              "value": "_ShadingGradeTexture_ST"
            },
            {
              "name": "_ShadingGradeTexture_ST_S",
              "value": "_ShadingGradeTexture_ST_S"
            },
            {
              "name": "_ShadingGradeTexture_ST_T",
              "value": "_ShadingGradeTexture_ST_T"
            },
            {
              "name": "_RimColor",
              "value": "_RimColor"
            },
            {
              "name": "_RimTexture_ST",
              "value": "_RimTexture_ST"
            },
            {
              "name": "_RimTexture_ST_S",
              "value": "_RimTexture_ST_S"
            },
            {
              "name": "_RimTexture_ST_T",
              "value": "_RimTexture_ST_T"
            },
            {
              "name": "_SphereAdd_ST",
              "value": "_SphereAdd_ST"
            },
            {
              "name": "_SphereAdd_ST_S",
              "value": "_SphereAdd_ST_S"
            },
            {
              "name": "_SphereAdd_ST_T",
              "value": "_SphereAdd_ST_T"
            },
            {
              "name": "_EmissionColor",
              "value": "_EmissionColor"
            },
            {
              "name": "_EmissionMap_ST",
              "value": "_EmissionMap_ST"
            },
            {
              "name": "_EmissionMap_ST_S",
              "value": "_EmissionMap_ST_S"
            },
            {
              "name": "_EmissionMap_ST_T",
              "value": "_EmissionMap_ST_T"
            },
            {
              "name": "_OutlineWidthTexture_ST",
              "value": "_OutlineWidthTexture_ST"
            },
            {
              "name": "_OutlineWidthTexture_ST_S",
              "value": "_OutlineWidthTexture_ST_S"
            },
            {
              "name": "_OutlineWidthTexture_ST_T",
              "value": "_OutlineWidthTexture_ST_T"
            },
            {
              "name": "_OutlineColor",
              "value": "_OutlineColor"
            },
            {
              "name": "_UvAnimMaskTexture_ST",
              "value": "_UvAnimMaskTexture_ST"
            },
            {
              "name": "_UvAnimMaskTexture_ST_S",
              "value": "_UvAnimMaskTexture_ST_S"
            },
            {
              "name": "_UvAnimMaskTexture_ST_T",
              "value": "_UvAnimMaskTexture_ST_T"
            }
          ],
          "mesh_object_names": [
            {
              "name": "SHAPE_9_IndexedFaceSet",
              "value": "SHAPE_9_IndexedFaceSet"
            }
          ]
        }
      },
      "name": "Scene",
      "nodes": [
        0
      ]
    }
  ],
  "textures": [
    {
      "extensions": {
        "KHR_texture_basisu": {
          "source": 0
        }
      },
      "sampler": 0
    },
    {
      "extensions": {
        "KHR_texture_basisu": {
          "source": 2
        }
      },
      "sampler": 0
    },
    {
      "extensions": {
        "KHR_texture_basisu": {
          "source": 1
        }
      },
      "sampler": 0
    },
    {
      "extensions": {
        "KHR_texture_basisu": {
          "source": 4
        }
      },
      "sampler": 0
    },
    {
      "extensions": {
        "KHR_texture_basisu": {
          "source": 3
        }
      },
      "sampler": 0
    }
  ]
}