<?xml version="1.0" standalone="no"?>
 <!DOCTYPE svg PUBLIC "-//W3C//DTD SVG 1.1//EN" 
 "http://www.w3.org/Graphics/SVG/1.1/DTD/svg11.dtd"> 
<svg
  xmlns:svg="http://www.w3.org/2000/svg"
  xmlns="http://www.w3.org/2000/svg"
  xmlns:xlink="http://www.w3.org/1999/xlink"
  version="1.1"
  width="28.8290mm" height="6.5278mm" viewBox="0.0000 0.0000 28.8290 6.5278">
<title>SVG Image created as outline.svg date 2025/06/16 09:18:08 </title>
  <desc>Image generated by PCBNEW </desc>
<g style="fill:#000000; fill-opacity:1.0000;stroke:#000000; stroke-opacity:1.0000;
stroke-linecap:round; stroke-linejoin:round;"
 transform="translate(0 0) scale(1 1)">
</g>
<g style="fill:none; 
stroke:#000000; stroke-width:0.0200; stroke-opacity:1; 
stroke-linecap:round; stroke-linejoin:round;">
<path d="M0.5240 4.6580
L0.5250 4.6440
" />
<path d="M0.5240 4.6750
L0.5240 4.6580
" />
<path d="M0.5240 4.6750
L0.5240 5.3830
" />
<path d="M0.5240 5.3830
L0.5240 4.6750
" />
<path d="M0.5240 5.3900
L0.5240 5.3830
" />
<path d="M0.5240 5.3940
L0.5240 5.3900
" />
<path d="M0.5240 5.4010
L0.5240 5.3940
" />
<path d="M0.5250 4.6440
L0.5280 4.6280
" />
<path d="M0.5250 5.4060
L0.5240 5.4010
" />
<path d="M0.5270 5.4110
L0.5250 5.4060
" />
<path d="M0.5280 4.6280
L0.5310 4.6140
" />
<path d="M0.5280 5.4170
L0.5270 5.4110
" />
<path d="M0.5280 5.4220
L0.5280 5.4170
" />
<path d="M0.5310 4.6140
L0.5340 4.6000
" />
<path d="M0.5310 5.4270
L0.5280 5.4220
" />
<path d="M0.5330 5.4320
L0.5310 5.4270
" />
<path d="M0.5340 4.6000
L0.5370 4.5840
" />
<path d="M0.5340 5.4380
L0.5330 5.4320
" />
<path d="M0.5370 4.5840
L0.5430 4.5700
" />
<path d="M0.5370 5.4430
L0.5340 5.4380
" />
<path d="M0.5380 5.4470
L0.5370 5.4430
" />
<path d="M0.5400 5.4520
L0.5380 5.4470
" />
<path d="M0.5430 4.5700
L0.5470 4.5580
" />
<path d="M0.5440 5.4580
L0.5400 5.4520
" />
<path d="M0.5470 4.5580
L0.5530 4.5440
" />
<path d="M0.5470 5.4620
L0.5440 5.4580
" />
<path d="M0.5490 5.4670
L0.5470 5.4620
" />
<path d="M0.5530 4.5440
L0.5600 4.5310
" />
<path d="M0.5530 5.4710
L0.5490 5.4670
" />
<path d="M0.5560 5.4750
L0.5530 5.4710
" />
<path d="M0.5590 5.4790
L0.5560 5.4750
" />
<path d="M0.5600 4.5310
L0.5670 4.5190
" />
<path d="M0.5630 5.4830
L0.5590 5.4790
" />
<path d="M0.5660 5.4870
L0.5630 5.4830
" />
<path d="M0.5670 4.5190
L0.5760 4.5070
" />
<path d="M0.5690 5.4910
L0.5660 5.4870
" />
<path d="M0.5730 5.4950
L0.5690 5.4910
" />
<path d="M0.5760 4.5070
L0.5830 4.4950
" />
<path d="M0.5780 5.4990
L0.5730 5.4950
" />
<path d="M0.5820 5.5020
L0.5780 5.4990
" />
<path d="M0.5830 4.4950
L0.5920 4.4830
" />
<path d="M0.5860 5.5060
L0.5820 5.5020
" />
<path d="M0.5910 5.5080
L0.5860 5.5060
" />
<path d="M0.5920 4.4830
L0.6010 4.4730
" />
<path d="M0.5950 5.5110
L0.5910 5.5080
" />
<path d="M0.6010 4.4730
L0.6110 4.4610
" />
<path d="M0.6010 5.5150
L0.5950 5.5110
" />
<path d="M0.6050 5.5160
L0.6010 5.5150
" />
<path d="M0.6110 4.4610
L0.6230 4.4510
" />
<path d="M0.6110 5.5190
L0.6050 5.5160
" />
<path d="M0.6150 5.5220
L0.6110 5.5190
" />
<path d="M0.6210 5.5240
L0.6150 5.5220
" />
<path d="M0.6230 4.4510
L0.6330 4.4430
" />
<path d="M0.6270 5.5270
L0.6210 5.5240
" />
<path d="M0.6330 4.4430
L0.6440 4.4330
" />
<path d="M0.6330 5.5310
L0.6270 5.5270
" />
<path d="M0.6400 5.5350
L0.6330 5.5310
" />
<path d="M0.6440 4.4330
L0.6560 4.4250
" />
<path d="M0.6440 5.5390
L0.6400 5.5350
" />
<path d="M0.6490 5.5440
L0.6440 5.5390
" />
<path d="M0.6530 5.5500
L0.6490 5.5440
" />
<path d="M0.6560 4.4250
L0.6690 4.4170
" />
<path d="M0.6580 5.5550
L0.6530 5.5500
" />
<path d="M0.6620 5.5600
L0.6580 5.5550
" />
<path d="M0.6650 5.5670
L0.6620 5.5600
" />
<path d="M0.6680 5.5720
L0.6650 5.5670
" />
<path d="M0.6690 4.4170
L0.6810 4.4110
" />
<path d="M0.6710 5.5790
L0.6680 5.5720
" />
<path d="M0.6720 5.5850
L0.6710 5.5790
" />
<path d="M0.6750 5.5920
L0.6720 5.5850
" />
<path d="M0.6750 5.5990
L0.6750 5.5920
" />
<path d="M0.6760 5.6050
L0.6750 5.5990
" />
<path d="M0.6780 5.6150
L0.6760 5.6050
" />
<path d="M0.6780 5.6240
L0.6780 5.6150
" />
<path d="M0.6810 4.4110
L0.6940 4.4040
" />
<path d="M0.6810 5.6330
L0.6780 5.6240
" />
<path d="M0.6840 5.6430
L0.6810 5.6330
" />
<path d="M0.6870 5.6520
L0.6840 5.6430
" />
<path d="M0.6910 5.6600
L0.6870 5.6520
" />
<path d="M0.6940 4.4040
L0.7070 4.3980
" />
<path d="M0.6940 5.6680
L0.6910 5.6600
" />
<path d="M0.7000 5.6760
L0.6940 5.6680
" />
<path d="M0.7040 5.6850
L0.7000 5.6760
" />
<path d="M0.7070 4.3980
L0.7200 4.3920
" />
<path d="M0.7100 5.6920
L0.7040 5.6850
" />
<path d="M0.7160 5.6980
L0.7100 5.6920
" />
<path d="M0.7200 4.3920
L0.7350 4.3880
" />
<path d="M0.7230 5.7050
L0.7160 5.6980
" />
<path d="M0.7290 5.7120
L0.7230 5.7050
" />
<path d="M0.7350 4.3880
L0.7490 4.3840
" />
<path d="M0.7360 5.7180
L0.7290 5.7120
" />
<path d="M0.7430 5.7240
L0.7360 5.7180
" />
<path d="M0.7490 4.3840
L0.7640 4.3800
" />
<path d="M0.7520 5.7290
L0.7430 5.7240
" />
</g>
<g style="fill:#000000; fill-opacity:1.0000; stroke:none;">
<circle cx="0.7520" cy="5.7290" r="0.0100" /> 
</g>
<g style="fill:none; 
stroke:#000000; stroke-width:0.0200; stroke-opacity:1; 
stroke-linecap:round; stroke-linejoin:round;">
<path d="M0.7590 5.7330
L0.7520 5.7290
" />
<path d="M0.7640 4.3800
L0.7780 4.3780
" />
<path d="M0.7680 5.7380
L0.7590 5.7330
" />
<path d="M0.7770 5.7410
L0.7680 5.7380
" />
<path d="M0.7780 4.3780
L0.7940 4.3760
" />
<path d="M0.7850 5.7450
L0.7770 5.7410
" />
<path d="M0.7940 4.3760
L0.8090 4.3740
" />
<path d="M0.7940 5.7480
L0.7850 5.7450
" />
<path d="M0.8030 5.7490
L0.7940 5.7480
" />
<path d="M0.8090 4.3740
L0.8250 4.3740
" />
<path d="M0.8130 5.7520
L0.8030 5.7490
" />
<path d="M0.8220 5.7530
L0.8130 5.7520
" />
<path d="M0.8250 4.3740
L3.5880 4.3740
" />
<path d="M0.8320 5.7530
L0.8220 5.7530
" />
<path d="M0.8410 5.7530
L0.8320 5.7530
" />
<path d="M0.8510 5.7530
L0.8410 5.7530
" />
<path d="M0.8600 5.7520
L0.8510 5.7530
" />
<path d="M0.8680 5.7500
L0.8600 5.7520
" />
<path d="M0.8770 5.7480
L0.8680 5.7500
" />
<path d="M0.8870 5.7450
L0.8770 5.7480
" />
<path d="M0.8960 5.7420
L0.8870 5.7450
" />
<path d="M0.8960 5.7420
L0.9000 5.7410
" />
<path d="M0.9000 5.7410
L0.8960 5.7420
" />
<path d="M0.9000 5.7410
L0.9060 5.7380
" />
<path d="M0.9060 5.7380
L0.9000 5.7410
" />
<path d="M0.9060 5.7380
L0.9090 5.7370
" />
<path d="M0.9090 5.7370
L0.9060 5.7380
" />
<path d="M0.9090 5.7370
L0.9150 5.7370
" />
<path d="M0.9150 5.7370
L0.9090 5.7370
" />
<path d="M0.9150 5.7370
L0.9190 5.7360
" />
<path d="M0.9190 5.7360
L0.9150 5.7370
" />
<path d="M0.9190 5.7360
L0.9240 5.7360
" />
<path d="M0.9240 5.7360
L0.9190 5.7360
" />
<path d="M0.9240 5.7360
L0.9280 5.7360
" />
<path d="M0.9280 5.7360
L0.9240 5.7360
" />
<path d="M0.9280 5.7360
L0.9340 5.7360
" />
<path d="M0.9340 5.7360
L0.9280 5.7360
" />
<path d="M0.9340 5.7360
L0.9380 5.7360
" />
<path d="M0.9380 5.7360
L0.9340 5.7360
" />
<path d="M0.9380 5.7360
L0.9420 5.7360
" />
<path d="M0.9420 5.7360
L0.9380 5.7360
" />
<path d="M0.9420 5.7360
L0.9470 5.7370
" />
<path d="M0.9470 5.7370
L0.9420 5.7360
" />
<path d="M0.9470 5.7370
L0.9510 5.7370
" />
<path d="M0.9510 5.7370
L0.9470 5.7370
" />
<path d="M0.9510 5.7370
L0.9570 5.7380
" />
<path d="M0.9570 5.7380
L0.9510 5.7370
" />
<path d="M0.9570 5.7380
L0.9600 5.7400
" />
<path d="M0.9600 5.7400
L0.9570 5.7380
" />
<path d="M0.9600 5.7400
L0.9660 5.7410
" />
<path d="M0.9660 5.7410
L0.9600 5.7400
" />
<path d="M0.9660 5.7410
L0.9700 5.7420
" />
<path d="M0.9700 5.7420
L0.9660 5.7410
" />
<path d="M0.9700 5.7420
L0.9730 5.7450
" />
<path d="M0.9730 5.7450
L0.9700 5.7420
" />
<path d="M0.9730 5.7450
L0.9770 5.7460
" />
<path d="M0.9770 5.7460
L0.9730 5.7450
" />
<path d="M0.9770 5.7460
L0.9830 5.7490
" />
<path d="M0.9830 5.7490
L0.9770 5.7460
" />
<path d="M0.9830 5.7490
L0.9860 5.7500
" />
<path d="M0.9860 5.7500
L0.9830 5.7490
" />
<path d="M0.9860 5.7500
L0.9890 5.7530
" />
<path d="M0.9890 5.7530
L0.9860 5.7500
" />
<path d="M0.9890 5.7530
L0.9930 5.7560
" />
<path d="M0.9930 5.7560
L0.9890 5.7530
" />
<path d="M0.9930 5.7560
L0.9980 5.7580
" />
<path d="M0.9980 5.7580
L0.9930 5.7560
" />
<path d="M0.9980 5.7580
L1.0010 5.7620
" />
<path d="M1.0010 5.7620
L0.9980 5.7580
" />
<path d="M1.0010 5.7620
L1.0050 5.7650
" />
<path d="M1.0050 5.7650
L1.0010 5.7620
" />
<path d="M1.0050 5.7650
L1.0080 5.7690
" />
<path d="M1.0080 5.7690
L1.0050 5.7650
" />
<path d="M1.0080 5.7690
L1.0110 5.7730
" />
<path d="M1.0110 5.7730
L1.0080 5.7690
" />
<path d="M1.0110 5.7730
L1.0140 5.7770
" />
<path d="M1.0140 5.7770
L1.0110 5.7730
" />
<path d="M1.0140 5.7770
L1.0150 5.7810
" />
<path d="M1.0150 5.7810
L1.0140 5.7770
" />
<path d="M1.0150 5.7810
L1.0180 5.7850
" />
<path d="M1.0180 5.7850
L1.0150 5.7810
" />
<path d="M1.0180 5.7850
L1.0210 5.7890
" />
<path d="M1.0210 5.7890
L1.0180 5.7850
" />
<path d="M1.0210 5.7890
L1.0240 5.7930
" />
<path d="M1.0240 5.7930
L1.0210 5.7890
" />
<path d="M1.0270 5.8010
L1.0240 5.7930
" />
<path d="M1.0310 5.8080
L1.0270 5.8010
" />
<path d="M1.0350 5.8140
L1.0310 5.8080
" />
<path d="M1.0400 5.8210
L1.0350 5.8140
" />
<path d="M1.0460 5.8260
L1.0400 5.8210
" />
<path d="M1.0510 5.8330
L1.0460 5.8260
" />
<path d="M1.0570 5.8380
L1.0510 5.8330
" />
<path d="M1.0630 5.8420
L1.0570 5.8380
" />
<path d="M1.0700 5.8460
L1.0630 5.8420
" />
<path d="M1.0760 5.8500
L1.0700 5.8460
" />
<path d="M1.0830 5.8540
L1.0760 5.8500
" />
<path d="M1.0920 5.8580
L1.0830 5.8540
" />
<path d="M1.0980 5.8610
L1.0920 5.8580
" />
<path d="M1.1070 5.8620
L1.0980 5.8610
" />
<path d="M1.1140 5.8650
L1.1070 5.8620
" />
<path d="M1.1230 5.8660
L1.1140 5.8650
" />
<path d="M1.1230 5.8660
L1.1330 5.8050
" />
<path d="M1.1260 5.8660
L1.1230 5.8660
" />
<path d="M1.1280 5.8670
L1.1260 5.8660
" />
</g>
<g style="fill:#000000; fill-opacity:1.0000; stroke:none;">
<circle cx="1.1310" cy="5.7420" r="0.0100" /> 
</g>
<g style="fill:none; 
stroke:#000000; stroke-width:0.0200; stroke-opacity:1; 
stroke-linecap:round; stroke-linejoin:round;">
<path d="M1.1310 5.8670
L1.1280 5.8670
" />
<path d="M1.1330 5.7420
L1.1310 5.7420
" />
<path d="M1.1330 5.7440
L1.1330 5.7420
" />
<path d="M1.1330 5.7450
L1.1330 5.7440
" />
</g>
<g style="fill:#000000; fill-opacity:1.0000; stroke:none;">
<circle cx="1.1330" cy="5.7450" r="0.0100" /> 
<circle cx="1.1330" cy="5.8050" r="0.0100" /> 
</g>
<g style="fill:none; 
stroke:#000000; stroke-width:0.0200; stroke-opacity:1; 
stroke-linecap:round; stroke-linejoin:round;">
<path d="M1.1330 5.8050
L1.1370 5.7860
" />
<path d="M1.1340 5.7450
L1.1330 5.7450
" />
</g>
<g style="fill:#000000; fill-opacity:1.0000; stroke:none;">
<circle cx="1.1340" cy="5.7450" r="0.0100" /> 
</g>
<g style="fill:none; 
stroke:#000000; stroke-width:0.0200; stroke-opacity:1; 
stroke-linecap:round; stroke-linejoin:round;">
<path d="M1.1360 5.7450
L1.1340 5.7450
" />
<path d="M1.1360 5.7460
L1.1360 5.7450
" />
</g>
<g style="fill:#000000; fill-opacity:1.0000; stroke:none;">
<circle cx="1.1360" cy="5.7460" r="0.0100" /> 
</g>
<g style="fill:none; 
stroke:#000000; stroke-width:0.0200; stroke-opacity:1; 
stroke-linecap:round; stroke-linejoin:round;">
<path d="M1.1360 5.8690
L1.1310 5.8670
" />
<path d="M1.1370 5.7460
L1.1360 5.7460
" />
</g>
<g style="fill:#000000; fill-opacity:1.0000; stroke:none;">
<circle cx="1.1370" cy="5.7460" r="0.0100" /> 
<circle cx="1.1370" cy="5.7460" r="0.0100" /> 
<circle cx="1.1370" cy="5.7460" r="0.0100" /> 
<circle cx="1.1370" cy="5.7460" r="0.0100" /> 
</g>
<g style="fill:none; 
stroke:#000000; stroke-width:0.0200; stroke-opacity:1; 
stroke-linecap:round; stroke-linejoin:round;">
<path d="M1.1370 5.7480
L1.1370 5.7460
" />
</g>
<g style="fill:#000000; fill-opacity:1.0000; stroke:none;">
<circle cx="1.1370" cy="5.7480" r="0.0100" /> 
</g>
<g style="fill:none; 
stroke:#000000; stroke-width:0.0200; stroke-opacity:1; 
stroke-linecap:round; stroke-linejoin:round;">
<path d="M1.1370 5.7780
L1.1400 5.7700
" />
<path d="M1.1370 5.7860
L1.1370 5.7780
" />
<path d="M1.1390 5.7480
L1.1370 5.7480
" />
</g>
<g style="fill:#000000; fill-opacity:1.0000; stroke:none;">
<circle cx="1.1390" cy="5.7480" r="0.0100" /> 
</g>
<g style="fill:none; 
stroke:#000000; stroke-width:0.0200; stroke-opacity:1; 
stroke-linecap:round; stroke-linejoin:round;">
<path d="M1.1400 5.7480
L1.1390 5.7480
" />
</g>
<g style="fill:#000000; fill-opacity:1.0000; stroke:none;">
<circle cx="1.1400" cy="5.7480" r="0.0100" /> 
<circle cx="1.1400" cy="5.7480" r="0.0100" /> 
</g>
<g style="fill:none; 
stroke:#000000; stroke-width:0.0200; stroke-opacity:1; 
stroke-linecap:round; stroke-linejoin:round;">
<path d="M1.1400 5.7570
L1.1420 5.7520
" />
<path d="M1.1400 5.7640
L1.1400 5.7570
" />
<path d="M1.1400 5.7700
L1.1400 5.7640
" />
<path d="M1.1420 5.7480
L1.1400 5.7480
" />
<path d="M1.1420 5.7520
L1.1420 5.7480
" />
<path d="M1.1460 5.8700
L1.1360 5.8690
" />
<path d="M1.1500 5.7490
L1.1420 5.7480
" />
<path d="M1.1580 5.8700
L1.1460 5.8700
" />
<path d="M1.1690 5.8710
L1.1580 5.8700
" />
<path d="M1.1790 5.8730
L1.1690 5.8710
" />
<path d="M1.1910 5.8740
L1.1790 5.8730
" />
<path d="M1.2010 5.8740
L1.1910 5.8740
" />
<path d="M1.2130 5.8740
L1.2010 5.8740
" />
<path d="M1.2240 5.8740
L1.2130 5.8740
" />
<path d="M1.3680 4.3740
L1.3760 4.3740
" />
<path d="M1.3760 4.3740
L1.3830 4.3740
" />
<path d="M1.3800 4.3740
L1.3680 4.3740
" />
<path d="M1.3830 4.3740
L1.3900 4.3720
" />
<path d="M1.3900 4.3720
L1.3960 4.3720
" />
<path d="M1.3920 4.3720
L1.3800 4.3740
" />
<path d="M1.3960 4.3720
L1.4030 4.3700
" />
<path d="M1.4020 4.3700
L1.3920 4.3720
" />
<path d="M1.4030 4.3700
L1.4090 4.3700
" />
<path d="M1.4090 4.3700
L1.4160 4.3680
" />
<path d="M1.4120 4.3700
L1.4020 4.3700
" />
<path d="M1.4160 4.3680
L1.4220 4.3660
" />
<path d="M1.4220 4.3660
L1.4120 4.3700
" />
<path d="M1.4220 4.3660
L1.4280 4.3640
" />
<path d="M1.4280 4.3640
L1.4350 4.3620
" />
<path d="M1.4310 4.3640
L1.4220 4.3660
" />
<path d="M1.4350 4.3620
L1.4410 4.3600
" />
<path d="M1.4400 4.3620
L1.4310 4.3640
" />
<path d="M1.4410 4.3600
L1.4470 4.3580
" />
<path d="M1.4470 4.3580
L1.4530 4.3560
" />
<path d="M1.4480 4.3580
L1.4400 4.3620
" />
<path d="M1.4530 4.3560
L1.4570 4.3540
" />
<path d="M1.4570 4.3540
L1.4480 4.3580
" />
<path d="M1.4570 4.3540
L1.4630 4.3500
" />
<path d="M1.4630 4.3500
L1.4690 4.3480
" />
<path d="M1.4640 4.3500
L1.4570 4.3540
" />
<path d="M1.4730 4.3440
L1.4640 4.3500
" />
<path d="M1.4790 4.3400
L1.4730 4.3440
" />
<path d="M1.4880 4.3340
L1.4790 4.3400
" />
<path d="M1.4950 4.3280
L1.4880 4.3340
" />
<path d="M1.5020 4.3220
L1.4950 4.3280
" />
<path d="M1.5090 4.3160
L1.5020 4.3220
" />
</g>
<g style="fill:#000000; fill-opacity:1.0000; stroke:none;">
<circle cx="1.5090" cy="4.3160" r="0.0100" /> 
</g>
<g style="fill:none; 
stroke:#000000; stroke-width:0.0200; stroke-opacity:1; 
stroke-linecap:round; stroke-linejoin:round;">
<path d="M1.5090 4.3160
L1.5140 4.3120
" />
<path d="M1.5140 4.3120
L1.5180 4.3060
" />
<path d="M1.5150 4.3100
L1.5090 4.3160
" />
<path d="M1.5180 4.3060
L1.5210 4.3020
" />
<path d="M1.5210 4.3020
L1.5250 4.2980
" />
<path d="M1.5210 4.3040
L1.5150 4.3100
" />
<path d="M1.5250 4.2980
L1.5280 4.2920
" />
<path d="M1.5270 4.2960
L1.5210 4.3040
" />
<path d="M1.5280 4.2920
L1.5330 4.2880
" />
<path d="M1.5310 4.2900
L1.5270 4.2960
" />
<path d="M1.5330 4.2880
L1.5350 4.2840
" />
<path d="M1.5350 4.2840
L1.5380 4.2780
" />
<path d="M1.5370 4.2820
L1.5310 4.2900
" />
<path d="M1.5410 4.2750
L1.5370 4.2820
" />
<path d="M1.5460 4.2670
L1.5410 4.2750
" />
<path d="M1.5500 4.2570
L1.5460 4.2670
" />
<path d="M1.5530 4.2490
L1.5500 4.2570
" />
<path d="M1.5560 4.2410
L1.5530 4.2490
" />
<path d="M1.5600 4.2310
L1.5560 4.2410
" />
<path d="M1.5600 4.2330
L1.5620 4.2250
" />
<path d="M1.5630 4.2230
L1.5600 4.2310
" />
<path d="M1.5650 4.2130
L1.5630 4.2230
" />
<path d="M1.5660 4.1970
L1.5660 4.2050
" />
<path d="M1.5660 4.2050
L1.5650 4.2130
" />
<path d="M1.5670 4.1890
L1.5660 4.1970
" />
<path d="M1.5670 4.1890
L1.5690 4.1750
" />
<path d="M1.5690 4.1750
L1.7330 1.9030
" />
<path d="M1.7330 1.9030
L1.7350 1.8930
" />
<path d="M1.7350 1.8930
L1.7360 1.8850
" />
<path d="M1.7360 1.8770
L1.7390 1.8690
" />
<path d="M1.7360 1.8850
L1.7360 1.8770
" />
<path d="M1.7390 1.8590
L1.7420 1.8510
" />
<path d="M1.7390 1.8690
L1.7390 1.8590
" />
<path d="M1.7420 1.8510
L1.7450 1.8440
" />
<path d="M1.7450 1.8440
L1.7460 1.8360
" />
<path d="M1.7460 1.8360
L1.7490 1.8280
" />
<path d="M1.7490 1.8280
L1.7520 1.8180
" />
<path d="M1.7520 1.8180
L1.7550 1.8120
" />
<path d="M1.7550 1.8120
L1.7580 1.8040
" />
<path d="M1.7580 1.8040
L1.7620 1.7960
" />
<path d="M1.7620 1.7960
L1.7650 1.7880
" />
<path d="M1.7650 1.7880
L1.7690 1.7800
" />
<path d="M1.7690 1.7800
L1.7740 1.7720
" />
<path d="M1.7740 1.3750
L1.7740 1.7720
" />
<path d="M1.7740 1.3750
L1.7740 3.8740
" />
<path d="M1.7740 3.9000
L1.7740 3.8740
" />
<path d="M1.7770 3.9260
L1.7740 3.9000
" />
<path d="M1.7800 3.9510
L1.7770 3.9260
" />
<path d="M1.7840 3.9740
L1.7800 3.9510
" />
<path d="M1.7900 1.5540
L1.7910 1.5440
" />
<path d="M1.7900 1.5640
L1.7900 1.5540
" />
<path d="M1.7900 1.5740
L1.7900 1.5640
" />
<path d="M1.7900 3.9250
L1.7900 1.5740
" />
<path d="M1.7900 3.9320
L1.7900 3.9250
" />
<path d="M1.7900 3.9390
L1.7900 3.9320
" />
<path d="M1.7900 3.9470
L1.7900 3.9390
" />
<path d="M1.7900 3.9980
L1.7840 3.9740
" />
<path d="M1.7910 1.5440
L1.7940 1.5340
" />
<path d="M1.7910 3.9540
L1.7900 3.9470
" />
<path d="M1.7940 1.5340
L1.7960 1.5240
" />
<path d="M1.7940 3.9600
L1.7910 3.9540
" />
<path d="M1.7960 1.5240
L1.7970 1.5140
" />
<path d="M1.7960 3.9670
L1.7940 3.9600
" />
<path d="M1.7970 1.5140
L1.8010 1.5060
" />
<path d="M1.7970 3.9740
L1.7960 3.9670
" />
<path d="M1.7970 4.0230
L1.7900 3.9980
" />
<path d="M1.8000 3.9810
L1.7970 3.9740
" />
<path d="M1.8010 1.5060
L1.8040 1.4960
" />
<path d="M1.8030 3.9880
L1.8000 3.9810
" />
<path d="M1.8040 1.4960
L1.8090 1.4880
" />
<path d="M1.8040 4.0460
L1.7970 4.0230
" />
<path d="M1.8060 3.9940
L1.8030 3.9880
" />
<path d="M1.8090 1.4880
L1.8130 1.4780
" />
<path d="M1.8100 4.0010
L1.8060 3.9940
" />
<path d="M1.8130 1.4780
L1.8170 1.4700
" />
<path d="M1.8130 4.0690
L1.8040 4.0460
" />
<path d="M1.8150 4.0070
L1.8100 4.0010
" />
<path d="M1.8170 1.4700
L1.8230 1.4620
" />
<path d="M1.8190 4.0130
L1.8150 4.0070
" />
<path d="M1.8220 4.0190
L1.8190 4.0130
" />
<path d="M1.8230 1.4620
L1.8290 1.4550
" />
<path d="M1.8230 4.0900
L1.8130 4.0690
" />
<path d="M1.8280 4.0250
L1.8220 4.0190
" />
<path d="M1.8290 1.4550
L1.8350 1.4470
" />
<path d="M1.8320 4.0310
L1.8280 4.0250
" />
</g>
<g style="fill:#000000; fill-opacity:1.0000; stroke:none;">
<circle cx="1.8320" cy="4.0310" r="0.0100" /> 
</g>
<g style="fill:none; 
stroke:#000000; stroke-width:0.0200; stroke-opacity:1; 
stroke-linecap:round; stroke-linejoin:round;">
<path d="M1.8350 1.4470
L1.8410 1.4390
" />
<path d="M1.8350 4.1120
L1.8230 4.0900
" />
<path d="M1.8380 4.0360
L1.8320 4.0310
" />
<path d="M1.8410 1.4390
L1.8480 1.4330
" />
<path d="M1.8440 4.0410
L1.8380 4.0360
" />
<path d="M1.8470 4.1340
L1.8350 4.1120
" />
<path d="M1.8480 1.4330
L1.8540 1.4250
" />
<path d="M1.8490 4.0450
L1.8440 4.0410
" />
<path d="M1.8540 1.4250
L1.8610 1.4190
" />
<path d="M1.8550 4.0490
L1.8490 4.0450
" />
<path d="M1.8600 4.1530
L1.8470 4.1340
" />
<path d="M1.8610 1.4190
L1.8700 1.4130
" />
<path d="M1.8610 4.0530
L1.8550 4.0490
" />
<path d="M1.8680 4.0570
L1.8610 4.0530
" />
<path d="M1.8700 1.4130
L1.8770 1.4090
" />
<path d="M1.8740 4.0600
L1.8680 4.0570
" />
<path d="M1.8740 4.1730
L1.8600 4.1530
" />
<path d="M1.8770 1.4090
L1.8860 1.4030
" />
<path d="M1.8810 4.0630
L1.8740 4.0600
" />
<path d="M1.8860 1.4030
L1.8930 1.3990
" />
<path d="M1.8890 4.0660
L1.8810 4.0630
" />
<path d="M1.8890 4.1930
L1.8740 4.1730
" />
<path d="M1.8930 1.3990
L1.9030 1.3930
" />
<path d="M1.8960 4.0680
L1.8890 4.0660
" />
<path d="M1.9030 1.3930
L1.9120 1.3890
" />
<path d="M1.9030 4.0700
L1.8960 4.0680
" />
<path d="M1.9030 4.2110
L1.8890 4.1930
" />
<path d="M1.9090 4.0720
L1.9030 4.0700
" />
<path d="M1.9120 1.3890
L1.9210 1.3870
" />
<path d="M1.9160 4.0730
L1.9090 4.0720
" />
<path d="M1.9210 1.3870
L1.9290 1.3830
" />
<path d="M1.9210 4.2270
L1.9030 4.2110
" />
<path d="M1.9250 4.0740
L1.9160 4.0730
" />
<path d="M1.9290 1.3830
L1.9400 1.3810
" />
<path d="M1.9310 4.0740
L1.9250 4.0740
" />
<path d="M1.9380 4.2450
L1.9210 4.2270
" />
<path d="M1.9400 1.3810
L1.9480 1.3790
" />
<path d="M1.9400 4.0750
L1.9310 4.0740
" />
<path d="M1.9400 4.0750
L2.9400 4.0750
" />
<path d="M1.9480 1.3790
L1.9580 1.3770
" />
<path d="M1.9560 4.2590
L1.9380 4.2450
" />
<path d="M1.9580 1.3770
L1.9690 1.3750
" />
<path d="M1.9690 1.3750
L1.9790 1.3750
" />
<path d="M1.9740 4.2750
L1.9560 4.2590
" />
<path d="M1.9790 1.3750
L1.9890 1.3750
" />
<path d="M1.9950 4.2880
L1.9740 4.2750
" />
<path d="M2.0150 4.3020
L1.9950 4.2880
" />
<path d="M2.0350 4.3140
L2.0150 4.3020
" />
<path d="M2.0570 4.3240
L2.0350 4.3140
" />
<path d="M2.0790 4.3340
L2.0570 4.3240
" />
<path d="M2.1020 4.3440
L2.0790 4.3340
" />
<path d="M2.1260 4.3520
L2.1020 4.3440
" />
<path d="M2.1490 4.3580
L2.1260 4.3520
" />
<path d="M2.1740 4.3640
L2.1490 4.3580
" />
<path d="M2.1970 4.3680
L2.1740 4.3640
" />
<path d="M2.2230 4.3720
L2.1970 4.3680
" />
<path d="M2.2490 4.3740
L2.2230 4.3720
" />
<path d="M2.2740 4.3740
L2.2490 4.3740
" />
<path d="M2.8900 1.3750
L1.9890 1.3750
" />
<path d="M2.8900 1.3750
L2.8990 1.3750
" />
<path d="M2.8990 1.3750
L2.9090 1.3750
" />
<path d="M2.9090 1.3750
L2.9190 1.3770
" />
<path d="M2.9190 1.3770
L2.9290 1.3790
" />
<path d="M2.9290 1.3790
L2.9380 1.3810
" />
<path d="M2.9380 1.3810
L2.9480 1.3830
" />
<path d="M2.9440 4.0750
L2.9400 4.0750
" />
<path d="M2.9480 1.3830
L2.9570 1.3870
" />
<path d="M2.9510 4.0750
L2.9440 4.0750
" />
<path d="M2.9570 1.3870
L2.9670 1.3890
" />
<path d="M2.9570 4.0760
L2.9510 4.0750
" />
<path d="M2.9630 4.0760
L2.9570 4.0760
" />
<path d="M2.9670 1.3890
L2.9760 1.3930
" />
<path d="M2.9690 4.0770
L2.9630 4.0760
" />
<path d="M2.9730 4.0790
L2.9690 4.0770
" />
<path d="M2.9760 1.3930
L2.9850 1.3990
" />
<path d="M2.9790 4.0800
L2.9730 4.0790
" />
<path d="M2.9850 1.3990
L2.9920 1.4030
" />
<path d="M2.9850 4.0820
L2.9790 4.0800
" />
<path d="M2.9900 4.0840
L2.9850 4.0820
" />
<path d="M2.9920 1.4030
L3.0010 1.4090
" />
<path d="M2.9950 4.0850
L2.9900 4.0840
" />
<path d="M3.0010 1.4090
L3.0080 1.4130
" />
<path d="M3.0010 4.0870
L2.9950 4.0850
" />
<path d="M3.0060 4.0890
L3.0010 4.0870
" />
<path d="M3.0080 1.4130
L3.0170 1.4190
" />
<path d="M3.0110 4.0920
L3.0060 4.0890
" />
<path d="M3.0170 1.4190
L3.0240 1.4250
" />
<path d="M3.0170 4.0950
L3.0110 4.0920
" />
<path d="M3.0210 4.0980
L3.0170 4.0950
" />
<path d="M3.0240 1.4250
L3.0310 1.4330
" />
<path d="M3.0250 4.1010
L3.0210 4.0980
" />
<path d="M3.0310 1.4330
L3.0370 1.4390
" />
<path d="M3.0310 4.1040
L3.0250 4.1010
" />
<path d="M3.0340 4.1080
L3.0310 4.1040
" />
<path d="M3.0370 1.4390
L3.0440 1.4470
" />
<path d="M3.0380 4.1120
L3.0340 4.1080
" />
<path d="M3.0440 1.4470
L3.0500 1.4550
" />
<path d="M3.0440 4.1160
L3.0380 4.1120
" />
<path d="M3.0470 4.1200
L3.0440 4.1160
" />
<path d="M3.0500 1.4550
L3.0540 1.4620
" />
<path d="M3.0510 4.1240
L3.0470 4.1200
" />
<path d="M3.0540 1.4620
L3.0600 1.4700
" />
<path d="M3.0540 4.1280
L3.0510 4.1240
" />
<path d="M3.0590 4.1340
L3.0540 4.1280
" />
<path d="M3.0600 1.4700
L3.0650 1.4780
" />
<path d="M3.0620 4.1380
L3.0590 4.1340
" />
<path d="M3.0650 1.4780
L3.0690 1.4880
" />
<path d="M3.0650 4.1420
L3.0620 4.1380
" />
<path d="M3.0670 4.1480
L3.0650 4.1420
" />
<path d="M3.0690 1.4880
L3.0730 1.4960
" />
<path d="M3.0700 4.1530
L3.0670 4.1480
" />
<path d="M3.0730 1.4960
L3.0760 1.5060
" />
<path d="M3.0730 4.1570
L3.0700 4.1530
" />
<path d="M3.0760 1.5060
L3.0810 1.5140
" />
<path d="M3.0760 4.1630
L3.0730 4.1570
" />
<path d="M3.0790 4.1690
L3.0760 4.1630
" />
<path d="M3.0810 1.5140
L3.0820 1.5240
" />
<path d="M3.0810 4.1750
L3.0790 4.1690
" />
<path d="M3.0820 1.5240
L3.0850 1.5340
" />
<path d="M3.0830 4.1830
L3.0810 4.1750
" />
<path d="M3.0850 1.5340
L3.0860 1.5440
" />
<path d="M3.0860 1.5440
L3.0880 1.5540
" />
<path d="M3.0880 1.5540
L3.0880 1.5640
" />
<path d="M3.0880 1.5640
L3.0880 1.5740
" />
<path d="M3.0880 2.8750
L3.0880 1.5740
" />
<path d="M3.0880 2.8750
L3.0890 2.8790
" />
<path d="M3.0880 4.1910
L3.0830 4.1830
" />
<path d="M3.0890 2.8790
L3.0890 2.8840
" />
<path d="M3.0890 2.8840
L3.0910 2.8880
" />
<path d="M3.0910 2.8880
L3.0910 2.8930
" />
<path d="M3.0910 2.8930
L3.0920 2.8980
" />
<path d="M3.0920 2.8980
L3.0940 2.9040
" />
<path d="M3.0920 4.2010
L3.0880 4.1910
" />
<path d="M3.0940 2.9040
L3.0950 2.9080
" />
<path d="M3.0950 2.9080
L3.0970 2.9130
" />
<path d="M3.0970 2.9130
L3.0980 2.9160
" />
<path d="M3.0980 2.9160
L3.1010 2.9210
" />
<path d="M3.0980 4.2090
L3.0920 4.2010
" />
<path d="M3.1010 2.9210
L3.1040 2.9250
" />
<path d="M3.1040 2.9250
L3.1050 2.9290
" />
<path d="M3.1040 4.2150
L3.0980 4.2090
" />
<path d="M3.1050 2.9290
L3.1080 2.9340
" />
<path d="M3.1080 2.9340
L3.1110 2.9380
" />
<path d="M3.1100 4.2230
L3.1040 4.2150
" />
<path d="M3.1110 2.9380
L3.1140 2.9420
" />
<path d="M3.1140 2.9420
L3.1180 2.9450
" />
<path d="M3.1150 4.2290
L3.1100 4.2230
" />
</g>
<g style="fill:#000000; fill-opacity:1.0000; stroke:none;">
<circle cx="3.1180" cy="2.9450" r="0.0100" /> 
</g>
<g style="fill:none; 
stroke:#000000; stroke-width:0.0200; stroke-opacity:1; 
stroke-linecap:round; stroke-linejoin:round;">
<path d="M3.1180 2.9450
L3.1210 2.9490
" />
<path d="M3.1210 2.9490
L3.1260 2.9510
" />
<path d="M3.1230 4.2370
L3.1150 4.2290
" />
<path d="M3.1260 2.9510
L3.1300 2.9540
" />
<path d="M3.1300 2.9540
L3.1330 2.9570
" />
<path d="M3.1300 4.2430
L3.1230 4.2370
" />
<path d="M3.1330 2.9570
L3.1370 2.9590
" />
<path d="M3.1370 2.9590
L3.1420 2.9620
" />
<path d="M3.1370 4.2470
L3.1300 4.2430
" />
<path d="M3.1420 2.9620
L3.1460 2.9650
" />
<path d="M3.1450 4.2530
L3.1370 4.2470
" />
<path d="M3.1460 2.9650
L3.1500 2.9670
" />
<path d="M3.1500 2.9670
L3.1560 2.9690
" />
<path d="M3.1530 4.2570
L3.1450 4.2530
" />
<path d="M3.1560 2.9690
L3.1590 2.9700
" />
<path d="M3.1590 2.9700
L3.1650 2.9720
" />
<path d="M3.1620 4.2610
L3.1530 4.2570
" />
<path d="M3.1650 2.9720
L3.1690 2.9730
" />
<path d="M3.1690 2.9730
L3.1750 2.9730
" />
<path d="M3.1710 4.2650
L3.1620 4.2610
" />
<path d="M3.1750 2.9730
L3.1790 2.9740
" />
<path d="M3.1790 2.9740
L3.1850 2.9740
" />
<path d="M3.1790 4.2670
L3.1710 4.2650
" />
<path d="M3.1850 2.9740
L3.1900 2.9750
" />
<path d="M3.1900 4.2710
L3.1790 4.2670
" />
<path d="M3.1900 4.2710
L3.2220 4.2750
" />
<path d="M3.2220 4.2750
L3.1900 4.2710
" />
<path d="M3.2220 4.2750
L3.4830 4.2750
" />
<path d="M3.3100 4.2750
L3.2100 4.3740
" />
<path d="M3.3100 4.2750
L3.3900 4.2750
" />
<path d="M3.3600 1.6750
L3.3600 2.9750
" />
<path d="M3.3900 4.2750
L3.2220 4.2750
" />
<path d="M3.4720 2.9750
L3.1900 2.9750
" />
</g>
<g style="fill:#000000; fill-opacity:1.0000; stroke:none;">
<circle cx="3.4720" cy="2.9750" r="0.0100" /> 
<circle cx="3.4830" cy="4.2750" r="0.0100" /> 
</g>
<g style="fill:none; 
stroke:#000000; stroke-width:0.0200; stroke-opacity:1; 
stroke-linecap:round; stroke-linejoin:round;">
<path d="M3.4830 4.2750
L3.5880 4.2750
" />
<path d="M3.5880 1.3750
L1.7740 1.3750
" />
<path d="M3.5880 1.3750
L3.5880 4.3740
" />
<path d="M3.5880 1.6750
L3.3600 1.6750
" />
<path d="M3.5880 2.9750
L3.4720 2.9750
" />
<path d="M3.5880 4.2750
L3.3100 4.2750
" />
<path d="M3.5880 4.3740
L5.0240 4.3740
" />
<path d="M4.0340 1.3240
L4.1140 1.1750
" />
<path d="M4.0340 1.3750
L4.0340 1.3240
" />
<path d="M4.2350 1.1750
L4.1140 1.1750
" />
<path d="M4.2350 1.1750
L4.3150 1.3240
" />
<path d="M4.3150 1.3240
L4.3150 1.3750
" />
<path d="M4.5340 1.3240
L4.5340 1.3750
" />
<path d="M4.5340 1.3240
L4.6140 1.1750
" />
<path d="M4.6140 1.1750
L4.7350 1.1750
" />
<path d="M4.7350 1.1750
L4.8150 1.3240
" />
<path d="M4.8150 1.3240
L4.8150 1.3750
" />
<path d="M4.8250 0.3740
L4.8250 0.4730
" />
<path d="M4.8250 0.3740
L5.0240 0.3740
" />
<path d="M4.8250 0.4730
L4.8250 0.6050
" />
<path d="M4.8250 0.6050
L4.8250 0.6860
" />
<path d="M4.8250 0.6860
L4.8250 0.8200
" />
<path d="M4.8250 0.8200
L4.8250 0.8750
" />
<path d="M4.8250 0.8750
L4.8250 0.9750
" />
<path d="M4.8250 0.8750
L5.0240 0.8750
" />
<path d="M4.8250 0.9750
L4.8250 1.0240
" />
<path d="M4.8250 1.0240
L4.8250 1.0750
" />
<path d="M4.8250 1.0750
L4.8250 1.1250
" />
<path d="M4.8250 1.0750
L5.0240 1.0750
" />
<path d="M4.8250 1.1250
L4.8250 1.3240
" />
<path d="M4.8250 1.1250
L5.0240 1.1250
" />
<path d="M4.8250 1.3240
L4.8250 1.3750
" />
<path d="M5.0240 0.4730
L5.0240 0.3740
" />
<path d="M5.0240 0.6050
L5.0240 0.4730
" />
<path d="M5.0240 0.6860
L5.0240 0.6050
" />
<path d="M5.0240 0.8200
L5.0240 0.6860
" />
<path d="M5.0240 0.8750
L4.8250 0.8750
" />
<path d="M5.0240 0.8750
L5.0240 0.8200
" />
<path d="M5.0240 0.9750
L5.0240 0.8750
" />
<path d="M5.0240 1.0240
L5.0240 0.9750
" />
<path d="M5.0240 1.0750
L5.0240 1.0240
" />
<path d="M5.0240 1.1250
L5.0240 1.0750
" />
<path d="M5.0240 1.3240
L5.0240 1.1250
" />
<path d="M5.0240 1.3750
L3.5880 1.3750
" />
<path d="M5.0240 1.3750
L5.0240 1.3240
" />
<path d="M5.0240 1.3750
L5.0240 4.3740
" />
<path d="M5.0240 4.3740
L5.0240 1.3750
" />
<path d="M5.0240 4.3740
L6.0240 4.3740
" />
<path d="M5.0240 4.4950
L5.0240 4.3740
" />
<path d="M5.0240 4.4950
L5.0240 4.3740
" />
<path d="M5.0240 4.4950
L5.0240 5.7540
" />
<path d="M5.0240 5.7540
L5.0240 4.4950
" />
<path d="M5.0240 5.7540
L5.0240 5.8740
" />
<path d="M5.0240 5.8740
L1.2240 5.8740
" />
<path d="M5.0240 5.8740
L5.0240 5.7540
" />
<path d="M5.0340 1.3240
L5.1140 1.1750
" />
<path d="M5.0340 1.3750
L5.0340 1.3240
" />
<path d="M5.1140 1.1750
L5.2350 1.1750
" />
<path d="M5.2350 1.1750
L5.3150 1.3240
" />
<path d="M5.3150 1.3240
L5.3150 1.3750
" />
<path d="M5.5340 1.3240
L5.6140 1.1750
" />
<path d="M5.5340 1.3750
L5.5340 1.3240
" />
<path d="M5.6140 1.1750
L5.7350 1.1750
" />
<path d="M5.7350 1.1750
L5.8150 1.3240
" />
<path d="M5.8150 1.3240
L5.8150 1.3750
" />
<path d="M5.8250 0.3740
L5.8250 0.4730
" />
<path d="M5.8250 0.3740
L6.0240 0.3740
" />
<path d="M5.8250 0.4730
L5.8250 0.6050
" />
<path d="M5.8250 0.6050
L5.8250 0.6860
" />
<path d="M5.8250 0.6860
L5.8250 0.8200
" />
<path d="M5.8250 0.8200
L5.8250 0.8750
" />
<path d="M5.8250 0.8750
L5.8250 0.9750
" />
<path d="M5.8250 0.8750
L6.0240 0.8750
" />
<path d="M5.8250 0.9750
L5.8250 1.0240
" />
<path d="M5.8250 1.0240
L5.8250 1.0750
" />
<path d="M5.8250 1.0750
L5.8250 1.1250
" />
<path d="M5.8250 1.0750
L6.0240 1.0750
" />
<path d="M5.8250 1.1250
L5.8250 1.3240
" />
<path d="M5.8250 1.1250
L6.0240 1.1250
" />
<path d="M5.8250 1.3240
L5.8250 1.3750
" />
<path d="M6.0240 0.4730
L6.0240 0.3740
" />
<path d="M6.0240 0.6050
L6.0240 0.4730
" />
<path d="M6.0240 0.6860
L6.0240 0.6050
" />
<path d="M6.0240 0.8200
L6.0240 0.6860
" />
<path d="M6.0240 0.8750
L5.8250 0.8750
" />
<path d="M6.0240 0.8750
L6.0240 0.8200
" />
<path d="M6.0240 0.9750
L6.0240 0.8750
" />
<path d="M6.0240 1.0240
L6.0240 0.9750
" />
<path d="M6.0240 1.0750
L6.0240 1.0240
" />
<path d="M6.0240 1.1250
L6.0240 1.0750
" />
<path d="M6.0240 1.3240
L6.0240 1.1250
" />
<path d="M6.0240 1.3750
L5.0240 1.3750
" />
<path d="M6.0240 1.3750
L6.0240 1.3240
" />
<path d="M6.0240 1.3750
L6.0240 4.3740
" />
<path d="M6.0240 4.3740
L6.0240 1.3750
" />
<path d="M6.0240 4.3740
L7.0240 4.3740
" />
<path d="M6.0240 4.4950
L6.0240 4.3740
" />
<path d="M6.0240 4.4950
L6.0240 4.3740
" />
<path d="M6.0240 4.4950
L6.0240 5.7540
" />
<path d="M6.0240 5.7540
L6.0240 4.4950
" />
<path d="M6.0240 5.7540
L6.0240 5.8740
" />
<path d="M6.0240 5.8740
L5.0240 5.8740
" />
<path d="M6.0240 5.8740
L6.0240 5.7540
" />
<path d="M6.0340 1.3240
L6.1140 1.1750
" />
<path d="M6.0340 1.3750
L6.0340 1.3240
" />
<path d="M6.1140 1.1750
L6.2350 1.1750
" />
<path d="M6.2350 1.1750
L6.3150 1.3240
" />
<path d="M6.3150 1.3240
L6.3150 1.3750
" />
<path d="M6.5340 1.3240
L6.6140 1.1750
" />
<path d="M6.5340 1.3750
L6.5340 1.3240
" />
<path d="M6.6140 1.1750
L6.7340 1.1750
" />
<path d="M6.7340 1.1750
L6.8140 1.3240
" />
<path d="M6.8140 1.3240
L6.8140 1.3750
" />
<path d="M6.8240 0.3740
L6.8240 0.4730
" />
<path d="M6.8240 0.3740
L7.0240 0.3740
" />
<path d="M6.8240 0.4730
L6.8240 0.6050
" />
<path d="M6.8240 0.6050
L6.8240 0.6860
" />
<path d="M6.8240 0.6860
L6.8240 0.8200
" />
<path d="M6.8240 0.8200
L6.8240 0.8750
" />
<path d="M6.8240 0.8750
L6.8240 0.9750
" />
<path d="M6.8240 0.8750
L7.0240 0.8750
" />
<path d="M6.8240 0.9750
L6.8240 1.0240
" />
<path d="M6.8240 1.0240
L6.8240 1.0750
" />
<path d="M6.8240 1.0750
L6.8240 1.1250
" />
<path d="M6.8240 1.0750
L7.0240 1.0750
" />
<path d="M6.8240 1.1250
L6.8240 1.3240
" />
<path d="M6.8240 1.1250
L7.0240 1.1250
" />
<path d="M6.8240 1.3240
L6.8240 1.3750
" />
<path d="M7.0240 0.4730
L7.0240 0.3740
" />
<path d="M7.0240 0.6050
L7.0240 0.4730
" />
<path d="M7.0240 0.6860
L7.0240 0.6050
" />
<path d="M7.0240 0.8200
L7.0240 0.6860
" />
<path d="M7.0240 0.8750
L6.8240 0.8750
" />
<path d="M7.0240 0.8750
L7.0240 0.8200
" />
<path d="M7.0240 0.9750
L7.0240 0.8750
" />
<path d="M7.0240 1.0240
L7.0240 0.9750
" />
<path d="M7.0240 1.0750
L7.0240 1.0240
" />
<path d="M7.0240 1.1250
L7.0240 1.0750
" />
<path d="M7.0240 1.3240
L7.0240 1.1250
" />
<path d="M7.0240 1.3750
L6.0240 1.3750
" />
<path d="M7.0240 1.3750
L7.0240 1.3240
" />
<path d="M7.0240 1.3750
L7.0240 4.3740
" />
<path d="M7.0240 4.3740
L7.0240 1.3750
" />
<path d="M7.0240 4.3740
L8.0240 4.3740
" />
<path d="M7.0240 4.4950
L7.0240 4.3740
" />
<path d="M7.0240 4.4950
L7.0240 4.3740
" />
<path d="M7.0240 4.4950
L7.0240 5.7540
" />
<path d="M7.0240 5.7540
L7.0240 4.4950
" />
<path d="M7.0240 5.7540
L7.0240 5.8740
" />
<path d="M7.0240 5.8740
L6.0240 5.8740
" />
<path d="M7.0240 5.8740
L7.0240 5.7540
" />
<path d="M7.0340 1.3240
L7.1140 1.1750
" />
<path d="M7.0340 1.3750
L7.0340 1.3240
" />
<path d="M7.1140 1.1750
L7.2340 1.1750
" />
<path d="M7.2340 1.1750
L7.3140 1.3240
" />
<path d="M7.3140 1.3240
L7.3140 1.3750
" />
<path d="M7.5340 1.3240
L7.6140 1.1750
" />
<path d="M7.5340 1.3750
L7.5340 1.3240
" />
<path d="M7.6140 1.1750
L7.7340 1.1750
" />
<path d="M7.7340 1.1750
L7.8140 1.3240
" />
<path d="M7.8140 1.3240
L7.8140 1.3750
" />
<path d="M7.8240 0.3740
L7.8240 0.4730
" />
<path d="M7.8240 0.3740
L8.0240 0.3740
" />
<path d="M7.8240 0.4730
L7.8240 0.6050
" />
<path d="M7.8240 0.6050
L7.8240 0.6860
" />
<path d="M7.8240 0.6860
L7.8240 0.8200
" />
<path d="M7.8240 0.8200
L7.8240 0.8750
" />
<path d="M7.8240 0.8750
L7.8240 0.9750
" />
<path d="M7.8240 0.8750
L8.0240 0.8750
" />
<path d="M7.8240 0.9750
L7.8240 1.0240
" />
<path d="M7.8240 1.0240
L7.8240 1.0750
" />
<path d="M7.8240 1.0750
L7.8240 1.1250
" />
<path d="M7.8240 1.0750
L8.0240 1.0750
" />
<path d="M7.8240 1.1250
L7.8240 1.3240
" />
<path d="M7.8240 1.1250
L8.0240 1.1250
" />
<path d="M7.8240 1.3240
L7.8240 1.3750
" />
<path d="M8.0240 0.4730
L8.0240 0.3740
" />
<path d="M8.0240 0.6050
L8.0240 0.4730
" />
<path d="M8.0240 0.6860
L8.0240 0.6050
" />
<path d="M8.0240 0.8200
L8.0240 0.6860
" />
<path d="M8.0240 0.8750
L7.8240 0.8750
" />
<path d="M8.0240 0.8750
L8.0240 0.8200
" />
<path d="M8.0240 0.9750
L8.0240 0.8750
" />
<path d="M8.0240 1.0240
L8.0240 0.9750
" />
<path d="M8.0240 1.0750
L8.0240 1.0240
" />
<path d="M8.0240 1.1250
L8.0240 1.0750
" />
<path d="M8.0240 1.3240
L8.0240 1.1250
" />
<path d="M8.0240 1.3750
L7.0240 1.3750
" />
<path d="M8.0240 1.3750
L8.0240 1.3240
" />
<path d="M8.0240 1.3750
L8.0240 4.3740
" />
<path d="M8.0240 4.3740
L8.0240 1.3750
" />
<path d="M8.0240 4.3740
L9.0240 4.3740
" />
<path d="M8.0240 4.4950
L8.0240 4.3740
" />
<path d="M8.0240 4.4950
L8.0240 4.3740
" />
<path d="M8.0240 4.4950
L8.0240 5.7540
" />
<path d="M8.0240 5.7540
L8.0240 4.4950
" />
<path d="M8.0240 5.7540
L8.0240 5.8740
" />
<path d="M8.0240 5.8740
L7.0240 5.8740
" />
<path d="M8.0240 5.8740
L8.0240 5.7540
" />
<path d="M8.0340 1.3240
L8.1140 1.1750
" />
<path d="M8.0340 1.3750
L8.0340 1.3240
" />
<path d="M8.1140 1.1750
L8.2340 1.1750
" />
<path d="M8.2340 1.1750
L8.3140 1.3240
" />
<path d="M8.3140 1.3240
L8.3140 1.3750
" />
<path d="M8.5350 1.3240
L8.6140 1.1750
" />
<path d="M8.5350 1.3750
L8.5350 1.3240
" />
<path d="M8.6140 1.1750
L8.7340 1.1750
" />
<path d="M8.7340 1.1750
L8.8140 1.3240
" />
<path d="M8.8140 1.3240
L8.8140 1.3750
" />
<path d="M8.8240 0.3740
L8.8240 0.4730
" />
<path d="M8.8240 0.3740
L9.0240 0.3740
" />
<path d="M8.8240 0.4730
L8.8240 0.6050
" />
<path d="M8.8240 0.6050
L8.8240 0.6860
" />
<path d="M8.8240 0.6860
L8.8240 0.8200
" />
<path d="M8.8240 0.8200
L8.8240 0.8750
" />
<path d="M8.8240 0.8750
L8.8240 0.9750
" />
<path d="M8.8240 0.8750
L9.0240 0.8750
" />
<path d="M8.8240 0.9750
L8.8240 1.0240
" />
<path d="M8.8240 1.0240
L8.8240 1.0750
" />
<path d="M8.8240 1.0750
L8.8240 1.1250
" />
<path d="M8.8240 1.0750
L9.0240 1.0750
" />
<path d="M8.8240 1.1250
L8.8240 1.3240
" />
<path d="M8.8240 1.1250
L9.0240 1.1250
" />
<path d="M8.8240 1.3240
L8.8240 1.3750
" />
<path d="M9.0240 0.4730
L9.0240 0.3740
" />
<path d="M9.0240 0.6050
L9.0240 0.4730
" />
<path d="M9.0240 0.6860
L9.0240 0.6050
" />
<path d="M9.0240 0.8200
L9.0240 0.6860
" />
<path d="M9.0240 0.8750
L8.8240 0.8750
" />
<path d="M9.0240 0.8750
L9.0240 0.8200
" />
<path d="M9.0240 0.9750
L9.0240 0.8750
" />
<path d="M9.0240 1.0240
L9.0240 0.9750
" />
<path d="M9.0240 1.0750
L9.0240 1.0240
" />
<path d="M9.0240 1.1250
L9.0240 1.0750
" />
<path d="M9.0240 1.3240
L9.0240 1.1250
" />
<path d="M9.0240 1.3750
L8.0240 1.3750
" />
<path d="M9.0240 1.3750
L9.0240 1.3240
" />
<path d="M9.0240 1.3750
L9.0240 4.3740
" />
<path d="M9.0240 4.3740
L9.0240 1.3750
" />
<path d="M9.0240 4.3740
L10.0240 4.3740
" />
<path d="M9.0240 4.4950
L9.0240 4.3740
" />
<path d="M9.0240 4.4950
L9.0240 4.3740
" />
<path d="M9.0240 4.4950
L9.0240 5.7540
" />
<path d="M9.0240 5.7540
L9.0240 4.4950
" />
<path d="M9.0240 5.7540
L9.0240 5.8740
" />
<path d="M9.0240 5.8740
L8.0240 5.8740
" />
<path d="M9.0240 5.8740
L9.0240 5.7540
" />
<path d="M9.0350 1.3240
L9.1140 1.1750
" />
<path d="M9.0350 1.3750
L9.0350 1.3240
" />
<path d="M9.1140 1.1750
L9.2340 1.1750
" />
<path d="M9.2340 1.1750
L9.3140 1.3240
" />
<path d="M9.3140 1.3240
L9.3140 1.3750
" />
<path d="M9.5350 1.3240
L9.6140 1.1750
" />
<path d="M9.5350 1.3750
L9.5350 1.3240
" />
<path d="M9.6140 1.1750
L9.7340 1.1750
" />
<path d="M9.7340 1.1750
L9.8140 1.3240
" />
<path d="M9.8140 1.3240
L9.8140 1.3750
" />
<path d="M9.8240 0.3740
L9.8240 0.4730
" />
<path d="M9.8240 0.3740
L10.0240 0.3740
" />
<path d="M9.8240 0.4730
L9.8240 0.6050
" />
<path d="M9.8240 0.6050
L9.8240 0.6860
" />
<path d="M9.8240 0.6860
L9.8240 0.8200
" />
<path d="M9.8240 0.8200
L9.8240 0.8750
" />
<path d="M9.8240 0.8750
L9.8240 0.9750
" />
<path d="M9.8240 0.8750
L10.0240 0.8750
" />
<path d="M9.8240 0.9750
L9.8240 1.0240
" />
<path d="M9.8240 1.0240
L9.8240 1.0750
" />
<path d="M9.8240 1.0750
L9.8240 1.1250
" />
<path d="M9.8240 1.0750
L10.0240 1.0750
" />
<path d="M9.8240 1.1250
L9.8240 1.3240
" />
<path d="M9.8240 1.1250
L10.0240 1.1250
" />
<path d="M9.8240 1.3240
L9.8240 1.3750
" />
<path d="M10.0240 0.4730
L10.0240 0.3740
" />
<path d="M10.0240 0.6050
L10.0240 0.4730
" />
<path d="M10.0240 0.6860
L10.0240 0.6050
" />
<path d="M10.0240 0.8200
L10.0240 0.6860
" />
<path d="M10.0240 0.8750
L9.8240 0.8750
" />
<path d="M10.0240 0.8750
L10.0240 0.8200
" />
<path d="M10.0240 0.9750
L10.0240 0.8750
" />
<path d="M10.0240 1.0240
L10.0240 0.9750
" />
<path d="M10.0240 1.0750
L10.0240 1.0240
" />
<path d="M10.0240 1.1250
L10.0240 1.0750
" />
<path d="M10.0240 1.3240
L10.0240 1.1250
" />
<path d="M10.0240 1.3750
L9.0240 1.3750
" />
<path d="M10.0240 1.3750
L10.0240 1.3240
" />
<path d="M10.0240 1.3750
L10.0240 4.3740
" />
<path d="M10.0240 4.3740
L10.0240 1.3750
" />
<path d="M10.0240 4.3740
L11.0250 4.3740
" />
<path d="M10.0240 4.4950
L10.0240 4.3740
" />
<path d="M10.0240 4.4950
L10.0240 4.3740
" />
<path d="M10.0240 4.4950
L10.0240 5.7540
" />
<path d="M10.0240 5.7540
L10.0240 4.4950
" />
<path d="M10.0240 5.7540
L10.0240 5.8740
" />
<path d="M10.0240 5.8740
L9.0240 5.8740
" />
<path d="M10.0240 5.8740
L10.0240 5.7540
" />
<path d="M10.0350 1.3240
L10.1140 1.1750
" />
<path d="M10.0350 1.3750
L10.0350 1.3240
" />
<path d="M10.1140 1.1750
L10.2340 1.1750
" />
<path d="M10.2340 1.1750
L10.3140 1.3240
" />
<path d="M10.3140 1.3240
L10.3140 1.3750
" />
<path d="M10.5340 1.3240
L10.6150 1.1750
" />
<path d="M10.5340 1.3750
L10.5340 1.3240
" />
<path d="M10.6150 1.1750
L10.7350 1.1750
" />
<path d="M10.7350 1.1750
L10.8150 1.3240
" />
<path d="M10.8150 1.3240
L10.8150 1.3750
" />
<path d="M10.8240 0.3740
L10.8240 0.4730
" />
<path d="M10.8240 0.3740
L11.0250 0.3740
" />
<path d="M10.8240 0.4730
L10.8240 0.6050
" />
<path d="M10.8240 0.6050
L10.8240 0.6860
" />
<path d="M10.8240 0.6860
L10.8240 0.8200
" />
<path d="M10.8240 0.8200
L10.8240 0.8750
" />
<path d="M10.8240 0.8750
L10.8240 0.9750
" />
<path d="M10.8240 0.8750
L11.0250 0.8750
" />
<path d="M10.8240 0.9750
L10.8240 1.0240
" />
<path d="M10.8240 1.0240
L10.8240 1.0750
" />
<path d="M10.8240 1.0750
L10.8240 1.1250
" />
<path d="M10.8240 1.0750
L11.0250 1.0750
" />
<path d="M10.8240 1.1250
L10.8240 1.3240
" />
<path d="M10.8240 1.1250
L11.0250 1.1250
" />
<path d="M10.8240 1.3240
L10.8240 1.3750
" />
<path d="M11.0250 0.4730
L11.0250 0.3740
" />
<path d="M11.0250 0.6050
L11.0250 0.4730
" />
<path d="M11.0250 0.6860
L11.0250 0.6050
" />
<path d="M11.0250 0.8200
L11.0250 0.6860
" />
<path d="M11.0250 0.8750
L10.8240 0.8750
" />
<path d="M11.0250 0.8750
L11.0250 0.8200
" />
<path d="M11.0250 0.9750
L11.0250 0.8750
" />
<path d="M11.0250 1.0240
L11.0250 0.9750
" />
<path d="M11.0250 1.0750
L11.0250 1.0240
" />
<path d="M11.0250 1.1250
L11.0250 1.0750
" />
<path d="M11.0250 1.3240
L11.0250 1.1250
" />
<path d="M11.0250 1.3750
L10.0240 1.3750
" />
<path d="M11.0250 1.3750
L11.0250 1.3240
" />
<path d="M11.0250 1.3750
L11.0250 4.3740
" />
<path d="M11.0250 4.3740
L11.0250 1.3750
" />
<path d="M11.0250 4.3740
L12.0250 4.3740
" />
<path d="M11.0250 4.4950
L11.0250 4.3740
" />
<path d="M11.0250 4.4950
L11.0250 4.3740
" />
<path d="M11.0250 4.4950
L11.0250 5.7540
" />
<path d="M11.0250 5.7540
L11.0250 4.4950
" />
<path d="M11.0250 5.7540
L11.0250 5.8740
" />
<path d="M11.0250 5.8740
L10.0240 5.8740
" />
<path d="M11.0250 5.8740
L11.0250 5.7540
" />
<path d="M11.0340 1.3240
L11.1150 1.1750
" />
<path d="M11.0340 1.3750
L11.0340 1.3240
" />
<path d="M11.1150 1.1750
L11.2350 1.1750
" />
<path d="M11.2350 1.1750
L11.3150 1.3240
" />
<path d="M11.3150 1.3240
L11.3150 1.3750
" />
<path d="M11.5340 1.3240
L11.6150 1.1750
" />
<path d="M11.5340 1.3750
L11.5340 1.3240
" />
<path d="M11.6150 1.1750
L11.7350 1.1750
" />
<path d="M11.7350 1.1750
L11.8150 1.3240
" />
<path d="M11.8150 1.3240
L11.8150 1.3750
" />
<path d="M11.8240 0.3740
L11.8240 0.4730
" />
<path d="M11.8240 0.3740
L12.0250 0.3740
" />
<path d="M11.8240 0.4730
L11.8240 0.6050
" />
<path d="M11.8240 0.6050
L11.8240 0.6860
" />
<path d="M11.8240 0.6860
L11.8240 0.8200
" />
<path d="M11.8240 0.8200
L11.8240 0.8750
" />
<path d="M11.8240 0.8750
L11.8240 0.9750
" />
<path d="M11.8240 0.8750
L12.0250 0.8750
" />
<path d="M11.8240 0.9750
L11.8240 1.0240
" />
<path d="M11.8240 1.0240
L11.8240 1.0750
" />
<path d="M11.8240 1.0750
L11.8240 1.1250
" />
<path d="M11.8240 1.0750
L12.0250 1.0750
" />
<path d="M11.8240 1.1250
L11.8240 1.3240
" />
<path d="M11.8240 1.1250
L12.0250 1.1250
" />
<path d="M11.8240 1.3240
L11.8240 1.3750
" />
<path d="M12.0250 0.4730
L12.0250 0.3740
" />
<path d="M12.0250 0.6050
L12.0250 0.4730
" />
<path d="M12.0250 0.6860
L12.0250 0.6050
" />
<path d="M12.0250 0.8200
L12.0250 0.6860
" />
<path d="M12.0250 0.8750
L11.8240 0.8750
" />
<path d="M12.0250 0.8750
L12.0250 0.8200
" />
<path d="M12.0250 0.9750
L12.0250 0.8750
" />
<path d="M12.0250 1.0240
L12.0250 0.9750
" />
<path d="M12.0250 1.0750
L12.0250 1.0240
" />
<path d="M12.0250 1.1250
L12.0250 1.0750
" />
<path d="M12.0250 1.3240
L12.0250 1.1250
" />
<path d="M12.0250 1.3750
L11.0250 1.3750
" />
<path d="M12.0250 1.3750
L12.0250 1.3240
" />
<path d="M12.0250 1.3750
L12.0250 4.3740
" />
<path d="M12.0250 4.3740
L12.0250 1.3750
" />
<path d="M12.0250 4.3740
L13.0240 4.3740
" />
<path d="M12.0250 4.4950
L12.0250 4.3740
" />
<path d="M12.0250 4.4950
L12.0250 4.3740
" />
<path d="M12.0250 4.4950
L12.0250 5.7540
" />
<path d="M12.0250 5.7540
L12.0250 4.4950
" />
<path d="M12.0250 5.7540
L12.0250 5.8740
" />
<path d="M12.0250 5.8740
L11.0250 5.8740
" />
<path d="M12.0250 5.8740
L12.0250 5.7540
" />
<path d="M12.0340 1.3240
L12.1140 1.1750
" />
<path d="M12.0340 1.3750
L12.0340 1.3240
" />
<path d="M12.1140 1.1750
L12.2350 1.1750
" />
<path d="M12.2350 1.1750
L12.3150 1.3240
" />
<path d="M12.3150 1.3240
L12.3150 1.3750
" />
<path d="M12.5340 1.3240
L12.6140 1.1750
" />
<path d="M12.5340 1.3750
L12.5340 1.3240
" />
<path d="M12.6140 1.1750
L12.7350 1.1750
" />
<path d="M12.7350 1.1750
L12.8140 1.3240
" />
<path d="M12.8140 1.3240
L12.8140 1.3750
" />
<path d="M12.8240 0.3740
L12.8240 0.4730
" />
<path d="M12.8240 0.3740
L13.0240 0.3740
" />
<path d="M12.8240 0.4730
L12.8240 0.6050
" />
<path d="M12.8240 0.6050
L12.8240 0.6860
" />
<path d="M12.8240 0.6860
L12.8240 0.8200
" />
<path d="M12.8240 0.8200
L12.8240 0.8750
" />
<path d="M12.8240 0.8750
L12.8240 0.9750
" />
<path d="M12.8240 0.8750
L13.0240 0.8750
" />
<path d="M12.8240 0.9750
L12.8240 1.0240
" />
<path d="M12.8240 1.0240
L12.8240 1.0750
" />
<path d="M12.8240 1.0750
L12.8240 1.1250
" />
<path d="M12.8240 1.0750
L13.0240 1.0750
" />
<path d="M12.8240 1.1250
L12.8240 1.3240
" />
<path d="M12.8240 1.1250
L13.0240 1.1250
" />
<path d="M12.8240 1.3240
L12.8240 1.3750
" />
<path d="M13.0240 0.4730
L13.0240 0.3740
" />
<path d="M13.0240 0.6050
L13.0240 0.4730
" />
<path d="M13.0240 0.6860
L13.0240 0.6050
" />
<path d="M13.0240 0.8200
L13.0240 0.6860
" />
<path d="M13.0240 0.8750
L12.8240 0.8750
" />
<path d="M13.0240 0.8750
L13.0240 0.8200
" />
<path d="M13.0240 0.9750
L13.0240 0.8750
" />
<path d="M13.0240 1.0240
L13.0240 0.9750
" />
<path d="M13.0240 1.0750
L13.0240 1.0240
" />
<path d="M13.0240 1.1250
L13.0240 1.0750
" />
<path d="M13.0240 1.3240
L13.0240 1.1250
" />
<path d="M13.0240 1.3750
L12.0250 1.3750
" />
<path d="M13.0240 1.3750
L13.0240 1.3240
" />
<path d="M13.0240 1.3750
L13.0240 4.3740
" />
<path d="M13.0240 4.3740
L13.0240 1.3750
" />
<path d="M13.0240 4.3740
L14.0230 4.3740
" />
<path d="M13.0240 4.4950
L13.0240 4.3740
" />
<path d="M13.0240 4.4950
L13.0240 4.3740
" />
<path d="M13.0240 4.4950
L13.0240 5.7540
" />
<path d="M13.0240 5.7540
L13.0240 4.4950
" />
<path d="M13.0240 5.7540
L13.0240 5.8740
" />
<path d="M13.0240 5.8740
L12.0250 5.8740
" />
<path d="M13.0240 5.8740
L13.0240 5.7540
" />
<path d="M13.0340 1.3240
L13.1140 1.1750
" />
<path d="M13.0340 1.3750
L13.0340 1.3240
" />
<path d="M13.1140 1.1750
L13.2350 1.1750
" />
<path d="M13.2350 1.1750
L13.3140 1.3240
" />
<path d="M13.3140 1.3240
L13.3140 1.3750
" />
<path d="M13.5350 1.3240
L13.6130 1.1750
" />
<path d="M13.5350 1.3750
L13.5350 1.3240
" />
<path d="M13.6130 1.1750
L13.7340 1.1750
" />
<path d="M13.7340 1.1750
L13.8150 1.3240
" />
<path d="M13.8150 1.3240
L13.8150 1.3750
" />
<path d="M13.8250 0.3740
L13.8250 0.4730
" />
<path d="M13.8250 0.3740
L14.0230 0.3740
" />
<path d="M13.8250 0.4730
L13.8250 0.6050
" />
<path d="M13.8250 0.6050
L13.8250 0.6860
" />
<path d="M13.8250 0.6860
L13.8250 0.8200
" />
<path d="M13.8250 0.8200
L13.8250 0.8750
" />
<path d="M13.8250 0.8750
L13.8250 0.9750
" />
<path d="M13.8250 0.8750
L14.0230 0.8750
" />
<path d="M13.8250 0.9750
L13.8250 1.0240
" />
<path d="M13.8250 1.0240
L13.8250 1.0750
" />
<path d="M13.8250 1.0750
L13.8250 1.1250
" />
<path d="M13.8250 1.0750
L14.0230 1.0750
" />
<path d="M13.8250 1.1250
L13.8250 1.3240
" />
<path d="M13.8250 1.1250
L14.0230 1.1250
" />
<path d="M13.8250 1.3240
L13.8250 1.3750
" />
<path d="M14.0230 0.4730
L14.0230 0.3740
" />
<path d="M14.0230 0.6050
L14.0230 0.4730
" />
<path d="M14.0230 0.6860
L14.0230 0.6050
" />
<path d="M14.0230 0.8200
L14.0230 0.6860
" />
<path d="M14.0230 0.8750
L13.8250 0.8750
" />
<path d="M14.0230 0.8750
L14.0230 0.8200
" />
<path d="M14.0230 0.9750
L14.0230 0.8750
" />
<path d="M14.0230 1.0240
L14.0230 0.9750
" />
<path d="M14.0230 1.0750
L14.0230 1.0240
" />
<path d="M14.0230 1.1250
L14.0230 1.0750
" />
<path d="M14.0230 1.3240
L14.0230 1.1250
" />
<path d="M14.0230 1.3750
L13.0240 1.3750
" />
<path d="M14.0230 1.3750
L14.0230 1.3240
" />
<path d="M14.0230 1.3750
L14.0230 4.3740
" />
<path d="M14.0230 4.3740
L14.0230 1.3750
" />
<path d="M14.0230 4.3740
L15.0230 4.3740
" />
<path d="M14.0230 4.4950
L14.0230 4.3740
" />
<path d="M14.0230 4.4950
L14.0230 4.3740
" />
<path d="M14.0230 4.4950
L14.0230 5.7540
" />
<path d="M14.0230 5.7540
L14.0230 4.4950
" />
<path d="M14.0230 5.7540
L14.0230 5.8740
" />
<path d="M14.0230 5.8740
L13.0240 5.8740
" />
<path d="M14.0230 5.8740
L14.0230 5.7540
" />
<path d="M14.0330 1.3240
L14.1150 1.1750
" />
<path d="M14.0330 1.3750
L14.0330 1.3240
" />
<path d="M14.1150 1.1750
L14.2350 1.1750
" />
<path d="M14.2350 1.1750
L14.3150 1.3240
" />
<path d="M14.3150 1.3240
L14.3150 1.3750
" />
<path d="M14.5330 1.3240
L14.6130 1.1750
" />
<path d="M14.5330 1.3750
L14.5330 1.3240
" />
<path d="M14.6130 1.1750
L14.7330 1.1750
" />
<path d="M14.7330 1.1750
L14.8150 1.3240
" />
<path d="M14.8150 1.3240
L14.8150 1.3750
" />
<path d="M14.8250 0.3740
L14.8250 0.4730
" />
<path d="M14.8250 0.3740
L15.0230 0.3740
" />
<path d="M14.8250 0.4730
L14.8250 0.6050
" />
<path d="M14.8250 0.6050
L14.8250 0.6860
" />
<path d="M14.8250 0.6860
L14.8250 0.8200
" />
<path d="M14.8250 0.8200
L14.8250 0.8750
" />
<path d="M14.8250 0.8750
L14.8250 0.9750
" />
<path d="M14.8250 0.8750
L15.0230 0.8750
" />
<path d="M14.8250 0.9750
L14.8250 1.0240
" />
<path d="M14.8250 1.0240
L14.8250 1.0750
" />
<path d="M14.8250 1.0750
L14.8250 1.1250
" />
<path d="M14.8250 1.0750
L15.0230 1.0750
" />
<path d="M14.8250 1.1250
L14.8250 1.3240
" />
<path d="M14.8250 1.1250
L15.0230 1.1250
" />
<path d="M14.8250 1.3240
L14.8250 1.3750
" />
<path d="M15.0230 0.4730
L15.0230 0.3740
" />
<path d="M15.0230 0.6050
L15.0230 0.4730
" />
<path d="M15.0230 0.6860
L15.0230 0.6050
" />
<path d="M15.0230 0.8200
L15.0230 0.6860
" />
<path d="M15.0230 0.8750
L14.8250 0.8750
" />
<path d="M15.0230 0.8750
L15.0230 0.8200
" />
<path d="M15.0230 0.9750
L15.0230 0.8750
" />
<path d="M15.0230 1.0240
L15.0230 0.9750
" />
<path d="M15.0230 1.0750
L15.0230 1.0240
" />
<path d="M15.0230 1.1250
L15.0230 1.0750
" />
<path d="M15.0230 1.3240
L15.0230 1.1250
" />
<path d="M15.0230 1.3750
L14.0230 1.3750
" />
<path d="M15.0230 1.3750
L15.0230 1.3240
" />
<path d="M15.0230 1.3750
L15.0230 4.3740
" />
<path d="M15.0230 4.3740
L15.0230 1.3750
" />
<path d="M15.0230 4.3740
L16.0250 4.3740
" />
<path d="M15.0230 4.4950
L15.0230 4.3740
" />
<path d="M15.0230 4.4950
L15.0230 4.3740
" />
<path d="M15.0230 4.4950
L15.0230 5.7540
" />
<path d="M15.0230 5.7540
L15.0230 4.4950
" />
<path d="M15.0230 5.7540
L15.0230 5.8740
" />
<path d="M15.0230 5.8740
L14.0230 5.8740
" />
<path d="M15.0230 5.8740
L15.0230 5.7540
" />
<path d="M15.0330 1.3240
L15.1140 1.1750
" />
<path d="M15.0330 1.3750
L15.0330 1.3240
" />
<path d="M15.1140 1.1750
L15.2350 1.1750
" />
<path d="M15.2350 1.1750
L15.3130 1.3240
" />
<path d="M15.3130 1.3240
L15.3130 1.3750
" />
<path d="M15.5350 1.3240
L15.6140 1.1750
" />
<path d="M15.5350 1.3750
L15.5350 1.3240
" />
<path d="M15.6140 1.1750
L15.7350 1.1750
" />
<path d="M15.7350 1.1750
L15.8130 1.3240
" />
<path d="M15.8130 1.3240
L15.8130 1.3750
" />
<path d="M15.8230 0.3740
L15.8230 0.4730
" />
<path d="M15.8230 0.3740
L16.0250 0.3740
" />
<path d="M15.8230 0.4730
L15.8230 0.6050
" />
<path d="M15.8230 0.6050
L15.8230 0.6860
" />
<path d="M15.8230 0.6860
L15.8230 0.8200
" />
<path d="M15.8230 0.8200
L15.8230 0.8750
" />
<path d="M15.8230 0.8750
L15.8230 0.9750
" />
<path d="M15.8230 0.8750
L16.0250 0.8750
" />
<path d="M15.8230 0.9750
L15.8230 1.0240
" />
<path d="M15.8230 1.0240
L15.8230 1.0750
" />
<path d="M15.8230 1.0750
L15.8230 1.1250
" />
<path d="M15.8230 1.0750
L16.0250 1.0750
" />
<path d="M15.8230 1.1250
L15.8230 1.3240
" />
<path d="M15.8230 1.1250
L16.0250 1.1250
" />
<path d="M15.8230 1.3240
L15.8230 1.3750
" />
<path d="M16.0250 0.4730
L16.0250 0.3740
" />
<path d="M16.0250 0.6050
L16.0250 0.4730
" />
<path d="M16.0250 0.6860
L16.0250 0.6050
" />
<path d="M16.0250 0.8200
L16.0250 0.6860
" />
<path d="M16.0250 0.8750
L15.8230 0.8750
" />
<path d="M16.0250 0.8750
L16.0250 0.8200
" />
<path d="M16.0250 0.9750
L16.0250 0.8750
" />
<path d="M16.0250 1.0240
L16.0250 0.9750
" />
<path d="M16.0250 1.0750
L16.0250 1.0240
" />
<path d="M16.0250 1.1250
L16.0250 1.0750
" />
<path d="M16.0250 1.3240
L16.0250 1.1250
" />
<path d="M16.0250 1.3750
L15.0230 1.3750
" />
<path d="M16.0250 1.3750
L16.0250 1.3240
" />
<path d="M16.0250 1.3750
L16.0250 4.3740
" />
<path d="M16.0250 4.3740
L16.0250 1.3750
" />
<path d="M16.0250 4.3740
L17.0250 4.3740
" />
<path d="M16.0250 4.4950
L16.0250 4.3740
" />
<path d="M16.0250 4.4950
L16.0250 4.3740
" />
<path d="M16.0250 4.4950
L16.0250 5.7540
" />
<path d="M16.0250 5.7540
L16.0250 4.4950
" />
<path d="M16.0250 5.7540
L16.0250 5.8740
" />
<path d="M16.0250 5.8740
L15.0230 5.8740
" />
<path d="M16.0250 5.8740
L16.0250 5.7540
" />
<path d="M16.0350 1.3240
L16.1140 1.1750
" />
<path d="M16.0350 1.3750
L16.0350 1.3240
" />
<path d="M16.1140 1.1750
L16.2350 1.1750
" />
<path d="M16.2350 1.1750
L16.3130 1.3240
" />
<path d="M16.3130 1.3240
L16.3130 1.3750
" />
<path d="M16.5330 1.3240
L16.6140 1.1750
" />
<path d="M16.5330 1.3750
L16.5330 1.3240
" />
<path d="M16.6140 1.1750
L16.7350 1.1750
" />
<path d="M16.7350 1.1750
L16.8150 1.3240
" />
<path d="M16.8150 1.3240
L16.8150 1.3750
" />
<path d="M16.8230 0.3740
L16.8230 0.4730
" />
<path d="M16.8230 0.3740
L17.0250 0.3740
" />
<path d="M16.8230 0.4730
L16.8230 0.6050
" />
<path d="M16.8230 0.6050
L16.8230 0.6860
" />
<path d="M16.8230 0.6860
L16.8230 0.8200
" />
<path d="M16.8230 0.8200
L16.8230 0.8750
" />
<path d="M16.8230 0.8750
L16.8230 0.9750
" />
<path d="M16.8230 0.8750
L17.0250 0.8750
" />
<path d="M16.8230 0.9750
L16.8230 1.0240
" />
<path d="M16.8230 1.0240
L16.8230 1.0750
" />
<path d="M16.8230 1.0750
L16.8230 1.1250
" />
<path d="M16.8230 1.0750
L17.0250 1.0750
" />
<path d="M16.8230 1.1250
L16.8230 1.3240
" />
<path d="M16.8230 1.1250
L17.0250 1.1250
" />
<path d="M16.8230 1.3240
L16.8230 1.3750
" />
<path d="M17.0250 0.4730
L17.0250 0.3740
" />
<path d="M17.0250 0.6050
L17.0250 0.4730
" />
<path d="M17.0250 0.6860
L17.0250 0.6050
" />
<path d="M17.0250 0.8200
L17.0250 0.6860
" />
<path d="M17.0250 0.8750
L16.8230 0.8750
" />
<path d="M17.0250 0.8750
L17.0250 0.8200
" />
<path d="M17.0250 0.9750
L17.0250 0.8750
" />
<path d="M17.0250 1.0240
L17.0250 0.9750
" />
<path d="M17.0250 1.0750
L17.0250 1.0240
" />
<path d="M17.0250 1.1250
L17.0250 1.0750
" />
<path d="M17.0250 1.3240
L17.0250 1.1250
" />
<path d="M17.0250 1.3750
L16.0250 1.3750
" />
<path d="M17.0250 1.3750
L17.0250 1.3240
" />
<path d="M17.0250 1.3750
L17.0250 4.3740
" />
<path d="M17.0250 4.3740
L17.0250 1.3750
" />
<path d="M17.0250 4.3740
L18.0250 4.3740
" />
<path d="M17.0250 4.4950
L17.0250 4.3740
" />
<path d="M17.0250 4.4950
L17.0250 4.3740
" />
<path d="M17.0250 4.4950
L17.0250 5.7540
" />
<path d="M17.0250 5.7540
L17.0250 4.4950
" />
<path d="M17.0250 5.7540
L17.0250 5.8740
" />
<path d="M17.0250 5.8740
L16.0250 5.8740
" />
<path d="M17.0250 5.8740
L17.0250 5.7540
" />
<path d="M17.0330 1.3240
L17.1140 1.1750
" />
<path d="M17.0330 1.3750
L17.0330 1.3240
" />
<path d="M17.1140 1.1750
L17.2340 1.1750
" />
<path d="M17.2340 1.1750
L17.3150 1.3240
" />
<path d="M17.3150 1.3240
L17.3150 1.3750
" />
<path d="M17.5330 1.3240
L17.6130 1.1750
" />
<path d="M17.5330 1.3750
L17.5330 1.3240
" />
<path d="M17.6130 1.1750
L17.7340 1.1750
" />
<path d="M17.7340 1.1750
L17.8150 1.3240
" />
<path d="M17.8150 1.3240
L17.8150 1.3750
" />
<path d="M17.8230 0.3740
L17.8230 0.4730
" />
<path d="M17.8230 0.3740
L18.0250 0.3740
" />
<path d="M17.8230 0.4730
L17.8230 0.6050
" />
<path d="M17.8230 0.6050
L17.8230 0.6860
" />
<path d="M17.8230 0.6860
L17.8230 0.8200
" />
<path d="M17.8230 0.8200
L17.8230 0.8750
" />
<path d="M17.8230 0.8750
L17.8230 0.9750
" />
<path d="M17.8230 0.8750
L18.0250 0.8750
" />
<path d="M17.8230 0.9750
L17.8230 1.0240
" />
<path d="M17.8230 1.0240
L17.8230 1.0750
" />
<path d="M17.8230 1.0750
L17.8230 1.1250
" />
<path d="M17.8230 1.0750
L18.0250 1.0750
" />
<path d="M17.8230 1.1250
L17.8230 1.3240
" />
<path d="M17.8230 1.1250
L18.0250 1.1250
" />
<path d="M17.8230 1.3240
L17.8230 1.3750
" />
<path d="M18.0250 0.4730
L18.0250 0.3740
" />
<path d="M18.0250 0.6050
L18.0250 0.4730
" />
<path d="M18.0250 0.6860
L18.0250 0.6050
" />
<path d="M18.0250 0.8200
L18.0250 0.6860
" />
<path d="M18.0250 0.8750
L17.8230 0.8750
" />
<path d="M18.0250 0.8750
L18.0250 0.8200
" />
<path d="M18.0250 0.9750
L18.0250 0.8750
" />
<path d="M18.0250 1.0240
L18.0250 0.9750
" />
<path d="M18.0250 1.0750
L18.0250 1.0240
" />
<path d="M18.0250 1.1250
L18.0250 1.0750
" />
<path d="M18.0250 1.3240
L18.0250 1.1250
" />
<path d="M18.0250 1.3750
L17.0250 1.3750
" />
<path d="M18.0250 1.3750
L18.0250 1.3240
" />
<path d="M18.0250 1.3750
L18.0250 4.3740
" />
<path d="M18.0250 4.3740
L18.0250 1.3750
" />
<path d="M18.0250 4.3740
L19.0240 4.3740
" />
<path d="M18.0250 4.4950
L18.0250 4.3740
" />
<path d="M18.0250 4.4950
L18.0250 4.3740
" />
<path d="M18.0250 4.4950
L18.0250 5.7540
" />
<path d="M18.0250 5.7540
L18.0250 4.4950
" />
<path d="M18.0250 5.7540
L18.0250 5.8740
" />
<path d="M18.0250 5.8740
L17.0250 5.8740
" />
<path d="M18.0250 5.8740
L18.0250 5.7540
" />
<path d="M18.0330 1.3240
L18.1130 1.1750
" />
<path d="M18.0330 1.3750
L18.0330 1.3240
" />
<path d="M18.1130 1.1750
L18.2340 1.1750
" />
<path d="M18.2340 1.1750
L18.3150 1.3240
" />
<path d="M18.3150 1.3240
L18.3150 1.3750
" />
<path d="M18.5350 1.3240
L18.6150 1.1750
" />
<path d="M18.5350 1.3750
L18.5350 1.3240
" />
<path d="M18.6150 1.1750
L18.7340 1.1750
" />
<path d="M18.7340 1.1750
L18.8140 1.3240
" />
<path d="M18.8140 1.3240
L18.8140 1.3750
" />
<path d="M18.8250 0.3740
L18.8250 0.4730
" />
<path d="M18.8250 0.3740
L19.0240 0.3740
" />
<path d="M18.8250 0.4730
L18.8250 0.6050
" />
<path d="M18.8250 0.6050
L18.8250 0.6860
" />
<path d="M18.8250 0.6860
L18.8250 0.8200
" />
<path d="M18.8250 0.8200
L18.8250 0.8750
" />
<path d="M18.8250 0.8750
L18.8250 0.9750
" />
<path d="M18.8250 0.8750
L19.0240 0.8750
" />
<path d="M18.8250 0.9750
L18.8250 1.0240
" />
<path d="M18.8250 1.0240
L18.8250 1.0750
" />
<path d="M18.8250 1.0750
L18.8250 1.1250
" />
<path d="M18.8250 1.0750
L19.0240 1.0750
" />
<path d="M18.8250 1.1250
L18.8250 1.3240
" />
<path d="M18.8250 1.1250
L19.0240 1.1250
" />
<path d="M18.8250 1.3240
L18.8250 1.3750
" />
<path d="M19.0240 0.4730
L19.0240 0.3740
" />
<path d="M19.0240 0.6050
L19.0240 0.4730
" />
<path d="M19.0240 0.6860
L19.0240 0.6050
" />
<path d="M19.0240 0.8200
L19.0240 0.6860
" />
<path d="M19.0240 0.8750
L18.8250 0.8750
" />
<path d="M19.0240 0.8750
L19.0240 0.8200
" />
<path d="M19.0240 0.9750
L19.0240 0.8750
" />
<path d="M19.0240 1.0240
L19.0240 0.9750
" />
<path d="M19.0240 1.0750
L19.0240 1.0240
" />
<path d="M19.0240 1.1250
L19.0240 1.0750
" />
<path d="M19.0240 1.3240
L19.0240 1.1250
" />
<path d="M19.0240 1.3750
L18.0250 1.3750
" />
<path d="M19.0240 1.3750
L19.0240 1.3240
" />
<path d="M19.0240 1.3750
L19.0240 4.3740
" />
<path d="M19.0240 4.3740
L19.0240 1.3750
" />
<path d="M19.0240 4.3740
L20.0240 4.3740
" />
<path d="M19.0240 4.4950
L19.0240 4.3740
" />
<path d="M19.0240 4.4950
L19.0240 4.3740
" />
<path d="M19.0240 4.4950
L19.0240 5.7540
" />
<path d="M19.0240 5.7540
L19.0240 4.4950
" />
<path d="M19.0240 5.7540
L19.0240 5.8740
" />
<path d="M19.0240 5.8740
L18.0250 5.8740
" />
<path d="M19.0240 5.8740
L19.0240 5.7540
" />
<path d="M19.0350 1.3240
L19.1150 1.1750
" />
<path d="M19.0350 1.3750
L19.0350 1.3240
" />
<path d="M19.1150 1.1750
L19.2340 1.1750
" />
<path d="M19.2340 1.1750
L19.3140 1.3240
" />
<path d="M19.3140 1.3240
L19.3140 1.3750
" />
<path d="M19.5350 1.3240
L19.6150 1.1750
" />
<path d="M19.5350 1.3750
L19.5350 1.3240
" />
<path d="M19.6150 1.1750
L19.7340 1.1750
" />
<path d="M19.7340 1.1750
L19.8140 1.3240
" />
<path d="M19.8140 1.3240
L19.8140 1.3750
" />
<path d="M19.8250 0.3740
L19.8250 0.4730
" />
<path d="M19.8250 0.3740
L20.0240 0.3740
" />
<path d="M19.8250 0.4730
L19.8250 0.6050
" />
<path d="M19.8250 0.6050
L19.8250 0.6860
" />
<path d="M19.8250 0.6860
L19.8250 0.8200
" />
<path d="M19.8250 0.8200
L19.8250 0.8750
" />
<path d="M19.8250 0.8750
L19.8250 0.9750
" />
<path d="M19.8250 0.8750
L20.0240 0.8750
" />
<path d="M19.8250 0.9750
L19.8250 1.0240
" />
<path d="M19.8250 1.0240
L19.8250 1.0750
" />
<path d="M19.8250 1.0750
L19.8250 1.1250
" />
<path d="M19.8250 1.0750
L20.0240 1.0750
" />
<path d="M19.8250 1.1250
L19.8250 1.3240
" />
<path d="M19.8250 1.1250
L20.0240 1.1250
" />
<path d="M19.8250 1.3240
L19.8250 1.3750
" />
<path d="M20.0240 0.4730
L20.0240 0.3740
" />
<path d="M20.0240 0.6050
L20.0240 0.4730
" />
<path d="M20.0240 0.6860
L20.0240 0.6050
" />
<path d="M20.0240 0.8200
L20.0240 0.6860
" />
<path d="M20.0240 0.8750
L19.8250 0.8750
" />
<path d="M20.0240 0.8750
L20.0240 0.8200
" />
<path d="M20.0240 0.9750
L20.0240 0.8750
" />
<path d="M20.0240 1.0240
L20.0240 0.9750
" />
<path d="M20.0240 1.0750
L20.0240 1.0240
" />
<path d="M20.0240 1.1250
L20.0240 1.0750
" />
<path d="M20.0240 1.3240
L20.0240 1.1250
" />
<path d="M20.0240 1.3750
L19.0240 1.3750
" />
<path d="M20.0240 1.3750
L20.0240 1.3240
" />
<path d="M20.0240 1.3750
L20.0240 4.3740
" />
<path d="M20.0240 4.3740
L20.0240 1.3750
" />
<path d="M20.0240 4.3740
L21.0240 4.3740
" />
<path d="M20.0240 4.4950
L20.0240 4.3740
" />
<path d="M20.0240 4.4950
L20.0240 4.3740
" />
<path d="M20.0240 4.4950
L20.0240 5.7540
" />
<path d="M20.0240 5.7540
L20.0240 4.4950
" />
<path d="M20.0240 5.7540
L20.0240 5.8740
" />
<path d="M20.0240 5.8740
L19.0240 5.8740
" />
<path d="M20.0240 5.8740
L20.0240 5.7540
" />
<path d="M20.0350 1.3240
L20.1150 1.1750
" />
<path d="M20.0350 1.3750
L20.0350 1.3240
" />
<path d="M20.1150 1.1750
L20.2340 1.1750
" />
<path d="M20.2340 1.1750
L20.3140 1.3240
" />
<path d="M20.3140 1.3240
L20.3140 1.3750
" />
<path d="M20.5350 1.3240
L20.6150 1.1750
" />
<path d="M20.5350 1.3750
L20.5350 1.3240
" />
<path d="M20.6150 1.1750
L20.7340 1.1750
" />
<path d="M20.7340 1.1750
L20.8140 1.3240
" />
<path d="M20.8140 1.3240
L20.8140 1.3750
" />
<path d="M20.8250 0.3740
L20.8250 0.4730
" />
<path d="M20.8250 0.3740
L21.0240 0.3740
" />
<path d="M20.8250 0.4730
L20.8250 0.6050
" />
<path d="M20.8250 0.6050
L20.8250 0.6860
" />
<path d="M20.8250 0.6860
L20.8250 0.8200
" />
<path d="M20.8250 0.8200
L20.8250 0.8750
" />
<path d="M20.8250 0.8750
L20.8250 0.9750
" />
<path d="M20.8250 0.8750
L21.0240 0.8750
" />
<path d="M20.8250 0.9750
L20.8250 1.0240
" />
<path d="M20.8250 1.0240
L20.8250 1.0750
" />
<path d="M20.8250 1.0750
L20.8250 1.1250
" />
<path d="M20.8250 1.0750
L21.0240 1.0750
" />
<path d="M20.8250 1.1250
L20.8250 1.3240
" />
<path d="M20.8250 1.1250
L21.0240 1.1250
" />
<path d="M20.8250 1.3240
L20.8250 1.3750
" />
<path d="M21.0240 0.4730
L21.0240 0.3740
" />
<path d="M21.0240 0.6050
L21.0240 0.4730
" />
<path d="M21.0240 0.6860
L21.0240 0.6050
" />
<path d="M21.0240 0.8200
L21.0240 0.6860
" />
<path d="M21.0240 0.8750
L20.8250 0.8750
" />
<path d="M21.0240 0.8750
L21.0240 0.8200
" />
<path d="M21.0240 0.9750
L21.0240 0.8750
" />
<path d="M21.0240 1.0240
L21.0240 0.9750
" />
<path d="M21.0240 1.0750
L21.0240 1.0240
" />
<path d="M21.0240 1.1250
L21.0240 1.0750
" />
<path d="M21.0240 1.3240
L21.0240 1.1250
" />
<path d="M21.0240 1.3750
L20.0240 1.3750
" />
<path d="M21.0240 1.3750
L21.0240 1.3240
" />
<path d="M21.0240 1.3750
L21.0240 4.3740
" />
<path d="M21.0240 4.3740
L21.0240 1.3750
" />
<path d="M21.0240 4.3740
L22.0240 4.3740
" />
<path d="M21.0240 4.4950
L21.0240 4.3740
" />
<path d="M21.0240 4.4950
L21.0240 4.3740
" />
<path d="M21.0240 4.4950
L21.0240 5.7540
" />
<path d="M21.0240 5.7540
L21.0240 4.4950
" />
<path d="M21.0240 5.7540
L21.0240 5.8740
" />
<path d="M21.0240 5.8740
L20.0240 5.8740
" />
<path d="M21.0240 5.8740
L21.0240 5.7540
" />
<path d="M21.0350 1.3240
L21.1150 1.1750
" />
<path d="M21.0350 1.3750
L21.0350 1.3240
" />
<path d="M21.1150 1.1750
L21.2340 1.1750
" />
<path d="M21.2340 1.1750
L21.3140 1.3240
" />
<path d="M21.3140 1.3240
L21.3140 1.3750
" />
<path d="M21.5350 1.3240
L21.6150 1.1750
" />
<path d="M21.5350 1.3750
L21.5350 1.3240
" />
<path d="M21.6150 1.1750
L21.7340 1.1750
" />
<path d="M21.7340 1.1750
L21.8140 1.3240
" />
<path d="M21.8140 1.3240
L21.8140 1.3750
" />
<path d="M21.8250 0.3740
L21.8250 0.4730
" />
<path d="M21.8250 0.3740
L22.0240 0.3740
" />
<path d="M21.8250 0.4730
L21.8250 0.6050
" />
<path d="M21.8250 0.6050
L21.8250 0.6860
" />
<path d="M21.8250 0.6860
L21.8250 0.8200
" />
<path d="M21.8250 0.8200
L21.8250 0.8750
" />
<path d="M21.8250 0.8750
L21.8250 0.9750
" />
<path d="M21.8250 0.8750
L22.0240 0.8750
" />
<path d="M21.8250 0.9750
L21.8250 1.0240
" />
<path d="M21.8250 1.0240
L21.8250 1.0750
" />
<path d="M21.8250 1.0750
L21.8250 1.1250
" />
<path d="M21.8250 1.0750
L22.0240 1.0750
" />
<path d="M21.8250 1.1250
L21.8250 1.3240
" />
<path d="M21.8250 1.1250
L22.0240 1.1250
" />
<path d="M21.8250 1.3240
L21.8250 1.3750
" />
<path d="M22.0240 0.4730
L22.0240 0.3740
" />
<path d="M22.0240 0.6050
L22.0240 0.4730
" />
<path d="M22.0240 0.6860
L22.0240 0.6050
" />
<path d="M22.0240 0.8200
L22.0240 0.6860
" />
<path d="M22.0240 0.8750
L21.8250 0.8750
" />
<path d="M22.0240 0.8750
L22.0240 0.8200
" />
<path d="M22.0240 0.9750
L22.0240 0.8750
" />
<path d="M22.0240 1.0240
L22.0240 0.9750
" />
<path d="M22.0240 1.0750
L22.0240 1.0240
" />
<path d="M22.0240 1.1250
L22.0240 1.0750
" />
<path d="M22.0240 1.3240
L22.0240 1.1250
" />
<path d="M22.0240 1.3750
L21.0240 1.3750
" />
<path d="M22.0240 1.3750
L22.0240 1.3240
" />
<path d="M22.0240 1.3750
L22.0240 4.3740
" />
<path d="M22.0240 4.3740
L22.0240 1.3750
" />
<path d="M22.0240 4.3740
L23.0240 4.3740
" />
<path d="M22.0240 4.4950
L22.0240 4.3740
" />
<path d="M22.0240 4.4950
L22.0240 4.3740
" />
<path d="M22.0240 4.4950
L22.0240 5.7540
" />
<path d="M22.0240 5.7540
L22.0240 4.4950
" />
<path d="M22.0240 5.7540
L22.0240 5.8740
" />
<path d="M22.0240 5.8740
L21.0240 5.8740
" />
<path d="M22.0240 5.8740
L22.0240 5.7540
" />
<path d="M22.0350 1.3240
L22.1150 1.1750
" />
<path d="M22.0350 1.3750
L22.0350 1.3240
" />
<path d="M22.1150 1.1750
L22.2340 1.1750
" />
<path d="M22.2340 1.1750
L22.3140 1.3240
" />
<path d="M22.3140 1.3240
L22.3140 1.3750
" />
<path d="M22.5330 1.3240
L22.6130 1.1750
" />
<path d="M22.5330 1.3750
L22.5330 1.3240
" />
<path d="M22.6130 1.1750
L22.7350 1.1750
" />
<path d="M22.7350 1.1750
L22.8150 1.3240
" />
<path d="M22.8150 1.3240
L22.8150 1.3750
" />
<path d="M22.8250 0.3740
L22.8250 0.4730
" />
<path d="M22.8250 0.3740
L23.0240 0.3740
" />
<path d="M22.8250 0.4730
L22.8250 0.6050
" />
<path d="M22.8250 0.6050
L22.8250 0.6860
" />
<path d="M22.8250 0.6860
L22.8250 0.8200
" />
<path d="M22.8250 0.8200
L22.8250 0.8750
" />
<path d="M22.8250 0.8750
L22.8250 0.9750
" />
<path d="M22.8250 0.8750
L23.0240 0.8750
" />
<path d="M22.8250 0.9750
L22.8250 1.0240
" />
<path d="M22.8250 1.0240
L22.8250 1.0750
" />
<path d="M22.8250 1.0750
L22.8250 1.1250
" />
<path d="M22.8250 1.0750
L23.0240 1.0750
" />
<path d="M22.8250 1.1250
L22.8250 1.3240
" />
<path d="M22.8250 1.1250
L23.0240 1.1250
" />
<path d="M22.8250 1.3240
L22.8250 1.3750
" />
<path d="M23.0240 0.4730
L23.0240 0.3740
" />
<path d="M23.0240 0.6050
L23.0240 0.4730
" />
<path d="M23.0240 0.6860
L23.0240 0.6050
" />
<path d="M23.0240 0.8200
L23.0240 0.6860
" />
<path d="M23.0240 0.8750
L22.8250 0.8750
" />
<path d="M23.0240 0.8750
L23.0240 0.8200
" />
<path d="M23.0240 0.9750
L23.0240 0.8750
" />
<path d="M23.0240 1.0240
L23.0240 0.9750
" />
<path d="M23.0240 1.0750
L23.0240 1.0240
" />
<path d="M23.0240 1.1250
L23.0240 1.0750
" />
<path d="M23.0240 1.3240
L23.0240 1.1250
" />
<path d="M23.0240 1.3750
L22.0240 1.3750
" />
<path d="M23.0240 1.3750
L23.0240 1.3240
" />
<path d="M23.0240 1.3750
L23.0240 4.3740
" />
<path d="M23.0240 1.3750
L23.0240 4.3740
" />
<path d="M23.0240 4.3740
L25.2600 4.3740
" />
<path d="M23.0240 4.4950
L23.0240 4.3740
" />
<path d="M23.0240 4.4950
L23.0240 4.3740
" />
<path d="M23.0240 4.4950
L23.0240 5.7540
" />
<path d="M23.0240 4.4950
L23.0240 5.7540
" />
<path d="M23.0240 5.7540
L23.0240 5.8740
" />
<path d="M23.0240 5.7540
L23.0240 5.8740
" />
<path d="M23.0240 5.8740
L22.0240 5.8740
" />
<path d="M23.0330 1.3240
L23.0330 1.3750
" />
<path d="M23.0330 1.3240
L23.1130 1.1750
" />
<path d="M23.1130 1.1750
L23.2350 1.1750
" />
<path d="M23.2350 1.1750
L23.3150 1.3240
" />
<path d="M23.3150 1.3750
L23.3150 1.3240
" />
<path d="M23.5330 1.3240
L23.5330 1.3750
" />
<path d="M23.5330 1.3240
L23.6130 1.1750
" />
<path d="M23.6130 1.1750
L23.7350 1.1750
" />
<path d="M23.7350 1.1750
L23.8150 1.3240
" />
<path d="M23.8150 1.3750
L23.8150 1.3240
" />
<path d="M23.8250 0.3740
L23.8250 0.4730
" />
<path d="M23.8250 0.3740
L24.0230 0.3740
" />
<path d="M23.8250 0.4730
L23.8250 0.6050
" />
<path d="M23.8250 0.6050
L23.8250 0.6860
" />
<path d="M23.8250 0.6860
L23.8250 0.8200
" />
<path d="M23.8250 0.8200
L23.8250 0.8750
" />
<path d="M23.8250 0.8750
L23.8250 0.9750
" />
<path d="M23.8250 0.8750
L24.0230 0.8750
" />
<path d="M23.8250 0.9750
L23.8250 1.0240
" />
<path d="M23.8250 1.0240
L23.8250 1.0750
" />
<path d="M23.8250 1.0750
L23.8250 1.1250
" />
<path d="M23.8250 1.0750
L24.0230 1.0750
" />
<path d="M23.8250 1.1250
L23.8250 1.3240
" />
<path d="M23.8250 1.1250
L24.0230 1.1250
" />
<path d="M23.8250 1.3240
L23.8250 1.3750
" />
<path d="M24.0230 0.4730
L24.0230 0.3740
" />
<path d="M24.0230 0.6050
L24.0230 0.4730
" />
<path d="M24.0230 0.6860
L24.0230 0.6050
" />
<path d="M24.0230 0.8200
L24.0230 0.6860
" />
<path d="M24.0230 0.8750
L23.8250 0.8750
" />
<path d="M24.0230 0.8750
L24.0230 0.8200
" />
<path d="M24.0230 0.9750
L24.0230 0.8750
" />
<path d="M24.0230 1.0240
L24.0230 0.9750
" />
<path d="M24.0230 1.0750
L24.0230 1.0240
" />
<path d="M24.0230 1.1250
L24.0230 1.0750
" />
<path d="M24.0230 1.3240
L24.0230 1.1250
" />
<path d="M24.0230 1.3750
L24.0230 1.3240
" />
<path d="M24.0330 1.3240
L24.0330 1.3750
" />
<path d="M24.0330 1.3240
L24.1130 1.1750
" />
<path d="M24.1130 1.1750
L24.2350 1.1750
" />
<path d="M24.2350 1.1750
L24.3150 1.3240
" />
<path d="M24.3150 1.3750
L24.3150 1.3240
" />
<path d="M24.5330 1.3240
L24.5330 1.3750
" />
<path d="M24.5330 1.3240
L24.6130 1.1750
" />
<path d="M24.6130 1.1750
L24.7350 1.1750
" />
<path d="M24.7350 1.1750
L24.8150 1.3240
" />
<path d="M24.8150 1.3750
L24.8150 1.3240
" />
<path d="M25.2600 1.3750
L23.0240 1.3750
" />
<path d="M25.2600 1.3750
L27.0750 1.3750
" />
<path d="M25.2600 1.6750
L25.4880 1.6750
" />
<path d="M25.2600 4.2750
L25.3640 4.2750
" />
<path d="M25.2600 4.3740
L25.2600 1.3750
" />
<path d="M25.2600 4.3740
L28.0230 4.3740
" />
</g>
<g style="fill:#000000; fill-opacity:1.0000; stroke:none;">
<circle cx="25.3640" cy="4.2750" r="0.0100" /> 
</g>
<g style="fill:none; 
stroke:#000000; stroke-width:0.0200; stroke-opacity:1; 
stroke-linecap:round; stroke-linejoin:round;">
<path d="M25.3640 4.2750
L25.6260 4.2750
" />
<path d="M25.3760 2.9750
L25.2600 2.9750
" />
</g>
<g style="fill:#000000; fill-opacity:1.0000; stroke:none;">
<circle cx="25.3760" cy="2.9750" r="0.0100" /> 
</g>
<g style="fill:none; 
stroke:#000000; stroke-width:0.0200; stroke-opacity:1; 
stroke-linecap:round; stroke-linejoin:round;">
<path d="M25.4590 4.2750
L25.5390 4.2750
" />
<path d="M25.4880 1.6750
L25.4880 2.9750
" />
<path d="M25.5390 4.2750
L25.2600 4.2750
" />
<path d="M25.6260 4.2750
L25.4590 4.2750
" />
<path d="M25.6260 4.2750
L25.6580 4.2710
" />
<path d="M25.6390 4.3740
L25.5390 4.2750
" />
<path d="M25.6580 2.9750
L25.3760 2.9750
" />
<path d="M25.6580 2.9750
L25.6640 2.9740
" />
<path d="M25.6580 4.2710
L25.6260 4.2750
" />
<path d="M25.6640 2.9740
L25.6680 2.9740
" />
<path d="M25.6680 2.9740
L25.6740 2.9730
" />
<path d="M25.6680 4.2670
L25.6580 4.2710
" />
<path d="M25.6740 2.9730
L25.6780 2.9730
" />
<path d="M25.6770 4.2650
L25.6680 4.2670
" />
<path d="M25.6780 2.9730
L25.6840 2.9720
" />
<path d="M25.6840 2.9720
L25.6880 2.9700
" />
<path d="M25.6870 4.2610
L25.6770 4.2650
" />
<path d="M25.6880 2.9700
L25.6930 2.9690
" />
<path d="M25.6930 2.9690
L25.6970 2.9670
" />
<path d="M25.6940 4.2570
L25.6870 4.2610
" />
<path d="M25.6970 2.9670
L25.7020 2.9650
" />
<path d="M25.7020 2.9650
L25.7060 2.9620
" />
<path d="M25.7030 4.2530
L25.6940 4.2570
" />
<path d="M25.7060 2.9620
L25.7100 2.9590
" />
<path d="M25.7100 2.9590
L25.7150 2.9570
" />
<path d="M25.7100 4.2470
L25.7030 4.2530
" />
<path d="M25.7150 2.9570
L25.7190 2.9540
" />
<path d="M25.7190 2.9540
L25.7220 2.9510
" />
<path d="M25.7190 4.2430
L25.7100 4.2470
" />
<path d="M25.7220 2.9510
L25.7260 2.9490
" />
<path d="M25.7250 4.2370
L25.7190 4.2430
" />
<path d="M25.7260 2.9490
L25.7290 2.9450
" />
</g>
<g style="fill:#000000; fill-opacity:1.0000; stroke:none;">
<circle cx="25.7290" cy="2.9450" r="0.0100" /> 
</g>
<g style="fill:none; 
stroke:#000000; stroke-width:0.0200; stroke-opacity:1; 
stroke-linecap:round; stroke-linejoin:round;">
<path d="M25.7290 2.9450
L25.7340 2.9420
" />
<path d="M25.7320 4.2290
L25.7250 4.2370
" />
<path d="M25.7340 2.9420
L25.7360 2.9380
" />
<path d="M25.7360 2.9380
L25.7390 2.9340
" />
<path d="M25.7380 4.2230
L25.7320 4.2290
" />
<path d="M25.7390 2.9340
L25.7420 2.9290
" />
<path d="M25.7420 2.9290
L25.7450 2.9250
" />
<path d="M25.7450 2.9250
L25.7480 2.9210
" />
<path d="M25.7450 4.2150
L25.7380 4.2230
" />
<path d="M25.7480 2.9210
L25.7500 2.9160
" />
<path d="M25.7500 2.9160
L25.7510 2.9130
" />
<path d="M25.7510 2.9130
L25.7540 2.9080
" />
<path d="M25.7510 4.2090
L25.7450 4.2150
" />
<path d="M25.7540 2.9040
L25.7550 2.8980
" />
<path d="M25.7540 2.9080
L25.7540 2.9040
" />
<path d="M25.7550 2.8980
L25.7570 2.8930
" />
<path d="M25.7550 4.2010
L25.7510 4.2090
" />
<path d="M25.7570 2.8880
L25.7580 2.8840
" />
<path d="M25.7570 2.8930
L25.7570 2.8880
" />
<path d="M25.7580 2.8790
L25.7600 2.8750
" />
<path d="M25.7580 2.8840
L25.7580 2.8790
" />
<path d="M25.7600 1.5640
L25.7610 1.5540
" />
<path d="M25.7600 1.5740
L25.7600 1.5640
" />
<path d="M25.7600 2.8750
L25.7600 1.5740
" />
<path d="M25.7610 1.5440
L25.7640 1.5340
" />
<path d="M25.7610 1.5540
L25.7610 1.5440
" />
<path d="M25.7610 4.1910
L25.7550 4.2010
" />
<path d="M25.7640 1.5340
L25.7660 1.5240
" />
<path d="M25.7640 4.1830
L25.7610 4.1910
" />
<path d="M25.7660 1.5240
L25.7670 1.5140
" />
<path d="M25.7670 1.5140
L25.7710 1.5060
" />
<path d="M25.7670 4.1750
L25.7640 4.1830
" />
<path d="M25.7710 1.5060
L25.7740 1.4960
" />
<path d="M25.7710 4.1630
L25.7670 4.1750
" />
<path d="M25.7740 1.4960
L25.7790 1.4880
" />
<path d="M25.7770 4.1530
L25.7710 4.1630
" />
<path d="M25.7790 1.4880
L25.7830 1.4780
" />
<path d="M25.7830 1.4780
L25.7870 1.4700
" />
<path d="M25.7830 4.1420
L25.7770 4.1530
" />
<path d="M25.7870 1.4700
L25.7930 1.4620
" />
<path d="M25.7890 4.1340
L25.7830 4.1420
" />
<path d="M25.7930 1.4620
L25.7990 1.4550
" />
<path d="M25.7960 4.1240
L25.7890 4.1340
" />
<path d="M25.7990 1.4550
L25.8050 1.4470
" />
<path d="M25.8050 1.4470
L25.8110 1.4390
" />
<path d="M25.8050 4.1160
L25.7960 4.1240
" />
<path d="M25.8110 1.4390
L25.8180 1.4330
" />
<path d="M25.8140 4.1080
L25.8050 4.1160
" />
<path d="M25.8180 1.4330
L25.8250 1.4250
" />
<path d="M25.8220 4.1010
L25.8140 4.1080
" />
<path d="M25.8250 1.4250
L25.8310 1.4190
" />
<path d="M25.8310 1.4190
L25.8400 1.4130
" />
<path d="M25.8310 4.0950
L25.8220 4.1010
" />
<path d="M25.8400 1.4130
L25.8470 1.4090
" />
<path d="M25.8410 4.0890
L25.8310 4.0950
" />
<path d="M25.8470 1.4090
L25.8560 1.4030
" />
<path d="M25.8530 4.0850
L25.8410 4.0890
" />
<path d="M25.8560 1.4030
L25.8630 1.3990
" />
<path d="M25.8630 1.3990
L25.8730 1.3930
" />
<path d="M25.8630 4.0820
L25.8530 4.0850
" />
<path d="M25.8730 1.3930
L25.8820 1.3890
" />
<path d="M25.8750 4.0790
L25.8630 4.0820
" />
<path d="M25.8820 1.3890
L25.8910 1.3870
" />
<path d="M25.8860 4.0760
L25.8750 4.0790
" />
<path d="M25.8910 1.3870
L25.8990 1.3830
" />
<path d="M25.8980 4.0750
L25.8860 4.0760
" />
<path d="M25.8990 1.3830
L25.9090 1.3810
" />
<path d="M25.9080 4.0750
L25.8980 4.0750
" />
<path d="M25.9090 1.3810
L25.9180 1.3790
" />
<path d="M25.9180 1.3790
L25.9280 1.3770
" />
<path d="M25.9280 1.3770
L25.9390 1.3750
" />
<path d="M25.9390 1.3750
L25.9490 1.3750
" />
<path d="M25.9490 1.3750
L25.9590 1.3750
" />
<path d="M25.9530 4.3740
L26.0230 4.3740
" />
<path d="M25.9590 1.3750
L26.8600 1.3750
" />
<path d="M26.5750 4.3740
L25.6390 4.3740
" />
<path d="M26.6000 4.3740
L26.5750 4.3740
" />
<path d="M26.6260 4.3720
L26.6000 4.3740
" />
<path d="M26.6510 4.3680
L26.6260 4.3720
" />
<path d="M26.6740 4.3640
L26.6510 4.3680
" />
<path d="M26.6990 4.3580
L26.6740 4.3640
" />
<path d="M26.7220 4.3520
L26.6990 4.3580
" />
<path d="M26.7450 4.3440
L26.7220 4.3520
" />
<path d="M26.7680 4.3340
L26.7450 4.3440
" />
<path d="M26.7900 4.3240
L26.7680 4.3340
" />
<path d="M26.8120 4.3140
L26.7900 4.3240
" />
<path d="M26.8340 4.3020
L26.8120 4.3140
" />
<path d="M26.8540 4.2880
L26.8340 4.3020
" />
<path d="M26.8600 1.3750
L26.8700 1.3750
" />
<path d="M26.8700 1.3750
L26.8790 1.3750
" />
<path d="M26.8730 4.2750
L26.8540 4.2880
" />
<path d="M26.8790 1.3750
L26.8890 1.3770
" />
<path d="M26.8890 1.3770
L26.8990 1.3790
" />
<path d="M26.8920 4.2590
L26.8730 4.2750
" />
<path d="M26.8990 1.3790
L26.9080 1.3810
" />
<path d="M26.9080 1.3810
L26.9180 1.3830
" />
<path d="M26.9080 4.0750
L25.9080 4.0750
" />
<path d="M26.9110 4.2450
L26.8920 4.2590
" />
<path d="M26.9170 4.0740
L26.9080 4.0750
" />
<path d="M26.9180 1.3830
L26.9270 1.3870
" />
<path d="M26.9240 4.0740
L26.9170 4.0740
" />
<path d="M26.9270 1.3870
L26.9370 1.3890
" />
<path d="M26.9270 4.2270
L26.9110 4.2450
" />
<path d="M26.9310 4.0730
L26.9240 4.0740
" />
<path d="M26.9370 1.3890
L26.9460 1.3930
" />
<path d="M26.9390 4.0720
L26.9310 4.0730
" />
<path d="M26.9440 4.2110
L26.9270 4.2270
" />
<path d="M26.9460 1.3930
L26.9550 1.3990
" />
<path d="M26.9460 4.0700
L26.9390 4.0720
" />
<path d="M26.9530 4.0680
L26.9460 4.0700
" />
<path d="M26.9550 1.3990
L26.9620 1.4030
" />
<path d="M26.9590 4.0660
L26.9530 4.0680
" />
<path d="M26.9590 4.1930
L26.9440 4.2110
" />
<path d="M26.9620 1.4030
L26.9700 1.4090
" />
<path d="M26.9660 4.0630
L26.9590 4.0660
" />
<path d="M26.9700 1.4090
L26.9790 1.4130
" />
<path d="M26.9730 4.0600
L26.9660 4.0630
" />
<path d="M26.9750 4.1730
L26.9590 4.1930
" />
<path d="M26.9790 1.4130
L26.9860 1.4190
" />
<path d="M26.9790 4.0570
L26.9730 4.0600
" />
<path d="M26.9860 1.4190
L26.9940 1.4250
" />
<path d="M26.9860 4.0530
L26.9790 4.0570
" />
<path d="M26.9880 4.1530
L26.9750 4.1730
" />
<path d="M26.9920 4.0490
L26.9860 4.0530
" />
<path d="M26.9940 1.4250
L27.0010 1.4330
" />
<path d="M26.9980 4.0450
L26.9920 4.0490
" />
<path d="M27.0010 1.4330
L27.0070 1.4390
" />
<path d="M27.0010 4.1340
L26.9880 4.1530
" />
<path d="M27.0040 4.0410
L26.9980 4.0450
" />
<path d="M27.0070 1.4390
L27.0140 1.4470
" />
<path d="M27.0100 4.0360
L27.0040 4.0410
" />
<path d="M27.0140 1.4470
L27.0200 1.4550
" />
<path d="M27.0140 4.1120
L27.0010 4.1340
" />
<path d="M27.0160 4.0310
L27.0100 4.0360
" />
</g>
<g style="fill:#000000; fill-opacity:1.0000; stroke:none;">
<circle cx="27.0160" cy="4.0310" r="0.0100" /> 
</g>
<g style="fill:none; 
stroke:#000000; stroke-width:0.0200; stroke-opacity:1; 
stroke-linecap:round; stroke-linejoin:round;">
<path d="M27.0200 1.4550
L27.0240 1.4620
" />
<path d="M27.0200 4.0250
L27.0160 4.0310
" />
<path d="M27.0240 1.4620
L27.0300 1.4700
" />
<path d="M27.0240 4.0900
L27.0140 4.1120
" />
<path d="M27.0260 4.0190
L27.0200 4.0250
" />
<path d="M27.0300 1.4700
L27.0340 1.4780
" />
<path d="M27.0300 4.0130
L27.0260 4.0190
" />
<path d="M27.0330 4.0070
L27.0300 4.0130
" />
<path d="M27.0340 1.4780
L27.0390 1.4880
" />
<path d="M27.0340 4.0690
L27.0240 4.0900
" />
<path d="M27.0370 4.0010
L27.0330 4.0070
" />
<path d="M27.0390 1.4880
L27.0430 1.4960
" />
<path d="M27.0420 3.9940
L27.0370 4.0010
" />
<path d="M27.0430 1.4960
L27.0460 1.5060
" />
<path d="M27.0430 4.0460
L27.0340 4.0690
" />
<path d="M27.0450 3.9880
L27.0420 3.9940
" />
<path d="M27.0460 1.5060
L27.0500 1.5140
" />
<path d="M27.0480 3.9810
L27.0450 3.9880
" />
<path d="M27.0500 1.5140
L27.0520 1.5240
" />
<path d="M27.0500 3.9740
L27.0480 3.9810
" />
<path d="M27.0520 1.5240
L27.0550 1.5340
" />
<path d="M27.0520 3.9670
L27.0500 3.9740
" />
<path d="M27.0520 4.0230
L27.0430 4.0460
" />
<path d="M27.0550 1.5340
L27.0560 1.5440
" />
<path d="M27.0550 3.9600
L27.0520 3.9670
" />
<path d="M27.0560 1.5440
L27.0580 1.5540
" />
<path d="M27.0560 3.9540
L27.0550 3.9600
" />
<path d="M27.0580 1.5540
L27.0590 1.5640
" />
<path d="M27.0580 3.9470
L27.0560 3.9540
" />
<path d="M27.0590 1.5640
L27.0590 1.5740
" />
<path d="M27.0590 1.5740
L27.0590 3.9250
" />
<path d="M27.0590 3.9250
L27.0590 3.9320
" />
<path d="M27.0590 3.9320
L27.0590 3.9390
" />
<path d="M27.0590 3.9390
L27.0580 3.9470
" />
<path d="M27.0590 3.9980
L27.0520 4.0230
" />
<path d="M27.0640 3.9740
L27.0590 3.9980
" />
<path d="M27.0680 3.9510
L27.0640 3.9740
" />
<path d="M27.0710 3.9260
L27.0680 3.9510
" />
<path d="M27.0740 3.9000
L27.0710 3.9260
" />
<path d="M27.0750 1.3750
L27.0750 1.7720
" />
<path d="M27.0750 1.3750
L27.0750 3.8740
" />
<path d="M27.0750 1.7720
L27.0780 1.7800
" />
<path d="M27.0750 3.8740
L27.0740 3.9000
" />
<path d="M27.0780 1.7800
L27.0820 1.7880
" />
<path d="M27.0820 1.7880
L27.0870 1.7960
" />
<path d="M27.0870 1.7960
L27.0900 1.8040
" />
<path d="M27.0900 1.8040
L27.0930 1.8120
" />
<path d="M27.0930 1.8120
L27.0970 1.8180
" />
<path d="M27.0970 1.8180
L27.0980 1.8280
" />
<path d="M27.0980 1.8280
L27.1010 1.8360
" />
<path d="M27.1010 1.8360
L27.1040 1.8440
" />
<path d="M27.1040 1.8440
L27.1070 1.8510
" />
<path d="M27.1070 1.8510
L27.1090 1.8590
" />
<path d="M27.1090 1.8590
L27.1100 1.8690
" />
<path d="M27.1100 1.8690
L27.1110 1.8770
" />
<path d="M27.1110 1.8770
L27.1130 1.8850
" />
<path d="M27.1130 1.8850
L27.1130 1.8930
" />
<path d="M27.1130 1.8930
L27.1140 1.9030
" />
<path d="M27.1140 1.9030
L27.2800 4.1750
" />
<path d="M27.2800 4.1750
L27.2800 4.1890
" />
<path d="M27.2800 4.1890
L27.2820 4.1970
" />
<path d="M27.2820 4.1970
L27.2830 4.2050
" />
<path d="M27.2830 4.2050
L27.2830 4.2150
" />
<path d="M27.2830 4.2150
L27.2860 4.2230
" />
<path d="M27.2860 4.2230
L27.2890 4.2310
" />
<path d="M27.2860 4.2250
L27.2890 4.2350
" />
<path d="M27.2890 4.2310
L27.2920 4.2410
" />
<path d="M27.2920 4.2410
L27.2950 4.2490
" />
<path d="M27.2950 4.2490
L27.2990 4.2570
" />
<path d="M27.2990 4.2570
L27.3020 4.2670
" />
<path d="M27.3020 4.2670
L27.3060 4.2750
" />
<path d="M27.3060 4.2750
L27.3120 4.2820
" />
<path d="M27.3110 4.2800
L27.3140 4.2840
" />
<path d="M27.3120 4.2820
L27.3160 4.2900
" />
<path d="M27.3140 4.2840
L27.3160 4.2900
" />
<path d="M27.3160 4.2900
L27.3190 4.2940
" />
<path d="M27.3160 4.2900
L27.3210 4.2960
" />
<path d="M27.3190 4.2940
L27.3240 4.2980
" />
<path d="M27.3210 4.2960
L27.3280 4.3040
" />
<path d="M27.3240 4.2980
L27.3270 4.3020
" />
<path d="M27.3270 4.3020
L27.3310 4.3080
" />
<path d="M27.3280 4.3040
L27.3320 4.3100
" />
<path d="M27.3310 4.3080
L27.3340 4.3120
" />
<path d="M27.3320 4.3100
L27.3380 4.3160
" />
<path d="M27.3340 4.3120
L27.3380 4.3160
" />
</g>
<g style="fill:#000000; fill-opacity:1.0000; stroke:none;">
<circle cx="27.3380" cy="4.3160" r="0.0100" /> 
</g>
<g style="fill:none; 
stroke:#000000; stroke-width:0.0200; stroke-opacity:1; 
stroke-linecap:round; stroke-linejoin:round;">
<path d="M27.3380 4.3160
L27.3470 4.3220
" />
<path d="M27.3470 4.3220
L27.3540 4.3280
" />
<path d="M27.3540 4.3280
L27.3600 4.3340
" />
<path d="M27.3600 4.3340
L27.3690 4.3400
" />
<path d="M27.3690 4.3400
L27.3760 4.3440
" />
<path d="M27.3760 4.3440
L27.3830 4.3500
" />
<path d="M27.3800 4.3480
L27.3860 4.3500
" />
<path d="M27.3830 4.3500
L27.3920 4.3540
" />
<path d="M27.3860 4.3500
L27.3910 4.3540
" />
<path d="M27.3910 4.3540
L27.3950 4.3560
" />
<path d="M27.3920 4.3540
L27.3990 4.3580
" />
<path d="M27.3950 4.3560
L27.4020 4.3580
" />
<path d="M27.3990 4.3580
L27.4080 4.3620
" />
<path d="M27.4020 4.3580
L27.4080 4.3600
" />
<path d="M27.4080 4.3600
L27.4120 4.3620
" />
<path d="M27.4080 4.3620
L27.4180 4.3640
" />
<path d="M27.4120 4.3620
L27.4180 4.3640
" />
<path d="M27.4180 4.3640
L27.4250 4.3660
" />
<path d="M27.4180 4.3640
L27.4270 4.3660
" />
<path d="M27.4250 4.3660
L27.4310 4.3680
" />
<path d="M27.4270 4.3660
L27.4370 4.3700
" />
<path d="M27.4310 4.3680
L27.4370 4.3700
" />
<path d="M27.4370 4.3700
L27.4440 4.3700
" />
<path d="M27.4370 4.3700
L27.4460 4.3700
" />
<path d="M27.4440 4.3700
L27.4520 4.3720
" />
<path d="M27.4460 4.3700
L27.4560 4.3720
" />
<path d="M27.4520 4.3720
L27.4590 4.3720
" />
<path d="M27.4560 4.3720
L27.4690 4.3740
" />
<path d="M27.4590 4.3720
L27.4660 4.3740
" />
<path d="M27.4660 4.3740
L27.4720 4.3740
" />
<path d="M27.4690 4.3740
L27.4790 4.3740
" />
<path d="M27.4720 4.3740
L27.4790 4.3740
" />
<path d="M27.6230 5.8740
L23.0240 5.8740
" />
<path d="M27.6360 5.8740
L27.6230 5.8740
" />
<path d="M27.6460 5.8740
L27.6360 5.8740
" />
<path d="M27.6580 5.8740
L27.6460 5.8740
" />
<path d="M27.6680 5.8730
L27.6580 5.8740
" />
<path d="M27.6800 5.8710
L27.6680 5.8730
" />
<path d="M27.6900 5.8700
L27.6800 5.8710
" />
<path d="M27.7020 5.8700
L27.6900 5.8700
" />
<path d="M27.7060 5.7480
L27.6970 5.7490
" />
</g>
<g style="fill:#000000; fill-opacity:1.0000; stroke:none;">
<circle cx="27.7060" cy="5.7480" r="0.0100" /> 
</g>
<g style="fill:none; 
stroke:#000000; stroke-width:0.0200; stroke-opacity:1; 
stroke-linecap:round; stroke-linejoin:round;">
<path d="M27.7060 5.7480
L27.7060 5.7520
" />
<path d="M27.7060 5.7520
L27.7070 5.7570
" />
<path d="M27.7070 5.7480
L27.7060 5.7480
" />
</g>
<g style="fill:#000000; fill-opacity:1.0000; stroke:none;">
<circle cx="27.7070" cy="5.7480" r="0.0100" /> 
</g>
<g style="fill:none; 
stroke:#000000; stroke-width:0.0200; stroke-opacity:1; 
stroke-linecap:round; stroke-linejoin:round;">
<path d="M27.7070 5.7570
L27.7070 5.7610
" />
<path d="M27.7070 5.7610
L27.7090 5.7680
" />
<path d="M27.7090 5.7460
L27.7090 5.7480
" />
<path d="M27.7090 5.7480
L27.7070 5.7480
" />
</g>
<g style="fill:#000000; fill-opacity:1.0000; stroke:none;">
<circle cx="27.7090" cy="5.7480" r="0.0100" /> 
<circle cx="27.7090" cy="5.7480" r="0.0100" /> 
<circle cx="27.7090" cy="5.7480" r="0.0100" /> 
<circle cx="27.7090" cy="5.7480" r="0.0100" /> 
</g>
<g style="fill:none; 
stroke:#000000; stroke-width:0.0200; stroke-opacity:1; 
stroke-linecap:round; stroke-linejoin:round;">
<path d="M27.7090 5.7680
L27.7090 5.7740
" />
<path d="M27.7090 5.7740
L27.7100 5.7810
" />
<path d="M27.7100 5.7460
L27.7090 5.7460
" />
</g>
<g style="fill:#000000; fill-opacity:1.0000; stroke:none;">
<circle cx="27.7100" cy="5.7460" r="0.0100" /> 
<circle cx="27.7100" cy="5.7460" r="0.0100" /> 
</g>
<g style="fill:none; 
stroke:#000000; stroke-width:0.0200; stroke-opacity:1; 
stroke-linecap:round; stroke-linejoin:round;">
<path d="M27.7100 5.7810
L27.7120 5.7890
" />
<path d="M27.7120 5.7460
L27.7100 5.7460
" />
</g>
<g style="fill:#000000; fill-opacity:1.0000; stroke:none;">
<circle cx="27.7120" cy="5.7460" r="0.0100" /> 
<circle cx="27.7120" cy="5.7460" r="0.0100" /> 
<circle cx="27.7120" cy="5.7460" r="0.0100" /> 
<circle cx="27.7120" cy="5.7460" r="0.0100" /> 
<circle cx="27.7120" cy="5.7460" r="0.0100" /> 
</g>
<g style="fill:none; 
stroke:#000000; stroke-width:0.0200; stroke-opacity:1; 
stroke-linecap:round; stroke-linejoin:round;">
<path d="M27.7120 5.7890
L27.7130 5.7970
" />
<path d="M27.7120 5.8690
L27.7020 5.8700
" />
<path d="M27.7130 5.7450
L27.7120 5.7460
" />
</g>
<g style="fill:#000000; fill-opacity:1.0000; stroke:none;">
<circle cx="27.7130" cy="5.7450" r="0.0100" /> 
<circle cx="27.7130" cy="5.7450" r="0.0100" /> 
<circle cx="27.7130" cy="5.7450" r="0.0100" /> 
<circle cx="27.7130" cy="5.7970" r="0.0100" /> 
</g>
<g style="fill:none; 
stroke:#000000; stroke-width:0.0200; stroke-opacity:1; 
stroke-linecap:round; stroke-linejoin:round;">
<path d="M27.7130 5.7970
L27.7250 5.8660
" />
<path d="M27.7150 5.7450
L27.7130 5.7450
" />
</g>
<g style="fill:#000000; fill-opacity:1.0000; stroke:none;">
<circle cx="27.7150" cy="5.7450" r="0.0100" /> 
<circle cx="27.7150" cy="5.7450" r="0.0100" /> 
<circle cx="27.7150" cy="5.7450" r="0.0100" /> 
<circle cx="27.7150" cy="5.7450" r="0.0100" /> 
</g>
<g style="fill:none; 
stroke:#000000; stroke-width:0.0200; stroke-opacity:1; 
stroke-linecap:round; stroke-linejoin:round;">
<path d="M27.7150 5.8690
L27.7130 5.8690
" />
</g>
<g style="fill:#000000; fill-opacity:1.0000; stroke:none;">
<circle cx="27.7160" cy="5.7420" r="0.0100" /> 
<circle cx="27.7160" cy="5.7420" r="0.0100" /> 
<circle cx="27.7160" cy="5.7420" r="0.0100" /> 
</g>
<g style="fill:none; 
stroke:#000000; stroke-width:0.0200; stroke-opacity:1; 
stroke-linecap:round; stroke-linejoin:round;">
<path d="M27.7160 5.7420
L27.7160 5.7440
" />
<path d="M27.7160 5.7440
L27.7150 5.7450
" />
</g>
<g style="fill:#000000; fill-opacity:1.0000; stroke:none;">
<circle cx="27.7160" cy="5.7440" r="0.0100" /> 
<circle cx="27.7160" cy="5.7440" r="0.0100" /> 
</g>
<g style="fill:none; 
stroke:#000000; stroke-width:0.0200; stroke-opacity:1; 
stroke-linecap:round; stroke-linejoin:round;">
<path d="M27.7160 5.8670
L27.7150 5.8690
" />
<path d="M27.7180 5.8670
L27.7160 5.8670
" />
<path d="M27.7190 5.8670
L27.7180 5.8670
" />
<path d="M27.7210 5.8670
L27.7190 5.8670
" />
<path d="M27.7220 5.8660
L27.7210 5.8670
" />
<path d="M27.7230 5.8660
L27.7220 5.8660
" />
<path d="M27.7250 5.8660
L27.7230 5.8660
" />
<path d="M27.7340 5.8650
L27.7250 5.8660
" />
<path d="M27.7410 5.8620
L27.7340 5.8650
" />
<path d="M27.7500 5.8610
L27.7410 5.8620
" />
<path d="M27.7570 5.8580
L27.7500 5.8610
" />
<path d="M27.7640 5.8540
L27.7570 5.8580
" />
<path d="M27.7710 5.8500
L27.7640 5.8540
" />
<path d="M27.7770 5.8460
L27.7710 5.8500
" />
<path d="M27.7840 5.8420
L27.7770 5.8460
" />
<path d="M27.7900 5.8380
L27.7840 5.8420
" />
<path d="M27.7960 5.8330
L27.7900 5.8380
" />
<path d="M27.8020 5.8260
L27.7960 5.8330
" />
<path d="M27.8080 5.8210
L27.8020 5.8260
" />
<path d="M27.8120 5.8140
L27.8080 5.8210
" />
<path d="M27.8180 5.8080
L27.8120 5.8140
" />
<path d="M27.8210 5.8010
L27.8180 5.8080
" />
<path d="M27.8250 5.7930
L27.8210 5.8010
" />
<path d="M27.8250 5.7930
L27.8280 5.7890
" />
<path d="M27.8280 5.7890
L27.8250 5.7930
" />
<path d="M27.8280 5.7890
L27.8300 5.7850
" />
<path d="M27.8300 5.7850
L27.8280 5.7890
" />
<path d="M27.8300 5.7850
L27.8320 5.7810
" />
<path d="M27.8320 5.7810
L27.8300 5.7850
" />
<path d="M27.8320 5.7810
L27.8340 5.7770
" />
<path d="M27.8340 5.7770
L27.8320 5.7810
" />
<path d="M27.8340 5.7770
L27.8370 5.7730
" />
<path d="M27.8370 5.7730
L27.8340 5.7770
" />
<path d="M27.8370 5.7730
L27.8410 5.7690
" />
<path d="M27.8410 5.7690
L27.8370 5.7730
" />
<path d="M27.8410 5.7690
L27.8440 5.7650
" />
<path d="M27.8440 5.7650
L27.8410 5.7690
" />
<path d="M27.8440 5.7650
L27.8470 5.7620
" />
<path d="M27.8470 5.7620
L27.8440 5.7650
" />
<path d="M27.8470 5.7620
L27.8500 5.7580
" />
<path d="M27.8500 5.7580
L27.8470 5.7620
" />
<path d="M27.8500 5.7580
L27.8540 5.7560
" />
<path d="M27.8540 5.7560
L27.8500 5.7580
" />
<path d="M27.8540 5.7560
L27.8590 5.7530
" />
<path d="M27.8590 5.7530
L27.8540 5.7560
" />
<path d="M27.8590 5.7530
L27.8630 5.7500
" />
<path d="M27.8630 5.7500
L27.8590 5.7530
" />
<path d="M27.8630 5.7500
L27.8660 5.7490
" />
<path d="M27.8660 5.7490
L27.8630 5.7500
" />
<path d="M27.8660 5.7490
L27.8700 5.7460
" />
<path d="M27.8700 5.7460
L27.8660 5.7490
" />
<path d="M27.8700 5.7460
L27.8750 5.7450
" />
<path d="M27.8750 5.7450
L27.8700 5.7460
" />
<path d="M27.8750 5.7450
L27.8790 5.7420
" />
<path d="M27.8790 5.7420
L27.8750 5.7450
" />
<path d="M27.8790 5.7420
L27.8820 5.7410
" />
<path d="M27.8820 5.7410
L27.8790 5.7420
" />
<path d="M27.8820 5.7410
L27.8880 5.7400
" />
<path d="M27.8880 5.7400
L27.8820 5.7410
" />
<path d="M27.8880 5.7400
L27.8920 5.7380
" />
<path d="M27.8920 5.7380
L27.8880 5.7400
" />
<path d="M27.8920 5.7380
L27.8960 5.7370
" />
<path d="M27.8960 5.7370
L27.8920 5.7380
" />
<path d="M27.8960 5.7370
L27.9010 5.7370
" />
<path d="M27.9010 5.7370
L27.8960 5.7370
" />
<path d="M27.9010 5.7370
L27.9050 5.7360
" />
<path d="M27.9050 5.7360
L27.9010 5.7370
" />
<path d="M27.9050 5.7360
L27.9110 5.7360
" />
<path d="M27.9110 5.7360
L27.9050 5.7360
" />
<path d="M27.9110 5.7360
L27.9140 5.7360
" />
<path d="M27.9140 5.7360
L27.9110 5.7360
" />
<path d="M27.9140 5.7360
L27.9200 5.7360
" />
<path d="M27.9200 5.7360
L27.9140 5.7360
" />
<path d="M27.9200 5.7360
L27.9240 5.7360
" />
<path d="M27.9240 5.7360
L27.9200 5.7360
" />
<path d="M27.9240 5.7360
L27.9280 5.7360
" />
<path d="M27.9280 5.7360
L27.9240 5.7360
" />
<path d="M27.9280 5.7360
L27.9340 5.7370
" />
<path d="M27.9340 5.7370
L27.9280 5.7360
" />
<path d="M27.9340 5.7370
L27.9390 5.7370
" />
<path d="M27.9390 5.7370
L27.9340 5.7370
" />
<path d="M27.9390 5.7370
L27.9430 5.7380
" />
<path d="M27.9430 5.7380
L27.9390 5.7370
" />
<path d="M27.9430 5.7380
L27.9470 5.7410
" />
<path d="M27.9470 5.7410
L27.9430 5.7380
" />
<path d="M27.9470 5.7410
L27.9530 5.7420
" />
<path d="M27.9530 5.7420
L27.9470 5.7410
" />
<path d="M27.9620 5.7450
L27.9530 5.7420
" />
<path d="M27.9710 5.7480
L27.9620 5.7450
" />
<path d="M27.9790 5.7500
L27.9710 5.7480
" />
<path d="M27.9880 5.7520
L27.9790 5.7500
" />
<path d="M27.9980 5.7530
L27.9880 5.7520
" />
<path d="M28.0070 5.7530
L27.9980 5.7530
" />
<path d="M28.0170 5.7530
L28.0070 5.7530
" />
<path d="M28.0230 4.3740
L28.0390 4.3740
" />
<path d="M28.0260 5.7530
L28.0170 5.7530
" />
<path d="M28.0360 5.7520
L28.0260 5.7530
" />
<path d="M28.0390 4.3740
L28.0550 4.3760
" />
<path d="M28.0450 5.7490
L28.0360 5.7520
" />
<path d="M28.0530 5.7480
L28.0450 5.7490
" />
<path d="M28.0550 4.3760
L28.0690 4.3780
" />
<path d="M28.0620 5.7450
L28.0530 5.7480
" />
<path d="M28.0690 4.3780
L28.0840 4.3800
" />
<path d="M28.0710 5.7410
L28.0620 5.7450
" />
<path d="M28.0800 5.7380
L28.0710 5.7410
" />
<path d="M28.0840 4.3800
L28.0980 4.3840
" />
<path d="M28.0880 5.7330
L28.0800 5.7380
" />
<path d="M28.0970 5.7290
L28.0880 5.7330
" />
</g>
<g style="fill:#000000; fill-opacity:1.0000; stroke:none;">
<circle cx="28.0970" cy="5.7290" r="0.0100" /> 
</g>
<g style="fill:none; 
stroke:#000000; stroke-width:0.0200; stroke-opacity:1; 
stroke-linecap:round; stroke-linejoin:round;">
<path d="M28.0980 4.3840
L28.1130 4.3880
" />
<path d="M28.1040 5.7240
L28.0970 5.7290
" />
<path d="M28.1120 5.7180
L28.1040 5.7240
" />
<path d="M28.1130 4.3880
L28.1270 4.3920
" />
<path d="M28.1190 5.7120
L28.1120 5.7180
" />
<path d="M28.1260 5.7050
L28.1190 5.7120
" />
<path d="M28.1270 4.3920
L28.1410 4.3980
" />
<path d="M28.1320 5.6980
L28.1260 5.7050
" />
<path d="M28.1390 5.6920
L28.1320 5.6980
" />
<path d="M28.1410 4.3980
L28.1550 4.4040
" />
<path d="M28.1430 5.6850
L28.1390 5.6920
" />
<path d="M28.1480 5.6760
L28.1430 5.6850
" />
<path d="M28.1540 5.6680
L28.1480 5.6760
" />
<path d="M28.1550 4.4040
L28.1670 4.4110
" />
<path d="M28.1580 5.6600
L28.1540 5.6680
" />
<path d="M28.1610 5.6520
L28.1580 5.6600
" />
<path d="M28.1640 5.6430
L28.1610 5.6520
" />
<path d="M28.1670 4.4110
L28.1800 4.4170
" />
<path d="M28.1680 5.6330
L28.1640 5.6430
" />
<path d="M28.1700 5.6240
L28.1680 5.6330
" />
<path d="M28.1710 5.6050
L28.1710 5.6150
" />
<path d="M28.1710 5.6150
L28.1700 5.6240
" />
<path d="M28.1730 5.5990
L28.1730 5.6030
" />
<path d="M28.1730 5.6030
L28.1710 5.6050
" />
<path d="M28.1740 5.5880
L28.1740 5.5920
" />
<path d="M28.1740 5.5920
L28.1740 5.5960
" />
<path d="M28.1740 5.5960
L28.1730 5.5990
" />
<path d="M28.1750 5.5850
L28.1740 5.5880
" />
<path d="M28.1770 5.5790
L28.1770 5.5810
" />
<path d="M28.1770 5.5810
L28.1750 5.5850
" />
<path d="M28.1800 4.4170
L28.1910 4.4250
" />
<path d="M28.1800 5.5720
L28.1770 5.5790
" />
<path d="M28.1840 5.5670
L28.1800 5.5720
" />
<path d="M28.1870 5.5600
L28.1840 5.5670
" />
<path d="M28.1900 5.5550
L28.1870 5.5600
" />
<path d="M28.1910 4.4250
L28.2030 4.4330
" />
<path d="M28.1940 5.5500
L28.1900 5.5550
" />
<path d="M28.2000 5.5440
L28.1940 5.5500
" />
<path d="M28.2030 4.4330
L28.2150 4.4430
" />
<path d="M28.2030 5.5390
L28.2000 5.5440
" />
<path d="M28.2090 5.5350
L28.2030 5.5390
" />
<path d="M28.2120 5.5340
L28.2090 5.5350
" />
<path d="M28.2150 4.4430
L28.2250 4.4510
" />
<path d="M28.2150 5.5310
L28.2120 5.5340
" />
<path d="M28.2180 5.5300
L28.2150 5.5310
" />
<path d="M28.2210 5.5270
L28.2180 5.5300
" />
<path d="M28.2230 5.5270
L28.2210 5.5270
" />
<path d="M28.2250 4.4510
L28.2370 4.4610
" />
<path d="M28.2260 5.5240
L28.2230 5.5270
" />
<path d="M28.2290 5.5230
L28.2260 5.5240
" />
<path d="M28.2320 5.5220
L28.2290 5.5230
" />
<path d="M28.2370 4.4610
L28.2470 4.4730
" />
<path d="M28.2420 5.5160
L28.2320 5.5220
" />
<path d="M28.2470 4.4730
L28.2550 4.4830
" />
<path d="M28.2520 5.5110
L28.2420 5.5160
" />
<path d="M28.2550 4.4830
L28.2640 4.4950
" />
<path d="M28.2610 5.5060
L28.2520 5.5110
" />
<path d="M28.2640 4.4950
L28.2730 4.5070
" />
<path d="M28.2700 5.4990
L28.2610 5.5060
" />
<path d="M28.2730 4.5070
L28.2800 4.5190
" />
<path d="M28.2790 5.4910
L28.2700 5.4990
" />
<path d="M28.2800 4.5190
L28.2870 4.5310
" />
<path d="M28.2860 5.4830
L28.2790 5.4910
" />
<path d="M28.2870 4.5310
L28.2950 4.5440
" />
<path d="M28.2930 5.4750
L28.2860 5.4830
" />
<path d="M28.2950 4.5440
L28.3000 4.5580
" />
<path d="M28.2990 5.4670
L28.2930 5.4750
" />
<path d="M28.3000 4.5580
L28.3050 4.5700
" />
<path d="M28.3050 4.5700
L28.3110 4.5840
" />
<path d="M28.3050 5.4580
L28.2990 5.4670
" />
<path d="M28.3090 5.4470
L28.3050 5.4580
" />
<path d="M28.3110 4.5840
L28.3150 4.6000
" />
<path d="M28.3140 5.4380
L28.3090 5.4470
" />
<path d="M28.3150 4.6000
L28.3180 4.6140
" />
<path d="M28.3180 4.6140
L28.3210 4.6280
" />
<path d="M28.3180 5.4270
L28.3140 5.4380
" />
<path d="M28.3210 4.6280
L28.3220 4.6440
" />
<path d="M28.3210 5.4170
L28.3180 5.4270
" />
<path d="M28.3220 4.6440
L28.3240 4.6580
" />
<path d="M28.3220 5.4060
L28.3210 5.4170
" />
<path d="M28.3240 4.6580
L28.3250 4.6750
" />
<path d="M28.3240 5.3940
L28.3220 5.4060
" />
<path d="M28.3250 4.6750
L28.3250 5.3830
" />
<path d="M28.3250 5.3830
L28.3240 5.3940
" />
<path d="M28.3250 5.3830
L28.3250 4.6750
" />
</g> 
</svg>
