<?xml version="1.0" standalone="no"?>
 <!DOCTYPE svg PUBLIC "-//W3C//DTD SVG 1.1//EN" 
 "http://www.w3.org/Graphics/SVG/1.1/DTD/svg11.dtd"> 
<svg
  xmlns:svg="http://www.w3.org/2000/svg"
  xmlns="http://www.w3.org/2000/svg"
  xmlns:xlink="http://www.w3.org/1999/xlink"
  version="1.1"
  width="13.2334mm" height="13.2334mm" viewBox="0.0000 0.0000 13.2334 13.2334">
<title>SVG Image created as outline.svg date 2025/04/04 10:06:37 </title>
  <desc>Image generated by PCBNEW </desc>
<g style="fill:#000000; fill-opacity:1.0000;stroke:#000000; stroke-opacity:1.0000;
stroke-linecap:round; stroke-linejoin:round;"
 transform="translate(0 0) scale(1 1)">
</g>
<g style="fill:none; 
stroke:#000000; stroke-width:0.0100; stroke-opacity:1; 
stroke-linecap:round; stroke-linejoin:round;">
<path d="M0.6250 2.7650
L1.1250 2.7650
" />
<path d="M0.6250 2.9850
L0.6250 2.7650
" />
<path d="M0.6250 2.9850
L1.1250 2.9850
" />
<path d="M0.6250 3.2650
L1.1250 3.2650
" />
<path d="M0.6250 3.4850
L0.6250 3.2650
" />
<path d="M0.6250 3.4850
L1.1250 3.4850
" />
<path d="M0.6250 3.7650
L1.1250 3.7650
" />
<path d="M0.6250 3.9850
L0.6250 3.7650
" />
<path d="M0.6250 3.9850
L1.1250 3.9850
" />
<path d="M0.6250 4.2650
L1.1250 4.2650
" />
<path d="M0.6250 4.4850
L0.6250 4.2650
" />
<path d="M0.6250 4.4850
L1.1250 4.4850
" />
<path d="M0.6250 4.7650
L1.1250 4.7650
" />
<path d="M0.6250 4.9850
L0.6250 4.7650
" />
<path d="M0.6250 4.9850
L1.1250 4.9850
" />
<path d="M0.6250 5.2650
L1.1250 5.2650
" />
<path d="M0.6250 5.4850
L0.6250 5.2650
" />
<path d="M0.6250 5.4850
L1.1250 5.4850
" />
<path d="M0.6250 5.7650
L1.1250 5.7650
" />
<path d="M0.6250 5.9850
L0.6250 5.7650
" />
<path d="M0.6250 5.9850
L1.1250 5.9850
" />
<path d="M0.6250 6.2650
L1.1250 6.2650
" />
<path d="M0.6250 6.4850
L0.6250 6.2650
" />
<path d="M0.6250 6.4850
L1.1250 6.4850
" />
<path d="M0.6250 6.7650
L1.1250 6.7650
" />
<path d="M0.6250 6.9850
L0.6250 6.7650
" />
<path d="M0.6250 6.9850
L1.1250 6.9850
" />
<path d="M0.6250 7.2650
L1.1250 7.2650
" />
<path d="M0.6250 7.4850
L0.6250 7.2650
" />
<path d="M0.6250 7.4850
L1.1250 7.4850
" />
<path d="M0.6250 7.7650
L1.1250 7.7650
" />
<path d="M0.6250 7.9850
L0.6250 7.7650
" />
<path d="M0.6250 7.9850
L1.1250 7.9850
" />
<path d="M0.6250 8.2650
L1.1250 8.2650
" />
<path d="M0.6250 8.4850
L0.6250 8.2650
" />
<path d="M0.6250 8.4850
L1.1250 8.4850
" />
<path d="M0.6250 8.7650
L1.1250 8.7650
" />
<path d="M0.6250 8.9850
L0.6250 8.7650
" />
<path d="M0.6250 8.9850
L1.1250 8.9850
" />
<path d="M0.6250 9.2650
L1.1250 9.2650
" />
<path d="M0.6250 9.4850
L0.6250 9.2650
" />
<path d="M0.6250 9.4850
L1.1250 9.4850
" />
<path d="M0.6250 9.7650
L1.1250 9.7650
" />
<path d="M0.6250 9.9850
L0.6250 9.7650
" />
<path d="M0.6250 9.9850
L1.1250 9.9850
" />
<path d="M0.6250 10.2650
L1.1250 10.2650
" />
<path d="M0.6250 10.4850
L0.6250 10.2650
" />
<path d="M0.6250 10.4850
L1.1250 10.4850
" />
<path d="M1.1250 2.7650
L1.2250 2.7650
" />
<path d="M1.1250 2.9850
L1.2250 2.9850
" />
<path d="M1.1250 3.2650
L1.2250 3.2650
" />
<path d="M1.1250 3.4850
L1.2250 3.4850
" />
<path d="M1.1250 3.7650
L1.2250 3.7650
" />
<path d="M1.1250 3.9850
L1.2250 3.9850
" />
<path d="M1.1250 4.2650
L1.2250 4.2650
" />
<path d="M1.1250 4.4850
L1.2250 4.4850
" />
<path d="M1.1250 4.7650
L1.2250 4.7650
" />
<path d="M1.1250 4.9850
L1.2250 4.9850
" />
<path d="M1.1250 5.2650
L1.2250 5.2650
" />
<path d="M1.1250 5.4850
L1.2250 5.4850
" />
<path d="M1.1250 5.7650
L1.2250 5.7650
" />
<path d="M1.1250 5.9850
L1.2250 5.9850
" />
<path d="M1.1250 6.2650
L1.2250 6.2650
" />
<path d="M1.1250 6.4850
L1.2250 6.4850
" />
<path d="M1.1250 6.7650
L1.2250 6.7650
" />
<path d="M1.1250 6.9850
L1.2250 6.9850
" />
<path d="M1.1250 7.2650
L1.2250 7.2650
" />
<path d="M1.1250 7.4850
L1.2250 7.4850
" />
<path d="M1.1250 7.7650
L1.2250 7.7650
" />
<path d="M1.1250 7.9850
L1.2250 7.9850
" />
<path d="M1.1250 8.2650
L1.2250 8.2650
" />
<path d="M1.1250 8.4850
L1.2250 8.4850
" />
<path d="M1.1250 8.7650
L1.2250 8.7650
" />
<path d="M1.1250 8.9850
L1.2250 8.9850
" />
<path d="M1.1250 9.2650
L1.2250 9.2650
" />
<path d="M1.1250 9.4850
L1.2250 9.4850
" />
<path d="M1.1250 9.7650
L1.2250 9.7650
" />
<path d="M1.1250 9.9850
L1.2250 9.9850
" />
<path d="M1.1250 10.2650
L1.2250 10.2650
" />
<path d="M1.1250 10.4850
L1.2250 10.4850
" />
<path d="M1.2250 2.7650
L1.4250 2.7650
" />
<path d="M1.2250 2.9850
L1.2250 2.7650
" />
<path d="M1.2250 2.9850
L1.4250 2.9850
" />
<path d="M1.2250 3.2650
L1.4250 3.2650
" />
<path d="M1.2250 3.4850
L1.2250 3.2650
" />
<path d="M1.2250 3.4850
L1.4250 3.4850
" />
<path d="M1.2250 3.7650
L1.4250 3.7650
" />
<path d="M1.2250 3.9850
L1.2250 3.7650
" />
<path d="M1.2250 3.9850
L1.4250 3.9850
" />
<path d="M1.2250 4.2650
L1.4250 4.2650
" />
<path d="M1.2250 4.4850
L1.2250 4.2650
" />
<path d="M1.2250 4.4850
L1.4250 4.4850
" />
<path d="M1.2250 4.7650
L1.4250 4.7650
" />
<path d="M1.2250 4.9850
L1.2250 4.7650
" />
<path d="M1.2250 4.9850
L1.4250 4.9850
" />
<path d="M1.2250 5.2650
L1.4250 5.2650
" />
<path d="M1.2250 5.4850
L1.2250 5.2650
" />
<path d="M1.2250 5.4850
L1.4250 5.4850
" />
<path d="M1.2250 5.7650
L1.4250 5.7650
" />
<path d="M1.2250 5.9850
L1.2250 5.7650
" />
<path d="M1.2250 5.9850
L1.4250 5.9850
" />
<path d="M1.2250 6.2650
L1.4250 6.2650
" />
<path d="M1.2250 6.4850
L1.2250 6.2650
" />
<path d="M1.2250 6.4850
L1.4250 6.4850
" />
<path d="M1.2250 6.7650
L1.4250 6.7650
" />
<path d="M1.2250 6.9850
L1.2250 6.7650
" />
<path d="M1.2250 6.9850
L1.4250 6.9850
" />
<path d="M1.2250 7.2650
L1.4250 7.2650
" />
<path d="M1.2250 7.4850
L1.2250 7.2650
" />
<path d="M1.2250 7.4850
L1.4250 7.4850
" />
<path d="M1.2250 7.7650
L1.4250 7.7650
" />
<path d="M1.2250 7.9850
L1.2250 7.7650
" />
<path d="M1.2250 7.9850
L1.4250 7.9850
" />
<path d="M1.2250 8.2650
L1.4250 8.2650
" />
<path d="M1.2250 8.4850
L1.2250 8.2650
" />
<path d="M1.2250 8.4850
L1.4250 8.4850
" />
<path d="M1.2250 8.7650
L1.4250 8.7650
" />
<path d="M1.2250 8.9850
L1.2250 8.7650
" />
<path d="M1.2250 8.9850
L1.4250 8.9850
" />
<path d="M1.2250 9.2650
L1.4250 9.2650
" />
<path d="M1.2250 9.4850
L1.2250 9.2650
" />
<path d="M1.2250 9.4850
L1.4250 9.4850
" />
<path d="M1.2250 9.7650
L1.4250 9.7650
" />
<path d="M1.2250 9.9850
L1.2250 9.7650
" />
<path d="M1.2250 9.9850
L1.4250 9.9850
" />
<path d="M1.2250 10.2650
L1.4250 10.2650
" />
<path d="M1.2250 10.4850
L1.2250 10.2650
" />
<path d="M1.2250 10.4850
L1.4250 10.4850
" />
<path d="M1.4250 2.7650
L1.6250 2.7650
" />
<path d="M1.4250 2.9850
L1.6250 2.9850
" />
<path d="M1.4250 3.2650
L1.6250 3.2650
" />
<path d="M1.4250 3.4850
L1.6250 3.4850
" />
<path d="M1.4250 3.7650
L1.6250 3.7650
" />
<path d="M1.4250 3.9850
L1.6250 3.9850
" />
<path d="M1.4250 4.2650
L1.6250 4.2650
" />
<path d="M1.4250 4.4850
L1.6250 4.4850
" />
<path d="M1.4250 4.7650
L1.6250 4.7650
" />
<path d="M1.4250 4.9850
L1.6250 4.9850
" />
<path d="M1.4250 5.2650
L1.6250 5.2650
" />
<path d="M1.4250 5.4850
L1.6250 5.4850
" />
<path d="M1.4250 5.7650
L1.6250 5.7650
" />
<path d="M1.4250 5.9850
L1.6250 5.9850
" />
<path d="M1.4250 6.2650
L1.6250 6.2650
" />
<path d="M1.4250 6.4850
L1.6250 6.4850
" />
<path d="M1.4250 6.7650
L1.6250 6.7650
" />
<path d="M1.4250 6.9850
L1.6250 6.9850
" />
<path d="M1.4250 7.2650
L1.6250 7.2650
" />
<path d="M1.4250 7.4850
L1.6250 7.4850
" />
<path d="M1.4250 7.7650
L1.6250 7.7650
" />
<path d="M1.4250 7.9850
L1.6250 7.9850
" />
<path d="M1.4250 8.2650
L1.6250 8.2650
" />
<path d="M1.4250 8.4850
L1.6250 8.4850
" />
<path d="M1.4250 8.7650
L1.6250 8.7650
" />
<path d="M1.4250 8.9850
L1.6250 8.9850
" />
<path d="M1.4250 9.2650
L1.6250 9.2650
" />
<path d="M1.4250 9.4850
L1.6250 9.4850
" />
<path d="M1.4250 9.7650
L1.6250 9.7650
" />
<path d="M1.4250 9.9850
L1.6250 9.9850
" />
<path d="M1.4250 10.2650
L1.6250 10.2650
" />
<path d="M1.4250 10.4850
L1.6250 10.4850
" />
<path d="M1.6250 1.7950
L1.7950 1.6250
" />
<path d="M1.6250 1.7950
L1.8297 1.9024
" />
<path d="M1.6250 11.4550
L1.6250 1.7950
" />
<path d="M1.6250 11.4550
L1.8299 11.3476
" />
<path d="M1.7000 1.8375
L1.8375 1.7000
" />
<path d="M1.7000 2.7650
L1.7000 1.8375
" />
<path d="M1.7000 2.9850
L1.7000 2.7650
" />
<path d="M1.7000 3.2650
L1.7000 2.9850
" />
<path d="M1.7000 3.4850
L1.7000 3.2650
" />
<path d="M1.7000 3.7650
L1.7000 3.4850
" />
<path d="M1.7000 3.9850
L1.7000 3.7650
" />
<path d="M1.7000 4.2650
L1.7000 3.9850
" />
<path d="M1.7000 4.4850
L1.7000 4.2650
" />
<path d="M1.7000 4.7650
L1.7000 4.4850
" />
<path d="M1.7000 4.9850
L1.7000 4.7650
" />
<path d="M1.7000 5.2650
L1.7000 4.9850
" />
<path d="M1.7000 5.4850
L1.7000 5.2650
" />
<path d="M1.7000 5.7650
L1.7000 5.4850
" />
<path d="M1.7000 5.9850
L1.7000 5.7650
" />
<path d="M1.7000 6.2650
L1.7000 5.9850
" />
<path d="M1.7000 6.4850
L1.7000 6.2650
" />
<path d="M1.7000 6.7650
L1.7000 6.4850
" />
<path d="M1.7000 6.9850
L1.7000 6.7650
" />
<path d="M1.7000 7.2650
L1.7000 6.9850
" />
<path d="M1.7000 7.4850
L1.7000 7.2650
" />
<path d="M1.7000 7.7650
L1.7000 7.4850
" />
<path d="M1.7000 7.9850
L1.7000 7.7650
" />
<path d="M1.7000 8.2650
L1.7000 7.9850
" />
<path d="M1.7000 8.4850
L1.7000 8.2650
" />
<path d="M1.7000 8.7650
L1.7000 8.4850
" />
<path d="M1.7000 8.9850
L1.7000 8.7650
" />
<path d="M1.7000 9.2650
L1.7000 8.9850
" />
<path d="M1.7000 9.4850
L1.7000 9.2650
" />
<path d="M1.7000 9.7650
L1.7000 9.4850
" />
<path d="M1.7000 9.9850
L1.7000 9.7650
" />
<path d="M1.7000 10.2650
L1.7000 9.9850
" />
<path d="M1.7000 10.4850
L1.7000 10.2650
" />
<path d="M1.7000 11.4125
L1.7000 10.4850
" />
<path d="M1.7950 1.6250
L1.9024 1.8297
" />
<path d="M1.7950 1.6250
L11.4550 1.6250
" />
<path d="M1.7950 11.6250
L1.6250 11.4550
" />
<path d="M1.7950 11.6250
L1.9024 11.4201
" />
<path d="M1.8297 11.3476
L1.8297 1.9024
" />
<path d="M1.8298 1.9025
L1.9025 1.8298
" />
<path d="M1.8375 1.7000
L2.7650 1.7000
" />
<path d="M1.8375 11.5500
L1.7000 11.4125
" />
<path d="M1.9024 1.8297
L11.3476 1.8297
" />
<path d="M1.9024 11.4201
L1.8299 11.3476
" />
<path d="M2.7650 0.6250
L2.7650 1.1250
" />
<path d="M2.7650 0.6250
L2.9850 0.6250
" />
<path d="M2.7650 1.1250
L2.7650 1.2250
" />
<path d="M2.7650 1.2250
L2.7650 1.4250
" />
<path d="M2.7650 1.2250
L2.9850 1.2250
" />
<path d="M2.7650 1.4250
L2.7650 1.6250
" />
<path d="M2.7650 1.7000
L2.9850 1.7000
" />
<path d="M2.7650 11.5500
L1.8375 11.5500
" />
<path d="M2.7650 11.8250
L2.7650 11.6250
" />
<path d="M2.7650 12.0250
L2.7650 11.8250
" />
<path d="M2.7650 12.1250
L2.7650 12.0250
" />
<path d="M2.7650 12.6250
L2.7650 12.1250
" />
<path d="M2.9850 0.6250
L2.9850 1.1250
" />
<path d="M2.9850 1.1250
L2.9850 1.2250
" />
<path d="M2.9850 1.2250
L2.9850 1.4250
" />
<path d="M2.9850 1.4250
L2.9850 1.6250
" />
<path d="M2.9850 1.7000
L3.2650 1.7000
" />
<path d="M2.9850 11.5500
L2.7650 11.5500
" />
<path d="M2.9850 11.8250
L2.9850 11.6250
" />
<path d="M2.9850 12.0250
L2.7650 12.0250
" />
<path d="M2.9850 12.0250
L2.9850 11.8250
" />
<path d="M2.9850 12.1250
L2.9850 12.0250
" />
<path d="M2.9850 12.6250
L2.7650 12.6250
" />
<path d="M2.9850 12.6250
L2.9850 12.1250
" />
<path d="M3.2650 0.6250
L3.2650 1.1250
" />
<path d="M3.2650 0.6250
L3.4850 0.6250
" />
<path d="M3.2650 1.1250
L3.2650 1.2250
" />
<path d="M3.2650 1.2250
L3.2650 1.4250
" />
<path d="M3.2650 1.2250
L3.4850 1.2250
" />
<path d="M3.2650 1.4250
L3.2650 1.6250
" />
<path d="M3.2650 1.7000
L3.4850 1.7000
" />
<path d="M3.2650 11.5500
L2.9850 11.5500
" />
<path d="M3.2650 11.8250
L3.2650 11.6250
" />
<path d="M3.2650 12.0250
L3.2650 11.8250
" />
<path d="M3.2650 12.1250
L3.2650 12.0250
" />
<path d="M3.2650 12.6250
L3.2650 12.1250
" />
<path d="M3.4850 0.6250
L3.4850 1.1250
" />
<path d="M3.4850 1.1250
L3.4850 1.2250
" />
<path d="M3.4850 1.2250
L3.4850 1.4250
" />
<path d="M3.4850 1.4250
L3.4850 1.6250
" />
<path d="M3.4850 1.7000
L3.7650 1.7000
" />
<path d="M3.4850 11.5500
L3.2650 11.5500
" />
<path d="M3.4850 11.8250
L3.4850 11.6250
" />
<path d="M3.4850 12.0250
L3.2650 12.0250
" />
<path d="M3.4850 12.0250
L3.4850 11.8250
" />
<path d="M3.4850 12.1250
L3.4850 12.0250
" />
<path d="M3.4850 12.6250
L3.2650 12.6250
" />
<path d="M3.4850 12.6250
L3.4850 12.1250
" />
<path d="M3.7650 0.6250
L3.7650 1.1250
" />
<path d="M3.7650 0.6250
L3.9850 0.6250
" />
<path d="M3.7650 1.1250
L3.7650 1.2250
" />
<path d="M3.7650 1.2250
L3.7650 1.4250
" />
<path d="M3.7650 1.2250
L3.9850 1.2250
" />
<path d="M3.7650 1.4250
L3.7650 1.6250
" />
<path d="M3.7650 1.7000
L3.9850 1.7000
" />
<path d="M3.7650 11.5500
L3.4850 11.5500
" />
<path d="M3.7650 11.8250
L3.7650 11.6250
" />
<path d="M3.7650 12.0250
L3.7650 11.8250
" />
<path d="M3.7650 12.1250
L3.7650 12.0250
" />
<path d="M3.7650 12.6250
L3.7650 12.1250
" />
<path d="M3.9850 0.6250
L3.9850 1.1250
" />
<path d="M3.9850 1.1250
L3.9850 1.2250
" />
<path d="M3.9850 1.2250
L3.9850 1.4250
" />
<path d="M3.9850 1.4250
L3.9850 1.6250
" />
<path d="M3.9850 1.7000
L4.2650 1.7000
" />
<path d="M3.9850 11.5500
L3.7650 11.5500
" />
<path d="M3.9850 11.8250
L3.9850 11.6250
" />
<path d="M3.9850 12.0250
L3.7650 12.0250
" />
<path d="M3.9850 12.0250
L3.9850 11.8250
" />
<path d="M3.9850 12.1250
L3.9850 12.0250
" />
<path d="M3.9850 12.6250
L3.7650 12.6250
" />
<path d="M3.9850 12.6250
L3.9850 12.1250
" />
<path d="M4.2650 0.6250
L4.2650 1.1250
" />
<path d="M4.2650 0.6250
L4.4850 0.6250
" />
<path d="M4.2650 1.1250
L4.2650 1.2250
" />
<path d="M4.2650 1.2250
L4.2650 1.4250
" />
<path d="M4.2650 1.2250
L4.4850 1.2250
" />
<path d="M4.2650 1.4250
L4.2650 1.6250
" />
<path d="M4.2650 1.7000
L4.4850 1.7000
" />
<path d="M4.2650 11.5500
L3.9850 11.5500
" />
<path d="M4.2650 11.8250
L4.2650 11.6250
" />
<path d="M4.2650 12.0250
L4.2650 11.8250
" />
<path d="M4.2650 12.1250
L4.2650 12.0250
" />
<path d="M4.2650 12.6250
L4.2650 12.1250
" />
<path d="M4.4850 0.6250
L4.4850 1.1250
" />
<path d="M4.4850 1.1250
L4.4850 1.2250
" />
<path d="M4.4850 1.2250
L4.4850 1.4250
" />
<path d="M4.4850 1.4250
L4.4850 1.6250
" />
<path d="M4.4850 1.7000
L4.7650 1.7000
" />
<path d="M4.4850 11.5500
L4.2650 11.5500
" />
<path d="M4.4850 11.8250
L4.4850 11.6250
" />
<path d="M4.4850 12.0250
L4.2650 12.0250
" />
<path d="M4.4850 12.0250
L4.4850 11.8250
" />
<path d="M4.4850 12.1250
L4.4850 12.0250
" />
<path d="M4.4850 12.6250
L4.2650 12.6250
" />
<path d="M4.4850 12.6250
L4.4850 12.1250
" />
<path d="M4.7650 0.6250
L4.7650 1.1250
" />
<path d="M4.7650 0.6250
L4.9850 0.6250
" />
<path d="M4.7650 1.1250
L4.7650 1.2250
" />
<path d="M4.7650 1.2250
L4.7650 1.4250
" />
<path d="M4.7650 1.2250
L4.9850 1.2250
" />
<path d="M4.7650 1.4250
L4.7650 1.6250
" />
<path d="M4.7650 1.7000
L4.9850 1.7000
" />
<path d="M4.7650 11.5500
L4.4850 11.5500
" />
<path d="M4.7650 11.8250
L4.7650 11.6250
" />
<path d="M4.7650 12.0250
L4.7650 11.8250
" />
<path d="M4.7650 12.1250
L4.7650 12.0250
" />
<path d="M4.7650 12.6250
L4.7650 12.1250
" />
<path d="M4.9850 0.6250
L4.9850 1.1250
" />
<path d="M4.9850 1.1250
L4.9850 1.2250
" />
<path d="M4.9850 1.2250
L4.9850 1.4250
" />
<path d="M4.9850 1.4250
L4.9850 1.6250
" />
<path d="M4.9850 1.7000
L5.2650 1.7000
" />
<path d="M4.9850 11.5500
L4.7650 11.5500
" />
<path d="M4.9850 11.8250
L4.9850 11.6250
" />
<path d="M4.9850 12.0250
L4.7650 12.0250
" />
<path d="M4.9850 12.0250
L4.7650 12.0250
" />
<path d="M4.9850 12.0250
L4.9850 11.8250
" />
<path d="M4.9850 12.1250
L4.9850 12.0250
" />
<path d="M4.9850 12.6250
L4.7650 12.6250
" />
<path d="M4.9850 12.6250
L4.9850 12.1250
" />
<path d="M5.2650 0.6250
L5.2650 1.1250
" />
<path d="M5.2650 0.6250
L5.4850 0.6250
" />
<path d="M5.2650 1.1250
L5.2650 1.2250
" />
<path d="M5.2650 1.2250
L5.2650 1.4250
" />
<path d="M5.2650 1.2250
L5.4850 1.2250
" />
<path d="M5.2650 1.4250
L5.2650 1.6250
" />
<path d="M5.2650 1.7000
L5.4850 1.7000
" />
<path d="M5.2650 11.5500
L4.9850 11.5500
" />
<path d="M5.2650 11.8250
L5.2650 11.6250
" />
<path d="M5.2650 12.0250
L5.2650 11.8250
" />
<path d="M5.2650 12.1250
L5.2650 12.0250
" />
<path d="M5.2650 12.6250
L5.2650 12.1250
" />
<path d="M5.4850 0.6250
L5.4850 1.1250
" />
<path d="M5.4850 1.1250
L5.4850 1.2250
" />
<path d="M5.4850 1.2250
L5.4850 1.4250
" />
<path d="M5.4850 1.4250
L5.4850 1.6250
" />
<path d="M5.4850 1.7000
L5.7650 1.7000
" />
<path d="M5.4850 11.5500
L5.2650 11.5500
" />
<path d="M5.4850 11.8250
L5.4850 11.6250
" />
<path d="M5.4850 12.0250
L5.2650 12.0250
" />
<path d="M5.4850 12.0250
L5.4850 11.8250
" />
<path d="M5.4850 12.1250
L5.4850 12.0250
" />
<path d="M5.4850 12.6250
L5.2650 12.6250
" />
<path d="M5.4850 12.6250
L5.4850 12.1250
" />
<path d="M5.7650 0.6250
L5.7650 1.1250
" />
<path d="M5.7650 0.6250
L5.9850 0.6250
" />
<path d="M5.7650 1.1250
L5.7650 1.2250
" />
<path d="M5.7650 1.2250
L5.7650 1.4250
" />
<path d="M5.7650 1.2250
L5.9850 1.2250
" />
<path d="M5.7650 1.4250
L5.7650 1.6250
" />
<path d="M5.7650 1.7000
L5.9850 1.7000
" />
<path d="M5.7650 11.5500
L5.4850 11.5500
" />
<path d="M5.7650 11.8250
L5.7650 11.6250
" />
<path d="M5.7650 12.0250
L5.7650 11.8250
" />
<path d="M5.7650 12.1250
L5.7650 12.0250
" />
<path d="M5.7650 12.6250
L5.7650 12.1250
" />
<path d="M5.9850 0.6250
L5.9850 1.1250
" />
<path d="M5.9850 1.1250
L5.9850 1.2250
" />
<path d="M5.9850 1.2250
L5.9850 1.4250
" />
<path d="M5.9850 1.4250
L5.9850 1.6250
" />
<path d="M5.9850 1.7000
L6.2650 1.7000
" />
<path d="M5.9850 11.5500
L5.7650 11.5500
" />
<path d="M5.9850 11.8250
L5.9850 11.6250
" />
<path d="M5.9850 12.0250
L5.7650 12.0250
" />
<path d="M5.9850 12.0250
L5.9850 11.8250
" />
<path d="M5.9850 12.1250
L5.9850 12.0250
" />
<path d="M5.9850 12.6250
L5.7650 12.6250
" />
<path d="M5.9850 12.6250
L5.9850 12.1250
" />
<path d="M6.2650 0.6250
L6.2650 1.1250
" />
<path d="M6.2650 0.6250
L6.4850 0.6250
" />
<path d="M6.2650 1.1250
L6.2650 1.2250
" />
<path d="M6.2650 1.2250
L6.2650 1.4250
" />
<path d="M6.2650 1.2250
L6.4850 1.2250
" />
<path d="M6.2650 1.4250
L6.2650 1.6250
" />
<path d="M6.2650 1.7000
L6.4850 1.7000
" />
<path d="M6.2650 11.5500
L5.9850 11.5500
" />
<path d="M6.2650 11.8250
L6.2650 11.6250
" />
<path d="M6.2650 12.0250
L6.2650 11.8250
" />
<path d="M6.2650 12.1250
L6.2650 12.0250
" />
<path d="M6.2650 12.6250
L6.2650 12.1250
" />
<path d="M6.4850 0.6250
L6.4850 1.1250
" />
<path d="M6.4850 1.1250
L6.4850 1.2250
" />
<path d="M6.4850 1.2250
L6.4850 1.4250
" />
<path d="M6.4850 1.4250
L6.4850 1.6250
" />
<path d="M6.4850 1.7000
L6.7650 1.7000
" />
<path d="M6.4850 11.5500
L6.2650 11.5500
" />
<path d="M6.4850 11.8250
L6.4850 11.6250
" />
<path d="M6.4850 12.0250
L6.2650 12.0250
" />
<path d="M6.4850 12.0250
L6.4850 11.8250
" />
<path d="M6.4850 12.1250
L6.4850 12.0250
" />
<path d="M6.4850 12.6250
L6.2650 12.6250
" />
<path d="M6.4850 12.6250
L6.4850 12.1250
" />
<path d="M6.7650 0.6250
L6.7650 1.1250
" />
<path d="M6.7650 0.6250
L6.9850 0.6250
" />
<path d="M6.7650 1.1250
L6.7650 1.2250
" />
<path d="M6.7650 1.2250
L6.7650 1.4250
" />
<path d="M6.7650 1.2250
L6.9850 1.2250
" />
<path d="M6.7650 1.4250
L6.7650 1.6250
" />
<path d="M6.7650 1.7000
L6.9850 1.7000
" />
<path d="M6.7650 11.5500
L6.4850 11.5500
" />
<path d="M6.7650 11.8250
L6.7650 11.6250
" />
<path d="M6.7650 12.0250
L6.7650 11.8250
" />
<path d="M6.7650 12.1250
L6.7650 12.0250
" />
<path d="M6.7650 12.6250
L6.7650 12.1250
" />
<path d="M6.9850 0.6250
L6.9850 1.1250
" />
<path d="M6.9850 1.1250
L6.9850 1.2250
" />
<path d="M6.9850 1.2250
L6.9850 1.4250
" />
<path d="M6.9850 1.4250
L6.9850 1.6250
" />
<path d="M6.9850 1.7000
L7.2650 1.7000
" />
<path d="M6.9850 11.5500
L6.7650 11.5500
" />
<path d="M6.9850 11.8250
L6.9850 11.6250
" />
<path d="M6.9850 12.0250
L6.7650 12.0250
" />
<path d="M6.9850 12.0250
L6.9850 11.8250
" />
<path d="M6.9850 12.1250
L6.9850 12.0250
" />
<path d="M6.9850 12.6250
L6.7650 12.6250
" />
<path d="M6.9850 12.6250
L6.9850 12.1250
" />
<path d="M7.2650 0.6250
L7.2650 1.1250
" />
<path d="M7.2650 0.6250
L7.4850 0.6250
" />
<path d="M7.2650 1.1250
L7.2650 1.2250
" />
<path d="M7.2650 1.2250
L7.2650 1.4250
" />
<path d="M7.2650 1.2250
L7.4850 1.2250
" />
<path d="M7.2650 1.4250
L7.2650 1.6250
" />
<path d="M7.2650 1.7000
L7.4850 1.7000
" />
<path d="M7.2650 11.5500
L6.9850 11.5500
" />
<path d="M7.2650 11.8250
L7.2650 11.6250
" />
<path d="M7.2650 12.0250
L7.2650 11.8250
" />
<path d="M7.2650 12.1250
L7.2650 12.0250
" />
<path d="M7.2650 12.6250
L7.2650 12.1250
" />
<path d="M7.4850 0.6250
L7.4850 1.1250
" />
<path d="M7.4850 1.1250
L7.4850 1.2250
" />
<path d="M7.4850 1.2250
L7.4850 1.4250
" />
<path d="M7.4850 1.4250
L7.4850 1.6250
" />
<path d="M7.4850 1.7000
L7.7650 1.7000
" />
<path d="M7.4850 11.5500
L7.2650 11.5500
" />
<path d="M7.4850 11.8250
L7.4850 11.6250
" />
<path d="M7.4850 12.0250
L7.2650 12.0250
" />
<path d="M7.4850 12.0250
L7.4850 11.8250
" />
<path d="M7.4850 12.1250
L7.4850 12.0250
" />
<path d="M7.4850 12.6250
L7.2650 12.6250
" />
<path d="M7.4850 12.6250
L7.4850 12.1250
" />
<path d="M7.7650 0.6250
L7.7650 1.1250
" />
<path d="M7.7650 0.6250
L7.9850 0.6250
" />
<path d="M7.7650 1.1250
L7.7650 1.2250
" />
<path d="M7.7650 1.2250
L7.7650 1.4250
" />
<path d="M7.7650 1.2250
L7.9850 1.2250
" />
<path d="M7.7650 1.2250
L7.9850 1.2250
" />
<path d="M7.7650 1.4250
L7.7650 1.6250
" />
<path d="M7.7650 1.7000
L7.9850 1.7000
" />
<path d="M7.7650 11.5500
L7.4850 11.5500
" />
<path d="M7.7650 11.8250
L7.7650 11.6250
" />
<path d="M7.7650 12.0250
L7.7650 11.8250
" />
<path d="M7.7650 12.1250
L7.7650 12.0250
" />
<path d="M7.7650 12.6250
L7.7650 12.1250
" />
<path d="M7.9850 0.6250
L7.9850 1.1250
" />
<path d="M7.9850 1.1250
L7.9850 1.2250
" />
<path d="M7.9850 1.2250
L7.9850 1.4250
" />
<path d="M7.9850 1.4250
L7.9850 1.6250
" />
<path d="M7.9850 1.7000
L8.2650 1.7000
" />
<path d="M7.9850 11.5500
L7.7650 11.5500
" />
<path d="M7.9850 11.8250
L7.9850 11.6250
" />
<path d="M7.9850 12.0250
L7.7650 12.0250
" />
<path d="M7.9850 12.0250
L7.9850 11.8250
" />
<path d="M7.9850 12.1250
L7.9850 12.0250
" />
<path d="M7.9850 12.6250
L7.7650 12.6250
" />
<path d="M7.9850 12.6250
L7.9850 12.1250
" />
<path d="M8.2650 0.6250
L8.2650 1.1250
" />
<path d="M8.2650 0.6250
L8.4850 0.6250
" />
<path d="M8.2650 1.1250
L8.2650 1.2250
" />
<path d="M8.2650 1.2250
L8.2650 1.4250
" />
<path d="M8.2650 1.2250
L8.4850 1.2250
" />
<path d="M8.2650 1.4250
L8.2650 1.6250
" />
<path d="M8.2650 1.7000
L8.4850 1.7000
" />
<path d="M8.2650 11.5500
L7.9850 11.5500
" />
<path d="M8.2650 11.8250
L8.2650 11.6250
" />
<path d="M8.2650 12.0250
L8.2650 11.8250
" />
<path d="M8.2650 12.1250
L8.2650 12.0250
" />
<path d="M8.2650 12.6250
L8.2650 12.1250
" />
<path d="M8.4850 0.6250
L8.4850 1.1250
" />
<path d="M8.4850 1.1250
L8.4850 1.2250
" />
<path d="M8.4850 1.2250
L8.4850 1.4250
" />
<path d="M8.4850 1.4250
L8.4850 1.6250
" />
<path d="M8.4850 1.7000
L8.7650 1.7000
" />
<path d="M8.4850 11.5500
L8.2650 11.5500
" />
<path d="M8.4850 11.8250
L8.4850 11.6250
" />
<path d="M8.4850 12.0250
L8.2650 12.0250
" />
<path d="M8.4850 12.0250
L8.4850 11.8250
" />
<path d="M8.4850 12.1250
L8.4850 12.0250
" />
<path d="M8.4850 12.6250
L8.2650 12.6250
" />
<path d="M8.4850 12.6250
L8.4850 12.1250
" />
<path d="M8.7650 0.6250
L8.7650 1.1250
" />
<path d="M8.7650 0.6250
L8.9850 0.6250
" />
<path d="M8.7650 1.1250
L8.7650 1.2250
" />
<path d="M8.7650 1.2250
L8.7650 1.4250
" />
<path d="M8.7650 1.2250
L8.9850 1.2250
" />
<path d="M8.7650 1.4250
L8.7650 1.6250
" />
<path d="M8.7650 1.7000
L8.9850 1.7000
" />
<path d="M8.7650 11.5500
L8.4850 11.5500
" />
<path d="M8.7650 11.8250
L8.7650 11.6250
" />
<path d="M8.7650 12.0250
L8.7650 11.8250
" />
<path d="M8.7650 12.1250
L8.7650 12.0250
" />
<path d="M8.7650 12.6250
L8.7650 12.1250
" />
<path d="M8.9850 0.6250
L8.9850 1.1250
" />
<path d="M8.9850 1.1250
L8.9850 1.2250
" />
<path d="M8.9850 1.2250
L8.9850 1.4250
" />
<path d="M8.9850 1.4250
L8.9850 1.6250
" />
<path d="M8.9850 1.7000
L9.2650 1.7000
" />
<path d="M8.9850 11.5500
L8.7650 11.5500
" />
<path d="M8.9850 11.8250
L8.9850 11.6250
" />
<path d="M8.9850 12.0250
L8.7650 12.0250
" />
<path d="M8.9850 12.0250
L8.9850 11.8250
" />
<path d="M8.9850 12.1250
L8.9850 12.0250
" />
<path d="M8.9850 12.6250
L8.7650 12.6250
" />
<path d="M8.9850 12.6250
L8.9850 12.1250
" />
<path d="M9.2650 0.6250
L9.2650 1.1250
" />
<path d="M9.2650 0.6250
L9.4850 0.6250
" />
<path d="M9.2650 1.1250
L9.2650 1.2250
" />
<path d="M9.2650 1.2250
L9.2650 1.4250
" />
<path d="M9.2650 1.2250
L9.4850 1.2250
" />
<path d="M9.2650 1.4250
L9.2650 1.6250
" />
<path d="M9.2650 1.7000
L9.4850 1.7000
" />
<path d="M9.2650 11.5500
L8.9850 11.5500
" />
<path d="M9.2650 11.8250
L9.2650 11.6250
" />
<path d="M9.2650 12.0250
L9.2650 11.8250
" />
<path d="M9.2650 12.1250
L9.2650 12.0250
" />
<path d="M9.2650 12.6250
L9.2650 12.1250
" />
<path d="M9.4850 0.6250
L9.4850 1.1250
" />
<path d="M9.4850 1.1250
L9.4850 1.2250
" />
<path d="M9.4850 1.2250
L9.4850 1.4250
" />
<path d="M9.4850 1.4250
L9.4850 1.6250
" />
<path d="M9.4850 1.7000
L9.7650 1.7000
" />
<path d="M9.4850 11.5500
L9.2650 11.5500
" />
<path d="M9.4850 11.8250
L9.4850 11.6250
" />
<path d="M9.4850 12.0250
L9.2650 12.0250
" />
<path d="M9.4850 12.0250
L9.4850 11.8250
" />
<path d="M9.4850 12.1250
L9.4850 12.0250
" />
<path d="M9.4850 12.6250
L9.2650 12.6250
" />
<path d="M9.4850 12.6250
L9.4850 12.1250
" />
<path d="M9.7650 0.6250
L9.7650 1.1250
" />
<path d="M9.7650 0.6250
L9.9850 0.6250
" />
<path d="M9.7650 1.1250
L9.7650 1.2250
" />
<path d="M9.7650 1.2250
L9.7650 1.4250
" />
<path d="M9.7650 1.2250
L9.9850 1.2250
" />
<path d="M9.7650 1.4250
L9.7650 1.6250
" />
<path d="M9.7650 1.7000
L9.9850 1.7000
" />
<path d="M9.7650 11.5500
L9.4850 11.5500
" />
<path d="M9.7650 11.8250
L9.7650 11.6250
" />
<path d="M9.7650 12.0250
L9.7650 11.8250
" />
<path d="M9.7650 12.1250
L9.7650 12.0250
" />
<path d="M9.7650 12.6250
L9.7650 12.1250
" />
<path d="M9.9850 0.6250
L9.9850 1.1250
" />
<path d="M9.9850 1.1250
L9.9850 1.2250
" />
<path d="M9.9850 1.2250
L9.9850 1.4250
" />
<path d="M9.9850 1.4250
L9.9850 1.6250
" />
<path d="M9.9850 1.7000
L10.2650 1.7000
" />
<path d="M9.9850 11.5500
L9.7650 11.5500
" />
<path d="M9.9850 11.8250
L9.9850 11.6250
" />
<path d="M9.9850 12.0250
L9.7650 12.0250
" />
<path d="M9.9850 12.0250
L9.9850 11.8250
" />
<path d="M9.9850 12.1250
L9.9850 12.0250
" />
<path d="M9.9850 12.6250
L9.7650 12.6250
" />
<path d="M9.9850 12.6250
L9.9850 12.1250
" />
<path d="M10.2650 0.6250
L10.2650 1.1250
" />
<path d="M10.2650 0.6250
L10.4850 0.6250
" />
<path d="M10.2650 1.1250
L10.2650 1.2250
" />
<path d="M10.2650 1.2250
L10.2650 1.4250
" />
<path d="M10.2650 1.2250
L10.4850 1.2250
" />
<path d="M10.2650 1.4250
L10.2650 1.6250
" />
<path d="M10.2650 1.7000
L10.4850 1.7000
" />
<path d="M10.2650 11.5500
L9.9850 11.5500
" />
<path d="M10.2650 11.8250
L10.2650 11.6250
" />
<path d="M10.2650 12.0250
L10.2650 11.8250
" />
<path d="M10.2650 12.1250
L10.2650 12.0250
" />
<path d="M10.2650 12.6250
L10.2650 12.1250
" />
<path d="M10.4850 0.6250
L10.4850 1.1250
" />
<path d="M10.4850 1.1250
L10.4850 1.2250
" />
<path d="M10.4850 1.2250
L10.4850 1.4250
" />
<path d="M10.4850 1.4250
L10.4850 1.6250
" />
<path d="M10.4850 1.7000
L11.4125 1.7000
" />
<path d="M10.4850 11.5500
L10.2650 11.5500
" />
<path d="M10.4850 11.8250
L10.4850 11.6250
" />
<path d="M10.4850 12.0250
L10.2650 12.0250
" />
<path d="M10.4850 12.0250
L10.4850 11.8250
" />
<path d="M10.4850 12.1250
L10.4850 12.0250
" />
<path d="M10.4850 12.6250
L10.2650 12.6250
" />
<path d="M10.4850 12.6250
L10.4850 12.1250
" />
<path d="M11.3475 1.8298
L11.4202 1.9025
" />
<path d="M11.3476 11.4203
L1.9024 11.4203
" />
<path d="M11.4125 1.7000
L11.5500 1.8375
" />
<path d="M11.4125 11.5500
L10.4850 11.5500
" />
<path d="M11.4201 11.3476
L11.3476 11.4201
" />
<path d="M11.4203 1.9024
L11.4203 11.3476
" />
<path d="M11.4550 1.6250
L11.3476 1.8297
" />
<path d="M11.4550 1.6250
L11.6250 1.7950
" />
<path d="M11.4550 11.6250
L1.7950 11.6250
" />
<path d="M11.4550 11.6250
L11.3476 11.4201
" />
<path d="M11.5500 1.8375
L11.5500 2.7650
" />
<path d="M11.5500 2.7650
L11.5500 2.9850
" />
<path d="M11.5500 2.9850
L11.5500 3.2650
" />
<path d="M11.5500 3.2650
L11.5500 3.4850
" />
<path d="M11.5500 3.4850
L11.5500 3.7650
" />
<path d="M11.5500 3.7650
L11.5500 3.9850
" />
<path d="M11.5500 3.9850
L11.5500 4.2650
" />
<path d="M11.5500 4.2650
L11.5500 4.4850
" />
<path d="M11.5500 4.4850
L11.5500 4.7650
" />
<path d="M11.5500 4.7650
L11.5500 4.9850
" />
<path d="M11.5500 4.9850
L11.5500 5.2650
" />
<path d="M11.5500 5.2650
L11.5500 5.4850
" />
<path d="M11.5500 5.4850
L11.5500 5.7650
" />
<path d="M11.5500 5.7650
L11.5500 5.9850
" />
<path d="M11.5500 5.9850
L11.5500 6.2650
" />
<path d="M11.5500 6.2650
L11.5500 6.4850
" />
<path d="M11.5500 6.4850
L11.5500 6.7650
" />
<path d="M11.5500 6.7650
L11.5500 6.9850
" />
<path d="M11.5500 6.9850
L11.5500 7.2650
" />
<path d="M11.5500 7.2650
L11.5500 7.4850
" />
<path d="M11.5500 7.4850
L11.5500 7.7650
" />
<path d="M11.5500 7.7650
L11.5500 7.9850
" />
<path d="M11.5500 7.9850
L11.5500 8.2650
" />
<path d="M11.5500 8.2650
L11.5500 8.4850
" />
<path d="M11.5500 8.4850
L11.5500 8.7650
" />
<path d="M11.5500 8.7650
L11.5500 8.9850
" />
<path d="M11.5500 8.9850
L11.5500 9.2650
" />
<path d="M11.5500 9.2650
L11.5500 9.4850
" />
<path d="M11.5500 9.4850
L11.5500 9.7650
" />
<path d="M11.5500 9.7650
L11.5500 9.9850
" />
<path d="M11.5500 9.9850
L11.5500 10.2650
" />
<path d="M11.5500 10.2650
L11.5500 10.4850
" />
<path d="M11.5500 10.4850
L11.5500 11.4125
" />
<path d="M11.5500 11.4125
L11.4125 11.5500
" />
<path d="M11.6250 1.7950
L11.4203 1.9024
" />
<path d="M11.6250 1.7950
L11.6250 11.4550
" />
<path d="M11.6250 11.4550
L11.4201 11.3476
" />
<path d="M11.6250 11.4550
L11.4550 11.6250
" />
<path d="M11.8250 2.7650
L11.6250 2.7650
" />
<path d="M11.8250 2.9850
L11.6250 2.9850
" />
<path d="M11.8250 3.2650
L11.6250 3.2650
" />
<path d="M11.8250 3.4850
L11.6250 3.4850
" />
<path d="M11.8250 3.7650
L11.6250 3.7650
" />
<path d="M11.8250 3.9850
L11.6250 3.9850
" />
<path d="M11.8250 4.2650
L11.6250 4.2650
" />
<path d="M11.8250 4.4850
L11.6250 4.4850
" />
<path d="M11.8250 4.7650
L11.6250 4.7650
" />
<path d="M11.8250 4.9850
L11.6250 4.9850
" />
<path d="M11.8250 5.2650
L11.6250 5.2650
" />
<path d="M11.8250 5.4850
L11.6250 5.4850
" />
<path d="M11.8250 5.7650
L11.6250 5.7650
" />
<path d="M11.8250 5.9850
L11.6250 5.9850
" />
<path d="M11.8250 6.2650
L11.6250 6.2650
" />
<path d="M11.8250 6.4850
L11.6250 6.4850
" />
<path d="M11.8250 6.7650
L11.6250 6.7650
" />
<path d="M11.8250 6.9850
L11.6250 6.9850
" />
<path d="M11.8250 7.2650
L11.6250 7.2650
" />
<path d="M11.8250 7.4850
L11.6250 7.4850
" />
<path d="M11.8250 7.7650
L11.6250 7.7650
" />
<path d="M11.8250 7.9850
L11.6250 7.9850
" />
<path d="M11.8250 8.2650
L11.6250 8.2650
" />
<path d="M11.8250 8.4850
L11.6250 8.4850
" />
<path d="M11.8250 8.7650
L11.6250 8.7650
" />
<path d="M11.8250 8.9850
L11.6250 8.9850
" />
<path d="M11.8250 9.2650
L11.6250 9.2650
" />
<path d="M11.8250 9.4850
L11.6250 9.4850
" />
<path d="M11.8250 9.7650
L11.6250 9.7650
" />
<path d="M11.8250 9.9850
L11.6250 9.9850
" />
<path d="M11.8250 10.2650
L11.6250 10.2650
" />
<path d="M11.8250 10.4850
L11.6250 10.4850
" />
<path d="M12.0250 2.7650
L11.8250 2.7650
" />
<path d="M12.0250 2.7650
L12.0250 2.9850
" />
<path d="M12.0250 2.9850
L11.8250 2.9850
" />
<path d="M12.0250 3.2650
L11.8250 3.2650
" />
<path d="M12.0250 3.2650
L12.0250 3.4850
" />
<path d="M12.0250 3.4850
L11.8250 3.4850
" />
<path d="M12.0250 3.7650
L11.8250 3.7650
" />
<path d="M12.0250 3.7650
L12.0250 3.9850
" />
<path d="M12.0250 3.9850
L11.8250 3.9850
" />
<path d="M12.0250 4.2650
L11.8250 4.2650
" />
<path d="M12.0250 4.2650
L12.0250 4.4850
" />
<path d="M12.0250 4.4850
L11.8250 4.4850
" />
<path d="M12.0250 4.7650
L11.8250 4.7650
" />
<path d="M12.0250 4.7650
L12.0250 4.9850
" />
<path d="M12.0250 4.9850
L11.8250 4.9850
" />
<path d="M12.0250 5.2650
L11.8250 5.2650
" />
<path d="M12.0250 5.2650
L12.0250 5.4850
" />
<path d="M12.0250 5.4850
L11.8250 5.4850
" />
<path d="M12.0250 5.7650
L11.8250 5.7650
" />
<path d="M12.0250 5.7650
L12.0250 5.9850
" />
<path d="M12.0250 5.9850
L11.8250 5.9850
" />
<path d="M12.0250 6.2650
L11.8250 6.2650
" />
<path d="M12.0250 6.2650
L12.0250 6.4850
" />
<path d="M12.0250 6.4850
L11.8250 6.4850
" />
<path d="M12.0250 6.7650
L11.8250 6.7650
" />
<path d="M12.0250 6.7650
L12.0250 6.9850
" />
<path d="M12.0250 6.9850
L11.8250 6.9850
" />
<path d="M12.0250 7.2650
L11.8250 7.2650
" />
<path d="M12.0250 7.2650
L12.0250 7.4850
" />
<path d="M12.0250 7.4850
L11.8250 7.4850
" />
<path d="M12.0250 7.7650
L11.8250 7.7650
" />
<path d="M12.0250 7.7650
L12.0250 7.9850
" />
<path d="M12.0250 7.9850
L11.8250 7.9850
" />
<path d="M12.0250 8.2650
L11.8250 8.2650
" />
<path d="M12.0250 8.2650
L12.0250 8.4850
" />
<path d="M12.0250 8.4850
L11.8250 8.4850
" />
<path d="M12.0250 8.7650
L11.8250 8.7650
" />
<path d="M12.0250 8.7650
L12.0250 8.9850
" />
<path d="M12.0250 8.9850
L11.8250 8.9850
" />
<path d="M12.0250 9.2650
L11.8250 9.2650
" />
<path d="M12.0250 9.2650
L12.0250 9.4850
" />
<path d="M12.0250 9.4850
L11.8250 9.4850
" />
<path d="M12.0250 9.7650
L11.8250 9.7650
" />
<path d="M12.0250 9.7650
L12.0250 9.9850
" />
<path d="M12.0250 9.7650
L12.0250 9.9850
" />
<path d="M12.0250 9.9850
L11.8250 9.9850
" />
<path d="M12.0250 10.2650
L11.8250 10.2650
" />
<path d="M12.0250 10.2650
L12.0250 10.4850
" />
<path d="M12.0250 10.2650
L12.0250 10.4850
" />
<path d="M12.0250 10.4850
L11.8250 10.4850
" />
<path d="M12.1250 2.7650
L12.0250 2.7650
" />
<path d="M12.1250 2.9850
L12.0250 2.9850
" />
<path d="M12.1250 3.2650
L12.0250 3.2650
" />
<path d="M12.1250 3.4850
L12.0250 3.4850
" />
<path d="M12.1250 3.7650
L12.0250 3.7650
" />
<path d="M12.1250 3.9850
L12.0250 3.9850
" />
<path d="M12.1250 4.2650
L12.0250 4.2650
" />
<path d="M12.1250 4.4850
L12.0250 4.4850
" />
<path d="M12.1250 4.7650
L12.0250 4.7650
" />
<path d="M12.1250 4.9850
L12.0250 4.9850
" />
<path d="M12.1250 5.2650
L12.0250 5.2650
" />
<path d="M12.1250 5.4850
L12.0250 5.4850
" />
<path d="M12.1250 5.7650
L12.0250 5.7650
" />
<path d="M12.1250 5.9850
L12.0250 5.9850
" />
<path d="M12.1250 6.2650
L12.0250 6.2650
" />
<path d="M12.1250 6.4850
L12.0250 6.4850
" />
<path d="M12.1250 6.7650
L12.0250 6.7650
" />
<path d="M12.1250 6.9850
L12.0250 6.9850
" />
<path d="M12.1250 7.2650
L12.0250 7.2650
" />
<path d="M12.1250 7.4850
L12.0250 7.4850
" />
<path d="M12.1250 7.7650
L12.0250 7.7650
" />
<path d="M12.1250 7.9850
L12.0250 7.9850
" />
<path d="M12.1250 8.2650
L12.0250 8.2650
" />
<path d="M12.1250 8.4850
L12.0250 8.4850
" />
<path d="M12.1250 8.7650
L12.0250 8.7650
" />
<path d="M12.1250 8.9850
L12.0250 8.9850
" />
<path d="M12.1250 9.2650
L12.0250 9.2650
" />
<path d="M12.1250 9.4850
L12.0250 9.4850
" />
<path d="M12.1250 9.7650
L12.0250 9.7650
" />
<path d="M12.1250 9.9850
L12.0250 9.9850
" />
<path d="M12.1250 10.2650
L12.0250 10.2650
" />
<path d="M12.1250 10.4850
L12.0250 10.4850
" />
<path d="M12.6250 2.7650
L12.1250 2.7650
" />
<path d="M12.6250 2.7650
L12.6250 2.9850
" />
<path d="M12.6250 2.9850
L12.1250 2.9850
" />
<path d="M12.6250 3.2650
L12.1250 3.2650
" />
<path d="M12.6250 3.2650
L12.6250 3.4850
" />
<path d="M12.6250 3.4850
L12.1250 3.4850
" />
<path d="M12.6250 3.7650
L12.1250 3.7650
" />
<path d="M12.6250 3.7650
L12.6250 3.9850
" />
<path d="M12.6250 3.9850
L12.1250 3.9850
" />
<path d="M12.6250 4.2650
L12.1250 4.2650
" />
<path d="M12.6250 4.2650
L12.6250 4.4850
" />
<path d="M12.6250 4.4850
L12.1250 4.4850
" />
<path d="M12.6250 4.7650
L12.1250 4.7650
" />
<path d="M12.6250 4.7650
L12.6250 4.9850
" />
<path d="M12.6250 4.9850
L12.1250 4.9850
" />
<path d="M12.6250 5.2650
L12.1250 5.2650
" />
<path d="M12.6250 5.2650
L12.6250 5.4850
" />
<path d="M12.6250 5.4850
L12.1250 5.4850
" />
<path d="M12.6250 5.7650
L12.1250 5.7650
" />
<path d="M12.6250 5.7650
L12.6250 5.9850
" />
<path d="M12.6250 5.9850
L12.1250 5.9850
" />
<path d="M12.6250 6.2650
L12.1250 6.2650
" />
<path d="M12.6250 6.2650
L12.6250 6.4850
" />
<path d="M12.6250 6.4850
L12.1250 6.4850
" />
<path d="M12.6250 6.7650
L12.1250 6.7650
" />
<path d="M12.6250 6.7650
L12.6250 6.9850
" />
<path d="M12.6250 6.9850
L12.1250 6.9850
" />
<path d="M12.6250 7.2650
L12.1250 7.2650
" />
<path d="M12.6250 7.2650
L12.6250 7.4850
" />
<path d="M12.6250 7.4850
L12.1250 7.4850
" />
<path d="M12.6250 7.7650
L12.1250 7.7650
" />
<path d="M12.6250 7.7650
L12.6250 7.9850
" />
<path d="M12.6250 7.9850
L12.1250 7.9850
" />
<path d="M12.6250 8.2650
L12.1250 8.2650
" />
<path d="M12.6250 8.2650
L12.6250 8.4850
" />
<path d="M12.6250 8.4850
L12.1250 8.4850
" />
<path d="M12.6250 8.7650
L12.1250 8.7650
" />
<path d="M12.6250 8.7650
L12.6250 8.9850
" />
<path d="M12.6250 8.9850
L12.1250 8.9850
" />
<path d="M12.6250 9.2650
L12.1250 9.2650
" />
<path d="M12.6250 9.2650
L12.6250 9.4850
" />
<path d="M12.6250 9.4850
L12.1250 9.4850
" />
<path d="M12.6250 9.7650
L12.1250 9.7650
" />
<path d="M12.6250 9.7650
L12.6250 9.9850
" />
<path d="M12.6250 9.9850
L12.1250 9.9850
" />
<path d="M12.6250 10.2650
L12.1250 10.2650
" />
<path d="M12.6250 10.2650
L12.6250 10.4850
" />
<path d="M12.6250 10.4850
L12.1250 10.4850
" />
</g>
<g style="fill:none; 
stroke:#000000; stroke-width:0.0200; stroke-opacity:1; 
stroke-linecap:round; stroke-linejoin:round;">
<circle cx="2.5350" cy="2.5350" r="0.2500" /> 
</g> 
</svg>
