<?xml version="1.0" standalone="no"?>
 <!DOCTYPE svg PUBLIC "-//W3C//DTD SVG 1.1//EN" 
 "http://www.w3.org/Graphics/SVG/1.1/DTD/svg11.dtd"> 
<svg
  xmlns:svg="http://www.w3.org/2000/svg"
  xmlns="http://www.w3.org/2000/svg"
  xmlns:xlink="http://www.w3.org/1999/xlink"
  version="1.1"
  width="7.9248mm" height="6.2992mm" viewBox="0.0000 0.0000 7.9248 6.2992">
<title>SVG Image created as outline.svg date 2025/04/04 10:06:04 </title>
  <desc>Image generated by PCBNEW </desc>
<g style="fill:#000000; fill-opacity:1.0000;stroke:#000000; stroke-opacity:1.0000;
stroke-linecap:round; stroke-linejoin:round;"
 transform="translate(0 0) scale(1 1)">
</g>
<g style="fill:none; 
stroke:#000000; stroke-width:0.0200; stroke-opacity:1; 
stroke-linecap:round; stroke-linejoin:round;">
<path d="M0.2830 0.2800
L7.6850 0.2800
" />
<path d="M0.2830 6.0290
L0.2830 0.2800
" />
<path d="M0.2830 6.0290
L1.4850 6.0290
" />
<path d="M1.1460 1.1420
L6.8210 1.1420
" />
<path d="M1.1460 5.1660
L1.1460 1.1420
" />
<path d="M1.1460 5.1660
L6.8210 5.1660
" />
<path d="M1.4850 5.9050
L3.9840 5.9050
" />
<path d="M1.4850 6.0290
L1.4850 5.9050
" />
<path d="M1.4850 6.0290
L2.7350 6.0290
" />
<path d="M2.4150 2.8350
L2.6710 3.0910
" />
<path d="M2.4150 2.8350
L3.0550 2.8350
" />
<path d="M2.4150 3.4750
L2.4150 2.8350
" />
<path d="M2.4150 3.4750
L2.6710 3.2190
" />
<path d="M2.4150 3.4750
L3.0550 3.4750
" />
<path d="M2.6710 3.0910
L2.7990 3.0910
" />
<path d="M2.6710 3.2190
L2.6710 3.0910
" />
<path d="M2.6710 3.2190
L2.7990 3.2190
" />
<path d="M2.7350 6.0290
L2.7350 5.9050
" />
<path d="M2.7990 3.2190
L2.7990 3.0910
" />
<path d="M3.0550 2.8350
L2.7990 3.0910
" />
<path d="M3.0550 3.4750
L2.7990 3.2190
" />
<path d="M3.0550 3.4750
L3.0550 2.8350
" />
<path d="M3.9840 6.0290
L2.7350 6.0290
" />
<path d="M3.9840 6.0290
L3.9840 5.9050
" />
<path d="M3.9840 6.0290
L7.6850 6.0290
" />
<path d="M4.9150 2.8350
L5.1700 3.0910
" />
<path d="M4.9150 2.8350
L5.5530 2.8350
" />
<path d="M4.9150 3.4750
L4.9150 2.8350
" />
<path d="M4.9150 3.4750
L5.1700 3.2190
" />
<path d="M4.9150 3.4750
L5.5530 3.4750
" />
<path d="M5.1700 3.0910
L5.2990 3.0910
" />
<path d="M5.1700 3.2190
L5.1700 3.0910
" />
<path d="M5.1700 3.2190
L5.2990 3.2190
" />
<path d="M5.2990 3.2190
L5.2990 3.0910
" />
<path d="M5.5530 2.8350
L5.2990 3.0910
" />
<path d="M5.5530 3.4750
L5.2990 3.2190
" />
<path d="M5.5530 3.4750
L5.5530 2.8350
" />
<path d="M6.8210 5.1660
L6.8210 1.1420
" />
<path d="M7.6850 6.0290
L7.6850 0.2800
" />
</g> 
</svg>
