<?xml version="1.0" standalone="no"?>
 <!DOCTYPE svg PUBLIC "-//W3C//DTD SVG 1.1//EN" 
 "http://www.w3.org/Graphics/SVG/1.1/DTD/svg11.dtd"> 
<svg
  xmlns:svg="http://www.w3.org/2000/svg"
  xmlns="http://www.w3.org/2000/svg"
  xmlns:xlink="http://www.w3.org/1999/xlink"
  version="1.1"
  width="2.5654mm" height="3.5814mm" viewBox="0.0000 0.0000 2.5654 3.5814">
<title>SVG Image created as outline.svg date 2025/04/04 10:06:25 </title>
  <desc>Image generated by PCBNEW </desc>
<g style="fill:#000000; fill-opacity:1.0000;stroke:#000000; stroke-opacity:1.0000;
stroke-linecap:round; stroke-linejoin:round;"
 transform="translate(0 0) scale(1 1)">
</g>
<g style="fill:none; 
stroke:#000000; stroke-width:0.0200; stroke-opacity:1; 
stroke-linecap:round; stroke-linejoin:round;">
<path d="M0.2410 0.5080
L0.2410 3.0980
" />
<path d="M0.2410 3.0980
L2.3490 3.0980
" />
<path d="M0.6300 0.7640
L0.6300 0.7670
" />
</g>
<g style="fill:#000000; fill-opacity:1.0000; stroke:none;">
<circle cx="0.6300" cy="0.7670" r="0.0100" /> 
</g>
<g style="fill:none; 
stroke:#000000; stroke-width:0.0200; stroke-opacity:1; 
stroke-linecap:round; stroke-linejoin:round;">
<path d="M0.6300 0.7670
L0.6300 0.7700
" />
<path d="M0.6300 0.7700
L0.6310 0.7740
" />
<path d="M0.6310 0.7570
L0.6310 0.7600
" />
<path d="M0.6310 0.7600
L0.6300 0.7640
" />
<path d="M0.6310 0.7740
L0.6310 0.7770
" />
<path d="M0.6310 0.7770
L0.6320 0.7800
" />
<path d="M0.6320 0.7510
L0.6320 0.7540
" />
<path d="M0.6320 0.7540
L0.6310 0.7570
" />
<path d="M0.6320 0.7800
L0.6320 0.7830
" />
<path d="M0.6320 0.7830
L0.6330 0.7860
" />
<path d="M0.6330 0.7480
L0.6320 0.7510
" />
<path d="M0.6330 0.7860
L0.6340 0.7890
" />
<path d="M0.6340 0.7450
L0.6330 0.7480
" />
<path d="M0.6340 0.7890
L0.6350 0.7920
" />
<path d="M0.6350 0.7420
L0.6340 0.7450
" />
<path d="M0.6350 0.7920
L0.6370 0.7950
" />
<path d="M0.6370 0.7390
L0.6350 0.7420
" />
<path d="M0.6370 0.7950
L0.6380 0.7980
" />
<path d="M0.6380 0.7360
L0.6370 0.7390
" />
<path d="M0.6380 0.7980
L0.6400 0.8010
" />
<path d="M0.6400 0.7330
L0.6380 0.7360
" />
<path d="M0.6400 0.8010
L0.6410 0.8030
" />
<path d="M0.6410 0.7310
L0.6400 0.7330
" />
<path d="M0.6410 0.8030
L0.6430 0.8060
" />
<path d="M0.6430 0.7280
L0.6410 0.7310
" />
<path d="M0.6430 0.8060
L0.6450 0.8080
" />
<path d="M0.6450 0.7260
L0.6430 0.7280
" />
<path d="M0.6450 0.8080
L0.6470 0.8100
" />
<path d="M0.6470 0.7230
L0.6450 0.7260
" />
<path d="M0.6470 0.8100
L0.6490 0.8130
" />
<path d="M0.6490 0.7210
L0.6470 0.7230
" />
<path d="M0.6490 0.8130
L0.6520 0.8150
" />
<path d="M0.6520 0.7190
L0.6490 0.7210
" />
<path d="M0.6520 0.8150
L0.6540 0.8170
" />
<path d="M0.6540 0.7170
L0.6520 0.7190
" />
<path d="M0.6540 0.8170
L0.6560 0.8190
" />
<path d="M0.6560 0.7150
L0.6540 0.7170
" />
<path d="M0.6560 0.8190
L0.6590 0.8210
" />
<path d="M0.6590 0.7130
L0.6560 0.7150
" />
<path d="M0.6590 0.8210
L0.6620 0.8220
" />
<path d="M0.6620 0.7120
L0.6590 0.7130
" />
<path d="M0.6620 0.8220
L0.6640 0.8240
" />
<path d="M0.6640 0.7100
L0.6620 0.7120
" />
<path d="M0.6640 0.8240
L0.6670 0.8250
" />
<path d="M0.6670 0.7090
L0.6640 0.7100
" />
<path d="M0.6670 0.8250
L0.6700 0.8270
" />
<path d="M0.6700 0.7070
L0.6670 0.7090
" />
<path d="M0.6700 0.8270
L0.6730 0.8280
" />
<path d="M0.6730 0.7060
L0.6700 0.7070
" />
<path d="M0.6730 0.8280
L0.6760 0.8290
" />
<path d="M0.6760 0.7050
L0.6730 0.7060
" />
<path d="M0.6760 0.8290
L0.6790 0.8300
" />
<path d="M0.6790 0.7040
L0.6760 0.7050
" />
<path d="M0.6790 0.8300
L0.6820 0.8300
" />
<path d="M0.6820 0.7030
L0.6790 0.7040
" />
<path d="M0.6820 0.8300
L0.6850 0.8310
" />
<path d="M0.6850 0.7030
L0.6820 0.7030
" />
<path d="M0.6850 0.8310
L0.6880 0.8310
" />
<path d="M0.6880 0.7020
L0.6850 0.7030
" />
<path d="M0.6880 0.8310
L0.6920 0.8320
" />
<path d="M0.6920 0.7020
L0.6880 0.7020
" />
<path d="M0.6920 0.8320
L0.6950 0.8320
" />
<path d="M0.6950 0.7020
L0.6920 0.7020
" />
</g>
<g style="fill:#000000; fill-opacity:1.0000; stroke:none;">
<circle cx="0.6950" cy="0.7020" r="0.0100" /> 
<circle cx="0.6950" cy="0.8320" r="0.0100" /> 
</g>
<g style="fill:none; 
stroke:#000000; stroke-width:0.0200; stroke-opacity:1; 
stroke-linecap:round; stroke-linejoin:round;">
<path d="M0.6950 0.8320
L0.6980 0.8320
" />
<path d="M0.6980 0.7020
L0.6950 0.7020
" />
<path d="M0.6980 0.8320
L0.7020 0.8310
" />
<path d="M0.7020 0.7020
L0.6980 0.7020
" />
<path d="M0.7020 0.8310
L0.7050 0.8310
" />
<path d="M0.7050 0.7030
L0.7020 0.7020
" />
<path d="M0.7050 0.8310
L0.7080 0.8300
" />
<path d="M0.7080 0.7030
L0.7050 0.7030
" />
<path d="M0.7080 0.8300
L0.7110 0.8300
" />
<path d="M0.7110 0.7040
L0.7080 0.7030
" />
<path d="M0.7110 0.8300
L0.7140 0.8290
" />
<path d="M0.7140 0.7050
L0.7110 0.7040
" />
<path d="M0.7140 0.8290
L0.7170 0.8280
" />
<path d="M0.7170 0.7060
L0.7140 0.7050
" />
<path d="M0.7170 0.8280
L0.7200 0.8270
" />
<path d="M0.7200 0.7070
L0.7170 0.7060
" />
<path d="M0.7200 0.8270
L0.7230 0.8250
" />
<path d="M0.7230 0.7090
L0.7200 0.7070
" />
<path d="M0.7230 0.8250
L0.7260 0.8240
" />
<path d="M0.7260 0.7100
L0.7230 0.7090
" />
<path d="M0.7260 0.8240
L0.7290 0.8220
" />
<path d="M0.7290 0.7120
L0.7260 0.7100
" />
<path d="M0.7290 0.8220
L0.7310 0.8210
" />
<path d="M0.7310 0.7130
L0.7290 0.7120
" />
<path d="M0.7310 0.8210
L0.7340 0.8190
" />
<path d="M0.7340 0.7150
L0.7310 0.7130
" />
<path d="M0.7340 0.8190
L0.7360 0.8170
" />
<path d="M0.7360 0.7170
L0.7340 0.7150
" />
<path d="M0.7360 0.8170
L0.7390 0.8150
" />
<path d="M0.7390 0.7190
L0.7360 0.7170
" />
<path d="M0.7390 0.8150
L0.7410 0.8130
" />
<path d="M0.7410 0.7210
L0.7390 0.7190
" />
<path d="M0.7410 0.8130
L0.7430 0.8100
" />
<path d="M0.7430 0.7230
L0.7410 0.7210
" />
<path d="M0.7430 0.8100
L0.7450 0.8080
" />
<path d="M0.7450 0.7260
L0.7430 0.7230
" />
<path d="M0.7450 0.8080
L0.7470 0.8060
" />
<path d="M0.7470 0.7280
L0.7450 0.7260
" />
<path d="M0.7470 0.8060
L0.7490 0.8030
" />
<path d="M0.7490 0.7310
L0.7470 0.7280
" />
<path d="M0.7490 0.8030
L0.7500 0.8010
" />
<path d="M0.7500 0.7330
L0.7490 0.7310
" />
<path d="M0.7500 0.8010
L0.7520 0.7980
" />
<path d="M0.7520 0.7360
L0.7500 0.7330
" />
<path d="M0.7520 0.7980
L0.7530 0.7950
" />
<path d="M0.7530 0.7390
L0.7520 0.7360
" />
<path d="M0.7530 0.7950
L0.7550 0.7920
" />
<path d="M0.7550 0.7420
L0.7530 0.7390
" />
<path d="M0.7550 0.7920
L0.7560 0.7890
" />
<path d="M0.7560 0.7450
L0.7550 0.7420
" />
<path d="M0.7560 0.7890
L0.7570 0.7860
" />
<path d="M0.7570 0.7480
L0.7560 0.7450
" />
<path d="M0.7570 0.7860
L0.7580 0.7830
" />
<path d="M0.7580 0.7510
L0.7570 0.7480
" />
<path d="M0.7580 0.7830
L0.7590 0.7800
" />
<path d="M0.7590 0.7540
L0.7580 0.7510
" />
<path d="M0.7590 0.7570
L0.7590 0.7540
" />
<path d="M0.7590 0.7770
L0.7600 0.7740
" />
<path d="M0.7590 0.7800
L0.7590 0.7770
" />
<path d="M0.7600 0.7600
L0.7590 0.7570
" />
<path d="M0.7600 0.7640
L0.7600 0.7600
" />
<path d="M0.7600 0.7670
L0.7600 0.7640
" />
</g>
<g style="fill:#000000; fill-opacity:1.0000; stroke:none;">
<circle cx="0.7600" cy="0.7670" r="0.0100" /> 
<circle cx="0.7600" cy="0.7670" r="0.0100" /> 
</g>
<g style="fill:none; 
stroke:#000000; stroke-width:0.0200; stroke-opacity:1; 
stroke-linecap:round; stroke-linejoin:round;">
<path d="M0.7600 0.7700
L0.7600 0.7670
" />
<path d="M0.7600 0.7740
L0.7600 0.7700
" />
<path d="M2.3490 0.5080
L0.2410 0.5080
" />
<path d="M2.3490 3.0980
L2.3490 0.5080
" />
</g> 
</svg>
