<?xml version="1.0" standalone="no"?>
 <!DOCTYPE svg PUBLIC "-//W3C//DTD SVG 1.1//EN" 
 "http://www.w3.org/Graphics/SVG/1.1/DTD/svg11.dtd"> 
<svg
  xmlns:svg="http://www.w3.org/2000/svg"
  xmlns="http://www.w3.org/2000/svg"
  xmlns:xlink="http://www.w3.org/1999/xlink"
  version="1.1"
  width="18.2372mm" height="16.2052mm" viewBox="0.0000 0.0000 18.2372 16.2052">
<title>SVG Image created as outline.svg date 2025/04/04 10:06:35 </title>
  <desc>Image generated by PCBNEW </desc>
<g style="fill:#000000; fill-opacity:1.0000;stroke:#000000; stroke-opacity:1.0000;
stroke-linecap:round; stroke-linejoin:round;"
 transform="translate(0 0) scale(1 1)">
</g>
<g style="fill:none; 
stroke:#000000; stroke-width:0.0200; stroke-opacity:1; 
stroke-linecap:round; stroke-linejoin:round;">
<path d="M0.2320 15.6040
L0.2320 16.0040
" />
<path d="M0.2320 15.6040
L0.3130 15.6040
" />
</g>
<g style="fill:#000000; fill-opacity:1.0000; stroke:none;">
<circle cx="0.3130" cy="15.6040" r="0.0100" /> 
</g>
<g style="fill:none; 
stroke:#000000; stroke-width:0.0200; stroke-opacity:1; 
stroke-linecap:round; stroke-linejoin:round;">
<path d="M0.3130 15.6040
L0.5120 15.6040
" />
<path d="M0.3130 16.0040
L0.2320 16.0040
" />
</g>
<g style="fill:#000000; fill-opacity:1.0000; stroke:none;">
<circle cx="0.3130" cy="16.0040" r="0.0100" /> 
</g>
<g style="fill:none; 
stroke:#000000; stroke-width:0.0200; stroke-opacity:1; 
stroke-linecap:round; stroke-linejoin:round;">
<path d="M0.5120 16.0040
L0.3130 16.0040
" />
<path d="M0.5120 16.0040
L0.5760 16.0040
" />
<path d="M0.5760 3.2080
L0.5760 3.2240
" />
<path d="M0.5760 3.2240
L0.5760 4.8250
" />
<path d="M0.5760 4.8250
L0.5760 4.8400
" />
<path d="M0.5760 4.8400
L0.5780 4.8560
" />
<path d="M0.5760 10.2380
L0.5760 10.2540
" />
<path d="M0.5760 10.2540
L0.5760 11.3530
" />
<path d="M0.5760 11.3530
L0.5760 11.3690
" />
<path d="M0.5760 11.3690
L0.5780 11.3850
" />
<path d="M0.5760 15.6040
L0.5120 15.6040
" />
<path d="M0.5760 16.0040
L0.6010 16.0040
" />
<path d="M0.5780 3.1920
L0.5760 3.2080
" />
<path d="M0.5780 4.8560
L0.5790 4.8720
" />
<path d="M0.5780 10.2220
L0.5760 10.2380
" />
<path d="M0.5780 11.3850
L0.5790 11.4010
" />
<path d="M0.5790 3.1760
L0.5780 3.1920
" />
<path d="M0.5790 4.8720
L0.5820 4.8860
" />
<path d="M0.5790 10.2060
L0.5780 10.2220
" />
<path d="M0.5790 11.4010
L0.5820 11.4170
" />
<path d="M0.5800 15.6030
L0.5760 15.6040
" />
<path d="M0.5820 3.1620
L0.5790 3.1760
" />
<path d="M0.5820 4.8860
L0.5860 4.9020
" />
<path d="M0.5820 10.1920
L0.5790 10.2060
" />
<path d="M0.5820 11.4170
L0.5860 11.4330
" />
<path d="M0.5850 15.6030
L0.5800 15.6030
" />
<path d="M0.5860 3.1450
L0.5820 3.1620
" />
<path d="M0.5860 4.9020
L0.5910 4.9170
" />
<path d="M0.5860 10.1760
L0.5820 10.1920
" />
<path d="M0.5860 11.4330
L0.5910 11.4470
" />
<path d="M0.5910 3.1310
L0.5860 3.1450
" />
<path d="M0.5910 4.9170
L0.5960 4.9330
" />
<path d="M0.5910 10.1610
L0.5860 10.1760
" />
<path d="M0.5910 11.4470
L0.5960 11.4620
" />
<path d="M0.5910 15.6030
L0.5850 15.6030
" />
<path d="M0.5950 15.6030
L0.5910 15.6030
" />
<path d="M0.5960 3.1150
L0.5910 3.1310
" />
<path d="M0.5960 4.9330
L0.6020 4.9460
" />
<path d="M0.5960 10.1450
L0.5910 10.1610
" />
<path d="M0.5960 11.4620
L0.6020 11.4760
" />
<path d="M0.6010 15.6000
L0.5950 15.6030
" />
<path d="M0.6010 16.0040
L0.6260 16.0010
" />
<path d="M0.6020 3.1010
L0.5960 3.1150
" />
<path d="M0.6020 4.9460
L0.6080 4.9610
" />
<path d="M0.6020 10.1320
L0.5960 10.1450
" />
<path d="M0.6020 11.4760
L0.6080 11.4910
" />
<path d="M0.6050 15.6000
L0.6010 15.6000
" />
<path d="M0.6080 3.0870
L0.6020 3.1010
" />
<path d="M0.6080 4.9610
L0.6170 4.9740
" />
<path d="M0.6080 10.1170
L0.6020 10.1320
" />
<path d="M0.6080 11.4910
L0.6170 11.5040
" />
<path d="M0.6100 15.5990
L0.6050 15.6000
" />
<path d="M0.6140 15.5970
L0.6100 15.5990
" />
<path d="M0.6170 3.0730
L0.6080 3.0870
" />
<path d="M0.6170 4.9740
L0.6240 4.9870
" />
<path d="M0.6170 10.1030
L0.6080 10.1170
" />
<path d="M0.6170 11.5040
L0.6240 11.5170
" />
<path d="M0.6180 15.5940
L0.6140 15.5970
" />
<path d="M0.6240 3.0610
L0.6170 3.0730
" />
<path d="M0.6240 4.9870
L0.6330 5.0010
" />
<path d="M0.6240 10.0900
L0.6170 10.1030
" />
<path d="M0.6240 11.5170
L0.6330 11.5300
" />
<path d="M0.6240 15.5930
L0.6180 15.5940
" />
<path d="M0.6260 16.0010
L0.6490 15.9980
" />
<path d="M0.6270 15.5900
L0.6240 15.5930
" />
<path d="M0.6310 15.5870
L0.6270 15.5900
" />
<path d="M0.6330 3.0470
L0.6240 3.0610
" />
<path d="M0.6330 5.0010
L0.6430 5.0140
" />
<path d="M0.6330 10.0780
L0.6240 10.0900
" />
<path d="M0.6330 11.5300
L0.6430 11.5430
" />
<path d="M0.6360 15.5840
L0.6310 15.5870
" />
<path d="M0.6400 15.5810
L0.6360 15.5840
" />
<path d="M0.6430 3.0350
L0.6330 3.0470
" />
<path d="M0.6430 5.0140
L0.6530 5.0260
" />
<path d="M0.6430 10.0650
L0.6330 10.0780
" />
<path d="M0.6430 11.5430
L0.6530 11.5550
" />
<path d="M0.6430 15.5780
L0.6400 15.5810
" />
<path d="M0.6460 15.5740
L0.6430 15.5780
" />
</g>
<g style="fill:#000000; fill-opacity:1.0000; stroke:none;">
<circle cx="0.6460" cy="15.5740" r="0.0100" /> 
</g>
<g style="fill:none; 
stroke:#000000; stroke-width:0.0200; stroke-opacity:1; 
stroke-linecap:round; stroke-linejoin:round;">
<path d="M0.6490 15.9980
L0.6750 15.9940
" />
<path d="M0.6500 15.5710
L0.6460 15.5740
" />
<path d="M0.6530 3.0220
L0.6430 3.0350
" />
<path d="M0.6530 5.0260
L0.6650 5.0370
" />
<path d="M0.6530 10.0520
L0.6430 10.0650
" />
<path d="M0.6530 11.5550
L0.6650 11.5670
" />
<path d="M0.6530 15.5680
L0.6500 15.5710
" />
<path d="M0.6560 15.5640
L0.6530 15.5680
" />
<path d="M0.6590 15.5590
L0.6560 15.5640
" />
<path d="M0.6620 15.5550
L0.6590 15.5590
" />
<path d="M0.6650 3.0120
L0.6530 3.0220
" />
<path d="M0.6650 5.0370
L0.6750 5.0470
" />
<path d="M0.6650 10.0420
L0.6530 10.0520
" />
<path d="M0.6650 11.5670
L0.6760 11.5770
" />
<path d="M0.6650 15.5520
L0.6620 15.5550
" />
<path d="M0.6660 15.5460
L0.6650 15.5520
" />
<path d="M0.6690 15.5420
L0.6660 15.5460
" />
<path d="M0.6710 15.5380
L0.6690 15.5420
" />
<path d="M0.6720 15.5290
L0.6720 15.5330
" />
<path d="M0.6720 15.5330
L0.6710 15.5380
" />
<path d="M0.6750 15.5090
L0.6750 15.5130
" />
<path d="M0.6750 15.5130
L0.6750 15.5190
" />
<path d="M0.6750 15.5190
L0.6750 15.5230
" />
<path d="M0.6750 15.5230
L0.6720 15.5290
" />
<path d="M0.6750 15.9940
L0.6980 15.9880
" />
<path d="M0.6760 1.9140
L0.6760 1.8150
" />
<path d="M0.6760 1.9140
L0.6760 2.8150
" />
<path d="M0.6760 2.2860
L0.6760 2.3000
" />
<path d="M0.6760 2.3000
L0.6760 2.3150
" />
<path d="M0.6760 3.0000
L0.6650 3.0120
" />
<path d="M0.6760 3.1150
L0.6760 2.3150
" />
<path d="M0.6760 3.1150
L0.6760 15.3050
" />
<path d="M0.6760 10.0300
L0.6650 10.0420
" />
<path d="M0.6760 15.3050
L0.6760 15.5040
" />
<path d="M0.6760 15.5040
L0.6750 15.5090
" />
<path d="M0.6780 2.2720
L0.6760 2.2860
" />
<path d="M0.6790 2.2580
L0.6780 2.2720
" />
<path d="M0.6810 2.2430
L0.6790 2.2580
" />
<path d="M0.6810 3.1150
L0.6760 3.1150
" />
</g>
<g style="fill:#000000; fill-opacity:1.0000; stroke:none;">
<circle cx="0.6810" cy="3.1150" r="0.0100" /> 
</g>
<g style="fill:none; 
stroke:#000000; stroke-width:0.0200; stroke-opacity:1; 
stroke-linecap:round; stroke-linejoin:round;">
<path d="M0.6810 15.3050
L0.6760 15.3050
" />
</g>
<g style="fill:#000000; fill-opacity:1.0000; stroke:none;">
<circle cx="0.6810" cy="15.3050" r="0.0100" /> 
</g>
<g style="fill:none; 
stroke:#000000; stroke-width:0.0200; stroke-opacity:1; 
stroke-linecap:round; stroke-linejoin:round;">
<path d="M0.6840 2.2290
L0.6810 2.2430
" />
<path d="M0.6850 2.2160
L0.6840 2.2290
" />
<path d="M0.6880 2.2030
L0.6850 2.2160
" />
<path d="M0.6920 2.1880
L0.6880 2.2030
" />
<path d="M0.6940 3.1150
L0.6810 3.1150
" />
</g>
<g style="fill:#000000; fill-opacity:1.0000; stroke:none;">
<circle cx="0.6940" cy="3.1150" r="0.0100" /> 
</g>
<g style="fill:none; 
stroke:#000000; stroke-width:0.0200; stroke-opacity:1; 
stroke-linecap:round; stroke-linejoin:round;">
<path d="M0.6940 15.3050
L0.6810 15.3050
" />
</g>
<g style="fill:#000000; fill-opacity:1.0000; stroke:none;">
<circle cx="0.6940" cy="15.3050" r="0.0100" /> 
</g>
<g style="fill:none; 
stroke:#000000; stroke-width:0.0200; stroke-opacity:1; 
stroke-linecap:round; stroke-linejoin:round;">
<path d="M0.6950 2.1740
L0.6920 2.1880
" />
<path d="M0.6980 15.9880
L0.7210 15.9820
" />
<path d="M0.7000 2.1610
L0.6950 2.1740
" />
<path d="M0.7040 2.1490
L0.7000 2.1610
" />
<path d="M0.7100 2.1350
L0.7040 2.1490
" />
<path d="M0.7140 2.1210
L0.7100 2.1350
" />
<path d="M0.7160 3.1150
L0.6940 3.1150
" />
</g>
<g style="fill:#000000; fill-opacity:1.0000; stroke:none;">
<circle cx="0.7160" cy="3.1150" r="0.0100" /> 
</g>
<g style="fill:none; 
stroke:#000000; stroke-width:0.0200; stroke-opacity:1; 
stroke-linecap:round; stroke-linejoin:round;">
<path d="M0.7160 15.3050
L0.6940 15.3050
" />
</g>
<g style="fill:#000000; fill-opacity:1.0000; stroke:none;">
<circle cx="0.7160" cy="15.3050" r="0.0100" /> 
</g>
<g style="fill:none; 
stroke:#000000; stroke-width:0.0200; stroke-opacity:1; 
stroke-linecap:round; stroke-linejoin:round;">
<path d="M0.7200 2.1080
L0.7140 2.1210
" />
<path d="M0.7210 15.9820
L0.7450 15.9750
" />
<path d="M0.7260 1.6140
L0.7260 3.1150
" />
<path d="M0.7260 1.6140
L1.7260 1.6140
" />
<path d="M0.7260 1.8150
L0.6760 1.8150
" />
<path d="M0.7260 2.0960
L0.7200 2.1080
" />
<path d="M0.7450 15.9750
L0.7680 15.9650
" />
<path d="M0.7460 3.1150
L0.7160 3.1150
" />
</g>
<g style="fill:#000000; fill-opacity:1.0000; stroke:none;">
<circle cx="0.7460" cy="3.1150" r="0.0100" /> 
</g>
<g style="fill:none; 
stroke:#000000; stroke-width:0.0200; stroke-opacity:1; 
stroke-linecap:round; stroke-linejoin:round;">
<path d="M0.7460 15.3050
L0.7160 15.3050
" />
</g>
<g style="fill:#000000; fill-opacity:1.0000; stroke:none;">
<circle cx="0.7460" cy="15.3050" r="0.0100" /> 
</g>
<g style="fill:none; 
stroke:#000000; stroke-width:0.0200; stroke-opacity:1; 
stroke-linecap:round; stroke-linejoin:round;">
<path d="M0.7680 15.9650
L0.7900 15.9560
" />
<path d="M0.7900 15.9560
L0.8120 15.9460
" />
<path d="M0.8120 15.9460
L0.8320 15.9330
" />
<path d="M0.8290 3.1150
L0.7460 3.1150
" />
</g>
<g style="fill:#000000; fill-opacity:1.0000; stroke:none;">
<circle cx="0.8290" cy="3.1150" r="0.0100" /> 
</g>
<g style="fill:none; 
stroke:#000000; stroke-width:0.0200; stroke-opacity:1; 
stroke-linecap:round; stroke-linejoin:round;">
<path d="M0.8290 15.3050
L0.7460 15.3050
" />
</g>
<g style="fill:#000000; fill-opacity:1.0000; stroke:none;">
<circle cx="0.8290" cy="15.3050" r="0.0100" /> 
</g>
<g style="fill:none; 
stroke:#000000; stroke-width:0.0200; stroke-opacity:1; 
stroke-linecap:round; stroke-linejoin:round;">
<path d="M0.8320 15.9330
L0.8540 15.9200
" />
<path d="M0.8540 15.9200
L0.8740 15.9050
" />
<path d="M0.8740 15.9050
L0.8930 15.8910
" />
<path d="M0.8810 3.1150
L0.8290 3.1150
" />
</g>
<g style="fill:#000000; fill-opacity:1.0000; stroke:none;">
<circle cx="0.8810" cy="3.1150" r="0.0100" /> 
</g>
<g style="fill:none; 
stroke:#000000; stroke-width:0.0200; stroke-opacity:1; 
stroke-linecap:round; stroke-linejoin:round;">
<path d="M0.8810 15.3050
L0.8290 15.3050
" />
</g>
<g style="fill:#000000; fill-opacity:1.0000; stroke:none;">
<circle cx="0.8810" cy="15.3050" r="0.0100" /> 
</g>
<g style="fill:none; 
stroke:#000000; stroke-width:0.0200; stroke-opacity:1; 
stroke-linecap:round; stroke-linejoin:round;">
<path d="M0.8930 15.8910
L0.9120 15.8750
" />
<path d="M0.9120 15.8750
L0.9290 15.8570
" />
</g>
<g style="fill:#000000; fill-opacity:1.0000; stroke:none;">
<circle cx="0.9290" cy="15.8570" r="0.0100" /> 
</g>
<g style="fill:none; 
stroke:#000000; stroke-width:0.0200; stroke-opacity:1; 
stroke-linecap:round; stroke-linejoin:round;">
<path d="M0.9290 15.8570
L0.9470 15.8400
" />
<path d="M0.9470 15.8400
L0.9630 15.8210
" />
<path d="M0.9630 15.8210
L0.9770 15.8020
" />
<path d="M0.9770 15.8020
L0.9920 15.7820
" />
<path d="M0.9920 15.7820
L1.0050 15.7600
" />
<path d="M1.0050 15.7600
L1.0180 15.7400
" />
<path d="M1.0180 15.7400
L1.0280 15.7180
" />
<path d="M1.0280 15.7180
L1.0370 15.6960
" />
<path d="M1.0370 15.6960
L1.0470 15.6730
" />
<path d="M1.0470 15.6730
L1.0540 15.6500
" />
<path d="M1.0540 15.6500
L1.0600 15.6250
" />
<path d="M1.0600 15.6250
L1.0660 15.6030
" />
<path d="M1.0660 15.6030
L1.0700 15.5770
" />
<path d="M1.0700 15.5770
L1.0730 15.5540
" />
<path d="M1.0730 15.5540
L1.0760 15.5290
" />
<path d="M1.0760 15.5040
L1.0760 15.3050
" />
<path d="M1.0760 15.5290
L1.0760 15.5040
" />
<path d="M1.3770 3.1150
L0.8810 3.1150
" />
<path d="M1.3770 15.3050
L0.8810 15.3050
" />
<path d="M1.7260 1.6140
L1.7260 3.1150
" />
<path d="M1.7260 1.6140
L2.1270 1.6140
" />
<path d="M2.1270 1.6140
L2.1270 3.1150
" />
<path d="M2.1270 1.6140
L2.6760 1.6140
" />
<path d="M2.4760 15.3050
L1.3770 15.3050
" />
<path d="M2.4760 15.3050
L2.4760 15.5040
" />
<path d="M2.4760 15.5040
L2.4760 15.6040
" />
<path d="M2.4760 15.6040
L2.5630 15.6040
" />
<path d="M2.4760 16.0040
L2.4760 15.6040
" />
</g>
<g style="fill:#000000; fill-opacity:1.0000; stroke:none;">
<circle cx="2.5630" cy="15.6040" r="0.0100" /> 
</g>
<g style="fill:none; 
stroke:#000000; stroke-width:0.0200; stroke-opacity:1; 
stroke-linecap:round; stroke-linejoin:round;">
<path d="M2.5630 15.6040
L2.7770 15.6040
" />
<path d="M2.5630 16.0040
L2.4760 16.0040
" />
</g>
<g style="fill:#000000; fill-opacity:1.0000; stroke:none;">
<circle cx="2.5630" cy="16.0040" r="0.0100" /> 
</g>
<g style="fill:none; 
stroke:#000000; stroke-width:0.0200; stroke-opacity:1; 
stroke-linecap:round; stroke-linejoin:round;">
<path d="M2.6760 1.6140
L2.6760 2.0250
" />
<path d="M2.6760 2.0250
L15.5770 2.0250
" />
<path d="M2.7260 9.0740
L2.7260 9.0790
" />
<path d="M2.7260 9.0790
L2.7260 9.0840
" />
<path d="M2.7260 9.0840
L2.7260 11.3850
" />
<path d="M2.7260 9.9040
L2.8410 9.9040
" />
<path d="M2.7260 11.3850
L2.7260 11.3880
" />
<path d="M2.7260 11.3880
L2.7260 11.3940
" />
<path d="M2.7260 11.3940
L2.7270 11.3980
" />
<path d="M2.7270 9.0650
L2.7270 9.0700
" />
<path d="M2.7270 9.0700
L2.7260 9.0740
" />
<path d="M2.7270 11.3980
L2.7270 11.4040
" />
<path d="M2.7270 11.4040
L2.7300 11.4080
" />
<path d="M2.7300 9.0550
L2.7300 9.0600
" />
<path d="M2.7300 9.0600
L2.7270 9.0650
" />
<path d="M2.7300 11.4080
L2.7300 11.4140
" />
<path d="M2.7300 11.4140
L2.7320 11.4170
" />
<path d="M2.7320 9.0500
L2.7300 9.0550
" />
<path d="M2.7320 11.4170
L2.7330 11.4230
" />
<path d="M2.7330 9.0460
L2.7320 9.0500
" />
<path d="M2.7330 11.4230
L2.7360 11.4270
" />
<path d="M2.7360 9.0410
L2.7330 9.0460
" />
<path d="M2.7360 11.4270
L2.7370 11.4310
" />
<path d="M2.7370 9.0360
L2.7360 9.0410
" />
<path d="M2.7370 11.4310
L2.7400 11.4360
" />
<path d="M2.7400 9.0330
L2.7370 9.0360
" />
<path d="M2.7400 11.4360
L2.7420 11.4400
" />
<path d="M2.7420 9.0280
L2.7400 9.0330
" />
<path d="M2.7420 11.4400
L2.7460 11.4430
" />
<path d="M2.7460 9.0250
L2.7420 9.0280
" />
<path d="M2.7460 11.4430
L2.7490 11.4470
" />
<path d="M2.7490 9.0200
L2.7460 9.0250
" />
<path d="M2.7490 11.4470
L2.7520 11.4520
" />
<path d="M2.7520 9.0170
L2.7490 9.0200
" />
<path d="M2.7520 11.4520
L2.7550 11.4550
" />
<path d="M2.7550 9.0130
L2.7520 9.0170
" />
</g>
<g style="fill:#000000; fill-opacity:1.0000; stroke:none;">
<circle cx="2.7550" cy="9.0130" r="0.0100" /> 
<circle cx="2.7550" cy="11.4550" r="0.0100" /> 
</g>
<g style="fill:none; 
stroke:#000000; stroke-width:0.0200; stroke-opacity:1; 
stroke-linecap:round; stroke-linejoin:round;">
<path d="M2.7550 11.4550
L2.7580 11.4590
" />
<path d="M2.7580 9.0100
L2.7550 9.0130
" />
<path d="M2.7580 11.4590
L2.7620 11.4620
" />
<path d="M2.7620 9.0070
L2.7580 9.0100
" />
<path d="M2.7620 11.4620
L2.7670 11.4650
" />
<path d="M2.7670 9.0040
L2.7620 9.0070
" />
<path d="M2.7670 11.4650
L2.7710 11.4680
" />
<path d="M2.7710 9.0010
L2.7670 9.0040
" />
<path d="M2.7710 11.4680
L2.7740 11.4690
" />
<path d="M2.7740 8.9990
L2.7710 9.0010
" />
<path d="M2.7740 11.4690
L2.7780 11.4720
" />
<path d="M2.7770 15.6040
L16.3260 15.6040
" />
<path d="M2.7770 16.0040
L2.5630 16.0040
" />
<path d="M2.7770 16.0040
L16.3260 16.0040
" />
<path d="M2.7780 8.9960
L2.7740 8.9990
" />
<path d="M2.7780 11.4720
L2.7840 11.4750
" />
<path d="M2.7840 8.9940
L2.7780 8.9960
" />
<path d="M2.7840 11.4750
L2.7870 11.4760
" />
<path d="M2.7870 8.9910
L2.7840 8.9940
" />
<path d="M2.7870 11.4760
L2.7930 11.4780
" />
<path d="M2.7930 8.9890
L2.7870 8.9910
" />
<path d="M2.7930 11.4780
L2.7970 11.4790
" />
<path d="M2.7970 8.9880
L2.7930 8.9890
" />
<path d="M2.7970 11.4790
L2.8010 11.4810
" />
<path d="M2.8010 8.9880
L2.7970 8.9880
" />
<path d="M2.8010 11.4810
L2.8060 11.4820
" />
<path d="M2.8060 8.9860
L2.8010 8.9880
" />
<path d="M2.8060 11.4820
L2.8120 11.4820
" />
<path d="M2.8120 8.9860
L2.8060 8.9860
" />
<path d="M2.8120 11.4820
L2.8160 11.4840
" />
<path d="M2.8160 8.9850
L2.8120 8.9860
" />
<path d="M2.8160 11.4840
L2.8220 11.4840
" />
<path d="M2.8220 8.9850
L2.8160 8.9850
" />
<path d="M2.8220 11.4840
L2.8260 11.4850
" />
<path d="M2.8260 8.9850
L2.8220 8.9850
" />
<path d="M2.8260 11.4850
L3.4260 11.4850
" />
<path d="M2.8410 9.9040
L3.5270 9.9040
" />
<path d="M3.4260 8.9850
L2.8260 8.9850
" />
<path d="M3.4260 11.4850
L3.4310 11.4840
" />
<path d="M3.4310 8.9850
L3.4260 8.9850
" />
<path d="M3.4310 11.4840
L3.4350 11.4840
" />
<path d="M3.4350 8.9850
L3.4310 8.9850
" />
<path d="M3.4350 11.4840
L3.4410 11.4820
" />
<path d="M3.4410 8.9860
L3.4350 8.9850
" />
<path d="M3.4410 11.4820
L3.4450 11.4820
" />
<path d="M3.4450 8.9860
L3.4410 8.9860
" />
<path d="M3.4450 11.4820
L3.4510 11.4810
" />
<path d="M3.4510 8.9880
L3.4450 8.9860
" />
<path d="M3.4510 11.4810
L3.4560 11.4790
" />
<path d="M3.4560 8.9880
L3.4510 8.9880
" />
<path d="M3.4560 11.4790
L3.4600 11.4780
" />
<path d="M3.4600 8.9890
L3.4560 8.9880
" />
<path d="M3.4600 11.4780
L3.4640 11.4760
" />
<path d="M3.4640 8.9910
L3.4600 8.9890
" />
<path d="M3.4640 11.4760
L3.4690 11.4750
" />
<path d="M3.4690 8.9940
L3.4640 8.9910
" />
<path d="M3.4690 11.4750
L3.4730 11.4720
" />
<path d="M3.4730 8.9960
L3.4690 8.9940
" />
<path d="M3.4730 11.4720
L3.4770 11.4690
" />
<path d="M3.4770 8.9990
L3.4730 8.9960
" />
<path d="M3.4770 11.4690
L3.4820 11.4680
" />
<path d="M3.4820 9.0010
L3.4770 8.9990
" />
<path d="M3.4820 11.4680
L3.4860 11.4650
" />
<path d="M3.4860 9.0040
L3.4820 9.0010
" />
<path d="M3.4860 11.4650
L3.4890 11.4620
" />
<path d="M3.4890 9.0070
L3.4860 9.0040
" />
<path d="M3.4890 11.4620
L3.4930 11.4590
" />
<path d="M3.4930 9.0100
L3.4890 9.0070
" />
<path d="M3.4930 11.4590
L3.4960 11.4550
" />
<path d="M3.4960 9.0130
L3.4930 9.0100
" />
</g>
<g style="fill:#000000; fill-opacity:1.0000; stroke:none;">
<circle cx="3.4960" cy="9.0130" r="0.0100" /> 
<circle cx="3.4960" cy="11.4550" r="0.0100" /> 
</g>
<g style="fill:none; 
stroke:#000000; stroke-width:0.0200; stroke-opacity:1; 
stroke-linecap:round; stroke-linejoin:round;">
<path d="M3.4960 11.4550
L3.5010 11.4520
" />
<path d="M3.5010 9.0170
L3.4960 9.0130
" />
<path d="M3.5010 11.4520
L3.5030 11.4470
" />
<path d="M3.5030 9.0200
L3.5010 9.0170
" />
<path d="M3.5030 11.4470
L3.5060 11.4430
" />
<path d="M3.5060 9.0250
L3.5030 9.0200
" />
<path d="M3.5060 11.4430
L3.5090 11.4400
" />
<path d="M3.5090 9.0280
L3.5060 9.0250
" />
<path d="M3.5090 11.4400
L3.5120 11.4360
" />
<path d="M3.5120 9.0330
L3.5090 9.0280
" />
<path d="M3.5120 11.4360
L3.5150 11.4310
" />
<path d="M3.5150 9.0360
L3.5120 9.0330
" />
<path d="M3.5150 11.4310
L3.5170 11.4270
" />
<path d="M3.5170 9.0410
L3.5150 9.0360
" />
<path d="M3.5170 11.4270
L3.5180 11.4230
" />
<path d="M3.5180 9.0460
L3.5170 9.0410
" />
<path d="M3.5180 11.4230
L3.5210 11.4170
" />
<path d="M3.5210 9.0500
L3.5180 9.0460
" />
<path d="M3.5210 9.0550
L3.5210 9.0500
" />
<path d="M3.5210 11.4140
L3.5220 11.4080
" />
<path d="M3.5210 11.4170
L3.5210 11.4140
" />
<path d="M3.5220 9.0600
L3.5210 9.0550
" />
<path d="M3.5220 11.4080
L3.5240 11.4040
" />
<path d="M3.5240 9.0650
L3.5220 9.0600
" />
<path d="M3.5240 9.0700
L3.5240 9.0650
" />
<path d="M3.5240 11.3980
L3.5250 11.3940
" />
<path d="M3.5240 11.4040
L3.5240 11.3980
" />
<path d="M3.5250 9.0740
L3.5240 9.0700
" />
<path d="M3.5250 9.0790
L3.5250 9.0740
" />
<path d="M3.5250 11.3880
L3.5270 11.3850
" />
<path d="M3.5250 11.3940
L3.5250 11.3880
" />
<path d="M3.5270 9.0840
L3.5250 9.0790
" />
<path d="M3.5270 11.3850
L3.5270 9.0840
" />
<path d="M4.9510 8.4880
L4.9510 8.4960
" />
<path d="M4.9510 8.4960
L4.9510 8.5040
" />
<path d="M4.9510 8.5040
L4.9510 12.5040
" />
<path d="M4.9510 12.5040
L4.9510 12.5290
" />
<path d="M4.9510 12.5290
L4.9540 12.5540
" />
<path d="M4.9530 8.4800
L4.9510 8.4880
" />
<path d="M4.9540 8.4620
L4.9540 8.4700
" />
<path d="M4.9540 8.4700
L4.9530 8.4800
" />
<path d="M4.9540 12.5540
L4.9570 12.5770
" />
<path d="M4.9560 8.4540
L4.9540 8.4620
" />
<path d="M4.9570 8.4460
L4.9560 8.4540
" />
<path d="M4.9570 12.5770
L4.9600 12.6030
" />
<path d="M4.9600 8.4380
L4.9570 8.4460
" />
<path d="M4.9600 12.6030
L4.9670 12.6260
" />
<path d="M4.9610 8.4300
L4.9600 8.4380
" />
<path d="M4.9640 8.4240
L4.9610 8.4300
" />
<path d="M4.9670 8.4160
L4.9640 8.4240
" />
<path d="M4.9670 12.6260
L4.9730 12.6490
" />
<path d="M4.9700 8.4080
L4.9670 8.4160
" />
<path d="M4.9730 8.4010
L4.9700 8.4080
" />
<path d="M4.9730 12.6490
L4.9800 12.6730
" />
<path d="M4.9760 8.3930
L4.9730 8.4010
" />
<path d="M4.9800 8.3870
L4.9760 8.3930
" />
<path d="M4.9800 12.6730
L4.9890 12.6960
" />
<path d="M4.9850 8.3790
L4.9800 8.3870
" />
<path d="M4.9890 8.3720
L4.9850 8.3790
" />
<path d="M4.9890 12.6960
L4.9990 12.7180
" />
<path d="M4.9930 8.3660
L4.9890 8.3720
" />
<path d="M4.9980 8.3580
L4.9930 8.3660
" />
<path d="M4.9990 12.7180
L5.0090 12.7400
" />
<path d="M5.0020 8.3530
L4.9980 8.3580
" />
<path d="M5.0080 8.3450
L5.0020 8.3530
" />
<path d="M5.0090 12.7400
L5.0210 12.7600
" />
<path d="M5.0120 8.3390
L5.0080 8.3450
" />
<path d="M5.0180 8.3340
L5.0120 8.3390
" />
<path d="M5.0210 12.7600
L5.0350 12.7820
" />
<path d="M5.0240 8.3280
L5.0180 8.3340
" />
<path d="M5.0270 1.1150
L5.0270 2.0250
" />
<path d="M5.0300 8.3210
L5.0240 8.3280
" />
<path d="M5.0350 8.3160
L5.0300 8.3210
" />
<path d="M5.0350 12.7820
L5.0500 12.8020
" />
<path d="M5.0410 8.3120
L5.0350 8.3160
" />
<path d="M5.0490 8.3050
L5.0410 8.3120
" />
<path d="M5.0500 12.8020
L5.0650 12.8210
" />
<path d="M5.0560 8.3020
L5.0490 8.3050
" />
<path d="M5.0620 8.2970
L5.0560 8.3020
" />
<path d="M5.0650 12.8210
L5.0810 12.8400
" />
<path d="M5.0690 8.2910
L5.0620 8.2970
" />
<path d="M5.0760 8.2880
L5.0690 8.2910
" />
</g>
<g style="fill:#000000; fill-opacity:1.0000; stroke:none;">
<circle cx="5.0760" cy="8.2880" r="0.0100" /> 
</g>
<g style="fill:none; 
stroke:#000000; stroke-width:0.0200; stroke-opacity:1; 
stroke-linecap:round; stroke-linejoin:round;">
<path d="M5.0810 12.8400
L5.0980 12.8570
" />
<path d="M5.0910 8.2800
L5.0760 8.2880
" />
</g>
<g style="fill:#000000; fill-opacity:1.0000; stroke:none;">
<circle cx="5.0980" cy="12.8570" r="0.0100" /> 
</g>
<g style="fill:none; 
stroke:#000000; stroke-width:0.0200; stroke-opacity:1; 
stroke-linecap:round; stroke-linejoin:round;">
<path d="M5.0980 12.8570
L5.1150 12.8750
" />
<path d="M5.1050 8.2730
L5.0910 8.2800
" />
<path d="M5.1150 12.8750
L5.1340 12.8910
" />
<path d="M5.1210 8.2680
L5.1050 8.2730
" />
<path d="M5.1340 12.8910
L5.1530 12.9050
" />
<path d="M5.1360 8.2620
L5.1210 8.2680
" />
<path d="M5.1520 8.2590
L5.1360 8.2620
" />
<path d="M5.1530 12.9050
L5.1740 12.9200
" />
<path d="M5.1690 8.2570
L5.1520 8.2590
" />
<path d="M5.1720 12.9180
L5.1720 11.7630
" />
<path d="M5.1740 12.9200
L5.1940 12.9330
" />
<path d="M5.1850 8.2540
L5.1690 8.2570
" />
<path d="M5.1940 12.9330
L5.2160 12.9460
" />
<path d="M5.2010 8.2540
L5.1850 8.2540
" />
<path d="M5.2160 12.9460
L5.2380 12.9560
" />
<path d="M5.2170 8.2540
L5.2010 8.2540
" />
<path d="M5.2260 1.1150
L5.0270 1.1150
" />
<path d="M5.2260 1.1150
L5.2260 2.0250
" />
<path d="M5.2330 8.2570
L5.2170 8.2540
" />
<path d="M5.2380 12.9560
L5.2590 12.9650
" />
<path d="M5.2490 8.2590
L5.2330 8.2570
" />
<path d="M5.2590 12.9650
L5.2830 12.9750
" />
<path d="M5.2650 8.2620
L5.2490 8.2590
" />
<path d="M5.2810 8.2680
L5.2650 8.2620
" />
<path d="M5.2830 12.9750
L5.3060 12.9820
" />
<path d="M5.2970 8.2730
L5.2810 8.2680
" />
<path d="M5.3060 12.9820
L5.3290 12.9880
" />
<path d="M5.3120 8.2800
L5.2970 8.2730
" />
<path d="M5.3260 8.2880
L5.3120 8.2800
" />
</g>
<g style="fill:#000000; fill-opacity:1.0000; stroke:none;">
<circle cx="5.3260" cy="8.2880" r="0.0100" /> 
</g>
<g style="fill:none; 
stroke:#000000; stroke-width:0.0200; stroke-opacity:1; 
stroke-linecap:round; stroke-linejoin:round;">
<path d="M5.3290 12.9880
L5.3520 12.9940
" />
<path d="M5.3410 8.2970
L5.3260 8.2880
" />
<path d="M5.3520 12.9940
L5.3770 12.9980
" />
<path d="M5.3540 8.3050
L5.3410 8.2970
" />
<path d="M5.3670 8.3160
L5.3540 8.3050
" />
<path d="M5.3770 8.3260
L5.3770 11.5650
" />
<path d="M5.3770 11.5650
L4.9510 11.5650
" />
<path d="M5.3770 11.5650
L5.3770 11.7050
" />
<path d="M5.3770 11.7050
L5.6420 11.7050
" />
<path d="M5.3770 12.9980
L5.4020 13.0010
" />
<path d="M5.3790 8.3280
L5.3670 8.3160
" />
<path d="M5.3900 8.3390
L5.3790 8.3280
" />
<path d="M5.3990 8.3530
L5.3900 8.3390
" />
<path d="M5.4020 8.3550
L5.4020 10.7150
" />
<path d="M5.4020 10.7150
L5.4020 11.1580
" />
<path d="M5.4020 10.7150
L5.6010 10.7150
" />
<path d="M5.4020 11.1580
L5.4020 11.2150
" />
<path d="M5.4020 11.2150
L5.6420 11.2150
" />
<path d="M5.4020 13.0010
L5.4260 13.0040
" />
<path d="M5.4090 8.3660
L5.3990 8.3530
" />
<path d="M5.4180 8.3790
L5.4090 8.3660
" />
<path d="M5.4250 8.3930
L5.4180 8.3790
" />
<path d="M5.4260 13.0040
L5.4510 13.0040
" />
<path d="M5.4310 8.4080
L5.4250 8.3930
" />
<path d="M5.4380 8.4240
L5.4310 8.4080
" />
<path d="M5.4410 8.5550
L5.4410 8.6530
" />
<path d="M5.4410 8.6530
L5.4410 8.7650
" />
<path d="M5.4420 8.4380
L5.4380 8.4240
" />
<path d="M5.4470 8.4540
L5.4420 8.4380
" />
<path d="M5.4480 8.4700
L5.4470 8.4540
" />
<path d="M5.4510 8.4880
L5.4480 8.4700
" />
<path d="M5.4510 8.5040
L5.4510 8.4880
" />
<path d="M5.4510 8.5550
L5.4410 8.5550
" />
<path d="M5.4510 8.5550
L5.4510 8.5040
" />
<path d="M5.4510 13.0040
L7.0420 13.0040
" />
<path d="M5.5170 1.1250
L5.5170 2.0250
" />
<path d="M5.6390 11.1860
L5.4410 8.7650
" />
<path d="M5.6390 11.1860
L5.6420 11.2150
" />
<path d="M5.6420 11.2150
L5.6420 11.2830
" />
<path d="M5.6420 11.6550
L5.6420 11.2830
" />
<path d="M5.6420 11.6550
L5.6420 12.2630
" />
<path d="M5.6420 11.7630
L4.9510 11.7630
" />
<path d="M5.6420 12.2630
L5.6420 12.4140
" />
<path d="M5.6720 12.4140
L5.6720 13.0040
" />
<path d="M5.7360 1.1250
L5.5170 1.1250
" />
<path d="M5.7360 1.1250
L5.7360 2.0250
" />
<path d="M6.0270 2.0250
L6.0270 1.1150
" />
<path d="M6.2260 1.1150
L6.0270 1.1150
" />
<path d="M6.2260 2.0250
L6.2260 1.1150
" />
<path d="M6.5170 1.1250
L6.5170 2.0250
" />
<path d="M6.6720 12.6540
L6.6720 13.0040
" />
<path d="M6.6840 12.4140
L6.6720 12.6540
" />
<path d="M6.7360 1.1250
L6.5170 1.1250
" />
<path d="M6.7360 1.1250
L6.7360 2.0250
" />
<path d="M6.8420 11.2150
L6.8420 11.2830
" />
<path d="M6.8420 11.2150
L6.8510 11.2150
" />
<path d="M6.8420 11.6550
L6.8420 11.2830
" />
<path d="M6.8420 11.6550
L6.8420 12.2630
" />
<path d="M6.8420 11.7050
L6.8770 11.7050
" />
<path d="M6.8420 12.2630
L5.6420 12.2630
" />
<path d="M6.8420 12.2630
L6.8420 12.4140
" />
<path d="M6.8420 12.4140
L5.6420 12.4140
" />
<path d="M6.8430 11.1860
L6.8420 11.2150
" />
<path d="M6.8430 11.1860
L7.0420 8.7650
" />
<path d="M6.8510 11.0910
L6.8510 11.1580
" />
<path d="M6.8510 11.1580
L6.8510 11.2150
" />
<path d="M6.8770 10.7860
L6.8770 11.5650
" />
<path d="M6.8770 11.5650
L6.8770 11.7050
" />
<path d="M7.0260 2.0250
L7.0260 1.1150
" />
<path d="M7.0420 8.4800
L7.0420 8.4880
" />
<path d="M7.0420 8.4880
L7.0420 8.4960
" />
<path d="M7.0420 8.4960
L7.0420 8.5040
" />
<path d="M7.0420 8.5040
L7.0420 8.6530
" />
<path d="M7.0420 8.6530
L5.4410 8.6530
" />
<path d="M7.0420 8.6530
L7.0420 8.7650
" />
<path d="M7.0420 13.0040
L7.0660 13.0040
" />
<path d="M7.0430 8.4700
L7.0420 8.4800
" />
<path d="M7.0450 8.4540
L7.0450 8.4620
" />
<path d="M7.0450 8.4620
L7.0430 8.4700
" />
<path d="M7.0480 8.4460
L7.0450 8.4540
" />
<path d="M7.0500 8.4380
L7.0480 8.4460
" />
<path d="M7.0510 8.4300
L7.0500 8.4380
" />
<path d="M7.0550 8.4240
L7.0510 8.4300
" />
<path d="M7.0580 8.4160
L7.0550 8.4240
" />
<path d="M7.0610 8.4080
L7.0580 8.4160
" />
<path d="M7.0640 8.4010
L7.0610 8.4080
" />
<path d="M7.0660 8.3930
L7.0640 8.4010
" />
<path d="M7.0660 13.0040
L7.0900 13.0010
" />
<path d="M7.0710 8.3870
L7.0660 8.3930
" />
<path d="M7.0740 8.3790
L7.0710 8.3870
" />
<path d="M7.0790 8.3720
L7.0740 8.3790
" />
<path d="M7.0840 8.3660
L7.0790 8.3720
" />
<path d="M7.0870 8.3580
L7.0840 8.3660
" />
<path d="M7.0900 13.0010
L7.1140 12.9980
" />
<path d="M7.0930 8.3530
L7.0870 8.3580
" />
<path d="M7.0980 8.3450
L7.0930 8.3530
" />
<path d="M7.1030 8.3390
L7.0980 8.3450
" />
<path d="M7.1090 8.3340
L7.1030 8.3390
" />
<path d="M7.1140 8.3280
L7.1090 8.3340
" />
<path d="M7.1140 12.9980
L7.1400 12.9940
" />
<path d="M7.1190 8.3210
L7.1140 8.3280
" />
<path d="M7.1250 8.3160
L7.1190 8.3210
" />
<path d="M7.1320 8.3120
L7.1250 8.3160
" />
<path d="M7.1380 8.3050
L7.1320 8.3120
" />
<path d="M7.1400 12.9940
L7.1620 12.9880
" />
<path d="M7.1460 8.3020
L7.1380 8.3050
" />
<path d="M7.1510 8.2970
L7.1460 8.3020
" />
<path d="M7.1590 8.2910
L7.1510 8.2970
" />
<path d="M7.1620 12.9880
L7.1860 12.9820
" />
<path d="M7.1670 8.2880
L7.1590 8.2910
" />
</g>
<g style="fill:#000000; fill-opacity:1.0000; stroke:none;">
<circle cx="7.1670" cy="8.2880" r="0.0100" /> 
</g>
<g style="fill:none; 
stroke:#000000; stroke-width:0.0200; stroke-opacity:1; 
stroke-linecap:round; stroke-linejoin:round;">
<path d="M7.1810 8.2800
L7.1670 8.2880
" />
<path d="M7.1860 12.9820
L7.2100 12.9750
" />
<path d="M7.1960 8.2730
L7.1810 8.2800
" />
<path d="M7.2100 12.9750
L7.2330 12.9650
" />
<path d="M7.2120 8.2680
L7.1960 8.2730
" />
<path d="M7.2260 1.1150
L7.0260 1.1150
" />
<path d="M7.2260 2.0250
L7.2260 1.1150
" />
<path d="M7.2260 8.2620
L7.2120 8.2680
" />
<path d="M7.2330 12.9650
L7.2550 12.9560
" />
<path d="M7.2420 8.2590
L7.2260 8.2620
" />
<path d="M7.2550 12.9560
L7.2760 12.9460
" />
<path d="M7.2580 8.2570
L7.2420 8.2590
" />
<path d="M7.2660 12.7050
L7.2660 12.9500
" />
<path d="M7.2740 8.2540
L7.2580 8.2570
" />
<path d="M7.2760 12.9460
L7.2980 12.9330
" />
<path d="M7.2840 11.7630
L7.2660 12.7050
" />
<path d="M7.2920 8.2540
L7.2740 8.2540
" />
<path d="M7.2980 12.9330
L7.3190 12.9200
" />
<path d="M7.3080 8.2540
L7.2920 8.2540
" />
<path d="M7.3190 12.9200
L7.3380 12.9050
" />
<path d="M7.3240 8.2570
L7.3080 8.2540
" />
<path d="M7.3380 12.9050
L7.3580 12.8910
" />
<path d="M7.3400 8.2590
L7.3240 8.2570
" />
<path d="M7.3560 8.2620
L7.3400 8.2590
" />
<path d="M7.3580 12.8910
L7.3770 12.8750
" />
<path d="M7.3700 8.2680
L7.3560 8.2620
" />
<path d="M7.3770 8.2680
L7.3770 11.5650
" />
<path d="M7.3770 11.5650
L6.8770 11.5650
" />
<path d="M7.3770 11.5650
L7.3770 11.7050
" />
<path d="M7.3770 11.7050
L7.5420 11.7050
" />
<path d="M7.3770 12.8750
L7.3940 12.8570
" />
<path d="M7.3860 8.2730
L7.3700 8.2680
" />
</g>
<g style="fill:#000000; fill-opacity:1.0000; stroke:none;">
<circle cx="7.3940" cy="12.8570" r="0.0100" /> 
</g>
<g style="fill:none; 
stroke:#000000; stroke-width:0.0200; stroke-opacity:1; 
stroke-linecap:round; stroke-linejoin:round;">
<path d="M7.3940 12.8570
L7.4120 12.8400
" />
<path d="M7.4010 8.2800
L7.3860 8.2730
" />
<path d="M7.4010 8.2800
L7.4010 10.7150
" />
<path d="M7.4010 10.7150
L7.4010 11.1580
" />
<path d="M7.4010 10.7150
L7.5420 10.7150
" />
<path d="M7.4010 11.1580
L7.4010 11.2150
" />
<path d="M7.4010 11.2150
L7.5420 11.2150
" />
<path d="M7.4120 12.8400
L7.4280 12.8210
" />
<path d="M7.4170 8.2880
L7.4010 8.2800
" />
</g>
<g style="fill:#000000; fill-opacity:1.0000; stroke:none;">
<circle cx="7.4170" cy="8.2880" r="0.0100" /> 
</g>
<g style="fill:none; 
stroke:#000000; stroke-width:0.0200; stroke-opacity:1; 
stroke-linecap:round; stroke-linejoin:round;">
<path d="M7.4280 12.8210
L7.4420 12.8020
" />
<path d="M7.4310 8.2970
L7.4170 8.2880
" />
<path d="M7.4420 12.8020
L7.4570 12.7820
" />
<path d="M7.4440 8.3050
L7.4310 8.2970
" />
<path d="M7.4570 8.3160
L7.4440 8.3050
" />
<path d="M7.4570 12.7820
L7.4700 12.7600
" />
<path d="M7.4680 8.3280
L7.4570 8.3160
" />
<path d="M7.4700 12.7600
L7.4830 12.7400
" />
<path d="M7.4790 8.3390
L7.4680 8.3280
" />
<path d="M7.4830 12.7400
L7.4940 12.7180
" />
<path d="M7.4890 8.3530
L7.4790 8.3390
" />
<path d="M7.4940 12.7180
L7.5020 12.6960
" />
<path d="M7.4990 8.3660
L7.4890 8.3530
" />
<path d="M7.5020 12.6960
L7.5110 12.6730
" />
<path d="M7.5080 8.3790
L7.4990 8.3660
" />
<path d="M7.5110 12.6730
L7.5190 12.6490
" />
<path d="M7.5160 1.1250
L7.5160 2.0250
" />
<path d="M7.5160 8.3930
L7.5080 8.3790
" />
<path d="M7.5190 12.6490
L7.5260 12.6260
" />
<path d="M7.5210 8.4080
L7.5160 8.3930
" />
<path d="M7.5260 12.6260
L7.5320 12.6030
" />
<path d="M7.5270 8.4240
L7.5210 8.4080
" />
<path d="M7.5320 8.4380
L7.5270 8.4240
" />
<path d="M7.5320 12.6030
L7.5350 12.5770
" />
<path d="M7.5350 12.5770
L7.5390 12.5540
" />
<path d="M7.5370 8.4540
L7.5320 8.4380
" />
<path d="M7.5390 8.4700
L7.5370 8.4540
" />
<path d="M7.5390 12.5540
L7.5400 12.5290
" />
<path d="M7.5400 8.4880
L7.5390 8.4700
" />
<path d="M7.5400 12.5290
L7.5420 12.5040
" />
<path d="M7.5420 8.5040
L7.5400 8.4880
" />
<path d="M7.5420 11.7630
L6.8420 11.7630
" />
<path d="M7.5420 12.5040
L7.5420 8.5040
" />
<path d="M7.7360 1.1250
L7.5160 1.1250
" />
<path d="M7.7360 1.1250
L7.7360 2.0250
" />
<path d="M8.0260 2.0250
L8.0260 1.1150
" />
<path d="M8.2260 1.1150
L8.0260 1.1150
" />
<path d="M8.2260 2.0250
L8.2260 1.1150
" />
<path d="M8.5160 1.1250
L8.5160 2.0250
" />
<path d="M8.7370 1.1250
L8.5160 1.1250
" />
<path d="M8.7370 1.1250
L8.7370 2.0250
" />
<path d="M9.0260 2.0250
L9.0260 1.1150
" />
<path d="M9.2260 1.1150
L9.0260 1.1150
" />
<path d="M9.2260 2.0250
L9.2260 1.1150
" />
<path d="M9.5160 1.1250
L9.5160 2.0250
" />
<path d="M9.7370 1.1250
L9.5160 1.1250
" />
<path d="M9.7370 1.1250
L9.7370 2.0250
" />
<path d="M10.0260 2.0250
L10.0260 1.1150
" />
<path d="M10.2260 1.1150
L10.0260 1.1150
" />
<path d="M10.2260 2.0250
L10.2260 1.1150
" />
<path d="M10.5160 1.1250
L10.5160 2.0250
" />
<path d="M10.7120 8.4800
L10.7120 8.4880
" />
<path d="M10.7120 8.4880
L10.7120 8.4960
" />
<path d="M10.7120 8.4960
L10.7120 8.5040
" />
<path d="M10.7120 8.5040
L10.7120 12.5040
" />
<path d="M10.7120 10.7150
L10.8520 10.7150
" />
<path d="M10.7120 11.2150
L10.8520 11.2150
" />
<path d="M10.7120 11.7050
L10.8770 11.7050
" />
<path d="M10.7120 12.5040
L10.7120 12.5290
" />
<path d="M10.7120 12.5290
L10.7130 12.5540
" />
<path d="M10.7130 8.4700
L10.7120 8.4800
" />
<path d="M10.7130 12.5540
L10.7160 12.5770
" />
<path d="M10.7150 8.4620
L10.7130 8.4700
" />
<path d="M10.7160 8.4540
L10.7150 8.4620
" />
<path d="M10.7160 12.5770
L10.7200 12.6030
" />
<path d="M10.7170 8.4460
L10.7160 8.4540
" />
<path d="M10.7200 8.4380
L10.7170 8.4460
" />
<path d="M10.7200 12.6030
L10.7270 12.6260
" />
<path d="M10.7210 8.4300
L10.7200 8.4380
" />
<path d="M10.7240 8.4240
L10.7210 8.4300
" />
<path d="M10.7270 12.6260
L10.7320 12.6490
" />
<path d="M10.7280 8.4160
L10.7240 8.4240
" />
<path d="M10.7310 8.4080
L10.7280 8.4160
" />
<path d="M10.7320 12.6490
L10.7400 12.6730
" />
<path d="M10.7330 8.4010
L10.7310 8.4080
" />
<path d="M10.7360 1.1250
L10.5160 1.1250
" />
<path d="M10.7360 1.1250
L10.7360 2.0250
" />
<path d="M10.7360 8.3930
L10.7330 8.4010
" />
<path d="M10.7400 8.3870
L10.7360 8.3930
" />
<path d="M10.7400 12.6730
L10.7490 12.6960
" />
<path d="M10.7440 8.3790
L10.7400 8.3870
" />
<path d="M10.7480 8.3720
L10.7440 8.3790
" />
<path d="M10.7490 12.6960
L10.7590 12.7180
" />
<path d="M10.7530 8.3660
L10.7480 8.3720
" />
<path d="M10.7570 8.3580
L10.7530 8.3660
" />
<path d="M10.7590 12.7180
L10.7690 12.7400
" />
<path d="M10.7630 8.3530
L10.7570 8.3580
" />
<path d="M10.7680 8.3450
L10.7630 8.3530
" />
<path d="M10.7690 12.7400
L10.7810 12.7600
" />
<path d="M10.7720 8.3390
L10.7680 8.3450
" />
<path d="M10.7790 8.3340
L10.7720 8.3390
" />
<path d="M10.7810 12.7600
L10.7960 12.7820
" />
<path d="M10.7840 8.3280
L10.7790 8.3340
" />
<path d="M10.7890 8.3210
L10.7840 8.3280
" />
<path d="M10.7960 8.3160
L10.7890 8.3210
" />
<path d="M10.7960 12.7820
L10.8090 12.8020
" />
<path d="M10.8010 8.3120
L10.7960 8.3160
" />
<path d="M10.8090 8.3050
L10.8010 8.3120
" />
<path d="M10.8090 12.8020
L10.8250 12.8210
" />
<path d="M10.8160 8.3020
L10.8090 8.3050
" />
<path d="M10.8210 8.2970
L10.8160 8.3020
" />
<path d="M10.8250 12.8210
L10.8410 12.8400
" />
<path d="M10.8290 8.2910
L10.8210 8.2970
" />
<path d="M10.8370 8.2880
L10.8290 8.2910
" />
</g>
<g style="fill:#000000; fill-opacity:1.0000; stroke:none;">
<circle cx="10.8370" cy="8.2880" r="0.0100" /> 
</g>
<g style="fill:none; 
stroke:#000000; stroke-width:0.0200; stroke-opacity:1; 
stroke-linecap:round; stroke-linejoin:round;">
<path d="M10.8410 12.8400
L10.8570 12.8570
" />
<path d="M10.8500 8.2800
L10.8370 8.2880
" />
<path d="M10.8520 8.2800
L10.8520 10.7150
" />
<path d="M10.8520 10.7150
L10.8520 11.1580
" />
<path d="M10.8520 11.1580
L10.8520 11.2150
" />
</g>
<g style="fill:#000000; fill-opacity:1.0000; stroke:none;">
<circle cx="10.8570" cy="12.8570" r="0.0100" /> 
</g>
<g style="fill:none; 
stroke:#000000; stroke-width:0.0200; stroke-opacity:1; 
stroke-linecap:round; stroke-linejoin:round;">
<path d="M10.8570 12.8570
L10.8760 12.8750
" />
<path d="M10.8650 8.2730
L10.8500 8.2800
" />
<path d="M10.8760 12.8750
L10.8940 12.8910
" />
<path d="M10.8770 8.2680
L10.8770 11.5650
" />
<path d="M10.8770 11.5650
L10.8770 11.7050
" />
<path d="M10.8810 8.2680
L10.8650 8.2730
" />
<path d="M10.8940 12.8910
L10.9130 12.9050
" />
<path d="M10.8970 8.2620
L10.8810 8.2680
" />
<path d="M10.9130 8.2590
L10.8970 8.2620
" />
<path d="M10.9130 12.9050
L10.9340 12.9200
" />
<path d="M10.9290 8.2570
L10.9130 8.2590
" />
<path d="M10.9340 12.9200
L10.9540 12.9330
" />
<path d="M10.9450 8.2540
L10.9290 8.2570
" />
<path d="M10.9540 12.9330
L10.9750 12.9460
" />
<path d="M10.9620 8.2540
L10.9450 8.2540
" />
<path d="M10.9750 12.9460
L10.9980 12.9560
" />
<path d="M10.9780 8.2540
L10.9620 8.2540
" />
<path d="M10.9860 12.7050
L10.9670 11.7630
" />
<path d="M10.9860 12.9500
L10.9860 12.7050
" />
<path d="M10.9940 8.2570
L10.9780 8.2540
" />
<path d="M10.9980 12.9560
L11.0190 12.9650
" />
<path d="M11.0100 8.2590
L10.9940 8.2570
" />
<path d="M11.0190 12.9650
L11.0430 12.9750
" />
<path d="M11.0260 2.0250
L11.0260 1.1150
" />
<path d="M11.0260 8.2620
L11.0100 8.2590
" />
<path d="M11.0410 8.2680
L11.0260 8.2620
" />
<path d="M11.0430 12.9750
L11.0660 12.9820
" />
<path d="M11.0560 8.2730
L11.0410 8.2680
" />
<path d="M11.0660 12.9820
L11.0900 12.9880
" />
<path d="M11.0710 8.2800
L11.0560 8.2730
" />
<path d="M11.0870 8.2880
L11.0710 8.2800
" />
</g>
<g style="fill:#000000; fill-opacity:1.0000; stroke:none;">
<circle cx="11.0870" cy="8.2880" r="0.0100" /> 
</g>
<g style="fill:none; 
stroke:#000000; stroke-width:0.0200; stroke-opacity:1; 
stroke-linecap:round; stroke-linejoin:round;">
<path d="M11.0900 12.9880
L11.1120 12.9940
" />
<path d="M11.1000 8.2970
L11.0870 8.2880
" />
<path d="M11.1120 12.9940
L11.1380 12.9980
" />
<path d="M11.1140 8.3050
L11.1000 8.2970
" />
<path d="M11.1270 8.3160
L11.1140 8.3050
" />
<path d="M11.1380 12.9980
L11.1620 13.0010
" />
<path d="M11.1390 8.3280
L11.1270 8.3160
" />
<path d="M11.1500 8.3390
L11.1390 8.3280
" />
<path d="M11.1590 8.3530
L11.1500 8.3390
" />
<path d="M11.1620 13.0010
L11.1870 13.0040
" />
<path d="M11.1680 8.3660
L11.1590 8.3530
" />
<path d="M11.1770 8.3790
L11.1680 8.3660
" />
<path d="M11.1850 8.3930
L11.1770 8.3790
" />
<path d="M11.1870 13.0040
L11.2120 13.0040
" />
<path d="M11.1920 8.4080
L11.1850 8.3930
" />
<path d="M11.1970 8.4240
L11.1920 8.4080
" />
<path d="M11.2030 8.4380
L11.1970 8.4240
" />
<path d="M11.2070 8.4540
L11.2030 8.4380
" />
<path d="M11.2080 8.4700
L11.2070 8.4540
" />
<path d="M11.2110 8.4880
L11.2080 8.4700
" />
<path d="M11.2120 8.5040
L11.2110 8.4880
" />
<path d="M11.2120 8.6530
L11.2120 8.5040
" />
<path d="M11.2120 8.6530
L11.2120 8.7650
" />
<path d="M11.2120 8.6530
L12.8120 8.6530
" />
<path d="M11.2120 13.0040
L12.8000 13.0040
" />
<path d="M11.2270 1.1150
L11.0260 1.1150
" />
<path d="M11.2270 2.0250
L11.2270 1.1150
" />
<path d="M11.3770 10.7860
L11.3770 11.5650
" />
<path d="M11.3770 11.5650
L10.8770 11.5650
" />
<path d="M11.3770 11.5650
L11.3770 11.7050
" />
<path d="M11.3770 11.7050
L11.4120 11.7050
" />
<path d="M11.4010 11.0910
L11.4010 11.1580
" />
<path d="M11.4010 11.1580
L11.4010 11.2150
" />
<path d="M11.4010 11.2150
L11.4120 11.2150
" />
<path d="M11.4090 11.1860
L11.2120 8.7650
" />
<path d="M11.4090 11.1860
L11.4120 11.2150
" />
<path d="M11.4120 11.2150
L11.4120 11.2830
" />
<path d="M11.4120 11.6550
L11.4120 11.2830
" />
<path d="M11.4120 11.6550
L11.4120 12.2630
" />
<path d="M11.4120 11.7630
L10.7120 11.7630
" />
<path d="M11.4120 12.2630
L11.4120 12.4140
" />
<path d="M11.4120 12.2630
L12.6110 12.2630
" />
<path d="M11.4120 12.4140
L12.6110 12.4140
" />
<path d="M11.5170 1.1250
L11.5170 2.0250
" />
<path d="M11.5670 12.4140
L11.5820 12.6540
" />
<path d="M11.5820 13.0040
L11.5820 12.6540
" />
<path d="M11.7360 1.1250
L11.5170 1.1250
" />
<path d="M11.7360 1.1250
L11.7360 2.0250
" />
<path d="M12.0260 2.0250
L12.0260 1.1150
" />
<path d="M12.2270 1.1150
L12.0260 1.1150
" />
<path d="M12.2270 2.0250
L12.2270 1.1150
" />
<path d="M12.5170 1.1250
L12.5170 2.0250
" />
<path d="M12.5820 12.4140
L12.5820 13.0040
" />
<path d="M12.6110 11.2150
L12.6110 11.2830
" />
<path d="M12.6110 11.2150
L12.8510 11.2150
" />
<path d="M12.6110 11.6550
L12.6110 11.2830
" />
<path d="M12.6110 11.6550
L12.6110 12.2630
" />
<path d="M12.6110 11.7050
L12.8770 11.7050
" />
<path d="M12.6110 12.2630
L12.6110 12.4140
" />
<path d="M12.6140 11.1860
L12.6110 11.2150
" />
<path d="M12.6140 11.1860
L12.8120 8.7650
" />
<path d="M12.6510 10.7150
L12.8510 10.7150
" />
<path d="M12.7360 1.1250
L12.5170 1.1250
" />
<path d="M12.7360 1.1250
L12.7360 2.0250
" />
<path d="M12.8000 8.5040
L12.8000 8.5550
" />
<path d="M12.8000 8.5550
L12.8120 8.5550
" />
<path d="M12.8000 13.0040
L12.8260 13.0040
" />
<path d="M12.8020 8.4800
L12.8020 8.4880
" />
<path d="M12.8020 8.4880
L12.8020 8.4960
" />
<path d="M12.8020 8.4960
L12.8000 8.5040
" />
<path d="M12.8040 8.4620
L12.8040 8.4700
" />
<path d="M12.8040 8.4700
L12.8020 8.4800
" />
<path d="M12.8060 8.4540
L12.8040 8.4620
" />
<path d="M12.8080 8.4460
L12.8060 8.4540
" />
<path d="M12.8100 8.4380
L12.8080 8.4460
" />
<path d="M12.8120 8.4300
L12.8100 8.4380
" />
<path d="M12.8120 8.5550
L12.8120 8.6530
" />
<path d="M12.8120 8.6530
L12.8120 8.7650
" />
<path d="M12.8140 8.4240
L12.8120 8.4300
" />
<path d="M12.8180 8.4160
L12.8140 8.4240
" />
<path d="M12.8200 8.4080
L12.8180 8.4160
" />
<path d="M12.8240 8.4010
L12.8200 8.4080
" />
<path d="M12.8260 8.3930
L12.8240 8.4010
" />
<path d="M12.8260 13.0040
L12.8510 13.0010
" />
<path d="M12.8300 8.3870
L12.8260 8.3930
" />
<path d="M12.8350 8.3790
L12.8300 8.3870
" />
<path d="M12.8390 8.3720
L12.8350 8.3790
" />
<path d="M12.8430 8.3660
L12.8390 8.3720
" />
<path d="M12.8470 8.3580
L12.8430 8.3660
" />
<path d="M12.8510 8.3550
L12.8510 10.7150
" />
<path d="M12.8510 10.7150
L12.8510 11.1580
" />
<path d="M12.8510 11.1580
L12.8510 11.2150
" />
<path d="M12.8510 13.0010
L12.8750 12.9980
" />
<path d="M12.8530 8.3530
L12.8470 8.3580
" />
<path d="M12.8570 8.3450
L12.8530 8.3530
" />
<path d="M12.8630 8.3390
L12.8570 8.3450
" />
<path d="M12.8690 8.3340
L12.8630 8.3390
" />
<path d="M12.8730 8.3280
L12.8690 8.3340
" />
<path d="M12.8750 12.9980
L12.8990 12.9940
" />
<path d="M12.8770 8.3260
L12.8770 11.5650
" />
<path d="M12.8770 11.5650
L12.8770 11.7050
" />
<path d="M12.8790 8.3210
L12.8730 8.3280
" />
<path d="M12.8850 8.3160
L12.8790 8.3210
" />
<path d="M12.8910 8.3120
L12.8850 8.3160
" />
<path d="M12.8990 8.3050
L12.8910 8.3120
" />
<path d="M12.8990 12.9940
L12.9230 12.9880
" />
<path d="M12.9050 8.3020
L12.8990 8.3050
" />
<path d="M12.9110 8.2970
L12.9050 8.3020
" />
<path d="M12.9190 8.2910
L12.9110 8.2970
" />
<path d="M12.9230 12.9880
L12.9470 12.9820
" />
<path d="M12.9250 8.2880
L12.9190 8.2910
" />
</g>
<g style="fill:#000000; fill-opacity:1.0000; stroke:none;">
<circle cx="12.9250" cy="8.2880" r="0.0100" /> 
</g>
<g style="fill:none; 
stroke:#000000; stroke-width:0.0200; stroke-opacity:1; 
stroke-linecap:round; stroke-linejoin:round;">
<path d="M12.9410 8.2800
L12.9250 8.2880
" />
<path d="M12.9470 12.9820
L12.9700 12.9750
" />
<path d="M12.9550 8.2730
L12.9410 8.2800
" />
<path d="M12.9700 12.9750
L12.9920 12.9650
" />
<path d="M12.9720 8.2680
L12.9550 8.2730
" />
<path d="M12.9860 8.2620
L12.9720 8.2680
" />
<path d="M12.9920 12.9650
L13.0140 12.9560
" />
<path d="M13.0020 8.2590
L12.9860 8.2620
" />
<path d="M13.0140 12.9560
L13.0360 12.9460
" />
<path d="M13.0180 8.2570
L13.0020 8.2590
" />
<path d="M13.0260 2.0250
L13.0260 1.1150
" />
<path d="M13.0340 8.2540
L13.0180 8.2570
" />
<path d="M13.0360 12.9460
L13.0580 12.9330
" />
<path d="M13.0500 8.2540
L13.0340 8.2540
" />
<path d="M13.0580 12.9330
L13.0780 12.9200
" />
<path d="M13.0680 8.2540
L13.0500 8.2540
" />
<path d="M13.0780 12.9200
L13.0990 12.9050
" />
<path d="M13.0820 11.7630
L13.0820 12.9180
" />
<path d="M13.0840 8.2570
L13.0680 8.2540
" />
<path d="M13.0990 8.2590
L13.0840 8.2570
" />
<path d="M13.0990 12.9050
L13.1170 12.8910
" />
<path d="M13.1150 8.2620
L13.0990 8.2590
" />
<path d="M13.1170 12.8910
L13.1370 12.8750
" />
<path d="M13.1310 8.2680
L13.1150 8.2620
" />
<path d="M13.1370 12.8750
L13.1550 12.8570
" />
<path d="M13.1470 8.2730
L13.1310 8.2680
" />
</g>
<g style="fill:#000000; fill-opacity:1.0000; stroke:none;">
<circle cx="13.1550" cy="12.8570" r="0.0100" /> 
</g>
<g style="fill:none; 
stroke:#000000; stroke-width:0.0200; stroke-opacity:1; 
stroke-linecap:round; stroke-linejoin:round;">
<path d="M13.1550 12.8570
L13.1710 12.8400
" />
<path d="M13.1610 8.2800
L13.1470 8.2730
" />
<path d="M13.1710 12.8400
L13.1870 12.8210
" />
<path d="M13.1750 8.2880
L13.1610 8.2800
" />
</g>
<g style="fill:#000000; fill-opacity:1.0000; stroke:none;">
<circle cx="13.1750" cy="8.2880" r="0.0100" /> 
</g>
<g style="fill:none; 
stroke:#000000; stroke-width:0.0200; stroke-opacity:1; 
stroke-linecap:round; stroke-linejoin:round;">
<path d="M13.1870 12.8210
L13.2030 12.8020
" />
<path d="M13.1910 8.2970
L13.1750 8.2880
" />
<path d="M13.2030 8.3050
L13.1910 8.2970
" />
<path d="M13.2030 12.8020
L13.2170 12.7820
" />
<path d="M13.2170 8.3160
L13.2030 8.3050
" />
<path d="M13.2170 12.7820
L13.2300 12.7600
" />
<path d="M13.2260 1.1150
L13.0260 1.1150
" />
<path d="M13.2260 2.0250
L13.2260 1.1150
" />
<path d="M13.2280 8.3280
L13.2170 8.3160
" />
<path d="M13.2300 12.7600
L13.2420 12.7400
" />
<path d="M13.2400 8.3390
L13.2280 8.3280
" />
<path d="M13.2420 12.7400
L13.2540 12.7180
" />
<path d="M13.2500 8.3530
L13.2400 8.3390
" />
<path d="M13.2540 12.7180
L13.2620 12.6960
" />
<path d="M13.2580 8.3660
L13.2500 8.3530
" />
<path d="M13.2620 12.6960
L13.2720 12.6730
" />
<path d="M13.2680 8.3790
L13.2580 8.3660
" />
<path d="M13.2720 12.6730
L13.2800 12.6490
" />
<path d="M13.2760 8.3930
L13.2680 8.3790
" />
<path d="M13.2800 12.6490
L13.2860 12.6260
" />
<path d="M13.2820 8.4080
L13.2760 8.3930
" />
<path d="M13.2860 12.6260
L13.2920 12.6030
" />
<path d="M13.2880 8.4240
L13.2820 8.4080
" />
<path d="M13.2920 8.4380
L13.2880 8.4240
" />
<path d="M13.2920 12.6030
L13.2960 12.5770
" />
<path d="M13.2960 8.4540
L13.2920 8.4380
" />
<path d="M13.2960 12.5770
L13.2980 12.5540
" />
<path d="M13.2980 8.4700
L13.2960 8.4540
" />
<path d="M13.2980 12.5540
L13.3000 12.5290
" />
<path d="M13.3000 8.4880
L13.2980 8.4700
" />
<path d="M13.3000 8.5040
L13.3000 8.4880
" />
<path d="M13.3000 11.5650
L12.8770 11.5650
" />
<path d="M13.3000 11.7630
L12.6110 11.7630
" />
<path d="M13.3000 12.5040
L13.3000 8.5040
" />
<path d="M13.3000 12.5290
L13.3000 12.5040
" />
<path d="M13.5160 1.1250
L13.5160 2.0250
" />
<path d="M13.7370 1.1250
L13.5160 1.1250
" />
<path d="M13.7370 1.1250
L13.7370 2.0250
" />
<path d="M14.0270 2.0250
L14.0270 1.1150
" />
<path d="M14.2250 1.1150
L14.0270 1.1150
" />
<path d="M14.2250 2.0250
L14.2250 1.1150
" />
<path d="M14.5160 2.0250
L14.5160 1.1250
" />
<path d="M14.7360 1.1250
L14.5160 1.1250
" />
<path d="M14.7360 2.0250
L14.7360 1.1250
" />
<path d="M15.5770 1.6140
L15.5770 2.0250
" />
<path d="M15.5770 1.6140
L16.1260 1.6140
" />
<path d="M15.7250 9.0840
L15.7250 11.3850
" />
<path d="M15.7250 11.3850
L15.7270 11.3880
" />
<path d="M15.7270 9.0650
L15.7270 9.0700
" />
<path d="M15.7270 9.0700
L15.7270 9.0740
" />
<path d="M15.7270 9.0740
L15.7270 9.0790
" />
<path d="M15.7270 9.0790
L15.7250 9.0840
" />
<path d="M15.7270 11.3880
L15.7270 11.3940
" />
<path d="M15.7270 11.3940
L15.7270 11.3980
" />
<path d="M15.7270 11.3980
L15.7270 11.4040
" />
<path d="M15.7270 11.4040
L15.7290 11.4080
" />
<path d="M15.7290 9.0600
L15.7270 9.0650
" />
<path d="M15.7290 11.4080
L15.7310 11.4140
" />
<path d="M15.7310 9.0500
L15.7310 9.0550
" />
<path d="M15.7310 9.0550
L15.7290 9.0600
" />
<path d="M15.7310 11.4140
L15.7310 11.4170
" />
<path d="M15.7310 11.4170
L15.7330 11.4230
" />
<path d="M15.7330 9.0460
L15.7310 9.0500
" />
<path d="M15.7330 11.4230
L15.7350 11.4270
" />
<path d="M15.7350 9.0410
L15.7330 9.0460
" />
<path d="M15.7350 11.4270
L15.7370 11.4310
" />
<path d="M15.7370 9.0360
L15.7350 9.0410
" />
<path d="M15.7370 11.4310
L15.7410 11.4360
" />
<path d="M15.7410 9.0330
L15.7370 9.0360
" />
<path d="M15.7410 11.4360
L15.7430 11.4400
" />
<path d="M15.7430 9.0280
L15.7410 9.0330
" />
<path d="M15.7430 11.4400
L15.7450 11.4430
" />
<path d="M15.7450 9.0250
L15.7430 9.0280
" />
<path d="M15.7450 11.4430
L15.7490 11.4470
" />
<path d="M15.7490 9.0200
L15.7450 9.0250
" />
<path d="M15.7490 11.4470
L15.7510 11.4520
" />
<path d="M15.7510 9.0170
L15.7490 9.0200
" />
<path d="M15.7510 11.4520
L15.7550 11.4550
" />
<path d="M15.7550 9.0130
L15.7510 9.0170
" />
</g>
<g style="fill:#000000; fill-opacity:1.0000; stroke:none;">
<circle cx="15.7550" cy="9.0130" r="0.0100" /> 
<circle cx="15.7550" cy="11.4550" r="0.0100" /> 
</g>
<g style="fill:none; 
stroke:#000000; stroke-width:0.0200; stroke-opacity:1; 
stroke-linecap:round; stroke-linejoin:round;">
<path d="M15.7550 11.4550
L15.7590 11.4590
" />
<path d="M15.7590 9.0100
L15.7550 9.0130
" />
<path d="M15.7590 11.4590
L15.7630 11.4620
" />
<path d="M15.7630 9.0070
L15.7590 9.0100
" />
<path d="M15.7630 11.4620
L15.7670 11.4650
" />
<path d="M15.7670 9.0040
L15.7630 9.0070
" />
<path d="M15.7670 11.4650
L15.7710 11.4680
" />
<path d="M15.7710 9.0010
L15.7670 9.0040
" />
<path d="M15.7710 11.4680
L15.7750 11.4690
" />
<path d="M15.7750 8.9990
L15.7710 9.0010
" />
<path d="M15.7750 11.4690
L15.7790 11.4720
" />
<path d="M15.7790 8.9960
L15.7750 8.9990
" />
<path d="M15.7790 11.4720
L15.7840 11.4750
" />
<path d="M15.7840 8.9940
L15.7790 8.9960
" />
<path d="M15.7840 11.4750
L15.7880 11.4760
" />
<path d="M15.7880 8.9910
L15.7840 8.9940
" />
<path d="M15.7880 11.4760
L15.7920 11.4780
" />
<path d="M15.7920 8.9890
L15.7880 8.9910
" />
<path d="M15.7920 11.4780
L15.7960 11.4790
" />
<path d="M15.7960 8.9880
L15.7920 8.9890
" />
<path d="M15.7960 11.4790
L15.8020 11.4810
" />
<path d="M15.8020 8.9880
L15.7960 8.9880
" />
<path d="M15.8020 11.4810
L15.8060 11.4820
" />
<path d="M15.8060 8.9860
L15.8020 8.9880
" />
<path d="M15.8060 11.4820
L15.8120 11.4820
" />
<path d="M15.8120 8.9860
L15.8060 8.9860
" />
<path d="M15.8120 11.4820
L15.8160 11.4840
" />
<path d="M15.8160 8.9850
L15.8120 8.9860
" />
<path d="M15.8160 11.4840
L15.8220 11.4840
" />
<path d="M15.8220 8.9850
L15.8160 8.9850
" />
<path d="M15.8220 11.4840
L15.8260 11.4850
" />
<path d="M15.8260 8.9850
L15.8220 8.9850
" />
<path d="M15.8260 11.4850
L16.4250 11.4850
" />
<path d="M16.1260 1.6140
L16.1260 3.1150
" />
<path d="M16.1260 1.6140
L17.0260 1.6140
" />
<path d="M16.3260 15.6040
L16.5390 15.6040
" />
<path d="M16.4250 8.9850
L15.8260 8.9850
" />
<path d="M16.4250 11.4850
L16.4310 11.4840
" />
<path d="M16.4310 8.9850
L16.4250 8.9850
" />
<path d="M16.4310 11.4840
L16.4350 11.4840
" />
<path d="M16.4350 8.9850
L16.4310 8.9850
" />
<path d="M16.4350 11.4840
L16.4410 11.4820
" />
<path d="M16.4410 8.9860
L16.4350 8.9850
" />
<path d="M16.4410 11.4820
L16.4450 11.4820
" />
<path d="M16.4450 8.9860
L16.4410 8.9860
" />
<path d="M16.4450 11.4820
L16.4510 11.4810
" />
<path d="M16.4510 8.9880
L16.4450 8.9860
" />
<path d="M16.4510 11.4810
L16.4550 11.4790
" />
<path d="M16.4550 8.9880
L16.4510 8.9880
" />
<path d="M16.4550 11.4790
L16.4590 11.4780
" />
<path d="M16.4590 8.9890
L16.4550 8.9880
" />
<path d="M16.4590 11.4780
L16.4650 11.4760
" />
<path d="M16.4650 8.9910
L16.4590 8.9890
" />
<path d="M16.4650 11.4760
L16.4690 11.4750
" />
<path d="M16.4690 8.9940
L16.4650 8.9910
" />
<path d="M16.4690 11.4750
L16.4730 11.4720
" />
<path d="M16.4730 8.9960
L16.4690 8.9940
" />
<path d="M16.4730 11.4720
L16.4770 11.4690
" />
<path d="M16.4770 8.9990
L16.4730 8.9960
" />
<path d="M16.4770 11.4690
L16.4810 11.4680
" />
<path d="M16.4810 9.0010
L16.4770 8.9990
" />
<path d="M16.4810 11.4680
L16.4850 11.4650
" />
<path d="M16.4850 9.0040
L16.4810 9.0010
" />
<path d="M16.4850 11.4650
L16.4890 11.4620
" />
<path d="M16.4890 9.0070
L16.4850 9.0040
" />
<path d="M16.4890 11.4620
L16.4930 11.4590
" />
<path d="M16.4930 9.0100
L16.4890 9.0070
" />
<path d="M16.4930 11.4590
L16.4970 11.4550
" />
<path d="M16.4970 9.0130
L16.4930 9.0100
" />
</g>
<g style="fill:#000000; fill-opacity:1.0000; stroke:none;">
<circle cx="16.4970" cy="9.0130" r="0.0100" /> 
<circle cx="16.4970" cy="11.4550" r="0.0100" /> 
</g>
<g style="fill:none; 
stroke:#000000; stroke-width:0.0200; stroke-opacity:1; 
stroke-linecap:round; stroke-linejoin:round;">
<path d="M16.4970 11.4550
L16.5010 11.4520
" />
<path d="M16.5010 9.0170
L16.4970 9.0130
" />
<path d="M16.5010 11.4520
L16.5030 11.4470
" />
<path d="M16.5030 9.0200
L16.5010 9.0170
" />
<path d="M16.5030 11.4470
L16.5070 11.4430
" />
<path d="M16.5070 9.0250
L16.5030 9.0200
" />
<path d="M16.5070 11.4430
L16.5090 11.4400
" />
<path d="M16.5090 9.0280
L16.5070 9.0250
" />
<path d="M16.5090 11.4400
L16.5110 11.4360
" />
<path d="M16.5110 9.0330
L16.5090 9.0280
" />
<path d="M16.5110 11.4360
L16.5150 11.4310
" />
<path d="M16.5150 9.0360
L16.5110 9.0330
" />
<path d="M16.5150 11.4310
L16.5170 11.4270
" />
<path d="M16.5170 9.0410
L16.5150 9.0360
" />
<path d="M16.5170 11.4270
L16.5190 11.4230
" />
<path d="M16.5190 9.0460
L16.5170 9.0410
" />
<path d="M16.5190 11.4230
L16.5210 11.4170
" />
<path d="M16.5210 9.0500
L16.5190 9.0460
" />
<path d="M16.5210 9.0550
L16.5210 9.0500
" />
<path d="M16.5210 11.4140
L16.5230 11.4080
" />
<path d="M16.5210 11.4170
L16.5210 11.4140
" />
<path d="M16.5230 9.0600
L16.5210 9.0550
" />
<path d="M16.5230 11.4080
L16.5250 11.4040
" />
<path d="M16.5250 9.0650
L16.5230 9.0600
" />
<path d="M16.5250 9.0700
L16.5250 9.0650
" />
<path d="M16.5250 9.0740
L16.5250 9.0700
" />
<path d="M16.5250 9.0790
L16.5250 9.0740
" />
<path d="M16.5250 11.3880
L16.5270 11.3850
" />
<path d="M16.5250 11.3940
L16.5250 11.3880
" />
<path d="M16.5250 11.3980
L16.5250 11.3940
" />
<path d="M16.5250 11.4040
L16.5250 11.3980
" />
<path d="M16.5270 9.0840
L16.5250 9.0790
" />
<path d="M16.5270 9.9040
L15.7250 9.9040
" />
<path d="M16.5270 11.3850
L16.5270 9.0840
" />
</g>
<g style="fill:#000000; fill-opacity:1.0000; stroke:none;">
<circle cx="16.5390" cy="15.6040" r="0.0100" /> 
</g>
<g style="fill:none; 
stroke:#000000; stroke-width:0.0200; stroke-opacity:1; 
stroke-linecap:round; stroke-linejoin:round;">
<path d="M16.5390 15.6040
L16.6260 15.6040
" />
<path d="M16.5390 16.0040
L16.3260 16.0040
" />
</g>
<g style="fill:#000000; fill-opacity:1.0000; stroke:none;">
<circle cx="16.5390" cy="16.0040" r="0.0100" /> 
</g>
<g style="fill:none; 
stroke:#000000; stroke-width:0.0200; stroke-opacity:1; 
stroke-linecap:round; stroke-linejoin:round;">
<path d="M16.6260 15.3050
L16.6260 15.5040
" />
<path d="M16.6260 15.5040
L16.6260 15.6040
" />
<path d="M16.6260 15.6040
L16.6260 16.0040
" />
<path d="M16.6260 16.0040
L16.5390 16.0040
" />
<path d="M16.8760 3.1150
L1.3770 3.1150
" />
<path d="M16.8760 15.3050
L16.6260 15.3050
" />
<path d="M17.0260 1.6140
L17.0260 3.1150
" />
<path d="M17.0260 1.6140
L17.5260 1.6140
" />
<path d="M17.1770 15.3050
L17.1770 15.5040
" />
<path d="M17.1770 15.5040
L17.1770 15.5290
" />
<path d="M17.1770 15.5290
L17.1780 15.5540
" />
<path d="M17.1780 15.5540
L17.1820 15.5770
" />
<path d="M17.1820 15.5770
L17.1860 15.6030
" />
<path d="M17.1860 15.6030
L17.1910 15.6250
" />
<path d="M17.1910 15.6250
L17.1980 15.6500
" />
<path d="M17.1980 15.6500
L17.2060 15.6730
" />
<path d="M17.2060 15.6730
L17.2150 15.6960
" />
<path d="M17.2150 15.6960
L17.2230 15.7180
" />
<path d="M17.2230 15.7180
L17.2350 15.7400
" />
<path d="M17.2350 15.7400
L17.2470 15.7600
" />
<path d="M17.2470 15.7600
L17.2600 15.7820
" />
<path d="M17.2600 15.7820
L17.2750 15.8020
" />
<path d="M17.2750 15.8020
L17.2900 15.8210
" />
<path d="M17.2900 15.8210
L17.3060 15.8400
" />
<path d="M17.3060 15.8400
L17.3230 15.8570
" />
</g>
<g style="fill:#000000; fill-opacity:1.0000; stroke:none;">
<circle cx="17.3230" cy="15.8570" r="0.0100" /> 
</g>
<g style="fill:none; 
stroke:#000000; stroke-width:0.0200; stroke-opacity:1; 
stroke-linecap:round; stroke-linejoin:round;">
<path d="M17.3230 15.8570
L17.3400 15.8750
" />
<path d="M17.3400 15.8750
L17.3600 15.8910
" />
<path d="M17.3600 15.8910
L17.3790 15.9050
" />
<path d="M17.3710 3.1150
L16.8760 3.1150
" />
</g>
<g style="fill:#000000; fill-opacity:1.0000; stroke:none;">
<circle cx="17.3710" cy="3.1150" r="0.0100" /> 
</g>
<g style="fill:none; 
stroke:#000000; stroke-width:0.0200; stroke-opacity:1; 
stroke-linecap:round; stroke-linejoin:round;">
<path d="M17.3710 15.3050
L16.8760 15.3050
" />
</g>
<g style="fill:#000000; fill-opacity:1.0000; stroke:none;">
<circle cx="17.3710" cy="15.3050" r="0.0100" /> 
</g>
<g style="fill:none; 
stroke:#000000; stroke-width:0.0200; stroke-opacity:1; 
stroke-linecap:round; stroke-linejoin:round;">
<path d="M17.3790 15.9050
L17.3990 15.9200
" />
<path d="M17.3990 15.9200
L17.4200 15.9330
" />
<path d="M17.4200 15.9330
L17.4400 15.9460
" />
<path d="M17.4400 15.9460
L17.4620 15.9560
" />
<path d="M17.4620 15.9560
L17.4850 15.9650
" />
<path d="M17.4690 3.1150
L17.3710 3.1150
" />
</g>
<g style="fill:#000000; fill-opacity:1.0000; stroke:none;">
<circle cx="17.4690" cy="3.1150" r="0.0100" /> 
</g>
<g style="fill:none; 
stroke:#000000; stroke-width:0.0200; stroke-opacity:1; 
stroke-linecap:round; stroke-linejoin:round;">
<path d="M17.4690 15.3050
L17.3710 15.3050
" />
</g>
<g style="fill:#000000; fill-opacity:1.0000; stroke:none;">
<circle cx="17.4690" cy="15.3050" r="0.0100" /> 
</g>
<g style="fill:none; 
stroke:#000000; stroke-width:0.0200; stroke-opacity:1; 
stroke-linecap:round; stroke-linejoin:round;">
<path d="M17.4850 15.9650
L17.5080 15.9750
" />
<path d="M17.5080 15.9750
L17.5300 15.9820
" />
<path d="M17.5260 1.6140
L17.5260 3.1150
" />
<path d="M17.5260 1.8150
L17.5750 1.8150
" />
<path d="M17.5300 15.9820
L17.5540 15.9880
" />
<path d="M17.5330 2.1080
L17.5260 2.0960
" />
<path d="M17.5370 2.1210
L17.5330 2.1080
" />
<path d="M17.5370 3.1150
L17.4690 3.1150
" />
</g>
<g style="fill:#000000; fill-opacity:1.0000; stroke:none;">
<circle cx="17.5370" cy="3.1150" r="0.0100" /> 
</g>
<g style="fill:none; 
stroke:#000000; stroke-width:0.0200; stroke-opacity:1; 
stroke-linecap:round; stroke-linejoin:round;">
<path d="M17.5370 15.3050
L17.4690 15.3050
" />
</g>
<g style="fill:#000000; fill-opacity:1.0000; stroke:none;">
<circle cx="17.5370" cy="15.3050" r="0.0100" /> 
</g>
<g style="fill:none; 
stroke:#000000; stroke-width:0.0200; stroke-opacity:1; 
stroke-linecap:round; stroke-linejoin:round;">
<path d="M17.5420 2.1360
L17.5370 2.1210
" />
<path d="M17.5480 2.1490
L17.5420 2.1360
" />
<path d="M17.5530 2.1610
L17.5480 2.1490
" />
<path d="M17.5540 15.9880
L17.5780 15.9940
" />
<path d="M17.5570 2.1750
L17.5530 2.1610
" />
<path d="M17.5580 3.1150
L17.5370 3.1150
" />
</g>
<g style="fill:#000000; fill-opacity:1.0000; stroke:none;">
<circle cx="17.5580" cy="3.1150" r="0.0100" /> 
</g>
<g style="fill:none; 
stroke:#000000; stroke-width:0.0200; stroke-opacity:1; 
stroke-linecap:round; stroke-linejoin:round;">
<path d="M17.5580 15.3050
L17.5370 15.3050
" />
</g>
<g style="fill:#000000; fill-opacity:1.0000; stroke:none;">
<circle cx="17.5580" cy="15.3050" r="0.0100" /> 
</g>
<g style="fill:none; 
stroke:#000000; stroke-width:0.0200; stroke-opacity:1; 
stroke-linecap:round; stroke-linejoin:round;">
<path d="M17.5610 2.1880
L17.5570 2.1750
" />
<path d="M17.5640 2.2030
L17.5610 2.1880
" />
<path d="M17.5660 2.2170
L17.5640 2.2030
" />
<path d="M17.5690 2.2290
L17.5660 2.2170
" />
<path d="M17.5710 2.2430
L17.5690 2.2290
" />
<path d="M17.5710 3.1150
L17.5580 3.1150
" />
</g>
<g style="fill:#000000; fill-opacity:1.0000; stroke:none;">
<circle cx="17.5710" cy="3.1150" r="0.0100" /> 
</g>
<g style="fill:none; 
stroke:#000000; stroke-width:0.0200; stroke-opacity:1; 
stroke-linecap:round; stroke-linejoin:round;">
<path d="M17.5710 15.3050
L17.5580 15.3050
" />
</g>
<g style="fill:#000000; fill-opacity:1.0000; stroke:none;">
<circle cx="17.5710" cy="15.3050" r="0.0100" /> 
</g>
<g style="fill:none; 
stroke:#000000; stroke-width:0.0200; stroke-opacity:1; 
stroke-linecap:round; stroke-linejoin:round;">
<path d="M17.5730 2.2580
L17.5710 2.2430
" />
<path d="M17.5740 2.2720
L17.5730 2.2580
" />
<path d="M17.5750 1.8150
L17.5750 1.9140
" />
<path d="M17.5750 2.2860
L17.5740 2.2720
" />
<path d="M17.5750 2.3000
L17.5750 2.2860
" />
<path d="M17.5750 2.3150
L17.5750 2.3000
" />
<path d="M17.5750 2.8150
L17.5750 1.9140
" />
<path d="M17.5750 3.1150
L17.5710 3.1150
" />
<path d="M17.5750 3.1150
L17.5750 2.3150
" />
<path d="M17.5750 3.1150
L17.5750 15.3050
" />
<path d="M17.5750 5.0470
L17.5870 5.0370
" />
<path d="M17.5750 11.5770
L17.5870 11.5670
" />
<path d="M17.5750 15.3050
L17.5710 15.3050
" />
<path d="M17.5750 15.5040
L17.5750 15.3050
" />
<path d="M17.5770 15.5090
L17.5750 15.5040
" />
<path d="M17.5770 15.5130
L17.5770 15.5090
" />
<path d="M17.5780 15.5190
L17.5770 15.5130
" />
<path d="M17.5780 15.5230
L17.5780 15.5190
" />
<path d="M17.5780 15.9940
L17.6020 15.9980
" />
<path d="M17.5790 15.5290
L17.5780 15.5230
" />
<path d="M17.5810 15.5330
L17.5790 15.5290
" />
<path d="M17.5820 15.5380
L17.5810 15.5330
" />
<path d="M17.5830 15.5420
L17.5820 15.5380
" />
<path d="M17.5860 15.5460
L17.5830 15.5420
" />
<path d="M17.5870 3.0120
L17.5770 3.0000
" />
<path d="M17.5870 5.0370
L17.5980 5.0260
" />
<path d="M17.5870 10.0420
L17.5750 10.0300
" />
<path d="M17.5870 11.5670
L17.5980 11.5550
" />
<path d="M17.5870 15.5520
L17.5860 15.5460
" />
<path d="M17.5900 15.5550
L17.5870 15.5520
" />
<path d="M17.5930 15.5590
L17.5900 15.5550
" />
<path d="M17.5950 15.5640
L17.5930 15.5590
" />
<path d="M17.5980 3.0220
L17.5870 3.0120
" />
<path d="M17.5980 5.0260
L17.6090 5.0140
" />
<path d="M17.5980 10.0520
L17.5870 10.0420
" />
<path d="M17.5980 11.5550
L17.6090 11.5430
" />
<path d="M17.5980 15.5680
L17.5950 15.5640
" />
<path d="M17.6020 15.5710
L17.5980 15.5680
" />
<path d="M17.6020 15.9980
L17.6260 16.0010
" />
<path d="M17.6060 15.5740
L17.6020 15.5710
" />
</g>
<g style="fill:#000000; fill-opacity:1.0000; stroke:none;">
<circle cx="17.6060" cy="15.5740" r="0.0100" /> 
</g>
<g style="fill:none; 
stroke:#000000; stroke-width:0.0200; stroke-opacity:1; 
stroke-linecap:round; stroke-linejoin:round;">
<path d="M17.6090 3.0350
L17.5980 3.0220
" />
<path d="M17.6090 5.0140
L17.6180 5.0010
" />
<path d="M17.6090 10.0650
L17.5980 10.0520
" />
<path d="M17.6090 11.5430
L17.6180 11.5300
" />
<path d="M17.6090 15.5780
L17.6060 15.5740
" />
<path d="M17.6130 15.5810
L17.6090 15.5780
" />
<path d="M17.6170 15.5840
L17.6130 15.5810
" />
<path d="M17.6180 3.0470
L17.6090 3.0350
" />
<path d="M17.6180 5.0010
L17.6270 4.9870
" />
<path d="M17.6180 10.0780
L17.6090 10.0650
" />
<path d="M17.6180 11.5300
L17.6270 11.5170
" />
<path d="M17.6210 15.5870
L17.6170 15.5840
" />
<path d="M17.6250 15.5900
L17.6210 15.5870
" />
<path d="M17.6260 16.0010
L17.6510 16.0040
" />
<path d="M17.6270 3.0610
L17.6180 3.0470
" />
<path d="M17.6270 4.9870
L17.6350 4.9740
" />
<path d="M17.6270 10.0900
L17.6180 10.0780
" />
<path d="M17.6270 11.5170
L17.6350 11.5040
" />
<path d="M17.6290 15.5930
L17.6250 15.5900
" />
<path d="M17.6340 15.5940
L17.6290 15.5930
" />
<path d="M17.6350 3.0730
L17.6270 3.0610
" />
<path d="M17.6350 4.9740
L17.6430 4.9610
" />
<path d="M17.6350 10.1030
L17.6270 10.0900
" />
<path d="M17.6350 11.5040
L17.6430 11.4910
" />
<path d="M17.6380 15.5970
L17.6340 15.5940
" />
<path d="M17.6420 15.5990
L17.6380 15.5970
" />
<path d="M17.6430 3.0870
L17.6350 3.0730
" />
<path d="M17.6430 4.9610
L17.6500 4.9460
" />
<path d="M17.6430 10.1170
L17.6350 10.1030
" />
<path d="M17.6430 11.4910
L17.6500 11.4760
" />
<path d="M17.6460 15.6000
L17.6420 15.5990
" />
<path d="M17.6500 3.1010
L17.6430 3.0870
" />
<path d="M17.6500 4.9460
L17.6550 4.9330
" />
<path d="M17.6500 10.1320
L17.6430 10.1170
" />
<path d="M17.6500 11.4760
L17.6550 11.4620
" />
<path d="M17.6510 15.6000
L17.6460 15.6000
" />
<path d="M17.6510 16.0040
L17.6770 16.0040
" />
<path d="M17.6550 3.1150
L17.6500 3.1010
" />
<path d="M17.6550 4.9330
L17.6620 4.9170
" />
<path d="M17.6550 10.1450
L17.6500 10.1320
" />
<path d="M17.6550 11.4620
L17.6620 11.4470
" />
<path d="M17.6570 15.6030
L17.6510 15.6000
" />
<path d="M17.6620 3.1310
L17.6550 3.1150
" />
<path d="M17.6620 4.9170
L17.6660 4.9020
" />
<path d="M17.6620 10.1610
L17.6550 10.1450
" />
<path d="M17.6620 11.4470
L17.6660 11.4330
" />
<path d="M17.6620 15.6030
L17.6570 15.6030
" />
<path d="M17.6660 3.1450
L17.6620 3.1310
" />
<path d="M17.6660 4.9020
L17.6700 4.8860
" />
<path d="M17.6660 10.1760
L17.6620 10.1610
" />
<path d="M17.6660 11.4330
L17.6700 11.4170
" />
<path d="M17.6660 15.6030
L17.6620 15.6030
" />
<path d="M17.6700 3.1620
L17.6660 3.1450
" />
<path d="M17.6700 4.8860
L17.6730 4.8720
" />
<path d="M17.6700 10.1920
L17.6660 10.1760
" />
<path d="M17.6700 11.4170
L17.6730 11.4010
" />
<path d="M17.6710 15.6030
L17.6660 15.6030
" />
<path d="M17.6730 3.1760
L17.6700 3.1620
" />
<path d="M17.6730 4.8720
L17.6740 4.8560
" />
<path d="M17.6730 10.2060
L17.6700 10.1920
" />
<path d="M17.6730 11.4010
L17.6740 11.3850
" />
<path d="M17.6740 3.1920
L17.6730 3.1760
" />
<path d="M17.6740 4.8560
L17.6750 4.8400
" />
<path d="M17.6740 10.2220
L17.6730 10.2060
" />
<path d="M17.6740 11.3850
L17.6750 11.3690
" />
<path d="M17.6750 3.2080
L17.6740 3.1920
" />
<path d="M17.6750 4.8400
L17.6770 4.8250
" />
<path d="M17.6750 10.2380
L17.6740 10.2220
" />
<path d="M17.6750 11.3690
L17.6770 11.3530
" />
<path d="M17.6770 3.2240
L17.6750 3.2080
" />
<path d="M17.6770 4.8250
L17.6770 3.2240
" />
<path d="M17.6770 10.2540
L17.6750 10.2380
" />
<path d="M17.6770 11.3530
L17.6770 10.2540
" />
<path d="M17.6770 15.6040
L17.6710 15.6030
" />
<path d="M17.6770 16.0040
L17.7350 16.0040
" />
<path d="M17.7350 15.6040
L17.6770 15.6040
" />
<path d="M17.7350 15.6040
L17.9330 15.6040
" />
</g>
<g style="fill:#000000; fill-opacity:1.0000; stroke:none;">
<circle cx="17.9330" cy="15.6040" r="0.0100" /> 
</g>
<g style="fill:none; 
stroke:#000000; stroke-width:0.0200; stroke-opacity:1; 
stroke-linecap:round; stroke-linejoin:round;">
<path d="M17.9330 15.6040
L18.0170 15.6040
" />
<path d="M17.9330 16.0040
L17.7350 16.0040
" />
</g>
<g style="fill:#000000; fill-opacity:1.0000; stroke:none;">
<circle cx="17.9330" cy="16.0040" r="0.0100" /> 
</g>
<g style="fill:none; 
stroke:#000000; stroke-width:0.0200; stroke-opacity:1; 
stroke-linecap:round; stroke-linejoin:round;">
<path d="M18.0170 16.0040
L17.9330 16.0040
" />
<path d="M18.0170 16.0040
L18.0170 15.6040
" />
</g> 
</svg>
