<?xml version="1.0" standalone="no"?>
 <!DOCTYPE svg PUBLIC "-//W3C//DTD SVG 1.1//EN" 
 "http://www.w3.org/Graphics/SVG/1.1/DTD/svg11.dtd"> 
<svg
  xmlns:svg="http://www.w3.org/2000/svg"
  xmlns="http://www.w3.org/2000/svg"
  xmlns:xlink="http://www.w3.org/1999/xlink"
  version="1.1"
  width="9.0424mm" height="8.1280mm" viewBox="0.0000 0.0000 9.0424 8.1280">
<title>SVG Image created as outline.svg date 2025/06/16 09:18:08 </title>
  <desc>Image generated by PCBNEW </desc>
<g style="fill:#000000; fill-opacity:1.0000;stroke:#000000; stroke-opacity:1.0000;
stroke-linecap:round; stroke-linejoin:round;"
 transform="translate(0 0) scale(1 1)">
</g>
<g style="fill:none; 
stroke:#000000; stroke-width:0.0200; stroke-opacity:1; 
stroke-linecap:round; stroke-linejoin:round;">
<path d="M0.7270 0.4460
L0.7270 0.4560
" />
<path d="M0.7270 0.4560
L0.7270 0.4650
" />
<path d="M0.7270 0.4650
L0.7270 7.6650
" />
<path d="M0.7270 7.6650
L0.7270 7.6740
" />
<path d="M0.7270 7.6650
L0.9250 7.6650
" />
<path d="M0.7270 7.6740
L0.7270 7.6840
" />
<path d="M0.7270 7.6840
L0.7280 7.6940
" />
<path d="M0.7280 0.4360
L0.7270 0.4460
" />
<path d="M0.7280 7.6940
L0.7290 7.7030
" />
<path d="M0.7290 0.4270
L0.7280 0.4360
" />
<path d="M0.7290 7.7030
L0.7320 7.7130
" />
<path d="M0.7320 0.4170
L0.7290 0.4270
" />
<path d="M0.7320 7.7130
L0.7350 7.7230
" />
<path d="M0.7350 0.4070
L0.7320 0.4170
" />
<path d="M0.7350 7.7230
L0.7370 7.7310
" />
<path d="M0.7370 0.3990
L0.7350 0.4070
" />
<path d="M0.7370 7.7310
L0.7420 7.7410
" />
<path d="M0.7420 0.3890
L0.7370 0.3990
" />
<path d="M0.7420 7.7410
L0.7450 7.7500
" />
<path d="M0.7450 0.3800
L0.7420 0.3890
" />
<path d="M0.7450 7.7500
L0.7500 7.7590
" />
<path d="M0.7500 0.3710
L0.7450 0.3800
" />
<path d="M0.7500 7.7590
L0.7550 7.7670
" />
<path d="M0.7550 0.3630
L0.7500 0.3710
" />
<path d="M0.7550 7.7670
L0.7590 7.7750
" />
<path d="M0.7590 0.3550
L0.7550 0.3630
" />
<path d="M0.7590 7.7750
L0.7660 7.7830
" />
<path d="M0.7660 0.3470
L0.7590 0.3550
" />
<path d="M0.7660 7.7830
L0.7710 7.7910
" />
<path d="M0.7710 0.3390
L0.7660 0.3470
" />
<path d="M0.7710 7.7910
L0.7770 7.7990
" />
<path d="M0.7770 0.3310
L0.7710 0.3390
" />
<path d="M0.7770 7.7990
L0.7840 7.8060
" />
<path d="M0.7840 0.3240
L0.7770 0.3310
" />
</g>
<g style="fill:#000000; fill-opacity:1.0000; stroke:none;">
<circle cx="0.7840" cy="0.3240" r="0.0100" /> 
<circle cx="0.7840" cy="7.8060" r="0.0100" /> 
</g>
<g style="fill:none; 
stroke:#000000; stroke-width:0.0200; stroke-opacity:1; 
stroke-linecap:round; stroke-linejoin:round;">
<path d="M0.7840 7.8060
L0.7910 7.8130
" />
<path d="M0.7910 0.3170
L0.7840 0.3240
" />
<path d="M0.7910 7.8130
L0.7990 7.8190
" />
<path d="M0.7990 0.3110
L0.7910 0.3170
" />
<path d="M0.7990 7.8190
L0.8070 7.8240
" />
<path d="M0.8070 0.3060
L0.7990 0.3110
" />
<path d="M0.8070 7.8240
L0.8150 7.8310
" />
<path d="M0.8150 0.2990
L0.8070 0.3060
" />
<path d="M0.8150 7.8310
L0.8240 7.8360
" />
<path d="M0.8240 0.2940
L0.8150 0.2990
" />
<path d="M0.8240 7.8360
L0.8320 7.8400
" />
<path d="M0.8320 0.2900
L0.8240 0.2940
" />
<path d="M0.8320 7.8400
L0.8400 7.8440
" />
<path d="M0.8400 0.2860
L0.8320 0.2900
" />
<path d="M0.8400 7.8440
L0.8490 7.8480
" />
<path d="M0.8490 0.2820
L0.8400 0.2860
" />
<path d="M0.8490 7.8480
L0.8590 7.8520
" />
<path d="M0.8590 0.2780
L0.8490 0.2820
" />
<path d="M0.8590 7.8520
L0.8680 7.8560
" />
<path d="M0.8680 0.2740
L0.8590 0.2780
" />
<path d="M0.8680 7.8560
L0.8770 7.8580
" />
<path d="M0.8770 0.2720
L0.8680 0.2740
" />
<path d="M0.8770 7.8580
L0.8860 7.8600
" />
<path d="M0.8860 0.2700
L0.8770 0.2720
" />
<path d="M0.8860 7.8600
L0.8960 7.8620
" />
<path d="M0.8960 0.2680
L0.8860 0.2700
" />
<path d="M0.8960 7.8620
L0.9070 7.8640
" />
<path d="M0.9070 0.2660
L0.8960 0.2680
" />
<path d="M0.9070 7.8640
L0.9160 7.8640
" />
<path d="M0.9160 0.2660
L0.9070 0.2660
" />
<path d="M0.9160 7.8640
L0.9250 7.8640
" />
<path d="M0.9250 0.2660
L0.9160 0.2660
" />
<path d="M0.9250 0.2660
L0.9250 0.4650
" />
<path d="M0.9250 0.4650
L0.7270 0.4650
" />
<path d="M0.9250 7.6650
L0.9250 7.8640
" />
<path d="M0.9250 7.8640
L8.1240 7.8640
" />
<path d="M2.2350 4.0650
L2.2390 3.9240
" />
<path d="M2.2390 3.9240
L2.2520 3.7820
" />
<path d="M2.2390 4.2060
L2.2350 4.0650
" />
<path d="M2.2520 3.7820
L2.2750 3.6390
" />
<path d="M2.2520 4.3480
L2.2390 4.2060
" />
<path d="M2.2750 3.6390
L2.3070 3.5000
" />
<path d="M2.2750 4.4910
L2.2520 4.3480
" />
<path d="M2.2840 4.0650
L2.2900 3.9260
" />
<path d="M2.2840 4.0650
L2.2900 3.9260
" />
<path d="M2.2900 3.9260
L2.3030 3.7870
" />
<path d="M2.2900 3.9260
L2.3030 3.7870
" />
<path d="M2.2900 4.2040
L2.2840 4.0650
" />
<path d="M2.2900 4.2040
L2.2840 4.0650
" />
<path d="M2.3030 3.7870
L2.3240 3.6490
" />
<path d="M2.3030 3.7870
L2.3240 3.6490
" />
<path d="M2.3030 4.3430
L2.2900 4.2040
" />
<path d="M2.3030 4.3430
L2.2900 4.2040
" />
<path d="M2.3070 3.5000
L2.3460 3.3610
" />
<path d="M2.3070 4.6300
L2.2750 4.4910
" />
<path d="M2.3240 3.6490
L2.3550 3.5120
" />
<path d="M2.3240 3.6490
L2.3550 3.5120
" />
<path d="M2.3240 4.4810
L2.3030 4.3430
" />
<path d="M2.3240 4.4810
L2.3030 4.3430
" />
<path d="M2.3460 3.3610
L2.3950 3.2250
" />
<path d="M2.3460 4.7690
L2.3070 4.6300
" />
<path d="M2.3550 3.5120
L2.3930 3.3770
" />
<path d="M2.3550 3.5120
L2.3930 3.3770
" />
<path d="M2.3550 4.6180
L2.3240 4.4810
" />
<path d="M2.3550 4.6180
L2.3240 4.4810
" />
<path d="M2.3930 3.3770
L2.4410 3.2440
" />
<path d="M2.3930 3.3770
L2.4410 3.2440
" />
<path d="M2.3930 4.7530
L2.3550 4.6180
" />
<path d="M2.3930 4.7530
L2.3550 4.6180
" />
<path d="M2.3950 3.2250
L2.4520 3.0910
" />
<path d="M2.3950 4.9050
L2.3460 4.7690
" />
<path d="M2.4050 2.4530
L2.4080 2.4100
" />
<path d="M2.4050 5.6770
L2.4070 5.6550
" />
<path d="M2.4050 5.6980
L2.4050 5.6770
" />
<path d="M2.4070 2.4750
L2.4050 2.4530
" />
<path d="M2.4070 5.6550
L2.4080 5.6330
" />
<path d="M2.4080 2.4100
L2.4120 2.3660
" />
<path d="M2.4080 2.4970
L2.4070 2.4750
" />
<path d="M2.4080 5.6330
L2.4110 5.6110
" />
<path d="M2.4080 5.7200
L2.4050 5.6980
" />
<path d="M2.4090 5.7420
L2.4080 5.7200
" />
<path d="M2.4110 2.5190
L2.4080 2.4970
" />
<path d="M2.4110 5.6110
L2.4150 5.5890
" />
<path d="M2.4120 2.3660
L2.4160 2.3450
" />
<path d="M2.4120 5.7640
L2.4090 5.7420
" />
<path d="M2.4150 2.5410
L2.4110 2.5190
" />
<path d="M2.4150 5.5890
L2.4200 5.5670
" />
<path d="M2.4160 2.3450
L2.4200 2.3240
" />
<path d="M2.4160 5.7850
L2.4120 5.7640
" />
<path d="M2.4200 2.3240
L2.4270 2.3030
" />
<path d="M2.4200 2.5630
L2.4150 2.5410
" />
<path d="M2.4200 5.5670
L2.4240 5.5470
" />
<path d="M2.4200 5.8060
L2.4160 5.7850
" />
<path d="M2.4240 2.5830
L2.4200 2.5630
" />
<path d="M2.4240 5.5470
L2.4320 5.5250
" />
<path d="M2.4270 2.3030
L2.4330 2.2810
" />
<path d="M2.4270 5.8270
L2.4200 5.8060
" />
<path d="M2.4320 2.6050
L2.4240 2.5830
" />
<path d="M2.4320 5.5250
L2.4390 5.5040
" />
<path d="M2.4330 2.2810
L2.4410 2.2610
" />
<path d="M2.4330 5.8490
L2.4270 5.8270
" />
<path d="M2.4390 2.6260
L2.4320 2.6050
" />
<path d="M2.4390 5.5040
L2.4480 5.4840
" />
<path d="M2.4410 2.2610
L2.4490 2.2410
" />
<path d="M2.4410 3.2440
L2.4970 3.1130
" />
<path d="M2.4410 3.2440
L2.4970 3.1130
" />
</g>
<g style="fill:#000000; fill-opacity:1.0000; stroke:none;">
<circle cx="2.4410" cy="4.0650" r="0.0100" /> 
<circle cx="2.4410" cy="4.0650" r="0.0100" /> 
</g>
<g style="fill:none; 
stroke:#000000; stroke-width:0.0200; stroke-opacity:1; 
stroke-linecap:round; stroke-linejoin:round;">
<path d="M2.4410 4.0650
L2.4440 4.1720
" />
<path d="M2.4410 4.0650
L2.4440 4.1720
" />
<path d="M2.4410 4.8860
L2.3930 4.7530
" />
<path d="M2.4410 4.8860
L2.3930 4.7530
" />
<path d="M2.4410 5.8690
L2.4330 5.8490
" />
<path d="M2.4440 3.9580
L2.4410 4.0650
" />
<path d="M2.4440 3.9580
L2.4410 4.0650
" />
<path d="M2.4440 4.1720
L2.4520 4.2780
" />
<path d="M2.4440 4.1720
L2.4520 4.2780
" />
<path d="M2.4480 2.6460
L2.4390 2.6260
" />
<path d="M2.4480 5.4840
L2.4560 5.4620
" />
<path d="M2.4490 2.2410
L2.4600 2.2210
" />
<path d="M2.4490 5.8890
L2.4410 5.8690
" />
<path d="M2.4520 3.0910
L2.5210 2.9600
" />
<path d="M2.4520 3.8520
L2.4440 3.9580
" />
<path d="M2.4520 3.8520
L2.4440 3.9580
" />
<path d="M2.4520 4.2780
L2.4650 4.3820
" />
<path d="M2.4520 4.2780
L2.4650 4.3820
" />
<path d="M2.4520 5.0390
L2.3950 4.9050
" />
<path d="M2.4560 2.4140
L2.4610 2.3740
" />
<path d="M2.4560 2.4140
L2.4610 2.3740
" />
<path d="M2.4560 2.4530
L2.4560 2.4140
" />
<path d="M2.4560 2.4530
L2.4560 2.4140
" />
<path d="M2.4560 2.4720
L2.4560 2.4530
" />
<path d="M2.4560 2.4720
L2.4560 2.4530
" />
<path d="M2.4560 2.6680
L2.4480 2.6460
" />
<path d="M2.4560 5.4620
L2.4680 5.4420
" />
<path d="M2.4560 5.6580
L2.4570 5.6380
" />
<path d="M2.4560 5.6580
L2.4570 5.6380
" />
<path d="M2.4560 5.6770
L2.4560 5.6580
" />
<path d="M2.4560 5.6770
L2.4560 5.6580
" />
<path d="M2.4560 5.6960
L2.4560 5.6770
" />
<path d="M2.4560 5.6960
L2.4560 5.6770
" />
<path d="M2.4560 5.7160
L2.4560 5.6960
" />
<path d="M2.4560 5.7160
L2.4560 5.6960
" />
<path d="M2.4570 2.4920
L2.4560 2.4720
" />
<path d="M2.4570 2.4920
L2.4560 2.4720
" />
<path d="M2.4570 5.6380
L2.4600 5.6180
" />
<path d="M2.4570 5.6380
L2.4600 5.6180
" />
<path d="M2.4590 5.7360
L2.4560 5.7160
" />
<path d="M2.4590 5.7360
L2.4560 5.7160
" />
<path d="M2.4600 2.2210
L2.4690 2.2010
" />
<path d="M2.4600 2.5120
L2.4570 2.4920
" />
<path d="M2.4600 2.5120
L2.4570 2.4920
" />
<path d="M2.4600 5.6180
L2.4640 5.5990
" />
<path d="M2.4600 5.6180
L2.4640 5.5990
" />
<path d="M2.4600 5.9090
L2.4490 5.8890
" />
<path d="M2.4610 2.3740
L2.4650 2.3550
" />
<path d="M2.4610 2.3740
L2.4650 2.3550
" />
<path d="M2.4610 5.7560
L2.4590 5.7360
" />
<path d="M2.4610 5.7560
L2.4590 5.7360
" />
<path d="M2.4640 2.5310
L2.4600 2.5120
" />
<path d="M2.4640 2.5310
L2.4600 2.5120
" />
<path d="M2.4640 5.5990
L2.4680 5.5790
" />
<path d="M2.4640 5.5990
L2.4680 5.5790
" />
<path d="M2.4650 2.3550
L2.4690 2.3360
" />
<path d="M2.4650 2.3550
L2.4690 2.3360
" />
<path d="M2.4650 3.7480
L2.4520 3.8520
" />
<path d="M2.4650 3.7480
L2.4520 3.8520
" />
<path d="M2.4650 4.3820
L2.4850 4.4840
" />
<path d="M2.4650 4.3820
L2.4850 4.4840
" />
<path d="M2.4650 5.7750
L2.4610 5.7560
" />
<path d="M2.4650 5.7750
L2.4610 5.7560
" />
<path d="M2.4680 2.5510
L2.4640 2.5310
" />
<path d="M2.4680 2.5510
L2.4640 2.5310
" />
<path d="M2.4680 2.6880
L2.4560 2.6680
" />
<path d="M2.4680 5.4420
L2.4780 5.4240
" />
<path d="M2.4680 5.5790
L2.4720 5.5600
" />
<path d="M2.4680 5.5790
L2.4720 5.5600
" />
<path d="M2.4690 2.2010
L2.4810 2.1820
" />
<path d="M2.4690 2.3360
L2.4750 2.3170
" />
<path d="M2.4690 2.3360
L2.4750 2.3170
" />
<path d="M2.4690 5.7940
L2.4650 5.7750
" />
<path d="M2.4690 5.7940
L2.4650 5.7750
" />
<path d="M2.4690 5.9290
L2.4600 5.9090
" />
<path d="M2.4720 2.5700
L2.4680 2.5510
" />
<path d="M2.4720 2.5700
L2.4680 2.5510
" />
<path d="M2.4720 5.5600
L2.4780 5.5410
" />
<path d="M2.4720 5.5600
L2.4780 5.5410
" />
<path d="M2.4750 2.3170
L2.4800 2.2990
" />
<path d="M2.4750 2.3170
L2.4800 2.2990
" />
<path d="M2.4750 5.8130
L2.4690 5.7940
" />
<path d="M2.4750 5.8130
L2.4690 5.7940
" />
<path d="M2.4780 2.5890
L2.4720 2.5700
" />
<path d="M2.4780 2.5890
L2.4720 2.5700
" />
<path d="M2.4780 2.7060
L2.4680 2.6880
" />
<path d="M2.4780 5.4240
L2.4930 5.4040
" />
<path d="M2.4780 5.5410
L2.4850 5.5220
" />
<path d="M2.4780 5.5410
L2.4850 5.5220
" />
<path d="M2.4800 2.2990
L2.4890 2.2790
" />
<path d="M2.4800 2.2990
L2.4890 2.2790
" />
<path d="M2.4800 5.8310
L2.4750 5.8130
" />
<path d="M2.4800 5.8310
L2.4750 5.8130
" />
<path d="M2.4810 2.1820
L2.4930 2.1640
" />
<path d="M2.4810 5.9480
L2.4690 5.9290
" />
<path d="M2.4850 2.6080
L2.4780 2.5890
" />
<path d="M2.4850 2.6080
L2.4780 2.5890
" />
<path d="M2.4850 3.6460
L2.4650 3.7480
" />
<path d="M2.4850 3.6460
L2.4650 3.7480
" />
<path d="M2.4850 4.4840
L2.5090 4.5850
" />
<path d="M2.4850 4.4840
L2.5090 4.5850
" />
<path d="M2.4850 5.5220
L2.4930 5.5040
" />
<path d="M2.4850 5.5220
L2.4930 5.5040
" />
<path d="M2.4890 2.2790
L2.4970 2.2610
" />
<path d="M2.4890 2.2790
L2.4970 2.2610
" />
<path d="M2.4890 5.8510
L2.4800 5.8310
" />
<path d="M2.4890 5.8510
L2.4800 5.8310
" />
<path d="M2.4930 2.1640
L2.5060 2.1450
" />
<path d="M2.4930 2.6260
L2.4850 2.6080
" />
<path d="M2.4930 2.6260
L2.4850 2.6080
" />
<path d="M2.4930 2.7260
L2.4780 2.7060
" />
<path d="M2.4930 4.1090
L2.5010 4.2580
" />
<path d="M2.4930 5.4040
L2.5050 5.3850
" />
<path d="M2.4930 5.5040
L2.5010 5.4850
" />
<path d="M2.4930 5.5040
L2.5010 5.4850
" />
<path d="M2.4930 5.9660
L2.4810 5.9480
" />
<path d="M2.4940 3.9630
L2.4930 4.1090
" />
<path d="M2.4970 2.2610
L2.5050 2.2430
" />
<path d="M2.4970 2.2610
L2.5050 2.2430
" />
<path d="M2.4970 3.1130
L2.5630 2.9850
" />
<path d="M2.4970 3.1130
L2.5630 2.9850
" />
<path d="M2.4970 5.0170
L2.4410 4.8860
" />
<path d="M2.4970 5.0170
L2.4410 4.8860
" />
<path d="M2.4970 5.8690
L2.4890 5.8510
" />
<path d="M2.4970 5.8690
L2.4890 5.8510
" />
<path d="M2.5010 2.6450
L2.4930 2.6260
" />
<path d="M2.5010 2.6450
L2.4930 2.6260
" />
<path d="M2.5010 4.2580
L2.5210 4.4060
" />
<path d="M2.5010 5.4850
L2.5130 5.4660
" />
<path d="M2.5010 5.4850
L2.5130 5.4660
" />
<path d="M2.5050 2.2430
L2.5130 2.2250
" />
<path d="M2.5050 2.2430
L2.5130 2.2250
" />
<path d="M2.5050 2.7450
L2.4930 2.7260
" />
<path d="M2.5050 5.3850
L2.5130 5.3730
" />
<path d="M2.5050 5.8870
L2.4970 5.8690
" />
<path d="M2.5050 5.8870
L2.4970 5.8690
" />
<path d="M2.5060 2.1450
L2.5210 2.1270
" />
<path d="M2.5060 5.9850
L2.4930 5.9660
" />
<path d="M2.5090 3.5450
L2.4850 3.6460
" />
<path d="M2.5090 3.5450
L2.4850 3.6460
" />
<path d="M2.5090 3.8150
L2.4940 3.9630
" />
<path d="M2.5090 4.5850
L2.5350 4.6840
" />
<path d="M2.5090 4.5850
L2.5350 4.6840
" />
<path d="M2.5130 2.2250
L2.5250 2.2080
" />
<path d="M2.5130 2.2250
L2.5250 2.2080
" />
<path d="M2.5130 2.6640
L2.5010 2.6450
" />
<path d="M2.5130 2.6640
L2.5010 2.6450
" />
<path d="M2.5130 2.7570
L2.5050 2.7450
" />
<path d="M2.5130 5.3730
L2.5210 5.3610
" />
<path d="M2.5130 5.4660
L2.5210 5.4500
" />
<path d="M2.5130 5.4660
L2.5210 5.4500
" />
<path d="M2.5130 5.9050
L2.5050 5.8870
" />
<path d="M2.5130 5.9050
L2.5050 5.8870
" />
<path d="M2.5210 2.1270
L2.5370 2.1090
" />
<path d="M2.5210 2.6800
L2.5130 2.6640
" />
<path d="M2.5210 2.6800
L2.5130 2.6640
" />
<path d="M2.5210 2.7690
L2.5130 2.7570
" />
<path d="M2.5210 2.9600
L2.5250 2.9470
" />
<path d="M2.5210 4.4060
L2.5520 4.5530
" />
<path d="M2.5210 5.1700
L2.4520 5.0390
" />
<path d="M2.5210 5.3610
L2.5270 5.3480
" />
<path d="M2.5210 5.4500
L2.5330 5.4320
" />
<path d="M2.5210 5.4500
L2.5330 5.4320
" />
<path d="M2.5210 6.0030
L2.5060 5.9850
" />
<path d="M2.5250 2.2080
L2.5350 2.1910
" />
<path d="M2.5250 2.2080
L2.5350 2.1910
" />
<path d="M2.5250 2.9470
L2.5310 2.9340
" />
<path d="M2.5250 5.1830
L2.5210 5.1700
" />
<path d="M2.5250 5.9220
L2.5130 5.9050
" />
<path d="M2.5250 5.9220
L2.5130 5.9050
" />
<path d="M2.5270 2.7820
L2.5210 2.7690
" />
<path d="M2.5270 5.3480
L2.5310 5.3350
" />
<path d="M2.5310 2.7950
L2.5270 2.7820
" />
<path d="M2.5310 2.9340
L2.5350 2.9200
" />
<path d="M2.5310 3.6690
L2.5090 3.8150
" />
<path d="M2.5310 5.1960
L2.5250 5.1830
" />
<path d="M2.5310 5.3350
L2.5370 5.3210
" />
<path d="M2.5330 2.6980
L2.5210 2.6800
" />
<path d="M2.5330 2.6980
L2.5210 2.6800
" />
<path d="M2.5330 5.4320
L2.5450 5.4150
" />
<path d="M2.5330 5.4320
L2.5450 5.4150
" />
<path d="M2.5350 2.1910
L2.5470 2.1760
" />
<path d="M2.5350 2.1910
L2.5470 2.1760
" />
<path d="M2.5350 2.9200
L2.5390 2.9070
" />
<path d="M2.5350 3.4460
L2.5090 3.5450
" />
<path d="M2.5350 3.4460
L2.5090 3.5450
" />
<path d="M2.5350 4.6840
L2.5690 4.7810
" />
<path d="M2.5350 4.6840
L2.5690 4.7810
" />
<path d="M2.5350 5.2100
L2.5310 5.1960
" />
<path d="M2.5350 5.9390
L2.5250 5.9220
" />
<path d="M2.5350 5.9390
L2.5250 5.9220
" />
<path d="M2.5370 2.1090
L2.5530 2.0930
" />
<path d="M2.5370 2.8090
L2.5310 2.7950
" />
<path d="M2.5370 5.3210
L2.5390 5.3080
" />
<path d="M2.5370 6.0210
L2.5210 6.0030
" />
<path d="M2.5390 2.8220
L2.5370 2.8090
" />
<path d="M2.5390 2.9070
L2.5410 2.8930
" />
<path d="M2.5390 5.2230
L2.5350 5.2100
" />
<path d="M2.5390 5.3080
L2.5430 5.2940
" />
<path d="M2.5410 2.8930
L2.5430 2.8790
" />
<path d="M2.5410 5.2370
L2.5390 5.2230
" />
<path d="M2.5430 2.8360
L2.5390 2.8220
" />
<path d="M2.5430 2.8500
L2.5430 2.8360
" />
<path d="M2.5430 2.8790
L2.5450 2.8640
" />
<path d="M2.5430 5.2510
L2.5410 5.2370
" />
<path d="M2.5430 5.2800
L2.5450 5.2660
" />
<path d="M2.5430 5.2940
L2.5430 5.2800
" />
<path d="M2.5450 2.7150
L2.5330 2.6980
" />
<path d="M2.5450 2.7150
L2.5330 2.6980
" />
<path d="M2.5450 2.8640
L2.5430 2.8500
" />
<path d="M2.5450 5.2660
L2.5430 5.2510
" />
<path d="M2.5450 5.4150
L2.5550 5.4000
" />
<path d="M2.5450 5.4150
L2.5550 5.4000
" />
<path d="M2.5470 2.1760
L2.5600 2.1600
" />
<path d="M2.5470 2.1760
L2.5600 2.1600
" />
<path d="M2.5470 5.9540
L2.5350 5.9390
" />
<path d="M2.5470 5.9540
L2.5350 5.9390
" />
<path d="M2.5520 4.5530
L2.5940 4.6990
" />
</g>
<g style="fill:#000000; fill-opacity:1.0000; stroke:none;">
<circle cx="2.5530" cy="2.0930" r="0.0100" /> 
</g>
<g style="fill:none; 
stroke:#000000; stroke-width:0.0200; stroke-opacity:1; 
stroke-linecap:round; stroke-linejoin:round;">
<path d="M2.5530 2.0930
L2.5690 2.0770
" />
<path d="M2.5530 6.0370
L2.5370 6.0210
" />
</g>
<g style="fill:#000000; fill-opacity:1.0000; stroke:none;">
<circle cx="2.5530" cy="6.0370" r="0.0100" /> 
</g>
<g style="fill:none; 
stroke:#000000; stroke-width:0.0200; stroke-opacity:1; 
stroke-linecap:round; stroke-linejoin:round;">
<path d="M2.5550 2.7300
L2.5450 2.7150
" />
<path d="M2.5550 2.7300
L2.5450 2.7150
" />
<path d="M2.5550 5.4000
L2.5650 5.3850
" />
<path d="M2.5550 5.4000
L2.5650 5.3850
" />
<path d="M2.5600 2.1600
L2.5740 2.1430
" />
<path d="M2.5600 2.1600
L2.5740 2.1430
" />
<path d="M2.5600 5.9700
L2.5470 5.9540
" />
<path d="M2.5600 5.9700
L2.5470 5.9540
" />
<path d="M2.5630 2.9850
L2.5720 2.9680
" />
<path d="M2.5630 2.9850
L2.5720 2.9680
" />
<path d="M2.5630 5.1450
L2.4970 5.0170
" />
<path d="M2.5630 5.1450
L2.4970 5.0170
" />
<path d="M2.5650 2.7450
L2.5550 2.7300
" />
<path d="M2.5650 2.7450
L2.5550 2.7300
" />
<path d="M2.5650 3.5250
L2.5310 3.6690
" />
<path d="M2.5650 5.3850
L2.5730 5.3690
" />
<path d="M2.5650 5.3850
L2.5730 5.3690
" />
<path d="M2.5690 2.0770
L2.5870 2.0620
" />
<path d="M2.5690 3.3490
L2.5350 3.4460
" />
<path d="M2.5690 3.3490
L2.5350 3.4460
" />
<path d="M2.5690 4.7810
L2.6060 4.8750
" />
<path d="M2.5690 4.7810
L2.6060 4.8750
" />
<path d="M2.5690 6.0530
L2.5530 6.0370
" />
<path d="M2.5720 2.9680
L2.5790 2.9520
" />
<path d="M2.5720 2.9680
L2.5790 2.9520
" />
<path d="M2.5720 5.1620
L2.5630 5.1450
" />
<path d="M2.5720 5.1620
L2.5630 5.1450
" />
<path d="M2.5730 2.7610
L2.5650 2.7450
" />
<path d="M2.5730 2.7610
L2.5650 2.7450
" />
<path d="M2.5730 5.3690
L2.5790 5.3520
" />
<path d="M2.5730 5.3690
L2.5790 5.3520
" />
<path d="M2.5740 2.1430
L2.5880 2.1280
" />
<path d="M2.5740 2.1430
L2.5880 2.1280
" />
<path d="M2.5740 5.9870
L2.5600 5.9700
" />
<path d="M2.5740 5.9870
L2.5600 5.9700
" />
<path d="M2.5790 2.7780
L2.5730 2.7610
" />
<path d="M2.5790 2.7780
L2.5730 2.7610
" />
<path d="M2.5790 2.9520
L2.5840 2.9360
" />
<path d="M2.5790 2.9520
L2.5840 2.9360
" />
<path d="M2.5790 5.1780
L2.5720 5.1620
" />
<path d="M2.5790 5.1780
L2.5720 5.1620
" />
<path d="M2.5790 5.3520
L2.5850 5.3350
" />
<path d="M2.5790 5.3520
L2.5850 5.3350
" />
<path d="M2.5840 2.9360
L2.5890 2.9180
" />
<path d="M2.5840 2.9360
L2.5890 2.9180
" />
<path d="M2.5840 5.1940
L2.5790 5.1780
" />
<path d="M2.5840 5.1940
L2.5790 5.1780
" />
<path d="M2.5850 2.7950
L2.5790 2.7780
" />
<path d="M2.5850 2.7950
L2.5790 2.7780
" />
<path d="M2.5850 5.3350
L2.5890 5.3170
" />
<path d="M2.5850 5.3350
L2.5890 5.3170
" />
<path d="M2.5870 2.0620
L2.6050 2.0490
" />
<path d="M2.5870 6.0680
L2.5690 6.0530
" />
</g>
<g style="fill:#000000; fill-opacity:1.0000; stroke:none;">
<circle cx="2.5880" cy="2.1280" r="0.0100" /> 
<circle cx="2.5880" cy="2.1280" r="0.0100" /> 
</g>
<g style="fill:none; 
stroke:#000000; stroke-width:0.0200; stroke-opacity:1; 
stroke-linecap:round; stroke-linejoin:round;">
<path d="M2.5880 2.1280
L2.6030 2.1140
" />
<path d="M2.5880 2.1280
L2.6030 2.1140
" />
<path d="M2.5880 6.0020
L2.5740 5.9870
" />
<path d="M2.5880 6.0020
L2.5740 5.9870
" />
</g>
<g style="fill:#000000; fill-opacity:1.0000; stroke:none;">
<circle cx="2.5880" cy="6.0020" r="0.0100" /> 
<circle cx="2.5880" cy="6.0020" r="0.0100" /> 
</g>
<g style="fill:none; 
stroke:#000000; stroke-width:0.0200; stroke-opacity:1; 
stroke-linecap:round; stroke-linejoin:round;">
<path d="M2.5890 2.8130
L2.5850 2.7950
" />
<path d="M2.5890 2.8130
L2.5850 2.7950
" />
<path d="M2.5890 2.9180
L2.5920 2.9000
" />
<path d="M2.5890 2.9180
L2.5920 2.9000
" />
<path d="M2.5890 5.2120
L2.5840 5.1940
" />
<path d="M2.5890 5.2120
L2.5840 5.1940
" />
<path d="M2.5890 5.3170
L2.5920 5.3010
" />
<path d="M2.5890 5.3170
L2.5920 5.3010
" />
<path d="M2.5920 2.8290
L2.5890 2.8130
" />
<path d="M2.5920 2.8290
L2.5890 2.8130
" />
<path d="M2.5920 2.9000
L2.5940 2.8820
" />
<path d="M2.5920 2.9000
L2.5940 2.8820
" />
</g>
<g style="fill:#000000; fill-opacity:1.0000; stroke:none;">
<circle cx="2.5920" cy="4.0650" r="0.0100" /> 
</g>
<g style="fill:none; 
stroke:#000000; stroke-width:0.0200; stroke-opacity:1; 
stroke-linecap:round; stroke-linejoin:round;">
<path d="M2.5920 4.0650
L2.5950 4.1640
" />
<path d="M2.5920 5.2300
L2.5890 5.2120
" />
<path d="M2.5920 5.2300
L2.5890 5.2120
" />
<path d="M2.5920 5.3010
L2.5940 5.2830
" />
<path d="M2.5920 5.3010
L2.5940 5.2830
" />
<path d="M2.5940 2.8470
L2.5920 2.8290
" />
<path d="M2.5940 2.8470
L2.5920 2.8290
" />
<path d="M2.5940 2.8820
L2.5950 2.8650
" />
<path d="M2.5940 2.8820
L2.5950 2.8650
" />
<path d="M2.5940 4.6990
L2.6460 4.8430
" />
<path d="M2.5940 5.2480
L2.5920 5.2300
" />
<path d="M2.5940 5.2480
L2.5920 5.2300
" />
<path d="M2.5940 5.2830
L2.5950 5.2650
" />
<path d="M2.5940 5.2830
L2.5950 5.2650
" />
<path d="M2.5950 2.8650
L2.5940 2.8470
" />
<path d="M2.5950 2.8650
L2.5940 2.8470
" />
<path d="M2.5950 3.9660
L2.5920 4.0650
" />
<path d="M2.5950 4.1640
L2.6020 4.2620
" />
<path d="M2.5950 5.2650
L2.5940 5.2480
" />
<path d="M2.5950 5.2650
L2.5940 5.2480
" />
<path d="M2.6020 3.8680
L2.5950 3.9660
" />
<path d="M2.6020 4.2620
L2.6140 4.3590
" />
<path d="M2.6030 2.1140
L2.6180 2.1000
" />
<path d="M2.6030 2.1140
L2.6180 2.1000
" />
<path d="M2.6030 6.0160
L2.5880 6.0020
" />
<path d="M2.6030 6.0160
L2.5880 6.0020
" />
<path d="M2.6050 2.0490
L2.6220 2.0340
" />
<path d="M2.6050 6.0810
L2.5870 6.0680
" />
<path d="M2.6060 3.2550
L2.5690 3.3490
" />
<path d="M2.6060 3.2550
L2.5690 3.3490
" />
<path d="M2.6060 4.8750
L2.6480 4.9680
" />
<path d="M2.6060 4.8750
L2.6480 4.9680
" />
<path d="M2.6100 3.3840
L2.5650 3.5250
" />
<path d="M2.6140 3.7710
L2.6020 3.8680
" />
<path d="M2.6140 4.3590
L2.6300 4.4540
" />
<path d="M2.6180 2.1000
L2.6340 2.0870
" />
<path d="M2.6180 2.1000
L2.6340 2.0870
" />
<path d="M2.6180 6.0300
L2.6030 6.0160
" />
<path d="M2.6180 6.0300
L2.6030 6.0160
" />
<path d="M2.6220 2.0340
L2.6420 2.0220
" />
<path d="M2.6220 6.0960
L2.6050 6.0810
" />
<path d="M2.6300 3.6760
L2.6140 3.7710
" />
<path d="M2.6300 4.4540
L2.6520 4.5480
" />
<path d="M2.6340 2.0870
L2.6500 2.0750
" />
<path d="M2.6340 2.0870
L2.6500 2.0750
" />
<path d="M2.6340 6.0430
L2.6180 6.0300
" />
<path d="M2.6340 6.0430
L2.6180 6.0300
" />
<path d="M2.6420 2.0220
L2.6600 2.0100
" />
<path d="M2.6420 6.1080
L2.6220 6.0960
" />
</g>
<g style="fill:#000000; fill-opacity:1.0000; stroke:none;">
<circle cx="2.6460" cy="4.8430" r="0.0100" /> 
</g>
<g style="fill:none; 
stroke:#000000; stroke-width:0.0200; stroke-opacity:1; 
stroke-linecap:round; stroke-linejoin:round;">
<path d="M2.6460 4.8430
L2.6780 4.9130
" />
<path d="M2.6480 3.1620
L2.6060 3.2550
" />
<path d="M2.6480 3.1620
L2.6060 3.2550
" />
<path d="M2.6480 4.9680
L2.6940 5.0580
" />
<path d="M2.6480 4.9680
L2.6940 5.0580
" />
<path d="M2.6500 2.0750
L2.6680 2.0650
" />
<path d="M2.6500 2.0750
L2.6680 2.0650
" />
<path d="M2.6500 6.0550
L2.6340 6.0430
" />
<path d="M2.6500 6.0550
L2.6340 6.0430
" />
<path d="M2.6520 3.5820
L2.6300 3.6760
" />
<path d="M2.6520 4.5480
L2.6790 4.6380
" />
<path d="M2.6600 2.0100
L2.6810 2.0000
" />
<path d="M2.6600 6.1200
L2.6420 6.1080
" />
<path d="M2.6640 3.2470
L2.6100 3.3840
" />
<path d="M2.6680 2.0650
L2.6850 2.0540
" />
<path d="M2.6680 2.0650
L2.6850 2.0540
" />
<path d="M2.6680 6.0650
L2.6500 6.0550
" />
<path d="M2.6680 6.0650
L2.6500 6.0550
" />
<path d="M2.6780 4.9130
L2.7110 4.9820
" />
<path d="M2.6790 3.4920
L2.6520 3.5820
" />
<path d="M2.6790 4.6380
L2.7090 4.7290
" />
<path d="M2.6810 2.0000
L2.7010 1.9900
" />
<path d="M2.6810 6.1300
L2.6600 6.1200
" />
<path d="M2.6850 2.0540
L2.7030 2.0450
" />
<path d="M2.6850 2.0540
L2.7030 2.0450
" />
<path d="M2.6850 6.0760
L2.6680 6.0650
" />
<path d="M2.6850 6.0760
L2.6680 6.0650
" />
<path d="M2.6940 3.0720
L2.6480 3.1620
" />
<path d="M2.6940 3.0720
L2.6480 3.1620
" />
<path d="M2.6940 5.0580
L2.7430 5.1450
" />
<path d="M2.6940 5.0580
L2.7430 5.1450
" />
<path d="M2.7010 1.9900
L2.7210 1.9820
" />
<path d="M2.7010 6.1400
L2.6810 6.1300
" />
<path d="M2.7030 2.0450
L2.7210 2.0370
" />
<path d="M2.7030 2.0450
L2.7210 2.0370
" />
<path d="M2.7030 6.0850
L2.6850 6.0760
" />
<path d="M2.7030 6.0850
L2.6850 6.0760
" />
<path d="M2.7090 3.4010
L2.6790 3.4920
" />
<path d="M2.7090 4.7290
L2.7430 4.8170
" />
<path d="M2.7110 4.9820
L2.7450 5.0490
" />
<path d="M2.7210 1.9820
L2.7410 1.9740
" />
<path d="M2.7210 2.0370
L2.7390 2.0290
" />
<path d="M2.7210 2.0370
L2.7390 2.0290
" />
<path d="M2.7210 6.0930
L2.7030 6.0850
" />
<path d="M2.7210 6.0930
L2.7030 6.0850
" />
<path d="M2.7210 6.1480
L2.7010 6.1400
" />
<path d="M2.7290 3.1130
L2.6640 3.2470
" />
<path d="M2.7390 2.0290
L2.7570 2.0210
" />
<path d="M2.7390 2.0290
L2.7570 2.0210
" />
<path d="M2.7390 6.1010
L2.7210 6.0930
" />
<path d="M2.7390 6.1010
L2.7210 6.0930
" />
<path d="M2.7410 1.9740
L2.7610 1.9670
" />
<path d="M2.7410 6.1560
L2.7210 6.1480
" />
<path d="M2.7430 2.9850
L2.6940 3.0720
" />
<path d="M2.7430 2.9850
L2.6940 3.0720
" />
<path d="M2.7430 3.3130
L2.7090 3.4010
" />
<path d="M2.7430 4.8170
L2.7830 4.9030
" />
<path d="M2.7430 5.1450
L2.7970 5.2290
" />
<path d="M2.7430 5.1450
L2.7970 5.2290
" />
<path d="M2.7450 5.0490
L2.7830 5.1150
" />
<path d="M2.7570 2.0210
L2.7770 2.0150
" />
<path d="M2.7570 2.0210
L2.7770 2.0150
" />
<path d="M2.7570 6.1090
L2.7390 6.1010
" />
<path d="M2.7570 6.1090
L2.7390 6.1010
" />
<path d="M2.7610 1.9670
L2.7830 1.9610
" />
<path d="M2.7610 6.1630
L2.7410 6.1560
" />
<path d="M2.7770 2.0150
L2.7950 2.0100
" />
<path d="M2.7770 2.0150
L2.7950 2.0100
" />
<path d="M2.7770 6.1150
L2.7570 6.1090
" />
<path d="M2.7770 6.1150
L2.7570 6.1090
" />
<path d="M2.7830 1.9610
L2.8050 1.9570
" />
<path d="M2.7830 3.2270
L2.7430 3.3130
" />
<path d="M2.7830 4.9030
L2.8250 4.9860
" />
<path d="M2.7830 5.1150
L2.8240 5.1790
" />
<path d="M2.7830 6.1690
L2.7610 6.1630
" />
<path d="M2.7950 2.0100
L2.8150 2.0060
" />
<path d="M2.7950 2.0100
L2.8150 2.0060
" />
<path d="M2.7950 6.1200
L2.7770 6.1150
" />
<path d="M2.7950 6.1200
L2.7770 6.1150
" />
<path d="M2.7970 2.9010
L2.7430 2.9850
" />
<path d="M2.7970 2.9010
L2.7430 2.9850
" />
<path d="M2.7970 5.2290
L2.8560 5.3110
" />
<path d="M2.7970 5.2290
L2.8560 5.3110
" />
<path d="M2.8040 2.9830
L2.7290 3.1130
" />
<path d="M2.8050 1.9570
L2.8260 1.9530
" />
<path d="M2.8050 6.1730
L2.7830 6.1690
" />
<path d="M2.8150 2.0060
L2.8340 2.0020
" />
<path d="M2.8150 2.0060
L2.8340 2.0020
" />
<path d="M2.8150 6.1240
L2.7950 6.1200
" />
<path d="M2.8150 6.1240
L2.7950 6.1200
" />
<path d="M2.8240 5.1790
L2.8660 5.2410
" />
<path d="M2.8250 3.1440
L2.7830 3.2270
" />
<path d="M2.8250 4.9860
L2.8720 5.0670
" />
<path d="M2.8260 1.9530
L2.8480 1.9500
" />
<path d="M2.8260 6.1770
L2.8050 6.1730
" />
<path d="M2.8340 2.0020
L2.8540 1.9990
" />
<path d="M2.8340 2.0020
L2.8540 1.9990
" />
<path d="M2.8340 6.1280
L2.8150 6.1240
" />
<path d="M2.8340 6.1280
L2.8150 6.1240
" />
<path d="M2.8480 1.9500
L2.8700 1.9480
" />
<path d="M2.8540 1.9990
L2.8720 1.9970
" />
<path d="M2.8540 1.9990
L2.8720 1.9970
" />
<path d="M2.8560 2.8190
L2.7970 2.9010
" />
<path d="M2.8560 2.8190
L2.7970 2.9010
" />
<path d="M2.8560 5.3110
L2.9180 5.3900
" />
<path d="M2.8560 5.3110
L2.9180 5.3900
" />
<path d="M2.8660 5.2410
L2.9100 5.3010
" />
<path d="M2.8700 1.9480
L2.8920 1.9460
" />
<path d="M2.8700 6.1820
L2.8260 6.1770
" />
<path d="M2.8720 1.9970
L2.8920 1.9960
" />
<path d="M2.8720 1.9970
L2.8920 1.9960
" />
<path d="M2.8720 3.0630
L2.8250 3.1440
" />
<path d="M2.8720 5.0670
L2.9220 5.1450
" />
<path d="M2.8720 6.1330
L2.8340 6.1280
" />
<path d="M2.8720 6.1330
L2.8340 6.1280
" />
<path d="M2.8880 2.8590
L2.8040 2.9830
" />
<path d="M2.8920 1.9460
L2.9120 1.9460
" />
<path d="M2.8920 1.9960
L2.9120 1.9960
" />
<path d="M2.8920 1.9960
L2.9120 1.9960
" />
<path d="M2.9100 5.3010
L2.9580 5.3590
" />
<path d="M2.9120 1.9460
L2.9350 1.9470
" />
<path d="M2.9120 1.9960
L2.9320 1.9970
" />
<path d="M2.9120 1.9960
L2.9320 1.9970
" />
<path d="M2.9120 6.1340
L2.8720 6.1330
" />
<path d="M2.9120 6.1340
L2.8720 6.1330
" />
<path d="M2.9120 6.1840
L2.8700 6.1820
" />
<path d="M2.9180 2.7400
L2.8560 2.8190
" />
<path d="M2.9180 2.7400
L2.8560 2.8190
" />
<path d="M2.9180 5.3900
L2.9830 5.4640
" />
<path d="M2.9180 5.3900
L2.9830 5.4640
" />
<path d="M2.9220 2.9850
L2.8720 3.0630
" />
<path d="M2.9220 5.1450
L2.9760 5.2210
" />
<path d="M2.9320 1.9970
L2.9520 1.9980
" />
<path d="M2.9320 1.9970
L2.9520 1.9980
" />
<path d="M2.9320 6.1330
L2.9120 6.1340
" />
<path d="M2.9320 6.1330
L2.9120 6.1340
" />
<path d="M2.9350 1.9470
L2.9570 1.9490
" />
<path d="M2.9350 6.1830
L2.9120 6.1840
" />
<path d="M2.9520 1.9980
L2.9720 2.0010
" />
<path d="M2.9520 1.9980
L2.9720 2.0010
" />
<path d="M2.9520 6.1320
L2.9320 6.1330
" />
<path d="M2.9520 6.1320
L2.9320 6.1330
" />
<path d="M2.9570 1.9490
L2.9790 1.9510
" />
<path d="M2.9570 6.1810
L2.9350 6.1830
" />
<path d="M2.9580 5.3590
L3.0050 5.4160
" />
<path d="M2.9720 2.0010
L2.9910 2.0040
" />
<path d="M2.9720 2.0010
L2.9910 2.0040
" />
<path d="M2.9720 6.1290
L2.9520 6.1320
" />
<path d="M2.9720 6.1290
L2.9520 6.1320
" />
<path d="M2.9760 2.9090
L2.9220 2.9850
" />
<path d="M2.9760 5.2210
L3.0330 5.2940
" />
<path d="M2.9790 1.9510
L3.0010 1.9550
" />
<path d="M2.9790 6.1790
L2.9570 6.1810
" />
<path d="M2.9830 2.6660
L2.9180 2.7400
" />
<path d="M2.9830 2.6660
L2.9180 2.7400
" />
<path d="M2.9830 2.7400
L2.8880 2.8590
" />
<path d="M2.9830 5.4640
L3.0510 5.5380
" />
<path d="M2.9830 5.4640
L3.0510 5.5380
" />
<path d="M2.9910 2.0040
L3.0090 2.0080
" />
<path d="M2.9910 2.0040
L3.0090 2.0080
" />
<path d="M2.9910 6.1260
L2.9720 6.1290
" />
<path d="M2.9910 6.1260
L2.9720 6.1290
" />
<path d="M3.0010 1.9550
L3.0210 1.9600
" />
<path d="M3.0010 6.1750
L2.9790 6.1790
" />
<path d="M3.0050 5.4160
L3.0550 5.4700
" />
<path d="M3.0090 2.0080
L3.0290 2.0130
" />
<path d="M3.0090 2.0080
L3.0290 2.0130
" />
<path d="M3.0090 6.1220
L2.9910 6.1260
" />
<path d="M3.0090 6.1220
L2.9910 6.1260
" />
<path d="M3.0210 1.9600
L3.0430 1.9650
" />
<path d="M3.0210 6.1700
L3.0010 6.1750
" />
<path d="M3.0290 2.0130
L3.0490 2.0200
" />
<path d="M3.0290 2.0130
L3.0490 2.0200
" />
<path d="M3.0290 6.1170
L3.0090 6.1220
" />
<path d="M3.0290 6.1170
L3.0090 6.1220
" />
<path d="M3.0330 2.8360
L2.9760 2.9090
" />
<path d="M3.0330 5.2940
L3.0940 5.3640
" />
<path d="M3.0430 1.9650
L3.0650 1.9720
" />
<path d="M3.0430 6.1650
L3.0210 6.1700
" />
<path d="M3.0490 2.0200
L3.0680 2.0260
" />
<path d="M3.0490 2.0200
L3.0680 2.0260
" />
<path d="M3.0490 6.1100
L3.0290 6.1170
" />
<path d="M3.0490 6.1100
L3.0290 6.1170
" />
<path d="M3.0510 2.5920
L2.9830 2.6660
" />
<path d="M3.0510 2.5920
L2.9830 2.6660
" />
<path d="M3.0510 5.5380
L3.1240 5.6070
" />
<path d="M3.0510 5.5380
L3.1240 5.6070
" />
<path d="M3.0550 5.4700
L3.1090 5.5230
" />
<path d="M3.0650 1.9720
L3.0860 1.9790
" />
<path d="M3.0650 6.1580
L3.0430 6.1650
" />
<path d="M3.0680 2.0260
L3.0860 2.0340
" />
<path d="M3.0680 2.0260
L3.0860 2.0340
" />
<path d="M3.0680 6.1040
L3.0490 6.1100
" />
<path d="M3.0680 6.1040
L3.0490 6.1100
" />
<path d="M3.0860 1.9790
L3.1060 1.9880
" />
<path d="M3.0860 2.0340
L3.1050 2.0420
" />
<path d="M3.0860 2.0340
L3.1050 2.0420
" />
<path d="M3.0860 6.0960
L3.0680 6.1040
" />
<path d="M3.0860 6.0960
L3.0680 6.1040
" />
<path d="M3.0860 6.1510
L3.0650 6.1580
" />
<path d="M3.0880 2.6280
L2.9830 2.7400
" />
</g>
<g style="fill:#000000; fill-opacity:1.0000; stroke:none;">
<circle cx="3.0880" cy="2.6280" r="0.0100" /> 
</g>
<g style="fill:none; 
stroke:#000000; stroke-width:0.0200; stroke-opacity:1; 
stroke-linecap:round; stroke-linejoin:round;">
<path d="M3.0940 2.7660
L3.0330 2.8360
" />
<path d="M3.0940 5.3640
L3.1580 5.4320
" />
<path d="M3.1050 2.0420
L3.1220 2.0530
" />
<path d="M3.1050 2.0420
L3.1220 2.0530
" />
<path d="M3.1050 6.0880
L3.0860 6.0960
" />
<path d="M3.1050 6.0880
L3.0860 6.0960
" />
<path d="M3.1060 1.9880
L3.1260 1.9970
" />
<path d="M3.1060 6.1420
L3.0860 6.1510
" />
<path d="M3.1090 5.5230
L3.1620 5.5730
" />
<path d="M3.1220 2.0530
L3.1400 2.0620
" />
<path d="M3.1220 2.0530
L3.1400 2.0620
" />
<path d="M3.1220 6.0770
L3.1050 6.0880
" />
<path d="M3.1220 6.0770
L3.1050 6.0880
" />
<path d="M3.1240 2.5230
L3.0510 2.5920
" />
<path d="M3.1240 2.5230
L3.0510 2.5920
" />
<path d="M3.1240 5.6070
L3.2000 5.6720
" />
<path d="M3.1240 5.6070
L3.2000 5.6720
" />
<path d="M3.1260 1.9970
L3.1460 2.0080
" />
<path d="M3.1260 6.1330
L3.1060 6.1420
" />
<path d="M3.1400 2.0620
L3.1580 2.0730
" />
<path d="M3.1400 2.0620
L3.1580 2.0730
" />
<path d="M3.1400 6.0680
L3.1220 6.0770
" />
<path d="M3.1400 6.0680
L3.1220 6.0770
" />
<path d="M3.1460 2.0080
L3.1660 2.0200
" />
<path d="M3.1460 6.1220
L3.1260 6.1330
" />
<path d="M3.1580 2.0730
L3.1740 2.0850
" />
<path d="M3.1580 2.0730
L3.1740 2.0850
" />
<path d="M3.1580 2.6980
L3.0940 2.7660
" />
<path d="M3.1580 5.4320
L3.2260 5.4960
" />
<path d="M3.1580 6.0570
L3.1400 6.0680
" />
<path d="M3.1580 6.0570
L3.1400 6.0680
" />
<path d="M3.1620 5.5730
L3.2190 5.6220
" />
<path d="M3.1660 2.0200
L3.1860 2.0330
" />
<path d="M3.1660 6.1100
L3.1460 6.1220
" />
<path d="M3.1740 2.0850
L3.1900 2.0950
" />
<path d="M3.1740 2.0850
L3.1900 2.0950
" />
<path d="M3.1740 6.0450
L3.1580 6.0570
" />
<path d="M3.1740 6.0450
L3.1580 6.0570
" />
<path d="M3.1860 2.0330
L3.2050 2.0450
" />
<path d="M3.1860 6.0970
L3.1660 6.1100
" />
<path d="M3.1900 2.0950
L3.2050 2.1050
" />
<path d="M3.1900 2.0950
L3.2050 2.1050
" />
<path d="M3.1900 6.0350
L3.1740 6.0450
" />
<path d="M3.1900 6.0350
L3.1740 6.0450
" />
<path d="M3.2000 2.4580
L3.1240 2.5230
" />
<path d="M3.2000 2.4580
L3.1240 2.5230
" />
<path d="M3.2000 2.5230
L3.0880 2.6280
" />
<path d="M3.2000 5.6720
L3.2790 5.7340
" />
<path d="M3.2000 5.6720
L3.2790 5.7340
" />
<path d="M3.2050 2.0450
L3.2170 2.0530
" />
<path d="M3.2050 2.1050
L3.2210 2.1130
" />
<path d="M3.2050 2.1050
L3.2210 2.1130
" />
<path d="M3.2050 6.0250
L3.1900 6.0350
" />
<path d="M3.2050 6.0250
L3.1900 6.0350
" />
<path d="M3.2050 6.0850
L3.1860 6.0970
" />
<path d="M3.2170 2.0530
L3.2290 2.0610
" />
<path d="M3.2170 6.0770
L3.2050 6.0850
" />
<path d="M3.2190 5.6220
L3.2750 5.6690
" />
<path d="M3.2210 2.1130
L3.2380 2.1190
" />
<path d="M3.2210 2.1130
L3.2380 2.1190
" />
<path d="M3.2210 6.0170
L3.2050 6.0250
" />
<path d="M3.2210 6.0170
L3.2050 6.0250
" />
<path d="M3.2260 2.6340
L3.1580 2.6980
" />
<path d="M3.2260 5.4960
L3.2950 5.5560
" />
<path d="M3.2290 2.0610
L3.2420 2.0670
" />
<path d="M3.2290 6.0690
L3.2170 6.0770
" />
<path d="M3.2380 2.1190
L3.2550 2.1250
" />
<path d="M3.2380 2.1190
L3.2550 2.1250
" />
<path d="M3.2380 6.0110
L3.2210 6.0170
" />
<path d="M3.2380 6.0110
L3.2210 6.0170
" />
<path d="M3.2420 2.0670
L3.2550 2.0720
" />
<path d="M3.2420 6.0630
L3.2290 6.0690
" />
<path d="M3.2550 2.0720
L3.2690 2.0770
" />
<path d="M3.2550 2.1250
L3.2710 2.1290
" />
<path d="M3.2550 2.1250
L3.2710 2.1290
" />
<path d="M3.2550 6.0050
L3.2380 6.0110
" />
<path d="M3.2550 6.0050
L3.2380 6.0110
" />
<path d="M3.2550 6.0580
L3.2420 6.0630
" />
<path d="M3.2690 2.0770
L3.2810 2.0800
" />
<path d="M3.2690 6.0530
L3.2550 6.0580
" />
<path d="M3.2710 2.1290
L3.2890 2.1320
" />
<path d="M3.2710 2.1290
L3.2890 2.1320
" />
<path d="M3.2710 6.0010
L3.2550 6.0050
" />
<path d="M3.2710 6.0010
L3.2550 6.0050
" />
<path d="M3.2750 5.6690
L3.3350 5.7120
" />
<path d="M3.2790 2.3960
L3.2000 2.4580
" />
<path d="M3.2790 2.3960
L3.2000 2.4580
" />
<path d="M3.2790 5.7340
L3.3610 5.7920
" />
<path d="M3.2790 5.7340
L3.3610 5.7920
" />
<path d="M3.2810 2.0800
L3.2950 2.0830
" />
<path d="M3.2810 6.0500
L3.2690 6.0530
" />
<path d="M3.2890 2.1320
L3.3070 2.1340
" />
<path d="M3.2890 2.1320
L3.3070 2.1340
" />
<path d="M3.2890 5.9980
L3.2710 6.0010
" />
<path d="M3.2890 5.9980
L3.2710 6.0010
" />
<path d="M3.2950 2.0830
L3.3090 2.0840
" />
<path d="M3.2950 2.5740
L3.2260 2.6340
" />
<path d="M3.2950 5.5560
L3.3690 5.6140
" />
<path d="M3.2950 6.0470
L3.2810 6.0500
" />
<path d="M3.3070 2.1340
L3.3250 2.1350
" />
<path d="M3.3070 2.1340
L3.3250 2.1350
" />
<path d="M3.3070 5.9960
L3.2890 5.9980
" />
<path d="M3.3070 5.9960
L3.2890 5.9980
" />
<path d="M3.3090 2.0840
L3.3240 2.0850
" />
<path d="M3.3090 6.0460
L3.2950 6.0470
" />
<path d="M3.3190 2.4300
L3.2000 2.5230
" />
<path d="M3.3240 2.0850
L3.3390 2.0840
" />
<path d="M3.3240 6.0450
L3.3090 6.0460
" />
<path d="M3.3250 2.1350
L3.3420 2.1340
" />
<path d="M3.3250 2.1350
L3.3420 2.1340
" />
<path d="M3.3250 5.9950
L3.3070 5.9960
" />
<path d="M3.3250 5.9950
L3.3070 5.9960
" />
<path d="M3.3350 5.7120
L3.3960 5.7550
" />
<path d="M3.3390 2.0840
L3.3530 2.0820
" />
<path d="M3.3390 6.0460
L3.3240 6.0450
" />
<path d="M3.3420 2.1340
L3.3600 2.1320
" />
<path d="M3.3420 2.1340
L3.3600 2.1320
" />
<path d="M3.3420 5.9960
L3.3250 5.9950
" />
<path d="M3.3420 5.9960
L3.3250 5.9950
" />
<path d="M3.3530 2.0820
L3.3670 2.0800
" />
<path d="M3.3530 6.0480
L3.3390 6.0460
" />
<path d="M3.3600 2.1320
L3.3760 2.1290
" />
<path d="M3.3600 2.1320
L3.3760 2.1290
" />
<path d="M3.3600 5.9980
L3.3420 5.9960
" />
<path d="M3.3600 5.9980
L3.3420 5.9960
" />
<path d="M3.3610 2.3380
L3.2790 2.3960
" />
<path d="M3.3610 2.3380
L3.2790 2.3960
" />
<path d="M3.3610 5.7920
L3.4450 5.8450
" />
<path d="M3.3610 5.7920
L3.4450 5.8450
" />
<path d="M3.3670 2.0800
L3.3800 2.0760
" />
<path d="M3.3670 6.0500
L3.3530 6.0480
" />
<path d="M3.3690 2.5160
L3.2950 2.5740
" />
<path d="M3.3690 5.6140
L3.4450 5.6680
" />
<path d="M3.3760 2.1290
L3.3940 2.1240
" />
<path d="M3.3760 2.1290
L3.3940 2.1240
" />
<path d="M3.3760 6.0010
L3.3600 5.9980
" />
<path d="M3.3760 6.0010
L3.3600 5.9980
" />
<path d="M3.3800 2.0760
L3.3940 2.0720
" />
<path d="M3.3800 6.0540
L3.3670 6.0500
" />
<path d="M3.3940 2.0720
L3.4060 2.0660
" />
<path d="M3.3940 2.1240
L3.4120 2.1190
" />
<path d="M3.3940 2.1240
L3.4120 2.1190
" />
<path d="M3.3940 6.0060
L3.3760 6.0010
" />
<path d="M3.3940 6.0060
L3.3760 6.0010
" />
<path d="M3.3940 6.0580
L3.3800 6.0540
" />
<path d="M3.3960 5.7550
L3.4580 5.7950
" />
<path d="M3.4060 2.0660
L3.4200 2.0610
" />
<path d="M3.4060 6.0640
L3.3940 6.0580
" />
<path d="M3.4120 2.1190
L3.4280 2.1120
" />
<path d="M3.4120 2.1190
L3.4280 2.1120
" />
<path d="M3.4120 6.0110
L3.3940 6.0060
" />
<path d="M3.4120 6.0110
L3.3940 6.0060
" />
<path d="M3.4200 2.0610
L3.5490 1.9930
" />
<path d="M3.4200 6.0690
L3.4060 6.0640
" />
<path d="M3.4200 6.0690
L3.5490 6.1370
" />
<path d="M3.4280 2.1120
L3.4450 2.1030
" />
<path d="M3.4280 2.1120
L3.4450 2.1030
" />
<path d="M3.4280 6.0180
L3.4120 6.0110
" />
<path d="M3.4280 6.0180
L3.4120 6.0110
" />
<path d="M3.4430 2.3440
L3.3190 2.4300
" />
<path d="M3.4450 2.1030
L3.5710 2.0380
" />
<path d="M3.4450 2.1030
L3.5710 2.0380
" />
<path d="M3.4450 2.2850
L3.3610 2.3380
" />
<path d="M3.4450 2.2850
L3.3610 2.3380
" />
<path d="M3.4450 2.4620
L3.3690 2.5160
" />
<path d="M3.4450 5.6680
L3.5230 5.7180
" />
<path d="M3.4450 5.8450
L3.5330 5.8960
" />
<path d="M3.4450 5.8450
L3.5330 5.8960
" />
<path d="M3.4450 6.0270
L3.4280 6.0180
" />
<path d="M3.4450 6.0270
L3.4280 6.0180
" />
<path d="M3.4580 5.7950
L3.5210 5.8330
" />
<path d="M3.5210 5.8330
L3.5860 5.8680
" />
<path d="M3.5230 2.4120
L3.4450 2.4620
" />
<path d="M3.5230 5.7180
L3.6030 5.7650
" />
<path d="M3.5330 2.2340
L3.4450 2.2850
" />
<path d="M3.5330 2.2340
L3.4450 2.2850
" />
<path d="M3.5330 5.8960
L3.6220 5.9420
" />
<path d="M3.5330 5.8960
L3.6220 5.9420
" />
<path d="M3.5490 1.9930
L3.6860 1.9350
" />
<path d="M3.5490 6.1370
L3.4200 6.0690
" />
<path d="M3.5490 6.1370
L3.6860 6.1950
" />
<path d="M3.5710 2.0380
L3.7030 1.9820
" />
<path d="M3.5710 2.0380
L3.7030 1.9820
" />
<path d="M3.5710 2.2690
L3.4430 2.3440
" />
<path d="M3.5710 6.0920
L3.4450 6.0270
" />
<path d="M3.5710 6.0920
L3.4450 6.0270
" />
<path d="M3.5860 5.8680
L3.6540 5.9010
" />
<path d="M3.6030 2.3650
L3.5230 2.4120
" />
<path d="M3.6030 5.7650
L3.6870 5.8070
" />
<path d="M3.6220 2.1880
L3.5330 2.2340
" />
<path d="M3.6220 2.1880
L3.5330 2.2340
" />
<path d="M3.6220 5.9420
L3.7150 5.9840
" />
<path d="M3.6220 5.9420
L3.7150 5.9840
" />
<path d="M3.6540 5.9010
L3.7200 5.9320
" />
<path d="M3.6860 1.9350
L3.8210 1.8860
" />
<path d="M3.6860 6.1950
L3.5490 6.1370
" />
<path d="M3.6860 6.1950
L3.8210 6.2440
" />
<path d="M3.6870 2.3230
L3.6030 2.3650
" />
<path d="M3.6870 5.8070
L3.7740 5.8450
" />
<path d="M3.7030 1.9820
L3.8360 1.9350
" />
<path d="M3.7030 1.9820
L3.8360 1.9350
" />
<path d="M3.7030 6.1480
L3.5710 6.0920
" />
<path d="M3.7030 6.1480
L3.5710 6.0920
" />
<path d="M3.7070 2.2040
L3.5710 2.2690
" />
<path d="M3.7150 2.1460
L3.6220 2.1880
" />
<path d="M3.7150 2.1460
L3.6220 2.1880
" />
<path d="M3.7150 5.9840
L3.8080 6.0210
" />
<path d="M3.7150 5.9840
L3.8080 6.0210
" />
<path d="M3.7200 5.9320
L3.7890 5.9600
" />
<path d="M3.7740 2.2850
L3.6870 2.3230
" />
<path d="M3.7740 5.8450
L3.8610 5.8810
" />
<path d="M3.7890 5.9600
L3.8590 5.9850
" />
<path d="M3.8080 2.1090
L3.7150 2.1460
" />
<path d="M3.8080 2.1090
L3.7150 2.1460
" />
<path d="M3.8080 6.0210
L3.9060 6.0540
" />
<path d="M3.8080 6.0210
L3.9060 6.0540
" />
<path d="M3.8210 1.8860
L3.9600 1.8470
" />
<path d="M3.8210 6.2440
L3.6860 6.1950
" />
<path d="M3.8210 6.2440
L3.9600 6.2830
" />
<path d="M3.8360 1.9350
L3.9730 1.8950
" />
<path d="M3.8360 1.9350
L3.9730 1.8950
" />
<path d="M3.8360 6.1950
L3.7030 6.1480
" />
<path d="M3.8360 6.1950
L3.7030 6.1480
" />
<path d="M3.8440 2.1500
L3.7070 2.2040
" />
<path d="M3.8590 5.9850
L3.9290 6.0090
" />
<path d="M3.8610 2.2490
L3.7740 2.2850
" />
<path d="M3.8610 5.8810
L3.9520 5.9110
" />
<path d="M3.9060 2.0760
L3.8080 2.1090
" />
<path d="M3.9060 2.0760
L3.8080 2.1090
" />
<path d="M3.9060 6.0540
L4.0050 6.0810
" />
<path d="M3.9060 6.0540
L4.0050 6.0810
" />
<path d="M3.9290 6.0090
L4.0010 6.0290
" />
<path d="M3.9520 2.2190
L3.8610 2.2490
" />
<path d="M3.9520 5.9110
L4.0420 5.9370
" />
<path d="M3.9600 1.8470
L4.0990 1.8150
" />
<path d="M3.9600 6.2830
L3.8210 6.2440
" />
<path d="M3.9600 6.2830
L4.0990 6.3150
" />
<path d="M3.9730 1.8950
L4.1100 1.8650
" />
<path d="M3.9730 1.8950
L4.1100 1.8650
" />
<path d="M3.9730 6.2350
L3.8360 6.1950
" />
<path d="M3.9730 6.2350
L3.8360 6.1950
" />
<path d="M3.9850 2.1050
L3.8440 2.1500
" />
<path d="M4.0010 6.0290
L4.0740 6.0470
" />
<path d="M4.0050 2.0490
L3.9060 2.0760
" />
<path d="M4.0050 2.0490
L3.9060 2.0760
" />
<path d="M4.0050 6.0810
L4.1060 6.1050
" />
<path d="M4.0050 6.0810
L4.1060 6.1050
" />
<path d="M4.0420 2.1930
L3.9520 2.2190
" />
<path d="M4.0420 5.9370
L4.1350 5.9580
" />
<path d="M4.0740 6.0470
L4.1470 6.0630
" />
<path d="M4.0990 1.8150
L4.2420 1.7940
" />
<path d="M4.0990 6.3150
L3.9600 6.2830
" />
<path d="M4.0990 6.3150
L4.2420 6.3360
" />
<path d="M4.1060 2.0250
L4.0050 2.0490
" />
<path d="M4.1060 2.0250
L4.0050 2.0490
" />
<path d="M4.1060 6.1050
L4.2080 6.1240
" />
<path d="M4.1060 6.1050
L4.2080 6.1240
" />
<path d="M4.1100 1.8650
L4.2470 1.8430
" />
<path d="M4.1100 1.8650
L4.2470 1.8430
" />
<path d="M4.1100 6.2650
L3.9730 6.2350
" />
<path d="M4.1100 6.2650
L3.9730 6.2350
" />
<path d="M4.1300 2.0710
L3.9850 2.1050
" />
<path d="M4.1350 2.1720
L4.0420 2.1930
" />
<path d="M4.1350 5.9580
L4.2310 5.9760
" />
<path d="M4.1470 6.0630
L4.2230 6.0730
" />
<path d="M4.2080 2.0060
L4.1060 2.0250
" />
<path d="M4.2080 2.0060
L4.1060 2.0250
" />
<path d="M4.2080 6.1240
L4.3120 6.1370
" />
<path d="M4.2080 6.1240
L4.3120 6.1370
" />
<path d="M4.2230 6.0730
L4.2960 6.0850
" />
<path d="M4.2310 2.1540
L4.1350 2.1720
" />
<path d="M4.2310 5.9760
L4.3280 5.9880
" />
<path d="M4.2420 1.7940
L4.3840 1.7800
" />
<path d="M4.2420 6.3360
L4.0990 6.3150
" />
<path d="M4.2420 6.3360
L4.3840 6.3500
" />
<path d="M4.2470 1.8430
L4.3850 1.8300
" />
<path d="M4.2470 1.8430
L4.3850 1.8300
" />
<path d="M4.2470 6.2870
L4.1100 6.2650
" />
<path d="M4.2470 6.2870
L4.1100 6.2650
" />
<path d="M4.2750 2.0490
L4.1300 2.0710
" />
<path d="M4.2960 6.0850
L4.3720 6.0920
" />
<path d="M4.3120 1.9930
L4.2080 2.0060
" />
<path d="M4.3120 1.9930
L4.2080 2.0060
" />
<path d="M4.3120 6.1370
L4.4170 6.1450
" />
<path d="M4.3120 6.1370
L4.4170 6.1450
" />
<path d="M4.3280 2.1420
L4.2310 2.1540
" />
<path d="M4.3280 5.9880
L4.4250 5.9950
" />
<path d="M4.3720 6.0920
L4.4490 6.0960
" />
<path d="M4.3840 1.7800
L4.5250 1.7750
" />
<path d="M4.3840 6.3500
L4.2420 6.3360
" />
<path d="M4.3840 6.3500
L4.5250 6.3550
" />
<path d="M4.3850 1.8300
L4.5250 1.8250
" />
<path d="M4.3850 1.8300
L4.5250 1.8250
" />
<path d="M4.3850 6.3000
L4.2470 6.2870
" />
<path d="M4.3850 6.3000
L4.2470 6.2870
" />
<path d="M4.4170 1.9850
L4.3120 1.9930
" />
<path d="M4.4170 1.9850
L4.3120 1.9930
" />
<path d="M4.4170 6.1450
L4.5250 6.1480
" />
<path d="M4.4170 6.1450
L4.5250 6.1480
" />
<path d="M4.4210 2.0370
L4.2750 2.0490
" />
<path d="M4.4250 2.1350
L4.3280 2.1420
" />
<path d="M4.4250 5.9950
L4.5250 5.9980
" />
<path d="M4.4490 6.0960
L4.5250 6.0970
" />
<path d="M4.5250 1.7750
L4.6660 1.7800
" />
<path d="M4.5250 1.8250
L4.6630 1.8300
" />
<path d="M4.5250 1.8250
L4.6630 1.8300
" />
<path d="M4.5250 1.9820
L4.4170 1.9850
" />
<path d="M4.5250 1.9820
L4.4170 1.9850
" />
</g>
<g style="fill:#000000; fill-opacity:1.0000; stroke:none;">
<circle cx="4.5250" cy="1.9820" r="0.0100" /> 
<circle cx="4.5250" cy="1.9820" r="0.0100" /> 
</g>
<g style="fill:none; 
stroke:#000000; stroke-width:0.0200; stroke-opacity:1; 
stroke-linecap:round; stroke-linejoin:round;">
<path d="M4.5250 2.1320
L4.4250 2.1350
" />
</g>
<g style="fill:#000000; fill-opacity:1.0000; stroke:none;">
<circle cx="4.5250" cy="2.1320" r="0.0100" /> 
<circle cx="4.5250" cy="5.9980" r="0.0100" /> 
</g>
<g style="fill:none; 
stroke:#000000; stroke-width:0.0200; stroke-opacity:1; 
stroke-linecap:round; stroke-linejoin:round;">
<path d="M4.5250 5.9980
L4.6240 5.9950
" />
<path d="M4.5250 6.0970
L4.6250 6.0930
" />
</g>
<g style="fill:#000000; fill-opacity:1.0000; stroke:none;">
<circle cx="4.5250" cy="6.1480" r="0.0100" /> 
<circle cx="4.5250" cy="6.1480" r="0.0100" /> 
</g>
<g style="fill:none; 
stroke:#000000; stroke-width:0.0200; stroke-opacity:1; 
stroke-linecap:round; stroke-linejoin:round;">
<path d="M4.5250 6.1480
L4.6320 6.1450
" />
<path d="M4.5250 6.1480
L4.6320 6.1450
" />
<path d="M4.5250 6.3050
L4.3850 6.3000
" />
<path d="M4.5250 6.3050
L4.3850 6.3000
" />
<path d="M4.5250 6.3550
L4.3840 6.3500
" />
<path d="M4.5250 6.3550
L4.6660 6.3500
" />
<path d="M4.5690 2.0330
L4.4210 2.0370
" />
<path d="M4.6240 2.1350
L4.5250 2.1320
" />
<path d="M4.6240 5.9950
L4.7220 5.9880
" />
<path d="M4.6250 6.0930
L4.7250 6.0880
" />
<path d="M4.6320 1.9850
L4.5250 1.9820
" />
<path d="M4.6320 1.9850
L4.5250 1.9820
" />
<path d="M4.6320 6.1450
L4.7380 6.1370
" />
<path d="M4.6320 6.1450
L4.7380 6.1370
" />
<path d="M4.6630 1.8300
L4.8030 1.8430
" />
<path d="M4.6630 1.8300
L4.8030 1.8430
" />
<path d="M4.6630 6.3000
L4.5250 6.3050
" />
<path d="M4.6630 6.3000
L4.5250 6.3050
" />
<path d="M4.6660 1.7800
L4.8070 1.7940
" />
<path d="M4.6660 6.3500
L4.5250 6.3550
" />
<path d="M4.6660 6.3500
L4.8070 6.3360
" />
<path d="M4.7180 2.0410
L4.5690 2.0330
" />
<path d="M4.7220 2.1420
L4.6240 2.1350
" />
<path d="M4.7220 5.9880
L4.8190 5.9760
" />
<path d="M4.7250 6.0880
L4.8230 6.0760
" />
<path d="M4.7380 1.9930
L4.6320 1.9850
" />
<path d="M4.7380 1.9930
L4.6320 1.9850
" />
<path d="M4.7380 6.1370
L4.8420 6.1240
" />
<path d="M4.7380 6.1370
L4.8420 6.1240
" />
<path d="M4.8030 1.8430
L4.9400 1.8650
" />
<path d="M4.8030 1.8430
L4.9400 1.8650
" />
<path d="M4.8030 6.2870
L4.6630 6.3000
" />
<path d="M4.8030 6.2870
L4.6630 6.3000
" />
<path d="M4.8070 1.7940
L4.9510 1.8150
" />
<path d="M4.8070 6.3360
L4.6660 6.3500
" />
<path d="M4.8070 6.3360
L4.9510 6.3150
" />
<path d="M4.8190 2.1540
L4.7220 2.1420
" />
<path d="M4.8190 5.9760
L4.9130 5.9580
" />
<path d="M4.8230 6.0760
L4.9230 6.0580
" />
<path d="M4.8420 2.0060
L4.7380 1.9930
" />
<path d="M4.8420 2.0060
L4.7380 1.9930
" />
<path d="M4.8420 6.1240
L4.9440 6.1050
" />
<path d="M4.8420 6.1240
L4.9440 6.1050
" />
<path d="M4.8660 2.0610
L4.7180 2.0410
" />
<path d="M4.9130 2.1720
L4.8190 2.1540
" />
<path d="M4.9130 5.9580
L5.0080 5.9370
" />
<path d="M4.9230 6.0580
L5.0200 6.0370
" />
<path d="M4.9400 1.8650
L5.0770 1.8950
" />
<path d="M4.9400 1.8650
L5.0770 1.8950
" />
<path d="M4.9400 6.2650
L4.8030 6.2870
" />
<path d="M4.9400 6.2650
L4.8030 6.2870
" />
<path d="M4.9440 2.0250
L4.8420 2.0060
" />
<path d="M4.9440 2.0250
L4.8420 2.0060
" />
<path d="M4.9440 6.1050
L5.0450 6.0810
" />
<path d="M4.9440 6.1050
L5.0450 6.0810
" />
<path d="M4.9510 1.8150
L5.0890 1.8470
" />
<path d="M4.9510 6.3150
L4.8070 6.3360
" />
<path d="M4.9510 6.3150
L5.0890 6.2830
" />
<path d="M5.0080 2.1930
L4.9130 2.1720
" />
<path d="M5.0080 5.9370
L5.0970 5.9110
" />
<path d="M5.0130 2.0920
L4.8660 2.0610
" />
<path d="M5.0200 6.0370
L5.1160 6.0100
" />
<path d="M5.0450 2.0490
L4.9440 2.0250
" />
<path d="M5.0450 2.0490
L4.9440 2.0250
" />
<path d="M5.0450 6.0810
L5.1420 6.0540
" />
<path d="M5.0450 6.0810
L5.1420 6.0540
" />
<path d="M5.0770 1.8950
L5.2140 1.9350
" />
<path d="M5.0770 1.8950
L5.2140 1.9350
" />
<path d="M5.0770 6.2350
L4.9400 6.2650
" />
<path d="M5.0770 6.2350
L4.9400 6.2650
" />
<path d="M5.0890 1.8470
L5.2270 1.8860
" />
<path d="M5.0890 6.2830
L4.9510 6.3150
" />
<path d="M5.0890 6.2830
L5.2270 6.2440
" />
<path d="M5.0970 2.2190
L5.0080 2.1930
" />
<path d="M5.0970 5.9110
L5.1890 5.8810
" />
<path d="M5.1160 6.0100
L5.2100 5.9780
" />
<path d="M5.1420 2.0760
L5.0450 2.0490
" />
<path d="M5.1420 2.0760
L5.0450 2.0490
" />
<path d="M5.1420 6.0540
L5.2410 6.0210
" />
<path d="M5.1420 6.0540
L5.2410 6.0210
" />
<path d="M5.1580 2.1340
L5.0130 2.0920
" />
<path d="M5.1890 2.2490
L5.0970 2.2190
" />
<path d="M5.1890 5.8810
L5.2750 5.8450
" />
<path d="M5.2100 5.9780
L5.3030 5.9420
" />
<path d="M5.2140 1.9350
L5.3470 1.9820
" />
<path d="M5.2140 1.9350
L5.3470 1.9820
" />
<path d="M5.2140 6.1950
L5.0770 6.2350
" />
<path d="M5.2140 6.1950
L5.0770 6.2350
" />
<path d="M5.2270 1.8860
L5.3640 1.9350
" />
<path d="M5.2270 6.2440
L5.0890 6.2830
" />
<path d="M5.2270 6.2440
L5.3640 6.1950
" />
<path d="M5.2410 2.1090
L5.1420 2.0760
" />
<path d="M5.2410 2.1090
L5.1420 2.0760
" />
<path d="M5.2410 6.0210
L5.3350 5.9840
" />
<path d="M5.2410 6.0210
L5.3350 5.9840
" />
<path d="M5.2750 2.2850
L5.1890 2.2490
" />
<path d="M5.2750 5.8450
L5.3630 5.8070
" />
<path d="M5.3030 2.1880
L5.1580 2.1340
" />
</g>
<g style="fill:#000000; fill-opacity:1.0000; stroke:none;">
<circle cx="5.3030" cy="2.1880" r="0.0100" /> 
</g>
<g style="fill:none; 
stroke:#000000; stroke-width:0.0200; stroke-opacity:1; 
stroke-linecap:round; stroke-linejoin:round;">
<path d="M5.3030 5.9420
L5.3920 5.9030
" />
<path d="M5.3350 2.1460
L5.2410 2.1090
" />
<path d="M5.3350 2.1460
L5.2410 2.1090
" />
<path d="M5.3350 5.9840
L5.4280 5.9420
" />
<path d="M5.3350 5.9840
L5.4280 5.9420
" />
<path d="M5.3470 1.9820
L5.4770 2.0380
" />
<path d="M5.3470 1.9820
L5.4770 2.0380
" />
<path d="M5.3470 6.1480
L5.2140 6.1950
" />
<path d="M5.3470 6.1480
L5.2140 6.1950
" />
<path d="M5.3630 2.3230
L5.2750 2.2850
" />
<path d="M5.3630 5.8070
L5.4450 5.7650
" />
<path d="M5.3640 1.9350
L5.4990 1.9930
" />
<path d="M5.3640 6.1950
L5.2270 6.2440
" />
<path d="M5.3640 6.1950
L5.4990 6.1370
" />
<path d="M5.3920 5.9030
L5.4800 5.8580
" />
<path d="M5.4280 2.1880
L5.3350 2.1460
" />
<path d="M5.4280 2.1880
L5.3350 2.1460
" />
<path d="M5.4280 5.9420
L5.5170 5.8960
" />
<path d="M5.4280 5.9420
L5.5170 5.8960
" />
<path d="M5.4400 2.2510
L5.3030 2.1880
" />
<path d="M5.4450 2.3650
L5.3630 2.3230
" />
<path d="M5.4450 5.7650
L5.5260 5.7180
" />
<path d="M5.4770 2.0380
L5.6050 2.1030
" />
<path d="M5.4770 2.0380
L5.6050 2.1030
" />
<path d="M5.4770 6.0920
L5.3470 6.1480
" />
<path d="M5.4770 6.0920
L5.3470 6.1480
" />
<path d="M5.4800 5.8580
L5.5680 5.8090
" />
<path d="M5.4990 1.9930
L5.6300 2.0610
" />
<path d="M5.4990 6.1370
L5.3640 6.1950
" />
<path d="M5.4990 6.1370
L5.6300 6.0690
" />
<path d="M5.5170 2.2340
L5.4280 2.1880
" />
<path d="M5.5170 2.2340
L5.4280 2.1880
" />
<path d="M5.5170 5.8960
L5.6050 5.8450
" />
<path d="M5.5170 5.8960
L5.6050 5.8450
" />
<path d="M5.5260 2.4120
L5.4450 2.3650
" />
<path d="M5.5260 5.7180
L5.6050 5.6680
" />
<path d="M5.5680 5.8090
L5.6530 5.7560
" />
<path d="M5.5740 2.3240
L5.4400 2.2510
" />
<path d="M5.6050 2.1030
L5.6210 2.1120
" />
<path d="M5.6050 2.1030
L5.6210 2.1120
" />
<path d="M5.6050 2.2850
L5.5170 2.2340
" />
<path d="M5.6050 2.2850
L5.5170 2.2340
" />
<path d="M5.6050 2.4620
L5.5260 2.4120
" />
<path d="M5.6050 5.6680
L5.6800 5.6140
" />
<path d="M5.6050 5.8450
L5.6880 5.7920
" />
<path d="M5.6050 5.8450
L5.6880 5.7920
" />
<path d="M5.6050 6.0270
L5.4770 6.0920
" />
<path d="M5.6050 6.0270
L5.4770 6.0920
" />
<path d="M5.6210 2.1120
L5.6370 2.1190
" />
<path d="M5.6210 2.1120
L5.6370 2.1190
" />
<path d="M5.6210 6.0180
L5.6050 6.0270
" />
<path d="M5.6210 6.0180
L5.6050 6.0270
" />
<path d="M5.6300 2.0610
L5.6430 2.0660
" />
<path d="M5.6300 6.0690
L5.4990 6.1370
" />
<path d="M5.6370 2.1190
L5.6540 2.1240
" />
<path d="M5.6370 2.1190
L5.6540 2.1240
" />
<path d="M5.6370 6.0110
L5.6210 6.0180
" />
<path d="M5.6370 6.0110
L5.6210 6.0180
" />
<path d="M5.6430 2.0660
L5.6560 2.0720
" />
<path d="M5.6430 6.0640
L5.6300 6.0690
" />
<path d="M5.6530 5.7560
L5.7330 5.6980
" />
<path d="M5.6540 2.1240
L5.6720 2.1290
" />
<path d="M5.6540 2.1240
L5.6720 2.1290
" />
<path d="M5.6540 6.0060
L5.6370 6.0110
" />
<path d="M5.6540 6.0060
L5.6370 6.0110
" />
<path d="M5.6560 2.0720
L5.6690 2.0760
" />
<path d="M5.6560 6.0580
L5.6430 6.0640
" />
<path d="M5.6690 2.0760
L5.6820 2.0800
" />
<path d="M5.6690 6.0540
L5.6560 6.0580
" />
<path d="M5.6720 2.1290
L5.6900 2.1320
" />
<path d="M5.6720 2.1290
L5.6900 2.1320
" />
<path d="M5.6720 6.0010
L5.6540 6.0060
" />
<path d="M5.6720 6.0010
L5.6540 6.0060
" />
<path d="M5.6800 2.5160
L5.6050 2.4620
" />
<path d="M5.6800 5.6140
L5.7540 5.5560
" />
<path d="M5.6820 2.0800
L5.6960 2.0820
" />
<path d="M5.6820 6.0500
L5.6690 6.0540
" />
<path d="M5.6880 2.3380
L5.6050 2.2850
" />
<path d="M5.6880 2.3380
L5.6050 2.2850
" />
<path d="M5.6880 5.7920
L5.7710 5.7340
" />
<path d="M5.6880 5.7920
L5.7710 5.7340
" />
<path d="M5.6900 2.1320
L5.7070 2.1340
" />
<path d="M5.6900 2.1320
L5.7070 2.1340
" />
<path d="M5.6900 5.9980
L5.6720 6.0010
" />
<path d="M5.6900 5.9980
L5.6720 6.0010
" />
<path d="M5.6960 2.0820
L5.7110 2.0840
" />
<path d="M5.6960 6.0480
L5.6820 6.0500
" />
<path d="M5.7010 2.4080
L5.5740 2.3240
" />
<path d="M5.7070 2.1340
L5.7250 2.1350
" />
<path d="M5.7070 2.1340
L5.7250 2.1350
" />
<path d="M5.7070 5.9960
L5.6900 5.9980
" />
<path d="M5.7070 5.9960
L5.6900 5.9980
" />
<path d="M5.7110 2.0840
L5.7250 2.0850
" />
<path d="M5.7110 6.0460
L5.6960 6.0480
" />
<path d="M5.7250 2.0850
L5.7390 2.0840
" />
<path d="M5.7250 2.1350
L5.7430 2.1340
" />
<path d="M5.7250 2.1350
L5.7430 2.1340
" />
<path d="M5.7250 5.9950
L5.7070 5.9960
" />
<path d="M5.7250 5.9950
L5.7070 5.9960
" />
<path d="M5.7250 6.0450
L5.7110 6.0460
" />
<path d="M5.7330 5.6980
L5.8130 5.6370
" />
<path d="M5.7390 2.0840
L5.7540 2.0830
" />
<path d="M5.7390 6.0460
L5.7250 6.0450
" />
<path d="M5.7430 2.1340
L5.7600 2.1320
" />
<path d="M5.7430 2.1340
L5.7600 2.1320
" />
<path d="M5.7430 5.9960
L5.7250 5.9950
" />
<path d="M5.7430 5.9960
L5.7250 5.9950
" />
<path d="M5.7540 2.0830
L5.7680 2.0800
" />
<path d="M5.7540 2.5740
L5.6800 2.5160
" />
<path d="M5.7540 5.5560
L5.8230 5.4960
" />
<path d="M5.7540 6.0470
L5.7390 6.0460
" />
<path d="M5.7600 2.1320
L5.7780 2.1290
" />
<path d="M5.7600 2.1320
L5.7780 2.1290
" />
<path d="M5.7600 5.9980
L5.7430 5.9960
" />
<path d="M5.7600 5.9980
L5.7430 5.9960
" />
<path d="M5.7680 2.0800
L5.7810 2.0770
" />
<path d="M5.7680 6.0500
L5.7540 6.0470
" />
<path d="M5.7710 2.3960
L5.6880 2.3380
" />
<path d="M5.7710 2.3960
L5.6880 2.3380
" />
<path d="M5.7710 5.7340
L5.8500 5.6720
" />
<path d="M5.7710 5.7340
L5.8500 5.6720
" />
<path d="M5.7780 2.1290
L5.7940 2.1250
" />
<path d="M5.7780 2.1290
L5.7940 2.1250
" />
<path d="M5.7780 6.0010
L5.7600 5.9980
" />
<path d="M5.7780 6.0010
L5.7600 5.9980
" />
<path d="M5.7810 2.0770
L5.7940 2.0720
" />
<path d="M5.7810 6.0530
L5.7680 6.0500
" />
<path d="M5.7940 2.0720
L5.8070 2.0670
" />
<path d="M5.7940 2.1250
L5.8120 2.1190
" />
<path d="M5.7940 2.1250
L5.8120 2.1190
" />
<path d="M5.7940 6.0050
L5.7780 6.0010
" />
<path d="M5.7940 6.0050
L5.7780 6.0010
" />
<path d="M5.7940 6.0580
L5.7810 6.0530
" />
<path d="M5.8070 2.0670
L5.8210 2.0610
" />
<path d="M5.8070 6.0630
L5.7940 6.0580
" />
<path d="M5.8120 2.1190
L5.8290 2.1130
" />
<path d="M5.8120 2.1190
L5.8290 2.1130
" />
<path d="M5.8120 6.0110
L5.7940 6.0050
" />
<path d="M5.8120 6.0110
L5.7940 6.0050
" />
<path d="M5.8130 5.6370
L5.8880 5.5710
" />
<path d="M5.8180 2.4980
L5.7010 2.4080
" />
<path d="M5.8210 2.0610
L5.8320 2.0530
" />
<path d="M5.8210 6.0690
L5.8070 6.0630
" />
<path d="M5.8230 2.6340
L5.7540 2.5740
" />
<path d="M5.8230 5.4960
L5.8920 5.4320
" />
<path d="M5.8290 2.1130
L5.8450 2.1050
" />
<path d="M5.8290 2.1130
L5.8450 2.1050
" />
<path d="M5.8290 6.0170
L5.8120 6.0110
" />
<path d="M5.8290 6.0170
L5.8120 6.0110
" />
<path d="M5.8320 2.0530
L5.8450 2.0450
" />
<path d="M5.8320 6.0770
L5.8210 6.0690
" />
<path d="M5.8450 2.0450
L5.8640 2.0330
" />
<path d="M5.8450 2.1050
L5.8600 2.0950
" />
<path d="M5.8450 2.1050
L5.8600 2.0950
" />
<path d="M5.8450 6.0250
L5.8290 6.0170
" />
<path d="M5.8450 6.0250
L5.8290 6.0170
" />
<path d="M5.8450 6.0850
L5.8320 6.0770
" />
<path d="M5.8500 2.4580
L5.7710 2.3960
" />
<path d="M5.8500 2.4580
L5.7710 2.3960
" />
<path d="M5.8500 5.6720
L5.9250 5.6070
" />
<path d="M5.8500 5.6720
L5.9250 5.6070
" />
<path d="M5.8600 2.0950
L5.8740 2.0850
" />
<path d="M5.8600 2.0950
L5.8740 2.0850
" />
<path d="M5.8600 6.0350
L5.8450 6.0250
" />
<path d="M5.8600 6.0350
L5.8450 6.0250
" />
<path d="M5.8640 2.0330
L5.8840 2.0200
" />
<path d="M5.8640 6.0970
L5.8450 6.0850
" />
<path d="M5.8740 2.0850
L5.8920 2.0730
" />
<path d="M5.8740 2.0850
L5.8920 2.0730
" />
<path d="M5.8740 6.0450
L5.8600 6.0350
" />
<path d="M5.8740 6.0450
L5.8600 6.0350
" />
<path d="M5.8840 2.0200
L5.9030 2.0080
" />
<path d="M5.8840 6.1100
L5.8640 6.0970
" />
<path d="M5.8880 5.5710
L5.9620 5.5020
" />
<path d="M5.8920 2.0730
L5.9090 2.0620
" />
<path d="M5.8920 2.0730
L5.9090 2.0620
" />
<path d="M5.8920 2.6980
L5.8230 2.6340
" />
<path d="M5.8920 5.4320
L5.9560 5.3640
" />
<path d="M5.8920 6.0570
L5.8740 6.0450
" />
<path d="M5.8920 6.0570
L5.8740 6.0450
" />
<path d="M5.9030 2.0080
L5.9220 1.9970
" />
<path d="M5.9030 6.1220
L5.8840 6.1100
" />
<path d="M5.9090 2.0620
L5.9270 2.0530
" />
<path d="M5.9090 2.0620
L5.9270 2.0530
" />
<path d="M5.9090 6.0680
L5.8920 6.0570
" />
<path d="M5.9090 6.0680
L5.8920 6.0570
" />
<path d="M5.9220 1.9970
L5.9430 1.9880
" />
<path d="M5.9220 6.1330
L5.9030 6.1220
" />
<path d="M5.9250 2.5230
L5.8500 2.4580
" />
<path d="M5.9250 2.5230
L5.8500 2.4580
" />
<path d="M5.9250 5.6070
L5.9970 5.5380
" />
<path d="M5.9250 5.6070
L5.9970 5.5380
" />
<path d="M5.9270 2.0530
L5.9450 2.0420
" />
<path d="M5.9270 2.0530
L5.9450 2.0420
" />
<path d="M5.9270 6.0770
L5.9090 6.0680
" />
<path d="M5.9270 6.0770
L5.9090 6.0680
" />
<path d="M5.9300 2.5960
L5.8180 2.4980
" />
<path d="M5.9430 1.9880
L5.9640 1.9790
" />
<path d="M5.9430 6.1420
L5.9220 6.1330
" />
<path d="M5.9450 2.0420
L5.9640 2.0340
" />
<path d="M5.9450 2.0420
L5.9640 2.0340
" />
<path d="M5.9450 6.0880
L5.9270 6.0770
" />
<path d="M5.9450 6.0880
L5.9270 6.0770
" />
<path d="M5.9560 2.7660
L5.8920 2.6980
" />
<path d="M5.9560 5.3640
L6.0150 5.2940
" />
</g>
<g style="fill:#000000; fill-opacity:1.0000; stroke:none;">
<circle cx="5.9620" cy="5.5020" r="0.0100" /> 
</g>
<g style="fill:none; 
stroke:#000000; stroke-width:0.0200; stroke-opacity:1; 
stroke-linecap:round; stroke-linejoin:round;">
<path d="M5.9620 5.5020
L6.0310 5.4290
" />
<path d="M5.9640 1.9790
L5.9850 1.9720
" />
<path d="M5.9640 2.0340
L5.9810 2.0260
" />
<path d="M5.9640 2.0340
L5.9810 2.0260
" />
<path d="M5.9640 6.0960
L5.9450 6.0880
" />
<path d="M5.9640 6.0960
L5.9450 6.0880
" />
<path d="M5.9640 6.1510
L5.9430 6.1420
" />
<path d="M5.9810 2.0260
L6.0010 2.0200
" />
<path d="M5.9810 2.0260
L6.0010 2.0200
" />
<path d="M5.9810 6.1040
L5.9640 6.0960
" />
<path d="M5.9810 6.1040
L5.9640 6.0960
" />
<path d="M5.9850 1.9720
L6.0070 1.9650
" />
<path d="M5.9850 6.1580
L5.9640 6.1510
" />
<path d="M5.9970 2.5920
L5.9250 2.5230
" />
<path d="M5.9970 2.5920
L5.9250 2.5230
" />
<path d="M5.9970 5.5380
L6.0660 5.4640
" />
<path d="M5.9970 5.5380
L6.0660 5.4640
" />
<path d="M6.0010 2.0200
L6.0200 2.0130
" />
<path d="M6.0010 2.0200
L6.0200 2.0130
" />
<path d="M6.0010 6.1100
L5.9810 6.1040
" />
<path d="M6.0010 6.1100
L5.9810 6.1040
" />
<path d="M6.0070 1.9650
L6.0280 1.9600
" />
<path d="M6.0070 6.1650
L5.9850 6.1580
" />
<path d="M6.0150 2.8360
L5.9560 2.7660
" />
<path d="M6.0150 5.2940
L6.0730 5.2210
" />
<path d="M6.0200 2.0130
L6.0390 2.0080
" />
<path d="M6.0200 2.0130
L6.0390 2.0080
" />
<path d="M6.0200 6.1170
L6.0010 6.1100
" />
<path d="M6.0200 6.1170
L6.0010 6.1100
" />
<path d="M6.0280 1.9600
L6.0490 1.9550
" />
<path d="M6.0280 6.1700
L6.0070 6.1650
" />
<path d="M6.0310 5.4290
L6.0970 5.3530
" />
<path d="M6.0340 2.7030
L5.9300 2.5960
" />
<path d="M6.0390 2.0080
L6.0580 2.0040
" />
<path d="M6.0390 2.0080
L6.0580 2.0040
" />
<path d="M6.0390 6.1220
L6.0200 6.1170
" />
<path d="M6.0390 6.1220
L6.0200 6.1170
" />
<path d="M6.0490 1.9550
L6.0710 1.9510
" />
<path d="M6.0490 6.1750
L6.0280 6.1700
" />
<path d="M6.0580 2.0040
L6.0780 2.0010
" />
<path d="M6.0580 2.0040
L6.0780 2.0010
" />
<path d="M6.0580 6.1260
L6.0390 6.1220
" />
<path d="M6.0580 6.1260
L6.0390 6.1220
" />
<path d="M6.0660 2.6660
L5.9970 2.5920
" />
<path d="M6.0660 2.6660
L5.9970 2.5920
" />
<path d="M6.0660 5.4640
L6.1320 5.3900
" />
<path d="M6.0660 5.4640
L6.1320 5.3900
" />
<path d="M6.0710 1.9510
L6.0920 1.9490
" />
<path d="M6.0710 6.1790
L6.0490 6.1750
" />
<path d="M6.0730 2.9090
L6.0150 2.8360
" />
<path d="M6.0730 5.2210
L6.1270 5.1450
" />
<path d="M6.0780 2.0010
L6.0980 1.9980
" />
<path d="M6.0780 2.0010
L6.0980 1.9980
" />
<path d="M6.0780 6.1290
L6.0580 6.1260
" />
<path d="M6.0780 6.1290
L6.0580 6.1260
" />
<path d="M6.0920 1.9490
L6.1140 1.9470
" />
<path d="M6.0920 6.1810
L6.0710 6.1790
" />
<path d="M6.0970 5.3530
L6.1590 5.2740
" />
<path d="M6.0980 1.9980
L6.1180 1.9970
" />
<path d="M6.0980 1.9980
L6.1180 1.9970
" />
<path d="M6.0980 6.1320
L6.0780 6.1290
" />
<path d="M6.0980 6.1320
L6.0780 6.1290
" />
<path d="M6.1140 1.9470
L6.1370 1.9460
" />
<path d="M6.1140 6.1830
L6.0920 6.1810
" />
<path d="M6.1180 1.9970
L6.1370 1.9960
" />
<path d="M6.1180 1.9970
L6.1370 1.9960
" />
<path d="M6.1180 6.1330
L6.0980 6.1320
" />
<path d="M6.1180 6.1330
L6.0980 6.1320
" />
<path d="M6.1270 2.9850
L6.0730 2.9090
" />
<path d="M6.1270 5.1450
L6.1770 5.0670
" />
<path d="M6.1290 2.8160
L6.0340 2.7030
" />
<path d="M6.1320 2.7400
L6.0660 2.6660
" />
<path d="M6.1320 2.7400
L6.0660 2.6660
" />
<path d="M6.1320 5.3900
L6.1930 5.3110
" />
<path d="M6.1320 5.3900
L6.1930 5.3110
" />
<path d="M6.1370 1.9460
L6.1800 1.9480
" />
<path d="M6.1370 1.9960
L6.1770 1.9970
" />
<path d="M6.1370 1.9960
L6.1770 1.9970
" />
<path d="M6.1370 6.1340
L6.1180 6.1330
" />
<path d="M6.1370 6.1340
L6.1180 6.1330
" />
<path d="M6.1370 6.1840
L6.1140 6.1830
" />
<path d="M6.1560 6.1340
L6.1370 6.1340
" />
<path d="M6.1560 6.1340
L6.1370 6.1340
" />
<path d="M6.1580 6.1840
L6.1370 6.1840
" />
<path d="M6.1590 5.2740
L6.2150 5.1920
" />
<path d="M6.1770 1.9970
L6.2150 2.0020
" />
<path d="M6.1770 1.9970
L6.2150 2.0020
" />
<path d="M6.1770 3.0630
L6.1270 2.9850
" />
<path d="M6.1770 5.0670
L6.2250 4.9860
" />
<path d="M6.1770 6.1330
L6.1560 6.1340
" />
<path d="M6.1770 6.1330
L6.1560 6.1340
" />
<path d="M6.1800 1.9480
L6.2230 1.9530
" />
<path d="M6.1800 6.1820
L6.1580 6.1840
" />
<path d="M6.1930 2.8190
L6.1320 2.7400
" />
<path d="M6.1930 2.8190
L6.1320 2.7400
" />
<path d="M6.1930 5.3110
L6.2520 5.2290
" />
<path d="M6.1930 5.3110
L6.2520 5.2290
" />
<path d="M6.1960 6.1310
L6.1770 6.1330
" />
<path d="M6.1960 6.1310
L6.1770 6.1330
" />
<path d="M6.2010 6.1800
L6.1800 6.1820
" />
<path d="M6.2140 2.9360
L6.1290 2.8160
" />
<path d="M6.2150 2.0020
L6.2350 2.0060
" />
<path d="M6.2150 2.0020
L6.2350 2.0060
" />
<path d="M6.2150 5.1920
L6.2680 5.1090
" />
<path d="M6.2150 6.1280
L6.1960 6.1310
" />
<path d="M6.2150 6.1280
L6.1960 6.1310
" />
<path d="M6.2230 1.9530
L6.2440 1.9570
" />
<path d="M6.2230 6.1770
L6.2010 6.1800
" />
<path d="M6.2250 3.1440
L6.1770 3.0630
" />
<path d="M6.2250 4.9860
L6.2670 4.9030
" />
<path d="M6.2350 2.0060
L6.2540 2.0100
" />
<path d="M6.2350 2.0060
L6.2540 2.0100
" />
<path d="M6.2350 6.1240
L6.2150 6.1280
" />
<path d="M6.2350 6.1240
L6.2150 6.1280
" />
<path d="M6.2440 1.9570
L6.2650 1.9610
" />
<path d="M6.2440 6.1730
L6.2230 6.1770
" />
<path d="M6.2520 2.9010
L6.1930 2.8190
" />
<path d="M6.2520 2.9010
L6.1930 2.8190
" />
<path d="M6.2520 5.2290
L6.3050 5.1450
" />
<path d="M6.2520 5.2290
L6.3050 5.1450
" />
<path d="M6.2540 2.0100
L6.2730 2.0150
" />
<path d="M6.2540 2.0100
L6.2730 2.0150
" />
<path d="M6.2540 6.1200
L6.2350 6.1240
" />
<path d="M6.2540 6.1200
L6.2350 6.1240
" />
<path d="M6.2650 1.9610
L6.2870 1.9670
" />
<path d="M6.2650 6.1690
L6.2440 6.1730
" />
<path d="M6.2670 3.2270
L6.2250 3.1440
" />
<path d="M6.2670 4.9030
L6.3050 4.8170
" />
<path d="M6.2680 5.1090
L6.3180 5.0210
" />
<path d="M6.2730 2.0150
L6.2920 2.0210
" />
<path d="M6.2730 2.0150
L6.2920 2.0210
" />
<path d="M6.2730 6.1150
L6.2540 6.1200
" />
<path d="M6.2730 6.1150
L6.2540 6.1200
" />
<path d="M6.2870 1.9670
L6.3080 1.9740
" />
<path d="M6.2870 6.1630
L6.2650 6.1690
" />
<path d="M6.2920 2.0210
L6.3100 2.0290
" />
<path d="M6.2920 2.0210
L6.3100 2.0290
" />
<path d="M6.2920 3.0630
L6.2140 2.9360
" />
<path d="M6.2920 6.1090
L6.2730 6.1150
" />
<path d="M6.2920 6.1090
L6.2730 6.1150
" />
<path d="M6.3050 2.9850
L6.2520 2.9010
" />
<path d="M6.3050 2.9850
L6.2520 2.9010
" />
<path d="M6.3050 3.3130
L6.2670 3.2270
" />
<path d="M6.3050 4.8170
L6.3400 4.7290
" />
<path d="M6.3050 5.1450
L6.3550 5.0580
" />
<path d="M6.3050 5.1450
L6.3550 5.0580
" />
<path d="M6.3080 1.9740
L6.3290 1.9820
" />
<path d="M6.3080 6.1560
L6.2870 6.1630
" />
<path d="M6.3100 2.0290
L6.3290 2.0370
" />
<path d="M6.3100 2.0290
L6.3290 2.0370
" />
<path d="M6.3100 6.1010
L6.2920 6.1090
" />
<path d="M6.3100 6.1010
L6.2920 6.1090
" />
<path d="M6.3180 5.0210
L6.3630 4.9330
" />
<path d="M6.3290 1.9820
L6.3480 1.9900
" />
<path d="M6.3290 2.0370
L6.3470 2.0450
" />
<path d="M6.3290 2.0370
L6.3470 2.0450
" />
<path d="M6.3290 6.0930
L6.3100 6.1010
" />
<path d="M6.3290 6.0930
L6.3100 6.1010
" />
<path d="M6.3290 6.1480
L6.3080 6.1560
" />
<path d="M6.3400 3.4010
L6.3050 3.3130
" />
<path d="M6.3400 4.7290
L6.3710 4.6380
" />
<path d="M6.3470 2.0450
L6.3640 2.0540
" />
<path d="M6.3470 2.0450
L6.3640 2.0540
" />
<path d="M6.3470 6.0850
L6.3290 6.0930
" />
<path d="M6.3470 6.0850
L6.3290 6.0930
" />
<path d="M6.3480 1.9900
L6.3690 2.0000
" />
<path d="M6.3480 6.1400
L6.3290 6.1480
" />
<path d="M6.3550 3.0720
L6.3050 2.9850
" />
<path d="M6.3550 3.0720
L6.3050 2.9850
" />
<path d="M6.3550 5.0580
L6.4010 4.9680
" />
<path d="M6.3550 5.0580
L6.4010 4.9680
" />
<path d="M6.3610 3.1930
L6.2920 3.0630
" />
<path d="M6.3630 4.9330
L6.4030 4.8430
" />
<path d="M6.3640 2.0540
L6.3820 2.0650
" />
<path d="M6.3640 2.0540
L6.3820 2.0650
" />
<path d="M6.3640 6.0760
L6.3470 6.0850
" />
<path d="M6.3640 6.0760
L6.3470 6.0850
" />
<path d="M6.3690 2.0000
L6.3880 2.0100
" />
<path d="M6.3690 6.1300
L6.3480 6.1400
" />
<path d="M6.3710 3.4920
L6.3400 3.4010
" />
<path d="M6.3710 4.6380
L6.3960 4.5480
" />
<path d="M6.3820 2.0650
L6.3980 2.0750
" />
<path d="M6.3820 2.0650
L6.3980 2.0750
" />
<path d="M6.3820 6.0650
L6.3640 6.0760
" />
<path d="M6.3820 6.0650
L6.3640 6.0760
" />
<path d="M6.3880 2.0100
L6.4080 2.0220
" />
<path d="M6.3880 6.1200
L6.3690 6.1300
" />
<path d="M6.3960 3.5820
L6.3710 3.4920
" />
<path d="M6.3960 4.5480
L6.4190 4.4540
" />
<path d="M6.3980 2.0750
L6.4140 2.0870
" />
<path d="M6.3980 2.0750
L6.4140 2.0870
" />
<path d="M6.3980 6.0550
L6.3820 6.0650
" />
<path d="M6.3980 6.0550
L6.3820 6.0650
" />
<path d="M6.4010 3.1620
L6.3550 3.0720
" />
<path d="M6.4010 3.1620
L6.3550 3.0720
" />
<path d="M6.4010 4.9680
L6.4430 4.8750
" />
<path d="M6.4010 4.9680
L6.4430 4.8750
" />
<path d="M6.4030 4.8430
L6.4380 4.7500
" />
<path d="M6.4080 2.0220
L6.4270 2.0340
" />
<path d="M6.4080 6.1080
L6.3880 6.1200
" />
<path d="M6.4140 2.0870
L6.4300 2.1000
" />
<path d="M6.4140 2.0870
L6.4300 2.1000
" />
<path d="M6.4140 6.0430
L6.3980 6.0550
" />
<path d="M6.4140 6.0430
L6.3980 6.0550
" />
<path d="M6.4190 3.3290
L6.3610 3.1930
" />
<path d="M6.4190 3.6760
L6.3960 3.5820
" />
<path d="M6.4190 4.4540
L6.4350 4.3590
" />
<path d="M6.4270 2.0340
L6.4450 2.0490
" />
<path d="M6.4270 6.0960
L6.4080 6.1080
" />
<path d="M6.4300 2.1000
L6.4460 2.1140
" />
<path d="M6.4300 2.1000
L6.4460 2.1140
" />
<path d="M6.4300 6.0300
L6.4140 6.0430
" />
<path d="M6.4300 6.0300
L6.4140 6.0430
" />
<path d="M6.4350 3.7710
L6.4190 3.6760
" />
<path d="M6.4350 4.3590
L6.4480 4.2620
" />
<path d="M6.4380 4.7500
L6.4700 4.6560
" />
<path d="M6.4430 3.2550
L6.4010 3.1620
" />
<path d="M6.4430 3.2550
L6.4010 3.1620
" />
<path d="M6.4430 4.8750
L6.4800 4.7810
" />
<path d="M6.4430 4.8750
L6.4800 4.7810
" />
<path d="M6.4450 2.0490
L6.4620 2.0620
" />
<path d="M6.4450 6.0810
L6.4270 6.0960
" />
<path d="M6.4460 2.1140
L6.4620 2.1280
" />
<path d="M6.4460 2.1140
L6.4620 2.1280
" />
<path d="M6.4460 6.0160
L6.4300 6.0300
" />
<path d="M6.4460 6.0160
L6.4300 6.0300
" />
<path d="M6.4480 3.8680
L6.4350 3.7710
" />
<path d="M6.4480 4.2620
L6.4540 4.1640
" />
<path d="M6.4540 2.8650
L6.4560 2.8820
" />
<path d="M6.4540 2.8650
L6.4560 2.8820
" />
<path d="M6.4540 3.9660
L6.4480 3.8680
" />
<path d="M6.4540 4.1640
L6.4570 4.0650
" />
<path d="M6.4540 5.2650
L6.4560 5.2830
" />
<path d="M6.4540 5.2650
L6.4560 5.2830
" />
<path d="M6.4560 2.8470
L6.4540 2.8650
" />
<path d="M6.4560 2.8470
L6.4540 2.8650
" />
<path d="M6.4560 2.8820
L6.4570 2.9000
" />
<path d="M6.4560 2.8820
L6.4570 2.9000
" />
<path d="M6.4560 5.2480
L6.4540 5.2650
" />
<path d="M6.4560 5.2480
L6.4540 5.2650
" />
<path d="M6.4560 5.2830
L6.4570 5.3010
" />
<path d="M6.4560 5.2830
L6.4570 5.3010
" />
<path d="M6.4570 2.8290
L6.4560 2.8470
" />
<path d="M6.4570 2.8290
L6.4560 2.8470
" />
<path d="M6.4570 2.9000
L6.4610 2.9180
" />
<path d="M6.4570 2.9000
L6.4610 2.9180
" />
<path d="M6.4570 4.0650
L6.4540 3.9660
" />
</g>
<g style="fill:#000000; fill-opacity:1.0000; stroke:none;">
<circle cx="6.4570" cy="4.0650" r="0.0100" /> 
<circle cx="6.4570" cy="4.0650" r="0.0100" /> 
</g>
<g style="fill:none; 
stroke:#000000; stroke-width:0.0200; stroke-opacity:1; 
stroke-linecap:round; stroke-linejoin:round;">
<path d="M6.4570 5.2300
L6.4560 5.2480
" />
<path d="M6.4570 5.2300
L6.4560 5.2480
" />
<path d="M6.4570 5.3010
L6.4610 5.3170
" />
<path d="M6.4570 5.3010
L6.4610 5.3170
" />
<path d="M6.4610 2.8130
L6.4570 2.8290
" />
<path d="M6.4610 2.8130
L6.4570 2.8290
" />
<path d="M6.4610 2.9180
L6.4650 2.9360
" />
<path d="M6.4610 2.9180
L6.4650 2.9360
" />
<path d="M6.4610 5.2120
L6.4570 5.2300
" />
<path d="M6.4610 5.2120
L6.4570 5.2300
" />
<path d="M6.4610 5.3170
L6.4640 5.3350
" />
<path d="M6.4610 5.3170
L6.4640 5.3350
" />
<path d="M6.4620 2.0620
L6.4800 2.0770
" />
</g>
<g style="fill:#000000; fill-opacity:1.0000; stroke:none;">
<circle cx="6.4620" cy="2.1280" r="0.0100" /> 
<circle cx="6.4620" cy="2.1280" r="0.0100" /> 
</g>
<g style="fill:none; 
stroke:#000000; stroke-width:0.0200; stroke-opacity:1; 
stroke-linecap:round; stroke-linejoin:round;">
<path d="M6.4620 2.1280
L6.4750 2.1430
" />
<path d="M6.4620 2.1280
L6.4750 2.1430
" />
<path d="M6.4620 6.0020
L6.4460 6.0160
" />
<path d="M6.4620 6.0020
L6.4460 6.0160
" />
</g>
<g style="fill:#000000; fill-opacity:1.0000; stroke:none;">
<circle cx="6.4620" cy="6.0020" r="0.0100" /> 
<circle cx="6.4620" cy="6.0020" r="0.0100" /> 
</g>
<g style="fill:none; 
stroke:#000000; stroke-width:0.0200; stroke-opacity:1; 
stroke-linecap:round; stroke-linejoin:round;">
<path d="M6.4620 6.0680
L6.4450 6.0810
" />
<path d="M6.4640 2.7950
L6.4610 2.8130
" />
<path d="M6.4640 2.7950
L6.4610 2.8130
" />
<path d="M6.4640 5.3350
L6.4700 5.3520
" />
<path d="M6.4640 5.3350
L6.4700 5.3520
" />
<path d="M6.4650 2.9360
L6.4700 2.9520
" />
<path d="M6.4650 2.9360
L6.4700 2.9520
" />
<path d="M6.4650 5.1940
L6.4610 5.2120
" />
<path d="M6.4650 5.1940
L6.4610 5.2120
" />
<path d="M6.4690 3.4690
L6.4190 3.3290
" />
<path d="M6.4700 2.7780
L6.4640 2.7950
" />
<path d="M6.4700 2.7780
L6.4640 2.7950
" />
<path d="M6.4700 2.9520
L6.4780 2.9680
" />
<path d="M6.4700 2.9520
L6.4780 2.9680
" />
<path d="M6.4700 4.6560
L6.4960 4.5600
" />
<path d="M6.4700 5.1780
L6.4650 5.1940
" />
<path d="M6.4700 5.1780
L6.4650 5.1940
" />
<path d="M6.4700 5.3520
L6.4770 5.3690
" />
<path d="M6.4700 5.3520
L6.4770 5.3690
" />
<path d="M6.4750 2.1430
L6.4890 2.1600
" />
<path d="M6.4750 2.1430
L6.4890 2.1600
" />
<path d="M6.4750 5.9870
L6.4620 6.0020
" />
<path d="M6.4750 5.9870
L6.4620 6.0020
" />
<path d="M6.4770 2.7610
L6.4700 2.7780
" />
<path d="M6.4770 2.7610
L6.4700 2.7780
" />
<path d="M6.4770 5.3690
L6.4850 5.3850
" />
<path d="M6.4770 5.3690
L6.4850 5.3850
" />
<path d="M6.4780 2.9680
L6.4860 2.9850
" />
<path d="M6.4780 2.9680
L6.4860 2.9850
" />
<path d="M6.4780 5.1620
L6.4700 5.1780
" />
<path d="M6.4780 5.1620
L6.4700 5.1780
" />
<path d="M6.4800 2.0770
L6.4960 2.0930
" />
<path d="M6.4800 3.3490
L6.4430 3.2550
" />
<path d="M6.4800 3.3490
L6.4430 3.2550
" />
<path d="M6.4800 4.7810
L6.5130 4.6840
" />
<path d="M6.4800 4.7810
L6.5130 4.6840
" />
<path d="M6.4800 6.0530
L6.4620 6.0680
" />
<path d="M6.4850 2.7450
L6.4770 2.7610
" />
<path d="M6.4850 2.7450
L6.4770 2.7610
" />
<path d="M6.4850 5.3850
L6.4940 5.4000
" />
<path d="M6.4850 5.3850
L6.4940 5.4000
" />
<path d="M6.4860 2.9850
L6.5520 3.1130
" />
<path d="M6.4860 2.9850
L6.5520 3.1130
" />
<path d="M6.4860 5.1450
L6.4780 5.1620
" />
<path d="M6.4860 5.1450
L6.4780 5.1620
" />
<path d="M6.4890 2.1600
L6.5020 2.1760
" />
<path d="M6.4890 2.1600
L6.5020 2.1760
" />
<path d="M6.4890 5.9700
L6.4750 5.9870
" />
<path d="M6.4890 5.9700
L6.4750 5.9870
" />
<path d="M6.4940 2.7300
L6.4850 2.7450
" />
<path d="M6.4940 2.7300
L6.4850 2.7450
" />
<path d="M6.4940 5.4000
L6.5050 5.4150
" />
<path d="M6.4940 5.4000
L6.5050 5.4150
" />
</g>
<g style="fill:#000000; fill-opacity:1.0000; stroke:none;">
<circle cx="6.4960" cy="2.0930" r="0.0100" /> 
</g>
<g style="fill:none; 
stroke:#000000; stroke-width:0.0200; stroke-opacity:1; 
stroke-linecap:round; stroke-linejoin:round;">
<path d="M6.4960 2.0930
L6.5120 2.1090
" />
<path d="M6.4960 4.5600
L6.5180 4.4630
" />
<path d="M6.4960 6.0370
L6.4800 6.0530
" />
</g>
<g style="fill:#000000; fill-opacity:1.0000; stroke:none;">
<circle cx="6.4960" cy="6.0370" r="0.0100" /> 
</g>
<g style="fill:none; 
stroke:#000000; stroke-width:0.0200; stroke-opacity:1; 
stroke-linecap:round; stroke-linejoin:round;">
<path d="M6.5020 2.1760
L6.5150 2.1910
" />
<path d="M6.5020 2.1760
L6.5150 2.1910
" />
<path d="M6.5020 5.9540
L6.4890 5.9700
" />
<path d="M6.5020 5.9540
L6.4890 5.9700
" />
<path d="M6.5050 2.7150
L6.4940 2.7300
" />
<path d="M6.5050 2.7150
L6.4940 2.7300
" />
<path d="M6.5050 2.8500
L6.5050 2.8640
" />
<path d="M6.5050 2.8640
L6.5050 2.8790
" />
<path d="M6.5050 2.8790
L6.5070 2.8930
" />
<path d="M6.5050 5.2510
L6.5050 5.2660
" />
<path d="M6.5050 5.2660
L6.5050 5.2800
" />
<path d="M6.5050 5.2800
L6.5070 5.2940
" />
<path d="M6.5050 5.4150
L6.5170 5.4320
" />
<path d="M6.5050 5.4150
L6.5170 5.4320
" />
<path d="M6.5070 2.8360
L6.5050 2.8500
" />
<path d="M6.5070 2.8930
L6.5100 2.9070
" />
<path d="M6.5070 3.6140
L6.4690 3.4690
" />
<path d="M6.5070 5.2370
L6.5050 5.2510
" />
<path d="M6.5070 5.2940
L6.5100 5.3080
" />
<path d="M6.5100 2.8220
L6.5070 2.8360
" />
<path d="M6.5100 2.9070
L6.5130 2.9200
" />
<path d="M6.5100 5.2230
L6.5070 5.2370
" />
<path d="M6.5100 5.3080
L6.5120 5.3210
" />
<path d="M6.5120 2.1090
L6.5280 2.1270
" />
<path d="M6.5120 2.8090
L6.5100 2.8220
" />
<path d="M6.5120 5.3210
L6.5180 5.3350
" />
<path d="M6.5120 6.0210
L6.4960 6.0370
" />
<path d="M6.5130 2.9200
L6.5180 2.9340
" />
<path d="M6.5130 3.4460
L6.4800 3.3490
" />
<path d="M6.5130 3.4460
L6.4800 3.3490
" />
<path d="M6.5130 4.6840
L6.5410 4.5850
" />
<path d="M6.5130 4.6840
L6.5410 4.5850
" />
<path d="M6.5130 5.2100
L6.5100 5.2230
" />
<path d="M6.5150 2.1910
L6.5250 2.2080
" />
<path d="M6.5150 2.1910
L6.5250 2.2080
" />
<path d="M6.5150 5.9390
L6.5020 5.9540
" />
<path d="M6.5150 5.9390
L6.5020 5.9540
" />
<path d="M6.5170 2.6980
L6.5050 2.7150
" />
<path d="M6.5170 2.6980
L6.5050 2.7150
" />
<path d="M6.5170 5.4320
L6.5280 5.4500
" />
<path d="M6.5170 5.4320
L6.5280 5.4500
" />
<path d="M6.5180 2.7950
L6.5120 2.8090
" />
<path d="M6.5180 2.9340
L6.5230 2.9470
" />
<path d="M6.5180 4.4630
L6.5360 4.3650
" />
<path d="M6.5180 5.1960
L6.5130 5.2100
" />
<path d="M6.5180 5.3350
L6.5230 5.3480
" />
<path d="M6.5230 2.7820
L6.5180 2.7950
" />
<path d="M6.5230 2.9470
L6.5290 2.9600
" />
<path d="M6.5230 5.1830
L6.5180 5.1960
" />
<path d="M6.5230 5.3480
L6.5280 5.3610
" />
<path d="M6.5250 2.2080
L6.5360 2.2250
" />
<path d="M6.5250 2.2080
L6.5360 2.2250
" />
<path d="M6.5250 5.9220
L6.5150 5.9390
" />
<path d="M6.5250 5.9220
L6.5150 5.9390
" />
<path d="M6.5280 2.1270
L6.5410 2.1450
" />
<path d="M6.5280 2.6800
L6.5170 2.6980
" />
<path d="M6.5280 2.6800
L6.5170 2.6980
" />
<path d="M6.5280 2.7690
L6.5230 2.7820
" />
<path d="M6.5280 5.3610
L6.5360 5.3730
" />
<path d="M6.5280 5.4500
L6.5370 5.4660
" />
<path d="M6.5280 5.4500
L6.5370 5.4660
" />
<path d="M6.5280 6.0030
L6.5120 6.0210
" />
<path d="M6.5290 2.9600
L6.5970 3.0910
" />
<path d="M6.5290 5.1700
L6.5230 5.1830
" />
<path d="M6.5330 3.7620
L6.5070 3.6140
" />
<path d="M6.5360 2.2250
L6.5440 2.2430
" />
<path d="M6.5360 2.2250
L6.5440 2.2430
" />
<path d="M6.5360 2.7570
L6.5280 2.7690
" />
<path d="M6.5360 4.3650
L6.5470 4.2650
" />
<path d="M6.5360 5.3730
L6.5440 5.3850
" />
<path d="M6.5360 5.9050
L6.5250 5.9220
" />
<path d="M6.5360 5.9050
L6.5250 5.9220
" />
<path d="M6.5370 2.6640
L6.5280 2.6800
" />
<path d="M6.5370 2.6640
L6.5280 2.6800
" />
<path d="M6.5370 5.4660
L6.5470 5.4850
" />
<path d="M6.5370 5.4660
L6.5470 5.4850
" />
<path d="M6.5410 2.1450
L6.5550 2.1640
" />
<path d="M6.5410 3.5450
L6.5130 3.4460
" />
<path d="M6.5410 3.5450
L6.5130 3.4460
" />
<path d="M6.5410 4.5850
L6.5650 4.4840
" />
<path d="M6.5410 4.5850
L6.5650 4.4840
" />
<path d="M6.5410 5.9850
L6.5280 6.0030
" />
<path d="M6.5440 2.2430
L6.5530 2.2610
" />
<path d="M6.5440 2.2430
L6.5530 2.2610
" />
<path d="M6.5440 2.7450
L6.5360 2.7570
" />
<path d="M6.5440 5.3850
L6.5570 5.4040
" />
<path d="M6.5440 5.8870
L6.5360 5.9050
" />
<path d="M6.5440 5.8870
L6.5360 5.9050
" />
<path d="M6.5470 2.6450
L6.5370 2.6640
" />
<path d="M6.5470 2.6450
L6.5370 2.6640
" />
<path d="M6.5470 4.2650
L6.5550 4.1650
" />
<path d="M6.5470 5.4850
L6.5550 5.5040
" />
<path d="M6.5470 5.4850
L6.5550 5.5040
" />
<path d="M6.5520 3.1130
L6.6080 3.2440
" />
<path d="M6.5520 3.1130
L6.6080 3.2440
" />
<path d="M6.5520 3.9120
L6.5330 3.7620
" />
<path d="M6.5520 5.0170
L6.4860 5.1450
" />
<path d="M6.5520 5.0170
L6.4860 5.1450
" />
<path d="M6.5530 2.2610
L6.5610 2.2790
" />
<path d="M6.5530 2.2610
L6.5610 2.2790
" />
<path d="M6.5530 5.8690
L6.5440 5.8870
" />
<path d="M6.5530 5.8690
L6.5440 5.8870
" />
<path d="M6.5550 2.1640
L6.5680 2.1820
" />
<path d="M6.5550 2.6260
L6.5470 2.6450
" />
<path d="M6.5550 2.6260
L6.5470 2.6450
" />
<path d="M6.5550 4.1650
L6.5570 4.0650
" />
<path d="M6.5550 5.5040
L6.5630 5.5220
" />
<path d="M6.5550 5.5040
L6.5630 5.5220
" />
<path d="M6.5550 5.9660
L6.5410 5.9850
" />
<path d="M6.5570 2.7260
L6.5440 2.7450
" />
<path d="M6.5570 4.0650
L6.5520 3.9120
" />
<path d="M6.5570 5.4040
L6.5710 5.4240
" />
<path d="M6.5610 2.2790
L6.5680 2.2990
" />
<path d="M6.5610 2.2790
L6.5680 2.2990
" />
<path d="M6.5610 5.8510
L6.5530 5.8690
" />
<path d="M6.5610 5.8510
L6.5530 5.8690
" />
<path d="M6.5630 2.6080
L6.5550 2.6260
" />
<path d="M6.5630 2.6080
L6.5550 2.6260
" />
<path d="M6.5630 5.5220
L6.5710 5.5410
" />
<path d="M6.5630 5.5220
L6.5710 5.5410
" />
<path d="M6.5650 3.6460
L6.5410 3.5450
" />
<path d="M6.5650 3.6460
L6.5410 3.5450
" />
<path d="M6.5650 4.4840
L6.5840 4.3820
" />
<path d="M6.5650 4.4840
L6.5840 4.3820
" />
<path d="M6.5680 2.1820
L6.5790 2.2010
" />
<path d="M6.5680 2.2990
L6.5750 2.3170
" />
<path d="M6.5680 2.2990
L6.5750 2.3170
" />
<path d="M6.5680 5.8310
L6.5610 5.8510
" />
<path d="M6.5680 5.8310
L6.5610 5.8510
" />
<path d="M6.5680 5.9480
L6.5550 5.9660
" />
<path d="M6.5710 2.5890
L6.5630 2.6080
" />
<path d="M6.5710 2.5890
L6.5630 2.6080
" />
<path d="M6.5710 2.7060
L6.5570 2.7260
" />
<path d="M6.5710 5.4240
L6.5820 5.4420
" />
<path d="M6.5710 5.5410
L6.5760 5.5600
" />
<path d="M6.5710 5.5410
L6.5760 5.5600
" />
<path d="M6.5750 2.3170
L6.5790 2.3360
" />
<path d="M6.5750 2.3170
L6.5790 2.3360
" />
<path d="M6.5750 5.8130
L6.5680 5.8310
" />
<path d="M6.5750 5.8130
L6.5680 5.8310
" />
<path d="M6.5760 2.5700
L6.5710 2.5890
" />
<path d="M6.5760 2.5700
L6.5710 2.5890
" />
<path d="M6.5760 5.5600
L6.5820 5.5790
" />
<path d="M6.5760 5.5600
L6.5820 5.5790
" />
<path d="M6.5790 2.2010
L6.5890 2.2210
" />
<path d="M6.5790 2.3360
L6.5840 2.3550
" />
<path d="M6.5790 2.3360
L6.5840 2.3550
" />
<path d="M6.5790 5.7940
L6.5750 5.8130
" />
<path d="M6.5790 5.7940
L6.5750 5.8130
" />
<path d="M6.5790 5.9290
L6.5680 5.9480
" />
<path d="M6.5820 2.5510
L6.5760 2.5700
" />
<path d="M6.5820 2.5510
L6.5760 2.5700
" />
<path d="M6.5820 2.6880
L6.5710 2.7060
" />
<path d="M6.5820 5.4420
L6.5920 5.4620
" />
<path d="M6.5820 5.5790
L6.5860 5.5990
" />
<path d="M6.5820 5.5790
L6.5860 5.5990
" />
<path d="M6.5840 2.3550
L6.5870 2.3740
" />
<path d="M6.5840 2.3550
L6.5870 2.3740
" />
<path d="M6.5840 3.7480
L6.5650 3.6460
" />
<path d="M6.5840 3.7480
L6.5650 3.6460
" />
<path d="M6.5840 4.3820
L6.5970 4.2780
" />
<path d="M6.5840 4.3820
L6.5970 4.2780
" />
<path d="M6.5840 5.7750
L6.5790 5.7940
" />
<path d="M6.5840 5.7750
L6.5790 5.7940
" />
<path d="M6.5860 2.5310
L6.5820 2.5510
" />
<path d="M6.5860 2.5310
L6.5820 2.5510
" />
<path d="M6.5860 5.5990
L6.5890 5.6180
" />
<path d="M6.5860 5.5990
L6.5890 5.6180
" />
<path d="M6.5870 2.3740
L6.5910 2.3940
" />
<path d="M6.5870 2.3740
L6.5910 2.3940
" />
<path d="M6.5870 5.7560
L6.5840 5.7750
" />
<path d="M6.5870 5.7560
L6.5840 5.7750
" />
<path d="M6.5890 2.2210
L6.6000 2.2410
" />
<path d="M6.5890 2.5120
L6.5860 2.5310
" />
<path d="M6.5890 2.5120
L6.5860 2.5310
" />
<path d="M6.5890 5.6180
L6.5920 5.6380
" />
<path d="M6.5890 5.6180
L6.5920 5.6380
" />
<path d="M6.5890 5.9090
L6.5790 5.9290
" />
<path d="M6.5910 2.3940
L6.5920 2.4140
" />
<path d="M6.5910 2.3940
L6.5920 2.4140
" />
<path d="M6.5920 2.4140
L6.5940 2.4340
" />
<path d="M6.5920 2.4140
L6.5940 2.4340
" />
<path d="M6.5920 2.4720
L6.5920 2.4920
" />
<path d="M6.5920 2.4720
L6.5920 2.4920
" />
<path d="M6.5920 2.4920
L6.5890 2.5120
" />
<path d="M6.5920 2.4920
L6.5890 2.5120
" />
<path d="M6.5920 2.6680
L6.5820 2.6880
" />
<path d="M6.5920 5.4620
L6.6020 5.4840
" />
<path d="M6.5920 5.6380
L6.5920 5.6580
" />
<path d="M6.5920 5.6380
L6.5920 5.6580
" />
<path d="M6.5920 5.6580
L6.5940 5.6770
" />
<path d="M6.5920 5.6580
L6.5940 5.6770
" />
<path d="M6.5920 5.7160
L6.5870 5.7560
" />
<path d="M6.5920 5.7160
L6.5870 5.7560
" />
<path d="M6.5940 2.4340
L6.5940 2.4530
" />
<path d="M6.5940 2.4340
L6.5940 2.4530
" />
<path d="M6.5940 2.4530
L6.5920 2.4720
" />
<path d="M6.5940 2.4530
L6.5920 2.4720
" />
<path d="M6.5940 5.6770
L6.5920 5.7160
" />
<path d="M6.5940 5.6770
L6.5920 5.7160
" />
<path d="M6.5970 3.0910
L6.6550 3.2250
" />
<path d="M6.5970 3.8520
L6.5840 3.7480
" />
<path d="M6.5970 3.8520
L6.5840 3.7480
" />
<path d="M6.5970 4.2780
L6.6050 4.1720
" />
<path d="M6.5970 4.2780
L6.6050 4.1720
" />
<path d="M6.5970 5.0390
L6.5290 5.1700
" />
<path d="M6.6000 2.2410
L6.6080 2.2610
" />
<path d="M6.6000 5.8890
L6.5890 5.9090
" />
<path d="M6.6020 2.6460
L6.5920 2.6680
" />
<path d="M6.6020 5.4840
L6.6110 5.5040
" />
<path d="M6.6050 3.9580
L6.5970 3.8520
" />
<path d="M6.6050 3.9580
L6.5970 3.8520
" />
<path d="M6.6050 4.1720
L6.6080 4.0650
" />
<path d="M6.6050 4.1720
L6.6080 4.0650
" />
<path d="M6.6080 2.2610
L6.6160 2.2810
" />
<path d="M6.6080 3.2440
L6.6560 3.3770
" />
<path d="M6.6080 3.2440
L6.6560 3.3770
" />
<path d="M6.6080 4.0650
L6.6050 3.9580
" />
<path d="M6.6080 4.0650
L6.6050 3.9580
" />
</g>
<g style="fill:#000000; fill-opacity:1.0000; stroke:none;">
<circle cx="6.6080" cy="4.0650" r="0.0100" /> 
<circle cx="6.6080" cy="4.0650" r="0.0100" /> 
<circle cx="6.6080" cy="4.0650" r="0.0100" /> 
<circle cx="6.6080" cy="4.0650" r="0.0100" /> 
</g>
<g style="fill:none; 
stroke:#000000; stroke-width:0.0200; stroke-opacity:1; 
stroke-linecap:round; stroke-linejoin:round;">
<path d="M6.6080 4.8860
L6.5520 5.0170
" />
<path d="M6.6080 4.8860
L6.5520 5.0170
" />
<path d="M6.6080 5.8690
L6.6000 5.8890
" />
<path d="M6.6110 2.6260
L6.6020 2.6460
" />
<path d="M6.6110 5.5040
L6.6180 5.5250
" />
<path d="M6.6160 2.2810
L6.6230 2.3030
" />
<path d="M6.6160 5.8490
L6.6080 5.8690
" />
<path d="M6.6180 2.6050
L6.6110 2.6260
" />
<path d="M6.6180 5.5250
L6.6240 5.5470
" />
<path d="M6.6230 2.3030
L6.6290 2.3240
" />
<path d="M6.6230 5.8270
L6.6160 5.8490
" />
<path d="M6.6240 2.5830
L6.6180 2.6050
" />
<path d="M6.6240 5.5470
L6.6300 5.5670
" />
<path d="M6.6290 2.3240
L6.6320 2.3450
" />
<path d="M6.6290 5.8060
L6.6230 5.8270
" />
<path d="M6.6300 2.5630
L6.6240 2.5830
" />
<path d="M6.6300 5.5670
L6.6340 5.5890
" />
<path d="M6.6320 2.3450
L6.6370 2.3660
" />
<path d="M6.6320 5.7850
L6.6290 5.8060
" />
<path d="M6.6340 2.5410
L6.6300 2.5630
" />
<path d="M6.6340 5.5890
L6.6390 5.6110
" />
<path d="M6.6370 2.3660
L6.6400 2.3880
" />
<path d="M6.6370 5.7640
L6.6320 5.7850
" />
<path d="M6.6390 2.5190
L6.6340 2.5410
" />
<path d="M6.6390 5.6110
L6.6400 5.6330
" />
<path d="M6.6400 2.3880
L6.6420 2.4100
" />
<path d="M6.6400 2.4970
L6.6390 2.5190
" />
<path d="M6.6400 5.6330
L6.6430 5.6550
" />
<path d="M6.6420 2.4100
L6.6430 2.4320
" />
<path d="M6.6420 5.7200
L6.6370 5.7640
" />
<path d="M6.6430 2.4320
L6.6430 2.4530
" />
<path d="M6.6430 2.4530
L6.6430 2.4750
" />
<path d="M6.6430 2.4750
L6.6400 2.4970
" />
<path d="M6.6430 5.6550
L6.6430 5.6770
" />
<path d="M6.6430 5.6770
L6.6420 5.7200
" />
<path d="M6.6550 3.2250
L6.7040 3.3610
" />
<path d="M6.6550 4.9050
L6.5970 5.0390
" />
<path d="M6.6560 3.3770
L6.6950 3.5120
" />
<path d="M6.6560 3.3770
L6.6950 3.5120
" />
<path d="M6.6560 4.7530
L6.6080 4.8860
" />
<path d="M6.6560 4.7530
L6.6080 4.8860
" />
<path d="M6.6950 3.5120
L6.7250 3.6490
" />
<path d="M6.6950 3.5120
L6.7250 3.6490
" />
<path d="M6.6950 4.6180
L6.6560 4.7530
" />
<path d="M6.6950 4.6180
L6.6560 4.7530
" />
<path d="M6.7040 3.3610
L6.7430 3.5000
" />
<path d="M6.7040 4.7690
L6.6550 4.9050
" />
<path d="M6.7250 3.6490
L6.7460 3.7870
" />
<path d="M6.7250 3.6490
L6.7460 3.7870
" />
<path d="M6.7250 4.4810
L6.6950 4.6180
" />
<path d="M6.7250 4.4810
L6.6950 4.6180
" />
<path d="M6.7430 3.5000
L6.7750 3.6390
" />
<path d="M6.7430 4.6300
L6.7040 4.7690
" />
<path d="M6.7460 3.7870
L6.7590 3.9260
" />
<path d="M6.7460 3.7870
L6.7590 3.9260
" />
<path d="M6.7460 4.3430
L6.7250 4.4810
" />
<path d="M6.7460 4.3430
L6.7250 4.4810
" />
<path d="M6.7590 3.9260
L6.7650 4.0650
" />
<path d="M6.7590 3.9260
L6.7650 4.0650
" />
<path d="M6.7590 4.2040
L6.7460 4.3430
" />
<path d="M6.7590 4.2040
L6.7460 4.3430
" />
<path d="M6.7650 4.0650
L6.7590 4.2040
" />
<path d="M6.7650 4.0650
L6.7590 4.2040
" />
<path d="M6.7750 3.6390
L6.7970 3.7820
" />
<path d="M6.7750 4.4910
L6.7430 4.6300
" />
<path d="M6.7970 3.7820
L6.8100 3.9240
" />
<path d="M6.7970 4.3480
L6.7750 4.4910
" />
<path d="M6.8100 3.9240
L6.8150 4.0650
" />
<path d="M6.8100 4.2060
L6.7970 4.3480
" />
<path d="M6.8150 4.0650
L6.8100 4.2060
" />
<path d="M8.1240 0.2660
L0.9250 0.2660
" />
<path d="M8.1240 0.4650
L8.1240 0.2660
" />
<path d="M8.1240 7.6650
L8.3230 7.6650
" />
<path d="M8.1240 7.8640
L8.1240 7.6650
" />
<path d="M8.1240 7.8640
L8.1340 7.8640
" />
<path d="M8.1340 0.2660
L8.1240 0.2660
" />
<path d="M8.1340 7.8640
L8.1430 7.8640
" />
<path d="M8.1430 0.2660
L8.1340 0.2660
" />
<path d="M8.1430 7.8640
L8.1530 7.8620
" />
<path d="M8.1530 0.2680
L8.1430 0.2660
" />
<path d="M8.1530 7.8620
L8.1640 7.8600
" />
<path d="M8.1640 0.2700
L8.1530 0.2680
" />
<path d="M8.1640 7.8600
L8.1720 7.8580
" />
<path d="M8.1720 0.2720
L8.1640 0.2700
" />
<path d="M8.1720 7.8580
L8.1820 7.8560
" />
<path d="M8.1820 0.2740
L8.1720 0.2720
" />
<path d="M8.1820 7.8560
L8.1910 7.8520
" />
<path d="M8.1910 0.2780
L8.1820 0.2740
" />
<path d="M8.1910 7.8520
L8.2010 7.8480
" />
<path d="M8.2010 0.2820
L8.1910 0.2780
" />
<path d="M8.2010 7.8480
L8.2090 7.8440
" />
<path d="M8.2090 0.2860
L8.2010 0.2820
" />
<path d="M8.2090 7.8440
L8.2190 7.8400
" />
<path d="M8.2190 0.2900
L8.2090 0.2860
" />
<path d="M8.2190 7.8400
L8.2270 7.8360
" />
<path d="M8.2270 0.2940
L8.2190 0.2900
" />
<path d="M8.2270 7.8360
L8.2350 7.8310
" />
<path d="M8.2350 0.2990
L8.2270 0.2940
" />
<path d="M8.2350 7.8310
L8.2430 7.8240
" />
<path d="M8.2430 0.3060
L8.2350 0.2990
" />
<path d="M8.2430 7.8240
L8.2510 7.8190
" />
<path d="M8.2510 0.3110
L8.2430 0.3060
" />
<path d="M8.2510 7.8190
L8.2590 7.8130
" />
<path d="M8.2590 0.3170
L8.2510 0.3110
" />
<path d="M8.2590 7.8130
L8.2650 7.8060
" />
<path d="M8.2650 0.3240
L8.2590 0.3170
" />
</g>
<g style="fill:#000000; fill-opacity:1.0000; stroke:none;">
<circle cx="8.2650" cy="0.3240" r="0.0100" /> 
<circle cx="8.2650" cy="7.8060" r="0.0100" /> 
</g>
<g style="fill:none; 
stroke:#000000; stroke-width:0.0200; stroke-opacity:1; 
stroke-linecap:round; stroke-linejoin:round;">
<path d="M8.2650 7.8060
L8.2730 7.7990
" />
<path d="M8.2730 0.3310
L8.2650 0.3240
" />
<path d="M8.2730 7.7990
L8.2780 7.7910
" />
<path d="M8.2780 0.3390
L8.2730 0.3310
" />
<path d="M8.2780 7.7910
L8.2840 7.7830
" />
<path d="M8.2840 0.3470
L8.2780 0.3390
" />
<path d="M8.2840 7.7830
L8.2910 7.7750
" />
<path d="M8.2910 0.3550
L8.2840 0.3470
" />
<path d="M8.2910 7.7750
L8.2960 7.7670
" />
<path d="M8.2960 0.3630
L8.2910 0.3550
" />
<path d="M8.2960 7.7670
L8.3000 7.7590
" />
<path d="M8.3000 0.3710
L8.2960 0.3630
" />
<path d="M8.3000 7.7590
L8.3050 7.7500
" />
<path d="M8.3050 0.3800
L8.3000 0.3710
" />
<path d="M8.3050 7.7500
L8.3080 7.7410
" />
<path d="M8.3080 0.3890
L8.3050 0.3800
" />
<path d="M8.3080 7.7410
L8.3130 7.7310
" />
<path d="M8.3130 0.3990
L8.3080 0.3890
" />
<path d="M8.3130 7.7310
L8.3160 7.7230
" />
<path d="M8.3160 0.4070
L8.3130 0.3990
" />
<path d="M8.3160 7.7230
L8.3180 7.7130
" />
<path d="M8.3180 0.4170
L8.3160 0.4070
" />
<path d="M8.3180 7.7130
L8.3210 7.7030
" />
<path d="M8.3210 0.4270
L8.3180 0.4170
" />
<path d="M8.3210 0.4360
L8.3210 0.4270
" />
<path d="M8.3210 7.6940
L8.3230 7.6840
" />
<path d="M8.3210 7.7030
L8.3210 7.6940
" />
<path d="M8.3230 0.4460
L8.3210 0.4360
" />
<path d="M8.3230 0.4560
L8.3230 0.4460
" />
<path d="M8.3230 0.4650
L8.1240 0.4650
" />
<path d="M8.3230 0.4650
L8.3230 0.4560
" />
<path d="M8.3230 7.6650
L8.3230 0.4650
" />
<path d="M8.3230 7.6740
L8.3230 7.6650
" />
<path d="M8.3230 7.6840
L8.3230 7.6740
" />
</g> 
</svg>
