{
  "accessors": [
    {
      "bufferView": 0,
      "byteOffset": 0,
      "componentType": 5126,
      "normalized": false,
      "count": 124,
      "type": "VEC3",
      "max": [
        0.5,
        0.20002441108226776,
        0.5
      ],
      "min": [
        -0.4999999701976776,
        0.0,
        -0.4999999701976776
      ]
    },
    {
      "bufferView": 0,
      "byteOffset": 12,
      "componentType": 5126,
      "normalized": false,
      "count": 124,
      "type": "VEC3"
    },
    {
      "bufferView": 0,
      "byteOffset": 24,
      "componentType": 5126,
      "normalized": false,
      "count": 124,
      "type": "VEC2"
    },
    {
      "bufferView": 0,
      "byteOffset": 32,
      "componentType": 5126,
      "normalized": false,
      "count": 124,
      "type": "VEC2"
    },
    {
      "bufferView": 1,
      "byteOffset": 0,
      "componentType": 5123,
      "normalized": false,
      "count": 240,
      "type": "SCALAR"
    },
    {
      "bufferView": 1,
      "byteOffset": 480,
      "componentType": 5123,
      "normalized": false,
      "count": 270,
      "type": "SCALAR"
    },
    {
      "bufferView": 1,
      "byteOffset": 1020,
      "componentType": 5123,
      "normalized": false,
      "count": 204,
      "type": "SCALAR"
    },
    {
      "bufferView": 1,
      "byteOffset": 1428,
      "componentType": 5123,
      "normalized": false,
      "count": 276,
      "type": "SCALAR"
    },
    {
      "bufferView": 1,
      "byteOffset": 1980,
      "componentType": 5123,
      "normalized": false,
      "count": 24,
      "type": "SCALAR"
    },
    {
      "bufferView": 1,
      "byteOffset": 2028,
      "componentType": 5123,
      "normalized": false,
      "count": 24,
      "type": "SCALAR"
    },
    {
      "bufferView": 2,
      "byteOffset": 0,
      "componentType": 5126,
      "normalized": false,
      "count": 106,
      "type": "VEC3",
      "max": [
        0.5,
        0.649279773235321,
        0.5
      ],
      "min": [
        -0.4999999701976776,
        0.05000000074505806,
        -0.4999999701976776
      ]
    },
    {
      "bufferView": 2,
      "byteOffset": 12,
      "componentType": 5126,
      "normalized": false,
      "count": 106,
      "type": "VEC3"
    },
    {
      "bufferView": 2,
      "byteOffset": 24,
      "componentType": 5126,
      "normalized": false,
      "count": 106,
      "type": "VEC2"
    },
    {
      "bufferView": 2,
      "byteOffset": 32,
      "componentType": 5126,
      "normalized": false,
      "count": 106,
      "type": "VEC2"
    },
    {
      "bufferView": 3,
      "byteOffset": 0,
      "componentType": 5126,
      "normalized": false,
      "count": 80,
      "type": "VEC3",
      "max": [
        0.5,
        0.20002441108226776,
        0.5
      ],
      "min": [
        -0.4999999701976776,
        0.0,
        -0.4999999701976776
      ]
    },
    {
      "bufferView": 3,
      "byteOffset": 12,
      "componentType": 5126,
      "normalized": false,
      "count": 80,
      "type": "VEC3"
    },
    {
      "bufferView": 3,
      "byteOffset": 24,
      "componentType": 5126,
      "normalized": false,
      "count": 80,
      "type": "VEC2"
    },
    {
      "bufferView": 3,
      "byteOffset": 32,
      "componentType": 5126,
      "normalized": false,
      "count": 80,
      "type": "VEC2"
    },
    {
      "bufferView": 4,
      "byteOffset": 0,
      "componentType": 5126,
      "normalized": false,
      "count": 128,
      "type": "VEC3",
      "max": [
        0.5,
        0.04999084398150444,
        0.5
      ],
      "min": [
        -0.4999999701976776,
        0.0,
        -0.4999999701976776
      ]
    },
    {
      "bufferView": 4,
      "byteOffset": 12,
      "componentType": 5126,
      "normalized": false,
      "count": 128,
      "type": "VEC3"
    },
    {
      "bufferView": 4,
      "byteOffset": 24,
      "componentType": 5126,
      "normalized": false,
      "count": 128,
      "type": "VEC2"
    },
    {
      "bufferView": 4,
      "byteOffset": 32,
      "componentType": 5126,
      "normalized": false,
      "count": 128,
      "type": "VEC2"
    },
    {
      "bufferView": 5,
      "byteOffset": 0,
      "componentType": 5126,
      "normalized": false,
      "count": 20,
      "type": "VEC3",
      "max": [
        0.05285690724849701,
        0.20549102127552032,
        -0.09112422168254852
      ],
      "min": [
        -0.06462550163269043,
        0.2005000114440918,
        -0.20860663056373596
      ]
    },
    {
      "bufferView": 5,
      "byteOffset": 12,
      "componentType": 5126,
      "normalized": false,
      "count": 20,
      "type": "VEC3"
    },
    {
      "bufferView": 5,
      "byteOffset": 24,
      "componentType": 5126,
      "normalized": false,
      "count": 20,
      "type": "VEC2"
    },
    {
      "bufferView": 5,
      "byteOffset": 32,
      "componentType": 5126,
      "normalized": false,
      "count": 20,
      "type": "VEC2"
    },
    {
      "bufferView": 6,
      "byteOffset": 0,
      "componentType": 5126,
      "normalized": false,
      "count": 20,
      "type": "VEC3",
      "max": [
        0.05285690724849701,
        0.20549102127552032,
        0.054033756256103516
      ],
      "min": [
        -0.06462550163269043,
        0.2005000114440918,
        -0.06344865262508392
      ]
    },
    {
      "bufferView": 6,
      "byteOffset": 12,
      "componentType": 5126,
      "normalized": false,
      "count": 20,
      "type": "VEC3"
    },
    {
      "bufferView": 6,
      "byteOffset": 24,
      "componentType": 5126,
      "normalized": false,
      "count": 20,
      "type": "VEC2"
    },
    {
      "bufferView": 6,
      "byteOffset": 32,
      "componentType": 5126,
      "normalized": false,
      "count": 20,
      "type": "VEC2"
    },
    {
      "bufferView": 7,
      "byteOffset": 0,
      "componentType": 5126,
      "normalized": false,
      "count": 20,
      "type": "VEC3",
      "max": [
        0.05285690724849701,
        0.20549102127552032,
        0.19894111156463623
      ],
      "min": [
        -0.06462550163269043,
        0.2005000114440918,
        0.08145870268344879
      ]
    },
    {
      "bufferView": 7,
      "byteOffset": 12,
      "componentType": 5126,
      "normalized": false,
      "count": 20,
      "type": "VEC3"
    },
    {
      "bufferView": 7,
      "byteOffset": 24,
      "componentType": 5126,
      "normalized": false,
      "count": 20,
      "type": "VEC2"
    },
    {
      "bufferView": 7,
      "byteOffset": 32,
      "componentType": 5126,
      "normalized": false,
      "count": 20,
      "type": "VEC2"
    }
  ],
  "asset": {
    "generator": "pygltflib@v1.16.5",
    "version": "2.0"
  },
  "bufferViews": [
    {
      "buffer": 0,
      "byteOffset": 0,
      "byteLength": 4960,
      "byteStride": 40,
      "target": 34962
    },
    {
      "buffer": 0,
      "byteOffset": 4960,
      "byteLength": 2076,
      "target": 34963
    },
    {
      "buffer": 0,
      "byteOffset": 7036,
      "byteLength": 4240,
      "byteStride": 40,
      "target": 34962
    },
    {
      "buffer": 0,
      "byteOffset": 11276,
      "byteLength": 3200,
      "byteStride": 40,
      "target": 34962
    },
    {
      "buffer": 0,
      "byteOffset": 14476,
      "byteLength": 5120,
      "byteStride": 40,
      "target": 34962
    },
    {
      "buffer": 0,
      "byteOffset": 19596,
      "byteLength": 800,
      "byteStride": 40,
      "target": 34962
    },
    {
      "buffer": 0,
      "byteOffset": 20396,
      "byteLength": 800,
      "byteStride": 40,
      "target": 34962
    },
    {
      "buffer": 0,
      "byteOffset": 21196,
      "byteLength": 800,
      "byteStride": 40,
      "target": 34962
    }
  ],
  "buffers": [
    {
      "uri": "LED_0404_1010Metric_RGB.bin",
      "byteLength": 21996
    }
  ],
  "extensionsUsed": [
    "KHR_materials_clearcoat",
    "KHR_materials_emissive_strength",
    "KHR_materials_ior",
    "KHR_materials_sheen",
    "KHR_materials_specular",
    "KHR_materials_transmission"
  ],
  "materials": [
    {
      "extensions": {
        "KHR_materials_clearcoat": {
          "clearcoatFactor": 0,
          "clearcoatRoughnessFactor": 0.2890909016132355
        },
        "KHR_materials_ior": {
          "ior": 1.4500000476837158
        },
        "KHR_materials_sheen": {
          "sheenColorFactor": [
            1,
            1,
            1
          ],
          "sheenRoughnessFactor": 0.5
        },
        "KHR_materials_specular": {
          "specularFactor": 0.9499998092651367
        }
      },
      "pbrMetallicRoughness": {
        "baseColorFactor": [
          0.6466295719146729,
          0.35373416543006897,
          0.05017738789319992,
          1.0
        ],
        "metallicFactor": 1.0,
        "roughnessFactor": 0.1840909868478775
      },
      "emissiveFactor": [
        0.0,
        0.0,
        0.0
      ],
      "alphaMode": "OPAQUE",
      "doubleSided": true,
      "name": "gltf_metal_goldpins_2"
    },
    {
      "extensions": {
        "KHR_materials_clearcoat": {
          "clearcoatFactor": 0,
          "clearcoatRoughnessFactor": 0.67090904712677
        },
        "KHR_materials_ior": {
          "ior": 1.399999976158142
        },
        "KHR_materials_sheen": {
          "sheenColorFactor": [
            1,
            1,
            1
          ],
          "sheenRoughnessFactor": 0.5
        },
        "KHR_materials_specular": {
          "specularColorFactor": [
            1.0545454025268555,
            1.0545454025268555,
            1.0545454025268555
          ]
        },
        "KHR_materials_transmission": {
          "transmissionFactor": 1
        }
      },
      "pbrMetallicRoughness": {
        "baseColorFactor": [
          0.37626296281814575,
          0.37626296281814575,
          0.37626296281814575,
          0.8136363625526428
        ],
        "metallicFactor": 0.038181811571121216,
        "roughnessFactor": 0.19545431435108185
      },
      "emissiveFactor": [
        0.0,
        0.0,
        0.0
      ],
      "alphaMode": "BLEND",
      "doubleSided": true,
      "name": "gltf_light_guide"
    },
    {
      "pbrMetallicRoughness": {
        "baseColorFactor": [
          0.42792367935180664,
          0.42792367935180664,
          0.42792367935180664,
          1.0
        ],
        "metallicFactor": 0.027000008150935173,
        "roughnessFactor": 0.4606340527534485
      },
      "emissiveFactor": [
        0.0,
        0.0,
        0.0
      ],
      "alphaMode": "OPAQUE",
      "doubleSided": true,
      "name": "gltf_plastic_case_white"
    },
    {
      "extensions": {
        "KHR_materials_clearcoat": {
          "clearcoatFactor": 0,
          "clearcoatRoughnessFactor": 0.2890909016132355
        },
        "KHR_materials_ior": {
          "ior": 1.4500000476837158
        },
        "KHR_materials_sheen": {
          "sheenColorFactor": [
            1,
            1,
            1
          ],
          "sheenRoughnessFactor": 0.5
        },
        "KHR_materials_specular": {
          "specularFactor": 0.9499998092651367
        }
      },
      "pbrMetallicRoughness": {
        "baseColorFactor": [
          0.7304738759994507,
          0.5647074580192566,
          0.28315332531929016,
          1.0
        ],
        "metallicFactor": 1.0,
        "roughnessFactor": 0.2522728145122528
      },
      "emissiveFactor": [
        0.0,
        0.0,
        0.0
      ],
      "alphaMode": "OPAQUE",
      "doubleSided": true,
      "name": "gltf_metal_goldpins_1"
    },
    {
      "extensions": {
        "KHR_materials_emissive_strength": {
          "emissiveStrength": 177.06509232521057
        }
      },
      "pbrMetallicRoughness": {
        "baseColorFactor": [
          0.25295013189315796,
          0.0,
          0.0,
          1.0
        ],
        "metallicFactor": 0.0,
        "roughnessFactor": 0.5
      },
      "emissiveFactor": [
        1.0,
        0.0,
        0.0
      ],
      "alphaMode": "OPAQUE",
      "doubleSided": true,
      "name": "gltf_power_light_red"
    },
    {
      "extensions": {
        "KHR_materials_emissive_strength": {
          "emissiveStrength": 177.06509232521057
        }
      },
      "pbrMetallicRoughness": {
        "baseColorFactor": [
          0.0008535206434316933,
          0.25295013189315796,
          0.0,
          1.0
        ],
        "metallicFactor": 0.0,
        "roughnessFactor": 0.5
      },
      "emissiveFactor": [
        0.0033742644727784,
        1.0,
        0.0
      ],
      "alphaMode": "OPAQUE",
      "doubleSided": true,
      "name": "gltf_power_light_green"
    },
    {
      "extensions": {
        "KHR_materials_emissive_strength": {
          "emissiveStrength": 222.9908972978592
        }
      },
      "pbrMetallicRoughness": {
        "baseColorFactor": [
          0.0021969720255583525,
          0.042550720274448395,
          0.3185584247112274,
          1.0
        ],
        "metallicFactor": 0.0,
        "roughnessFactor": 0.5
      },
      "emissiveFactor": [
        0.0068966062584905835,
        0.1335727357172253,
        1.0
      ],
      "alphaMode": "OPAQUE",
      "doubleSided": true,
      "name": "gltf_power_light_blue"
    }
  ],
  "meshes": [
    {
      "primitives": [
        {
          "attributes": {
            "POSITION": 0,
            "NORMAL": 1,
            "TEXCOORD_0": 2,
            "TEXCOORD_1": 3
          },
          "indices": 4,
          "mode": 4,
          "material": 0
        },
        {
          "attributes": {
            "POSITION": 10,
            "NORMAL": 11,
            "TEXCOORD_0": 12,
            "TEXCOORD_1": 13
          },
          "indices": 5,
          "mode": 4,
          "material": 1
        },
        {
          "attributes": {
            "POSITION": 14,
            "NORMAL": 15,
            "TEXCOORD_0": 16,
            "TEXCOORD_1": 17
          },
          "indices": 6,
          "mode": 4,
          "material": 2
        },
        {
          "attributes": {
            "POSITION": 18,
            "NORMAL": 19,
            "TEXCOORD_0": 20,
            "TEXCOORD_1": 21
          },
          "indices": 7,
          "mode": 4,
          "material": 3
        },
        {
          "attributes": {
            "POSITION": 22,
            "NORMAL": 23,
            "TEXCOORD_0": 24,
            "TEXCOORD_1": 25
          },
          "indices": 8,
          "mode": 4,
          "material": 4
        },
        {
          "attributes": {
            "POSITION": 26,
            "NORMAL": 27,
            "TEXCOORD_0": 28,
            "TEXCOORD_1": 29
          },
          "indices": 9,
          "mode": 4,
          "material": 5
        },
        {
          "attributes": {
            "POSITION": 30,
            "NORMAL": 31,
            "TEXCOORD_0": 32,
            "TEXCOORD_1": 33
          },
          "indices": 9,
          "mode": 4,
          "material": 6
        }
      ],
      "name": "LED_0404_1010Metric_RGB"
    }
  ],
  "nodes": [
    {
      "extras": {
        "PRIO": 0,
        "model_diagonal": 1.5564381799715183
      },
      "mesh": 0,
      "name": "LED_0404_1010Metric_RGB"
    }
  ],
  "scene": 0,
  "scenes": [
    {
      "name": "Scene",
      "nodes": [
        0
      ]
    }
  ]
}