<?xml version="1.0" standalone="no"?>
 <!DOCTYPE svg PUBLIC "-//W3C//DTD SVG 1.1//EN" 
 "http://www.w3.org/Graphics/SVG/1.1/DTD/svg11.dtd"> 
<svg
  xmlns:svg="http://www.w3.org/2000/svg"
  xmlns="http://www.w3.org/2000/svg"
  xmlns:xlink="http://www.w3.org/1999/xlink"
  version="1.1"
  width="7.2898mm" height="5.4356mm" viewBox="0.0000 0.0000 7.2898 5.4356">
<title>SVG Image created as outline.svg date 2025/06/16 09:17:55 </title>
  <desc>Image generated by PCBNEW </desc>
<g style="fill:#000000; fill-opacity:1.0000;stroke:#000000; stroke-opacity:1.0000;
stroke-linecap:round; stroke-linejoin:round;"
 transform="translate(0 0) scale(1 1)">
</g>
<g style="fill:none; 
stroke:#000000; stroke-width:0.0200; stroke-opacity:1; 
stroke-linecap:round; stroke-linejoin:round;">
<path d="M0.6500 0.6150
L0.8970 0.6150
" />
<path d="M0.6500 1.0250
L0.6500 0.6150
" />
<path d="M0.6500 1.0250
L0.8970 1.0250
" />
<path d="M0.6500 1.8850
L0.8970 1.8850
" />
<path d="M0.6500 2.2950
L0.6500 1.8850
" />
<path d="M0.6500 2.2950
L0.8970 2.2950
" />
<path d="M0.6500 3.1530
L0.8970 3.1530
" />
<path d="M0.6500 3.5630
L0.6500 3.1530
" />
<path d="M0.6500 3.5630
L0.8970 3.5630
" />
<path d="M0.6500 4.4240
L0.8970 4.4240
" />
<path d="M0.6500 4.8330
L0.6500 4.4240
" />
<path d="M0.6500 4.8330
L0.8970 4.8330
" />
<path d="M0.8970 0.6150
L0.9780 0.6150
" />
<path d="M0.8970 1.0250
L0.9780 1.0250
" />
<path d="M0.8970 1.8850
L0.9780 1.8850
" />
<path d="M0.8970 2.2950
L0.9780 2.2950
" />
<path d="M0.8970 3.1530
L0.9780 3.1530
" />
<path d="M0.8970 3.5630
L0.9780 3.5630
" />
<path d="M0.8970 4.4240
L0.9780 4.4240
" />
<path d="M0.8970 4.8330
L0.9780 4.8330
" />
<path d="M0.9780 0.6150
L1.5050 0.6150
" />
<path d="M0.9780 1.0250
L1.5050 1.0250
" />
<path d="M0.9780 1.8850
L1.5050 1.8850
" />
<path d="M0.9780 2.2950
L1.5050 2.2950
" />
<path d="M0.9780 3.1530
L1.5050 3.1530
" />
<path d="M0.9780 3.5630
L1.5050 3.5630
" />
<path d="M0.9780 4.4240
L1.5050 4.4240
" />
<path d="M0.9780 4.8330
L1.5050 4.8330
" />
<path d="M1.5050 0.6150
L1.5860 0.6150
" />
<path d="M1.5050 1.0250
L1.5860 1.0250
" />
<path d="M1.5050 1.8850
L1.5860 1.8850
" />
<path d="M1.5050 2.2950
L1.5860 2.2950
" />
<path d="M1.5050 3.1530
L1.5860 3.1530
" />
<path d="M1.5050 3.5630
L1.5860 3.5630
" />
<path d="M1.5050 4.4240
L1.5860 4.4240
" />
<path d="M1.5050 4.8330
L1.5860 4.8330
" />
<path d="M1.5860 0.6150
L1.7000 0.6150
" />
<path d="M1.5860 1.0250
L1.7000 1.0250
" />
<path d="M1.5860 1.8850
L1.7000 1.8850
" />
<path d="M1.5860 2.2950
L1.7000 2.2950
" />
<path d="M1.5860 3.1530
L1.7000 3.1530
" />
<path d="M1.5860 3.5630
L1.7000 3.5630
" />
<path d="M1.5860 4.4240
L1.7000 4.4240
" />
<path d="M1.5860 4.8330
L1.7000 4.8330
" />
<path d="M1.7000 0.2730
L5.5990 0.2730
" />
<path d="M1.7000 1.0250
L1.7000 0.6150
" />
<path d="M1.7000 2.2950
L1.7000 1.8850
" />
<path d="M1.7000 3.5630
L1.7000 3.1530
" />
<path d="M1.7000 4.8330
L1.7000 4.4240
" />
<path d="M1.7000 5.1750
L1.7000 0.2730
" />
<path d="M1.7000 5.1750
L5.5990 5.1750
" />
<path d="M2.0910 0.8840
L2.0910 0.8960
" />
<path d="M2.0910 0.8960
L2.0910 0.9100
" />
</g>
<g style="fill:#000000; fill-opacity:1.0000; stroke:none;">
<circle cx="2.0910" cy="0.9100" r="0.0100" /> 
</g>
<g style="fill:none; 
stroke:#000000; stroke-width:0.0200; stroke-opacity:1; 
stroke-linecap:round; stroke-linejoin:round;">
<path d="M2.0910 0.9100
L2.0910 0.9220
" />
<path d="M2.0910 0.9220
L2.0910 0.9330
" />
<path d="M2.0910 0.9330
L2.0930 0.9470
" />
<path d="M2.0930 0.8720
L2.0910 0.8840
" />
<path d="M2.0930 0.9470
L2.0950 0.9590
" />
<path d="M2.0950 0.8600
L2.0930 0.8720
" />
<path d="M2.0950 0.9590
L2.0970 0.9690
" />
<path d="M2.0970 0.8480
L2.0950 0.8600
" />
<path d="M2.0970 0.9690
L2.1010 0.9810
" />
<path d="M2.1010 0.8360
L2.0970 0.8480
" />
<path d="M2.1010 0.9810
L2.1050 0.9930
" />
<path d="M2.1050 0.8260
L2.1010 0.8360
" />
<path d="M2.1050 0.9930
L2.1090 1.0030
" />
<path d="M2.1090 0.8140
L2.1050 0.8260
" />
<path d="M2.1090 1.0030
L2.1140 1.0150
" />
<path d="M2.1140 0.8030
L2.1090 0.8140
" />
<path d="M2.1140 1.0150
L2.1200 1.0250
" />
<path d="M2.1200 0.7930
L2.1140 0.8030
" />
<path d="M2.1200 1.0250
L2.1260 1.0350
" />
<path d="M2.1260 0.7830
L2.1200 0.7930
" />
<path d="M2.1260 1.0350
L2.1320 1.0450
" />
<path d="M2.1320 0.7730
L2.1260 0.7830
" />
<path d="M2.1320 1.0450
L2.1380 1.0550
" />
<path d="M2.1380 0.7630
L2.1320 0.7730
" />
<path d="M2.1380 1.0550
L2.1460 1.0640
" />
<path d="M2.1460 0.7530
L2.1380 0.7630
" />
<path d="M2.1460 1.0640
L2.1540 1.0720
" />
<path d="M2.1540 0.7450
L2.1460 0.7530
" />
<path d="M2.1540 1.0720
L2.1620 1.0820
" />
<path d="M2.1620 0.7370
L2.1540 0.7450
" />
<path d="M2.1620 1.0820
L2.1700 1.0900
" />
<path d="M2.1700 0.7290
L2.1620 0.7370
" />
<path d="M2.1700 1.0900
L2.1780 1.0980
" />
<path d="M2.1780 0.7210
L2.1700 0.7290
" />
<path d="M2.1780 1.0980
L2.1880 1.1040
" />
<path d="M2.1880 0.7130
L2.1780 0.7210
" />
<path d="M2.1880 1.1040
L2.1980 1.1120
" />
<path d="M2.1980 0.7060
L2.1880 0.7130
" />
<path d="M2.1980 1.1120
L2.2080 1.1180
" />
<path d="M2.2080 0.7010
L2.1980 0.7060
" />
<path d="M2.2080 1.1180
L2.2180 1.1240
" />
<path d="M2.2180 0.6940
L2.2080 0.7010
" />
<path d="M2.2180 1.1240
L2.2280 1.1280
" />
<path d="M2.2280 0.6890
L2.2180 0.6940
" />
<path d="M2.2280 1.1280
L2.2400 1.1340
" />
<path d="M2.2400 0.6850
L2.2280 0.6890
" />
<path d="M2.2400 1.1340
L2.2510 1.1380
" />
<path d="M2.2510 0.6810
L2.2400 0.6850
" />
<path d="M2.2510 1.1380
L2.2610 1.1420
" />
<path d="M2.2610 0.6770
L2.2510 0.6810
" />
<path d="M2.2610 1.1420
L2.2730 1.1460
" />
<path d="M2.2730 0.6720
L2.2610 0.6770
" />
<path d="M2.2730 1.1460
L2.2850 1.1480
" />
<path d="M2.2850 0.6710
L2.2730 0.6720
" />
<path d="M2.2850 1.1480
L2.2970 1.1500
" />
<path d="M2.2970 0.6680
L2.2850 0.6710
" />
<path d="M2.2970 1.1500
L2.3090 1.1520
" />
<path d="M2.3090 0.6670
L2.2970 0.6680
" />
<path d="M2.3090 1.1520
L2.3210 1.1520
" />
<path d="M2.3210 0.6650
L2.3090 0.6670
" />
<path d="M2.3210 1.1520
L2.3350 1.1520
" />
<path d="M2.3350 0.6650
L2.3210 0.6650
" />
</g>
<g style="fill:#000000; fill-opacity:1.0000; stroke:none;">
<circle cx="2.3350" cy="0.6650" r="0.0100" /> 
<circle cx="2.3350" cy="1.1520" r="0.0100" /> 
</g>
<g style="fill:none; 
stroke:#000000; stroke-width:0.0200; stroke-opacity:1; 
stroke-linecap:round; stroke-linejoin:round;">
<path d="M2.3350 1.1520
L2.3470 1.1520
" />
<path d="M2.3470 0.6650
L2.3350 0.6650
" />
<path d="M2.3470 1.1520
L2.3590 1.1520
" />
<path d="M2.3590 0.6670
L2.3470 0.6650
" />
<path d="M2.3590 1.1520
L2.3720 1.1500
" />
<path d="M2.3720 0.6680
L2.3590 0.6670
" />
<path d="M2.3720 1.1500
L2.3840 1.1480
" />
<path d="M2.3840 0.6710
L2.3720 0.6680
" />
<path d="M2.3840 1.1480
L2.3940 1.1460
" />
<path d="M2.3940 0.6720
L2.3840 0.6710
" />
<path d="M2.3940 1.1460
L2.4060 1.1420
" />
<path d="M2.4060 0.6770
L2.3940 0.6720
" />
<path d="M2.4060 1.1420
L2.4180 1.1380
" />
<path d="M2.4180 0.6810
L2.4060 0.6770
" />
<path d="M2.4180 1.1380
L2.4280 1.1340
" />
<path d="M2.4280 0.6850
L2.4180 0.6810
" />
<path d="M2.4280 1.1340
L2.4400 1.1280
" />
<path d="M2.4400 0.6890
L2.4280 0.6850
" />
<path d="M2.4400 1.1280
L2.4500 1.1240
" />
<path d="M2.4500 0.6940
L2.4400 0.6890
" />
<path d="M2.4500 1.1240
L2.4600 1.1180
" />
<path d="M2.4600 0.7010
L2.4500 0.6940
" />
<path d="M2.4600 1.1180
L2.4700 1.1120
" />
<path d="M2.4700 0.7060
L2.4600 0.7010
" />
<path d="M2.4700 1.1120
L2.4800 1.1040
" />
<path d="M2.4800 0.7130
L2.4700 0.7060
" />
<path d="M2.4800 1.1040
L2.4900 1.0980
" />
<path d="M2.4900 0.7210
L2.4800 0.7130
" />
<path d="M2.4900 1.0980
L2.4970 1.0900
" />
<path d="M2.4970 0.7290
L2.4900 0.7210
" />
<path d="M2.4970 1.0900
L2.5070 1.0820
" />
<path d="M2.5070 0.7370
L2.4970 0.7290
" />
<path d="M2.5070 1.0820
L2.5150 1.0720
" />
<path d="M2.5150 0.7450
L2.5070 0.7370
" />
<path d="M2.5150 1.0720
L2.5230 1.0640
" />
<path d="M2.5230 0.7530
L2.5150 0.7450
" />
<path d="M2.5230 1.0640
L2.5290 1.0550
" />
<path d="M2.5290 0.7630
L2.5230 0.7530
" />
<path d="M2.5290 1.0550
L2.5370 1.0450
" />
<path d="M2.5370 0.7730
L2.5290 0.7630
" />
<path d="M2.5370 1.0450
L2.5430 1.0350
" />
<path d="M2.5430 0.7830
L2.5370 0.7730
" />
<path d="M2.5430 1.0350
L2.5490 1.0250
" />
<path d="M2.5490 0.7930
L2.5430 0.7830
" />
<path d="M2.5490 1.0250
L2.5530 1.0150
" />
<path d="M2.5530 0.8030
L2.5490 0.7930
" />
<path d="M2.5530 1.0150
L2.5590 1.0030
" />
<path d="M2.5590 0.8140
L2.5530 0.8030
" />
<path d="M2.5590 1.0030
L2.5630 0.9930
" />
<path d="M2.5630 0.8260
L2.5590 0.8140
" />
<path d="M2.5630 0.9930
L2.5670 0.9810
" />
<path d="M2.5670 0.8360
L2.5630 0.8260
" />
<path d="M2.5670 0.9810
L2.5710 0.9690
" />
<path d="M2.5710 0.8480
L2.5670 0.8360
" />
<path d="M2.5710 0.9690
L2.5730 0.9590
" />
<path d="M2.5730 0.8600
L2.5710 0.8480
" />
<path d="M2.5730 0.9590
L2.5750 0.9470
" />
<path d="M2.5750 0.8720
L2.5730 0.8600
" />
<path d="M2.5750 0.9470
L2.5770 0.9330
" />
<path d="M2.5770 0.8840
L2.5750 0.8720
" />
<path d="M2.5770 0.8960
L2.5770 0.8840
" />
<path d="M2.5770 0.9100
L2.5770 0.8960
" />
</g>
<g style="fill:#000000; fill-opacity:1.0000; stroke:none;">
<circle cx="2.5770" cy="0.9100" r="0.0100" /> 
<circle cx="2.5770" cy="0.9100" r="0.0100" /> 
</g>
<g style="fill:none; 
stroke:#000000; stroke-width:0.0200; stroke-opacity:1; 
stroke-linecap:round; stroke-linejoin:round;">
<path d="M2.5770 0.9220
L2.5770 0.9100
" />
<path d="M2.5770 0.9330
L2.5770 0.9220
" />
<path d="M5.5990 0.6150
L5.7110 0.6150
" />
<path d="M5.5990 1.0250
L5.5990 0.6150
" />
<path d="M5.5990 1.0250
L5.7110 1.0250
" />
<path d="M5.5990 1.8850
L5.7110 1.8850
" />
<path d="M5.5990 2.2950
L5.5990 1.8850
" />
<path d="M5.5990 2.2950
L5.7110 2.2950
" />
<path d="M5.5990 3.1530
L5.7110 3.1530
" />
<path d="M5.5990 3.5630
L5.5990 3.1530
" />
<path d="M5.5990 3.5630
L5.7110 3.5630
" />
<path d="M5.5990 4.4240
L5.7110 4.4240
" />
<path d="M5.5990 4.8330
L5.5990 4.4240
" />
<path d="M5.5990 4.8330
L5.7110 4.8330
" />
<path d="M5.5990 5.1750
L5.5990 0.2730
" />
<path d="M5.7930 0.6150
L5.7110 0.6150
" />
<path d="M5.7930 1.0250
L5.7110 1.0250
" />
<path d="M5.7930 1.8850
L5.7110 1.8850
" />
<path d="M5.7930 2.2950
L5.7110 2.2950
" />
<path d="M5.7930 3.1530
L5.7110 3.1530
" />
<path d="M5.7930 3.5630
L5.7110 3.5630
" />
<path d="M5.7930 4.4240
L5.7110 4.4240
" />
<path d="M5.7930 4.8330
L5.7110 4.8330
" />
<path d="M6.3190 0.6150
L5.7930 0.6150
" />
<path d="M6.3190 1.0250
L5.7930 1.0250
" />
<path d="M6.3190 1.8850
L5.7930 1.8850
" />
<path d="M6.3190 2.2950
L5.7930 2.2950
" />
<path d="M6.3190 3.1530
L5.7930 3.1530
" />
<path d="M6.3190 3.5630
L5.7930 3.5630
" />
<path d="M6.3190 4.4240
L5.7930 4.4240
" />
<path d="M6.3190 4.8330
L5.7930 4.8330
" />
<path d="M6.4000 0.6150
L6.3190 0.6150
" />
<path d="M6.4000 0.6150
L6.6490 0.6150
" />
<path d="M6.4000 1.0250
L6.3190 1.0250
" />
<path d="M6.4000 1.0250
L6.6490 1.0250
" />
<path d="M6.4000 1.8850
L6.3190 1.8850
" />
<path d="M6.4000 1.8850
L6.6490 1.8850
" />
<path d="M6.4000 2.2950
L6.3190 2.2950
" />
<path d="M6.4000 2.2950
L6.6490 2.2950
" />
<path d="M6.4000 3.1530
L6.3190 3.1530
" />
<path d="M6.4000 3.1530
L6.6490 3.1530
" />
<path d="M6.4000 3.5630
L6.3190 3.5630
" />
<path d="M6.4000 3.5630
L6.6490 3.5630
" />
<path d="M6.4000 4.4240
L6.3190 4.4240
" />
<path d="M6.4000 4.4240
L6.6490 4.4240
" />
<path d="M6.4000 4.8330
L6.3190 4.8330
" />
<path d="M6.4000 4.8330
L6.6490 4.8330
" />
<path d="M6.6490 1.0250
L6.6490 0.6150
" />
<path d="M6.6490 2.2950
L6.6490 1.8850
" />
<path d="M6.6490 3.5630
L6.6490 3.1530
" />
<path d="M6.6490 4.8330
L6.6490 4.4240
" />
</g> 
</svg>
