<?xml version="1.0" standalone="no"?>
 <!DOCTYPE svg PUBLIC "-//W3C//DTD SVG 1.1//EN" 
 "http://www.w3.org/Graphics/SVG/1.1/DTD/svg11.dtd"> 
<svg
  xmlns:svg="http://www.w3.org/2000/svg"
  xmlns="http://www.w3.org/2000/svg"
  xmlns:xlink="http://www.w3.org/1999/xlink"
  version="1.1"
  width="1.4478mm" height="0.7366mm" viewBox="0.0000 0.0000 1.4478 0.7366">
<title>SVG Image created as outline.svg date 2025/04/04 10:06:25 </title>
  <desc>Image generated by PCBNEW </desc>
<g style="fill:#000000; fill-opacity:1.0000;stroke:#000000; stroke-opacity:1.0000;
stroke-linecap:round; stroke-linejoin:round;"
 transform="translate(0 0) scale(1 1)">
</g>
<g style="fill:none; 
stroke:#000000; stroke-width:0.0200; stroke-opacity:1; 
stroke-linecap:round; stroke-linejoin:round;">
<path d="M0.4240 0.2170
L0.4240 0.2180
" />
<path d="M0.4240 0.2180
L0.4240 0.2190
" />
</g>
<g style="fill:#000000; fill-opacity:1.0000; stroke:none;">
<circle cx="0.4240" cy="0.2190" r="0.0100" /> 
</g>
<g style="fill:none; 
stroke:#000000; stroke-width:0.0200; stroke-opacity:1; 
stroke-linecap:round; stroke-linejoin:round;">
<path d="M0.4240 0.2190
L0.4240 0.2210
" />
<path d="M0.4240 0.2210
L0.4240 0.2220
" />
</g>
<g style="fill:#000000; fill-opacity:1.0000; stroke:none;">
<circle cx="0.4240" cy="0.2220" r="0.0100" /> 
</g>
<g style="fill:none; 
stroke:#000000; stroke-width:0.0200; stroke-opacity:1; 
stroke-linecap:round; stroke-linejoin:round;">
<path d="M0.4240 0.2220
L0.4240 0.2230
" />
<path d="M0.4240 0.2230
L0.4240 0.2240
" />
<path d="M0.4240 0.2240
L0.4240 0.2250
" />
<path d="M0.4240 0.2250
L0.4240 0.2260
" />
</g>
<g style="fill:#000000; fill-opacity:1.0000; stroke:none;">
<circle cx="0.4240" cy="0.2260" r="0.0100" /> 
<circle cx="0.4240" cy="0.2260" r="0.0100" /> 
</g>
<g style="fill:none; 
stroke:#000000; stroke-width:0.0200; stroke-opacity:1; 
stroke-linecap:round; stroke-linejoin:round;">
<path d="M0.4240 0.2260
L0.4240 0.2270
" />
<path d="M0.4240 0.2270
L0.4240 0.2280
" />
<path d="M0.4240 0.2280
L0.4240 0.2290
" />
</g>
<g style="fill:#000000; fill-opacity:1.0000; stroke:none;">
<circle cx="0.4240" cy="0.2290" r="0.0100" /> 
</g>
<g style="fill:none; 
stroke:#000000; stroke-width:0.0200; stroke-opacity:1; 
stroke-linecap:round; stroke-linejoin:round;">
<path d="M0.4240 0.2290
L0.4240 0.2300
" />
<path d="M0.4240 0.2300
L0.4240 0.2310
" />
</g>
<g style="fill:#000000; fill-opacity:1.0000; stroke:none;">
<circle cx="0.4240" cy="0.2310" r="0.0100" /> 
</g>
<g style="fill:none; 
stroke:#000000; stroke-width:0.0200; stroke-opacity:1; 
stroke-linecap:round; stroke-linejoin:round;">
<path d="M0.4240 0.2310
L0.4240 0.2320
" />
<path d="M0.4240 0.2320
L0.4240 0.2330
" />
<path d="M0.4240 0.2330
L0.4280 0.2330
" />
<path d="M0.4240 0.5180
L0.4240 0.5190
" />
</g>
<g style="fill:#000000; fill-opacity:1.0000; stroke:none;">
<circle cx="0.4240" cy="0.5190" r="0.0100" /> 
<circle cx="0.4240" cy="0.5190" r="0.0100" /> 
</g>
<g style="fill:none; 
stroke:#000000; stroke-width:0.0200; stroke-opacity:1; 
stroke-linecap:round; stroke-linejoin:round;">
<path d="M0.4240 0.5190
L0.4240 0.5210
" />
<path d="M0.4240 0.5210
L0.4240 0.5220
" />
</g>
<g style="fill:#000000; fill-opacity:1.0000; stroke:none;">
<circle cx="0.4240" cy="0.5220" r="0.0100" /> 
<circle cx="0.4240" cy="0.5220" r="0.0100" /> 
</g>
<g style="fill:none; 
stroke:#000000; stroke-width:0.0200; stroke-opacity:1; 
stroke-linecap:round; stroke-linejoin:round;">
<path d="M0.4240 0.5220
L0.4240 0.5230
" />
<path d="M0.4240 0.5230
L0.4240 0.5250
" />
<path d="M0.4240 0.5250
L0.4240 0.2260
" />
</g>
<g style="fill:#000000; fill-opacity:1.0000; stroke:none;">
<circle cx="0.4240" cy="0.5250" r="0.0100" /> 
<circle cx="0.4240" cy="0.5250" r="0.0100" /> 
</g>
<g style="fill:none; 
stroke:#000000; stroke-width:0.0200; stroke-opacity:1; 
stroke-linecap:round; stroke-linejoin:round;">
<path d="M0.4240 0.5250
L0.4240 0.5260
" />
</g>
<g style="fill:#000000; fill-opacity:1.0000; stroke:none;">
<circle cx="0.4240" cy="0.5260" r="0.0100" /> 
<circle cx="0.4240" cy="0.5260" r="0.0100" /> 
</g>
<g style="fill:none; 
stroke:#000000; stroke-width:0.0200; stroke-opacity:1; 
stroke-linecap:round; stroke-linejoin:round;">
<path d="M0.4240 0.5260
L0.4240 0.5280
" />
</g>
<g style="fill:#000000; fill-opacity:1.0000; stroke:none;">
<circle cx="0.4240" cy="0.5280" r="0.0100" /> 
</g>
<g style="fill:none; 
stroke:#000000; stroke-width:0.0200; stroke-opacity:1; 
stroke-linecap:round; stroke-linejoin:round;">
<path d="M0.4240 0.5280
L0.4240 0.5290
" />
<path d="M0.4240 0.5290
L0.4240 0.5300
" />
</g>
<g style="fill:#000000; fill-opacity:1.0000; stroke:none;">
<circle cx="0.4240" cy="0.5300" r="0.0100" /> 
<circle cx="0.4240" cy="0.5300" r="0.0100" /> 
</g>
<g style="fill:none; 
stroke:#000000; stroke-width:0.0200; stroke-opacity:1; 
stroke-linecap:round; stroke-linejoin:round;">
<path d="M0.4240 0.5300
L0.4240 0.5320
" />
<path d="M0.4240 0.5320
L0.4280 0.5320
" />
<path d="M0.4280 0.2130
L0.4280 0.2140
" />
</g>
<g style="fill:#000000; fill-opacity:1.0000; stroke:none;">
<circle cx="0.4280" cy="0.2140" r="0.0100" /> 
</g>
<g style="fill:none; 
stroke:#000000; stroke-width:0.0200; stroke-opacity:1; 
stroke-linecap:round; stroke-linejoin:round;">
<path d="M0.4280 0.2140
L0.4280 0.2150
" />
<path d="M0.4280 0.2150
L0.4280 0.2160
" />
</g>
<g style="fill:#000000; fill-opacity:1.0000; stroke:none;">
<circle cx="0.4280" cy="0.2160" r="0.0100" /> 
</g>
<g style="fill:none; 
stroke:#000000; stroke-width:0.0200; stroke-opacity:1; 
stroke-linecap:round; stroke-linejoin:round;">
<path d="M0.4280 0.2160
L0.4280 0.2170
" />
<path d="M0.4280 0.2170
L0.4240 0.2170
" />
<path d="M0.4280 0.2330
L0.4280 0.2340
" />
</g>
<g style="fill:#000000; fill-opacity:1.0000; stroke:none;">
<circle cx="0.4280" cy="0.2340" r="0.0100" /> 
</g>
<g style="fill:none; 
stroke:#000000; stroke-width:0.0200; stroke-opacity:1; 
stroke-linecap:round; stroke-linejoin:round;">
<path d="M0.4280 0.2340
L0.4280 0.2350
" />
<path d="M0.4280 0.2350
L0.4280 0.2360
" />
</g>
<g style="fill:#000000; fill-opacity:1.0000; stroke:none;">
<circle cx="0.4280" cy="0.2360" r="0.0100" /> 
</g>
<g style="fill:none; 
stroke:#000000; stroke-width:0.0200; stroke-opacity:1; 
stroke-linecap:round; stroke-linejoin:round;">
<path d="M0.4280 0.2360
L0.4280 0.2370
" />
<path d="M0.4280 0.2370
L0.4300 0.2370
" />
</g>
<g style="fill:#000000; fill-opacity:1.0000; stroke:none;">
<circle cx="0.4280" cy="0.5130" r="0.0100" /> 
<circle cx="0.4280" cy="0.5130" r="0.0100" /> 
</g>
<g style="fill:none; 
stroke:#000000; stroke-width:0.0200; stroke-opacity:1; 
stroke-linecap:round; stroke-linejoin:round;">
<path d="M0.4280 0.5130
L0.4280 0.5150
" />
<path d="M0.4280 0.5150
L0.4280 0.5170
" />
</g>
<g style="fill:#000000; fill-opacity:1.0000; stroke:none;">
<circle cx="0.4280" cy="0.5170" r="0.0100" /> 
</g>
<g style="fill:none; 
stroke:#000000; stroke-width:0.0200; stroke-opacity:1; 
stroke-linecap:round; stroke-linejoin:round;">
<path d="M0.4280 0.5170
L0.4280 0.5180
" />
<path d="M0.4280 0.5180
L0.4240 0.5180
" />
<path d="M0.4280 0.5320
L0.4280 0.5330
" />
</g>
<g style="fill:#000000; fill-opacity:1.0000; stroke:none;">
<circle cx="0.4280" cy="0.5330" r="0.0100" /> 
</g>
<g style="fill:none; 
stroke:#000000; stroke-width:0.0200; stroke-opacity:1; 
stroke-linecap:round; stroke-linejoin:round;">
<path d="M0.4280 0.5330
L0.4280 0.5340
" />
<path d="M0.4280 0.5340
L0.4280 0.5350
" />
</g>
<g style="fill:#000000; fill-opacity:1.0000; stroke:none;">
<circle cx="0.4280" cy="0.5350" r="0.0100" /> 
</g>
<g style="fill:none; 
stroke:#000000; stroke-width:0.0200; stroke-opacity:1; 
stroke-linecap:round; stroke-linejoin:round;">
<path d="M0.4280 0.5350
L0.4280 0.5360
" />
<path d="M0.4280 0.5360
L0.4300 0.5360
" />
<path d="M0.4300 0.2130
L0.4280 0.2130
" />
<path d="M0.4300 0.2370
L0.4320 0.2380
" />
<path d="M0.4300 0.5130
L0.4280 0.5130
" />
<path d="M0.4300 0.5360
L0.4320 0.5370
" />
</g>
<g style="fill:#000000; fill-opacity:1.0000; stroke:none;">
<circle cx="0.4320" cy="0.2110" r="0.0100" /> 
</g>
<g style="fill:none; 
stroke:#000000; stroke-width:0.0200; stroke-opacity:1; 
stroke-linecap:round; stroke-linejoin:round;">
<path d="M0.4320 0.2110
L0.4320 0.2120
" />
<path d="M0.4320 0.2120
L0.4300 0.2130
" />
</g>
<g style="fill:#000000; fill-opacity:1.0000; stroke:none;">
<circle cx="0.4320" cy="0.2120" r="0.0100" /> 
<circle cx="0.4320" cy="0.2120" r="0.0100" /> 
<circle cx="0.4320" cy="0.2380" r="0.0100" /> 
<circle cx="0.4320" cy="0.2380" r="0.0100" /> 
</g>
<g style="fill:none; 
stroke:#000000; stroke-width:0.0200; stroke-opacity:1; 
stroke-linecap:round; stroke-linejoin:round;">
<path d="M0.4320 0.2380
L0.4320 0.2390
" />
</g>
<g style="fill:#000000; fill-opacity:1.0000; stroke:none;">
<circle cx="0.4320" cy="0.2390" r="0.0100" /> 
</g>
<g style="fill:none; 
stroke:#000000; stroke-width:0.0200; stroke-opacity:1; 
stroke-linecap:round; stroke-linejoin:round;">
<path d="M0.4320 0.2390
L0.4340 0.2390
" />
</g>
<g style="fill:#000000; fill-opacity:1.0000; stroke:none;">
<circle cx="0.4320" cy="0.5100" r="0.0100" /> 
</g>
<g style="fill:none; 
stroke:#000000; stroke-width:0.0200; stroke-opacity:1; 
stroke-linecap:round; stroke-linejoin:round;">
<path d="M0.4320 0.5100
L0.4320 0.5120
" />
<path d="M0.4320 0.5120
L0.4300 0.5130
" />
</g>
<g style="fill:#000000; fill-opacity:1.0000; stroke:none;">
<circle cx="0.4320" cy="0.5120" r="0.0100" /> 
<circle cx="0.4320" cy="0.5120" r="0.0100" /> 
<circle cx="0.4320" cy="0.5370" r="0.0100" /> 
<circle cx="0.4320" cy="0.5370" r="0.0100" /> 
</g>
<g style="fill:none; 
stroke:#000000; stroke-width:0.0200; stroke-opacity:1; 
stroke-linecap:round; stroke-linejoin:round;">
<path d="M0.4320 0.5370
L0.4320 0.5380
" />
</g>
<g style="fill:#000000; fill-opacity:1.0000; stroke:none;">
<circle cx="0.4320" cy="0.5380" r="0.0100" /> 
</g>
<g style="fill:none; 
stroke:#000000; stroke-width:0.0200; stroke-opacity:1; 
stroke-linecap:round; stroke-linejoin:round;">
<path d="M0.4320 0.5380
L0.4340 0.5380
" />
<path d="M0.4340 0.2100
L0.4340 0.2110
" />
<path d="M0.4340 0.2110
L0.4320 0.2110
" />
<path d="M0.4340 0.2390
L0.4340 0.2400
" />
<path d="M0.4340 0.2400
L0.4360 0.2400
" />
<path d="M0.4340 0.5100
L0.4320 0.5100
" />
</g>
<g style="fill:#000000; fill-opacity:1.0000; stroke:none;">
<circle cx="0.4340" cy="0.5100" r="0.0100" /> 
</g>
<g style="fill:none; 
stroke:#000000; stroke-width:0.0200; stroke-opacity:1; 
stroke-linecap:round; stroke-linejoin:round;">
<path d="M0.4340 0.5380
L0.4340 0.5390
" />
<path d="M0.4340 0.5390
L0.4360 0.5390
" />
<path d="M0.4360 0.2100
L0.4340 0.2100
" />
</g>
<g style="fill:#000000; fill-opacity:1.0000; stroke:none;">
<circle cx="0.4360" cy="0.2100" r="0.0100" /> 
<circle cx="0.4360" cy="0.2100" r="0.0100" /> 
<circle cx="0.4360" cy="0.2100" r="0.0100" /> 
<circle cx="0.4360" cy="0.2400" r="0.0100" /> 
<circle cx="0.4360" cy="0.2400" r="0.0100" /> 
<circle cx="0.4360" cy="0.2400" r="0.0100" /> 
</g>
<g style="fill:none; 
stroke:#000000; stroke-width:0.0200; stroke-opacity:1; 
stroke-linecap:round; stroke-linejoin:round;">
<path d="M0.4360 0.2400
L0.4380 0.2400
" />
<path d="M0.4360 0.5100
L0.4340 0.5100
" />
</g>
<g style="fill:#000000; fill-opacity:1.0000; stroke:none;">
<circle cx="0.4360" cy="0.5100" r="0.0100" /> 
<circle cx="0.4360" cy="0.5100" r="0.0100" /> 
<circle cx="0.4360" cy="0.5100" r="0.0100" /> 
<circle cx="0.4360" cy="0.5390" r="0.0100" /> 
<circle cx="0.4360" cy="0.5390" r="0.0100" /> 
<circle cx="0.4360" cy="0.5390" r="0.0100" /> 
</g>
<g style="fill:none; 
stroke:#000000; stroke-width:0.0200; stroke-opacity:1; 
stroke-linecap:round; stroke-linejoin:round;">
<path d="M0.4360 0.5390
L0.4380 0.5390
" />
<path d="M0.4380 0.2100
L0.4360 0.2100
" />
<path d="M0.4380 0.2400
L0.4400 0.2400
" />
<path d="M0.4380 0.5100
L0.4360 0.5100
" />
<path d="M0.4380 0.5390
L0.4400 0.5390
" />
</g>
<g style="fill:#000000; fill-opacity:1.0000; stroke:none;">
<circle cx="0.4400" cy="0.2090" r="0.0100" /> 
</g>
<g style="fill:none; 
stroke:#000000; stroke-width:0.0200; stroke-opacity:1; 
stroke-linecap:round; stroke-linejoin:round;">
<path d="M0.4400 0.2090
L0.4400 0.2100
" />
<path d="M0.4400 0.2090
L0.5730 0.2090
" />
<path d="M0.4400 0.2100
L0.4380 0.2100
" />
<path d="M0.4400 0.2100
L0.4400 0.2090
" />
</g>
<g style="fill:#000000; fill-opacity:1.0000; stroke:none;">
<circle cx="0.4400" cy="0.2100" r="0.0100" /> 
<circle cx="0.4400" cy="0.2400" r="0.0100" /> 
<circle cx="0.4400" cy="0.2400" r="0.0100" /> 
<circle cx="0.4400" cy="0.2400" r="0.0100" /> 
<circle cx="0.4400" cy="0.2400" r="0.0100" /> 
</g>
<g style="fill:none; 
stroke:#000000; stroke-width:0.0200; stroke-opacity:1; 
stroke-linecap:round; stroke-linejoin:round;">
<path d="M0.4400 0.2400
L0.4420 0.2400
" />
<path d="M0.4400 0.5100
L0.4380 0.5100
" />
</g>
<g style="fill:#000000; fill-opacity:1.0000; stroke:none;">
<circle cx="0.4400" cy="0.5100" r="0.0100" /> 
<circle cx="0.4400" cy="0.5100" r="0.0100" /> 
<circle cx="0.4400" cy="0.5100" r="0.0100" /> 
<circle cx="0.4400" cy="0.5100" r="0.0100" /> 
<circle cx="0.4400" cy="0.5390" r="0.0100" /> 
</g>
<g style="fill:none; 
stroke:#000000; stroke-width:0.0200; stroke-opacity:1; 
stroke-linecap:round; stroke-linejoin:round;">
<path d="M0.4400 0.5390
L0.4400 0.5400
" />
<path d="M0.4400 0.5390
L0.4420 0.5390
" />
<path d="M0.4400 0.5400
L0.4400 0.5390
" />
</g>
<g style="fill:#000000; fill-opacity:1.0000; stroke:none;">
<circle cx="0.4400" cy="0.5400" r="0.0100" /> 
</g>
<g style="fill:none; 
stroke:#000000; stroke-width:0.0200; stroke-opacity:1; 
stroke-linecap:round; stroke-linejoin:round;">
<path d="M0.4420 0.2100
L0.4400 0.2100
" />
<path d="M0.4420 0.2400
L0.4440 0.2400
" />
<path d="M0.4420 0.5100
L0.4400 0.5100
" />
<path d="M0.4420 0.5390
L0.4440 0.5390
" />
<path d="M0.4440 0.2100
L0.4420 0.2100
" />
</g>
<g style="fill:#000000; fill-opacity:1.0000; stroke:none;">
<circle cx="0.4440" cy="0.2100" r="0.0100" /> 
<circle cx="0.4440" cy="0.2100" r="0.0100" /> 
<circle cx="0.4440" cy="0.2100" r="0.0100" /> 
</g>
<g style="fill:none; 
stroke:#000000; stroke-width:0.0200; stroke-opacity:1; 
stroke-linecap:round; stroke-linejoin:round;">
<path d="M0.4440 0.2110
L0.4440 0.2100
" />
<path d="M0.4440 0.2390
L0.4460 0.2390
" />
<path d="M0.4440 0.2400
L0.4440 0.2390
" />
</g>
<g style="fill:#000000; fill-opacity:1.0000; stroke:none;">
<circle cx="0.4440" cy="0.2400" r="0.0100" /> 
<circle cx="0.4440" cy="0.2400" r="0.0100" /> 
<circle cx="0.4440" cy="0.2400" r="0.0100" /> 
</g>
<g style="fill:none; 
stroke:#000000; stroke-width:0.0200; stroke-opacity:1; 
stroke-linecap:round; stroke-linejoin:round;">
<path d="M0.4440 0.5100
L0.4420 0.5100
" />
</g>
<g style="fill:#000000; fill-opacity:1.0000; stroke:none;">
<circle cx="0.4440" cy="0.5100" r="0.0100" /> 
<circle cx="0.4440" cy="0.5100" r="0.0100" /> 
<circle cx="0.4440" cy="0.5100" r="0.0100" /> 
<circle cx="0.4440" cy="0.5100" r="0.0100" /> 
</g>
<g style="fill:none; 
stroke:#000000; stroke-width:0.0200; stroke-opacity:1; 
stroke-linecap:round; stroke-linejoin:round;">
<path d="M0.4440 0.5380
L0.4460 0.5380
" />
<path d="M0.4440 0.5390
L0.4440 0.5380
" />
</g>
<g style="fill:#000000; fill-opacity:1.0000; stroke:none;">
<circle cx="0.4440" cy="0.5390" r="0.0100" /> 
<circle cx="0.4440" cy="0.5390" r="0.0100" /> 
<circle cx="0.4440" cy="0.5390" r="0.0100" /> 
</g>
<g style="fill:none; 
stroke:#000000; stroke-width:0.0200; stroke-opacity:1; 
stroke-linecap:round; stroke-linejoin:round;">
<path d="M0.4460 0.2110
L0.4440 0.2110
" />
<path d="M0.4460 0.2390
L0.4480 0.2390
" />
<path d="M0.4460 0.5100
L0.4440 0.5100
" />
<path d="M0.4460 0.5380
L0.4480 0.5380
" />
<path d="M0.4480 0.2110
L0.4460 0.2110
" />
<path d="M0.4480 0.2120
L0.4480 0.2110
" />
</g>
<g style="fill:#000000; fill-opacity:1.0000; stroke:none;">
<circle cx="0.4480" cy="0.2120" r="0.0100" /> 
<circle cx="0.4480" cy="0.2120" r="0.0100" /> 
</g>
<g style="fill:none; 
stroke:#000000; stroke-width:0.0200; stroke-opacity:1; 
stroke-linecap:round; stroke-linejoin:round;">
<path d="M0.4480 0.2130
L0.4480 0.2120
" />
</g>
<g style="fill:#000000; fill-opacity:1.0000; stroke:none;">
<circle cx="0.4480" cy="0.2130" r="0.0100" /> 
</g>
<g style="fill:none; 
stroke:#000000; stroke-width:0.0200; stroke-opacity:1; 
stroke-linecap:round; stroke-linejoin:round;">
<path d="M0.4480 0.2140
L0.4480 0.2130
" />
<path d="M0.4480 0.2360
L0.4500 0.2360
" />
<path d="M0.4480 0.2370
L0.4480 0.2360
" />
</g>
<g style="fill:#000000; fill-opacity:1.0000; stroke:none;">
<circle cx="0.4480" cy="0.2370" r="0.0100" /> 
</g>
<g style="fill:none; 
stroke:#000000; stroke-width:0.0200; stroke-opacity:1; 
stroke-linecap:round; stroke-linejoin:round;">
<path d="M0.4480 0.2380
L0.4480 0.2370
" />
</g>
<g style="fill:#000000; fill-opacity:1.0000; stroke:none;">
<circle cx="0.4480" cy="0.2380" r="0.0100" /> 
<circle cx="0.4480" cy="0.2380" r="0.0100" /> 
</g>
<g style="fill:none; 
stroke:#000000; stroke-width:0.0200; stroke-opacity:1; 
stroke-linecap:round; stroke-linejoin:round;">
<path d="M0.4480 0.2390
L0.4480 0.2380
" />
<path d="M0.4480 0.5100
L0.4460 0.5100
" />
<path d="M0.4480 0.5120
L0.4480 0.5100
" />
</g>
<g style="fill:#000000; fill-opacity:1.0000; stroke:none;">
<circle cx="0.4480" cy="0.5120" r="0.0100" /> 
<circle cx="0.4480" cy="0.5120" r="0.0100" /> 
</g>
<g style="fill:none; 
stroke:#000000; stroke-width:0.0200; stroke-opacity:1; 
stroke-linecap:round; stroke-linejoin:round;">
<path d="M0.4480 0.5130
L0.4480 0.5120
" />
</g>
<g style="fill:#000000; fill-opacity:1.0000; stroke:none;">
<circle cx="0.4480" cy="0.5130" r="0.0100" /> 
<circle cx="0.4480" cy="0.5130" r="0.0100" /> 
</g>
<g style="fill:none; 
stroke:#000000; stroke-width:0.0200; stroke-opacity:1; 
stroke-linecap:round; stroke-linejoin:round;">
<path d="M0.4480 0.5350
L0.4500 0.5350
" />
<path d="M0.4480 0.5360
L0.4480 0.5350
" />
</g>
<g style="fill:#000000; fill-opacity:1.0000; stroke:none;">
<circle cx="0.4480" cy="0.5360" r="0.0100" /> 
</g>
<g style="fill:none; 
stroke:#000000; stroke-width:0.0200; stroke-opacity:1; 
stroke-linecap:round; stroke-linejoin:round;">
<path d="M0.4480 0.5370
L0.4480 0.5360
" />
</g>
<g style="fill:#000000; fill-opacity:1.0000; stroke:none;">
<circle cx="0.4480" cy="0.5370" r="0.0100" /> 
<circle cx="0.4480" cy="0.5370" r="0.0100" /> 
</g>
<g style="fill:none; 
stroke:#000000; stroke-width:0.0200; stroke-opacity:1; 
stroke-linecap:round; stroke-linejoin:round;">
<path d="M0.4480 0.5380
L0.4480 0.5370
" />
<path d="M0.4500 0.2140
L0.4480 0.2140
" />
<path d="M0.4500 0.2150
L0.4500 0.2140
" />
<path d="M0.4500 0.2350
L0.4520 0.2340
" />
<path d="M0.4500 0.2360
L0.4500 0.2350
" />
<path d="M0.4500 0.5130
L0.4480 0.5130
" />
<path d="M0.4500 0.5150
L0.4500 0.5130
" />
<path d="M0.4500 0.5340
L0.4520 0.5330
" />
<path d="M0.4500 0.5350
L0.4500 0.5340
" />
<path d="M0.4520 0.2160
L0.4500 0.2150
" />
</g>
<g style="fill:#000000; fill-opacity:1.0000; stroke:none;">
<circle cx="0.4520" cy="0.2160" r="0.0100" /> 
</g>
<g style="fill:none; 
stroke:#000000; stroke-width:0.0200; stroke-opacity:1; 
stroke-linecap:round; stroke-linejoin:round;">
<path d="M0.4520 0.2170
L0.4520 0.2160
" />
</g>
<g style="fill:#000000; fill-opacity:1.0000; stroke:none;">
<circle cx="0.4520" cy="0.2170" r="0.0100" /> 
</g>
<g style="fill:none; 
stroke:#000000; stroke-width:0.0200; stroke-opacity:1; 
stroke-linecap:round; stroke-linejoin:round;">
<path d="M0.4520 0.2180
L0.4520 0.2170
" />
<path d="M0.4520 0.2190
L0.4520 0.2180
" />
</g>
<g style="fill:#000000; fill-opacity:1.0000; stroke:none;">
<circle cx="0.4520" cy="0.2190" r="0.0100" /> 
</g>
<g style="fill:none; 
stroke:#000000; stroke-width:0.0200; stroke-opacity:1; 
stroke-linecap:round; stroke-linejoin:round;">
<path d="M0.4520 0.2210
L0.4520 0.2190
" />
<path d="M0.4520 0.2220
L0.4520 0.2210
" />
</g>
<g style="fill:#000000; fill-opacity:1.0000; stroke:none;">
<circle cx="0.4520" cy="0.2220" r="0.0100" /> 
</g>
<g style="fill:none; 
stroke:#000000; stroke-width:0.0200; stroke-opacity:1; 
stroke-linecap:round; stroke-linejoin:round;">
<path d="M0.4520 0.2230
L0.4520 0.2220
" />
<path d="M0.4520 0.2240
L0.4520 0.2230
" />
<path d="M0.4520 0.2250
L0.4520 0.2240
" />
<path d="M0.4520 0.2260
L0.4520 0.2250
" />
</g>
<g style="fill:#000000; fill-opacity:1.0000; stroke:none;">
<circle cx="0.4520" cy="0.2260" r="0.0100" /> 
<circle cx="0.4520" cy="0.2260" r="0.0100" /> 
<circle cx="0.4520" cy="0.2260" r="0.0100" /> 
</g>
<g style="fill:none; 
stroke:#000000; stroke-width:0.0200; stroke-opacity:1; 
stroke-linecap:round; stroke-linejoin:round;">
<path d="M0.4520 0.2270
L0.4520 0.2260
" />
<path d="M0.4520 0.2280
L0.4520 0.2270
" />
<path d="M0.4520 0.2290
L0.4520 0.2280
" />
</g>
<g style="fill:#000000; fill-opacity:1.0000; stroke:none;">
<circle cx="0.4520" cy="0.2290" r="0.0100" /> 
</g>
<g style="fill:none; 
stroke:#000000; stroke-width:0.0200; stroke-opacity:1; 
stroke-linecap:round; stroke-linejoin:round;">
<path d="M0.4520 0.2300
L0.4520 0.2290
" />
<path d="M0.4520 0.2310
L0.4520 0.2300
" />
</g>
<g style="fill:#000000; fill-opacity:1.0000; stroke:none;">
<circle cx="0.4520" cy="0.2310" r="0.0100" /> 
</g>
<g style="fill:none; 
stroke:#000000; stroke-width:0.0200; stroke-opacity:1; 
stroke-linecap:round; stroke-linejoin:round;">
<path d="M0.4520 0.2320
L0.4520 0.2310
" />
<path d="M0.4520 0.2330
L0.4520 0.2320
" />
</g>
<g style="fill:#000000; fill-opacity:1.0000; stroke:none;">
<circle cx="0.4520" cy="0.2330" r="0.0100" /> 
</g>
<g style="fill:none; 
stroke:#000000; stroke-width:0.0200; stroke-opacity:1; 
stroke-linecap:round; stroke-linejoin:round;">
<path d="M0.4520 0.2340
L0.4520 0.2330
" />
</g>
<g style="fill:#000000; fill-opacity:1.0000; stroke:none;">
<circle cx="0.4520" cy="0.2340" r="0.0100" /> 
</g>
<g style="fill:none; 
stroke:#000000; stroke-width:0.0200; stroke-opacity:1; 
stroke-linecap:round; stroke-linejoin:round;">
<path d="M0.4520 0.5170
L0.4500 0.5150
" />
</g>
<g style="fill:#000000; fill-opacity:1.0000; stroke:none;">
<circle cx="0.4520" cy="0.5170" r="0.0100" /> 
</g>
<g style="fill:none; 
stroke:#000000; stroke-width:0.0200; stroke-opacity:1; 
stroke-linecap:round; stroke-linejoin:round;">
<path d="M0.4520 0.5180
L0.4520 0.5170
" />
</g>
<g style="fill:#000000; fill-opacity:1.0000; stroke:none;">
<circle cx="0.4520" cy="0.5180" r="0.0100" /> 
</g>
<g style="fill:none; 
stroke:#000000; stroke-width:0.0200; stroke-opacity:1; 
stroke-linecap:round; stroke-linejoin:round;">
<path d="M0.4520 0.5190
L0.4520 0.5180
" />
</g>
<g style="fill:#000000; fill-opacity:1.0000; stroke:none;">
<circle cx="0.4520" cy="0.5190" r="0.0100" /> 
<circle cx="0.4520" cy="0.5190" r="0.0100" /> 
</g>
<g style="fill:none; 
stroke:#000000; stroke-width:0.0200; stroke-opacity:1; 
stroke-linecap:round; stroke-linejoin:round;">
<path d="M0.4520 0.5210
L0.4520 0.5190
" />
<path d="M0.4520 0.5220
L0.4520 0.5210
" />
</g>
<g style="fill:#000000; fill-opacity:1.0000; stroke:none;">
<circle cx="0.4520" cy="0.5220" r="0.0100" /> 
<circle cx="0.4520" cy="0.5220" r="0.0100" /> 
</g>
<g style="fill:none; 
stroke:#000000; stroke-width:0.0200; stroke-opacity:1; 
stroke-linecap:round; stroke-linejoin:round;">
<path d="M0.4520 0.5230
L0.4520 0.5220
" />
<path d="M0.4520 0.5250
L0.4520 0.5230
" />
</g>
<g style="fill:#000000; fill-opacity:1.0000; stroke:none;">
<circle cx="0.4520" cy="0.5250" r="0.0100" /> 
<circle cx="0.4520" cy="0.5250" r="0.0100" /> 
<circle cx="0.4520" cy="0.5250" r="0.0100" /> 
</g>
<g style="fill:none; 
stroke:#000000; stroke-width:0.0200; stroke-opacity:1; 
stroke-linecap:round; stroke-linejoin:round;">
<path d="M0.4520 0.5260
L0.4520 0.5250
" />
</g>
<g style="fill:#000000; fill-opacity:1.0000; stroke:none;">
<circle cx="0.4520" cy="0.5260" r="0.0100" /> 
<circle cx="0.4520" cy="0.5260" r="0.0100" /> 
</g>
<g style="fill:none; 
stroke:#000000; stroke-width:0.0200; stroke-opacity:1; 
stroke-linecap:round; stroke-linejoin:round;">
<path d="M0.4520 0.5280
L0.4520 0.5260
" />
</g>
<g style="fill:#000000; fill-opacity:1.0000; stroke:none;">
<circle cx="0.4520" cy="0.5280" r="0.0100" /> 
</g>
<g style="fill:none; 
stroke:#000000; stroke-width:0.0200; stroke-opacity:1; 
stroke-linecap:round; stroke-linejoin:round;">
<path d="M0.4520 0.5290
L0.4520 0.5280
" />
<path d="M0.4520 0.5300
L0.4520 0.5290
" />
</g>
<g style="fill:#000000; fill-opacity:1.0000; stroke:none;">
<circle cx="0.4520" cy="0.5300" r="0.0100" /> 
<circle cx="0.4520" cy="0.5300" r="0.0100" /> 
</g>
<g style="fill:none; 
stroke:#000000; stroke-width:0.0200; stroke-opacity:1; 
stroke-linecap:round; stroke-linejoin:round;">
<path d="M0.4520 0.5320
L0.4520 0.5300
" />
</g>
<g style="fill:#000000; fill-opacity:1.0000; stroke:none;">
<circle cx="0.4520" cy="0.5320" r="0.0100" /> 
</g>
<g style="fill:none; 
stroke:#000000; stroke-width:0.0200; stroke-opacity:1; 
stroke-linecap:round; stroke-linejoin:round;">
<path d="M0.4520 0.5330
L0.4520 0.5320
" />
</g>
<g style="fill:#000000; fill-opacity:1.0000; stroke:none;">
<circle cx="0.4520" cy="0.5330" r="0.0100" /> 
</g>
<g style="fill:none; 
stroke:#000000; stroke-width:0.0200; stroke-opacity:1; 
stroke-linecap:round; stroke-linejoin:round;">
<path d="M0.5730 0.2090
L0.5730 0.2260
" />
<path d="M0.5730 0.2260
L0.5730 0.5250
" />
<path d="M0.5730 0.5250
L0.5730 0.5400
" />
<path d="M0.5730 0.5400
L0.4400 0.5400
" />
<path d="M0.8760 0.2090
L0.8760 0.2260
" />
<path d="M0.8760 0.2170
L0.5730 0.2170
" />
<path d="M0.8760 0.2260
L0.8760 0.5250
" />
<path d="M0.8760 0.5250
L0.8760 0.5400
" />
<path d="M0.8760 0.5320
L0.5730 0.5320
" />
<path d="M0.8760 0.5400
L1.0090 0.5400
" />
<path d="M0.9950 0.2170
L0.9950 0.2180
" />
<path d="M0.9950 0.2180
L0.9950 0.2190
" />
</g>
<g style="fill:#000000; fill-opacity:1.0000; stroke:none;">
<circle cx="0.9950" cy="0.2190" r="0.0100" /> 
</g>
<g style="fill:none; 
stroke:#000000; stroke-width:0.0200; stroke-opacity:1; 
stroke-linecap:round; stroke-linejoin:round;">
<path d="M0.9950 0.2190
L0.9950 0.2210
" />
<path d="M0.9950 0.2210
L0.9950 0.2220
" />
</g>
<g style="fill:#000000; fill-opacity:1.0000; stroke:none;">
<circle cx="0.9950" cy="0.2220" r="0.0100" /> 
</g>
<g style="fill:none; 
stroke:#000000; stroke-width:0.0200; stroke-opacity:1; 
stroke-linecap:round; stroke-linejoin:round;">
<path d="M0.9950 0.2220
L0.9950 0.2230
" />
<path d="M0.9950 0.2230
L0.9950 0.2240
" />
<path d="M0.9950 0.2240
L0.9950 0.2250
" />
<path d="M0.9950 0.2250
L0.9950 0.2260
" />
</g>
<g style="fill:#000000; fill-opacity:1.0000; stroke:none;">
<circle cx="0.9950" cy="0.2260" r="0.0100" /> 
<circle cx="0.9950" cy="0.2260" r="0.0100" /> 
</g>
<g style="fill:none; 
stroke:#000000; stroke-width:0.0200; stroke-opacity:1; 
stroke-linecap:round; stroke-linejoin:round;">
<path d="M0.9950 0.2260
L0.9950 0.2270
" />
<path d="M0.9950 0.2270
L0.9950 0.2280
" />
<path d="M0.9950 0.2280
L0.9950 0.2290
" />
</g>
<g style="fill:#000000; fill-opacity:1.0000; stroke:none;">
<circle cx="0.9950" cy="0.2290" r="0.0100" /> 
</g>
<g style="fill:none; 
stroke:#000000; stroke-width:0.0200; stroke-opacity:1; 
stroke-linecap:round; stroke-linejoin:round;">
<path d="M0.9950 0.2290
L0.9950 0.2300
" />
<path d="M0.9950 0.2300
L0.9950 0.2310
" />
</g>
<g style="fill:#000000; fill-opacity:1.0000; stroke:none;">
<circle cx="0.9950" cy="0.2310" r="0.0100" /> 
</g>
<g style="fill:none; 
stroke:#000000; stroke-width:0.0200; stroke-opacity:1; 
stroke-linecap:round; stroke-linejoin:round;">
<path d="M0.9950 0.2310
L0.9950 0.2320
" />
<path d="M0.9950 0.2320
L0.9950 0.2330
" />
<path d="M0.9950 0.2330
L0.9970 0.2330
" />
<path d="M0.9950 0.5180
L0.9950 0.5190
" />
</g>
<g style="fill:#000000; fill-opacity:1.0000; stroke:none;">
<circle cx="0.9950" cy="0.5190" r="0.0100" /> 
<circle cx="0.9950" cy="0.5190" r="0.0100" /> 
</g>
<g style="fill:none; 
stroke:#000000; stroke-width:0.0200; stroke-opacity:1; 
stroke-linecap:round; stroke-linejoin:round;">
<path d="M0.9950 0.5190
L0.9950 0.5210
" />
<path d="M0.9950 0.5210
L0.9950 0.5220
" />
</g>
<g style="fill:#000000; fill-opacity:1.0000; stroke:none;">
<circle cx="0.9950" cy="0.5220" r="0.0100" /> 
<circle cx="0.9950" cy="0.5220" r="0.0100" /> 
</g>
<g style="fill:none; 
stroke:#000000; stroke-width:0.0200; stroke-opacity:1; 
stroke-linecap:round; stroke-linejoin:round;">
<path d="M0.9950 0.5220
L0.9950 0.5230
" />
<path d="M0.9950 0.5230
L0.9950 0.5250
" />
</g>
<g style="fill:#000000; fill-opacity:1.0000; stroke:none;">
<circle cx="0.9950" cy="0.5250" r="0.0100" /> 
<circle cx="0.9950" cy="0.5250" r="0.0100" /> 
</g>
<g style="fill:none; 
stroke:#000000; stroke-width:0.0200; stroke-opacity:1; 
stroke-linecap:round; stroke-linejoin:round;">
<path d="M0.9950 0.5250
L0.9950 0.5260
" />
</g>
<g style="fill:#000000; fill-opacity:1.0000; stroke:none;">
<circle cx="0.9950" cy="0.5260" r="0.0100" /> 
<circle cx="0.9950" cy="0.5260" r="0.0100" /> 
</g>
<g style="fill:none; 
stroke:#000000; stroke-width:0.0200; stroke-opacity:1; 
stroke-linecap:round; stroke-linejoin:round;">
<path d="M0.9950 0.5260
L0.9950 0.5280
" />
</g>
<g style="fill:#000000; fill-opacity:1.0000; stroke:none;">
<circle cx="0.9950" cy="0.5280" r="0.0100" /> 
</g>
<g style="fill:none; 
stroke:#000000; stroke-width:0.0200; stroke-opacity:1; 
stroke-linecap:round; stroke-linejoin:round;">
<path d="M0.9950 0.5280
L0.9950 0.5290
" />
<path d="M0.9950 0.5290
L0.9950 0.5300
" />
</g>
<g style="fill:#000000; fill-opacity:1.0000; stroke:none;">
<circle cx="0.9950" cy="0.5300" r="0.0100" /> 
<circle cx="0.9950" cy="0.5300" r="0.0100" /> 
</g>
<g style="fill:none; 
stroke:#000000; stroke-width:0.0200; stroke-opacity:1; 
stroke-linecap:round; stroke-linejoin:round;">
<path d="M0.9950 0.5300
L0.9950 0.5320
" />
<path d="M0.9950 0.5320
L0.9970 0.5320
" />
<path d="M0.9970 0.2130
L0.9970 0.2140
" />
</g>
<g style="fill:#000000; fill-opacity:1.0000; stroke:none;">
<circle cx="0.9970" cy="0.2140" r="0.0100" /> 
</g>
<g style="fill:none; 
stroke:#000000; stroke-width:0.0200; stroke-opacity:1; 
stroke-linecap:round; stroke-linejoin:round;">
<path d="M0.9970 0.2140
L0.9970 0.2150
" />
<path d="M0.9970 0.2150
L0.9970 0.2160
" />
</g>
<g style="fill:#000000; fill-opacity:1.0000; stroke:none;">
<circle cx="0.9970" cy="0.2160" r="0.0100" /> 
</g>
<g style="fill:none; 
stroke:#000000; stroke-width:0.0200; stroke-opacity:1; 
stroke-linecap:round; stroke-linejoin:round;">
<path d="M0.9970 0.2160
L0.9970 0.2170
" />
<path d="M0.9970 0.2170
L0.9950 0.2170
" />
<path d="M0.9970 0.2330
L0.9970 0.2340
" />
</g>
<g style="fill:#000000; fill-opacity:1.0000; stroke:none;">
<circle cx="0.9970" cy="0.2340" r="0.0100" /> 
</g>
<g style="fill:none; 
stroke:#000000; stroke-width:0.0200; stroke-opacity:1; 
stroke-linecap:round; stroke-linejoin:round;">
<path d="M0.9970 0.2340
L0.9970 0.2350
" />
<path d="M0.9970 0.2350
L0.9970 0.2360
" />
</g>
<g style="fill:#000000; fill-opacity:1.0000; stroke:none;">
<circle cx="0.9970" cy="0.2360" r="0.0100" /> 
</g>
<g style="fill:none; 
stroke:#000000; stroke-width:0.0200; stroke-opacity:1; 
stroke-linecap:round; stroke-linejoin:round;">
<path d="M0.9970 0.2360
L0.9970 0.2370
" />
<path d="M0.9970 0.2370
L0.9990 0.2370
" />
</g>
<g style="fill:#000000; fill-opacity:1.0000; stroke:none;">
<circle cx="0.9970" cy="0.5130" r="0.0100" /> 
<circle cx="0.9970" cy="0.5130" r="0.0100" /> 
</g>
<g style="fill:none; 
stroke:#000000; stroke-width:0.0200; stroke-opacity:1; 
stroke-linecap:round; stroke-linejoin:round;">
<path d="M0.9970 0.5130
L0.9970 0.5150
" />
<path d="M0.9970 0.5150
L0.9970 0.5170
" />
</g>
<g style="fill:#000000; fill-opacity:1.0000; stroke:none;">
<circle cx="0.9970" cy="0.5170" r="0.0100" /> 
</g>
<g style="fill:none; 
stroke:#000000; stroke-width:0.0200; stroke-opacity:1; 
stroke-linecap:round; stroke-linejoin:round;">
<path d="M0.9970 0.5170
L0.9970 0.5180
" />
<path d="M0.9970 0.5180
L0.9950 0.5180
" />
<path d="M0.9970 0.5320
L0.9970 0.5330
" />
</g>
<g style="fill:#000000; fill-opacity:1.0000; stroke:none;">
<circle cx="0.9970" cy="0.5330" r="0.0100" /> 
</g>
<g style="fill:none; 
stroke:#000000; stroke-width:0.0200; stroke-opacity:1; 
stroke-linecap:round; stroke-linejoin:round;">
<path d="M0.9970 0.5330
L0.9970 0.5340
" />
<path d="M0.9970 0.5340
L0.9970 0.5350
" />
</g>
<g style="fill:#000000; fill-opacity:1.0000; stroke:none;">
<circle cx="0.9970" cy="0.5350" r="0.0100" /> 
</g>
<g style="fill:none; 
stroke:#000000; stroke-width:0.0200; stroke-opacity:1; 
stroke-linecap:round; stroke-linejoin:round;">
<path d="M0.9970 0.5350
L0.9970 0.5360
" />
<path d="M0.9970 0.5360
L0.9990 0.5360
" />
<path d="M0.9990 0.2130
L0.9970 0.2130
" />
<path d="M0.9990 0.2370
L1.0010 0.2380
" />
<path d="M0.9990 0.5130
L0.9970 0.5130
" />
<path d="M0.9990 0.5360
L1.0010 0.5370
" />
<path d="M1.0010 0.2110
L1.0010 0.2120
" />
<path d="M1.0010 0.2120
L0.9990 0.2130
" />
</g>
<g style="fill:#000000; fill-opacity:1.0000; stroke:none;">
<circle cx="1.0010" cy="0.2120" r="0.0100" /> 
<circle cx="1.0010" cy="0.2120" r="0.0100" /> 
<circle cx="1.0010" cy="0.2380" r="0.0100" /> 
<circle cx="1.0010" cy="0.2380" r="0.0100" /> 
</g>
<g style="fill:none; 
stroke:#000000; stroke-width:0.0200; stroke-opacity:1; 
stroke-linecap:round; stroke-linejoin:round;">
<path d="M1.0010 0.2380
L1.0010 0.2390
" />
<path d="M1.0010 0.2390
L1.0030 0.2390
" />
<path d="M1.0010 0.5100
L1.0010 0.5120
" />
<path d="M1.0010 0.5120
L0.9990 0.5130
" />
</g>
<g style="fill:#000000; fill-opacity:1.0000; stroke:none;">
<circle cx="1.0010" cy="0.5120" r="0.0100" /> 
<circle cx="1.0010" cy="0.5120" r="0.0100" /> 
<circle cx="1.0010" cy="0.5370" r="0.0100" /> 
<circle cx="1.0010" cy="0.5370" r="0.0100" /> 
</g>
<g style="fill:none; 
stroke:#000000; stroke-width:0.0200; stroke-opacity:1; 
stroke-linecap:round; stroke-linejoin:round;">
<path d="M1.0010 0.5370
L1.0010 0.5380
" />
<path d="M1.0010 0.5380
L1.0030 0.5380
" />
<path d="M1.0030 0.2100
L1.0030 0.2110
" />
<path d="M1.0030 0.2110
L1.0010 0.2110
" />
</g>
<g style="fill:#000000; fill-opacity:1.0000; stroke:none;">
<circle cx="1.0030" cy="0.2110" r="0.0100" /> 
<circle cx="1.0030" cy="0.2390" r="0.0100" /> 
</g>
<g style="fill:none; 
stroke:#000000; stroke-width:0.0200; stroke-opacity:1; 
stroke-linecap:round; stroke-linejoin:round;">
<path d="M1.0030 0.2390
L1.0030 0.2400
" />
<path d="M1.0030 0.2400
L1.0050 0.2400
" />
<path d="M1.0030 0.5100
L1.0010 0.5100
" />
</g>
<g style="fill:#000000; fill-opacity:1.0000; stroke:none;">
<circle cx="1.0030" cy="0.5100" r="0.0100" /> 
<circle cx="1.0030" cy="0.5100" r="0.0100" /> 
<circle cx="1.0030" cy="0.5380" r="0.0100" /> 
</g>
<g style="fill:none; 
stroke:#000000; stroke-width:0.0200; stroke-opacity:1; 
stroke-linecap:round; stroke-linejoin:round;">
<path d="M1.0030 0.5380
L1.0030 0.5390
" />
<path d="M1.0030 0.5390
L1.0050 0.5390
" />
<path d="M1.0050 0.2100
L1.0030 0.2100
" />
<path d="M1.0050 0.2400
L1.0070 0.2400
" />
<path d="M1.0050 0.5100
L1.0030 0.5100
" />
<path d="M1.0050 0.5390
L1.0070 0.5390
" />
<path d="M1.0070 0.2100
L1.0050 0.2100
" />
</g>
<g style="fill:#000000; fill-opacity:1.0000; stroke:none;">
<circle cx="1.0070" cy="0.2100" r="0.0100" /> 
<circle cx="1.0070" cy="0.2100" r="0.0100" /> 
<circle cx="1.0070" cy="0.2100" r="0.0100" /> 
<circle cx="1.0070" cy="0.2400" r="0.0100" /> 
<circle cx="1.0070" cy="0.2400" r="0.0100" /> 
<circle cx="1.0070" cy="0.2400" r="0.0100" /> 
</g>
<g style="fill:none; 
stroke:#000000; stroke-width:0.0200; stroke-opacity:1; 
stroke-linecap:round; stroke-linejoin:round;">
<path d="M1.0070 0.2400
L1.0090 0.2400
" />
<path d="M1.0070 0.5100
L1.0050 0.5100
" />
</g>
<g style="fill:#000000; fill-opacity:1.0000; stroke:none;">
<circle cx="1.0070" cy="0.5100" r="0.0100" /> 
<circle cx="1.0070" cy="0.5100" r="0.0100" /> 
<circle cx="1.0070" cy="0.5100" r="0.0100" /> 
<circle cx="1.0070" cy="0.5390" r="0.0100" /> 
<circle cx="1.0070" cy="0.5390" r="0.0100" /> 
<circle cx="1.0070" cy="0.5390" r="0.0100" /> 
</g>
<g style="fill:none; 
stroke:#000000; stroke-width:0.0200; stroke-opacity:1; 
stroke-linecap:round; stroke-linejoin:round;">
<path d="M1.0070 0.5390
L1.0090 0.5390
" />
<path d="M1.0090 0.2090
L0.8760 0.2090
" />
</g>
<g style="fill:#000000; fill-opacity:1.0000; stroke:none;">
<circle cx="1.0090" cy="0.2090" r="0.0100" /> 
</g>
<g style="fill:none; 
stroke:#000000; stroke-width:0.0200; stroke-opacity:1; 
stroke-linecap:round; stroke-linejoin:round;">
<path d="M1.0090 0.2090
L1.0090 0.2100
" />
<path d="M1.0090 0.2100
L1.0070 0.2100
" />
</g>
<g style="fill:#000000; fill-opacity:1.0000; stroke:none;">
<circle cx="1.0090" cy="0.2400" r="0.0100" /> 
<circle cx="1.0090" cy="0.2400" r="0.0100" /> 
</g>
<g style="fill:none; 
stroke:#000000; stroke-width:0.0200; stroke-opacity:1; 
stroke-linecap:round; stroke-linejoin:round;">
<path d="M1.0090 0.2400
L1.0110 0.2400
" />
<path d="M1.0090 0.5100
L1.0070 0.5100
" />
</g>
<g style="fill:#000000; fill-opacity:1.0000; stroke:none;">
<circle cx="1.0090" cy="0.5100" r="0.0100" /> 
<circle cx="1.0090" cy="0.5100" r="0.0100" /> 
</g>
<g style="fill:none; 
stroke:#000000; stroke-width:0.0200; stroke-opacity:1; 
stroke-linecap:round; stroke-linejoin:round;">
<path d="M1.0090 0.5390
L1.0090 0.5400
" />
</g>
<g style="fill:#000000; fill-opacity:1.0000; stroke:none;">
<circle cx="1.0090" cy="0.5400" r="0.0100" /> 
</g>
<g style="fill:none; 
stroke:#000000; stroke-width:0.0200; stroke-opacity:1; 
stroke-linecap:round; stroke-linejoin:round;">
<path d="M1.0090 0.5400
L1.0110 0.5390
" />
<path d="M1.0110 0.2100
L1.0090 0.2090
" />
</g>
<g style="fill:#000000; fill-opacity:1.0000; stroke:none;">
<circle cx="1.0110" cy="0.2100" r="0.0100" /> 
<circle cx="1.0110" cy="0.2100" r="0.0100" /> 
<circle cx="1.0110" cy="0.2400" r="0.0100" /> 
<circle cx="1.0110" cy="0.2400" r="0.0100" /> 
</g>
<g style="fill:none; 
stroke:#000000; stroke-width:0.0200; stroke-opacity:1; 
stroke-linecap:round; stroke-linejoin:round;">
<path d="M1.0110 0.2400
L1.0130 0.2400
" />
<path d="M1.0110 0.5100
L1.0090 0.5100
" />
</g>
<g style="fill:#000000; fill-opacity:1.0000; stroke:none;">
<circle cx="1.0110" cy="0.5100" r="0.0100" /> 
<circle cx="1.0110" cy="0.5100" r="0.0100" /> 
<circle cx="1.0110" cy="0.5390" r="0.0100" /> 
<circle cx="1.0110" cy="0.5390" r="0.0100" /> 
</g>
<g style="fill:none; 
stroke:#000000; stroke-width:0.0200; stroke-opacity:1; 
stroke-linecap:round; stroke-linejoin:round;">
<path d="M1.0110 0.5390
L1.0130 0.5390
" />
<path d="M1.0130 0.2100
L1.0110 0.2100
" />
</g>
<g style="fill:#000000; fill-opacity:1.0000; stroke:none;">
<circle cx="1.0130" cy="0.2100" r="0.0100" /> 
<circle cx="1.0130" cy="0.2400" r="0.0100" /> 
</g>
<g style="fill:none; 
stroke:#000000; stroke-width:0.0200; stroke-opacity:1; 
stroke-linecap:round; stroke-linejoin:round;">
<path d="M1.0130 0.2400
L1.0150 0.2400
" />
<path d="M1.0130 0.5100
L1.0110 0.5100
" />
</g>
<g style="fill:#000000; fill-opacity:1.0000; stroke:none;">
<circle cx="1.0130" cy="0.5100" r="0.0100" /> 
<circle cx="1.0130" cy="0.5390" r="0.0100" /> 
</g>
<g style="fill:none; 
stroke:#000000; stroke-width:0.0200; stroke-opacity:1; 
stroke-linecap:round; stroke-linejoin:round;">
<path d="M1.0130 0.5390
L1.0150 0.5390
" />
<path d="M1.0150 0.2100
L1.0130 0.2100
" />
</g>
<g style="fill:#000000; fill-opacity:1.0000; stroke:none;">
<circle cx="1.0150" cy="0.2100" r="0.0100" /> 
</g>
<g style="fill:none; 
stroke:#000000; stroke-width:0.0200; stroke-opacity:1; 
stroke-linecap:round; stroke-linejoin:round;">
<path d="M1.0150 0.2110
L1.0150 0.2100
" />
</g>
<g style="fill:#000000; fill-opacity:1.0000; stroke:none;">
<circle cx="1.0150" cy="0.2110" r="0.0100" /> 
<circle cx="1.0150" cy="0.2390" r="0.0100" /> 
</g>
<g style="fill:none; 
stroke:#000000; stroke-width:0.0200; stroke-opacity:1; 
stroke-linecap:round; stroke-linejoin:round;">
<path d="M1.0150 0.2390
L1.0170 0.2390
" />
<path d="M1.0150 0.2400
L1.0150 0.2390
" />
</g>
<g style="fill:#000000; fill-opacity:1.0000; stroke:none;">
<circle cx="1.0150" cy="0.2400" r="0.0100" /> 
</g>
<g style="fill:none; 
stroke:#000000; stroke-width:0.0200; stroke-opacity:1; 
stroke-linecap:round; stroke-linejoin:round;">
<path d="M1.0150 0.5100
L1.0130 0.5100
" />
</g>
<g style="fill:#000000; fill-opacity:1.0000; stroke:none;">
<circle cx="1.0150" cy="0.5100" r="0.0100" /> 
<circle cx="1.0150" cy="0.5100" r="0.0100" /> 
<circle cx="1.0150" cy="0.5100" r="0.0100" /> 
<circle cx="1.0150" cy="0.5380" r="0.0100" /> 
</g>
<g style="fill:none; 
stroke:#000000; stroke-width:0.0200; stroke-opacity:1; 
stroke-linecap:round; stroke-linejoin:round;">
<path d="M1.0150 0.5380
L1.0170 0.5380
" />
<path d="M1.0150 0.5390
L1.0150 0.5380
" />
</g>
<g style="fill:#000000; fill-opacity:1.0000; stroke:none;">
<circle cx="1.0150" cy="0.5390" r="0.0100" /> 
</g>
<g style="fill:none; 
stroke:#000000; stroke-width:0.0200; stroke-opacity:1; 
stroke-linecap:round; stroke-linejoin:round;">
<path d="M1.0170 0.2110
L1.0150 0.2110
" />
<path d="M1.0170 0.2120
L1.0170 0.2110
" />
<path d="M1.0170 0.2380
L1.0190 0.2380
" />
<path d="M1.0170 0.2390
L1.0170 0.2380
" />
<path d="M1.0170 0.5100
L1.0150 0.5100
" />
<path d="M1.0170 0.5120
L1.0170 0.5100
" />
<path d="M1.0170 0.5370
L1.0190 0.5370
" />
<path d="M1.0170 0.5380
L1.0170 0.5370
" />
<path d="M1.0190 0.2120
L1.0170 0.2120
" />
</g>
<g style="fill:#000000; fill-opacity:1.0000; stroke:none;">
<circle cx="1.0190" cy="0.2120" r="0.0100" /> 
</g>
<g style="fill:none; 
stroke:#000000; stroke-width:0.0200; stroke-opacity:1; 
stroke-linecap:round; stroke-linejoin:round;">
<path d="M1.0190 0.2130
L1.0190 0.2120
" />
<path d="M1.0190 0.2370
L1.0210 0.2370
" />
<path d="M1.0190 0.2380
L1.0190 0.2370
" />
</g>
<g style="fill:#000000; fill-opacity:1.0000; stroke:none;">
<circle cx="1.0190" cy="0.2380" r="0.0100" /> 
</g>
<g style="fill:none; 
stroke:#000000; stroke-width:0.0200; stroke-opacity:1; 
stroke-linecap:round; stroke-linejoin:round;">
<path d="M1.0190 0.5120
L1.0170 0.5120
" />
</g>
<g style="fill:#000000; fill-opacity:1.0000; stroke:none;">
<circle cx="1.0190" cy="0.5120" r="0.0100" /> 
</g>
<g style="fill:none; 
stroke:#000000; stroke-width:0.0200; stroke-opacity:1; 
stroke-linecap:round; stroke-linejoin:round;">
<path d="M1.0190 0.5130
L1.0190 0.5120
" />
<path d="M1.0190 0.5360
L1.0210 0.5360
" />
<path d="M1.0190 0.5370
L1.0190 0.5360
" />
</g>
<g style="fill:#000000; fill-opacity:1.0000; stroke:none;">
<circle cx="1.0190" cy="0.5370" r="0.0100" /> 
</g>
<g style="fill:none; 
stroke:#000000; stroke-width:0.0200; stroke-opacity:1; 
stroke-linecap:round; stroke-linejoin:round;">
<path d="M1.0210 0.2130
L1.0190 0.2130
" />
<path d="M1.0210 0.2140
L1.0210 0.2130
" />
</g>
<g style="fill:#000000; fill-opacity:1.0000; stroke:none;">
<circle cx="1.0210" cy="0.2140" r="0.0100" /> 
</g>
<g style="fill:none; 
stroke:#000000; stroke-width:0.0200; stroke-opacity:1; 
stroke-linecap:round; stroke-linejoin:round;">
<path d="M1.0210 0.2150
L1.0210 0.2140
" />
<path d="M1.0210 0.2350
L1.0230 0.2340
" />
<path d="M1.0210 0.2360
L1.0210 0.2350
" />
</g>
<g style="fill:#000000; fill-opacity:1.0000; stroke:none;">
<circle cx="1.0210" cy="0.2360" r="0.0100" /> 
</g>
<g style="fill:none; 
stroke:#000000; stroke-width:0.0200; stroke-opacity:1; 
stroke-linecap:round; stroke-linejoin:round;">
<path d="M1.0210 0.2370
L1.0210 0.2360
" />
<path d="M1.0210 0.5130
L1.0190 0.5130
" />
</g>
<g style="fill:#000000; fill-opacity:1.0000; stroke:none;">
<circle cx="1.0210" cy="0.5130" r="0.0100" /> 
<circle cx="1.0210" cy="0.5130" r="0.0100" /> 
</g>
<g style="fill:none; 
stroke:#000000; stroke-width:0.0200; stroke-opacity:1; 
stroke-linecap:round; stroke-linejoin:round;">
<path d="M1.0210 0.5150
L1.0210 0.5130
" />
<path d="M1.0210 0.5340
L1.0230 0.5330
" />
<path d="M1.0210 0.5350
L1.0210 0.5340
" />
</g>
<g style="fill:#000000; fill-opacity:1.0000; stroke:none;">
<circle cx="1.0210" cy="0.5350" r="0.0100" /> 
</g>
<g style="fill:none; 
stroke:#000000; stroke-width:0.0200; stroke-opacity:1; 
stroke-linecap:round; stroke-linejoin:round;">
<path d="M1.0210 0.5360
L1.0210 0.5350
" />
<path d="M1.0230 0.2160
L1.0210 0.2150
" />
</g>
<g style="fill:#000000; fill-opacity:1.0000; stroke:none;">
<circle cx="1.0230" cy="0.2160" r="0.0100" /> 
</g>
<g style="fill:none; 
stroke:#000000; stroke-width:0.0200; stroke-opacity:1; 
stroke-linecap:round; stroke-linejoin:round;">
<path d="M1.0230 0.2170
L1.0230 0.2160
" />
</g>
<g style="fill:#000000; fill-opacity:1.0000; stroke:none;">
<circle cx="1.0230" cy="0.2170" r="0.0100" /> 
</g>
<g style="fill:none; 
stroke:#000000; stroke-width:0.0200; stroke-opacity:1; 
stroke-linecap:round; stroke-linejoin:round;">
<path d="M1.0230 0.2180
L1.0230 0.2170
" />
<path d="M1.0230 0.2190
L1.0230 0.2180
" />
<path d="M1.0230 0.2310
L1.0250 0.2310
" />
<path d="M1.0230 0.2320
L1.0230 0.2310
" />
<path d="M1.0230 0.2330
L1.0230 0.2320
" />
</g>
<g style="fill:#000000; fill-opacity:1.0000; stroke:none;">
<circle cx="1.0230" cy="0.2330" r="0.0100" /> 
</g>
<g style="fill:none; 
stroke:#000000; stroke-width:0.0200; stroke-opacity:1; 
stroke-linecap:round; stroke-linejoin:round;">
<path d="M1.0230 0.2340
L1.0230 0.2330
" />
</g>
<g style="fill:#000000; fill-opacity:1.0000; stroke:none;">
<circle cx="1.0230" cy="0.2340" r="0.0100" /> 
</g>
<g style="fill:none; 
stroke:#000000; stroke-width:0.0200; stroke-opacity:1; 
stroke-linecap:round; stroke-linejoin:round;">
<path d="M1.0230 0.5170
L1.0210 0.5150
" />
</g>
<g style="fill:#000000; fill-opacity:1.0000; stroke:none;">
<circle cx="1.0230" cy="0.5170" r="0.0100" /> 
</g>
<g style="fill:none; 
stroke:#000000; stroke-width:0.0200; stroke-opacity:1; 
stroke-linecap:round; stroke-linejoin:round;">
<path d="M1.0230 0.5180
L1.0230 0.5170
" />
</g>
<g style="fill:#000000; fill-opacity:1.0000; stroke:none;">
<circle cx="1.0230" cy="0.5180" r="0.0100" /> 
</g>
<g style="fill:none; 
stroke:#000000; stroke-width:0.0200; stroke-opacity:1; 
stroke-linecap:round; stroke-linejoin:round;">
<path d="M1.0230 0.5190
L1.0230 0.5180
" />
</g>
<g style="fill:#000000; fill-opacity:1.0000; stroke:none;">
<circle cx="1.0230" cy="0.5190" r="0.0100" /> 
<circle cx="1.0230" cy="0.5300" r="0.0100" /> 
</g>
<g style="fill:none; 
stroke:#000000; stroke-width:0.0200; stroke-opacity:1; 
stroke-linecap:round; stroke-linejoin:round;">
<path d="M1.0230 0.5300
L1.0250 0.5300
" />
<path d="M1.0230 0.5320
L1.0230 0.5300
" />
</g>
<g style="fill:#000000; fill-opacity:1.0000; stroke:none;">
<circle cx="1.0230" cy="0.5320" r="0.0100" /> 
</g>
<g style="fill:none; 
stroke:#000000; stroke-width:0.0200; stroke-opacity:1; 
stroke-linecap:round; stroke-linejoin:round;">
<path d="M1.0230 0.5330
L1.0230 0.5320
" />
</g>
<g style="fill:#000000; fill-opacity:1.0000; stroke:none;">
<circle cx="1.0230" cy="0.5330" r="0.0100" /> 
</g>
<g style="fill:none; 
stroke:#000000; stroke-width:0.0200; stroke-opacity:1; 
stroke-linecap:round; stroke-linejoin:round;">
<path d="M1.0250 0.2190
L1.0230 0.2190
" />
<path d="M1.0250 0.2210
L1.0250 0.2190
" />
<path d="M1.0250 0.2220
L1.0250 0.2210
" />
</g>
<g style="fill:#000000; fill-opacity:1.0000; stroke:none;">
<circle cx="1.0250" cy="0.2220" r="0.0100" /> 
</g>
<g style="fill:none; 
stroke:#000000; stroke-width:0.0200; stroke-opacity:1; 
stroke-linecap:round; stroke-linejoin:round;">
<path d="M1.0250 0.2230
L1.0250 0.2220
" />
<path d="M1.0250 0.2240
L1.0250 0.2230
" />
<path d="M1.0250 0.2250
L1.0250 0.2240
" />
<path d="M1.0250 0.2260
L1.0250 0.2250
" />
</g>
<g style="fill:#000000; fill-opacity:1.0000; stroke:none;">
<circle cx="1.0250" cy="0.2260" r="0.0100" /> 
<circle cx="1.0250" cy="0.2260" r="0.0100" /> 
<circle cx="1.0250" cy="0.2260" r="0.0100" /> 
</g>
<g style="fill:none; 
stroke:#000000; stroke-width:0.0200; stroke-opacity:1; 
stroke-linecap:round; stroke-linejoin:round;">
<path d="M1.0250 0.2270
L1.0250 0.2260
" />
<path d="M1.0250 0.2280
L1.0250 0.2270
" />
<path d="M1.0250 0.2290
L1.0250 0.2280
" />
</g>
<g style="fill:#000000; fill-opacity:1.0000; stroke:none;">
<circle cx="1.0250" cy="0.2290" r="0.0100" /> 
</g>
<g style="fill:none; 
stroke:#000000; stroke-width:0.0200; stroke-opacity:1; 
stroke-linecap:round; stroke-linejoin:round;">
<path d="M1.0250 0.2300
L1.0250 0.2290
" />
<path d="M1.0250 0.2310
L1.0250 0.2300
" />
<path d="M1.0250 0.5190
L1.0230 0.5190
" />
<path d="M1.0250 0.5210
L1.0250 0.5190
" />
<path d="M1.0250 0.5220
L1.0250 0.5210
" />
</g>
<g style="fill:#000000; fill-opacity:1.0000; stroke:none;">
<circle cx="1.0250" cy="0.5220" r="0.0100" /> 
<circle cx="1.0250" cy="0.5220" r="0.0100" /> 
</g>
<g style="fill:none; 
stroke:#000000; stroke-width:0.0200; stroke-opacity:1; 
stroke-linecap:round; stroke-linejoin:round;">
<path d="M1.0250 0.5230
L1.0250 0.5220
" />
<path d="M1.0250 0.5250
L1.0250 0.2260
" />
<path d="M1.0250 0.5250
L1.0250 0.5230
" />
</g>
<g style="fill:#000000; fill-opacity:1.0000; stroke:none;">
<circle cx="1.0250" cy="0.5250" r="0.0100" /> 
<circle cx="1.0250" cy="0.5250" r="0.0100" /> 
<circle cx="1.0250" cy="0.5250" r="0.0100" /> 
</g>
<g style="fill:none; 
stroke:#000000; stroke-width:0.0200; stroke-opacity:1; 
stroke-linecap:round; stroke-linejoin:round;">
<path d="M1.0250 0.5260
L1.0250 0.5250
" />
</g>
<g style="fill:#000000; fill-opacity:1.0000; stroke:none;">
<circle cx="1.0250" cy="0.5260" r="0.0100" /> 
<circle cx="1.0250" cy="0.5260" r="0.0100" /> 
</g>
<g style="fill:none; 
stroke:#000000; stroke-width:0.0200; stroke-opacity:1; 
stroke-linecap:round; stroke-linejoin:round;">
<path d="M1.0250 0.5280
L1.0250 0.5260
" />
</g>
<g style="fill:#000000; fill-opacity:1.0000; stroke:none;">
<circle cx="1.0250" cy="0.5280" r="0.0100" /> 
</g>
<g style="fill:none; 
stroke:#000000; stroke-width:0.0200; stroke-opacity:1; 
stroke-linecap:round; stroke-linejoin:round;">
<path d="M1.0250 0.5290
L1.0250 0.5280
" />
<path d="M1.0250 0.5300
L1.0250 0.5290
" />
</g> 
</svg>
