<?xml version="1.0" standalone="no"?>
 <!DOCTYPE svg PUBLIC "-//W3C//DTD SVG 1.1//EN" 
 "http://www.w3.org/Graphics/SVG/1.1/DTD/svg11.dtd"> 
<svg
  xmlns:svg="http://www.w3.org/2000/svg"
  xmlns="http://www.w3.org/2000/svg"
  xmlns:xlink="http://www.w3.org/1999/xlink"
  version="1.1"
  width="4.0386mm" height="3.6322mm" viewBox="0.0000 0.0000 4.0386 3.6322">
<title>SVG Image created as outline.svg date 2025/04/04 10:06:28 </title>
  <desc>Image generated by PCBNEW </desc>
<g style="fill:#000000; fill-opacity:1.0000;stroke:#000000; stroke-opacity:1.0000;
stroke-linecap:round; stroke-linejoin:round;"
 transform="translate(0 0) scale(1 1)">
</g>
<g style="fill:none; 
stroke:#000000; stroke-width:0.0200; stroke-opacity:1; 
stroke-linecap:round; stroke-linejoin:round;">
<path d="M0.3740 0.7000
L0.4990 0.7000
" />
<path d="M0.3740 0.9990
L0.3740 0.7000
" />
<path d="M0.3740 1.3490
L0.4990 1.3490
" />
<path d="M0.3740 1.6490
L0.3740 1.3490
" />
<path d="M0.3740 1.9990
L0.4990 1.9990
" />
<path d="M0.3740 2.2990
L0.3740 1.9990
" />
<path d="M0.3740 2.6490
L0.4990 2.6490
" />
<path d="M0.3740 2.9490
L0.3740 2.6490
" />
<path d="M0.4990 0.3390
L0.4990 0.3410
" />
<path d="M0.4990 0.3410
L0.4990 0.3430
" />
<path d="M0.4990 0.3430
L0.4990 0.3470
" />
<path d="M0.4990 0.3470
L0.4990 0.3490
" />
<path d="M0.4990 0.3490
L0.4990 0.7000
" />
<path d="M0.4990 0.7000
L0.4990 0.9990
" />
<path d="M0.4990 0.9990
L0.3740 0.9990
" />
<path d="M0.4990 0.9990
L0.4990 1.3490
" />
<path d="M0.4990 1.3490
L0.4990 1.6490
" />
<path d="M0.4990 1.6490
L0.3740 1.6490
" />
<path d="M0.4990 1.6490
L0.4990 1.9990
" />
<path d="M0.4990 1.9990
L0.4990 2.2990
" />
<path d="M0.4990 2.2990
L0.3740 2.2990
" />
<path d="M0.4990 2.2990
L0.4990 2.6490
" />
<path d="M0.4990 2.6490
L0.4990 2.9490
" />
<path d="M0.4990 2.9490
L0.3740 2.9490
" />
<path d="M0.4990 2.9490
L0.4990 3.3000
" />
<path d="M0.4990 3.3000
L0.4990 3.3020
" />
<path d="M0.4990 3.3000
L0.5010 3.2980
" />
<path d="M0.4990 3.3020
L0.4990 3.3040
" />
<path d="M0.4990 3.3040
L0.4990 3.3060
" />
<path d="M0.4990 3.3060
L0.4990 3.3100
" />
<path d="M0.4990 3.3100
L0.5010 3.3120
" />
<path d="M0.5010 0.3310
L0.5010 0.3350
" />
<path d="M0.5010 0.3350
L0.5010 0.3370
" />
<path d="M0.5010 0.3370
L0.4990 0.3390
" />
<path d="M0.5010 0.3510
L0.4990 0.3490
" />
<path d="M0.5010 3.2980
L0.5030 3.2940
" />
<path d="M0.5010 3.3120
L0.5010 3.3140
" />
<path d="M0.5010 3.3140
L0.5010 3.3160
" />
<path d="M0.5010 3.3160
L0.5030 3.3180
" />
<path d="M0.5030 0.3270
L0.5030 0.3290
" />
<path d="M0.5030 0.3290
L0.5010 0.3310
" />
<path d="M0.5030 0.3530
L0.5010 0.3510
" />
<path d="M0.5030 3.2940
L0.5050 3.2920
" />
<path d="M0.5030 3.3180
L0.5030 3.3200
" />
<path d="M0.5030 3.3200
L0.5050 3.3220
" />
<path d="M0.5050 0.3250
L0.5030 0.3270
" />
<path d="M0.5050 0.3550
L0.5030 0.3530
" />
<path d="M0.5050 3.2920
L0.5070 3.2900
" />
<path d="M0.5050 3.3220
L0.5070 3.3240
" />
<path d="M0.5070 0.3210
L0.5070 0.3230
" />
<path d="M0.5070 0.3230
L0.5050 0.3250
" />
<path d="M0.5070 0.3590
L0.5050 0.3550
" />
<path d="M0.5070 3.2900
L0.5090 3.2860
" />
<path d="M0.5070 3.3240
L0.5070 3.3260
" />
<path d="M0.5070 3.3260
L0.5090 3.3280
" />
<path d="M0.5090 0.3190
L0.5070 0.3210
" />
<path d="M0.5090 0.3630
L0.5070 0.3590
" />
<path d="M0.5090 3.2860
L0.5110 3.2820
" />
<path d="M0.5090 3.3280
L0.5110 3.3300
" />
<path d="M0.5110 0.3170
L0.5090 0.3190
" />
<path d="M0.5110 0.3650
L0.5090 0.3630
" />
<path d="M0.5110 3.2820
L0.5130 3.2800
" />
<path d="M0.5110 3.3300
L0.5130 3.3320
" />
<path d="M0.5130 0.3130
L0.5130 0.3150
" />
<path d="M0.5130 0.3150
L0.5110 0.3170
" />
<path d="M0.5130 3.2800
L0.5150 3.2760
" />
<path d="M0.5130 3.3320
L0.5130 3.3340
" />
<path d="M0.5130 3.3340
L0.5150 3.3360
" />
<path d="M0.5150 0.3130
L0.5130 0.3130
" />
<path d="M0.5150 0.3730
L0.5110 0.3650
" />
<path d="M0.5150 3.2760
L0.5170 3.2700
" />
<path d="M0.5150 3.3360
L0.5170 3.3380
" />
<path d="M0.5170 0.3110
L0.5150 0.3130
" />
<path d="M0.5170 3.2700
L0.5190 3.2660
" />
<path d="M0.5170 3.3380
L0.5190 3.3400
" />
<path d="M0.5190 0.3090
L0.5170 0.3110
" />
<path d="M0.5190 0.3830
L0.5150 0.3730
" />
<path d="M0.5190 3.2660
L0.5210 3.2620
" />
<path d="M0.5190 3.3400
L0.5210 3.3400
" />
<path d="M0.5210 0.3070
L0.5190 0.3090
" />
<path d="M0.5210 3.2620
L0.5230 3.2560
" />
<path d="M0.5210 3.3400
L0.5230 3.3420
" />
<path d="M0.5230 0.3070
L0.5210 0.3070
" />
<path d="M0.5230 0.3910
L0.5190 0.3830
" />
<path d="M0.5230 3.2560
L0.5270 3.2520
" />
<path d="M0.5230 3.3420
L0.5250 3.3440
" />
<path d="M0.5250 0.3050
L0.5230 0.3070
" />
<path d="M0.5250 3.3440
L0.5270 3.3440
" />
<path d="M0.5270 0.3030
L0.5250 0.3050
" />
<path d="M0.5270 3.2520
L0.5290 3.2460
" />
<path d="M0.5270 3.3440
L0.5290 3.3460
" />
<path d="M0.5290 0.3030
L0.5270 0.3030
" />
<path d="M0.5290 0.4030
L0.5230 0.3910
" />
<path d="M0.5290 3.2460
L0.5310 3.2400
" />
<path d="M0.5290 3.3460
L0.5310 3.3460
" />
<path d="M0.5310 0.3010
L0.5290 0.3030
" />
<path d="M0.5310 3.2400
L0.5330 3.2340
" />
<path d="M0.5310 3.3460
L0.5350 3.3460
" />
<path d="M0.5330 0.4150
L0.5290 0.4030
" />
</g>
<g style="fill:#000000; fill-opacity:1.0000; stroke:none;">
<circle cx="0.5330" cy="0.4150" r="0.0100" /> 
<circle cx="0.5330" cy="3.2340" r="0.0100" /> 
</g>
<g style="fill:none; 
stroke:#000000; stroke-width:0.0200; stroke-opacity:1; 
stroke-linecap:round; stroke-linejoin:round;">
<path d="M0.5330 3.2340
L0.5410 3.2130
" />
<path d="M0.5350 0.3010
L0.5310 0.3010
" />
<path d="M0.5350 3.3460
L0.5370 3.3480
" />
<path d="M0.5370 0.3010
L0.5350 0.3010
" />
<path d="M0.5370 3.3480
L0.5390 3.3480
" />
<path d="M0.5390 0.2990
L0.5370 0.3010
" />
<path d="M0.5390 3.3480
L0.5410 3.3480
" />
<path d="M0.5410 0.2990
L0.5390 0.2990
" />
<path d="M0.5410 3.2130
L0.5490 3.1890
" />
<path d="M0.5410 3.3480
L0.5430 3.3480
" />
<path d="M0.5430 0.2990
L0.5410 0.2990
" />
<path d="M0.5430 0.4420
L0.5330 0.4150
" />
<path d="M0.5430 3.3480
L0.5470 3.3480
" />
<path d="M0.5470 0.2990
L0.5430 0.2990
" />
<path d="M0.5470 3.3480
L0.5490 3.3480
" />
<path d="M0.5490 0.2990
L0.5470 0.2990
" />
<path d="M0.5490 0.2990
L0.5510 0.3010
" />
<path d="M0.5490 3.1890
L0.5570 3.1630
" />
<path d="M0.5490 3.3480
L1.7100 3.3480
" />
<path d="M0.5510 0.3010
L0.5530 0.3030
" />
<path d="M0.5510 3.3480
L0.5490 3.3480
" />
<path d="M0.5530 0.3030
L0.5550 0.3050
" />
<path d="M0.5530 3.3460
L0.5510 3.3480
" />
<path d="M0.5550 0.3050
L0.5590 0.3070
" />
<path d="M0.5550 3.3440
L0.5530 3.3460
" />
<path d="M0.5570 3.1630
L0.5670 3.1390
" />
<path d="M0.5590 0.3070
L0.5610 0.3090
" />
<path d="M0.5590 3.3420
L0.5550 3.3440
" />
<path d="M0.5610 0.3090
L0.5650 0.3110
" />
<path d="M0.5630 3.3400
L0.5590 3.3420
" />
<path d="M0.5650 0.3110
L0.5690 0.3130
" />
<path d="M0.5650 3.3380
L0.5630 3.3400
" />
<path d="M0.5670 0.5100
L0.5430 0.4420
" />
<path d="M0.5670 3.1390
L0.5690 3.1330
" />
<path d="M0.5690 0.3130
L0.5730 0.3150
" />
<path d="M0.5690 0.5200
L0.5670 0.5100
" />
<path d="M0.5690 3.1290
L0.5730 3.1170
" />
<path d="M0.5690 3.1330
L0.5690 3.1290
" />
<path d="M0.5730 0.3150
L0.5770 0.3170
" />
<path d="M0.5730 0.5300
L0.5690 0.5200
" />
<path d="M0.5730 3.1170
L0.5750 3.1050
" />
<path d="M0.5730 3.3320
L0.5650 3.3380
" />
<path d="M0.5750 0.5420
L0.5730 0.5300
" />
<path d="M0.5750 3.1050
L0.5770 3.0920
" />
<path d="M0.5770 0.3170
L0.5810 0.3190
" />
<path d="M0.5770 0.5550
L0.5750 0.5420
" />
<path d="M0.5770 3.0920
L0.5810 3.0780
" />
<path d="M0.5810 0.3190
L0.5870 0.3210
" />
<path d="M0.5810 0.5690
L0.5770 0.5550
" />
<path d="M0.5810 3.0780
L0.5830 3.0640
" />
<path d="M0.5830 0.5850
L0.5810 0.5690
" />
<path d="M0.5830 3.0640
L0.5850 3.0480
" />
<path d="M0.5830 3.3280
L0.5730 3.3320
" />
<path d="M0.5850 0.6010
L0.5830 0.5850
" />
<path d="M0.5850 3.0480
L0.5870 3.0300
" />
<path d="M0.5870 0.3210
L0.5910 0.3230
" />
<path d="M0.5870 0.6130
L0.5870 0.6170
" />
<path d="M0.5870 0.6170
L0.5850 0.6010
" />
<path d="M0.5870 0.6170
L0.5870 0.6350
" />
<path d="M0.5870 0.6350
L0.5890 0.6550
" />
<path d="M0.5870 3.0120
L0.5870 3.0300
" />
<path d="M0.5870 3.0300
L0.5870 3.0360
" />
<path d="M0.5870 3.0360
L0.5890 3.0400
" />
<path d="M0.5890 0.6070
L0.5870 0.6130
" />
<path d="M0.5890 0.6550
L0.5910 0.6740
" />
<path d="M0.5890 2.9940
L0.5870 3.0120
" />
<path d="M0.5890 3.0400
L0.5910 3.0460
" />
<path d="M0.5910 0.3230
L0.5970 0.3270
" />
<path d="M0.5910 0.6030
L0.5890 0.6070
" />
<path d="M0.5910 0.6740
L0.5910 0.6960
" />
<path d="M0.5910 0.6960
L0.5910 0.7180
" />
<path d="M0.5910 0.7180
L0.5930 0.7400
" />
<path d="M0.5910 2.9530
L0.5910 2.9730
" />
<path d="M0.5910 2.9730
L0.5890 2.9940
" />
<path d="M0.5910 3.0460
L0.5930 3.0500
" />
<path d="M0.5910 3.3240
L0.5830 3.3280
" />
<path d="M0.5930 0.5970
L0.5910 0.6030
" />
<path d="M0.5930 0.7400
L0.5930 0.7640
" />
<path d="M0.5930 0.7640
L0.5930 0.7900
" />
<path d="M0.5930 2.8570
L0.5930 2.9070
" />
<path d="M0.5930 2.8570
L0.6600 2.8570
" />
<path d="M0.5930 2.9070
L0.5910 2.9530
" />
<path d="M0.5930 3.0500
L0.5970 3.0560
" />
<path d="M0.5970 0.3270
L0.6030 0.3290
" />
<path d="M0.5970 0.5930
L0.5930 0.5970
" />
<path d="M0.5970 3.0560
L0.6010 3.0620
" />
<path d="M0.6010 0.5870
L0.5970 0.5930
" />
<path d="M0.6010 3.0620
L0.6050 3.0660
" />
<path d="M0.6030 0.3290
L0.6090 0.3310
" />
<path d="M0.6030 3.3200
L0.5910 3.3240
" />
<path d="M0.6050 0.5810
L0.6010 0.5870
" />
<path d="M0.6050 3.0660
L0.6090 3.0720
" />
<path d="M0.6090 0.3310
L0.6150 0.3330
" />
<path d="M0.6090 0.4090
L0.7040 0.5040
" />
<path d="M0.6090 0.5750
L0.6050 0.5810
" />
<path d="M0.6090 3.0720
L0.6130 3.0780
" />
<path d="M0.6090 3.2380
L0.7040 3.1450
" />
<path d="M0.6130 0.5710
L0.6090 0.5750
" />
<path d="M0.6130 3.0780
L0.6180 3.0840
" />
</g>
<g style="fill:#000000; fill-opacity:1.0000; stroke:none;">
<circle cx="0.6150" cy="0.3330" r="0.0100" /> 
</g>
<g style="fill:none; 
stroke:#000000; stroke-width:0.0200; stroke-opacity:1; 
stroke-linecap:round; stroke-linejoin:round;">
<path d="M0.6150 0.3330
L0.6340 0.3410
" />
<path d="M0.6150 3.3140
L0.6030 3.3200
" />
</g>
<g style="fill:#000000; fill-opacity:1.0000; stroke:none;">
<circle cx="0.6150" cy="3.3140" r="0.0100" /> 
</g>
<g style="fill:none; 
stroke:#000000; stroke-width:0.0200; stroke-opacity:1; 
stroke-linecap:round; stroke-linejoin:round;">
<path d="M0.6180 0.5650
L0.6130 0.5710
" />
<path d="M0.6180 3.0840
L0.6240 3.0900
" />
<path d="M0.6240 0.5590
L0.6180 0.5650
" />
<path d="M0.6240 3.0900
L0.6280 3.0940
" />
<path d="M0.6280 0.5530
L0.6240 0.5590
" />
<path d="M0.6280 3.0940
L0.6340 3.1000
" />
<path d="M0.6340 0.3410
L0.6580 0.3490
" />
<path d="M0.6340 0.5490
L0.6280 0.5530
" />
<path d="M0.6340 3.1000
L0.6400 3.1050
" />
<path d="M0.6400 0.5420
L0.6340 0.5490
" />
<path d="M0.6400 3.1050
L0.6460 3.1110
" />
<path d="M0.6420 3.3060
L0.6150 3.3140
" />
<path d="M0.6460 0.5380
L0.6400 0.5420
" />
<path d="M0.6460 3.1110
L0.6520 3.1150
" />
<path d="M0.6520 0.5340
L0.6460 0.5380
" />
</g>
<g style="fill:#000000; fill-opacity:1.0000; stroke:none;">
<circle cx="0.6520" cy="0.5340" r="0.0100" /> 
<circle cx="0.6520" cy="3.1150" r="0.0100" /> 
</g>
<g style="fill:none; 
stroke:#000000; stroke-width:0.0200; stroke-opacity:1; 
stroke-linecap:round; stroke-linejoin:round;">
<path d="M0.6520 3.1150
L0.6580 3.1190
" />
<path d="M0.6580 0.3490
L0.6840 0.3570
" />
<path d="M0.6580 0.5280
L0.6520 0.5340
" />
<path d="M0.6580 3.1190
L0.6640 3.1230
" />
<path d="M0.6600 0.7600
L0.6600 0.7900
" />
<path d="M0.6600 0.7900
L0.5930 0.7900
" />
<path d="M0.6600 0.7900
L0.7910 0.7900
" />
<path d="M0.6600 2.8570
L0.6600 2.8890
" />
<path d="M0.6600 2.8570
L0.7910 2.8570
" />
<path d="M0.6600 2.8890
L0.6620 2.9190
" />
<path d="M0.6620 0.7280
L0.6600 0.7600
" />
<path d="M0.6620 2.9190
L0.6640 2.9490
" />
<path d="M0.6640 0.5240
L0.6580 0.5280
" />
<path d="M0.6640 0.6980
L0.6620 0.7280
" />
<path d="M0.6640 2.9490
L0.6660 2.9780
" />
<path d="M0.6640 3.1230
L0.6700 3.1270
" />
<path d="M0.6660 0.6690
L0.6640 0.6980
" />
<path d="M0.6660 2.9780
L0.6700 3.0060
" />
<path d="M0.6700 0.5200
L0.6640 0.5240
" />
<path d="M0.6700 0.6410
L0.6660 0.6690
" />
<path d="M0.6700 3.0060
L0.6740 3.0320
" />
<path d="M0.6700 3.1270
L0.6780 3.1310
" />
<path d="M0.6740 0.6150
L0.6700 0.6410
" />
<path d="M0.6740 3.0320
L0.6780 3.0560
" />
<path d="M0.6780 0.5180
L0.6700 0.5200
" />
<path d="M0.6780 0.5910
L0.6740 0.6150
" />
<path d="M0.6780 3.0560
L0.6820 3.0780
" />
<path d="M0.6780 3.1310
L0.6840 3.1350
" />
<path d="M0.6820 0.5690
L0.6780 0.5910
" />
</g>
<g style="fill:#000000; fill-opacity:1.0000; stroke:none;">
<circle cx="0.6820" cy="0.5690" r="0.0100" /> 
<circle cx="0.6820" cy="3.0780" r="0.0100" /> 
</g>
<g style="fill:none; 
stroke:#000000; stroke-width:0.0200; stroke-opacity:1; 
stroke-linecap:round; stroke-linejoin:round;">
<path d="M0.6820 3.0780
L0.6840 3.0880
" />
<path d="M0.6840 0.3570
L0.7100 0.3670
" />
<path d="M0.6840 0.5140
L0.6780 0.5180
" />
<path d="M0.6840 0.5610
L0.6820 0.5690
" />
<path d="M0.6840 3.0880
L0.6880 3.0960
" />
<path d="M0.6840 3.1350
L0.6900 3.1370
" />
<path d="M0.6880 0.5510
L0.6840 0.5610
" />
<path d="M0.6880 3.0960
L0.6900 3.1050
" />
<path d="M0.6900 0.5100
L0.6840 0.5140
" />
<path d="M0.6900 0.5420
L0.6880 0.5510
" />
<path d="M0.6900 3.1050
L0.6920 3.1150
" />
<path d="M0.6900 3.1370
L0.6980 3.1410
" />
<path d="M0.6920 0.5340
L0.6900 0.5420
" />
<path d="M0.6920 3.1150
L0.6960 3.1230
" />
<path d="M0.6960 0.5260
L0.6920 0.5340
" />
<path d="M0.6960 3.1230
L0.6980 3.1290
" />
<path d="M0.6980 0.5060
L0.6900 0.5100
" />
<path d="M0.6980 0.5180
L0.6960 0.5260
" />
<path d="M0.6980 3.1290
L0.7000 3.1370
" />
<path d="M0.6980 3.1410
L0.7040 3.1450
" />
<path d="M0.7000 0.5100
L0.6980 0.5180
" />
<path d="M0.7000 3.1370
L0.7040 3.1450
" />
<path d="M0.7040 0.5040
L0.6980 0.5060
" />
<path d="M0.7040 0.5040
L0.7000 0.5100
" />
<path d="M0.7040 0.5040
L0.7400 0.5400
" />
<path d="M0.7040 3.1450
L0.7060 3.1510
" />
<path d="M0.7040 3.1450
L0.7100 3.1470
" />
<path d="M0.7040 3.1450
L0.7400 3.1070
" />
<path d="M0.7060 0.4980
L0.7040 0.5040
" />
<path d="M0.7060 3.1510
L0.7100 3.1570
" />
<path d="M0.7100 0.3670
L0.7140 0.3690
" />
<path d="M0.7100 0.4900
L0.7060 0.4980
" />
<path d="M0.7100 0.5000
L0.7040 0.5040
" />
<path d="M0.7100 3.1470
L0.7180 3.1490
" />
<path d="M0.7100 3.1570
L0.7140 3.1650
" />
<path d="M0.7100 3.2820
L0.6420 3.3060
" />
<path d="M0.7140 0.3690
L0.7200 0.3690
" />
<path d="M0.7140 0.4840
L0.7100 0.4900
" />
<path d="M0.7140 3.1650
L0.7180 3.1710
" />
<path d="M0.7180 0.4780
L0.7140 0.4840
" />
<path d="M0.7180 0.4980
L0.7100 0.5000
" />
<path d="M0.7180 3.1490
L0.7260 3.1530
" />
<path d="M0.7180 3.1710
L0.7200 3.1770
" />
<path d="M0.7200 0.3690
L0.7300 0.3730
" />
<path d="M0.7200 0.4700
L0.7180 0.4780
" />
<path d="M0.7200 3.1770
L0.7240 3.1830
" />
<path d="M0.7200 3.2780
L0.7100 3.2820
" />
<path d="M0.7240 0.4640
L0.7200 0.4700
" />
<path d="M0.7240 3.1830
L0.7280 3.1890
" />
<path d="M0.7260 0.4960
L0.7180 0.4980
" />
<path d="M0.7260 3.1530
L0.7340 3.1550
" />
<path d="M0.7280 0.4580
L0.7240 0.4640
" />
<path d="M0.7280 3.1890
L0.7340 3.1950
" />
<path d="M0.7300 0.3730
L0.7420 0.3750
" />
<path d="M0.7300 3.2760
L0.7200 3.2780
" />
<path d="M0.7340 0.4520
L0.7280 0.4580
" />
</g>
<g style="fill:#000000; fill-opacity:1.0000; stroke:none;">
<circle cx="0.7340" cy="0.4520" r="0.0100" /> 
</g>
<g style="fill:none; 
stroke:#000000; stroke-width:0.0200; stroke-opacity:1; 
stroke-linecap:round; stroke-linejoin:round;">
<path d="M0.7340 0.4920
L0.7260 0.4960
" />
<path d="M0.7340 3.1550
L0.7420 3.1590
" />
</g>
<g style="fill:#000000; fill-opacity:1.0000; stroke:none;">
<circle cx="0.7340" cy="3.1950" r="0.0100" /> 
</g>
<g style="fill:none; 
stroke:#000000; stroke-width:0.0200; stroke-opacity:1; 
stroke-linecap:round; stroke-linejoin:round;">
<path d="M0.7340 3.1950
L0.7380 3.2010
" />
<path d="M0.7380 0.4460
L0.7340 0.4520
" />
<path d="M0.7380 3.2010
L0.7420 3.2070
" />
</g>
<g style="fill:#000000; fill-opacity:1.0000; stroke:none;">
<circle cx="0.7400" cy="0.5400" r="0.0100" /> 
</g>
<g style="fill:none; 
stroke:#000000; stroke-width:0.0200; stroke-opacity:1; 
stroke-linecap:round; stroke-linejoin:round;">
<path d="M0.7400 0.5400
L0.8490 0.6490
" />
</g>
<g style="fill:#000000; fill-opacity:1.0000; stroke:none;">
<circle cx="0.7400" cy="3.1070" r="0.0100" /> 
</g>
<g style="fill:none; 
stroke:#000000; stroke-width:0.0200; stroke-opacity:1; 
stroke-linecap:round; stroke-linejoin:round;">
<path d="M0.7400 3.1070
L0.8490 3.0000
" />
<path d="M0.7420 0.3750
L0.7550 0.3770
" />
<path d="M0.7420 0.4400
L0.7380 0.4460
" />
<path d="M0.7420 0.4900
L0.7340 0.4920
" />
<path d="M0.7420 3.1590
L0.7510 3.1610
" />
<path d="M0.7420 3.2070
L0.7490 3.2130
" />
<path d="M0.7420 3.2720
L0.7300 3.2760
" />
<path d="M0.7490 0.4340
L0.7420 0.4400
" />
<path d="M0.7490 3.2130
L0.7530 3.2190
" />
<path d="M0.7510 0.4880
L0.7420 0.4900
" />
<path d="M0.7510 3.1610
L0.7610 3.1630
" />
<path d="M0.7530 0.4280
L0.7490 0.4340
" />
<path d="M0.7530 3.2190
L0.7590 3.2250
" />
<path d="M0.7550 0.3770
L0.7690 0.3810
" />
<path d="M0.7550 3.2700
L0.7420 3.2720
" />
<path d="M0.7590 0.4240
L0.7530 0.4280
" />
<path d="M0.7590 3.2250
L0.7650 3.2290
" />
<path d="M0.7610 0.4840
L0.7510 0.4880
" />
<path d="M0.7610 3.1630
L0.7690 3.1650
" />
<path d="M0.7650 0.4180
L0.7590 0.4240
" />
<path d="M0.7650 3.2290
L0.7710 3.2340
" />
<path d="M0.7690 0.3810
L0.7850 0.3830
" />
<path d="M0.7690 0.4820
L0.7610 0.4840
" />
</g>
<g style="fill:#000000; fill-opacity:1.0000; stroke:none;">
<circle cx="0.7690" cy="0.4820" r="0.0100" /> 
<circle cx="0.7690" cy="3.1650" r="0.0100" /> 
</g>
<g style="fill:none; 
stroke:#000000; stroke-width:0.0200; stroke-opacity:1; 
stroke-linecap:round; stroke-linejoin:round;">
<path d="M0.7690 3.1650
L0.7910 3.1710
" />
<path d="M0.7690 3.2680
L0.7550 3.2700
" />
<path d="M0.7710 0.4130
L0.7650 0.4180
" />
<path d="M0.7710 3.2340
L0.7750 3.2400
" />
<path d="M0.7750 0.4090
L0.7710 0.4130
" />
<path d="M0.7750 3.2400
L0.7810 3.2440
" />
<path d="M0.7810 0.4050
L0.7750 0.4090
" />
<path d="M0.7810 3.2440
L0.7870 3.2480
" />
<path d="M0.7850 0.3830
L0.8010 0.3850
" />
<path d="M0.7850 3.2660
L0.7690 3.2680
" />
<path d="M0.7870 0.4010
L0.7810 0.4050
" />
<path d="M0.7870 3.2480
L0.7930 3.2500
" />
<path d="M0.7910 0.4780
L0.7690 0.4820
" />
<path d="M0.7910 0.7700
L0.7930 0.7600
" />
<path d="M0.7910 0.7800
L0.7910 0.7700
" />
<path d="M0.7910 0.7900
L0.7910 0.7800
" />
<path d="M0.7910 2.8690
L0.7910 2.8570
" />
<path d="M0.7910 2.8790
L0.7910 2.8690
" />
<path d="M0.7910 3.1710
L0.8150 3.1750
" />
<path d="M0.7930 0.3970
L0.7870 0.4010
" />
<path d="M0.7930 0.7600
L0.7950 0.7500
" />
<path d="M0.7930 2.8870
L0.7910 2.8790
" />
<path d="M0.7930 3.2500
L0.7970 3.2540
" />
<path d="M0.7950 0.7500
L0.7970 0.7400
" />
<path d="M0.7950 2.8970
L0.7930 2.8870
" />
<path d="M0.7970 0.3930
L0.7930 0.3970
" />
<path d="M0.7970 0.7400
L0.7990 0.7320
" />
<path d="M0.7970 2.9070
L0.7950 2.8970
" />
<path d="M0.7970 3.2540
L0.8030 3.2560
" />
<path d="M0.7990 0.7320
L0.8010 0.7220
" />
<path d="M0.7990 2.9170
L0.7970 2.9070
" />
<path d="M0.8010 0.3850
L0.8170 0.3870
" />
<path d="M0.8010 0.7220
L0.8050 0.7140
" />
<path d="M0.8010 2.9250
L0.7990 2.9170
" />
<path d="M0.8010 3.2640
L0.7850 3.2660
" />
<path d="M0.8030 0.3910
L0.7970 0.3930
" />
<path d="M0.8030 3.2560
L0.8070 3.2580
" />
<path d="M0.8050 0.7140
L0.8090 0.7040
" />
<path d="M0.8050 2.9350
L0.8010 2.9250
" />
<path d="M0.8070 0.3890
L0.8030 0.3910
" />
<path d="M0.8070 3.2580
L0.8130 3.2600
" />
<path d="M0.8090 0.7040
L0.8130 0.6960
" />
<path d="M0.8090 2.9430
L0.8050 2.9350
" />
<path d="M0.8130 0.3870
L0.8070 0.3890
" />
<path d="M0.8130 0.6960
L0.8190 0.6880
" />
<path d="M0.8130 2.9510
L0.8090 2.9430
" />
<path d="M0.8130 3.2600
L0.8170 3.2620
" />
<path d="M0.8150 0.4740
L0.7910 0.4780
" />
<path d="M0.8150 3.1750
L0.8410 3.1790
" />
<path d="M0.8170 0.3870
L0.8130 0.3870
" />
<path d="M0.8170 3.2620
L0.8010 3.2640
" />
<path d="M0.8170 3.2620
L0.8350 3.2600
" />
<path d="M0.8190 0.6880
L0.8230 0.6800
" />
<path d="M0.8190 2.9610
L0.8130 2.9510
" />
<path d="M0.8230 0.6800
L0.8290 0.6710
" />
<path d="M0.8230 2.9690
L0.8190 2.9610
" />
<path d="M0.8290 0.6710
L0.8350 0.6630
" />
<path d="M0.8290 2.9770
L0.8230 2.9690
" />
<path d="M0.8350 0.3870
L0.8170 0.3870
" />
<path d="M0.8350 0.6630
L0.8410 0.6570
" />
<path d="M0.8350 2.9840
L0.8290 2.9770
" />
<path d="M0.8350 3.2600
L0.8550 3.2600
" />
<path d="M0.8410 0.4700
L0.8150 0.4740
" />
<path d="M0.8410 0.6570
L0.8490 0.6490
" />
<path d="M0.8410 2.9920
L0.8350 2.9840
" />
<path d="M0.8410 3.1790
L0.8690 3.1810
" />
<path d="M0.8490 0.6490
L0.8570 0.6410
" />
<path d="M0.8490 3.0000
L0.8410 2.9920
" />
<path d="M0.8550 0.3890
L0.8350 0.3870
" />
<path d="M0.8550 3.2600
L0.8740 3.2580
" />
<path d="M0.8570 0.6410
L0.8630 0.6350
" />
<path d="M0.8570 3.0060
L0.8490 3.0000
" />
<path d="M0.8630 0.6350
L0.8710 0.6290
" />
<path d="M0.8630 3.0120
L0.8570 3.0060
" />
<path d="M0.8690 0.4660
L0.8410 0.4700
" />
<path d="M0.8690 3.1810
L0.8980 3.1850
" />
<path d="M0.8710 0.6290
L0.8800 0.6230
" />
<path d="M0.8710 3.0180
L0.8630 3.0120
" />
<path d="M0.8740 0.3910
L0.8550 0.3890
" />
<path d="M0.8740 3.2580
L0.8960 3.2560
" />
<path d="M0.8800 0.6230
L0.8880 0.6190
" />
<path d="M0.8800 3.0240
L0.8710 3.0180
" />
<path d="M0.8880 0.6190
L0.8960 0.6130
" />
<path d="M0.8880 3.0300
L0.8800 3.0240
" />
<path d="M0.8960 0.3910
L0.8740 0.3910
" />
<path d="M0.8960 0.6130
L0.9040 0.6090
" />
<path d="M0.8960 3.0340
L0.8880 3.0300
" />
<path d="M0.8960 3.2560
L0.9180 3.2560
" />
<path d="M0.8980 0.4640
L0.8690 0.4660
" />
<path d="M0.8980 3.1850
L0.9280 3.1870
" />
<path d="M0.9040 0.6090
L0.9140 0.6050
" />
<path d="M0.9040 3.0380
L0.8960 3.0340
" />
<path d="M0.9140 0.6050
L0.9220 0.6010
" />
<path d="M0.9140 3.0420
L0.9040 3.0380
" />
<path d="M0.9180 3.2560
L0.9400 3.2560
" />
<path d="M0.9220 0.6010
L0.9320 0.5990
" />
<path d="M0.9220 3.0460
L0.9140 3.0420
" />
<path d="M0.9280 0.4620
L0.8980 0.4640
" />
<path d="M0.9280 3.1870
L0.9600 3.1870
" />
<path d="M0.9320 0.5990
L0.9400 0.5970
" />
<path d="M0.9320 3.0500
L0.9220 3.0460
" />
<path d="M0.9400 0.3930
L0.8960 0.3910
" />
<path d="M0.9400 0.5970
L0.9500 0.5950
" />
<path d="M0.9400 3.0520
L0.9320 3.0500
" />
<path d="M0.9400 3.2560
L0.9640 3.2560
" />
<path d="M0.9500 0.5950
L0.9600 0.5930
" />
<path d="M0.9500 3.0540
L0.9400 3.0520
" />
<path d="M0.9600 0.4600
L0.9280 0.4620
" />
<path d="M0.9600 0.5930
L0.9700 0.5910
" />
<path d="M0.9600 3.0560
L0.9500 3.0540
" />
<path d="M0.9600 3.1870
L0.9900 3.1870
" />
<path d="M0.9640 3.2560
L0.9900 3.2560
" />
<path d="M0.9700 0.5910
L0.9800 0.5910
" />
<path d="M0.9700 3.0560
L0.9600 3.0560
" />
<path d="M0.9800 0.5910
L0.9900 0.5910
" />
<path d="M0.9800 3.0580
L0.9700 3.0560
" />
<path d="M0.9900 0.3930
L0.9400 0.3930
" />
<path d="M0.9900 0.3930
L0.9900 0.4600
" />
<path d="M0.9900 0.4600
L0.9600 0.4600
" />
<path d="M0.9900 0.4600
L0.9900 0.5910
" />
<path d="M0.9900 3.0580
L0.9800 3.0580
" />
<path d="M0.9900 3.1870
L0.9900 3.0580
" />
<path d="M0.9900 3.1870
L0.9900 3.2560
" />
<path d="M1.7100 0.1740
L1.9580 0.1740
" />
<path d="M1.7100 0.2990
L0.5490 0.2990
" />
<path d="M1.7100 0.2990
L1.7100 0.1740
" />
<path d="M1.7100 0.2990
L1.9580 0.2990
" />
<path d="M1.7100 3.4730
L1.7100 3.3480
" />
<path d="M1.9580 0.1740
L1.9580 0.2990
" />
<path d="M1.9580 3.3480
L1.9580 3.4730
" />
<path d="M1.9580 3.4730
L1.7100 3.4730
" />
<path d="M1.9590 3.3480
L1.7100 3.3480
" />
<path d="M1.9590 3.3480
L3.5000 3.3480
" />
<path d="M3.0570 0.4600
L3.0570 0.3930
" />
<path d="M3.0570 0.4600
L3.0570 0.5910
" />
<path d="M3.0570 0.5910
L3.0690 0.5910
" />
<path d="M3.0570 3.0580
L3.0570 3.1870
" />
<path d="M3.0570 3.1870
L3.0890 3.1870
" />
<path d="M3.0570 3.2560
L3.0570 3.1870
" />
<path d="M3.0570 3.2560
L3.1070 3.2560
" />
<path d="M3.0690 0.5910
L3.0790 0.5910
" />
<path d="M3.0690 3.0580
L3.0570 3.0580
" />
<path d="M3.0790 0.5910
L3.0870 0.5930
" />
<path d="M3.0790 3.0560
L3.0690 3.0580
" />
<path d="M3.0830 0.3930
L3.0570 0.3930
" />
<path d="M3.0870 0.5930
L3.0970 0.5950
" />
<path d="M3.0870 3.0560
L3.0790 3.0560
" />
<path d="M3.0890 0.4600
L3.0570 0.4600
" />
<path d="M3.0890 3.1870
L3.1190 3.1870
" />
<path d="M3.0970 0.5950
L3.1070 0.5970
" />
<path d="M3.0970 3.0540
L3.0870 3.0560
" />
<path d="M3.1070 0.3930
L3.0830 0.3930
" />
<path d="M3.1070 0.5970
L3.1170 0.5990
" />
<path d="M3.1070 3.0520
L3.0970 3.0540
" />
<path d="M3.1070 3.2560
L3.1530 3.2560
" />
<path d="M3.1170 0.5990
L3.1250 0.6010
" />
<path d="M3.1170 3.0500
L3.1070 3.0520
" />
<path d="M3.1190 0.4620
L3.0890 0.4600
" />
<path d="M3.1190 3.1870
L3.1490 3.1850
" />
<path d="M3.1250 0.6010
L3.1350 0.6050
" />
<path d="M3.1250 3.0460
L3.1170 3.0500
" />
<path d="M3.1310 0.3910
L3.1070 0.3930
" />
<path d="M3.1350 0.6050
L3.1430 0.6090
" />
<path d="M3.1350 3.0420
L3.1250 3.0460
" />
<path d="M3.1430 0.6090
L3.1510 0.6130
" />
<path d="M3.1430 3.0380
L3.1350 3.0420
" />
<path d="M3.1490 0.4640
L3.1190 0.4620
" />
<path d="M3.1490 3.1850
L3.1780 3.1810
" />
<path d="M3.1510 0.6130
L3.1610 0.6190
" />
<path d="M3.1510 3.0340
L3.1430 3.0380
" />
<path d="M3.1530 0.3910
L3.1310 0.3910
" />
<path d="M3.1530 3.2560
L3.1730 3.2580
" />
<path d="M3.1610 0.6190
L3.1690 0.6230
" />
<path d="M3.1610 3.0300
L3.1510 3.0340
" />
<path d="M3.1690 0.6230
L3.1770 0.6290
" />
<path d="M3.1690 3.0240
L3.1610 3.0300
" />
<path d="M3.1730 0.3910
L3.1530 0.3910
" />
<path d="M3.1730 3.2580
L3.1940 3.2600
" />
<path d="M3.1770 0.6290
L3.1840 0.6350
" />
<path d="M3.1770 3.0180
L3.1690 3.0240
" />
<path d="M3.1780 0.4660
L3.1490 0.4640
" />
<path d="M3.1780 3.1810
L3.2060 3.1790
" />
<path d="M3.1840 0.6350
L3.1920 0.6410
" />
<path d="M3.1840 3.0120
L3.1770 3.0180
" />
<path d="M3.1920 0.6410
L3.2000 0.6490
" />
<path d="M3.1920 3.0060
L3.1840 3.0120
" />
<path d="M3.1940 0.3890
L3.1730 0.3910
" />
<path d="M3.1940 3.2600
L3.2120 3.2600
" />
<path d="M3.2000 0.6490
L3.2060 0.6570
" />
<path d="M3.2000 3.0000
L3.1920 3.0060
" />
<path d="M3.2060 0.4700
L3.1780 0.4660
" />
<path d="M3.2060 0.6570
L3.2120 0.6630
" />
<path d="M3.2060 2.9920
L3.2000 3.0000
" />
<path d="M3.2060 3.1790
L3.2320 3.1750
" />
<path d="M3.2120 0.3870
L3.1940 0.3890
" />
<path d="M3.2120 0.6630
L3.2180 0.6710
" />
<path d="M3.2120 2.9840
L3.2060 2.9920
" />
<path d="M3.2120 3.2600
L3.2300 3.2620
" />
<path d="M3.2180 0.6710
L3.2240 0.6800
" />
<path d="M3.2180 2.9770
L3.2120 2.9840
" />
<path d="M3.2240 0.6800
L3.2300 0.6880
" />
<path d="M3.2240 2.9690
L3.2180 2.9770
" />
<path d="M3.2300 0.3870
L3.2120 0.3870
" />
<path d="M3.2300 0.3870
L3.2480 0.3850
" />
<path d="M3.2300 0.6880
L3.2340 0.6960
" />
<path d="M3.2300 2.9610
L3.2240 2.9690
" />
<path d="M3.2300 3.2620
L3.2360 3.2600
" />
<path d="M3.2320 0.4740
L3.2060 0.4700
" />
<path d="M3.2320 3.1750
L3.2560 3.1710
" />
<path d="M3.2340 0.6960
L3.2380 0.7040
" />
<path d="M3.2340 2.9510
L3.2300 2.9610
" />
<path d="M3.2360 0.3870
L3.2300 0.3870
" />
<path d="M3.2360 3.2600
L3.2400 3.2580
" />
<path d="M3.2380 0.7040
L3.2420 0.7140
" />
<path d="M3.2380 2.9430
L3.2340 2.9510
" />
<path d="M3.2400 0.3890
L3.2360 0.3870
" />
<path d="M3.2400 3.2580
L3.2460 3.2560
" />
<path d="M3.2420 0.7140
L3.2460 0.7220
" />
<path d="M3.2420 2.9350
L3.2380 2.9430
" />
<path d="M3.2460 0.3910
L3.2400 0.3890
" />
<path d="M3.2460 0.7220
L3.2500 0.7320
" />
<path d="M3.2460 2.9250
L3.2420 2.9350
" />
<path d="M3.2460 3.2560
L3.2500 3.2540
" />
<path d="M3.2480 0.3850
L3.2640 0.3830
" />
<path d="M3.2480 3.2640
L3.2300 3.2620
" />
<path d="M3.2500 0.3930
L3.2460 0.3910
" />
<path d="M3.2500 0.7320
L3.2520 0.7400
" />
<path d="M3.2500 2.9170
L3.2460 2.9250
" />
<path d="M3.2500 3.2540
L3.2560 3.2500
" />
<path d="M3.2520 0.7400
L3.2540 0.7500
" />
<path d="M3.2520 2.9070
L3.2500 2.9170
" />
<path d="M3.2540 0.7500
L3.2560 0.7600
" />
<path d="M3.2540 2.8970
L3.2520 2.9070
" />
<path d="M3.2560 0.3970
L3.2500 0.3930
" />
<path d="M3.2560 0.4780
L3.2320 0.4740
" />
<path d="M3.2560 0.7600
L3.2560 0.7700
" />
<path d="M3.2560 0.7700
L3.2580 0.7800
" />
<path d="M3.2560 2.8790
L3.2560 2.8870
" />
<path d="M3.2560 2.8870
L3.2540 2.8970
" />
<path d="M3.2560 3.1710
L3.2780 3.1650
" />
<path d="M3.2560 3.2500
L3.2620 3.2480
" />
<path d="M3.2580 0.7800
L3.2580 0.7900
" />
<path d="M3.2580 2.8570
L3.2580 2.8690
" />
<path d="M3.2580 2.8690
L3.2560 2.8790
" />
<path d="M3.2620 0.4010
L3.2560 0.3970
" />
<path d="M3.2620 3.2480
L3.2660 3.2440
" />
<path d="M3.2640 0.3830
L3.2780 0.3810
" />
<path d="M3.2640 3.2660
L3.2480 3.2640
" />
<path d="M3.2660 0.4050
L3.2620 0.4010
" />
<path d="M3.2660 3.2440
L3.2720 3.2400
" />
<path d="M3.2720 0.4090
L3.2660 0.4050
" />
<path d="M3.2720 3.2400
L3.2780 3.2340
" />
<path d="M3.2780 0.3810
L3.2920 0.3770
" />
<path d="M3.2780 0.4130
L3.2720 0.4090
" />
<path d="M3.2780 0.4820
L3.2560 0.4780
" />
</g>
<g style="fill:#000000; fill-opacity:1.0000; stroke:none;">
<circle cx="3.2780" cy="0.4820" r="0.0100" /> 
<circle cx="3.2780" cy="3.1650" r="0.0100" /> 
</g>
<g style="fill:none; 
stroke:#000000; stroke-width:0.0200; stroke-opacity:1; 
stroke-linecap:round; stroke-linejoin:round;">
<path d="M3.2780 3.1650
L3.2880 3.1630
" />
<path d="M3.2780 3.2340
L3.2840 3.2290
" />
<path d="M3.2780 3.2680
L3.2640 3.2660
" />
<path d="M3.2840 0.4180
L3.2780 0.4130
" />
<path d="M3.2840 3.2290
L3.2900 3.2250
" />
<path d="M3.2880 0.4840
L3.2780 0.4820
" />
<path d="M3.2880 3.1630
L3.2960 3.1610
" />
<path d="M3.2900 0.4240
L3.2840 0.4180
" />
<path d="M3.2900 3.2250
L3.2940 3.2190
" />
<path d="M3.2920 0.3770
L3.3050 0.3750
" />
<path d="M3.2920 3.2700
L3.2780 3.2680
" />
<path d="M3.2940 0.4280
L3.2900 0.4240
" />
<path d="M3.2940 3.2190
L3.3000 3.2130
" />
<path d="M3.2960 0.4880
L3.2880 0.4840
" />
<path d="M3.2960 3.1610
L3.3050 3.1590
" />
<path d="M3.3000 0.4340
L3.2940 0.4280
" />
<path d="M3.3000 3.2130
L3.3050 3.2070
" />
<path d="M3.3050 0.3750
L3.3170 0.3730
" />
<path d="M3.3050 0.4400
L3.3000 0.4340
" />
<path d="M3.3050 0.4900
L3.2960 0.4880
" />
<path d="M3.3050 3.1590
L3.3150 3.1550
" />
<path d="M3.3050 3.2070
L3.3110 3.2010
" />
<path d="M3.3050 3.2720
L3.2920 3.2700
" />
<path d="M3.3070 0.5400
L3.2000 0.6490
" />
</g>
<g style="fill:#000000; fill-opacity:1.0000; stroke:none;">
<circle cx="3.3070" cy="0.5400" r="0.0100" /> 
</g>
<g style="fill:none; 
stroke:#000000; stroke-width:0.0200; stroke-opacity:1; 
stroke-linecap:round; stroke-linejoin:round;">
<path d="M3.3070 3.1070
L3.2000 3.0000
" />
</g>
<g style="fill:#000000; fill-opacity:1.0000; stroke:none;">
<circle cx="3.3070" cy="3.1070" r="0.0100" /> 
</g>
<g style="fill:none; 
stroke:#000000; stroke-width:0.0200; stroke-opacity:1; 
stroke-linecap:round; stroke-linejoin:round;">
<path d="M3.3110 0.4460
L3.3050 0.4400
" />
<path d="M3.3110 3.2010
L3.3150 3.1950
" />
<path d="M3.3150 0.4520
L3.3110 0.4460
" />
</g>
<g style="fill:#000000; fill-opacity:1.0000; stroke:none;">
<circle cx="3.3150" cy="0.4520" r="0.0100" /> 
</g>
<g style="fill:none; 
stroke:#000000; stroke-width:0.0200; stroke-opacity:1; 
stroke-linecap:round; stroke-linejoin:round;">
<path d="M3.3150 0.4920
L3.3050 0.4900
" />
<path d="M3.3150 3.1550
L3.3230 3.1530
" />
</g>
<g style="fill:#000000; fill-opacity:1.0000; stroke:none;">
<circle cx="3.3150" cy="3.1950" r="0.0100" /> 
</g>
<g style="fill:none; 
stroke:#000000; stroke-width:0.0200; stroke-opacity:1; 
stroke-linecap:round; stroke-linejoin:round;">
<path d="M3.3150 3.1950
L3.3190 3.1890
" />
<path d="M3.3170 0.3730
L3.3290 0.3690
" />
<path d="M3.3170 3.2760
L3.3050 3.2720
" />
<path d="M3.3190 0.4580
L3.3150 0.4520
" />
<path d="M3.3190 3.1890
L3.3230 3.1830
" />
<path d="M3.3230 0.4640
L3.3190 0.4580
" />
<path d="M3.3230 0.4960
L3.3150 0.4920
" />
<path d="M3.3230 3.1530
L3.3290 3.1490
" />
<path d="M3.3230 3.1830
L3.3270 3.1770
" />
<path d="M3.3270 0.4700
L3.3230 0.4640
" />
<path d="M3.3270 3.1770
L3.3310 3.1710
" />
<path d="M3.3290 0.3690
L3.3390 0.3670
" />
<path d="M3.3290 0.4980
L3.3230 0.4960
" />
<path d="M3.3290 3.1490
L3.3370 3.1470
" />
<path d="M3.3290 3.2780
L3.3170 3.2760
" />
<path d="M3.3310 0.4780
L3.3270 0.4700
" />
<path d="M3.3310 3.1710
L3.3350 3.1650
" />
<path d="M3.3330 3.2800
L3.3290 3.2780
" />
<path d="M3.3350 0.4840
L3.3310 0.4780
" />
<path d="M3.3350 3.1650
L3.3370 3.1570
" />
<path d="M3.3370 0.4900
L3.3350 0.4840
" />
<path d="M3.3370 0.5000
L3.3290 0.4980
" />
<path d="M3.3370 3.1470
L3.3450 3.1450
" />
<path d="M3.3370 3.1570
L3.3410 3.1510
" />
<path d="M3.3390 0.3670
L3.4070 0.3430
" />
<path d="M3.3390 3.2820
L3.3330 3.2800
" />
<path d="M3.3410 0.4980
L3.3370 0.4900
" />
<path d="M3.3410 3.1510
L3.3450 3.1450
" />
<path d="M3.3450 0.5040
L3.3070 0.5400
" />
<path d="M3.3450 0.5040
L3.3370 0.5000
" />
<path d="M3.3450 0.5040
L3.3410 0.4980
" />
<path d="M3.3450 3.1450
L3.3070 3.1070
" />
<path d="M3.3450 3.1450
L3.3470 3.1370
" />
<path d="M3.3450 3.1450
L3.3510 3.1410
" />
<path d="M3.3470 0.5100
L3.3450 0.5040
" />
<path d="M3.3470 3.1370
L3.3490 3.1290
" />
<path d="M3.3490 0.5180
L3.3470 0.5100
" />
<path d="M3.3490 3.1290
L3.3530 3.1230
" />
<path d="M3.3510 0.5060
L3.3450 0.5040
" />
<path d="M3.3510 3.1410
L3.3570 3.1370
" />
<path d="M3.3530 0.5260
L3.3490 0.5180
" />
<path d="M3.3530 3.1230
L3.3550 3.1150
" />
<path d="M3.3550 0.5340
L3.3530 0.5260
" />
<path d="M3.3550 3.1150
L3.3590 3.1050
" />
<path d="M3.3570 0.5100
L3.3510 0.5060
" />
<path d="M3.3570 3.1370
L3.3650 3.1350
" />
<path d="M3.3590 0.5420
L3.3550 0.5340
" />
<path d="M3.3590 3.1050
L3.3610 3.0960
" />
<path d="M3.3610 0.5510
L3.3590 0.5420
" />
<path d="M3.3610 3.0960
L3.3630 3.0880
" />
<path d="M3.3630 0.5610
L3.3610 0.5510
" />
<path d="M3.3630 3.0880
L3.3650 3.0780
" />
<path d="M3.3630 3.2900
L3.3390 3.2820
" />
<path d="M3.3650 0.5140
L3.3570 0.5100
" />
<path d="M3.3650 0.5690
L3.3630 0.5610
" />
</g>
<g style="fill:#000000; fill-opacity:1.0000; stroke:none;">
<circle cx="3.3650" cy="0.5690" r="0.0100" /> 
<circle cx="3.3650" cy="3.0780" r="0.0100" /> 
</g>
<g style="fill:none; 
stroke:#000000; stroke-width:0.0200; stroke-opacity:1; 
stroke-linecap:round; stroke-linejoin:round;">
<path d="M3.3650 3.0780
L3.3710 3.0560
" />
<path d="M3.3650 3.1350
L3.3710 3.1310
" />
<path d="M3.3710 0.5180
L3.3650 0.5140
" />
<path d="M3.3710 0.5910
L3.3650 0.5690
" />
<path d="M3.3710 3.0560
L3.3750 3.0320
" />
<path d="M3.3710 3.1310
L3.3770 3.1270
" />
<path d="M3.3750 0.6150
L3.3710 0.5910
" />
<path d="M3.3750 3.0320
L3.3790 3.0060
" />
<path d="M3.3770 0.5200
L3.3710 0.5180
" />
<path d="M3.3770 3.1270
L3.3830 3.1230
" />
<path d="M3.3790 0.6410
L3.3750 0.6150
" />
<path d="M3.3790 3.0060
L3.3810 2.9780
" />
<path d="M3.3810 0.6690
L3.3790 0.6410
" />
<path d="M3.3810 2.9780
L3.3850 2.9490
" />
<path d="M3.3830 0.5240
L3.3770 0.5200
" />
<path d="M3.3830 3.1230
L3.3890 3.1190
" />
<path d="M3.3850 0.6980
L3.3810 0.6690
" />
<path d="M3.3850 2.9490
L3.3870 2.9190
" />
<path d="M3.3870 0.7280
L3.3850 0.6980
" />
<path d="M3.3870 0.7600
L3.3870 0.7280
" />
<path d="M3.3870 0.7900
L3.2580 0.7900
" />
<path d="M3.3870 0.7900
L3.3870 0.7600
" />
<path d="M3.3870 2.8570
L3.2580 2.8570
" />
<path d="M3.3870 2.8570
L3.4560 2.8570
" />
<path d="M3.3870 2.8890
L3.3870 2.8570
" />
<path d="M3.3870 2.9190
L3.3870 2.8890
" />
<path d="M3.3890 0.5280
L3.3830 0.5240
" />
<path d="M3.3890 3.1190
L3.3950 3.1150
" />
<path d="M3.3890 3.3000
L3.3630 3.2900
" />
<path d="M3.3950 0.5340
L3.3890 0.5280
" />
</g>
<g style="fill:#000000; fill-opacity:1.0000; stroke:none;">
<circle cx="3.3950" cy="0.5340" r="0.0100" /> 
<circle cx="3.3950" cy="3.1150" r="0.0100" /> 
</g>
<g style="fill:none; 
stroke:#000000; stroke-width:0.0200; stroke-opacity:1; 
stroke-linecap:round; stroke-linejoin:round;">
<path d="M3.3950 3.1150
L3.4010 3.1110
" />
<path d="M3.4010 0.5380
L3.3950 0.5340
" />
<path d="M3.4010 3.1110
L3.4070 3.1050
" />
<path d="M3.4070 0.3430
L3.4340 0.3330
" />
<path d="M3.4070 0.5420
L3.4010 0.5380
" />
<path d="M3.4070 3.1050
L3.4130 3.1000
" />
<path d="M3.4130 0.5490
L3.4070 0.5420
" />
<path d="M3.4130 3.1000
L3.4190 3.0940
" />
<path d="M3.4130 3.3080
L3.3890 3.3000
" />
<path d="M3.4190 0.5530
L3.4130 0.5490
" />
<path d="M3.4190 3.0940
L3.4250 3.0900
" />
<path d="M3.4250 0.5590
L3.4190 0.5530
" />
<path d="M3.4250 3.0900
L3.4290 3.0840
" />
<path d="M3.4290 0.5650
L3.4250 0.5590
" />
<path d="M3.4290 3.0840
L3.4340 3.0780
" />
</g>
<g style="fill:#000000; fill-opacity:1.0000; stroke:none;">
<circle cx="3.4340" cy="0.3330" r="0.0100" /> 
</g>
<g style="fill:none; 
stroke:#000000; stroke-width:0.0200; stroke-opacity:1; 
stroke-linecap:round; stroke-linejoin:round;">
<path d="M3.4340 0.3330
L3.4460 0.3290
" />
<path d="M3.4340 0.5710
L3.4290 0.5650
" />
<path d="M3.4340 3.0780
L3.4400 3.0720
" />
<path d="M3.4340 3.3140
L3.4130 3.3080
" />
</g>
<g style="fill:#000000; fill-opacity:1.0000; stroke:none;">
<circle cx="3.4340" cy="3.3140" r="0.0100" /> 
</g>
<g style="fill:none; 
stroke:#000000; stroke-width:0.0200; stroke-opacity:1; 
stroke-linecap:round; stroke-linejoin:round;">
<path d="M3.4380 0.4090
L3.3450 0.5040
" />
<path d="M3.4380 3.2380
L3.3450 3.1450
" />
<path d="M3.4400 0.5750
L3.4340 0.5710
" />
<path d="M3.4400 3.0720
L3.4440 3.0660
" />
<path d="M3.4400 3.3180
L3.4340 3.3140
" />
<path d="M3.4440 0.5810
L3.4400 0.5750
" />
<path d="M3.4440 3.0660
L3.4480 3.0620
" />
<path d="M3.4460 0.3290
L3.4560 0.3230
" />
<path d="M3.4460 3.3200
L3.4400 3.3180
" />
<path d="M3.4480 0.5870
L3.4440 0.5810
" />
<path d="M3.4480 3.0620
L3.4500 3.0560
" />
<path d="M3.4500 0.5930
L3.4480 0.5870
" />
<path d="M3.4500 3.0560
L3.4540 3.0500
" />
<path d="M3.4520 3.3220
L3.4460 3.3200
" />
<path d="M3.4540 0.5970
L3.4500 0.5930
" />
<path d="M3.4540 3.0500
L3.4560 3.0460
" />
<path d="M3.4560 0.3230
L3.4660 0.3190
" />
<path d="M3.4560 0.6030
L3.4540 0.5970
" />
<path d="M3.4560 0.6960
L3.4580 0.6740
" />
<path d="M3.4560 0.7400
L3.4560 0.6960
" />
<path d="M3.4560 0.7900
L3.3870 0.7900
" />
<path d="M3.4560 0.7900
L3.4560 0.7400
" />
<path d="M3.4560 2.8830
L3.4560 2.8570
" />
<path d="M3.4560 2.9070
L3.4560 2.8830
" />
<path d="M3.4560 2.9310
L3.4560 2.9070
" />
<path d="M3.4560 2.9530
L3.4560 2.9310
" />
<path d="M3.4560 3.0460
L3.4580 3.0400
" />
<path d="M3.4560 3.3240
L3.4520 3.3220
" />
<path d="M3.4580 0.6070
L3.4560 0.6030
" />
<path d="M3.4580 0.6740
L3.4600 0.6550
" />
<path d="M3.4580 2.9730
L3.4560 2.9530
" />
<path d="M3.4580 3.0400
L3.4600 3.0360
" />
<path d="M3.4600 0.6130
L3.4580 0.6070
" />
<path d="M3.4600 0.6350
L3.4620 0.6170
" />
<path d="M3.4600 0.6550
L3.4600 0.6350
" />
<path d="M3.4600 2.9940
L3.4580 2.9730
" />
<path d="M3.4600 3.0120
L3.4600 2.9940
" />
<path d="M3.4600 3.0360
L3.4620 3.0300
" />
<path d="M3.4620 0.6170
L3.4600 0.6130
" />
<path d="M3.4620 3.0300
L3.4600 3.0120
" />
<path d="M3.4620 3.0300
L3.4640 3.0480
" />
<path d="M3.4620 3.3260
L3.4560 3.3240
" />
<path d="M3.4640 0.6010
L3.4620 0.6170
" />
<path d="M3.4640 3.0480
L3.4660 3.0640
" />
<path d="M3.4660 0.3190
L3.4740 0.3150
" />
<path d="M3.4660 0.5850
L3.4640 0.6010
" />
<path d="M3.4660 3.0640
L3.4680 3.0780
" />
<path d="M3.4660 3.3280
L3.4620 3.3260
" />
<path d="M3.4680 0.5690
L3.4660 0.5850
" />
<path d="M3.4680 3.0780
L3.4700 3.0920
" />
<path d="M3.4700 0.5550
L3.4680 0.5690
" />
<path d="M3.4700 3.0920
L3.4720 3.1050
" />
<path d="M3.4700 3.3300
L3.4660 3.3280
" />
<path d="M3.4720 0.5420
L3.4700 0.5550
" />
<path d="M3.4720 3.1050
L3.4760 3.1170
" />
<path d="M3.4740 0.3150
L3.4820 0.3110
" />
<path d="M3.4760 0.5300
L3.4720 0.5420
" />
<path d="M3.4760 3.1170
L3.4780 3.1290
" />
<path d="M3.4760 3.3340
L3.4700 3.3300
" />
<path d="M3.4780 0.5200
L3.4760 0.5300
" />
<path d="M3.4780 3.1290
L3.4820 3.1390
" />
<path d="M3.4800 0.5140
L3.4780 0.5200
" />
<path d="M3.4800 3.3360
L3.4760 3.3340
" />
<path d="M3.4820 0.3110
L3.4860 0.3090
" />
<path d="M3.4820 0.5100
L3.4800 0.5140
" />
<path d="M3.4820 3.1390
L3.5060 3.2070
" />
<path d="M3.4820 3.3380
L3.4800 3.3360
" />
<path d="M3.4860 0.3090
L3.4900 0.3070
" />
<path d="M3.4860 3.3400
L3.4820 3.3380
" />
<path d="M3.4900 0.3070
L3.4920 0.3050
" />
<path d="M3.4900 0.4840
L3.4820 0.5100
" />
<path d="M3.4900 3.3420
L3.4860 3.3400
" />
<path d="M3.4920 0.3050
L3.4940 0.3030
" />
<path d="M3.4920 3.3440
L3.4900 3.3420
" />
<path d="M3.4940 0.3030
L3.4980 0.3010
" />
<path d="M3.4940 3.3460
L3.4920 3.3440
" />
<path d="M3.4980 0.3010
L3.5000 0.2990
" />
<path d="M3.4980 3.3480
L3.4940 3.3460
" />
<path d="M3.5000 0.2990
L1.9580 0.2990
" />
<path d="M3.5000 0.4580
L3.4900 0.4840
" />
<path d="M3.5000 3.3480
L3.4980 3.3480
" />
<path d="M3.5000 3.3480
L3.5020 3.3480
" />
<path d="M3.5020 0.2990
L3.5000 0.2990
" />
<path d="M3.5020 3.3480
L3.5040 3.3480
" />
<path d="M3.5040 0.2990
L3.5020 0.2990
" />
<path d="M3.5040 3.3480
L3.5060 3.3480
" />
<path d="M3.5060 0.2990
L3.5040 0.2990
" />
<path d="M3.5060 3.2070
L3.5140 3.2340
" />
<path d="M3.5060 3.3480
L3.5100 3.3480
" />
<path d="M3.5080 0.4340
L3.5000 0.4580
" />
<path d="M3.5100 0.2990
L3.5060 0.2990
" />
<path d="M3.5100 3.3480
L3.5120 3.3480
" />
<path d="M3.5120 0.3010
L3.5100 0.2990
" />
<path d="M3.5120 3.3480
L3.5140 3.3460
" />
<path d="M3.5140 0.3010
L3.5120 0.3010
" />
<path d="M3.5140 0.4150
L3.5080 0.4340
" />
</g>
<g style="fill:#000000; fill-opacity:1.0000; stroke:none;">
<circle cx="3.5140" cy="0.4150" r="0.0100" /> 
<circle cx="3.5140" cy="3.2340" r="0.0100" /> 
</g>
<g style="fill:none; 
stroke:#000000; stroke-width:0.0200; stroke-opacity:1; 
stroke-linecap:round; stroke-linejoin:round;">
<path d="M3.5140 3.2340
L3.5200 3.2460
" />
<path d="M3.5140 3.3460
L3.5160 3.3460
" />
<path d="M3.5160 0.3010
L3.5140 0.3010
" />
<path d="M3.5160 3.3460
L3.5180 3.3460
" />
<path d="M3.5180 0.3030
L3.5160 0.3010
" />
<path d="M3.5180 0.4090
L3.5140 0.4150
" />
<path d="M3.5180 3.3460
L3.5200 3.3440
" />
<path d="M3.5200 0.3030
L3.5180 0.3030
" />
<path d="M3.5200 0.4030
L3.5180 0.4090
" />
<path d="M3.5200 3.2460
L3.5240 3.2560
" />
<path d="M3.5200 3.3440
L3.5220 3.3440
" />
<path d="M3.5220 0.3050
L3.5200 0.3030
" />
<path d="M3.5220 0.3970
L3.5200 0.4030
" />
<path d="M3.5220 3.3440
L3.5240 3.3420
" />
<path d="M3.5240 0.3070
L3.5220 0.3050
" />
<path d="M3.5240 0.3910
L3.5220 0.3970
" />
<path d="M3.5240 3.2560
L3.5280 3.2660
" />
<path d="M3.5240 3.3420
L3.5260 3.3400
" />
<path d="M3.5260 0.3070
L3.5240 0.3070
" />
<path d="M3.5260 0.3870
L3.5240 0.3910
" />
<path d="M3.5260 3.3400
L3.5280 3.3400
" />
<path d="M3.5280 0.3090
L3.5260 0.3070
" />
<path d="M3.5280 0.3810
L3.5260 0.3870
" />
<path d="M3.5280 3.2660
L3.5320 3.2740
" />
<path d="M3.5280 3.3400
L3.5300 3.3380
" />
<path d="M3.5300 0.3110
L3.5280 0.3090
" />
<path d="M3.5300 0.3770
L3.5280 0.3810
" />
<path d="M3.5300 3.3380
L3.5320 3.3360
" />
<path d="M3.5320 0.3130
L3.5300 0.3110
" />
<path d="M3.5320 3.2740
L3.5380 3.2820
" />
<path d="M3.5320 3.3360
L3.5340 3.3340
" />
<path d="M3.5340 0.3130
L3.5320 0.3130
" />
<path d="M3.5340 0.3730
L3.5300 0.3770
" />
<path d="M3.5340 3.3340
L3.5360 3.3320
" />
<path d="M3.5360 0.3150
L3.5340 0.3130
" />
<path d="M3.5360 0.3690
L3.5340 0.3730
" />
<path d="M3.5360 3.3320
L3.5380 3.3300
" />
<path d="M3.5380 0.3170
L3.5360 0.3150
" />
<path d="M3.5380 0.3650
L3.5360 0.3690
" />
<path d="M3.5380 3.2820
L3.5400 3.2860
" />
<path d="M3.5380 3.3300
L3.5400 3.3280
" />
<path d="M3.5400 0.3190
L3.5380 0.3170
" />
<path d="M3.5400 0.3210
L3.5400 0.3190
" />
<path d="M3.5400 0.3610
L3.5380 0.3650
" />
<path d="M3.5400 3.2860
L3.5420 3.2900
" />
<path d="M3.5400 3.3260
L3.5420 3.3240
" />
<path d="M3.5400 3.3280
L3.5400 3.3260
" />
<path d="M3.5420 0.3230
L3.5400 0.3210
" />
<path d="M3.5420 0.3590
L3.5400 0.3610
" />
<path d="M3.5420 3.2900
L3.5440 3.2920
" />
<path d="M3.5420 3.3240
L3.5440 3.3220
" />
<path d="M3.5440 0.3250
L3.5420 0.3230
" />
<path d="M3.5440 0.3270
L3.5440 0.3250
" />
<path d="M3.5440 0.3550
L3.5420 0.3590
" />
<path d="M3.5440 3.2920
L3.5460 3.2940
" />
<path d="M3.5440 3.3200
L3.5460 3.3180
" />
<path d="M3.5440 3.3220
L3.5440 3.3200
" />
<path d="M3.5460 0.3290
L3.5440 0.3270
" />
<path d="M3.5460 0.3310
L3.5460 0.3290
" />
<path d="M3.5460 0.3350
L3.5460 0.3310
" />
<path d="M3.5460 0.3530
L3.5440 0.3550
" />
<path d="M3.5460 3.2940
L3.5480 3.2980
" />
<path d="M3.5460 3.3140
L3.5480 3.3120
" />
<path d="M3.5460 3.3160
L3.5460 3.3140
" />
<path d="M3.5460 3.3180
L3.5460 3.3160
" />
<path d="M3.5480 0.3370
L3.5460 0.3350
" />
<path d="M3.5480 0.3390
L3.5480 0.3370
" />
<path d="M3.5480 0.3410
L3.5480 0.3390
" />
<path d="M3.5480 0.3430
L3.5480 0.3410
" />
<path d="M3.5480 0.3470
L3.5480 0.3430
" />
<path d="M3.5480 0.3490
L3.5480 0.3470
" />
<path d="M3.5480 0.3490
L3.5480 0.3510
" />
<path d="M3.5480 0.3510
L3.5460 0.3530
" />
<path d="M3.5480 0.7000
L3.5480 0.3490
" />
<path d="M3.5480 0.7000
L3.5480 0.9990
" />
<path d="M3.5480 0.7000
L3.6730 0.7000
" />
<path d="M3.5480 1.3490
L3.5480 0.9990
" />
<path d="M3.5480 1.3490
L3.5480 1.6490
" />
<path d="M3.5480 1.3490
L3.6730 1.3490
" />
<path d="M3.5480 1.9990
L3.5480 1.6490
" />
<path d="M3.5480 1.9990
L3.5480 2.2990
" />
<path d="M3.5480 1.9990
L3.6730 1.9990
" />
<path d="M3.5480 2.6490
L3.5480 2.2990
" />
<path d="M3.5480 2.6490
L3.5480 2.9490
" />
<path d="M3.5480 2.6490
L3.6730 2.6490
" />
<path d="M3.5480 3.2980
L3.5480 3.3000
" />
<path d="M3.5480 3.3000
L3.5480 2.9490
" />
<path d="M3.5480 3.3020
L3.5480 3.3000
" />
<path d="M3.5480 3.3040
L3.5480 3.3020
" />
<path d="M3.5480 3.3060
L3.5480 3.3040
" />
<path d="M3.5480 3.3100
L3.5480 3.3060
" />
<path d="M3.5480 3.3120
L3.5480 3.3100
" />
<path d="M3.6730 0.7000
L3.6730 0.9990
" />
<path d="M3.6730 0.9990
L3.5480 0.9990
" />
<path d="M3.6730 1.3490
L3.6730 1.6490
" />
<path d="M3.6730 1.6490
L3.5480 1.6490
" />
<path d="M3.6730 1.9990
L3.6730 2.2990
" />
<path d="M3.6730 2.2990
L3.5480 2.2990
" />
<path d="M3.6730 2.6490
L3.6730 2.9490
" />
<path d="M3.6730 2.9490
L3.5480 2.9490
" />
</g> 
</svg>
