<?xml version="1.0" standalone="no"?>
 <!DOCTYPE svg PUBLIC "-//W3C//DTD SVG 1.1//EN" 
 "http://www.w3.org/Graphics/SVG/1.1/DTD/svg11.dtd"> 
<svg
  xmlns:svg="http://www.w3.org/2000/svg"
  xmlns="http://www.w3.org/2000/svg"
  xmlns:xlink="http://www.w3.org/1999/xlink"
  version="1.1"
  width="8.1280mm" height="7.0358mm" viewBox="0.0000 0.0000 8.1280 7.0358">
<title>SVG Image created as outline.svg date 2025/04/04 10:06:11 </title>
  <desc>Image generated by PCBNEW </desc>
<g style="fill:#000000; fill-opacity:1.0000;stroke:#000000; stroke-opacity:1.0000;
stroke-linecap:round; stroke-linejoin:round;"
 transform="translate(0 0) scale(1 1)">
</g>
<g style="fill:none; 
stroke:#000000; stroke-width:0.0200; stroke-opacity:1; 
stroke-linecap:round; stroke-linejoin:round;">
<path d="M0.3300 0.4260
L0.3300 6.7760
" />
<path d="M0.3300 0.4260
L1.5240 0.4260
" />
<path d="M0.3300 6.7760
L4.4450 6.7760
" />
<path d="M1.2060 3.2070
L1.4100 3.4110
" />
<path d="M1.2060 3.2070
L1.8420 3.2070
" />
<path d="M1.2060 3.8430
L1.2060 3.2070
" />
<path d="M1.2060 3.8430
L1.4100 3.6390
" />
<path d="M1.2060 3.8430
L1.8420 3.8430
" />
<path d="M1.4100 3.4110
L1.6380 3.4110
" />
<path d="M1.4100 3.6390
L1.4100 3.4110
" />
<path d="M1.4100 3.6390
L1.6380 3.6390
" />
<path d="M1.5240 0.4260
L1.5240 1.0610
" />
<path d="M1.5240 0.4260
L6.6040 0.4260
" />
<path d="M1.5240 1.0610
L1.5240 2.1410
" />
<path d="M1.5240 1.0610
L6.6040 1.0610
" />
<path d="M1.5240 2.1410
L6.6040 2.1410
" />
<path d="M1.6380 3.4110
L1.6380 3.6390
" />
<path d="M1.8420 3.2070
L1.6380 3.4110
" />
<path d="M1.8420 3.2070
L1.8420 3.8430
" />
<path d="M1.8420 3.8430
L1.6380 3.6390
" />
<path d="M3.7460 3.2070
L3.9500 3.4110
" />
<path d="M3.7460 3.2070
L4.3820 3.2070
" />
<path d="M3.7460 3.8430
L3.7460 3.2070
" />
<path d="M3.7460 3.8430
L3.9500 3.6390
" />
<path d="M3.7460 3.8430
L4.3820 3.8430
" />
<path d="M3.9500 3.4110
L4.1780 3.4110
" />
<path d="M3.9500 3.6390
L3.9500 3.4110
" />
<path d="M3.9500 3.6390
L4.1780 3.6390
" />
<path d="M4.1780 3.4110
L4.1780 3.6390
" />
<path d="M4.3820 3.2070
L4.1780 3.4110
" />
<path d="M4.3820 3.2070
L4.3820 3.8430
" />
<path d="M4.3820 3.8430
L4.1780 3.6390
" />
<path d="M4.6990 6.5220
L4.4450 6.7760
" />
<path d="M5.9690 6.5220
L4.6990 6.5220
" />
<path d="M6.2230 6.7760
L5.9690 6.5220
" />
<path d="M6.2230 6.7760
L7.7980 6.7760
" />
<path d="M6.2860 3.2070
L6.4900 3.4110
" />
<path d="M6.2860 3.2070
L6.9220 3.2070
" />
<path d="M6.2860 3.8430
L6.2860 3.2070
" />
<path d="M6.2860 3.8430
L6.4900 3.6390
" />
<path d="M6.2860 3.8430
L6.9220 3.8430
" />
<path d="M6.4900 3.4110
L6.7180 3.4110
" />
<path d="M6.4900 3.6390
L6.4900 3.4110
" />
<path d="M6.4900 3.6390
L6.7180 3.6390
" />
<path d="M6.6040 0.4260
L6.6040 1.0610
" />
<path d="M6.6040 0.4260
L7.7980 0.4260
" />
<path d="M6.6040 1.0610
L6.6040 2.1410
" />
<path d="M6.7180 3.4110
L6.7180 3.6390
" />
<path d="M6.9220 3.2070
L6.7180 3.4110
" />
<path d="M6.9220 3.2070
L6.9220 3.8430
" />
<path d="M6.9220 3.8430
L6.7180 3.6390
" />
<path d="M7.7980 0.4260
L7.7980 6.7760
" />
</g> 
</svg>
