{
  "accessors": [
    {
      "bufferView": 0,
      "byteOffset": 0,
      "componentType": 5126,
      "normalized": false,
      "count": 458,
      "type": "VEC3",
      "max": [
        1.6002000570297241,
        0.9515441060066223,
        1.2445347309112549
      ],
      "min": [
        -1.6002000570297241,
        -5.21540641784668e-08,
        -1.2446000576019287
      ]
    },
    {
      "bufferView": 0,
      "byteOffset": 12,
      "componentType": 5126,
      "normalized": false,
      "count": 458,
      "type": "VEC3"
    },
    {
      "bufferView": 0,
      "byteOffset": 24,
      "componentType": 5126,
      "normalized": false,
      "count": 458,
      "type": "VEC2"
    },
    {
      "bufferView": 0,
      "byteOffset": 32,
      "componentType": 5126,
      "normalized": false,
      "count": 458,
      "type": "VEC2"
    },
    {
      "bufferView": 1,
      "byteOffset": 0,
      "componentType": 5123,
      "normalized": false,
      "count": 1140,
      "type": "SCALAR"
    },
    {
      "bufferView": 1,
      "byteOffset": 2280,
      "componentType": 5123,
      "normalized": false,
      "count": 729,
      "type": "SCALAR"
    },
    {
      "bufferView": 1,
      "byteOffset": 3740,
      "componentType": 5123,
      "normalized": false,
      "count": 351,
      "type": "SCALAR"
    },
    {
      "bufferView": 2,
      "byteOffset": 0,
      "componentType": 5126,
      "normalized": false,
      "count": 221,
      "type": "VEC3",
      "max": [
        1.6002000570297241,
        0.7429124712944031,
        1.2445347309112549
      ],
      "min": [
        -1.6002000570297241,
        0.005079947412014008,
        -1.2446000576019287
      ]
    },
    {
      "bufferView": 2,
      "byteOffset": 12,
      "componentType": 5126,
      "normalized": false,
      "count": 221,
      "type": "VEC3"
    },
    {
      "bufferView": 2,
      "byteOffset": 24,
      "componentType": 5126,
      "normalized": false,
      "count": 221,
      "type": "VEC2"
    },
    {
      "bufferView": 2,
      "byteOffset": 32,
      "componentType": 5126,
      "normalized": false,
      "count": 221,
      "type": "VEC2"
    },
    {
      "bufferView": 3,
      "byteOffset": 0,
      "componentType": 5126,
      "normalized": false,
      "count": 98,
      "type": "VEC3",
      "max": [
        1.333499789237976,
        0.9880279898643494,
        0.9999354481697083
      ],
      "min": [
        -1.332473874092102,
        0.9313986301422119,
        -0.9999924302101135
      ]
    },
    {
      "bufferView": 3,
      "byteOffset": 12,
      "componentType": 5126,
      "normalized": false,
      "count": 98,
      "type": "VEC3"
    },
    {
      "bufferView": 3,
      "byteOffset": 24,
      "componentType": 5126,
      "normalized": false,
      "count": 98,
      "type": "VEC2"
    },
    {
      "bufferView": 3,
      "byteOffset": 32,
      "componentType": 5126,
      "normalized": false,
      "count": 98,
      "type": "VEC2"
    }
  ],
  "asset": {
    "generator": "pygltflib@v1.16.5",
    "version": "2.0"
  },
  "bufferViews": [
    {
      "buffer": 0,
      "byteOffset": 0,
      "byteLength": 18320,
      "byteStride": 40,
      "target": 34962
    },
    {
      "buffer": 0,
      "byteOffset": 18320,
      "byteLength": 4444,
      "target": 34963
    },
    {
      "buffer": 0,
      "byteOffset": 22764,
      "byteLength": 8840,
      "byteStride": 40,
      "target": 34962
    },
    {
      "buffer": 0,
      "byteOffset": 31604,
      "byteLength": 3920,
      "byteStride": 40,
      "target": 34962
    }
  ],
  "buffers": [
    {
      "uri": "Resonator_SMD_Abracon_ABM8G_3.2x2.5mm.bin",
      "byteLength": 35524
    }
  ],
  "extensionsUsed": [
    "KHR_materials_clearcoat",
    "KHR_materials_ior",
    "KHR_materials_sheen",
    "KHR_materials_specular"
  ],
  "materials": [
    {
      "extensions": {
        "KHR_materials_clearcoat": {
          "clearcoatFactor": 0,
          "clearcoatRoughnessFactor": 0.2890909016132355
        },
        "KHR_materials_ior": {
          "ior": 1.4500000476837158
        },
        "KHR_materials_sheen": {
          "sheenColorFactor": [
            1,
            1,
            1
          ],
          "sheenRoughnessFactor": 0.5
        },
        "KHR_materials_specular": {
          "specularFactor": 0.9499998092651367
        }
      },
      "pbrMetallicRoughness": {
        "baseColorFactor": [
          0.7304738759994507,
          0.5647074580192566,
          0.28315332531929016,
          1.0
        ],
        "metallicFactor": 1.0,
        "roughnessFactor": 0.2522728145122528
      },
      "emissiveFactor": [
        0.0,
        0.0,
        0.0
      ],
      "alphaMode": "OPAQUE",
      "doubleSided": true,
      "name": "gltf_metal_goldpins_1"
    },
    {
      "pbrMetallicRoughness": {
        "baseColorFactor": [
          0.009721336886286736,
          0.009721336886286736,
          0.009721336886286736,
          1.0
        ],
        "metallicFactor": 0.09154544770717621,
        "roughnessFactor": 0.4615432620048523
      },
      "emissiveFactor": [
        0.0,
        0.0,
        0.0
      ],
      "alphaMode": "OPAQUE",
      "doubleSided": true,
      "name": "gltf_plastic_matte_black"
    },
    {
      "extensions": {
        "KHR_materials_clearcoat": {
          "clearcoatFactor": 0,
          "clearcoatRoughnessFactor": 0.46590909361839294
        },
        "KHR_materials_ior": {
          "ior": 1
        },
        "KHR_materials_sheen": {
          "sheenColorFactor": [
            1,
            1,
            1
          ],
          "sheenRoughnessFactor": 0.5
        },
        "KHR_materials_specular": {
          "specularFactor": 0.9590908885002136
        }
      },
      "pbrMetallicRoughness": {
        "baseColorFactor": [
          0.3967485725879669,
          0.3967485725879669,
          0.3967485725879669,
          1.0
        ],
        "metallicFactor": 1.0,
        "roughnessFactor": 0.44699999690055847
      },
      "emissiveFactor": [
        0.0,
        0.0,
        0.0
      ],
      "alphaMode": "OPAQUE",
      "doubleSided": true,
      "name": "gltf_metal_connector"
    }
  ],
  "meshes": [
    {
      "primitives": [
        {
          "attributes": {
            "POSITION": 0,
            "NORMAL": 1,
            "TEXCOORD_0": 2,
            "TEXCOORD_1": 3
          },
          "indices": 4,
          "mode": 4,
          "material": 0
        },
        {
          "attributes": {
            "POSITION": 7,
            "NORMAL": 8,
            "TEXCOORD_0": 9,
            "TEXCOORD_1": 10
          },
          "indices": 5,
          "mode": 4,
          "material": 1
        },
        {
          "attributes": {
            "POSITION": 11,
            "NORMAL": 12,
            "TEXCOORD_0": 13,
            "TEXCOORD_1": 14
          },
          "indices": 6,
          "mode": 4,
          "material": 2
        }
      ],
      "name": "SHAPE_9_IndexedFaceSet.002"
    }
  ],
  "nodes": [
    {
      "extras": {
        "REF": "Y",
        "PRIO": 0,
        "model_diagonal": 4.173123472098658
      },
      "mesh": 0,
      "name": "SHAPE_9_IndexedFaceSet"
    }
  ],
  "scene": 0,
  "scenes": [
    {
      "name": "Scene",
      "nodes": [
        0
      ]
    }
  ]
}