{
  "accessors": [
    {
      "bufferView": 0,
      "byteOffset": 0,
      "componentType": 5126,
      "normalized": false,
      "count": 998,
      "type": "VEC3",
      "max": [
        1.5,
        0.19996307790279388,
        1.5
      ],
      "min": [
        -1.5,
        -3.0279159091151087e-07,
        -1.5
      ]
    },
    {
      "bufferView": 0,
      "byteOffset": 12,
      "componentType": 5126,
      "normalized": false,
      "count": 998,
      "type": "VEC3"
    },
    {
      "bufferView": 0,
      "byteOffset": 24,
      "componentType": 5126,
      "normalized": false,
      "count": 998,
      "type": "VEC2"
    },
    {
      "bufferView": 1,
      "byteOffset": 0,
      "componentType": 5123,
      "normalized": false,
      "count": 2292,
      "type": "SCALAR"
    },
    {
      "bufferView": 1,
      "byteOffset": 4584,
      "componentType": 5123,
      "normalized": false,
      "count": 2838,
      "type": "SCALAR"
    },
    {
      "bufferView": 1,
      "byteOffset": 10260,
      "componentType": 5123,
      "normalized": false,
      "count": 90,
      "type": "SCALAR"
    },
    {
      "bufferView": 2,
      "byteOffset": 0,
      "componentType": 5126,
      "normalized": false,
      "count": 1126,
      "type": "VEC3",
      "max": [
        1.5,
        1.0039294958114624,
        1.4999998807907104
      ],
      "min": [
        -1.5,
        0.0009997232118621469,
        -1.5000001192092896
      ]
    },
    {
      "bufferView": 2,
      "byteOffset": 12,
      "componentType": 5126,
      "normalized": false,
      "count": 1126,
      "type": "VEC3"
    },
    {
      "bufferView": 2,
      "byteOffset": 24,
      "componentType": 5126,
      "normalized": false,
      "count": 1126,
      "type": "VEC2"
    },
    {
      "bufferView": 3,
      "byteOffset": 0,
      "componentType": 5126,
      "normalized": false,
      "count": 32,
      "type": "VEC3",
      "max": [
        -0.6585780382156372,
        0.9303757548332214,
        -0.6585782766342163
      ],
      "min": [
        -1.0585784912109375,
        0.9303757548332214,
        -1.0585787296295166
      ]
    },
    {
      "bufferView": 3,
      "byteOffset": 12,
      "componentType": 5126,
      "normalized": false,
      "count": 32,
      "type": "VEC3"
    },
    {
      "bufferView": 3,
      "byteOffset": 24,
      "componentType": 5126,
      "normalized": false,
      "count": 32,
      "type": "VEC2"
    }
  ],
  "asset": {
    "generator": "pygltflib@v1.16.5",
    "version": "2.0"
  },
  "bufferViews": [
    {
      "buffer": 0,
      "byteOffset": 0,
      "byteLength": 31936,
      "byteStride": 32,
      "target": 34962
    },
    {
      "buffer": 0,
      "byteOffset": 31936,
      "byteLength": 10440,
      "target": 34963
    },
    {
      "buffer": 0,
      "byteOffset": 42376,
      "byteLength": 36032,
      "byteStride": 32,
      "target": 34962
    },
    {
      "buffer": 0,
      "byteOffset": 78408,
      "byteLength": 1024,
      "byteStride": 32,
      "target": 34962
    }
  ],
  "buffers": [
    {
      "uri": "VQFN-18_3x3x1mm_P0.5mm.bin",
      "byteLength": 79432
    }
  ],
  "extensionsUsed": [
    "KHR_materials_clearcoat",
    "KHR_materials_ior",
    "KHR_materials_sheen",
    "KHR_materials_specular",
    "KHR_materials_transmission",
    "KHR_texture_basisu"
  ],
  "extensionsRequired": [
    "KHR_texture_basisu"
  ],
  "images": [
    {
      "uri": "../shared_textures/metal_pins_normal.ktx2",
      "mimeType": "image/ktx2",
      "name": "metal_pins_normal"
    },
    {
      "uri": "../shared_textures/metal_pins_color.ktx2",
      "mimeType": "image/ktx2",
      "name": "metal_pins_color"
    },
    {
      "uri": "../shared_textures/plastic_chip_normal.ktx2",
      "mimeType": "image/ktx2",
      "name": "plastic_chip_normal"
    },
    {
      "uri": "../shared_textures/plastic_chip_color.ktx2",
      "mimeType": "image/ktx2",
      "name": "plastic_chip_color"
    },
    {
      "uri": "../shared_textures/white_markings_normal.ktx2",
      "mimeType": "image/ktx2",
      "name": "white_markings_normal"
    },
    {
      "uri": "../shared_textures/white_markings_color.ktx2",
      "mimeType": "image/ktx2",
      "name": "white_markings_color"
    }
  ],
  "materials": [
    {
      "extensions": {
        "KHR_materials_ior": {
          "ior": 1.4500000476837158
        },
        "KHR_materials_specular": {
          "specularFactor": 0
        }
      },
      "pbrMetallicRoughness": {
        "baseColorFactor": [
          1.0,
          1.0,
          1.0,
          1.0
        ],
        "metallicFactor": 0.7818182110786438,
        "roughnessFactor": 0.28863638639450073,
        "baseColorTexture": {
          "index": 0,
          "texCoord": 0
        }
      },
      "normalTexture": {
        "index": 1,
        "scale": 1.0
      },
      "emissiveFactor": [
        0.0,
        0.0,
        0.0
      ],
      "alphaMode": "OPAQUE",
      "doubleSided": true,
      "name": "gltf_metal_pins"
    },
    {
      "pbrMetallicRoughness": {
        "baseColorFactor": [
          1.0,
          1.0,
          1.0,
          1.0
        ],
        "metallicFactor": 0.13699999451637268,
        "roughnessFactor": 0.37063413858413696,
        "baseColorTexture": {
          "index": 2,
          "texCoord": 0
        }
      },
      "normalTexture": {
        "index": 3,
        "scale": 1.0
      },
      "emissiveFactor": [
        0.0,
        0.0,
        0.0
      ],
      "alphaMode": "OPAQUE",
      "doubleSided": true,
      "name": "gltf_plastic_chip"
    },
    {
      "extensions": {
        "KHR_materials_clearcoat": {
          "clearcoatFactor": 0,
          "clearcoatRoughnessFactor": 0.67090904712677
        },
        "KHR_materials_ior": {
          "ior": 1.4500000476837158
        },
        "KHR_materials_sheen": {
          "sheenColorFactor": [
            1,
            1,
            1
          ],
          "sheenRoughnessFactor": 0.5
        },
        "KHR_materials_specular": {
          "specularColorFactor": [
            1.3181817531585693,
            1.3181817531585693,
            1.3181817531585693
          ]
        },
        "KHR_materials_transmission": {
          "transmissionFactor": 0.23181819915771484
        }
      },
      "pbrMetallicRoughness": {
        "baseColorFactor": [
          1.0,
          1.0,
          1.0,
          1.0
        ],
        "metallicFactor": 0.019999999552965164,
        "roughnessFactor": 0.4636361598968506,
        "baseColorTexture": {
          "index": 4,
          "texCoord": 0
        }
      },
      "normalTexture": {
        "index": 5,
        "scale": 1.0
      },
      "emissiveFactor": [
        0.0,
        0.0,
        0.0
      ],
      "alphaMode": "OPAQUE",
      "doubleSided": true,
      "name": "gltf_white_markings"
    }
  ],
  "meshes": [
    {
      "primitives": [
        {
          "attributes": {
            "POSITION": 0,
            "NORMAL": 1,
            "TEXCOORD_0": 2
          },
          "indices": 3,
          "mode": 4,
          "material": 0
        },
        {
          "attributes": {
            "POSITION": 6,
            "NORMAL": 7,
            "TEXCOORD_0": 8
          },
          "indices": 4,
          "mode": 4,
          "material": 1
        },
        {
          "attributes": {
            "POSITION": 9,
            "NORMAL": 10,
            "TEXCOORD_0": 11
          },
          "indices": 5,
          "mode": 4,
          "material": 2
        }
      ],
      "name": "SHAPE_9_IndexedFaceSet"
    }
  ],
  "nodes": [
    {
      "extras": {
        "model_diagonal": 4.359818332980307
      },
      "mesh": 0,
      "name": "VQFN-18_3x3x1mm_P0.5mm"
    }
  ],
  "samplers": [
    {
      "magFilter": 9729,
      "minFilter": 9987,
      "wrapS": 10497,
      "wrapT": 10497
    }
  ],
  "scene": 0,
  "scenes": [
    {
      "extras": {
        "matlib": {
          "lib_index": 0,
          "filter": 0,
          "cat_index": -1,
          "all_materials": [
            {
              "name": "Metal"
            },
            {
              "name": "bga_balls"
            },
            {
              "name": "chip_enclosure"
            },
            {
              "name": "chip_enclosure_detailed"
            },
            {
              "name": "composite"
            },
            {
              "name": "enclosure_alu"
            },
            {
              "name": "enclosure_alu_polished"
            },
            {
              "name": "enclosure_gold"
            },
            {
              "name": "metal_pins_simple"
            },
            {
              "name": "pin1_marking_dark"
            },
            {
              "name": "pin_tht_gold"
            },
            {
              "name": "pin_tht_silver"
            },
            {
              "name": "plastic yellow"
            },
            {
              "name": "plastic_black"
            },
            {
              "name": "plastic_black_detailed"
            },
            {
              "name": "plastic_green_lightning"
            },
            {
              "name": "plastic_white"
            },
            {
              "name": "plastic_yellow_lightning"
            },
            {
              "name": "smd_cap_case"
            },
            {
              "name": "smd_cap_pins"
            },
            {
              "name": "smd_res_case"
            }
          ],
          "materials": [
            {
              "name": "Metal"
            },
            {
              "name": "bga_balls"
            },
            {
              "name": "chip_enclosure"
            },
            {
              "name": "chip_enclosure_detailed"
            },
            {
              "name": "composite"
            },
            {
              "name": "enclosure_alu"
            },
            {
              "name": "enclosure_alu_polished"
            },
            {
              "name": "enclosure_gold"
            },
            {
              "name": "metal_pins_simple"
            },
            {
              "name": "pin1_marking_dark"
            },
            {
              "name": "pin_tht_gold"
            },
            {
              "name": "pin_tht_silver"
            },
            {
              "name": "plastic yellow"
            },
            {
              "name": "plastic_black"
            },
            {
              "name": "plastic_black_detailed"
            },
            {
              "name": "plastic_green_lightning"
            },
            {
              "name": "plastic_white"
            },
            {
              "name": "plastic_yellow_lightning"
            },
            {
              "name": "smd_cap_case"
            },
            {
              "name": "smd_cap_pins"
            },
            {
              "name": "smd_res_case"
            }
          ],
          "mat_index": 8
        },
        "sketcher": {
          "version": [
            0,
            24,
            0
          ]
        },
        "vrm_addon_extension": {
          "vrm0_material_gltf_property_names": [
            {
              "name": "_Color",
              "value": "_Color"
            },
            {
              "name": "_MainTex_ST",
              "value": "_MainTex_ST"
            },
            {
              "name": "_MainTex_ST_S",
              "value": "_MainTex_ST_S"
            },
            {
              "name": "_MainTex_ST_T",
              "value": "_MainTex_ST_T"
            },
            {
              "name": "_MetallicGlossMap_ST",
              "value": "_MetallicGlossMap_ST"
            },
            {
              "name": "_MetallicGlossMap_ST_S",
              "value": "_MetallicGlossMap_ST_S"
            },
            {
              "name": "_MetallicGlossMap_ST_T",
              "value": "_MetallicGlossMap_ST_T"
            },
            {
              "name": "_BumpMap_ST",
              "value": "_BumpMap_ST"
            },
            {
              "name": "_BumpMap_ST_S",
              "value": "_BumpMap_ST_S"
            },
            {
              "name": "_BumpMap_ST_T",
              "value": "_BumpMap_ST_T"
            },
            {
              "name": "_ParallaxMap_ST",
              "value": "_ParallaxMap_ST"
            },
            {
              "name": "_ParallaxMap_ST_S",
              "value": "_ParallaxMap_ST_S"
            },
            {
              "name": "_ParallaxMap_ST_T",
              "value": "_ParallaxMap_ST_T"
            },
            {
              "name": "_OcclusionMap_ST",
              "value": "_OcclusionMap_ST"
            },
            {
              "name": "_OcclusionMap_ST_S",
              "value": "_OcclusionMap_ST_S"
            },
            {
              "name": "_OcclusionMap_ST_T",
              "value": "_OcclusionMap_ST_T"
            },
            {
              "name": "_EmissionColor",
              "value": "_EmissionColor"
            },
            {
              "name": "_EmissionMap_ST",
              "value": "_EmissionMap_ST"
            },
            {
              "name": "_EmissionMap_ST_S",
              "value": "_EmissionMap_ST_S"
            },
            {
              "name": "_EmissionMap_ST_T",
              "value": "_EmissionMap_ST_T"
            },
            {
              "name": "_DetailMask_ST",
              "value": "_DetailMask_ST"
            },
            {
              "name": "_DetailMask_ST_S",
              "value": "_DetailMask_ST_S"
            },
            {
              "name": "_DetailMask_ST_T",
              "value": "_DetailMask_ST_T"
            },
            {
              "name": "_DetailAlbedoMap_ST",
              "value": "_DetailAlbedoMap_ST"
            },
            {
              "name": "_DetailAlbedoMap_ST_S",
              "value": "_DetailAlbedoMap_ST_S"
            },
            {
              "name": "_DetailAlbedoMap_ST_T",
              "value": "_DetailAlbedoMap_ST_T"
            },
            {
              "name": "_DetailNormalMap_ST",
              "value": "_DetailNormalMap_ST"
            },
            {
              "name": "_DetailNormalMap_ST_S",
              "value": "_DetailNormalMap_ST_S"
            },
            {
              "name": "_DetailNormalMap_ST_T",
              "value": "_DetailNormalMap_ST_T"
            }
          ],
          "vrm0_material_mtoon0_property_names": [
            {
              "name": "_Color",
              "value": "_Color"
            },
            {
              "name": "_ShadeColor",
              "value": "_ShadeColor"
            },
            {
              "name": "_MainTex_ST",
              "value": "_MainTex_ST"
            },
            {
              "name": "_MainTex_ST_S",
              "value": "_MainTex_ST_S"
            },
            {
              "name": "_MainTex_ST_T",
              "value": "_MainTex_ST_T"
            },
            {
              "name": "_ShadeTexture_ST",
              "value": "_ShadeTexture_ST"
            },
            {
              "name": "_ShadeTexture_ST_S",
              "value": "_ShadeTexture_ST_S"
            },
            {
              "name": "_ShadeTexture_ST_T",
              "value": "_ShadeTexture_ST_T"
            },
            {
              "name": "_BumpMap_ST",
              "value": "_BumpMap_ST"
            },
            {
              "name": "_BumpMap_ST_S",
              "value": "_BumpMap_ST_S"
            },
            {
              "name": "_BumpMap_ST_T",
              "value": "_BumpMap_ST_T"
            },
            {
              "name": "_ReceiveShadowTexture_ST",
              "value": "_ReceiveShadowTexture_ST"
            },
            {
              "name": "_ReceiveShadowTexture_ST_S",
              "value": "_ReceiveShadowTexture_ST_S"
            },
            {
              "name": "_ReceiveShadowTexture_ST_T",
              "value": "_ReceiveShadowTexture_ST_T"
            },
            {
              "name": "_ShadingGradeTexture_ST",
              "value": "_ShadingGradeTexture_ST"
            },
            {
              "name": "_ShadingGradeTexture_ST_S",
              "value": "_ShadingGradeTexture_ST_S"
            },
            {
              "name": "_ShadingGradeTexture_ST_T",
              "value": "_ShadingGradeTexture_ST_T"
            },
            {
              "name": "_RimColor",
              "value": "_RimColor"
            },
            {
              "name": "_RimTexture_ST",
              "value": "_RimTexture_ST"
            },
            {
              "name": "_RimTexture_ST_S",
              "value": "_RimTexture_ST_S"
            },
            {
              "name": "_RimTexture_ST_T",
              "value": "_RimTexture_ST_T"
            },
            {
              "name": "_SphereAdd_ST",
              "value": "_SphereAdd_ST"
            },
            {
              "name": "_SphereAdd_ST_S",
              "value": "_SphereAdd_ST_S"
            },
            {
              "name": "_SphereAdd_ST_T",
              "value": "_SphereAdd_ST_T"
            },
            {
              "name": "_EmissionColor",
              "value": "_EmissionColor"
            },
            {
              "name": "_EmissionMap_ST",
              "value": "_EmissionMap_ST"
            },
            {
              "name": "_EmissionMap_ST_S",
              "value": "_EmissionMap_ST_S"
            },
            {
              "name": "_EmissionMap_ST_T",
              "value": "_EmissionMap_ST_T"
            },
            {
              "name": "_OutlineWidthTexture_ST",
              "value": "_OutlineWidthTexture_ST"
            },
            {
              "name": "_OutlineWidthTexture_ST_S",
              "value": "_OutlineWidthTexture_ST_S"
            },
            {
              "name": "_OutlineWidthTexture_ST_T",
              "value": "_OutlineWidthTexture_ST_T"
            },
            {
              "name": "_OutlineColor",
              "value": "_OutlineColor"
            },
            {
              "name": "_UvAnimMaskTexture_ST",
              "value": "_UvAnimMaskTexture_ST"
            },
            {
              "name": "_UvAnimMaskTexture_ST_S",
              "value": "_UvAnimMaskTexture_ST_S"
            },
            {
              "name": "_UvAnimMaskTexture_ST_T",
              "value": "_UvAnimMaskTexture_ST_T"
            }
          ],
          "mesh_object_names": [
            {
              "name": "SHAPE_9_IndexedFaceSet",
              "value": "SHAPE_9_IndexedFaceSet"
            }
          ]
        }
      },
      "name": "Scene",
      "nodes": [
        0
      ]
    }
  ],
  "textures": [
    {
      "extensions": {
        "KHR_texture_basisu": {
          "source": 1
        }
      },
      "sampler": 0
    },
    {
      "extensions": {
        "KHR_texture_basisu": {
          "source": 0
        }
      },
      "sampler": 0
    },
    {
      "extensions": {
        "KHR_texture_basisu": {
          "source": 3
        }
      },
      "sampler": 0
    },
    {
      "extensions": {
        "KHR_texture_basisu": {
          "source": 2
        }
      },
      "sampler": 0
    },
    {
      "extensions": {
        "KHR_texture_basisu": {
          "source": 5
        }
      },
      "sampler": 0
    },
    {
      "extensions": {
        "KHR_texture_basisu": {
          "source": 4
        }
      },
      "sampler": 0
    }
  ]
}