<?xml version="1.0" standalone="no"?>
 <!DOCTYPE svg PUBLIC "-//W3C//DTD SVG 1.1//EN" 
 "http://www.w3.org/Graphics/SVG/1.1/DTD/svg11.dtd"> 
<svg
  xmlns:svg="http://www.w3.org/2000/svg"
  xmlns="http://www.w3.org/2000/svg"
  xmlns:xlink="http://www.w3.org/1999/xlink"
  version="1.1"
  width="6.4262mm" height="6.4262mm" viewBox="0.0000 0.0000 6.4262 6.4262">
<title>SVG Image created as outline.svg date 2025/06/16 09:17:37 </title>
  <desc>Image generated by PCBNEW </desc>
<g style="fill:#000000; fill-opacity:1.0000;stroke:#000000; stroke-opacity:1.0000;
stroke-linecap:round; stroke-linejoin:round;"
 transform="translate(0 0) scale(1 1)">
</g>
<g style="fill:none; 
stroke:#000000; stroke-width:0.1000; stroke-opacity:1; 
stroke-linecap:round; stroke-linejoin:round;">
<path d="M0.7250 0.7250
L0.7250 5.7250
" />
<path d="M0.7250 5.7250
L5.7250 5.7250
" />
<path d="M1.1250 1.3250
L1.1288 1.3640
" />
<path d="M1.1250 1.3250
L1.1288 1.3640
" />
<path d="M1.1288 1.2860
L1.1250 1.3250
" />
<path d="M1.1288 1.2860
L1.1250 1.3250
" />
<path d="M1.1288 1.3640
L1.1402 1.4015
" />
<path d="M1.1288 1.3640
L1.1402 1.4015
" />
<path d="M1.1402 1.2485
L1.1288 1.2860
" />
<path d="M1.1402 1.2485
L1.1288 1.2860
" />
<path d="M1.1402 1.4015
L1.1587 1.4361
" />
<path d="M1.1402 1.4015
L1.1587 1.4361
" />
<path d="M1.1587 1.2139
L1.1402 1.2485
" />
<path d="M1.1587 1.2139
L1.1402 1.2485
" />
<path d="M1.1587 1.4361
L1.1836 1.4664
" />
<path d="M1.1587 1.4361
L1.1836 1.4664
" />
<path d="M1.1836 1.1836
L1.1587 1.2139
" />
<path d="M1.1836 1.1836
L1.1587 1.2139
" />
<path d="M1.1836 1.4664
L1.2139 1.4913
" />
<path d="M1.1836 1.4664
L1.2139 1.4913
" />
<path d="M1.2139 1.1587
L1.1836 1.1836
" />
<path d="M1.2139 1.1587
L1.1836 1.1836
" />
<path d="M1.2139 1.4913
L1.2485 1.5098
" />
<path d="M1.2139 1.4913
L1.2485 1.5098
" />
<path d="M1.2485 1.1402
L1.2139 1.1587
" />
<path d="M1.2485 1.1402
L1.2139 1.1587
" />
<path d="M1.2485 1.5098
L1.2860 1.5212
" />
<path d="M1.2485 1.5098
L1.2860 1.5212
" />
<path d="M1.2860 1.1288
L1.2485 1.1402
" />
<path d="M1.2860 1.1288
L1.2485 1.1402
" />
<path d="M1.2860 1.5212
L1.3250 1.5250
" />
<path d="M1.2860 1.5212
L1.3250 1.5250
" />
<path d="M1.3250 1.1250
L1.2860 1.1288
" />
<path d="M1.3250 1.1250
L1.2860 1.1288
" />
<path d="M1.3250 1.5250
L1.3640 1.5212
" />
<path d="M1.3250 1.5250
L1.3640 1.5212
" />
<path d="M1.3640 1.1288
L1.3250 1.1250
" />
<path d="M1.3640 1.1288
L1.3250 1.1250
" />
<path d="M1.3640 1.5212
L1.4015 1.5098
" />
<path d="M1.3640 1.5212
L1.4015 1.5098
" />
<path d="M1.4015 1.1402
L1.3640 1.1288
" />
<path d="M1.4015 1.1402
L1.3640 1.1288
" />
<path d="M1.4015 1.5098
L1.4361 1.4913
" />
<path d="M1.4015 1.5098
L1.4361 1.4913
" />
<path d="M1.4361 1.1587
L1.4015 1.1402
" />
<path d="M1.4361 1.1587
L1.4015 1.1402
" />
<path d="M1.4361 1.4913
L1.4664 1.4664
" />
<path d="M1.4361 1.4913
L1.4664 1.4664
" />
<path d="M1.4664 1.1836
L1.4361 1.1587
" />
<path d="M1.4664 1.1836
L1.4361 1.1587
" />
<path d="M1.4664 1.4664
L1.4913 1.4361
" />
<path d="M1.4664 1.4664
L1.4913 1.4361
" />
<path d="M1.4913 1.2139
L1.4664 1.1836
" />
<path d="M1.4913 1.2139
L1.4664 1.1836
" />
<path d="M1.4913 1.4361
L1.5098 1.4015
" />
<path d="M1.4913 1.4361
L1.5098 1.4015
" />
<path d="M1.5098 1.2485
L1.4913 1.2139
" />
<path d="M1.5098 1.2485
L1.4913 1.2139
" />
<path d="M1.5098 1.4015
L1.5212 1.3640
" />
<path d="M1.5098 1.4015
L1.5212 1.3640
" />
<path d="M1.5212 1.2860
L1.5098 1.2485
" />
<path d="M1.5212 1.2860
L1.5098 1.2485
" />
<path d="M1.5212 1.3640
L1.5250 1.3250
" />
<path d="M1.5212 1.3640
L1.5250 1.3250
" />
<path d="M1.5250 1.3250
L1.5212 1.2860
" />
<path d="M1.5250 1.3250
L1.5212 1.2860
" />
<path d="M5.7250 0.7250
L0.7250 0.7250
" />
<path d="M5.7250 5.7250
L5.7250 0.7250
" />
</g> 
</svg>
