<?xml version="1.0" standalone="no"?>
 <!DOCTYPE svg PUBLIC "-//W3C//DTD SVG 1.1//EN" 
 "http://www.w3.org/Graphics/SVG/1.1/DTD/svg11.dtd"> 
<svg
  xmlns:svg="http://www.w3.org/2000/svg"
  xmlns="http://www.w3.org/2000/svg"
  xmlns:xlink="http://www.w3.org/1999/xlink"
  version="1.1"
  width="4.5212mm" height="3.3274mm" viewBox="0.0000 0.0000 4.5212 3.3274">
<title>SVG Image created as outline.svg date 2025/06/16 09:18:05 </title>
  <desc>Image generated by PCBNEW </desc>
<g style="fill:#000000; fill-opacity:1.0000;stroke:#000000; stroke-opacity:1.0000;
stroke-linecap:round; stroke-linejoin:round;"
 transform="translate(0 0) scale(1 1)">
</g>
<g style="fill:none; 
stroke:#000000; stroke-width:0.0200; stroke-opacity:1; 
stroke-linecap:round; stroke-linejoin:round;">
<path d="M0.5250 0.4750
L0.6250 0.4750
" />
<path d="M0.5250 1.1750
L0.5250 0.4750
" />
<path d="M0.5250 2.1750
L0.6250 2.1750
" />
<path d="M0.5250 2.8750
L0.5250 2.1750
" />
<path d="M0.6250 1.1750
L0.5250 1.1750
" />
<path d="M0.6250 1.1750
L0.6750 1.1750
" />
<path d="M0.6250 2.8750
L0.5250 2.8750
" />
<path d="M0.6250 2.8750
L0.6750 2.8750
" />
<path d="M0.6750 0.2750
L0.6750 0.4750
" />
<path d="M0.6750 0.4750
L0.6250 0.4750
" />
<path d="M0.6750 1.1750
L0.6750 2.1750
" />
<path d="M0.6750 2.1750
L0.6250 2.1750
" />
<path d="M0.6750 2.8750
L0.6750 3.0750
" />
<path d="M0.6750 3.0750
L3.8750 3.0750
" />
<path d="M0.6770 0.2760
L0.6770 3.0730
" />
<path d="M0.6770 3.0730
L3.8740 3.0730
" />
<path d="M0.7020 0.3010
L0.6770 0.2760
" />
<path d="M0.7020 0.3010
L1.3530 0.3010
" />
<path d="M0.7020 0.9520
L0.7020 0.3010
" />
<path d="M0.7750 0.8780
L0.7020 0.9520
" />
<path d="M0.7750 0.8780
L0.7750 2.9750
" />
<path d="M0.7750 0.8780
L1.2790 0.3750
" />
<path d="M0.7750 2.9750
L0.6770 3.0730
" />
<path d="M0.7750 2.9750
L3.7750 2.9750
" />
<path d="M1.0650 1.6750
L1.0680 1.7550
" />
<path d="M1.0660 1.6340
L1.0650 1.6750
" />
<path d="M1.0680 1.5940
L1.0660 1.6340
" />
<path d="M1.0680 1.7550
L1.0760 1.8350
" />
<path d="M1.0710 1.5540
L1.0680 1.5940
" />
<path d="M1.0750 1.6750
L1.0780 1.7550
" />
<path d="M1.0760 1.5140
L1.0710 1.5540
" />
<path d="M1.0760 1.6350
L1.0750 1.6750
" />
<path d="M1.0760 1.8350
L1.0890 1.9130
" />
<path d="M1.0780 1.5950
L1.0760 1.6350
" />
<path d="M1.0780 1.7550
L1.0860 1.8340
" />
<path d="M1.0810 1.4750
L1.0760 1.5140
" />
<path d="M1.0810 1.5550
L1.0780 1.5950
" />
<path d="M1.0860 1.5160
L1.0810 1.5550
" />
<path d="M1.0860 1.8340
L1.0990 1.9110
" />
<path d="M1.0890 1.4360
L1.0810 1.4750
" />
<path d="M1.0890 1.9130
L1.1070 1.9900
" />
<path d="M1.0920 1.4770
L1.0860 1.5160
" />
<path d="M1.0970 1.3970
L1.0890 1.4360
" />
<path d="M1.0990 1.4380
L1.0920 1.4770
" />
<path d="M1.0990 1.9110
L1.1170 1.9880
" />
<path d="M1.1070 1.3590
L1.0970 1.3970
" />
<path d="M1.1070 1.3990
L1.0990 1.4380
" />
<path d="M1.1070 1.9900
L1.1300 2.0660
" />
<path d="M1.1170 1.3610
L1.1070 1.3990
" />
<path d="M1.1170 1.9880
L1.1400 2.0620
" />
<path d="M1.1180 1.3210
L1.1070 1.3590
" />
<path d="M1.1280 1.3240
L1.1170 1.3610
" />
<path d="M1.1300 1.2830
L1.1180 1.3210
" />
<path d="M1.1300 2.0660
L1.1580 2.1390
" />
<path d="M1.1400 1.2870
L1.1280 1.3240
" />
<path d="M1.1400 2.0620
L1.1670 2.1350
" />
<path d="M1.1430 1.2460
L1.1300 1.2830
" />
<path d="M1.1530 1.2500
L1.1400 1.2870
" />
<path d="M1.1580 1.2100
L1.1430 1.2460
" />
<path d="M1.1580 2.1390
L1.1900 2.2110
" />
<path d="M1.1670 1.2140
L1.1530 1.2500
" />
<path d="M1.1670 2.1350
L1.1990 2.2060
" />
<path d="M1.1730 1.1740
L1.1580 1.2100
" />
<path d="M1.1830 1.1780
L1.1670 1.2140
" />
<path d="M1.1900 1.1380
L1.1730 1.1740
" />
<path d="M1.1900 2.2110
L1.2270 2.2800
" />
<path d="M1.1990 1.1430
L1.1830 1.1780
" />
<path d="M1.1990 2.2060
L1.2360 2.2750
" />
<path d="M1.2080 1.1040
L1.1900 1.1380
" />
<path d="M1.2170 1.1090
L1.1990 1.1430
" />
<path d="M1.2270 1.0690
L1.2080 1.1040
" />
<path d="M1.2270 2.2800
L1.2680 2.3460
" />
<path d="M1.2360 1.0750
L1.2170 1.1090
" />
<path d="M1.2360 2.2750
L1.2770 2.3410
" />
<path d="M1.2470 1.0360
L1.2270 1.0690
" />
<path d="M1.2560 1.0410
L1.2360 1.0750
" />
<path d="M1.2680 1.0030
L1.2470 1.0360
" />
<path d="M1.2680 2.3460
L1.3140 2.4100
" />
<path d="M1.2770 1.0090
L1.2560 1.0410
" />
<path d="M1.2770 2.3410
L1.3220 2.4040
" />
<path d="M1.2910 0.9710
L1.2680 1.0030
" />
<path d="M1.2990 0.9770
L1.2770 1.0090
" />
<path d="M1.3140 0.9390
L1.2910 0.9710
" />
<path d="M1.3140 2.4100
L1.3640 2.4710
" />
<path d="M1.3220 0.9450
L1.2990 0.9770
" />
<path d="M1.3220 2.4040
L1.3720 2.4640
" />
<path d="M1.3380 0.9080
L1.3140 0.9390
" />
<path d="M1.3460 0.9150
L1.3220 0.9450
" />
<path d="M1.3530 0.3010
L1.2790 0.3750
" />
<path d="M1.3640 0.8780
L1.3380 0.9080
" />
<path d="M1.3640 2.4710
L1.4180 2.5290
" />
<path d="M1.3720 0.8850
L1.3460 0.9150
" />
<path d="M1.3720 2.4640
L1.4250 2.5210
" />
<path d="M1.3900 0.8490
L1.3640 0.8780
" />
<path d="M1.3980 0.8560
L1.3720 0.8850
" />
<path d="M1.4180 0.8200
L1.3900 0.8490
" />
<path d="M1.4180 2.5290
L1.4750 2.5830
" />
<path d="M1.4250 0.8280
L1.3980 0.8560
" />
<path d="M1.4250 2.5210
L1.4820 2.5750
" />
<path d="M1.4460 0.7930
L1.4180 0.8200
" />
<path d="M1.4530 0.8010
L1.4250 0.8280
" />
<path d="M1.4750 0.7660
L1.4460 0.7930
" />
<path d="M1.4750 2.5830
L1.5370 2.6340
" />
<path d="M1.4820 0.7740
L1.4530 0.8010
" />
<path d="M1.4820 2.5750
L1.5430 2.6250
" />
<path d="M1.5050 0.7410
L1.4750 0.7660
" />
<path d="M1.5120 0.7490
L1.4820 0.7740
" />
<path d="M1.5370 0.7160
L1.5050 0.7410
" />
<path d="M1.5370 2.6340
L1.6020 2.6800
" />
<path d="M1.5430 0.7240
L1.5120 0.7490
" />
<path d="M1.5430 2.6250
L1.6070 2.6720
" />
<path d="M1.5690 0.6920
L1.5370 0.7160
" />
<path d="M1.5750 0.7000
L1.5430 0.7240
" />
<path d="M1.6020 0.6690
L1.5690 0.6920
" />
<path d="M1.6020 2.6800
L1.6700 2.7230
" />
<path d="M1.6070 0.6780
L1.5750 0.7000
" />
<path d="M1.6070 2.6720
L1.6750 2.7140
" />
<path d="M1.6350 0.6470
L1.6020 0.6690
" />
<path d="M1.6410 0.6560
L1.6070 0.6780
" />
<path d="M1.6700 0.6260
L1.6350 0.6470
" />
<path d="M1.6700 2.7230
L1.7410 2.7610
" />
<path d="M1.6750 0.6350
L1.6410 0.6560
" />
<path d="M1.6750 2.7140
L1.7460 2.7520
" />
<path d="M1.7410 0.5880
L1.6700 0.6260
" />
<path d="M1.7410 2.7610
L1.8140 2.7940
" />
<path d="M1.7460 0.5980
L1.6750 0.6350
" />
<path d="M1.7460 2.7520
L1.8180 2.7840
" />
<path d="M1.8140 0.5550
L1.7410 0.5880
" />
<path d="M1.8140 2.7940
L1.8890 2.8220
" />
<path d="M1.8180 0.5650
L1.7460 0.5980
" />
<path d="M1.8180 2.7840
L1.8920 2.8120
" />
<path d="M1.8890 0.5270
L1.8140 0.5550
" />
<path d="M1.8890 2.8220
L1.9650 2.8450
" />
<path d="M1.8920 0.5370
L1.8180 0.5650
" />
<path d="M1.8920 2.8120
L1.9670 2.8340
" />
<path d="M1.9650 0.5050
L1.8890 0.5270
" />
<path d="M1.9650 2.8450
L2.0410 2.8620
" />
<path d="M1.9670 0.5150
L1.8920 0.5370
" />
<path d="M1.9670 2.8340
L2.0430 2.8520
" />
<path d="M2.0410 0.4870
L1.9650 0.5050
" />
<path d="M2.0410 2.8620
L2.1190 2.8750
" />
<path d="M2.0430 0.4970
L1.9670 0.5150
" />
<path d="M2.0430 2.8520
L2.1200 2.8650
" />
<path d="M2.1190 0.4740
L2.0410 0.4870
" />
<path d="M2.1190 2.8750
L2.1970 2.8830
" />
<path d="M2.1200 0.4850
L2.0430 0.4970
" />
<path d="M2.1200 2.8650
L2.1980 2.8720
" />
<path d="M2.1970 0.4670
L2.1190 0.4740
" />
<path d="M2.1970 2.8830
L2.2750 2.8850
" />
<path d="M2.1980 0.4770
L2.1200 0.4850
" />
<path d="M2.1980 2.8720
L2.2750 2.8750
" />
<path d="M2.2750 0.4640
L2.1970 0.4670
" />
<path d="M2.2750 0.4750
L2.1980 0.4770
" />
<path d="M2.2750 2.8750
L2.3530 2.8720
" />
<path d="M2.2750 2.8850
L2.3540 2.8830
" />
<path d="M2.3530 0.4770
L2.2750 0.4750
" />
<path d="M2.3530 2.8720
L2.4300 2.8650
" />
<path d="M2.3540 0.4670
L2.2750 0.4640
" />
<path d="M2.3540 2.8830
L2.4320 2.8750
" />
<path d="M2.4300 0.4850
L2.3530 0.4770
" />
<path d="M2.4300 2.8650
L2.5070 2.8520
" />
<path d="M2.4320 0.4740
L2.3540 0.4670
" />
<path d="M2.4320 2.8750
L2.5090 2.8620
" />
<path d="M2.5070 0.4970
L2.4300 0.4850
" />
<path d="M2.5070 2.8520
L2.5830 2.8340
" />
<path d="M2.5090 0.4870
L2.4320 0.4740
" />
<path d="M2.5090 2.8620
L2.5860 2.8450
" />
<path d="M2.5830 0.5150
L2.5070 0.4970
" />
<path d="M2.5830 2.8340
L2.6590 2.8120
" />
<path d="M2.5860 0.5050
L2.5090 0.4870
" />
<path d="M2.5860 2.8450
L2.6620 2.8220
" />
<path d="M2.6590 0.5370
L2.5830 0.5150
" />
<path d="M2.6590 2.8120
L2.7320 2.7840
" />
<path d="M2.6620 0.5270
L2.5860 0.5050
" />
<path d="M2.6620 2.8220
L2.7360 2.7940
" />
<path d="M2.7320 0.5650
L2.6590 0.5370
" />
<path d="M2.7320 2.7840
L2.8050 2.7520
" />
<path d="M2.7360 0.5550
L2.6620 0.5270
" />
<path d="M2.7360 2.7940
L2.8090 2.7610
" />
<path d="M2.8050 0.5980
L2.7320 0.5650
" />
<path d="M2.8050 2.7520
L2.8750 2.7140
" />
<path d="M2.8090 0.5880
L2.7360 0.5550
" />
<path d="M2.8090 2.7610
L2.8810 2.7230
" />
<path d="M2.8750 0.6350
L2.8050 0.5980
" />
<path d="M2.8750 2.7140
L2.9100 2.6930
" />
<path d="M2.8810 0.6260
L2.8090 0.5880
" />
<path d="M2.8810 2.7230
L2.9150 2.7020
" />
<path d="M2.9100 2.6930
L2.9430 2.6720
" />
<path d="M2.9150 2.7020
L2.9490 2.6800
" />
<path d="M2.9430 0.6780
L2.8750 0.6350
" />
<path d="M2.9430 2.6720
L2.9760 2.6490
" />
<path d="M2.9490 0.6690
L2.8810 0.6260
" />
<path d="M2.9490 2.6800
L2.9820 2.6570
" />
<path d="M2.9760 2.6490
L3.0080 2.6250
" />
<path d="M2.9820 2.6570
L3.0140 2.6340
" />
<path d="M3.0080 0.7240
L2.9430 0.6780
" />
<path d="M3.0080 2.6250
L3.0390 2.6010
" />
<path d="M3.0140 0.7160
L2.9490 0.6690
" />
<path d="M3.0140 2.6340
L3.0450 2.6090
" />
<path d="M3.0390 2.6010
L3.0690 2.5750
" />
<path d="M3.0450 2.6090
L3.0760 2.5830
" />
<path d="M3.0690 0.7740
L3.0080 0.7240
" />
<path d="M3.0690 2.5750
L3.0980 2.5490
" />
<path d="M3.0760 0.7660
L3.0140 0.7160
" />
<path d="M3.0760 2.5830
L3.1050 2.5560
" />
<path d="M3.0980 2.5490
L3.1260 2.5210
" />
<path d="M3.1050 2.5560
L3.1330 2.5290
" />
<path d="M3.1260 0.8280
L3.0690 0.7740
" />
<path d="M3.1260 2.5210
L3.1530 2.4930
" />
<path d="M3.1330 0.8200
L3.0760 0.7660
" />
<path d="M3.1330 2.5290
L3.1610 2.5000
" />
<path d="M3.1530 2.4930
L3.1790 2.4640
" />
<path d="M3.1610 2.5000
L3.1870 2.4710
" />
<path d="M3.1790 0.8850
L3.1260 0.8280
" />
<path d="M3.1790 2.4640
L3.2040 2.4340
" />
<path d="M3.1870 0.8780
L3.1330 0.8200
" />
<path d="M3.1870 2.4710
L3.2120 2.4410
" />
<path d="M3.2040 2.4340
L3.2280 2.4040
" />
<path d="M3.2120 2.4410
L3.2370 2.4100
" />
<path d="M3.2280 0.9450
L3.1790 0.8850
" />
<path d="M3.2280 2.4040
L3.2510 2.3730
" />
<path d="M3.2370 0.9390
L3.1870 0.8780
" />
<path d="M3.2370 2.4100
L3.2600 2.3790
" />
<path d="M3.2510 2.3730
L3.2740 2.3410
" />
<path d="M3.2600 2.3790
L3.2820 2.3460
" />
<path d="M3.2740 1.0090
L3.2280 0.9450
" />
<path d="M3.2740 2.3410
L3.2950 2.3080
" />
<path d="M3.2820 1.0030
L3.2370 0.9390
" />
<path d="M3.2820 2.3460
L3.3040 2.3130
" />
<path d="M3.2950 2.3080
L3.3150 2.2750
" />
<path d="M3.3040 2.3130
L3.3240 2.2800
" />
<path d="M3.3150 1.0750
L3.2740 1.0090
" />
<path d="M3.3150 2.2750
L3.3330 2.2410
" />
<path d="M3.3240 1.0690
L3.2820 1.0030
" />
<path d="M3.3240 2.2800
L3.3430 2.2460
" />
<path d="M3.3330 2.2410
L3.3510 2.2060
" />
<path d="M3.3430 2.2460
L3.3610 2.2110
" />
<path d="M3.3510 1.1430
L3.3150 1.0750
" />
<path d="M3.3510 2.2060
L3.3680 2.1710
" />
<path d="M3.3610 1.1380
L3.3240 1.0690
" />
<path d="M3.3610 2.2110
L3.3770 2.1750
" />
<path d="M3.3680 2.1710
L3.3830 2.1350
" />
<path d="M3.3770 2.1750
L3.3930 2.1390
" />
<path d="M3.3830 1.2140
L3.3510 1.1430
" />
<path d="M3.3830 2.1350
L3.3980 2.0990
" />
<path d="M3.3930 1.2100
L3.3610 1.1380
" />
<path d="M3.3930 2.1390
L3.4080 2.1030
" />
<path d="M3.3980 2.0990
L3.4110 2.0620
" />
<path d="M3.4080 2.1030
L3.4210 2.0660
" />
<path d="M3.4110 1.2870
L3.3830 1.2140
" />
<path d="M3.4110 2.0620
L3.4230 2.0250
" />
<path d="M3.4210 1.2830
L3.3930 1.2100
" />
<path d="M3.4210 2.0660
L3.4330 2.0280
" />
<path d="M3.4230 2.0250
L3.4340 1.9880
" />
<path d="M3.4330 2.0280
L3.4440 1.9900
" />
<path d="M3.4340 1.3610
L3.4110 1.2870
" />
<path d="M3.4340 1.9880
L3.4430 1.9500
" />
<path d="M3.4430 1.9500
L3.4520 1.9110
" />
<path d="M3.4440 1.3590
L3.4210 1.2830
" />
<path d="M3.4440 1.9900
L3.4540 1.9520
" />
<path d="M3.4520 1.4380
L3.4340 1.3610
" />
<path d="M3.4520 1.9110
L3.4590 1.8730
" />
<path d="M3.4540 1.9520
L3.4620 1.9130
" />
<path d="M3.4590 1.8730
L3.4650 1.8340
" />
<path d="M3.4620 1.4360
L3.4440 1.3590
" />
<path d="M3.4620 1.9130
L3.4690 1.8740
" />
<path d="M3.4650 1.5160
L3.4520 1.4380
" />
<path d="M3.4650 1.8340
L3.4690 1.7940
" />
<path d="M3.4690 1.7940
L3.4730 1.7550
" />
<path d="M3.4690 1.8740
L3.4750 1.8350
" />
<path d="M3.4730 1.5950
L3.4650 1.5160
" />
<path d="M3.4730 1.7550
L3.4750 1.7150
" />
<path d="M3.4750 1.5140
L3.4620 1.4360
" />
<path d="M3.4750 1.6750
L3.4730 1.5950
" />
<path d="M3.4750 1.7150
L3.4750 1.6750
" />
<path d="M3.4750 1.8350
L3.4800 1.7950
" />
<path d="M3.4800 1.7950
L3.4830 1.7550
" />
<path d="M3.4830 1.5940
L3.4750 1.5140
" />
<path d="M3.4830 1.7550
L3.4850 1.7150
" />
<path d="M3.4850 1.7150
L3.4860 1.6750
" />
<path d="M3.4860 1.6750
L3.4830 1.5940
" />
<path d="M3.7750 0.3750
L1.2790 0.3750
" />
<path d="M3.7750 0.3750
L3.8740 0.2760
" />
<path d="M3.7750 2.9750
L3.7750 0.3750
" />
<path d="M3.7750 2.9750
L3.8740 3.0730
" />
<path d="M3.8740 0.2760
L0.6770 0.2760
" />
<path d="M3.8740 3.0730
L3.8740 0.2760
" />
<path d="M3.8750 0.2750
L0.6750 0.2750
" />
<path d="M3.8750 0.4750
L3.8750 0.2750
" />
<path d="M3.8750 1.1750
L3.9250 1.1750
" />
<path d="M3.8750 2.1750
L3.8750 1.1750
" />
<path d="M3.8750 2.8750
L3.9250 2.8750
" />
<path d="M3.8750 3.0750
L3.8750 2.8750
" />
<path d="M3.9250 0.4750
L3.8750 0.4750
" />
<path d="M3.9250 0.4750
L4.0250 0.4750
" />
<path d="M3.9250 2.1750
L3.8750 2.1750
" />
<path d="M3.9250 2.1750
L4.0250 2.1750
" />
<path d="M4.0250 0.4750
L4.0250 1.1750
" />
<path d="M4.0250 1.1750
L3.9250 1.1750
" />
<path d="M4.0250 2.1750
L4.0250 2.8750
" />
<path d="M4.0250 2.8750
L3.9250 2.8750
" />
<path d="M4.0250 2.8750
L4.0250 2.1750
" />
</g> 
</svg>
