<?xml version="1.0" standalone="no"?>
 <!DOCTYPE svg PUBLIC "-//W3C//DTD SVG 1.1//EN" 
 "http://www.w3.org/Graphics/SVG/1.1/DTD/svg11.dtd"> 
<svg
  xmlns:svg="http://www.w3.org/2000/svg"
  xmlns="http://www.w3.org/2000/svg"
  xmlns:xlink="http://www.w3.org/1999/xlink"
  version="1.1"
  width="20.3962mm" height="14.7320mm" viewBox="0.0000 0.0000 20.3962 14.7320">
<title>SVG Image created as outline.svg date 2025/01/16 17:44:31 </title>
  <desc>Image generated by PCBNEW </desc>
<g style="fill:#000000; fill-opacity:0.0000;stroke:#000000; stroke-opacity:1.0000;
stroke-linecap:round; stroke-linejoin:round;"
 transform="translate(0 0) scale(1 1)">
</g>
<g style="fill:none; 
stroke:#000000; stroke-width:0.1000; stroke-opacity:1; 
stroke-linecap:round; stroke-linejoin:round;">
<path d="M1.0831 1.0985
L1.0831 13.5985
" />
<path d="M1.0831 1.0985
L1.3766 1.0985
" />
<path d="M1.0831 13.5985
L1.3766 13.5985
" />
<path d="M1.3766 1.0985
L1.3805 1.1775
" />
<path d="M1.3805 1.1775
L1.3921 1.2558
" />
<path d="M1.3805 13.5194
L1.3766 13.5985
" />
<path d="M1.3921 1.2558
L1.4114 1.3326
" />
<path d="M1.3921 13.4411
L1.3805 13.5194
" />
<path d="M1.4114 1.3326
L1.4380 1.4071
" />
<path d="M1.4114 13.3644
L1.3921 13.4411
" />
<path d="M1.4380 1.4071
L1.4719 1.4786
" />
<path d="M1.4380 13.2898
L1.4114 13.3644
" />
<path d="M1.4719 1.4786
L1.5125 1.5465
" />
<path d="M1.4719 13.2183
L1.4380 13.2898
" />
<path d="M1.5125 1.5465
L1.5597 1.6101
" />
<path d="M1.5125 13.1504
L1.4719 13.2183
" />
<path d="M1.5597 1.6101
L1.6128 1.6687
" />
<path d="M1.5597 13.0868
L1.5125 13.1504
" />
<path d="M1.6128 1.6687
L1.6715 1.7218
" />
<path d="M1.6128 13.0282
L1.5597 13.0868
" />
<path d="M1.6715 1.7218
L1.7350 1.7690
" />
<path d="M1.6715 12.9751
L1.6128 13.0282
" />
<path d="M1.7350 1.7690
L1.8029 1.8097
" />
<path d="M1.7350 12.9279
L1.6715 12.9751
" />
<path d="M1.8029 1.8097
L1.8745 1.8435
" />
<path d="M1.8029 12.8872
L1.7350 12.9279
" />
<path d="M1.8231 3.9485
L1.8231 10.7485
" />
<path d="M1.8231 10.7485
L4.1231 13.0485
" />
<path d="M1.8745 1.8435
L1.9490 1.8702
" />
<path d="M1.8745 12.8534
L1.8029 12.8872
" />
<path d="M1.9490 1.8702
L2.0258 1.8894
" />
<path d="M1.9490 12.8267
L1.8745 12.8534
" />
<path d="M2.0258 1.8894
L2.1040 1.9010
" />
<path d="M2.0258 12.8075
L1.9490 12.8267
" />
<path d="M2.1040 1.9010
L2.1831 1.9049
" />
<path d="M2.1040 12.7959
L2.0258 12.8075
" />
<path d="M2.1831 1.9049
L2.2621 1.9010
" />
<path d="M2.1831 12.7920
L2.1040 12.7959
" />
<path d="M2.2621 1.9010
L2.3404 1.8894
" />
<path d="M2.2621 12.7959
L2.1831 12.7920
" />
<path d="M2.3404 1.8894
L2.4172 1.8702
" />
<path d="M2.3404 12.8075
L2.2621 12.7959
" />
<path d="M2.4172 1.8702
L2.4917 1.8435
" />
<path d="M2.4172 12.8267
L2.3404 12.8075
" />
<path d="M2.4917 1.8435
L2.5632 1.8097
" />
<path d="M2.4917 12.8534
L2.4172 12.8267
" />
<path d="M2.5632 1.8097
L2.6311 1.7690
" />
<path d="M2.5632 12.8872
L2.4917 12.8534
" />
<path d="M2.6311 1.7690
L2.6947 1.7218
" />
<path d="M2.6311 12.9279
L2.5632 12.8872
" />
<path d="M2.6947 1.7218
L2.7533 1.6687
" />
<path d="M2.6947 12.9751
L2.6311 12.9279
" />
<path d="M2.7533 1.6687
L2.8065 1.6101
" />
<path d="M2.7533 13.0282
L2.6947 12.9751
" />
<path d="M2.8065 1.6101
L2.8536 1.5465
" />
<path d="M2.8065 13.0868
L2.7533 13.0282
" />
<path d="M2.8536 1.5465
L2.8943 1.4786
" />
<path d="M2.8536 13.1504
L2.8065 13.0868
" />
<path d="M2.8943 1.4786
L2.9281 1.4071
" />
<path d="M2.8943 13.2183
L2.8536 13.1504
" />
<path d="M2.9281 1.4071
L2.9548 1.3326
" />
<path d="M2.9281 13.2898
L2.8943 13.2183
" />
<path d="M2.9548 1.3326
L2.9740 1.2558
" />
<path d="M2.9548 13.3644
L2.9281 13.2898
" />
<path d="M2.9740 1.2558
L2.9857 1.1775
" />
<path d="M2.9740 13.4411
L2.9548 13.3644
" />
<path d="M2.9857 1.1775
L2.9895 1.0985
" />
<path d="M2.9857 13.5194
L2.9740 13.4411
" />
<path d="M2.9895 1.0985
L20.0831 1.0985
" />
<path d="M2.9895 13.5985
L2.9857 13.5194
" />
<path d="M2.9895 13.5985
L20.0831 13.5985
" />
<path d="M3.2381 4.8485
L3.2420 4.9164
" />
<path d="M3.2381 7.3485
L3.2420 7.4164
" />
<path d="M3.2381 9.8485
L3.2420 9.9164
" />
<path d="M3.2420 4.7805
L3.2381 4.8485
" />
<path d="M3.2420 4.9164
L3.2539 4.9834
" />
<path d="M3.2420 7.2805
L3.2381 7.3485
" />
<path d="M3.2420 7.4164
L3.2539 7.4834
" />
<path d="M3.2420 9.7805
L3.2381 9.8485
" />
<path d="M3.2420 9.9164
L3.2539 9.9834
" />
<path d="M3.2539 4.7135
L3.2420 4.7805
" />
<path d="M3.2539 4.9834
L3.2734 5.0485
" />
<path d="M3.2539 7.2135
L3.2420 7.2805
" />
<path d="M3.2539 7.4834
L3.2734 7.5485
" />
<path d="M3.2539 9.7135
L3.2420 9.7805
" />
<path d="M3.2539 9.9834
L3.2734 10.0485
" />
<path d="M3.2734 4.6484
L3.2539 4.7135
" />
<path d="M3.2734 5.0485
L3.3003 5.1110
" />
<path d="M3.2734 7.1484
L3.2539 7.2135
" />
<path d="M3.2734 7.5485
L3.3003 7.6110
" />
<path d="M3.2734 9.6484
L3.2539 9.7135
" />
<path d="M3.2734 10.0485
L3.3003 10.1110
" />
<path d="M3.3003 4.5859
L3.2734 4.6484
" />
<path d="M3.3003 5.1110
L3.3343 5.1699
" />
<path d="M3.3003 7.0859
L3.2734 7.1484
" />
<path d="M3.3003 7.6110
L3.3343 7.6699
" />
<path d="M3.3003 9.5859
L3.2734 9.6484
" />
<path d="M3.3003 10.1110
L3.3343 10.1699
" />
<path d="M3.3343 4.5270
L3.3003 4.5859
" />
<path d="M3.3343 5.1699
L3.3750 5.2245
" />
<path d="M3.3343 7.0270
L3.3003 7.0859
" />
<path d="M3.3343 7.6699
L3.3750 7.7245
" />
<path d="M3.3343 9.5270
L3.3003 9.5859
" />
<path d="M3.3343 10.1699
L3.3750 10.2245
" />
<path d="M3.3750 4.4724
L3.3343 4.5270
" />
<path d="M3.3750 5.2245
L3.4216 5.2740
" />
<path d="M3.3750 6.9724
L3.3343 7.0270
" />
<path d="M3.3750 7.7245
L3.4216 7.7740
" />
<path d="M3.3750 9.4724
L3.3343 9.5270
" />
<path d="M3.3750 10.2245
L3.4216 10.2740
" />
<path d="M3.4216 4.4229
L3.3750 4.4724
" />
<path d="M3.4216 5.2740
L3.4737 5.3177
" />
<path d="M3.4216 6.9229
L3.3750 6.9724
" />
<path d="M3.4216 7.7740
L3.4737 7.8177
" />
<path d="M3.4216 9.4229
L3.3750 9.4724
" />
<path d="M3.4216 10.2740
L3.4737 10.3177
" />
<path d="M3.4737 4.3792
L3.4216 4.4229
" />
<path d="M3.4737 5.3177
L3.5306 5.3551
" />
<path d="M3.4737 6.8792
L3.4216 6.9229
" />
<path d="M3.4737 7.8177
L3.5306 7.8551
" />
<path d="M3.4737 9.3792
L3.4216 9.4229
" />
<path d="M3.4737 10.3177
L3.5306 10.3551
" />
<path d="M3.5306 4.3418
L3.4737 4.3792
" />
<path d="M3.5306 5.3551
L3.5914 5.3856
" />
<path d="M3.5306 6.8418
L3.4737 6.8792
" />
<path d="M3.5306 7.8551
L3.5914 7.8856
" />
<path d="M3.5306 9.3418
L3.4737 9.3792
" />
<path d="M3.5306 10.3551
L3.5914 10.3856
" />
<path d="M3.5914 4.3113
L3.5306 4.3418
" />
<path d="M3.5914 5.3856
L3.6553 5.4089
" />
<path d="M3.5914 6.8113
L3.5306 6.8418
" />
<path d="M3.5914 7.8856
L3.6553 7.9089
" />
<path d="M3.5914 9.3113
L3.5306 9.3418
" />
<path d="M3.5914 10.3856
L3.6553 10.4089
" />
<path d="M3.6553 4.2880
L3.5914 4.3113
" />
<path d="M3.6553 5.4089
L3.7215 5.4246
" />
<path d="M3.6553 6.7880
L3.5914 6.8113
" />
<path d="M3.6553 7.9089
L3.7215 7.9246
" />
<path d="M3.6553 9.2880
L3.5914 9.3113
" />
<path d="M3.6553 10.4089
L3.7215 10.4246
" />
<path d="M3.7215 4.2723
L3.6553 4.2880
" />
<path d="M3.7215 5.4246
L3.7891 5.4325
" />
<path d="M3.7215 6.7723
L3.6553 6.7880
" />
<path d="M3.7215 7.9246
L3.7891 7.9325
" />
<path d="M3.7215 9.2723
L3.6553 9.2880
" />
<path d="M3.7215 10.4246
L3.7891 10.4325
" />
<path d="M3.7891 4.2644
L3.7215 4.2723
" />
<path d="M3.7891 5.4325
L3.8571 5.4325
" />
<path d="M3.7891 6.7644
L3.7215 6.7723
" />
<path d="M3.7891 7.9325
L3.8571 7.9325
" />
<path d="M3.7891 9.2644
L3.7215 9.2723
" />
<path d="M3.7891 10.4325
L3.8571 10.4325
" />
<path d="M3.8571 4.2644
L3.7891 4.2644
" />
<path d="M3.8571 5.4325
L3.9247 5.4246
" />
<path d="M3.8571 6.7644
L3.7891 6.7644
" />
<path d="M3.8571 7.9325
L3.9247 7.9246
" />
<path d="M3.8571 9.2644
L3.7891 9.2644
" />
<path d="M3.8571 10.4325
L3.9247 10.4246
" />
<path d="M3.9247 4.2723
L3.8571 4.2644
" />
<path d="M3.9247 5.4246
L3.9909 5.4089
" />
<path d="M3.9247 6.7723
L3.8571 6.7644
" />
<path d="M3.9247 7.9246
L3.9909 7.9089
" />
<path d="M3.9247 9.2723
L3.8571 9.2644
" />
<path d="M3.9247 10.4246
L3.9909 10.4089
" />
<path d="M3.9909 4.2880
L3.9247 4.2723
" />
<path d="M3.9909 5.4089
L4.0548 5.3856
" />
<path d="M3.9909 6.7880
L3.9247 6.7723
" />
<path d="M3.9909 7.9089
L4.0548 7.8856
" />
<path d="M3.9909 9.2880
L3.9247 9.2723
" />
<path d="M3.9909 10.4089
L4.0548 10.3856
" />
<path d="M4.0548 4.3113
L3.9909 4.2880
" />
<path d="M4.0548 5.3856
L4.1156 5.3551
" />
<path d="M4.0548 6.8113
L3.9909 6.7880
" />
<path d="M4.0548 7.8856
L4.1156 7.8551
" />
<path d="M4.0548 9.3113
L3.9909 9.2880
" />
<path d="M4.0548 10.3856
L4.1156 10.3551
" />
<path d="M4.1156 4.3418
L4.0548 4.3113
" />
<path d="M4.1156 5.3551
L4.1724 5.3177
" />
<path d="M4.1156 6.8418
L4.0548 6.8113
" />
<path d="M4.1156 7.8551
L4.1724 7.8177
" />
<path d="M4.1156 9.3418
L4.0548 9.3113
" />
<path d="M4.1156 10.3551
L4.1724 10.3177
" />
<path d="M4.1231 1.6485
L1.8231 3.9485
" />
<path d="M4.1231 13.0485
L16.0431 13.0485
" />
<path d="M4.1724 4.3792
L4.1156 4.3418
" />
<path d="M4.1724 5.3177
L4.2245 5.2740
" />
<path d="M4.1724 6.8792
L4.1156 6.8418
" />
<path d="M4.1724 7.8177
L4.2245 7.7740
" />
<path d="M4.1724 9.3792
L4.1156 9.3418
" />
<path d="M4.1724 10.3177
L4.2245 10.2740
" />
<path d="M4.2245 4.4229
L4.1724 4.3792
" />
<path d="M4.2245 5.2740
L4.2712 5.2245
" />
<path d="M4.2245 6.9229
L4.1724 6.8792
" />
<path d="M4.2245 7.7740
L4.2712 7.7245
" />
<path d="M4.2245 9.4229
L4.1724 9.3792
" />
<path d="M4.2245 10.2740
L4.2712 10.2245
" />
<path d="M4.2712 4.4724
L4.2245 4.4229
" />
<path d="M4.2712 5.2245
L4.3118 5.1699
" />
<path d="M4.2712 6.9724
L4.2245 6.9229
" />
<path d="M4.2712 7.7245
L4.3118 7.6699
" />
<path d="M4.2712 9.4724
L4.2245 9.4229
" />
<path d="M4.2712 10.2245
L4.3118 10.1699
" />
<path d="M4.3118 4.5270
L4.2712 4.4724
" />
<path d="M4.3118 5.1699
L4.3459 5.1110
" />
<path d="M4.3118 7.0270
L4.2712 6.9724
" />
<path d="M4.3118 7.6699
L4.3459 7.6110
" />
<path d="M4.3118 9.5270
L4.2712 9.4724
" />
<path d="M4.3118 10.1699
L4.3459 10.1110
" />
<path d="M4.3459 4.5859
L4.3118 4.5270
" />
<path d="M4.3459 5.1110
L4.3728 5.0485
" />
<path d="M4.3459 7.0859
L4.3118 7.0270
" />
<path d="M4.3459 7.6110
L4.3728 7.5485
" />
<path d="M4.3459 9.5859
L4.3118 9.5270
" />
<path d="M4.3459 10.1110
L4.3728 10.0485
" />
<path d="M4.3728 4.6484
L4.3459 4.5859
" />
<path d="M4.3728 5.0485
L4.3923 4.9834
" />
<path d="M4.3728 7.1484
L4.3459 7.0859
" />
<path d="M4.3728 7.5485
L4.3923 7.4834
" />
<path d="M4.3728 9.6484
L4.3459 9.5859
" />
<path d="M4.3728 10.0485
L4.3923 9.9834
" />
<path d="M4.3923 4.7135
L4.3728 4.6484
" />
<path d="M4.3923 4.9834
L4.4041 4.9164
" />
<path d="M4.3923 7.2135
L4.3728 7.1484
" />
<path d="M4.3923 7.4834
L4.4041 7.4164
" />
<path d="M4.3923 9.7135
L4.3728 9.6484
" />
<path d="M4.3923 9.9834
L4.4041 9.9164
" />
<path d="M4.4041 4.7805
L4.3923 4.7135
" />
<path d="M4.4041 4.9164
L4.4081 4.8485
" />
<path d="M4.4041 7.2805
L4.3923 7.2135
" />
<path d="M4.4041 7.4164
L4.4081 7.3485
" />
<path d="M4.4041 9.7805
L4.3923 9.7135
" />
<path d="M4.4041 9.9164
L4.4081 9.8485
" />
<path d="M4.4081 4.8485
L4.4041 4.7805
" />
<path d="M4.4081 7.3485
L4.4041 7.2805
" />
<path d="M4.4081 9.8485
L4.4041 9.7805
" />
<path d="M5.9381 3.1485
L5.9420 3.2164
" />
<path d="M5.9381 11.5485
L5.9420 11.6164
" />
<path d="M5.9420 3.0805
L5.9381 3.1485
" />
<path d="M5.9420 3.2164
L5.9539 3.2834
" />
<path d="M5.9420 11.4805
L5.9381 11.5485
" />
<path d="M5.9420 11.6164
L5.9539 11.6834
" />
<path d="M5.9539 3.0135
L5.9420 3.0805
" />
<path d="M5.9539 3.2834
L5.9734 3.3485
" />
<path d="M5.9539 11.4135
L5.9420 11.4805
" />
<path d="M5.9539 11.6834
L5.9734 11.7485
" />
<path d="M5.9734 2.9484
L5.9539 3.0135
" />
<path d="M5.9734 3.3485
L6.0003 3.4110
" />
<path d="M5.9734 11.3484
L5.9539 11.4135
" />
<path d="M5.9734 11.7485
L6.0003 11.8110
" />
<path d="M6.0003 2.8859
L5.9734 2.9484
" />
<path d="M6.0003 3.4110
L6.0343 3.4699
" />
<path d="M6.0003 11.2859
L5.9734 11.3484
" />
<path d="M6.0003 11.8110
L6.0343 11.8699
" />
<path d="M6.0343 2.8270
L6.0003 2.8859
" />
<path d="M6.0343 3.4699
L6.0750 3.5245
" />
<path d="M6.0343 11.2270
L6.0003 11.2859
" />
<path d="M6.0343 11.8699
L6.0750 11.9245
" />
<path d="M6.0750 2.7724
L6.0343 2.8270
" />
<path d="M6.0750 3.5245
L6.1216 3.5740
" />
<path d="M6.0750 11.1724
L6.0343 11.2270
" />
<path d="M6.0750 11.9245
L6.1216 11.9740
" />
<path d="M6.1216 2.7229
L6.0750 2.7724
" />
<path d="M6.1216 3.5740
L6.1737 3.6177
" />
<path d="M6.1216 11.1229
L6.0750 11.1724
" />
<path d="M6.1216 11.9740
L6.1737 12.0177
" />
<path d="M6.1737 2.6792
L6.1216 2.7229
" />
<path d="M6.1737 3.6177
L6.2306 3.6551
" />
<path d="M6.1737 11.0792
L6.1216 11.1229
" />
<path d="M6.1737 12.0177
L6.2306 12.0551
" />
<path d="M6.2306 2.6418
L6.1737 2.6792
" />
<path d="M6.2306 3.6551
L6.2914 3.6856
" />
<path d="M6.2306 11.0418
L6.1737 11.0792
" />
<path d="M6.2306 12.0551
L6.2914 12.0856
" />
<path d="M6.2914 2.6113
L6.2306 2.6418
" />
<path d="M6.2914 3.6856
L6.3553 3.7089
" />
<path d="M6.2914 11.0113
L6.2306 11.0418
" />
<path d="M6.2914 12.0856
L6.3553 12.1089
" />
<path d="M6.3553 2.5880
L6.2914 2.6113
" />
<path d="M6.3553 3.7089
L6.4215 3.7246
" />
<path d="M6.3553 10.9880
L6.2914 11.0113
" />
<path d="M6.3553 12.1089
L6.4215 12.1246
" />
<path d="M6.4215 2.5723
L6.3553 2.5880
" />
<path d="M6.4215 3.7246
L6.4891 3.7325
" />
<path d="M6.4215 10.9723
L6.3553 10.9880
" />
<path d="M6.4215 12.1246
L6.4891 12.1325
" />
<path d="M6.4891 2.5644
L6.4215 2.5723
" />
<path d="M6.4891 3.7325
L6.5571 3.7325
" />
<path d="M6.4891 10.9644
L6.4215 10.9723
" />
<path d="M6.4891 12.1325
L6.5571 12.1325
" />
<path d="M6.5571 2.5644
L6.4891 2.5644
" />
<path d="M6.5571 3.7325
L6.6247 3.7246
" />
<path d="M6.5571 10.9644
L6.4891 10.9644
" />
<path d="M6.5571 12.1325
L6.6247 12.1246
" />
<path d="M6.6247 2.5723
L6.5571 2.5644
" />
<path d="M6.6247 3.7246
L6.6909 3.7089
" />
<path d="M6.6247 10.9723
L6.5571 10.9644
" />
<path d="M6.6247 12.1246
L6.6909 12.1089
" />
<path d="M6.6909 2.5880
L6.6247 2.5723
" />
<path d="M6.6909 3.7089
L6.7548 3.6856
" />
<path d="M6.6909 10.9880
L6.6247 10.9723
" />
<path d="M6.6909 12.1089
L6.7548 12.0856
" />
<path d="M6.7548 2.6113
L6.6909 2.5880
" />
<path d="M6.7548 3.6856
L6.8156 3.6551
" />
<path d="M6.7548 11.0113
L6.6909 10.9880
" />
<path d="M6.7548 12.0856
L6.8156 12.0551
" />
<path d="M6.8156 2.6418
L6.7548 2.6113
" />
<path d="M6.8156 3.6551
L6.8724 3.6177
" />
<path d="M6.8156 11.0418
L6.7548 11.0113
" />
<path d="M6.8156 12.0551
L6.8724 12.0177
" />
<path d="M6.8724 2.6792
L6.8156 2.6418
" />
<path d="M6.8724 3.6177
L6.9245 3.5740
" />
<path d="M6.8724 11.0792
L6.8156 11.0418
" />
<path d="M6.8724 12.0177
L6.9245 11.9740
" />
<path d="M6.9245 2.7229
L6.8724 2.6792
" />
<path d="M6.9245 3.5740
L6.9712 3.5245
" />
<path d="M6.9245 11.1229
L6.8724 11.0792
" />
<path d="M6.9245 11.9740
L6.9712 11.9245
" />
<path d="M6.9712 2.7724
L6.9245 2.7229
" />
<path d="M6.9712 3.5245
L7.0118 3.4699
" />
<path d="M6.9712 11.1724
L6.9245 11.1229
" />
<path d="M6.9712 11.9245
L7.0118 11.8699
" />
<path d="M7.0118 2.8270
L6.9712 2.7724
" />
<path d="M7.0118 3.4699
L7.0459 3.4110
" />
<path d="M7.0118 11.2270
L6.9712 11.1724
" />
<path d="M7.0118 11.8699
L7.0459 11.8110
" />
<path d="M7.0459 2.8859
L7.0118 2.8270
" />
<path d="M7.0459 3.4110
L7.0728 3.3485
" />
<path d="M7.0459 11.2859
L7.0118 11.2270
" />
<path d="M7.0459 11.8110
L7.0728 11.7485
" />
<path d="M7.0728 2.9484
L7.0459 2.8859
" />
<path d="M7.0728 3.3485
L7.0923 3.2834
" />
<path d="M7.0728 11.3484
L7.0459 11.2859
" />
<path d="M7.0728 11.7485
L7.0923 11.6834
" />
<path d="M7.0923 3.0135
L7.0728 2.9484
" />
<path d="M7.0923 3.2834
L7.1041 3.2164
" />
<path d="M7.0923 11.4135
L7.0728 11.3484
" />
<path d="M7.0923 11.6834
L7.1041 11.6164
" />
<path d="M7.1041 3.0805
L7.0923 3.0135
" />
<path d="M7.1041 3.2164
L7.1081 3.1485
" />
<path d="M7.1041 11.4805
L7.0923 11.4135
" />
<path d="M7.1041 11.6164
L7.1081 11.5485
" />
<path d="M7.1081 3.1485
L7.1041 3.0805
" />
<path d="M7.1081 11.5485
L7.1041 11.4805
" />
<path d="M8.3581 3.1485
L8.3620 3.2164
" />
<path d="M8.3581 11.5485
L8.3620 11.6164
" />
<path d="M8.3620 3.0805
L8.3581 3.1485
" />
<path d="M8.3620 3.2164
L8.3739 3.2834
" />
<path d="M8.3620 11.4805
L8.3581 11.5485
" />
<path d="M8.3620 11.6164
L8.3739 11.6834
" />
<path d="M8.3739 3.0135
L8.3620 3.0805
" />
<path d="M8.3739 3.2834
L8.3934 3.3485
" />
<path d="M8.3739 11.4135
L8.3620 11.4805
" />
<path d="M8.3739 11.6834
L8.3934 11.7485
" />
<path d="M8.3934 2.9484
L8.3739 3.0135
" />
<path d="M8.3934 3.3485
L8.4203 3.4110
" />
<path d="M8.3934 11.3484
L8.3739 11.4135
" />
<path d="M8.3934 11.7485
L8.4203 11.8110
" />
<path d="M8.4203 2.8859
L8.3934 2.9484
" />
<path d="M8.4203 3.4110
L8.4543 3.4699
" />
<path d="M8.4203 11.2859
L8.3934 11.3484
" />
<path d="M8.4203 11.8110
L8.4543 11.8699
" />
<path d="M8.4543 2.8270
L8.4203 2.8859
" />
<path d="M8.4543 3.4699
L8.4950 3.5245
" />
<path d="M8.4543 11.2270
L8.4203 11.2859
" />
<path d="M8.4543 11.8699
L8.4950 11.9245
" />
<path d="M8.4950 2.7724
L8.4543 2.8270
" />
<path d="M8.4950 3.5245
L8.5416 3.5740
" />
<path d="M8.4950 11.1724
L8.4543 11.2270
" />
<path d="M8.4950 11.9245
L8.5416 11.9740
" />
<path d="M8.5416 2.7229
L8.4950 2.7724
" />
<path d="M8.5416 3.5740
L8.5937 3.6177
" />
<path d="M8.5416 11.1229
L8.4950 11.1724
" />
<path d="M8.5416 11.9740
L8.5937 12.0177
" />
<path d="M8.5937 2.6792
L8.5416 2.7229
" />
<path d="M8.5937 3.6177
L8.6506 3.6551
" />
<path d="M8.5937 11.0792
L8.5416 11.1229
" />
<path d="M8.5937 12.0177
L8.6506 12.0551
" />
<path d="M8.6506 2.6418
L8.5937 2.6792
" />
<path d="M8.6506 3.6551
L8.7114 3.6856
" />
<path d="M8.6506 11.0418
L8.5937 11.0792
" />
<path d="M8.6506 12.0551
L8.7114 12.0856
" />
<path d="M8.7114 2.6113
L8.6506 2.6418
" />
<path d="M8.7114 3.6856
L8.7753 3.7089
" />
<path d="M8.7114 11.0113
L8.6506 11.0418
" />
<path d="M8.7114 12.0856
L8.7753 12.1089
" />
<path d="M8.7753 2.5880
L8.7114 2.6113
" />
<path d="M8.7753 3.7089
L8.8415 3.7246
" />
<path d="M8.7753 10.9880
L8.7114 11.0113
" />
<path d="M8.7753 12.1089
L8.8415 12.1246
" />
<path d="M8.8415 2.5723
L8.7753 2.5880
" />
<path d="M8.8415 3.7246
L8.9091 3.7325
" />
<path d="M8.8415 10.9723
L8.7753 10.9880
" />
<path d="M8.8415 12.1246
L8.9091 12.1325
" />
<path d="M8.9091 2.5644
L8.8415 2.5723
" />
<path d="M8.9091 3.7325
L8.9771 3.7325
" />
<path d="M8.9091 10.9644
L8.8415 10.9723
" />
<path d="M8.9091 12.1325
L8.9771 12.1325
" />
<path d="M8.9771 2.5644
L8.9091 2.5644
" />
<path d="M8.9771 3.7325
L9.0447 3.7246
" />
<path d="M8.9771 10.9644
L8.9091 10.9644
" />
<path d="M8.9771 12.1325
L9.0447 12.1246
" />
<path d="M9.0447 2.5723
L8.9771 2.5644
" />
<path d="M9.0447 3.7246
L9.1109 3.7089
" />
<path d="M9.0447 10.9723
L8.9771 10.9644
" />
<path d="M9.0447 12.1246
L9.1109 12.1089
" />
<path d="M9.1109 2.5880
L9.0447 2.5723
" />
<path d="M9.1109 3.7089
L9.1748 3.6856
" />
<path d="M9.1109 10.9880
L9.0447 10.9723
" />
<path d="M9.1109 12.1089
L9.1748 12.0856
" />
<path d="M9.1748 2.6113
L9.1109 2.5880
" />
<path d="M9.1748 3.6856
L9.2356 3.6551
" />
<path d="M9.1748 11.0113
L9.1109 10.9880
" />
<path d="M9.1748 12.0856
L9.2356 12.0551
" />
<path d="M9.2356 2.6418
L9.1748 2.6113
" />
<path d="M9.2356 3.6551
L9.2924 3.6177
" />
<path d="M9.2356 11.0418
L9.1748 11.0113
" />
<path d="M9.2356 12.0551
L9.2924 12.0177
" />
<path d="M9.2924 2.6792
L9.2356 2.6418
" />
<path d="M9.2924 3.6177
L9.3445 3.5740
" />
<path d="M9.2924 11.0792
L9.2356 11.0418
" />
<path d="M9.2924 12.0177
L9.3445 11.9740
" />
<path d="M9.3445 2.7229
L9.2924 2.6792
" />
<path d="M9.3445 3.5740
L9.3912 3.5245
" />
<path d="M9.3445 11.1229
L9.2924 11.0792
" />
<path d="M9.3445 11.9740
L9.3912 11.9245
" />
<path d="M9.3912 2.7724
L9.3445 2.7229
" />
<path d="M9.3912 3.5245
L9.4318 3.4699
" />
<path d="M9.3912 11.1724
L9.3445 11.1229
" />
<path d="M9.3912 11.9245
L9.4318 11.8699
" />
<path d="M9.4318 2.8270
L9.3912 2.7724
" />
<path d="M9.4318 3.4699
L9.4659 3.4110
" />
<path d="M9.4318 11.2270
L9.3912 11.1724
" />
<path d="M9.4318 11.8699
L9.4659 11.8110
" />
<path d="M9.4659 2.8859
L9.4318 2.8270
" />
<path d="M9.4659 3.4110
L9.4928 3.3485
" />
<path d="M9.4659 11.2859
L9.4318 11.2270
" />
<path d="M9.4659 11.8110
L9.4928 11.7485
" />
<path d="M9.4928 2.9484
L9.4659 2.8859
" />
<path d="M9.4928 3.3485
L9.5123 3.2834
" />
<path d="M9.4928 11.3484
L9.4659 11.2859
" />
<path d="M9.4928 11.7485
L9.5123 11.6834
" />
<path d="M9.5123 3.0135
L9.4928 2.9484
" />
<path d="M9.5123 3.2834
L9.5241 3.2164
" />
<path d="M9.5123 11.4135
L9.4928 11.3484
" />
<path d="M9.5123 11.6834
L9.5241 11.6164
" />
<path d="M9.5241 3.0805
L9.5123 3.0135
" />
<path d="M9.5241 3.2164
L9.5281 3.1485
" />
<path d="M9.5241 11.4805
L9.5123 11.4135
" />
<path d="M9.5241 11.6164
L9.5281 11.5485
" />
<path d="M9.5281 3.1485
L9.5241 3.0805
" />
<path d="M9.5281 11.5485
L9.5241 11.4805
" />
<path d="M10.9481 3.1485
L10.9520 3.2164
" />
<path d="M10.9481 11.5485
L10.9520 11.6164
" />
<path d="M10.9520 3.0805
L10.9481 3.1485
" />
<path d="M10.9520 3.2164
L10.9639 3.2834
" />
<path d="M10.9520 11.4805
L10.9481 11.5485
" />
<path d="M10.9520 11.6164
L10.9639 11.6834
" />
<path d="M10.9639 3.0135
L10.9520 3.0805
" />
<path d="M10.9639 3.2834
L10.9834 3.3485
" />
<path d="M10.9639 11.4135
L10.9520 11.4805
" />
<path d="M10.9639 11.6834
L10.9834 11.7485
" />
<path d="M10.9834 2.9484
L10.9639 3.0135
" />
<path d="M10.9834 3.3485
L11.0103 3.4110
" />
<path d="M10.9834 11.3484
L10.9639 11.4135
" />
<path d="M10.9834 11.7485
L11.0103 11.8110
" />
<path d="M11.0103 2.8859
L10.9834 2.9484
" />
<path d="M11.0103 3.4110
L11.0443 3.4699
" />
<path d="M11.0103 11.2859
L10.9834 11.3484
" />
<path d="M11.0103 11.8110
L11.0443 11.8699
" />
<path d="M11.0443 2.8270
L11.0103 2.8859
" />
<path d="M11.0443 3.4699
L11.0850 3.5245
" />
<path d="M11.0443 11.2270
L11.0103 11.2859
" />
<path d="M11.0443 11.8699
L11.0850 11.9245
" />
<path d="M11.0850 2.7724
L11.0443 2.8270
" />
<path d="M11.0850 3.5245
L11.1316 3.5740
" />
<path d="M11.0850 11.1724
L11.0443 11.2270
" />
<path d="M11.0850 11.9245
L11.1316 11.9740
" />
<path d="M11.1316 2.7229
L11.0850 2.7724
" />
<path d="M11.1316 3.5740
L11.1837 3.6177
" />
<path d="M11.1316 11.1229
L11.0850 11.1724
" />
<path d="M11.1316 11.9740
L11.1837 12.0177
" />
<path d="M11.1837 2.6792
L11.1316 2.7229
" />
<path d="M11.1837 3.6177
L11.2406 3.6551
" />
<path d="M11.1837 11.0792
L11.1316 11.1229
" />
<path d="M11.1837 12.0177
L11.2406 12.0551
" />
<path d="M11.2406 2.6418
L11.1837 2.6792
" />
<path d="M11.2406 3.6551
L11.3014 3.6856
" />
<path d="M11.2406 11.0418
L11.1837 11.0792
" />
<path d="M11.2406 12.0551
L11.3014 12.0856
" />
<path d="M11.3014 2.6113
L11.2406 2.6418
" />
<path d="M11.3014 3.6856
L11.3653 3.7089
" />
<path d="M11.3014 11.0113
L11.2406 11.0418
" />
<path d="M11.3014 12.0856
L11.3653 12.1089
" />
<path d="M11.3653 2.5880
L11.3014 2.6113
" />
<path d="M11.3653 3.7089
L11.4315 3.7246
" />
<path d="M11.3653 10.9880
L11.3014 11.0113
" />
<path d="M11.3653 12.1089
L11.4315 12.1246
" />
<path d="M11.4315 2.5723
L11.3653 2.5880
" />
<path d="M11.4315 3.7246
L11.4991 3.7325
" />
<path d="M11.4315 10.9723
L11.3653 10.9880
" />
<path d="M11.4315 12.1246
L11.4991 12.1325
" />
<path d="M11.4991 2.5644
L11.4315 2.5723
" />
<path d="M11.4991 3.7325
L11.5671 3.7325
" />
<path d="M11.4991 10.9644
L11.4315 10.9723
" />
<path d="M11.4991 12.1325
L11.5671 12.1325
" />
<path d="M11.5671 2.5644
L11.4991 2.5644
" />
<path d="M11.5671 3.7325
L11.6347 3.7246
" />
<path d="M11.5671 10.9644
L11.4991 10.9644
" />
<path d="M11.5671 12.1325
L11.6347 12.1246
" />
<path d="M11.6347 2.5723
L11.5671 2.5644
" />
<path d="M11.6347 3.7246
L11.7009 3.7089
" />
<path d="M11.6347 10.9723
L11.5671 10.9644
" />
<path d="M11.6347 12.1246
L11.7009 12.1089
" />
<path d="M11.7009 2.5880
L11.6347 2.5723
" />
<path d="M11.7009 3.7089
L11.7648 3.6856
" />
<path d="M11.7009 10.9880
L11.6347 10.9723
" />
<path d="M11.7009 12.1089
L11.7648 12.0856
" />
<path d="M11.7648 2.6113
L11.7009 2.5880
" />
<path d="M11.7648 3.6856
L11.8256 3.6551
" />
<path d="M11.7648 11.0113
L11.7009 10.9880
" />
<path d="M11.7648 12.0856
L11.8256 12.0551
" />
<path d="M11.8256 2.6418
L11.7648 2.6113
" />
<path d="M11.8256 3.6551
L11.8824 3.6177
" />
<path d="M11.8256 11.0418
L11.7648 11.0113
" />
<path d="M11.8256 12.0551
L11.8824 12.0177
" />
<path d="M11.8824 2.6792
L11.8256 2.6418
" />
<path d="M11.8824 3.6177
L11.9345 3.5740
" />
<path d="M11.8824 11.0792
L11.8256 11.0418
" />
<path d="M11.8824 12.0177
L11.9345 11.9740
" />
<path d="M11.9345 2.7229
L11.8824 2.6792
" />
<path d="M11.9345 3.5740
L11.9812 3.5245
" />
<path d="M11.9345 11.1229
L11.8824 11.0792
" />
<path d="M11.9345 11.9740
L11.9812 11.9245
" />
<path d="M11.9812 2.7724
L11.9345 2.7229
" />
<path d="M11.9812 3.5245
L12.0218 3.4699
" />
<path d="M11.9812 11.1724
L11.9345 11.1229
" />
<path d="M11.9812 11.9245
L12.0218 11.8699
" />
<path d="M12.0218 2.8270
L11.9812 2.7724
" />
<path d="M12.0218 3.4699
L12.0559 3.4110
" />
<path d="M12.0218 11.2270
L11.9812 11.1724
" />
<path d="M12.0218 11.8699
L12.0559 11.8110
" />
<path d="M12.0559 2.8859
L12.0218 2.8270
" />
<path d="M12.0559 3.4110
L12.0828 3.3485
" />
<path d="M12.0559 11.2859
L12.0218 11.2270
" />
<path d="M12.0559 11.8110
L12.0828 11.7485
" />
<path d="M12.0828 2.9484
L12.0559 2.8859
" />
<path d="M12.0828 3.3485
L12.1023 3.2834
" />
<path d="M12.0828 11.3484
L12.0559 11.2859
" />
<path d="M12.0828 11.7485
L12.1023 11.6834
" />
<path d="M12.1023 3.0135
L12.0828 2.9484
" />
<path d="M12.1023 3.2834
L12.1141 3.2164
" />
<path d="M12.1023 11.4135
L12.0828 11.3484
" />
<path d="M12.1023 11.6834
L12.1141 11.6164
" />
<path d="M12.1141 3.0805
L12.1023 3.0135
" />
<path d="M12.1141 3.2164
L12.1181 3.1485
" />
<path d="M12.1141 11.4805
L12.1023 11.4135
" />
<path d="M12.1141 11.6164
L12.1181 11.5485
" />
<path d="M12.1181 3.1485
L12.1141 3.0805
" />
<path d="M12.1181 11.5485
L12.1141 11.4805
" />
<path d="M13.4581 4.8485
L13.4620 4.9164
" />
<path d="M13.4581 7.3485
L13.4620 7.4164
" />
<path d="M13.4581 9.8485
L13.4620 9.9164
" />
<path d="M13.4620 4.7805
L13.4581 4.8485
" />
<path d="M13.4620 4.9164
L13.4739 4.9834
" />
<path d="M13.4620 7.2805
L13.4581 7.3485
" />
<path d="M13.4620 7.4164
L13.4739 7.4834
" />
<path d="M13.4620 9.7805
L13.4581 9.8485
" />
<path d="M13.4620 9.9164
L13.4739 9.9834
" />
<path d="M13.4739 4.7135
L13.4620 4.7805
" />
<path d="M13.4739 4.9834
L13.4934 5.0485
" />
<path d="M13.4739 7.2135
L13.4620 7.2805
" />
<path d="M13.4739 7.4834
L13.4934 7.5485
" />
<path d="M13.4739 9.7135
L13.4620 9.7805
" />
<path d="M13.4739 9.9834
L13.4934 10.0485
" />
<path d="M13.4934 4.6484
L13.4739 4.7135
" />
<path d="M13.4934 5.0485
L13.5203 5.1110
" />
<path d="M13.4934 7.1484
L13.4739 7.2135
" />
<path d="M13.4934 7.5485
L13.5203 7.6110
" />
<path d="M13.4934 9.6484
L13.4739 9.7135
" />
<path d="M13.4934 10.0485
L13.5203 10.1110
" />
<path d="M13.5203 4.5859
L13.4934 4.6484
" />
<path d="M13.5203 5.1110
L13.5543 5.1699
" />
<path d="M13.5203 7.0859
L13.4934 7.1484
" />
<path d="M13.5203 7.6110
L13.5543 7.6699
" />
<path d="M13.5203 9.5859
L13.4934 9.6484
" />
<path d="M13.5203 10.1110
L13.5543 10.1699
" />
<path d="M13.5543 4.5270
L13.5203 4.5859
" />
<path d="M13.5543 5.1699
L13.5950 5.2245
" />
<path d="M13.5543 7.0270
L13.5203 7.0859
" />
<path d="M13.5543 7.6699
L13.5950 7.7245
" />
<path d="M13.5543 9.5270
L13.5203 9.5859
" />
<path d="M13.5543 10.1699
L13.5950 10.2245
" />
<path d="M13.5950 4.4724
L13.5543 4.5270
" />
<path d="M13.5950 5.2245
L13.6416 5.2740
" />
<path d="M13.5950 6.9724
L13.5543 7.0270
" />
<path d="M13.5950 7.7245
L13.6416 7.7740
" />
<path d="M13.5950 9.4724
L13.5543 9.5270
" />
<path d="M13.5950 10.2245
L13.6416 10.2740
" />
<path d="M13.6416 4.4229
L13.5950 4.4724
" />
<path d="M13.6416 5.2740
L13.6937 5.3177
" />
<path d="M13.6416 6.9229
L13.5950 6.9724
" />
<path d="M13.6416 7.7740
L13.6937 7.8177
" />
<path d="M13.6416 9.4229
L13.5950 9.4724
" />
<path d="M13.6416 10.2740
L13.6937 10.3177
" />
<path d="M13.6937 4.3792
L13.6416 4.4229
" />
<path d="M13.6937 5.3177
L13.7506 5.3551
" />
<path d="M13.6937 6.8792
L13.6416 6.9229
" />
<path d="M13.6937 7.8177
L13.7506 7.8551
" />
<path d="M13.6937 9.3792
L13.6416 9.4229
" />
<path d="M13.6937 10.3177
L13.7506 10.3551
" />
<path d="M13.7506 4.3418
L13.6937 4.3792
" />
<path d="M13.7506 5.3551
L13.8114 5.3856
" />
<path d="M13.7506 6.8418
L13.6937 6.8792
" />
<path d="M13.7506 7.8551
L13.8114 7.8856
" />
<path d="M13.7506 9.3418
L13.6937 9.3792
" />
<path d="M13.7506 10.3551
L13.8114 10.3856
" />
<path d="M13.8114 4.3113
L13.7506 4.3418
" />
<path d="M13.8114 5.3856
L13.8753 5.4089
" />
<path d="M13.8114 6.8113
L13.7506 6.8418
" />
<path d="M13.8114 7.8856
L13.8753 7.9089
" />
<path d="M13.8114 9.3113
L13.7506 9.3418
" />
<path d="M13.8114 10.3856
L13.8753 10.4089
" />
<path d="M13.8753 4.2880
L13.8114 4.3113
" />
<path d="M13.8753 5.4089
L13.9415 5.4246
" />
<path d="M13.8753 6.7880
L13.8114 6.8113
" />
<path d="M13.8753 7.9089
L13.9415 7.9246
" />
<path d="M13.8753 9.2880
L13.8114 9.3113
" />
<path d="M13.8753 10.4089
L13.9415 10.4246
" />
<path d="M13.9415 4.2723
L13.8753 4.2880
" />
<path d="M13.9415 5.4246
L14.0091 5.4325
" />
<path d="M13.9415 6.7723
L13.8753 6.7880
" />
<path d="M13.9415 7.9246
L14.0091 7.9325
" />
<path d="M13.9415 9.2723
L13.8753 9.2880
" />
<path d="M13.9415 10.4246
L14.0091 10.4325
" />
<path d="M14.0091 4.2644
L13.9415 4.2723
" />
<path d="M14.0091 5.4325
L14.0771 5.4325
" />
<path d="M14.0091 6.7644
L13.9415 6.7723
" />
<path d="M14.0091 7.9325
L14.0771 7.9325
" />
<path d="M14.0091 9.2644
L13.9415 9.2723
" />
<path d="M14.0091 10.4325
L14.0771 10.4325
" />
<path d="M14.0771 4.2644
L14.0091 4.2644
" />
<path d="M14.0771 5.4325
L14.1447 5.4246
" />
<path d="M14.0771 6.7644
L14.0091 6.7644
" />
<path d="M14.0771 7.9325
L14.1447 7.9246
" />
<path d="M14.0771 9.2644
L14.0091 9.2644
" />
<path d="M14.0771 10.4325
L14.1447 10.4246
" />
<path d="M14.1447 4.2723
L14.0771 4.2644
" />
<path d="M14.1447 5.4246
L14.2109 5.4089
" />
<path d="M14.1447 6.7723
L14.0771 6.7644
" />
<path d="M14.1447 7.9246
L14.2109 7.9089
" />
<path d="M14.1447 9.2723
L14.0771 9.2644
" />
<path d="M14.1447 10.4246
L14.2109 10.4089
" />
<path d="M14.2109 4.2880
L14.1447 4.2723
" />
<path d="M14.2109 5.4089
L14.2748 5.3856
" />
<path d="M14.2109 6.7880
L14.1447 6.7723
" />
<path d="M14.2109 7.9089
L14.2748 7.8856
" />
<path d="M14.2109 9.2880
L14.1447 9.2723
" />
<path d="M14.2109 10.4089
L14.2748 10.3856
" />
<path d="M14.2748 4.3113
L14.2109 4.2880
" />
<path d="M14.2748 5.3856
L14.3356 5.3551
" />
<path d="M14.2748 6.8113
L14.2109 6.7880
" />
<path d="M14.2748 7.8856
L14.3356 7.8551
" />
<path d="M14.2748 9.3113
L14.2109 9.2880
" />
<path d="M14.2748 10.3856
L14.3356 10.3551
" />
<path d="M14.3356 4.3418
L14.2748 4.3113
" />
<path d="M14.3356 5.3551
L14.3924 5.3177
" />
<path d="M14.3356 6.8418
L14.2748 6.8113
" />
<path d="M14.3356 7.8551
L14.3924 7.8177
" />
<path d="M14.3356 9.3418
L14.2748 9.3113
" />
<path d="M14.3356 10.3551
L14.3924 10.3177
" />
<path d="M14.3924 4.3792
L14.3356 4.3418
" />
<path d="M14.3924 5.3177
L14.4445 5.2740
" />
<path d="M14.3924 6.8792
L14.3356 6.8418
" />
<path d="M14.3924 7.8177
L14.4445 7.7740
" />
<path d="M14.3924 9.3792
L14.3356 9.3418
" />
<path d="M14.3924 10.3177
L14.4445 10.2740
" />
<path d="M14.4445 4.4229
L14.3924 4.3792
" />
<path d="M14.4445 5.2740
L14.4912 5.2245
" />
<path d="M14.4445 6.9229
L14.3924 6.8792
" />
<path d="M14.4445 7.7740
L14.4912 7.7245
" />
<path d="M14.4445 9.4229
L14.3924 9.3792
" />
<path d="M14.4445 10.2740
L14.4912 10.2245
" />
<path d="M14.4912 4.4724
L14.4445 4.4229
" />
<path d="M14.4912 5.2245
L14.5318 5.1699
" />
<path d="M14.4912 6.9724
L14.4445 6.9229
" />
<path d="M14.4912 7.7245
L14.5318 7.6699
" />
<path d="M14.4912 9.4724
L14.4445 9.4229
" />
<path d="M14.4912 10.2245
L14.5318 10.1699
" />
<path d="M14.5318 4.5270
L14.4912 4.4724
" />
<path d="M14.5318 5.1699
L14.5659 5.1110
" />
<path d="M14.5318 7.0270
L14.4912 6.9724
" />
<path d="M14.5318 7.6699
L14.5659 7.6110
" />
<path d="M14.5318 9.5270
L14.4912 9.4724
" />
<path d="M14.5318 10.1699
L14.5659 10.1110
" />
<path d="M14.5659 4.5859
L14.5318 4.5270
" />
<path d="M14.5659 5.1110
L14.5928 5.0485
" />
<path d="M14.5659 7.0859
L14.5318 7.0270
" />
<path d="M14.5659 7.6110
L14.5928 7.5485
" />
<path d="M14.5659 9.5859
L14.5318 9.5270
" />
<path d="M14.5659 10.1110
L14.5928 10.0485
" />
<path d="M14.5928 4.6484
L14.5659 4.5859
" />
<path d="M14.5928 5.0485
L14.6123 4.9834
" />
<path d="M14.5928 7.1484
L14.5659 7.0859
" />
<path d="M14.5928 7.5485
L14.6123 7.4834
" />
<path d="M14.5928 9.6484
L14.5659 9.5859
" />
<path d="M14.5928 10.0485
L14.6123 9.9834
" />
<path d="M14.6123 4.7135
L14.5928 4.6484
" />
<path d="M14.6123 4.9834
L14.6241 4.9164
" />
<path d="M14.6123 7.2135
L14.5928 7.1484
" />
<path d="M14.6123 7.4834
L14.6241 7.4164
" />
<path d="M14.6123 9.7135
L14.5928 9.6484
" />
<path d="M14.6123 9.9834
L14.6241 9.9164
" />
<path d="M14.6241 4.7805
L14.6123 4.7135
" />
<path d="M14.6241 4.9164
L14.6281 4.8485
" />
<path d="M14.6241 7.2805
L14.6123 7.2135
" />
<path d="M14.6241 7.4164
L14.6281 7.3485
" />
<path d="M14.6241 9.7805
L14.6123 9.7135
" />
<path d="M14.6241 9.9164
L14.6281 9.8485
" />
<path d="M14.6281 4.8485
L14.6241 4.7805
" />
<path d="M14.6281 7.3485
L14.6241 7.2805
" />
<path d="M14.6281 9.8485
L14.6241 9.7805
" />
<path d="M16.0431 1.6485
L4.1231 1.6485
" />
<path d="M16.0431 13.0485
L16.0431 1.6485
" />
<path d="M17.2331 7.3985
L17.2331 7.9985
" />
<path d="M17.2331 7.9985
L17.2331 11.7985
" />
<path d="M17.2331 7.9985
L19.2331 7.9985
" />
<path d="M17.2331 11.7985
L17.2331 12.3985
" />
<path d="M17.2331 11.7985
L19.2331 11.7985
" />
<path d="M17.2331 12.3985
L19.2331 12.3985
" />
<path d="M19.2331 7.3985
L17.2331 7.3985
" />
<path d="M19.2331 7.9985
L17.2331 7.9985
" />
<path d="M19.2331 7.9985
L19.2331 7.3985
" />
<path d="M19.2331 11.7985
L17.2331 11.7985
" />
<path d="M19.2331 11.7985
L19.2331 7.9985
" />
<path d="M19.2331 12.3985
L19.2331 11.7985
" />
<path d="M19.2766 5.0985
L19.2805 5.1775
" />
<path d="M19.2805 5.0194
L19.2766 5.0985
" />
<path d="M19.2805 5.1775
L19.2921 5.2558
" />
<path d="M19.2921 4.9411
L19.2805 5.0194
" />
<path d="M19.2921 5.2558
L19.3114 5.3326
" />
<path d="M19.3114 4.8644
L19.2921 4.9411
" />
<path d="M19.3114 5.3326
L19.3380 5.4071
" />
<path d="M19.3380 4.7898
L19.3114 4.8644
" />
<path d="M19.3380 5.4071
L19.3719 5.4786
" />
<path d="M19.3719 4.7183
L19.3380 4.7898
" />
<path d="M19.3719 5.4786
L19.4125 5.5465
" />
<path d="M19.4125 4.6504
L19.3719 4.7183
" />
<path d="M19.4125 5.5465
L19.4597 5.6101
" />
<path d="M19.4597 4.5868
L19.4125 4.6504
" />
<path d="M19.4597 5.6101
L19.5128 5.6687
" />
<path d="M19.5128 4.5282
L19.4597 4.5868
" />
<path d="M19.5128 5.6687
L19.5715 5.7218
" />
<path d="M19.5715 4.4751
L19.5128 4.5282
" />
<path d="M19.5715 5.7218
L19.6350 5.7690
" />
<path d="M19.6350 4.4279
L19.5715 4.4751
" />
<path d="M19.6350 5.7690
L19.7029 5.8097
" />
<path d="M19.7029 4.3872
L19.6350 4.4279
" />
<path d="M19.7029 5.8097
L19.7745 5.8435
" />
<path d="M19.7745 4.3534
L19.7029 4.3872
" />
<path d="M19.7745 5.8435
L19.8490 5.8702
" />
<path d="M19.8490 4.3267
L19.7745 4.3534
" />
<path d="M19.8490 5.8702
L19.9258 5.8894
" />
<path d="M19.9258 4.3075
L19.8490 4.3267
" />
<path d="M19.9258 5.8894
L20.0040 5.9010
" />
<path d="M20.0040 4.2959
L19.9258 4.3075
" />
<path d="M20.0040 5.9010
L20.0831 5.9049
" />
<path d="M20.0831 1.0985
L20.0831 4.2920
" />
<path d="M20.0831 4.2920
L20.0040 4.2959
" />
<path d="M20.0831 5.9049
L20.0831 13.5985
" />
</g> 
</svg>
