<?xml version="1.0" standalone="no"?>
 <!DOCTYPE svg PUBLIC "-//W3C//DTD SVG 1.1//EN" 
 "http://www.w3.org/Graphics/SVG/1.1/DTD/svg11.dtd"> 
<svg
  xmlns:svg="http://www.w3.org/2000/svg"
  xmlns="http://www.w3.org/2000/svg"
  xmlns:xlink="http://www.w3.org/1999/xlink"
  version="1.1"
  width="6.8326mm" height="5.6134mm" viewBox="0.0000 0.0000 6.8326 5.6134">
<title>SVG Image created as outline.svg date 2025/04/04 10:06:29 </title>
  <desc>Image generated by PCBNEW </desc>
<g style="fill:#000000; fill-opacity:1.0000;stroke:#000000; stroke-opacity:1.0000;
stroke-linecap:round; stroke-linejoin:round;"
 transform="translate(0 0) scale(1 1)">
</g>
<g style="fill:none; 
stroke:#000000; stroke-width:0.0200; stroke-opacity:1; 
stroke-linecap:round; stroke-linejoin:round;">
<path d="M0.6400 0.8100
L0.6400 1.0100
" />
<path d="M0.6400 2.0800
L0.6400 2.2800
" />
<path d="M0.6400 3.3500
L0.6400 3.5500
" />
<path d="M0.6400 4.6200
L0.6400 4.8200
" />
<path d="M0.7400 0.7100
L0.6400 0.8100
" />
<path d="M0.7400 0.7100
L0.7400 1.1100
" />
<path d="M0.7400 1.1100
L0.6400 1.0100
" />
<path d="M0.7400 1.9800
L0.6400 2.0800
" />
<path d="M0.7400 1.9800
L0.7400 2.3800
" />
<path d="M0.7400 2.3800
L0.6400 2.2800
" />
<path d="M0.7400 3.2500
L0.6400 3.3500
" />
<path d="M0.7400 3.2500
L0.7400 3.6500
" />
<path d="M0.7400 3.6500
L0.6400 3.5500
" />
<path d="M0.7400 4.5200
L0.6400 4.6200
" />
<path d="M0.7400 4.5200
L0.7400 4.9200
" />
<path d="M0.7400 4.9200
L0.6400 4.8200
" />
<path d="M1.7250 0.4020
L1.7250 1.4180
" />
<path d="M1.7250 0.7100
L0.7400 0.7100
" />
<path d="M1.7250 1.1100
L0.7400 1.1100
" />
<path d="M1.7250 1.4180
L1.8520 1.5450
" />
<path d="M1.7250 1.6720
L1.7250 2.6880
" />
<path d="M1.7250 1.9800
L0.7400 1.9800
" />
<path d="M1.7250 2.3800
L0.7400 2.3800
" />
<path d="M1.7250 2.6880
L1.8520 2.8150
" />
<path d="M1.7250 2.9420
L1.7250 3.9580
" />
<path d="M1.7250 3.2500
L0.7400 3.2500
" />
<path d="M1.7250 3.6500
L0.7400 3.6500
" />
<path d="M1.7250 3.9580
L1.8520 4.0850
" />
<path d="M1.7250 4.2120
L1.7250 5.2280
" />
<path d="M1.7250 4.5200
L0.7400 4.5200
" />
<path d="M1.7250 4.9200
L0.7400 4.9200
" />
<path d="M1.7250 5.2280
L1.8520 5.3550
" />
<path d="M1.8520 0.2750
L1.7250 0.4020
" />
<path d="M1.8520 1.5450
L1.7250 1.6720
" />
<path d="M1.8520 2.8150
L1.7250 2.9420
" />
<path d="M1.8520 4.0850
L1.7250 4.2120
" />
<path d="M1.8520 5.3550
L4.9980 5.3550
" />
<path d="M2.5900 0.7100
L2.5900 1.1100
" />
<path d="M2.5900 0.7100
L2.6900 0.8100
" />
<path d="M2.5900 1.1100
L2.6900 1.0100
" />
<path d="M2.5900 1.9800
L2.5900 2.3800
" />
<path d="M2.5900 1.9800
L2.6900 2.0800
" />
<path d="M2.5900 2.3800
L2.6900 2.2800
" />
<path d="M2.5900 3.2500
L2.5900 3.6500
" />
<path d="M2.5900 3.2500
L2.6900 3.3500
" />
<path d="M2.5900 3.6500
L2.6900 3.5500
" />
<path d="M2.5900 4.5200
L2.5900 4.9200
" />
<path d="M2.5900 4.5200
L2.6900 4.6200
" />
<path d="M2.5900 4.9200
L2.6900 4.8200
" />
<path d="M2.6900 0.8100
L2.6900 1.0100
" />
<path d="M2.6900 2.0800
L2.6900 2.2800
" />
<path d="M2.6900 3.3500
L2.6900 3.5500
" />
<path d="M2.6900 4.6200
L2.6900 4.8200
" />
<path d="M2.8900 0.8100
L2.6900 0.8100
" />
<path d="M2.8900 0.8100
L2.8900 1.0100
" />
<path d="M2.8900 1.0100
L2.6900 1.0100
" />
<path d="M2.8900 2.0800
L2.6900 2.0800
" />
<path d="M2.8900 2.0800
L2.8900 2.2800
" />
<path d="M2.8900 2.2800
L2.6900 2.2800
" />
<path d="M2.8900 3.3500
L2.6900 3.3500
" />
<path d="M2.8900 3.3500
L2.8900 3.5500
" />
<path d="M2.8900 3.5500
L2.6900 3.5500
" />
<path d="M2.8900 4.6200
L2.6900 4.6200
" />
<path d="M2.8900 4.6200
L2.8900 4.8200
" />
<path d="M2.8900 4.8200
L2.6900 4.8200
" />
<path d="M2.9900 0.7100
L2.5900 0.7100
" />
<path d="M2.9900 0.7100
L2.8900 0.8100
" />
<path d="M2.9900 0.7100
L2.9900 1.1100
" />
<path d="M2.9900 1.1100
L2.5900 1.1100
" />
<path d="M2.9900 1.1100
L2.8900 1.0100
" />
<path d="M2.9900 1.9800
L2.5900 1.9800
" />
<path d="M2.9900 1.9800
L2.8900 2.0800
" />
<path d="M2.9900 1.9800
L2.9900 2.3800
" />
<path d="M2.9900 2.3800
L2.5900 2.3800
" />
<path d="M2.9900 2.3800
L2.8900 2.2800
" />
<path d="M2.9900 3.2500
L2.5900 3.2500
" />
<path d="M2.9900 3.2500
L2.8900 3.3500
" />
<path d="M2.9900 3.2500
L2.9900 3.6500
" />
<path d="M2.9900 3.6500
L2.5900 3.6500
" />
<path d="M2.9900 3.6500
L2.8900 3.5500
" />
<path d="M2.9900 4.5200
L2.5900 4.5200
" />
<path d="M2.9900 4.5200
L2.8900 4.6200
" />
<path d="M2.9900 4.5200
L2.9900 4.9200
" />
<path d="M2.9900 4.9200
L2.5900 4.9200
" />
<path d="M2.9900 4.9200
L2.8900 4.8200
" />
<path d="M3.8600 0.7100
L3.8600 1.1100
" />
<path d="M3.8600 0.7100
L3.9600 0.8100
" />
<path d="M3.8600 0.7100
L4.2600 0.7100
" />
<path d="M3.8600 1.1100
L3.9600 1.0100
" />
<path d="M3.8600 1.1100
L4.2600 1.1100
" />
<path d="M3.8600 1.9800
L3.8600 2.3800
" />
<path d="M3.8600 1.9800
L3.9600 2.0800
" />
<path d="M3.8600 1.9800
L4.2600 1.9800
" />
<path d="M3.8600 2.3800
L3.9600 2.2800
" />
<path d="M3.8600 2.3800
L4.2600 2.3800
" />
<path d="M3.8600 3.2500
L3.8600 3.6500
" />
<path d="M3.8600 3.2500
L3.9600 3.3500
" />
<path d="M3.8600 3.2500
L4.2600 3.2500
" />
<path d="M3.8600 3.6500
L3.9600 3.5500
" />
<path d="M3.8600 3.6500
L4.2600 3.6500
" />
<path d="M3.8600 4.5200
L3.8600 4.9200
" />
<path d="M3.8600 4.5200
L3.9600 4.6200
" />
<path d="M3.8600 4.5200
L4.2600 4.5200
" />
<path d="M3.8600 4.9200
L3.9600 4.8200
" />
<path d="M3.8600 4.9200
L4.2600 4.9200
" />
<path d="M3.9600 0.8100
L3.9600 1.0100
" />
<path d="M3.9600 0.8100
L4.1600 0.8100
" />
<path d="M3.9600 1.0100
L4.1600 1.0100
" />
<path d="M3.9600 2.0800
L3.9600 2.2800
" />
<path d="M3.9600 2.0800
L4.1600 2.0800
" />
<path d="M3.9600 2.2800
L4.1600 2.2800
" />
<path d="M3.9600 3.3500
L3.9600 3.5500
" />
<path d="M3.9600 3.3500
L4.1600 3.3500
" />
<path d="M3.9600 3.5500
L4.1600 3.5500
" />
<path d="M3.9600 4.6200
L3.9600 4.8200
" />
<path d="M3.9600 4.6200
L4.1600 4.6200
" />
<path d="M3.9600 4.8200
L4.1600 4.8200
" />
<path d="M4.1600 0.8100
L4.1600 1.0100
" />
<path d="M4.1600 2.0800
L4.1600 2.2800
" />
<path d="M4.1600 3.3500
L4.1600 3.5500
" />
<path d="M4.1600 4.6200
L4.1600 4.8200
" />
<path d="M4.2600 0.7100
L4.1600 0.8100
" />
<path d="M4.2600 0.7100
L4.2600 1.1100
" />
<path d="M4.2600 1.1100
L4.1600 1.0100
" />
<path d="M4.2600 1.9800
L4.1600 2.0800
" />
<path d="M4.2600 1.9800
L4.2600 2.3800
" />
<path d="M4.2600 2.3800
L4.1600 2.2800
" />
<path d="M4.2600 3.2500
L4.1600 3.3500
" />
<path d="M4.2600 3.2500
L4.2600 3.6500
" />
<path d="M4.2600 3.6500
L4.1600 3.5500
" />
<path d="M4.2600 4.5200
L4.1600 4.6200
" />
<path d="M4.2600 4.5200
L4.2600 4.9200
" />
<path d="M4.2600 4.9200
L4.1600 4.8200
" />
<path d="M4.9980 0.2750
L1.8520 0.2750
" />
<path d="M4.9980 1.5450
L5.1250 1.4180
" />
<path d="M4.9980 2.8150
L5.1250 2.6880
" />
<path d="M4.9980 4.0850
L5.1250 3.9580
" />
<path d="M4.9980 5.3550
L5.1250 5.2280
" />
<path d="M5.1250 0.4020
L4.9980 0.2750
" />
<path d="M5.1250 0.7100
L6.1100 0.7100
" />
<path d="M5.1250 1.1100
L6.1100 1.1100
" />
<path d="M5.1250 1.4180
L5.1250 0.4020
" />
<path d="M5.1250 1.6720
L4.9980 1.5450
" />
<path d="M5.1250 1.9800
L6.1100 1.9800
" />
<path d="M5.1250 2.3800
L6.1100 2.3800
" />
<path d="M5.1250 2.6880
L5.1250 1.6720
" />
<path d="M5.1250 2.9420
L4.9980 2.8150
" />
<path d="M5.1250 3.2500
L6.1100 3.2500
" />
<path d="M5.1250 3.6500
L6.1100 3.6500
" />
<path d="M5.1250 3.9580
L5.1250 2.9420
" />
<path d="M5.1250 4.2120
L4.9980 4.0850
" />
<path d="M5.1250 4.5200
L6.1100 4.5200
" />
<path d="M5.1250 4.9200
L6.1100 4.9200
" />
<path d="M5.1250 5.2280
L5.1250 4.2120
" />
<path d="M6.1100 0.7100
L6.1100 1.1100
" />
<path d="M6.1100 0.7100
L6.2100 0.8100
" />
<path d="M6.1100 1.1100
L6.2100 1.0100
" />
<path d="M6.1100 1.9800
L6.1100 2.3800
" />
<path d="M6.1100 1.9800
L6.2100 2.0800
" />
<path d="M6.1100 2.3800
L6.2100 2.2800
" />
<path d="M6.1100 3.2500
L6.1100 3.6500
" />
<path d="M6.1100 3.2500
L6.2100 3.3500
" />
<path d="M6.1100 3.6500
L6.2100 3.5500
" />
<path d="M6.1100 4.5200
L6.1100 4.9200
" />
<path d="M6.1100 4.5200
L6.2100 4.6200
" />
<path d="M6.1100 4.9200
L6.2100 4.8200
" />
<path d="M6.2100 0.8100
L6.2100 1.0100
" />
<path d="M6.2100 2.0800
L6.2100 2.2800
" />
<path d="M6.2100 3.3500
L6.2100 3.5500
" />
<path d="M6.2100 4.6200
L6.2100 4.8200
" />
</g> 
</svg>
