<?xml version="1.0" standalone="no"?>
 <!DOCTYPE svg PUBLIC "-//W3C//DTD SVG 1.1//EN" 
 "http://www.w3.org/Graphics/SVG/1.1/DTD/svg11.dtd"> 
<svg
  xmlns:svg="http://www.w3.org/2000/svg"
  xmlns="http://www.w3.org/2000/svg"
  xmlns:xlink="http://www.w3.org/1999/xlink"
  version="1.1"
  width="3.9878mm" height="3.3020mm" viewBox="0.0000 0.0000 3.9878 3.3020">
<title>SVG Image created as outline.svg date 2025/04/04 10:06:16 </title>
  <desc>Image generated by PCBNEW </desc>
<g style="fill:#000000; fill-opacity:1.0000;stroke:#000000; stroke-opacity:1.0000;
stroke-linecap:round; stroke-linejoin:round;"
 transform="translate(0 0) scale(1 1)">
</g>
<g style="fill:none; 
stroke:#000000; stroke-width:0.0200; stroke-opacity:1; 
stroke-linecap:round; stroke-linejoin:round;">
<path d="M0.4950 0.5540
L0.4950 0.7940
" />
<path d="M0.4950 0.7940
L0.5050 0.7940
" />
<path d="M0.4950 1.0540
L0.4950 1.2950
" />
<path d="M0.4950 1.2950
L0.5050 1.2950
" />
<path d="M0.4950 1.5540
L0.4950 1.7940
" />
<path d="M0.4950 1.7940
L0.5050 1.7940
" />
<path d="M0.4950 2.0530
L0.4950 2.2930
" />
<path d="M0.4950 2.2930
L0.5050 2.2930
" />
<path d="M0.4950 2.5530
L0.4950 2.7950
" />
<path d="M0.4950 2.7950
L0.5050 2.7950
" />
<path d="M0.5050 0.1850
L0.5050 3.1640
" />
<path d="M0.5050 0.1850
L3.4840 0.1850
" />
<path d="M0.5050 0.5540
L0.4950 0.5540
" />
<path d="M0.5050 1.0540
L0.4950 1.0540
" />
<path d="M0.5050 1.5540
L0.4950 1.5540
" />
<path d="M0.5050 2.0530
L0.4950 2.0530
" />
<path d="M0.5050 2.5530
L0.4950 2.5530
" />
<path d="M0.5050 3.1640
L3.4840 3.1640
" />
<path d="M0.8940 0.8580
L0.8940 0.8730
" />
</g>
<g style="fill:#000000; fill-opacity:1.0000; stroke:none;">
<circle cx="0.8940" cy="0.8730" r="0.0100" /> 
</g>
<g style="fill:none; 
stroke:#000000; stroke-width:0.0200; stroke-opacity:1; 
stroke-linecap:round; stroke-linejoin:round;">
<path d="M0.8940 0.8730
L0.8940 0.8890
" />
<path d="M0.8940 0.8890
L0.8960 0.9040
" />
<path d="M0.8960 0.8430
L0.8940 0.8580
" />
<path d="M0.8960 0.9040
L0.8980 0.9200
" />
<path d="M0.8980 0.8290
L0.8960 0.8430
" />
<path d="M0.8980 0.9200
L0.9000 0.9350
" />
<path d="M0.9000 0.8140
L0.8980 0.8290
" />
<path d="M0.9000 0.9350
L0.9040 0.9490
" />
<path d="M0.9040 0.8000
L0.9000 0.8140
" />
<path d="M0.9040 0.9490
L0.9080 0.9640
" />
<path d="M0.9080 0.7850
L0.9040 0.8000
" />
<path d="M0.9080 0.9640
L0.9120 0.9770
" />
<path d="M0.9120 0.7700
L0.9080 0.7850
" />
<path d="M0.9120 0.9770
L0.9180 0.9900
" />
<path d="M0.9180 0.7570
L0.9120 0.7700
" />
<path d="M0.9180 0.9900
L0.9240 1.0040
" />
<path d="M0.9240 0.7430
L0.9180 0.7570
" />
<path d="M0.9240 1.0040
L0.9300 1.0160
" />
<path d="M0.9300 0.7310
L0.9240 0.7430
" />
<path d="M0.9300 1.0160
L0.9380 1.0290
" />
<path d="M0.9380 0.7180
L0.9300 0.7310
" />
<path d="M0.9380 1.0290
L0.9460 1.0420
" />
<path d="M0.9460 0.7070
L0.9380 0.7180
" />
<path d="M0.9460 1.0420
L0.9540 1.0540
" />
<path d="M0.9540 0.6950
L0.9460 0.7070
" />
<path d="M0.9540 1.0540
L0.9620 1.0650
" />
<path d="M0.9620 0.6840
L0.9540 0.6950
" />
<path d="M0.9620 1.0650
L0.9710 1.0760
" />
<path d="M0.9710 0.6730
L0.9620 0.6840
" />
<path d="M0.9710 1.0760
L0.9810 1.0870
" />
<path d="M0.9810 0.6610
L0.9710 0.6730
" />
<path d="M0.9810 1.0870
L0.9930 1.0970
" />
<path d="M0.9930 0.6510
L0.9810 0.6610
" />
<path d="M0.9930 1.0970
L1.0040 1.1050
" />
<path d="M1.0040 0.6420
L0.9930 0.6510
" />
<path d="M1.0040 1.1050
L1.0150 1.1140
" />
<path d="M1.0150 0.6340
L1.0040 0.6420
" />
<path d="M1.0150 1.1140
L1.0270 1.1220
" />
<path d="M1.0270 0.6260
L1.0150 0.6340
" />
<path d="M1.0270 1.1220
L1.0380 1.1300
" />
<path d="M1.0380 0.6180
L1.0270 0.6260
" />
<path d="M1.0380 1.1300
L1.0510 1.1370
" />
<path d="M1.0510 0.6100
L1.0380 0.6180
" />
<path d="M1.0510 1.1370
L1.0630 1.1440
" />
<path d="M1.0630 0.6040
L1.0510 0.6100
" />
<path d="M1.0630 1.1440
L1.0770 1.1500
" />
<path d="M1.0770 0.5980
L1.0630 0.6040
" />
<path d="M1.0770 1.1500
L1.0900 1.1550
" />
<path d="M1.0900 0.5920
L1.0770 0.5980
" />
<path d="M1.0900 1.1550
L1.1050 1.1600
" />
<path d="M1.1050 0.5880
L1.0900 0.5920
" />
<path d="M1.1050 1.1600
L1.1200 1.1650
" />
<path d="M1.1200 0.5840
L1.1050 0.5880
" />
<path d="M1.1200 1.1650
L1.1340 1.1680
" />
<path d="M1.1340 0.5800
L1.1200 0.5840
" />
<path d="M1.1340 1.1680
L1.1490 1.1710
" />
<path d="M1.1490 0.5780
L1.1340 0.5800
" />
<path d="M1.1490 1.1710
L1.1630 1.1730
" />
<path d="M1.1630 0.5760
L1.1490 0.5780
" />
<path d="M1.1630 1.1730
L1.1780 1.1740
" />
<path d="M1.1780 0.5740
L1.1630 0.5760
" />
<path d="M1.1780 1.1740
L1.1940 1.1750
" />
<path d="M1.1940 0.5740
L1.1780 0.5740
" />
</g>
<g style="fill:#000000; fill-opacity:1.0000; stroke:none;">
<circle cx="1.1940" cy="0.5740" r="0.0100" /> 
<circle cx="1.1940" cy="1.1750" r="0.0100" /> 
</g>
<g style="fill:none; 
stroke:#000000; stroke-width:0.0200; stroke-opacity:1; 
stroke-linecap:round; stroke-linejoin:round;">
<path d="M1.1940 1.1750
L1.2090 1.1740
" />
<path d="M1.2090 0.5740
L1.1940 0.5740
" />
<path d="M1.2090 1.1740
L1.2240 1.1730
" />
<path d="M1.2240 0.5760
L1.2090 0.5740
" />
<path d="M1.2240 1.1730
L1.2400 1.1710
" />
<path d="M1.2400 0.5780
L1.2240 0.5760
" />
<path d="M1.2400 1.1710
L1.2550 1.1680
" />
<path d="M1.2550 0.5800
L1.2400 0.5780
" />
<path d="M1.2550 1.1680
L1.2690 1.1650
" />
<path d="M1.2690 0.5840
L1.2550 0.5800
" />
<path d="M1.2690 1.1650
L1.2840 1.1600
" />
<path d="M1.2840 0.5880
L1.2690 0.5840
" />
<path d="M1.2840 1.1600
L1.2970 1.1550
" />
<path d="M1.2970 0.5920
L1.2840 0.5880
" />
<path d="M1.2970 1.1550
L1.3100 1.1500
" />
<path d="M1.3100 0.5980
L1.2970 0.5920
" />
<path d="M1.3100 1.1500
L1.3240 1.1440
" />
<path d="M1.3240 0.6040
L1.3100 0.5980
" />
<path d="M1.3240 1.1440
L1.3360 1.1370
" />
<path d="M1.3360 0.6100
L1.3240 0.6040
" />
<path d="M1.3360 1.1370
L1.3490 1.1300
" />
<path d="M1.3490 0.6180
L1.3360 0.6100
" />
<path d="M1.3490 1.1300
L1.3620 1.1220
" />
<path d="M1.3620 0.6260
L1.3490 0.6180
" />
<path d="M1.3620 1.1220
L1.3740 1.1140
" />
<path d="M1.3740 0.6340
L1.3620 0.6260
" />
<path d="M1.3740 1.1140
L1.3850 1.1050
" />
<path d="M1.3850 0.6420
L1.3740 0.6340
" />
<path d="M1.3850 1.1050
L1.3960 1.0970
" />
<path d="M1.3960 0.6510
L1.3850 0.6420
" />
<path d="M1.3960 1.0970
L1.4070 1.0870
" />
<path d="M1.4070 0.6610
L1.3960 0.6510
" />
<path d="M1.4070 1.0870
L1.4170 1.0760
" />
<path d="M1.4170 0.6730
L1.4070 0.6610
" />
<path d="M1.4170 1.0760
L1.4250 1.0650
" />
<path d="M1.4250 0.6840
L1.4170 0.6730
" />
<path d="M1.4250 1.0650
L1.4340 1.0540
" />
<path d="M1.4340 0.6950
L1.4250 0.6840
" />
<path d="M1.4340 1.0540
L1.4420 1.0420
" />
<path d="M1.4420 0.7070
L1.4340 0.6950
" />
<path d="M1.4420 1.0420
L1.4500 1.0290
" />
<path d="M1.4500 0.7180
L1.4420 0.7070
" />
<path d="M1.4500 1.0290
L1.4570 1.0160
" />
<path d="M1.4570 0.7310
L1.4500 0.7180
" />
<path d="M1.4570 1.0160
L1.4640 1.0040
" />
<path d="M1.4640 0.7430
L1.4570 0.7310
" />
<path d="M1.4640 1.0040
L1.4700 0.9900
" />
<path d="M1.4700 0.7570
L1.4640 0.7430
" />
<path d="M1.4700 0.9900
L1.4750 0.9770
" />
<path d="M1.4750 0.7700
L1.4700 0.7570
" />
<path d="M1.4750 0.9770
L1.4800 0.9640
" />
<path d="M1.4800 0.7850
L1.4750 0.7700
" />
<path d="M1.4800 0.9640
L1.4850 0.9490
" />
<path d="M1.4850 0.8000
L1.4800 0.7850
" />
<path d="M1.4850 0.9490
L1.4880 0.9350
" />
<path d="M1.4880 0.8140
L1.4850 0.8000
" />
<path d="M1.4880 0.9350
L1.4910 0.9200
" />
<path d="M1.4910 0.8290
L1.4880 0.8140
" />
<path d="M1.4910 0.9200
L1.4930 0.9040
" />
<path d="M1.4930 0.8430
L1.4910 0.8290
" />
<path d="M1.4930 0.9040
L1.4940 0.8890
" />
<path d="M1.4940 0.8580
L1.4930 0.8430
" />
<path d="M1.4940 0.8890
L1.4950 0.8730
" />
<path d="M1.4950 0.8730
L1.4940 0.8580
" />
</g>
<g style="fill:#000000; fill-opacity:1.0000; stroke:none;">
<circle cx="1.4950" cy="0.8730" r="0.0100" /> 
<circle cx="1.4950" cy="0.8730" r="0.0100" /> 
</g>
<g style="fill:none; 
stroke:#000000; stroke-width:0.0200; stroke-opacity:1; 
stroke-linecap:round; stroke-linejoin:round;">
<path d="M1.6250 0.1750
L1.6250 0.1850
" />
<path d="M1.6250 3.1640
L1.6250 3.1740
" />
<path d="M1.6250 3.1740
L1.8640 3.1740
" />
<path d="M1.8640 0.1750
L1.6250 0.1750
" />
<path d="M1.8640 0.1850
L1.8640 0.1750
" />
<path d="M1.8640 3.1740
L1.8640 3.1640
" />
<path d="M2.1250 0.1750
L2.1250 0.1850
" />
<path d="M2.1250 3.1640
L2.1250 3.1740
" />
<path d="M2.1250 3.1740
L2.3630 3.1740
" />
<path d="M2.3630 0.1750
L2.1250 0.1750
" />
<path d="M2.3630 0.1850
L2.3630 0.1750
" />
<path d="M2.3630 3.1740
L2.3630 3.1640
" />
<path d="M3.4840 0.1850
L3.4840 3.1640
" />
<path d="M3.4840 0.7940
L3.4940 0.7940
" />
<path d="M3.4840 1.2950
L3.4940 1.2950
" />
<path d="M3.4840 1.7940
L3.4940 1.7940
" />
<path d="M3.4840 2.2930
L3.4940 2.2930
" />
<path d="M3.4840 2.7950
L3.4940 2.7950
" />
<path d="M3.4940 0.5540
L3.4840 0.5540
" />
<path d="M3.4940 0.7940
L3.4940 0.5540
" />
<path d="M3.4940 1.0540
L3.4840 1.0540
" />
<path d="M3.4940 1.2950
L3.4940 1.0540
" />
<path d="M3.4940 1.5540
L3.4840 1.5540
" />
<path d="M3.4940 1.7940
L3.4940 1.5540
" />
<path d="M3.4940 2.0530
L3.4840 2.0530
" />
<path d="M3.4940 2.2930
L3.4940 2.0530
" />
<path d="M3.4940 2.5530
L3.4840 2.5530
" />
<path d="M3.4940 2.7950
L3.4940 2.5530
" />
</g> 
</svg>
