<?xml version="1.0" standalone="no"?>
 <!DOCTYPE svg PUBLIC "-//W3C//DTD SVG 1.1//EN" 
 "http://www.w3.org/Graphics/SVG/1.1/DTD/svg11.dtd"> 
<svg
  xmlns:svg="http://www.w3.org/2000/svg"
  xmlns="http://www.w3.org/2000/svg"
  xmlns:xlink="http://www.w3.org/1999/xlink"
  version="1.1"
  width="10.8458mm" height="10.8458mm" viewBox="0.0000 0.0000 10.8458 10.8458">
<title>SVG Image created as outline.svg date 2025/04/04 10:06:08 </title>
  <desc>Image generated by PCBNEW </desc>
<g style="fill:#000000; fill-opacity:1.0000;stroke:#000000; stroke-opacity:1.0000;
stroke-linecap:round; stroke-linejoin:round;"
 transform="translate(0 0) scale(1 1)">
</g>
<g style="fill:none; 
stroke:#000000; stroke-width:0.0200; stroke-opacity:1; 
stroke-linecap:round; stroke-linejoin:round;">
<path d="M0.4210 0.4210
L0.4210 10.4290
" />
<path d="M0.4210 10.4290
L10.4290 10.4290
" />
<path d="M1.1720 1.4090
L1.1720 1.4220
" />
</g>
<g style="fill:#000000; fill-opacity:1.0000; stroke:none;">
<circle cx="1.1720" cy="1.4220" r="0.0100" /> 
</g>
<g style="fill:none; 
stroke:#000000; stroke-width:0.0200; stroke-opacity:1; 
stroke-linecap:round; stroke-linejoin:round;">
<path d="M1.1720 1.4220
L1.1720 1.4350
" />
<path d="M1.1720 1.4350
L1.1730 1.4480
" />
<path d="M1.1730 1.3960
L1.1720 1.4090
" />
<path d="M1.1730 1.4480
L1.1750 1.4600
" />
<path d="M1.1750 1.3840
L1.1730 1.3960
" />
<path d="M1.1750 1.4600
L1.1770 1.4720
" />
<path d="M1.1770 1.3720
L1.1750 1.3840
" />
<path d="M1.1770 1.4720
L1.1800 1.4850
" />
<path d="M1.1800 1.3590
L1.1770 1.3720
" />
<path d="M1.1800 1.4850
L1.1830 1.4960
" />
<path d="M1.1830 1.3480
L1.1800 1.3590
" />
<path d="M1.1830 1.4960
L1.1870 1.5080
" />
<path d="M1.1870 1.3360
L1.1830 1.3480
" />
<path d="M1.1870 1.5080
L1.1910 1.5190
" />
<path d="M1.1910 1.3250
L1.1870 1.3360
" />
<path d="M1.1910 1.5190
L1.1960 1.5300
" />
<path d="M1.1960 1.3140
L1.1910 1.3250
" />
<path d="M1.1960 1.5300
L1.2020 1.5410
" />
<path d="M1.2020 1.3030
L1.1960 1.3140
" />
<path d="M1.2020 1.5410
L1.2080 1.5520
" />
<path d="M1.2080 1.2920
L1.2020 1.3030
" />
<path d="M1.2080 1.5520
L1.2150 1.5620
" />
<path d="M1.2150 1.2820
L1.2080 1.2920
" />
<path d="M1.2150 1.5620
L1.2220 1.5720
" />
<path d="M1.2220 1.2720
L1.2150 1.2820
" />
<path d="M1.2220 1.5720
L1.2290 1.5810
" />
<path d="M1.2290 1.2630
L1.2220 1.2720
" />
<path d="M1.2290 1.5810
L1.2370 1.5900
" />
<path d="M1.2370 1.2540
L1.2290 1.2630
" />
<path d="M1.2370 1.5900
L1.2450 1.5990
" />
<path d="M1.2450 1.2450
L1.2370 1.2540
" />
<path d="M1.2450 1.5990
L1.2540 1.6070
" />
<path d="M1.2540 1.2370
L1.2450 1.2450
" />
<path d="M1.2540 1.6070
L1.2630 1.6150
" />
<path d="M1.2630 1.2290
L1.2540 1.2370
" />
<path d="M1.2630 1.6150
L1.2720 1.6220
" />
<path d="M1.2720 1.2220
L1.2630 1.2290
" />
<path d="M1.2720 1.6220
L1.2820 1.6290
" />
<path d="M1.2820 1.2150
L1.2720 1.2220
" />
<path d="M1.2820 1.6290
L1.2920 1.6360
" />
<path d="M1.2920 1.2080
L1.2820 1.2150
" />
<path d="M1.2920 1.6360
L1.3030 1.6420
" />
<path d="M1.3030 1.2020
L1.2920 1.2080
" />
<path d="M1.3030 1.6420
L1.3140 1.6480
" />
<path d="M1.3140 1.1960
L1.3030 1.2020
" />
<path d="M1.3140 1.6480
L1.3250 1.6530
" />
<path d="M1.3250 1.1910
L1.3140 1.1960
" />
<path d="M1.3250 1.6530
L1.3360 1.6570
" />
<path d="M1.3360 1.1870
L1.3250 1.1910
" />
<path d="M1.3360 1.6570
L1.3480 1.6610
" />
<path d="M1.3480 1.1830
L1.3360 1.1870
" />
<path d="M1.3480 1.6610
L1.3590 1.6640
" />
<path d="M1.3590 1.1800
L1.3480 1.1830
" />
<path d="M1.3590 1.6640
L1.3720 1.6670
" />
<path d="M1.3720 1.1770
L1.3590 1.1800
" />
<path d="M1.3720 1.6670
L1.3840 1.6690
" />
<path d="M1.3840 1.1750
L1.3720 1.1770
" />
<path d="M1.3840 1.6690
L1.3960 1.6710
" />
<path d="M1.3960 1.1730
L1.3840 1.1750
" />
<path d="M1.3960 1.6710
L1.4090 1.6720
" />
<path d="M1.4090 1.1720
L1.3960 1.1730
" />
<path d="M1.4090 1.6720
L1.4220 1.6720
" />
<path d="M1.4220 1.1720
L1.4090 1.1720
" />
</g>
<g style="fill:#000000; fill-opacity:1.0000; stroke:none;">
<circle cx="1.4220" cy="1.1720" r="0.0100" /> 
<circle cx="1.4220" cy="1.6720" r="0.0100" /> 
</g>
<g style="fill:none; 
stroke:#000000; stroke-width:0.0200; stroke-opacity:1; 
stroke-linecap:round; stroke-linejoin:round;">
<path d="M1.4220 1.6720
L1.4350 1.6720
" />
<path d="M1.4350 1.1720
L1.4220 1.1720
" />
<path d="M1.4350 1.6720
L1.4480 1.6710
" />
<path d="M1.4480 1.1730
L1.4350 1.1720
" />
<path d="M1.4480 1.6710
L1.4600 1.6690
" />
<path d="M1.4600 1.1750
L1.4480 1.1730
" />
<path d="M1.4600 1.6690
L1.4720 1.6670
" />
<path d="M1.4720 1.1770
L1.4600 1.1750
" />
<path d="M1.4720 1.6670
L1.4850 1.6640
" />
<path d="M1.4850 1.1800
L1.4720 1.1770
" />
<path d="M1.4850 1.6640
L1.4960 1.6610
" />
<path d="M1.4960 1.1830
L1.4850 1.1800
" />
<path d="M1.4960 1.6610
L1.5080 1.6570
" />
<path d="M1.5080 1.1870
L1.4960 1.1830
" />
<path d="M1.5080 1.6570
L1.5190 1.6530
" />
<path d="M1.5190 1.1910
L1.5080 1.1870
" />
<path d="M1.5190 1.6530
L1.5300 1.6480
" />
<path d="M1.5300 1.1960
L1.5190 1.1910
" />
<path d="M1.5300 1.6480
L1.5410 1.6420
" />
<path d="M1.5410 1.2020
L1.5300 1.1960
" />
<path d="M1.5410 1.6420
L1.5520 1.6360
" />
<path d="M1.5520 1.2080
L1.5410 1.2020
" />
<path d="M1.5520 1.6360
L1.5620 1.6290
" />
<path d="M1.5620 1.2150
L1.5520 1.2080
" />
<path d="M1.5620 1.6290
L1.5720 1.6220
" />
<path d="M1.5720 1.2220
L1.5620 1.2150
" />
<path d="M1.5720 1.6220
L1.5810 1.6150
" />
<path d="M1.5810 1.2290
L1.5720 1.2220
" />
<path d="M1.5810 1.6150
L1.5900 1.6070
" />
<path d="M1.5900 1.2370
L1.5810 1.2290
" />
<path d="M1.5900 1.6070
L1.5990 1.5990
" />
<path d="M1.5990 1.2450
L1.5900 1.2370
" />
<path d="M1.5990 1.5990
L1.6070 1.5900
" />
<path d="M1.6070 1.2540
L1.5990 1.2450
" />
<path d="M1.6070 1.5900
L1.6150 1.5810
" />
<path d="M1.6150 1.2630
L1.6070 1.2540
" />
<path d="M1.6150 1.5810
L1.6220 1.5720
" />
<path d="M1.6220 1.2720
L1.6150 1.2630
" />
<path d="M1.6220 1.5720
L1.6290 1.5620
" />
<path d="M1.6290 1.2820
L1.6220 1.2720
" />
<path d="M1.6290 1.5620
L1.6360 1.5520
" />
<path d="M1.6360 1.2920
L1.6290 1.2820
" />
<path d="M1.6360 1.5520
L1.6420 1.5410
" />
<path d="M1.6420 1.3030
L1.6360 1.2920
" />
<path d="M1.6420 1.5410
L1.6480 1.5300
" />
<path d="M1.6480 1.3140
L1.6420 1.3030
" />
<path d="M1.6480 1.5300
L1.6530 1.5190
" />
<path d="M1.6530 1.3250
L1.6480 1.3140
" />
<path d="M1.6530 1.5190
L1.6570 1.5080
" />
<path d="M1.6570 1.3360
L1.6530 1.3250
" />
<path d="M1.6570 1.5080
L1.6610 1.4960
" />
<path d="M1.6610 1.3480
L1.6570 1.3360
" />
<path d="M1.6610 1.4960
L1.6640 1.4850
" />
<path d="M1.6640 1.3590
L1.6610 1.3480
" />
<path d="M1.6640 1.4850
L1.6670 1.4720
" />
<path d="M1.6670 1.3720
L1.6640 1.3590
" />
<path d="M1.6670 1.4720
L1.6690 1.4600
" />
<path d="M1.6690 1.3840
L1.6670 1.3720
" />
<path d="M1.6690 1.4600
L1.6710 1.4480
" />
<path d="M1.6710 1.3960
L1.6690 1.3840
" />
<path d="M1.6710 1.4480
L1.6720 1.4350
" />
<path d="M1.6720 1.4090
L1.6710 1.3960
" />
<path d="M1.6720 1.4220
L1.6720 1.4090
" />
</g>
<g style="fill:#000000; fill-opacity:1.0000; stroke:none;">
<circle cx="1.6720" cy="1.4220" r="0.0100" /> 
<circle cx="1.6720" cy="1.4220" r="0.0100" /> 
</g>
<g style="fill:none; 
stroke:#000000; stroke-width:0.0200; stroke-opacity:1; 
stroke-linecap:round; stroke-linejoin:round;">
<path d="M1.6720 1.4350
L1.6720 1.4220
" />
<path d="M10.4290 0.4210
L0.4210 0.4210
" />
<path d="M10.4290 10.4290
L10.4290 0.4210
" />
</g> 
</svg>
