<?xml version="1.0" standalone="no"?>
 <!DOCTYPE svg PUBLIC "-//W3C//DTD SVG 1.1//EN" 
 "http://www.w3.org/Graphics/SVG/1.1/DTD/svg11.dtd"> 
<svg
  xmlns:svg="http://www.w3.org/2000/svg"
  xmlns="http://www.w3.org/2000/svg"
  xmlns:xlink="http://www.w3.org/1999/xlink"
  version="1.1"
  width="5.0292mm" height="5.0292mm" viewBox="0.0000 0.0000 5.0292 5.0292">
<title>SVG Image created as outline.svg date 2025/04/04 10:06:31 </title>
  <desc>Image generated by PCBNEW </desc>
<g style="fill:#000000; fill-opacity:1.0000;stroke:#000000; stroke-opacity:1.0000;
stroke-linecap:round; stroke-linejoin:round;"
 transform="translate(0 0) scale(1 1)">
</g>
<g style="fill:none; 
stroke:#000000; stroke-width:0.0200; stroke-opacity:1; 
stroke-linecap:round; stroke-linejoin:round;">
<path d="M0.5250 0.5250
L0.5250 4.5240
" />
<path d="M0.5250 4.5240
L4.5240 4.5240
" />
<path d="M0.8740 1.1070
L0.8740 1.1150
" />
<path d="M0.8740 1.1150
L0.8740 1.1240
" />
<path d="M0.8740 1.1240
L0.8740 1.1400
" />
<path d="M0.8740 1.1400
L0.8760 1.1580
" />
<path d="M0.8760 1.0910
L0.8760 1.0990
" />
<path d="M0.8760 1.0990
L0.8740 1.1070
" />
<path d="M0.8760 1.1580
L0.8780 1.1740
" />
<path d="M0.8780 1.0750
L0.8780 1.0830
" />
<path d="M0.8780 1.0830
L0.8760 1.0910
" />
<path d="M0.8780 1.1740
L0.8820 1.1900
" />
<path d="M0.8800 1.0670
L0.8780 1.0750
" />
<path d="M0.8820 1.0590
L0.8800 1.0670
" />
<path d="M0.8820 1.1900
L0.8880 1.2040
" />
<path d="M0.8840 1.0510
L0.8820 1.0590
" />
<path d="M0.8880 1.0430
L0.8840 1.0510
" />
<path d="M0.8880 1.2040
L0.8940 1.2200
" />
<path d="M0.8900 1.0350
L0.8880 1.0430
" />
<path d="M0.8940 1.0290
L0.8900 1.0350
" />
<path d="M0.8940 1.2200
L0.9000 1.2340
" />
<path d="M0.8960 1.0210
L0.8940 1.0290
" />
<path d="M0.9000 1.0130
L0.8960 1.0210
" />
<path d="M0.9000 1.2340
L0.9080 1.2490
" />
<path d="M0.9040 1.0070
L0.9000 1.0130
" />
<path d="M0.9080 0.9990
L0.9040 1.0070
" />
<path d="M0.9080 1.2490
L0.9160 1.2630
" />
<path d="M0.9120 0.9930
L0.9080 0.9990
" />
<path d="M0.9160 0.9860
L0.9120 0.9930
" />
<path d="M0.9160 1.2630
L0.9260 1.2750
" />
<path d="M0.9200 0.9780
L0.9160 0.9860
" />
<path d="M0.9260 0.9720
L0.9200 0.9780
" />
<path d="M0.9260 1.2750
L0.9360 1.2890
" />
<path d="M0.9300 0.9660
L0.9260 0.9720
" />
<path d="M0.9360 0.9600
L0.9300 0.9660
" />
<path d="M0.9360 1.2890
L0.9460 1.3010
" />
<path d="M0.9420 0.9540
L0.9360 0.9600
" />
<path d="M0.9460 0.9480
L0.9420 0.9540
" />
<path d="M0.9460 1.3010
L0.9580 1.3110
" />
<path d="M0.9520 0.9420
L0.9460 0.9480
" />
<path d="M0.9580 0.9360
L0.9520 0.9420
" />
<path d="M0.9580 1.3110
L0.9720 1.3230
" />
<path d="M0.9640 0.9320
L0.9580 0.9360
" />
<path d="M0.9720 0.9260
L0.9640 0.9320
" />
<path d="M0.9720 1.3230
L0.9840 1.3310
" />
<path d="M0.9780 0.9220
L0.9720 0.9260
" />
<path d="M0.9840 0.9160
L0.9780 0.9220
" />
<path d="M0.9840 1.3310
L0.9990 1.3410
" />
<path d="M0.9910 0.9120
L0.9840 0.9160
" />
<path d="M0.9990 0.9080
L0.9910 0.9120
" />
</g>
<g style="fill:#000000; fill-opacity:1.0000; stroke:none;">
<circle cx="0.9990" cy="0.9080" r="0.0100" /> 
<circle cx="0.9990" cy="1.3410" r="0.0100" /> 
</g>
<g style="fill:none; 
stroke:#000000; stroke-width:0.0200; stroke-opacity:1; 
stroke-linecap:round; stroke-linejoin:round;">
<path d="M0.9990 1.3410
L1.0130 1.3490
" />
<path d="M1.0130 0.9000
L0.9990 0.9080
" />
<path d="M1.0130 1.3490
L1.0290 1.3550
" />
<path d="M1.0290 0.8920
L1.0130 0.9000
" />
<path d="M1.0290 1.3550
L1.0450 1.3610
" />
<path d="M1.0450 0.8880
L1.0290 0.8920
" />
<path d="M1.0450 1.3610
L1.0590 1.3650
" />
<path d="M1.0590 0.8820
L1.0450 0.8880
" />
<path d="M1.0590 1.3650
L1.0750 1.3690
" />
<path d="M1.0750 0.8780
L1.0590 0.8820
" />
<path d="M1.0750 1.3690
L1.0910 1.3710
" />
<path d="M1.0910 0.8760
L1.0750 0.8780
" />
<path d="M1.0910 1.3710
L1.1070 1.3740
" />
<path d="M1.1070 0.8740
L1.0910 0.8760
" />
<path d="M1.1070 1.3740
L1.1240 1.3740
" />
<path d="M1.1240 0.8740
L1.1070 0.8740
" />
<path d="M1.1240 1.3740
L1.1400 1.3740
" />
<path d="M1.1400 0.8740
L1.1240 0.8740
" />
<path d="M1.1400 1.3740
L1.1560 1.3710
" />
<path d="M1.1560 0.8760
L1.1400 0.8740
" />
<path d="M1.1560 1.3710
L1.1720 1.3690
" />
<path d="M1.1720 0.8780
L1.1560 0.8760
" />
<path d="M1.1720 1.3690
L1.1880 1.3650
" />
<path d="M1.1880 0.8820
L1.1720 0.8780
" />
<path d="M1.1880 1.3650
L1.2040 1.3610
" />
<path d="M1.2040 0.8880
L1.1880 0.8820
" />
<path d="M1.2040 1.3610
L1.2200 1.3550
" />
<path d="M1.2200 0.8920
L1.2040 0.8880
" />
<path d="M1.2200 1.3550
L1.2340 1.3490
" />
<path d="M1.2340 0.9000
L1.2200 0.8920
" />
<path d="M1.2340 1.3490
L1.2490 1.3410
" />
<path d="M1.2490 0.9080
L1.2340 0.9000
" />
</g>
<g style="fill:#000000; fill-opacity:1.0000; stroke:none;">
<circle cx="1.2490" cy="0.9080" r="0.0100" /> 
<circle cx="1.2490" cy="1.3410" r="0.0100" /> 
</g>
<g style="fill:none; 
stroke:#000000; stroke-width:0.0200; stroke-opacity:1; 
stroke-linecap:round; stroke-linejoin:round;">
<path d="M1.2490 1.3410
L1.2570 1.3370
" />
<path d="M1.2570 1.3370
L1.2630 1.3310
" />
<path d="M1.2630 0.9160
L1.2490 0.9080
" />
<path d="M1.2630 1.3310
L1.2690 1.3270
" />
<path d="M1.2690 1.3270
L1.2770 1.3230
" />
<path d="M1.2770 0.9260
L1.2630 0.9160
" />
<path d="M1.2770 1.3230
L1.2830 1.3170
" />
<path d="M1.2830 1.3170
L1.2890 1.3110
" />
<path d="M1.2890 0.9360
L1.2770 0.9260
" />
<path d="M1.2890 1.3110
L1.2950 1.3070
" />
<path d="M1.2950 1.3070
L1.3010 1.3010
" />
<path d="M1.3010 0.9480
L1.2890 0.9360
" />
<path d="M1.3010 1.3010
L1.3070 1.2950
" />
<path d="M1.3070 1.2950
L1.3130 1.2890
" />
<path d="M1.3130 0.9600
L1.3010 0.9480
" />
<path d="M1.3130 1.2890
L1.3170 1.2830
" />
<path d="M1.3170 1.2830
L1.3230 1.2750
" />
<path d="M1.3230 0.9720
L1.3130 0.9600
" />
<path d="M1.3230 1.2750
L1.3270 1.2690
" />
<path d="M1.3270 1.2690
L1.3310 1.2630
" />
<path d="M1.3310 0.9860
L1.3230 0.9720
" />
<path d="M1.3310 1.2630
L1.3370 1.2550
" />
<path d="M1.3370 1.2550
L1.3410 1.2490
" />
<path d="M1.3410 0.9990
L1.3310 0.9860
" />
<path d="M1.3410 1.2490
L1.3450 1.2420
" />
<path d="M1.3450 1.2420
L1.3490 1.2340
" />
<path d="M1.3490 1.0130
L1.3410 0.9990
" />
<path d="M1.3490 1.2340
L1.3510 1.2280
" />
<path d="M1.3510 1.2280
L1.3550 1.2200
" />
<path d="M1.3550 1.0290
L1.3490 1.0130
" />
<path d="M1.3550 1.2200
L1.3570 1.2120
" />
<path d="M1.3570 1.2120
L1.3610 1.2040
" />
<path d="M1.3610 1.0430
L1.3550 1.0290
" />
<path d="M1.3610 1.2040
L1.3630 1.1980
" />
<path d="M1.3630 1.1980
L1.3650 1.1900
" />
<path d="M1.3650 1.0590
L1.3610 1.0430
" />
<path d="M1.3650 1.1900
L1.3670 1.1820
" />
<path d="M1.3670 1.1820
L1.3690 1.1740
" />
<path d="M1.3690 1.0750
L1.3650 1.0590
" />
<path d="M1.3690 1.1740
L1.3710 1.1660
" />
<path d="M1.3710 1.0910
L1.3690 1.0750
" />
<path d="M1.3710 1.1580
L1.3720 1.1480
" />
<path d="M1.3710 1.1660
L1.3710 1.1580
" />
<path d="M1.3720 1.1480
L1.3740 1.1400
" />
<path d="M1.3740 1.1070
L1.3710 1.0910
" />
<path d="M1.3740 1.1240
L1.3740 1.1070
" />
<path d="M1.3740 1.1320
L1.3740 1.1240
" />
<path d="M1.3740 1.1400
L1.3740 1.1320
" />
<path d="M4.5240 0.5250
L0.5250 0.5250
" />
<path d="M4.5240 4.5240
L4.5240 0.5250
" />
</g> 
</svg>
