<?xml version="1.0" standalone="no"?>
 <!DOCTYPE svg PUBLIC "-//W3C//DTD SVG 1.1//EN" 
 "http://www.w3.org/Graphics/SVG/1.1/DTD/svg11.dtd"> 
<svg
  xmlns:svg="http://www.w3.org/2000/svg"
  xmlns="http://www.w3.org/2000/svg"
  xmlns:xlink="http://www.w3.org/1999/xlink"
  version="1.1"
  width="9.3980mm" height="6.0452mm" viewBox="0.0000 0.0000 9.3980 6.0452">
<title>SVG Image created as outline.svg date 2025/06/16 09:17:40 </title>
  <desc>Image generated by PCBNEW </desc>
<g style="fill:#000000; fill-opacity:1.0000;stroke:#000000; stroke-opacity:1.0000;
stroke-linecap:round; stroke-linejoin:round;"
 transform="translate(0 0) scale(1 1)">
</g>
<g style="fill:none; 
stroke:#000000; stroke-width:0.0200; stroke-opacity:1; 
stroke-linecap:round; stroke-linejoin:round;">
<path d="M0.7490 0.9120
L1.0960 0.9120
" />
<path d="M0.7490 1.3270
L0.7490 0.9120
" />
<path d="M0.7490 1.3270
L1.0960 1.3270
" />
<path d="M0.7490 2.1820
L1.0960 2.1820
" />
<path d="M0.7490 2.5970
L0.7490 2.1820
" />
<path d="M0.7490 2.5970
L1.0960 2.5970
" />
<path d="M0.7490 3.4510
L1.0960 3.4510
" />
<path d="M0.7490 3.8660
L0.7490 3.4510
" />
<path d="M0.7490 3.8660
L1.0960 3.8660
" />
<path d="M0.7490 4.7220
L1.0960 4.7220
" />
<path d="M0.7490 5.1370
L0.7490 4.7220
" />
<path d="M0.7490 5.1370
L1.0960 5.1370
" />
<path d="M1.0960 0.9120
L1.1790 0.9120
" />
<path d="M1.0960 1.3270
L1.1790 1.3270
" />
<path d="M1.0960 2.1820
L1.1790 2.1820
" />
<path d="M1.0960 2.5970
L1.1790 2.5970
" />
<path d="M1.0960 3.4510
L1.1790 3.4510
" />
<path d="M1.0960 3.8660
L1.1790 3.8660
" />
<path d="M1.0960 4.7220
L1.1790 4.7220
" />
<path d="M1.0960 5.1370
L1.1790 5.1370
" />
<path d="M1.1790 0.9120
L1.8890 0.9120
" />
<path d="M1.1790 1.3270
L1.8890 1.3270
" />
<path d="M1.1790 2.1820
L1.8890 2.1820
" />
<path d="M1.1790 2.5970
L1.8890 2.5970
" />
<path d="M1.1790 3.4510
L1.8890 3.4510
" />
<path d="M1.1790 3.8660
L1.8890 3.8660
" />
<path d="M1.1790 4.7220
L1.8890 4.7220
" />
<path d="M1.1790 5.1370
L1.8890 5.1370
" />
<path d="M1.8890 0.9120
L1.9700 0.9120
" />
<path d="M1.8890 1.3270
L1.9700 1.3270
" />
<path d="M1.8890 2.1820
L1.9700 2.1820
" />
<path d="M1.8890 2.5970
L1.9700 2.5970
" />
<path d="M1.8890 3.4510
L1.9700 3.4510
" />
<path d="M1.8890 3.8660
L1.9700 3.8660
" />
<path d="M1.8890 4.7220
L1.9700 4.7220
" />
<path d="M1.8890 5.1370
L1.9700 5.1370
" />
<path d="M1.9700 0.9120
L2.0830 0.9120
" />
<path d="M1.9700 1.3270
L2.0830 1.3270
" />
<path d="M1.9700 2.1820
L2.0830 2.1820
" />
<path d="M1.9700 2.5970
L2.0830 2.5970
" />
<path d="M1.9700 3.4510
L2.0830 3.4510
" />
<path d="M1.9700 3.8660
L2.0830 3.8660
" />
<path d="M1.9700 4.7220
L2.0830 4.7220
" />
<path d="M1.9700 5.1370
L2.0830 5.1370
" />
<path d="M2.0830 0.4080
L2.2070 0.5320
" />
<path d="M2.0830 0.4080
L7.3150 0.4080
" />
<path d="M2.0830 1.3270
L2.0830 0.9120
" />
<path d="M2.0830 2.5970
L2.0830 2.1820
" />
<path d="M2.0830 3.8660
L2.0830 3.4510
" />
<path d="M2.0830 5.1370
L2.0830 4.7220
" />
<path d="M2.0830 5.6400
L2.0830 0.4080
" />
<path d="M2.0830 5.6400
L2.2070 5.5160
" />
<path d="M2.0830 5.6400
L7.3150 5.6400
" />
<path d="M2.2070 0.5320
L2.2760 0.6010
" />
<path d="M2.2070 5.5160
L2.2760 5.4470
" />
</g>
<g style="fill:#000000; fill-opacity:1.0000; stroke:none;">
<circle cx="2.6110" cy="1.2630" r="0.0100" /> 
</g>
<g style="fill:none; 
stroke:#000000; stroke-width:0.0200; stroke-opacity:1; 
stroke-linecap:round; stroke-linejoin:round;">
<path d="M2.6110 1.2630
L2.6120 1.2810
" />
<path d="M2.6120 1.2470
L2.6110 1.2630
" />
<path d="M2.6120 1.2810
L2.6140 1.2970
" />
<path d="M2.6140 1.2300
L2.6120 1.2470
" />
<path d="M2.6140 1.2970
L2.6150 1.3130
" />
<path d="M2.6150 1.2140
L2.6140 1.2300
" />
<path d="M2.6150 1.3130
L2.6190 1.3290
" />
<path d="M2.6190 1.1980
L2.6150 1.2140
" />
<path d="M2.6190 1.3290
L2.6220 1.3450
" />
<path d="M2.6220 1.1820
L2.6190 1.1980
" />
<path d="M2.6220 1.3450
L2.6270 1.3600
" />
<path d="M2.6270 1.1660
L2.6220 1.1820
" />
<path d="M2.6270 1.3600
L2.6310 1.3760
" />
<path d="M2.6310 1.1520
L2.6270 1.1660
" />
<path d="M2.6310 1.3760
L2.6380 1.3900
" />
<path d="M2.6380 1.1360
L2.6310 1.1520
" />
<path d="M2.6380 1.3900
L2.6430 1.4060
" />
<path d="M2.6430 1.1220
L2.6380 1.1360
" />
<path d="M2.6430 1.4060
L2.6520 1.4200
" />
<path d="M2.6520 1.1080
L2.6430 1.1220
" />
<path d="M2.6520 1.4200
L2.6590 1.4320
" />
<path d="M2.6590 1.0950
L2.6520 1.1080
" />
<path d="M2.6590 1.4320
L2.6680 1.4460
" />
<path d="M2.6680 1.0810
L2.6590 1.0950
" />
<path d="M2.6680 1.4460
L2.6760 1.4600
" />
<path d="M2.6760 1.0670
L2.6680 1.0810
" />
<path d="M2.6760 1.4600
L2.6870 1.4720
" />
<path d="M2.6870 1.0550
L2.6760 1.0670
" />
<path d="M2.6870 1.4720
L2.6960 1.4840
" />
<path d="M2.6960 1.0430
L2.6870 1.0550
" />
<path d="M2.6960 1.4840
L2.7080 1.4950
" />
<path d="M2.7080 1.0330
L2.6960 1.0430
" />
<path d="M2.7080 1.4950
L2.7180 1.5050
" />
<path d="M2.7180 1.0210
L2.7080 1.0330
" />
<path d="M2.7180 1.5050
L2.7300 1.5150
" />
<path d="M2.7300 1.0120
L2.7180 1.0210
" />
<path d="M2.7300 1.5150
L2.7420 1.5250
" />
<path d="M2.7420 1.0010
L2.7300 1.0120
" />
<path d="M2.7420 1.5250
L2.7560 1.5350
" />
<path d="M2.7560 0.9930
L2.7420 1.0010
" />
<path d="M2.7560 1.5350
L2.7700 1.5430
" />
<path d="M2.7700 0.9840
L2.7560 0.9930
" />
<path d="M2.7700 1.5430
L2.7830 1.5510
" />
<path d="M2.7830 0.9770
L2.7700 0.9840
" />
<path d="M2.7830 1.5510
L2.7970 1.5590
" />
<path d="M2.7970 0.9680
L2.7830 0.9770
" />
<path d="M2.7970 1.5590
L2.8110 1.5650
" />
<path d="M2.8110 0.9630
L2.7970 0.9680
" />
<path d="M2.8110 1.5650
L2.8270 1.5710
" />
<path d="M2.8270 0.9560
L2.8110 0.9630
" />
<path d="M2.8270 1.5710
L2.8410 1.5750
" />
<path d="M2.8410 0.9520
L2.8270 0.9560
" />
<path d="M2.8410 1.5750
L2.8570 1.5810
" />
<path d="M2.8570 0.9470
L2.8410 0.9520
" />
<path d="M2.8570 1.5810
L2.8730 1.5830
" />
<path d="M2.8730 0.9440
L2.8570 0.9470
" />
<path d="M2.8730 1.5830
L2.8890 1.5870
" />
<path d="M2.8890 0.9400
L2.8730 0.9440
" />
<path d="M2.8890 1.5870
L2.9050 1.5890
" />
<path d="M2.9050 0.9390
L2.8890 0.9400
" />
<path d="M2.9050 1.5890
L2.9220 1.5890
" />
<path d="M2.9220 0.9370
L2.9050 0.9390
" />
<path d="M2.9220 1.5890
L2.9380 1.5910
" />
<path d="M2.9380 0.9360
L2.9220 0.9370
" />
</g>
<g style="fill:#000000; fill-opacity:1.0000; stroke:none;">
<circle cx="2.9380" cy="0.9360" r="0.0100" /> 
<circle cx="2.9380" cy="1.5910" r="0.0100" /> 
</g>
<g style="fill:none; 
stroke:#000000; stroke-width:0.0200; stroke-opacity:1; 
stroke-linecap:round; stroke-linejoin:round;">
<path d="M2.9380 1.5910
L2.9560 1.5890
" />
<path d="M2.9560 0.9370
L2.9380 0.9360
" />
<path d="M2.9560 1.5890
L2.9720 1.5890
" />
<path d="M2.9720 0.9390
L2.9560 0.9370
" />
<path d="M2.9720 1.5890
L2.9880 1.5870
" />
<path d="M2.9880 0.9400
L2.9720 0.9390
" />
<path d="M2.9880 1.5870
L3.0040 1.5830
" />
<path d="M3.0040 0.9440
L2.9880 0.9400
" />
<path d="M3.0040 1.5830
L3.0200 1.5810
" />
<path d="M3.0200 0.9470
L3.0040 0.9440
" />
<path d="M3.0200 1.5810
L3.0350 1.5750
" />
<path d="M3.0350 0.9520
L3.0200 0.9470
" />
<path d="M3.0350 1.5750
L3.0510 1.5710
" />
<path d="M3.0510 0.9560
L3.0350 0.9520
" />
<path d="M3.0510 1.5710
L3.0650 1.5650
" />
<path d="M3.0650 0.9630
L3.0510 0.9560
" />
<path d="M3.0650 1.5650
L3.0810 1.5590
" />
<path d="M3.0810 0.9680
L3.0650 0.9630
" />
<path d="M3.0810 1.5590
L3.0950 1.5510
" />
<path d="M3.0950 0.9770
L3.0810 0.9680
" />
<path d="M3.0950 1.5510
L3.1070 1.5430
" />
<path d="M3.1070 0.9840
L3.0950 0.9770
" />
<path d="M3.1070 1.5430
L3.1210 1.5350
" />
<path d="M3.1210 0.9930
L3.1070 0.9840
" />
<path d="M3.1210 1.5350
L3.1350 1.5250
" />
<path d="M3.1350 1.0010
L3.1210 0.9930
" />
<path d="M3.1350 1.5250
L3.1470 1.5150
" />
<path d="M3.1470 1.0120
L3.1350 1.0010
" />
<path d="M3.1470 1.5150
L3.1590 1.5050
" />
<path d="M3.1590 1.0210
L3.1470 1.0120
" />
<path d="M3.1590 1.5050
L3.1700 1.4950
" />
<path d="M3.1700 1.0330
L3.1590 1.0210
" />
<path d="M3.1700 1.4950
L3.1800 1.4840
" />
<path d="M3.1800 1.0430
L3.1700 1.0330
" />
<path d="M3.1800 1.4840
L3.1900 1.4720
" />
<path d="M3.1900 1.0550
L3.1800 1.0430
" />
<path d="M3.1900 1.4720
L3.2000 1.4600
" />
<path d="M3.2000 1.0670
L3.1900 1.0550
" />
<path d="M3.2000 1.4600
L3.2100 1.4460
" />
<path d="M3.2100 1.0810
L3.2000 1.0670
" />
<path d="M3.2100 1.4460
L3.2180 1.4320
" />
<path d="M3.2180 1.0950
L3.2100 1.0810
" />
<path d="M3.2180 1.4320
L3.2260 1.4200
" />
<path d="M3.2260 1.1080
L3.2180 1.0950
" />
<path d="M3.2260 1.4200
L3.2340 1.4060
" />
<path d="M3.2340 1.1220
L3.2260 1.1080
" />
<path d="M3.2340 1.4060
L3.2400 1.3900
" />
<path d="M3.2400 1.1360
L3.2340 1.1220
" />
<path d="M3.2400 1.3900
L3.2460 1.3760
" />
<path d="M3.2460 1.1520
L3.2400 1.1360
" />
<path d="M3.2460 1.3760
L3.2500 1.3600
" />
<path d="M3.2500 1.1660
L3.2460 1.1520
" />
<path d="M3.2500 1.3600
L3.2560 1.3450
" />
<path d="M3.2560 1.1820
L3.2500 1.1660
" />
<path d="M3.2560 1.3450
L3.2580 1.3290
" />
<path d="M3.2580 1.1980
L3.2560 1.1820
" />
<path d="M3.2580 1.3290
L3.2620 1.3130
" />
<path d="M3.2620 1.2140
L3.2580 1.1980
" />
<path d="M3.2620 1.3130
L3.2640 1.2970
" />
<path d="M3.2640 1.2300
L3.2620 1.2140
" />
<path d="M3.2640 1.2470
L3.2640 1.2300
" />
<path d="M3.2640 1.2810
L3.2660 1.2630
" />
<path d="M3.2640 1.2970
L3.2640 1.2810
" />
<path d="M3.2660 1.2630
L3.2640 1.2470
" />
</g>
<g style="fill:#000000; fill-opacity:1.0000; stroke:none;">
<circle cx="3.2660" cy="1.2630" r="0.0100" /> 
<circle cx="3.2660" cy="1.2630" r="0.0100" /> 
</g>
<g style="fill:none; 
stroke:#000000; stroke-width:0.0200; stroke-opacity:1; 
stroke-linecap:round; stroke-linejoin:round;">
<path d="M7.1220 0.6010
L7.1910 0.5320
" />
<path d="M7.1910 5.5160
L7.1220 5.4470
" />
<path d="M7.3150 0.4080
L7.1910 0.5320
" />
<path d="M7.3150 0.9120
L7.4280 0.9120
" />
<path d="M7.3150 1.3270
L7.3150 0.9120
" />
<path d="M7.3150 1.3270
L7.4280 1.3270
" />
<path d="M7.3150 2.1820
L7.4280 2.1820
" />
<path d="M7.3150 2.5970
L7.3150 2.1820
" />
<path d="M7.3150 2.5970
L7.4280 2.5970
" />
<path d="M7.3150 3.4510
L7.4280 3.4510
" />
<path d="M7.3150 3.8660
L7.3150 3.4510
" />
<path d="M7.3150 3.8660
L7.4280 3.8660
" />
<path d="M7.3150 4.7220
L7.4280 4.7220
" />
<path d="M7.3150 5.1370
L7.3150 4.7220
" />
<path d="M7.3150 5.1370
L7.4280 5.1370
" />
<path d="M7.3150 5.6400
L7.1910 5.5160
" />
<path d="M7.3150 5.6400
L7.3150 0.4080
" />
<path d="M7.5090 0.9120
L7.4280 0.9120
" />
<path d="M7.5090 1.3270
L7.4280 1.3270
" />
<path d="M7.5090 2.1820
L7.4280 2.1820
" />
<path d="M7.5090 2.5970
L7.4280 2.5970
" />
<path d="M7.5090 3.4510
L7.4280 3.4510
" />
<path d="M7.5090 3.8660
L7.4280 3.8660
" />
<path d="M7.5090 4.7220
L7.4280 4.7220
" />
<path d="M7.5090 5.1370
L7.4280 5.1370
" />
<path d="M8.2190 0.9120
L7.5090 0.9120
" />
<path d="M8.2190 1.3270
L7.5090 1.3270
" />
<path d="M8.2190 2.1820
L7.5090 2.1820
" />
<path d="M8.2190 2.5970
L7.5090 2.5970
" />
<path d="M8.2190 3.4510
L7.5090 3.4510
" />
<path d="M8.2190 3.8660
L7.5090 3.8660
" />
<path d="M8.2190 4.7220
L7.5090 4.7220
" />
<path d="M8.2190 5.1370
L7.5090 5.1370
" />
<path d="M8.3010 0.9120
L8.2190 0.9120
" />
<path d="M8.3010 0.9120
L8.6500 0.9120
" />
<path d="M8.3010 1.3270
L8.2190 1.3270
" />
<path d="M8.3010 1.3270
L8.6500 1.3270
" />
<path d="M8.3010 2.1820
L8.2190 2.1820
" />
<path d="M8.3010 2.1820
L8.6500 2.1820
" />
<path d="M8.3010 2.5970
L8.2190 2.5970
" />
<path d="M8.3010 2.5970
L8.6500 2.5970
" />
<path d="M8.3010 3.4510
L8.2190 3.4510
" />
<path d="M8.3010 3.4510
L8.6500 3.4510
" />
<path d="M8.3010 3.8660
L8.2190 3.8660
" />
<path d="M8.3010 3.8660
L8.6500 3.8660
" />
<path d="M8.3010 4.7220
L8.2190 4.7220
" />
<path d="M8.3010 4.7220
L8.6500 4.7220
" />
<path d="M8.3010 5.1370
L8.2190 5.1370
" />
<path d="M8.3010 5.1370
L8.6500 5.1370
" />
<path d="M8.6500 1.3270
L8.6500 0.9120
" />
<path d="M8.6500 2.5970
L8.6500 2.1820
" />
<path d="M8.6500 3.8660
L8.6500 3.4510
" />
<path d="M8.6500 5.1370
L8.6500 4.7220
" />
</g> 
</svg>
