<?xml version="1.0" standalone="no"?>
 <!DOCTYPE svg PUBLIC "-//W3C//DTD SVG 1.1//EN" 
 "http://www.w3.org/Graphics/SVG/1.1/DTD/svg11.dtd"> 
<svg
  xmlns:svg="http://www.w3.org/2000/svg"
  xmlns="http://www.w3.org/2000/svg"
  xmlns:xlink="http://www.w3.org/1999/xlink"
  version="1.1"
  width="16.0274mm" height="14.6304mm" viewBox="0.0000 0.0000 16.0274 14.6304">
<title>SVG Image created as outline.svg date 2025/04/04 10:06:37 </title>
  <desc>Image generated by PCBNEW </desc>
<g style="fill:#000000; fill-opacity:1.0000;stroke:#000000; stroke-opacity:1.0000;
stroke-linecap:round; stroke-linejoin:round;"
 transform="translate(0 0) scale(1 1)">
</g>
<g style="fill:none; 
stroke:#000000; stroke-width:0.0200; stroke-opacity:1; 
stroke-linecap:round; stroke-linejoin:round;">
<path d="M0.4050 6.1900
L0.4050 8.7290
" />
<path d="M0.4050 6.1900
L2.5630 6.1900
" />
<path d="M0.4050 8.7290
L2.5630 8.7290
" />
<path d="M1.3560 0.8550
L1.9910 0.8550
" />
<path d="M1.3560 6.1900
L1.3560 0.8550
" />
<path d="M1.3560 9.0190
L1.3560 8.7290
" />
<path d="M1.3560 9.9170
L1.3560 9.0190
" />
<path d="M1.3560 10.8200
L1.3560 9.9170
" />
<path d="M1.3560 10.8200
L1.3560 11.2700
" />
<path d="M1.3560 12.7920
L1.3560 11.2700
" />
<path d="M1.3560 12.7920
L1.9910 12.7920
" />
<path d="M1.5410 0.3470
L1.3560 0.8550
" />
<path d="M1.5410 13.3020
L1.3560 12.7920
" />
<path d="M1.5410 13.3020
L1.8070 13.3020
" />
<path d="M1.8070 0.3470
L1.5410 0.3470
" />
<path d="M1.8070 0.3470
L1.9910 0.8550
" />
<path d="M1.8070 13.3020
L1.9910 12.7920
" />
<path d="M1.9910 6.1900
L1.9910 0.8550
" />
<path d="M1.9910 9.0190
L1.9910 8.7290
" />
<path d="M1.9910 9.9170
L1.9910 9.0190
" />
<path d="M1.9910 10.8200
L1.9910 9.9170
" />
<path d="M1.9910 10.8200
L1.9910 11.2700
" />
<path d="M1.9910 12.7920
L1.9910 11.2700
" />
<path d="M2.5630 6.1900
L2.5630 8.7290
" />
<path d="M2.5630 8.6020
L3.3260 8.6020
" />
<path d="M3.3260 6.1900
L5.1030 6.1900
" />
<path d="M3.3260 6.3170
L2.5630 6.3170
" />
<path d="M3.3260 8.7290
L3.3260 6.1900
" />
<path d="M3.3260 8.7290
L5.1030 8.7290
" />
<path d="M3.8960 0.8550
L3.8960 6.1900
" />
<path d="M3.8960 0.8550
L4.5320 0.8550
" />
<path d="M3.8960 8.7290
L3.8960 9.0190
" />
<path d="M3.8960 9.0190
L3.8960 9.9170
" />
<path d="M3.8960 9.9170
L3.8960 10.8200
" />
<path d="M3.8960 11.2700
L3.8960 10.8200
" />
<path d="M3.8960 11.2700
L3.8960 12.7920
" />
<path d="M3.8960 12.7920
L4.5320 12.7920
" />
<path d="M4.0820 0.3470
L3.8960 0.8550
" />
<path d="M4.0820 13.3020
L3.8960 12.7920
" />
<path d="M4.0820 13.3020
L4.3470 13.3020
" />
<path d="M4.3470 0.3470
L4.0820 0.3470
" />
<path d="M4.3470 0.3470
L4.5320 0.8550
" />
<path d="M4.3470 13.3020
L4.5320 12.7920
" />
<path d="M4.5320 6.1900
L4.5320 0.8550
" />
<path d="M4.5320 9.0190
L4.5320 8.7290
" />
<path d="M4.5320 9.9170
L4.5320 9.0190
" />
<path d="M4.5320 10.8200
L4.5320 9.9170
" />
<path d="M4.5320 10.8200
L4.5320 11.2700
" />
<path d="M4.5320 12.7920
L4.5320 11.2700
" />
<path d="M5.1030 6.1900
L5.1030 8.7290
" />
<path d="M5.1030 8.6020
L5.8650 8.6020
" />
<path d="M5.8650 6.1900
L7.6440 6.1900
" />
<path d="M5.8650 6.3170
L5.1030 6.3170
" />
<path d="M5.8650 8.7290
L5.8650 6.1900
" />
<path d="M5.8650 8.7290
L7.6440 8.7290
" />
<path d="M6.4360 0.8550
L6.4360 6.1900
" />
<path d="M6.4360 0.8550
L7.0710 0.8550
" />
<path d="M6.4360 8.7290
L6.4360 9.0190
" />
<path d="M6.4360 9.0190
L6.4360 9.9170
" />
<path d="M6.4360 9.9170
L6.4360 10.8200
" />
<path d="M6.4360 11.2700
L6.4360 10.8200
" />
<path d="M6.4360 11.2700
L6.4360 12.7920
" />
<path d="M6.4360 12.7920
L7.0710 12.7920
" />
<path d="M6.6220 0.3470
L6.4360 0.8550
" />
<path d="M6.6220 13.3020
L6.4360 12.7920
" />
<path d="M6.6220 13.3020
L6.8860 13.3020
" />
<path d="M6.8860 0.3470
L6.6220 0.3470
" />
<path d="M6.8860 0.3470
L7.0710 0.8550
" />
<path d="M6.8860 13.3020
L7.0710 12.7920
" />
<path d="M7.0710 6.1900
L7.0710 0.8550
" />
<path d="M7.0710 9.0190
L7.0710 8.7290
" />
<path d="M7.0710 9.9170
L7.0710 9.0190
" />
<path d="M7.0710 10.8200
L7.0710 9.9170
" />
<path d="M7.0710 10.8200
L7.0710 11.2700
" />
<path d="M7.0710 12.7920
L7.0710 11.2700
" />
<path d="M7.6440 6.1900
L7.6440 8.7290
" />
<path d="M7.6440 8.6020
L8.4040 8.6020
" />
<path d="M8.4040 6.1900
L10.1820 6.1900
" />
<path d="M8.4040 6.3170
L7.6440 6.3170
" />
<path d="M8.4040 8.7290
L8.4040 6.1900
" />
<path d="M8.4040 8.7290
L10.1820 8.7290
" />
<path d="M8.9770 0.8550
L8.9770 6.1900
" />
<path d="M8.9770 0.8550
L9.6110 0.8550
" />
<path d="M8.9770 8.7290
L8.9770 9.0190
" />
<path d="M8.9770 9.0190
L8.9770 9.9170
" />
<path d="M8.9770 9.9170
L8.9770 10.8200
" />
<path d="M8.9770 11.2700
L8.9770 10.8200
" />
<path d="M8.9770 11.2700
L8.9770 12.7920
" />
<path d="M8.9770 12.7920
L9.6110 12.7920
" />
<path d="M9.1610 0.3470
L8.9770 0.8550
" />
<path d="M9.1610 13.3020
L8.9770 12.7920
" />
<path d="M9.1610 13.3020
L9.4270 13.3020
" />
<path d="M9.4270 0.3470
L9.1610 0.3470
" />
<path d="M9.4270 0.3470
L9.6110 0.8550
" />
<path d="M9.4270 13.3020
L9.6110 12.7920
" />
<path d="M9.6110 6.1900
L9.6110 0.8550
" />
<path d="M9.6110 9.0190
L9.6110 8.7290
" />
<path d="M9.6110 9.9170
L9.6110 9.0190
" />
<path d="M9.6110 10.8200
L9.6110 9.9170
" />
<path d="M9.6110 10.8200
L9.6110 11.2700
" />
<path d="M9.6110 12.7920
L9.6110 11.2700
" />
<path d="M10.1820 6.1900
L10.1820 8.7290
" />
<path d="M10.1820 8.6020
L10.9440 8.6020
" />
<path d="M10.9440 6.1900
L12.7230 6.1900
" />
<path d="M10.9440 6.3170
L10.1820 6.3170
" />
<path d="M10.9440 8.7290
L10.9440 6.1900
" />
<path d="M10.9440 8.7290
L12.7230 8.7290
" />
<path d="M11.5160 0.8550
L11.5160 6.1900
" />
<path d="M11.5160 0.8550
L12.1510 0.8550
" />
<path d="M11.5160 8.7290
L11.5160 9.0190
" />
<path d="M11.5160 9.0190
L11.5160 9.9170
" />
<path d="M11.5160 9.9170
L11.5160 10.8200
" />
<path d="M11.5160 11.2700
L11.5160 10.8200
" />
<path d="M11.5160 11.2700
L11.5160 12.7920
" />
<path d="M11.5160 12.7920
L12.1510 12.7920
" />
<path d="M11.7010 0.3470
L11.5160 0.8550
" />
<path d="M11.7010 13.3020
L11.5160 12.7920
" />
<path d="M11.7010 13.3020
L11.9670 13.3020
" />
<path d="M11.9670 0.3470
L11.7010 0.3470
" />
<path d="M11.9670 0.3470
L12.1510 0.8550
" />
<path d="M11.9670 13.3020
L12.1510 12.7920
" />
<path d="M12.1510 6.1900
L12.1510 0.8550
" />
<path d="M12.1510 9.0190
L12.1510 8.7290
" />
<path d="M12.1510 9.9170
L12.1510 9.0190
" />
<path d="M12.1510 10.8200
L12.1510 9.9170
" />
<path d="M12.1510 10.8200
L12.1510 11.2700
" />
<path d="M12.1510 12.7920
L12.1510 11.2700
" />
<path d="M12.7230 6.1900
L12.7230 8.7290
" />
<path d="M12.7230 8.6020
L13.4860 8.6020
" />
<path d="M13.4860 6.1900
L15.6430 6.1900
" />
<path d="M13.4860 6.3170
L12.7230 6.3170
" />
<path d="M13.4860 8.7290
L13.4860 6.1900
" />
<path d="M13.4860 8.7290
L15.6430 8.7290
" />
<path d="M14.0560 0.8550
L14.0560 6.1900
" />
<path d="M14.0560 0.8550
L14.6910 0.8550
" />
<path d="M14.0560 8.7290
L14.0560 9.0190
" />
<path d="M14.0560 9.0190
L14.0560 9.9170
" />
<path d="M14.0560 9.9170
L14.0560 10.8200
" />
<path d="M14.0560 11.2700
L14.0560 10.8200
" />
<path d="M14.0560 11.2700
L14.0560 12.7920
" />
<path d="M14.0560 12.7920
L14.6910 12.7920
" />
<path d="M14.2420 0.3470
L14.0560 0.8550
" />
<path d="M14.2420 13.3020
L14.0560 12.7920
" />
<path d="M14.2420 13.3020
L14.5070 13.3020
" />
<path d="M14.5070 0.3470
L14.2420 0.3470
" />
<path d="M14.5070 0.3470
L14.6910 0.8550
" />
<path d="M14.5070 13.3020
L14.6910 12.7920
" />
<path d="M14.6910 6.1900
L14.6910 0.8550
" />
<path d="M14.6910 9.0190
L14.6910 8.7290
" />
<path d="M14.6910 9.9170
L14.6910 9.0190
" />
<path d="M14.6910 10.8200
L14.6910 9.9170
" />
<path d="M14.6910 10.8200
L14.6910 11.2700
" />
<path d="M14.6910 12.7920
L14.6910 11.2700
" />
<path d="M15.6430 6.1900
L15.6430 8.7290
" />
</g> 
</svg>
