{
  "accessors": [
    {
      "bufferView": 0,
      "byteOffset": 0,
      "componentType": 5126,
      "normalized": false,
      "count": 3660,
      "type": "VEC3",
      "max": [
        6.024638652801514,
        0.8099963068962097,
        9.050000190734863
      ],
      "min": [
        -6.025000095367432,
        0.0,
        -8.619999885559082
      ]
    },
    {
      "bufferView": 0,
      "byteOffset": 12,
      "componentType": 5126,
      "normalized": false,
      "count": 3660,
      "type": "VEC3"
    },
    {
      "bufferView": 0,
      "byteOffset": 24,
      "componentType": 5126,
      "normalized": false,
      "count": 3660,
      "type": "VEC2"
    },
    {
      "bufferView": 0,
      "byteOffset": 32,
      "componentType": 5126,
      "normalized": false,
      "count": 3660,
      "type": "VEC2"
    },
    {
      "bufferView": 1,
      "byteOffset": 0,
      "componentType": 5123,
      "normalized": false,
      "count": 9090,
      "type": "SCALAR"
    },
    {
      "bufferView": 1,
      "byteOffset": 18180,
      "componentType": 5123,
      "normalized": false,
      "count": 4824,
      "type": "SCALAR"
    },
    {
      "bufferView": 1,
      "byteOffset": 27828,
      "componentType": 5123,
      "normalized": false,
      "count": 210,
      "type": "SCALAR"
    },
    {
      "bufferView": 1,
      "byteOffset": 28248,
      "componentType": 5123,
      "normalized": false,
      "count": 1494,
      "type": "SCALAR"
    },
    {
      "bufferView": 1,
      "byteOffset": 31236,
      "componentType": 5123,
      "normalized": false,
      "count": 30,
      "type": "SCALAR"
    },
    {
      "bufferView": 1,
      "byteOffset": 31296,
      "componentType": 5123,
      "normalized": false,
      "count": 6381,
      "type": "SCALAR"
    },
    {
      "bufferView": 1,
      "byteOffset": 44060,
      "componentType": 5123,
      "normalized": false,
      "count": 96,
      "type": "SCALAR"
    },
    {
      "bufferView": 1,
      "byteOffset": 44252,
      "componentType": 5123,
      "normalized": false,
      "count": 2955,
      "type": "SCALAR"
    },
    {
      "bufferView": 2,
      "byteOffset": 0,
      "componentType": 5126,
      "normalized": false,
      "count": 1786,
      "type": "VEC3",
      "max": [
        6.025094509124756,
        0.799877941608429,
        9.050000190734863
      ],
      "min": [
        -6.025000095367432,
        0.0,
        -9.050000190734863
      ]
    },
    {
      "bufferView": 2,
      "byteOffset": 12,
      "componentType": 5126,
      "normalized": false,
      "count": 1786,
      "type": "VEC3"
    },
    {
      "bufferView": 2,
      "byteOffset": 24,
      "componentType": 5126,
      "normalized": false,
      "count": 1786,
      "type": "VEC2"
    },
    {
      "bufferView": 2,
      "byteOffset": 32,
      "componentType": 5126,
      "normalized": false,
      "count": 1786,
      "type": "VEC2"
    },
    {
      "bufferView": 3,
      "byteOffset": 0,
      "componentType": 5126,
      "normalized": false,
      "count": 136,
      "type": "VEC3",
      "max": [
        6.025094509124756,
        0.799877941608429,
        9.050000190734863
      ],
      "min": [
        -6.025000095367432,
        0.0,
        -9.050000190734863
      ]
    },
    {
      "bufferView": 3,
      "byteOffset": 12,
      "componentType": 5126,
      "normalized": false,
      "count": 136,
      "type": "VEC3"
    },
    {
      "bufferView": 3,
      "byteOffset": 24,
      "componentType": 5126,
      "normalized": false,
      "count": 136,
      "type": "VEC2"
    },
    {
      "bufferView": 3,
      "byteOffset": 32,
      "componentType": 5126,
      "normalized": false,
      "count": 136,
      "type": "VEC2"
    },
    {
      "bufferView": 4,
      "byteOffset": 0,
      "componentType": 5126,
      "normalized": false,
      "count": 500,
      "type": "VEC3",
      "max": [
        5.42487907409668,
        2.299743175506592,
        5.839200019836426
      ],
      "min": [
        1.2250003814697266,
        0.7899999618530273,
        -8.549468040466309
      ]
    },
    {
      "bufferView": 4,
      "byteOffset": 12,
      "componentType": 5126,
      "normalized": false,
      "count": 500,
      "type": "VEC3"
    },
    {
      "bufferView": 4,
      "byteOffset": 24,
      "componentType": 5126,
      "normalized": false,
      "count": 500,
      "type": "VEC2"
    },
    {
      "bufferView": 4,
      "byteOffset": 32,
      "componentType": 5126,
      "normalized": false,
      "count": 500,
      "type": "VEC2"
    },
    {
      "bufferView": 5,
      "byteOffset": 0,
      "componentType": 5126,
      "normalized": false,
      "count": 20,
      "type": "VEC3",
      "max": [
        2.784508228302002,
        2.190000057220459,
        -7.77094030380249
      ],
      "min": [
        1.9316729307174683,
        0.7899999618530273,
        -8.173943519592285
      ]
    },
    {
      "bufferView": 5,
      "byteOffset": 12,
      "componentType": 5126,
      "normalized": false,
      "count": 20,
      "type": "VEC3"
    },
    {
      "bufferView": 5,
      "byteOffset": 24,
      "componentType": 5126,
      "normalized": false,
      "count": 20,
      "type": "VEC2"
    },
    {
      "bufferView": 5,
      "byteOffset": 32,
      "componentType": 5126,
      "normalized": false,
      "count": 20,
      "type": "VEC2"
    },
    {
      "bufferView": 6,
      "byteOffset": 0,
      "componentType": 5126,
      "normalized": false,
      "count": 2685,
      "type": "VEC3",
      "max": [
        4.443287372589111,
        2.2998340129852295,
        7.142744064331055
      ],
      "min": [
        -4.396440029144287,
        2.2899999618530273,
        -2.334465742111206
      ]
    },
    {
      "bufferView": 6,
      "byteOffset": 12,
      "componentType": 5126,
      "normalized": false,
      "count": 2685,
      "type": "VEC3"
    },
    {
      "bufferView": 6,
      "byteOffset": 24,
      "componentType": 5126,
      "normalized": false,
      "count": 2685,
      "type": "VEC2"
    },
    {
      "bufferView": 6,
      "byteOffset": 32,
      "componentType": 5126,
      "normalized": false,
      "count": 2685,
      "type": "VEC2"
    },
    {
      "bufferView": 7,
      "byteOffset": 0,
      "componentType": 5126,
      "normalized": false,
      "count": 48,
      "type": "VEC3",
      "max": [
        4.825000762939453,
        2.1699671745300293,
        -6.874403953552246
      ],
      "min": [
        1.8250004053115845,
        0.7899999618530273,
        -8.524468421936035
      ]
    },
    {
      "bufferView": 7,
      "byteOffset": 12,
      "componentType": 5126,
      "normalized": false,
      "count": 48,
      "type": "VEC3"
    },
    {
      "bufferView": 7,
      "byteOffset": 24,
      "componentType": 5126,
      "normalized": false,
      "count": 48,
      "type": "VEC2"
    },
    {
      "bufferView": 7,
      "byteOffset": 32,
      "componentType": 5126,
      "normalized": false,
      "count": 48,
      "type": "VEC2"
    },
    {
      "bufferView": 8,
      "byteOffset": 0,
      "componentType": 5126,
      "normalized": false,
      "count": 811,
      "type": "VEC3",
      "max": [
        5.399951457977295,
        2.300140619277954,
        8.40000057220459
      ],
      "min": [
        -5.400000095367432,
        0.800000011920929,
        -4.0
      ]
    },
    {
      "bufferView": 8,
      "byteOffset": 12,
      "componentType": 5126,
      "normalized": false,
      "count": 811,
      "type": "VEC3"
    },
    {
      "bufferView": 8,
      "byteOffset": 24,
      "componentType": 5126,
      "normalized": false,
      "count": 811,
      "type": "VEC2"
    },
    {
      "bufferView": 8,
      "byteOffset": 32,
      "componentType": 5126,
      "normalized": false,
      "count": 811,
      "type": "VEC2"
    }
  ],
  "asset": {
    "generator": "pygltflib@v1.16.5",
    "version": "2.0"
  },
  "bufferViews": [
    {
      "buffer": 0,
      "byteOffset": 0,
      "byteLength": 146400,
      "byteStride": 40,
      "target": 34962
    },
    {
      "buffer": 0,
      "byteOffset": 146400,
      "byteLength": 50164,
      "target": 34963
    },
    {
      "buffer": 0,
      "byteOffset": 196564,
      "byteLength": 71440,
      "byteStride": 40,
      "target": 34962
    },
    {
      "buffer": 0,
      "byteOffset": 268004,
      "byteLength": 5440,
      "byteStride": 40,
      "target": 34962
    },
    {
      "buffer": 0,
      "byteOffset": 273444,
      "byteLength": 20000,
      "byteStride": 40,
      "target": 34962
    },
    {
      "buffer": 0,
      "byteOffset": 293444,
      "byteLength": 800,
      "byteStride": 40,
      "target": 34962
    },
    {
      "buffer": 0,
      "byteOffset": 294244,
      "byteLength": 107400,
      "byteStride": 40,
      "target": 34962
    },
    {
      "buffer": 0,
      "byteOffset": 401644,
      "byteLength": 1920,
      "byteStride": 40,
      "target": 34962
    },
    {
      "buffer": 0,
      "byteOffset": 403564,
      "byteLength": 32440,
      "byteStride": 40,
      "target": 34962
    }
  ],
  "buffers": [
    {
      "uri": "Bluetooth_Module_BLE112-A-V1.bin",
      "byteLength": 436004
    }
  ],
  "extensionsUsed": [
    "KHR_materials_clearcoat",
    "KHR_materials_ior",
    "KHR_materials_sheen",
    "KHR_materials_specular",
    "KHR_materials_transmission",
    "KHR_texture_basisu",
    "KHR_texture_transform"
  ],
  "extensionsRequired": [
    "KHR_texture_basisu",
    "KHR_texture_transform"
  ],
  "images": [
    {
      "uri": "../../shared_textures/metal_goldpins_1_normal256.ktx2",
      "mimeType": "image/ktx2",
      "name": "metal_goldpins_1_normal256"
    },
    {
      "uri": "../../shared_textures/metal_goldpins_1_color256.ktx2",
      "mimeType": "image/ktx2",
      "name": "metal_goldpins_1_color256"
    },
    {
      "uri": "../../shared_textures/soldermask_blue_no_Cu_normal256.ktx2",
      "mimeType": "image/ktx2",
      "name": "soldermask_blue_no_Cu_normal256"
    },
    {
      "uri": "../../shared_textures/soldermask_blue_no_Cu_color256.ktx2",
      "mimeType": "image/ktx2",
      "name": "soldermask_blue_no_Cu_color256"
    },
    {
      "uri": "../../shared_textures/pcb_edge_normal256.ktx2",
      "mimeType": "image/ktx2",
      "name": "pcb_edge_normal256"
    },
    {
      "uri": "../../shared_textures/pcb_edge_color256.ktx2",
      "mimeType": "image/ktx2",
      "name": "pcb_edge_color256"
    },
    {
      "uri": "../../shared_textures/metal_pins_normal256.ktx2",
      "mimeType": "image/ktx2",
      "name": "metal_pins_normal256"
    },
    {
      "uri": "../../shared_textures/metal_pins_color256.ktx2",
      "mimeType": "image/ktx2",
      "name": "metal_pins_color256"
    },
    {
      "uri": "../../shared_textures/metal_goldpins_2_normal256.ktx2",
      "mimeType": "image/ktx2",
      "name": "metal_goldpins_2_normal256"
    },
    {
      "uri": "../../shared_textures/metal_goldpins_2_color256.ktx2",
      "mimeType": "image/ktx2",
      "name": "metal_goldpins_2_color256"
    },
    {
      "uri": "../../shared_textures/black_markings_normal256.ktx2",
      "mimeType": "image/ktx2",
      "name": "black_markings_normal256"
    },
    {
      "uri": "../../shared_textures/black_markings_color256.ktx2",
      "mimeType": "image/ktx2",
      "name": "black_markings_color256"
    },
    {
      "uri": "../../shared_textures/plastic_case_white_normal256.ktx2",
      "mimeType": "image/ktx2",
      "name": "plastic_case_white_normal256"
    },
    {
      "uri": "../../shared_textures/plastic_case_white_color256.ktx2",
      "mimeType": "image/ktx2",
      "name": "plastic_case_white_color256"
    },
    {
      "uri": "../../shared_textures/metal_connector_normal256.ktx2",
      "mimeType": "image/ktx2",
      "name": "metal_connector_normal256"
    },
    {
      "uri": "../../shared_textures/metal_connector_color256.ktx2",
      "mimeType": "image/ktx2",
      "name": "metal_connector_color256"
    },
    {
      "uri": "../../shared_textures/metal_connector_roughness256.ktx2",
      "mimeType": "image/ktx2",
      "name": "metal_connector_roughness256"
    }
  ],
  "materials": [
    {
      "extensions": {
        "KHR_materials_clearcoat": {
          "clearcoatFactor": 0,
          "clearcoatRoughnessFactor": 0.2890909016132355
        },
        "KHR_materials_ior": {
          "ior": 1.4500000476837158
        },
        "KHR_materials_sheen": {
          "sheenColorFactor": [
            1,
            1,
            1
          ],
          "sheenRoughnessFactor": 0.5
        },
        "KHR_materials_specular": {
          "specularFactor": 0.9499998092651367
        }
      },
      "pbrMetallicRoughness": {
        "baseColorFactor": [
          1.0,
          1.0,
          1.0,
          1.0
        ],
        "metallicFactor": 1.0,
        "roughnessFactor": 0.2522728145122528,
        "baseColorTexture": {
          "index": 0,
          "texCoord": 0
        }
      },
      "normalTexture": {
        "index": 1,
        "scale": 1.0
      },
      "emissiveFactor": [
        0.0,
        0.0,
        0.0
      ],
      "alphaMode": "OPAQUE",
      "doubleSided": true,
      "name": "gltf_metal_goldpins_1"
    },
    {
      "pbrMetallicRoughness": {
        "baseColorFactor": [
          1.0,
          1.0,
          1.0,
          1.0
        ],
        "metallicFactor": 0.5019999742507935,
        "roughnessFactor": 0.5019999742507935,
        "baseColorTexture": {
          "index": 2,
          "texCoord": 0
        }
      },
      "normalTexture": {
        "index": 3,
        "scale": 1.0
      },
      "emissiveFactor": [
        0.0,
        0.0,
        0.0
      ],
      "alphaMode": "OPAQUE",
      "doubleSided": true,
      "name": "gltf_soldermask_blue_no_Cu"
    },
    {
      "extensions": {
        "KHR_materials_clearcoat": {
          "clearcoatFactor": 0,
          "clearcoatRoughnessFactor": 0
        },
        "KHR_materials_ior": {
          "ior": 1.4500000476837158
        },
        "KHR_materials_specular": {
          "specularFactor": 0
        }
      },
      "pbrMetallicRoughness": {
        "baseColorFactor": [
          1.0,
          1.0,
          1.0,
          1.0
        ],
        "metallicFactor": 0.10000000149011612,
        "roughnessFactor": 0.5,
        "baseColorTexture": {
          "extensions": {
            "KHR_texture_transform": {
              "offset": [
                0,
                -3
              ],
              "scale": [
                4,
                4
              ]
            }
          },
          "index": 4,
          "texCoord": 0
        }
      },
      "normalTexture": {
        "index": 5,
        "scale": 1.0
      },
      "emissiveFactor": [
        0.0,
        0.0,
        0.0
      ],
      "alphaMode": "OPAQUE",
      "doubleSided": true,
      "name": "gltf_pcb_edge"
    },
    {
      "extensions": {
        "KHR_materials_ior": {
          "ior": 1.4500000476837158
        },
        "KHR_materials_specular": {
          "specularFactor": 0
        }
      },
      "pbrMetallicRoughness": {
        "baseColorFactor": [
          1.0,
          1.0,
          1.0,
          1.0
        ],
        "metallicFactor": 0.7818182110786438,
        "roughnessFactor": 0.28863638639450073,
        "baseColorTexture": {
          "index": 6,
          "texCoord": 0
        }
      },
      "normalTexture": {
        "index": 7,
        "scale": 1.0
      },
      "emissiveFactor": [
        0.0,
        0.0,
        0.0
      ],
      "alphaMode": "OPAQUE",
      "doubleSided": true,
      "name": "gltf_metal_pins"
    },
    {
      "extensions": {
        "KHR_materials_clearcoat": {
          "clearcoatFactor": 0,
          "clearcoatRoughnessFactor": 0.2890909016132355
        },
        "KHR_materials_ior": {
          "ior": 1.4500000476837158
        },
        "KHR_materials_sheen": {
          "sheenColorFactor": [
            1,
            1,
            1
          ],
          "sheenRoughnessFactor": 0.5
        },
        "KHR_materials_specular": {
          "specularFactor": 0.9499998092651367
        }
      },
      "pbrMetallicRoughness": {
        "baseColorFactor": [
          1.0,
          1.0,
          1.0,
          1.0
        ],
        "metallicFactor": 1.0,
        "roughnessFactor": 0.1840909868478775,
        "baseColorTexture": {
          "index": 8,
          "texCoord": 0
        }
      },
      "normalTexture": {
        "index": 9,
        "scale": 1.0
      },
      "emissiveFactor": [
        0.0,
        0.0,
        0.0
      ],
      "alphaMode": "OPAQUE",
      "doubleSided": true,
      "name": "gltf_metal_goldpins_2"
    },
    {
      "extensions": {
        "KHR_materials_clearcoat": {
          "clearcoatFactor": 0,
          "clearcoatRoughnessFactor": 0.67090904712677
        },
        "KHR_materials_ior": {
          "ior": 1.399999976158142
        },
        "KHR_materials_sheen": {
          "sheenColorFactor": [
            1,
            1,
            1
          ],
          "sheenRoughnessFactor": 0.5
        },
        "KHR_materials_specular": {
          "specularColorFactor": [
            1.3181817531585693,
            1.3181817531585693,
            1.3181817531585693
          ]
        },
        "KHR_materials_transmission": {
          "transmissionFactor": 0.23181819915771484
        }
      },
      "pbrMetallicRoughness": {
        "baseColorFactor": [
          1.0,
          1.0,
          1.0,
          1.0
        ],
        "metallicFactor": 0.019999999552965164,
        "roughnessFactor": 0.4636361598968506,
        "baseColorTexture": {
          "index": 10,
          "texCoord": 0
        }
      },
      "normalTexture": {
        "index": 11,
        "scale": 1.0
      },
      "emissiveFactor": [
        0.0,
        0.0,
        0.0
      ],
      "alphaMode": "OPAQUE",
      "doubleSided": true,
      "name": "gltf_black_markings"
    },
    {
      "pbrMetallicRoughness": {
        "baseColorFactor": [
          1.0,
          1.0,
          1.0,
          1.0
        ],
        "metallicFactor": 0.027000008150935173,
        "roughnessFactor": 0.4606340527534485,
        "baseColorTexture": {
          "index": 12,
          "texCoord": 0
        }
      },
      "normalTexture": {
        "index": 13,
        "scale": 1.0
      },
      "emissiveFactor": [
        0.0,
        0.0,
        0.0
      ],
      "alphaMode": "OPAQUE",
      "doubleSided": true,
      "name": "gltf_plastic_case_white"
    },
    {
      "extensions": {
        "KHR_materials_clearcoat": {
          "clearcoatFactor": 0,
          "clearcoatRoughnessFactor": 0.46590909361839294
        },
        "KHR_materials_ior": {
          "ior": 1
        },
        "KHR_materials_sheen": {
          "sheenColorFactor": [
            1,
            1,
            1
          ],
          "sheenRoughnessFactor": 0.5
        },
        "KHR_materials_specular": {
          "specularFactor": 0.9590908885002136
        }
      },
      "pbrMetallicRoughness": {
        "baseColorFactor": [
          1.0,
          1.0,
          1.0,
          1.0
        ],
        "metallicFactor": 1.0,
        "roughnessFactor": 1.0,
        "baseColorTexture": {
          "index": 14,
          "texCoord": 0
        },
        "metallicRoughnessTexture": {
          "index": 16,
          "texCoord": 0
        }
      },
      "normalTexture": {
        "index": 15,
        "scale": 0.5
      },
      "emissiveFactor": [
        0.0,
        0.0,
        0.0
      ],
      "alphaMode": "OPAQUE",
      "doubleSided": true,
      "name": "gltf_metal_connector"
    }
  ],
  "meshes": [
    {
      "primitives": [
        {
          "attributes": {
            "POSITION": 0,
            "NORMAL": 1,
            "TEXCOORD_0": 2,
            "TEXCOORD_1": 3
          },
          "indices": 4,
          "mode": 4,
          "material": 0
        },
        {
          "attributes": {
            "POSITION": 12,
            "NORMAL": 13,
            "TEXCOORD_0": 14,
            "TEXCOORD_1": 15
          },
          "indices": 5,
          "mode": 4,
          "material": 1
        },
        {
          "attributes": {
            "POSITION": 16,
            "NORMAL": 17,
            "TEXCOORD_0": 18,
            "TEXCOORD_1": 19
          },
          "indices": 6,
          "mode": 4,
          "material": 2
        },
        {
          "attributes": {
            "POSITION": 20,
            "NORMAL": 21,
            "TEXCOORD_0": 22,
            "TEXCOORD_1": 23
          },
          "indices": 7,
          "mode": 4,
          "material": 3
        },
        {
          "attributes": {
            "POSITION": 24,
            "NORMAL": 25,
            "TEXCOORD_0": 26,
            "TEXCOORD_1": 27
          },
          "indices": 8,
          "mode": 4,
          "material": 4
        },
        {
          "attributes": {
            "POSITION": 28,
            "NORMAL": 29,
            "TEXCOORD_0": 30,
            "TEXCOORD_1": 31
          },
          "indices": 9,
          "mode": 4,
          "material": 5
        },
        {
          "attributes": {
            "POSITION": 32,
            "NORMAL": 33,
            "TEXCOORD_0": 34,
            "TEXCOORD_1": 35
          },
          "indices": 10,
          "mode": 4,
          "material": 6
        },
        {
          "attributes": {
            "POSITION": 36,
            "NORMAL": 37,
            "TEXCOORD_0": 38,
            "TEXCOORD_1": 39
          },
          "indices": 11,
          "mode": 4,
          "material": 7
        }
      ],
      "name": "Bluetooth_Module_BLE112-A-V1"
    }
  ],
  "nodes": [
    {
      "extras": {
        "REF": "REF**",
        "PRIO": 0,
        "DISPLAY_ROT": "90",
        "model_diagonal": 21.865555519733988
      },
      "mesh": 0,
      "name": "Bluetooth_Module_BLE112-A-V1"
    }
  ],
  "samplers": [
    {
      "magFilter": 9729,
      "minFilter": 9987,
      "wrapS": 10497,
      "wrapT": 10497
    }
  ],
  "scene": 0,
  "scenes": [
    {
      "name": "Scene",
      "nodes": [
        0
      ]
    }
  ],
  "textures": [
    {
      "extensions": {
        "KHR_texture_basisu": {
          "source": 1
        }
      },
      "sampler": 0
    },
    {
      "extensions": {
        "KHR_texture_basisu": {
          "source": 0
        }
      },
      "sampler": 0
    },
    {
      "extensions": {
        "KHR_texture_basisu": {
          "source": 3
        }
      },
      "sampler": 0
    },
    {
      "extensions": {
        "KHR_texture_basisu": {
          "source": 2
        }
      },
      "sampler": 0
    },
    {
      "extensions": {
        "KHR_texture_basisu": {
          "source": 5
        }
      },
      "sampler": 0
    },
    {
      "extensions": {
        "KHR_texture_basisu": {
          "source": 4
        }
      },
      "sampler": 0
    },
    {
      "extensions": {
        "KHR_texture_basisu": {
          "source": 7
        }
      },
      "sampler": 0
    },
    {
      "extensions": {
        "KHR_texture_basisu": {
          "source": 6
        }
      },
      "sampler": 0
    },
    {
      "extensions": {
        "KHR_texture_basisu": {
          "source": 9
        }
      },
      "sampler": 0
    },
    {
      "extensions": {
        "KHR_texture_basisu": {
          "source": 8
        }
      },
      "sampler": 0
    },
    {
      "extensions": {
        "KHR_texture_basisu": {
          "source": 11
        }
      },
      "sampler": 0
    },
    {
      "extensions": {
        "KHR_texture_basisu": {
          "source": 10
        }
      },
      "sampler": 0
    },
    {
      "extensions": {
        "KHR_texture_basisu": {
          "source": 13
        }
      },
      "sampler": 0
    },
    {
      "extensions": {
        "KHR_texture_basisu": {
          "source": 12
        }
      },
      "sampler": 0
    },
    {
      "extensions": {
        "KHR_texture_basisu": {
          "source": 15
        }
      },
      "sampler": 0
    },
    {
      "extensions": {
        "KHR_texture_basisu": {
          "source": 14
        }
      },
      "sampler": 0
    },
    {
      "extensions": {
        "KHR_texture_basisu": {
          "source": 16
        }
      },
      "sampler": 0
    }
  ]
}