<?xml version="1.0" standalone="no"?>
 <!DOCTYPE svg PUBLIC "-//W3C//DTD SVG 1.1//EN" 
 "http://www.w3.org/Graphics/SVG/1.1/DTD/svg11.dtd"> 
<svg
  xmlns:svg="http://www.w3.org/2000/svg"
  xmlns="http://www.w3.org/2000/svg"
  xmlns:xlink="http://www.w3.org/1999/xlink"
  version="1.1"
  width="8.8392mm" height="27.3812mm" viewBox="0.0000 0.0000 8.8392 27.3812">
<title>SVG Image created as outline.svg date 2025/04/04 10:06:08 </title>
  <desc>Image generated by PCBNEW </desc>
<g style="fill:#000000; fill-opacity:1.0000;stroke:#000000; stroke-opacity:1.0000;
stroke-linecap:round; stroke-linejoin:round;"
 transform="translate(0 0) scale(1 1)">
</g>
<g style="fill:none; 
stroke:#000000; stroke-width:0.0200; stroke-opacity:1; 
stroke-linecap:round; stroke-linejoin:round;">
<path d="M0.5770 2.4170
L0.5770 2.1130
" />
<path d="M0.5770 2.4170
L1.0850 2.5830
" />
<path d="M0.5770 4.9570
L0.5770 4.6530
" />
<path d="M0.5770 4.9570
L1.0850 5.1230
" />
<path d="M0.5770 7.4970
L0.5770 7.1930
" />
<path d="M0.5770 7.4970
L1.0850 7.6630
" />
<path d="M0.5770 10.0370
L0.5770 9.7330
" />
<path d="M0.5770 10.0370
L1.0850 10.2030
" />
<path d="M0.5770 12.5770
L0.5770 12.2730
" />
<path d="M0.5770 12.5770
L1.0850 12.7430
" />
<path d="M0.5770 15.1170
L0.5770 14.8130
" />
<path d="M0.5770 15.1170
L1.0850 15.2820
" />
<path d="M0.5770 17.6570
L0.5770 17.3530
" />
<path d="M0.5770 17.6570
L1.0850 17.8230
" />
<path d="M0.5770 20.1970
L0.5770 19.8930
" />
<path d="M0.5770 20.1970
L1.0850 20.3630
" />
<path d="M0.5770 22.7370
L0.5770 22.4330
" />
<path d="M0.5770 22.7370
L1.0850 22.9030
" />
<path d="M0.5770 25.2770
L0.5770 24.9730
" />
<path d="M0.5770 25.2770
L1.0850 25.4430
" />
<path d="M1.0850 1.9470
L0.5770 2.1130
" />
<path d="M1.0850 1.9470
L1.0850 2.5830
" />
<path d="M1.0850 4.4870
L0.5770 4.6530
" />
<path d="M1.0850 4.4870
L1.0850 5.1230
" />
<path d="M1.0850 7.0270
L0.5770 7.1930
" />
<path d="M1.0850 7.0270
L1.0850 7.6630
" />
<path d="M1.0850 9.5670
L0.5770 9.7330
" />
<path d="M1.0850 9.5670
L1.0850 10.2030
" />
<path d="M1.0850 12.1080
L0.5770 12.2730
" />
<path d="M1.0850 12.1080
L1.0850 12.7430
" />
<path d="M1.0850 14.6470
L0.5770 14.8130
" />
<path d="M1.0850 14.6470
L1.0850 15.2820
" />
<path d="M1.0850 17.1870
L0.5770 17.3530
" />
<path d="M1.0850 17.1870
L1.0850 17.8230
" />
<path d="M1.0850 19.7270
L0.5770 19.8930
" />
<path d="M1.0850 19.7270
L1.0850 20.3630
" />
<path d="M1.0850 22.2670
L0.5770 22.4330
" />
<path d="M1.0850 22.2670
L1.0850 22.9030
" />
<path d="M1.0850 24.8070
L0.5770 24.9730
" />
<path d="M1.0850 24.8070
L1.0850 25.4430
" />
<path d="M1.8850 0.9950
L1.8850 2.9630
" />
<path d="M1.8850 1.9470
L1.0850 1.9470
" />
<path d="M1.8850 2.5830
L1.0850 2.5830
" />
<path d="M1.8850 4.1070
L1.8850 5.5040
" />
<path d="M1.8850 4.1070
L2.7740 3.7250
" />
<path d="M1.8850 4.4870
L1.0850 4.4870
" />
<path d="M1.8850 5.1230
L1.0850 5.1230
" />
<path d="M1.8850 6.6470
L1.8850 8.0430
" />
<path d="M1.8850 6.6470
L2.7740 6.2650
" />
<path d="M1.8850 7.0270
L1.0850 7.0270
" />
<path d="M1.8850 7.6630
L1.0850 7.6630
" />
<path d="M1.8850 9.1870
L1.8850 10.5830
" />
<path d="M1.8850 9.1870
L2.7740 8.8050
" />
<path d="M1.8850 9.5670
L1.0850 9.5670
" />
<path d="M1.8850 10.2030
L1.0850 10.2030
" />
<path d="M1.8850 11.7270
L1.8850 13.1230
" />
<path d="M1.8850 11.7270
L2.7740 11.3450
" />
<path d="M1.8850 12.1080
L1.0850 12.1080
" />
<path d="M1.8850 12.7430
L1.0850 12.7430
" />
<path d="M1.8850 14.2670
L1.8850 15.6630
" />
<path d="M1.8850 14.2670
L2.7740 13.8850
" />
<path d="M1.8850 14.6470
L1.0850 14.6470
" />
<path d="M1.8850 15.2820
L1.0850 15.2820
" />
<path d="M1.8850 16.8070
L1.8850 18.2030
" />
<path d="M1.8850 16.8070
L2.7740 16.4250
" />
<path d="M1.8850 17.1870
L1.0850 17.1870
" />
<path d="M1.8850 17.8230
L1.0850 17.8230
" />
<path d="M1.8850 19.3470
L1.8850 20.7430
" />
<path d="M1.8850 19.3470
L2.7740 18.9650
" />
<path d="M1.8850 19.7270
L1.0850 19.7270
" />
<path d="M1.8850 20.3630
L1.0850 20.3630
" />
<path d="M1.8850 21.8860
L1.8850 23.2830
" />
<path d="M1.8850 21.8860
L2.7740 21.5050
" />
<path d="M1.8850 22.2670
L1.0850 22.2670
" />
<path d="M1.8850 22.9030
L1.0850 22.9030
" />
<path d="M1.8850 24.4270
L1.8850 26.3950
" />
<path d="M1.8850 24.4270
L2.7740 24.0450
" />
<path d="M1.8850 24.8070
L1.0850 24.8070
" />
<path d="M1.8850 25.4430
L1.0850 25.4430
" />
<path d="M1.8850 26.3950
L6.9650 26.3950
" />
<path d="M2.3290 1.4390
L2.3290 3.0910
" />
<path d="M2.3290 3.0910
L3.9810 3.0910
" />
<path d="M2.3290 3.9790
L2.3290 5.6300
" />
<path d="M2.3290 5.6300
L3.9810 5.6300
" />
<path d="M2.3290 6.5190
L2.3290 8.1710
" />
<path d="M2.3290 8.1710
L3.9810 8.1710
" />
<path d="M2.3290 9.0590
L2.3290 10.7110
" />
<path d="M2.3290 10.7110
L3.9810 10.7110
" />
<path d="M2.3290 11.5990
L2.3290 13.2510
" />
<path d="M2.3290 13.2510
L3.9810 13.2510
" />
<path d="M2.3290 14.1390
L2.3290 15.7910
" />
<path d="M2.3290 15.7910
L3.9810 15.7910
" />
<path d="M2.3290 16.6790
L2.3290 18.3310
" />
<path d="M2.3290 18.3310
L3.9810 18.3310
" />
<path d="M2.3290 19.2190
L2.3290 20.8710
" />
<path d="M2.3290 20.8710
L3.9810 20.8710
" />
<path d="M2.3290 21.7600
L2.3290 23.4110
" />
<path d="M2.3290 23.4110
L3.9810 23.4110
" />
<path d="M2.3290 24.2990
L2.3290 25.9510
" />
<path d="M2.3290 25.9510
L3.9810 25.9510
" />
<path d="M2.7740 3.3450
L1.8850 2.9630
" />
<path d="M2.7740 3.7250
L4.0250 3.7250
" />
<path d="M2.7740 5.8850
L1.8850 5.5040
" />
<path d="M2.7740 6.2650
L4.0250 6.2650
" />
<path d="M2.7740 8.4250
L1.8850 8.0430
" />
<path d="M2.7740 8.8050
L4.0250 8.8050
" />
<path d="M2.7740 10.9650
L1.8850 10.5830
" />
<path d="M2.7740 11.3450
L4.0250 11.3450
" />
<path d="M2.7740 13.5050
L1.8850 13.1230
" />
<path d="M2.7740 13.8850
L4.0250 13.8850
" />
<path d="M2.7740 16.0450
L1.8850 15.6630
" />
<path d="M2.7740 16.4250
L4.0250 16.4250
" />
<path d="M2.7740 18.5850
L1.8850 18.2030
" />
<path d="M2.7740 18.9650
L4.0250 18.9650
" />
<path d="M2.7740 21.1250
L1.8850 20.7430
" />
<path d="M2.7740 21.5050
L4.0250 21.5050
" />
<path d="M2.7740 23.6650
L1.8850 23.2830
" />
<path d="M2.7740 24.0450
L4.0250 24.0450
" />
<path d="M2.8380 1.9470
L2.3290 1.4390
" />
<path d="M2.8380 1.9470
L3.0030 2.1130
" />
<path d="M2.8380 1.9470
L3.4730 1.9470
" />
<path d="M2.8380 2.5830
L2.3290 3.0910
" />
<path d="M2.8380 2.5830
L2.8380 1.9470
" />
<path d="M2.8380 4.4870
L2.3290 3.9790
" />
<path d="M2.8380 4.4870
L3.0030 4.6530
" />
<path d="M2.8380 4.4870
L3.4730 4.4870
" />
<path d="M2.8380 5.1230
L2.3290 5.6300
" />
<path d="M2.8380 5.1230
L2.8380 4.4870
" />
<path d="M2.8380 7.0270
L2.3290 6.5190
" />
<path d="M2.8380 7.0270
L3.0030 7.1930
" />
<path d="M2.8380 7.0270
L3.4730 7.0270
" />
<path d="M2.8380 7.6630
L2.3290 8.1710
" />
<path d="M2.8380 7.6630
L2.8380 7.0270
" />
<path d="M2.8380 9.5670
L2.3290 9.0590
" />
<path d="M2.8380 9.5670
L3.0030 9.7330
" />
<path d="M2.8380 9.5670
L3.4730 9.5670
" />
<path d="M2.8380 10.2030
L2.3290 10.7110
" />
<path d="M2.8380 10.2030
L2.8380 9.5670
" />
<path d="M2.8380 12.1080
L2.3290 11.5990
" />
<path d="M2.8380 12.1080
L3.0030 12.2730
" />
<path d="M2.8380 12.1080
L3.4730 12.1080
" />
<path d="M2.8380 12.7430
L2.3290 13.2510
" />
<path d="M2.8380 12.7430
L2.8380 12.1080
" />
<path d="M2.8380 14.6470
L2.3290 14.1390
" />
<path d="M2.8380 14.6470
L3.0030 14.8130
" />
<path d="M2.8380 14.6470
L3.4730 14.6470
" />
<path d="M2.8380 15.2820
L2.3290 15.7910
" />
<path d="M2.8380 15.2820
L2.8380 14.6470
" />
<path d="M2.8380 17.1870
L2.3290 16.6790
" />
<path d="M2.8380 17.1870
L3.0030 17.3530
" />
<path d="M2.8380 17.1870
L3.4730 17.1870
" />
<path d="M2.8380 17.8230
L2.3290 18.3310
" />
<path d="M2.8380 17.8230
L2.8380 17.1870
" />
<path d="M2.8380 19.7270
L2.3290 19.2190
" />
<path d="M2.8380 19.7270
L3.0030 19.8930
" />
<path d="M2.8380 19.7270
L3.4730 19.7270
" />
<path d="M2.8380 20.3630
L2.3290 20.8710
" />
<path d="M2.8380 20.3630
L2.8380 19.7270
" />
<path d="M2.8380 22.2670
L2.3290 21.7600
" />
<path d="M2.8380 22.2670
L3.0030 22.4330
" />
<path d="M2.8380 22.2670
L3.4730 22.2670
" />
<path d="M2.8380 22.9030
L2.3290 23.4110
" />
<path d="M2.8380 22.9030
L2.8380 22.2670
" />
<path d="M2.8380 24.8070
L2.3290 24.2990
" />
<path d="M2.8380 24.8070
L3.0030 24.9730
" />
<path d="M2.8380 24.8070
L3.4730 24.8070
" />
<path d="M2.8380 25.4430
L2.3290 25.9510
" />
<path d="M2.8380 25.4430
L2.8380 24.8070
" />
<path d="M3.0030 2.1130
L3.0030 2.4170
" />
<path d="M3.0030 2.4170
L2.8380 2.5830
" />
<path d="M3.0030 2.4170
L3.3070 2.4170
" />
<path d="M3.0030 4.6530
L3.0030 4.9570
" />
<path d="M3.0030 4.9570
L2.8380 5.1230
" />
<path d="M3.0030 4.9570
L3.3070 4.9570
" />
<path d="M3.0030 7.1930
L3.0030 7.4970
" />
<path d="M3.0030 7.4970
L2.8380 7.6630
" />
<path d="M3.0030 7.4970
L3.3070 7.4970
" />
<path d="M3.0030 9.7330
L3.0030 10.0370
" />
<path d="M3.0030 10.0370
L2.8380 10.2030
" />
<path d="M3.0030 10.0370
L3.3070 10.0370
" />
<path d="M3.0030 12.2730
L3.0030 12.5770
" />
<path d="M3.0030 12.5770
L2.8380 12.7430
" />
<path d="M3.0030 12.5770
L3.3070 12.5770
" />
<path d="M3.0030 14.8130
L3.0030 15.1170
" />
<path d="M3.0030 15.1170
L2.8380 15.2820
" />
<path d="M3.0030 15.1170
L3.3070 15.1170
" />
<path d="M3.0030 17.3530
L3.0030 17.6570
" />
<path d="M3.0030 17.6570
L2.8380 17.8230
" />
<path d="M3.0030 17.6570
L3.3070 17.6570
" />
<path d="M3.0030 19.8930
L3.0030 20.1970
" />
<path d="M3.0030 20.1970
L2.8380 20.3630
" />
<path d="M3.0030 20.1970
L3.3070 20.1970
" />
<path d="M3.0030 22.4330
L3.0030 22.7370
" />
<path d="M3.0030 22.7370
L2.8380 22.9030
" />
<path d="M3.0030 22.7370
L3.3070 22.7370
" />
<path d="M3.0030 24.9730
L3.0030 25.2770
" />
<path d="M3.0030 25.2770
L2.8380 25.4430
" />
<path d="M3.0030 25.2770
L3.3070 25.2770
" />
<path d="M3.3070 2.1130
L3.0030 2.1130
" />
<path d="M3.3070 2.4170
L3.3070 2.1130
" />
<path d="M3.3070 2.4170
L3.4730 2.5830
" />
<path d="M3.3070 4.6530
L3.0030 4.6530
" />
<path d="M3.3070 4.9570
L3.3070 4.6530
" />
<path d="M3.3070 4.9570
L3.4730 5.1230
" />
<path d="M3.3070 7.1930
L3.0030 7.1930
" />
<path d="M3.3070 7.4970
L3.3070 7.1930
" />
<path d="M3.3070 7.4970
L3.4730 7.6630
" />
<path d="M3.3070 9.7330
L3.0030 9.7330
" />
<path d="M3.3070 10.0370
L3.3070 9.7330
" />
<path d="M3.3070 10.0370
L3.4730 10.2030
" />
<path d="M3.3070 12.2730
L3.0030 12.2730
" />
<path d="M3.3070 12.5770
L3.3070 12.2730
" />
<path d="M3.3070 12.5770
L3.4730 12.7430
" />
<path d="M3.3070 14.8130
L3.0030 14.8130
" />
<path d="M3.3070 15.1170
L3.3070 14.8130
" />
<path d="M3.3070 15.1170
L3.4730 15.2820
" />
<path d="M3.3070 17.3530
L3.0030 17.3530
" />
<path d="M3.3070 17.6570
L3.3070 17.3530
" />
<path d="M3.3070 17.6570
L3.4730 17.8230
" />
<path d="M3.3070 19.8930
L3.0030 19.8930
" />
<path d="M3.3070 20.1970
L3.3070 19.8930
" />
<path d="M3.3070 20.1970
L3.4730 20.3630
" />
<path d="M3.3070 22.4330
L3.0030 22.4330
" />
<path d="M3.3070 22.7370
L3.3070 22.4330
" />
<path d="M3.3070 22.7370
L3.4730 22.9030
" />
<path d="M3.3070 24.9730
L3.0030 24.9730
" />
<path d="M3.3070 25.2770
L3.3070 24.9730
" />
<path d="M3.3070 25.2770
L3.4730 25.4430
" />
<path d="M3.4730 1.9470
L3.3070 2.1130
" />
<path d="M3.4730 1.9470
L3.4730 2.5830
" />
<path d="M3.4730 1.9470
L3.9810 1.4390
" />
<path d="M3.4730 2.5830
L2.8380 2.5830
" />
<path d="M3.4730 2.5830
L3.9810 3.0910
" />
<path d="M3.4730 4.4870
L3.3070 4.6530
" />
<path d="M3.4730 4.4870
L3.4730 5.1230
" />
<path d="M3.4730 4.4870
L3.9810 3.9790
" />
<path d="M3.4730 5.1230
L2.8380 5.1230
" />
<path d="M3.4730 5.1230
L3.9810 5.6300
" />
<path d="M3.4730 7.0270
L3.3070 7.1930
" />
<path d="M3.4730 7.0270
L3.4730 7.6630
" />
<path d="M3.4730 7.0270
L3.9810 6.5190
" />
<path d="M3.4730 7.6630
L2.8380 7.6630
" />
<path d="M3.4730 7.6630
L3.9810 8.1710
" />
<path d="M3.4730 9.5670
L3.3070 9.7330
" />
<path d="M3.4730 9.5670
L3.4730 10.2030
" />
<path d="M3.4730 9.5670
L3.9810 9.0590
" />
<path d="M3.4730 10.2030
L2.8380 10.2030
" />
<path d="M3.4730 10.2030
L3.9810 10.7110
" />
<path d="M3.4730 12.1080
L3.3070 12.2730
" />
<path d="M3.4730 12.1080
L3.4730 12.7430
" />
<path d="M3.4730 12.1080
L3.9810 11.5990
" />
<path d="M3.4730 12.7430
L2.8380 12.7430
" />
<path d="M3.4730 12.7430
L3.9810 13.2510
" />
<path d="M3.4730 14.6470
L3.3070 14.8130
" />
<path d="M3.4730 14.6470
L3.4730 15.2820
" />
<path d="M3.4730 14.6470
L3.9810 14.1390
" />
<path d="M3.4730 15.2820
L2.8380 15.2820
" />
<path d="M3.4730 15.2820
L3.9810 15.7910
" />
<path d="M3.4730 17.1870
L3.3070 17.3530
" />
<path d="M3.4730 17.1870
L3.4730 17.8230
" />
<path d="M3.4730 17.1870
L3.9810 16.6790
" />
<path d="M3.4730 17.8230
L2.8380 17.8230
" />
<path d="M3.4730 17.8230
L3.9810 18.3310
" />
<path d="M3.4730 19.7270
L3.3070 19.8930
" />
<path d="M3.4730 19.7270
L3.4730 20.3630
" />
<path d="M3.4730 19.7270
L3.9810 19.2190
" />
<path d="M3.4730 20.3630
L2.8380 20.3630
" />
<path d="M3.4730 20.3630
L3.9810 20.8710
" />
<path d="M3.4730 22.2670
L3.3070 22.4330
" />
<path d="M3.4730 22.2670
L3.4730 22.9030
" />
<path d="M3.4730 22.2670
L3.9810 21.7600
" />
<path d="M3.4730 22.9030
L2.8380 22.9030
" />
<path d="M3.4730 22.9030
L3.9810 23.4110
" />
<path d="M3.4730 24.8070
L3.3070 24.9730
" />
<path d="M3.4730 24.8070
L3.4730 25.4430
" />
<path d="M3.4730 24.8070
L3.9810 24.2990
" />
<path d="M3.4730 25.4430
L2.8380 25.4430
" />
<path d="M3.4730 25.4430
L3.9810 25.9510
" />
<path d="M3.6630 3.3450
L3.6630 3.7250
" />
<path d="M3.6630 5.8850
L3.6630 6.2650
" />
<path d="M3.6630 8.4250
L3.6630 8.8050
" />
<path d="M3.6630 10.9650
L3.6630 11.3450
" />
<path d="M3.6630 13.5050
L3.6630 13.8850
" />
<path d="M3.6630 16.0450
L3.6630 16.4250
" />
<path d="M3.6630 18.5850
L3.6630 18.9650
" />
<path d="M3.6630 21.1250
L3.6630 21.5050
" />
<path d="M3.6630 23.6650
L3.6630 24.0450
" />
<path d="M3.9810 1.4390
L2.3290 1.4390
" />
<path d="M3.9810 3.0910
L3.9810 1.4390
" />
<path d="M3.9810 3.9790
L2.3290 3.9790
" />
<path d="M3.9810 5.6300
L3.9810 3.9790
" />
<path d="M3.9810 6.5190
L2.3290 6.5190
" />
<path d="M3.9810 8.1710
L3.9810 6.5190
" />
<path d="M3.9810 9.0590
L2.3290 9.0590
" />
<path d="M3.9810 10.7110
L3.9810 9.0590
" />
<path d="M3.9810 11.5990
L2.3290 11.5990
" />
<path d="M3.9810 13.2510
L3.9810 11.5990
" />
<path d="M3.9810 14.1390
L2.3290 14.1390
" />
<path d="M3.9810 15.7910
L3.9810 14.1390
" />
<path d="M3.9810 16.6790
L2.3290 16.6790
" />
<path d="M3.9810 18.3310
L3.9810 16.6790
" />
<path d="M3.9810 19.2190
L2.3290 19.2190
" />
<path d="M3.9810 20.8710
L3.9810 19.2190
" />
<path d="M3.9810 21.7600
L2.3290 21.7600
" />
<path d="M3.9810 23.4110
L3.9810 21.7600
" />
<path d="M3.9810 24.2990
L2.3290 24.2990
" />
<path d="M3.9810 25.9510
L3.9810 24.2990
" />
<path d="M4.0250 2.6460
L4.0250 3.3450
" />
<path d="M4.0250 3.3450
L2.7740 3.3450
" />
<path d="M4.0250 3.3450
L4.2790 3.3450
" />
<path d="M4.0250 3.7250
L4.0250 4.4240
" />
<path d="M4.0250 4.4240
L4.8250 4.4240
" />
<path d="M4.0250 5.1860
L4.0250 5.8850
" />
<path d="M4.0250 5.8850
L2.7740 5.8850
" />
<path d="M4.0250 5.8850
L4.2790 5.8850
" />
<path d="M4.0250 6.2650
L4.0250 6.9640
" />
<path d="M4.0250 6.9640
L4.8250 6.9640
" />
<path d="M4.0250 7.7260
L4.0250 8.4250
" />
<path d="M4.0250 8.4250
L2.7740 8.4250
" />
<path d="M4.0250 8.4250
L4.2790 8.4250
" />
<path d="M4.0250 8.8050
L4.0250 9.5040
" />
<path d="M4.0250 9.5040
L4.8250 9.5040
" />
<path d="M4.0250 10.2660
L4.0250 10.9650
" />
<path d="M4.0250 10.9650
L2.7740 10.9650
" />
<path d="M4.0250 10.9650
L4.2790 10.9650
" />
<path d="M4.0250 11.3450
L4.0250 12.0440
" />
<path d="M4.0250 12.0440
L4.8250 12.0440
" />
<path d="M4.0250 12.8060
L4.0250 13.5050
" />
<path d="M4.0250 13.5050
L2.7740 13.5050
" />
<path d="M4.0250 13.5050
L4.2790 13.5050
" />
<path d="M4.0250 13.8850
L4.0250 14.5840
" />
<path d="M4.0250 14.5840
L4.8250 14.5840
" />
<path d="M4.0250 15.3460
L4.0250 16.0450
" />
<path d="M4.0250 16.0450
L2.7740 16.0450
" />
<path d="M4.0250 16.0450
L4.2790 16.0450
" />
<path d="M4.0250 16.4250
L4.0250 17.1240
" />
<path d="M4.0250 17.1240
L4.8250 17.1240
" />
<path d="M4.0250 17.8860
L4.0250 18.5850
" />
<path d="M4.0250 18.5850
L2.7740 18.5850
" />
<path d="M4.0250 18.5850
L4.2790 18.5850
" />
<path d="M4.0250 18.9650
L4.0250 19.6640
" />
<path d="M4.0250 19.6640
L4.8250 19.6640
" />
<path d="M4.0250 20.4260
L4.0250 21.1250
" />
<path d="M4.0250 21.1250
L2.7740 21.1250
" />
<path d="M4.0250 21.1250
L4.2790 21.1250
" />
<path d="M4.0250 21.5050
L4.0250 22.2040
" />
<path d="M4.0250 22.2040
L4.8250 22.2040
" />
<path d="M4.0250 22.9660
L4.0250 23.6650
" />
<path d="M4.0250 23.6650
L2.7740 23.6650
" />
<path d="M4.0250 23.6650
L4.2790 23.6650
" />
<path d="M4.0250 24.0450
L4.0250 24.7440
" />
<path d="M4.0250 24.7440
L4.8250 24.7440
" />
<path d="M4.1710 3.5350
L4.1750 3.4920
" />
<path d="M4.1710 6.0750
L4.1750 6.0320
" />
<path d="M4.1710 8.6150
L4.1750 8.5720
" />
<path d="M4.1710 11.1550
L4.1750 11.1120
" />
<path d="M4.1710 13.6950
L4.1750 13.6520
" />
<path d="M4.1710 16.2350
L4.1750 16.1920
" />
<path d="M4.1710 18.7750
L4.1750 18.7320
" />
<path d="M4.1710 21.3150
L4.1750 21.2720
" />
<path d="M4.1710 23.8550
L4.1750 23.8120
" />
<path d="M4.1750 3.4920
L4.1850 3.4500
" />
<path d="M4.1750 3.5780
L4.1710 3.5350
" />
<path d="M4.1750 6.0320
L4.1850 5.9900
" />
<path d="M4.1750 6.1180
L4.1710 6.0750
" />
<path d="M4.1750 8.5720
L4.1850 8.5300
" />
<path d="M4.1750 8.6580
L4.1710 8.6150
" />
<path d="M4.1750 11.1120
L4.1850 11.0700
" />
<path d="M4.1750 11.1980
L4.1710 11.1550
" />
<path d="M4.1750 13.6520
L4.1850 13.6100
" />
<path d="M4.1750 13.7380
L4.1710 13.6950
" />
<path d="M4.1750 16.1920
L4.1850 16.1500
" />
<path d="M4.1750 16.2780
L4.1710 16.2350
" />
<path d="M4.1750 18.7320
L4.1850 18.6900
" />
<path d="M4.1750 18.8180
L4.1710 18.7750
" />
<path d="M4.1750 21.2720
L4.1850 21.2300
" />
<path d="M4.1750 21.3580
L4.1710 21.3150
" />
<path d="M4.1750 23.8120
L4.1850 23.7700
" />
<path d="M4.1750 23.8980
L4.1710 23.8550
" />
<path d="M4.1850 3.4500
L4.2030 3.4110
" />
<path d="M4.1850 3.6200
L4.1750 3.5780
" />
<path d="M4.1850 5.9900
L4.2030 5.9510
" />
<path d="M4.1850 6.1600
L4.1750 6.1180
" />
<path d="M4.1850 8.5300
L4.2030 8.4910
" />
<path d="M4.1850 8.7000
L4.1750 8.6580
" />
<path d="M4.1850 11.0700
L4.2030 11.0310
" />
<path d="M4.1850 11.2400
L4.1750 11.1980
" />
<path d="M4.1850 13.6100
L4.2030 13.5710
" />
<path d="M4.1850 13.7800
L4.1750 13.7380
" />
<path d="M4.1850 16.1500
L4.2030 16.1110
" />
<path d="M4.1850 16.3200
L4.1750 16.2780
" />
<path d="M4.1850 18.6900
L4.2030 18.6510
" />
<path d="M4.1850 18.8600
L4.1750 18.8180
" />
<path d="M4.1850 21.2300
L4.2030 21.1910
" />
<path d="M4.1850 21.4000
L4.1750 21.3580
" />
<path d="M4.1850 23.7700
L4.2030 23.7310
" />
<path d="M4.1850 23.9400
L4.1750 23.8980
" />
<path d="M4.2030 3.4110
L4.2270 3.3760
" />
<path d="M4.2030 3.6590
L4.1850 3.6200
" />
<path d="M4.2030 5.9510
L4.2270 5.9160
" />
<path d="M4.2030 6.1990
L4.1850 6.1600
" />
<path d="M4.2030 8.4910
L4.2270 8.4560
" />
<path d="M4.2030 8.7390
L4.1850 8.7000
" />
<path d="M4.2030 11.0310
L4.2270 10.9960
" />
<path d="M4.2030 11.2790
L4.1850 11.2400
" />
<path d="M4.2030 13.5710
L4.2270 13.5360
" />
<path d="M4.2030 13.8190
L4.1850 13.7800
" />
<path d="M4.2030 16.1110
L4.2270 16.0760
" />
<path d="M4.2030 16.3590
L4.1850 16.3200
" />
<path d="M4.2030 18.6510
L4.2270 18.6160
" />
<path d="M4.2030 18.8990
L4.1850 18.8600
" />
<path d="M4.2030 21.1910
L4.2270 21.1560
" />
<path d="M4.2030 21.4390
L4.1850 21.4000
" />
<path d="M4.2030 23.7310
L4.2270 23.6960
" />
<path d="M4.2030 23.9790
L4.1850 23.9400
" />
<path d="M4.2270 3.3760
L4.2570 3.3450
" />
<path d="M4.2270 3.6940
L4.2030 3.6590
" />
<path d="M4.2270 5.9160
L4.2570 5.8850
" />
<path d="M4.2270 6.2340
L4.2030 6.1990
" />
<path d="M4.2270 8.4560
L4.2570 8.4250
" />
<path d="M4.2270 8.7740
L4.2030 8.7390
" />
<path d="M4.2270 10.9960
L4.2570 10.9650
" />
<path d="M4.2270 11.3140
L4.2030 11.2790
" />
<path d="M4.2270 13.5360
L4.2570 13.5050
" />
<path d="M4.2270 13.8540
L4.2030 13.8190
" />
<path d="M4.2270 16.0760
L4.2570 16.0450
" />
<path d="M4.2270 16.3940
L4.2030 16.3590
" />
<path d="M4.2270 18.6160
L4.2570 18.5850
" />
<path d="M4.2270 18.9340
L4.2030 18.8990
" />
<path d="M4.2270 21.1560
L4.2570 21.1250
" />
<path d="M4.2270 21.4740
L4.2030 21.4390
" />
<path d="M4.2270 23.6960
L4.2570 23.6650
" />
<path d="M4.2270 24.0140
L4.2030 23.9790
" />
<path d="M4.2570 3.7250
L4.2270 3.6940
" />
<path d="M4.2570 6.2650
L4.2270 6.2340
" />
<path d="M4.2570 8.8050
L4.2270 8.7740
" />
<path d="M4.2570 11.3450
L4.2270 11.3140
" />
<path d="M4.2570 13.8850
L4.2270 13.8540
" />
<path d="M4.2570 16.4250
L4.2270 16.3940
" />
<path d="M4.2570 18.9650
L4.2270 18.9340
" />
<path d="M4.2570 21.5050
L4.2270 21.4740
" />
<path d="M4.2570 24.0450
L4.2270 24.0140
" />
<path d="M4.2790 2.9000
L4.0250 2.6460
" />
<path d="M4.2790 2.9000
L4.2790 3.3450
" />
<path d="M4.2790 3.7250
L4.0250 3.7250
" />
<path d="M4.2790 3.7250
L4.2790 4.1700
" />
<path d="M4.2790 3.7250
L4.5710 3.7250
" />
<path d="M4.2790 4.1700
L4.0250 4.4240
" />
<path d="M4.2790 4.1700
L4.5710 4.1700
" />
<path d="M4.2790 5.4400
L4.0250 5.1860
" />
<path d="M4.2790 5.4400
L4.2790 5.8850
" />
<path d="M4.2790 6.2650
L4.0250 6.2650
" />
<path d="M4.2790 6.2650
L4.2790 6.7100
" />
<path d="M4.2790 6.2650
L4.5710 6.2650
" />
<path d="M4.2790 6.7100
L4.0250 6.9640
" />
<path d="M4.2790 6.7100
L4.5710 6.7100
" />
<path d="M4.2790 7.9800
L4.0250 7.7260
" />
<path d="M4.2790 7.9800
L4.2790 8.4250
" />
<path d="M4.2790 8.8050
L4.0250 8.8050
" />
<path d="M4.2790 8.8050
L4.2790 9.2500
" />
<path d="M4.2790 8.8050
L4.5710 8.8050
" />
<path d="M4.2790 9.2500
L4.0250 9.5040
" />
<path d="M4.2790 9.2500
L4.5710 9.2500
" />
<path d="M4.2790 10.5200
L4.0250 10.2660
" />
<path d="M4.2790 10.5200
L4.2790 10.9650
" />
<path d="M4.2790 11.3450
L4.0250 11.3450
" />
<path d="M4.2790 11.3450
L4.2790 11.7900
" />
<path d="M4.2790 11.3450
L4.5710 11.3450
" />
<path d="M4.2790 11.7900
L4.0250 12.0440
" />
<path d="M4.2790 11.7900
L4.5710 11.7900
" />
<path d="M4.2790 13.0600
L4.0250 12.8060
" />
<path d="M4.2790 13.0600
L4.2790 13.5050
" />
<path d="M4.2790 13.8850
L4.0250 13.8850
" />
<path d="M4.2790 13.8850
L4.2790 14.3300
" />
<path d="M4.2790 13.8850
L4.5710 13.8850
" />
<path d="M4.2790 14.3300
L4.0250 14.5840
" />
<path d="M4.2790 14.3300
L4.5710 14.3300
" />
<path d="M4.2790 15.6000
L4.0250 15.3460
" />
<path d="M4.2790 15.6000
L4.2790 16.0450
" />
<path d="M4.2790 16.4250
L4.0250 16.4250
" />
<path d="M4.2790 16.4250
L4.2790 16.8700
" />
<path d="M4.2790 16.4250
L4.5710 16.4250
" />
<path d="M4.2790 16.8700
L4.0250 17.1240
" />
<path d="M4.2790 16.8700
L4.5710 16.8700
" />
<path d="M4.2790 18.1400
L4.0250 17.8860
" />
<path d="M4.2790 18.1400
L4.2790 18.5850
" />
<path d="M4.2790 18.9650
L4.0250 18.9650
" />
<path d="M4.2790 18.9650
L4.2790 19.4100
" />
<path d="M4.2790 18.9650
L4.5710 18.9650
" />
<path d="M4.2790 19.4100
L4.0250 19.6640
" />
<path d="M4.2790 19.4100
L4.5710 19.4100
" />
<path d="M4.2790 20.6800
L4.0250 20.4260
" />
<path d="M4.2790 20.6800
L4.2790 21.1250
" />
<path d="M4.2790 21.5050
L4.0250 21.5050
" />
<path d="M4.2790 21.5050
L4.2790 21.9500
" />
<path d="M4.2790 21.5050
L4.5710 21.5050
" />
<path d="M4.2790 21.9500
L4.0250 22.2040
" />
<path d="M4.2790 21.9500
L4.5710 21.9500
" />
<path d="M4.2790 23.2200
L4.0250 22.9660
" />
<path d="M4.2790 23.2200
L4.2790 23.6650
" />
<path d="M4.2790 24.0450
L4.0250 24.0450
" />
<path d="M4.2790 24.0450
L4.2790 24.4900
" />
<path d="M4.2790 24.0450
L4.5710 24.0450
" />
<path d="M4.2790 24.4900
L4.0250 24.7440
" />
<path d="M4.2790 24.4900
L4.5710 24.4900
" />
<path d="M4.5710 2.9000
L4.2790 2.9000
" />
<path d="M4.5710 2.9000
L4.8250 2.6460
" />
<path d="M4.5710 3.3450
L4.2790 3.3450
" />
<path d="M4.5710 3.3450
L4.5710 2.9000
" />
<path d="M4.5710 3.3450
L4.8250 3.3450
" />
<path d="M4.5710 4.1700
L4.5710 3.7250
" />
<path d="M4.5710 4.1700
L4.8250 4.4240
" />
<path d="M4.5710 5.4400
L4.2790 5.4400
" />
<path d="M4.5710 5.4400
L4.8250 5.1860
" />
<path d="M4.5710 5.8850
L4.2790 5.8850
" />
<path d="M4.5710 5.8850
L4.5710 5.4400
" />
<path d="M4.5710 5.8850
L4.8250 5.8850
" />
<path d="M4.5710 6.7100
L4.5710 6.2650
" />
<path d="M4.5710 6.7100
L4.8250 6.9640
" />
<path d="M4.5710 7.9800
L4.2790 7.9800
" />
<path d="M4.5710 7.9800
L4.8250 7.7260
" />
<path d="M4.5710 8.4250
L4.2790 8.4250
" />
<path d="M4.5710 8.4250
L4.5710 7.9800
" />
<path d="M4.5710 8.4250
L4.8250 8.4250
" />
<path d="M4.5710 9.2500
L4.5710 8.8050
" />
<path d="M4.5710 9.2500
L4.8250 9.5040
" />
<path d="M4.5710 10.5200
L4.2790 10.5200
" />
<path d="M4.5710 10.5200
L4.8250 10.2660
" />
<path d="M4.5710 10.9650
L4.2790 10.9650
" />
<path d="M4.5710 10.9650
L4.5710 10.5200
" />
<path d="M4.5710 10.9650
L4.8250 10.9650
" />
<path d="M4.5710 11.7900
L4.5710 11.3450
" />
<path d="M4.5710 11.7900
L4.8250 12.0440
" />
<path d="M4.5710 13.0600
L4.2790 13.0600
" />
<path d="M4.5710 13.0600
L4.8250 12.8060
" />
<path d="M4.5710 13.5050
L4.2790 13.5050
" />
<path d="M4.5710 13.5050
L4.5710 13.0600
" />
<path d="M4.5710 13.5050
L4.8250 13.5050
" />
<path d="M4.5710 14.3300
L4.5710 13.8850
" />
<path d="M4.5710 14.3300
L4.8250 14.5840
" />
<path d="M4.5710 15.6000
L4.2790 15.6000
" />
<path d="M4.5710 15.6000
L4.8250 15.3460
" />
<path d="M4.5710 16.0450
L4.2790 16.0450
" />
<path d="M4.5710 16.0450
L4.5710 15.6000
" />
<path d="M4.5710 16.0450
L4.8250 16.0450
" />
<path d="M4.5710 16.8700
L4.5710 16.4250
" />
<path d="M4.5710 16.8700
L4.8250 17.1240
" />
<path d="M4.5710 18.1400
L4.2790 18.1400
" />
<path d="M4.5710 18.1400
L4.8250 17.8860
" />
<path d="M4.5710 18.5850
L4.2790 18.5850
" />
<path d="M4.5710 18.5850
L4.5710 18.1400
" />
<path d="M4.5710 18.5850
L4.8250 18.5850
" />
<path d="M4.5710 19.4100
L4.5710 18.9650
" />
<path d="M4.5710 19.4100
L4.8250 19.6640
" />
<path d="M4.5710 20.6800
L4.2790 20.6800
" />
<path d="M4.5710 20.6800
L4.8250 20.4260
" />
<path d="M4.5710 21.1250
L4.2790 21.1250
" />
<path d="M4.5710 21.1250
L4.5710 20.6800
" />
<path d="M4.5710 21.1250
L4.8250 21.1250
" />
<path d="M4.5710 21.9500
L4.5710 21.5050
" />
<path d="M4.5710 21.9500
L4.8250 22.2040
" />
<path d="M4.5710 23.2200
L4.2790 23.2200
" />
<path d="M4.5710 23.2200
L4.8250 22.9660
" />
<path d="M4.5710 23.6650
L4.2790 23.6650
" />
<path d="M4.5710 23.6650
L4.5710 23.2200
" />
<path d="M4.5710 23.6650
L4.8250 23.6650
" />
<path d="M4.5710 24.4900
L4.5710 24.0450
" />
<path d="M4.5710 24.4900
L4.8250 24.7440
" />
<path d="M4.5930 3.3450
L4.6230 3.3760
" />
<path d="M4.5930 5.8850
L4.6230 5.9160
" />
<path d="M4.5930 8.4250
L4.6230 8.4560
" />
<path d="M4.5930 10.9650
L4.6230 10.9960
" />
<path d="M4.5930 13.5050
L4.6230 13.5360
" />
<path d="M4.5930 16.0450
L4.6230 16.0760
" />
<path d="M4.5930 18.5850
L4.6230 18.6160
" />
<path d="M4.5930 21.1250
L4.6230 21.1560
" />
<path d="M4.5930 23.6650
L4.6230 23.6960
" />
<path d="M4.6230 3.3760
L4.6470 3.4110
" />
<path d="M4.6230 3.6940
L4.5930 3.7250
" />
<path d="M4.6230 5.9160
L4.6470 5.9510
" />
<path d="M4.6230 6.2340
L4.5930 6.2650
" />
<path d="M4.6230 8.4560
L4.6470 8.4910
" />
<path d="M4.6230 8.7740
L4.5930 8.8050
" />
<path d="M4.6230 10.9960
L4.6470 11.0310
" />
<path d="M4.6230 11.3140
L4.5930 11.3450
" />
<path d="M4.6230 13.5360
L4.6470 13.5710
" />
<path d="M4.6230 13.8540
L4.5930 13.8850
" />
<path d="M4.6230 16.0760
L4.6470 16.1110
" />
<path d="M4.6230 16.3940
L4.5930 16.4250
" />
<path d="M4.6230 18.6160
L4.6470 18.6510
" />
<path d="M4.6230 18.9340
L4.5930 18.9650
" />
<path d="M4.6230 21.1560
L4.6470 21.1910
" />
<path d="M4.6230 21.4740
L4.5930 21.5050
" />
<path d="M4.6230 23.6960
L4.6470 23.7310
" />
<path d="M4.6230 24.0140
L4.5930 24.0450
" />
<path d="M4.6470 3.4110
L4.6650 3.4500
" />
<path d="M4.6470 3.6590
L4.6230 3.6940
" />
<path d="M4.6470 5.9510
L4.6650 5.9900
" />
<path d="M4.6470 6.1990
L4.6230 6.2340
" />
<path d="M4.6470 8.4910
L4.6650 8.5300
" />
<path d="M4.6470 8.7390
L4.6230 8.7740
" />
<path d="M4.6470 11.0310
L4.6650 11.0700
" />
<path d="M4.6470 11.2790
L4.6230 11.3140
" />
<path d="M4.6470 13.5710
L4.6650 13.6100
" />
<path d="M4.6470 13.8190
L4.6230 13.8540
" />
<path d="M4.6470 16.1110
L4.6650 16.1500
" />
<path d="M4.6470 16.3590
L4.6230 16.3940
" />
<path d="M4.6470 18.6510
L4.6650 18.6900
" />
<path d="M4.6470 18.8990
L4.6230 18.9340
" />
<path d="M4.6470 21.1910
L4.6650 21.2300
" />
<path d="M4.6470 21.4390
L4.6230 21.4740
" />
<path d="M4.6470 23.7310
L4.6650 23.7700
" />
<path d="M4.6470 23.9790
L4.6230 24.0140
" />
<path d="M4.6650 3.4500
L4.6750 3.4920
" />
<path d="M4.6650 3.6200
L4.6470 3.6590
" />
<path d="M4.6650 5.9900
L4.6750 6.0320
" />
<path d="M4.6650 6.1600
L4.6470 6.1990
" />
<path d="M4.6650 8.5300
L4.6750 8.5720
" />
<path d="M4.6650 8.7000
L4.6470 8.7390
" />
<path d="M4.6650 11.0700
L4.6750 11.1120
" />
<path d="M4.6650 11.2400
L4.6470 11.2790
" />
<path d="M4.6650 13.6100
L4.6750 13.6520
" />
<path d="M4.6650 13.7800
L4.6470 13.8190
" />
<path d="M4.6650 16.1500
L4.6750 16.1920
" />
<path d="M4.6650 16.3200
L4.6470 16.3590
" />
<path d="M4.6650 18.6900
L4.6750 18.7320
" />
<path d="M4.6650 18.8600
L4.6470 18.8990
" />
<path d="M4.6650 21.2300
L4.6750 21.2720
" />
<path d="M4.6650 21.4000
L4.6470 21.4390
" />
<path d="M4.6650 23.7700
L4.6750 23.8120
" />
<path d="M4.6650 23.9400
L4.6470 23.9790
" />
<path d="M4.6750 3.4920
L4.6790 3.5350
" />
<path d="M4.6750 3.5780
L4.6650 3.6200
" />
<path d="M4.6750 6.0320
L4.6790 6.0750
" />
<path d="M4.6750 6.1180
L4.6650 6.1600
" />
<path d="M4.6750 8.5720
L4.6790 8.6150
" />
<path d="M4.6750 8.6580
L4.6650 8.7000
" />
<path d="M4.6750 11.1120
L4.6790 11.1550
" />
<path d="M4.6750 11.1980
L4.6650 11.2400
" />
<path d="M4.6750 13.6520
L4.6790 13.6950
" />
<path d="M4.6750 13.7380
L4.6650 13.7800
" />
<path d="M4.6750 16.1920
L4.6790 16.2350
" />
<path d="M4.6750 16.2780
L4.6650 16.3200
" />
<path d="M4.6750 18.7320
L4.6790 18.7750
" />
<path d="M4.6750 18.8180
L4.6650 18.8600
" />
<path d="M4.6750 21.2720
L4.6790 21.3150
" />
<path d="M4.6750 21.3580
L4.6650 21.4000
" />
<path d="M4.6750 23.8120
L4.6790 23.8550
" />
<path d="M4.6750 23.8980
L4.6650 23.9400
" />
<path d="M4.6790 3.5350
L4.6750 3.5780
" />
<path d="M4.6790 6.0750
L4.6750 6.1180
" />
<path d="M4.6790 8.6150
L4.6750 8.6580
" />
<path d="M4.6790 11.1550
L4.6750 11.1980
" />
<path d="M4.6790 13.6950
L4.6750 13.7380
" />
<path d="M4.6790 16.2350
L4.6750 16.2780
" />
<path d="M4.6790 18.7750
L4.6750 18.8180
" />
<path d="M4.6790 21.3150
L4.6750 21.3580
" />
<path d="M4.6790 23.8550
L4.6750 23.8980
" />
<path d="M4.8250 2.6460
L4.0250 2.6460
" />
<path d="M4.8250 3.3450
L4.8250 2.6460
" />
<path d="M4.8250 3.7250
L4.5710 3.7250
" />
<path d="M4.8250 3.7250
L6.0760 3.7250
" />
<path d="M4.8250 4.4240
L4.8250 3.7250
" />
<path d="M4.8250 5.1860
L4.0250 5.1860
" />
<path d="M4.8250 5.8850
L4.8250 5.1860
" />
<path d="M4.8250 6.2650
L4.5710 6.2650
" />
<path d="M4.8250 6.2650
L6.0760 6.2650
" />
<path d="M4.8250 6.9640
L4.8250 6.2650
" />
<path d="M4.8250 7.7260
L4.0250 7.7260
" />
<path d="M4.8250 8.4250
L4.8250 7.7260
" />
<path d="M4.8250 8.8050
L4.5710 8.8050
" />
<path d="M4.8250 8.8050
L6.0760 8.8050
" />
<path d="M4.8250 9.5040
L4.8250 8.8050
" />
<path d="M4.8250 10.2660
L4.0250 10.2660
" />
<path d="M4.8250 10.9650
L4.8250 10.2660
" />
<path d="M4.8250 11.3450
L4.5710 11.3450
" />
<path d="M4.8250 11.3450
L6.0760 11.3450
" />
<path d="M4.8250 12.0440
L4.8250 11.3450
" />
<path d="M4.8250 12.8060
L4.0250 12.8060
" />
<path d="M4.8250 13.5050
L4.8250 12.8060
" />
<path d="M4.8250 13.8850
L4.5710 13.8850
" />
<path d="M4.8250 13.8850
L6.0760 13.8850
" />
<path d="M4.8250 14.5840
L4.8250 13.8850
" />
<path d="M4.8250 15.3460
L4.0250 15.3460
" />
<path d="M4.8250 16.0450
L4.8250 15.3460
" />
<path d="M4.8250 16.4250
L4.5710 16.4250
" />
<path d="M4.8250 16.4250
L6.0760 16.4250
" />
<path d="M4.8250 17.1240
L4.8250 16.4250
" />
<path d="M4.8250 17.8860
L4.0250 17.8860
" />
<path d="M4.8250 18.5850
L4.8250 17.8860
" />
<path d="M4.8250 18.9650
L4.5710 18.9650
" />
<path d="M4.8250 18.9650
L6.0760 18.9650
" />
<path d="M4.8250 19.6640
L4.8250 18.9650
" />
<path d="M4.8250 20.4260
L4.0250 20.4260
" />
<path d="M4.8250 21.1250
L4.8250 20.4260
" />
<path d="M4.8250 21.5050
L4.5710 21.5050
" />
<path d="M4.8250 21.5050
L6.0760 21.5050
" />
<path d="M4.8250 22.2040
L4.8250 21.5050
" />
<path d="M4.8250 22.9660
L4.0250 22.9660
" />
<path d="M4.8250 23.6650
L4.8250 22.9660
" />
<path d="M4.8250 24.0450
L4.5710 24.0450
" />
<path d="M4.8250 24.0450
L6.0760 24.0450
" />
<path d="M4.8250 24.7440
L4.8250 24.0450
" />
<path d="M4.8690 1.4390
L4.8690 3.0910
" />
<path d="M4.8690 3.0910
L6.5210 3.0910
" />
<path d="M4.8690 3.9790
L4.8690 5.6300
" />
<path d="M4.8690 5.6300
L6.5210 5.6300
" />
<path d="M4.8690 6.5190
L4.8690 8.1710
" />
<path d="M4.8690 8.1710
L6.5210 8.1710
" />
<path d="M4.8690 9.0590
L4.8690 10.7110
" />
<path d="M4.8690 10.7110
L6.5210 10.7110
" />
<path d="M4.8690 11.5990
L4.8690 13.2510
" />
<path d="M4.8690 13.2510
L6.5210 13.2510
" />
<path d="M4.8690 14.1390
L4.8690 15.7910
" />
<path d="M4.8690 15.7910
L6.5210 15.7910
" />
<path d="M4.8690 16.6790
L4.8690 18.3310
" />
<path d="M4.8690 18.3310
L6.5210 18.3310
" />
<path d="M4.8690 19.2190
L4.8690 20.8710
" />
<path d="M4.8690 20.8710
L6.5210 20.8710
" />
<path d="M4.8690 21.7600
L4.8690 23.4110
" />
<path d="M4.8690 23.4110
L6.5210 23.4110
" />
<path d="M4.8690 24.2990
L4.8690 25.9510
" />
<path d="M4.8690 25.9510
L6.5210 25.9510
" />
<path d="M5.1870 3.3450
L5.1870 3.7250
" />
<path d="M5.1870 5.8850
L5.1870 6.2650
" />
<path d="M5.1870 8.4250
L5.1870 8.8050
" />
<path d="M5.1870 10.9650
L5.1870 11.3450
" />
<path d="M5.1870 13.5050
L5.1870 13.8850
" />
<path d="M5.1870 16.0450
L5.1870 16.4250
" />
<path d="M5.1870 18.5850
L5.1870 18.9650
" />
<path d="M5.1870 21.1250
L5.1870 21.5050
" />
<path d="M5.1870 23.6650
L5.1870 24.0450
" />
<path d="M5.3770 1.9470
L4.8690 1.4390
" />
<path d="M5.3770 1.9470
L5.3770 2.5830
" />
<path d="M5.3770 1.9470
L5.5430 2.1130
" />
<path d="M5.3770 2.5830
L4.8690 3.0910
" />
<path d="M5.3770 2.5830
L6.0120 2.5830
" />
<path d="M5.3770 4.4870
L4.8690 3.9790
" />
<path d="M5.3770 4.4870
L5.3770 5.1230
" />
<path d="M5.3770 4.4870
L5.5430 4.6530
" />
<path d="M5.3770 5.1230
L4.8690 5.6300
" />
<path d="M5.3770 5.1230
L6.0120 5.1230
" />
<path d="M5.3770 7.0270
L4.8690 6.5190
" />
<path d="M5.3770 7.0270
L5.3770 7.6630
" />
<path d="M5.3770 7.0270
L5.5430 7.1930
" />
<path d="M5.3770 7.6630
L4.8690 8.1710
" />
<path d="M5.3770 7.6630
L6.0120 7.6630
" />
<path d="M5.3770 9.5670
L4.8690 9.0590
" />
<path d="M5.3770 9.5670
L5.3770 10.2030
" />
<path d="M5.3770 9.5670
L5.5430 9.7330
" />
<path d="M5.3770 10.2030
L4.8690 10.7110
" />
<path d="M5.3770 10.2030
L6.0120 10.2030
" />
<path d="M5.3770 12.1080
L4.8690 11.5990
" />
<path d="M5.3770 12.1080
L5.3770 12.7430
" />
<path d="M5.3770 12.1080
L5.5430 12.2730
" />
<path d="M5.3770 12.7430
L4.8690 13.2510
" />
<path d="M5.3770 12.7430
L6.0120 12.7430
" />
<path d="M5.3770 14.6470
L4.8690 14.1390
" />
<path d="M5.3770 14.6470
L5.3770 15.2820
" />
<path d="M5.3770 14.6470
L5.5430 14.8130
" />
<path d="M5.3770 15.2820
L4.8690 15.7910
" />
<path d="M5.3770 15.2820
L6.0120 15.2820
" />
<path d="M5.3770 17.1870
L4.8690 16.6790
" />
<path d="M5.3770 17.1870
L5.3770 17.8230
" />
<path d="M5.3770 17.1870
L5.5430 17.3530
" />
<path d="M5.3770 17.8230
L4.8690 18.3310
" />
<path d="M5.3770 17.8230
L6.0120 17.8230
" />
<path d="M5.3770 19.7270
L4.8690 19.2190
" />
<path d="M5.3770 19.7270
L5.3770 20.3630
" />
<path d="M5.3770 19.7270
L5.5430 19.8930
" />
<path d="M5.3770 20.3630
L4.8690 20.8710
" />
<path d="M5.3770 20.3630
L6.0120 20.3630
" />
<path d="M5.3770 22.2670
L4.8690 21.7600
" />
<path d="M5.3770 22.2670
L5.3770 22.9030
" />
<path d="M5.3770 22.2670
L5.5430 22.4330
" />
<path d="M5.3770 22.9030
L4.8690 23.4110
" />
<path d="M5.3770 22.9030
L6.0120 22.9030
" />
<path d="M5.3770 24.8070
L4.8690 24.2990
" />
<path d="M5.3770 24.8070
L5.3770 25.4430
" />
<path d="M5.3770 24.8070
L5.5430 24.9730
" />
<path d="M5.3770 25.4430
L4.8690 25.9510
" />
<path d="M5.3770 25.4430
L6.0120 25.4430
" />
<path d="M5.5430 2.1130
L5.8470 2.1130
" />
<path d="M5.5430 2.4170
L5.3770 2.5830
" />
<path d="M5.5430 2.4170
L5.5430 2.1130
" />
<path d="M5.5430 4.6530
L5.8470 4.6530
" />
<path d="M5.5430 4.9570
L5.3770 5.1230
" />
<path d="M5.5430 4.9570
L5.5430 4.6530
" />
<path d="M5.5430 7.1930
L5.8470 7.1930
" />
<path d="M5.5430 7.4970
L5.3770 7.6630
" />
<path d="M5.5430 7.4970
L5.5430 7.1930
" />
<path d="M5.5430 9.7330
L5.8470 9.7330
" />
<path d="M5.5430 10.0370
L5.3770 10.2030
" />
<path d="M5.5430 10.0370
L5.5430 9.7330
" />
<path d="M5.5430 12.2730
L5.8470 12.2730
" />
<path d="M5.5430 12.5770
L5.3770 12.7430
" />
<path d="M5.5430 12.5770
L5.5430 12.2730
" />
<path d="M5.5430 14.8130
L5.8470 14.8130
" />
<path d="M5.5430 15.1170
L5.3770 15.2820
" />
<path d="M5.5430 15.1170
L5.5430 14.8130
" />
<path d="M5.5430 17.3530
L5.8470 17.3530
" />
<path d="M5.5430 17.6570
L5.3770 17.8230
" />
<path d="M5.5430 17.6570
L5.5430 17.3530
" />
<path d="M5.5430 19.8930
L5.8470 19.8930
" />
<path d="M5.5430 20.1970
L5.3770 20.3630
" />
<path d="M5.5430 20.1970
L5.5430 19.8930
" />
<path d="M5.5430 22.4330
L5.8470 22.4330
" />
<path d="M5.5430 22.7370
L5.3770 22.9030
" />
<path d="M5.5430 22.7370
L5.5430 22.4330
" />
<path d="M5.5430 24.9730
L5.8470 24.9730
" />
<path d="M5.5430 25.2770
L5.3770 25.4430
" />
<path d="M5.5430 25.2770
L5.5430 24.9730
" />
<path d="M5.8470 2.1130
L5.8470 2.4170
" />
<path d="M5.8470 2.4170
L5.5430 2.4170
" />
<path d="M5.8470 2.4170
L6.0120 2.5830
" />
<path d="M5.8470 4.6530
L5.8470 4.9570
" />
<path d="M5.8470 4.9570
L5.5430 4.9570
" />
<path d="M5.8470 4.9570
L6.0120 5.1230
" />
<path d="M5.8470 7.1930
L5.8470 7.4970
" />
<path d="M5.8470 7.4970
L5.5430 7.4970
" />
<path d="M5.8470 7.4970
L6.0120 7.6630
" />
<path d="M5.8470 9.7330
L5.8470 10.0370
" />
<path d="M5.8470 10.0370
L5.5430 10.0370
" />
<path d="M5.8470 10.0370
L6.0120 10.2030
" />
<path d="M5.8470 12.2730
L5.8470 12.5770
" />
<path d="M5.8470 12.5770
L5.5430 12.5770
" />
<path d="M5.8470 12.5770
L6.0120 12.7430
" />
<path d="M5.8470 14.8130
L5.8470 15.1170
" />
<path d="M5.8470 15.1170
L5.5430 15.1170
" />
<path d="M5.8470 15.1170
L6.0120 15.2820
" />
<path d="M5.8470 17.3530
L5.8470 17.6570
" />
<path d="M5.8470 17.6570
L5.5430 17.6570
" />
<path d="M5.8470 17.6570
L6.0120 17.8230
" />
<path d="M5.8470 19.8930
L5.8470 20.1970
" />
<path d="M5.8470 20.1970
L5.5430 20.1970
" />
<path d="M5.8470 20.1970
L6.0120 20.3630
" />
<path d="M5.8470 22.4330
L5.8470 22.7370
" />
<path d="M5.8470 22.7370
L5.5430 22.7370
" />
<path d="M5.8470 22.7370
L6.0120 22.9030
" />
<path d="M5.8470 24.9730
L5.8470 25.2770
" />
<path d="M5.8470 25.2770
L5.5430 25.2770
" />
<path d="M5.8470 25.2770
L6.0120 25.4430
" />
<path d="M6.0120 1.9470
L5.3770 1.9470
" />
<path d="M6.0120 1.9470
L5.8470 2.1130
" />
<path d="M6.0120 1.9470
L6.5210 1.4390
" />
<path d="M6.0120 2.5830
L6.0120 1.9470
" />
<path d="M6.0120 2.5830
L6.5210 3.0910
" />
<path d="M6.0120 4.4870
L5.3770 4.4870
" />
<path d="M6.0120 4.4870
L5.8470 4.6530
" />
<path d="M6.0120 4.4870
L6.5210 3.9790
" />
<path d="M6.0120 5.1230
L6.0120 4.4870
" />
<path d="M6.0120 5.1230
L6.5210 5.6300
" />
<path d="M6.0120 7.0270
L5.3770 7.0270
" />
<path d="M6.0120 7.0270
L5.8470 7.1930
" />
<path d="M6.0120 7.0270
L6.5210 6.5190
" />
<path d="M6.0120 7.6630
L6.0120 7.0270
" />
<path d="M6.0120 7.6630
L6.5210 8.1710
" />
<path d="M6.0120 9.5670
L5.3770 9.5670
" />
<path d="M6.0120 9.5670
L5.8470 9.7330
" />
<path d="M6.0120 9.5670
L6.5210 9.0590
" />
<path d="M6.0120 10.2030
L6.0120 9.5670
" />
<path d="M6.0120 10.2030
L6.5210 10.7110
" />
<path d="M6.0120 12.1080
L5.3770 12.1080
" />
<path d="M6.0120 12.1080
L5.8470 12.2730
" />
<path d="M6.0120 12.1080
L6.5210 11.5990
" />
<path d="M6.0120 12.7430
L6.0120 12.1080
" />
<path d="M6.0120 12.7430
L6.5210 13.2510
" />
<path d="M6.0120 14.6470
L5.3770 14.6470
" />
<path d="M6.0120 14.6470
L5.8470 14.8130
" />
<path d="M6.0120 14.6470
L6.5210 14.1390
" />
<path d="M6.0120 15.2820
L6.0120 14.6470
" />
<path d="M6.0120 15.2820
L6.5210 15.7910
" />
<path d="M6.0120 17.1870
L5.3770 17.1870
" />
<path d="M6.0120 17.1870
L5.8470 17.3530
" />
<path d="M6.0120 17.1870
L6.5210 16.6790
" />
<path d="M6.0120 17.8230
L6.0120 17.1870
" />
<path d="M6.0120 17.8230
L6.5210 18.3310
" />
<path d="M6.0120 19.7270
L5.3770 19.7270
" />
<path d="M6.0120 19.7270
L5.8470 19.8930
" />
<path d="M6.0120 19.7270
L6.5210 19.2190
" />
<path d="M6.0120 20.3630
L6.0120 19.7270
" />
<path d="M6.0120 20.3630
L6.5210 20.8710
" />
<path d="M6.0120 22.2670
L5.3770 22.2670
" />
<path d="M6.0120 22.2670
L5.8470 22.4330
" />
<path d="M6.0120 22.2670
L6.5210 21.7600
" />
<path d="M6.0120 22.9030
L6.0120 22.2670
" />
<path d="M6.0120 22.9030
L6.5210 23.4110
" />
<path d="M6.0120 24.8070
L5.3770 24.8070
" />
<path d="M6.0120 24.8070
L5.8470 24.9730
" />
<path d="M6.0120 24.8070
L6.5210 24.2990
" />
<path d="M6.0120 25.4430
L6.0120 24.8070
" />
<path d="M6.0120 25.4430
L6.5210 25.9510
" />
<path d="M6.0760 3.3450
L4.8250 3.3450
" />
<path d="M6.0760 3.7250
L6.9650 4.1070
" />
<path d="M6.0760 5.8850
L4.8250 5.8850
" />
<path d="M6.0760 6.2650
L6.9650 6.6470
" />
<path d="M6.0760 8.4250
L4.8250 8.4250
" />
<path d="M6.0760 8.8050
L6.9650 9.1870
" />
<path d="M6.0760 10.9650
L4.8250 10.9650
" />
<path d="M6.0760 11.3450
L6.9650 11.7270
" />
<path d="M6.0760 13.5050
L4.8250 13.5050
" />
<path d="M6.0760 13.8850
L6.9650 14.2670
" />
<path d="M6.0760 16.0450
L4.8250 16.0450
" />
<path d="M6.0760 16.4250
L6.9650 16.8070
" />
<path d="M6.0760 18.5850
L4.8250 18.5850
" />
<path d="M6.0760 18.9650
L6.9650 19.3470
" />
<path d="M6.0760 21.1250
L4.8250 21.1250
" />
<path d="M6.0760 21.5050
L6.9650 21.8860
" />
<path d="M6.0760 23.6650
L4.8250 23.6650
" />
<path d="M6.0760 24.0450
L6.9650 24.4270
" />
<path d="M6.5210 1.4390
L4.8690 1.4390
" />
<path d="M6.5210 3.0910
L6.5210 1.4390
" />
<path d="M6.5210 3.9790
L4.8690 3.9790
" />
<path d="M6.5210 5.6300
L6.5210 3.9790
" />
<path d="M6.5210 6.5190
L4.8690 6.5190
" />
<path d="M6.5210 8.1710
L6.5210 6.5190
" />
<path d="M6.5210 9.0590
L4.8690 9.0590
" />
<path d="M6.5210 10.7110
L6.5210 9.0590
" />
<path d="M6.5210 11.5990
L4.8690 11.5990
" />
<path d="M6.5210 13.2510
L6.5210 11.5990
" />
<path d="M6.5210 14.1390
L4.8690 14.1390
" />
<path d="M6.5210 15.7910
L6.5210 14.1390
" />
<path d="M6.5210 16.6790
L4.8690 16.6790
" />
<path d="M6.5210 18.3310
L6.5210 16.6790
" />
<path d="M6.5210 19.2190
L4.8690 19.2190
" />
<path d="M6.5210 20.8710
L6.5210 19.2190
" />
<path d="M6.5210 21.7600
L4.8690 21.7600
" />
<path d="M6.5210 23.4110
L6.5210 21.7600
" />
<path d="M6.5210 24.2990
L4.8690 24.2990
" />
<path d="M6.5210 25.9510
L6.5210 24.2990
" />
<path d="M6.9650 0.9950
L1.8850 0.9950
" />
<path d="M6.9650 1.9470
L7.7650 1.9470
" />
<path d="M6.9650 2.5830
L7.7650 2.5830
" />
<path d="M6.9650 2.9630
L6.0760 3.3450
" />
<path d="M6.9650 2.9630
L6.9650 0.9950
" />
<path d="M6.9650 4.4870
L7.7650 4.4870
" />
<path d="M6.9650 5.1230
L7.7650 5.1230
" />
<path d="M6.9650 5.5040
L6.0760 5.8850
" />
<path d="M6.9650 5.5040
L6.9650 4.1070
" />
<path d="M6.9650 7.0270
L7.7650 7.0270
" />
<path d="M6.9650 7.6630
L7.7650 7.6630
" />
<path d="M6.9650 8.0430
L6.0760 8.4250
" />
<path d="M6.9650 8.0430
L6.9650 6.6470
" />
<path d="M6.9650 9.5670
L7.7650 9.5670
" />
<path d="M6.9650 10.2030
L7.7650 10.2030
" />
<path d="M6.9650 10.5830
L6.0760 10.9650
" />
<path d="M6.9650 10.5830
L6.9650 9.1870
" />
<path d="M6.9650 12.1080
L7.7650 12.1080
" />
<path d="M6.9650 12.7430
L7.7650 12.7430
" />
<path d="M6.9650 13.1230
L6.0760 13.5050
" />
<path d="M6.9650 13.1230
L6.9650 11.7270
" />
<path d="M6.9650 14.6470
L7.7650 14.6470
" />
<path d="M6.9650 15.2820
L7.7650 15.2820
" />
<path d="M6.9650 15.6630
L6.0760 16.0450
" />
<path d="M6.9650 15.6630
L6.9650 14.2670
" />
<path d="M6.9650 17.1870
L7.7650 17.1870
" />
<path d="M6.9650 17.8230
L7.7650 17.8230
" />
<path d="M6.9650 18.2030
L6.0760 18.5850
" />
<path d="M6.9650 18.2030
L6.9650 16.8070
" />
<path d="M6.9650 19.7270
L7.7650 19.7270
" />
<path d="M6.9650 20.3630
L7.7650 20.3630
" />
<path d="M6.9650 20.7430
L6.0760 21.1250
" />
<path d="M6.9650 20.7430
L6.9650 19.3470
" />
<path d="M6.9650 22.2670
L7.7650 22.2670
" />
<path d="M6.9650 22.9030
L7.7650 22.9030
" />
<path d="M6.9650 23.2830
L6.0760 23.6650
" />
<path d="M6.9650 23.2830
L6.9650 21.8860
" />
<path d="M6.9650 24.8070
L7.7650 24.8070
" />
<path d="M6.9650 25.4430
L7.7650 25.4430
" />
<path d="M6.9650 26.3950
L6.9650 24.4270
" />
<path d="M7.7650 1.9470
L7.7650 2.5830
" />
<path d="M7.7650 1.9470
L8.2730 2.1130
" />
<path d="M7.7650 4.4870
L7.7650 5.1230
" />
<path d="M7.7650 4.4870
L8.2730 4.6530
" />
<path d="M7.7650 7.0270
L7.7650 7.6630
" />
<path d="M7.7650 7.0270
L8.2730 7.1930
" />
<path d="M7.7650 9.5670
L7.7650 10.2030
" />
<path d="M7.7650 9.5670
L8.2730 9.7330
" />
<path d="M7.7650 12.1080
L7.7650 12.7430
" />
<path d="M7.7650 12.1080
L8.2730 12.2730
" />
<path d="M7.7650 14.6470
L7.7650 15.2820
" />
<path d="M7.7650 14.6470
L8.2730 14.8130
" />
<path d="M7.7650 17.1870
L7.7650 17.8230
" />
<path d="M7.7650 17.1870
L8.2730 17.3530
" />
<path d="M7.7650 19.7270
L7.7650 20.3630
" />
<path d="M7.7650 19.7270
L8.2730 19.8930
" />
<path d="M7.7650 22.2670
L7.7650 22.9030
" />
<path d="M7.7650 22.2670
L8.2730 22.4330
" />
<path d="M7.7650 24.8070
L7.7650 25.4430
" />
<path d="M7.7650 24.8070
L8.2730 24.9730
" />
<path d="M8.2730 2.4170
L7.7650 2.5830
" />
<path d="M8.2730 2.4170
L8.2730 2.1130
" />
<path d="M8.2730 4.9570
L7.7650 5.1230
" />
<path d="M8.2730 4.9570
L8.2730 4.6530
" />
<path d="M8.2730 7.4970
L7.7650 7.6630
" />
<path d="M8.2730 7.4970
L8.2730 7.1930
" />
<path d="M8.2730 10.0370
L7.7650 10.2030
" />
<path d="M8.2730 10.0370
L8.2730 9.7330
" />
<path d="M8.2730 12.5770
L7.7650 12.7430
" />
<path d="M8.2730 12.5770
L8.2730 12.2730
" />
<path d="M8.2730 15.1170
L7.7650 15.2820
" />
<path d="M8.2730 15.1170
L8.2730 14.8130
" />
<path d="M8.2730 17.6570
L7.7650 17.8230
" />
<path d="M8.2730 17.6570
L8.2730 17.3530
" />
<path d="M8.2730 20.1970
L7.7650 20.3630
" />
<path d="M8.2730 20.1970
L8.2730 19.8930
" />
<path d="M8.2730 22.7370
L7.7650 22.9030
" />
<path d="M8.2730 22.7370
L8.2730 22.4330
" />
<path d="M8.2730 25.2770
L7.7650 25.4430
" />
<path d="M8.2730 25.2770
L8.2730 24.9730
" />
</g> 
</svg>
