<?xml version="1.0" standalone="no"?>
 <!DOCTYPE svg PUBLIC "-//W3C//DTD SVG 1.1//EN" 
 "http://www.w3.org/Graphics/SVG/1.1/DTD/svg11.dtd"> 
<svg
  xmlns:svg="http://www.w3.org/2000/svg"
  xmlns="http://www.w3.org/2000/svg"
  xmlns:xlink="http://www.w3.org/1999/xlink"
  version="1.1"
  width="4.3180mm" height="12.9286mm" viewBox="0.0000 0.0000 4.3180 12.9286">
<title>SVG Image created as outline.svg date 2025/04/04 10:06:06 </title>
  <desc>Image generated by PCBNEW </desc>
<g style="fill:#000000; fill-opacity:1.0000;stroke:#000000; stroke-opacity:1.0000;
stroke-linecap:round; stroke-linejoin:round;"
 transform="translate(0 0) scale(1 1)">
</g>
<g style="fill:none; 
stroke:#000000; stroke-width:0.0200; stroke-opacity:1; 
stroke-linecap:round; stroke-linejoin:round;">
<path d="M0.4500 2.3750
L0.4500 2.5750
" />
<path d="M0.4500 2.3750
L1.1500 2.3750
" />
<path d="M0.4500 2.5750
L1.1500 2.5750
" />
<path d="M0.4500 3.3750
L0.4500 3.5750
" />
<path d="M0.4500 3.3750
L1.1500 3.3750
" />
<path d="M0.4500 3.5750
L1.1500 3.5750
" />
<path d="M0.4500 4.3750
L0.4500 4.5750
" />
<path d="M0.4500 4.3750
L1.1500 4.3750
" />
<path d="M0.4500 4.5750
L1.1500 4.5750
" />
<path d="M0.4500 5.3750
L0.4500 5.5750
" />
<path d="M0.4500 5.3750
L1.1500 5.3750
" />
<path d="M0.4500 5.5750
L1.1500 5.5750
" />
<path d="M0.4500 6.3750
L0.4500 6.5750
" />
<path d="M0.4500 6.3750
L1.1500 6.3750
" />
<path d="M0.4500 6.5750
L1.1500 6.5750
" />
<path d="M0.4500 7.3750
L0.4500 7.5750
" />
<path d="M0.4500 7.3750
L1.1500 7.3750
" />
<path d="M0.4500 7.5750
L1.1500 7.5750
" />
<path d="M0.4500 8.3750
L0.4500 8.5750
" />
<path d="M0.4500 8.3750
L1.1500 8.3750
" />
<path d="M0.4500 8.5750
L1.1500 8.5750
" />
<path d="M0.4500 9.3750
L0.4500 9.5750
" />
<path d="M0.4500 9.3750
L1.1500 9.3750
" />
<path d="M0.4500 9.5750
L1.1500 9.5750
" />
<path d="M0.4500 10.3750
L0.4500 10.5750
" />
<path d="M0.4500 10.3750
L1.1500 10.3750
" />
<path d="M0.4500 10.5750
L1.1500 10.5750
" />
<path d="M1.1500 0.9750
L1.7000 0.9750
" />
<path d="M1.1500 1.4750
L1.1500 0.9750
" />
<path d="M1.1500 1.4750
L1.1500 11.4750
" />
<path d="M1.1500 11.4750
L1.1500 11.9750
" />
<path d="M1.1500 11.9750
L1.7000 11.9750
" />
<path d="M1.5500 1.7750
L1.5500 11.1750
" />
<path d="M1.5500 11.1750
L2.5500 11.1750
" />
<path d="M1.7000 0.9750
L2.3500 0.9750
" />
<path d="M1.7000 1.4750
L1.7000 0.9750
" />
<path d="M1.7000 11.4750
L1.7000 11.9750
" />
<path d="M1.7000 11.9750
L2.3500 11.9750
" />
<path d="M2.3500 1.4750
L1.1500 1.4750
" />
<path d="M2.3500 1.4750
L2.3500 0.9750
" />
<path d="M2.3500 11.4750
L1.1500 11.4750
" />
<path d="M2.3500 11.4750
L2.3500 11.9750
" />
<path d="M2.5500 1.4250
L2.5500 1.7750
" />
<path d="M2.5500 1.7750
L1.5500 1.7750
" />
<path d="M2.5500 1.7750
L3.1500 1.7750
" />
<path d="M2.5500 11.1750
L2.5500 11.5250
" />
<path d="M2.5500 11.5250
L3.1500 11.5250
" />
<path d="M2.7500 2.3750
L2.7500 2.5750
" />
<path d="M2.7500 2.3750
L2.8800 2.3750
" />
<path d="M2.7500 2.5750
L2.8800 2.5750
" />
<path d="M2.7500 3.3750
L2.7500 3.5750
" />
<path d="M2.7500 3.3750
L2.8800 3.3750
" />
<path d="M2.7500 3.5750
L2.8800 3.5750
" />
<path d="M2.7500 4.3750
L2.7500 4.5750
" />
<path d="M2.7500 4.3750
L2.8800 4.3750
" />
<path d="M2.7500 4.5750
L2.8800 4.5750
" />
<path d="M2.7500 5.3750
L2.7500 5.5750
" />
<path d="M2.7500 5.3750
L2.8800 5.3750
" />
<path d="M2.7500 5.5750
L2.8800 5.5750
" />
<path d="M2.7500 6.3750
L2.7500 6.5750
" />
<path d="M2.7500 6.3750
L2.8800 6.3750
" />
<path d="M2.7500 6.5750
L2.8800 6.5750
" />
<path d="M2.7500 7.3750
L2.7500 7.5750
" />
<path d="M2.7500 7.3750
L2.8800 7.3750
" />
<path d="M2.7500 7.5750
L2.8800 7.5750
" />
<path d="M2.7500 8.3750
L2.7500 8.5750
" />
<path d="M2.7500 8.3750
L2.8800 8.3750
" />
<path d="M2.7500 8.5750
L2.8800 8.5750
" />
<path d="M2.7500 9.3750
L2.7500 9.5750
" />
<path d="M2.7500 9.3750
L2.8800 9.3750
" />
<path d="M2.7500 9.5750
L2.8800 9.5750
" />
<path d="M2.7500 10.3750
L2.7500 10.5750
" />
<path d="M2.7500 10.3750
L2.8800 10.3750
" />
<path d="M2.7500 10.5750
L2.8800 10.5750
" />
<path d="M2.8800 2.3750
L2.8800 2.5750
" />
<path d="M2.8800 2.3750
L3.2300 2.3750
" />
<path d="M2.8800 2.5750
L3.2300 2.5750
" />
<path d="M2.8800 3.3750
L2.8800 3.5750
" />
<path d="M2.8800 3.3750
L3.2300 3.3750
" />
<path d="M2.8800 3.5750
L3.2300 3.5750
" />
<path d="M2.8800 4.3750
L2.8800 4.5750
" />
<path d="M2.8800 4.3750
L3.2300 4.3750
" />
<path d="M2.8800 4.5750
L3.2300 4.5750
" />
<path d="M2.8800 5.3750
L2.8800 5.5750
" />
<path d="M2.8800 5.3750
L3.2300 5.3750
" />
<path d="M2.8800 5.5750
L3.2300 5.5750
" />
<path d="M2.8800 6.3750
L2.8800 6.5750
" />
<path d="M2.8800 6.3750
L3.2300 6.3750
" />
<path d="M2.8800 6.5750
L3.2300 6.5750
" />
<path d="M2.8800 7.3750
L2.8800 7.5750
" />
<path d="M2.8800 7.3750
L3.2300 7.3750
" />
<path d="M2.8800 7.5750
L3.2300 7.5750
" />
<path d="M2.8800 8.3750
L2.8800 8.5750
" />
<path d="M2.8800 8.3750
L3.2300 8.3750
" />
<path d="M2.8800 8.5750
L3.2300 8.5750
" />
<path d="M2.8800 9.3750
L2.8800 9.5750
" />
<path d="M2.8800 9.3750
L3.2300 9.3750
" />
<path d="M2.8800 9.5750
L3.2300 9.5750
" />
<path d="M2.8800 10.3750
L2.8800 10.5750
" />
<path d="M2.8800 10.3750
L3.2300 10.3750
" />
<path d="M2.8800 10.5750
L3.2300 10.5750
" />
<path d="M3.1500 1.4250
L2.5500 1.4250
" />
<path d="M3.1500 1.7750
L3.1500 1.4250
" />
<path d="M3.1500 11.1750
L2.5500 11.1750
" />
<path d="M3.1500 11.1750
L3.6500 11.1750
" />
<path d="M3.1500 11.5250
L3.1500 11.1750
" />
<path d="M3.2300 2.3750
L3.2300 2.5750
" />
<path d="M3.2300 3.3750
L3.2300 3.5750
" />
<path d="M3.2300 4.3750
L3.2300 4.5750
" />
<path d="M3.2300 5.3750
L3.2300 5.5750
" />
<path d="M3.2300 6.3750
L3.2300 6.5750
" />
<path d="M3.2300 7.3750
L3.2300 7.5750
" />
<path d="M3.2300 8.3750
L3.2300 8.5750
" />
<path d="M3.2300 9.3750
L3.2300 9.5750
" />
<path d="M3.2300 10.3750
L3.2300 10.5750
" />
<path d="M3.6500 1.7750
L3.1500 1.7750
" />
<path d="M3.6500 11.1750
L3.6500 1.7750
" />
<path d="M4.0500 0.9750
L2.3500 0.9750
" />
<path d="M4.0500 0.9750
L4.0500 11.9750
" />
<path d="M4.0500 11.9750
L2.3500 11.9750
" />
</g> 
</svg>
