<?xml version="1.0" standalone="no"?>
 <!DOCTYPE svg PUBLIC "-//W3C//DTD SVG 1.1//EN" 
 "http://www.w3.org/Graphics/SVG/1.1/DTD/svg11.dtd"> 
<svg
  xmlns:svg="http://www.w3.org/2000/svg"
  xmlns="http://www.w3.org/2000/svg"
  xmlns:xlink="http://www.w3.org/1999/xlink"
  version="1.1"
  width="8.8392mm" height="8.4328mm" viewBox="0.0000 0.0000 8.8392 8.4328">
<title>SVG Image created as outline.svg date 2025/06/16 09:17:43 </title>
  <desc>Image generated by PCBNEW </desc>
<g style="fill:#000000; fill-opacity:1.0000;stroke:#000000; stroke-opacity:1.0000;
stroke-linecap:round; stroke-linejoin:round;"
 transform="translate(0 0) scale(1 1)">
</g>
<g style="fill:none; 
stroke:#000000; stroke-width:0.0100; stroke-opacity:1; 
stroke-linecap:round; stroke-linejoin:round;">
<path d="M0.6836 3.1500
L0.6836 2.4500
" />
<path d="M0.6836 3.1500
L0.7500 3.1500
" />
<path d="M0.6836 3.8750
L0.6836 4.5750
" />
<path d="M0.6836 4.5750
L0.7500 4.5750
" />
<path d="M0.6836 6.0000
L0.6836 5.3000
" />
<path d="M0.6836 6.0000
L0.7500 6.0000
" />
<path d="M0.7500 1.8000
L0.7500 6.6500
" />
<path d="M0.7500 2.4500
L0.6836 2.4500
" />
<path d="M0.7500 3.8750
L0.6836 3.8750
" />
<path d="M0.7500 5.3000
L0.6836 5.3000
" />
<path d="M0.7500 6.6500
L0.9000 6.6500
" />
<path d="M0.9000 1.8000
L0.7500 1.8000
" />
<path d="M0.9000 6.6500
L0.9103 6.6500
" />
<path d="M0.9103 1.8000
L0.9000 1.8000
" />
<path d="M0.9103 6.6500
L1.1369 6.8766
" />
<path d="M0.9836 6.7233
L1.1369 6.8766
" />
<path d="M1.1369 1.5734
L0.9103 1.8000
" />
<path d="M1.1369 1.5734
L0.9836 1.7267
" />
<path d="M1.1369 6.8766
L1.1432 6.8832
" />
<path d="M1.1432 1.5668
L1.1369 1.5734
" />
<path d="M1.1432 6.8832
L1.1492 6.8901
" />
<path d="M1.1492 1.5599
L1.1432 1.5668
" />
<path d="M1.1492 6.8901
L1.1548 6.8972
" />
<path d="M1.1548 6.8972
L1.1601 6.9045
" />
<path d="M1.1549 1.5528
L1.1492 1.5599
" />
<path d="M1.1601 1.5455
L1.1549 1.5528
" />
<path d="M1.1601 6.9045
L1.1651 6.9120
" />
<path d="M1.1651 1.5380
L1.1601 1.5455
" />
<path d="M1.1651 6.9120
L1.1697 6.9198
" />
<path d="M1.1697 6.9198
L1.1739 6.9277
" />
<path d="M1.1697 1.5302
L1.1651 1.5380
" />
<path d="M1.1739 1.5223
L1.1697 1.5302
" />
<path d="M1.1739 6.9277
L1.1778 6.9358
" />
<path d="M1.1778 1.5142
L1.1739 1.5223
" />
<path d="M1.1778 6.9358
L1.1813 6.9441
" />
<path d="M1.1813 6.9441
L1.1845 6.9525
" />
<path d="M1.1813 1.5059
L1.1778 1.5142
" />
<path d="M1.1845 6.9525
L1.1872 6.9610
" />
<path d="M1.1845 1.4975
L1.1813 1.5059
" />
<path d="M1.1872 1.4890
L1.1845 1.4975
" />
<path d="M1.1872 6.9610
L1.1896 6.9697
" />
<path d="M1.1896 1.4803
L1.1872 1.4890
" />
<path d="M1.1896 6.9697
L1.1916 6.9786
" />
<path d="M1.1916 1.4714
L1.1896 1.4803
" />
<path d="M1.1916 6.9786
L1.1932 6.9875
" />
<path d="M1.1932 1.4625
L1.1916 1.4714
" />
<path d="M1.1932 6.9875
L1.1944 6.9965
" />
<path d="M1.1944 1.4535
L1.1932 1.4625
" />
<path d="M1.1944 6.9965
L1.1951 7.0055
" />
<path d="M1.1951 1.4445
L1.1944 1.4535
" />
<path d="M1.1951 7.0055
L1.6444 7.4549
" />
<path d="M1.6444 0.9951
L1.1951 1.4445
" />
<path d="M1.6444 7.4549
L1.6535 7.4556
" />
<path d="M1.6535 0.9944
L1.6444 0.9951
" />
<path d="M1.6535 7.4556
L1.6625 7.4568
" />
<path d="M1.6625 0.9932
L1.6535 0.9944
" />
<path d="M1.6625 7.4568
L1.6714 7.4584
" />
<path d="M1.6714 0.9916
L1.6625 0.9932
" />
<path d="M1.6714 7.4584
L1.6803 7.4604
" />
<path d="M1.6803 0.9896
L1.6714 0.9916
" />
<path d="M1.6803 7.4604
L1.6890 7.4628
" />
<path d="M1.6890 0.9872
L1.6803 0.9896
" />
<path d="M1.6890 7.4628
L1.6975 7.4655
" />
<path d="M1.6975 0.9845
L1.6890 0.9872
" />
<path d="M1.6975 7.4655
L1.7059 7.4687
" />
<path d="M1.7059 0.9813
L1.6975 0.9845
" />
<path d="M1.7059 7.4687
L1.7142 7.4722
" />
<path d="M1.7142 0.9778
L1.7059 0.9813
" />
<path d="M1.7142 7.4722
L1.7223 7.4761
" />
<path d="M1.7223 0.9739
L1.7142 0.9778
" />
<path d="M1.7223 7.4761
L1.7302 7.4803
" />
<path d="M1.7302 0.9697
L1.7223 0.9739
" />
<path d="M1.7302 7.4803
L1.7380 7.4849
" />
<path d="M1.7380 0.9651
L1.7302 0.9697
" />
<path d="M1.7380 7.4849
L1.7455 7.4899
" />
<path d="M1.7455 0.9601
L1.7380 0.9651
" />
<path d="M1.7455 7.4899
L1.7528 7.4951
" />
<path d="M1.7528 0.9548
L1.7455 0.9601
" />
<path d="M1.7528 7.4951
L1.7599 7.5008
" />
<path d="M1.7599 0.9492
L1.7528 0.9548
" />
<path d="M1.7599 7.5008
L1.7668 7.5068
" />
<path d="M1.7668 0.9432
L1.7599 0.9492
" />
<path d="M1.7668 7.5068
L1.7733 7.5130
" />
<path d="M1.7733 0.9369
L1.7668 0.9432
" />
<path d="M1.7733 7.5130
L1.9267 7.6664
" />
<path d="M1.7733 7.5130
L1.9853 7.7250
" />
<path d="M1.9267 0.7836
L1.7733 0.9369
" />
<path d="M1.9853 0.7250
L1.7733 0.9369
" />
<path d="M1.9853 7.7250
L2.2750 7.7250
" />
<path d="M2.0681 7.7250
L2.2750 7.7250
" />
<path d="M2.2750 0.5500
L2.2750 0.7000
" />
<path d="M2.2750 0.7000
L2.2750 0.7250
" />
<path d="M2.2750 0.7250
L1.9853 0.7250
" />
<path d="M2.2750 0.7250
L2.0681 0.7250
" />
<path d="M2.2750 7.7250
L2.2750 7.7500
" />
<path d="M2.2750 7.7500
L2.2750 7.9000
" />
<path d="M2.2750 7.9000
L3.1150 7.9000
" />
<path d="M2.4051 4.2250
L2.4056 4.1769
" />
<path d="M2.4056 4.1769
L2.4073 4.1290
" />
<path d="M2.4056 4.2731
L2.4051 4.2250
" />
<path d="M2.4073 4.1290
L2.4101 4.0814
" />
<path d="M2.4073 4.3211
L2.4056 4.2731
" />
<path d="M2.4101 4.0814
L2.4140 4.0340
" />
<path d="M2.4101 4.3688
L2.4073 4.3211
" />
<path d="M2.4140 4.0340
L2.4190 3.9867
" />
<path d="M2.4140 4.4162
L2.4101 4.3688
" />
<path d="M2.4190 3.9867
L2.4251 3.9397
" />
<path d="M2.4190 4.4635
L2.4140 4.4162
" />
<path d="M2.4251 3.9397
L2.4323 3.8929
" />
<path d="M2.4251 4.5105
L2.4190 4.4635
" />
<path d="M2.4323 3.8929
L2.4406 3.8464
" />
<path d="M2.4323 4.5573
L2.4251 4.5105
" />
<path d="M2.4406 3.8464
L2.4500 3.8000
" />
<path d="M2.4406 4.6039
L2.4323 4.5573
" />
<path d="M2.4500 3.8000
L2.4606 3.7538
" />
<path d="M2.4500 4.6503
L2.4406 4.6039
" />
<path d="M2.4606 3.7538
L2.4722 3.7079
" />
<path d="M2.4606 4.6964
L2.4500 4.6503
" />
<path d="M2.4722 3.7079
L2.4849 3.6622
" />
<path d="M2.4722 4.7423
L2.4606 4.6964
" />
<path d="M2.4849 3.6622
L2.4988 3.6167
" />
<path d="M2.4849 4.7880
L2.4722 4.7423
" />
<path d="M2.4988 3.6167
L2.5137 3.5714
" />
<path d="M2.4988 4.8335
L2.4849 4.7880
" />
<path d="M2.5137 3.5714
L2.5297 3.5263
" />
<path d="M2.5137 4.8787
L2.4988 4.8335
" />
<path d="M2.5297 3.5263
L2.5469 3.4815
" />
<path d="M2.5297 4.9237
L2.5137 4.8787
" />
</g>
<g style="fill:#000000; fill-opacity:1.0000; stroke:none;">
<circle cx="2.5469" cy="3.4815" r="0.0050" /> 
</g>
<g style="fill:none; 
stroke:#000000; stroke-width:0.0100; stroke-opacity:1; 
stroke-linecap:round; stroke-linejoin:round;">
<path d="M2.5469 3.4815
L2.5667 3.4332
" />
<path d="M2.5469 4.9685
L2.5297 4.9237
" />
</g>
<g style="fill:#000000; fill-opacity:1.0000; stroke:none;">
<circle cx="2.5469" cy="4.9685" r="0.0050" /> 
</g>
<g style="fill:none; 
stroke:#000000; stroke-width:0.0100; stroke-opacity:1; 
stroke-linecap:round; stroke-linejoin:round;">
<path d="M2.5667 3.4332
L2.5876 3.3857
" />
<path d="M2.5667 5.0168
L2.5469 4.9685
" />
<path d="M2.5876 3.3857
L2.6096 3.3389
" />
<path d="M2.5877 5.0644
L2.5667 5.0168
" />
<path d="M2.6096 3.3389
L2.6328 3.2928
" />
<path d="M2.6097 5.1112
L2.5877 5.0644
" />
<path d="M2.6328 3.2928
L2.6570 3.2475
" />
<path d="M2.6329 5.1574
L2.6097 5.1112
" />
<path d="M2.6561 4.2250
L2.6600 4.1071
" />
<path d="M2.6570 3.2475
L2.6824 3.2029
" />
<path d="M2.6571 4.2841
L2.6561 4.2250
" />
<path d="M2.6571 5.2027
L2.6329 5.1574
" />
<path d="M2.6600 4.1071
L2.6716 3.9907
" />
<path d="M2.6600 4.3429
L2.6571 4.2841
" />
<path d="M2.6649 4.4013
L2.6600 4.3429
" />
<path d="M2.6716 3.9907
L2.6908 3.8760
" />
<path d="M2.6716 4.4593
L2.6649 4.4013
" />
<path d="M2.6803 4.5169
L2.6716 4.4593
" />
<path d="M2.6824 3.2029
L2.7088 3.1590
" />
<path d="M2.6825 5.2474
L2.6571 5.2027
" />
<path d="M2.6908 3.8760
L2.7173 3.7635
" />
<path d="M2.6908 4.5740
L2.6803 4.5169
" />
<path d="M2.7031 4.6305
L2.6908 4.5740
" />
<path d="M2.7088 3.1590
L2.7364 3.1158
" />
<path d="M2.7089 5.2913
L2.6825 5.2474
" />
<path d="M2.7173 3.7635
L2.7510 3.6533
" />
<path d="M2.7173 4.6865
L2.7031 4.6305
" />
<path d="M2.7333 4.7419
L2.7173 4.6865
" />
<path d="M2.7359 4.2250
L2.7397 4.3376
" />
<path d="M2.7364 3.1158
L2.7650 3.0734
" />
<path d="M2.7365 5.3344
L2.7089 5.2913
" />
<path d="M2.7380 4.1412
L2.7359 4.2250
" />
<path d="M2.7397 4.3376
L2.7508 4.4487
" />
<path d="M2.7442 4.0581
L2.7380 4.1412
" />
<path d="M2.7508 4.4487
L2.7691 4.5582
" />
<path d="M2.7510 3.6533
L2.7916 3.5459
" />
<path d="M2.7510 4.7967
L2.7333 4.7419
" />
<path d="M2.7544 3.9756
L2.7442 4.0581
" />
<path d="M2.7650 3.0734
L2.7948 3.0317
" />
<path d="M2.7651 5.3769
L2.7365 5.3344
" />
<path d="M2.7687 3.8939
L2.7544 3.9756
" />
<path d="M2.7691 4.5582
L2.7944 4.6657
" />
<path d="M2.7704 4.8508
L2.7510 4.7967
" />
<path d="M2.7869 3.8133
L2.7687 3.8939
" />
<path d="M2.7916 3.5459
L2.8390 3.4415
" />
<path d="M2.7916 4.9041
L2.7704 4.8508
" />
<path d="M2.7944 4.6657
L2.8265 4.7709
" />
<path d="M2.7948 3.0317
L2.8257 2.9907
" />
<path d="M2.7949 5.4186
L2.7651 5.3769
" />
<path d="M2.8089 3.7338
L2.7869 3.8133
" />
<path d="M2.8145 4.9567
L2.7916 4.9041
" />
<path d="M2.8257 2.9907
L2.8577 2.9505
" />
<path d="M2.8258 5.4595
L2.7949 5.4186
" />
<path d="M2.8265 4.7709
L2.8654 4.8735
" />
<path d="M2.8348 3.6555
L2.8089 3.7338
" />
<path d="M2.8390 3.4415
L2.8931 3.3405
" />
<path d="M2.8390 5.0085
L2.8145 4.9567
" />
<path d="M2.8577 2.9505
L2.8908 2.9109
" />
<path d="M2.8578 5.4997
L2.8258 5.4595
" />
<path d="M2.8645 3.5786
L2.8348 3.6555
" />
<path d="M2.8652 5.0594
L2.8390 5.0085
" />
<path d="M2.8654 4.8735
L2.9106 4.9731
" />
<path d="M2.8908 2.9109
L2.9250 2.8721
" />
<path d="M2.8908 5.5392
L2.8578 5.4997
" />
<path d="M2.8931 3.3405
L2.9535 3.2433
" />
<path d="M2.8931 5.1095
L2.8652 5.0594
" />
<path d="M2.8979 3.5033
L2.8645 3.5786
" />
<path d="M2.9106 4.9731
L2.9622 5.0695
" />
<path d="M2.9225 5.1586
L2.8931 5.1095
" />
<path d="M2.9250 2.8721
L2.9603 2.8340
" />
<path d="M2.9250 4.2250
L2.9268 4.1506
" />
<path d="M2.9250 5.5780
L2.8908 5.5392
" />
<path d="M2.9261 4.2817
L2.9250 4.2250
" />
<path d="M2.9268 4.1506
L2.9323 4.0767
" />
<path d="M2.9292 4.3380
L2.9261 4.2817
" />
<path d="M2.9323 4.0767
L2.9414 4.0035
" />
<path d="M2.9345 4.3938
L2.9292 4.3380
" />
<path d="M2.9349 3.4296
L2.8979 3.5033
" />
<path d="M2.9414 4.0035
L2.9541 3.9310
" />
<path d="M2.9418 4.4492
L2.9345 4.3938
" />
<path d="M2.9511 4.5040
L2.9418 4.4492
" />
<path d="M2.9535 3.2433
L3.0202 3.1500
" />
<path d="M2.9535 5.2067
L2.9225 5.1586
" />
<path d="M2.9541 3.9310
L2.9702 3.8594
" />
<path d="M2.9603 2.8340
L2.9967 2.7967
" />
<path d="M2.9603 5.6160
L2.9250 5.5780
" />
<path d="M2.9622 5.0695
L3.0199 5.1624
" />
<path d="M2.9624 4.5583
L2.9511 4.5040
" />
<path d="M2.9702 3.8594
L2.9898 3.7887
" />
<path d="M2.9755 3.3578
L2.9349 3.4296
" />
<path d="M2.9757 4.6119
L2.9624 4.5583
" />
<path d="M2.9861 5.2539
L2.9535 5.2067
" />
<path d="M2.9898 3.7887
L3.0128 3.7192
" />
<path d="M2.9909 4.6648
L2.9757 4.6119
" />
</g>
<g style="fill:#000000; fill-opacity:1.0000; stroke:none;">
<circle cx="2.9967" cy="2.7967" r="0.0050" /> 
</g>
<g style="fill:none; 
stroke:#000000; stroke-width:0.0100; stroke-opacity:1; 
stroke-linecap:round; stroke-linejoin:round;">
<path d="M2.9967 2.7967
L3.0340 2.7603
" />
<path d="M2.9967 5.6533
L2.9603 5.6160
" />
</g>
<g style="fill:#000000; fill-opacity:1.0000; stroke:none;">
<circle cx="2.9967" cy="5.6533" r="0.0050" /> 
</g>
<g style="fill:none; 
stroke:#000000; stroke-width:0.0100; stroke-opacity:1; 
stroke-linecap:round; stroke-linejoin:round;">
<path d="M3.0079 4.7170
L2.9909 4.6648
" />
<path d="M3.0128 3.7192
L3.0392 3.6510
" />
<path d="M3.0197 3.2879
L2.9755 3.3578
" />
<path d="M3.0199 5.1624
L3.0836 5.2515
" />
<path d="M3.0202 3.1500
L3.0929 3.0611
" />
<path d="M3.0202 5.3000
L2.9861 5.2539
" />
<path d="M3.0269 4.7685
L3.0079 4.7170
" />
<path d="M3.0340 2.7603
L3.0720 2.7250
" />
<path d="M3.0340 5.6897
L2.9967 5.6533
" />
<path d="M3.0392 3.6510
L3.0688 3.5841
" />
<path d="M3.0476 4.8191
L3.0269 4.7685
" />
<path d="M3.0558 5.3450
L3.0202 5.3000
" />
<path d="M3.0674 3.2201
L3.0197 3.2879
" />
<path d="M3.0688 3.5841
L3.1017 3.5187
" />
<path d="M3.0702 4.8689
L3.0476 4.8191
" />
<path d="M3.0720 2.7250
L3.1108 2.6908
" />
<path d="M3.0721 5.7250
L3.0340 5.6897
" />
<path d="M3.0836 5.2515
L3.1530 5.3364
" />
<path d="M3.0929 3.0611
L3.1714 2.9769
" />
<path d="M3.0929 5.3889
L3.0558 5.3450
" />
<path d="M3.0945 4.9177
L3.0702 4.8689
" />
<path d="M3.1017 3.5187
L3.1378 3.4549
" />
<path d="M3.1108 2.6908
L3.1503 2.6578
" />
<path d="M3.1109 5.7592
L3.0721 5.7250
" />
<path d="M3.1150 0.5500
L2.2750 0.5500
" />
<path d="M3.1150 0.7000
L3.1150 0.5500
" />
<path d="M3.1150 0.8250
L3.1150 0.7000
" />
<path d="M3.1150 7.6250
L5.7350 7.6250
" />
<path d="M3.1150 7.7250
L3.1700 7.7250
" />
<path d="M3.1150 7.7500
L3.1150 7.6250
" />
<path d="M3.1150 7.9000
L3.1150 7.7500
" />
<path d="M3.1150 7.9000
L3.1700 7.9000
" />
<path d="M3.1184 3.1545
L3.0674 3.2201
" />
<path d="M3.1206 4.9656
L3.0945 4.9177
" />
<path d="M3.1314 5.4316
L3.0929 5.3889
" />
<path d="M3.1378 3.4549
L3.1770 3.3928
" />
<path d="M3.1484 5.0125
L3.1206 4.9656
" />
<path d="M3.1503 2.6578
L3.1905 2.6258
" />
<path d="M3.1505 5.7923
L3.1109 5.7592
" />
<path d="M3.1530 5.3364
L3.2280 5.4168
" />
<path d="M3.1700 0.5500
L3.1150 0.5500
" />
<path d="M3.1700 0.6500
L3.1150 0.6500
" />
<path d="M3.1700 0.7250
L3.1150 0.7250
" />
<path d="M3.1700 0.7348
L3.1700 0.4750
" />
<path d="M3.1700 7.8000
L3.1150 7.8000
" />
<path d="M3.1700 7.9750
L3.1700 7.7152
" />
<path d="M3.1714 5.4731
L3.1314 5.4316
" />
<path d="M3.1714 2.9769
L3.2557 2.8976
" />
<path d="M3.1729 3.0913
L3.1184 3.1545
" />
<path d="M3.1770 3.3928
L3.2193 3.3326
" />
<path d="M3.1778 5.0584
L3.1484 5.0125
" />
<path d="M3.1905 2.6258
L3.2314 2.5949
" />
<path d="M3.1907 5.8243
L3.1505 5.7923
" />
<path d="M3.2089 5.1031
L3.1778 5.0584
" />
<path d="M3.2129 5.5134
L3.1714 5.4731
" />
<path d="M3.2179 4.2250
L3.2185 4.2010
" />
<path d="M3.2185 4.2010
L3.2202 4.1771
" />
<path d="M3.2185 4.2490
L3.2179 4.2250
" />
<path d="M3.2193 3.3326
L3.2647 3.2744
" />
<path d="M3.2202 4.1771
L3.2230 4.1532
" />
<path d="M3.2202 4.2729
L3.2185 4.2490
" />
<path d="M3.2230 4.1532
L3.2270 4.1295
" />
<path d="M3.2230 4.2968
L3.2202 4.2729
" />
<path d="M3.2270 4.1295
L3.2322 4.1060
" />
<path d="M3.2270 4.3205
L3.2230 4.2968
" />
<path d="M3.2280 5.4168
L3.3085 5.4925
" />
<path d="M3.2306 3.0306
L3.1729 3.0913
" />
</g>
<g style="fill:#000000; fill-opacity:1.0000; stroke:none;">
<circle cx="3.2306" cy="3.0306" r="0.0050" /> 
</g>
<g style="fill:none; 
stroke:#000000; stroke-width:0.0100; stroke-opacity:1; 
stroke-linecap:round; stroke-linejoin:round;">
<path d="M3.2314 2.5949
L3.2731 2.5651
" />
<path d="M3.2317 5.8552
L3.1907 5.8243
" />
<path d="M3.2322 4.1060
L3.2385 4.0826
" />
<path d="M3.2322 4.3440
L3.2270 4.3205
" />
<path d="M3.2385 4.0826
L3.2459 4.0596
" />
<path d="M3.2385 4.3674
L3.2322 4.3440
" />
<path d="M3.2408 4.2250
L3.2414 4.2025
" />
<path d="M3.2414 4.2025
L3.2430 4.1799
" />
<path d="M3.2414 4.2475
L3.2408 4.2250
" />
<path d="M3.2416 5.1467
L3.2089 5.1031
" />
<path d="M3.2430 4.1799
L3.2457 4.1575
" />
<path d="M3.2430 4.2701
L3.2414 4.2475
" />
<path d="M3.2457 4.1575
L3.2494 4.1352
" />
<path d="M3.2457 4.2925
L3.2430 4.2701
" />
<path d="M3.2459 4.0596
L3.2545 4.0368
" />
<path d="M3.2459 4.3904
L3.2385 4.3674
" />
<path d="M3.2494 4.1352
L3.2543 4.1131
" />
<path d="M3.2494 4.3148
L3.2457 4.2925
" />
<path d="M3.2543 4.1131
L3.2602 4.0912
" />
<path d="M3.2543 4.3369
L3.2494 4.3148
" />
<path d="M3.2545 4.0368
L3.2642 4.0145
" />
<path d="M3.2545 4.4131
L3.2459 4.3904
" />
<path d="M3.2557 5.5524
L3.2129 5.5134
" />
<path d="M3.2557 2.8976
L3.3454 2.8237
" />
<path d="M3.2602 4.0912
L3.2672 4.0695
" />
<path d="M3.2602 4.3588
L3.2543 4.3369
" />
<path d="M3.2642 4.0145
L3.2751 3.9925
" />
<path d="M3.2642 4.4355
L3.2545 4.4131
" />
<path d="M3.2647 3.2744
L3.3130 3.2182
" />
<path d="M3.2672 4.0695
L3.2752 4.0481
" />
<path d="M3.2672 4.3805
L3.2602 4.3588
" />
<path d="M3.2731 2.5651
L3.3156 2.5365
" />
<path d="M3.2734 5.8850
L3.2317 5.8552
" />
<path d="M3.2751 3.9925
L3.2871 3.9709
" />
<path d="M3.2751 4.4575
L3.2642 4.4355
" />
<path d="M3.2752 4.0481
L3.2844 4.0271
" />
<path d="M3.2752 4.4019
L3.2672 4.3805
" />
<path d="M3.2758 5.1891
L3.2416 5.1467
" />
<path d="M3.2844 4.0271
L3.2946 4.0064
" />
<path d="M3.2844 4.4229
L3.2752 4.4019
" />
<path d="M3.2871 3.9709
L3.3003 3.9499
" />
<path d="M3.2871 4.4791
L3.2751 4.4575
" />
<path d="M3.2913 2.9729
L3.2306 3.0306
" />
<path d="M3.2946 4.0064
L3.3059 3.9862
" />
<path d="M3.2946 4.4436
L3.2844 4.4229
" />
<path d="M3.2999 5.5900
L3.2557 5.5524
" />
<path d="M3.3003 3.9499
L3.3146 3.9294
" />
<path d="M3.3003 4.5001
L3.2871 4.4791
" />
<path d="M3.3059 3.9862
L3.3183 3.9664
" />
<path d="M3.3059 4.4638
L3.2946 4.4436
" />
<path d="M3.3085 5.4925
L3.3941 5.5630
" />
<path d="M3.3117 5.2303
L3.2758 5.1891
" />
<path d="M3.3130 3.2182
L3.3643 3.1643
" />
<path d="M3.3146 3.9294
L3.3300 3.9094
" />
<path d="M3.3146 4.5206
L3.3003 4.5001
" />
<path d="M3.3156 2.5365
L3.3587 2.5089
" />
<path d="M3.3158 5.9136
L3.2734 5.8850
" />
<path d="M3.3183 3.9664
L3.3317 3.9471
" />
<path d="M3.3183 4.4836
L3.3059 4.4638
" />
<path d="M3.3300 3.9094
L3.3466 3.8901
" />
<path d="M3.3300 4.5406
L3.3146 4.5206
" />
<path d="M3.3317 3.9471
L3.3462 3.9284
" />
<path d="M3.3317 4.5029
L3.3183 4.4836
" />
<path d="M3.3454 2.8237
L3.4404 2.7554
" />
<path d="M3.3454 5.6263
L3.2999 5.5900
" />
<path d="M3.3462 3.9284
L3.3618 3.9102
" />
<path d="M3.3462 4.5216
L3.3317 4.5029
" />
<path d="M3.3466 3.8901
L3.3643 3.8714
" />
<path d="M3.3466 4.5599
L3.3300 4.5406
" />
<path d="M3.3490 5.2702
L3.3117 5.2303
" />
<path d="M3.3545 2.9184
L3.2913 2.9729
" />
<path d="M3.3587 2.5089
L3.4026 2.4825
" />
<path d="M3.3590 5.9412
L3.3158 5.9136
" />
<path d="M3.3618 3.9102
L3.3785 3.8927
" />
<path d="M3.3618 4.5398
L3.3462 4.5216
" />
<path d="M3.3643 3.1643
L3.4203 3.1112
" />
<path d="M3.3643 4.5786
L3.3466 4.5599
" />
<path d="M3.3643 4.5786
L4.0714 5.2857
" />
<path d="M3.3785 3.8927
L4.0927 3.1785
" />
<path d="M3.3785 4.5573
L3.3618 4.5398
" />
<path d="M3.3785 4.5573
L4.0927 5.2715
" />
<path d="M3.3878 5.3087
L3.3490 5.2702
" />
<path d="M3.3922 5.6612
L3.3454 5.6263
" />
<path d="M3.3941 5.5630
L3.4849 5.6283
" />
<path d="M3.4026 2.4825
L3.4473 2.4571
" />
<path d="M3.4029 5.9676
L3.3590 5.9412
" />
<path d="M3.4201 2.8674
L3.3545 2.9184
" />
<path d="M3.4203 3.1112
L3.4783 3.0615
" />
<path d="M3.4281 5.3459
L3.3878 5.3087
" />
<path d="M3.4404 5.6946
L3.3922 5.6612
" />
<path d="M3.4404 2.7554
L3.5405 2.6931
" />
<path d="M3.4473 2.4571
L3.4926 2.4329
" />
<path d="M3.4475 5.9930
L3.4029 5.9676
" />
<path d="M3.4698 5.3817
L3.4281 5.3459
" />
<path d="M3.4783 3.0615
L3.5381 3.0152
" />
<path d="M3.4849 5.6283
L3.5805 5.6878
" />
<path d="M3.4879 2.8197
L3.4201 2.8674
" />
<path d="M3.4898 5.7265
L3.4404 5.6946
" />
<path d="M3.4926 2.4329
L3.5388 2.4097
" />
<path d="M3.4928 6.0172
L3.4475 5.9930
" />
<path d="M3.5129 5.4159
L3.4698 5.3817
" />
<path d="M3.5381 3.0152
L3.5997 2.9723
" />
<path d="M3.5388 2.4097
L3.5856 2.3877
" />
<path d="M3.5389 6.0404
L3.4928 6.0172
" />
</g>
<g style="fill:#000000; fill-opacity:1.0000; stroke:none;">
<circle cx="3.5405" cy="2.6931" r="0.0050" /> 
</g>
<g style="fill:none; 
stroke:#000000; stroke-width:0.0100; stroke-opacity:1; 
stroke-linecap:round; stroke-linejoin:round;">
<path d="M3.5405 2.6931
L3.6446 2.6375
" />
<path d="M3.5405 5.7569
L3.4898 5.7265
" />
</g>
<g style="fill:#000000; fill-opacity:1.0000; stroke:none;">
<circle cx="3.5405" cy="5.7569" r="0.0050" /> 
</g>
<g style="fill:none; 
stroke:#000000; stroke-width:0.0100; stroke-opacity:1; 
stroke-linecap:round; stroke-linejoin:round;">
<path d="M3.5574 5.4487
L3.5129 5.4159
" />
<path d="M3.5578 2.7755
L3.4879 2.8197
" />
</g>
<g style="fill:#000000; fill-opacity:1.0000; stroke:none;">
<circle cx="3.5805" cy="5.6878" r="0.0050" /> 
</g>
<g style="fill:none; 
stroke:#000000; stroke-width:0.0100; stroke-opacity:1; 
stroke-linecap:round; stroke-linejoin:round;">
<path d="M3.5805 5.6878
L3.6798 5.7408
" />
<path d="M3.5856 2.3877
L3.6332 2.3667
" />
<path d="M3.5857 6.0624
L3.5389 6.0404
" />
<path d="M3.5997 2.9723
L3.6628 2.9329
" />
<path d="M3.6032 5.4799
L3.5574 5.4487
" />
<path d="M3.6296 2.7349
L3.5578 2.7755
" />
<path d="M3.6332 2.3667
L3.6815 2.3469
" />
<path d="M3.6332 6.0833
L3.5857 6.0624
" />
<path d="M3.6446 2.6375
L3.7512 2.5894
" />
<path d="M3.6446 5.8125
L3.5405 5.7569
" />
<path d="M3.6503 5.5095
L3.6032 5.4799
" />
<path d="M3.6628 2.9329
L3.7274 2.8969
" />
<path d="M3.6750 0.8250
L3.1150 0.8250
" />
<path d="M3.6798 5.7408
L3.7817 5.7868
" />
</g>
<g style="fill:#000000; fill-opacity:1.0000; stroke:none;">
<circle cx="3.6815" cy="2.3469" r="0.0050" /> 
</g>
<g style="fill:none; 
stroke:#000000; stroke-width:0.0100; stroke-opacity:1; 
stroke-linecap:round; stroke-linejoin:round;">
<path d="M3.6815 2.3469
L3.7264 2.3297
" />
<path d="M3.6815 6.1031
L3.6332 6.0833
" />
</g>
<g style="fill:#000000; fill-opacity:1.0000; stroke:none;">
<circle cx="3.6815" cy="6.1031" r="0.0050" /> 
</g>
<g style="fill:none; 
stroke:#000000; stroke-width:0.0100; stroke-opacity:1; 
stroke-linecap:round; stroke-linejoin:round;">
<path d="M3.6986 5.5374
L3.6503 5.5095
" />
<path d="M3.7033 2.6979
L3.6296 2.7349
" />
<path d="M3.7264 2.3297
L3.7715 2.3137
" />
<path d="M3.7264 6.1203
L3.6815 6.1031
" />
<path d="M3.7274 2.8969
L3.7934 2.8643
" />
<path d="M3.7482 5.5637
L3.6986 5.5374
" />
<path d="M3.7512 2.5894
L3.8601 2.5486
" />
<path d="M3.7512 5.8606
L3.6446 5.8125
" />
<path d="M3.7715 2.3137
L3.8168 2.2987
" />
<path d="M3.7716 6.1364
L3.7264 6.1203
" />
<path d="M3.7786 2.6645
L3.7033 2.6979
" />
<path d="M3.7817 5.7868
L3.8856 5.8257
" />
<path d="M3.7934 2.8643
L3.8605 2.8352
" />
<path d="M3.7990 5.5881
L3.7482 5.5637
" />
<path d="M3.8168 2.2987
L3.8623 2.2849
" />
<path d="M3.8169 6.1513
L3.7716 6.1364
" />
<path d="M3.8510 5.6108
L3.7990 5.5881
" />
</g>
<g style="fill:#000000; fill-opacity:1.0000; stroke:none;">
<circle cx="3.8510" cy="5.6108" r="0.0050" /> 
</g>
<g style="fill:none; 
stroke:#000000; stroke-width:0.0100; stroke-opacity:1; 
stroke-linecap:round; stroke-linejoin:round;">
<path d="M3.8555 2.6348
L3.7786 2.6645
" />
<path d="M3.8601 2.5486
L3.9709 2.5153
" />
<path d="M3.8601 5.9014
L3.7512 5.8606
" />
<path d="M3.8605 2.8352
L3.9287 2.8095
" />
<path d="M3.8623 2.2849
L3.9080 2.2721
" />
<path d="M3.8625 6.1652
L3.8169 6.1513
" />
<path d="M3.8856 5.8257
L3.9914 5.8575
" />
<path d="M3.9080 2.2721
L3.9540 2.2605
" />
<path d="M3.9082 6.1779
L3.8625 6.1652
" />
<path d="M3.9287 2.8095
L3.9979 2.7872
" />
<path d="M3.9338 2.6089
L3.8555 2.6348
" />
<path d="M3.9540 2.2605
L4.0001 2.2500
" />
<path d="M3.9542 6.1896
L3.9082 6.1779
" />
<path d="M3.9570 5.6501
L3.8510 5.6108
" />
<path d="M3.9709 2.5153
L4.0831 2.4894
" />
<path d="M3.9709 5.9347
L3.8601 5.9014
" />
<path d="M3.9914 5.8575
L4.0985 5.8822
" />
<path d="M3.9979 2.7872
L4.0678 2.7683
" />
<path d="M4.0001 2.2500
L4.0465 2.2406
" />
<path d="M4.0004 6.2001
L3.9542 6.1896
" />
<path d="M4.0133 2.5869
L3.9338 2.6089
" />
<path d="M4.0465 2.2406
L4.0931 2.2323
" />
<path d="M4.0467 6.2095
L4.0004 6.2001
" />
<path d="M4.0645 5.6811
L3.9570 5.6501
" />
<path d="M4.0678 2.7683
L4.1384 2.7529
" />
<path d="M4.0714 3.1643
L3.3643 3.8714
" />
<path d="M4.0714 3.1643
L4.0894 3.1472
" />
<path d="M4.0831 5.9606
L3.9709 5.9347
" />
<path d="M4.0831 2.4894
L4.1964 2.4709
" />
<path d="M4.0894 3.1472
L4.1081 3.1311
" />
<path d="M4.0901 5.3034
L4.0714 5.2857
" />
<path d="M4.0927 3.1785
L3.3785 3.8927
" />
<path d="M4.0927 3.1785
L4.1095 3.1624
" />
<path d="M4.0927 5.2715
L3.3785 4.5573
" />
<path d="M4.0927 5.2715
L4.1102 5.2882
" />
<path d="M4.0931 2.2323
L4.1398 2.2251
" />
<path d="M4.0933 6.2178
L4.0467 6.2095
" />
<path d="M4.0939 2.5687
L4.0133 2.5869
" />
<path d="M4.0985 5.8822
L4.2068 5.8999
" />
<path d="M4.1081 3.1311
L4.1275 3.1160
" />
<path d="M4.1094 5.3200
L4.0901 5.3034
" />
<path d="M4.1095 3.1624
L4.1271 3.1473
" />
<path d="M4.1102 5.2882
L4.1284 5.3038
" />
<path d="M4.1271 3.1473
L4.1454 3.1330
" />
<path d="M4.1275 3.1160
L4.1476 3.1019
" />
<path d="M4.1284 5.3038
L4.1471 5.3183
" />
<path d="M4.1294 5.3354
L4.1094 5.3200
" />
<path d="M4.1384 2.7529
L4.2096 2.7409
" />
<path d="M4.1398 2.2251
L4.1868 2.2190
" />
<path d="M4.1401 6.2250
L4.0933 6.2178
" />
<path d="M4.1454 3.1330
L4.1642 3.1198
" />
<path d="M4.1471 5.3183
L4.1664 5.3317
" />
<path d="M4.1476 3.1019
L4.1683 3.0888
" />
<path d="M4.1499 5.3497
L4.1294 5.3354
" />
<path d="M4.1642 3.1198
L4.1837 3.1075
" />
<path d="M4.1664 5.3317
L4.1862 5.3441
" />
<path d="M4.1683 3.0888
L4.1896 3.0768
" />
<path d="M4.1709 5.3629
L4.1499 5.3497
" />
<path d="M4.1732 5.7038
L4.0645 5.6811
" />
<path d="M4.1756 2.5544
L4.0939 2.5687
" />
<path d="M4.1837 3.1075
L4.2037 3.0962
" />
<path d="M4.1862 5.3441
L4.2064 5.3554
" />
<path d="M4.1868 2.2190
L4.2340 2.2140
" />
<path d="M4.1871 6.2311
L4.1401 6.2250
" />
<path d="M4.1896 3.0768
L4.2114 3.0658
" />
<path d="M4.1925 5.3749
L4.1709 5.3629
" />
<path d="M4.1964 2.4709
L4.3105 2.4598
" />
<path d="M4.1964 5.9791
L4.0831 5.9606
" />
<path d="M4.2037 3.0962
L4.2242 3.0859
" />
<path d="M4.2064 5.3554
L4.2271 5.3656
" />
<path d="M4.2068 5.8999
L4.3157 5.9105
" />
<path d="M4.2096 2.7409
L4.2811 2.7324
" />
<path d="M4.2114 3.0658
L4.2337 3.0560
" />
<path d="M4.2145 5.3858
L4.1925 5.3749
" />
<path d="M4.2242 3.0859
L4.2451 3.0766
" />
<path d="M4.2271 5.3656
L4.2481 5.3748
" />
<path d="M4.2337 3.0560
L4.2564 3.0472
" />
<path d="M4.2340 2.2140
L4.2815 2.2101
" />
<path d="M4.2342 6.2361
L4.1871 6.2311
" />
<path d="M4.2368 5.3955
L4.2145 5.3858
" />
<path d="M4.2451 3.0766
L4.2665 3.0683
" />
<path d="M4.2481 5.3748
L4.2695 5.3828
" />
<path d="M4.2564 3.0472
L4.2796 3.0395
" />
<path d="M4.2581 2.5442
L4.1756 2.5544
" />
<path d="M4.2596 5.4041
L4.2368 5.3955
" />
<path d="M4.2665 3.0683
L4.2883 3.0611
" />
<path d="M4.2695 5.3828
L4.2912 5.3898
" />
<path d="M4.2796 3.0395
L4.3031 3.0330
" />
<path d="M4.2811 2.7324
L4.3529 2.7273
" />
<path d="M4.2815 2.2101
L4.3291 2.2073
" />
<path d="M4.2816 6.2400
L4.2342 6.2361
" />
<path d="M4.2825 5.7183
L4.1732 5.7038
" />
<path d="M4.2826 5.4115
L4.2596 5.4041
" />
<path d="M4.2883 3.0611
L4.3104 3.0550
" />
<path d="M4.2912 5.3898
L4.3131 5.3957
" />
<path d="M4.3031 3.0330
L4.3270 3.0276
" />
<path d="M4.3060 5.4178
L4.2826 5.4115
" />
<path d="M4.3104 3.0550
L4.3329 3.0499
" />
<path d="M4.3105 2.4598
L4.4250 2.4561
" />
<path d="M4.3105 5.9902
L4.1964 5.9791
" />
<path d="M4.3131 5.3957
L4.3352 5.4006
" />
<path d="M4.3157 5.9105
L4.4250 5.9141
" />
<path d="M4.3270 3.0276
L4.3512 3.0234
" />
<path d="M4.3291 2.2073
L4.3769 2.2056
" />
<path d="M4.3292 6.2427
L4.2816 6.2400
" />
<path d="M4.3295 5.4230
L4.3060 5.4178
" />
<path d="M4.3329 3.0499
L4.3556 3.0460
" />
<path d="M4.3352 5.4006
L4.3575 5.4043
" />
<path d="M4.3412 2.5380
L4.2581 2.5442
" />
<path d="M4.3512 3.0234
L4.3756 3.0203
" />
<path d="M4.3529 2.7273
L4.4248 2.7256
" />
<path d="M4.3532 5.4270
L4.3295 5.4230
" />
<path d="M4.3556 3.0460
L4.3785 3.0431
" />
<path d="M4.3575 5.4043
L4.3799 5.4070
" />
<path d="M4.3756 3.0203
L4.4002 3.0185
" />
<path d="M4.3769 2.2056
L4.4250 2.2051
" />
<path d="M4.3770 6.2444
L4.3292 6.2427
" />
<path d="M4.3771 5.4298
L4.3532 5.4270
" />
<path d="M4.3785 3.0431
L4.4017 3.0414
" />
<path d="M4.3799 5.4070
L4.4025 5.4086
" />
<path d="M4.3921 5.7247
L4.2825 5.7183
" />
<path d="M4.4002 3.0185
L4.4250 3.0179
" />
<path d="M4.4010 5.4315
L4.3771 5.4298
" />
<path d="M4.4017 3.0414
L4.4250 3.0408
" />
<path d="M4.4025 5.4086
L4.4250 5.4092
" />
<path d="M4.4248 2.7256
L4.4968 2.7273
" />
<path d="M4.4250 1.3250
L3.6750 0.8250
" />
</g>
<g style="fill:#000000; fill-opacity:1.0000; stroke:none;">
<circle cx="4.4250" cy="2.2051" r="0.0050" /> 
</g>
<g style="fill:none; 
stroke:#000000; stroke-width:0.0100; stroke-opacity:1; 
stroke-linecap:round; stroke-linejoin:round;">
<path d="M4.4250 2.2051
L4.4730 2.2056
" />
<path d="M4.4250 2.4561
L4.5395 2.4598
" />
<path d="M4.4250 2.5359
L4.3412 2.5380
" />
<path d="M4.4250 3.0179
L4.4498 3.0185
" />
<path d="M4.4250 3.0408
L4.4483 3.0414
" />
<path d="M4.4250 5.4092
L4.4475 5.4086
" />
<path d="M4.4250 5.4321
L4.4010 5.4315
" />
<path d="M4.4250 5.9141
L4.5343 5.9105
" />
<path d="M4.4250 5.9939
L4.3105 5.9902
" />
<path d="M4.4250 6.2449
L4.3770 6.2444
" />
</g>
<g style="fill:#000000; fill-opacity:1.0000; stroke:none;">
<circle cx="4.4250" cy="6.2449" r="0.0050" /> 
</g>
<g style="fill:none; 
stroke:#000000; stroke-width:0.0100; stroke-opacity:1; 
stroke-linecap:round; stroke-linejoin:round;">
<path d="M4.4475 5.4086
L4.4701 5.4070
" />
<path d="M4.4483 3.0414
L4.4715 3.0431
" />
<path d="M4.4490 5.4315
L4.4250 5.4321
" />
<path d="M4.4498 3.0185
L4.4744 3.0203
" />
<path d="M4.4701 5.4070
L4.4925 5.4043
" />
<path d="M4.4715 3.0431
L4.4944 3.0460
" />
<path d="M4.4729 5.4298
L4.4490 5.4315
" />
<path d="M4.4730 2.2056
L4.5208 2.2073
" />
<path d="M4.4731 6.2444
L4.4250 6.2449
" />
<path d="M4.4744 3.0203
L4.4988 3.0234
" />
<path d="M4.4925 5.4043
L4.5148 5.4006
" />
<path d="M4.4944 3.0460
L4.5171 3.0499
" />
<path d="M4.4968 2.7273
L4.5686 2.7325
" />
<path d="M4.4968 5.4270
L4.4729 5.4298
" />
<path d="M4.4988 3.0234
L4.5230 3.0276
" />
<path d="M4.5014 5.7231
L4.3921 5.7247
" />
<path d="M4.5088 2.5380
L4.4250 2.5359
" />
<path d="M4.5148 5.4006
L4.5369 5.3957
" />
<path d="M4.5171 3.0499
L4.5396 3.0550
" />
<path d="M4.5205 5.4230
L4.4968 5.4270
" />
<path d="M4.5208 2.2073
L4.5684 2.2100
" />
<path d="M4.5209 6.2427
L4.4731 6.2444
" />
<path d="M4.5230 3.0276
L4.5469 3.0330
" />
<path d="M4.5343 5.9105
L4.6432 5.8999
" />
<path d="M4.5369 5.3957
L4.5588 5.3898
" />
<path d="M4.5395 2.4598
L4.6536 2.4709
" />
<path d="M4.5395 5.9902
L4.4250 5.9939
" />
<path d="M4.5396 3.0550
L4.5617 3.0611
" />
<path d="M4.5440 5.4178
L4.5205 5.4230
" />
<path d="M4.5469 3.0330
L4.5704 3.0395
" />
<path d="M4.5588 5.3898
L4.5805 5.3828
" />
<path d="M4.5617 3.0611
L4.5835 3.0683
" />
<path d="M4.5674 5.4115
L4.5440 5.4178
" />
<path d="M4.5684 2.2100
L4.6158 2.2139
" />
<path d="M4.5685 6.2399
L4.5209 6.2427
" />
<path d="M4.5686 2.7325
L4.6401 2.7411
" />
<path d="M4.5704 3.0395
L4.5936 3.0472
" />
<path d="M4.5805 5.3828
L4.6019 5.3748
" />
<path d="M4.5835 3.0683
L4.6049 3.0766
" />
<path d="M4.5904 5.4041
L4.5674 5.4115
" />
<path d="M4.5919 2.5442
L4.5088 2.5380
" />
<path d="M4.5936 3.0472
L4.6163 3.0560
" />
<path d="M4.6019 5.3748
L4.6229 5.3656
" />
<path d="M4.6049 3.0766
L4.6258 3.0859
" />
<path d="M4.6101 5.7135
L4.5014 5.7231
" />
<path d="M4.6132 5.3955
L4.5904 5.4041
" />
<path d="M4.6158 2.2139
L4.6629 2.2189
" />
<path d="M4.6160 6.2360
L4.5685 6.2399
" />
<path d="M4.6163 3.0560
L4.6386 3.0658
" />
<path d="M4.6229 5.3656
L4.6436 5.3554
" />
<path d="M4.6258 3.0859
L4.6463 3.0962
" />
<path d="M4.6355 5.3858
L4.6132 5.3955
" />
<path d="M4.6386 3.0658
L4.6604 3.0768
" />
<path d="M4.6401 2.7411
L4.7112 2.7531
" />
<path d="M4.6432 5.8999
L4.7515 5.8822
" />
<path d="M4.6436 5.3554
L4.6638 5.3441
" />
<path d="M4.6463 3.0962
L4.6663 3.1075
" />
<path d="M4.6536 2.4709
L4.7669 2.4894
" />
<path d="M4.6536 5.9791
L4.5395 5.9902
" />
<path d="M4.6575 5.3749
L4.6355 5.3858
" />
<path d="M4.6604 3.0768
L4.6817 3.0888
" />
<path d="M4.6629 2.2189
L4.7099 2.2250
" />
<path d="M4.6632 6.2310
L4.6160 6.2360
" />
<path d="M4.6638 5.3441
L4.6836 5.3317
" />
<path d="M4.6663 3.1075
L4.6858 3.1198
" />
<path d="M4.6744 2.5544
L4.5919 2.5442
" />
<path d="M4.6791 5.3629
L4.6575 5.3749
" />
<path d="M4.6817 3.0888
L4.7024 3.1019
" />
<path d="M4.6836 5.3317
L4.7029 5.3183
" />
<path d="M4.6858 3.1198
L4.7046 3.1330
" />
<path d="M4.7001 5.3497
L4.6791 5.3629
" />
<path d="M4.7024 3.1019
L4.7225 3.1160
" />
<path d="M4.7029 5.3183
L4.7216 5.3038
" />
<path d="M4.7046 3.1330
L4.7229 3.1473
" />
<path d="M4.7099 2.2250
L4.7567 2.2322
" />
<path d="M4.7102 6.2249
L4.6632 6.2310
" />
<path d="M4.7112 2.7531
L4.7818 2.7685
" />
<path d="M4.7176 5.6962
L4.6101 5.7135
" />
<path d="M4.7206 5.3354
L4.7001 5.3497
" />
<path d="M4.7216 5.3038
L4.7398 5.2882
" />
<path d="M4.7225 3.1160
L4.7419 3.1311
" />
<path d="M4.7229 3.1473
L4.7405 3.1624
" />
<path d="M4.7398 5.2882
L4.7573 5.2715
" />
<path d="M4.7405 3.1624
L4.7573 3.1785
" />
<path d="M4.7406 5.3200
L4.7206 5.3354
" />
<path d="M4.7419 3.1311
L4.7606 3.1472
" />
<path d="M4.7515 5.8822
L4.8586 5.8575
" />
<path d="M4.7561 2.5687
L4.6744 2.5544
" />
<path d="M4.7567 2.2322
L4.8033 2.2405
" />
<path d="M4.7569 6.2177
L4.7102 6.2249
" />
<path d="M4.7573 3.1785
L5.4715 3.8927
" />
<path d="M4.7573 5.2715
L5.4715 4.5573
" />
<path d="M4.7599 5.3034
L4.7406 5.3200
" />
<path d="M4.7606 3.1472
L4.7786 3.1643
" />
<path d="M4.7669 2.4894
L4.8791 2.5153
" />
<path d="M4.7669 5.9606
L4.6536 5.9791
" />
<path d="M4.7786 5.2857
L4.7599 5.3034
" />
<path d="M4.7786 5.2857
L5.4857 4.5786
" />
<path d="M4.7818 2.7685
L4.8517 2.7874
" />
<path d="M4.8033 2.2405
L4.8496 2.2499
" />
<path d="M4.8035 6.2094
L4.7569 6.2177
" />
<path d="M4.8237 5.6711
L4.7176 5.6962
" />
<path d="M4.8367 2.5869
L4.7561 2.5687
" />
<path d="M4.8496 2.2499
L4.8958 2.2604
" />
<path d="M4.8499 6.2000
L4.8035 6.2094
" />
<path d="M4.8517 2.7874
L4.9209 2.8097
" />
<path d="M4.8586 5.8575
L4.9644 5.8257
" />
<path d="M4.8791 2.5153
L4.9899 2.5486
" />
<path d="M4.8791 5.9347
L4.7669 5.9606
" />
<path d="M4.8958 2.2604
L4.9418 2.2721
" />
<path d="M4.8960 6.1895
L4.8499 6.2000
" />
<path d="M4.9162 2.6089
L4.8367 2.5869
" />
<path d="M4.9209 2.8097
L4.9891 2.8355
" />
<path d="M4.9277 5.6383
L4.8237 5.6711
" />
<path d="M4.9418 2.2721
L4.9875 2.2848
" />
<path d="M4.9420 6.1779
L4.8960 6.1895
" />
<path d="M4.9644 5.8257
L5.0683 5.7868
" />
<path d="M4.9875 2.2848
L5.0331 2.2987
" />
<path d="M4.9877 6.1651
L4.9420 6.1779
" />
<path d="M4.9891 2.8355
L5.0562 2.8646
" />
<path d="M4.9899 2.5486
L5.0988 2.5894
" />
<path d="M4.9899 5.9014
L4.8791 5.9347
" />
<path d="M4.9945 2.6348
L4.9162 2.6089
" />
<path d="M5.0293 5.5979
L4.9277 5.6383
" />
<path d="M5.0331 2.2987
L5.0784 2.3136
" />
<path d="M5.0332 6.1513
L4.9877 6.1651
" />
<path d="M5.0562 2.8646
L5.1221 2.8972
" />
<path d="M5.0683 5.7868
L5.1702 5.7408
" />
<path d="M5.0714 2.6645
L4.9945 2.6348
" />
<path d="M5.0784 2.3136
L5.1236 2.3297
" />
<path d="M5.0785 6.1363
L5.0332 6.1513
" />
<path d="M5.0988 2.5894
L5.2054 2.6375
" />
<path d="M5.0988 5.8606
L4.9899 5.9014
" />
<path d="M5.1221 2.8972
L5.1867 2.9333
" />
<path d="M5.1236 2.3297
L5.1685 2.3469
" />
<path d="M5.1236 6.1203
L5.0785 6.1363
" />
<path d="M5.1281 5.5501
L5.0293 5.5979
" />
<path d="M5.1467 2.6979
L5.0714 2.6645
" />
</g>
<g style="fill:#000000; fill-opacity:1.0000; stroke:none;">
<circle cx="5.1685" cy="2.3469" r="0.0050" /> 
</g>
<g style="fill:none; 
stroke:#000000; stroke-width:0.0100; stroke-opacity:1; 
stroke-linecap:round; stroke-linejoin:round;">
<path d="M5.1685 2.3469
L5.2168 2.3667
" />
<path d="M5.1685 6.1031
L5.1236 6.1203
" />
</g>
<g style="fill:#000000; fill-opacity:1.0000; stroke:none;">
<circle cx="5.1685" cy="6.1031" r="0.0050" /> 
</g>
<g style="fill:none; 
stroke:#000000; stroke-width:0.0100; stroke-opacity:1; 
stroke-linecap:round; stroke-linejoin:round;">
<path d="M5.1702 5.7408
L5.2695 5.6878
" />
<path d="M5.1750 0.8250
L4.4250 1.3250
" />
<path d="M5.1867 2.9333
L5.2499 2.9727
" />
<path d="M5.2054 2.6375
L5.3095 2.6931
" />
<path d="M5.2054 5.8125
L5.0988 5.8606
" />
<path d="M5.2168 2.3667
L5.2643 2.3876
" />
<path d="M5.2168 6.0833
L5.1685 6.1031
" />
<path d="M5.2204 2.7349
L5.1467 2.6979
" />
<path d="M5.2235 5.4949
L5.1281 5.5501
" />
<path d="M5.2499 2.9727
L5.3114 3.0156
" />
<path d="M5.2643 2.3876
L5.3111 2.4096
" />
<path d="M5.2644 6.0623
L5.2168 6.0833
" />
</g>
<g style="fill:#000000; fill-opacity:1.0000; stroke:none;">
<circle cx="5.2695" cy="5.6878" r="0.0050" /> 
</g>
<g style="fill:none; 
stroke:#000000; stroke-width:0.0100; stroke-opacity:1; 
stroke-linecap:round; stroke-linejoin:round;">
<path d="M5.2695 5.6878
L5.3179 5.6587
" />
<path d="M5.2922 2.7755
L5.2204 2.7349
" />
</g>
<g style="fill:#000000; fill-opacity:1.0000; stroke:none;">
<circle cx="5.3095" cy="2.6931" r="0.0050" /> 
</g>
<g style="fill:none; 
stroke:#000000; stroke-width:0.0100; stroke-opacity:1; 
stroke-linecap:round; stroke-linejoin:round;">
<path d="M5.3095 2.6931
L5.3602 2.7235
" />
<path d="M5.3095 5.7569
L5.2054 5.8125
" />
</g>
<g style="fill:#000000; fill-opacity:1.0000; stroke:none;">
<circle cx="5.3095" cy="5.7569" r="0.0050" /> 
</g>
<g style="fill:none; 
stroke:#000000; stroke-width:0.0100; stroke-opacity:1; 
stroke-linecap:round; stroke-linejoin:round;">
<path d="M5.3111 2.4096
L5.3572 2.4328
" />
<path d="M5.3112 6.0403
L5.2644 6.0623
" />
<path d="M5.3114 3.0156
L5.3712 3.0620
" />
<path d="M5.3152 5.4323
L5.2235 5.4949
" />
<path d="M5.3179 5.6587
L5.3651 5.6283
" />
<path d="M5.3572 2.4328
L5.4025 2.4570
" />
<path d="M5.3574 6.0171
L5.3112 6.0403
" />
<path d="M5.3602 2.7235
L5.4096 2.7554
" />
<path d="M5.3621 2.8197
L5.2922 2.7755
" />
<path d="M5.3651 5.6283
L5.4111 5.5963
" />
<path d="M5.3712 3.0620
L5.4291 3.1117
" />
<path d="M5.4025 2.4570
L5.4471 2.4824
" />
<path d="M5.4027 5.9929
L5.3574 6.0171
" />
<path d="M5.4028 5.3626
L5.3152 5.4323
" />
<path d="M5.4096 2.7554
L5.4577 2.7888
" />
<path d="M5.4096 5.6946
L5.3095 5.7569
" />
<path d="M5.4111 5.5963
L5.4559 5.5630
" />
<path d="M5.4291 3.1117
L5.4851 3.1649
" />
<path d="M5.4299 2.8674
L5.3621 2.8197
" />
<path d="M5.4471 2.4824
L5.4910 2.5088
" />
<path d="M5.4474 5.9675
L5.4027 5.9929
" />
<path d="M5.4559 5.5630
L5.4993 5.5284
" />
<path d="M5.4577 2.7888
L5.5046 2.8237
" />
<path d="M5.4715 3.8927
L4.7573 3.1785
" />
<path d="M5.4715 3.8927
L5.4882 3.9102
" />
<path d="M5.4715 4.5573
L4.7573 5.2715
" />
</g>
<g style="fill:#000000; fill-opacity:1.0000; stroke:none;">
<circle cx="5.4851" cy="3.1649" r="0.0050" /> 
</g>
<g style="fill:none; 
stroke:#000000; stroke-width:0.0100; stroke-opacity:1; 
stroke-linecap:round; stroke-linejoin:round;">
<path d="M5.4851 3.1649
L5.5383 3.2208
" />
<path d="M5.4857 3.8714
L4.7786 3.1643
" />
<path d="M5.4857 3.8714
L5.5034 3.8901
" />
<path d="M5.4857 5.2857
L5.4028 5.3626
" />
<path d="M5.4882 3.9102
L5.5038 3.9284
" />
<path d="M5.4882 4.5398
L5.4715 4.5573
" />
<path d="M5.4910 2.5088
L5.5342 2.5364
" />
<path d="M5.4913 5.9411
L5.4474 5.9675
" />
<path d="M5.4955 2.9184
L5.4299 2.8674
" />
<path d="M5.4993 5.5284
L5.5415 5.4925
" />
<path d="M5.5034 3.8901
L5.5200 3.9094
" />
<path d="M5.5034 4.5599
L5.4857 4.5786
" />
<path d="M5.5038 3.9284
L5.5183 3.9471
" />
<path d="M5.5038 4.5216
L5.4882 4.5398
" />
<path d="M5.5046 2.8237
L5.5501 2.8600
" />
<path d="M5.5046 5.6263
L5.4096 5.6946
" />
<path d="M5.5183 3.9471
L5.5317 3.9664
" />
<path d="M5.5183 4.5029
L5.5038 4.5216
" />
<path d="M5.5200 3.9094
L5.5354 3.9294
" />
<path d="M5.5200 4.5406
L5.5034 4.5599
" />
<path d="M5.5317 3.9664
L5.5441 3.9862
" />
<path d="M5.5317 4.4836
L5.5183 4.5029
" />
<path d="M5.5342 2.5364
L5.5766 2.5650
" />
<path d="M5.5344 5.9135
L5.4913 5.9411
" />
<path d="M5.5354 3.9294
L5.5497 3.9499
" />
<path d="M5.5354 4.5206
L5.5200 4.5406
" />
<path d="M5.5383 3.2208
L5.5880 3.2788
" />
<path d="M5.5388 5.2297
L5.4857 5.2856
" />
<path d="M5.5415 5.4925
L5.5824 5.4552
" />
<path d="M5.5441 3.9862
L5.5554 4.0064
" />
<path d="M5.5441 4.4638
L5.5317 4.4836
" />
<path d="M5.5497 3.9499
L5.5629 3.9709
" />
<path d="M5.5497 4.5001
L5.5354 4.5206
" />
<path d="M5.5501 2.8600
L5.5943 2.8976
" />
<path d="M5.5554 4.0064
L5.5656 4.0271
" />
<path d="M5.5554 4.4436
L5.5441 4.4638
" />
<path d="M5.5587 2.9729
L5.4955 2.9184
" />
<path d="M5.5629 3.9709
L5.5749 3.9925
" />
<path d="M5.5629 4.4791
L5.5497 4.5001
" />
<path d="M5.5656 4.0271
L5.5748 4.0481
" />
<path d="M5.5656 4.4229
L5.5554 4.4436
" />
<path d="M5.5748 4.0481
L5.5828 4.0695
" />
<path d="M5.5748 4.4019
L5.5656 4.4229
" />
<path d="M5.5749 3.9925
L5.5858 4.0145
" />
<path d="M5.5749 4.4575
L5.5629 4.4791
" />
<path d="M5.5766 2.5650
L5.6183 2.5948
" />
<path d="M5.5769 5.8849
L5.5344 5.9135
" />
<path d="M5.5824 5.4552
L5.6220 5.4168
" />
<path d="M5.5828 4.0695
L5.5898 4.0912
" />
<path d="M5.5828 4.3805
L5.5748 4.4019
" />
<path d="M5.5858 4.0145
L5.5955 4.0368
" />
<path d="M5.5858 4.4355
L5.5749 4.4575
" />
<path d="M5.5880 3.2788
L5.6343 3.3386
" />
<path d="M5.5886 5.1717
L5.5388 5.2297
" />
<path d="M5.5898 4.0912
L5.5957 4.1131
" />
<path d="M5.5898 4.3588
L5.5828 4.3805
" />
<path d="M5.5943 2.8976
L5.6371 2.9366
" />
<path d="M5.5943 5.5524
L5.5046 5.6263
" />
<path d="M5.5955 4.0368
L5.6041 4.0596
" />
<path d="M5.5955 4.4131
L5.5858 4.4355
" />
<path d="M5.5957 4.1131
L5.6006 4.1352
" />
<path d="M5.5957 4.3369
L5.5898 4.3588
" />
<path d="M5.6006 4.1352
L5.6043 4.1575
" />
<path d="M5.6006 4.3148
L5.5957 4.3369
" />
<path d="M5.6041 4.0596
L5.6115 4.0826
" />
<path d="M5.6041 4.3904
L5.5955 4.4131
" />
<path d="M5.6043 4.1575
L5.6070 4.1799
" />
<path d="M5.6043 4.2925
L5.6006 4.3148
" />
<path d="M5.6070 4.1799
L5.6086 4.2025
" />
<path d="M5.6070 4.2701
L5.6043 4.2925
" />
<path d="M5.6086 4.2025
L5.6092 4.2250
" />
<path d="M5.6086 4.2475
L5.6070 4.2701
" />
<path d="M5.6092 4.2250
L5.6086 4.2475
" />
<path d="M5.6115 4.0826
L5.6178 4.1060
" />
<path d="M5.6115 4.3674
L5.6041 4.3904
" />
<path d="M5.6178 4.1060
L5.6230 4.1295
" />
<path d="M5.6178 4.3440
L5.6115 4.3674
" />
<path d="M5.6183 2.5948
L5.6593 2.6257
" />
<path d="M5.6186 5.8551
L5.5769 5.8849
" />
<path d="M5.6194 3.0306
L5.5587 2.9729
" />
</g>
<g style="fill:#000000; fill-opacity:1.0000; stroke:none;">
<circle cx="5.6194" cy="3.0306" r="0.0050" /> 
</g>
<g style="fill:none; 
stroke:#000000; stroke-width:0.0100; stroke-opacity:1; 
stroke-linecap:round; stroke-linejoin:round;">
<path d="M5.6220 5.4168
L5.6602 5.3771
" />
<path d="M5.6230 4.1295
L5.6270 4.1532
" />
<path d="M5.6230 4.3205
L5.6178 4.3440
" />
<path d="M5.6270 4.1532
L5.6298 4.1771
" />
<path d="M5.6270 4.2968
L5.6230 4.3205
" />
<path d="M5.6298 4.1771
L5.6315 4.2010
" />
<path d="M5.6298 4.2729
L5.6270 4.2968
" />
<path d="M5.6315 4.2010
L5.6321 4.2250
" />
<path d="M5.6315 4.2490
L5.6298 4.2729
" />
<path d="M5.6321 4.2250
L5.6315 4.2490
" />
<path d="M5.6343 3.3386
L5.6772 3.4001
" />
<path d="M5.6348 5.1119
L5.5886 5.1717
" />
<path d="M5.6371 2.9366
L5.6786 2.9769
" />
<path d="M5.6593 2.6257
L5.6995 2.6577
" />
<path d="M5.6595 5.8242
L5.6186 5.8551
" />
<path d="M5.6602 5.3771
L5.6970 5.3364
" />
<path d="M5.6771 3.0913
L5.6194 3.0306
" />
<path d="M5.6772 3.4001
L5.7167 3.4632
" />
<path d="M5.6777 5.0503
L5.6348 5.1119
" />
<path d="M5.6786 2.9769
L5.7186 3.0184
" />
<path d="M5.6786 5.4731
L5.5943 5.5524
" />
<path d="M5.6800 0.4750
L3.1700 0.4750
" />
<path d="M5.6800 0.4750
L5.6800 0.7348
" />
<path d="M5.6800 7.7152
L5.6800 7.9750
" />
<path d="M5.6800 7.7250
L5.7350 7.7250
" />
<path d="M5.6800 7.9000
L5.7350 7.9000
" />
<path d="M5.6800 7.9750
L3.1700 7.9750
" />
<path d="M5.6970 5.3364
L5.7324 5.2944
" />
<path d="M5.6995 2.6577
L5.7391 2.6908
" />
<path d="M5.6997 5.7922
L5.6595 5.8242
" />
<path d="M5.7167 3.4632
L5.7527 3.5278
" />
<path d="M5.7171 4.9872
L5.6777 5.0503
" />
<path d="M5.7186 3.0184
L5.7571 3.0611
" />
<path d="M5.7316 3.1545
L5.6771 3.0913
" />
<path d="M5.7324 5.2944
L5.7664 5.2515
" />
<path d="M5.7350 0.5500
L5.6800 0.5500
" />
<path d="M5.7350 0.5500
L5.7350 0.7000
" />
<path d="M5.7350 0.6500
L5.6800 0.6500
" />
<path d="M5.7350 0.7000
L5.7350 0.8250
" />
<path d="M5.7350 0.7250
L5.6800 0.7250
" />
<path d="M5.7350 0.8250
L5.1750 0.8250
" />
<path d="M5.7350 7.6250
L5.7350 7.7500
" />
<path d="M5.7350 7.7500
L5.7350 7.9000
" />
<path d="M5.7350 7.8000
L5.6800 7.8000
" />
<path d="M5.7350 7.9000
L6.5750 7.9000
" />
<path d="M5.7391 2.6908
L5.7779 2.7250
" />
<path d="M5.7392 5.7592
L5.6997 5.7922
" />
<path d="M5.7527 3.5278
L5.7853 3.5938
" />
<path d="M5.7531 4.9225
L5.7171 4.9872
" />
<path d="M5.7571 3.0611
L5.7942 3.1050
" />
<path d="M5.7571 5.3889
L5.6786 5.4731
" />
<path d="M5.7664 5.2515
L5.7990 5.2074
" />
<path d="M5.7779 2.7250
L5.8160 2.7603
" />
<path d="M5.7780 5.7250
L5.7392 5.7592
" />
<path d="M5.7826 3.2201
L5.7316 3.1545
" />
<path d="M5.7853 3.5938
L5.8145 3.6609
" />
<path d="M5.7857 4.8566
L5.7531 4.9225
" />
<path d="M5.7942 3.1050
L5.8298 3.1500
" />
<path d="M5.7990 5.2074
L5.8301 5.1624
" />
<path d="M5.8145 3.6609
L5.8403 3.7291
" />
<path d="M5.8148 4.7894
L5.7857 4.8566
" />
<path d="M5.8160 2.7603
L5.8533 2.7967
" />
<path d="M5.8160 5.6897
L5.7780 5.7250
" />
<path d="M5.8298 3.1500
L5.8639 3.1961
" />
<path d="M5.8298 5.3000
L5.7571 5.3889
" />
<path d="M5.8301 5.1624
L5.8597 5.1164
" />
<path d="M5.8303 3.2879
L5.7826 3.2201
" />
<path d="M5.8403 3.7291
L5.8626 3.7982
" />
<path d="M5.8405 4.7212
L5.8148 4.7894
" />
</g>
<g style="fill:#000000; fill-opacity:1.0000; stroke:none;">
<circle cx="5.8533" cy="2.7967" r="0.0050" /> 
</g>
<g style="fill:none; 
stroke:#000000; stroke-width:0.0100; stroke-opacity:1; 
stroke-linecap:round; stroke-linejoin:round;">
<path d="M5.8533 2.7967
L5.8897 2.8340
" />
<path d="M5.8533 5.6533
L5.8160 5.6897
" />
</g>
<g style="fill:#000000; fill-opacity:1.0000; stroke:none;">
<circle cx="5.8533" cy="5.6533" r="0.0050" /> 
</g>
<g style="fill:none; 
stroke:#000000; stroke-width:0.0100; stroke-opacity:1; 
stroke-linecap:round; stroke-linejoin:round;">
<path d="M5.8597 5.1164
L5.8878 5.0695
" />
<path d="M5.8626 3.7982
L5.8815 3.8681
" />
<path d="M5.8628 4.6521
L5.8405 4.7212
" />
<path d="M5.8639 3.1961
L5.8965 3.2433
" />
<path d="M5.8745 3.3578
L5.8303 3.2879
" />
<path d="M5.8815 3.8681
L5.8969 3.9387
" />
<path d="M5.8817 4.5821
L5.8628 4.6521
" />
<path d="M5.8878 5.0695
L5.9143 5.0217
" />
<path d="M5.8897 2.8340
L5.9250 2.8720
" />
<path d="M5.8897 5.6160
L5.8533 5.6533
" />
<path d="M5.8965 3.2433
L5.9275 3.2914
" />
<path d="M5.8965 5.2067
L5.8298 5.3000
" />
<path d="M5.8969 3.9387
L5.9089 4.0099
" />
<path d="M5.8971 4.5115
L5.8817 4.5821
" />
<path d="M5.9089 4.0099
L5.9175 4.0814
" />
<path d="M5.9091 4.4404
L5.8971 4.5115
" />
<path d="M5.9143 5.0217
L5.9394 4.9731
" />
<path d="M5.9151 3.4296
L5.8745 3.3578
" />
<path d="M5.9175 4.0814
L5.9227 4.1532
" />
<path d="M5.9176 4.3689
L5.9091 4.4404
" />
<path d="M5.9227 4.1532
L5.9244 4.2251
" />
<path d="M5.9227 4.2971
L5.9176 4.3689
" />
<path d="M5.9244 4.2251
L5.9227 4.2971
" />
<path d="M5.9250 2.8720
L5.9592 2.9108
" />
<path d="M5.9250 5.5779
L5.8897 5.6160
" />
<path d="M5.9275 3.2914
L5.9569 3.3405
" />
<path d="M5.9394 4.9731
L5.9628 4.9237
" />
<path d="M5.9521 3.5033
L5.9151 3.4296
" />
<path d="M5.9569 3.3405
L5.9848 3.3906
" />
<path d="M5.9569 5.1095
L5.8965 5.2067
" />
<path d="M5.9592 2.9108
L5.9922 2.9503
" />
<path d="M5.9592 5.5391
L5.9250 5.5779
" />
<path d="M5.9628 4.9237
L5.9846 4.8735
" />
<path d="M5.9846 4.8735
L6.0049 4.8225
" />
<path d="M5.9848 3.3906
L6.0110 3.4415
" />
<path d="M5.9855 3.5786
L5.9521 3.5033
" />
<path d="M5.9922 2.9503
L6.0242 2.9905
" />
<path d="M5.9923 5.4995
L5.9592 5.5391
" />
<path d="M6.0049 4.8225
L6.0235 4.7709
" />
<path d="M6.0110 3.4415
L6.0355 3.4933
" />
<path d="M6.0110 5.0085
L5.9569 5.1095
" />
<path d="M6.0152 3.6555
L5.9855 3.5786
" />
<path d="M6.0235 4.7709
L6.0404 4.7186
" />
<path d="M6.0242 2.9905
L6.0551 3.0314
" />
<path d="M6.0243 5.4593
L5.9923 5.4995
" />
<path d="M6.0355 3.4933
L6.0584 3.5459
" />
<path d="M6.0404 4.7186
L6.0556 4.6657
" />
<path d="M6.0411 3.7338
L6.0152 3.6555
" />
<path d="M6.0551 3.0314
L6.0849 3.0731
" />
<path d="M6.0552 5.4183
L6.0243 5.4593
" />
<path d="M6.0556 4.6657
L6.0691 4.6122
" />
<path d="M6.0584 3.5459
L6.0796 3.5992
" />
<path d="M6.0584 4.9041
L6.0110 5.0085
" />
<path d="M6.0631 3.8133
L6.0411 3.7338
" />
<path d="M6.0691 4.6122
L6.0809 4.5582
" />
<path d="M6.0796 3.5992
L6.0990 3.6533
" />
<path d="M6.0809 4.5582
L6.0910 4.5037
" />
<path d="M6.0813 3.8939
L6.0631 3.8133
" />
<path d="M6.0849 3.0731
L6.1135 3.1156
" />
<path d="M6.0850 5.3766
L6.0552 5.4183
" />
<path d="M6.0910 4.5037
L6.0992 4.4487
" />
<path d="M6.0956 3.9756
L6.0813 3.8939
" />
<path d="M6.0990 3.6533
L6.1167 3.7081
" />
<path d="M6.0990 4.7967
L6.0584 4.9041
" />
<path d="M6.0992 4.4487
L6.1057 4.3933
" />
<path d="M6.1057 4.3933
L6.1103 4.3376
" />
<path d="M6.1058 4.0581
L6.0956 3.9756
" />
<path d="M6.1103 4.3376
L6.1131 4.2814
" />
<path d="M6.1120 4.1412
L6.1058 4.0581
" />
<path d="M6.1131 4.2814
L6.1141 4.2250
" />
<path d="M6.1135 3.1156
L6.1411 3.1587
" />
<path d="M6.1136 5.3342
L6.0850 5.3766
" />
<path d="M6.1141 4.2250
L6.1120 4.1412
" />
<path d="M6.1167 3.7081
L6.1327 3.7635
" />
<path d="M6.1327 3.7635
L6.1469 3.8195
" />
<path d="M6.1327 4.6865
L6.0990 4.7967
" />
<path d="M6.1411 3.1587
L6.1675 3.2026
" />
<path d="M6.1412 5.2910
L6.1136 5.3342
" />
<path d="M6.1469 3.8195
L6.1592 3.8760
" />
<path d="M6.1592 3.8760
L6.1697 3.9331
" />
<path d="M6.1592 4.5740
L6.1327 4.6865
" />
<path d="M6.1675 3.2026
L6.1929 3.2473
" />
<path d="M6.1676 5.2471
L6.1412 5.2910
" />
<path d="M6.1697 3.9331
L6.1784 3.9907
" />
<path d="M6.1784 3.9907
L6.1851 4.0487
" />
<path d="M6.1784 4.4593
L6.1592 4.5740
" />
<path d="M6.1851 4.0487
L6.1900 4.1071
" />
<path d="M6.1900 4.1071
L6.1929 4.1659
" />
<path d="M6.1900 4.3429
L6.1784 4.4593
" />
<path d="M6.1929 3.2473
L6.2171 3.2926
" />
<path d="M6.1929 4.1659
L6.1939 4.2250
" />
<path d="M6.1930 5.2025
L6.1676 5.2471
" />
<path d="M6.1939 4.2250
L6.1900 4.3429
" />
<path d="M6.2171 3.2926
L6.2403 3.3388
" />
<path d="M6.2172 5.1572
L6.1930 5.2025
" />
<path d="M6.2403 3.3388
L6.2623 3.3856
" />
<path d="M6.2404 5.1111
L6.2172 5.1572
" />
<path d="M6.2623 3.3856
L6.2833 3.4332
" />
<path d="M6.2624 5.0643
L6.2404 5.1111
" />
<path d="M6.2833 3.4332
L6.3031 3.4815
" />
<path d="M6.2833 5.0168
L6.2624 5.0643
" />
</g>
<g style="fill:#000000; fill-opacity:1.0000; stroke:none;">
<circle cx="6.3031" cy="3.4815" r="0.0050" /> 
</g>
<g style="fill:none; 
stroke:#000000; stroke-width:0.0100; stroke-opacity:1; 
stroke-linecap:round; stroke-linejoin:round;">
<path d="M6.3031 3.4815
L6.3203 3.5263
" />
<path d="M6.3031 4.9685
L6.2833 5.0168
" />
</g>
<g style="fill:#000000; fill-opacity:1.0000; stroke:none;">
<circle cx="6.3031" cy="4.9685" r="0.0050" /> 
</g>
<g style="fill:none; 
stroke:#000000; stroke-width:0.0100; stroke-opacity:1; 
stroke-linecap:round; stroke-linejoin:round;">
<path d="M6.3203 3.5263
L6.3363 3.5713
" />
<path d="M6.3203 4.9237
L6.3031 4.9685
" />
<path d="M6.3363 3.5713
L6.3512 3.6165
" />
<path d="M6.3363 4.8786
L6.3203 4.9237
" />
<path d="M6.3512 3.6165
L6.3651 3.6620
" />
<path d="M6.3512 4.8333
L6.3363 4.8786
" />
<path d="M6.3651 3.6620
L6.3778 3.7077
" />
<path d="M6.3651 4.7878
L6.3512 4.8333
" />
<path d="M6.3778 3.7077
L6.3894 3.7536
" />
<path d="M6.3778 4.7421
L6.3651 4.7878
" />
<path d="M6.3894 3.7536
L6.4000 3.7997
" />
<path d="M6.3894 4.6962
L6.3778 4.7421
" />
<path d="M6.4000 3.7997
L6.4094 3.8461
" />
<path d="M6.4000 4.6500
L6.3894 4.6962
" />
<path d="M6.4094 3.8461
L6.4177 3.8927
" />
<path d="M6.4094 4.6036
L6.4000 4.6500
" />
<path d="M6.4177 3.8927
L6.4249 3.9395
" />
<path d="M6.4177 4.5571
L6.4094 4.6036
" />
<path d="M6.4249 3.9395
L6.4310 3.9865
" />
<path d="M6.4249 4.5103
L6.4177 4.5571
" />
<path d="M6.4310 3.9865
L6.4360 4.0338
" />
<path d="M6.4310 4.4633
L6.4249 4.5103
" />
<path d="M6.4360 4.0338
L6.4399 4.0812
" />
<path d="M6.4360 4.4160
L6.4310 4.4633
" />
<path d="M6.4399 4.0812
L6.4427 4.1289
" />
<path d="M6.4399 4.3686
L6.4360 4.4160
" />
<path d="M6.4427 4.1289
L6.4444 4.1769
" />
<path d="M6.4427 4.3210
L6.4399 4.3686
" />
<path d="M6.4444 4.1769
L6.4449 4.2250
" />
<path d="M6.4444 4.2731
L6.4427 4.3210
" />
<path d="M6.4449 4.2250
L6.4444 4.2731
" />
<path d="M6.5750 0.5500
L5.7350 0.5500
" />
<path d="M6.5750 0.7000
L6.5750 0.5500
" />
<path d="M6.5750 0.7250
L6.5750 0.7000
" />
<path d="M6.5750 7.7250
L6.7818 7.7250
" />
<path d="M6.5750 7.7250
L6.8647 7.7250
" />
<path d="M6.5750 7.7500
L6.5750 7.7250
" />
<path d="M6.5750 7.9000
L6.5750 7.7500
" />
<path d="M6.7818 0.7250
L6.5750 0.7250
" />
<path d="M6.8647 0.7250
L6.5750 0.7250
" />
<path d="M6.8647 7.7250
L7.0766 7.5130
" />
<path d="M6.9233 7.6664
L7.0766 7.5130
" />
<path d="M7.0766 0.9369
L6.8647 0.7250
" />
<path d="M7.0766 0.9369
L6.9233 0.7836
" />
<path d="M7.0766 7.5130
L7.0832 7.5068
" />
<path d="M7.0832 0.9432
L7.0766 0.9369
" />
<path d="M7.0832 7.5068
L7.0901 7.5008
" />
<path d="M7.0901 0.9492
L7.0832 0.9432
" />
<path d="M7.0901 7.5008
L7.0972 7.4951
" />
<path d="M7.0972 0.9548
L7.0901 0.9492
" />
<path d="M7.0972 7.4951
L7.1045 7.4899
" />
<path d="M7.1045 0.9601
L7.0972 0.9548
" />
<path d="M7.1045 7.4899
L7.1120 7.4849
" />
<path d="M7.1120 0.9651
L7.1045 0.9601
" />
<path d="M7.1120 7.4849
L7.1198 7.4803
" />
<path d="M7.1198 0.9697
L7.1120 0.9651
" />
<path d="M7.1198 7.4803
L7.1277 7.4761
" />
<path d="M7.1277 0.9739
L7.1198 0.9697
" />
<path d="M7.1277 7.4761
L7.1358 7.4722
" />
<path d="M7.1358 0.9778
L7.1277 0.9739
" />
<path d="M7.1358 7.4722
L7.1441 7.4687
" />
<path d="M7.1441 0.9813
L7.1358 0.9778
" />
<path d="M7.1441 7.4687
L7.1525 7.4655
" />
<path d="M7.1525 0.9845
L7.1441 0.9813
" />
<path d="M7.1525 7.4655
L7.1610 7.4628
" />
<path d="M7.1610 0.9872
L7.1525 0.9845
" />
<path d="M7.1610 7.4628
L7.1697 7.4604
" />
<path d="M7.1697 0.9896
L7.1610 0.9872
" />
<path d="M7.1697 7.4604
L7.1786 7.4584
" />
<path d="M7.1786 0.9916
L7.1697 0.9896
" />
<path d="M7.1786 7.4584
L7.1875 7.4568
" />
<path d="M7.1875 0.9932
L7.1786 0.9916
" />
<path d="M7.1875 7.4568
L7.1965 7.4556
" />
<path d="M7.1965 0.9944
L7.1875 0.9932
" />
<path d="M7.1965 7.4556
L7.2055 7.4549
" />
<path d="M7.2055 0.9951
L7.1965 0.9944
" />
<path d="M7.2055 7.4549
L7.6549 7.0055
" />
<path d="M7.6549 1.4445
L7.2055 0.9951
" />
<path d="M7.6549 7.0055
L7.6556 6.9965
" />
<path d="M7.6556 1.4535
L7.6549 1.4445
" />
<path d="M7.6556 6.9965
L7.6568 6.9875
" />
<path d="M7.6568 1.4625
L7.6556 1.4535
" />
<path d="M7.6568 6.9875
L7.6584 6.9786
" />
<path d="M7.6584 1.4714
L7.6568 1.4625
" />
<path d="M7.6584 6.9786
L7.6604 6.9697
" />
<path d="M7.6604 1.4803
L7.6584 1.4714
" />
<path d="M7.6604 6.9697
L7.6628 6.9610
" />
<path d="M7.6628 1.4890
L7.6604 1.4803
" />
<path d="M7.6628 6.9610
L7.6655 6.9525
" />
<path d="M7.6655 6.9525
L7.6687 6.9441
" />
<path d="M7.6655 1.4975
L7.6628 1.4890
" />
<path d="M7.6687 6.9441
L7.6722 6.9358
" />
<path d="M7.6687 1.5059
L7.6655 1.4975
" />
<path d="M7.6722 1.5142
L7.6687 1.5059
" />
<path d="M7.6722 6.9358
L7.6761 6.9277
" />
<path d="M7.6761 1.5223
L7.6722 1.5142
" />
<path d="M7.6761 6.9277
L7.6803 6.9198
" />
<path d="M7.6803 6.9198
L7.6849 6.9120
" />
<path d="M7.6803 1.5302
L7.6761 1.5223
" />
<path d="M7.6849 1.5380
L7.6803 1.5302
" />
<path d="M7.6849 6.9120
L7.6899 6.9045
" />
<path d="M7.6899 1.5455
L7.6849 1.5380
" />
<path d="M7.6899 6.9045
L7.6951 6.8972
" />
<path d="M7.6951 6.8972
L7.7008 6.8901
" />
<path d="M7.6951 1.5528
L7.6899 1.5455
" />
<path d="M7.7008 1.5599
L7.6951 1.5528
" />
<path d="M7.7008 6.8901
L7.7068 6.8832
" />
<path d="M7.7068 1.5668
L7.7008 1.5599
" />
<path d="M7.7068 6.8832
L7.7130 6.8766
" />
<path d="M7.7130 1.5734
L7.7068 1.5668
" />
<path d="M7.7130 6.8766
L7.8664 6.7233
" />
<path d="M7.7130 6.8766
L7.9397 6.6500
" />
<path d="M7.8664 1.7267
L7.7130 1.5734
" />
<path d="M7.9397 1.8000
L7.7130 1.5734
" />
<path d="M7.9397 6.6500
L7.9500 6.6500
" />
<path d="M7.9500 1.8000
L7.9397 1.8000
" />
<path d="M7.9500 6.6500
L8.1000 6.6500
" />
<path d="M8.1000 1.8000
L7.9500 1.8000
" />
<path d="M8.1000 3.1500
L8.1664 3.1500
" />
<path d="M8.1000 4.5750
L8.1664 4.5750
" />
<path d="M8.1000 6.0000
L8.1664 6.0000
" />
<path d="M8.1000 6.6500
L8.1000 1.8000
" />
<path d="M8.1664 2.4500
L8.1000 2.4500
" />
<path d="M8.1664 2.4500
L8.1664 3.1500
" />
<path d="M8.1664 3.8750
L8.1000 3.8750
" />
<path d="M8.1664 3.8750
L8.1664 4.5750
" />
<path d="M8.1664 5.3000
L8.1000 5.3000
" />
<path d="M8.1664 5.3000
L8.1664 6.0000
" />
</g> 
</svg>
