<?xml version="1.0" standalone="no"?>
 <!DOCTYPE svg PUBLIC "-//W3C//DTD SVG 1.1//EN" 
 "http://www.w3.org/Graphics/SVG/1.1/DTD/svg11.dtd"> 
<svg
  xmlns:svg="http://www.w3.org/2000/svg"
  xmlns="http://www.w3.org/2000/svg"
  xmlns:xlink="http://www.w3.org/1999/xlink"
  version="1.1"
  width="3.8354mm" height="3.5306mm" viewBox="0.0000 0.0000 3.8354 3.5306">
<title>SVG Image created as outline.svg date 2025/06/16 09:18:17 </title>
  <desc>Image generated by PCBNEW </desc>
<g style="fill:#000000; fill-opacity:1.0000;stroke:#000000; stroke-opacity:1.0000;
stroke-linecap:round; stroke-linejoin:round;"
 transform="translate(0 0) scale(1 1)">
</g>
<g style="fill:none; 
stroke:#000000; stroke-width:0.0200; stroke-opacity:1; 
stroke-linecap:round; stroke-linejoin:round;">
<path d="M0.5240 0.6500
L0.5240 0.9490
" />
<path d="M0.5240 0.6500
L0.7450 0.6500
" />
<path d="M0.5240 1.2990
L0.5240 1.5990
" />
<path d="M0.5240 1.2990
L0.7450 1.2990
" />
<path d="M0.5240 1.9490
L0.5240 2.2490
" />
<path d="M0.5240 1.9490
L0.7450 1.9490
" />
<path d="M0.5240 2.5990
L0.5240 2.8990
" />
<path d="M0.5240 2.5990
L0.7450 2.5990
" />
<path d="M0.7450 0.6500
L0.8240 0.6500
" />
<path d="M0.7450 0.9490
L0.5240 0.9490
" />
<path d="M0.7450 1.2990
L0.8240 1.2990
" />
<path d="M0.7450 1.5990
L0.5240 1.5990
" />
<path d="M0.7450 1.9490
L0.8240 1.9490
" />
<path d="M0.7450 2.2490
L0.5240 2.2490
" />
<path d="M0.7450 2.5990
L0.8240 2.5990
" />
<path d="M0.7450 2.8990
L0.5240 2.8990
" />
<path d="M0.8240 0.6500
L0.8240 0.9490
" />
<path d="M0.8240 0.9490
L0.7450 0.9490
" />
<path d="M0.8240 1.2990
L0.8240 1.5990
" />
<path d="M0.8240 1.5990
L0.7450 1.5990
" />
<path d="M0.8240 1.9490
L0.8240 2.2490
" />
<path d="M0.8240 2.2490
L0.7450 2.2490
" />
<path d="M0.8240 2.5990
L0.8240 2.8990
" />
<path d="M0.8240 2.8990
L0.7450 2.8990
" />
<path d="M1.0600 0.6500
L0.8240 0.6500
" />
<path d="M1.0600 0.6500
L1.1230 0.6500
" />
<path d="M1.0600 0.9490
L0.8240 0.9490
" />
<path d="M1.0600 1.2990
L0.8240 1.2990
" />
<path d="M1.0600 1.2990
L1.1230 1.2990
" />
<path d="M1.0600 1.5990
L0.8240 1.5990
" />
<path d="M1.0600 1.9490
L0.8240 1.9490
" />
<path d="M1.0600 1.9490
L1.1230 1.9490
" />
<path d="M1.0600 2.2490
L0.8240 2.2490
" />
<path d="M1.0600 2.5990
L0.8240 2.5990
" />
<path d="M1.0600 2.5990
L1.1230 2.5990
" />
<path d="M1.0600 2.8990
L0.8240 2.8990
" />
<path d="M1.1230 0.3250
L1.1230 3.2240
" />
<path d="M1.1230 0.3250
L1.1750 0.3740
" />
<path d="M1.1230 0.6500
L1.1230 0.9490
" />
<path d="M1.1230 0.9490
L1.0600 0.9490
" />
<path d="M1.1230 1.2990
L1.1230 1.5990
" />
<path d="M1.1230 1.5990
L1.0600 1.5990
" />
<path d="M1.1230 1.9490
L1.1230 2.2490
" />
<path d="M1.1230 2.2490
L1.0600 2.2490
" />
<path d="M1.1230 2.5990
L1.1230 2.8990
" />
<path d="M1.1230 2.8990
L1.0600 2.8990
" />
<path d="M1.1230 3.2240
L1.1750 3.1730
" />
<path d="M1.1230 3.2240
L2.7250 3.2240
" />
<path d="M1.1750 3.1730
L1.1750 0.3740
" />
<path d="M1.3730 0.7240
L1.3740 0.7140
" />
<path d="M1.3730 0.7240
L1.3740 0.7340
" />
<path d="M1.3740 0.7100
L1.3740 0.7140
" />
<path d="M1.3740 0.7140
L1.3740 0.7180
" />
<path d="M1.3740 0.7140
L1.3750 0.7040
" />
<path d="M1.3740 0.7180
L1.3730 0.7240
" />
<path d="M1.3740 0.7300
L1.3730 0.7240
" />
<path d="M1.3740 0.7340
L1.3740 0.7300
" />
<path d="M1.3740 0.7340
L1.3750 0.7440
" />
<path d="M1.3740 0.7380
L1.3740 0.7340
" />
<path d="M1.3750 0.7040
L1.3740 0.7100
" />
<path d="M1.3750 0.7040
L1.3760 0.6940
" />
<path d="M1.3750 0.7440
L1.3740 0.7380
" />
<path d="M1.3750 0.7440
L1.3760 0.7530
" />
<path d="M1.3760 0.6940
L1.3760 0.7000
" />
<path d="M1.3760 0.6940
L1.3790 0.6840
" />
<path d="M1.3760 0.7000
L1.3750 0.7040
" />
<path d="M1.3760 0.7480
L1.3750 0.7440
" />
<path d="M1.3760 0.7530
L1.3760 0.7480
" />
<path d="M1.3760 0.7530
L1.3790 0.7630
" />
<path d="M1.3770 0.6900
L1.3760 0.6940
" />
<path d="M1.3770 0.7590
L1.3760 0.7530
" />
<path d="M1.3790 0.6840
L1.3770 0.6900
" />
<path d="M1.3790 0.6840
L1.3820 0.6760
" />
<path d="M1.3790 0.7630
L1.3770 0.7590
" />
<path d="M1.3790 0.7630
L1.3820 0.7730
" />
<path d="M1.3800 0.6800
L1.3790 0.6840
" />
<path d="M1.3800 0.7670
L1.3790 0.7630
" />
<path d="M1.3820 0.6760
L1.3800 0.6800
" />
<path d="M1.3820 0.6760
L1.3850 0.6660
" />
<path d="M1.3820 0.7730
L1.3800 0.7670
" />
<path d="M1.3820 0.7730
L1.3850 0.7820
" />
<path d="M1.3830 0.6700
L1.3820 0.6760
" />
<path d="M1.3830 0.7780
L1.3820 0.7730
" />
<path d="M1.3850 0.6660
L1.3830 0.6700
" />
<path d="M1.3850 0.6660
L1.3890 0.6580
" />
<path d="M1.3850 0.7820
L1.3830 0.7780
" />
<path d="M1.3850 0.7820
L1.3890 0.7910
" />
<path d="M1.3870 0.6620
L1.3850 0.6660
" />
<path d="M1.3870 0.7870
L1.3850 0.7820
" />
<path d="M1.3890 0.6580
L1.3870 0.6620
" />
<path d="M1.3890 0.6580
L1.3940 0.6500
" />
<path d="M1.3890 0.7910
L1.3870 0.7870
" />
<path d="M1.3890 0.7910
L1.3940 0.8000
" />
<path d="M1.3910 0.6540
L1.3890 0.6580
" />
<path d="M1.3910 0.7950
L1.3890 0.7910
" />
<path d="M1.3940 0.6500
L1.3910 0.6540
" />
<path d="M1.3940 0.6500
L1.3990 0.6400
" />
<path d="M1.3940 0.8000
L1.3910 0.7950
" />
<path d="M1.3940 0.8000
L1.3990 0.8080
" />
<path d="M1.3960 0.6440
L1.3940 0.6500
" />
<path d="M1.3960 0.8040
L1.3940 0.8000
" />
<path d="M1.3990 0.6400
L1.3960 0.6440
" />
<path d="M1.3990 0.6400
L1.4040 0.6320
" />
<path d="M1.3990 0.8080
L1.3960 0.8040
" />
<path d="M1.3990 0.8080
L1.4040 0.8150
" />
<path d="M1.4010 0.6360
L1.3990 0.6400
" />
<path d="M1.4010 0.8120
L1.3990 0.8080
" />
<path d="M1.4040 0.6320
L1.4010 0.6360
" />
<path d="M1.4040 0.6320
L1.4110 0.6260
" />
<path d="M1.4040 0.8150
L1.4010 0.8120
" />
<path d="M1.4040 0.8150
L1.4110 0.8220
" />
<path d="M1.4070 0.6300
L1.4040 0.6320
" />
<path d="M1.4070 0.8180
L1.4040 0.8150
" />
<path d="M1.4110 0.6260
L1.4070 0.6300
" />
<path d="M1.4110 0.6260
L1.4180 0.6190
" />
<path d="M1.4110 0.8220
L1.4070 0.8180
" />
<path d="M1.4110 0.8220
L1.4180 0.8290
" />
<path d="M1.4150 0.6210
L1.4110 0.6260
" />
<path d="M1.4150 0.8260
L1.4110 0.8220
" />
<path d="M1.4180 0.6190
L1.4150 0.6210
" />
<path d="M1.4180 0.6190
L1.4250 0.6110
" />
<path d="M1.4180 0.8290
L1.4150 0.8260
" />
<path d="M1.4180 0.8290
L1.4250 0.8360
" />
<path d="M1.4220 0.6150
L1.4180 0.6190
" />
<path d="M1.4220 0.8330
L1.4180 0.8290
" />
<path d="M1.4250 0.6110
L1.4220 0.6150
" />
<path d="M1.4250 0.6110
L1.4330 0.6050
" />
<path d="M1.4250 0.8360
L1.4220 0.8330
" />
<path d="M1.4250 0.8360
L1.4330 0.8420
" />
<path d="M1.4290 0.6090
L1.4250 0.6110
" />
<path d="M1.4290 0.8390
L1.4250 0.8360
" />
<path d="M1.4330 0.6050
L1.4290 0.6090
" />
<path d="M1.4330 0.6050
L1.4410 0.5990
" />
<path d="M1.4330 0.8420
L1.4290 0.8390
" />
<path d="M1.4330 0.8420
L1.4410 0.8480
" />
<path d="M1.4370 0.6030
L1.4330 0.6050
" />
<path d="M1.4370 0.8450
L1.4330 0.8420
" />
<path d="M1.4410 0.5990
L1.4370 0.6030
" />
<path d="M1.4410 0.5990
L1.4490 0.5950
" />
<path d="M1.4410 0.8480
L1.4370 0.8450
" />
<path d="M1.4410 0.8480
L1.4490 0.8530
" />
<path d="M1.4450 0.5970
L1.4410 0.5990
" />
<path d="M1.4450 0.8510
L1.4410 0.8480
" />
<path d="M1.4490 0.5950
L1.4450 0.5970
" />
</g>
<g style="fill:#000000; fill-opacity:1.0000; stroke:none;">
<circle cx="1.4490" cy="0.5950" r="0.0100" /> 
<circle cx="1.4490" cy="0.5950" r="0.0100" /> 
</g>
<g style="fill:none; 
stroke:#000000; stroke-width:0.0200; stroke-opacity:1; 
stroke-linecap:round; stroke-linejoin:round;">
<path d="M1.4490 0.5950
L1.4570 0.5890
" />
<path d="M1.4490 0.8530
L1.4450 0.8510
" />
</g>
<g style="fill:#000000; fill-opacity:1.0000; stroke:none;">
<circle cx="1.4490" cy="0.8530" r="0.0100" /> 
<circle cx="1.4490" cy="0.8530" r="0.0100" /> 
</g>
<g style="fill:none; 
stroke:#000000; stroke-width:0.0200; stroke-opacity:1; 
stroke-linecap:round; stroke-linejoin:round;">
<path d="M1.4490 0.8530
L1.4570 0.8580
" />
<path d="M1.4570 0.5890
L1.4490 0.5950
" />
<path d="M1.4570 0.5890
L1.4660 0.5850
" />
<path d="M1.4570 0.8580
L1.4490 0.8530
" />
<path d="M1.4570 0.8580
L1.4660 0.8620
" />
<path d="M1.4660 0.5850
L1.4570 0.5890
" />
<path d="M1.4660 0.5850
L1.4770 0.5810
" />
<path d="M1.4660 0.8620
L1.4570 0.8580
" />
<path d="M1.4660 0.8620
L1.4770 0.8660
" />
<path d="M1.4770 0.5810
L1.4660 0.5850
" />
<path d="M1.4770 0.5810
L1.4860 0.5790
" />
<path d="M1.4770 0.8660
L1.4660 0.8620
" />
<path d="M1.4770 0.8660
L1.4860 0.8680
" />
<path d="M1.4860 0.5790
L1.4770 0.5810
" />
<path d="M1.4860 0.5790
L1.4960 0.5770
" />
<path d="M1.4860 0.8680
L1.4770 0.8660
" />
<path d="M1.4860 0.8680
L1.4960 0.8710
" />
<path d="M1.4960 0.5770
L1.4860 0.5790
" />
<path d="M1.4960 0.5770
L1.5050 0.5750
" />
<path d="M1.4960 0.8710
L1.4860 0.8680
" />
<path d="M1.4960 0.8710
L1.5050 0.8720
" />
<path d="M1.5050 0.5750
L1.4960 0.5770
" />
<path d="M1.5050 0.5750
L1.5140 0.5750
" />
<path d="M1.5050 0.8720
L1.4960 0.8710
" />
<path d="M1.5050 0.8720
L1.5140 0.8730
" />
<path d="M1.5140 0.5750
L1.5050 0.5750
" />
<path d="M1.5140 0.5750
L1.5230 0.5750
" />
<path d="M1.5140 0.8730
L1.5050 0.8720
" />
<path d="M1.5140 0.8730
L1.5230 0.8730
" />
<path d="M1.5230 0.5750
L1.5140 0.5750
" />
<path d="M1.5230 0.5750
L1.5330 0.5750
" />
<path d="M1.5230 0.8730
L1.5140 0.8730
" />
<path d="M1.5230 0.8730
L1.5330 0.8730
" />
<path d="M1.5330 0.5750
L1.5230 0.5750
" />
<path d="M1.5330 0.5750
L1.5440 0.5750
" />
<path d="M1.5330 0.8730
L1.5230 0.8730
" />
<path d="M1.5330 0.8730
L1.5440 0.8720
" />
<path d="M1.5440 0.5750
L1.5330 0.5750
" />
<path d="M1.5440 0.5750
L1.5530 0.5770
" />
<path d="M1.5440 0.8720
L1.5330 0.8730
" />
<path d="M1.5440 0.8720
L1.5530 0.8710
" />
<path d="M1.5530 0.5770
L1.5440 0.5750
" />
<path d="M1.5530 0.5770
L1.5630 0.5790
" />
<path d="M1.5530 0.8710
L1.5440 0.8720
" />
<path d="M1.5530 0.8710
L1.5630 0.8680
" />
<path d="M1.5630 0.5790
L1.5530 0.5770
" />
<path d="M1.5630 0.5790
L1.5720 0.5810
" />
<path d="M1.5630 0.8680
L1.5530 0.8710
" />
<path d="M1.5630 0.8680
L1.5720 0.8660
" />
<path d="M1.5720 0.5810
L1.5630 0.5790
" />
<path d="M1.5720 0.5810
L1.5810 0.5850
" />
<path d="M1.5720 0.8660
L1.5630 0.8680
" />
<path d="M1.5720 0.8660
L1.5810 0.8620
" />
<path d="M1.5810 0.5850
L1.5720 0.5810
" />
<path d="M1.5810 0.5850
L1.5900 0.5890
" />
<path d="M1.5810 0.8620
L1.5720 0.8660
" />
<path d="M1.5810 0.8620
L1.5900 0.8580
" />
<path d="M1.5900 0.5890
L1.5810 0.5850
" />
<path d="M1.5900 0.5890
L1.5980 0.5950
" />
<path d="M1.5900 0.8580
L1.5810 0.8620
" />
<path d="M1.5900 0.8580
L1.5980 0.8530
" />
<path d="M1.5980 0.5950
L1.5900 0.5890
" />
</g>
<g style="fill:#000000; fill-opacity:1.0000; stroke:none;">
<circle cx="1.5980" cy="0.5950" r="0.0100" /> 
<circle cx="1.5980" cy="0.5950" r="0.0100" /> 
</g>
<g style="fill:none; 
stroke:#000000; stroke-width:0.0200; stroke-opacity:1; 
stroke-linecap:round; stroke-linejoin:round;">
<path d="M1.5980 0.5950
L1.6030 0.5970
" />
<path d="M1.5980 0.8530
L1.5900 0.8580
" />
</g>
<g style="fill:#000000; fill-opacity:1.0000; stroke:none;">
<circle cx="1.5980" cy="0.8530" r="0.0100" /> 
<circle cx="1.5980" cy="0.8530" r="0.0100" /> 
</g>
<g style="fill:none; 
stroke:#000000; stroke-width:0.0200; stroke-opacity:1; 
stroke-linecap:round; stroke-linejoin:round;">
<path d="M1.5980 0.8530
L1.6030 0.8510
" />
<path d="M1.6030 0.5970
L1.6080 0.5990
" />
<path d="M1.6030 0.8510
L1.6080 0.8480
" />
<path d="M1.6080 0.5990
L1.5980 0.5950
" />
<path d="M1.6080 0.5990
L1.6120 0.6030
" />
<path d="M1.6080 0.8480
L1.5980 0.8530
" />
<path d="M1.6080 0.8480
L1.6120 0.8450
" />
<path d="M1.6120 0.6030
L1.6160 0.6050
" />
<path d="M1.6120 0.8450
L1.6160 0.8420
" />
<path d="M1.6160 0.6050
L1.6080 0.5990
" />
<path d="M1.6160 0.6050
L1.6200 0.6090
" />
<path d="M1.6160 0.8420
L1.6080 0.8480
" />
<path d="M1.6160 0.8420
L1.6200 0.8390
" />
<path d="M1.6200 0.6090
L1.6240 0.6110
" />
<path d="M1.6200 0.8390
L1.6240 0.8360
" />
<path d="M1.6240 0.6110
L1.6160 0.6050
" />
<path d="M1.6240 0.6110
L1.6270 0.6150
" />
<path d="M1.6240 0.8360
L1.6160 0.8420
" />
<path d="M1.6240 0.8360
L1.6270 0.8330
" />
<path d="M1.6270 0.6150
L1.6310 0.6190
" />
<path d="M1.6270 0.8330
L1.6310 0.8290
" />
<path d="M1.6310 0.6190
L1.6240 0.6110
" />
<path d="M1.6310 0.6190
L1.6340 0.6210
" />
<path d="M1.6310 0.8290
L1.6240 0.8360
" />
<path d="M1.6310 0.8290
L1.6340 0.8260
" />
<path d="M1.6340 0.6210
L1.6360 0.6260
" />
<path d="M1.6340 0.8260
L1.6360 0.8220
" />
<path d="M1.6360 0.6260
L1.6310 0.6190
" />
<path d="M1.6360 0.6260
L1.6400 0.6300
" />
<path d="M1.6360 0.8220
L1.6310 0.8290
" />
<path d="M1.6360 0.8220
L1.6400 0.8180
" />
<path d="M1.6400 0.6300
L1.6430 0.6320
" />
<path d="M1.6400 0.8180
L1.6430 0.8150
" />
<path d="M1.6430 0.6320
L1.6360 0.6260
" />
<path d="M1.6430 0.6320
L1.6460 0.6360
" />
<path d="M1.6430 0.8150
L1.6360 0.8220
" />
<path d="M1.6430 0.8150
L1.6460 0.8120
" />
<path d="M1.6460 0.6360
L1.6480 0.6400
" />
<path d="M1.6460 0.8120
L1.6480 0.8080
" />
<path d="M1.6480 0.6400
L1.6430 0.6320
" />
<path d="M1.6480 0.6400
L1.6510 0.6440
" />
<path d="M1.6480 0.8080
L1.6430 0.8150
" />
<path d="M1.6480 0.8080
L1.6510 0.8040
" />
<path d="M1.6510 0.6440
L1.6530 0.6500
" />
<path d="M1.6510 0.8040
L1.6530 0.8000
" />
<path d="M1.6530 0.6500
L1.6480 0.6400
" />
<path d="M1.6530 0.6500
L1.6560 0.6540
" />
<path d="M1.6530 0.8000
L1.6480 0.8080
" />
<path d="M1.6530 0.8000
L1.6560 0.7950
" />
<path d="M1.6560 0.6540
L1.6580 0.6580
" />
<path d="M1.6560 0.7950
L1.6580 0.7910
" />
<path d="M1.6580 0.6580
L1.6530 0.6500
" />
<path d="M1.6580 0.6580
L1.6600 0.6620
" />
<path d="M1.6580 0.7910
L1.6530 0.8000
" />
<path d="M1.6580 0.7910
L1.6600 0.7870
" />
<path d="M1.6600 0.6620
L1.6620 0.6660
" />
<path d="M1.6600 0.7870
L1.6620 0.7820
" />
<path d="M1.6620 0.6660
L1.6580 0.6580
" />
<path d="M1.6620 0.6660
L1.6640 0.6700
" />
<path d="M1.6620 0.7820
L1.6580 0.7910
" />
<path d="M1.6620 0.7820
L1.6640 0.7780
" />
<path d="M1.6640 0.6700
L1.6650 0.6760
" />
<path d="M1.6640 0.7780
L1.6650 0.7730
" />
<path d="M1.6650 0.6760
L1.6620 0.6660
" />
<path d="M1.6650 0.6760
L1.6670 0.6800
" />
<path d="M1.6650 0.7730
L1.6620 0.7820
" />
<path d="M1.6650 0.7730
L1.6670 0.7670
" />
<path d="M1.6670 0.6800
L1.6690 0.6840
" />
<path d="M1.6670 0.7670
L1.6690 0.7630
" />
<path d="M1.6690 0.6840
L1.6650 0.6760
" />
<path d="M1.6690 0.6840
L1.6710 0.6900
" />
<path d="M1.6690 0.7630
L1.6650 0.7730
" />
<path d="M1.6690 0.7630
L1.6710 0.7590
" />
<path d="M1.6710 0.6900
L1.6720 0.6940
" />
<path d="M1.6710 0.7590
L1.6720 0.7530
" />
<path d="M1.6720 0.6940
L1.6690 0.6840
" />
<path d="M1.6720 0.6940
L1.6720 0.7000
" />
<path d="M1.6720 0.7000
L1.6730 0.7040
" />
<path d="M1.6720 0.7480
L1.6730 0.7440
" />
<path d="M1.6720 0.7530
L1.6690 0.7630
" />
<path d="M1.6720 0.7530
L1.6720 0.7480
" />
<path d="M1.6730 0.7040
L1.6720 0.6940
" />
<path d="M1.6730 0.7040
L1.6740 0.7100
" />
<path d="M1.6730 0.7440
L1.6720 0.7530
" />
<path d="M1.6730 0.7440
L1.6740 0.7380
" />
<path d="M1.6740 0.7100
L1.6740 0.7140
" />
<path d="M1.6740 0.7140
L1.6730 0.7040
" />
<path d="M1.6740 0.7140
L1.6740 0.7180
" />
<path d="M1.6740 0.7180
L1.6750 0.7240
" />
<path d="M1.6740 0.7300
L1.6750 0.7240
" />
<path d="M1.6740 0.7340
L1.6730 0.7440
" />
<path d="M1.6740 0.7340
L1.6740 0.7300
" />
<path d="M1.6740 0.7380
L1.6740 0.7340
" />
<path d="M1.6750 0.7240
L1.6740 0.7140
" />
<path d="M1.6750 0.7240
L1.6740 0.7340
" />
<path d="M2.6730 0.3740
L1.1750 0.3740
" />
<path d="M2.6730 0.3740
L2.6730 3.1730
" />
<path d="M2.6730 0.3740
L2.7250 0.3250
" />
<path d="M2.6730 3.1730
L1.1750 3.1730
" />
<path d="M2.7250 0.3250
L1.1230 0.3250
" />
<path d="M2.7250 0.6500
L2.7250 0.9490
" />
<path d="M2.7250 0.6500
L2.7880 0.6500
" />
<path d="M2.7250 0.9490
L2.7880 0.9490
" />
<path d="M2.7250 1.2990
L2.7250 1.5990
" />
<path d="M2.7250 1.2990
L2.7880 1.2990
" />
<path d="M2.7250 1.5990
L2.7880 1.5990
" />
<path d="M2.7250 1.9490
L2.7250 2.2490
" />
<path d="M2.7250 1.9490
L2.7880 1.9490
" />
<path d="M2.7250 2.2490
L2.7880 2.2490
" />
<path d="M2.7250 2.5990
L2.7250 2.8990
" />
<path d="M2.7250 2.5990
L2.7880 2.5990
" />
<path d="M2.7250 2.8990
L2.7880 2.8990
" />
<path d="M2.7250 3.2240
L2.6730 3.1730
" />
<path d="M2.7250 3.2240
L2.7250 0.3250
" />
<path d="M2.7880 0.9490
L3.0250 0.9490
" />
<path d="M2.7880 1.5990
L3.0250 1.5990
" />
<path d="M2.7880 2.2490
L3.0250 2.2490
" />
<path d="M2.7880 2.8990
L3.0250 2.8990
" />
<path d="M3.0250 0.6500
L2.7880 0.6500
" />
<path d="M3.0250 0.6500
L3.1040 0.6500
" />
<path d="M3.0250 0.9490
L3.0250 0.6500
" />
<path d="M3.0250 0.9490
L3.1040 0.9490
" />
<path d="M3.0250 1.2990
L2.7880 1.2990
" />
<path d="M3.0250 1.2990
L3.1040 1.2990
" />
<path d="M3.0250 1.5990
L3.0250 1.2990
" />
<path d="M3.0250 1.5990
L3.1040 1.5990
" />
<path d="M3.0250 1.9490
L2.7880 1.9490
" />
<path d="M3.0250 1.9490
L3.1040 1.9490
" />
<path d="M3.0250 2.2490
L3.0250 1.9490
" />
<path d="M3.0250 2.2490
L3.1040 2.2490
" />
<path d="M3.0250 2.5990
L2.7880 2.5990
" />
<path d="M3.0250 2.5990
L3.1040 2.5990
" />
<path d="M3.0250 2.8990
L3.0250 2.5990
" />
<path d="M3.0250 2.8990
L3.1040 2.8990
" />
<path d="M3.1040 0.6500
L3.3230 0.6500
" />
<path d="M3.1040 0.9490
L3.3230 0.9490
" />
<path d="M3.1040 1.2990
L3.3230 1.2990
" />
<path d="M3.1040 1.5990
L3.3230 1.5990
" />
<path d="M3.1040 1.9490
L3.3230 1.9490
" />
<path d="M3.1040 2.2490
L3.3230 2.2490
" />
<path d="M3.1040 2.5990
L3.3230 2.5990
" />
<path d="M3.1040 2.8990
L3.3230 2.8990
" />
<path d="M3.3230 0.9490
L3.3230 0.6500
" />
<path d="M3.3230 1.5990
L3.3230 1.2990
" />
<path d="M3.3230 2.2490
L3.3230 1.9490
" />
<path d="M3.3230 2.8990
L3.3230 2.5990
" />
</g> 
</svg>
