<?xml version="1.0" standalone="no"?>
 <!DOCTYPE svg PUBLIC "-//W3C//DTD SVG 1.1//EN" 
 "http://www.w3.org/Graphics/SVG/1.1/DTD/svg11.dtd"> 
<svg
  xmlns:svg="http://www.w3.org/2000/svg"
  xmlns="http://www.w3.org/2000/svg"
  xmlns:xlink="http://www.w3.org/1999/xlink"
  version="1.1"
  width="4.4450mm" height="4.4450mm" viewBox="0.0000 0.0000 4.4450 4.4450">
<title>SVG Image created as outline.svg date 2025/06/16 09:17:39 </title>
  <desc>Image generated by PCBNEW </desc>
<g style="fill:#000000; fill-opacity:1.0000;stroke:#000000; stroke-opacity:1.0000;
stroke-linecap:round; stroke-linejoin:round;"
 transform="translate(0 0) scale(1 1)">
</g>
<g style="fill:#000000; fill-opacity:1.0000; stroke:none;">
<circle cx="0.2750" cy="2.2250" r="0.0100" /> 
</g>
<g style="fill:none; 
stroke:#000000; stroke-width:0.0200; stroke-opacity:1; 
stroke-linecap:round; stroke-linejoin:round;">
<path d="M0.2750 2.2250
L0.2780 2.3250
" />
<path d="M0.2780 2.1250
L0.2750 2.2250
" />
<path d="M0.2780 2.3250
L0.2850 2.4240
" />
<path d="M0.2850 2.0260
L0.2780 2.1250
" />
<path d="M0.2850 2.4240
L0.2970 2.5220
" />
<path d="M0.2970 1.9280
L0.2850 2.0260
" />
<path d="M0.2970 2.5220
L0.3150 2.6180
" />
<path d="M0.3150 1.8320
L0.2970 1.9280
" />
<path d="M0.3150 2.6180
L0.3360 2.7120
" />
<path d="M0.3360 1.7380
L0.3150 1.8320
" />
<path d="M0.3360 2.7120
L0.3630 2.8050
" />
<path d="M0.3630 1.6450
L0.3360 1.7380
" />
<path d="M0.3630 2.8050
L0.3930 2.8950
" />
<path d="M0.3930 1.5550
L0.3630 1.6450
" />
<path d="M0.3930 2.8950
L0.4280 2.9840
" />
<path d="M0.4280 1.4660
L0.3930 1.5550
" />
<path d="M0.4280 2.9840
L0.4670 3.0700
" />
<path d="M0.4670 1.3800
L0.4280 1.4660
" />
<path d="M0.4670 3.0700
L0.5100 3.1540
" />
<path d="M0.5100 1.2960
L0.4670 1.3800
" />
<path d="M0.5100 3.1540
L0.5570 3.2360
" />
<path d="M0.5570 1.2140
L0.5100 1.2960
" />
<path d="M0.5570 3.2360
L0.6080 3.3150
" />
<path d="M0.6080 1.1350
L0.5570 1.2140
" />
<path d="M0.6080 3.3150
L0.6620 3.3920
" />
<path d="M0.6620 1.0580
L0.6080 1.1350
" />
<path d="M0.6620 3.3920
L0.7200 3.4650
" />
<path d="M0.7200 0.9850
L0.6620 1.0580
" />
<path d="M0.7200 3.4650
L0.7820 3.5360
" />
</g>
<g style="fill:#000000; fill-opacity:1.0000; stroke:none;">
<circle cx="0.7250" cy="2.2250" r="0.0100" /> 
</g>
<g style="fill:none; 
stroke:#000000; stroke-width:0.0200; stroke-opacity:1; 
stroke-linecap:round; stroke-linejoin:round;">
<path d="M0.7250 2.2250
L0.7270 2.3020
" />
<path d="M0.7270 2.1480
L0.7250 2.2250
" />
<path d="M0.7270 2.3020
L0.7330 2.3780
" />
<path d="M0.7330 2.0720
L0.7270 2.1480
" />
<path d="M0.7330 2.3780
L0.7420 2.4530
" />
<path d="M0.7420 1.9970
L0.7330 2.0720
" />
<path d="M0.7420 2.4530
L0.7550 2.5270
" />
<path d="M0.7550 1.9230
L0.7420 1.9970
" />
<path d="M0.7550 2.5270
L0.7720 2.6000
" />
<path d="M0.7720 1.8500
L0.7550 1.9230
" />
<path d="M0.7720 2.6000
L0.7920 2.6710
" />
<path d="M0.7820 0.9140
L0.7200 0.9850
" />
<path d="M0.7820 3.5360
L0.8460 3.6040
" />
<path d="M0.7920 1.7790
L0.7720 1.8500
" />
<path d="M0.7920 2.6710
L0.8160 2.7410
" />
<path d="M0.8160 1.7090
L0.7920 1.7790
" />
<path d="M0.8160 2.7410
L0.8430 2.8090
" />
<path d="M0.8430 1.6410
L0.8160 1.7090
" />
<path d="M0.8430 2.8090
L0.8730 2.8750
" />
<path d="M0.8460 0.8460
L0.7820 0.9140
" />
<path d="M0.8460 3.6040
L0.9140 3.6680
" />
<path d="M0.8730 1.5750
L0.8430 1.6410
" />
<path d="M0.8730 2.8750
L0.9060 2.9400
" />
<path d="M0.9060 1.5100
L0.8730 1.5750
" />
<path d="M0.9060 2.9400
L0.9420 3.0030
" />
<path d="M0.9140 0.7820
L0.8460 0.8460
" />
<path d="M0.9140 3.6680
L0.9850 3.7300
" />
<path d="M0.9420 1.4470
L0.9060 1.5100
" />
<path d="M0.9420 3.0030
L0.9810 3.0640
" />
<path d="M0.9810 1.3860
L0.9420 1.4470
" />
<path d="M0.9810 3.0640
L1.0230 3.1220
" />
<path d="M0.9850 0.7200
L0.9140 0.7820
" />
<path d="M0.9850 3.7300
L1.0580 3.7880
" />
<path d="M1.0230 1.3280
L0.9810 1.3860
" />
<path d="M1.0230 3.1220
L1.0680 3.1790
" />
<path d="M1.0580 0.6620
L0.9850 0.7200
" />
<path d="M1.0580 3.7880
L1.1350 3.8420
" />
<path d="M1.0680 1.2710
L1.0230 1.3280
" />
<path d="M1.0680 3.1790
L1.1150 3.2340
" />
<path d="M1.1150 1.2160
L1.0680 1.2710
" />
<path d="M1.1150 3.2340
L1.1640 3.2860
" />
</g>
<g style="fill:#000000; fill-opacity:1.0000; stroke:none;">
<circle cx="1.1250" cy="2.2250" r="0.0100" /> 
</g>
<g style="fill:none; 
stroke:#000000; stroke-width:0.0200; stroke-opacity:1; 
stroke-linecap:round; stroke-linejoin:round;">
<path d="M1.1250 2.2250
L1.1260 2.2820
" />
<path d="M1.1260 2.1680
L1.1250 2.2250
" />
<path d="M1.1260 2.2820
L1.1310 2.3370
" />
<path d="M1.1310 2.1130
L1.1260 2.1680
" />
<path d="M1.1310 2.3370
L1.1380 2.3930
" />
<path d="M1.1350 0.6080
L1.0580 0.6620
" />
<path d="M1.1350 3.8420
L1.2140 3.8930
" />
<path d="M1.1380 2.0570
L1.1310 2.1130
" />
<path d="M1.1380 2.3930
L1.1470 2.4470
" />
<path d="M1.1470 2.0030
L1.1380 2.0570
" />
<path d="M1.1470 2.4470
L1.1600 2.5000
" />
<path d="M1.1600 1.9500
L1.1470 2.0030
" />
<path d="M1.1600 2.5000
L1.1740 2.5520
" />
<path d="M1.1640 1.1640
L1.1150 1.2160
" />
<path d="M1.1640 3.2860
L1.2160 3.3350
" />
<path d="M1.1740 1.8980
L1.1600 1.9500
" />
<path d="M1.1740 2.5520
L1.1920 2.6030
" />
<path d="M1.1920 1.8470
L1.1740 1.8980
" />
<path d="M1.1920 2.6030
L1.2110 2.6530
" />
<path d="M1.2110 1.7970
L1.1920 1.8470
" />
<path d="M1.2110 2.6530
L1.2330 2.7020
" />
<path d="M1.2140 0.5570
L1.1350 0.6080
" />
<path d="M1.2140 3.8930
L1.2960 3.9400
" />
<path d="M1.2160 1.1150
L1.1640 1.1640
" />
<path d="M1.2160 3.3350
L1.2710 3.3820
" />
<path d="M1.2330 1.7480
L1.2110 1.7970
" />
<path d="M1.2330 2.7020
L1.2580 2.7490
" />
<path d="M1.2580 1.7010
L1.2330 1.7480
" />
<path d="M1.2580 2.7490
L1.2840 2.7950
" />
<path d="M1.2710 1.0680
L1.2160 1.1150
" />
<path d="M1.2710 3.3820
L1.3280 3.4270
" />
<path d="M1.2840 1.6550
L1.2580 1.7010
" />
<path d="M1.2840 2.7950
L1.3130 2.8400
" />
<path d="M1.2960 0.5100
L1.2140 0.5570
" />
<path d="M1.2960 3.9400
L1.3800 3.9830
" />
<path d="M1.3130 1.6100
L1.2840 1.6550
" />
<path d="M1.3130 2.8400
L1.3440 2.8830
" />
<path d="M1.3280 1.0230
L1.2710 1.0680
" />
<path d="M1.3280 3.4270
L1.3860 3.4690
" />
<path d="M1.3440 1.5670
L1.3130 1.6100
" />
<path d="M1.3440 2.8830
L1.3760 2.9250
" />
<path d="M1.3760 1.5250
L1.3440 1.5670
" />
<path d="M1.3760 2.9250
L1.4110 2.9650
" />
<path d="M1.3800 0.4670
L1.2960 0.5100
" />
<path d="M1.3800 3.9830
L1.4660 4.0220
" />
<path d="M1.3860 0.9810
L1.3280 1.0230
" />
<path d="M1.3860 3.4690
L1.4470 3.5080
" />
<path d="M1.4110 1.4850
L1.3760 1.5250
" />
<path d="M1.4110 2.9650
L1.4470 3.0030
" />
<path d="M1.4470 0.9420
L1.3860 0.9810
" />
<path d="M1.4470 1.4470
L1.4110 1.4850
" />
<path d="M1.4470 3.0030
L1.4850 3.0390
" />
<path d="M1.4470 3.5080
L1.5100 3.5440
" />
<path d="M1.4660 0.4280
L1.3800 0.4670
" />
<path d="M1.4660 4.0220
L1.5550 4.0570
" />
<path d="M1.4850 1.4110
L1.4470 1.4470
" />
<path d="M1.4850 3.0390
L1.5250 3.0740
" />
<path d="M1.5100 0.9060
L1.4470 0.9420
" />
<path d="M1.5100 3.5440
L1.5750 3.5770
" />
<path d="M1.5250 1.3760
L1.4850 1.4110
" />
<path d="M1.5250 3.0740
L1.5670 3.1060
" />
<path d="M1.5550 0.3930
L1.4660 0.4280
" />
<path d="M1.5550 4.0570
L1.6450 4.0870
" />
<path d="M1.5670 1.3440
L1.5250 1.3760
" />
<path d="M1.5670 3.1060
L1.6100 3.1370
" />
<path d="M1.5750 0.8730
L1.5100 0.9060
" />
<path d="M1.5750 3.5770
L1.6410 3.6070
" />
<path d="M1.6100 1.3130
L1.5670 1.3440
" />
<path d="M1.6100 3.1370
L1.6550 3.1660
" />
<path d="M1.6410 0.8430
L1.5750 0.8730
" />
<path d="M1.6410 3.6070
L1.7090 3.6340
" />
<path d="M1.6450 0.3630
L1.5550 0.3930
" />
<path d="M1.6450 4.0870
L1.7380 4.1140
" />
<path d="M1.6550 1.2840
L1.6100 1.3130
" />
<path d="M1.6550 3.1660
L1.7010 3.1920
" />
<path d="M1.7010 1.2580
L1.6550 1.2840
" />
<path d="M1.7010 3.1920
L1.7480 3.2170
" />
<path d="M1.7090 0.8160
L1.6410 0.8430
" />
<path d="M1.7090 3.6340
L1.7790 3.6580
" />
<path d="M1.7380 0.3360
L1.6450 0.3630
" />
<path d="M1.7380 4.1140
L1.8320 4.1350
" />
<path d="M1.7480 1.2330
L1.7010 1.2580
" />
<path d="M1.7480 3.2170
L1.7970 3.2390
" />
<path d="M1.7790 0.7920
L1.7090 0.8160
" />
<path d="M1.7790 3.6580
L1.8500 3.6780
" />
<path d="M1.7970 1.2110
L1.7480 1.2330
" />
<path d="M1.7970 3.2390
L1.8470 3.2580
" />
<path d="M1.8320 0.3150
L1.7380 0.3360
" />
<path d="M1.8320 4.1350
L1.9280 4.1530
" />
<path d="M1.8470 1.1920
L1.7970 1.2110
" />
<path d="M1.8470 3.2580
L1.8980 3.2760
" />
<path d="M1.8500 0.7720
L1.7790 0.7920
" />
<path d="M1.8500 3.6780
L1.9230 3.6950
" />
<path d="M1.8980 1.1740
L1.8470 1.1920
" />
<path d="M1.8980 3.2760
L1.9500 3.2900
" />
<path d="M1.9230 0.7550
L1.8500 0.7720
" />
<path d="M1.9230 3.6950
L1.9970 3.7080
" />
<path d="M1.9280 0.2970
L1.8320 0.3150
" />
<path d="M1.9280 4.1530
L2.0260 4.1650
" />
<path d="M1.9500 1.1600
L1.8980 1.1740
" />
<path d="M1.9500 3.2900
L2.0030 3.3030
" />
<path d="M1.9970 0.7420
L1.9230 0.7550
" />
<path d="M1.9970 3.7080
L2.0720 3.7170
" />
<path d="M2.0030 1.1470
L1.9500 1.1600
" />
<path d="M2.0030 3.3030
L2.0570 3.3120
" />
<path d="M2.0260 0.2850
L1.9280 0.2970
" />
<path d="M2.0260 4.1650
L2.1250 4.1720
" />
<path d="M2.0570 1.1380
L2.0030 1.1470
" />
<path d="M2.0570 3.3120
L2.1130 3.3190
" />
<path d="M2.0720 0.7330
L1.9970 0.7420
" />
<path d="M2.0720 3.7170
L2.1480 3.7230
" />
<path d="M2.1130 1.1310
L2.0570 1.1380
" />
<path d="M2.1130 3.3190
L2.1680 3.3240
" />
<path d="M2.1250 0.2780
L2.0260 0.2850
" />
<path d="M2.1250 4.1720
L2.2250 4.1750
" />
<path d="M2.1480 0.7270
L2.0720 0.7330
" />
<path d="M2.1480 3.7230
L2.2250 3.7250
" />
<path d="M2.1680 1.1260
L2.1130 1.1310
" />
<path d="M2.1680 3.3240
L2.2250 3.3250
" />
<path d="M2.2250 0.2750
L2.1250 0.2780
" />
</g>
<g style="fill:#000000; fill-opacity:1.0000; stroke:none;">
<circle cx="2.2250" cy="0.2750" r="0.0100" /> 
</g>
<g style="fill:none; 
stroke:#000000; stroke-width:0.0200; stroke-opacity:1; 
stroke-linecap:round; stroke-linejoin:round;">
<path d="M2.2250 0.7250
L2.1480 0.7270
" />
</g>
<g style="fill:#000000; fill-opacity:1.0000; stroke:none;">
<circle cx="2.2250" cy="0.7250" r="0.0100" /> 
</g>
<g style="fill:none; 
stroke:#000000; stroke-width:0.0200; stroke-opacity:1; 
stroke-linecap:round; stroke-linejoin:round;">
<path d="M2.2250 1.1250
L2.1680 1.1260
" />
</g>
<g style="fill:#000000; fill-opacity:1.0000; stroke:none;">
<circle cx="2.2250" cy="1.1250" r="0.0100" /> 
<circle cx="2.2250" cy="3.3250" r="0.0100" /> 
</g>
<g style="fill:none; 
stroke:#000000; stroke-width:0.0200; stroke-opacity:1; 
stroke-linecap:round; stroke-linejoin:round;">
<path d="M2.2250 3.3250
L2.2820 3.3240
" />
</g>
<g style="fill:#000000; fill-opacity:1.0000; stroke:none;">
<circle cx="2.2250" cy="3.7250" r="0.0100" /> 
</g>
<g style="fill:none; 
stroke:#000000; stroke-width:0.0200; stroke-opacity:1; 
stroke-linecap:round; stroke-linejoin:round;">
<path d="M2.2250 3.7250
L2.3020 3.7230
" />
</g>
<g style="fill:#000000; fill-opacity:1.0000; stroke:none;">
<circle cx="2.2250" cy="4.1750" r="0.0100" /> 
</g>
<g style="fill:none; 
stroke:#000000; stroke-width:0.0200; stroke-opacity:1; 
stroke-linecap:round; stroke-linejoin:round;">
<path d="M2.2250 4.1750
L2.3250 4.1720
" />
<path d="M2.2820 1.1260
L2.2250 1.1250
" />
<path d="M2.2820 3.3240
L2.3370 3.3190
" />
<path d="M2.3020 0.7270
L2.2250 0.7250
" />
<path d="M2.3020 3.7230
L2.3780 3.7170
" />
<path d="M2.3250 0.2780
L2.2250 0.2750
" />
<path d="M2.3250 4.1720
L2.4240 4.1650
" />
<path d="M2.3370 1.1310
L2.2820 1.1260
" />
<path d="M2.3370 3.3190
L2.3930 3.3120
" />
<path d="M2.3780 0.7330
L2.3020 0.7270
" />
<path d="M2.3780 3.7170
L2.4530 3.7080
" />
<path d="M2.3930 1.1380
L2.3370 1.1310
" />
<path d="M2.3930 3.3120
L2.4470 3.3030
" />
<path d="M2.4240 0.2850
L2.3250 0.2780
" />
<path d="M2.4240 4.1650
L2.5220 4.1530
" />
<path d="M2.4470 1.1470
L2.3930 1.1380
" />
<path d="M2.4470 3.3030
L2.5000 3.2900
" />
<path d="M2.4530 0.7420
L2.3780 0.7330
" />
<path d="M2.4530 3.7080
L2.5270 3.6950
" />
<path d="M2.5000 1.1600
L2.4470 1.1470
" />
<path d="M2.5000 3.2900
L2.5520 3.2760
" />
<path d="M2.5220 0.2970
L2.4240 0.2850
" />
<path d="M2.5220 4.1530
L2.6180 4.1350
" />
<path d="M2.5270 0.7550
L2.4530 0.7420
" />
<path d="M2.5270 3.6950
L2.6000 3.6780
" />
<path d="M2.5520 1.1740
L2.5000 1.1600
" />
<path d="M2.5520 3.2760
L2.6030 3.2580
" />
<path d="M2.6000 0.7720
L2.5270 0.7550
" />
<path d="M2.6000 3.6780
L2.6710 3.6580
" />
<path d="M2.6030 1.1920
L2.5520 1.1740
" />
<path d="M2.6030 3.2580
L2.6530 3.2390
" />
<path d="M2.6180 0.3150
L2.5220 0.2970
" />
<path d="M2.6180 4.1350
L2.7120 4.1140
" />
<path d="M2.6530 1.2110
L2.6030 1.1920
" />
<path d="M2.6530 3.2390
L2.7020 3.2170
" />
<path d="M2.6710 0.7920
L2.6000 0.7720
" />
<path d="M2.6710 3.6580
L2.7410 3.6340
" />
<path d="M2.7020 1.2330
L2.6530 1.2110
" />
<path d="M2.7020 3.2170
L2.7490 3.1920
" />
<path d="M2.7120 0.3360
L2.6180 0.3150
" />
<path d="M2.7120 4.1140
L2.8050 4.0870
" />
<path d="M2.7410 0.8160
L2.6710 0.7920
" />
<path d="M2.7410 3.6340
L2.8090 3.6070
" />
<path d="M2.7490 1.2580
L2.7020 1.2330
" />
<path d="M2.7490 3.1920
L2.7950 3.1660
" />
<path d="M2.7950 1.2840
L2.7490 1.2580
" />
<path d="M2.7950 3.1660
L2.8400 3.1370
" />
<path d="M2.8050 0.3630
L2.7120 0.3360
" />
<path d="M2.8050 4.0870
L2.8950 4.0570
" />
<path d="M2.8090 0.8430
L2.7410 0.8160
" />
<path d="M2.8090 3.6070
L2.8750 3.5770
" />
<path d="M2.8400 1.3130
L2.7950 1.2840
" />
<path d="M2.8400 3.1370
L2.8830 3.1060
" />
<path d="M2.8750 0.8730
L2.8090 0.8430
" />
<path d="M2.8750 3.5770
L2.9400 3.5440
" />
<path d="M2.8830 1.3440
L2.8400 1.3130
" />
<path d="M2.8830 3.1060
L2.9250 3.0740
" />
<path d="M2.8950 0.3930
L2.8050 0.3630
" />
<path d="M2.8950 4.0570
L2.9840 4.0220
" />
<path d="M2.9250 1.3760
L2.8830 1.3440
" />
<path d="M2.9250 3.0740
L2.9650 3.0390
" />
<path d="M2.9400 0.9060
L2.8750 0.8730
" />
<path d="M2.9400 3.5440
L3.0030 3.5080
" />
<path d="M2.9650 1.4110
L2.9250 1.3760
" />
<path d="M2.9650 3.0390
L3.0030 3.0030
" />
<path d="M2.9840 0.4280
L2.8950 0.3930
" />
<path d="M2.9840 4.0220
L3.0700 3.9830
" />
<path d="M3.0030 0.9420
L2.9400 0.9060
" />
<path d="M3.0030 1.4470
L2.9650 1.4110
" />
<path d="M3.0030 3.0030
L3.0390 2.9650
" />
<path d="M3.0030 3.5080
L3.0640 3.4690
" />
<path d="M3.0390 1.4850
L3.0030 1.4470
" />
<path d="M3.0390 2.9650
L3.0740 2.9250
" />
<path d="M3.0640 0.9810
L3.0030 0.9420
" />
<path d="M3.0640 3.4690
L3.1220 3.4270
" />
<path d="M3.0700 0.4670
L2.9840 0.4280
" />
<path d="M3.0700 3.9830
L3.1540 3.9400
" />
<path d="M3.0740 1.5250
L3.0390 1.4850
" />
<path d="M3.0740 2.9250
L3.1060 2.8830
" />
<path d="M3.1060 1.5670
L3.0740 1.5250
" />
<path d="M3.1060 2.8830
L3.1370 2.8400
" />
<path d="M3.1220 1.0230
L3.0640 0.9810
" />
<path d="M3.1220 3.4270
L3.1790 3.3820
" />
<path d="M3.1370 1.6100
L3.1060 1.5670
" />
<path d="M3.1370 2.8400
L3.1660 2.7950
" />
<path d="M3.1540 0.5100
L3.0700 0.4670
" />
<path d="M3.1540 3.9400
L3.2360 3.8930
" />
<path d="M3.1660 1.6550
L3.1370 1.6100
" />
<path d="M3.1660 2.7950
L3.1920 2.7490
" />
<path d="M3.1790 1.0680
L3.1220 1.0230
" />
<path d="M3.1790 3.3820
L3.2340 3.3350
" />
<path d="M3.1920 1.7010
L3.1660 1.6550
" />
<path d="M3.1920 2.7490
L3.2170 2.7020
" />
<path d="M3.2170 1.7480
L3.1920 1.7010
" />
<path d="M3.2170 2.7020
L3.2390 2.6530
" />
<path d="M3.2340 1.1150
L3.1790 1.0680
" />
<path d="M3.2340 3.3350
L3.2860 3.2860
" />
<path d="M3.2360 0.5570
L3.1540 0.5100
" />
<path d="M3.2360 3.8930
L3.3150 3.8420
" />
<path d="M3.2390 1.7970
L3.2170 1.7480
" />
<path d="M3.2390 2.6530
L3.2580 2.6030
" />
<path d="M3.2580 1.8470
L3.2390 1.7970
" />
<path d="M3.2580 2.6030
L3.2760 2.5520
" />
<path d="M3.2760 1.8980
L3.2580 1.8470
" />
<path d="M3.2760 2.5520
L3.2900 2.5000
" />
<path d="M3.2860 1.1640
L3.2340 1.1150
" />
<path d="M3.2860 3.2860
L3.3350 3.2340
" />
<path d="M3.2900 1.9500
L3.2760 1.8980
" />
<path d="M3.2900 2.5000
L3.3030 2.4470
" />
<path d="M3.3030 2.0030
L3.2900 1.9500
" />
<path d="M3.3030 2.4470
L3.3120 2.3930
" />
<path d="M3.3120 2.0570
L3.3030 2.0030
" />
<path d="M3.3120 2.3930
L3.3190 2.3370
" />
<path d="M3.3150 0.6080
L3.2360 0.5570
" />
<path d="M3.3150 3.8420
L3.3920 3.7880
" />
<path d="M3.3190 2.1130
L3.3120 2.0570
" />
<path d="M3.3190 2.3370
L3.3240 2.2820
" />
<path d="M3.3240 2.1680
L3.3190 2.1130
" />
<path d="M3.3240 2.2820
L3.3250 2.2250
" />
<path d="M3.3250 2.2250
L3.3240 2.1680
" />
</g>
<g style="fill:#000000; fill-opacity:1.0000; stroke:none;">
<circle cx="3.3250" cy="2.2250" r="0.0100" /> 
<circle cx="3.3250" cy="2.2250" r="0.0100" /> 
</g>
<g style="fill:none; 
stroke:#000000; stroke-width:0.0200; stroke-opacity:1; 
stroke-linecap:round; stroke-linejoin:round;">
<path d="M3.3350 1.2160
L3.2860 1.1640
" />
<path d="M3.3350 3.2340
L3.3820 3.1790
" />
<path d="M3.3820 1.2710
L3.3350 1.2160
" />
<path d="M3.3820 3.1790
L3.4270 3.1220
" />
<path d="M3.3920 0.6620
L3.3150 0.6080
" />
<path d="M3.3920 3.7880
L3.4650 3.7300
" />
<path d="M3.4270 1.3280
L3.3820 1.2710
" />
<path d="M3.4270 3.1220
L3.4690 3.0640
" />
<path d="M3.4650 0.7200
L3.3920 0.6620
" />
<path d="M3.4650 3.7300
L3.5360 3.6680
" />
<path d="M3.4690 1.3860
L3.4270 1.3280
" />
<path d="M3.4690 3.0640
L3.5080 3.0030
" />
<path d="M3.5080 1.4470
L3.4690 1.3860
" />
<path d="M3.5080 3.0030
L3.5440 2.9400
" />
<path d="M3.5360 0.7820
L3.4650 0.7200
" />
<path d="M3.5360 3.6680
L3.6040 3.6040
" />
<path d="M3.5440 1.5100
L3.5080 1.4470
" />
<path d="M3.5440 2.9400
L3.5770 2.8750
" />
<path d="M3.5770 1.5750
L3.5440 1.5100
" />
<path d="M3.5770 2.8750
L3.6070 2.8090
" />
<path d="M3.6040 0.8460
L3.5360 0.7820
" />
<path d="M3.6040 3.6040
L3.6680 3.5360
" />
<path d="M3.6070 1.6410
L3.5770 1.5750
" />
<path d="M3.6070 2.8090
L3.6340 2.7410
" />
<path d="M3.6340 1.7090
L3.6070 1.6410
" />
<path d="M3.6340 2.7410
L3.6580 2.6710
" />
<path d="M3.6580 1.7790
L3.6340 1.7090
" />
<path d="M3.6580 2.6710
L3.6780 2.6000
" />
<path d="M3.6680 0.9140
L3.6040 0.8460
" />
<path d="M3.6680 3.5360
L3.7300 3.4650
" />
<path d="M3.6780 1.8500
L3.6580 1.7790
" />
<path d="M3.6780 2.6000
L3.6950 2.5270
" />
<path d="M3.6950 1.9230
L3.6780 1.8500
" />
<path d="M3.6950 2.5270
L3.7080 2.4530
" />
<path d="M3.7080 1.9970
L3.6950 1.9230
" />
<path d="M3.7080 2.4530
L3.7170 2.3780
" />
<path d="M3.7170 2.0720
L3.7080 1.9970
" />
<path d="M3.7170 2.3780
L3.7230 2.3020
" />
<path d="M3.7230 2.1480
L3.7170 2.0720
" />
<path d="M3.7230 2.3020
L3.7250 2.2250
" />
<path d="M3.7250 2.2250
L3.7230 2.1480
" />
</g>
<g style="fill:#000000; fill-opacity:1.0000; stroke:none;">
<circle cx="3.7250" cy="2.2250" r="0.0100" /> 
<circle cx="3.7250" cy="2.2250" r="0.0100" /> 
</g>
<g style="fill:none; 
stroke:#000000; stroke-width:0.0200; stroke-opacity:1; 
stroke-linecap:round; stroke-linejoin:round;">
<path d="M3.7300 0.9850
L3.6680 0.9140
" />
<path d="M3.7300 3.4650
L3.7880 3.3920
" />
<path d="M3.7880 1.0580
L3.7300 0.9850
" />
<path d="M3.7880 3.3920
L3.8420 3.3150
" />
<path d="M3.8420 1.1350
L3.7880 1.0580
" />
<path d="M3.8420 3.3150
L3.8930 3.2360
" />
<path d="M3.8930 1.2140
L3.8420 1.1350
" />
<path d="M3.8930 3.2360
L3.9400 3.1540
" />
<path d="M3.9400 1.2960
L3.8930 1.2140
" />
<path d="M3.9400 3.1540
L3.9830 3.0700
" />
<path d="M3.9830 1.3800
L3.9400 1.2960
" />
<path d="M3.9830 3.0700
L4.0220 2.9840
" />
<path d="M4.0220 1.4660
L3.9830 1.3800
" />
<path d="M4.0220 2.9840
L4.0570 2.8950
" />
<path d="M4.0570 1.5550
L4.0220 1.4660
" />
<path d="M4.0570 2.8950
L4.0870 2.8050
" />
<path d="M4.0870 1.6450
L4.0570 1.5550
" />
<path d="M4.0870 2.8050
L4.1140 2.7120
" />
<path d="M4.1140 1.7380
L4.0870 1.6450
" />
<path d="M4.1140 2.7120
L4.1350 2.6180
" />
<path d="M4.1350 1.8320
L4.1140 1.7380
" />
<path d="M4.1350 2.6180
L4.1530 2.5220
" />
<path d="M4.1530 1.9280
L4.1350 1.8320
" />
<path d="M4.1530 2.5220
L4.1650 2.4240
" />
<path d="M4.1650 2.0260
L4.1530 1.9280
" />
<path d="M4.1650 2.4240
L4.1720 2.3250
" />
<path d="M4.1720 2.1250
L4.1650 2.0260
" />
<path d="M4.1720 2.3250
L4.1750 2.2250
" />
<path d="M4.1750 2.2250
L4.1720 2.1250
" />
</g>
<g style="fill:#000000; fill-opacity:1.0000; stroke:none;">
<circle cx="4.1750" cy="2.2250" r="0.0100" /> 
<circle cx="4.1750" cy="2.2250" r="0.0100" /> 
</g> 
</svg>
