<?xml version="1.0" standalone="no"?>
 <!DOCTYPE svg PUBLIC "-//W3C//DTD SVG 1.1//EN" 
 "http://www.w3.org/Graphics/SVG/1.1/DTD/svg11.dtd"> 
<svg
  xmlns:svg="http://www.w3.org/2000/svg"
  xmlns="http://www.w3.org/2000/svg"
  xmlns:xlink="http://www.w3.org/1999/xlink"
  version="1.1"
  width="17.9832mm" height="18.7960mm" viewBox="0.0000 0.0000 17.9832 18.7960">
<title>SVG Image created as outline.svg date 2025/06/16 09:17:44 </title>
  <desc>Image generated by PCBNEW </desc>
<g style="fill:#000000; fill-opacity:1.0000;stroke:#000000; stroke-opacity:1.0000;
stroke-linecap:round; stroke-linejoin:round;"
 transform="translate(0 0) scale(1 1)">
</g>
<g style="fill:none; 
stroke:#000000; stroke-width:0.0200; stroke-opacity:1; 
stroke-linecap:round; stroke-linejoin:round;">
<path d="M1.1300 1.6690
L1.1300 3.1910
" />
<path d="M1.1300 3.1910
L1.1330 3.1990
" />
<path d="M1.1300 7.3490
L1.1300 8.8710
" />
<path d="M1.1300 8.8710
L1.1330 8.8790
" />
<path d="M1.1330 1.6610
L1.1300 1.6690
" />
<path d="M1.1330 3.1990
L1.1400 3.2070
" />
<path d="M1.1330 7.3410
L1.1300 7.3490
" />
<path d="M1.1330 8.8790
L1.1400 8.8870
" />
<path d="M1.1400 1.6530
L1.1330 1.6610
" />
<path d="M1.1400 3.2070
L1.1530 3.2150
" />
<path d="M1.1400 7.3330
L1.1330 7.3410
" />
<path d="M1.1400 8.8870
L1.1530 8.8950
" />
<path d="M1.1530 1.6450
L1.1400 1.6530
" />
<path d="M1.1530 3.2150
L1.1710 3.2230
" />
<path d="M1.1530 7.3250
L1.1400 7.3330
" />
<path d="M1.1530 8.8950
L1.1710 8.9030
" />
<path d="M1.1710 1.6370
L1.1530 1.6450
" />
<path d="M1.1710 3.2230
L1.2220 3.2390
" />
<path d="M1.1710 7.3170
L1.1530 7.3250
" />
<path d="M1.1710 8.9030
L1.2220 8.9190
" />
<path d="M1.2220 1.6210
L1.1710 1.6370
" />
<path d="M1.2220 3.2390
L1.2900 3.2530
" />
<path d="M1.2220 7.3010
L1.1710 7.3170
" />
<path d="M1.2220 8.9190
L1.2900 8.9330
" />
<path d="M1.2900 1.6070
L1.2220 1.6210
" />
<path d="M1.2900 1.6070
L1.2900 3.2530
" />
<path d="M1.2900 3.2530
L2.4090 3.4490
" />
<path d="M1.2900 7.2870
L1.2220 7.3010
" />
<path d="M1.2900 7.2870
L1.2900 8.9330
" />
<path d="M1.2900 8.9330
L2.4090 9.1290
" />
<path d="M1.4950 18.0850
L1.4970 18.0850
" />
<path d="M1.4950 18.3850
L1.4950 18.0850
" />
<path d="M1.4970 18.0850
L1.5040 18.0850
" />
<path d="M1.4970 18.3850
L1.4950 18.3850
" />
<path d="M1.5040 18.0850
L1.5150 18.0850
" />
<path d="M1.5040 18.3850
L1.4970 18.3850
" />
<path d="M1.5150 18.0850
L1.5300 18.0850
" />
<path d="M1.5150 18.3850
L1.5040 18.3850
" />
<path d="M1.5300 18.0850
L1.5490 18.0850
" />
<path d="M1.5300 18.3850
L1.5150 18.3850
" />
<path d="M1.5490 18.0850
L1.5710 18.0850
" />
<path d="M1.5490 18.3850
L1.5300 18.3850
" />
<path d="M1.5710 18.0850
L1.5980 18.0850
" />
<path d="M1.5710 18.3850
L1.5490 18.3850
" />
<path d="M1.5980 18.0850
L1.6270 18.0850
" />
<path d="M1.5980 18.3850
L1.5710 18.3850
" />
<path d="M1.6270 18.0850
L1.6590 18.0850
" />
<path d="M1.6270 18.3850
L1.5980 18.3850
" />
<path d="M1.6590 18.0850
L1.6930 18.0850
" />
<path d="M1.6590 18.3850
L1.6270 18.3850
" />
<path d="M1.6930 18.0850
L1.7290 18.0850
" />
<path d="M1.6930 18.3850
L1.6590 18.3850
" />
<path d="M1.7290 18.0850
L1.7670 18.0850
" />
<path d="M1.7290 18.3850
L1.6930 18.3850
" />
<path d="M1.7670 18.0850
L1.8060 18.0850
" />
<path d="M1.7670 18.3850
L1.7290 18.3850
" />
<path d="M1.8060 18.0850
L1.8450 18.0850
" />
<path d="M1.8060 18.3850
L1.7670 18.3850
" />
<path d="M1.8450 18.0850
L1.8450 18.3850
" />
<path d="M1.8450 18.0850
L2.2450 18.0850
" />
<path d="M1.8450 18.3850
L1.8060 18.3850
" />
<path d="M1.8450 18.3850
L2.2450 18.3850
" />
<path d="M2.1410 2.0600
L2.1410 2.5850
" />
<path d="M2.1410 2.5850
L2.4410 2.5850
" />
<path d="M2.1440 1.9930
L2.1410 2.0600
" />
<path d="M2.1540 1.9270
L2.1440 1.9930
" />
<path d="M2.1700 1.8630
L2.1540 1.9270
" />
<path d="M2.1930 1.8000
L2.1700 1.8630
" />
<path d="M2.2220 1.7400
L2.1930 1.8000
" />
<path d="M2.2560 1.6820
L2.2220 1.7400
" />
<path d="M2.2840 18.0810
L2.2450 18.0850
" />
<path d="M2.2960 1.6290
L2.2560 1.6820
" />
<path d="M2.3050 18.3810
L2.2450 18.3850
" />
<path d="M2.3220 18.0700
L2.2840 18.0810
" />
<path d="M2.3410 1.5800
L2.2960 1.6290
" />
<path d="M2.3560 18.0510
L2.3220 18.0700
" />
<path d="M2.3650 18.3700
L2.3050 18.3810
" />
<path d="M2.3860 18.0260
L2.3560 18.0510
" />
<path d="M2.3910 1.5350
L2.3410 1.5800
" />
<path d="M2.4090 1.4110
L2.4090 1.5220
" />
<path d="M2.4090 2.5850
L2.4090 3.4490
" />
<path d="M2.4090 3.4490
L2.4360 3.4560
" />
<path d="M2.4090 7.0910
L2.4090 9.1290
" />
<path d="M2.4090 9.1290
L2.4360 9.1360
" />
<path d="M2.4110 17.9960
L2.3860 18.0260
" />
<path d="M2.4220 18.3530
L2.3650 18.3700
" />
<path d="M2.4300 17.9620
L2.4110 17.9960
" />
<path d="M2.4360 1.4040
L2.4090 1.4110
" />
<path d="M2.4360 3.4560
L2.4430 3.4600
" />
<path d="M2.4360 7.0840
L2.4090 7.0910
" />
<path d="M2.4360 9.1360
L2.4430 9.1400
" />
<path d="M2.4400 1.4050
L1.2900 1.6070
" />
<path d="M2.4400 7.0850
L1.2900 7.2870
" />
<path d="M2.4410 2.0600
L2.4410 2.5850
" />
<path d="M2.4410 17.9240
L2.4300 17.9620
" />
<path d="M2.4420 2.0320
L2.4410 2.0600
" />
<path d="M2.4430 1.4000
L2.4360 1.4040
" />
<path d="M2.4430 3.4600
L2.4450 3.4630
" />
<path d="M2.4430 7.0800
L2.4360 7.0840
" />
<path d="M2.4430 9.1400
L2.4450 9.1430
" />
<path d="M2.4450 1.3850
L2.4450 1.7850
" />
<path d="M2.4450 1.3970
L2.4400 1.4050
" />
<path d="M2.4450 1.4960
L2.4090 1.5220
" />
<path d="M2.4450 1.7850
L2.4480 1.7850
" />
<path d="M2.4450 2.0030
L2.4420 2.0320
" />
<path d="M2.4450 2.0030
L2.4450 17.8850
" />
<path d="M2.4450 3.4630
L2.4090 3.4490
" />
<path d="M2.4450 7.0770
L2.4400 7.0850
" />
<path d="M2.4450 9.1430
L2.4090 9.1290
" />
<path d="M2.4450 17.8850
L2.4410 17.9240
" />
<path d="M2.4450 17.8850
L2.8450 18.0850
" />
<path d="M2.4480 1.7850
L2.4550 1.7850
" />
<path d="M2.4480 17.8850
L2.4450 17.8850
" />
<path d="M2.4550 1.7850
L2.4670 1.7850
" />
<path d="M2.4550 17.8850
L2.4480 17.8850
" />
<path d="M2.4670 1.7850
L2.4850 1.7850
" />
<path d="M2.4670 17.8850
L2.4550 17.8850
" />
<path d="M2.4770 18.3280
L2.4220 18.3530
" />
<path d="M2.4850 1.7850
L2.5060 1.7850
" />
<path d="M2.4850 17.8850
L2.4670 17.8850
" />
<path d="M2.5060 1.7850
L2.5320 1.7850
" />
<path d="M2.5060 17.8850
L2.4850 17.8850
" />
<path d="M2.5290 18.2960
L2.4770 18.3280
" />
<path d="M2.5320 1.7850
L2.5620 1.7850
" />
<path d="M2.5320 17.8850
L2.5060 17.8850
" />
<path d="M2.5620 1.7850
L2.5960 1.7850
" />
<path d="M2.5620 17.8850
L2.5320 17.8850
" />
<path d="M2.5770 18.2590
L2.5290 18.2960
" />
<path d="M2.5960 1.7850
L2.6320 1.7850
" />
<path d="M2.5960 17.8850
L2.5620 17.8850
" />
<path d="M2.6190 18.2170
L2.5770 18.2590
" />
<path d="M2.6320 1.7850
L2.6710 1.7850
" />
<path d="M2.6320 17.8850
L2.5960 17.8850
" />
<path d="M2.6560 18.1690
L2.6190 18.2170
" />
<path d="M2.6710 1.7850
L2.7130 1.7850
" />
<path d="M2.6710 17.8850
L2.6320 17.8850
" />
<path d="M2.6880 18.1170
L2.6560 18.1690
" />
<path d="M2.7130 1.7850
L2.7560 1.7850
" />
<path d="M2.7130 17.8850
L2.6710 17.8850
" />
<path d="M2.7130 18.0620
L2.6880 18.1170
" />
<path d="M2.7300 18.0050
L2.7130 18.0620
" />
<path d="M2.7410 17.9450
L2.7300 18.0050
" />
<path d="M2.7450 1.3850
L2.4450 1.3850
" />
<path d="M2.7450 1.3850
L2.7450 1.7850
" />
<path d="M2.7450 1.6920
L2.7450 1.3890
" />
<path d="M2.7450 1.7850
L2.8450 1.7850
" />
<path d="M2.7450 17.8850
L2.7410 17.9450
" />
<path d="M2.7450 17.8850
L2.7450 17.9320
" />
<path d="M2.7450 17.9320
L2.7450 17.9770
" />
<path d="M2.7450 17.9770
L2.7450 18.0190
" />
<path d="M2.7450 18.0190
L2.7450 18.0590
" />
<path d="M2.7450 18.0590
L2.7450 18.0960
" />
<path d="M2.7450 18.0960
L2.7450 18.1300
" />
<path d="M2.7450 18.1300
L2.7450 18.1610
" />
<path d="M2.7450 18.1610
L2.7450 18.1880
" />
<path d="M2.7450 18.1880
L2.7450 18.2110
" />
<path d="M2.7450 18.2110
L2.7450 18.2300
" />
<path d="M2.7450 18.2300
L2.7450 18.2450
" />
<path d="M2.7450 18.2450
L2.7450 18.2560
" />
<path d="M2.7450 18.2560
L2.7450 18.2630
" />
<path d="M2.7450 18.2630
L2.7450 18.2650
" />
<path d="M2.7560 1.7850
L2.8160 1.7850
" />
<path d="M2.7560 17.8850
L2.7130 17.8850
" />
<path d="M2.7800 1.6870
L2.7450 1.6920
" />
<path d="M2.8000 17.8850
L2.7560 17.8850
" />
<path d="M2.8160 1.3850
L2.7450 1.3890
" />
<path d="M2.8160 1.3880
L2.8160 1.3850
" />
<path d="M2.8160 1.3950
L2.8160 1.3880
" />
<path d="M2.8160 1.4070
L2.8160 1.3950
" />
<path d="M2.8160 1.4250
L2.8160 1.4070
" />
<path d="M2.8160 1.4460
L2.8160 1.4250
" />
<path d="M2.8160 1.4720
L2.8160 1.4460
" />
<path d="M2.8160 1.5020
L2.8160 1.4720
" />
<path d="M2.8160 1.5360
L2.8160 1.5020
" />
<path d="M2.8160 1.5720
L2.8160 1.5360
" />
<path d="M2.8160 1.6110
L2.8160 1.5720
" />
<path d="M2.8160 1.6530
L2.8160 1.6110
" />
<path d="M2.8160 1.6960
L2.8160 1.6530
" />
<path d="M2.8160 1.7400
L2.8160 1.6960
" />
<path d="M2.8160 1.7850
L2.8160 1.7400
" />
<path d="M2.8450 1.6840
L2.7800 1.6870
" />
<path d="M2.8450 17.8850
L2.8000 17.8850
" />
<path d="M2.8450 17.8850
L2.8450 1.6840
" />
<path d="M2.8450 17.9070
L2.8450 17.8850
" />
<path d="M2.8450 17.9300
L2.8450 17.9070
" />
<path d="M2.8450 17.9510
L2.8450 17.9300
" />
<path d="M2.8450 17.9720
L2.8450 17.9510
" />
<path d="M2.8450 17.9910
L2.8450 17.9720
" />
<path d="M2.8450 18.0100
L2.8450 17.9910
" />
<path d="M2.8450 18.0260
L2.8450 18.0100
" />
<path d="M2.8450 18.0410
L2.8450 18.0260
" />
<path d="M2.8450 18.0540
L2.8450 18.0410
" />
<path d="M2.8450 18.0650
L2.8450 18.0540
" />
<path d="M2.8450 18.0740
L2.8450 18.0650
" />
<path d="M2.8450 18.0800
L2.8450 18.0740
" />
<path d="M2.8450 18.0840
L2.8450 18.0800
" />
<path d="M2.8450 18.0850
L2.8450 18.0840
" />
<path d="M2.8450 18.0850
L2.8470 18.0850
" />
<path d="M2.8450 18.2650
L2.7450 18.2650
" />
<path d="M2.8450 18.2650
L2.8450 18.3850
" />
<path d="M2.8450 18.3850
L2.8450 18.0850
" />
<path d="M2.8450 18.3850
L3.1950 18.3850
" />
<path d="M2.8470 18.0850
L2.8540 18.0850
" />
<path d="M2.8470 18.3850
L2.8450 18.3850
" />
<path d="M2.8540 18.0850
L2.8650 18.0850
" />
<path d="M2.8540 18.3850
L2.8470 18.3850
" />
<path d="M2.8650 18.0850
L2.8800 18.0850
" />
<path d="M2.8650 18.3850
L2.8540 18.3850
" />
<path d="M2.8800 18.0850
L2.8990 18.0850
" />
<path d="M2.8800 18.3850
L2.8650 18.3850
" />
<path d="M2.8990 18.0850
L2.9210 18.0850
" />
<path d="M2.8990 18.3850
L2.8800 18.3850
" />
<path d="M2.9210 18.0850
L2.9480 18.0850
" />
<path d="M2.9210 18.3850
L2.8990 18.3850
" />
<path d="M2.9480 18.0850
L2.9770 18.0850
" />
<path d="M2.9480 18.3850
L2.9210 18.3850
" />
<path d="M2.9770 18.0850
L3.0090 18.0850
" />
<path d="M2.9770 18.3850
L2.9480 18.3850
" />
<path d="M3.0090 18.0850
L3.0430 18.0850
" />
<path d="M3.0090 18.3850
L2.9770 18.3850
" />
<path d="M3.0430 18.0850
L3.0790 18.0850
" />
<path d="M3.0430 18.3850
L3.0090 18.3850
" />
<path d="M3.0790 18.0850
L3.1170 18.0850
" />
<path d="M3.0790 18.3850
L3.0430 18.3850
" />
<path d="M3.1170 18.0850
L3.1560 18.0850
" />
<path d="M3.1170 18.3850
L3.0790 18.3850
" />
<path d="M3.1560 18.0850
L3.1950 18.0850
" />
<path d="M3.1560 18.3850
L3.1170 18.3850
" />
<path d="M3.1950 1.7850
L2.3910 1.5350
" />
<path d="M3.1950 18.0850
L3.1950 18.3850
" />
<path d="M3.1950 18.3850
L3.1560 18.3850
" />
<path d="M3.2950 1.6850
L3.1950 1.7850
" />
<path d="M4.4450 12.0100
L4.4490 11.9660
" />
<path d="M4.4450 12.1100
L4.4450 12.0100
" />
<path d="M4.4450 12.1100
L5.0570 17.3340
" />
<path d="M4.4490 11.9660
L4.4610 11.9230
" />
<path d="M4.4610 11.9230
L4.4800 11.8830
" />
<path d="M4.4800 11.8830
L4.5060 11.8470
" />
<path d="M4.5060 11.8470
L4.5380 11.8160
" />
<path d="M4.5380 11.8160
L4.5740 11.7910
" />
<path d="M4.5740 11.7910
L4.6150 11.7730
" />
<path d="M4.6150 11.7730
L4.6580 11.7630
" />
<path d="M4.6580 11.7630
L4.7030 11.7600
" />
<path d="M4.7030 11.7600
L4.7470 11.7650
" />
<path d="M4.7470 11.7650
L4.7890 11.7780
" />
<path d="M4.7890 11.7780
L4.8290 11.7990
" />
<path d="M4.8290 11.7990
L4.8640 11.8260
" />
<path d="M4.8640 11.8260
L4.8940 11.8590
" />
<path d="M4.8940 11.8590
L4.9180 11.8960
" />
<path d="M4.9180 11.8960
L4.9340 11.9370
" />
<path d="M4.9340 11.9370
L4.9430 11.9810
" />
<path d="M4.9580 12.1100
L4.9430 11.9810
" />
<path d="M4.9580 12.1100
L4.9700 12.2110
" />
<path d="M4.9700 12.2110
L4.9580 12.1100
" />
<path d="M4.9700 12.2110
L7.0200 12.2110
" />
<path d="M5.0650 17.3740
L5.0570 17.3340
" />
<path d="M5.0790 17.4110
L5.0650 17.3740
" />
<path d="M5.0990 17.4460
L5.0790 17.4110
" />
<path d="M5.1240 17.4780
L5.0990 17.4460
" />
<path d="M5.1540 17.5050
L5.1240 17.4780
" />
<path d="M5.1890 17.5260
L5.1540 17.5050
" />
<path d="M5.2260 17.5420
L5.1890 17.5260
" />
<path d="M5.2650 17.5520
L5.2260 17.5420
" />
<path d="M5.2840 14.8910
L4.9700 12.2110
" />
<path d="M5.2840 14.8910
L6.7060 14.8910
" />
<path d="M5.2920 14.9620
L5.2840 14.8910
" />
<path d="M5.3010 15.0350
L5.2920 14.9620
" />
<path d="M5.3050 17.5550
L5.2650 17.5520
" />
<path d="M5.3050 17.5550
L6.6850 17.5550
" />
<path d="M5.3180 15.1830
L5.3010 15.0350
" />
<path d="M5.3260 15.2520
L5.3180 15.1830
" />
<path d="M5.3340 15.3140
L5.3260 15.2520
" />
<path d="M5.3370 15.3420
L5.3340 15.3140
" />
<path d="M5.3400 15.3680
L5.3370 15.3420
" />
<path d="M5.3430 15.3920
L5.3400 15.3680
" />
<path d="M5.3450 15.4130
L5.3430 15.3920
" />
<path d="M5.3450 15.4130
L6.6450 15.4130
" />
<path d="M5.3760 15.6790
L5.3450 15.4130
" />
<path d="M5.3760 15.6790
L6.6140 15.6790
" />
<path d="M5.4050 15.9250
L5.3450 15.4130
" />
<path d="M5.4050 15.9250
L6.5850 15.9250
" />
<path d="M6.6450 15.4130
L6.6140 15.6790
" />
<path d="M6.6470 15.3920
L6.6450 15.4130
" />
<path d="M6.6500 15.3680
L6.6470 15.3920
" />
<path d="M6.6530 15.3420
L6.6500 15.3680
" />
<path d="M6.6560 15.3140
L6.6530 15.3420
" />
<path d="M6.6640 15.2520
L6.6560 15.3140
" />
<path d="M6.6720 15.1830
L6.6640 15.2520
" />
<path d="M6.6890 15.0350
L6.6720 15.1830
" />
<path d="M6.6980 14.9620
L6.6890 15.0350
" />
<path d="M6.7060 14.8910
L6.5850 15.9250
" />
<path d="M6.7060 14.8910
L6.6450 15.4130
" />
<path d="M6.7060 14.8910
L6.6980 14.9620
" />
<path d="M6.7250 17.5520
L6.6850 17.5550
" />
<path d="M6.7640 17.5420
L6.7250 17.5520
" />
<path d="M6.8010 17.5260
L6.7640 17.5420
" />
<path d="M6.8360 17.5050
L6.8010 17.5260
" />
<path d="M6.8660 17.4780
L6.8360 17.5050
" />
<path d="M6.8910 17.4460
L6.8660 17.4780
" />
<path d="M6.9110 17.4110
L6.8910 17.4460
" />
<path d="M6.9250 17.3740
L6.9110 17.4110
" />
<path d="M6.9330 17.3340
L6.9250 17.3740
" />
<path d="M6.9330 17.3340
L7.5450 12.1100
" />
<path d="M6.9860 12.1100
L4.9580 12.1100
" />
<path d="M6.9860 12.1100
L7.0720 11.8960
" />
<path d="M7.0200 12.2110
L6.7060 14.8910
" />
<path d="M7.0320 12.1100
L7.0200 12.2110
" />
<path d="M7.0470 11.9810
L7.0320 12.1100
" />
<path d="M7.0470 11.9810
L7.0560 11.9370
" />
<path d="M7.0720 11.8960
L7.0960 11.8590
" />
<path d="M7.0960 11.8590
L7.1260 11.8260
" />
<path d="M7.1260 11.8260
L7.1610 11.7990
" />
<path d="M7.1610 11.7990
L7.2010 11.7780
" />
<path d="M7.2010 11.7780
L7.2430 11.7650
" />
<path d="M7.2430 11.7650
L7.2870 11.7600
" />
<path d="M7.2870 11.7600
L7.3320 11.7630
" />
<path d="M7.3320 11.7630
L7.3750 11.7730
" />
<path d="M7.3750 11.7730
L7.4160 11.7910
" />
<path d="M7.4160 11.7910
L7.4520 11.8160
" />
<path d="M7.4520 11.8160
L7.4840 11.8470
" />
<path d="M7.4840 11.8470
L7.5100 11.8830
" />
<path d="M7.5100 11.8830
L7.5290 11.9230
" />
<path d="M7.5290 11.9230
L7.5410 11.9660
" />
<path d="M7.5410 11.9660
L7.5450 12.0100
" />
<path d="M7.5450 12.1100
L7.5450 12.0100
" />
<path d="M10.4450 12.1100
L10.4450 12.0100
" />
<path d="M10.4490 11.9660
L10.4450 12.0100
" />
<path d="M10.4610 11.9230
L10.4490 11.9660
" />
<path d="M10.4800 11.8830
L10.4610 11.9230
" />
<path d="M10.5060 11.8470
L10.4800 11.8830
" />
<path d="M10.5380 11.8160
L10.5060 11.8470
" />
<path d="M10.5740 11.7910
L10.5380 11.8160
" />
<path d="M10.6150 11.7730
L10.5740 11.7910
" />
<path d="M10.6580 11.7630
L10.6150 11.7730
" />
<path d="M10.7030 11.7600
L10.6580 11.7630
" />
<path d="M10.7470 11.7650
L10.7030 11.7600
" />
<path d="M10.7890 11.7780
L10.7470 11.7650
" />
<path d="M10.8290 11.7990
L10.7890 11.7780
" />
<path d="M10.8640 11.8260
L10.8290 11.7990
" />
<path d="M10.8940 11.8590
L10.8640 11.8260
" />
<path d="M10.9180 11.8960
L10.8940 11.8590
" />
<path d="M10.9340 11.9370
L10.9180 11.8960
" />
<path d="M10.9430 11.9810
L10.9340 11.9370
" />
<path d="M10.9430 11.9810
L10.9580 12.1100
" />
<path d="M10.9580 12.1100
L10.9700 12.2110
" />
<path d="M10.9580 12.1100
L10.9700 12.2110
" />
<path d="M10.9580 12.1100
L13.0320 12.1100
" />
<path d="M10.9700 12.2110
L11.2840 14.8910
" />
<path d="M11.0570 17.3340
L10.4450 12.1100
" />
<path d="M11.0570 17.3340
L11.0650 17.3740
" />
<path d="M11.0650 17.3740
L11.0790 17.4110
" />
<path d="M11.0790 17.4110
L11.0990 17.4460
" />
<path d="M11.0990 17.4460
L11.1240 17.4780
" />
<path d="M11.1240 17.4780
L11.1540 17.5050
" />
<path d="M11.1540 17.5050
L11.1890 17.5260
" />
<path d="M11.1890 17.5260
L11.2260 17.5420
" />
<path d="M11.2260 17.5420
L11.2650 17.5520
" />
<path d="M11.2650 17.5520
L11.3050 17.5550
" />
<path d="M11.2840 14.8910
L11.2920 14.9620
" />
<path d="M11.2920 14.9620
L11.3010 15.0350
" />
<path d="M11.3010 15.0350
L11.3180 15.1830
" />
<path d="M11.3180 15.1830
L11.3260 15.2520
" />
<path d="M11.3260 15.2520
L11.3340 15.3140
" />
<path d="M11.3340 15.3140
L11.3370 15.3420
" />
<path d="M11.3370 15.3420
L11.3400 15.3680
" />
<path d="M11.3400 15.3680
L11.3430 15.3920
" />
<path d="M11.3430 15.3920
L11.3450 15.4130
" />
<path d="M11.3450 15.4130
L11.2840 14.8910
" />
<path d="M11.3450 15.4130
L11.3760 15.6790
" />
<path d="M11.3760 15.6790
L11.4050 15.9250
" />
<path d="M12.5850 15.9250
L11.4050 15.9250
" />
<path d="M12.5850 15.9250
L12.6450 15.4130
" />
<path d="M12.6140 15.6790
L11.3760 15.6790
" />
<path d="M12.6140 15.6790
L12.6450 15.4130
" />
<path d="M12.6450 15.4130
L11.3450 15.4130
" />
<path d="M12.6450 15.4130
L12.6470 15.3920
" />
<path d="M12.6470 15.3920
L12.6500 15.3680
" />
<path d="M12.6500 15.3680
L12.6530 15.3420
" />
<path d="M12.6530 15.3420
L12.6560 15.3140
" />
<path d="M12.6560 15.3140
L12.6640 15.2520
" />
<path d="M12.6640 15.2520
L12.6720 15.1830
" />
<path d="M12.6720 15.1830
L12.6890 15.0350
" />
<path d="M12.6850 17.5550
L11.3050 17.5550
" />
<path d="M12.6850 17.5550
L12.7250 17.5520
" />
<path d="M12.6890 15.0350
L12.6980 14.9620
" />
<path d="M12.6980 14.9620
L12.7060 14.8910
" />
<path d="M12.7060 14.8910
L11.2840 14.8910
" />
<path d="M12.7060 14.8910
L13.0200 12.2110
" />
<path d="M12.7250 17.5520
L12.7640 17.5420
" />
<path d="M12.7640 17.5420
L12.8010 17.5260
" />
<path d="M12.8010 17.5260
L12.8360 17.5050
" />
<path d="M12.8360 17.5050
L12.8660 17.4780
" />
<path d="M12.8660 17.4780
L12.8910 17.4460
" />
<path d="M12.8910 17.4460
L12.9110 17.4110
" />
<path d="M12.9110 17.4110
L12.9250 17.3740
" />
<path d="M12.9250 17.3740
L12.9330 17.3340
" />
<path d="M13.0200 12.2110
L10.9700 12.2110
" />
<path d="M13.0200 12.2110
L13.0320 12.1100
" />
<path d="M13.0200 12.2110
L13.0320 12.1100
" />
<path d="M13.0320 12.1100
L13.0470 11.9810
" />
<path d="M13.0560 11.9370
L13.0470 11.9810
" />
<path d="M13.0720 11.8960
L13.0560 11.9370
" />
<path d="M13.0960 11.8590
L13.0720 11.8960
" />
<path d="M13.1260 11.8260
L13.0960 11.8590
" />
<path d="M13.1610 11.7990
L13.1260 11.8260
" />
<path d="M13.2010 11.7780
L13.1610 11.7990
" />
<path d="M13.2430 11.7650
L13.2010 11.7780
" />
<path d="M13.2870 11.7600
L13.2430 11.7650
" />
<path d="M13.3320 11.7630
L13.2870 11.7600
" />
<path d="M13.3750 11.7730
L13.3320 11.7630
" />
<path d="M13.4160 11.7910
L13.3750 11.7730
" />
<path d="M13.4520 11.8160
L13.4160 11.7910
" />
<path d="M13.4840 11.8470
L13.4520 11.8160
" />
<path d="M13.5100 11.8830
L13.4840 11.8470
" />
<path d="M13.5290 11.9230
L13.5100 11.8830
" />
<path d="M13.5410 11.9660
L13.5290 11.9230
" />
<path d="M13.5450 12.0100
L13.5410 11.9660
" />
<path d="M13.5450 12.1100
L12.9330 17.3340
" />
<path d="M13.5450 12.1100
L13.5450 12.0100
" />
<path d="M14.6950 1.6850
L3.2950 1.6850
" />
<path d="M14.7950 1.7850
L14.6950 1.6850
" />
<path d="M14.7950 17.8850
L2.8450 17.8850
" />
<path d="M14.7950 18.0850
L3.1950 18.0850
" />
<path d="M14.7950 18.0850
L14.8340 18.0850
" />
<path d="M14.7950 18.2650
L14.7950 17.8850
" />
<path d="M14.7950 18.3850
L3.1950 18.3850
" />
<path d="M14.8340 18.0850
L14.8730 18.0850
" />
<path d="M14.8340 18.3850
L14.7950 18.3850
" />
<path d="M14.8730 18.0850
L14.9110 18.0850
" />
<path d="M14.8730 18.3850
L14.8340 18.3850
" />
<path d="M14.9110 18.0850
L14.9470 18.0850
" />
<path d="M14.9110 18.3850
L14.8730 18.3850
" />
<path d="M14.9470 18.0850
L14.9810 18.0850
" />
<path d="M14.9470 18.3850
L14.9110 18.3850
" />
<path d="M14.9810 18.0850
L15.0130 18.0850
" />
<path d="M14.9810 18.3850
L14.9470 18.3850
" />
<path d="M15.0130 18.0850
L15.0420 18.0850
" />
<path d="M15.0130 18.3850
L14.9810 18.3850
" />
<path d="M15.0420 18.0850
L15.0690 18.0850
" />
<path d="M15.0420 18.3850
L15.0130 18.3850
" />
<path d="M15.0690 18.0850
L15.0910 18.0850
" />
<path d="M15.0690 18.3850
L15.0420 18.3850
" />
<path d="M15.0910 18.0850
L15.1100 18.0850
" />
<path d="M15.0910 18.3850
L15.0690 18.3850
" />
<path d="M15.1100 18.0850
L15.1250 18.0850
" />
<path d="M15.1100 18.3850
L15.0910 18.3850
" />
<path d="M15.1250 18.0850
L15.1360 18.0850
" />
<path d="M15.1250 18.3850
L15.1100 18.3850
" />
<path d="M15.1360 18.0850
L15.1430 18.0850
" />
<path d="M15.1360 18.3850
L15.1250 18.3850
" />
<path d="M15.1430 18.0850
L15.1450 18.0850
" />
<path d="M15.1430 18.3850
L15.1360 18.3850
" />
<path d="M15.1450 1.7850
L2.8450 1.7850
" />
<path d="M15.1450 17.8850
L15.1450 1.7850
" />
<path d="M15.1450 17.8850
L15.1900 17.8850
" />
<path d="M15.1450 17.9070
L15.1450 17.8850
" />
<path d="M15.1450 17.9300
L15.1450 17.9070
" />
<path d="M15.1450 17.9510
L15.1450 17.9300
" />
<path d="M15.1450 17.9720
L15.1450 17.9510
" />
<path d="M15.1450 17.9910
L15.1450 17.9720
" />
<path d="M15.1450 18.0100
L15.1450 17.9910
" />
<path d="M15.1450 18.0260
L15.1450 18.0100
" />
<path d="M15.1450 18.0410
L15.1450 18.0260
" />
<path d="M15.1450 18.0540
L15.1450 18.0410
" />
<path d="M15.1450 18.0650
L15.1450 18.0540
" />
<path d="M15.1450 18.0740
L15.1450 18.0650
" />
<path d="M15.1450 18.0800
L15.1450 18.0740
" />
<path d="M15.1450 18.0840
L15.1450 18.0800
" />
<path d="M15.1450 18.0850
L15.1450 18.0840
" />
<path d="M15.1450 18.0850
L15.1450 18.3850
" />
<path d="M15.1450 18.0850
L15.2450 18.0960
" />
<path d="M15.1450 18.3850
L15.1430 18.3850
" />
<path d="M15.1740 1.3850
L2.8160 1.3850
" />
<path d="M15.1740 1.3850
L15.1740 1.3880
" />
<path d="M15.1740 1.3880
L15.1740 1.3950
" />
<path d="M15.1740 1.3950
L15.1740 1.4070
" />
<path d="M15.1740 1.4070
L15.1740 1.4250
" />
<path d="M15.1740 1.4250
L15.1740 1.4460
" />
<path d="M15.1740 1.4460
L15.1740 1.4720
" />
<path d="M15.1740 1.4720
L15.1740 1.5020
" />
<path d="M15.1740 1.5020
L15.1740 1.5360
" />
<path d="M15.1740 1.5360
L15.1740 1.5720
" />
<path d="M15.1740 1.5720
L15.1740 1.6110
" />
<path d="M15.1740 1.6110
L15.1740 1.6530
" />
<path d="M15.1740 1.6530
L15.1740 1.6960
" />
<path d="M15.1740 1.6850
L15.2450 1.3850
" />
<path d="M15.1740 1.6960
L15.1740 1.7400
" />
<path d="M15.1740 1.7400
L15.1740 1.7850
" />
<path d="M15.1740 1.7850
L15.1450 1.7850
" />
<path d="M15.1900 1.7850
L15.1450 1.7850
" />
<path d="M15.1900 17.8850
L15.2340 17.8850
" />
<path d="M15.2100 1.6870
L15.1740 1.6850
" />
<path d="M15.2340 1.7850
L15.1900 1.7850
" />
<path d="M15.2340 17.8850
L15.2770 17.8850
" />
<path d="M15.2450 1.3850
L15.5450 1.3850
" />
<path d="M15.2450 1.3890
L15.1740 1.3850
" />
<path d="M15.2450 1.3890
L15.2450 1.6920
" />
<path d="M15.2450 1.6920
L15.2100 1.6870
" />
<path d="M15.2450 17.8850
L15.2450 17.9320
" />
<path d="M15.2450 17.8850
L15.2490 17.9450
" />
<path d="M15.2450 17.9320
L15.2450 17.9770
" />
<path d="M15.2450 17.9770
L15.2450 18.0190
" />
<path d="M15.2450 18.0190
L15.2450 18.0590
" />
<path d="M15.2450 18.0590
L15.2450 18.0960
" />
<path d="M15.2450 18.0960
L15.2450 18.1300
" />
<path d="M15.2450 18.1300
L15.2450 18.1610
" />
<path d="M15.2450 18.1610
L15.2450 18.1880
" />
<path d="M15.2450 18.1880
L15.2450 18.2110
" />
<path d="M15.2450 18.2110
L15.2450 18.2300
" />
<path d="M15.2450 18.2300
L15.2450 18.2450
" />
<path d="M15.2450 18.2450
L15.2450 18.2560
" />
<path d="M15.2450 18.2560
L15.2450 18.2630
" />
<path d="M15.2450 18.2630
L15.2450 18.2650
" />
<path d="M15.2450 18.2650
L14.7950 18.2650
" />
<path d="M15.2490 17.9450
L15.2600 18.0050
" />
<path d="M15.2600 18.0050
L15.2770 18.0620
" />
<path d="M15.2770 1.7850
L15.2340 1.7850
" />
<path d="M15.2770 17.8850
L15.3190 17.8850
" />
<path d="M15.2770 18.0620
L15.3020 18.1170
" />
<path d="M15.3020 18.1170
L15.3340 18.1690
" />
<path d="M15.3190 1.7850
L15.2770 1.7850
" />
<path d="M15.3190 17.8850
L15.3580 17.8850
" />
<path d="M15.3340 18.1690
L15.3710 18.2170
" />
<path d="M15.3580 1.7850
L15.3190 1.7850
" />
<path d="M15.3580 17.8850
L15.3940 17.8850
" />
<path d="M15.3710 18.2170
L15.4130 18.2590
" />
<path d="M15.3940 1.7850
L15.3580 1.7850
" />
<path d="M15.3940 17.8850
L15.4280 17.8850
" />
<path d="M15.4130 18.2590
L15.4610 18.2960
" />
<path d="M15.4280 1.7850
L15.3940 1.7850
" />
<path d="M15.4280 17.8850
L15.4580 17.8850
" />
<path d="M15.4580 1.7850
L15.4280 1.7850
" />
<path d="M15.4580 17.8850
L15.4840 17.8850
" />
<path d="M15.4610 18.2960
L15.5130 18.3280
" />
<path d="M15.4840 1.7850
L15.4580 1.7850
" />
<path d="M15.4840 17.8850
L15.5050 17.8850
" />
<path d="M15.5050 1.7850
L15.4840 1.7850
" />
<path d="M15.5050 17.8850
L15.5230 17.8850
" />
<path d="M15.5130 18.3280
L15.5680 18.3530
" />
<path d="M15.5230 1.7850
L15.5050 1.7850
" />
<path d="M15.5230 17.8850
L15.5350 17.8850
" />
<path d="M15.5350 1.7850
L15.5230 1.7850
" />
<path d="M15.5350 17.8850
L15.5420 17.8850
" />
<path d="M15.5420 1.7850
L15.5350 1.7850
" />
<path d="M15.5420 17.8850
L15.5450 17.8850
" />
<path d="M15.5450 1.3850
L15.5450 1.7850
" />
<path d="M15.5450 1.3970
L15.5500 1.4050
" />
<path d="M15.5450 1.7850
L15.5420 1.7850
" />
<path d="M15.5450 1.7850
L15.5450 17.8850
" />
<path d="M15.5450 1.7850
L15.7340 1.6820
" />
<path d="M15.5450 2.0030
L15.7340 1.6820
" />
<path d="M15.5450 3.4630
L15.5810 3.4490
" />
<path d="M15.5450 7.0770
L15.5470 7.0800
" />
<path d="M15.5450 9.1430
L15.5810 9.1290
" />
<path d="M15.5450 17.8850
L15.2450 18.0960
" />
<path d="M15.5450 17.8850
L15.5490 17.9240
" />
<path d="M15.5470 1.4000
L15.5540 1.4040
" />
<path d="M15.5470 3.4600
L15.5450 3.4630
" />
<path d="M15.5470 7.0800
L15.5540 7.0840
" />
<path d="M15.5470 9.1400
L15.5450 9.1430
" />
<path d="M15.5480 2.0320
L15.5450 2.0030
" />
<path d="M15.5490 2.0600
L15.5480 2.0320
" />
<path d="M15.5490 2.5850
L15.5490 2.0600
" />
<path d="M15.5490 17.9240
L15.5600 17.9620
" />
<path d="M15.5500 1.4050
L16.7000 1.6070
" />
<path d="M15.5540 1.4040
L15.5810 1.4110
" />
<path d="M15.5540 3.4560
L15.5470 3.4600
" />
<path d="M15.5540 7.0840
L15.5810 7.0910
" />
<path d="M15.5540 9.1360
L15.5470 9.1400
" />
<path d="M15.5600 17.9620
L15.5790 17.9960
" />
<path d="M15.5680 18.3530
L15.6250 18.3700
" />
<path d="M15.5790 17.9960
L15.6040 18.0260
" />
<path d="M15.5810 1.4110
L15.5810 1.5220
" />
<path d="M15.5810 1.5220
L15.5450 1.4960
" />
<path d="M15.5810 2.5850
L15.5810 3.4490
" />
<path d="M15.5810 3.4490
L15.5540 3.4560
" />
<path d="M15.5810 7.0910
L15.5470 7.0800
" />
<path d="M15.5810 7.0910
L15.5810 9.1290
" />
<path d="M15.5810 7.0910
L16.7000 7.2870
" />
<path d="M15.5810 9.1290
L15.5540 9.1360
" />
<path d="M15.6040 18.0260
L15.6340 18.0510
" />
<path d="M15.6250 18.3700
L15.6850 18.3810
" />
<path d="M15.6340 18.0510
L15.6680 18.0700
" />
<path d="M15.6490 1.5800
L15.5990 1.5350
" />
<path d="M15.6680 18.0700
L15.7060 18.0810
" />
<path d="M15.6850 18.3810
L15.7450 18.3850
" />
<path d="M15.6940 1.6290
L15.6490 1.5800
" />
<path d="M15.7060 18.0810
L15.7450 18.0850
" />
<path d="M15.7340 1.6820
L15.6940 1.6290
" />
<path d="M15.7680 1.7400
L15.7340 1.6820
" />
<path d="M15.7970 1.8000
L15.7680 1.7400
" />
<path d="M15.8200 1.8630
L15.7970 1.8000
" />
<path d="M15.8360 1.9270
L15.8200 1.8630
" />
<path d="M15.8460 1.9930
L15.8360 1.9270
" />
<path d="M15.8490 2.0600
L15.8460 1.9930
" />
<path d="M15.8490 2.5850
L15.5490 2.5850
" />
<path d="M15.8490 2.5850
L15.8490 2.0600
" />
<path d="M16.1450 18.0850
L15.7450 18.0850
" />
<path d="M16.1450 18.0850
L16.1840 18.0850
" />
<path d="M16.1450 18.3850
L15.7450 18.3850
" />
<path d="M16.1450 18.3850
L16.1450 18.0850
" />
<path d="M16.1840 18.0850
L16.2230 18.0850
" />
<path d="M16.1840 18.3850
L16.1450 18.3850
" />
<path d="M16.2230 18.0850
L16.2610 18.0850
" />
<path d="M16.2230 18.3850
L16.1840 18.3850
" />
<path d="M16.2610 18.0850
L16.2970 18.0850
" />
<path d="M16.2610 18.3850
L16.2230 18.3850
" />
<path d="M16.2970 18.0850
L16.3310 18.0850
" />
<path d="M16.2970 18.3850
L16.2610 18.3850
" />
<path d="M16.3310 18.0850
L16.3630 18.0850
" />
<path d="M16.3310 18.3850
L16.2970 18.3850
" />
<path d="M16.3630 18.0850
L16.3920 18.0850
" />
<path d="M16.3630 18.3850
L16.3310 18.3850
" />
<path d="M16.3920 18.0850
L16.4190 18.0850
" />
<path d="M16.3920 18.3850
L16.3630 18.3850
" />
<path d="M16.4190 18.0850
L16.4410 18.0850
" />
<path d="M16.4190 18.3850
L16.3920 18.3850
" />
<path d="M16.4410 18.0850
L16.4600 18.0850
" />
<path d="M16.4410 18.3850
L16.4190 18.3850
" />
<path d="M16.4600 18.0850
L16.4750 18.0850
" />
<path d="M16.4600 18.3850
L16.4410 18.3850
" />
<path d="M16.4750 18.0850
L16.4860 18.0850
" />
<path d="M16.4750 18.3850
L16.4600 18.3850
" />
<path d="M16.4860 18.0850
L16.4930 18.0850
" />
<path d="M16.4860 18.3850
L16.4750 18.3850
" />
<path d="M16.4930 18.0850
L16.4950 18.0850
" />
<path d="M16.4930 18.3850
L16.4860 18.3850
" />
<path d="M16.4950 18.0850
L16.4950 18.3850
" />
<path d="M16.4950 18.3850
L16.4930 18.3850
" />
<path d="M16.7000 1.6070
L16.7000 3.2530
" />
<path d="M16.7000 1.6070
L16.7680 1.6210
" />
<path d="M16.7000 3.2530
L15.5810 3.4490
" />
<path d="M16.7000 7.2870
L16.7000 8.9330
" />
<path d="M16.7000 7.2870
L16.7680 7.3010
" />
<path d="M16.7000 8.9330
L15.5810 9.1290
" />
<path d="M16.7680 1.6210
L16.8190 1.6370
" />
<path d="M16.7680 3.2390
L16.7000 3.2530
" />
<path d="M16.7680 7.3010
L16.8190 7.3170
" />
<path d="M16.7680 8.9190
L16.7000 8.9330
" />
<path d="M16.8190 1.6370
L16.8370 1.6450
" />
<path d="M16.8190 3.2230
L16.7680 3.2390
" />
<path d="M16.8190 7.3170
L16.8370 7.3250
" />
<path d="M16.8190 8.9030
L16.7680 8.9190
" />
<path d="M16.8370 1.6450
L16.8500 1.6530
" />
<path d="M16.8370 3.2150
L16.8190 3.2230
" />
<path d="M16.8370 7.3250
L16.8500 7.3330
" />
<path d="M16.8370 8.8950
L16.8190 8.9030
" />
<path d="M16.8500 1.6530
L16.8570 1.6610
" />
<path d="M16.8500 3.2070
L16.8370 3.2150
" />
<path d="M16.8500 7.3330
L16.8570 7.3410
" />
<path d="M16.8500 8.8870
L16.8370 8.8950
" />
<path d="M16.8570 1.6610
L16.8600 1.6690
" />
<path d="M16.8570 3.1990
L16.8500 3.2070
" />
<path d="M16.8570 7.3410
L16.8600 7.3490
" />
<path d="M16.8570 8.8790
L16.8500 8.8870
" />
<path d="M16.8600 1.6690
L16.8600 3.1910
" />
<path d="M16.8600 3.1910
L16.8570 3.1990
" />
<path d="M16.8600 7.3490
L16.8600 8.8710
" />
<path d="M16.8600 8.8710
L16.8570 8.8790
" />
</g> 
</svg>
