<?xml version="1.0" standalone="no"?>
 <!DOCTYPE svg PUBLIC "-//W3C//DTD SVG 1.1//EN" 
 "http://www.w3.org/Graphics/SVG/1.1/DTD/svg11.dtd"> 
<svg
  xmlns:svg="http://www.w3.org/2000/svg"
  xmlns="http://www.w3.org/2000/svg"
  xmlns:xlink="http://www.w3.org/1999/xlink"
  version="1.1"
  width="5.0800mm" height="3.8354mm" viewBox="0.0000 0.0000 5.0800 3.8354">
<title>SVG Image created as outline.svg date 2025/06/16 09:18:01 </title>
  <desc>Image generated by PCBNEW </desc>
<g style="fill:#000000; fill-opacity:1.0000;stroke:#000000; stroke-opacity:1.0000;
stroke-linecap:round; stroke-linejoin:round;"
 transform="translate(0 0) scale(1 1)">
</g>
<g style="fill:none; 
stroke:#000000; stroke-width:0.0200; stroke-opacity:1; 
stroke-linecap:round; stroke-linejoin:round;">
<path d="M0.6700 1.4200
L0.6710 1.4200
" />
<path d="M0.6700 2.4360
L0.6700 1.4200
" />
<path d="M0.6700 2.5880
L0.6700 2.4360
" />
<path d="M0.6700 2.5880
L0.6710 2.5880
" />
</g>
<g style="fill:#000000; fill-opacity:1.0000; stroke:none;">
<circle cx="0.6710" cy="1.4190" r="0.0100" /> 
<circle cx="0.6710" cy="1.4190" r="0.0100" /> 
</g>
<g style="fill:none; 
stroke:#000000; stroke-width:0.0200; stroke-opacity:1; 
stroke-linecap:round; stroke-linejoin:round;">
<path d="M0.6710 1.4190
L0.6720 1.4190
" />
<path d="M0.6710 1.4200
L0.6710 1.4190
" />
</g>
<g style="fill:#000000; fill-opacity:1.0000; stroke:none;">
<circle cx="0.6710" cy="1.4200" r="0.0100" /> 
<circle cx="0.6710" cy="1.4200" r="0.0100" /> 
<circle cx="0.6710" cy="1.4200" r="0.0100" /> 
</g>
<g style="fill:none; 
stroke:#000000; stroke-width:0.0200; stroke-opacity:1; 
stroke-linecap:round; stroke-linejoin:round;">
<path d="M0.6710 2.4350
L0.6700 2.4360
" />
</g>
<g style="fill:#000000; fill-opacity:1.0000; stroke:none;">
<circle cx="0.6710" cy="2.4350" r="0.0100" /> 
<circle cx="0.6710" cy="2.4350" r="0.0100" /> 
<circle cx="0.6710" cy="2.5880" r="0.0100" /> 
</g>
<g style="fill:none; 
stroke:#000000; stroke-width:0.0200; stroke-opacity:1; 
stroke-linecap:round; stroke-linejoin:round;">
<path d="M0.6710 2.5880
L0.6710 2.5890
" />
</g>
<g style="fill:#000000; fill-opacity:1.0000; stroke:none;">
<circle cx="0.6710" cy="2.5890" r="0.0100" /> 
<circle cx="0.6710" cy="2.5890" r="0.0100" /> 
<circle cx="0.6710" cy="2.5890" r="0.0100" /> 
<circle cx="0.6710" cy="2.5890" r="0.0100" /> 
</g>
<g style="fill:none; 
stroke:#000000; stroke-width:0.0200; stroke-opacity:1; 
stroke-linecap:round; stroke-linejoin:round;">
<path d="M0.6710 2.5890
L0.6720 2.5900
" />
</g>
<g style="fill:#000000; fill-opacity:1.0000; stroke:none;">
<circle cx="0.6720" cy="1.4190" r="0.0100" /> 
<circle cx="0.6720" cy="1.4190" r="0.0100" /> 
<circle cx="0.6720" cy="1.4190" r="0.0100" /> 
</g>
<g style="fill:none; 
stroke:#000000; stroke-width:0.0200; stroke-opacity:1; 
stroke-linecap:round; stroke-linejoin:round;">
<path d="M0.6720 1.4190
L0.6730 1.4190
" />
<path d="M0.6720 2.4340
L0.6710 2.4350
" />
</g>
<g style="fill:#000000; fill-opacity:1.0000; stroke:none;">
<circle cx="0.6720" cy="2.4340" r="0.0100" /> 
<circle cx="0.6720" cy="2.5900" r="0.0100" /> 
<circle cx="0.6720" cy="2.5900" r="0.0100" /> 
<circle cx="0.6720" cy="2.5900" r="0.0100" /> 
</g>
<g style="fill:none; 
stroke:#000000; stroke-width:0.0200; stroke-opacity:1; 
stroke-linecap:round; stroke-linejoin:round;">
<path d="M0.6720 2.5900
L0.6730 2.5900
" />
<path d="M0.6730 1.4180
L0.6740 1.4180
" />
<path d="M0.6730 1.4190
L0.6730 1.4180
" />
<path d="M0.6730 2.4340
L0.6720 2.4340
" />
<path d="M0.6730 2.5900
L0.6730 2.5910
" />
<path d="M0.6730 2.5910
L0.6740 2.5910
" />
</g>
<g style="fill:#000000; fill-opacity:1.0000; stroke:none;">
<circle cx="0.6740" cy="1.4180" r="0.0100" /> 
</g>
<g style="fill:none; 
stroke:#000000; stroke-width:0.0200; stroke-opacity:1; 
stroke-linecap:round; stroke-linejoin:round;">
<path d="M0.6740 1.4180
L0.6750 1.4180
" />
<path d="M0.6740 2.4330
L0.6730 2.4340
" />
</g>
<g style="fill:#000000; fill-opacity:1.0000; stroke:none;">
<circle cx="0.6740" cy="2.5910" r="0.0100" /> 
</g>
<g style="fill:none; 
stroke:#000000; stroke-width:0.0200; stroke-opacity:1; 
stroke-linecap:round; stroke-linejoin:round;">
<path d="M0.6740 2.5910
L0.6750 2.5910
" />
<path d="M0.6750 1.4180
L0.6760 1.4180
" />
<path d="M0.6750 2.4330
L0.6740 2.4330
" />
<path d="M0.6750 2.5910
L0.6760 2.5920
" />
<path d="M0.6760 1.4180
L0.6770 1.4180
" />
<path d="M0.6760 2.4330
L0.6750 2.4330
" />
<path d="M0.6760 2.5920
L0.6770 2.5920
" />
<path d="M0.6770 1.4180
L0.6780 1.4180
" />
<path d="M0.6770 2.4330
L0.6760 2.4330
" />
<path d="M0.6770 2.5920
L0.6780 2.5920
" />
<path d="M0.6780 1.4180
L0.6800 1.4180
" />
<path d="M0.6780 2.4330
L0.6770 2.4330
" />
<path d="M0.6780 2.5920
L0.6800 2.5930
" />
<path d="M0.6800 1.4180
L0.6810 1.4180
" />
<path d="M0.6800 2.4330
L0.6780 2.4330
" />
<path d="M0.6800 2.5930
L0.6810 2.5930
" />
<path d="M0.6810 1.4180
L0.6830 1.4180
" />
<path d="M0.6810 2.5930
L0.6830 2.5940
" />
<path d="M0.6830 1.4180
L0.6850 1.4180
" />
<path d="M0.6830 2.4330
L0.6800 2.4330
" />
<path d="M0.6830 2.5940
L0.6850 2.5940
" />
<path d="M0.6850 1.4180
L0.6870 1.4170
" />
<path d="M0.6850 2.5940
L0.6870 2.5940
" />
<path d="M0.6870 1.4170
L1.1780 1.4170
" />
<path d="M0.6870 2.4330
L0.6830 2.4330
" />
<path d="M0.6870 2.5940
L1.0510 2.6720
" />
<path d="M0.9240 0.5030
L0.7300 1.4170
" />
<path d="M1.0510 2.4370
L1.0520 2.4370
" />
<path d="M1.0510 2.6670
L1.0510 2.4370
" />
<path d="M1.0510 2.6720
L1.1780 2.6990
" />
</g>
<g style="fill:#000000; fill-opacity:1.0000; stroke:none;">
<circle cx="1.0520" cy="2.4360" r="0.0100" /> 
</g>
<g style="fill:none; 
stroke:#000000; stroke-width:0.0200; stroke-opacity:1; 
stroke-linecap:round; stroke-linejoin:round;">
<path d="M1.0520 2.4360
L1.0530 2.4360
" />
<path d="M1.0520 2.4370
L1.0520 2.4360
" />
<path d="M1.0520 2.6680
L1.0510 2.6670
" />
</g>
<g style="fill:#000000; fill-opacity:1.0000; stroke:none;">
<circle cx="1.0520" cy="2.6680" r="0.0100" /> 
</g>
<g style="fill:none; 
stroke:#000000; stroke-width:0.0200; stroke-opacity:1; 
stroke-linecap:round; stroke-linejoin:round;">
<path d="M1.0530 2.4360
L1.0560 2.4350
" />
<path d="M1.0540 2.6700
L1.0520 2.6680
" />
<path d="M1.0560 2.4350
L1.0600 2.4340
" />
<path d="M1.0570 2.6710
L1.0540 2.6700
" />
<path d="M1.0600 2.4340
L1.0640 2.4340
" />
<path d="M1.0610 2.6720
L1.0570 2.6710
" />
<path d="M1.0640 2.4340
L1.0700 2.4340
" />
<path d="M1.0700 2.4340
L1.0830 2.4330
" />
<path d="M1.0730 2.6760
L1.0610 2.6720
" />
<path d="M1.0830 2.4330
L1.1000 2.4330
" />
<path d="M1.0890 2.6800
L1.0730 2.6760
" />
<path d="M1.1000 2.4330
L1.1190 2.4330
" />
<path d="M1.1190 2.4330
L1.1620 2.4330
" />
<path d="M1.1300 2.6890
L1.0890 2.6800
" />
<path d="M1.1780 1.4170
L1.1580 1.4170
" />
<path d="M1.1780 2.4330
L0.6870 2.4330
" />
<path d="M1.1780 2.4330
L3.9720 2.4330
" />
<path d="M1.1780 2.6990
L1.1300 2.6890
" />
</g>
<g style="fill:#000000; fill-opacity:1.0000; stroke:none;">
<circle cx="1.1780" cy="2.6990" r="0.0100" /> 
</g>
<g style="fill:none; 
stroke:#000000; stroke-width:0.0200; stroke-opacity:1; 
stroke-linecap:round; stroke-linejoin:round;">
<path d="M1.1780 2.6990
L4.2260 3.3470
" />
<path d="M3.9720 1.1510
L0.9240 0.5030
" />
<path d="M3.9720 1.1510
L4.0200 1.1610
" />
<path d="M3.9720 1.4170
L1.1780 1.4170
" />
<path d="M3.9720 1.4170
L4.4630 1.4170
" />
<path d="M3.9720 2.4330
L3.9920 2.4330
" />
<path d="M4.0200 1.1610
L4.0610 1.1700
" />
<path d="M4.0300 1.4170
L3.9850 1.4170
" />
<path d="M4.0490 1.4170
L4.0300 1.4170
" />
<path d="M4.0610 1.1700
L4.0770 1.1740
" />
<path d="M4.0660 1.4170
L4.0490 1.4170
" />
<path d="M4.0770 1.1740
L4.0890 1.1780
" />
<path d="M4.0800 1.4160
L4.0660 1.4170
" />
<path d="M4.0850 1.4160
L4.0800 1.4160
" />
<path d="M4.0890 1.1780
L4.0930 1.1790
" />
<path d="M4.0900 1.4160
L4.0850 1.4160
" />
<path d="M4.0930 1.1790
L4.0960 1.1800
" />
<path d="M4.0940 1.4150
L4.0900 1.4160
" />
<path d="M4.0960 1.1800
L4.0980 1.1820
" />
<path d="M4.0970 1.4140
L4.0940 1.4150
" />
</g>
<g style="fill:#000000; fill-opacity:1.0000; stroke:none;">
<circle cx="4.0980" cy="1.1820" r="0.0100" /> 
</g>
<g style="fill:none; 
stroke:#000000; stroke-width:0.0200; stroke-opacity:1; 
stroke-linecap:round; stroke-linejoin:round;">
<path d="M4.0980 1.1820
L4.0990 1.1830
" />
<path d="M4.0980 1.4130
L4.0980 1.4140
" />
<path d="M4.0980 1.4140
L4.0970 1.4140
" />
</g>
<g style="fill:#000000; fill-opacity:1.0000; stroke:none;">
<circle cx="4.0980" cy="1.4140" r="0.0100" /> 
</g>
<g style="fill:none; 
stroke:#000000; stroke-width:0.0200; stroke-opacity:1; 
stroke-linecap:round; stroke-linejoin:round;">
<path d="M4.0990 1.1830
L4.0990 1.4130
" />
<path d="M4.0990 1.4130
L4.0980 1.4130
" />
<path d="M4.2260 3.3470
L4.4200 2.4330
" />
<path d="M4.4630 1.2560
L3.9720 1.1510
" />
<path d="M4.4630 1.4170
L4.4670 1.4170
" />
<path d="M4.4630 2.4330
L3.9720 2.4330
" />
<path d="M4.4650 1.2560
L4.4630 1.2560
" />
<path d="M4.4650 2.4320
L4.4630 2.4330
" />
<path d="M4.4670 1.2560
L4.4650 1.2560
" />
<path d="M4.4670 1.4170
L4.4700 1.4170
" />
<path d="M4.4670 2.4320
L4.4650 2.4320
" />
<path d="M4.4690 1.2570
L4.4670 1.2560
" />
<path d="M4.4690 2.4320
L4.4670 2.4320
" />
<path d="M4.4700 1.2570
L4.4690 1.2570
" />
<path d="M4.4700 1.4170
L4.4720 1.4170
" />
<path d="M4.4700 2.4320
L4.4690 2.4320
" />
<path d="M4.4720 1.2580
L4.4700 1.2570
" />
<path d="M4.4720 1.4170
L4.4730 1.4170
" />
<path d="M4.4720 2.4320
L4.4700 2.4320
" />
<path d="M4.4730 1.2580
L4.4720 1.2580
" />
<path d="M4.4730 1.4170
L4.4740 1.4170
" />
<path d="M4.4730 2.4320
L4.4720 2.4320
" />
<path d="M4.4740 1.2580
L4.4730 1.2580
" />
<path d="M4.4740 1.4170
L4.4750 1.4170
" />
<path d="M4.4740 2.4320
L4.4730 2.4320
" />
<path d="M4.4750 1.2590
L4.4740 1.2580
" />
<path d="M4.4750 1.4170
L4.4760 1.4170
" />
<path d="M4.4750 2.4320
L4.4740 2.4320
" />
<path d="M4.4760 1.2590
L4.4750 1.2590
" />
</g>
<g style="fill:#000000; fill-opacity:1.0000; stroke:none;">
<circle cx="4.4760" cy="1.2590" r="0.0100" /> 
</g>
<g style="fill:none; 
stroke:#000000; stroke-width:0.0200; stroke-opacity:1; 
stroke-linecap:round; stroke-linejoin:round;">
<path d="M4.4760 1.4170
L4.4770 1.4160
" />
<path d="M4.4760 2.4320
L4.4750 2.4320
" />
</g>
<g style="fill:#000000; fill-opacity:1.0000; stroke:none;">
<circle cx="4.4760" cy="2.4320" r="0.0100" /> 
</g>
<g style="fill:none; 
stroke:#000000; stroke-width:0.0200; stroke-opacity:1; 
stroke-linecap:round; stroke-linejoin:round;">
<path d="M4.4770 1.2590
L4.4760 1.2590
" />
<path d="M4.4770 1.2600
L4.4770 1.2590
" />
<path d="M4.4770 1.4160
L4.4780 1.4160
" />
<path d="M4.4770 2.4310
L4.4770 2.4320
" />
<path d="M4.4770 2.4320
L4.4760 2.4320
" />
<path d="M4.4780 1.2600
L4.4770 1.2600
" />
</g>
<g style="fill:#000000; fill-opacity:1.0000; stroke:none;">
<circle cx="4.4780" cy="1.2600" r="0.0100" /> 
<circle cx="4.4780" cy="1.2600" r="0.0100" /> 
<circle cx="4.4780" cy="1.2600" r="0.0100" /> 
<circle cx="4.4780" cy="1.4160" r="0.0100" /> 
</g>
<g style="fill:none; 
stroke:#000000; stroke-width:0.0200; stroke-opacity:1; 
stroke-linecap:round; stroke-linejoin:round;">
<path d="M4.4780 1.4160
L4.4790 1.4150
" />
<path d="M4.4780 2.4310
L4.4770 2.4310
" />
</g>
<g style="fill:#000000; fill-opacity:1.0000; stroke:none;">
<circle cx="4.4780" cy="2.4310" r="0.0100" /> 
<circle cx="4.4780" cy="2.4310" r="0.0100" /> 
<circle cx="4.4780" cy="2.4310" r="0.0100" /> 
</g>
<g style="fill:none; 
stroke:#000000; stroke-width:0.0200; stroke-opacity:1; 
stroke-linecap:round; stroke-linejoin:round;">
<path d="M4.4790 1.2610
L4.4780 1.2600
" />
</g>
<g style="fill:#000000; fill-opacity:1.0000; stroke:none;">
<circle cx="4.4790" cy="1.2610" r="0.0100" /> 
<circle cx="4.4790" cy="1.2610" r="0.0100" /> 
<circle cx="4.4790" cy="1.2610" r="0.0100" /> 
<circle cx="4.4790" cy="1.2610" r="0.0100" /> 
</g>
<g style="fill:none; 
stroke:#000000; stroke-width:0.0200; stroke-opacity:1; 
stroke-linecap:round; stroke-linejoin:round;">
<path d="M4.4790 1.2620
L4.4790 1.2610
" />
</g>
<g style="fill:#000000; fill-opacity:1.0000; stroke:none;">
<circle cx="4.4790" cy="1.2620" r="0.0100" /> 
<circle cx="4.4790" cy="1.4150" r="0.0100" /> 
<circle cx="4.4790" cy="1.4150" r="0.0100" /> 
</g>
<g style="fill:none; 
stroke:#000000; stroke-width:0.0200; stroke-opacity:1; 
stroke-linecap:round; stroke-linejoin:round;">
<path d="M4.4790 1.4150
L4.4800 1.4140
" />
</g>
<g style="fill:#000000; fill-opacity:1.0000; stroke:none;">
<circle cx="4.4790" cy="2.4300" r="0.0100" /> 
<circle cx="4.4790" cy="2.4300" r="0.0100" /> 
<circle cx="4.4790" cy="2.4300" r="0.0100" /> 
</g>
<g style="fill:none; 
stroke:#000000; stroke-width:0.0200; stroke-opacity:1; 
stroke-linecap:round; stroke-linejoin:round;">
<path d="M4.4790 2.4300
L4.4790 2.4310
" />
<path d="M4.4790 2.4310
L4.4780 2.4310
" />
</g>
<g style="fill:#000000; fill-opacity:1.0000; stroke:none;">
<circle cx="4.4790" cy="2.4310" r="0.0100" /> 
<circle cx="4.4790" cy="2.4310" r="0.0100" /> 
</g>
<g style="fill:none; 
stroke:#000000; stroke-width:0.0200; stroke-opacity:1; 
stroke-linecap:round; stroke-linejoin:round;">
<path d="M4.4800 1.2620
L4.4790 1.2620
" />
<path d="M4.4800 1.2620
L4.4800 1.4140
" />
<path d="M4.4800 1.4140
L4.4800 2.4300
" />
<path d="M4.4800 2.4300
L4.4790 2.4300
" />
</g> 
</svg>
