<?xml version="1.0" standalone="no"?>
 <!DOCTYPE svg PUBLIC "-//W3C//DTD SVG 1.1//EN" 
 "http://www.w3.org/Graphics/SVG/1.1/DTD/svg11.dtd"> 
<svg
  xmlns:svg="http://www.w3.org/2000/svg"
  xmlns="http://www.w3.org/2000/svg"
  xmlns:xlink="http://www.w3.org/1999/xlink"
  version="1.1"
  width="23.8252mm" height="6.9850mm" viewBox="0.0000 0.0000 23.8252 6.9850">
<title>SVG Image created as outline.svg date 2025/06/16 09:18:10 </title>
  <desc>Image generated by PCBNEW </desc>
<g style="fill:#000000; fill-opacity:1.0000;stroke:#000000; stroke-opacity:1.0000;
stroke-linecap:round; stroke-linejoin:round;"
 transform="translate(0 0) scale(1 1)">
</g>
<g style="fill:none; 
stroke:#000000; stroke-width:0.0200; stroke-opacity:1; 
stroke-linecap:round; stroke-linejoin:round;">
<path d="M1.0250 2.5200
L1.0250 5.9700
" />
<path d="M1.0250 5.9700
L4.3260 5.9700
" />
<path d="M1.9250 4.0200
L1.9250 2.9700
" />
<path d="M1.9250 4.0200
L2.3300 4.4240
" />
<path d="M2.3300 2.5660
L1.9250 2.9700
" />
<path d="M2.3300 4.4240
L2.6250 4.7200
" />
<path d="M2.3300 4.4240
L2.8530 3.7960
" />
<path d="M2.5250 1.0200
L1.0250 2.5200
" />
<path d="M2.6250 2.2700
L2.3300 2.5660
" />
<path d="M2.8530 3.1940
L2.3300 2.5660
" />
<path d="M2.8530 3.1940
L2.8530 3.7960
" />
<path d="M2.8530 3.7960
L3.0900 3.7960
" />
<path d="M3.0900 3.1940
L2.8530 3.1940
" />
<path d="M3.0900 3.7960
L3.0900 3.1940
" />
<path d="M3.0900 3.7960
L3.7250 4.7200
" />
<path d="M3.7250 2.2700
L2.6250 2.2700
" />
<path d="M3.7250 2.2700
L3.0900 3.1940
" />
<path d="M3.7250 2.4700
L3.7250 2.2700
" />
<path d="M3.7250 4.5200
L3.7250 2.4700
" />
<path d="M3.7250 4.7200
L2.6250 4.7200
" />
<path d="M3.7250 4.7200
L3.7250 4.5200
" />
<path d="M4.3260 1.0200
L2.5250 1.0200
" />
<path d="M4.3260 1.8200
L4.3260 1.0200
" />
<path d="M4.3260 5.1700
L4.3260 5.9700
" />
<path d="M4.5250 1.8200
L4.3260 1.8200
" />
<path d="M4.5250 1.8200
L4.5250 1.2200
" />
<path d="M4.5250 5.1700
L4.3260 5.1700
" />
<path d="M4.5250 5.1700
L4.5250 5.7700
" />
<path d="M4.5760 2.2210
L4.5760 2.2700
" />
<path d="M4.5760 2.2700
L3.7250 2.2700
" />
<path d="M4.5760 2.2700
L4.5760 2.4700
" />
<path d="M4.5760 2.4700
L4.5760 4.5200
" />
<path d="M4.5760 4.5200
L4.5760 4.7200
" />
<path d="M4.5760 4.7200
L3.7250 4.7200
" />
<path d="M4.5760 4.7200
L4.5760 4.7690
" />
<path d="M4.7750 2.2210
L4.5760 2.2210
" />
<path d="M4.7750 2.2700
L4.7750 2.2210
" />
<path d="M4.7750 2.2700
L4.7750 2.4700
" />
<path d="M4.7750 2.4700
L4.7750 4.5200
" />
<path d="M4.7750 2.5200
L4.5760 2.5200
" />
<path d="M4.7750 2.6070
L4.5760 2.6070
" />
<path d="M4.7750 3.2950
L4.5760 3.2950
" />
<path d="M4.7750 3.6950
L4.5760 3.6950
" />
<path d="M4.7750 4.3830
L4.5760 4.3830
" />
<path d="M4.7750 4.4700
L4.5760 4.4700
" />
<path d="M4.7750 4.5200
L4.7750 4.7200
" />
<path d="M4.7750 4.7200
L4.7750 4.7690
" />
<path d="M4.7750 4.7690
L4.5760 4.7690
" />
<path d="M4.8260 1.2200
L4.5250 1.2200
" />
<path d="M4.8260 1.8200
L4.8260 1.2200
" />
<path d="M4.8260 5.1700
L4.8260 5.7700
" />
<path d="M4.8260 5.7700
L4.5250 5.7700
" />
<path d="M5.0250 1.8200
L4.8260 1.8200
" />
<path d="M5.0250 1.8200
L5.0250 1.2200
" />
<path d="M5.0250 5.1700
L4.8260 5.1700
" />
<path d="M5.0250 5.1700
L5.0250 5.7700
" />
<path d="M5.0760 2.2210
L5.0760 2.2700
" />
<path d="M5.0760 2.2700
L4.7750 2.2700
" />
<path d="M5.0760 2.2700
L5.0760 2.4700
" />
<path d="M5.0760 2.4700
L5.0760 4.5200
" />
<path d="M5.0760 4.5200
L5.0760 4.7200
" />
<path d="M5.0760 4.7200
L4.7750 4.7200
" />
<path d="M5.0760 4.7690
L5.0760 4.7200
" />
<path d="M5.2750 2.2210
L5.0760 2.2210
" />
<path d="M5.2750 2.2700
L5.2750 2.2210
" />
<path d="M5.2750 2.2700
L5.2750 2.4700
" />
<path d="M5.2750 2.4700
L5.2750 4.5200
" />
<path d="M5.2750 2.5200
L5.0760 2.5200
" />
<path d="M5.2750 2.6070
L5.0760 2.6070
" />
<path d="M5.2750 3.2950
L5.0760 3.2950
" />
<path d="M5.2750 3.6950
L5.0760 3.6950
" />
<path d="M5.2750 4.3830
L5.0760 4.3830
" />
<path d="M5.2750 4.4700
L5.0760 4.4700
" />
<path d="M5.2750 4.5200
L5.2750 4.7200
" />
<path d="M5.2750 4.7200
L5.2750 4.7690
" />
<path d="M5.2750 4.7690
L5.0760 4.7690
" />
<path d="M5.3260 1.2200
L5.0250 1.2200
" />
<path d="M5.3260 1.8200
L5.3260 1.2200
" />
<path d="M5.3260 5.1700
L5.3260 5.7700
" />
<path d="M5.3260 5.7700
L5.0250 5.7700
" />
<path d="M5.5250 1.8200
L5.3260 1.8200
" />
<path d="M5.5250 1.8200
L5.5250 1.2200
" />
<path d="M5.5250 5.1700
L5.3260 5.1700
" />
<path d="M5.5250 5.1700
L5.5250 5.7700
" />
<path d="M5.5760 2.2210
L5.5760 2.2700
" />
<path d="M5.5760 2.2700
L5.2750 2.2700
" />
<path d="M5.5760 2.2700
L5.5760 2.4700
" />
<path d="M5.5760 2.4700
L5.5760 4.5200
" />
<path d="M5.5760 4.5200
L5.5760 4.7200
" />
<path d="M5.5760 4.7200
L5.2750 4.7200
" />
<path d="M5.5760 4.7690
L5.5760 4.7200
" />
<path d="M5.7750 2.2210
L5.5760 2.2210
" />
<path d="M5.7750 2.2700
L5.7750 2.2210
" />
<path d="M5.7750 2.2700
L5.7750 2.4700
" />
<path d="M5.7750 2.4700
L5.7750 4.5200
" />
<path d="M5.7750 2.5200
L5.5760 2.5200
" />
<path d="M5.7750 2.6070
L5.5760 2.6070
" />
<path d="M5.7750 3.2950
L5.5760 3.2950
" />
<path d="M5.7750 3.6950
L5.5760 3.6950
" />
<path d="M5.7750 4.3830
L5.5760 4.3830
" />
<path d="M5.7750 4.4700
L5.5760 4.4700
" />
<path d="M5.7750 4.5200
L5.7750 4.7200
" />
<path d="M5.7750 4.7200
L5.7750 4.7690
" />
<path d="M5.7750 4.7690
L5.5760 4.7690
" />
<path d="M5.8260 1.2200
L5.5250 1.2200
" />
<path d="M5.8260 1.8200
L5.8260 1.2200
" />
<path d="M5.8260 5.1700
L5.8260 5.7700
" />
<path d="M5.8260 5.7700
L5.5250 5.7700
" />
<path d="M6.0250 1.8200
L5.8260 1.8200
" />
<path d="M6.0250 1.8200
L6.0250 1.2200
" />
<path d="M6.0250 5.1700
L5.8260 5.1700
" />
<path d="M6.0250 5.1700
L6.0250 5.7700
" />
<path d="M6.0760 2.2210
L6.0760 2.2700
" />
<path d="M6.0760 2.2700
L5.7750 2.2700
" />
<path d="M6.0760 2.2700
L6.0760 2.4700
" />
<path d="M6.0760 2.4700
L6.0760 4.5200
" />
<path d="M6.0760 4.5200
L6.0760 4.7200
" />
<path d="M6.0760 4.7200
L5.7750 4.7200
" />
<path d="M6.0760 4.7690
L6.0760 4.7200
" />
<path d="M6.2750 2.2210
L6.0760 2.2210
" />
<path d="M6.2750 2.2700
L6.2750 2.2210
" />
<path d="M6.2750 2.2700
L6.2750 2.4700
" />
<path d="M6.2750 2.4700
L6.2750 4.5200
" />
<path d="M6.2750 2.5200
L6.0760 2.5200
" />
<path d="M6.2750 2.6070
L6.0760 2.6070
" />
<path d="M6.2750 3.2950
L6.0760 3.2950
" />
<path d="M6.2750 3.6950
L6.0760 3.6950
" />
<path d="M6.2750 4.3830
L6.0760 4.3830
" />
<path d="M6.2750 4.4700
L6.0760 4.4700
" />
<path d="M6.2750 4.5200
L6.2750 4.7200
" />
<path d="M6.2750 4.7200
L6.2750 4.7690
" />
<path d="M6.2750 4.7690
L6.0760 4.7690
" />
<path d="M6.3260 1.2200
L6.0250 1.2200
" />
<path d="M6.3260 1.8200
L6.3260 1.2200
" />
<path d="M6.3260 5.1700
L6.3260 5.7700
" />
<path d="M6.3260 5.7700
L6.0250 5.7700
" />
<path d="M6.5250 1.8200
L6.3260 1.8200
" />
<path d="M6.5250 1.8200
L6.5250 1.2200
" />
<path d="M6.5250 5.1700
L6.3260 5.1700
" />
<path d="M6.5250 5.1700
L6.5250 5.7700
" />
<path d="M6.5760 2.2210
L6.5760 2.2700
" />
<path d="M6.5760 2.2700
L6.2750 2.2700
" />
<path d="M6.5760 2.2700
L6.5760 2.4700
" />
<path d="M6.5760 2.4700
L6.5760 4.5200
" />
<path d="M6.5760 4.5200
L6.5760 4.7200
" />
<path d="M6.5760 4.7200
L6.2750 4.7200
" />
<path d="M6.5760 4.7690
L6.5760 4.7200
" />
<path d="M6.7750 2.2210
L6.5760 2.2210
" />
<path d="M6.7750 2.2700
L6.7750 2.2210
" />
<path d="M6.7750 2.2700
L6.7750 2.4700
" />
<path d="M6.7750 2.4700
L6.7750 4.5200
" />
<path d="M6.7750 2.5200
L6.5760 2.5200
" />
<path d="M6.7750 2.6070
L6.5760 2.6070
" />
<path d="M6.7750 3.2950
L6.5760 3.2950
" />
<path d="M6.7750 3.6950
L6.5760 3.6950
" />
<path d="M6.7750 4.3830
L6.5760 4.3830
" />
<path d="M6.7750 4.4700
L6.5760 4.4700
" />
<path d="M6.7750 4.5200
L6.7750 4.7200
" />
<path d="M6.7750 4.7200
L6.7750 4.7690
" />
<path d="M6.7750 4.7690
L6.5760 4.7690
" />
<path d="M6.8260 1.2200
L6.5250 1.2200
" />
<path d="M6.8260 1.8200
L6.8260 1.2200
" />
<path d="M6.8260 5.1700
L6.8260 5.7700
" />
<path d="M6.8260 5.7700
L6.5250 5.7700
" />
<path d="M7.0250 1.8200
L6.8260 1.8200
" />
<path d="M7.0250 1.8200
L7.0250 1.2200
" />
<path d="M7.0250 5.1700
L6.8260 5.1700
" />
<path d="M7.0250 5.1700
L7.0250 5.7700
" />
<path d="M7.0760 2.2210
L7.0760 2.2700
" />
<path d="M7.0760 2.2700
L6.7750 2.2700
" />
<path d="M7.0760 2.2700
L7.0760 2.4700
" />
<path d="M7.0760 2.4700
L7.0760 4.5200
" />
<path d="M7.0760 4.5200
L7.0760 4.7200
" />
<path d="M7.0760 4.7200
L6.7750 4.7200
" />
<path d="M7.0760 4.7690
L7.0760 4.7200
" />
<path d="M7.2750 2.2210
L7.0760 2.2210
" />
<path d="M7.2750 2.2700
L7.2750 2.2210
" />
<path d="M7.2750 2.2700
L7.2750 2.4700
" />
<path d="M7.2750 2.4700
L7.2750 4.5200
" />
<path d="M7.2750 2.5200
L7.0760 2.5200
" />
<path d="M7.2750 2.6070
L7.0760 2.6070
" />
<path d="M7.2750 3.2950
L7.0760 3.2950
" />
<path d="M7.2750 3.6950
L7.0760 3.6950
" />
<path d="M7.2750 4.3830
L7.0760 4.3830
" />
<path d="M7.2750 4.4700
L7.0760 4.4700
" />
<path d="M7.2750 4.5200
L7.2750 4.7200
" />
<path d="M7.2750 4.7200
L7.2750 4.7690
" />
<path d="M7.2750 4.7690
L7.0760 4.7690
" />
<path d="M7.3250 1.2200
L7.0250 1.2200
" />
<path d="M7.3250 1.8200
L7.3250 1.2200
" />
<path d="M7.3250 5.1700
L7.3250 5.7700
" />
<path d="M7.3250 5.7700
L7.0250 5.7700
" />
<path d="M7.5250 1.8200
L7.3250 1.8200
" />
<path d="M7.5250 1.8200
L7.5250 1.2200
" />
<path d="M7.5250 5.1700
L7.3250 5.1700
" />
<path d="M7.5250 5.1700
L7.5250 5.7700
" />
<path d="M7.5750 2.2210
L7.5750 2.2700
" />
<path d="M7.5750 2.2700
L7.2750 2.2700
" />
<path d="M7.5750 2.2700
L7.5750 2.4700
" />
<path d="M7.5750 2.4700
L7.5750 4.5200
" />
<path d="M7.5750 4.5200
L7.5750 4.7200
" />
<path d="M7.5750 4.7200
L7.2750 4.7200
" />
<path d="M7.5750 4.7690
L7.5750 4.7200
" />
<path d="M7.7750 2.2210
L7.5750 2.2210
" />
<path d="M7.7750 2.2700
L7.7750 2.2210
" />
<path d="M7.7750 2.2700
L7.7750 2.4700
" />
<path d="M7.7750 2.4700
L7.7750 4.5200
" />
<path d="M7.7750 2.5200
L7.5750 2.5200
" />
<path d="M7.7750 2.6070
L7.5750 2.6070
" />
<path d="M7.7750 3.2950
L7.5750 3.2950
" />
<path d="M7.7750 3.6950
L7.5750 3.6950
" />
<path d="M7.7750 4.3830
L7.5750 4.3830
" />
<path d="M7.7750 4.4700
L7.5750 4.4700
" />
<path d="M7.7750 4.5200
L7.7750 4.7200
" />
<path d="M7.7750 4.7200
L7.7750 4.7690
" />
<path d="M7.7750 4.7690
L7.5750 4.7690
" />
<path d="M7.8250 1.2200
L7.5250 1.2200
" />
<path d="M7.8250 1.8200
L7.8250 1.2200
" />
<path d="M7.8250 5.1700
L7.8250 5.7700
" />
<path d="M7.8250 5.7700
L7.5250 5.7700
" />
<path d="M8.0250 1.8200
L7.8250 1.8200
" />
<path d="M8.0250 1.8200
L8.0250 1.2200
" />
<path d="M8.0250 5.1700
L7.8250 5.1700
" />
<path d="M8.0250 5.1700
L8.0250 5.7700
" />
<path d="M8.0750 2.2210
L8.0750 2.2700
" />
<path d="M8.0750 2.2700
L7.7750 2.2700
" />
<path d="M8.0750 2.2700
L8.0750 2.4700
" />
<path d="M8.0750 2.4700
L8.0750 4.5200
" />
<path d="M8.0750 4.5200
L8.0750 4.7200
" />
<path d="M8.0750 4.7200
L7.7750 4.7200
" />
<path d="M8.0750 4.7690
L8.0750 4.7200
" />
<path d="M8.2750 2.2210
L8.0750 2.2210
" />
<path d="M8.2750 2.2700
L8.2750 2.2210
" />
<path d="M8.2750 2.2700
L8.2750 2.4700
" />
<path d="M8.2750 2.4700
L8.2750 4.5200
" />
<path d="M8.2750 2.5200
L8.0750 2.5200
" />
<path d="M8.2750 2.6070
L8.0750 2.6070
" />
<path d="M8.2750 3.2950
L8.0750 3.2950
" />
<path d="M8.2750 3.6950
L8.0750 3.6950
" />
<path d="M8.2750 4.3830
L8.0750 4.3830
" />
<path d="M8.2750 4.4700
L8.0750 4.4700
" />
<path d="M8.2750 4.5200
L8.2750 4.7200
" />
<path d="M8.2750 4.7200
L8.2750 4.7690
" />
<path d="M8.2750 4.7690
L8.0750 4.7690
" />
<path d="M8.3250 1.2200
L8.0250 1.2200
" />
<path d="M8.3250 1.8200
L8.3250 1.2200
" />
<path d="M8.3250 5.1700
L8.3250 5.7700
" />
<path d="M8.3250 5.7700
L8.0250 5.7700
" />
<path d="M8.5250 1.8200
L8.3250 1.8200
" />
<path d="M8.5250 1.8200
L8.5250 1.2200
" />
<path d="M8.5250 5.1700
L8.3250 5.1700
" />
<path d="M8.5250 5.1700
L8.5250 5.7700
" />
<path d="M8.5750 2.2210
L8.5750 2.2700
" />
<path d="M8.5750 2.2700
L8.2750 2.2700
" />
<path d="M8.5750 2.2700
L8.5750 2.4700
" />
<path d="M8.5750 2.4700
L8.5750 4.5200
" />
<path d="M8.5750 4.5200
L8.5750 4.7200
" />
<path d="M8.5750 4.7200
L8.2750 4.7200
" />
<path d="M8.5750 4.7690
L8.5750 4.7200
" />
<path d="M8.7750 2.2210
L8.5750 2.2210
" />
<path d="M8.7750 2.2700
L8.7750 2.2210
" />
<path d="M8.7750 2.2700
L8.7750 2.4700
" />
<path d="M8.7750 2.4700
L8.7750 4.5200
" />
<path d="M8.7750 2.5200
L8.5750 2.5200
" />
<path d="M8.7750 2.6070
L8.5750 2.6070
" />
<path d="M8.7750 3.2950
L8.5750 3.2950
" />
<path d="M8.7750 3.6950
L8.5750 3.6950
" />
<path d="M8.7750 4.3830
L8.5750 4.3830
" />
<path d="M8.7750 4.4700
L8.5750 4.4700
" />
<path d="M8.7750 4.5200
L8.7750 4.7200
" />
<path d="M8.7750 4.7200
L8.7750 4.7690
" />
<path d="M8.7750 4.7690
L8.5750 4.7690
" />
<path d="M8.8250 1.2200
L8.5250 1.2200
" />
<path d="M8.8250 1.8200
L8.8250 1.2200
" />
<path d="M8.8250 5.1700
L8.8250 5.7700
" />
<path d="M8.8250 5.7700
L8.5250 5.7700
" />
<path d="M9.0250 1.8200
L8.8250 1.8200
" />
<path d="M9.0250 1.8200
L9.0250 1.2200
" />
<path d="M9.0250 5.1700
L8.8250 5.1700
" />
<path d="M9.0250 5.1700
L9.0250 5.7700
" />
<path d="M9.0750 2.2210
L9.0750 2.2700
" />
<path d="M9.0750 2.2700
L8.7750 2.2700
" />
<path d="M9.0750 2.2700
L9.0750 2.4700
" />
<path d="M9.0750 2.4700
L9.0750 4.5200
" />
<path d="M9.0750 4.5200
L9.0750 4.7200
" />
<path d="M9.0750 4.7200
L8.7750 4.7200
" />
<path d="M9.0750 4.7690
L9.0750 4.7200
" />
<path d="M9.2750 2.2210
L9.0750 2.2210
" />
<path d="M9.2750 2.2700
L9.2750 2.2210
" />
<path d="M9.2750 2.2700
L9.2750 2.4700
" />
<path d="M9.2750 2.4700
L9.2750 4.5200
" />
<path d="M9.2750 2.5200
L9.0750 2.5200
" />
<path d="M9.2750 2.6070
L9.0750 2.6070
" />
<path d="M9.2750 3.2950
L9.0750 3.2950
" />
<path d="M9.2750 3.6950
L9.0750 3.6950
" />
<path d="M9.2750 4.3830
L9.0750 4.3830
" />
<path d="M9.2750 4.4700
L9.0750 4.4700
" />
<path d="M9.2750 4.5200
L9.2750 4.7200
" />
<path d="M9.2750 4.7200
L9.2750 4.7690
" />
<path d="M9.2750 4.7690
L9.0750 4.7690
" />
<path d="M9.3250 1.2200
L9.0250 1.2200
" />
<path d="M9.3250 1.8200
L9.3250 1.2200
" />
<path d="M9.3250 5.1700
L9.3250 5.7700
" />
<path d="M9.3250 5.7700
L9.0250 5.7700
" />
<path d="M9.5250 1.8200
L9.3250 1.8200
" />
<path d="M9.5250 1.8200
L9.5250 1.2200
" />
<path d="M9.5250 5.1700
L9.3250 5.1700
" />
<path d="M9.5250 5.1700
L9.5250 5.7700
" />
<path d="M9.5750 2.2210
L9.5750 2.2700
" />
<path d="M9.5750 2.2700
L9.2750 2.2700
" />
<path d="M9.5750 2.2700
L9.5750 2.4700
" />
<path d="M9.5750 2.4700
L9.5750 4.5200
" />
<path d="M9.5750 4.5200
L9.5750 4.7200
" />
<path d="M9.5750 4.7200
L9.2750 4.7200
" />
<path d="M9.5750 4.7690
L9.5750 4.7200
" />
<path d="M9.7750 2.2210
L9.5750 2.2210
" />
<path d="M9.7750 2.2700
L9.7750 2.2210
" />
<path d="M9.7750 2.2700
L9.7750 2.4700
" />
<path d="M9.7750 2.4700
L9.7750 4.5200
" />
<path d="M9.7750 2.5200
L9.5750 2.5200
" />
<path d="M9.7750 2.6070
L9.5750 2.6070
" />
<path d="M9.7750 3.2950
L9.5750 3.2950
" />
<path d="M9.7750 3.6950
L9.5750 3.6950
" />
<path d="M9.7750 4.3830
L9.5750 4.3830
" />
<path d="M9.7750 4.4700
L9.5750 4.4700
" />
<path d="M9.7750 4.5200
L9.7750 4.7200
" />
<path d="M9.7750 4.7200
L9.7750 4.7690
" />
<path d="M9.7750 4.7690
L9.5750 4.7690
" />
<path d="M9.8250 1.2200
L9.5250 1.2200
" />
<path d="M9.8250 1.8200
L9.8250 1.2200
" />
<path d="M9.8250 5.1700
L9.8250 5.7700
" />
<path d="M9.8250 5.7700
L9.5250 5.7700
" />
<path d="M10.0260 1.8200
L9.8250 1.8200
" />
<path d="M10.0260 1.8200
L10.0260 1.2200
" />
<path d="M10.0260 5.1700
L9.8250 5.1700
" />
<path d="M10.0260 5.1700
L10.0260 5.7700
" />
<path d="M10.0750 2.2210
L10.0750 2.2700
" />
<path d="M10.0750 2.2700
L9.7750 2.2700
" />
<path d="M10.0750 2.2700
L10.0750 2.4700
" />
<path d="M10.0750 2.4700
L10.0750 4.5200
" />
<path d="M10.0750 4.5200
L10.0750 4.7200
" />
<path d="M10.0750 4.7200
L9.7750 4.7200
" />
<path d="M10.0750 4.7690
L10.0750 4.7200
" />
<path d="M10.2760 2.2210
L10.0750 2.2210
" />
<path d="M10.2760 2.2700
L10.2760 2.2210
" />
<path d="M10.2760 2.2700
L10.2760 2.4700
" />
<path d="M10.2760 2.4700
L10.2760 4.5200
" />
<path d="M10.2760 2.5200
L10.0750 2.5200
" />
<path d="M10.2760 2.6070
L10.0750 2.6070
" />
<path d="M10.2760 3.2950
L10.0750 3.2950
" />
<path d="M10.2760 3.6950
L10.0750 3.6950
" />
<path d="M10.2760 4.3830
L10.0750 4.3830
" />
<path d="M10.2760 4.4700
L10.0750 4.4700
" />
<path d="M10.2760 4.5200
L10.2760 4.7200
" />
<path d="M10.2760 4.7200
L10.2760 4.7690
" />
<path d="M10.2760 4.7690
L10.0750 4.7690
" />
<path d="M10.3250 1.2200
L10.0260 1.2200
" />
<path d="M10.3250 1.8200
L10.3250 1.2200
" />
<path d="M10.3250 5.1700
L10.3250 5.7700
" />
<path d="M10.3250 5.7700
L10.0260 5.7700
" />
<path d="M10.5260 1.8200
L10.3250 1.8200
" />
<path d="M10.5260 1.8200
L10.5260 1.2200
" />
<path d="M10.5260 5.1700
L10.3250 5.1700
" />
<path d="M10.5260 5.1700
L10.5260 5.7700
" />
<path d="M10.5750 2.2210
L10.5750 2.2700
" />
<path d="M10.5750 2.2700
L10.2760 2.2700
" />
<path d="M10.5750 2.2700
L10.5750 2.4700
" />
<path d="M10.5750 2.4700
L10.5750 4.5200
" />
<path d="M10.5750 4.5200
L10.5750 4.7200
" />
<path d="M10.5750 4.7200
L10.2760 4.7200
" />
<path d="M10.5750 4.7690
L10.5750 4.7200
" />
<path d="M10.7750 2.2210
L10.5750 2.2210
" />
<path d="M10.7750 2.2700
L10.7750 2.2210
" />
<path d="M10.7750 2.2700
L10.7750 2.4700
" />
<path d="M10.7750 2.4700
L10.7750 4.5200
" />
<path d="M10.7750 2.5200
L10.5750 2.5200
" />
<path d="M10.7750 2.6070
L10.5750 2.6070
" />
<path d="M10.7750 3.2950
L10.5750 3.2950
" />
<path d="M10.7750 3.6950
L10.5750 3.6950
" />
<path d="M10.7750 4.3830
L10.5750 4.3830
" />
<path d="M10.7750 4.4700
L10.5750 4.4700
" />
<path d="M10.7750 4.5200
L10.7750 4.7200
" />
<path d="M10.7750 4.7200
L10.7750 4.7690
" />
<path d="M10.7750 4.7690
L10.5750 4.7690
" />
<path d="M10.8250 1.2200
L10.5260 1.2200
" />
<path d="M10.8250 1.8200
L10.8250 1.2200
" />
<path d="M10.8250 5.1700
L10.8250 5.7700
" />
<path d="M10.8250 5.7700
L10.5260 5.7700
" />
<path d="M11.0250 1.8200
L10.8250 1.8200
" />
<path d="M11.0250 1.8200
L11.0250 1.2200
" />
<path d="M11.0250 5.1700
L10.8250 5.1700
" />
<path d="M11.0250 5.1700
L11.0250 5.7700
" />
<path d="M11.0750 2.2210
L11.0750 2.2700
" />
<path d="M11.0750 2.2700
L10.7750 2.2700
" />
<path d="M11.0750 2.2700
L11.0750 2.4700
" />
<path d="M11.0750 2.4700
L11.0750 4.5200
" />
<path d="M11.0750 4.5200
L11.0750 4.7200
" />
<path d="M11.0750 4.7200
L10.7750 4.7200
" />
<path d="M11.0750 4.7690
L11.0750 4.7200
" />
<path d="M11.2750 2.2210
L11.0750 2.2210
" />
<path d="M11.2750 2.2700
L11.2750 2.2210
" />
<path d="M11.2750 2.2700
L11.2750 2.4700
" />
<path d="M11.2750 2.4700
L11.2750 4.5200
" />
<path d="M11.2750 2.5200
L11.0750 2.5200
" />
<path d="M11.2750 2.6070
L11.0750 2.6070
" />
<path d="M11.2750 3.2950
L11.0750 3.2950
" />
<path d="M11.2750 3.6950
L11.0750 3.6950
" />
<path d="M11.2750 4.3830
L11.0750 4.3830
" />
<path d="M11.2750 4.4700
L11.0750 4.4700
" />
<path d="M11.2750 4.5200
L11.2750 4.7200
" />
<path d="M11.2750 4.7200
L11.2750 4.7690
" />
<path d="M11.2750 4.7690
L11.0750 4.7690
" />
<path d="M11.3250 1.2200
L11.0250 1.2200
" />
<path d="M11.3250 1.8200
L11.3250 1.2200
" />
<path d="M11.3250 5.1700
L11.3250 5.7700
" />
<path d="M11.3250 5.7700
L11.0250 5.7700
" />
<path d="M11.5250 1.8200
L11.3250 1.8200
" />
<path d="M11.5250 1.8200
L11.5250 1.2200
" />
<path d="M11.5250 5.1700
L11.3250 5.1700
" />
<path d="M11.5250 5.1700
L11.5250 5.7700
" />
<path d="M11.5760 2.2210
L11.5760 2.2700
" />
<path d="M11.5760 2.2700
L11.2750 2.2700
" />
<path d="M11.5760 2.2700
L11.5760 2.4700
" />
<path d="M11.5760 2.4700
L11.5760 4.5200
" />
<path d="M11.5760 4.5200
L11.5760 4.7200
" />
<path d="M11.5760 4.7200
L11.2750 4.7200
" />
<path d="M11.5760 4.7690
L11.5760 4.7200
" />
<path d="M11.7750 2.2210
L11.5760 2.2210
" />
<path d="M11.7750 2.2700
L11.7750 2.2210
" />
<path d="M11.7750 2.2700
L11.7750 2.4700
" />
<path d="M11.7750 2.4700
L11.7750 4.5200
" />
<path d="M11.7750 2.5200
L11.5760 2.5200
" />
<path d="M11.7750 2.6070
L11.5760 2.6070
" />
<path d="M11.7750 3.2950
L11.5760 3.2950
" />
<path d="M11.7750 3.6950
L11.5760 3.6950
" />
<path d="M11.7750 4.3830
L11.5760 4.3830
" />
<path d="M11.7750 4.4700
L11.5760 4.4700
" />
<path d="M11.7750 4.5200
L11.7750 4.7200
" />
<path d="M11.7750 4.7200
L11.7750 4.7690
" />
<path d="M11.7750 4.7690
L11.5760 4.7690
" />
<path d="M11.8250 1.2200
L11.5250 1.2200
" />
<path d="M11.8250 1.8200
L11.8250 1.2200
" />
<path d="M11.8250 5.1700
L11.8250 5.7700
" />
<path d="M11.8250 5.7700
L11.5250 5.7700
" />
<path d="M12.0250 1.8200
L11.8250 1.8200
" />
<path d="M12.0250 1.8200
L12.0250 1.2200
" />
<path d="M12.0250 5.1700
L11.8250 5.1700
" />
<path d="M12.0250 5.1700
L12.0250 5.7700
" />
<path d="M12.0750 2.2210
L12.0750 2.2700
" />
<path d="M12.0750 2.2700
L11.7750 2.2700
" />
<path d="M12.0750 2.2700
L12.0750 2.4700
" />
<path d="M12.0750 2.4700
L12.0750 4.5200
" />
<path d="M12.0750 4.5200
L12.0750 4.7200
" />
<path d="M12.0750 4.7200
L11.7750 4.7200
" />
<path d="M12.0750 4.7690
L12.0750 4.7200
" />
<path d="M12.2740 2.2210
L12.0750 2.2210
" />
<path d="M12.2740 2.2700
L12.2740 2.2210
" />
<path d="M12.2740 2.2700
L12.2740 2.4700
" />
<path d="M12.2740 2.4700
L12.2740 4.5200
" />
<path d="M12.2740 2.5200
L12.0750 2.5200
" />
<path d="M12.2740 2.6070
L12.0750 2.6070
" />
<path d="M12.2740 3.2950
L12.0750 3.2950
" />
<path d="M12.2740 3.6950
L12.0750 3.6950
" />
<path d="M12.2740 4.3830
L12.0750 4.3830
" />
<path d="M12.2740 4.4700
L12.0750 4.4700
" />
<path d="M12.2740 4.5200
L12.2740 4.7200
" />
<path d="M12.2740 4.7200
L12.2740 4.7690
" />
<path d="M12.2740 4.7690
L12.0750 4.7690
" />
<path d="M12.3250 1.2200
L12.0250 1.2200
" />
<path d="M12.3250 1.8200
L12.3250 1.2200
" />
<path d="M12.3250 5.1700
L12.3250 5.7700
" />
<path d="M12.3250 5.7700
L12.0250 5.7700
" />
<path d="M12.5250 1.8200
L12.3250 1.8200
" />
<path d="M12.5250 1.8200
L12.5250 1.2200
" />
<path d="M12.5250 5.1700
L12.3250 5.1700
" />
<path d="M12.5250 5.1700
L12.5250 5.7700
" />
<path d="M12.5750 2.2210
L12.5750 2.2700
" />
<path d="M12.5750 2.2700
L12.2740 2.2700
" />
<path d="M12.5750 2.2700
L12.5750 2.4700
" />
<path d="M12.5750 2.4700
L12.5750 4.5200
" />
<path d="M12.5750 4.5200
L12.5750 4.7200
" />
<path d="M12.5750 4.7200
L12.2740 4.7200
" />
<path d="M12.5750 4.7690
L12.5750 4.7200
" />
<path d="M12.7750 2.2210
L12.5750 2.2210
" />
<path d="M12.7750 2.2700
L12.7750 2.2210
" />
<path d="M12.7750 2.2700
L12.7750 2.4700
" />
<path d="M12.7750 2.4700
L12.7750 4.5200
" />
<path d="M12.7750 2.5200
L12.5750 2.5200
" />
<path d="M12.7750 2.6070
L12.5750 2.6070
" />
<path d="M12.7750 3.2950
L12.5750 3.2950
" />
<path d="M12.7750 3.6950
L12.5750 3.6950
" />
<path d="M12.7750 4.3830
L12.5750 4.3830
" />
<path d="M12.7750 4.4700
L12.5750 4.4700
" />
<path d="M12.7750 4.5200
L12.7750 4.7200
" />
<path d="M12.7750 4.7200
L12.7750 4.7690
" />
<path d="M12.7750 4.7690
L12.5750 4.7690
" />
<path d="M12.8250 1.2200
L12.5250 1.2200
" />
<path d="M12.8250 1.8200
L12.8250 1.2200
" />
<path d="M12.8250 5.1700
L12.8250 5.7700
" />
<path d="M12.8250 5.7700
L12.5250 5.7700
" />
<path d="M13.0250 1.8200
L12.8250 1.8200
" />
<path d="M13.0250 1.8200
L13.0250 1.2200
" />
<path d="M13.0250 5.1700
L12.8250 5.1700
" />
<path d="M13.0250 5.1700
L13.0250 5.7700
" />
<path d="M13.0750 2.2210
L13.0750 2.2700
" />
<path d="M13.0750 2.2700
L12.7750 2.2700
" />
<path d="M13.0750 2.2700
L13.0750 2.4700
" />
<path d="M13.0750 2.4700
L13.0750 4.5200
" />
<path d="M13.0750 4.5200
L13.0750 4.7200
" />
<path d="M13.0750 4.7200
L12.7750 4.7200
" />
<path d="M13.0750 4.7690
L13.0750 4.7200
" />
<path d="M13.2750 2.2210
L13.0750 2.2210
" />
<path d="M13.2750 2.2700
L13.2750 2.2210
" />
<path d="M13.2750 2.2700
L13.2750 2.4700
" />
<path d="M13.2750 2.4700
L13.2750 4.5200
" />
<path d="M13.2750 2.5200
L13.0750 2.5200
" />
<path d="M13.2750 2.6070
L13.0750 2.6070
" />
<path d="M13.2750 3.2950
L13.0750 3.2950
" />
<path d="M13.2750 3.6950
L13.0750 3.6950
" />
<path d="M13.2750 4.3830
L13.0750 4.3830
" />
<path d="M13.2750 4.4700
L13.0750 4.4700
" />
<path d="M13.2750 4.5200
L13.2750 4.7200
" />
<path d="M13.2750 4.7200
L13.2750 4.7690
" />
<path d="M13.2750 4.7690
L13.0750 4.7690
" />
<path d="M13.3240 1.2200
L13.0250 1.2200
" />
<path d="M13.3240 1.8200
L13.3240 1.2200
" />
<path d="M13.3240 5.1700
L13.3240 5.7700
" />
<path d="M13.3240 5.7700
L13.0250 5.7700
" />
<path d="M13.5250 1.8200
L13.3240 1.8200
" />
<path d="M13.5250 1.8200
L13.5250 1.2200
" />
<path d="M13.5250 5.1700
L13.3240 5.1700
" />
<path d="M13.5250 5.1700
L13.5250 5.7700
" />
<path d="M13.5740 2.2210
L13.5740 2.2700
" />
<path d="M13.5740 2.2700
L13.2750 2.2700
" />
<path d="M13.5740 2.2700
L13.5740 2.4700
" />
<path d="M13.5740 2.4700
L13.5740 4.5200
" />
<path d="M13.5740 4.5200
L13.5740 4.7200
" />
<path d="M13.5740 4.7200
L13.2750 4.7200
" />
<path d="M13.5740 4.7690
L13.5740 4.7200
" />
<path d="M13.7750 2.2210
L13.5740 2.2210
" />
<path d="M13.7750 2.2700
L13.7750 2.2210
" />
<path d="M13.7750 2.2700
L13.7750 2.4700
" />
<path d="M13.7750 2.4700
L13.7750 4.5200
" />
<path d="M13.7750 2.5200
L13.5740 2.5200
" />
<path d="M13.7750 2.6070
L13.5740 2.6070
" />
<path d="M13.7750 3.2950
L13.5740 3.2950
" />
<path d="M13.7750 3.6950
L13.5740 3.6950
" />
<path d="M13.7750 4.3830
L13.5740 4.3830
" />
<path d="M13.7750 4.4700
L13.5740 4.4700
" />
<path d="M13.7750 4.5200
L13.7750 4.7200
" />
<path d="M13.7750 4.7200
L13.7750 4.7690
" />
<path d="M13.7750 4.7690
L13.5740 4.7690
" />
<path d="M13.8240 1.2200
L13.5250 1.2200
" />
<path d="M13.8240 1.8200
L13.8240 1.2200
" />
<path d="M13.8240 5.1700
L13.8240 5.7700
" />
<path d="M13.8240 5.7700
L13.5250 5.7700
" />
<path d="M14.0250 1.8200
L13.8240 1.8200
" />
<path d="M14.0250 1.8200
L14.0250 1.2200
" />
<path d="M14.0250 5.1700
L13.8240 5.1700
" />
<path d="M14.0250 5.1700
L14.0250 5.7700
" />
<path d="M14.0750 2.2210
L14.0750 2.2700
" />
<path d="M14.0750 2.2700
L13.7750 2.2700
" />
<path d="M14.0750 2.2700
L14.0750 2.4700
" />
<path d="M14.0750 2.4700
L14.0750 4.5200
" />
<path d="M14.0750 4.5200
L14.0750 4.7200
" />
<path d="M14.0750 4.7200
L13.7750 4.7200
" />
<path d="M14.0750 4.7690
L14.0750 4.7200
" />
<path d="M14.2750 2.2210
L14.0750 2.2210
" />
<path d="M14.2750 2.2700
L14.2750 2.2210
" />
<path d="M14.2750 2.2700
L14.2750 2.4700
" />
<path d="M14.2750 2.4700
L14.2750 4.5200
" />
<path d="M14.2750 2.5200
L14.0750 2.5200
" />
<path d="M14.2750 2.6070
L14.0750 2.6070
" />
<path d="M14.2750 3.2950
L14.0750 3.2950
" />
<path d="M14.2750 3.6950
L14.0750 3.6950
" />
<path d="M14.2750 4.3830
L14.0750 4.3830
" />
<path d="M14.2750 4.4700
L14.0750 4.4700
" />
<path d="M14.2750 4.5200
L14.2750 4.7200
" />
<path d="M14.2750 4.7200
L14.2750 4.7690
" />
<path d="M14.2750 4.7690
L14.0750 4.7690
" />
<path d="M14.3250 1.2200
L14.0250 1.2200
" />
<path d="M14.3250 1.8200
L14.3250 1.2200
" />
<path d="M14.3250 5.1700
L14.3250 5.7700
" />
<path d="M14.3250 5.7700
L14.0250 5.7700
" />
<path d="M14.5250 1.8200
L14.3250 1.8200
" />
<path d="M14.5250 1.8200
L14.5250 1.2200
" />
<path d="M14.5250 5.1700
L14.3250 5.1700
" />
<path d="M14.5250 5.1700
L14.5250 5.7700
" />
<path d="M14.5750 2.2210
L14.5750 2.2700
" />
<path d="M14.5750 2.2700
L14.2750 2.2700
" />
<path d="M14.5750 2.2700
L14.5750 2.4700
" />
<path d="M14.5750 2.4700
L14.5750 4.5200
" />
<path d="M14.5750 4.5200
L14.5750 4.7200
" />
<path d="M14.5750 4.7200
L14.2750 4.7200
" />
<path d="M14.5750 4.7690
L14.5750 4.7200
" />
<path d="M14.7750 2.2210
L14.5750 2.2210
" />
<path d="M14.7750 2.2700
L14.7750 2.2210
" />
<path d="M14.7750 2.2700
L14.7750 2.4700
" />
<path d="M14.7750 2.4700
L14.7750 4.5200
" />
<path d="M14.7750 2.5200
L14.5750 2.5200
" />
<path d="M14.7750 2.6070
L14.5750 2.6070
" />
<path d="M14.7750 3.2950
L14.5750 3.2950
" />
<path d="M14.7750 3.6950
L14.5750 3.6950
" />
<path d="M14.7750 4.3830
L14.5750 4.3830
" />
<path d="M14.7750 4.4700
L14.5750 4.4700
" />
<path d="M14.7750 4.5200
L14.7750 4.7200
" />
<path d="M14.7750 4.7200
L14.7750 4.7690
" />
<path d="M14.7750 4.7690
L14.5750 4.7690
" />
<path d="M14.8250 1.2200
L14.5250 1.2200
" />
<path d="M14.8250 1.8200
L14.8250 1.2200
" />
<path d="M14.8250 5.1700
L14.8250 5.7700
" />
<path d="M14.8250 5.7700
L14.5250 5.7700
" />
<path d="M15.0250 1.8200
L14.8250 1.8200
" />
<path d="M15.0250 1.8200
L15.0250 1.2200
" />
<path d="M15.0250 5.1700
L14.8250 5.1700
" />
<path d="M15.0250 5.1700
L15.0250 5.7700
" />
<path d="M15.0750 2.2210
L15.0750 2.2700
" />
<path d="M15.0750 2.2700
L14.7750 2.2700
" />
<path d="M15.0750 2.2700
L15.0750 2.4700
" />
<path d="M15.0750 2.4700
L15.0750 4.5200
" />
<path d="M15.0750 4.5200
L15.0750 4.7200
" />
<path d="M15.0750 4.7200
L14.7750 4.7200
" />
<path d="M15.0750 4.7690
L15.0750 4.7200
" />
<path d="M15.2750 2.2210
L15.0750 2.2210
" />
<path d="M15.2750 2.2700
L15.2750 2.2210
" />
<path d="M15.2750 2.2700
L15.2750 2.4700
" />
<path d="M15.2750 2.4700
L15.2750 4.5200
" />
<path d="M15.2750 2.5200
L15.0750 2.5200
" />
<path d="M15.2750 2.6070
L15.0750 2.6070
" />
<path d="M15.2750 3.2950
L15.0750 3.2950
" />
<path d="M15.2750 3.6950
L15.0750 3.6950
" />
<path d="M15.2750 4.3830
L15.0750 4.3830
" />
<path d="M15.2750 4.4700
L15.0750 4.4700
" />
<path d="M15.2750 4.5200
L15.2750 4.7200
" />
<path d="M15.2750 4.7200
L15.2750 4.7690
" />
<path d="M15.2750 4.7690
L15.0750 4.7690
" />
<path d="M15.3250 1.2200
L15.0250 1.2200
" />
<path d="M15.3250 1.8200
L15.3250 1.2200
" />
<path d="M15.3250 5.1700
L15.3250 5.7700
" />
<path d="M15.3250 5.7700
L15.0250 5.7700
" />
<path d="M15.5250 1.8200
L15.3250 1.8200
" />
<path d="M15.5250 1.8200
L15.5250 1.2200
" />
<path d="M15.5250 5.1700
L15.3250 5.1700
" />
<path d="M15.5250 5.1700
L15.5250 5.7700
" />
<path d="M15.5750 2.2210
L15.5750 2.2700
" />
<path d="M15.5750 2.2700
L15.2750 2.2700
" />
<path d="M15.5750 2.2700
L15.5750 2.4700
" />
<path d="M15.5750 2.4700
L15.5750 4.5200
" />
<path d="M15.5750 4.5200
L15.5750 4.7200
" />
<path d="M15.5750 4.7200
L15.2750 4.7200
" />
<path d="M15.5750 4.7690
L15.5750 4.7200
" />
<path d="M15.7750 2.2210
L15.5750 2.2210
" />
<path d="M15.7750 2.2700
L15.7750 2.2210
" />
<path d="M15.7750 2.2700
L15.7750 2.4700
" />
<path d="M15.7750 2.4700
L15.7750 4.5200
" />
<path d="M15.7750 2.5200
L15.5750 2.5200
" />
<path d="M15.7750 2.6070
L15.5750 2.6070
" />
<path d="M15.7750 3.2950
L15.5750 3.2950
" />
<path d="M15.7750 3.6950
L15.5750 3.6950
" />
<path d="M15.7750 4.3830
L15.5750 4.3830
" />
<path d="M15.7750 4.4700
L15.5750 4.4700
" />
<path d="M15.7750 4.5200
L15.7750 4.7200
" />
<path d="M15.7750 4.7200
L15.7750 4.7690
" />
<path d="M15.7750 4.7690
L15.5750 4.7690
" />
<path d="M15.8250 1.2200
L15.5250 1.2200
" />
<path d="M15.8250 1.8200
L15.8250 1.2200
" />
<path d="M15.8250 5.1700
L15.8250 5.7700
" />
<path d="M15.8250 5.7700
L15.5250 5.7700
" />
<path d="M16.0250 1.8200
L15.8250 1.8200
" />
<path d="M16.0250 1.8200
L16.0250 1.2200
" />
<path d="M16.0250 5.1700
L15.8250 5.1700
" />
<path d="M16.0250 5.1700
L16.0250 5.7700
" />
<path d="M16.0750 2.2210
L16.0750 2.2700
" />
<path d="M16.0750 2.2700
L15.7750 2.2700
" />
<path d="M16.0750 2.2700
L16.0750 2.4700
" />
<path d="M16.0750 2.4700
L16.0750 4.5200
" />
<path d="M16.0750 4.5200
L16.0750 4.7200
" />
<path d="M16.0750 4.7200
L15.7750 4.7200
" />
<path d="M16.0750 4.7690
L16.0750 4.7200
" />
<path d="M16.2750 2.2210
L16.0750 2.2210
" />
<path d="M16.2750 2.2700
L16.2750 2.2210
" />
<path d="M16.2750 2.2700
L16.2750 2.4700
" />
<path d="M16.2750 2.4700
L16.2750 4.5200
" />
<path d="M16.2750 2.5200
L16.0750 2.5200
" />
<path d="M16.2750 2.6070
L16.0750 2.6070
" />
<path d="M16.2750 3.2950
L16.0750 3.2950
" />
<path d="M16.2750 3.6950
L16.0750 3.6950
" />
<path d="M16.2750 4.3830
L16.0750 4.3830
" />
<path d="M16.2750 4.4700
L16.0750 4.4700
" />
<path d="M16.2750 4.5200
L16.2750 4.7200
" />
<path d="M16.2750 4.7200
L16.2750 4.7690
" />
<path d="M16.2750 4.7690
L16.0750 4.7690
" />
<path d="M16.3250 1.2200
L16.0250 1.2200
" />
<path d="M16.3250 1.8200
L16.3250 1.2200
" />
<path d="M16.3250 5.1700
L16.3250 5.7700
" />
<path d="M16.3250 5.7700
L16.0250 5.7700
" />
<path d="M16.5250 1.8200
L16.3250 1.8200
" />
<path d="M16.5250 1.8200
L16.5250 1.2200
" />
<path d="M16.5250 5.1700
L16.3250 5.1700
" />
<path d="M16.5250 5.1700
L16.5250 5.7700
" />
<path d="M16.5750 2.2210
L16.5750 2.2700
" />
<path d="M16.5750 2.2700
L16.2750 2.2700
" />
<path d="M16.5750 2.2700
L16.5750 2.4700
" />
<path d="M16.5750 2.4700
L16.5750 4.5200
" />
<path d="M16.5750 4.5200
L16.5750 4.7200
" />
<path d="M16.5750 4.7200
L16.2750 4.7200
" />
<path d="M16.5750 4.7690
L16.5750 4.7200
" />
<path d="M16.7740 2.2210
L16.5750 2.2210
" />
<path d="M16.7740 2.2700
L16.7740 2.2210
" />
<path d="M16.7740 2.2700
L16.7740 2.4700
" />
<path d="M16.7740 2.4700
L16.7740 4.5200
" />
<path d="M16.7740 2.5200
L16.5750 2.5200
" />
<path d="M16.7740 2.6070
L16.5750 2.6070
" />
<path d="M16.7740 3.2950
L16.5750 3.2950
" />
<path d="M16.7740 3.6950
L16.5750 3.6950
" />
<path d="M16.7740 4.3830
L16.5750 4.3830
" />
<path d="M16.7740 4.4700
L16.5750 4.4700
" />
<path d="M16.7740 4.5200
L16.7740 4.7200
" />
<path d="M16.7740 4.7200
L16.7740 4.7690
" />
<path d="M16.7740 4.7690
L16.5750 4.7690
" />
<path d="M16.8250 1.2200
L16.5250 1.2200
" />
<path d="M16.8250 1.8200
L16.8250 1.2200
" />
<path d="M16.8250 5.1700
L16.8250 5.7700
" />
<path d="M16.8250 5.7700
L16.5250 5.7700
" />
<path d="M17.0240 1.8200
L16.8250 1.8200
" />
<path d="M17.0240 1.8200
L17.0240 1.2200
" />
<path d="M17.0240 5.1700
L16.8250 5.1700
" />
<path d="M17.0240 5.1700
L17.0240 5.7700
" />
<path d="M17.0750 2.2210
L17.0750 2.2700
" />
<path d="M17.0750 2.2700
L16.7740 2.2700
" />
<path d="M17.0750 2.2700
L17.0750 2.4700
" />
<path d="M17.0750 2.4700
L17.0750 4.5200
" />
<path d="M17.0750 4.5200
L17.0750 4.7200
" />
<path d="M17.0750 4.7200
L16.7740 4.7200
" />
<path d="M17.0750 4.7690
L17.0750 4.7200
" />
<path d="M17.2740 2.2210
L17.0750 2.2210
" />
<path d="M17.2740 2.2700
L17.2740 2.2210
" />
<path d="M17.2740 2.2700
L17.2740 2.4700
" />
<path d="M17.2740 2.4700
L17.2740 4.5200
" />
<path d="M17.2740 2.5200
L17.0750 2.5200
" />
<path d="M17.2740 2.6070
L17.0750 2.6070
" />
<path d="M17.2740 3.2950
L17.0750 3.2950
" />
<path d="M17.2740 3.6950
L17.0750 3.6950
" />
<path d="M17.2740 4.3830
L17.0750 4.3830
" />
<path d="M17.2740 4.4700
L17.0750 4.4700
" />
<path d="M17.2740 4.5200
L17.2740 4.7200
" />
<path d="M17.2740 4.7200
L17.2740 4.7690
" />
<path d="M17.2740 4.7690
L17.0750 4.7690
" />
<path d="M17.3250 1.2200
L17.0240 1.2200
" />
<path d="M17.3250 1.8200
L17.3250 1.2200
" />
<path d="M17.3250 5.1700
L17.3250 5.7700
" />
<path d="M17.3250 5.7700
L17.0240 5.7700
" />
<path d="M17.5240 1.8200
L17.3250 1.8200
" />
<path d="M17.5240 1.8200
L17.5240 1.2200
" />
<path d="M17.5240 5.1700
L17.3250 5.1700
" />
<path d="M17.5240 5.1700
L17.5240 5.7700
" />
<path d="M17.5750 2.2210
L17.5750 2.2700
" />
<path d="M17.5750 2.2700
L17.2740 2.2700
" />
<path d="M17.5750 2.2700
L17.5750 2.4700
" />
<path d="M17.5750 2.4700
L17.5750 4.5200
" />
<path d="M17.5750 4.5200
L17.5750 4.7200
" />
<path d="M17.5750 4.7200
L17.2740 4.7200
" />
<path d="M17.5750 4.7690
L17.5750 4.7200
" />
<path d="M17.7740 2.2210
L17.5750 2.2210
" />
<path d="M17.7740 2.2700
L17.7740 2.2210
" />
<path d="M17.7740 2.2700
L17.7740 2.4700
" />
<path d="M17.7740 2.4700
L17.7740 4.5200
" />
<path d="M17.7740 2.5200
L17.5750 2.5200
" />
<path d="M17.7740 2.6070
L17.5750 2.6070
" />
<path d="M17.7740 3.2950
L17.5750 3.2950
" />
<path d="M17.7740 3.6950
L17.5750 3.6950
" />
<path d="M17.7740 4.3830
L17.5750 4.3830
" />
<path d="M17.7740 4.4700
L17.5750 4.4700
" />
<path d="M17.7740 4.5200
L17.7740 4.7200
" />
<path d="M17.7740 4.7200
L17.7740 4.7690
" />
<path d="M17.7740 4.7690
L17.5750 4.7690
" />
<path d="M17.8250 1.2200
L17.5240 1.2200
" />
<path d="M17.8250 1.8200
L17.8250 1.2200
" />
<path d="M17.8250 5.1700
L17.8250 5.7700
" />
<path d="M17.8250 5.7700
L17.5240 5.7700
" />
<path d="M18.0240 1.8200
L17.8250 1.8200
" />
<path d="M18.0240 1.8200
L18.0240 1.2200
" />
<path d="M18.0240 5.1700
L17.8250 5.1700
" />
<path d="M18.0240 5.1700
L18.0240 5.7700
" />
<path d="M18.0750 2.2210
L18.0750 2.2700
" />
<path d="M18.0750 2.2700
L17.7740 2.2700
" />
<path d="M18.0750 2.2700
L18.0750 2.4700
" />
<path d="M18.0750 2.4700
L18.0750 4.5200
" />
<path d="M18.0750 4.5200
L18.0750 4.7200
" />
<path d="M18.0750 4.7200
L17.7740 4.7200
" />
<path d="M18.0750 4.7690
L18.0750 4.7200
" />
<path d="M18.2740 2.2210
L18.0750 2.2210
" />
<path d="M18.2740 2.2700
L18.2740 2.2210
" />
<path d="M18.2740 2.2700
L18.2740 2.4700
" />
<path d="M18.2740 2.4700
L18.2740 4.5200
" />
<path d="M18.2740 2.5200
L18.0750 2.5200
" />
<path d="M18.2740 2.6070
L18.0750 2.6070
" />
<path d="M18.2740 3.2950
L18.0750 3.2950
" />
<path d="M18.2740 3.6950
L18.0750 3.6950
" />
<path d="M18.2740 4.3830
L18.0750 4.3830
" />
<path d="M18.2740 4.4700
L18.0750 4.4700
" />
<path d="M18.2740 4.5200
L18.2740 4.7200
" />
<path d="M18.2740 4.7200
L18.2740 4.7690
" />
<path d="M18.2740 4.7690
L18.0750 4.7690
" />
<path d="M18.3250 1.2200
L18.0240 1.2200
" />
<path d="M18.3250 1.8200
L18.3250 1.2200
" />
<path d="M18.3250 5.1700
L18.3250 5.7700
" />
<path d="M18.3250 5.7700
L18.0240 5.7700
" />
<path d="M18.5240 1.8200
L18.3250 1.8200
" />
<path d="M18.5240 1.8200
L18.5240 1.2200
" />
<path d="M18.5240 5.1700
L18.3250 5.1700
" />
<path d="M18.5240 5.1700
L18.5240 5.7700
" />
<path d="M18.5750 2.2210
L18.5750 2.2700
" />
<path d="M18.5750 2.2700
L18.2740 2.2700
" />
<path d="M18.5750 2.2700
L18.5750 2.4700
" />
<path d="M18.5750 2.4700
L18.5750 4.5200
" />
<path d="M18.5750 4.5200
L18.5750 4.7200
" />
<path d="M18.5750 4.7200
L18.2740 4.7200
" />
<path d="M18.5750 4.7690
L18.5750 4.7200
" />
<path d="M18.7740 2.2210
L18.5750 2.2210
" />
<path d="M18.7740 2.2700
L18.7740 2.2210
" />
<path d="M18.7740 2.2700
L18.7740 2.4700
" />
<path d="M18.7740 2.4700
L18.7740 4.5200
" />
<path d="M18.7740 2.5200
L18.5750 2.5200
" />
<path d="M18.7740 2.6070
L18.5750 2.6070
" />
<path d="M18.7740 3.2950
L18.5750 3.2950
" />
<path d="M18.7740 3.6950
L18.5750 3.6950
" />
<path d="M18.7740 4.3830
L18.5750 4.3830
" />
<path d="M18.7740 4.4700
L18.5750 4.4700
" />
<path d="M18.7740 4.5200
L18.7740 4.7200
" />
<path d="M18.7740 4.7200
L18.7740 4.7690
" />
<path d="M18.7740 4.7690
L18.5750 4.7690
" />
<path d="M18.8250 1.2200
L18.5240 1.2200
" />
<path d="M18.8250 1.8200
L18.8250 1.2200
" />
<path d="M18.8250 5.1700
L18.8250 5.7700
" />
<path d="M18.8250 5.7700
L18.5240 5.7700
" />
<path d="M19.0240 1.8200
L18.8250 1.8200
" />
<path d="M19.0240 1.8200
L19.0240 1.2200
" />
<path d="M19.0240 5.1700
L18.8250 5.1700
" />
<path d="M19.0240 5.1700
L19.0240 5.7700
" />
<path d="M19.0750 2.2210
L19.0750 2.2700
" />
<path d="M19.0750 2.2700
L18.7740 2.2700
" />
<path d="M19.0750 2.2700
L19.0750 2.4700
" />
<path d="M19.0750 2.4700
L19.0750 4.5200
" />
<path d="M19.0750 4.5200
L19.0750 4.7200
" />
<path d="M19.0750 4.7200
L18.7740 4.7200
" />
<path d="M19.0750 4.7690
L19.0750 4.7200
" />
<path d="M19.2740 2.2210
L19.0750 2.2210
" />
<path d="M19.2740 2.2210
L19.2740 2.2700
" />
<path d="M19.2740 2.2700
L19.2740 2.4700
" />
<path d="M19.2740 2.4700
L19.2740 4.5200
" />
<path d="M19.2740 2.5200
L19.0750 2.5200
" />
<path d="M19.2740 2.6070
L19.0750 2.6070
" />
<path d="M19.2740 3.2950
L19.0750 3.2950
" />
<path d="M19.2740 3.6950
L19.0750 3.6950
" />
<path d="M19.2740 4.3830
L19.0750 4.3830
" />
<path d="M19.2740 4.4700
L19.0750 4.4700
" />
<path d="M19.2740 4.5200
L19.2740 4.7200
" />
<path d="M19.2740 4.7200
L19.2740 4.7690
" />
<path d="M19.2740 4.7690
L19.0750 4.7690
" />
<path d="M19.3250 1.2200
L19.0240 1.2200
" />
<path d="M19.3250 1.8200
L19.3250 1.2200
" />
<path d="M19.3250 5.1700
L19.3250 5.7700
" />
<path d="M19.3250 5.7700
L19.0240 5.7700
" />
<path d="M19.5240 1.8200
L19.3250 1.8200
" />
<path d="M19.5240 1.8200
L19.5240 1.0200
" />
<path d="M19.5240 5.1700
L19.3250 5.1700
" />
<path d="M19.5240 5.1700
L19.5240 5.9700
" />
<path d="M19.5240 5.9700
L22.8250 5.9700
" />
<path d="M20.1250 2.2700
L19.2740 2.2700
" />
<path d="M20.1250 2.4700
L20.1250 2.2700
" />
<path d="M20.1250 4.5200
L20.1250 2.4700
" />
<path d="M20.1250 4.7200
L19.2740 4.7200
" />
<path d="M20.1250 4.7200
L20.1250 4.5200
" />
<path d="M20.1250 4.7200
L20.7600 3.7960
" />
<path d="M20.7600 3.1940
L20.1250 2.2700
" />
<path d="M20.7600 3.1940
L20.7600 3.7960
" />
<path d="M20.7600 3.7960
L20.9970 3.7960
" />
<path d="M20.9970 3.1940
L20.7600 3.1940
" />
<path d="M20.9970 3.7960
L20.9970 3.1940
" />
<path d="M20.9970 3.7960
L21.7640 4.7160
" />
<path d="M21.4250 3.1950
L21.9250 3.1950
" />
<path d="M21.4250 3.7950
L21.4250 3.1950
" />
<path d="M21.7250 2.2700
L20.1250 2.2700
" />
<path d="M21.7250 4.7200
L20.1250 4.7200
" />
<path d="M21.7250 4.7200
L21.7640 4.7160
" />
<path d="M21.7640 2.2740
L20.9970 3.1940
" />
<path d="M21.7640 2.2740
L21.7250 2.2700
" />
<path d="M21.7640 4.7160
L21.7720 4.7140
" />
<path d="M21.7720 2.2760
L21.7640 2.2740
" />
<path d="M21.7720 4.7140
L21.7810 4.7120
" />
<path d="M21.7810 2.2780
L21.7720 2.2760
" />
<path d="M21.7810 4.7120
L21.7890 4.7090
" />
<path d="M21.7890 2.2810
L21.7810 2.2780
" />
<path d="M21.7890 4.7090
L21.7970 4.7060
" />
<path d="M21.7970 2.2840
L21.7890 2.2810
" />
<path d="M21.7970 4.7060
L21.8050 4.7030
" />
<path d="M21.8050 2.2870
L21.7970 2.2840
" />
<path d="M21.8050 4.7030
L21.8130 4.6990
" />
<path d="M21.8130 2.2910
L21.8050 2.2870
" />
<path d="M21.8130 4.6990
L21.8200 4.6950
" />
<path d="M21.8200 2.2950
L21.8130 2.2910
" />
<path d="M21.8200 4.6950
L21.8280 4.6910
" />
<path d="M21.8280 2.2990
L21.8200 2.2950
" />
<path d="M21.8280 4.6910
L21.8350 4.6860
" />
<path d="M21.8350 2.3040
L21.8280 2.2990
" />
<path d="M21.8350 4.6860
L21.8420 4.6810
" />
<path d="M21.8420 2.3090
L21.8350 2.3040
" />
<path d="M21.8420 4.6810
L21.8480 4.6760
" />
<path d="M21.8480 2.3140
L21.8420 2.3090
" />
<path d="M21.8480 4.6760
L21.8550 4.6710
" />
<path d="M21.8550 2.3190
L21.8480 2.3140
" />
<path d="M21.8550 4.6710
L21.8610 4.6650
" />
<path d="M21.8610 4.6650
L21.8670 4.6590
" />
<path d="M21.8670 2.3310
L21.8550 2.3190
" />
<path d="M21.8670 4.6590
L21.8730 4.6530
" />
<path d="M21.8730 4.6530
L21.8790 4.6460
" />
<path d="M21.8790 2.3440
L21.8670 2.3310
" />
<path d="M21.8790 4.6460
L21.8840 4.6390
" />
<path d="M21.8840 4.6390
L21.8890 4.6320
" />
<path d="M21.8890 2.3580
L21.8790 2.3440
" />
<path d="M21.8890 4.6320
L21.8940 4.6250
" />
<path d="M21.8940 4.6250
L21.8980 4.6180
" />
<path d="M21.8980 2.3720
L21.8890 2.3580
" />
<path d="M21.8980 4.6180
L21.9020 4.6100
" />
<path d="M21.9020 2.3800
L21.8980 2.3720
" />
<path d="M21.9020 4.6100
L21.9060 4.6030
" />
<path d="M21.9060 2.3870
L21.9020 2.3800
" />
<path d="M21.9060 4.6030
L21.9100 4.5950
" />
<path d="M21.9100 2.3950
L21.9060 2.3870
" />
<path d="M21.9100 4.5950
L21.9130 4.5870
" />
<path d="M21.9130 2.4030
L21.9100 2.3950
" />
<path d="M21.9130 4.5870
L21.9160 4.5790
" />
<path d="M21.9160 2.4110
L21.9130 2.4030
" />
<path d="M21.9160 4.5790
L21.9180 4.5710
" />
<path d="M21.9180 2.4190
L21.9160 2.4110
" />
<path d="M21.9180 4.5710
L21.9200 4.5620
" />
<path d="M21.9200 2.4280
L21.9180 2.4190
" />
<path d="M21.9200 4.5620
L21.9220 4.5540
" />
<path d="M21.9220 2.4360
L21.9200 2.4280
" />
<path d="M21.9220 4.5540
L21.9230 4.5450
" />
<path d="M21.9230 2.4450
L21.9220 2.4360
" />
<path d="M21.9230 4.5450
L21.9240 4.5370
" />
<path d="M21.9240 2.4530
L21.9230 2.4450
" />
<path d="M21.9240 2.4620
L21.9240 2.4530
" />
<path d="M21.9240 4.5280
L21.9250 4.5200
" />
<path d="M21.9240 4.5370
L21.9240 4.5280
" />
<path d="M21.9250 2.4700
L21.9240 2.4620
" />
<path d="M21.9250 3.1950
L21.9250 2.4700
" />
<path d="M21.9250 3.7950
L21.4250 3.7950
" />
<path d="M21.9250 4.5200
L21.9250 3.7950
" />
<path d="M22.8250 1.0200
L19.5240 1.0200
" />
<path d="M22.8250 5.9700
L22.8250 1.0200
" />
</g> 
</svg>
