<?xml version="1.0" standalone="no"?>
 <!DOCTYPE svg PUBLIC "-//W3C//DTD SVG 1.1//EN" 
 "http://www.w3.org/Graphics/SVG/1.1/DTD/svg11.dtd"> 
<svg
  xmlns:svg="http://www.w3.org/2000/svg"
  xmlns="http://www.w3.org/2000/svg"
  xmlns:xlink="http://www.w3.org/1999/xlink"
  version="1.1"
  width="2.8448mm" height="1.4986mm" viewBox="0.0000 0.0000 2.8448 1.4986">
<title>SVG Image created as outline.svg date 2025/06/16 09:17:39 </title>
  <desc>Image generated by PCBNEW </desc>
<g style="fill:#000000; fill-opacity:1.0000;stroke:#000000; stroke-opacity:1.0000;
stroke-linecap:round; stroke-linejoin:round;"
 transform="translate(0 0) scale(1 1)">
</g>
<g style="fill:none; 
stroke:#000000; stroke-width:0.0200; stroke-opacity:1; 
stroke-linecap:round; stroke-linejoin:round;">
<path d="M1.1239 1.0790
L1.2929 0.7490
" />
<path d="M1.1319 0.4040
L1.2229 0.4040
" />
<path d="M1.2229 1.0940
L1.1319 1.0940
" />
<path d="M1.2469 0.4200
L1.3929 0.7040
" />
<path d="M1.2929 0.7490
L1.1239 0.4200
" />
<path d="M1.3929 0.7960
L1.2469 1.0790
" />
<path d="M1.4569 0.7040
L1.6029 0.4200
" />
<path d="M1.5549 0.7490
L1.7239 1.0790
" />
<path d="M1.6029 1.0790
L1.4569 0.7960
" />
<path d="M1.6259 0.4040
L1.7159 0.4040
" />
<path d="M1.7159 1.0940
L1.6259 1.0940
" />
<path d="M1.7239 0.4200
L1.5549 0.7490
" />
<path style="fill:none; 
stroke:#000000; stroke-width:0.0200; stroke-opacity:1; 
stroke-linecap:round; stroke-linejoin:round;fill:none"
d="M 0.1750,0.2500
2.6750,0.2500
2.6750,1.2500
0.1750,1.2500
Z" /> 
<path d="M1.1319 0.4040 A0.0099 0.0099 0.0 0 0 1.1239 0.4200" />
<path d="M1.1229 1.0810 A0.0120 0.0120 0.0 0 0 1.1319 1.0940" />
<path d="M1.2469 0.4200 A0.0300 0.0300 0.0 0 0 1.2229 0.4040" />
<path d="M1.2229 1.0940 A0.0244 0.0244 0.0 0 0 1.2458 1.0809" />
<path d="M1.3929 0.7960 A0.0985 0.0985 0.0 0 0 1.3929 0.7040" />
<path d="M1.4569 0.7040 A0.1026 0.1026 0.0 0 0 1.4569 0.7960" />
<path d="M1.6259 0.4040 A0.0303 0.0303 0.0 0 0 1.6029 0.4200" />
<path d="M1.6029 1.0790 A0.0320 0.0320 0.0 0 0 1.6259 1.0940" />
<path d="M1.7239 0.4200 A0.0117 0.0117 0.0 0 0 1.7159 0.4040" />
<path d="M1.7159 1.0940 A0.0113 0.0113 0.0 0 0 1.7239 1.0790" />
<circle cx="1.8439" cy="1.0640" r="0.0510" /> 
</g> 
</svg>
