<?xml version="1.0" standalone="no"?>
 <!DOCTYPE svg PUBLIC "-//W3C//DTD SVG 1.1//EN" 
 "http://www.w3.org/Graphics/SVG/1.1/DTD/svg11.dtd"> 
<svg
  xmlns:svg="http://www.w3.org/2000/svg"
  xmlns="http://www.w3.org/2000/svg"
  xmlns:xlink="http://www.w3.org/1999/xlink"
  version="1.1"
  width="8.1534mm" height="6.4262mm" viewBox="0.0000 0.0000 8.1534 6.4262">
<title>SVG Image created as outline.svg date 2025/06/16 09:17:55 </title>
  <desc>Image generated by PCBNEW </desc>
<g style="fill:#000000; fill-opacity:1.0000;stroke:#000000; stroke-opacity:1.0000;
stroke-linecap:round; stroke-linejoin:round;"
 transform="translate(0 0) scale(1 1)">
</g>
<g style="fill:none; 
stroke:#000000; stroke-width:0.0200; stroke-opacity:1; 
stroke-linecap:round; stroke-linejoin:round;">
<path d="M0.2650 2.0050
L0.2650 4.5450
" />
<path d="M0.2650 4.5450
L2.5510 4.5450
" />
<path d="M1.2180 0.6340
L1.8530 0.6340
" />
<path d="M1.2180 2.0050
L1.2180 0.6340
" />
<path d="M1.2180 2.9580
L1.8530 2.9580
" />
<path d="M1.2180 3.5920
L1.2180 2.9580
" />
<path d="M1.2180 3.5920
L1.8530 3.5920
" />
<path d="M1.8530 2.0050
L1.8530 0.6340
" />
<path d="M1.8530 2.9580
L1.8530 3.5920
" />
<path d="M2.5510 2.0050
L0.2650 2.0050
" />
<path d="M2.5510 2.0050
L2.6980 2.2590
" />
<path d="M2.6980 2.2590
L2.9130 2.2590
" />
<path d="M2.6980 4.2910
L2.5510 4.5450
" />
<path d="M2.9130 2.2590
L3.0590 2.0050
" />
<path d="M2.9130 4.2910
L2.6980 4.2910
" />
<path d="M3.0590 4.5450
L2.9130 4.2910
" />
<path d="M3.0590 4.5450
L5.0910 4.5450
" />
<path d="M3.7580 2.9580
L4.3920 2.9580
" />
<path d="M3.7580 3.5920
L3.7580 2.9580
" />
<path d="M3.7580 3.5920
L4.3920 3.5920
" />
<path d="M3.7580 4.5450
L3.7580 5.9160
" />
<path d="M3.7580 5.9160
L4.3920 5.9160
" />
<path d="M4.3920 2.9580
L4.3920 3.5920
" />
<path d="M4.3920 5.9160
L4.3920 4.5450
" />
<path d="M5.0910 2.0050
L3.0590 2.0050
" />
<path d="M5.0910 2.0050
L5.2370 2.2590
" />
<path d="M5.2370 2.2590
L5.4520 2.2590
" />
<path d="M5.2370 4.2910
L5.0910 4.5450
" />
<path d="M5.4520 2.2590
L5.5990 2.0050
" />
<path d="M5.4520 4.2910
L5.2370 4.2910
" />
<path d="M5.5990 4.5450
L5.4520 4.2910
" />
<path d="M5.5990 4.5450
L7.8850 4.5450
" />
<path d="M6.2970 0.6340
L6.2970 2.0050
" />
<path d="M6.2970 0.6340
L6.9320 0.6340
" />
<path d="M6.2970 2.9580
L6.9320 2.9580
" />
<path d="M6.2970 3.5920
L6.2970 2.9580
" />
<path d="M6.2970 3.5920
L6.9320 3.5920
" />
<path d="M6.9320 2.0050
L6.9320 0.6340
" />
<path d="M6.9320 3.5920
L6.9320 2.9580
" />
<path d="M7.8850 2.0050
L5.5990 2.0050
" />
<path d="M7.8850 4.5450
L7.8850 2.0050
" />
</g> 
</svg>
