{
  "accessors": [
    {
      "bufferView": 0,
      "byteOffset": 0,
      "componentType": 5126,
      "normalized": false,
      "count": 16,
      "type": "VEC3",
      "max": [
        5.700948238372803,
        0.40017640590667725,
        5.700069904327393
      ],
      "min": [
        -5.700947284698486,
        0.0,
        -5.699738025665283
      ]
    },
    {
      "bufferView": 0,
      "byteOffset": 12,
      "componentType": 5126,
      "normalized": false,
      "count": 16,
      "type": "VEC3"
    },
    {
      "bufferView": 0,
      "byteOffset": 24,
      "componentType": 5126,
      "normalized": false,
      "count": 16,
      "type": "VEC2"
    },
    {
      "bufferView": 1,
      "byteOffset": 0,
      "componentType": 5123,
      "normalized": false,
      "count": 24,
      "type": "SCALAR"
    },
    {
      "bufferView": 1,
      "byteOffset": 48,
      "componentType": 5123,
      "normalized": false,
      "count": 6,
      "type": "SCALAR"
    },
    {
      "bufferView": 1,
      "byteOffset": 60,
      "componentType": 5123,
      "normalized": false,
      "count": 23439,
      "type": "SCALAR"
    },
    {
      "bufferView": 1,
      "byteOffset": 46940,
      "componentType": 5123,
      "normalized": false,
      "count": 6027,
      "type": "SCALAR"
    },
    {
      "bufferView": 2,
      "byteOffset": 0,
      "componentType": 5126,
      "normalized": false,
      "count": 4,
      "type": "VEC3",
      "max": [
        5.700948238372803,
        0.0,
        5.700069904327393
      ],
      "min": [
        -5.700947284698486,
        0.0,
        -5.699738025665283
      ]
    },
    {
      "bufferView": 2,
      "byteOffset": 12,
      "componentType": 5126,
      "normalized": false,
      "count": 4,
      "type": "VEC3"
    },
    {
      "bufferView": 2,
      "byteOffset": 24,
      "componentType": 5126,
      "normalized": false,
      "count": 4,
      "type": "VEC2"
    },
    {
      "bufferView": 3,
      "byteOffset": 0,
      "componentType": 5126,
      "normalized": false,
      "count": 12739,
      "type": "VEC3",
      "max": [
        5.700948238372803,
        2.895012855529785,
        5.699807167053223
      ],
      "min": [
        -5.700947284698486,
        0.3999999761581421,
        -5.700000762939453
      ]
    },
    {
      "bufferView": 3,
      "byteOffset": 12,
      "componentType": 5126,
      "normalized": false,
      "count": 12739,
      "type": "VEC3"
    },
    {
      "bufferView": 3,
      "byteOffset": 24,
      "componentType": 5126,
      "normalized": false,
      "count": 12739,
      "type": "VEC2"
    },
    {
      "bufferView": 4,
      "byteOffset": 0,
      "componentType": 5126,
      "normalized": false,
      "count": 2039,
      "type": "VEC3",
      "max": [
        4.792731761932373,
        2.851189136505127,
        5.178480625152588
      ],
      "min": [
        -4.932372570037842,
        2.851189136505127,
        -5.0603461265563965
      ]
    },
    {
      "bufferView": 4,
      "byteOffset": 12,
      "componentType": 5126,
      "normalized": false,
      "count": 2039,
      "type": "VEC3"
    },
    {
      "bufferView": 4,
      "byteOffset": 24,
      "componentType": 5126,
      "normalized": false,
      "count": 2039,
      "type": "VEC2"
    }
  ],
  "asset": {
    "generator": "pygltflib@v1.16.4",
    "version": "2.0"
  },
  "bufferViews": [
    {
      "buffer": 0,
      "byteOffset": 0,
      "byteLength": 512,
      "byteStride": 32,
      "target": 34962
    },
    {
      "buffer": 0,
      "byteOffset": 512,
      "byteLength": 58996,
      "target": 34963
    },
    {
      "buffer": 0,
      "byteOffset": 59508,
      "byteLength": 128,
      "byteStride": 32,
      "target": 34962
    },
    {
      "buffer": 0,
      "byteOffset": 59636,
      "byteLength": 407648,
      "byteStride": 32,
      "target": 34962
    },
    {
      "buffer": 0,
      "byteOffset": 467284,
      "byteLength": 65248,
      "byteStride": 32,
      "target": 34962
    }
  ],
  "buffers": [
    {
      "uri": "LGA-64_11.4x11.4mm_Myra-antmicro-myra-231f1f08.bin",
      "byteLength": 532532
    }
  ],
  "extensionsUsed": [
    "KHR_texture_basisu"
  ],
  "extensionsRequired": [
    "KHR_texture_basisu"
  ],
  "images": [
    {
      "uri": "../shared_textures/main_pcb_edge_bare_normal.ktx2",
      "mimeType": "image/ktx2",
      "name": "main_pcb_edge_bare_normal"
    },
    {
      "uri": "../shared_textures/main_pcb_edge_bare_color.ktx2",
      "mimeType": "image/ktx2",
      "name": "main_pcb_edge_bare_color"
    },
    {
      "uri": "main_pcb_bot_antmicro-myra-231f1f08_normal.ktx2",
      "mimeType": "image/ktx2",
      "name": "main_pcb_bot_antmicro-myra-231f1f08_normal"
    },
    {
      "uri": "main_pcb_bot_antmicro-myra-231f1f08_color.ktx2",
      "mimeType": "image/ktx2",
      "name": "main_pcb_bot_antmicro-myra-231f1f08_color"
    },
    {
      "uri": "main_pcb_bot_antmicro-myra-231f1f08_metallic-main_pcb_bot_antmicro-myra-231f1f08_roughness.ktx2",
      "mimeType": "image/ktx2",
      "name": "main_pcb_bot_antmicro-myra-231f1f08_metallic-main_pcb_bot_antmicro-myra-231f1f08_roughness"
    },
    {
      "uri": "../shared_textures/plastic_chip_normal.ktx2",
      "mimeType": "image/ktx2",
      "name": "plastic_chip_normal"
    },
    {
      "uri": "../shared_textures/plastic_chip_color.ktx2",
      "mimeType": "image/ktx2",
      "name": "plastic_chip_color"
    },
    {
      "uri": "../shared_textures/plastic_chip_laser_color.ktx2",
      "mimeType": "image/ktx2",
      "name": "plastic_chip_laser_color"
    }
  ],
  "materials": [
    {
      "pbrMetallicRoughness": {
        "baseColorFactor": [
          1.0,
          1.0,
          1.0,
          1.0
        ],
        "metallicFactor": 0.10000000149011612,
        "roughnessFactor": 0.5,
        "baseColorTexture": {
          "index": 0,
          "texCoord": 0
        }
      },
      "normalTexture": {
        "index": 1,
        "scale": 1.0
      },
      "emissiveFactor": [
        0.0,
        0.0,
        0.0
      ],
      "alphaMode": "OPAQUE",
      "alphaCutoff": 0.5,
      "doubleSided": true,
      "name": "gltf_main_pcb_edge_bare"
    },
    {
      "pbrMetallicRoughness": {
        "baseColorFactor": [
          1.0,
          1.0,
          1.0,
          1.0
        ],
        "metallicFactor": 1.0,
        "roughnessFactor": 1.5,
        "baseColorTexture": {
          "index": 2,
          "texCoord": 0
        },
        "metallicRoughnessTexture": {
          "index": 4,
          "texCoord": 0
        }
      },
      "normalTexture": {
        "index": 3,
        "scale": 1.0
      },
      "emissiveFactor": [
        0.0,
        0.0,
        0.0
      ],
      "alphaMode": "OPAQUE",
      "alphaCutoff": 0.5,
      "doubleSided": true,
      "name": "gltf_main_pcb_bot_antmicro-myra-231f1f08"
    },
    {
      "pbrMetallicRoughness": {
        "baseColorFactor": [
          1.0,
          1.0,
          1.0,
          1.0
        ],
        "metallicFactor": 0.13699999451637268,
        "roughnessFactor": 0.37063413858413696,
        "baseColorTexture": {
          "index": 5,
          "texCoord": 0
        }
      },
      "normalTexture": {
        "index": 6,
        "scale": 1.0
      },
      "emissiveFactor": [
        0.0,
        0.0,
        0.0
      ],
      "alphaMode": "OPAQUE",
      "alphaCutoff": 0.5,
      "doubleSided": true,
      "name": "gltf_plastic_chip"
    },
    {
      "pbrMetallicRoughness": {
        "baseColorFactor": [
          1.0,
          1.0,
          1.0,
          1.0
        ],
        "metallicFactor": 0.2454545497894287,
        "roughnessFactor": 0.9954545497894287,
        "baseColorTexture": {
          "index": 7,
          "texCoord": 0
        }
      },
      "emissiveFactor": [
        0.0,
        0.0,
        0.0
      ],
      "alphaMode": "OPAQUE",
      "alphaCutoff": 0.5,
      "doubleSided": true,
      "name": "gltf_plastic_chip_laser"
    }
  ],
  "meshes": [
    {
      "primitives": [
        {
          "attributes": {
            "POSITION": 0,
            "NORMAL": 1,
            "TEXCOORD_0": 2
          },
          "indices": 3,
          "mode": 4,
          "material": 0
        },
        {
          "attributes": {
            "POSITION": 7,
            "NORMAL": 8,
            "TEXCOORD_0": 9
          },
          "indices": 4,
          "mode": 4,
          "material": 1
        },
        {
          "attributes": {
            "POSITION": 10,
            "NORMAL": 11,
            "TEXCOORD_0": 12
          },
          "indices": 5,
          "mode": 4,
          "material": 2
        },
        {
          "attributes": {
            "POSITION": 13,
            "NORMAL": 14,
            "TEXCOORD_0": 15
          },
          "indices": 6,
          "mode": 4,
          "material": 3
        }
      ],
      "name": "PCB_layer1_mesh"
    }
  ],
  "nodes": [
    {
      "extras": {
        "model_diagonal": 16.381195978034587
      },
      "mesh": 0,
      "name": "LGA-64_11.4x11.4mm_Myra-antmicro-myra-231f1f08"
    }
  ],
  "samplers": [
    {
      "magFilter": 9729,
      "minFilter": 9987,
      "wrapS": 10497,
      "wrapT": 10497
    }
  ],
  "scene": 0,
  "scenes": [
    {
      "name": "Scene",
      "nodes": [
        0
      ]
    }
  ],
  "textures": [
    {
      "extensions": {
        "KHR_texture_basisu": {
          "source": 1
        }
      },
      "sampler": 0
    },
    {
      "extensions": {
        "KHR_texture_basisu": {
          "source": 0
        }
      },
      "sampler": 0
    },
    {
      "extensions": {
        "KHR_texture_basisu": {
          "source": 3
        }
      },
      "sampler": 0
    },
    {
      "extensions": {
        "KHR_texture_basisu": {
          "source": 2
        }
      },
      "sampler": 0
    },
    {
      "extensions": {
        "KHR_texture_basisu": {
          "source": 4
        }
      },
      "sampler": 0
    },
    {
      "extensions": {
        "KHR_texture_basisu": {
          "source": 6
        }
      },
      "sampler": 0
    },
    {
      "extensions": {
        "KHR_texture_basisu": {
          "source": 5
        }
      },
      "sampler": 0
    },
    {
      "extensions": {
        "KHR_texture_basisu": {
          "source": 7
        }
      },
      "sampler": 0
    }
  ]
}