<?xml version="1.0" standalone="no"?>
 <!DOCTYPE svg PUBLIC "-//W3C//DTD SVG 1.1//EN" 
 "http://www.w3.org/Graphics/SVG/1.1/DTD/svg11.dtd"> 
<svg
  xmlns:svg="http://www.w3.org/2000/svg"
  xmlns="http://www.w3.org/2000/svg"
  xmlns:xlink="http://www.w3.org/1999/xlink"
  version="1.1"
  width="1.9304mm" height="2.2352mm" viewBox="0.0000 0.0000 1.9304 2.2352">
<title>SVG Image created as outline.svg date 2025/06/16 09:18:00 </title>
  <desc>Image generated by PCBNEW </desc>
<g style="fill:#000000; fill-opacity:1.0000;stroke:#000000; stroke-opacity:1.0000;
stroke-linecap:round; stroke-linejoin:round;"
 transform="translate(0 0) scale(1 1)">
</g>
<g style="fill:none; 
stroke:#000000; stroke-width:0.1000; stroke-opacity:1; 
stroke-linecap:round; stroke-linejoin:round;">
<path d="M0.3270 0.1190
L0.3270 2.1510
" />
<path d="M0.3270 2.1510
L1.6230 2.1510
" />
<path d="M0.4246 0.4850
L0.4283 0.5000
" />
<path d="M0.4283 0.4699
L0.4246 0.4850
" />
<path d="M0.4283 0.5000
L0.4386 0.5117
" />
<path d="M0.4386 0.4583
L0.4283 0.4699
" />
<path d="M0.4386 0.5117
L0.4531 0.5171
" />
<path d="M0.4531 0.4529
L0.4386 0.4583
" />
<path d="M0.4531 0.5171
L0.4685 0.5153
" />
<path d="M0.4685 0.4547
L0.4531 0.4529
" />
<path d="M0.4685 0.5153
L0.4812 0.5065
" />
<path d="M0.4812 0.4635
L0.4685 0.4547
" />
<path d="M0.4812 0.5065
L0.4884 0.4927
" />
<path d="M0.4884 0.4772
L0.4812 0.4635
" />
<path d="M0.4884 0.4927
L0.4884 0.4772
" />
<path d="M1.6230 0.1190
L0.3270 0.1190
" />
<path d="M1.6230 2.1510
L1.6230 0.1190
" />
</g> 
</svg>
