<?xml version="1.0" standalone="no"?>
 <!DOCTYPE svg PUBLIC "-//W3C//DTD SVG 1.1//EN" 
 "http://www.w3.org/Graphics/SVG/1.1/DTD/svg11.dtd"> 
<svg
  xmlns:svg="http://www.w3.org/2000/svg"
  xmlns="http://www.w3.org/2000/svg"
  xmlns:xlink="http://www.w3.org/1999/xlink"
  version="1.1"
  width="5.9436mm" height="5.5372mm" viewBox="0.0000 0.0000 5.9436 5.5372">
<title>SVG Image created as outline.svg date 2025/04/04 10:06:05 </title>
  <desc>Image generated by PCBNEW </desc>
<g style="fill:#000000; fill-opacity:1.0000;stroke:#000000; stroke-opacity:1.0000;
stroke-linecap:round; stroke-linejoin:round;"
 transform="translate(0 0) scale(1 1)">
</g>
<g style="fill:none; 
stroke:#000000; stroke-width:0.0200; stroke-opacity:1; 
stroke-linecap:round; stroke-linejoin:round;">
<path d="M0.4750 0.6750
L0.4750 4.8750
" />
<path d="M0.4750 4.8750
L0.6790 4.8750
" />
<path d="M0.4760 2.7750
L0.4780 2.8820
" />
<path d="M0.4780 2.6680
L0.4760 2.7750
" />
<path d="M0.4780 2.8820
L0.4850 2.9900
" />
<path d="M0.4850 2.5600
L0.4780 2.6680
" />
<path d="M0.4850 2.9900
L0.4970 3.0970
" />
<path d="M0.4970 2.4530
L0.4850 2.5600
" />
<path d="M0.4970 3.0970
L0.5130 3.2040
" />
<path d="M0.5130 2.3460
L0.4970 2.4530
" />
<path d="M0.5130 3.2040
L0.5340 3.3100
" />
<path d="M0.5340 2.2400
L0.5130 2.3460
" />
<path d="M0.5340 3.3100
L0.5600 3.4150
" />
<path d="M0.5600 2.1350
L0.5340 2.2400
" />
<path d="M0.5600 3.4150
L0.5900 3.5180
" />
<path d="M0.5900 2.0320
L0.5600 2.1350
" />
<path d="M0.5900 3.5180
L0.6250 3.6200
" />
<path d="M0.6250 1.3250
L0.6250 4.2250
" />
<path d="M0.6250 1.9300
L0.5900 2.0320
" />
<path d="M0.6250 4.2250
L1.6750 5.2750
" />
<path d="M0.6790 4.8750
L0.7160 4.7750
" />
<path d="M0.7160 4.7750
L0.7250 4.7750
" />
<path d="M0.7250 4.6740
L0.7250 4.7750
" />
<path d="M0.7250 4.7750
L0.7250 4.8250
" />
<path d="M0.7260 4.8250
L0.7250 4.8250
" />
<path d="M0.7260 4.8260
L0.7250 4.8250
" />
<path d="M0.7260 4.8260
L0.7260 4.8250
" />
<path d="M0.7260 4.8270
L0.7260 4.8250
" />
<path d="M0.7260 4.8280
L0.7260 4.8260
" />
<path d="M0.7270 4.8280
L0.7260 4.8260
" />
<path d="M0.7270 4.8290
L0.7260 4.8280
" />
<path d="M0.7270 4.8300
L0.7260 4.8270
" />
<path d="M0.7280 4.8290
L0.7270 4.8280
" />
<path d="M0.7280 4.8300
L0.7270 4.8290
" />
<path d="M0.7280 4.8310
L0.7280 4.8290
" />
<path d="M0.7290 4.8320
L0.7280 4.8300
" />
<path d="M0.7290 4.8320
L0.7280 4.8310
" />
<path d="M0.7300 4.8330
L0.7290 4.8320
" />
<path d="M0.7300 4.8340
L0.7290 4.8320
" />
<path d="M0.7310 4.8340
L0.7270 4.8300
" />
<path d="M0.7310 4.8350
L0.7300 4.8340
" />
<path d="M0.7330 4.8360
L0.7300 4.8330
" />
<path d="M0.7330 4.8360
L0.7310 4.8350
" />
<path d="M0.7340 4.8370
L0.7330 4.8360
" />
<path d="M0.7350 4.8380
L0.7340 4.8370
" />
<path d="M0.7370 4.8380
L0.7330 4.8360
" />
<path d="M0.7370 4.8390
L0.7350 4.8380
" />
<path d="M0.7380 4.8390
L0.7310 4.8340
" />
<path d="M0.7380 4.8400
L0.7370 4.8390
" />
<path d="M0.7400 4.8410
L0.7380 4.8400
" />
<path d="M0.7410 4.8400
L0.7370 4.8380
" />
<path d="M0.7420 4.8410
L0.7400 4.8410
" />
<path d="M0.7430 4.3420
L0.7250 4.6740
" />
<path d="M0.7430 4.8420
L0.7420 4.8410
" />
<path d="M0.7450 4.8430
L0.7410 4.8400
" />
<path d="M0.7450 4.8430
L0.7430 4.8420
" />
<path d="M0.7470 4.8430
L0.7380 4.8390
" />
<path d="M0.7500 4.8450
L0.7450 4.8430
" />
<path d="M0.7560 4.8470
L0.7500 4.8450
" />
<path d="M0.7580 4.8470
L0.7470 4.8430
" />
<path d="M0.7620 4.8490
L0.7560 4.8470
" />
<path d="M0.7680 4.8510
L0.7620 4.8490
" />
<path d="M0.7710 4.8510
L0.7580 4.8470
" />
<path d="M0.7740 4.8520
L0.7680 4.8510
" />
<path d="M0.7850 4.8550
L0.7710 4.8510
" />
<path d="M0.7870 4.8560
L0.7740 4.8520
" />
<path d="M0.8010 4.8580
L0.7870 4.8560
" />
</g>
<g style="fill:#000000; fill-opacity:1.0000; stroke:none;">
<circle cx="0.8010" cy="4.8580" r="0.0100" /> 
</g>
<g style="fill:none; 
stroke:#000000; stroke-width:0.0200; stroke-opacity:1; 
stroke-linecap:round; stroke-linejoin:round;">
<path d="M0.8020 4.8590
L0.7850 4.8550
" />
<path d="M0.8200 4.8620
L0.8020 4.8590
" />
<path d="M0.8210 4.8620
L0.8010 4.8580
" />
<path d="M0.8390 4.8650
L0.8200 4.8620
" />
<path d="M0.8420 4.8650
L0.8210 4.8620
" />
<path d="M0.8600 4.8670
L0.8390 4.8650
" />
<path d="M0.8630 4.8680
L0.8420 4.8650
" />
<path d="M0.8820 4.8690
L0.8600 4.8670
" />
<path d="M0.8850 4.8700
L0.8630 4.8680
" />
<path d="M0.9060 4.8710
L0.8850 4.8700
" />
<path d="M0.9270 4.8720
L0.8820 4.8690
" />
<path d="M0.9290 4.8720
L0.9060 4.8710
" />
<path d="M0.9510 4.8730
L0.9270 4.8720
" />
<path d="M0.9510 4.8730
L0.9290 4.8720
" />
<path d="M0.9750 4.6740
L0.7250 4.6740
" />
</g>
<g style="fill:#000000; fill-opacity:1.0000; stroke:none;">
<circle cx="0.9750" cy="4.6740" r="0.0100" /> 
</g>
<g style="fill:none; 
stroke:#000000; stroke-width:0.0200; stroke-opacity:1; 
stroke-linecap:round; stroke-linejoin:round;">
<path d="M0.9750 4.7750
L0.7250 4.7750
" />
</g>
<g style="fill:#000000; fill-opacity:1.0000; stroke:none;">
<circle cx="0.9750" cy="4.7750" r="0.0100" /> 
</g>
<g style="fill:none; 
stroke:#000000; stroke-width:0.0200; stroke-opacity:1; 
stroke-linecap:round; stroke-linejoin:round;">
<path d="M0.9750 4.8730
L0.9510 4.8730
" />
<path d="M0.9750 4.8730
L0.9510 4.8730
" />
</g>
<g style="fill:#000000; fill-opacity:1.0000; stroke:none;">
<circle cx="0.9750" cy="4.8730" r="0.0100" /> 
<circle cx="0.9750" cy="4.8730" r="0.0100" /> 
</g>
<g style="fill:none; 
stroke:#000000; stroke-width:0.0200; stroke-opacity:1; 
stroke-linecap:round; stroke-linejoin:round;">
<path d="M0.9950 4.8730
L0.9750 4.8730
" />
<path d="M1.0000 4.8730
L0.9750 4.8730
" />
<path d="M1.0160 4.8730
L0.9950 4.8730
" />
<path d="M1.0240 4.8720
L1.0000 4.8730
" />
<path d="M1.0370 4.8720
L1.0160 4.8730
" />
<path d="M1.0470 4.8710
L1.0240 4.8720
" />
<path d="M1.0580 4.8700
L1.0370 4.8720
" />
<path d="M1.0690 4.8690
L1.0470 4.8710
" />
<path d="M1.0760 4.6740
L0.9750 4.6740
" />
<path d="M1.0780 4.8690
L1.0580 4.8700
" />
<path d="M1.0910 4.8670
L1.0690 4.8690
" />
<path d="M1.0980 4.8660
L1.0780 4.8690
" />
<path d="M1.1120 4.8650
L1.0910 4.8670
" />
<path d="M1.1180 4.8640
L1.0980 4.8660
" />
<path d="M1.1310 4.8620
L1.1120 4.8650
" />
<path d="M1.1370 4.8610
L1.1180 4.8640
" />
</g>
<g style="fill:#000000; fill-opacity:1.0000; stroke:none;">
<circle cx="1.1370" cy="4.8610" r="0.0100" /> 
</g>
<g style="fill:none; 
stroke:#000000; stroke-width:0.0200; stroke-opacity:1; 
stroke-linecap:round; stroke-linejoin:round;">
<path d="M1.1450 4.8590
L1.1370 4.8610
" />
<path d="M1.1490 4.8590
L1.1310 4.8620
" />
<path d="M1.1520 4.8580
L1.1450 4.8590
" />
<path d="M1.1600 4.8560
L1.1520 4.8580
" />
<path d="M1.1660 4.8550
L1.1490 4.8590
" />
<path d="M1.1680 4.8550
L1.1600 4.8560
" />
<path d="M1.1750 4.7750
L0.9750 4.7750
" />
<path d="M1.1750 4.8530
L1.1680 4.8550
" />
<path d="M1.1800 4.8510
L1.1660 4.8550
" />
<path d="M1.1820 4.8510
L1.1750 4.8530
" />
<path d="M1.1890 4.8490
L1.1820 4.8510
" />
<path d="M1.1930 4.8470
L1.1800 4.8510
" />
<path d="M1.1960 4.8470
L1.1890 4.8490
" />
<path d="M1.2020 4.8440
L1.1960 4.8470
" />
<path d="M1.2040 4.8430
L1.1930 4.8470
" />
<path d="M1.2070 4.8420
L1.2020 4.8440
" />
<path d="M1.2090 4.8410
L1.2040 4.8430
" />
<path d="M1.2090 4.8410
L1.2070 4.8420
" />
<path d="M1.2100 4.8410
L1.2070 4.8420
" />
<path d="M1.2100 4.8410
L1.2090 4.8410
" />
<path d="M1.2120 4.8390
L1.2100 4.8410
" />
<path d="M1.2120 4.8400
L1.2100 4.8410
" />
<path d="M1.2130 4.8390
L1.2090 4.8410
" />
<path d="M1.2140 4.8380
L1.2120 4.8390
" />
<path d="M1.2140 4.8390
L1.2120 4.8400
" />
<path d="M1.2150 4.8390
L1.2140 4.8390
" />
<path d="M1.2160 4.8370
L1.2140 4.8380
" />
<path d="M1.2160 4.8380
L1.2150 4.8390
" />
<path d="M1.2170 4.8360
L1.2130 4.8390
" />
<path d="M1.2180 4.8350
L1.2160 4.8370
" />
<path d="M1.2180 4.8370
L1.2160 4.8380
" />
<path d="M1.2190 4.8360
L1.2180 4.8370
" />
<path d="M1.2200 4.8340
L1.2170 4.8360
" />
<path d="M1.2200 4.8340
L1.2180 4.8350
" />
<path d="M1.2200 4.8350
L1.2190 4.8360
" />
<path d="M1.2210 4.8320
L1.2200 4.8340
" />
<path d="M1.2210 4.8330
L1.2200 4.8350
" />
<path d="M1.2220 4.8320
L1.2200 4.8340
" />
<path d="M1.2220 4.8320
L1.2210 4.8330
" />
<path d="M1.2230 4.8310
L1.2210 4.8320
" />
<path d="M1.2230 4.8310
L1.2220 4.8320
" />
<path d="M1.2240 4.8280
L1.2240 4.8290
" />
<path d="M1.2240 4.8290
L1.2230 4.8310
" />
<path d="M1.2240 4.8300
L1.2220 4.8320
" />
<path d="M1.2240 4.8300
L1.2230 4.8310
" />
</g>
<g style="fill:#000000; fill-opacity:1.0000; stroke:none;">
<circle cx="1.2250" cy="4.8250" r="0.0100" /> 
</g>
<g style="fill:none; 
stroke:#000000; stroke-width:0.0200; stroke-opacity:1; 
stroke-linecap:round; stroke-linejoin:round;">
<path d="M1.2250 4.8250
L1.2250 4.8260
" />
<path d="M1.2250 4.8250
L1.2250 4.8260
" />
<path d="M1.2250 4.8250
L1.2250 4.8270
" />
<path d="M1.2250 4.8260
L1.2240 4.8280
" />
<path d="M1.2250 4.8260
L1.2250 4.8280
" />
<path d="M1.2250 4.8270
L1.2240 4.8300
" />
<path d="M1.2250 4.8280
L1.2240 4.8300
" />
<path d="M1.2700 4.8690
L1.2720 4.8750
" />
<path d="M1.2720 4.8750
L1.2750 4.8750
" />
<path d="M1.2750 0.6750
L0.4750 0.6750
" />
<path d="M1.6750 0.2750
L0.6250 1.3250
" />
<path d="M1.6750 5.2750
L4.2750 5.2750
" />
<path d="M4.0930 3.9090
L4.5930 3.9090
" />
<path d="M4.0930 4.4090
L4.0930 3.9090
" />
<path d="M4.2750 0.2750
L1.6750 0.2750
" />
<path d="M4.2750 5.2750
L5.3250 4.2250
" />
<path d="M4.5930 3.9090
L4.5930 4.4090
" />
<path d="M4.5930 4.4090
L4.0930 4.4090
" />
<path d="M4.6750 4.8750
L4.6780 4.8750
" />
<path d="M4.6800 4.8690
L4.6780 4.8750
" />
</g>
<g style="fill:#000000; fill-opacity:1.0000; stroke:none;">
<circle cx="4.7250" cy="4.8250" r="0.0100" /> 
</g>
<g style="fill:none; 
stroke:#000000; stroke-width:0.0200; stroke-opacity:1; 
stroke-linecap:round; stroke-linejoin:round;">
<path d="M4.7250 4.8260
L4.7250 4.8250
" />
<path d="M4.7250 4.8270
L4.7250 4.8250
" />
<path d="M4.7250 4.8280
L4.7250 4.8260
" />
<path d="M4.7260 4.8290
L4.7250 4.8270
" />
<path d="M4.7260 4.8290
L4.7250 4.8280
" />
<path d="M4.7270 4.8300
L4.7260 4.8290
" />
<path d="M4.7270 4.8300
L4.7260 4.8290
" />
<path d="M4.7270 4.8310
L4.7270 4.8300
" />
<path d="M4.7280 4.8320
L4.7270 4.8300
" />
<path d="M4.7280 4.8320
L4.7270 4.8310
" />
<path d="M4.7290 4.8330
L4.7280 4.8320
" />
<path d="M4.7290 4.8330
L4.7280 4.8320
" />
<path d="M4.7290 4.8340
L4.7290 4.8330
" />
<path d="M4.7300 4.8340
L4.7260 4.8290
" />
<path d="M4.7300 4.8340
L4.7290 4.8340
" />
<path d="M4.7310 4.8350
L4.7300 4.8340
" />
<path d="M4.7320 4.8350
L4.7290 4.8330
" />
<path d="M4.7320 4.8360
L4.7310 4.8350
" />
</g>
<g style="fill:#000000; fill-opacity:1.0000; stroke:none;">
<circle cx="4.7320" cy="4.8360" r="0.0100" /> 
</g>
<g style="fill:none; 
stroke:#000000; stroke-width:0.0200; stroke-opacity:1; 
stroke-linecap:round; stroke-linejoin:round;">
<path d="M4.7330 4.8370
L4.7320 4.8360
" />
<path d="M4.7340 4.8370
L4.7330 4.8370
" />
<path d="M4.7350 4.8380
L4.7340 4.8370
" />
<path d="M4.7360 4.8380
L4.7320 4.8350
" />
<path d="M4.7360 4.8380
L4.7350 4.8380
" />
<path d="M4.7370 4.8390
L4.7300 4.8340
" />
<path d="M4.7370 4.8390
L4.7360 4.8380
" />
<path d="M4.7380 4.8390
L4.7370 4.8390
" />
<path d="M4.7390 4.8400
L4.7380 4.8390
" />
<path d="M4.7400 4.8400
L4.7360 4.8380
" />
<path d="M4.7440 4.8420
L4.7400 4.8400
" />
<path d="M4.7460 4.8430
L4.7370 4.8390
" />
<path d="M4.7490 4.8450
L4.7440 4.8420
" />
<path d="M4.7550 4.8470
L4.7490 4.8450
" />
<path d="M4.7570 4.8470
L4.7460 4.8430
" />
<path d="M4.7610 4.8490
L4.7550 4.8470
" />
<path d="M4.7670 4.8500
L4.7610 4.8490
" />
<path d="M4.7700 4.8510
L4.7570 4.8470
" />
<path d="M4.7730 4.8520
L4.7670 4.8500
" />
<path d="M4.7840 4.8550
L4.7700 4.8510
" />
<path d="M4.7870 4.8550
L4.7730 4.8520
" />
<path d="M4.8000 4.8580
L4.7870 4.8550
" />
</g>
<g style="fill:#000000; fill-opacity:1.0000; stroke:none;">
<circle cx="4.8000" cy="4.8580" r="0.0100" /> 
</g>
<g style="fill:none; 
stroke:#000000; stroke-width:0.0200; stroke-opacity:1; 
stroke-linecap:round; stroke-linejoin:round;">
<path d="M4.8010 4.8580
L4.7840 4.8550
" />
<path d="M4.8190 4.8620
L4.8010 4.8580
" />
<path d="M4.8210 4.8620
L4.8000 4.8580
" />
<path d="M4.8380 4.8640
L4.8190 4.8620
" />
<path d="M4.8420 4.8650
L4.8210 4.8620
" />
<path d="M4.8590 4.8670
L4.8380 4.8640
" />
<path d="M4.8630 4.8670
L4.8420 4.8650
" />
<path d="M4.8810 4.8690
L4.8590 4.8670
" />
<path d="M4.8840 4.8690
L4.8630 4.8670
" />
<path d="M4.9060 4.8710
L4.8840 4.8690
" />
<path d="M4.9260 4.8720
L4.8810 4.8690
" />
<path d="M4.9280 4.8720
L4.9060 4.8710
" />
<path d="M4.9500 4.8730
L4.9260 4.8720
" />
<path d="M4.9500 4.8730
L4.9280 4.8720
" />
<path d="M4.9730 4.8730
L4.9500 4.8730
" />
</g>
<g style="fill:#000000; fill-opacity:1.0000; stroke:none;">
<circle cx="4.9730" cy="4.8730" r="0.0100" /> 
</g>
<g style="fill:none; 
stroke:#000000; stroke-width:0.0200; stroke-opacity:1; 
stroke-linecap:round; stroke-linejoin:round;">
<path d="M4.9750 4.6740
L4.8740 4.6740
" />
</g>
<g style="fill:#000000; fill-opacity:1.0000; stroke:none;">
<circle cx="4.9750" cy="4.6740" r="0.0100" /> 
</g>
<g style="fill:none; 
stroke:#000000; stroke-width:0.0200; stroke-opacity:1; 
stroke-linecap:round; stroke-linejoin:round;">
<path d="M4.9750 4.7750
L4.7750 4.7750
" />
</g>
<g style="fill:#000000; fill-opacity:1.0000; stroke:none;">
<circle cx="4.9750" cy="4.7750" r="0.0100" /> 
</g>
<g style="fill:none; 
stroke:#000000; stroke-width:0.0200; stroke-opacity:1; 
stroke-linecap:round; stroke-linejoin:round;">
<path d="M4.9750 4.8730
L4.9500 4.8730
" />
</g>
<g style="fill:#000000; fill-opacity:1.0000; stroke:none;">
<circle cx="4.9750" cy="4.8730" r="0.0100" /> 
</g>
<g style="fill:none; 
stroke:#000000; stroke-width:0.0200; stroke-opacity:1; 
stroke-linecap:round; stroke-linejoin:round;">
<path d="M4.9950 4.8730
L4.9730 4.8730
" />
<path d="M4.9990 4.8730
L4.9750 4.8730
" />
<path d="M5.0150 4.8720
L4.9950 4.8730
" />
<path d="M5.0230 4.8720
L4.9990 4.8730
" />
<path d="M5.0360 4.8710
L5.0150 4.8720
" />
<path d="M5.0460 4.8710
L5.0230 4.8720
" />
<path d="M5.0570 4.8700
L5.0360 4.8710
" />
<path d="M5.0680 4.8690
L5.0460 4.8710
" />
<path d="M5.0770 4.8680
L5.0570 4.8700
" />
<path d="M5.0900 4.8670
L5.0680 4.8690
" />
<path d="M5.0970 4.8660
L5.0770 4.8680
" />
<path d="M5.1110 4.8640
L5.0900 4.8670
" />
<path d="M5.1170 4.8630
L5.0970 4.8660
" />
<path d="M5.1300 4.8620
L5.1110 4.8640
" />
<path d="M5.1360 4.8610
L5.1170 4.8630
" />
</g>
<g style="fill:#000000; fill-opacity:1.0000; stroke:none;">
<circle cx="5.1360" cy="4.8610" r="0.0100" /> 
</g>
<g style="fill:none; 
stroke:#000000; stroke-width:0.0200; stroke-opacity:1; 
stroke-linecap:round; stroke-linejoin:round;">
<path d="M5.1440 4.8590
L5.1360 4.8610
" />
<path d="M5.1480 4.8580
L5.1300 4.8620
" />
<path d="M5.1520 4.8580
L5.1440 4.8590
" />
<path d="M5.1590 4.8560
L5.1520 4.8580
" />
<path d="M5.1650 4.8550
L5.1480 4.8580
" />
<path d="M5.1670 4.8540
L5.1590 4.8560
" />
<path d="M5.1740 4.8520
L5.1670 4.8540
" />
<path d="M5.1790 4.8510
L5.1650 4.8550
" />
<path d="M5.1820 4.8510
L5.1740 4.8520
" />
<path d="M5.1880 4.8490
L5.1820 4.8510
" />
<path d="M5.1920 4.8470
L5.1790 4.8510
" />
<path d="M5.1950 4.8460
L5.1880 4.8490
" />
<path d="M5.2010 4.8440
L5.1950 4.8460
" />
<path d="M5.2030 4.8430
L5.1920 4.8470
" />
<path d="M5.2060 4.8420
L5.2010 4.8440
" />
<path d="M5.2080 4.8410
L5.2030 4.8430
" />
<path d="M5.2090 4.3400
L5.2170 4.5000
" />
<path d="M5.2090 4.8400
L5.2060 4.8420
" />
<path d="M5.2110 4.8390
L5.2090 4.8400
" />
<path d="M5.2120 4.8390
L5.2080 4.8410
" />
<path d="M5.2130 4.8380
L5.2110 4.8390
" />
<path d="M5.2150 4.8370
L5.2130 4.8380
" />
<path d="M5.2160 4.8360
L5.2120 4.8390
" />
<path d="M5.2170 4.5000
L5.2250 4.6740
" />
<path d="M5.2170 4.8350
L5.2150 4.8370
" />
<path d="M5.2190 4.8340
L5.2160 4.8360
" />
<path d="M5.2190 4.8340
L5.2170 4.8350
" />
<path d="M5.2200 4.8320
L5.2190 4.8340
" />
<path d="M5.2210 4.8320
L5.2190 4.8340
" />
<path d="M5.2220 4.8310
L5.2200 4.8320
" />
<path d="M5.2230 4.8290
L5.2210 4.8320
" />
<path d="M5.2230 4.8290
L5.2220 4.8310
" />
<path d="M5.2240 4.8260
L5.2240 4.8280
" />
<path d="M5.2240 4.8270
L5.2230 4.8290
" />
<path d="M5.2240 4.8280
L5.2230 4.8290
" />
<path d="M5.2250 4.6740
L4.9750 4.6740
" />
<path d="M5.2250 4.6740
L5.2250 4.7750
" />
<path d="M5.2250 4.7750
L4.9750 4.7750
" />
<path d="M5.2250 4.7750
L5.2250 4.8250
" />
<path d="M5.2250 4.7750
L5.2340 4.7750
" />
<path d="M5.2250 4.8250
L5.2240 4.8260
" />
<path d="M5.2250 4.8250
L5.2240 4.8270
" />
</g>
<g style="fill:#000000; fill-opacity:1.0000; stroke:none;">
<circle cx="5.2250" cy="4.8250" r="0.0100" /> 
</g>
<g style="fill:none; 
stroke:#000000; stroke-width:0.0200; stroke-opacity:1; 
stroke-linecap:round; stroke-linejoin:round;">
<path d="M5.2340 4.7750
L5.2250 4.7750
" />
<path d="M5.2710 4.8750
L5.2340 4.7750
" />
<path d="M5.2710 4.8750
L5.4750 4.8750
" />
<path d="M5.3250 1.3250
L4.2750 0.2750
" />
<path d="M5.3250 3.6200
L5.3600 3.5180
" />
<path d="M5.3250 4.2250
L5.3250 1.3250
" />
<path d="M5.3600 2.0320
L5.3250 1.9300
" />
<path d="M5.3600 3.5180
L5.3900 3.4150
" />
<path d="M5.3900 2.1350
L5.3600 2.0320
" />
<path d="M5.3900 3.4150
L5.4160 3.3100
" />
<path d="M5.4160 2.2400
L5.3900 2.1350
" />
<path d="M5.4160 3.3100
L5.4370 3.2040
" />
<path d="M5.4370 2.3460
L5.4160 2.2400
" />
<path d="M5.4370 3.2040
L5.4530 3.0970
" />
<path d="M5.4530 2.4530
L5.4370 2.3460
" />
<path d="M5.4530 3.0970
L5.4650 2.9900
" />
<path d="M5.4650 2.5600
L5.4530 2.4530
" />
<path d="M5.4650 2.9900
L5.4720 2.8820
" />
<path d="M5.4720 2.6680
L5.4650 2.5600
" />
<path d="M5.4720 2.8820
L5.4740 2.7750
" />
<path d="M5.4740 2.7750
L5.4720 2.6680
" />
<path d="M5.4750 0.6750
L4.6750 0.6750
" />
<path d="M5.4750 4.8750
L5.4750 0.6750
" />
</g> 
</svg>
