<?xml version="1.0" standalone="no"?>
 <!DOCTYPE svg PUBLIC "-//W3C//DTD SVG 1.1//EN" 
 "http://www.w3.org/Graphics/SVG/1.1/DTD/svg11.dtd"> 
<svg
  xmlns:svg="http://www.w3.org/2000/svg"
  xmlns="http://www.w3.org/2000/svg"
  xmlns:xlink="http://www.w3.org/1999/xlink"
  version="1.1"
  width="20.4470mm" height="6.8326mm" viewBox="0.0000 0.0000 20.4470 6.8326">
<title>SVG Image created as outline.svg date 2025/06/16 09:17:49 </title>
  <desc>Image generated by PCBNEW </desc>
<g style="fill:#000000; fill-opacity:1.0000;stroke:#000000; stroke-opacity:1.0000;
stroke-linecap:round; stroke-linejoin:round;"
 transform="translate(0 0) scale(1 1)">
</g>
<g style="fill:none; 
stroke:#000000; stroke-width:0.0200; stroke-opacity:1; 
stroke-linecap:round; stroke-linejoin:round;">
<path d="M0.5240 4.5240
L19.9220 4.5240
" />
<path d="M0.5240 5.7250
L0.5240 4.5240
" />
<path d="M0.5240 5.7290
L0.5240 5.7250
" />
<path d="M0.5240 5.7290
L0.5240 5.7250
" />
<path d="M0.5240 5.7340
L0.5240 5.7290
" />
<path d="M0.5240 5.7340
L0.5240 5.7290
" />
<path d="M0.5240 5.7380
L0.5240 5.7340
" />
<path d="M0.5240 5.7380
L0.5240 5.7340
" />
<path d="M0.5260 5.7430
L0.5240 5.7380
" />
<path d="M0.5260 5.7430
L0.5240 5.7380
" />
<path d="M0.5260 5.7490
L0.5260 5.7430
" />
<path d="M0.5260 5.7490
L0.5260 5.7430
" />
<path d="M0.5290 5.7540
L0.5260 5.7490
" />
<path d="M0.5290 5.7540
L0.5260 5.7490
" />
<path d="M0.5300 5.7580
L0.5290 5.7540
" />
<path d="M0.5300 5.7580
L0.5290 5.7540
" />
<path d="M0.5320 5.7620
L0.5300 5.7580
" />
<path d="M0.5320 5.7620
L0.5300 5.7580
" />
<path d="M0.5330 5.7660
L0.5320 5.7620
" />
<path d="M0.5330 5.7660
L0.5320 5.7620
" />
<path d="M0.5360 5.7710
L0.5330 5.7660
" />
<path d="M0.5360 5.7710
L0.5330 5.7660
" />
<path d="M0.5390 5.7750
L0.5360 5.7710
" />
<path d="M0.5390 5.7750
L0.5360 5.7710
" />
<path d="M0.5420 5.7790
L0.5390 5.7750
" />
<path d="M0.5420 5.7790
L0.5390 5.7750
" />
<path d="M0.5430 5.7830
L0.5420 5.7790
" />
<path d="M0.5430 5.7830
L0.5420 5.7790
" />
<path d="M0.5460 5.7870
L0.5430 5.7830
" />
<path d="M0.5460 5.7870
L0.5430 5.7830
" />
<path d="M0.5510 5.7900
L0.5460 5.7870
" />
<path d="M0.5510 5.7900
L0.5460 5.7870
" />
<path d="M0.5530 5.7940
L0.5510 5.7900
" />
<path d="M0.5530 5.7940
L0.5510 5.7900
" />
<path d="M0.5580 5.7980
L0.5530 5.7940
" />
<path d="M0.5580 5.7980
L0.5530 5.7940
" />
<path d="M0.5610 5.8020
L0.5580 5.7980
" />
<path d="M0.5610 5.8020
L0.5580 5.7980
" />
<path d="M0.5650 5.8050
L0.5610 5.8020
" />
<path d="M0.5650 5.8050
L0.5610 5.8020
" />
<path d="M0.5680 5.8060
L0.5650 5.8050
" />
<path d="M0.5680 5.8060
L0.5650 5.8050
" />
<path d="M0.5720 5.8100
L0.5680 5.8060
" />
<path d="M0.5720 5.8100
L0.5680 5.8060
" />
<path d="M0.5770 5.8130
L0.5720 5.8100
" />
<path d="M0.5770 5.8130
L0.5720 5.8100
" />
<path d="M0.5810 5.8140
L0.5770 5.8130
" />
<path d="M0.5810 5.8140
L0.5770 5.8130
" />
<path d="M0.5850 5.8170
L0.5810 5.8140
" />
<path d="M0.5850 5.8170
L0.5810 5.8140
" />
<path d="M0.5900 5.8180
L0.5850 5.8170
" />
<path d="M0.5900 5.8180
L0.5850 5.8170
" />
<path d="M0.5940 5.8190
L0.5900 5.8180
" />
<path d="M0.5940 5.8190
L0.5900 5.8180
" />
<path d="M0.6000 5.8220
L0.5940 5.8190
" />
<path d="M0.6000 5.8220
L0.5940 5.8190
" />
<path d="M0.6040 5.8220
L0.6000 5.8220
" />
<path d="M0.6040 5.8220
L0.6000 5.8220
" />
<path d="M0.6100 5.8230
L0.6040 5.8220
" />
<path d="M0.6100 5.8230
L0.6040 5.8220
" />
<path d="M0.6140 5.8230
L0.6100 5.8230
" />
<path d="M0.6140 5.8230
L0.6100 5.8230
" />
<path d="M0.6190 5.8230
L0.6140 5.8230
" />
<path d="M0.6190 5.8230
L0.6140 5.8230
" />
<path d="M0.6250 5.8230
L0.6190 5.8230
" />
<path d="M0.6250 5.8230
L0.6190 5.8230
" />
<path d="M0.6250 5.8230
L19.8220 5.8230
" />
<path d="M0.6930 2.9160
L0.6930 2.9200
" />
<path d="M0.6930 2.9200
L0.6930 2.9240
" />
<path d="M0.6930 2.9240
L0.6930 2.9290
" />
<path d="M0.6930 2.9290
L0.6940 2.9340
" />
</g>
<g style="fill:#000000; fill-opacity:1.0000; stroke:none;">
<circle cx="0.6940" cy="2.0130" r="0.0100" /> 
</g>
<g style="fill:none; 
stroke:#000000; stroke-width:0.0200; stroke-opacity:1; 
stroke-linecap:round; stroke-linejoin:round;">
<path d="M0.6940 2.0130
L0.6940 2.0190
" />
<path d="M0.6940 2.0190
L0.6940 2.0230
" />
<path d="M0.6940 2.0230
L0.6940 2.0270
" />
<path d="M0.6940 2.0270
L0.6940 2.0330
" />
<path d="M0.6940 2.0330
L0.6940 2.0370
" />
<path d="M0.6940 2.0370
L0.6960 2.0410
" />
<path d="M0.6940 2.9110
L0.6930 2.9160
" />
</g>
<g style="fill:#000000; fill-opacity:1.0000; stroke:none;">
<circle cx="0.6940" cy="2.9340" r="0.0100" /> 
</g>
<g style="fill:none; 
stroke:#000000; stroke-width:0.0200; stroke-opacity:1; 
stroke-linecap:round; stroke-linejoin:round;">
<path d="M0.6940 2.9340
L0.6940 2.9380
" />
<path d="M0.6940 2.9380
L0.6960 2.9430
" />
<path d="M0.6960 2.0050
L0.6960 2.0090
" />
<path d="M0.6960 2.0090
L0.6940 2.0130
" />
<path d="M0.6960 2.0410
L0.6960 2.0470
" />
<path d="M0.6960 2.0470
L0.6970 2.0510
" />
<path d="M0.6960 2.9020
L0.6960 2.9070
" />
<path d="M0.6960 2.9070
L0.6940 2.9110
" />
<path d="M0.6960 2.9430
L0.6960 2.9480
" />
<path d="M0.6960 2.9480
L0.6970 2.9520
" />
<path d="M0.6970 1.9990
L0.6960 2.0050
" />
<path d="M0.6970 2.0510
L0.6990 2.0550
" />
<path d="M0.6970 2.8980
L0.6960 2.9020
" />
<path d="M0.6970 2.9520
L0.6990 2.9580
" />
<path d="M0.6990 1.9900
L0.6990 1.9950
" />
<path d="M0.6990 1.9950
L0.6970 1.9990
" />
<path d="M0.6990 2.0550
L0.7000 2.0590
" />
<path d="M0.6990 2.8880
L0.6990 2.8930
" />
<path d="M0.6990 2.8930
L0.6970 2.8980
" />
<path d="M0.6990 2.9580
L0.7000 2.9620
" />
<path d="M0.7000 2.0590
L0.7030 2.0630
" />
<path d="M0.7000 2.9620
L0.7030 2.9660
" />
<path d="M0.7020 1.9860
L0.6990 1.9900
" />
<path d="M0.7020 2.8840
L0.6990 2.8880
" />
<path d="M0.7030 1.9820
L0.7020 1.9860
" />
<path d="M0.7030 2.0630
L0.7050 2.0670
" />
<path d="M0.7030 2.8800
L0.7020 2.8840
" />
<path d="M0.7030 2.9660
L0.7050 2.9700
" />
<path d="M0.7050 2.0670
L0.7060 2.0710
" />
<path d="M0.7050 2.9700
L0.7060 2.9740
" />
<path d="M0.7060 1.9780
L0.7030 1.9820
" />
<path d="M0.7060 2.0710
L0.7090 2.0750
" />
<path d="M0.7060 2.8760
L0.7030 2.8800
" />
<path d="M0.7060 2.9740
L0.7090 2.9780
" />
<path d="M0.7080 1.9740
L0.7060 1.9780
" />
<path d="M0.7080 2.8720
L0.7060 2.8760
" />
<path d="M0.7090 1.9700
L0.7080 1.9740
" />
<path d="M0.7090 2.0750
L0.7100 2.0790
" />
<path d="M0.7090 2.9780
L0.7120 2.9820
" />
<path d="M0.7100 2.0790
L0.7130 2.0830
" />
<path d="M0.7100 2.8680
L0.7080 2.8720
" />
<path d="M0.7120 1.9660
L0.7090 1.9700
" />
<path d="M0.7120 2.8640
L0.7100 2.8680
" />
<path d="M0.7120 2.9820
L0.7150 2.9860
" />
<path d="M0.7130 2.0830
L0.7160 2.0870
" />
<path d="M0.7150 1.9620
L0.7120 1.9660
" />
<path d="M0.7150 2.8610
L0.7120 2.8640
" />
<path d="M0.7150 2.9860
L0.7180 2.9880
" />
<path d="M0.7160 2.0870
L0.7190 2.0910
" />
<path d="M0.7180 1.9600
L0.7150 1.9620
" />
<path d="M0.7180 2.9880
L0.7210 2.9910
" />
<path d="M0.7190 2.0910
L0.7220 2.0930
" />
<path d="M0.7190 2.8580
L0.7150 2.8610
" />
<path d="M0.7210 1.9560
L0.7180 1.9600
" />
<path d="M0.7210 2.9910
L0.7240 2.9950
" />
<path d="M0.7220 2.0930
L0.7250 2.0970
" />
<path d="M0.7220 2.8550
L0.7190 2.8580
" />
<path d="M0.7240 1.9520
L0.7210 1.9560
" />
<path d="M0.7240 2.9950
L0.7260 2.9980
" />
<path d="M0.7250 2.0970
L0.7280 2.0990
" />
<path d="M0.7250 2.8520
L0.7220 2.8550
" />
<path d="M0.7260 2.9980
L0.7290 3.0010
" />
<path d="M0.7280 1.9500
L0.7240 1.9520
" />
<path d="M0.7280 2.0990
L0.7310 2.1030
" />
<path d="M0.7280 2.8490
L0.7250 2.8520
" />
<path d="M0.7290 3.0010
L0.7340 3.0030
" />
<path d="M0.7310 1.9460
L0.7280 1.9500
" />
<path d="M0.7310 2.1030
L0.7350 2.1050
" />
<path d="M0.7310 2.8460
L0.7280 2.8490
" />
<path d="M0.7340 1.9440
L0.7310 1.9460
" />
<path d="M0.7340 3.0030
L0.7380 3.0060
" />
<path d="M0.7350 2.1050
L0.7390 2.1070
" />
<path d="M0.7350 2.8430
L0.7310 2.8460
" />
<path d="M0.7380 1.9420
L0.7340 1.9440
" />
<path d="M0.7380 2.8410
L0.7350 2.8430
" />
<path d="M0.7380 3.0060
L0.7410 3.0090
" />
<path d="M0.7390 2.1070
L0.7440 2.1110
" />
<path d="M0.7410 1.9380
L0.7380 1.9420
" />
<path d="M0.7410 3.0090
L0.7440 3.0110
" />
<path d="M0.7420 2.8380
L0.7380 2.8410
" />
<path d="M0.7440 2.1110
L0.7480 2.1130
" />
<path d="M0.7440 3.0110
L0.7480 3.0130
" />
<path d="M0.7450 1.9360
L0.7410 1.9380
" />
<path d="M0.7470 2.8360
L0.7420 2.8380
" />
<path d="M0.7480 2.1130
L0.7510 2.1150
" />
<path d="M0.7480 3.0130
L0.7530 3.0150
" />
<path d="M0.7500 1.9340
L0.7450 1.9360
" />
<path d="M0.7510 2.1150
L0.7550 2.1170
" />
<path d="M0.7510 2.8340
L0.7470 2.8360
" />
<path d="M0.7530 3.0150
L0.7570 3.0170
" />
<path d="M0.7540 1.9320
L0.7500 1.9340
" />
<path d="M0.7550 2.1170
L0.7600 2.1190
" />
<path d="M0.7550 2.8320
L0.7510 2.8340
" />
<path d="M0.7570 1.9300
L0.7540 1.9320
" />
<path d="M0.7570 3.0170
L0.7610 3.0190
" />
<path d="M0.7600 2.1190
L0.7640 2.1190
" />
<path d="M0.7600 2.8300
L0.7550 2.8320
" />
<path d="M0.7610 1.9300
L0.7570 1.9300
" />
<path d="M0.7610 3.0190
L0.7660 3.0210
" />
<path d="M0.7640 2.1190
L0.7690 2.1210
" />
<path d="M0.7640 2.8290
L0.7600 2.8300
" />
<path d="M0.7660 3.0210
L0.7700 3.0220
" />
<path d="M0.7670 1.9280
L0.7610 1.9300
" />
<path d="M0.7690 2.1210
L0.7730 2.1210
" />
<path d="M0.7690 2.8280
L0.7640 2.8290
" />
<path d="M0.7700 1.9260
L0.7670 1.9280
" />
<path d="M0.7700 3.0220
L0.7740 3.0230
" />
<path d="M0.7730 2.1210
L1.0740 2.1840
" />
<path d="M0.7730 2.8270
L0.7690 2.8280
" />
<path d="M0.7740 3.0230
L0.7800 3.0240
" />
<path d="M0.7760 1.9260
L0.7700 1.9260
" />
<path d="M0.7800 1.9260
L0.7760 1.9260
" />
<path d="M0.7800 3.0240
L0.7830 3.0240
" />
<path d="M0.7830 3.0240
L0.7890 3.0240
" />
<path d="M0.7850 1.9240
L0.7800 1.9260
" />
<path d="M0.7890 1.9240
L0.7850 1.9240
" />
<path d="M0.7890 3.0240
L0.7930 3.0250
" />
<path d="M0.7930 3.0250
L1.0740 3.0250
" />
<path d="M0.7950 1.9240
L0.7890 1.9240
" />
<path d="M0.7950 1.9240
L1.0740 1.9240
" />
<path d="M0.8240 4.5240
L0.8370 4.5240
" />
<path d="M0.8370 4.5240
L0.8490 4.5220
" />
<path d="M0.8490 4.5220
L0.8600 4.5220
" />
<path d="M0.8600 4.5220
L0.8730 4.5180
" />
<path d="M0.8730 4.5180
L0.8850 4.5160
" />
<path d="M0.8850 4.5160
L0.8960 4.5120
" />
<path d="M0.8960 4.5120
L0.9080 4.5100
" />
<path d="M0.9080 4.5100
L0.9200 4.5040
" />
<path d="M0.9200 4.5040
L0.9300 4.5000
" />
<path d="M0.9300 4.5000
L0.9420 4.4940
" />
<path d="M0.9420 4.4940
L0.9530 4.4880
" />
<path d="M0.9530 4.4880
L0.9620 4.4820
" />
<path d="M0.9620 4.4820
L0.9720 4.4740
" />
<path d="M0.9720 4.4740
L0.9820 4.4680
" />
<path d="M0.9820 4.4680
L0.9910 4.4600
" />
<path d="M0.9910 4.4600
L1.0010 4.4500
" />
</g>
<g style="fill:#000000; fill-opacity:1.0000; stroke:none;">
<circle cx="1.0010" cy="4.4500" r="0.0100" /> 
</g>
<g style="fill:none; 
stroke:#000000; stroke-width:0.0200; stroke-opacity:1; 
stroke-linecap:round; stroke-linejoin:round;">
<path d="M1.0010 4.4500
L1.0100 4.4420
" />
<path d="M1.0100 4.4420
L1.0170 4.4320
" />
<path d="M1.0170 4.4320
L1.0240 4.4230
" />
<path d="M1.0240 4.4230
L1.0320 4.4130
" />
<path d="M1.0320 4.4130
L1.0390 4.4030
" />
<path d="M1.0390 4.4030
L1.0450 4.3910
" />
<path d="M1.0450 4.3910
L1.0490 4.3810
" />
<path d="M1.0490 4.3810
L1.0550 4.3690
" />
<path d="M1.0550 4.3690
L1.0590 4.3590
" />
<path d="M1.0590 4.3590
L1.0620 4.3470
" />
<path d="M1.0620 4.3470
L1.0670 4.3350
" />
<path d="M1.0670 4.3350
L1.0680 4.3230
" />
<path d="M1.0680 4.3230
L1.0710 4.3110
" />
<path d="M1.0710 4.3110
L1.0720 4.2990
" />
<path d="M1.0720 4.2990
L1.0740 4.2860
" />
<path d="M1.0740 1.5250
L1.0740 4.2730
" />
<path d="M1.0740 1.5250
L1.5240 1.5250
" />
<path d="M1.0740 2.7640
L0.7730 2.8270
" />
<path d="M1.0740 4.2860
L1.0740 4.2730
" />
<path d="M1.5240 1.5250
L1.5240 4.5240
" />
<path d="M1.5240 1.5250
L2.2950 1.5250
" />
<path d="M1.6940 4.0230
L1.6940 1.9240
" />
<path d="M2.0940 2.5650
L2.0960 2.5550
" />
<path d="M2.0940 2.5730
L2.0940 2.5650
" />
<path d="M2.0940 2.5830
L2.0940 2.5730
" />
<path d="M2.0960 2.5550
L2.0970 2.5460
" />
<path d="M2.0960 2.5930
L2.0940 2.5830
" />
<path d="M2.0970 2.5460
L2.1000 2.5360
" />
<path d="M2.0970 2.6020
L2.0960 2.5930
" />
<path d="M2.1000 2.5360
L2.1010 2.5270
" />
<path d="M2.1000 2.6120
L2.0970 2.6020
" />
<path d="M2.1010 2.5270
L2.1060 2.5170
" />
<path d="M2.1010 2.6210
L2.1000 2.6120
" />
<path d="M2.1060 2.5170
L2.1100 2.5080
" />
<path d="M2.1060 2.6310
L2.1010 2.6210
" />
<path d="M2.1100 2.5080
L2.1150 2.4990
" />
<path d="M2.1100 2.6410
L2.1060 2.6310
" />
</g>
<g style="fill:#000000; fill-opacity:1.0000; stroke:none;">
<circle cx="2.1150" cy="2.4990" r="0.0100" /> 
</g>
<g style="fill:none; 
stroke:#000000; stroke-width:0.0200; stroke-opacity:1; 
stroke-linecap:round; stroke-linejoin:round;">
<path d="M2.1150 2.4990
L2.1160 2.4940
" />
<path d="M2.1150 2.6500
L2.1100 2.6410
" />
</g>
<g style="fill:#000000; fill-opacity:1.0000; stroke:none;">
<circle cx="2.1150" cy="2.6500" r="0.0100" /> 
</g>
<g style="fill:none; 
stroke:#000000; stroke-width:0.0200; stroke-opacity:1; 
stroke-linecap:round; stroke-linejoin:round;">
<path d="M2.1160 2.4940
L2.1190 2.4900
" />
<path d="M2.1190 2.4900
L2.1220 2.4860
" />
<path d="M2.1190 2.6580
L2.1150 2.6500
" />
<path d="M2.1220 2.4860
L2.1260 2.4820
" />
<path d="M2.1260 2.4820
L2.1290 2.4780
" />
<path d="M2.1260 2.6660
L2.1190 2.6580
" />
<path d="M2.1290 2.4780
L2.1320 2.4740
" />
<path d="M2.1320 2.4740
L2.1350 2.4710
" />
<path d="M2.1320 2.6740
L2.1260 2.6660
" />
<path d="M2.1350 2.4710
L2.1380 2.4670
" />
<path d="M2.1380 2.4670
L2.1420 2.4640
" />
<path d="M2.1380 2.6810
L2.1320 2.6740
" />
<path d="M2.1420 2.4640
L2.1450 2.4610
" />
<path d="M2.1450 2.4610
L2.1490 2.4570
" />
<path d="M2.1450 2.6870
L2.1380 2.6810
" />
<path d="M2.1490 2.4570
L2.1520 2.4540
" />
<path d="M2.1520 2.4540
L2.1570 2.4510
" />
<path d="M2.1520 2.6940
L2.1450 2.6870
" />
<path d="M2.1570 2.4510
L2.1610 2.4490
" />
<path d="M2.1610 2.4490
L2.1640 2.4460
" />
<path d="M2.1610 2.6980
L2.1520 2.6940
" />
<path d="M2.1640 2.4460
L2.1700 2.4440
" />
<path d="M2.1700 2.4440
L2.1740 2.4420
" />
<path d="M2.1700 2.7030
L2.1610 2.6980
" />
<path d="M2.1740 2.4420
L2.1770 2.4400
" />
<path d="M2.1770 2.4400
L2.1810 2.4380
" />
<path d="M2.1770 2.7080
L2.1700 2.7030
" />
<path d="M2.1810 2.4380
L2.1870 2.4360
" />
<path d="M2.1870 2.4360
L2.1900 2.4340
" />
<path d="M2.1870 2.7120
L2.1770 2.7080
" />
<path d="M2.1900 2.4340
L2.1960 2.4330
" />
<path d="M2.1960 2.4330
L2.2000 2.4310
" />
<path d="M2.1960 2.7150
L2.1870 2.7120
" />
<path d="M2.2000 2.4310
L2.2050 2.4300
" />
<path d="M2.2050 2.4300
L2.2090 2.4280
" />
<path d="M2.2050 2.7180
L2.1960 2.7150
" />
<path d="M2.2090 2.4280
L2.2150 2.4270
" />
<path d="M2.2150 2.4270
L2.2190 2.4270
" />
<path d="M2.2150 2.7210
L2.2050 2.7180
" />
<path d="M2.2190 2.4270
L2.2250 2.4260
" />
<path d="M2.2250 2.4260
L2.2290 2.4250
" />
<path d="M2.2250 2.7220
L2.2150 2.7210
" />
<path d="M2.2290 2.4250
L2.2350 2.4250
" />
<path d="M2.2350 2.4250
L2.2380 2.4250
" />
<path d="M2.2350 2.7230
L2.2250 2.7220
" />
<path d="M2.2380 2.4250
L2.2440 2.4240
" />
<path d="M2.2440 2.4240
L2.7850 2.4240
" />
<path d="M2.2440 2.7240
L2.2350 2.7230
" />
<path d="M2.4440 1.6740
L2.2950 1.5250
" />
<path d="M2.4440 1.9240
L2.4440 1.6740
" />
<path d="M2.4440 2.7240
L2.4440 2.4240
" />
<path d="M2.4440 4.1240
L2.4440 4.0230
" />
<path d="M2.5940 1.8250
L2.4440 1.6740
" />
<path d="M2.5940 1.8250
L2.5940 1.9240
" />
<path d="M2.5940 2.4240
L2.5940 2.7240
" />
<path d="M2.5940 4.0230
L2.5940 4.1240
" />
<path d="M2.7850 1.9240
L1.6940 1.9240
" />
<path d="M2.7850 1.9240
L2.9940 1.9240
" />
<path d="M2.7850 2.7240
L2.2440 2.7240
" />
<path d="M2.7850 2.7240
L2.9940 2.7240
" />
<path d="M2.7850 4.0230
L1.6940 4.0230
" />
<path d="M2.7850 4.0230
L2.9940 4.0230
" />
<path d="M2.7950 1.7240
L2.7950 1.9240
" />
<path d="M2.7950 1.7240
L2.9940 1.7240
" />
<path d="M2.7950 4.1240
L2.4440 4.1240
" />
<path d="M2.7950 4.1240
L2.7950 4.5240
" />
<path d="M2.9940 1.7240
L2.9940 1.9240
" />
<path d="M2.9940 2.0250
L2.9940 1.9240
" />
<path d="M2.9940 2.0250
L2.9940 1.9240
" />
<path d="M2.9940 2.4240
L2.7850 2.4240
" />
<path d="M2.9940 4.5240
L2.9940 2.0250
" />
<path d="M2.9940 4.5240
L19.9220 4.5240
" />
<path d="M3.4940 1.5250
L2.9940 2.0250
" />
<path d="M3.4940 1.5250
L3.8750 1.5250
" />
<path d="M3.8750 0.7240
L4.0740 0.7240
" />
<path d="M3.8750 1.2250
L3.8750 0.7240
" />
<path d="M3.8750 1.2250
L4.0740 1.2250
" />
<path d="M3.8750 1.5250
L3.8750 1.2250
" />
<path d="M3.8750 1.5250
L3.8750 2.0250
" />
<path d="M3.8750 1.5250
L4.0740 1.5250
" />
<path d="M3.8750 2.0250
L3.8750 1.5250
" />
<path d="M3.8750 2.0250
L4.0740 2.0250
" />
<path d="M3.8750 2.0250
L4.0740 2.0250
" />
<path d="M4.0740 1.2250
L4.0740 0.7240
" />
<path d="M4.0740 1.5250
L4.0740 1.2250
" />
<path d="M4.0740 1.5250
L4.0740 2.0250
" />
<path d="M4.0740 1.5250
L4.3750 1.5250
" />
<path d="M4.0740 2.0250
L4.0740 1.5250
" />
<path d="M4.3750 0.7240
L4.5740 0.7240
" />
<path d="M4.3750 1.2250
L4.3750 0.7240
" />
<path d="M4.3750 1.2250
L4.5740 1.2250
" />
<path d="M4.3750 1.5250
L4.3750 1.2250
" />
<path d="M4.3750 1.5250
L4.3750 2.0250
" />
<path d="M4.3750 1.5250
L4.5740 1.5250
" />
<path d="M4.3750 2.0250
L4.3750 1.5250
" />
<path d="M4.3750 2.0250
L4.5740 2.0250
" />
<path d="M4.3750 2.0250
L4.5740 2.0250
" />
<path d="M4.5740 1.2250
L4.5740 0.7240
" />
<path d="M4.5740 1.5250
L4.5740 1.2250
" />
<path d="M4.5740 1.5250
L4.5740 2.0250
" />
<path d="M4.5740 1.5250
L4.8750 1.5250
" />
<path d="M4.5740 2.0250
L4.5740 1.5250
" />
<path d="M4.8750 0.7240
L5.0740 0.7240
" />
<path d="M4.8750 1.2250
L4.8750 0.7240
" />
<path d="M4.8750 1.2250
L5.0740 1.2250
" />
<path d="M4.8750 1.5250
L4.8750 1.2250
" />
<path d="M4.8750 1.5250
L4.8750 2.0250
" />
<path d="M4.8750 1.5250
L5.0740 1.5250
" />
<path d="M4.8750 2.0250
L4.8750 1.5250
" />
<path d="M4.8750 2.0250
L5.0740 2.0250
" />
<path d="M4.8750 2.0250
L5.0740 2.0250
" />
<path d="M5.0740 1.2250
L5.0740 0.7240
" />
<path d="M5.0740 1.5250
L5.0740 1.2250
" />
<path d="M5.0740 1.5250
L5.0740 2.0250
" />
<path d="M5.0740 1.5250
L5.3750 1.5250
" />
<path d="M5.0740 2.0250
L5.0740 1.5250
" />
<path d="M5.3750 0.7240
L5.5740 0.7240
" />
<path d="M5.3750 1.2250
L5.3750 0.7240
" />
<path d="M5.3750 1.2250
L5.5740 1.2250
" />
<path d="M5.3750 1.5250
L5.3750 1.2250
" />
<path d="M5.3750 1.5250
L5.3750 2.0250
" />
<path d="M5.3750 1.5250
L5.5740 1.5250
" />
<path d="M5.3750 2.0250
L5.3750 1.5250
" />
<path d="M5.3750 2.0250
L5.5740 2.0250
" />
<path d="M5.3750 2.0250
L5.5740 2.0250
" />
<path d="M5.5740 1.2250
L5.5740 0.7240
" />
<path d="M5.5740 1.5250
L5.5740 1.2250
" />
<path d="M5.5740 1.5250
L5.5740 2.0250
" />
<path d="M5.5740 1.5250
L5.8750 1.5250
" />
<path d="M5.5740 2.0250
L5.5740 1.5250
" />
<path d="M5.8750 0.7240
L6.0740 0.7240
" />
<path d="M5.8750 1.2250
L5.8750 0.7240
" />
<path d="M5.8750 1.2250
L6.0740 1.2250
" />
<path d="M5.8750 1.5250
L5.8750 1.2250
" />
<path d="M5.8750 1.5250
L5.8750 2.0250
" />
<path d="M5.8750 1.5250
L6.0740 1.5250
" />
<path d="M5.8750 2.0250
L5.8750 1.5250
" />
<path d="M5.8750 2.0250
L6.0740 2.0250
" />
<path d="M5.8750 2.0250
L6.0740 2.0250
" />
<path d="M6.0740 1.2250
L6.0740 0.7240
" />
<path d="M6.0740 1.5250
L6.0740 1.2250
" />
<path d="M6.0740 1.5250
L6.0740 2.0250
" />
<path d="M6.0740 1.5250
L6.3750 1.5250
" />
<path d="M6.0740 2.0250
L6.0740 1.5250
" />
<path d="M6.3750 0.7240
L6.5740 0.7240
" />
<path d="M6.3750 1.2250
L6.3750 0.7240
" />
<path d="M6.3750 1.2250
L6.5740 1.2250
" />
<path d="M6.3750 1.5250
L6.3750 1.2250
" />
<path d="M6.3750 1.5250
L6.3750 2.0250
" />
<path d="M6.3750 1.5250
L6.5740 1.5250
" />
<path d="M6.3750 2.0250
L6.3750 1.5250
" />
<path d="M6.3750 2.0250
L6.5740 2.0250
" />
<path d="M6.3750 2.0250
L6.5740 2.0250
" />
<path d="M6.5740 1.2250
L6.5740 0.7240
" />
<path d="M6.5740 1.5250
L6.5740 1.2250
" />
<path d="M6.5740 1.5250
L6.5740 2.0250
" />
<path d="M6.5740 1.5250
L6.8750 1.5250
" />
<path d="M6.5740 2.0250
L6.5740 1.5250
" />
<path d="M6.8750 0.7240
L7.0740 0.7240
" />
<path d="M6.8750 1.2250
L6.8750 0.7240
" />
<path d="M6.8750 1.2250
L7.0740 1.2250
" />
<path d="M6.8750 1.5250
L6.8750 1.2250
" />
<path d="M6.8750 1.5250
L6.8750 2.0250
" />
<path d="M6.8750 1.5250
L7.0740 1.5250
" />
<path d="M6.8750 2.0250
L6.8750 1.5250
" />
<path d="M6.8750 2.0250
L7.0740 2.0250
" />
<path d="M6.8750 2.0250
L7.0740 2.0250
" />
<path d="M7.0740 1.2250
L7.0740 0.7240
" />
<path d="M7.0740 1.5250
L7.0740 1.2250
" />
<path d="M7.0740 1.5250
L7.0740 2.0250
" />
<path d="M7.0740 1.5250
L7.3750 1.5250
" />
<path d="M7.0740 2.0250
L7.0740 1.5250
" />
<path d="M7.3750 0.7240
L7.5740 0.7240
" />
<path d="M7.3750 1.2250
L7.3750 0.7240
" />
<path d="M7.3750 1.2250
L7.5740 1.2250
" />
<path d="M7.3750 1.5250
L7.3750 1.2250
" />
<path d="M7.3750 1.5250
L7.3750 2.0250
" />
<path d="M7.3750 1.5250
L7.5740 1.5250
" />
<path d="M7.3750 2.0250
L7.3750 1.5250
" />
<path d="M7.3750 2.0250
L7.5740 2.0250
" />
<path d="M7.3750 2.0250
L7.5740 2.0250
" />
<path d="M7.5740 1.2250
L7.5740 0.7240
" />
<path d="M7.5740 1.5250
L7.5740 1.2250
" />
<path d="M7.5740 1.5250
L7.5740 2.0250
" />
<path d="M7.5740 1.5250
L7.8750 1.5250
" />
<path d="M7.5740 2.0250
L7.5740 1.5250
" />
<path d="M7.8750 0.7240
L8.0740 0.7240
" />
<path d="M7.8750 1.2250
L7.8750 0.7240
" />
<path d="M7.8750 1.2250
L8.0740 1.2250
" />
<path d="M7.8750 1.5250
L7.8750 1.2250
" />
<path d="M7.8750 1.5250
L7.8750 2.0250
" />
<path d="M7.8750 1.5250
L8.0740 1.5250
" />
<path d="M7.8750 2.0250
L7.8750 1.5250
" />
<path d="M7.8750 2.0250
L8.0740 2.0250
" />
<path d="M7.8750 2.0250
L8.0740 2.0250
" />
<path d="M8.0740 1.2250
L8.0740 0.7240
" />
<path d="M8.0740 1.5250
L8.0740 1.2250
" />
<path d="M8.0740 1.5250
L8.0740 2.0250
" />
<path d="M8.0740 1.5250
L8.3740 1.5250
" />
<path d="M8.0740 2.0250
L8.0740 1.5250
" />
<path d="M8.3740 0.7240
L8.5740 0.7240
" />
<path d="M8.3740 1.2250
L8.3740 0.7240
" />
<path d="M8.3740 1.2250
L8.5740 1.2250
" />
<path d="M8.3740 1.5250
L8.3740 1.2250
" />
<path d="M8.3740 1.5250
L8.3740 2.0250
" />
<path d="M8.3740 1.5250
L8.5740 1.5250
" />
<path d="M8.3740 2.0250
L8.3740 1.5250
" />
<path d="M8.3740 2.0250
L8.5740 2.0250
" />
<path d="M8.3740 2.0250
L8.5740 2.0250
" />
<path d="M8.5740 1.2250
L8.5740 0.7240
" />
<path d="M8.5740 1.5250
L8.5740 1.2250
" />
<path d="M8.5740 1.5250
L8.5740 2.0250
" />
<path d="M8.5740 1.5250
L8.8740 1.5250
" />
<path d="M8.5740 2.0250
L8.5740 1.5250
" />
<path d="M8.8740 0.7240
L9.0740 0.7240
" />
<path d="M8.8740 1.2250
L8.8740 0.7240
" />
<path d="M8.8740 1.2250
L9.0740 1.2250
" />
<path d="M8.8740 1.5250
L8.8740 1.2250
" />
<path d="M8.8740 1.5250
L8.8740 2.0250
" />
<path d="M8.8740 1.5250
L9.0740 1.5250
" />
<path d="M8.8740 2.0250
L8.8740 1.5250
" />
<path d="M8.8740 2.0250
L9.0740 2.0250
" />
<path d="M8.8740 2.0250
L9.0740 2.0250
" />
<path d="M9.0740 1.2250
L9.0740 0.7240
" />
<path d="M9.0740 1.5250
L9.0740 1.2250
" />
<path d="M9.0740 1.5250
L9.0740 2.0250
" />
<path d="M9.0740 1.5250
L9.3740 1.5250
" />
<path d="M9.0740 2.0250
L9.0740 1.5250
" />
<path d="M9.3740 0.7240
L9.5740 0.7240
" />
<path d="M9.3740 1.2250
L9.3740 0.7240
" />
<path d="M9.3740 1.2250
L9.5740 1.2250
" />
<path d="M9.3740 1.5250
L9.3740 1.2250
" />
<path d="M9.3740 1.5250
L9.3740 2.0250
" />
<path d="M9.3740 1.5250
L9.5740 1.5250
" />
<path d="M9.3740 2.0250
L9.3740 1.5250
" />
<path d="M9.3740 2.0250
L9.5740 2.0250
" />
<path d="M9.3740 2.0250
L9.5740 2.0250
" />
<path d="M9.5740 1.2250
L9.5740 0.7240
" />
<path d="M9.5740 1.5250
L9.5740 1.2250
" />
<path d="M9.5740 1.5250
L9.5740 2.0250
" />
<path d="M9.5740 1.5250
L9.8740 1.5250
" />
<path d="M9.5740 2.0250
L9.5740 1.5250
" />
<path d="M9.8740 0.7240
L10.0740 0.7240
" />
<path d="M9.8740 1.2250
L9.8740 0.7240
" />
<path d="M9.8740 1.2250
L10.0740 1.2250
" />
<path d="M9.8740 1.5250
L9.8740 1.2250
" />
<path d="M9.8740 1.5250
L9.8740 2.0250
" />
<path d="M9.8740 1.5250
L10.0740 1.5250
" />
<path d="M9.8740 2.0250
L9.8740 1.5250
" />
<path d="M9.8740 2.0250
L10.0740 2.0250
" />
<path d="M9.8740 2.0250
L10.0740 2.0250
" />
<path d="M10.0740 1.2250
L10.0740 0.7240
" />
<path d="M10.0740 1.5250
L10.0740 1.2250
" />
<path d="M10.0740 1.5250
L10.0740 2.0250
" />
<path d="M10.0740 1.5250
L10.3740 1.5250
" />
<path d="M10.0740 2.0250
L10.0740 1.5250
" />
<path d="M10.3740 0.7240
L10.5740 0.7240
" />
<path d="M10.3740 1.2250
L10.3740 0.7240
" />
<path d="M10.3740 1.2250
L10.5740 1.2250
" />
<path d="M10.3740 1.5250
L10.3740 1.2250
" />
<path d="M10.3740 1.5250
L10.3740 2.0250
" />
<path d="M10.3740 1.5250
L10.5740 1.5250
" />
<path d="M10.3740 2.0250
L10.3740 1.5250
" />
<path d="M10.3740 2.0250
L10.5740 2.0250
" />
<path d="M10.3740 2.0250
L10.5740 2.0250
" />
<path d="M10.5740 1.2250
L10.5740 0.7240
" />
<path d="M10.5740 1.5250
L10.5740 1.2250
" />
<path d="M10.5740 1.5250
L10.5740 2.0250
" />
<path d="M10.5740 1.5250
L10.8740 1.5250
" />
<path d="M10.5740 2.0250
L10.5740 1.5250
" />
<path d="M10.8740 0.7240
L11.0740 0.7240
" />
<path d="M10.8740 1.2250
L10.8740 0.7240
" />
<path d="M10.8740 1.2250
L11.0740 1.2250
" />
<path d="M10.8740 1.5250
L10.8740 1.2250
" />
<path d="M10.8740 1.5250
L10.8740 2.0250
" />
<path d="M10.8740 1.5250
L11.0740 1.5250
" />
<path d="M10.8740 2.0250
L10.8740 1.5250
" />
<path d="M10.8740 2.0250
L11.0740 2.0250
" />
<path d="M10.8740 2.0250
L11.0740 2.0250
" />
<path d="M11.0740 1.2250
L11.0740 0.7240
" />
<path d="M11.0740 1.5250
L11.0740 1.2250
" />
<path d="M11.0740 1.5250
L11.0740 2.0250
" />
<path d="M11.0740 1.5250
L11.3740 1.5250
" />
<path d="M11.0740 2.0250
L11.0740 1.5250
" />
<path d="M11.3740 0.7240
L11.5740 0.7240
" />
<path d="M11.3740 1.2250
L11.3740 0.7240
" />
<path d="M11.3740 1.2250
L11.5740 1.2250
" />
<path d="M11.3740 1.5250
L11.3740 1.2250
" />
<path d="M11.3740 1.5250
L11.3740 2.0250
" />
<path d="M11.3740 1.5250
L11.5740 1.5250
" />
<path d="M11.3740 2.0250
L11.3740 1.5250
" />
<path d="M11.3740 2.0250
L11.5740 2.0250
" />
<path d="M11.3740 2.0250
L11.5740 2.0250
" />
<path d="M11.5740 1.2250
L11.5740 0.7240
" />
<path d="M11.5740 1.5250
L11.5740 1.2250
" />
<path d="M11.5740 1.5250
L11.5740 2.0250
" />
<path d="M11.5740 1.5250
L11.8740 1.5250
" />
<path d="M11.5740 2.0250
L11.5740 1.5250
" />
<path d="M11.8740 0.7240
L12.0740 0.7240
" />
<path d="M11.8740 1.2250
L11.8740 0.7240
" />
<path d="M11.8740 1.2250
L12.0740 1.2250
" />
<path d="M11.8740 1.5250
L11.8740 1.2250
" />
<path d="M11.8740 1.5250
L11.8740 2.0250
" />
<path d="M11.8740 1.5250
L12.0740 1.5250
" />
<path d="M11.8740 2.0250
L11.8740 1.5250
" />
<path d="M11.8740 2.0250
L12.0740 2.0250
" />
<path d="M11.8740 2.0250
L12.0740 2.0250
" />
<path d="M12.0740 1.2250
L12.0740 0.7240
" />
<path d="M12.0740 1.5250
L12.0740 1.2250
" />
<path d="M12.0740 1.5250
L12.0740 2.0250
" />
<path d="M12.0740 1.5250
L12.3740 1.5250
" />
<path d="M12.0740 2.0250
L12.0740 1.5250
" />
<path d="M12.3740 0.7240
L12.5750 0.7240
" />
<path d="M12.3740 1.2250
L12.3740 0.7240
" />
<path d="M12.3740 1.2250
L12.5750 1.2250
" />
<path d="M12.3740 1.5250
L12.3740 1.2250
" />
<path d="M12.3740 1.5250
L12.3740 2.0250
" />
<path d="M12.3740 1.5250
L12.5750 1.5250
" />
<path d="M12.3740 2.0250
L12.3740 1.5250
" />
<path d="M12.3740 2.0250
L12.5750 2.0250
" />
<path d="M12.3740 2.0250
L12.5750 2.0250
" />
<path d="M12.5750 1.2250
L12.5750 0.7240
" />
<path d="M12.5750 1.5250
L12.5750 1.2250
" />
<path d="M12.5750 1.5250
L12.5750 2.0250
" />
<path d="M12.5750 1.5250
L12.8740 1.5250
" />
<path d="M12.5750 2.0250
L12.5750 1.5250
" />
<path d="M12.8740 0.7240
L13.0750 0.7240
" />
<path d="M12.8740 1.2250
L12.8740 0.7240
" />
<path d="M12.8740 1.2250
L13.0750 1.2250
" />
<path d="M12.8740 1.5250
L12.8740 1.2250
" />
<path d="M12.8740 1.5250
L12.8740 2.0250
" />
<path d="M12.8740 1.5250
L13.0750 1.5250
" />
<path d="M12.8740 2.0250
L12.8740 1.5250
" />
<path d="M12.8740 2.0250
L13.0750 2.0250
" />
<path d="M12.8740 2.0250
L13.0750 2.0250
" />
<path d="M13.0750 1.2250
L13.0750 0.7240
" />
<path d="M13.0750 1.5250
L13.0750 1.2250
" />
<path d="M13.0750 1.5250
L13.0750 2.0250
" />
<path d="M13.0750 1.5250
L13.3740 1.5250
" />
<path d="M13.0750 2.0250
L13.0750 1.5250
" />
<path d="M13.3740 0.7240
L13.5750 0.7240
" />
<path d="M13.3740 1.2250
L13.3740 0.7240
" />
<path d="M13.3740 1.2250
L13.5750 1.2250
" />
<path d="M13.3740 1.5250
L13.3740 1.2250
" />
<path d="M13.3740 1.5250
L13.3740 2.0250
" />
<path d="M13.3740 1.5250
L13.5750 1.5250
" />
<path d="M13.3740 2.0250
L13.3740 1.5250
" />
<path d="M13.3740 2.0250
L13.5750 2.0250
" />
<path d="M13.3740 2.0250
L13.5750 2.0250
" />
<path d="M13.5750 1.2250
L13.5750 0.7240
" />
<path d="M13.5750 1.5250
L13.5750 1.2250
" />
<path d="M13.5750 1.5250
L13.5750 2.0250
" />
<path d="M13.5750 1.5250
L13.8740 1.5250
" />
<path d="M13.5750 2.0250
L13.5750 1.5250
" />
<path d="M13.8740 0.7240
L14.0750 0.7240
" />
<path d="M13.8740 1.2250
L13.8740 0.7240
" />
<path d="M13.8740 1.2250
L14.0750 1.2250
" />
<path d="M13.8740 1.5250
L13.8740 1.2250
" />
<path d="M13.8740 1.5250
L13.8740 2.0250
" />
<path d="M13.8740 1.5250
L14.0750 1.5250
" />
<path d="M13.8740 2.0250
L13.8740 1.5250
" />
<path d="M13.8740 2.0250
L14.0750 2.0250
" />
<path d="M13.8740 2.0250
L14.0750 2.0250
" />
<path d="M14.0750 1.2250
L14.0750 0.7240
" />
<path d="M14.0750 1.5250
L14.0750 1.2250
" />
<path d="M14.0750 1.5250
L14.0750 2.0250
" />
<path d="M14.0750 1.5250
L14.3740 1.5250
" />
<path d="M14.0750 2.0250
L14.0750 1.5250
" />
<path d="M14.3740 0.7240
L14.5740 0.7240
" />
<path d="M14.3740 1.2250
L14.3740 0.7240
" />
<path d="M14.3740 1.2250
L14.5740 1.2250
" />
<path d="M14.3740 1.5250
L14.3740 1.2250
" />
<path d="M14.3740 1.5250
L14.3740 2.0250
" />
<path d="M14.3740 1.5250
L14.5740 1.5250
" />
<path d="M14.3740 2.0250
L14.3740 1.5250
" />
<path d="M14.3740 2.0250
L14.5740 2.0250
" />
<path d="M14.3740 2.0250
L14.5740 2.0250
" />
<path d="M14.5740 1.2250
L14.5740 0.7240
" />
<path d="M14.5740 1.5250
L14.5740 1.2250
" />
<path d="M14.5740 1.5250
L14.5740 2.0250
" />
<path d="M14.5740 1.5250
L14.8740 1.5250
" />
<path d="M14.5740 2.0250
L14.5740 1.5250
" />
<path d="M14.8740 0.7240
L15.0740 0.7240
" />
<path d="M14.8740 1.2250
L14.8740 0.7240
" />
<path d="M14.8740 1.2250
L15.0740 1.2250
" />
<path d="M14.8740 1.5250
L14.8740 1.2250
" />
<path d="M14.8740 1.5250
L14.8740 2.0250
" />
<path d="M14.8740 1.5250
L15.0740 1.5250
" />
<path d="M14.8740 2.0250
L14.8740 1.5250
" />
<path d="M14.8740 2.0250
L15.0740 2.0250
" />
<path d="M14.8740 2.0250
L15.0740 2.0250
" />
<path d="M15.0740 1.2250
L15.0740 0.7240
" />
<path d="M15.0740 1.5250
L15.0740 1.2250
" />
<path d="M15.0740 1.5250
L15.0740 2.0250
" />
<path d="M15.0740 1.5250
L15.3750 1.5250
" />
<path d="M15.0740 2.0250
L15.0740 1.5250
" />
<path d="M15.3750 0.7240
L15.5730 0.7240
" />
<path d="M15.3750 1.2250
L15.3750 0.7240
" />
<path d="M15.3750 1.2250
L15.5730 1.2250
" />
<path d="M15.3750 1.5250
L15.3750 1.2250
" />
<path d="M15.3750 1.5250
L15.3750 2.0250
" />
<path d="M15.3750 1.5250
L15.5730 1.5250
" />
<path d="M15.3750 2.0250
L15.3750 1.5250
" />
<path d="M15.3750 2.0250
L15.5730 2.0250
" />
<path d="M15.3750 2.0250
L15.5730 2.0250
" />
<path d="M15.5730 1.2250
L15.5730 0.7240
" />
<path d="M15.5730 1.5250
L15.5730 1.2250
" />
<path d="M15.5730 1.5250
L15.5730 2.0250
" />
<path d="M15.5730 1.5250
L15.8740 1.5250
" />
<path d="M15.5730 2.0250
L15.5730 1.5250
" />
<path d="M15.8740 0.7240
L16.0750 0.7240
" />
<path d="M15.8740 1.2250
L15.8740 0.7240
" />
<path d="M15.8740 1.2250
L16.0750 1.2250
" />
<path d="M15.8740 1.5250
L15.8740 1.2250
" />
<path d="M15.8740 1.5250
L15.8740 2.0250
" />
<path d="M15.8740 1.5250
L16.0750 1.5250
" />
<path d="M15.8740 2.0250
L15.8740 1.5250
" />
<path d="M15.8740 2.0250
L16.0750 2.0250
" />
<path d="M15.8740 2.0250
L16.0750 2.0250
" />
<path d="M16.0750 1.2250
L16.0750 0.7240
" />
<path d="M16.0750 1.5250
L16.0750 1.2250
" />
<path d="M16.0750 1.5250
L16.0750 2.0250
" />
<path d="M16.0750 1.5250
L16.3730 1.5250
" />
<path d="M16.0750 2.0250
L16.0750 1.5250
" />
<path d="M16.3730 0.7240
L16.5740 0.7240
" />
<path d="M16.3730 1.2250
L16.3730 0.7240
" />
<path d="M16.3730 1.2250
L16.5740 1.2250
" />
<path d="M16.3730 1.5250
L16.3730 1.2250
" />
<path d="M16.3730 1.5250
L16.3730 2.0250
" />
<path d="M16.3730 1.5250
L16.5740 1.5250
" />
<path d="M16.3730 2.0250
L16.3730 1.5250
" />
<path d="M16.3730 2.0250
L16.5740 2.0250
" />
<path d="M16.3730 2.0250
L16.5740 2.0250
" />
<path d="M16.3740 0.7240
L16.5720 0.7240
" />
<path d="M16.3740 1.2250
L16.3740 0.7240
" />
<path d="M16.3740 1.2250
L16.5720 1.2250
" />
<path d="M16.3740 1.5250
L16.3740 1.2250
" />
<path d="M16.3740 1.5250
L16.3740 2.0250
" />
<path d="M16.3740 1.5250
L16.5720 1.5250
" />
<path d="M16.3740 2.0250
L16.3740 1.5250
" />
<path d="M16.3740 2.0250
L16.5720 2.0250
" />
<path d="M16.3740 2.0250
L16.5720 2.0250
" />
<path d="M16.5720 1.2250
L16.5720 0.7240
" />
<path d="M16.5720 1.5250
L16.5720 1.2250
" />
<path d="M16.5720 1.5250
L16.5720 2.0250
" />
<path d="M16.5720 1.5250
L16.9540 1.5250
" />
<path d="M16.5720 2.0250
L16.5720 1.5250
" />
<path d="M16.5740 1.2250
L16.5740 0.7240
" />
<path d="M16.5740 1.5250
L16.5740 1.2250
" />
<path d="M16.5740 1.5250
L16.5740 2.0250
" />
<path d="M16.5740 1.5250
L16.8750 1.5250
" />
<path d="M16.5740 2.0250
L16.5740 1.5250
" />
<path d="M16.9540 1.5250
L17.4540 2.0250
" />
<path d="M17.4540 1.9240
L17.4540 1.7240
" />
<path d="M17.4540 2.0250
L17.4540 1.9240
" />
<path d="M17.4540 2.0250
L17.4540 1.9240
" />
<path d="M17.4540 2.0250
L17.4540 4.5240
" />
<path d="M17.4540 2.7240
L17.6620 2.7240
" />
<path d="M17.6520 1.7240
L17.4540 1.7240
" />
<path d="M17.6520 1.9240
L17.6520 1.7240
" />
<path d="M17.6520 4.1240
L17.6520 4.5240
" />
<path d="M17.6620 1.9240
L17.4540 1.9240
" />
<path d="M17.6620 1.9240
L18.7520 1.9240
" />
<path d="M17.6620 2.4240
L17.4540 2.4240
" />
<path d="M17.6620 2.4240
L18.2040 2.4240
" />
<path d="M17.6620 4.0230
L17.4540 4.0230
" />
<path d="M17.6620 4.0230
L18.7520 4.0230
" />
<path d="M17.8540 1.9240
L17.8540 1.8250
" />
<path d="M17.8540 2.7240
L17.8540 2.4240
" />
<path d="M17.8540 4.1240
L17.8540 4.0230
" />
<path d="M18.0020 1.6740
L17.8540 1.8250
" />
<path d="M18.0020 1.6740
L18.1520 1.5250
" />
<path d="M18.0020 1.9240
L18.0020 1.6740
" />
<path d="M18.0020 2.7240
L18.0020 2.4240
" />
<path d="M18.0020 4.1240
L17.6520 4.1240
" />
<path d="M18.0020 4.1240
L18.0020 4.0230
" />
<path d="M18.1520 1.5250
L18.9220 1.5250
" />
<path d="M18.2040 2.4240
L18.2130 2.4250
" />
<path d="M18.2040 2.7240
L17.6620 2.7240
" />
<path d="M18.2080 2.7230
L18.2040 2.7240
" />
<path d="M18.2130 2.4250
L18.2230 2.4260
" />
<path d="M18.2130 2.7230
L18.2080 2.7230
" />
<path d="M18.2170 2.7230
L18.2130 2.7230
" />
<path d="M18.2230 2.4260
L18.2330 2.4270
" />
<path d="M18.2230 2.7220
L18.2170 2.7230
" />
<path d="M18.2270 2.7210
L18.2230 2.7220
" />
<path d="M18.2330 2.4270
L18.2420 2.4300
" />
<path d="M18.2330 2.7210
L18.2270 2.7210
" />
<path d="M18.2380 2.7200
L18.2330 2.7210
" />
<path d="M18.2420 2.4300
L18.2520 2.4330
" />
<path d="M18.2420 2.7180
L18.2380 2.7200
" />
<path d="M18.2460 2.7170
L18.2420 2.7180
" />
<path d="M18.2520 2.4330
L18.2610 2.4360
" />
<path d="M18.2520 2.7150
L18.2460 2.7170
" />
<path d="M18.2560 2.7140
L18.2520 2.7150
" />
<path d="M18.2610 2.4360
L18.2700 2.4400
" />
<path d="M18.2610 2.7120
L18.2560 2.7140
" />
<path d="M18.2650 2.7100
L18.2610 2.7120
" />
<path d="M18.2700 2.4400
L18.2770 2.4440
" />
<path d="M18.2700 2.7080
L18.2650 2.7100
" />
<path d="M18.2740 2.7060
L18.2700 2.7080
" />
<path d="M18.2770 2.4440
L18.2870 2.4490
" />
<path d="M18.2770 2.7030
L18.2740 2.7060
" />
<path d="M18.2830 2.7010
L18.2770 2.7030
" />
<path d="M18.2870 2.4490
L18.2940 2.4540
" />
<path d="M18.2870 2.6980
L18.2830 2.7010
" />
<path d="M18.2900 2.6970
L18.2870 2.6980
" />
<path d="M18.2940 2.4540
L18.3020 2.4610
" />
<path d="M18.2940 2.6940
L18.2900 2.6970
" />
<path d="M18.2970 2.6910
L18.2940 2.6940
" />
<path d="M18.3020 2.4610
L18.3090 2.4670
" />
<path d="M18.3020 2.6870
L18.2970 2.6910
" />
<path d="M18.3060 2.6840
L18.3020 2.6870
" />
<path d="M18.3090 2.4670
L18.3160 2.4740
" />
<path d="M18.3090 2.6810
L18.3060 2.6840
" />
<path d="M18.3130 2.6770
L18.3090 2.6810
" />
<path d="M18.3160 2.4740
L18.3220 2.4820
" />
<path d="M18.3160 2.6740
L18.3130 2.6770
" />
<path d="M18.3190 2.6700
L18.3160 2.6740
" />
<path d="M18.3220 2.4820
L18.3280 2.4900
" />
<path d="M18.3220 2.6660
L18.3190 2.6700
" />
<path d="M18.3250 2.6620
L18.3220 2.6660
" />
<path d="M18.3280 2.4900
L18.3320 2.4990
" />
<path d="M18.3280 2.6580
L18.3250 2.6620
" />
<path d="M18.3310 2.6540
L18.3280 2.6580
" />
</g>
<g style="fill:#000000; fill-opacity:1.0000; stroke:none;">
<circle cx="18.3320" cy="2.4990" r="0.0100" /> 
</g>
<g style="fill:none; 
stroke:#000000; stroke-width:0.0200; stroke-opacity:1; 
stroke-linecap:round; stroke-linejoin:round;">
<path d="M18.3320 2.4990
L18.3380 2.5080
" />
<path d="M18.3320 2.6500
L18.3310 2.6540
" />
</g>
<g style="fill:#000000; fill-opacity:1.0000; stroke:none;">
<circle cx="18.3320" cy="2.6500" r="0.0100" /> 
</g>
<g style="fill:none; 
stroke:#000000; stroke-width:0.0200; stroke-opacity:1; 
stroke-linecap:round; stroke-linejoin:round;">
<path d="M18.3380 2.5080
L18.3420 2.5170
" />
<path d="M18.3380 2.6410
L18.3320 2.6500
" />
<path d="M18.3420 2.5170
L18.3450 2.5270
" />
<path d="M18.3420 2.6310
L18.3380 2.6410
" />
<path d="M18.3450 2.5270
L18.3480 2.5360
" />
<path d="M18.3450 2.6210
L18.3420 2.6310
" />
<path d="M18.3480 2.5360
L18.3510 2.5460
" />
<path d="M18.3480 2.6120
L18.3450 2.6210
" />
<path d="M18.3510 2.5460
L18.3510 2.5550
" />
<path d="M18.3510 2.5550
L18.3520 2.5650
" />
<path d="M18.3510 2.5930
L18.3510 2.6020
" />
<path d="M18.3510 2.6020
L18.3480 2.6120
" />
<path d="M18.3520 2.5650
L18.3540 2.5730
" />
<path d="M18.3520 2.5830
L18.3510 2.5930
" />
<path d="M18.3540 2.5730
L18.3520 2.5830
" />
<path d="M18.3730 1.5250
L18.5750 1.5250
" />
<path d="M18.5750 1.5250
L18.8730 1.5250
" />
<path d="M18.7520 4.0230
L18.7520 1.9240
" />
<path d="M18.8730 1.5250
L19.0750 1.5250
" />
<path d="M18.9220 1.5250
L18.9220 4.5240
" />
<path d="M18.9220 1.5250
L19.3740 1.5250
" />
<path d="M19.0750 1.5250
L19.3730 1.5250
" />
<path d="M19.3740 1.5250
L19.3740 4.2730
" />
<path d="M19.3740 1.9240
L19.6520 1.9240
" />
<path d="M19.3740 2.7640
L19.6740 2.8270
" />
<path d="M19.3740 4.2860
L19.3740 4.2730
" />
<path d="M19.3740 4.2990
L19.3740 4.2860
" />
<path d="M19.3760 4.3110
L19.3740 4.2990
" />
<path d="M19.3790 4.3230
L19.3760 4.3110
" />
<path d="M19.3800 4.3350
L19.3790 4.3230
" />
<path d="M19.3840 4.3470
L19.3800 4.3350
" />
<path d="M19.3870 4.3590
L19.3840 4.3470
" />
<path d="M19.3930 4.3690
L19.3870 4.3590
" />
<path d="M19.3970 4.3810
L19.3930 4.3690
" />
<path d="M19.4020 4.3910
L19.3970 4.3810
" />
<path d="M19.4090 4.4030
L19.4020 4.3910
" />
<path d="M19.4150 4.4130
L19.4090 4.4030
" />
<path d="M19.4220 4.4230
L19.4150 4.4130
" />
<path d="M19.4290 4.4320
L19.4220 4.4230
" />
<path d="M19.4380 4.4420
L19.4290 4.4320
" />
<path d="M19.4470 4.4500
L19.4380 4.4420
" />
</g>
<g style="fill:#000000; fill-opacity:1.0000; stroke:none;">
<circle cx="19.4470" cy="4.4500" r="0.0100" /> 
</g>
<g style="fill:none; 
stroke:#000000; stroke-width:0.0200; stroke-opacity:1; 
stroke-linecap:round; stroke-linejoin:round;">
<path d="M19.4560 4.4600
L19.4470 4.4500
" />
<path d="M19.4640 4.4680
L19.4560 4.4600
" />
<path d="M19.4740 4.4740
L19.4640 4.4680
" />
<path d="M19.4850 4.4820
L19.4740 4.4740
" />
<path d="M19.4950 4.4880
L19.4850 4.4820
" />
<path d="M19.5050 4.4940
L19.4950 4.4880
" />
<path d="M19.5170 4.5000
L19.5050 4.4940
" />
<path d="M19.5270 4.5040
L19.5170 4.5000
" />
<path d="M19.5380 4.5100
L19.5270 4.5040
" />
<path d="M19.5500 4.5120
L19.5380 4.5100
" />
<path d="M19.5630 4.5160
L19.5500 4.5120
" />
<path d="M19.5750 4.5180
L19.5630 4.5160
" />
<path d="M19.5860 4.5220
L19.5750 4.5180
" />
<path d="M19.5980 4.5220
L19.5860 4.5220
" />
<path d="M19.6110 4.5240
L19.5980 4.5220
" />
<path d="M19.6240 4.5240
L19.6110 4.5240
" />
<path d="M19.6520 1.9240
L19.6580 1.9240
" />
<path d="M19.6520 3.0250
L19.3740 3.0250
" />
<path d="M19.6580 1.9240
L19.6620 1.9240
" />
<path d="M19.6580 3.0240
L19.6520 3.0250
" />
<path d="M19.6620 1.9240
L19.6680 1.9240
" />
<path d="M19.6620 3.0240
L19.6580 3.0240
" />
<path d="M19.6680 1.9240
L19.6720 1.9260
" />
<path d="M19.6680 3.0240
L19.6620 3.0240
" />
<path d="M19.6720 1.9260
L19.6770 1.9260
" />
<path d="M19.6720 3.0230
L19.6680 3.0240
" />
<path d="M19.6740 2.1210
L19.3740 2.1840
" />
<path d="M19.6740 2.8270
L19.6780 2.8280
" />
<path d="M19.6770 1.9260
L19.6810 1.9280
" />
<path d="M19.6770 3.0220
L19.6720 3.0230
" />
<path d="M19.6780 2.1210
L19.6740 2.1210
" />
<path d="M19.6780 2.8280
L19.6820 2.8290
" />
<path d="M19.6810 1.9280
L19.6850 1.9300
" />
<path d="M19.6810 3.0210
L19.6770 3.0220
" />
<path d="M19.6820 2.1190
L19.6780 2.1210
" />
<path d="M19.6820 2.8290
L19.6880 2.8300
" />
<path d="M19.6850 1.9300
L19.6900 1.9300
" />
<path d="M19.6850 3.0190
L19.6810 3.0210
" />
<path d="M19.6880 2.1190
L19.6820 2.1190
" />
<path d="M19.6880 2.8300
L19.6910 2.8320
" />
<path d="M19.6900 1.9300
L19.6940 1.9320
" />
<path d="M19.6900 3.0170
L19.6850 3.0190
" />
<path d="M19.6910 2.1170
L19.6880 2.1190
" />
<path d="M19.6910 2.8320
L19.6950 2.8340
" />
<path d="M19.6940 1.9320
L19.6970 1.9340
" />
<path d="M19.6940 3.0150
L19.6900 3.0170
" />
<path d="M19.6950 2.1150
L19.6910 2.1170
" />
<path d="M19.6950 2.8340
L19.7000 2.8360
" />
<path d="M19.6970 1.9340
L19.7010 1.9360
" />
<path d="M19.6970 3.0130
L19.6940 3.0150
" />
<path d="M19.7000 2.1130
L19.6950 2.1150
" />
<path d="M19.7000 2.8360
L19.7040 2.8380
" />
<path d="M19.7010 1.9360
L19.7060 1.9380
" />
<path d="M19.7010 3.0110
L19.6970 3.0130
" />
<path d="M19.7040 2.1110
L19.7000 2.1130
" />
<path d="M19.7040 2.8380
L19.7070 2.8410
" />
<path d="M19.7060 1.9380
L19.7100 1.9420
" />
<path d="M19.7060 3.0090
L19.7010 3.0110
" />
<path d="M19.7070 2.1070
L19.7040 2.1110
" />
<path d="M19.7070 2.8410
L19.7110 2.8430
" />
<path d="M19.7100 1.9420
L19.7130 1.9440
" />
<path d="M19.7100 3.0060
L19.7060 3.0090
" />
<path d="M19.7110 2.1050
L19.7070 2.1070
" />
<path d="M19.7110 2.8430
L19.7160 2.8460
" />
<path d="M19.7130 1.9440
L19.7170 1.9460
" />
<path d="M19.7130 3.0030
L19.7100 3.0060
" />
<path d="M19.7160 2.1030
L19.7110 2.1050
" />
<path d="M19.7160 2.8460
L19.7190 2.8490
" />
<path d="M19.7170 1.9460
L19.7200 1.9500
" />
<path d="M19.7170 3.0010
L19.7130 3.0030
" />
<path d="M19.7190 2.0990
L19.7160 2.1030
" />
<path d="M19.7190 2.8490
L19.7220 2.8520
" />
<path d="M19.7200 1.9500
L19.7230 1.9520
" />
<path d="M19.7200 2.9980
L19.7170 3.0010
" />
<path d="M19.7220 2.0970
L19.7190 2.0990
" />
<path d="M19.7220 2.8520
L19.7260 2.8550
" />
<path d="M19.7230 1.9520
L19.7260 1.9560
" />
<path d="M19.7230 2.9950
L19.7200 2.9980
" />
<path d="M19.7260 1.9560
L19.7290 1.9600
" />
<path d="M19.7260 2.0930
L19.7220 2.0970
" />
<path d="M19.7260 2.8550
L19.7290 2.8580
" />
<path d="M19.7260 2.9910
L19.7230 2.9950
" />
<path d="M19.7290 1.9600
L19.7330 1.9620
" />
<path d="M19.7290 2.0910
L19.7260 2.0930
" />
<path d="M19.7290 2.8580
L19.7320 2.8610
" />
<path d="M19.7290 2.9880
L19.7260 2.9910
" />
<path d="M19.7320 2.0870
L19.7290 2.0910
" />
<path d="M19.7320 2.8610
L19.7330 2.8640
" />
<path d="M19.7330 1.9620
L19.7350 1.9660
" />
<path d="M19.7330 2.0830
L19.7320 2.0870
" />
<path d="M19.7330 2.8640
L19.7360 2.8680
" />
<path d="M19.7330 2.9860
L19.7290 2.9880
" />
<path d="M19.7350 1.9660
L19.7380 1.9700
" />
<path d="M19.7350 2.9820
L19.7330 2.9860
" />
<path d="M19.7360 2.0790
L19.7330 2.0830
" />
<path d="M19.7360 2.8680
L19.7390 2.8720
" />
<path d="M19.7380 1.9700
L19.7390 1.9740
" />
<path d="M19.7380 2.9780
L19.7350 2.9820
" />
<path d="M19.7390 1.9740
L19.7420 1.9780
" />
<path d="M19.7390 2.0750
L19.7360 2.0790
" />
<path d="M19.7390 2.8720
L19.7400 2.8760
" />
<path d="M19.7390 2.9740
L19.7380 2.9780
" />
<path d="M19.7400 2.0710
L19.7390 2.0750
" />
<path d="M19.7400 2.8760
L19.7430 2.8800
" />
<path d="M19.7420 1.9780
L19.7430 1.9820
" />
<path d="M19.7420 2.9700
L19.7390 2.9740
" />
<path d="M19.7430 1.9820
L19.7450 1.9860
" />
<path d="M19.7430 2.0670
L19.7400 2.0710
" />
<path d="M19.7430 2.8800
L19.7450 2.8840
" />
<path d="M19.7430 2.9660
L19.7420 2.9700
" />
<path d="M19.7450 1.9860
L19.7480 1.9900
" />
<path d="M19.7450 2.0630
L19.7430 2.0670
" />
<path d="M19.7450 2.8840
L19.7460 2.8880
" />
<path d="M19.7450 2.9620
L19.7430 2.9660
" />
<path d="M19.7460 2.0590
L19.7450 2.0630
" />
<path d="M19.7460 2.8880
L19.7490 2.8930
" />
<path d="M19.7480 1.9900
L19.7490 1.9950
" />
<path d="M19.7480 2.9580
L19.7450 2.9620
" />
<path d="M19.7490 1.9950
L19.7510 1.9990
" />
<path d="M19.7490 2.0510
L19.7490 2.0550
" />
<path d="M19.7490 2.0550
L19.7460 2.0590
" />
<path d="M19.7490 2.8930
L19.7490 2.8980
" />
<path d="M19.7490 2.8980
L19.7510 2.9020
" />
<path d="M19.7490 2.9520
L19.7480 2.9580
" />
<path d="M19.7510 1.9990
L19.7520 2.0050
" />
<path d="M19.7510 2.0470
L19.7490 2.0510
" />
<path d="M19.7510 2.9020
L19.7520 2.9070
" />
<path d="M19.7510 2.9480
L19.7490 2.9520
" />
<path d="M19.7520 2.0050
L19.7520 2.0090
" />
<path d="M19.7520 2.0090
L19.7520 2.0130
" />
</g>
<g style="fill:#000000; fill-opacity:1.0000; stroke:none;">
<circle cx="19.7520" cy="2.0130" r="0.0100" /> 
</g>
<g style="fill:none; 
stroke:#000000; stroke-width:0.0200; stroke-opacity:1; 
stroke-linecap:round; stroke-linejoin:round;">
<path d="M19.7520 2.0130
L19.7520 2.0190
" />
<path d="M19.7520 2.0190
L19.7540 2.0230
" />
<path d="M19.7520 2.0270
L19.7520 2.0330
" />
<path d="M19.7520 2.0330
L19.7520 2.0370
" />
<path d="M19.7520 2.0370
L19.7520 2.0410
" />
<path d="M19.7520 2.0410
L19.7510 2.0470
" />
<path d="M19.7520 2.9070
L19.7520 2.9110
" />
<path d="M19.7520 2.9110
L19.7520 2.9160
" />
<path d="M19.7520 2.9160
L19.7520 2.9210
" />
<path d="M19.7520 2.9210
L19.7540 2.9240
" />
<path d="M19.7520 2.9290
L19.7520 2.9340
" />
</g>
<g style="fill:#000000; fill-opacity:1.0000; stroke:none;">
<circle cx="19.7520" cy="2.9340" r="0.0100" /> 
</g>
<g style="fill:none; 
stroke:#000000; stroke-width:0.0200; stroke-opacity:1; 
stroke-linecap:round; stroke-linejoin:round;">
<path d="M19.7520 2.9340
L19.7520 2.9380
" />
<path d="M19.7520 2.9380
L19.7520 2.9430
" />
<path d="M19.7520 2.9430
L19.7510 2.9480
" />
<path d="M19.7540 2.0230
L19.7520 2.0270
" />
<path d="M19.7540 2.9240
L19.7520 2.9290
" />
<path d="M19.8220 5.8230
L19.8280 5.8230
" />
<path d="M19.8220 5.8230
L19.8280 5.8230
" />
<path d="M19.8280 5.8230
L19.8320 5.8230
" />
<path d="M19.8280 5.8230
L19.8320 5.8230
" />
<path d="M19.8320 5.8230
L19.8380 5.8230
" />
<path d="M19.8320 5.8230
L19.8380 5.8230
" />
<path d="M19.8380 5.8230
L19.8420 5.8220
" />
<path d="M19.8380 5.8230
L19.8420 5.8220
" />
<path d="M19.8420 5.8220
L19.8480 5.8220
" />
<path d="M19.8420 5.8220
L19.8480 5.8220
" />
<path d="M19.8480 5.8220
L19.8520 5.8190
" />
<path d="M19.8480 5.8220
L19.8520 5.8190
" />
<path d="M19.8520 5.8190
L19.8570 5.8180
" />
<path d="M19.8520 5.8190
L19.8570 5.8180
" />
<path d="M19.8570 5.8180
L19.8610 5.8170
" />
<path d="M19.8570 5.8180
L19.8610 5.8170
" />
<path d="M19.8610 5.8170
L19.8650 5.8140
" />
<path d="M19.8610 5.8170
L19.8650 5.8140
" />
<path d="M19.8650 5.8140
L19.8700 5.8130
" />
<path d="M19.8650 5.8140
L19.8700 5.8130
" />
<path d="M19.8700 5.8130
L19.8740 5.8100
" />
<path d="M19.8700 5.8130
L19.8740 5.8100
" />
<path d="M19.8740 5.8100
L19.8790 5.8060
" />
<path d="M19.8740 5.8100
L19.8790 5.8060
" />
<path d="M19.8790 5.8060
L19.8830 5.8050
" />
<path d="M19.8790 5.8060
L19.8830 5.8050
" />
<path d="M19.8830 5.8050
L19.8860 5.8020
" />
<path d="M19.8830 5.8050
L19.8860 5.8020
" />
<path d="M19.8860 5.8020
L19.8900 5.7980
" />
<path d="M19.8860 5.8020
L19.8900 5.7980
" />
<path d="M19.8900 5.7980
L19.8930 5.7940
" />
<path d="M19.8900 5.7980
L19.8930 5.7940
" />
<path d="M19.8930 5.7940
L19.8960 5.7900
" />
<path d="M19.8930 5.7940
L19.8960 5.7900
" />
<path d="M19.8960 5.7900
L19.9000 5.7870
" />
<path d="M19.8960 5.7900
L19.9000 5.7870
" />
<path d="M19.9000 5.7870
L19.9030 5.7830
" />
<path d="M19.9000 5.7870
L19.9030 5.7830
" />
<path d="M19.9030 5.7830
L19.9060 5.7790
" />
<path d="M19.9030 5.7830
L19.9060 5.7790
" />
<path d="M19.9060 5.7790
L19.9090 5.7750
" />
<path d="M19.9060 5.7790
L19.9090 5.7750
" />
<path d="M19.9090 5.7750
L19.9120 5.7710
" />
<path d="M19.9090 5.7750
L19.9120 5.7710
" />
<path d="M19.9120 5.7710
L19.9130 5.7660
" />
<path d="M19.9120 5.7710
L19.9130 5.7660
" />
<path d="M19.9130 5.7660
L19.9150 5.7620
" />
<path d="M19.9130 5.7660
L19.9150 5.7620
" />
<path d="M19.9150 5.7620
L19.9180 5.7580
" />
<path d="M19.9150 5.7620
L19.9180 5.7580
" />
<path d="M19.9180 5.7540
L19.9210 5.7490
" />
<path d="M19.9180 5.7540
L19.9210 5.7490
" />
<path d="M19.9180 5.7580
L19.9180 5.7540
" />
<path d="M19.9180 5.7580
L19.9180 5.7540
" />
<path d="M19.9210 5.7490
L19.9220 5.7430
" />
<path d="M19.9210 5.7490
L19.9220 5.7430
" />
<path d="M19.9220 5.7250
L19.9220 4.5240
" />
<path d="M19.9220 5.7290
L19.9220 5.7250
" />
<path d="M19.9220 5.7290
L19.9220 5.7250
" />
<path d="M19.9220 5.7340
L19.9220 5.7290
" />
<path d="M19.9220 5.7340
L19.9220 5.7290
" />
<path d="M19.9220 5.7380
L19.9220 5.7340
" />
<path d="M19.9220 5.7380
L19.9220 5.7340
" />
<path d="M19.9220 5.7430
L19.9220 5.7380
" />
<path d="M19.9220 5.7430
L19.9220 5.7380
" />
</g> 
</svg>
