<?xml version="1.0" standalone="no"?>
 <!DOCTYPE svg PUBLIC "-//W3C//DTD SVG 1.1//EN" 
 "http://www.w3.org/Graphics/SVG/1.1/DTD/svg11.dtd"> 
<svg
  xmlns:svg="http://www.w3.org/2000/svg"
  xmlns="http://www.w3.org/2000/svg"
  xmlns:xlink="http://www.w3.org/1999/xlink"
  version="1.1"
  width="3.2004mm" height="1.5494mm" viewBox="0.0000 0.0000 3.2004 1.5494">
<title>SVG Image created as outline.svg date 2025/04/04 10:06:31 </title>
  <desc>Image generated by PCBNEW </desc>
<g style="fill:#000000; fill-opacity:1.0000;stroke:#000000; stroke-opacity:1.0000;
stroke-linecap:round; stroke-linejoin:round;"
 transform="translate(0 0) scale(1 1)">
</g>
<g style="fill:none; 
stroke:#000000; stroke-width:0.0200; stroke-opacity:1; 
stroke-linecap:round; stroke-linejoin:round;">
<path d="M0.2820 0.2770
L0.3290 0.2770
" />
<path d="M0.2820 1.2930
L0.2820 0.2770
" />
<path d="M0.2820 1.2930
L0.3290 1.2930
" />
<path d="M0.3290 0.2770
L0.8030 0.2770
" />
<path d="M0.3290 1.2930
L0.8030 1.2930
" />
<path d="M0.8030 0.2770
L1.1070 0.2770
" />
<path d="M0.8030 1.2930
L1.1070 1.2930
" />
<path d="M2.1230 0.2770
L1.1070 0.2770
" />
<path d="M2.1230 1.2930
L1.1070 1.2930
" />
<path d="M2.4270 0.2770
L2.1230 0.2770
" />
<path d="M2.4270 1.2930
L2.1230 1.2930
" />
<path d="M2.9010 0.2770
L2.4270 0.2770
" />
<path d="M2.9010 1.2930
L2.4270 1.2930
" />
<path d="M2.9480 0.2770
L2.9010 0.2770
" />
<path d="M2.9480 1.2930
L2.9010 1.2930
" />
<path d="M2.9480 1.2930
L2.9480 0.2770
" />
</g> 
</svg>
