<?xml version="1.0" standalone="no"?>
 <!DOCTYPE svg PUBLIC "-//W3C//DTD SVG 1.1//EN" 
 "http://www.w3.org/Graphics/SVG/1.1/DTD/svg11.dtd"> 
<svg
  xmlns:svg="http://www.w3.org/2000/svg"
  xmlns="http://www.w3.org/2000/svg"
  xmlns:xlink="http://www.w3.org/1999/xlink"
  version="1.1"
  width="15.0368mm" height="13.3350mm" viewBox="0.0000 0.0000 15.0368 13.3350">
<title>SVG Image created as outline.svg date 2025/06/16 09:18:01 </title>
  <desc>Image generated by PCBNEW </desc>
<g style="fill:#000000; fill-opacity:1.0000;stroke:#000000; stroke-opacity:1.0000;
stroke-linecap:round; stroke-linejoin:round;"
 transform="translate(0 0) scale(1 1)">
</g>
<g style="fill:none; 
stroke:#000000; stroke-width:0.0200; stroke-opacity:1; 
stroke-linecap:round; stroke-linejoin:round;">
<path d="M0.7250 4.3250
L0.7250 9.0250
" />
<path d="M0.7250 4.3250
L1.2750 4.3250
" />
<path d="M0.7250 9.0250
L1.2750 9.0250
" />
<path d="M1.2750 1.4250
L1.2750 11.9250
" />
<path d="M1.2750 11.9250
L1.2790 12.0120
" />
<path d="M1.2790 1.3380
L1.2750 1.4250
" />
<path d="M1.2790 12.0120
L1.2900 12.0990
" />
<path d="M1.2900 1.2510
L1.2790 1.3380
" />
<path d="M1.2900 12.0990
L1.3090 12.1840
" />
<path d="M1.3090 1.1660
L1.2900 1.2510
" />
<path d="M1.3090 12.1840
L1.3350 12.2670
" />
<path d="M1.3350 1.0830
L1.3090 1.1660
" />
<path d="M1.3350 12.2670
L1.3690 12.3480
" />
<path d="M1.3690 1.0020
L1.3350 1.0830
" />
<path d="M1.3690 12.3480
L1.4090 12.4250
" />
<path d="M1.4090 0.9250
L1.3690 1.0020
" />
<path d="M1.4090 12.4250
L1.4560 12.4990
" />
<path d="M1.4560 0.8510
L1.4090 0.9250
" />
<path d="M1.4560 12.4990
L1.5090 12.5680
" />
<path d="M1.5090 0.7820
L1.4560 0.8510
" />
<path d="M1.5090 12.5680
L1.5680 12.6320
" />
<path d="M1.5680 0.7180
L1.5090 0.7820
" />
<path d="M1.5680 12.6320
L1.6320 12.6910
" />
<path d="M1.6320 0.6590
L1.5680 0.7180
" />
<path d="M1.6320 12.6910
L1.7010 12.7440
" />
<path d="M1.7010 0.6060
L1.6320 0.6590
" />
<path d="M1.7010 12.7440
L1.7750 12.7910
" />
<path d="M1.7750 0.5590
L1.7010 0.6060
" />
<path d="M1.7750 12.7910
L1.8520 12.8310
" />
<path d="M1.8520 0.5190
L1.7750 0.5590
" />
<path d="M1.8520 12.8310
L1.9330 12.8650
" />
<path d="M1.9330 0.4850
L1.8520 0.5190
" />
<path d="M1.9330 12.8650
L2.0160 12.8910
" />
<path d="M2.0160 0.4590
L1.9330 0.4850
" />
<path d="M2.0160 12.8910
L2.1010 12.9100
" />
<path d="M2.1010 0.4400
L2.0160 0.4590
" />
<path d="M2.1010 12.9100
L2.1880 12.9210
" />
<path d="M2.1880 0.4290
L2.1010 0.4400
" />
<path d="M2.1880 12.9210
L2.2750 12.9250
" />
<path d="M2.2750 0.4250
L2.1880 0.4290
" />
<path d="M2.2750 12.9250
L12.7750 12.9250
" />
<path d="M12.7750 0.4250
L2.2750 0.4250
" />
<path d="M12.7750 12.9250
L12.8620 12.9210
" />
<path d="M12.8620 0.4290
L12.7750 0.4250
" />
<path d="M12.8620 12.9210
L12.9490 12.9100
" />
<path d="M12.9490 0.4400
L12.8620 0.4290
" />
<path d="M12.9490 12.9100
L13.0340 12.8910
" />
<path d="M13.0340 0.4590
L12.9490 0.4400
" />
<path d="M13.0340 12.8910
L13.1170 12.8650
" />
<path d="M13.1170 0.4850
L13.0340 0.4590
" />
<path d="M13.1170 12.8650
L13.1980 12.8310
" />
<path d="M13.1980 0.5190
L13.1170 0.4850
" />
<path d="M13.1980 12.8310
L13.2750 12.7910
" />
<path d="M13.2750 0.5590
L13.1980 0.5190
" />
<path d="M13.2750 12.7910
L13.3490 12.7440
" />
<path d="M13.3490 0.6060
L13.2750 0.5590
" />
<path d="M13.3490 12.7440
L13.4180 12.6910
" />
<path d="M13.4180 0.6590
L13.3490 0.6060
" />
<path d="M13.4180 12.6910
L13.4820 12.6320
" />
<path d="M13.4820 0.7180
L13.4180 0.6590
" />
<path d="M13.4820 12.6320
L13.5410 12.5680
" />
<path d="M13.5410 0.7820
L13.4820 0.7180
" />
<path d="M13.5410 12.5680
L13.5940 12.4990
" />
<path d="M13.5940 0.8510
L13.5410 0.7820
" />
<path d="M13.5940 12.4990
L13.6410 12.4250
" />
<path d="M13.6410 0.9250
L13.5940 0.8510
" />
<path d="M13.6410 12.4250
L13.6810 12.3480
" />
<path d="M13.6810 1.0020
L13.6410 0.9250
" />
<path d="M13.6810 12.3480
L13.7150 12.2670
" />
<path d="M13.7150 1.0830
L13.6810 1.0020
" />
<path d="M13.7150 12.2670
L13.7410 12.1840
" />
<path d="M13.7410 1.1660
L13.7150 1.0830
" />
<path d="M13.7410 12.1840
L13.7600 12.0990
" />
<path d="M13.7600 1.2510
L13.7410 1.1660
" />
<path d="M13.7600 12.0990
L13.7710 12.0120
" />
<path d="M13.7710 1.3380
L13.7600 1.2510
" />
<path d="M13.7710 12.0120
L13.7750 11.9250
" />
<path d="M13.7750 1.4250
L13.7710 1.3380
" />
<path d="M13.7750 4.3250
L14.2250 4.3250
" />
<path d="M13.7750 9.0250
L14.2250 9.0250
" />
<path d="M13.7750 11.9250
L13.7750 1.4250
" />
<path d="M14.2250 4.3250
L14.2250 5.9480
" />
<path d="M14.2250 5.9480
L13.7750 5.9480
" />
<path d="M14.2250 5.9480
L14.2250 7.4020
" />
<path d="M14.2250 7.4020
L13.7750 7.4020
" />
<path d="M14.2250 7.4020
L14.2250 9.0250
" />
</g> 
</svg>
