<?xml version="1.0" standalone="no"?>
 <!DOCTYPE svg PUBLIC "-//W3C//DTD SVG 1.1//EN" 
 "http://www.w3.org/Graphics/SVG/1.1/DTD/svg11.dtd"> 
<svg
  xmlns:svg="http://www.w3.org/2000/svg"
  xmlns="http://www.w3.org/2000/svg"
  xmlns:xlink="http://www.w3.org/1999/xlink"
  version="1.1"
  width="2.6416mm" height="2.6416mm" viewBox="0.0000 0.0000 2.6416 2.6416">
<title>SVG Image created as outline.svg date 2025/06/16 09:17:42 </title>
  <desc>Image generated by PCBNEW </desc>
<g style="fill:#000000; fill-opacity:1.0000;stroke:#000000; stroke-opacity:1.0000;
stroke-linecap:round; stroke-linejoin:round;"
 transform="translate(0 0) scale(1 1)">
</g>
<g style="fill:none; 
stroke:#000000; stroke-width:0.0200; stroke-opacity:1; 
stroke-linecap:round; stroke-linejoin:round;">
<path d="M0.2905 0.4910
L0.2905 0.8110
" />
<path d="M0.2905 0.8110
L0.3005 0.8110
" />
<path d="M0.2905 1.1420
L0.2905 1.4600
" />
<path d="M0.2905 1.4600
L0.3005 1.4600
" />
<path d="M0.2905 1.7910
L0.2905 2.1110
" />
<path d="M0.2905 2.1110
L0.3005 2.1110
" />
<path d="M0.3005 0.2760
L0.3005 2.3250
" />
<path d="M0.3005 0.4910
L0.2905 0.4910
" />
<path d="M0.3005 1.1420
L0.2905 1.1420
" />
<path d="M0.3005 1.7910
L0.2905 1.7910
" />
<path d="M0.3005 2.3250
L2.3495 2.3250
" />
</g>
<g style="fill:#000000; fill-opacity:1.0000; stroke:none;">
<circle cx="0.4995" cy="0.5850" r="0.0100" /> 
<circle cx="0.4995" cy="0.5850" r="0.0100" /> 
</g>
<g style="fill:none; 
stroke:#000000; stroke-width:0.0200; stroke-opacity:1; 
stroke-linecap:round; stroke-linejoin:round;">
<path d="M0.4995 0.5850
L0.5005 0.5900
" />
<path d="M0.5005 0.5740
L0.5005 0.5800
" />
<path d="M0.5005 0.5800
L0.4995 0.5850
" />
<path d="M0.5005 0.5900
L0.5005 0.5960
" />
<path d="M0.5005 0.5960
L0.5015 0.6000
" />
<path d="M0.5015 0.5690
L0.5005 0.5740
" />
<path d="M0.5015 0.6000
L0.5025 0.6050
" />
<path d="M0.5025 0.5640
L0.5015 0.5690
" />
<path d="M0.5025 0.6050
L0.5035 0.6100
" />
<path d="M0.5035 0.5590
L0.5025 0.5640
" />
<path d="M0.5035 0.6100
L0.5045 0.6150
" />
<path d="M0.5045 0.5540
L0.5035 0.5590
" />
<path d="M0.5045 0.6150
L0.5065 0.6200
" />
<path d="M0.5065 0.5490
L0.5045 0.5540
" />
<path d="M0.5065 0.6200
L0.5085 0.6240
" />
<path d="M0.5085 0.5450
L0.5065 0.5490
" />
<path d="M0.5085 0.6240
L0.5105 0.6290
" />
<path d="M0.5105 0.5400
L0.5085 0.5450
" />
<path d="M0.5105 0.6290
L0.5125 0.6330
" />
<path d="M0.5125 0.5360
L0.5105 0.5400
" />
<path d="M0.5125 0.6330
L0.5145 0.6380
" />
<path d="M0.5145 0.5300
L0.5125 0.5360
" />
<path d="M0.5145 0.6380
L0.5175 0.6420
" />
<path d="M0.5175 0.5260
L0.5145 0.5300
" />
<path d="M0.5175 0.6420
L0.5205 0.6460
" />
<path d="M0.5205 0.5220
L0.5175 0.5260
" />
<path d="M0.5205 0.6460
L0.5235 0.6500
" />
<path d="M0.5235 0.5180
L0.5205 0.5220
" />
<path d="M0.5235 0.6500
L0.5265 0.6540
" />
<path d="M0.5265 0.5140
L0.5235 0.5180
" />
<path d="M0.5265 0.6540
L0.5305 0.6570
" />
<path d="M0.5305 0.5110
L0.5265 0.5140
" />
<path d="M0.5305 0.6570
L0.5335 0.6620
" />
<path d="M0.5335 0.5070
L0.5305 0.5110
" />
<path d="M0.5335 0.6620
L0.5375 0.6650
" />
<path d="M0.5375 0.5040
L0.5335 0.5070
" />
<path d="M0.5375 0.6650
L0.5415 0.6680
" />
<path d="M0.5415 0.5010
L0.5375 0.5040
" />
<path d="M0.5415 0.6680
L0.5455 0.6710
" />
<path d="M0.5455 0.4980
L0.5415 0.5010
" />
<path d="M0.5455 0.6710
L0.5495 0.6730
" />
<path d="M0.5495 0.4950
L0.5455 0.4980
" />
<path d="M0.5495 0.6730
L0.5545 0.6760
" />
<path d="M0.5545 0.4930
L0.5495 0.4950
" />
<path d="M0.5545 0.6760
L0.5595 0.6780
" />
<path d="M0.5595 0.4910
L0.5545 0.4930
" />
<path d="M0.5595 0.6780
L0.5645 0.6800
" />
<path d="M0.5645 0.4890
L0.5595 0.4910
" />
<path d="M0.5645 0.6800
L0.5685 0.6820
" />
<path d="M0.5685 0.4870
L0.5645 0.4890
" />
<path d="M0.5685 0.6820
L0.5735 0.6840
" />
<path d="M0.5735 0.4850
L0.5685 0.4870
" />
<path d="M0.5735 0.6840
L0.5785 0.6850
" />
<path d="M0.5785 0.4840
L0.5735 0.4850
" />
<path d="M0.5785 0.6850
L0.5835 0.6860
" />
<path d="M0.5835 0.4830
L0.5785 0.4840
" />
<path d="M0.5835 0.6860
L0.5885 0.6870
" />
<path d="M0.5885 0.4820
L0.5835 0.4830
" />
<path d="M0.5885 0.6870
L0.5935 0.6880
" />
<path d="M0.5935 0.4810
L0.5885 0.4820
" />
<path d="M0.5935 0.6880
L0.5995 0.6880
" />
<path d="M0.5995 0.4810
L0.5935 0.4810
" />
<path d="M0.5995 0.6880
L0.6045 0.6880
" />
<path d="M0.6045 0.4800
L0.5995 0.4810
" />
</g>
<g style="fill:#000000; fill-opacity:1.0000; stroke:none;">
<circle cx="0.6045" cy="0.4800" r="0.0100" /> 
<circle cx="0.6045" cy="0.6880" r="0.0100" /> 
</g>
<g style="fill:none; 
stroke:#000000; stroke-width:0.0200; stroke-opacity:1; 
stroke-linecap:round; stroke-linejoin:round;">
<path d="M0.6045 0.6880
L0.6095 0.6880
" />
<path d="M0.6095 0.4810
L0.6045 0.4800
" />
<path d="M0.6095 0.6880
L0.6155 0.6880
" />
<path d="M0.6155 0.4810
L0.6095 0.4810
" />
<path d="M0.6155 0.6880
L0.6205 0.6870
" />
<path d="M0.6205 0.4820
L0.6155 0.4810
" />
<path d="M0.6205 0.6870
L0.6245 0.6860
" />
<path d="M0.6245 0.4830
L0.6205 0.4820
" />
<path d="M0.6245 0.6860
L0.6295 0.6850
" />
<path d="M0.6295 0.4840
L0.6245 0.4830
" />
<path d="M0.6295 0.6850
L0.6345 0.6840
" />
<path d="M0.6345 0.4850
L0.6295 0.4840
" />
<path d="M0.6345 0.6840
L0.6395 0.6820
" />
<path d="M0.6395 0.4870
L0.6345 0.4850
" />
<path d="M0.6395 0.6820
L0.6435 0.6800
" />
<path d="M0.6435 0.4890
L0.6395 0.4870
" />
<path d="M0.6435 0.6800
L0.6485 0.6780
" />
<path d="M0.6485 0.4910
L0.6435 0.4890
" />
<path d="M0.6485 0.6780
L0.6525 0.6760
" />
<path d="M0.6525 0.4930
L0.6485 0.4910
" />
<path d="M0.6525 0.6760
L0.6575 0.6730
" />
<path d="M0.6575 0.4950
L0.6525 0.4930
" />
<path d="M0.6575 0.6730
L0.6615 0.6710
" />
<path d="M0.6615 0.4980
L0.6575 0.4950
" />
<path d="M0.6615 0.6710
L0.6655 0.6680
" />
<path d="M0.6655 0.5010
L0.6615 0.4980
" />
<path d="M0.6655 0.6680
L0.6695 0.6650
" />
<path d="M0.6695 0.5040
L0.6655 0.5010
" />
<path d="M0.6695 0.6650
L0.6735 0.6620
" />
<path d="M0.6735 0.5070
L0.6695 0.5040
" />
<path d="M0.6735 0.6620
L0.6765 0.6570
" />
<path d="M0.6765 0.5110
L0.6735 0.5070
" />
<path d="M0.6765 0.6570
L0.6805 0.6540
" />
<path d="M0.6805 0.5140
L0.6765 0.5110
" />
<path d="M0.6805 0.6540
L0.6835 0.6500
" />
<path d="M0.6835 0.5180
L0.6805 0.5140
" />
<path d="M0.6835 0.6500
L0.6875 0.6460
" />
<path d="M0.6875 0.5220
L0.6835 0.5180
" />
<path d="M0.6875 0.6460
L0.6905 0.6420
" />
<path d="M0.6905 0.5260
L0.6875 0.5220
" />
<path d="M0.6905 0.6420
L0.6925 0.6380
" />
<path d="M0.6925 0.5300
L0.6905 0.5260
" />
<path d="M0.6925 0.6380
L0.6955 0.6330
" />
<path d="M0.6955 0.5360
L0.6925 0.5300
" />
<path d="M0.6955 0.6330
L0.6975 0.6290
" />
<path d="M0.6975 0.5400
L0.6955 0.5360
" />
<path d="M0.6975 0.6290
L0.6995 0.6240
" />
<path d="M0.6995 0.5450
L0.6975 0.5400
" />
<path d="M0.6995 0.6240
L0.7015 0.6200
" />
<path d="M0.7015 0.5490
L0.6995 0.5450
" />
<path d="M0.7015 0.6200
L0.7035 0.6150
" />
<path d="M0.7035 0.5540
L0.7015 0.5490
" />
<path d="M0.7035 0.6150
L0.7045 0.6100
" />
<path d="M0.7045 0.5590
L0.7035 0.5540
" />
<path d="M0.7045 0.6100
L0.7055 0.6050
" />
<path d="M0.7055 0.5640
L0.7045 0.5590
" />
<path d="M0.7055 0.6050
L0.7065 0.6000
" />
<path d="M0.7065 0.5690
L0.7055 0.5640
" />
<path d="M0.7065 0.6000
L0.7075 0.5960
" />
<path d="M0.7075 0.5740
L0.7065 0.5690
" />
<path d="M0.7075 0.5800
L0.7075 0.5740
" />
<path d="M0.7075 0.5850
L0.7075 0.5800
" />
</g>
<g style="fill:#000000; fill-opacity:1.0000; stroke:none;">
<circle cx="0.7075" cy="0.5850" r="0.0100" /> 
</g>
<g style="fill:none; 
stroke:#000000; stroke-width:0.0200; stroke-opacity:1; 
stroke-linecap:round; stroke-linejoin:round;">
<path d="M0.7075 0.5900
L0.7075 0.5850
" />
<path d="M0.7075 0.5960
L0.7075 0.5900
" />
<path d="M2.3495 0.2760
L0.3005 0.2760
" />
<path d="M2.3495 0.4910
L2.3595 0.4910
" />
<path d="M2.3495 1.1420
L2.3595 1.1420
" />
<path d="M2.3495 1.7910
L2.3595 1.7910
" />
<path d="M2.3495 2.3250
L2.3495 0.2760
" />
<path d="M2.3595 0.4910
L2.3595 0.8110
" />
<path d="M2.3595 0.8110
L2.3495 0.8110
" />
<path d="M2.3595 1.1420
L2.3595 1.4600
" />
<path d="M2.3595 1.4600
L2.3495 1.4600
" />
<path d="M2.3595 1.7910
L2.3595 2.1110
" />
<path d="M2.3595 2.1110
L2.3495 2.1110
" />
</g> 
</svg>
