<?xml version="1.0" standalone="no"?>
 <!DOCTYPE svg PUBLIC "-//W3C//DTD SVG 1.1//EN" 
 "http://www.w3.org/Graphics/SVG/1.1/DTD/svg11.dtd"> 
<svg
  xmlns:svg="http://www.w3.org/2000/svg"
  xmlns="http://www.w3.org/2000/svg"
  xmlns:xlink="http://www.w3.org/1999/xlink"
  version="1.1"
  width="38.8366mm" height="6.8326mm" viewBox="0.0000 0.0000 38.8366 6.8326">
<title>SVG Image created as outline.svg date 2025/06/16 09:17:45 </title>
  <desc>Image generated by PCBNEW </desc>
<g style="fill:#000000; fill-opacity:1.0000;stroke:#000000; stroke-opacity:1.0000;
stroke-linecap:round; stroke-linejoin:round;"
 transform="translate(0 0) scale(1 1)">
</g>
<g style="fill:none; 
stroke:#000000; stroke-width:0.0200; stroke-opacity:1; 
stroke-linecap:round; stroke-linejoin:round;">
<path d="M0.4250 0.6250
L0.4250 0.7250
" />
<path d="M0.4250 0.7250
L0.4250 4.6750
" />
<path d="M0.4250 4.6750
L1.8750 6.1250
" />
<path d="M0.9760 1.4560
L1.2650 1.7450
" />
<path d="M0.9760 1.4560
L3.5950 1.4560
" />
<path d="M0.9760 4.2250
L0.9760 1.4560
" />
<path d="M0.9760 4.2250
L1.2650 4.1050
" />
<path d="M1.2650 1.7450
L1.2650 4.1050
" />
<path d="M1.2650 4.1050
L2.2650 5.1050
" />
<path d="M1.8750 6.1250
L1.9750 6.2250
" />
<path d="M1.8750 6.1250
L2.4250 6.1250
" />
<path d="M1.9750 6.2250
L38.4250 6.2250
" />
<path d="M2.1450 5.3940
L0.9760 4.2250
" />
<path d="M2.1450 5.3940
L2.2650 5.1050
" />
<path d="M2.2650 5.1050
L3.5950 5.1050
" />
<path d="M2.4250 6.0250
L2.4250 6.1250
" />
<path d="M2.4250 6.1250
L3.0250 6.1250
" />
<path d="M3.0250 6.0250
L3.0250 6.1250
" />
<path d="M3.0250 6.1250
L3.6250 6.1250
" />
<path d="M3.3650 1.7450
L3.3650 2.4250
" />
<path d="M3.3650 4.4250
L3.3650 2.4250
" />
<path d="M3.3650 4.4250
L3.3650 5.1050
" />
<path d="M3.5850 4.4250
L3.5850 2.4250
" />
<path d="M3.5950 0.9950
L3.5950 1.4560
" />
<path d="M3.5950 1.4560
L3.5950 1.7450
" />
<path d="M3.5950 1.7450
L1.2650 1.7450
" />
<path d="M3.5950 5.1050
L3.5950 5.3940
" />
<path d="M3.5950 5.3940
L2.1450 5.3940
" />
<path d="M3.5950 5.3940
L3.5950 5.8550
" />
<path d="M3.5950 5.8550
L4.0550 5.8550
" />
<path d="M3.6250 6.0250
L2.4250 6.0250
" />
<path d="M3.6250 6.0250
L3.6250 6.1250
" />
<path d="M3.6250 6.1250
L38.4250 6.1250
" />
<path d="M3.9650 2.4250
L3.3650 2.4250
" />
<path d="M3.9650 4.4250
L3.3650 4.4250
" />
<path d="M3.9650 4.4250
L3.9650 2.4250
" />
<path d="M4.0550 0.9950
L3.5950 0.9950
" />
<path d="M4.0550 1.4560
L4.0550 0.9950
" />
<path d="M4.0550 1.4560
L4.3950 1.4560
" />
<path d="M4.0550 1.7450
L4.0550 1.4560
" />
<path d="M4.0550 5.1050
L4.3950 5.1050
" />
<path d="M4.0550 5.3940
L4.0550 5.1050
" />
<path d="M4.0550 5.8550
L4.0550 5.3940
" />
<path d="M4.3950 0.9950
L4.3950 1.4560
" />
<path d="M4.3950 1.4560
L4.3950 1.7450
" />
<path d="M4.3950 1.7450
L4.0550 1.7450
" />
<path d="M4.3950 5.1050
L4.3950 5.3940
" />
<path d="M4.3950 5.3940
L4.0550 5.3940
" />
<path d="M4.3950 5.3940
L4.3950 5.8550
" />
<path d="M4.3950 5.8550
L4.8550 5.8550
" />
<path d="M4.8550 0.9950
L4.3950 0.9950
" />
<path d="M4.8550 1.4560
L4.8550 0.9950
" />
<path d="M4.8550 1.4560
L5.1950 1.4560
" />
<path d="M4.8550 1.7450
L4.8550 1.4560
" />
<path d="M4.8550 5.1050
L5.1950 5.1050
" />
<path d="M4.8550 5.3940
L4.8550 5.1050
" />
<path d="M4.8550 5.8550
L4.8550 5.3940
" />
<path d="M5.1950 0.9950
L5.1950 1.4560
" />
<path d="M5.1950 1.4560
L5.1950 1.7450
" />
<path d="M5.1950 1.7450
L4.8550 1.7450
" />
<path d="M5.1950 5.1050
L5.1950 5.3940
" />
<path d="M5.1950 5.3940
L4.8550 5.3940
" />
<path d="M5.1950 5.3940
L5.1950 5.8550
" />
<path d="M5.1950 5.8550
L5.6550 5.8550
" />
<path d="M5.6550 0.9950
L5.1950 0.9950
" />
<path d="M5.6550 1.4560
L5.6550 0.9950
" />
<path d="M5.6550 1.4560
L5.9950 1.4560
" />
<path d="M5.6550 1.7450
L5.6550 1.4560
" />
<path d="M5.6550 5.1050
L5.9950 5.1050
" />
<path d="M5.6550 5.3940
L5.6550 5.1050
" />
<path d="M5.6550 5.8550
L5.6550 5.3940
" />
<path d="M5.9950 0.9950
L5.9950 1.4560
" />
<path d="M5.9950 1.4560
L5.9950 1.7450
" />
<path d="M5.9950 1.7450
L5.6550 1.7450
" />
<path d="M5.9950 5.1050
L5.9950 5.3940
" />
<path d="M5.9950 5.3940
L5.6550 5.3940
" />
<path d="M5.9950 5.3940
L5.9950 5.8550
" />
<path d="M5.9950 5.8550
L6.4550 5.8550
" />
<path d="M6.4550 0.9950
L5.9950 0.9950
" />
<path d="M6.4550 1.4560
L6.4550 0.9950
" />
<path d="M6.4550 1.4560
L6.7950 1.4560
" />
<path d="M6.4550 1.7450
L6.4550 1.4560
" />
<path d="M6.4550 5.1050
L6.7950 5.1050
" />
<path d="M6.4550 5.3940
L6.4550 5.1050
" />
<path d="M6.4550 5.8550
L6.4550 5.3940
" />
<path d="M6.7950 0.9950
L6.7950 1.4560
" />
<path d="M6.7950 1.4560
L6.7950 1.7450
" />
<path d="M6.7950 1.7450
L6.4550 1.7450
" />
<path d="M6.7950 5.1050
L6.7950 5.3940
" />
<path d="M6.7950 5.3940
L6.4550 5.3940
" />
<path d="M6.7950 5.3940
L6.7950 5.8550
" />
<path d="M6.7950 5.8550
L7.2550 5.8550
" />
<path d="M7.2550 0.9950
L6.7950 0.9950
" />
<path d="M7.2550 1.4560
L7.2550 0.9950
" />
<path d="M7.2550 1.4560
L7.5950 1.4560
" />
<path d="M7.2550 1.7450
L7.2550 1.4560
" />
<path d="M7.2550 5.1050
L7.5950 5.1050
" />
<path d="M7.2550 5.3940
L7.2550 5.1050
" />
<path d="M7.2550 5.8550
L7.2550 5.3940
" />
<path d="M7.5950 0.9950
L7.5950 1.4560
" />
<path d="M7.5950 1.4560
L7.5950 1.7450
" />
<path d="M7.5950 1.7450
L7.2550 1.7450
" />
<path d="M7.5950 5.1050
L7.5950 5.3940
" />
<path d="M7.5950 5.3940
L7.2550 5.3940
" />
<path d="M7.5950 5.3940
L7.5950 5.8550
" />
<path d="M7.5950 5.8550
L8.0550 5.8550
" />
<path d="M8.0550 0.9950
L7.5950 0.9950
" />
<path d="M8.0550 1.4560
L8.0550 0.9950
" />
<path d="M8.0550 1.4560
L8.3950 1.4560
" />
<path d="M8.0550 1.7450
L8.0550 1.4560
" />
<path d="M8.0550 5.1050
L8.3950 5.1050
" />
<path d="M8.0550 5.3940
L8.0550 5.1050
" />
<path d="M8.0550 5.8550
L8.0550 5.3940
" />
<path d="M8.3950 0.9950
L8.3950 1.4560
" />
<path d="M8.3950 1.4560
L8.3950 1.7450
" />
<path d="M8.3950 1.7450
L8.0550 1.7450
" />
<path d="M8.3950 5.1050
L8.3950 5.3940
" />
<path d="M8.3950 5.3940
L8.0550 5.3940
" />
<path d="M8.3950 5.3940
L8.3950 5.8550
" />
<path d="M8.3950 5.8550
L8.8550 5.8550
" />
<path d="M8.8550 0.9950
L8.3950 0.9950
" />
<path d="M8.8550 1.4560
L8.8550 0.9950
" />
<path d="M8.8550 1.4560
L9.1950 1.4560
" />
<path d="M8.8550 1.7450
L8.8550 1.4560
" />
<path d="M8.8550 5.1050
L9.1950 5.1050
" />
<path d="M8.8550 5.3940
L8.8550 5.1050
" />
<path d="M8.8550 5.8550
L8.8550 5.3940
" />
<path d="M9.1950 0.9950
L9.1950 1.4560
" />
<path d="M9.1950 1.4560
L9.1950 1.7450
" />
<path d="M9.1950 1.7450
L8.8550 1.7450
" />
<path d="M9.1950 5.1050
L9.1950 5.3940
" />
<path d="M9.1950 5.3940
L8.8550 5.3940
" />
<path d="M9.1950 5.3940
L9.1950 5.8550
" />
<path d="M9.1950 5.8550
L9.6550 5.8550
" />
<path d="M9.6550 0.9950
L9.1950 0.9950
" />
<path d="M9.6550 1.4560
L9.6550 0.9950
" />
<path d="M9.6550 1.4560
L9.9950 1.4560
" />
<path d="M9.6550 1.7450
L9.6550 1.4560
" />
<path d="M9.6550 5.1050
L9.9950 5.1050
" />
<path d="M9.6550 5.3940
L9.6550 5.1050
" />
<path d="M9.6550 5.8550
L9.6550 5.3940
" />
<path d="M9.9950 0.9950
L9.9950 1.4560
" />
<path d="M9.9950 1.4560
L9.9950 1.7450
" />
<path d="M9.9950 1.7450
L9.6550 1.7450
" />
<path d="M9.9950 5.1050
L9.9950 5.3940
" />
<path d="M9.9950 5.3940
L9.6550 5.3940
" />
<path d="M9.9950 5.3940
L9.9950 5.8550
" />
<path d="M9.9950 5.8550
L10.4550 5.8550
" />
<path d="M10.4550 0.9950
L9.9950 0.9950
" />
<path d="M10.4550 1.4560
L10.4550 0.9950
" />
<path d="M10.4550 1.4560
L10.7950 1.4560
" />
<path d="M10.4550 1.7450
L10.4550 1.4560
" />
<path d="M10.4550 5.1050
L10.7950 5.1050
" />
<path d="M10.4550 5.3940
L10.4550 5.1050
" />
<path d="M10.4550 5.8550
L10.4550 5.3940
" />
<path d="M10.7950 0.9950
L10.7950 1.4560
" />
<path d="M10.7950 1.4560
L10.7950 1.7450
" />
<path d="M10.7950 1.7450
L10.4550 1.7450
" />
<path d="M10.7950 5.1050
L10.7950 5.3940
" />
<path d="M10.7950 5.3940
L10.4550 5.3940
" />
<path d="M10.7950 5.3940
L10.7950 5.8550
" />
<path d="M10.7950 5.8550
L11.2550 5.8550
" />
<path d="M11.2550 0.9950
L10.7950 0.9950
" />
<path d="M11.2550 1.4560
L11.2550 0.9950
" />
<path d="M11.2550 1.4560
L11.5950 1.4560
" />
<path d="M11.2550 1.7450
L11.2550 1.4560
" />
<path d="M11.2550 5.1050
L11.5950 5.1050
" />
<path d="M11.2550 5.3940
L11.2550 5.1050
" />
<path d="M11.2550 5.8550
L11.2550 5.3940
" />
<path d="M11.5950 0.9950
L11.5950 1.4560
" />
<path d="M11.5950 1.4560
L11.5950 1.7450
" />
<path d="M11.5950 1.7450
L11.2550 1.7450
" />
<path d="M11.5950 5.1050
L11.5950 5.3940
" />
<path d="M11.5950 5.3940
L11.2550 5.3940
" />
<path d="M11.5950 5.3940
L11.5950 5.8550
" />
<path d="M11.5950 5.8550
L12.0550 5.8550
" />
<path d="M12.0550 0.9950
L11.5950 0.9950
" />
<path d="M12.0550 1.4560
L12.0550 0.9950
" />
<path d="M12.0550 1.4560
L12.3950 1.4560
" />
<path d="M12.0550 1.7450
L12.0550 1.4560
" />
<path d="M12.0550 5.1050
L12.3950 5.1050
" />
<path d="M12.0550 5.3940
L12.0550 5.1050
" />
<path d="M12.0550 5.8550
L12.0550 5.3940
" />
<path d="M12.3950 0.9950
L12.3950 1.4560
" />
<path d="M12.3950 1.4560
L12.3950 1.7450
" />
<path d="M12.3950 1.7450
L12.0550 1.7450
" />
<path d="M12.3950 5.1050
L12.3950 5.3940
" />
<path d="M12.3950 5.3940
L12.0550 5.3940
" />
<path d="M12.3950 5.3940
L12.3950 5.8550
" />
<path d="M12.3950 5.8550
L12.8550 5.8550
" />
<path d="M12.8550 0.9950
L12.3950 0.9950
" />
<path d="M12.8550 1.4560
L12.8550 0.9950
" />
<path d="M12.8550 1.4560
L13.1950 1.4560
" />
<path d="M12.8550 1.7450
L12.8550 1.4560
" />
<path d="M12.8550 5.1050
L13.1950 5.1050
" />
<path d="M12.8550 5.3940
L12.8550 5.1050
" />
<path d="M12.8550 5.8550
L12.8550 5.3940
" />
<path d="M13.1950 0.9950
L13.1950 1.4560
" />
<path d="M13.1950 1.4560
L13.1950 1.7450
" />
<path d="M13.1950 1.7450
L12.8550 1.7450
" />
<path d="M13.1950 5.1050
L13.1950 5.3940
" />
<path d="M13.1950 5.3940
L12.8550 5.3940
" />
<path d="M13.1950 5.3940
L13.1950 5.8550
" />
<path d="M13.1950 5.8550
L13.6550 5.8550
" />
<path d="M13.6550 0.9950
L13.1950 0.9950
" />
<path d="M13.6550 1.4560
L13.6550 0.9950
" />
<path d="M13.6550 1.4560
L13.9950 1.4560
" />
<path d="M13.6550 1.7450
L13.6550 1.4560
" />
<path d="M13.6550 5.1050
L13.9950 5.1050
" />
<path d="M13.6550 5.3940
L13.6550 5.1050
" />
<path d="M13.6550 5.8550
L13.6550 5.3940
" />
<path d="M13.9950 0.9950
L13.9950 1.4560
" />
<path d="M13.9950 1.4560
L13.9950 1.7450
" />
<path d="M13.9950 1.7450
L13.6550 1.7450
" />
<path d="M13.9950 5.1050
L13.9950 5.3940
" />
<path d="M13.9950 5.3940
L13.6550 5.3940
" />
<path d="M13.9950 5.3940
L13.9950 5.8550
" />
<path d="M13.9950 5.8550
L14.4550 5.8550
" />
<path d="M14.4550 0.9950
L13.9950 0.9950
" />
<path d="M14.4550 1.4560
L14.4550 0.9950
" />
<path d="M14.4550 1.4560
L14.7950 1.4560
" />
<path d="M14.4550 1.7450
L14.4550 1.4560
" />
<path d="M14.4550 5.1050
L14.7950 5.1050
" />
<path d="M14.4550 5.3940
L14.4550 5.1050
" />
<path d="M14.4550 5.8550
L14.4550 5.3940
" />
<path d="M14.7950 0.9950
L14.7950 1.4560
" />
<path d="M14.7950 1.4560
L14.7950 1.7450
" />
<path d="M14.7950 1.7450
L14.4550 1.7450
" />
<path d="M14.7950 5.1050
L14.7950 5.3940
" />
<path d="M14.7950 5.3940
L14.4550 5.3940
" />
<path d="M14.7950 5.3940
L14.7950 5.8550
" />
<path d="M14.7950 5.8550
L15.2550 5.8550
" />
<path d="M15.2550 0.9950
L14.7950 0.9950
" />
<path d="M15.2550 1.4560
L15.2550 0.9950
" />
<path d="M15.2550 1.4560
L15.5950 1.4560
" />
<path d="M15.2550 1.7450
L15.2550 1.4560
" />
<path d="M15.2550 5.1050
L15.5950 5.1050
" />
<path d="M15.2550 5.3940
L15.2550 5.1050
" />
<path d="M15.2550 5.8550
L15.2550 5.3940
" />
<path d="M15.5950 0.9950
L15.5950 1.4560
" />
<path d="M15.5950 1.4560
L15.5950 1.7450
" />
<path d="M15.5950 1.7450
L15.2550 1.7450
" />
<path d="M15.5950 5.1050
L15.5950 5.3940
" />
<path d="M15.5950 5.3940
L15.2550 5.3940
" />
<path d="M15.5950 5.3940
L15.5950 5.8550
" />
<path d="M15.5950 5.8550
L16.0550 5.8550
" />
<path d="M16.0550 0.9950
L15.5950 0.9950
" />
<path d="M16.0550 1.4560
L16.0550 0.9950
" />
<path d="M16.0550 1.4560
L16.3950 1.4560
" />
<path d="M16.0550 1.7450
L16.0550 1.4560
" />
<path d="M16.0550 5.1050
L16.3950 5.1050
" />
<path d="M16.0550 5.3940
L16.0550 5.1050
" />
<path d="M16.0550 5.8550
L16.0550 5.3940
" />
<path d="M16.3950 0.9950
L16.3950 1.4560
" />
<path d="M16.3950 1.4560
L16.3950 1.7450
" />
<path d="M16.3950 1.7450
L16.0550 1.7450
" />
<path d="M16.3950 5.1050
L16.3950 5.3940
" />
<path d="M16.3950 5.3940
L16.0550 5.3940
" />
<path d="M16.3950 5.3940
L16.3950 5.8550
" />
<path d="M16.3950 5.8550
L16.8550 5.8550
" />
<path d="M16.8550 0.9950
L16.3950 0.9950
" />
<path d="M16.8550 1.4560
L16.8550 0.9950
" />
<path d="M16.8550 1.4560
L17.1950 1.4560
" />
<path d="M16.8550 1.7450
L16.8550 1.4560
" />
<path d="M16.8550 5.1050
L17.1950 5.1050
" />
<path d="M16.8550 5.3940
L16.8550 5.1050
" />
<path d="M16.8550 5.8550
L16.8550 5.3940
" />
<path d="M17.1950 0.9950
L17.1950 1.4560
" />
<path d="M17.1950 1.4560
L17.1950 1.7450
" />
<path d="M17.1950 1.7450
L16.8550 1.7450
" />
<path d="M17.1950 5.1050
L17.1950 5.3940
" />
<path d="M17.1950 5.3940
L16.8550 5.3940
" />
<path d="M17.1950 5.3940
L17.1950 5.8550
" />
<path d="M17.1950 5.8550
L17.6550 5.8550
" />
<path d="M17.6550 0.9950
L17.1950 0.9950
" />
<path d="M17.6550 1.4560
L17.6550 0.9950
" />
<path d="M17.6550 1.4560
L17.9950 1.4560
" />
<path d="M17.6550 1.7450
L17.6550 1.4560
" />
<path d="M17.6550 5.1050
L17.9950 5.1050
" />
<path d="M17.6550 5.3940
L17.6550 5.1050
" />
<path d="M17.6550 5.8550
L17.6550 5.3940
" />
<path d="M17.9950 0.9950
L17.9950 1.4560
" />
<path d="M17.9950 1.4560
L17.9950 1.7450
" />
<path d="M17.9950 1.7450
L17.6550 1.7450
" />
<path d="M17.9950 5.1050
L17.9950 5.3940
" />
<path d="M17.9950 5.3940
L17.6550 5.3940
" />
<path d="M17.9950 5.3940
L17.9950 5.8550
" />
<path d="M17.9950 5.8550
L18.4550 5.8550
" />
<path d="M18.4550 0.9950
L17.9950 0.9950
" />
<path d="M18.4550 1.4560
L18.4550 0.9950
" />
<path d="M18.4550 1.4560
L18.7950 1.4560
" />
<path d="M18.4550 1.7450
L18.4550 1.4560
" />
<path d="M18.4550 5.1050
L18.7950 5.1050
" />
<path d="M18.4550 5.3940
L18.4550 5.1050
" />
<path d="M18.4550 5.8550
L18.4550 5.3940
" />
<path d="M18.7950 0.9950
L18.7950 1.4560
" />
<path d="M18.7950 1.4560
L18.7950 1.7450
" />
<path d="M18.7950 1.7450
L18.4550 1.7450
" />
<path d="M18.7950 5.1050
L18.7950 5.3940
" />
<path d="M18.7950 5.3940
L18.4550 5.3940
" />
<path d="M18.7950 5.3940
L18.7950 5.8550
" />
<path d="M18.7950 5.8550
L19.2550 5.8550
" />
<path d="M19.2550 0.9950
L18.7950 0.9950
" />
<path d="M19.2550 1.4560
L19.2550 0.9950
" />
<path d="M19.2550 1.4560
L19.5950 1.4560
" />
<path d="M19.2550 1.7450
L19.2550 1.4560
" />
<path d="M19.2550 5.1050
L19.5950 5.1050
" />
<path d="M19.2550 5.3940
L19.2550 5.1050
" />
<path d="M19.2550 5.8550
L19.2550 5.3940
" />
<path d="M19.5950 0.9950
L19.5950 1.4560
" />
<path d="M19.5950 1.4560
L19.5950 1.7450
" />
<path d="M19.5950 1.7450
L19.2550 1.7450
" />
<path d="M19.5950 5.1050
L19.5950 5.3940
" />
<path d="M19.5950 5.3940
L19.2550 5.3940
" />
<path d="M19.5950 5.3940
L19.5950 5.8550
" />
<path d="M19.5950 5.8550
L20.0550 5.8550
" />
<path d="M20.0550 0.9950
L19.5950 0.9950
" />
<path d="M20.0550 1.4560
L20.0550 0.9950
" />
<path d="M20.0550 1.4560
L20.3950 1.4560
" />
<path d="M20.0550 1.7450
L20.0550 1.4560
" />
<path d="M20.0550 5.1050
L20.3950 5.1050
" />
<path d="M20.0550 5.3940
L20.0550 5.1050
" />
<path d="M20.0550 5.8550
L20.0550 5.3940
" />
<path d="M20.3950 0.9950
L20.3950 1.4560
" />
<path d="M20.3950 1.4560
L20.3950 1.7450
" />
<path d="M20.3950 1.7450
L20.0550 1.7450
" />
<path d="M20.3950 5.1050
L20.3950 5.3940
" />
<path d="M20.3950 5.3940
L20.0550 5.3940
" />
<path d="M20.3950 5.3940
L20.3950 5.8550
" />
<path d="M20.3950 5.8550
L20.8550 5.8550
" />
<path d="M20.8550 0.9950
L20.3950 0.9950
" />
<path d="M20.8550 1.4560
L20.8550 0.9950
" />
<path d="M20.8550 1.4560
L21.1950 1.4560
" />
<path d="M20.8550 1.7450
L20.8550 1.4560
" />
<path d="M20.8550 5.1050
L21.1950 5.1050
" />
<path d="M20.8550 5.3940
L20.8550 5.1050
" />
<path d="M20.8550 5.8550
L20.8550 5.3940
" />
<path d="M21.1950 0.9950
L21.1950 1.4560
" />
<path d="M21.1950 1.4560
L21.1950 1.7450
" />
<path d="M21.1950 1.7450
L20.8550 1.7450
" />
<path d="M21.1950 5.1050
L21.1950 5.3940
" />
<path d="M21.1950 5.3940
L20.8550 5.3940
" />
<path d="M21.1950 5.3940
L21.1950 5.8550
" />
<path d="M21.1950 5.8550
L21.6550 5.8550
" />
<path d="M21.6550 0.9950
L21.1950 0.9950
" />
<path d="M21.6550 1.4560
L21.6550 0.9950
" />
<path d="M21.6550 1.4560
L21.9950 1.4560
" />
<path d="M21.6550 1.7450
L21.6550 1.4560
" />
<path d="M21.6550 5.1050
L21.9950 5.1050
" />
<path d="M21.6550 5.3940
L21.6550 5.1050
" />
<path d="M21.6550 5.8550
L21.6550 5.3940
" />
<path d="M21.9950 0.9950
L21.9950 1.4560
" />
<path d="M21.9950 1.4560
L21.9950 1.7450
" />
<path d="M21.9950 1.7450
L21.6550 1.7450
" />
<path d="M21.9950 5.1050
L21.9950 5.3940
" />
<path d="M21.9950 5.3940
L21.6550 5.3940
" />
<path d="M21.9950 5.3940
L21.9950 5.8550
" />
<path d="M21.9950 5.8550
L22.4550 5.8550
" />
<path d="M22.4550 0.9950
L21.9950 0.9950
" />
<path d="M22.4550 1.4560
L22.4550 0.9950
" />
<path d="M22.4550 1.4560
L22.7950 1.4560
" />
<path d="M22.4550 1.7450
L22.4550 1.4560
" />
<path d="M22.4550 5.1050
L22.7950 5.1050
" />
<path d="M22.4550 5.3940
L22.4550 5.1050
" />
<path d="M22.4550 5.8550
L22.4550 5.3940
" />
<path d="M22.7950 0.9950
L22.7950 1.4560
" />
<path d="M22.7950 1.4560
L22.7950 1.7450
" />
<path d="M22.7950 1.7450
L22.4550 1.7450
" />
<path d="M22.7950 5.1050
L22.7950 5.3940
" />
<path d="M22.7950 5.3940
L22.4550 5.3940
" />
<path d="M22.7950 5.3940
L22.7950 5.8550
" />
<path d="M22.7950 5.8550
L23.2550 5.8550
" />
<path d="M23.2550 0.9950
L22.7950 0.9950
" />
<path d="M23.2550 1.4560
L23.2550 0.9950
" />
<path d="M23.2550 1.4560
L23.5950 1.4560
" />
<path d="M23.2550 1.7450
L23.2550 1.4560
" />
<path d="M23.2550 5.1050
L23.5950 5.1050
" />
<path d="M23.2550 5.3940
L23.2550 5.1050
" />
<path d="M23.2550 5.8550
L23.2550 5.3940
" />
<path d="M23.5950 0.9950
L23.5950 1.4560
" />
<path d="M23.5950 1.4560
L23.5950 1.7450
" />
<path d="M23.5950 1.7450
L23.2550 1.7450
" />
<path d="M23.5950 5.1050
L23.5950 5.3940
" />
<path d="M23.5950 5.3940
L23.2550 5.3940
" />
<path d="M23.5950 5.3940
L23.5950 5.8550
" />
<path d="M23.5950 5.8550
L24.0550 5.8550
" />
<path d="M24.0550 0.9950
L23.5950 0.9950
" />
<path d="M24.0550 1.4560
L24.0550 0.9950
" />
<path d="M24.0550 1.4560
L24.3950 1.4560
" />
<path d="M24.0550 1.7450
L24.0550 1.4560
" />
<path d="M24.0550 5.1050
L24.3950 5.1050
" />
<path d="M24.0550 5.3940
L24.0550 5.1050
" />
<path d="M24.0550 5.8550
L24.0550 5.3940
" />
<path d="M24.3950 0.9950
L24.3950 1.4560
" />
<path d="M24.3950 1.4560
L24.3950 1.7450
" />
<path d="M24.3950 1.7450
L24.0550 1.7450
" />
<path d="M24.3950 5.1050
L24.3950 5.3940
" />
<path d="M24.3950 5.3940
L24.0550 5.3940
" />
<path d="M24.3950 5.3940
L24.3950 5.8550
" />
<path d="M24.3950 5.8550
L24.8550 5.8550
" />
<path d="M24.8550 0.9950
L24.3950 0.9950
" />
<path d="M24.8550 1.4560
L24.8550 0.9950
" />
<path d="M24.8550 1.4560
L25.1950 1.4560
" />
<path d="M24.8550 1.7450
L24.8550 1.4560
" />
<path d="M24.8550 5.1050
L25.1950 5.1050
" />
<path d="M24.8550 5.3940
L24.8550 5.1050
" />
<path d="M24.8550 5.8550
L24.8550 5.3940
" />
<path d="M25.1950 0.9950
L25.1950 1.4560
" />
<path d="M25.1950 1.4560
L25.1950 1.7450
" />
<path d="M25.1950 1.7450
L24.8550 1.7450
" />
<path d="M25.1950 5.1050
L25.1950 5.3940
" />
<path d="M25.1950 5.3940
L24.8550 5.3940
" />
<path d="M25.1950 5.3940
L25.1950 5.8550
" />
<path d="M25.1950 5.8550
L25.6550 5.8550
" />
<path d="M25.6550 0.9950
L25.1950 0.9950
" />
<path d="M25.6550 1.4560
L25.6550 0.9950
" />
<path d="M25.6550 1.4560
L25.9950 1.4560
" />
<path d="M25.6550 1.7450
L25.6550 1.4560
" />
<path d="M25.6550 5.1050
L25.9950 5.1050
" />
<path d="M25.6550 5.3940
L25.6550 5.1050
" />
<path d="M25.6550 5.8550
L25.6550 5.3940
" />
<path d="M25.9950 0.9950
L25.9950 1.4560
" />
<path d="M25.9950 1.4560
L25.9950 1.7450
" />
<path d="M25.9950 1.7450
L25.6550 1.7450
" />
<path d="M25.9950 5.1050
L25.9950 5.3940
" />
<path d="M25.9950 5.3940
L25.6550 5.3940
" />
<path d="M25.9950 5.3940
L25.9950 5.8550
" />
<path d="M25.9950 5.8550
L26.4550 5.8550
" />
<path d="M26.4550 0.9950
L25.9950 0.9950
" />
<path d="M26.4550 1.4560
L26.4550 0.9950
" />
<path d="M26.4550 1.4560
L26.7950 1.4560
" />
<path d="M26.4550 1.7450
L26.4550 1.4560
" />
<path d="M26.4550 5.1050
L26.7950 5.1050
" />
<path d="M26.4550 5.3940
L26.4550 5.1050
" />
<path d="M26.4550 5.8550
L26.4550 5.3940
" />
<path d="M26.7950 0.9950
L26.7950 1.4560
" />
<path d="M26.7950 1.4560
L26.7950 1.7450
" />
<path d="M26.7950 1.7450
L26.4550 1.7450
" />
<path d="M26.7950 5.1050
L26.7950 5.3940
" />
<path d="M26.7950 5.3940
L26.4550 5.3940
" />
<path d="M26.7950 5.3940
L26.7950 5.8550
" />
<path d="M26.7950 5.8550
L27.2550 5.8550
" />
<path d="M27.2550 0.9950
L26.7950 0.9950
" />
<path d="M27.2550 1.4560
L27.2550 0.9950
" />
<path d="M27.2550 1.4560
L27.5950 1.4560
" />
<path d="M27.2550 1.7450
L27.2550 1.4560
" />
<path d="M27.2550 5.1050
L27.5950 5.1050
" />
<path d="M27.2550 5.3940
L27.2550 5.1050
" />
<path d="M27.2550 5.8550
L27.2550 5.3940
" />
<path d="M27.5950 0.9950
L27.5950 1.4560
" />
<path d="M27.5950 1.4560
L27.5950 1.7450
" />
<path d="M27.5950 1.7450
L27.2550 1.7450
" />
<path d="M27.5950 5.1050
L27.5950 5.3940
" />
<path d="M27.5950 5.3940
L27.2550 5.3940
" />
<path d="M27.5950 5.3940
L27.5950 5.8550
" />
<path d="M27.5950 5.8550
L28.0550 5.8550
" />
<path d="M28.0550 0.9950
L27.5950 0.9950
" />
<path d="M28.0550 1.4560
L28.0550 0.9950
" />
<path d="M28.0550 1.4560
L28.3950 1.4560
" />
<path d="M28.0550 1.7450
L28.0550 1.4560
" />
<path d="M28.0550 5.1050
L28.3950 5.1050
" />
<path d="M28.0550 5.3940
L28.0550 5.1050
" />
<path d="M28.0550 5.8550
L28.0550 5.3940
" />
<path d="M28.3950 0.9950
L28.3950 1.4560
" />
<path d="M28.3950 1.4560
L28.3950 1.7450
" />
<path d="M28.3950 1.7450
L28.0550 1.7450
" />
<path d="M28.3950 5.1050
L28.3950 5.3940
" />
<path d="M28.3950 5.3940
L28.0550 5.3940
" />
<path d="M28.3950 5.3940
L28.3950 5.8550
" />
<path d="M28.3950 5.8550
L28.8550 5.8550
" />
<path d="M28.8550 0.9950
L28.3950 0.9950
" />
<path d="M28.8550 1.4560
L28.8550 0.9950
" />
<path d="M28.8550 1.4560
L29.1950 1.4560
" />
<path d="M28.8550 1.7450
L28.8550 1.4560
" />
<path d="M28.8550 5.1050
L29.1950 5.1050
" />
<path d="M28.8550 5.3940
L28.8550 5.1050
" />
<path d="M28.8550 5.8550
L28.8550 5.3940
" />
<path d="M29.1950 0.9950
L29.1950 1.4560
" />
<path d="M29.1950 1.4560
L29.1950 1.7450
" />
<path d="M29.1950 1.7450
L28.8550 1.7450
" />
<path d="M29.1950 5.1050
L29.1950 5.3940
" />
<path d="M29.1950 5.3940
L28.8550 5.3940
" />
<path d="M29.1950 5.3940
L29.1950 5.8550
" />
<path d="M29.1950 5.8550
L29.6550 5.8550
" />
<path d="M29.6550 0.9950
L29.1950 0.9950
" />
<path d="M29.6550 1.4560
L29.6550 0.9950
" />
<path d="M29.6550 1.4560
L29.9950 1.4560
" />
<path d="M29.6550 1.7450
L29.6550 1.4560
" />
<path d="M29.6550 5.1050
L29.9950 5.1050
" />
<path d="M29.6550 5.3940
L29.6550 5.1050
" />
<path d="M29.6550 5.8550
L29.6550 5.3940
" />
<path d="M29.9950 0.9950
L29.9950 1.4560
" />
<path d="M29.9950 1.4560
L29.9950 1.7450
" />
<path d="M29.9950 1.7450
L29.6550 1.7450
" />
<path d="M29.9950 5.1050
L29.9950 5.3940
" />
<path d="M29.9950 5.3940
L29.6550 5.3940
" />
<path d="M29.9950 5.3940
L29.9950 5.8550
" />
<path d="M29.9950 5.8550
L30.4550 5.8550
" />
<path d="M30.4550 0.9950
L29.9950 0.9950
" />
<path d="M30.4550 1.4560
L30.4550 0.9950
" />
<path d="M30.4550 1.4560
L30.7950 1.4560
" />
<path d="M30.4550 1.7450
L30.4550 1.4560
" />
<path d="M30.4550 5.1050
L30.7950 5.1050
" />
<path d="M30.4550 5.3940
L30.4550 5.1050
" />
<path d="M30.4550 5.8550
L30.4550 5.3940
" />
<path d="M30.7950 0.9950
L30.7950 1.4560
" />
<path d="M30.7950 1.4560
L30.7950 1.7450
" />
<path d="M30.7950 1.7450
L30.4550 1.7450
" />
<path d="M30.7950 5.1050
L30.7950 5.3940
" />
<path d="M30.7950 5.3940
L30.4550 5.3940
" />
<path d="M30.7950 5.3940
L30.7950 5.8550
" />
<path d="M30.7950 5.8550
L31.2550 5.8550
" />
<path d="M31.2550 0.9950
L30.7950 0.9950
" />
<path d="M31.2550 1.4560
L31.2550 0.9950
" />
<path d="M31.2550 1.4560
L31.5950 1.4560
" />
<path d="M31.2550 1.7450
L31.2550 1.4560
" />
<path d="M31.2550 5.1050
L31.5950 5.1050
" />
<path d="M31.2550 5.3940
L31.2550 5.1050
" />
<path d="M31.2550 5.8550
L31.2550 5.3940
" />
<path d="M31.5950 0.9950
L31.5950 1.4560
" />
<path d="M31.5950 1.4560
L31.5950 1.7450
" />
<path d="M31.5950 1.7450
L31.2550 1.7450
" />
<path d="M31.5950 5.1050
L31.5950 5.3940
" />
<path d="M31.5950 5.3940
L31.2550 5.3940
" />
<path d="M31.5950 5.3940
L31.5950 5.8550
" />
<path d="M31.5950 5.8550
L32.0550 5.8550
" />
<path d="M32.0550 0.9950
L31.5950 0.9950
" />
<path d="M32.0550 1.4560
L32.0550 0.9950
" />
<path d="M32.0550 1.4560
L32.3950 1.4560
" />
<path d="M32.0550 1.7450
L32.0550 1.4560
" />
<path d="M32.0550 5.1050
L32.3950 5.1050
" />
<path d="M32.0550 5.3940
L32.0550 5.1050
" />
<path d="M32.0550 5.8550
L32.0550 5.3940
" />
<path d="M32.3950 0.9950
L32.3950 1.4560
" />
<path d="M32.3950 1.4560
L32.3950 1.7450
" />
<path d="M32.3950 1.7450
L32.0550 1.7450
" />
<path d="M32.3950 5.1050
L32.3950 5.3940
" />
<path d="M32.3950 5.3940
L32.0550 5.3940
" />
<path d="M32.3950 5.3940
L32.3950 5.8550
" />
<path d="M32.3950 5.8550
L32.8550 5.8550
" />
<path d="M32.8550 0.9950
L32.3950 0.9950
" />
<path d="M32.8550 1.4560
L32.8550 0.9950
" />
<path d="M32.8550 1.4560
L33.1950 1.4560
" />
<path d="M32.8550 1.7450
L32.8550 1.4560
" />
<path d="M32.8550 5.1050
L33.1950 5.1050
" />
<path d="M32.8550 5.3940
L32.8550 5.1050
" />
<path d="M32.8550 5.8550
L32.8550 5.3940
" />
<path d="M33.1950 0.9950
L33.1950 1.4560
" />
<path d="M33.1950 1.4560
L33.1950 1.7450
" />
<path d="M33.1950 1.7450
L32.8550 1.7450
" />
<path d="M33.1950 5.1050
L33.1950 5.3940
" />
<path d="M33.1950 5.3940
L32.8550 5.3940
" />
<path d="M33.1950 5.3940
L33.1950 5.8550
" />
<path d="M33.1950 5.8550
L33.6550 5.8550
" />
<path d="M33.6550 0.9950
L33.1950 0.9950
" />
<path d="M33.6550 1.4560
L33.6550 0.9950
" />
<path d="M33.6550 1.4560
L33.9950 1.4560
" />
<path d="M33.6550 1.7450
L33.6550 1.4560
" />
<path d="M33.6550 5.1050
L33.9950 5.1050
" />
<path d="M33.6550 5.3940
L33.6550 5.1050
" />
<path d="M33.6550 5.8550
L33.6550 5.3940
" />
<path d="M33.9950 0.9950
L33.9950 1.4560
" />
<path d="M33.9950 1.4560
L33.9950 1.7450
" />
<path d="M33.9950 1.7450
L33.6550 1.7450
" />
<path d="M33.9950 5.1050
L33.9950 5.3940
" />
<path d="M33.9950 5.3940
L33.6550 5.3940
" />
<path d="M33.9950 5.3940
L33.9950 5.8550
" />
<path d="M33.9950 5.8550
L34.4550 5.8550
" />
<path d="M34.4550 0.9950
L33.9950 0.9950
" />
<path d="M34.4550 1.4560
L34.4550 0.9950
" />
<path d="M34.4550 1.4560
L34.7950 1.4560
" />
<path d="M34.4550 1.7450
L34.4550 1.4560
" />
<path d="M34.4550 5.1050
L34.7950 5.1050
" />
<path d="M34.4550 5.3940
L34.4550 5.1050
" />
<path d="M34.4550 5.8550
L34.4550 5.3940
" />
<path d="M34.7950 0.9950
L34.7950 1.4560
" />
<path d="M34.7950 1.4560
L34.7950 1.7450
" />
<path d="M34.7950 1.7450
L34.4550 1.7450
" />
<path d="M34.7950 5.1050
L34.7950 5.3940
" />
<path d="M34.7950 5.3940
L34.4550 5.3940
" />
<path d="M34.7950 5.3940
L34.7950 5.8550
" />
<path d="M34.7950 5.8550
L35.2550 5.8550
" />
<path d="M34.8850 4.4250
L34.8850 2.4250
" />
<path d="M35.2550 0.9950
L34.7950 0.9950
" />
<path d="M35.2550 1.4560
L35.2550 0.9950
" />
<path d="M35.2550 1.4560
L37.8740 1.4560
" />
<path d="M35.2550 1.7450
L35.2550 1.4560
" />
<path d="M35.2550 5.1050
L36.5850 5.1050
" />
<path d="M35.2550 5.3940
L35.2550 5.1050
" />
<path d="M35.2550 5.8550
L35.2550 5.3940
" />
<path d="M35.2650 4.4250
L35.2650 2.4250
" />
<path d="M35.4850 2.4250
L34.8850 2.4250
" />
<path d="M35.4850 2.4250
L35.4850 1.7450
" />
<path d="M35.4850 4.4250
L34.8850 4.4250
" />
<path d="M35.4850 4.4250
L35.4850 2.4250
" />
<path d="M35.4850 5.1050
L35.4850 4.4250
" />
<path d="M36.5850 5.1050
L37.5850 4.1050
" />
<path d="M36.7050 5.3940
L35.2550 5.3940
" />
<path d="M36.7050 5.3940
L36.5850 5.1050
" />
<path d="M37.5850 1.7450
L35.2550 1.7450
" />
<path d="M37.5850 4.1050
L37.5850 1.7450
" />
<path d="M37.8740 1.4560
L37.5850 1.7450
" />
<path d="M37.8740 1.4560
L37.8740 4.2250
" />
<path d="M37.8740 4.2250
L36.7050 5.3940
" />
<path d="M37.8740 4.2250
L37.5850 4.1050
" />
<path d="M38.4250 0.6250
L0.4250 0.6250
" />
<path d="M38.4250 0.7250
L0.4250 0.7250
" />
<path d="M38.4250 0.7250
L38.4250 0.6250
" />
<path d="M38.4250 6.1250
L38.4250 0.7250
" />
<path d="M38.4250 6.2250
L38.4250 6.1250
" />
</g> 
</svg>
