<?xml version="1.0" standalone="no"?>
 <!DOCTYPE svg PUBLIC "-//W3C//DTD SVG 1.1//EN" 
 "http://www.w3.org/Graphics/SVG/1.1/DTD/svg11.dtd"> 
<svg
  xmlns:svg="http://www.w3.org/2000/svg"
  xmlns="http://www.w3.org/2000/svg"
  xmlns:xlink="http://www.w3.org/1999/xlink"
  version="1.1"
  width="1.4478mm" height="0.7366mm" viewBox="0.0000 0.0000 1.4478 0.7366">
<title>SVG Image created as outline.svg date 2025/06/16 09:17:38 </title>
  <desc>Image generated by PCBNEW </desc>
<g style="fill:#000000; fill-opacity:1.0000;stroke:#000000; stroke-opacity:1.0000;
stroke-linecap:round; stroke-linejoin:round;"
 transform="translate(0 0) scale(1 1)">
</g>
<g style="fill:none; 
stroke:#000000; stroke-width:0.0200; stroke-opacity:1; 
stroke-linecap:round; stroke-linejoin:round;">
<path d="M0.4250 0.5230
L0.4250 0.2250
" />
<path d="M0.4750 0.2250
L0.4250 0.2250
" />
<path d="M0.4750 0.2250
L0.4750 0.2730
" />
<path d="M0.4750 0.2730
L0.5230 0.2730
" />
<path d="M0.4750 0.4750
L0.4750 0.5230
" />
<path d="M0.4750 0.5230
L0.4250 0.5230
" />
<path d="M0.5230 0.2250
L0.4750 0.2250
" />
<path d="M0.5230 0.2250
L0.5230 0.5230
" />
<path d="M0.5230 0.4750
L0.4750 0.4750
" />
<path d="M0.5230 0.4750
L0.5230 0.2730
" />
<path d="M0.5230 0.5230
L0.4750 0.5230
" />
<path d="M0.5230 0.5230
L0.9250 0.5230
" />
<path d="M0.9250 0.2250
L0.5230 0.2250
" />
<path d="M0.9250 0.2730
L0.9730 0.2730
" />
<path d="M0.9250 0.4750
L0.9250 0.2730
" />
<path d="M0.9250 0.5230
L0.9250 0.2250
" />
<path d="M0.9730 0.2250
L0.9250 0.2250
" />
<path d="M0.9730 0.2250
L1.0230 0.2250
" />
<path d="M0.9730 0.2730
L0.9730 0.2250
" />
<path d="M0.9730 0.4750
L0.9250 0.4750
" />
<path d="M0.9730 0.5230
L0.9250 0.5230
" />
<path d="M0.9730 0.5230
L0.9730 0.4750
" />
<path d="M0.9730 0.5230
L1.0230 0.5230
" />
<path d="M1.0230 0.5230
L1.0230 0.2250
" />
</g> 
</svg>
