<?xml version="1.0" standalone="no"?>
 <!DOCTYPE svg PUBLIC "-//W3C//DTD SVG 1.1//EN" 
 "http://www.w3.org/Graphics/SVG/1.1/DTD/svg11.dtd"> 
<svg
  xmlns:svg="http://www.w3.org/2000/svg"
  xmlns="http://www.w3.org/2000/svg"
  xmlns:xlink="http://www.w3.org/1999/xlink"
  version="1.1"
  width="68.9864mm" height="13.7414mm" viewBox="0.0000 0.0000 68.9864 13.7414">
<title>SVG Image created as outline.svg date 2025/04/30 14:52:14 </title>
  <desc>Image generated by PCBNEW </desc>
<g style="fill:#000000; fill-opacity:0.0000;stroke:#000000; stroke-opacity:1.0000;
stroke-linecap:round; stroke-linejoin:round;"
 transform="translate(0 0) scale(1 1)">
</g>
<g style="fill:none; 
stroke:#000000; stroke-width:0.0200; stroke-opacity:1; 
stroke-linecap:round; stroke-linejoin:round;">
<path d="M5.7680 0.3090
L5.7680 2.3530
" />
<path d="M5.7680 2.3530
L6.1750 2.3530
" />
<path d="M5.7680 2.3550
L5.7680 2.3530
" />
<path d="M5.7680 2.3600
L5.7680 2.3550
" />
<path d="M5.7680 2.3670
L5.7680 2.3600
" />
<path d="M5.7680 2.3780
L5.7680 2.3670
" />
<path d="M5.7680 2.3920
L5.7680 2.3780
" />
<path d="M5.7680 2.4090
L5.7680 2.3920
" />
<path d="M5.7680 2.4280
L5.7680 2.4090
" />
<path d="M5.7680 2.4490
L5.7680 2.4280
" />
<path d="M5.7680 2.4720
L5.7680 2.4490
" />
<path d="M5.7680 2.4970
L5.7680 2.4720
" />
<path d="M5.7680 2.5230
L5.7680 2.4970
" />
<path d="M5.7680 2.5510
L5.7680 2.5230
" />
<path d="M5.7680 2.5790
L5.7680 2.5510
" />
<path d="M5.7680 2.6070
L5.7680 2.5790
" />
<path d="M5.7680 3.6230
L5.7680 2.6070
" />
<path d="M5.7680 3.6230
L6.2510 3.6230
" />
<path d="M5.7680 3.6520
L5.7680 3.6230
" />
<path d="M5.7680 3.6800
L5.7680 3.6520
" />
<path d="M5.7680 3.7070
L5.7680 3.6800
" />
<path d="M5.7680 3.7330
L5.7680 3.7070
" />
<path d="M5.7680 3.7580
L5.7680 3.7330
" />
<path d="M5.7680 3.7820
L5.7680 3.7580
" />
<path d="M5.7680 3.8030
L5.7680 3.7820
" />
<path d="M5.7680 3.8220
L5.7680 3.8030
" />
<path d="M5.7680 3.8380
L5.7680 3.8220
" />
<path d="M5.7680 3.8520
L5.7680 3.8380
" />
<path d="M5.7680 3.8630
L5.7680 3.8520
" />
<path d="M5.7680 3.8710
L5.7680 3.8630
" />
<path d="M5.7680 3.8760
L5.7680 3.8710
" />
<path d="M5.7680 3.8770
L5.7680 3.8760
" />
<path d="M5.7680 3.8770
L5.7680 4.7280
" />
<path d="M5.7680 9.1220
L5.7680 9.9730
" />
<path d="M5.7680 9.9730
L6.1750 9.9730
" />
<path d="M5.7680 9.9750
L5.7680 9.9730
" />
<path d="M5.7680 9.9800
L5.7680 9.9750
" />
<path d="M5.7680 9.9870
L5.7680 9.9800
" />
<path d="M5.7680 9.9980
L5.7680 9.9870
" />
<path d="M5.7680 10.0120
L5.7680 9.9980
" />
<path d="M5.7680 10.0290
L5.7680 10.0120
" />
<path d="M5.7680 10.0480
L5.7680 10.0290
" />
<path d="M5.7680 10.0690
L5.7680 10.0480
" />
<path d="M5.7680 10.0920
L5.7680 10.0690
" />
<path d="M5.7680 10.1170
L5.7680 10.0920
" />
<path d="M5.7680 10.1430
L5.7680 10.1170
" />
<path d="M5.7680 10.1710
L5.7680 10.1430
" />
<path d="M5.7680 10.1990
L5.7680 10.1710
" />
<path d="M5.7680 10.2270
L5.7680 10.1990
" />
<path d="M5.7680 11.2430
L5.7680 10.2270
" />
<path d="M5.7680 11.2430
L6.2510 11.2430
" />
<path d="M5.7680 11.2720
L5.7680 11.2430
" />
<path d="M5.7680 11.3000
L5.7680 11.2720
" />
<path d="M5.7680 11.3270
L5.7680 11.3000
" />
<path d="M5.7680 11.3530
L5.7680 11.3270
" />
<path d="M5.7680 11.3780
L5.7680 11.3530
" />
<path d="M5.7680 11.4020
L5.7680 11.3780
" />
<path d="M5.7680 11.4230
L5.7680 11.4020
" />
<path d="M5.7680 11.4420
L5.7680 11.4230
" />
<path d="M5.7680 11.4580
L5.7680 11.4420
" />
<path d="M5.7680 11.4720
L5.7680 11.4580
" />
<path d="M5.7680 11.4830
L5.7680 11.4720
" />
<path d="M5.7680 11.4910
L5.7680 11.4830
" />
<path d="M5.7680 11.4960
L5.7680 11.4910
" />
<path d="M5.7680 11.4970
L5.7680 11.4960
" />
<path d="M5.7680 11.4970
L5.7680 13.5420
" />
<path d="M6.1750 0.8170
L6.4290 1.0710
" />
<path d="M6.1750 0.8170
L61.8010 0.8170
" />
<path d="M6.1750 2.3530
L6.1750 0.8170
" />
<path d="M6.1750 2.3530
L6.2550 2.3530
" />
<path d="M6.1750 3.8770
L5.7680 3.8770
" />
<path d="M6.1750 4.3220
L6.1750 3.8770
" />
<path d="M6.1750 4.3220
L6.4290 4.0680
" />
<path d="M6.1750 9.5290
L6.4290 9.7830
" />
<path d="M6.1750 9.5290
L7.1910 9.5290
" />
<path d="M6.1750 9.9730
L6.1750 9.5290
" />
<path d="M6.1750 9.9730
L6.2550 9.9730
" />
<path d="M6.1750 11.4970
L5.7680 11.4970
" />
<path d="M6.1750 13.0340
L6.1750 11.4970
" />
<path d="M6.1750 13.0340
L6.4290 12.7800
" />
<path d="M6.2510 2.3530
L6.2510 2.3550
" />
<path d="M6.2510 2.3550
L6.2510 2.3600
" />
<path d="M6.2510 2.3600
L6.2510 2.3670
" />
<path d="M6.2510 2.3670
L6.2510 2.3780
" />
<path d="M6.2510 2.3780
L6.2510 2.3920
" />
<path d="M6.2510 2.3920
L6.2510 2.4090
" />
<path d="M6.2510 2.4090
L6.2510 2.4280
" />
<path d="M6.2510 2.4280
L6.2510 2.4490
" />
<path d="M6.2510 2.4490
L6.2510 2.4720
" />
<path d="M6.2510 2.4720
L6.2510 2.4970
" />
<path d="M6.2510 2.4970
L6.2510 2.5230
" />
<path d="M6.2510 2.5230
L6.2510 2.5510
" />
<path d="M6.2510 2.5510
L6.2510 2.5790
" />
<path d="M6.2510 2.5790
L6.2510 2.6070
" />
<path d="M6.2510 2.6070
L5.7680 2.6070
" />
<path d="M6.2510 2.6070
L6.2510 3.6230
" />
<path d="M6.2510 3.6230
L6.2510 3.6520
" />
<path d="M6.2510 3.6230
L6.4290 3.6230
" />
<path d="M6.2510 3.6520
L6.2510 3.6800
" />
<path d="M6.2510 3.6800
L6.2510 3.7070
" />
<path d="M6.2510 3.7070
L6.2510 3.7330
" />
<path d="M6.2510 3.7330
L6.2510 3.7580
" />
<path d="M6.2510 3.7580
L6.2510 3.7820
" />
<path d="M6.2510 3.7820
L6.2510 3.8030
" />
<path d="M6.2510 3.8030
L6.2510 3.8220
" />
<path d="M6.2510 3.8220
L6.2510 3.8380
" />
<path d="M6.2510 3.8380
L6.2510 3.8520
" />
<path d="M6.2510 3.8520
L6.2510 3.8630
" />
<path d="M6.2510 3.8630
L6.2510 3.8710
" />
<path d="M6.2510 3.8710
L6.2510 3.8760
" />
<path d="M6.2510 3.8760
L6.2510 3.8770
" />
<path d="M6.2510 9.9730
L6.2510 9.9750
" />
<path d="M6.2510 9.9750
L6.2510 9.9800
" />
<path d="M6.2510 9.9800
L6.2510 9.9870
" />
<path d="M6.2510 9.9870
L6.2510 9.9980
" />
<path d="M6.2510 9.9980
L6.2510 10.0120
" />
<path d="M6.2510 10.0120
L6.2510 10.0290
" />
<path d="M6.2510 10.0290
L6.2510 10.0480
" />
<path d="M6.2510 10.0480
L6.2510 10.0690
" />
<path d="M6.2510 10.0690
L6.2510 10.0920
" />
<path d="M6.2510 10.0920
L6.2510 10.1170
" />
<path d="M6.2510 10.1170
L6.2510 10.1430
" />
<path d="M6.2510 10.1430
L6.2510 10.1710
" />
<path d="M6.2510 10.1710
L6.2510 10.1990
" />
<path d="M6.2510 10.1990
L6.2510 10.2270
" />
<path d="M6.2510 10.2270
L5.7680 10.2270
" />
<path d="M6.2510 10.2270
L6.2510 11.2430
" />
<path d="M6.2510 11.2430
L6.2510 11.2720
" />
<path d="M6.2510 11.2430
L6.4290 11.2430
" />
<path d="M6.2510 11.2720
L6.2510 11.3000
" />
<path d="M6.2510 11.3000
L6.2510 11.3270
" />
<path d="M6.2510 11.3270
L6.2510 11.3530
" />
<path d="M6.2510 11.3530
L6.2510 11.3780
" />
<path d="M6.2510 11.3780
L6.2510 11.4020
" />
<path d="M6.2510 11.4020
L6.2510 11.4230
" />
<path d="M6.2510 11.4230
L6.2510 11.4420
" />
<path d="M6.2510 11.4420
L6.2510 11.4580
" />
<path d="M6.2510 11.4580
L6.2510 11.4720
" />
<path d="M6.2510 11.4720
L6.2510 11.4830
" />
<path d="M6.2510 11.4830
L6.2510 11.4910
" />
<path d="M6.2510 11.4910
L6.2510 11.4960
" />
<path d="M6.2510 11.4960
L6.2510 11.4970
" />
<path d="M6.2520 3.8770
L6.2510 3.8770
" />
<path d="M6.2520 11.4970
L6.2510 11.4970
" />
<path d="M6.2550 2.3530
L6.3020 2.3020
" />
<path d="M6.2550 3.8770
L6.1750 3.8770
" />
<path d="M6.2550 9.9730
L6.3020 9.9220
" />
<path d="M6.2550 11.4970
L6.1750 11.4970
" />
<path d="M6.3020 2.3020
L6.3600 2.2480
" />
<path d="M6.3020 3.9280
L6.2550 3.8770
" />
<path d="M6.3020 9.9220
L6.3600 9.8680
" />
<path d="M6.3020 11.5480
L6.2550 11.4970
" />
<path d="M6.3600 2.2480
L6.4290 2.1950
" />
<path d="M6.3600 3.9820
L6.3020 3.9280
" />
<path d="M6.3600 9.8680
L6.4290 9.8150
" />
<path d="M6.3600 11.6020
L6.3020 11.5480
" />
<path d="M6.4290 1.0710
L61.5470 1.0710
" />
<path d="M6.4290 2.1950
L6.4290 1.0710
" />
<path d="M6.4290 2.2080
L6.4290 2.1950
" />
<path d="M6.4290 2.2240
L6.4290 2.2080
" />
<path d="M6.4290 2.2440
L6.4290 2.2240
" />
<path d="M6.4290 2.2670
L6.4290 2.2440
" />
<path d="M6.4290 2.2920
L6.4290 2.2670
" />
<path d="M6.4290 2.3200
L6.4290 2.2920
" />
<path d="M6.4290 2.3510
L6.4290 2.3200
" />
<path d="M6.4290 2.3830
L6.4290 2.3510
" />
<path d="M6.4290 2.4180
L6.4290 2.3830
" />
<path d="M6.4290 2.4540
L6.4290 2.4180
" />
<path d="M6.4290 2.4910
L6.4290 2.4540
" />
<path d="M6.4290 2.5290
L6.4290 2.4910
" />
<path d="M6.4290 2.5680
L6.4290 2.5290
" />
<path d="M6.4290 2.6070
L6.2510 2.6070
" />
<path d="M6.4290 2.6070
L6.4290 2.5680
" />
<path d="M6.4290 3.6230
L6.4290 2.6070
" />
<path d="M6.4290 3.6620
L6.4290 3.6230
" />
<path d="M6.4290 3.7010
L6.4290 3.6620
" />
<path d="M6.4290 3.7390
L6.4290 3.7010
" />
<path d="M6.4290 3.7770
L6.4290 3.7390
" />
<path d="M6.4290 3.8130
L6.4290 3.7770
" />
<path d="M6.4290 3.8470
L6.4290 3.8130
" />
<path d="M6.4290 3.8800
L6.4290 3.8470
" />
<path d="M6.4290 3.9100
L6.4290 3.8800
" />
<path d="M6.4290 3.9380
L6.4290 3.9100
" />
<path d="M6.4290 3.9640
L6.4290 3.9380
" />
<path d="M6.4290 3.9860
L6.4290 3.9640
" />
<path d="M6.4290 4.0060
L6.4290 3.9860
" />
<path d="M6.4290 4.0230
L6.4290 4.0060
" />
<path d="M6.4290 4.0360
L6.3600 3.9820
" />
<path d="M6.4290 4.0360
L6.4290 4.0230
" />
<path d="M6.4290 4.0680
L6.4290 4.0360
" />
<path d="M6.4290 9.7830
L6.4300 9.7840
" />
<path d="M6.4290 9.7830
L7.4450 9.7830
" />
<path d="M6.4290 9.8150
L6.4290 9.7830
" />
<path d="M6.4290 9.8280
L6.4290 9.8150
" />
<path d="M6.4290 9.8440
L6.4290 9.8280
" />
<path d="M6.4290 9.8640
L6.4290 9.8440
" />
<path d="M6.4290 9.8870
L6.4290 9.8640
" />
<path d="M6.4290 9.9120
L6.4290 9.8870
" />
<path d="M6.4290 9.9400
L6.4290 9.9120
" />
<path d="M6.4290 9.9710
L6.4290 9.9400
" />
<path d="M6.4290 10.0030
L6.4290 9.9710
" />
<path d="M6.4290 10.0380
L6.4290 10.0030
" />
<path d="M6.4290 10.0740
L6.4290 10.0380
" />
<path d="M6.4290 10.1110
L6.4290 10.0740
" />
<path d="M6.4290 10.1490
L6.4290 10.1110
" />
<path d="M6.4290 10.1880
L6.4290 10.1490
" />
<path d="M6.4290 10.2270
L6.2510 10.2270
" />
<path d="M6.4290 10.2270
L6.4290 10.1880
" />
<path d="M6.4290 11.2430
L6.4290 10.2270
" />
<path d="M6.4290 11.2430
L6.4290 11.2820
" />
<path d="M6.4290 11.2820
L6.4290 11.3210
" />
<path d="M6.4290 11.3210
L6.4290 11.3590
" />
<path d="M6.4290 11.3590
L6.4290 11.3970
" />
<path d="M6.4290 11.3970
L6.4290 11.4330
" />
<path d="M6.4290 11.4330
L6.4290 11.4670
" />
<path d="M6.4290 11.4670
L6.4290 11.5000
" />
<path d="M6.4290 11.5000
L6.4290 11.5300
" />
<path d="M6.4290 11.5300
L6.4290 11.5580
" />
<path d="M6.4290 11.5580
L6.4290 11.5840
" />
<path d="M6.4290 11.5840
L6.4290 11.6060
" />
<path d="M6.4290 11.6060
L6.4290 11.6260
" />
<path d="M6.4290 11.6260
L6.4290 11.6430
" />
<path d="M6.4290 11.6430
L6.4290 11.6560
" />
<path d="M6.4290 11.6560
L6.3600 11.6020
" />
<path d="M6.4290 12.7800
L6.4290 11.6560
" />
<path d="M6.4300 1.0720
L6.4290 1.0710
" />
<path d="M6.4300 4.0670
L6.4290 4.0680
" />
<path d="M6.4300 9.7840
L6.4330 9.7870
" />
<path d="M6.4300 12.7790
L6.4290 12.7800
" />
<path d="M6.4330 1.0750
L6.4300 1.0720
" />
<path d="M6.4330 4.0630
L6.4300 4.0670
" />
<path d="M6.4330 9.7870
L6.4380 9.7930
" />
<path d="M6.4330 12.7760
L6.4300 12.7790
" />
<path d="M6.4380 1.0800
L6.4330 1.0750
" />
<path d="M6.4380 4.0580
L6.4330 4.0630
" />
<path d="M6.4380 9.7930
L6.4460 9.8010
" />
<path d="M6.4380 12.7700
L6.4330 12.7760
" />
<path d="M6.4460 1.0880
L6.4380 1.0800
" />
<path d="M6.4460 4.0500
L6.4380 4.0580
" />
<path d="M6.4460 9.8010
L6.4570 9.8110
" />
<path d="M6.4460 12.7620
L6.4380 12.7700
" />
<path d="M6.4570 1.0990
L6.4460 1.0880
" />
<path d="M6.4570 4.0390
L6.4460 4.0500
" />
<path d="M6.4570 9.8110
L6.4700 9.8240
" />
<path d="M6.4570 12.7520
L6.4460 12.7620
" />
<path d="M6.4700 1.1120
L6.4570 1.0990
" />
<path d="M6.4700 4.0260
L6.4570 4.0390
" />
<path d="M6.4700 9.8240
L6.4850 9.8400
" />
<path d="M6.4700 12.7380
L6.4570 12.7520
" />
<path d="M6.4850 1.1270
L6.4700 1.1120
" />
<path d="M6.4850 4.0110
L6.4700 4.0260
" />
<path d="M6.4850 9.8400
L6.5030 9.8570
" />
<path d="M6.4850 12.7230
L6.4700 12.7380
" />
<path d="M6.5030 1.1450
L6.4850 1.1270
" />
<path d="M6.5030 3.9930
L6.4850 4.0110
" />
<path d="M6.5030 9.8570
L6.5220 9.8770
" />
<path d="M6.5030 12.7060
L6.4850 12.7230
" />
<path d="M6.5220 1.1640
L6.5030 1.1450
" />
<path d="M6.5220 3.9740
L6.5030 3.9930
" />
<path d="M6.5220 9.8770
L6.5440 9.8980
" />
<path d="M6.5220 12.6860
L6.5030 12.7060
" />
<path d="M6.5440 1.1860
L6.5220 1.1640
" />
<path d="M6.5440 3.9530
L6.5220 3.9740
" />
<path d="M6.5440 9.8980
L6.5890 9.9430
" />
<path d="M6.5440 12.6650
L6.5220 12.6860
" />
<path d="M6.5890 1.2310
L6.5440 1.1860
" />
<path d="M6.5890 3.9070
L6.5440 3.9530
" />
<path d="M6.5890 9.9430
L6.6830 10.0370
" />
<path d="M6.5890 12.6190
L6.5440 12.6650
" />
<path d="M6.6060 4.7280
L5.7680 4.7280
" />
<path d="M6.6060 4.8930
L6.6060 4.7280
" />
<path d="M6.6060 4.8930
L7.1910 4.8930
" />
<path d="M6.6060 4.8950
L6.6060 4.8930
" />
<path d="M6.6060 4.9000
L6.6060 4.8950
" />
<path d="M6.6060 4.9070
L6.6060 4.9000
" />
<path d="M6.6060 4.9180
L6.6060 4.9070
" />
<path d="M6.6060 4.9320
L6.6060 4.9180
" />
<path d="M6.6060 4.9490
L6.6060 4.9320
" />
<path d="M6.6060 4.9680
L6.6060 4.9490
" />
<path d="M6.6060 4.9890
L6.6060 4.9680
" />
<path d="M6.6060 5.0120
L6.6060 4.9890
" />
<path d="M6.6060 5.0370
L6.6060 5.0120
" />
<path d="M6.6060 5.0630
L6.6060 5.0370
" />
<path d="M6.6060 5.0910
L6.6060 5.0630
" />
<path d="M6.6060 5.1190
L6.6060 5.0910
" />
<path d="M6.6060 5.1470
L6.6060 5.1190
" />
<path d="M6.6060 6.1630
L6.6060 5.1470
" />
<path d="M6.6060 6.1920
L6.6060 6.1630
" />
<path d="M6.6060 6.2200
L6.6060 6.1920
" />
<path d="M6.6060 6.2470
L6.6060 6.2200
" />
<path d="M6.6060 6.2730
L6.6060 6.2470
" />
<path d="M6.6060 6.2980
L6.6060 6.2730
" />
<path d="M6.6060 6.3220
L6.6060 6.2980
" />
<path d="M6.6060 6.3430
L6.6060 6.3220
" />
<path d="M6.6060 6.3620
L6.6060 6.3430
" />
<path d="M6.6060 6.3780
L6.6060 6.3620
" />
<path d="M6.6060 6.3920
L6.6060 6.3780
" />
<path d="M6.6060 6.4030
L6.6060 6.3920
" />
<path d="M6.6060 6.4110
L6.6060 6.4030
" />
<path d="M6.6060 6.4160
L6.6060 6.4110
" />
<path d="M6.6060 6.4170
L6.6060 6.4160
" />
<path d="M6.6060 7.4330
L6.6060 6.4170
" />
<path d="M6.6060 7.4330
L7.1910 7.4330
" />
<path d="M6.6060 7.4350
L6.6060 7.4330
" />
<path d="M6.6060 7.4400
L6.6060 7.4350
" />
<path d="M6.6060 7.4470
L6.6060 7.4400
" />
<path d="M6.6060 7.4580
L6.6060 7.4470
" />
<path d="M6.6060 7.4720
L6.6060 7.4580
" />
<path d="M6.6060 7.4890
L6.6060 7.4720
" />
<path d="M6.6060 7.5080
L6.6060 7.4890
" />
<path d="M6.6060 7.5290
L6.6060 7.5080
" />
<path d="M6.6060 7.5520
L6.6060 7.5290
" />
<path d="M6.6060 7.5770
L6.6060 7.5520
" />
<path d="M6.6060 7.6030
L6.6060 7.5770
" />
<path d="M6.6060 7.6310
L6.6060 7.6030
" />
<path d="M6.6060 7.6590
L6.6060 7.6310
" />
<path d="M6.6060 7.6870
L6.6060 7.6590
" />
<path d="M6.6060 8.7030
L6.6060 7.6870
" />
<path d="M6.6060 8.7320
L6.6060 8.7030
" />
<path d="M6.6060 8.7600
L6.6060 8.7320
" />
<path d="M6.6060 8.7870
L6.6060 8.7600
" />
<path d="M6.6060 8.8130
L6.6060 8.7870
" />
<path d="M6.6060 8.8380
L6.6060 8.8130
" />
<path d="M6.6060 8.8620
L6.6060 8.8380
" />
<path d="M6.6060 8.8830
L6.6060 8.8620
" />
<path d="M6.6060 8.9020
L6.6060 8.8830
" />
<path d="M6.6060 8.9180
L6.6060 8.9020
" />
<path d="M6.6060 8.9320
L6.6060 8.9180
" />
<path d="M6.6060 8.9430
L6.6060 8.9320
" />
<path d="M6.6060 8.9510
L6.6060 8.9430
" />
<path d="M6.6060 8.9560
L6.6060 8.9510
" />
<path d="M6.6060 8.9570
L6.6060 8.9560
" />
<path d="M6.6060 9.1220
L5.7680 9.1220
" />
<path d="M6.6060 9.1220
L6.6060 8.9570
" />
<path d="M6.6830 1.3250
L6.5890 1.2310
" />
<path d="M6.6830 1.3250
L6.6830 3.8140
" />
<path d="M6.6830 3.8140
L6.5890 3.9070
" />
<path d="M6.6830 3.8140
L8.1050 3.8140
" />
<path d="M6.6830 10.0370
L6.6830 12.5260
" />
<path d="M6.6830 12.5260
L6.5890 12.6190
" />
<path d="M6.6830 12.5260
L8.1050 12.5260
" />
<path d="M7.1910 4.3220
L6.1750 4.3220
" />
<path d="M7.1910 4.8930
L7.1910 4.3220
" />
<path d="M7.1910 4.8930
L7.2710 4.8930
" />
<path d="M7.1910 6.4170
L6.6060 6.4170
" />
<path d="M7.1910 7.4330
L7.1910 6.4170
" />
<path d="M7.1910 7.4330
L7.2710 7.4330
" />
<path d="M7.1910 8.9570
L6.6060 8.9570
" />
<path d="M7.1910 9.5290
L7.1910 8.9570
" />
<path d="M7.1910 9.5290
L7.4450 9.7830
" />
<path d="M7.2670 4.8930
L7.2670 4.8950
" />
<path d="M7.2670 4.8950
L7.2670 4.9000
" />
<path d="M7.2670 4.9000
L7.2670 4.9070
" />
<path d="M7.2670 4.9070
L7.2670 4.9180
" />
<path d="M7.2670 4.9180
L7.2670 4.9320
" />
<path d="M7.2670 4.9320
L7.2670 4.9490
" />
<path d="M7.2670 4.9490
L7.2670 4.9680
" />
<path d="M7.2670 4.9680
L7.2670 4.9890
" />
<path d="M7.2670 4.9890
L7.2670 5.0120
" />
<path d="M7.2670 5.0120
L7.2670 5.0370
" />
<path d="M7.2670 5.0370
L7.2670 5.0630
" />
<path d="M7.2670 5.0630
L7.2670 5.0910
" />
<path d="M7.2670 5.0910
L7.2670 5.1190
" />
<path d="M7.2670 5.1190
L7.2670 5.1470
" />
<path d="M7.2670 5.1470
L6.6060 5.1470
" />
<path d="M7.2670 5.1470
L7.2670 6.1630
" />
<path d="M7.2670 6.1630
L6.6060 6.1630
" />
<path d="M7.2670 6.1630
L7.2670 6.1920
" />
<path d="M7.2670 6.1920
L7.2670 6.2200
" />
<path d="M7.2670 6.2200
L7.2670 6.2470
" />
<path d="M7.2670 6.2470
L7.2670 6.2730
" />
<path d="M7.2670 6.2730
L7.2670 6.2980
" />
<path d="M7.2670 6.2980
L7.2670 6.3220
" />
<path d="M7.2670 6.3220
L7.2670 6.3430
" />
<path d="M7.2670 6.3430
L7.2670 6.3620
" />
<path d="M7.2670 6.3620
L7.2670 6.3780
" />
<path d="M7.2670 6.3780
L7.2670 6.3920
" />
<path d="M7.2670 6.3920
L7.2670 6.4030
" />
<path d="M7.2670 6.4030
L7.2670 6.4110
" />
<path d="M7.2670 6.4110
L7.2670 6.4160
" />
<path d="M7.2670 6.4160
L7.2670 6.4170
" />
<path d="M7.2670 7.4330
L7.2670 7.4350
" />
<path d="M7.2670 7.4350
L7.2670 7.4400
" />
<path d="M7.2670 7.4400
L7.2670 7.4470
" />
<path d="M7.2670 7.4470
L7.2670 7.4580
" />
<path d="M7.2670 7.4580
L7.2670 7.4720
" />
<path d="M7.2670 7.4720
L7.2670 7.4890
" />
<path d="M7.2670 7.4890
L7.2670 7.5080
" />
<path d="M7.2670 7.5080
L7.2670 7.5290
" />
<path d="M7.2670 7.5290
L7.2670 7.5520
" />
<path d="M7.2670 7.5520
L7.2670 7.5770
" />
<path d="M7.2670 7.5770
L7.2670 7.6030
" />
<path d="M7.2670 7.6030
L7.2670 7.6310
" />
<path d="M7.2670 7.6310
L7.2670 7.6590
" />
<path d="M7.2670 7.6590
L7.2670 7.6870
" />
<path d="M7.2670 7.6870
L6.6060 7.6870
" />
<path d="M7.2670 7.6870
L7.2670 8.7030
" />
<path d="M7.2670 8.7030
L6.6060 8.7030
" />
<path d="M7.2670 8.7030
L7.2670 8.7320
" />
<path d="M7.2670 8.7320
L7.2670 8.7600
" />
<path d="M7.2670 8.7600
L7.2670 8.7870
" />
<path d="M7.2670 8.7870
L7.2670 8.8130
" />
<path d="M7.2670 8.8130
L7.2670 8.8380
" />
<path d="M7.2670 8.8380
L7.2670 8.8620
" />
<path d="M7.2670 8.8620
L7.2670 8.8830
" />
<path d="M7.2670 8.8830
L7.2670 8.9020
" />
<path d="M7.2670 8.9020
L7.2670 8.9180
" />
<path d="M7.2670 8.9180
L7.2670 8.9320
" />
<path d="M7.2670 8.9320
L7.2670 8.9430
" />
<path d="M7.2670 8.9430
L7.2670 8.9510
" />
<path d="M7.2670 8.9510
L7.2670 8.9560
" />
<path d="M7.2670 8.9560
L7.2670 8.9570
" />
<path d="M7.2680 7.4330
L7.2710 7.4330
" />
<path d="M7.2710 4.8930
L7.3180 4.8420
" />
<path d="M7.2710 6.4170
L7.1910 6.4170
" />
<path d="M7.2710 7.4330
L7.3180 7.3820
" />
<path d="M7.2710 8.9570
L7.1910 8.9570
" />
<path d="M7.3180 4.8420
L7.3760 4.7880
" />
<path d="M7.3180 6.4680
L7.2710 6.4170
" />
<path d="M7.3180 7.3820
L7.3760 7.3280
" />
<path d="M7.3180 9.0080
L7.2710 8.9570
" />
<path d="M7.3760 4.7880
L7.4450 4.7350
" />
<path d="M7.3760 6.5220
L7.3180 6.4680
" />
<path d="M7.3760 7.3280
L7.4450 7.2750
" />
<path d="M7.3760 9.0620
L7.3180 9.0080
" />
<path d="M7.4450 4.0680
L6.4290 4.0680
" />
<path d="M7.4450 4.0680
L7.1910 4.3220
" />
<path d="M7.4450 4.7350
L7.4450 4.0680
" />
<path d="M7.4450 4.7350
L7.4450 4.7480
" />
<path d="M7.4450 4.7480
L7.4450 4.7640
" />
<path d="M7.4450 4.7640
L7.4450 4.7840
" />
<path d="M7.4450 4.7840
L7.4450 4.8070
" />
<path d="M7.4450 4.8070
L7.4450 4.8320
" />
<path d="M7.4450 4.8320
L7.4450 4.8600
" />
<path d="M7.4450 4.8600
L7.4450 4.8910
" />
<path d="M7.4450 4.8910
L7.4450 4.9230
" />
<path d="M7.4450 4.9230
L7.4450 4.9580
" />
<path d="M7.4450 4.9580
L7.4450 4.9940
" />
<path d="M7.4450 4.9940
L7.4450 5.0310
" />
<path d="M7.4450 5.0310
L7.4450 5.0690
" />
<path d="M7.4450 5.0690
L7.4450 5.1080
" />
<path d="M7.4450 5.1080
L7.4450 5.1470
" />
<path d="M7.4450 5.1470
L7.2670 5.1470
" />
<path d="M7.4450 5.1470
L7.4450 6.1630
" />
<path d="M7.4450 6.1630
L7.2670 6.1630
" />
<path d="M7.4450 6.1630
L7.4450 6.2020
" />
<path d="M7.4450 6.2020
L7.4450 6.2410
" />
<path d="M7.4450 6.2410
L7.4450 6.2790
" />
<path d="M7.4450 6.2790
L7.4450 6.3170
" />
<path d="M7.4450 6.3170
L7.4450 6.3530
" />
<path d="M7.4450 6.3530
L7.4450 6.3870
" />
<path d="M7.4450 6.3870
L7.4450 6.4200
" />
<path d="M7.4450 6.4200
L7.4450 6.4500
" />
<path d="M7.4450 6.4500
L7.4450 6.4780
" />
<path d="M7.4450 6.4780
L7.4450 6.5040
" />
<path d="M7.4450 6.5040
L7.4450 6.5260
" />
<path d="M7.4450 6.5260
L7.4450 6.5460
" />
<path d="M7.4450 6.5460
L7.4450 6.5630
" />
<path d="M7.4450 6.5630
L7.4450 6.5760
" />
<path d="M7.4450 6.5760
L7.3760 6.5220
" />
<path d="M7.4450 7.2750
L7.4450 6.5760
" />
<path d="M7.4450 7.2750
L7.4450 7.2880
" />
<path d="M7.4450 7.2880
L7.4450 7.3040
" />
<path d="M7.4450 7.3040
L7.4450 7.3240
" />
<path d="M7.4450 7.3240
L7.4450 7.3470
" />
<path d="M7.4450 7.3470
L7.4450 7.3720
" />
<path d="M7.4450 7.3720
L7.4450 7.4000
" />
<path d="M7.4450 7.4000
L7.4450 7.4310
" />
<path d="M7.4450 7.4310
L7.4450 7.4630
" />
<path d="M7.4450 7.4630
L7.4450 7.4980
" />
<path d="M7.4450 7.4980
L7.4450 7.5340
" />
<path d="M7.4450 7.5340
L7.4450 7.5710
" />
<path d="M7.4450 7.5710
L7.4450 7.6090
" />
<path d="M7.4450 7.6090
L7.4450 7.6480
" />
<path d="M7.4450 7.6480
L7.4450 7.6870
" />
<path d="M7.4450 7.6870
L7.2670 7.6870
" />
<path d="M7.4450 7.6870
L7.4450 8.7030
" />
<path d="M7.4450 8.7030
L7.2670 8.7030
" />
<path d="M7.4450 8.7030
L7.4450 8.7420
" />
<path d="M7.4450 8.7420
L7.4450 8.7810
" />
<path d="M7.4450 8.7810
L7.4450 8.8190
" />
<path d="M7.4450 8.8190
L7.4450 8.8570
" />
<path d="M7.4450 8.8570
L7.4450 8.8930
" />
<path d="M7.4450 8.8930
L7.4450 8.9270
" />
<path d="M7.4450 8.9270
L7.4450 8.9600
" />
<path d="M7.4450 8.9600
L7.4450 8.9900
" />
<path d="M7.4450 8.9900
L7.4450 9.0180
" />
<path d="M7.4450 9.0180
L7.4450 9.0440
" />
<path d="M7.4450 9.0440
L7.4450 9.0660
" />
<path d="M7.4450 9.0660
L7.4450 9.0860
" />
<path d="M7.4450 9.0860
L7.4450 9.1030
" />
<path d="M7.4450 9.1030
L7.4450 9.1160
" />
<path d="M7.4450 9.1160
L7.3760 9.0620
" />
<path d="M7.4450 9.7830
L7.4450 9.1160
" />
<path d="M7.4450 9.7830
L8.9940 9.7830
" />
<path d="M8.1050 1.0710
L8.1050 1.0720
" />
<path d="M8.1050 1.0710
L8.1490 1.0740
" />
<path d="M8.1050 1.0720
L8.1050 1.0770
" />
<path d="M8.1050 1.0770
L8.1050 1.0850
" />
<path d="M8.1050 1.0850
L8.1050 1.0960
" />
<path d="M8.1050 1.0960
L8.1050 1.1090
" />
<path d="M8.1050 1.1090
L8.1050 1.1260
" />
<path d="M8.1050 1.1260
L8.1050 1.1450
" />
<path d="M8.1050 1.1450
L8.1050 1.1660
" />
<path d="M8.1050 1.1660
L8.1050 1.1890
" />
<path d="M8.1050 1.1890
L8.1050 1.2140
" />
<path d="M8.1050 1.2140
L8.1050 1.2410
" />
<path d="M8.1050 1.2410
L8.1050 1.2680
" />
<path d="M8.1050 1.2680
L8.1050 1.2960
" />
<path d="M8.1050 1.2960
L8.1050 1.3250
" />
<path d="M8.1050 1.3250
L6.6830 1.3250
" />
<path d="M8.1050 1.3250
L8.1050 3.8140
" />
<path d="M8.1050 3.8140
L8.1050 3.8420
" />
<path d="M8.1050 3.8140
L8.1330 3.8140
" />
<path d="M8.1050 3.8420
L8.1050 3.8700
" />
<path d="M8.1050 3.8700
L8.1050 3.8980
" />
<path d="M8.1050 3.8980
L8.1050 3.9240
" />
<path d="M8.1050 3.9240
L8.1050 3.9490
" />
<path d="M8.1050 3.9490
L8.1050 3.9720
" />
<path d="M8.1050 3.9720
L8.1050 3.9930
" />
<path d="M8.1050 3.9930
L8.1050 4.0120
" />
<path d="M8.1050 4.0120
L8.1050 4.0290
" />
<path d="M8.1050 4.0290
L8.1050 4.0430
" />
<path d="M8.1050 4.0430
L8.1050 4.0530
" />
<path d="M8.1050 4.0530
L8.1050 4.0610
" />
<path d="M8.1050 4.0610
L8.1050 4.0660
" />
<path d="M8.1050 4.0660
L8.1050 4.0680
" />
<path d="M8.1050 4.0680
L8.1490 4.0640
" />
<path d="M8.1050 4.0680
L8.1490 4.0640
" />
<path d="M8.1050 9.7830
L8.1050 9.7840
" />
<path d="M8.1050 9.7830
L8.1490 9.7870
" />
<path d="M8.1050 9.7840
L8.1050 9.7890
" />
<path d="M8.1050 9.7890
L8.1050 9.7970
" />
<path d="M8.1050 9.7970
L8.1050 9.8080
" />
<path d="M8.1050 9.8080
L8.1050 9.8220
" />
<path d="M8.1050 9.8220
L8.1050 9.8380
" />
<path d="M8.1050 9.8380
L8.1050 9.8570
" />
<path d="M8.1050 9.8570
L8.1050 9.8780
" />
<path d="M8.1050 9.8780
L8.1050 9.9020
" />
<path d="M8.1050 9.9020
L8.1050 9.9260
" />
<path d="M8.1050 9.9260
L8.1050 9.9530
" />
<path d="M8.1050 9.9530
L8.1050 9.9800
" />
<path d="M8.1050 9.9800
L8.1050 10.0080
" />
<path d="M8.1050 10.0080
L8.1050 10.0370
" />
<path d="M8.1050 10.0370
L6.6830 10.0370
" />
<path d="M8.1050 10.0370
L8.1050 12.5260
" />
<path d="M8.1050 12.5260
L8.1050 12.5540
" />
<path d="M8.1050 12.5260
L8.1330 12.5260
" />
<path d="M8.1050 12.5540
L8.1050 12.5820
" />
<path d="M8.1050 12.5820
L8.1050 12.6100
" />
<path d="M8.1050 12.6100
L8.1050 12.6360
" />
<path d="M8.1050 12.6360
L8.1050 12.6610
" />
<path d="M8.1050 12.6610
L8.1050 12.6840
" />
<path d="M8.1050 12.6840
L8.1050 12.7060
" />
<path d="M8.1050 12.7060
L8.1050 12.7240
" />
<path d="M8.1050 12.7240
L8.1050 12.7410
" />
<path d="M8.1050 12.7410
L8.1050 12.7550
" />
<path d="M8.1050 12.7550
L8.1050 12.7660
" />
<path d="M8.1050 12.7660
L8.1050 12.7740
" />
<path d="M8.1050 12.7740
L8.1050 12.7780
" />
<path d="M8.1050 12.7780
L8.1050 12.7800
" />
<path d="M8.1050 12.7800
L8.1490 12.7760
" />
<path d="M8.1050 12.7800
L8.1490 12.7760
" />
<path d="M8.1330 1.3250
L8.1050 1.3250
" />
<path d="M8.1330 3.8140
L8.1610 3.8140
" />
<path d="M8.1330 10.0370
L8.1050 10.0370
" />
<path d="M8.1330 12.5260
L8.1610 12.5260
" />
<path d="M8.1490 1.0740
L8.1920 1.0860
" />
<path d="M8.1490 4.0640
L8.1920 4.0520
" />
<path d="M8.1490 4.0640
L8.1920 4.0520
" />
<path d="M8.1490 9.7870
L8.1920 9.7980
" />
<path d="M8.1490 12.7760
L8.1920 12.7650
" />
<path d="M8.1490 12.7760
L8.1920 12.7650
" />
<path d="M8.1610 1.3250
L8.1330 1.3250
" />
<path d="M8.1610 3.8140
L8.1890 3.8140
" />
<path d="M8.1610 10.0370
L8.1330 10.0370
" />
<path d="M8.1610 12.5260
L8.1890 12.5260
" />
<path d="M8.1890 1.3250
L8.1610 1.3250
" />
<path d="M8.1890 3.8140
L8.2150 3.8140
" />
<path d="M8.1890 10.0370
L8.1610 10.0370
" />
<path d="M8.1890 12.5260
L8.2150 12.5260
" />
<path d="M8.1920 1.0860
L8.2320 1.1050
" />
<path d="M8.1920 4.0520
L8.2320 4.0340
" />
<path d="M8.1920 4.0520
L8.2320 4.0340
" />
<path d="M8.1920 9.7980
L8.2320 9.8170
" />
<path d="M8.1920 12.7650
L8.2320 12.7460
" />
<path d="M8.1920 12.7650
L8.2320 12.7460
" />
<path d="M8.2150 1.3250
L8.1890 1.3250
" />
<path d="M8.2150 3.8140
L8.2400 3.8140
" />
<path d="M8.2150 10.0370
L8.1890 10.0370
" />
<path d="M8.2150 12.5260
L8.2400 12.5260
" />
<path d="M8.2320 1.1050
L8.2680 1.1300
" />
<path d="M8.2320 4.0340
L8.2680 4.0080
" />
<path d="M8.2320 4.0340
L8.2680 4.0080
" />
<path d="M8.2320 9.8170
L8.2680 9.8420
" />
<path d="M8.2320 12.7460
L8.2680 12.7200
" />
<path d="M8.2320 12.7460
L8.2680 12.7200
" />
<path d="M8.2400 1.3250
L8.2150 1.3250
" />
<path d="M8.2400 3.8140
L8.2630 3.8140
" />
<path d="M8.2400 10.0370
L8.2150 10.0370
" />
<path d="M8.2400 12.5260
L8.2630 12.5260
" />
<path d="M8.2630 1.3250
L8.2400 1.3250
" />
<path d="M8.2630 3.8140
L8.2850 3.8140
" />
<path d="M8.2630 10.0370
L8.2400 10.0370
" />
<path d="M8.2630 12.5260
L8.2850 12.5260
" />
<path d="M8.2680 1.1300
L8.3000 1.1610
" />
<path d="M8.2680 4.0080
L8.3000 3.9770
" />
<path d="M8.2680 4.0080
L8.3000 3.9770
" />
<path d="M8.2680 9.8420
L8.3000 9.8730
" />
<path d="M8.2680 12.7200
L8.3000 12.6890
" />
<path d="M8.2680 12.7200
L8.3000 12.6890
" />
<path d="M8.2850 1.3250
L8.2630 1.3250
" />
<path d="M8.2850 3.8140
L8.3040 3.8140
" />
<path d="M8.2850 10.0370
L8.2630 10.0370
" />
<path d="M8.2850 12.5260
L8.3040 12.5260
" />
<path d="M8.3000 1.1610
L8.3250 1.1980
" />
<path d="M8.3000 3.9770
L8.3250 3.9410
" />
<path d="M8.3000 3.9770
L8.3250 3.9410
" />
<path d="M8.3000 9.8730
L8.3250 9.9100
" />
<path d="M8.3000 12.6890
L8.3250 12.6530
" />
<path d="M8.3000 12.6890
L8.3250 12.6530
" />
<path d="M8.3040 1.3250
L8.2850 1.3250
" />
<path d="M8.3040 3.8140
L8.3200 3.8140
" />
<path d="M8.3040 10.0370
L8.2850 10.0370
" />
<path d="M8.3040 12.5260
L8.3200 12.5260
" />
<path d="M8.3200 1.3250
L8.3040 1.3250
" />
<path d="M8.3200 3.8140
L8.3340 3.8140
" />
<path d="M8.3200 10.0370
L8.3040 10.0370
" />
<path d="M8.3200 12.5260
L8.3340 12.5260
" />
<path d="M8.3250 1.1980
L8.3440 1.2380
" />
<path d="M8.3250 3.9410
L8.3440 3.9010
" />
<path d="M8.3250 3.9410
L8.3440 3.9010
" />
<path d="M8.3250 9.9100
L8.3440 9.9500
" />
<path d="M8.3250 12.6530
L8.3440 12.6130
" />
<path d="M8.3250 12.6530
L8.3440 12.6130
" />
<path d="M8.3340 1.3250
L8.3200 1.3250
" />
<path d="M8.3340 3.8140
L8.3450 3.8140
" />
<path d="M8.3340 10.0370
L8.3200 10.0370
" />
<path d="M8.3340 12.5260
L8.3450 12.5260
" />
<path d="M8.3440 1.2380
L8.3550 1.2800
" />
<path d="M8.3440 3.9010
L8.3550 3.8580
" />
<path d="M8.3440 3.9010
L8.3550 3.8580
" />
<path d="M8.3440 9.9500
L8.3550 9.9930
" />
<path d="M8.3440 12.6130
L8.3550 12.5700
" />
<path d="M8.3440 12.6130
L8.3550 12.5700
" />
<path d="M8.3450 1.3250
L8.3340 1.3250
" />
<path d="M8.3450 3.8140
L8.3530 3.8140
" />
<path d="M8.3450 10.0370
L8.3340 10.0370
" />
<path d="M8.3450 12.5260
L8.3530 12.5260
" />
<path d="M8.3530 1.3250
L8.3450 1.3250
" />
<path d="M8.3530 3.8140
L8.3570 3.8140
" />
<path d="M8.3530 10.0370
L8.3450 10.0370
" />
<path d="M8.3530 12.5260
L8.3570 12.5260
" />
<path d="M8.3550 1.2800
L8.3590 1.3250
" />
<path d="M8.3550 3.8580
L8.3590 3.8140
" />
<path d="M8.3550 3.8580
L8.3590 3.8140
" />
<path d="M8.3550 9.9930
L8.3590 10.0370
" />
<path d="M8.3550 12.5700
L8.3590 12.5260
" />
<path d="M8.3550 12.5700
L8.3590 12.5260
" />
<path d="M8.3570 1.3250
L8.3530 1.3250
" />
<path d="M8.3570 3.8140
L8.3590 3.8140
" />
<path d="M8.3570 10.0370
L8.3530 10.0370
" />
<path d="M8.3570 12.5260
L8.3590 12.5260
" />
<path d="M8.3590 1.3250
L8.3570 1.3250
" />
<path d="M8.3590 1.3250
L8.3590 3.8140
" />
<path d="M8.3590 3.8140
L8.3610 3.8140
" />
<path d="M8.3590 10.0370
L8.3570 10.0370
" />
<path d="M8.3590 10.0370
L8.3590 12.5260
" />
<path d="M8.3590 12.5260
L8.3610 12.5260
" />
<path d="M8.3610 1.3250
L8.3590 1.3250
" />
<path d="M8.3610 3.8140
L8.3650 3.8140
" />
<path d="M8.3610 10.0370
L8.3590 10.0370
" />
<path d="M8.3610 12.5260
L8.3650 12.5260
" />
<path d="M8.3650 1.3250
L8.3610 1.3250
" />
<path d="M8.3650 3.8140
L8.3730 3.8140
" />
<path d="M8.3650 10.0370
L8.3610 10.0370
" />
<path d="M8.3650 12.5260
L8.3730 12.5260
" />
<path d="M8.3730 1.3250
L8.3650 1.3250
" />
<path d="M8.3730 3.8140
L8.3840 3.8140
" />
<path d="M8.3730 10.0370
L8.3650 10.0370
" />
<path d="M8.3730 12.5260
L8.3840 12.5260
" />
<path d="M8.3840 1.3250
L8.3730 1.3250
" />
<path d="M8.3840 3.8140
L8.3980 3.8140
" />
<path d="M8.3840 10.0370
L8.3730 10.0370
" />
<path d="M8.3840 12.5260
L8.3980 12.5260
" />
<path d="M8.3980 1.3250
L8.3840 1.3250
" />
<path d="M8.3980 3.8140
L8.4140 3.8140
" />
<path d="M8.3980 10.0370
L8.3840 10.0370
" />
<path d="M8.3980 12.5260
L8.4140 12.5260
" />
<path d="M8.4140 1.3250
L8.3980 1.3250
" />
<path d="M8.4140 3.8140
L8.4330 3.8140
" />
<path d="M8.4140 10.0370
L8.3980 10.0370
" />
<path d="M8.4140 12.5260
L8.4330 12.5260
" />
<path d="M8.4330 1.3250
L8.4140 1.3250
" />
<path d="M8.4330 3.8140
L8.4550 3.8140
" />
<path d="M8.4330 10.0370
L8.4140 10.0370
" />
<path d="M8.4330 12.5260
L8.4550 12.5260
" />
<path d="M8.4550 1.3250
L8.4330 1.3250
" />
<path d="M8.4550 3.8140
L8.4780 3.8140
" />
<path d="M8.4550 10.0370
L8.4330 10.0370
" />
<path d="M8.4550 12.5260
L8.4780 12.5260
" />
<path d="M8.4780 1.3250
L8.4550 1.3250
" />
<path d="M8.4780 3.8140
L8.5030 3.8140
" />
<path d="M8.4780 10.0370
L8.4550 10.0370
" />
<path d="M8.4780 12.5260
L8.5030 12.5260
" />
<path d="M8.5030 1.3250
L8.4780 1.3250
" />
<path d="M8.5030 3.8140
L8.5290 3.8140
" />
<path d="M8.5030 10.0370
L8.4780 10.0370
" />
<path d="M8.5030 12.5260
L8.5290 12.5260
" />
<path d="M8.5290 1.3250
L8.5030 1.3250
" />
<path d="M8.5290 3.8140
L8.5560 3.8140
" />
<path d="M8.5290 10.0370
L8.5030 10.0370
" />
<path d="M8.5290 12.5260
L8.5560 12.5260
" />
<path d="M8.5560 1.3250
L8.5290 1.3250
" />
<path d="M8.5560 3.8140
L8.5850 3.8140
" />
<path d="M8.5560 10.0370
L8.5290 10.0370
" />
<path d="M8.5560 12.5260
L8.5850 12.5260
" />
<path d="M8.5850 1.3250
L8.5560 1.3250
" />
<path d="M8.5850 3.8140
L8.6130 3.8140
" />
<path d="M8.5850 10.0370
L8.5560 10.0370
" />
<path d="M8.5850 12.5260
L8.6130 12.5260
" />
<path d="M8.6130 1.0710
L8.6130 1.0720
" />
<path d="M8.6130 1.0720
L8.6130 1.0770
" />
<path d="M8.6130 1.0770
L8.6130 1.0850
" />
<path d="M8.6130 1.0850
L8.6130 1.0960
" />
<path d="M8.6130 1.0960
L8.6130 1.1090
" />
<path d="M8.6130 1.1090
L8.6130 1.1260
" />
<path d="M8.6130 1.1260
L8.6130 1.1450
" />
<path d="M8.6130 1.1450
L8.6130 1.1660
" />
<path d="M8.6130 1.1660
L8.6130 1.1890
" />
<path d="M8.6130 1.1890
L8.6130 1.2140
" />
<path d="M8.6130 1.2140
L8.6130 1.2410
" />
<path d="M8.6130 1.2410
L8.6130 1.2680
" />
<path d="M8.6130 1.2680
L8.6130 1.2960
" />
<path d="M8.6130 1.2960
L8.6130 1.3250
" />
<path d="M8.6130 1.3250
L8.5850 1.3250
" />
<path d="M8.6130 3.8140
L8.6130 1.3250
" />
<path d="M8.6130 3.8140
L8.7400 3.8140
" />
<path d="M8.6130 3.8420
L8.6130 3.8140
" />
<path d="M8.6130 3.8700
L8.6130 3.8420
" />
<path d="M8.6130 3.8980
L8.6130 3.8700
" />
<path d="M8.6130 3.9240
L8.6130 3.8980
" />
<path d="M8.6130 3.9490
L8.6130 3.9240
" />
<path d="M8.6130 3.9720
L8.6130 3.9490
" />
<path d="M8.6130 3.9930
L8.6130 3.9720
" />
<path d="M8.6130 4.0120
L8.6130 3.9930
" />
<path d="M8.6130 4.0290
L8.6130 4.0120
" />
<path d="M8.6130 4.0430
L8.6130 4.0290
" />
<path d="M8.6130 4.0530
L8.6130 4.0430
" />
<path d="M8.6130 4.0610
L8.6130 4.0530
" />
<path d="M8.6130 4.0660
L8.6130 4.0610
" />
<path d="M8.6130 4.0680
L8.6130 4.0660
" />
<path d="M8.6130 9.7830
L8.6130 9.7840
" />
<path d="M8.6130 9.7840
L8.6130 9.7890
" />
<path d="M8.6130 9.7890
L8.6130 9.7970
" />
<path d="M8.6130 9.7970
L8.6130 9.8080
" />
<path d="M8.6130 9.8080
L8.6130 9.8220
" />
<path d="M8.6130 9.8220
L8.6130 9.8380
" />
<path d="M8.6130 9.8380
L8.6130 9.8570
" />
<path d="M8.6130 9.8570
L8.6130 9.8780
" />
<path d="M8.6130 9.8780
L8.6130 9.9020
" />
<path d="M8.6130 9.9020
L8.6130 9.9260
" />
<path d="M8.6130 9.9260
L8.6130 9.9530
" />
<path d="M8.6130 9.9530
L8.6130 9.9800
" />
<path d="M8.6130 9.9800
L8.6130 10.0080
" />
<path d="M8.6130 10.0080
L8.6130 10.0370
" />
<path d="M8.6130 10.0370
L8.5850 10.0370
" />
<path d="M8.6130 10.0370
L8.6130 12.5260
" />
<path d="M8.6130 12.5260
L8.7400 12.5260
" />
<path d="M8.6130 12.5540
L8.6130 12.5260
" />
<path d="M8.6130 12.5820
L8.6130 12.5540
" />
<path d="M8.6130 12.6100
L8.6130 12.5820
" />
<path d="M8.6130 12.6360
L8.6130 12.6100
" />
<path d="M8.6130 12.6610
L8.6130 12.6360
" />
<path d="M8.6130 12.6840
L8.6130 12.6610
" />
<path d="M8.6130 12.7060
L8.6130 12.6840
" />
<path d="M8.6130 12.7240
L8.6130 12.7060
" />
<path d="M8.6130 12.7410
L8.6130 12.7240
" />
<path d="M8.6130 12.7550
L8.6130 12.7410
" />
<path d="M8.6130 12.7660
L8.6130 12.7550
" />
<path d="M8.6130 12.7740
L8.6130 12.7660
" />
<path d="M8.6130 12.7780
L8.6130 12.7740
" />
<path d="M8.6130 12.7800
L8.6130 12.7780
" />
<path d="M8.7400 1.3250
L8.6130 1.3250
" />
<path d="M8.7400 3.8140
L8.7400 1.3250
" />
<path d="M8.7400 3.8140
L8.8330 3.9070
" />
<path d="M8.7400 10.0370
L8.6130 10.0370
" />
<path d="M8.7400 12.5260
L8.7400 10.0370
" />
<path d="M8.7400 12.5260
L8.8330 12.6190
" />
<path d="M8.8330 1.2310
L8.7400 1.3250
" />
<path d="M8.8330 3.9070
L8.8790 3.9530
" />
<path d="M8.8330 9.9430
L8.7400 10.0370
" />
<path d="M8.8330 12.6190
L8.8790 12.6650
" />
<path d="M8.8790 1.1860
L8.8330 1.2310
" />
<path d="M8.8790 3.9530
L8.9000 3.9740
" />
<path d="M8.8790 9.8980
L8.8330 9.9430
" />
<path d="M8.8790 12.6650
L8.9000 12.6860
" />
<path d="M8.9000 1.1640
L8.8790 1.1860
" />
<path d="M8.9000 3.9740
L8.9200 3.9930
" />
<path d="M8.9000 9.8770
L8.8790 9.8980
" />
<path d="M8.9000 12.6860
L8.9200 12.7060
" />
<path d="M8.9200 1.1450
L8.9000 1.1640
" />
<path d="M8.9200 3.9930
L8.9370 4.0110
" />
<path d="M8.9200 9.8570
L8.9000 9.8770
" />
<path d="M8.9200 12.7060
L8.9370 12.7230
" />
<path d="M8.9370 1.1270
L8.9200 1.1450
" />
<path d="M8.9370 4.0110
L8.9530 4.0260
" />
<path d="M8.9370 9.8400
L8.9200 9.8570
" />
<path d="M8.9370 12.7230
L8.9530 12.7380
" />
<path d="M8.9530 1.1120
L8.9370 1.1270
" />
<path d="M8.9530 4.0260
L8.9660 4.0390
" />
<path d="M8.9530 9.8240
L8.9370 9.8400
" />
<path d="M8.9530 12.7380
L8.9660 12.7520
" />
<path d="M8.9660 1.0990
L8.9530 1.1120
" />
<path d="M8.9660 4.0390
L8.9760 4.0500
" />
<path d="M8.9660 9.8110
L8.9530 9.8240
" />
<path d="M8.9660 12.7520
L8.9760 12.7620
" />
<path d="M8.9760 1.0880
L8.9660 1.0990
" />
<path d="M8.9760 4.0500
L8.9840 4.0580
" />
<path d="M8.9760 9.8010
L8.9660 9.8110
" />
<path d="M8.9760 12.7620
L8.9840 12.7700
" />
<path d="M8.9840 1.0800
L8.9760 1.0880
" />
<path d="M8.9840 4.0580
L8.9900 4.0630
" />
<path d="M8.9840 9.7930
L8.9760 9.8010
" />
<path d="M8.9840 12.7700
L8.9900 12.7760
" />
<path d="M8.9900 1.0750
L8.9840 1.0800
" />
<path d="M8.9900 4.0630
L8.9930 4.0670
" />
<path d="M8.9900 9.7870
L8.9840 9.7930
" />
<path d="M8.9900 12.7760
L8.9930 12.7790
" />
<path d="M8.9930 1.0720
L8.9900 1.0750
" />
<path d="M8.9930 4.0670
L8.9940 4.0680
" />
<path d="M8.9930 9.7840
L8.9900 9.7870
" />
<path d="M8.9930 12.7790
L8.9940 12.7800
" />
<path d="M8.9940 1.0710
L8.9930 1.0720
" />
<path d="M8.9940 2.5950
L8.9940 1.0710
" />
<path d="M8.9940 2.6300
L8.9940 2.5950
" />
<path d="M8.9940 2.6320
L8.9940 2.6300
" />
<path d="M8.9940 2.6360
L8.9940 2.6320
" />
<path d="M8.9940 2.6420
L8.9940 2.6360
" />
<path d="M8.9940 2.6510
L8.9940 2.6420
" />
<path d="M8.9940 2.6620
L8.9940 2.6510
" />
<path d="M8.9940 2.6750
L8.9940 2.6620
" />
<path d="M8.9940 2.6900
L8.9940 2.6750
" />
<path d="M8.9940 2.7070
L8.9940 2.6900
" />
<path d="M8.9940 2.7260
L8.9940 2.7070
" />
<path d="M8.9940 2.7460
L8.9940 2.7260
" />
<path d="M8.9940 2.7670
L8.9940 2.7460
" />
<path d="M8.9940 2.7880
L8.9940 2.7670
" />
<path d="M8.9940 2.8110
L8.9940 2.7880
" />
<path d="M8.9940 2.8330
L8.9940 2.8110
" />
<path d="M8.9940 2.8330
L59.9970 2.8330
" />
<path d="M8.9940 3.3970
L8.9940 2.8330
" />
<path d="M8.9940 3.4200
L8.9940 3.3970
" />
<path d="M8.9940 3.4420
L8.9940 3.4200
" />
<path d="M8.9940 3.4640
L8.9940 3.4420
" />
<path d="M8.9940 3.4850
L8.9940 3.4640
" />
<path d="M8.9940 3.5050
L8.9940 3.4850
" />
<path d="M8.9940 3.5230
L8.9940 3.5050
" />
<path d="M8.9940 3.5400
L8.9940 3.5230
" />
<path d="M8.9940 3.5550
L8.9940 3.5400
" />
<path d="M8.9940 3.5680
L8.9940 3.5550
" />
<path d="M8.9940 3.5790
L8.9940 3.5680
" />
<path d="M8.9940 3.5880
L8.9940 3.5790
" />
<path d="M8.9940 3.5950
L8.9940 3.5880
" />
<path d="M8.9940 3.5990
L8.9940 3.5950
" />
<path d="M8.9940 3.6000
L8.9940 3.5990
" />
<path d="M8.9940 3.6000
L59.9970 3.6000
" />
<path d="M8.9940 3.6360
L8.9940 3.6000
" />
<path d="M8.9940 3.6360
L59.9970 3.6360
" />
<path d="M8.9940 4.0680
L7.4450 4.0680
" />
<path d="M8.9940 4.0680
L8.9940 3.6360
" />
<path d="M8.9940 5.1700
L8.9940 5.1350
" />
<path d="M8.9940 5.1720
L8.9940 5.1700
" />
<path d="M8.9940 5.1760
L8.9940 5.1720
" />
<path d="M8.9940 5.1820
L8.9940 5.1760
" />
<path d="M8.9940 5.1910
L8.9940 5.1820
" />
<path d="M8.9940 5.2020
L8.9940 5.1910
" />
<path d="M8.9940 5.2150
L8.9940 5.2020
" />
<path d="M8.9940 5.2300
L8.9940 5.2150
" />
<path d="M8.9940 5.2470
L8.9940 5.2300
" />
<path d="M8.9940 5.2660
L8.9940 5.2470
" />
<path d="M8.9940 5.2860
L8.9940 5.2660
" />
<path d="M8.9940 5.3070
L8.9940 5.2860
" />
<path d="M8.9940 5.3280
L8.9940 5.3070
" />
<path d="M8.9940 5.3510
L8.9940 5.3280
" />
<path d="M8.9940 5.3730
L8.9940 5.3510
" />
<path d="M8.9940 5.3730
L59.9970 5.3730
" />
<path d="M8.9940 5.9370
L8.9940 5.3730
" />
<path d="M8.9940 5.9600
L8.9940 5.9370
" />
<path d="M8.9940 5.9820
L8.9940 5.9600
" />
<path d="M8.9940 6.0040
L8.9940 5.9820
" />
<path d="M8.9940 6.0250
L8.9940 6.0040
" />
<path d="M8.9940 6.0450
L8.9940 6.0250
" />
<path d="M8.9940 6.0630
L8.9940 6.0450
" />
<path d="M8.9940 6.0800
L8.9940 6.0630
" />
<path d="M8.9940 6.0950
L8.9940 6.0800
" />
<path d="M8.9940 6.1080
L8.9940 6.0950
" />
<path d="M8.9940 6.1190
L8.9940 6.1080
" />
<path d="M8.9940 6.1280
L8.9940 6.1190
" />
<path d="M8.9940 6.1350
L8.9940 6.1280
" />
<path d="M8.9940 6.1390
L8.9940 6.1350
" />
<path d="M8.9940 6.1400
L8.9940 6.1390
" />
<path d="M8.9940 6.1400
L59.9970 6.1400
" />
<path d="M8.9940 6.1760
L8.9940 6.1400
" />
<path d="M8.9940 6.1760
L59.9970 6.1760
" />
<path d="M8.9940 7.7100
L8.9940 7.6750
" />
<path d="M8.9940 7.7120
L8.9940 7.7100
" />
<path d="M8.9940 7.7160
L8.9940 7.7120
" />
<path d="M8.9940 7.7220
L8.9940 7.7160
" />
<path d="M8.9940 7.7310
L8.9940 7.7220
" />
<path d="M8.9940 7.7420
L8.9940 7.7310
" />
<path d="M8.9940 7.7550
L8.9940 7.7420
" />
<path d="M8.9940 7.7700
L8.9940 7.7550
" />
<path d="M8.9940 7.7870
L8.9940 7.7700
" />
<path d="M8.9940 7.8060
L8.9940 7.7870
" />
<path d="M8.9940 7.8260
L8.9940 7.8060
" />
<path d="M8.9940 7.8470
L8.9940 7.8260
" />
<path d="M8.9940 7.8680
L8.9940 7.8470
" />
<path d="M8.9940 7.8910
L8.9940 7.8680
" />
<path d="M8.9940 7.9130
L8.9940 7.8910
" />
<path d="M8.9940 7.9130
L59.9970 7.9130
" />
<path d="M8.9940 8.4770
L8.9940 7.9130
" />
<path d="M8.9940 8.5000
L8.9940 8.4770
" />
<path d="M8.9940 8.5220
L8.9940 8.5000
" />
<path d="M8.9940 8.5440
L8.9940 8.5220
" />
<path d="M8.9940 8.5650
L8.9940 8.5440
" />
<path d="M8.9940 8.5850
L8.9940 8.5650
" />
<path d="M8.9940 8.6030
L8.9940 8.5850
" />
<path d="M8.9940 8.6200
L8.9940 8.6030
" />
<path d="M8.9940 8.6350
L8.9940 8.6200
" />
<path d="M8.9940 8.6480
L8.9940 8.6350
" />
<path d="M8.9940 8.6590
L8.9940 8.6480
" />
<path d="M8.9940 8.6680
L8.9940 8.6590
" />
<path d="M8.9940 8.6750
L8.9940 8.6680
" />
<path d="M8.9940 8.6790
L8.9940 8.6750
" />
<path d="M8.9940 8.6800
L8.9940 8.6790
" />
<path d="M8.9940 8.6800
L59.9970 8.6800
" />
<path d="M8.9940 8.7160
L8.9940 8.6800
" />
<path d="M8.9940 8.7160
L9.5560 8.7160
" />
<path d="M8.9940 9.7830
L8.9930 9.7840
" />
<path d="M8.9940 10.2150
L8.9940 9.7830
" />
<path d="M8.9940 10.2500
L8.9940 10.2150
" />
<path d="M8.9940 10.2520
L8.9940 10.2500
" />
<path d="M8.9940 10.2560
L8.9940 10.2520
" />
<path d="M8.9940 10.2620
L8.9940 10.2560
" />
<path d="M8.9940 10.2710
L8.9940 10.2620
" />
<path d="M8.9940 10.2820
L8.9940 10.2710
" />
<path d="M8.9940 10.2950
L8.9940 10.2820
" />
<path d="M8.9940 10.3100
L8.9940 10.2950
" />
<path d="M8.9940 10.3270
L8.9940 10.3100
" />
<path d="M8.9940 10.3460
L8.9940 10.3270
" />
<path d="M8.9940 10.3660
L8.9940 10.3460
" />
<path d="M8.9940 10.3870
L8.9940 10.3660
" />
<path d="M8.9940 10.4080
L8.9940 10.3870
" />
<path d="M8.9940 10.4310
L8.9940 10.4080
" />
<path d="M8.9940 10.4530
L8.9940 10.4310
" />
<path d="M8.9940 10.4530
L59.9970 10.4530
" />
<path d="M8.9940 11.0170
L8.9940 10.4530
" />
<path d="M8.9940 11.0400
L8.9940 11.0170
" />
<path d="M8.9940 11.0620
L8.9940 11.0400
" />
<path d="M8.9940 11.0840
L8.9940 11.0620
" />
<path d="M8.9940 11.1050
L8.9940 11.0840
" />
<path d="M8.9940 11.1250
L8.9940 11.1050
" />
<path d="M8.9940 11.1430
L8.9940 11.1250
" />
<path d="M8.9940 11.1600
L8.9940 11.1430
" />
<path d="M8.9940 11.1750
L8.9940 11.1600
" />
<path d="M8.9940 11.1880
L8.9940 11.1750
" />
<path d="M8.9940 11.1990
L8.9940 11.1880
" />
<path d="M8.9940 11.2080
L8.9940 11.1990
" />
<path d="M8.9940 11.2150
L8.9940 11.2080
" />
<path d="M8.9940 11.2190
L8.9940 11.2150
" />
<path d="M8.9940 11.2200
L8.9940 11.2190
" />
<path d="M8.9940 11.2200
L59.9970 11.2200
" />
<path d="M8.9940 11.2560
L8.9940 11.2200
" />
<path d="M8.9940 11.2560
L59.9970 11.2560
" />
<path d="M8.9940 12.7800
L8.9940 11.2560
" />
<path d="M9.5570 5.1350
L8.9940 5.1350
" />
<path d="M33.8610 0.3070
L33.8610 0.3090
" />
<path d="M33.8610 13.5420
L33.8610 13.5430
" />
<path d="M33.8610 13.5430
L35.1310 13.5430
" />
<path d="M35.1310 0.3070
L33.8610 0.3070
" />
<path d="M35.1310 0.3090
L35.1310 0.3070
" />
<path d="M35.1310 13.5430
L35.1310 13.5420
" />
<path d="M58.3080 13.5170
L60.2130 13.5170
" />
<path d="M58.3080 13.5420
L5.7680 13.5420
" />
<path d="M58.3080 13.5420
L58.3080 13.5170
" />
<path d="M58.5620 13.5170
L58.5620 13.5420
" />
<path d="M58.5620 13.5420
L58.3080 13.5420
" />
<path d="M58.9430 13.5170
L58.9430 13.5420
" />
<path d="M59.2610 13.5170
L59.2610 13.5420
" />
<path d="M59.2610 13.5420
L58.9430 13.5420
" />
<path d="M59.5780 13.5170
L59.5780 13.5420
" />
<path d="M59.5780 13.5420
L59.2610 13.5420
" />
<path d="M59.9590 13.5170
L59.9590 13.5420
" />
<path d="M59.9970 2.5950
L8.9940 2.5950
" />
<path d="M59.9970 2.5950
L59.9970 2.6300
" />
<path d="M59.9970 2.6300
L8.9940 2.6300
" />
<path d="M59.9970 2.6320
L59.9970 2.6300
" />
<path d="M59.9970 2.6360
L59.9970 2.6320
" />
<path d="M59.9970 2.6420
L59.9970 2.6360
" />
<path d="M59.9970 2.6510
L59.9970 2.6420
" />
<path d="M59.9970 2.6620
L59.9970 2.6510
" />
<path d="M59.9970 2.6750
L59.9970 2.6620
" />
<path d="M59.9970 2.6900
L59.9970 2.6750
" />
<path d="M59.9970 2.7070
L59.9970 2.6900
" />
<path d="M59.9970 2.7260
L59.9970 2.7070
" />
<path d="M59.9970 2.7460
L59.9970 2.7260
" />
<path d="M59.9970 2.7670
L59.9970 2.7460
" />
<path d="M59.9970 2.7880
L59.9970 2.7670
" />
<path d="M59.9970 2.8110
L59.9970 2.7880
" />
<path d="M59.9970 2.8330
L59.9970 2.8110
" />
<path d="M59.9970 3.3970
L8.9940 3.3970
" />
<path d="M59.9970 3.3970
L59.9970 2.8330
" />
<path d="M59.9970 3.4200
L59.9970 3.3970
" />
<path d="M59.9970 3.4420
L59.9970 3.4200
" />
<path d="M59.9970 3.4640
L59.9970 3.4420
" />
<path d="M59.9970 3.4850
L59.9970 3.4640
" />
<path d="M59.9970 3.5050
L59.9970 3.4850
" />
<path d="M59.9970 3.5230
L59.9970 3.5050
" />
<path d="M59.9970 3.5400
L59.9970 3.5230
" />
<path d="M59.9970 3.5550
L59.9970 3.5400
" />
<path d="M59.9970 3.5680
L59.9970 3.5550
" />
<path d="M59.9970 3.5790
L59.9970 3.5680
" />
<path d="M59.9970 3.5880
L59.9970 3.5790
" />
<path d="M59.9970 3.5950
L59.9970 3.5880
" />
<path d="M59.9970 3.5990
L59.9970 3.5950
" />
<path d="M59.9970 3.6000
L59.9970 3.5990
" />
<path d="M59.9970 3.6360
L59.9970 3.6000
" />
<path d="M59.9970 4.7410
L59.9970 5.1350
" />
<path d="M59.9970 4.7410
L61.5470 4.7410
" />
<path d="M59.9970 5.1700
L8.9940 5.1700
" />
<path d="M59.9970 5.1700
L59.9970 5.1350
" />
<path d="M59.9970 5.1720
L59.9970 5.1700
" />
<path d="M59.9970 5.1760
L59.9970 5.1720
" />
<path d="M59.9970 5.1820
L59.9970 5.1760
" />
<path d="M59.9970 5.1910
L59.9970 5.1820
" />
<path d="M59.9970 5.2020
L59.9970 5.1910
" />
<path d="M59.9970 5.2150
L59.9970 5.2020
" />
<path d="M59.9970 5.2300
L59.9970 5.2150
" />
<path d="M59.9970 5.2470
L59.9970 5.2300
" />
<path d="M59.9970 5.2660
L59.9970 5.2470
" />
<path d="M59.9970 5.2860
L59.9970 5.2660
" />
<path d="M59.9970 5.3070
L59.9970 5.2860
" />
<path d="M59.9970 5.3280
L59.9970 5.3070
" />
<path d="M59.9970 5.3510
L59.9970 5.3280
" />
<path d="M59.9970 5.3730
L59.9970 5.3510
" />
<path d="M59.9970 5.9370
L8.9940 5.9370
" />
<path d="M59.9970 5.9370
L59.9970 5.3730
" />
<path d="M59.9970 5.9600
L59.9970 5.9370
" />
<path d="M59.9970 5.9820
L59.9970 5.9600
" />
<path d="M59.9970 6.0040
L59.9970 5.9820
" />
<path d="M59.9970 6.0250
L59.9970 6.0040
" />
<path d="M59.9970 6.0450
L59.9970 6.0250
" />
<path d="M59.9970 6.0630
L59.9970 6.0450
" />
<path d="M59.9970 6.0800
L59.9970 6.0630
" />
<path d="M59.9970 6.0950
L59.9970 6.0800
" />
<path d="M59.9970 6.1080
L59.9970 6.0950
" />
<path d="M59.9970 6.1190
L59.9970 6.1080
" />
<path d="M59.9970 6.1280
L59.9970 6.1190
" />
<path d="M59.9970 6.1350
L59.9970 6.1280
" />
<path d="M59.9970 6.1390
L59.9970 6.1350
" />
<path d="M59.9970 6.1400
L59.9970 6.1390
" />
<path d="M59.9970 6.1760
L59.9970 6.1400
" />
<path d="M59.9970 6.1760
L59.9970 7.6750
" />
<path d="M59.9970 7.6750
L8.9940 7.6750
" />
<path d="M59.9970 7.7100
L8.9940 7.7100
" />
<path d="M59.9970 7.7100
L59.9970 7.6750
" />
<path d="M59.9970 7.7120
L59.9970 7.7100
" />
<path d="M59.9970 7.7160
L59.9970 7.7120
" />
<path d="M59.9970 7.7220
L59.9970 7.7160
" />
<path d="M59.9970 7.7310
L59.9970 7.7220
" />
<path d="M59.9970 7.7420
L59.9970 7.7310
" />
<path d="M59.9970 7.7550
L59.9970 7.7420
" />
<path d="M59.9970 7.7700
L59.9970 7.7550
" />
<path d="M59.9970 7.7870
L59.9970 7.7700
" />
<path d="M59.9970 7.8060
L59.9970 7.7870
" />
<path d="M59.9970 7.8260
L59.9970 7.8060
" />
<path d="M59.9970 7.8470
L59.9970 7.8260
" />
<path d="M59.9970 7.8680
L59.9970 7.8470
" />
<path d="M59.9970 7.8910
L59.9970 7.8680
" />
<path d="M59.9970 7.9130
L59.9970 7.8910
" />
<path d="M59.9970 8.4770
L8.9940 8.4770
" />
<path d="M59.9970 8.4770
L59.9970 7.9130
" />
<path d="M59.9970 8.5000
L59.9970 8.4770
" />
<path d="M59.9970 8.5220
L59.9970 8.5000
" />
<path d="M59.9970 8.5440
L59.9970 8.5220
" />
<path d="M59.9970 8.5650
L59.9970 8.5440
" />
<path d="M59.9970 8.5850
L59.9970 8.5650
" />
<path d="M59.9970 8.6030
L59.9970 8.5850
" />
<path d="M59.9970 8.6200
L59.9970 8.6030
" />
<path d="M59.9970 8.6350
L59.9970 8.6200
" />
<path d="M59.9970 8.6480
L59.9970 8.6350
" />
<path d="M59.9970 8.6590
L59.9970 8.6480
" />
<path d="M59.9970 8.6680
L59.9970 8.6590
" />
<path d="M59.9970 8.6750
L59.9970 8.6680
" />
<path d="M59.9970 8.6790
L59.9970 8.6750
" />
<path d="M59.9970 8.6800
L59.9970 8.6790
" />
<path d="M59.9970 8.7160
L59.9970 8.6800
" />
<path d="M59.9970 8.7160
L59.9970 9.1100
" />
<path d="M59.9970 9.1100
L59.9980 9.1090
" />
<path d="M59.9970 10.2150
L8.9940 10.2150
" />
<path d="M59.9970 10.2150
L59.9970 10.2500
" />
<path d="M59.9970 10.2500
L8.9940 10.2500
" />
<path d="M59.9970 10.2520
L59.9970 10.2500
" />
<path d="M59.9970 10.2560
L59.9970 10.2520
" />
<path d="M59.9970 10.2620
L59.9970 10.2560
" />
<path d="M59.9970 10.2710
L59.9970 10.2620
" />
<path d="M59.9970 10.2820
L59.9970 10.2710
" />
<path d="M59.9970 10.2950
L59.9970 10.2820
" />
<path d="M59.9970 10.3100
L59.9970 10.2950
" />
<path d="M59.9970 10.3270
L59.9970 10.3100
" />
<path d="M59.9970 10.3460
L59.9970 10.3270
" />
<path d="M59.9970 10.3660
L59.9970 10.3460
" />
<path d="M59.9970 10.3870
L59.9970 10.3660
" />
<path d="M59.9970 10.4080
L59.9970 10.3870
" />
<path d="M59.9970 10.4310
L59.9970 10.4080
" />
<path d="M59.9970 10.4530
L59.9970 10.4310
" />
<path d="M59.9970 11.0170
L8.9940 11.0170
" />
<path d="M59.9970 11.0170
L59.9970 10.4530
" />
<path d="M59.9970 11.0400
L59.9970 11.0170
" />
<path d="M59.9970 11.0620
L59.9970 11.0400
" />
<path d="M59.9970 11.0840
L59.9970 11.0620
" />
<path d="M59.9970 11.1050
L59.9970 11.0840
" />
<path d="M59.9970 11.1250
L59.9970 11.1050
" />
<path d="M59.9970 11.1430
L59.9970 11.1250
" />
<path d="M59.9970 11.1600
L59.9970 11.1430
" />
<path d="M59.9970 11.1750
L59.9970 11.1600
" />
<path d="M59.9970 11.1880
L59.9970 11.1750
" />
<path d="M59.9970 11.1990
L59.9970 11.1880
" />
<path d="M59.9970 11.2080
L59.9970 11.1990
" />
<path d="M59.9970 11.2150
L59.9970 11.2080
" />
<path d="M59.9970 11.2190
L59.9970 11.2150
" />
<path d="M59.9970 11.2200
L59.9970 11.2190
" />
<path d="M59.9970 11.2560
L59.9970 11.2200
" />
<path d="M59.9980 4.7420
L59.9970 4.7410
" />
<path d="M59.9980 9.1090
L60.0010 9.1050
" />
<path d="M60.0010 4.7450
L59.9980 4.7420
" />
<path d="M60.0010 9.1050
L60.0070 9.1000
" />
<path d="M60.0070 4.7510
L60.0010 4.7450
" />
<path d="M60.0070 9.1000
L60.0150 9.0920
" />
<path d="M60.0150 4.7590
L60.0070 4.7510
" />
<path d="M60.0150 9.0920
L60.0260 9.0810
" />
<path d="M60.0260 4.7690
L60.0150 4.7590
" />
<path d="M60.0260 9.0810
L60.0390 9.0680
" />
<path d="M60.0390 4.7820
L60.0260 4.7690
" />
<path d="M60.0390 9.0680
L60.0540 9.0530
" />
<path d="M60.0540 4.7980
L60.0390 4.7820
" />
<path d="M60.0540 9.0530
L60.0720 9.0350
" />
<path d="M60.0720 4.8150
L60.0540 4.7980
" />
<path d="M60.0720 9.0350
L60.0910 9.0160
" />
<path d="M60.0910 4.8350
L60.0720 4.8150
" />
<path d="M60.0910 9.0160
L60.1120 8.9950
" />
<path d="M60.1120 4.8560
L60.0910 4.8350
" />
<path d="M60.1120 8.9950
L60.1580 8.9490
" />
<path d="M60.1580 4.9010
L60.1120 4.8560
" />
<path d="M60.1580 8.9490
L60.2510 8.8560
" />
<path d="M60.2130 13.5170
L60.2130 13.5420
" />
<path d="M60.2130 13.5420
L59.9590 13.5420
" />
<path d="M60.2510 4.9950
L60.1580 4.9010
" />
<path d="M60.2510 8.8560
L60.2510 4.9950
" />
<path d="M60.2510 8.8560
L60.3780 8.8560
" />
<path d="M60.3780 4.7410
L60.3780 4.7420
" />
<path d="M60.3780 4.7420
L60.3780 4.7470
" />
<path d="M60.3780 4.7470
L60.3780 4.7550
" />
<path d="M60.3780 4.7550
L60.3780 4.7660
" />
<path d="M60.3780 4.7660
L60.3780 4.7800
" />
<path d="M60.3780 4.7800
L60.3780 4.7960
" />
<path d="M60.3780 4.7960
L60.3780 4.8150
" />
<path d="M60.3780 4.8150
L60.3780 4.8360
" />
<path d="M60.3780 4.8360
L60.3780 4.8600
" />
<path d="M60.3780 4.8600
L60.3780 4.8850
" />
<path d="M60.3780 4.8850
L60.3780 4.9110
" />
<path d="M60.3780 4.9110
L60.3780 4.9380
" />
<path d="M60.3780 4.9380
L60.3780 4.9660
" />
<path d="M60.3780 4.9660
L60.3780 4.9950
" />
<path d="M60.3780 4.9950
L60.2510 4.9950
" />
<path d="M60.3780 4.9950
L60.3780 8.8560
" />
<path d="M60.3780 8.8560
L60.4070 8.8560
" />
<path d="M60.3780 8.8840
L60.3780 8.8560
" />
<path d="M60.3780 8.9120
L60.3780 8.8840
" />
<path d="M60.3780 8.9390
L60.3780 8.9120
" />
<path d="M60.3780 8.9660
L60.3780 8.9390
" />
<path d="M60.3780 8.9910
L60.3780 8.9660
" />
<path d="M60.3780 9.0140
L60.3780 8.9910
" />
<path d="M60.3780 9.0350
L60.3780 9.0140
" />
<path d="M60.3780 9.0540
L60.3780 9.0350
" />
<path d="M60.3780 9.0710
L60.3780 9.0540
" />
<path d="M60.3780 9.0840
L60.3780 9.0710
" />
<path d="M60.3780 9.0950
L60.3780 9.0840
" />
<path d="M60.3780 9.1030
L60.3780 9.0950
" />
<path d="M60.3780 9.1080
L60.3780 9.1030
" />
<path d="M60.3780 9.1100
L60.3780 9.1080
" />
<path d="M60.4070 4.9950
L60.3780 4.9950
" />
<path d="M60.4070 8.8560
L60.4350 8.8560
" />
<path d="M60.4350 4.9950
L60.4070 4.9950
" />
<path d="M60.4350 8.8560
L60.4620 8.8560
" />
<path d="M60.4620 4.9950
L60.4350 4.9950
" />
<path d="M60.4620 8.8560
L60.4880 8.8560
" />
<path d="M60.4880 4.9950
L60.4620 4.9950
" />
<path d="M60.4880 8.8560
L60.5130 8.8560
" />
<path d="M60.5130 4.9950
L60.4880 4.9950
" />
<path d="M60.5130 8.8560
L60.5370 8.8560
" />
<path d="M60.5370 4.9950
L60.5130 4.9950
" />
<path d="M60.5370 8.8560
L60.5580 8.8560
" />
<path d="M60.5580 4.9950
L60.5370 4.9950
" />
<path d="M60.5580 8.8560
L60.5770 8.8560
" />
<path d="M60.5770 4.9950
L60.5580 4.9950
" />
<path d="M60.5770 8.8560
L60.5930 8.8560
" />
<path d="M60.5930 4.9950
L60.5770 4.9950
" />
<path d="M60.5930 8.8560
L60.6070 8.8560
" />
<path d="M60.6070 4.9950
L60.5930 4.9950
" />
<path d="M60.6070 8.8560
L60.6180 8.8560
" />
<path d="M60.6180 4.9950
L60.6070 4.9950
" />
<path d="M60.6180 8.8560
L60.6260 8.8560
" />
<path d="M60.6260 4.9950
L60.6180 4.9950
" />
<path d="M60.6260 8.8560
L60.6310 8.8560
" />
<path d="M60.6310 4.9950
L60.6260 4.9950
" />
<path d="M60.6310 8.8560
L60.6320 8.8560
" />
<path d="M60.6320 4.9950
L60.6310 4.9950
" />
<path d="M60.6320 4.9950
L60.6320 8.8560
" />
<path d="M60.6320 8.8560
L60.6320 4.9950
" />
<path d="M60.6320 8.8560
L60.6340 8.8560
" />
<path d="M60.6340 4.9950
L60.6320 4.9950
" />
<path d="M60.6340 8.8560
L60.6390 8.8560
" />
<path d="M60.6360 4.9510
L60.6320 4.9950
" />
<path d="M60.6360 4.9510
L60.6320 4.9950
" />
<path d="M60.6360 8.9000
L60.6320 8.8560
" />
<path d="M60.6390 4.9950
L60.6340 4.9950
" />
<path d="M60.6390 8.8560
L60.6460 8.8560
" />
<path d="M60.6460 4.9950
L60.6390 4.9950
" />
<path d="M60.6460 8.8560
L60.6570 8.8560
" />
<path d="M60.6470 4.9080
L60.6360 4.9510
" />
<path d="M60.6470 4.9080
L60.6360 4.9510
" />
<path d="M60.6470 8.9420
L60.6360 8.9000
" />
<path d="M60.6570 4.9950
L60.6460 4.9950
" />
<path d="M60.6570 8.8560
L60.6710 8.8560
" />
<path d="M60.6660 4.8680
L60.6470 4.9080
" />
<path d="M60.6660 4.8680
L60.6470 4.9080
" />
<path d="M60.6660 8.9830
L60.6470 8.9420
" />
<path d="M60.6710 4.9950
L60.6570 4.9950
" />
<path d="M60.6710 8.8560
L60.6880 8.8560
" />
<path d="M60.6880 4.9950
L60.6710 4.9950
" />
<path d="M60.6880 8.8560
L60.7070 8.8560
" />
<path d="M60.6920 4.8320
L60.6660 4.8680
" />
<path d="M60.6920 4.8320
L60.6660 4.8680
" />
<path d="M60.6920 9.0190
L60.6660 8.9830
" />
<path d="M60.7070 4.9950
L60.6880 4.9950
" />
<path d="M60.7070 8.8560
L60.7280 8.8560
" />
<path d="M60.7230 4.8000
L60.6920 4.8320
" />
<path d="M60.7230 4.8000
L60.6920 4.8320
" />
<path d="M60.7230 9.0500
L60.6920 9.0190
" />
<path d="M60.7280 4.9950
L60.7070 4.9950
" />
<path d="M60.7280 8.8560
L60.7510 8.8560
" />
<path d="M60.7510 4.9950
L60.7280 4.9950
" />
<path d="M60.7510 8.8560
L60.7760 8.8560
" />
<path d="M60.7590 4.7750
L60.7230 4.8000
" />
<path d="M60.7590 4.7750
L60.7230 4.8000
" />
<path d="M60.7590 9.0760
L60.7230 9.0500
" />
<path d="M60.7760 4.9950
L60.7510 4.9950
" />
<path d="M60.7760 8.8560
L60.8020 8.8560
" />
<path d="M60.7990 4.7560
L60.7590 4.7750
" />
<path d="M60.7990 4.7560
L60.7590 4.7750
" />
<path d="M60.7990 9.0940
L60.7590 9.0760
" />
<path d="M60.8020 4.9950
L60.7760 4.9950
" />
<path d="M60.8020 8.8560
L60.8300 8.8560
" />
<path d="M60.8300 4.9950
L60.8020 4.9950
" />
<path d="M60.8300 8.8560
L60.8580 8.8560
" />
<path d="M60.8420 4.7450
L60.7990 4.7560
" />
<path d="M60.8420 4.7450
L60.7990 4.7560
" />
<path d="M60.8420 9.1060
L60.7990 9.0940
" />
<path d="M60.8580 4.9950
L60.8300 4.9950
" />
<path d="M60.8580 8.8560
L60.8860 8.8560
" />
<path d="M60.8860 4.7410
L60.8420 4.7450
" />
<path d="M60.8860 4.7410
L60.8420 4.7450
" />
<path d="M60.8860 4.7420
L60.8860 4.7410
" />
<path d="M60.8860 4.7470
L60.8860 4.7420
" />
<path d="M60.8860 4.7550
L60.8860 4.7470
" />
<path d="M60.8860 4.7660
L60.8860 4.7550
" />
<path d="M60.8860 4.7800
L60.8860 4.7660
" />
<path d="M60.8860 4.7960
L60.8860 4.7800
" />
<path d="M60.8860 4.8150
L60.8860 4.7960
" />
<path d="M60.8860 4.8360
L60.8860 4.8150
" />
<path d="M60.8860 4.8600
L60.8860 4.8360
" />
<path d="M60.8860 4.8850
L60.8860 4.8600
" />
<path d="M60.8860 4.9110
L60.8860 4.8850
" />
<path d="M60.8860 4.9380
L60.8860 4.9110
" />
<path d="M60.8860 4.9660
L60.8860 4.9380
" />
<path d="M60.8860 4.9950
L60.8580 4.9950
" />
<path d="M60.8860 4.9950
L60.8860 4.9660
" />
<path d="M60.8860 8.8560
L60.8860 4.9950
" />
<path d="M60.8860 8.8560
L62.3090 8.8560
" />
<path d="M60.8860 8.8840
L60.8860 8.8560
" />
<path d="M60.8860 8.9120
L60.8860 8.8840
" />
<path d="M60.8860 8.9390
L60.8860 8.9120
" />
<path d="M60.8860 8.9660
L60.8860 8.9390
" />
<path d="M60.8860 8.9910
L60.8860 8.9660
" />
<path d="M60.8860 9.0140
L60.8860 8.9910
" />
<path d="M60.8860 9.0350
L60.8860 9.0140
" />
<path d="M60.8860 9.0540
L60.8860 9.0350
" />
<path d="M60.8860 9.0710
L60.8860 9.0540
" />
<path d="M60.8860 9.0840
L60.8860 9.0710
" />
<path d="M60.8860 9.0950
L60.8860 9.0840
" />
<path d="M60.8860 9.1030
L60.8860 9.0950
" />
<path d="M60.8860 9.1080
L60.8860 9.1030
" />
<path d="M60.8860 9.1100
L60.8420 9.1060
" />
<path d="M60.8860 9.1100
L60.8860 9.1080
" />
<path d="M61.5470 1.0710
L61.5470 2.1950
" />
<path d="M61.5470 2.1950
L61.6150 2.2480
" />
<path d="M61.5470 2.2080
L61.5470 2.1950
" />
<path d="M61.5470 2.2240
L61.5470 2.2080
" />
<path d="M61.5470 2.2440
L61.5470 2.2240
" />
<path d="M61.5470 2.2670
L61.5470 2.2440
" />
<path d="M61.5470 2.2920
L61.5470 2.2670
" />
<path d="M61.5470 2.3200
L61.5470 2.2920
" />
<path d="M61.5470 2.3510
L61.5470 2.3200
" />
<path d="M61.5470 2.3830
L61.5470 2.3510
" />
<path d="M61.5470 2.4180
L61.5470 2.3830
" />
<path d="M61.5470 2.4540
L61.5470 2.4180
" />
<path d="M61.5470 2.4910
L61.5470 2.4540
" />
<path d="M61.5470 2.5290
L61.5470 2.4910
" />
<path d="M61.5470 2.5680
L61.5470 2.5290
" />
<path d="M61.5470 2.6070
L61.5470 2.5680
" />
<path d="M61.5470 2.6070
L61.5470 3.6230
" />
<path d="M61.5470 3.6230
L61.7240 3.6230
" />
<path d="M61.5470 3.6620
L61.5470 3.6230
" />
<path d="M61.5470 3.7010
L61.5470 3.6620
" />
<path d="M61.5470 3.7390
L61.5470 3.7010
" />
<path d="M61.5470 3.7770
L61.5470 3.7390
" />
<path d="M61.5470 3.8130
L61.5470 3.7770
" />
<path d="M61.5470 3.8470
L61.5470 3.8130
" />
<path d="M61.5470 3.8800
L61.5470 3.8470
" />
<path d="M61.5470 3.9100
L61.5470 3.8800
" />
<path d="M61.5470 3.9380
L61.5470 3.9100
" />
<path d="M61.5470 3.9640
L61.5470 3.9380
" />
<path d="M61.5470 3.9860
L61.5470 3.9640
" />
<path d="M61.5470 4.0060
L61.5470 3.9860
" />
<path d="M61.5470 4.0230
L61.5470 4.0060
" />
<path d="M61.5470 4.0360
L61.5470 4.0230
" />
<path d="M61.5470 4.0360
L61.5470 4.7410
" />
<path d="M61.5470 4.7410
L62.5690 4.7410
" />
<path d="M61.5470 9.1100
L59.9970 9.1100
" />
<path d="M61.5470 9.1100
L61.5470 9.8150
" />
<path d="M61.5470 9.1100
L62.5630 9.1100
" />
<path d="M61.5470 9.8150
L61.6150 9.8680
" />
<path d="M61.5470 9.8280
L61.5470 9.8150
" />
<path d="M61.5470 9.8440
L61.5470 9.8280
" />
<path d="M61.5470 9.8640
L61.5470 9.8440
" />
<path d="M61.5470 9.8870
L61.5470 9.8640
" />
<path d="M61.5470 9.9120
L61.5470 9.8870
" />
<path d="M61.5470 9.9400
L61.5470 9.9120
" />
<path d="M61.5470 9.9710
L61.5470 9.9400
" />
<path d="M61.5470 10.0030
L61.5470 9.9710
" />
<path d="M61.5470 10.0380
L61.5470 10.0030
" />
<path d="M61.5470 10.0740
L61.5470 10.0380
" />
<path d="M61.5470 10.1110
L61.5470 10.0740
" />
<path d="M61.5470 10.1490
L61.5470 10.1110
" />
<path d="M61.5470 10.1880
L61.5470 10.1490
" />
<path d="M61.5470 10.2270
L61.5470 10.1880
" />
<path d="M61.5470 10.2270
L61.5470 11.2430
" />
<path d="M61.5470 11.2430
L61.7240 11.2430
" />
<path d="M61.5470 11.2820
L61.5470 11.2430
" />
<path d="M61.5470 11.3210
L61.5470 11.2820
" />
<path d="M61.5470 11.3590
L61.5470 11.3210
" />
<path d="M61.5470 11.3970
L61.5470 11.3590
" />
<path d="M61.5470 11.4330
L61.5470 11.3970
" />
<path d="M61.5470 11.4670
L61.5470 11.4330
" />
<path d="M61.5470 11.5000
L61.5470 11.4670
" />
<path d="M61.5470 11.5300
L61.5470 11.5000
" />
<path d="M61.5470 11.5580
L61.5470 11.5300
" />
<path d="M61.5470 11.5840
L61.5470 11.5580
" />
<path d="M61.5470 11.6060
L61.5470 11.5840
" />
<path d="M61.5470 11.6260
L61.5470 11.6060
" />
<path d="M61.5470 11.6430
L61.5470 11.6260
" />
<path d="M61.5470 11.6560
L61.5470 11.6430
" />
<path d="M61.5470 11.6560
L61.5470 12.7800
" />
<path d="M61.5470 12.7800
L6.4290 12.7800
" />
<path d="M61.6150 2.2480
L61.6740 2.3020
" />
<path d="M61.6150 3.9820
L61.5470 4.0360
" />
<path d="M61.6150 9.8680
L61.6740 9.9220
" />
<path d="M61.6150 11.6020
L61.5470 11.6560
" />
<path d="M61.6740 2.3020
L61.7200 2.3530
" />
<path d="M61.6740 3.9280
L61.6150 3.9820
" />
<path d="M61.6740 9.9220
L61.7200 9.9730
" />
<path d="M61.6740 11.5480
L61.6150 11.6020
" />
<path d="M61.7200 3.8770
L61.6740 3.9280
" />
<path d="M61.7200 3.8770
L61.8010 3.8770
" />
<path d="M61.7200 11.4970
L61.6740 11.5480
" />
<path d="M61.7200 11.4970
L61.8010 11.4970
" />
<path d="M61.7230 11.4970
L61.7200 11.4970
" />
<path d="M61.7240 2.3550
L61.7240 2.3530
" />
<path d="M61.7240 2.3600
L61.7240 2.3550
" />
<path d="M61.7240 2.3670
L61.7240 2.3600
" />
<path d="M61.7240 2.3780
L61.7240 2.3670
" />
<path d="M61.7240 2.3920
L61.7240 2.3780
" />
<path d="M61.7240 2.4090
L61.7240 2.3920
" />
<path d="M61.7240 2.4280
L61.7240 2.4090
" />
<path d="M61.7240 2.4490
L61.7240 2.4280
" />
<path d="M61.7240 2.4720
L61.7240 2.4490
" />
<path d="M61.7240 2.4970
L61.7240 2.4720
" />
<path d="M61.7240 2.5230
L61.7240 2.4970
" />
<path d="M61.7240 2.5510
L61.7240 2.5230
" />
<path d="M61.7240 2.5790
L61.7240 2.5510
" />
<path d="M61.7240 2.6070
L61.5470 2.6070
" />
<path d="M61.7240 2.6070
L61.7240 2.5790
" />
<path d="M61.7240 2.6070
L61.7240 3.6230
" />
<path d="M61.7240 3.6230
L62.3850 3.6230
" />
<path d="M61.7240 3.6520
L61.7240 3.6230
" />
<path d="M61.7240 3.6800
L61.7240 3.6520
" />
<path d="M61.7240 3.7070
L61.7240 3.6800
" />
<path d="M61.7240 3.7330
L61.7240 3.7070
" />
<path d="M61.7240 3.7580
L61.7240 3.7330
" />
<path d="M61.7240 3.7820
L61.7240 3.7580
" />
<path d="M61.7240 3.8030
L61.7240 3.7820
" />
<path d="M61.7240 3.8220
L61.7240 3.8030
" />
<path d="M61.7240 3.8380
L61.7240 3.8220
" />
<path d="M61.7240 3.8520
L61.7240 3.8380
" />
<path d="M61.7240 3.8630
L61.7240 3.8520
" />
<path d="M61.7240 3.8710
L61.7240 3.8630
" />
<path d="M61.7240 3.8760
L61.7240 3.8710
" />
<path d="M61.7240 3.8770
L61.7240 3.8760
" />
<path d="M61.7240 9.9750
L61.7240 9.9730
" />
<path d="M61.7240 9.9800
L61.7240 9.9750
" />
<path d="M61.7240 9.9870
L61.7240 9.9800
" />
<path d="M61.7240 9.9980
L61.7240 9.9870
" />
<path d="M61.7240 10.0120
L61.7240 9.9980
" />
<path d="M61.7240 10.0290
L61.7240 10.0120
" />
<path d="M61.7240 10.0480
L61.7240 10.0290
" />
<path d="M61.7240 10.0690
L61.7240 10.0480
" />
<path d="M61.7240 10.0920
L61.7240 10.0690
" />
<path d="M61.7240 10.1170
L61.7240 10.0920
" />
<path d="M61.7240 10.1430
L61.7240 10.1170
" />
<path d="M61.7240 10.1710
L61.7240 10.1430
" />
<path d="M61.7240 10.1990
L61.7240 10.1710
" />
<path d="M61.7240 10.2270
L61.5470 10.2270
" />
<path d="M61.7240 10.2270
L61.7240 10.1990
" />
<path d="M61.7240 10.2270
L61.7240 11.2430
" />
<path d="M61.7240 11.2430
L62.3850 11.2430
" />
<path d="M61.7240 11.2720
L61.7240 11.2430
" />
<path d="M61.7240 11.3000
L61.7240 11.2720
" />
<path d="M61.7240 11.3270
L61.7240 11.3000
" />
<path d="M61.7240 11.3530
L61.7240 11.3270
" />
<path d="M61.7240 11.3780
L61.7240 11.3530
" />
<path d="M61.7240 11.4020
L61.7240 11.3780
" />
<path d="M61.7240 11.4230
L61.7240 11.4020
" />
<path d="M61.7240 11.4420
L61.7240 11.4230
" />
<path d="M61.7240 11.4580
L61.7240 11.4420
" />
<path d="M61.7240 11.4720
L61.7240 11.4580
" />
<path d="M61.7240 11.4830
L61.7240 11.4720
" />
<path d="M61.7240 11.4910
L61.7240 11.4830
" />
<path d="M61.7240 11.4960
L61.7240 11.4910
" />
<path d="M61.7240 11.4970
L61.7240 11.4960
" />
<path d="M61.8010 0.8170
L61.5470 1.0710
" />
<path d="M61.8010 0.8170
L61.8010 2.3530
" />
<path d="M61.8010 2.3530
L61.7200 2.3530
" />
<path d="M61.8010 3.8770
L61.8010 4.4870
" />
<path d="M61.8010 4.4870
L61.5470 4.7410
" />
<path d="M61.8010 4.4870
L62.8170 4.4870
" />
<path d="M61.8010 9.3640
L61.5470 9.1100
" />
<path d="M61.8010 9.3640
L61.8010 9.9730
" />
<path d="M61.8010 9.9730
L61.7200 9.9730
" />
<path d="M61.8010 11.4970
L61.8010 13.0340
" />
<path d="M61.8010 13.0340
L6.1750 13.0340
" />
<path d="M61.8010 13.0340
L61.5470 12.7800
" />
<path d="M62.3090 4.9950
L60.8860 4.9950
" />
<path d="M62.3090 8.8560
L62.3090 4.9950
" />
<path d="M62.3090 8.8560
L62.4020 8.9490
" />
<path d="M62.3850 0.3090
L5.7680 0.3090
" />
<path d="M62.3850 0.3090
L62.3850 2.3530
" />
<path d="M62.3850 2.3530
L61.8010 2.3530
" />
<path d="M62.3850 2.3530
L62.3850 2.3550
" />
<path d="M62.3850 2.3550
L62.3850 2.3600
" />
<path d="M62.3850 2.3600
L62.3850 2.3670
" />
<path d="M62.3850 2.3670
L62.3850 2.3780
" />
<path d="M62.3850 2.3780
L62.3850 2.3920
" />
<path d="M62.3850 2.3920
L62.3850 2.4090
" />
<path d="M62.3850 2.4090
L62.3850 2.4280
" />
<path d="M62.3850 2.4280
L62.3850 2.4490
" />
<path d="M62.3850 2.4490
L62.3850 2.4720
" />
<path d="M62.3850 2.4720
L62.3850 2.4970
" />
<path d="M62.3850 2.4970
L62.3850 2.5230
" />
<path d="M62.3850 2.5230
L62.3850 2.5510
" />
<path d="M62.3850 2.5510
L62.3850 2.5790
" />
<path d="M62.3850 2.5790
L62.3850 2.6070
" />
<path d="M62.3850 2.6070
L61.7240 2.6070
" />
<path d="M62.3850 2.6070
L62.3850 3.6230
" />
<path d="M62.3850 3.6230
L62.3850 3.6520
" />
<path d="M62.3850 3.6520
L62.3850 3.6800
" />
<path d="M62.3850 3.6800
L62.3850 3.7070
" />
<path d="M62.3850 3.7070
L62.3850 3.7330
" />
<path d="M62.3850 3.7330
L62.3850 3.7580
" />
<path d="M62.3850 3.7580
L62.3850 3.7820
" />
<path d="M62.3850 3.7820
L62.3850 3.8030
" />
<path d="M62.3850 3.8030
L62.3850 3.8220
" />
<path d="M62.3850 3.8220
L62.3850 3.8380
" />
<path d="M62.3850 3.8380
L62.3850 3.8520
" />
<path d="M62.3850 3.8520
L62.3850 3.8630
" />
<path d="M62.3850 3.8630
L62.3850 3.8710
" />
<path d="M62.3850 3.8710
L62.3850 3.8760
" />
<path d="M62.3850 3.8760
L62.3850 3.8770
" />
<path d="M62.3850 3.8770
L61.8010 3.8770
" />
<path d="M62.3850 3.8770
L62.3850 4.0800
" />
<path d="M62.3850 4.0800
L63.2230 4.0800
" />
<path d="M62.3850 9.7700
L62.3850 9.9730
" />
<path d="M62.3850 9.7700
L63.2230 9.7700
" />
<path d="M62.3850 9.9730
L61.8010 9.9730
" />
<path d="M62.3850 9.9730
L62.3850 9.9750
" />
<path d="M62.3850 9.9750
L62.3850 9.9800
" />
<path d="M62.3850 9.9800
L62.3850 9.9870
" />
<path d="M62.3850 9.9870
L62.3850 9.9980
" />
<path d="M62.3850 9.9980
L62.3850 10.0120
" />
<path d="M62.3850 10.0120
L62.3850 10.0290
" />
<path d="M62.3850 10.0290
L62.3850 10.0480
" />
<path d="M62.3850 10.0480
L62.3850 10.0690
" />
<path d="M62.3850 10.0690
L62.3850 10.0920
" />
<path d="M62.3850 10.0920
L62.3850 10.1170
" />
<path d="M62.3850 10.1170
L62.3850 10.1430
" />
<path d="M62.3850 10.1430
L62.3850 10.1710
" />
<path d="M62.3850 10.1710
L62.3850 10.1990
" />
<path d="M62.3850 10.1990
L62.3850 10.2270
" />
<path d="M62.3850 10.2270
L61.7240 10.2270
" />
<path d="M62.3850 10.2270
L62.3850 11.2430
" />
<path d="M62.3850 11.2430
L62.3850 11.2720
" />
<path d="M62.3850 11.2720
L62.3850 11.3000
" />
<path d="M62.3850 11.3000
L62.3850 11.3270
" />
<path d="M62.3850 11.3270
L62.3850 11.3530
" />
<path d="M62.3850 11.3530
L62.3850 11.3780
" />
<path d="M62.3850 11.3780
L62.3850 11.4020
" />
<path d="M62.3850 11.4020
L62.3850 11.4230
" />
<path d="M62.3850 11.4230
L62.3850 11.4420
" />
<path d="M62.3850 11.4420
L62.3850 11.4580
" />
<path d="M62.3850 11.4580
L62.3850 11.4720
" />
<path d="M62.3850 11.4720
L62.3850 11.4830
" />
<path d="M62.3850 11.4830
L62.3850 11.4910
" />
<path d="M62.3850 11.4910
L62.3850 11.4960
" />
<path d="M62.3850 11.4960
L62.3850 11.4970
" />
<path d="M62.3850 11.4970
L61.8010 11.4970
" />
<path d="M62.3850 11.4970
L62.3850 13.5420
" />
<path d="M62.3850 13.5420
L60.2130 13.5420
" />
<path d="M62.4020 4.9010
L62.3090 4.9950
" />
<path d="M62.4020 8.9490
L62.4480 8.9950
" />
<path d="M62.4480 4.8560
L62.4020 4.9010
" />
<path d="M62.4480 8.9950
L62.4690 9.0160
" />
<path d="M62.4690 4.8350
L62.4480 4.8560
" />
<path d="M62.4690 9.0160
L62.4880 9.0350
" />
<path d="M62.4880 4.8150
L62.4690 4.8350
" />
<path d="M62.4880 9.0350
L62.5060 9.0530
" />
<path d="M62.5060 4.7980
L62.4880 4.8150
" />
<path d="M62.5060 9.0530
L62.5210 9.0680
" />
<path d="M62.5210 4.7820
L62.5060 4.7980
" />
<path d="M62.5210 9.0680
L62.5340 9.0810
" />
<path d="M62.5340 4.7690
L62.5210 4.7820
" />
<path d="M62.5340 9.0810
L62.5450 9.0920
" />
<path d="M62.5450 4.7590
L62.5340 4.7690
" />
<path d="M62.5450 9.0920
L62.5530 9.1000
" />
<path d="M62.5530 4.7510
L62.5450 4.7590
" />
<path d="M62.5530 9.1000
L62.5580 9.1050
" />
<path d="M62.5580 4.7450
L62.5530 4.7510
" />
<path d="M62.5580 9.1050
L62.5620 9.1090
" />
<path d="M62.5620 4.7420
L62.5580 4.7450
" />
<path d="M62.5620 9.1090
L62.5630 9.1100
" />
<path d="M62.5630 4.7410
L62.5620 4.7420
" />
<path d="M62.5630 4.7410
L62.5690 4.7410
" />
<path d="M62.5630 4.7550
L62.5630 4.7410
" />
<path d="M62.5630 4.7720
L62.5630 4.7550
" />
<path d="M62.5630 4.7930
L62.5630 4.7720
" />
<path d="M62.5630 4.8160
L62.5630 4.7930
" />
<path d="M62.5630 4.8410
L62.5630 4.8160
" />
<path d="M62.5630 4.8690
L62.5630 4.8410
" />
<path d="M62.5630 4.8990
L62.5630 4.8690
" />
<path d="M62.5630 4.9310
L62.5630 4.8990
" />
<path d="M62.5630 4.9640
L62.5630 4.9310
" />
<path d="M62.5630 4.9990
L62.5630 4.9640
" />
<path d="M62.5630 5.0350
L62.5630 4.9990
" />
<path d="M62.5630 5.0720
L62.5630 5.0350
" />
<path d="M62.5630 5.1090
L62.5630 5.0720
" />
<path d="M62.5630 5.1470
L62.5630 5.1090
" />
<path d="M62.5630 5.1470
L62.5630 6.1630
" />
<path d="M62.5630 6.1630
L62.7400 6.1630
" />
<path d="M62.5630 6.2020
L62.5630 6.1630
" />
<path d="M62.5630 6.2410
L62.5630 6.2020
" />
<path d="M62.5630 6.2790
L62.5630 6.2410
" />
<path d="M62.5630 6.3170
L62.5630 6.2790
" />
<path d="M62.5630 6.3530
L62.5630 6.3170
" />
<path d="M62.5630 6.3870
L62.5630 6.3530
" />
<path d="M62.5630 6.4200
L62.5630 6.3870
" />
<path d="M62.5630 6.4500
L62.5630 6.4200
" />
<path d="M62.5630 6.4780
L62.5630 6.4500
" />
<path d="M62.5630 6.5040
L62.5630 6.4780
" />
<path d="M62.5630 6.5260
L62.5630 6.5040
" />
<path d="M62.5630 6.5460
L62.5630 6.5260
" />
<path d="M62.5630 6.5630
L62.5630 6.5460
" />
<path d="M62.5630 6.5760
L62.5630 6.5630
" />
<path d="M62.5630 6.5760
L62.5630 7.2750
" />
<path d="M62.5630 7.2750
L62.6310 7.3280
" />
<path d="M62.5630 7.2880
L62.5630 7.2750
" />
<path d="M62.5630 7.3040
L62.5630 7.2880
" />
<path d="M62.5630 7.3240
L62.5630 7.3040
" />
<path d="M62.5630 7.3470
L62.5630 7.3240
" />
<path d="M62.5630 7.3720
L62.5630 7.3470
" />
<path d="M62.5630 7.4000
L62.5630 7.3720
" />
<path d="M62.5630 7.4310
L62.5630 7.4000
" />
<path d="M62.5630 7.4630
L62.5630 7.4310
" />
<path d="M62.5630 7.4980
L62.5630 7.4630
" />
<path d="M62.5630 7.5340
L62.5630 7.4980
" />
<path d="M62.5630 7.5710
L62.5630 7.5340
" />
<path d="M62.5630 7.6090
L62.5630 7.5710
" />
<path d="M62.5630 7.6480
L62.5630 7.6090
" />
<path d="M62.5630 7.6870
L62.5630 7.6480
" />
<path d="M62.5630 7.6870
L62.5630 8.7030
" />
<path d="M62.5630 8.7030
L62.7400 8.7030
" />
<path d="M62.5630 8.7410
L62.5630 8.7030
" />
<path d="M62.5630 8.7780
L62.5630 8.7410
" />
<path d="M62.5630 8.8150
L62.5630 8.7780
" />
<path d="M62.5630 8.8510
L62.5630 8.8150
" />
<path d="M62.5630 8.8860
L62.5630 8.8510
" />
<path d="M62.5630 8.9200
L62.5630 8.8860
" />
<path d="M62.5630 8.9520
L62.5630 8.9200
" />
<path d="M62.5630 8.9820
L62.5630 8.9520
" />
<path d="M62.5630 9.0090
L62.5630 8.9820
" />
<path d="M62.5630 9.0350
L62.5630 9.0090
" />
<path d="M62.5630 9.0580
L62.5630 9.0350
" />
<path d="M62.5630 9.0780
L62.5630 9.0580
" />
<path d="M62.5630 9.0950
L62.5630 9.0780
" />
<path d="M62.5630 9.1100
L62.5630 9.0950
" />
<path d="M62.5630 9.1100
L62.5690 9.1100
" />
<path d="M62.5660 4.7370
L62.6320 4.7900
" />
<path d="M62.5660 9.1130
L62.5690 9.1100
" />
<path d="M62.5690 4.7410
L62.5660 4.7370
" />
<path d="M62.5690 9.1100
L61.5470 9.1100
" />
<path d="M62.6310 6.5220
L62.5630 6.5760
" />
<path d="M62.6310 7.3280
L62.6900 7.3820
" />
<path d="M62.6320 4.7900
L62.6900 4.8420
" />
<path d="M62.6320 9.0610
L62.5660 9.1130
" />
<path d="M62.6900 4.8420
L62.7360 4.8930
" />
<path d="M62.6900 6.4680
L62.6310 6.5220
" />
<path d="M62.6900 7.3820
L62.7360 7.4330
" />
<path d="M62.6900 9.0080
L62.6320 9.0610
" />
<path d="M62.7360 4.8930
L62.7390 4.8930
" />
<path d="M62.7360 6.4170
L62.6900 6.4680
" />
<path d="M62.7360 6.4170
L62.8170 6.4170
" />
<path d="M62.7360 8.9570
L62.6900 9.0080
" />
<path d="M62.7360 8.9570
L62.8170 8.9570
" />
<path d="M62.7390 6.4170
L62.7360 6.4170
" />
<path d="M62.7390 8.9570
L62.7360 8.9570
" />
<path d="M62.7400 4.8950
L62.7400 4.8930
" />
<path d="M62.7400 4.9000
L62.7400 4.8950
" />
<path d="M62.7400 4.9070
L62.7400 4.9000
" />
<path d="M62.7400 4.9180
L62.7400 4.9070
" />
<path d="M62.7400 4.9320
L62.7400 4.9180
" />
<path d="M62.7400 4.9490
L62.7400 4.9320
" />
<path d="M62.7400 4.9680
L62.7400 4.9490
" />
<path d="M62.7400 4.9890
L62.7400 4.9680
" />
<path d="M62.7400 5.0120
L62.7400 4.9890
" />
<path d="M62.7400 5.0370
L62.7400 5.0120
" />
<path d="M62.7400 5.0630
L62.7400 5.0370
" />
<path d="M62.7400 5.0910
L62.7400 5.0630
" />
<path d="M62.7400 5.1190
L62.7400 5.0910
" />
<path d="M62.7400 5.1470
L62.5630 5.1470
" />
<path d="M62.7400 5.1470
L62.7400 5.1190
" />
<path d="M62.7400 5.1470
L62.7400 6.1630
" />
<path d="M62.7400 6.1630
L63.2230 6.1630
" />
<path d="M62.7400 6.1920
L62.7400 6.1630
" />
<path d="M62.7400 6.2200
L62.7400 6.1920
" />
<path d="M62.7400 6.2470
L62.7400 6.2200
" />
<path d="M62.7400 6.2730
L62.7400 6.2470
" />
<path d="M62.7400 6.2980
L62.7400 6.2730
" />
<path d="M62.7400 6.3220
L62.7400 6.2980
" />
<path d="M62.7400 6.3430
L62.7400 6.3220
" />
<path d="M62.7400 6.3620
L62.7400 6.3430
" />
<path d="M62.7400 6.3780
L62.7400 6.3620
" />
<path d="M62.7400 6.3920
L62.7400 6.3780
" />
<path d="M62.7400 6.4030
L62.7400 6.3920
" />
<path d="M62.7400 6.4110
L62.7400 6.4030
" />
<path d="M62.7400 6.4160
L62.7400 6.4110
" />
<path d="M62.7400 6.4170
L62.7400 6.4160
" />
<path d="M62.7400 7.4350
L62.7400 7.4330
" />
<path d="M62.7400 7.4400
L62.7400 7.4350
" />
<path d="M62.7400 7.4470
L62.7400 7.4400
" />
<path d="M62.7400 7.4580
L62.7400 7.4470
" />
<path d="M62.7400 7.4720
L62.7400 7.4580
" />
<path d="M62.7400 7.4890
L62.7400 7.4720
" />
<path d="M62.7400 7.5080
L62.7400 7.4890
" />
<path d="M62.7400 7.5290
L62.7400 7.5080
" />
<path d="M62.7400 7.5520
L62.7400 7.5290
" />
<path d="M62.7400 7.5770
L62.7400 7.5520
" />
<path d="M62.7400 7.6030
L62.7400 7.5770
" />
<path d="M62.7400 7.6310
L62.7400 7.6030
" />
<path d="M62.7400 7.6590
L62.7400 7.6310
" />
<path d="M62.7400 7.6870
L62.5630 7.6870
" />
<path d="M62.7400 7.6870
L62.7400 7.6590
" />
<path d="M62.7400 7.6870
L62.7400 8.7030
" />
<path d="M62.7400 8.7030
L63.2230 8.7030
" />
<path d="M62.7400 8.7320
L62.7400 8.7030
" />
<path d="M62.7400 8.7600
L62.7400 8.7320
" />
<path d="M62.7400 8.7870
L62.7400 8.7600
" />
<path d="M62.7400 8.8130
L62.7400 8.7870
" />
<path d="M62.7400 8.8380
L62.7400 8.8130
" />
<path d="M62.7400 8.8620
L62.7400 8.8380
" />
<path d="M62.7400 8.8830
L62.7400 8.8620
" />
<path d="M62.7400 8.9020
L62.7400 8.8830
" />
<path d="M62.7400 8.9180
L62.7400 8.9020
" />
<path d="M62.7400 8.9320
L62.7400 8.9180
" />
<path d="M62.7400 8.9430
L62.7400 8.9320
" />
<path d="M62.7400 8.9510
L62.7400 8.9430
" />
<path d="M62.7400 8.9560
L62.7400 8.9510
" />
<path d="M62.7400 8.9570
L62.7400 8.9560
" />
<path d="M62.8170 4.4870
L62.5660 4.7370
" />
<path d="M62.8170 4.4870
L62.8170 4.8930
" />
<path d="M62.8170 4.8930
L62.7360 4.8930
" />
<path d="M62.8170 4.8930
L63.2230 4.8930
" />
<path d="M62.8170 6.4170
L62.8170 7.4330
" />
<path d="M62.8170 7.4330
L62.7360 7.4330
" />
<path d="M62.8170 8.9570
L62.8170 9.3640
" />
<path d="M62.8170 9.3640
L61.8010 9.3640
" />
<path d="M62.8170 9.3640
L62.5660 9.1130
" />
<path d="M63.2230 4.8930
L63.2230 4.0800
" />
<path d="M63.2230 4.8930
L63.2230 4.8950
" />
<path d="M63.2230 4.8950
L63.2230 4.9000
" />
<path d="M63.2230 4.9000
L63.2230 4.9070
" />
<path d="M63.2230 4.9070
L63.2230 4.9180
" />
<path d="M63.2230 4.9180
L63.2230 4.9320
" />
<path d="M63.2230 4.9320
L63.2230 4.9490
" />
<path d="M63.2230 4.9490
L63.2230 4.9680
" />
<path d="M63.2230 4.9680
L63.2230 4.9890
" />
<path d="M63.2230 4.9890
L63.2230 5.0120
" />
<path d="M63.2230 5.0120
L63.2230 5.0370
" />
<path d="M63.2230 5.0370
L63.2230 5.0630
" />
<path d="M63.2230 5.0630
L63.2230 5.0910
" />
<path d="M63.2230 5.0910
L63.2230 5.1190
" />
<path d="M63.2230 5.1190
L63.2230 5.1470
" />
<path d="M63.2230 5.1470
L62.7400 5.1470
" />
<path d="M63.2230 5.1470
L63.2230 6.1630
" />
<path d="M63.2230 6.1630
L63.2230 6.1920
" />
<path d="M63.2230 6.1920
L63.2230 6.2200
" />
<path d="M63.2230 6.2200
L63.2230 6.2470
" />
<path d="M63.2230 6.2470
L63.2230 6.2730
" />
<path d="M63.2230 6.2730
L63.2230 6.2980
" />
<path d="M63.2230 6.2980
L63.2230 6.3220
" />
<path d="M63.2230 6.3220
L63.2230 6.3430
" />
<path d="M63.2230 6.3430
L63.2230 6.3620
" />
<path d="M63.2230 6.3620
L63.2230 6.3780
" />
<path d="M63.2230 6.3780
L63.2230 6.3920
" />
<path d="M63.2230 6.3920
L63.2230 6.4030
" />
<path d="M63.2230 6.4030
L63.2230 6.4110
" />
<path d="M63.2230 6.4110
L63.2230 6.4160
" />
<path d="M63.2230 6.4160
L63.2230 6.4170
" />
<path d="M63.2230 6.4170
L62.8170 6.4170
" />
<path d="M63.2230 6.4170
L63.2230 7.4330
" />
<path d="M63.2230 7.4330
L62.8170 7.4330
" />
<path d="M63.2230 7.4330
L63.2230 7.4350
" />
<path d="M63.2230 7.4350
L63.2230 7.4400
" />
<path d="M63.2230 7.4400
L63.2230 7.4470
" />
<path d="M63.2230 7.4470
L63.2230 7.4580
" />
<path d="M63.2230 7.4580
L63.2230 7.4720
" />
<path d="M63.2230 7.4720
L63.2230 7.4890
" />
<path d="M63.2230 7.4890
L63.2230 7.5080
" />
<path d="M63.2230 7.5080
L63.2230 7.5290
" />
<path d="M63.2230 7.5290
L63.2230 7.5520
" />
<path d="M63.2230 7.5520
L63.2230 7.5770
" />
<path d="M63.2230 7.5770
L63.2230 7.6030
" />
<path d="M63.2230 7.6030
L63.2230 7.6310
" />
<path d="M63.2230 7.6310
L63.2230 7.6590
" />
<path d="M63.2230 7.6590
L63.2230 7.6870
" />
<path d="M63.2230 7.6870
L62.7400 7.6870
" />
<path d="M63.2230 7.6870
L63.2230 8.7030
" />
<path d="M63.2230 8.7030
L63.2230 8.7320
" />
<path d="M63.2230 8.7320
L63.2230 8.7600
" />
<path d="M63.2230 8.7600
L63.2230 8.7870
" />
<path d="M63.2230 8.7870
L63.2230 8.8130
" />
<path d="M63.2230 8.8130
L63.2230 8.8380
" />
<path d="M63.2230 8.8380
L63.2230 8.8620
" />
<path d="M63.2230 8.8620
L63.2230 8.8830
" />
<path d="M63.2230 8.8830
L63.2230 8.9020
" />
<path d="M63.2230 8.9020
L63.2230 8.9180
" />
<path d="M63.2230 8.9180
L63.2230 8.9320
" />
<path d="M63.2230 8.9320
L63.2230 8.9430
" />
<path d="M63.2230 8.9430
L63.2230 8.9510
" />
<path d="M63.2230 8.9510
L63.2230 8.9560
" />
<path d="M63.2230 8.9560
L63.2230 8.9570
" />
<path d="M63.2230 8.9570
L62.8170 8.9570
" />
<path d="M63.2230 9.7700
L63.2230 8.9570
" />
</g> 
</svg>
