<?xml version="1.0" standalone="no"?>
 <!DOCTYPE svg PUBLIC "-//W3C//DTD SVG 1.1//EN" 
 "http://www.w3.org/Graphics/SVG/1.1/DTD/svg11.dtd"> 
<svg
  xmlns:svg="http://www.w3.org/2000/svg"
  xmlns="http://www.w3.org/2000/svg"
  xmlns:xlink="http://www.w3.org/1999/xlink"
  version="1.1"
  width="13.9446mm" height="13.9446mm" viewBox="0.0000 0.0000 13.9446 13.9446">
<title>SVG Image created as outline.svg date 2025/01/07 09:31:25 </title>
  <desc>Image generated by PCBNEW </desc>
<g style="fill:#000000; fill-opacity:0.0000;stroke:#000000; stroke-opacity:1.0000;
stroke-linecap:round; stroke-linejoin:round;"
 transform="translate(0 0) scale(1 1)">
</g>
<g style="fill:none; 
stroke:#000000; stroke-width:0.0200; stroke-opacity:1; 
stroke-linecap:round; stroke-linejoin:round;">
<path d="M0.4250 0.4250
L0.4250 13.5250
" />
<path d="M0.4250 13.5250
L13.5250 13.5250
" />
<path d="M0.5750 1.0750
L0.5750 12.8750
" />
<path d="M0.5750 12.8750
L0.5790 12.9350
" />
<path d="M0.5790 1.0150
L0.5750 1.0750
" />
<path d="M0.5790 12.9350
L0.5900 12.9950
" />
<path d="M0.5900 0.9550
L0.5790 1.0150
" />
<path d="M0.5900 12.9950
L0.6070 13.0520
" />
<path d="M0.6070 0.8980
L0.5900 0.9550
" />
<path d="M0.6070 13.0520
L0.6320 13.1070
" />
<path d="M0.6320 0.8430
L0.6070 0.8980
" />
<path d="M0.6320 13.1070
L0.6640 13.1590
" />
<path d="M0.6640 0.7910
L0.6320 0.8430
" />
<path d="M0.6640 13.1590
L0.7010 13.2070
" />
<path d="M0.7010 0.7430
L0.6640 0.7910
" />
<path d="M0.7010 13.2070
L0.7430 13.2490
" />
<path d="M0.7430 0.7010
L0.7010 0.7430
" />
<path d="M0.7430 13.2490
L0.7910 13.2860
" />
<path d="M0.7910 0.6640
L0.7430 0.7010
" />
<path d="M0.7910 13.2860
L0.8430 13.3180
" />
<path d="M0.8430 0.6320
L0.7910 0.6640
" />
<path d="M0.8430 13.3180
L0.8980 13.3430
" />
<path d="M0.8980 0.6070
L0.8430 0.6320
" />
<path d="M0.8980 13.3430
L0.9550 13.3600
" />
<path d="M0.9550 0.5900
L0.8980 0.6070
" />
<path d="M0.9550 13.3600
L1.0150 13.3710
" />
<path d="M0.9750 1.4750
L0.9790 1.5380
" />
<path d="M0.9790 1.4120
L0.9750 1.4750
" />
<path d="M0.9790 1.5380
L0.9910 1.5990
" />
<path d="M0.9910 1.3510
L0.9790 1.4120
" />
<path d="M0.9910 1.5990
L1.0100 1.6590
" />
<path d="M1.0100 1.2910
L0.9910 1.3510
" />
<path d="M1.0100 1.6590
L1.0370 1.7160
" />
<path d="M1.0150 0.5790
L0.9550 0.5900
" />
<path d="M1.0150 13.3710
L1.0750 13.3750
" />
<path d="M1.0370 1.2340
L1.0100 1.2910
" />
<path d="M1.0370 1.7160
L1.0700 1.7690
" />
<path d="M1.0700 1.1810
L1.0370 1.2340
" />
<path d="M1.0700 1.7690
L1.1110 1.8170
" />
<path d="M1.0750 0.5750
L1.0150 0.5790
" />
<path d="M1.0750 13.3750
L12.8750 13.3750
" />
<path d="M1.1110 1.1330
L1.0700 1.1810
" />
<path d="M1.1110 1.8170
L1.1560 1.8600
" />
<path d="M1.1560 1.0900
L1.1110 1.1330
" />
<path d="M1.1560 1.8600
L1.2070 1.8970
" />
<path d="M1.2070 1.0530
L1.1560 1.0900
" />
<path d="M1.2070 1.8970
L1.2620 1.9270
" />
<path d="M1.2620 1.0230
L1.2070 1.0530
" />
<path d="M1.2620 1.9270
L1.3200 1.9510
" />
<path d="M1.3200 0.9990
L1.2620 1.0230
" />
<path d="M1.3200 1.9510
L1.3810 1.9660
" />
<path d="M1.3810 0.9840
L1.3200 0.9990
" />
<path d="M1.3810 1.9660
L1.4440 1.9740
" />
<path d="M1.4440 0.9760
L1.3810 0.9840
" />
<path d="M1.4440 1.9740
L1.5060 1.9740
" />
<path d="M1.5060 0.9760
L1.4440 0.9760
" />
<path d="M1.5060 1.9740
L1.5690 1.9660
" />
<path d="M1.5690 0.9840
L1.5060 0.9760
" />
<path d="M1.5690 1.9660
L1.6300 1.9510
" />
<path d="M1.6300 0.9990
L1.5690 0.9840
" />
<path d="M1.6300 1.9510
L1.6880 1.9270
" />
<path d="M1.6880 1.0230
L1.6300 0.9990
" />
<path d="M1.6880 1.9270
L1.7430 1.8970
" />
<path d="M1.7430 1.0530
L1.6880 1.0230
" />
<path d="M1.7430 1.8970
L1.7940 1.8600
" />
<path d="M1.7940 1.0900
L1.7430 1.0530
" />
<path d="M1.7940 1.8600
L1.8390 1.8170
" />
<path d="M1.8390 1.1330
L1.7940 1.0900
" />
<path d="M1.8390 1.8170
L1.8800 1.7690
" />
<path d="M1.8800 1.1810
L1.8390 1.1330
" />
<path d="M1.8800 1.7690
L1.9130 1.7160
" />
<path d="M1.9130 1.2340
L1.8800 1.1810
" />
<path d="M1.9130 1.7160
L1.9400 1.6590
" />
<path d="M1.9400 1.2910
L1.9130 1.2340
" />
<path d="M1.9400 1.6590
L1.9590 1.5990
" />
<path d="M1.9590 1.3510
L1.9400 1.2910
" />
<path d="M1.9590 1.5990
L1.9710 1.5380
" />
<path d="M1.9710 1.4120
L1.9590 1.3510
" />
<path d="M1.9710 1.5380
L1.9750 1.4750
" />
<path d="M1.9750 1.4750
L1.9710 1.4120
" />
<path d="M2.5750 3.5750
L2.5750 10.3750
" />
<path d="M2.5750 3.5750
L3.3260 3.9090
" />
<path d="M2.5750 10.3750
L2.5790 10.4620
" />
<path d="M2.5750 10.3750
L3.3260 10.0410
" />
<path d="M2.5790 3.4880
L2.5750 3.5750
" />
<path d="M2.5790 10.4620
L2.5900 10.5490
" />
<path d="M2.5900 3.4010
L2.5790 3.4880
" />
<path d="M2.5900 10.5490
L2.6090 10.6340
" />
<path d="M2.6090 3.3160
L2.5900 3.4010
" />
<path d="M2.6090 10.6340
L2.6350 10.7170
" />
<path d="M2.6350 3.2330
L2.6090 3.3160
" />
<path d="M2.6350 10.7170
L2.6690 10.7980
" />
<path d="M2.6690 3.1520
L2.6350 3.2330
" />
<path d="M2.6690 10.7980
L2.7090 10.8750
" />
<path d="M2.7090 3.0750
L2.6690 3.1520
" />
<path d="M2.7090 10.8750
L2.7560 10.9490
" />
<path d="M2.7560 3.0010
L2.7090 3.0750
" />
<path d="M2.7560 10.9490
L2.8090 11.0180
" />
<path d="M2.8090 2.9320
L2.7560 3.0010
" />
<path d="M2.8090 11.0180
L2.8680 11.0820
" />
<path d="M2.8680 2.8680
L2.8090 2.9320
" />
<path d="M2.8680 11.0820
L2.9320 11.1410
" />
<path d="M2.9320 2.8090
L2.8680 2.8680
" />
<path d="M2.9320 11.1410
L3.0010 11.1940
" />
<path d="M3.0010 2.7560
L2.9320 2.8090
" />
<path d="M3.0010 11.1940
L3.0750 11.2410
" />
<path d="M3.0750 2.7090
L3.0010 2.7560
" />
<path d="M3.0750 11.2410
L3.1520 11.2810
" />
<path d="M3.1520 2.6690
L3.0750 2.7090
" />
<path d="M3.1520 11.2810
L3.2330 11.3150
" />
<path d="M3.2330 2.6350
L3.1520 2.6690
" />
<path d="M3.2330 11.3150
L3.3160 11.3410
" />
<path d="M3.3160 2.6090
L3.2330 2.6350
" />
<path d="M3.3160 11.3410
L3.4010 11.3600
" />
<path d="M3.3260 3.9090
L3.3260 10.0410
" />
<path d="M3.3260 10.0410
L3.3350 10.0950
" />
<path d="M3.3350 3.8550
L3.3260 3.9090
" />
<path d="M3.3350 10.0950
L3.3490 10.1480
" />
<path d="M3.3460 3.9090
L3.3260 3.9090
" />
<path d="M3.3460 10.0410
L3.3260 10.0410
" />
<path d="M3.3490 3.8020
L3.3350 3.8550
" />
<path d="M3.3490 10.1480
L3.3670 10.2000
" />
<path d="M3.3670 3.7500
L3.3490 3.8020
" />
<path d="M3.3670 10.2000
L3.3890 10.2500
" />
<path d="M3.3680 3.9090
L3.3460 3.9090
" />
<path d="M3.3680 10.0410
L3.3460 10.0410
" />
<path d="M3.3890 3.7000
L3.3670 3.7500
" />
<path d="M3.3890 10.2500
L3.4160 10.2990
" />
<path d="M3.3920 3.9090
L3.3680 3.9090
" />
<path d="M3.3920 10.0410
L3.3680 10.0410
" />
<path d="M3.4010 2.5900
L3.3160 2.6090
" />
<path d="M3.4010 11.3600
L3.4880 11.3710
" />
<path d="M3.4160 3.6510
L3.3890 3.7000
" />
<path d="M3.4160 3.9090
L3.3920 3.9090
" />
<path d="M3.4160 10.0410
L3.3920 10.0410
" />
<path d="M3.4160 10.2990
L3.4470 10.3460
" />
<path d="M3.4410 3.9090
L3.4160 3.9090
" />
<path d="M3.4410 10.0410
L3.4160 10.0410
" />
<path d="M3.4470 3.6040
L3.4160 3.6510
" />
<path d="M3.4470 10.3460
L3.4810 10.3900
" />
<path d="M3.4680 3.9090
L3.4410 3.9090
" />
<path d="M3.4680 10.0410
L3.4410 10.0410
" />
<path d="M3.4810 3.5600
L3.4470 3.6040
" />
<path d="M3.4810 10.3900
L3.5190 10.4310
" />
<path d="M3.4880 2.5790
L3.4010 2.5900
" />
<path d="M3.4880 11.3710
L3.5750 11.3750
" />
<path d="M3.4950 3.9090
L3.4680 3.9090
" />
<path d="M3.4950 10.0410
L3.4680 10.0410
" />
<path d="M3.5190 3.5190
L3.4810 3.5600
" />
<path d="M3.5190 10.4310
L3.5600 10.4690
" />
<path d="M3.5230 3.9090
L3.4950 3.9090
" />
<path d="M3.5230 10.0410
L3.4950 10.0410
" />
<path d="M3.5520 3.9090
L3.5230 3.9090
" />
<path d="M3.5520 10.0410
L3.5230 10.0410
" />
<path d="M3.5600 3.4810
L3.5190 3.5190
" />
<path d="M3.5600 10.4690
L3.6040 10.5030
" />
<path d="M3.5750 2.5750
L3.4880 2.5790
" />
<path d="M3.5750 2.5750
L3.9090 3.3260
" />
<path d="M3.5750 11.3750
L3.9090 10.6240
" />
<path d="M3.5750 11.3750
L10.3750 11.3750
" />
<path d="M3.5810 3.9090
L3.5520 3.9090
" />
<path d="M3.5810 10.0410
L3.5520 10.0410
" />
<path d="M3.6040 3.4470
L3.5600 3.4810
" />
<path d="M3.6040 10.5030
L3.6510 10.5340
" />
<path d="M3.6100 3.9090
L3.5810 3.9090
" />
<path d="M3.6100 10.0410
L3.5810 10.0410
" />
<path d="M3.6400 3.9090
L3.6100 3.9090
" />
<path d="M3.6400 10.0410
L3.6100 10.0410
" />
<path d="M3.6510 3.4160
L3.6040 3.4470
" />
<path d="M3.6510 10.5340
L3.7000 10.5610
" />
<path d="M3.6700 3.9090
L3.6400 3.9090
" />
<path d="M3.6700 10.0410
L3.6400 10.0410
" />
<path d="M3.7000 3.3890
L3.6510 3.4160
" />
<path d="M3.7000 10.5610
L3.7500 10.5830
" />
<path d="M3.7010 3.9090
L3.6700 3.9090
" />
<path d="M3.7010 3.9090
L3.7010 10.0410
" />
<path d="M3.7010 10.0410
L3.6700 10.0410
" />
<path d="M3.7010 10.0410
L3.7040 10.0770
" />
<path d="M3.7040 3.8730
L3.7010 3.9090
" />
<path d="M3.7040 10.0770
L3.7160 10.1160
" />
<path d="M3.7160 3.8340
L3.7040 3.8730
" />
<path d="M3.7160 10.1160
L3.7250 10.1350
" />
<path d="M3.7250 3.8150
L3.7160 3.8340
" />
<path d="M3.7250 10.1350
L3.7360 10.1530
" />
<path d="M3.7360 3.7970
L3.7250 3.8150
" />
<path d="M3.7360 10.1530
L3.7490 10.1700
" />
<path d="M3.7490 3.7800
L3.7360 3.7970
" />
<path d="M3.7490 10.1700
L3.7630 10.1870
" />
<path d="M3.7500 3.3670
L3.7000 3.3890
" />
<path d="M3.7500 10.5830
L3.8020 10.6010
" />
<path d="M3.7630 3.7630
L3.7490 3.7800
" />
<path d="M3.7630 10.1870
L3.7800 10.2010
" />
<path d="M3.7800 3.7490
L3.7630 3.7630
" />
<path d="M3.7800 10.2010
L3.7970 10.2140
" />
<path d="M3.7970 3.7360
L3.7800 3.7490
" />
<path d="M3.7970 10.2140
L3.8150 10.2250
" />
<path d="M3.8020 3.3490
L3.7500 3.3670
" />
<path d="M3.8020 10.6010
L3.8550 10.6150
" />
<path d="M3.8150 3.7250
L3.7970 3.7360
" />
<path d="M3.8150 10.2250
L3.8340 10.2340
" />
<path d="M3.8340 3.7160
L3.8150 3.7250
" />
<path d="M3.8340 10.2340
L3.8730 10.2460
" />
<path d="M3.8550 3.3350
L3.8020 3.3490
" />
<path d="M3.8550 10.6150
L3.9090 10.6240
" />
<path d="M3.8730 3.7040
L3.8340 3.7160
" />
<path d="M3.8730 10.2460
L3.9090 10.2490
" />
<path d="M3.9090 3.3260
L3.8550 3.3350
" />
<path d="M3.9090 3.3460
L3.9090 3.3260
" />
<path d="M3.9090 3.3680
L3.9090 3.3460
" />
<path d="M3.9090 3.3920
L3.9090 3.3680
" />
<path d="M3.9090 3.4160
L3.9090 3.3920
" />
<path d="M3.9090 3.4410
L3.9090 3.4160
" />
<path d="M3.9090 3.4680
L3.9090 3.4410
" />
<path d="M3.9090 3.4950
L3.9090 3.4680
" />
<path d="M3.9090 3.5230
L3.9090 3.4950
" />
<path d="M3.9090 3.5520
L3.9090 3.5230
" />
<path d="M3.9090 3.5810
L3.9090 3.5520
" />
<path d="M3.9090 3.6100
L3.9090 3.5810
" />
<path d="M3.9090 3.6400
L3.9090 3.6100
" />
<path d="M3.9090 3.6700
L3.9090 3.6400
" />
<path d="M3.9090 3.7010
L3.8730 3.7040
" />
<path d="M3.9090 3.7010
L3.9090 3.6700
" />
<path d="M3.9090 10.2490
L3.9090 10.2800
" />
<path d="M3.9090 10.2490
L10.0410 10.2490
" />
<path d="M3.9090 10.2800
L3.9090 10.3100
" />
<path d="M3.9090 10.3100
L3.9090 10.3400
" />
<path d="M3.9090 10.3400
L3.9090 10.3690
" />
<path d="M3.9090 10.3690
L3.9090 10.3980
" />
<path d="M3.9090 10.3980
L3.9090 10.4270
" />
<path d="M3.9090 10.4270
L3.9090 10.4550
" />
<path d="M3.9090 10.4550
L3.9090 10.4820
" />
<path d="M3.9090 10.4820
L3.9090 10.5090
" />
<path d="M3.9090 10.5090
L3.9090 10.5340
" />
<path d="M3.9090 10.5340
L3.9090 10.5580
" />
<path d="M3.9090 10.5580
L3.9090 10.5820
" />
<path d="M3.9090 10.5820
L3.9090 10.6040
" />
<path d="M3.9090 10.6040
L3.9090 10.6240
" />
<path d="M3.9090 10.6240
L10.0410 10.6240
" />
<path d="M10.0410 3.3260
L3.9090 3.3260
" />
<path d="M10.0410 3.3460
L10.0410 3.3260
" />
<path d="M10.0410 3.3680
L10.0410 3.3460
" />
<path d="M10.0410 3.3920
L10.0410 3.3680
" />
<path d="M10.0410 3.4160
L10.0410 3.3920
" />
<path d="M10.0410 3.4410
L10.0410 3.4160
" />
<path d="M10.0410 3.4680
L10.0410 3.4410
" />
<path d="M10.0410 3.4950
L10.0410 3.4680
" />
<path d="M10.0410 3.5230
L10.0410 3.4950
" />
<path d="M10.0410 3.5520
L10.0410 3.5230
" />
<path d="M10.0410 3.5810
L10.0410 3.5520
" />
<path d="M10.0410 3.6100
L10.0410 3.5810
" />
<path d="M10.0410 3.6400
L10.0410 3.6100
" />
<path d="M10.0410 3.6700
L10.0410 3.6400
" />
<path d="M10.0410 3.7010
L3.9090 3.7010
" />
<path d="M10.0410 3.7010
L10.0410 3.6700
" />
<path d="M10.0410 10.2490
L10.0410 10.2800
" />
<path d="M10.0410 10.2490
L10.0770 10.2460
" />
<path d="M10.0410 10.2800
L10.0410 10.3100
" />
<path d="M10.0410 10.3100
L10.0410 10.3400
" />
<path d="M10.0410 10.3400
L10.0410 10.3690
" />
<path d="M10.0410 10.3690
L10.0410 10.3980
" />
<path d="M10.0410 10.3980
L10.0410 10.4270
" />
<path d="M10.0410 10.4270
L10.0410 10.4550
" />
<path d="M10.0410 10.4550
L10.0410 10.4820
" />
<path d="M10.0410 10.4820
L10.0410 10.5090
" />
<path d="M10.0410 10.5090
L10.0410 10.5340
" />
<path d="M10.0410 10.5340
L10.0410 10.5580
" />
<path d="M10.0410 10.5580
L10.0410 10.5820
" />
<path d="M10.0410 10.5820
L10.0410 10.6040
" />
<path d="M10.0410 10.6040
L10.0410 10.6240
" />
<path d="M10.0410 10.6240
L10.0950 10.6150
" />
<path d="M10.0770 3.7040
L10.0410 3.7010
" />
<path d="M10.0770 10.2460
L10.1160 10.2340
" />
<path d="M10.0950 3.3350
L10.0410 3.3260
" />
<path d="M10.0950 10.6150
L10.1480 10.6010
" />
<path d="M10.1160 3.7160
L10.0770 3.7040
" />
<path d="M10.1160 10.2340
L10.1350 10.2250
" />
<path d="M10.1350 3.7250
L10.1160 3.7160
" />
<path d="M10.1350 10.2250
L10.1530 10.2140
" />
<path d="M10.1480 3.3490
L10.0950 3.3350
" />
<path d="M10.1480 10.6010
L10.2000 10.5830
" />
<path d="M10.1530 3.7360
L10.1350 3.7250
" />
<path d="M10.1530 10.2140
L10.1700 10.2010
" />
<path d="M10.1700 3.7490
L10.1530 3.7360
" />
<path d="M10.1700 10.2010
L10.1870 10.1870
" />
<path d="M10.1870 3.7630
L10.1700 3.7490
" />
<path d="M10.1870 10.1870
L10.2010 10.1700
" />
<path d="M10.2000 3.3670
L10.1480 3.3490
" />
<path d="M10.2000 10.5830
L10.2500 10.5610
" />
<path d="M10.2010 3.7800
L10.1870 3.7630
" />
<path d="M10.2010 10.1700
L10.2140 10.1530
" />
<path d="M10.2140 3.7970
L10.2010 3.7800
" />
<path d="M10.2140 10.1530
L10.2250 10.1350
" />
<path d="M10.2250 3.8150
L10.2140 3.7970
" />
<path d="M10.2250 10.1350
L10.2340 10.1160
" />
<path d="M10.2340 3.8340
L10.2250 3.8150
" />
<path d="M10.2340 10.1160
L10.2460 10.0770
" />
<path d="M10.2460 3.8730
L10.2340 3.8340
" />
<path d="M10.2460 10.0770
L10.2490 10.0410
" />
<path d="M10.2490 3.9090
L10.2460 3.8730
" />
<path d="M10.2490 3.9090
L10.2800 3.9090
" />
<path d="M10.2490 10.0410
L10.2490 3.9090
" />
<path d="M10.2490 10.0410
L10.2800 10.0410
" />
<path d="M10.2500 3.3890
L10.2000 3.3670
" />
<path d="M10.2500 10.5610
L10.2990 10.5340
" />
<path d="M10.2800 3.9090
L10.3100 3.9090
" />
<path d="M10.2800 10.0410
L10.3100 10.0410
" />
<path d="M10.2990 3.4160
L10.2500 3.3890
" />
<path d="M10.2990 10.5340
L10.3460 10.5030
" />
<path d="M10.3100 3.9090
L10.3400 3.9090
" />
<path d="M10.3100 10.0410
L10.3400 10.0410
" />
<path d="M10.3400 3.9090
L10.3690 3.9090
" />
<path d="M10.3400 10.0410
L10.3690 10.0410
" />
<path d="M10.3460 3.4470
L10.2990 3.4160
" />
<path d="M10.3460 10.5030
L10.3900 10.4690
" />
<path d="M10.3690 3.9090
L10.3980 3.9090
" />
<path d="M10.3690 10.0410
L10.3980 10.0410
" />
<path d="M10.3750 2.5750
L3.5750 2.5750
" />
<path d="M10.3750 2.5750
L10.0410 3.3260
" />
<path d="M10.3750 11.3750
L10.0410 10.6240
" />
<path d="M10.3750 11.3750
L10.4620 11.3710
" />
<path d="M10.3900 3.4810
L10.3460 3.4470
" />
<path d="M10.3900 10.4690
L10.4310 10.4310
" />
<path d="M10.3980 3.9090
L10.4270 3.9090
" />
<path d="M10.3980 10.0410
L10.4270 10.0410
" />
<path d="M10.4270 3.9090
L10.4550 3.9090
" />
<path d="M10.4270 10.0410
L10.4550 10.0410
" />
<path d="M10.4310 3.5190
L10.3900 3.4810
" />
<path d="M10.4310 10.4310
L10.4690 10.3900
" />
<path d="M10.4550 3.9090
L10.4820 3.9090
" />
<path d="M10.4550 10.0410
L10.4820 10.0410
" />
<path d="M10.4620 2.5790
L10.3750 2.5750
" />
<path d="M10.4620 11.3710
L10.5490 11.3600
" />
<path d="M10.4690 3.5600
L10.4310 3.5190
" />
<path d="M10.4690 10.3900
L10.5030 10.3460
" />
<path d="M10.4820 3.9090
L10.5090 3.9090
" />
<path d="M10.4820 10.0410
L10.5090 10.0410
" />
<path d="M10.5030 3.6040
L10.4690 3.5600
" />
<path d="M10.5030 10.3460
L10.5340 10.2990
" />
<path d="M10.5090 3.9090
L10.5340 3.9090
" />
<path d="M10.5090 10.0410
L10.5340 10.0410
" />
<path d="M10.5340 3.6510
L10.5030 3.6040
" />
<path d="M10.5340 3.9090
L10.5580 3.9090
" />
<path d="M10.5340 10.0410
L10.5580 10.0410
" />
<path d="M10.5340 10.2990
L10.5610 10.2500
" />
<path d="M10.5490 2.5900
L10.4620 2.5790
" />
<path d="M10.5490 11.3600
L10.6340 11.3410
" />
<path d="M10.5580 3.9090
L10.5820 3.9090
" />
<path d="M10.5580 10.0410
L10.5820 10.0410
" />
<path d="M10.5610 3.7000
L10.5340 3.6510
" />
<path d="M10.5610 10.2500
L10.5830 10.2000
" />
<path d="M10.5820 3.9090
L10.6040 3.9090
" />
<path d="M10.5820 10.0410
L10.6040 10.0410
" />
<path d="M10.5830 3.7500
L10.5610 3.7000
" />
<path d="M10.5830 10.2000
L10.6010 10.1480
" />
<path d="M10.6010 3.8020
L10.5830 3.7500
" />
<path d="M10.6010 10.1480
L10.6150 10.0950
" />
<path d="M10.6040 3.9090
L10.6240 3.9090
" />
<path d="M10.6040 10.0410
L10.6240 10.0410
" />
<path d="M10.6150 3.8550
L10.6010 3.8020
" />
<path d="M10.6150 10.0950
L10.6240 10.0410
" />
<path d="M10.6240 3.9090
L10.6150 3.8550
" />
<path d="M10.6240 10.0410
L10.6240 3.9090
" />
<path d="M10.6340 2.6090
L10.5490 2.5900
" />
<path d="M10.6340 11.3410
L10.7170 11.3150
" />
<path d="M10.7170 2.6350
L10.6340 2.6090
" />
<path d="M10.7170 11.3150
L10.7980 11.2810
" />
<path d="M10.7980 2.6690
L10.7170 2.6350
" />
<path d="M10.7980 11.2810
L10.8750 11.2410
" />
<path d="M10.8750 2.7090
L10.7980 2.6690
" />
<path d="M10.8750 11.2410
L10.9490 11.1940
" />
<path d="M10.9490 2.7560
L10.8750 2.7090
" />
<path d="M10.9490 11.1940
L11.0180 11.1410
" />
<path d="M11.0180 2.8090
L10.9490 2.7560
" />
<path d="M11.0180 11.1410
L11.0820 11.0820
" />
<path d="M11.0820 2.8680
L11.0180 2.8090
" />
<path d="M11.0820 11.0820
L11.1410 11.0180
" />
<path d="M11.1410 2.9320
L11.0820 2.8680
" />
<path d="M11.1410 11.0180
L11.1940 10.9490
" />
<path d="M11.1940 3.0010
L11.1410 2.9320
" />
<path d="M11.1940 10.9490
L11.2410 10.8750
" />
<path d="M11.2410 3.0750
L11.1940 3.0010
" />
<path d="M11.2410 10.8750
L11.2810 10.7980
" />
<path d="M11.2810 3.1520
L11.2410 3.0750
" />
<path d="M11.2810 10.7980
L11.3150 10.7170
" />
<path d="M11.3150 3.2330
L11.2810 3.1520
" />
<path d="M11.3150 10.7170
L11.3410 10.6340
" />
<path d="M11.3410 3.3160
L11.3150 3.2330
" />
<path d="M11.3410 10.6340
L11.3600 10.5490
" />
<path d="M11.3600 3.4010
L11.3410 3.3160
" />
<path d="M11.3600 10.5490
L11.3710 10.4620
" />
<path d="M11.3710 3.4880
L11.3600 3.4010
" />
<path d="M11.3710 10.4620
L11.3750 10.3750
" />
<path d="M11.3750 3.5750
L10.6240 3.9090
" />
<path d="M11.3750 3.5750
L11.3710 3.4880
" />
<path d="M11.3750 10.3750
L10.6240 10.0410
" />
<path d="M11.3750 10.3750
L11.3750 3.5750
" />
<path d="M12.8750 0.5750
L1.0750 0.5750
" />
<path d="M12.8750 13.3750
L12.9350 13.3710
" />
<path d="M12.9350 0.5790
L12.8750 0.5750
" />
<path d="M12.9350 13.3710
L12.9950 13.3600
" />
<path d="M12.9950 0.5900
L12.9350 0.5790
" />
<path d="M12.9950 13.3600
L13.0520 13.3430
" />
<path d="M13.0520 0.6070
L12.9950 0.5900
" />
<path d="M13.0520 13.3430
L13.1070 13.3180
" />
<path d="M13.1070 0.6320
L13.0520 0.6070
" />
<path d="M13.1070 13.3180
L13.1590 13.2860
" />
<path d="M13.1590 0.6640
L13.1070 0.6320
" />
<path d="M13.1590 13.2860
L13.2070 13.2490
" />
<path d="M13.2070 0.7010
L13.1590 0.6640
" />
<path d="M13.2070 13.2490
L13.2490 13.2070
" />
<path d="M13.2490 0.7430
L13.2070 0.7010
" />
<path d="M13.2490 13.2070
L13.2860 13.1590
" />
<path d="M13.2860 0.7910
L13.2490 0.7430
" />
<path d="M13.2860 13.1590
L13.3180 13.1070
" />
<path d="M13.3180 0.8430
L13.2860 0.7910
" />
<path d="M13.3180 13.1070
L13.3430 13.0520
" />
<path d="M13.3430 0.8980
L13.3180 0.8430
" />
<path d="M13.3430 13.0520
L13.3600 12.9950
" />
<path d="M13.3600 0.9550
L13.3430 0.8980
" />
<path d="M13.3600 12.9950
L13.3710 12.9350
" />
<path d="M13.3710 1.0150
L13.3600 0.9550
" />
<path d="M13.3710 12.9350
L13.3750 12.8750
" />
<path d="M13.3750 1.0750
L13.3710 1.0150
" />
<path d="M13.3750 12.8750
L13.3750 1.0750
" />
<path d="M13.5250 0.4250
L0.4250 0.4250
" />
<path d="M13.5250 13.5250
L13.5250 0.4250
" />
</g> 
</svg>
