<?xml version="1.0" standalone="no"?>
 <!DOCTYPE svg PUBLIC "-//W3C//DTD SVG 1.1//EN" 
 "http://www.w3.org/Graphics/SVG/1.1/DTD/svg11.dtd"> 
<svg
  xmlns:svg="http://www.w3.org/2000/svg"
  xmlns="http://www.w3.org/2000/svg"
  xmlns:xlink="http://www.w3.org/1999/xlink"
  version="1.1"
  width="10.7442mm" height="6.0452mm" viewBox="0.0000 0.0000 10.7442 6.0452">
<title>SVG Image created as outline.svg date 2025/04/04 10:06:16 </title>
  <desc>Image generated by PCBNEW </desc>
<g style="fill:#000000; fill-opacity:1.0000;stroke:#000000; stroke-opacity:1.0000;
stroke-linecap:round; stroke-linejoin:round;"
 transform="translate(0 0) scale(1 1)">
</g>
<g style="fill:none; 
stroke:#000000; stroke-width:0.0200; stroke-opacity:1; 
stroke-linecap:round; stroke-linejoin:round;">
<path d="M0.8750 2.0050
L0.8750 1.5050
" />
<path d="M0.8750 4.0450
L0.8750 4.5450
" />
<path d="M1.6250 0.7750
L1.6260 0.7500
" />
<path d="M1.6250 1.5050
L0.8750 1.5050
" />
<path d="M1.6250 2.0050
L0.8750 2.0050
" />
<path d="M1.6250 4.0450
L0.8750 4.0450
" />
<path d="M1.6250 4.5450
L0.8750 4.5450
" />
<path d="M1.6250 5.2750
L1.6250 0.7750
" />
<path d="M1.6260 0.7500
L1.6270 0.7260
" />
<path d="M1.6260 5.3000
L1.6250 5.2750
" />
<path d="M1.6270 0.7260
L1.6300 0.7010
" />
<path d="M1.6270 5.3240
L1.6260 5.3000
" />
<path d="M1.6300 0.7010
L1.6350 0.6770
" />
<path d="M1.6300 5.3490
L1.6270 5.3240
" />
<path d="M1.6350 0.6770
L1.6400 0.6530
" />
<path d="M1.6350 5.3730
L1.6300 5.3490
" />
<path d="M1.6400 0.6530
L1.6470 0.6300
" />
<path d="M1.6400 5.3970
L1.6350 5.3730
" />
<path d="M1.6470 0.6300
L1.6540 0.6060
" />
<path d="M1.6470 5.4200
L1.6400 5.3970
" />
<path d="M1.6540 0.6060
L1.6630 0.5840
" />
<path d="M1.6540 5.4440
L1.6470 5.4200
" />
<path d="M1.6630 0.5840
L1.6730 0.5610
" />
<path d="M1.6630 5.4660
L1.6540 5.4440
" />
<path d="M1.6730 0.5610
L1.6840 0.5400
" />
<path d="M1.6730 5.4890
L1.6630 5.4660
" />
<path d="M1.6840 0.5400
L1.6960 0.5180
" />
<path d="M1.6840 5.5100
L1.6730 5.4890
" />
<path d="M1.6960 0.5180
L1.7090 0.4980
" />
<path d="M1.6960 5.5320
L1.6840 5.5100
" />
<path d="M1.7090 0.4980
L1.7230 0.4780
" />
<path d="M1.7090 5.5520
L1.6960 5.5320
" />
<path d="M1.7230 0.4780
L1.7380 0.4580
" />
<path d="M1.7230 5.5720
L1.7090 5.5520
" />
<path d="M1.7380 0.4580
L1.7540 0.4390
" />
<path d="M1.7380 5.5920
L1.7230 5.5720
" />
<path d="M1.7540 0.4390
L1.7710 0.4210
" />
<path d="M1.7540 5.6110
L1.7380 5.5920
" />
</g>
<g style="fill:#000000; fill-opacity:1.0000; stroke:none;">
<circle cx="1.7710" cy="0.4210" r="0.0100" /> 
</g>
<g style="fill:none; 
stroke:#000000; stroke-width:0.0200; stroke-opacity:1; 
stroke-linecap:round; stroke-linejoin:round;">
<path d="M1.7710 0.4210
L1.7890 0.4040
" />
<path d="M1.7710 5.6290
L1.7540 5.6110
" />
</g>
<g style="fill:#000000; fill-opacity:1.0000; stroke:none;">
<circle cx="1.7710" cy="5.6290" r="0.0100" /> 
</g>
<g style="fill:none; 
stroke:#000000; stroke-width:0.0200; stroke-opacity:1; 
stroke-linecap:round; stroke-linejoin:round;">
<path d="M1.7890 0.4040
L1.8080 0.3880
" />
<path d="M1.7890 5.6460
L1.7710 5.6290
" />
<path d="M1.8080 0.3880
L1.8280 0.3730
" />
<path d="M1.8080 5.6620
L1.7890 5.6460
" />
<path d="M1.8280 0.3730
L1.8480 0.3590
" />
<path d="M1.8280 5.6770
L1.8080 5.6620
" />
<path d="M1.8480 0.3590
L1.8680 0.3460
" />
<path d="M1.8480 5.6910
L1.8280 5.6770
" />
<path d="M1.8680 0.3460
L1.8900 0.3340
" />
<path d="M1.8680 5.7040
L1.8480 5.6910
" />
<path d="M1.8900 0.3340
L1.9110 0.3230
" />
<path d="M1.8900 5.7160
L1.8680 5.7040
" />
<path d="M1.9110 0.3230
L1.9340 0.3130
" />
<path d="M1.9110 5.7270
L1.8900 5.7160
" />
<path d="M1.9340 0.3130
L1.9560 0.3040
" />
<path d="M1.9340 5.7370
L1.9110 5.7270
" />
<path d="M1.9560 0.3040
L1.9800 0.2970
" />
<path d="M1.9560 5.7460
L1.9340 5.7370
" />
<path d="M1.9800 0.2970
L2.0030 0.2900
" />
<path d="M1.9800 5.7530
L1.9560 5.7460
" />
<path d="M2.0030 0.2900
L2.0270 0.2850
" />
<path d="M2.0030 5.7600
L1.9800 5.7530
" />
<path d="M2.0270 0.2850
L2.0510 0.2800
" />
<path d="M2.0270 5.7650
L2.0030 5.7600
" />
<path d="M2.0510 0.2800
L2.0760 0.2770
" />
<path d="M2.0510 5.7700
L2.0270 5.7650
" />
<path d="M2.0760 0.2770
L2.1000 0.2760
" />
<path d="M2.0760 5.7730
L2.0510 5.7700
" />
<path d="M2.1000 0.2760
L2.1250 0.2750
" />
<path d="M2.1000 5.7740
L2.0760 5.7730
" />
<path d="M2.1250 0.2750
L8.6250 0.2750
" />
<path d="M2.1250 5.7750
L2.1000 5.7740
" />
</g>
<g style="fill:#000000; fill-opacity:1.0000; stroke:none;">
<circle cx="2.2750" cy="1.2750" r="0.0100" /> 
<circle cx="2.2750" cy="1.2750" r="0.0100" /> 
</g>
<g style="fill:none; 
stroke:#000000; stroke-width:0.0200; stroke-opacity:1; 
stroke-linecap:round; stroke-linejoin:round;">
<path d="M2.2750 1.2750
L2.2760 1.2930
" />
<path d="M2.2750 1.2750
L2.2760 1.2930
" />
<path d="M2.2760 1.2570
L2.2750 1.2750
" />
<path d="M2.2760 1.2570
L2.2750 1.2750
" />
<path d="M2.2760 1.2930
L2.2770 1.3110
" />
<path d="M2.2760 1.2930
L2.2770 1.3110
" />
<path d="M2.2770 1.2390
L2.2760 1.2570
" />
<path d="M2.2770 1.2390
L2.2760 1.2570
" />
<path d="M2.2770 1.3110
L2.2790 1.3280
" />
<path d="M2.2770 1.3110
L2.2790 1.3280
" />
<path d="M2.2790 1.2220
L2.2770 1.2390
" />
<path d="M2.2790 1.2220
L2.2770 1.2390
" />
<path d="M2.2790 1.3280
L2.2820 1.3460
" />
<path d="M2.2790 1.3280
L2.2820 1.3460
" />
<path d="M2.2820 1.2040
L2.2790 1.2220
" />
<path d="M2.2820 1.2040
L2.2790 1.2220
" />
<path d="M2.2820 1.3460
L2.2860 1.3620
" />
<path d="M2.2820 1.3460
L2.2860 1.3620
" />
<path d="M2.2860 1.1880
L2.2820 1.2040
" />
<path d="M2.2860 1.1880
L2.2820 1.2040
" />
<path d="M2.2860 1.3620
L2.2910 1.3790
" />
<path d="M2.2860 1.3620
L2.2910 1.3790
" />
<path d="M2.2910 1.1710
L2.2860 1.1880
" />
<path d="M2.2910 1.1710
L2.2860 1.1880
" />
<path d="M2.2910 1.3790
L2.2960 1.3950
" />
<path d="M2.2910 1.3790
L2.2960 1.3950
" />
<path d="M2.2960 1.1550
L2.2910 1.1710
" />
<path d="M2.2960 1.1550
L2.2910 1.1710
" />
<path d="M2.2960 1.3950
L2.3030 1.4110
" />
<path d="M2.2960 1.3950
L2.3030 1.4110
" />
<path d="M2.3030 1.1390
L2.2960 1.1550
" />
<path d="M2.3030 1.1390
L2.2960 1.1550
" />
<path d="M2.3030 1.4110
L2.3100 1.4270
" />
<path d="M2.3030 1.4110
L2.3100 1.4270
" />
<path d="M2.3100 1.1230
L2.3030 1.1390
" />
<path d="M2.3100 1.1230
L2.3030 1.1390
" />
<path d="M2.3100 1.4270
L2.3170 1.4420
" />
<path d="M2.3100 1.4270
L2.3170 1.4420
" />
<path d="M2.3170 1.1080
L2.3100 1.1230
" />
<path d="M2.3170 1.1080
L2.3100 1.1230
" />
<path d="M2.3170 1.4420
L2.3260 1.4560
" />
<path d="M2.3170 1.4420
L2.3260 1.4560
" />
<path d="M2.3260 1.0940
L2.3170 1.1080
" />
<path d="M2.3260 1.0940
L2.3170 1.1080
" />
<path d="M2.3260 1.4560
L2.3350 1.4710
" />
<path d="M2.3260 1.4560
L2.3350 1.4710
" />
<path d="M2.3350 1.0790
L2.3260 1.0940
" />
<path d="M2.3350 1.0790
L2.3260 1.0940
" />
<path d="M2.3350 1.4710
L2.3450 1.4840
" />
<path d="M2.3350 1.4710
L2.3450 1.4840
" />
<path d="M2.3450 1.0660
L2.3350 1.0790
" />
<path d="M2.3450 1.0660
L2.3350 1.0790
" />
<path d="M2.3450 1.4840
L2.3550 1.4980
" />
<path d="M2.3450 1.4840
L2.3550 1.4980
" />
<path d="M2.3550 1.0520
L2.3450 1.0660
" />
<path d="M2.3550 1.0520
L2.3450 1.0660
" />
<path d="M2.3550 1.4980
L2.3660 1.5100
" />
<path d="M2.3550 1.4980
L2.3660 1.5100
" />
<path d="M2.3660 1.0400
L2.3550 1.0520
" />
<path d="M2.3660 1.0400
L2.3550 1.0520
" />
<path d="M2.3660 1.5100
L2.3780 1.5220
" />
<path d="M2.3660 1.5100
L2.3780 1.5220
" />
<path d="M2.3780 1.0280
L2.3660 1.0400
" />
<path d="M2.3780 1.0280
L2.3660 1.0400
" />
<path d="M2.3780 1.5220
L2.3900 1.5340
" />
<path d="M2.3780 1.5220
L2.3900 1.5340
" />
<path d="M2.3900 1.0160
L2.3780 1.0280
" />
<path d="M2.3900 1.0160
L2.3780 1.0280
" />
<path d="M2.3900 1.5340
L2.4020 1.5450
" />
<path d="M2.3900 1.5340
L2.4020 1.5450
" />
<path d="M2.4020 1.0050
L2.3900 1.0160
" />
<path d="M2.4020 1.0050
L2.3900 1.0160
" />
<path d="M2.4020 1.5450
L2.4160 1.5550
" />
<path d="M2.4020 1.5450
L2.4160 1.5550
" />
<path d="M2.4160 0.9950
L2.4020 1.0050
" />
<path d="M2.4160 0.9950
L2.4020 1.0050
" />
<path d="M2.4160 1.5550
L2.4290 1.5650
" />
<path d="M2.4160 1.5550
L2.4290 1.5650
" />
<path d="M2.4290 0.9850
L2.4160 0.9950
" />
<path d="M2.4290 0.9850
L2.4160 0.9950
" />
<path d="M2.4290 1.5650
L2.4440 1.5740
" />
<path d="M2.4290 1.5650
L2.4440 1.5740
" />
<path d="M2.4440 0.9760
L2.4290 0.9850
" />
<path d="M2.4440 0.9760
L2.4290 0.9850
" />
<path d="M2.4440 1.5740
L2.4580 1.5830
" />
<path d="M2.4440 1.5740
L2.4580 1.5830
" />
<path d="M2.4580 0.9670
L2.4440 0.9760
" />
<path d="M2.4580 0.9670
L2.4440 0.9760
" />
<path d="M2.4580 1.5830
L2.4730 1.5900
" />
<path d="M2.4580 1.5830
L2.4730 1.5900
" />
<path d="M2.4730 0.9600
L2.4580 0.9670
" />
<path d="M2.4730 0.9600
L2.4580 0.9670
" />
<path d="M2.4730 1.5900
L2.4890 1.5970
" />
<path d="M2.4730 1.5900
L2.4890 1.5970
" />
<path d="M2.4890 0.9530
L2.4730 0.9600
" />
<path d="M2.4890 0.9530
L2.4730 0.9600
" />
<path d="M2.4890 1.5970
L2.5050 1.6040
" />
<path d="M2.4890 1.5970
L2.5050 1.6040
" />
<path d="M2.5050 0.9460
L2.4890 0.9530
" />
<path d="M2.5050 0.9460
L2.4890 0.9530
" />
<path d="M2.5050 1.6040
L2.5210 1.6090
" />
<path d="M2.5050 1.6040
L2.5210 1.6090
" />
<path d="M2.5210 0.9410
L2.5050 0.9460
" />
<path d="M2.5210 0.9410
L2.5050 0.9460
" />
<path d="M2.5210 1.6090
L2.5380 1.6140
" />
<path d="M2.5210 1.6090
L2.5380 1.6140
" />
<path d="M2.5380 0.9360
L2.5210 0.9410
" />
<path d="M2.5380 0.9360
L2.5210 0.9410
" />
<path d="M2.5380 1.6140
L2.5550 1.6180
" />
<path d="M2.5380 1.6140
L2.5550 1.6180
" />
<path d="M2.5540 0.9320
L2.5380 0.9360
" />
<path d="M2.5540 0.9320
L2.5380 0.9360
" />
<path d="M2.5550 1.6180
L2.5720 1.6210
" />
<path d="M2.5550 1.6180
L2.5720 1.6210
" />
<path d="M2.5720 0.9290
L2.5540 0.9320
" />
<path d="M2.5720 0.9290
L2.5540 0.9320
" />
<path d="M2.5720 1.6210
L2.5890 1.6230
" />
<path d="M2.5720 1.6210
L2.5890 1.6230
" />
<path d="M2.5890 0.9270
L2.5720 0.9290
" />
<path d="M2.5890 0.9270
L2.5720 0.9290
" />
<path d="M2.5890 1.6230
L2.6070 1.6250
" />
<path d="M2.5890 1.6230
L2.6070 1.6250
" />
<path d="M2.6070 0.9250
L2.5890 0.9270
" />
<path d="M2.6070 0.9250
L2.5890 0.9270
" />
<path d="M2.6070 1.6250
L2.6250 1.6250
" />
<path d="M2.6070 1.6250
L2.6250 1.6250
" />
<path d="M2.6250 0.9250
L2.6070 0.9250
" />
<path d="M2.6250 0.9250
L2.6070 0.9250
" />
<path d="M2.6250 1.6250
L2.6430 1.6250
" />
<path d="M2.6250 1.6250
L2.6430 1.6250
" />
<path d="M2.6430 0.9250
L2.6250 0.9250
" />
<path d="M2.6430 0.9250
L2.6250 0.9250
" />
<path d="M2.6430 1.6250
L2.6610 1.6230
" />
<path d="M2.6430 1.6250
L2.6610 1.6230
" />
<path d="M2.6610 0.9270
L2.6430 0.9250
" />
<path d="M2.6610 0.9270
L2.6430 0.9250
" />
<path d="M2.6610 1.6230
L2.6780 1.6210
" />
<path d="M2.6610 1.6230
L2.6780 1.6210
" />
<path d="M2.6780 0.9290
L2.6610 0.9270
" />
<path d="M2.6780 0.9290
L2.6610 0.9270
" />
<path d="M2.6780 1.6210
L2.6960 1.6180
" />
<path d="M2.6780 1.6210
L2.6960 1.6180
" />
<path d="M2.6950 0.9320
L2.6780 0.9290
" />
<path d="M2.6950 0.9320
L2.6780 0.9290
" />
<path d="M2.6960 1.6180
L2.7120 1.6140
" />
<path d="M2.6960 1.6180
L2.7120 1.6140
" />
<path d="M2.7120 0.9360
L2.6950 0.9320
" />
<path d="M2.7120 0.9360
L2.6950 0.9320
" />
<path d="M2.7120 1.6140
L2.7290 1.6090
" />
<path d="M2.7120 1.6140
L2.7290 1.6090
" />
<path d="M2.7290 0.9410
L2.7120 0.9360
" />
<path d="M2.7290 0.9410
L2.7120 0.9360
" />
<path d="M2.7290 1.6090
L2.7450 1.6040
" />
<path d="M2.7290 1.6090
L2.7450 1.6040
" />
<path d="M2.7450 0.9460
L2.7290 0.9410
" />
<path d="M2.7450 0.9460
L2.7290 0.9410
" />
<path d="M2.7450 1.6040
L2.7610 1.5970
" />
<path d="M2.7450 1.6040
L2.7610 1.5970
" />
<path d="M2.7610 0.9530
L2.7450 0.9460
" />
<path d="M2.7610 0.9530
L2.7450 0.9460
" />
<path d="M2.7610 1.5970
L2.7770 1.5900
" />
<path d="M2.7610 1.5970
L2.7770 1.5900
" />
<path d="M2.7770 0.9600
L2.7610 0.9530
" />
<path d="M2.7770 0.9600
L2.7610 0.9530
" />
<path d="M2.7770 1.5900
L2.7920 1.5830
" />
<path d="M2.7770 1.5900
L2.7920 1.5830
" />
<path d="M2.7920 0.9670
L2.7770 0.9600
" />
<path d="M2.7920 0.9670
L2.7770 0.9600
" />
<path d="M2.7920 1.5830
L2.8060 1.5740
" />
<path d="M2.7920 1.5830
L2.8060 1.5740
" />
<path d="M2.8060 0.9760
L2.7920 0.9670
" />
<path d="M2.8060 0.9760
L2.7920 0.9670
" />
<path d="M2.8060 1.5740
L2.8210 1.5650
" />
<path d="M2.8060 1.5740
L2.8210 1.5650
" />
<path d="M2.8210 0.9850
L2.8060 0.9760
" />
<path d="M2.8210 0.9850
L2.8060 0.9760
" />
<path d="M2.8210 1.5650
L2.8340 1.5550
" />
<path d="M2.8210 1.5650
L2.8340 1.5550
" />
<path d="M2.8340 0.9950
L2.8210 0.9850
" />
<path d="M2.8340 0.9950
L2.8210 0.9850
" />
<path d="M2.8340 1.5550
L2.8480 1.5450
" />
<path d="M2.8340 1.5550
L2.8480 1.5450
" />
<path d="M2.8480 1.0050
L2.8340 0.9950
" />
<path d="M2.8480 1.0050
L2.8340 0.9950
" />
<path d="M2.8480 1.5450
L2.8600 1.5340
" />
<path d="M2.8480 1.5450
L2.8600 1.5340
" />
<path d="M2.8600 1.0160
L2.8480 1.0050
" />
<path d="M2.8600 1.0160
L2.8480 1.0050
" />
<path d="M2.8600 1.5340
L2.8720 1.5220
" />
<path d="M2.8600 1.5340
L2.8720 1.5220
" />
<path d="M2.8720 1.0280
L2.8600 1.0160
" />
<path d="M2.8720 1.0280
L2.8600 1.0160
" />
<path d="M2.8720 1.5220
L2.8840 1.5100
" />
<path d="M2.8720 1.5220
L2.8840 1.5100
" />
<path d="M2.8840 1.0400
L2.8720 1.0280
" />
<path d="M2.8840 1.0400
L2.8720 1.0280
" />
<path d="M2.8840 1.5100
L2.8950 1.4980
" />
<path d="M2.8840 1.5100
L2.8950 1.4980
" />
<path d="M2.8950 1.0520
L2.8840 1.0400
" />
<path d="M2.8950 1.0520
L2.8840 1.0400
" />
<path d="M2.8950 1.4980
L2.9050 1.4840
" />
<path d="M2.8950 1.4980
L2.9050 1.4840
" />
<path d="M2.9050 1.0660
L2.8950 1.0520
" />
<path d="M2.9050 1.0660
L2.8950 1.0520
" />
<path d="M2.9050 1.4840
L2.9150 1.4710
" />
<path d="M2.9050 1.4840
L2.9150 1.4710
" />
<path d="M2.9150 1.0790
L2.9050 1.0660
" />
<path d="M2.9150 1.0790
L2.9050 1.0660
" />
<path d="M2.9150 1.4710
L2.9240 1.4560
" />
<path d="M2.9150 1.4710
L2.9240 1.4560
" />
<path d="M2.9240 1.0940
L2.9150 1.0790
" />
<path d="M2.9240 1.0940
L2.9150 1.0790
" />
<path d="M2.9240 1.4560
L2.9330 1.4420
" />
<path d="M2.9240 1.4560
L2.9330 1.4420
" />
<path d="M2.9330 1.1080
L2.9240 1.0940
" />
<path d="M2.9330 1.1080
L2.9240 1.0940
" />
<path d="M2.9330 1.4420
L2.9400 1.4270
" />
<path d="M2.9330 1.4420
L2.9400 1.4270
" />
<path d="M2.9400 1.1230
L2.9330 1.1080
" />
<path d="M2.9400 1.1230
L2.9330 1.1080
" />
<path d="M2.9400 1.4270
L2.9470 1.4110
" />
<path d="M2.9400 1.4270
L2.9470 1.4110
" />
<path d="M2.9470 1.1390
L2.9400 1.1230
" />
<path d="M2.9470 1.1390
L2.9400 1.1230
" />
<path d="M2.9470 1.4110
L2.9540 1.3950
" />
<path d="M2.9470 1.4110
L2.9540 1.3950
" />
<path d="M2.9540 1.1550
L2.9470 1.1390
" />
<path d="M2.9540 1.1550
L2.9470 1.1390
" />
<path d="M2.9540 1.3950
L2.9590 1.3790
" />
<path d="M2.9540 1.3950
L2.9590 1.3790
" />
<path d="M2.9590 1.1710
L2.9540 1.1550
" />
<path d="M2.9590 1.1710
L2.9540 1.1550
" />
<path d="M2.9590 1.3790
L2.9640 1.3620
" />
<path d="M2.9590 1.3790
L2.9640 1.3620
" />
<path d="M2.9640 1.1880
L2.9590 1.1710
" />
<path d="M2.9640 1.1880
L2.9590 1.1710
" />
<path d="M2.9640 1.3620
L2.9680 1.3460
" />
<path d="M2.9640 1.3620
L2.9680 1.3460
" />
<path d="M2.9680 1.2040
L2.9640 1.1880
" />
<path d="M2.9680 1.2040
L2.9640 1.1880
" />
<path d="M2.9680 1.3460
L2.9710 1.3280
" />
<path d="M2.9680 1.3460
L2.9710 1.3280
" />
<path d="M2.9710 1.2220
L2.9680 1.2040
" />
<path d="M2.9710 1.2220
L2.9680 1.2040
" />
<path d="M2.9710 1.3280
L2.9730 1.3110
" />
<path d="M2.9710 1.3280
L2.9730 1.3110
" />
<path d="M2.9730 1.2390
L2.9710 1.2220
" />
<path d="M2.9730 1.2390
L2.9710 1.2220
" />
<path d="M2.9730 1.3110
L2.9740 1.2930
" />
<path d="M2.9730 1.3110
L2.9740 1.2930
" />
<path d="M2.9740 1.2570
L2.9730 1.2390
" />
<path d="M2.9740 1.2570
L2.9730 1.2390
" />
<path d="M2.9740 1.2930
L2.9750 1.2750
" />
<path d="M2.9740 1.2930
L2.9750 1.2750
" />
<path d="M2.9750 1.2750
L2.9740 1.2570
" />
<path d="M2.9750 1.2750
L2.9740 1.2570
" />
</g>
<g style="fill:#000000; fill-opacity:1.0000; stroke:none;">
<circle cx="2.9750" cy="1.2750" r="0.0100" /> 
<circle cx="2.9750" cy="1.2750" r="0.0100" /> 
</g>
<g style="fill:none; 
stroke:#000000; stroke-width:0.0200; stroke-opacity:1; 
stroke-linecap:round; stroke-linejoin:round;">
<path d="M8.6250 0.2750
L8.6500 0.2760
" />
<path d="M8.6250 5.7750
L2.1250 5.7750
" />
<path d="M8.6500 0.2760
L8.6740 0.2770
" />
<path d="M8.6500 5.7740
L8.6250 5.7750
" />
<path d="M8.6740 0.2770
L8.6990 0.2800
" />
<path d="M8.6740 5.7730
L8.6500 5.7740
" />
<path d="M8.6990 0.2800
L8.7230 0.2850
" />
<path d="M8.6990 5.7700
L8.6740 5.7730
" />
<path d="M8.7230 0.2850
L8.7470 0.2900
" />
<path d="M8.7230 5.7650
L8.6990 5.7700
" />
<path d="M8.7470 0.2900
L8.7700 0.2970
" />
<path d="M8.7470 5.7600
L8.7230 5.7650
" />
<path d="M8.7700 0.2970
L8.7940 0.3040
" />
<path d="M8.7700 5.7530
L8.7470 5.7600
" />
<path d="M8.7940 0.3040
L8.8160 0.3130
" />
<path d="M8.7940 5.7460
L8.7700 5.7530
" />
<path d="M8.8160 0.3130
L8.8390 0.3230
" />
<path d="M8.8160 5.7370
L8.7940 5.7460
" />
<path d="M8.8390 0.3230
L8.8600 0.3340
" />
<path d="M8.8390 5.7270
L8.8160 5.7370
" />
<path d="M8.8600 0.3340
L8.8820 0.3460
" />
<path d="M8.8600 5.7160
L8.8390 5.7270
" />
<path d="M8.8820 0.3460
L8.9020 0.3590
" />
<path d="M8.8820 5.7040
L8.8600 5.7160
" />
<path d="M8.9020 0.3590
L8.9220 0.3730
" />
<path d="M8.9020 5.6910
L8.8820 5.7040
" />
<path d="M8.9220 0.3730
L8.9420 0.3880
" />
<path d="M8.9220 5.6770
L8.9020 5.6910
" />
<path d="M8.9420 0.3880
L8.9610 0.4040
" />
<path d="M8.9420 5.6620
L8.9220 5.6770
" />
<path d="M8.9610 0.4040
L8.9790 0.4210
" />
<path d="M8.9610 5.6460
L8.9420 5.6620
" />
</g>
<g style="fill:#000000; fill-opacity:1.0000; stroke:none;">
<circle cx="8.9790" cy="0.4210" r="0.0100" /> 
</g>
<g style="fill:none; 
stroke:#000000; stroke-width:0.0200; stroke-opacity:1; 
stroke-linecap:round; stroke-linejoin:round;">
<path d="M8.9790 0.4210
L8.9960 0.4390
" />
<path d="M8.9790 5.6290
L8.9610 5.6460
" />
</g>
<g style="fill:#000000; fill-opacity:1.0000; stroke:none;">
<circle cx="8.9790" cy="5.6290" r="0.0100" /> 
</g>
<g style="fill:none; 
stroke:#000000; stroke-width:0.0200; stroke-opacity:1; 
stroke-linecap:round; stroke-linejoin:round;">
<path d="M8.9960 0.4390
L9.0120 0.4580
" />
<path d="M8.9960 5.6110
L8.9790 5.6290
" />
<path d="M9.0120 0.4580
L9.0270 0.4780
" />
<path d="M9.0120 5.5920
L8.9960 5.6110
" />
<path d="M9.0270 0.4780
L9.0410 0.4980
" />
<path d="M9.0270 5.5720
L9.0120 5.5920
" />
<path d="M9.0410 0.4980
L9.0540 0.5180
" />
<path d="M9.0410 5.5520
L9.0270 5.5720
" />
<path d="M9.0540 0.5180
L9.0660 0.5400
" />
<path d="M9.0540 5.5320
L9.0410 5.5520
" />
<path d="M9.0660 0.5400
L9.0770 0.5610
" />
<path d="M9.0660 5.5100
L9.0540 5.5320
" />
<path d="M9.0770 0.5610
L9.0870 0.5840
" />
<path d="M9.0770 5.4890
L9.0660 5.5100
" />
<path d="M9.0870 0.5840
L9.0960 0.6060
" />
<path d="M9.0870 5.4660
L9.0770 5.4890
" />
<path d="M9.0960 0.6060
L9.1030 0.6300
" />
<path d="M9.0960 5.4440
L9.0870 5.4660
" />
<path d="M9.1030 0.6300
L9.1100 0.6530
" />
<path d="M9.1030 5.4200
L9.0960 5.4440
" />
<path d="M9.1100 0.6530
L9.1150 0.6770
" />
<path d="M9.1100 5.3970
L9.1030 5.4200
" />
<path d="M9.1150 0.6770
L9.1200 0.7010
" />
<path d="M9.1150 5.3730
L9.1100 5.3970
" />
<path d="M9.1200 0.7010
L9.1230 0.7260
" />
<path d="M9.1200 5.3490
L9.1150 5.3730
" />
<path d="M9.1230 0.7260
L9.1240 0.7500
" />
<path d="M9.1230 5.3240
L9.1200 5.3490
" />
<path d="M9.1240 0.7500
L9.1250 0.7750
" />
<path d="M9.1240 5.3000
L9.1230 5.3240
" />
<path d="M9.1250 0.7750
L9.1250 5.2750
" />
<path d="M9.1250 5.2750
L9.1240 5.3000
" />
<path d="M9.8750 1.5050
L9.1250 1.5050
" />
<path d="M9.8750 2.0050
L9.1250 2.0050
" />
<path d="M9.8750 2.0050
L9.8750 1.5050
" />
<path d="M9.8750 4.0450
L9.1250 4.0450
" />
<path d="M9.8750 4.0450
L9.8750 4.5450
" />
<path d="M9.8750 4.5450
L9.1250 4.5450
" />
</g> 
</svg>
