<?xml version="1.0" standalone="no"?>
 <!DOCTYPE svg PUBLIC "-//W3C//DTD SVG 1.1//EN" 
 "http://www.w3.org/Graphics/SVG/1.1/DTD/svg11.dtd"> 
<svg
  xmlns:svg="http://www.w3.org/2000/svg"
  xmlns="http://www.w3.org/2000/svg"
  xmlns:xlink="http://www.w3.org/1999/xlink"
  version="1.1"
  width="21.0312mm" height="24.6380mm" viewBox="0.0000 0.0000 21.0312 24.6380">
<title>SVG Image created as outline.svg date 2025/04/04 10:06:08 </title>
  <desc>Image generated by PCBNEW </desc>
<g style="fill:#000000; fill-opacity:1.0000;stroke:#000000; stroke-opacity:1.0000;
stroke-linecap:round; stroke-linejoin:round;"
 transform="translate(0 0) scale(1 1)">
</g>
<g style="fill:none; 
stroke:#000000; stroke-width:0.0200; stroke-opacity:1; 
stroke-linecap:round; stroke-linejoin:round;">
<path d="M0.3130 4.7240
L0.3130 4.8240
" />
<path d="M0.3130 4.8240
L0.3140 4.9250
" />
<path d="M0.3140 4.9250
L0.3180 5.0260
" />
<path d="M0.3160 4.6230
L0.3130 4.7240
" />
<path d="M0.3180 5.0260
L0.3230 5.1260
" />
<path d="M0.3210 4.5220
L0.3160 4.6230
" />
<path d="M0.3230 5.1260
L0.3310 5.2260
" />
<path d="M0.3280 4.4210
L0.3210 4.5220
" />
<path d="M0.3310 5.2260
L0.3400 5.3260
" />
<path d="M0.3370 4.3200
L0.3280 4.4210
" />
<path d="M0.3400 5.3260
L0.3520 5.4250
" />
<path d="M0.3480 4.2200
L0.3370 4.3200
" />
<path d="M0.3520 5.4250
L0.3650 5.5240
" />
<path d="M0.3610 4.1190
L0.3480 4.2200
" />
<path d="M0.3650 5.5240
L0.3810 5.6220
" />
<path d="M0.3760 4.0190
L0.3610 4.1190
" />
<path d="M0.3810 5.6220
L0.3980 5.7200
" />
<path d="M0.3930 3.9200
L0.3760 4.0190
" />
<path d="M0.3980 5.7200
L0.4390 5.9140
" />
<path d="M0.4120 3.8210
L0.3930 3.9200
" />
<path d="M0.4330 3.7220
L0.4120 3.8210
" />
<path d="M0.4390 5.9140
L0.4870 6.1040
" />
<path d="M0.4400 4.7260
L0.4430 4.6270
" />
<path d="M0.4400 4.8240
L0.4400 4.7260
" />
<path d="M0.4410 4.9220
L0.4400 4.8240
" />
<path d="M0.4430 4.6270
L0.4480 4.5290
" />
<path d="M0.4440 5.0200
L0.4410 4.9220
" />
<path d="M0.4480 4.5290
L0.4540 4.4310
" />
<path d="M0.4500 5.1180
L0.4440 5.0200
" />
<path d="M0.4540 4.4310
L0.4630 4.3330
" />
<path d="M0.4560 3.6240
L0.4330 3.7220
" />
<path d="M0.4630 4.3330
L0.4740 4.2350
" />
<path d="M0.4660 5.3130
L0.4500 5.1180
" />
<path d="M0.4740 4.2350
L0.4860 4.1370
" />
<path d="M0.4810 3.5270
L0.4560 3.6240
" />
<path d="M0.4860 4.1370
L0.5010 4.0400
" />
<path d="M0.4870 6.1040
L0.5420 6.2910
" />
<path d="M0.4910 5.5060
L0.4660 5.3130
" />
<path d="M0.5010 4.0400
L0.5180 3.9430
" />
<path d="M0.5080 3.4300
L0.4810 3.5270
" />
<path d="M0.5180 3.9430
L0.5360 3.8460
" />
<path d="M0.5230 5.6970
L0.4910 5.5060
" />
<path d="M0.5360 3.8460
L0.5570 3.7500
" />
<path d="M0.5370 3.3340
L0.5080 3.4300
" />
<path d="M0.5420 6.2910
L0.6040 6.4740
" />
<path d="M0.5570 3.7500
L0.5800 3.6550
" />
<path d="M0.5630 5.8850
L0.5230 5.6970
" />
<path d="M0.5680 3.2390
L0.5370 3.3340
" />
<path d="M0.5800 3.6550
L0.6040 3.5600
" />
<path d="M0.6010 3.1450
L0.5680 3.2390
" />
<path d="M0.6040 3.5600
L0.6590 3.3720
" />
<path d="M0.6040 6.4740
L0.6720 6.6530
" />
<path d="M0.6090 6.0700
L0.5630 5.8850
" />
<path d="M0.6350 3.0520
L0.6010 3.1450
" />
<path d="M0.6590 3.3720
L0.7200 3.1880
" />
<path d="M0.6630 6.2520
L0.6090 6.0700
" />
<path d="M0.6720 2.9590
L0.6350 3.0520
" />
<path d="M0.6720 6.6530
L0.7460 6.8270
" />
<path d="M0.7200 3.1880
L0.7890 3.0070
" />
<path d="M0.7230 6.4310
L0.6630 6.2520
" />
<path d="M0.7460 6.8270
L0.8270 6.9970
" />
<path d="M0.7490 2.7780
L0.6720 2.9590
" />
<path d="M0.7890 3.0070
L0.8650 2.8300
" />
<path d="M0.7900 6.6050
L0.7230 6.4310
" />
<path d="M0.8270 6.9970
L0.9130 7.1620
" />
<path d="M0.8340 2.6000
L0.7490 2.7780
" />
<path d="M0.8620 6.7750
L0.7900 6.6050
" />
<path d="M0.8650 2.8300
L0.9470 2.6570
" />
<path d="M0.9130 7.1620
L1.0030 7.3220
" />
<path d="M0.9240 2.4280
L0.8340 2.6000
" />
<path d="M0.9410 6.9410
L0.8620 6.7750
" />
<path d="M0.9470 2.6570
L1.0350 2.4890
" />
<path d="M1.0030 7.3220
L1.0200 7.3510
" />
<path d="M1.0200 7.3510
L1.0340 7.3820
" />
<path d="M1.0210 2.2600
L0.9240 2.4280
" />
<path d="M1.0240 7.1010
L0.9410 6.9410
" />
<path d="M1.0340 7.3820
L1.0460 7.4140
" />
<path d="M1.0350 2.4890
L1.1300 2.3260
" />
<path d="M1.0460 7.4140
L1.0560 7.4470
" />
<path d="M1.0560 7.4470
L1.0640 7.4800
" />
<path d="M1.0640 7.4800
L1.0700 7.5130
" />
<path d="M1.0700 7.5130
L1.0730 7.5470
" />
<path d="M1.0730 7.5470
L1.0750 7.5810
" />
<path d="M1.0750 7.5810
L1.0750 8.0620
" />
<path d="M1.0750 8.0620
L1.0750 8.1180
" />
<path d="M1.0750 8.0620
L1.2020 8.0620
" />
<path d="M1.0750 8.1180
L1.0750 8.1740
" />
<path d="M1.0750 8.1740
L1.0750 8.2280
" />
<path d="M1.0750 8.2280
L1.0750 8.2790
" />
<path d="M1.0750 8.2790
L1.0750 8.3280
" />
<path d="M1.0750 8.3280
L1.0750 8.3740
" />
<path d="M1.0750 8.3740
L1.0750 8.4160
" />
<path d="M1.0750 8.4160
L1.0750 8.4530
" />
<path d="M1.0750 8.4530
L1.0750 8.4850
" />
<path d="M1.0750 8.4850
L1.0750 8.5120
" />
<path d="M1.0750 8.5120
L1.0750 8.5330
" />
<path d="M1.0750 8.5330
L1.0750 8.5490
" />
<path d="M1.0750 8.5490
L1.0750 8.5580
" />
<path d="M1.0750 8.5580
L1.0750 8.5610
" />
<path d="M1.0750 8.5610
L1.2020 8.5610
" />
<path d="M1.1130 7.2570
L1.0240 7.1010
" />
<path d="M1.1230 2.0980
L1.0210 2.2600
" />
<path d="M1.1300 2.3260
L1.2290 2.1680
" />
<path d="M1.1330 7.2940
L1.1130 7.2570
" />
<path d="M1.1510 7.3320
L1.1330 7.2940
" />
<path d="M1.1660 7.3720
L1.1510 7.3320
" />
<path d="M1.1790 7.4130
L1.1660 7.3720
" />
<path d="M1.1890 7.4540
L1.1790 7.4130
" />
<path d="M1.1960 7.4970
L1.1890 7.4540
" />
<path d="M1.2000 7.5390
L1.1960 7.4970
" />
<path d="M1.2020 7.5810
L1.2000 7.5390
" />
<path d="M1.2020 8.0620
L1.2020 7.5810
" />
<path d="M1.2020 8.1180
L1.2020 8.0620
" />
<path d="M1.2020 8.1740
L1.2020 8.1180
" />
<path d="M1.2020 8.2280
L1.2020 8.1740
" />
<path d="M1.2020 8.2790
L1.2020 8.2280
" />
<path d="M1.2020 8.3280
L1.2020 8.2790
" />
<path d="M1.2020 8.3740
L1.2020 8.3280
" />
<path d="M1.2020 8.4160
L1.2020 8.3740
" />
<path d="M1.2020 8.4530
L1.2020 8.4160
" />
<path d="M1.2020 8.4850
L1.2020 8.4530
" />
<path d="M1.2020 8.5120
L1.2020 8.4850
" />
<path d="M1.2020 8.5330
L1.2020 8.5120
" />
<path d="M1.2020 8.5490
L1.2020 8.5330
" />
<path d="M1.2020 8.5580
L1.2020 8.5490
" />
<path d="M1.2020 8.5610
L1.2020 8.5580
" />
<path d="M1.2290 2.1680
L1.3340 2.0160
" />
<path d="M1.2300 1.9420
L1.1230 2.0980
" />
<path d="M1.3340 2.0160
L1.4430 1.8690
" />
<path d="M1.3420 1.7910
L1.2300 1.9420
" />
<path d="M1.4430 1.8690
L1.5560 1.7280
" />
<path d="M1.4590 1.6460
L1.3420 1.7910
" />
<path d="M1.5560 1.7280
L1.6730 1.5930
" />
<path d="M1.5790 1.5080
L1.4590 1.6460
" />
<path d="M1.5830 13.1690
L1.5830 13.1770
" />
<path d="M1.5830 13.1690
L1.5860 13.1410
" />
<path d="M1.5830 13.1770
L1.5830 13.1690
" />
<path d="M1.5830 13.1770
L1.5830 13.2000
" />
<path d="M1.5830 13.2000
L1.5830 13.1770
" />
<path d="M1.5830 13.2000
L1.5830 13.2380
" />
<path d="M1.5830 13.2380
L1.5830 13.2000
" />
<path d="M1.5830 13.2380
L1.5830 13.2890
" />
<path d="M1.5830 13.2890
L1.5830 13.2380
" />
<path d="M1.5830 13.2890
L1.5830 13.3490
" />
<path d="M1.5830 13.3490
L1.5830 13.2890
" />
<path d="M1.5830 13.3490
L1.5830 13.4160
" />
<path d="M1.5830 13.4160
L1.5830 13.3490
" />
<path d="M1.5830 13.4160
L1.5830 13.4860
" />
<path d="M1.5830 13.4860
L1.5830 13.4160
" />
<path d="M1.5830 13.4860
L1.5830 13.5570
" />
<path d="M1.5830 13.5570
L1.5830 13.4860
" />
<path d="M1.5830 13.5570
L1.5830 13.6240
" />
<path d="M1.5830 13.6240
L1.5830 13.5570
" />
<path d="M1.5830 13.6240
L1.5830 13.6840
" />
<path d="M1.5830 13.6840
L1.5830 13.6240
" />
<path d="M1.5830 13.6840
L1.5830 13.7350
" />
<path d="M1.5830 13.7350
L1.5830 13.6840
" />
<path d="M1.5830 13.7350
L1.5830 13.7730
" />
<path d="M1.5830 13.7730
L1.5830 13.7350
" />
<path d="M1.5830 13.7730
L1.5830 13.7960
" />
<path d="M1.5830 13.7960
L1.5830 13.7730
" />
<path d="M1.5830 13.7960
L1.5830 13.8040
" />
<path d="M1.5830 13.8040
L1.5830 13.7960
" />
<path d="M1.5830 13.8040
L1.5860 13.8320
" />
<path d="M1.5830 13.8040
L1.5860 13.8320
" />
<path d="M1.5860 13.1410
L1.5950 13.1140
" />
<path d="M1.5860 13.8320
L1.5950 13.8590
" />
<path d="M1.5860 13.8320
L1.5950 13.8590
" />
<path d="M1.5950 13.1140
L1.6100 13.0900
" />
<path d="M1.5950 13.8590
L1.6100 13.8830
" />
<path d="M1.5950 13.8590
L1.6100 13.8830
" />
<path d="M1.6080 1.4720
L1.5790 1.5080
" />
<path d="M1.6100 13.0900
L1.6300 13.0700
" />
<path d="M1.6100 13.8830
L1.6300 13.9030
" />
<path d="M1.6100 13.8830
L1.6300 13.9030
" />
<path d="M1.6300 13.0700
L1.6540 13.0550
" />
<path d="M1.6300 13.9030
L1.6540 13.9180
" />
<path d="M1.6300 13.9030
L1.6540 13.9180
" />
<path d="M1.6340 1.4340
L1.6080 1.4720
" />
<path d="M1.6540 13.0550
L1.6810 13.0450
" />
<path d="M1.6540 13.9180
L1.6810 13.9280
" />
<path d="M1.6540 13.9180
L1.6810 13.9280
" />
<path d="M1.6570 1.3930
L1.6340 1.4340
" />
<path d="M1.6730 1.5930
L1.7100 1.5480
" />
<path d="M1.6760 1.3500
L1.6570 1.3930
" />
<path d="M1.6810 13.0450
L1.7100 13.0420
" />
<path d="M1.6810 13.9280
L1.7100 13.9310
" />
<path d="M1.6810 13.9280
L1.7100 13.9310
" />
<path d="M1.6910 1.3050
L1.6760 1.3500
" />
<path d="M1.7010 1.2590
L1.6910 1.3050
" />
<path d="M1.7080 1.2130
L1.7010 1.2590
" />
<path d="M1.7100 0.5320
L1.7130 0.4880
" />
<path d="M1.7100 1.1680
L1.7080 1.2130
" />
<path d="M1.7100 23.7100
L1.7100 0.5320
" />
<path d="M1.7100 23.7100
L1.7110 23.7290
" />
<path d="M1.7100 23.8870
L1.7100 23.1040
" />
<path d="M1.7100 24.0280
L1.7100 23.8870
" />
<path d="M1.7110 0.5320
L1.7100 0.5320
" />
<path d="M1.7110 23.7290
L1.7150 23.7440
" />
<path d="M1.7130 0.4880
L1.7250 0.4460
" />
<path d="M1.7130 24.0720
L1.7100 24.0280
" />
<path d="M1.7150 23.7440
L1.7220 23.7560
" />
<path d="M1.7160 0.5320
L1.7110 0.5320
" />
<path d="M1.7220 23.7560
L1.7340 23.7640
" />
<path d="M1.7240 0.5320
L1.7160 0.5320
" />
<path d="M1.7250 0.4460
L1.7440 0.4060
" />
<path d="M1.7250 24.1140
L1.7130 24.0720
" />
<path d="M1.7340 23.7640
L1.7510 23.7700
" />
<path d="M1.7350 0.5320
L1.7240 0.5320
" />
<path d="M1.7440 0.4060
L1.7690 0.3690
" />
<path d="M1.7440 24.1540
L1.7250 24.1140
" />
<path d="M1.7490 0.5320
L1.7350 0.5320
" />
<path d="M1.7510 23.7700
L1.7730 23.7740
" />
<path d="M1.7650 0.5320
L1.7490 0.5320
" />
<path d="M1.7690 0.3690
L1.8000 0.3380
" />
<path d="M1.7690 24.1910
L1.7440 24.1540
" />
<path d="M1.7730 23.7740
L1.8280 23.7760
" />
<path d="M1.7840 0.5320
L1.7650 0.5320
" />
<path d="M1.8000 0.3380
L1.8370 0.3130
" />
<path d="M1.8000 24.2220
L1.7690 24.1910
" />
<path d="M1.8050 0.5320
L1.7840 0.5320
" />
<path d="M1.8280 0.5320
L1.8050 0.5320
" />
<path d="M1.8280 23.7760
L1.8960 23.7760
" />
<path d="M1.8280 23.7760
L1.9640 23.7740
" />
<path d="M1.8370 0.3130
L1.8770 0.2940
" />
<path d="M1.8370 0.5320
L1.8400 0.5040
" />
<path d="M1.8370 0.5320
L1.8400 0.5040
" />
<path d="M1.8370 23.8870
L1.7100 23.8870
" />
<path d="M1.8370 23.8870
L1.8370 23.7760
" />
<path d="M1.8370 24.0280
L1.8370 23.8870
" />
<path d="M1.8370 24.2470
L1.8000 24.2220
" />
<path d="M1.8400 0.5040
L1.8490 0.4770
" />
<path d="M1.8400 0.5040
L1.8490 0.4770
" />
<path d="M1.8400 24.0560
L1.8370 24.0280
" />
<path d="M1.8490 0.4770
L1.8640 0.4530
" />
<path d="M1.8490 0.4770
L1.8640 0.4530
" />
<path d="M1.8490 24.0830
L1.8400 24.0560
" />
<path d="M1.8530 0.5320
L1.8280 0.5320
" />
<path d="M1.8640 0.4530
L1.8840 0.4330
" />
<path d="M1.8640 0.4530
L1.8840 0.4330
" />
<path d="M1.8640 24.1070
L1.8490 24.0830
" />
<path d="M1.8770 0.2940
L1.9190 0.2820
" />
<path d="M1.8770 24.2660
L1.8370 24.2470
" />
<path d="M1.8800 0.5320
L1.8530 0.5320
" />
<path d="M1.8840 0.4330
L1.9080 0.4180
" />
<path d="M1.8840 0.4330
L1.9080 0.4180
" />
<path d="M1.8840 24.1270
L1.8640 24.1070
" />
<path d="M1.8960 23.7760
L1.9640 23.7740
" />
<path d="M1.9070 0.5320
L1.8800 0.5320
" />
<path d="M1.9080 0.4180
L1.9350 0.4090
" />
<path d="M1.9080 0.4180
L1.9350 0.4090
" />
<path d="M1.9080 24.1420
L1.8840 24.1270
" />
<path d="M1.9190 0.2820
L1.9640 0.2790
" />
<path d="M1.9190 24.2780
L1.8770 24.2660
" />
<path d="M1.9350 0.4090
L1.9640 0.4060
" />
<path d="M1.9350 0.4090
L1.9640 0.4060
" />
<path d="M1.9350 0.5320
L1.9070 0.5320
" />
<path d="M1.9350 24.1510
L1.9080 24.1420
" />
<path d="M1.9640 0.2790
L2.0910 0.2790
" />
</g>
<g style="fill:#000000; fill-opacity:1.0000; stroke:none;">
<circle cx="1.9640" cy="0.4060" r="0.0100" /> 
</g>
<g style="fill:none; 
stroke:#000000; stroke-width:0.0200; stroke-opacity:1; 
stroke-linecap:round; stroke-linejoin:round;">
<path d="M1.9640 0.4060
L2.0910 0.4060
" />
<path d="M1.9640 0.4060
L2.0910 0.4060
" />
<path d="M1.9640 0.4090
L1.9640 0.4060
" />
<path d="M1.9640 0.4130
L1.9640 0.4090
" />
<path d="M1.9640 0.4180
L1.9640 0.4130
" />
<path d="M1.9640 0.4250
L1.9640 0.4180
" />
<path d="M1.9640 0.4330
L1.9640 0.4250
" />
<path d="M1.9640 0.4430
L1.9640 0.4330
" />
<path d="M1.9640 0.4530
L1.9640 0.4430
" />
<path d="M1.9640 0.4650
L1.9640 0.4530
" />
<path d="M1.9640 0.4770
L1.9640 0.4650
" />
<path d="M1.9640 0.4910
L1.9640 0.4770
" />
<path d="M1.9640 0.5040
L1.9640 0.4910
" />
<path d="M1.9640 0.5180
L1.9640 0.5040
" />
<path d="M1.9640 0.5320
L1.9350 0.5320
" />
<path d="M1.9640 0.5320
L1.9640 0.5180
" />
<path d="M1.9640 0.5320
L1.9640 23.7740
" />
<path d="M1.9640 0.5320
L2.0910 0.5320
" />
<path d="M1.9640 23.7740
L2.0270 23.7740
" />
<path d="M1.9640 24.1540
L1.9350 24.1510
" />
<path d="M1.9640 24.1540
L2.0270 24.1540
" />
<path d="M1.9640 24.2820
L1.9190 24.2780
" />
<path d="M1.9640 24.2820
L2.2180 24.2820
" />
<path d="M2.0270 23.7740
L2.0640 23.7770
" />
<path d="M2.0270 24.0280
L2.0270 23.7740
" />
<path d="M2.0270 24.0280
L2.0270 24.0420
" />
<path d="M2.0270 24.0280
L2.2180 24.0280
" />
<path d="M2.0270 24.0420
L2.0270 24.0560
" />
<path d="M2.0270 24.0560
L2.0270 24.0690
" />
<path d="M2.0270 24.0690
L2.0270 24.0830
" />
<path d="M2.0270 24.0830
L2.0270 24.0950
" />
<path d="M2.0270 24.0950
L2.0270 24.1070
" />
<path d="M2.0270 24.1070
L2.0270 24.1170
" />
<path d="M2.0270 24.1170
L2.0270 24.1270
" />
<path d="M2.0270 24.1270
L2.0270 24.1350
" />
<path d="M2.0270 24.1350
L2.0270 24.1420
" />
<path d="M2.0270 24.1420
L2.0270 24.1470
" />
<path d="M2.0270 24.1470
L2.0270 24.1510
" />
<path d="M2.0270 24.1510
L2.0270 24.1540
" />
</g>
<g style="fill:#000000; fill-opacity:1.0000; stroke:none;">
<circle cx="2.0270" cy="24.1540" r="0.0100" /> 
</g>
<g style="fill:none; 
stroke:#000000; stroke-width:0.0200; stroke-opacity:1; 
stroke-linecap:round; stroke-linejoin:round;">
<path d="M2.0640 23.7770
L2.1000 23.7880
" />
<path d="M2.0910 0.2790
L2.0910 0.2800
" />
<path d="M2.0910 0.2790
L8.0600 0.2790
" />
<path d="M2.0910 0.2800
L2.0910 0.2850
" />
<path d="M2.0910 0.2850
L2.0910 0.2930
" />
<path d="M2.0910 0.2930
L2.0910 0.3040
" />
<path d="M2.0910 0.3040
L2.0910 0.3170
" />
<path d="M2.0910 0.3170
L2.0910 0.3340
" />
<path d="M2.0910 0.3340
L2.0910 0.3530
" />
<path d="M2.0910 0.3530
L2.0910 0.3740
" />
<path d="M2.0910 0.3740
L2.0910 0.3970
" />
<path d="M2.0910 0.3970
L2.0910 0.4220
" />
<path d="M2.0910 0.4220
L2.0910 0.4490
" />
<path d="M2.0910 0.4490
L2.0910 0.4760
" />
<path d="M2.0910 0.4760
L2.0910 0.5040
" />
<path d="M2.0910 0.5040
L2.0910 0.5320
" />
<path d="M2.1000 23.7880
L2.1330 23.8060
" />
<path d="M2.1330 23.8060
L2.1620 23.8290
" />
<path d="M2.1620 23.8290
L2.1850 23.8580
" />
<path d="M2.1850 23.8580
L2.2030 23.8910
" />
<path d="M2.2030 23.8910
L2.2140 23.9270
" />
<path d="M2.2140 23.9270
L2.2180 23.9640
" />
<path d="M2.2180 24.0280
L2.2180 23.9640
" />
<path d="M2.2180 24.0280
L2.2180 24.0560
" />
<path d="M2.2180 24.0280
L3.1070 24.0280
" />
<path d="M2.2180 24.0560
L2.2180 24.0840
" />
<path d="M2.2180 24.0840
L2.2180 24.1110
" />
<path d="M2.2180 24.1110
L2.2180 24.1380
" />
<path d="M2.2180 24.1380
L2.2180 24.1630
" />
<path d="M2.2180 24.1540
L2.0270 24.1540
" />
<path d="M2.2180 24.1630
L2.2180 24.1860
" />
<path d="M2.2180 24.1860
L2.2180 24.2070
" />
<path d="M2.2180 24.2070
L2.2180 24.2260
" />
<path d="M2.2180 24.2260
L2.2180 24.2430
" />
<path d="M2.2180 24.2430
L2.2180 24.2560
" />
<path d="M2.2180 24.2560
L2.2180 24.2670
" />
<path d="M2.2180 24.2670
L2.2180 24.2750
" />
<path d="M2.2180 24.2750
L2.2180 24.2800
" />
<path d="M2.2180 24.2800
L2.2180 24.2820
" />
<path d="M3.1070 23.9640
L3.1100 23.9270
" />
<path d="M3.1070 24.0280
L3.1070 23.9640
" />
<path d="M3.1070 24.0280
L10.0540 24.0280
" />
<path d="M3.1070 24.0560
L3.1070 24.0280
" />
<path d="M3.1070 24.0840
L3.1070 24.0560
" />
<path d="M3.1070 24.1110
L3.1070 24.0840
" />
<path d="M3.1070 24.1380
L3.1070 24.1110
" />
<path d="M3.1070 24.1630
L3.1070 24.1380
" />
<path d="M3.1070 24.1860
L3.1070 24.1630
" />
<path d="M3.1070 24.2070
L3.1070 24.1860
" />
<path d="M3.1070 24.2260
L3.1070 24.2070
" />
<path d="M3.1070 24.2430
L3.1070 24.2260
" />
<path d="M3.1070 24.2560
L3.1070 24.2430
" />
<path d="M3.1070 24.2670
L3.1070 24.2560
" />
<path d="M3.1070 24.2750
L3.1070 24.2670
" />
<path d="M3.1070 24.2800
L3.1070 24.2750
" />
<path d="M3.1070 24.2820
L2.2180 24.2820
" />
<path d="M3.1070 24.2820
L3.1070 24.2800
" />
<path d="M3.1070 24.2820
L10.0540 24.2820
" />
<path d="M3.1100 23.9270
L3.1210 23.8910
" />
<path d="M3.1210 23.8910
L3.1390 23.8580
" />
<path d="M3.1390 23.8580
L3.1620 23.8290
" />
<path d="M3.1620 23.8290
L3.1910 23.8060
" />
<path d="M3.1910 23.8060
L3.2240 23.7880
" />
<path d="M3.2240 23.7880
L3.2600 23.7770
" />
<path d="M3.2600 23.7770
L3.2970 23.7740
" />
<path d="M3.2970 23.7740
L9.8630 23.7740
" />
<path d="M4.4020 1.0400
L4.4060 1.0030
" />
<path d="M4.4020 1.0400
L4.6570 8.0530
" />
<path d="M4.4060 1.0030
L4.4170 0.9680
" />
<path d="M4.4170 0.9680
L4.4340 0.9350
" />
<path d="M4.4340 0.9350
L4.4580 0.9060
" />
<path d="M4.4580 0.9060
L4.4870 0.8820
" />
<path d="M4.4870 0.8820
L4.5200 0.8650
" />
<path d="M4.5200 0.8650
L4.5550 0.8540
" />
<path d="M4.5550 0.8540
L4.5920 0.8500
" />
<path d="M4.5920 0.8500
L4.6300 0.8540
" />
<path d="M4.6300 0.8540
L4.6650 0.8650
" />
<path d="M4.6630 8.1310
L4.6570 8.0530
" />
<path d="M4.6650 0.8650
L4.6980 0.8820
" />
<path d="M4.6780 8.2070
L4.6630 8.1310
" />
<path d="M4.6980 0.8820
L4.7270 0.9060
" />
<path d="M4.7000 8.2820
L4.6780 8.2070
" />
<path d="M4.7270 0.9060
L4.7510 0.9350
" />
<path d="M4.7300 8.3540
L4.7000 8.2820
" />
<path d="M4.7510 0.9350
L4.7680 0.9680
" />
<path d="M4.7670 8.4220
L4.7300 8.3540
" />
<path d="M4.7680 0.9680
L4.7790 1.0030
" />
<path d="M4.7790 1.0030
L4.7830 1.0400
" />
<path d="M4.7850 1.1680
L6.0510 1.1680
" />
<path d="M4.7880 1.2940
L4.7850 1.1680
" />
<path d="M4.7890 1.3570
L4.7880 1.2940
" />
<path d="M4.7900 1.4160
L4.7890 1.3570
" />
<path d="M4.7910 1.4720
L4.7900 1.4160
" />
<path d="M4.7920 1.5220
L4.7910 1.4720
" />
<path d="M4.7920 1.5480
L4.7830 1.0400
" />
<path d="M4.7930 1.5650
L4.7920 1.5220
" />
<path d="M4.7930 1.6010
L4.7930 1.5650
" />
<path d="M4.7930 1.6010
L6.0430 1.6010
" />
<path d="M4.7940 1.6480
L4.7930 1.6010
" />
<path d="M4.7950 1.6980
L4.7940 1.6480
" />
<path d="M4.7960 1.7500
L4.7950 1.6980
" />
<path d="M4.7970 1.8040
L4.7960 1.7500
" />
<path d="M4.7980 1.8610
L4.7970 1.8040
" />
<path d="M4.7990 1.9210
L4.7980 1.8610
" />
<path d="M4.8000 1.9830
L4.7990 1.9210
" />
<path d="M4.8010 2.0480
L4.8000 1.9830
" />
<path d="M4.8030 2.1160
L4.8010 2.0480
" />
<path d="M4.8040 2.1860
L4.8030 2.1160
" />
<path d="M4.8050 2.2590
L4.8040 2.1860
" />
<path d="M4.8070 2.3350
L4.8050 2.2590
" />
<path d="M4.8080 2.4130
L4.8070 2.3350
" />
<path d="M4.8090 2.4940
L4.8080 2.4130
" />
<path d="M4.8110 2.5770
L4.8090 2.4940
" />
<path d="M4.8110 8.4870
L4.7670 8.4220
" />
<path d="M4.8130 2.6630
L4.8110 2.5770
" />
<path d="M4.8140 2.7510
L4.8130 2.6630
" />
<path d="M4.8160 2.8410
L4.8140 2.7510
" />
<path d="M4.8170 2.9340
L4.8160 2.8410
" />
<path d="M4.8190 3.0280
L4.8170 2.9340
" />
<path d="M4.8230 3.2240
L4.8190 3.0280
" />
<path d="M4.8260 3.4260
L4.8230 3.2240
" />
<path d="M4.8300 3.6340
L4.8260 3.4260
" />
<path d="M4.8340 3.8480
L4.8300 3.6340
" />
<path d="M4.8380 4.0650
L4.8340 3.8480
" />
<path d="M4.8420 4.2850
L4.8380 4.0650
" />
<path d="M4.8500 4.7260
L4.8420 4.2850
" />
<path d="M4.8540 4.9450
L4.8500 4.7260
" />
<path d="M4.8580 5.1610
L4.8540 4.9450
" />
<path d="M4.8620 5.3730
L4.8580 5.1610
" />
<path d="M4.8620 8.5460
L4.8110 8.4870
" />
<path d="M4.8650 5.5800
L4.8620 5.3730
" />
<path d="M4.8690 5.7800
L4.8650 5.5800
" />
<path d="M4.8730 5.9730
L4.8690 5.7800
" />
<path d="M4.8740 6.0670
L4.8730 5.9730
" />
<path d="M4.8760 6.1590
L4.8740 6.0670
" />
<path d="M4.8780 6.2480
L4.8760 6.1590
" />
<path d="M4.8790 6.3350
L4.8780 6.2480
" />
<path d="M4.8810 6.4200
L4.8790 6.3350
" />
<path d="M4.8820 6.5030
L4.8810 6.4200
" />
<path d="M4.8840 6.5830
L4.8820 6.5030
" />
<path d="M4.8850 6.6610
L4.8840 6.5830
" />
<path d="M4.8860 6.7360
L4.8850 6.6610
" />
<path d="M4.8880 6.8090
L4.8860 6.7360
" />
<path d="M4.8890 6.8790
L4.8880 6.8090
" />
<path d="M4.8900 6.9470
L4.8890 6.8790
" />
<path d="M4.8920 7.0130
L4.8900 6.9470
" />
<path d="M4.8930 7.0760
L4.8920 7.0130
" />
<path d="M4.8940 7.1360
L4.8930 7.0760
" />
<path d="M4.8950 7.1940
L4.8940 7.1360
" />
<path d="M4.8950 7.1940
L5.9410 7.1940
" />
<path d="M4.8950 7.2310
L4.8950 7.1940
" />
<path d="M4.8960 7.2730
L4.8950 7.2310
" />
<path d="M4.8970 7.3190
L4.8960 7.2730
" />
<path d="M4.8980 7.3680
L4.8970 7.3190
" />
<path d="M4.9000 7.4730
L4.8980 7.3680
" />
<path d="M4.9020 7.5810
L4.9000 7.4730
" />
<path d="M4.9020 7.5810
L5.9340 7.5810
" />
<path d="M4.9100 8.0350
L4.9020 7.5810
" />
<path d="M4.9150 8.0950
L4.9100 8.0350
" />
<path d="M4.9180 8.6000
L4.8620 8.5460
" />
<path d="M4.9270 8.1550
L4.9150 8.0950
" />
<path d="M4.9460 8.2120
L4.9270 8.1550
" />
<path d="M4.9710 8.2670
L4.9460 8.2120
" />
<path d="M4.9790 8.6480
L4.9180 8.6000
" />
<path d="M5.0030 8.3190
L4.9710 8.2670
" />
<path d="M5.0410 8.3660
L5.0030 8.3190
" />
<path d="M5.0450 8.6900
L4.9790 8.6480
" />
<path d="M5.0840 8.4090
L5.0410 8.3660
" />
<path d="M5.1150 8.7250
L5.0450 8.6900
" />
<path d="M5.1320 8.4460
L5.0840 8.4090
" />
<path d="M5.1840 8.4770
L5.1320 8.4460
" />
<path d="M5.1880 8.7520
L5.1150 8.7250
" />
<path d="M5.2400 8.5010
L5.1840 8.4770
" />
<path d="M5.2630 8.7720
L5.1880 8.7520
" />
<path d="M5.2980 8.5190
L5.2400 8.5010
" />
<path d="M5.3400 8.7840
L5.2630 8.7720
" />
<path d="M5.3570 8.5300
L5.2980 8.5190
" />
<path d="M5.4180 8.5340
L5.3570 8.5300
" />
<path d="M5.4180 8.7880
L5.3400 8.7840
" />
<path d="M5.4790 8.5300
L5.4180 8.5340
" />
<path d="M5.4960 8.7840
L5.4180 8.7880
" />
<path d="M5.5380 8.5190
L5.4790 8.5300
" />
<path d="M5.5730 8.7720
L5.4960 8.7840
" />
<path d="M5.5960 8.5010
L5.5380 8.5190
" />
<path d="M5.6480 8.7520
L5.5730 8.7720
" />
<path d="M5.6520 8.4770
L5.5960 8.5010
" />
<path d="M5.7040 8.4460
L5.6520 8.4770
" />
<path d="M5.7210 8.7250
L5.6480 8.7520
" />
<path d="M5.7520 8.4090
L5.7040 8.4460
" />
<path d="M5.7910 8.6900
L5.7210 8.7250
" />
<path d="M5.7950 8.3660
L5.7520 8.4090
" />
<path d="M5.8330 8.3190
L5.7950 8.3660
" />
<path d="M5.8570 8.6480
L5.7910 8.6900
" />
<path d="M5.8650 8.2670
L5.8330 8.3190
" />
<path d="M5.8900 8.2120
L5.8650 8.2670
" />
<path d="M5.9090 8.1550
L5.8900 8.2120
" />
<path d="M5.9180 8.6000
L5.8570 8.6480
" />
<path d="M5.9210 8.0950
L5.9090 8.1550
" />
<path d="M5.9260 8.0350
L5.9210 8.0950
" />
<path d="M5.9340 7.5810
L5.9260 8.0350
" />
<path d="M5.9360 7.4730
L5.9340 7.5810
" />
<path d="M5.9380 7.3680
L5.9360 7.4730
" />
<path d="M5.9390 7.3190
L5.9380 7.3680
" />
<path d="M5.9400 7.2730
L5.9390 7.3190
" />
<path d="M5.9410 7.1940
L5.9410 7.2310
" />
<path d="M5.9410 7.2310
L5.9400 7.2730
" />
<path d="M5.9420 7.1360
L5.9410 7.1940
" />
<path d="M5.9430 7.0760
L5.9420 7.1360
" />
<path d="M5.9440 7.0130
L5.9430 7.0760
" />
<path d="M5.9460 6.9470
L5.9440 7.0130
" />
<path d="M5.9470 6.8790
L5.9460 6.9470
" />
<path d="M5.9480 6.8090
L5.9470 6.8790
" />
<path d="M5.9500 6.7360
L5.9480 6.8090
" />
<path d="M5.9510 6.6610
L5.9500 6.7360
" />
<path d="M5.9520 6.5830
L5.9510 6.6610
" />
<path d="M5.9540 6.5030
L5.9520 6.5830
" />
<path d="M5.9550 6.4200
L5.9540 6.5030
" />
<path d="M5.9570 6.3350
L5.9550 6.4200
" />
<path d="M5.9580 6.2480
L5.9570 6.3350
" />
<path d="M5.9600 6.1590
L5.9580 6.2480
" />
<path d="M5.9620 6.0670
L5.9600 6.1590
" />
<path d="M5.9630 5.9730
L5.9620 6.0670
" />
<path d="M5.9670 5.7800
L5.9630 5.9730
" />
<path d="M5.9710 5.5800
L5.9670 5.7800
" />
<path d="M5.9740 5.3730
L5.9710 5.5800
" />
<path d="M5.9740 8.5460
L5.9180 8.6000
" />
<path d="M5.9780 5.1610
L5.9740 5.3730
" />
<path d="M5.9820 4.9450
L5.9780 5.1610
" />
<path d="M5.9860 4.7260
L5.9820 4.9450
" />
<path d="M5.9940 4.2850
L5.9860 4.7260
" />
<path d="M5.9980 4.0650
L5.9940 4.2850
" />
<path d="M6.0020 3.8480
L5.9980 4.0650
" />
<path d="M6.0060 3.6340
L6.0020 3.8480
" />
<path d="M6.0100 3.4260
L6.0060 3.6340
" />
<path d="M6.0130 3.2240
L6.0100 3.4260
" />
<path d="M6.0170 3.0280
L6.0130 3.2240
" />
<path d="M6.0190 2.9340
L6.0170 3.0280
" />
<path d="M6.0200 2.8410
L6.0190 2.9340
" />
<path d="M6.0220 2.7510
L6.0200 2.8410
" />
<path d="M6.0230 2.6630
L6.0220 2.7510
" />
<path d="M6.0250 2.5770
L6.0230 2.6630
" />
<path d="M6.0250 8.4870
L5.9740 8.5460
" />
<path d="M6.0270 2.4940
L6.0250 2.5770
" />
<path d="M6.0280 2.4130
L6.0270 2.4940
" />
<path d="M6.0290 2.3350
L6.0280 2.4130
" />
<path d="M6.0310 2.2590
L6.0290 2.3350
" />
<path d="M6.0320 2.1860
L6.0310 2.2590
" />
<path d="M6.0330 2.1160
L6.0320 2.1860
" />
<path d="M6.0350 2.0480
L6.0330 2.1160
" />
<path d="M6.0360 1.9830
L6.0350 2.0480
" />
<path d="M6.0370 1.9210
L6.0360 1.9830
" />
<path d="M6.0380 1.8610
L6.0370 1.9210
" />
<path d="M6.0390 1.8040
L6.0380 1.8610
" />
<path d="M6.0400 1.7500
L6.0390 1.8040
" />
<path d="M6.0410 1.6980
L6.0400 1.7500
" />
<path d="M6.0420 1.6480
L6.0410 1.6980
" />
<path d="M6.0430 1.5650
L6.0430 1.6010
" />
<path d="M6.0430 1.6010
L6.0420 1.6480
" />
<path d="M6.0440 1.5220
L6.0430 1.5650
" />
<path d="M6.0450 1.4720
L6.0440 1.5220
" />
<path d="M6.0460 1.4160
L6.0450 1.4720
" />
<path d="M6.0470 1.3570
L6.0460 1.4160
" />
<path d="M6.0480 1.2940
L6.0470 1.3570
" />
<path d="M6.0510 1.1680
L6.0480 1.2940
" />
<path d="M6.0530 1.0400
L6.0440 1.5480
" />
<path d="M6.0570 1.0030
L6.0530 1.0400
" />
<path d="M6.0680 0.9680
L6.0570 1.0030
" />
<path d="M6.0690 8.4220
L6.0250 8.4870
" />
<path d="M6.0850 0.9350
L6.0680 0.9680
" />
<path d="M6.1060 8.3540
L6.0690 8.4220
" />
<path d="M6.1090 0.9060
L6.0850 0.9350
" />
<path d="M6.1360 8.2820
L6.1060 8.3540
" />
<path d="M6.1380 0.8820
L6.1090 0.9060
" />
<path d="M6.1580 8.2070
L6.1360 8.2820
" />
<path d="M6.1710 0.8650
L6.1380 0.8820
" />
<path d="M6.1730 8.1310
L6.1580 8.2070
" />
<path d="M6.1790 8.0530
L6.1730 8.1310
" />
<path d="M6.2060 0.8540
L6.1710 0.8650
" />
<path d="M6.2440 0.8500
L6.2060 0.8540
" />
<path d="M6.2810 0.8540
L6.2440 0.8500
" />
<path d="M6.3160 0.8650
L6.2810 0.8540
" />
<path d="M6.3490 0.8820
L6.3160 0.8650
" />
<path d="M6.3780 0.9060
L6.3490 0.8820
" />
<path d="M6.4020 0.9350
L6.3780 0.9060
" />
<path d="M6.4190 0.9680
L6.4020 0.9350
" />
<path d="M6.4300 1.0030
L6.4190 0.9680
" />
<path d="M6.4340 1.0400
L6.1790 8.0530
" />
<path d="M6.4340 1.0400
L6.4300 1.0030
" />
<path d="M8.0600 0.2790
L10.4340 0.2790
" />
<path d="M8.0600 0.2800
L8.0600 0.2790
" />
<path d="M8.0600 0.2850
L8.0600 0.2800
" />
<path d="M8.0600 0.2930
L8.0600 0.2850
" />
<path d="M8.0600 0.3040
L8.0600 0.2930
" />
<path d="M8.0600 0.3170
L8.0600 0.3040
" />
<path d="M8.0600 0.3340
L8.0600 0.3170
" />
<path d="M8.0600 0.3530
L8.0600 0.3340
" />
<path d="M8.0600 0.3740
L8.0600 0.3530
" />
<path d="M8.0600 0.3970
L8.0600 0.3740
" />
<path d="M8.0600 0.4060
L8.4020 0.4060
" />
<path d="M8.0600 0.4220
L8.0600 0.3970
" />
<path d="M8.0600 0.4490
L8.0600 0.4220
" />
<path d="M8.0600 0.4760
L8.0600 0.4490
" />
<path d="M8.0600 0.5040
L8.0600 0.4760
" />
<path d="M8.0600 0.5320
L2.0910 0.5320
" />
<path d="M8.0600 0.5320
L8.0600 0.5040
" />
<path d="M8.0600 0.5320
L12.9360 0.5320
" />
<path d="M8.4020 0.4060
L12.5940 0.4060
" />
<path d="M9.8630 23.7740
L9.9000 23.7770
" />
<path d="M9.9000 23.7770
L9.9360 23.7880
" />
<path d="M9.9360 23.7880
L9.9690 23.8060
" />
<path d="M9.9690 23.8060
L9.9980 23.8290
" />
<path d="M9.9980 23.8290
L10.0210 23.8580
" />
<path d="M10.0210 23.8580
L10.0390 23.8910
" />
<path d="M10.0390 23.8910
L10.0500 23.9270
" />
<path d="M10.0500 23.9270
L10.0540 23.9640
" />
<path d="M10.0540 24.0280
L10.0540 23.9640
" />
<path d="M10.0540 24.0280
L10.0540 24.0560
" />
<path d="M10.0540 24.0280
L10.9420 24.0280
" />
<path d="M10.0540 24.0560
L10.0540 24.0840
" />
<path d="M10.0540 24.0840
L10.0540 24.1110
" />
<path d="M10.0540 24.1110
L10.0540 24.1380
" />
<path d="M10.0540 24.1380
L10.0540 24.1630
" />
<path d="M10.0540 24.1540
L3.1070 24.1540
" />
<path d="M10.0540 24.1630
L10.0540 24.1860
" />
<path d="M10.0540 24.1860
L10.0540 24.2070
" />
<path d="M10.0540 24.2070
L10.0540 24.2260
" />
<path d="M10.0540 24.2260
L10.0540 24.2430
" />
<path d="M10.0540 24.2430
L10.0540 24.2560
" />
<path d="M10.0540 24.2560
L10.0540 24.2670
" />
<path d="M10.0540 24.2670
L10.0540 24.2750
" />
<path d="M10.0540 24.2750
L10.0540 24.2800
" />
<path d="M10.0540 24.2800
L10.0540 24.2820
" />
<path d="M10.4340 0.4060
L10.4340 0.2790
" />
<path d="M10.5620 0.4060
L10.5620 0.2790
" />
<path d="M10.9420 23.9640
L10.9460 23.9270
" />
<path d="M10.9420 24.0280
L10.9420 23.9640
" />
<path d="M10.9420 24.0280
L17.8890 24.0280
" />
<path d="M10.9420 24.0560
L10.9420 24.0280
" />
<path d="M10.9420 24.0840
L10.9420 24.0560
" />
<path d="M10.9420 24.1110
L10.9420 24.0840
" />
<path d="M10.9420 24.1380
L10.9420 24.1110
" />
<path d="M10.9420 24.1630
L10.9420 24.1380
" />
<path d="M10.9420 24.1860
L10.9420 24.1630
" />
<path d="M10.9420 24.2070
L10.9420 24.1860
" />
<path d="M10.9420 24.2260
L10.9420 24.2070
" />
<path d="M10.9420 24.2430
L10.9420 24.2260
" />
<path d="M10.9420 24.2560
L10.9420 24.2430
" />
<path d="M10.9420 24.2670
L10.9420 24.2560
" />
<path d="M10.9420 24.2750
L10.9420 24.2670
" />
<path d="M10.9420 24.2800
L10.9420 24.2750
" />
<path d="M10.9420 24.2820
L10.0540 24.2820
" />
<path d="M10.9420 24.2820
L10.9420 24.2800
" />
<path d="M10.9460 23.9270
L10.9570 23.8910
" />
<path d="M10.9570 23.8910
L10.9750 23.8580
" />
<path d="M10.9750 23.8580
L10.9980 23.8290
" />
<path d="M10.9980 23.8290
L11.0270 23.8060
" />
<path d="M11.0270 23.8060
L11.0600 23.7880
" />
<path d="M11.0600 23.7880
L11.0960 23.7770
" />
<path d="M11.0960 23.7770
L11.1330 23.7740
" />
<path d="M12.5940 0.4060
L12.9360 0.4060
" />
<path d="M12.9360 0.2790
L10.5620 0.2790
" />
<path d="M12.9360 0.2790
L12.9360 0.2800
" />
<path d="M12.9360 0.2790
L18.9050 0.2790
" />
<path d="M12.9360 0.2800
L12.9360 0.2850
" />
<path d="M12.9360 0.2850
L12.9360 0.2930
" />
<path d="M12.9360 0.2930
L12.9360 0.3040
" />
<path d="M12.9360 0.3040
L12.9360 0.3170
" />
<path d="M12.9360 0.3170
L12.9360 0.3340
" />
<path d="M12.9360 0.3340
L12.9360 0.3530
" />
<path d="M12.9360 0.3530
L12.9360 0.3740
" />
<path d="M12.9360 0.3740
L12.9360 0.3970
" />
<path d="M12.9360 0.3970
L12.9360 0.4220
" />
<path d="M12.9360 0.4220
L12.9360 0.4490
" />
<path d="M12.9360 0.4490
L12.9360 0.4760
" />
<path d="M12.9360 0.4760
L12.9360 0.5040
" />
<path d="M12.9360 0.5040
L12.9360 0.5320
" />
<path d="M14.5620 1.0400
L14.5660 1.0030
" />
<path d="M14.5620 1.0400
L14.8170 8.0530
" />
<path d="M14.5660 1.0030
L14.5770 0.9680
" />
<path d="M14.5770 0.9680
L14.5940 0.9350
" />
<path d="M14.5940 0.9350
L14.6180 0.9060
" />
<path d="M14.6180 0.9060
L14.6470 0.8820
" />
<path d="M14.6470 0.8820
L14.6800 0.8650
" />
<path d="M14.6800 0.8650
L14.7150 0.8540
" />
<path d="M14.7150 0.8540
L14.7520 0.8500
" />
<path d="M14.7520 0.8500
L14.7900 0.8540
" />
<path d="M14.7900 0.8540
L14.8250 0.8650
" />
<path d="M14.8170 8.0530
L14.8230 8.1310
" />
<path d="M14.8230 8.1310
L14.8380 8.2070
" />
<path d="M14.8250 0.8650
L14.8580 0.8820
" />
<path d="M14.8380 8.2070
L14.8600 8.2820
" />
<path d="M14.8580 0.8820
L14.8870 0.9060
" />
<path d="M14.8600 8.2820
L14.8900 8.3540
" />
<path d="M14.8870 0.9060
L14.9110 0.9350
" />
<path d="M14.8900 8.3540
L14.9270 8.4220
" />
<path d="M14.9110 0.9350
L14.9280 0.9680
" />
<path d="M14.9270 8.4220
L14.9710 8.4870
" />
<path d="M14.9280 0.9680
L14.9390 1.0030
" />
<path d="M14.9390 1.0030
L14.9430 1.0400
" />
<path d="M14.9450 1.1680
L16.2110 1.1680
" />
<path d="M14.9480 1.2940
L14.9450 1.1680
" />
<path d="M14.9490 1.3570
L14.9480 1.2940
" />
<path d="M14.9500 1.4160
L14.9490 1.3570
" />
<path d="M14.9510 1.4720
L14.9500 1.4160
" />
<path d="M14.9520 1.5220
L14.9510 1.4720
" />
<path d="M14.9520 1.5480
L14.9430 1.0400
" />
<path d="M14.9530 1.5650
L14.9520 1.5220
" />
<path d="M14.9530 1.6010
L14.9530 1.5650
" />
<path d="M14.9530 1.6010
L16.2030 1.6010
" />
<path d="M14.9540 1.6480
L14.9530 1.6010
" />
<path d="M14.9550 1.6980
L14.9540 1.6480
" />
<path d="M14.9560 1.7500
L14.9550 1.6980
" />
<path d="M14.9570 1.8040
L14.9560 1.7500
" />
<path d="M14.9580 1.8610
L14.9570 1.8040
" />
<path d="M14.9590 1.9210
L14.9580 1.8610
" />
<path d="M14.9600 1.9830
L14.9590 1.9210
" />
<path d="M14.9610 2.0480
L14.9600 1.9830
" />
<path d="M14.9630 2.1160
L14.9610 2.0480
" />
<path d="M14.9640 2.1860
L14.9630 2.1160
" />
<path d="M14.9650 2.2590
L14.9640 2.1860
" />
<path d="M14.9670 2.3350
L14.9650 2.2590
" />
<path d="M14.9680 2.4130
L14.9670 2.3350
" />
<path d="M14.9690 2.4940
L14.9680 2.4130
" />
<path d="M14.9710 2.5770
L14.9690 2.4940
" />
<path d="M14.9710 8.4870
L15.0220 8.5460
" />
<path d="M14.9730 2.6630
L14.9710 2.5770
" />
<path d="M14.9740 2.7510
L14.9730 2.6630
" />
<path d="M14.9760 2.8410
L14.9740 2.7510
" />
<path d="M14.9770 2.9340
L14.9760 2.8410
" />
<path d="M14.9790 3.0280
L14.9770 2.9340
" />
<path d="M14.9830 3.2240
L14.9790 3.0280
" />
<path d="M14.9860 3.4260
L14.9830 3.2240
" />
<path d="M14.9900 3.6340
L14.9860 3.4260
" />
<path d="M14.9940 3.8480
L14.9900 3.6340
" />
<path d="M14.9980 4.0650
L14.9940 3.8480
" />
<path d="M15.0020 4.2850
L14.9980 4.0650
" />
<path d="M15.0100 4.7260
L15.0020 4.2850
" />
<path d="M15.0140 4.9450
L15.0100 4.7260
" />
<path d="M15.0180 5.1610
L15.0140 4.9450
" />
<path d="M15.0220 5.3730
L15.0180 5.1610
" />
<path d="M15.0220 8.5460
L15.0780 8.6000
" />
<path d="M15.0250 5.5800
L15.0220 5.3730
" />
<path d="M15.0290 5.7800
L15.0250 5.5800
" />
<path d="M15.0330 5.9730
L15.0290 5.7800
" />
<path d="M15.0340 6.0670
L15.0330 5.9730
" />
<path d="M15.0360 6.1590
L15.0340 6.0670
" />
<path d="M15.0380 6.2480
L15.0360 6.1590
" />
<path d="M15.0390 6.3350
L15.0380 6.2480
" />
<path d="M15.0410 6.4200
L15.0390 6.3350
" />
<path d="M15.0420 6.5030
L15.0410 6.4200
" />
<path d="M15.0440 6.5830
L15.0420 6.5030
" />
<path d="M15.0450 6.6610
L15.0440 6.5830
" />
<path d="M15.0460 6.7360
L15.0450 6.6610
" />
<path d="M15.0480 6.8090
L15.0460 6.7360
" />
<path d="M15.0490 6.8790
L15.0480 6.8090
" />
<path d="M15.0500 6.9470
L15.0490 6.8790
" />
<path d="M15.0520 7.0130
L15.0500 6.9470
" />
<path d="M15.0530 7.0760
L15.0520 7.0130
" />
<path d="M15.0540 7.1360
L15.0530 7.0760
" />
<path d="M15.0550 7.1940
L15.0540 7.1360
" />
<path d="M15.0550 7.1940
L16.1010 7.1940
" />
<path d="M15.0550 7.2310
L15.0550 7.1940
" />
<path d="M15.0560 7.2730
L15.0550 7.2310
" />
<path d="M15.0570 7.3190
L15.0560 7.2730
" />
<path d="M15.0580 7.3680
L15.0570 7.3190
" />
<path d="M15.0600 7.4730
L15.0580 7.3680
" />
<path d="M15.0620 7.5810
L15.0600 7.4730
" />
<path d="M15.0620 7.5810
L16.0940 7.5810
" />
<path d="M15.0700 8.0350
L15.0620 7.5810
" />
<path d="M15.0750 8.0950
L15.0700 8.0350
" />
<path d="M15.0780 8.6000
L15.1390 8.6480
" />
<path d="M15.0870 8.1550
L15.0750 8.0950
" />
<path d="M15.1060 8.2120
L15.0870 8.1550
" />
<path d="M15.1310 8.2670
L15.1060 8.2120
" />
<path d="M15.1390 8.6480
L15.2050 8.6900
" />
<path d="M15.1630 8.3190
L15.1310 8.2670
" />
<path d="M15.2010 8.3660
L15.1630 8.3190
" />
<path d="M15.2050 8.6900
L15.2750 8.7250
" />
<path d="M15.2440 8.4090
L15.2010 8.3660
" />
<path d="M15.2750 8.7250
L15.3480 8.7520
" />
<path d="M15.2920 8.4460
L15.2440 8.4090
" />
<path d="M15.3440 8.4770
L15.2920 8.4460
" />
<path d="M15.3480 8.7520
L15.4230 8.7720
" />
<path d="M15.4000 8.5010
L15.3440 8.4770
" />
<path d="M15.4230 8.7720
L15.5000 8.7840
" />
<path d="M15.4580 8.5190
L15.4000 8.5010
" />
<path d="M15.5000 8.7840
L15.5780 8.7880
" />
<path d="M15.5170 8.5300
L15.4580 8.5190
" />
<path d="M15.5780 8.5340
L15.5170 8.5300
" />
<path d="M15.5780 8.7880
L15.6560 8.7840
" />
<path d="M15.6390 8.5300
L15.5780 8.5340
" />
<path d="M15.6560 8.7840
L15.7330 8.7720
" />
<path d="M15.6980 8.5190
L15.6390 8.5300
" />
<path d="M15.7330 8.7720
L15.8080 8.7520
" />
<path d="M15.7560 8.5010
L15.6980 8.5190
" />
<path d="M15.8080 8.7520
L15.8810 8.7250
" />
<path d="M15.8120 8.4770
L15.7560 8.5010
" />
<path d="M15.8640 8.4460
L15.8120 8.4770
" />
<path d="M15.8810 8.7250
L15.9510 8.6900
" />
<path d="M15.9120 8.4090
L15.8640 8.4460
" />
<path d="M15.9510 8.6900
L16.0170 8.6480
" />
<path d="M15.9550 8.3660
L15.9120 8.4090
" />
<path d="M15.9930 8.3190
L15.9550 8.3660
" />
<path d="M16.0170 8.6480
L16.0780 8.6000
" />
<path d="M16.0250 8.2670
L15.9930 8.3190
" />
<path d="M16.0500 8.2120
L16.0250 8.2670
" />
<path d="M16.0690 8.1550
L16.0500 8.2120
" />
<path d="M16.0780 8.6000
L16.1340 8.5460
" />
<path d="M16.0810 8.0950
L16.0690 8.1550
" />
<path d="M16.0860 8.0350
L16.0810 8.0950
" />
<path d="M16.0940 7.5810
L16.0860 8.0350
" />
<path d="M16.0960 7.4730
L16.0940 7.5810
" />
<path d="M16.0980 7.3680
L16.0960 7.4730
" />
<path d="M16.0990 7.3190
L16.0980 7.3680
" />
<path d="M16.1000 7.2730
L16.0990 7.3190
" />
<path d="M16.1010 7.1940
L16.1010 7.2310
" />
<path d="M16.1010 7.2310
L16.1000 7.2730
" />
<path d="M16.1020 7.1360
L16.1010 7.1940
" />
<path d="M16.1030 7.0760
L16.1020 7.1360
" />
<path d="M16.1040 7.0130
L16.1030 7.0760
" />
<path d="M16.1060 6.9470
L16.1040 7.0130
" />
<path d="M16.1070 6.8790
L16.1060 6.9470
" />
<path d="M16.1080 6.8090
L16.1070 6.8790
" />
<path d="M16.1100 6.7360
L16.1080 6.8090
" />
<path d="M16.1110 6.6610
L16.1100 6.7360
" />
<path d="M16.1120 6.5830
L16.1110 6.6610
" />
<path d="M16.1140 6.5030
L16.1120 6.5830
" />
<path d="M16.1150 6.4200
L16.1140 6.5030
" />
<path d="M16.1170 6.3350
L16.1150 6.4200
" />
<path d="M16.1180 6.2480
L16.1170 6.3350
" />
<path d="M16.1200 6.1590
L16.1180 6.2480
" />
<path d="M16.1220 6.0670
L16.1200 6.1590
" />
<path d="M16.1230 5.9730
L16.1220 6.0670
" />
<path d="M16.1270 5.7800
L16.1230 5.9730
" />
<path d="M16.1310 5.5800
L16.1270 5.7800
" />
<path d="M16.1340 5.3730
L16.1310 5.5800
" />
<path d="M16.1340 8.5460
L16.1850 8.4870
" />
<path d="M16.1380 5.1610
L16.1340 5.3730
" />
<path d="M16.1420 4.9450
L16.1380 5.1610
" />
<path d="M16.1460 4.7260
L16.1420 4.9450
" />
<path d="M16.1540 4.2850
L16.1460 4.7260
" />
<path d="M16.1580 4.0650
L16.1540 4.2850
" />
<path d="M16.1620 3.8480
L16.1580 4.0650
" />
<path d="M16.1660 3.6340
L16.1620 3.8480
" />
<path d="M16.1700 3.4260
L16.1660 3.6340
" />
<path d="M16.1730 3.2240
L16.1700 3.4260
" />
<path d="M16.1770 3.0280
L16.1730 3.2240
" />
<path d="M16.1790 2.9340
L16.1770 3.0280
" />
<path d="M16.1800 2.8410
L16.1790 2.9340
" />
<path d="M16.1820 2.7510
L16.1800 2.8410
" />
<path d="M16.1830 2.6630
L16.1820 2.7510
" />
<path d="M16.1850 2.5770
L16.1830 2.6630
" />
<path d="M16.1850 8.4870
L16.2290 8.4220
" />
<path d="M16.1870 2.4940
L16.1850 2.5770
" />
<path d="M16.1880 2.4130
L16.1870 2.4940
" />
<path d="M16.1890 2.3350
L16.1880 2.4130
" />
<path d="M16.1910 2.2590
L16.1890 2.3350
" />
<path d="M16.1920 2.1860
L16.1910 2.2590
" />
<path d="M16.1930 2.1160
L16.1920 2.1860
" />
<path d="M16.1950 2.0480
L16.1930 2.1160
" />
<path d="M16.1960 1.9830
L16.1950 2.0480
" />
<path d="M16.1970 1.9210
L16.1960 1.9830
" />
<path d="M16.1980 1.8610
L16.1970 1.9210
" />
<path d="M16.1990 1.8040
L16.1980 1.8610
" />
<path d="M16.2000 1.7500
L16.1990 1.8040
" />
<path d="M16.2010 1.6980
L16.2000 1.7500
" />
<path d="M16.2020 1.6480
L16.2010 1.6980
" />
<path d="M16.2030 1.5650
L16.2030 1.6010
" />
<path d="M16.2030 1.6010
L16.2020 1.6480
" />
<path d="M16.2040 1.5220
L16.2030 1.5650
" />
<path d="M16.2050 1.4720
L16.2040 1.5220
" />
<path d="M16.2060 1.4160
L16.2050 1.4720
" />
<path d="M16.2070 1.3570
L16.2060 1.4160
" />
<path d="M16.2080 1.2940
L16.2070 1.3570
" />
<path d="M16.2110 1.1680
L16.2080 1.2940
" />
<path d="M16.2130 1.0400
L16.2040 1.5480
" />
<path d="M16.2170 1.0030
L16.2130 1.0400
" />
<path d="M16.2280 0.9680
L16.2170 1.0030
" />
<path d="M16.2290 8.4220
L16.2660 8.3540
" />
<path d="M16.2450 0.9350
L16.2280 0.9680
" />
<path d="M16.2660 8.3540
L16.2960 8.2820
" />
<path d="M16.2690 0.9060
L16.2450 0.9350
" />
<path d="M16.2960 8.2820
L16.3180 8.2070
" />
<path d="M16.2980 0.8820
L16.2690 0.9060
" />
<path d="M16.3180 8.2070
L16.3330 8.1310
" />
<path d="M16.3310 0.8650
L16.2980 0.8820
" />
<path d="M16.3330 8.1310
L16.3390 8.0530
" />
<path d="M16.3660 0.8540
L16.3310 0.8650
" />
<path d="M16.4040 0.8500
L16.3660 0.8540
" />
<path d="M16.4410 0.8540
L16.4040 0.8500
" />
<path d="M16.4760 0.8650
L16.4410 0.8540
" />
<path d="M16.5090 0.8820
L16.4760 0.8650
" />
<path d="M16.5380 0.9060
L16.5090 0.8820
" />
<path d="M16.5620 0.9350
L16.5380 0.9060
" />
<path d="M16.5790 0.9680
L16.5620 0.9350
" />
<path d="M16.5900 1.0030
L16.5790 0.9680
" />
<path d="M16.5940 1.0400
L16.3390 8.0530
" />
<path d="M16.5940 1.0400
L16.5900 1.0030
" />
<path d="M17.6990 23.7740
L11.1330 23.7740
" />
<path d="M17.6990 23.7740
L17.7360 23.7770
" />
<path d="M17.7360 23.7770
L17.7720 23.7880
" />
<path d="M17.7720 23.7880
L17.8050 23.8060
" />
<path d="M17.8050 23.8060
L17.8340 23.8290
" />
<path d="M17.8340 23.8290
L17.8570 23.8580
" />
<path d="M17.8570 23.8580
L17.8750 23.8910
" />
<path d="M17.8750 23.8910
L17.8860 23.9270
" />
<path d="M17.8860 23.9270
L17.8890 23.9640
" />
<path d="M17.8890 24.0280
L17.8890 23.9640
" />
<path d="M17.8890 24.0280
L17.8890 24.0560
" />
<path d="M17.8890 24.0280
L18.7780 24.0280
" />
<path d="M17.8890 24.0560
L17.8890 24.0840
" />
<path d="M17.8890 24.0840
L17.8890 24.1110
" />
<path d="M17.8890 24.1110
L17.8890 24.1380
" />
<path d="M17.8890 24.1380
L17.8890 24.1630
" />
<path d="M17.8890 24.1540
L10.9420 24.1540
" />
<path d="M17.8890 24.1630
L17.8890 24.1860
" />
<path d="M17.8890 24.1860
L17.8890 24.2070
" />
<path d="M17.8890 24.2070
L17.8890 24.2260
" />
<path d="M17.8890 24.2260
L17.8890 24.2430
" />
<path d="M17.8890 24.2430
L17.8890 24.2560
" />
<path d="M17.8890 24.2560
L17.8890 24.2670
" />
<path d="M17.8890 24.2670
L17.8890 24.2750
" />
<path d="M17.8890 24.2750
L17.8890 24.2800
" />
<path d="M17.8890 24.2800
L17.8890 24.2820
" />
<path d="M17.8890 24.2820
L10.9420 24.2820
" />
<path d="M18.7780 23.9640
L18.7820 23.9270
" />
<path d="M18.7780 24.0280
L18.7780 23.9640
" />
<path d="M18.7780 24.0280
L18.9690 24.0280
" />
<path d="M18.7780 24.0560
L18.7780 24.0280
" />
<path d="M18.7780 24.0840
L18.7780 24.0560
" />
<path d="M18.7780 24.1110
L18.7780 24.0840
" />
<path d="M18.7780 24.1380
L18.7780 24.1110
" />
<path d="M18.7780 24.1630
L18.7780 24.1380
" />
<path d="M18.7780 24.1860
L18.7780 24.1630
" />
<path d="M18.7780 24.2070
L18.7780 24.1860
" />
<path d="M18.7780 24.2260
L18.7780 24.2070
" />
<path d="M18.7780 24.2430
L18.7780 24.2260
" />
<path d="M18.7780 24.2560
L18.7780 24.2430
" />
<path d="M18.7780 24.2670
L18.7780 24.2560
" />
<path d="M18.7780 24.2750
L18.7780 24.2670
" />
<path d="M18.7780 24.2800
L18.7780 24.2750
" />
<path d="M18.7780 24.2820
L17.8890 24.2820
" />
<path d="M18.7780 24.2820
L18.7780 24.2800
" />
<path d="M18.7820 23.9270
L18.7930 23.8910
" />
<path d="M18.7930 23.8910
L18.8110 23.8580
" />
<path d="M18.8110 23.8580
L18.8340 23.8290
" />
<path d="M18.8340 23.8290
L18.8630 23.8060
" />
<path d="M18.8630 23.8060
L18.8960 23.7880
" />
<path d="M18.8960 23.7880
L18.9320 23.7770
" />
<path d="M18.9050 0.2800
L18.9050 0.2790
" />
<path d="M18.9050 0.2850
L18.9050 0.2800
" />
<path d="M18.9050 0.2930
L18.9050 0.2850
" />
<path d="M18.9050 0.3040
L18.9050 0.2930
" />
<path d="M18.9050 0.3170
L18.9050 0.3040
" />
<path d="M18.9050 0.3340
L18.9050 0.3170
" />
<path d="M18.9050 0.3530
L18.9050 0.3340
" />
<path d="M18.9050 0.3740
L18.9050 0.3530
" />
<path d="M18.9050 0.3970
L18.9050 0.3740
" />
<path d="M18.9050 0.4060
L19.0320 0.4060
" />
<path d="M18.9050 0.4060
L19.0320 0.4060
" />
<path d="M18.9050 0.4220
L18.9050 0.3970
" />
<path d="M18.9050 0.4490
L18.9050 0.4220
" />
<path d="M18.9050 0.4760
L18.9050 0.4490
" />
<path d="M18.9050 0.5040
L18.9050 0.4760
" />
<path d="M18.9050 0.5320
L12.9360 0.5320
" />
<path d="M18.9050 0.5320
L18.9050 0.5040
" />
<path d="M18.9050 0.5320
L19.0320 0.5320
" />
<path d="M18.9320 23.7770
L18.9690 23.7740
" />
<path d="M18.9690 24.0280
L18.9690 23.7740
" />
<path d="M18.9690 24.0420
L18.9690 24.0280
" />
<path d="M18.9690 24.0560
L18.9690 24.0420
" />
<path d="M18.9690 24.0690
L18.9690 24.0560
" />
<path d="M18.9690 24.0830
L18.9690 24.0690
" />
<path d="M18.9690 24.0950
L18.9690 24.0830
" />
<path d="M18.9690 24.1070
L18.9690 24.0950
" />
<path d="M18.9690 24.1170
L18.9690 24.1070
" />
<path d="M18.9690 24.1270
L18.9690 24.1170
" />
<path d="M18.9690 24.1350
L18.9690 24.1270
" />
<path d="M18.9690 24.1420
L18.9690 24.1350
" />
<path d="M18.9690 24.1470
L18.9690 24.1420
" />
<path d="M18.9690 24.1510
L18.9690 24.1470
" />
<path d="M18.9690 24.1540
L18.7780 24.1540
" />
<path d="M18.9690 24.1540
L18.9690 24.1510
" />
</g>
<g style="fill:#000000; fill-opacity:1.0000; stroke:none;">
<circle cx="18.9690" cy="24.1540" r="0.0100" /> 
</g>
<g style="fill:none; 
stroke:#000000; stroke-width:0.0200; stroke-opacity:1; 
stroke-linecap:round; stroke-linejoin:round;">
<path d="M19.0320 0.2790
L18.9050 0.2790
" />
<path d="M19.0320 0.2790
L19.0770 0.2820
" />
</g>
<g style="fill:#000000; fill-opacity:1.0000; stroke:none;">
<circle cx="19.0320" cy="0.4060" r="0.0100" /> 
</g>
<g style="fill:none; 
stroke:#000000; stroke-width:0.0200; stroke-opacity:1; 
stroke-linecap:round; stroke-linejoin:round;">
<path d="M19.0320 0.4060
L19.0610 0.4090
" />
<path d="M19.0320 0.4060
L19.0610 0.4090
" />
<path d="M19.0320 0.4090
L19.0320 0.4060
" />
<path d="M19.0320 0.4130
L19.0320 0.4090
" />
<path d="M19.0320 0.4180
L19.0320 0.4130
" />
<path d="M19.0320 0.4250
L19.0320 0.4180
" />
<path d="M19.0320 0.4330
L19.0320 0.4250
" />
<path d="M19.0320 0.4430
L19.0320 0.4330
" />
<path d="M19.0320 0.4530
L19.0320 0.4430
" />
<path d="M19.0320 0.4650
L19.0320 0.4530
" />
<path d="M19.0320 0.4770
L19.0320 0.4650
" />
<path d="M19.0320 0.4910
L19.0320 0.4770
" />
<path d="M19.0320 0.5040
L19.0320 0.4910
" />
<path d="M19.0320 0.5180
L19.0320 0.5040
" />
<path d="M19.0320 0.5320
L19.0320 0.5180
" />
<path d="M19.0320 23.7740
L18.9690 23.7740
" />
<path d="M19.0320 23.7740
L19.0320 0.5320
" />
<path d="M19.0320 23.7740
L19.1000 23.7760
" />
<path d="M19.0320 23.7740
L19.1680 23.7760
" />
<path d="M19.0320 24.1540
L18.9690 24.1540
" />
<path d="M19.0320 24.2820
L18.7780 24.2820
" />
<path d="M19.0610 0.4090
L19.0880 0.4180
" />
<path d="M19.0610 0.4090
L19.0880 0.4180
" />
<path d="M19.0610 0.5320
L19.0320 0.5320
" />
<path d="M19.0610 24.1510
L19.0320 24.1540
" />
<path d="M19.0770 0.2820
L19.1190 0.2940
" />
<path d="M19.0770 24.2780
L19.0320 24.2820
" />
<path d="M19.0880 0.4180
L19.1120 0.4330
" />
<path d="M19.0880 0.4180
L19.1120 0.4330
" />
<path d="M19.0880 24.1420
L19.0610 24.1510
" />
<path d="M19.0890 0.5320
L19.0610 0.5320
" />
<path d="M19.1120 0.4330
L19.1320 0.4530
" />
<path d="M19.1120 0.4330
L19.1320 0.4530
" />
<path d="M19.1120 24.1270
L19.0880 24.1420
" />
<path d="M19.1160 0.5320
L19.0890 0.5320
" />
<path d="M19.1190 0.2940
L19.1590 0.3130
" />
<path d="M19.1190 24.2660
L19.0770 24.2780
" />
<path d="M19.1320 0.4530
L19.1470 0.4770
" />
<path d="M19.1320 0.4530
L19.1470 0.4770
" />
<path d="M19.1320 24.1070
L19.1120 24.1270
" />
<path d="M19.1430 0.5320
L19.1160 0.5320
" />
<path d="M19.1470 0.4770
L19.1560 0.5040
" />
<path d="M19.1470 0.4770
L19.1560 0.5040
" />
<path d="M19.1470 24.0830
L19.1320 24.1070
" />
<path d="M19.1560 0.5040
L19.1590 0.5320
" />
<path d="M19.1560 0.5040
L19.1590 0.5320
" />
<path d="M19.1560 24.0560
L19.1470 24.0830
" />
<path d="M19.1590 0.3130
L19.1960 0.3380
" />
<path d="M19.1590 23.8870
L19.1590 23.7760
" />
<path d="M19.1590 23.8870
L19.2860 23.8870
" />
<path d="M19.1590 24.0280
L19.1560 24.0560
" />
<path d="M19.1590 24.0280
L19.1590 23.8870
" />
<path d="M19.1590 24.2470
L19.1190 24.2660
" />
<path d="M19.1680 0.5320
L19.1430 0.5320
" />
<path d="M19.1680 23.7760
L19.1000 23.7760
" />
<path d="M19.1680 23.7760
L19.2230 23.7740
" />
<path d="M19.1910 0.5320
L19.1680 0.5320
" />
<path d="M19.1960 0.3380
L19.2270 0.3690
" />
<path d="M19.1960 24.2220
L19.1590 24.2470
" />
<path d="M19.2120 0.5320
L19.1910 0.5320
" />
<path d="M19.2230 23.7740
L19.2450 23.7700
" />
<path d="M19.2270 0.3690
L19.2520 0.4060
" />
<path d="M19.2270 24.1910
L19.1960 24.2220
" />
<path d="M19.2310 0.5320
L19.2120 0.5320
" />
<path d="M19.2450 23.7700
L19.2620 23.7640
" />
<path d="M19.2470 0.5320
L19.2310 0.5320
" />
<path d="M19.2520 0.4060
L19.2710 0.4460
" />
<path d="M19.2520 24.1540
L19.2270 24.1910
" />
<path d="M19.2610 0.5320
L19.2470 0.5320
" />
<path d="M19.2620 23.7640
L19.2740 23.7560
" />
<path d="M19.2710 0.4460
L19.2830 0.4880
" />
<path d="M19.2710 24.1140
L19.2520 24.1540
" />
<path d="M19.2720 0.5320
L19.2610 0.5320
" />
<path d="M19.2740 23.7560
L19.2810 23.7440
" />
<path d="M19.2800 0.5320
L19.2720 0.5320
" />
<path d="M19.2810 23.7440
L19.2850 23.7290
" />
<path d="M19.2830 0.4880
L19.2860 0.5320
" />
<path d="M19.2830 24.0720
L19.2710 24.1140
" />
<path d="M19.2850 0.5320
L19.2800 0.5320
" />
<path d="M19.2850 23.7290
L19.2860 23.7100
" />
<path d="M19.2860 0.5320
L19.2850 0.5320
" />
<path d="M19.2860 0.5320
L19.2860 23.7100
" />
<path d="M19.2860 1.5480
L19.3230 1.5930
" />
<path d="M19.2860 13.0420
L19.3150 13.0450
" />
<path d="M19.2860 13.9310
L19.3150 13.9280
" />
<path d="M19.2860 13.9310
L19.3150 13.9280
" />
<path d="M19.2860 23.8870
L19.2860 23.1040
" />
<path d="M19.2860 24.0280
L19.2830 24.0720
" />
<path d="M19.2860 24.0280
L19.2860 23.8870
" />
<path d="M19.2880 1.2130
L19.2860 1.1680
" />
<path d="M19.2950 1.2590
L19.2880 1.2130
" />
<path d="M19.3050 1.3050
L19.2950 1.2590
" />
<path d="M19.3150 13.0450
L19.3420 13.0550
" />
<path d="M19.3150 13.9280
L19.3420 13.9180
" />
<path d="M19.3150 13.9280
L19.3420 13.9180
" />
<path d="M19.3200 1.3500
L19.3050 1.3050
" />
<path d="M19.3230 1.5930
L19.4400 1.7280
" />
<path d="M19.3390 1.3930
L19.3200 1.3500
" />
<path d="M19.3420 13.0550
L19.3660 13.0700
" />
<path d="M19.3420 13.9180
L19.3660 13.9030
" />
<path d="M19.3420 13.9180
L19.3660 13.9030
" />
<path d="M19.3620 1.4340
L19.3390 1.3930
" />
<path d="M19.3660 13.0700
L19.3860 13.0900
" />
<path d="M19.3660 13.9030
L19.3860 13.8830
" />
<path d="M19.3660 13.9030
L19.3860 13.8830
" />
<path d="M19.3860 13.0900
L19.4010 13.1140
" />
<path d="M19.3860 13.8830
L19.4010 13.8590
" />
<path d="M19.3860 13.8830
L19.4010 13.8590
" />
<path d="M19.3880 1.4720
L19.3620 1.4340
" />
<path d="M19.4010 13.1140
L19.4100 13.1410
" />
<path d="M19.4010 13.8590
L19.4100 13.8320
" />
<path d="M19.4010 13.8590
L19.4100 13.8320
" />
<path d="M19.4100 13.1410
L19.4130 13.1690
" />
<path d="M19.4100 13.8320
L19.4130 13.8040
" />
<path d="M19.4100 13.8320
L19.4130 13.8040
" />
<path d="M19.4130 13.1690
L19.4130 13.1770
" />
<path d="M19.4130 13.1770
L19.4130 13.2000
" />
<path d="M19.4130 13.2000
L19.4130 13.2380
" />
<path d="M19.4130 13.2380
L19.4130 13.2890
" />
<path d="M19.4130 13.2890
L19.4130 13.3490
" />
<path d="M19.4130 13.3490
L19.4130 13.4160
" />
<path d="M19.4130 13.4160
L19.4130 13.4860
" />
<path d="M19.4130 13.4860
L19.4130 13.5570
" />
<path d="M19.4130 13.5570
L19.4130 13.6240
" />
<path d="M19.4130 13.6240
L19.4130 13.6840
" />
<path d="M19.4130 13.6840
L19.4130 13.7350
" />
<path d="M19.4130 13.7350
L19.4130 13.7730
" />
<path d="M19.4130 13.7730
L19.4130 13.7960
" />
<path d="M19.4130 13.7960
L19.4130 13.8040
" />
<path d="M19.4170 1.5080
L19.3880 1.4720
" />
<path d="M19.4400 1.7280
L19.5530 1.8690
" />
<path d="M19.5370 1.6460
L19.4170 1.5080
" />
<path d="M19.5530 1.8690
L19.6620 2.0160
" />
<path d="M19.6540 1.7910
L19.5370 1.6460
" />
<path d="M19.6620 2.0160
L19.7670 2.1680
" />
<path d="M19.7660 1.9420
L19.6540 1.7910
" />
<path d="M19.7670 2.1680
L19.8660 2.3260
" />
<path d="M19.7940 7.5810
L19.7940 8.0620
" />
<path d="M19.7940 8.0620
L19.7940 8.1180
" />
<path d="M19.7940 8.1180
L19.7940 8.1740
" />
<path d="M19.7940 8.1740
L19.7940 8.2280
" />
<path d="M19.7940 8.2280
L19.7940 8.2790
" />
<path d="M19.7940 8.2790
L19.7940 8.3280
" />
<path d="M19.7940 8.3280
L19.7940 8.3740
" />
<path d="M19.7940 8.3740
L19.7940 8.4160
" />
<path d="M19.7940 8.4160
L19.7940 8.4530
" />
<path d="M19.7940 8.4530
L19.7940 8.4850
" />
<path d="M19.7940 8.4850
L19.7940 8.5120
" />
<path d="M19.7940 8.5120
L19.7940 8.5330
" />
<path d="M19.7940 8.5330
L19.7940 8.5490
" />
<path d="M19.7940 8.5490
L19.7940 8.5580
" />
<path d="M19.7940 8.5580
L19.7940 8.5610
" />
<path d="M19.7960 7.5390
L19.7940 7.5810
" />
<path d="M19.8000 7.4970
L19.7960 7.5390
" />
<path d="M19.8070 7.4540
L19.8000 7.4970
" />
<path d="M19.8170 7.4130
L19.8070 7.4540
" />
<path d="M19.8300 7.3720
L19.8170 7.4130
" />
<path d="M19.8450 7.3320
L19.8300 7.3720
" />
<path d="M19.8630 7.2940
L19.8450 7.3320
" />
<path d="M19.8660 2.3260
L19.9610 2.4890
" />
<path d="M19.8730 2.0980
L19.7660 1.9420
" />
<path d="M19.8830 7.2570
L19.8630 7.2940
" />
<path d="M19.9210 7.5810
L19.9230 7.5470
" />
<path d="M19.9210 8.0620
L19.7940 8.0620
" />
<path d="M19.9210 8.0620
L19.9210 7.5810
" />
<path d="M19.9210 8.1180
L19.9210 8.0620
" />
<path d="M19.9210 8.1740
L19.9210 8.1180
" />
<path d="M19.9210 8.2280
L19.9210 8.1740
" />
<path d="M19.9210 8.2790
L19.9210 8.2280
" />
<path d="M19.9210 8.3280
L19.9210 8.2790
" />
<path d="M19.9210 8.3740
L19.9210 8.3280
" />
<path d="M19.9210 8.4160
L19.9210 8.3740
" />
<path d="M19.9210 8.4530
L19.9210 8.4160
" />
<path d="M19.9210 8.4850
L19.9210 8.4530
" />
<path d="M19.9210 8.5120
L19.9210 8.4850
" />
<path d="M19.9210 8.5330
L19.9210 8.5120
" />
<path d="M19.9210 8.5490
L19.9210 8.5330
" />
<path d="M19.9210 8.5580
L19.9210 8.5490
" />
<path d="M19.9210 8.5610
L19.7940 8.5610
" />
<path d="M19.9210 8.5610
L19.9210 8.5580
" />
<path d="M19.9230 7.5470
L19.9260 7.5130
" />
<path d="M19.9260 7.5130
L19.9320 7.4800
" />
<path d="M19.9320 7.4800
L19.9400 7.4470
" />
<path d="M19.9400 7.4470
L19.9500 7.4140
" />
<path d="M19.9500 7.4140
L19.9620 7.3820
" />
<path d="M19.9610 2.4890
L20.0490 2.6570
" />
<path d="M19.9620 7.3820
L19.9760 7.3510
" />
<path d="M19.9720 7.1010
L19.8830 7.2570
" />
<path d="M19.9750 2.2600
L19.8730 2.0980
" />
<path d="M19.9760 7.3510
L19.9930 7.3220
" />
<path d="M19.9930 7.3220
L20.0830 7.1620
" />
<path d="M20.0490 2.6570
L20.1310 2.8300
" />
<path d="M20.0550 6.9410
L19.9720 7.1010
" />
<path d="M20.0720 2.4280
L19.9750 2.2600
" />
<path d="M20.0830 7.1620
L20.1690 6.9970
" />
<path d="M20.1310 2.8300
L20.2070 3.0070
" />
<path d="M20.1340 6.7750
L20.0550 6.9410
" />
<path d="M20.1620 2.6000
L20.0720 2.4280
" />
<path d="M20.1690 6.9970
L20.2500 6.8270
" />
<path d="M20.2060 6.6050
L20.1340 6.7750
" />
<path d="M20.2070 3.0070
L20.2760 3.1880
" />
<path d="M20.2470 2.7780
L20.1620 2.6000
" />
<path d="M20.2500 6.8270
L20.3240 6.6530
" />
<path d="M20.2730 6.4310
L20.2060 6.6050
" />
<path d="M20.2760 3.1880
L20.3370 3.3720
" />
<path d="M20.3240 2.9590
L20.2470 2.7780
" />
<path d="M20.3240 6.6530
L20.3920 6.4740
" />
<path d="M20.3330 6.2520
L20.2730 6.4310
" />
<path d="M20.3370 3.3720
L20.3920 3.5600
" />
<path d="M20.3610 3.0520
L20.3240 2.9590
" />
<path d="M20.3870 6.0700
L20.3330 6.2520
" />
<path d="M20.3920 3.5600
L20.4160 3.6550
" />
<path d="M20.3920 6.4740
L20.4540 6.2910
" />
<path d="M20.3950 3.1450
L20.3610 3.0520
" />
<path d="M20.4160 3.6550
L20.4390 3.7500
" />
<path d="M20.4280 3.2390
L20.3950 3.1450
" />
<path d="M20.4330 5.8850
L20.3870 6.0700
" />
<path d="M20.4390 3.7500
L20.4600 3.8460
" />
<path d="M20.4540 6.2910
L20.5090 6.1040
" />
<path d="M20.4590 3.3340
L20.4280 3.2390
" />
<path d="M20.4600 3.8460
L20.4780 3.9430
" />
<path d="M20.4730 5.6970
L20.4330 5.8850
" />
<path d="M20.4780 3.9430
L20.4950 4.0400
" />
<path d="M20.4880 3.4300
L20.4590 3.3340
" />
<path d="M20.4950 4.0400
L20.5100 4.1370
" />
<path d="M20.5050 5.5060
L20.4730 5.6970
" />
<path d="M20.5090 6.1040
L20.5570 5.9140
" />
<path d="M20.5100 4.1370
L20.5220 4.2350
" />
<path d="M20.5150 3.5270
L20.4880 3.4300
" />
<path d="M20.5220 4.2350
L20.5330 4.3330
" />
<path d="M20.5300 5.3130
L20.5050 5.5060
" />
<path d="M20.5330 4.3330
L20.5420 4.4310
" />
<path d="M20.5400 3.6240
L20.5150 3.5270
" />
<path d="M20.5420 4.4310
L20.5480 4.5290
" />
<path d="M20.5460 5.1180
L20.5300 5.3130
" />
<path d="M20.5480 4.5290
L20.5530 4.6270
" />
<path d="M20.5520 5.0200
L20.5460 5.1180
" />
<path d="M20.5530 4.6270
L20.5560 4.7260
" />
<path d="M20.5550 4.9220
L20.5520 5.0200
" />
<path d="M20.5560 4.7260
L20.5560 4.8240
" />
<path d="M20.5560 4.8240
L20.5550 4.9220
" />
<path d="M20.5570 5.9140
L20.5980 5.7200
" />
<path d="M20.5630 3.7220
L20.5400 3.6240
" />
<path d="M20.5840 3.8210
L20.5630 3.7220
" />
<path d="M20.5980 5.7200
L20.6150 5.6220
" />
<path d="M20.6030 3.9200
L20.5840 3.8210
" />
<path d="M20.6150 5.6220
L20.6310 5.5240
" />
<path d="M20.6200 4.0190
L20.6030 3.9200
" />
<path d="M20.6310 5.5240
L20.6440 5.4250
" />
<path d="M20.6350 4.1190
L20.6200 4.0190
" />
<path d="M20.6440 5.4250
L20.6560 5.3260
" />
<path d="M20.6480 4.2200
L20.6350 4.1190
" />
<path d="M20.6560 5.3260
L20.6650 5.2260
" />
<path d="M20.6590 4.3200
L20.6480 4.2200
" />
<path d="M20.6650 5.2260
L20.6730 5.1260
" />
<path d="M20.6680 4.4210
L20.6590 4.3200
" />
<path d="M20.6730 5.1260
L20.6780 5.0260
" />
<path d="M20.6750 4.5220
L20.6680 4.4210
" />
<path d="M20.6780 5.0260
L20.6820 4.9250
" />
<path d="M20.6800 4.6230
L20.6750 4.5220
" />
<path d="M20.6820 4.9250
L20.6830 4.8240
" />
<path d="M20.6830 4.7240
L20.6800 4.6230
" />
<path d="M20.6830 4.8240
L20.6830 4.7240
" />
</g> 
</svg>
