<?xml version="1.0" standalone="no"?>
 <!DOCTYPE svg PUBLIC "-//W3C//DTD SVG 1.1//EN" 
 "http://www.w3.org/Graphics/SVG/1.1/DTD/svg11.dtd"> 
<svg
  xmlns:svg="http://www.w3.org/2000/svg"
  xmlns="http://www.w3.org/2000/svg"
  xmlns:xlink="http://www.w3.org/1999/xlink"
  version="1.1"
  width="8.3312mm" height="15.8496mm" viewBox="0.0000 0.0000 8.3312 15.8496">
<title>SVG Image created as outline.svg date 2025/06/16 09:17:42 </title>
  <desc>Image generated by PCBNEW </desc>
<g style="fill:#000000; fill-opacity:1.0000;stroke:#000000; stroke-opacity:1.0000;
stroke-linecap:round; stroke-linejoin:round;"
 transform="translate(0 0) scale(1 1)">
</g>
<g style="fill:none; 
stroke:#000000; stroke-width:0.0200; stroke-opacity:1; 
stroke-linecap:round; stroke-linejoin:round;">
<path d="M0.4250 0.4250
L0.4250 15.4250
" />
<path d="M0.4250 15.4250
L7.9250 15.4250
" />
<path d="M3.5710 4.8370
L3.5710 5.1810
" />
<path d="M3.5710 5.1810
L4.2270 5.3690
" />
<path d="M3.5710 5.6320
L3.5710 6.0010
" />
<path d="M3.5710 6.0010
L4.2270 5.7280
" />
<path d="M3.5710 6.1360
L3.5710 7.4390
" />
<path d="M3.5710 7.4390
L4.6470 7.7480
" />
<path d="M3.5710 7.6880
L3.5710 8.0100
" />
<path d="M3.5710 8.0100
L4.6530 8.5810
" />
<path d="M3.5710 8.2710
L3.5710 8.5780
" />
<path d="M3.5710 8.5780
L4.7800 8.9260
" />
<path d="M3.5710 8.7240
L3.5710 9.6370
" />
<path d="M3.5710 9.6370
L3.8010 9.7030
" />
<path d="M3.5710 9.9900
L3.5710 10.3350
" />
<path d="M3.5710 10.3350
L4.5470 10.6150
" />
<path d="M3.8010 6.5460
L4.1010 6.6310
" />
<path d="M3.8010 7.2160
L3.8010 6.5460
" />
<path d="M3.8010 9.1330
L4.1010 9.2190
" />
<path d="M3.8010 9.7030
L3.8010 9.1330
" />
<path d="M3.9160 7.9670
L4.7800 8.0130
" />
<path d="M4.1010 6.6310
L4.1010 7.1510
" />
<path d="M4.1010 7.1510
L4.3250 7.2140
" />
<path d="M4.1010 9.2190
L4.1010 9.7380
" />
<path d="M4.1010 9.7380
L4.3250 9.8020
" />
<path d="M4.2270 5.3690
L3.5710 5.6320
" />
<path d="M4.2270 5.7280
L4.7800 6.2930
" />
<path d="M4.2640 5.3810
L4.7800 5.5290
" />
<path d="M4.3250 6.6950
L4.5500 6.7610
" />
<path d="M4.3250 7.2140
L4.3250 6.6950
" />
<path d="M4.3250 9.2830
L4.5500 9.3490
" />
<path d="M4.3250 9.8020
L4.3250 9.2830
" />
<path d="M4.5470 10.2710
L3.5710 9.9900
" />
<path d="M4.5470 10.6150
L4.5470 10.9460
" />
<path d="M4.5470 10.9460
L4.7800 11.0130
" />
<path d="M4.5480 9.9030
L4.5470 10.2710
" />
<path d="M4.5500 6.7610
L4.5500 7.3120
" />
<path d="M4.5500 7.3120
L4.7800 7.3770
" />
<path d="M4.5500 9.3490
L4.5480 9.9030
" />
<path d="M4.6470 7.7480
L3.5710 7.6880
" />
<path d="M4.6530 8.5810
L3.5710 8.2710
" />
<path d="M4.7800 5.1840
L3.5710 4.8370
" />
<path d="M4.7800 5.5290
L4.7800 5.1840
" />
<path d="M4.7800 5.8950
L4.2640 5.3810
" />
<path d="M4.7800 6.2930
L4.7800 5.8950
" />
<path d="M4.7800 6.4840
L3.5710 6.1360
" />
<path d="M4.7800 7.3770
L4.7800 6.4840
" />
<path d="M4.7800 7.4980
L3.8010 7.2160
" />
<path d="M4.7800 8.0130
L4.7800 7.4980
" />
<path d="M4.7800 8.3950
L3.9160 7.9670
" />
<path d="M4.7800 8.9260
L4.7800 8.3950
" />
<path d="M4.7800 9.0720
L3.5710 8.7240
" />
<path d="M4.7800 11.0130
L4.7800 9.0720
" />
<path d="M7.9250 0.4250
L0.4250 0.4250
" />
<path d="M7.9250 15.4250
L7.9250 0.4250
" />
</g> 
</svg>
