<?xml version="1.0" standalone="no"?>
 <!DOCTYPE svg PUBLIC "-//W3C//DTD SVG 1.1//EN" 
 "http://www.w3.org/Graphics/SVG/1.1/DTD/svg11.dtd"> 
<svg
  xmlns:svg="http://www.w3.org/2000/svg"
  xmlns="http://www.w3.org/2000/svg"
  xmlns:xlink="http://www.w3.org/1999/xlink"
  version="1.1"
  width="4.2418mm" height="6.0452mm" viewBox="0.0000 0.0000 4.2418 6.0452">
<title>SVG Image created as outline.svg date 2025/04/04 10:06:34 </title>
  <desc>Image generated by PCBNEW </desc>
<g style="fill:#000000; fill-opacity:1.0000;stroke:#000000; stroke-opacity:1.0000;
stroke-linecap:round; stroke-linejoin:round;"
 transform="translate(0 0) scale(1 1)">
</g>
<g style="fill:none; 
stroke:#000000; stroke-width:0.0200; stroke-opacity:1; 
stroke-linecap:round; stroke-linejoin:round;">
<path d="M0.5250 0.6500
L0.5250 1.6240
" />
<path d="M0.5250 1.9240
L0.5250 4.1250
" />
<path d="M0.5250 1.9240
L0.5310 1.9240
" />
<path d="M0.5250 4.4230
L0.5250 5.3990
" />
<path d="M0.5250 4.4230
L0.5310 4.4230
" />
<path d="M0.5250 5.3990
L0.5330 5.3990
" />
<path d="M0.5310 1.6240
L0.5250 1.6240
" />
<path d="M0.5310 1.9240
L0.5350 1.9240
" />
<path d="M0.5310 4.1250
L0.5250 4.1250
" />
<path d="M0.5310 4.4230
L0.5350 4.4230
" />
<path d="M0.5330 0.6490
L0.5250 0.6500
" />
<path d="M0.5330 5.3990
L0.5390 5.3990
" />
<path d="M0.5350 1.6240
L0.5310 1.6240
" />
<path d="M0.5350 1.9240
L0.5410 1.9240
" />
<path d="M0.5350 4.1250
L0.5310 4.1250
" />
<path d="M0.5350 4.4230
L0.5410 4.4230
" />
<path d="M0.5390 0.6490
L0.5330 0.6490
" />
<path d="M0.5390 5.3990
L0.5450 5.4000
" />
<path d="M0.5410 1.6240
L0.5350 1.6240
" />
<path d="M0.5410 1.9240
L0.5450 1.9220
" />
<path d="M0.5410 4.1250
L0.5350 4.1250
" />
<path d="M0.5410 4.4230
L0.5450 4.4230
" />
<path d="M0.5450 0.6470
L0.5390 0.6490
" />
<path d="M0.5450 1.6260
L0.5410 1.6240
" />
<path d="M0.5450 1.9220
L0.5510 1.9220
" />
<path d="M0.5450 4.1250
L0.5410 4.1250
" />
<path d="M0.5450 4.4230
L0.5510 4.4210
" />
<path d="M0.5450 5.4000
L0.5510 5.4020
" />
<path d="M0.5510 0.6460
L0.5450 0.6470
" />
<path d="M0.5510 1.6260
L0.5450 1.6260
" />
<path d="M0.5510 1.9220
L0.5550 1.9220
" />
<path d="M0.5510 4.1270
L0.5450 4.1250
" />
<path d="M0.5510 4.4210
L0.5550 4.4210
" />
<path d="M0.5510 5.4020
L0.5570 5.4030
" />
<path d="M0.5550 1.6260
L0.5510 1.6260
" />
<path d="M0.5550 1.9220
L0.5610 1.9200
" />
<path d="M0.5550 4.1270
L0.5510 4.1270
" />
<path d="M0.5550 4.4210
L0.5610 4.4210
" />
<path d="M0.5570 0.6460
L0.5510 0.6460
" />
<path d="M0.5570 5.4030
L0.5630 5.4040
" />
<path d="M0.5610 1.6280
L0.5550 1.6260
" />
<path d="M0.5610 1.9200
L0.5650 1.9180
" />
<path d="M0.5610 4.1270
L0.5550 4.1270
" />
<path d="M0.5610 4.4210
L0.5650 4.4190
" />
<path d="M0.5630 0.6430
L0.5570 0.6460
" />
<path d="M0.5630 5.4040
L0.5690 5.4070
" />
<path d="M0.5650 1.6300
L0.5610 1.6280
" />
<path d="M0.5650 1.9180
L0.5690 1.9180
" />
<path d="M0.5650 4.1290
L0.5610 4.1270
" />
<path d="M0.5650 4.4190
L0.5690 4.4170
" />
<path d="M0.5690 0.6420
L0.5630 0.6430
" />
<path d="M0.5690 1.6300
L0.5650 1.6300
" />
<path d="M0.5690 1.9180
L0.5750 1.9160
" />
<path d="M0.5690 4.1310
L0.5650 4.1290
" />
<path d="M0.5690 4.4170
L0.5750 4.4170
" />
<path d="M0.5690 5.4070
L0.5730 5.4080
" />
<path d="M0.5730 0.6390
L0.5690 0.6420
" />
<path d="M0.5730 5.4080
L0.5790 5.4110
" />
<path d="M0.5750 1.6320
L0.5690 1.6300
" />
<path d="M0.5750 1.9160
L0.5790 1.9140
" />
<path d="M0.5750 4.1310
L0.5690 4.1310
" />
<path d="M0.5750 4.4170
L0.5790 4.4150
" />
<path d="M0.5790 0.6380
L0.5730 0.6390
" />
<path d="M0.5790 1.6340
L0.5750 1.6320
" />
<path d="M0.5790 1.9140
L0.5830 1.9120
" />
<path d="M0.5790 4.1330
L0.5750 4.1310
" />
<path d="M0.5790 4.4150
L0.5830 4.4130
" />
<path d="M0.5790 5.4110
L0.5850 5.4140
" />
<path d="M0.5830 1.6360
L0.5790 1.6340
" />
<path d="M0.5830 1.9120
L0.5870 1.9100
" />
<path d="M0.5830 4.1350
L0.5790 4.1330
" />
<path d="M0.5830 4.4130
L0.5870 4.4110
" />
<path d="M0.5850 0.6340
L0.5790 0.6380
" />
<path d="M0.5850 5.4140
L0.5900 5.4160
" />
<path d="M0.5870 1.6380
L0.5830 1.6360
" />
<path d="M0.5870 1.9100
L0.5920 1.9080
" />
<path d="M0.5870 4.1370
L0.5830 4.1350
" />
<path d="M0.5870 4.4110
L0.5920 4.4090
" />
<path d="M0.5900 0.6310
L0.5850 0.6340
" />
<path d="M0.5900 5.4160
L0.5960 5.4200
" />
<path d="M0.5920 1.6400
L0.5870 1.6380
" />
<path d="M0.5920 1.9080
L0.5960 1.9060
" />
<path d="M0.5920 4.1390
L0.5870 4.1370
" />
<path d="M0.5920 4.4090
L0.5960 4.4070
" />
<path d="M0.5960 0.6270
L0.5900 0.6310
" />
<path d="M0.5960 1.6420
L0.5920 1.6400
" />
<path d="M0.5960 1.9060
L0.6000 1.9040
" />
<path d="M0.5960 4.1410
L0.5920 4.1390
" />
<path d="M0.5960 4.4070
L0.6000 4.4030
" />
<path d="M0.5960 5.4200
L0.6000 5.4230
" />
<path d="M0.6000 0.6250
L0.5960 0.6270
" />
<path d="M0.6000 5.4230
L0.6060 5.4270
" />
<path d="M0.6020 0.7060
L0.6020 0.7110
" />
<path d="M0.6020 0.7110
L0.6020 0.7180
" />
<path d="M0.6020 0.7180
L0.6020 0.7240
" />
<path d="M0.6020 0.7240
L0.6020 1.6440
" />
<path d="M0.6020 1.6440
L0.5960 1.6420
" />
<path d="M0.6020 1.9040
L0.6020 4.1450
" />
<path d="M0.6020 1.9040
L0.6060 1.9020
" />
<path d="M0.6020 4.1450
L0.5960 4.1410
" />
<path d="M0.6020 4.4030
L0.6020 5.3180
" />
<path d="M0.6020 4.4030
L0.6060 4.4010
" />
<path d="M0.6020 5.3180
L0.6020 5.3260
" />
<path d="M0.6020 5.3260
L0.6020 5.3310
" />
<path d="M0.6020 5.3310
L0.6020 5.3380
" />
<path d="M0.6020 5.3380
L0.6040 5.3430
" />
<path d="M0.6040 0.6940
L0.6040 0.6990
" />
<path d="M0.6040 0.6990
L0.6020 0.7060
" />
<path d="M0.6040 5.3430
L0.6040 5.3500
" />
<path d="M0.6040 5.3500
L0.6060 5.3550
" />
<path d="M0.6060 0.6210
L0.6000 0.6250
" />
<path d="M0.6060 0.6870
L0.6040 0.6940
" />
<path d="M0.6060 1.9020
L0.6100 1.8980
" />
<path d="M0.6060 4.4010
L0.6100 4.3990
" />
<path d="M0.6060 5.3550
L0.6080 5.3620
" />
<path d="M0.6060 5.4270
L0.6100 5.4310
" />
<path d="M0.6080 0.6820
L0.6060 0.6870
" />
<path d="M0.6080 5.3620
L0.6100 5.3670
" />
<path d="M0.6100 0.6170
L0.6060 0.6210
" />
<path d="M0.6100 0.6770
L0.6080 0.6820
" />
<path d="M0.6100 1.6500
L0.6020 1.6440
" />
<path d="M0.6100 1.8980
L0.6140 1.8960
" />
<path d="M0.6100 4.1490
L0.6020 4.1450
" />
<path d="M0.6100 4.3990
L0.6140 4.3950
" />
<path d="M0.6100 5.3670
L0.6120 5.3720
" />
<path d="M0.6100 5.4310
L0.6140 5.4350
" />
<path d="M0.6120 0.6700
L0.6100 0.6770
" />
<path d="M0.6120 5.3720
L0.6160 5.3780
" />
<path d="M0.6140 0.6130
L0.6100 0.6170
" />
</g>
<g style="fill:#000000; fill-opacity:1.0000; stroke:none;">
<circle cx="0.6140" cy="0.6130" r="0.0100" /> 
</g>
<g style="fill:none; 
stroke:#000000; stroke-width:0.0200; stroke-opacity:1; 
stroke-linecap:round; stroke-linejoin:round;">
<path d="M0.6140 1.8960
L0.6180 1.8920
" />
<path d="M0.6140 4.3950
L0.6180 4.3930
" />
</g>
<g style="fill:#000000; fill-opacity:1.0000; stroke:none;">
<circle cx="0.6140" cy="5.4350" r="0.0100" /> 
</g>
<g style="fill:none; 
stroke:#000000; stroke-width:0.0200; stroke-opacity:1; 
stroke-linecap:round; stroke-linejoin:round;">
<path d="M0.6140 5.4350
L0.6180 5.4400
" />
<path d="M0.6160 0.6660
L0.6120 0.6700
" />
<path d="M0.6160 5.3780
L0.6180 5.3830
" />
<path d="M0.6180 0.6070
L0.6140 0.6130
" />
<path d="M0.6180 0.6590
L0.6160 0.6660
" />
<path d="M0.6180 1.6560
L0.6100 1.6500
" />
<path d="M0.6180 1.8920
L0.6220 1.8900
" />
<path d="M0.6180 4.1550
L0.6100 4.1490
" />
<path d="M0.6180 4.3930
L0.6220 4.3890
" />
<path d="M0.6180 5.3830
L0.6220 5.3880
" />
<path d="M0.6180 5.4400
L0.6220 5.4440
" />
<path d="M0.6220 0.6030
L0.6180 0.6070
" />
<path d="M0.6220 0.6540
L0.6180 0.6590
" />
<path d="M0.6220 1.8900
L0.6260 1.8860
" />
<path d="M0.6220 4.3890
L0.6260 4.3870
" />
<path d="M0.6220 5.3880
L0.6260 5.3940
" />
<path d="M0.6220 5.4440
L0.6260 5.4500
" />
<path d="M0.6260 0.5980
L0.6220 0.6030
" />
<path d="M0.6260 0.6500
L0.6220 0.6540
" />
<path d="M0.6260 1.6620
L0.6180 1.6560
" />
<path d="M0.6260 1.8860
L0.6280 1.8840
" />
<path d="M0.6260 4.1610
L0.6180 4.1550
" />
<path d="M0.6260 4.3870
L0.6280 4.3830
" />
<path d="M0.6260 5.3940
L0.6300 5.3990
" />
<path d="M0.6260 5.4500
L0.6300 5.4550
" />
<path d="M0.6280 1.8840
L0.6320 1.8800
" />
<path d="M0.6280 4.3830
L0.6320 4.3790
" />
<path d="M0.6300 0.5940
L0.6260 0.5980
" />
<path d="M0.6300 0.6450
L0.6260 0.6500
" />
<path d="M0.6300 5.3990
L0.6340 5.4030
" />
<path d="M0.6300 5.4550
L0.6340 5.4600
" />
<path d="M0.6320 1.6680
L0.6260 1.6620
" />
<path d="M0.6320 1.8800
L0.6360 1.8760
" />
<path d="M0.6320 4.1690
L0.6260 4.1610
" />
<path d="M0.6320 4.3790
L0.6360 4.3770
" />
<path d="M0.6340 0.5890
L0.6300 0.5940
" />
<path d="M0.6340 0.6410
L0.6300 0.6450
" />
<path d="M0.6340 5.4030
L0.6380 5.4070
" />
<path d="M0.6340 5.4600
L0.6360 5.4650
" />
<path d="M0.6360 0.5820
L0.6340 0.5890
" />
<path d="M0.6360 1.8760
L0.6380 1.8720
" />
<path d="M0.6360 4.3770
L0.6380 4.3730
" />
<path d="M0.6360 5.4650
L0.6400 5.4710
" />
<path d="M0.6380 0.6350
L0.6340 0.6410
" />
</g>
<g style="fill:#000000; fill-opacity:1.0000; stroke:none;">
<circle cx="0.6380" cy="0.6350" r="0.0100" /> 
</g>
<g style="fill:none; 
stroke:#000000; stroke-width:0.0200; stroke-opacity:1; 
stroke-linecap:round; stroke-linejoin:round;">
<path d="M0.6380 1.6760
L0.6320 1.6680
" />
<path d="M0.6380 1.8720
L0.6420 1.8690
" />
<path d="M0.6380 4.1750
L0.6320 4.1690
" />
<path d="M0.6380 4.3730
L0.6420 4.3690
" />
</g>
<g style="fill:#000000; fill-opacity:1.0000; stroke:none;">
<circle cx="0.6380" cy="5.4070" r="0.0100" /> 
</g>
<g style="fill:none; 
stroke:#000000; stroke-width:0.0200; stroke-opacity:1; 
stroke-linecap:round; stroke-linejoin:round;">
<path d="M0.6380 5.4070
L0.6420 5.4110
" />
<path d="M0.6400 0.5770
L0.6360 0.5820
" />
<path d="M0.6400 5.4710
L0.6420 5.4760
" />
<path d="M0.6420 0.5720
L0.6400 0.5770
" />
<path d="M0.6420 0.6310
L0.6380 0.6350
" />
<path d="M0.6420 1.8690
L0.6460 1.8650
" />
<path d="M0.6420 4.3690
L0.6460 4.3650
" />
<path d="M0.6420 5.4110
L0.6460 5.4150
" />
<path d="M0.6420 5.4760
L0.6440 5.4810
" />
<path d="M0.6440 0.5660
L0.6420 0.5720
" />
<path d="M0.6440 5.4810
L0.6460 5.4880
" />
<path d="M0.6460 0.5610
L0.6440 0.5660
" />
<path d="M0.6460 0.6270
L0.6420 0.6310
" />
<path d="M0.6460 1.6820
L0.6380 1.6760
" />
<path d="M0.6460 1.8650
L0.6480 1.8610
" />
<path d="M0.6460 4.1820
L0.6380 4.1750
" />
<path d="M0.6460 4.3650
L0.6480 4.3610
" />
<path d="M0.6460 5.4150
L0.6520 5.4190
" />
<path d="M0.6460 5.4880
L0.6480 5.4930
" />
<path d="M0.6480 0.5490
L0.6480 0.5540
" />
<path d="M0.6480 0.5540
L0.6460 0.5610
" />
<path d="M0.6480 1.8610
L0.6500 1.8570
" />
<path d="M0.6480 4.3610
L0.6500 4.3570
" />
<path d="M0.6480 5.4930
L0.6480 5.5000
" />
<path d="M0.6480 5.5000
L0.6500 5.5050
" />
<path d="M0.6500 0.5250
L0.6500 0.5300
" />
<path d="M0.6500 0.5300
L0.6500 0.5370
" />
<path d="M0.6500 0.5370
L0.6500 0.5420
" />
<path d="M0.6500 0.5420
L0.6480 0.5490
" />
<path d="M0.6500 1.6900
L0.6460 1.6820
" />
<path d="M0.6500 1.8570
L0.6540 1.8530
" />
<path d="M0.6500 4.1900
L0.6460 4.1820
" />
<path d="M0.6500 4.3570
L0.6540 4.3530
" />
<path d="M0.6500 5.5050
L0.6500 5.5120
" />
<path d="M0.6500 5.5120
L0.6500 5.5170
" />
<path d="M0.6500 5.5170
L0.6500 5.5240
" />
<path d="M0.6500 5.5240
L3.6010 5.5240
" />
<path d="M0.6520 0.6230
L0.6460 0.6270
" />
<path d="M0.6520 5.4190
L0.6560 5.4230
" />
<path d="M0.6540 1.8530
L0.6560 1.8490
" />
<path d="M0.6540 4.3530
L0.6560 4.3490
" />
<path d="M0.6560 0.6210
L0.6520 0.6230
" />
<path d="M0.6560 1.7000
L0.6500 1.6900
" />
<path d="M0.6560 1.8490
L0.6580 1.8450
" />
<path d="M0.6560 4.2000
L0.6500 4.1900
" />
<path d="M0.6560 4.3490
L0.6580 4.3450
" />
<path d="M0.6560 5.4230
L0.6620 5.4270
" />
<path d="M0.6580 1.8450
L0.6600 1.8410
" />
<path d="M0.6580 4.3450
L0.6600 4.3410
" />
<path d="M0.6600 1.7080
L0.6560 1.7000
" />
<path d="M0.6600 1.8410
L0.6620 1.8370
" />
<path d="M0.6600 4.2080
L0.6560 4.2000
" />
<path d="M0.6600 4.3410
L0.6620 4.3370
" />
<path d="M0.6620 0.6170
L0.6560 0.6210
" />
<path d="M0.6620 1.8370
L0.6640 1.8310
" />
<path d="M0.6620 4.3370
L0.6640 4.3310
" />
<path d="M0.6620 5.4270
L0.6680 5.4300
" />
<path d="M0.6640 1.7160
L0.6600 1.7080
" />
<path d="M0.6640 1.8310
L0.6660 1.8270
" />
<path d="M0.6640 4.2160
L0.6600 4.2080
" />
<path d="M0.6640 4.3310
L0.6660 4.3270
" />
<path d="M0.6660 1.8270
L0.6680 1.8230
" />
<path d="M0.6660 4.3270
L0.6680 4.3230
" />
<path d="M0.6680 0.6140
L0.6620 0.6170
" />
<path d="M0.6680 1.7260
L0.6640 1.7160
" />
<path d="M0.6680 1.8230
L0.6700 1.8170
" />
<path d="M0.6680 4.2260
L0.6640 4.2160
" />
<path d="M0.6680 4.3230
L0.6700 4.3170
" />
<path d="M0.6680 5.4300
L0.6720 5.4320
" />
<path d="M0.6700 1.7340
L0.6680 1.7260
" />
<path d="M0.6700 1.8130
L0.6720 1.8090
" />
<path d="M0.6700 1.8170
L0.6700 1.8130
" />
<path d="M0.6700 4.2340
L0.6680 4.2260
" />
<path d="M0.6700 4.3130
L0.6720 4.3090
" />
<path d="M0.6700 4.3170
L0.6700 4.3130
" />
<path d="M0.6720 0.6100
L0.6680 0.6140
" />
<path d="M0.6720 1.8090
L0.6740 1.8030
" />
<path d="M0.6720 4.3090
L0.6740 4.3040
" />
<path d="M0.6720 5.4320
L0.6780 5.4350
" />
<path d="M0.6740 1.7450
L0.6700 1.7340
" />
<path d="M0.6740 1.7550
L0.6740 1.7450
" />
<path d="M0.6740 1.7930
L0.6760 1.7890
" />
<path d="M0.6740 1.7990
L0.6740 1.7930
" />
<path d="M0.6740 1.8030
L0.6740 1.7990
" />
<path d="M0.6740 4.2440
L0.6700 4.2340
" />
<path d="M0.6740 4.2540
L0.6740 4.2440
" />
<path d="M0.6740 4.2940
L0.6760 4.2880
" />
<path d="M0.6740 4.2980
L0.6740 4.2940
" />
<path d="M0.6740 4.3040
L0.6740 4.2980
" />
<path d="M0.6760 0.7870
L0.6760 0.7920
" />
<path d="M0.6760 0.7920
L0.6760 0.7990
" />
<path d="M0.6760 0.7990
L0.6760 5.2500
" />
<path d="M0.6760 1.7650
L0.6740 1.7550
" />
<path d="M0.6760 1.7750
L0.6760 1.7650
" />
<path d="M0.6760 1.7790
L0.6760 1.7750
" />
<path d="M0.6760 1.7830
L0.6760 1.7790
" />
<path d="M0.6760 1.7890
L0.6760 1.7830
" />
<path d="M0.6760 4.2640
L0.6740 4.2540
" />
<path d="M0.6760 4.2740
L0.6760 4.2640
" />
<path d="M0.6760 4.2800
L0.6760 4.2740
" />
<path d="M0.6760 4.2840
L0.6760 4.2800
" />
<path d="M0.6760 4.2880
L0.6760 4.2840
" />
<path d="M0.6760 5.2500
L0.6760 5.2550
" />
<path d="M0.6760 5.2550
L0.6760 5.2620
" />
<path d="M0.6760 5.2620
L0.6780 5.2670
" />
<path d="M0.6780 0.6090
L0.6720 0.6100
" />
<path d="M0.6780 0.7750
L0.6780 0.7800
" />
<path d="M0.6780 0.7800
L0.6760 0.7870
" />
<path d="M0.6780 5.2670
L0.6780 5.2740
" />
<path d="M0.6780 5.2740
L0.6800 5.2790
" />
<path d="M0.6780 5.4350
L0.6840 5.4360
" />
<path d="M0.6800 0.7680
L0.6780 0.7750
" />
<path d="M0.6800 5.2790
L0.6820 5.2860
" />
<path d="M0.6820 0.7630
L0.6800 0.7680
" />
<path d="M0.6820 5.2860
L0.6840 5.2910
" />
<path d="M0.6840 0.6060
L0.6780 0.6090
" />
<path d="M0.6840 0.7560
L0.6820 0.7630
" />
<path d="M0.6840 5.2910
L0.6860 5.2970
" />
<path d="M0.6840 5.4360
L0.6900 5.4390
" />
<path d="M0.6860 0.7510
L0.6840 0.7560
" />
<path d="M0.6860 5.2970
L0.6880 5.3020
" />
<path d="M0.6880 0.7460
L0.6860 0.7510
" />
<path d="M0.6880 5.3020
L0.6900 5.3070
" />
<path d="M0.6900 0.6050
L0.6840 0.6060
" />
<path d="M0.6900 0.7400
L0.6880 0.7460
" />
<path d="M0.6900 5.3070
L0.6940 5.3140
" />
<path d="M0.6900 5.4390
L0.6960 5.4400
" />
<path d="M0.6940 0.7350
L0.6900 0.7400
" />
<path d="M0.6940 5.3140
L0.6980 5.3180
" />
<path d="M0.6960 0.6020
L0.6900 0.6050
" />
<path d="M0.6960 5.4400
L0.7020 5.4420
" />
<path d="M0.6980 0.7300
L0.6940 0.7350
" />
<path d="M0.6980 5.3180
L0.7000 5.3230
" />
<path d="M0.7000 0.7240
L0.6980 0.7300
" />
<path d="M0.7000 5.3230
L0.7040 5.3290
" />
<path d="M0.7020 0.6020
L0.6960 0.6020
" />
<path d="M0.7020 5.4420
L0.7080 5.4430
" />
<path d="M0.7040 0.7190
L0.7000 0.7240
" />
<path d="M0.7040 5.3290
L0.7080 5.3320
" />
<path d="M0.7080 0.6010
L0.7020 0.6020
" />
<path d="M0.7080 0.7150
L0.7040 0.7190
" />
<path d="M0.7080 5.3320
L0.7120 5.3380
" />
<path d="M0.7080 5.4430
L0.7140 5.4430
" />
<path d="M0.7120 0.7100
L0.7080 0.7150
" />
</g>
<g style="fill:#000000; fill-opacity:1.0000; stroke:none;">
<circle cx="0.7120" cy="0.7100" r="0.0100" /> 
<circle cx="0.7120" cy="5.3380" r="0.0100" /> 
</g>
<g style="fill:none; 
stroke:#000000; stroke-width:0.0200; stroke-opacity:1; 
stroke-linecap:round; stroke-linejoin:round;">
<path d="M0.7120 5.3380
L0.7180 5.3420
" />
<path d="M0.7140 0.5990
L0.7080 0.6010
" />
<path d="M0.7140 5.4430
L0.7190 5.4430
" />
<path d="M0.7180 0.7060
L0.7120 0.7100
" />
<path d="M0.7180 5.3420
L0.7210 5.3460
" />
<path d="M0.7190 0.5990
L0.7140 0.5990
" />
<path d="M0.7190 5.4430
L0.7270 5.4430
" />
<path d="M0.7210 0.7020
L0.7180 0.7060
" />
<path d="M0.7210 5.3460
L0.7270 5.3500
" />
<path d="M0.7270 0.5990
L0.7190 0.5990
" />
<path d="M0.7270 0.6980
L0.7210 0.7020
" />
<path d="M0.7270 5.3500
L0.7310 5.3520
" />
<path d="M0.7270 5.4430
L3.5200 5.4430
" />
<path d="M0.7310 0.6950
L0.7270 0.6980
" />
<path d="M0.7310 5.3520
L0.7370 5.3560
" />
<path d="M0.7370 0.6910
L0.7310 0.6950
" />
<path d="M0.7370 5.3560
L0.7430 5.3590
" />
<path d="M0.7430 0.6890
L0.7370 0.6910
" />
<path d="M0.7430 5.3590
L0.7470 5.3630
" />
<path d="M0.7470 0.6860
L0.7430 0.6890
" />
<path d="M0.7470 5.3630
L0.7530 5.3640
" />
<path d="M0.7530 0.6830
L0.7470 0.6860
" />
<path d="M0.7530 5.3640
L0.7590 5.3670
" />
<path d="M0.7590 0.6820
L0.7530 0.6830
" />
<path d="M0.7590 5.3670
L0.7650 5.3680
" />
<path d="M0.7650 0.6790
L0.7590 0.6820
" />
<path d="M0.7650 5.3680
L0.7710 5.3710
" />
<path d="M0.7710 0.6780
L0.7650 0.6790
" />
<path d="M0.7710 5.3710
L0.7770 5.3710
" />
<path d="M0.7770 0.6770
L0.7710 0.6780
" />
<path d="M0.7770 5.3710
L0.7830 5.3720
" />
<path d="M0.7830 0.6750
L0.7770 0.6770
" />
<path d="M0.7830 5.3720
L0.7890 5.3740
" />
<path d="M0.7890 0.6740
L0.7830 0.6750
" />
<path d="M0.7890 5.3740
L0.7950 5.3740
" />
<path d="M0.7950 0.6740
L0.7890 0.6740
" />
<path d="M0.7950 5.3740
L0.8010 5.3750
" />
<path d="M0.8010 0.6740
L0.7950 0.6740
" />
<path d="M0.8010 5.3750
L3.4500 5.3750
" />
<path d="M3.4500 0.6740
L0.8010 0.6740
" />
<path d="M3.4500 5.3750
L3.4580 5.3740
" />
<path d="M3.4580 0.6740
L3.4500 0.6740
" />
<path d="M3.4580 5.3740
L3.4640 5.3740
" />
<path d="M3.4640 0.6740
L3.4580 0.6740
" />
<path d="M3.4640 5.3740
L3.4700 5.3720
" />
<path d="M3.4700 0.6750
L3.4640 0.6740
" />
<path d="M3.4700 5.3720
L3.4760 5.3710
" />
<path d="M3.4760 0.6770
L3.4700 0.6750
" />
<path d="M3.4760 5.3710
L3.4820 5.3710
" />
<path d="M3.4820 0.6780
L3.4760 0.6770
" />
<path d="M3.4820 5.3710
L3.4880 5.3680
" />
<path d="M3.4880 0.6790
L3.4820 0.6780
" />
<path d="M3.4880 5.3680
L3.4940 5.3670
" />
<path d="M3.4940 0.6820
L3.4880 0.6790
" />
<path d="M3.4940 5.3670
L3.4980 5.3640
" />
<path d="M3.4980 0.6830
L3.4940 0.6820
" />
<path d="M3.4980 5.3640
L3.5040 5.3630
" />
<path d="M3.5040 0.6860
L3.4980 0.6830
" />
<path d="M3.5040 5.3630
L3.5100 5.3590
" />
<path d="M3.5100 0.6890
L3.5040 0.6860
" />
<path d="M3.5100 5.3590
L3.5160 5.3560
" />
<path d="M3.5160 0.6910
L3.5100 0.6890
" />
<path d="M3.5160 5.3560
L3.5200 5.3520
" />
<path d="M3.5200 0.5990
L0.7270 0.5990
" />
<path d="M3.5200 0.6950
L3.5160 0.6910
" />
<path d="M3.5200 5.3520
L3.5260 5.3500
" />
<path d="M3.5200 5.4430
L3.5280 5.4430
" />
<path d="M3.5260 0.6980
L3.5200 0.6950
" />
<path d="M3.5260 5.3500
L3.5300 5.3460
" />
<path d="M3.5280 0.5990
L3.5200 0.5990
" />
<path d="M3.5280 5.4430
L3.5330 5.4430
" />
<path d="M3.5300 0.7020
L3.5260 0.6980
" />
<path d="M3.5300 5.3460
L3.5350 5.3420
" />
<path d="M3.5330 0.5990
L3.5280 0.5990
" />
<path d="M3.5330 5.4430
L3.5390 5.4430
" />
<path d="M3.5350 0.7060
L3.5300 0.7020
" />
<path d="M3.5350 5.3420
L3.5390 5.3380
" />
<path d="M3.5390 0.6010
L3.5330 0.5990
" />
<path d="M3.5390 0.7100
L3.5350 0.7060
" />
</g>
<g style="fill:#000000; fill-opacity:1.0000; stroke:none;">
<circle cx="3.5390" cy="0.7100" r="0.0100" /> 
<circle cx="3.5390" cy="5.3380" r="0.0100" /> 
</g>
<g style="fill:none; 
stroke:#000000; stroke-width:0.0200; stroke-opacity:1; 
stroke-linecap:round; stroke-linejoin:round;">
<path d="M3.5390 5.3380
L3.5430 5.3320
" />
<path d="M3.5390 5.4430
L3.5450 5.4420
" />
<path d="M3.5430 0.7150
L3.5390 0.7100
" />
<path d="M3.5430 5.3320
L3.5470 5.3290
" />
<path d="M3.5450 0.6020
L3.5390 0.6010
" />
<path d="M3.5450 5.4420
L3.5510 5.4400
" />
<path d="M3.5470 0.7190
L3.5430 0.7150
" />
<path d="M3.5470 5.3290
L3.5510 5.3230
" />
<path d="M3.5510 0.6020
L3.5450 0.6020
" />
<path d="M3.5510 0.7240
L3.5470 0.7190
" />
<path d="M3.5510 5.3230
L3.5550 5.3180
" />
<path d="M3.5510 5.4400
L3.5570 5.4390
" />
<path d="M3.5550 0.7300
L3.5510 0.7240
" />
<path d="M3.5550 5.3180
L3.5590 5.3140
" />
<path d="M3.5570 0.6050
L3.5510 0.6020
" />
<path d="M3.5570 5.4390
L3.5630 5.4360
" />
<path d="M3.5590 0.7350
L3.5550 0.7300
" />
<path d="M3.5590 5.3140
L3.5610 5.3070
" />
<path d="M3.5610 0.7400
L3.5590 0.7350
" />
<path d="M3.5610 5.3070
L3.5650 5.3020
" />
<path d="M3.5630 0.6060
L3.5570 0.6050
" />
<path d="M3.5630 5.4360
L3.5690 5.4350
" />
<path d="M3.5650 0.7460
L3.5610 0.7400
" />
<path d="M3.5650 5.3020
L3.5670 5.2970
" />
<path d="M3.5670 0.7510
L3.5650 0.7460
" />
<path d="M3.5670 5.2970
L3.5690 5.2910
" />
<path d="M3.5690 0.6090
L3.5630 0.6060
" />
<path d="M3.5690 0.7560
L3.5670 0.7510
" />
<path d="M3.5690 5.2910
L3.5710 5.2860
" />
<path d="M3.5690 5.4350
L3.5750 5.4320
" />
<path d="M3.5710 0.7630
L3.5690 0.7560
" />
<path d="M3.5710 5.2860
L3.5730 5.2790
" />
<path d="M3.5730 0.7680
L3.5710 0.7630
" />
<path d="M3.5730 0.7750
L3.5730 0.7680
" />
<path d="M3.5730 5.2740
L3.5750 5.2670
" />
<path d="M3.5730 5.2790
L3.5730 5.2740
" />
<path d="M3.5750 0.6100
L3.5690 0.6090
" />
<path d="M3.5750 0.7800
L3.5730 0.7750
" />
<path d="M3.5750 0.7870
L3.5750 0.7800
" />
<path d="M3.5750 0.7920
L3.5750 0.7870
" />
<path d="M3.5750 0.7990
L3.5750 0.7920
" />
<path d="M3.5750 1.7750
L3.5770 1.7830
" />
<path d="M3.5750 4.2740
L3.5770 4.2840
" />
<path d="M3.5750 5.2500
L3.5750 0.7990
" />
<path d="M3.5750 5.2550
L3.5750 5.2500
" />
<path d="M3.5750 5.2620
L3.5750 5.2550
" />
<path d="M3.5750 5.2670
L3.5750 5.2620
" />
<path d="M3.5750 5.4320
L3.5790 5.4300
" />
<path d="M3.5770 1.7550
L3.5770 1.7590
" />
<path d="M3.5770 1.7590
L3.5770 1.7650
" />
<path d="M3.5770 1.7650
L3.5770 1.7690
" />
<path d="M3.5770 1.7690
L3.5750 1.7750
" />
<path d="M3.5770 1.7830
L3.5770 1.7930
" />
<path d="M3.5770 1.7930
L3.5790 1.8030
" />
<path d="M3.5770 4.2540
L3.5770 4.2600
" />
<path d="M3.5770 4.2600
L3.5770 4.2640
" />
<path d="M3.5770 4.2640
L3.5770 4.2700
" />
<path d="M3.5770 4.2700
L3.5750 4.2740
" />
<path d="M3.5770 4.2840
L3.5770 4.2940
" />
<path d="M3.5770 4.2940
L3.5790 4.3020
" />
<path d="M3.5790 0.6140
L3.5750 0.6100
" />
<path d="M3.5790 1.7450
L3.5770 1.7550
" />
<path d="M3.5790 1.8030
L3.5810 1.8110
" />
<path d="M3.5790 4.2460
L3.5770 4.2540
" />
<path d="M3.5790 4.3020
L3.5810 4.3110
" />
<path d="M3.5790 5.4300
L3.5850 5.4270
" />
<path d="M3.5810 1.7360
L3.5790 1.7450
" />
<path d="M3.5810 1.8110
L3.5830 1.8210
" />
<path d="M3.5810 4.2360
L3.5790 4.2460
" />
<path d="M3.5810 4.3110
L3.5830 4.3210
" />
<path d="M3.5830 1.7280
L3.5810 1.7360
" />
<path d="M3.5830 1.8210
L3.5870 1.8290
" />
<path d="M3.5830 4.2280
L3.5810 4.2360
" />
<path d="M3.5830 4.3210
L3.5870 4.3290
" />
<path d="M3.5850 0.6170
L3.5790 0.6140
" />
<path d="M3.5850 5.4270
L3.5910 5.4230
" />
<path d="M3.5870 1.7180
L3.5830 1.7280
" />
<path d="M3.5870 1.8290
L3.5910 1.8390
" />
<path d="M3.5870 4.2180
L3.5830 4.2280
" />
<path d="M3.5870 4.3290
L3.5910 4.3390
" />
<path d="M3.5910 0.6210
L3.5850 0.6170
" />
<path d="M3.5910 1.7100
L3.5870 1.7180
" />
<path d="M3.5910 1.8390
L3.5950 1.8470
" />
<path d="M3.5910 4.2100
L3.5870 4.2180
" />
<path d="M3.5910 4.3390
L3.5950 4.3470
" />
<path d="M3.5910 5.4230
L3.5950 5.4190
" />
<path d="M3.5950 0.6230
L3.5910 0.6210
" />
<path d="M3.5950 1.7020
L3.5910 1.7100
" />
<path d="M3.5950 1.8470
L3.5990 1.8550
" />
<path d="M3.5950 4.2020
L3.5910 4.2100
" />
<path d="M3.5950 4.3470
L3.5990 4.3550
" />
<path d="M3.5950 5.4190
L3.6010 5.4150
" />
<path d="M3.5990 1.6940
L3.5950 1.7020
" />
<path d="M3.5990 1.8550
L3.6050 1.8630
" />
<path d="M3.5990 4.1940
L3.5950 4.2020
" />
<path d="M3.5990 4.3550
L3.6050 4.3630
" />
<path d="M3.6010 0.5250
L0.6500 0.5250
" />
<path d="M3.6010 0.5300
L3.6010 0.5250
" />
<path d="M3.6010 0.5370
L3.6010 0.5300
" />
<path d="M3.6010 0.6270
L3.5950 0.6230
" />
<path d="M3.6010 5.4150
L3.6050 5.4110
" />
<path d="M3.6010 5.5120
L3.6030 5.5050
" />
<path d="M3.6010 5.5170
L3.6010 5.5120
" />
<path d="M3.6010 5.5240
L3.6010 5.5170
" />
<path d="M3.6030 0.5420
L3.6010 0.5370
" />
<path d="M3.6030 0.5490
L3.6030 0.5420
" />
<path d="M3.6030 5.5000
L3.6050 5.4930
" />
<path d="M3.6030 5.5050
L3.6030 5.5000
" />
<path d="M3.6050 0.5540
L3.6030 0.5490
" />
<path d="M3.6050 0.6310
L3.6010 0.6270
" />
<path d="M3.6050 1.6860
L3.5990 1.6940
" />
<path d="M3.6050 1.8630
L3.6110 1.8690
" />
<path d="M3.6050 4.1860
L3.5990 4.1940
" />
<path d="M3.6050 4.3630
L3.6110 4.3690
" />
<path d="M3.6050 5.4110
L3.6090 5.4070
" />
<path d="M3.6050 5.4930
L3.6070 5.4880
" />
<path d="M3.6070 0.5610
L3.6050 0.5540
" />
<path d="M3.6070 5.4880
L3.6090 5.4810
" />
<path d="M3.6090 0.5660
L3.6070 0.5610
" />
<path d="M3.6090 0.6350
L3.6050 0.6310
" />
</g>
<g style="fill:#000000; fill-opacity:1.0000; stroke:none;">
<circle cx="3.6090" cy="0.6350" r="0.0100" /> 
<circle cx="3.6090" cy="5.4070" r="0.0100" /> 
</g>
<g style="fill:none; 
stroke:#000000; stroke-width:0.0200; stroke-opacity:1; 
stroke-linecap:round; stroke-linejoin:round;">
<path d="M3.6090 5.4070
L3.6130 5.4030
" />
<path d="M3.6090 5.4810
L3.6110 5.4760
" />
<path d="M3.6110 0.5720
L3.6090 0.5660
" />
<path d="M3.6110 1.6780
L3.6050 1.6860
" />
<path d="M3.6110 1.8690
L3.6170 1.8760
" />
<path d="M3.6110 4.1780
L3.6050 4.1860
" />
<path d="M3.6110 4.3690
L3.6170 4.3770
" />
<path d="M3.6110 5.4760
L3.6130 5.4710
" />
<path d="M3.6130 0.5770
L3.6110 0.5720
" />
<path d="M3.6130 0.6410
L3.6090 0.6350
" />
<path d="M3.6130 5.4030
L3.6170 5.3990
" />
<path d="M3.6130 5.4710
L3.6150 5.4650
" />
<path d="M3.6150 0.5820
L3.6130 0.5770
" />
<path d="M3.6150 5.4650
L3.6190 5.4600
" />
<path d="M3.6170 0.6450
L3.6130 0.6410
" />
<path d="M3.6170 1.6720
L3.6110 1.6780
" />
<path d="M3.6170 1.8760
L3.6230 1.8840
" />
<path d="M3.6170 4.1710
L3.6110 4.1780
" />
<path d="M3.6170 4.3770
L3.6230 4.3830
" />
<path d="M3.6170 5.3990
L3.6210 5.3940
" />
<path d="M3.6190 0.5890
L3.6150 0.5820
" />
<path d="M3.6190 5.4600
L3.6230 5.4550
" />
<path d="M3.6210 0.6500
L3.6170 0.6450
" />
<path d="M3.6210 5.3940
L3.6250 5.3880
" />
<path d="M3.6230 0.5940
L3.6190 0.5890
" />
<path d="M3.6230 1.6640
L3.6170 1.6720
" />
<path d="M3.6230 1.8840
L3.6310 1.8900
" />
<path d="M3.6230 4.1650
L3.6170 4.1710
" />
<path d="M3.6230 4.3830
L3.6310 4.3890
" />
<path d="M3.6230 5.4550
L3.6250 5.4500
" />
<path d="M3.6250 0.5980
L3.6230 0.5940
" />
<path d="M3.6250 0.6540
L3.6210 0.6500
" />
<path d="M3.6250 5.3880
L3.6290 5.3830
" />
<path d="M3.6250 5.4500
L3.6290 5.4440
" />
<path d="M3.6290 0.6030
L3.6250 0.5980
" />
<path d="M3.6290 0.6590
L3.6250 0.6540
" />
<path d="M3.6290 5.3830
L3.6310 5.3780
" />
<path d="M3.6290 5.4440
L3.6330 5.4400
" />
<path d="M3.6310 0.6660
L3.6290 0.6590
" />
<path d="M3.6310 1.6580
L3.6230 1.6640
" />
<path d="M3.6310 1.8900
L3.6390 1.8960
" />
<path d="M3.6310 4.1590
L3.6230 4.1650
" />
<path d="M3.6310 4.3890
L3.6390 4.3950
" />
<path d="M3.6310 5.3780
L3.6350 5.3720
" />
<path d="M3.6330 0.6070
L3.6290 0.6030
" />
<path d="M3.6330 5.4400
L3.6370 5.4350
" />
<path d="M3.6350 0.6700
L3.6310 0.6660
" />
<path d="M3.6350 1.6560
L3.6310 1.6580
" />
<path d="M3.6350 4.1550
L3.6310 4.1590
" />
<path d="M3.6350 5.3720
L3.6370 5.3670
" />
<path d="M3.6370 0.6130
L3.6330 0.6070
" />
</g>
<g style="fill:#000000; fill-opacity:1.0000; stroke:none;">
<circle cx="3.6370" cy="0.6130" r="0.0100" /> 
</g>
<g style="fill:none; 
stroke:#000000; stroke-width:0.0200; stroke-opacity:1; 
stroke-linecap:round; stroke-linejoin:round;">
<path d="M3.6370 0.6770
L3.6350 0.6700
" />
<path d="M3.6370 5.3670
L3.6390 5.3620
" />
</g>
<g style="fill:#000000; fill-opacity:1.0000; stroke:none;">
<circle cx="3.6370" cy="5.4350" r="0.0100" /> 
</g>
<g style="fill:none; 
stroke:#000000; stroke-width:0.0200; stroke-opacity:1; 
stroke-linecap:round; stroke-linejoin:round;">
<path d="M3.6370 5.4350
L3.6430 5.4310
" />
<path d="M3.6390 0.6820
L3.6370 0.6770
" />
<path d="M3.6390 1.6520
L3.6350 1.6560
" />
<path d="M3.6390 1.8960
L3.6450 1.9000
" />
<path d="M3.6390 4.1530
L3.6350 4.1550
" />
<path d="M3.6390 4.3950
L3.6450 4.4010
" />
<path d="M3.6390 5.3620
L3.6410 5.3550
" />
<path d="M3.6410 0.6870
L3.6390 0.6820
" />
<path d="M3.6410 1.6500
L3.6390 1.6520
" />
<path d="M3.6410 4.1490
L3.6390 4.1530
" />
<path d="M3.6410 5.3550
L3.6430 5.3500
" />
<path d="M3.6430 0.6170
L3.6370 0.6130
" />
<path d="M3.6430 0.6940
L3.6410 0.6870
" />
<path d="M3.6430 0.6990
L3.6430 0.6940
" />
<path d="M3.6430 5.3430
L3.6450 5.3380
" />
<path d="M3.6430 5.3500
L3.6430 5.3430
" />
<path d="M3.6430 5.4310
L3.6470 5.4270
" />
<path d="M3.6450 0.7060
L3.6430 0.6990
" />
<path d="M3.6450 0.7110
L3.6450 0.7060
" />
<path d="M3.6450 0.7180
L3.6450 0.7110
" />
<path d="M3.6450 0.7240
L3.6450 0.7180
" />
<path d="M3.6450 1.6480
L3.6410 1.6500
" />
<path d="M3.6450 1.6480
L3.6450 0.7240
" />
<path d="M3.6450 1.9000
L3.6510 1.9040
" />
<path d="M3.6450 4.1470
L3.6410 4.1490
" />
<path d="M3.6450 4.1470
L3.6450 1.9000
" />
<path d="M3.6450 4.4010
L3.6510 4.4030
" />
<path d="M3.6450 5.3180
L3.6450 4.4010
" />
<path d="M3.6450 5.3260
L3.6450 5.3180
" />
<path d="M3.6450 5.3310
L3.6450 5.3260
" />
<path d="M3.6450 5.3380
L3.6450 5.3310
" />
<path d="M3.6470 0.6210
L3.6430 0.6170
" />
<path d="M3.6470 5.4270
L3.6510 5.4230
" />
<path d="M3.6510 0.6250
L3.6470 0.6210
" />
<path d="M3.6510 1.6440
L3.6450 1.6480
" />
<path d="M3.6510 1.9040
L3.6550 1.9060
" />
<path d="M3.6510 4.1450
L3.6450 4.1470
" />
<path d="M3.6510 4.4030
L3.6550 4.4070
" />
<path d="M3.6510 5.4230
L3.6570 5.4200
" />
<path d="M3.6550 1.6420
L3.6510 1.6440
" />
<path d="M3.6550 1.9060
L3.6590 1.9080
" />
<path d="M3.6550 4.1410
L3.6510 4.1450
" />
<path d="M3.6550 4.4070
L3.6590 4.4090
" />
<path d="M3.6570 0.6270
L3.6510 0.6250
" />
<path d="M3.6570 5.4200
L3.6610 5.4160
" />
<path d="M3.6590 1.6400
L3.6550 1.6420
" />
<path d="M3.6590 1.9080
L3.6640 1.9100
" />
<path d="M3.6590 4.1390
L3.6550 4.1410
" />
<path d="M3.6590 4.4090
L3.6640 4.4110
" />
<path d="M3.6610 0.6310
L3.6570 0.6270
" />
<path d="M3.6610 5.4160
L3.6680 5.4140
" />
<path d="M3.6640 1.6380
L3.6590 1.6400
" />
<path d="M3.6640 1.9100
L3.6700 1.9120
" />
<path d="M3.6640 4.1370
L3.6590 4.1390
" />
<path d="M3.6640 4.4110
L3.6700 4.4130
" />
<path d="M3.6680 0.6340
L3.6610 0.6310
" />
<path d="M3.6680 5.4140
L3.6720 5.4110
" />
<path d="M3.6700 1.6360
L3.6640 1.6380
" />
<path d="M3.6700 1.9120
L3.6740 1.9140
" />
<path d="M3.6700 4.1350
L3.6640 4.1370
" />
<path d="M3.6700 4.4130
L3.6740 4.4150
" />
<path d="M3.6720 0.6380
L3.6680 0.6340
" />
<path d="M3.6720 5.4110
L3.6780 5.4080
" />
<path d="M3.6740 1.6340
L3.6700 1.6360
" />
<path d="M3.6740 1.9140
L3.6800 1.9160
" />
<path d="M3.6740 4.1330
L3.6700 4.1350
" />
<path d="M3.6740 4.4150
L3.6800 4.4170
" />
<path d="M3.6780 0.6390
L3.6720 0.6380
" />
<path d="M3.6780 5.4080
L3.6840 5.4070
" />
<path d="M3.6800 1.6320
L3.6740 1.6340
" />
<path d="M3.6800 1.9160
L3.6840 1.9180
" />
<path d="M3.6800 4.1310
L3.6740 4.1330
" />
<path d="M3.6800 4.4170
L3.6840 4.4190
" />
<path d="M3.6840 0.6420
L3.6780 0.6390
" />
<path d="M3.6840 1.6300
L3.6800 1.6320
" />
<path d="M3.6840 1.9180
L3.6900 1.9200
" />
<path d="M3.6840 4.1290
L3.6800 4.1310
" />
<path d="M3.6840 4.4190
L3.6900 4.4190
" />
<path d="M3.6840 5.4070
L3.6900 5.4040
" />
<path d="M3.6900 0.6430
L3.6840 0.6420
" />
<path d="M3.6900 1.6280
L3.6840 1.6300
" />
<path d="M3.6900 1.9200
L3.6940 1.9200
" />
<path d="M3.6900 4.1290
L3.6840 4.1290
" />
<path d="M3.6900 4.4190
L3.6940 4.4210
" />
<path d="M3.6900 5.4040
L3.6960 5.4030
" />
<path d="M3.6940 1.6280
L3.6900 1.6280
" />
<path d="M3.6940 1.9200
L3.7000 1.9220
" />
<path d="M3.6940 4.1270
L3.6900 4.1290
" />
<path d="M3.6940 4.4210
L3.7000 4.4210
" />
<path d="M3.6960 0.6460
L3.6900 0.6430
" />
<path d="M3.6960 5.4030
L3.7020 5.4020
" />
<path d="M3.7000 1.6260
L3.6940 1.6280
" />
<path d="M3.7000 1.9220
L3.7040 1.9220
" />
<path d="M3.7000 4.1270
L3.6940 4.1270
" />
<path d="M3.7000 4.4210
L3.7040 4.4230
" />
<path d="M3.7020 0.6460
L3.6960 0.6460
" />
<path d="M3.7020 5.4020
L3.7080 5.4000
" />
<path d="M3.7040 1.6260
L3.7000 1.6260
" />
<path d="M3.7040 1.9220
L3.7100 1.9240
" />
<path d="M3.7040 4.1250
L3.7000 4.1270
" />
<path d="M3.7040 4.4230
L3.7100 4.4230
" />
<path d="M3.7080 0.6470
L3.7020 0.6460
" />
<path d="M3.7080 5.4000
L3.7140 5.3990
" />
<path d="M3.7100 1.6240
L3.7040 1.6260
" />
<path d="M3.7100 1.9240
L3.7160 1.9240
" />
<path d="M3.7100 4.1250
L3.7040 4.1250
" />
<path d="M3.7100 4.4230
L3.7160 4.4230
" />
<path d="M3.7140 0.6490
L3.7080 0.6470
" />
<path d="M3.7140 5.3990
L3.7200 5.3990
" />
<path d="M3.7160 1.6240
L3.7100 1.6240
" />
<path d="M3.7160 1.9240
L3.7200 1.9240
" />
<path d="M3.7160 4.1250
L3.7100 4.1250
" />
<path d="M3.7160 4.4230
L3.7200 4.4230
" />
<path d="M3.7200 0.6490
L3.7140 0.6490
" />
<path d="M3.7200 1.6240
L3.7160 1.6240
" />
<path d="M3.7200 1.9240
L3.7260 1.9240
" />
<path d="M3.7200 4.1250
L3.7160 4.1250
" />
<path d="M3.7200 4.4230
L3.7260 4.4230
" />
<path d="M3.7200 5.3990
L3.7260 5.3990
" />
<path d="M3.7260 0.6500
L3.7200 0.6490
" />
<path d="M3.7260 1.6240
L3.7200 1.6240
" />
<path d="M3.7260 1.6240
L3.7260 0.6500
" />
<path d="M3.7260 4.1250
L3.7200 4.1250
" />
<path d="M3.7260 4.1250
L3.7260 1.9240
" />
<path d="M3.7260 5.3990
L3.7260 4.4230
" />
</g> 
</svg>
