<?xml version="1.0" standalone="no"?>
 <!DOCTYPE svg PUBLIC "-//W3C//DTD SVG 1.1//EN" 
 "http://www.w3.org/Graphics/SVG/1.1/DTD/svg11.dtd"> 
<svg
  xmlns:svg="http://www.w3.org/2000/svg"
  xmlns="http://www.w3.org/2000/svg"
  xmlns:xlink="http://www.w3.org/1999/xlink"
  version="1.1"
  width="8.4328mm" height="5.5880mm" viewBox="0.0000 0.0000 8.4328 5.5880">
<title>SVG Image created as outline.svg date 2025/06/16 09:18:04 </title>
  <desc>Image generated by PCBNEW </desc>
<g style="fill:#000000; fill-opacity:1.0000;stroke:#000000; stroke-opacity:1.0000;
stroke-linecap:round; stroke-linejoin:round;"
 transform="translate(0 0) scale(1 1)">
</g>
<g style="fill:none; 
stroke:#000000; stroke-width:0.0200; stroke-opacity:1; 
stroke-linecap:round; stroke-linejoin:round;">
<path d="M0.3750 1.3760
L0.7750 1.3760
" />
<path d="M0.3750 1.7760
L0.3750 1.3760
" />
<path d="M0.3750 3.4760
L0.7750 3.4760
" />
<path d="M0.3750 3.8760
L0.3750 3.4760
" />
<path d="M0.7750 1.3760
L0.8750 1.3760
" />
<path d="M0.7750 1.7760
L0.3750 1.7760
" />
<path d="M0.7750 3.4760
L0.8750 3.4760
" />
<path d="M0.7750 3.8760
L0.3750 3.8760
" />
<path d="M0.8750 1.3260
L0.8750 2.1270
" />
<path d="M0.8750 1.7760
L0.7750 1.7760
" />
<path d="M0.8750 2.1270
L0.9750 2.1270
" />
<path d="M0.8750 3.1260
L0.8750 2.1270
" />
<path d="M0.8750 3.1260
L0.8750 3.9260
" />
<path d="M0.8750 3.8760
L0.7750 3.8760
" />
<path d="M0.8750 3.9260
L0.9750 3.9260
" />
<path d="M0.9750 1.3260
L0.8750 1.3260
" />
<path d="M0.9750 1.3260
L1.2750 1.3260
" />
<path d="M0.9750 2.1270
L0.9750 1.3260
" />
<path d="M0.9750 2.1270
L1.3750 2.1270
" />
<path d="M0.9750 3.1260
L0.8750 3.1260
" />
<path d="M0.9750 3.9260
L0.9750 3.1260
" />
<path d="M1.2750 1.3260
L1.2750 2.1270
" />
<path d="M1.2750 3.1260
L1.2750 3.9260
" />
<path d="M1.2750 3.9260
L0.9750 3.9260
" />
<path d="M1.2750 3.9260
L7.1750 3.9260
" />
<path d="M1.3750 1.5260
L7.0750 1.5260
" />
<path d="M1.3750 2.1270
L1.3750 1.5260
" />
<path d="M1.3750 3.1260
L0.9750 3.1260
" />
<path d="M1.3750 3.7250
L1.3750 3.1260
" />
<path d="M1.7750 0.4260
L2.1750 0.4260
" />
<path d="M1.7750 1.3260
L1.7750 0.4260
" />
<path d="M2.1750 0.4260
L2.1750 1.3260
" />
<path d="M4.3250 5.3250
L4.3250 3.9260
" />
<path d="M4.3250 5.3250
L4.3250 5.3310
" />
<path d="M4.3250 5.3310
L4.3250 5.3360
" />
<path d="M4.3250 5.3360
L4.3260 5.3410
" />
<path d="M4.3260 5.3410
L4.3270 5.3460
" />
<path d="M4.3270 5.3460
L4.3280 5.3500
" />
<path d="M4.3280 5.3500
L4.3290 5.3550
" />
<path d="M4.3290 5.3550
L4.3310 5.3600
" />
<path d="M4.3310 5.3600
L4.3320 5.3640
" />
<path d="M4.3320 5.3640
L4.3340 5.3690
" />
<path d="M4.3340 5.3690
L4.3370 5.3730
" />
<path d="M4.3370 5.3730
L4.3390 5.3770
" />
<path d="M4.3390 5.3770
L4.3420 5.3810
" />
<path d="M4.3420 5.3810
L4.3440 5.3850
" />
<path d="M4.3440 5.3850
L4.3470 5.3890
" />
<path d="M4.3470 5.3890
L4.3500 5.3930
" />
<path d="M4.3500 5.3930
L4.3540 5.3960
" />
<path d="M4.3540 5.3960
L4.3570 5.4000
" />
<path d="M4.3570 5.4000
L4.3610 5.4030
" />
<path d="M4.3610 5.4030
L4.3650 5.4060
" />
<path d="M4.3650 5.4060
L4.3690 5.4080
" />
<path d="M4.3690 5.4080
L4.3730 5.4110
" />
<path d="M4.3730 5.4110
L4.3770 5.4130
" />
<path d="M4.3770 5.4130
L4.3810 5.4160
" />
<path d="M4.3810 5.4160
L4.3860 5.4180
" />
<path d="M4.3860 5.4180
L4.3900 5.4190
" />
<path d="M4.3900 5.4190
L4.3950 5.4210
" />
<path d="M4.3950 5.4210
L4.4000 5.4220
" />
<path d="M4.4000 5.4220
L4.4040 5.4230
" />
<path d="M4.4040 5.4230
L4.4090 5.4240
" />
<path d="M4.4090 5.4240
L4.4140 5.4250
" />
<path d="M4.4140 5.4250
L4.4190 5.4250
" />
<path d="M4.4190 5.4250
L4.4250 5.4260
" />
<path d="M4.7750 0.4260
L5.1740 0.4260
" />
<path d="M4.7750 1.3260
L4.7750 0.4260
" />
<path d="M5.1740 0.4260
L5.1740 1.3260
" />
<path d="M5.5250 5.4260
L4.4250 5.4260
" />
<path d="M5.5250 5.4260
L5.5300 5.4250
" />
<path d="M5.5300 5.4250
L5.5350 5.4250
" />
<path d="M5.5350 5.4250
L5.5400 5.4240
" />
<path d="M5.5400 5.4240
L5.5450 5.4230
" />
<path d="M5.5450 5.4230
L5.5490 5.4220
" />
<path d="M5.5490 5.4220
L5.5540 5.4210
" />
<path d="M5.5540 5.4210
L5.5590 5.4190
" />
<path d="M5.5590 5.4190
L5.5630 5.4180
" />
<path d="M5.5630 5.4180
L5.5680 5.4160
" />
<path d="M5.5680 5.4160
L5.5720 5.4130
" />
<path d="M5.5720 5.4130
L5.5760 5.4110
" />
<path d="M5.5760 5.4110
L5.5800 5.4080
" />
<path d="M5.5800 5.4080
L5.5840 5.4060
" />
<path d="M5.5840 5.4060
L5.5880 5.4030
" />
<path d="M5.5880 5.4030
L5.5920 5.4000
" />
<path d="M5.5920 5.4000
L5.5950 5.3960
" />
<path d="M5.5950 5.3960
L5.5990 5.3930
" />
<path d="M5.5990 5.3930
L5.6020 5.3890
" />
<path d="M5.6020 5.3890
L5.6050 5.3850
" />
<path d="M5.6050 5.3850
L5.6070 5.3810
" />
<path d="M5.6070 5.3810
L5.6100 5.3770
" />
<path d="M5.6100 5.3770
L5.6120 5.3730
" />
<path d="M5.6120 5.3730
L5.6150 5.3690
" />
<path d="M5.6150 5.3690
L5.6170 5.3640
" />
<path d="M5.6170 5.3640
L5.6180 5.3600
" />
<path d="M5.6180 5.3600
L5.6200 5.3550
" />
<path d="M5.6200 5.3550
L5.6210 5.3500
" />
<path d="M5.6210 5.3500
L5.6220 5.3460
" />
<path d="M5.6220 5.3460
L5.6230 5.3410
" />
<path d="M5.6230 5.3410
L5.6240 5.3360
" />
<path d="M5.6240 5.3250
L5.6240 3.9260
" />
<path d="M5.6240 5.3310
L5.6240 5.3250
" />
<path d="M5.6240 5.3360
L5.6240 5.3310
" />
<path d="M6.2750 0.4260
L6.6750 0.4260
" />
<path d="M6.2750 1.3260
L6.2750 0.4260
" />
<path d="M6.6750 0.4260
L6.6750 1.3260
" />
<path d="M7.0750 1.5260
L7.0750 2.1270
" />
<path d="M7.0750 2.1270
L7.4750 2.1270
" />
<path d="M7.0750 3.1260
L7.0750 3.7250
" />
<path d="M7.0750 3.7250
L1.3750 3.7250
" />
<path d="M7.1750 1.3260
L1.2750 1.3260
" />
<path d="M7.1750 1.3260
L7.4750 1.3260
" />
<path d="M7.1750 2.1270
L7.1750 1.3260
" />
<path d="M7.1750 3.9260
L7.1750 3.1260
" />
<path d="M7.4750 1.3260
L7.4750 2.1270
" />
<path d="M7.4750 2.1270
L7.5750 2.1270
" />
<path d="M7.4750 3.1260
L7.0750 3.1260
" />
<path d="M7.4750 3.1260
L7.4750 3.9260
" />
<path d="M7.4750 3.9260
L7.1750 3.9260
" />
<path d="M7.4750 3.9260
L7.5750 3.9260
" />
<path d="M7.5750 1.3260
L7.4750 1.3260
" />
<path d="M7.5750 1.3760
L7.6750 1.3760
" />
<path d="M7.5750 2.1270
L7.5750 1.3260
" />
<path d="M7.5750 2.1270
L7.5750 3.1260
" />
<path d="M7.5750 3.1260
L7.4750 3.1260
" />
<path d="M7.5750 3.4760
L7.6750 3.4760
" />
<path d="M7.5750 3.9260
L7.5750 3.1260
" />
<path d="M7.6750 1.3760
L8.0750 1.3760
" />
<path d="M7.6750 1.7760
L7.5750 1.7760
" />
<path d="M7.6750 3.4760
L8.0750 3.4760
" />
<path d="M7.6750 3.8760
L7.5750 3.8760
" />
<path d="M8.0750 1.3760
L8.0750 1.7760
" />
<path d="M8.0750 1.7760
L7.6750 1.7760
" />
<path d="M8.0750 3.4760
L8.0750 3.8760
" />
<path d="M8.0750 3.8760
L7.6750 3.8760
" />
</g> 
</svg>
