<?xml version="1.0" standalone="no"?>
 <!DOCTYPE svg PUBLIC "-//W3C//DTD SVG 1.1//EN" 
 "http://www.w3.org/Graphics/SVG/1.1/DTD/svg11.dtd"> 
<svg
  xmlns:svg="http://www.w3.org/2000/svg"
  xmlns="http://www.w3.org/2000/svg"
  xmlns:xlink="http://www.w3.org/1999/xlink"
  version="1.1"
  width="9.7282mm" height="9.7282mm" viewBox="0.0000 0.0000 9.7282 9.7282">
<title>SVG Image created as outline.svg date 2025/06/16 09:18:00 </title>
  <desc>Image generated by PCBNEW </desc>
<g style="fill:#000000; fill-opacity:1.0000;stroke:#000000; stroke-opacity:1.0000;
stroke-linecap:round; stroke-linejoin:round;"
 transform="translate(0 0) scale(1 1)">
</g>
<g style="fill:none; 
stroke:#000000; stroke-width:0.0200; stroke-opacity:1; 
stroke-linecap:round; stroke-linejoin:round;">
<path d="M0.3610 2.2490
L0.3610 2.0290
" />
<path d="M0.3610 2.2490
L0.7940 2.2490
" />
<path d="M0.3610 2.7490
L0.3610 2.5290
" />
<path d="M0.3610 2.7490
L0.7940 2.7490
" />
<path d="M0.3610 3.2490
L0.3610 3.0290
" />
<path d="M0.3610 3.2490
L0.7940 3.2490
" />
<path d="M0.3610 3.7490
L0.3610 3.5290
" />
<path d="M0.3610 3.7490
L0.7940 3.7490
" />
<path d="M0.3610 4.2490
L0.3610 4.0290
" />
<path d="M0.3610 4.2490
L0.7940 4.2490
" />
<path d="M0.3610 4.7500
L0.3610 4.5290
" />
<path d="M0.3610 4.7500
L0.7940 4.7500
" />
<path d="M0.3610 5.2490
L0.3610 5.0290
" />
<path d="M0.3610 5.2490
L0.7940 5.2490
" />
<path d="M0.3610 5.7490
L0.3610 5.5290
" />
<path d="M0.3610 5.7490
L0.7940 5.7490
" />
<path d="M0.3610 6.2490
L0.3610 6.0290
" />
<path d="M0.3610 6.2490
L0.7940 6.2490
" />
<path d="M0.3610 6.7490
L0.3610 6.5290
" />
<path d="M0.3610 6.7490
L0.7940 6.7490
" />
<path d="M0.3610 7.2490
L0.3610 7.0290
" />
<path d="M0.3610 7.2490
L0.7940 7.2490
" />
<path d="M0.3610 7.7490
L0.3610 7.5290
" />
<path d="M0.3610 7.7490
L0.7940 7.7490
" />
<path d="M0.7900 4.5330
L0.7950 4.5330
" />
<path d="M0.7940 2.0290
L0.3610 2.0290
" />
<path d="M0.7940 2.0290
L0.7940 2.2490
" />
<path d="M0.7940 2.2490
L1.0430 2.2490
" />
<path d="M0.7940 2.5290
L0.3610 2.5290
" />
<path d="M0.7940 2.5290
L0.7940 2.7490
" />
<path d="M0.7940 2.7490
L1.0430 2.7490
" />
<path d="M0.7940 3.0290
L0.3610 3.0290
" />
<path d="M0.7940 3.0290
L0.7940 3.2490
" />
<path d="M0.7940 3.2490
L1.0430 3.2490
" />
<path d="M0.7940 3.5290
L0.3610 3.5290
" />
<path d="M0.7940 3.5290
L0.7940 3.7490
" />
<path d="M0.7940 3.7490
L1.0430 3.7490
" />
<path d="M0.7940 4.0290
L0.3610 4.0290
" />
<path d="M0.7940 4.0290
L0.7940 4.2490
" />
<path d="M0.7940 4.2490
L1.0430 4.2490
" />
<path d="M0.7940 4.5290
L0.3610 4.5290
" />
<path d="M0.7940 4.5290
L0.7940 4.5330
" />
<path d="M0.7940 4.7460
L0.7940 4.7500
" />
<path d="M0.7940 4.7500
L1.0430 4.7500
" />
<path d="M0.7940 5.0290
L0.3610 5.0290
" />
<path d="M0.7940 5.0290
L0.7940 5.2490
" />
<path d="M0.7940 5.2490
L1.0430 5.2490
" />
<path d="M0.7940 5.5290
L0.3610 5.5290
" />
<path d="M0.7940 5.5290
L0.7940 5.7490
" />
<path d="M0.7940 5.7490
L1.0430 5.7490
" />
<path d="M0.7940 6.0290
L0.3610 6.0290
" />
<path d="M0.7940 6.0290
L0.7940 6.2490
" />
<path d="M0.7940 6.2490
L1.0430 6.2490
" />
<path d="M0.7940 6.5290
L0.3610 6.5290
" />
<path d="M0.7940 6.5290
L0.7940 6.7490
" />
<path d="M0.7940 6.7490
L1.0430 6.7490
" />
<path d="M0.7940 7.0290
L0.3610 7.0290
" />
<path d="M0.7940 7.0290
L0.7940 7.2490
" />
<path d="M0.7940 7.2490
L1.0430 7.2490
" />
<path d="M0.7940 7.5290
L0.3610 7.5290
" />
<path d="M0.7940 7.5290
L0.7940 7.7490
" />
<path d="M0.7940 7.7490
L1.0430 7.7490
" />
<path d="M0.7950 4.7460
L0.7900 4.7460
" />
<path d="M1.0430 2.0290
L0.7940 2.0290
" />
<path d="M1.0430 2.2490
L1.2280 2.2490
" />
<path d="M1.0430 2.5290
L0.7940 2.5290
" />
<path d="M1.0430 2.7490
L1.2280 2.7490
" />
<path d="M1.0430 3.0290
L0.7940 3.0290
" />
<path d="M1.0430 3.2490
L1.2280 3.2490
" />
<path d="M1.0430 3.5290
L0.7940 3.5290
" />
<path d="M1.0430 3.7490
L1.2280 3.7490
" />
<path d="M1.0430 4.0290
L0.7940 4.0290
" />
<path d="M1.0430 4.2490
L1.2280 4.2490
" />
<path d="M1.0430 4.5290
L0.7940 4.5290
" />
<path d="M1.0430 4.7500
L1.2280 4.7500
" />
<path d="M1.0430 5.0290
L0.7940 5.0290
" />
<path d="M1.0430 5.2490
L1.2280 5.2490
" />
<path d="M1.0430 5.5290
L0.7940 5.5290
" />
<path d="M1.0430 5.7490
L1.2280 5.7490
" />
<path d="M1.0430 6.0290
L0.7940 6.0290
" />
<path d="M1.0430 6.2490
L1.2280 6.2490
" />
<path d="M1.0430 6.5290
L0.7940 6.5290
" />
<path d="M1.0430 6.7490
L1.2280 6.7490
" />
<path d="M1.0430 7.0290
L0.7940 7.0290
" />
<path d="M1.0430 7.2490
L1.2280 7.2490
" />
<path d="M1.0430 7.5290
L0.7940 7.5290
" />
<path d="M1.0430 7.7490
L1.2280 7.7490
" />
<path d="M1.2280 2.0290
L1.0430 2.0290
" />
<path d="M1.2280 2.2490
L1.3610 2.2490
" />
<path d="M1.2280 2.5290
L1.0430 2.5290
" />
<path d="M1.2280 2.7490
L1.3610 2.7490
" />
<path d="M1.2280 3.0290
L1.0430 3.0290
" />
<path d="M1.2280 3.2490
L1.3610 3.2490
" />
<path d="M1.2280 3.5290
L1.0430 3.5290
" />
<path d="M1.2280 3.7490
L1.3610 3.7490
" />
<path d="M1.2280 4.0290
L1.0430 4.0290
" />
<path d="M1.2280 4.2490
L1.3610 4.2490
" />
<path d="M1.2280 4.5290
L1.0430 4.5290
" />
<path d="M1.2280 4.7500
L1.3610 4.7500
" />
<path d="M1.2280 5.0290
L1.0430 5.0290
" />
<path d="M1.2280 5.2490
L1.3610 5.2490
" />
<path d="M1.2280 5.5290
L1.0430 5.5290
" />
<path d="M1.2280 5.7490
L1.3610 5.7490
" />
<path d="M1.2280 6.0290
L1.0430 6.0290
" />
<path d="M1.2280 6.2490
L1.3610 6.2490
" />
<path d="M1.2280 6.5290
L1.0430 6.5290
" />
<path d="M1.2280 6.7490
L1.3610 6.7490
" />
<path d="M1.2280 7.0290
L1.0430 7.0290
" />
<path d="M1.2280 7.2490
L1.3610 7.2490
" />
<path d="M1.2280 7.5290
L1.0430 7.5290
" />
<path d="M1.2280 7.7490
L1.3610 7.7490
" />
<path d="M1.3610 1.7890
L1.3610 8.3890
" />
<path d="M1.3610 1.7890
L1.7610 1.3890
" />
<path d="M1.3610 2.0290
L1.2280 2.0290
" />
<path d="M1.3610 2.5290
L1.2280 2.5290
" />
<path d="M1.3610 3.0290
L1.2280 3.0290
" />
<path d="M1.3610 3.5290
L1.2280 3.5290
" />
<path d="M1.3610 4.0290
L1.2280 4.0290
" />
<path d="M1.3610 4.5290
L1.2280 4.5290
" />
<path d="M1.3610 5.0290
L1.2280 5.0290
" />
<path d="M1.3610 5.5290
L1.2280 5.5290
" />
<path d="M1.3610 6.0290
L1.2280 6.0290
" />
<path d="M1.3610 6.5290
L1.2280 6.5290
" />
<path d="M1.3610 7.0290
L1.2280 7.0290
" />
<path d="M1.3610 7.5290
L1.2280 7.5290
" />
<path d="M1.3610 8.3890
L8.3610 8.3890
" />
<path d="M1.5360 1.8620
L1.3610 1.7890
" />
<path d="M1.5360 8.2140
L1.3610 8.3890
" />
<path d="M1.5360 8.2140
L1.5360 1.8620
" />
<path d="M1.7610 1.3890
L1.8340 1.5650
" />
<path d="M1.8340 1.5650
L1.5360 1.8620
" />
<path d="M1.8340 1.5650
L8.1860 1.5650
" />
<path d="M2.0010 0.3890
L2.0010 0.8220
" />
<path d="M2.0010 0.3890
L2.2210 0.3890
" />
<path d="M2.0010 0.8220
L2.0010 1.0720
" />
<path d="M2.0010 1.0720
L2.0010 1.2570
" />
<path d="M2.0010 1.2570
L2.0010 1.3890
" />
<path d="M2.0010 8.5220
L2.0010 8.3890
" />
<path d="M2.0010 8.7070
L2.0010 8.5220
" />
<path d="M2.0010 8.9570
L2.0010 8.7070
" />
<path d="M2.0010 9.3890
L2.0010 8.9570
" />
<path d="M2.0010 9.3890
L2.2210 9.3890
" />
<path d="M2.2210 0.8220
L2.0010 0.8220
" />
<path d="M2.2210 0.8220
L2.2210 0.3890
" />
<path d="M2.2210 1.0720
L2.2210 0.8220
" />
<path d="M2.2210 1.2570
L2.2210 1.0720
" />
<path d="M2.2210 1.3890
L2.2210 1.2570
" />
<path d="M2.2210 8.3890
L2.2210 8.5220
" />
<path d="M2.2210 8.5220
L2.2210 8.7070
" />
<path d="M2.2210 8.7070
L2.2210 8.9570
" />
<path d="M2.2210 8.9570
L2.0010 8.9570
" />
<path d="M2.2210 8.9570
L2.2210 9.3890
" />
<path d="M2.5010 0.3890
L2.5010 0.8220
" />
<path d="M2.5010 0.3890
L2.7210 0.3890
" />
<path d="M2.5010 0.8220
L2.5010 1.0720
" />
<path d="M2.5010 1.0720
L2.5010 1.2570
" />
<path d="M2.5010 1.2570
L2.5010 1.3890
" />
<path d="M2.5010 8.5220
L2.5010 8.3890
" />
<path d="M2.5010 8.7070
L2.5010 8.5220
" />
<path d="M2.5010 8.9570
L2.5010 8.7070
" />
<path d="M2.5010 9.3890
L2.5010 8.9570
" />
<path d="M2.5010 9.3890
L2.7210 9.3890
" />
<path d="M2.7210 0.8220
L2.5010 0.8220
" />
<path d="M2.7210 0.8220
L2.7210 0.3890
" />
<path d="M2.7210 1.0720
L2.7210 0.8220
" />
<path d="M2.7210 1.2570
L2.7210 1.0720
" />
<path d="M2.7210 1.3890
L2.7210 1.2570
" />
<path d="M2.7210 8.3890
L2.7210 8.5220
" />
<path d="M2.7210 8.5220
L2.7210 8.7070
" />
<path d="M2.7210 8.7070
L2.7210 8.9570
" />
<path d="M2.7210 8.9570
L2.5010 8.9570
" />
<path d="M2.7210 8.9570
L2.7210 9.3890
" />
<path d="M3.0010 0.3890
L3.0010 0.8220
" />
<path d="M3.0010 0.3890
L3.2210 0.3890
" />
<path d="M3.0010 0.8220
L3.0010 1.0720
" />
<path d="M3.0010 1.0720
L3.0010 1.2570
" />
<path d="M3.0010 1.2570
L3.0010 1.3890
" />
<path d="M3.0010 8.5220
L3.0010 8.3890
" />
<path d="M3.0010 8.7070
L3.0010 8.5220
" />
<path d="M3.0010 8.9570
L3.0010 8.7070
" />
<path d="M3.0010 9.3890
L3.0010 8.9570
" />
<path d="M3.0010 9.3890
L3.2210 9.3890
" />
<path d="M3.2210 0.8220
L3.0010 0.8220
" />
<path d="M3.2210 0.8220
L3.2210 0.3890
" />
<path d="M3.2210 1.0720
L3.2210 0.8220
" />
<path d="M3.2210 1.2570
L3.2210 1.0720
" />
<path d="M3.2210 1.3890
L3.2210 1.2570
" />
<path d="M3.2210 8.3890
L3.2210 8.5220
" />
<path d="M3.2210 8.5220
L3.2210 8.7070
" />
<path d="M3.2210 8.7070
L3.2210 8.9570
" />
<path d="M3.2210 8.9570
L3.0010 8.9570
" />
<path d="M3.2210 8.9570
L3.2210 9.3890
" />
<path d="M3.5010 0.3890
L3.5010 0.8220
" />
<path d="M3.5010 0.3890
L3.7210 0.3890
" />
<path d="M3.5010 0.8220
L3.5010 1.0720
" />
<path d="M3.5010 1.0720
L3.5010 1.2570
" />
<path d="M3.5010 1.2570
L3.5010 1.3890
" />
<path d="M3.5010 8.5220
L3.5010 8.3890
" />
<path d="M3.5010 8.7070
L3.5010 8.5220
" />
<path d="M3.5010 8.9570
L3.5010 8.7070
" />
<path d="M3.5010 9.3890
L3.5010 8.9570
" />
<path d="M3.5010 9.3890
L3.7210 9.3890
" />
<path d="M3.7210 0.8220
L3.5010 0.8220
" />
<path d="M3.7210 0.8220
L3.7210 0.3890
" />
<path d="M3.7210 1.0720
L3.7210 0.8220
" />
<path d="M3.7210 1.2570
L3.7210 1.0720
" />
<path d="M3.7210 1.3890
L3.7210 1.2570
" />
<path d="M3.7210 8.3890
L3.7210 8.5220
" />
<path d="M3.7210 8.5220
L3.7210 8.7070
" />
<path d="M3.7210 8.7070
L3.7210 8.9570
" />
<path d="M3.7210 8.9570
L3.5010 8.9570
" />
<path d="M3.7210 8.9570
L3.7210 9.3890
" />
<path d="M4.0010 0.3890
L4.0010 0.8220
" />
<path d="M4.0010 0.3890
L4.2210 0.3890
" />
<path d="M4.0010 0.8220
L4.0010 1.0720
" />
<path d="M4.0010 1.0720
L4.0010 1.2570
" />
<path d="M4.0010 1.2570
L4.0010 1.3890
" />
<path d="M4.0010 8.5220
L4.0010 8.3890
" />
<path d="M4.0010 8.7070
L4.0010 8.5220
" />
<path d="M4.0010 8.9570
L4.0010 8.7070
" />
<path d="M4.0010 9.3890
L4.0010 8.9570
" />
<path d="M4.0010 9.3890
L4.2210 9.3890
" />
<path d="M4.2210 0.8220
L4.0010 0.8220
" />
<path d="M4.2210 0.8220
L4.2210 0.3890
" />
<path d="M4.2210 1.0720
L4.2210 0.8220
" />
<path d="M4.2210 1.2570
L4.2210 1.0720
" />
<path d="M4.2210 1.3890
L4.2210 1.2570
" />
<path d="M4.2210 8.3890
L4.2210 8.5220
" />
<path d="M4.2210 8.5220
L4.2210 8.7070
" />
<path d="M4.2210 8.7070
L4.2210 8.9570
" />
<path d="M4.2210 8.9570
L4.0010 8.9570
" />
<path d="M4.2210 8.9570
L4.2210 9.3890
" />
<path d="M4.5010 0.3890
L4.5010 0.8220
" />
<path d="M4.5010 0.3890
L4.7210 0.3890
" />
<path d="M4.5010 0.8220
L4.5010 1.0720
" />
<path d="M4.5010 1.0720
L4.5010 1.2570
" />
<path d="M4.5010 1.2570
L4.5010 1.3890
" />
<path d="M4.5010 8.5220
L4.5010 8.3890
" />
<path d="M4.5010 8.7070
L4.5010 8.5220
" />
<path d="M4.5010 8.9570
L4.5010 8.7070
" />
<path d="M4.5010 9.3890
L4.5010 8.9570
" />
<path d="M4.5010 9.3890
L4.7210 9.3890
" />
<path d="M4.7210 0.8220
L4.5010 0.8220
" />
<path d="M4.7210 0.8220
L4.7210 0.3890
" />
<path d="M4.7210 1.0720
L4.7210 0.8220
" />
<path d="M4.7210 1.2570
L4.7210 1.0720
" />
<path d="M4.7210 1.3890
L4.7210 1.2570
" />
<path d="M4.7210 8.3890
L4.7210 8.5220
" />
<path d="M4.7210 8.5220
L4.7210 8.7070
" />
<path d="M4.7210 8.7070
L4.7210 8.9570
" />
<path d="M4.7210 8.9570
L4.5010 8.9570
" />
<path d="M4.7210 8.9570
L4.7210 9.3890
" />
<path d="M5.0010 0.3890
L5.0010 0.8220
" />
<path d="M5.0010 0.3890
L5.2210 0.3890
" />
<path d="M5.0010 0.8220
L5.0010 1.0720
" />
<path d="M5.0010 1.0720
L5.0010 1.2570
" />
<path d="M5.0010 1.2570
L5.0010 1.3890
" />
<path d="M5.0010 8.5220
L5.0010 8.3890
" />
<path d="M5.0010 8.7070
L5.0010 8.5220
" />
<path d="M5.0010 8.9570
L5.0010 8.7070
" />
<path d="M5.0010 9.3890
L5.0010 8.9570
" />
<path d="M5.0010 9.3890
L5.2210 9.3890
" />
<path d="M5.2210 0.8220
L5.0010 0.8220
" />
<path d="M5.2210 0.8220
L5.2210 0.3890
" />
<path d="M5.2210 1.0720
L5.2210 0.8220
" />
<path d="M5.2210 1.2570
L5.2210 1.0720
" />
<path d="M5.2210 1.3890
L5.2210 1.2570
" />
<path d="M5.2210 8.3890
L5.2210 8.5220
" />
<path d="M5.2210 8.5220
L5.2210 8.7070
" />
<path d="M5.2210 8.7070
L5.2210 8.9570
" />
<path d="M5.2210 8.9570
L5.0010 8.9570
" />
<path d="M5.2210 8.9570
L5.2210 9.3890
" />
<path d="M5.5010 0.3890
L5.5010 0.8220
" />
<path d="M5.5010 0.3890
L5.7210 0.3890
" />
<path d="M5.5010 0.8220
L5.5010 1.0720
" />
<path d="M5.5010 1.0720
L5.5010 1.2570
" />
<path d="M5.5010 1.2570
L5.5010 1.3890
" />
<path d="M5.5010 8.5220
L5.5010 8.3890
" />
<path d="M5.5010 8.7070
L5.5010 8.5220
" />
<path d="M5.5010 8.9570
L5.5010 8.7070
" />
<path d="M5.5010 9.3890
L5.5010 8.9570
" />
<path d="M5.5010 9.3890
L5.7210 9.3890
" />
<path d="M5.7210 0.8220
L5.5010 0.8220
" />
<path d="M5.7210 0.8220
L5.7210 0.3890
" />
<path d="M5.7210 1.0720
L5.7210 0.8220
" />
<path d="M5.7210 1.2570
L5.7210 1.0720
" />
<path d="M5.7210 1.3890
L5.7210 1.2570
" />
<path d="M5.7210 8.3890
L5.7210 8.5220
" />
<path d="M5.7210 8.5220
L5.7210 8.7070
" />
<path d="M5.7210 8.7070
L5.7210 8.9570
" />
<path d="M5.7210 8.9570
L5.5010 8.9570
" />
<path d="M5.7210 8.9570
L5.7210 9.3890
" />
<path d="M6.0010 0.3890
L6.0010 0.8220
" />
<path d="M6.0010 0.3890
L6.2210 0.3890
" />
<path d="M6.0010 0.8220
L6.0010 1.0720
" />
<path d="M6.0010 1.0720
L6.0010 1.2570
" />
<path d="M6.0010 1.2570
L6.0010 1.3890
" />
<path d="M6.0010 8.5220
L6.0010 8.3890
" />
<path d="M6.0010 8.7070
L6.0010 8.5220
" />
<path d="M6.0010 8.9570
L6.0010 8.7070
" />
<path d="M6.0010 9.3890
L6.0010 8.9570
" />
<path d="M6.0010 9.3890
L6.2210 9.3890
" />
<path d="M6.2210 0.8220
L6.0010 0.8220
" />
<path d="M6.2210 0.8220
L6.2210 0.3890
" />
<path d="M6.2210 1.0720
L6.2210 0.8220
" />
<path d="M6.2210 1.2570
L6.2210 1.0720
" />
<path d="M6.2210 1.3890
L6.2210 1.2570
" />
<path d="M6.2210 8.3890
L6.2210 8.5220
" />
<path d="M6.2210 8.5220
L6.2210 8.7070
" />
<path d="M6.2210 8.7070
L6.2210 8.9570
" />
<path d="M6.2210 8.9570
L6.0010 8.9570
" />
<path d="M6.2210 8.9570
L6.2210 9.3890
" />
<path d="M6.5010 0.3890
L6.5010 0.8220
" />
<path d="M6.5010 0.3890
L6.7210 0.3890
" />
<path d="M6.5010 0.8220
L6.5010 1.0720
" />
<path d="M6.5010 1.0720
L6.5010 1.2570
" />
<path d="M6.5010 1.2570
L6.5010 1.3890
" />
<path d="M6.5010 8.5220
L6.5010 8.3890
" />
<path d="M6.5010 8.7070
L6.5010 8.5220
" />
<path d="M6.5010 8.9570
L6.5010 8.7070
" />
<path d="M6.5010 9.3890
L6.5010 8.9570
" />
<path d="M6.5010 9.3890
L6.7210 9.3890
" />
<path d="M6.7210 0.8220
L6.5010 0.8220
" />
<path d="M6.7210 0.8220
L6.7210 0.3890
" />
<path d="M6.7210 1.0720
L6.7210 0.8220
" />
<path d="M6.7210 1.2570
L6.7210 1.0720
" />
<path d="M6.7210 1.3890
L6.7210 1.2570
" />
<path d="M6.7210 8.3890
L6.7210 8.5220
" />
<path d="M6.7210 8.5220
L6.7210 8.7070
" />
<path d="M6.7210 8.7070
L6.7210 8.9570
" />
<path d="M6.7210 8.9570
L6.5010 8.9570
" />
<path d="M6.7210 8.9570
L6.7210 9.3890
" />
<path d="M7.0010 0.3890
L7.0010 0.8220
" />
<path d="M7.0010 0.3890
L7.2210 0.3890
" />
<path d="M7.0010 0.8220
L7.0010 1.0720
" />
<path d="M7.0010 1.0720
L7.0010 1.2570
" />
<path d="M7.0010 1.2570
L7.0010 1.3890
" />
<path d="M7.0010 8.5220
L7.0010 8.3890
" />
<path d="M7.0010 8.7070
L7.0010 8.5220
" />
<path d="M7.0010 8.9570
L7.0010 8.7070
" />
<path d="M7.0010 9.3890
L7.0010 8.9570
" />
<path d="M7.0010 9.3890
L7.2210 9.3890
" />
<path d="M7.2210 0.8220
L7.0010 0.8220
" />
<path d="M7.2210 0.8220
L7.2210 0.3890
" />
<path d="M7.2210 1.0720
L7.2210 0.8220
" />
<path d="M7.2210 1.2570
L7.2210 1.0720
" />
<path d="M7.2210 1.3890
L7.2210 1.2570
" />
<path d="M7.2210 8.3890
L7.2210 8.5220
" />
<path d="M7.2210 8.5220
L7.2210 8.7070
" />
<path d="M7.2210 8.7070
L7.2210 8.9570
" />
<path d="M7.2210 8.9570
L7.0010 8.9570
" />
<path d="M7.2210 8.9570
L7.2210 9.3890
" />
<path d="M7.5010 0.3890
L7.5010 0.8220
" />
<path d="M7.5010 0.3890
L7.7210 0.3890
" />
<path d="M7.5010 0.8220
L7.5010 1.0720
" />
<path d="M7.5010 1.0720
L7.5010 1.2570
" />
<path d="M7.5010 1.2570
L7.5010 1.3890
" />
<path d="M7.5010 8.5220
L7.5010 8.3890
" />
<path d="M7.5010 8.7070
L7.5010 8.5220
" />
<path d="M7.5010 8.9570
L7.5010 8.7070
" />
<path d="M7.5010 9.3890
L7.5010 8.9570
" />
<path d="M7.5010 9.3890
L7.7210 9.3890
" />
<path d="M7.7210 0.8220
L7.5010 0.8220
" />
<path d="M7.7210 0.8220
L7.7210 0.3890
" />
<path d="M7.7210 1.0720
L7.7210 0.8220
" />
<path d="M7.7210 1.2570
L7.7210 1.0720
" />
<path d="M7.7210 1.3890
L7.7210 1.2570
" />
<path d="M7.7210 8.3890
L7.7210 8.5220
" />
<path d="M7.7210 8.5220
L7.7210 8.7070
" />
<path d="M7.7210 8.7070
L7.7210 8.9570
" />
<path d="M7.7210 8.9570
L7.5010 8.9570
" />
<path d="M7.7210 8.9570
L7.7210 9.3890
" />
<path d="M8.1860 1.5650
L8.1860 8.2140
" />
<path d="M8.1860 1.5650
L8.3610 1.3890
" />
<path d="M8.1860 8.2140
L1.5360 8.2140
" />
<path d="M8.3610 1.3890
L1.7610 1.3890
" />
<path d="M8.3610 2.0290
L8.4940 2.0290
" />
<path d="M8.3610 2.5290
L8.4940 2.5290
" />
<path d="M8.3610 3.0290
L8.4940 3.0290
" />
<path d="M8.3610 3.5290
L8.4940 3.5290
" />
<path d="M8.3610 4.0290
L8.4940 4.0290
" />
<path d="M8.3610 4.5290
L8.4940 4.5290
" />
<path d="M8.3610 5.0290
L8.4940 5.0290
" />
<path d="M8.3610 5.5290
L8.4940 5.5290
" />
<path d="M8.3610 6.0290
L8.4940 6.0290
" />
<path d="M8.3610 6.5290
L8.4940 6.5290
" />
<path d="M8.3610 7.0290
L8.4940 7.0290
" />
<path d="M8.3610 7.5290
L8.4940 7.5290
" />
<path d="M8.3610 8.3890
L8.1860 8.2140
" />
<path d="M8.3610 8.3890
L8.3610 1.3890
" />
<path d="M8.4940 2.0290
L8.6790 2.0290
" />
<path d="M8.4940 2.2490
L8.3610 2.2490
" />
<path d="M8.4940 2.5290
L8.6790 2.5290
" />
<path d="M8.4940 2.7490
L8.3610 2.7490
" />
<path d="M8.4940 3.0290
L8.6790 3.0290
" />
<path d="M8.4940 3.2490
L8.3610 3.2490
" />
<path d="M8.4940 3.5290
L8.6790 3.5290
" />
<path d="M8.4940 3.7490
L8.3610 3.7490
" />
<path d="M8.4940 4.0290
L8.6790 4.0290
" />
<path d="M8.4940 4.2490
L8.3610 4.2490
" />
<path d="M8.4940 4.5290
L8.6790 4.5290
" />
<path d="M8.4940 4.7500
L8.3610 4.7500
" />
<path d="M8.4940 5.0290
L8.6790 5.0290
" />
<path d="M8.4940 5.2490
L8.3610 5.2490
" />
<path d="M8.4940 5.5290
L8.6790 5.5290
" />
<path d="M8.4940 5.7490
L8.3610 5.7490
" />
<path d="M8.4940 6.0290
L8.6790 6.0290
" />
<path d="M8.4940 6.2490
L8.3610 6.2490
" />
<path d="M8.4940 6.5290
L8.6790 6.5290
" />
<path d="M8.4940 6.7490
L8.3610 6.7490
" />
<path d="M8.4940 7.0290
L8.6790 7.0290
" />
<path d="M8.4940 7.2490
L8.3610 7.2490
" />
<path d="M8.4940 7.5290
L8.6790 7.5290
" />
<path d="M8.4940 7.7490
L8.3610 7.7490
" />
<path d="M8.6790 2.0290
L8.9280 2.0290
" />
<path d="M8.6790 2.2490
L8.4940 2.2490
" />
<path d="M8.6790 2.5290
L8.9280 2.5290
" />
<path d="M8.6790 2.7490
L8.4940 2.7490
" />
<path d="M8.6790 3.0290
L8.9280 3.0290
" />
<path d="M8.6790 3.2490
L8.4940 3.2490
" />
<path d="M8.6790 3.5290
L8.9280 3.5290
" />
<path d="M8.6790 3.7490
L8.4940 3.7490
" />
<path d="M8.6790 4.0290
L8.9280 4.0290
" />
<path d="M8.6790 4.2490
L8.4940 4.2490
" />
<path d="M8.6790 4.5290
L8.9280 4.5290
" />
<path d="M8.6790 4.7500
L8.4940 4.7500
" />
<path d="M8.6790 5.0290
L8.9280 5.0290
" />
<path d="M8.6790 5.2490
L8.4940 5.2490
" />
<path d="M8.6790 5.5290
L8.9280 5.5290
" />
<path d="M8.6790 5.7490
L8.4940 5.7490
" />
<path d="M8.6790 6.0290
L8.9280 6.0290
" />
<path d="M8.6790 6.2490
L8.4940 6.2490
" />
<path d="M8.6790 6.5290
L8.9280 6.5290
" />
<path d="M8.6790 6.7490
L8.4940 6.7490
" />
<path d="M8.6790 7.0290
L8.9280 7.0290
" />
<path d="M8.6790 7.2490
L8.4940 7.2490
" />
<path d="M8.6790 7.5290
L8.9280 7.5290
" />
<path d="M8.6790 7.7490
L8.4940 7.7490
" />
<path d="M8.9280 2.0290
L8.9280 2.2490
" />
<path d="M8.9280 2.0290
L9.3610 2.0290
" />
<path d="M8.9280 2.2490
L8.6790 2.2490
" />
<path d="M8.9280 2.5290
L8.9280 2.7490
" />
<path d="M8.9280 2.5290
L9.3610 2.5290
" />
<path d="M8.9280 2.7490
L8.6790 2.7490
" />
<path d="M8.9280 3.0290
L8.9280 3.2490
" />
<path d="M8.9280 3.0290
L9.3610 3.0290
" />
<path d="M8.9280 3.2490
L8.6790 3.2490
" />
<path d="M8.9280 3.5290
L8.9280 3.7490
" />
<path d="M8.9280 3.5290
L9.3610 3.5290
" />
<path d="M8.9280 3.7490
L8.6790 3.7490
" />
<path d="M8.9280 4.0290
L8.9280 4.2490
" />
<path d="M8.9280 4.0290
L9.3610 4.0290
" />
<path d="M8.9280 4.2490
L8.6790 4.2490
" />
<path d="M8.9280 4.5290
L8.9280 4.7500
" />
<path d="M8.9280 4.5290
L9.3610 4.5290
" />
<path d="M8.9280 4.7500
L8.6790 4.7500
" />
<path d="M8.9280 5.0290
L8.9280 5.2490
" />
<path d="M8.9280 5.0290
L9.3610 5.0290
" />
<path d="M8.9280 5.2490
L8.6790 5.2490
" />
<path d="M8.9280 5.5290
L8.9280 5.7490
" />
<path d="M8.9280 5.5290
L9.3610 5.5290
" />
<path d="M8.9280 5.7490
L8.6790 5.7490
" />
<path d="M8.9280 6.0290
L8.9280 6.2490
" />
<path d="M8.9280 6.0290
L9.3610 6.0290
" />
<path d="M8.9280 6.2490
L8.6790 6.2490
" />
<path d="M8.9280 6.5290
L8.9280 6.7490
" />
<path d="M8.9280 6.5290
L9.3610 6.5290
" />
<path d="M8.9280 6.7490
L8.6790 6.7490
" />
<path d="M8.9280 7.0290
L8.9280 7.2490
" />
<path d="M8.9280 7.0290
L9.3610 7.0290
" />
<path d="M8.9280 7.2490
L8.6790 7.2490
" />
<path d="M8.9280 7.5290
L8.9280 7.7490
" />
<path d="M8.9280 7.5290
L9.3610 7.5290
" />
<path d="M8.9280 7.7490
L8.6790 7.7490
" />
<path d="M9.3610 2.2490
L8.9280 2.2490
" />
<path d="M9.3610 2.2490
L9.3610 2.0290
" />
<path d="M9.3610 2.7490
L8.9280 2.7490
" />
<path d="M9.3610 2.7490
L9.3610 2.5290
" />
<path d="M9.3610 3.2490
L8.9280 3.2490
" />
<path d="M9.3610 3.2490
L9.3610 3.0290
" />
<path d="M9.3610 3.7490
L8.9280 3.7490
" />
<path d="M9.3610 3.7490
L9.3610 3.5290
" />
<path d="M9.3610 4.2490
L8.9280 4.2490
" />
<path d="M9.3610 4.2490
L9.3610 4.0290
" />
<path d="M9.3610 4.7500
L8.9280 4.7500
" />
<path d="M9.3610 4.7500
L9.3610 4.5290
" />
<path d="M9.3610 5.2490
L8.9280 5.2490
" />
<path d="M9.3610 5.2490
L9.3610 5.0290
" />
<path d="M9.3610 5.7490
L8.9280 5.7490
" />
<path d="M9.3610 5.7490
L9.3610 5.5290
" />
<path d="M9.3610 6.2490
L8.9280 6.2490
" />
<path d="M9.3610 6.2490
L9.3610 6.0290
" />
<path d="M9.3610 6.7490
L8.9280 6.7490
" />
<path d="M9.3610 6.7490
L9.3610 6.5290
" />
<path d="M9.3610 7.2490
L8.9280 7.2490
" />
<path d="M9.3610 7.2490
L9.3610 7.0290
" />
<path d="M9.3610 7.7490
L8.9280 7.7490
" />
<path d="M9.3610 7.7490
L9.3610 7.5290
" />
<circle cx="2.1550" cy="2.1850" r="0.2500" /> 
</g> 
</svg>
