<?xml version="1.0" standalone="no"?>
 <!DOCTYPE svg PUBLIC "-//W3C//DTD SVG 1.1//EN" 
 "http://www.w3.org/Graphics/SVG/1.1/DTD/svg11.dtd"> 
<svg
  xmlns:svg="http://www.w3.org/2000/svg"
  xmlns="http://www.w3.org/2000/svg"
  xmlns:xlink="http://www.w3.org/1999/xlink"
  version="1.1"
  width="1.8288mm" height="1.3462mm" viewBox="0.0000 0.0000 1.8288 1.3462">
<title>SVG Image created as outline.svg date 2025/04/04 10:06:20 </title>
  <desc>Image generated by PCBNEW </desc>
<g style="fill:#000000; fill-opacity:1.0000;stroke:#000000; stroke-opacity:1.0000;
stroke-linecap:round; stroke-linejoin:round;"
 transform="translate(0 0) scale(1 1)">
</g>
<g style="fill:none; 
stroke:#000000; stroke-width:0.0200; stroke-opacity:1; 
stroke-linecap:round; stroke-linejoin:round;">
<path d="M0.1740 0.3530
L0.1740 1.0150
" />
<path d="M0.1740 1.0150
L0.2120 1.0150
" />
<path d="M0.2120 0.3290
L0.4150 0.3290
" />
<path d="M0.2120 0.3530
L0.1740 0.3530
" />
<path d="M0.2120 0.5580
L0.2120 0.3290
" />
<path d="M0.2120 0.8100
L0.4150 0.8100
" />
<path d="M0.2120 1.0390
L0.2120 0.8100
" />
<path d="M0.4150 0.3290
L0.4150 0.5580
" />
<path d="M0.4150 0.5580
L0.2120 0.5580
" />
<path d="M0.4150 0.8100
L0.4150 1.0390
" />
<path d="M0.4150 1.0150
L0.6180 1.0150
" />
<path d="M0.4150 1.0390
L0.2120 1.0390
" />
<path d="M0.6180 0.3290
L0.8200 0.3290
" />
<path d="M0.6180 0.3530
L0.4150 0.3530
" />
<path d="M0.6180 0.5580
L0.6180 0.3290
" />
<path d="M0.6180 0.8100
L0.8200 0.8100
" />
<path d="M0.6180 1.0390
L0.6180 0.8100
" />
<path d="M0.8200 0.3290
L0.8200 0.5580
" />
<path d="M0.8200 0.5580
L0.6180 0.5580
" />
<path d="M0.8200 0.8100
L0.8200 1.0390
" />
<path d="M0.8200 1.0150
L1.0240 1.0150
" />
<path d="M0.8200 1.0390
L0.6180 1.0390
" />
<path d="M1.0240 0.3290
L1.2260 0.3290
" />
<path d="M1.0240 0.3530
L0.8200 0.3530
" />
<path d="M1.0240 0.5580
L1.0240 0.3290
" />
<path d="M1.0240 0.8100
L1.2260 0.8100
" />
<path d="M1.0240 1.0390
L1.0240 0.8100
" />
<path d="M1.2260 0.3290
L1.2260 0.5580
" />
<path d="M1.2260 0.5580
L1.0240 0.5580
" />
<path d="M1.2260 0.8100
L1.2260 1.0390
" />
<path d="M1.2260 1.0150
L1.4290 1.0150
" />
<path d="M1.2260 1.0390
L1.0240 1.0390
" />
<path d="M1.4290 0.3290
L1.6320 0.3290
" />
<path d="M1.4290 0.3530
L1.2260 0.3530
" />
<path d="M1.4290 0.5580
L1.4290 0.3290
" />
<path d="M1.4290 0.8100
L1.6320 0.8100
" />
<path d="M1.4290 1.0390
L1.4290 0.8100
" />
<path d="M1.6320 0.3290
L1.6320 0.5580
" />
<path d="M1.6320 0.5580
L1.4290 0.5580
" />
<path d="M1.6320 0.8100
L1.6320 1.0390
" />
<path d="M1.6320 1.0150
L1.6700 1.0150
" />
<path d="M1.6320 1.0390
L1.4290 1.0390
" />
<path d="M1.6700 0.3530
L1.6320 0.3530
" />
<path d="M1.6700 1.0150
L1.6700 0.3530
" />
</g> 
</svg>
