{
  "accessors": [
    {
      "bufferView": 0,
      "byteOffset": 0,
      "componentType": 5126,
      "normalized": false,
      "count": 138,
      "type": "VEC3",
      "max": [
        0.5937082171440125,
        0.5919041633605957,
        0.3451661467552185
      ],
      "min": [
        -0.5937082171440125,
        0.3063385784626007,
        -0.34540969133377075
      ]
    },
    {
      "bufferView": 0,
      "byteOffset": 12,
      "componentType": 5126,
      "normalized": false,
      "count": 138,
      "type": "VEC3"
    },
    {
      "bufferView": 0,
      "byteOffset": 24,
      "componentType": 5126,
      "normalized": false,
      "count": 138,
      "type": "VEC2"
    },
    {
      "bufferView": 0,
      "byteOffset": 32,
      "componentType": 5126,
      "normalized": false,
      "count": 138,
      "type": "VEC2"
    },
    {
      "bufferView": 1,
      "byteOffset": 0,
      "componentType": 5123,
      "normalized": false,
      "count": 570,
      "type": "SCALAR"
    },
    {
      "bufferView": 1,
      "byteOffset": 1140,
      "componentType": 5123,
      "normalized": false,
      "count": 126,
      "type": "SCALAR"
    },
    {
      "bufferView": 1,
      "byteOffset": 1392,
      "componentType": 5123,
      "normalized": false,
      "count": 12,
      "type": "SCALAR"
    },
    {
      "bufferView": 1,
      "byteOffset": 1416,
      "componentType": 5123,
      "normalized": false,
      "count": 36,
      "type": "SCALAR"
    },
    {
      "bufferView": 1,
      "byteOffset": 1488,
      "componentType": 5123,
      "normalized": false,
      "count": 558,
      "type": "SCALAR"
    },
    {
      "bufferView": 2,
      "byteOffset": 0,
      "componentType": 5126,
      "normalized": false,
      "count": 60,
      "type": "VEC3",
      "max": [
        0.7905512452125549,
        0.30722516775131226,
        0.39532384276390076
      ],
      "min": [
        -0.7905512452125549,
        0.009881773963570595,
        -0.39527568221092224
      ]
    },
    {
      "bufferView": 2,
      "byteOffset": 12,
      "componentType": 5126,
      "normalized": false,
      "count": 60,
      "type": "VEC3"
    },
    {
      "bufferView": 2,
      "byteOffset": 24,
      "componentType": 5126,
      "normalized": false,
      "count": 60,
      "type": "VEC2"
    },
    {
      "bufferView": 2,
      "byteOffset": 32,
      "componentType": 5126,
      "normalized": false,
      "count": 60,
      "type": "VEC2"
    },
    {
      "bufferView": 3,
      "byteOffset": 0,
      "componentType": 5126,
      "normalized": false,
      "count": 10,
      "type": "VEC3",
      "max": [
        0.790549635887146,
        0.30720454454421997,
        0.3952714204788208
      ],
      "min": [
        0.5146983861923218,
        0.3062991797924042,
        -0.38539379835128784
      ]
    },
    {
      "bufferView": 3,
      "byteOffset": 12,
      "componentType": 5126,
      "normalized": false,
      "count": 10,
      "type": "VEC3"
    },
    {
      "bufferView": 3,
      "byteOffset": 24,
      "componentType": 5126,
      "normalized": false,
      "count": 10,
      "type": "VEC2"
    },
    {
      "bufferView": 3,
      "byteOffset": 32,
      "componentType": 5126,
      "normalized": false,
      "count": 10,
      "type": "VEC2"
    },
    {
      "bufferView": 4,
      "byteOffset": 0,
      "componentType": 5126,
      "normalized": false,
      "count": 24,
      "type": "VEC3",
      "max": [
        0.3095778822898865,
        0.3174173831939697,
        0.17355787754058838
      ],
      "min": [
        -0.3095778822898865,
        0.3073267638683319,
        -0.17356693744659424
      ]
    },
    {
      "bufferView": 4,
      "byteOffset": 12,
      "componentType": 5126,
      "normalized": false,
      "count": 24,
      "type": "VEC3"
    },
    {
      "bufferView": 4,
      "byteOffset": 24,
      "componentType": 5126,
      "normalized": false,
      "count": 24,
      "type": "VEC2"
    },
    {
      "bufferView": 4,
      "byteOffset": 32,
      "componentType": 5126,
      "normalized": false,
      "count": 24,
      "type": "VEC2"
    },
    {
      "bufferView": 5,
      "byteOffset": 0,
      "componentType": 5126,
      "normalized": false,
      "count": 232,
      "type": "VEC3",
      "max": [
        0.8004330396652222,
        0.31620585918426514,
        0.34144413471221924
      ],
      "min": [
        -0.8004330396652222,
        -1.0897365854134478e-07,
        -0.3413888216018677
      ]
    },
    {
      "bufferView": 5,
      "byteOffset": 12,
      "componentType": 5126,
      "normalized": false,
      "count": 232,
      "type": "VEC3"
    },
    {
      "bufferView": 5,
      "byteOffset": 24,
      "componentType": 5126,
      "normalized": false,
      "count": 232,
      "type": "VEC2"
    },
    {
      "bufferView": 5,
      "byteOffset": 32,
      "componentType": 5126,
      "normalized": false,
      "count": 232,
      "type": "VEC2"
    }
  ],
  "asset": {
    "generator": "pygltflib@v1.16.5",
    "version": "2.0"
  },
  "bufferViews": [
    {
      "buffer": 0,
      "byteOffset": 0,
      "byteLength": 5520,
      "byteStride": 40,
      "target": 34962
    },
    {
      "buffer": 0,
      "byteOffset": 5520,
      "byteLength": 2604,
      "target": 34963
    },
    {
      "buffer": 0,
      "byteOffset": 8124,
      "byteLength": 2400,
      "byteStride": 40,
      "target": 34962
    },
    {
      "buffer": 0,
      "byteOffset": 10524,
      "byteLength": 400,
      "byteStride": 40,
      "target": 34962
    },
    {
      "buffer": 0,
      "byteOffset": 10924,
      "byteLength": 960,
      "byteStride": 40,
      "target": 34962
    },
    {
      "buffer": 0,
      "byteOffset": 11884,
      "byteLength": 9280,
      "byteStride": 40,
      "target": 34962
    }
  ],
  "buffers": [
    {
      "uri": "LED_0603_1608Metric_B.bin",
      "byteLength": 21164
    }
  ],
  "extensionsUsed": [
    "KHR_materials_emissive_strength",
    "KHR_materials_ior",
    "KHR_materials_specular",
    "KHR_materials_transmission"
  ],
  "materials": [
    {
      "extensions": {
        "KHR_materials_ior": {
          "ior": 1.4600000381469727
        },
        "KHR_materials_transmission": {
          "transmissionFactor": 1
        }
      },
      "pbrMetallicRoughness": {
        "baseColorFactor": [
          0.0,
          0.0,
          1.0,
          1.0
        ],
        "metallicFactor": 0.0,
        "roughnessFactor": 0.3840000033378601
      },
      "emissiveFactor": [
        0.0,
        0.0,
        0.0
      ],
      "alphaMode": "OPAQUE",
      "doubleSided": true,
      "name": "gltf_translucent_blue"
    },
    {
      "pbrMetallicRoughness": {
        "baseColorFactor": [
          0.42792367935180664,
          0.42792367935180664,
          0.42792367935180664,
          1.0
        ],
        "metallicFactor": 0.027000008150935173,
        "roughnessFactor": 0.4606340527534485
      },
      "emissiveFactor": [
        0.0,
        0.0,
        0.0
      ],
      "alphaMode": "OPAQUE",
      "doubleSided": true,
      "name": "gltf_plastic_case_white"
    },
    {
      "pbrMetallicRoughness": {
        "baseColorFactor": [
          0.009721336886286736,
          0.009721336886286736,
          0.009721336886286736,
          1.0
        ],
        "metallicFactor": 0.09154544770717621,
        "roughnessFactor": 0.4615432620048523
      },
      "emissiveFactor": [
        0.0,
        0.0,
        0.0
      ],
      "alphaMode": "OPAQUE",
      "doubleSided": true,
      "name": "gltf_plastic_matte_black"
    },
    {
      "extensions": {
        "KHR_materials_emissive_strength": {
          "emissiveStrength": 22.298282384872437
        }
      },
      "pbrMetallicRoughness": {
        "baseColorFactor": [
          0.0,
          0.06586828082799911,
          0.3185468912124634,
          1.0
        ],
        "metallicFactor": 0.0,
        "roughnessFactor": 0.5
      },
      "emissiveFactor": [
        0.0,
        0.20677734627165614,
        1.0
      ],
      "alphaMode": "OPAQUE",
      "doubleSided": true,
      "name": "gltf_light_blue"
    },
    {
      "extensions": {
        "KHR_materials_ior": {
          "ior": 1.4500000476837158
        },
        "KHR_materials_specular": {
          "specularFactor": 0
        }
      },
      "pbrMetallicRoughness": {
        "baseColorFactor": [
          0.65955650806427,
          0.5159208178520203,
          0.2824440598487854,
          1.0
        ],
        "metallicFactor": 0.8136364221572876,
        "roughnessFactor": 0.28863638639450073
      },
      "emissiveFactor": [
        0.0,
        0.0,
        0.0
      ],
      "alphaMode": "OPAQUE",
      "doubleSided": true,
      "name": "gltf_metal_pins_gold"
    }
  ],
  "meshes": [
    {
      "primitives": [
        {
          "attributes": {
            "POSITION": 0,
            "NORMAL": 1,
            "TEXCOORD_0": 2,
            "TEXCOORD_1": 3
          },
          "indices": 4,
          "mode": 4,
          "material": 0
        },
        {
          "attributes": {
            "POSITION": 9,
            "NORMAL": 10,
            "TEXCOORD_0": 11,
            "TEXCOORD_1": 12
          },
          "indices": 5,
          "mode": 4,
          "material": 1
        },
        {
          "attributes": {
            "POSITION": 13,
            "NORMAL": 14,
            "TEXCOORD_0": 15,
            "TEXCOORD_1": 16
          },
          "indices": 6,
          "mode": 4,
          "material": 2
        },
        {
          "attributes": {
            "POSITION": 17,
            "NORMAL": 18,
            "TEXCOORD_0": 19,
            "TEXCOORD_1": 20
          },
          "indices": 7,
          "mode": 4,
          "material": 3
        },
        {
          "attributes": {
            "POSITION": 21,
            "NORMAL": 22,
            "TEXCOORD_0": 23,
            "TEXCOORD_1": 24
          },
          "indices": 8,
          "mode": 4,
          "material": 4
        }
      ],
      "name": "LED_0603_1608Metric_G.001"
    }
  ],
  "nodes": [
    {
      "extras": {
        "model_diagonal": 1.881185824815956
      },
      "mesh": 0,
      "name": "LED_0603_1608Metric_B"
    }
  ],
  "scene": 0,
  "scenes": [
    {
      "extras": {
        "NWLazySource": "Noise Texture",
        "NWLazyTarget": "ColorRamp",
        "NWSourceSocket": 0
      },
      "name": "Scene",
      "nodes": [
        0
      ]
    }
  ]
}