<?xml version="1.0" standalone="no"?>
 <!DOCTYPE svg PUBLIC "-//W3C//DTD SVG 1.1//EN" 
 "http://www.w3.org/Graphics/SVG/1.1/DTD/svg11.dtd"> 
<svg
  xmlns:svg="http://www.w3.org/2000/svg"
  xmlns="http://www.w3.org/2000/svg"
  xmlns:xlink="http://www.w3.org/1999/xlink"
  version="1.1"
  width="8.7884mm" height="6.5278mm" viewBox="0.0000 0.0000 8.7884 6.5278">
<title>SVG Image created as outline.svg date 2025/04/04 10:06:13 </title>
  <desc>Image generated by PCBNEW </desc>
<g style="fill:#000000; fill-opacity:1.0000;stroke:#000000; stroke-opacity:1.0000;
stroke-linecap:round; stroke-linejoin:round;"
 transform="translate(0 0) scale(1 1)">
</g>
<g style="fill:none; 
stroke:#000000; stroke-width:0.0200; stroke-opacity:1; 
stroke-linecap:round; stroke-linejoin:round;">
<path d="M0.3800 1.1700
L0.3800 1.5700
" />
<path d="M0.3800 1.5700
L0.4080 1.5700
" />
<path d="M0.3800 2.4400
L0.3800 2.8400
" />
<path d="M0.3800 2.8400
L0.4080 2.8400
" />
<path d="M0.3800 3.7100
L0.3800 4.1100
" />
<path d="M0.3800 4.1100
L0.4080 4.1100
" />
<path d="M0.3800 4.9800
L0.3800 5.3800
" />
<path d="M0.3800 5.3800
L0.4080 5.3800
" />
<path d="M0.4080 0.2750
L0.4080 6.2750
" />
<path d="M0.4080 1.1700
L0.3800 1.1700
" />
<path d="M0.4080 2.4400
L0.3800 2.4400
" />
<path d="M0.4080 3.7100
L0.3800 3.7100
" />
<path d="M0.4080 4.9800
L0.3800 4.9800
" />
<path d="M0.4080 6.2750
L8.4080 6.2750
" />
<path d="M1.1350 0.9840
L1.1350 0.9900
" />
<path d="M1.1350 0.9900
L1.1350 0.9970
" />
<path d="M1.1350 0.9970
L1.1360 1.0030
" />
<path d="M1.1360 0.9770
L1.1350 0.9840
" />
<path d="M1.1360 1.0030
L1.1370 1.0090
" />
<path d="M1.1370 0.9710
L1.1360 0.9770
" />
<path d="M1.1370 1.0090
L1.1380 1.0160
" />
<path d="M1.1380 0.9640
L1.1370 0.9710
" />
<path d="M1.1380 1.0160
L1.1400 1.0220
" />
<path d="M1.1400 0.9580
L1.1380 0.9640
" />
<path d="M1.1400 1.0220
L1.1430 1.0280
" />
<path d="M1.1430 0.9520
L1.1400 0.9580
" />
<path d="M1.1430 1.0280
L1.1450 1.0340
" />
<path d="M1.1450 0.9460
L1.1430 0.9520
" />
<path d="M1.1450 1.0340
L1.1480 1.0400
" />
<path d="M1.1480 0.9400
L1.1450 0.9460
" />
</g>
<g style="fill:#000000; fill-opacity:1.0000; stroke:none;">
<circle cx="1.1480" cy="0.9400" r="0.0100" /> 
<circle cx="1.1480" cy="1.0400" r="0.0100" /> 
</g>
<g style="fill:none; 
stroke:#000000; stroke-width:0.0200; stroke-opacity:1; 
stroke-linecap:round; stroke-linejoin:round;">
<path d="M1.1480 1.0400
L1.1500 1.0430
" />
<path d="M1.1500 1.0430
L1.1520 1.0460
" />
<path d="M1.1520 0.9340
L1.1480 0.9400
" />
<path d="M1.1520 1.0460
L1.1540 1.0490
" />
<path d="M1.1540 1.0490
L1.1560 1.0510
" />
<path d="M1.1560 0.9290
L1.1520 0.9340
" />
<path d="M1.1560 1.0510
L1.1580 1.0540
" />
<path d="M1.1580 1.0540
L1.1600 1.0560
" />
<path d="M1.1600 0.9240
L1.1560 0.9290
" />
<path d="M1.1600 1.0560
L1.1620 1.0590
" />
<path d="M1.1620 1.0590
L1.1640 1.0610
" />
<path d="M1.1640 0.9190
L1.1600 0.9240
" />
<path d="M1.1640 1.0610
L1.1670 1.0630
" />
<path d="M1.1670 1.0630
L1.1690 1.0650
" />
<path d="M1.1690 0.9150
L1.1640 0.9190
" />
<path d="M1.1690 1.0650
L1.1720 1.0680
" />
<path d="M1.1720 1.0680
L1.1740 1.0700
" />
<path d="M1.1740 0.9110
L1.1690 0.9150
" />
<path d="M1.1740 1.0700
L1.1770 1.0710
" />
<path d="M1.1770 1.0710
L1.1790 1.0730
" />
<path d="M1.1790 0.9070
L1.1740 0.9110
" />
<path d="M1.1790 1.0730
L1.1820 1.0750
" />
<path d="M1.1820 1.0750
L1.1850 1.0770
" />
<path d="M1.1850 0.9040
L1.1790 0.9070
" />
<path d="M1.1850 1.0770
L1.1880 1.0780
" />
<path d="M1.1880 1.0780
L1.1910 1.0800
" />
<path d="M1.1910 0.9000
L1.1850 0.9040
" />
<path d="M1.1910 1.0800
L1.1940 1.0810
" />
<path d="M1.1940 1.0810
L1.1970 1.0820
" />
<path d="M1.1970 0.8980
L1.1910 0.9000
" />
<path d="M1.1970 1.0820
L1.2000 1.0840
" />
<path d="M1.2000 1.0840
L1.2030 1.0850
" />
<path d="M1.2030 0.8950
L1.1970 0.8980
" />
<path d="M1.2030 1.0850
L1.2060 1.0860
" />
<path d="M1.2060 1.0860
L1.2090 1.0870
" />
<path d="M1.2090 0.8940
L1.2030 0.8950
" />
<path d="M1.2090 1.0870
L1.2120 1.0870
" />
<path d="M1.2120 1.0870
L1.2150 1.0880
" />
<path d="M1.2150 0.8920
L1.2090 0.8940
" />
<path d="M1.2150 1.0880
L1.2180 1.0890
" />
<path d="M1.2180 1.0890
L1.2220 1.0890
" />
<path d="M1.2220 0.8910
L1.2150 0.8920
" />
<path d="M1.2220 1.0890
L1.2250 1.0900
" />
<path d="M1.2250 1.0900
L1.2280 1.0900
" />
<path d="M1.2280 0.8900
L1.2220 0.8910
" />
<path d="M1.2280 1.0900
L1.2320 1.0900
" />
<path d="M1.2320 1.0900
L1.2350 1.0900
" />
<path d="M1.2350 0.8900
L1.2280 0.8900
" />
<path d="M1.2350 1.0900
L1.2420 1.0900
" />
<path d="M1.2380 0.8900
L1.2350 0.8900
" />
<path d="M1.2420 0.8900
L1.2380 0.8900
" />
<path d="M1.2420 1.0900
L1.2480 1.0890
" />
<path d="M1.2450 0.8910
L1.2420 0.8900
" />
<path d="M1.2480 0.8910
L1.2450 0.8910
" />
<path d="M1.2480 1.0890
L1.2550 1.0880
" />
<path d="M1.2510 0.8910
L1.2480 0.8910
" />
<path d="M1.2550 0.8920
L1.2510 0.8910
" />
<path d="M1.2550 1.0880
L1.2610 1.0870
" />
<path d="M1.2580 0.8930
L1.2550 0.8920
" />
<path d="M1.2610 0.8940
L1.2580 0.8930
" />
<path d="M1.2610 1.0870
L1.2670 1.0850
" />
<path d="M1.2640 0.8940
L1.2610 0.8940
" />
<path d="M1.2670 0.8950
L1.2640 0.8940
" />
<path d="M1.2670 1.0850
L1.2730 1.0820
" />
<path d="M1.2700 0.8970
L1.2670 0.8950
" />
<path d="M1.2730 0.8980
L1.2700 0.8970
" />
<path d="M1.2730 1.0820
L1.2790 1.0800
" />
<path d="M1.2760 0.8990
L1.2730 0.8980
" />
<path d="M1.2790 0.9000
L1.2760 0.8990
" />
<path d="M1.2790 1.0800
L1.2850 1.0770
" />
<path d="M1.2820 0.9020
L1.2790 0.9000
" />
<path d="M1.2850 0.9040
L1.2820 0.9020
" />
<path d="M1.2850 1.0770
L1.2900 1.0730
" />
<path d="M1.2880 0.9050
L1.2850 0.9040
" />
<path d="M1.2900 0.9070
L1.2880 0.9050
" />
<path d="M1.2900 1.0730
L1.2960 1.0700
" />
<path d="M1.2930 0.9090
L1.2900 0.9070
" />
<path d="M1.2960 0.9110
L1.2930 0.9090
" />
<path d="M1.2960 1.0700
L1.3010 1.0650
" />
<path d="M1.2980 0.9130
L1.2960 0.9110
" />
<path d="M1.3010 0.9150
L1.2980 0.9130
" />
<path d="M1.3010 1.0650
L1.3060 1.0610
" />
<path d="M1.3030 0.9170
L1.3010 0.9150
" />
<path d="M1.3060 0.9190
L1.3030 0.9170
" />
<path d="M1.3060 1.0610
L1.3100 1.0560
" />
<path d="M1.3080 0.9220
L1.3060 0.9190
" />
<path d="M1.3100 0.9240
L1.3080 0.9220
" />
<path d="M1.3100 1.0560
L1.3140 1.0510
" />
<path d="M1.3120 0.9270
L1.3100 0.9240
" />
<path d="M1.3140 0.9290
L1.3120 0.9270
" />
<path d="M1.3140 1.0510
L1.3180 1.0460
" />
<path d="M1.3160 0.9320
L1.3140 0.9290
" />
<path d="M1.3180 0.9340
L1.3160 0.9320
" />
<path d="M1.3180 1.0460
L1.3220 1.0400
" />
<path d="M1.3200 0.9370
L1.3180 0.9340
" />
<path d="M1.3220 0.9400
L1.3200 0.9370
" />
</g>
<g style="fill:#000000; fill-opacity:1.0000; stroke:none;">
<circle cx="1.3220" cy="0.9400" r="0.0100" /> 
<circle cx="1.3220" cy="1.0400" r="0.0100" /> 
</g>
<g style="fill:none; 
stroke:#000000; stroke-width:0.0200; stroke-opacity:1; 
stroke-linecap:round; stroke-linejoin:round;">
<path d="M1.3220 1.0400
L1.3250 1.0340
" />
<path d="M1.3250 0.9460
L1.3220 0.9400
" />
<path d="M1.3250 1.0340
L1.3270 1.0280
" />
<path d="M1.3270 0.9520
L1.3250 0.9460
" />
<path d="M1.3270 1.0280
L1.3300 1.0220
" />
<path d="M1.3300 0.9580
L1.3270 0.9520
" />
<path d="M1.3300 1.0220
L1.3320 1.0160
" />
<path d="M1.3320 0.9640
L1.3300 0.9580
" />
<path d="M1.3320 1.0160
L1.3330 1.0090
" />
<path d="M1.3330 0.9710
L1.3320 0.9640
" />
<path d="M1.3330 1.0090
L1.3340 1.0030
" />
<path d="M1.3340 0.9770
L1.3330 0.9710
" />
<path d="M1.3340 1.0030
L1.3350 0.9970
" />
<path d="M1.3350 0.9840
L1.3340 0.9770
" />
<path d="M1.3350 0.9900
L1.3350 0.9840
" />
<path d="M1.3350 0.9970
L1.3350 0.9900
" />
<path d="M8.4080 0.2750
L0.4080 0.2750
" />
<path d="M8.4080 1.5700
L8.4300 1.5700
" />
<path d="M8.4080 2.8400
L8.4300 2.8400
" />
<path d="M8.4080 4.1100
L8.4300 4.1100
" />
<path d="M8.4080 5.3800
L8.4300 5.3800
" />
<path d="M8.4080 6.2750
L8.4080 0.2750
" />
<path d="M8.4300 1.1700
L8.4080 1.1700
" />
<path d="M8.4300 1.5700
L8.4300 1.1700
" />
<path d="M8.4300 2.4400
L8.4080 2.4400
" />
<path d="M8.4300 2.8400
L8.4300 2.4400
" />
<path d="M8.4300 3.7100
L8.4080 3.7100
" />
<path d="M8.4300 4.1100
L8.4300 3.7100
" />
<path d="M8.4300 4.9800
L8.4080 4.9800
" />
<path d="M8.4300 5.3800
L8.4300 4.9800
" />
</g> 
</svg>
