{
  "accessors": [
    {
      "bufferView": 0,
      "byteOffset": 0,
      "componentType": 5126,
      "normalized": false,
      "count": 10676,
      "type": "VEC3",
      "max": [
        3.307048797607422,
        3.149606227874756,
        0.6967308521270752
      ],
      "min": [
        -1.1811021566390991,
        -1.8307089805603027,
        -1.664989948272705
      ]
    },
    {
      "bufferView": 0,
      "byteOffset": 12,
      "componentType": 5126,
      "normalized": false,
      "count": 10676,
      "type": "VEC3"
    },
    {
      "bufferView": 0,
      "byteOffset": 24,
      "componentType": 5126,
      "normalized": false,
      "count": 10676,
      "type": "VEC2"
    },
    {
      "bufferView": 0,
      "byteOffset": 32,
      "componentType": 5126,
      "normalized": false,
      "count": 10676,
      "type": "VEC2"
    },
    {
      "bufferView": 1,
      "byteOffset": 0,
      "componentType": 5123,
      "normalized": false,
      "count": 17844,
      "type": "SCALAR"
    },
    {
      "bufferView": 1,
      "byteOffset": 35688,
      "componentType": 5123,
      "normalized": false,
      "count": 4470,
      "type": "SCALAR"
    },
    {
      "bufferView": 1,
      "byteOffset": 44628,
      "componentType": 5123,
      "normalized": false,
      "count": 6546,
      "type": "SCALAR"
    },
    {
      "bufferView": 2,
      "byteOffset": 0,
      "componentType": 5126,
      "normalized": false,
      "count": 2616,
      "type": "VEC3",
      "max": [
        2.208625555038452,
        2.472929000854492,
        0.5392487049102783
      ],
      "min": [
        -0.06299185752868652,
        -1.6732282638549805,
        -0.885826826095581
      ]
    },
    {
      "bufferView": 2,
      "byteOffset": 12,
      "componentType": 5126,
      "normalized": false,
      "count": 2616,
      "type": "VEC3"
    },
    {
      "bufferView": 2,
      "byteOffset": 24,
      "componentType": 5126,
      "normalized": false,
      "count": 2616,
      "type": "VEC2"
    },
    {
      "bufferView": 2,
      "byteOffset": 32,
      "componentType": 5126,
      "normalized": false,
      "count": 2616,
      "type": "VEC2"
    },
    {
      "bufferView": 3,
      "byteOffset": 0,
      "componentType": 5126,
      "normalized": false,
      "count": 4202,
      "type": "VEC3",
      "max": [
        3.2874417304992676,
        2.952755928039551,
        0.8541851043701172
      ],
      "min": [
        -1.1614168882369995,
        -1.8307089805603027,
        -1.4763779640197754
      ]
    },
    {
      "bufferView": 3,
      "byteOffset": 12,
      "componentType": 5126,
      "normalized": false,
      "count": 4202,
      "type": "VEC3"
    },
    {
      "bufferView": 3,
      "byteOffset": 24,
      "componentType": 5126,
      "normalized": false,
      "count": 4202,
      "type": "VEC2"
    },
    {
      "bufferView": 3,
      "byteOffset": 32,
      "componentType": 5126,
      "normalized": false,
      "count": 4202,
      "type": "VEC2"
    }
  ],
  "asset": {
    "generator": "pygltflib@v1.16.5",
    "version": "2.0"
  },
  "bufferViews": [
    {
      "buffer": 0,
      "byteOffset": 0,
      "byteLength": 427040,
      "byteStride": 40,
      "target": 34962
    },
    {
      "buffer": 0,
      "byteOffset": 427040,
      "byteLength": 57720,
      "target": 34963
    },
    {
      "buffer": 0,
      "byteOffset": 484760,
      "byteLength": 104640,
      "byteStride": 40,
      "target": 34962
    },
    {
      "buffer": 0,
      "byteOffset": 589400,
      "byteLength": 168080,
      "byteStride": 40,
      "target": 34962
    }
  ],
  "buffers": [
    {
      "uri": "DisplayPort-Mini_Receptacle_TE_2129320-3.bin",
      "byteLength": 757480
    }
  ],
  "extensionsUsed": [
    "KHR_materials_clearcoat",
    "KHR_materials_ior",
    "KHR_materials_sheen",
    "KHR_materials_specular",
    "KHR_texture_basisu"
  ],
  "extensionsRequired": [
    "KHR_texture_basisu"
  ],
  "images": [
    {
      "uri": "../shared_textures/metal_connector_normal512.ktx2",
      "mimeType": "image/ktx2",
      "name": "metal_connector_normal512"
    },
    {
      "uri": "../shared_textures/metal_connector_color512.ktx2",
      "mimeType": "image/ktx2",
      "name": "metal_connector_color512"
    },
    {
      "uri": "../shared_textures/metal_connector_roughness512.ktx2",
      "mimeType": "image/ktx2",
      "name": "metal_connector_roughness512"
    },
    {
      "uri": "../shared_textures/metal_goldpins_2_normal512.ktx2",
      "mimeType": "image/ktx2",
      "name": "metal_goldpins_2_normal512"
    },
    {
      "uri": "../shared_textures/metal_goldpins_2_color512.ktx2",
      "mimeType": "image/ktx2",
      "name": "metal_goldpins_2_color512"
    },
    {
      "uri": "../shared_textures/plastic_matte_black_normal512.ktx2",
      "mimeType": "image/ktx2",
      "name": "plastic_matte_black_normal512"
    }
  ],
  "materials": [
    {
      "extensions": {
        "KHR_materials_clearcoat": {
          "clearcoatFactor": 0,
          "clearcoatRoughnessFactor": 0.46590909361839294
        },
        "KHR_materials_ior": {
          "ior": 1
        },
        "KHR_materials_sheen": {
          "sheenColorFactor": [
            1,
            1,
            1
          ],
          "sheenRoughnessFactor": 0.5
        },
        "KHR_materials_specular": {
          "specularFactor": 0.9590908885002136
        }
      },
      "pbrMetallicRoughness": {
        "baseColorFactor": [
          1.0,
          1.0,
          1.0,
          1.0
        ],
        "metallicFactor": 1.0,
        "roughnessFactor": 1.0,
        "baseColorTexture": {
          "index": 0,
          "texCoord": 0
        },
        "metallicRoughnessTexture": {
          "index": 2,
          "texCoord": 0
        }
      },
      "normalTexture": {
        "index": 1,
        "scale": 0.5
      },
      "emissiveFactor": [
        0.0,
        0.0,
        0.0
      ],
      "alphaMode": "OPAQUE",
      "doubleSided": true,
      "name": "gltf_metal_connector"
    },
    {
      "extensions": {
        "KHR_materials_clearcoat": {
          "clearcoatFactor": 0,
          "clearcoatRoughnessFactor": 0.2890909016132355
        },
        "KHR_materials_ior": {
          "ior": 1.4500000476837158
        },
        "KHR_materials_sheen": {
          "sheenColorFactor": [
            1,
            1,
            1
          ],
          "sheenRoughnessFactor": 0.5
        },
        "KHR_materials_specular": {
          "specularFactor": 0.9499998092651367
        }
      },
      "pbrMetallicRoughness": {
        "baseColorFactor": [
          1.0,
          1.0,
          1.0,
          1.0
        ],
        "metallicFactor": 1.0,
        "roughnessFactor": 0.1840909868478775,
        "baseColorTexture": {
          "index": 3,
          "texCoord": 0
        }
      },
      "normalTexture": {
        "index": 4,
        "scale": 1.0
      },
      "emissiveFactor": [
        0.0,
        0.0,
        0.0
      ],
      "alphaMode": "OPAQUE",
      "doubleSided": true,
      "name": "gltf_metal_goldpins_2"
    },
    {
      "pbrMetallicRoughness": {
        "baseColorFactor": [
          0.009721336886286736,
          0.009721336886286736,
          0.009721336886286736,
          1.0
        ],
        "metallicFactor": 0.09154544770717621,
        "roughnessFactor": 0.4615432620048523
      },
      "normalTexture": {
        "index": 5,
        "scale": 1.0
      },
      "emissiveFactor": [
        0.0,
        0.0,
        0.0
      ],
      "alphaMode": "OPAQUE",
      "doubleSided": true,
      "name": "gltf_plastic_matte_black"
    }
  ],
  "meshes": [
    {
      "primitives": [
        {
          "attributes": {
            "POSITION": 0,
            "NORMAL": 1,
            "TEXCOORD_0": 2,
            "TEXCOORD_1": 3
          },
          "indices": 4,
          "mode": 4,
          "material": 0
        },
        {
          "attributes": {
            "POSITION": 7,
            "NORMAL": 8,
            "TEXCOORD_0": 9,
            "TEXCOORD_1": 10
          },
          "indices": 5,
          "mode": 4,
          "material": 1
        },
        {
          "attributes": {
            "POSITION": 11,
            "NORMAL": 12,
            "TEXCOORD_0": 13,
            "TEXCOORD_1": 14
          },
          "indices": 6,
          "mode": 4,
          "material": 2
        }
      ],
      "name": "SHAPE_9_IndexedFaceSet.004"
    }
  ],
  "nodes": [
    {
      "extras": {
        "REF": "J",
        "model_diagonal": 18.191884759578198
      },
      "mesh": 0,
      "rotation": [
        0.7071067690849304,
        0.0,
        0.0,
        0.7071068286895752
      ],
      "scale": [
        2.5399999618530273,
        2.5399999618530273,
        2.5399999618530273
      ],
      "name": "SHAPE_9_IndexedFaceSet"
    }
  ],
  "samplers": [
    {
      "magFilter": 9729,
      "minFilter": 9987,
      "wrapS": 10497,
      "wrapT": 10497
    }
  ],
  "scene": 0,
  "scenes": [
    {
      "name": "Scene",
      "nodes": [
        0
      ]
    }
  ],
  "textures": [
    {
      "extensions": {
        "KHR_texture_basisu": {
          "source": 1
        }
      },
      "sampler": 0
    },
    {
      "extensions": {
        "KHR_texture_basisu": {
          "source": 0
        }
      },
      "sampler": 0
    },
    {
      "extensions": {
        "KHR_texture_basisu": {
          "source": 2
        }
      },
      "sampler": 0
    },
    {
      "extensions": {
        "KHR_texture_basisu": {
          "source": 4
        }
      },
      "sampler": 0
    },
    {
      "extensions": {
        "KHR_texture_basisu": {
          "source": 3
        }
      },
      "sampler": 0
    },
    {
      "extensions": {
        "KHR_texture_basisu": {
          "source": 5
        }
      },
      "sampler": 0
    }
  ]
}