<?xml version="1.0" standalone="no"?>
 <!DOCTYPE svg PUBLIC "-//W3C//DTD SVG 1.1//EN" 
 "http://www.w3.org/Graphics/SVG/1.1/DTD/svg11.dtd"> 
<svg
  xmlns:svg="http://www.w3.org/2000/svg"
  xmlns="http://www.w3.org/2000/svg"
  xmlns:xlink="http://www.w3.org/1999/xlink"
  version="1.1"
  width="15.3924mm" height="17.5260mm" viewBox="0.0000 0.0000 15.3924 17.5260">
<title>SVG Image created as outline.svg date 2025/04/04 10:06:12 </title>
  <desc>Image generated by PCBNEW </desc>
<g style="fill:#000000; fill-opacity:1.0000;stroke:#000000; stroke-opacity:1.0000;
stroke-linecap:round; stroke-linejoin:round;"
 transform="translate(0 0) scale(1 1)">
</g>
<g style="fill:none; 
stroke:#000000; stroke-width:0.0200; stroke-opacity:1; 
stroke-linecap:round; stroke-linejoin:round;">
<path d="M0.4750 12.1750
L0.4750 12.1760
" />
<path d="M0.4750 12.1760
L0.4750 12.1800
" />
<path d="M0.4750 12.1800
L0.4750 12.1860
" />
<path d="M0.4750 12.1860
L0.4750 12.1950
" />
<path d="M0.4750 12.1950
L0.4750 12.2060
" />
<path d="M0.4750 12.2060
L0.4750 12.2190
" />
<path d="M0.4750 12.2190
L0.4750 12.2340
" />
<path d="M0.4750 12.2340
L0.4750 12.2500
" />
<path d="M0.4750 12.2500
L0.4750 12.2690
" />
<path d="M0.4750 12.2690
L0.4750 12.2880
" />
<path d="M0.4750 12.2880
L0.4750 12.3090
" />
<path d="M0.4750 12.3090
L0.4750 12.3300
" />
<path d="M0.4750 12.3300
L0.4750 12.3530
" />
<path d="M0.4750 12.3530
L0.4750 12.3750
" />
<path d="M0.4750 12.3750
L0.4750 12.7750
" />
<path d="M0.4750 12.7750
L0.4750 12.7970
" />
<path d="M0.4750 12.7970
L0.4750 12.8200
" />
<path d="M0.4750 12.8200
L0.4750 12.8410
" />
<path d="M0.4750 12.8410
L0.4750 12.8620
" />
<path d="M0.4750 12.8620
L0.4750 12.8810
" />
<path d="M0.4750 12.8810
L0.4750 12.9000
" />
<path d="M0.4750 12.9000
L0.4750 12.9160
" />
<path d="M0.4750 12.9160
L0.4750 12.9310
" />
<path d="M0.4750 12.9310
L0.4750 12.9440
" />
<path d="M0.4750 12.9440
L0.4750 12.9550
" />
<path d="M0.4750 12.9550
L0.4750 12.9640
" />
<path d="M0.4750 12.9640
L0.4750 12.9700
" />
<path d="M0.4750 12.9700
L0.4750 12.9740
" />
<path d="M0.4750 12.9740
L0.4750 12.9750
" />
<path d="M0.6750 0.7250
L0.6750 0.7260
" />
<path d="M0.6750 0.7250
L0.6750 14.9250
" />
<path d="M0.6750 0.7250
L0.6770 0.7250
" />
<path d="M0.6750 0.7260
L0.6750 0.7290
" />
<path d="M0.6750 0.7290
L0.6750 0.7330
" />
<path d="M0.6750 0.7330
L0.6750 0.7400
" />
<path d="M0.6750 0.7400
L0.6750 0.7480
" />
<path d="M0.6750 0.7480
L0.6750 0.7580
" />
<path d="M0.6750 0.7580
L0.6750 0.7690
" />
<path d="M0.6750 0.7690
L0.6750 0.7810
" />
<path d="M0.6750 0.7810
L0.6750 0.7950
" />
<path d="M0.6750 0.7950
L0.6750 0.8100
" />
<path d="M0.6750 0.8100
L0.6750 0.8250
" />
<path d="M0.6750 0.8250
L0.6750 0.8420
" />
<path d="M0.6750 0.8420
L0.6750 0.8580
" />
<path d="M0.6750 0.8580
L0.6750 0.8750
" />
<path d="M0.6750 12.1750
L0.4750 12.1750
" />
<path d="M0.6750 12.3750
L0.4750 12.3750
" />
<path d="M0.6750 12.7750
L0.4750 12.7750
" />
<path d="M0.6750 12.9750
L0.4750 12.9750
" />
<path d="M0.6770 0.7250
L0.6830 0.7250
" />
<path d="M0.6770 14.9250
L0.6750 14.9250
" />
<path d="M0.6830 0.7250
L0.6920 0.7250
" />
<path d="M0.6830 14.9250
L0.6770 14.9250
" />
<path d="M0.6920 0.7250
L0.7050 0.7250
" />
<path d="M0.6920 14.9250
L0.6830 14.9250
" />
<path d="M0.7050 0.7250
L0.7210 0.7250
" />
<path d="M0.7050 14.9250
L0.6920 14.9250
" />
<path d="M0.7210 0.7250
L0.7400 0.7250
" />
<path d="M0.7210 14.9250
L0.7050 14.9250
" />
<path d="M0.7400 0.7250
L0.7630 0.7250
" />
<path d="M0.7400 14.9250
L0.7210 14.9250
" />
<path d="M0.7630 0.7250
L0.7880 0.7250
" />
<path d="M0.7630 14.9250
L0.7400 14.9250
" />
<path d="M0.7880 0.7250
L0.8150 0.7250
" />
<path d="M0.7880 14.9250
L0.7630 14.9250
" />
<path d="M0.8150 0.7250
L0.8450 0.7250
" />
<path d="M0.8150 14.9250
L0.7880 14.9250
" />
<path d="M0.8450 0.7250
L0.8760 0.7250
" />
<path d="M0.8450 14.9250
L0.8150 14.9250
" />
<path d="M0.8760 0.7250
L0.9080 0.7250
" />
<path d="M0.8760 14.9250
L0.8450 14.9250
" />
<path d="M0.9080 0.7250
L0.9410 0.7250
" />
<path d="M0.9080 14.9250
L0.8760 14.9250
" />
<path d="M0.9410 0.7250
L0.9750 0.7250
" />
<path d="M0.9410 14.9250
L0.9080 14.9250
" />
<path d="M0.9750 0.7250
L0.9750 14.9250
" />
<path d="M0.9750 0.7250
L7.2750 0.7250
" />
<path d="M0.9750 0.7250
L7.5250 0.7250
" />
<path d="M0.9750 14.9250
L0.9410 14.9250
" />
<path d="M1.3380 14.9250
L0.9750 14.9250
" />
<path d="M1.3750 14.9220
L1.3380 14.9250
" />
<path d="M1.4050 10.3250
L1.8650 10.3250
" />
<path d="M1.4100 14.9120
L1.3750 14.9220
" />
<path d="M1.4250 14.9250
L0.9750 14.9250
" />
<path d="M1.4250 14.9250
L1.4570 14.9210
" />
<path d="M1.4430 14.8960
L1.4100 14.9120
" />
<path d="M1.4570 14.9210
L1.4880 14.9110
" />
<path d="M1.4650 10.7250
L1.4650 11.9250
" />
<path d="M1.4650 11.9250
L1.4680 11.9770
" />
<path d="M1.4680 10.6730
L1.4650 10.7250
" />
<path d="M1.4680 11.9770
L1.4790 12.0290
" />
<path d="M1.4720 14.8740
L1.4430 14.8960
" />
<path d="M1.4790 10.6210
L1.4680 10.6730
" />
<path d="M1.4790 12.0290
L1.4950 12.0780
" />
<path d="M1.4880 14.9110
L1.5160 14.8940
" />
<path d="M1.4950 10.5720
L1.4790 10.6210
" />
<path d="M1.4950 12.0780
L1.5190 12.1250
" />
<path d="M1.5160 14.8940
L1.5400 14.8710
" />
<path d="M1.5190 10.5250
L1.4950 10.5720
" />
<path d="M1.5190 12.1250
L1.5480 12.1690
" />
<path d="M1.5400 14.8710
L1.5580 14.8440
" />
<path d="M1.5480 10.4810
L1.5190 10.5250
" />
<path d="M1.5480 12.1690
L1.5820 12.2080
" />
<path d="M1.5580 14.8440
L1.5700 14.8140
" />
<path d="M1.5700 14.8140
L1.5750 14.7820
" />
<path d="M1.5820 10.4420
L1.5480 10.4810
" />
<path d="M1.5820 12.2080
L1.6210 12.2420
" />
<path d="M1.6210 10.4080
L1.5820 10.4420
" />
<path d="M1.6210 12.2420
L1.6650 12.2710
" />
<path d="M1.6650 10.3790
L1.6210 10.4080
" />
<path d="M1.6650 12.2710
L1.7120 12.2950
" />
<path d="M1.7120 10.3550
L1.6650 10.3790
" />
<path d="M1.7120 12.2950
L1.7610 12.3110
" />
<path d="M1.7610 10.3390
L1.7120 10.3550
" />
<path d="M1.7610 12.3110
L1.8130 12.3220
" />
<path d="M1.7650 10.3380
L1.7650 10.3670
" />
<path d="M1.7650 10.3670
L1.7650 10.3970
" />
<path d="M1.7650 10.3970
L1.7650 10.4260
" />
<path d="M1.7650 10.4260
L1.7650 10.4550
" />
<path d="M1.7650 10.4550
L1.7650 10.4830
" />
<path d="M1.7650 10.4830
L1.7650 10.5110
" />
<path d="M1.7650 10.5110
L1.7650 10.5380
" />
<path d="M1.7650 10.5380
L1.7650 10.5650
" />
<path d="M1.7650 10.5650
L1.7650 10.5910
" />
<path d="M1.7650 10.5910
L1.7650 10.6170
" />
<path d="M1.7650 10.6170
L1.7650 10.6410
" />
<path d="M1.7650 10.6410
L1.7650 10.6650
" />
<path d="M1.7650 10.6650
L1.7650 10.6870
" />
<path d="M1.7650 10.6870
L1.7650 10.7080
" />
<path d="M1.7650 10.7080
L1.7650 10.8040
" />
<path d="M1.7650 10.8040
L1.7650 10.8140
" />
<path d="M1.7650 10.8140
L1.7650 10.8240
" />
<path d="M1.7650 10.8240
L1.7650 10.8350
" />
<path d="M1.7650 10.8350
L1.7650 10.8460
" />
<path d="M1.7650 10.8460
L1.7650 10.8580
" />
<path d="M1.7650 10.8580
L1.7650 10.8700
" />
<path d="M1.7650 10.8700
L1.7650 10.8820
" />
<path d="M1.7650 10.8820
L1.7650 10.8950
" />
<path d="M1.7650 10.8950
L1.7650 10.9080
" />
<path d="M1.7650 10.9080
L1.7650 10.9210
" />
<path d="M1.7650 10.9210
L1.7650 10.9340
" />
<path d="M1.7650 10.9340
L1.7650 10.9480
" />
<path d="M1.7650 10.9480
L1.7650 10.9610
" />
<path d="M1.7650 10.9610
L1.7650 10.9750
" />
<path d="M1.7650 10.9750
L1.7650 11.8750
" />
<path d="M1.8130 10.3280
L1.7610 10.3390
" />
<path d="M1.8130 12.3220
L1.8650 12.3250
" />
<path d="M1.8650 10.3250
L1.8130 10.3280
" />
<path d="M1.8650 12.3250
L5.0650 12.3250
" />
<path d="M1.9660 6.3140
L1.9670 6.3440
" />
<path d="M1.9670 6.3440
L1.9740 6.3740
" />
<path d="M1.9740 6.3740
L1.9870 6.4020
" />
<path d="M1.9870 6.4020
L2.0060 6.4260
" />
<path d="M2.0060 6.4260
L2.0290 6.4470
" />
<path d="M2.0290 6.4470
L2.0560 6.4620
" />
<path d="M2.0560 6.4620
L2.0850 6.4710
" />
<path d="M2.0650 10.3250
L2.0650 10.3550
" />
<path d="M2.0650 10.3550
L2.0650 10.3860
" />
<path d="M2.0650 10.3860
L2.0650 10.4160
" />
<path d="M2.0650 10.4160
L2.0650 10.4460
" />
<path d="M2.0650 10.4460
L2.0650 10.4750
" />
<path d="M2.0650 10.4750
L2.0650 10.5040
" />
<path d="M2.0650 10.5040
L2.0650 10.5330
" />
<path d="M2.0650 10.5330
L2.0650 10.5600
" />
<path d="M2.0650 10.5600
L2.0650 10.5870
" />
<path d="M2.0650 10.5870
L2.0650 10.6140
" />
<path d="M2.0650 10.6140
L2.0650 10.6390
" />
<path d="M2.0650 10.6390
L2.0650 10.6630
" />
<path d="M2.0650 10.6630
L2.0650 10.6860
" />
<path d="M2.0650 10.6860
L2.0650 10.7080
" />
<path d="M2.0650 10.7080
L1.7650 10.7080
" />
<path d="M2.0650 10.7080
L2.0650 10.8040
" />
<path d="M2.0650 10.8040
L1.7650 10.8040
" />
<path d="M2.0650 10.8040
L2.0650 10.8140
" />
<path d="M2.0650 10.8140
L2.0650 10.8240
" />
<path d="M2.0650 10.8240
L2.0650 10.8350
" />
<path d="M2.0650 10.8350
L2.0650 10.8460
" />
<path d="M2.0650 10.8460
L2.0650 10.8580
" />
<path d="M2.0650 10.8580
L2.0650 10.8700
" />
<path d="M2.0650 10.8700
L2.0650 10.8820
" />
<path d="M2.0650 10.8820
L2.0650 10.8950
" />
<path d="M2.0650 10.8950
L2.0650 10.9080
" />
<path d="M2.0650 10.9080
L2.0650 10.9210
" />
<path d="M2.0650 10.9210
L2.0650 10.9340
" />
<path d="M2.0650 10.9340
L2.0650 10.9480
" />
<path d="M2.0650 10.9480
L2.0650 10.9610
" />
<path d="M2.0650 10.9610
L2.0650 10.9750
" />
<path d="M2.0650 10.9750
L1.7650 10.9750
" />
<path d="M2.0650 10.9750
L2.0650 11.8750
" />
<path d="M2.0650 11.8750
L1.7650 11.8750
" />
<path d="M2.0830 14.3260
L1.4720 14.8740
" />
<path d="M2.0850 6.4710
L2.1150 6.4740
" />
<path d="M2.1120 14.3040
L2.0830 14.3260
" />
<path d="M2.1150 6.4740
L2.1470 6.4710
" />
<path d="M2.1450 14.2880
L2.1120 14.3040
" />
<path d="M2.1470 6.4710
L2.1780 6.4600
" />
<path d="M2.1780 6.4600
L2.2050 6.4440
" />
<path d="M2.1800 14.2780
L2.1450 14.2880
" />
<path d="M2.2050 6.4440
L2.2290 6.4220
" />
<path d="M2.2170 14.2750
L2.1800 14.2780
" />
<path d="M2.2250 2.6060
L1.9660 6.3140
" />
<path d="M2.2290 6.4220
L2.2470 6.3960
" />
<path d="M2.2320 2.5610
L2.2250 2.6060
" />
<path d="M2.2450 2.5180
L2.2320 2.5610
" />
<path d="M2.2470 6.3960
L2.2590 6.3660
" />
<path d="M2.2590 6.3660
L2.2650 6.3340
" />
<path d="M2.2640 2.4770
L2.2450 2.5180
" />
<path d="M2.2650 6.3340
L2.2940 5.9190
" />
<path d="M2.2890 2.4390
L2.2640 2.4770
" />
<path d="M2.2940 5.9190
L2.2970 5.8820
" />
<path d="M2.2940 5.9190
L3.4560 5.9190
" />
<path d="M2.2940 5.9190
L3.4560 5.9190
" />
<path d="M2.2970 5.8820
L2.4370 3.8780
" />
<path d="M2.2970 5.8820
L3.4530 5.8820
" />
<path d="M2.3200 2.4060
L2.2890 2.4390
" />
<path d="M2.3550 2.3780
L2.3200 2.4060
" />
<path d="M2.3950 2.3550
L2.3550 2.3780
" />
<path d="M2.4370 2.3380
L2.3950 2.3550
" />
<path d="M2.4370 3.8780
L2.4580 3.5720
" />
<path d="M2.4370 3.8780
L3.3130 3.8780
" />
<path d="M2.4580 3.5720
L2.4690 3.4210
" />
<path d="M2.4690 3.4210
L2.4790 3.2750
" />
<path d="M2.4790 3.2750
L2.4920 3.0950
" />
<path d="M2.4790 3.2750
L3.2710 3.2750
" />
<path d="M2.4810 2.3280
L2.4370 2.3380
" />
<path d="M2.4920 3.0950
L2.4950 3.0430
" />
<path d="M2.4950 3.0430
L2.5010 3.0110
" />
<path d="M2.4970 3.0620
L2.4920 3.0950
" />
<path d="M2.5010 3.0110
L2.5130 2.9780
" />
<path d="M2.5090 3.0290
L2.4970 3.0620
" />
<path d="M2.5130 2.9780
L2.5320 2.9460
" />
<path d="M2.5260 2.3250
L2.4810 2.3280
" />
<path d="M2.5280 2.9980
L2.5090 3.0290
" />
<path d="M2.5320 2.9460
L2.5580 2.9190
" />
<path d="M2.5540 2.9700
L2.5280 2.9980
" />
<path d="M2.5580 2.9190
L2.5890 2.8960
" />
<path d="M2.5860 2.9470
L2.5540 2.9700
" />
<path d="M2.5890 2.8960
L2.6240 2.8800
" />
<path d="M2.6200 2.9310
L2.5860 2.9470
" />
<path d="M2.6240 2.8800
L2.6600 2.8710
" />
<path d="M2.6560 2.9220
L2.6200 2.9310
" />
<path d="M2.6600 2.8710
L2.6950 2.8680
" />
<path d="M2.6910 2.9190
L2.6560 2.9220
" />
<path d="M2.6910 2.9190
L3.0590 2.9190
" />
<path d="M2.6950 2.8680
L2.6910 2.9190
" />
<path d="M2.6950 2.8680
L3.0550 2.8680
" />
<path d="M2.8650 10.3250
L2.8650 10.3550
" />
<path d="M2.8650 10.3550
L2.8650 10.3860
" />
<path d="M2.8650 10.3860
L2.8650 10.4160
" />
<path d="M2.8650 10.4160
L2.8650 10.4460
" />
<path d="M2.8650 10.4460
L2.8650 10.4750
" />
<path d="M2.8650 10.4750
L2.8650 10.5040
" />
<path d="M2.8650 10.5040
L2.8650 10.5330
" />
<path d="M2.8650 10.5330
L2.8650 10.5600
" />
<path d="M2.8650 10.5600
L2.8650 10.5870
" />
<path d="M2.8650 10.5870
L2.8650 10.6140
" />
<path d="M2.8650 10.6140
L2.8650 10.6390
" />
<path d="M2.8650 10.6390
L2.8650 10.6630
" />
<path d="M2.8650 10.6630
L2.8650 10.6860
" />
<path d="M2.8650 10.6860
L2.8650 10.7080
" />
<path d="M2.8650 10.7080
L2.8650 10.8040
" />
<path d="M2.8650 10.8040
L2.8650 10.8140
" />
<path d="M2.8650 10.8140
L2.8650 10.8240
" />
<path d="M2.8650 10.8240
L2.8650 10.8350
" />
<path d="M2.8650 10.8350
L2.8650 10.8460
" />
<path d="M2.8650 10.8460
L2.8650 10.8580
" />
<path d="M2.8650 10.8580
L2.8650 10.8700
" />
<path d="M2.8650 10.8700
L2.8650 10.8820
" />
<path d="M2.8650 10.8820
L2.8650 10.8950
" />
<path d="M2.8650 10.8950
L2.8650 10.9080
" />
<path d="M2.8650 10.9080
L2.8650 10.9210
" />
<path d="M2.8650 10.9210
L2.8650 10.9340
" />
<path d="M2.8650 10.9340
L2.8650 10.9480
" />
<path d="M2.8650 10.9480
L2.8650 10.9610
" />
<path d="M2.8650 10.9610
L2.8650 10.9750
" />
<path d="M2.8650 10.9750
L2.8650 11.8750
" />
<path d="M3.0550 2.8680
L3.0900 2.8710
" />
<path d="M3.0590 2.9190
L3.0550 2.8680
" />
<path d="M3.0900 2.8710
L3.1260 2.8800
" />
<path d="M3.0940 2.9220
L3.0590 2.9190
" />
<path d="M3.1260 2.8800
L3.1610 2.8960
" />
<path d="M3.1300 2.9310
L3.0940 2.9220
" />
<path d="M3.1610 2.8960
L3.1920 2.9190
" />
<path d="M3.1640 2.9470
L3.1300 2.9310
" />
<path d="M3.1650 10.3250
L3.1650 10.3550
" />
<path d="M3.1650 10.3550
L3.1650 10.3860
" />
<path d="M3.1650 10.3860
L3.1650 10.4160
" />
<path d="M3.1650 10.4160
L3.1650 10.4460
" />
<path d="M3.1650 10.4460
L3.1650 10.4750
" />
<path d="M3.1650 10.4750
L3.1650 10.5040
" />
<path d="M3.1650 10.5040
L3.1650 10.5330
" />
<path d="M3.1650 10.5330
L3.1650 10.5600
" />
<path d="M3.1650 10.5600
L3.1650 10.5870
" />
<path d="M3.1650 10.5870
L3.1650 10.6140
" />
<path d="M3.1650 10.6140
L3.1650 10.6390
" />
<path d="M3.1650 10.6390
L3.1650 10.6630
" />
<path d="M3.1650 10.6630
L3.1650 10.6860
" />
<path d="M3.1650 10.6860
L3.1650 10.7080
" />
<path d="M3.1650 10.7080
L2.8650 10.7080
" />
<path d="M3.1650 10.7080
L3.1650 10.8040
" />
<path d="M3.1650 10.8040
L2.8650 10.8040
" />
<path d="M3.1650 10.8040
L3.1650 10.8140
" />
<path d="M3.1650 10.8140
L3.1650 10.8240
" />
<path d="M3.1650 10.8240
L3.1650 10.8350
" />
<path d="M3.1650 10.8350
L3.1650 10.8460
" />
<path d="M3.1650 10.8460
L3.1650 10.8580
" />
<path d="M3.1650 10.8580
L3.1650 10.8700
" />
<path d="M3.1650 10.8700
L3.1650 10.8820
" />
<path d="M3.1650 10.8820
L3.1650 10.8950
" />
<path d="M3.1650 10.8950
L3.1650 10.9080
" />
<path d="M3.1650 10.9080
L3.1650 10.9210
" />
<path d="M3.1650 10.9210
L3.1650 10.9340
" />
<path d="M3.1650 10.9340
L3.1650 10.9480
" />
<path d="M3.1650 10.9480
L3.1650 10.9610
" />
<path d="M3.1650 10.9610
L3.1650 10.9750
" />
<path d="M3.1650 10.9750
L2.8650 10.9750
" />
<path d="M3.1650 10.9750
L3.1650 11.8750
" />
<path d="M3.1650 11.8750
L2.8650 11.8750
" />
<path d="M3.1920 2.9190
L3.2180 2.9460
" />
<path d="M3.1960 2.9700
L3.1640 2.9470
" />
<path d="M3.2180 2.9460
L3.2370 2.9780
" />
<path d="M3.2220 2.9980
L3.1960 2.9700
" />
<path d="M3.2240 2.3250
L2.5260 2.3250
" />
<path d="M3.2370 2.9780
L3.2490 3.0110
" />
<path d="M3.2410 3.0290
L3.2220 2.9980
" />
<path d="M3.2490 3.0110
L3.2550 3.0430
" />
<path d="M3.2530 3.0620
L3.2410 3.0290
" />
<path d="M3.2550 3.0430
L3.2580 3.0950
" />
<path d="M3.2580 3.0950
L3.2530 3.0620
" />
<path d="M3.2580 3.0950
L3.2710 3.2750
" />
<path d="M3.2690 2.3280
L3.2240 2.3250
" />
<path d="M3.2710 3.2750
L3.2810 3.4210
" />
<path d="M3.2810 3.4210
L3.2920 3.5720
" />
<path d="M3.2920 3.5720
L3.3130 3.8780
" />
<path d="M3.3130 2.3380
L3.2690 2.3280
" />
<path d="M3.3130 3.8780
L3.4530 5.8820
" />
<path d="M3.3550 2.3550
L3.3130 2.3380
" />
<path d="M3.3950 2.3780
L3.3550 2.3550
" />
<path d="M3.4300 2.4060
L3.3950 2.3780
" />
<path d="M3.4530 5.8820
L3.4560 5.9190
" />
<path d="M3.4560 5.9190
L3.4850 6.3340
" />
<path d="M3.4610 2.4390
L3.4300 2.4060
" />
<path d="M3.4850 6.3340
L3.4910 6.3660
" />
<path d="M3.4860 2.4770
L3.4610 2.4390
" />
<path d="M3.4910 6.3660
L3.5030 6.3960
" />
<path d="M3.5030 6.3960
L3.5210 6.4220
" />
<path d="M3.5050 2.5180
L3.4860 2.4770
" />
<path d="M3.5180 2.5610
L3.5050 2.5180
" />
<path d="M3.5210 6.4220
L3.5450 6.4440
" />
<path d="M3.5250 2.6060
L3.5180 2.5610
" />
<path d="M3.5450 6.4440
L3.5720 6.4600
" />
<path d="M3.5720 6.4600
L3.6030 6.4710
" />
<path d="M3.6030 6.4710
L3.6350 6.4740
" />
<path d="M3.6350 6.4740
L3.6650 6.4710
" />
<path d="M3.6650 6.4710
L3.6940 6.4620
" />
<path d="M3.6940 6.4620
L3.7210 6.4470
" />
<path d="M3.7210 6.4470
L3.7440 6.4260
" />
<path d="M3.7440 6.4260
L3.7630 6.4020
" />
<path d="M3.7630 6.4020
L3.7760 6.3740
" />
<path d="M3.7760 6.3740
L3.7830 6.3440
" />
<path d="M3.7830 6.3440
L3.7840 6.3140
" />
<path d="M3.7840 6.3140
L3.5250 2.6060
" />
<path d="M3.9650 10.3250
L3.9650 10.3550
" />
<path d="M3.9650 10.3550
L3.9650 10.3860
" />
<path d="M3.9650 10.3860
L3.9650 10.4160
" />
<path d="M3.9650 10.4160
L3.9650 10.4460
" />
<path d="M3.9650 10.4460
L3.9650 10.4750
" />
<path d="M3.9650 10.4750
L3.9650 10.5040
" />
<path d="M3.9650 10.5040
L3.9650 10.5330
" />
<path d="M3.9650 10.5330
L3.9650 10.5600
" />
<path d="M3.9650 10.5600
L3.9650 10.5870
" />
<path d="M3.9650 10.5870
L3.9650 10.6140
" />
<path d="M3.9650 10.6140
L3.9650 10.6390
" />
<path d="M3.9650 10.6390
L3.9650 10.6630
" />
<path d="M3.9650 10.6630
L3.9650 10.6860
" />
<path d="M3.9650 10.6860
L3.9650 10.7080
" />
<path d="M3.9650 10.7080
L3.9650 10.8040
" />
<path d="M3.9650 10.8040
L3.9650 10.8140
" />
<path d="M3.9650 10.8140
L3.9650 10.8240
" />
<path d="M3.9650 10.8240
L3.9650 10.8350
" />
<path d="M3.9650 10.8350
L3.9650 10.8460
" />
<path d="M3.9650 10.8460
L3.9650 10.8580
" />
<path d="M3.9650 10.8580
L3.9650 10.8700
" />
<path d="M3.9650 10.8700
L3.9650 10.8820
" />
<path d="M3.9650 10.8820
L3.9650 10.8950
" />
<path d="M3.9650 10.8950
L3.9650 10.9080
" />
<path d="M3.9650 10.9080
L3.9650 10.9210
" />
<path d="M3.9650 10.9210
L3.9650 10.9340
" />
<path d="M3.9650 10.9340
L3.9650 10.9480
" />
<path d="M3.9650 10.9480
L3.9650 10.9610
" />
<path d="M3.9650 10.9610
L3.9650 10.9750
" />
<path d="M3.9650 10.9750
L3.9650 12.0750
" />
<path d="M4.2650 10.3250
L4.2650 10.3550
" />
<path d="M4.2650 10.3550
L4.2650 10.3860
" />
<path d="M4.2650 10.3860
L4.2650 10.4160
" />
<path d="M4.2650 10.4160
L4.2650 10.4460
" />
<path d="M4.2650 10.4460
L4.2650 10.4750
" />
<path d="M4.2650 10.4750
L4.2650 10.5040
" />
<path d="M4.2650 10.5040
L4.2650 10.5330
" />
<path d="M4.2650 10.5330
L4.2650 10.5600
" />
<path d="M4.2650 10.5600
L4.2650 10.5870
" />
<path d="M4.2650 10.5870
L4.2650 10.6140
" />
<path d="M4.2650 10.6140
L4.2650 10.6390
" />
<path d="M4.2650 10.6390
L4.2650 10.6630
" />
<path d="M4.2650 10.6630
L4.2650 10.6860
" />
<path d="M4.2650 10.6860
L4.2650 10.7080
" />
<path d="M4.2650 10.7080
L3.9650 10.7080
" />
<path d="M4.2650 10.7080
L4.2650 10.8040
" />
<path d="M4.2650 10.8040
L3.9650 10.8040
" />
<path d="M4.2650 10.8040
L4.2650 10.8140
" />
<path d="M4.2650 10.8140
L4.2650 10.8240
" />
<path d="M4.2650 10.8240
L4.2650 10.8350
" />
<path d="M4.2650 10.8350
L4.2650 10.8460
" />
<path d="M4.2650 10.8460
L4.2650 10.8580
" />
<path d="M4.2650 10.8580
L4.2650 10.8700
" />
<path d="M4.2650 10.8700
L4.2650 10.8820
" />
<path d="M4.2650 10.8820
L4.2650 10.8950
" />
<path d="M4.2650 10.8950
L4.2650 10.9080
" />
<path d="M4.2650 10.9080
L4.2650 10.9210
" />
<path d="M4.2650 10.9210
L4.2650 10.9340
" />
<path d="M4.2650 10.9340
L4.2650 10.9480
" />
<path d="M4.2650 10.9480
L4.2650 10.9610
" />
<path d="M4.2650 10.9610
L4.2650 10.9750
" />
<path d="M4.2650 10.9750
L3.9650 10.9750
" />
<path d="M4.2650 10.9750
L4.2650 12.0750
" />
<path d="M4.2650 12.0750
L3.9650 12.0750
" />
<path d="M5.0650 10.3250
L1.8650 10.3250
" />
<path d="M5.0650 10.3250
L5.0650 10.3550
" />
<path d="M5.0650 10.3550
L5.0650 10.3860
" />
<path d="M5.0650 10.3860
L5.0650 10.4160
" />
<path d="M5.0650 10.4160
L5.0650 10.4460
" />
<path d="M5.0650 10.4460
L5.0650 10.4750
" />
<path d="M5.0650 10.4750
L5.0650 10.5040
" />
<path d="M5.0650 10.5040
L5.0650 10.5330
" />
<path d="M5.0650 10.5330
L5.0650 10.5600
" />
<path d="M5.0650 10.5600
L5.0650 10.5870
" />
<path d="M5.0650 10.5870
L5.0650 10.6140
" />
<path d="M5.0650 10.6140
L5.0650 10.6390
" />
<path d="M5.0650 10.6390
L5.0650 10.6630
" />
<path d="M5.0650 10.6630
L5.0650 10.6860
" />
<path d="M5.0650 10.6860
L5.0650 10.7080
" />
<path d="M5.0650 10.7080
L5.0650 10.8040
" />
<path d="M5.0650 10.8040
L5.0650 10.8140
" />
<path d="M5.0650 10.8140
L5.0650 10.8240
" />
<path d="M5.0650 10.8240
L5.0650 10.8350
" />
<path d="M5.0650 10.8350
L5.0650 10.8460
" />
<path d="M5.0650 10.8460
L5.0650 10.8580
" />
<path d="M5.0650 10.8580
L5.0650 10.8700
" />
<path d="M5.0650 10.8700
L5.0650 10.8820
" />
<path d="M5.0650 10.8820
L5.0650 10.8950
" />
<path d="M5.0650 10.8950
L5.0650 10.9080
" />
<path d="M5.0650 10.9080
L5.0650 10.9210
" />
<path d="M5.0650 10.9210
L5.0650 10.9340
" />
<path d="M5.0650 10.9340
L5.0650 10.9480
" />
<path d="M5.0650 10.9480
L5.0650 10.9610
" />
<path d="M5.0650 10.9610
L5.0650 10.9750
" />
<path d="M5.0650 10.9750
L5.0650 11.8750
" />
<path d="M5.0650 12.3250
L5.1170 12.3220
" />
<path d="M5.1170 10.3280
L5.0650 10.3250
" />
<path d="M5.1170 12.3220
L5.1690 12.3110
" />
<path d="M5.1690 10.3390
L5.1170 10.3280
" />
<path d="M5.1690 12.3110
L5.2180 12.2950
" />
<path d="M5.2180 10.3550
L5.1690 10.3390
" />
<path d="M5.2180 12.2950
L5.2650 12.2710
" />
<path d="M5.2650 10.3790
L5.2180 10.3550
" />
<path d="M5.2650 12.2710
L5.3090 12.2420
" />
<path d="M5.3090 10.4080
L5.2650 10.3790
" />
<path d="M5.3090 12.2420
L5.3480 12.2080
" />
<path d="M5.3480 10.4420
L5.3090 10.4080
" />
<path d="M5.3480 12.2080
L5.3820 12.1690
" />
<path d="M5.3650 10.4600
L5.3650 10.4800
" />
<path d="M5.3650 10.4800
L5.3650 10.5000
" />
<path d="M5.3650 10.5000
L5.3650 10.5190
" />
<path d="M5.3650 10.5190
L5.3650 10.5390
" />
<path d="M5.3650 10.5390
L5.3650 10.5570
" />
<path d="M5.3650 10.5570
L5.3650 10.5760
" />
<path d="M5.3650 10.5760
L5.3650 10.5940
" />
<path d="M5.3650 10.5940
L5.3650 10.6120
" />
<path d="M5.3650 10.6120
L5.3650 10.6290
" />
<path d="M5.3650 10.6290
L5.3650 10.6460
" />
<path d="M5.3650 10.6460
L5.3650 10.6620
" />
<path d="M5.3650 10.6620
L5.3650 10.6780
" />
<path d="M5.3650 10.6780
L5.3650 10.6940
" />
<path d="M5.3650 10.6940
L5.3650 10.7080
" />
<path d="M5.3650 10.7080
L5.0650 10.7080
" />
<path d="M5.3650 10.7080
L5.3650 10.8040
" />
<path d="M5.3650 10.8040
L5.0650 10.8040
" />
<path d="M5.3650 10.8040
L5.3650 10.8140
" />
<path d="M5.3650 10.8140
L5.3650 10.8240
" />
<path d="M5.3650 10.8240
L5.3650 10.8350
" />
<path d="M5.3650 10.8350
L5.3650 10.8460
" />
<path d="M5.3650 10.8460
L5.3650 10.8580
" />
<path d="M5.3650 10.8580
L5.3650 10.8700
" />
<path d="M5.3650 10.8700
L5.3650 10.8820
" />
<path d="M5.3650 10.8820
L5.3650 10.8950
" />
<path d="M5.3650 10.8950
L5.3650 10.9080
" />
<path d="M5.3650 10.9080
L5.3650 10.9210
" />
<path d="M5.3650 10.9210
L5.3650 10.9340
" />
<path d="M5.3650 10.9340
L5.3650 10.9480
" />
<path d="M5.3650 10.9480
L5.3650 10.9610
" />
<path d="M5.3650 10.9610
L5.3650 10.9750
" />
<path d="M5.3650 10.9750
L5.0650 10.9750
" />
<path d="M5.3650 10.9750
L5.3650 11.8750
" />
<path d="M5.3650 11.8750
L5.0650 11.8750
" />
<path d="M5.3820 10.4810
L5.3480 10.4420
" />
<path d="M5.3820 12.1690
L5.4110 12.1250
" />
<path d="M5.4110 10.5250
L5.3820 10.4810
" />
<path d="M5.4110 12.1250
L5.4350 12.0780
" />
<path d="M5.4350 10.5720
L5.4110 10.5250
" />
<path d="M5.4350 12.0780
L5.4510 12.0290
" />
<path d="M5.4510 10.6210
L5.4350 10.5720
" />
<path d="M5.4510 12.0290
L5.4620 11.9770
" />
<path d="M5.4620 10.6730
L5.4510 10.6210
" />
<path d="M5.4620 11.9770
L5.4650 11.9250
" />
<path d="M5.4650 10.7250
L5.4620 10.6730
" />
<path d="M5.4650 11.9250
L5.4650 10.7250
" />
<path d="M6.0650 10.7250
L6.0650 11.9250
" />
<path d="M6.0650 11.9250
L6.0680 11.9770
" />
<path d="M6.0680 10.6730
L6.0650 10.7250
" />
<path d="M6.0680 11.9770
L6.0790 12.0290
" />
<path d="M6.0790 10.6210
L6.0680 10.6730
" />
<path d="M6.0790 12.0290
L6.0950 12.0780
" />
<path d="M6.0950 10.5720
L6.0790 10.6210
" />
<path d="M6.0950 12.0780
L6.1190 12.1250
" />
<path d="M6.1190 10.5250
L6.0950 10.5720
" />
<path d="M6.1190 12.1250
L6.1480 12.1690
" />
<path d="M6.1480 10.4810
L6.1190 10.5250
" />
<path d="M6.1480 12.1690
L6.1820 12.2080
" />
<path d="M6.1650 10.4600
L6.1650 10.4800
" />
<path d="M6.1650 10.4800
L6.1650 10.5000
" />
<path d="M6.1650 10.5000
L6.1650 10.5190
" />
<path d="M6.1650 10.5190
L6.1650 10.5390
" />
<path d="M6.1650 10.5390
L6.1650 10.5570
" />
<path d="M6.1650 10.5570
L6.1650 10.5760
" />
<path d="M6.1650 10.5760
L6.1650 10.5940
" />
<path d="M6.1650 10.5940
L6.1650 10.6120
" />
<path d="M6.1650 10.6120
L6.1650 10.6290
" />
<path d="M6.1650 10.6290
L6.1650 10.6460
" />
<path d="M6.1650 10.6460
L6.1650 10.6620
" />
<path d="M6.1650 10.6620
L6.1650 10.6780
" />
<path d="M6.1650 10.6780
L6.1650 10.6940
" />
<path d="M6.1650 10.6940
L6.1650 10.7080
" />
<path d="M6.1650 10.7080
L6.1650 10.8040
" />
<path d="M6.1650 10.8040
L6.1650 10.8140
" />
<path d="M6.1650 10.8140
L6.1650 10.8240
" />
<path d="M6.1650 10.8240
L6.1650 10.8350
" />
<path d="M6.1650 10.8350
L6.1650 10.8460
" />
<path d="M6.1650 10.8460
L6.1650 10.8580
" />
<path d="M6.1650 10.8580
L6.1650 10.8700
" />
<path d="M6.1650 10.8700
L6.1650 10.8820
" />
<path d="M6.1650 10.8820
L6.1650 10.8950
" />
<path d="M6.1650 10.8950
L6.1650 10.9080
" />
<path d="M6.1650 10.9080
L6.1650 10.9210
" />
<path d="M6.1650 10.9210
L6.1650 10.9340
" />
<path d="M6.1650 10.9340
L6.1650 10.9480
" />
<path d="M6.1650 10.9480
L6.1650 10.9610
" />
<path d="M6.1650 10.9610
L6.1650 10.9750
" />
<path d="M6.1650 10.9750
L6.1650 12.0750
" />
<path d="M6.1820 10.4420
L6.1480 10.4810
" />
<path d="M6.1820 12.2080
L6.2210 12.2420
" />
<path d="M6.2210 10.4080
L6.1820 10.4420
" />
<path d="M6.2210 12.2420
L6.2650 12.2710
" />
<path d="M6.2650 10.3790
L6.2210 10.4080
" />
<path d="M6.2650 12.2710
L6.3120 12.2950
" />
<path d="M6.3120 10.3550
L6.2650 10.3790
" />
<path d="M6.3120 12.2950
L6.3610 12.3110
" />
<path d="M6.3610 10.3390
L6.3120 10.3550
" />
<path d="M6.3610 12.3110
L6.4130 12.3220
" />
<path d="M6.4130 10.3280
L6.3610 10.3390
" />
<path d="M6.4130 12.3220
L6.4650 12.3250
" />
<path d="M6.4650 10.3250
L6.4130 10.3280
" />
<path d="M6.4650 10.3250
L6.4650 10.3550
" />
<path d="M6.4650 10.3550
L6.4650 10.3860
" />
<path d="M6.4650 10.3860
L6.4650 10.4160
" />
<path d="M6.4650 10.4160
L6.4650 10.4460
" />
<path d="M6.4650 10.4460
L6.4650 10.4750
" />
<path d="M6.4650 10.4750
L6.4650 10.5040
" />
<path d="M6.4650 10.5040
L6.4650 10.5330
" />
<path d="M6.4650 10.5330
L6.4650 10.5600
" />
<path d="M6.4650 10.5600
L6.4650 10.5870
" />
<path d="M6.4650 10.5870
L6.4650 10.6140
" />
<path d="M6.4650 10.6140
L6.4650 10.6390
" />
<path d="M6.4650 10.6390
L6.4650 10.6630
" />
<path d="M6.4650 10.6630
L6.4650 10.6860
" />
<path d="M6.4650 10.6860
L6.4650 10.7080
" />
<path d="M6.4650 10.7080
L6.1650 10.7080
" />
<path d="M6.4650 10.7080
L6.4650 10.8040
" />
<path d="M6.4650 10.8040
L6.1650 10.8040
" />
<path d="M6.4650 10.8040
L6.4650 10.8140
" />
<path d="M6.4650 10.8140
L6.4650 10.8240
" />
<path d="M6.4650 10.8240
L6.4650 10.8350
" />
<path d="M6.4650 10.8350
L6.4650 10.8460
" />
<path d="M6.4650 10.8460
L6.4650 10.8580
" />
<path d="M6.4650 10.8580
L6.4650 10.8700
" />
<path d="M6.4650 10.8700
L6.4650 10.8820
" />
<path d="M6.4650 10.8820
L6.4650 10.8950
" />
<path d="M6.4650 10.8950
L6.4650 10.9080
" />
<path d="M6.4650 10.9080
L6.4650 10.9210
" />
<path d="M6.4650 10.9210
L6.4650 10.9340
" />
<path d="M6.4650 10.9340
L6.4650 10.9480
" />
<path d="M6.4650 10.9480
L6.4650 10.9610
" />
<path d="M6.4650 10.9610
L6.4650 10.9750
" />
<path d="M6.4650 10.9750
L6.1650 10.9750
" />
<path d="M6.4650 10.9750
L6.4650 12.0750
" />
<path d="M6.4650 12.0750
L6.1650 12.0750
" />
<path d="M6.4650 12.3250
L9.6650 12.3250
" />
<path d="M7.2650 10.3250
L7.2650 10.3550
" />
<path d="M7.2650 10.3550
L7.2650 10.3860
" />
<path d="M7.2650 10.3860
L7.2650 10.4160
" />
<path d="M7.2650 10.4160
L7.2650 10.4460
" />
<path d="M7.2650 10.4460
L7.2650 10.4750
" />
<path d="M7.2650 10.4750
L7.2650 10.5040
" />
<path d="M7.2650 10.5040
L7.2650 10.5330
" />
<path d="M7.2650 10.5330
L7.2650 10.5600
" />
<path d="M7.2650 10.5600
L7.2650 10.5870
" />
<path d="M7.2650 10.5870
L7.2650 10.6140
" />
<path d="M7.2650 10.6140
L7.2650 10.6390
" />
<path d="M7.2650 10.6390
L7.2650 10.6630
" />
<path d="M7.2650 10.6630
L7.2650 10.6860
" />
<path d="M7.2650 10.6860
L7.2650 10.7080
" />
<path d="M7.2650 10.7080
L7.2650 10.8040
" />
<path d="M7.2650 10.8040
L7.2650 10.8140
" />
<path d="M7.2650 10.8140
L7.2650 10.8240
" />
<path d="M7.2650 10.8240
L7.2650 10.8350
" />
<path d="M7.2650 10.8350
L7.2650 10.8460
" />
<path d="M7.2650 10.8460
L7.2650 10.8580
" />
<path d="M7.2650 10.8580
L7.2650 10.8700
" />
<path d="M7.2650 10.8700
L7.2650 10.8820
" />
<path d="M7.2650 10.8820
L7.2650 10.8950
" />
<path d="M7.2650 10.8950
L7.2650 10.9080
" />
<path d="M7.2650 10.9080
L7.2650 10.9210
" />
<path d="M7.2650 10.9210
L7.2650 10.9340
" />
<path d="M7.2650 10.9340
L7.2650 10.9480
" />
<path d="M7.2650 10.9480
L7.2650 10.9610
" />
<path d="M7.2650 10.9610
L7.2650 10.9750
" />
<path d="M7.2650 10.9750
L7.2650 11.8750
" />
<path d="M7.3080 0.7290
L7.2750 0.7250
" />
<path d="M7.3400 0.7400
L7.3080 0.7290
" />
<path d="M7.3660 8.7640
L7.3670 8.7940
" />
<path d="M7.3670 8.7940
L7.3740 8.8240
" />
<path d="M7.3690 0.7580
L7.3400 0.7400
" />
<path d="M7.3740 8.8240
L7.3870 8.8520
" />
<path d="M7.3870 8.8520
L7.4060 8.8760
" />
<path d="M7.3920 0.7810
L7.3690 0.7580
" />
<path d="M7.4060 8.8760
L7.4290 8.8970
" />
<path d="M7.4100 0.8100
L7.3920 0.7810
" />
<path d="M7.4210 0.8420
L7.4100 0.8100
" />
<path d="M7.4250 0.8750
L7.4210 0.8420
" />
<path d="M7.4250 0.8750
L7.4250 1.6750
" />
<path d="M7.4290 1.7140
L7.4250 1.6750
" />
<path d="M7.4290 8.8970
L7.4560 8.9120
" />
<path d="M7.4400 1.7520
L7.4290 1.7140
" />
<path d="M7.4560 8.9120
L7.4850 8.9210
" />
<path d="M7.4590 1.7860
L7.4400 1.7520
" />
<path d="M7.4840 1.8160
L7.4590 1.7860
" />
<path d="M7.4850 8.9210
L7.5150 8.9240
" />
<path d="M7.5140 1.8410
L7.4840 1.8160
" />
<path d="M7.5150 8.9240
L7.5470 8.9210
" />
<path d="M7.5250 0.7250
L7.5250 0.9250
" />
<path d="M7.5250 0.9250
L7.4250 0.9250
" />
<path d="M7.5250 1.8250
L7.7570 1.8250
" />
<path d="M7.5250 1.8480
L7.5250 0.9250
" />
<path d="M7.5470 8.9210
L7.5780 8.9100
" />
<path d="M7.5480 1.8600
L7.5140 1.8410
" />
<path d="M7.5650 10.3250
L7.5650 10.3550
" />
<path d="M7.5650 10.3550
L7.5650 10.3860
" />
<path d="M7.5650 10.3860
L7.5650 10.4160
" />
<path d="M7.5650 10.4160
L7.5650 10.4460
" />
<path d="M7.5650 10.4460
L7.5650 10.4750
" />
<path d="M7.5650 10.4750
L7.5650 10.5040
" />
<path d="M7.5650 10.5040
L7.5650 10.5330
" />
<path d="M7.5650 10.5330
L7.5650 10.5600
" />
<path d="M7.5650 10.5600
L7.5650 10.5870
" />
<path d="M7.5650 10.5870
L7.5650 10.6140
" />
<path d="M7.5650 10.6140
L7.5650 10.6390
" />
<path d="M7.5650 10.6390
L7.5650 10.6630
" />
<path d="M7.5650 10.6630
L7.5650 10.6860
" />
<path d="M7.5650 10.6860
L7.5650 10.7080
" />
<path d="M7.5650 10.7080
L7.2650 10.7080
" />
<path d="M7.5650 10.7080
L7.5650 10.8040
" />
<path d="M7.5650 10.8040
L7.2650 10.8040
" />
<path d="M7.5650 10.8040
L7.5650 10.8140
" />
<path d="M7.5650 10.8140
L7.5650 10.8240
" />
<path d="M7.5650 10.8240
L7.5650 10.8350
" />
<path d="M7.5650 10.8350
L7.5650 10.8460
" />
<path d="M7.5650 10.8460
L7.5650 10.8580
" />
<path d="M7.5650 10.8580
L7.5650 10.8700
" />
<path d="M7.5650 10.8700
L7.5650 10.8820
" />
<path d="M7.5650 10.8820
L7.5650 10.8950
" />
<path d="M7.5650 10.8950
L7.5650 10.9080
" />
<path d="M7.5650 10.9080
L7.5650 10.9210
" />
<path d="M7.5650 10.9210
L7.5650 10.9340
" />
<path d="M7.5650 10.9340
L7.5650 10.9480
" />
<path d="M7.5650 10.9480
L7.5650 10.9610
" />
<path d="M7.5650 10.9610
L7.5650 10.9750
" />
<path d="M7.5650 10.9750
L7.2650 10.9750
" />
<path d="M7.5650 10.9750
L7.5650 11.8750
" />
<path d="M7.5650 11.8750
L7.2650 11.8750
" />
<path d="M7.5780 8.9100
L7.6050 8.8940
" />
<path d="M7.5860 1.8710
L7.5480 1.8600
" />
<path d="M7.6050 8.8940
L7.6290 8.8720
" />
<path d="M7.6250 1.8750
L7.5860 1.8710
" />
<path d="M7.6250 5.0560
L7.3660 8.7640
" />
<path d="M7.6290 8.8720
L7.6470 8.8460
" />
<path d="M7.6320 5.0110
L7.6250 5.0560
" />
<path d="M7.6450 4.9680
L7.6320 5.0110
" />
<path d="M7.6470 8.8460
L7.6590 8.8160
" />
<path d="M7.6490 1.8740
L7.6250 1.8750
" />
<path d="M7.6590 8.8160
L7.6650 8.7840
" />
<path d="M7.6640 4.9270
L7.6450 4.9680
" />
<path d="M7.6650 8.7840
L7.6940 8.3690
" />
<path d="M7.6720 1.8690
L7.6490 1.8740
" />
<path d="M7.6890 4.8890
L7.6640 4.9270
" />
<path d="M7.6940 1.8630
L7.6720 1.8690
" />
<path d="M7.6940 8.3690
L7.6970 8.3320
" />
<path d="M7.6940 8.3690
L8.8560 8.3690
" />
<path d="M7.6940 8.3690
L8.8560 8.3690
" />
<path d="M7.6970 8.3320
L7.8370 6.3280
" />
<path d="M7.6970 8.3320
L8.8530 8.3320
" />
<path d="M7.7160 1.8530
L7.6940 1.8630
" />
<path d="M7.7200 4.8560
L7.6890 4.8890
" />
<path d="M7.7360 1.8410
L7.7160 1.8530
" />
<path d="M7.7540 1.8270
L7.7360 1.8410
" />
<path d="M7.7550 4.8280
L7.7200 4.8560
" />
<path d="M7.7710 1.8110
L7.7540 1.8270
" />
<path d="M7.7860 1.7940
L7.7710 1.8110
" />
<path d="M7.7950 4.8050
L7.7550 4.8280
" />
<path d="M7.7970 1.7760
L7.7860 1.7940
" />
<path d="M7.8070 1.7580
L7.7970 1.7760
" />
<path d="M7.8190 1.7250
L7.8070 1.7580
" />
<path d="M7.8240 1.6980
L7.8190 1.7250
" />
<path d="M7.8250 0.8750
L7.8250 1.5250
" />
<path d="M7.8250 1.5250
L7.8250 1.5420
" />
<path d="M7.8250 1.5420
L7.8250 1.5580
" />
<path d="M7.8250 1.5580
L7.8250 1.5750
" />
<path d="M7.8250 1.5750
L7.8250 1.5900
" />
<path d="M7.8250 1.5900
L7.8250 1.6050
" />
<path d="M7.8250 1.6050
L7.8250 1.6190
" />
<path d="M7.8250 1.6190
L7.8250 1.6310
" />
<path d="M7.8250 1.6310
L7.8250 1.6420
" />
<path d="M7.8250 1.6420
L7.8250 1.6520
" />
<path d="M7.8250 1.6520
L7.8250 1.6600
" />
<path d="M7.8250 1.6600
L7.8250 1.6670
" />
<path d="M7.8250 1.6670
L7.8250 1.6710
" />
<path d="M7.8250 1.6710
L7.8250 1.6740
" />
<path d="M7.8250 1.6740
L7.8250 1.6750
" />
<path d="M7.8250 1.6750
L9.0250 1.6750
" />
<path d="M7.8250 1.6770
L7.8250 1.6750
" />
<path d="M7.8250 1.6810
L7.8240 1.6980
" />
<path d="M7.8250 1.6810
L7.8250 1.6770
" />
<path d="M7.8290 0.8420
L7.8250 0.8750
" />
<path d="M7.8370 4.7880
L7.7950 4.8050
" />
<path d="M7.8370 6.3280
L7.8580 6.0220
" />
<path d="M7.8370 6.3280
L8.7130 6.3280
" />
<path d="M7.8400 0.8100
L7.8290 0.8420
" />
<path d="M7.8580 0.7810
L7.8400 0.8100
" />
<path d="M7.8580 6.0220
L7.8690 5.8710
" />
<path d="M7.8690 5.8710
L7.8790 5.7250
" />
<path d="M7.8790 5.7250
L7.8920 5.5450
" />
<path d="M7.8790 5.7250
L8.6710 5.7250
" />
<path d="M7.8810 0.7580
L7.8580 0.7810
" />
<path d="M7.8810 4.7780
L7.8370 4.7880
" />
<path d="M7.8920 5.5450
L7.8950 5.4930
" />
<path d="M7.8950 5.4930
L7.9010 5.4610
" />
<path d="M7.8970 5.5120
L7.8920 5.5450
" />
<path d="M7.9010 5.4610
L7.9130 5.4280
" />
<path d="M7.9090 5.4790
L7.8970 5.5120
" />
<path d="M7.9100 0.7400
L7.8810 0.7580
" />
<path d="M7.9130 5.4280
L7.9320 5.3960
" />
<path d="M7.9260 4.7750
L7.8810 4.7780
" />
<path d="M7.9280 5.4480
L7.9090 5.4790
" />
<path d="M7.9320 5.3960
L7.9580 5.3690
" />
<path d="M7.9420 0.7290
L7.9100 0.7400
" />
<path d="M7.9540 5.4200
L7.9280 5.4480
" />
<path d="M7.9580 5.3690
L7.9890 5.3460
" />
<path d="M7.9750 0.7250
L7.9420 0.7290
" />
<path d="M7.9860 5.3970
L7.9540 5.4200
" />
<path d="M7.9890 5.3460
L8.0240 5.3300
" />
<path d="M8.0200 5.3810
L7.9860 5.3970
" />
<path d="M8.0240 5.3300
L8.0600 5.3210
" />
<path d="M8.0560 5.3720
L8.0200 5.3810
" />
<path d="M8.0600 5.3210
L8.0950 5.3180
" />
<path d="M8.0910 5.3690
L8.0560 5.3720
" />
<path d="M8.0910 5.3690
L8.4590 5.3690
" />
<path d="M8.0950 5.3180
L8.0910 5.3690
" />
<path d="M8.0950 5.3180
L8.4550 5.3180
" />
<path d="M8.3650 10.3250
L8.3650 10.3550
" />
<path d="M8.3650 10.3550
L8.3650 10.3860
" />
<path d="M8.3650 10.3860
L8.3650 10.4160
" />
<path d="M8.3650 10.4160
L8.3650 10.4460
" />
<path d="M8.3650 10.4460
L8.3650 10.4750
" />
<path d="M8.3650 10.4750
L8.3650 10.5040
" />
<path d="M8.3650 10.5040
L8.3650 10.5330
" />
<path d="M8.3650 10.5330
L8.3650 10.5600
" />
<path d="M8.3650 10.5600
L8.3650 10.5870
" />
<path d="M8.3650 10.5870
L8.3650 10.6140
" />
<path d="M8.3650 10.6140
L8.3650 10.6390
" />
<path d="M8.3650 10.6390
L8.3650 10.6630
" />
<path d="M8.3650 10.6630
L8.3650 10.6860
" />
<path d="M8.3650 10.6860
L8.3650 10.7080
" />
<path d="M8.3650 10.7080
L8.3650 10.8040
" />
<path d="M8.3650 10.8040
L8.3650 10.8140
" />
<path d="M8.3650 10.8140
L8.3650 10.8240
" />
<path d="M8.3650 10.8240
L8.3650 10.8350
" />
<path d="M8.3650 10.8350
L8.3650 10.8460
" />
<path d="M8.3650 10.8460
L8.3650 10.8580
" />
<path d="M8.3650 10.8580
L8.3650 10.8700
" />
<path d="M8.3650 10.8700
L8.3650 10.8820
" />
<path d="M8.3650 10.8820
L8.3650 10.8950
" />
<path d="M8.3650 10.8950
L8.3650 10.9080
" />
<path d="M8.3650 10.9080
L8.3650 10.9210
" />
<path d="M8.3650 10.9210
L8.3650 10.9340
" />
<path d="M8.3650 10.9340
L8.3650 10.9480
" />
<path d="M8.3650 10.9480
L8.3650 10.9610
" />
<path d="M8.3650 10.9610
L8.3650 10.9750
" />
<path d="M8.3650 10.9750
L8.3650 11.4750
" />
<path d="M8.4550 5.3180
L8.4900 5.3210
" />
<path d="M8.4590 5.3690
L8.4550 5.3180
" />
<path d="M8.4900 5.3210
L8.5260 5.3300
" />
<path d="M8.4940 5.3720
L8.4590 5.3690
" />
<path d="M8.5260 5.3300
L8.5610 5.3460
" />
<path d="M8.5300 5.3810
L8.4940 5.3720
" />
<path d="M8.5610 5.3460
L8.5920 5.3690
" />
<path d="M8.5640 5.3970
L8.5300 5.3810
" />
<path d="M8.5920 5.3690
L8.6180 5.3960
" />
<path d="M8.5960 5.4200
L8.5640 5.3970
" />
<path d="M8.6180 5.3960
L8.6370 5.4280
" />
<path d="M8.6220 5.4480
L8.5960 5.4200
" />
<path d="M8.6240 4.7750
L7.9260 4.7750
" />
<path d="M8.6370 5.4280
L8.6490 5.4610
" />
<path d="M8.6410 5.4790
L8.6220 5.4480
" />
<path d="M8.6490 5.4610
L8.6550 5.4930
" />
<path d="M8.6530 5.5120
L8.6410 5.4790
" />
<path d="M8.6550 5.4930
L8.6580 5.5450
" />
<path d="M8.6580 5.5450
L8.6530 5.5120
" />
<path d="M8.6580 5.5450
L8.6710 5.7250
" />
<path d="M8.6650 10.3250
L8.6650 10.3550
" />
<path d="M8.6650 10.3550
L8.6650 10.3860
" />
<path d="M8.6650 10.3860
L8.6650 10.4160
" />
<path d="M8.6650 10.4160
L8.6650 10.4460
" />
<path d="M8.6650 10.4460
L8.6650 10.4750
" />
<path d="M8.6650 10.4750
L8.6650 10.5040
" />
<path d="M8.6650 10.5040
L8.6650 10.5330
" />
<path d="M8.6650 10.5330
L8.6650 10.5600
" />
<path d="M8.6650 10.5600
L8.6650 10.5870
" />
<path d="M8.6650 10.5870
L8.6650 10.6140
" />
<path d="M8.6650 10.6140
L8.6650 10.6390
" />
<path d="M8.6650 10.6390
L8.6650 10.6630
" />
<path d="M8.6650 10.6630
L8.6650 10.6860
" />
<path d="M8.6650 10.6860
L8.6650 10.7080
" />
<path d="M8.6650 10.7080
L8.3650 10.7080
" />
<path d="M8.6650 10.7080
L8.6650 10.8040
" />
<path d="M8.6650 10.8040
L8.3650 10.8040
" />
<path d="M8.6650 10.8040
L8.6650 10.8140
" />
<path d="M8.6650 10.8140
L8.6650 10.8240
" />
<path d="M8.6650 10.8240
L8.6650 10.8350
" />
<path d="M8.6650 10.8350
L8.6650 10.8460
" />
<path d="M8.6650 10.8460
L8.6650 10.8580
" />
<path d="M8.6650 10.8580
L8.6650 10.8700
" />
<path d="M8.6650 10.8700
L8.6650 10.8820
" />
<path d="M8.6650 10.8820
L8.6650 10.8950
" />
<path d="M8.6650 10.8950
L8.6650 10.9080
" />
<path d="M8.6650 10.9080
L8.6650 10.9210
" />
<path d="M8.6650 10.9210
L8.6650 10.9340
" />
<path d="M8.6650 10.9340
L8.6650 10.9480
" />
<path d="M8.6650 10.9480
L8.6650 10.9610
" />
<path d="M8.6650 10.9610
L8.6650 10.9750
" />
<path d="M8.6650 10.9750
L8.3650 10.9750
" />
<path d="M8.6650 10.9750
L8.6650 11.4750
" />
<path d="M8.6650 11.4750
L8.3650 11.4750
" />
<path d="M8.6690 4.7780
L8.6240 4.7750
" />
<path d="M8.6710 5.7250
L8.6810 5.8710
" />
<path d="M8.6810 5.8710
L8.6920 6.0220
" />
<path d="M8.6920 6.0220
L8.7130 6.3280
" />
<path d="M8.7130 4.7880
L8.6690 4.7780
" />
<path d="M8.7130 6.3280
L8.8530 8.3320
" />
<path d="M8.7550 4.8050
L8.7130 4.7880
" />
<path d="M8.7950 4.8280
L8.7550 4.8050
" />
<path d="M8.8300 4.8560
L8.7950 4.8280
" />
<path d="M8.8530 8.3320
L8.8560 8.3690
" />
<path d="M8.8560 8.3690
L8.8850 8.7840
" />
<path d="M8.8610 4.8890
L8.8300 4.8560
" />
<path d="M8.8750 0.7250
L7.9750 0.7250
" />
<path d="M8.8850 8.7840
L8.8910 8.8160
" />
<path d="M8.8860 4.9270
L8.8610 4.8890
" />
<path d="M8.8910 8.8160
L8.9030 8.8460
" />
<path d="M8.9030 8.8460
L8.9210 8.8720
" />
<path d="M8.9050 4.9680
L8.8860 4.9270
" />
<path d="M8.9080 0.7290
L8.8750 0.7250
" />
<path d="M8.9180 5.0110
L8.9050 4.9680
" />
<path d="M8.9210 8.8720
L8.9450 8.8940
" />
<path d="M8.9250 5.0560
L8.9180 5.0110
" />
<path d="M8.9400 0.7400
L8.9080 0.7290
" />
<path d="M8.9450 8.8940
L8.9720 8.9100
" />
<path d="M8.9690 0.7580
L8.9400 0.7400
" />
<path d="M8.9720 8.9100
L9.0030 8.9210
" />
<path d="M8.9920 0.7810
L8.9690 0.7580
" />
<path d="M9.0030 8.9210
L9.0350 8.9240
" />
<path d="M9.0100 0.8100
L8.9920 0.7810
" />
<path d="M9.0210 0.8420
L9.0100 0.8100
" />
<path d="M9.0250 0.8750
L9.0210 0.8420
" />
<path d="M9.0250 0.8750
L9.0250 1.5250
" />
<path d="M9.0250 1.5250
L7.8250 1.5250
" />
<path d="M9.0250 1.5250
L9.0250 1.5420
" />
<path d="M9.0250 1.5420
L9.0250 1.5580
" />
<path d="M9.0250 1.5580
L9.0250 1.5750
" />
<path d="M9.0250 1.5750
L9.0250 1.5900
" />
<path d="M9.0250 1.5900
L9.0250 1.6050
" />
<path d="M9.0250 1.6050
L9.0250 1.6190
" />
<path d="M9.0250 1.6190
L9.0250 1.6310
" />
<path d="M9.0250 1.6310
L9.0250 1.6420
" />
<path d="M9.0250 1.6420
L9.0250 1.6520
" />
<path d="M9.0250 1.6520
L9.0250 1.6600
" />
<path d="M9.0250 1.6600
L9.0250 1.6670
" />
<path d="M9.0250 1.6670
L9.0250 1.6710
" />
<path d="M9.0250 1.6710
L9.0250 1.6740
" />
<path d="M9.0250 1.6740
L9.0250 1.6750
" />
<path d="M9.0250 1.6750
L7.8250 1.6750
" />
<path d="M9.0250 1.6750
L9.0250 1.6770
" />
<path d="M9.0250 1.6770
L9.0250 1.6810
" />
<path d="M9.0260 1.6980
L9.0250 1.6810
" />
<path d="M9.0310 1.7250
L9.0260 1.6980
" />
<path d="M9.0350 8.9240
L9.0650 8.9210
" />
<path d="M9.0430 1.7590
L9.0310 1.7250
" />
<path d="M9.0530 1.7770
L9.0430 1.7590
" />
<path d="M9.0650 1.7950
L9.0530 1.7770
" />
<path d="M9.0650 8.9210
L9.0940 8.9120
" />
<path d="M9.0790 1.8120
L9.0650 1.7950
" />
<path d="M9.0930 1.8250
L9.3250 1.8250
" />
<path d="M9.0940 8.9120
L9.1210 8.8970
" />
<path d="M9.0960 1.8270
L9.0790 1.8120
" />
<path d="M9.1140 1.8410
L9.0960 1.8270
" />
<path d="M9.1210 8.8970
L9.1440 8.8760
" />
<path d="M9.1340 1.8530
L9.1140 1.8410
" />
<path d="M9.1440 8.8760
L9.1630 8.8520
" />
<path d="M9.1560 1.8620
L9.1340 1.8530
" />
<path d="M9.1630 8.8520
L9.1760 8.8240
" />
<path d="M9.1760 8.8240
L9.1830 8.7940
" />
<path d="M9.1780 1.8690
L9.1560 1.8620
" />
<path d="M9.1830 8.7940
L9.1840 8.7640
" />
<path d="M9.1840 8.7640
L8.9250 5.0560
" />
<path d="M9.2010 1.8730
L9.1780 1.8690
" />
<path d="M9.2250 1.8750
L7.6250 1.8750
" />
<path d="M9.2250 1.8750
L9.2010 1.8730
" />
<path d="M9.2640 1.8710
L9.2250 1.8750
" />
<path d="M9.3020 1.8600
L9.2640 1.8710
" />
<path d="M9.3250 0.7250
L14.3750 0.7250
" />
<path d="M9.3250 0.9250
L9.3250 0.7250
" />
<path d="M9.3250 0.9250
L9.3250 1.8480
" />
<path d="M9.3360 1.8410
L9.3020 1.8600
" />
<path d="M9.3660 1.8160
L9.3360 1.8410
" />
<path d="M9.3910 1.7860
L9.3660 1.8160
" />
<path d="M9.4100 1.7520
L9.3910 1.7860
" />
<path d="M9.4210 1.7140
L9.4100 1.7520
" />
<path d="M9.4250 0.9250
L9.3250 0.9250
" />
<path d="M9.4250 1.6750
L9.4210 1.7140
" />
<path d="M9.4250 1.6750
L9.4250 0.8750
" />
<path d="M9.4290 0.8420
L9.4250 0.8750
" />
<path d="M9.4400 0.8100
L9.4290 0.8420
" />
<path d="M9.4580 0.7810
L9.4400 0.8100
" />
<path d="M9.4650 10.3250
L9.4650 10.3550
" />
<path d="M9.4650 10.3550
L9.4650 10.3860
" />
<path d="M9.4650 10.3860
L9.4650 10.4160
" />
<path d="M9.4650 10.4160
L9.4650 10.4460
" />
<path d="M9.4650 10.4460
L9.4650 10.4750
" />
<path d="M9.4650 10.4750
L9.4650 10.5040
" />
<path d="M9.4650 10.5040
L9.4650 10.5330
" />
<path d="M9.4650 10.5330
L9.4650 10.5600
" />
<path d="M9.4650 10.5600
L9.4650 10.5870
" />
<path d="M9.4650 10.5870
L9.4650 10.6140
" />
<path d="M9.4650 10.6140
L9.4650 10.6390
" />
<path d="M9.4650 10.6390
L9.4650 10.6630
" />
<path d="M9.4650 10.6630
L9.4650 10.6860
" />
<path d="M9.4650 10.6860
L9.4650 10.7080
" />
<path d="M9.4650 10.7080
L9.4650 10.8040
" />
<path d="M9.4650 10.8040
L9.4650 10.8140
" />
<path d="M9.4650 10.8140
L9.4650 10.8240
" />
<path d="M9.4650 10.8240
L9.4650 10.8350
" />
<path d="M9.4650 10.8350
L9.4650 10.8460
" />
<path d="M9.4650 10.8460
L9.4650 10.8580
" />
<path d="M9.4650 10.8580
L9.4650 10.8700
" />
<path d="M9.4650 10.8700
L9.4650 10.8820
" />
<path d="M9.4650 10.8820
L9.4650 10.8950
" />
<path d="M9.4650 10.8950
L9.4650 10.9080
" />
<path d="M9.4650 10.9080
L9.4650 10.9210
" />
<path d="M9.4650 10.9210
L9.4650 10.9340
" />
<path d="M9.4650 10.9340
L9.4650 10.9480
" />
<path d="M9.4650 10.9480
L9.4650 10.9610
" />
<path d="M9.4650 10.9610
L9.4650 10.9750
" />
<path d="M9.4650 10.9750
L9.4650 11.8750
" />
<path d="M9.4810 0.7580
L9.4580 0.7810
" />
<path d="M9.5100 0.7400
L9.4810 0.7580
" />
<path d="M9.5420 0.7290
L9.5100 0.7400
" />
<path d="M9.5750 0.7250
L9.5420 0.7290
" />
<path d="M9.5750 0.7250
L14.3750 0.7250
" />
<path d="M9.6650 10.3250
L6.4650 10.3250
" />
<path d="M9.6650 10.3250
L10.1250 10.3250
" />
<path d="M9.6650 12.3250
L9.7170 12.3220
" />
<path d="M9.7170 10.3280
L9.6650 10.3250
" />
<path d="M9.7170 12.3220
L9.7690 12.3110
" />
<path d="M9.7650 10.3380
L9.7650 10.3670
" />
<path d="M9.7650 10.3670
L9.7650 10.3970
" />
<path d="M9.7650 10.3970
L9.7650 10.4260
" />
<path d="M9.7650 10.4260
L9.7650 10.4550
" />
<path d="M9.7650 10.4550
L9.7650 10.4830
" />
<path d="M9.7650 10.4830
L9.7650 10.5110
" />
<path d="M9.7650 10.5110
L9.7650 10.5380
" />
<path d="M9.7650 10.5380
L9.7650 10.5650
" />
<path d="M9.7650 10.5650
L9.7650 10.5910
" />
<path d="M9.7650 10.5910
L9.7650 10.6170
" />
<path d="M9.7650 10.6170
L9.7650 10.6410
" />
<path d="M9.7650 10.6410
L9.7650 10.6650
" />
<path d="M9.7650 10.6650
L9.7650 10.6870
" />
<path d="M9.7650 10.6870
L9.7650 10.7080
" />
<path d="M9.7650 10.7080
L9.4650 10.7080
" />
<path d="M9.7650 10.7080
L9.7650 10.8040
" />
<path d="M9.7650 10.8040
L9.4650 10.8040
" />
<path d="M9.7650 10.8040
L9.7650 10.8140
" />
<path d="M9.7650 10.8140
L9.7650 10.8240
" />
<path d="M9.7650 10.8240
L9.7650 10.8350
" />
<path d="M9.7650 10.8350
L9.7650 10.8460
" />
<path d="M9.7650 10.8460
L9.7650 10.8580
" />
<path d="M9.7650 10.8580
L9.7650 10.8700
" />
<path d="M9.7650 10.8700
L9.7650 10.8820
" />
<path d="M9.7650 10.8820
L9.7650 10.8950
" />
<path d="M9.7650 10.8950
L9.7650 10.9080
" />
<path d="M9.7650 10.9080
L9.7650 10.9210
" />
<path d="M9.7650 10.9210
L9.7650 10.9340
" />
<path d="M9.7650 10.9340
L9.7650 10.9480
" />
<path d="M9.7650 10.9480
L9.7650 10.9610
" />
<path d="M9.7650 10.9610
L9.7650 10.9750
" />
<path d="M9.7650 10.9750
L9.4650 10.9750
" />
<path d="M9.7650 10.9750
L9.7650 11.8750
" />
<path d="M9.7650 11.8750
L9.4650 11.8750
" />
<path d="M9.7690 10.3390
L9.7170 10.3280
" />
<path d="M9.7690 12.3110
L9.8180 12.2950
" />
<path d="M9.8180 10.3550
L9.7690 10.3390
" />
<path d="M9.8180 12.2950
L9.8650 12.2710
" />
<path d="M9.8650 10.3790
L9.8180 10.3550
" />
<path d="M9.8650 12.2710
L9.9090 12.2420
" />
<path d="M9.9090 10.4080
L9.8650 10.3790
" />
<path d="M9.9090 12.2420
L9.9480 12.2080
" />
<path d="M9.9480 10.4420
L9.9090 10.4080
" />
<path d="M9.9480 12.2080
L9.9820 12.1690
" />
<path d="M9.9820 10.4810
L9.9480 10.4420
" />
<path d="M9.9820 12.1690
L10.0110 12.1250
" />
<path d="M10.0110 10.5250
L9.9820 10.4810
" />
<path d="M10.0110 12.1250
L10.0350 12.0780
" />
<path d="M10.0350 10.5720
L10.0110 10.5250
" />
<path d="M10.0350 12.0780
L10.0510 12.0290
" />
<path d="M10.0510 10.6210
L10.0350 10.5720
" />
<path d="M10.0510 12.0290
L10.0620 11.9770
" />
<path d="M10.0620 10.6730
L10.0510 10.6210
" />
<path d="M10.0620 11.9770
L10.0650 11.9250
" />
<path d="M10.0650 10.7250
L10.0620 10.6730
" />
<path d="M10.0650 11.9250
L10.0650 10.7250
" />
<path d="M10.1250 14.2750
L10.1250 16.3750
" />
<path d="M10.1250 16.3750
L11.9550 16.3750
" />
<path d="M10.1250 17.1250
L10.1250 16.3750
" />
<path d="M10.3130 14.2750
L2.2170 14.2750
" />
<path d="M10.3500 14.2780
L10.3130 14.2750
" />
<path d="M10.3850 14.2880
L10.3500 14.2780
" />
<path d="M10.4180 14.3040
L10.3850 14.2880
" />
<path d="M10.4470 14.3260
L10.4180 14.3040
" />
<path d="M11.0580 14.8740
L10.4470 14.3260
" />
<path d="M11.0870 14.8960
L11.0580 14.8740
" />
<path d="M11.1200 14.9120
L11.0870 14.8960
" />
<path d="M11.1550 14.9220
L11.1200 14.9120
" />
<path d="M11.1920 14.9250
L11.1550 14.9220
" />
<path d="M11.5750 14.9250
L11.1920 14.9250
" />
<path d="M11.6350 14.9290
L11.5750 14.9250
" />
<path d="M11.6950 14.9400
L11.6350 14.9290
" />
<path d="M11.7520 14.9570
L11.6950 14.9400
" />
<path d="M11.8070 14.9820
L11.7520 14.9570
" />
<path d="M11.8590 15.0140
L11.8070 14.9820
" />
<path d="M11.9070 15.0510
L11.8590 15.0140
" />
<path d="M11.9490 15.0930
L11.9070 15.0510
" />
<path d="M11.9550 15.1000
L11.9550 17.1250
" />
<path d="M11.9550 17.1250
L10.1250 17.1250
" />
<path d="M11.9550 17.1250
L13.3750 17.1250
" />
<path d="M11.9860 15.1410
L11.9490 15.0930
" />
<path d="M12.0180 15.1930
L11.9860 15.1410
" />
<path d="M12.0430 15.2480
L12.0180 15.1930
" />
<path d="M12.0600 15.3050
L12.0430 15.2480
" />
<path d="M12.0710 15.3650
L12.0600 15.3050
" />
<path d="M12.0750 15.4250
L12.0710 15.3650
" />
<path d="M12.0750 15.8250
L12.0750 15.4250
" />
<path d="M12.0780 15.8510
L12.0750 15.8250
" />
<path d="M12.0880 15.8750
L12.0780 15.8510
" />
<path d="M12.1040 15.8960
L12.0880 15.8750
" />
<path d="M12.1250 15.9120
L12.1040 15.8960
" />
<path d="M12.1490 15.9220
L12.1250 15.9120
" />
<path d="M12.1750 15.9250
L12.1490 15.9220
" />
<path d="M12.5750 15.9250
L12.1750 15.9250
" />
<path d="M12.6010 15.9220
L12.5750 15.9250
" />
<path d="M12.6250 15.9120
L12.6010 15.9220
" />
<path d="M12.6460 15.8960
L12.6250 15.9120
" />
<path d="M12.6620 15.8750
L12.6460 15.8960
" />
<path d="M12.6720 15.8510
L12.6620 15.8750
" />
<path d="M12.6750 15.4750
L12.6750 15.8250
" />
<path d="M12.6750 15.4750
L12.6750 15.9250
" />
<path d="M12.6750 15.8250
L12.6720 15.8510
" />
<path d="M12.6750 15.9250
L13.1750 15.9250
" />
<path d="M12.6790 15.4420
L12.6750 15.4750
" />
<path d="M12.6790 15.4420
L12.6750 15.4750
" />
<path d="M12.6900 15.4100
L12.6790 15.4420
" />
<path d="M12.6900 15.4100
L12.6790 15.4420
" />
<path d="M12.7080 15.3810
L12.6900 15.4100
" />
<path d="M12.7080 15.3810
L12.6900 15.4100
" />
<path d="M12.7310 15.3580
L12.7080 15.3810
" />
<path d="M12.7310 15.3580
L12.7080 15.3810
" />
<path d="M12.7600 15.3400
L12.7310 15.3580
" />
<path d="M12.7600 15.3400
L12.7310 15.3580
" />
<path d="M12.7920 15.3290
L12.7600 15.3400
" />
<path d="M12.7920 15.3290
L12.7600 15.3400
" />
<path d="M12.8250 15.3250
L12.7920 15.3290
" />
<path d="M12.8250 15.3250
L12.7920 15.3290
" />
<path d="M13.0250 15.3250
L12.8250 15.3250
" />
<path d="M13.0250 15.3250
L12.8250 15.3250
" />
<path d="M13.0580 15.3290
L13.0250 15.3250
" />
<path d="M13.0580 15.3290
L13.0250 15.3250
" />
<path d="M13.0900 15.3400
L13.0580 15.3290
" />
<path d="M13.0900 15.3400
L13.0580 15.3290
" />
<path d="M13.1190 15.3580
L13.0900 15.3400
" />
<path d="M13.1190 15.3580
L13.0900 15.3400
" />
<path d="M13.1420 15.3810
L13.1190 15.3580
" />
<path d="M13.1420 15.3810
L13.1190 15.3580
" />
<path d="M13.1600 15.4100
L13.1420 15.3810
" />
<path d="M13.1600 15.4100
L13.1420 15.3810
" />
<path d="M13.1710 15.4420
L13.1600 15.4100
" />
<path d="M13.1710 15.4420
L13.1600 15.4100
" />
<path d="M13.1750 15.4750
L13.1710 15.4420
" />
<path d="M13.1750 15.4750
L13.1710 15.4420
" />
<path d="M13.1750 15.8250
L13.1750 15.4750
" />
<path d="M13.1750 15.9250
L13.1750 15.4750
" />
<path d="M13.1780 15.8510
L13.1750 15.8250
" />
<path d="M13.1880 15.8750
L13.1780 15.8510
" />
<path d="M13.2040 15.8960
L13.1880 15.8750
" />
<path d="M13.2250 15.9120
L13.2040 15.8960
" />
<path d="M13.2490 15.9220
L13.2250 15.9120
" />
<path d="M13.2750 15.9250
L13.2490 15.9220
" />
<path d="M13.3750 17.1250
L13.3750 15.9250
" />
<path d="M13.3760 14.4100
L13.3760 14.4470
" />
<path d="M13.3760 14.4470
L13.3840 14.4840
" />
<path d="M13.3820 14.3730
L13.3760 14.4100
" />
<path d="M13.3840 14.4840
L13.3980 14.5180
" />
<path d="M13.3950 14.3380
L13.3820 14.3730
" />
<path d="M13.3980 14.5180
L13.4190 14.5500
" />
<path d="M13.4020 14.5250
L14.3250 14.5250
" />
<path d="M13.4140 14.3060
L13.3950 14.3380
" />
<path d="M13.4190 14.5500
L13.4450 14.5770
" />
<path d="M13.4390 14.2780
L13.4140 14.3060
" />
<path d="M13.4450 14.5770
L13.4750 14.5980
" />
<path d="M13.4690 14.2560
L13.4390 14.2780
" />
<path d="M13.4750 14.5980
L13.5000 14.6100
" />
<path d="M13.4750 15.9250
L13.2750 15.9250
" />
<path d="M13.4750 15.9250
L13.4750 14.5980
" />
<path d="M13.5000 14.6100
L13.5260 14.6190
" />
<path d="M13.5020 14.2390
L13.4690 14.2560
" />
<path d="M13.5030 15.9250
L13.4750 15.9250
" />
<path d="M13.5260 14.6190
L13.5510 14.6230
" />
<path d="M13.5310 15.9250
L13.5030 15.9250
" />
<path d="M13.5380 14.2280
L13.5020 14.2390
" />
<path d="M13.5510 14.6230
L13.5750 14.6250
" />
<path d="M13.5580 15.9250
L13.5310 15.9250
" />
<path d="M13.5750 14.2250
L13.5380 14.2280
" />
<path d="M13.5750 14.5250
L13.5750 14.6250
" />
<path d="M13.5750 14.6250
L13.5940 14.6250
" />
<path d="M13.5750 15.9250
L13.5750 17.1250
" />
<path d="M13.5750 17.1250
L13.3750 17.1250
" />
<path d="M13.5830 15.9250
L13.5580 15.9250
" />
<path d="M13.5940 14.6250
L13.6110 14.6250
" />
<path d="M13.6080 15.9250
L13.5830 15.9250
" />
<path d="M13.6110 14.6250
L13.6280 14.6250
" />
<path d="M13.6280 14.6250
L13.6440 14.6250
" />
<path d="M13.6310 15.9250
L13.6080 15.9250
" />
<path d="M13.6440 14.6250
L13.6590 14.6250
" />
<path d="M13.6520 15.9250
L13.6310 15.9250
" />
<path d="M13.6590 14.6250
L13.6720 14.6250
" />
<path d="M13.6700 15.9250
L13.6520 15.9250
" />
<path d="M13.6720 14.6250
L13.6840 14.6250
" />
<path d="M13.6840 14.6250
L13.6950 14.6250
" />
<path d="M13.6870 15.9250
L13.6700 15.9250
" />
<path d="M13.6950 14.6250
L13.7040 14.6250
" />
<path d="M13.7000 15.9250
L13.6870 15.9250
" />
<path d="M13.7040 14.6250
L13.7110 14.6250
" />
<path d="M13.7110 14.6250
L13.7170 14.6250
" />
<path d="M13.7110 15.9250
L13.7000 15.9250
" />
<path d="M13.7170 14.6250
L13.7220 14.6250
" />
<path d="M13.7190 15.9250
L13.7110 15.9250
" />
<path d="M13.7220 14.6250
L13.7240 14.6250
" />
<path d="M13.7230 15.9250
L13.7190 15.9250
" />
<path d="M13.7240 14.6250
L13.7250 14.6250
" />
<path d="M13.7250 14.6250
L13.7250 15.9250
" />
<path d="M13.7250 15.9250
L13.7230 15.9250
" />
<path d="M13.7260 14.6250
L13.7250 14.6250
" />
<path d="M13.7260 15.9250
L13.7250 15.9250
" />
<path d="M13.7290 14.6250
L13.7260 14.6250
" />
<path d="M13.7290 15.9250
L13.7260 15.9250
" />
<path d="M13.7330 14.6250
L13.7290 14.6250
" />
<path d="M13.7330 15.9250
L13.7290 15.9250
" />
<path d="M13.7400 14.6250
L13.7330 14.6250
" />
<path d="M13.7400 15.9250
L13.7330 15.9250
" />
<path d="M13.7480 14.6250
L13.7400 14.6250
" />
<path d="M13.7480 15.9250
L13.7400 15.9250
" />
<path d="M13.7580 14.6250
L13.7480 14.6250
" />
<path d="M13.7580 15.9250
L13.7480 15.9250
" />
<path d="M13.7690 14.6250
L13.7580 14.6250
" />
<path d="M13.7690 15.9250
L13.7580 15.9250
" />
<path d="M13.7810 14.6250
L13.7690 14.6250
" />
<path d="M13.7810 15.9250
L13.7690 15.9250
" />
<path d="M13.7950 14.6250
L13.7810 14.6250
" />
<path d="M13.7950 15.9250
L13.7810 15.9250
" />
<path d="M13.8100 14.6250
L13.7950 14.6250
" />
<path d="M13.8100 15.9250
L13.7950 15.9250
" />
<path d="M13.8250 14.6250
L13.8100 14.6250
" />
<path d="M13.8250 15.9250
L13.8100 15.9250
" />
<path d="M13.8420 14.6250
L13.8250 14.6250
" />
<path d="M13.8420 15.9250
L13.8250 15.9250
" />
<path d="M13.8580 14.6250
L13.8420 14.6250
" />
<path d="M13.8580 15.9250
L13.8420 15.9250
" />
<path d="M13.8750 14.6250
L13.8580 14.6250
" />
<path d="M13.8750 14.6250
L13.8750 15.9250
" />
<path d="M13.8750 15.9250
L13.8580 15.9250
" />
<path d="M14.3250 14.5250
L14.3250 14.2250
" />
<path d="M14.3750 0.7250
L14.3750 14.2250
" />
<path d="M14.3750 0.7250
L14.4090 0.7250
" />
<path d="M14.3750 14.2250
L13.5750 14.2250
" />
<path d="M14.4090 0.7250
L14.4420 0.7250
" />
<path d="M14.4090 14.2250
L14.3750 14.2250
" />
<path d="M14.4420 0.7250
L14.4740 0.7250
" />
<path d="M14.4420 14.2250
L14.4090 14.2250
" />
<path d="M14.4740 0.7250
L14.5050 0.7250
" />
<path d="M14.4740 14.2250
L14.4420 14.2250
" />
<path d="M14.5050 0.7250
L14.5350 0.7250
" />
<path d="M14.5050 14.2250
L14.4740 14.2250
" />
<path d="M14.5250 14.2250
L14.5250 14.5250
" />
<path d="M14.5250 14.5250
L14.3250 14.5250
" />
<path d="M14.5250 14.6250
L13.8750 14.6250
" />
<path d="M14.5250 15.9250
L13.8750 15.9250
" />
<path d="M14.5250 15.9250
L14.5580 15.9210
" />
<path d="M14.5350 0.7250
L14.5620 0.7250
" />
<path d="M14.5350 14.2250
L14.5050 14.2250
" />
<path d="M14.5580 14.6290
L14.5250 14.6250
" />
<path d="M14.5580 15.9210
L14.5900 15.9100
" />
<path d="M14.5620 0.7250
L14.5870 0.7250
" />
<path d="M14.5620 14.2250
L14.5350 14.2250
" />
<path d="M14.5870 0.7250
L14.6100 0.7250
" />
<path d="M14.5870 14.2250
L14.5620 14.2250
" />
<path d="M14.5900 14.6400
L14.5580 14.6290
" />
<path d="M14.5900 15.9100
L14.6190 15.8920
" />
<path d="M14.6100 0.7250
L14.6290 0.7250
" />
<path d="M14.6100 14.2250
L14.5870 14.2250
" />
<path d="M14.6190 14.6580
L14.5900 14.6400
" />
<path d="M14.6190 15.8920
L14.6420 15.8690
" />
<path d="M14.6290 0.7250
L14.6450 0.7250
" />
<path d="M14.6290 14.2250
L14.6100 14.2250
" />
<path d="M14.6420 14.6810
L14.6190 14.6580
" />
<path d="M14.6420 15.8690
L14.6600 15.8400
" />
<path d="M14.6450 0.7250
L14.6580 0.7250
" />
<path d="M14.6450 14.2250
L14.6290 14.2250
" />
<path d="M14.6580 0.7250
L14.6670 0.7250
" />
<path d="M14.6580 14.2250
L14.6450 14.2250
" />
<path d="M14.6600 14.7100
L14.6420 14.6810
" />
<path d="M14.6600 15.8400
L14.6710 15.8080
" />
<path d="M14.6670 0.7250
L14.6730 0.7250
" />
<path d="M14.6670 14.2250
L14.6580 14.2250
" />
<path d="M14.6710 14.7420
L14.6600 14.7100
" />
<path d="M14.6710 15.8080
L14.6750 15.7750
" />
<path d="M14.6730 0.7250
L14.6750 0.7250
" />
<path d="M14.6730 14.2250
L14.6670 14.2250
" />
<path d="M14.6750 0.7250
L14.6750 14.2250
" />
<path d="M14.6750 0.7260
L14.6750 0.7250
" />
<path d="M14.6750 0.7290
L14.6750 0.7260
" />
<path d="M14.6750 0.7330
L14.6750 0.7290
" />
<path d="M14.6750 0.7400
L14.6750 0.7330
" />
<path d="M14.6750 0.7480
L14.6750 0.7400
" />
<path d="M14.6750 0.7580
L14.6750 0.7480
" />
<path d="M14.6750 0.7690
L14.6750 0.7580
" />
<path d="M14.6750 0.7810
L14.6750 0.7690
" />
<path d="M14.6750 0.7950
L14.6750 0.7810
" />
<path d="M14.6750 0.8100
L14.6750 0.7950
" />
<path d="M14.6750 0.8250
L14.6750 0.8100
" />
<path d="M14.6750 0.8420
L14.6750 0.8250
" />
<path d="M14.6750 0.8580
L14.6750 0.8420
" />
<path d="M14.6750 0.8750
L14.6750 0.8580
" />
<path d="M14.6750 5.7420
L14.6750 5.7250
" />
<path d="M14.6750 5.7580
L14.6750 5.7420
" />
<path d="M14.6750 5.7750
L14.6750 5.7580
" />
<path d="M14.6750 5.7900
L14.6750 5.7750
" />
<path d="M14.6750 5.8050
L14.6750 5.7900
" />
<path d="M14.6750 5.8190
L14.6750 5.8050
" />
<path d="M14.6750 5.8310
L14.6750 5.8190
" />
<path d="M14.6750 5.8420
L14.6750 5.8310
" />
<path d="M14.6750 5.8520
L14.6750 5.8420
" />
<path d="M14.6750 5.8600
L14.6750 5.8520
" />
<path d="M14.6750 5.8670
L14.6750 5.8600
" />
<path d="M14.6750 5.8710
L14.6750 5.8670
" />
<path d="M14.6750 5.8740
L14.6750 5.8710
" />
<path d="M14.6750 5.8750
L14.6750 5.8740
" />
<path d="M14.6750 5.8750
L14.6750 5.8760
" />
<path d="M14.6750 5.8750
L14.8750 5.8750
" />
<path d="M14.6750 5.8760
L14.6750 5.8800
" />
<path d="M14.6750 5.8800
L14.6750 5.8860
" />
<path d="M14.6750 5.8860
L14.6750 5.8950
" />
<path d="M14.6750 5.8950
L14.6750 5.9060
" />
<path d="M14.6750 5.9060
L14.6750 5.9190
" />
<path d="M14.6750 5.9190
L14.6750 5.9340
" />
<path d="M14.6750 5.9340
L14.6750 5.9500
" />
<path d="M14.6750 5.9500
L14.6750 5.9690
" />
<path d="M14.6750 5.9690
L14.6750 5.9880
" />
<path d="M14.6750 5.9880
L14.6750 6.0090
" />
<path d="M14.6750 6.0090
L14.6750 6.0300
" />
<path d="M14.6750 6.0300
L14.6750 6.0530
" />
<path d="M14.6750 6.0530
L14.6750 6.0750
" />
<path d="M14.6750 6.0750
L14.8750 6.0750
" />
<path d="M14.6750 6.4750
L14.6750 6.4970
" />
<path d="M14.6750 6.4750
L14.8750 6.4750
" />
<path d="M14.6750 6.4970
L14.6750 6.5200
" />
<path d="M14.6750 6.5200
L14.6750 6.5410
" />
<path d="M14.6750 6.5410
L14.6750 6.5620
" />
<path d="M14.6750 6.5620
L14.6750 6.5810
" />
<path d="M14.6750 6.5810
L14.6750 6.6000
" />
<path d="M14.6750 6.6000
L14.6750 6.6160
" />
<path d="M14.6750 6.6160
L14.6750 6.6310
" />
<path d="M14.6750 6.6310
L14.6750 6.6440
" />
<path d="M14.6750 6.6440
L14.6750 6.6550
" />
<path d="M14.6750 6.6550
L14.6750 6.6640
" />
<path d="M14.6750 6.6640
L14.6750 6.6700
" />
<path d="M14.6750 6.6700
L14.6750 6.6740
" />
<path d="M14.6750 6.6740
L14.6750 6.6750
" />
<path d="M14.6750 6.6750
L14.8750 6.6750
" />
<path d="M14.6750 6.6760
L14.6750 6.6750
" />
<path d="M14.6750 6.6790
L14.6750 6.6760
" />
<path d="M14.6750 6.6830
L14.6750 6.6790
" />
<path d="M14.6750 6.6900
L14.6750 6.6830
" />
<path d="M14.6750 6.6980
L14.6750 6.6900
" />
<path d="M14.6750 6.7080
L14.6750 6.6980
" />
<path d="M14.6750 6.7190
L14.6750 6.7080
" />
<path d="M14.6750 6.7310
L14.6750 6.7190
" />
<path d="M14.6750 6.7450
L14.6750 6.7310
" />
<path d="M14.6750 6.7600
L14.6750 6.7450
" />
<path d="M14.6750 6.7750
L14.6750 6.7600
" />
<path d="M14.6750 6.7920
L14.6750 6.7750
" />
<path d="M14.6750 6.8080
L14.6750 6.7920
" />
<path d="M14.6750 6.8250
L14.6750 6.8080
" />
<path d="M14.6750 14.2250
L14.6730 14.2250
" />
<path d="M14.6750 14.7750
L14.6710 14.7420
" />
<path d="M14.6750 14.7750
L14.6750 15.7750
" />
<path d="M14.8750 5.8760
L14.8750 5.8750
" />
<path d="M14.8750 5.8800
L14.8750 5.8760
" />
<path d="M14.8750 5.8860
L14.8750 5.8800
" />
<path d="M14.8750 5.8950
L14.8750 5.8860
" />
<path d="M14.8750 5.9060
L14.8750 5.8950
" />
<path d="M14.8750 5.9190
L14.8750 5.9060
" />
<path d="M14.8750 5.9340
L14.8750 5.9190
" />
<path d="M14.8750 5.9500
L14.8750 5.9340
" />
<path d="M14.8750 5.9690
L14.8750 5.9500
" />
<path d="M14.8750 5.9880
L14.8750 5.9690
" />
<path d="M14.8750 6.0090
L14.8750 5.9880
" />
<path d="M14.8750 6.0300
L14.8750 6.0090
" />
<path d="M14.8750 6.0530
L14.8750 6.0300
" />
<path d="M14.8750 6.0750
L14.8750 6.0530
" />
<path d="M14.8750 6.4750
L14.8750 6.0750
" />
<path d="M14.8750 6.4970
L14.8750 6.4750
" />
<path d="M14.8750 6.5200
L14.8750 6.4970
" />
<path d="M14.8750 6.5410
L14.8750 6.5200
" />
<path d="M14.8750 6.5620
L14.8750 6.5410
" />
<path d="M14.8750 6.5810
L14.8750 6.5620
" />
<path d="M14.8750 6.6000
L14.8750 6.5810
" />
<path d="M14.8750 6.6160
L14.8750 6.6000
" />
<path d="M14.8750 6.6310
L14.8750 6.6160
" />
<path d="M14.8750 6.6440
L14.8750 6.6310
" />
<path d="M14.8750 6.6550
L14.8750 6.6440
" />
<path d="M14.8750 6.6640
L14.8750 6.6550
" />
<path d="M14.8750 6.6700
L14.8750 6.6640
" />
<path d="M14.8750 6.6740
L14.8750 6.6700
" />
<path d="M14.8750 6.6750
L14.8750 6.6740
" />
</g> 
</svg>
