{
  "accessors": [
    {
      "bufferView": 0,
      "byteOffset": 0,
      "componentType": 5126,
      "normalized": false,
      "count": 892,
      "type": "VEC3",
      "max": [
        7.0006103515625,
        0.5505707263946533,
        11.000000953674316
      ],
      "min": [
        -7.0,
        0.0,
        -10.999999046325684
      ]
    },
    {
      "bufferView": 0,
      "byteOffset": 12,
      "componentType": 5126,
      "normalized": false,
      "count": 892,
      "type": "VEC3"
    },
    {
      "bufferView": 0,
      "byteOffset": 24,
      "componentType": 5126,
      "normalized": false,
      "count": 892,
      "type": "VEC2"
    },
    {
      "bufferView": 1,
      "byteOffset": 0,
      "componentType": 5123,
      "normalized": false,
      "count": 2664,
      "type": "SCALAR"
    },
    {
      "bufferView": 1,
      "byteOffset": 5328,
      "componentType": 5123,
      "normalized": false,
      "count": 990,
      "type": "SCALAR"
    },
    {
      "bufferView": 1,
      "byteOffset": 7308,
      "componentType": 5123,
      "normalized": false,
      "count": 2676,
      "type": "SCALAR"
    },
    {
      "bufferView": 1,
      "byteOffset": 12660,
      "componentType": 5123,
      "normalized": false,
      "count": 6528,
      "type": "SCALAR"
    },
    {
      "bufferView": 1,
      "byteOffset": 25716,
      "componentType": 5123,
      "normalized": false,
      "count": 168,
      "type": "SCALAR"
    },
    {
      "bufferView": 1,
      "byteOffset": 26052,
      "componentType": 5123,
      "normalized": false,
      "count": 78,
      "type": "SCALAR"
    },
    {
      "bufferView": 2,
      "byteOffset": 0,
      "componentType": 5126,
      "normalized": false,
      "count": 406,
      "type": "VEC3",
      "max": [
        6.020146369934082,
        1.9505860805511475,
        10.020000457763672
      ],
      "min": [
        -6.020000457763672,
        0.5500001311302185,
        -10.020000457763672
      ]
    },
    {
      "bufferView": 2,
      "byteOffset": 12,
      "componentType": 5126,
      "normalized": false,
      "count": 406,
      "type": "VEC3"
    },
    {
      "bufferView": 2,
      "byteOffset": 24,
      "componentType": 5126,
      "normalized": false,
      "count": 406,
      "type": "VEC2"
    },
    {
      "bufferView": 3,
      "byteOffset": 0,
      "componentType": 5126,
      "normalized": false,
      "count": 1036,
      "type": "VEC3",
      "max": [
        7.0006103515625,
        0.5505707263946533,
        11.000000953674316
      ],
      "min": [
        -7.0,
        0.0,
        -10.999999046325684
      ]
    },
    {
      "bufferView": 3,
      "byteOffset": 12,
      "componentType": 5126,
      "normalized": false,
      "count": 1036,
      "type": "VEC3"
    },
    {
      "bufferView": 3,
      "byteOffset": 24,
      "componentType": 5126,
      "normalized": false,
      "count": 1036,
      "type": "VEC2"
    },
    {
      "bufferView": 4,
      "byteOffset": 0,
      "componentType": 5126,
      "normalized": false,
      "count": 2856,
      "type": "VEC3",
      "max": [
        7.00548791885376,
        0.5591315031051636,
        11.008095741271973
      ],
      "min": [
        -7.008279323577881,
        -0.00926661491394043,
        -11.006243705749512
      ]
    },
    {
      "bufferView": 4,
      "byteOffset": 12,
      "componentType": 5126,
      "normalized": false,
      "count": 2856,
      "type": "VEC3"
    },
    {
      "bufferView": 4,
      "byteOffset": 24,
      "componentType": 5126,
      "normalized": false,
      "count": 2856,
      "type": "VEC2"
    },
    {
      "bufferView": 5,
      "byteOffset": 0,
      "componentType": 5126,
      "normalized": false,
      "count": 58,
      "type": "VEC3",
      "max": [
        5.33062219619751,
        1.9581363201141357,
        9.521470069885254
      ],
      "min": [
        -5.330541133880615,
        1.9499998092651367,
        -9.521470069885254
      ]
    },
    {
      "bufferView": 5,
      "byteOffset": 12,
      "componentType": 5126,
      "normalized": false,
      "count": 58,
      "type": "VEC3"
    },
    {
      "bufferView": 5,
      "byteOffset": 24,
      "componentType": 5126,
      "normalized": false,
      "count": 58,
      "type": "VEC2"
    },
    {
      "bufferView": 6,
      "byteOffset": 0,
      "componentType": 5126,
      "normalized": false,
      "count": 28,
      "type": "VEC3",
      "max": [
        5.33062219619751,
        1.9576114416122437,
        9.521470069885254
      ],
      "min": [
        -5.330541133880615,
        1.9576114416122437,
        -9.521470069885254
      ]
    },
    {
      "bufferView": 6,
      "byteOffset": 12,
      "componentType": 5126,
      "normalized": false,
      "count": 28,
      "type": "VEC3"
    },
    {
      "bufferView": 6,
      "byteOffset": 24,
      "componentType": 5126,
      "normalized": false,
      "count": 28,
      "type": "VEC2"
    }
  ],
  "asset": {
    "generator": "pygltflib@v1.16.4",
    "version": "2.0"
  },
  "bufferViews": [
    {
      "buffer": 0,
      "byteOffset": 0,
      "byteLength": 28544,
      "byteStride": 32,
      "target": 34962
    },
    {
      "buffer": 0,
      "byteOffset": 28544,
      "byteLength": 26208,
      "target": 34963
    },
    {
      "buffer": 0,
      "byteOffset": 54752,
      "byteLength": 12992,
      "byteStride": 32,
      "target": 34962
    },
    {
      "buffer": 0,
      "byteOffset": 67744,
      "byteLength": 33152,
      "byteStride": 32,
      "target": 34962
    },
    {
      "buffer": 0,
      "byteOffset": 100896,
      "byteLength": 91392,
      "byteStride": 32,
      "target": 34962
    },
    {
      "buffer": 0,
      "byteOffset": 192288,
      "byteLength": 1856,
      "byteStride": 32,
      "target": 34962
    },
    {
      "buffer": 0,
      "byteOffset": 194144,
      "byteLength": 896,
      "byteStride": 32,
      "target": 34962
    }
  ],
  "buffers": [
    {
      "uri": "RF_RAK811.bin",
      "byteLength": 195040
    }
  ],
  "extensionsUsed": [
    "KHR_materials_anisotropy",
    "KHR_materials_clearcoat",
    "KHR_materials_ior",
    "KHR_materials_sheen",
    "KHR_materials_specular",
    "KHR_materials_transmission",
    "KHR_texture_basisu"
  ],
  "extensionsRequired": [
    "KHR_texture_basisu"
  ],
  "images": [
    {
      "uri": "../shared_textures/soldermask_green_Cu_normal.ktx2",
      "mimeType": "image/ktx2",
      "name": "soldermask_green_Cu_normal"
    },
    {
      "uri": "../shared_textures/soldermask_green_Cu_color.ktx2",
      "mimeType": "image/ktx2",
      "name": "soldermask_green_Cu_color"
    },
    {
      "uri": "../shared_textures/soldermask_green_Cu_metallic-soldermask_green_Cu_roughness.ktx2",
      "mimeType": "image/ktx2",
      "name": "soldermask_green_Cu_metallic-soldermask_green_Cu_roughness"
    },
    {
      "uri": "../shared_textures/aluminum_lathed_normal.ktx2",
      "mimeType": "image/ktx2",
      "name": "aluminum_lathed_normal"
    },
    {
      "uri": "../shared_textures/aluminum_lathed_color.ktx2",
      "mimeType": "image/ktx2",
      "name": "aluminum_lathed_color"
    },
    {
      "uri": "../shared_textures/pcb_edge_normal.ktx2",
      "mimeType": "image/ktx2",
      "name": "pcb_edge_normal"
    },
    {
      "uri": "../shared_textures/pcb_edge_color.ktx2",
      "mimeType": "image/ktx2",
      "name": "pcb_edge_color"
    },
    {
      "uri": "../shared_textures/metal_goldpins_1_normal.ktx2",
      "mimeType": "image/ktx2",
      "name": "metal_goldpins_1_normal"
    },
    {
      "uri": "../shared_textures/metal_goldpins_1_color.ktx2",
      "mimeType": "image/ktx2",
      "name": "metal_goldpins_1_color"
    },
    {
      "uri": "../shared_textures/black_markings_normal.ktx2",
      "mimeType": "image/ktx2",
      "name": "black_markings_normal"
    },
    {
      "uri": "../shared_textures/black_markings_color.ktx2",
      "mimeType": "image/ktx2",
      "name": "black_markings_color"
    },
    {
      "uri": "../shared_textures/black_markings_metallic-black_markings_roughness.ktx2",
      "mimeType": "image/ktx2",
      "name": "black_markings_metallic-black_markings_roughness"
    },
    {
      "uri": "rakwireless-rak811-868mhz-marking_normal.ktx2",
      "mimeType": "image/ktx2",
      "name": "rakwireless-rak811-868mhz-marking_normal"
    },
    {
      "uri": "rakwireless-rak811-868mhz-marking_color.ktx2",
      "mimeType": "image/ktx2",
      "name": "rakwireless-rak811-868mhz-marking_color"
    },
    {
      "uri": "rakwireless-rak811-868mhz-marking_metallic_roughness.ktx2",
      "mimeType": "image/ktx2",
      "name": "rakwireless-rak811-868mhz-marking_metallic_roughness"
    }
  ],
  "materials": [
    {
      "pbrMetallicRoughness": {
        "baseColorFactor": [
          1.0,
          1.0,
          1.0,
          1.0
        ],
        "metallicFactor": 1.0,
        "roughnessFactor": 1.0,
        "baseColorTexture": {
          "index": 0,
          "texCoord": 0
        },
        "metallicRoughnessTexture": {
          "index": 2,
          "texCoord": 0
        }
      },
      "normalTexture": {
        "index": 1,
        "scale": 1.0
      },
      "emissiveFactor": [
        0.0,
        0.0,
        0.0
      ],
      "alphaMode": "OPAQUE",
      "alphaCutoff": 0.5,
      "doubleSided": true,
      "name": "gltf_soldermask_green_Cu"
    },
    {
      "extensions": {
        "KHR_materials_anisotropy": {
          "anisotropyStrength": 0.01590868830680847,
          "anisotropyRotation": 0.7568381637931133
        },
        "KHR_materials_clearcoat": {
          "clearcoatFactor": 0,
          "clearcoatRoughnessFactor": 0
        },
        "KHR_materials_ior": {
          "ior": 1.4500000476837158
        },
        "KHR_materials_specular": {
          "specularColorFactor": [
            1.5681818723678589,
            1.5681818723678589,
            1.5681818723678589
          ]
        }
      },
      "pbrMetallicRoughness": {
        "baseColorFactor": [
          1.0,
          1.0,
          1.0,
          1.0
        ],
        "metallicFactor": 0.6954545974731445,
        "roughnessFactor": 0.2840908467769623,
        "baseColorTexture": {
          "index": 3,
          "texCoord": 0
        }
      },
      "normalTexture": {
        "index": 4,
        "scale": 0.5
      },
      "emissiveFactor": [
        0.0,
        0.0,
        0.0
      ],
      "alphaMode": "OPAQUE",
      "alphaCutoff": 0.5,
      "doubleSided": true,
      "name": "gltf_aluminum_lathed"
    },
    {
      "extensions": {
        "KHR_materials_ior": {
          "ior": 1.4500000476837158
        },
        "KHR_materials_transmission": {
          "transmissionFactor": 0.5
        }
      },
      "pbrMetallicRoughness": {
        "baseColorFactor": [
          1.0,
          1.0,
          1.0,
          1.0
        ],
        "metallicFactor": 0.10000000149011612,
        "roughnessFactor": 0.5,
        "baseColorTexture": {
          "index": 5,
          "texCoord": 0
        }
      },
      "normalTexture": {
        "index": 6,
        "scale": 1.0
      },
      "emissiveFactor": [
        0.0,
        0.0,
        0.0
      ],
      "alphaMode": "OPAQUE",
      "alphaCutoff": 0.5,
      "doubleSided": true,
      "name": "gltf_pcb_edge"
    },
    {
      "extensions": {
        "KHR_materials_clearcoat": {
          "clearcoatFactor": 0,
          "clearcoatRoughnessFactor": 0.2890909016132355
        },
        "KHR_materials_ior": {
          "ior": 1.4500000476837158
        },
        "KHR_materials_sheen": {
          "sheenColorFactor": [
            1,
            1,
            1
          ],
          "sheenRoughnessFactor": 0.5
        },
        "KHR_materials_specular": {
          "specularFactor": 0.9499998092651367
        }
      },
      "pbrMetallicRoughness": {
        "baseColorFactor": [
          1.0,
          1.0,
          1.0,
          1.0
        ],
        "metallicFactor": 1.0,
        "roughnessFactor": 0.2522728145122528,
        "baseColorTexture": {
          "index": 7,
          "texCoord": 0
        }
      },
      "normalTexture": {
        "index": 8,
        "scale": 1.0
      },
      "emissiveFactor": [
        0.0,
        0.0,
        0.0
      ],
      "alphaMode": "OPAQUE",
      "alphaCutoff": 0.5,
      "doubleSided": true,
      "name": "gltf_metal_goldpins_1"
    },
    {
      "extensions": {
        "KHR_materials_clearcoat": {
          "clearcoatFactor": 0,
          "clearcoatRoughnessFactor": 0.67090904712677
        },
        "KHR_materials_ior": {
          "ior": 1.399999976158142
        },
        "KHR_materials_sheen": {
          "sheenColorFactor": [
            1,
            1,
            1
          ],
          "sheenRoughnessFactor": 0.5
        },
        "KHR_materials_specular": {
          "specularColorFactor": [
            1.3181817531585693,
            1.3181817531585693,
            1.3181817531585693
          ]
        },
        "KHR_materials_transmission": {
          "transmissionFactor": 0.23181819915771484
        }
      },
      "pbrMetallicRoughness": {
        "baseColorFactor": [
          1.0,
          1.0,
          1.0,
          1.0
        ],
        "metallicFactor": 1.0,
        "roughnessFactor": 1.0,
        "baseColorTexture": {
          "index": 9,
          "texCoord": 0
        },
        "metallicRoughnessTexture": {
          "index": 11,
          "texCoord": 0
        }
      },
      "normalTexture": {
        "index": 10,
        "scale": 1.0
      },
      "emissiveFactor": [
        0.0,
        0.0,
        0.0
      ],
      "alphaMode": "OPAQUE",
      "alphaCutoff": 0.5,
      "doubleSided": true,
      "name": "gltf_black_markings"
    },
    {
      "pbrMetallicRoughness": {
        "baseColorFactor": [
          1.0,
          1.0,
          1.0,
          1.0
        ],
        "metallicFactor": 1.0,
        "roughnessFactor": 1.0,
        "baseColorTexture": {
          "index": 12,
          "texCoord": 0
        },
        "metallicRoughnessTexture": {
          "index": 14,
          "texCoord": 0
        }
      },
      "normalTexture": {
        "index": 13,
        "scale": 1.0
      },
      "emissiveFactor": [
        0.0,
        0.0,
        0.0
      ],
      "alphaMode": "OPAQUE",
      "alphaCutoff": 0.5,
      "doubleSided": true,
      "name": "gltf_rakwireless-rak811-868mhz-marking"
    }
  ],
  "meshes": [
    {
      "primitives": [
        {
          "attributes": {
            "POSITION": 0,
            "NORMAL": 1,
            "TEXCOORD_0": 2
          },
          "indices": 3,
          "mode": 4,
          "material": 0
        },
        {
          "attributes": {
            "POSITION": 9,
            "NORMAL": 10,
            "TEXCOORD_0": 11
          },
          "indices": 4,
          "mode": 4,
          "material": 1
        },
        {
          "attributes": {
            "POSITION": 12,
            "NORMAL": 13,
            "TEXCOORD_0": 14
          },
          "indices": 5,
          "mode": 4,
          "material": 2
        },
        {
          "attributes": {
            "POSITION": 15,
            "NORMAL": 16,
            "TEXCOORD_0": 17
          },
          "indices": 6,
          "mode": 4,
          "material": 3
        },
        {
          "attributes": {
            "POSITION": 18,
            "NORMAL": 19,
            "TEXCOORD_0": 20
          },
          "indices": 7,
          "mode": 4,
          "material": 4
        },
        {
          "attributes": {
            "POSITION": 21,
            "NORMAL": 22,
            "TEXCOORD_0": 23
          },
          "indices": 8,
          "mode": 4,
          "material": 5
        }
      ],
      "name": "RF_RAK811"
    }
  ],
  "nodes": [
    {
      "extras": {
        "PRIO": 0,
        "DISPLAY_ROT": "90",
        "model_diagonal": 26.170484296389308
      },
      "mesh": 0,
      "name": "RF_RAK811"
    }
  ],
  "samplers": [
    {
      "magFilter": 9729,
      "minFilter": 9987,
      "wrapS": 10497,
      "wrapT": 10497
    }
  ],
  "scene": 0,
  "scenes": [
    {
      "name": "Scene",
      "nodes": [
        0
      ]
    }
  ],
  "textures": [
    {
      "extensions": {
        "KHR_texture_basisu": {
          "source": 1
        }
      },
      "sampler": 0
    },
    {
      "extensions": {
        "KHR_texture_basisu": {
          "source": 0
        }
      },
      "sampler": 0
    },
    {
      "extensions": {
        "KHR_texture_basisu": {
          "source": 2
        }
      },
      "sampler": 0
    },
    {
      "extensions": {
        "KHR_texture_basisu": {
          "source": 4
        }
      },
      "sampler": 0
    },
    {
      "extensions": {
        "KHR_texture_basisu": {
          "source": 3
        }
      },
      "sampler": 0
    },
    {
      "extensions": {
        "KHR_texture_basisu": {
          "source": 6
        }
      },
      "sampler": 0
    },
    {
      "extensions": {
        "KHR_texture_basisu": {
          "source": 5
        }
      },
      "sampler": 0
    },
    {
      "extensions": {
        "KHR_texture_basisu": {
          "source": 8
        }
      },
      "sampler": 0
    },
    {
      "extensions": {
        "KHR_texture_basisu": {
          "source": 7
        }
      },
      "sampler": 0
    },
    {
      "extensions": {
        "KHR_texture_basisu": {
          "source": 10
        }
      },
      "sampler": 0
    },
    {
      "extensions": {
        "KHR_texture_basisu": {
          "source": 9
        }
      },
      "sampler": 0
    },
    {
      "extensions": {
        "KHR_texture_basisu": {
          "source": 11
        }
      },
      "sampler": 0
    },
    {
      "extensions": {
        "KHR_texture_basisu": {
          "source": 13
        }
      },
      "sampler": 0
    },
    {
      "extensions": {
        "KHR_texture_basisu": {
          "source": 12
        }
      },
      "sampler": 0
    },
    {
      "extensions": {
        "KHR_texture_basisu": {
          "source": 14
        }
      },
      "sampler": 0
    }
  ]
}