<?xml version="1.0" standalone="no"?>
 <!DOCTYPE svg PUBLIC "-//W3C//DTD SVG 1.1//EN" 
 "http://www.w3.org/Graphics/SVG/1.1/DTD/svg11.dtd"> 
<svg
  xmlns:svg="http://www.w3.org/2000/svg"
  xmlns="http://www.w3.org/2000/svg"
  xmlns:xlink="http://www.w3.org/1999/xlink"
  version="1.1"
  width="6.2484mm" height="6.2484mm" viewBox="0.0000 0.0000 6.2484 6.2484">
<title>SVG Image created as outline.svg date 2025/04/04 10:06:13 </title>
  <desc>Image generated by PCBNEW </desc>
<g style="fill:#000000; fill-opacity:1.0000;stroke:#000000; stroke-opacity:1.0000;
stroke-linecap:round; stroke-linejoin:round;"
 transform="translate(0 0) scale(1 1)">
</g>
<g style="fill:none; 
stroke:#000000; stroke-width:0.0200; stroke-opacity:1; 
stroke-linecap:round; stroke-linejoin:round;">
<path d="M0.9230 1.2740
L0.9230 4.9750
" />
<path d="M0.9230 4.9750
L0.9420 4.9750
" />
<path d="M0.9420 1.2740
L0.9230 1.2740
" />
<path d="M0.9420 4.9750
L0.9590 4.9750
" />
<path d="M0.9590 1.2720
L0.9420 1.2740
" />
<path d="M0.9590 4.9750
L0.9760 4.9770
" />
<path d="M0.9760 1.2700
L0.9590 1.2720
" />
<path d="M0.9760 4.9770
L0.9920 4.9810
" />
<path d="M0.9920 1.2680
L0.9760 1.2700
" />
<path d="M0.9920 4.9810
L1.0090 4.9850
" />
<path d="M1.0090 1.2640
L0.9920 1.2680
" />
<path d="M1.0090 4.9850
L1.0250 4.9890
" />
<path d="M1.0250 1.2580
L1.0090 1.2640
" />
<path d="M1.0250 4.9890
L1.0430 4.9950
" />
<path d="M1.0430 1.2540
L1.0250 1.2580
" />
<path d="M1.0430 4.9950
L1.0570 5.0010
" />
<path d="M1.0570 1.2480
L1.0430 1.2540
" />
<path d="M1.0570 5.0010
L1.0730 5.0070
" />
<path d="M1.0730 1.2400
L1.0570 1.2480
" />
<path d="M1.0730 5.0070
L1.0890 5.0150
" />
<path d="M1.0890 1.2320
L1.0730 1.2400
" />
<path d="M1.0890 5.0150
L1.1040 5.0230
" />
<path d="M1.1040 1.2240
L1.0890 1.2320
" />
<path d="M1.1040 5.0230
L1.1180 5.0330
" />
<path d="M1.1180 1.2160
L1.1040 1.2240
" />
<path d="M1.1180 5.0330
L1.1330 5.0430
" />
<path d="M1.1330 1.2060
L1.1180 1.2160
" />
<path d="M1.1330 5.0430
L1.1450 5.0540
" />
<path d="M1.1450 1.1950
L1.1330 1.2060
" />
<path d="M1.1450 5.0540
L1.1590 5.0640
" />
<path d="M1.1590 1.1830
L1.1450 1.1950
" />
<path d="M1.1590 5.0640
L1.1710 5.0760
" />
<path d="M1.1710 1.1710
L1.1590 1.1830
" />
</g>
<g style="fill:#000000; fill-opacity:1.0000; stroke:none;">
<circle cx="1.1710" cy="1.1710" r="0.0100" /> 
<circle cx="1.1710" cy="5.0760" r="0.0100" /> 
</g>
<g style="fill:none; 
stroke:#000000; stroke-width:0.0200; stroke-opacity:1; 
stroke-linecap:round; stroke-linejoin:round;">
<path d="M1.1710 5.0760
L1.1830 5.0900
" />
<path d="M1.1830 1.1590
L1.1710 1.1710
" />
<path d="M1.1830 5.0900
L1.1950 5.1020
" />
<path d="M1.1950 1.1450
L1.1830 1.1590
" />
<path d="M1.1950 5.1020
L1.2060 5.1160
" />
<path d="M1.2060 1.1330
L1.1950 1.1450
" />
<path d="M1.2060 5.1160
L1.2160 5.1290
" />
<path d="M1.2160 1.1180
L1.2060 1.1330
" />
<path d="M1.2160 5.1290
L1.2240 5.1440
" />
<path d="M1.2240 1.1040
L1.2160 1.1180
" />
<path d="M1.2240 5.1440
L1.2320 5.1600
" />
<path d="M1.2320 1.0890
L1.2240 1.1040
" />
<path d="M1.2320 5.1600
L1.2400 5.1740
" />
<path d="M1.2400 1.0730
L1.2320 1.0890
" />
<path d="M1.2400 5.1740
L1.2480 5.1900
" />
<path d="M1.2480 1.0570
L1.2400 1.0730
" />
<path d="M1.2480 5.1900
L1.2540 5.2050
" />
<path d="M1.2540 1.0430
L1.2480 1.0570
" />
<path d="M1.2540 5.2050
L1.2580 5.2220
" />
<path d="M1.2580 1.0250
L1.2540 1.0430
" />
<path d="M1.2580 5.2220
L1.2640 5.2380
" />
<path d="M1.2640 1.0090
L1.2580 1.0250
" />
<path d="M1.2640 5.2380
L1.2680 5.2560
" />
<path d="M1.2680 0.9920
L1.2640 1.0090
" />
<path d="M1.2680 5.2560
L1.2700 5.2730
" />
<path d="M1.2700 0.9760
L1.2680 0.9920
" />
<path d="M1.2700 5.2730
L1.2720 5.2890
" />
<path d="M1.2720 0.9590
L1.2700 0.9760
" />
<path d="M1.2720 5.2890
L1.2740 5.3060
" />
<path d="M1.2740 0.9230
L1.2740 0.9420
" />
<path d="M1.2740 0.9420
L1.2720 0.9590
" />
<path d="M1.2740 5.3060
L1.2740 5.3250
" />
<path d="M1.2740 5.3250
L4.9750 5.3250
" />
</g>
<g style="fill:#000000; fill-opacity:1.0000; stroke:none;">
<circle cx="1.3200" cy="3.1250" r="0.0100" /> 
</g>
<g style="fill:none; 
stroke:#000000; stroke-width:0.0200; stroke-opacity:1; 
stroke-linecap:round; stroke-linejoin:round;">
<path d="M1.3200 3.1250
L1.3220 3.2160
" />
<path d="M1.3220 3.0320
L1.3200 3.1250
" />
<path d="M1.3220 3.2160
L1.3280 3.3080
" />
<path d="M1.3280 2.9400
L1.3220 3.0320
" />
<path d="M1.3280 3.3080
L1.3390 3.3990
" />
<path d="M1.3390 2.8490
L1.3280 2.9400
" />
<path d="M1.3390 3.3990
L1.3550 3.4870
" />
<path d="M1.3550 2.7610
L1.3390 2.8490
" />
<path d="M1.3550 3.4870
L1.3750 3.5760
" />
<path d="M1.3750 2.6720
L1.3550 2.7610
" />
<path d="M1.3750 3.5760
L1.4010 3.6610
" />
<path d="M1.4010 2.5870
L1.3750 2.6720
" />
<path d="M1.4010 3.6610
L1.4290 3.7440
" />
<path d="M1.4290 2.5040
L1.4010 2.5870
" />
<path d="M1.4290 3.7440
L1.4600 3.8270
" />
<path d="M1.4600 2.4210
L1.4290 2.5040
" />
<path d="M1.4600 3.8270
L1.4960 3.9070
" />
<path d="M1.4960 2.3410
L1.4600 2.4210
" />
<path d="M1.4960 3.9070
L1.5360 3.9840
" />
<path d="M1.5360 2.2640
L1.4960 2.3410
" />
<path d="M1.5360 3.9840
L1.5800 4.0600
" />
<path d="M1.5800 2.1880
L1.5360 2.2640
" />
<path d="M1.5800 4.0600
L1.6270 4.1340
" />
<path d="M1.6270 2.1150
L1.5800 2.1880
" />
<path d="M1.6270 4.1340
L1.6770 4.2030
" />
<path d="M1.6770 2.0440
L1.6270 2.1150
" />
<path d="M1.6770 4.2030
L1.7320 4.2730
" />
<path d="M1.7320 1.9760
L1.6770 2.0440
" />
<path d="M1.7320 4.2730
L1.7880 4.3380
" />
<path d="M1.7880 1.9110
L1.7320 1.9760
" />
<path d="M1.7880 4.3380
L1.8470 4.4000
" />
<path d="M1.8470 1.8470
L1.7880 1.9110
" />
<path d="M1.8470 4.4000
L1.9110 4.4610
" />
<path d="M1.9110 1.7880
L1.8470 1.8470
" />
<path d="M1.9110 4.4610
L1.9760 4.5170
" />
<path d="M1.9760 1.7320
L1.9110 1.7880
" />
<path d="M1.9760 4.5170
L2.0440 4.5700
" />
<path d="M2.0440 1.6770
L1.9760 1.7320
" />
<path d="M2.0440 4.5700
L2.1150 4.6200
" />
<path d="M2.1150 1.6270
L2.0440 1.6770
" />
<path d="M2.1150 4.6200
L2.1880 4.6670
" />
<path d="M2.1880 1.5800
L2.1150 1.6270
" />
<path d="M2.1880 4.6670
L2.2640 4.7110
" />
<path d="M2.2640 1.5360
L2.1880 1.5800
" />
<path d="M2.2640 4.7110
L2.3410 4.7510
" />
<path d="M2.3410 1.4960
L2.2640 1.5360
" />
<path d="M2.3410 4.7510
L2.4210 4.7870
" />
<path d="M2.4210 1.4600
L2.3410 1.4960
" />
<path d="M2.4210 4.7870
L2.5040 4.8200
" />
<path d="M2.5040 1.4290
L2.4210 1.4600
" />
<path d="M2.5040 4.8200
L2.5870 4.8480
" />
<path d="M2.5870 1.4010
L2.5040 1.4290
" />
<path d="M2.5870 4.8480
L2.6720 4.8720
" />
<path d="M2.6720 1.3750
L2.5870 1.4010
" />
<path d="M2.6720 4.8720
L2.7610 4.8920
" />
<path d="M2.7610 1.3550
L2.6720 1.3750
" />
<path d="M2.7610 4.8920
L2.8490 4.9080
" />
<path d="M2.8490 1.3390
L2.7610 1.3550
" />
<path d="M2.8490 4.9080
L2.9400 4.9190
" />
<path d="M2.9400 1.3280
L2.8490 1.3390
" />
<path d="M2.9400 4.9190
L3.0320 4.9270
" />
<path d="M3.0320 1.3220
L2.9400 1.3280
" />
<path d="M3.0320 4.9270
L3.1250 4.9290
" />
<path d="M3.1250 1.3200
L3.0320 1.3220
" />
</g>
<g style="fill:#000000; fill-opacity:1.0000; stroke:none;">
<circle cx="3.1250" cy="1.3200" r="0.0100" /> 
<circle cx="3.1250" cy="4.9290" r="0.0100" /> 
</g>
<g style="fill:none; 
stroke:#000000; stroke-width:0.0200; stroke-opacity:1; 
stroke-linecap:round; stroke-linejoin:round;">
<path d="M3.1250 4.9290
L3.2160 4.9270
" />
<path d="M3.2160 1.3220
L3.1250 1.3200
" />
<path d="M3.2160 4.9270
L3.3080 4.9190
" />
<path d="M3.3080 1.3280
L3.2160 1.3220
" />
<path d="M3.3080 4.9190
L3.3990 4.9080
" />
<path d="M3.3990 1.3390
L3.3080 1.3280
" />
<path d="M3.3990 4.9080
L3.4870 4.8920
" />
<path d="M3.4870 1.3550
L3.3990 1.3390
" />
<path d="M3.4870 4.8920
L3.5760 4.8720
" />
<path d="M3.5760 1.3750
L3.4870 1.3550
" />
<path d="M3.5760 4.8720
L3.6610 4.8480
" />
<path d="M3.6610 1.4010
L3.5760 1.3750
" />
<path d="M3.6610 4.8480
L3.7440 4.8200
" />
<path d="M3.7440 1.4290
L3.6610 1.4010
" />
<path d="M3.7440 4.8200
L3.8270 4.7870
" />
<path d="M3.8270 1.4600
L3.7440 1.4290
" />
<path d="M3.8270 4.7870
L3.9070 4.7510
" />
<path d="M3.9070 1.4960
L3.8270 1.4600
" />
<path d="M3.9070 4.7510
L3.9840 4.7110
" />
<path d="M3.9840 1.5360
L3.9070 1.4960
" />
<path d="M3.9840 4.7110
L4.0600 4.6670
" />
<path d="M4.0600 1.5800
L3.9840 1.5360
" />
<path d="M4.0600 4.6670
L4.1340 4.6200
" />
<path d="M4.1340 1.6270
L4.0600 1.5800
" />
<path d="M4.1340 4.6200
L4.2030 4.5700
" />
<path d="M4.2030 1.6770
L4.1340 1.6270
" />
<path d="M4.2030 4.5700
L4.2730 4.5170
" />
<path d="M4.2730 1.7320
L4.2030 1.6770
" />
<path d="M4.2730 4.5170
L4.3380 4.4610
" />
<path d="M4.3380 1.7880
L4.2730 1.7320
" />
<path d="M4.3380 4.4610
L4.4000 4.4000
" />
<path d="M4.4000 1.8470
L4.3380 1.7880
" />
<path d="M4.4000 4.4000
L4.4610 4.3380
" />
<path d="M4.4610 1.9110
L4.4000 1.8470
" />
<path d="M4.4610 4.3380
L4.5170 4.2730
" />
<path d="M4.4750 1.2740
L4.4750 1.7740
" />
<path d="M4.4750 1.7740
L4.9750 1.7740
" />
<path d="M4.5170 1.9760
L4.4610 1.9110
" />
<path d="M4.5170 4.2730
L4.5700 4.2030
" />
<path d="M4.5700 2.0440
L4.5170 1.9760
" />
<path d="M4.5700 4.2030
L4.6200 4.1340
" />
<path d="M4.6200 2.1150
L4.5700 2.0440
" />
<path d="M4.6200 4.1340
L4.6670 4.0600
" />
<path d="M4.6670 2.1880
L4.6200 2.1150
" />
<path d="M4.6670 4.0600
L4.7110 3.9840
" />
<path d="M4.7110 2.2640
L4.6670 2.1880
" />
<path d="M4.7110 3.9840
L4.7510 3.9070
" />
<path d="M4.7510 2.3410
L4.7110 2.2640
" />
<path d="M4.7510 3.9070
L4.7870 3.8270
" />
<path d="M4.7870 2.4210
L4.7510 2.3410
" />
<path d="M4.7870 3.8270
L4.8200 3.7440
" />
<path d="M4.8200 2.5040
L4.7870 2.4210
" />
<path d="M4.8200 3.7440
L4.8480 3.6610
" />
<path d="M4.8480 2.5870
L4.8200 2.5040
" />
<path d="M4.8480 3.6610
L4.8720 3.5760
" />
<path d="M4.8720 2.6720
L4.8480 2.5870
" />
<path d="M4.8720 3.5760
L4.8920 3.4870
" />
<path d="M4.8920 2.7610
L4.8720 2.6720
" />
<path d="M4.8920 3.4870
L4.9080 3.3990
" />
<path d="M4.9080 2.8490
L4.8920 2.7610
" />
<path d="M4.9080 3.3990
L4.9190 3.3080
" />
<path d="M4.9190 2.9400
L4.9080 2.8490
" />
<path d="M4.9190 3.3080
L4.9270 3.2160
" />
<path d="M4.9270 3.0320
L4.9190 2.9400
" />
<path d="M4.9270 3.2160
L4.9290 3.1250
" />
<path d="M4.9290 3.1250
L4.9270 3.0320
" />
</g>
<g style="fill:#000000; fill-opacity:1.0000; stroke:none;">
<circle cx="4.9290" cy="3.1250" r="0.0100" /> 
<circle cx="4.9290" cy="3.1250" r="0.0100" /> 
</g>
<g style="fill:none; 
stroke:#000000; stroke-width:0.0200; stroke-opacity:1; 
stroke-linecap:round; stroke-linejoin:round;">
<path d="M4.9750 0.9230
L1.2740 0.9230
" />
<path d="M4.9750 0.9420
L4.9750 0.9230
" />
<path d="M4.9750 0.9590
L4.9750 0.9420
" />
<path d="M4.9750 1.2740
L4.4750 1.2740
" />
<path d="M4.9750 1.7740
L4.9750 1.2740
" />
<path d="M4.9750 5.2890
L4.9770 5.2730
" />
<path d="M4.9750 5.3060
L4.9750 5.2890
" />
<path d="M4.9750 5.3250
L4.9750 5.3060
" />
<path d="M4.9770 0.9760
L4.9750 0.9590
" />
<path d="M4.9770 5.2730
L4.9810 5.2560
" />
<path d="M4.9810 0.9920
L4.9770 0.9760
" />
<path d="M4.9810 5.2560
L4.9850 5.2380
" />
<path d="M4.9850 1.0090
L4.9810 0.9920
" />
<path d="M4.9850 5.2380
L4.9890 5.2220
" />
<path d="M4.9890 1.0250
L4.9850 1.0090
" />
<path d="M4.9890 5.2220
L4.9950 5.2050
" />
<path d="M4.9950 1.0430
L4.9890 1.0250
" />
<path d="M4.9950 5.2050
L5.0010 5.1900
" />
<path d="M5.0010 1.0570
L4.9950 1.0430
" />
<path d="M5.0010 5.1900
L5.0070 5.1740
" />
<path d="M5.0070 1.0730
L5.0010 1.0570
" />
<path d="M5.0070 5.1740
L5.0150 5.1600
" />
<path d="M5.0150 1.0890
L5.0070 1.0730
" />
<path d="M5.0150 5.1600
L5.0230 5.1440
" />
<path d="M5.0230 1.1040
L5.0150 1.0890
" />
<path d="M5.0230 5.1440
L5.0330 5.1290
" />
<path d="M5.0330 1.1180
L5.0230 1.1040
" />
<path d="M5.0330 5.1290
L5.0430 5.1160
" />
<path d="M5.0430 1.1330
L5.0330 1.1180
" />
<path d="M5.0430 5.1160
L5.0540 5.1020
" />
<path d="M5.0540 1.1450
L5.0430 1.1330
" />
<path d="M5.0540 5.1020
L5.0640 5.0900
" />
<path d="M5.0640 1.1590
L5.0540 1.1450
" />
<path d="M5.0640 5.0900
L5.0760 5.0760
" />
<path d="M5.0760 1.1710
L5.0640 1.1590
" />
</g>
<g style="fill:#000000; fill-opacity:1.0000; stroke:none;">
<circle cx="5.0760" cy="1.1710" r="0.0100" /> 
<circle cx="5.0760" cy="5.0760" r="0.0100" /> 
</g>
<g style="fill:none; 
stroke:#000000; stroke-width:0.0200; stroke-opacity:1; 
stroke-linecap:round; stroke-linejoin:round;">
<path d="M5.0760 5.0760
L5.0900 5.0640
" />
<path d="M5.0900 1.1830
L5.0760 1.1710
" />
<path d="M5.0900 5.0640
L5.1020 5.0540
" />
<path d="M5.1020 1.1950
L5.0900 1.1830
" />
<path d="M5.1020 5.0540
L5.1160 5.0430
" />
<path d="M5.1160 1.2060
L5.1020 1.1950
" />
<path d="M5.1160 5.0430
L5.1290 5.0330
" />
<path d="M5.1290 1.2160
L5.1160 1.2060
" />
<path d="M5.1290 5.0330
L5.1440 5.0230
" />
<path d="M5.1440 1.2240
L5.1290 1.2160
" />
<path d="M5.1440 5.0230
L5.1600 5.0150
" />
<path d="M5.1600 1.2320
L5.1440 1.2240
" />
<path d="M5.1600 5.0150
L5.1740 5.0070
" />
<path d="M5.1740 1.2400
L5.1600 1.2320
" />
<path d="M5.1740 5.0070
L5.1900 5.0010
" />
<path d="M5.1900 1.2480
L5.1740 1.2400
" />
<path d="M5.1900 5.0010
L5.2050 4.9950
" />
<path d="M5.2050 1.2540
L5.1900 1.2480
" />
<path d="M5.2050 4.9950
L5.2220 4.9890
" />
<path d="M5.2220 1.2580
L5.2050 1.2540
" />
<path d="M5.2220 4.9890
L5.2380 4.9850
" />
<path d="M5.2380 1.2640
L5.2220 1.2580
" />
<path d="M5.2380 4.9850
L5.2560 4.9810
" />
<path d="M5.2560 1.2680
L5.2380 1.2640
" />
<path d="M5.2560 4.9810
L5.2730 4.9770
" />
<path d="M5.2730 1.2700
L5.2560 1.2680
" />
<path d="M5.2730 4.9770
L5.2890 4.9750
" />
<path d="M5.2890 1.2720
L5.2730 1.2700
" />
<path d="M5.2890 4.9750
L5.3060 4.9750
" />
<path d="M5.3060 1.2740
L5.2890 1.2720
" />
<path d="M5.3060 4.9750
L5.3250 4.9750
" />
<path d="M5.3250 1.2740
L5.3060 1.2740
" />
<path d="M5.3250 4.9750
L5.3250 1.2740
" />
</g> 
</svg>
