<?xml version="1.0" standalone="no"?>
 <!DOCTYPE svg PUBLIC "-//W3C//DTD SVG 1.1//EN" 
 "http://www.w3.org/Graphics/SVG/1.1/DTD/svg11.dtd"> 
<svg
  xmlns:svg="http://www.w3.org/2000/svg"
  xmlns="http://www.w3.org/2000/svg"
  xmlns:xlink="http://www.w3.org/1999/xlink"
  version="1.1"
  width="11.4300mm" height="7.6454mm" viewBox="0.0000 0.0000 11.4300 7.6454">
<title>SVG Image created as outline.svg date 2025/04/04 10:06:20 </title>
  <desc>Image generated by PCBNEW </desc>
<g style="fill:#000000; fill-opacity:1.0000;stroke:#000000; stroke-opacity:1.0000;
stroke-linecap:round; stroke-linejoin:round;"
 transform="translate(0 0) scale(1 1)">
</g>
<g style="fill:none; 
stroke:#000000; stroke-width:0.1000; stroke-opacity:1; 
stroke-linecap:round; stroke-linejoin:round;">
<path d="M1.1500 1.2650
L1.1500 1.0650
" />
<path d="M1.1500 1.2650
L1.1500 3.5550
" />
<path d="M1.1500 1.2650
L1.1750 1.2400
" />
<path d="M1.1500 1.2650
L1.1750 1.2400
" />
<path d="M1.1500 1.2650
L1.1750 1.2650
" />
<path d="M1.1500 3.5550
L1.1500 4.0950
" />
<path d="M1.1500 4.0950
L1.1500 6.3850
" />
<path d="M1.1500 4.0950
L1.1515 4.1491
" />
<path d="M1.1500 6.3850
L1.1750 6.3850
" />
<path d="M1.1500 6.3850
L1.1750 6.4100
" />
<path d="M1.1500 6.5850
L1.1500 6.3850
" />
<path d="M1.1500 6.5850
L1.1750 6.6100
" />
<path d="M1.1515 3.5009
L1.1500 3.5550
" />
<path d="M1.1515 4.1491
L1.1559 4.2031
" />
<path d="M1.1550 4.1550
L1.1550 3.4950
" />
<path d="M1.1550 4.1550
L1.1588 4.2559
" />
<path d="M1.1559 3.4469
L1.1515 3.5009
" />
<path d="M1.1588 3.3941
L1.1550 3.4950
" />
<path d="M1.1588 4.2559
L1.1701 4.3562
" />
<path d="M1.1701 3.2938
L1.1588 3.3941
" />
<path d="M1.1701 4.3562
L1.1888 4.4554
" />
<path d="M1.1750 0.5550
L1.1750 0.5600
" />
<path d="M1.1750 0.5550
L2.0750 0.5550
" />
<path d="M1.1750 0.5600
L1.1750 0.5751
" />
<path d="M1.1750 0.5751
L1.1750 0.5999
" />
<path d="M1.1750 0.5999
L1.1750 0.6342
" />
<path d="M1.1750 0.6342
L1.1750 0.6776
" />
<path d="M1.1750 0.6776
L1.1750 0.7295
" />
<path d="M1.1750 0.7295
L1.1750 0.7893
" />
<path d="M1.1750 0.7893
L1.1750 0.8562
" />
<path d="M1.1750 0.8562
L1.1750 0.9294
" />
<path d="M1.1750 0.9294
L1.1750 1.0079
" />
<path d="M1.1750 1.0079
L1.1750 1.0908
" />
<path d="M1.1750 1.0400
L1.1500 1.0650
" />
<path d="M1.1750 1.0908
L1.1750 1.1770
" />
<path d="M1.1750 1.1770
L1.1750 1.2654
" />
<path d="M1.1750 1.2654
L1.1750 1.3550
" />
<path d="M1.1750 1.3550
L1.1750 1.7450
" />
<path d="M1.1750 1.7450
L1.1750 1.7898
" />
<path d="M1.1750 1.7898
L1.1750 1.8340
" />
<path d="M1.1750 1.8340
L1.1750 1.8771
" />
<path d="M1.1750 1.8771
L1.1750 1.9186
" />
<path d="M1.1750 1.9186
L1.1750 1.9578
" />
<path d="M1.1750 1.9578
L1.1750 1.9944
" />
<path d="M1.1750 1.9944
L1.1750 2.0278
" />
<path d="M1.1750 2.0278
L1.1750 2.0577
" />
<path d="M1.1750 2.0577
L1.1750 2.0837
" />
<path d="M1.1750 2.0837
L1.1750 2.1054
" />
<path d="M1.1750 2.1054
L1.1750 2.1226
" />
<path d="M1.1750 2.1226
L1.1750 2.1350
" />
<path d="M1.1750 2.1350
L1.1750 2.1425
" />
<path d="M1.1750 2.1425
L1.1750 2.1450
" />
<path d="M1.1750 2.5450
L1.1750 2.1450
" />
<path d="M1.1750 5.1072
L1.1750 5.1050
" />
<path d="M1.1750 5.1139
L1.1750 5.1072
" />
<path d="M1.1750 5.1251
L1.1750 5.1139
" />
<path d="M1.1750 5.1405
L1.1750 5.1251
" />
<path d="M1.1750 5.1603
L1.1750 5.1405
" />
<path d="M1.1750 5.1842
L1.1750 5.1603
" />
<path d="M1.1750 5.2122
L1.1750 5.1842
" />
<path d="M1.1750 5.2440
L1.1750 5.2122
" />
<path d="M1.1750 5.2795
L1.1750 5.2440
" />
<path d="M1.1750 5.3186
L1.1750 5.2795
" />
<path d="M1.1750 5.3609
L1.1750 5.3186
" />
<path d="M1.1750 5.4062
L1.1750 5.3609
" />
<path d="M1.1750 5.4543
L1.1750 5.4062
" />
<path d="M1.1750 5.5050
L1.1750 5.1050
" />
<path d="M1.1750 5.5050
L1.1750 5.4543
" />
<path d="M1.1750 5.5050
L1.1750 5.5075
" />
<path d="M1.1750 5.5075
L1.1750 5.5150
" />
<path d="M1.1750 5.5150
L1.1750 5.5274
" />
<path d="M1.1750 5.5274
L1.1750 5.5446
" />
<path d="M1.1750 5.5446
L1.1750 5.5663
" />
<path d="M1.1750 5.5663
L1.1750 5.5923
" />
<path d="M1.1750 5.5923
L1.1750 5.6222
" />
<path d="M1.1750 5.6222
L1.1750 5.6556
" />
<path d="M1.1750 5.6556
L1.1750 5.6922
" />
<path d="M1.1750 5.6922
L1.1750 5.7314
" />
<path d="M1.1750 5.7314
L1.1750 5.7729
" />
<path d="M1.1750 5.7729
L1.1750 5.8160
" />
<path d="M1.1750 5.8160
L1.1750 5.8602
" />
<path d="M1.1750 5.8602
L1.1750 5.9050
" />
<path d="M1.1750 5.9050
L1.1750 6.2950
" />
<path d="M1.1750 5.9050
L2.0750 5.9050
" />
<path d="M1.1750 6.2950
L1.1750 6.3846
" />
<path d="M1.1750 6.2950
L2.0750 6.2950
" />
<path d="M1.1750 6.3846
L1.1750 6.4730
" />
<path d="M1.1750 6.4730
L1.1750 6.5592
" />
<path d="M1.1750 6.5592
L1.1750 6.6421
" />
<path d="M1.1750 6.6421
L1.1750 6.7206
" />
<path d="M1.1750 6.7206
L1.1750 6.7938
" />
<path d="M1.1750 6.7938
L1.1750 6.8607
" />
<path d="M1.1750 6.8607
L1.1750 6.9205
" />
<path d="M1.1750 6.9205
L1.1750 6.9724
" />
<path d="M1.1750 6.9724
L1.1750 7.0158
" />
<path d="M1.1750 7.0158
L1.1750 7.0501
" />
<path d="M1.1750 7.0501
L1.1750 7.0749
" />
<path d="M1.1750 7.0749
L1.1750 7.0900
" />
<path d="M1.1750 7.0900
L1.1750 7.0950
" />
<path d="M1.1750 0.9550
L1.1750 0.9550
" />
<path d="M1.1751 0.9550
L1.1750 0.9550
" />
<path d="M1.1753 0.9550
L1.1751 0.9550
" />
<path d="M1.1755 0.9550
L1.1753 0.9550
" />
<path d="M1.1758 0.9550
L1.1755 0.9550
" />
<path d="M1.1761 0.9550
L1.1758 0.9550
" />
<path d="M1.1763 2.1450
L1.1750 2.1450
" />
<path d="M1.1763 2.5450
L1.1750 2.5450
" />
<path d="M1.1763 5.1050
L1.1750 5.1050
" />
<path d="M1.1763 5.5050
L1.1750 5.5050
" />
<path d="M1.1765 0.9550
L1.1761 0.9550
" />
<path d="M1.1770 0.9550
L1.1765 0.9550
" />
<path d="M1.1775 0.9550
L1.1770 0.9550
" />
<path d="M1.1781 0.9550
L1.1775 0.9550
" />
<path d="M1.1787 0.9550
L1.1781 0.9550
" />
<path d="M1.1794 0.9550
L1.1787 0.9550
" />
<path d="M1.1800 2.1450
L1.1763 2.1450
" />
<path d="M1.1800 2.5450
L1.1763 2.5450
" />
<path d="M1.1800 5.1050
L1.1763 5.1050
" />
<path d="M1.1800 5.5050
L1.1763 5.5050
" />
<path d="M1.1802 0.9550
L1.1794 0.9550
" />
<path d="M1.1810 0.9550
L1.1802 0.9550
" />
<path d="M1.1862 2.1450
L1.1800 2.1450
" />
<path d="M1.1862 2.5450
L1.1800 2.5450
" />
<path d="M1.1862 5.1050
L1.1800 5.1050
" />
<path d="M1.1862 5.5050
L1.1800 5.5050
" />
<path d="M1.1888 3.1946
L1.1701 3.2938
" />
<path d="M1.1888 4.4554
L1.2150 4.5529
" />
<path d="M1.1948 2.1450
L1.1862 2.1450
" />
<path d="M1.1948 2.5450
L1.1862 2.5450
" />
<path d="M1.1948 5.1050
L1.1862 5.1050
" />
<path d="M1.1948 5.5050
L1.1862 5.5050
" />
<path d="M1.2057 2.1450
L1.1948 2.1450
" />
<path d="M1.2057 2.5450
L1.1948 2.5450
" />
<path d="M1.2057 5.1050
L1.1948 5.1050
" />
<path d="M1.2057 5.5050
L1.1948 5.5050
" />
<path d="M1.2150 3.0971
L1.1888 3.1946
" />
<path d="M1.2150 4.5529
L1.2483 4.6482
" />
<path d="M1.2186 2.1450
L1.2057 2.1450
" />
<path d="M1.2186 2.5450
L1.2057 2.5450
" />
<path d="M1.2186 5.1050
L1.2057 5.1050
" />
<path d="M1.2186 5.5050
L1.2057 5.5050
" />
<path d="M1.2336 2.1450
L1.2186 2.1450
" />
<path d="M1.2336 2.5450
L1.2186 2.5450
" />
<path d="M1.2336 5.1050
L1.2186 5.1050
" />
<path d="M1.2336 5.5050
L1.2186 5.5050
" />
<path d="M1.2483 3.0018
L1.2150 3.0971
" />
<path d="M1.2483 4.6482
L1.2887 4.7407
" />
<path d="M1.2503 2.1450
L1.2336 2.1450
" />
<path d="M1.2503 2.5450
L1.2336 2.5450
" />
<path d="M1.2503 5.1050
L1.2336 5.1050
" />
<path d="M1.2503 5.5050
L1.2336 5.5050
" />
<path d="M1.2686 2.1450
L1.2503 2.1450
" />
<path d="M1.2686 2.5450
L1.2503 2.5450
" />
<path d="M1.2686 5.1050
L1.2503 5.1050
" />
<path d="M1.2686 5.5050
L1.2503 5.5050
" />
<path d="M1.2882 2.1450
L1.2686 2.1450
" />
<path d="M1.2882 2.5450
L1.2686 2.5450
" />
<path d="M1.2882 5.1050
L1.2686 5.1050
" />
<path d="M1.2882 5.5050
L1.2686 5.5050
" />
<path d="M1.2887 2.9093
L1.2483 3.0018
" />
<path d="M1.2887 4.7407
L1.3359 4.8300
" />
<path d="M1.3089 2.1450
L1.2882 2.1450
" />
<path d="M1.3089 2.5450
L1.2882 2.5450
" />
<path d="M1.3089 5.1050
L1.2882 5.1050
" />
<path d="M1.3089 5.5050
L1.2882 5.5050
" />
<path d="M1.3305 2.1450
L1.3089 2.1450
" />
<path d="M1.3305 2.5450
L1.3089 2.5450
" />
<path d="M1.3305 5.1050
L1.3089 5.1050
" />
<path d="M1.3305 5.5050
L1.3089 5.5050
" />
<path d="M1.3359 2.8200
L1.2887 2.9093
" />
<path d="M1.3359 4.8300
L1.3896 4.9155
" />
<path d="M1.3526 2.1450
L1.3305 2.1450
" />
<path d="M1.3526 2.5450
L1.3305 2.5450
" />
<path d="M1.3526 5.1050
L1.3305 5.1050
" />
<path d="M1.3526 5.5050
L1.3305 5.5050
" />
<path d="M1.3550 3.4950
L1.3564 3.4386
" />
<path d="M1.3550 3.4950
L1.5550 3.4950
" />
<path d="M1.3550 4.1550
L1.3550 3.4950
" />
<path d="M1.3564 3.4386
L1.3605 3.3823
" />
<path d="M1.3564 4.2114
L1.3550 4.1550
" />
<path d="M1.3605 3.3823
L1.3674 3.3263
" />
<path d="M1.3605 4.2677
L1.3564 4.2114
" />
<path d="M1.3674 3.3263
L1.3771 3.2706
" />
<path d="M1.3674 4.3237
L1.3605 4.2677
" />
<path d="M1.3750 2.1450
L1.3526 2.1450
" />
<path d="M1.3750 2.1450
L1.3750 2.5450
" />
<path d="M1.3750 2.1450
L2.5250 2.1450
" />
<path d="M1.3750 2.5450
L1.3526 2.5450
" />
<path d="M1.3750 5.1050
L1.3526 5.1050
" />
<path d="M1.3750 5.1050
L1.3750 5.5050
" />
<path d="M1.3750 5.1050
L1.5458 5.1050
" />
<path d="M1.3750 5.5050
L1.3526 5.5050
" />
<path d="M1.3771 3.2706
L1.3895 3.2156
" />
<path d="M1.3771 4.3794
L1.3674 4.3237
" />
<path d="M1.3895 3.2156
L1.4045 3.1612
" />
<path d="M1.3895 4.4344
L1.3771 4.3794
" />
<path d="M1.3896 2.7345
L1.3359 2.8200
" />
<path d="M1.3896 4.9155
L1.4495 4.9967
" />
<path d="M1.4045 3.1612
L1.4222 3.1076
" />
<path d="M1.4045 4.4888
L1.3895 4.4344
" />
<path d="M1.4222 3.1076
L1.4425 3.0549
" />
<path d="M1.4222 4.5424
L1.4045 4.4888
" />
<path d="M1.4425 3.0549
L1.4654 3.0033
" />
<path d="M1.4425 4.5951
L1.4222 4.5424
" />
<path d="M1.4495 2.6533
L1.3896 2.7345
" />
<path d="M1.4495 4.9967
L1.5154 5.0732
" />
<path d="M1.4654 3.0033
L1.4908 2.9529
" />
<path d="M1.4654 4.6467
L1.4425 4.5951
" />
<path d="M1.4908 2.9529
L1.5186 2.9038
" />
<path d="M1.4908 4.6971
L1.4654 4.6467
" />
<path d="M1.5154 2.5768
L1.4495 2.6533
" />
<path d="M1.5154 5.0732
L1.5868 5.1446
" />
<path d="M1.5186 2.9038
L1.5488 2.8561
" />
<path d="M1.5186 4.7462
L1.4908 4.6971
" />
<path d="M1.5458 2.5450
L1.3750 2.5450
" />
<path d="M1.5488 2.8561
L1.5813 2.8099
" />
<path d="M1.5488 4.7939
L1.5186 4.7462
" />
<path d="M1.5550 3.4950
L1.5561 3.4484
" />
<path d="M1.5550 4.1550
L1.3550 4.1550
" />
<path d="M1.5550 4.1550
L1.5550 3.4950
" />
<path d="M1.5561 3.4484
L1.5596 3.4019
" />
<path d="M1.5561 4.2016
L1.5550 4.1550
" />
<path d="M1.5596 3.4019
L1.5653 3.3556
" />
<path d="M1.5596 4.2481
L1.5561 4.2016
" />
<path d="M1.5653 3.3556
L1.5733 3.3097
" />
<path d="M1.5653 4.2944
L1.5596 4.2481
" />
<path d="M1.5733 3.3097
L1.5835 3.2642
" />
<path d="M1.5733 4.3403
L1.5653 4.2944
" />
<path d="M1.5750 3.5650
L1.5762 3.5159
" />
<path d="M1.5750 4.0850
L1.5750 3.5650
" />
<path d="M1.5750 4.0850
L1.7750 4.0850
" />
<path d="M1.5762 3.5159
L1.5798 3.4670
" />
<path d="M1.5762 4.1341
L1.5750 4.0850
" />
<path d="M1.5798 3.4670
L1.5858 3.4183
" />
<path d="M1.5798 4.1830
L1.5762 4.1341
" />
<path d="M1.5813 2.8099
L1.6160 2.7654
" />
<path d="M1.5813 4.8401
L1.5488 4.7939
" />
<path d="M1.5835 3.2642
L1.5959 3.2192
" />
<path d="M1.5835 4.3858
L1.5733 4.3403
" />
<path d="M1.5858 3.4183
L1.5942 3.3699
" />
<path d="M1.5858 4.2317
L1.5798 4.1830
" />
<path d="M1.5868 2.5054
L1.5154 2.5768
" />
<path d="M1.5868 5.1446
L1.6633 5.2105
" />
<path d="M1.5942 3.3699
L1.6050 3.3220
" />
<path d="M1.5942 4.2801
L1.5858 4.2317
" />
<path d="M1.5959 3.2192
L1.6105 3.1750
" />
<path d="M1.5959 4.4308
L1.5835 4.3858
" />
<path d="M1.6050 3.3220
L1.6181 3.2747
" />
<path d="M1.6050 4.3280
L1.5942 4.2801
" />
<path d="M1.6105 3.1750
L1.6273 3.1315
" />
<path d="M1.6105 4.4750
L1.5959 4.4308
" />
<path d="M1.6160 2.7654
L1.6529 2.7227
" />
<path d="M1.6160 4.8846
L1.5813 4.8401
" />
<path d="M1.6181 3.2747
L1.6335 3.2281
" />
<path d="M1.6181 4.3753
L1.6050 4.3280
" />
<path d="M1.6273 3.1315
L1.6462 3.0888
" />
<path d="M1.6273 4.5185
L1.6105 4.4750
" />
<path d="M1.6335 3.2281
L1.6511 3.1823
" />
<path d="M1.6335 4.4219
L1.6181 4.3753
" />
<path d="M1.6462 3.0888
L1.6672 3.0472
" />
<path d="M1.6462 4.5612
L1.6273 4.5185
" />
<path d="M1.6511 3.1823
L1.6710 3.1374
" />
<path d="M1.6511 4.4677
L1.6335 4.4219
" />
<path d="M1.6529 2.7227
L1.6918 2.6818
" />
<path d="M1.6529 4.9273
L1.6160 4.8846
" />
<path d="M1.6633 2.4395
L1.5868 2.5054
" />
<path d="M1.6633 5.2105
L1.7445 5.2704
" />
<path d="M1.6672 3.0472
L1.6902 3.0066
" />
<path d="M1.6672 4.6028
L1.6462 4.5612
" />
<path d="M1.6710 3.1374
L1.6931 3.0936
" />
<path d="M1.6710 4.5126
L1.6511 4.4677
" />
<path d="M1.6902 3.0066
L1.7151 2.9672
" />
<path d="M1.6902 4.6434
L1.6672 4.6028
" />
<path d="M1.6918 2.6818
L1.7327 2.6429
" />
<path d="M1.6918 4.9682
L1.6529 4.9273
" />
<path d="M1.6931 3.0936
L1.7173 3.0509
" />
<path d="M1.6931 4.5564
L1.6710 4.5126
" />
<path d="M1.7151 2.9672
L1.7420 2.9291
" />
<path d="M1.7151 4.6828
L1.6902 4.6434
" />
<path d="M1.7173 3.0509
L1.7435 3.0094
" />
<path d="M1.7173 4.5991
L1.6931 4.5564
" />
<path d="M1.7327 2.6429
L1.7754 2.6060
" />
<path d="M1.7327 5.0071
L1.6918 4.9682
" />
<path d="M1.7420 2.9291
L1.7706 2.8923
" />
<path d="M1.7420 4.7209
L1.7151 4.6828
" />
<path d="M1.7435 3.0094
L1.7718 2.9693
" />
<path d="M1.7435 4.6406
L1.7173 4.5991
" />
<path d="M1.7445 2.3796
L1.6633 2.4395
" />
<path d="M1.7445 5.2704
L1.8300 5.3241
" />
<path d="M1.7706 2.8923
L1.8011 2.8570
" />
<path d="M1.7706 4.7577
L1.7420 4.7209
" />
<path d="M1.7718 2.9693
L1.8020 2.9306
" />
<path d="M1.7718 4.6807
L1.7435 4.6406
" />
<path d="M1.7750 3.5650
L1.5750 3.5650
" />
<path d="M1.7750 3.5650
L1.7750 4.0850
" />
<path d="M1.7750 4.0850
L1.7789 4.1634
" />
<path d="M1.7754 2.6060
L1.8199 2.5713
" />
<path d="M1.7754 5.0440
L1.7327 5.0071
" />
<path d="M1.7789 3.4866
L1.7750 3.5650
" />
<path d="M1.7789 4.1634
L1.7904 4.2411
" />
<path d="M1.7904 3.4089
L1.7789 3.4866
" />
<path d="M1.7904 4.2411
L1.8094 4.3172
" />
<path d="M1.8011 2.8570
L1.8332 2.8232
" />
<path d="M1.8011 4.7930
L1.7706 4.7577
" />
<path d="M1.8020 2.9306
L1.8340 2.8934
" />
<path d="M1.8020 4.7194
L1.7718 4.6807
" />
<path d="M1.8094 3.3328
L1.7904 3.4089
" />
<path d="M1.8094 4.3172
L1.8359 4.3911
" />
<path d="M1.8199 2.5713
L1.8661 2.5388
" />
<path d="M1.8199 5.0787
L1.7754 5.0440
" />
<path d="M1.8300 2.3259
L1.7445 2.3796
" />
<path d="M1.8300 5.3241
L1.9193 5.3713
" />
<path d="M1.8332 2.8232
L1.8670 2.7911
" />
<path d="M1.8332 4.8268
L1.8011 4.7930
" />
<path d="M1.8340 2.8934
L1.8679 2.8579
" />
<path d="M1.8340 4.7566
L1.8020 4.7194
" />
<path d="M1.8359 3.2589
L1.8094 3.3328
" />
<path d="M1.8359 4.3911
L1.8695 4.4621
" />
<path d="M1.8661 2.5388
L1.9138 2.5086
" />
<path d="M1.8661 5.1112
L1.8199 5.0787
" />
<path d="M1.8670 2.7911
L1.9023 2.7606
" />
<path d="M1.8670 4.8589
L1.8332 4.8268
" />
<path d="M1.8679 2.8579
L1.9034 2.8240
" />
<path d="M1.8679 4.7921
L1.8340 4.7566
" />
<path d="M1.8695 3.1879
L1.8359 3.2589
" />
<path d="M1.8695 4.4621
L1.9098 4.5295
" />
<path d="M1.9023 2.7606
L1.9391 2.7320
" />
<path d="M1.9023 4.8894
L1.8670 4.8589
" />
<path d="M1.9034 2.8240
L1.9406 2.7920
" />
<path d="M1.9034 4.8260
L1.8679 4.7921
" />
<path d="M1.9098 3.1205
L1.8695 3.1879
" />
<path d="M1.9098 4.5295
L1.9566 4.5925
" />
<path d="M1.9138 2.5086
L1.9629 2.4808
" />
<path d="M1.9138 5.1414
L1.8661 5.1112
" />
<path d="M1.9193 2.2787
L1.8300 2.3259
" />
<path d="M1.9193 5.3713
L2.0118 5.4117
" />
<path d="M1.9391 2.7320
L1.9772 2.7051
" />
<path d="M1.9391 4.9180
L1.9023 4.8894
" />
<path d="M1.9406 2.7920
L1.9793 2.7618
" />
<path d="M1.9406 4.8580
L1.9034 4.8260
" />
<path d="M1.9566 3.0575
L1.9098 3.1205
" />
<path d="M1.9566 4.5925
L2.0093 4.6507
" />
<path d="M1.9629 2.4808
L2.0133 2.4554
" />
<path d="M1.9629 5.1692
L1.9138 5.1414
" />
<path d="M1.9772 2.7051
L2.0166 2.6802
" />
<path d="M1.9772 4.9449
L1.9391 4.9180
" />
<path d="M1.9793 2.7618
L2.0194 2.7335
" />
<path d="M1.9793 4.8882
L1.9406 4.8580
" />
<path d="M2.0093 2.9993
L1.9566 3.0575
" />
<path d="M2.0093 4.6507
L2.0675 4.7034
" />
<path d="M2.0118 2.2383
L1.9193 2.2787
" />
<path d="M2.0118 5.4117
L2.1071 5.4450
" />
<path d="M2.0133 2.4554
L2.0649 2.4325
" />
<path d="M2.0133 5.1946
L1.9629 5.1692
" />
<path d="M2.0166 2.6802
L2.0572 2.6572
" />
<path d="M2.0166 4.9698
L1.9772 4.9449
" />
<path d="M2.0194 2.7335
L2.0609 2.7073
" />
<path d="M2.0194 4.9165
L1.9793 4.8882
" />
<path d="M2.0572 2.6572
L2.0988 2.6362
" />
<path d="M2.0572 4.9928
L2.0166 4.9698
" />
<path d="M2.0609 2.7073
L2.1036 2.6831
" />
<path d="M2.0609 4.9427
L2.0194 4.9165
" />
<path d="M2.0649 2.4325
L2.1176 2.4122
" />
<path d="M2.0649 5.2175
L2.0133 5.1946
" />
<path d="M2.0675 2.9466
L2.0093 2.9993
" />
<path d="M2.0675 4.7034
L2.1305 4.7502
" />
<path d="M2.0690 6.6950
L2.0698 6.6950
" />
<path d="M2.0698 6.6950
L2.0706 6.6950
" />
<path d="M2.0706 6.6950
L2.0713 6.6950
" />
<path d="M2.0713 6.6950
L2.0719 6.6950
" />
<path d="M2.0719 6.6950
L2.0725 6.6950
" />
<path d="M2.0725 6.6950
L2.0730 6.6950
" />
<path d="M2.0730 6.6950
L2.0735 6.6950
" />
<path d="M2.0735 6.6950
L2.0739 6.6950
" />
<path d="M2.0739 6.6950
L2.0742 6.6950
" />
<path d="M2.0742 6.6950
L2.0745 6.6950
" />
<path d="M2.0745 6.6950
L2.0747 6.6950
" />
<path d="M2.0747 6.6950
L2.0749 6.6950
" />
<path d="M2.0749 6.6950
L2.0750 6.6950
" />
<path d="M2.0750 6.6950
L2.0750 6.6950
" />
<path d="M2.0750 0.5550
L2.0750 0.5600
" />
<path d="M2.0750 0.5600
L2.0750 0.5751
" />
<path d="M2.0750 0.5751
L2.0750 0.5999
" />
<path d="M2.0750 0.5999
L2.0750 0.6342
" />
<path d="M2.0750 0.6342
L2.0750 0.6776
" />
<path d="M2.0750 0.6776
L2.0750 0.7295
" />
<path d="M2.0750 0.7295
L2.0750 0.7893
" />
<path d="M2.0750 0.7893
L2.0750 0.8562
" />
<path d="M2.0750 0.8562
L2.0750 0.9294
" />
<path d="M2.0750 0.9294
L2.0750 1.0079
" />
<path d="M2.0750 0.9650
L2.1250 0.9650
" />
<path d="M2.0750 1.0079
L2.0750 1.0908
" />
<path d="M2.0750 1.0908
L2.0750 1.1770
" />
<path d="M2.0750 1.1770
L2.0750 1.2654
" />
<path d="M2.0750 1.2650
L2.2250 1.2650
" />
<path d="M2.0750 1.2654
L2.0750 1.3550
" />
<path d="M2.0750 1.3550
L1.1750 1.3550
" />
<path d="M2.0750 1.7450
L1.1750 1.7450
" />
<path d="M2.0750 1.7450
L2.0750 1.3550
" />
<path d="M2.0750 1.7450
L2.0750 1.7898
" />
<path d="M2.0750 1.7898
L2.0750 1.8340
" />
<path d="M2.0750 1.8340
L2.0750 1.8771
" />
<path d="M2.0750 1.8771
L2.0750 1.9186
" />
<path d="M2.0750 1.9186
L2.0750 1.9578
" />
<path d="M2.0750 1.9578
L2.0750 1.9944
" />
<path d="M2.0750 1.9944
L2.0750 2.0278
" />
<path d="M2.0750 2.0278
L2.0750 2.0577
" />
<path d="M2.0750 2.0577
L2.0750 2.0837
" />
<path d="M2.0750 2.0837
L2.0750 2.1054
" />
<path d="M2.0750 2.1054
L2.0750 2.1226
" />
<path d="M2.0750 2.1226
L2.0750 2.1350
" />
<path d="M2.0750 2.1350
L2.0750 2.1425
" />
<path d="M2.0750 2.1425
L2.0750 2.1450
" />
<path d="M2.0750 5.5050
L2.0750 5.5075
" />
<path d="M2.0750 5.5075
L2.0750 5.5150
" />
<path d="M2.0750 5.5150
L2.0750 5.5274
" />
<path d="M2.0750 5.5274
L2.0750 5.5446
" />
<path d="M2.0750 5.5446
L2.0750 5.5663
" />
<path d="M2.0750 5.5663
L2.0750 5.5923
" />
<path d="M2.0750 5.5923
L2.0750 5.6222
" />
<path d="M2.0750 5.6222
L2.0750 5.6556
" />
<path d="M2.0750 5.6556
L2.0750 5.6922
" />
<path d="M2.0750 5.6922
L2.0750 5.7314
" />
<path d="M2.0750 5.7314
L2.0750 5.7729
" />
<path d="M2.0750 5.7729
L2.0750 5.8160
" />
<path d="M2.0750 5.8160
L2.0750 5.8602
" />
<path d="M2.0750 5.8602
L2.0750 5.9050
" />
<path d="M2.0750 5.9050
L2.0750 6.2950
" />
<path d="M2.0750 6.2950
L2.0750 6.3846
" />
<path d="M2.0750 6.3846
L2.0750 6.4730
" />
<path d="M2.0750 6.3850
L2.2250 6.3850
" />
<path d="M2.0750 6.4730
L2.0750 6.5592
" />
<path d="M2.0750 6.5592
L2.0750 6.6421
" />
<path d="M2.0750 6.6421
L2.0750 6.7206
" />
<path d="M2.0750 6.7206
L2.0750 6.7938
" />
<path d="M2.0750 6.7938
L2.0750 6.8607
" />
<path d="M2.0750 6.8607
L2.0750 6.9205
" />
<path d="M2.0750 6.9205
L2.0750 6.9724
" />
<path d="M2.0750 6.9724
L2.0750 7.0158
" />
<path d="M2.0750 7.0158
L2.0750 7.0501
" />
<path d="M2.0750 7.0501
L2.0750 7.0749
" />
<path d="M2.0750 7.0749
L2.0750 7.0900
" />
<path d="M2.0750 7.0900
L2.0750 7.0950
" />
<path d="M2.0750 7.0950
L1.1750 7.0950
" />
<path d="M2.0988 2.6362
L2.1415 2.6173
" />
<path d="M2.0988 5.0138
L2.0572 4.9928
" />
<path d="M2.1036 2.6831
L2.1474 2.6610
" />
<path d="M2.1036 4.9669
L2.0609 4.9427
" />
<path d="M2.1071 2.2050
L2.0118 2.2383
" />
<path d="M2.1071 5.4450
L2.2046 5.4712
" />
<path d="M2.1176 2.4122
L2.1712 2.3945
" />
<path d="M2.1176 5.2378
L2.0649 5.2175
" />
<path d="M2.1250 0.9650
L2.1250 1.1650
" />
<path d="M2.1250 1.1650
L2.0750 1.1650
" />
<path d="M2.1250 1.1650
L2.2250 1.2650
" />
<path d="M2.1250 6.4850
L2.0750 6.4850
" />
<path d="M2.1250 6.6850
L2.0750 6.6850
" />
<path d="M2.1250 6.6850
L2.1250 6.4850
" />
<path d="M2.1305 2.8998
L2.0675 2.9466
" />
<path d="M2.1305 4.7502
L2.1979 4.7905
" />
<path d="M2.1415 2.6173
L2.1850 2.6005
" />
<path d="M2.1415 5.0327
L2.0988 5.0138
" />
<path d="M2.1474 2.6610
L2.1923 2.6411
" />
<path d="M2.1474 4.9890
L2.1036 4.9669
" />
<path d="M2.1712 2.3945
L2.2256 2.3795
" />
<path d="M2.1712 5.2555
L2.1176 5.2378
" />
<path d="M2.1850 2.6005
L2.2292 2.5859
" />
<path d="M2.1850 5.0495
L2.1415 5.0327
" />
<path d="M2.1923 2.6411
L2.2381 2.6235
" />
<path d="M2.1923 5.0089
L2.1474 4.9890
" />
<path d="M2.1979 2.8595
L2.1305 2.8998
" />
<path d="M2.1979 4.7905
L2.2689 4.8241
" />
<path d="M2.2046 2.1788
L2.1071 2.2050
" />
<path d="M2.2046 5.4712
L2.3038 5.4899
" />
<path d="M2.2250 1.0650
L2.1250 0.9650
" />
<path d="M2.2250 1.0650
L2.2250 1.2650
" />
<path d="M2.2250 1.2650
L2.2250 1.4650
" />
<path d="M2.2250 6.1850
L9.2250 6.1850
" />
<path d="M2.2250 6.3850
L2.1250 6.4850
" />
<path d="M2.2250 6.3850
L2.2250 6.1850
" />
<path d="M2.2250 6.3850
L2.2250 6.5850
" />
<path d="M2.2250 6.5850
L2.1250 6.6850
" />
<path d="M2.2256 2.3795
L2.2806 2.3671
" />
<path d="M2.2256 5.2705
L2.1712 5.2555
" />
<path d="M2.2292 2.5859
L2.2742 2.5735
" />
<path d="M2.2292 5.0641
L2.1850 5.0495
" />
<path d="M2.2381 2.6235
L2.2847 2.6081
" />
<path d="M2.2381 5.0265
L2.1923 5.0089
" />
<path d="M2.2689 2.8259
L2.1979 2.8595
" />
<path d="M2.2689 4.8241
L2.3428 4.8506
" />
<path d="M2.2742 2.5735
L2.3197 2.5633
" />
<path d="M2.2742 5.0765
L2.2292 5.0641
" />
<path d="M2.2806 2.3671
L2.3363 2.3574
" />
<path d="M2.2806 5.2829
L2.2256 5.2705
" />
<path d="M2.2847 2.6081
L2.3320 2.5950
" />
<path d="M2.2847 5.0419
L2.2381 5.0265
" />
<path d="M2.3038 2.1601
L2.2046 2.1788
" />
<path d="M2.3038 5.4899
L2.4041 5.5012
" />
<path d="M2.3197 2.5633
L2.3656 2.5553
" />
<path d="M2.3197 5.0867
L2.2742 5.0765
" />
<path d="M2.3320 2.5950
L2.3799 2.5842
" />
<path d="M2.3320 5.0550
L2.2847 5.0419
" />
<path d="M2.3363 2.3574
L2.3923 2.3505
" />
<path d="M2.3363 5.2926
L2.2806 5.2829
" />
<path d="M2.3428 2.7994
L2.2689 2.8259
" />
<path d="M2.3428 4.8506
L2.4189 4.8696
" />
<path d="M2.3656 2.5553
L2.4119 2.5496
" />
<path d="M2.3656 5.0947
L2.3197 5.0867
" />
<path d="M2.3675 5.0950
L3.7959 5.0950
" />
<path d="M2.3799 2.5842
L2.4283 2.5758
" />
<path d="M2.3799 5.0658
L2.3320 5.0550
" />
<path d="M2.3800 4.1900
L2.3800 3.4600
" />
<path d="M2.3800 4.1900
L2.6200 4.1900
" />
<path d="M2.3800 3.7500
L2.3801 3.7500
" />
<path d="M2.3800 3.9000
L2.3801 3.9000
" />
<path d="M2.3801 3.7500
L2.3803 3.7500
" />
<path d="M2.3801 3.9000
L2.3803 3.9000
" />
<path d="M2.3803 3.7500
L2.3806 3.7500
" />
<path d="M2.3803 3.9000
L2.3806 3.9000
" />
<path d="M2.3806 3.7500
L2.3811 3.7500
" />
<path d="M2.3806 3.9000
L2.3811 3.9000
" />
<path d="M2.3811 3.7500
L2.3818 3.7500
" />
<path d="M2.3811 3.9000
L2.3818 3.9000
" />
<path d="M2.3818 3.7500
L2.3826 3.7500
" />
<path d="M2.3818 3.9000
L2.3826 3.9000
" />
<path d="M2.3826 3.7500
L2.3835 3.7500
" />
<path d="M2.3826 3.9000
L2.3835 3.9000
" />
<path d="M2.3835 3.7500
L2.3845 3.7500
" />
<path d="M2.3835 3.9000
L2.3845 3.9000
" />
<path d="M2.3845 3.7500
L2.3857 3.7500
" />
<path d="M2.3845 3.9000
L2.3857 3.9000
" />
<path d="M2.3857 3.7500
L2.3870 3.7500
" />
<path d="M2.3857 3.9000
L2.3870 3.9000
" />
<path d="M2.3870 3.7500
L2.3884 3.7500
" />
<path d="M2.3870 3.9000
L2.3884 3.9000
" />
<path d="M2.3884 3.7500
L2.3900 3.7500
" />
<path d="M2.3884 3.9000
L2.3900 3.9000
" />
<path d="M2.3900 3.7500
L2.3916 3.7500
" />
<path d="M2.3900 3.9000
L2.3916 3.9000
" />
<path d="M2.3916 3.7500
L2.3934 3.7500
" />
<path d="M2.3916 3.9000
L2.3934 3.9000
" />
<path d="M2.3923 2.3505
L2.4486 2.3464
" />
<path d="M2.3923 5.2995
L2.3363 5.2926
" />
<path d="M2.3934 3.7500
L2.3934 3.9000
" />
<path d="M2.3934 3.7500
L2.3934 3.9000
" />
<path d="M2.4041 2.1488
L2.3038 2.1601
" />
<path d="M2.4041 5.5012
L2.5050 5.5050
" />
<path d="M2.4119 2.5496
L2.4584 2.5461
" />
<path d="M2.4119 5.1004
L2.3656 5.0947
" />
<path d="M2.4189 2.7804
L2.3428 2.7994
" />
<path d="M2.4189 4.8696
L2.4966 4.8811
" />
<path d="M2.4269 4.1900
L2.4568 4.2417
" />
<path d="M2.4283 2.5758
L2.4770 2.5698
" />
<path d="M2.4283 5.0742
L2.3799 5.0658
" />
<path d="M2.4486 2.3464
L2.5050 2.3450
" />
<path d="M2.4486 5.3036
L2.3923 5.2995
" />
<path d="M2.4486 4.2289
L2.4269 4.1900
" />
<path d="M2.4568 3.4083
L2.4269 3.4600
" />
<path d="M2.4568 4.2417
L2.4922 4.2879
" />
<path d="M2.4584 2.5461
L2.5050 2.5450
" />
<path d="M2.4584 5.1039
L2.4119 5.1004
" />
<path d="M2.4741 4.2654
L2.4486 4.2289
" />
<path d="M2.4770 2.5698
L2.5259 2.5662
" />
<path d="M2.4770 5.0802
L2.4283 5.0742
" />
<path d="M2.4922 3.3621
L2.4568 3.4083
" />
<path d="M2.4922 4.2879
L2.5332 4.3285
" />
<path d="M2.4966 2.7689
L2.4189 2.7804
" />
<path d="M2.4966 4.8811
L2.5750 4.8850
" />
<path d="M2.5031 4.2992
L2.4741 4.2654
" />
<path d="M2.5050 2.1450
L2.4041 2.1488
" />
<path d="M2.5050 2.3450
L5.9250 2.3450
" />
<path d="M2.5050 2.5450
L2.5050 2.3450
" />
<path d="M2.5050 5.1050
L2.4584 5.1039
" />
<path d="M2.5050 5.1050
L8.9450 5.1050
" />
<path d="M2.5050 5.3050
L2.4486 5.3036
" />
<path d="M2.5050 5.3050
L2.5050 5.1050
" />
<path d="M2.5050 5.5050
L8.9450 5.5050
" />
<path d="M2.5229 3.9000
L2.5235 3.7500
" />
<path d="M2.5242 3.9000
L2.5229 3.9000
" />
<path d="M2.5242 3.9000
L2.5235 3.7500
" />
<path d="M2.5250 5.5050
L1.3750 5.5050
" />
<path d="M2.5259 2.5662
L2.5750 2.5650
" />
<path d="M2.5259 5.0838
L2.4770 5.0802
" />
<path d="M2.5332 3.3215
L2.4922 3.3621
" />
<path d="M2.5332 4.3285
L2.5795 4.3638
" />
<path d="M2.5352 4.3300
L2.5031 4.2992
" />
<path d="M2.5703 4.3575
L2.5352 4.3300
" />
<path d="M2.5750 2.5650
L2.5750 2.7650
" />
<path d="M2.5750 2.5650
L3.6250 2.5650
" />
<path d="M2.5750 2.7650
L2.4966 2.7689
" />
<path d="M2.5750 4.8850
L2.5750 5.0850
" />
<path d="M2.5750 4.8850
L3.6250 4.8850
" />
<path d="M2.5750 5.0850
L2.5259 5.0838
" />
<path d="M2.5795 3.2862
L2.5332 3.3215
" />
<path d="M2.5795 3.2862
L2.6055 3.2700
" />
<path d="M2.5795 4.3638
L2.6313 4.3937
" />
<path d="M2.5950 3.2763
L2.5950 3.2762
" />
<path d="M2.5950 4.3738
L2.5950 4.3737
" />
<path d="M2.6055 3.2700
L2.6325 3.2556
" />
<path d="M2.6079 4.3814
L2.5703 4.3575
" />
<path d="M2.6200 3.4600
L2.3800 3.4600
" />
<path d="M2.6200 3.4600
L2.6338 3.4600
" />
<path d="M2.6200 3.4600
L2.6800 3.6100
" />
<path d="M2.6200 4.1900
L2.6338 4.1900
" />
<path d="M2.6200 4.1900
L8.8300 4.1900
" />
<path d="M2.6313 3.2563
L2.5795 3.2862
" />
<path d="M2.6313 4.3937
L2.6594 4.4064
" />
<path d="M2.6325 3.2556
L2.6605 3.2432
" />
<path d="M2.6338 3.4600
L2.6469 3.4600
" />
<path d="M2.6338 4.1900
L2.6469 4.1900
" />
<path d="M2.6469 3.4600
L2.6593 3.4600
" />
<path d="M2.6469 4.1900
L2.6593 4.1900
" />
<path d="M2.6477 4.4014
L2.6079 4.3814
" />
<path d="M2.6593 3.4600
L2.6710 3.4600
" />
<path d="M2.6593 4.1900
L2.6710 4.1900
" />
<path d="M2.6594 3.2436
L2.6313 3.2563
" />
<path d="M2.6594 4.4064
L2.6892 4.4174
" />
<path d="M2.6605 3.2432
L2.6892 3.2326
" />
<path d="M2.6710 3.4600
L2.6817 3.4600
" />
<path d="M2.6710 4.1900
L2.6817 4.1900
" />
<path d="M2.6800 3.6100
L2.6800 4.0400
" />
<path d="M2.6800 4.0400
L2.6200 4.1900
" />
<path d="M2.6800 4.0400
L8.7700 4.0400
" />
<path d="M2.6817 3.4600
L2.6915 3.4600
" />
<path d="M2.6817 4.1900
L2.6915 4.1900
" />
<path d="M2.6892 3.2326
L2.6594 3.2436
" />
<path d="M2.6892 4.4174
L2.6477 4.4014
" />
<path d="M2.6892 4.4174
L2.7208 4.4267
" />
<path d="M2.6915 3.4600
L2.7003 3.4600
" />
<path d="M2.6915 4.1900
L2.7003 4.1900
" />
<path d="M2.7003 3.4600
L2.7080 3.4600
" />
<path d="M2.7003 4.1900
L2.7080 4.1900
" />
<path d="M2.7080 3.4600
L2.7146 3.4600
" />
<path d="M2.7080 4.1900
L2.7146 4.1900
" />
<path d="M2.7146 3.4600
L2.7201 3.4600
" />
<path d="M2.7146 4.1900
L2.7201 4.1900
" />
<path d="M2.7201 3.4600
L2.7244 3.4600
" />
<path d="M2.7201 4.1900
L2.7244 4.1900
" />
<path d="M2.7208 3.2233
L2.6892 3.2326
" />
<path d="M2.7208 4.4267
L2.7545 4.4338
" />
<path d="M2.7244 3.4600
L2.7275 3.4600
" />
<path d="M2.7244 4.1900
L2.7275 4.1900
" />
<path d="M2.7275 3.4600
L2.7294 3.4600
" />
<path d="M2.7275 4.1900
L2.7294 4.1900
" />
<path d="M2.7294 3.4600
L2.7300 3.4600
" />
<path d="M2.7294 4.1900
L2.7300 4.1900
" />
<path d="M2.7545 3.2162
L2.7208 3.2233
" />
<path d="M2.7545 4.4338
L2.7908 4.4384
" />
<path d="M2.7908 3.2116
L2.7545 3.2162
" />
<path d="M2.7908 4.4384
L2.8300 4.4400
" />
<path d="M2.8300 3.2100
L2.7908 3.2116
" />
<path d="M2.8300 3.2100
L8.6200 3.2100
" />
<path d="M2.8300 4.4400
L8.6200 4.4400
" />
<path d="M2.8550 3.4600
L2.7300 3.4600
" />
<path d="M2.8550 3.4600
L5.0950 3.4600
" />
<path d="M2.8550 4.1900
L2.7300 4.1900
" />
<path d="M2.8750 1.2250
L3.0750 1.2250
" />
<path d="M2.8750 1.2450
L2.8750 1.2250
" />
<path d="M2.8750 1.4650
L2.8750 1.2450
" />
<path d="M2.8750 6.4050
L2.8750 6.1850
" />
<path d="M2.8750 6.4050
L2.8750 6.4250
" />
<path d="M2.8750 6.4050
L3.0750 6.4050
" />
<path d="M3.0750 1.2450
L2.8750 1.2450
" />
<path d="M3.0750 1.2450
L3.0750 1.2250
" />
<path d="M3.0750 1.2450
L3.0750 1.4650
" />
<path d="M3.0750 6.1850
L3.0750 6.4050
" />
<path d="M3.0750 6.4050
L3.0750 6.4250
" />
<path d="M3.0750 6.4250
L2.8750 6.4250
" />
<path d="M3.0950 3.4600
L3.3650 3.4600
" />
<path d="M3.1150 1.4650
L2.8650 1.4650
" />
<path d="M3.3650 4.1900
L3.0950 4.1900
" />
<path d="M3.3750 1.2250
L3.5750 1.2250
" />
<path d="M3.3750 1.2450
L3.3750 1.2250
" />
<path d="M3.3750 1.4650
L3.3750 1.2450
" />
<path d="M3.3750 6.4050
L3.3750 6.1850
" />
<path d="M3.3750 6.4050
L3.3750 6.4250
" />
<path d="M3.3750 6.4050
L3.5750 6.4050
" />
<path d="M3.5750 1.2450
L3.3750 1.2450
" />
<path d="M3.5750 1.2450
L3.5750 1.2250
" />
<path d="M3.5750 1.2450
L3.5750 1.4650
" />
<path d="M3.5750 6.1850
L3.5750 6.4050
" />
<path d="M3.5750 6.4050
L3.5750 6.4250
" />
<path d="M3.5750 6.4250
L3.3750 6.4250
" />
<path d="M3.5850 3.4600
L3.8650 3.4600
" />
<path d="M3.5910 2.5463
L3.5750 2.5450
" />
<path d="M3.6066 2.5501
L3.5910 2.5463
" />
<path d="M3.6150 1.4650
L3.3650 1.4650
" />
<path d="M3.6186 2.5550
L2.3675 2.5550
" />
<path d="M3.6214 2.5564
L3.6066 2.5501
" />
<path d="M3.6250 2.5650
L3.6250 2.7650
" />
<path d="M3.6250 2.5650
L3.6350 2.5650
" />
<path d="M3.6250 2.7650
L2.5750 2.7650
" />
<path d="M3.6250 2.9200
L3.6250 2.7650
" />
<path d="M3.6250 2.9200
L5.0250 2.9200
" />
<path d="M3.6250 4.8850
L3.6250 4.7300
" />
<path d="M3.6250 4.8850
L3.7250 4.8436
" />
<path d="M3.6250 5.0850
L2.5750 5.0850
" />
<path d="M3.6250 5.0850
L3.6250 4.8850
" />
<path d="M3.6350 2.5650
L3.6214 2.5564
" />
<path d="M3.6350 2.5650
L4.2150 2.5650
" />
<path d="M3.6615 2.5833
L3.6350 2.5650
" />
<path d="M3.6894 2.5993
L3.6615 2.5833
" />
<path d="M3.7184 2.6131
L3.6894 2.5993
" />
<path d="M3.7250 2.6650
L3.6250 2.5650
" />
<path d="M3.7250 2.6650
L3.7250 2.8064
" />
<path d="M3.7250 2.8064
L3.6250 2.7650
" />
<path d="M3.7250 2.8064
L3.7250 2.9200
" />
<path d="M3.7250 4.7300
L3.7250 4.8436
" />
<path d="M3.7250 4.8436
L3.7250 4.9850
" />
<path d="M3.7250 4.9850
L3.6250 5.0850
" />
<path d="M3.7485 2.6245
L3.7184 2.6131
" />
<path d="M3.7794 2.6334
L3.7485 2.6245
" />
<path d="M3.7885 5.1050
L3.7904 5.1035
" />
<path d="M3.7904 5.1035
L3.8751 4.9713
" />
<path d="M3.8023 5.0850
L3.6250 5.0850
" />
<path d="M3.8109 2.6398
L3.7794 2.6334
" />
<path d="M3.8429 2.6437
L3.8109 2.6398
" />
<path d="M3.8650 4.1900
L3.5850 4.1900
" />
<path d="M3.8663 4.9850
L3.7250 4.9850
" />
<path d="M3.8750 1.2250
L4.0750 1.2250
" />
<path d="M3.8750 1.2450
L3.8750 1.2250
" />
<path d="M3.8750 1.4650
L3.8750 1.2450
" />
<path d="M3.8750 2.6450
L3.8429 2.6437
" />
<path d="M3.8750 2.6450
L3.8763 2.6450
" />
<path d="M3.8750 6.4050
L3.8750 6.1850
" />
<path d="M3.8750 6.4050
L3.8750 6.4250
" />
<path d="M3.8750 6.4050
L4.0750 6.4050
" />
<path d="M3.8751 4.9713
L3.8798 4.9658
" />
<path d="M3.8763 2.6450
L3.8800 2.6450
" />
<path d="M3.8798 4.9658
L3.8845 4.9639
" />
<path d="M3.8800 2.6450
L3.8859 2.6450
" />
<path d="M3.8859 2.6450
L3.8938 2.6450
" />
<path d="M3.8938 2.6450
L3.9033 2.6450
" />
<path d="M3.8965 2.6650
L3.7250 2.6650
" />
<path d="M3.9033 2.6450
L3.9139 2.6450
" />
<path d="M3.9139 2.6450
L3.9250 2.6450
" />
<path d="M3.9249 2.6921
L3.8778 2.6450
" />
<path d="M3.9250 2.6450
L3.9361 2.6450
" />
<path d="M3.9361 2.6450
L3.9467 2.6450
" />
<path d="M3.9467 2.6450
L3.9562 2.6450
" />
<path d="M3.9562 2.6450
L3.9641 2.6450
" />
<path d="M3.9641 2.6450
L3.9700 2.6450
" />
<path d="M3.9700 4.9213
L3.9181 4.9640
" />
<path d="M3.9700 2.6450
L3.9737 2.6450
" />
<path d="M3.9737 2.6450
L3.9750 2.6450
" />
<path d="M3.9750 4.7500
L3.9750 4.7300
" />
<path d="M3.9750 4.7500
L4.6750 4.7500
" />
<path d="M3.9769 2.7337
L3.9249 2.6921
" />
<path d="M4.0071 2.6437
L3.9750 2.6450
" />
<path d="M4.0263 4.8847
L3.9700 4.9213
" />
<path d="M4.0332 2.7693
L3.9769 2.7337
" />
<path d="M4.0391 2.6398
L4.0071 2.6437
" />
<path d="M4.0706 2.6334
L4.0391 2.6398
" />
<path d="M4.0750 1.2450
L3.8750 1.2450
" />
<path d="M4.0750 1.2450
L4.0750 1.2250
" />
<path d="M4.0750 1.2450
L4.0750 1.4650
" />
<path d="M4.0750 6.1850
L4.0750 6.4050
" />
<path d="M4.0750 6.4050
L4.0750 6.4250
" />
<path d="M4.0750 6.4250
L3.8750 6.4250
" />
<path d="M4.0850 3.4600
L4.3550 3.4600
" />
<path d="M4.0863 4.8545
L4.0263 4.8847
" />
<path d="M4.0931 2.7984
L4.0332 2.7693
" />
<path d="M4.1015 2.6245
L4.0706 2.6334
" />
<path d="M4.1150 1.4650
L3.8650 1.4650
" />
<path d="M4.1316 2.6131
L4.1015 2.6245
" />
<path d="M4.1494 4.8313
L4.0863 4.8545
" />
<path d="M4.1559 2.8207
L4.0931 2.7984
" />
<path d="M4.1606 2.5993
L4.1316 2.6131
" />
<path d="M4.1885 2.5833
L4.1606 2.5993
" />
<path d="M4.2146 4.8152
L4.1494 4.8313
" />
<path d="M4.2150 2.5650
L4.1885 2.5833
" />
<path d="M4.2208 2.8359
L4.1559 2.8207
" />
<path d="M4.2286 2.5564
L4.2150 2.5650
" />
<path d="M4.2434 2.5501
L4.2286 2.5564
" />
<path d="M4.2590 2.5463
L4.2434 2.5501
" />
<path d="M4.2750 2.5450
L4.2590 2.5463
" />
<path d="M4.2812 4.8066
L4.2146 4.8152
" />
<path d="M4.2869 2.8438
L4.2208 2.8359
" />
<path d="M4.3484 4.8055
L4.2812 4.8066
" />
<path d="M4.3535 2.8443
L4.2869 2.8438
" />
<path d="M4.3550 4.1900
L4.0850 4.1900
" />
<path d="M4.3750 1.2250
L4.5750 1.2250
" />
<path d="M4.3750 1.2450
L4.3750 1.2250
" />
<path d="M4.3750 1.4650
L4.3750 1.2450
" />
<path d="M4.3750 6.4050
L4.3750 6.1850
" />
<path d="M4.3750 6.4050
L4.3750 6.4250
" />
<path d="M4.3750 6.4050
L4.5750 6.4050
" />
<path d="M4.4153 4.8118
L4.3484 4.8055
" />
<path d="M4.4198 2.8375
L4.3535 2.8443
" />
<path d="M4.4810 4.8256
L4.4153 4.8118
" />
<path d="M4.4849 2.8233
L4.4198 2.8375
" />
<path d="M4.5448 4.8467
L4.4810 4.8256
" />
<path d="M4.5480 2.8020
L4.4849 2.8233
" />
<path d="M4.5655 4.9639
L4.5702 4.9658
" />
<path d="M4.5655 4.9640
L3.8845 4.9640
" />
<path d="M4.5702 4.9658
L4.5749 4.9713
" />
<path d="M4.5749 4.9713
L3.8751 4.9713
" />
<path d="M4.5749 4.9713
L4.6596 5.1035
" />
<path d="M4.5750 1.2450
L4.3750 1.2450
" />
<path d="M4.5750 1.2450
L4.5750 1.2250
" />
<path d="M4.5750 1.2450
L4.5750 1.4650
" />
<path d="M4.5750 6.1850
L4.5750 6.4050
" />
<path d="M4.5750 6.4050
L4.5750 6.4250
" />
<path d="M4.5750 6.4250
L4.3750 6.4250
" />
<path d="M4.5950 3.4600
L4.8550 3.4600
" />
<path d="M4.6058 4.8748
L4.5448 4.8467
" />
<path d="M4.6083 2.7739
L4.5480 2.8020
" />
<path d="M4.6150 1.4650
L4.3650 1.4650
" />
<path d="M4.6596 5.1035
L3.7904 5.1035
" />
<path d="M4.6596 5.1035
L4.6615 5.1050
" />
<path d="M4.6633 4.9095
L4.6058 4.8748
" />
<path d="M4.6652 2.7392
L4.6083 2.7739
" />
<path d="M4.6750 4.7500
L4.6750 4.7300
" />
<path d="M4.7166 4.9504
L4.6633 4.9095
" />
<path d="M4.7179 2.6985
L4.6652 2.7392
" />
<path d="M4.7650 4.9970
L4.7166 4.9504
" />
<path d="M4.7657 2.6521
L4.7179 2.6985
" />
<path d="M4.8078 5.0488
L4.7650 4.9970
" />
<path d="M4.8082 2.6007
L4.7657 2.6521
" />
<path d="M4.8325 2.5650
L5.0250 2.5650
" />
<path d="M4.8387 5.0950
L6.6113 5.0950
" />
<path d="M4.8446 2.5450
L4.8082 2.6007
" />
<path d="M4.8446 5.1050
L4.8078 5.0488
" />
<path d="M4.8550 4.1900
L4.5950 4.1900
" />
<path d="M4.8750 1.2250
L5.0750 1.2250
" />
<path d="M4.8750 1.2450
L4.8750 1.2250
" />
<path d="M4.8750 1.2450
L5.0750 1.2450
" />
<path d="M4.8750 1.4650
L4.8750 1.2450
" />
<path d="M4.8750 6.4050
L4.8750 6.1850
" />
<path d="M4.8750 6.4050
L4.8750 6.4250
" />
<path d="M4.9250 2.6650
L4.7535 2.6650
" />
<path d="M4.9250 2.8064
L4.9250 2.6650
" />
<path d="M4.9250 2.9200
L4.9250 2.8064
" />
<path d="M4.9250 4.8436
L4.9250 4.7300
" />
<path d="M4.9250 4.9850
L4.7535 4.9850
" />
<path d="M4.9250 4.9850
L4.9250 4.8436
" />
<path d="M5.0250 2.5650
L4.9250 2.6650
" />
<path d="M5.0250 2.5650
L6.4250 2.5650
" />
<path d="M5.0250 2.7650
L4.9250 2.8064
" />
<path d="M5.0250 2.7650
L5.0250 2.5650
" />
<path d="M5.0250 2.7650
L5.0250 2.9200
" />
<path d="M5.0250 4.7300
L3.6250 4.7300
" />
<path d="M5.0250 4.7300
L5.0250 4.8850
" />
<path d="M5.0250 4.8850
L4.9250 4.8436
" />
<path d="M5.0250 4.8850
L6.4250 4.8850
" />
<path d="M5.0250 5.0850
L4.8325 5.0850
" />
<path d="M5.0250 5.0850
L4.9250 4.9850
" />
<path d="M5.0250 5.0850
L5.0250 4.8850
" />
<path d="M5.0750 1.2450
L5.0750 1.2250
" />
<path d="M5.0750 1.2450
L5.0750 1.4650
" />
<path d="M5.0750 6.1850
L5.0750 6.4050
" />
<path d="M5.0750 6.4050
L4.8750 6.4050
" />
<path d="M5.0750 6.4050
L5.0750 6.4250
" />
<path d="M5.0750 6.4250
L4.8750 6.4250
" />
<path d="M5.0950 4.1900
L2.8550 4.1900
" />
<path d="M5.1150 1.4650
L4.8650 1.4650
" />
<path d="M5.3650 3.4600
L5.0950 3.4600
" />
<path d="M5.3650 3.4600
L5.5850 3.4600
" />
<path d="M5.3650 4.1900
L5.0950 4.1900
" />
<path d="M5.3750 1.2250
L5.5750 1.2250
" />
<path d="M5.3750 1.2450
L5.3750 1.2250
" />
<path d="M5.3750 1.4650
L5.3750 1.2450
" />
<path d="M5.3750 6.4050
L5.3750 6.1850
" />
<path d="M5.3750 6.4050
L5.3750 6.4250
" />
<path d="M5.3750 6.4050
L5.5750 6.4050
" />
<path d="M5.5750 1.2450
L5.3750 1.2450
" />
<path d="M5.5750 1.2450
L5.5750 1.2250
" />
<path d="M5.5750 1.2450
L5.5750 1.4650
" />
<path d="M5.5750 6.1850
L5.5750 6.4050
" />
<path d="M5.5750 6.4050
L5.5750 6.4250
" />
<path d="M5.5750 6.4250
L5.3750 6.4250
" />
<path d="M5.5850 4.1900
L5.3650 4.1900
" />
<path d="M5.8650 3.4600
L5.5850 3.4600
" />
<path d="M5.8650 3.4600
L6.0850 3.4600
" />
<path d="M5.8650 4.1900
L5.5850 4.1900
" />
<path d="M5.8750 1.2250
L6.0750 1.2250
" />
<path d="M5.8750 1.2450
L5.8750 1.2250
" />
<path d="M5.8750 1.4650
L5.8750 1.2450
" />
<path d="M5.8750 6.4050
L5.8750 6.1850
" />
<path d="M5.8750 6.4050
L5.8750 6.4250
" />
<path d="M5.8750 6.4050
L6.0750 6.4050
" />
<path d="M5.9250 2.1450
L2.5050 2.1450
" />
<path d="M5.9250 2.3450
L5.9250 2.1450
" />
<path d="M5.9250 2.3450
L5.9250 2.5450
" />
<path d="M5.9250 2.5450
L2.5050 2.5450
" />
<path d="M5.9290 2.1450
L5.9250 2.1450
" />
<path d="M5.9290 2.5450
L5.9250 2.5450
" />
<path d="M5.9328 2.1450
L5.9290 2.1450
" />
<path d="M5.9328 2.5450
L5.9290 2.5450
" />
<path d="M5.9363 2.1450
L5.9328 2.1450
" />
<path d="M5.9363 2.5450
L5.9328 2.5450
" />
<path d="M5.9395 2.1450
L5.9363 2.1450
" />
<path d="M5.9395 2.5450
L5.9363 2.5450
" />
<path d="M5.9424 2.1450
L5.9395 2.1450
" />
<path d="M5.9424 2.5450
L5.9395 2.5450
" />
<path d="M5.9450 2.1450
L5.9424 2.1450
" />
<path d="M5.9450 2.5450
L5.9424 2.5450
" />
<path d="M5.9473 2.1450
L5.9450 2.1450
" />
<path d="M5.9473 2.5450
L5.9450 2.5450
" />
<path d="M5.9494 2.1450
L5.9473 2.1450
" />
<path d="M5.9494 2.5450
L5.9473 2.5450
" />
<path d="M5.9511 2.1450
L5.9494 2.1450
" />
<path d="M5.9511 2.5450
L5.9494 2.5450
" />
<path d="M5.9525 2.1450
L5.9511 2.1450
" />
<path d="M5.9525 2.5450
L5.9511 2.5450
" />
<path d="M5.9536 2.1450
L5.9525 2.1450
" />
<path d="M5.9536 2.5450
L5.9525 2.5450
" />
<path d="M5.9544 2.1450
L5.9536 2.1450
" />
<path d="M5.9544 2.5450
L5.9536 2.5450
" />
<path d="M5.9548 2.1450
L5.9544 2.1450
" />
<path d="M5.9548 2.5450
L5.9544 2.5450
" />
<path d="M5.9550 2.1450
L5.9548 2.1450
" />
<path d="M5.9550 2.3450
L5.9550 2.1450
" />
<path d="M5.9550 2.3450
L8.9450 2.3450
" />
<path d="M5.9550 2.5450
L5.9548 2.5450
" />
<path d="M5.9550 2.5450
L5.9550 2.3450
" />
<path d="M6.0750 1.2450
L5.8750 1.2450
" />
<path d="M6.0750 1.2450
L6.0750 1.2250
" />
<path d="M6.0750 1.2450
L6.0750 1.4650
" />
<path d="M6.0750 6.1850
L6.0750 6.4050
" />
<path d="M6.0750 6.4050
L6.0750 6.4250
" />
<path d="M6.0750 6.4250
L5.8750 6.4250
" />
<path d="M6.0850 4.1900
L5.8650 4.1900
" />
<path d="M6.3350 6.1850
L6.5850 6.1850
" />
<path d="M6.3550 3.4600
L6.0850 3.4600
" />
<path d="M6.3550 3.4600
L8.5950 3.4600
" />
<path d="M6.3550 4.1900
L6.0850 4.1900
" />
<path d="M6.3750 1.2250
L6.5750 1.2250
" />
<path d="M6.3750 1.2450
L6.3750 1.2250
" />
<path d="M6.3750 1.2450
L6.5750 1.2450
" />
<path d="M6.3750 1.4650
L6.3750 1.2450
" />
<path d="M6.3750 6.4050
L6.3750 6.1850
" />
<path d="M6.3750 6.4050
L6.3750 6.4250
" />
<path d="M6.4250 2.5650
L6.4250 2.7650
" />
<path d="M6.4250 2.5650
L6.5250 2.6650
" />
<path d="M6.4250 2.5650
L6.6175 2.5650
" />
<path d="M6.4250 2.7650
L5.0250 2.7650
" />
<path d="M6.4250 2.7650
L6.5250 2.8064
" />
<path d="M6.4250 2.9200
L6.4250 2.7650
" />
<path d="M6.4250 2.9200
L7.8250 2.9200
" />
<path d="M6.4250 4.8850
L6.4250 4.7300
" />
<path d="M6.4250 4.8850
L6.5250 4.8436
" />
<path d="M6.4250 5.0850
L5.0250 5.0850
" />
<path d="M6.4250 5.0850
L6.4250 4.8850
" />
<path d="M6.5250 2.6650
L6.5250 2.8064
" />
<path d="M6.5250 2.8064
L6.5250 2.9200
" />
<path d="M6.5250 4.7300
L6.5250 4.8436
" />
<path d="M6.5250 4.8436
L6.5250 4.9850
" />
<path d="M6.5250 4.9850
L6.4250 5.0850
" />
<path d="M6.5250 4.9850
L6.6965 4.9850
" />
<path d="M6.5750 1.2450
L6.5750 1.2250
" />
<path d="M6.5750 1.2450
L6.5750 1.4650
" />
<path d="M6.5750 6.1850
L6.5750 6.4050
" />
<path d="M6.5750 6.4050
L6.3750 6.4050
" />
<path d="M6.5750 6.4050
L6.5750 6.4250
" />
<path d="M6.5750 6.4250
L6.3750 6.4250
" />
<path d="M6.5950 3.4600
L6.8550 3.4600
" />
<path d="M6.6054 2.5450
L6.6418 2.6007
" />
<path d="M6.6054 5.1050
L6.6422 5.0488
" />
<path d="M6.6113 2.5550
L4.8387 2.5550
" />
<path d="M6.6175 5.0850
L6.4250 5.0850
" />
<path d="M6.6418 2.6007
L6.6843 2.6521
" />
<path d="M6.6422 5.0488
L6.6850 4.9970
" />
<path d="M6.6843 2.6521
L6.7321 2.6985
" />
<path d="M6.6850 4.9970
L6.7334 4.9504
" />
<path d="M6.6965 2.6650
L6.5250 2.6650
" />
<path d="M6.7321 2.6985
L6.7848 2.7392
" />
<path d="M6.7334 4.9504
L6.7867 4.9095
" />
<path d="M6.7848 2.7392
L6.8417 2.7739
" />
<path d="M6.7867 4.9095
L6.8442 4.8748
" />
<path d="M6.7904 5.1035
L6.7885 5.1050
" />
<path d="M6.8350 6.1850
L7.0850 6.1850
" />
<path d="M6.8417 2.7739
L6.9020 2.8020
" />
<path d="M6.8442 4.8748
L6.9052 4.8467
" />
<path d="M6.8550 4.1900
L6.5950 4.1900
" />
<path d="M6.8750 1.2250
L7.0750 1.2250
" />
<path d="M6.8750 1.2450
L6.8750 1.2250
" />
<path d="M6.8750 1.4650
L6.8750 1.2450
" />
<path d="M6.8750 6.4050
L6.8750 6.1850
" />
<path d="M6.8750 6.4050
L6.8750 6.4250
" />
<path d="M6.8750 6.4050
L7.0750 6.4050
" />
<path d="M6.8751 4.9713
L6.7904 5.1035
" />
<path d="M6.8751 4.9713
L6.8798 4.9658
" />
<path d="M6.8798 4.9658
L6.8845 4.9639
" />
<path d="M6.9020 2.8020
L6.9651 2.8233
" />
<path d="M6.9052 4.8467
L6.9690 4.8256
" />
<path d="M6.9651 2.8233
L7.0302 2.8375
" />
<path d="M6.9690 4.8256
L7.0347 4.8118
" />
<path d="M7.0302 2.8375
L7.0965 2.8443
" />
<path d="M7.0347 4.8118
L7.1016 4.8055
" />
<path d="M7.0750 1.2450
L6.8750 1.2450
" />
<path d="M7.0750 1.2450
L7.0750 1.2250
" />
<path d="M7.0750 1.2450
L7.0750 1.4650
" />
<path d="M7.0750 6.1850
L7.0750 6.4050
" />
<path d="M7.0750 6.4050
L7.0750 6.4250
" />
<path d="M7.0750 6.4250
L6.8750 6.4250
" />
<path d="M7.0950 3.4600
L7.3650 3.4600
" />
<path d="M7.0965 2.8443
L7.1631 2.8438
" />
<path d="M7.1016 4.8055
L7.1688 4.8066
" />
<path d="M7.1631 2.8438
L7.2292 2.8359
" />
<path d="M7.1688 4.8066
L7.2354 4.8152
" />
<path d="M7.1750 2.5450
L7.1910 2.5463
" />
<path d="M7.1910 2.5463
L7.2066 2.5501
" />
<path d="M7.2066 2.5501
L7.2214 2.5564
" />
<path d="M7.2214 2.5564
L7.2350 2.5650
" />
<path d="M7.2292 2.8359
L7.2941 2.8207
" />
<path d="M7.2350 2.5650
L7.8150 2.5650
" />
<path d="M7.2354 4.8152
L7.3006 4.8313
" />
<path d="M7.2615 2.5833
L7.2350 2.5650
" />
<path d="M7.2894 2.5993
L7.2615 2.5833
" />
<path d="M7.2941 2.8207
L7.3569 2.7984
" />
<path d="M7.3006 4.8313
L7.3637 4.8545
" />
<path d="M7.3184 2.6131
L7.2894 2.5993
" />
<path d="M7.3350 6.1850
L7.5850 6.1850
" />
<path d="M7.3485 2.6245
L7.3184 2.6131
" />
<path d="M7.3569 2.7984
L7.4168 2.7693
" />
<path d="M7.3637 4.8545
L7.4237 4.8847
" />
<path d="M7.3650 4.1900
L7.0950 4.1900
" />
<path d="M7.3750 1.2250
L7.5750 1.2250
" />
<path d="M7.3750 1.2450
L7.3750 1.2250
" />
<path d="M7.3750 1.4650
L7.3750 1.2450
" />
<path d="M7.3750 6.4050
L7.3750 6.1850
" />
<path d="M7.3750 6.4050
L7.3750 6.4250
" />
<path d="M7.3750 6.4050
L7.5750 6.4050
" />
<path d="M7.3794 2.6334
L7.3485 2.6245
" />
<path d="M7.4109 2.6398
L7.3794 2.6334
" />
<path d="M7.4168 2.7693
L7.4731 2.7337
" />
<path d="M7.4237 4.8847
L7.4800 4.9213
" />
<path d="M7.4429 2.6437
L7.4109 2.6398
" />
<path d="M7.4731 2.7337
L7.5251 2.6921
" />
<path d="M7.4750 2.6450
L7.4429 2.6437
" />
<path d="M7.4750 2.6450
L7.4763 2.6450
" />
<path d="M7.4763 2.6450
L7.4800 2.6450
" />
<path d="M7.4800 2.6450
L7.4859 2.6450
" />
<path d="M7.4800 4.9213
L7.5319 4.9640
" />
<path d="M7.4859 2.6450
L7.4938 2.6450
" />
<path d="M7.4938 2.6450
L7.5033 2.6450
" />
<path d="M7.5033 2.6450
L7.5139 2.6450
" />
<path d="M7.5139 2.6450
L7.5250 2.6450
" />
<path d="M7.5250 2.6450
L7.5361 2.6450
" />
<path d="M7.5251 2.6921
L7.5722 2.6450
" />
<path d="M7.5361 2.6450
L7.5467 2.6450
" />
<path d="M7.5467 2.6450
L7.5562 2.6450
" />
<path d="M7.5562 2.6450
L7.5641 2.6450
" />
<path d="M7.5641 2.6450
L7.5700 2.6450
" />
<path d="M7.5655 4.9639
L7.5702 4.9658
" />
<path d="M7.5655 4.9640
L6.8845 4.9640
" />
<path d="M7.5700 2.6450
L7.5737 2.6450
" />
<path d="M7.5702 4.9658
L7.5749 4.9713
" />
<path d="M7.5737 2.6450
L7.5750 2.6450
" />
<path d="M7.5749 4.9713
L6.8751 4.9713
" />
<path d="M7.5749 4.9713
L7.6596 5.1035
" />
<path d="M7.5750 1.2450
L7.3750 1.2450
" />
<path d="M7.5750 1.2450
L7.5750 1.2250
" />
<path d="M7.5750 1.2450
L7.5750 1.4650
" />
<path d="M7.5750 6.1850
L7.5750 6.4050
" />
<path d="M7.5750 6.4050
L7.5750 6.4250
" />
<path d="M7.5750 6.4250
L7.3750 6.4250
" />
<path d="M7.5836 4.9850
L7.7250 4.9850
" />
<path d="M7.5850 3.4600
L7.8650 3.4600
" />
<path d="M7.6071 2.6437
L7.5750 2.6450
" />
<path d="M7.6325 2.5650
L7.8250 2.5650
" />
<path d="M7.6391 2.6398
L7.6071 2.6437
" />
<path d="M7.6541 5.0950
L9.0825 5.0950
" />
<path d="M7.6596 5.1035
L6.7904 5.1035
" />
<path d="M7.6596 5.1035
L7.6615 5.1050
" />
<path d="M7.6706 2.6334
L7.6391 2.6398
" />
<path d="M7.7015 2.6245
L7.6706 2.6334
" />
<path d="M7.7250 2.6650
L7.5535 2.6650
" />
<path d="M7.7250 2.6650
L7.8250 2.5650
" />
<path d="M7.7250 2.8064
L7.7250 2.6650
" />
<path d="M7.7250 2.9200
L7.7250 2.8064
" />
<path d="M7.7250 4.8436
L7.7250 4.7300
" />
<path d="M7.7250 4.9850
L7.7250 4.8436
" />
<path d="M7.7316 2.6131
L7.7015 2.6245
" />
<path d="M7.7606 2.5993
L7.7316 2.6131
" />
<path d="M7.7885 2.5833
L7.7606 2.5993
" />
<path d="M7.8150 2.5650
L7.7885 2.5833
" />
<path d="M7.8150 2.5650
L7.8286 2.5564
" />
<path d="M7.8250 2.5650
L7.8250 2.7650
" />
<path d="M7.8250 2.5650
L8.8750 2.5650
" />
<path d="M7.8250 2.7650
L7.7250 2.8064
" />
<path d="M7.8250 2.7650
L7.8250 2.9200
" />
<path d="M7.8250 4.7300
L6.4250 4.7300
" />
<path d="M7.8250 4.7300
L7.8250 4.8850
" />
<path d="M7.8250 4.8850
L7.7250 4.8436
" />
<path d="M7.8250 4.8850
L8.8750 4.8850
" />
<path d="M7.8250 5.0850
L7.6477 5.0850
" />
<path d="M7.8250 5.0850
L7.7250 4.9850
" />
<path d="M7.8250 5.0850
L7.8250 4.8850
" />
<path d="M7.8286 2.5564
L7.8434 2.5501
" />
<path d="M7.8350 6.1850
L8.0850 6.1850
" />
<path d="M7.8434 2.5501
L7.8590 2.5463
" />
<path d="M7.8590 2.5463
L7.8750 2.5450
" />
<path d="M7.8650 4.1900
L7.5850 4.1900
" />
<path d="M7.8750 1.2250
L8.0750 1.2250
" />
<path d="M7.8750 1.2450
L7.8750 1.2250
" />
<path d="M7.8750 1.4650
L7.8750 1.2450
" />
<path d="M7.8750 6.4050
L7.8750 6.1850
" />
<path d="M7.8750 6.4050
L7.8750 6.4250
" />
<path d="M7.8750 6.4050
L8.0750 6.4050
" />
<path d="M8.0750 1.2450
L7.8750 1.2450
" />
<path d="M8.0750 1.2450
L8.0750 1.2250
" />
<path d="M8.0750 1.2450
L8.0750 1.4650
" />
<path d="M8.0750 6.1850
L8.0750 6.4050
" />
<path d="M8.0750 6.4050
L8.0750 6.4250
" />
<path d="M8.0750 6.4250
L7.8750 6.4250
" />
<path d="M8.0850 3.4600
L8.3550 3.4600
" />
<path d="M8.3350 6.1850
L8.5850 6.1850
" />
<path d="M8.3550 4.1900
L8.0850 4.1900
" />
<path d="M8.3750 1.2250
L8.5750 1.2250
" />
<path d="M8.3750 1.2450
L8.3750 1.2250
" />
<path d="M8.3750 1.4650
L8.3750 1.2450
" />
<path d="M8.3750 6.4050
L8.3750 6.1850
" />
<path d="M8.3750 6.4050
L8.3750 6.4250
" />
<path d="M8.3750 6.4050
L8.5750 6.4050
" />
<path d="M8.5750 1.2450
L8.3750 1.2450
" />
<path d="M8.5750 1.2450
L8.5750 1.2250
" />
<path d="M8.5750 1.2450
L8.5750 1.4650
" />
<path d="M8.5750 6.1850
L8.5750 6.4050
" />
<path d="M8.5750 6.4050
L8.5750 6.4250
" />
<path d="M8.5750 6.4250
L8.3750 6.4250
" />
<path d="M8.5950 4.1900
L6.3550 4.1900
" />
<path d="M8.6200 4.4400
L8.6592 4.4384
" />
<path d="M8.6592 3.2116
L8.6200 3.2100
" />
<path d="M8.6592 4.4384
L8.6955 4.4338
" />
<path d="M8.6955 3.2162
L8.6592 3.2116
" />
<path d="M8.6955 4.4338
L8.7292 4.4267
" />
<path d="M8.7200 3.4600
L8.5950 3.4600
" />
<path d="M8.7200 3.4600
L8.7206 3.4600
" />
<path d="M8.7200 4.1900
L8.5950 4.1900
" />
<path d="M8.7200 4.1900
L8.7206 4.1900
" />
<path d="M8.7206 3.4600
L8.7225 3.4600
" />
<path d="M8.7206 4.1900
L8.7225 4.1900
" />
<path d="M8.7225 3.4600
L8.7256 3.4600
" />
<path d="M8.7225 4.1900
L8.7256 4.1900
" />
<path d="M8.7256 3.4600
L8.7299 3.4600
" />
<path d="M8.7256 4.1900
L8.7299 4.1900
" />
<path d="M8.7292 3.2233
L8.6955 3.2162
" />
<path d="M8.7292 4.4267
L8.7608 4.4174
" />
<path d="M8.7299 3.4600
L8.7354 3.4600
" />
<path d="M8.7299 4.1900
L8.7354 4.1900
" />
<path d="M8.7354 3.4600
L8.7420 3.4600
" />
<path d="M8.7354 4.1900
L8.7420 4.1900
" />
<path d="M8.7420 3.4600
L8.7497 3.4600
" />
<path d="M8.7420 4.1900
L8.7497 4.1900
" />
<path d="M8.7497 3.4600
L8.7585 3.4600
" />
<path d="M8.7497 4.1900
L8.7585 4.1900
" />
<path d="M8.7585 3.4600
L8.7683 3.4600
" />
<path d="M8.7585 4.1900
L8.7683 4.1900
" />
<path d="M8.7608 3.2326
L8.7292 3.2233
" />
<path d="M8.7608 3.2326
L8.7895 3.2432
" />
<path d="M8.7608 4.4174
L8.7906 4.4064
" />
<path d="M8.7683 3.4600
L8.7790 3.4600
" />
<path d="M8.7683 4.1900
L8.7790 4.1900
" />
<path d="M8.7700 3.6100
L2.6800 3.6100
" />
<path d="M8.7700 3.6100
L8.8300 3.4600
" />
<path d="M8.7700 4.0400
L8.7700 3.6100
" />
<path d="M8.7790 3.4600
L8.7907 3.4600
" />
<path d="M8.7790 4.1900
L8.7907 4.1900
" />
<path d="M8.7895 3.2432
L8.8175 3.2556
" />
<path d="M8.7906 3.2436
L8.7608 3.2326
" />
<path d="M8.7906 4.4064
L8.8187 4.3937
" />
<path d="M8.7907 3.4600
L8.8031 3.4600
" />
<path d="M8.7907 4.1900
L8.8031 4.1900
" />
<path d="M8.8023 4.4014
L8.7608 4.4174
" />
<path d="M8.8031 3.4600
L8.8162 3.4600
" />
<path d="M8.8031 4.1900
L8.8162 4.1900
" />
<path d="M8.8162 3.4600
L8.8300 3.4600
" />
<path d="M8.8162 4.1900
L8.8300 4.1900
" />
<path d="M8.8175 3.2556
L8.8445 3.2700
" />
<path d="M8.8187 3.2563
L8.7906 3.2436
" />
<path d="M8.8187 4.3937
L8.8705 4.3638
" />
<path d="M8.8300 3.4600
L2.6200 3.4600
" />
<path d="M8.8300 4.1900
L8.7700 4.0400
" />
<path d="M8.8300 4.1900
L9.0700 4.1900
" />
<path d="M8.8421 4.3814
L8.8023 4.4014
" />
<path d="M8.8445 3.2700
L8.8705 3.2862
" />
<path d="M8.8550 3.2762
L8.8550 3.2763
" />
<path d="M8.8550 4.3737
L8.8550 4.3738
" />
<path d="M8.8705 3.2862
L8.8187 3.2563
" />
<path d="M8.8705 4.3638
L8.9168 4.3285
" />
<path d="M8.8750 2.5650
L8.9241 2.5662
" />
<path d="M8.8750 2.7650
L7.8250 2.7650
" />
<path d="M8.8750 2.7650
L8.8750 2.5650
" />
<path d="M8.8750 4.8850
L8.9534 4.8811
" />
<path d="M8.8750 5.0850
L7.8250 5.0850
" />
<path d="M8.8750 5.0850
L8.8750 4.8850
" />
<path d="M8.8797 4.3575
L8.8421 4.3814
" />
<path d="M8.9148 4.3300
L8.8797 4.3575
" />
<path d="M8.9168 3.3215
L8.8705 3.2862
" />
<path d="M8.9168 4.3285
L8.9578 4.2879
" />
<path d="M8.9241 2.5662
L8.9730 2.5698
" />
<path d="M8.9241 5.0838
L8.8750 5.0850
" />
<path d="M8.9250 2.1450
L10.0750 2.1450
" />
<path d="M8.9265 3.7500
L8.9265 3.9000
" />
<path d="M8.9265 3.7500
L8.9265 3.9000
" />
<path d="M8.9265 3.7500
L8.9295 3.7500
" />
<path d="M8.9265 3.9000
L8.9295 3.9000
" />
<path d="M8.9295 3.7500
L8.9325 3.7500
" />
<path d="M8.9295 3.9000
L8.9325 3.9000
" />
<path d="M8.9325 3.7500
L8.9356 3.7500
" />
<path d="M8.9325 3.9000
L8.9356 3.9000
" />
<path d="M8.9356 3.7500
L8.9387 3.7500
" />
<path d="M8.9356 3.9000
L8.9387 3.9000
" />
<path d="M8.9387 3.7500
L8.9418 3.7500
" />
<path d="M8.9387 3.9000
L8.9418 3.9000
" />
<path d="M8.9418 3.7500
L8.9449 3.7500
" />
<path d="M8.9418 3.9000
L8.9449 3.9000
" />
<path d="M8.9449 3.7500
L8.9480 3.7500
" />
<path d="M8.9449 3.9000
L8.9480 3.9000
" />
<path d="M8.9450 2.1450
L5.9550 2.1450
" />
<path d="M8.9450 2.3450
L8.9450 2.5450
" />
<path d="M8.9450 2.3450
L9.0014 2.3464
" />
<path d="M8.9450 2.5450
L5.9550 2.5450
" />
<path d="M8.9450 2.5450
L8.9916 2.5461
" />
<path d="M8.9450 5.1050
L8.9450 5.3050
" />
<path d="M8.9450 5.3050
L2.5050 5.3050
" />
<path d="M8.9450 5.5050
L9.0459 5.5012
" />
<path d="M8.9469 4.2992
L8.9148 4.3300
" />
<path d="M8.9480 3.7500
L8.9511 3.7500
" />
<path d="M8.9480 3.9000
L8.9511 3.9000
" />
<path d="M8.9511 3.7500
L8.9543 3.7500
" />
<path d="M8.9511 3.9000
L8.9543 3.9000
" />
<path d="M8.9534 2.7689
L8.8750 2.7650
" />
<path d="M8.9534 4.8811
L9.0311 4.8696
" />
<path d="M8.9543 3.7500
L8.9574 3.7500
" />
<path d="M8.9543 3.9000
L8.9574 3.9000
" />
<path d="M8.9574 3.7500
L8.9605 3.7500
" />
<path d="M8.9574 3.9000
L8.9605 3.9000
" />
<path d="M8.9578 3.3621
L8.9168 3.3215
" />
<path d="M8.9578 4.2879
L8.9932 4.2417
" />
<path d="M8.9605 3.7500
L8.9637 3.7500
" />
<path d="M8.9605 3.9000
L8.9637 3.9000
" />
<path d="M8.9637 3.7500
L8.9668 3.7500
" />
<path d="M8.9637 3.9000
L8.9668 3.9000
" />
<path d="M8.9668 3.7500
L8.9700 3.7500
" />
<path d="M8.9668 3.9000
L8.9700 3.9000
" />
<path d="M8.9730 2.5698
L9.0217 2.5758
" />
<path d="M8.9730 5.0802
L8.9241 5.0838
" />
<path d="M8.9759 4.2654
L8.9469 4.2992
" />
<path d="M8.9916 2.5461
L9.0381 2.5496
" />
<path d="M8.9916 5.1039
L8.9450 5.1050
" />
<path d="M8.9932 3.4083
L8.9578 3.3621
" />
<path d="M8.9932 4.2417
L9.0231 4.1900
" />
<path d="M9.0014 4.2289
L8.9759 4.2654
" />
<path d="M9.0014 2.3464
L9.0577 2.3505
" />
<path d="M9.0014 5.3036
L8.9450 5.3050
" />
<path d="M9.0217 2.5758
L9.0701 2.5842
" />
<path d="M9.0217 5.0742
L8.9730 5.0802
" />
<path d="M9.0231 3.4600
L8.9932 3.4083
" />
<path d="M9.0231 4.1900
L9.0014 4.2289
" />
<path d="M9.0311 2.7804
L8.9534 2.7689
" />
<path d="M9.0311 4.8696
L9.1072 4.8506
" />
<path d="M9.0381 2.5496
L9.0844 2.5553
" />
<path d="M9.0381 5.1004
L8.9916 5.1039
" />
<path d="M9.0459 2.1488
L8.9450 2.1450
" />
<path d="M9.0459 5.5012
L9.1462 5.4899
" />
<path d="M9.0557 3.9000
L9.0566 3.7500
" />
<path d="M9.0557 3.9000
L9.0575 3.9000
" />
<path d="M9.0575 3.9000
L9.0566 3.7500
" />
<path d="M9.0577 2.3505
L9.1137 2.3574
" />
<path d="M9.0577 5.2995
L9.0014 5.3036
" />
<path d="M9.0700 3.4600
L8.8300 3.4600
" />
<path d="M9.0700 4.1900
L9.0700 3.4600
" />
<path d="M9.0701 2.5842
L9.1180 2.5950
" />
<path d="M9.0701 5.0658
L9.0217 5.0742
" />
<path d="M9.0825 2.5550
L7.8314 2.5550
" />
<path d="M9.0844 2.5553
L9.1303 2.5633
" />
<path d="M9.0844 5.0947
L9.0381 5.1004
" />
<path d="M9.1072 2.7994
L9.0311 2.7804
" />
<path d="M9.1072 4.8506
L9.1811 4.8241
" />
<path d="M9.1137 2.3574
L9.1694 2.3671
" />
<path d="M9.1137 5.2926
L9.0577 5.2995
" />
<path d="M9.1180 2.5950
L9.1653 2.6081
" />
<path d="M9.1180 5.0550
L9.0701 5.0658
" />
<path d="M9.1303 2.5633
L9.1758 2.5735
" />
<path d="M9.1303 5.0867
L9.0844 5.0947
" />
<path d="M9.1462 2.1601
L9.0459 2.1488
" />
<path d="M9.1462 5.4899
L9.2454 5.4712
" />
<path d="M9.1653 2.6081
L9.2119 2.6235
" />
<path d="M9.1653 5.0419
L9.1180 5.0550
" />
<path d="M9.1694 2.3671
L9.2244 2.3795
" />
<path d="M9.1694 5.2829
L9.1137 5.2926
" />
<path d="M9.1758 2.5735
L9.2208 2.5859
" />
<path d="M9.1758 5.0765
L9.1303 5.0867
" />
<path d="M9.1811 2.8259
L9.1072 2.7994
" />
<path d="M9.1811 4.8241
L9.2521 4.7905
" />
<path d="M9.2119 2.6235
L9.2577 2.6411
" />
<path d="M9.2119 5.0265
L9.1653 5.0419
" />
<path d="M9.2208 2.5859
L9.2650 2.6005
" />
<path d="M9.2208 5.0641
L9.1758 5.0765
" />
<path d="M9.2244 2.3795
L9.2788 2.3945
" />
<path d="M9.2244 5.2705
L9.1694 5.2829
" />
<path d="M9.2250 1.0650
L9.3250 0.9650
" />
<path d="M9.2250 1.2650
L9.2250 1.0650
" />
<path d="M9.2250 1.2650
L9.2250 1.4650
" />
<path d="M9.2250 1.2650
L9.3250 1.1650
" />
<path d="M9.2250 1.4650
L2.2250 1.4650
" />
<path d="M9.2250 6.3850
L9.2250 6.1850
" />
<path d="M9.2250 6.5850
L9.2250 6.3850
" />
<path d="M9.2250 6.5850
L9.3250 6.6850
" />
<path d="M9.2454 2.1788
L9.1462 2.1601
" />
<path d="M9.2454 5.4712
L9.3429 5.4450
" />
<path d="M9.2521 2.8595
L9.1811 2.8259
" />
<path d="M9.2521 4.7905
L9.3195 4.7502
" />
<path d="M9.2577 2.6411
L9.3026 2.6610
" />
<path d="M9.2577 5.0089
L9.2119 5.0265
" />
<path d="M9.2650 2.6005
L9.3085 2.6173
" />
<path d="M9.2650 5.0495
L9.2208 5.0641
" />
<path d="M9.2788 2.3945
L9.3324 2.4122
" />
<path d="M9.2788 5.2555
L9.2244 5.2705
" />
<path d="M9.3026 2.6610
L9.3464 2.6831
" />
<path d="M9.3026 4.9890
L9.2577 5.0089
" />
<path d="M9.3085 2.6173
L9.3512 2.6362
" />
<path d="M9.3085 5.0327
L9.2650 5.0495
" />
<path d="M9.3195 2.8998
L9.2521 2.8595
" />
<path d="M9.3195 4.7502
L9.3825 4.7034
" />
<path d="M9.3250 0.9650
L9.3250 1.1650
" />
<path d="M9.3250 0.9650
L9.3750 0.9650
" />
<path d="M9.3250 1.1650
L9.3750 1.1650
" />
<path d="M9.3250 6.4850
L9.2250 6.3850
" />
<path d="M9.3250 6.4850
L9.3750 6.4850
" />
<path d="M9.3250 6.6850
L9.3250 6.4850
" />
<path d="M9.3324 2.4122
L9.3851 2.4325
" />
<path d="M9.3324 5.2378
L9.2788 5.2555
" />
<path d="M9.3429 2.2050
L9.2454 2.1788
" />
<path d="M9.3429 5.4450
L9.4382 5.4117
" />
<path d="M9.3464 2.6831
L9.3891 2.7073
" />
<path d="M9.3464 4.9669
L9.3026 4.9890
" />
<path d="M9.3512 2.6362
L9.3928 2.6572
" />
<path d="M9.3512 5.0138
L9.3085 5.0327
" />
<path d="M9.3750 0.5550
L10.2750 0.5550
" />
<path d="M9.3750 0.5600
L9.3750 0.5550
" />
<path d="M9.3750 0.5751
L9.3750 0.5600
" />
<path d="M9.3750 0.5999
L9.3750 0.5751
" />
<path d="M9.3750 0.6342
L9.3750 0.5999
" />
<path d="M9.3750 0.6776
L9.3750 0.6342
" />
<path d="M9.3750 0.7295
L9.3750 0.6776
" />
<path d="M9.3750 0.7893
L9.3750 0.7295
" />
<path d="M9.3750 0.8562
L9.3750 0.7893
" />
<path d="M9.3750 0.9294
L9.3750 0.8562
" />
<path d="M9.3750 1.0079
L9.3750 0.9294
" />
<path d="M9.3750 1.0908
L9.3750 1.0079
" />
<path d="M9.3750 1.1770
L9.3750 1.0908
" />
<path d="M9.3750 1.2650
L9.2250 1.2650
" />
<path d="M9.3750 1.2654
L9.3750 1.1770
" />
<path d="M9.3750 1.3550
L9.3750 1.2654
" />
<path d="M9.3750 1.3550
L9.3750 1.7450
" />
<path d="M9.3750 1.7898
L9.3750 1.7450
" />
<path d="M9.3750 1.8340
L9.3750 1.7898
" />
<path d="M9.3750 1.8771
L9.3750 1.8340
" />
<path d="M9.3750 1.9186
L9.3750 1.8771
" />
<path d="M9.3750 1.9578
L9.3750 1.9186
" />
<path d="M9.3750 1.9944
L9.3750 1.9578
" />
<path d="M9.3750 2.0278
L9.3750 1.9944
" />
<path d="M9.3750 2.0577
L9.3750 2.0278
" />
<path d="M9.3750 2.0837
L9.3750 2.0577
" />
<path d="M9.3750 2.1054
L9.3750 2.0837
" />
<path d="M9.3750 2.1226
L9.3750 2.1054
" />
<path d="M9.3750 2.1350
L9.3750 2.1226
" />
<path d="M9.3750 2.1425
L9.3750 2.1350
" />
<path d="M9.3750 2.1450
L9.3750 2.1425
" />
<path d="M9.3750 5.5075
L9.3750 5.5050
" />
<path d="M9.3750 5.5150
L9.3750 5.5075
" />
<path d="M9.3750 5.5274
L9.3750 5.5150
" />
<path d="M9.3750 5.5446
L9.3750 5.5274
" />
<path d="M9.3750 5.5663
L9.3750 5.5446
" />
<path d="M9.3750 5.5923
L9.3750 5.5663
" />
<path d="M9.3750 5.6222
L9.3750 5.5923
" />
<path d="M9.3750 5.6556
L9.3750 5.6222
" />
<path d="M9.3750 5.6922
L9.3750 5.6556
" />
<path d="M9.3750 5.7314
L9.3750 5.6922
" />
<path d="M9.3750 5.7729
L9.3750 5.7314
" />
<path d="M9.3750 5.8160
L9.3750 5.7729
" />
<path d="M9.3750 5.8602
L9.3750 5.8160
" />
<path d="M9.3750 5.9050
L9.3750 5.8602
" />
<path d="M9.3750 5.9050
L9.3750 6.2950
" />
<path d="M9.3750 5.9050
L10.2750 5.9050
" />
<path d="M9.3750 6.2950
L10.2750 6.2950
" />
<path d="M9.3750 6.3846
L9.3750 6.2950
" />
<path d="M9.3750 6.3850
L9.2250 6.3850
" />
<path d="M9.3750 6.4730
L9.3750 6.3846
" />
<path d="M9.3750 6.5592
L9.3750 6.4730
" />
<path d="M9.3750 6.6421
L9.3750 6.5592
" />
<path d="M9.3750 6.6850
L9.3250 6.6850
" />
<path d="M9.3750 6.7206
L9.3750 6.6421
" />
<path d="M9.3750 6.7938
L9.3750 6.7206
" />
<path d="M9.3750 6.8607
L9.3750 6.7938
" />
<path d="M9.3750 6.9205
L9.3750 6.8607
" />
<path d="M9.3750 6.9724
L9.3750 6.9205
" />
<path d="M9.3750 7.0158
L9.3750 6.9724
" />
<path d="M9.3750 7.0501
L9.3750 7.0158
" />
<path d="M9.3750 7.0749
L9.3750 7.0501
" />
<path d="M9.3750 7.0900
L9.3750 7.0749
" />
<path d="M9.3750 7.0950
L9.3750 7.0900
" />
<path d="M9.3750 0.9550
L9.3750 0.9550
" />
<path d="M9.3751 0.9550
L9.3750 0.9550
" />
<path d="M9.3753 0.9550
L9.3751 0.9550
" />
<path d="M9.3755 0.9550
L9.3753 0.9550
" />
<path d="M9.3758 0.9550
L9.3755 0.9550
" />
<path d="M9.3761 0.9550
L9.3758 0.9550
" />
<path d="M9.3765 0.9550
L9.3761 0.9550
" />
<path d="M9.3770 0.9550
L9.3765 0.9550
" />
<path d="M9.3775 0.9550
L9.3770 0.9550
" />
<path d="M9.3781 0.9550
L9.3775 0.9550
" />
<path d="M9.3787 0.9550
L9.3781 0.9550
" />
<path d="M9.3794 0.9550
L9.3787 0.9550
" />
<path d="M9.3802 0.9550
L9.3794 0.9550
" />
<path d="M9.3810 0.9550
L9.3802 0.9550
" />
<path d="M9.3825 2.9466
L9.3195 2.8998
" />
<path d="M9.3825 4.7034
L9.4407 4.6507
" />
<path d="M9.3851 2.4325
L9.4367 2.4554
" />
<path d="M9.3851 5.2175
L9.3324 5.2378
" />
<path d="M9.3891 2.7073
L9.4306 2.7335
" />
<path d="M9.3891 4.9427
L9.3464 4.9669
" />
<path d="M9.3928 2.6572
L9.4334 2.6802
" />
<path d="M9.3928 4.9928
L9.3512 5.0138
" />
<path d="M9.4306 2.7335
L9.4707 2.7618
" />
<path d="M9.4306 4.9165
L9.3891 4.9427
" />
<path d="M9.4334 2.6802
L9.4728 2.7051
" />
<path d="M9.4334 4.9698
L9.3928 4.9928
" />
<path d="M9.4367 2.4554
L9.4871 2.4808
" />
<path d="M9.4367 5.1946
L9.3851 5.2175
" />
<path d="M9.4382 2.2383
L9.3429 2.2050
" />
<path d="M9.4382 5.4117
L9.5307 5.3713
" />
<path d="M9.4407 2.9993
L9.3825 2.9466
" />
<path d="M9.4407 4.6507
L9.4934 4.5925
" />
<path d="M9.4707 2.7618
L9.5094 2.7920
" />
<path d="M9.4707 4.8882
L9.4306 4.9165
" />
<path d="M9.4728 2.7051
L9.5109 2.7320
" />
<path d="M9.4728 4.9449
L9.4334 4.9698
" />
<path d="M9.4871 2.4808
L9.5362 2.5086
" />
<path d="M9.4871 5.1692
L9.4367 5.1946
" />
<path d="M9.4934 3.0575
L9.4407 2.9993
" />
<path d="M9.4934 4.5925
L9.5402 4.5295
" />
<path d="M9.5094 2.7920
L9.5466 2.8240
" />
<path d="M9.5094 4.8580
L9.4707 4.8882
" />
<path d="M9.5109 2.7320
L9.5477 2.7606
" />
<path d="M9.5109 4.9180
L9.4728 4.9449
" />
<path d="M9.5307 2.2787
L9.4382 2.2383
" />
<path d="M9.5307 5.3713
L9.6200 5.3241
" />
<path d="M9.5362 2.5086
L9.5839 2.5388
" />
<path d="M9.5362 5.1414
L9.4871 5.1692
" />
<path d="M9.5402 3.1205
L9.4934 3.0575
" />
<path d="M9.5402 4.5295
L9.5805 4.4621
" />
<path d="M9.5466 2.8240
L9.5821 2.8579
" />
<path d="M9.5466 4.8260
L9.5094 4.8580
" />
<path d="M9.5477 2.7606
L9.5830 2.7911
" />
<path d="M9.5477 4.8894
L9.5109 4.9180
" />
<path d="M9.5805 3.1879
L9.5402 3.1205
" />
<path d="M9.5805 4.4621
L9.6141 4.3911
" />
<path d="M9.5821 2.8579
L9.6160 2.8934
" />
<path d="M9.5821 4.7921
L9.5466 4.8260
" />
<path d="M9.5830 2.7911
L9.6168 2.8232
" />
<path d="M9.5830 4.8589
L9.5477 4.8894
" />
<path d="M9.5839 2.5388
L9.6301 2.5713
" />
<path d="M9.5839 5.1112
L9.5362 5.1414
" />
<path d="M9.6141 3.2589
L9.5805 3.1879
" />
<path d="M9.6141 4.3911
L9.6406 4.3172
" />
<path d="M9.6160 2.8934
L9.6480 2.9306
" />
<path d="M9.6160 4.7566
L9.5821 4.7921
" />
<path d="M9.6168 2.8232
L9.6489 2.8570
" />
<path d="M9.6168 4.8268
L9.5830 4.8589
" />
<path d="M9.6200 2.3259
L9.5307 2.2787
" />
<path d="M9.6200 5.3241
L9.7055 5.2704
" />
<path d="M9.6301 2.5713
L9.6746 2.6060
" />
<path d="M9.6301 5.0787
L9.5839 5.1112
" />
<path d="M9.6406 3.3328
L9.6141 3.2589
" />
<path d="M9.6406 4.3172
L9.6596 4.2411
" />
<path d="M9.6480 2.9306
L9.6782 2.9693
" />
<path d="M9.6480 4.7194
L9.6160 4.7566
" />
<path d="M9.6489 2.8570
L9.6794 2.8923
" />
<path d="M9.6489 4.7930
L9.6168 4.8268
" />
<path d="M9.6596 3.4089
L9.6406 3.3328
" />
<path d="M9.6596 4.2411
L9.6711 4.1634
" />
<path d="M9.6711 3.4866
L9.6596 3.4089
" />
<path d="M9.6711 4.1634
L9.6750 4.0850
" />
<path d="M9.6746 2.6060
L9.7173 2.6429
" />
<path d="M9.6746 5.0440
L9.6301 5.0787
" />
<path d="M9.6750 3.5650
L9.6711 3.4866
" />
<path d="M9.6750 4.0850
L9.6750 3.5650
" />
<path d="M9.6750 4.0850
L9.8750 4.0850
" />
<path d="M9.6782 2.9693
L9.7065 3.0094
" />
<path d="M9.6782 4.6807
L9.6480 4.7194
" />
<path d="M9.6794 2.8923
L9.7080 2.9291
" />
<path d="M9.6794 4.7577
L9.6489 4.7930
" />
<path d="M9.7055 2.3796
L9.6200 2.3259
" />
<path d="M9.7055 5.2704
L9.7867 5.2105
" />
<path d="M9.7065 3.0094
L9.7327 3.0509
" />
<path d="M9.7065 4.6406
L9.6782 4.6807
" />
<path d="M9.7080 2.9291
L9.7349 2.9672
" />
<path d="M9.7080 4.7209
L9.6794 4.7577
" />
<path d="M9.7173 2.6429
L9.7582 2.6818
" />
<path d="M9.7173 5.0071
L9.6746 5.0440
" />
<path d="M9.7327 3.0509
L9.7569 3.0936
" />
<path d="M9.7327 4.5991
L9.7065 4.6406
" />
<path d="M9.7349 2.9672
L9.7598 3.0066
" />
<path d="M9.7349 4.6828
L9.7080 4.7209
" />
<path d="M9.7569 3.0936
L9.7790 3.1374
" />
<path d="M9.7569 4.5564
L9.7327 4.5991
" />
<path d="M9.7582 2.6818
L9.7971 2.7227
" />
<path d="M9.7582 4.9682
L9.7173 5.0071
" />
<path d="M9.7598 3.0066
L9.7828 3.0472
" />
<path d="M9.7598 4.6434
L9.7349 4.6828
" />
<path d="M9.7790 3.1374
L9.7989 3.1823
" />
<path d="M9.7790 4.5126
L9.7569 4.5564
" />
<path d="M9.7828 3.0472
L9.8038 3.0888
" />
<path d="M9.7828 4.6028
L9.7598 4.6434
" />
<path d="M9.7867 2.4395
L9.7055 2.3796
" />
<path d="M9.7867 5.2105
L9.8632 5.1446
" />
<path d="M9.7971 2.7227
L9.8340 2.7654
" />
<path d="M9.7971 4.9273
L9.7582 4.9682
" />
<path d="M9.7989 3.1823
L9.8165 3.2281
" />
<path d="M9.7989 4.4677
L9.7790 4.5126
" />
<path d="M9.8038 3.0888
L9.8227 3.1315
" />
<path d="M9.8038 4.5612
L9.7828 4.6028
" />
<path d="M9.8165 3.2281
L9.8319 3.2747
" />
<path d="M9.8165 4.4219
L9.7989 4.4677
" />
<path d="M9.8227 3.1315
L9.8395 3.1750
" />
<path d="M9.8227 4.5185
L9.8038 4.5612
" />
<path d="M9.8319 3.2747
L9.8450 3.3220
" />
<path d="M9.8319 4.3753
L9.8165 4.4219
" />
<path d="M9.8340 2.7654
L9.8687 2.8099
" />
<path d="M9.8340 4.8846
L9.7971 4.9273
" />
<path d="M9.8395 3.1750
L9.8541 3.2192
" />
<path d="M9.8395 4.4750
L9.8227 4.5185
" />
<path d="M9.8450 3.3220
L9.8558 3.3699
" />
<path d="M9.8450 4.3280
L9.8319 4.3753
" />
<path d="M9.8541 3.2192
L9.8665 3.2642
" />
<path d="M9.8541 4.4308
L9.8395 4.4750
" />
<path d="M9.8558 3.3699
L9.8642 3.4183
" />
<path d="M9.8558 4.2801
L9.8450 4.3280
" />
<path d="M9.8632 2.5054
L9.7867 2.4395
" />
<path d="M9.8632 5.1446
L9.9346 5.0732
" />
<path d="M9.8642 3.4183
L9.8702 3.4670
" />
<path d="M9.8642 4.2317
L9.8558 4.2801
" />
<path d="M9.8665 3.2642
L9.8767 3.3097
" />
<path d="M9.8665 4.3858
L9.8541 4.4308
" />
<path d="M9.8687 2.8099
L9.9012 2.8561
" />
<path d="M9.8687 4.8401
L9.8340 4.8846
" />
<path d="M9.8702 3.4670
L9.8738 3.5159
" />
<path d="M9.8702 4.1830
L9.8642 4.2317
" />
<path d="M9.8738 3.5159
L9.8750 3.5650
" />
<path d="M9.8738 4.1341
L9.8702 4.1830
" />
<path d="M9.8750 3.5650
L9.6750 3.5650
" />
<path d="M9.8750 4.0850
L9.8738 4.1341
" />
<path d="M9.8750 4.0850
L9.8750 3.5650
" />
<path d="M9.8767 3.3097
L9.8847 3.3556
" />
<path d="M9.8767 4.3403
L9.8665 4.3858
" />
<path d="M9.8847 3.3556
L9.8904 3.4019
" />
<path d="M9.8847 4.2944
L9.8767 4.3403
" />
<path d="M9.8904 3.4019
L9.8939 3.4484
" />
<path d="M9.8904 4.2481
L9.8847 4.2944
" />
<path d="M9.8939 3.4484
L9.8950 3.4950
" />
<path d="M9.8939 4.2016
L9.8904 4.2481
" />
<path d="M9.8950 3.4950
L10.0950 3.4950
" />
<path d="M9.8950 4.1550
L9.8939 4.2016
" />
<path d="M9.8950 4.1550
L9.8950 3.4950
" />
<path d="M9.9012 2.8561
L9.9314 2.9038
" />
<path d="M9.9012 4.7939
L9.8687 4.8401
" />
<path d="M9.9042 5.1050
L10.0750 5.1050
" />
<path d="M9.9314 2.9038
L9.9592 2.9529
" />
<path d="M9.9314 4.7462
L9.9012 4.7939
" />
<path d="M9.9346 2.5768
L9.8632 2.5054
" />
<path d="M9.9346 5.0732
L10.0005 4.9967
" />
<path d="M9.9592 2.9529
L9.9846 3.0033
" />
<path d="M9.9592 4.6971
L9.9314 4.7462
" />
<path d="M9.9846 3.0033
L10.0075 3.0549
" />
<path d="M9.9846 4.6467
L9.9592 4.6971
" />
<path d="M10.0005 2.6533
L9.9346 2.5768
" />
<path d="M10.0005 4.9967
L10.0604 4.9155
" />
<path d="M10.0075 3.0549
L10.0278 3.1076
" />
<path d="M10.0075 4.5951
L9.9846 4.6467
" />
<path d="M10.0278 3.1076
L10.0455 3.1612
" />
<path d="M10.0278 4.5424
L10.0075 4.5951
" />
<path d="M10.0455 3.1612
L10.0605 3.2156
" />
<path d="M10.0455 4.4888
L10.0278 4.5424
" />
<path d="M10.0604 2.7345
L10.0005 2.6533
" />
<path d="M10.0604 4.9155
L10.1141 4.8300
" />
<path d="M10.0605 3.2156
L10.0729 3.2706
" />
<path d="M10.0605 4.4344
L10.0455 4.4888
" />
<path d="M10.0729 3.2706
L10.0826 3.3263
" />
<path d="M10.0729 4.3794
L10.0605 4.4344
" />
<path d="M10.0750 2.5450
L9.9042 2.5450
" />
<path d="M10.0750 2.5450
L10.0750 2.1450
" />
<path d="M10.0750 5.5050
L8.9250 5.5050
" />
<path d="M10.0750 5.5050
L10.0750 5.1050
" />
<path d="M10.0826 3.3263
L10.0895 3.3823
" />
<path d="M10.0826 4.3237
L10.0729 4.3794
" />
<path d="M10.0895 3.3823
L10.0936 3.4386
" />
<path d="M10.0895 4.2677
L10.0826 4.3237
" />
<path d="M10.0936 3.4386
L10.0950 3.4950
" />
<path d="M10.0936 4.2114
L10.0895 4.2677
" />
<path d="M10.0950 3.4950
L10.0950 4.1550
" />
<path d="M10.0950 4.1550
L9.8950 4.1550
" />
<path d="M10.0950 4.1550
L10.0936 4.2114
" />
<path d="M10.0974 2.1450
L10.0750 2.1450
" />
<path d="M10.0974 2.5450
L10.0750 2.5450
" />
<path d="M10.0974 5.1050
L10.0750 5.1050
" />
<path d="M10.0974 5.5050
L10.0750 5.5050
" />
<path d="M10.1141 2.8200
L10.0604 2.7345
" />
<path d="M10.1141 4.8300
L10.1613 4.7407
" />
<path d="M10.1195 2.1450
L10.0974 2.1450
" />
<path d="M10.1195 2.5450
L10.0974 2.5450
" />
<path d="M10.1195 5.1050
L10.0974 5.1050
" />
<path d="M10.1195 5.5050
L10.0974 5.5050
" />
<path d="M10.1411 2.1450
L10.1195 2.1450
" />
<path d="M10.1411 2.5450
L10.1195 2.5450
" />
<path d="M10.1411 5.1050
L10.1195 5.1050
" />
<path d="M10.1411 5.5050
L10.1195 5.5050
" />
<path d="M10.1613 2.9093
L10.1141 2.8200
" />
<path d="M10.1613 4.7407
L10.2017 4.6482
" />
<path d="M10.1618 2.1450
L10.1411 2.1450
" />
<path d="M10.1618 2.5450
L10.1411 2.5450
" />
<path d="M10.1618 5.1050
L10.1411 5.1050
" />
<path d="M10.1618 5.5050
L10.1411 5.5050
" />
<path d="M10.1814 2.1450
L10.1618 2.1450
" />
<path d="M10.1814 2.5450
L10.1618 2.5450
" />
<path d="M10.1814 5.1050
L10.1618 5.1050
" />
<path d="M10.1814 5.5050
L10.1618 5.5050
" />
<path d="M10.1997 2.1450
L10.1814 2.1450
" />
<path d="M10.1997 2.5450
L10.1814 2.5450
" />
<path d="M10.1997 5.1050
L10.1814 5.1050
" />
<path d="M10.1997 5.5050
L10.1814 5.5050
" />
<path d="M10.2017 3.0018
L10.1613 2.9093
" />
<path d="M10.2017 4.6482
L10.2350 4.5529
" />
<path d="M10.2164 2.1450
L10.1997 2.1450
" />
<path d="M10.2164 2.5450
L10.1997 2.5450
" />
<path d="M10.2164 5.1050
L10.1997 5.1050
" />
<path d="M10.2164 5.5050
L10.1997 5.5050
" />
<path d="M10.2314 2.1450
L10.2164 2.1450
" />
<path d="M10.2314 2.5450
L10.2164 2.5450
" />
<path d="M10.2314 5.1050
L10.2164 5.1050
" />
<path d="M10.2314 5.5050
L10.2164 5.5050
" />
<path d="M10.2350 3.0971
L10.2017 3.0018
" />
<path d="M10.2350 4.5529
L10.2612 4.4554
" />
<path d="M10.2443 2.1450
L10.2314 2.1450
" />
<path d="M10.2443 2.5450
L10.2314 2.5450
" />
<path d="M10.2443 5.1050
L10.2314 5.1050
" />
<path d="M10.2443 5.5050
L10.2314 5.5050
" />
<path d="M10.2552 2.1450
L10.2443 2.1450
" />
<path d="M10.2552 2.5450
L10.2443 2.5450
" />
<path d="M10.2552 5.1050
L10.2443 5.1050
" />
<path d="M10.2552 5.5050
L10.2443 5.5050
" />
<path d="M10.2612 3.1946
L10.2350 3.0971
" />
<path d="M10.2612 4.4554
L10.2799 4.3562
" />
<path d="M10.2638 2.1450
L10.2552 2.1450
" />
<path d="M10.2638 2.5450
L10.2552 2.5450
" />
<path d="M10.2638 5.1050
L10.2552 5.1050
" />
<path d="M10.2638 5.5050
L10.2552 5.5050
" />
<path d="M10.2690 6.6950
L10.2698 6.6950
" />
<path d="M10.2698 6.6950
L10.2706 6.6950
" />
<path d="M10.2700 2.1450
L10.2638 2.1450
" />
<path d="M10.2700 2.5450
L10.2638 2.5450
" />
<path d="M10.2700 5.1050
L10.2638 5.1050
" />
<path d="M10.2700 5.5050
L10.2638 5.5050
" />
<path d="M10.2706 6.6950
L10.2713 6.6950
" />
<path d="M10.2713 6.6950
L10.2719 6.6950
" />
<path d="M10.2719 6.6950
L10.2725 6.6950
" />
<path d="M10.2725 6.6950
L10.2730 6.6950
" />
<path d="M10.2730 6.6950
L10.2735 6.6950
" />
<path d="M10.2735 6.6950
L10.2739 6.6950
" />
<path d="M10.2737 2.1450
L10.2700 2.1450
" />
<path d="M10.2737 2.5450
L10.2700 2.5450
" />
<path d="M10.2737 5.1050
L10.2700 5.1050
" />
<path d="M10.2737 5.5050
L10.2700 5.5050
" />
<path d="M10.2739 6.6950
L10.2742 6.6950
" />
<path d="M10.2742 6.6950
L10.2745 6.6950
" />
<path d="M10.2745 6.6950
L10.2747 6.6950
" />
<path d="M10.2747 6.6950
L10.2749 6.6950
" />
<path d="M10.2749 6.6950
L10.2750 6.6950
" />
<path d="M10.2750 6.6950
L10.2750 6.6950
" />
<path d="M10.2750 0.5600
L10.2750 0.5550
" />
<path d="M10.2750 0.5751
L10.2750 0.5600
" />
<path d="M10.2750 0.5999
L10.2750 0.5751
" />
<path d="M10.2750 0.6342
L10.2750 0.5999
" />
<path d="M10.2750 0.6776
L10.2750 0.6342
" />
<path d="M10.2750 0.7295
L10.2750 0.6776
" />
<path d="M10.2750 0.7893
L10.2750 0.7295
" />
<path d="M10.2750 0.8562
L10.2750 0.7893
" />
<path d="M10.2750 0.9294
L10.2750 0.8562
" />
<path d="M10.2750 1.0079
L10.2750 0.9294
" />
<path d="M10.2750 1.0908
L10.2750 1.0079
" />
<path d="M10.2750 1.1770
L10.2750 1.0908
" />
<path d="M10.2750 1.2654
L10.2750 1.1770
" />
<path d="M10.2750 1.3550
L9.3750 1.3550
" />
<path d="M10.2750 1.3550
L10.2750 1.2654
" />
<path d="M10.2750 1.7450
L9.3750 1.7450
" />
<path d="M10.2750 1.7450
L10.2750 1.3550
" />
<path d="M10.2750 1.7898
L10.2750 1.7450
" />
<path d="M10.2750 1.8340
L10.2750 1.7898
" />
<path d="M10.2750 1.8771
L10.2750 1.8340
" />
<path d="M10.2750 1.9186
L10.2750 1.8771
" />
<path d="M10.2750 1.9578
L10.2750 1.9186
" />
<path d="M10.2750 1.9944
L10.2750 1.9578
" />
<path d="M10.2750 2.0278
L10.2750 1.9944
" />
<path d="M10.2750 2.0577
L10.2750 2.0278
" />
<path d="M10.2750 2.0837
L10.2750 2.0577
" />
<path d="M10.2750 2.1054
L10.2750 2.0837
" />
<path d="M10.2750 2.1226
L10.2750 2.1054
" />
<path d="M10.2750 2.1350
L10.2750 2.1226
" />
<path d="M10.2750 2.1425
L10.2750 2.1350
" />
<path d="M10.2750 2.1450
L10.2737 2.1450
" />
<path d="M10.2750 2.1450
L10.2750 2.1425
" />
<path d="M10.2750 2.1450
L10.2750 2.5450
" />
<path d="M10.2750 2.5450
L10.2737 2.5450
" />
<path d="M10.2750 5.1050
L10.2737 5.1050
" />
<path d="M10.2750 5.1050
L10.2750 5.5050
" />
<path d="M10.2750 5.5050
L10.2737 5.5050
" />
<path d="M10.2750 5.5075
L10.2750 5.5050
" />
<path d="M10.2750 5.5150
L10.2750 5.5075
" />
<path d="M10.2750 5.5274
L10.2750 5.5150
" />
<path d="M10.2750 5.5446
L10.2750 5.5274
" />
<path d="M10.2750 5.5663
L10.2750 5.5446
" />
<path d="M10.2750 5.5923
L10.2750 5.5663
" />
<path d="M10.2750 5.6222
L10.2750 5.5923
" />
<path d="M10.2750 5.6556
L10.2750 5.6222
" />
<path d="M10.2750 5.6922
L10.2750 5.6556
" />
<path d="M10.2750 5.7314
L10.2750 5.6922
" />
<path d="M10.2750 5.7729
L10.2750 5.7314
" />
<path d="M10.2750 5.8160
L10.2750 5.7729
" />
<path d="M10.2750 5.8602
L10.2750 5.8160
" />
<path d="M10.2750 5.9050
L10.2750 5.8602
" />
<path d="M10.2750 6.2950
L10.2750 5.9050
" />
<path d="M10.2750 6.3846
L10.2750 6.2950
" />
<path d="M10.2750 6.4730
L10.2750 6.3846
" />
<path d="M10.2750 6.5592
L10.2750 6.4730
" />
<path d="M10.2750 6.6100
L10.3000 6.5850
" />
<path d="M10.2750 6.6421
L10.2750 6.5592
" />
<path d="M10.2750 6.7206
L10.2750 6.6421
" />
<path d="M10.2750 6.7938
L10.2750 6.7206
" />
<path d="M10.2750 6.8607
L10.2750 6.7938
" />
<path d="M10.2750 6.9205
L10.2750 6.8607
" />
<path d="M10.2750 6.9724
L10.2750 6.9205
" />
<path d="M10.2750 7.0158
L10.2750 6.9724
" />
<path d="M10.2750 7.0501
L10.2750 7.0158
" />
<path d="M10.2750 7.0749
L10.2750 7.0501
" />
<path d="M10.2750 7.0900
L10.2750 7.0749
" />
<path d="M10.2750 7.0950
L9.3750 7.0950
" />
<path d="M10.2750 7.0950
L10.2750 7.0900
" />
<path d="M10.2799 3.2938
L10.2612 3.1946
" />
<path d="M10.2799 4.3562
L10.2912 4.2559
" />
<path d="M10.2912 3.3941
L10.2799 3.2938
" />
<path d="M10.2912 4.2559
L10.2950 4.1550
" />
<path d="M10.2941 4.2031
L10.2985 4.1491
" />
<path d="M10.2950 3.4950
L10.2912 3.3941
" />
<path d="M10.2950 4.1550
L10.2950 3.4950
" />
<path d="M10.2985 3.5009
L10.2941 3.4469
" />
<path d="M10.2985 4.1491
L10.3000 4.0950
" />
<path d="M10.3000 1.0650
L10.2750 1.0400
" />
<path d="M10.3000 1.0650
L10.3000 1.2650
" />
<path d="M10.3000 1.2650
L10.2750 1.2400
" />
<path d="M10.3000 1.2650
L10.2750 1.2650
" />
<path d="M10.3000 3.5550
L10.2985 3.5009
" />
<path d="M10.3000 3.5550
L10.3000 1.2650
" />
<path d="M10.3000 3.5550
L10.3000 4.0950
" />
<path d="M10.3000 3.7900
L10.3000 3.7900
" />
<path d="M10.3000 6.3850
L10.2750 6.3850
" />
<path d="M10.3000 6.3850
L10.2750 6.4100
" />
<path d="M10.3000 6.3850
L10.2750 6.4100
" />
<path d="M10.3000 6.3850
L10.3000 4.0950
" />
<path d="M10.3000 6.3850
L10.3000 6.5850
" />
<path d="M10.3000 3.8600
L10.3000 3.8600
" />
<path d="M10.3000 3.8600
L10.3000 3.7900
" />
</g> 
</svg>
