<?xml version="1.0" standalone="no"?>
 <!DOCTYPE svg PUBLIC "-//W3C//DTD SVG 1.1//EN" 
 "http://www.w3.org/Graphics/SVG/1.1/DTD/svg11.dtd"> 
<svg
  xmlns:svg="http://www.w3.org/2000/svg"
  xmlns="http://www.w3.org/2000/svg"
  xmlns:xlink="http://www.w3.org/1999/xlink"
  version="1.1"
  width="3.9370mm" height="4.0386mm" viewBox="0.0000 0.0000 3.9370 4.0386">
<title>SVG Image created as outline.svg date 2025/06/16 09:18:14 </title>
  <desc>Image generated by PCBNEW </desc>
<g style="fill:#000000; fill-opacity:1.0000;stroke:#000000; stroke-opacity:1.0000;
stroke-linecap:round; stroke-linejoin:round;"
 transform="translate(0 0) scale(1 1)">
</g>
<g style="fill:none; 
stroke:#000000; stroke-width:0.0200; stroke-opacity:1; 
stroke-linecap:round; stroke-linejoin:round;">
<path d="M0.2750 1.2700
L0.2750 0.8300
" />
<path d="M0.2750 1.2700
L0.3260 1.2700
" />
<path d="M0.2750 1.9200
L0.2750 1.4800
" />
<path d="M0.2750 1.9200
L0.3260 1.9200
" />
<path d="M0.2750 2.5700
L0.2750 2.1300
" />
<path d="M0.2750 2.5700
L0.3260 2.5700
" />
<path d="M0.2750 3.2200
L0.2750 2.7800
" />
<path d="M0.2750 3.2200
L0.3260 3.2200
" />
<path d="M0.3260 0.3250
L0.3260 3.7250
" />
<path d="M0.3260 0.8300
L0.2750 0.8300
" />
<path d="M0.3260 1.4800
L0.2750 1.4800
" />
<path d="M0.3260 2.1300
L0.2750 2.1300
" />
<path d="M0.3260 2.7800
L0.2750 2.7800
" />
<path d="M0.3260 3.7250
L3.6240 3.7250
" />
<path d="M1.2600 0.3000
L1.2600 0.3250
" />
<path d="M1.2600 3.7250
L1.2600 3.7500
" />
<path d="M1.2600 3.7500
L1.5100 3.7500
" />
<path d="M1.5100 0.3000
L1.2600 0.3000
" />
<path d="M1.5100 0.3250
L1.5100 0.3000
" />
<path d="M1.5100 3.7500
L1.5100 3.7250
" />
<path d="M2.4400 0.3000
L2.4400 0.3250
" />
<path d="M2.4400 3.7250
L2.4400 3.7500
" />
<path d="M2.4400 3.7500
L2.6900 3.7500
" />
<path d="M2.6900 0.3000
L2.4400 0.3000
" />
<path d="M2.6900 0.3250
L2.6900 0.3000
" />
<path d="M2.6900 3.7500
L2.6900 3.7250
" />
<path d="M3.6240 0.3250
L0.3260 0.3250
" />
<path d="M3.6240 1.2700
L3.6750 1.2700
" />
<path d="M3.6240 1.9200
L3.6750 1.9200
" />
<path d="M3.6240 2.5700
L3.6750 2.5700
" />
<path d="M3.6240 3.2200
L3.6750 3.2200
" />
<path d="M3.6240 3.7250
L3.6240 0.3250
" />
<path d="M3.6750 0.8300
L3.6240 0.8300
" />
<path d="M3.6750 0.8300
L3.6750 1.2700
" />
<path d="M3.6750 1.4800
L3.6240 1.4800
" />
<path d="M3.6750 1.4800
L3.6750 1.9200
" />
<path d="M3.6750 2.1300
L3.6240 2.1300
" />
<path d="M3.6750 2.1300
L3.6750 2.5700
" />
<path d="M3.6750 2.7800
L3.6240 2.7800
" />
<path d="M3.6750 2.7800
L3.6750 3.2200
" />
<circle cx="0.6560" cy="1.0520" r="0.0848" /> 
</g> 
</svg>
